G04 (created by PCBNEW (2013-08-24 BZR 4298)-stable) date Mon 09 Dec 2013 08:00:48 PM PST*
%MOIN*%
G04 Gerber Fmt 3.4, Leading zero omitted, Abs format*
%FSLAX34Y34*%
G01*
G70*
G90*
G04 APERTURE LIST*
%ADD10C,0.005906*%
%ADD11C,0.004921*%
%ADD12C,0.009843*%
%ADD13C,0.078740*%
%ADD14R,0.055000X0.035000*%
%ADD15R,0.026378X0.051181*%
%ADD16R,0.245276X0.206693*%
%ADD17R,0.405512X0.206693*%
%ADD18C,0.019685*%
%ADD19R,0.007874X0.011811*%
%ADD20C,0.078700*%
%ADD21R,0.078700X0.078700*%
%ADD22C,0.070866*%
%ADD23C,0.027559*%
%ADD24C,0.019685*%
%ADD25C,0.027559*%
%ADD26C,0.039370*%
%ADD27C,0.078740*%
%ADD28C,0.010000*%
G04 APERTURE END LIST*
G54D10*
G54D11*
X64396Y-29855D02*
X64396Y-29461D01*
X64527Y-29742D01*
X64658Y-29461D01*
X64658Y-29855D01*
X64902Y-29855D02*
X64865Y-29836D01*
X64846Y-29817D01*
X64827Y-29780D01*
X64827Y-29667D01*
X64846Y-29630D01*
X64865Y-29611D01*
X64902Y-29592D01*
X64958Y-29592D01*
X64996Y-29611D01*
X65014Y-29630D01*
X65033Y-29667D01*
X65033Y-29780D01*
X65014Y-29817D01*
X64996Y-29836D01*
X64958Y-29855D01*
X64902Y-29855D01*
X65146Y-29592D02*
X65296Y-29592D01*
X65202Y-29461D02*
X65202Y-29799D01*
X65221Y-29836D01*
X65258Y-29855D01*
X65296Y-29855D01*
X65483Y-29855D02*
X65446Y-29836D01*
X65427Y-29817D01*
X65408Y-29780D01*
X65408Y-29667D01*
X65427Y-29630D01*
X65446Y-29611D01*
X65483Y-29592D01*
X65539Y-29592D01*
X65577Y-29611D01*
X65596Y-29630D01*
X65614Y-29667D01*
X65614Y-29780D01*
X65596Y-29817D01*
X65577Y-29836D01*
X65539Y-29855D01*
X65483Y-29855D01*
X65783Y-29855D02*
X65783Y-29592D01*
X65783Y-29667D02*
X65802Y-29630D01*
X65821Y-29611D01*
X65858Y-29592D01*
X65896Y-29592D01*
G54D12*
X61862Y-28957D02*
X61675Y-28957D01*
X61656Y-29145D01*
X61675Y-29126D01*
X61712Y-29107D01*
X61806Y-29107D01*
X61844Y-29126D01*
X61862Y-29145D01*
X61881Y-29182D01*
X61881Y-29276D01*
X61862Y-29313D01*
X61844Y-29332D01*
X61806Y-29351D01*
X61712Y-29351D01*
X61675Y-29332D01*
X61656Y-29313D01*
X62050Y-29313D02*
X62068Y-29332D01*
X62050Y-29351D01*
X62031Y-29332D01*
X62050Y-29313D01*
X62050Y-29351D01*
X62425Y-28957D02*
X62237Y-28957D01*
X62218Y-29145D01*
X62237Y-29126D01*
X62275Y-29107D01*
X62368Y-29107D01*
X62406Y-29126D01*
X62425Y-29145D01*
X62443Y-29182D01*
X62443Y-29276D01*
X62425Y-29313D01*
X62406Y-29332D01*
X62368Y-29351D01*
X62275Y-29351D01*
X62237Y-29332D01*
X62218Y-29313D01*
X62612Y-29201D02*
X62912Y-29201D01*
X63081Y-28995D02*
X63100Y-28976D01*
X63137Y-28957D01*
X63231Y-28957D01*
X63268Y-28976D01*
X63287Y-28995D01*
X63306Y-29032D01*
X63306Y-29070D01*
X63287Y-29126D01*
X63062Y-29351D01*
X63306Y-29351D01*
X63643Y-29088D02*
X63643Y-29351D01*
X63550Y-28938D02*
X63456Y-29220D01*
X63700Y-29220D01*
X63812Y-29088D02*
X63906Y-29351D01*
X64000Y-29088D01*
X57495Y-29503D02*
X57457Y-29485D01*
X57401Y-29485D01*
X57345Y-29503D01*
X57307Y-29541D01*
X57289Y-29578D01*
X57270Y-29653D01*
X57270Y-29710D01*
X57289Y-29785D01*
X57307Y-29822D01*
X57345Y-29860D01*
X57401Y-29878D01*
X57439Y-29878D01*
X57495Y-29860D01*
X57514Y-29841D01*
X57514Y-29710D01*
X57439Y-29710D01*
X57682Y-29878D02*
X57682Y-29485D01*
X57907Y-29878D01*
X57907Y-29485D01*
X58095Y-29878D02*
X58095Y-29485D01*
X58188Y-29485D01*
X58245Y-29503D01*
X58282Y-29541D01*
X58301Y-29578D01*
X58320Y-29653D01*
X58320Y-29710D01*
X58301Y-29785D01*
X58282Y-29822D01*
X58245Y-29860D01*
X58188Y-29878D01*
X58095Y-29878D01*
G54D13*
X59149Y-30578D03*
X60527Y-30578D03*
G54D14*
X56255Y-48902D03*
X56255Y-48152D03*
X62220Y-47339D03*
X62220Y-46589D03*
X56614Y-35711D03*
X56614Y-36461D03*
G54D15*
X58165Y-37842D03*
X58559Y-37842D03*
X58952Y-37842D03*
X59346Y-37842D03*
X59740Y-37842D03*
X60133Y-37842D03*
X60527Y-37842D03*
X60527Y-45007D03*
X60133Y-45007D03*
X59740Y-45007D03*
X59346Y-45007D03*
X58952Y-45007D03*
X58559Y-45007D03*
X58165Y-45007D03*
X55015Y-45007D03*
X55409Y-45007D03*
X55803Y-45007D03*
X56196Y-45007D03*
X56590Y-45007D03*
X56984Y-45007D03*
X57377Y-45007D03*
X57771Y-45007D03*
X57771Y-37842D03*
X57377Y-37842D03*
X56984Y-37842D03*
X56590Y-37842D03*
X56196Y-37842D03*
X55803Y-37842D03*
X55409Y-37842D03*
X55015Y-37842D03*
G54D16*
X56131Y-40224D03*
X59411Y-40224D03*
G54D17*
X57771Y-42625D03*
G54D18*
X55147Y-39437D03*
X55541Y-39437D03*
X55935Y-39437D03*
X56328Y-39437D03*
X56722Y-39437D03*
X57116Y-39437D03*
X60395Y-39437D03*
X60001Y-39437D03*
X59608Y-39437D03*
X59214Y-39437D03*
X58820Y-39437D03*
X58427Y-39437D03*
X60395Y-39830D03*
X60001Y-39830D03*
X59608Y-39830D03*
X59214Y-39830D03*
X58820Y-39830D03*
X58427Y-39830D03*
X57116Y-39830D03*
X56722Y-39830D03*
X56328Y-39830D03*
X55935Y-39830D03*
X55541Y-39830D03*
X55147Y-39830D03*
X58427Y-40224D03*
X58820Y-40224D03*
X59214Y-40224D03*
X59608Y-40224D03*
X60001Y-40224D03*
X60395Y-40224D03*
X57116Y-40224D03*
X56722Y-40224D03*
X56328Y-40224D03*
X55935Y-40224D03*
X55541Y-40224D03*
X55147Y-40224D03*
X55147Y-40618D03*
X55541Y-40618D03*
X55935Y-40618D03*
X56328Y-40618D03*
X56722Y-40618D03*
X57116Y-40618D03*
X58427Y-40618D03*
X58820Y-40618D03*
X59214Y-40618D03*
X59608Y-40618D03*
X60001Y-40618D03*
X60395Y-40618D03*
X55147Y-41011D03*
X55541Y-41011D03*
X55935Y-41011D03*
X56328Y-41011D03*
X56722Y-41011D03*
X57116Y-41011D03*
X58427Y-41011D03*
X58820Y-41011D03*
X59214Y-41011D03*
X59608Y-41011D03*
X60001Y-41011D03*
X60395Y-41011D03*
X58421Y-41838D03*
X58814Y-41838D03*
X59208Y-41838D03*
X59602Y-41838D03*
X59602Y-42232D03*
X59208Y-42232D03*
X58814Y-42232D03*
X58421Y-42232D03*
X59602Y-42625D03*
X59208Y-42625D03*
X58814Y-42625D03*
X58421Y-42625D03*
X58421Y-43019D03*
X58814Y-43019D03*
X59208Y-43019D03*
X59602Y-43019D03*
X58421Y-43413D03*
X58814Y-43413D03*
X59208Y-43413D03*
X59602Y-43413D03*
X58027Y-43413D03*
X57515Y-43413D03*
X57122Y-43413D03*
X56728Y-43413D03*
X56334Y-43413D03*
X55940Y-43413D03*
X58027Y-43019D03*
X57515Y-43019D03*
X57122Y-43019D03*
X56728Y-43019D03*
X56334Y-43019D03*
X55940Y-43019D03*
X55940Y-42625D03*
X56334Y-42625D03*
X56728Y-42625D03*
X57122Y-42625D03*
X57515Y-42625D03*
X58027Y-42625D03*
X55940Y-42232D03*
X56334Y-42232D03*
X56728Y-42232D03*
X57122Y-42232D03*
X57515Y-42232D03*
X58027Y-42232D03*
X58027Y-41838D03*
X57515Y-41838D03*
X57122Y-41838D03*
X56728Y-41838D03*
X56334Y-41838D03*
X55940Y-41838D03*
G54D19*
X62893Y-31066D03*
X63444Y-31066D03*
X63444Y-31688D03*
X62893Y-31688D03*
X65149Y-35625D03*
X64598Y-35625D03*
X64582Y-36232D03*
X65133Y-36232D03*
G54D14*
X61515Y-34199D03*
X61515Y-34949D03*
G54D20*
X54401Y-31992D03*
G54D21*
X56531Y-30220D03*
X56531Y-32622D03*
X52269Y-30220D03*
X52269Y-32622D03*
G54D20*
X54401Y-30220D03*
G54D13*
X63933Y-32972D03*
X63933Y-34350D03*
G54D22*
X63374Y-44043D03*
X63374Y-43043D03*
X63374Y-42043D03*
X63374Y-41043D03*
X64374Y-41043D03*
X64374Y-42043D03*
X64374Y-43043D03*
X64374Y-44043D03*
X64374Y-49043D03*
X64374Y-48043D03*
X64374Y-47043D03*
X64374Y-46043D03*
X64374Y-45043D03*
X63374Y-45043D03*
X63374Y-46043D03*
X63374Y-47043D03*
X63374Y-48043D03*
X63374Y-49043D03*
G54D14*
X55244Y-48164D03*
X55244Y-48914D03*
X60311Y-48294D03*
X60311Y-49044D03*
X61362Y-48262D03*
X61362Y-49012D03*
X53185Y-48878D03*
X53185Y-48128D03*
X58244Y-48945D03*
X58244Y-48195D03*
X57240Y-48934D03*
X57240Y-48184D03*
G54D23*
X62263Y-42106D03*
X54240Y-50070D03*
X61259Y-46358D03*
X65736Y-41031D03*
X56661Y-46688D03*
X62106Y-30074D03*
X57267Y-49787D03*
X53251Y-35803D03*
X64901Y-31649D03*
X56803Y-51106D03*
X64429Y-50090D03*
X62259Y-48271D03*
X59070Y-49586D03*
G54D12*
X65484Y-30523D02*
X65535Y-30468D01*
X65535Y-30468D02*
X65681Y-30322D01*
X65468Y-30098D02*
X65484Y-30523D01*
X65484Y-30523D02*
X65278Y-30339D01*
G54D24*
X55244Y-48914D02*
X55244Y-49066D01*
X55244Y-49066D02*
X54240Y-50070D01*
G54D25*
X62578Y-41460D02*
X62547Y-41362D01*
X62263Y-42106D02*
X62496Y-41677D01*
X62496Y-41677D02*
X62578Y-41460D01*
X63188Y-41062D02*
X63374Y-41043D01*
X62547Y-41362D02*
X63188Y-41062D01*
X54240Y-50590D02*
X54240Y-50070D01*
X54244Y-50066D02*
X54240Y-50070D01*
X54244Y-48890D02*
X54244Y-50066D01*
X55582Y-51822D02*
X54240Y-50590D01*
X59700Y-51822D02*
X55582Y-51822D01*
X60326Y-51370D02*
X59700Y-51822D01*
X60326Y-48985D02*
X60326Y-51370D01*
X58255Y-48195D02*
X58255Y-47685D01*
X58255Y-47685D02*
X57771Y-47200D01*
X57212Y-47759D02*
X57212Y-48180D01*
X57771Y-47200D02*
X57212Y-47759D01*
X57771Y-45007D02*
X57771Y-47200D01*
G54D24*
X62220Y-46589D02*
X61337Y-46436D01*
X61337Y-46436D02*
X61259Y-46358D01*
G54D25*
X65759Y-40881D02*
X65736Y-40947D01*
X65736Y-40947D02*
X65736Y-41031D01*
G54D24*
X56984Y-45007D02*
X56984Y-46440D01*
X56984Y-46440D02*
X56661Y-46688D01*
X65133Y-36232D02*
X65519Y-36232D01*
X65519Y-36232D02*
X65751Y-36405D01*
X65751Y-36405D02*
X65759Y-40881D01*
X62893Y-31688D02*
X62425Y-31688D01*
X62425Y-31688D02*
X62106Y-32007D01*
G54D26*
X60909Y-33570D02*
X62106Y-32007D01*
X62106Y-32007D02*
X62106Y-30074D01*
G54D25*
X64374Y-41043D02*
X65759Y-40881D01*
X55803Y-37094D02*
X55803Y-37842D01*
X56196Y-37015D02*
X56196Y-37842D01*
G54D27*
X52269Y-30848D02*
X53338Y-31917D01*
X52269Y-30220D02*
X52269Y-30848D01*
X53338Y-31917D02*
X53338Y-34122D01*
X52269Y-29773D02*
X52269Y-30220D01*
G54D25*
X56590Y-37842D02*
X56590Y-37000D01*
X58952Y-35625D02*
X58952Y-37842D01*
X59346Y-37842D02*
X59346Y-35791D01*
X59740Y-35850D02*
X59740Y-37842D01*
G54D27*
X54728Y-35444D02*
X53610Y-35444D01*
X53610Y-35444D02*
X53251Y-35803D01*
G54D25*
X56590Y-37000D02*
X56578Y-37000D01*
X54728Y-35149D02*
X54728Y-35444D01*
X54728Y-35444D02*
X54728Y-35511D01*
X56578Y-37000D02*
X54728Y-35149D01*
X55405Y-36188D02*
X55405Y-36696D01*
X55405Y-36696D02*
X55803Y-37094D01*
X55405Y-36188D02*
X55405Y-36224D01*
X55405Y-36224D02*
X56196Y-37015D01*
X55405Y-36259D02*
X55405Y-36366D01*
G54D27*
X53338Y-34122D02*
X54728Y-35511D01*
X54728Y-35511D02*
X55405Y-36188D01*
X55405Y-36188D02*
X55405Y-36259D01*
G54D25*
X55405Y-36366D02*
X55500Y-36461D01*
X57212Y-49732D02*
X57267Y-49787D01*
G54D27*
X52992Y-29051D02*
X52269Y-29773D01*
X58696Y-29051D02*
X52992Y-29051D01*
X59149Y-29503D02*
X58696Y-29051D01*
X59149Y-30578D02*
X59149Y-29503D01*
G54D25*
X57212Y-48930D02*
X57212Y-49732D01*
X55500Y-36461D02*
X56614Y-36461D01*
X56590Y-37000D02*
X56590Y-36485D01*
X56590Y-36485D02*
X56614Y-36461D01*
G54D26*
X60393Y-34311D02*
X60393Y-34149D01*
X60393Y-34149D02*
X60909Y-33570D01*
G54D25*
X60279Y-34291D02*
X60393Y-34311D01*
X60393Y-34311D02*
X60224Y-34334D01*
X60224Y-34334D02*
X58952Y-35625D01*
X59346Y-35791D02*
X60287Y-34311D01*
X60287Y-34311D02*
X60279Y-34291D01*
X60279Y-34291D02*
X59940Y-34740D01*
X59940Y-34740D02*
X59740Y-35850D01*
X58559Y-45838D02*
X58559Y-45007D01*
X59236Y-46515D02*
X58559Y-45838D01*
X60255Y-46515D02*
X59236Y-46515D01*
X61326Y-47586D02*
X60255Y-46515D01*
X61326Y-48235D02*
X61326Y-47586D01*
X56196Y-45007D02*
X56196Y-45681D01*
X56196Y-45681D02*
X55779Y-46098D01*
X55779Y-46098D02*
X53629Y-46098D01*
X53629Y-46098D02*
X53165Y-46562D01*
X53165Y-46562D02*
X53165Y-48109D01*
X53165Y-47688D02*
X53165Y-48109D01*
G54D24*
X61515Y-34199D02*
X61650Y-34199D01*
X62877Y-32972D02*
X63933Y-32972D01*
X61650Y-34199D02*
X62877Y-32972D01*
X63444Y-31066D02*
X63444Y-31137D01*
X63444Y-31137D02*
X63933Y-31625D01*
X63933Y-31625D02*
X63933Y-32972D01*
X63444Y-31688D02*
X63444Y-31720D01*
X63444Y-31720D02*
X63775Y-32019D01*
X63775Y-32019D02*
X64098Y-32452D01*
X64098Y-32452D02*
X63933Y-32452D01*
G54D27*
X63933Y-32618D02*
X63933Y-32452D01*
X64901Y-31649D02*
X63933Y-32618D01*
X63933Y-32452D02*
X63933Y-32972D01*
G54D25*
X56984Y-37842D02*
X56984Y-39372D01*
X55015Y-37842D02*
X55015Y-39108D01*
X55015Y-39108D02*
X56131Y-40224D01*
X56984Y-37842D02*
X56984Y-37181D01*
X56984Y-37181D02*
X57224Y-36940D01*
X55015Y-37842D02*
X52748Y-37842D01*
X52748Y-37842D02*
X52740Y-37850D01*
X55015Y-45007D02*
X53669Y-45007D01*
X53669Y-45007D02*
X52980Y-44318D01*
X56984Y-39372D02*
X56131Y-40224D01*
X55015Y-45007D02*
X55015Y-41340D01*
X55015Y-41340D02*
X56131Y-40224D01*
G54D24*
X63933Y-34350D02*
X62744Y-34350D01*
X62144Y-34949D02*
X61515Y-34949D01*
X62744Y-34350D02*
X62144Y-34949D01*
X64582Y-36232D02*
X64582Y-36118D01*
X64582Y-36118D02*
X63933Y-35468D01*
X63933Y-35468D02*
X63933Y-34350D01*
X64598Y-35625D02*
X64598Y-35015D01*
X64598Y-35015D02*
X63933Y-34350D01*
G54D25*
X58559Y-37842D02*
X58559Y-39372D01*
X60527Y-37842D02*
X60527Y-39108D01*
X58559Y-37842D02*
X58559Y-36929D01*
X58559Y-36929D02*
X58338Y-36708D01*
X60527Y-45007D02*
X60527Y-45385D01*
X60527Y-45385D02*
X60901Y-45759D01*
G54D27*
X59411Y-40224D02*
X59933Y-40224D01*
X59933Y-40224D02*
X61822Y-37458D01*
X61822Y-37458D02*
X62098Y-36185D01*
G54D25*
X60527Y-37842D02*
X60527Y-37755D01*
X60527Y-37755D02*
X63933Y-34350D01*
X60527Y-45007D02*
X60527Y-41340D01*
X60527Y-41340D02*
X59411Y-40224D01*
X60527Y-39108D02*
X59411Y-40224D01*
X58559Y-39372D02*
X59411Y-40224D01*
G54D27*
X62098Y-36185D02*
X63933Y-34350D01*
G54D25*
X64374Y-49043D02*
X64342Y-49035D01*
X64342Y-49035D02*
X61027Y-52506D01*
X61027Y-52506D02*
X54726Y-52544D01*
X54726Y-52544D02*
X53165Y-50283D01*
X53165Y-50283D02*
X53165Y-48859D01*
X61326Y-48985D02*
X62735Y-48985D01*
X62735Y-48985D02*
X63315Y-48985D01*
X63315Y-48985D02*
X63374Y-49043D01*
X56255Y-50224D02*
X56255Y-48902D01*
X56759Y-51062D02*
X56255Y-50224D01*
X56803Y-51106D02*
X56759Y-51062D01*
X65449Y-49664D02*
X64429Y-50090D01*
X65472Y-48204D02*
X65449Y-49664D01*
X65311Y-48043D02*
X65472Y-48204D01*
X64374Y-48043D02*
X65311Y-48043D01*
G54D24*
X58244Y-48945D02*
X58244Y-49291D01*
X62220Y-48232D02*
X62220Y-47339D01*
X62259Y-48271D02*
X62220Y-48232D01*
X58539Y-49586D02*
X59070Y-49586D01*
X58244Y-49291D02*
X58539Y-49586D01*
X63374Y-48043D02*
X62924Y-48043D01*
X62924Y-48043D02*
X62220Y-47339D01*
G54D25*
X60326Y-48235D02*
X60303Y-47858D01*
X60303Y-47858D02*
X60291Y-47846D01*
X59511Y-47496D02*
X60291Y-47846D01*
X58161Y-46799D02*
X59511Y-47496D01*
X58165Y-45007D02*
X58161Y-46799D01*
X55251Y-48140D02*
X55251Y-47295D01*
X55251Y-47295D02*
X55956Y-46590D01*
X54244Y-48140D02*
X54244Y-46846D01*
X55956Y-46590D02*
X56590Y-45956D01*
X54500Y-46590D02*
X55956Y-46590D01*
X54244Y-46846D02*
X54500Y-46590D01*
X56590Y-45956D02*
X56590Y-45007D01*
X56255Y-47673D02*
X56255Y-48152D01*
X56570Y-47358D02*
X56255Y-47673D01*
X56834Y-47358D02*
X56570Y-47358D01*
X57377Y-46814D02*
X56834Y-47358D01*
X57377Y-45007D02*
X57377Y-46814D01*
X56614Y-35711D02*
X57050Y-35711D01*
X57050Y-35711D02*
X58171Y-34590D01*
G54D27*
X58181Y-34590D02*
X59830Y-32417D01*
G54D25*
X57771Y-34990D02*
X58171Y-34590D01*
G54D27*
X58171Y-34590D02*
X58181Y-34590D01*
G54D24*
X62893Y-30389D02*
X64814Y-30389D01*
X64814Y-30389D02*
X65803Y-31377D01*
X65803Y-31377D02*
X65803Y-35295D01*
X65803Y-35295D02*
X65472Y-35625D01*
X65472Y-35625D02*
X65149Y-35625D01*
X62893Y-31066D02*
X62893Y-30389D01*
X62893Y-30389D02*
X62893Y-30122D01*
X62893Y-30122D02*
X62413Y-29641D01*
X62413Y-29641D02*
X61464Y-29641D01*
X61464Y-29641D02*
X60527Y-30578D01*
G54D27*
X59830Y-32417D02*
X60527Y-30578D01*
X56531Y-32622D02*
X56531Y-32950D01*
X56531Y-32950D02*
X58171Y-34590D01*
X56531Y-30220D02*
X56531Y-32622D01*
G54D25*
X55803Y-45007D02*
X55803Y-45405D01*
X55586Y-45622D02*
X52779Y-45622D01*
X55803Y-45405D02*
X55586Y-45622D01*
X59740Y-45007D02*
X59740Y-45559D01*
X59740Y-45559D02*
X60019Y-45838D01*
X59346Y-45007D02*
X59346Y-45657D01*
X59346Y-45657D02*
X59570Y-45881D01*
X57771Y-37842D02*
X57771Y-34990D01*
X57771Y-37842D02*
X57771Y-42625D01*
X59740Y-45007D02*
X59740Y-43799D01*
X59740Y-43799D02*
X58566Y-42625D01*
X58566Y-42625D02*
X57771Y-42625D01*
X59346Y-45007D02*
X59346Y-44200D01*
X59346Y-44200D02*
X57771Y-42625D01*
X55803Y-45007D02*
X55803Y-43980D01*
X55803Y-43980D02*
X57157Y-42625D01*
X57157Y-42625D02*
X57771Y-42625D01*
G54D10*
G36*
X65216Y-40090D02*
X63638Y-40289D01*
X63533Y-40245D01*
X63215Y-40245D01*
X62922Y-40366D01*
X62697Y-40590D01*
X62667Y-40664D01*
X62301Y-40835D01*
X62239Y-40880D01*
X62171Y-40918D01*
X62148Y-40947D01*
X62118Y-40969D01*
X62078Y-41035D01*
X62030Y-41095D01*
X62020Y-41131D01*
X62000Y-41163D01*
X61989Y-41239D01*
X61967Y-41313D01*
X61971Y-41350D01*
X61966Y-41387D01*
X61969Y-41402D01*
X61872Y-41478D01*
X61863Y-41625D01*
X61792Y-41754D01*
X61771Y-41776D01*
X61682Y-41990D01*
X61682Y-42221D01*
X61770Y-42435D01*
X61806Y-42471D01*
X61742Y-43428D01*
X60996Y-44261D01*
X60321Y-44273D01*
X60321Y-43799D01*
X60277Y-43576D01*
X60277Y-43576D01*
X60242Y-43525D01*
X60242Y-43525D01*
X60242Y-41504D01*
X60175Y-41341D01*
X60050Y-41216D01*
X59887Y-41148D01*
X59710Y-41148D01*
X58353Y-41148D01*
X58353Y-38660D01*
X60480Y-38660D01*
X60490Y-38485D01*
X60517Y-38474D01*
X60641Y-38349D01*
X60709Y-38186D01*
X60709Y-38010D01*
X60709Y-37498D01*
X60662Y-37384D01*
X63714Y-34034D01*
X64040Y-33979D01*
X64194Y-34201D01*
X64268Y-35550D01*
X64174Y-36801D01*
X65210Y-36801D01*
X65216Y-40090D01*
X65216Y-40090D01*
G37*
G54D28*
X65216Y-40090D02*
X63638Y-40289D01*
X63533Y-40245D01*
X63215Y-40245D01*
X62922Y-40366D01*
X62697Y-40590D01*
X62667Y-40664D01*
X62301Y-40835D01*
X62239Y-40880D01*
X62171Y-40918D01*
X62148Y-40947D01*
X62118Y-40969D01*
X62078Y-41035D01*
X62030Y-41095D01*
X62020Y-41131D01*
X62000Y-41163D01*
X61989Y-41239D01*
X61967Y-41313D01*
X61971Y-41350D01*
X61966Y-41387D01*
X61969Y-41402D01*
X61872Y-41478D01*
X61863Y-41625D01*
X61792Y-41754D01*
X61771Y-41776D01*
X61682Y-41990D01*
X61682Y-42221D01*
X61770Y-42435D01*
X61806Y-42471D01*
X61742Y-43428D01*
X60996Y-44261D01*
X60321Y-44273D01*
X60321Y-43799D01*
X60277Y-43576D01*
X60277Y-43576D01*
X60242Y-43525D01*
X60242Y-43525D01*
X60242Y-41504D01*
X60175Y-41341D01*
X60050Y-41216D01*
X59887Y-41148D01*
X59710Y-41148D01*
X58353Y-41148D01*
X58353Y-38660D01*
X60480Y-38660D01*
X60490Y-38485D01*
X60517Y-38474D01*
X60641Y-38349D01*
X60709Y-38186D01*
X60709Y-38010D01*
X60709Y-37498D01*
X60662Y-37384D01*
X63714Y-34034D01*
X64040Y-33979D01*
X64194Y-34201D01*
X64268Y-35550D01*
X64174Y-36801D01*
X65210Y-36801D01*
X65216Y-40090D01*
G54D10*
G36*
X55875Y-35685D02*
X55769Y-36886D01*
X55238Y-36885D01*
X55238Y-31826D01*
X55238Y-30054D01*
X55111Y-29746D01*
X54876Y-29511D01*
X54568Y-29383D01*
X54235Y-29383D01*
X53927Y-29510D01*
X53692Y-29745D01*
X53564Y-30053D01*
X53564Y-30386D01*
X53691Y-30694D01*
X53926Y-30929D01*
X54234Y-31057D01*
X54567Y-31057D01*
X54875Y-30930D01*
X55110Y-30695D01*
X55238Y-30387D01*
X55238Y-30054D01*
X55238Y-31826D01*
X55111Y-31518D01*
X54876Y-31283D01*
X54568Y-31155D01*
X54235Y-31155D01*
X53927Y-31282D01*
X53692Y-31517D01*
X53564Y-31825D01*
X53564Y-32158D01*
X53691Y-32466D01*
X53926Y-32701D01*
X54234Y-32829D01*
X54567Y-32829D01*
X54875Y-32702D01*
X55110Y-32467D01*
X55238Y-32159D01*
X55238Y-31826D01*
X55238Y-36885D01*
X51872Y-36875D01*
X51862Y-33459D01*
X51964Y-33459D01*
X52751Y-33459D01*
X52914Y-33392D01*
X53039Y-33267D01*
X53106Y-33104D01*
X53106Y-32927D01*
X53106Y-32140D01*
X53039Y-31977D01*
X52914Y-31852D01*
X52913Y-31852D01*
X52913Y-30663D01*
X52913Y-30332D01*
X52913Y-30107D01*
X52913Y-29777D01*
X52875Y-29685D01*
X52804Y-29614D01*
X52712Y-29576D01*
X52613Y-29576D01*
X52382Y-29576D01*
X52319Y-29639D01*
X52319Y-30170D01*
X52850Y-30170D01*
X52913Y-30107D01*
X52913Y-30332D01*
X52850Y-30270D01*
X52319Y-30270D01*
X52319Y-30801D01*
X52382Y-30863D01*
X52613Y-30863D01*
X52712Y-30863D01*
X52804Y-30825D01*
X52875Y-30755D01*
X52913Y-30663D01*
X52913Y-31852D01*
X52751Y-31785D01*
X52574Y-31785D01*
X51858Y-31785D01*
X51855Y-30863D01*
X51925Y-30863D01*
X52157Y-30863D01*
X52219Y-30801D01*
X52219Y-30270D01*
X52211Y-30270D01*
X52211Y-30170D01*
X52219Y-30170D01*
X52219Y-29639D01*
X52157Y-29576D01*
X51925Y-29576D01*
X51851Y-29576D01*
X51849Y-28785D01*
X55721Y-28747D01*
X55718Y-29680D01*
X55694Y-29738D01*
X55694Y-29915D01*
X55694Y-30219D01*
X55694Y-30220D01*
X55694Y-32622D01*
X55694Y-32950D01*
X55694Y-32951D01*
X55694Y-33104D01*
X55707Y-33136D01*
X55705Y-33742D01*
X55875Y-35685D01*
X55875Y-35685D01*
G37*
G54D28*
X55875Y-35685D02*
X55769Y-36886D01*
X55238Y-36885D01*
X55238Y-31826D01*
X55238Y-30054D01*
X55111Y-29746D01*
X54876Y-29511D01*
X54568Y-29383D01*
X54235Y-29383D01*
X53927Y-29510D01*
X53692Y-29745D01*
X53564Y-30053D01*
X53564Y-30386D01*
X53691Y-30694D01*
X53926Y-30929D01*
X54234Y-31057D01*
X54567Y-31057D01*
X54875Y-30930D01*
X55110Y-30695D01*
X55238Y-30387D01*
X55238Y-30054D01*
X55238Y-31826D01*
X55111Y-31518D01*
X54876Y-31283D01*
X54568Y-31155D01*
X54235Y-31155D01*
X53927Y-31282D01*
X53692Y-31517D01*
X53564Y-31825D01*
X53564Y-32158D01*
X53691Y-32466D01*
X53926Y-32701D01*
X54234Y-32829D01*
X54567Y-32829D01*
X54875Y-32702D01*
X55110Y-32467D01*
X55238Y-32159D01*
X55238Y-31826D01*
X55238Y-36885D01*
X51872Y-36875D01*
X51862Y-33459D01*
X51964Y-33459D01*
X52751Y-33459D01*
X52914Y-33392D01*
X53039Y-33267D01*
X53106Y-33104D01*
X53106Y-32927D01*
X53106Y-32140D01*
X53039Y-31977D01*
X52914Y-31852D01*
X52913Y-31852D01*
X52913Y-30663D01*
X52913Y-30332D01*
X52913Y-30107D01*
X52913Y-29777D01*
X52875Y-29685D01*
X52804Y-29614D01*
X52712Y-29576D01*
X52613Y-29576D01*
X52382Y-29576D01*
X52319Y-29639D01*
X52319Y-30170D01*
X52850Y-30170D01*
X52913Y-30107D01*
X52913Y-30332D01*
X52850Y-30270D01*
X52319Y-30270D01*
X52319Y-30801D01*
X52382Y-30863D01*
X52613Y-30863D01*
X52712Y-30863D01*
X52804Y-30825D01*
X52875Y-30755D01*
X52913Y-30663D01*
X52913Y-31852D01*
X52751Y-31785D01*
X52574Y-31785D01*
X51858Y-31785D01*
X51855Y-30863D01*
X51925Y-30863D01*
X52157Y-30863D01*
X52219Y-30801D01*
X52219Y-30270D01*
X52211Y-30270D01*
X52211Y-30170D01*
X52219Y-30170D01*
X52219Y-29639D01*
X52157Y-29576D01*
X51925Y-29576D01*
X51851Y-29576D01*
X51849Y-28785D01*
X55721Y-28747D01*
X55718Y-29680D01*
X55694Y-29738D01*
X55694Y-29915D01*
X55694Y-30219D01*
X55694Y-30220D01*
X55694Y-32622D01*
X55694Y-32950D01*
X55694Y-32951D01*
X55694Y-33104D01*
X55707Y-33136D01*
X55705Y-33742D01*
X55875Y-35685D01*
M02*
