G04 (created by PCBNEW (2013-08-24 BZR 4298)-stable) date Wed 30 Oct 2013 07:33:34 PM PDT*
%MOIN*%
G04 Gerber Fmt 3.4, Leading zero omitted, Abs format*
%FSLAX34Y34*%
G01*
G70*
G90*
G04 APERTURE LIST*
%ADD10C,0.005906*%
%ADD11C,0.015000*%
%ADD12C,0.005000*%
%ADD13C,0.002000*%
%ADD14C,0.007900*%
%ADD15C,0.008000*%
%ADD16C,0.003700*%
%ADD17C,0.010000*%
%ADD18C,0.012000*%
G04 APERTURE END LIST*
G54D10*
X65094Y-34704D02*
X65419Y-34704D01*
X65094Y-33986D02*
X65094Y-34704D01*
X65409Y-33986D02*
X65094Y-33986D01*
X65399Y-32539D02*
X65084Y-32539D01*
X65084Y-32539D02*
X65084Y-33257D01*
X65084Y-33257D02*
X65409Y-33257D01*
G54D11*
X65429Y-32283D02*
X62437Y-32283D01*
X62437Y-32283D02*
X62437Y-35039D01*
X62437Y-35039D02*
X65429Y-35039D01*
X65429Y-35039D02*
X65429Y-32283D01*
G54D10*
X60881Y-29417D02*
X60881Y-29092D01*
X60163Y-29417D02*
X60881Y-29417D01*
X60163Y-29102D02*
X60163Y-29417D01*
X58716Y-29112D02*
X58716Y-29427D01*
X58716Y-29427D02*
X59435Y-29427D01*
X59435Y-29427D02*
X59435Y-29102D01*
G54D11*
X58460Y-29082D02*
X58460Y-32074D01*
X58460Y-32074D02*
X61216Y-32074D01*
X61216Y-32074D02*
X61216Y-29082D01*
X61216Y-29082D02*
X58460Y-29082D01*
G54D12*
X53944Y-48315D02*
X53944Y-47915D01*
X53944Y-47915D02*
X54544Y-47915D01*
X54544Y-47915D02*
X54544Y-48315D01*
X54544Y-48715D02*
X54544Y-49115D01*
X54544Y-49115D02*
X53944Y-49115D01*
X53944Y-49115D02*
X53944Y-48715D01*
X58975Y-48398D02*
X58975Y-47998D01*
X58975Y-47998D02*
X59575Y-47998D01*
X59575Y-47998D02*
X59575Y-48398D01*
X59575Y-48798D02*
X59575Y-49198D01*
X59575Y-49198D02*
X58975Y-49198D01*
X58975Y-49198D02*
X58975Y-48798D01*
X54951Y-48315D02*
X54951Y-47915D01*
X54951Y-47915D02*
X55551Y-47915D01*
X55551Y-47915D02*
X55551Y-48315D01*
X55551Y-48715D02*
X55551Y-49115D01*
X55551Y-49115D02*
X54951Y-49115D01*
X54951Y-49115D02*
X54951Y-48715D01*
X61026Y-48410D02*
X61026Y-48010D01*
X61026Y-48010D02*
X61626Y-48010D01*
X61626Y-48010D02*
X61626Y-48410D01*
X61626Y-48810D02*
X61626Y-49210D01*
X61626Y-49210D02*
X61026Y-49210D01*
X61026Y-49210D02*
X61026Y-48810D01*
X56555Y-48727D02*
X56555Y-49127D01*
X56555Y-49127D02*
X55955Y-49127D01*
X55955Y-49127D02*
X55955Y-48727D01*
X55955Y-48327D02*
X55955Y-47927D01*
X55955Y-47927D02*
X56555Y-47927D01*
X56555Y-47927D02*
X56555Y-48327D01*
X53465Y-48684D02*
X53465Y-49084D01*
X53465Y-49084D02*
X52865Y-49084D01*
X52865Y-49084D02*
X52865Y-48684D01*
X52865Y-48284D02*
X52865Y-47884D01*
X52865Y-47884D02*
X53465Y-47884D01*
X53465Y-47884D02*
X53465Y-48284D01*
X60026Y-48410D02*
X60026Y-48010D01*
X60026Y-48010D02*
X60626Y-48010D01*
X60626Y-48010D02*
X60626Y-48410D01*
X60626Y-48810D02*
X60626Y-49210D01*
X60626Y-49210D02*
X60026Y-49210D01*
X60026Y-49210D02*
X60026Y-48810D01*
X58555Y-48770D02*
X58555Y-49170D01*
X58555Y-49170D02*
X57955Y-49170D01*
X57955Y-49170D02*
X57955Y-48770D01*
X57955Y-48370D02*
X57955Y-47970D01*
X57955Y-47970D02*
X58555Y-47970D01*
X58555Y-47970D02*
X58555Y-48370D01*
X57512Y-48755D02*
X57512Y-49155D01*
X57512Y-49155D02*
X56912Y-49155D01*
X56912Y-49155D02*
X56912Y-48755D01*
X56912Y-48355D02*
X56912Y-47955D01*
X56912Y-47955D02*
X57512Y-47955D01*
X57512Y-47955D02*
X57512Y-48355D01*
X66020Y-43408D02*
X66020Y-43808D01*
X66020Y-43808D02*
X65420Y-43808D01*
X65420Y-43808D02*
X65420Y-43408D01*
X65420Y-43008D02*
X65420Y-42608D01*
X65420Y-42608D02*
X66020Y-42608D01*
X66020Y-42608D02*
X66020Y-43008D01*
X56314Y-35886D02*
X56314Y-35486D01*
X56314Y-35486D02*
X56914Y-35486D01*
X56914Y-35486D02*
X56914Y-35886D01*
X56914Y-36286D02*
X56914Y-36686D01*
X56914Y-36686D02*
X56314Y-36686D01*
X56314Y-36686D02*
X56314Y-36286D01*
G54D13*
X63051Y-46043D02*
X63051Y-37043D01*
X65051Y-37043D02*
X65051Y-46043D01*
X65051Y-46041D02*
X63051Y-46041D01*
X63051Y-37043D02*
X65051Y-37043D01*
G54D12*
X53102Y-28606D02*
X53102Y-29216D01*
X53102Y-29216D02*
X55700Y-29216D01*
X55700Y-29216D02*
X55700Y-28616D01*
G54D14*
X51841Y-34590D02*
X51841Y-28606D01*
X51841Y-28606D02*
X56961Y-28606D01*
X56961Y-28606D02*
X56961Y-34590D01*
X56961Y-34590D02*
X51841Y-34590D01*
G54D10*
X60809Y-32946D02*
X60809Y-36244D01*
X61685Y-34590D02*
G75*
G03X61685Y-34590I-1968J0D01*
G74*
G01*
G54D12*
X58251Y-33820D02*
X58251Y-33640D01*
X58174Y-33734D02*
X58331Y-33734D01*
G54D15*
X54385Y-44574D02*
X54385Y-38275D01*
X61157Y-38275D02*
X61157Y-44574D01*
X54385Y-38275D02*
X61157Y-38275D01*
X61157Y-44574D02*
X54385Y-44574D01*
X54401Y-41235D02*
X54701Y-41235D01*
X54701Y-41235D02*
X54701Y-41635D01*
X54701Y-41635D02*
X54401Y-41635D01*
G54D16*
X54763Y-48550D02*
X54692Y-48600D01*
X54763Y-48636D02*
X54613Y-48636D01*
X54613Y-48579D01*
X54621Y-48565D01*
X54628Y-48557D01*
X54642Y-48550D01*
X54663Y-48550D01*
X54678Y-48557D01*
X54685Y-48565D01*
X54692Y-48579D01*
X54692Y-48636D01*
X54763Y-48479D02*
X54763Y-48450D01*
X54756Y-48436D01*
X54749Y-48429D01*
X54728Y-48415D01*
X54699Y-48407D01*
X54642Y-48407D01*
X54628Y-48415D01*
X54621Y-48422D01*
X54613Y-48436D01*
X54613Y-48465D01*
X54621Y-48479D01*
X54628Y-48486D01*
X54642Y-48493D01*
X54678Y-48493D01*
X54692Y-48486D01*
X54699Y-48479D01*
X54706Y-48465D01*
X54706Y-48436D01*
X54699Y-48422D01*
X54692Y-48415D01*
X54678Y-48407D01*
X59795Y-48633D02*
X59724Y-48683D01*
X59795Y-48719D02*
X59645Y-48719D01*
X59645Y-48661D01*
X59652Y-48647D01*
X59659Y-48640D01*
X59674Y-48633D01*
X59695Y-48633D01*
X59709Y-48640D01*
X59716Y-48647D01*
X59724Y-48661D01*
X59724Y-48719D01*
X59709Y-48547D02*
X59702Y-48561D01*
X59695Y-48569D01*
X59681Y-48576D01*
X59674Y-48576D01*
X59659Y-48569D01*
X59652Y-48561D01*
X59645Y-48547D01*
X59645Y-48519D01*
X59652Y-48504D01*
X59659Y-48497D01*
X59674Y-48490D01*
X59681Y-48490D01*
X59695Y-48497D01*
X59702Y-48504D01*
X59709Y-48519D01*
X59709Y-48547D01*
X59716Y-48561D01*
X59724Y-48569D01*
X59738Y-48576D01*
X59766Y-48576D01*
X59781Y-48569D01*
X59788Y-48561D01*
X59795Y-48547D01*
X59795Y-48519D01*
X59788Y-48504D01*
X59781Y-48497D01*
X59766Y-48490D01*
X59738Y-48490D01*
X59724Y-48497D01*
X59716Y-48504D01*
X59709Y-48519D01*
X55771Y-48550D02*
X55700Y-48600D01*
X55771Y-48636D02*
X55621Y-48636D01*
X55621Y-48579D01*
X55628Y-48565D01*
X55636Y-48557D01*
X55650Y-48550D01*
X55671Y-48550D01*
X55686Y-48557D01*
X55693Y-48565D01*
X55700Y-48579D01*
X55700Y-48636D01*
X55621Y-48500D02*
X55621Y-48400D01*
X55771Y-48465D01*
X61846Y-48645D02*
X61775Y-48695D01*
X61846Y-48730D02*
X61696Y-48730D01*
X61696Y-48673D01*
X61703Y-48659D01*
X61710Y-48652D01*
X61725Y-48645D01*
X61746Y-48645D01*
X61760Y-48652D01*
X61768Y-48659D01*
X61775Y-48673D01*
X61775Y-48730D01*
X61696Y-48516D02*
X61696Y-48545D01*
X61703Y-48559D01*
X61710Y-48566D01*
X61732Y-48580D01*
X61760Y-48588D01*
X61818Y-48588D01*
X61832Y-48580D01*
X61839Y-48573D01*
X61846Y-48559D01*
X61846Y-48530D01*
X61839Y-48516D01*
X61832Y-48509D01*
X61818Y-48502D01*
X61782Y-48502D01*
X61768Y-48509D01*
X61760Y-48516D01*
X61753Y-48530D01*
X61753Y-48559D01*
X61760Y-48573D01*
X61768Y-48580D01*
X61782Y-48588D01*
X55871Y-48542D02*
X55800Y-48592D01*
X55871Y-48628D02*
X55721Y-48628D01*
X55721Y-48571D01*
X55728Y-48556D01*
X55736Y-48549D01*
X55750Y-48542D01*
X55771Y-48542D01*
X55786Y-48549D01*
X55793Y-48556D01*
X55800Y-48571D01*
X55800Y-48628D01*
X55721Y-48406D02*
X55721Y-48478D01*
X55793Y-48485D01*
X55786Y-48478D01*
X55778Y-48463D01*
X55778Y-48428D01*
X55786Y-48413D01*
X55793Y-48406D01*
X55807Y-48399D01*
X55843Y-48399D01*
X55857Y-48406D01*
X55864Y-48413D01*
X55871Y-48428D01*
X55871Y-48463D01*
X55864Y-48478D01*
X55857Y-48485D01*
X52781Y-48499D02*
X52709Y-48549D01*
X52781Y-48584D02*
X52631Y-48584D01*
X52631Y-48527D01*
X52638Y-48513D01*
X52645Y-48506D01*
X52659Y-48499D01*
X52681Y-48499D01*
X52695Y-48506D01*
X52702Y-48513D01*
X52709Y-48527D01*
X52709Y-48584D01*
X52681Y-48370D02*
X52781Y-48370D01*
X52624Y-48406D02*
X52731Y-48442D01*
X52731Y-48349D01*
X60846Y-48645D02*
X60775Y-48695D01*
X60846Y-48730D02*
X60696Y-48730D01*
X60696Y-48673D01*
X60703Y-48659D01*
X60710Y-48652D01*
X60725Y-48645D01*
X60746Y-48645D01*
X60760Y-48652D01*
X60768Y-48659D01*
X60775Y-48673D01*
X60775Y-48730D01*
X60696Y-48595D02*
X60696Y-48502D01*
X60753Y-48552D01*
X60753Y-48530D01*
X60760Y-48516D01*
X60768Y-48509D01*
X60782Y-48502D01*
X60818Y-48502D01*
X60832Y-48509D01*
X60839Y-48516D01*
X60846Y-48530D01*
X60846Y-48573D01*
X60839Y-48588D01*
X60832Y-48595D01*
X57871Y-48585D02*
X57800Y-48635D01*
X57871Y-48671D02*
X57721Y-48671D01*
X57721Y-48614D01*
X57728Y-48600D01*
X57736Y-48593D01*
X57750Y-48585D01*
X57771Y-48585D01*
X57786Y-48593D01*
X57793Y-48600D01*
X57800Y-48614D01*
X57800Y-48671D01*
X57736Y-48528D02*
X57728Y-48521D01*
X57721Y-48507D01*
X57721Y-48471D01*
X57728Y-48457D01*
X57736Y-48450D01*
X57750Y-48443D01*
X57764Y-48443D01*
X57786Y-48450D01*
X57871Y-48535D01*
X57871Y-48443D01*
X56828Y-48570D02*
X56757Y-48620D01*
X56828Y-48655D02*
X56678Y-48655D01*
X56678Y-48598D01*
X56685Y-48584D01*
X56692Y-48577D01*
X56707Y-48570D01*
X56728Y-48570D01*
X56742Y-48577D01*
X56749Y-48584D01*
X56757Y-48598D01*
X56757Y-48655D01*
X56828Y-48427D02*
X56828Y-48512D01*
X56828Y-48470D02*
X56678Y-48470D01*
X56699Y-48484D01*
X56714Y-48498D01*
X56721Y-48512D01*
X65322Y-43223D02*
X65329Y-43230D01*
X65336Y-43252D01*
X65336Y-43266D01*
X65329Y-43287D01*
X65314Y-43302D01*
X65300Y-43309D01*
X65272Y-43316D01*
X65250Y-43316D01*
X65222Y-43309D01*
X65207Y-43302D01*
X65193Y-43287D01*
X65186Y-43266D01*
X65186Y-43252D01*
X65193Y-43230D01*
X65200Y-43223D01*
X65186Y-43173D02*
X65186Y-43080D01*
X65243Y-43130D01*
X65243Y-43109D01*
X65250Y-43095D01*
X65257Y-43087D01*
X65272Y-43080D01*
X65307Y-43080D01*
X65322Y-43087D01*
X65329Y-43095D01*
X65336Y-43109D01*
X65336Y-43152D01*
X65329Y-43166D01*
X65322Y-43173D01*
X57119Y-36121D02*
X57126Y-36128D01*
X57134Y-36150D01*
X57134Y-36164D01*
X57126Y-36185D01*
X57112Y-36200D01*
X57098Y-36207D01*
X57069Y-36214D01*
X57048Y-36214D01*
X57019Y-36207D01*
X57005Y-36200D01*
X56991Y-36185D01*
X56984Y-36164D01*
X56984Y-36150D01*
X56991Y-36128D01*
X56998Y-36121D01*
X56998Y-36064D02*
X56991Y-36057D01*
X56984Y-36043D01*
X56984Y-36007D01*
X56991Y-35993D01*
X56998Y-35985D01*
X57012Y-35978D01*
X57026Y-35978D01*
X57048Y-35985D01*
X57134Y-36071D01*
X57134Y-35978D01*
G54D17*
X62254Y-41449D02*
X62539Y-41449D01*
X62596Y-41468D01*
X62635Y-41506D01*
X62654Y-41563D01*
X62654Y-41602D01*
X62292Y-41278D02*
X62273Y-41259D01*
X62254Y-41221D01*
X62254Y-41125D01*
X62273Y-41087D01*
X62292Y-41068D01*
X62330Y-41049D01*
X62368Y-41049D01*
X62425Y-41068D01*
X62654Y-41297D01*
X62654Y-41049D01*
X65690Y-43285D02*
X65290Y-43285D01*
X65480Y-43285D02*
X65480Y-43057D01*
X65690Y-43057D02*
X65290Y-43057D01*
X65480Y-42866D02*
X65480Y-42733D01*
X65690Y-42676D02*
X65690Y-42866D01*
X65290Y-42866D01*
X65290Y-42676D01*
X65575Y-42523D02*
X65575Y-42333D01*
X65690Y-42561D02*
X65290Y-42428D01*
X65690Y-42295D01*
X65690Y-42161D02*
X65290Y-42161D01*
X65290Y-42066D01*
X65309Y-42009D01*
X65347Y-41971D01*
X65385Y-41952D01*
X65461Y-41933D01*
X65518Y-41933D01*
X65594Y-41952D01*
X65632Y-41971D01*
X65671Y-42009D01*
X65690Y-42066D01*
X65690Y-42161D01*
X65480Y-41761D02*
X65480Y-41628D01*
X65690Y-41571D02*
X65690Y-41761D01*
X65290Y-41761D01*
X65290Y-41571D01*
X65690Y-41171D02*
X65499Y-41304D01*
X65690Y-41400D02*
X65290Y-41400D01*
X65290Y-41247D01*
X65309Y-41209D01*
X65328Y-41190D01*
X65366Y-41171D01*
X65423Y-41171D01*
X65461Y-41190D01*
X65480Y-41209D01*
X65499Y-41247D01*
X65499Y-41400D01*
X65728Y-41095D02*
X65728Y-40790D01*
X65690Y-40676D02*
X65690Y-40600D01*
X65671Y-40561D01*
X65652Y-40542D01*
X65594Y-40504D01*
X65518Y-40485D01*
X65366Y-40485D01*
X65328Y-40504D01*
X65309Y-40523D01*
X65290Y-40561D01*
X65290Y-40638D01*
X65309Y-40676D01*
X65328Y-40695D01*
X65366Y-40714D01*
X65461Y-40714D01*
X65499Y-40695D01*
X65518Y-40676D01*
X65537Y-40638D01*
X65537Y-40561D01*
X65518Y-40523D01*
X65499Y-40504D01*
X65461Y-40485D01*
X65290Y-40352D02*
X65690Y-40085D01*
X65290Y-40085D02*
X65690Y-40352D01*
X65328Y-39952D02*
X65309Y-39933D01*
X65290Y-39895D01*
X65290Y-39800D01*
X65309Y-39761D01*
X65328Y-39742D01*
X65366Y-39723D01*
X65404Y-39723D01*
X65461Y-39742D01*
X65690Y-39971D01*
X65690Y-39723D01*
G54D18*
X50861Y-31736D02*
X51289Y-31736D01*
X51375Y-31764D01*
X51432Y-31822D01*
X51461Y-31907D01*
X51461Y-31964D01*
X51461Y-31136D02*
X51461Y-31479D01*
X51461Y-31307D02*
X50861Y-31307D01*
X50946Y-31364D01*
X51003Y-31422D01*
X51032Y-31479D01*
G54D16*
X59657Y-32411D02*
X59646Y-32422D01*
X59612Y-32433D01*
X59589Y-32433D01*
X59556Y-32422D01*
X59533Y-32399D01*
X59522Y-32377D01*
X59511Y-32332D01*
X59511Y-32298D01*
X59522Y-32253D01*
X59533Y-32231D01*
X59556Y-32208D01*
X59589Y-32197D01*
X59612Y-32197D01*
X59646Y-32208D01*
X59657Y-32219D01*
X59882Y-32433D02*
X59747Y-32433D01*
X59814Y-32433D02*
X59814Y-32197D01*
X59792Y-32231D01*
X59769Y-32253D01*
X59747Y-32264D01*
X58736Y-36911D02*
X58736Y-37069D01*
X58680Y-36821D02*
X58624Y-36990D01*
X58770Y-36990D01*
X58837Y-36833D02*
X58995Y-36833D01*
X58893Y-37069D01*
X59130Y-36833D02*
X59152Y-36833D01*
X59175Y-36844D01*
X59186Y-36855D01*
X59197Y-36878D01*
X59208Y-36923D01*
X59208Y-36979D01*
X59197Y-37024D01*
X59186Y-37046D01*
X59175Y-37058D01*
X59152Y-37069D01*
X59130Y-37069D01*
X59107Y-37058D01*
X59096Y-37046D01*
X59085Y-37024D01*
X59073Y-36979D01*
X59073Y-36923D01*
X59085Y-36878D01*
X59096Y-36855D01*
X59107Y-36844D01*
X59130Y-36833D01*
X59411Y-36911D02*
X59411Y-37069D01*
X59310Y-36911D02*
X59310Y-37035D01*
X59321Y-37058D01*
X59343Y-37069D01*
X59377Y-37069D01*
X59400Y-37058D01*
X59411Y-37046D01*
X59602Y-36945D02*
X59523Y-36945D01*
X59523Y-37069D02*
X59523Y-36833D01*
X59636Y-36833D01*
X59973Y-37159D02*
X59962Y-37148D01*
X59940Y-37114D01*
X59928Y-37091D01*
X59917Y-37058D01*
X59906Y-37001D01*
X59906Y-36956D01*
X59917Y-36900D01*
X59928Y-36866D01*
X59940Y-36844D01*
X59962Y-36810D01*
X59973Y-36799D01*
X60052Y-36855D02*
X60063Y-36844D01*
X60086Y-36833D01*
X60142Y-36833D01*
X60165Y-36844D01*
X60176Y-36855D01*
X60187Y-36878D01*
X60187Y-36900D01*
X60176Y-36934D01*
X60041Y-37069D01*
X60187Y-37069D01*
X60401Y-36833D02*
X60288Y-36833D01*
X60277Y-36945D01*
X60288Y-36934D01*
X60311Y-36923D01*
X60367Y-36923D01*
X60390Y-36934D01*
X60401Y-36945D01*
X60412Y-36968D01*
X60412Y-37024D01*
X60401Y-37046D01*
X60390Y-37058D01*
X60367Y-37069D01*
X60311Y-37069D01*
X60288Y-37058D01*
X60277Y-37046D01*
X60491Y-36911D02*
X60547Y-37069D01*
X60603Y-36911D01*
X60671Y-37159D02*
X60682Y-37148D01*
X60705Y-37114D01*
X60716Y-37091D01*
X60727Y-37058D01*
X60738Y-37001D01*
X60738Y-36956D01*
X60727Y-36900D01*
X60716Y-36866D01*
X60705Y-36844D01*
X60682Y-36810D01*
X60671Y-36799D01*
G54D12*
X57479Y-38385D02*
X57479Y-38790D01*
X57503Y-38838D01*
X57526Y-38861D01*
X57574Y-38885D01*
X57669Y-38885D01*
X57717Y-38861D01*
X57741Y-38838D01*
X57764Y-38790D01*
X57764Y-38385D01*
X58264Y-38885D02*
X57979Y-38885D01*
X58122Y-38885D02*
X58122Y-38385D01*
X58074Y-38457D01*
X58026Y-38504D01*
X57979Y-38528D01*
X55250Y-43877D02*
X55417Y-44377D01*
X55584Y-43877D01*
X55750Y-44377D02*
X55750Y-43877D01*
X56036Y-44377D01*
X56036Y-43877D01*
X56274Y-44377D02*
X56274Y-43877D01*
X56274Y-44115D02*
X56560Y-44115D01*
X56560Y-44377D02*
X56560Y-43877D01*
X57036Y-43877D02*
X56798Y-43877D01*
X56774Y-44115D01*
X56798Y-44092D01*
X56846Y-44068D01*
X56965Y-44068D01*
X57012Y-44092D01*
X57036Y-44115D01*
X57060Y-44163D01*
X57060Y-44282D01*
X57036Y-44330D01*
X57012Y-44353D01*
X56965Y-44377D01*
X56846Y-44377D01*
X56798Y-44353D01*
X56774Y-44330D01*
X57369Y-43877D02*
X57417Y-43877D01*
X57465Y-43901D01*
X57488Y-43925D01*
X57512Y-43973D01*
X57536Y-44068D01*
X57536Y-44187D01*
X57512Y-44282D01*
X57488Y-44330D01*
X57465Y-44353D01*
X57417Y-44377D01*
X57369Y-44377D01*
X57322Y-44353D01*
X57298Y-44330D01*
X57274Y-44282D01*
X57250Y-44187D01*
X57250Y-44068D01*
X57274Y-43973D01*
X57298Y-43925D01*
X57322Y-43901D01*
X57369Y-43877D01*
X58012Y-44377D02*
X57727Y-44377D01*
X57869Y-44377D02*
X57869Y-43877D01*
X57822Y-43949D01*
X57774Y-43996D01*
X57727Y-44020D01*
X58250Y-44377D02*
X58346Y-44377D01*
X58393Y-44353D01*
X58417Y-44330D01*
X58465Y-44258D01*
X58488Y-44163D01*
X58488Y-43973D01*
X58465Y-43925D01*
X58441Y-43901D01*
X58393Y-43877D01*
X58298Y-43877D01*
X58250Y-43901D01*
X58227Y-43925D01*
X58203Y-43973D01*
X58203Y-44092D01*
X58227Y-44139D01*
X58250Y-44163D01*
X58298Y-44187D01*
X58393Y-44187D01*
X58441Y-44163D01*
X58465Y-44139D01*
X58488Y-44092D01*
X58679Y-44234D02*
X58917Y-44234D01*
X58631Y-44377D02*
X58798Y-43877D01*
X58965Y-44377D01*
X59131Y-44187D02*
X59512Y-44187D01*
X59750Y-44115D02*
X59917Y-44115D01*
X59988Y-44377D02*
X59750Y-44377D01*
X59750Y-43877D01*
X59988Y-43877D01*
M02*
