M48
;DRILL file {Pcbnew (2013-08-24 BZR 4298)-stable} date Mon 09 Dec 2013 08:00:49 PM PST
;FORMAT={-:-/ absolute / metric / decimal}
FMAT,2
METRIC,TZ
T1C0.400
T2C0.500
T3C1.000
%
G90
G05
M71
T1
X135.26Y-90.94
X137.77Y-127.18
X143.92Y-118.59
X144.28Y-129.81
X145.46Y-126.46
X150.04Y-125.95
X155.6Y-117.75
X157.75Y-76.39
X158.14Y-122.61
X158.15Y-106.95
X163.65Y-127.23
X164.85Y-80.39
X166.97Y-104.22
T2
X140.075Y-100.17
X140.075Y-101.17
X140.075Y-102.17
X140.075Y-103.17
X140.075Y-104.17
X141.075Y-100.17
X141.075Y-101.17
X141.075Y-102.17
X141.075Y-103.17
X141.075Y-104.17
X142.075Y-100.17
X142.075Y-101.17
X142.075Y-102.17
X142.075Y-103.17
X142.075Y-104.17
X142.09Y-106.27
X142.09Y-107.27
X142.09Y-108.27
X142.09Y-109.27
X142.09Y-110.27
X143.075Y-100.17
X143.075Y-101.17
X143.075Y-102.17
X143.075Y-103.17
X143.075Y-104.17
X143.09Y-106.27
X143.09Y-107.27
X143.09Y-108.27
X143.09Y-109.27
X143.09Y-110.27
X144.075Y-100.17
X144.075Y-101.17
X144.075Y-102.17
X144.075Y-103.17
X144.075Y-104.17
X144.09Y-106.27
X144.09Y-107.27
X144.09Y-108.27
X144.09Y-109.27
X144.09Y-110.27
X145.075Y-100.17
X145.075Y-101.17
X145.075Y-102.17
X145.075Y-103.17
X145.075Y-104.17
X145.09Y-106.27
X145.09Y-107.27
X145.09Y-108.27
X145.09Y-109.27
X145.09Y-110.27
X146.09Y-106.27
X146.09Y-107.27
X146.09Y-108.27
X146.09Y-109.27
X146.09Y-110.27
X147.39Y-106.27
X147.39Y-107.27
X147.39Y-108.27
X147.39Y-109.27
X147.39Y-110.27
X148.39Y-106.27
X148.39Y-107.27
X148.39Y-108.27
X148.39Y-109.27
X148.39Y-110.27
X148.405Y-100.17
X148.405Y-101.17
X148.405Y-102.17
X148.405Y-103.17
X148.405Y-104.17
X149.39Y-106.27
X149.39Y-107.27
X149.39Y-108.27
X149.39Y-109.27
X149.39Y-110.27
X149.405Y-100.17
X149.405Y-101.17
X149.405Y-102.17
X149.405Y-103.17
X149.405Y-104.17
X150.39Y-106.27
X150.39Y-107.27
X150.39Y-108.27
X150.39Y-109.27
X150.39Y-110.27
X150.405Y-100.17
X150.405Y-101.17
X150.405Y-102.17
X150.405Y-103.17
X150.405Y-104.17
X151.39Y-106.27
X151.39Y-107.27
X151.39Y-108.27
X151.39Y-109.27
X151.39Y-110.27
X151.405Y-100.17
X151.405Y-101.17
X151.405Y-102.17
X151.405Y-103.17
X151.405Y-104.17
X152.405Y-100.17
X152.405Y-101.17
X152.405Y-102.17
X152.405Y-103.17
X152.405Y-104.17
X153.405Y-100.17
X153.405Y-101.17
X153.405Y-102.17
X153.405Y-103.17
X153.405Y-104.17
T3
X150.24Y-77.67
X153.74Y-77.67
X160.97Y-104.25
X160.97Y-106.79
X160.97Y-109.33
X160.97Y-111.87
X160.97Y-114.41
X160.97Y-116.95
X160.97Y-119.49
X160.97Y-122.03
X160.97Y-124.57
X162.39Y-83.75
X162.39Y-87.25
X163.51Y-104.25
X163.51Y-106.79
X163.51Y-109.33
X163.51Y-111.87
X163.51Y-114.41
X163.51Y-116.95
X163.51Y-119.49
X163.51Y-122.03
X163.51Y-124.57
T0
M30
