G04 (created by PCBNEW (2013-08-24 BZR 4298)-stable) date Mon 09 Dec 2013 08:00:48 PM PST*
%MOIN*%
G04 Gerber Fmt 3.4, Leading zero omitted, Abs format*
%FSLAX34Y34*%
G01*
G70*
G90*
G04 APERTURE LIST*
%ADD10C,0.005906*%
%ADD11C,0.019685*%
%ADD12R,0.245276X0.206693*%
%ADD13R,0.405512X0.206693*%
%ADD14C,0.078700*%
%ADD15C,0.027559*%
%ADD16C,0.027559*%
%ADD17C,0.019685*%
%ADD18C,0.078740*%
%ADD19C,0.010000*%
G04 APERTURE END LIST*
G54D10*
G54D11*
X55147Y-39437D03*
X55541Y-39437D03*
X55935Y-39437D03*
X56328Y-39437D03*
X56722Y-39437D03*
X57116Y-39437D03*
X60395Y-39437D03*
X60001Y-39437D03*
X59608Y-39437D03*
X59214Y-39437D03*
X58820Y-39437D03*
X58427Y-39437D03*
X60395Y-39830D03*
X60001Y-39830D03*
X59608Y-39830D03*
X59214Y-39830D03*
X58820Y-39830D03*
X58427Y-39830D03*
X57116Y-39830D03*
X56722Y-39830D03*
X56328Y-39830D03*
X55935Y-39830D03*
X55541Y-39830D03*
X55147Y-39830D03*
X58427Y-40224D03*
X58820Y-40224D03*
X59214Y-40224D03*
X59608Y-40224D03*
X60001Y-40224D03*
X60395Y-40224D03*
X57116Y-40224D03*
X56722Y-40224D03*
X56328Y-40224D03*
X55935Y-40224D03*
X55541Y-40224D03*
X55147Y-40224D03*
X55147Y-40618D03*
X55541Y-40618D03*
X55935Y-40618D03*
X56328Y-40618D03*
X56722Y-40618D03*
X57116Y-40618D03*
X58427Y-40618D03*
X58820Y-40618D03*
X59214Y-40618D03*
X59608Y-40618D03*
X60001Y-40618D03*
X60395Y-40618D03*
X55147Y-41011D03*
X55541Y-41011D03*
X55935Y-41011D03*
X56328Y-41011D03*
X56722Y-41011D03*
X57116Y-41011D03*
X58427Y-41011D03*
X58820Y-41011D03*
X59214Y-41011D03*
X59608Y-41011D03*
X60001Y-41011D03*
X60395Y-41011D03*
X58421Y-41838D03*
X58814Y-41838D03*
X59208Y-41838D03*
X59602Y-41838D03*
X59602Y-42232D03*
X59208Y-42232D03*
X58814Y-42232D03*
X58421Y-42232D03*
X59602Y-42625D03*
X59208Y-42625D03*
X58814Y-42625D03*
X58421Y-42625D03*
X58421Y-43019D03*
X58814Y-43019D03*
X59208Y-43019D03*
X59602Y-43019D03*
X58421Y-43413D03*
X58814Y-43413D03*
X59208Y-43413D03*
X59602Y-43413D03*
X58027Y-43413D03*
X57515Y-43413D03*
X57122Y-43413D03*
X56728Y-43413D03*
X56334Y-43413D03*
X55940Y-43413D03*
X58027Y-43019D03*
X57515Y-43019D03*
X57122Y-43019D03*
X56728Y-43019D03*
X56334Y-43019D03*
X55940Y-43019D03*
X55940Y-42625D03*
X56334Y-42625D03*
X56728Y-42625D03*
X57122Y-42625D03*
X57515Y-42625D03*
X58027Y-42625D03*
X55940Y-42232D03*
X56334Y-42232D03*
X56728Y-42232D03*
X57122Y-42232D03*
X57515Y-42232D03*
X58027Y-42232D03*
X58027Y-41838D03*
X57515Y-41838D03*
X57122Y-41838D03*
X56728Y-41838D03*
X56334Y-41838D03*
X55940Y-41838D03*
G54D12*
X56131Y-40224D03*
X59411Y-40224D03*
G54D13*
X57771Y-42625D03*
G54D14*
X54401Y-31992D03*
X54401Y-30220D03*
G54D15*
X62263Y-42106D03*
X54240Y-50070D03*
X61259Y-46358D03*
X65736Y-41031D03*
X56661Y-46688D03*
X62106Y-30074D03*
X57267Y-49787D03*
X53251Y-35803D03*
X64901Y-31649D03*
X56803Y-51106D03*
X64429Y-50090D03*
X62259Y-48271D03*
X59070Y-49586D03*
G54D16*
X60692Y-45145D02*
X62263Y-43574D01*
X62263Y-43574D02*
X62263Y-42106D01*
X54283Y-46665D02*
X55803Y-45145D01*
X55803Y-45145D02*
X60692Y-45145D01*
X54240Y-50070D02*
X54283Y-50027D01*
X54283Y-50027D02*
X54283Y-46665D01*
G54D17*
X65736Y-41031D02*
X65736Y-41038D01*
G54D16*
X57267Y-49787D02*
X57204Y-49850D01*
G54D18*
X53188Y-35866D02*
X53188Y-35893D01*
X53251Y-35803D02*
X53188Y-35866D01*
X56131Y-40224D02*
X56131Y-38155D01*
X56131Y-38155D02*
X62637Y-31649D01*
X62637Y-31649D02*
X64901Y-31649D01*
G54D16*
X57881Y-50511D02*
X56803Y-51106D01*
X63027Y-50511D02*
X57881Y-50511D01*
X64429Y-50090D02*
X63027Y-50511D01*
G54D17*
X62259Y-49015D02*
X62259Y-48271D01*
X61732Y-49543D02*
X62259Y-49015D01*
X59114Y-49543D02*
X61732Y-49543D01*
X59070Y-49586D02*
X59114Y-49543D01*
G54D10*
G36*
X65909Y-31322D02*
X64573Y-32894D01*
X64573Y-32845D01*
X64476Y-32610D01*
X64296Y-32429D01*
X64061Y-32331D01*
X63806Y-32331D01*
X63570Y-32429D01*
X63390Y-32609D01*
X63292Y-32844D01*
X63292Y-33099D01*
X63389Y-33334D01*
X63569Y-33515D01*
X63647Y-33547D01*
X62994Y-33795D01*
X61077Y-38065D01*
X58180Y-38171D01*
X57393Y-39099D01*
X57280Y-39256D01*
X57314Y-40656D01*
X55218Y-40724D01*
X54997Y-40476D01*
X54897Y-38206D01*
X62562Y-31235D01*
X65909Y-31322D01*
X65909Y-31322D01*
G37*
G54D19*
X65909Y-31322D02*
X64573Y-32894D01*
X64573Y-32845D01*
X64476Y-32610D01*
X64296Y-32429D01*
X64061Y-32331D01*
X63806Y-32331D01*
X63570Y-32429D01*
X63390Y-32609D01*
X63292Y-32844D01*
X63292Y-33099D01*
X63389Y-33334D01*
X63569Y-33515D01*
X63647Y-33547D01*
X62994Y-33795D01*
X61077Y-38065D01*
X58180Y-38171D01*
X57393Y-39099D01*
X57280Y-39256D01*
X57314Y-40656D01*
X55218Y-40724D01*
X54997Y-40476D01*
X54897Y-38206D01*
X62562Y-31235D01*
X65909Y-31322D01*
G54D10*
G36*
X66036Y-35429D02*
X65993Y-52591D01*
X51601Y-52599D01*
X51601Y-28400D01*
X65961Y-28400D01*
X65950Y-30505D01*
X62070Y-30540D01*
X61254Y-31290D01*
X61317Y-29532D01*
X58135Y-29495D01*
X57964Y-31715D01*
X61150Y-31386D01*
X56575Y-35589D01*
X56575Y-33901D01*
X56365Y-28793D01*
X52716Y-28848D01*
X52665Y-33901D01*
X56575Y-33901D01*
X56575Y-35589D01*
X53851Y-38092D01*
X53851Y-44252D01*
X53892Y-46028D01*
X54105Y-46020D01*
X53872Y-46254D01*
X53746Y-46442D01*
X53701Y-46665D01*
X53701Y-49850D01*
X53658Y-49954D01*
X53658Y-50186D01*
X53746Y-50399D01*
X53828Y-50482D01*
X53910Y-50563D01*
X54017Y-50608D01*
X54123Y-50652D01*
X54240Y-50652D01*
X54355Y-50652D01*
X54462Y-50608D01*
X54569Y-50564D01*
X54651Y-50482D01*
X54732Y-50400D01*
X54753Y-50350D01*
X54753Y-50350D01*
X54820Y-50250D01*
X54820Y-50250D01*
X54864Y-50027D01*
X54864Y-46906D01*
X55808Y-45962D01*
X56594Y-45935D01*
X61695Y-46007D01*
X61689Y-44971D01*
X62256Y-44404D01*
X62260Y-47690D01*
X62144Y-47690D01*
X61930Y-47778D01*
X61767Y-47941D01*
X61678Y-48155D01*
X61678Y-48386D01*
X61717Y-48482D01*
X61717Y-48791D01*
X61507Y-49001D01*
X59114Y-49001D01*
X59094Y-49005D01*
X58955Y-49005D01*
X58741Y-49093D01*
X58578Y-49256D01*
X58489Y-49470D01*
X58489Y-49701D01*
X58577Y-49915D01*
X58592Y-49930D01*
X57881Y-49930D01*
X57849Y-49936D01*
X57817Y-49933D01*
X57739Y-49958D01*
X57659Y-49974D01*
X57632Y-49992D01*
X57601Y-50002D01*
X56551Y-50581D01*
X56474Y-50613D01*
X56310Y-50776D01*
X56221Y-50990D01*
X56221Y-51221D01*
X56309Y-51435D01*
X56473Y-51598D01*
X56686Y-51687D01*
X56918Y-51687D01*
X57132Y-51599D01*
X57155Y-51575D01*
X58031Y-51093D01*
X63027Y-51093D01*
X63110Y-51076D01*
X63194Y-51068D01*
X64513Y-50672D01*
X65255Y-50723D01*
X65255Y-40053D01*
X62251Y-40103D01*
X62253Y-41524D01*
X62148Y-41524D01*
X61934Y-41613D01*
X61771Y-41776D01*
X61682Y-41990D01*
X61682Y-42221D01*
X61682Y-42221D01*
X61682Y-43333D01*
X61679Y-43336D01*
X61648Y-38264D01*
X63081Y-35513D01*
X66036Y-35429D01*
X66036Y-35429D01*
G37*
G54D19*
X66036Y-35429D02*
X65993Y-52591D01*
X51601Y-52599D01*
X51601Y-28400D01*
X65961Y-28400D01*
X65950Y-30505D01*
X62070Y-30540D01*
X61254Y-31290D01*
X61317Y-29532D01*
X58135Y-29495D01*
X57964Y-31715D01*
X61150Y-31386D01*
X56575Y-35589D01*
X56575Y-33901D01*
X56365Y-28793D01*
X52716Y-28848D01*
X52665Y-33901D01*
X56575Y-33901D01*
X56575Y-35589D01*
X53851Y-38092D01*
X53851Y-44252D01*
X53892Y-46028D01*
X54105Y-46020D01*
X53872Y-46254D01*
X53746Y-46442D01*
X53701Y-46665D01*
X53701Y-49850D01*
X53658Y-49954D01*
X53658Y-50186D01*
X53746Y-50399D01*
X53828Y-50482D01*
X53910Y-50563D01*
X54017Y-50608D01*
X54123Y-50652D01*
X54240Y-50652D01*
X54355Y-50652D01*
X54462Y-50608D01*
X54569Y-50564D01*
X54651Y-50482D01*
X54732Y-50400D01*
X54753Y-50350D01*
X54753Y-50350D01*
X54820Y-50250D01*
X54820Y-50250D01*
X54864Y-50027D01*
X54864Y-46906D01*
X55808Y-45962D01*
X56594Y-45935D01*
X61695Y-46007D01*
X61689Y-44971D01*
X62256Y-44404D01*
X62260Y-47690D01*
X62144Y-47690D01*
X61930Y-47778D01*
X61767Y-47941D01*
X61678Y-48155D01*
X61678Y-48386D01*
X61717Y-48482D01*
X61717Y-48791D01*
X61507Y-49001D01*
X59114Y-49001D01*
X59094Y-49005D01*
X58955Y-49005D01*
X58741Y-49093D01*
X58578Y-49256D01*
X58489Y-49470D01*
X58489Y-49701D01*
X58577Y-49915D01*
X58592Y-49930D01*
X57881Y-49930D01*
X57849Y-49936D01*
X57817Y-49933D01*
X57739Y-49958D01*
X57659Y-49974D01*
X57632Y-49992D01*
X57601Y-50002D01*
X56551Y-50581D01*
X56474Y-50613D01*
X56310Y-50776D01*
X56221Y-50990D01*
X56221Y-51221D01*
X56309Y-51435D01*
X56473Y-51598D01*
X56686Y-51687D01*
X56918Y-51687D01*
X57132Y-51599D01*
X57155Y-51575D01*
X58031Y-51093D01*
X63027Y-51093D01*
X63110Y-51076D01*
X63194Y-51068D01*
X64513Y-50672D01*
X65255Y-50723D01*
X65255Y-40053D01*
X62251Y-40103D01*
X62253Y-41524D01*
X62148Y-41524D01*
X61934Y-41613D01*
X61771Y-41776D01*
X61682Y-41990D01*
X61682Y-42221D01*
X61682Y-42221D01*
X61682Y-43333D01*
X61679Y-43336D01*
X61648Y-38264D01*
X63081Y-35513D01*
X66036Y-35429D01*
M02*
