M48
;DRILL file {KiCad 4.0.2+e4-6225~38~ubuntu14.04.1-stable} date Sat 13 Aug 2016 03:13:15 PM PDT
;FORMAT={-:-/ absolute / metric / decimal}
FMAT,2
METRIC,TZ
T1C0.300
T2C0.400
T3C0.500
T4C0.890
T5C1.000
%
G90
G05
M71
T1
X21.7Y-69.
X22.3Y-71.
X23.952Y-29.091
X28.125Y-57.05
X31.275Y-58.6
X34.2Y-37.875
X35.575Y-33.275
X40.25Y-58.1
X45.45Y-41.3
X45.625Y-47.475
X47.125Y-45.825
X48.275Y-42.4
X49.2Y-35.4
X49.525Y-46.1
X51.1Y-48.1
X52.5Y-44.65
X53.3Y-58.1
X54.5Y-37.2
X54.77Y-42.47
X54.91Y-49.7
X56.55Y-38.59
X56.6Y-70.6
X57.1Y-52.9
X57.8Y-20.3
X58.53Y-37.7
X60.6Y-30.6
X61.3Y-29.2
X61.4Y-37.5
X62.6Y-37.4
X62.7Y-31.6
X63.1Y-57.
X63.53Y-39.76
X64.Y-37.7
X64.298Y-32.202
X65.Y-57.4
X65.35Y-49.55
X65.6Y-41.1
X65.822Y-46.188
X66.7Y-50.
X66.8Y-69.2
X66.9Y-31.3
X66.9Y-42.8
X67.5Y-49.1
X67.8Y-46.1
X68.Y-38.3
X68.1Y-44.9
X69.1Y-47.8
X69.67Y-55.3
X69.86Y-53.72
X69.95Y-58.65
X70.1Y-44.9
X70.7Y-61.5
X70.8Y-35.4
X71.5Y-47.3
X71.9Y-34.6
X72.117Y-42.569
X73.1Y-42.35
X73.3Y-44.
X73.35Y-44.8
X73.6Y-46.7
X73.8Y-51.9
X74.042Y-74.585
X74.5Y-48.
X75.1Y-45.4
X75.2Y-32.9
X75.45Y-41.25
X75.8Y-33.45
X76.1Y-40.4
X79.1Y-60.9
X80.2Y-54.625
X80.85Y-53.8
X81.Y-39.2
X82.Y-35.1
X82.5Y-39.4
X82.6Y-55.4
X84.3Y-41.2
X84.7Y-54.4
X85.8Y-20.9
X85.85Y-32.75
X87.6Y-26.4
X87.6Y-53.9
X88.1Y-21.9
X88.1Y-41.6
X88.3Y-27.9
X88.4Y-31.1
X89.4Y-54.3
X89.6Y-31.1
X89.9Y-36.6
X91.3Y-55.3
X91.7Y-40.1
X93.297Y-44.2
X93.5Y-46.1
X94.1Y-51.7
X94.2Y-49.2
X96.Y-37.6
X96.1Y-55.9
X97.4Y-54.6
X112.1Y-21.4
X114.9Y-32.2
X115.Y-29.1
X118.Y-25.3
T2
X32.6Y-100.4
X37.4Y-86.9
X85.1Y-110.
X85.8Y-104.65
X86.07Y-111.74
X87.126Y-103.704
X87.89Y-112.17
X88.3Y-104.65
X89.9Y-109.4
X90.7Y-105.3
X91.7Y-107.7
X94.04Y-112.12
X104.Y-84.
X105.Y-94.5
X105.2Y-85.6
X105.2Y-88.
X105.3Y-92.7
X106.Y-86.7
X106.8Y-91.2
X108.45Y-87.05
X108.5Y-92.3
X110.6Y-94.7
X110.95Y-87.3
X111.5Y-90.8
X111.8Y-89.5
X112.6Y-94.3
X112.9Y-88.9
X113.7Y-84.7
X114.048Y-91.652
T3
X58.248Y-44.968
X58.248Y-46.492
X59.01Y-45.73
X59.772Y-44.968
X59.772Y-46.492
X77.86Y-43.49
X77.86Y-45.49
X77.86Y-47.49
X77.86Y-49.49
X78.36Y-44.49
X78.36Y-46.49
X78.36Y-48.49
X78.86Y-43.49
X78.86Y-45.49
X78.86Y-47.49
X78.86Y-49.49
X79.36Y-44.49
X79.36Y-46.49
X79.36Y-48.49
X79.86Y-43.49
X79.86Y-45.49
X79.86Y-47.49
X79.86Y-49.49
X80.36Y-44.49
X80.36Y-46.49
X80.36Y-48.49
X80.86Y-43.49
X80.86Y-45.49
X80.86Y-47.49
X80.86Y-49.49
X81.36Y-44.49
X81.36Y-46.49
X81.36Y-48.49
X81.86Y-43.49
X81.86Y-45.49
X81.86Y-47.49
X81.86Y-49.49
X82.36Y-44.49
X82.36Y-46.49
X82.36Y-48.49
X82.86Y-43.49
X82.86Y-45.49
X82.86Y-47.49
X82.86Y-49.49
X83.36Y-44.49
X83.36Y-46.49
X83.36Y-48.49
T4
X39.55Y-43.66
X39.55Y-46.2
X39.55Y-48.73
X39.55Y-51.27
X42.09Y-44.92
X42.09Y-47.46
X42.09Y-50.
X42.09Y-52.54
T5
X28.3Y-41.475
X28.3Y-44.015
X28.3Y-52.185
X28.3Y-54.725
X28.325Y-28.55
X30.825Y-28.55
X31.4Y-69.6
X33.9Y-69.6
X36.4Y-69.6
X38.9Y-69.6
X41.4Y-69.6
X43.9Y-69.6
X53.76Y-64.1
X56.3Y-64.1
X58.83Y-64.1
X61.37Y-64.1
X63.9Y-64.1
X66.44Y-64.1
T0
M30
