G04 (created by PCBNEW (2013-08-24 BZR 4298)-stable) date Tue 27 Aug 2013 06:43:28 AM PDT*
%MOIN*%
G04 Gerber Fmt 3.4, Leading zero omitted, Abs format*
%FSLAX34Y34*%
G01*
G70*
G90*
G04 APERTURE LIST*
%ADD10C,0.003937*%
%ADD11C,0.055000*%
%ADD12R,0.055000X0.055000*%
%ADD13C,0.060000*%
%ADD14C,0.039400*%
%ADD15C,0.005900*%
%ADD16C,0.031500*%
%ADD17C,0.035000*%
%ADD18C,0.039400*%
%ADD19C,0.031500*%
%ADD20C,0.015700*%
%ADD21C,0.030000*%
%ADD22C,0.009800*%
%ADD23C,0.010000*%
G04 APERTURE END LIST*
G54D10*
G54D11*
X73374Y-41962D03*
X73374Y-42962D03*
X73374Y-40962D03*
X73374Y-39962D03*
X73374Y-38962D03*
X73374Y-37962D03*
X73374Y-36962D03*
X73374Y-35962D03*
X73374Y-43956D03*
X73374Y-44956D03*
X73374Y-45956D03*
X73374Y-47956D03*
X73374Y-46956D03*
X70380Y-46978D03*
X70380Y-47978D03*
X70380Y-45978D03*
X70380Y-44978D03*
X70380Y-43978D03*
X73370Y-34958D03*
G54D12*
X70380Y-34984D03*
G54D11*
X70380Y-35984D03*
X70380Y-36984D03*
X70380Y-37984D03*
X70380Y-38984D03*
X70380Y-39984D03*
X70380Y-40984D03*
X70380Y-42984D03*
X70380Y-41984D03*
G54D13*
X80144Y-36178D03*
X80144Y-37178D03*
X80144Y-38178D03*
X80144Y-39178D03*
X80144Y-40178D03*
X81144Y-40178D03*
X81144Y-39178D03*
X81144Y-38178D03*
X81144Y-37178D03*
X81144Y-36178D03*
G54D14*
X75710Y-53472D03*
X73978Y-53472D03*
G54D15*
X77419Y-39588D03*
X77419Y-39726D03*
X77419Y-39417D03*
X76534Y-46938D03*
X76534Y-47076D03*
X76534Y-46767D03*
X77294Y-36418D03*
X77294Y-36556D03*
X77294Y-36247D03*
G54D16*
X74704Y-42903D03*
X65394Y-34983D03*
X74284Y-49648D03*
X72454Y-50208D03*
X68824Y-42873D03*
G54D17*
X68812Y-44000D03*
X68980Y-48038D03*
G54D16*
X78653Y-53615D03*
X71479Y-54303D03*
X75533Y-50605D03*
X74653Y-44055D03*
X76413Y-38835D03*
X78533Y-37608D03*
X79312Y-34337D03*
X73843Y-34175D03*
X78573Y-40455D03*
X78633Y-39425D03*
X79128Y-35298D03*
X74606Y-34955D03*
X74648Y-36964D03*
X74571Y-41962D03*
X74606Y-39960D03*
X74753Y-44972D03*
X75710Y-45961D03*
X74743Y-45955D03*
X78005Y-47765D03*
X78036Y-47063D03*
X77777Y-46652D03*
X74655Y-38959D03*
X74593Y-40955D03*
X74623Y-37915D03*
X74578Y-35970D03*
X79128Y-36173D03*
X79156Y-36684D03*
X79170Y-37209D03*
X78613Y-38765D03*
X78573Y-39895D03*
G54D18*
X74645Y-42962D02*
X73374Y-42962D01*
X74704Y-42903D02*
X74645Y-42962D01*
G54D19*
X73374Y-42962D02*
X73083Y-42962D01*
X71465Y-34984D02*
X70380Y-34984D01*
X71944Y-35463D02*
X71465Y-34984D01*
X71944Y-41823D02*
X71944Y-35463D01*
X73083Y-42962D02*
X71944Y-41823D01*
G54D18*
X65394Y-34983D02*
X65395Y-34984D01*
X65395Y-34984D02*
X70380Y-34984D01*
G54D20*
X73374Y-46956D02*
X73762Y-46956D01*
X74284Y-47478D02*
X74284Y-49648D01*
X73762Y-46956D02*
X74284Y-47478D01*
X73339Y-47991D02*
X73374Y-47956D01*
X73339Y-49278D02*
X73339Y-47991D01*
X72454Y-50208D02*
X72604Y-49518D01*
X72604Y-49518D02*
X73339Y-49278D01*
G54D19*
X68824Y-42873D02*
X68935Y-42984D01*
X68935Y-42984D02*
X70380Y-42984D01*
G54D21*
X70380Y-43978D02*
X68834Y-43978D01*
X68834Y-43978D02*
X68812Y-44000D01*
X69040Y-47978D02*
X70380Y-47978D01*
X68980Y-48038D02*
X69040Y-47978D01*
G54D20*
X78633Y-53635D02*
X78633Y-53645D01*
X78653Y-53615D02*
X78633Y-53635D01*
X75533Y-50605D02*
X75543Y-50595D01*
G54D18*
X73374Y-43956D02*
X74554Y-43956D01*
X74554Y-43956D02*
X74653Y-44055D01*
X70380Y-41984D02*
X69770Y-41984D01*
X69770Y-41984D02*
X68866Y-41080D01*
G54D22*
X77640Y-37608D02*
X78533Y-37608D01*
X76413Y-38835D02*
X77640Y-37608D01*
X78533Y-37608D02*
X78533Y-37622D01*
X74005Y-34337D02*
X79312Y-34337D01*
X73843Y-34175D02*
X74005Y-34337D01*
G54D21*
X70380Y-41984D02*
X70976Y-41984D01*
X72046Y-43538D02*
X72464Y-43956D01*
X72046Y-43054D02*
X72046Y-43538D01*
X70976Y-41984D02*
X72046Y-43054D01*
X72464Y-43956D02*
X73374Y-43956D01*
X73374Y-43956D02*
X72464Y-43956D01*
G54D22*
X81144Y-39178D02*
X81144Y-39264D01*
X79003Y-40455D02*
X78573Y-40455D01*
X79783Y-39675D02*
X79003Y-40455D01*
X80733Y-39675D02*
X79783Y-39675D01*
X81144Y-39264D02*
X80733Y-39675D01*
X81144Y-38178D02*
X81110Y-38178D01*
X79393Y-38665D02*
X78633Y-39425D01*
X80623Y-38665D02*
X79393Y-38665D01*
X81110Y-38178D02*
X80623Y-38665D01*
X81144Y-35676D02*
X81144Y-36178D01*
X80724Y-35256D02*
X81144Y-35676D01*
X79170Y-35256D02*
X80724Y-35256D01*
X79128Y-35298D02*
X79170Y-35256D01*
X73370Y-34958D02*
X74603Y-34958D01*
X74603Y-34958D02*
X74606Y-34955D01*
X73374Y-36962D02*
X74646Y-36962D01*
X74646Y-36962D02*
X74648Y-36964D01*
X74571Y-41962D02*
X73374Y-41962D01*
X74604Y-39962D02*
X73374Y-39962D01*
X74606Y-39960D02*
X74604Y-39962D01*
X74737Y-44956D02*
X73374Y-44956D01*
X74753Y-44972D02*
X74737Y-44956D01*
X75827Y-45955D02*
X74743Y-45955D01*
X75710Y-45961D02*
X75827Y-45955D01*
X74743Y-45955D02*
X74742Y-45956D01*
X73374Y-45956D02*
X74742Y-45956D01*
X78036Y-47734D02*
X78036Y-47063D01*
X78005Y-47765D02*
X78036Y-47734D01*
X81144Y-43955D02*
X81144Y-40178D01*
X78036Y-47063D02*
X81144Y-43955D01*
X80144Y-44285D02*
X80144Y-40178D01*
X77777Y-46652D02*
X80144Y-44285D01*
X73374Y-38962D02*
X74652Y-38962D01*
X74652Y-38962D02*
X74655Y-38959D01*
X73374Y-40962D02*
X74586Y-40962D01*
X74586Y-40962D02*
X74593Y-40955D01*
X74576Y-37962D02*
X73374Y-37962D01*
X74623Y-37915D02*
X74576Y-37962D01*
X74570Y-35962D02*
X73374Y-35962D01*
X74578Y-35970D02*
X74570Y-35962D01*
X80144Y-36178D02*
X79133Y-36178D01*
X79133Y-36178D02*
X79128Y-36173D01*
X81144Y-37178D02*
X81144Y-36901D01*
X80927Y-36684D02*
X79156Y-36684D01*
X81144Y-36901D02*
X80927Y-36684D01*
X79201Y-37178D02*
X80144Y-37178D01*
X79170Y-37209D02*
X79201Y-37178D01*
X79200Y-38178D02*
X80144Y-38178D01*
X78613Y-38765D02*
X79200Y-38178D01*
X79740Y-39178D02*
X80144Y-39178D01*
X79013Y-39905D02*
X79740Y-39178D01*
X78583Y-39905D02*
X79013Y-39905D01*
X78573Y-39895D02*
X78583Y-39905D01*
G54D23*
X70373Y-41908D02*
X70373Y-41908D01*
X70304Y-41988D02*
X70455Y-41988D01*
X73361Y-43886D02*
X73361Y-43886D01*
X73303Y-43966D02*
X73444Y-43966D01*
X59711Y-32697D02*
X82743Y-32697D01*
X59711Y-32777D02*
X82743Y-32777D01*
X59711Y-32857D02*
X82743Y-32857D01*
X59711Y-32937D02*
X82743Y-32937D01*
X59711Y-33017D02*
X82743Y-33017D01*
X59711Y-33097D02*
X82743Y-33097D01*
X59711Y-33177D02*
X82743Y-33177D01*
X59711Y-33257D02*
X82742Y-33257D01*
X59711Y-33337D02*
X82742Y-33337D01*
X59711Y-33417D02*
X82742Y-33417D01*
X59712Y-33497D02*
X82742Y-33497D01*
X59712Y-33577D02*
X82742Y-33577D01*
X59712Y-33657D02*
X82742Y-33657D01*
X59712Y-33737D02*
X82742Y-33737D01*
X59712Y-33817D02*
X82742Y-33817D01*
X59712Y-33897D02*
X82741Y-33897D01*
X59712Y-33977D02*
X82741Y-33977D01*
X59712Y-34057D02*
X73128Y-34057D01*
X73612Y-34057D02*
X82741Y-34057D01*
X59712Y-34137D02*
X65388Y-34137D01*
X70972Y-34137D02*
X72934Y-34137D01*
X73804Y-34137D02*
X82741Y-34137D01*
X59712Y-34217D02*
X65045Y-34217D01*
X71668Y-34217D02*
X72803Y-34217D01*
X73937Y-34217D02*
X74277Y-34217D01*
X74934Y-34217D02*
X82741Y-34217D01*
X59712Y-34297D02*
X64925Y-34297D01*
X71862Y-34297D02*
X72722Y-34297D01*
X75090Y-34297D02*
X82741Y-34297D01*
X59713Y-34377D02*
X64805Y-34377D01*
X71982Y-34377D02*
X72642Y-34377D01*
X75169Y-34377D02*
X82741Y-34377D01*
X59713Y-34457D02*
X64746Y-34457D01*
X72079Y-34457D02*
X72576Y-34457D01*
X75249Y-34457D02*
X82740Y-34457D01*
X59713Y-34537D02*
X64692Y-34537D01*
X72159Y-34537D02*
X72543Y-34537D01*
X75307Y-34537D02*
X78855Y-34537D01*
X79400Y-34537D02*
X82740Y-34537D01*
X59713Y-34617D02*
X64639Y-34617D01*
X72239Y-34617D02*
X72510Y-34617D01*
X75340Y-34617D02*
X78667Y-34617D01*
X81001Y-34617D02*
X82740Y-34617D01*
X59713Y-34697D02*
X64603Y-34697D01*
X72319Y-34697D02*
X72476Y-34697D01*
X75373Y-34697D02*
X78587Y-34697D01*
X81121Y-34697D02*
X82740Y-34697D01*
X59713Y-34777D02*
X64587Y-34777D01*
X72399Y-34777D02*
X72445Y-34777D01*
X75406Y-34777D02*
X78506Y-34777D01*
X81233Y-34777D02*
X82740Y-34777D01*
X59713Y-34857D02*
X64572Y-34857D01*
X75413Y-34857D02*
X78436Y-34857D01*
X81313Y-34857D02*
X82740Y-34857D01*
X59713Y-34937D02*
X64556Y-34937D01*
X75413Y-34937D02*
X78403Y-34937D01*
X81393Y-34937D02*
X82740Y-34937D01*
X59713Y-35017D02*
X64553Y-35017D01*
X75413Y-35017D02*
X78370Y-35017D01*
X81473Y-35017D02*
X82739Y-35017D01*
X59713Y-35097D02*
X64569Y-35097D01*
X75413Y-35097D02*
X78337Y-35097D01*
X81553Y-35097D02*
X82739Y-35097D01*
X59713Y-35177D02*
X64585Y-35177D01*
X75388Y-35177D02*
X78320Y-35177D01*
X81633Y-35177D02*
X82739Y-35177D01*
X59714Y-35257D02*
X64601Y-35257D01*
X75354Y-35257D02*
X78320Y-35257D01*
X81688Y-35257D02*
X82739Y-35257D01*
X59714Y-35337D02*
X64631Y-35337D01*
X75321Y-35337D02*
X78320Y-35337D01*
X81742Y-35337D02*
X82739Y-35337D01*
X59714Y-35417D02*
X64684Y-35417D01*
X75286Y-35417D02*
X78320Y-35417D01*
X81791Y-35417D02*
X82739Y-35417D01*
X59714Y-35497D02*
X64738Y-35497D01*
X75246Y-35497D02*
X78336Y-35497D01*
X81807Y-35497D02*
X82739Y-35497D01*
X59714Y-35577D02*
X64791Y-35577D01*
X75289Y-35577D02*
X77136Y-35577D01*
X77452Y-35577D02*
X78369Y-35577D01*
X81886Y-35577D02*
X82739Y-35577D01*
X59714Y-35657D02*
X64906Y-35657D01*
X75322Y-35657D02*
X76942Y-35657D01*
X77645Y-35657D02*
X78402Y-35657D01*
X81956Y-35657D02*
X82738Y-35657D01*
X59714Y-35737D02*
X65026Y-35737D01*
X75355Y-35737D02*
X76843Y-35737D01*
X77745Y-35737D02*
X78434Y-35737D01*
X81989Y-35737D02*
X82738Y-35737D01*
X59714Y-35817D02*
X65324Y-35817D01*
X75385Y-35817D02*
X76762Y-35817D01*
X77824Y-35817D02*
X78401Y-35817D01*
X82022Y-35817D02*
X82738Y-35817D01*
X59714Y-35897D02*
X69455Y-35897D01*
X75385Y-35897D02*
X76703Y-35897D01*
X77884Y-35897D02*
X78368Y-35897D01*
X82055Y-35897D02*
X82738Y-35897D01*
X59714Y-35977D02*
X69455Y-35977D01*
X75385Y-35977D02*
X76670Y-35977D01*
X77917Y-35977D02*
X78335Y-35977D01*
X82088Y-35977D02*
X82738Y-35977D01*
X59715Y-36057D02*
X69454Y-36057D01*
X75385Y-36057D02*
X76637Y-36057D01*
X77950Y-36057D02*
X78320Y-36057D01*
X82094Y-36057D02*
X82738Y-36057D01*
X59715Y-36137D02*
X69454Y-36137D01*
X75383Y-36137D02*
X76614Y-36137D01*
X77973Y-36137D02*
X78320Y-36137D01*
X82094Y-36137D02*
X82738Y-36137D01*
X59715Y-36217D02*
X69475Y-36217D01*
X75349Y-36217D02*
X76614Y-36217D01*
X77973Y-36217D02*
X78320Y-36217D01*
X82093Y-36217D02*
X82737Y-36217D01*
X59715Y-36297D02*
X69508Y-36297D01*
X75316Y-36297D02*
X76614Y-36297D01*
X77973Y-36297D02*
X78320Y-36297D01*
X82093Y-36297D02*
X82737Y-36297D01*
X59715Y-36377D02*
X69541Y-36377D01*
X75283Y-36377D02*
X76614Y-36377D01*
X77973Y-36377D02*
X78338Y-36377D01*
X82090Y-36377D02*
X82737Y-36377D01*
X59715Y-36457D02*
X69574Y-36457D01*
X75282Y-36457D02*
X76614Y-36457D01*
X77973Y-36457D02*
X77973Y-36457D01*
X77973Y-36457D02*
X78371Y-36457D01*
X82056Y-36457D02*
X82737Y-36457D01*
X59715Y-36537D02*
X69564Y-36537D01*
X75345Y-36537D02*
X76614Y-36537D01*
X77973Y-36537D02*
X77973Y-36537D01*
X77973Y-36537D02*
X78348Y-36537D01*
X82023Y-36537D02*
X82737Y-36537D01*
X59715Y-36617D02*
X69530Y-36617D01*
X75378Y-36617D02*
X76614Y-36617D01*
X77973Y-36617D02*
X77973Y-36617D01*
X77973Y-36617D02*
X78348Y-36617D01*
X81990Y-36617D02*
X82737Y-36617D01*
X59715Y-36697D02*
X69497Y-36697D01*
X75411Y-36697D02*
X76617Y-36697D01*
X77971Y-36697D02*
X77973Y-36697D01*
X77973Y-36697D02*
X78348Y-36697D01*
X81973Y-36697D02*
X82737Y-36697D01*
X59715Y-36777D02*
X69464Y-36777D01*
X75444Y-36777D02*
X76650Y-36777D01*
X77937Y-36777D02*
X77973Y-36777D01*
X77973Y-36777D02*
X78348Y-36777D01*
X82006Y-36777D02*
X82737Y-36777D01*
X59715Y-36857D02*
X69455Y-36857D01*
X75455Y-36857D02*
X76683Y-36857D01*
X77904Y-36857D02*
X77973Y-36857D01*
X77973Y-36857D02*
X78353Y-36857D01*
X82039Y-36857D02*
X82736Y-36857D01*
X59716Y-36937D02*
X69455Y-36937D01*
X75455Y-36937D02*
X76716Y-36937D01*
X77871Y-36937D02*
X77973Y-36937D01*
X77973Y-36937D02*
X78386Y-36937D01*
X82072Y-36937D02*
X82736Y-36937D01*
X59716Y-37017D02*
X69454Y-37017D01*
X75455Y-37017D02*
X76794Y-37017D01*
X77793Y-37017D02*
X77973Y-37017D01*
X77973Y-37017D02*
X78375Y-37017D01*
X82094Y-37017D02*
X82736Y-37017D01*
X59716Y-37097D02*
X69454Y-37097D01*
X75455Y-37097D02*
X76873Y-37097D01*
X77713Y-37097D02*
X77973Y-37097D01*
X77973Y-37097D02*
X78362Y-37097D01*
X82094Y-37097D02*
X82736Y-37097D01*
X59716Y-37177D02*
X69458Y-37177D01*
X75433Y-37177D02*
X77017Y-37177D01*
X77570Y-37177D02*
X77973Y-37177D01*
X77973Y-37177D02*
X78362Y-37177D01*
X82094Y-37177D02*
X82736Y-37177D01*
X59716Y-37257D02*
X69491Y-37257D01*
X75400Y-37257D02*
X77973Y-37257D01*
X77973Y-37257D02*
X78362Y-37257D01*
X82093Y-37257D02*
X82736Y-37257D01*
X59716Y-37337D02*
X69525Y-37337D01*
X75367Y-37337D02*
X77973Y-37337D01*
X77973Y-37337D02*
X78362Y-37337D01*
X82093Y-37337D02*
X82736Y-37337D01*
X59716Y-37417D02*
X69558Y-37417D01*
X75334Y-37417D02*
X77973Y-37417D01*
X77973Y-37417D02*
X78382Y-37417D01*
X82073Y-37417D02*
X82735Y-37417D01*
X59716Y-37497D02*
X69580Y-37497D01*
X75324Y-37497D02*
X77973Y-37497D01*
X77973Y-37497D02*
X78415Y-37497D01*
X82040Y-37497D02*
X82735Y-37497D01*
X59716Y-37577D02*
X69547Y-37577D01*
X75357Y-37577D02*
X77973Y-37577D01*
X77973Y-37577D02*
X78448Y-37577D01*
X82006Y-37577D02*
X82735Y-37577D01*
X59716Y-37657D02*
X69514Y-37657D01*
X75390Y-37657D02*
X77973Y-37657D01*
X77973Y-37657D02*
X78481Y-37657D01*
X81973Y-37657D02*
X82735Y-37657D01*
X59717Y-37737D02*
X69480Y-37737D01*
X75423Y-37737D02*
X77973Y-37737D01*
X77973Y-37737D02*
X78556Y-37737D01*
X81989Y-37737D02*
X82735Y-37737D01*
X59717Y-37817D02*
X69455Y-37817D01*
X75430Y-37817D02*
X77973Y-37817D01*
X77973Y-37817D02*
X78572Y-37817D01*
X82022Y-37817D02*
X82735Y-37817D01*
X59717Y-37897D02*
X69455Y-37897D01*
X75430Y-37897D02*
X77973Y-37897D01*
X77973Y-37897D02*
X78492Y-37897D01*
X82055Y-37897D02*
X82735Y-37897D01*
X59717Y-37977D02*
X69455Y-37977D01*
X75430Y-37977D02*
X77973Y-37977D01*
X77973Y-37977D02*
X78405Y-37977D01*
X82088Y-37977D02*
X82734Y-37977D01*
X59717Y-38057D02*
X69454Y-38057D01*
X75430Y-38057D02*
X77973Y-38057D01*
X77973Y-38057D02*
X78211Y-38057D01*
X82094Y-38057D02*
X82734Y-38057D01*
X59717Y-38137D02*
X69454Y-38137D01*
X75405Y-38137D02*
X77973Y-38137D01*
X77973Y-38137D02*
X78099Y-38137D01*
X82094Y-38137D02*
X82734Y-38137D01*
X59717Y-38217D02*
X69475Y-38217D01*
X75371Y-38217D02*
X77973Y-38217D01*
X77973Y-38217D02*
X78018Y-38217D01*
X82093Y-38217D02*
X82734Y-38217D01*
X59717Y-38297D02*
X69508Y-38297D01*
X75338Y-38297D02*
X77938Y-38297D01*
X82093Y-38297D02*
X82734Y-38297D01*
X59717Y-38377D02*
X69541Y-38377D01*
X75303Y-38377D02*
X77899Y-38377D01*
X82090Y-38377D02*
X82734Y-38377D01*
X59717Y-38457D02*
X69574Y-38457D01*
X75294Y-38457D02*
X77866Y-38457D01*
X82056Y-38457D02*
X82734Y-38457D01*
X59717Y-38537D02*
X69564Y-38537D01*
X75354Y-38537D02*
X77833Y-38537D01*
X82023Y-38537D02*
X82734Y-38537D01*
X59718Y-38617D02*
X69530Y-38617D01*
X75387Y-38617D02*
X77805Y-38617D01*
X81990Y-38617D02*
X82733Y-38617D01*
X59718Y-38697D02*
X69497Y-38697D01*
X75420Y-38697D02*
X77805Y-38697D01*
X81973Y-38697D02*
X82733Y-38697D01*
X59718Y-38777D02*
X69464Y-38777D01*
X75453Y-38777D02*
X77188Y-38777D01*
X77649Y-38777D02*
X77805Y-38777D01*
X82006Y-38777D02*
X82733Y-38777D01*
X59718Y-38857D02*
X69455Y-38857D01*
X75462Y-38857D02*
X77018Y-38857D01*
X82039Y-38857D02*
X82733Y-38857D01*
X59718Y-38937D02*
X69455Y-38937D01*
X75462Y-38937D02*
X76938Y-38937D01*
X82072Y-38937D02*
X82733Y-38937D01*
X59718Y-39017D02*
X69454Y-39017D01*
X75462Y-39017D02*
X76857Y-39017D01*
X82094Y-39017D02*
X82733Y-39017D01*
X59718Y-39097D02*
X69454Y-39097D01*
X75462Y-39097D02*
X76816Y-39097D01*
X82094Y-39097D02*
X82733Y-39097D01*
X59718Y-39177D02*
X69458Y-39177D01*
X75438Y-39177D02*
X76782Y-39177D01*
X82094Y-39177D02*
X82732Y-39177D01*
X59718Y-39257D02*
X69491Y-39257D01*
X75405Y-39257D02*
X76749Y-39257D01*
X82093Y-39257D02*
X82732Y-39257D01*
X59718Y-39337D02*
X69525Y-39337D01*
X75372Y-39337D02*
X76739Y-39337D01*
X82093Y-39337D02*
X82732Y-39337D01*
X59719Y-39417D02*
X69558Y-39417D01*
X75339Y-39417D02*
X76739Y-39417D01*
X82073Y-39417D02*
X82732Y-39417D01*
X59719Y-39497D02*
X69580Y-39497D01*
X75284Y-39497D02*
X76739Y-39497D01*
X82040Y-39497D02*
X82732Y-39497D01*
X59719Y-39577D02*
X69547Y-39577D01*
X75321Y-39577D02*
X76739Y-39577D01*
X82006Y-39577D02*
X82732Y-39577D01*
X59719Y-39657D02*
X69514Y-39657D01*
X75354Y-39657D02*
X76739Y-39657D01*
X81973Y-39657D02*
X82732Y-39657D01*
X59719Y-39737D02*
X69480Y-39737D01*
X75387Y-39737D02*
X76739Y-39737D01*
X81989Y-39737D02*
X82732Y-39737D01*
X59719Y-39817D02*
X69455Y-39817D01*
X75413Y-39817D02*
X76739Y-39817D01*
X82022Y-39817D02*
X82731Y-39817D01*
X59719Y-39897D02*
X69455Y-39897D01*
X75413Y-39897D02*
X76754Y-39897D01*
X82055Y-39897D02*
X82731Y-39897D01*
X59719Y-39977D02*
X69455Y-39977D01*
X75413Y-39977D02*
X76787Y-39977D01*
X82088Y-39977D02*
X82731Y-39977D01*
X59719Y-40057D02*
X69454Y-40057D01*
X75413Y-40057D02*
X76820Y-40057D01*
X82094Y-40057D02*
X82094Y-40057D01*
X82094Y-40057D02*
X82731Y-40057D01*
X59719Y-40137D02*
X69454Y-40137D01*
X75406Y-40137D02*
X76869Y-40137D01*
X82094Y-40137D02*
X82094Y-40137D01*
X82094Y-40137D02*
X82731Y-40137D01*
X59719Y-40217D02*
X69475Y-40217D01*
X75373Y-40217D02*
X76949Y-40217D01*
X82093Y-40217D02*
X82094Y-40217D01*
X82094Y-40217D02*
X82731Y-40217D01*
X59720Y-40297D02*
X69508Y-40297D01*
X75340Y-40297D02*
X77028Y-40297D01*
X82093Y-40297D02*
X82094Y-40297D01*
X82094Y-40297D02*
X82731Y-40297D01*
X59720Y-40377D02*
X69541Y-40377D01*
X75307Y-40377D02*
X77214Y-40377D01*
X77622Y-40377D02*
X77765Y-40377D01*
X82090Y-40377D02*
X82094Y-40377D01*
X82094Y-40377D02*
X82730Y-40377D01*
X59720Y-40457D02*
X69574Y-40457D01*
X75251Y-40457D02*
X77765Y-40457D01*
X82056Y-40457D02*
X82094Y-40457D01*
X82094Y-40457D02*
X82730Y-40457D01*
X59720Y-40537D02*
X69564Y-40537D01*
X75294Y-40537D02*
X77765Y-40537D01*
X82023Y-40537D02*
X82094Y-40537D01*
X82094Y-40537D02*
X82730Y-40537D01*
X59720Y-40617D02*
X69530Y-40617D01*
X75327Y-40617D02*
X77766Y-40617D01*
X81990Y-40617D02*
X82094Y-40617D01*
X82094Y-40617D02*
X82730Y-40617D01*
X59720Y-40697D02*
X69497Y-40697D01*
X75360Y-40697D02*
X77799Y-40697D01*
X81957Y-40697D02*
X82094Y-40697D01*
X82094Y-40697D02*
X82730Y-40697D01*
X59720Y-40777D02*
X69464Y-40777D01*
X75393Y-40777D02*
X77832Y-40777D01*
X81888Y-40777D02*
X82094Y-40777D01*
X82094Y-40777D02*
X82730Y-40777D01*
X59720Y-40857D02*
X69455Y-40857D01*
X75400Y-40857D02*
X77865Y-40857D01*
X81843Y-40857D02*
X82094Y-40857D01*
X82094Y-40857D02*
X82730Y-40857D01*
X59720Y-40937D02*
X69455Y-40937D01*
X75400Y-40937D02*
X77913Y-40937D01*
X81843Y-40937D02*
X82094Y-40937D01*
X82094Y-40937D02*
X82730Y-40937D01*
X59720Y-41017D02*
X69454Y-41017D01*
X75400Y-41017D02*
X77993Y-41017D01*
X79395Y-41017D02*
X79445Y-41017D01*
X81843Y-41017D02*
X82094Y-41017D01*
X82094Y-41017D02*
X82729Y-41017D01*
X59721Y-41097D02*
X69454Y-41097D01*
X75400Y-41097D02*
X78072Y-41097D01*
X79276Y-41097D02*
X79445Y-41097D01*
X81843Y-41097D02*
X82094Y-41097D01*
X82094Y-41097D02*
X82729Y-41097D01*
X59721Y-41177D02*
X69458Y-41177D01*
X75375Y-41177D02*
X78206Y-41177D01*
X78940Y-41177D02*
X79445Y-41177D01*
X81843Y-41177D02*
X82094Y-41177D01*
X82094Y-41177D02*
X82729Y-41177D01*
X59721Y-41257D02*
X69491Y-41257D01*
X75341Y-41257D02*
X78398Y-41257D01*
X78746Y-41257D02*
X79445Y-41257D01*
X81843Y-41257D02*
X82094Y-41257D01*
X82094Y-41257D02*
X82729Y-41257D01*
X59721Y-41337D02*
X69525Y-41337D01*
X75308Y-41337D02*
X79445Y-41337D01*
X81843Y-41337D02*
X82094Y-41337D01*
X82094Y-41337D02*
X82729Y-41337D01*
X59721Y-41417D02*
X69558Y-41417D01*
X75273Y-41417D02*
X79445Y-41417D01*
X81843Y-41417D02*
X82094Y-41417D01*
X82094Y-41417D02*
X82729Y-41417D01*
X59721Y-41497D02*
X69591Y-41497D01*
X75247Y-41497D02*
X79445Y-41497D01*
X81843Y-41497D02*
X82094Y-41497D01*
X82094Y-41497D02*
X82729Y-41497D01*
X59721Y-41577D02*
X69664Y-41577D01*
X71095Y-41577D02*
X71136Y-41577D01*
X75285Y-41577D02*
X79445Y-41577D01*
X81843Y-41577D02*
X82094Y-41577D01*
X82094Y-41577D02*
X82728Y-41577D01*
X59721Y-41657D02*
X69744Y-41657D01*
X71015Y-41657D02*
X71136Y-41657D01*
X75318Y-41657D02*
X79445Y-41657D01*
X81843Y-41657D02*
X82094Y-41657D01*
X82094Y-41657D02*
X82728Y-41657D01*
X59721Y-41737D02*
X69824Y-41737D01*
X70934Y-41737D02*
X71136Y-41737D01*
X75351Y-41737D02*
X79445Y-41737D01*
X81843Y-41737D02*
X82094Y-41737D01*
X82094Y-41737D02*
X82728Y-41737D01*
X59721Y-41817D02*
X69882Y-41817D01*
X70884Y-41817D02*
X71136Y-41817D01*
X75378Y-41817D02*
X79445Y-41817D01*
X81843Y-41817D02*
X82094Y-41817D01*
X82094Y-41817D02*
X82728Y-41817D01*
X59721Y-41897D02*
X69854Y-41897D01*
X70901Y-41897D02*
X71151Y-41897D01*
X75378Y-41897D02*
X79445Y-41897D01*
X81843Y-41897D02*
X82094Y-41897D01*
X82094Y-41897D02*
X82728Y-41897D01*
X59722Y-41977D02*
X69853Y-41977D01*
X70905Y-41977D02*
X71167Y-41977D01*
X75378Y-41977D02*
X79445Y-41977D01*
X81843Y-41977D02*
X82094Y-41977D01*
X82094Y-41977D02*
X82728Y-41977D01*
X59722Y-42057D02*
X69858Y-42057D01*
X70909Y-42057D02*
X71183Y-42057D01*
X75378Y-42057D02*
X79445Y-42057D01*
X81843Y-42057D02*
X82094Y-42057D01*
X82094Y-42057D02*
X82728Y-42057D01*
X59722Y-42137D02*
X68490Y-42137D01*
X69157Y-42137D02*
X69869Y-42137D01*
X70882Y-42137D02*
X71201Y-42137D01*
X75372Y-42137D02*
X79445Y-42137D01*
X81843Y-42137D02*
X82094Y-42137D01*
X82094Y-42137D02*
X82727Y-42137D01*
X59722Y-42217D02*
X68338Y-42217D01*
X70921Y-42217D02*
X71254Y-42217D01*
X75339Y-42217D02*
X79445Y-42217D01*
X81843Y-42217D02*
X82094Y-42217D01*
X82094Y-42217D02*
X82727Y-42217D01*
X59722Y-42297D02*
X68258Y-42297D01*
X71001Y-42297D02*
X71308Y-42297D01*
X75306Y-42297D02*
X79445Y-42297D01*
X81843Y-42297D02*
X82094Y-42297D01*
X82094Y-42297D02*
X82727Y-42297D01*
X59722Y-42377D02*
X68177Y-42377D01*
X71081Y-42377D02*
X71361Y-42377D01*
X75351Y-42377D02*
X79445Y-42377D01*
X81843Y-42377D02*
X82094Y-42377D01*
X82094Y-42377D02*
X82727Y-42377D01*
X59722Y-42457D02*
X68122Y-42457D01*
X71160Y-42457D02*
X71436Y-42457D01*
X75405Y-42457D02*
X79445Y-42457D01*
X81843Y-42457D02*
X82094Y-42457D01*
X82094Y-42457D02*
X82727Y-42457D01*
X59722Y-42537D02*
X68089Y-42537D01*
X71196Y-42537D02*
X71516Y-42537D01*
X75458Y-42537D02*
X79445Y-42537D01*
X81843Y-42537D02*
X82094Y-42537D01*
X82094Y-42537D02*
X82727Y-42537D01*
X59722Y-42617D02*
X68055Y-42617D01*
X71229Y-42617D02*
X71596Y-42617D01*
X75494Y-42617D02*
X79445Y-42617D01*
X81843Y-42617D02*
X82094Y-42617D01*
X82094Y-42617D02*
X82727Y-42617D01*
X59722Y-42697D02*
X68022Y-42697D01*
X71262Y-42697D02*
X71676Y-42697D01*
X75510Y-42697D02*
X79445Y-42697D01*
X81843Y-42697D02*
X82094Y-42697D01*
X82094Y-42697D02*
X82727Y-42697D01*
X59723Y-42777D02*
X68016Y-42777D01*
X71295Y-42777D02*
X71756Y-42777D01*
X75525Y-42777D02*
X79445Y-42777D01*
X81843Y-42777D02*
X82094Y-42777D01*
X82094Y-42777D02*
X82726Y-42777D01*
X59723Y-42857D02*
X68016Y-42857D01*
X71305Y-42857D02*
X71836Y-42857D01*
X75541Y-42857D02*
X79445Y-42857D01*
X81843Y-42857D02*
X82094Y-42857D01*
X82094Y-42857D02*
X82726Y-42857D01*
X59723Y-42937D02*
X68016Y-42937D01*
X71305Y-42937D02*
X71916Y-42937D01*
X75544Y-42937D02*
X79445Y-42937D01*
X81843Y-42937D02*
X82094Y-42937D01*
X82094Y-42937D02*
X82726Y-42937D01*
X59723Y-43017D02*
X68016Y-43017D01*
X71304Y-43017D02*
X71996Y-43017D01*
X75528Y-43017D02*
X79445Y-43017D01*
X81843Y-43017D02*
X82094Y-43017D01*
X82094Y-43017D02*
X82726Y-43017D01*
X59723Y-43097D02*
X68042Y-43097D01*
X71304Y-43097D02*
X72076Y-43097D01*
X75512Y-43097D02*
X79445Y-43097D01*
X81843Y-43097D02*
X82094Y-43097D01*
X82094Y-43097D02*
X82726Y-43097D01*
X59723Y-43177D02*
X68075Y-43177D01*
X71301Y-43177D02*
X72156Y-43177D01*
X75496Y-43177D02*
X79445Y-43177D01*
X81843Y-43177D02*
X82094Y-43177D01*
X82094Y-43177D02*
X82726Y-43177D01*
X59723Y-43257D02*
X68108Y-43257D01*
X71268Y-43257D02*
X72236Y-43257D01*
X75466Y-43257D02*
X79445Y-43257D01*
X81843Y-43257D02*
X82094Y-43257D01*
X82094Y-43257D02*
X82726Y-43257D01*
X59723Y-43337D02*
X68146Y-43337D01*
X71234Y-43337D02*
X72316Y-43337D01*
X75413Y-43337D02*
X79445Y-43337D01*
X81843Y-43337D02*
X82094Y-43337D01*
X82094Y-43337D02*
X82725Y-43337D01*
X59723Y-43417D02*
X68226Y-43417D01*
X71201Y-43417D02*
X72396Y-43417D01*
X75359Y-43417D02*
X79445Y-43417D01*
X81843Y-43417D02*
X82094Y-43417D01*
X82094Y-43417D02*
X82725Y-43417D01*
X59723Y-43497D02*
X68148Y-43497D01*
X71182Y-43497D02*
X72476Y-43497D01*
X75306Y-43497D02*
X79445Y-43497D01*
X81843Y-43497D02*
X82094Y-43497D01*
X82094Y-43497D02*
X82725Y-43497D01*
X59723Y-43577D02*
X68094Y-43577D01*
X71215Y-43577D02*
X72577Y-43577D01*
X75219Y-43577D02*
X79445Y-43577D01*
X81843Y-43577D02*
X82094Y-43577D01*
X82094Y-43577D02*
X82725Y-43577D01*
X59724Y-43657D02*
X68061Y-43657D01*
X71248Y-43657D02*
X72697Y-43657D01*
X75100Y-43657D02*
X79445Y-43657D01*
X81843Y-43657D02*
X82094Y-43657D01*
X82094Y-43657D02*
X82725Y-43657D01*
X59724Y-43737D02*
X68027Y-43737D01*
X71281Y-43737D02*
X72840Y-43737D01*
X74980Y-43737D02*
X79445Y-43737D01*
X81843Y-43737D02*
X82094Y-43737D01*
X82094Y-43737D02*
X82725Y-43737D01*
X59724Y-43817D02*
X67994Y-43817D01*
X71305Y-43817D02*
X72866Y-43817D01*
X73889Y-43817D02*
X79445Y-43817D01*
X81843Y-43817D02*
X82094Y-43817D01*
X82094Y-43817D02*
X82725Y-43817D01*
X59724Y-43897D02*
X67987Y-43897D01*
X71305Y-43897D02*
X72845Y-43897D01*
X73896Y-43897D02*
X79445Y-43897D01*
X81843Y-43897D02*
X82094Y-43897D01*
X82094Y-43897D02*
X82725Y-43897D01*
X59724Y-43977D02*
X67987Y-43977D01*
X71305Y-43977D02*
X72849Y-43977D01*
X73900Y-43977D02*
X79445Y-43977D01*
X81838Y-43977D02*
X82094Y-43977D01*
X82094Y-43977D02*
X82724Y-43977D01*
X59724Y-44057D02*
X67986Y-44057D01*
X71304Y-44057D02*
X72853Y-44057D01*
X73895Y-44057D02*
X79383Y-44057D01*
X81822Y-44057D02*
X82094Y-44057D01*
X82094Y-44057D02*
X82724Y-44057D01*
X59724Y-44137D02*
X67986Y-44137D01*
X71304Y-44137D02*
X72875Y-44137D01*
X73866Y-44137D02*
X79303Y-44137D01*
X81806Y-44137D02*
X82094Y-44137D01*
X82094Y-44137D02*
X82724Y-44137D01*
X59724Y-44217D02*
X68009Y-44217D01*
X71282Y-44217D02*
X72805Y-44217D01*
X73943Y-44217D02*
X74465Y-44217D01*
X75040Y-44217D02*
X79223Y-44217D01*
X81790Y-44217D02*
X82094Y-44217D01*
X82094Y-44217D02*
X82724Y-44217D01*
X59724Y-44297D02*
X68042Y-44297D01*
X71249Y-44297D02*
X72724Y-44297D01*
X75220Y-44297D02*
X79143Y-44297D01*
X81740Y-44297D02*
X82094Y-44297D01*
X82094Y-44297D02*
X82724Y-44297D01*
X59724Y-44377D02*
X68075Y-44377D01*
X71215Y-44377D02*
X72644Y-44377D01*
X75300Y-44377D02*
X79063Y-44377D01*
X81686Y-44377D02*
X82094Y-44377D01*
X82094Y-44377D02*
X82724Y-44377D01*
X59725Y-44457D02*
X68108Y-44457D01*
X71182Y-44457D02*
X72579Y-44457D01*
X75379Y-44457D02*
X78983Y-44457D01*
X81630Y-44457D02*
X82094Y-44457D01*
X82094Y-44457D02*
X82724Y-44457D01*
X59725Y-44537D02*
X68182Y-44537D01*
X71198Y-44537D02*
X72546Y-44537D01*
X75446Y-44537D02*
X78903Y-44537D01*
X81550Y-44537D02*
X82094Y-44537D01*
X82094Y-44537D02*
X82723Y-44537D01*
X59725Y-44617D02*
X68262Y-44617D01*
X71231Y-44617D02*
X72513Y-44617D01*
X75480Y-44617D02*
X78823Y-44617D01*
X81470Y-44617D02*
X82094Y-44617D01*
X82094Y-44617D02*
X82723Y-44617D01*
X59725Y-44697D02*
X68342Y-44697D01*
X71264Y-44697D02*
X72479Y-44697D01*
X75513Y-44697D02*
X78743Y-44697D01*
X81390Y-44697D02*
X82094Y-44697D01*
X82094Y-44697D02*
X82723Y-44697D01*
X59725Y-44777D02*
X68531Y-44777D01*
X71297Y-44777D02*
X72449Y-44777D01*
X75546Y-44777D02*
X78663Y-44777D01*
X81310Y-44777D02*
X82094Y-44777D01*
X82094Y-44777D02*
X82723Y-44777D01*
X59725Y-44857D02*
X69455Y-44857D01*
X71305Y-44857D02*
X72449Y-44857D01*
X75560Y-44857D02*
X78583Y-44857D01*
X81230Y-44857D02*
X82094Y-44857D01*
X82094Y-44857D02*
X82723Y-44857D01*
X59725Y-44937D02*
X69455Y-44937D01*
X71305Y-44937D02*
X72449Y-44937D01*
X75560Y-44937D02*
X78503Y-44937D01*
X81150Y-44937D02*
X82094Y-44937D01*
X82094Y-44937D02*
X82723Y-44937D01*
X59725Y-45017D02*
X69454Y-45017D01*
X71304Y-45017D02*
X72448Y-45017D01*
X75560Y-45017D02*
X78423Y-45017D01*
X81070Y-45017D02*
X82094Y-45017D01*
X82094Y-45017D02*
X82723Y-45017D01*
X59725Y-45097D02*
X69454Y-45097D01*
X71304Y-45097D02*
X72448Y-45097D01*
X75560Y-45097D02*
X78343Y-45097D01*
X80990Y-45097D02*
X82094Y-45097D01*
X82094Y-45097D02*
X82722Y-45097D01*
X59725Y-45177D02*
X69461Y-45177D01*
X71298Y-45177D02*
X72464Y-45177D01*
X75927Y-45177D02*
X78263Y-45177D01*
X80910Y-45177D02*
X82094Y-45177D01*
X82094Y-45177D02*
X82722Y-45177D01*
X59725Y-45257D02*
X69494Y-45257D01*
X71265Y-45257D02*
X72497Y-45257D01*
X76120Y-45257D02*
X78183Y-45257D01*
X80830Y-45257D02*
X82094Y-45257D01*
X82094Y-45257D02*
X82722Y-45257D01*
X59726Y-45337D02*
X69527Y-45337D01*
X71232Y-45337D02*
X72530Y-45337D01*
X76228Y-45337D02*
X78103Y-45337D01*
X80750Y-45337D02*
X82094Y-45337D01*
X82094Y-45337D02*
X82722Y-45337D01*
X59726Y-45417D02*
X69560Y-45417D01*
X71199Y-45417D02*
X72563Y-45417D01*
X76307Y-45417D02*
X78023Y-45417D01*
X80670Y-45417D02*
X82094Y-45417D01*
X82094Y-45417D02*
X82722Y-45417D01*
X59726Y-45497D02*
X69578Y-45497D01*
X71182Y-45497D02*
X72563Y-45497D01*
X76387Y-45497D02*
X77943Y-45497D01*
X80590Y-45497D02*
X82094Y-45497D01*
X82094Y-45497D02*
X82722Y-45497D01*
X59726Y-45577D02*
X69544Y-45577D01*
X71215Y-45577D02*
X72529Y-45577D01*
X76425Y-45577D02*
X77863Y-45577D01*
X80510Y-45577D02*
X82094Y-45577D01*
X82094Y-45577D02*
X82722Y-45577D01*
X59726Y-45657D02*
X69511Y-45657D01*
X71248Y-45657D02*
X72496Y-45657D01*
X76458Y-45657D02*
X77783Y-45657D01*
X80430Y-45657D02*
X82094Y-45657D01*
X82094Y-45657D02*
X82722Y-45657D01*
X59726Y-45737D02*
X69478Y-45737D01*
X71281Y-45737D02*
X72463Y-45737D01*
X76491Y-45737D02*
X77703Y-45737D01*
X80350Y-45737D02*
X82094Y-45737D01*
X82094Y-45737D02*
X82721Y-45737D01*
X59726Y-45817D02*
X69455Y-45817D01*
X71305Y-45817D02*
X72449Y-45817D01*
X76517Y-45817D02*
X77623Y-45817D01*
X80270Y-45817D02*
X82094Y-45817D01*
X82094Y-45817D02*
X82721Y-45817D01*
X59726Y-45897D02*
X69455Y-45897D01*
X71305Y-45897D02*
X72449Y-45897D01*
X76519Y-45897D02*
X77489Y-45897D01*
X80190Y-45897D02*
X82094Y-45897D01*
X82094Y-45897D02*
X82721Y-45897D01*
X59726Y-45977D02*
X69455Y-45977D01*
X71305Y-45977D02*
X72448Y-45977D01*
X76521Y-45977D02*
X77310Y-45977D01*
X80110Y-45977D02*
X82094Y-45977D01*
X82094Y-45977D02*
X82721Y-45977D01*
X59726Y-46057D02*
X69454Y-46057D01*
X71304Y-46057D02*
X72448Y-46057D01*
X76517Y-46057D02*
X77230Y-46057D01*
X80030Y-46057D02*
X82094Y-46057D01*
X82094Y-46057D02*
X82721Y-46057D01*
X59726Y-46137D02*
X69454Y-46137D01*
X71304Y-46137D02*
X72448Y-46137D01*
X76788Y-46137D02*
X77149Y-46137D01*
X79950Y-46137D02*
X82094Y-46137D01*
X82094Y-46137D02*
X82721Y-46137D01*
X59727Y-46217D02*
X69477Y-46217D01*
X71282Y-46217D02*
X72480Y-46217D01*
X76945Y-46217D02*
X77083Y-46217D01*
X79870Y-46217D02*
X82094Y-46217D01*
X82094Y-46217D02*
X82721Y-46217D01*
X59727Y-46297D02*
X69510Y-46297D01*
X71249Y-46297D02*
X72514Y-46297D01*
X77024Y-46297D02*
X77050Y-46297D01*
X79790Y-46297D02*
X82094Y-46297D01*
X82094Y-46297D02*
X82720Y-46297D01*
X59727Y-46377D02*
X69544Y-46377D01*
X71215Y-46377D02*
X72547Y-46377D01*
X79710Y-46377D02*
X82094Y-46377D01*
X82094Y-46377D02*
X82720Y-46377D01*
X59727Y-46457D02*
X69577Y-46457D01*
X71182Y-46457D02*
X72579Y-46457D01*
X79630Y-46457D02*
X82094Y-46457D01*
X82094Y-46457D02*
X82720Y-46457D01*
X59727Y-46537D02*
X69561Y-46537D01*
X71198Y-46537D02*
X72546Y-46537D01*
X79550Y-46537D02*
X82094Y-46537D01*
X82094Y-46537D02*
X82720Y-46537D01*
X59727Y-46617D02*
X69528Y-46617D01*
X71231Y-46617D02*
X72513Y-46617D01*
X79470Y-46617D02*
X82094Y-46617D01*
X82094Y-46617D02*
X82720Y-46617D01*
X59727Y-46697D02*
X69495Y-46697D01*
X71264Y-46697D02*
X72479Y-46697D01*
X75061Y-46697D02*
X75376Y-46697D01*
X79390Y-46697D02*
X82094Y-46697D01*
X82094Y-46697D02*
X82720Y-46697D01*
X59727Y-46777D02*
X69461Y-46777D01*
X71297Y-46777D02*
X72449Y-46777D01*
X74613Y-46777D02*
X75854Y-46777D01*
X79310Y-46777D02*
X82094Y-46777D01*
X82094Y-46777D02*
X82720Y-46777D01*
X59727Y-46857D02*
X69455Y-46857D01*
X71305Y-46857D02*
X72449Y-46857D01*
X74693Y-46857D02*
X75854Y-46857D01*
X79230Y-46857D02*
X82094Y-46857D01*
X82094Y-46857D02*
X82720Y-46857D01*
X59727Y-46937D02*
X69455Y-46937D01*
X71305Y-46937D02*
X72449Y-46937D01*
X74773Y-46937D02*
X75854Y-46937D01*
X79150Y-46937D02*
X82094Y-46937D01*
X82094Y-46937D02*
X82719Y-46937D01*
X59728Y-47017D02*
X69454Y-47017D01*
X71304Y-47017D02*
X72448Y-47017D01*
X74835Y-47017D02*
X75854Y-47017D01*
X79070Y-47017D02*
X82094Y-47017D01*
X82094Y-47017D02*
X82719Y-47017D01*
X59728Y-47097D02*
X69454Y-47097D01*
X71304Y-47097D02*
X72448Y-47097D01*
X74888Y-47097D02*
X75854Y-47097D01*
X78990Y-47097D02*
X82094Y-47097D01*
X82094Y-47097D02*
X82719Y-47097D01*
X59728Y-47177D02*
X69461Y-47177D01*
X71298Y-47177D02*
X72464Y-47177D01*
X74942Y-47177D02*
X75854Y-47177D01*
X78910Y-47177D02*
X82094Y-47177D01*
X82094Y-47177D02*
X82719Y-47177D01*
X59728Y-47257D02*
X68706Y-47257D01*
X71265Y-47257D02*
X72497Y-47257D01*
X74968Y-47257D02*
X75873Y-47257D01*
X77194Y-47257D02*
X77239Y-47257D01*
X78830Y-47257D02*
X82094Y-47257D01*
X82094Y-47257D02*
X82719Y-47257D01*
X59728Y-47337D02*
X68516Y-47337D01*
X71232Y-47337D02*
X72530Y-47337D01*
X74984Y-47337D02*
X75906Y-47337D01*
X77161Y-47337D02*
X77275Y-47337D01*
X78796Y-47337D02*
X82094Y-47337D01*
X82094Y-47337D02*
X82719Y-47337D01*
X59728Y-47417D02*
X68434Y-47417D01*
X71199Y-47417D02*
X72563Y-47417D01*
X75000Y-47417D02*
X75939Y-47417D01*
X77128Y-47417D02*
X77275Y-47417D01*
X78763Y-47417D02*
X82094Y-47417D01*
X82094Y-47417D02*
X82719Y-47417D01*
X59728Y-47497D02*
X68354Y-47497D01*
X71182Y-47497D02*
X72563Y-47497D01*
X75012Y-47497D02*
X75994Y-47497D01*
X77074Y-47497D02*
X77241Y-47497D01*
X78767Y-47497D02*
X82094Y-47497D01*
X82094Y-47497D02*
X82718Y-47497D01*
X59728Y-47577D02*
X68278Y-47577D01*
X71215Y-47577D02*
X72529Y-47577D01*
X75012Y-47577D02*
X76074Y-47577D01*
X76993Y-47577D02*
X77208Y-47577D01*
X78801Y-47577D02*
X82094Y-47577D01*
X82094Y-47577D02*
X82718Y-47577D01*
X59728Y-47657D02*
X68244Y-47657D01*
X71248Y-47657D02*
X72496Y-47657D01*
X75012Y-47657D02*
X76161Y-47657D01*
X76907Y-47657D02*
X77197Y-47657D01*
X78812Y-47657D02*
X82094Y-47657D01*
X82094Y-47657D02*
X82718Y-47657D01*
X59728Y-47737D02*
X68211Y-47737D01*
X71281Y-47737D02*
X72463Y-47737D01*
X75012Y-47737D02*
X76353Y-47737D01*
X76713Y-47737D02*
X77197Y-47737D01*
X78812Y-47737D02*
X82094Y-47737D01*
X82094Y-47737D02*
X82718Y-47737D01*
X59728Y-47817D02*
X68178Y-47817D01*
X71305Y-47817D02*
X72449Y-47817D01*
X75012Y-47817D02*
X77197Y-47817D01*
X78812Y-47817D02*
X82094Y-47817D01*
X82094Y-47817D02*
X82718Y-47817D01*
X59729Y-47897D02*
X68155Y-47897D01*
X71305Y-47897D02*
X72449Y-47897D01*
X75012Y-47897D02*
X77197Y-47897D01*
X78812Y-47897D02*
X82094Y-47897D01*
X82094Y-47897D02*
X82718Y-47897D01*
X59729Y-47977D02*
X68155Y-47977D01*
X71305Y-47977D02*
X72448Y-47977D01*
X75012Y-47977D02*
X77218Y-47977D01*
X78791Y-47977D02*
X82094Y-47977D01*
X82094Y-47977D02*
X82718Y-47977D01*
X59729Y-48057D02*
X68154Y-48057D01*
X71304Y-48057D02*
X72448Y-48057D01*
X75012Y-48057D02*
X77251Y-48057D01*
X78758Y-48057D02*
X82094Y-48057D01*
X82094Y-48057D02*
X82717Y-48057D01*
X59729Y-48137D02*
X68154Y-48137D01*
X71304Y-48137D02*
X72448Y-48137D01*
X75012Y-48137D02*
X77284Y-48137D01*
X78724Y-48137D02*
X82094Y-48137D01*
X82094Y-48137D02*
X82717Y-48137D01*
X59729Y-48217D02*
X68161Y-48217D01*
X71282Y-48217D02*
X72480Y-48217D01*
X75012Y-48217D02*
X77318Y-48217D01*
X78691Y-48217D02*
X82094Y-48217D01*
X82094Y-48217D02*
X82717Y-48217D01*
X59729Y-48297D02*
X68194Y-48297D01*
X71249Y-48297D02*
X72514Y-48297D01*
X75012Y-48297D02*
X77395Y-48297D01*
X78615Y-48297D02*
X82094Y-48297D01*
X82094Y-48297D02*
X82717Y-48297D01*
X59729Y-48377D02*
X68227Y-48377D01*
X71215Y-48377D02*
X72547Y-48377D01*
X75012Y-48377D02*
X77474Y-48377D01*
X78534Y-48377D02*
X82094Y-48377D01*
X82094Y-48377D02*
X82717Y-48377D01*
X59729Y-48457D02*
X68260Y-48457D01*
X71182Y-48457D02*
X72580Y-48457D01*
X75012Y-48457D02*
X77565Y-48457D01*
X78444Y-48457D02*
X82094Y-48457D01*
X82094Y-48457D02*
X82717Y-48457D01*
X59729Y-48537D02*
X68312Y-48537D01*
X71129Y-48537D02*
X72610Y-48537D01*
X75012Y-48537D02*
X77758Y-48537D01*
X78251Y-48537D02*
X82094Y-48537D01*
X82094Y-48537D02*
X82717Y-48537D01*
X59729Y-48617D02*
X68392Y-48617D01*
X71049Y-48617D02*
X72610Y-48617D01*
X75012Y-48617D02*
X82094Y-48617D01*
X82094Y-48617D02*
X82717Y-48617D01*
X59730Y-48697D02*
X68472Y-48697D01*
X70969Y-48697D02*
X72610Y-48697D01*
X75012Y-48697D02*
X82094Y-48697D01*
X82094Y-48697D02*
X82716Y-48697D01*
X59730Y-48777D02*
X68608Y-48777D01*
X70868Y-48777D02*
X72526Y-48777D01*
X75012Y-48777D02*
X82094Y-48777D01*
X82094Y-48777D02*
X82716Y-48777D01*
X59730Y-48857D02*
X68801Y-48857D01*
X69158Y-48857D02*
X70084Y-48857D01*
X70674Y-48857D02*
X72321Y-48857D01*
X75012Y-48857D02*
X82094Y-48857D01*
X82094Y-48857D02*
X82716Y-48857D01*
X59730Y-48937D02*
X72177Y-48937D01*
X75012Y-48937D02*
X82094Y-48937D01*
X82094Y-48937D02*
X82716Y-48937D01*
X59730Y-49017D02*
X72088Y-49017D01*
X75012Y-49017D02*
X82094Y-49017D01*
X82094Y-49017D02*
X82716Y-49017D01*
X59730Y-49097D02*
X72011Y-49097D01*
X75012Y-49097D02*
X82094Y-49097D01*
X82094Y-49097D02*
X82716Y-49097D01*
X59730Y-49177D02*
X71963Y-49177D01*
X75012Y-49177D02*
X82094Y-49177D01*
X82094Y-49177D02*
X82716Y-49177D01*
X59730Y-49257D02*
X71935Y-49257D01*
X75012Y-49257D02*
X82094Y-49257D01*
X82094Y-49257D02*
X82715Y-49257D01*
X59730Y-49337D02*
X71903Y-49337D01*
X75029Y-49337D02*
X82094Y-49337D01*
X82094Y-49337D02*
X82715Y-49337D01*
X59730Y-49417D02*
X71880Y-49417D01*
X75062Y-49417D02*
X82094Y-49417D01*
X82094Y-49417D02*
X82715Y-49417D01*
X59730Y-49497D02*
X71863Y-49497D01*
X75091Y-49497D02*
X82094Y-49497D01*
X82094Y-49497D02*
X82715Y-49497D01*
X59731Y-49577D02*
X71845Y-49577D01*
X75091Y-49577D02*
X82094Y-49577D01*
X82094Y-49577D02*
X82715Y-49577D01*
X59731Y-49657D02*
X71828Y-49657D01*
X75091Y-49657D02*
X82094Y-49657D01*
X82094Y-49657D02*
X82715Y-49657D01*
X59731Y-49737D02*
X71782Y-49737D01*
X75091Y-49737D02*
X82094Y-49737D01*
X82094Y-49737D02*
X82715Y-49737D01*
X59731Y-49817D02*
X71742Y-49817D01*
X75088Y-49817D02*
X82094Y-49817D01*
X82094Y-49817D02*
X82715Y-49817D01*
X59731Y-49897D02*
X71708Y-49897D01*
X75054Y-49897D02*
X82094Y-49897D01*
X82094Y-49897D02*
X82714Y-49897D01*
X59731Y-49977D02*
X71675Y-49977D01*
X73545Y-49977D02*
X73546Y-49977D01*
X75021Y-49977D02*
X82094Y-49977D01*
X82094Y-49977D02*
X82714Y-49977D01*
X59731Y-50057D02*
X71646Y-50057D01*
X73300Y-50057D02*
X73579Y-50057D01*
X74988Y-50057D02*
X82094Y-50057D01*
X82094Y-50057D02*
X82714Y-50057D01*
X59731Y-50137D02*
X71646Y-50137D01*
X73261Y-50137D02*
X73631Y-50137D01*
X74937Y-50137D02*
X82094Y-50137D01*
X82094Y-50137D02*
X82714Y-50137D01*
X59731Y-50217D02*
X71646Y-50217D01*
X73261Y-50217D02*
X73711Y-50217D01*
X74856Y-50217D02*
X82094Y-50217D01*
X82094Y-50217D02*
X82714Y-50217D01*
X59731Y-50297D02*
X71646Y-50297D01*
X73261Y-50297D02*
X73790Y-50297D01*
X74776Y-50297D02*
X82094Y-50297D01*
X82094Y-50297D02*
X82714Y-50297D01*
X59732Y-50377D02*
X71650Y-50377D01*
X73258Y-50377D02*
X73933Y-50377D01*
X74634Y-50377D02*
X82094Y-50377D01*
X82094Y-50377D02*
X82714Y-50377D01*
X59732Y-50457D02*
X71683Y-50457D01*
X73224Y-50457D02*
X82094Y-50457D01*
X82094Y-50457D02*
X82713Y-50457D01*
X59732Y-50537D02*
X71716Y-50537D01*
X73191Y-50537D02*
X82094Y-50537D01*
X82094Y-50537D02*
X82713Y-50537D01*
X59732Y-50617D02*
X71749Y-50617D01*
X73158Y-50617D02*
X82094Y-50617D01*
X82094Y-50617D02*
X82713Y-50617D01*
X59732Y-50697D02*
X71801Y-50697D01*
X73107Y-50697D02*
X82094Y-50697D01*
X82094Y-50697D02*
X82713Y-50697D01*
X59732Y-50777D02*
X71881Y-50777D01*
X73026Y-50777D02*
X82094Y-50777D01*
X82094Y-50777D02*
X82713Y-50777D01*
X59732Y-50857D02*
X71960Y-50857D01*
X72946Y-50857D02*
X82094Y-50857D01*
X82094Y-50857D02*
X82713Y-50857D01*
X59732Y-50937D02*
X63847Y-50937D01*
X64313Y-50937D02*
X72103Y-50937D01*
X72804Y-50937D02*
X82094Y-50937D01*
X82094Y-50937D02*
X82713Y-50937D01*
X59732Y-51017D02*
X63653Y-51017D01*
X64506Y-51017D02*
X82094Y-51017D01*
X82094Y-51017D02*
X82712Y-51017D01*
X59732Y-51097D02*
X63496Y-51097D01*
X64663Y-51097D02*
X82094Y-51097D01*
X82094Y-51097D02*
X82712Y-51097D01*
X59732Y-51177D02*
X63416Y-51177D01*
X64743Y-51177D02*
X82094Y-51177D01*
X82094Y-51177D02*
X82712Y-51177D01*
X59733Y-51257D02*
X63336Y-51257D01*
X64823Y-51257D02*
X82094Y-51257D01*
X82094Y-51257D02*
X82712Y-51257D01*
X59733Y-51337D02*
X63256Y-51337D01*
X64903Y-51337D02*
X82094Y-51337D01*
X82094Y-51337D02*
X82712Y-51337D01*
X59733Y-51417D02*
X63217Y-51417D01*
X64943Y-51417D02*
X82094Y-51417D01*
X82094Y-51417D02*
X82712Y-51417D01*
X59733Y-51497D02*
X63183Y-51497D01*
X64976Y-51497D02*
X82094Y-51497D01*
X82094Y-51497D02*
X82712Y-51497D01*
X59733Y-51577D02*
X63150Y-51577D01*
X65009Y-51577D02*
X82094Y-51577D01*
X82094Y-51577D02*
X82712Y-51577D01*
X59733Y-51657D02*
X63117Y-51657D01*
X65042Y-51657D02*
X82094Y-51657D01*
X82094Y-51657D02*
X82711Y-51657D01*
X59733Y-51737D02*
X63095Y-51737D01*
X65064Y-51737D02*
X82094Y-51737D01*
X82094Y-51737D02*
X82711Y-51737D01*
X59733Y-51817D02*
X63095Y-51817D01*
X65064Y-51817D02*
X82094Y-51817D01*
X82094Y-51817D02*
X82711Y-51817D01*
X59733Y-51897D02*
X63095Y-51897D01*
X65064Y-51897D02*
X82094Y-51897D01*
X82094Y-51897D02*
X82711Y-51897D01*
X59733Y-51977D02*
X63095Y-51977D01*
X65064Y-51977D02*
X82094Y-51977D01*
X82094Y-51977D02*
X82711Y-51977D01*
X59734Y-52057D02*
X63095Y-52057D01*
X65064Y-52057D02*
X82094Y-52057D01*
X82094Y-52057D02*
X82711Y-52057D01*
X59734Y-52137D02*
X63110Y-52137D01*
X65050Y-52137D02*
X82094Y-52137D01*
X82094Y-52137D02*
X82711Y-52137D01*
X59734Y-52217D02*
X63143Y-52217D01*
X65016Y-52217D02*
X82094Y-52217D01*
X82094Y-52217D02*
X82710Y-52217D01*
X59734Y-52297D02*
X63176Y-52297D01*
X64983Y-52297D02*
X82094Y-52297D01*
X82094Y-52297D02*
X82710Y-52297D01*
X59734Y-52377D02*
X63209Y-52377D01*
X64950Y-52377D02*
X82094Y-52377D01*
X82094Y-52377D02*
X82710Y-52377D01*
X59734Y-52457D02*
X63242Y-52457D01*
X64917Y-52457D02*
X82094Y-52457D01*
X82094Y-52457D02*
X82710Y-52457D01*
X59734Y-52537D02*
X63318Y-52537D01*
X64841Y-52537D02*
X82094Y-52537D01*
X82094Y-52537D02*
X82710Y-52537D01*
X59734Y-52617D02*
X63398Y-52617D01*
X64761Y-52617D02*
X82094Y-52617D01*
X82094Y-52617D02*
X82710Y-52617D01*
X59734Y-52697D02*
X63478Y-52697D01*
X64681Y-52697D02*
X73635Y-52697D01*
X74320Y-52697D02*
X75367Y-52697D01*
X76052Y-52697D02*
X82094Y-52697D01*
X82094Y-52697D02*
X82710Y-52697D01*
X59734Y-52777D02*
X63610Y-52777D01*
X64550Y-52777D02*
X73475Y-52777D01*
X74481Y-52777D02*
X75207Y-52777D01*
X76213Y-52777D02*
X82094Y-52777D01*
X82094Y-52777D02*
X82710Y-52777D01*
X59734Y-52857D02*
X63508Y-52857D01*
X64651Y-52857D02*
X73395Y-52857D01*
X74560Y-52857D02*
X75127Y-52857D01*
X76292Y-52857D02*
X82094Y-52857D01*
X82094Y-52857D02*
X82709Y-52857D01*
X59735Y-52937D02*
X63428Y-52937D01*
X64731Y-52937D02*
X73315Y-52937D01*
X74640Y-52937D02*
X75047Y-52937D01*
X76372Y-52937D02*
X82094Y-52937D01*
X82094Y-52937D02*
X82709Y-52937D01*
X59735Y-53017D02*
X63348Y-53017D01*
X64811Y-53017D02*
X73249Y-53017D01*
X74706Y-53017D02*
X74981Y-53017D01*
X76438Y-53017D02*
X82094Y-53017D01*
X82094Y-53017D02*
X82709Y-53017D01*
X59735Y-53097D02*
X63268Y-53097D01*
X64891Y-53097D02*
X73216Y-53097D01*
X74739Y-53097D02*
X74948Y-53097D01*
X76471Y-53097D02*
X82094Y-53097D01*
X82094Y-53097D02*
X82709Y-53097D01*
X59735Y-53177D02*
X63222Y-53177D01*
X64938Y-53177D02*
X73183Y-53177D01*
X74772Y-53177D02*
X74915Y-53177D01*
X76504Y-53177D02*
X82094Y-53177D01*
X82094Y-53177D02*
X82709Y-53177D01*
X59735Y-53257D02*
X63188Y-53257D01*
X64971Y-53257D02*
X73150Y-53257D01*
X74805Y-53257D02*
X74882Y-53257D01*
X76537Y-53257D02*
X82094Y-53257D01*
X82094Y-53257D02*
X82709Y-53257D01*
X59735Y-53337D02*
X63155Y-53337D01*
X65004Y-53337D02*
X73131Y-53337D01*
X74825Y-53337D02*
X74825Y-53337D01*
X74825Y-53337D02*
X74863Y-53337D01*
X76557Y-53337D02*
X76557Y-53337D01*
X76557Y-53337D02*
X82094Y-53337D01*
X82094Y-53337D02*
X82709Y-53337D01*
X59735Y-53417D02*
X63122Y-53417D01*
X65037Y-53417D02*
X73131Y-53417D01*
X74825Y-53417D02*
X74825Y-53417D01*
X74825Y-53417D02*
X74863Y-53417D01*
X76557Y-53417D02*
X76557Y-53417D01*
X76557Y-53417D02*
X82094Y-53417D01*
X82094Y-53417D02*
X82708Y-53417D01*
X59735Y-53497D02*
X63095Y-53497D01*
X65064Y-53497D02*
X65064Y-53497D01*
X65064Y-53497D02*
X73130Y-53497D01*
X74824Y-53497D02*
X74825Y-53497D01*
X74825Y-53497D02*
X74862Y-53497D01*
X76556Y-53497D02*
X76557Y-53497D01*
X76557Y-53497D02*
X82094Y-53497D01*
X82094Y-53497D02*
X82708Y-53497D01*
X59735Y-53577D02*
X63095Y-53577D01*
X65064Y-53577D02*
X65064Y-53577D01*
X65064Y-53577D02*
X73130Y-53577D01*
X74824Y-53577D02*
X74825Y-53577D01*
X74825Y-53577D02*
X74862Y-53577D01*
X76556Y-53577D02*
X76557Y-53577D01*
X76557Y-53577D02*
X82094Y-53577D01*
X82094Y-53577D02*
X82708Y-53577D01*
X59735Y-53657D02*
X63095Y-53657D01*
X65064Y-53657D02*
X65064Y-53657D01*
X65064Y-53657D02*
X73137Y-53657D01*
X74818Y-53657D02*
X74825Y-53657D01*
X74825Y-53657D02*
X74869Y-53657D01*
X76550Y-53657D02*
X76557Y-53657D01*
X76557Y-53657D02*
X82094Y-53657D01*
X82094Y-53657D02*
X82708Y-53657D01*
X59736Y-53737D02*
X63095Y-53737D01*
X65064Y-53737D02*
X65064Y-53737D01*
X65064Y-53737D02*
X73171Y-53737D01*
X74785Y-53737D02*
X74825Y-53737D01*
X74825Y-53737D02*
X74903Y-53737D01*
X76517Y-53737D02*
X76557Y-53737D01*
X76557Y-53737D02*
X82094Y-53737D01*
X82094Y-53737D02*
X82708Y-53737D01*
X59736Y-53817D02*
X63095Y-53817D01*
X65064Y-53817D02*
X65064Y-53817D01*
X65064Y-53817D02*
X73204Y-53817D01*
X74751Y-53817D02*
X74825Y-53817D01*
X74825Y-53817D02*
X74936Y-53817D01*
X76483Y-53817D02*
X76557Y-53817D01*
X76557Y-53817D02*
X82094Y-53817D01*
X82094Y-53817D02*
X82708Y-53817D01*
X59736Y-53897D02*
X63105Y-53897D01*
X65055Y-53897D02*
X65064Y-53897D01*
X65064Y-53897D02*
X73237Y-53897D01*
X74718Y-53897D02*
X74825Y-53897D01*
X74825Y-53897D02*
X74969Y-53897D01*
X76450Y-53897D02*
X76557Y-53897D01*
X76557Y-53897D02*
X82094Y-53897D01*
X82094Y-53897D02*
X82708Y-53897D01*
X59736Y-53977D02*
X63138Y-53977D01*
X65021Y-53977D02*
X65064Y-53977D01*
X65064Y-53977D02*
X73285Y-53977D01*
X74671Y-53977D02*
X74825Y-53977D01*
X74825Y-53977D02*
X75017Y-53977D01*
X76403Y-53977D02*
X76557Y-53977D01*
X76557Y-53977D02*
X82094Y-53977D01*
X82094Y-53977D02*
X82707Y-53977D01*
X59736Y-54057D02*
X63171Y-54057D01*
X64988Y-54057D02*
X65064Y-54057D01*
X65064Y-54057D02*
X73365Y-54057D01*
X74590Y-54057D02*
X74825Y-54057D01*
X74825Y-54057D02*
X75097Y-54057D01*
X76322Y-54057D02*
X76557Y-54057D01*
X76557Y-54057D02*
X82094Y-54057D01*
X82094Y-54057D02*
X82707Y-54057D01*
X59736Y-54137D02*
X63204Y-54137D01*
X64955Y-54137D02*
X65064Y-54137D01*
X65064Y-54137D02*
X73445Y-54137D01*
X74510Y-54137D02*
X74825Y-54137D01*
X74825Y-54137D02*
X75177Y-54137D01*
X76242Y-54137D02*
X76557Y-54137D01*
X76557Y-54137D02*
X82094Y-54137D01*
X82094Y-54137D02*
X82707Y-54137D01*
X59736Y-54217D02*
X63237Y-54217D01*
X64922Y-54217D02*
X65064Y-54217D01*
X65064Y-54217D02*
X73563Y-54217D01*
X74392Y-54217D02*
X74825Y-54217D01*
X74825Y-54217D02*
X75295Y-54217D01*
X76124Y-54217D02*
X76557Y-54217D01*
X76557Y-54217D02*
X82094Y-54217D01*
X82094Y-54217D02*
X82707Y-54217D01*
X59736Y-54297D02*
X63306Y-54297D01*
X64853Y-54297D02*
X65064Y-54297D01*
X65064Y-54297D02*
X73756Y-54297D01*
X74199Y-54297D02*
X74825Y-54297D01*
X74825Y-54297D02*
X75488Y-54297D01*
X75931Y-54297D02*
X76557Y-54297D01*
X76557Y-54297D02*
X82094Y-54297D01*
X82094Y-54297D02*
X82707Y-54297D01*
X59736Y-54377D02*
X63386Y-54377D01*
X64773Y-54377D02*
X65064Y-54377D01*
X65064Y-54377D02*
X74825Y-54377D01*
X74825Y-54377D02*
X76557Y-54377D01*
X76557Y-54377D02*
X82094Y-54377D01*
X82094Y-54377D02*
X82707Y-54377D01*
X59736Y-54457D02*
X63466Y-54457D01*
X64693Y-54457D02*
X65064Y-54457D01*
X65064Y-54457D02*
X74825Y-54457D01*
X74825Y-54457D02*
X76557Y-54457D01*
X76557Y-54457D02*
X82094Y-54457D01*
X82094Y-54457D02*
X82707Y-54457D01*
X59736Y-54537D02*
X63581Y-54537D01*
X64579Y-54537D02*
X65064Y-54537D01*
X65064Y-54537D02*
X74825Y-54537D01*
X74825Y-54537D02*
X76557Y-54537D01*
X76557Y-54537D02*
X82094Y-54537D01*
X82094Y-54537D02*
X82707Y-54537D01*
X59737Y-54617D02*
X63774Y-54617D01*
X64385Y-54617D02*
X65064Y-54617D01*
X65064Y-54617D02*
X74825Y-54617D01*
X74825Y-54617D02*
X76557Y-54617D01*
X76557Y-54617D02*
X82094Y-54617D01*
X82094Y-54617D02*
X82706Y-54617D01*
X59737Y-54697D02*
X65064Y-54697D01*
X65064Y-54697D02*
X74825Y-54697D01*
X74825Y-54697D02*
X76557Y-54697D01*
X76557Y-54697D02*
X82094Y-54697D01*
X82094Y-54697D02*
X82706Y-54697D01*
X59737Y-54777D02*
X65064Y-54777D01*
X65064Y-54777D02*
X74825Y-54777D01*
X74825Y-54777D02*
X76557Y-54777D01*
X76557Y-54777D02*
X82094Y-54777D01*
X82094Y-54777D02*
X82706Y-54777D01*
X59737Y-54857D02*
X65064Y-54857D01*
X65064Y-54857D02*
X74825Y-54857D01*
X74825Y-54857D02*
X76557Y-54857D01*
X76557Y-54857D02*
X82094Y-54857D01*
X82094Y-54857D02*
X82706Y-54857D01*
X59737Y-54937D02*
X65064Y-54937D01*
X65064Y-54937D02*
X74825Y-54937D01*
X74825Y-54937D02*
X76557Y-54937D01*
X76557Y-54937D02*
X82094Y-54937D01*
X82094Y-54937D02*
X82706Y-54937D01*
X59737Y-55017D02*
X65064Y-55017D01*
X65064Y-55017D02*
X74825Y-55017D01*
X74825Y-55017D02*
X76557Y-55017D01*
X76557Y-55017D02*
X82094Y-55017D01*
X82094Y-55017D02*
X82706Y-55017D01*
X59737Y-55097D02*
X65064Y-55097D01*
X65064Y-55097D02*
X74825Y-55097D01*
X74825Y-55097D02*
X76557Y-55097D01*
X76557Y-55097D02*
X82094Y-55097D01*
X82094Y-55097D02*
X82706Y-55097D01*
X59737Y-55177D02*
X65064Y-55177D01*
X65064Y-55177D02*
X74825Y-55177D01*
X74825Y-55177D02*
X76557Y-55177D01*
X76557Y-55177D02*
X82094Y-55177D01*
X82094Y-55177D02*
X82705Y-55177D01*
X59737Y-55257D02*
X65064Y-55257D01*
X65064Y-55257D02*
X74825Y-55257D01*
X74825Y-55257D02*
X76557Y-55257D01*
X76557Y-55257D02*
X82094Y-55257D01*
X82094Y-55257D02*
X82705Y-55257D01*
X59737Y-55337D02*
X65064Y-55337D01*
X65064Y-55337D02*
X74825Y-55337D01*
X74825Y-55337D02*
X76557Y-55337D01*
X76557Y-55337D02*
X82094Y-55337D01*
X82094Y-55337D02*
X82705Y-55337D01*
X59737Y-55417D02*
X65064Y-55417D01*
X65064Y-55417D02*
X74825Y-55417D01*
X74825Y-55417D02*
X76557Y-55417D01*
X76557Y-55417D02*
X82094Y-55417D01*
X82094Y-55417D02*
X82705Y-55417D01*
X59738Y-55497D02*
X65064Y-55497D01*
X65064Y-55497D02*
X74825Y-55497D01*
X74825Y-55497D02*
X76557Y-55497D01*
X76557Y-55497D02*
X82094Y-55497D01*
X82094Y-55497D02*
X82705Y-55497D01*
X59738Y-55577D02*
X65064Y-55577D01*
X65064Y-55577D02*
X74825Y-55577D01*
X74825Y-55577D02*
X76557Y-55577D01*
X76557Y-55577D02*
X82094Y-55577D01*
X82094Y-55577D02*
X82705Y-55577D01*
X59738Y-55657D02*
X65064Y-55657D01*
X65064Y-55657D02*
X74825Y-55657D01*
X74825Y-55657D02*
X76557Y-55657D01*
X76557Y-55657D02*
X82094Y-55657D01*
X82094Y-55657D02*
X82705Y-55657D01*
X59738Y-55737D02*
X65064Y-55737D01*
X65064Y-55737D02*
X74825Y-55737D01*
X74825Y-55737D02*
X76557Y-55737D01*
X76557Y-55737D02*
X82094Y-55737D01*
X82094Y-55737D02*
X82705Y-55737D01*
X59738Y-55817D02*
X65064Y-55817D01*
X65064Y-55817D02*
X74825Y-55817D01*
X74825Y-55817D02*
X76557Y-55817D01*
X76557Y-55817D02*
X82094Y-55817D01*
X82094Y-55817D02*
X82704Y-55817D01*
X59738Y-55897D02*
X65064Y-55897D01*
X65064Y-55897D02*
X74825Y-55897D01*
X74825Y-55897D02*
X76557Y-55897D01*
X76557Y-55897D02*
X82094Y-55897D01*
X82094Y-55897D02*
X82704Y-55897D01*
X59738Y-55977D02*
X65064Y-55977D01*
X65064Y-55977D02*
X74825Y-55977D01*
X74825Y-55977D02*
X76557Y-55977D01*
X76557Y-55977D02*
X82094Y-55977D01*
X82094Y-55977D02*
X82704Y-55977D01*
X59738Y-56057D02*
X65064Y-56057D01*
X65064Y-56057D02*
X74825Y-56057D01*
X74825Y-56057D02*
X76557Y-56057D01*
X76557Y-56057D02*
X82094Y-56057D01*
X82094Y-56057D02*
X82704Y-56057D01*
X59738Y-56137D02*
X65064Y-56137D01*
X65064Y-56137D02*
X74825Y-56137D01*
X74825Y-56137D02*
X76557Y-56137D01*
X76557Y-56137D02*
X82094Y-56137D01*
X82094Y-56137D02*
X82704Y-56137D01*
X61007Y-56217D02*
X65064Y-56217D01*
X65064Y-56217D02*
X74825Y-56217D01*
X74825Y-56217D02*
X76557Y-56217D01*
X76557Y-56217D02*
X82094Y-56217D01*
X82094Y-56217D02*
X82704Y-56217D01*
X70456Y-41989D02*
X70386Y-42059D01*
X70384Y-42059D01*
X70380Y-42054D01*
X70375Y-42058D01*
X70373Y-42058D01*
X70303Y-41989D01*
X70309Y-41984D01*
X70303Y-41978D01*
X70373Y-41908D01*
X70375Y-41908D01*
X70380Y-41913D01*
X70384Y-41909D01*
X70386Y-41909D01*
X70456Y-41978D01*
X70450Y-41984D01*
X70456Y-41989D01*
X70373Y-41908D02*
X70373Y-41908D01*
X70304Y-41988D02*
X70455Y-41988D01*
X73361Y-43886D02*
X73361Y-43886D01*
X73303Y-43966D02*
X73444Y-43966D01*
X59711Y-32697D02*
X82743Y-32697D01*
X59711Y-32777D02*
X82743Y-32777D01*
X59711Y-32857D02*
X82743Y-32857D01*
X59711Y-32937D02*
X82743Y-32937D01*
X59711Y-33017D02*
X82743Y-33017D01*
X59711Y-33097D02*
X82743Y-33097D01*
X59711Y-33177D02*
X82743Y-33177D01*
X59711Y-33257D02*
X82742Y-33257D01*
X59711Y-33337D02*
X82742Y-33337D01*
X59711Y-33417D02*
X82742Y-33417D01*
X59712Y-33497D02*
X82742Y-33497D01*
X59712Y-33577D02*
X82742Y-33577D01*
X59712Y-33657D02*
X82742Y-33657D01*
X59712Y-33737D02*
X82742Y-33737D01*
X59712Y-33817D02*
X82742Y-33817D01*
X59712Y-33897D02*
X82741Y-33897D01*
X59712Y-33977D02*
X82741Y-33977D01*
X59712Y-34057D02*
X73128Y-34057D01*
X73612Y-34057D02*
X82741Y-34057D01*
X59712Y-34137D02*
X65388Y-34137D01*
X70972Y-34137D02*
X72934Y-34137D01*
X73804Y-34137D02*
X82741Y-34137D01*
X59712Y-34217D02*
X65045Y-34217D01*
X71668Y-34217D02*
X72803Y-34217D01*
X73937Y-34217D02*
X74277Y-34217D01*
X74934Y-34217D02*
X82741Y-34217D01*
X59712Y-34297D02*
X64925Y-34297D01*
X71862Y-34297D02*
X72722Y-34297D01*
X75090Y-34297D02*
X82741Y-34297D01*
X59713Y-34377D02*
X64805Y-34377D01*
X71982Y-34377D02*
X72642Y-34377D01*
X75169Y-34377D02*
X82741Y-34377D01*
X59713Y-34457D02*
X64746Y-34457D01*
X72079Y-34457D02*
X72576Y-34457D01*
X75249Y-34457D02*
X82740Y-34457D01*
X59713Y-34537D02*
X64692Y-34537D01*
X72159Y-34537D02*
X72543Y-34537D01*
X75307Y-34537D02*
X78855Y-34537D01*
X79400Y-34537D02*
X82740Y-34537D01*
X59713Y-34617D02*
X64639Y-34617D01*
X72239Y-34617D02*
X72510Y-34617D01*
X75340Y-34617D02*
X78667Y-34617D01*
X81001Y-34617D02*
X82740Y-34617D01*
X59713Y-34697D02*
X64603Y-34697D01*
X72319Y-34697D02*
X72476Y-34697D01*
X75373Y-34697D02*
X78587Y-34697D01*
X81121Y-34697D02*
X82740Y-34697D01*
X59713Y-34777D02*
X64587Y-34777D01*
X72399Y-34777D02*
X72445Y-34777D01*
X75406Y-34777D02*
X78506Y-34777D01*
X81233Y-34777D02*
X82740Y-34777D01*
X59713Y-34857D02*
X64572Y-34857D01*
X75413Y-34857D02*
X78436Y-34857D01*
X81313Y-34857D02*
X82740Y-34857D01*
X59713Y-34937D02*
X64556Y-34937D01*
X75413Y-34937D02*
X78403Y-34937D01*
X81393Y-34937D02*
X82740Y-34937D01*
X59713Y-35017D02*
X64553Y-35017D01*
X75413Y-35017D02*
X78370Y-35017D01*
X81473Y-35017D02*
X82739Y-35017D01*
X59713Y-35097D02*
X64569Y-35097D01*
X75413Y-35097D02*
X78337Y-35097D01*
X81553Y-35097D02*
X82739Y-35097D01*
X59713Y-35177D02*
X64585Y-35177D01*
X75388Y-35177D02*
X78320Y-35177D01*
X81633Y-35177D02*
X82739Y-35177D01*
X59714Y-35257D02*
X64601Y-35257D01*
X75354Y-35257D02*
X78320Y-35257D01*
X81688Y-35257D02*
X82739Y-35257D01*
X59714Y-35337D02*
X64631Y-35337D01*
X75321Y-35337D02*
X78320Y-35337D01*
X81742Y-35337D02*
X82739Y-35337D01*
X59714Y-35417D02*
X64684Y-35417D01*
X75286Y-35417D02*
X78320Y-35417D01*
X81791Y-35417D02*
X82739Y-35417D01*
X59714Y-35497D02*
X64738Y-35497D01*
X75246Y-35497D02*
X78336Y-35497D01*
X81807Y-35497D02*
X82739Y-35497D01*
X59714Y-35577D02*
X64791Y-35577D01*
X75289Y-35577D02*
X77136Y-35577D01*
X77452Y-35577D02*
X78369Y-35577D01*
X81886Y-35577D02*
X82739Y-35577D01*
X59714Y-35657D02*
X64906Y-35657D01*
X75322Y-35657D02*
X76942Y-35657D01*
X77645Y-35657D02*
X78402Y-35657D01*
X81956Y-35657D02*
X82738Y-35657D01*
X59714Y-35737D02*
X65026Y-35737D01*
X75355Y-35737D02*
X76843Y-35737D01*
X77745Y-35737D02*
X78434Y-35737D01*
X81989Y-35737D02*
X82738Y-35737D01*
X59714Y-35817D02*
X65324Y-35817D01*
X75385Y-35817D02*
X76762Y-35817D01*
X77824Y-35817D02*
X78401Y-35817D01*
X82022Y-35817D02*
X82738Y-35817D01*
X59714Y-35897D02*
X69455Y-35897D01*
X75385Y-35897D02*
X76703Y-35897D01*
X77884Y-35897D02*
X78368Y-35897D01*
X82055Y-35897D02*
X82738Y-35897D01*
X59714Y-35977D02*
X69455Y-35977D01*
X75385Y-35977D02*
X76670Y-35977D01*
X77917Y-35977D02*
X78335Y-35977D01*
X82088Y-35977D02*
X82738Y-35977D01*
X59715Y-36057D02*
X69454Y-36057D01*
X75385Y-36057D02*
X76637Y-36057D01*
X77950Y-36057D02*
X78320Y-36057D01*
X82094Y-36057D02*
X82738Y-36057D01*
X59715Y-36137D02*
X69454Y-36137D01*
X75383Y-36137D02*
X76614Y-36137D01*
X77973Y-36137D02*
X78320Y-36137D01*
X82094Y-36137D02*
X82738Y-36137D01*
X59715Y-36217D02*
X69475Y-36217D01*
X75349Y-36217D02*
X76614Y-36217D01*
X77973Y-36217D02*
X78320Y-36217D01*
X82093Y-36217D02*
X82737Y-36217D01*
X59715Y-36297D02*
X69508Y-36297D01*
X75316Y-36297D02*
X76614Y-36297D01*
X77973Y-36297D02*
X78320Y-36297D01*
X82093Y-36297D02*
X82737Y-36297D01*
X59715Y-36377D02*
X69541Y-36377D01*
X75283Y-36377D02*
X76614Y-36377D01*
X77973Y-36377D02*
X78338Y-36377D01*
X82090Y-36377D02*
X82737Y-36377D01*
X59715Y-36457D02*
X69574Y-36457D01*
X75282Y-36457D02*
X76614Y-36457D01*
X77973Y-36457D02*
X77973Y-36457D01*
X77973Y-36457D02*
X78371Y-36457D01*
X82056Y-36457D02*
X82737Y-36457D01*
X59715Y-36537D02*
X69564Y-36537D01*
X75345Y-36537D02*
X76614Y-36537D01*
X77973Y-36537D02*
X77973Y-36537D01*
X77973Y-36537D02*
X78348Y-36537D01*
X82023Y-36537D02*
X82737Y-36537D01*
X59715Y-36617D02*
X69530Y-36617D01*
X75378Y-36617D02*
X76614Y-36617D01*
X77973Y-36617D02*
X77973Y-36617D01*
X77973Y-36617D02*
X78348Y-36617D01*
X81990Y-36617D02*
X82737Y-36617D01*
X59715Y-36697D02*
X69497Y-36697D01*
X75411Y-36697D02*
X76617Y-36697D01*
X77971Y-36697D02*
X77973Y-36697D01*
X77973Y-36697D02*
X78348Y-36697D01*
X81973Y-36697D02*
X82737Y-36697D01*
X59715Y-36777D02*
X69464Y-36777D01*
X75444Y-36777D02*
X76650Y-36777D01*
X77937Y-36777D02*
X77973Y-36777D01*
X77973Y-36777D02*
X78348Y-36777D01*
X82006Y-36777D02*
X82737Y-36777D01*
X59715Y-36857D02*
X69455Y-36857D01*
X75455Y-36857D02*
X76683Y-36857D01*
X77904Y-36857D02*
X77973Y-36857D01*
X77973Y-36857D02*
X78353Y-36857D01*
X82039Y-36857D02*
X82736Y-36857D01*
X59716Y-36937D02*
X69455Y-36937D01*
X75455Y-36937D02*
X76716Y-36937D01*
X77871Y-36937D02*
X77973Y-36937D01*
X77973Y-36937D02*
X78386Y-36937D01*
X82072Y-36937D02*
X82736Y-36937D01*
X59716Y-37017D02*
X69454Y-37017D01*
X75455Y-37017D02*
X76794Y-37017D01*
X77793Y-37017D02*
X77973Y-37017D01*
X77973Y-37017D02*
X78375Y-37017D01*
X82094Y-37017D02*
X82736Y-37017D01*
X59716Y-37097D02*
X69454Y-37097D01*
X75455Y-37097D02*
X76873Y-37097D01*
X77713Y-37097D02*
X77973Y-37097D01*
X77973Y-37097D02*
X78362Y-37097D01*
X82094Y-37097D02*
X82736Y-37097D01*
X59716Y-37177D02*
X69458Y-37177D01*
X75433Y-37177D02*
X77017Y-37177D01*
X77570Y-37177D02*
X77973Y-37177D01*
X77973Y-37177D02*
X78362Y-37177D01*
X82094Y-37177D02*
X82736Y-37177D01*
X59716Y-37257D02*
X69491Y-37257D01*
X75400Y-37257D02*
X77973Y-37257D01*
X77973Y-37257D02*
X78362Y-37257D01*
X82093Y-37257D02*
X82736Y-37257D01*
X59716Y-37337D02*
X69525Y-37337D01*
X75367Y-37337D02*
X77973Y-37337D01*
X77973Y-37337D02*
X78362Y-37337D01*
X82093Y-37337D02*
X82736Y-37337D01*
X59716Y-37417D02*
X69558Y-37417D01*
X75334Y-37417D02*
X77973Y-37417D01*
X77973Y-37417D02*
X78382Y-37417D01*
X82073Y-37417D02*
X82735Y-37417D01*
X59716Y-37497D02*
X69580Y-37497D01*
X75324Y-37497D02*
X77973Y-37497D01*
X77973Y-37497D02*
X78415Y-37497D01*
X82040Y-37497D02*
X82735Y-37497D01*
X59716Y-37577D02*
X69547Y-37577D01*
X75357Y-37577D02*
X77973Y-37577D01*
X77973Y-37577D02*
X78448Y-37577D01*
X82006Y-37577D02*
X82735Y-37577D01*
X59716Y-37657D02*
X69514Y-37657D01*
X75390Y-37657D02*
X77973Y-37657D01*
X77973Y-37657D02*
X78481Y-37657D01*
X81973Y-37657D02*
X82735Y-37657D01*
X59717Y-37737D02*
X69480Y-37737D01*
X75423Y-37737D02*
X77973Y-37737D01*
X77973Y-37737D02*
X78556Y-37737D01*
X81989Y-37737D02*
X82735Y-37737D01*
X59717Y-37817D02*
X69455Y-37817D01*
X75430Y-37817D02*
X77973Y-37817D01*
X77973Y-37817D02*
X78572Y-37817D01*
X82022Y-37817D02*
X82735Y-37817D01*
X59717Y-37897D02*
X69455Y-37897D01*
X75430Y-37897D02*
X77973Y-37897D01*
X77973Y-37897D02*
X78492Y-37897D01*
X82055Y-37897D02*
X82735Y-37897D01*
X59717Y-37977D02*
X69455Y-37977D01*
X75430Y-37977D02*
X77973Y-37977D01*
X77973Y-37977D02*
X78405Y-37977D01*
X82088Y-37977D02*
X82734Y-37977D01*
X59717Y-38057D02*
X69454Y-38057D01*
X75430Y-38057D02*
X77973Y-38057D01*
X77973Y-38057D02*
X78211Y-38057D01*
X82094Y-38057D02*
X82734Y-38057D01*
X59717Y-38137D02*
X69454Y-38137D01*
X75405Y-38137D02*
X77973Y-38137D01*
X77973Y-38137D02*
X78099Y-38137D01*
X82094Y-38137D02*
X82734Y-38137D01*
X59717Y-38217D02*
X69475Y-38217D01*
X75371Y-38217D02*
X77973Y-38217D01*
X77973Y-38217D02*
X78018Y-38217D01*
X82093Y-38217D02*
X82734Y-38217D01*
X59717Y-38297D02*
X69508Y-38297D01*
X75338Y-38297D02*
X77938Y-38297D01*
X82093Y-38297D02*
X82734Y-38297D01*
X59717Y-38377D02*
X69541Y-38377D01*
X75303Y-38377D02*
X77899Y-38377D01*
X82090Y-38377D02*
X82734Y-38377D01*
X59717Y-38457D02*
X69574Y-38457D01*
X75294Y-38457D02*
X77866Y-38457D01*
X82056Y-38457D02*
X82734Y-38457D01*
X59717Y-38537D02*
X69564Y-38537D01*
X75354Y-38537D02*
X77833Y-38537D01*
X82023Y-38537D02*
X82734Y-38537D01*
X59718Y-38617D02*
X69530Y-38617D01*
X75387Y-38617D02*
X77805Y-38617D01*
X81990Y-38617D02*
X82733Y-38617D01*
X59718Y-38697D02*
X69497Y-38697D01*
X75420Y-38697D02*
X77805Y-38697D01*
X81973Y-38697D02*
X82733Y-38697D01*
X59718Y-38777D02*
X69464Y-38777D01*
X75453Y-38777D02*
X77188Y-38777D01*
X77649Y-38777D02*
X77805Y-38777D01*
X82006Y-38777D02*
X82733Y-38777D01*
X59718Y-38857D02*
X69455Y-38857D01*
X75462Y-38857D02*
X77018Y-38857D01*
X82039Y-38857D02*
X82733Y-38857D01*
X59718Y-38937D02*
X69455Y-38937D01*
X75462Y-38937D02*
X76938Y-38937D01*
X82072Y-38937D02*
X82733Y-38937D01*
X59718Y-39017D02*
X69454Y-39017D01*
X75462Y-39017D02*
X76857Y-39017D01*
X82094Y-39017D02*
X82733Y-39017D01*
X59718Y-39097D02*
X69454Y-39097D01*
X75462Y-39097D02*
X76816Y-39097D01*
X82094Y-39097D02*
X82733Y-39097D01*
X59718Y-39177D02*
X69458Y-39177D01*
X75438Y-39177D02*
X76782Y-39177D01*
X82094Y-39177D02*
X82732Y-39177D01*
X59718Y-39257D02*
X69491Y-39257D01*
X75405Y-39257D02*
X76749Y-39257D01*
X82093Y-39257D02*
X82732Y-39257D01*
X59718Y-39337D02*
X69525Y-39337D01*
X75372Y-39337D02*
X76739Y-39337D01*
X82093Y-39337D02*
X82732Y-39337D01*
X59719Y-39417D02*
X69558Y-39417D01*
X75339Y-39417D02*
X76739Y-39417D01*
X82073Y-39417D02*
X82732Y-39417D01*
X59719Y-39497D02*
X69580Y-39497D01*
X75284Y-39497D02*
X76739Y-39497D01*
X82040Y-39497D02*
X82732Y-39497D01*
X59719Y-39577D02*
X69547Y-39577D01*
X75321Y-39577D02*
X76739Y-39577D01*
X82006Y-39577D02*
X82732Y-39577D01*
X59719Y-39657D02*
X69514Y-39657D01*
X75354Y-39657D02*
X76739Y-39657D01*
X81973Y-39657D02*
X82732Y-39657D01*
X59719Y-39737D02*
X69480Y-39737D01*
X75387Y-39737D02*
X76739Y-39737D01*
X81989Y-39737D02*
X82732Y-39737D01*
X59719Y-39817D02*
X69455Y-39817D01*
X75413Y-39817D02*
X76739Y-39817D01*
X82022Y-39817D02*
X82731Y-39817D01*
X59719Y-39897D02*
X69455Y-39897D01*
X75413Y-39897D02*
X76754Y-39897D01*
X82055Y-39897D02*
X82731Y-39897D01*
X59719Y-39977D02*
X69455Y-39977D01*
X75413Y-39977D02*
X76787Y-39977D01*
X82088Y-39977D02*
X82731Y-39977D01*
X59719Y-40057D02*
X69454Y-40057D01*
X75413Y-40057D02*
X76820Y-40057D01*
X82094Y-40057D02*
X82094Y-40057D01*
X82094Y-40057D02*
X82731Y-40057D01*
X59719Y-40137D02*
X69454Y-40137D01*
X75406Y-40137D02*
X76869Y-40137D01*
X82094Y-40137D02*
X82094Y-40137D01*
X82094Y-40137D02*
X82731Y-40137D01*
X59719Y-40217D02*
X69475Y-40217D01*
X75373Y-40217D02*
X76949Y-40217D01*
X82093Y-40217D02*
X82094Y-40217D01*
X82094Y-40217D02*
X82731Y-40217D01*
X59720Y-40297D02*
X69508Y-40297D01*
X75340Y-40297D02*
X77028Y-40297D01*
X82093Y-40297D02*
X82094Y-40297D01*
X82094Y-40297D02*
X82731Y-40297D01*
X59720Y-40377D02*
X69541Y-40377D01*
X75307Y-40377D02*
X77214Y-40377D01*
X77622Y-40377D02*
X77765Y-40377D01*
X82090Y-40377D02*
X82094Y-40377D01*
X82094Y-40377D02*
X82730Y-40377D01*
X59720Y-40457D02*
X69574Y-40457D01*
X75251Y-40457D02*
X77765Y-40457D01*
X82056Y-40457D02*
X82094Y-40457D01*
X82094Y-40457D02*
X82730Y-40457D01*
X59720Y-40537D02*
X69564Y-40537D01*
X75294Y-40537D02*
X77765Y-40537D01*
X82023Y-40537D02*
X82094Y-40537D01*
X82094Y-40537D02*
X82730Y-40537D01*
X59720Y-40617D02*
X69530Y-40617D01*
X75327Y-40617D02*
X77766Y-40617D01*
X81990Y-40617D02*
X82094Y-40617D01*
X82094Y-40617D02*
X82730Y-40617D01*
X59720Y-40697D02*
X69497Y-40697D01*
X75360Y-40697D02*
X77799Y-40697D01*
X81957Y-40697D02*
X82094Y-40697D01*
X82094Y-40697D02*
X82730Y-40697D01*
X59720Y-40777D02*
X69464Y-40777D01*
X75393Y-40777D02*
X77832Y-40777D01*
X81888Y-40777D02*
X82094Y-40777D01*
X82094Y-40777D02*
X82730Y-40777D01*
X59720Y-40857D02*
X69455Y-40857D01*
X75400Y-40857D02*
X77865Y-40857D01*
X81843Y-40857D02*
X82094Y-40857D01*
X82094Y-40857D02*
X82730Y-40857D01*
X59720Y-40937D02*
X69455Y-40937D01*
X75400Y-40937D02*
X77913Y-40937D01*
X81843Y-40937D02*
X82094Y-40937D01*
X82094Y-40937D02*
X82730Y-40937D01*
X59720Y-41017D02*
X69454Y-41017D01*
X75400Y-41017D02*
X77993Y-41017D01*
X79395Y-41017D02*
X79445Y-41017D01*
X81843Y-41017D02*
X82094Y-41017D01*
X82094Y-41017D02*
X82729Y-41017D01*
X59721Y-41097D02*
X69454Y-41097D01*
X75400Y-41097D02*
X78072Y-41097D01*
X79276Y-41097D02*
X79445Y-41097D01*
X81843Y-41097D02*
X82094Y-41097D01*
X82094Y-41097D02*
X82729Y-41097D01*
X59721Y-41177D02*
X69458Y-41177D01*
X75375Y-41177D02*
X78206Y-41177D01*
X78940Y-41177D02*
X79445Y-41177D01*
X81843Y-41177D02*
X82094Y-41177D01*
X82094Y-41177D02*
X82729Y-41177D01*
X59721Y-41257D02*
X69491Y-41257D01*
X75341Y-41257D02*
X78398Y-41257D01*
X78746Y-41257D02*
X79445Y-41257D01*
X81843Y-41257D02*
X82094Y-41257D01*
X82094Y-41257D02*
X82729Y-41257D01*
X59721Y-41337D02*
X69525Y-41337D01*
X75308Y-41337D02*
X79445Y-41337D01*
X81843Y-41337D02*
X82094Y-41337D01*
X82094Y-41337D02*
X82729Y-41337D01*
X59721Y-41417D02*
X69558Y-41417D01*
X75273Y-41417D02*
X79445Y-41417D01*
X81843Y-41417D02*
X82094Y-41417D01*
X82094Y-41417D02*
X82729Y-41417D01*
X59721Y-41497D02*
X69591Y-41497D01*
X75247Y-41497D02*
X79445Y-41497D01*
X81843Y-41497D02*
X82094Y-41497D01*
X82094Y-41497D02*
X82729Y-41497D01*
X59721Y-41577D02*
X69664Y-41577D01*
X71095Y-41577D02*
X71136Y-41577D01*
X75285Y-41577D02*
X79445Y-41577D01*
X81843Y-41577D02*
X82094Y-41577D01*
X82094Y-41577D02*
X82728Y-41577D01*
X59721Y-41657D02*
X69744Y-41657D01*
X71015Y-41657D02*
X71136Y-41657D01*
X75318Y-41657D02*
X79445Y-41657D01*
X81843Y-41657D02*
X82094Y-41657D01*
X82094Y-41657D02*
X82728Y-41657D01*
X59721Y-41737D02*
X69824Y-41737D01*
X70934Y-41737D02*
X71136Y-41737D01*
X75351Y-41737D02*
X79445Y-41737D01*
X81843Y-41737D02*
X82094Y-41737D01*
X82094Y-41737D02*
X82728Y-41737D01*
X59721Y-41817D02*
X69882Y-41817D01*
X70884Y-41817D02*
X71136Y-41817D01*
X75378Y-41817D02*
X79445Y-41817D01*
X81843Y-41817D02*
X82094Y-41817D01*
X82094Y-41817D02*
X82728Y-41817D01*
X59721Y-41897D02*
X69854Y-41897D01*
X70901Y-41897D02*
X71151Y-41897D01*
X75378Y-41897D02*
X79445Y-41897D01*
X81843Y-41897D02*
X82094Y-41897D01*
X82094Y-41897D02*
X82728Y-41897D01*
X59722Y-41977D02*
X69853Y-41977D01*
X70905Y-41977D02*
X71167Y-41977D01*
X75378Y-41977D02*
X79445Y-41977D01*
X81843Y-41977D02*
X82094Y-41977D01*
X82094Y-41977D02*
X82728Y-41977D01*
X59722Y-42057D02*
X69858Y-42057D01*
X70909Y-42057D02*
X71183Y-42057D01*
X75378Y-42057D02*
X79445Y-42057D01*
X81843Y-42057D02*
X82094Y-42057D01*
X82094Y-42057D02*
X82728Y-42057D01*
X59722Y-42137D02*
X68490Y-42137D01*
X69157Y-42137D02*
X69869Y-42137D01*
X70882Y-42137D02*
X71201Y-42137D01*
X75372Y-42137D02*
X79445Y-42137D01*
X81843Y-42137D02*
X82094Y-42137D01*
X82094Y-42137D02*
X82727Y-42137D01*
X59722Y-42217D02*
X68338Y-42217D01*
X70921Y-42217D02*
X71254Y-42217D01*
X75339Y-42217D02*
X79445Y-42217D01*
X81843Y-42217D02*
X82094Y-42217D01*
X82094Y-42217D02*
X82727Y-42217D01*
X59722Y-42297D02*
X68258Y-42297D01*
X71001Y-42297D02*
X71308Y-42297D01*
X75306Y-42297D02*
X79445Y-42297D01*
X81843Y-42297D02*
X82094Y-42297D01*
X82094Y-42297D02*
X82727Y-42297D01*
X59722Y-42377D02*
X68177Y-42377D01*
X71081Y-42377D02*
X71361Y-42377D01*
X75351Y-42377D02*
X79445Y-42377D01*
X81843Y-42377D02*
X82094Y-42377D01*
X82094Y-42377D02*
X82727Y-42377D01*
X59722Y-42457D02*
X68122Y-42457D01*
X71160Y-42457D02*
X71436Y-42457D01*
X75405Y-42457D02*
X79445Y-42457D01*
X81843Y-42457D02*
X82094Y-42457D01*
X82094Y-42457D02*
X82727Y-42457D01*
X59722Y-42537D02*
X68089Y-42537D01*
X71196Y-42537D02*
X71516Y-42537D01*
X75458Y-42537D02*
X79445Y-42537D01*
X81843Y-42537D02*
X82094Y-42537D01*
X82094Y-42537D02*
X82727Y-42537D01*
X59722Y-42617D02*
X68055Y-42617D01*
X71229Y-42617D02*
X71596Y-42617D01*
X75494Y-42617D02*
X79445Y-42617D01*
X81843Y-42617D02*
X82094Y-42617D01*
X82094Y-42617D02*
X82727Y-42617D01*
X59722Y-42697D02*
X68022Y-42697D01*
X71262Y-42697D02*
X71676Y-42697D01*
X75510Y-42697D02*
X79445Y-42697D01*
X81843Y-42697D02*
X82094Y-42697D01*
X82094Y-42697D02*
X82727Y-42697D01*
X59723Y-42777D02*
X68016Y-42777D01*
X71295Y-42777D02*
X71756Y-42777D01*
X75525Y-42777D02*
X79445Y-42777D01*
X81843Y-42777D02*
X82094Y-42777D01*
X82094Y-42777D02*
X82726Y-42777D01*
X59723Y-42857D02*
X68016Y-42857D01*
X71305Y-42857D02*
X71836Y-42857D01*
X75541Y-42857D02*
X79445Y-42857D01*
X81843Y-42857D02*
X82094Y-42857D01*
X82094Y-42857D02*
X82726Y-42857D01*
X59723Y-42937D02*
X68016Y-42937D01*
X71305Y-42937D02*
X71916Y-42937D01*
X75544Y-42937D02*
X79445Y-42937D01*
X81843Y-42937D02*
X82094Y-42937D01*
X82094Y-42937D02*
X82726Y-42937D01*
X59723Y-43017D02*
X68016Y-43017D01*
X71304Y-43017D02*
X71996Y-43017D01*
X75528Y-43017D02*
X79445Y-43017D01*
X81843Y-43017D02*
X82094Y-43017D01*
X82094Y-43017D02*
X82726Y-43017D01*
X59723Y-43097D02*
X68042Y-43097D01*
X71304Y-43097D02*
X72076Y-43097D01*
X75512Y-43097D02*
X79445Y-43097D01*
X81843Y-43097D02*
X82094Y-43097D01*
X82094Y-43097D02*
X82726Y-43097D01*
X59723Y-43177D02*
X68075Y-43177D01*
X71301Y-43177D02*
X72156Y-43177D01*
X75496Y-43177D02*
X79445Y-43177D01*
X81843Y-43177D02*
X82094Y-43177D01*
X82094Y-43177D02*
X82726Y-43177D01*
X59723Y-43257D02*
X68108Y-43257D01*
X71268Y-43257D02*
X72236Y-43257D01*
X75466Y-43257D02*
X79445Y-43257D01*
X81843Y-43257D02*
X82094Y-43257D01*
X82094Y-43257D02*
X82726Y-43257D01*
X59723Y-43337D02*
X68146Y-43337D01*
X71234Y-43337D02*
X72316Y-43337D01*
X75413Y-43337D02*
X79445Y-43337D01*
X81843Y-43337D02*
X82094Y-43337D01*
X82094Y-43337D02*
X82725Y-43337D01*
X59723Y-43417D02*
X68226Y-43417D01*
X71201Y-43417D02*
X72396Y-43417D01*
X75359Y-43417D02*
X79445Y-43417D01*
X81843Y-43417D02*
X82094Y-43417D01*
X82094Y-43417D02*
X82725Y-43417D01*
X59723Y-43497D02*
X68148Y-43497D01*
X71182Y-43497D02*
X72476Y-43497D01*
X75306Y-43497D02*
X79445Y-43497D01*
X81843Y-43497D02*
X82094Y-43497D01*
X82094Y-43497D02*
X82725Y-43497D01*
X59723Y-43577D02*
X68094Y-43577D01*
X71215Y-43577D02*
X72577Y-43577D01*
X75219Y-43577D02*
X79445Y-43577D01*
X81843Y-43577D02*
X82094Y-43577D01*
X82094Y-43577D02*
X82725Y-43577D01*
X59724Y-43657D02*
X68061Y-43657D01*
X71248Y-43657D02*
X72697Y-43657D01*
X75100Y-43657D02*
X79445Y-43657D01*
X81843Y-43657D02*
X82094Y-43657D01*
X82094Y-43657D02*
X82725Y-43657D01*
X59724Y-43737D02*
X68027Y-43737D01*
X71281Y-43737D02*
X72840Y-43737D01*
X74980Y-43737D02*
X79445Y-43737D01*
X81843Y-43737D02*
X82094Y-43737D01*
X82094Y-43737D02*
X82725Y-43737D01*
X59724Y-43817D02*
X67994Y-43817D01*
X71305Y-43817D02*
X72866Y-43817D01*
X73889Y-43817D02*
X79445Y-43817D01*
X81843Y-43817D02*
X82094Y-43817D01*
X82094Y-43817D02*
X82725Y-43817D01*
X59724Y-43897D02*
X67987Y-43897D01*
X71305Y-43897D02*
X72845Y-43897D01*
X73896Y-43897D02*
X79445Y-43897D01*
X81843Y-43897D02*
X82094Y-43897D01*
X82094Y-43897D02*
X82725Y-43897D01*
X59724Y-43977D02*
X67987Y-43977D01*
X71305Y-43977D02*
X72849Y-43977D01*
X73900Y-43977D02*
X79445Y-43977D01*
X81838Y-43977D02*
X82094Y-43977D01*
X82094Y-43977D02*
X82724Y-43977D01*
X59724Y-44057D02*
X67986Y-44057D01*
X71304Y-44057D02*
X72853Y-44057D01*
X73895Y-44057D02*
X79383Y-44057D01*
X81822Y-44057D02*
X82094Y-44057D01*
X82094Y-44057D02*
X82724Y-44057D01*
X59724Y-44137D02*
X67986Y-44137D01*
X71304Y-44137D02*
X72875Y-44137D01*
X73866Y-44137D02*
X79303Y-44137D01*
X81806Y-44137D02*
X82094Y-44137D01*
X82094Y-44137D02*
X82724Y-44137D01*
X59724Y-44217D02*
X68009Y-44217D01*
X71282Y-44217D02*
X72805Y-44217D01*
X73943Y-44217D02*
X74465Y-44217D01*
X75040Y-44217D02*
X79223Y-44217D01*
X81790Y-44217D02*
X82094Y-44217D01*
X82094Y-44217D02*
X82724Y-44217D01*
X59724Y-44297D02*
X68042Y-44297D01*
X71249Y-44297D02*
X72724Y-44297D01*
X75220Y-44297D02*
X79143Y-44297D01*
X81740Y-44297D02*
X82094Y-44297D01*
X82094Y-44297D02*
X82724Y-44297D01*
X59724Y-44377D02*
X68075Y-44377D01*
X71215Y-44377D02*
X72644Y-44377D01*
X75300Y-44377D02*
X79063Y-44377D01*
X81686Y-44377D02*
X82094Y-44377D01*
X82094Y-44377D02*
X82724Y-44377D01*
X59725Y-44457D02*
X68108Y-44457D01*
X71182Y-44457D02*
X72579Y-44457D01*
X75379Y-44457D02*
X78983Y-44457D01*
X81630Y-44457D02*
X82094Y-44457D01*
X82094Y-44457D02*
X82724Y-44457D01*
X59725Y-44537D02*
X68182Y-44537D01*
X71198Y-44537D02*
X72546Y-44537D01*
X75446Y-44537D02*
X78903Y-44537D01*
X81550Y-44537D02*
X82094Y-44537D01*
X82094Y-44537D02*
X82723Y-44537D01*
X59725Y-44617D02*
X68262Y-44617D01*
X71231Y-44617D02*
X72513Y-44617D01*
X75480Y-44617D02*
X78823Y-44617D01*
X81470Y-44617D02*
X82094Y-44617D01*
X82094Y-44617D02*
X82723Y-44617D01*
X59725Y-44697D02*
X68342Y-44697D01*
X71264Y-44697D02*
X72479Y-44697D01*
X75513Y-44697D02*
X78743Y-44697D01*
X81390Y-44697D02*
X82094Y-44697D01*
X82094Y-44697D02*
X82723Y-44697D01*
X59725Y-44777D02*
X68531Y-44777D01*
X71297Y-44777D02*
X72449Y-44777D01*
X75546Y-44777D02*
X78663Y-44777D01*
X81310Y-44777D02*
X82094Y-44777D01*
X82094Y-44777D02*
X82723Y-44777D01*
X59725Y-44857D02*
X69455Y-44857D01*
X71305Y-44857D02*
X72449Y-44857D01*
X75560Y-44857D02*
X78583Y-44857D01*
X81230Y-44857D02*
X82094Y-44857D01*
X82094Y-44857D02*
X82723Y-44857D01*
X59725Y-44937D02*
X69455Y-44937D01*
X71305Y-44937D02*
X72449Y-44937D01*
X75560Y-44937D02*
X78503Y-44937D01*
X81150Y-44937D02*
X82094Y-44937D01*
X82094Y-44937D02*
X82723Y-44937D01*
X59725Y-45017D02*
X69454Y-45017D01*
X71304Y-45017D02*
X72448Y-45017D01*
X75560Y-45017D02*
X78423Y-45017D01*
X81070Y-45017D02*
X82094Y-45017D01*
X82094Y-45017D02*
X82723Y-45017D01*
X59725Y-45097D02*
X69454Y-45097D01*
X71304Y-45097D02*
X72448Y-45097D01*
X75560Y-45097D02*
X78343Y-45097D01*
X80990Y-45097D02*
X82094Y-45097D01*
X82094Y-45097D02*
X82722Y-45097D01*
X59725Y-45177D02*
X69461Y-45177D01*
X71298Y-45177D02*
X72464Y-45177D01*
X75927Y-45177D02*
X78263Y-45177D01*
X80910Y-45177D02*
X82094Y-45177D01*
X82094Y-45177D02*
X82722Y-45177D01*
X59725Y-45257D02*
X69494Y-45257D01*
X71265Y-45257D02*
X72497Y-45257D01*
X76120Y-45257D02*
X78183Y-45257D01*
X80830Y-45257D02*
X82094Y-45257D01*
X82094Y-45257D02*
X82722Y-45257D01*
X59726Y-45337D02*
X69527Y-45337D01*
X71232Y-45337D02*
X72530Y-45337D01*
X76228Y-45337D02*
X78103Y-45337D01*
X80750Y-45337D02*
X82094Y-45337D01*
X82094Y-45337D02*
X82722Y-45337D01*
X59726Y-45417D02*
X69560Y-45417D01*
X71199Y-45417D02*
X72563Y-45417D01*
X76307Y-45417D02*
X78023Y-45417D01*
X80670Y-45417D02*
X82094Y-45417D01*
X82094Y-45417D02*
X82722Y-45417D01*
X59726Y-45497D02*
X69578Y-45497D01*
X71182Y-45497D02*
X72563Y-45497D01*
X76387Y-45497D02*
X77943Y-45497D01*
X80590Y-45497D02*
X82094Y-45497D01*
X82094Y-45497D02*
X82722Y-45497D01*
X59726Y-45577D02*
X69544Y-45577D01*
X71215Y-45577D02*
X72529Y-45577D01*
X76425Y-45577D02*
X77863Y-45577D01*
X80510Y-45577D02*
X82094Y-45577D01*
X82094Y-45577D02*
X82722Y-45577D01*
X59726Y-45657D02*
X69511Y-45657D01*
X71248Y-45657D02*
X72496Y-45657D01*
X76458Y-45657D02*
X77783Y-45657D01*
X80430Y-45657D02*
X82094Y-45657D01*
X82094Y-45657D02*
X82722Y-45657D01*
X59726Y-45737D02*
X69478Y-45737D01*
X71281Y-45737D02*
X72463Y-45737D01*
X76491Y-45737D02*
X77703Y-45737D01*
X80350Y-45737D02*
X82094Y-45737D01*
X82094Y-45737D02*
X82721Y-45737D01*
X59726Y-45817D02*
X69455Y-45817D01*
X71305Y-45817D02*
X72449Y-45817D01*
X76517Y-45817D02*
X77623Y-45817D01*
X80270Y-45817D02*
X82094Y-45817D01*
X82094Y-45817D02*
X82721Y-45817D01*
X59726Y-45897D02*
X69455Y-45897D01*
X71305Y-45897D02*
X72449Y-45897D01*
X76519Y-45897D02*
X77489Y-45897D01*
X80190Y-45897D02*
X82094Y-45897D01*
X82094Y-45897D02*
X82721Y-45897D01*
X59726Y-45977D02*
X69455Y-45977D01*
X71305Y-45977D02*
X72448Y-45977D01*
X76521Y-45977D02*
X77310Y-45977D01*
X80110Y-45977D02*
X82094Y-45977D01*
X82094Y-45977D02*
X82721Y-45977D01*
X59726Y-46057D02*
X69454Y-46057D01*
X71304Y-46057D02*
X72448Y-46057D01*
X76517Y-46057D02*
X77230Y-46057D01*
X80030Y-46057D02*
X82094Y-46057D01*
X82094Y-46057D02*
X82721Y-46057D01*
X59726Y-46137D02*
X69454Y-46137D01*
X71304Y-46137D02*
X72448Y-46137D01*
X76788Y-46137D02*
X77149Y-46137D01*
X79950Y-46137D02*
X82094Y-46137D01*
X82094Y-46137D02*
X82721Y-46137D01*
X59727Y-46217D02*
X69477Y-46217D01*
X71282Y-46217D02*
X72480Y-46217D01*
X76945Y-46217D02*
X77083Y-46217D01*
X79870Y-46217D02*
X82094Y-46217D01*
X82094Y-46217D02*
X82721Y-46217D01*
X59727Y-46297D02*
X69510Y-46297D01*
X71249Y-46297D02*
X72514Y-46297D01*
X77024Y-46297D02*
X77050Y-46297D01*
X79790Y-46297D02*
X82094Y-46297D01*
X82094Y-46297D02*
X82720Y-46297D01*
X59727Y-46377D02*
X69544Y-46377D01*
X71215Y-46377D02*
X72547Y-46377D01*
X79710Y-46377D02*
X82094Y-46377D01*
X82094Y-46377D02*
X82720Y-46377D01*
X59727Y-46457D02*
X69577Y-46457D01*
X71182Y-46457D02*
X72579Y-46457D01*
X79630Y-46457D02*
X82094Y-46457D01*
X82094Y-46457D02*
X82720Y-46457D01*
X59727Y-46537D02*
X69561Y-46537D01*
X71198Y-46537D02*
X72546Y-46537D01*
X79550Y-46537D02*
X82094Y-46537D01*
X82094Y-46537D02*
X82720Y-46537D01*
X59727Y-46617D02*
X69528Y-46617D01*
X71231Y-46617D02*
X72513Y-46617D01*
X79470Y-46617D02*
X82094Y-46617D01*
X82094Y-46617D02*
X82720Y-46617D01*
X59727Y-46697D02*
X69495Y-46697D01*
X71264Y-46697D02*
X72479Y-46697D01*
X75061Y-46697D02*
X75376Y-46697D01*
X79390Y-46697D02*
X82094Y-46697D01*
X82094Y-46697D02*
X82720Y-46697D01*
X59727Y-46777D02*
X69461Y-46777D01*
X71297Y-46777D02*
X72449Y-46777D01*
X74613Y-46777D02*
X75854Y-46777D01*
X79310Y-46777D02*
X82094Y-46777D01*
X82094Y-46777D02*
X82720Y-46777D01*
X59727Y-46857D02*
X69455Y-46857D01*
X71305Y-46857D02*
X72449Y-46857D01*
X74693Y-46857D02*
X75854Y-46857D01*
X79230Y-46857D02*
X82094Y-46857D01*
X82094Y-46857D02*
X82720Y-46857D01*
X59727Y-46937D02*
X69455Y-46937D01*
X71305Y-46937D02*
X72449Y-46937D01*
X74773Y-46937D02*
X75854Y-46937D01*
X79150Y-46937D02*
X82094Y-46937D01*
X82094Y-46937D02*
X82719Y-46937D01*
X59728Y-47017D02*
X69454Y-47017D01*
X71304Y-47017D02*
X72448Y-47017D01*
X74835Y-47017D02*
X75854Y-47017D01*
X79070Y-47017D02*
X82094Y-47017D01*
X82094Y-47017D02*
X82719Y-47017D01*
X59728Y-47097D02*
X69454Y-47097D01*
X71304Y-47097D02*
X72448Y-47097D01*
X74888Y-47097D02*
X75854Y-47097D01*
X78990Y-47097D02*
X82094Y-47097D01*
X82094Y-47097D02*
X82719Y-47097D01*
X59728Y-47177D02*
X69461Y-47177D01*
X71298Y-47177D02*
X72464Y-47177D01*
X74942Y-47177D02*
X75854Y-47177D01*
X78910Y-47177D02*
X82094Y-47177D01*
X82094Y-47177D02*
X82719Y-47177D01*
X59728Y-47257D02*
X68706Y-47257D01*
X71265Y-47257D02*
X72497Y-47257D01*
X74968Y-47257D02*
X75873Y-47257D01*
X77194Y-47257D02*
X77239Y-47257D01*
X78830Y-47257D02*
X82094Y-47257D01*
X82094Y-47257D02*
X82719Y-47257D01*
X59728Y-47337D02*
X68516Y-47337D01*
X71232Y-47337D02*
X72530Y-47337D01*
X74984Y-47337D02*
X75906Y-47337D01*
X77161Y-47337D02*
X77275Y-47337D01*
X78796Y-47337D02*
X82094Y-47337D01*
X82094Y-47337D02*
X82719Y-47337D01*
X59728Y-47417D02*
X68434Y-47417D01*
X71199Y-47417D02*
X72563Y-47417D01*
X75000Y-47417D02*
X75939Y-47417D01*
X77128Y-47417D02*
X77275Y-47417D01*
X78763Y-47417D02*
X82094Y-47417D01*
X82094Y-47417D02*
X82719Y-47417D01*
X59728Y-47497D02*
X68354Y-47497D01*
X71182Y-47497D02*
X72563Y-47497D01*
X75012Y-47497D02*
X75994Y-47497D01*
X77074Y-47497D02*
X77241Y-47497D01*
X78767Y-47497D02*
X82094Y-47497D01*
X82094Y-47497D02*
X82718Y-47497D01*
X59728Y-47577D02*
X68278Y-47577D01*
X71215Y-47577D02*
X72529Y-47577D01*
X75012Y-47577D02*
X76074Y-47577D01*
X76993Y-47577D02*
X77208Y-47577D01*
X78801Y-47577D02*
X82094Y-47577D01*
X82094Y-47577D02*
X82718Y-47577D01*
X59728Y-47657D02*
X68244Y-47657D01*
X71248Y-47657D02*
X72496Y-47657D01*
X75012Y-47657D02*
X76161Y-47657D01*
X76907Y-47657D02*
X77197Y-47657D01*
X78812Y-47657D02*
X82094Y-47657D01*
X82094Y-47657D02*
X82718Y-47657D01*
X59728Y-47737D02*
X68211Y-47737D01*
X71281Y-47737D02*
X72463Y-47737D01*
X75012Y-47737D02*
X76353Y-47737D01*
X76713Y-47737D02*
X77197Y-47737D01*
X78812Y-47737D02*
X82094Y-47737D01*
X82094Y-47737D02*
X82718Y-47737D01*
X59728Y-47817D02*
X68178Y-47817D01*
X71305Y-47817D02*
X72449Y-47817D01*
X75012Y-47817D02*
X77197Y-47817D01*
X78812Y-47817D02*
X82094Y-47817D01*
X82094Y-47817D02*
X82718Y-47817D01*
X59729Y-47897D02*
X68155Y-47897D01*
X71305Y-47897D02*
X72449Y-47897D01*
X75012Y-47897D02*
X77197Y-47897D01*
X78812Y-47897D02*
X82094Y-47897D01*
X82094Y-47897D02*
X82718Y-47897D01*
X59729Y-47977D02*
X68155Y-47977D01*
X71305Y-47977D02*
X72448Y-47977D01*
X75012Y-47977D02*
X77218Y-47977D01*
X78791Y-47977D02*
X82094Y-47977D01*
X82094Y-47977D02*
X82718Y-47977D01*
X59729Y-48057D02*
X68154Y-48057D01*
X71304Y-48057D02*
X72448Y-48057D01*
X75012Y-48057D02*
X77251Y-48057D01*
X78758Y-48057D02*
X82094Y-48057D01*
X82094Y-48057D02*
X82717Y-48057D01*
X59729Y-48137D02*
X68154Y-48137D01*
X71304Y-48137D02*
X72448Y-48137D01*
X75012Y-48137D02*
X77284Y-48137D01*
X78724Y-48137D02*
X82094Y-48137D01*
X82094Y-48137D02*
X82717Y-48137D01*
X59729Y-48217D02*
X68161Y-48217D01*
X71282Y-48217D02*
X72480Y-48217D01*
X75012Y-48217D02*
X77318Y-48217D01*
X78691Y-48217D02*
X82094Y-48217D01*
X82094Y-48217D02*
X82717Y-48217D01*
X59729Y-48297D02*
X68194Y-48297D01*
X71249Y-48297D02*
X72514Y-48297D01*
X75012Y-48297D02*
X77395Y-48297D01*
X78615Y-48297D02*
X82094Y-48297D01*
X82094Y-48297D02*
X82717Y-48297D01*
X59729Y-48377D02*
X68227Y-48377D01*
X71215Y-48377D02*
X72547Y-48377D01*
X75012Y-48377D02*
X77474Y-48377D01*
X78534Y-48377D02*
X82094Y-48377D01*
X82094Y-48377D02*
X82717Y-48377D01*
X59729Y-48457D02*
X68260Y-48457D01*
X71182Y-48457D02*
X72580Y-48457D01*
X75012Y-48457D02*
X77565Y-48457D01*
X78444Y-48457D02*
X82094Y-48457D01*
X82094Y-48457D02*
X82717Y-48457D01*
X59729Y-48537D02*
X68312Y-48537D01*
X71129Y-48537D02*
X72610Y-48537D01*
X75012Y-48537D02*
X77758Y-48537D01*
X78251Y-48537D02*
X82094Y-48537D01*
X82094Y-48537D02*
X82717Y-48537D01*
X59729Y-48617D02*
X68392Y-48617D01*
X71049Y-48617D02*
X72610Y-48617D01*
X75012Y-48617D02*
X82094Y-48617D01*
X82094Y-48617D02*
X82717Y-48617D01*
X59730Y-48697D02*
X68472Y-48697D01*
X70969Y-48697D02*
X72610Y-48697D01*
X75012Y-48697D02*
X82094Y-48697D01*
X82094Y-48697D02*
X82716Y-48697D01*
X59730Y-48777D02*
X68608Y-48777D01*
X70868Y-48777D02*
X72526Y-48777D01*
X75012Y-48777D02*
X82094Y-48777D01*
X82094Y-48777D02*
X82716Y-48777D01*
X59730Y-48857D02*
X68801Y-48857D01*
X69158Y-48857D02*
X70084Y-48857D01*
X70674Y-48857D02*
X72321Y-48857D01*
X75012Y-48857D02*
X82094Y-48857D01*
X82094Y-48857D02*
X82716Y-48857D01*
X59730Y-48937D02*
X72177Y-48937D01*
X75012Y-48937D02*
X82094Y-48937D01*
X82094Y-48937D02*
X82716Y-48937D01*
X59730Y-49017D02*
X72088Y-49017D01*
X75012Y-49017D02*
X82094Y-49017D01*
X82094Y-49017D02*
X82716Y-49017D01*
X59730Y-49097D02*
X72011Y-49097D01*
X75012Y-49097D02*
X82094Y-49097D01*
X82094Y-49097D02*
X82716Y-49097D01*
X59730Y-49177D02*
X71963Y-49177D01*
X75012Y-49177D02*
X82094Y-49177D01*
X82094Y-49177D02*
X82716Y-49177D01*
X59730Y-49257D02*
X71935Y-49257D01*
X75012Y-49257D02*
X82094Y-49257D01*
X82094Y-49257D02*
X82715Y-49257D01*
X59730Y-49337D02*
X71903Y-49337D01*
X75029Y-49337D02*
X82094Y-49337D01*
X82094Y-49337D02*
X82715Y-49337D01*
X59730Y-49417D02*
X71880Y-49417D01*
X75062Y-49417D02*
X82094Y-49417D01*
X82094Y-49417D02*
X82715Y-49417D01*
X59730Y-49497D02*
X71863Y-49497D01*
X75091Y-49497D02*
X82094Y-49497D01*
X82094Y-49497D02*
X82715Y-49497D01*
X59731Y-49577D02*
X71845Y-49577D01*
X75091Y-49577D02*
X82094Y-49577D01*
X82094Y-49577D02*
X82715Y-49577D01*
X59731Y-49657D02*
X71828Y-49657D01*
X75091Y-49657D02*
X82094Y-49657D01*
X82094Y-49657D02*
X82715Y-49657D01*
X59731Y-49737D02*
X71782Y-49737D01*
X75091Y-49737D02*
X82094Y-49737D01*
X82094Y-49737D02*
X82715Y-49737D01*
X59731Y-49817D02*
X71742Y-49817D01*
X75088Y-49817D02*
X82094Y-49817D01*
X82094Y-49817D02*
X82715Y-49817D01*
X59731Y-49897D02*
X71708Y-49897D01*
X75054Y-49897D02*
X82094Y-49897D01*
X82094Y-49897D02*
X82714Y-49897D01*
X59731Y-49977D02*
X71675Y-49977D01*
X73545Y-49977D02*
X73546Y-49977D01*
X75021Y-49977D02*
X82094Y-49977D01*
X82094Y-49977D02*
X82714Y-49977D01*
X59731Y-50057D02*
X71646Y-50057D01*
X73300Y-50057D02*
X73579Y-50057D01*
X74988Y-50057D02*
X82094Y-50057D01*
X82094Y-50057D02*
X82714Y-50057D01*
X59731Y-50137D02*
X71646Y-50137D01*
X73261Y-50137D02*
X73631Y-50137D01*
X74937Y-50137D02*
X82094Y-50137D01*
X82094Y-50137D02*
X82714Y-50137D01*
X59731Y-50217D02*
X71646Y-50217D01*
X73261Y-50217D02*
X73711Y-50217D01*
X74856Y-50217D02*
X82094Y-50217D01*
X82094Y-50217D02*
X82714Y-50217D01*
X59731Y-50297D02*
X71646Y-50297D01*
X73261Y-50297D02*
X73790Y-50297D01*
X74776Y-50297D02*
X82094Y-50297D01*
X82094Y-50297D02*
X82714Y-50297D01*
X59732Y-50377D02*
X71650Y-50377D01*
X73258Y-50377D02*
X73933Y-50377D01*
X74634Y-50377D02*
X82094Y-50377D01*
X82094Y-50377D02*
X82714Y-50377D01*
X59732Y-50457D02*
X71683Y-50457D01*
X73224Y-50457D02*
X82094Y-50457D01*
X82094Y-50457D02*
X82713Y-50457D01*
X59732Y-50537D02*
X71716Y-50537D01*
X73191Y-50537D02*
X82094Y-50537D01*
X82094Y-50537D02*
X82713Y-50537D01*
X59732Y-50617D02*
X71749Y-50617D01*
X73158Y-50617D02*
X82094Y-50617D01*
X82094Y-50617D02*
X82713Y-50617D01*
X59732Y-50697D02*
X71801Y-50697D01*
X73107Y-50697D02*
X82094Y-50697D01*
X82094Y-50697D02*
X82713Y-50697D01*
X59732Y-50777D02*
X71881Y-50777D01*
X73026Y-50777D02*
X82094Y-50777D01*
X82094Y-50777D02*
X82713Y-50777D01*
X59732Y-50857D02*
X71960Y-50857D01*
X72946Y-50857D02*
X82094Y-50857D01*
X82094Y-50857D02*
X82713Y-50857D01*
X59732Y-50937D02*
X63847Y-50937D01*
X64313Y-50937D02*
X72103Y-50937D01*
X72804Y-50937D02*
X82094Y-50937D01*
X82094Y-50937D02*
X82713Y-50937D01*
X59732Y-51017D02*
X63653Y-51017D01*
X64506Y-51017D02*
X82094Y-51017D01*
X82094Y-51017D02*
X82712Y-51017D01*
X59732Y-51097D02*
X63496Y-51097D01*
X64663Y-51097D02*
X82094Y-51097D01*
X82094Y-51097D02*
X82712Y-51097D01*
X59732Y-51177D02*
X63416Y-51177D01*
X64743Y-51177D02*
X82094Y-51177D01*
X82094Y-51177D02*
X82712Y-51177D01*
X59733Y-51257D02*
X63336Y-51257D01*
X64823Y-51257D02*
X82094Y-51257D01*
X82094Y-51257D02*
X82712Y-51257D01*
X59733Y-51337D02*
X63256Y-51337D01*
X64903Y-51337D02*
X82094Y-51337D01*
X82094Y-51337D02*
X82712Y-51337D01*
X59733Y-51417D02*
X63217Y-51417D01*
X64943Y-51417D02*
X82094Y-51417D01*
X82094Y-51417D02*
X82712Y-51417D01*
X59733Y-51497D02*
X63183Y-51497D01*
X64976Y-51497D02*
X82094Y-51497D01*
X82094Y-51497D02*
X82712Y-51497D01*
X59733Y-51577D02*
X63150Y-51577D01*
X65009Y-51577D02*
X82094Y-51577D01*
X82094Y-51577D02*
X82712Y-51577D01*
X59733Y-51657D02*
X63117Y-51657D01*
X65042Y-51657D02*
X82094Y-51657D01*
X82094Y-51657D02*
X82711Y-51657D01*
X59733Y-51737D02*
X63095Y-51737D01*
X65064Y-51737D02*
X82094Y-51737D01*
X82094Y-51737D02*
X82711Y-51737D01*
X59733Y-51817D02*
X63095Y-51817D01*
X65064Y-51817D02*
X82094Y-51817D01*
X82094Y-51817D02*
X82711Y-51817D01*
X59733Y-51897D02*
X63095Y-51897D01*
X65064Y-51897D02*
X82094Y-51897D01*
X82094Y-51897D02*
X82711Y-51897D01*
X59733Y-51977D02*
X63095Y-51977D01*
X65064Y-51977D02*
X82094Y-51977D01*
X82094Y-51977D02*
X82711Y-51977D01*
X59734Y-52057D02*
X63095Y-52057D01*
X65064Y-52057D02*
X82094Y-52057D01*
X82094Y-52057D02*
X82711Y-52057D01*
X59734Y-52137D02*
X63110Y-52137D01*
X65050Y-52137D02*
X82094Y-52137D01*
X82094Y-52137D02*
X82711Y-52137D01*
X59734Y-52217D02*
X63143Y-52217D01*
X65016Y-52217D02*
X82094Y-52217D01*
X82094Y-52217D02*
X82710Y-52217D01*
X59734Y-52297D02*
X63176Y-52297D01*
X64983Y-52297D02*
X82094Y-52297D01*
X82094Y-52297D02*
X82710Y-52297D01*
X59734Y-52377D02*
X63209Y-52377D01*
X64950Y-52377D02*
X82094Y-52377D01*
X82094Y-52377D02*
X82710Y-52377D01*
X59734Y-52457D02*
X63242Y-52457D01*
X64917Y-52457D02*
X82094Y-52457D01*
X82094Y-52457D02*
X82710Y-52457D01*
X59734Y-52537D02*
X63318Y-52537D01*
X64841Y-52537D02*
X82094Y-52537D01*
X82094Y-52537D02*
X82710Y-52537D01*
X59734Y-52617D02*
X63398Y-52617D01*
X64761Y-52617D02*
X82094Y-52617D01*
X82094Y-52617D02*
X82710Y-52617D01*
X59734Y-52697D02*
X63478Y-52697D01*
X64681Y-52697D02*
X73635Y-52697D01*
X74320Y-52697D02*
X75367Y-52697D01*
X76052Y-52697D02*
X82094Y-52697D01*
X82094Y-52697D02*
X82710Y-52697D01*
X59734Y-52777D02*
X63610Y-52777D01*
X64550Y-52777D02*
X73475Y-52777D01*
X74481Y-52777D02*
X75207Y-52777D01*
X76213Y-52777D02*
X82094Y-52777D01*
X82094Y-52777D02*
X82710Y-52777D01*
X59734Y-52857D02*
X63508Y-52857D01*
X64651Y-52857D02*
X73395Y-52857D01*
X74560Y-52857D02*
X75127Y-52857D01*
X76292Y-52857D02*
X82094Y-52857D01*
X82094Y-52857D02*
X82709Y-52857D01*
X59735Y-52937D02*
X63428Y-52937D01*
X64731Y-52937D02*
X73315Y-52937D01*
X74640Y-52937D02*
X75047Y-52937D01*
X76372Y-52937D02*
X82094Y-52937D01*
X82094Y-52937D02*
X82709Y-52937D01*
X59735Y-53017D02*
X63348Y-53017D01*
X64811Y-53017D02*
X73249Y-53017D01*
X74706Y-53017D02*
X74981Y-53017D01*
X76438Y-53017D02*
X82094Y-53017D01*
X82094Y-53017D02*
X82709Y-53017D01*
X59735Y-53097D02*
X63268Y-53097D01*
X64891Y-53097D02*
X73216Y-53097D01*
X74739Y-53097D02*
X74948Y-53097D01*
X76471Y-53097D02*
X82094Y-53097D01*
X82094Y-53097D02*
X82709Y-53097D01*
X59735Y-53177D02*
X63222Y-53177D01*
X64938Y-53177D02*
X73183Y-53177D01*
X74772Y-53177D02*
X74915Y-53177D01*
X76504Y-53177D02*
X82094Y-53177D01*
X82094Y-53177D02*
X82709Y-53177D01*
X59735Y-53257D02*
X63188Y-53257D01*
X64971Y-53257D02*
X73150Y-53257D01*
X74805Y-53257D02*
X74882Y-53257D01*
X76537Y-53257D02*
X82094Y-53257D01*
X82094Y-53257D02*
X82709Y-53257D01*
X59735Y-53337D02*
X63155Y-53337D01*
X65004Y-53337D02*
X73131Y-53337D01*
X74825Y-53337D02*
X74825Y-53337D01*
X74825Y-53337D02*
X74863Y-53337D01*
X76557Y-53337D02*
X76557Y-53337D01*
X76557Y-53337D02*
X82094Y-53337D01*
X82094Y-53337D02*
X82709Y-53337D01*
X59735Y-53417D02*
X63122Y-53417D01*
X65037Y-53417D02*
X73131Y-53417D01*
X74825Y-53417D02*
X74825Y-53417D01*
X74825Y-53417D02*
X74863Y-53417D01*
X76557Y-53417D02*
X76557Y-53417D01*
X76557Y-53417D02*
X82094Y-53417D01*
X82094Y-53417D02*
X82708Y-53417D01*
X59735Y-53497D02*
X63095Y-53497D01*
X65064Y-53497D02*
X65064Y-53497D01*
X65064Y-53497D02*
X73130Y-53497D01*
X74824Y-53497D02*
X74825Y-53497D01*
X74825Y-53497D02*
X74862Y-53497D01*
X76556Y-53497D02*
X76557Y-53497D01*
X76557Y-53497D02*
X82094Y-53497D01*
X82094Y-53497D02*
X82708Y-53497D01*
X59735Y-53577D02*
X63095Y-53577D01*
X65064Y-53577D02*
X65064Y-53577D01*
X65064Y-53577D02*
X73130Y-53577D01*
X74824Y-53577D02*
X74825Y-53577D01*
X74825Y-53577D02*
X74862Y-53577D01*
X76556Y-53577D02*
X76557Y-53577D01*
X76557Y-53577D02*
X82094Y-53577D01*
X82094Y-53577D02*
X82708Y-53577D01*
X59735Y-53657D02*
X63095Y-53657D01*
X65064Y-53657D02*
X65064Y-53657D01*
X65064Y-53657D02*
X73137Y-53657D01*
X74818Y-53657D02*
X74825Y-53657D01*
X74825Y-53657D02*
X74869Y-53657D01*
X76550Y-53657D02*
X76557Y-53657D01*
X76557Y-53657D02*
X82094Y-53657D01*
X82094Y-53657D02*
X82708Y-53657D01*
X59736Y-53737D02*
X63095Y-53737D01*
X65064Y-53737D02*
X65064Y-53737D01*
X65064Y-53737D02*
X73171Y-53737D01*
X74785Y-53737D02*
X74825Y-53737D01*
X74825Y-53737D02*
X74903Y-53737D01*
X76517Y-53737D02*
X76557Y-53737D01*
X76557Y-53737D02*
X82094Y-53737D01*
X82094Y-53737D02*
X82708Y-53737D01*
X59736Y-53817D02*
X63095Y-53817D01*
X65064Y-53817D02*
X65064Y-53817D01*
X65064Y-53817D02*
X73204Y-53817D01*
X74751Y-53817D02*
X74825Y-53817D01*
X74825Y-53817D02*
X74936Y-53817D01*
X76483Y-53817D02*
X76557Y-53817D01*
X76557Y-53817D02*
X82094Y-53817D01*
X82094Y-53817D02*
X82708Y-53817D01*
X59736Y-53897D02*
X63105Y-53897D01*
X65055Y-53897D02*
X65064Y-53897D01*
X65064Y-53897D02*
X73237Y-53897D01*
X74718Y-53897D02*
X74825Y-53897D01*
X74825Y-53897D02*
X74969Y-53897D01*
X76450Y-53897D02*
X76557Y-53897D01*
X76557Y-53897D02*
X82094Y-53897D01*
X82094Y-53897D02*
X82708Y-53897D01*
X59736Y-53977D02*
X63138Y-53977D01*
X65021Y-53977D02*
X65064Y-53977D01*
X65064Y-53977D02*
X73285Y-53977D01*
X74671Y-53977D02*
X74825Y-53977D01*
X74825Y-53977D02*
X75017Y-53977D01*
X76403Y-53977D02*
X76557Y-53977D01*
X76557Y-53977D02*
X82094Y-53977D01*
X82094Y-53977D02*
X82707Y-53977D01*
X59736Y-54057D02*
X63171Y-54057D01*
X64988Y-54057D02*
X65064Y-54057D01*
X65064Y-54057D02*
X73365Y-54057D01*
X74590Y-54057D02*
X74825Y-54057D01*
X74825Y-54057D02*
X75097Y-54057D01*
X76322Y-54057D02*
X76557Y-54057D01*
X76557Y-54057D02*
X82094Y-54057D01*
X82094Y-54057D02*
X82707Y-54057D01*
X59736Y-54137D02*
X63204Y-54137D01*
X64955Y-54137D02*
X65064Y-54137D01*
X65064Y-54137D02*
X73445Y-54137D01*
X74510Y-54137D02*
X74825Y-54137D01*
X74825Y-54137D02*
X75177Y-54137D01*
X76242Y-54137D02*
X76557Y-54137D01*
X76557Y-54137D02*
X82094Y-54137D01*
X82094Y-54137D02*
X82707Y-54137D01*
X59736Y-54217D02*
X63237Y-54217D01*
X64922Y-54217D02*
X65064Y-54217D01*
X65064Y-54217D02*
X73563Y-54217D01*
X74392Y-54217D02*
X74825Y-54217D01*
X74825Y-54217D02*
X75295Y-54217D01*
X76124Y-54217D02*
X76557Y-54217D01*
X76557Y-54217D02*
X82094Y-54217D01*
X82094Y-54217D02*
X82707Y-54217D01*
X59736Y-54297D02*
X63306Y-54297D01*
X64853Y-54297D02*
X65064Y-54297D01*
X65064Y-54297D02*
X73756Y-54297D01*
X74199Y-54297D02*
X74825Y-54297D01*
X74825Y-54297D02*
X75488Y-54297D01*
X75931Y-54297D02*
X76557Y-54297D01*
X76557Y-54297D02*
X82094Y-54297D01*
X82094Y-54297D02*
X82707Y-54297D01*
X59736Y-54377D02*
X63386Y-54377D01*
X64773Y-54377D02*
X65064Y-54377D01*
X65064Y-54377D02*
X74825Y-54377D01*
X74825Y-54377D02*
X76557Y-54377D01*
X76557Y-54377D02*
X82094Y-54377D01*
X82094Y-54377D02*
X82707Y-54377D01*
X59736Y-54457D02*
X63466Y-54457D01*
X64693Y-54457D02*
X65064Y-54457D01*
X65064Y-54457D02*
X74825Y-54457D01*
X74825Y-54457D02*
X76557Y-54457D01*
X76557Y-54457D02*
X82094Y-54457D01*
X82094Y-54457D02*
X82707Y-54457D01*
X59736Y-54537D02*
X63581Y-54537D01*
X64579Y-54537D02*
X65064Y-54537D01*
X65064Y-54537D02*
X74825Y-54537D01*
X74825Y-54537D02*
X76557Y-54537D01*
X76557Y-54537D02*
X82094Y-54537D01*
X82094Y-54537D02*
X82707Y-54537D01*
X59737Y-54617D02*
X63774Y-54617D01*
X64385Y-54617D02*
X65064Y-54617D01*
X65064Y-54617D02*
X74825Y-54617D01*
X74825Y-54617D02*
X76557Y-54617D01*
X76557Y-54617D02*
X82094Y-54617D01*
X82094Y-54617D02*
X82706Y-54617D01*
X59737Y-54697D02*
X65064Y-54697D01*
X65064Y-54697D02*
X74825Y-54697D01*
X74825Y-54697D02*
X76557Y-54697D01*
X76557Y-54697D02*
X82094Y-54697D01*
X82094Y-54697D02*
X82706Y-54697D01*
X59737Y-54777D02*
X65064Y-54777D01*
X65064Y-54777D02*
X74825Y-54777D01*
X74825Y-54777D02*
X76557Y-54777D01*
X76557Y-54777D02*
X82094Y-54777D01*
X82094Y-54777D02*
X82706Y-54777D01*
X59737Y-54857D02*
X65064Y-54857D01*
X65064Y-54857D02*
X74825Y-54857D01*
X74825Y-54857D02*
X76557Y-54857D01*
X76557Y-54857D02*
X82094Y-54857D01*
X82094Y-54857D02*
X82706Y-54857D01*
X59737Y-54937D02*
X65064Y-54937D01*
X65064Y-54937D02*
X74825Y-54937D01*
X74825Y-54937D02*
X76557Y-54937D01*
X76557Y-54937D02*
X82094Y-54937D01*
X82094Y-54937D02*
X82706Y-54937D01*
X59737Y-55017D02*
X65064Y-55017D01*
X65064Y-55017D02*
X74825Y-55017D01*
X74825Y-55017D02*
X76557Y-55017D01*
X76557Y-55017D02*
X82094Y-55017D01*
X82094Y-55017D02*
X82706Y-55017D01*
X59737Y-55097D02*
X65064Y-55097D01*
X65064Y-55097D02*
X74825Y-55097D01*
X74825Y-55097D02*
X76557Y-55097D01*
X76557Y-55097D02*
X82094Y-55097D01*
X82094Y-55097D02*
X82706Y-55097D01*
X59737Y-55177D02*
X65064Y-55177D01*
X65064Y-55177D02*
X74825Y-55177D01*
X74825Y-55177D02*
X76557Y-55177D01*
X76557Y-55177D02*
X82094Y-55177D01*
X82094Y-55177D02*
X82705Y-55177D01*
X59737Y-55257D02*
X65064Y-55257D01*
X65064Y-55257D02*
X74825Y-55257D01*
X74825Y-55257D02*
X76557Y-55257D01*
X76557Y-55257D02*
X82094Y-55257D01*
X82094Y-55257D02*
X82705Y-55257D01*
X59737Y-55337D02*
X65064Y-55337D01*
X65064Y-55337D02*
X74825Y-55337D01*
X74825Y-55337D02*
X76557Y-55337D01*
X76557Y-55337D02*
X82094Y-55337D01*
X82094Y-55337D02*
X82705Y-55337D01*
X59737Y-55417D02*
X65064Y-55417D01*
X65064Y-55417D02*
X74825Y-55417D01*
X74825Y-55417D02*
X76557Y-55417D01*
X76557Y-55417D02*
X82094Y-55417D01*
X82094Y-55417D02*
X82705Y-55417D01*
X59738Y-55497D02*
X65064Y-55497D01*
X65064Y-55497D02*
X74825Y-55497D01*
X74825Y-55497D02*
X76557Y-55497D01*
X76557Y-55497D02*
X82094Y-55497D01*
X82094Y-55497D02*
X82705Y-55497D01*
X59738Y-55577D02*
X65064Y-55577D01*
X65064Y-55577D02*
X74825Y-55577D01*
X74825Y-55577D02*
X76557Y-55577D01*
X76557Y-55577D02*
X82094Y-55577D01*
X82094Y-55577D02*
X82705Y-55577D01*
X59738Y-55657D02*
X65064Y-55657D01*
X65064Y-55657D02*
X74825Y-55657D01*
X74825Y-55657D02*
X76557Y-55657D01*
X76557Y-55657D02*
X82094Y-55657D01*
X82094Y-55657D02*
X82705Y-55657D01*
X59738Y-55737D02*
X65064Y-55737D01*
X65064Y-55737D02*
X74825Y-55737D01*
X74825Y-55737D02*
X76557Y-55737D01*
X76557Y-55737D02*
X82094Y-55737D01*
X82094Y-55737D02*
X82705Y-55737D01*
X59738Y-55817D02*
X65064Y-55817D01*
X65064Y-55817D02*
X74825Y-55817D01*
X74825Y-55817D02*
X76557Y-55817D01*
X76557Y-55817D02*
X82094Y-55817D01*
X82094Y-55817D02*
X82704Y-55817D01*
X59738Y-55897D02*
X65064Y-55897D01*
X65064Y-55897D02*
X74825Y-55897D01*
X74825Y-55897D02*
X76557Y-55897D01*
X76557Y-55897D02*
X82094Y-55897D01*
X82094Y-55897D02*
X82704Y-55897D01*
X59738Y-55977D02*
X65064Y-55977D01*
X65064Y-55977D02*
X74825Y-55977D01*
X74825Y-55977D02*
X76557Y-55977D01*
X76557Y-55977D02*
X82094Y-55977D01*
X82094Y-55977D02*
X82704Y-55977D01*
X59738Y-56057D02*
X65064Y-56057D01*
X65064Y-56057D02*
X74825Y-56057D01*
X74825Y-56057D02*
X76557Y-56057D01*
X76557Y-56057D02*
X82094Y-56057D01*
X82094Y-56057D02*
X82704Y-56057D01*
X59738Y-56137D02*
X65064Y-56137D01*
X65064Y-56137D02*
X74825Y-56137D01*
X74825Y-56137D02*
X76557Y-56137D01*
X76557Y-56137D02*
X82094Y-56137D01*
X82094Y-56137D02*
X82704Y-56137D01*
X61007Y-56217D02*
X65064Y-56217D01*
X65064Y-56217D02*
X74825Y-56217D01*
X74825Y-56217D02*
X76557Y-56217D01*
X76557Y-56217D02*
X82094Y-56217D01*
X82094Y-56217D02*
X82704Y-56217D01*
X73450Y-43961D02*
X73380Y-44031D01*
X73378Y-44031D01*
X73374Y-44026D01*
X73369Y-44030D01*
X73367Y-44030D01*
X73297Y-43961D01*
X73303Y-43956D01*
X73297Y-43950D01*
X73361Y-43886D01*
X73386Y-43887D01*
X73450Y-43950D01*
X73444Y-43956D01*
X73450Y-43961D01*
X70373Y-41908D02*
X70373Y-41908D01*
X70304Y-41988D02*
X70455Y-41988D01*
X73361Y-43886D02*
X73361Y-43886D01*
X73303Y-43966D02*
X73444Y-43966D01*
X59711Y-32697D02*
X82743Y-32697D01*
X59711Y-32777D02*
X82743Y-32777D01*
X59711Y-32857D02*
X82743Y-32857D01*
X59711Y-32937D02*
X82743Y-32937D01*
X59711Y-33017D02*
X82743Y-33017D01*
X59711Y-33097D02*
X82743Y-33097D01*
X59711Y-33177D02*
X82743Y-33177D01*
X59711Y-33257D02*
X82742Y-33257D01*
X59711Y-33337D02*
X82742Y-33337D01*
X59711Y-33417D02*
X82742Y-33417D01*
X59712Y-33497D02*
X82742Y-33497D01*
X59712Y-33577D02*
X82742Y-33577D01*
X59712Y-33657D02*
X82742Y-33657D01*
X59712Y-33737D02*
X82742Y-33737D01*
X59712Y-33817D02*
X82742Y-33817D01*
X59712Y-33897D02*
X82741Y-33897D01*
X59712Y-33977D02*
X82741Y-33977D01*
X59712Y-34057D02*
X73128Y-34057D01*
X73612Y-34057D02*
X82741Y-34057D01*
X59712Y-34137D02*
X65388Y-34137D01*
X70972Y-34137D02*
X72934Y-34137D01*
X73804Y-34137D02*
X82741Y-34137D01*
X59712Y-34217D02*
X65045Y-34217D01*
X71668Y-34217D02*
X72803Y-34217D01*
X73937Y-34217D02*
X74277Y-34217D01*
X74934Y-34217D02*
X82741Y-34217D01*
X59712Y-34297D02*
X64925Y-34297D01*
X71862Y-34297D02*
X72722Y-34297D01*
X75090Y-34297D02*
X82741Y-34297D01*
X59713Y-34377D02*
X64805Y-34377D01*
X71982Y-34377D02*
X72642Y-34377D01*
X75169Y-34377D02*
X82741Y-34377D01*
X59713Y-34457D02*
X64746Y-34457D01*
X72079Y-34457D02*
X72576Y-34457D01*
X75249Y-34457D02*
X82740Y-34457D01*
X59713Y-34537D02*
X64692Y-34537D01*
X72159Y-34537D02*
X72543Y-34537D01*
X75307Y-34537D02*
X78855Y-34537D01*
X79400Y-34537D02*
X82740Y-34537D01*
X59713Y-34617D02*
X64639Y-34617D01*
X72239Y-34617D02*
X72510Y-34617D01*
X75340Y-34617D02*
X78667Y-34617D01*
X81001Y-34617D02*
X82740Y-34617D01*
X59713Y-34697D02*
X64603Y-34697D01*
X72319Y-34697D02*
X72476Y-34697D01*
X75373Y-34697D02*
X78587Y-34697D01*
X81121Y-34697D02*
X82740Y-34697D01*
X59713Y-34777D02*
X64587Y-34777D01*
X72399Y-34777D02*
X72445Y-34777D01*
X75406Y-34777D02*
X78506Y-34777D01*
X81233Y-34777D02*
X82740Y-34777D01*
X59713Y-34857D02*
X64572Y-34857D01*
X75413Y-34857D02*
X78436Y-34857D01*
X81313Y-34857D02*
X82740Y-34857D01*
X59713Y-34937D02*
X64556Y-34937D01*
X75413Y-34937D02*
X78403Y-34937D01*
X81393Y-34937D02*
X82740Y-34937D01*
X59713Y-35017D02*
X64553Y-35017D01*
X75413Y-35017D02*
X78370Y-35017D01*
X81473Y-35017D02*
X82739Y-35017D01*
X59713Y-35097D02*
X64569Y-35097D01*
X75413Y-35097D02*
X78337Y-35097D01*
X81553Y-35097D02*
X82739Y-35097D01*
X59713Y-35177D02*
X64585Y-35177D01*
X75388Y-35177D02*
X78320Y-35177D01*
X81633Y-35177D02*
X82739Y-35177D01*
X59714Y-35257D02*
X64601Y-35257D01*
X75354Y-35257D02*
X78320Y-35257D01*
X81688Y-35257D02*
X82739Y-35257D01*
X59714Y-35337D02*
X64631Y-35337D01*
X75321Y-35337D02*
X78320Y-35337D01*
X81742Y-35337D02*
X82739Y-35337D01*
X59714Y-35417D02*
X64684Y-35417D01*
X75286Y-35417D02*
X78320Y-35417D01*
X81791Y-35417D02*
X82739Y-35417D01*
X59714Y-35497D02*
X64738Y-35497D01*
X75246Y-35497D02*
X78336Y-35497D01*
X81807Y-35497D02*
X82739Y-35497D01*
X59714Y-35577D02*
X64791Y-35577D01*
X75289Y-35577D02*
X77136Y-35577D01*
X77452Y-35577D02*
X78369Y-35577D01*
X81886Y-35577D02*
X82739Y-35577D01*
X59714Y-35657D02*
X64906Y-35657D01*
X75322Y-35657D02*
X76942Y-35657D01*
X77645Y-35657D02*
X78402Y-35657D01*
X81956Y-35657D02*
X82738Y-35657D01*
X59714Y-35737D02*
X65026Y-35737D01*
X75355Y-35737D02*
X76843Y-35737D01*
X77745Y-35737D02*
X78434Y-35737D01*
X81989Y-35737D02*
X82738Y-35737D01*
X59714Y-35817D02*
X65324Y-35817D01*
X75385Y-35817D02*
X76762Y-35817D01*
X77824Y-35817D02*
X78401Y-35817D01*
X82022Y-35817D02*
X82738Y-35817D01*
X59714Y-35897D02*
X69455Y-35897D01*
X75385Y-35897D02*
X76703Y-35897D01*
X77884Y-35897D02*
X78368Y-35897D01*
X82055Y-35897D02*
X82738Y-35897D01*
X59714Y-35977D02*
X69455Y-35977D01*
X75385Y-35977D02*
X76670Y-35977D01*
X77917Y-35977D02*
X78335Y-35977D01*
X82088Y-35977D02*
X82738Y-35977D01*
X59715Y-36057D02*
X69454Y-36057D01*
X75385Y-36057D02*
X76637Y-36057D01*
X77950Y-36057D02*
X78320Y-36057D01*
X82094Y-36057D02*
X82738Y-36057D01*
X59715Y-36137D02*
X69454Y-36137D01*
X75383Y-36137D02*
X76614Y-36137D01*
X77973Y-36137D02*
X78320Y-36137D01*
X82094Y-36137D02*
X82738Y-36137D01*
X59715Y-36217D02*
X69475Y-36217D01*
X75349Y-36217D02*
X76614Y-36217D01*
X77973Y-36217D02*
X78320Y-36217D01*
X82093Y-36217D02*
X82737Y-36217D01*
X59715Y-36297D02*
X69508Y-36297D01*
X75316Y-36297D02*
X76614Y-36297D01*
X77973Y-36297D02*
X78320Y-36297D01*
X82093Y-36297D02*
X82737Y-36297D01*
X59715Y-36377D02*
X69541Y-36377D01*
X75283Y-36377D02*
X76614Y-36377D01*
X77973Y-36377D02*
X78338Y-36377D01*
X82090Y-36377D02*
X82737Y-36377D01*
X59715Y-36457D02*
X69574Y-36457D01*
X75282Y-36457D02*
X76614Y-36457D01*
X77973Y-36457D02*
X77973Y-36457D01*
X77973Y-36457D02*
X78371Y-36457D01*
X82056Y-36457D02*
X82737Y-36457D01*
X59715Y-36537D02*
X69564Y-36537D01*
X75345Y-36537D02*
X76614Y-36537D01*
X77973Y-36537D02*
X77973Y-36537D01*
X77973Y-36537D02*
X78348Y-36537D01*
X82023Y-36537D02*
X82737Y-36537D01*
X59715Y-36617D02*
X69530Y-36617D01*
X75378Y-36617D02*
X76614Y-36617D01*
X77973Y-36617D02*
X77973Y-36617D01*
X77973Y-36617D02*
X78348Y-36617D01*
X81990Y-36617D02*
X82737Y-36617D01*
X59715Y-36697D02*
X69497Y-36697D01*
X75411Y-36697D02*
X76617Y-36697D01*
X77971Y-36697D02*
X77973Y-36697D01*
X77973Y-36697D02*
X78348Y-36697D01*
X81973Y-36697D02*
X82737Y-36697D01*
X59715Y-36777D02*
X69464Y-36777D01*
X75444Y-36777D02*
X76650Y-36777D01*
X77937Y-36777D02*
X77973Y-36777D01*
X77973Y-36777D02*
X78348Y-36777D01*
X82006Y-36777D02*
X82737Y-36777D01*
X59715Y-36857D02*
X69455Y-36857D01*
X75455Y-36857D02*
X76683Y-36857D01*
X77904Y-36857D02*
X77973Y-36857D01*
X77973Y-36857D02*
X78353Y-36857D01*
X82039Y-36857D02*
X82736Y-36857D01*
X59716Y-36937D02*
X69455Y-36937D01*
X75455Y-36937D02*
X76716Y-36937D01*
X77871Y-36937D02*
X77973Y-36937D01*
X77973Y-36937D02*
X78386Y-36937D01*
X82072Y-36937D02*
X82736Y-36937D01*
X59716Y-37017D02*
X69454Y-37017D01*
X75455Y-37017D02*
X76794Y-37017D01*
X77793Y-37017D02*
X77973Y-37017D01*
X77973Y-37017D02*
X78375Y-37017D01*
X82094Y-37017D02*
X82736Y-37017D01*
X59716Y-37097D02*
X69454Y-37097D01*
X75455Y-37097D02*
X76873Y-37097D01*
X77713Y-37097D02*
X77973Y-37097D01*
X77973Y-37097D02*
X78362Y-37097D01*
X82094Y-37097D02*
X82736Y-37097D01*
X59716Y-37177D02*
X69458Y-37177D01*
X75433Y-37177D02*
X77017Y-37177D01*
X77570Y-37177D02*
X77973Y-37177D01*
X77973Y-37177D02*
X78362Y-37177D01*
X82094Y-37177D02*
X82736Y-37177D01*
X59716Y-37257D02*
X69491Y-37257D01*
X75400Y-37257D02*
X77973Y-37257D01*
X77973Y-37257D02*
X78362Y-37257D01*
X82093Y-37257D02*
X82736Y-37257D01*
X59716Y-37337D02*
X69525Y-37337D01*
X75367Y-37337D02*
X77973Y-37337D01*
X77973Y-37337D02*
X78362Y-37337D01*
X82093Y-37337D02*
X82736Y-37337D01*
X59716Y-37417D02*
X69558Y-37417D01*
X75334Y-37417D02*
X77973Y-37417D01*
X77973Y-37417D02*
X78382Y-37417D01*
X82073Y-37417D02*
X82735Y-37417D01*
X59716Y-37497D02*
X69580Y-37497D01*
X75324Y-37497D02*
X77973Y-37497D01*
X77973Y-37497D02*
X78415Y-37497D01*
X82040Y-37497D02*
X82735Y-37497D01*
X59716Y-37577D02*
X69547Y-37577D01*
X75357Y-37577D02*
X77973Y-37577D01*
X77973Y-37577D02*
X78448Y-37577D01*
X82006Y-37577D02*
X82735Y-37577D01*
X59716Y-37657D02*
X69514Y-37657D01*
X75390Y-37657D02*
X77973Y-37657D01*
X77973Y-37657D02*
X78481Y-37657D01*
X81973Y-37657D02*
X82735Y-37657D01*
X59717Y-37737D02*
X69480Y-37737D01*
X75423Y-37737D02*
X77973Y-37737D01*
X77973Y-37737D02*
X78556Y-37737D01*
X81989Y-37737D02*
X82735Y-37737D01*
X59717Y-37817D02*
X69455Y-37817D01*
X75430Y-37817D02*
X77973Y-37817D01*
X77973Y-37817D02*
X78572Y-37817D01*
X82022Y-37817D02*
X82735Y-37817D01*
X59717Y-37897D02*
X69455Y-37897D01*
X75430Y-37897D02*
X77973Y-37897D01*
X77973Y-37897D02*
X78492Y-37897D01*
X82055Y-37897D02*
X82735Y-37897D01*
X59717Y-37977D02*
X69455Y-37977D01*
X75430Y-37977D02*
X77973Y-37977D01*
X77973Y-37977D02*
X78405Y-37977D01*
X82088Y-37977D02*
X82734Y-37977D01*
X59717Y-38057D02*
X69454Y-38057D01*
X75430Y-38057D02*
X77973Y-38057D01*
X77973Y-38057D02*
X78211Y-38057D01*
X82094Y-38057D02*
X82734Y-38057D01*
X59717Y-38137D02*
X69454Y-38137D01*
X75405Y-38137D02*
X77973Y-38137D01*
X77973Y-38137D02*
X78099Y-38137D01*
X82094Y-38137D02*
X82734Y-38137D01*
X59717Y-38217D02*
X69475Y-38217D01*
X75371Y-38217D02*
X77973Y-38217D01*
X77973Y-38217D02*
X78018Y-38217D01*
X82093Y-38217D02*
X82734Y-38217D01*
X59717Y-38297D02*
X69508Y-38297D01*
X75338Y-38297D02*
X77938Y-38297D01*
X82093Y-38297D02*
X82734Y-38297D01*
X59717Y-38377D02*
X69541Y-38377D01*
X75303Y-38377D02*
X77899Y-38377D01*
X82090Y-38377D02*
X82734Y-38377D01*
X59717Y-38457D02*
X69574Y-38457D01*
X75294Y-38457D02*
X77866Y-38457D01*
X82056Y-38457D02*
X82734Y-38457D01*
X59717Y-38537D02*
X69564Y-38537D01*
X75354Y-38537D02*
X77833Y-38537D01*
X82023Y-38537D02*
X82734Y-38537D01*
X59718Y-38617D02*
X69530Y-38617D01*
X75387Y-38617D02*
X77805Y-38617D01*
X81990Y-38617D02*
X82733Y-38617D01*
X59718Y-38697D02*
X69497Y-38697D01*
X75420Y-38697D02*
X77805Y-38697D01*
X81973Y-38697D02*
X82733Y-38697D01*
X59718Y-38777D02*
X69464Y-38777D01*
X75453Y-38777D02*
X77188Y-38777D01*
X77649Y-38777D02*
X77805Y-38777D01*
X82006Y-38777D02*
X82733Y-38777D01*
X59718Y-38857D02*
X69455Y-38857D01*
X75462Y-38857D02*
X77018Y-38857D01*
X82039Y-38857D02*
X82733Y-38857D01*
X59718Y-38937D02*
X69455Y-38937D01*
X75462Y-38937D02*
X76938Y-38937D01*
X82072Y-38937D02*
X82733Y-38937D01*
X59718Y-39017D02*
X69454Y-39017D01*
X75462Y-39017D02*
X76857Y-39017D01*
X82094Y-39017D02*
X82733Y-39017D01*
X59718Y-39097D02*
X69454Y-39097D01*
X75462Y-39097D02*
X76816Y-39097D01*
X82094Y-39097D02*
X82733Y-39097D01*
X59718Y-39177D02*
X69458Y-39177D01*
X75438Y-39177D02*
X76782Y-39177D01*
X82094Y-39177D02*
X82732Y-39177D01*
X59718Y-39257D02*
X69491Y-39257D01*
X75405Y-39257D02*
X76749Y-39257D01*
X82093Y-39257D02*
X82732Y-39257D01*
X59718Y-39337D02*
X69525Y-39337D01*
X75372Y-39337D02*
X76739Y-39337D01*
X82093Y-39337D02*
X82732Y-39337D01*
X59719Y-39417D02*
X69558Y-39417D01*
X75339Y-39417D02*
X76739Y-39417D01*
X82073Y-39417D02*
X82732Y-39417D01*
X59719Y-39497D02*
X69580Y-39497D01*
X75284Y-39497D02*
X76739Y-39497D01*
X82040Y-39497D02*
X82732Y-39497D01*
X59719Y-39577D02*
X69547Y-39577D01*
X75321Y-39577D02*
X76739Y-39577D01*
X82006Y-39577D02*
X82732Y-39577D01*
X59719Y-39657D02*
X69514Y-39657D01*
X75354Y-39657D02*
X76739Y-39657D01*
X81973Y-39657D02*
X82732Y-39657D01*
X59719Y-39737D02*
X69480Y-39737D01*
X75387Y-39737D02*
X76739Y-39737D01*
X81989Y-39737D02*
X82732Y-39737D01*
X59719Y-39817D02*
X69455Y-39817D01*
X75413Y-39817D02*
X76739Y-39817D01*
X82022Y-39817D02*
X82731Y-39817D01*
X59719Y-39897D02*
X69455Y-39897D01*
X75413Y-39897D02*
X76754Y-39897D01*
X82055Y-39897D02*
X82731Y-39897D01*
X59719Y-39977D02*
X69455Y-39977D01*
X75413Y-39977D02*
X76787Y-39977D01*
X82088Y-39977D02*
X82731Y-39977D01*
X59719Y-40057D02*
X69454Y-40057D01*
X75413Y-40057D02*
X76820Y-40057D01*
X82094Y-40057D02*
X82094Y-40057D01*
X82094Y-40057D02*
X82731Y-40057D01*
X59719Y-40137D02*
X69454Y-40137D01*
X75406Y-40137D02*
X76869Y-40137D01*
X82094Y-40137D02*
X82094Y-40137D01*
X82094Y-40137D02*
X82731Y-40137D01*
X59719Y-40217D02*
X69475Y-40217D01*
X75373Y-40217D02*
X76949Y-40217D01*
X82093Y-40217D02*
X82094Y-40217D01*
X82094Y-40217D02*
X82731Y-40217D01*
X59720Y-40297D02*
X69508Y-40297D01*
X75340Y-40297D02*
X77028Y-40297D01*
X82093Y-40297D02*
X82094Y-40297D01*
X82094Y-40297D02*
X82731Y-40297D01*
X59720Y-40377D02*
X69541Y-40377D01*
X75307Y-40377D02*
X77214Y-40377D01*
X77622Y-40377D02*
X77765Y-40377D01*
X82090Y-40377D02*
X82094Y-40377D01*
X82094Y-40377D02*
X82730Y-40377D01*
X59720Y-40457D02*
X69574Y-40457D01*
X75251Y-40457D02*
X77765Y-40457D01*
X82056Y-40457D02*
X82094Y-40457D01*
X82094Y-40457D02*
X82730Y-40457D01*
X59720Y-40537D02*
X69564Y-40537D01*
X75294Y-40537D02*
X77765Y-40537D01*
X82023Y-40537D02*
X82094Y-40537D01*
X82094Y-40537D02*
X82730Y-40537D01*
X59720Y-40617D02*
X69530Y-40617D01*
X75327Y-40617D02*
X77766Y-40617D01*
X81990Y-40617D02*
X82094Y-40617D01*
X82094Y-40617D02*
X82730Y-40617D01*
X59720Y-40697D02*
X69497Y-40697D01*
X75360Y-40697D02*
X77799Y-40697D01*
X81957Y-40697D02*
X82094Y-40697D01*
X82094Y-40697D02*
X82730Y-40697D01*
X59720Y-40777D02*
X69464Y-40777D01*
X75393Y-40777D02*
X77832Y-40777D01*
X81888Y-40777D02*
X82094Y-40777D01*
X82094Y-40777D02*
X82730Y-40777D01*
X59720Y-40857D02*
X69455Y-40857D01*
X75400Y-40857D02*
X77865Y-40857D01*
X81843Y-40857D02*
X82094Y-40857D01*
X82094Y-40857D02*
X82730Y-40857D01*
X59720Y-40937D02*
X69455Y-40937D01*
X75400Y-40937D02*
X77913Y-40937D01*
X81843Y-40937D02*
X82094Y-40937D01*
X82094Y-40937D02*
X82730Y-40937D01*
X59720Y-41017D02*
X69454Y-41017D01*
X75400Y-41017D02*
X77993Y-41017D01*
X79395Y-41017D02*
X79445Y-41017D01*
X81843Y-41017D02*
X82094Y-41017D01*
X82094Y-41017D02*
X82729Y-41017D01*
X59721Y-41097D02*
X69454Y-41097D01*
X75400Y-41097D02*
X78072Y-41097D01*
X79276Y-41097D02*
X79445Y-41097D01*
X81843Y-41097D02*
X82094Y-41097D01*
X82094Y-41097D02*
X82729Y-41097D01*
X59721Y-41177D02*
X69458Y-41177D01*
X75375Y-41177D02*
X78206Y-41177D01*
X78940Y-41177D02*
X79445Y-41177D01*
X81843Y-41177D02*
X82094Y-41177D01*
X82094Y-41177D02*
X82729Y-41177D01*
X59721Y-41257D02*
X69491Y-41257D01*
X75341Y-41257D02*
X78398Y-41257D01*
X78746Y-41257D02*
X79445Y-41257D01*
X81843Y-41257D02*
X82094Y-41257D01*
X82094Y-41257D02*
X82729Y-41257D01*
X59721Y-41337D02*
X69525Y-41337D01*
X75308Y-41337D02*
X79445Y-41337D01*
X81843Y-41337D02*
X82094Y-41337D01*
X82094Y-41337D02*
X82729Y-41337D01*
X59721Y-41417D02*
X69558Y-41417D01*
X75273Y-41417D02*
X79445Y-41417D01*
X81843Y-41417D02*
X82094Y-41417D01*
X82094Y-41417D02*
X82729Y-41417D01*
X59721Y-41497D02*
X69591Y-41497D01*
X75247Y-41497D02*
X79445Y-41497D01*
X81843Y-41497D02*
X82094Y-41497D01*
X82094Y-41497D02*
X82729Y-41497D01*
X59721Y-41577D02*
X69664Y-41577D01*
X71095Y-41577D02*
X71136Y-41577D01*
X75285Y-41577D02*
X79445Y-41577D01*
X81843Y-41577D02*
X82094Y-41577D01*
X82094Y-41577D02*
X82728Y-41577D01*
X59721Y-41657D02*
X69744Y-41657D01*
X71015Y-41657D02*
X71136Y-41657D01*
X75318Y-41657D02*
X79445Y-41657D01*
X81843Y-41657D02*
X82094Y-41657D01*
X82094Y-41657D02*
X82728Y-41657D01*
X59721Y-41737D02*
X69824Y-41737D01*
X70934Y-41737D02*
X71136Y-41737D01*
X75351Y-41737D02*
X79445Y-41737D01*
X81843Y-41737D02*
X82094Y-41737D01*
X82094Y-41737D02*
X82728Y-41737D01*
X59721Y-41817D02*
X69882Y-41817D01*
X70884Y-41817D02*
X71136Y-41817D01*
X75378Y-41817D02*
X79445Y-41817D01*
X81843Y-41817D02*
X82094Y-41817D01*
X82094Y-41817D02*
X82728Y-41817D01*
X59721Y-41897D02*
X69854Y-41897D01*
X70901Y-41897D02*
X71151Y-41897D01*
X75378Y-41897D02*
X79445Y-41897D01*
X81843Y-41897D02*
X82094Y-41897D01*
X82094Y-41897D02*
X82728Y-41897D01*
X59722Y-41977D02*
X69853Y-41977D01*
X70905Y-41977D02*
X71167Y-41977D01*
X75378Y-41977D02*
X79445Y-41977D01*
X81843Y-41977D02*
X82094Y-41977D01*
X82094Y-41977D02*
X82728Y-41977D01*
X59722Y-42057D02*
X69858Y-42057D01*
X70909Y-42057D02*
X71183Y-42057D01*
X75378Y-42057D02*
X79445Y-42057D01*
X81843Y-42057D02*
X82094Y-42057D01*
X82094Y-42057D02*
X82728Y-42057D01*
X59722Y-42137D02*
X68490Y-42137D01*
X69157Y-42137D02*
X69869Y-42137D01*
X70882Y-42137D02*
X71201Y-42137D01*
X75372Y-42137D02*
X79445Y-42137D01*
X81843Y-42137D02*
X82094Y-42137D01*
X82094Y-42137D02*
X82727Y-42137D01*
X59722Y-42217D02*
X68338Y-42217D01*
X70921Y-42217D02*
X71254Y-42217D01*
X75339Y-42217D02*
X79445Y-42217D01*
X81843Y-42217D02*
X82094Y-42217D01*
X82094Y-42217D02*
X82727Y-42217D01*
X59722Y-42297D02*
X68258Y-42297D01*
X71001Y-42297D02*
X71308Y-42297D01*
X75306Y-42297D02*
X79445Y-42297D01*
X81843Y-42297D02*
X82094Y-42297D01*
X82094Y-42297D02*
X82727Y-42297D01*
X59722Y-42377D02*
X68177Y-42377D01*
X71081Y-42377D02*
X71361Y-42377D01*
X75351Y-42377D02*
X79445Y-42377D01*
X81843Y-42377D02*
X82094Y-42377D01*
X82094Y-42377D02*
X82727Y-42377D01*
X59722Y-42457D02*
X68122Y-42457D01*
X71160Y-42457D02*
X71436Y-42457D01*
X75405Y-42457D02*
X79445Y-42457D01*
X81843Y-42457D02*
X82094Y-42457D01*
X82094Y-42457D02*
X82727Y-42457D01*
X59722Y-42537D02*
X68089Y-42537D01*
X71196Y-42537D02*
X71516Y-42537D01*
X75458Y-42537D02*
X79445Y-42537D01*
X81843Y-42537D02*
X82094Y-42537D01*
X82094Y-42537D02*
X82727Y-42537D01*
X59722Y-42617D02*
X68055Y-42617D01*
X71229Y-42617D02*
X71596Y-42617D01*
X75494Y-42617D02*
X79445Y-42617D01*
X81843Y-42617D02*
X82094Y-42617D01*
X82094Y-42617D02*
X82727Y-42617D01*
X59722Y-42697D02*
X68022Y-42697D01*
X71262Y-42697D02*
X71676Y-42697D01*
X75510Y-42697D02*
X79445Y-42697D01*
X81843Y-42697D02*
X82094Y-42697D01*
X82094Y-42697D02*
X82727Y-42697D01*
X59723Y-42777D02*
X68016Y-42777D01*
X71295Y-42777D02*
X71756Y-42777D01*
X75525Y-42777D02*
X79445Y-42777D01*
X81843Y-42777D02*
X82094Y-42777D01*
X82094Y-42777D02*
X82726Y-42777D01*
X59723Y-42857D02*
X68016Y-42857D01*
X71305Y-42857D02*
X71836Y-42857D01*
X75541Y-42857D02*
X79445Y-42857D01*
X81843Y-42857D02*
X82094Y-42857D01*
X82094Y-42857D02*
X82726Y-42857D01*
X59723Y-42937D02*
X68016Y-42937D01*
X71305Y-42937D02*
X71916Y-42937D01*
X75544Y-42937D02*
X79445Y-42937D01*
X81843Y-42937D02*
X82094Y-42937D01*
X82094Y-42937D02*
X82726Y-42937D01*
X59723Y-43017D02*
X68016Y-43017D01*
X71304Y-43017D02*
X71996Y-43017D01*
X75528Y-43017D02*
X79445Y-43017D01*
X81843Y-43017D02*
X82094Y-43017D01*
X82094Y-43017D02*
X82726Y-43017D01*
X59723Y-43097D02*
X68042Y-43097D01*
X71304Y-43097D02*
X72076Y-43097D01*
X75512Y-43097D02*
X79445Y-43097D01*
X81843Y-43097D02*
X82094Y-43097D01*
X82094Y-43097D02*
X82726Y-43097D01*
X59723Y-43177D02*
X68075Y-43177D01*
X71301Y-43177D02*
X72156Y-43177D01*
X75496Y-43177D02*
X79445Y-43177D01*
X81843Y-43177D02*
X82094Y-43177D01*
X82094Y-43177D02*
X82726Y-43177D01*
X59723Y-43257D02*
X68108Y-43257D01*
X71268Y-43257D02*
X72236Y-43257D01*
X75466Y-43257D02*
X79445Y-43257D01*
X81843Y-43257D02*
X82094Y-43257D01*
X82094Y-43257D02*
X82726Y-43257D01*
X59723Y-43337D02*
X68146Y-43337D01*
X71234Y-43337D02*
X72316Y-43337D01*
X75413Y-43337D02*
X79445Y-43337D01*
X81843Y-43337D02*
X82094Y-43337D01*
X82094Y-43337D02*
X82725Y-43337D01*
X59723Y-43417D02*
X68226Y-43417D01*
X71201Y-43417D02*
X72396Y-43417D01*
X75359Y-43417D02*
X79445Y-43417D01*
X81843Y-43417D02*
X82094Y-43417D01*
X82094Y-43417D02*
X82725Y-43417D01*
X59723Y-43497D02*
X68148Y-43497D01*
X71182Y-43497D02*
X72476Y-43497D01*
X75306Y-43497D02*
X79445Y-43497D01*
X81843Y-43497D02*
X82094Y-43497D01*
X82094Y-43497D02*
X82725Y-43497D01*
X59723Y-43577D02*
X68094Y-43577D01*
X71215Y-43577D02*
X72577Y-43577D01*
X75219Y-43577D02*
X79445Y-43577D01*
X81843Y-43577D02*
X82094Y-43577D01*
X82094Y-43577D02*
X82725Y-43577D01*
X59724Y-43657D02*
X68061Y-43657D01*
X71248Y-43657D02*
X72697Y-43657D01*
X75100Y-43657D02*
X79445Y-43657D01*
X81843Y-43657D02*
X82094Y-43657D01*
X82094Y-43657D02*
X82725Y-43657D01*
X59724Y-43737D02*
X68027Y-43737D01*
X71281Y-43737D02*
X72840Y-43737D01*
X74980Y-43737D02*
X79445Y-43737D01*
X81843Y-43737D02*
X82094Y-43737D01*
X82094Y-43737D02*
X82725Y-43737D01*
X59724Y-43817D02*
X67994Y-43817D01*
X71305Y-43817D02*
X72866Y-43817D01*
X73889Y-43817D02*
X79445Y-43817D01*
X81843Y-43817D02*
X82094Y-43817D01*
X82094Y-43817D02*
X82725Y-43817D01*
X59724Y-43897D02*
X67987Y-43897D01*
X71305Y-43897D02*
X72845Y-43897D01*
X73896Y-43897D02*
X79445Y-43897D01*
X81843Y-43897D02*
X82094Y-43897D01*
X82094Y-43897D02*
X82725Y-43897D01*
X59724Y-43977D02*
X67987Y-43977D01*
X71305Y-43977D02*
X72849Y-43977D01*
X73900Y-43977D02*
X79445Y-43977D01*
X81838Y-43977D02*
X82094Y-43977D01*
X82094Y-43977D02*
X82724Y-43977D01*
X59724Y-44057D02*
X67986Y-44057D01*
X71304Y-44057D02*
X72853Y-44057D01*
X73895Y-44057D02*
X79383Y-44057D01*
X81822Y-44057D02*
X82094Y-44057D01*
X82094Y-44057D02*
X82724Y-44057D01*
X59724Y-44137D02*
X67986Y-44137D01*
X71304Y-44137D02*
X72875Y-44137D01*
X73866Y-44137D02*
X79303Y-44137D01*
X81806Y-44137D02*
X82094Y-44137D01*
X82094Y-44137D02*
X82724Y-44137D01*
X59724Y-44217D02*
X68009Y-44217D01*
X71282Y-44217D02*
X72805Y-44217D01*
X73943Y-44217D02*
X74465Y-44217D01*
X75040Y-44217D02*
X79223Y-44217D01*
X81790Y-44217D02*
X82094Y-44217D01*
X82094Y-44217D02*
X82724Y-44217D01*
X59724Y-44297D02*
X68042Y-44297D01*
X71249Y-44297D02*
X72724Y-44297D01*
X75220Y-44297D02*
X79143Y-44297D01*
X81740Y-44297D02*
X82094Y-44297D01*
X82094Y-44297D02*
X82724Y-44297D01*
X59724Y-44377D02*
X68075Y-44377D01*
X71215Y-44377D02*
X72644Y-44377D01*
X75300Y-44377D02*
X79063Y-44377D01*
X81686Y-44377D02*
X82094Y-44377D01*
X82094Y-44377D02*
X82724Y-44377D01*
X59725Y-44457D02*
X68108Y-44457D01*
X71182Y-44457D02*
X72579Y-44457D01*
X75379Y-44457D02*
X78983Y-44457D01*
X81630Y-44457D02*
X82094Y-44457D01*
X82094Y-44457D02*
X82724Y-44457D01*
X59725Y-44537D02*
X68182Y-44537D01*
X71198Y-44537D02*
X72546Y-44537D01*
X75446Y-44537D02*
X78903Y-44537D01*
X81550Y-44537D02*
X82094Y-44537D01*
X82094Y-44537D02*
X82723Y-44537D01*
X59725Y-44617D02*
X68262Y-44617D01*
X71231Y-44617D02*
X72513Y-44617D01*
X75480Y-44617D02*
X78823Y-44617D01*
X81470Y-44617D02*
X82094Y-44617D01*
X82094Y-44617D02*
X82723Y-44617D01*
X59725Y-44697D02*
X68342Y-44697D01*
X71264Y-44697D02*
X72479Y-44697D01*
X75513Y-44697D02*
X78743Y-44697D01*
X81390Y-44697D02*
X82094Y-44697D01*
X82094Y-44697D02*
X82723Y-44697D01*
X59725Y-44777D02*
X68531Y-44777D01*
X71297Y-44777D02*
X72449Y-44777D01*
X75546Y-44777D02*
X78663Y-44777D01*
X81310Y-44777D02*
X82094Y-44777D01*
X82094Y-44777D02*
X82723Y-44777D01*
X59725Y-44857D02*
X69455Y-44857D01*
X71305Y-44857D02*
X72449Y-44857D01*
X75560Y-44857D02*
X78583Y-44857D01*
X81230Y-44857D02*
X82094Y-44857D01*
X82094Y-44857D02*
X82723Y-44857D01*
X59725Y-44937D02*
X69455Y-44937D01*
X71305Y-44937D02*
X72449Y-44937D01*
X75560Y-44937D02*
X78503Y-44937D01*
X81150Y-44937D02*
X82094Y-44937D01*
X82094Y-44937D02*
X82723Y-44937D01*
X59725Y-45017D02*
X69454Y-45017D01*
X71304Y-45017D02*
X72448Y-45017D01*
X75560Y-45017D02*
X78423Y-45017D01*
X81070Y-45017D02*
X82094Y-45017D01*
X82094Y-45017D02*
X82723Y-45017D01*
X59725Y-45097D02*
X69454Y-45097D01*
X71304Y-45097D02*
X72448Y-45097D01*
X75560Y-45097D02*
X78343Y-45097D01*
X80990Y-45097D02*
X82094Y-45097D01*
X82094Y-45097D02*
X82722Y-45097D01*
X59725Y-45177D02*
X69461Y-45177D01*
X71298Y-45177D02*
X72464Y-45177D01*
X75927Y-45177D02*
X78263Y-45177D01*
X80910Y-45177D02*
X82094Y-45177D01*
X82094Y-45177D02*
X82722Y-45177D01*
X59725Y-45257D02*
X69494Y-45257D01*
X71265Y-45257D02*
X72497Y-45257D01*
X76120Y-45257D02*
X78183Y-45257D01*
X80830Y-45257D02*
X82094Y-45257D01*
X82094Y-45257D02*
X82722Y-45257D01*
X59726Y-45337D02*
X69527Y-45337D01*
X71232Y-45337D02*
X72530Y-45337D01*
X76228Y-45337D02*
X78103Y-45337D01*
X80750Y-45337D02*
X82094Y-45337D01*
X82094Y-45337D02*
X82722Y-45337D01*
X59726Y-45417D02*
X69560Y-45417D01*
X71199Y-45417D02*
X72563Y-45417D01*
X76307Y-45417D02*
X78023Y-45417D01*
X80670Y-45417D02*
X82094Y-45417D01*
X82094Y-45417D02*
X82722Y-45417D01*
X59726Y-45497D02*
X69578Y-45497D01*
X71182Y-45497D02*
X72563Y-45497D01*
X76387Y-45497D02*
X77943Y-45497D01*
X80590Y-45497D02*
X82094Y-45497D01*
X82094Y-45497D02*
X82722Y-45497D01*
X59726Y-45577D02*
X69544Y-45577D01*
X71215Y-45577D02*
X72529Y-45577D01*
X76425Y-45577D02*
X77863Y-45577D01*
X80510Y-45577D02*
X82094Y-45577D01*
X82094Y-45577D02*
X82722Y-45577D01*
X59726Y-45657D02*
X69511Y-45657D01*
X71248Y-45657D02*
X72496Y-45657D01*
X76458Y-45657D02*
X77783Y-45657D01*
X80430Y-45657D02*
X82094Y-45657D01*
X82094Y-45657D02*
X82722Y-45657D01*
X59726Y-45737D02*
X69478Y-45737D01*
X71281Y-45737D02*
X72463Y-45737D01*
X76491Y-45737D02*
X77703Y-45737D01*
X80350Y-45737D02*
X82094Y-45737D01*
X82094Y-45737D02*
X82721Y-45737D01*
X59726Y-45817D02*
X69455Y-45817D01*
X71305Y-45817D02*
X72449Y-45817D01*
X76517Y-45817D02*
X77623Y-45817D01*
X80270Y-45817D02*
X82094Y-45817D01*
X82094Y-45817D02*
X82721Y-45817D01*
X59726Y-45897D02*
X69455Y-45897D01*
X71305Y-45897D02*
X72449Y-45897D01*
X76519Y-45897D02*
X77489Y-45897D01*
X80190Y-45897D02*
X82094Y-45897D01*
X82094Y-45897D02*
X82721Y-45897D01*
X59726Y-45977D02*
X69455Y-45977D01*
X71305Y-45977D02*
X72448Y-45977D01*
X76521Y-45977D02*
X77310Y-45977D01*
X80110Y-45977D02*
X82094Y-45977D01*
X82094Y-45977D02*
X82721Y-45977D01*
X59726Y-46057D02*
X69454Y-46057D01*
X71304Y-46057D02*
X72448Y-46057D01*
X76517Y-46057D02*
X77230Y-46057D01*
X80030Y-46057D02*
X82094Y-46057D01*
X82094Y-46057D02*
X82721Y-46057D01*
X59726Y-46137D02*
X69454Y-46137D01*
X71304Y-46137D02*
X72448Y-46137D01*
X76788Y-46137D02*
X77149Y-46137D01*
X79950Y-46137D02*
X82094Y-46137D01*
X82094Y-46137D02*
X82721Y-46137D01*
X59727Y-46217D02*
X69477Y-46217D01*
X71282Y-46217D02*
X72480Y-46217D01*
X76945Y-46217D02*
X77083Y-46217D01*
X79870Y-46217D02*
X82094Y-46217D01*
X82094Y-46217D02*
X82721Y-46217D01*
X59727Y-46297D02*
X69510Y-46297D01*
X71249Y-46297D02*
X72514Y-46297D01*
X77024Y-46297D02*
X77050Y-46297D01*
X79790Y-46297D02*
X82094Y-46297D01*
X82094Y-46297D02*
X82720Y-46297D01*
X59727Y-46377D02*
X69544Y-46377D01*
X71215Y-46377D02*
X72547Y-46377D01*
X79710Y-46377D02*
X82094Y-46377D01*
X82094Y-46377D02*
X82720Y-46377D01*
X59727Y-46457D02*
X69577Y-46457D01*
X71182Y-46457D02*
X72579Y-46457D01*
X79630Y-46457D02*
X82094Y-46457D01*
X82094Y-46457D02*
X82720Y-46457D01*
X59727Y-46537D02*
X69561Y-46537D01*
X71198Y-46537D02*
X72546Y-46537D01*
X79550Y-46537D02*
X82094Y-46537D01*
X82094Y-46537D02*
X82720Y-46537D01*
X59727Y-46617D02*
X69528Y-46617D01*
X71231Y-46617D02*
X72513Y-46617D01*
X79470Y-46617D02*
X82094Y-46617D01*
X82094Y-46617D02*
X82720Y-46617D01*
X59727Y-46697D02*
X69495Y-46697D01*
X71264Y-46697D02*
X72479Y-46697D01*
X75061Y-46697D02*
X75376Y-46697D01*
X79390Y-46697D02*
X82094Y-46697D01*
X82094Y-46697D02*
X82720Y-46697D01*
X59727Y-46777D02*
X69461Y-46777D01*
X71297Y-46777D02*
X72449Y-46777D01*
X74613Y-46777D02*
X75854Y-46777D01*
X79310Y-46777D02*
X82094Y-46777D01*
X82094Y-46777D02*
X82720Y-46777D01*
X59727Y-46857D02*
X69455Y-46857D01*
X71305Y-46857D02*
X72449Y-46857D01*
X74693Y-46857D02*
X75854Y-46857D01*
X79230Y-46857D02*
X82094Y-46857D01*
X82094Y-46857D02*
X82720Y-46857D01*
X59727Y-46937D02*
X69455Y-46937D01*
X71305Y-46937D02*
X72449Y-46937D01*
X74773Y-46937D02*
X75854Y-46937D01*
X79150Y-46937D02*
X82094Y-46937D01*
X82094Y-46937D02*
X82719Y-46937D01*
X59728Y-47017D02*
X69454Y-47017D01*
X71304Y-47017D02*
X72448Y-47017D01*
X74835Y-47017D02*
X75854Y-47017D01*
X79070Y-47017D02*
X82094Y-47017D01*
X82094Y-47017D02*
X82719Y-47017D01*
X59728Y-47097D02*
X69454Y-47097D01*
X71304Y-47097D02*
X72448Y-47097D01*
X74888Y-47097D02*
X75854Y-47097D01*
X78990Y-47097D02*
X82094Y-47097D01*
X82094Y-47097D02*
X82719Y-47097D01*
X59728Y-47177D02*
X69461Y-47177D01*
X71298Y-47177D02*
X72464Y-47177D01*
X74942Y-47177D02*
X75854Y-47177D01*
X78910Y-47177D02*
X82094Y-47177D01*
X82094Y-47177D02*
X82719Y-47177D01*
X59728Y-47257D02*
X68706Y-47257D01*
X71265Y-47257D02*
X72497Y-47257D01*
X74968Y-47257D02*
X75873Y-47257D01*
X77194Y-47257D02*
X77239Y-47257D01*
X78830Y-47257D02*
X82094Y-47257D01*
X82094Y-47257D02*
X82719Y-47257D01*
X59728Y-47337D02*
X68516Y-47337D01*
X71232Y-47337D02*
X72530Y-47337D01*
X74984Y-47337D02*
X75906Y-47337D01*
X77161Y-47337D02*
X77275Y-47337D01*
X78796Y-47337D02*
X82094Y-47337D01*
X82094Y-47337D02*
X82719Y-47337D01*
X59728Y-47417D02*
X68434Y-47417D01*
X71199Y-47417D02*
X72563Y-47417D01*
X75000Y-47417D02*
X75939Y-47417D01*
X77128Y-47417D02*
X77275Y-47417D01*
X78763Y-47417D02*
X82094Y-47417D01*
X82094Y-47417D02*
X82719Y-47417D01*
X59728Y-47497D02*
X68354Y-47497D01*
X71182Y-47497D02*
X72563Y-47497D01*
X75012Y-47497D02*
X75994Y-47497D01*
X77074Y-47497D02*
X77241Y-47497D01*
X78767Y-47497D02*
X82094Y-47497D01*
X82094Y-47497D02*
X82718Y-47497D01*
X59728Y-47577D02*
X68278Y-47577D01*
X71215Y-47577D02*
X72529Y-47577D01*
X75012Y-47577D02*
X76074Y-47577D01*
X76993Y-47577D02*
X77208Y-47577D01*
X78801Y-47577D02*
X82094Y-47577D01*
X82094Y-47577D02*
X82718Y-47577D01*
X59728Y-47657D02*
X68244Y-47657D01*
X71248Y-47657D02*
X72496Y-47657D01*
X75012Y-47657D02*
X76161Y-47657D01*
X76907Y-47657D02*
X77197Y-47657D01*
X78812Y-47657D02*
X82094Y-47657D01*
X82094Y-47657D02*
X82718Y-47657D01*
X59728Y-47737D02*
X68211Y-47737D01*
X71281Y-47737D02*
X72463Y-47737D01*
X75012Y-47737D02*
X76353Y-47737D01*
X76713Y-47737D02*
X77197Y-47737D01*
X78812Y-47737D02*
X82094Y-47737D01*
X82094Y-47737D02*
X82718Y-47737D01*
X59728Y-47817D02*
X68178Y-47817D01*
X71305Y-47817D02*
X72449Y-47817D01*
X75012Y-47817D02*
X77197Y-47817D01*
X78812Y-47817D02*
X82094Y-47817D01*
X82094Y-47817D02*
X82718Y-47817D01*
X59729Y-47897D02*
X68155Y-47897D01*
X71305Y-47897D02*
X72449Y-47897D01*
X75012Y-47897D02*
X77197Y-47897D01*
X78812Y-47897D02*
X82094Y-47897D01*
X82094Y-47897D02*
X82718Y-47897D01*
X59729Y-47977D02*
X68155Y-47977D01*
X71305Y-47977D02*
X72448Y-47977D01*
X75012Y-47977D02*
X77218Y-47977D01*
X78791Y-47977D02*
X82094Y-47977D01*
X82094Y-47977D02*
X82718Y-47977D01*
X59729Y-48057D02*
X68154Y-48057D01*
X71304Y-48057D02*
X72448Y-48057D01*
X75012Y-48057D02*
X77251Y-48057D01*
X78758Y-48057D02*
X82094Y-48057D01*
X82094Y-48057D02*
X82717Y-48057D01*
X59729Y-48137D02*
X68154Y-48137D01*
X71304Y-48137D02*
X72448Y-48137D01*
X75012Y-48137D02*
X77284Y-48137D01*
X78724Y-48137D02*
X82094Y-48137D01*
X82094Y-48137D02*
X82717Y-48137D01*
X59729Y-48217D02*
X68161Y-48217D01*
X71282Y-48217D02*
X72480Y-48217D01*
X75012Y-48217D02*
X77318Y-48217D01*
X78691Y-48217D02*
X82094Y-48217D01*
X82094Y-48217D02*
X82717Y-48217D01*
X59729Y-48297D02*
X68194Y-48297D01*
X71249Y-48297D02*
X72514Y-48297D01*
X75012Y-48297D02*
X77395Y-48297D01*
X78615Y-48297D02*
X82094Y-48297D01*
X82094Y-48297D02*
X82717Y-48297D01*
X59729Y-48377D02*
X68227Y-48377D01*
X71215Y-48377D02*
X72547Y-48377D01*
X75012Y-48377D02*
X77474Y-48377D01*
X78534Y-48377D02*
X82094Y-48377D01*
X82094Y-48377D02*
X82717Y-48377D01*
X59729Y-48457D02*
X68260Y-48457D01*
X71182Y-48457D02*
X72580Y-48457D01*
X75012Y-48457D02*
X77565Y-48457D01*
X78444Y-48457D02*
X82094Y-48457D01*
X82094Y-48457D02*
X82717Y-48457D01*
X59729Y-48537D02*
X68312Y-48537D01*
X71129Y-48537D02*
X72610Y-48537D01*
X75012Y-48537D02*
X77758Y-48537D01*
X78251Y-48537D02*
X82094Y-48537D01*
X82094Y-48537D02*
X82717Y-48537D01*
X59729Y-48617D02*
X68392Y-48617D01*
X71049Y-48617D02*
X72610Y-48617D01*
X75012Y-48617D02*
X82094Y-48617D01*
X82094Y-48617D02*
X82717Y-48617D01*
X59730Y-48697D02*
X68472Y-48697D01*
X70969Y-48697D02*
X72610Y-48697D01*
X75012Y-48697D02*
X82094Y-48697D01*
X82094Y-48697D02*
X82716Y-48697D01*
X59730Y-48777D02*
X68608Y-48777D01*
X70868Y-48777D02*
X72526Y-48777D01*
X75012Y-48777D02*
X82094Y-48777D01*
X82094Y-48777D02*
X82716Y-48777D01*
X59730Y-48857D02*
X68801Y-48857D01*
X69158Y-48857D02*
X70084Y-48857D01*
X70674Y-48857D02*
X72321Y-48857D01*
X75012Y-48857D02*
X82094Y-48857D01*
X82094Y-48857D02*
X82716Y-48857D01*
X59730Y-48937D02*
X72177Y-48937D01*
X75012Y-48937D02*
X82094Y-48937D01*
X82094Y-48937D02*
X82716Y-48937D01*
X59730Y-49017D02*
X72088Y-49017D01*
X75012Y-49017D02*
X82094Y-49017D01*
X82094Y-49017D02*
X82716Y-49017D01*
X59730Y-49097D02*
X72011Y-49097D01*
X75012Y-49097D02*
X82094Y-49097D01*
X82094Y-49097D02*
X82716Y-49097D01*
X59730Y-49177D02*
X71963Y-49177D01*
X75012Y-49177D02*
X82094Y-49177D01*
X82094Y-49177D02*
X82716Y-49177D01*
X59730Y-49257D02*
X71935Y-49257D01*
X75012Y-49257D02*
X82094Y-49257D01*
X82094Y-49257D02*
X82715Y-49257D01*
X59730Y-49337D02*
X71903Y-49337D01*
X75029Y-49337D02*
X82094Y-49337D01*
X82094Y-49337D02*
X82715Y-49337D01*
X59730Y-49417D02*
X71880Y-49417D01*
X75062Y-49417D02*
X82094Y-49417D01*
X82094Y-49417D02*
X82715Y-49417D01*
X59730Y-49497D02*
X71863Y-49497D01*
X75091Y-49497D02*
X82094Y-49497D01*
X82094Y-49497D02*
X82715Y-49497D01*
X59731Y-49577D02*
X71845Y-49577D01*
X75091Y-49577D02*
X82094Y-49577D01*
X82094Y-49577D02*
X82715Y-49577D01*
X59731Y-49657D02*
X71828Y-49657D01*
X75091Y-49657D02*
X82094Y-49657D01*
X82094Y-49657D02*
X82715Y-49657D01*
X59731Y-49737D02*
X71782Y-49737D01*
X75091Y-49737D02*
X82094Y-49737D01*
X82094Y-49737D02*
X82715Y-49737D01*
X59731Y-49817D02*
X71742Y-49817D01*
X75088Y-49817D02*
X82094Y-49817D01*
X82094Y-49817D02*
X82715Y-49817D01*
X59731Y-49897D02*
X71708Y-49897D01*
X75054Y-49897D02*
X82094Y-49897D01*
X82094Y-49897D02*
X82714Y-49897D01*
X59731Y-49977D02*
X71675Y-49977D01*
X73545Y-49977D02*
X73546Y-49977D01*
X75021Y-49977D02*
X82094Y-49977D01*
X82094Y-49977D02*
X82714Y-49977D01*
X59731Y-50057D02*
X71646Y-50057D01*
X73300Y-50057D02*
X73579Y-50057D01*
X74988Y-50057D02*
X82094Y-50057D01*
X82094Y-50057D02*
X82714Y-50057D01*
X59731Y-50137D02*
X71646Y-50137D01*
X73261Y-50137D02*
X73631Y-50137D01*
X74937Y-50137D02*
X82094Y-50137D01*
X82094Y-50137D02*
X82714Y-50137D01*
X59731Y-50217D02*
X71646Y-50217D01*
X73261Y-50217D02*
X73711Y-50217D01*
X74856Y-50217D02*
X82094Y-50217D01*
X82094Y-50217D02*
X82714Y-50217D01*
X59731Y-50297D02*
X71646Y-50297D01*
X73261Y-50297D02*
X73790Y-50297D01*
X74776Y-50297D02*
X82094Y-50297D01*
X82094Y-50297D02*
X82714Y-50297D01*
X59732Y-50377D02*
X71650Y-50377D01*
X73258Y-50377D02*
X73933Y-50377D01*
X74634Y-50377D02*
X82094Y-50377D01*
X82094Y-50377D02*
X82714Y-50377D01*
X59732Y-50457D02*
X71683Y-50457D01*
X73224Y-50457D02*
X82094Y-50457D01*
X82094Y-50457D02*
X82713Y-50457D01*
X59732Y-50537D02*
X71716Y-50537D01*
X73191Y-50537D02*
X82094Y-50537D01*
X82094Y-50537D02*
X82713Y-50537D01*
X59732Y-50617D02*
X71749Y-50617D01*
X73158Y-50617D02*
X82094Y-50617D01*
X82094Y-50617D02*
X82713Y-50617D01*
X59732Y-50697D02*
X71801Y-50697D01*
X73107Y-50697D02*
X82094Y-50697D01*
X82094Y-50697D02*
X82713Y-50697D01*
X59732Y-50777D02*
X71881Y-50777D01*
X73026Y-50777D02*
X82094Y-50777D01*
X82094Y-50777D02*
X82713Y-50777D01*
X59732Y-50857D02*
X71960Y-50857D01*
X72946Y-50857D02*
X82094Y-50857D01*
X82094Y-50857D02*
X82713Y-50857D01*
X59732Y-50937D02*
X63847Y-50937D01*
X64313Y-50937D02*
X72103Y-50937D01*
X72804Y-50937D02*
X82094Y-50937D01*
X82094Y-50937D02*
X82713Y-50937D01*
X59732Y-51017D02*
X63653Y-51017D01*
X64506Y-51017D02*
X82094Y-51017D01*
X82094Y-51017D02*
X82712Y-51017D01*
X59732Y-51097D02*
X63496Y-51097D01*
X64663Y-51097D02*
X82094Y-51097D01*
X82094Y-51097D02*
X82712Y-51097D01*
X59732Y-51177D02*
X63416Y-51177D01*
X64743Y-51177D02*
X82094Y-51177D01*
X82094Y-51177D02*
X82712Y-51177D01*
X59733Y-51257D02*
X63336Y-51257D01*
X64823Y-51257D02*
X82094Y-51257D01*
X82094Y-51257D02*
X82712Y-51257D01*
X59733Y-51337D02*
X63256Y-51337D01*
X64903Y-51337D02*
X82094Y-51337D01*
X82094Y-51337D02*
X82712Y-51337D01*
X59733Y-51417D02*
X63217Y-51417D01*
X64943Y-51417D02*
X82094Y-51417D01*
X82094Y-51417D02*
X82712Y-51417D01*
X59733Y-51497D02*
X63183Y-51497D01*
X64976Y-51497D02*
X82094Y-51497D01*
X82094Y-51497D02*
X82712Y-51497D01*
X59733Y-51577D02*
X63150Y-51577D01*
X65009Y-51577D02*
X82094Y-51577D01*
X82094Y-51577D02*
X82712Y-51577D01*
X59733Y-51657D02*
X63117Y-51657D01*
X65042Y-51657D02*
X82094Y-51657D01*
X82094Y-51657D02*
X82711Y-51657D01*
X59733Y-51737D02*
X63095Y-51737D01*
X65064Y-51737D02*
X82094Y-51737D01*
X82094Y-51737D02*
X82711Y-51737D01*
X59733Y-51817D02*
X63095Y-51817D01*
X65064Y-51817D02*
X82094Y-51817D01*
X82094Y-51817D02*
X82711Y-51817D01*
X59733Y-51897D02*
X63095Y-51897D01*
X65064Y-51897D02*
X82094Y-51897D01*
X82094Y-51897D02*
X82711Y-51897D01*
X59733Y-51977D02*
X63095Y-51977D01*
X65064Y-51977D02*
X82094Y-51977D01*
X82094Y-51977D02*
X82711Y-51977D01*
X59734Y-52057D02*
X63095Y-52057D01*
X65064Y-52057D02*
X82094Y-52057D01*
X82094Y-52057D02*
X82711Y-52057D01*
X59734Y-52137D02*
X63110Y-52137D01*
X65050Y-52137D02*
X82094Y-52137D01*
X82094Y-52137D02*
X82711Y-52137D01*
X59734Y-52217D02*
X63143Y-52217D01*
X65016Y-52217D02*
X82094Y-52217D01*
X82094Y-52217D02*
X82710Y-52217D01*
X59734Y-52297D02*
X63176Y-52297D01*
X64983Y-52297D02*
X82094Y-52297D01*
X82094Y-52297D02*
X82710Y-52297D01*
X59734Y-52377D02*
X63209Y-52377D01*
X64950Y-52377D02*
X82094Y-52377D01*
X82094Y-52377D02*
X82710Y-52377D01*
X59734Y-52457D02*
X63242Y-52457D01*
X64917Y-52457D02*
X82094Y-52457D01*
X82094Y-52457D02*
X82710Y-52457D01*
X59734Y-52537D02*
X63318Y-52537D01*
X64841Y-52537D02*
X82094Y-52537D01*
X82094Y-52537D02*
X82710Y-52537D01*
X59734Y-52617D02*
X63398Y-52617D01*
X64761Y-52617D02*
X82094Y-52617D01*
X82094Y-52617D02*
X82710Y-52617D01*
X59734Y-52697D02*
X63478Y-52697D01*
X64681Y-52697D02*
X73635Y-52697D01*
X74320Y-52697D02*
X75367Y-52697D01*
X76052Y-52697D02*
X82094Y-52697D01*
X82094Y-52697D02*
X82710Y-52697D01*
X59734Y-52777D02*
X63610Y-52777D01*
X64550Y-52777D02*
X73475Y-52777D01*
X74481Y-52777D02*
X75207Y-52777D01*
X76213Y-52777D02*
X82094Y-52777D01*
X82094Y-52777D02*
X82710Y-52777D01*
X59734Y-52857D02*
X63508Y-52857D01*
X64651Y-52857D02*
X73395Y-52857D01*
X74560Y-52857D02*
X75127Y-52857D01*
X76292Y-52857D02*
X82094Y-52857D01*
X82094Y-52857D02*
X82709Y-52857D01*
X59735Y-52937D02*
X63428Y-52937D01*
X64731Y-52937D02*
X73315Y-52937D01*
X74640Y-52937D02*
X75047Y-52937D01*
X76372Y-52937D02*
X82094Y-52937D01*
X82094Y-52937D02*
X82709Y-52937D01*
X59735Y-53017D02*
X63348Y-53017D01*
X64811Y-53017D02*
X73249Y-53017D01*
X74706Y-53017D02*
X74981Y-53017D01*
X76438Y-53017D02*
X82094Y-53017D01*
X82094Y-53017D02*
X82709Y-53017D01*
X59735Y-53097D02*
X63268Y-53097D01*
X64891Y-53097D02*
X73216Y-53097D01*
X74739Y-53097D02*
X74948Y-53097D01*
X76471Y-53097D02*
X82094Y-53097D01*
X82094Y-53097D02*
X82709Y-53097D01*
X59735Y-53177D02*
X63222Y-53177D01*
X64938Y-53177D02*
X73183Y-53177D01*
X74772Y-53177D02*
X74915Y-53177D01*
X76504Y-53177D02*
X82094Y-53177D01*
X82094Y-53177D02*
X82709Y-53177D01*
X59735Y-53257D02*
X63188Y-53257D01*
X64971Y-53257D02*
X73150Y-53257D01*
X74805Y-53257D02*
X74882Y-53257D01*
X76537Y-53257D02*
X82094Y-53257D01*
X82094Y-53257D02*
X82709Y-53257D01*
X59735Y-53337D02*
X63155Y-53337D01*
X65004Y-53337D02*
X73131Y-53337D01*
X74825Y-53337D02*
X74825Y-53337D01*
X74825Y-53337D02*
X74863Y-53337D01*
X76557Y-53337D02*
X76557Y-53337D01*
X76557Y-53337D02*
X82094Y-53337D01*
X82094Y-53337D02*
X82709Y-53337D01*
X59735Y-53417D02*
X63122Y-53417D01*
X65037Y-53417D02*
X73131Y-53417D01*
X74825Y-53417D02*
X74825Y-53417D01*
X74825Y-53417D02*
X74863Y-53417D01*
X76557Y-53417D02*
X76557Y-53417D01*
X76557Y-53417D02*
X82094Y-53417D01*
X82094Y-53417D02*
X82708Y-53417D01*
X59735Y-53497D02*
X63095Y-53497D01*
X65064Y-53497D02*
X65064Y-53497D01*
X65064Y-53497D02*
X73130Y-53497D01*
X74824Y-53497D02*
X74825Y-53497D01*
X74825Y-53497D02*
X74862Y-53497D01*
X76556Y-53497D02*
X76557Y-53497D01*
X76557Y-53497D02*
X82094Y-53497D01*
X82094Y-53497D02*
X82708Y-53497D01*
X59735Y-53577D02*
X63095Y-53577D01*
X65064Y-53577D02*
X65064Y-53577D01*
X65064Y-53577D02*
X73130Y-53577D01*
X74824Y-53577D02*
X74825Y-53577D01*
X74825Y-53577D02*
X74862Y-53577D01*
X76556Y-53577D02*
X76557Y-53577D01*
X76557Y-53577D02*
X82094Y-53577D01*
X82094Y-53577D02*
X82708Y-53577D01*
X59735Y-53657D02*
X63095Y-53657D01*
X65064Y-53657D02*
X65064Y-53657D01*
X65064Y-53657D02*
X73137Y-53657D01*
X74818Y-53657D02*
X74825Y-53657D01*
X74825Y-53657D02*
X74869Y-53657D01*
X76550Y-53657D02*
X76557Y-53657D01*
X76557Y-53657D02*
X82094Y-53657D01*
X82094Y-53657D02*
X82708Y-53657D01*
X59736Y-53737D02*
X63095Y-53737D01*
X65064Y-53737D02*
X65064Y-53737D01*
X65064Y-53737D02*
X73171Y-53737D01*
X74785Y-53737D02*
X74825Y-53737D01*
X74825Y-53737D02*
X74903Y-53737D01*
X76517Y-53737D02*
X76557Y-53737D01*
X76557Y-53737D02*
X82094Y-53737D01*
X82094Y-53737D02*
X82708Y-53737D01*
X59736Y-53817D02*
X63095Y-53817D01*
X65064Y-53817D02*
X65064Y-53817D01*
X65064Y-53817D02*
X73204Y-53817D01*
X74751Y-53817D02*
X74825Y-53817D01*
X74825Y-53817D02*
X74936Y-53817D01*
X76483Y-53817D02*
X76557Y-53817D01*
X76557Y-53817D02*
X82094Y-53817D01*
X82094Y-53817D02*
X82708Y-53817D01*
X59736Y-53897D02*
X63105Y-53897D01*
X65055Y-53897D02*
X65064Y-53897D01*
X65064Y-53897D02*
X73237Y-53897D01*
X74718Y-53897D02*
X74825Y-53897D01*
X74825Y-53897D02*
X74969Y-53897D01*
X76450Y-53897D02*
X76557Y-53897D01*
X76557Y-53897D02*
X82094Y-53897D01*
X82094Y-53897D02*
X82708Y-53897D01*
X59736Y-53977D02*
X63138Y-53977D01*
X65021Y-53977D02*
X65064Y-53977D01*
X65064Y-53977D02*
X73285Y-53977D01*
X74671Y-53977D02*
X74825Y-53977D01*
X74825Y-53977D02*
X75017Y-53977D01*
X76403Y-53977D02*
X76557Y-53977D01*
X76557Y-53977D02*
X82094Y-53977D01*
X82094Y-53977D02*
X82707Y-53977D01*
X59736Y-54057D02*
X63171Y-54057D01*
X64988Y-54057D02*
X65064Y-54057D01*
X65064Y-54057D02*
X73365Y-54057D01*
X74590Y-54057D02*
X74825Y-54057D01*
X74825Y-54057D02*
X75097Y-54057D01*
X76322Y-54057D02*
X76557Y-54057D01*
X76557Y-54057D02*
X82094Y-54057D01*
X82094Y-54057D02*
X82707Y-54057D01*
X59736Y-54137D02*
X63204Y-54137D01*
X64955Y-54137D02*
X65064Y-54137D01*
X65064Y-54137D02*
X73445Y-54137D01*
X74510Y-54137D02*
X74825Y-54137D01*
X74825Y-54137D02*
X75177Y-54137D01*
X76242Y-54137D02*
X76557Y-54137D01*
X76557Y-54137D02*
X82094Y-54137D01*
X82094Y-54137D02*
X82707Y-54137D01*
X59736Y-54217D02*
X63237Y-54217D01*
X64922Y-54217D02*
X65064Y-54217D01*
X65064Y-54217D02*
X73563Y-54217D01*
X74392Y-54217D02*
X74825Y-54217D01*
X74825Y-54217D02*
X75295Y-54217D01*
X76124Y-54217D02*
X76557Y-54217D01*
X76557Y-54217D02*
X82094Y-54217D01*
X82094Y-54217D02*
X82707Y-54217D01*
X59736Y-54297D02*
X63306Y-54297D01*
X64853Y-54297D02*
X65064Y-54297D01*
X65064Y-54297D02*
X73756Y-54297D01*
X74199Y-54297D02*
X74825Y-54297D01*
X74825Y-54297D02*
X75488Y-54297D01*
X75931Y-54297D02*
X76557Y-54297D01*
X76557Y-54297D02*
X82094Y-54297D01*
X82094Y-54297D02*
X82707Y-54297D01*
X59736Y-54377D02*
X63386Y-54377D01*
X64773Y-54377D02*
X65064Y-54377D01*
X65064Y-54377D02*
X74825Y-54377D01*
X74825Y-54377D02*
X76557Y-54377D01*
X76557Y-54377D02*
X82094Y-54377D01*
X82094Y-54377D02*
X82707Y-54377D01*
X59736Y-54457D02*
X63466Y-54457D01*
X64693Y-54457D02*
X65064Y-54457D01*
X65064Y-54457D02*
X74825Y-54457D01*
X74825Y-54457D02*
X76557Y-54457D01*
X76557Y-54457D02*
X82094Y-54457D01*
X82094Y-54457D02*
X82707Y-54457D01*
X59736Y-54537D02*
X63581Y-54537D01*
X64579Y-54537D02*
X65064Y-54537D01*
X65064Y-54537D02*
X74825Y-54537D01*
X74825Y-54537D02*
X76557Y-54537D01*
X76557Y-54537D02*
X82094Y-54537D01*
X82094Y-54537D02*
X82707Y-54537D01*
X59737Y-54617D02*
X63774Y-54617D01*
X64385Y-54617D02*
X65064Y-54617D01*
X65064Y-54617D02*
X74825Y-54617D01*
X74825Y-54617D02*
X76557Y-54617D01*
X76557Y-54617D02*
X82094Y-54617D01*
X82094Y-54617D02*
X82706Y-54617D01*
X59737Y-54697D02*
X65064Y-54697D01*
X65064Y-54697D02*
X74825Y-54697D01*
X74825Y-54697D02*
X76557Y-54697D01*
X76557Y-54697D02*
X82094Y-54697D01*
X82094Y-54697D02*
X82706Y-54697D01*
X59737Y-54777D02*
X65064Y-54777D01*
X65064Y-54777D02*
X74825Y-54777D01*
X74825Y-54777D02*
X76557Y-54777D01*
X76557Y-54777D02*
X82094Y-54777D01*
X82094Y-54777D02*
X82706Y-54777D01*
X59737Y-54857D02*
X65064Y-54857D01*
X65064Y-54857D02*
X74825Y-54857D01*
X74825Y-54857D02*
X76557Y-54857D01*
X76557Y-54857D02*
X82094Y-54857D01*
X82094Y-54857D02*
X82706Y-54857D01*
X59737Y-54937D02*
X65064Y-54937D01*
X65064Y-54937D02*
X74825Y-54937D01*
X74825Y-54937D02*
X76557Y-54937D01*
X76557Y-54937D02*
X82094Y-54937D01*
X82094Y-54937D02*
X82706Y-54937D01*
X59737Y-55017D02*
X65064Y-55017D01*
X65064Y-55017D02*
X74825Y-55017D01*
X74825Y-55017D02*
X76557Y-55017D01*
X76557Y-55017D02*
X82094Y-55017D01*
X82094Y-55017D02*
X82706Y-55017D01*
X59737Y-55097D02*
X65064Y-55097D01*
X65064Y-55097D02*
X74825Y-55097D01*
X74825Y-55097D02*
X76557Y-55097D01*
X76557Y-55097D02*
X82094Y-55097D01*
X82094Y-55097D02*
X82706Y-55097D01*
X59737Y-55177D02*
X65064Y-55177D01*
X65064Y-55177D02*
X74825Y-55177D01*
X74825Y-55177D02*
X76557Y-55177D01*
X76557Y-55177D02*
X82094Y-55177D01*
X82094Y-55177D02*
X82705Y-55177D01*
X59737Y-55257D02*
X65064Y-55257D01*
X65064Y-55257D02*
X74825Y-55257D01*
X74825Y-55257D02*
X76557Y-55257D01*
X76557Y-55257D02*
X82094Y-55257D01*
X82094Y-55257D02*
X82705Y-55257D01*
X59737Y-55337D02*
X65064Y-55337D01*
X65064Y-55337D02*
X74825Y-55337D01*
X74825Y-55337D02*
X76557Y-55337D01*
X76557Y-55337D02*
X82094Y-55337D01*
X82094Y-55337D02*
X82705Y-55337D01*
X59737Y-55417D02*
X65064Y-55417D01*
X65064Y-55417D02*
X74825Y-55417D01*
X74825Y-55417D02*
X76557Y-55417D01*
X76557Y-55417D02*
X82094Y-55417D01*
X82094Y-55417D02*
X82705Y-55417D01*
X59738Y-55497D02*
X65064Y-55497D01*
X65064Y-55497D02*
X74825Y-55497D01*
X74825Y-55497D02*
X76557Y-55497D01*
X76557Y-55497D02*
X82094Y-55497D01*
X82094Y-55497D02*
X82705Y-55497D01*
X59738Y-55577D02*
X65064Y-55577D01*
X65064Y-55577D02*
X74825Y-55577D01*
X74825Y-55577D02*
X76557Y-55577D01*
X76557Y-55577D02*
X82094Y-55577D01*
X82094Y-55577D02*
X82705Y-55577D01*
X59738Y-55657D02*
X65064Y-55657D01*
X65064Y-55657D02*
X74825Y-55657D01*
X74825Y-55657D02*
X76557Y-55657D01*
X76557Y-55657D02*
X82094Y-55657D01*
X82094Y-55657D02*
X82705Y-55657D01*
X59738Y-55737D02*
X65064Y-55737D01*
X65064Y-55737D02*
X74825Y-55737D01*
X74825Y-55737D02*
X76557Y-55737D01*
X76557Y-55737D02*
X82094Y-55737D01*
X82094Y-55737D02*
X82705Y-55737D01*
X59738Y-55817D02*
X65064Y-55817D01*
X65064Y-55817D02*
X74825Y-55817D01*
X74825Y-55817D02*
X76557Y-55817D01*
X76557Y-55817D02*
X82094Y-55817D01*
X82094Y-55817D02*
X82704Y-55817D01*
X59738Y-55897D02*
X65064Y-55897D01*
X65064Y-55897D02*
X74825Y-55897D01*
X74825Y-55897D02*
X76557Y-55897D01*
X76557Y-55897D02*
X82094Y-55897D01*
X82094Y-55897D02*
X82704Y-55897D01*
X59738Y-55977D02*
X65064Y-55977D01*
X65064Y-55977D02*
X74825Y-55977D01*
X74825Y-55977D02*
X76557Y-55977D01*
X76557Y-55977D02*
X82094Y-55977D01*
X82094Y-55977D02*
X82704Y-55977D01*
X59738Y-56057D02*
X65064Y-56057D01*
X65064Y-56057D02*
X74825Y-56057D01*
X74825Y-56057D02*
X76557Y-56057D01*
X76557Y-56057D02*
X82094Y-56057D01*
X82094Y-56057D02*
X82704Y-56057D01*
X59738Y-56137D02*
X65064Y-56137D01*
X65064Y-56137D02*
X74825Y-56137D01*
X74825Y-56137D02*
X76557Y-56137D01*
X76557Y-56137D02*
X82094Y-56137D01*
X82094Y-56137D02*
X82704Y-56137D01*
X61007Y-56217D02*
X65064Y-56217D01*
X65064Y-56217D02*
X74825Y-56217D01*
X74825Y-56217D02*
X76557Y-56217D01*
X76557Y-56217D02*
X82094Y-56217D01*
X82094Y-56217D02*
X82704Y-56217D01*
X82743Y-32697D02*
X82704Y-56282D01*
X82094Y-56280D01*
X82094Y-39989D01*
X81965Y-39677D01*
X82093Y-39367D01*
X82094Y-38989D01*
X81965Y-38677D01*
X82093Y-38367D01*
X82094Y-37989D01*
X81965Y-37677D01*
X82093Y-37367D01*
X82094Y-36989D01*
X81965Y-36677D01*
X82093Y-36367D01*
X82094Y-35989D01*
X81949Y-35640D01*
X81807Y-35498D01*
X81789Y-35408D01*
X81638Y-35181D01*
X81218Y-34761D01*
X80991Y-34610D01*
X80724Y-34557D01*
X79449Y-34557D01*
X79289Y-34490D01*
X78968Y-34490D01*
X78671Y-34613D01*
X78443Y-34839D01*
X78320Y-35136D01*
X78320Y-35457D01*
X78435Y-35735D01*
X78320Y-36011D01*
X78320Y-36332D01*
X78373Y-36462D01*
X78348Y-36522D01*
X78348Y-36843D01*
X78397Y-36963D01*
X78362Y-37047D01*
X78362Y-37368D01*
X78485Y-37665D01*
X78604Y-37785D01*
X78417Y-37972D01*
X78156Y-38080D01*
X77973Y-38262D01*
X77973Y-36421D01*
X77973Y-36421D01*
X77973Y-36283D01*
X77973Y-36283D01*
X77973Y-36112D01*
X77870Y-35862D01*
X77679Y-35671D01*
X77429Y-35567D01*
X77159Y-35567D01*
X76909Y-35670D01*
X76718Y-35861D01*
X76614Y-36111D01*
X76614Y-36381D01*
X76614Y-36381D01*
X76614Y-36552D01*
X76614Y-36552D01*
X76614Y-36690D01*
X76717Y-36940D01*
X76908Y-37131D01*
X77158Y-37235D01*
X77428Y-37235D01*
X77678Y-37132D01*
X77869Y-36941D01*
X77973Y-36691D01*
X77973Y-36421D01*
X77973Y-38262D01*
X77928Y-38306D01*
X77805Y-38603D01*
X77805Y-38842D01*
X77804Y-38841D01*
X77554Y-38737D01*
X77284Y-38737D01*
X77034Y-38840D01*
X76843Y-39031D01*
X76739Y-39281D01*
X76739Y-39551D01*
X76739Y-39551D01*
X76739Y-39722D01*
X76739Y-39722D01*
X76739Y-39860D01*
X76842Y-40110D01*
X77033Y-40301D01*
X77283Y-40405D01*
X77553Y-40405D01*
X77765Y-40317D01*
X77765Y-40614D01*
X77888Y-40911D01*
X78114Y-41139D01*
X78411Y-41262D01*
X78732Y-41262D01*
X78995Y-41154D01*
X79003Y-41154D01*
X79270Y-41100D01*
X79445Y-40984D01*
X79445Y-43995D01*
X77581Y-45859D01*
X77320Y-45967D01*
X77092Y-46193D01*
X77042Y-46314D01*
X76919Y-46191D01*
X76669Y-46087D01*
X76517Y-46087D01*
X76517Y-45997D01*
X76526Y-45955D01*
X76522Y-45937D01*
X76525Y-45919D01*
X76517Y-45889D01*
X76517Y-45801D01*
X76474Y-45697D01*
X76472Y-45687D01*
X76467Y-45679D01*
X76459Y-45661D01*
X76458Y-45654D01*
X76455Y-45651D01*
X76394Y-45504D01*
X76168Y-45276D01*
X75871Y-45153D01*
X75552Y-45153D01*
X75560Y-45133D01*
X75560Y-44812D01*
X75437Y-44515D01*
X75211Y-44287D01*
X74914Y-44164D01*
X74593Y-44164D01*
X74368Y-44257D01*
X73983Y-44257D01*
X73898Y-44172D01*
X73860Y-44156D01*
X73903Y-44031D01*
X73892Y-43823D01*
X73886Y-43809D01*
X74645Y-43809D01*
X74645Y-43808D01*
X74915Y-43755D01*
X74969Y-43744D01*
X74969Y-43744D01*
X75243Y-43560D01*
X75302Y-43501D01*
X75486Y-43227D01*
X75550Y-42903D01*
X75486Y-42578D01*
X75303Y-42304D01*
X75378Y-42123D01*
X75378Y-41802D01*
X75255Y-41505D01*
X75220Y-41469D01*
X75277Y-41413D01*
X75400Y-41116D01*
X75400Y-40795D01*
X75277Y-40498D01*
X75243Y-40464D01*
X75290Y-40418D01*
X75413Y-40121D01*
X75413Y-39800D01*
X75290Y-39503D01*
X75271Y-39484D01*
X75339Y-39417D01*
X75462Y-39120D01*
X75462Y-38799D01*
X75339Y-38502D01*
X75259Y-38421D01*
X75307Y-38373D01*
X75430Y-38076D01*
X75430Y-37755D01*
X75307Y-37458D01*
X75301Y-37452D01*
X75332Y-37422D01*
X75455Y-37125D01*
X75455Y-36804D01*
X75332Y-36507D01*
X75258Y-36432D01*
X75262Y-36428D01*
X75385Y-36131D01*
X75385Y-35810D01*
X75262Y-35513D01*
X75226Y-35476D01*
X75290Y-35413D01*
X75413Y-35116D01*
X75413Y-34795D01*
X75290Y-34498D01*
X75064Y-34270D01*
X74767Y-34147D01*
X74446Y-34147D01*
X74175Y-34259D01*
X73979Y-34259D01*
X73894Y-34174D01*
X73554Y-34033D01*
X73186Y-34032D01*
X72846Y-34173D01*
X72586Y-34433D01*
X72445Y-34773D01*
X72445Y-34822D01*
X72035Y-34413D01*
X71774Y-34237D01*
X71465Y-34176D01*
X71041Y-34176D01*
X71023Y-34157D01*
X70784Y-34059D01*
X70525Y-34059D01*
X69975Y-34059D01*
X69787Y-34137D01*
X65399Y-34137D01*
X65394Y-34136D01*
X65069Y-34200D01*
X64795Y-34384D01*
X64611Y-34658D01*
X64547Y-34983D01*
X64611Y-35307D01*
X64795Y-35581D01*
X64796Y-35582D01*
X65070Y-35766D01*
X65070Y-35766D01*
X65124Y-35777D01*
X65395Y-35831D01*
X69455Y-35831D01*
X69454Y-36167D01*
X69585Y-36484D01*
X69455Y-36799D01*
X69454Y-37167D01*
X69585Y-37484D01*
X69455Y-37799D01*
X69454Y-38167D01*
X69585Y-38484D01*
X69455Y-38799D01*
X69454Y-39167D01*
X69585Y-39484D01*
X69455Y-39799D01*
X69454Y-40167D01*
X69585Y-40484D01*
X69455Y-40799D01*
X69454Y-41167D01*
X69595Y-41507D01*
X69855Y-41767D01*
X69893Y-41783D01*
X69850Y-41908D01*
X69861Y-42116D01*
X69886Y-42176D01*
X69252Y-42176D01*
X69133Y-42126D01*
X68985Y-42065D01*
X68664Y-42065D01*
X68367Y-42188D01*
X68139Y-42414D01*
X68016Y-42711D01*
X68016Y-43032D01*
X68077Y-43182D01*
X68139Y-43329D01*
X68227Y-43418D01*
X68113Y-43532D01*
X67987Y-43835D01*
X67986Y-44163D01*
X68112Y-44466D01*
X68344Y-44698D01*
X68647Y-44824D01*
X68975Y-44825D01*
X69089Y-44778D01*
X69461Y-44778D01*
X69455Y-44793D01*
X69454Y-45161D01*
X69585Y-45478D01*
X69455Y-45793D01*
X69454Y-46161D01*
X69585Y-46478D01*
X69455Y-46793D01*
X69454Y-47161D01*
X69461Y-47178D01*
X69040Y-47178D01*
X68864Y-47212D01*
X68816Y-47212D01*
X68771Y-47231D01*
X68733Y-47238D01*
X68701Y-47260D01*
X68513Y-47338D01*
X68281Y-47570D01*
X68155Y-47873D01*
X68154Y-48201D01*
X68280Y-48504D01*
X68512Y-48736D01*
X68815Y-48862D01*
X69143Y-48863D01*
X69349Y-48778D01*
X69894Y-48778D01*
X70195Y-48902D01*
X70563Y-48903D01*
X70903Y-48762D01*
X71163Y-48502D01*
X71304Y-48162D01*
X71305Y-47794D01*
X71174Y-47477D01*
X71304Y-47162D01*
X71305Y-46794D01*
X71174Y-46477D01*
X71304Y-46162D01*
X71305Y-45794D01*
X71174Y-45477D01*
X71304Y-45162D01*
X71305Y-44794D01*
X71174Y-44477D01*
X71304Y-44162D01*
X71305Y-43794D01*
X71175Y-43480D01*
X71304Y-43168D01*
X71305Y-42800D01*
X71164Y-42460D01*
X70904Y-42200D01*
X70866Y-42184D01*
X70909Y-42059D01*
X70898Y-41851D01*
X70870Y-41782D01*
X70903Y-41768D01*
X71136Y-41535D01*
X71136Y-41823D01*
X71197Y-42132D01*
X71373Y-42393D01*
X72512Y-43532D01*
X72669Y-43637D01*
X72773Y-43708D01*
X72773Y-43708D01*
X72821Y-43717D01*
X72849Y-43745D01*
X72886Y-43760D01*
X72844Y-43880D01*
X72855Y-44088D01*
X72883Y-44157D01*
X72850Y-44171D01*
X72590Y-44431D01*
X72449Y-44771D01*
X72448Y-45139D01*
X72579Y-45456D01*
X72449Y-45771D01*
X72448Y-46139D01*
X72579Y-46456D01*
X72449Y-46771D01*
X72448Y-47139D01*
X72579Y-47456D01*
X72449Y-47771D01*
X72448Y-48139D01*
X72589Y-48479D01*
X72610Y-48500D01*
X72610Y-48749D01*
X72377Y-48825D01*
X72296Y-48871D01*
X72210Y-48905D01*
X72173Y-48940D01*
X72130Y-48964D01*
X72072Y-49037D01*
X72005Y-49102D01*
X71985Y-49148D01*
X71954Y-49188D01*
X71929Y-49277D01*
X71892Y-49363D01*
X71818Y-49701D01*
X71769Y-49749D01*
X71646Y-50046D01*
X71646Y-50367D01*
X71769Y-50664D01*
X71995Y-50892D01*
X72292Y-51015D01*
X72613Y-51015D01*
X72910Y-50892D01*
X73138Y-50666D01*
X73261Y-50369D01*
X73261Y-50069D01*
X73546Y-49976D01*
X73599Y-50104D01*
X73825Y-50332D01*
X74122Y-50455D01*
X74443Y-50455D01*
X74740Y-50332D01*
X74968Y-50106D01*
X75091Y-49809D01*
X75091Y-49488D01*
X75012Y-49296D01*
X75012Y-47478D01*
X74957Y-47199D01*
X74957Y-47199D01*
X74878Y-47081D01*
X74799Y-46962D01*
X74799Y-46962D01*
X74598Y-46762D01*
X74902Y-46762D01*
X75165Y-46654D01*
X75273Y-46654D01*
X75548Y-46768D01*
X75854Y-46768D01*
X75854Y-46901D01*
X75854Y-46901D01*
X75854Y-47072D01*
X75854Y-47072D01*
X75854Y-47210D01*
X75957Y-47460D01*
X76148Y-47651D01*
X76398Y-47755D01*
X76668Y-47755D01*
X76918Y-47652D01*
X77109Y-47461D01*
X77207Y-47224D01*
X77244Y-47261D01*
X77291Y-47376D01*
X77197Y-47603D01*
X77197Y-47924D01*
X77320Y-48221D01*
X77546Y-48449D01*
X77843Y-48572D01*
X78164Y-48572D01*
X78461Y-48449D01*
X78689Y-48223D01*
X78812Y-47926D01*
X78812Y-47605D01*
X78749Y-47451D01*
X78829Y-47258D01*
X81638Y-44449D01*
X81789Y-44222D01*
X81843Y-43955D01*
X81843Y-40822D01*
X81948Y-40716D01*
X82093Y-40367D01*
X82094Y-39989D01*
X82094Y-56280D01*
X76557Y-56264D01*
X76557Y-53304D01*
X76428Y-52992D01*
X76190Y-52754D01*
X75879Y-52625D01*
X75542Y-52624D01*
X75230Y-52753D01*
X74992Y-52991D01*
X74863Y-53302D01*
X74862Y-53639D01*
X74991Y-53951D01*
X75229Y-54189D01*
X75540Y-54318D01*
X75877Y-54319D01*
X76189Y-54190D01*
X76427Y-53952D01*
X76556Y-53641D01*
X76557Y-53304D01*
X76557Y-56264D01*
X74825Y-56258D01*
X74825Y-53304D01*
X74696Y-52992D01*
X74458Y-52754D01*
X74147Y-52625D01*
X73810Y-52624D01*
X73498Y-52753D01*
X73260Y-52991D01*
X73131Y-53302D01*
X73130Y-53639D01*
X73259Y-53951D01*
X73497Y-54189D01*
X73808Y-54318D01*
X74145Y-54319D01*
X74457Y-54190D01*
X74695Y-53952D01*
X74824Y-53641D01*
X74825Y-53304D01*
X74825Y-56258D01*
X65064Y-56229D01*
X65064Y-53483D01*
X64915Y-53121D01*
X64638Y-52843D01*
X64513Y-52792D01*
X64636Y-52741D01*
X64914Y-52464D01*
X65064Y-52102D01*
X65064Y-51711D01*
X64915Y-51349D01*
X64638Y-51071D01*
X64276Y-50921D01*
X63885Y-50921D01*
X63523Y-51070D01*
X63245Y-51347D01*
X63095Y-51709D01*
X63095Y-52100D01*
X63244Y-52462D01*
X63521Y-52740D01*
X63646Y-52791D01*
X63523Y-52842D01*
X63245Y-53119D01*
X63095Y-53481D01*
X63095Y-53872D01*
X63244Y-54234D01*
X63521Y-54512D01*
X63883Y-54662D01*
X64274Y-54662D01*
X64636Y-54513D01*
X64914Y-54236D01*
X65064Y-53874D01*
X65064Y-53483D01*
X65064Y-56229D01*
X59738Y-56213D01*
X59711Y-32697D01*
X82743Y-32697D01*
M02*
