G04 (created by PCBNEW (2013-08-24 BZR 4298)-stable) date Sun 01 Sep 2013 12:51:11 PM PDT*
%MOIN*%
G04 Gerber Fmt 3.4, Leading zero omitted, Abs format*
%FSLAX34Y34*%
G01*
G70*
G90*
G04 APERTURE LIST*
%ADD10C,0.003937*%
%ADD11R,0.025200X0.025200*%
%ADD12R,0.007880X0.018880*%
%ADD13R,0.031480X0.015760*%
%ADD14R,0.022000X0.014000*%
%ADD15R,0.033080X0.059840*%
%ADD16R,0.014000X0.022000*%
%ADD17R,0.031480X0.031480*%
%ADD18R,0.003920X0.009440*%
%ADD19R,0.004724X0.003937*%
%ADD20R,0.004724X0.003920*%
%ADD21R,0.004730X0.003920*%
%ADD22R,0.011040X0.025200*%
G04 APERTURE END LIST*
G54D10*
G54D11*
X76596Y-52488D03*
X76596Y-54653D03*
X73092Y-52488D03*
G54D12*
X75159Y-52251D03*
X74214Y-52251D03*
X74529Y-52251D03*
X75474Y-52251D03*
X74849Y-52251D03*
G54D11*
X73092Y-54653D03*
G54D13*
X76443Y-42994D03*
X76443Y-44176D03*
X69769Y-52137D03*
X69769Y-53319D03*
X71524Y-52197D03*
X71524Y-53379D03*
G54D14*
X62790Y-44040D03*
X62790Y-43290D03*
G54D15*
X65940Y-41523D03*
X65978Y-45523D03*
G54D16*
X77089Y-38011D03*
X77839Y-38011D03*
X76869Y-34337D03*
X77619Y-34337D03*
G54D14*
X78919Y-49173D03*
X78919Y-49923D03*
X78919Y-51903D03*
X78919Y-52653D03*
X62790Y-45908D03*
X62790Y-46658D03*
X62790Y-41356D03*
X62790Y-40606D03*
G54D17*
X61950Y-53678D03*
X61950Y-51276D03*
X66212Y-53678D03*
X66212Y-51276D03*
G54D18*
X77517Y-39025D03*
X77321Y-39025D03*
X77321Y-40149D03*
G54D19*
X77753Y-40080D03*
G54D20*
X77753Y-39293D03*
X77753Y-39883D03*
X77753Y-39489D03*
X77753Y-39687D03*
X77753Y-39096D03*
X77084Y-39094D03*
X77084Y-39684D03*
X77084Y-39488D03*
X77084Y-39881D03*
X77084Y-39291D03*
G54D21*
X77084Y-40078D03*
G54D18*
X77517Y-40150D03*
G54D22*
X77424Y-39590D03*
G54D18*
X76632Y-46375D03*
X76436Y-46375D03*
X76436Y-47499D03*
G54D19*
X76868Y-47430D03*
G54D20*
X76868Y-46643D03*
X76868Y-47233D03*
X76868Y-46839D03*
X76868Y-47037D03*
X76868Y-46446D03*
X76199Y-46444D03*
X76199Y-47034D03*
X76199Y-46838D03*
X76199Y-47231D03*
X76199Y-46641D03*
G54D21*
X76199Y-47428D03*
G54D18*
X76632Y-47500D03*
G54D22*
X76539Y-46940D03*
G54D18*
X77392Y-35855D03*
X77196Y-35855D03*
X77196Y-36979D03*
G54D19*
X77628Y-36910D03*
G54D20*
X77628Y-36123D03*
X77628Y-36713D03*
X77628Y-36319D03*
X77628Y-36517D03*
X77628Y-35926D03*
X76959Y-35924D03*
X76959Y-36514D03*
X76959Y-36318D03*
X76959Y-36711D03*
X76959Y-36121D03*
G54D21*
X76959Y-36908D03*
G54D18*
X77392Y-36980D03*
G54D22*
X77299Y-36420D03*
M02*
