G04 #@! TF.GenerationSoftware,KiCad,Pcbnew,5.1.5-52549c5~86~ubuntu18.04.1*
G04 #@! TF.CreationDate,2020-12-07T21:32:19-08:00*
G04 #@! TF.ProjectId,heat2sound_rx_rev04,68656174-3273-46f7-956e-645f72785f72,rev?*
G04 #@! TF.SameCoordinates,Original*
G04 #@! TF.FileFunction,Paste,Top*
G04 #@! TF.FilePolarity,Positive*
%FSLAX46Y46*%
G04 Gerber Fmt 4.6, Leading zero omitted, Abs format (unit mm)*
G04 Created by KiCad (PCBNEW 5.1.5-52549c5~86~ubuntu18.04.1) date 2020-12-07 21:32:19*
%MOMM*%
%LPD*%
G04 APERTURE LIST*
%ADD10C,0.100000*%
%ADD11R,0.900000X1.000000*%
%ADD12R,0.899160X1.000760*%
%ADD13R,1.000000X0.900000*%
%ADD14R,1.000760X0.899160*%
%ADD15R,1.550000X0.600000*%
%ADD16R,1.597660X1.800860*%
%ADD17R,1.998980X1.998980*%
%ADD18R,1.600000X0.550000*%
%ADD19R,0.550000X1.600000*%
%ADD20R,1.000000X0.800000*%
G04 APERTURE END LIST*
D10*
G36*
X170147252Y-105425602D02*
G01*
X170159386Y-105427402D01*
X170171286Y-105430382D01*
X170182835Y-105434515D01*
X170193925Y-105439760D01*
X170204446Y-105446066D01*
X170214299Y-105453374D01*
X170223388Y-105461612D01*
X170231626Y-105470701D01*
X170238934Y-105480554D01*
X170245240Y-105491075D01*
X170250485Y-105502165D01*
X170254618Y-105513714D01*
X170257598Y-105525614D01*
X170259398Y-105537748D01*
X170260000Y-105550000D01*
X170260000Y-105800000D01*
X170259398Y-105812252D01*
X170257598Y-105824386D01*
X170254618Y-105836286D01*
X170250485Y-105847835D01*
X170245240Y-105858925D01*
X170238934Y-105869446D01*
X170231626Y-105879299D01*
X170223388Y-105888388D01*
X170214299Y-105896626D01*
X170204446Y-105903934D01*
X170193925Y-105910240D01*
X170182835Y-105915485D01*
X170171286Y-105919618D01*
X170159386Y-105922598D01*
X170147252Y-105924398D01*
X170135000Y-105925000D01*
X168760000Y-105925000D01*
X168747748Y-105924398D01*
X168735614Y-105922598D01*
X168723714Y-105919618D01*
X168712165Y-105915485D01*
X168701075Y-105910240D01*
X168690554Y-105903934D01*
X168680701Y-105896626D01*
X168671612Y-105888388D01*
X168663374Y-105879299D01*
X168656066Y-105869446D01*
X168649760Y-105858925D01*
X168644515Y-105847835D01*
X168640382Y-105836286D01*
X168637402Y-105824386D01*
X168635602Y-105812252D01*
X168635000Y-105800000D01*
X168635000Y-105550000D01*
X168635602Y-105537748D01*
X168637402Y-105525614D01*
X168640382Y-105513714D01*
X168644515Y-105502165D01*
X168649760Y-105491075D01*
X168656066Y-105480554D01*
X168663374Y-105470701D01*
X168671612Y-105461612D01*
X168680701Y-105453374D01*
X168690554Y-105446066D01*
X168701075Y-105439760D01*
X168712165Y-105434515D01*
X168723714Y-105430382D01*
X168735614Y-105427402D01*
X168747748Y-105425602D01*
X168760000Y-105425000D01*
X170135000Y-105425000D01*
X170147252Y-105425602D01*
G37*
G36*
X170147252Y-106075602D02*
G01*
X170159386Y-106077402D01*
X170171286Y-106080382D01*
X170182835Y-106084515D01*
X170193925Y-106089760D01*
X170204446Y-106096066D01*
X170214299Y-106103374D01*
X170223388Y-106111612D01*
X170231626Y-106120701D01*
X170238934Y-106130554D01*
X170245240Y-106141075D01*
X170250485Y-106152165D01*
X170254618Y-106163714D01*
X170257598Y-106175614D01*
X170259398Y-106187748D01*
X170260000Y-106200000D01*
X170260000Y-106450000D01*
X170259398Y-106462252D01*
X170257598Y-106474386D01*
X170254618Y-106486286D01*
X170250485Y-106497835D01*
X170245240Y-106508925D01*
X170238934Y-106519446D01*
X170231626Y-106529299D01*
X170223388Y-106538388D01*
X170214299Y-106546626D01*
X170204446Y-106553934D01*
X170193925Y-106560240D01*
X170182835Y-106565485D01*
X170171286Y-106569618D01*
X170159386Y-106572598D01*
X170147252Y-106574398D01*
X170135000Y-106575000D01*
X168760000Y-106575000D01*
X168747748Y-106574398D01*
X168735614Y-106572598D01*
X168723714Y-106569618D01*
X168712165Y-106565485D01*
X168701075Y-106560240D01*
X168690554Y-106553934D01*
X168680701Y-106546626D01*
X168671612Y-106538388D01*
X168663374Y-106529299D01*
X168656066Y-106519446D01*
X168649760Y-106508925D01*
X168644515Y-106497835D01*
X168640382Y-106486286D01*
X168637402Y-106474386D01*
X168635602Y-106462252D01*
X168635000Y-106450000D01*
X168635000Y-106200000D01*
X168635602Y-106187748D01*
X168637402Y-106175614D01*
X168640382Y-106163714D01*
X168644515Y-106152165D01*
X168649760Y-106141075D01*
X168656066Y-106130554D01*
X168663374Y-106120701D01*
X168671612Y-106111612D01*
X168680701Y-106103374D01*
X168690554Y-106096066D01*
X168701075Y-106089760D01*
X168712165Y-106084515D01*
X168723714Y-106080382D01*
X168735614Y-106077402D01*
X168747748Y-106075602D01*
X168760000Y-106075000D01*
X170135000Y-106075000D01*
X170147252Y-106075602D01*
G37*
G36*
X170147252Y-106725602D02*
G01*
X170159386Y-106727402D01*
X170171286Y-106730382D01*
X170182835Y-106734515D01*
X170193925Y-106739760D01*
X170204446Y-106746066D01*
X170214299Y-106753374D01*
X170223388Y-106761612D01*
X170231626Y-106770701D01*
X170238934Y-106780554D01*
X170245240Y-106791075D01*
X170250485Y-106802165D01*
X170254618Y-106813714D01*
X170257598Y-106825614D01*
X170259398Y-106837748D01*
X170260000Y-106850000D01*
X170260000Y-107100000D01*
X170259398Y-107112252D01*
X170257598Y-107124386D01*
X170254618Y-107136286D01*
X170250485Y-107147835D01*
X170245240Y-107158925D01*
X170238934Y-107169446D01*
X170231626Y-107179299D01*
X170223388Y-107188388D01*
X170214299Y-107196626D01*
X170204446Y-107203934D01*
X170193925Y-107210240D01*
X170182835Y-107215485D01*
X170171286Y-107219618D01*
X170159386Y-107222598D01*
X170147252Y-107224398D01*
X170135000Y-107225000D01*
X168760000Y-107225000D01*
X168747748Y-107224398D01*
X168735614Y-107222598D01*
X168723714Y-107219618D01*
X168712165Y-107215485D01*
X168701075Y-107210240D01*
X168690554Y-107203934D01*
X168680701Y-107196626D01*
X168671612Y-107188388D01*
X168663374Y-107179299D01*
X168656066Y-107169446D01*
X168649760Y-107158925D01*
X168644515Y-107147835D01*
X168640382Y-107136286D01*
X168637402Y-107124386D01*
X168635602Y-107112252D01*
X168635000Y-107100000D01*
X168635000Y-106850000D01*
X168635602Y-106837748D01*
X168637402Y-106825614D01*
X168640382Y-106813714D01*
X168644515Y-106802165D01*
X168649760Y-106791075D01*
X168656066Y-106780554D01*
X168663374Y-106770701D01*
X168671612Y-106761612D01*
X168680701Y-106753374D01*
X168690554Y-106746066D01*
X168701075Y-106739760D01*
X168712165Y-106734515D01*
X168723714Y-106730382D01*
X168735614Y-106727402D01*
X168747748Y-106725602D01*
X168760000Y-106725000D01*
X170135000Y-106725000D01*
X170147252Y-106725602D01*
G37*
G36*
X170147252Y-107375602D02*
G01*
X170159386Y-107377402D01*
X170171286Y-107380382D01*
X170182835Y-107384515D01*
X170193925Y-107389760D01*
X170204446Y-107396066D01*
X170214299Y-107403374D01*
X170223388Y-107411612D01*
X170231626Y-107420701D01*
X170238934Y-107430554D01*
X170245240Y-107441075D01*
X170250485Y-107452165D01*
X170254618Y-107463714D01*
X170257598Y-107475614D01*
X170259398Y-107487748D01*
X170260000Y-107500000D01*
X170260000Y-107750000D01*
X170259398Y-107762252D01*
X170257598Y-107774386D01*
X170254618Y-107786286D01*
X170250485Y-107797835D01*
X170245240Y-107808925D01*
X170238934Y-107819446D01*
X170231626Y-107829299D01*
X170223388Y-107838388D01*
X170214299Y-107846626D01*
X170204446Y-107853934D01*
X170193925Y-107860240D01*
X170182835Y-107865485D01*
X170171286Y-107869618D01*
X170159386Y-107872598D01*
X170147252Y-107874398D01*
X170135000Y-107875000D01*
X168760000Y-107875000D01*
X168747748Y-107874398D01*
X168735614Y-107872598D01*
X168723714Y-107869618D01*
X168712165Y-107865485D01*
X168701075Y-107860240D01*
X168690554Y-107853934D01*
X168680701Y-107846626D01*
X168671612Y-107838388D01*
X168663374Y-107829299D01*
X168656066Y-107819446D01*
X168649760Y-107808925D01*
X168644515Y-107797835D01*
X168640382Y-107786286D01*
X168637402Y-107774386D01*
X168635602Y-107762252D01*
X168635000Y-107750000D01*
X168635000Y-107500000D01*
X168635602Y-107487748D01*
X168637402Y-107475614D01*
X168640382Y-107463714D01*
X168644515Y-107452165D01*
X168649760Y-107441075D01*
X168656066Y-107430554D01*
X168663374Y-107420701D01*
X168671612Y-107411612D01*
X168680701Y-107403374D01*
X168690554Y-107396066D01*
X168701075Y-107389760D01*
X168712165Y-107384515D01*
X168723714Y-107380382D01*
X168735614Y-107377402D01*
X168747748Y-107375602D01*
X168760000Y-107375000D01*
X170135000Y-107375000D01*
X170147252Y-107375602D01*
G37*
G36*
X174372252Y-107375602D02*
G01*
X174384386Y-107377402D01*
X174396286Y-107380382D01*
X174407835Y-107384515D01*
X174418925Y-107389760D01*
X174429446Y-107396066D01*
X174439299Y-107403374D01*
X174448388Y-107411612D01*
X174456626Y-107420701D01*
X174463934Y-107430554D01*
X174470240Y-107441075D01*
X174475485Y-107452165D01*
X174479618Y-107463714D01*
X174482598Y-107475614D01*
X174484398Y-107487748D01*
X174485000Y-107500000D01*
X174485000Y-107750000D01*
X174484398Y-107762252D01*
X174482598Y-107774386D01*
X174479618Y-107786286D01*
X174475485Y-107797835D01*
X174470240Y-107808925D01*
X174463934Y-107819446D01*
X174456626Y-107829299D01*
X174448388Y-107838388D01*
X174439299Y-107846626D01*
X174429446Y-107853934D01*
X174418925Y-107860240D01*
X174407835Y-107865485D01*
X174396286Y-107869618D01*
X174384386Y-107872598D01*
X174372252Y-107874398D01*
X174360000Y-107875000D01*
X172985000Y-107875000D01*
X172972748Y-107874398D01*
X172960614Y-107872598D01*
X172948714Y-107869618D01*
X172937165Y-107865485D01*
X172926075Y-107860240D01*
X172915554Y-107853934D01*
X172905701Y-107846626D01*
X172896612Y-107838388D01*
X172888374Y-107829299D01*
X172881066Y-107819446D01*
X172874760Y-107808925D01*
X172869515Y-107797835D01*
X172865382Y-107786286D01*
X172862402Y-107774386D01*
X172860602Y-107762252D01*
X172860000Y-107750000D01*
X172860000Y-107500000D01*
X172860602Y-107487748D01*
X172862402Y-107475614D01*
X172865382Y-107463714D01*
X172869515Y-107452165D01*
X172874760Y-107441075D01*
X172881066Y-107430554D01*
X172888374Y-107420701D01*
X172896612Y-107411612D01*
X172905701Y-107403374D01*
X172915554Y-107396066D01*
X172926075Y-107389760D01*
X172937165Y-107384515D01*
X172948714Y-107380382D01*
X172960614Y-107377402D01*
X172972748Y-107375602D01*
X172985000Y-107375000D01*
X174360000Y-107375000D01*
X174372252Y-107375602D01*
G37*
G36*
X174372252Y-106725602D02*
G01*
X174384386Y-106727402D01*
X174396286Y-106730382D01*
X174407835Y-106734515D01*
X174418925Y-106739760D01*
X174429446Y-106746066D01*
X174439299Y-106753374D01*
X174448388Y-106761612D01*
X174456626Y-106770701D01*
X174463934Y-106780554D01*
X174470240Y-106791075D01*
X174475485Y-106802165D01*
X174479618Y-106813714D01*
X174482598Y-106825614D01*
X174484398Y-106837748D01*
X174485000Y-106850000D01*
X174485000Y-107100000D01*
X174484398Y-107112252D01*
X174482598Y-107124386D01*
X174479618Y-107136286D01*
X174475485Y-107147835D01*
X174470240Y-107158925D01*
X174463934Y-107169446D01*
X174456626Y-107179299D01*
X174448388Y-107188388D01*
X174439299Y-107196626D01*
X174429446Y-107203934D01*
X174418925Y-107210240D01*
X174407835Y-107215485D01*
X174396286Y-107219618D01*
X174384386Y-107222598D01*
X174372252Y-107224398D01*
X174360000Y-107225000D01*
X172985000Y-107225000D01*
X172972748Y-107224398D01*
X172960614Y-107222598D01*
X172948714Y-107219618D01*
X172937165Y-107215485D01*
X172926075Y-107210240D01*
X172915554Y-107203934D01*
X172905701Y-107196626D01*
X172896612Y-107188388D01*
X172888374Y-107179299D01*
X172881066Y-107169446D01*
X172874760Y-107158925D01*
X172869515Y-107147835D01*
X172865382Y-107136286D01*
X172862402Y-107124386D01*
X172860602Y-107112252D01*
X172860000Y-107100000D01*
X172860000Y-106850000D01*
X172860602Y-106837748D01*
X172862402Y-106825614D01*
X172865382Y-106813714D01*
X172869515Y-106802165D01*
X172874760Y-106791075D01*
X172881066Y-106780554D01*
X172888374Y-106770701D01*
X172896612Y-106761612D01*
X172905701Y-106753374D01*
X172915554Y-106746066D01*
X172926075Y-106739760D01*
X172937165Y-106734515D01*
X172948714Y-106730382D01*
X172960614Y-106727402D01*
X172972748Y-106725602D01*
X172985000Y-106725000D01*
X174360000Y-106725000D01*
X174372252Y-106725602D01*
G37*
G36*
X174372252Y-106075602D02*
G01*
X174384386Y-106077402D01*
X174396286Y-106080382D01*
X174407835Y-106084515D01*
X174418925Y-106089760D01*
X174429446Y-106096066D01*
X174439299Y-106103374D01*
X174448388Y-106111612D01*
X174456626Y-106120701D01*
X174463934Y-106130554D01*
X174470240Y-106141075D01*
X174475485Y-106152165D01*
X174479618Y-106163714D01*
X174482598Y-106175614D01*
X174484398Y-106187748D01*
X174485000Y-106200000D01*
X174485000Y-106450000D01*
X174484398Y-106462252D01*
X174482598Y-106474386D01*
X174479618Y-106486286D01*
X174475485Y-106497835D01*
X174470240Y-106508925D01*
X174463934Y-106519446D01*
X174456626Y-106529299D01*
X174448388Y-106538388D01*
X174439299Y-106546626D01*
X174429446Y-106553934D01*
X174418925Y-106560240D01*
X174407835Y-106565485D01*
X174396286Y-106569618D01*
X174384386Y-106572598D01*
X174372252Y-106574398D01*
X174360000Y-106575000D01*
X172985000Y-106575000D01*
X172972748Y-106574398D01*
X172960614Y-106572598D01*
X172948714Y-106569618D01*
X172937165Y-106565485D01*
X172926075Y-106560240D01*
X172915554Y-106553934D01*
X172905701Y-106546626D01*
X172896612Y-106538388D01*
X172888374Y-106529299D01*
X172881066Y-106519446D01*
X172874760Y-106508925D01*
X172869515Y-106497835D01*
X172865382Y-106486286D01*
X172862402Y-106474386D01*
X172860602Y-106462252D01*
X172860000Y-106450000D01*
X172860000Y-106200000D01*
X172860602Y-106187748D01*
X172862402Y-106175614D01*
X172865382Y-106163714D01*
X172869515Y-106152165D01*
X172874760Y-106141075D01*
X172881066Y-106130554D01*
X172888374Y-106120701D01*
X172896612Y-106111612D01*
X172905701Y-106103374D01*
X172915554Y-106096066D01*
X172926075Y-106089760D01*
X172937165Y-106084515D01*
X172948714Y-106080382D01*
X172960614Y-106077402D01*
X172972748Y-106075602D01*
X172985000Y-106075000D01*
X174360000Y-106075000D01*
X174372252Y-106075602D01*
G37*
G36*
X174372252Y-105425602D02*
G01*
X174384386Y-105427402D01*
X174396286Y-105430382D01*
X174407835Y-105434515D01*
X174418925Y-105439760D01*
X174429446Y-105446066D01*
X174439299Y-105453374D01*
X174448388Y-105461612D01*
X174456626Y-105470701D01*
X174463934Y-105480554D01*
X174470240Y-105491075D01*
X174475485Y-105502165D01*
X174479618Y-105513714D01*
X174482598Y-105525614D01*
X174484398Y-105537748D01*
X174485000Y-105550000D01*
X174485000Y-105800000D01*
X174484398Y-105812252D01*
X174482598Y-105824386D01*
X174479618Y-105836286D01*
X174475485Y-105847835D01*
X174470240Y-105858925D01*
X174463934Y-105869446D01*
X174456626Y-105879299D01*
X174448388Y-105888388D01*
X174439299Y-105896626D01*
X174429446Y-105903934D01*
X174418925Y-105910240D01*
X174407835Y-105915485D01*
X174396286Y-105919618D01*
X174384386Y-105922598D01*
X174372252Y-105924398D01*
X174360000Y-105925000D01*
X172985000Y-105925000D01*
X172972748Y-105924398D01*
X172960614Y-105922598D01*
X172948714Y-105919618D01*
X172937165Y-105915485D01*
X172926075Y-105910240D01*
X172915554Y-105903934D01*
X172905701Y-105896626D01*
X172896612Y-105888388D01*
X172888374Y-105879299D01*
X172881066Y-105869446D01*
X172874760Y-105858925D01*
X172869515Y-105847835D01*
X172865382Y-105836286D01*
X172862402Y-105824386D01*
X172860602Y-105812252D01*
X172860000Y-105800000D01*
X172860000Y-105550000D01*
X172860602Y-105537748D01*
X172862402Y-105525614D01*
X172865382Y-105513714D01*
X172869515Y-105502165D01*
X172874760Y-105491075D01*
X172881066Y-105480554D01*
X172888374Y-105470701D01*
X172896612Y-105461612D01*
X172905701Y-105453374D01*
X172915554Y-105446066D01*
X172926075Y-105439760D01*
X172937165Y-105434515D01*
X172948714Y-105430382D01*
X172960614Y-105427402D01*
X172972748Y-105425602D01*
X172985000Y-105425000D01*
X174360000Y-105425000D01*
X174372252Y-105425602D01*
G37*
D11*
X165898160Y-118700000D03*
D12*
X167401840Y-118700000D03*
X166878000Y-133604000D03*
D11*
X165374320Y-133604000D03*
D13*
X176170000Y-107541840D03*
D14*
X176170000Y-106038160D03*
D12*
X182050000Y-113690000D03*
D11*
X183553680Y-113690000D03*
X178218160Y-113560000D03*
D12*
X179721840Y-113560000D03*
X176313680Y-109700000D03*
X174810000Y-109700000D03*
X174750000Y-102250000D03*
X176253680Y-102250000D03*
X155921840Y-123430000D03*
X154418160Y-123430000D03*
D14*
X155000000Y-121001840D03*
X155000000Y-119498160D03*
D12*
X168001840Y-124750000D03*
X166498160Y-124750000D03*
D14*
X166275000Y-120923160D03*
X166275000Y-122426840D03*
X172500000Y-127000000D03*
X172500000Y-125496320D03*
D12*
X168645840Y-131826000D03*
X167142160Y-131826000D03*
D15*
X158300000Y-119845000D03*
X158300000Y-121115000D03*
X158300000Y-122385000D03*
X158300000Y-123655000D03*
X163700000Y-123655000D03*
X163700000Y-122385000D03*
X163700000Y-121115000D03*
X163700000Y-119845000D03*
D12*
X155437840Y-139446000D03*
D11*
X153934160Y-139446000D03*
X154686000Y-143002000D03*
D12*
X153182320Y-143002000D03*
X170931840Y-145034000D03*
D11*
X169428160Y-145034000D03*
X169428160Y-142748000D03*
D12*
X170931840Y-142748000D03*
D11*
X153148160Y-151500000D03*
D12*
X154651840Y-151500000D03*
D14*
X156100000Y-148148160D03*
D13*
X156100000Y-149651840D03*
D16*
X161394140Y-150622000D03*
X164233860Y-150622000D03*
D17*
X156265880Y-103301800D03*
X162366960Y-103301800D03*
X156265880Y-114127280D03*
X162366960Y-114127280D03*
D14*
X181700000Y-146948160D03*
X181700000Y-148451840D03*
D12*
X153048160Y-148800000D03*
X154551840Y-148800000D03*
D14*
X161225000Y-136153680D03*
X161225000Y-134650000D03*
X159275000Y-135098160D03*
X159275000Y-136601840D03*
D12*
X167248160Y-150500000D03*
X168751840Y-150500000D03*
D18*
X158310000Y-139948000D03*
X158310000Y-140748000D03*
X158310000Y-141548000D03*
X158310000Y-142348000D03*
X158310000Y-143148000D03*
X158310000Y-143948000D03*
X158310000Y-144748000D03*
X158310000Y-145548000D03*
D19*
X159760000Y-146998000D03*
X160560000Y-146998000D03*
X161360000Y-146998000D03*
X162160000Y-146998000D03*
X162960000Y-146998000D03*
X163760000Y-146998000D03*
X164560000Y-146998000D03*
X165360000Y-146998000D03*
D18*
X166810000Y-145548000D03*
X166810000Y-144748000D03*
X166810000Y-143948000D03*
X166810000Y-143148000D03*
X166810000Y-142348000D03*
X166810000Y-141548000D03*
X166810000Y-140748000D03*
X166810000Y-139948000D03*
D19*
X165360000Y-138498000D03*
X164560000Y-138498000D03*
X163760000Y-138498000D03*
X162960000Y-138498000D03*
X162160000Y-138498000D03*
X161360000Y-138498000D03*
X160560000Y-138498000D03*
X159760000Y-138498000D03*
D20*
X155178000Y-144538000D03*
X153178000Y-144538000D03*
X155178000Y-146038000D03*
X153178000Y-146038000D03*
D12*
X170444160Y-134112000D03*
D11*
X171947840Y-134112000D03*
M02*
