G04 (created by PCBNEW (2013-07-07 BZR 4022)-stable) date 8/8/2014 4:48:50 PM*
%MOIN*%
G04 Gerber Fmt 3.4, Leading zero omitted, Abs format*
%FSLAX34Y34*%
G01*
G70*
G90*
G04 APERTURE LIST*
%ADD10C,0.00590551*%
%ADD11R,0.0314961X0.011811*%
%ADD12R,0.011811X0.0314961*%
%ADD13R,0.19685X0.0299213*%
%ADD14R,0.177165X0.346457*%
%ADD15R,0.0394X0.0354*%
%ADD16C,0.0275591*%
%ADD17C,0.011811*%
G04 APERTURE END LIST*
G54D10*
G54D11*
X54625Y-42716D03*
X54625Y-42519D03*
X55629Y-42519D03*
X54625Y-42911D03*
X54625Y-43110D03*
X54625Y-43307D03*
G54D12*
X54931Y-43415D03*
X55114Y-43415D03*
X55324Y-43415D03*
G54D11*
X55629Y-43307D03*
X55629Y-43110D03*
X55629Y-42911D03*
X55629Y-42716D03*
G54D12*
X55324Y-42411D03*
X55122Y-42411D03*
X54931Y-42411D03*
G54D13*
X58031Y-41545D03*
X58031Y-42545D03*
X58031Y-43545D03*
X58031Y-43045D03*
X58031Y-44045D03*
X58031Y-42045D03*
G54D14*
X64350Y-42795D03*
G54D15*
X53582Y-43406D03*
X53582Y-42814D03*
X55433Y-41358D03*
X55433Y-40766D03*
X54724Y-41358D03*
X54724Y-40766D03*
G54D16*
X55944Y-41456D03*
X54566Y-44330D03*
X55413Y-44429D03*
X56259Y-42086D03*
X55944Y-43700D03*
X56653Y-43031D03*
X54055Y-43937D03*
G54D17*
X54448Y-43543D02*
X54448Y-43346D01*
X54448Y-43543D02*
X54552Y-43785D01*
X54566Y-44330D02*
X54552Y-43785D01*
X54488Y-43307D02*
X54625Y-43307D01*
X54448Y-43346D02*
X54488Y-43307D01*
X55433Y-41358D02*
X55847Y-41358D01*
X55847Y-41358D02*
X55944Y-41456D01*
X55629Y-43110D02*
X55866Y-43110D01*
X55984Y-44291D02*
X55413Y-44429D01*
X56299Y-43917D02*
X55984Y-44291D01*
X56338Y-43248D02*
X56299Y-43917D01*
X55866Y-43110D02*
X56338Y-43248D01*
X55114Y-43415D02*
X55118Y-43582D01*
X54486Y-44411D02*
X53810Y-44411D01*
X54566Y-44330D02*
X54486Y-44411D01*
X55118Y-43582D02*
X55413Y-44429D01*
X54625Y-42911D02*
X54096Y-42911D01*
X53877Y-43406D02*
X53582Y-43406D01*
X53937Y-43346D02*
X53877Y-43406D01*
X53937Y-43070D02*
X53937Y-43346D01*
X54096Y-42911D02*
X53937Y-43070D01*
X58031Y-44045D02*
X57175Y-44045D01*
X53818Y-44448D02*
X53810Y-44411D01*
X53810Y-44411D02*
X53582Y-43406D01*
X54212Y-45118D02*
X53818Y-44448D01*
X56377Y-45118D02*
X54212Y-45118D01*
X56889Y-44330D02*
X56811Y-44763D01*
X56811Y-44763D02*
X56377Y-45118D01*
X56968Y-44055D02*
X56889Y-44330D01*
X57175Y-44045D02*
X56968Y-44055D01*
X55629Y-42716D02*
X55944Y-42716D01*
X55984Y-42440D02*
X55905Y-42362D01*
X55984Y-42677D02*
X55984Y-42440D01*
X55944Y-42716D02*
X55984Y-42677D01*
X55629Y-42519D02*
X55866Y-42519D01*
X55590Y-41732D02*
X55433Y-41358D01*
X55787Y-42165D02*
X55590Y-41732D01*
X55905Y-42283D02*
X55787Y-42165D01*
X55905Y-42480D02*
X55905Y-42362D01*
X55905Y-42362D02*
X55905Y-42283D01*
X55866Y-42519D02*
X55905Y-42480D01*
X54724Y-41358D02*
X55433Y-41358D01*
X55629Y-42911D02*
X56181Y-42913D01*
X56456Y-42519D02*
X58031Y-42545D01*
X56181Y-42913D02*
X56456Y-42519D01*
X55629Y-43307D02*
X55787Y-43307D01*
X56340Y-42005D02*
X58031Y-42084D01*
X56259Y-42125D02*
X56340Y-42045D01*
X55824Y-43467D02*
X55944Y-43700D01*
X55787Y-43307D02*
X55824Y-43467D01*
X54625Y-42716D02*
X53680Y-42716D01*
X53680Y-42716D02*
X53582Y-42814D01*
X54625Y-43110D02*
X54330Y-43110D01*
X56667Y-43045D02*
X58031Y-43045D01*
X56653Y-43031D02*
X56667Y-43045D01*
X54212Y-43149D02*
X54055Y-43937D01*
X54330Y-43110D02*
X54212Y-43149D01*
X54931Y-43415D02*
X54921Y-44685D01*
X54921Y-44685D02*
X54921Y-44685D01*
X56929Y-43543D02*
X58031Y-43545D01*
X56811Y-43543D02*
X56929Y-43543D01*
X56732Y-43700D02*
X56811Y-43543D01*
X56023Y-44842D02*
X56456Y-44488D01*
X56456Y-44488D02*
X56732Y-43700D01*
X55039Y-44842D02*
X56023Y-44842D01*
X54921Y-44685D02*
X55039Y-44842D01*
X54094Y-42007D02*
X55236Y-42007D01*
X55324Y-42096D02*
X55324Y-42411D01*
X55236Y-42007D02*
X55324Y-42096D01*
X55433Y-40766D02*
X54724Y-40766D01*
X54724Y-40766D02*
X54508Y-40766D01*
X54508Y-40766D02*
X54094Y-41181D01*
X54094Y-41181D02*
X54094Y-42007D01*
X54094Y-42007D02*
X54094Y-42322D01*
X54094Y-42322D02*
X54291Y-42519D01*
X54291Y-42519D02*
X54625Y-42519D01*
X58031Y-41545D02*
X56624Y-41466D01*
X55963Y-40766D02*
X55433Y-40766D01*
X56141Y-40944D02*
X55963Y-40766D01*
X56141Y-40984D02*
X56141Y-40944D01*
X56624Y-41466D02*
X56141Y-40984D01*
M02*
