  0
SECTION
  2
HEADER
  9
$ANGBASE
  50
0.0
  9
$ANGDIR
  70
  1
  9
$MEASUREMENT
  70
0
  0
ENDSEC
  0
SECTION
  2
TABLES
  0
TABLE
  2
LTYPE
  70
1
  0
LTYPE
  2
CONTINUOUS
  70
0
  3
Solid line
  72
65
  73
0
  40
0.0
  0
ENDTAB
  0
TABLE
  2
STYLE
  70
4
  0
STYLE
  2
KICAD
  70
0
  40
0
  41
1
  42
1
  50
0
  71
0
  3
isocp.shx
  0
STYLE
  2
KICADB
  70
0
  40
0
  41
1
  42
1
  50
0
  71
0
  3
isocp.shx
  0
STYLE
  2
KICADI
  70
0
  40
0
  41
1
  42
1
  50
15
  71
0
  3
isocp.shx
  0
STYLE
  2
KICADBI
  70
0
  40
0
  41
1
  42
1
  50
15
  71
0
  3
isocp.shx
  0
ENDTAB
  0
TABLE
  2
LAYER
  70
30
  0
LAYER
  2
BLACK
  70
0
  62
7
  6
CONTINUOUS
  0
LAYER
  2
GRAY1
  70
0
  62
251
  6
CONTINUOUS
  0
LAYER
  2
GRAY2
  70
0
  62
8
  6
CONTINUOUS
  0
LAYER
  2
GRAY3
  70
0
  62
9
  6
CONTINUOUS
  0
LAYER
  2
WHITE
  70
0
  62
7
  6
CONTINUOUS
  0
LAYER
  2
LYELLOW
  70
0
  62
51
  6
CONTINUOUS
  0
LAYER
  2
BLUE1
  70
0
  62
178
  6
CONTINUOUS
  0
LAYER
  2
GREEN1
  70
0
  62
98
  6
CONTINUOUS
  0
LAYER
  2
CYAN1
  70
0
  62
138
  6
CONTINUOUS
  0
LAYER
  2
RED1
  70
0
  62
18
  6
CONTINUOUS
  0
LAYER
  2
MAGENTA1
  70
0
  62
228
  6
CONTINUOUS
  0
LAYER
  2
BROWN1
  70
0
  62
58
  6
CONTINUOUS
  0
LAYER
  2
BLUE2
  70
0
  62
5
  6
CONTINUOUS
  0
LAYER
  2
GREEN2
  70
0
  62
3
  6
CONTINUOUS
  0
LAYER
  2
CYAN2
  70
0
  62
4
  6
CONTINUOUS
  0
LAYER
  2
RED2
  70
0
  62
1
  6
CONTINUOUS
  0
LAYER
  2
MAGENTA2
  70
0
  62
6
  6
CONTINUOUS
  0
LAYER
  2
BROWN2
  70
0
  62
54
  6
CONTINUOUS
  0
LAYER
  2
BLUE3
  70
0
  62
171
  6
CONTINUOUS
  0
LAYER
  2
GREEN3
  70
0
  62
91
  6
CONTINUOUS
  0
LAYER
  2
CYAN3
  70
0
  62
131
  6
CONTINUOUS
  0
LAYER
  2
RED3
  70
0
  62
11
  6
CONTINUOUS
  0
LAYER
  2
MAGENTA3
  70
0
  62
221
  6
CONTINUOUS
  0
LAYER
  2
YELLOW3
  70
0
  62
2
  6
CONTINUOUS
  0
LAYER
  2
BLUE4
  70
0
  62
5
  6
CONTINUOUS
  0
LAYER
  2
GREEN4
  70
0
  62
3
  6
CONTINUOUS
  0
LAYER
  2
CYAN4
  70
0
  62
4
  6
CONTINUOUS
  0
LAYER
  2
RED4
  70
0
  62
1
  6
CONTINUOUS
  0
LAYER
  2
MAGENTA4
  70
0
  62
6
  6
CONTINUOUS
  0
LAYER
  2
YELLOW4
  70
0
  62
2
  6
CONTINUOUS
  0
ENDTAB
  0
ENDSEC
  0
SECTION
  2
ENTITIES
  0
TEXT
  7
KICADB
  8
Black
  10
86.5
  11
86.5
  20
-66.8
  21
-66.8
  40
0.6
  41
1
  50
270
  51
0
  71
0
  72
1
  73
2
  1
accel_FXLS8471QR1_rev01
  0
TEXT
  7
KICADB
  8
Black
  10
85.51
  11
85.51
  20
-66.8
  21
-66.8
  40
0.6
  41
1
  50
270
  51
0
  71
0
  72
1
  73
2
  1
             06/13/2014
  0
TEXT
  7
KICADB
  8
Black
  10
70.5
  11
70.5
  20
-66.8
  21
-66.8
  40
0.6
  41
1
  50
270
  51
0
  71
0
  72
1
  73
2
  1
accel_FXLS8471QR1_rev01
  0
TEXT
  7
KICADB
  8
Black
  10
69.51
  11
69.51
  20
-66.8
  21
-66.8
  40
0.6
  41
1
  50
270
  51
0
  71
0
  72
1
  73
2
  1
             06/13/2014
  0
TEXT
  7
KICADB
  8
Black
  10
73
  11
73
  20
-76.5
  21
-76.5
  40
0.8
  41
1
  50
0
  51
0
  71
0
  72
1
  73
2
  1
accel_FXLS8471QR1_rev01
  0
TEXT
  7
KICADB
  8
Black
  10
73
  11
73
  20
-77.77
  21
-77.77
  40
0.8
  41
1
  50
0
  51
0
  71
0
  72
1
  73
2
  1
06/14/2014
  0
TEXT
  7
KICADB
  8
Black
  10
106.5
  11
106.5
  20
-76.5
  21
-76.5
  40
0.8
  41
1
  50
0
  51
0
  71
0
  72
1
  73
2
  1
accel_FXLS8471QR1_rev01
  0
TEXT
  7
KICADB
  8
Black
  10
106.5
  11
106.5
  20
-77.77
  21
-77.77
  40
0.8
  41
1
  50
0
  51
0
  71
0
  72
1
  73
2
  1
06/14/2014
  0
TEXT
  7
KICADB
  8
Black
  10
106.5
  11
106.5
  20
-56
  21
-56
  40
0.8
  41
1
  50
0
  51
0
  71
0
  72
1
  73
2
  1
accel_FXLS8471QR1_rev01
  0
TEXT
  7
KICADB
  8
Black
  10
106.5
  11
106.5
  20
-57.27
  21
-57.27
  40
0.8
  41
1
  50
0
  51
0
  71
0
  72
1
  73
2
  1
06/14/2014
  0
TEXT
  7
KICADB
  8
Black
  10
106.5
  11
106.5
  20
-35.5
  21
-35.5
  40
0.8
  41
1
  50
0
  51
0
  71
0
  72
1
  73
2
  1
accel_FXLS8471QR1_rev01
  0
TEXT
  7
KICADB
  8
Black
  10
106.5
  11
106.5
  20
-36.77
  21
-36.77
  40
0.8
  41
1
  50
0
  51
0
  71
0
  72
1
  73
2
  1
06/14/2014
0
LINE
8
Black
10
77.85
20
-62.35
11
77.85
21
-62.65
0
LINE
8
Black
10
77.85
20
-62.65
11
78.65
21
-62.65
0
LINE
8
Black
10
78.65
20
-62.65
11
78.65
21
-62.35
0
LINE
8
Black
10
78.65
20
-62.35
11
77.85
21
-62.35
0
LINE
8
Black
10
77.85
20
-61.85
11
77.85
21
-62.15
0
LINE
8
Black
10
77.85
20
-62.15
11
78.65
21
-62.15
0
LINE
8
Black
10
78.65
20
-62.15
11
78.65
21
-61.85
0
LINE
8
Black
10
78.65
20
-61.85
11
77.85
21
-61.85
0
LINE
8
Black
10
80.4
20
-61.85
11
80.4
21
-62.15
0
LINE
8
Black
10
80.4
20
-62.15
11
81.2
21
-62.15
0
LINE
8
Black
10
81.2
20
-62.15
11
81.2
21
-61.85
0
LINE
8
Black
10
81.2
20
-61.85
11
80.4
21
-61.85
0
LINE
8
Black
10
77.85
20
-62.845
11
77.85
21
-63.145
0
LINE
8
Black
10
77.85
20
-63.145
11
78.65
21
-63.145
0
LINE
8
Black
10
78.65
20
-63.145
11
78.65
21
-62.845
0
LINE
8
Black
10
78.65
20
-62.845
11
77.85
21
-62.845
0
LINE
8
Black
10
77.85
20
-63.35
11
77.85
21
-63.65
0
LINE
8
Black
10
77.85
20
-63.65
11
78.65
21
-63.65
0
LINE
8
Black
10
78.65
20
-63.65
11
78.65
21
-63.35
0
LINE
8
Black
10
78.65
20
-63.35
11
77.85
21
-63.35
0
LINE
8
Black
10
77.85
20
-63.85
11
77.85
21
-64.15
0
LINE
8
Black
10
77.85
20
-64.15
11
78.65
21
-64.15
0
LINE
8
Black
10
78.65
20
-64.15
11
78.65
21
-63.85
0
LINE
8
Black
10
78.65
20
-63.85
11
77.85
21
-63.85
0
LINE
8
Black
10
78.875
20
-63.875
11
78.875
21
-64.675
0
LINE
8
Black
10
78.875
20
-64.675
11
79.175
21
-64.675
0
LINE
8
Black
10
79.175
20
-64.675
11
79.175
21
-63.875
0
LINE
8
Black
10
79.175
20
-63.875
11
78.875
21
-63.875
0
LINE
8
Black
10
79.34
20
-63.875
11
79.34
21
-64.675
0
LINE
8
Black
10
79.34
20
-64.675
11
79.64
21
-64.675
0
LINE
8
Black
10
79.64
20
-64.675
11
79.64
21
-63.875
0
LINE
8
Black
10
79.64
20
-63.875
11
79.34
21
-63.875
0
LINE
8
Black
10
79.875
20
-63.875
11
79.875
21
-64.675
0
LINE
8
Black
10
79.875
20
-64.675
11
80.175
21
-64.675
0
LINE
8
Black
10
80.175
20
-64.675
11
80.175
21
-63.875
0
LINE
8
Black
10
80.175
20
-63.875
11
79.875
21
-63.875
0
LINE
8
Black
10
80.4
20
-63.85
11
80.4
21
-64.15
0
LINE
8
Black
10
80.4
20
-64.15
11
81.2
21
-64.15
0
LINE
8
Black
10
81.2
20
-64.15
11
81.2
21
-63.85
0
LINE
8
Black
10
81.2
20
-63.85
11
80.4
21
-63.85
0
LINE
8
Black
10
80.4
20
-63.35
11
80.4
21
-63.65
0
LINE
8
Black
10
80.4
20
-63.65
11
81.2
21
-63.65
0
LINE
8
Black
10
81.2
20
-63.65
11
81.2
21
-63.35
0
LINE
8
Black
10
81.2
20
-63.35
11
80.4
21
-63.35
0
LINE
8
Black
10
80.4
20
-62.845
11
80.4
21
-63.145
0
LINE
8
Black
10
80.4
20
-63.145
11
81.2
21
-63.145
0
LINE
8
Black
10
81.2
20
-63.145
11
81.2
21
-62.845
0
LINE
8
Black
10
81.2
20
-62.845
11
80.4
21
-62.845
0
LINE
8
Black
10
80.4
20
-62.35
11
80.4
21
-62.65
0
LINE
8
Black
10
80.4
20
-62.65
11
81.2
21
-62.65
0
LINE
8
Black
10
81.2
20
-62.65
11
81.2
21
-62.35
0
LINE
8
Black
10
81.2
20
-62.35
11
80.4
21
-62.35
0
LINE
8
Black
10
79.875
20
-61.325
11
79.875
21
-62.125
0
LINE
8
Black
10
79.875
20
-62.125
11
80.175
21
-62.125
0
LINE
8
Black
10
80.175
20
-62.125
11
80.175
21
-61.325
0
LINE
8
Black
10
80.175
20
-61.325
11
79.875
21
-61.325
0
LINE
8
Black
10
79.36
20
-61.325
11
79.36
21
-62.125
0
LINE
8
Black
10
79.36
20
-62.125
11
79.66
21
-62.125
0
LINE
8
Black
10
79.66
20
-62.125
11
79.66
21
-61.325
0
LINE
8
Black
10
79.66
20
-61.325
11
79.36
21
-61.325
0
LINE
8
Black
10
78.875
20
-61.325
11
78.875
21
-62.125
0
LINE
8
Black
10
78.875
20
-62.125
11
79.175
21
-62.125
0
LINE
8
Black
10
79.175
20
-62.125
11
79.175
21
-61.325
0
LINE
8
Black
10
79.175
20
-61.325
11
78.875
21
-61.325
0
LINE
8
Black
10
76.445
20
-50.9
11
76.445
21
-55.9
0
LINE
8
Black
10
76.445
20
-55.9
11
77.205
21
-55.9
0
LINE
8
Black
10
77.205
20
-55.9
11
77.205
21
-50.9
0
LINE
8
Black
10
77.205
20
-50.9
11
76.445
21
-50.9
0
LINE
8
Black
10
78.985
20
-50.9
11
78.985
21
-55.9
0
LINE
8
Black
10
78.985
20
-55.9
11
79.745
21
-55.9
0
LINE
8
Black
10
79.745
20
-55.9
11
79.745
21
-50.9
0
LINE
8
Black
10
79.745
20
-50.9
11
78.985
21
-50.9
0
LINE
8
Black
10
81.525
20
-50.9
11
81.525
21
-55.9
0
LINE
8
Black
10
81.525
20
-55.9
11
82.285
21
-55.9
0
LINE
8
Black
10
82.285
20
-55.9
11
82.285
21
-50.9
0
LINE
8
Black
10
82.285
20
-50.9
11
81.525
21
-50.9
0
LINE
8
Black
10
80.255
20
-50.9
11
80.255
21
-55.9
0
LINE
8
Black
10
80.255
20
-55.9
11
81.015
21
-55.9
0
LINE
8
Black
10
81.015
20
-55.9
11
81.015
21
-50.9
0
LINE
8
Black
10
81.015
20
-50.9
11
80.255
21
-50.9
0
LINE
8
Black
10
82.795
20
-50.9
11
82.795
21
-55.9
0
LINE
8
Black
10
82.795
20
-55.9
11
83.555
21
-55.9
0
LINE
8
Black
10
83.555
20
-55.9
11
83.555
21
-50.9
0
LINE
8
Black
10
83.555
20
-50.9
11
82.795
21
-50.9
0
LINE
8
Black
10
77.715
20
-50.9
11
77.715
21
-55.9
0
LINE
8
Black
10
77.715
20
-55.9
11
78.475
21
-55.9
0
LINE
8
Black
10
78.475
20
-55.9
11
78.475
21
-50.9
0
LINE
8
Black
10
78.475
20
-50.9
11
77.715
21
-50.9
0
LINE
8
Black
10
75.6
20
-35.1
11
75.6
21
-39.6
0
LINE
8
Black
10
75.6
20
-39.6
11
84.4
21
-39.6
0
LINE
8
Black
10
84.4
20
-39.6
11
84.4
21
-35.1
0
LINE
8
Black
10
84.4
20
-35.1
11
75.6
21
-35.1
0
LINE
8
Black
10
76.1004
20
-63.8023
11
75.0996
21
-63.8023
0
LINE
8
Black
10
75.0996
20
-63.8023
11
75.0996
21
-64.7014
0
LINE
8
Black
10
75.0996
20
-64.7014
11
76.1004
21
-64.7014
0
LINE
8
Black
10
76.1004
20
-64.7014
11
76.1004
21
-63.8023
0
LINE
8
Black
10
76.1004
20
-62.2986
11
75.0996
21
-62.2986
0
LINE
8
Black
10
75.0996
20
-62.2986
11
75.0996
21
-63.1977
0
LINE
8
Black
10
75.0996
20
-63.1977
11
76.1004
21
-63.1977
0
LINE
8
Black
10
76.1004
20
-63.1977
11
76.1004
21
-62.2986
0
LINE
8
Black
10
76.5004
20
-60.3023
11
75.4996
21
-60.3023
0
LINE
8
Black
10
75.4996
20
-60.3023
11
75.4996
21
-61.2014
0
LINE
8
Black
10
75.4996
20
-61.2014
11
76.5004
21
-61.2014
0
LINE
8
Black
10
76.5004
20
-61.2014
11
76.5004
21
-60.3023
0
LINE
8
Black
10
76.5004
20
-58.7986
11
75.4996
21
-58.7986
0
LINE
8
Black
10
75.4996
20
-58.7986
11
75.4996
21
-59.6977
0
LINE
8
Black
10
75.4996
20
-59.6977
11
76.5004
21
-59.6977
0
LINE
8
Black
10
76.5004
20
-59.6977
11
76.5004
21
-58.7986
0
LINE
8
Black
10
74.5004
20
-60.3023
11
73.4996
21
-60.3023
0
LINE
8
Black
10
73.4996
20
-60.3023
11
73.4996
21
-61.2014
0
LINE
8
Black
10
73.4996
20
-61.2014
11
74.5004
21
-61.2014
0
LINE
8
Black
10
74.5004
20
-61.2014
11
74.5004
21
-60.3023
0
LINE
8
Black
10
74.5004
20
-58.7986
11
73.4996
21
-58.7986
0
LINE
8
Black
10
73.4996
20
-58.7986
11
73.4996
21
-59.6977
0
LINE
8
Black
10
73.4996
20
-59.6977
11
74.5004
21
-59.6977
0
LINE
8
Black
10
74.5004
20
-59.6977
11
74.5004
21
-58.7986
0
LINE
8
Black
10
58.5004
20
-60.3023
11
57.4996
21
-60.3023
0
LINE
8
Black
10
57.4996
20
-60.3023
11
57.4996
21
-61.2014
0
LINE
8
Black
10
57.4996
20
-61.2014
11
58.5004
21
-61.2014
0
LINE
8
Black
10
58.5004
20
-61.2014
11
58.5004
21
-60.3023
0
LINE
8
Black
10
58.5004
20
-58.7986
11
57.4996
21
-58.7986
0
LINE
8
Black
10
57.4996
20
-58.7986
11
57.4996
21
-59.6977
0
LINE
8
Black
10
57.4996
20
-59.6977
11
58.5004
21
-59.6977
0
LINE
8
Black
10
58.5004
20
-59.6977
11
58.5004
21
-58.7986
0
LINE
8
Black
10
60.5004
20
-60.3023
11
59.4996
21
-60.3023
0
LINE
8
Black
10
59.4996
20
-60.3023
11
59.4996
21
-61.2014
0
LINE
8
Black
10
59.4996
20
-61.2014
11
60.5004
21
-61.2014
0
LINE
8
Black
10
60.5004
20
-61.2014
11
60.5004
21
-60.3023
0
LINE
8
Black
10
60.5004
20
-58.7986
11
59.4996
21
-58.7986
0
LINE
8
Black
10
59.4996
20
-58.7986
11
59.4996
21
-59.6977
0
LINE
8
Black
10
59.4996
20
-59.6977
11
60.5004
21
-59.6977
0
LINE
8
Black
10
60.5004
20
-59.6977
11
60.5004
21
-58.7986
0
LINE
8
Black
10
60.1004
20
-63.8023
11
59.0996
21
-63.8023
0
LINE
8
Black
10
59.0996
20
-63.8023
11
59.0996
21
-64.7014
0
LINE
8
Black
10
59.0996
20
-64.7014
11
60.1004
21
-64.7014
0
LINE
8
Black
10
60.1004
20
-64.7014
11
60.1004
21
-63.8023
0
LINE
8
Black
10
60.1004
20
-62.2986
11
59.0996
21
-62.2986
0
LINE
8
Black
10
59.0996
20
-62.2986
11
59.0996
21
-63.1977
0
LINE
8
Black
10
59.0996
20
-63.1977
11
60.1004
21
-63.1977
0
LINE
8
Black
10
60.1004
20
-63.1977
11
60.1004
21
-62.2986
0
LINE
8
Black
10
60.445
20
-50.9
11
60.445
21
-55.9
0
LINE
8
Black
10
60.445
20
-55.9
11
61.205
21
-55.9
0
LINE
8
Black
10
61.205
20
-55.9
11
61.205
21
-50.9
0
LINE
8
Black
10
61.205
20
-50.9
11
60.445
21
-50.9
0
LINE
8
Black
10
62.985
20
-50.9
11
62.985
21
-55.9
0
LINE
8
Black
10
62.985
20
-55.9
11
63.745
21
-55.9
0
LINE
8
Black
10
63.745
20
-55.9
11
63.745
21
-50.9
0
LINE
8
Black
10
63.745
20
-50.9
11
62.985
21
-50.9
0
LINE
8
Black
10
65.525
20
-50.9
11
65.525
21
-55.9
0
LINE
8
Black
10
65.525
20
-55.9
11
66.285
21
-55.9
0
LINE
8
Black
10
66.285
20
-55.9
11
66.285
21
-50.9
0
LINE
8
Black
10
66.285
20
-50.9
11
65.525
21
-50.9
0
LINE
8
Black
10
64.255
20
-50.9
11
64.255
21
-55.9
0
LINE
8
Black
10
64.255
20
-55.9
11
65.015
21
-55.9
0
LINE
8
Black
10
65.015
20
-55.9
11
65.015
21
-50.9
0
LINE
8
Black
10
65.015
20
-50.9
11
64.255
21
-50.9
0
LINE
8
Black
10
66.795
20
-50.9
11
66.795
21
-55.9
0
LINE
8
Black
10
66.795
20
-55.9
11
67.555
21
-55.9
0
LINE
8
Black
10
67.555
20
-55.9
11
67.555
21
-50.9
0
LINE
8
Black
10
67.555
20
-50.9
11
66.795
21
-50.9
0
LINE
8
Black
10
61.715
20
-50.9
11
61.715
21
-55.9
0
LINE
8
Black
10
61.715
20
-55.9
11
62.475
21
-55.9
0
LINE
8
Black
10
62.475
20
-55.9
11
62.475
21
-50.9
0
LINE
8
Black
10
62.475
20
-50.9
11
61.715
21
-50.9
0
LINE
8
Black
10
59.6
20
-35.1
11
59.6
21
-39.6
0
LINE
8
Black
10
59.6
20
-39.6
11
68.4
21
-39.6
0
LINE
8
Black
10
68.4
20
-39.6
11
68.4
21
-35.1
0
LINE
8
Black
10
68.4
20
-35.1
11
59.6
21
-35.1
0
LINE
8
Black
10
61.85
20
-62.35
11
61.85
21
-62.65
0
LINE
8
Black
10
61.85
20
-62.65
11
62.65
21
-62.65
0
LINE
8
Black
10
62.65
20
-62.65
11
62.65
21
-62.35
0
LINE
8
Black
10
62.65
20
-62.35
11
61.85
21
-62.35
0
LINE
8
Black
10
61.85
20
-61.85
11
61.85
21
-62.15
0
LINE
8
Black
10
61.85
20
-62.15
11
62.65
21
-62.15
0
LINE
8
Black
10
62.65
20
-62.15
11
62.65
21
-61.85
0
LINE
8
Black
10
62.65
20
-61.85
11
61.85
21
-61.85
0
LINE
8
Black
10
64.4
20
-61.85
11
64.4
21
-62.15
0
LINE
8
Black
10
64.4
20
-62.15
11
65.2
21
-62.15
0
LINE
8
Black
10
65.2
20
-62.15
11
65.2
21
-61.85
0
LINE
8
Black
10
65.2
20
-61.85
11
64.4
21
-61.85
0
LINE
8
Black
10
61.85
20
-62.845
11
61.85
21
-63.145
0
LINE
8
Black
10
61.85
20
-63.145
11
62.65
21
-63.145
0
LINE
8
Black
10
62.65
20
-63.145
11
62.65
21
-62.845
0
LINE
8
Black
10
62.65
20
-62.845
11
61.85
21
-62.845
0
LINE
8
Black
10
61.85
20
-63.35
11
61.85
21
-63.65
0
LINE
8
Black
10
61.85
20
-63.65
11
62.65
21
-63.65
0
LINE
8
Black
10
62.65
20
-63.65
11
62.65
21
-63.35
0
LINE
8
Black
10
62.65
20
-63.35
11
61.85
21
-63.35
0
LINE
8
Black
10
61.85
20
-63.85
11
61.85
21
-64.15
0
LINE
8
Black
10
61.85
20
-64.15
11
62.65
21
-64.15
0
LINE
8
Black
10
62.65
20
-64.15
11
62.65
21
-63.85
0
LINE
8
Black
10
62.65
20
-63.85
11
61.85
21
-63.85
0
LINE
8
Black
10
62.875
20
-63.875
11
62.875
21
-64.675
0
LINE
8
Black
10
62.875
20
-64.675
11
63.175
21
-64.675
0
LINE
8
Black
10
63.175
20
-64.675
11
63.175
21
-63.875
0
LINE
8
Black
10
63.175
20
-63.875
11
62.875
21
-63.875
0
LINE
8
Black
10
63.34
20
-63.875
11
63.34
21
-64.675
0
LINE
8
Black
10
63.34
20
-64.675
11
63.64
21
-64.675
0
LINE
8
Black
10
63.64
20
-64.675
11
63.64
21
-63.875
0
LINE
8
Black
10
63.64
20
-63.875
11
63.34
21
-63.875
0
LINE
8
Black
10
63.875
20
-63.875
11
63.875
21
-64.675
0
LINE
8
Black
10
63.875
20
-64.675
11
64.175
21
-64.675
0
LINE
8
Black
10
64.175
20
-64.675
11
64.175
21
-63.875
0
LINE
8
Black
10
64.175
20
-63.875
11
63.875
21
-63.875
0
LINE
8
Black
10
64.4
20
-63.85
11
64.4
21
-64.15
0
LINE
8
Black
10
64.4
20
-64.15
11
65.2
21
-64.15
0
LINE
8
Black
10
65.2
20
-64.15
11
65.2
21
-63.85
0
LINE
8
Black
10
65.2
20
-63.85
11
64.4
21
-63.85
0
LINE
8
Black
10
64.4
20
-63.35
11
64.4
21
-63.65
0
LINE
8
Black
10
64.4
20
-63.65
11
65.2
21
-63.65
0
LINE
8
Black
10
65.2
20
-63.65
11
65.2
21
-63.35
0
LINE
8
Black
10
65.2
20
-63.35
11
64.4
21
-63.35
0
LINE
8
Black
10
64.4
20
-62.845
11
64.4
21
-63.145
0
LINE
8
Black
10
64.4
20
-63.145
11
65.2
21
-63.145
0
LINE
8
Black
10
65.2
20
-63.145
11
65.2
21
-62.845
0
LINE
8
Black
10
65.2
20
-62.845
11
64.4
21
-62.845
0
LINE
8
Black
10
64.4
20
-62.35
11
64.4
21
-62.65
0
LINE
8
Black
10
64.4
20
-62.65
11
65.2
21
-62.65
0
LINE
8
Black
10
65.2
20
-62.65
11
65.2
21
-62.35
0
LINE
8
Black
10
65.2
20
-62.35
11
64.4
21
-62.35
0
LINE
8
Black
10
63.875
20
-61.325
11
63.875
21
-62.125
0
LINE
8
Black
10
63.875
20
-62.125
11
64.175
21
-62.125
0
LINE
8
Black
10
64.175
20
-62.125
11
64.175
21
-61.325
0
LINE
8
Black
10
64.175
20
-61.325
11
63.875
21
-61.325
0
LINE
8
Black
10
63.36
20
-61.325
11
63.36
21
-62.125
0
LINE
8
Black
10
63.36
20
-62.125
11
63.66
21
-62.125
0
LINE
8
Black
10
63.66
20
-62.125
11
63.66
21
-61.325
0
LINE
8
Black
10
63.66
20
-61.325
11
63.36
21
-61.325
0
LINE
8
Black
10
62.875
20
-61.325
11
62.875
21
-62.125
0
LINE
8
Black
10
62.875
20
-62.125
11
63.175
21
-62.125
0
LINE
8
Black
10
63.175
20
-62.125
11
63.175
21
-61.325
0
LINE
8
Black
10
63.175
20
-61.325
11
62.875
21
-61.325
0
LINE
8
Black
10
61.0004
20
-82.6023
11
59.9996
21
-82.6023
0
LINE
8
Black
10
59.9996
20
-82.6023
11
59.9996
21
-83.5014
0
LINE
8
Black
10
59.9996
20
-83.5014
11
61.0004
21
-83.5014
0
LINE
8
Black
10
61.0004
20
-83.5014
11
61.0004
21
-82.6023
0
LINE
8
Black
10
61.0004
20
-81.0986
11
59.9996
21
-81.0986
0
LINE
8
Black
10
59.9996
20
-81.0986
11
59.9996
21
-81.9977
0
LINE
8
Black
10
59.9996
20
-81.9977
11
61.0004
21
-81.9977
0
LINE
8
Black
10
61.0004
20
-81.9977
11
61.0004
21
-81.0986
0
LINE
8
Black
10
62.8004
20
-82.6023
11
61.7996
21
-82.6023
0
LINE
8
Black
10
61.7996
20
-82.6023
11
61.7996
21
-83.5014
0
LINE
8
Black
10
61.7996
20
-83.5014
11
62.8004
21
-83.5014
0
LINE
8
Black
10
62.8004
20
-83.5014
11
62.8004
21
-82.6023
0
LINE
8
Black
10
62.8004
20
-81.0986
11
61.7996
21
-81.0986
0
LINE
8
Black
10
61.7996
20
-81.0986
11
61.7996
21
-81.9977
0
LINE
8
Black
10
61.7996
20
-81.9977
11
62.8004
21
-81.9977
0
LINE
8
Black
10
62.8004
20
-81.9977
11
62.8004
21
-81.0986
0
LINE
8
Black
10
58.1004
20
-87.8023
11
57.0996
21
-87.8023
0
LINE
8
Black
10
57.0996
20
-87.8023
11
57.0996
21
-88.7014
0
LINE
8
Black
10
57.0996
20
-88.7014
11
58.1004
21
-88.7014
0
LINE
8
Black
10
58.1004
20
-88.7014
11
58.1004
21
-87.8023
0
LINE
8
Black
10
58.1004
20
-86.2986
11
57.0996
21
-86.2986
0
LINE
8
Black
10
57.0996
20
-86.2986
11
57.0996
21
-87.1977
0
LINE
8
Black
10
57.0996
20
-87.1977
11
58.1004
21
-87.1977
0
LINE
8
Black
10
58.1004
20
-87.1977
11
58.1004
21
-86.2986
0
LINE
8
Black
10
71.4
20
-83.145
11
66.4
21
-83.145
0
LINE
8
Black
10
66.4
20
-83.145
11
66.4
21
-83.905
0
LINE
8
Black
10
66.4
20
-83.905
11
71.4
21
-83.905
0
LINE
8
Black
10
71.4
20
-83.905
11
71.4
21
-83.145
0
LINE
8
Black
10
71.4
20
-85.685
11
66.4
21
-85.685
0
LINE
8
Black
10
66.4
20
-85.685
11
66.4
21
-86.445
0
LINE
8
Black
10
66.4
20
-86.445
11
71.4
21
-86.445
0
LINE
8
Black
10
71.4
20
-86.445
11
71.4
21
-85.685
0
LINE
8
Black
10
71.4
20
-88.225
11
66.4
21
-88.225
0
LINE
8
Black
10
66.4
20
-88.225
11
66.4
21
-88.985
0
LINE
8
Black
10
66.4
20
-88.985
11
71.4
21
-88.985
0
LINE
8
Black
10
71.4
20
-88.985
11
71.4
21
-88.225
0
LINE
8
Black
10
71.4
20
-86.955
11
66.4
21
-86.955
0
LINE
8
Black
10
66.4
20
-86.955
11
66.4
21
-87.715
0
LINE
8
Black
10
66.4
20
-87.715
11
71.4
21
-87.715
0
LINE
8
Black
10
71.4
20
-87.715
11
71.4
21
-86.955
0
LINE
8
Black
10
71.4
20
-89.495
11
66.4
21
-89.495
0
LINE
8
Black
10
66.4
20
-89.495
11
66.4
21
-90.255
0
LINE
8
Black
10
66.4
20
-90.255
11
71.4
21
-90.255
0
LINE
8
Black
10
71.4
20
-90.255
11
71.4
21
-89.495
0
LINE
8
Black
10
71.4
20
-84.415
11
66.4
21
-84.415
0
LINE
8
Black
10
66.4
20
-84.415
11
66.4
21
-85.175
0
LINE
8
Black
10
66.4
20
-85.175
11
71.4
21
-85.175
0
LINE
8
Black
10
71.4
20
-85.175
11
71.4
21
-84.415
0
LINE
8
Black
10
87.2
20
-82.3
11
82.7
21
-82.3
0
LINE
8
Black
10
82.7
20
-82.3
11
82.7
21
-91.1
0
LINE
8
Black
10
82.7
20
-91.1
11
87.2
21
-91.1
0
LINE
8
Black
10
87.2
20
-91.1
11
87.2
21
-82.3
0
LINE
8
Black
10
59.85
20
-86.35
11
59.85
21
-86.65
0
LINE
8
Black
10
59.85
20
-86.65
11
60.65
21
-86.65
0
LINE
8
Black
10
60.65
20
-86.65
11
60.65
21
-86.35
0
LINE
8
Black
10
60.65
20
-86.35
11
59.85
21
-86.35
0
LINE
8
Black
10
59.85
20
-85.85
11
59.85
21
-86.15
0
LINE
8
Black
10
59.85
20
-86.15
11
60.65
21
-86.15
0
LINE
8
Black
10
60.65
20
-86.15
11
60.65
21
-85.85
0
LINE
8
Black
10
60.65
20
-85.85
11
59.85
21
-85.85
0
LINE
8
Black
10
62.4
20
-85.85
11
62.4
21
-86.15
0
LINE
8
Black
10
62.4
20
-86.15
11
63.2
21
-86.15
0
LINE
8
Black
10
63.2
20
-86.15
11
63.2
21
-85.85
0
LINE
8
Black
10
63.2
20
-85.85
11
62.4
21
-85.85
0
LINE
8
Black
10
59.85
20
-86.845
11
59.85
21
-87.145
0
LINE
8
Black
10
59.85
20
-87.145
11
60.65
21
-87.145
0
LINE
8
Black
10
60.65
20
-87.145
11
60.65
21
-86.845
0
LINE
8
Black
10
60.65
20
-86.845
11
59.85
21
-86.845
0
LINE
8
Black
10
59.85
20
-87.35
11
59.85
21
-87.65
0
LINE
8
Black
10
59.85
20
-87.65
11
60.65
21
-87.65
0
LINE
8
Black
10
60.65
20
-87.65
11
60.65
21
-87.35
0
LINE
8
Black
10
60.65
20
-87.35
11
59.85
21
-87.35
0
LINE
8
Black
10
59.85
20
-87.85
11
59.85
21
-88.15
0
LINE
8
Black
10
59.85
20
-88.15
11
60.65
21
-88.15
0
LINE
8
Black
10
60.65
20
-88.15
11
60.65
21
-87.85
0
LINE
8
Black
10
60.65
20
-87.85
11
59.85
21
-87.85
0
LINE
8
Black
10
60.875
20
-87.875
11
60.875
21
-88.675
0
LINE
8
Black
10
60.875
20
-88.675
11
61.175
21
-88.675
0
LINE
8
Black
10
61.175
20
-88.675
11
61.175
21
-87.875
0
LINE
8
Black
10
61.175
20
-87.875
11
60.875
21
-87.875
0
LINE
8
Black
10
61.34
20
-87.875
11
61.34
21
-88.675
0
LINE
8
Black
10
61.34
20
-88.675
11
61.64
21
-88.675
0
LINE
8
Black
10
61.64
20
-88.675
11
61.64
21
-87.875
0
LINE
8
Black
10
61.64
20
-87.875
11
61.34
21
-87.875
0
LINE
8
Black
10
61.875
20
-87.875
11
61.875
21
-88.675
0
LINE
8
Black
10
61.875
20
-88.675
11
62.175
21
-88.675
0
LINE
8
Black
10
62.175
20
-88.675
11
62.175
21
-87.875
0
LINE
8
Black
10
62.175
20
-87.875
11
61.875
21
-87.875
0
LINE
8
Black
10
62.4
20
-87.85
11
62.4
21
-88.15
0
LINE
8
Black
10
62.4
20
-88.15
11
63.2
21
-88.15
0
LINE
8
Black
10
63.2
20
-88.15
11
63.2
21
-87.85
0
LINE
8
Black
10
63.2
20
-87.85
11
62.4
21
-87.85
0
LINE
8
Black
10
62.4
20
-87.35
11
62.4
21
-87.65
0
LINE
8
Black
10
62.4
20
-87.65
11
63.2
21
-87.65
0
LINE
8
Black
10
63.2
20
-87.65
11
63.2
21
-87.35
0
LINE
8
Black
10
63.2
20
-87.35
11
62.4
21
-87.35
0
LINE
8
Black
10
62.4
20
-86.845
11
62.4
21
-87.145
0
LINE
8
Black
10
62.4
20
-87.145
11
63.2
21
-87.145
0
LINE
8
Black
10
63.2
20
-87.145
11
63.2
21
-86.845
0
LINE
8
Black
10
63.2
20
-86.845
11
62.4
21
-86.845
0
LINE
8
Black
10
62.4
20
-86.35
11
62.4
21
-86.65
0
LINE
8
Black
10
62.4
20
-86.65
11
63.2
21
-86.65
0
LINE
8
Black
10
63.2
20
-86.65
11
63.2
21
-86.35
0
LINE
8
Black
10
63.2
20
-86.35
11
62.4
21
-86.35
0
LINE
8
Black
10
61.875
20
-85.325
11
61.875
21
-86.125
0
LINE
8
Black
10
61.875
20
-86.125
11
62.175
21
-86.125
0
LINE
8
Black
10
62.175
20
-86.125
11
62.175
21
-85.325
0
LINE
8
Black
10
62.175
20
-85.325
11
61.875
21
-85.325
0
LINE
8
Black
10
61.36
20
-85.325
11
61.36
21
-86.125
0
LINE
8
Black
10
61.36
20
-86.125
11
61.66
21
-86.125
0
LINE
8
Black
10
61.66
20
-86.125
11
61.66
21
-85.325
0
LINE
8
Black
10
61.66
20
-85.325
11
61.36
21
-85.325
0
LINE
8
Black
10
60.875
20
-85.325
11
60.875
21
-86.125
0
LINE
8
Black
10
60.875
20
-86.125
11
61.175
21
-86.125
0
LINE
8
Black
10
61.175
20
-86.125
11
61.175
21
-85.325
0
LINE
8
Black
10
61.175
20
-85.325
11
60.875
21
-85.325
0
LINE
8
Black
10
94.5004
20
-82.6023
11
93.4996
21
-82.6023
0
LINE
8
Black
10
93.4996
20
-82.6023
11
93.4996
21
-83.5014
0
LINE
8
Black
10
93.4996
20
-83.5014
11
94.5004
21
-83.5014
0
LINE
8
Black
10
94.5004
20
-83.5014
11
94.5004
21
-82.6023
0
LINE
8
Black
10
94.5004
20
-81.0986
11
93.4996
21
-81.0986
0
LINE
8
Black
10
93.4996
20
-81.0986
11
93.4996
21
-81.9977
0
LINE
8
Black
10
93.4996
20
-81.9977
11
94.5004
21
-81.9977
0
LINE
8
Black
10
94.5004
20
-81.9977
11
94.5004
21
-81.0986
0
LINE
8
Black
10
96.3004
20
-82.6023
11
95.2996
21
-82.6023
0
LINE
8
Black
10
95.2996
20
-82.6023
11
95.2996
21
-83.5014
0
LINE
8
Black
10
95.2996
20
-83.5014
11
96.3004
21
-83.5014
0
LINE
8
Black
10
96.3004
20
-83.5014
11
96.3004
21
-82.6023
0
LINE
8
Black
10
96.3004
20
-81.0986
11
95.2996
21
-81.0986
0
LINE
8
Black
10
95.2996
20
-81.0986
11
95.2996
21
-81.9977
0
LINE
8
Black
10
95.2996
20
-81.9977
11
96.3004
21
-81.9977
0
LINE
8
Black
10
96.3004
20
-81.9977
11
96.3004
21
-81.0986
0
LINE
8
Black
10
91.6004
20
-87.8023
11
90.5996
21
-87.8023
0
LINE
8
Black
10
90.5996
20
-87.8023
11
90.5996
21
-88.7014
0
LINE
8
Black
10
90.5996
20
-88.7014
11
91.6004
21
-88.7014
0
LINE
8
Black
10
91.6004
20
-88.7014
11
91.6004
21
-87.8023
0
LINE
8
Black
10
91.6004
20
-86.2986
11
90.5996
21
-86.2986
0
LINE
8
Black
10
90.5996
20
-86.2986
11
90.5996
21
-87.1977
0
LINE
8
Black
10
90.5996
20
-87.1977
11
91.6004
21
-87.1977
0
LINE
8
Black
10
91.6004
20
-87.1977
11
91.6004
21
-86.2986
0
LINE
8
Black
10
104.9
20
-83.145
11
99.9
21
-83.145
0
LINE
8
Black
10
99.9
20
-83.145
11
99.9
21
-83.905
0
LINE
8
Black
10
99.9
20
-83.905
11
104.9
21
-83.905
0
LINE
8
Black
10
104.9
20
-83.905
11
104.9
21
-83.145
0
LINE
8
Black
10
104.9
20
-85.685
11
99.9
21
-85.685
0
LINE
8
Black
10
99.9
20
-85.685
11
99.9
21
-86.445
0
LINE
8
Black
10
99.9
20
-86.445
11
104.9
21
-86.445
0
LINE
8
Black
10
104.9
20
-86.445
11
104.9
21
-85.685
0
LINE
8
Black
10
104.9
20
-88.225
11
99.9
21
-88.225
0
LINE
8
Black
10
99.9
20
-88.225
11
99.9
21
-88.985
0
LINE
8
Black
10
99.9
20
-88.985
11
104.9
21
-88.985
0
LINE
8
Black
10
104.9
20
-88.985
11
104.9
21
-88.225
0
LINE
8
Black
10
104.9
20
-86.955
11
99.9
21
-86.955
0
LINE
8
Black
10
99.9
20
-86.955
11
99.9
21
-87.715
0
LINE
8
Black
10
99.9
20
-87.715
11
104.9
21
-87.715
0
LINE
8
Black
10
104.9
20
-87.715
11
104.9
21
-86.955
0
LINE
8
Black
10
104.9
20
-89.495
11
99.9
21
-89.495
0
LINE
8
Black
10
99.9
20
-89.495
11
99.9
21
-90.255
0
LINE
8
Black
10
99.9
20
-90.255
11
104.9
21
-90.255
0
LINE
8
Black
10
104.9
20
-90.255
11
104.9
21
-89.495
0
LINE
8
Black
10
104.9
20
-84.415
11
99.9
21
-84.415
0
LINE
8
Black
10
99.9
20
-84.415
11
99.9
21
-85.175
0
LINE
8
Black
10
99.9
20
-85.175
11
104.9
21
-85.175
0
LINE
8
Black
10
104.9
20
-85.175
11
104.9
21
-84.415
0
LINE
8
Black
10
120.7
20
-82.3
11
116.2
21
-82.3
0
LINE
8
Black
10
116.2
20
-82.3
11
116.2
21
-91.1
0
LINE
8
Black
10
116.2
20
-91.1
11
120.7
21
-91.1
0
LINE
8
Black
10
120.7
20
-91.1
11
120.7
21
-82.3
0
LINE
8
Black
10
93.35
20
-86.35
11
93.35
21
-86.65
0
LINE
8
Black
10
93.35
20
-86.65
11
94.15
21
-86.65
0
LINE
8
Black
10
94.15
20
-86.65
11
94.15
21
-86.35
0
LINE
8
Black
10
94.15
20
-86.35
11
93.35
21
-86.35
0
LINE
8
Black
10
93.35
20
-85.85
11
93.35
21
-86.15
0
LINE
8
Black
10
93.35
20
-86.15
11
94.15
21
-86.15
0
LINE
8
Black
10
94.15
20
-86.15
11
94.15
21
-85.85
0
LINE
8
Black
10
94.15
20
-85.85
11
93.35
21
-85.85
0
LINE
8
Black
10
95.9
20
-85.85
11
95.9
21
-86.15
0
LINE
8
Black
10
95.9
20
-86.15
11
96.7
21
-86.15
0
LINE
8
Black
10
96.7
20
-86.15
11
96.7
21
-85.85
0
LINE
8
Black
10
96.7
20
-85.85
11
95.9
21
-85.85
0
LINE
8
Black
10
93.35
20
-86.845
11
93.35
21
-87.145
0
LINE
8
Black
10
93.35
20
-87.145
11
94.15
21
-87.145
0
LINE
8
Black
10
94.15
20
-87.145
11
94.15
21
-86.845
0
LINE
8
Black
10
94.15
20
-86.845
11
93.35
21
-86.845
0
LINE
8
Black
10
93.35
20
-87.35
11
93.35
21
-87.65
0
LINE
8
Black
10
93.35
20
-87.65
11
94.15
21
-87.65
0
LINE
8
Black
10
94.15
20
-87.65
11
94.15
21
-87.35
0
LINE
8
Black
10
94.15
20
-87.35
11
93.35
21
-87.35
0
LINE
8
Black
10
93.35
20
-87.85
11
93.35
21
-88.15
0
LINE
8
Black
10
93.35
20
-88.15
11
94.15
21
-88.15
0
LINE
8
Black
10
94.15
20
-88.15
11
94.15
21
-87.85
0
LINE
8
Black
10
94.15
20
-87.85
11
93.35
21
-87.85
0
LINE
8
Black
10
94.375
20
-87.875
11
94.375
21
-88.675
0
LINE
8
Black
10
94.375
20
-88.675
11
94.675
21
-88.675
0
LINE
8
Black
10
94.675
20
-88.675
11
94.675
21
-87.875
0
LINE
8
Black
10
94.675
20
-87.875
11
94.375
21
-87.875
0
LINE
8
Black
10
94.84
20
-87.875
11
94.84
21
-88.675
0
LINE
8
Black
10
94.84
20
-88.675
11
95.14
21
-88.675
0
LINE
8
Black
10
95.14
20
-88.675
11
95.14
21
-87.875
0
LINE
8
Black
10
95.14
20
-87.875
11
94.84
21
-87.875
0
LINE
8
Black
10
95.375
20
-87.875
11
95.375
21
-88.675
0
LINE
8
Black
10
95.375
20
-88.675
11
95.675
21
-88.675
0
LINE
8
Black
10
95.675
20
-88.675
11
95.675
21
-87.875
0
LINE
8
Black
10
95.675
20
-87.875
11
95.375
21
-87.875
0
LINE
8
Black
10
95.9
20
-87.85
11
95.9
21
-88.15
0
LINE
8
Black
10
95.9
20
-88.15
11
96.7
21
-88.15
0
LINE
8
Black
10
96.7
20
-88.15
11
96.7
21
-87.85
0
LINE
8
Black
10
96.7
20
-87.85
11
95.9
21
-87.85
0
LINE
8
Black
10
95.9
20
-87.35
11
95.9
21
-87.65
0
LINE
8
Black
10
95.9
20
-87.65
11
96.7
21
-87.65
0
LINE
8
Black
10
96.7
20
-87.65
11
96.7
21
-87.35
0
LINE
8
Black
10
96.7
20
-87.35
11
95.9
21
-87.35
0
LINE
8
Black
10
95.9
20
-86.845
11
95.9
21
-87.145
0
LINE
8
Black
10
95.9
20
-87.145
11
96.7
21
-87.145
0
LINE
8
Black
10
96.7
20
-87.145
11
96.7
21
-86.845
0
LINE
8
Black
10
96.7
20
-86.845
11
95.9
21
-86.845
0
LINE
8
Black
10
95.9
20
-86.35
11
95.9
21
-86.65
0
LINE
8
Black
10
95.9
20
-86.65
11
96.7
21
-86.65
0
LINE
8
Black
10
96.7
20
-86.65
11
96.7
21
-86.35
0
LINE
8
Black
10
96.7
20
-86.35
11
95.9
21
-86.35
0
LINE
8
Black
10
95.375
20
-85.325
11
95.375
21
-86.125
0
LINE
8
Black
10
95.375
20
-86.125
11
95.675
21
-86.125
0
LINE
8
Black
10
95.675
20
-86.125
11
95.675
21
-85.325
0
LINE
8
Black
10
95.675
20
-85.325
11
95.375
21
-85.325
0
LINE
8
Black
10
94.86
20
-85.325
11
94.86
21
-86.125
0
LINE
8
Black
10
94.86
20
-86.125
11
95.16
21
-86.125
0
LINE
8
Black
10
95.16
20
-86.125
11
95.16
21
-85.325
0
LINE
8
Black
10
95.16
20
-85.325
11
94.86
21
-85.325
0
LINE
8
Black
10
94.375
20
-85.325
11
94.375
21
-86.125
0
LINE
8
Black
10
94.375
20
-86.125
11
94.675
21
-86.125
0
LINE
8
Black
10
94.675
20
-86.125
11
94.675
21
-85.325
0
LINE
8
Black
10
94.675
20
-85.325
11
94.375
21
-85.325
0
LINE
8
Black
10
94.5004
20
-62.1023
11
93.4996
21
-62.1023
0
LINE
8
Black
10
93.4996
20
-62.1023
11
93.4996
21
-63.0014
0
LINE
8
Black
10
93.4996
20
-63.0014
11
94.5004
21
-63.0014
0
LINE
8
Black
10
94.5004
20
-63.0014
11
94.5004
21
-62.1023
0
LINE
8
Black
10
94.5004
20
-60.5986
11
93.4996
21
-60.5986
0
LINE
8
Black
10
93.4996
20
-60.5986
11
93.4996
21
-61.4977
0
LINE
8
Black
10
93.4996
20
-61.4977
11
94.5004
21
-61.4977
0
LINE
8
Black
10
94.5004
20
-61.4977
11
94.5004
21
-60.5986
0
LINE
8
Black
10
96.3004
20
-62.1023
11
95.2996
21
-62.1023
0
LINE
8
Black
10
95.2996
20
-62.1023
11
95.2996
21
-63.0014
0
LINE
8
Black
10
95.2996
20
-63.0014
11
96.3004
21
-63.0014
0
LINE
8
Black
10
96.3004
20
-63.0014
11
96.3004
21
-62.1023
0
LINE
8
Black
10
96.3004
20
-60.5986
11
95.2996
21
-60.5986
0
LINE
8
Black
10
95.2996
20
-60.5986
11
95.2996
21
-61.4977
0
LINE
8
Black
10
95.2996
20
-61.4977
11
96.3004
21
-61.4977
0
LINE
8
Black
10
96.3004
20
-61.4977
11
96.3004
21
-60.5986
0
LINE
8
Black
10
91.6004
20
-67.3023
11
90.5996
21
-67.3023
0
LINE
8
Black
10
90.5996
20
-67.3023
11
90.5996
21
-68.2014
0
LINE
8
Black
10
90.5996
20
-68.2014
11
91.6004
21
-68.2014
0
LINE
8
Black
10
91.6004
20
-68.2014
11
91.6004
21
-67.3023
0
LINE
8
Black
10
91.6004
20
-65.7986
11
90.5996
21
-65.7986
0
LINE
8
Black
10
90.5996
20
-65.7986
11
90.5996
21
-66.6977
0
LINE
8
Black
10
90.5996
20
-66.6977
11
91.6004
21
-66.6977
0
LINE
8
Black
10
91.6004
20
-66.6977
11
91.6004
21
-65.7986
0
LINE
8
Black
10
104.9
20
-62.645
11
99.9
21
-62.645
0
LINE
8
Black
10
99.9
20
-62.645
11
99.9
21
-63.405
0
LINE
8
Black
10
99.9
20
-63.405
11
104.9
21
-63.405
0
LINE
8
Black
10
104.9
20
-63.405
11
104.9
21
-62.645
0
LINE
8
Black
10
104.9
20
-65.185
11
99.9
21
-65.185
0
LINE
8
Black
10
99.9
20
-65.185
11
99.9
21
-65.945
0
LINE
8
Black
10
99.9
20
-65.945
11
104.9
21
-65.945
0
LINE
8
Black
10
104.9
20
-65.945
11
104.9
21
-65.185
0
LINE
8
Black
10
104.9
20
-67.725
11
99.9
21
-67.725
0
LINE
8
Black
10
99.9
20
-67.725
11
99.9
21
-68.485
0
LINE
8
Black
10
99.9
20
-68.485
11
104.9
21
-68.485
0
LINE
8
Black
10
104.9
20
-68.485
11
104.9
21
-67.725
0
LINE
8
Black
10
104.9
20
-66.455
11
99.9
21
-66.455
0
LINE
8
Black
10
99.9
20
-66.455
11
99.9
21
-67.215
0
LINE
8
Black
10
99.9
20
-67.215
11
104.9
21
-67.215
0
LINE
8
Black
10
104.9
20
-67.215
11
104.9
21
-66.455
0
LINE
8
Black
10
104.9
20
-68.995
11
99.9
21
-68.995
0
LINE
8
Black
10
99.9
20
-68.995
11
99.9
21
-69.755
0
LINE
8
Black
10
99.9
20
-69.755
11
104.9
21
-69.755
0
LINE
8
Black
10
104.9
20
-69.755
11
104.9
21
-68.995
0
LINE
8
Black
10
104.9
20
-63.915
11
99.9
21
-63.915
0
LINE
8
Black
10
99.9
20
-63.915
11
99.9
21
-64.675
0
LINE
8
Black
10
99.9
20
-64.675
11
104.9
21
-64.675
0
LINE
8
Black
10
104.9
20
-64.675
11
104.9
21
-63.915
0
LINE
8
Black
10
120.7
20
-61.8
11
116.2
21
-61.8
0
LINE
8
Black
10
116.2
20
-61.8
11
116.2
21
-70.6
0
LINE
8
Black
10
116.2
20
-70.6
11
120.7
21
-70.6
0
LINE
8
Black
10
120.7
20
-70.6
11
120.7
21
-61.8
0
LINE
8
Black
10
93.35
20
-65.85
11
93.35
21
-66.15
0
LINE
8
Black
10
93.35
20
-66.15
11
94.15
21
-66.15
0
LINE
8
Black
10
94.15
20
-66.15
11
94.15
21
-65.85
0
LINE
8
Black
10
94.15
20
-65.85
11
93.35
21
-65.85
0
LINE
8
Black
10
93.35
20
-65.35
11
93.35
21
-65.65
0
LINE
8
Black
10
93.35
20
-65.65
11
94.15
21
-65.65
0
LINE
8
Black
10
94.15
20
-65.65
11
94.15
21
-65.35
0
LINE
8
Black
10
94.15
20
-65.35
11
93.35
21
-65.35
0
LINE
8
Black
10
95.9
20
-65.35
11
95.9
21
-65.65
0
LINE
8
Black
10
95.9
20
-65.65
11
96.7
21
-65.65
0
LINE
8
Black
10
96.7
20
-65.65
11
96.7
21
-65.35
0
LINE
8
Black
10
96.7
20
-65.35
11
95.9
21
-65.35
0
LINE
8
Black
10
93.35
20
-66.345
11
93.35
21
-66.645
0
LINE
8
Black
10
93.35
20
-66.645
11
94.15
21
-66.645
0
LINE
8
Black
10
94.15
20
-66.645
11
94.15
21
-66.345
0
LINE
8
Black
10
94.15
20
-66.345
11
93.35
21
-66.345
0
LINE
8
Black
10
93.35
20
-66.85
11
93.35
21
-67.15
0
LINE
8
Black
10
93.35
20
-67.15
11
94.15
21
-67.15
0
LINE
8
Black
10
94.15
20
-67.15
11
94.15
21
-66.85
0
LINE
8
Black
10
94.15
20
-66.85
11
93.35
21
-66.85
0
LINE
8
Black
10
93.35
20
-67.35
11
93.35
21
-67.65
0
LINE
8
Black
10
93.35
20
-67.65
11
94.15
21
-67.65
0
LINE
8
Black
10
94.15
20
-67.65
11
94.15
21
-67.35
0
LINE
8
Black
10
94.15
20
-67.35
11
93.35
21
-67.35
0
LINE
8
Black
10
94.375
20
-67.375
11
94.375
21
-68.175
0
LINE
8
Black
10
94.375
20
-68.175
11
94.675
21
-68.175
0
LINE
8
Black
10
94.675
20
-68.175
11
94.675
21
-67.375
0
LINE
8
Black
10
94.675
20
-67.375
11
94.375
21
-67.375
0
LINE
8
Black
10
94.84
20
-67.375
11
94.84
21
-68.175
0
LINE
8
Black
10
94.84
20
-68.175
11
95.14
21
-68.175
0
LINE
8
Black
10
95.14
20
-68.175
11
95.14
21
-67.375
0
LINE
8
Black
10
95.14
20
-67.375
11
94.84
21
-67.375
0
LINE
8
Black
10
95.375
20
-67.375
11
95.375
21
-68.175
0
LINE
8
Black
10
95.375
20
-68.175
11
95.675
21
-68.175
0
LINE
8
Black
10
95.675
20
-68.175
11
95.675
21
-67.375
0
LINE
8
Black
10
95.675
20
-67.375
11
95.375
21
-67.375
0
LINE
8
Black
10
95.9
20
-67.35
11
95.9
21
-67.65
0
LINE
8
Black
10
95.9
20
-67.65
11
96.7
21
-67.65
0
LINE
8
Black
10
96.7
20
-67.65
11
96.7
21
-67.35
0
LINE
8
Black
10
96.7
20
-67.35
11
95.9
21
-67.35
0
LINE
8
Black
10
95.9
20
-66.85
11
95.9
21
-67.15
0
LINE
8
Black
10
95.9
20
-67.15
11
96.7
21
-67.15
0
LINE
8
Black
10
96.7
20
-67.15
11
96.7
21
-66.85
0
LINE
8
Black
10
96.7
20
-66.85
11
95.9
21
-66.85
0
LINE
8
Black
10
95.9
20
-66.345
11
95.9
21
-66.645
0
LINE
8
Black
10
95.9
20
-66.645
11
96.7
21
-66.645
0
LINE
8
Black
10
96.7
20
-66.645
11
96.7
21
-66.345
0
LINE
8
Black
10
96.7
20
-66.345
11
95.9
21
-66.345
0
LINE
8
Black
10
95.9
20
-65.85
11
95.9
21
-66.15
0
LINE
8
Black
10
95.9
20
-66.15
11
96.7
21
-66.15
0
LINE
8
Black
10
96.7
20
-66.15
11
96.7
21
-65.85
0
LINE
8
Black
10
96.7
20
-65.85
11
95.9
21
-65.85
0
LINE
8
Black
10
95.375
20
-64.825
11
95.375
21
-65.625
0
LINE
8
Black
10
95.375
20
-65.625
11
95.675
21
-65.625
0
LINE
8
Black
10
95.675
20
-65.625
11
95.675
21
-64.825
0
LINE
8
Black
10
95.675
20
-64.825
11
95.375
21
-64.825
0
LINE
8
Black
10
94.86
20
-64.825
11
94.86
21
-65.625
0
LINE
8
Black
10
94.86
20
-65.625
11
95.16
21
-65.625
0
LINE
8
Black
10
95.16
20
-65.625
11
95.16
21
-64.825
0
LINE
8
Black
10
95.16
20
-64.825
11
94.86
21
-64.825
0
LINE
8
Black
10
94.375
20
-64.825
11
94.375
21
-65.625
0
LINE
8
Black
10
94.375
20
-65.625
11
94.675
21
-65.625
0
LINE
8
Black
10
94.675
20
-65.625
11
94.675
21
-64.825
0
LINE
8
Black
10
94.675
20
-64.825
11
94.375
21
-64.825
0
LINE
8
Black
10
94.5004
20
-41.6023
11
93.4996
21
-41.6023
0
LINE
8
Black
10
93.4996
20
-41.6023
11
93.4996
21
-42.5014
0
LINE
8
Black
10
93.4996
20
-42.5014
11
94.5004
21
-42.5014
0
LINE
8
Black
10
94.5004
20
-42.5014
11
94.5004
21
-41.6023
0
LINE
8
Black
10
94.5004
20
-40.0986
11
93.4996
21
-40.0986
0
LINE
8
Black
10
93.4996
20
-40.0986
11
93.4996
21
-40.9977
0
LINE
8
Black
10
93.4996
20
-40.9977
11
94.5004
21
-40.9977
0
LINE
8
Black
10
94.5004
20
-40.9977
11
94.5004
21
-40.0986
0
LINE
8
Black
10
96.3004
20
-41.6023
11
95.2996
21
-41.6023
0
LINE
8
Black
10
95.2996
20
-41.6023
11
95.2996
21
-42.5014
0
LINE
8
Black
10
95.2996
20
-42.5014
11
96.3004
21
-42.5014
0
LINE
8
Black
10
96.3004
20
-42.5014
11
96.3004
21
-41.6023
0
LINE
8
Black
10
96.3004
20
-40.0986
11
95.2996
21
-40.0986
0
LINE
8
Black
10
95.2996
20
-40.0986
11
95.2996
21
-40.9977
0
LINE
8
Black
10
95.2996
20
-40.9977
11
96.3004
21
-40.9977
0
LINE
8
Black
10
96.3004
20
-40.9977
11
96.3004
21
-40.0986
0
LINE
8
Black
10
91.6004
20
-46.8023
11
90.5996
21
-46.8023
0
LINE
8
Black
10
90.5996
20
-46.8023
11
90.5996
21
-47.7014
0
LINE
8
Black
10
90.5996
20
-47.7014
11
91.6004
21
-47.7014
0
LINE
8
Black
10
91.6004
20
-47.7014
11
91.6004
21
-46.8023
0
LINE
8
Black
10
91.6004
20
-45.2986
11
90.5996
21
-45.2986
0
LINE
8
Black
10
90.5996
20
-45.2986
11
90.5996
21
-46.1977
0
LINE
8
Black
10
90.5996
20
-46.1977
11
91.6004
21
-46.1977
0
LINE
8
Black
10
91.6004
20
-46.1977
11
91.6004
21
-45.2986
0
LINE
8
Black
10
104.9
20
-42.145
11
99.9
21
-42.145
0
LINE
8
Black
10
99.9
20
-42.145
11
99.9
21
-42.905
0
LINE
8
Black
10
99.9
20
-42.905
11
104.9
21
-42.905
0
LINE
8
Black
10
104.9
20
-42.905
11
104.9
21
-42.145
0
LINE
8
Black
10
104.9
20
-44.685
11
99.9
21
-44.685
0
LINE
8
Black
10
99.9
20
-44.685
11
99.9
21
-45.445
0
LINE
8
Black
10
99.9
20
-45.445
11
104.9
21
-45.445
0
LINE
8
Black
10
104.9
20
-45.445
11
104.9
21
-44.685
0
LINE
8
Black
10
104.9
20
-47.225
11
99.9
21
-47.225
0
LINE
8
Black
10
99.9
20
-47.225
11
99.9
21
-47.985
0
LINE
8
Black
10
99.9
20
-47.985
11
104.9
21
-47.985
0
LINE
8
Black
10
104.9
20
-47.985
11
104.9
21
-47.225
0
LINE
8
Black
10
104.9
20
-45.955
11
99.9
21
-45.955
0
LINE
8
Black
10
99.9
20
-45.955
11
99.9
21
-46.715
0
LINE
8
Black
10
99.9
20
-46.715
11
104.9
21
-46.715
0
LINE
8
Black
10
104.9
20
-46.715
11
104.9
21
-45.955
0
LINE
8
Black
10
104.9
20
-48.495
11
99.9
21
-48.495
0
LINE
8
Black
10
99.9
20
-48.495
11
99.9
21
-49.255
0
LINE
8
Black
10
99.9
20
-49.255
11
104.9
21
-49.255
0
LINE
8
Black
10
104.9
20
-49.255
11
104.9
21
-48.495
0
LINE
8
Black
10
104.9
20
-43.415
11
99.9
21
-43.415
0
LINE
8
Black
10
99.9
20
-43.415
11
99.9
21
-44.175
0
LINE
8
Black
10
99.9
20
-44.175
11
104.9
21
-44.175
0
LINE
8
Black
10
104.9
20
-44.175
11
104.9
21
-43.415
0
LINE
8
Black
10
120.7
20
-41.3
11
116.2
21
-41.3
0
LINE
8
Black
10
116.2
20
-41.3
11
116.2
21
-50.1
0
LINE
8
Black
10
116.2
20
-50.1
11
120.7
21
-50.1
0
LINE
8
Black
10
120.7
20
-50.1
11
120.7
21
-41.3
0
LINE
8
Black
10
93.35
20
-45.35
11
93.35
21
-45.65
0
LINE
8
Black
10
93.35
20
-45.65
11
94.15
21
-45.65
0
LINE
8
Black
10
94.15
20
-45.65
11
94.15
21
-45.35
0
LINE
8
Black
10
94.15
20
-45.35
11
93.35
21
-45.35
0
LINE
8
Black
10
93.35
20
-44.85
11
93.35
21
-45.15
0
LINE
8
Black
10
93.35
20
-45.15
11
94.15
21
-45.15
0
LINE
8
Black
10
94.15
20
-45.15
11
94.15
21
-44.85
0
LINE
8
Black
10
94.15
20
-44.85
11
93.35
21
-44.85
0
LINE
8
Black
10
95.9
20
-44.85
11
95.9
21
-45.15
0
LINE
8
Black
10
95.9
20
-45.15
11
96.7
21
-45.15
0
LINE
8
Black
10
96.7
20
-45.15
11
96.7
21
-44.85
0
LINE
8
Black
10
96.7
20
-44.85
11
95.9
21
-44.85
0
LINE
8
Black
10
93.35
20
-45.845
11
93.35
21
-46.145
0
LINE
8
Black
10
93.35
20
-46.145
11
94.15
21
-46.145
0
LINE
8
Black
10
94.15
20
-46.145
11
94.15
21
-45.845
0
LINE
8
Black
10
94.15
20
-45.845
11
93.35
21
-45.845
0
LINE
8
Black
10
93.35
20
-46.35
11
93.35
21
-46.65
0
LINE
8
Black
10
93.35
20
-46.65
11
94.15
21
-46.65
0
LINE
8
Black
10
94.15
20
-46.65
11
94.15
21
-46.35
0
LINE
8
Black
10
94.15
20
-46.35
11
93.35
21
-46.35
0
LINE
8
Black
10
93.35
20
-46.85
11
93.35
21
-47.15
0
LINE
8
Black
10
93.35
20
-47.15
11
94.15
21
-47.15
0
LINE
8
Black
10
94.15
20
-47.15
11
94.15
21
-46.85
0
LINE
8
Black
10
94.15
20
-46.85
11
93.35
21
-46.85
0
LINE
8
Black
10
94.375
20
-46.875
11
94.375
21
-47.675
0
LINE
8
Black
10
94.375
20
-47.675
11
94.675
21
-47.675
0
LINE
8
Black
10
94.675
20
-47.675
11
94.675
21
-46.875
0
LINE
8
Black
10
94.675
20
-46.875
11
94.375
21
-46.875
0
LINE
8
Black
10
94.84
20
-46.875
11
94.84
21
-47.675
0
LINE
8
Black
10
94.84
20
-47.675
11
95.14
21
-47.675
0
LINE
8
Black
10
95.14
20
-47.675
11
95.14
21
-46.875
0
LINE
8
Black
10
95.14
20
-46.875
11
94.84
21
-46.875
0
LINE
8
Black
10
95.375
20
-46.875
11
95.375
21
-47.675
0
LINE
8
Black
10
95.375
20
-47.675
11
95.675
21
-47.675
0
LINE
8
Black
10
95.675
20
-47.675
11
95.675
21
-46.875
0
LINE
8
Black
10
95.675
20
-46.875
11
95.375
21
-46.875
0
LINE
8
Black
10
95.9
20
-46.85
11
95.9
21
-47.15
0
LINE
8
Black
10
95.9
20
-47.15
11
96.7
21
-47.15
0
LINE
8
Black
10
96.7
20
-47.15
11
96.7
21
-46.85
0
LINE
8
Black
10
96.7
20
-46.85
11
95.9
21
-46.85
0
LINE
8
Black
10
95.9
20
-46.35
11
95.9
21
-46.65
0
LINE
8
Black
10
95.9
20
-46.65
11
96.7
21
-46.65
0
LINE
8
Black
10
96.7
20
-46.65
11
96.7
21
-46.35
0
LINE
8
Black
10
96.7
20
-46.35
11
95.9
21
-46.35
0
LINE
8
Black
10
95.9
20
-45.845
11
95.9
21
-46.145
0
LINE
8
Black
10
95.9
20
-46.145
11
96.7
21
-46.145
0
LINE
8
Black
10
96.7
20
-46.145
11
96.7
21
-45.845
0
LINE
8
Black
10
96.7
20
-45.845
11
95.9
21
-45.845
0
LINE
8
Black
10
95.9
20
-45.35
11
95.9
21
-45.65
0
LINE
8
Black
10
95.9
20
-45.65
11
96.7
21
-45.65
0
LINE
8
Black
10
96.7
20
-45.65
11
96.7
21
-45.35
0
LINE
8
Black
10
96.7
20
-45.35
11
95.9
21
-45.35
0
LINE
8
Black
10
95.375
20
-44.325
11
95.375
21
-45.125
0
LINE
8
Black
10
95.375
20
-45.125
11
95.675
21
-45.125
0
LINE
8
Black
10
95.675
20
-45.125
11
95.675
21
-44.325
0
LINE
8
Black
10
95.675
20
-44.325
11
95.375
21
-44.325
0
LINE
8
Black
10
94.86
20
-44.325
11
94.86
21
-45.125
0
LINE
8
Black
10
94.86
20
-45.125
11
95.16
21
-45.125
0
LINE
8
Black
10
95.16
20
-45.125
11
95.16
21
-44.325
0
LINE
8
Black
10
95.16
20
-44.325
11
94.86
21
-44.325
0
LINE
8
Black
10
94.375
20
-44.325
11
94.375
21
-45.125
0
LINE
8
Black
10
94.375
20
-45.125
11
94.675
21
-45.125
0
LINE
8
Black
10
94.675
20
-45.125
11
94.675
21
-44.325
0
LINE
8
Black
10
94.675
20
-44.325
11
94.375
21
-44.325
0
CIRCLE
8
Black
10
80.2
20
-66
40
0.35
0
CIRCLE
8
Black
10
74.4
20
-66.8
40
0.35
0
CIRCLE
8
Black
10
81.4732
20
-60.7232
40
0.35
0
CIRCLE
8
Black
10
85.325
20
-56.675
40
0.35
0
CIRCLE
8
Black
10
69.325
20
-56.675
40
0.35
0
CIRCLE
8
Black
10
65.4732
20
-60.7232
40
0.35
0
CIRCLE
8
Black
10
58.4
20
-66.8
40
0.35
0
CIRCLE
8
Black
10
64.2
20
-66
40
0.35
0
CIRCLE
8
Black
10
63.6
20
-83.3
40
0.35
0
CIRCLE
8
Black
10
60.1
20
-90.6
40
0.35
0
CIRCLE
8
Black
10
61.8
20
-90.5
40
0.35
0
CIRCLE
8
Black
10
97.1
20
-83.3
40
0.35
0
CIRCLE
8
Black
10
93.6
20
-90.6
40
0.35
0
CIRCLE
8
Black
10
95.3
20
-90.5
40
0.35
0
CIRCLE
8
Black
10
97.1
20
-62.8
40
0.35
0
CIRCLE
8
Black
10
93.6
20
-70.1
40
0.35
0
CIRCLE
8
Black
10
95.3
20
-70
40
0.35
0
CIRCLE
8
Black
10
97.1
20
-42.3
40
0.35
0
CIRCLE
8
Black
10
93.6
20
-49.6
40
0.35
0
CIRCLE
8
Black
10
95.3
20
-49.5
40
0.35
0
CIRCLE
8
Black
10
82.75
20
-60.75
40
0.35
0
CIRCLE
8
Black
10
82
20
-65
40
0.35
0
CIRCLE
8
Black
10
66
20
-65
40
0.35
0
CIRCLE
8
Black
10
66.75
20
-60.75
40
0.35
0
CIRCLE
8
Black
10
64.4
20
-84.9
40
0.35
0
CIRCLE
8
Black
10
63.1
20
-89.5
40
0.35
0
CIRCLE
8
Black
10
97.9
20
-84.9
40
0.35
0
CIRCLE
8
Black
10
96.6
20
-89.5
40
0.35
0
CIRCLE
8
Black
10
97.9
20
-64.4
40
0.35
0
CIRCLE
8
Black
10
96.6
20
-69
40
0.35
0
CIRCLE
8
Black
10
97.9
20
-43.9
40
0.35
0
CIRCLE
8
Black
10
96.6
20
-48.5
40
0.35
0
CIRCLE
8
Black
10
83.3
20
-67.1
40
0.35
0
CIRCLE
8
Black
10
76.8
20
-65.6
40
0.35
0
CIRCLE
8
Black
10
60.8
20
-65.6
40
0.35
0
CIRCLE
8
Black
10
67.3
20
-67.1
40
0.35
0
CIRCLE
8
Black
10
65.4
20
-87.3
40
0.35
0
CIRCLE
8
Black
10
58.8
20
-89.6
40
0.35
0
CIRCLE
8
Black
10
98.9
20
-87.3
40
0.35
0
CIRCLE
8
Black
10
92.3
20
-89.6
40
0.35
0
CIRCLE
8
Black
10
98.9
20
-66.8
40
0.35
0
CIRCLE
8
Black
10
92.3
20
-69.1
40
0.35
0
CIRCLE
8
Black
10
98.9
20
-46.3
40
0.35
0
CIRCLE
8
Black
10
92.3
20
-48.6
40
0.35
0
LINE
8
Black
10
81.5061
20
-62.1061
11
81.6061
21
-62.0061
0
LINE
8
Black
10
81.2939
20
-61.8939
11
81.3939
21
-61.7939
0
ARC
8
Black
10
81.5
20
-61.9
40
0.15
50
315
51
495
0
ARC
8
Black
10
81.4
20
-62
40
0.15
50
135
51
315
0
LINE
8
Black
10
81.65
20
-61.6
11
81.65
21
-61.4
0
LINE
8
Black
10
81.35
20
-61.6
11
81.35
21
-61.4
0
ARC
8
Black
10
81.5
20
-61.4
40
0.15
50
360
51
540
0
ARC
8
Black
10
81.5
20
-61.6
40
0.15
50
180
51
360
0
LINE
8
Black
10
81.65
20
-61.9
11
81.65
21
-61.6
0
LINE
8
Black
10
81.35
20
-61.9
11
81.35
21
-61.6
0
ARC
8
Black
10
81.5
20
-61.6
40
0.15
50
360
51
540
0
ARC
8
Black
10
81.5
20
-61.9
40
0.15
50
180
51
360
0
LINE
8
Black
10
81.5772
20
-61.5286
11
81.8272
21
-61.3786
0
LINE
8
Black
10
81.4228
20
-61.2714
11
81.6728
21
-61.1214
0
ARC
8
Black
10
81.75
20
-61.25
40
0.15
50
300.964
51
480.964
0
ARC
8
Black
10
81.5
20
-61.4
40
0.15
50
120.964
51
300.964
0
LINE
8
Black
10
81.9
20
-61.25
11
81.9
21
-60.75
0
LINE
8
Black
10
81.6
20
-61.25
11
81.6
21
-60.75
0
ARC
8
Black
10
81.75
20
-60.75
40
0.15
50
360
51
540
0
ARC
8
Black
10
81.75
20
-61.25
40
0.15
50
180
51
360
0
LINE
8
Black
10
81.4732
20
-60.9
11
81.75
21
-60.9
0
LINE
8
Black
10
81.4732
20
-60.6
11
81.75
21
-60.6
0
ARC
8
Black
10
81.75
20
-60.75
40
0.15
50
270
51
450
0
ARC
8
Black
10
81.4732
20
-60.75
40
0.15
50
90
51
270
0
LINE
8
Black
10
80.8
20
-62.15
11
81.4
21
-62.15
0
LINE
8
Black
10
80.8
20
-61.85
11
81.4
21
-61.85
0
ARC
8
Black
10
81.4
20
-62
40
0.15
50
270
51
450
0
ARC
8
Black
10
80.8
20
-62
40
0.15
50
90
51
270
0
LINE
8
Black
10
81.7061
20
-62.6061
11
81.8061
21
-62.5061
0
LINE
8
Black
10
81.4939
20
-62.3939
11
81.5939
21
-62.2939
0
ARC
8
Black
10
81.7
20
-62.4
40
0.15
50
315
51
495
0
ARC
8
Black
10
81.6
20
-62.5
40
0.15
50
135
51
315
0
LINE
8
Black
10
81.85
20
-62.4
11
81.85
21
-61.8
0
LINE
8
Black
10
81.55
20
-62.4
11
81.55
21
-61.8
0
ARC
8
Black
10
81.7
20
-61.8
40
0.15
50
360
51
540
0
ARC
8
Black
10
81.7
20
-62.4
40
0.15
50
180
51
360
0
LINE
8
Black
10
81.8061
20
-61.6939
11
81.6061
21
-61.4939
0
LINE
8
Black
10
81.5939
20
-61.9061
11
81.3939
21
-61.7061
0
ARC
8
Black
10
81.5
20
-61.6
40
0.15
50
405
51
585
0
ARC
8
Black
10
81.7
20
-61.8
40
0.15
50
225
51
405
0
LINE
8
Black
10
80.8
20
-62.65
11
81.6
21
-62.65
0
LINE
8
Black
10
80.8
20
-62.35
11
81.6
21
-62.35
0
ARC
8
Black
10
81.6
20
-62.5
40
0.15
50
270
51
450
0
ARC
8
Black
10
80.8
20
-62.5
40
0.15
50
90
51
270
0
LINE
8
Black
10
74.2707
20
-65.1323
11
75.6707
21
-64.3841
0
LINE
8
Black
10
74.1293
20
-64.8677
11
75.5293
21
-64.1195
0
ARC
8
Black
10
75.6
20
-64.2518
40
0.15
50
298.12
51
478.12
0
ARC
8
Black
10
74.2
20
-65
40
0.15
50
118.12
51
298.12
0
LINE
8
Black
10
76.7989
20
-62.8889
11
76.3939
21
-63.2939
0
LINE
8
Black
10
77.0111
20
-63.1011
11
76.6061
21
-63.5061
0
ARC
8
Black
10
76.5
20
-63.4
40
0.15
50
495
51
675
0
ARC
8
Black
10
76.905
20
-62.995
40
0.15
50
315
51
495
0
LINE
8
Black
10
76.65
20
-64.1
11
76.65
21
-63.4
0
LINE
8
Black
10
76.35
20
-64.1
11
76.35
21
-63.4
0
ARC
8
Black
10
76.5
20
-63.4
40
0.15
50
360
51
540
0
ARC
8
Black
10
76.5
20
-64.1
40
0.15
50
180
51
360
0
LINE
8
Black
10
76.3939
20
-63.9939
11
76.2421
21
-64.1458
0
LINE
8
Black
10
76.6061
20
-64.2061
11
76.4542
21
-64.3579
0
ARC
8
Black
10
76.3482
20
-64.2518
40
0.15
50
495
51
675
0
ARC
8
Black
10
76.5
20
-64.1
40
0.15
50
315
51
495
0
LINE
8
Black
10
75.6
20
-64.4018
11
76.3482
21
-64.4018
0
LINE
8
Black
10
75.6
20
-64.1018
11
76.3482
21
-64.1018
0
ARC
8
Black
10
76.3482
20
-64.2518
40
0.15
50
270
51
450
0
ARC
8
Black
10
75.6
20
-64.2518
40
0.15
50
90
51
270
0
LINE
8
Black
10
76.905
20
-63.145
11
78.25
21
-63.145
0
LINE
8
Black
10
76.905
20
-62.845
11
78.25
21
-62.845
0
ARC
8
Black
10
78.25
20
-62.995
40
0.15
50
270
51
450
0
ARC
8
Black
10
76.905
20
-62.995
40
0.15
50
90
51
270
0
LINE
8
Black
10
79.3735
20
-64.9805
11
80.0735
21
-66.0805
0
LINE
8
Black
10
79.6265
20
-64.8195
11
80.3265
21
-65.9195
0
ARC
8
Black
10
80.2
20
-66
40
0.15
50
212.471
51
392.471
0
ARC
8
Black
10
79.5
20
-64.9
40
0.15
50
32.4712
51
212.471
0
LINE
8
Black
10
74.2939
20
-66.6939
11
74.0891
21
-66.8988
0
LINE
8
Black
10
74.5061
20
-66.9061
11
74.3012
21
-67.1109
0
ARC
8
Black
10
74.1951
20
-67.0049
40
0.15
50
495
51
675
0
ARC
8
Black
10
74.4
20
-66.8
40
0.15
50
315
51
495
0
LINE
8
Black
10
74.3451
20
-67.0052
11
74.35
21
-65.0004
0
LINE
8
Black
10
74.0451
20
-67.0045
11
74.05
21
-64.9996
0
ARC
8
Black
10
74.2
20
-65
40
0.15
50
359.86
51
539.86
0
ARC
8
Black
10
74.1951
20
-67.0049
40
0.15
50
179.86
51
359.86
0
LINE
8
Black
10
79.34
20
-64.2774
11
79.35
21
-64.9024
0
LINE
8
Black
10
79.64
20
-64.2726
11
79.65
21
-64.8976
0
ARC
8
Black
10
79.5
20
-64.9
40
0.15
50
180.917
51
360.917
0
ARC
8
Black
10
79.49
20
-64.275
40
0.15
50
0.916654
51
180.917
0
LINE
8
Black
10
81.3912
20
-63.6497
11
83.0912
21
-63.7497
0
LINE
8
Black
10
81.4088
20
-63.3503
11
83.1088
21
-63.4503
0
ARC
8
Black
10
83.1
20
-63.6
40
0.15
50
266.634
51
446.634
0
ARC
8
Black
10
81.4
20
-63.5
40
0.15
50
86.6335
51
266.634
0
LINE
8
Black
10
83.25
20
-65.8
11
83.25
21
-63.6
0
LINE
8
Black
10
82.95
20
-65.8
11
82.95
21
-63.6
0
ARC
8
Black
10
83.1
20
-63.6
40
0.15
50
360
51
540
0
ARC
8
Black
10
83.1
20
-65.8
40
0.15
50
180
51
360
0
LINE
8
Black
10
83.0456
20
-65.6602
11
81.2456
21
-66.3602
0
LINE
8
Black
10
83.1544
20
-65.9398
11
81.3544
21
-66.6398
0
ARC
8
Black
10
81.3
20
-66.5
40
0.15
50
471.251
51
651.251
0
ARC
8
Black
10
83.1
20
-65.8
40
0.15
50
291.251
51
471.251
0
LINE
8
Black
10
81.3621
20
-66.3634
11
80.2621
21
-65.8634
0
LINE
8
Black
10
81.2379
20
-66.6366
11
80.1379
21
-66.1366
0
ARC
8
Black
10
80.2
20
-66
40
0.15
50
425.556
51
605.556
0
ARC
8
Black
10
81.3
20
-66.5
40
0.15
50
245.556
51
425.556
0
LINE
8
Black
10
80.8
20
-63.65
11
81.4
21
-63.65
0
LINE
8
Black
10
80.8
20
-63.35
11
81.4
21
-63.35
0
ARC
8
Black
10
81.4
20
-63.5
40
0.15
50
270
51
450
0
ARC
8
Black
10
80.8
20
-63.5
40
0.15
50
90
51
270
0
LINE
8
Black
10
77.9061
20
-64.2061
11
78.0061
21
-64.1061
0
LINE
8
Black
10
77.6939
20
-63.9939
11
77.7939
21
-63.8939
0
ARC
8
Black
10
77.9
20
-64
40
0.15
50
315
51
495
0
ARC
8
Black
10
77.8
20
-64.1
40
0.15
50
135
51
315
0
LINE
8
Black
10
77.9
20
-64.15
11
78.25
21
-64.15
0
LINE
8
Black
10
77.9
20
-63.85
11
78.25
21
-63.85
0
ARC
8
Black
10
78.25
20
-64
40
0.15
50
270
51
450
0
ARC
8
Black
10
77.9
20
-64
40
0.15
50
90
51
270
0
LINE
8
Black
10
77.948
20
-66.8246
11
78.2118
21
-65.2401
0
LINE
8
Black
10
77.652
20
-66.7754
11
77.9158
21
-65.1909
0
ARC
8
Black
10
78.0638
20
-65.2155
40
0.15
50
350.548
51
530.548
0
ARC
8
Black
10
77.8
20
-66.8
40
0.15
50
170.548
51
350.548
0
LINE
8
Black
10
74.4
20
-66.95
11
77.8
21
-66.95
0
LINE
8
Black
10
74.4
20
-66.65
11
77.8
21
-66.65
0
ARC
8
Black
10
77.8
20
-66.8
40
0.15
50
270
51
450
0
ARC
8
Black
10
74.4
20
-66.8
40
0.15
50
90
51
270
0
LINE
8
Black
10
77.6621
20
-64.6591
11
77.9259
21
-65.2746
0
LINE
8
Black
10
77.9379
20
-64.5409
11
78.2017
21
-65.1564
0
ARC
8
Black
10
78.0638
20
-65.2155
40
0.15
50
203.199
51
383.199
0
ARC
8
Black
10
77.8
20
-64.6
40
0.15
50
23.1986
51
203.199
0
LINE
8
Black
10
77.95
20
-64.6
11
77.95
21
-64.1
0
LINE
8
Black
10
77.65
20
-64.6
11
77.65
21
-64.1
0
ARC
8
Black
10
77.8
20
-64.1
40
0.15
50
360
51
540
0
ARC
8
Black
10
77.8
20
-64.6
40
0.15
50
180
51
360
0
LINE
8
Black
10
81.1439
20
-60.6061
11
81.3671
21
-60.8292
0
LINE
8
Black
10
81.3561
20
-60.3939
11
81.5792
21
-60.6171
0
ARC
8
Black
10
81.4732
20
-60.7232
40
0.15
50
225
51
405
0
ARC
8
Black
10
81.25
20
-60.5
40
0.15
50
45
51
225
0
LINE
8
Black
10
81.5582
20
-60.6233
11
81.3351
21
-60.3733
0
LINE
8
Black
10
81.3344
20
-60.823
11
81.1113
21
-60.573
0
ARC
8
Black
10
81.2232
20
-60.4732
40
0.15
50
401.753
51
581.753
0
ARC
8
Black
10
81.4463
20
-60.7232
40
0.15
50
221.753
51
401.753
0
LINE
8
Black
10
74.3579
20
-64.1458
11
74.1061
21
-63.8939
0
LINE
8
Black
10
74.1458
20
-64.3579
11
73.8939
21
-64.1061
0
ARC
8
Black
10
74
20
-64
40
0.15
50
405
51
585
0
ARC
8
Black
10
74.2518
20
-64.2518
40
0.15
50
225
51
405
0
LINE
8
Black
10
74.15
20
-64
11
74.15
21
-60.7518
0
LINE
8
Black
10
73.85
20
-64
11
73.85
21
-60.7518
0
ARC
8
Black
10
74
20
-60.7518
40
0.15
50
360
51
540
0
ARC
8
Black
10
74
20
-64
40
0.15
50
180
51
360
0
LINE
8
Black
10
74.2518
20
-64.4018
11
75.6
21
-64.4018
0
LINE
8
Black
10
74.2518
20
-64.1018
11
75.6
21
-64.1018
0
ARC
8
Black
10
75.6
20
-64.2518
40
0.15
50
270
51
450
0
ARC
8
Black
10
74.2518
20
-64.2518
40
0.15
50
90
51
270
0
LINE
8
Black
10
74
20
-60.9018
11
76
21
-60.9018
0
LINE
8
Black
10
74
20
-60.6018
11
76
21
-60.6018
0
ARC
8
Black
10
76
20
-60.7518
40
0.15
50
270
51
450
0
ARC
8
Black
10
74
20
-60.7518
40
0.15
50
90
51
270
0
LINE
8
Black
10
85.2061
20
-57.0061
11
85.4311
21
-56.7811
0
LINE
8
Black
10
84.9939
20
-56.7939
11
85.2189
21
-56.5689
0
ARC
8
Black
10
85.325
20
-56.675
40
0.15
50
315
51
495
0
ARC
8
Black
10
85.1
20
-56.9
40
0.15
50
135
51
315
0
LINE
8
Black
10
85.2311
20
-56.8272
11
84.7311
21
-55.9272
0
LINE
8
Black
10
84.9689
20
-56.9728
11
84.4689
21
-56.0728
0
ARC
8
Black
10
84.6
20
-56
40
0.15
50
389.055
51
569.055
0
ARC
8
Black
10
85.1
20
-56.9
40
0.15
50
209.055
51
389.055
0
LINE
8
Black
10
84.6872
20
-55.8779
11
84.3372
21
-55.6279
0
LINE
8
Black
10
84.5128
20
-56.1221
11
84.1628
21
-55.8721
0
ARC
8
Black
10
84.25
20
-55.75
40
0.15
50
414.462
51
594.462
0
ARC
8
Black
10
84.6
20
-56
40
0.15
50
234.462
51
414.462
0
LINE
8
Black
10
84.2895
20
-55.6053
11
83.4645
21
-55.3803
0
LINE
8
Black
10
84.2105
20
-55.8947
11
83.3855
21
-55.6697
0
ARC
8
Black
10
83.425
20
-55.525
40
0.15
50
434.745
51
614.745
0
ARC
8
Black
10
84.25
20
-55.75
40
0.15
50
254.745
51
434.745
0
LINE
8
Black
10
83.5311
20
-55.4189
11
83.2811
21
-55.1689
0
LINE
8
Black
10
83.3189
20
-55.6311
11
83.0689
21
-55.3811
0
ARC
8
Black
10
83.175
20
-55.275
40
0.15
50
405
51
585
0
ARC
8
Black
10
83.425
20
-55.525
40
0.15
50
225
51
405
0
LINE
8
Black
10
83.325
20
-55.275
11
83.325
21
-53.4
0
LINE
8
Black
10
83.025
20
-55.275
11
83.025
21
-53.4
0
ARC
8
Black
10
83.175
20
-53.4
40
0.15
50
360
51
540
0
ARC
8
Black
10
83.175
20
-55.275
40
0.15
50
180
51
360
0
LINE
8
Black
10
67.325
20
-55.275
11
67.325
21
-53.4
0
LINE
8
Black
10
67.025
20
-55.275
11
67.025
21
-53.4
0
ARC
8
Black
10
67.175
20
-53.4
40
0.15
50
360
51
540
0
ARC
8
Black
10
67.175
20
-55.275
40
0.15
50
180
51
360
0
LINE
8
Black
10
67.5311
20
-55.4189
11
67.2811
21
-55.1689
0
LINE
8
Black
10
67.3189
20
-55.6311
11
67.0689
21
-55.3811
0
ARC
8
Black
10
67.175
20
-55.275
40
0.15
50
405
51
585
0
ARC
8
Black
10
67.425
20
-55.525
40
0.15
50
225
51
405
0
LINE
8
Black
10
68.2895
20
-55.6053
11
67.4645
21
-55.3803
0
LINE
8
Black
10
68.2105
20
-55.8947
11
67.3855
21
-55.6697
0
ARC
8
Black
10
67.425
20
-55.525
40
0.15
50
434.745
51
614.745
0
ARC
8
Black
10
68.25
20
-55.75
40
0.15
50
254.745
51
434.745
0
LINE
8
Black
10
68.6872
20
-55.8779
11
68.3372
21
-55.6279
0
LINE
8
Black
10
68.5128
20
-56.1221
11
68.1628
21
-55.8721
0
ARC
8
Black
10
68.25
20
-55.75
40
0.15
50
414.462
51
594.462
0
ARC
8
Black
10
68.6
20
-56
40
0.15
50
234.462
51
414.462
0
LINE
8
Black
10
69.2311
20
-56.8272
11
68.7311
21
-55.9272
0
LINE
8
Black
10
68.9689
20
-56.9728
11
68.4689
21
-56.0728
0
ARC
8
Black
10
68.6
20
-56
40
0.15
50
389.055
51
569.055
0
ARC
8
Black
10
69.1
20
-56.9
40
0.15
50
209.055
51
389.055
0
LINE
8
Black
10
69.2061
20
-57.0061
11
69.4311
21
-56.7811
0
LINE
8
Black
10
68.9939
20
-56.7939
11
69.2189
21
-56.5689
0
ARC
8
Black
10
69.325
20
-56.675
40
0.15
50
315
51
495
0
ARC
8
Black
10
69.1
20
-56.9
40
0.15
50
135
51
315
0
LINE
8
Black
10
58
20
-60.9018
11
60
21
-60.9018
0
LINE
8
Black
10
58
20
-60.6018
11
60
21
-60.6018
0
ARC
8
Black
10
60
20
-60.7518
40
0.15
50
270
51
450
0
ARC
8
Black
10
58
20
-60.7518
40
0.15
50
90
51
270
0
LINE
8
Black
10
58.2518
20
-64.4018
11
59.6
21
-64.4018
0
LINE
8
Black
10
58.2518
20
-64.1018
11
59.6
21
-64.1018
0
ARC
8
Black
10
59.6
20
-64.2518
40
0.15
50
270
51
450
0
ARC
8
Black
10
58.2518
20
-64.2518
40
0.15
50
90
51
270
0
LINE
8
Black
10
58.15
20
-64
11
58.15
21
-60.7518
0
LINE
8
Black
10
57.85
20
-64
11
57.85
21
-60.7518
0
ARC
8
Black
10
58
20
-60.7518
40
0.15
50
360
51
540
0
ARC
8
Black
10
58
20
-64
40
0.15
50
180
51
360
0
LINE
8
Black
10
58.3579
20
-64.1458
11
58.1061
21
-63.8939
0
LINE
8
Black
10
58.1458
20
-64.3579
11
57.8939
21
-64.1061
0
ARC
8
Black
10
58
20
-64
40
0.15
50
405
51
585
0
ARC
8
Black
10
58.2518
20
-64.2518
40
0.15
50
225
51
405
0
LINE
8
Black
10
65.5582
20
-60.6233
11
65.3351
21
-60.3733
0
LINE
8
Black
10
65.3344
20
-60.823
11
65.1113
21
-60.573
0
ARC
8
Black
10
65.2232
20
-60.4732
40
0.15
50
401.753
51
581.753
0
ARC
8
Black
10
65.4463
20
-60.7232
40
0.15
50
221.753
51
401.753
0
LINE
8
Black
10
65.1439
20
-60.6061
11
65.3671
21
-60.8292
0
LINE
8
Black
10
65.3561
20
-60.3939
11
65.5792
21
-60.6171
0
ARC
8
Black
10
65.4732
20
-60.7232
40
0.15
50
225
51
405
0
ARC
8
Black
10
65.25
20
-60.5
40
0.15
50
45
51
225
0
LINE
8
Black
10
61.95
20
-64.6
11
61.95
21
-64.1
0
LINE
8
Black
10
61.65
20
-64.6
11
61.65
21
-64.1
0
ARC
8
Black
10
61.8
20
-64.1
40
0.15
50
360
51
540
0
ARC
8
Black
10
61.8
20
-64.6
40
0.15
50
180
51
360
0
LINE
8
Black
10
61.6621
20
-64.6591
11
61.9259
21
-65.2746
0
LINE
8
Black
10
61.9379
20
-64.5409
11
62.2017
21
-65.1564
0
ARC
8
Black
10
62.0638
20
-65.2155
40
0.15
50
203.199
51
383.199
0
ARC
8
Black
10
61.8
20
-64.6
40
0.15
50
23.1986
51
203.199
0
LINE
8
Black
10
58.4
20
-66.95
11
61.8
21
-66.95
0
LINE
8
Black
10
58.4
20
-66.65
11
61.8
21
-66.65
0
ARC
8
Black
10
61.8
20
-66.8
40
0.15
50
270
51
450
0
ARC
8
Black
10
58.4
20
-66.8
40
0.15
50
90
51
270
0
LINE
8
Black
10
61.948
20
-66.8246
11
62.2118
21
-65.2401
0
LINE
8
Black
10
61.652
20
-66.7754
11
61.9158
21
-65.1909
0
ARC
8
Black
10
62.0638
20
-65.2155
40
0.15
50
350.548
51
530.548
0
ARC
8
Black
10
61.8
20
-66.8
40
0.15
50
170.548
51
350.548
0
LINE
8
Black
10
61.9
20
-64.15
11
62.25
21
-64.15
0
LINE
8
Black
10
61.9
20
-63.85
11
62.25
21
-63.85
0
ARC
8
Black
10
62.25
20
-64
40
0.15
50
270
51
450
0
ARC
8
Black
10
61.9
20
-64
40
0.15
50
90
51
270
0
LINE
8
Black
10
61.9061
20
-64.2061
11
62.0061
21
-64.1061
0
LINE
8
Black
10
61.6939
20
-63.9939
11
61.7939
21
-63.8939
0
ARC
8
Black
10
61.9
20
-64
40
0.15
50
315
51
495
0
ARC
8
Black
10
61.8
20
-64.1
40
0.15
50
135
51
315
0
LINE
8
Black
10
64.8
20
-63.65
11
65.4
21
-63.65
0
LINE
8
Black
10
64.8
20
-63.35
11
65.4
21
-63.35
0
ARC
8
Black
10
65.4
20
-63.5
40
0.15
50
270
51
450
0
ARC
8
Black
10
64.8
20
-63.5
40
0.15
50
90
51
270
0
LINE
8
Black
10
65.3621
20
-66.3634
11
64.2621
21
-65.8634
0
LINE
8
Black
10
65.2379
20
-66.6366
11
64.1379
21
-66.1366
0
ARC
8
Black
10
64.2
20
-66
40
0.15
50
425.556
51
605.556
0
ARC
8
Black
10
65.3
20
-66.5
40
0.15
50
245.556
51
425.556
0
LINE
8
Black
10
67.0456
20
-65.6602
11
65.2456
21
-66.3602
0
LINE
8
Black
10
67.1544
20
-65.9398
11
65.3544
21
-66.6398
0
ARC
8
Black
10
65.3
20
-66.5
40
0.15
50
471.251
51
651.251
0
ARC
8
Black
10
67.1
20
-65.8
40
0.15
50
291.251
51
471.251
0
LINE
8
Black
10
67.25
20
-65.8
11
67.25
21
-63.6
0
LINE
8
Black
10
66.95
20
-65.8
11
66.95
21
-63.6
0
ARC
8
Black
10
67.1
20
-63.6
40
0.15
50
360
51
540
0
ARC
8
Black
10
67.1
20
-65.8
40
0.15
50
180
51
360
0
LINE
8
Black
10
65.3912
20
-63.6497
11
67.0912
21
-63.7497
0
LINE
8
Black
10
65.4088
20
-63.3503
11
67.1088
21
-63.4503
0
ARC
8
Black
10
67.1
20
-63.6
40
0.15
50
266.634
51
446.634
0
ARC
8
Black
10
65.4
20
-63.5
40
0.15
50
86.6335
51
266.634
0
LINE
8
Black
10
63.34
20
-64.2774
11
63.35
21
-64.9024
0
LINE
8
Black
10
63.64
20
-64.2726
11
63.65
21
-64.8976
0
ARC
8
Black
10
63.5
20
-64.9
40
0.15
50
180.917
51
360.917
0
ARC
8
Black
10
63.49
20
-64.275
40
0.15
50
0.916654
51
180.917
0
LINE
8
Black
10
58.3451
20
-67.0052
11
58.35
21
-65.0004
0
LINE
8
Black
10
58.0451
20
-67.0045
11
58.05
21
-64.9996
0
ARC
8
Black
10
58.2
20
-65
40
0.15
50
359.86
51
539.86
0
ARC
8
Black
10
58.1951
20
-67.0049
40
0.15
50
179.86
51
359.86
0
LINE
8
Black
10
58.2939
20
-66.6939
11
58.0891
21
-66.8988
0
LINE
8
Black
10
58.5061
20
-66.9061
11
58.3012
21
-67.1109
0
ARC
8
Black
10
58.1951
20
-67.0049
40
0.15
50
495
51
675
0
ARC
8
Black
10
58.4
20
-66.8
40
0.15
50
315
51
495
0
LINE
8
Black
10
63.3735
20
-64.9805
11
64.0735
21
-66.0805
0
LINE
8
Black
10
63.6265
20
-64.8195
11
64.3265
21
-65.9195
0
ARC
8
Black
10
64.2
20
-66
40
0.15
50
212.471
51
392.471
0
ARC
8
Black
10
63.5
20
-64.9
40
0.15
50
32.4712
51
212.471
0
LINE
8
Black
10
60.905
20
-63.145
11
62.25
21
-63.145
0
LINE
8
Black
10
60.905
20
-62.845
11
62.25
21
-62.845
0
ARC
8
Black
10
62.25
20
-62.995
40
0.15
50
270
51
450
0
ARC
8
Black
10
60.905
20
-62.995
40
0.15
50
90
51
270
0
LINE
8
Black
10
59.6
20
-64.4018
11
60.3482
21
-64.4018
0
LINE
8
Black
10
59.6
20
-64.1018
11
60.3482
21
-64.1018
0
ARC
8
Black
10
60.3482
20
-64.2518
40
0.15
50
270
51
450
0
ARC
8
Black
10
59.6
20
-64.2518
40
0.15
50
90
51
270
0
LINE
8
Black
10
60.3939
20
-63.9939
11
60.2421
21
-64.1458
0
LINE
8
Black
10
60.6061
20
-64.2061
11
60.4542
21
-64.3579
0
ARC
8
Black
10
60.3482
20
-64.2518
40
0.15
50
495
51
675
0
ARC
8
Black
10
60.5
20
-64.1
40
0.15
50
315
51
495
0
LINE
8
Black
10
60.65
20
-64.1
11
60.65
21
-63.4
0
LINE
8
Black
10
60.35
20
-64.1
11
60.35
21
-63.4
0
ARC
8
Black
10
60.5
20
-63.4
40
0.15
50
360
51
540
0
ARC
8
Black
10
60.5
20
-64.1
40
0.15
50
180
51
360
0
LINE
8
Black
10
60.7989
20
-62.8889
11
60.3939
21
-63.2939
0
LINE
8
Black
10
61.0111
20
-63.1011
11
60.6061
21
-63.5061
0
ARC
8
Black
10
60.5
20
-63.4
40
0.15
50
495
51
675
0
ARC
8
Black
10
60.905
20
-62.995
40
0.15
50
315
51
495
0
LINE
8
Black
10
58.2707
20
-65.1323
11
59.6707
21
-64.3841
0
LINE
8
Black
10
58.1293
20
-64.8677
11
59.5293
21
-64.1195
0
ARC
8
Black
10
59.6
20
-64.2518
40
0.15
50
298.12
51
478.12
0
ARC
8
Black
10
58.2
20
-65
40
0.15
50
118.12
51
298.12
0
LINE
8
Black
10
64.8
20
-62.65
11
65.6
21
-62.65
0
LINE
8
Black
10
64.8
20
-62.35
11
65.6
21
-62.35
0
ARC
8
Black
10
65.6
20
-62.5
40
0.15
50
270
51
450
0
ARC
8
Black
10
64.8
20
-62.5
40
0.15
50
90
51
270
0
LINE
8
Black
10
65.8061
20
-61.6939
11
65.6061
21
-61.4939
0
LINE
8
Black
10
65.5939
20
-61.9061
11
65.3939
21
-61.7061
0
ARC
8
Black
10
65.5
20
-61.6
40
0.15
50
405
51
585
0
ARC
8
Black
10
65.7
20
-61.8
40
0.15
50
225
51
405
0
LINE
8
Black
10
65.85
20
-62.4
11
65.85
21
-61.8
0
LINE
8
Black
10
65.55
20
-62.4
11
65.55
21
-61.8
0
ARC
8
Black
10
65.7
20
-61.8
40
0.15
50
360
51
540
0
ARC
8
Black
10
65.7
20
-62.4
40
0.15
50
180
51
360
0
LINE
8
Black
10
65.7061
20
-62.6061
11
65.8061
21
-62.5061
0
LINE
8
Black
10
65.4939
20
-62.3939
11
65.5939
21
-62.2939
0
ARC
8
Black
10
65.7
20
-62.4
40
0.15
50
315
51
495
0
ARC
8
Black
10
65.6
20
-62.5
40
0.15
50
135
51
315
0
LINE
8
Black
10
64.8
20
-62.15
11
65.4
21
-62.15
0
LINE
8
Black
10
64.8
20
-61.85
11
65.4
21
-61.85
0
ARC
8
Black
10
65.4
20
-62
40
0.15
50
270
51
450
0
ARC
8
Black
10
64.8
20
-62
40
0.15
50
90
51
270
0
LINE
8
Black
10
65.4732
20
-60.9
11
65.75
21
-60.9
0
LINE
8
Black
10
65.4732
20
-60.6
11
65.75
21
-60.6
0
ARC
8
Black
10
65.75
20
-60.75
40
0.15
50
270
51
450
0
ARC
8
Black
10
65.4732
20
-60.75
40
0.15
50
90
51
270
0
LINE
8
Black
10
65.9
20
-61.25
11
65.9
21
-60.75
0
LINE
8
Black
10
65.6
20
-61.25
11
65.6
21
-60.75
0
ARC
8
Black
10
65.75
20
-60.75
40
0.15
50
360
51
540
0
ARC
8
Black
10
65.75
20
-61.25
40
0.15
50
180
51
360
0
LINE
8
Black
10
65.5772
20
-61.5286
11
65.8272
21
-61.3786
0
LINE
8
Black
10
65.4228
20
-61.2714
11
65.6728
21
-61.1214
0
ARC
8
Black
10
65.75
20
-61.25
40
0.15
50
300.964
51
480.964
0
ARC
8
Black
10
65.5
20
-61.4
40
0.15
50
120.964
51
300.964
0
LINE
8
Black
10
65.65
20
-61.9
11
65.65
21
-61.6
0
LINE
8
Black
10
65.35
20
-61.9
11
65.35
21
-61.6
0
ARC
8
Black
10
65.5
20
-61.6
40
0.15
50
360
51
540
0
ARC
8
Black
10
65.5
20
-61.9
40
0.15
50
180
51
360
0
LINE
8
Black
10
65.65
20
-61.6
11
65.65
21
-61.4
0
LINE
8
Black
10
65.35
20
-61.6
11
65.35
21
-61.4
0
ARC
8
Black
10
65.5
20
-61.4
40
0.15
50
360
51
540
0
ARC
8
Black
10
65.5
20
-61.6
40
0.15
50
180
51
360
0
LINE
8
Black
10
65.5061
20
-62.1061
11
65.6061
21
-62.0061
0
LINE
8
Black
10
65.2939
20
-61.8939
11
65.3939
21
-61.7939
0
ARC
8
Black
10
65.5
20
-61.9
40
0.15
50
315
51
495
0
ARC
8
Black
10
65.4
20
-62
40
0.15
50
135
51
315
0
LINE
8
Black
10
59.95
20
-88.6
11
59.95
21
-88.1
0
LINE
8
Black
10
59.65
20
-88.6
11
59.65
21
-88.1
0
ARC
8
Black
10
59.8
20
-88.1
40
0.15
50
360
51
540
0
ARC
8
Black
10
59.8
20
-88.6
40
0.15
50
180
51
360
0
LINE
8
Black
10
59.6621
20
-88.6591
11
59.9259
21
-89.2746
0
LINE
8
Black
10
59.9379
20
-88.5409
11
60.2017
21
-89.1564
0
ARC
8
Black
10
60.0638
20
-89.2155
40
0.15
50
203.199
51
383.199
0
ARC
8
Black
10
59.8
20
-88.6
40
0.15
50
23.1986
51
203.199
0
LINE
8
Black
10
60.2499
20
-90.5961
11
60.2137
21
-89.2116
0
LINE
8
Black
10
59.9501
20
-90.6039
11
59.9138
21
-89.2194
0
ARC
8
Black
10
60.0638
20
-89.2155
40
0.15
50
361.498
51
541.498
0
ARC
8
Black
10
60.1
20
-90.6
40
0.15
50
181.498
51
361.498
0
LINE
8
Black
10
59.9
20
-88.15
11
60.25
21
-88.15
0
LINE
8
Black
10
59.9
20
-87.85
11
60.25
21
-87.85
0
ARC
8
Black
10
60.25
20
-88
40
0.15
50
270
51
450
0
ARC
8
Black
10
59.9
20
-88
40
0.15
50
90
51
270
0
LINE
8
Black
10
59.9061
20
-88.2061
11
60.0061
21
-88.1061
0
LINE
8
Black
10
59.6939
20
-87.9939
11
59.7939
21
-87.8939
0
ARC
8
Black
10
59.9
20
-88
40
0.15
50
315
51
495
0
ARC
8
Black
10
59.8
20
-88.1
40
0.15
50
135
51
315
0
LINE
8
Black
10
62.3
20
-83.2018
11
63.3518
21
-83.2018
0
LINE
8
Black
10
62.3
20
-82.9018
11
63.3518
21
-82.9018
0
ARC
8
Black
10
63.3518
20
-83.0518
40
0.15
50
270
51
450
0
ARC
8
Black
10
62.3
20
-83.0518
40
0.15
50
90
51
270
0
LINE
8
Black
10
63.2458
20
-83.1579
11
63.4939
21
-83.4061
0
LINE
8
Black
10
63.4579
20
-82.9458
11
63.7061
21
-83.1939
0
ARC
8
Black
10
63.6
20
-83.3
40
0.15
50
225
51
405
0
ARC
8
Black
10
63.3518
20
-83.0518
40
0.15
50
45
51
225
0
LINE
8
Black
10
62.8
20
-87.65
11
63.4
21
-87.65
0
LINE
8
Black
10
62.8
20
-87.35
11
63.4
21
-87.35
0
ARC
8
Black
10
63.4
20
-87.5
40
0.15
50
270
51
450
0
ARC
8
Black
10
62.8
20
-87.5
40
0.15
50
90
51
270
0
LINE
8
Black
10
61.8
20
-90.65
11
63.8
21
-90.65
0
LINE
8
Black
10
61.8
20
-90.35
11
63.8
21
-90.35
0
ARC
8
Black
10
63.8
20
-90.5
40
0.15
50
270
51
450
0
ARC
8
Black
10
61.8
20
-90.5
40
0.15
50
90
51
270
0
LINE
8
Black
10
64.1848
20
-89.804
11
63.6848
21
-90.404
0
LINE
8
Black
10
64.4152
20
-89.996
11
63.9152
21
-90.596
0
ARC
8
Black
10
63.8
20
-90.5
40
0.15
50
500.194
51
680.194
0
ARC
8
Black
10
64.3
20
-89.9
40
0.15
50
320.194
51
500.194
0
LINE
8
Black
10
64.45
20
-89.9
11
64.45
21
-87.7
0
LINE
8
Black
10
64.15
20
-89.9
11
64.15
21
-87.7
0
ARC
8
Black
10
64.3
20
-87.7
40
0.15
50
360
51
540
0
ARC
8
Black
10
64.3
20
-89.9
40
0.15
50
180
51
360
0
LINE
8
Black
10
63.3675
20
-87.6464
11
64.2675
21
-87.8464
0
LINE
8
Black
10
63.4325
20
-87.3536
11
64.3325
21
-87.5536
0
ARC
8
Black
10
64.3
20
-87.7
40
0.15
50
257.471
51
437.471
0
ARC
8
Black
10
63.4
20
-87.5
40
0.15
50
77.4712
51
257.471
0
LINE
8
Black
10
61.34
20
-88.2774
11
61.35
21
-88.9024
0
LINE
8
Black
10
61.64
20
-88.2726
11
61.65
21
-88.8976
0
ARC
8
Black
10
61.5
20
-88.9
40
0.15
50
180.917
51
360.917
0
ARC
8
Black
10
61.49
20
-88.275
40
0.15
50
0.916654
51
180.917
0
LINE
8
Black
10
58.1784
20
-90.9549
11
59.8951
21
-90.9549
0
LINE
8
Black
10
58.1784
20
-90.6549
11
59.8951
21
-90.6549
0
ARC
8
Black
10
59.8951
20
-90.8049
40
0.15
50
270
51
450
0
ARC
8
Black
10
58.1784
20
-90.8049
40
0.15
50
90
51
270
0
LINE
8
Black
10
59.9939
20
-90.4939
11
59.7891
21
-90.6988
0
LINE
8
Black
10
60.2061
20
-90.7061
11
60.0012
21
-90.9109
0
ARC
8
Black
10
59.8951
20
-90.8049
40
0.15
50
495
51
675
0
ARC
8
Black
10
60.1
20
-90.6
40
0.15
50
315
51
495
0
LINE
8
Black
10
61.3526
20
-88.9276
11
61.6526
21
-90.5276
0
LINE
8
Black
10
61.6474
20
-88.8724
11
61.9474
21
-90.4724
0
ARC
8
Black
10
61.8
20
-90.5
40
0.15
50
190.62
51
370.62
0
ARC
8
Black
10
61.5
20
-88.9
40
0.15
50
10.6197
51
190.62
0
LINE
8
Black
10
58.905
20
-87.145
11
60.25
21
-87.145
0
LINE
8
Black
10
58.905
20
-86.845
11
60.25
21
-86.845
0
ARC
8
Black
10
60.25
20
-86.995
40
0.15
50
270
51
450
0
ARC
8
Black
10
58.905
20
-86.995
40
0.15
50
90
51
270
0
LINE
8
Black
10
57.6
20
-88.4018
11
58.3482
21
-88.4018
0
LINE
8
Black
10
57.6
20
-88.1018
11
58.3482
21
-88.1018
0
ARC
8
Black
10
58.3482
20
-88.2518
40
0.15
50
270
51
450
0
ARC
8
Black
10
57.6
20
-88.2518
40
0.15
50
90
51
270
0
LINE
8
Black
10
58.3939
20
-87.9939
11
58.2421
21
-88.1458
0
LINE
8
Black
10
58.6061
20
-88.2061
11
58.4542
21
-88.3579
0
ARC
8
Black
10
58.3482
20
-88.2518
40
0.15
50
495
51
675
0
ARC
8
Black
10
58.5
20
-88.1
40
0.15
50
315
51
495
0
LINE
8
Black
10
58.65
20
-88.1
11
58.65
21
-87.4
0
LINE
8
Black
10
58.35
20
-88.1
11
58.35
21
-87.4
0
ARC
8
Black
10
58.5
20
-87.4
40
0.15
50
360
51
540
0
ARC
8
Black
10
58.5
20
-88.1
40
0.15
50
180
51
360
0
LINE
8
Black
10
58.7989
20
-86.8889
11
58.3939
21
-87.2939
0
LINE
8
Black
10
59.0111
20
-87.1011
11
58.6061
21
-87.5061
0
ARC
8
Black
10
58.5
20
-87.4
40
0.15
50
495
51
675
0
ARC
8
Black
10
58.905
20
-86.995
40
0.15
50
315
51
495
0
LINE
8
Black
10
66.725
20
-90.025
11
68.9
21
-90.025
0
LINE
8
Black
10
66.725
20
-89.725
11
68.9
21
-89.725
0
ARC
8
Black
10
68.9
20
-89.875
40
0.15
50
270
51
450
0
ARC
8
Black
10
66.725
20
-89.875
40
0.15
50
90
51
270
0
LINE
8
Black
10
58.3463
20
-90.8669
11
58.3247
21
-90.7717
0
LINE
8
Black
10
58.0537
20
-90.9331
11
58.0322
21
-90.838
0
ARC
8
Black
10
58.1784
20
-90.8049
40
0.15
50
372.766
51
552.766
0
ARC
8
Black
10
58.2
20
-90.9
40
0.15
50
192.766
51
372.766
0
LINE
8
Black
10
58.3247
20
-90.7717
11
57.7463
21
-88.2187
0
LINE
8
Black
10
58.0322
20
-90.838
11
57.4537
21
-88.285
0
ARC
8
Black
10
57.6
20
-88.2518
40
0.15
50
372.766
51
552.766
0
ARC
8
Black
10
58.1784
20
-90.8049
40
0.15
50
192.766
51
372.766
0
LINE
8
Black
10
59.2061
20
-91.6939
11
58.3061
21
-90.7939
0
LINE
8
Black
10
58.9939
20
-91.9061
11
58.0939
21
-91.0061
0
ARC
8
Black
10
58.2
20
-90.9
40
0.15
50
405
51
585
0
ARC
8
Black
10
59.1
20
-91.8
40
0.15
50
225
51
405
0
LINE
8
Black
10
59.1
20
-91.95
11
64.5
21
-91.95
0
LINE
8
Black
10
59.1
20
-91.65
11
64.5
21
-91.65
0
ARC
8
Black
10
64.5
20
-91.8
40
0.15
50
270
51
450
0
ARC
8
Black
10
59.1
20
-91.8
40
0.15
50
90
51
270
0
LINE
8
Black
10
64.9939
20
-91.0939
11
64.3939
21
-91.6939
0
LINE
8
Black
10
65.2061
20
-91.3061
11
64.6061
21
-91.9061
0
ARC
8
Black
10
64.5
20
-91.8
40
0.15
50
495
51
675
0
ARC
8
Black
10
65.1
20
-91.2
40
0.15
50
315
51
495
0
LINE
8
Black
10
66.0855
20
-89.8031
11
64.9855
21
-91.1031
0
LINE
8
Black
10
66.3145
20
-89.9969
11
65.2145
21
-91.2969
0
ARC
8
Black
10
65.1
20
-91.2
40
0.15
50
499.764
51
679.764
0
ARC
8
Black
10
66.2
20
-89.9
40
0.15
50
319.764
51
499.764
0
LINE
8
Black
10
66.7179
20
-89.7252
11
66.1929
21
-89.7502
0
LINE
8
Black
10
66.7321
20
-90.0248
11
66.2071
21
-90.0498
0
ARC
8
Black
10
66.2
20
-89.9
40
0.15
50
452.726
51
632.726
0
ARC
8
Black
10
66.725
20
-89.875
40
0.15
50
272.726
51
452.726
0
LINE
8
Black
10
62.8
20
-86.65
11
63.6
21
-86.65
0
LINE
8
Black
10
62.8
20
-86.35
11
63.6
21
-86.35
0
ARC
8
Black
10
63.6
20
-86.5
40
0.15
50
270
51
450
0
ARC
8
Black
10
62.8
20
-86.5
40
0.15
50
90
51
270
0
LINE
8
Black
10
63.8061
20
-85.6939
11
63.6061
21
-85.4939
0
LINE
8
Black
10
63.5939
20
-85.9061
11
63.3939
21
-85.7061
0
ARC
8
Black
10
63.5
20
-85.6
40
0.15
50
405
51
585
0
ARC
8
Black
10
63.7
20
-85.8
40
0.15
50
225
51
405
0
LINE
8
Black
10
63.85
20
-86.4
11
63.85
21
-85.8
0
LINE
8
Black
10
63.55
20
-86.4
11
63.55
21
-85.8
0
ARC
8
Black
10
63.7
20
-85.8
40
0.15
50
360
51
540
0
ARC
8
Black
10
63.7
20
-86.4
40
0.15
50
180
51
360
0
LINE
8
Black
10
63.7061
20
-86.6061
11
63.8061
21
-86.5061
0
LINE
8
Black
10
63.4939
20
-86.3939
11
63.5939
21
-86.2939
0
ARC
8
Black
10
63.7
20
-86.4
40
0.15
50
315
51
495
0
ARC
8
Black
10
63.6
20
-86.5
40
0.15
50
135
51
315
0
LINE
8
Black
10
62.8
20
-86.15
11
63.4
21
-86.15
0
LINE
8
Black
10
62.8
20
-85.85
11
63.4
21
-85.85
0
ARC
8
Black
10
63.4
20
-86
40
0.15
50
270
51
450
0
ARC
8
Black
10
62.8
20
-86
40
0.15
50
90
51
270
0
LINE
8
Black
10
62.8382
20
-83.9417
11
62.4382
21
-82.9935
0
LINE
8
Black
10
62.5618
20
-84.0583
11
62.1618
21
-83.1101
0
ARC
8
Black
10
62.3
20
-83.0518
40
0.15
50
382.873
51
562.873
0
ARC
8
Black
10
62.7
20
-84
40
0.15
50
202.873
51
382.873
0
LINE
8
Black
10
63.3366
20
-85.0379
11
62.8366
21
-83.9379
0
LINE
8
Black
10
63.0634
20
-85.1621
11
62.5634
21
-84.0621
0
ARC
8
Black
10
62.7
20
-84
40
0.15
50
384.444
51
564.444
0
ARC
8
Black
10
63.2
20
-85.1
40
0.15
50
204.444
51
384.444
0
LINE
8
Black
10
63.6061
20
-85.2939
11
63.3061
21
-84.9939
0
LINE
8
Black
10
63.3939
20
-85.5061
11
63.0939
21
-85.2061
0
ARC
8
Black
10
63.2
20
-85.1
40
0.15
50
405
51
585
0
ARC
8
Black
10
63.5
20
-85.4
40
0.15
50
225
51
405
0
LINE
8
Black
10
63.65
20
-85.9
11
63.65
21
-85.6
0
LINE
8
Black
10
63.35
20
-85.9
11
63.35
21
-85.6
0
ARC
8
Black
10
63.5
20
-85.6
40
0.15
50
360
51
540
0
ARC
8
Black
10
63.5
20
-85.9
40
0.15
50
180
51
360
0
LINE
8
Black
10
63.65
20
-85.6
11
63.65
21
-85.4
0
LINE
8
Black
10
63.35
20
-85.6
11
63.35
21
-85.4
0
ARC
8
Black
10
63.5
20
-85.4
40
0.15
50
360
51
540
0
ARC
8
Black
10
63.5
20
-85.6
40
0.15
50
180
51
360
0
LINE
8
Black
10
63.5061
20
-86.1061
11
63.6061
21
-86.0061
0
LINE
8
Black
10
63.2939
20
-85.8939
11
63.3939
21
-85.7939
0
ARC
8
Black
10
63.5
20
-85.9
40
0.15
50
315
51
495
0
ARC
8
Black
10
63.4
20
-86
40
0.15
50
135
51
315
0
LINE
8
Black
10
60.5
20
-83.2018
11
62.3
21
-83.2018
0
LINE
8
Black
10
60.5
20
-82.9018
11
62.3
21
-82.9018
0
ARC
8
Black
10
62.3
20
-83.0518
40
0.15
50
270
51
450
0
ARC
8
Black
10
60.5
20
-83.0518
40
0.15
50
90
51
270
0
LINE
8
Black
10
93.45
20
-88.6
11
93.45
21
-88.1
0
LINE
8
Black
10
93.15
20
-88.6
11
93.15
21
-88.1
0
ARC
8
Black
10
93.3
20
-88.1
40
0.15
50
360
51
540
0
ARC
8
Black
10
93.3
20
-88.6
40
0.15
50
180
51
360
0
LINE
8
Black
10
93.1621
20
-88.6591
11
93.4259
21
-89.2746
0
LINE
8
Black
10
93.4379
20
-88.5409
11
93.7017
21
-89.1564
0
ARC
8
Black
10
93.5638
20
-89.2155
40
0.15
50
203.199
51
383.199
0
ARC
8
Black
10
93.3
20
-88.6
40
0.15
50
23.1986
51
203.199
0
LINE
8
Black
10
93.7499
20
-90.5961
11
93.7137
21
-89.2116
0
LINE
8
Black
10
93.4501
20
-90.6039
11
93.4138
21
-89.2194
0
ARC
8
Black
10
93.5638
20
-89.2155
40
0.15
50
361.498
51
541.498
0
ARC
8
Black
10
93.6
20
-90.6
40
0.15
50
181.498
51
361.498
0
LINE
8
Black
10
93.4
20
-88.15
11
93.75
21
-88.15
0
LINE
8
Black
10
93.4
20
-87.85
11
93.75
21
-87.85
0
ARC
8
Black
10
93.75
20
-88
40
0.15
50
270
51
450
0
ARC
8
Black
10
93.4
20
-88
40
0.15
50
90
51
270
0
LINE
8
Black
10
93.4061
20
-88.2061
11
93.5061
21
-88.1061
0
LINE
8
Black
10
93.1939
20
-87.9939
11
93.2939
21
-87.8939
0
ARC
8
Black
10
93.4
20
-88
40
0.15
50
315
51
495
0
ARC
8
Black
10
93.3
20
-88.1
40
0.15
50
135
51
315
0
LINE
8
Black
10
95.8
20
-83.2018
11
96.8518
21
-83.2018
0
LINE
8
Black
10
95.8
20
-82.9018
11
96.8518
21
-82.9018
0
ARC
8
Black
10
96.8518
20
-83.0518
40
0.15
50
270
51
450
0
ARC
8
Black
10
95.8
20
-83.0518
40
0.15
50
90
51
270
0
LINE
8
Black
10
96.7458
20
-83.1579
11
96.9939
21
-83.4061
0
LINE
8
Black
10
96.9579
20
-82.9458
11
97.2061
21
-83.1939
0
ARC
8
Black
10
97.1
20
-83.3
40
0.15
50
225
51
405
0
ARC
8
Black
10
96.8518
20
-83.0518
40
0.15
50
45
51
225
0
LINE
8
Black
10
96.3
20
-87.65
11
96.9
21
-87.65
0
LINE
8
Black
10
96.3
20
-87.35
11
96.9
21
-87.35
0
ARC
8
Black
10
96.9
20
-87.5
40
0.15
50
270
51
450
0
ARC
8
Black
10
96.3
20
-87.5
40
0.15
50
90
51
270
0
LINE
8
Black
10
95.3
20
-90.65
11
97.3
21
-90.65
0
LINE
8
Black
10
95.3
20
-90.35
11
97.3
21
-90.35
0
ARC
8
Black
10
97.3
20
-90.5
40
0.15
50
270
51
450
0
ARC
8
Black
10
95.3
20
-90.5
40
0.15
50
90
51
270
0
LINE
8
Black
10
97.6848
20
-89.804
11
97.1848
21
-90.404
0
LINE
8
Black
10
97.9152
20
-89.996
11
97.4152
21
-90.596
0
ARC
8
Black
10
97.3
20
-90.5
40
0.15
50
500.194
51
680.194
0
ARC
8
Black
10
97.8
20
-89.9
40
0.15
50
320.194
51
500.194
0
LINE
8
Black
10
97.95
20
-89.9
11
97.95
21
-87.7
0
LINE
8
Black
10
97.65
20
-89.9
11
97.65
21
-87.7
0
ARC
8
Black
10
97.8
20
-87.7
40
0.15
50
360
51
540
0
ARC
8
Black
10
97.8
20
-89.9
40
0.15
50
180
51
360
0
LINE
8
Black
10
96.8675
20
-87.6464
11
97.7675
21
-87.8464
0
LINE
8
Black
10
96.9325
20
-87.3536
11
97.8325
21
-87.5536
0
ARC
8
Black
10
97.8
20
-87.7
40
0.15
50
257.471
51
437.471
0
ARC
8
Black
10
96.9
20
-87.5
40
0.15
50
77.4712
51
257.471
0
LINE
8
Black
10
94.84
20
-88.2774
11
94.85
21
-88.9024
0
LINE
8
Black
10
95.14
20
-88.2726
11
95.15
21
-88.8976
0
ARC
8
Black
10
95
20
-88.9
40
0.15
50
180.917
51
360.917
0
ARC
8
Black
10
94.99
20
-88.275
40
0.15
50
0.916654
51
180.917
0
LINE
8
Black
10
91.6784
20
-90.9549
11
93.3951
21
-90.9549
0
LINE
8
Black
10
91.6784
20
-90.6549
11
93.3951
21
-90.6549
0
ARC
8
Black
10
93.3951
20
-90.8049
40
0.15
50
270
51
450
0
ARC
8
Black
10
91.6784
20
-90.8049
40
0.15
50
90
51
270
0
LINE
8
Black
10
93.4939
20
-90.4939
11
93.2891
21
-90.6988
0
LINE
8
Black
10
93.7061
20
-90.7061
11
93.5012
21
-90.9109
0
ARC
8
Black
10
93.3951
20
-90.8049
40
0.15
50
495
51
675
0
ARC
8
Black
10
93.6
20
-90.6
40
0.15
50
315
51
495
0
LINE
8
Black
10
94.8526
20
-88.9276
11
95.1526
21
-90.5276
0
LINE
8
Black
10
95.1474
20
-88.8724
11
95.4474
21
-90.4724
0
ARC
8
Black
10
95.3
20
-90.5
40
0.15
50
190.62
51
370.62
0
ARC
8
Black
10
95
20
-88.9
40
0.15
50
10.6197
51
190.62
0
LINE
8
Black
10
92.405
20
-87.145
11
93.75
21
-87.145
0
LINE
8
Black
10
92.405
20
-86.845
11
93.75
21
-86.845
0
ARC
8
Black
10
93.75
20
-86.995
40
0.15
50
270
51
450
0
ARC
8
Black
10
92.405
20
-86.995
40
0.15
50
90
51
270
0
LINE
8
Black
10
91.1
20
-88.4018
11
91.8482
21
-88.4018
0
LINE
8
Black
10
91.1
20
-88.1018
11
91.8482
21
-88.1018
0
ARC
8
Black
10
91.8482
20
-88.2518
40
0.15
50
270
51
450
0
ARC
8
Black
10
91.1
20
-88.2518
40
0.15
50
90
51
270
0
LINE
8
Black
10
91.8939
20
-87.9939
11
91.7421
21
-88.1458
0
LINE
8
Black
10
92.1061
20
-88.2061
11
91.9542
21
-88.3579
0
ARC
8
Black
10
91.8482
20
-88.2518
40
0.15
50
495
51
675
0
ARC
8
Black
10
92
20
-88.1
40
0.15
50
315
51
495
0
LINE
8
Black
10
92.15
20
-88.1
11
92.15
21
-87.4
0
LINE
8
Black
10
91.85
20
-88.1
11
91.85
21
-87.4
0
ARC
8
Black
10
92
20
-87.4
40
0.15
50
360
51
540
0
ARC
8
Black
10
92
20
-88.1
40
0.15
50
180
51
360
0
LINE
8
Black
10
92.2989
20
-86.8889
11
91.8939
21
-87.2939
0
LINE
8
Black
10
92.5111
20
-87.1011
11
92.1061
21
-87.5061
0
ARC
8
Black
10
92
20
-87.4
40
0.15
50
495
51
675
0
ARC
8
Black
10
92.405
20
-86.995
40
0.15
50
315
51
495
0
LINE
8
Black
10
100.225
20
-90.025
11
102.4
21
-90.025
0
LINE
8
Black
10
100.225
20
-89.725
11
102.4
21
-89.725
0
ARC
8
Black
10
102.4
20
-89.875
40
0.15
50
270
51
450
0
ARC
8
Black
10
100.225
20
-89.875
40
0.15
50
90
51
270
0
LINE
8
Black
10
91.8463
20
-90.8669
11
91.8247
21
-90.7717
0
LINE
8
Black
10
91.5537
20
-90.9331
11
91.5322
21
-90.838
0
ARC
8
Black
10
91.6784
20
-90.8049
40
0.15
50
372.766
51
552.766
0
ARC
8
Black
10
91.7
20
-90.9
40
0.15
50
192.766
51
372.766
0
LINE
8
Black
10
91.8247
20
-90.7717
11
91.2463
21
-88.2187
0
LINE
8
Black
10
91.5322
20
-90.838
11
90.9537
21
-88.285
0
ARC
8
Black
10
91.1
20
-88.2518
40
0.15
50
372.766
51
552.766
0
ARC
8
Black
10
91.6784
20
-90.8049
40
0.15
50
192.766
51
372.766
0
LINE
8
Black
10
92.7061
20
-91.6939
11
91.8061
21
-90.7939
0
LINE
8
Black
10
92.4939
20
-91.9061
11
91.5939
21
-91.0061
0
ARC
8
Black
10
91.7
20
-90.9
40
0.15
50
405
51
585
0
ARC
8
Black
10
92.6
20
-91.8
40
0.15
50
225
51
405
0
LINE
8
Black
10
92.6
20
-91.95
11
98
21
-91.95
0
LINE
8
Black
10
92.6
20
-91.65
11
98
21
-91.65
0
ARC
8
Black
10
98
20
-91.8
40
0.15
50
270
51
450
0
ARC
8
Black
10
92.6
20
-91.8
40
0.15
50
90
51
270
0
LINE
8
Black
10
98.4939
20
-91.0939
11
97.8939
21
-91.6939
0
LINE
8
Black
10
98.7061
20
-91.3061
11
98.1061
21
-91.9061
0
ARC
8
Black
10
98
20
-91.8
40
0.15
50
495
51
675
0
ARC
8
Black
10
98.6
20
-91.2
40
0.15
50
315
51
495
0
LINE
8
Black
10
99.5855
20
-89.8031
11
98.4855
21
-91.1031
0
LINE
8
Black
10
99.8145
20
-89.9969
11
98.7145
21
-91.2969
0
ARC
8
Black
10
98.6
20
-91.2
40
0.15
50
499.764
51
679.764
0
ARC
8
Black
10
99.7
20
-89.9
40
0.15
50
319.764
51
499.764
0
LINE
8
Black
10
100.218
20
-89.7252
11
99.6929
21
-89.7502
0
LINE
8
Black
10
100.232
20
-90.0248
11
99.7071
21
-90.0498
0
ARC
8
Black
10
99.7
20
-89.9
40
0.15
50
452.726
51
632.726
0
ARC
8
Black
10
100.225
20
-89.875
40
0.15
50
272.726
51
452.726
0
LINE
8
Black
10
96.3
20
-86.65
11
97.1
21
-86.65
0
LINE
8
Black
10
96.3
20
-86.35
11
97.1
21
-86.35
0
ARC
8
Black
10
97.1
20
-86.5
40
0.15
50
270
51
450
0
ARC
8
Black
10
96.3
20
-86.5
40
0.15
50
90
51
270
0
LINE
8
Black
10
97.3061
20
-85.6939
11
97.1061
21
-85.4939
0
LINE
8
Black
10
97.0939
20
-85.9061
11
96.8939
21
-85.7061
0
ARC
8
Black
10
97
20
-85.6
40
0.15
50
405
51
585
0
ARC
8
Black
10
97.2
20
-85.8
40
0.15
50
225
51
405
0
LINE
8
Black
10
97.35
20
-86.4
11
97.35
21
-85.8
0
LINE
8
Black
10
97.05
20
-86.4
11
97.05
21
-85.8
0
ARC
8
Black
10
97.2
20
-85.8
40
0.15
50
360
51
540
0
ARC
8
Black
10
97.2
20
-86.4
40
0.15
50
180
51
360
0
LINE
8
Black
10
97.2061
20
-86.6061
11
97.3061
21
-86.5061
0
LINE
8
Black
10
96.9939
20
-86.3939
11
97.0939
21
-86.2939
0
ARC
8
Black
10
97.2
20
-86.4
40
0.15
50
315
51
495
0
ARC
8
Black
10
97.1
20
-86.5
40
0.15
50
135
51
315
0
LINE
8
Black
10
96.3
20
-86.15
11
96.9
21
-86.15
0
LINE
8
Black
10
96.3
20
-85.85
11
96.9
21
-85.85
0
ARC
8
Black
10
96.9
20
-86
40
0.15
50
270
51
450
0
ARC
8
Black
10
96.3
20
-86
40
0.15
50
90
51
270
0
LINE
8
Black
10
96.3382
20
-83.9417
11
95.9382
21
-82.9935
0
LINE
8
Black
10
96.0618
20
-84.0583
11
95.6618
21
-83.1101
0
ARC
8
Black
10
95.8
20
-83.0518
40
0.15
50
382.873
51
562.873
0
ARC
8
Black
10
96.2
20
-84
40
0.15
50
202.873
51
382.873
0
LINE
8
Black
10
96.8366
20
-85.0379
11
96.3366
21
-83.9379
0
LINE
8
Black
10
96.5634
20
-85.1621
11
96.0634
21
-84.0621
0
ARC
8
Black
10
96.2
20
-84
40
0.15
50
384.444
51
564.444
0
ARC
8
Black
10
96.7
20
-85.1
40
0.15
50
204.444
51
384.444
0
LINE
8
Black
10
97.1061
20
-85.2939
11
96.8061
21
-84.9939
0
LINE
8
Black
10
96.8939
20
-85.5061
11
96.5939
21
-85.2061
0
ARC
8
Black
10
96.7
20
-85.1
40
0.15
50
405
51
585
0
ARC
8
Black
10
97
20
-85.4
40
0.15
50
225
51
405
0
LINE
8
Black
10
97.15
20
-85.9
11
97.15
21
-85.6
0
LINE
8
Black
10
96.85
20
-85.9
11
96.85
21
-85.6
0
ARC
8
Black
10
97
20
-85.6
40
0.15
50
360
51
540
0
ARC
8
Black
10
97
20
-85.9
40
0.15
50
180
51
360
0
LINE
8
Black
10
97.15
20
-85.6
11
97.15
21
-85.4
0
LINE
8
Black
10
96.85
20
-85.6
11
96.85
21
-85.4
0
ARC
8
Black
10
97
20
-85.4
40
0.15
50
360
51
540
0
ARC
8
Black
10
97
20
-85.6
40
0.15
50
180
51
360
0
LINE
8
Black
10
97.0061
20
-86.1061
11
97.1061
21
-86.0061
0
LINE
8
Black
10
96.7939
20
-85.8939
11
96.8939
21
-85.7939
0
ARC
8
Black
10
97
20
-85.9
40
0.15
50
315
51
495
0
ARC
8
Black
10
96.9
20
-86
40
0.15
50
135
51
315
0
LINE
8
Black
10
94
20
-83.2018
11
95.8
21
-83.2018
0
LINE
8
Black
10
94
20
-82.9018
11
95.8
21
-82.9018
0
ARC
8
Black
10
95.8
20
-83.0518
40
0.15
50
270
51
450
0
ARC
8
Black
10
94
20
-83.0518
40
0.15
50
90
51
270
0
LINE
8
Black
10
93.45
20
-68.1
11
93.45
21
-67.6
0
LINE
8
Black
10
93.15
20
-68.1
11
93.15
21
-67.6
0
ARC
8
Black
10
93.3
20
-67.6
40
0.15
50
360
51
540
0
ARC
8
Black
10
93.3
20
-68.1
40
0.15
50
180
51
360
0
LINE
8
Black
10
93.1621
20
-68.1591
11
93.4259
21
-68.7746
0
LINE
8
Black
10
93.4379
20
-68.0409
11
93.7017
21
-68.6564
0
ARC
8
Black
10
93.5638
20
-68.7155
40
0.15
50
203.199
51
383.199
0
ARC
8
Black
10
93.3
20
-68.1
40
0.15
50
23.1986
51
203.199
0
LINE
8
Black
10
93.7499
20
-70.0961
11
93.7137
21
-68.7116
0
LINE
8
Black
10
93.4501
20
-70.1039
11
93.4138
21
-68.7194
0
ARC
8
Black
10
93.5638
20
-68.7155
40
0.15
50
361.498
51
541.498
0
ARC
8
Black
10
93.6
20
-70.1
40
0.15
50
181.498
51
361.498
0
LINE
8
Black
10
93.4
20
-67.65
11
93.75
21
-67.65
0
LINE
8
Black
10
93.4
20
-67.35
11
93.75
21
-67.35
0
ARC
8
Black
10
93.75
20
-67.5
40
0.15
50
270
51
450
0
ARC
8
Black
10
93.4
20
-67.5
40
0.15
50
90
51
270
0
LINE
8
Black
10
93.4061
20
-67.7061
11
93.5061
21
-67.6061
0
LINE
8
Black
10
93.1939
20
-67.4939
11
93.2939
21
-67.3939
0
ARC
8
Black
10
93.4
20
-67.5
40
0.15
50
315
51
495
0
ARC
8
Black
10
93.3
20
-67.6
40
0.15
50
135
51
315
0
LINE
8
Black
10
95.8
20
-62.7018
11
96.8518
21
-62.7018
0
LINE
8
Black
10
95.8
20
-62.4018
11
96.8518
21
-62.4018
0
ARC
8
Black
10
96.8518
20
-62.5518
40
0.15
50
270
51
450
0
ARC
8
Black
10
95.8
20
-62.5518
40
0.15
50
90
51
270
0
LINE
8
Black
10
96.7458
20
-62.6579
11
96.9939
21
-62.9061
0
LINE
8
Black
10
96.9579
20
-62.4458
11
97.2061
21
-62.6939
0
ARC
8
Black
10
97.1
20
-62.8
40
0.15
50
225
51
405
0
ARC
8
Black
10
96.8518
20
-62.5518
40
0.15
50
45
51
225
0
LINE
8
Black
10
96.3
20
-67.15
11
96.9
21
-67.15
0
LINE
8
Black
10
96.3
20
-66.85
11
96.9
21
-66.85
0
ARC
8
Black
10
96.9
20
-67
40
0.15
50
270
51
450
0
ARC
8
Black
10
96.3
20
-67
40
0.15
50
90
51
270
0
LINE
8
Black
10
95.3
20
-70.15
11
97.3
21
-70.15
0
LINE
8
Black
10
95.3
20
-69.85
11
97.3
21
-69.85
0
ARC
8
Black
10
97.3
20
-70
40
0.15
50
270
51
450
0
ARC
8
Black
10
95.3
20
-70
40
0.15
50
90
51
270
0
LINE
8
Black
10
97.6848
20
-69.304
11
97.1848
21
-69.904
0
LINE
8
Black
10
97.9152
20
-69.496
11
97.4152
21
-70.096
0
ARC
8
Black
10
97.3
20
-70
40
0.15
50
500.194
51
680.194
0
ARC
8
Black
10
97.8
20
-69.4
40
0.15
50
320.194
51
500.194
0
LINE
8
Black
10
97.95
20
-69.4
11
97.95
21
-67.2
0
LINE
8
Black
10
97.65
20
-69.4
11
97.65
21
-67.2
0
ARC
8
Black
10
97.8
20
-67.2
40
0.15
50
360
51
540
0
ARC
8
Black
10
97.8
20
-69.4
40
0.15
50
180
51
360
0
LINE
8
Black
10
96.8675
20
-67.1464
11
97.7675
21
-67.3464
0
LINE
8
Black
10
96.9325
20
-66.8536
11
97.8325
21
-67.0536
0
ARC
8
Black
10
97.8
20
-67.2
40
0.15
50
257.471
51
437.471
0
ARC
8
Black
10
96.9
20
-67
40
0.15
50
77.4712
51
257.471
0
LINE
8
Black
10
94.84
20
-67.7774
11
94.85
21
-68.4024
0
LINE
8
Black
10
95.14
20
-67.7726
11
95.15
21
-68.3976
0
ARC
8
Black
10
95
20
-68.4
40
0.15
50
180.917
51
360.917
0
ARC
8
Black
10
94.99
20
-67.775
40
0.15
50
0.916654
51
180.917
0
LINE
8
Black
10
91.6784
20
-70.4549
11
93.3951
21
-70.4549
0
LINE
8
Black
10
91.6784
20
-70.1549
11
93.3951
21
-70.1549
0
ARC
8
Black
10
93.3951
20
-70.3049
40
0.15
50
270
51
450
0
ARC
8
Black
10
91.6784
20
-70.3049
40
0.15
50
90
51
270
0
LINE
8
Black
10
93.4939
20
-69.9939
11
93.2891
21
-70.1988
0
LINE
8
Black
10
93.7061
20
-70.2061
11
93.5012
21
-70.4109
0
ARC
8
Black
10
93.3951
20
-70.3049
40
0.15
50
495
51
675
0
ARC
8
Black
10
93.6
20
-70.1
40
0.15
50
315
51
495
0
LINE
8
Black
10
94.8526
20
-68.4276
11
95.1526
21
-70.0276
0
LINE
8
Black
10
95.1474
20
-68.3724
11
95.4474
21
-69.9724
0
ARC
8
Black
10
95.3
20
-70
40
0.15
50
190.62
51
370.62
0
ARC
8
Black
10
95
20
-68.4
40
0.15
50
10.6197
51
190.62
0
LINE
8
Black
10
92.405
20
-66.645
11
93.75
21
-66.645
0
LINE
8
Black
10
92.405
20
-66.345
11
93.75
21
-66.345
0
ARC
8
Black
10
93.75
20
-66.495
40
0.15
50
270
51
450
0
ARC
8
Black
10
92.405
20
-66.495
40
0.15
50
90
51
270
0
LINE
8
Black
10
91.1
20
-67.9018
11
91.8482
21
-67.9018
0
LINE
8
Black
10
91.1
20
-67.6018
11
91.8482
21
-67.6018
0
ARC
8
Black
10
91.8482
20
-67.7518
40
0.15
50
270
51
450
0
ARC
8
Black
10
91.1
20
-67.7518
40
0.15
50
90
51
270
0
LINE
8
Black
10
91.8939
20
-67.4939
11
91.7421
21
-67.6458
0
LINE
8
Black
10
92.1061
20
-67.7061
11
91.9542
21
-67.8579
0
ARC
8
Black
10
91.8482
20
-67.7518
40
0.15
50
495
51
675
0
ARC
8
Black
10
92
20
-67.6
40
0.15
50
315
51
495
0
LINE
8
Black
10
92.15
20
-67.6
11
92.15
21
-66.9
0
LINE
8
Black
10
91.85
20
-67.6
11
91.85
21
-66.9
0
ARC
8
Black
10
92
20
-66.9
40
0.15
50
360
51
540
0
ARC
8
Black
10
92
20
-67.6
40
0.15
50
180
51
360
0
LINE
8
Black
10
92.2989
20
-66.3889
11
91.8939
21
-66.7939
0
LINE
8
Black
10
92.5111
20
-66.6011
11
92.1061
21
-67.0061
0
ARC
8
Black
10
92
20
-66.9
40
0.15
50
495
51
675
0
ARC
8
Black
10
92.405
20
-66.495
40
0.15
50
315
51
495
0
LINE
8
Black
10
100.225
20
-69.525
11
102.4
21
-69.525
0
LINE
8
Black
10
100.225
20
-69.225
11
102.4
21
-69.225
0
ARC
8
Black
10
102.4
20
-69.375
40
0.15
50
270
51
450
0
ARC
8
Black
10
100.225
20
-69.375
40
0.15
50
90
51
270
0
LINE
8
Black
10
91.8463
20
-70.3669
11
91.8247
21
-70.2717
0
LINE
8
Black
10
91.5537
20
-70.4331
11
91.5322
21
-70.338
0
ARC
8
Black
10
91.6784
20
-70.3049
40
0.15
50
372.766
51
552.766
0
ARC
8
Black
10
91.7
20
-70.4
40
0.15
50
192.766
51
372.766
0
LINE
8
Black
10
91.8247
20
-70.2717
11
91.2463
21
-67.7187
0
LINE
8
Black
10
91.5322
20
-70.338
11
90.9537
21
-67.785
0
ARC
8
Black
10
91.1
20
-67.7518
40
0.15
50
372.766
51
552.766
0
ARC
8
Black
10
91.6784
20
-70.3049
40
0.15
50
192.766
51
372.766
0
LINE
8
Black
10
92.7061
20
-71.1939
11
91.8061
21
-70.2939
0
LINE
8
Black
10
92.4939
20
-71.4061
11
91.5939
21
-70.5061
0
ARC
8
Black
10
91.7
20
-70.4
40
0.15
50
405
51
585
0
ARC
8
Black
10
92.6
20
-71.3
40
0.15
50
225
51
405
0
LINE
8
Black
10
92.6
20
-71.45
11
98
21
-71.45
0
LINE
8
Black
10
92.6
20
-71.15
11
98
21
-71.15
0
ARC
8
Black
10
98
20
-71.3
40
0.15
50
270
51
450
0
ARC
8
Black
10
92.6
20
-71.3
40
0.15
50
90
51
270
0
LINE
8
Black
10
98.4939
20
-70.5939
11
97.8939
21
-71.1939
0
LINE
8
Black
10
98.7061
20
-70.8061
11
98.1061
21
-71.4061
0
ARC
8
Black
10
98
20
-71.3
40
0.15
50
495
51
675
0
ARC
8
Black
10
98.6
20
-70.7
40
0.15
50
315
51
495
0
LINE
8
Black
10
99.5855
20
-69.3031
11
98.4855
21
-70.6031
0
LINE
8
Black
10
99.8145
20
-69.4969
11
98.7145
21
-70.7969
0
ARC
8
Black
10
98.6
20
-70.7
40
0.15
50
499.764
51
679.764
0
ARC
8
Black
10
99.7
20
-69.4
40
0.15
50
319.764
51
499.764
0
LINE
8
Black
10
100.218
20
-69.2252
11
99.6929
21
-69.2502
0
LINE
8
Black
10
100.232
20
-69.5248
11
99.7071
21
-69.5498
0
ARC
8
Black
10
99.7
20
-69.4
40
0.15
50
452.726
51
632.726
0
ARC
8
Black
10
100.225
20
-69.375
40
0.15
50
272.726
51
452.726
0
LINE
8
Black
10
96.3
20
-66.15
11
97.1
21
-66.15
0
LINE
8
Black
10
96.3
20
-65.85
11
97.1
21
-65.85
0
ARC
8
Black
10
97.1
20
-66
40
0.15
50
270
51
450
0
ARC
8
Black
10
96.3
20
-66
40
0.15
50
90
51
270
0
LINE
8
Black
10
97.3061
20
-65.1939
11
97.1061
21
-64.9939
0
LINE
8
Black
10
97.0939
20
-65.4061
11
96.8939
21
-65.2061
0
ARC
8
Black
10
97
20
-65.1
40
0.15
50
405
51
585
0
ARC
8
Black
10
97.2
20
-65.3
40
0.15
50
225
51
405
0
LINE
8
Black
10
97.35
20
-65.9
11
97.35
21
-65.3
0
LINE
8
Black
10
97.05
20
-65.9
11
97.05
21
-65.3
0
ARC
8
Black
10
97.2
20
-65.3
40
0.15
50
360
51
540
0
ARC
8
Black
10
97.2
20
-65.9
40
0.15
50
180
51
360
0
LINE
8
Black
10
97.2061
20
-66.1061
11
97.3061
21
-66.0061
0
LINE
8
Black
10
96.9939
20
-65.8939
11
97.0939
21
-65.7939
0
ARC
8
Black
10
97.2
20
-65.9
40
0.15
50
315
51
495
0
ARC
8
Black
10
97.1
20
-66
40
0.15
50
135
51
315
0
LINE
8
Black
10
96.3
20
-65.65
11
96.9
21
-65.65
0
LINE
8
Black
10
96.3
20
-65.35
11
96.9
21
-65.35
0
ARC
8
Black
10
96.9
20
-65.5
40
0.15
50
270
51
450
0
ARC
8
Black
10
96.3
20
-65.5
40
0.15
50
90
51
270
0
LINE
8
Black
10
96.3382
20
-63.4417
11
95.9382
21
-62.4935
0
LINE
8
Black
10
96.0618
20
-63.5583
11
95.6618
21
-62.6101
0
ARC
8
Black
10
95.8
20
-62.5518
40
0.15
50
382.873
51
562.873
0
ARC
8
Black
10
96.2
20
-63.5
40
0.15
50
202.873
51
382.873
0
LINE
8
Black
10
96.8366
20
-64.5379
11
96.3366
21
-63.4379
0
LINE
8
Black
10
96.5634
20
-64.6621
11
96.0634
21
-63.5621
0
ARC
8
Black
10
96.2
20
-63.5
40
0.15
50
384.444
51
564.444
0
ARC
8
Black
10
96.7
20
-64.6
40
0.15
50
204.444
51
384.444
0
LINE
8
Black
10
97.1061
20
-64.7939
11
96.8061
21
-64.4939
0
LINE
8
Black
10
96.8939
20
-65.0061
11
96.5939
21
-64.7061
0
ARC
8
Black
10
96.7
20
-64.6
40
0.15
50
405
51
585
0
ARC
8
Black
10
97
20
-64.9
40
0.15
50
225
51
405
0
LINE
8
Black
10
97.15
20
-65.4
11
97.15
21
-65.1
0
LINE
8
Black
10
96.85
20
-65.4
11
96.85
21
-65.1
0
ARC
8
Black
10
97
20
-65.1
40
0.15
50
360
51
540
0
ARC
8
Black
10
97
20
-65.4
40
0.15
50
180
51
360
0
LINE
8
Black
10
97.15
20
-65.1
11
97.15
21
-64.9
0
LINE
8
Black
10
96.85
20
-65.1
11
96.85
21
-64.9
0
ARC
8
Black
10
97
20
-64.9
40
0.15
50
360
51
540
0
ARC
8
Black
10
97
20
-65.1
40
0.15
50
180
51
360
0
LINE
8
Black
10
97.0061
20
-65.6061
11
97.1061
21
-65.5061
0
LINE
8
Black
10
96.7939
20
-65.3939
11
96.8939
21
-65.2939
0
ARC
8
Black
10
97
20
-65.4
40
0.15
50
315
51
495
0
ARC
8
Black
10
96.9
20
-65.5
40
0.15
50
135
51
315
0
LINE
8
Black
10
94
20
-62.7018
11
95.8
21
-62.7018
0
LINE
8
Black
10
94
20
-62.4018
11
95.8
21
-62.4018
0
ARC
8
Black
10
95.8
20
-62.5518
40
0.15
50
270
51
450
0
ARC
8
Black
10
94
20
-62.5518
40
0.15
50
90
51
270
0
LINE
8
Black
10
93.45
20
-47.6
11
93.45
21
-47.1
0
LINE
8
Black
10
93.15
20
-47.6
11
93.15
21
-47.1
0
ARC
8
Black
10
93.3
20
-47.1
40
0.15
50
360
51
540
0
ARC
8
Black
10
93.3
20
-47.6
40
0.15
50
180
51
360
0
LINE
8
Black
10
93.1621
20
-47.6591
11
93.4259
21
-48.2746
0
LINE
8
Black
10
93.4379
20
-47.5409
11
93.7017
21
-48.1564
0
ARC
8
Black
10
93.5638
20
-48.2155
40
0.15
50
203.199
51
383.199
0
ARC
8
Black
10
93.3
20
-47.6
40
0.15
50
23.1986
51
203.199
0
LINE
8
Black
10
93.7499
20
-49.5961
11
93.7137
21
-48.2116
0
LINE
8
Black
10
93.4501
20
-49.6039
11
93.4138
21
-48.2194
0
ARC
8
Black
10
93.5638
20
-48.2155
40
0.15
50
361.498
51
541.498
0
ARC
8
Black
10
93.6
20
-49.6
40
0.15
50
181.498
51
361.498
0
LINE
8
Black
10
93.4
20
-47.15
11
93.75
21
-47.15
0
LINE
8
Black
10
93.4
20
-46.85
11
93.75
21
-46.85
0
ARC
8
Black
10
93.75
20
-47
40
0.15
50
270
51
450
0
ARC
8
Black
10
93.4
20
-47
40
0.15
50
90
51
270
0
LINE
8
Black
10
93.4061
20
-47.2061
11
93.5061
21
-47.1061
0
LINE
8
Black
10
93.1939
20
-46.9939
11
93.2939
21
-46.8939
0
ARC
8
Black
10
93.4
20
-47
40
0.15
50
315
51
495
0
ARC
8
Black
10
93.3
20
-47.1
40
0.15
50
135
51
315
0
LINE
8
Black
10
95.8
20
-42.2018
11
96.8518
21
-42.2018
0
LINE
8
Black
10
95.8
20
-41.9018
11
96.8518
21
-41.9018
0
ARC
8
Black
10
96.8518
20
-42.0518
40
0.15
50
270
51
450
0
ARC
8
Black
10
95.8
20
-42.0518
40
0.15
50
90
51
270
0
LINE
8
Black
10
96.7458
20
-42.1579
11
96.9939
21
-42.4061
0
LINE
8
Black
10
96.9579
20
-41.9458
11
97.2061
21
-42.1939
0
ARC
8
Black
10
97.1
20
-42.3
40
0.15
50
225
51
405
0
ARC
8
Black
10
96.8518
20
-42.0518
40
0.15
50
45
51
225
0
LINE
8
Black
10
96.3
20
-46.65
11
96.9
21
-46.65
0
LINE
8
Black
10
96.3
20
-46.35
11
96.9
21
-46.35
0
ARC
8
Black
10
96.9
20
-46.5
40
0.15
50
270
51
450
0
ARC
8
Black
10
96.3
20
-46.5
40
0.15
50
90
51
270
0
LINE
8
Black
10
95.3
20
-49.65
11
97.3
21
-49.65
0
LINE
8
Black
10
95.3
20
-49.35
11
97.3
21
-49.35
0
ARC
8
Black
10
97.3
20
-49.5
40
0.15
50
270
51
450
0
ARC
8
Black
10
95.3
20
-49.5
40
0.15
50
90
51
270
0
LINE
8
Black
10
97.6848
20
-48.804
11
97.1848
21
-49.404
0
LINE
8
Black
10
97.9152
20
-48.996
11
97.4152
21
-49.596
0
ARC
8
Black
10
97.3
20
-49.5
40
0.15
50
500.194
51
680.194
0
ARC
8
Black
10
97.8
20
-48.9
40
0.15
50
320.194
51
500.194
0
LINE
8
Black
10
97.95
20
-48.9
11
97.95
21
-46.7
0
LINE
8
Black
10
97.65
20
-48.9
11
97.65
21
-46.7
0
ARC
8
Black
10
97.8
20
-46.7
40
0.15
50
360
51
540
0
ARC
8
Black
10
97.8
20
-48.9
40
0.15
50
180
51
360
0
LINE
8
Black
10
96.8675
20
-46.6464
11
97.7675
21
-46.8464
0
LINE
8
Black
10
96.9325
20
-46.3536
11
97.8325
21
-46.5536
0
ARC
8
Black
10
97.8
20
-46.7
40
0.15
50
257.471
51
437.471
0
ARC
8
Black
10
96.9
20
-46.5
40
0.15
50
77.4712
51
257.471
0
LINE
8
Black
10
94.84
20
-47.2774
11
94.85
21
-47.9024
0
LINE
8
Black
10
95.14
20
-47.2726
11
95.15
21
-47.8976
0
ARC
8
Black
10
95
20
-47.9
40
0.15
50
180.917
51
360.917
0
ARC
8
Black
10
94.99
20
-47.275
40
0.15
50
0.916654
51
180.917
0
LINE
8
Black
10
91.6784
20
-49.9549
11
93.3951
21
-49.9549
0
LINE
8
Black
10
91.6784
20
-49.6549
11
93.3951
21
-49.6549
0
ARC
8
Black
10
93.3951
20
-49.8049
40
0.15
50
270
51
450
0
ARC
8
Black
10
91.6784
20
-49.8049
40
0.15
50
90
51
270
0
LINE
8
Black
10
93.4939
20
-49.4939
11
93.2891
21
-49.6988
0
LINE
8
Black
10
93.7061
20
-49.7061
11
93.5012
21
-49.9109
0
ARC
8
Black
10
93.3951
20
-49.8049
40
0.15
50
495
51
675
0
ARC
8
Black
10
93.6
20
-49.6
40
0.15
50
315
51
495
0
LINE
8
Black
10
94.8526
20
-47.9276
11
95.1526
21
-49.5276
0
LINE
8
Black
10
95.1474
20
-47.8724
11
95.4474
21
-49.4724
0
ARC
8
Black
10
95.3
20
-49.5
40
0.15
50
190.62
51
370.62
0
ARC
8
Black
10
95
20
-47.9
40
0.15
50
10.6197
51
190.62
0
LINE
8
Black
10
92.405
20
-46.145
11
93.75
21
-46.145
0
LINE
8
Black
10
92.405
20
-45.845
11
93.75
21
-45.845
0
ARC
8
Black
10
93.75
20
-45.995
40
0.15
50
270
51
450
0
ARC
8
Black
10
92.405
20
-45.995
40
0.15
50
90
51
270
0
LINE
8
Black
10
91.1
20
-47.4018
11
91.8482
21
-47.4018
0
LINE
8
Black
10
91.1
20
-47.1018
11
91.8482
21
-47.1018
0
ARC
8
Black
10
91.8482
20
-47.2518
40
0.15
50
270
51
450
0
ARC
8
Black
10
91.1
20
-47.2518
40
0.15
50
90
51
270
0
LINE
8
Black
10
91.8939
20
-46.9939
11
91.7421
21
-47.1458
0
LINE
8
Black
10
92.1061
20
-47.2061
11
91.9542
21
-47.3579
0
ARC
8
Black
10
91.8482
20
-47.2518
40
0.15
50
495
51
675
0
ARC
8
Black
10
92
20
-47.1
40
0.15
50
315
51
495
0
LINE
8
Black
10
92.15
20
-47.1
11
92.15
21
-46.4
0
LINE
8
Black
10
91.85
20
-47.1
11
91.85
21
-46.4
0
ARC
8
Black
10
92
20
-46.4
40
0.15
50
360
51
540
0
ARC
8
Black
10
92
20
-47.1
40
0.15
50
180
51
360
0
LINE
8
Black
10
92.2989
20
-45.8889
11
91.8939
21
-46.2939
0
LINE
8
Black
10
92.5111
20
-46.1011
11
92.1061
21
-46.5061
0
ARC
8
Black
10
92
20
-46.4
40
0.15
50
495
51
675
0
ARC
8
Black
10
92.405
20
-45.995
40
0.15
50
315
51
495
0
LINE
8
Black
10
100.225
20
-49.025
11
102.4
21
-49.025
0
LINE
8
Black
10
100.225
20
-48.725
11
102.4
21
-48.725
0
ARC
8
Black
10
102.4
20
-48.875
40
0.15
50
270
51
450
0
ARC
8
Black
10
100.225
20
-48.875
40
0.15
50
90
51
270
0
LINE
8
Black
10
91.8463
20
-49.8669
11
91.8247
21
-49.7717
0
LINE
8
Black
10
91.5537
20
-49.9331
11
91.5322
21
-49.838
0
ARC
8
Black
10
91.6784
20
-49.8049
40
0.15
50
372.766
51
552.766
0
ARC
8
Black
10
91.7
20
-49.9
40
0.15
50
192.766
51
372.766
0
LINE
8
Black
10
91.8247
20
-49.7717
11
91.2463
21
-47.2187
0
LINE
8
Black
10
91.5322
20
-49.838
11
90.9537
21
-47.285
0
ARC
8
Black
10
91.1
20
-47.2518
40
0.15
50
372.766
51
552.766
0
ARC
8
Black
10
91.6784
20
-49.8049
40
0.15
50
192.766
51
372.766
0
LINE
8
Black
10
92.7061
20
-50.6939
11
91.8061
21
-49.7939
0
LINE
8
Black
10
92.4939
20
-50.9061
11
91.5939
21
-50.0061
0
ARC
8
Black
10
91.7
20
-49.9
40
0.15
50
405
51
585
0
ARC
8
Black
10
92.6
20
-50.8
40
0.15
50
225
51
405
0
LINE
8
Black
10
92.6
20
-50.95
11
98
21
-50.95
0
LINE
8
Black
10
92.6
20
-50.65
11
98
21
-50.65
0
ARC
8
Black
10
98
20
-50.8
40
0.15
50
270
51
450
0
ARC
8
Black
10
92.6
20
-50.8
40
0.15
50
90
51
270
0
LINE
8
Black
10
98.4939
20
-50.0939
11
97.8939
21
-50.6939
0
LINE
8
Black
10
98.7061
20
-50.3061
11
98.1061
21
-50.9061
0
ARC
8
Black
10
98
20
-50.8
40
0.15
50
495
51
675
0
ARC
8
Black
10
98.6
20
-50.2
40
0.15
50
315
51
495
0
LINE
8
Black
10
99.5855
20
-48.8031
11
98.4855
21
-50.1031
0
LINE
8
Black
10
99.8145
20
-48.9969
11
98.7145
21
-50.2969
0
ARC
8
Black
10
98.6
20
-50.2
40
0.15
50
499.764
51
679.764
0
ARC
8
Black
10
99.7
20
-48.9
40
0.15
50
319.764
51
499.764
0
LINE
8
Black
10
100.218
20
-48.7252
11
99.6929
21
-48.7502
0
LINE
8
Black
10
100.232
20
-49.0248
11
99.7071
21
-49.0498
0
ARC
8
Black
10
99.7
20
-48.9
40
0.15
50
452.726
51
632.726
0
ARC
8
Black
10
100.225
20
-48.875
40
0.15
50
272.726
51
452.726
0
LINE
8
Black
10
96.3
20
-45.65
11
97.1
21
-45.65
0
LINE
8
Black
10
96.3
20
-45.35
11
97.1
21
-45.35
0
ARC
8
Black
10
97.1
20
-45.5
40
0.15
50
270
51
450
0
ARC
8
Black
10
96.3
20
-45.5
40
0.15
50
90
51
270
0
LINE
8
Black
10
97.3061
20
-44.6939
11
97.1061
21
-44.4939
0
LINE
8
Black
10
97.0939
20
-44.9061
11
96.8939
21
-44.7061
0
ARC
8
Black
10
97
20
-44.6
40
0.15
50
405
51
585
0
ARC
8
Black
10
97.2
20
-44.8
40
0.15
50
225
51
405
0
LINE
8
Black
10
97.35
20
-45.4
11
97.35
21
-44.8
0
LINE
8
Black
10
97.05
20
-45.4
11
97.05
21
-44.8
0
ARC
8
Black
10
97.2
20
-44.8
40
0.15
50
360
51
540
0
ARC
8
Black
10
97.2
20
-45.4
40
0.15
50
180
51
360
0
LINE
8
Black
10
97.2061
20
-45.6061
11
97.3061
21
-45.5061
0
LINE
8
Black
10
96.9939
20
-45.3939
11
97.0939
21
-45.2939
0
ARC
8
Black
10
97.2
20
-45.4
40
0.15
50
315
51
495
0
ARC
8
Black
10
97.1
20
-45.5
40
0.15
50
135
51
315
0
LINE
8
Black
10
96.3
20
-45.15
11
96.9
21
-45.15
0
LINE
8
Black
10
96.3
20
-44.85
11
96.9
21
-44.85
0
ARC
8
Black
10
96.9
20
-45
40
0.15
50
270
51
450
0
ARC
8
Black
10
96.3
20
-45
40
0.15
50
90
51
270
0
LINE
8
Black
10
96.3382
20
-42.9417
11
95.9382
21
-41.9935
0
LINE
8
Black
10
96.0618
20
-43.0583
11
95.6618
21
-42.1101
0
ARC
8
Black
10
95.8
20
-42.0518
40
0.15
50
382.873
51
562.873
0
ARC
8
Black
10
96.2
20
-43
40
0.15
50
202.873
51
382.873
0
LINE
8
Black
10
96.8366
20
-44.0379
11
96.3366
21
-42.9379
0
LINE
8
Black
10
96.5634
20
-44.1621
11
96.0634
21
-43.0621
0
ARC
8
Black
10
96.2
20
-43
40
0.15
50
384.444
51
564.444
0
ARC
8
Black
10
96.7
20
-44.1
40
0.15
50
204.444
51
384.444
0
LINE
8
Black
10
97.1061
20
-44.2939
11
96.8061
21
-43.9939
0
LINE
8
Black
10
96.8939
20
-44.5061
11
96.5939
21
-44.2061
0
ARC
8
Black
10
96.7
20
-44.1
40
0.15
50
405
51
585
0
ARC
8
Black
10
97
20
-44.4
40
0.15
50
225
51
405
0
LINE
8
Black
10
97.15
20
-44.9
11
97.15
21
-44.6
0
LINE
8
Black
10
96.85
20
-44.9
11
96.85
21
-44.6
0
ARC
8
Black
10
97
20
-44.6
40
0.15
50
360
51
540
0
ARC
8
Black
10
97
20
-44.9
40
0.15
50
180
51
360
0
LINE
8
Black
10
97.15
20
-44.6
11
97.15
21
-44.4
0
LINE
8
Black
10
96.85
20
-44.6
11
96.85
21
-44.4
0
ARC
8
Black
10
97
20
-44.4
40
0.15
50
360
51
540
0
ARC
8
Black
10
97
20
-44.6
40
0.15
50
180
51
360
0
LINE
8
Black
10
97.0061
20
-45.1061
11
97.1061
21
-45.0061
0
LINE
8
Black
10
96.7939
20
-44.8939
11
96.8939
21
-44.7939
0
ARC
8
Black
10
97
20
-44.9
40
0.15
50
315
51
495
0
ARC
8
Black
10
96.9
20
-45
40
0.15
50
135
51
315
0
LINE
8
Black
10
94
20
-42.2018
11
95.8
21
-42.2018
0
LINE
8
Black
10
94
20
-41.9018
11
95.8
21
-41.9018
0
ARC
8
Black
10
95.8
20
-42.0518
40
0.15
50
270
51
450
0
ARC
8
Black
10
94
20
-42.0518
40
0.15
50
90
51
270
0
LINE
8
Black
10
80.7995
20
-63.145
11
82.1995
21
-63.15
0
LINE
8
Black
10
80.8005
20
-62.845
11
82.2005
21
-62.85
0
ARC
8
Black
10
82.2
20
-63
40
0.15
50
269.795
51
449.795
0
ARC
8
Black
10
80.8
20
-62.995
40
0.15
50
89.7954
51
269.795
0
ARC
8
Black
10
83.725
20
-60.6164
40
0.15
50
180
51
360
0
ARC
8
Black
10
83.725
20
-60.6164
40
0.15
50
0
51
180
0
LINE
8
Black
10
83.7485
20
-61.521
11
83.8735
21
-60.6374
0
LINE
8
Black
10
83.4515
20
-61.479
11
83.5765
21
-60.5954
0
ARC
8
Black
10
83.725
20
-60.6164
40
0.15
50
351.948
51
531.948
0
ARC
8
Black
10
83.6
20
-61.5
40
0.15
50
171.948
51
351.948
0
LINE
8
Black
10
82.3097
20
-63.1023
11
83.7097
21
-61.6023
0
LINE
8
Black
10
82.0903
20
-62.8977
11
83.4903
21
-61.3977
0
ARC
8
Black
10
83.6
20
-61.5
40
0.15
50
316.975
51
496.975
0
ARC
8
Black
10
82.2
20
-63
40
0.15
50
136.975
51
316.975
0
LINE
8
Black
10
79.2152
20
-54.9223
11
79.3502
21
-57.7073
0
LINE
8
Black
10
79.5148
20
-54.9077
11
79.6498
21
-57.6927
0
ARC
8
Black
10
79.5
20
-57.7
40
0.15
50
182.775
51
362.775
0
ARC
8
Black
10
79.365
20
-54.915
40
0.15
50
2.77518
51
182.775
0
LINE
8
Black
10
79.4465
20
-57.8401
11
82.1965
21
-58.8901
0
LINE
8
Black
10
79.5535
20
-57.5599
11
82.3035
21
-58.6099
0
ARC
8
Black
10
82.25
20
-58.75
40
0.15
50
249.102
51
429.102
0
ARC
8
Black
10
79.5
20
-57.7
40
0.15
50
69.1022
51
249.102
0
LINE
8
Black
10
82.154
20
-58.8652
11
83.654
21
-60.1152
0
LINE
8
Black
10
82.346
20
-58.6348
11
83.846
21
-59.8848
0
ARC
8
Black
10
83.75
20
-60
40
0.15
50
230.194
51
410.194
0
ARC
8
Black
10
82.25
20
-58.75
40
0.15
50
50.1944
51
230.194
0
LINE
8
Black
10
83.6001
20
-59.9939
11
83.5751
21
-60.6103
0
LINE
8
Black
10
83.8999
20
-60.0061
11
83.8749
21
-60.6225
0
ARC
8
Black
10
83.725
20
-60.6164
40
0.15
50
537.677
51
717.677
0
ARC
8
Black
10
83.75
20
-60
40
0.15
50
357.677
51
537.677
0
LINE
8
Black
10
79.515
20
-54.915
11
79.515
21
-53.4
0
LINE
8
Black
10
79.215
20
-54.915
11
79.215
21
-53.4
0
ARC
8
Black
10
79.365
20
-53.4
40
0.15
50
360
51
540
0
ARC
8
Black
10
79.365
20
-54.915
40
0.15
50
180
51
360
0
LINE
8
Black
10
63.515
20
-54.915
11
63.515
21
-53.4
0
LINE
8
Black
10
63.215
20
-54.915
11
63.215
21
-53.4
0
ARC
8
Black
10
63.365
20
-53.4
40
0.15
50
360
51
540
0
ARC
8
Black
10
63.365
20
-54.915
40
0.15
50
180
51
360
0
LINE
8
Black
10
67.6001
20
-59.9939
11
67.5751
21
-60.6103
0
LINE
8
Black
10
67.8999
20
-60.0061
11
67.8749
21
-60.6225
0
ARC
8
Black
10
67.725
20
-60.6164
40
0.15
50
537.677
51
717.677
0
ARC
8
Black
10
67.75
20
-60
40
0.15
50
357.677
51
537.677
0
LINE
8
Black
10
66.154
20
-58.8652
11
67.654
21
-60.1152
0
LINE
8
Black
10
66.346
20
-58.6348
11
67.846
21
-59.8848
0
ARC
8
Black
10
67.75
20
-60
40
0.15
50
230.194
51
410.194
0
ARC
8
Black
10
66.25
20
-58.75
40
0.15
50
50.1944
51
230.194
0
LINE
8
Black
10
63.4465
20
-57.8401
11
66.1965
21
-58.8901
0
LINE
8
Black
10
63.5535
20
-57.5599
11
66.3035
21
-58.6099
0
ARC
8
Black
10
66.25
20
-58.75
40
0.15
50
249.102
51
429.102
0
ARC
8
Black
10
63.5
20
-57.7
40
0.15
50
69.1022
51
249.102
0
LINE
8
Black
10
63.2152
20
-54.9223
11
63.3502
21
-57.7073
0
LINE
8
Black
10
63.5148
20
-54.9077
11
63.6498
21
-57.6927
0
ARC
8
Black
10
63.5
20
-57.7
40
0.15
50
182.775
51
362.775
0
ARC
8
Black
10
63.365
20
-54.915
40
0.15
50
2.77518
51
182.775
0
LINE
8
Black
10
66.3097
20
-63.1023
11
67.7097
21
-61.6023
0
LINE
8
Black
10
66.0903
20
-62.8977
11
67.4903
21
-61.3977
0
ARC
8
Black
10
67.6
20
-61.5
40
0.15
50
316.975
51
496.975
0
ARC
8
Black
10
66.2
20
-63
40
0.15
50
136.975
51
316.975
0
LINE
8
Black
10
67.7485
20
-61.521
11
67.8735
21
-60.6374
0
LINE
8
Black
10
67.4515
20
-61.479
11
67.5765
21
-60.5954
0
ARC
8
Black
10
67.725
20
-60.6164
40
0.15
50
351.948
51
531.948
0
ARC
8
Black
10
67.6
20
-61.5
40
0.15
50
171.948
51
351.948
0
ARC
8
Black
10
67.725
20
-60.6164
40
0.15
50
180
51
360
0
ARC
8
Black
10
67.725
20
-60.6164
40
0.15
50
0
51
180
0
LINE
8
Black
10
64.7995
20
-63.145
11
66.1995
21
-63.15
0
LINE
8
Black
10
64.8005
20
-62.845
11
66.2005
21
-62.85
0
ARC
8
Black
10
66.2
20
-63
40
0.15
50
269.795
51
449.795
0
ARC
8
Black
10
64.8
20
-62.995
40
0.15
50
89.7954
51
269.795
0
LINE
8
Black
10
62.7995
20
-87.145
11
64.1995
21
-87.15
0
LINE
8
Black
10
62.8005
20
-86.845
11
64.2005
21
-86.85
0
ARC
8
Black
10
64.2
20
-87
40
0.15
50
269.795
51
449.795
0
ARC
8
Black
10
62.8
20
-86.995
40
0.15
50
89.7954
51
269.795
0
LINE
8
Black
10
64.8976
20
-86.15
11
68.8976
21
-86.215
0
LINE
8
Black
10
64.9024
20
-85.85
11
68.9024
21
-85.915
0
ARC
8
Black
10
68.9
20
-86.065
40
0.15
50
269.069
51
449.069
0
ARC
8
Black
10
64.9
20
-86
40
0.15
50
89.069
51
269.069
0
LINE
8
Black
10
64.3229
20
-87.086
11
65.0229
21
-86.086
0
LINE
8
Black
10
64.0771
20
-86.914
11
64.7771
21
-85.914
0
ARC
8
Black
10
64.9
20
-86
40
0.15
50
325.008
51
505.008
0
ARC
8
Black
10
64.2
20
-87
40
0.15
50
145.008
51
325.008
0
LINE
8
Black
10
96.2995
20
-87.145
11
97.6995
21
-87.15
0
LINE
8
Black
10
96.3005
20
-86.845
11
97.7005
21
-86.85
0
ARC
8
Black
10
97.7
20
-87
40
0.15
50
269.795
51
449.795
0
ARC
8
Black
10
96.3
20
-86.995
40
0.15
50
89.7954
51
269.795
0
LINE
8
Black
10
98.3976
20
-86.15
11
102.398
21
-86.215
0
LINE
8
Black
10
98.4024
20
-85.85
11
102.402
21
-85.915
0
ARC
8
Black
10
102.4
20
-86.065
40
0.15
50
269.069
51
449.069
0
ARC
8
Black
10
98.4
20
-86
40
0.15
50
89.069
51
269.069
0
LINE
8
Black
10
97.8229
20
-87.086
11
98.5229
21
-86.086
0
LINE
8
Black
10
97.5771
20
-86.914
11
98.2771
21
-85.914
0
ARC
8
Black
10
98.4
20
-86
40
0.15
50
325.008
51
505.008
0
ARC
8
Black
10
97.7
20
-87
40
0.15
50
145.008
51
325.008
0
LINE
8
Black
10
96.2995
20
-66.645
11
97.6995
21
-66.65
0
LINE
8
Black
10
96.3005
20
-66.345
11
97.7005
21
-66.35
0
ARC
8
Black
10
97.7
20
-66.5
40
0.15
50
269.795
51
449.795
0
ARC
8
Black
10
96.3
20
-66.495
40
0.15
50
89.7954
51
269.795
0
LINE
8
Black
10
98.3976
20
-65.65
11
102.398
21
-65.715
0
LINE
8
Black
10
98.4024
20
-65.35
11
102.402
21
-65.415
0
ARC
8
Black
10
102.4
20
-65.565
40
0.15
50
269.069
51
449.069
0
ARC
8
Black
10
98.4
20
-65.5
40
0.15
50
89.069
51
269.069
0
LINE
8
Black
10
97.8229
20
-66.586
11
98.5229
21
-65.586
0
LINE
8
Black
10
97.5771
20
-66.414
11
98.2771
21
-65.414
0
ARC
8
Black
10
98.4
20
-65.5
40
0.15
50
325.008
51
505.008
0
ARC
8
Black
10
97.7
20
-66.5
40
0.15
50
145.008
51
325.008
0
LINE
8
Black
10
96.2995
20
-46.145
11
97.6995
21
-46.15
0
LINE
8
Black
10
96.3005
20
-45.845
11
97.7005
21
-45.85
0
ARC
8
Black
10
97.7
20
-46
40
0.15
50
269.795
51
449.795
0
ARC
8
Black
10
96.3
20
-45.995
40
0.15
50
89.7954
51
269.795
0
LINE
8
Black
10
98.3976
20
-45.15
11
102.398
21
-45.215
0
LINE
8
Black
10
98.4024
20
-44.85
11
102.402
21
-44.915
0
ARC
8
Black
10
102.4
20
-45.065
40
0.15
50
269.069
51
449.069
0
ARC
8
Black
10
98.4
20
-45
40
0.15
50
89.069
51
269.069
0
LINE
8
Black
10
97.8229
20
-46.086
11
98.5229
21
-45.086
0
LINE
8
Black
10
97.5771
20
-45.914
11
98.2771
21
-44.914
0
ARC
8
Black
10
98.4
20
-45
40
0.15
50
325.008
51
505.008
0
ARC
8
Black
10
97.7
20
-46
40
0.15
50
145.008
51
325.008
0
LINE
8
Black
10
82.6439
20
-60.6439
11
82.5489
21
-60.7389
0
LINE
8
Black
10
82.8561
20
-60.8561
11
82.7611
21
-60.9511
0
ARC
8
Black
10
82.655
20
-60.845
40
0.15
50
495
51
675
0
ARC
8
Black
10
82.75
20
-60.75
40
0.15
50
315
51
495
0
LINE
8
Black
10
80.8
20
-64.15
11
81.2
21
-64.15
0
LINE
8
Black
10
80.8
20
-63.85
11
81.2
21
-63.85
0
ARC
8
Black
10
81.2
20
-64
40
0.15
50
270
51
450
0
ARC
8
Black
10
80.8
20
-64
40
0.15
50
90
51
270
0
LINE
8
Black
10
81.4658
20
-64.2671
11
81.8658
21
-65.0671
0
LINE
8
Black
10
81.7342
20
-64.1329
11
82.1342
21
-64.9329
0
ARC
8
Black
10
82
20
-65
40
0.15
50
206.565
51
386.565
0
ARC
8
Black
10
81.6
20
-64.2
40
0.15
50
26.5651
51
206.565
0
LINE
8
Black
10
81.1329
20
-64.1342
11
81.5329
21
-64.3342
0
LINE
8
Black
10
81.2671
20
-63.8658
11
81.6671
21
-64.0658
0
ARC
8
Black
10
81.6
20
-64.2
40
0.15
50
243.435
51
423.435
0
ARC
8
Black
10
81.2
20
-64
40
0.15
50
63.4349
51
243.435
0
LINE
8
Black
10
82.8545
20
-60.4174
11
82.0045
21
-59.5924
0
LINE
8
Black
10
82.6455
20
-60.6326
11
81.7955
21
-59.8076
0
ARC
8
Black
10
81.9
20
-59.7
40
0.15
50
405.855
51
585.855
0
ARC
8
Black
10
82.75
20
-60.525
40
0.15
50
225.855
51
405.855
0
LINE
8
Black
10
81.8526
20
-59.5577
11
81.7026
21
-59.6077
0
LINE
8
Black
10
81.9474
20
-59.8423
11
81.7974
21
-59.8923
0
ARC
8
Black
10
81.75
20
-59.75
40
0.15
50
468.435
51
648.435
0
ARC
8
Black
10
81.9
20
-59.7
40
0.15
50
288.435
51
468.435
0
LINE
8
Black
10
81.7926
20
-59.6062
11
81.1176
21
-59.4062
0
LINE
8
Black
10
81.7074
20
-59.8938
11
81.0324
21
-59.6938
0
ARC
8
Black
10
81.075
20
-59.55
40
0.15
50
433.496
51
613.496
0
ARC
8
Black
10
81.75
20
-59.75
40
0.15
50
253.496
51
433.496
0
LINE
8
Black
10
78.3491
20
-58.0839
11
78.1491
21
-56.2339
0
LINE
8
Black
10
78.0509
20
-58.1161
11
77.8509
21
-56.2661
0
ARC
8
Black
10
78
20
-56.25
40
0.15
50
366.17
51
546.17
0
ARC
8
Black
10
78.2
20
-58.1
40
0.15
50
186.17
51
366.17
0
LINE
8
Black
10
81.1425
20
-59.4161
11
78.2675
21
-57.9661
0
LINE
8
Black
10
81.0075
20
-59.6839
11
78.1325
21
-58.2339
0
ARC
8
Black
10
78.2
20
-58.1
40
0.15
50
423.236
51
603.236
0
ARC
8
Black
10
81.075
20
-59.55
40
0.15
50
243.236
51
423.236
0
LINE
8
Black
10
78.1494
20
-56.2631
11
78.2444
21
-55.1831
0
LINE
8
Black
10
77.8506
20
-56.2369
11
77.9456
21
-55.1569
0
ARC
8
Black
10
78.095
20
-55.17
40
0.15
50
354.973
51
534.973
0
ARC
8
Black
10
78
20
-56.25
40
0.15
50
174.973
51
354.973
0
LINE
8
Black
10
78.245
20
-55.17
11
78.245
21
-53.4
0
LINE
8
Black
10
77.945
20
-55.17
11
77.945
21
-53.4
0
ARC
8
Black
10
78.095
20
-53.4
40
0.15
50
360
51
540
0
ARC
8
Black
10
78.095
20
-55.17
40
0.15
50
180
51
360
0
LINE
8
Black
10
82.9
20
-60.75
11
82.9
21
-60.525
0
LINE
8
Black
10
82.6
20
-60.75
11
82.6
21
-60.525
0
ARC
8
Black
10
82.75
20
-60.525
40
0.15
50
360
51
540
0
ARC
8
Black
10
82.75
20
-60.75
40
0.15
50
180
51
360
0
LINE
8
Black
10
66.9
20
-60.75
11
66.9
21
-60.525
0
LINE
8
Black
10
66.6
20
-60.75
11
66.6
21
-60.525
0
ARC
8
Black
10
66.75
20
-60.525
40
0.15
50
360
51
540
0
ARC
8
Black
10
66.75
20
-60.75
40
0.15
50
180
51
360
0
LINE
8
Black
10
62.245
20
-55.17
11
62.245
21
-53.4
0
LINE
8
Black
10
61.945
20
-55.17
11
61.945
21
-53.4
0
ARC
8
Black
10
62.095
20
-53.4
40
0.15
50
360
51
540
0
ARC
8
Black
10
62.095
20
-55.17
40
0.15
50
180
51
360
0
LINE
8
Black
10
62.1494
20
-56.2631
11
62.2444
21
-55.1831
0
LINE
8
Black
10
61.8506
20
-56.2369
11
61.9456
21
-55.1569
0
ARC
8
Black
10
62.095
20
-55.17
40
0.15
50
354.973
51
534.973
0
ARC
8
Black
10
62
20
-56.25
40
0.15
50
174.973
51
354.973
0
LINE
8
Black
10
65.1425
20
-59.4161
11
62.2675
21
-57.9661
0
LINE
8
Black
10
65.0075
20
-59.6839
11
62.1325
21
-58.2339
0
ARC
8
Black
10
62.2
20
-58.1
40
0.15
50
423.236
51
603.236
0
ARC
8
Black
10
65.075
20
-59.55
40
0.15
50
243.236
51
423.236
0
LINE
8
Black
10
62.3491
20
-58.0839
11
62.1491
21
-56.2339
0
LINE
8
Black
10
62.0509
20
-58.1161
11
61.8509
21
-56.2661
0
ARC
8
Black
10
62
20
-56.25
40
0.15
50
366.17
51
546.17
0
ARC
8
Black
10
62.2
20
-58.1
40
0.15
50
186.17
51
366.17
0
LINE
8
Black
10
65.7926
20
-59.6062
11
65.1176
21
-59.4062
0
LINE
8
Black
10
65.7074
20
-59.8938
11
65.0324
21
-59.6938
0
ARC
8
Black
10
65.075
20
-59.55
40
0.15
50
433.496
51
613.496
0
ARC
8
Black
10
65.75
20
-59.75
40
0.15
50
253.496
51
433.496
0
LINE
8
Black
10
65.8526
20
-59.5577
11
65.7026
21
-59.6077
0
LINE
8
Black
10
65.9474
20
-59.8423
11
65.7974
21
-59.8923
0
ARC
8
Black
10
65.75
20
-59.75
40
0.15
50
468.435
51
648.435
0
ARC
8
Black
10
65.9
20
-59.7
40
0.15
50
288.435
51
468.435
0
LINE
8
Black
10
66.8545
20
-60.4174
11
66.0045
21
-59.5924
0
LINE
8
Black
10
66.6455
20
-60.6326
11
65.7955
21
-59.8076
0
ARC
8
Black
10
65.9
20
-59.7
40
0.15
50
405.855
51
585.855
0
ARC
8
Black
10
66.75
20
-60.525
40
0.15
50
225.855
51
405.855
0
LINE
8
Black
10
65.1329
20
-64.1342
11
65.5329
21
-64.3342
0
LINE
8
Black
10
65.2671
20
-63.8658
11
65.6671
21
-64.0658
0
ARC
8
Black
10
65.6
20
-64.2
40
0.15
50
243.435
51
423.435
0
ARC
8
Black
10
65.2
20
-64
40
0.15
50
63.4349
51
243.435
0
LINE
8
Black
10
65.4658
20
-64.2671
11
65.8658
21
-65.0671
0
LINE
8
Black
10
65.7342
20
-64.1329
11
66.1342
21
-64.9329
0
ARC
8
Black
10
66
20
-65
40
0.15
50
206.565
51
386.565
0
ARC
8
Black
10
65.6
20
-64.2
40
0.15
50
26.5651
51
206.565
0
LINE
8
Black
10
64.8
20
-64.15
11
65.2
21
-64.15
0
LINE
8
Black
10
64.8
20
-63.85
11
65.2
21
-63.85
0
ARC
8
Black
10
65.2
20
-64
40
0.15
50
270
51
450
0
ARC
8
Black
10
64.8
20
-64
40
0.15
50
90
51
270
0
LINE
8
Black
10
66.6439
20
-60.6439
11
66.5489
21
-60.7389
0
LINE
8
Black
10
66.8561
20
-60.8561
11
66.7611
21
-60.9511
0
ARC
8
Black
10
66.655
20
-60.845
40
0.15
50
495
51
675
0
ARC
8
Black
10
66.75
20
-60.75
40
0.15
50
315
51
495
0
LINE
8
Black
10
62.8
20
-88.15
11
63.2
21
-88.15
0
LINE
8
Black
10
62.8
20
-87.85
11
63.2
21
-87.85
0
ARC
8
Black
10
63.2
20
-88
40
0.15
50
270
51
450
0
ARC
8
Black
10
62.8
20
-88
40
0.15
50
90
51
270
0
LINE
8
Black
10
64.598
20
-84.8448
11
68.893
21
-85.0448
0
LINE
8
Black
10
64.612
20
-84.5452
11
68.907
21
-84.7452
0
ARC
8
Black
10
68.9
20
-84.895
40
0.15
50
267.334
51
447.334
0
ARC
8
Black
10
64.605
20
-84.695
40
0.15
50
87.3339
51
267.334
0
LINE
8
Black
10
64.5061
20
-85.1061
11
64.7111
21
-84.9011
0
LINE
8
Black
10
64.2939
20
-84.8939
11
64.4989
21
-84.6889
0
ARC
8
Black
10
64.605
20
-84.795
40
0.15
50
315
51
495
0
ARC
8
Black
10
64.4
20
-85
40
0.15
50
135
51
315
0
LINE
8
Black
10
63.1456
20
-88.3806
11
62.9523
21
-89.4739
0
LINE
8
Black
10
63.441
20
-88.4329
11
63.2477
21
-89.5261
0
ARC
8
Black
10
63.1
20
-89.5
40
0.15
50
529.971
51
709.971
0
ARC
8
Black
10
63.2933
20
-88.4067
40
0.15
50
349.971
51
529.971
0
LINE
8
Black
10
63.0538
20
-88.0335
11
63.1471
21
-88.4403
0
LINE
8
Black
10
63.3462
20
-87.9664
11
63.4395
21
-88.3732
0
ARC
8
Black
10
63.2933
20
-88.4067
40
0.15
50
192.924
51
372.924
0
ARC
8
Black
10
63.2
20
-88
40
0.15
50
12.9244
51
192.924
0
LINE
8
Black
10
96.3
20
-88.15
11
96.7
21
-88.15
0
LINE
8
Black
10
96.3
20
-87.85
11
96.7
21
-87.85
0
ARC
8
Black
10
96.7
20
-88
40
0.15
50
270
51
450
0
ARC
8
Black
10
96.3
20
-88
40
0.15
50
90
51
270
0
LINE
8
Black
10
98.098
20
-84.8448
11
102.393
21
-85.0448
0
LINE
8
Black
10
98.112
20
-84.5452
11
102.407
21
-84.7452
0
ARC
8
Black
10
102.4
20
-84.895
40
0.15
50
267.334
51
447.334
0
ARC
8
Black
10
98.105
20
-84.695
40
0.15
50
87.3339
51
267.334
0
LINE
8
Black
10
98.0061
20
-85.1061
11
98.2111
21
-84.9011
0
LINE
8
Black
10
97.7939
20
-84.8939
11
97.9989
21
-84.6889
0
ARC
8
Black
10
98.105
20
-84.795
40
0.15
50
315
51
495
0
ARC
8
Black
10
97.9
20
-85
40
0.15
50
135
51
315
0
LINE
8
Black
10
96.6456
20
-88.3806
11
96.4523
21
-89.4739
0
LINE
8
Black
10
96.941
20
-88.4329
11
96.7477
21
-89.5261
0
ARC
8
Black
10
96.6
20
-89.5
40
0.15
50
529.971
51
709.971
0
ARC
8
Black
10
96.7933
20
-88.4067
40
0.15
50
349.971
51
529.971
0
LINE
8
Black
10
96.5538
20
-88.0335
11
96.6471
21
-88.4403
0
LINE
8
Black
10
96.8462
20
-87.9664
11
96.9395
21
-88.3732
0
ARC
8
Black
10
96.7933
20
-88.4067
40
0.15
50
192.924
51
372.924
0
ARC
8
Black
10
96.7
20
-88
40
0.15
50
12.9244
51
192.924
0
LINE
8
Black
10
96.3
20
-67.65
11
96.7
21
-67.65
0
LINE
8
Black
10
96.3
20
-67.35
11
96.7
21
-67.35
0
ARC
8
Black
10
96.7
20
-67.5
40
0.15
50
270
51
450
0
ARC
8
Black
10
96.3
20
-67.5
40
0.15
50
90
51
270
0
LINE
8
Black
10
98.098
20
-64.3448
11
102.393
21
-64.5448
0
LINE
8
Black
10
98.112
20
-64.0452
11
102.407
21
-64.2452
0
ARC
8
Black
10
102.4
20
-64.395
40
0.15
50
267.334
51
447.334
0
ARC
8
Black
10
98.105
20
-64.195
40
0.15
50
87.3339
51
267.334
0
LINE
8
Black
10
98.0061
20
-64.6061
11
98.2111
21
-64.4011
0
LINE
8
Black
10
97.7939
20
-64.3939
11
97.9989
21
-64.1889
0
ARC
8
Black
10
98.105
20
-64.295
40
0.15
50
315
51
495
0
ARC
8
Black
10
97.9
20
-64.5
40
0.15
50
135
51
315
0
LINE
8
Black
10
96.6456
20
-67.8806
11
96.4523
21
-68.9739
0
LINE
8
Black
10
96.941
20
-67.9329
11
96.7477
21
-69.0261
0
ARC
8
Black
10
96.6
20
-69
40
0.15
50
529.971
51
709.971
0
ARC
8
Black
10
96.7933
20
-67.9067
40
0.15
50
349.971
51
529.971
0
LINE
8
Black
10
96.5538
20
-67.5335
11
96.6471
21
-67.9403
0
LINE
8
Black
10
96.8462
20
-67.4664
11
96.9395
21
-67.8732
0
ARC
8
Black
10
96.7933
20
-67.9067
40
0.15
50
192.924
51
372.924
0
ARC
8
Black
10
96.7
20
-67.5
40
0.15
50
12.9244
51
192.924
0
LINE
8
Black
10
96.3
20
-47.15
11
96.7
21
-47.15
0
LINE
8
Black
10
96.3
20
-46.85
11
96.7
21
-46.85
0
ARC
8
Black
10
96.7
20
-47
40
0.15
50
270
51
450
0
ARC
8
Black
10
96.3
20
-47
40
0.15
50
90
51
270
0
LINE
8
Black
10
98.098
20
-43.8448
11
102.393
21
-44.0448
0
LINE
8
Black
10
98.112
20
-43.5452
11
102.407
21
-43.7452
0
ARC
8
Black
10
102.4
20
-43.895
40
0.15
50
267.334
51
447.334
0
ARC
8
Black
10
98.105
20
-43.695
40
0.15
50
87.3339
51
267.334
0
LINE
8
Black
10
98.0061
20
-44.1061
11
98.2111
21
-43.9011
0
LINE
8
Black
10
97.7939
20
-43.8939
11
97.9989
21
-43.6889
0
ARC
8
Black
10
98.105
20
-43.795
40
0.15
50
315
51
495
0
ARC
8
Black
10
97.9
20
-44
40
0.15
50
135
51
315
0
LINE
8
Black
10
96.6456
20
-47.3806
11
96.4523
21
-48.4739
0
LINE
8
Black
10
96.941
20
-47.4329
11
96.7477
21
-48.5261
0
ARC
8
Black
10
96.6
20
-48.5
40
0.15
50
529.971
51
709.971
0
ARC
8
Black
10
96.7933
20
-47.4067
40
0.15
50
349.971
51
529.971
0
LINE
8
Black
10
96.5538
20
-47.0335
11
96.6471
21
-47.4403
0
LINE
8
Black
10
96.8462
20
-46.9664
11
96.9395
21
-47.3732
0
ARC
8
Black
10
96.7933
20
-47.4067
40
0.15
50
192.924
51
372.924
0
ARC
8
Black
10
96.7
20
-47
40
0.15
50
12.9244
51
192.924
0
LINE
8
Black
10
75.7421
20
-62.3939
11
75.4939
21
-62.6421
0
LINE
8
Black
10
75.9542
20
-62.6061
11
75.7061
21
-62.8542
0
ARC
8
Black
10
75.6
20
-62.7482
40
0.15
50
495
51
675
0
ARC
8
Black
10
75.8482
20
-62.5
40
0.15
50
315
51
495
0
LINE
8
Black
10
75.8482
20
-62.65
11
78.25
21
-62.65
0
LINE
8
Black
10
75.8482
20
-62.35
11
78.25
21
-62.35
0
ARC
8
Black
10
78.25
20
-62.5
40
0.15
50
270
51
450
0
ARC
8
Black
10
75.8482
20
-62.5
40
0.15
50
90
51
270
0
LINE
8
Black
10
59.8482
20
-62.65
11
62.25
21
-62.65
0
LINE
8
Black
10
59.8482
20
-62.35
11
62.25
21
-62.35
0
ARC
8
Black
10
62.25
20
-62.5
40
0.15
50
270
51
450
0
ARC
8
Black
10
59.8482
20
-62.5
40
0.15
50
90
51
270
0
LINE
8
Black
10
59.7421
20
-62.3939
11
59.4939
21
-62.6421
0
LINE
8
Black
10
59.9542
20
-62.6061
11
59.7061
21
-62.8542
0
ARC
8
Black
10
59.6
20
-62.7482
40
0.15
50
495
51
675
0
ARC
8
Black
10
59.8482
20
-62.5
40
0.15
50
315
51
495
0
LINE
8
Black
10
57.8482
20
-86.65
11
60.25
21
-86.65
0
LINE
8
Black
10
57.8482
20
-86.35
11
60.25
21
-86.35
0
ARC
8
Black
10
60.25
20
-86.5
40
0.15
50
270
51
450
0
ARC
8
Black
10
57.8482
20
-86.5
40
0.15
50
90
51
270
0
LINE
8
Black
10
57.7421
20
-86.3939
11
57.4939
21
-86.6421
0
LINE
8
Black
10
57.9542
20
-86.6061
11
57.7061
21
-86.8542
0
ARC
8
Black
10
57.6
20
-86.7482
40
0.15
50
495
51
675
0
ARC
8
Black
10
57.8482
20
-86.5
40
0.15
50
315
51
495
0
LINE
8
Black
10
91.3482
20
-86.65
11
93.75
21
-86.65
0
LINE
8
Black
10
91.3482
20
-86.35
11
93.75
21
-86.35
0
ARC
8
Black
10
93.75
20
-86.5
40
0.15
50
270
51
450
0
ARC
8
Black
10
91.3482
20
-86.5
40
0.15
50
90
51
270
0
LINE
8
Black
10
91.2421
20
-86.3939
11
90.9939
21
-86.6421
0
LINE
8
Black
10
91.4542
20
-86.6061
11
91.2061
21
-86.8542
0
ARC
8
Black
10
91.1
20
-86.7482
40
0.15
50
495
51
675
0
ARC
8
Black
10
91.3482
20
-86.5
40
0.15
50
315
51
495
0
LINE
8
Black
10
91.3482
20
-66.15
11
93.75
21
-66.15
0
LINE
8
Black
10
91.3482
20
-65.85
11
93.75
21
-65.85
0
ARC
8
Black
10
93.75
20
-66
40
0.15
50
270
51
450
0
ARC
8
Black
10
91.3482
20
-66
40
0.15
50
90
51
270
0
LINE
8
Black
10
91.2421
20
-65.8939
11
90.9939
21
-66.1421
0
LINE
8
Black
10
91.4542
20
-66.1061
11
91.2061
21
-66.3542
0
ARC
8
Black
10
91.1
20
-66.2482
40
0.15
50
495
51
675
0
ARC
8
Black
10
91.3482
20
-66
40
0.15
50
315
51
495
0
LINE
8
Black
10
91.3482
20
-45.65
11
93.75
21
-45.65
0
LINE
8
Black
10
91.3482
20
-45.35
11
93.75
21
-45.35
0
ARC
8
Black
10
93.75
20
-45.5
40
0.15
50
270
51
450
0
ARC
8
Black
10
91.3482
20
-45.5
40
0.15
50
90
51
270
0
LINE
8
Black
10
91.2421
20
-45.3939
11
90.9939
21
-45.6421
0
LINE
8
Black
10
91.4542
20
-45.6061
11
91.2061
21
-45.8542
0
ARC
8
Black
10
91.1
20
-45.7482
40
0.15
50
495
51
675
0
ARC
8
Black
10
91.3482
20
-45.5
40
0.15
50
315
51
495
0
LINE
8
Black
10
83.1939
20
-67.2061
11
83.2939
21
-67.3061
0
LINE
8
Black
10
83.4061
20
-66.9939
11
83.5061
21
-67.0939
0
ARC
8
Black
10
83.4
20
-67.2
40
0.15
50
225
51
405
0
ARC
8
Black
10
83.3
20
-67.1
40
0.15
50
45
51
225
0
LINE
8
Black
10
83.9031
20
-66.609
11
83.9405
21
-66.5736
0
LINE
8
Black
10
83.6969
20
-66.391
11
83.7344
21
-66.3556
0
ARC
8
Black
10
83.8374
20
-66.4646
40
0.15
50
313.409
51
493.409
0
ARC
8
Black
10
83.8
20
-66.5
40
0.15
50
133.409
51
313.409
0
LINE
8
Black
10
83.6286
20
-67.0772
11
83.9286
21
-66.5772
0
LINE
8
Black
10
83.3714
20
-66.9228
11
83.6714
21
-66.4228
0
ARC
8
Black
10
83.8
20
-66.5
40
0.15
50
329.036
51
509.036
0
ARC
8
Black
10
83.5
20
-67
40
0.15
50
149.036
51
329.036
0
LINE
8
Black
10
83.5342
20
-67.2671
11
83.6342
21
-67.0671
0
LINE
8
Black
10
83.2658
20
-67.1329
11
83.3658
21
-66.9329
0
ARC
8
Black
10
83.5
20
-67
40
0.15
50
333.435
51
513.435
0
ARC
8
Black
10
83.4
20
-67.2
40
0.15
50
153.435
51
333.435
0
LINE
8
Black
10
77.5
20
-63.65
11
78.25
21
-63.65
0
LINE
8
Black
10
77.5
20
-63.35
11
78.25
21
-63.35
0
ARC
8
Black
10
78.25
20
-63.5
40
0.15
50
270
51
450
0
ARC
8
Black
10
77.5
20
-63.5
40
0.15
50
90
51
270
0
LINE
8
Black
10
77.0529
20
-63.5706
11
76.6529
21
-65.5706
0
LINE
8
Black
10
77.3471
20
-63.6294
11
76.9471
21
-65.6294
0
ARC
8
Black
10
76.8
20
-65.6
40
0.15
50
528.69
51
708.69
0
ARC
8
Black
10
77.2
20
-63.6
40
0.15
50
348.69
51
528.69
0
LINE
8
Black
10
77.4526
20
-63.3577
11
77.1526
21
-63.4577
0
LINE
8
Black
10
77.5474
20
-63.6423
11
77.2474
21
-63.7423
0
ARC
8
Black
10
77.2
20
-63.6
40
0.15
50
468.435
51
648.435
0
ARC
8
Black
10
77.5
20
-63.5
40
0.15
50
288.435
51
468.435
0
LINE
8
Black
10
84.3493
20
-65.8149
11
84.6493
21
-62.8149
0
LINE
8
Black
10
84.0507
20
-65.7851
11
84.3507
21
-62.7851
0
ARC
8
Black
10
84.5
20
-62.8
40
0.15
50
354.289
51
534.289
0
ARC
8
Black
10
84.2
20
-65.8
40
0.15
50
174.289
51
354.289
0
LINE
8
Black
10
84.65
20
-62.8
11
84.65
21
-59.5
0
LINE
8
Black
10
84.35
20
-62.8
11
84.35
21
-59.5
0
ARC
8
Black
10
84.5
20
-59.5
40
0.15
50
360
51
540
0
ARC
8
Black
10
84.5
20
-62.8
40
0.15
50
180
51
360
0
LINE
8
Black
10
84.5976
20
-59.3861
11
82.8476
21
-57.8861
0
LINE
8
Black
10
84.4024
20
-59.6139
11
82.6524
21
-58.1139
0
ARC
8
Black
10
82.75
20
-58
40
0.15
50
409.399
51
589.399
0
ARC
8
Black
10
84.5
20
-59.5
40
0.15
50
229.399
51
409.399
0
LINE
8
Black
10
82.7985
20
-57.858
11
80.7485
21
-57.158
0
LINE
8
Black
10
82.7015
20
-58.142
11
80.6515
21
-57.442
0
ARC
8
Black
10
80.7
20
-57.3
40
0.15
50
431.147
51
611.147
0
ARC
8
Black
10
82.75
20
-58
40
0.15
50
251.147
51
431.147
0
LINE
8
Black
10
80.85
20
-57.2962
11
80.785
21
-54.7562
0
LINE
8
Black
10
80.55
20
-57.3038
11
80.485
21
-54.7638
0
ARC
8
Black
10
80.635
20
-54.76
40
0.15
50
361.466
51
541.466
0
ARC
8
Black
10
80.7
20
-57.3
40
0.15
50
181.466
51
361.466
0
LINE
8
Black
10
80.785
20
-54.76
11
80.785
21
-53.4
0
LINE
8
Black
10
80.485
20
-54.76
11
80.485
21
-53.4
0
ARC
8
Black
10
80.635
20
-53.4
40
0.15
50
360
51
540
0
ARC
8
Black
10
80.635
20
-54.76
40
0.15
50
180
51
360
0
LINE
8
Black
10
83.9302
20
-66.5744
11
84.3302
21
-65.8744
0
LINE
8
Black
10
83.6698
20
-66.4256
11
84.0698
21
-65.7256
0
ARC
8
Black
10
84.2
20
-65.8
40
0.15
50
330.255
51
510.255
0
ARC
8
Black
10
83.8
20
-66.5
40
0.15
50
150.255
51
330.255
0
LINE
8
Black
10
67.9302
20
-66.5744
11
68.3302
21
-65.8744
0
LINE
8
Black
10
67.6698
20
-66.4256
11
68.0698
21
-65.7256
0
ARC
8
Black
10
68.2
20
-65.8
40
0.15
50
330.255
51
510.255
0
ARC
8
Black
10
67.8
20
-66.5
40
0.15
50
150.255
51
330.255
0
LINE
8
Black
10
64.785
20
-54.76
11
64.785
21
-53.4
0
LINE
8
Black
10
64.485
20
-54.76
11
64.485
21
-53.4
0
ARC
8
Black
10
64.635
20
-53.4
40
0.15
50
360
51
540
0
ARC
8
Black
10
64.635
20
-54.76
40
0.15
50
180
51
360
0
LINE
8
Black
10
64.85
20
-57.2962
11
64.785
21
-54.7562
0
LINE
8
Black
10
64.55
20
-57.3038
11
64.485
21
-54.7638
0
ARC
8
Black
10
64.635
20
-54.76
40
0.15
50
361.466
51
541.466
0
ARC
8
Black
10
64.7
20
-57.3
40
0.15
50
181.466
51
361.466
0
LINE
8
Black
10
66.7985
20
-57.858
11
64.7485
21
-57.158
0
LINE
8
Black
10
66.7015
20
-58.142
11
64.6515
21
-57.442
0
ARC
8
Black
10
64.7
20
-57.3
40
0.15
50
431.147
51
611.147
0
ARC
8
Black
10
66.75
20
-58
40
0.15
50
251.147
51
431.147
0
LINE
8
Black
10
68.5976
20
-59.3861
11
66.8476
21
-57.8861
0
LINE
8
Black
10
68.4024
20
-59.6139
11
66.6524
21
-58.1139
0
ARC
8
Black
10
66.75
20
-58
40
0.15
50
409.399
51
589.399
0
ARC
8
Black
10
68.5
20
-59.5
40
0.15
50
229.399
51
409.399
0
LINE
8
Black
10
68.65
20
-62.8
11
68.65
21
-59.5
0
LINE
8
Black
10
68.35
20
-62.8
11
68.35
21
-59.5
0
ARC
8
Black
10
68.5
20
-59.5
40
0.15
50
360
51
540
0
ARC
8
Black
10
68.5
20
-62.8
40
0.15
50
180
51
360
0
LINE
8
Black
10
68.3493
20
-65.8149
11
68.6493
21
-62.8149
0
LINE
8
Black
10
68.0507
20
-65.7851
11
68.3507
21
-62.7851
0
ARC
8
Black
10
68.5
20
-62.8
40
0.15
50
354.289
51
534.289
0
ARC
8
Black
10
68.2
20
-65.8
40
0.15
50
174.289
51
354.289
0
LINE
8
Black
10
61.4526
20
-63.3577
11
61.1526
21
-63.4577
0
LINE
8
Black
10
61.5474
20
-63.6423
11
61.2474
21
-63.7423
0
ARC
8
Black
10
61.2
20
-63.6
40
0.15
50
468.435
51
648.435
0
ARC
8
Black
10
61.5
20
-63.5
40
0.15
50
288.435
51
468.435
0
LINE
8
Black
10
61.0529
20
-63.5706
11
60.6529
21
-65.5706
0
LINE
8
Black
10
61.3471
20
-63.6294
11
60.9471
21
-65.6294
0
ARC
8
Black
10
60.8
20
-65.6
40
0.15
50
528.69
51
708.69
0
ARC
8
Black
10
61.2
20
-63.6
40
0.15
50
348.69
51
528.69
0
LINE
8
Black
10
61.5
20
-63.65
11
62.25
21
-63.65
0
LINE
8
Black
10
61.5
20
-63.35
11
62.25
21
-63.35
0
ARC
8
Black
10
62.25
20
-63.5
40
0.15
50
270
51
450
0
ARC
8
Black
10
61.5
20
-63.5
40
0.15
50
90
51
270
0
LINE
8
Black
10
67.5342
20
-67.2671
11
67.6342
21
-67.0671
0
LINE
8
Black
10
67.2658
20
-67.1329
11
67.3658
21
-66.9329
0
ARC
8
Black
10
67.5
20
-67
40
0.15
50
333.435
51
513.435
0
ARC
8
Black
10
67.4
20
-67.2
40
0.15
50
153.435
51
333.435
0
LINE
8
Black
10
67.6286
20
-67.0772
11
67.9286
21
-66.5772
0
LINE
8
Black
10
67.3714
20
-66.9228
11
67.6714
21
-66.4228
0
ARC
8
Black
10
67.8
20
-66.5
40
0.15
50
329.036
51
509.036
0
ARC
8
Black
10
67.5
20
-67
40
0.15
50
149.036
51
329.036
0
LINE
8
Black
10
67.9031
20
-66.609
11
67.9405
21
-66.5736
0
LINE
8
Black
10
67.6969
20
-66.391
11
67.7344
21
-66.3556
0
ARC
8
Black
10
67.8374
20
-66.4646
40
0.15
50
313.409
51
493.409
0
ARC
8
Black
10
67.8
20
-66.5
40
0.15
50
133.409
51
313.409
0
LINE
8
Black
10
67.1939
20
-67.2061
11
67.2939
21
-67.3061
0
LINE
8
Black
10
67.4061
20
-66.9939
11
67.5061
21
-67.0939
0
ARC
8
Black
10
67.4
20
-67.2
40
0.15
50
225
51
405
0
ARC
8
Black
10
67.3
20
-67.1
40
0.15
50
45
51
225
0
LINE
8
Black
10
59.5
20
-87.65
11
60.25
21
-87.65
0
LINE
8
Black
10
59.5
20
-87.35
11
60.25
21
-87.35
0
ARC
8
Black
10
60.25
20
-87.5
40
0.15
50
270
51
450
0
ARC
8
Black
10
59.5
20
-87.5
40
0.15
50
90
51
270
0
LINE
8
Black
10
65.435
20
-87.485
11
68.9
21
-87.485
0
LINE
8
Black
10
65.435
20
-87.185
11
68.9
21
-87.185
0
ARC
8
Black
10
68.9
20
-87.335
40
0.15
50
270
51
450
0
ARC
8
Black
10
65.435
20
-87.335
40
0.15
50
90
51
270
0
LINE
8
Black
10
65.2939
20
-87.4061
11
65.3289
21
-87.4411
0
LINE
8
Black
10
65.5061
20
-87.1939
11
65.5411
21
-87.2289
0
ARC
8
Black
10
65.435
20
-87.335
40
0.15
50
225
51
405
0
ARC
8
Black
10
65.4
20
-87.3
40
0.15
50
45
51
225
0
LINE
8
Black
10
59.0529
20
-87.5706
11
58.6529
21
-89.5706
0
LINE
8
Black
10
59.3471
20
-87.6294
11
58.9471
21
-89.6294
0
ARC
8
Black
10
58.8
20
-89.6
40
0.15
50
528.69
51
708.69
0
ARC
8
Black
10
59.2
20
-87.6
40
0.15
50
348.69
51
528.69
0
LINE
8
Black
10
59.4526
20
-87.3577
11
59.1526
21
-87.4577
0
LINE
8
Black
10
59.5474
20
-87.6423
11
59.2474
21
-87.7423
0
ARC
8
Black
10
59.2
20
-87.6
40
0.15
50
468.435
51
648.435
0
ARC
8
Black
10
59.5
20
-87.5
40
0.15
50
288.435
51
468.435
0
LINE
8
Black
10
93
20
-87.65
11
93.75
21
-87.65
0
LINE
8
Black
10
93
20
-87.35
11
93.75
21
-87.35
0
ARC
8
Black
10
93.75
20
-87.5
40
0.15
50
270
51
450
0
ARC
8
Black
10
93
20
-87.5
40
0.15
50
90
51
270
0
LINE
8
Black
10
98.935
20
-87.485
11
102.4
21
-87.485
0
LINE
8
Black
10
98.935
20
-87.185
11
102.4
21
-87.185
0
ARC
8
Black
10
102.4
20
-87.335
40
0.15
50
270
51
450
0
ARC
8
Black
10
98.935
20
-87.335
40
0.15
50
90
51
270
0
LINE
8
Black
10
98.7939
20
-87.4061
11
98.8289
21
-87.4411
0
LINE
8
Black
10
99.0061
20
-87.1939
11
99.0411
21
-87.2289
0
ARC
8
Black
10
98.935
20
-87.335
40
0.15
50
225
51
405
0
ARC
8
Black
10
98.9
20
-87.3
40
0.15
50
45
51
225
0
LINE
8
Black
10
92.5529
20
-87.5706
11
92.1529
21
-89.5706
0
LINE
8
Black
10
92.8471
20
-87.6294
11
92.4471
21
-89.6294
0
ARC
8
Black
10
92.3
20
-89.6
40
0.15
50
528.69
51
708.69
0
ARC
8
Black
10
92.7
20
-87.6
40
0.15
50
348.69
51
528.69
0
LINE
8
Black
10
92.9526
20
-87.3577
11
92.6526
21
-87.4577
0
LINE
8
Black
10
93.0474
20
-87.6423
11
92.7474
21
-87.7423
0
ARC
8
Black
10
92.7
20
-87.6
40
0.15
50
468.435
51
648.435
0
ARC
8
Black
10
93
20
-87.5
40
0.15
50
288.435
51
468.435
0
LINE
8
Black
10
93
20
-67.15
11
93.75
21
-67.15
0
LINE
8
Black
10
93
20
-66.85
11
93.75
21
-66.85
0
ARC
8
Black
10
93.75
20
-67
40
0.15
50
270
51
450
0
ARC
8
Black
10
93
20
-67
40
0.15
50
90
51
270
0
LINE
8
Black
10
98.935
20
-66.985
11
102.4
21
-66.985
0
LINE
8
Black
10
98.935
20
-66.685
11
102.4
21
-66.685
0
ARC
8
Black
10
102.4
20
-66.835
40
0.15
50
270
51
450
0
ARC
8
Black
10
98.935
20
-66.835
40
0.15
50
90
51
270
0
LINE
8
Black
10
98.7939
20
-66.9061
11
98.8289
21
-66.9411
0
LINE
8
Black
10
99.0061
20
-66.6939
11
99.0411
21
-66.7289
0
ARC
8
Black
10
98.935
20
-66.835
40
0.15
50
225
51
405
0
ARC
8
Black
10
98.9
20
-66.8
40
0.15
50
45
51
225
0
LINE
8
Black
10
92.5529
20
-67.0706
11
92.1529
21
-69.0706
0
LINE
8
Black
10
92.8471
20
-67.1294
11
92.4471
21
-69.1294
0
ARC
8
Black
10
92.3
20
-69.1
40
0.15
50
528.69
51
708.69
0
ARC
8
Black
10
92.7
20
-67.1
40
0.15
50
348.69
51
528.69
0
LINE
8
Black
10
92.9526
20
-66.8577
11
92.6526
21
-66.9577
0
LINE
8
Black
10
93.0474
20
-67.1423
11
92.7474
21
-67.2423
0
ARC
8
Black
10
92.7
20
-67.1
40
0.15
50
468.435
51
648.435
0
ARC
8
Black
10
93
20
-67
40
0.15
50
288.435
51
468.435
0
LINE
8
Black
10
93
20
-46.65
11
93.75
21
-46.65
0
LINE
8
Black
10
93
20
-46.35
11
93.75
21
-46.35
0
ARC
8
Black
10
93.75
20
-46.5
40
0.15
50
270
51
450
0
ARC
8
Black
10
93
20
-46.5
40
0.15
50
90
51
270
0
LINE
8
Black
10
98.935
20
-46.485
11
102.4
21
-46.485
0
LINE
8
Black
10
98.935
20
-46.185
11
102.4
21
-46.185
0
ARC
8
Black
10
102.4
20
-46.335
40
0.15
50
270
51
450
0
ARC
8
Black
10
98.935
20
-46.335
40
0.15
50
90
51
270
0
LINE
8
Black
10
98.7939
20
-46.4061
11
98.8289
21
-46.4411
0
LINE
8
Black
10
99.0061
20
-46.1939
11
99.0411
21
-46.2289
0
ARC
8
Black
10
98.935
20
-46.335
40
0.15
50
225
51
405
0
ARC
8
Black
10
98.9
20
-46.3
40
0.15
50
45
51
225
0
LINE
8
Black
10
92.5529
20
-46.5706
11
92.1529
21
-48.5706
0
LINE
8
Black
10
92.8471
20
-46.6294
11
92.4471
21
-48.6294
0
ARC
8
Black
10
92.3
20
-48.6
40
0.15
50
528.69
51
708.69
0
ARC
8
Black
10
92.7
20
-46.6
40
0.15
50
348.69
51
528.69
0
LINE
8
Black
10
92.9526
20
-46.3577
11
92.6526
21
-46.4577
0
LINE
8
Black
10
93.0474
20
-46.6423
11
92.7474
21
-46.7423
0
ARC
8
Black
10
92.7
20
-46.6
40
0.15
50
468.435
51
648.435
0
ARC
8
Black
10
93
20
-46.5
40
0.15
50
288.435
51
468.435
0
LINE
8
Black
10
79.9152
20
-67.904
11
79.4152
21
-67.304
0
LINE
8
Black
10
79.6848
20
-68.096
11
79.1848
21
-67.496
0
ARC
8
Black
10
79.3
20
-67.4
40
0.15
50
399.806
51
579.806
0
ARC
8
Black
10
79.8
20
-68
40
0.15
50
219.806
51
399.806
0
LINE
8
Black
10
79.175
20
-66.825
11
79.175
21
-64.275
0
LINE
8
Black
10
78.875
20
-66.825
11
78.875
21
-64.275
0
ARC
8
Black
10
79.025
20
-64.275
40
0.15
50
360
51
540
0
ARC
8
Black
10
79.025
20
-66.825
40
0.15
50
180
51
360
0
LINE
8
Black
10
78.8897
20
-66.8897
11
79.1647
21
-67.4647
0
LINE
8
Black
10
79.1603
20
-66.7603
11
79.4353
21
-67.3353
0
ARC
8
Black
10
79.3
20
-67.4
40
0.15
50
205.56
51
385.56
0
ARC
8
Black
10
79.025
20
-66.825
40
0.15
50
25.56
51
205.56
0
LINE
8
Black
10
82.0136
20
-68.0506
11
79.8136
21
-67.8506
0
LINE
8
Black
10
81.9864
20
-68.3494
11
79.7864
21
-68.1494
0
ARC
8
Black
10
79.8
20
-68
40
0.15
50
444.806
51
624.806
0
ARC
8
Black
10
82
20
-68.2
40
0.15
50
264.806
51
444.806
0
LINE
8
Black
10
82.1074
20
-68.0777
11
82.0474
21
-68.0577
0
LINE
8
Black
10
82.0126
20
-68.3623
11
81.9526
21
-68.3423
0
ARC
8
Black
10
82
20
-68.2
40
0.15
50
431.565
51
611.565
0
ARC
8
Black
10
82.06
20
-68.22
40
0.15
50
251.565
51
431.565
0
LINE
8
Black
10
83.16
20
-57.37
11
85.16
21
-58.87
0
LINE
8
Black
10
83.34
20
-57.13
11
85.34
21
-58.63
0
ARC
8
Black
10
85.25
20
-58.75
40
0.15
50
233.13
51
413.13
0
ARC
8
Black
10
83.25
20
-57.25
40
0.15
50
53.1301
51
233.13
0
LINE
8
Black
10
81.8272
20
-56.6311
11
83.1772
21
-57.3811
0
LINE
8
Black
10
81.9728
20
-56.3689
11
83.3228
21
-57.1189
0
ARC
8
Black
10
83.25
20
-57.25
40
0.15
50
240.945
51
420.945
0
ARC
8
Black
10
81.9
20
-56.5
40
0.15
50
60.9454
51
240.945
0
LINE
8
Black
10
81.755
20
-54.9045
11
81.75
21
-56.4995
0
LINE
8
Black
10
82.055
20
-54.9055
11
82.05
21
-56.5005
0
ARC
8
Black
10
81.9
20
-56.5
40
0.15
50
539.82
51
719.82
0
ARC
8
Black
10
81.905
20
-54.905
40
0.15
50
359.82
51
539.82
0
LINE
8
Black
10
85.1
20
-58.7495
11
85.075
21
-66.5495
0
LINE
8
Black
10
85.4
20
-58.7505
11
85.375
21
-66.5505
0
ARC
8
Black
10
85.225
20
-66.55
40
0.15
50
539.816
51
719.816
0
ARC
8
Black
10
85.25
20
-58.75
40
0.15
50
359.816
51
539.816
0
LINE
8
Black
10
85.1036
20
-66.4619
11
83.9786
21
-68.0119
0
LINE
8
Black
10
85.3464
20
-66.6381
11
84.2214
21
-68.1881
0
ARC
8
Black
10
84.1
20
-68.1
40
0.15
50
504.028
51
684.028
0
ARC
8
Black
10
85.225
20
-66.55
40
0.15
50
324.028
51
504.028
0
LINE
8
Black
10
84.0929
20
-67.9502
11
81.9929
21
-68.0502
0
LINE
8
Black
10
84.1071
20
-68.2498
11
82.0071
21
-68.3498
0
ARC
8
Black
10
82
20
-68.2
40
0.15
50
452.726
51
632.726
0
ARC
8
Black
10
84.1
20
-68.1
40
0.15
50
272.726
51
452.726
0
LINE
8
Black
10
82.055
20
-54.905
11
82.055
21
-53.4
0
LINE
8
Black
10
81.755
20
-54.905
11
81.755
21
-53.4
0
ARC
8
Black
10
81.905
20
-53.4
40
0.15
50
360
51
540
0
ARC
8
Black
10
81.905
20
-54.905
40
0.15
50
180
51
360
0
LINE
8
Black
10
66.055
20
-54.905
11
66.055
21
-53.4
0
LINE
8
Black
10
65.755
20
-54.905
11
65.755
21
-53.4
0
ARC
8
Black
10
65.905
20
-53.4
40
0.15
50
360
51
540
0
ARC
8
Black
10
65.905
20
-54.905
40
0.15
50
180
51
360
0
LINE
8
Black
10
68.0929
20
-67.9502
11
65.9929
21
-68.0502
0
LINE
8
Black
10
68.1071
20
-68.2498
11
66.0071
21
-68.3498
0
ARC
8
Black
10
66
20
-68.2
40
0.15
50
452.726
51
632.726
0
ARC
8
Black
10
68.1
20
-68.1
40
0.15
50
272.726
51
452.726
0
LINE
8
Black
10
69.1036
20
-66.4619
11
67.9786
21
-68.0119
0
LINE
8
Black
10
69.3464
20
-66.6381
11
68.2214
21
-68.1881
0
ARC
8
Black
10
68.1
20
-68.1
40
0.15
50
504.028
51
684.028
0
ARC
8
Black
10
69.225
20
-66.55
40
0.15
50
324.028
51
504.028
0
LINE
8
Black
10
69.1
20
-58.7495
11
69.075
21
-66.5495
0
LINE
8
Black
10
69.4
20
-58.7505
11
69.375
21
-66.5505
0
ARC
8
Black
10
69.225
20
-66.55
40
0.15
50
539.816
51
719.816
0
ARC
8
Black
10
69.25
20
-58.75
40
0.15
50
359.816
51
539.816
0
LINE
8
Black
10
65.755
20
-54.9045
11
65.75
21
-56.4995
0
LINE
8
Black
10
66.055
20
-54.9055
11
66.05
21
-56.5005
0
ARC
8
Black
10
65.9
20
-56.5
40
0.15
50
539.82
51
719.82
0
ARC
8
Black
10
65.905
20
-54.905
40
0.15
50
359.82
51
539.82
0
LINE
8
Black
10
65.8272
20
-56.6311
11
67.1772
21
-57.3811
0
LINE
8
Black
10
65.9728
20
-56.3689
11
67.3228
21
-57.1189
0
ARC
8
Black
10
67.25
20
-57.25
40
0.15
50
240.945
51
420.945
0
ARC
8
Black
10
65.9
20
-56.5
40
0.15
50
60.9454
51
240.945
0
LINE
8
Black
10
67.16
20
-57.37
11
69.16
21
-58.87
0
LINE
8
Black
10
67.34
20
-57.13
11
69.34
21
-58.63
0
ARC
8
Black
10
69.25
20
-58.75
40
0.15
50
233.13
51
413.13
0
ARC
8
Black
10
67.25
20
-57.25
40
0.15
50
53.1301
51
233.13
0
LINE
8
Black
10
66.1074
20
-68.0777
11
66.0474
21
-68.0577
0
LINE
8
Black
10
66.0126
20
-68.3623
11
65.9526
21
-68.3423
0
ARC
8
Black
10
66
20
-68.2
40
0.15
50
431.565
51
611.565
0
ARC
8
Black
10
66.06
20
-68.22
40
0.15
50
251.565
51
431.565
0
LINE
8
Black
10
66.0136
20
-68.0506
11
63.8136
21
-67.8506
0
LINE
8
Black
10
65.9864
20
-68.3494
11
63.7864
21
-68.1494
0
ARC
8
Black
10
63.8
20
-68
40
0.15
50
444.806
51
624.806
0
ARC
8
Black
10
66
20
-68.2
40
0.15
50
264.806
51
444.806
0
LINE
8
Black
10
62.8897
20
-66.8897
11
63.1647
21
-67.4647
0
LINE
8
Black
10
63.1603
20
-66.7603
11
63.4353
21
-67.3353
0
ARC
8
Black
10
63.3
20
-67.4
40
0.15
50
205.56
51
385.56
0
ARC
8
Black
10
63.025
20
-66.825
40
0.15
50
25.56
51
205.56
0
LINE
8
Black
10
63.175
20
-66.825
11
63.175
21
-64.275
0
LINE
8
Black
10
62.875
20
-66.825
11
62.875
21
-64.275
0
ARC
8
Black
10
63.025
20
-64.275
40
0.15
50
360
51
540
0
ARC
8
Black
10
63.025
20
-66.825
40
0.15
50
180
51
360
0
LINE
8
Black
10
63.9152
20
-67.904
11
63.4152
21
-67.304
0
LINE
8
Black
10
63.6848
20
-68.096
11
63.1848
21
-67.496
0
ARC
8
Black
10
63.3
20
-67.4
40
0.15
50
399.806
51
579.806
0
ARC
8
Black
10
63.8
20
-68
40
0.15
50
219.806
51
399.806
0
LINE
8
Black
10
61.175
20
-90.825
11
61.175
21
-88.275
0
LINE
8
Black
10
60.875
20
-90.825
11
60.875
21
-88.275
0
ARC
8
Black
10
61.025
20
-88.275
40
0.15
50
360
51
540
0
ARC
8
Black
10
61.025
20
-90.825
40
0.15
50
180
51
360
0
LINE
8
Black
10
66.0997
20
-88.75
11
68.8997
21
-88.755
0
LINE
8
Black
10
66.1003
20
-88.45
11
68.9003
21
-88.455
0
ARC
8
Black
10
68.9
20
-88.605
40
0.15
50
269.898
51
449.898
0
ARC
8
Black
10
66.1
20
-88.6
40
0.15
50
89.8977
51
269.898
0
LINE
8
Black
10
65.8
20
-88.75
11
66.1
21
-88.75
0
LINE
8
Black
10
65.8
20
-88.45
11
66.1
21
-88.45
0
ARC
8
Black
10
66.1
20
-88.6
40
0.15
50
270
51
450
0
ARC
8
Black
10
65.8
20
-88.6
40
0.15
50
90
51
270
0
LINE
8
Black
10
64.8314
20
-90.6723
11
65.9314
21
-88.6723
0
LINE
8
Black
10
64.5686
20
-90.5277
11
65.6686
21
-88.5277
0
ARC
8
Black
10
65.8
20
-88.6
40
0.15
50
331.189
51
511.189
0
ARC
8
Black
10
64.7
20
-90.6
40
0.15
50
151.189
51
331.189
0
LINE
8
Black
10
64.2636
20
-91.2602
11
64.8072
21
-90.7049
0
LINE
8
Black
10
64.0492
20
-91.0503
11
64.5928
21
-90.4951
0
ARC
8
Black
10
64.7
20
-90.6
40
0.15
50
315.608
51
495.608
0
ARC
8
Black
10
64.1564
20
-91.1552
40
0.15
50
135.608
51
315.608
0
LINE
8
Black
10
61.4024
20
-91.35
11
64.1589
21
-91.3052
0
LINE
8
Black
10
61.3976
20
-91.05
11
64.154
21
-91.0053
0
ARC
8
Black
10
64.1564
20
-91.1552
40
0.15
50
270.93
51
450.93
0
ARC
8
Black
10
61.4
20
-91.2
40
0.15
50
90.9304
51
270.93
0
LINE
8
Black
10
60.9189
20
-90.9311
11
61.2939
21
-91.3061
0
LINE
8
Black
10
61.1311
20
-90.7189
11
61.5061
21
-91.0939
0
ARC
8
Black
10
61.4
20
-91.2
40
0.15
50
225
51
405
0
ARC
8
Black
10
61.025
20
-90.825
40
0.15
50
45
51
225
0
LINE
8
Black
10
94.675
20
-90.825
11
94.675
21
-88.275
0
LINE
8
Black
10
94.375
20
-90.825
11
94.375
21
-88.275
0
ARC
8
Black
10
94.525
20
-88.275
40
0.15
50
360
51
540
0
ARC
8
Black
10
94.525
20
-90.825
40
0.15
50
180
51
360
0
LINE
8
Black
10
99.5997
20
-88.75
11
102.4
21
-88.755
0
LINE
8
Black
10
99.6003
20
-88.45
11
102.4
21
-88.455
0
ARC
8
Black
10
102.4
20
-88.605
40
0.15
50
269.898
51
449.898
0
ARC
8
Black
10
99.6
20
-88.6
40
0.15
50
89.8977
51
269.898
0
LINE
8
Black
10
99.3
20
-88.75
11
99.6
21
-88.75
0
LINE
8
Black
10
99.3
20
-88.45
11
99.6
21
-88.45
0
ARC
8
Black
10
99.6
20
-88.6
40
0.15
50
270
51
450
0
ARC
8
Black
10
99.3
20
-88.6
40
0.15
50
90
51
270
0
LINE
8
Black
10
98.3314
20
-90.6723
11
99.4314
21
-88.6723
0
LINE
8
Black
10
98.0686
20
-90.5277
11
99.1686
21
-88.5277
0
ARC
8
Black
10
99.3
20
-88.6
40
0.15
50
331.189
51
511.189
0
ARC
8
Black
10
98.2
20
-90.6
40
0.15
50
151.189
51
331.189
0
LINE
8
Black
10
97.7636
20
-91.2602
11
98.3072
21
-90.7049
0
LINE
8
Black
10
97.5492
20
-91.0503
11
98.0928
21
-90.4951
0
ARC
8
Black
10
98.2
20
-90.6
40
0.15
50
315.608
51
495.608
0
ARC
8
Black
10
97.6564
20
-91.1552
40
0.15
50
135.608
51
315.608
0
LINE
8
Black
10
94.9024
20
-91.35
11
97.6589
21
-91.3052
0
LINE
8
Black
10
94.8976
20
-91.05
11
97.654
21
-91.0053
0
ARC
8
Black
10
97.6564
20
-91.1552
40
0.15
50
270.93
51
450.93
0
ARC
8
Black
10
94.9
20
-91.2
40
0.15
50
90.9304
51
270.93
0
LINE
8
Black
10
94.4189
20
-90.9311
11
94.7939
21
-91.3061
0
LINE
8
Black
10
94.6311
20
-90.7189
11
95.0061
21
-91.0939
0
ARC
8
Black
10
94.9
20
-91.2
40
0.15
50
225
51
405
0
ARC
8
Black
10
94.525
20
-90.825
40
0.15
50
45
51
225
0
LINE
8
Black
10
94.675
20
-70.325
11
94.675
21
-67.775
0
LINE
8
Black
10
94.375
20
-70.325
11
94.375
21
-67.775
0
ARC
8
Black
10
94.525
20
-67.775
40
0.15
50
360
51
540
0
ARC
8
Black
10
94.525
20
-70.325
40
0.15
50
180
51
360
0
LINE
8
Black
10
99.5997
20
-68.25
11
102.4
21
-68.255
0
LINE
8
Black
10
99.6003
20
-67.95
11
102.4
21
-67.955
0
ARC
8
Black
10
102.4
20
-68.105
40
0.15
50
269.898
51
449.898
0
ARC
8
Black
10
99.6
20
-68.1
40
0.15
50
89.8977
51
269.898
0
LINE
8
Black
10
99.3
20
-68.25
11
99.6
21
-68.25
0
LINE
8
Black
10
99.3
20
-67.95
11
99.6
21
-67.95
0
ARC
8
Black
10
99.6
20
-68.1
40
0.15
50
270
51
450
0
ARC
8
Black
10
99.3
20
-68.1
40
0.15
50
90
51
270
0
LINE
8
Black
10
98.3314
20
-70.1723
11
99.4314
21
-68.1723
0
LINE
8
Black
10
98.0686
20
-70.0277
11
99.1686
21
-68.0277
0
ARC
8
Black
10
99.3
20
-68.1
40
0.15
50
331.189
51
511.189
0
ARC
8
Black
10
98.2
20
-70.1
40
0.15
50
151.189
51
331.189
0
LINE
8
Black
10
97.7636
20
-70.7602
11
98.3072
21
-70.2049
0
LINE
8
Black
10
97.5492
20
-70.5503
11
98.0928
21
-69.9951
0
ARC
8
Black
10
98.2
20
-70.1
40
0.15
50
315.608
51
495.608
0
ARC
8
Black
10
97.6564
20
-70.6552
40
0.15
50
135.608
51
315.608
0
LINE
8
Black
10
94.9024
20
-70.85
11
97.6589
21
-70.8052
0
LINE
8
Black
10
94.8976
20
-70.55
11
97.654
21
-70.5053
0
ARC
8
Black
10
97.6564
20
-70.6552
40
0.15
50
270.93
51
450.93
0
ARC
8
Black
10
94.9
20
-70.7
40
0.15
50
90.9304
51
270.93
0
LINE
8
Black
10
94.4189
20
-70.4311
11
94.7939
21
-70.8061
0
LINE
8
Black
10
94.6311
20
-70.2189
11
95.0061
21
-70.5939
0
ARC
8
Black
10
94.9
20
-70.7
40
0.15
50
225
51
405
0
ARC
8
Black
10
94.525
20
-70.325
40
0.15
50
45
51
225
0
LINE
8
Black
10
94.675
20
-49.825
11
94.675
21
-47.275
0
LINE
8
Black
10
94.375
20
-49.825
11
94.375
21
-47.275
0
ARC
8
Black
10
94.525
20
-47.275
40
0.15
50
360
51
540
0
ARC
8
Black
10
94.525
20
-49.825
40
0.15
50
180
51
360
0
LINE
8
Black
10
99.5997
20
-47.75
11
102.4
21
-47.755
0
LINE
8
Black
10
99.6003
20
-47.45
11
102.4
21
-47.455
0
ARC
8
Black
10
102.4
20
-47.605
40
0.15
50
269.898
51
449.898
0
ARC
8
Black
10
99.6
20
-47.6
40
0.15
50
89.8977
51
269.898
0
LINE
8
Black
10
99.3
20
-47.75
11
99.6
21
-47.75
0
LINE
8
Black
10
99.3
20
-47.45
11
99.6
21
-47.45
0
ARC
8
Black
10
99.6
20
-47.6
40
0.15
50
270
51
450
0
ARC
8
Black
10
99.3
20
-47.6
40
0.15
50
90
51
270
0
LINE
8
Black
10
98.3314
20
-49.6723
11
99.4314
21
-47.6723
0
LINE
8
Black
10
98.0686
20
-49.5277
11
99.1686
21
-47.5277
0
ARC
8
Black
10
99.3
20
-47.6
40
0.15
50
331.189
51
511.189
0
ARC
8
Black
10
98.2
20
-49.6
40
0.15
50
151.189
51
331.189
0
LINE
8
Black
10
97.7636
20
-50.2602
11
98.3072
21
-49.7049
0
LINE
8
Black
10
97.5492
20
-50.0503
11
98.0928
21
-49.4951
0
ARC
8
Black
10
98.2
20
-49.6
40
0.15
50
315.608
51
495.608
0
ARC
8
Black
10
97.6564
20
-50.1552
40
0.15
50
135.608
51
315.608
0
LINE
8
Black
10
94.9024
20
-50.35
11
97.6589
21
-50.3052
0
LINE
8
Black
10
94.8976
20
-50.05
11
97.654
21
-50.0053
0
ARC
8
Black
10
97.6564
20
-50.1552
40
0.15
50
270.93
51
450.93
0
ARC
8
Black
10
94.9
20
-50.2
40
0.15
50
90.9304
51
270.93
0
LINE
8
Black
10
94.4189
20
-49.9311
11
94.7939
21
-50.3061
0
LINE
8
Black
10
94.6311
20
-49.7189
11
95.0061
21
-50.0939
0
ARC
8
Black
10
94.9
20
-50.2
40
0.15
50
225
51
405
0
ARC
8
Black
10
94.525
20
-49.825
40
0.15
50
45
51
225
0
LINE
8
Black
10
77.75
20
-62.15
11
78.25
21
-62.15
0
LINE
8
Black
10
77.75
20
-61.85
11
78.25
21
-61.85
0
ARC
8
Black
10
78.25
20
-62
40
0.15
50
270
51
450
0
ARC
8
Black
10
77.75
20
-62
40
0.15
50
90
51
270
0
LINE
8
Black
10
77.3658
20
-61.5671
11
77.6158
21
-62.0671
0
LINE
8
Black
10
77.6342
20
-61.4329
11
77.8842
21
-61.9329
0
ARC
8
Black
10
77.75
20
-62
40
0.15
50
206.565
51
386.565
0
ARC
8
Black
10
77.5
20
-61.5
40
0.15
50
26.5651
51
206.565
0
LINE
8
Black
10
77.65
20
-61.5
11
77.65
21
-60.7
0
LINE
8
Black
10
77.35
20
-61.5
11
77.35
21
-60.7
0
ARC
8
Black
10
77.5
20
-60.7
40
0.15
50
360
51
540
0
ARC
8
Black
10
77.5
20
-61.5
40
0.15
50
180
51
360
0
LINE
8
Black
10
77.65
20
-60.7
11
77.65
21
-59.2482
0
LINE
8
Black
10
77.35
20
-60.7
11
77.35
21
-59.2482
0
ARC
8
Black
10
77.5
20
-59.2482
40
0.15
50
360
51
540
0
ARC
8
Black
10
77.5
20
-60.7
40
0.15
50
180
51
360
0
LINE
8
Black
10
76.6162
20
-57.3178
11
77.2582
21
-58.5838
0
LINE
8
Black
10
76.8838
20
-57.1822
11
77.5257
21
-58.4481
0
ARC
8
Black
10
77.392
20
-58.5159
40
0.15
50
206.89
51
386.89
0
ARC
8
Black
10
76.75
20
-57.25
40
0.15
50
26.8897
51
206.89
0
LINE
8
Black
10
77.2436
20
-58.5378
11
77.3516
21
-59.2701
0
LINE
8
Black
10
77.5404
20
-58.494
11
77.6484
21
-59.2263
0
ARC
8
Black
10
77.5
20
-59.2482
40
0.15
50
188.393
51
368.393
0
ARC
8
Black
10
77.392
20
-58.5159
40
0.15
50
8.39328
51
188.393
0
LINE
8
Black
10
76.9
20
-57.25
11
76.9
21
-54.5
0
LINE
8
Black
10
76.6
20
-57.25
11
76.6
21
-54.5
0
ARC
8
Black
10
76.75
20
-54.5
40
0.15
50
360
51
540
0
ARC
8
Black
10
76.75
20
-57.25
40
0.15
50
180
51
360
0
LINE
8
Black
10
79.6939
20
-60.8061
11
79.9189
21
-61.0311
0
LINE
8
Black
10
79.9061
20
-60.5939
11
80.1311
21
-60.8189
0
ARC
8
Black
10
80.025
20
-60.925
40
0.15
50
225
51
405
0
ARC
8
Black
10
79.8
20
-60.7
40
0.15
50
45
51
225
0
LINE
8
Black
10
80.175
20
-61.725
11
80.175
21
-60.925
0
LINE
8
Black
10
79.875
20
-61.725
11
79.875
21
-60.925
0
ARC
8
Black
10
80.025
20
-60.925
40
0.15
50
360
51
540
0
ARC
8
Black
10
80.025
20
-61.725
40
0.15
50
180
51
360
0
LINE
8
Black
10
77.5
20
-60.85
11
79.8
21
-60.85
0
LINE
8
Black
10
77.5
20
-60.55
11
79.8
21
-60.55
0
ARC
8
Black
10
79.8
20
-60.7
40
0.15
50
270
51
450
0
ARC
8
Black
10
77.5
20
-60.7
40
0.15
50
90
51
270
0
LINE
8
Black
10
74
20
-59.3982
11
76
21
-59.3982
0
LINE
8
Black
10
74
20
-59.0982
11
76
21
-59.0982
0
ARC
8
Black
10
76
20
-59.2482
40
0.15
50
270
51
450
0
ARC
8
Black
10
74
20
-59.2482
40
0.15
50
90
51
270
0
LINE
8
Black
10
76
20
-59.3982
11
77.5
21
-59.3982
0
LINE
8
Black
10
76
20
-59.0982
11
77.5
21
-59.0982
0
ARC
8
Black
10
77.5
20
-59.2482
40
0.15
50
270
51
450
0
ARC
8
Black
10
76
20
-59.2482
40
0.15
50
90
51
270
0
LINE
8
Black
10
60
20
-59.3982
11
61.5
21
-59.3982
0
LINE
8
Black
10
60
20
-59.0982
11
61.5
21
-59.0982
0
ARC
8
Black
10
61.5
20
-59.2482
40
0.15
50
270
51
450
0
ARC
8
Black
10
60
20
-59.2482
40
0.15
50
90
51
270
0
LINE
8
Black
10
58
20
-59.3982
11
60
21
-59.3982
0
LINE
8
Black
10
58
20
-59.0982
11
60
21
-59.0982
0
ARC
8
Black
10
60
20
-59.2482
40
0.15
50
270
51
450
0
ARC
8
Black
10
58
20
-59.2482
40
0.15
50
90
51
270
0
LINE
8
Black
10
61.5
20
-60.85
11
63.8
21
-60.85
0
LINE
8
Black
10
61.5
20
-60.55
11
63.8
21
-60.55
0
ARC
8
Black
10
63.8
20
-60.7
40
0.15
50
270
51
450
0
ARC
8
Black
10
61.5
20
-60.7
40
0.15
50
90
51
270
0
LINE
8
Black
10
64.175
20
-61.725
11
64.175
21
-60.925
0
LINE
8
Black
10
63.875
20
-61.725
11
63.875
21
-60.925
0
ARC
8
Black
10
64.025
20
-60.925
40
0.15
50
360
51
540
0
ARC
8
Black
10
64.025
20
-61.725
40
0.15
50
180
51
360
0
LINE
8
Black
10
63.6939
20
-60.8061
11
63.9189
21
-61.0311
0
LINE
8
Black
10
63.9061
20
-60.5939
11
64.1311
21
-60.8189
0
ARC
8
Black
10
64.025
20
-60.925
40
0.15
50
225
51
405
0
ARC
8
Black
10
63.8
20
-60.7
40
0.15
50
45
51
225
0
LINE
8
Black
10
60.9
20
-57.25
11
60.9
21
-54.5
0
LINE
8
Black
10
60.6
20
-57.25
11
60.6
21
-54.5
0
ARC
8
Black
10
60.75
20
-54.5
40
0.15
50
360
51
540
0
ARC
8
Black
10
60.75
20
-57.25
40
0.15
50
180
51
360
0
LINE
8
Black
10
61.2436
20
-58.5378
11
61.3516
21
-59.2701
0
LINE
8
Black
10
61.5404
20
-58.494
11
61.6484
21
-59.2263
0
ARC
8
Black
10
61.5
20
-59.2482
40
0.15
50
188.393
51
368.393
0
ARC
8
Black
10
61.392
20
-58.5159
40
0.15
50
8.39328
51
188.393
0
LINE
8
Black
10
60.6162
20
-57.3178
11
61.2582
21
-58.5838
0
LINE
8
Black
10
60.8838
20
-57.1822
11
61.5257
21
-58.4481
0
ARC
8
Black
10
61.392
20
-58.5159
40
0.15
50
206.89
51
386.89
0
ARC
8
Black
10
60.75
20
-57.25
40
0.15
50
26.8897
51
206.89
0
LINE
8
Black
10
61.65
20
-60.7
11
61.65
21
-59.2482
0
LINE
8
Black
10
61.35
20
-60.7
11
61.35
21
-59.2482
0
ARC
8
Black
10
61.5
20
-59.2482
40
0.15
50
360
51
540
0
ARC
8
Black
10
61.5
20
-60.7
40
0.15
50
180
51
360
0
LINE
8
Black
10
61.65
20
-61.5
11
61.65
21
-60.7
0
LINE
8
Black
10
61.35
20
-61.5
11
61.35
21
-60.7
0
ARC
8
Black
10
61.5
20
-60.7
40
0.15
50
360
51
540
0
ARC
8
Black
10
61.5
20
-61.5
40
0.15
50
180
51
360
0
LINE
8
Black
10
61.3658
20
-61.5671
11
61.6158
21
-62.0671
0
LINE
8
Black
10
61.6342
20
-61.4329
11
61.8842
21
-61.9329
0
ARC
8
Black
10
61.75
20
-62
40
0.15
50
206.565
51
386.565
0
ARC
8
Black
10
61.5
20
-61.5
40
0.15
50
26.5651
51
206.565
0
LINE
8
Black
10
61.75
20
-62.15
11
62.25
21
-62.15
0
LINE
8
Black
10
61.75
20
-61.85
11
62.25
21
-61.85
0
ARC
8
Black
10
62.25
20
-62
40
0.15
50
270
51
450
0
ARC
8
Black
10
61.75
20
-62
40
0.15
50
90
51
270
0
LINE
8
Black
10
58.9
20
-84.85
11
61.8
21
-84.85
0
LINE
8
Black
10
58.9
20
-84.55
11
61.8
21
-84.55
0
ARC
8
Black
10
61.8
20
-84.7
40
0.15
50
270
51
450
0
ARC
8
Black
10
58.9
20
-84.7
40
0.15
50
90
51
270
0
LINE
8
Black
10
62.175
20
-85.725
11
62.175
21
-84.925
0
LINE
8
Black
10
61.875
20
-85.725
11
61.875
21
-84.925
0
ARC
8
Black
10
62.025
20
-84.925
40
0.15
50
360
51
540
0
ARC
8
Black
10
62.025
20
-85.725
40
0.15
50
180
51
360
0
LINE
8
Black
10
61.6939
20
-84.8061
11
61.9189
21
-85.0311
0
LINE
8
Black
10
61.9061
20
-84.5939
11
62.1311
21
-84.8189
0
ARC
8
Black
10
62.025
20
-84.925
40
0.15
50
225
51
405
0
ARC
8
Black
10
61.8
20
-84.7
40
0.15
50
45
51
225
0
LINE
8
Black
10
60.5
20
-81.6982
11
62.3
21
-81.6982
0
LINE
8
Black
10
60.5
20
-81.3982
11
62.3
21
-81.3982
0
ARC
8
Black
10
62.3
20
-81.5482
40
0.15
50
270
51
450
0
ARC
8
Black
10
60.5
20
-81.5482
40
0.15
50
90
51
270
0
LINE
8
Black
10
59.9518
20
-81.6982
11
60.5
21
-81.6982
0
LINE
8
Black
10
59.9518
20
-81.3982
11
60.5
21
-81.3982
0
ARC
8
Black
10
60.5
20
-81.5482
40
0.15
50
270
51
450
0
ARC
8
Black
10
59.9518
20
-81.5482
40
0.15
50
90
51
270
0
LINE
8
Black
10
59.8458
20
-81.4421
11
58.7939
21
-82.4939
0
LINE
8
Black
10
60.0579
20
-81.6542
11
59.0061
21
-82.7061
0
ARC
8
Black
10
58.9
20
-82.6
40
0.15
50
495
51
675
0
ARC
8
Black
10
59.9518
20
-81.5482
40
0.15
50
315
51
495
0
LINE
8
Black
10
59.05
20
-84.7
11
59.05
21
-82.6
0
LINE
8
Black
10
58.75
20
-84.7
11
58.75
21
-82.6
0
ARC
8
Black
10
58.9
20
-82.6
40
0.15
50
360
51
540
0
ARC
8
Black
10
58.9
20
-84.7
40
0.15
50
180
51
360
0
LINE
8
Black
10
59.05
20
-85.5
11
59.05
21
-84.7
0
LINE
8
Black
10
58.75
20
-85.5
11
58.75
21
-84.7
0
ARC
8
Black
10
58.9
20
-84.7
40
0.15
50
360
51
540
0
ARC
8
Black
10
58.9
20
-85.5
40
0.15
50
180
51
360
0
LINE
8
Black
10
58.7939
20
-85.6061
11
59.2939
21
-86.1061
0
LINE
8
Black
10
59.0061
20
-85.3939
11
59.5061
21
-85.8939
0
ARC
8
Black
10
59.4
20
-86
40
0.15
50
225
51
405
0
ARC
8
Black
10
58.9
20
-85.5
40
0.15
50
45
51
225
0
LINE
8
Black
10
59.4
20
-86.15
11
60.25
21
-86.15
0
LINE
8
Black
10
59.4
20
-85.85
11
60.25
21
-85.85
0
ARC
8
Black
10
60.25
20
-86
40
0.15
50
270
51
450
0
ARC
8
Black
10
59.4
20
-86
40
0.15
50
90
51
270
0
LINE
8
Black
10
68.9084
20
-83.3752
11
65.3334
21
-83.1752
0
LINE
8
Black
10
68.8916
20
-83.6748
11
65.3166
21
-83.4748
0
ARC
8
Black
10
65.325
20
-83.325
40
0.15
50
446.798
51
626.798
0
ARC
8
Black
10
68.9
20
-83.525
40
0.15
50
266.798
51
446.798
0
LINE
8
Black
10
62.3
20
-81.6982
11
63.6482
21
-81.6982
0
LINE
8
Black
10
62.3
20
-81.3982
11
63.6482
21
-81.3982
0
ARC
8
Black
10
63.6482
20
-81.5482
40
0.15
50
270
51
450
0
ARC
8
Black
10
62.3
20
-81.5482
40
0.15
50
90
51
270
0
LINE
8
Black
10
64.2061
20
-81.8939
11
63.7542
21
-81.4421
0
LINE
8
Black
10
63.9939
20
-82.1061
11
63.5421
21
-81.6542
0
ARC
8
Black
10
63.6482
20
-81.5482
40
0.15
50
405
51
585
0
ARC
8
Black
10
64.1
20
-82
40
0.15
50
225
51
405
0
LINE
8
Black
10
64.25
20
-82.1
11
64.25
21
-82
0
LINE
8
Black
10
63.95
20
-82.1
11
63.95
21
-82
0
ARC
8
Black
10
64.1
20
-82
40
0.15
50
360
51
540
0
ARC
8
Black
10
64.1
20
-82.1
40
0.15
50
180
51
360
0
LINE
8
Black
10
65.4311
20
-83.2189
11
64.2061
21
-81.9939
0
LINE
8
Black
10
65.2189
20
-83.4311
11
63.9939
21
-82.2061
0
ARC
8
Black
10
64.1
20
-82.1
40
0.15
50
405
51
585
0
ARC
8
Black
10
65.325
20
-83.325
40
0.15
50
225
51
405
0
LINE
8
Black
10
92.4
20
-84.85
11
95.3
21
-84.85
0
LINE
8
Black
10
92.4
20
-84.55
11
95.3
21
-84.55
0
ARC
8
Black
10
95.3
20
-84.7
40
0.15
50
270
51
450
0
ARC
8
Black
10
92.4
20
-84.7
40
0.15
50
90
51
270
0
LINE
8
Black
10
95.675
20
-85.725
11
95.675
21
-84.925
0
LINE
8
Black
10
95.375
20
-85.725
11
95.375
21
-84.925
0
ARC
8
Black
10
95.525
20
-84.925
40
0.15
50
360
51
540
0
ARC
8
Black
10
95.525
20
-85.725
40
0.15
50
180
51
360
0
LINE
8
Black
10
95.1939
20
-84.8061
11
95.4189
21
-85.0311
0
LINE
8
Black
10
95.4061
20
-84.5939
11
95.6311
21
-84.8189
0
ARC
8
Black
10
95.525
20
-84.925
40
0.15
50
225
51
405
0
ARC
8
Black
10
95.3
20
-84.7
40
0.15
50
45
51
225
0
LINE
8
Black
10
94
20
-81.6982
11
95.8
21
-81.6982
0
LINE
8
Black
10
94
20
-81.3982
11
95.8
21
-81.3982
0
ARC
8
Black
10
95.8
20
-81.5482
40
0.15
50
270
51
450
0
ARC
8
Black
10
94
20
-81.5482
40
0.15
50
90
51
270
0
LINE
8
Black
10
93.4518
20
-81.6982
11
94
21
-81.6982
0
LINE
8
Black
10
93.4518
20
-81.3982
11
94
21
-81.3982
0
ARC
8
Black
10
94
20
-81.5482
40
0.15
50
270
51
450
0
ARC
8
Black
10
93.4518
20
-81.5482
40
0.15
50
90
51
270
0
LINE
8
Black
10
93.3458
20
-81.4421
11
92.2939
21
-82.4939
0
LINE
8
Black
10
93.5579
20
-81.6542
11
92.5061
21
-82.7061
0
ARC
8
Black
10
92.4
20
-82.6
40
0.15
50
495
51
675
0
ARC
8
Black
10
93.4518
20
-81.5482
40
0.15
50
315
51
495
0
LINE
8
Black
10
92.55
20
-84.7
11
92.55
21
-82.6
0
LINE
8
Black
10
92.25
20
-84.7
11
92.25
21
-82.6
0
ARC
8
Black
10
92.4
20
-82.6
40
0.15
50
360
51
540
0
ARC
8
Black
10
92.4
20
-84.7
40
0.15
50
180
51
360
0
LINE
8
Black
10
92.55
20
-85.5
11
92.55
21
-84.7
0
LINE
8
Black
10
92.25
20
-85.5
11
92.25
21
-84.7
0
ARC
8
Black
10
92.4
20
-84.7
40
0.15
50
360
51
540
0
ARC
8
Black
10
92.4
20
-85.5
40
0.15
50
180
51
360
0
LINE
8
Black
10
92.2939
20
-85.6061
11
92.7939
21
-86.1061
0
LINE
8
Black
10
92.5061
20
-85.3939
11
93.0061
21
-85.8939
0
ARC
8
Black
10
92.9
20
-86
40
0.15
50
225
51
405
0
ARC
8
Black
10
92.4
20
-85.5
40
0.15
50
45
51
225
0
LINE
8
Black
10
92.9
20
-86.15
11
93.75
21
-86.15
0
LINE
8
Black
10
92.9
20
-85.85
11
93.75
21
-85.85
0
ARC
8
Black
10
93.75
20
-86
40
0.15
50
270
51
450
0
ARC
8
Black
10
92.9
20
-86
40
0.15
50
90
51
270
0
LINE
8
Black
10
102.408
20
-83.3752
11
98.8334
21
-83.1752
0
LINE
8
Black
10
102.392
20
-83.6748
11
98.8166
21
-83.4748
0
ARC
8
Black
10
98.825
20
-83.325
40
0.15
50
446.798
51
626.798
0
ARC
8
Black
10
102.4
20
-83.525
40
0.15
50
266.798
51
446.798
0
LINE
8
Black
10
95.8
20
-81.6982
11
97.1482
21
-81.6982
0
LINE
8
Black
10
95.8
20
-81.3982
11
97.1482
21
-81.3982
0
ARC
8
Black
10
97.1482
20
-81.5482
40
0.15
50
270
51
450
0
ARC
8
Black
10
95.8
20
-81.5482
40
0.15
50
90
51
270
0
LINE
8
Black
10
97.7061
20
-81.8939
11
97.2542
21
-81.4421
0
LINE
8
Black
10
97.4939
20
-82.1061
11
97.0421
21
-81.6542
0
ARC
8
Black
10
97.1482
20
-81.5482
40
0.15
50
405
51
585
0
ARC
8
Black
10
97.6
20
-82
40
0.15
50
225
51
405
0
LINE
8
Black
10
97.75
20
-82.1
11
97.75
21
-82
0
LINE
8
Black
10
97.45
20
-82.1
11
97.45
21
-82
0
ARC
8
Black
10
97.6
20
-82
40
0.15
50
360
51
540
0
ARC
8
Black
10
97.6
20
-82.1
40
0.15
50
180
51
360
0
LINE
8
Black
10
98.9311
20
-83.2189
11
97.7061
21
-81.9939
0
LINE
8
Black
10
98.7189
20
-83.4311
11
97.4939
21
-82.2061
0
ARC
8
Black
10
97.6
20
-82.1
40
0.15
50
405
51
585
0
ARC
8
Black
10
98.825
20
-83.325
40
0.15
50
225
51
405
0
LINE
8
Black
10
92.4
20
-64.35
11
95.3
21
-64.35
0
LINE
8
Black
10
92.4
20
-64.05
11
95.3
21
-64.05
0
ARC
8
Black
10
95.3
20
-64.2
40
0.15
50
270
51
450
0
ARC
8
Black
10
92.4
20
-64.2
40
0.15
50
90
51
270
0
LINE
8
Black
10
95.675
20
-65.225
11
95.675
21
-64.425
0
LINE
8
Black
10
95.375
20
-65.225
11
95.375
21
-64.425
0
ARC
8
Black
10
95.525
20
-64.425
40
0.15
50
360
51
540
0
ARC
8
Black
10
95.525
20
-65.225
40
0.15
50
180
51
360
0
LINE
8
Black
10
95.1939
20
-64.3061
11
95.4189
21
-64.5311
0
LINE
8
Black
10
95.4061
20
-64.0939
11
95.6311
21
-64.3189
0
ARC
8
Black
10
95.525
20
-64.425
40
0.15
50
225
51
405
0
ARC
8
Black
10
95.3
20
-64.2
40
0.15
50
45
51
225
0
LINE
8
Black
10
94
20
-61.1982
11
95.8
21
-61.1982
0
LINE
8
Black
10
94
20
-60.8982
11
95.8
21
-60.8982
0
ARC
8
Black
10
95.8
20
-61.0482
40
0.15
50
270
51
450
0
ARC
8
Black
10
94
20
-61.0482
40
0.15
50
90
51
270
0
LINE
8
Black
10
93.4518
20
-61.1982
11
94
21
-61.1982
0
LINE
8
Black
10
93.4518
20
-60.8982
11
94
21
-60.8982
0
ARC
8
Black
10
94
20
-61.0482
40
0.15
50
270
51
450
0
ARC
8
Black
10
93.4518
20
-61.0482
40
0.15
50
90
51
270
0
LINE
8
Black
10
93.3458
20
-60.9421
11
92.2939
21
-61.9939
0
LINE
8
Black
10
93.5579
20
-61.1542
11
92.5061
21
-62.2061
0
ARC
8
Black
10
92.4
20
-62.1
40
0.15
50
495
51
675
0
ARC
8
Black
10
93.4518
20
-61.0482
40
0.15
50
315
51
495
0
LINE
8
Black
10
92.55
20
-64.2
11
92.55
21
-62.1
0
LINE
8
Black
10
92.25
20
-64.2
11
92.25
21
-62.1
0
ARC
8
Black
10
92.4
20
-62.1
40
0.15
50
360
51
540
0
ARC
8
Black
10
92.4
20
-64.2
40
0.15
50
180
51
360
0
LINE
8
Black
10
92.55
20
-65
11
92.55
21
-64.2
0
LINE
8
Black
10
92.25
20
-65
11
92.25
21
-64.2
0
ARC
8
Black
10
92.4
20
-64.2
40
0.15
50
360
51
540
0
ARC
8
Black
10
92.4
20
-65
40
0.15
50
180
51
360
0
LINE
8
Black
10
92.2939
20
-65.1061
11
92.7939
21
-65.6061
0
LINE
8
Black
10
92.5061
20
-64.8939
11
93.0061
21
-65.3939
0
ARC
8
Black
10
92.9
20
-65.5
40
0.15
50
225
51
405
0
ARC
8
Black
10
92.4
20
-65
40
0.15
50
45
51
225
0
LINE
8
Black
10
92.9
20
-65.65
11
93.75
21
-65.65
0
LINE
8
Black
10
92.9
20
-65.35
11
93.75
21
-65.35
0
ARC
8
Black
10
93.75
20
-65.5
40
0.15
50
270
51
450
0
ARC
8
Black
10
92.9
20
-65.5
40
0.15
50
90
51
270
0
LINE
8
Black
10
102.408
20
-62.8752
11
98.8334
21
-62.6752
0
LINE
8
Black
10
102.392
20
-63.1748
11
98.8166
21
-62.9748
0
ARC
8
Black
10
98.825
20
-62.825
40
0.15
50
446.798
51
626.798
0
ARC
8
Black
10
102.4
20
-63.025
40
0.15
50
266.798
51
446.798
0
LINE
8
Black
10
95.8
20
-61.1982
11
97.1482
21
-61.1982
0
LINE
8
Black
10
95.8
20
-60.8982
11
97.1482
21
-60.8982
0
ARC
8
Black
10
97.1482
20
-61.0482
40
0.15
50
270
51
450
0
ARC
8
Black
10
95.8
20
-61.0482
40
0.15
50
90
51
270
0
LINE
8
Black
10
97.7061
20
-61.3939
11
97.2542
21
-60.9421
0
LINE
8
Black
10
97.4939
20
-61.6061
11
97.0421
21
-61.1542
0
ARC
8
Black
10
97.1482
20
-61.0482
40
0.15
50
405
51
585
0
ARC
8
Black
10
97.6
20
-61.5
40
0.15
50
225
51
405
0
LINE
8
Black
10
97.75
20
-61.6
11
97.75
21
-61.5
0
LINE
8
Black
10
97.45
20
-61.6
11
97.45
21
-61.5
0
ARC
8
Black
10
97.6
20
-61.5
40
0.15
50
360
51
540
0
ARC
8
Black
10
97.6
20
-61.6
40
0.15
50
180
51
360
0
LINE
8
Black
10
98.9311
20
-62.7189
11
97.7061
21
-61.4939
0
LINE
8
Black
10
98.7189
20
-62.9311
11
97.4939
21
-61.7061
0
ARC
8
Black
10
97.6
20
-61.6
40
0.15
50
405
51
585
0
ARC
8
Black
10
98.825
20
-62.825
40
0.15
50
225
51
405
0
LINE
8
Black
10
92.4
20
-43.85
11
95.3
21
-43.85
0
LINE
8
Black
10
92.4
20
-43.55
11
95.3
21
-43.55
0
ARC
8
Black
10
95.3
20
-43.7
40
0.15
50
270
51
450
0
ARC
8
Black
10
92.4
20
-43.7
40
0.15
50
90
51
270
0
LINE
8
Black
10
95.675
20
-44.725
11
95.675
21
-43.925
0
LINE
8
Black
10
95.375
20
-44.725
11
95.375
21
-43.925
0
ARC
8
Black
10
95.525
20
-43.925
40
0.15
50
360
51
540
0
ARC
8
Black
10
95.525
20
-44.725
40
0.15
50
180
51
360
0
LINE
8
Black
10
95.1939
20
-43.8061
11
95.4189
21
-44.0311
0
LINE
8
Black
10
95.4061
20
-43.5939
11
95.6311
21
-43.8189
0
ARC
8
Black
10
95.525
20
-43.925
40
0.15
50
225
51
405
0
ARC
8
Black
10
95.3
20
-43.7
40
0.15
50
45
51
225
0
LINE
8
Black
10
94
20
-40.6982
11
95.8
21
-40.6982
0
LINE
8
Black
10
94
20
-40.3982
11
95.8
21
-40.3982
0
ARC
8
Black
10
95.8
20
-40.5482
40
0.15
50
270
51
450
0
ARC
8
Black
10
94
20
-40.5482
40
0.15
50
90
51
270
0
LINE
8
Black
10
93.4518
20
-40.6982
11
94
21
-40.6982
0
LINE
8
Black
10
93.4518
20
-40.3982
11
94
21
-40.3982
0
ARC
8
Black
10
94
20
-40.5482
40
0.15
50
270
51
450
0
ARC
8
Black
10
93.4518
20
-40.5482
40
0.15
50
90
51
270
0
LINE
8
Black
10
93.3458
20
-40.4421
11
92.2939
21
-41.4939
0
LINE
8
Black
10
93.5579
20
-40.6542
11
92.5061
21
-41.7061
0
ARC
8
Black
10
92.4
20
-41.6
40
0.15
50
495
51
675
0
ARC
8
Black
10
93.4518
20
-40.5482
40
0.15
50
315
51
495
0
LINE
8
Black
10
92.55
20
-43.7
11
92.55
21
-41.6
0
LINE
8
Black
10
92.25
20
-43.7
11
92.25
21
-41.6
0
ARC
8
Black
10
92.4
20
-41.6
40
0.15
50
360
51
540
0
ARC
8
Black
10
92.4
20
-43.7
40
0.15
50
180
51
360
0
LINE
8
Black
10
92.55
20
-44.5
11
92.55
21
-43.7
0
LINE
8
Black
10
92.25
20
-44.5
11
92.25
21
-43.7
0
ARC
8
Black
10
92.4
20
-43.7
40
0.15
50
360
51
540
0
ARC
8
Black
10
92.4
20
-44.5
40
0.15
50
180
51
360
0
LINE
8
Black
10
92.2939
20
-44.6061
11
92.7939
21
-45.1061
0
LINE
8
Black
10
92.5061
20
-44.3939
11
93.0061
21
-44.8939
0
ARC
8
Black
10
92.9
20
-45
40
0.15
50
225
51
405
0
ARC
8
Black
10
92.4
20
-44.5
40
0.15
50
45
51
225
0
LINE
8
Black
10
92.9
20
-45.15
11
93.75
21
-45.15
0
LINE
8
Black
10
92.9
20
-44.85
11
93.75
21
-44.85
0
ARC
8
Black
10
93.75
20
-45
40
0.15
50
270
51
450
0
ARC
8
Black
10
92.9
20
-45
40
0.15
50
90
51
270
0
LINE
8
Black
10
102.408
20
-42.3752
11
98.8334
21
-42.1752
0
LINE
8
Black
10
102.392
20
-42.6748
11
98.8166
21
-42.4748
0
ARC
8
Black
10
98.825
20
-42.325
40
0.15
50
446.798
51
626.798
0
ARC
8
Black
10
102.4
20
-42.525
40
0.15
50
266.798
51
446.798
0
LINE
8
Black
10
95.8
20
-40.6982
11
97.1482
21
-40.6982
0
LINE
8
Black
10
95.8
20
-40.3982
11
97.1482
21
-40.3982
0
ARC
8
Black
10
97.1482
20
-40.5482
40
0.15
50
270
51
450
0
ARC
8
Black
10
95.8
20
-40.5482
40
0.15
50
90
51
270
0
LINE
8
Black
10
97.7061
20
-40.8939
11
97.2542
21
-40.4421
0
LINE
8
Black
10
97.4939
20
-41.1061
11
97.0421
21
-40.6542
0
ARC
8
Black
10
97.1482
20
-40.5482
40
0.15
50
405
51
585
0
ARC
8
Black
10
97.6
20
-41
40
0.15
50
225
51
405
0
LINE
8
Black
10
97.75
20
-41.1
11
97.75
21
-41
0
LINE
8
Black
10
97.45
20
-41.1
11
97.45
21
-41
0
ARC
8
Black
10
97.6
20
-41
40
0.15
50
360
51
540
0
ARC
8
Black
10
97.6
20
-41.1
40
0.15
50
180
51
360
0
LINE
8
Black
10
98.9311
20
-42.2189
11
97.7061
21
-40.9939
0
LINE
8
Black
10
98.7189
20
-42.4311
11
97.4939
21
-41.2061
0
ARC
8
Black
10
97.6
20
-41.1
40
0.15
50
405
51
585
0
ARC
8
Black
10
98.825
20
-42.325
40
0.15
50
225
51
405
  0
ENDSEC
  0
EOF
