G04 (created by PCBNEW (2013-08-24 BZR 4298)-stable) date Sat 23 Aug 2014 11:13:58 AM PDT*
%MOIN*%
G04 Gerber Fmt 3.4, Leading zero omitted, Abs format*
%FSLAX34Y34*%
G01*
G70*
G90*
G04 APERTURE LIST*
%ADD10C,0.005906*%
%ADD11R,0.009843X0.033465*%
%ADD12R,0.033465X0.009843*%
%ADD13R,0.281496X0.281496*%
%ADD14C,0.078700*%
%ADD15R,0.078700X0.078700*%
%ADD16R,0.035400X0.039400*%
%ADD17R,0.039400X0.035400*%
%ADD18R,0.098400X0.098400*%
%ADD19O,0.009800X0.031500*%
%ADD20O,0.031500X0.009800*%
%ADD21R,0.039370X0.031496*%
%ADD22R,0.055000X0.035000*%
%ADD23C,0.118110*%
%ADD24C,0.078740*%
%ADD25R,0.100000X0.039000*%
%ADD26C,0.060000*%
%ADD27R,0.009843X0.011811*%
%ADD28R,0.009800X0.011811*%
%ADD29R,0.009800X0.011826*%
%ADD30C,0.011811*%
%ADD31R,0.078740X0.035433*%
%ADD32R,0.027600X0.009800*%
%ADD33R,0.011811X0.009843*%
%ADD34R,0.011811X0.009800*%
%ADD35R,0.011826X0.009800*%
%ADD36R,0.035433X0.078740*%
%ADD37R,0.009800X0.027600*%
%ADD38R,0.181102X0.031890*%
%ADD39R,0.181102X0.024016*%
%ADD40C,0.157480*%
%ADD41R,0.153543X0.098425*%
%ADD42R,0.047244X0.043307*%
%ADD43R,0.196850X0.029921*%
%ADD44R,0.177165X0.346457*%
%ADD45C,0.094488*%
%ADD46R,0.011811X0.031496*%
%ADD47R,0.031496X0.011811*%
%ADD48R,0.094500X0.137800*%
%ADD49R,0.035000X0.055000*%
%ADD50R,0.250000X0.029921*%
%ADD51C,0.127953*%
%ADD52R,0.090551X0.090551*%
%ADD53R,0.021654X0.047244*%
%ADD54R,0.047244X0.021654*%
%ADD55C,0.102362*%
G04 APERTURE END LIST*
G54D10*
G54D11*
X59807Y-37259D03*
X60003Y-37259D03*
X58625Y-37259D03*
X58822Y-37259D03*
X59216Y-37259D03*
X59019Y-37259D03*
X59610Y-37259D03*
X59413Y-37259D03*
X57838Y-37259D03*
X58035Y-37259D03*
X58429Y-37259D03*
X58232Y-37259D03*
X57444Y-37259D03*
X57641Y-37259D03*
X57248Y-37259D03*
X57051Y-37259D03*
G54D12*
X56775Y-36984D03*
X56775Y-36787D03*
X56775Y-36393D03*
X56775Y-36590D03*
X56775Y-35803D03*
X56775Y-35606D03*
X56775Y-36000D03*
X56775Y-36196D03*
X56775Y-34622D03*
X56775Y-34425D03*
X56775Y-35015D03*
X56775Y-34818D03*
X56775Y-35212D03*
X56775Y-35409D03*
X56775Y-34031D03*
X56775Y-34228D03*
G54D11*
X57051Y-33755D03*
X57248Y-33755D03*
X57641Y-33755D03*
X57444Y-33755D03*
X58232Y-33755D03*
X58429Y-33755D03*
X58035Y-33755D03*
X57838Y-33755D03*
X59413Y-33755D03*
X59610Y-33755D03*
X59019Y-33755D03*
X59216Y-33755D03*
X58822Y-33755D03*
X58625Y-33755D03*
X60003Y-33755D03*
X59807Y-33755D03*
G54D12*
X60279Y-34228D03*
X60279Y-34031D03*
X60279Y-35409D03*
X60279Y-35212D03*
X60279Y-34818D03*
X60279Y-35007D03*
X60279Y-34425D03*
X60279Y-34622D03*
X60279Y-36196D03*
X60279Y-36000D03*
X60279Y-35606D03*
X60279Y-35803D03*
X60279Y-36590D03*
X60279Y-36393D03*
X60279Y-36787D03*
X60279Y-36984D03*
G54D13*
X58527Y-35507D03*
G54D14*
X36811Y-28070D03*
G54D15*
X35039Y-25940D03*
X37441Y-25940D03*
X35039Y-30202D03*
X37441Y-30202D03*
G54D14*
X35039Y-28070D03*
G54D16*
X52973Y-35787D03*
X52381Y-35787D03*
G54D17*
X47322Y-32578D03*
X47322Y-33170D03*
X51496Y-39272D03*
X51496Y-38680D03*
G54D18*
X50003Y-35208D03*
G54D19*
X49511Y-35995D03*
X49708Y-35995D03*
X49905Y-35995D03*
X50101Y-35995D03*
X50298Y-35995D03*
X50495Y-35995D03*
G54D20*
X50790Y-35700D03*
X50790Y-35503D03*
X50790Y-35306D03*
X50790Y-35110D03*
X50790Y-34913D03*
X50790Y-34716D03*
G54D19*
X50495Y-34421D03*
X50298Y-34421D03*
X50101Y-34421D03*
X49905Y-34421D03*
X49708Y-34421D03*
X49511Y-34421D03*
G54D20*
X49216Y-34716D03*
X49216Y-34913D03*
X49216Y-35110D03*
X49216Y-35306D03*
X49216Y-35503D03*
X49216Y-35700D03*
G54D16*
X47491Y-36114D03*
X48083Y-36114D03*
G54D17*
X52086Y-39272D03*
X52086Y-38680D03*
X50787Y-39233D03*
X50787Y-38641D03*
X48622Y-39233D03*
X48622Y-38641D03*
X48228Y-32578D03*
X48228Y-33170D03*
X62401Y-36711D03*
X62401Y-37303D03*
G54D16*
X53719Y-35669D03*
X54311Y-35669D03*
X62894Y-35000D03*
X62302Y-35000D03*
G54D17*
X59842Y-32499D03*
X59842Y-33091D03*
X58533Y-31081D03*
X58533Y-31673D03*
X60866Y-31614D03*
X60866Y-31022D03*
X59212Y-32499D03*
X59212Y-33091D03*
G54D16*
X54626Y-39035D03*
X54034Y-39035D03*
X54528Y-39763D03*
X53936Y-39763D03*
X54508Y-40393D03*
X53916Y-40393D03*
X54587Y-36377D03*
X53995Y-36377D03*
X54626Y-37007D03*
X54034Y-37007D03*
X54587Y-37716D03*
X53995Y-37716D03*
G54D17*
X46283Y-35051D03*
X46283Y-34459D03*
X46291Y-35664D03*
X46291Y-36256D03*
X45385Y-37134D03*
X45385Y-36542D03*
X45405Y-37822D03*
X45405Y-38414D03*
G54D16*
X44693Y-40208D03*
X44101Y-40208D03*
G54D17*
X57874Y-39861D03*
X57874Y-40453D03*
G54D16*
X45516Y-33295D03*
X44924Y-33295D03*
G54D17*
X45106Y-34512D03*
X45106Y-33920D03*
X58681Y-39782D03*
X58681Y-40374D03*
X40551Y-30020D03*
X40551Y-29428D03*
G54D21*
X59251Y-31633D03*
X60039Y-31633D03*
X59251Y-31043D03*
X60039Y-31043D03*
G54D16*
X42677Y-42047D03*
X42085Y-42047D03*
G54D22*
X54055Y-33563D03*
X54055Y-32813D03*
G54D16*
X63306Y-37185D03*
X63898Y-37185D03*
G54D23*
X61811Y-20472D03*
X43700Y-20472D03*
X35826Y-42519D03*
G54D24*
X44311Y-24566D03*
X45295Y-24566D03*
X41358Y-24566D03*
X40374Y-24566D03*
X42342Y-24566D03*
X43326Y-24566D03*
X47263Y-24566D03*
X46279Y-24566D03*
X67972Y-41102D03*
X66988Y-41102D03*
X70925Y-41102D03*
X71909Y-41102D03*
X69940Y-41102D03*
X68956Y-41102D03*
X65019Y-41102D03*
X66003Y-41102D03*
X70196Y-33562D03*
X70196Y-34547D03*
X70196Y-30610D03*
X70196Y-29625D03*
X70196Y-31594D03*
X70196Y-32578D03*
X70196Y-36515D03*
X70196Y-35531D03*
X70196Y-24507D03*
X70196Y-25492D03*
X70196Y-21555D03*
X70196Y-20570D03*
X70196Y-22539D03*
X70196Y-23523D03*
X70196Y-27460D03*
X70196Y-26476D03*
X53523Y-24606D03*
X54507Y-24606D03*
X50570Y-24606D03*
X49586Y-24606D03*
X51555Y-24606D03*
X52539Y-24606D03*
X56476Y-24606D03*
X55492Y-24606D03*
X62618Y-24645D03*
X63602Y-24645D03*
X59665Y-24645D03*
X58681Y-24645D03*
X60649Y-24645D03*
X61633Y-24645D03*
X65570Y-24645D03*
X64586Y-24645D03*
G54D16*
X52697Y-29055D03*
X52105Y-29055D03*
X60833Y-39090D03*
X61425Y-39090D03*
X62274Y-39531D03*
X62866Y-39531D03*
X66851Y-37086D03*
X66259Y-37086D03*
X66831Y-36397D03*
X66239Y-36397D03*
X66103Y-31850D03*
X65511Y-31850D03*
X65256Y-28051D03*
X64664Y-28051D03*
X58544Y-29074D03*
X57952Y-29074D03*
X58544Y-28385D03*
X57952Y-28385D03*
X52736Y-29685D03*
X52144Y-29685D03*
X61924Y-42440D03*
X62516Y-42440D03*
X65904Y-35029D03*
X66496Y-35029D03*
X65668Y-31200D03*
X66260Y-31200D03*
G54D17*
X55433Y-28642D03*
X55433Y-28050D03*
X44921Y-28483D03*
X44921Y-29075D03*
X42480Y-28050D03*
X42480Y-28642D03*
X48897Y-28721D03*
X48897Y-28129D03*
X44744Y-30217D03*
X44744Y-29625D03*
X40275Y-20847D03*
X40275Y-20255D03*
G54D14*
X36614Y-21771D03*
G54D15*
X34842Y-19641D03*
X37244Y-19641D03*
X34842Y-23903D03*
X37244Y-23903D03*
G54D14*
X34842Y-21771D03*
G54D25*
X40732Y-40472D03*
X42732Y-40472D03*
G54D22*
X46377Y-32341D03*
X46377Y-33091D03*
G54D26*
X54641Y-41657D03*
X55641Y-41659D03*
X50649Y-41657D03*
X51649Y-41659D03*
X53645Y-41659D03*
X52645Y-41657D03*
G54D27*
X42539Y-30255D03*
G54D28*
X43326Y-30255D03*
X42736Y-30255D03*
X43130Y-30255D03*
X42932Y-30255D03*
X43523Y-30255D03*
X43525Y-29586D03*
X42935Y-29586D03*
X43131Y-29586D03*
X42738Y-29586D03*
X43328Y-29586D03*
G54D29*
X42541Y-29586D03*
G54D30*
X43031Y-29921D03*
X42755Y-29921D03*
X43307Y-29921D03*
G54D31*
X43031Y-29921D03*
G54D32*
X43562Y-30019D03*
X43562Y-29823D03*
X42500Y-30019D03*
X42500Y-29823D03*
G54D27*
X56102Y-29625D03*
G54D28*
X56889Y-29625D03*
X56299Y-29625D03*
X56693Y-29625D03*
X56495Y-29625D03*
X57086Y-29625D03*
X57088Y-28956D03*
X56498Y-28956D03*
X56694Y-28956D03*
X56301Y-28956D03*
X56891Y-28956D03*
G54D29*
X56104Y-28956D03*
G54D30*
X56594Y-29291D03*
X56318Y-29291D03*
X56870Y-29291D03*
G54D31*
X56594Y-29291D03*
G54D32*
X57125Y-29389D03*
X57125Y-29193D03*
X56063Y-29389D03*
X56063Y-29193D03*
G54D33*
X65767Y-33366D03*
G54D34*
X65767Y-34153D03*
X65767Y-33563D03*
X65767Y-33957D03*
X65767Y-33759D03*
X65767Y-34350D03*
X66437Y-34352D03*
X66437Y-33762D03*
X66437Y-33958D03*
X66437Y-33565D03*
X66437Y-34155D03*
G54D35*
X66437Y-33368D03*
G54D30*
X66102Y-33858D03*
X66102Y-33582D03*
X66102Y-34133D03*
G54D36*
X66102Y-33858D03*
G54D37*
X66004Y-34389D03*
X66200Y-34389D03*
X66004Y-33327D03*
X66200Y-33327D03*
G54D33*
X65078Y-29488D03*
G54D34*
X65078Y-30275D03*
X65078Y-29685D03*
X65078Y-30079D03*
X65078Y-29881D03*
X65078Y-30472D03*
X65748Y-30474D03*
X65748Y-29884D03*
X65748Y-30080D03*
X65748Y-29687D03*
X65748Y-30277D03*
G54D35*
X65748Y-29490D03*
G54D30*
X65413Y-29980D03*
X65413Y-29704D03*
X65413Y-30255D03*
G54D36*
X65413Y-29980D03*
G54D37*
X65315Y-30511D03*
X65511Y-30511D03*
X65315Y-29449D03*
X65511Y-29449D03*
G54D33*
X61795Y-40677D03*
G54D34*
X61795Y-41464D03*
X61795Y-40874D03*
X61795Y-41268D03*
X61795Y-41070D03*
X61795Y-41661D03*
X62464Y-41663D03*
X62464Y-41073D03*
X62464Y-41269D03*
X62464Y-40876D03*
X62464Y-41466D03*
G54D35*
X62464Y-40679D03*
G54D30*
X62129Y-41169D03*
X62129Y-40893D03*
X62129Y-41444D03*
G54D36*
X62129Y-41169D03*
G54D37*
X62031Y-41700D03*
X62227Y-41700D03*
X62031Y-40638D03*
X62227Y-40638D03*
G54D27*
X49901Y-29547D03*
G54D28*
X50688Y-29547D03*
X50098Y-29547D03*
X50492Y-29547D03*
X50294Y-29547D03*
X50885Y-29547D03*
X50887Y-28877D03*
X50297Y-28877D03*
X50493Y-28877D03*
X50100Y-28877D03*
X50690Y-28877D03*
G54D29*
X49903Y-28877D03*
G54D30*
X50393Y-29212D03*
X50118Y-29212D03*
X50669Y-29212D03*
G54D31*
X50393Y-29212D03*
G54D32*
X50924Y-29310D03*
X50924Y-29114D03*
X49862Y-29310D03*
X49862Y-29114D03*
G54D38*
X43523Y-33291D03*
X43523Y-34015D03*
G54D39*
X43523Y-34488D03*
X43523Y-34889D03*
X43523Y-35692D03*
X43523Y-37291D03*
X43523Y-36488D03*
G54D38*
X43523Y-38488D03*
X43523Y-37763D03*
G54D39*
X43523Y-36090D03*
X43523Y-36889D03*
G54D40*
X35681Y-38389D03*
X35681Y-33389D03*
G54D39*
X43523Y-35291D03*
G54D41*
X35681Y-32228D03*
X35681Y-39551D03*
G54D42*
X50059Y-38661D03*
X49389Y-38661D03*
X50059Y-39212D03*
X49389Y-39212D03*
G54D16*
X38768Y-44852D03*
X39360Y-44852D03*
X38768Y-45639D03*
X39360Y-45639D03*
X37391Y-45482D03*
X37983Y-45482D03*
G54D43*
X41663Y-45964D03*
X41663Y-46964D03*
X41663Y-47964D03*
X41663Y-47464D03*
X41663Y-48464D03*
X41663Y-46464D03*
G54D44*
X47982Y-47214D03*
G54D45*
X34931Y-47214D03*
G54D46*
X38080Y-46525D03*
X38277Y-46525D03*
X38277Y-47529D03*
X37885Y-46525D03*
X37687Y-46525D03*
X37490Y-46525D03*
G54D47*
X37381Y-46830D03*
X37381Y-47013D03*
X37381Y-47224D03*
G54D46*
X37490Y-47529D03*
X37687Y-47529D03*
X37885Y-47529D03*
X38080Y-47529D03*
G54D47*
X38385Y-47224D03*
X38385Y-47021D03*
X38385Y-46830D03*
G54D23*
X70561Y-55915D03*
X67805Y-55915D03*
G54D48*
X70364Y-50423D03*
X70364Y-47863D03*
G54D49*
X67508Y-49183D03*
X68258Y-49183D03*
G54D50*
X63710Y-52746D03*
X63710Y-53746D03*
X63710Y-54746D03*
X63710Y-54246D03*
X63710Y-55246D03*
G54D51*
X59685Y-55996D03*
X59685Y-51996D03*
G54D50*
X63710Y-53246D03*
G54D52*
X65590Y-49468D03*
G54D53*
X65206Y-50216D03*
X65462Y-50216D03*
X65718Y-50216D03*
X65974Y-50216D03*
G54D54*
X66338Y-49852D03*
X66338Y-49596D03*
X66338Y-49340D03*
X66338Y-49084D03*
G54D53*
X65974Y-48720D03*
X65718Y-48720D03*
X65462Y-48720D03*
X65206Y-48720D03*
G54D54*
X64842Y-49084D03*
X64842Y-49340D03*
X64842Y-49596D03*
X64842Y-49852D03*
G54D16*
X68061Y-48316D03*
X67469Y-48316D03*
X63662Y-48474D03*
X63070Y-48474D03*
X63671Y-49616D03*
X63079Y-49616D03*
G54D17*
X67549Y-52430D03*
X67549Y-53022D03*
G54D16*
X65906Y-47588D03*
X65314Y-47588D03*
G54D17*
X68297Y-52410D03*
X68297Y-53002D03*
X66781Y-53022D03*
X66781Y-52430D03*
X64507Y-50747D03*
X64507Y-51339D03*
G54D24*
X59340Y-47903D03*
X59340Y-46919D03*
X59340Y-49872D03*
X59340Y-48887D03*
G54D47*
X42401Y-55275D03*
X42401Y-55078D03*
X43405Y-55078D03*
X42401Y-55470D03*
X42401Y-55669D03*
X42401Y-55866D03*
G54D46*
X42706Y-55974D03*
X42889Y-55974D03*
X43100Y-55974D03*
G54D47*
X43405Y-55866D03*
X43405Y-55669D03*
X43405Y-55470D03*
X43405Y-55275D03*
G54D46*
X43100Y-54970D03*
X42897Y-54970D03*
X42706Y-54970D03*
G54D55*
X51555Y-51732D03*
X43090Y-51732D03*
G54D43*
X45807Y-54104D03*
X45807Y-55104D03*
X45807Y-56104D03*
X45807Y-55604D03*
X45807Y-56604D03*
X45807Y-54604D03*
G54D44*
X52125Y-55354D03*
G54D17*
X41358Y-55965D03*
X41358Y-55373D03*
X43208Y-53918D03*
X43208Y-53326D03*
X42500Y-53918D03*
X42500Y-53326D03*
M02*
