G04 #@! TF.FileFunction,Copper,L2,Bot,Signal*
%FSLAX46Y46*%
G04 Gerber Fmt 4.6, Leading zero omitted, Abs format (unit mm)*
G04 Created by KiCad (PCBNEW (2015-08-20 BZR 6109)-product) date Wed 02 Sep 2015 09:03:58 PM PDT*
%MOMM*%
G01*
G04 APERTURE LIST*
%ADD10C,0.150000*%
%ADD11C,1.778000*%
%ADD12C,2.000000*%
%ADD13C,1.524000*%
%ADD14C,1.000760*%
%ADD15R,0.475000X0.750000*%
%ADD16R,0.905000X0.495000*%
%ADD17C,0.780000*%
%ADD18R,4.055000X4.560000*%
%ADD19C,0.400000*%
%ADD20R,4.320000X3.000000*%
%ADD21C,0.700000*%
%ADD22C,1.000000*%
%ADD23C,0.500000*%
%ADD24C,0.450000*%
%ADD25C,0.400000*%
%ADD26C,2.000000*%
%ADD27C,0.350000*%
%ADD28C,0.254000*%
G04 APERTURE END LIST*
D10*
D11*
X144750000Y-71250000D03*
X149250000Y-71250000D03*
X144750000Y-64750000D03*
X149250000Y-64750000D03*
D12*
X119750000Y-113300000D03*
X117250000Y-113300000D03*
X127250000Y-113300000D03*
X129750000Y-113300000D03*
X134750000Y-113300000D03*
X132250000Y-113300000D03*
X122250000Y-113300000D03*
X124750000Y-113300000D03*
X104750000Y-113300000D03*
X102250000Y-113300000D03*
X112250000Y-113300000D03*
X114750000Y-113300000D03*
X109750000Y-113300000D03*
X107250000Y-113300000D03*
X97250000Y-113300000D03*
X99750000Y-113300000D03*
X163250000Y-113300000D03*
X160750000Y-113300000D03*
X148250000Y-113300000D03*
X145750000Y-113300000D03*
X155750000Y-113300000D03*
X158250000Y-113300000D03*
X153250000Y-113300000D03*
X150750000Y-113300000D03*
X140750000Y-113300000D03*
X143250000Y-113300000D03*
D13*
X165730000Y-68060000D03*
X165730000Y-70600000D03*
X165730000Y-73140000D03*
X168270000Y-73140000D03*
X168270000Y-70600000D03*
X168270000Y-68060000D03*
D12*
X169940000Y-90850000D03*
X169940000Y-93350000D03*
X169940000Y-83350000D03*
X169940000Y-80850000D03*
X169940000Y-85850000D03*
X169940000Y-88350000D03*
X169940000Y-98350000D03*
X169940000Y-95850000D03*
D14*
X97700360Y-68699440D03*
X102099640Y-68699440D03*
D15*
X148902500Y-96775000D03*
X148902500Y-100585000D03*
D16*
X145487500Y-101207500D03*
X145487500Y-96152500D03*
D17*
X148220000Y-100680000D03*
X145220000Y-96680000D03*
X146220000Y-96680000D03*
X147220000Y-96680000D03*
X145220000Y-100680000D03*
X146220000Y-98680000D03*
X147220000Y-98680000D03*
X148220000Y-97680000D03*
X148220000Y-96680000D03*
X147220000Y-97680000D03*
X146220000Y-97680000D03*
X145220000Y-97680000D03*
X145220000Y-99680000D03*
X146220000Y-99680000D03*
X147220000Y-99680000D03*
X148220000Y-98680000D03*
X148220000Y-99680000D03*
X147220000Y-100680000D03*
X146220000Y-100680000D03*
X145220000Y-98680000D03*
D18*
X146637500Y-98680000D03*
D15*
X148862500Y-88545000D03*
X148862500Y-92355000D03*
D16*
X145447500Y-92977500D03*
X145447500Y-87922500D03*
D17*
X148180000Y-92450000D03*
X145180000Y-88450000D03*
X146180000Y-88450000D03*
X147180000Y-88450000D03*
X145180000Y-92450000D03*
X146180000Y-90450000D03*
X147180000Y-90450000D03*
X148180000Y-89450000D03*
X148180000Y-88450000D03*
X147180000Y-89450000D03*
X146180000Y-89450000D03*
X145180000Y-89450000D03*
X145180000Y-91450000D03*
X146180000Y-91450000D03*
X147180000Y-91450000D03*
X148180000Y-90450000D03*
X148180000Y-91450000D03*
X147180000Y-92450000D03*
X146180000Y-92450000D03*
X145180000Y-90450000D03*
D18*
X146597500Y-90450000D03*
D15*
X148822500Y-80695000D03*
X148822500Y-84505000D03*
D16*
X145407500Y-85127500D03*
X145407500Y-80072500D03*
D17*
X148140000Y-84600000D03*
X145140000Y-80600000D03*
X146140000Y-80600000D03*
X147140000Y-80600000D03*
X145140000Y-84600000D03*
X146140000Y-82600000D03*
X147140000Y-82600000D03*
X148140000Y-81600000D03*
X148140000Y-80600000D03*
X147140000Y-81600000D03*
X146140000Y-81600000D03*
X145140000Y-81600000D03*
X145140000Y-83600000D03*
X146140000Y-83600000D03*
X147140000Y-83600000D03*
X148140000Y-82600000D03*
X148140000Y-83600000D03*
X147140000Y-84600000D03*
X146140000Y-84600000D03*
X145140000Y-82600000D03*
D18*
X146557500Y-82600000D03*
D19*
X120100000Y-95600000D03*
X119400000Y-95600000D03*
X118700000Y-95600000D03*
X120800000Y-95600000D03*
X121500000Y-95600000D03*
X122200000Y-95600000D03*
X122200000Y-95000000D03*
X121500000Y-95000000D03*
X120800000Y-95000000D03*
X118700000Y-95000000D03*
X119400000Y-95000000D03*
X120100000Y-95000000D03*
X120100000Y-94400000D03*
X119400000Y-94400000D03*
X118700000Y-94400000D03*
X120800000Y-94400000D03*
X121500000Y-94400000D03*
X122200000Y-94400000D03*
X122200000Y-96200000D03*
X121500000Y-96200000D03*
X120800000Y-96200000D03*
X118700000Y-96200000D03*
X119400000Y-96200000D03*
X120100000Y-96200000D03*
X120100000Y-96800000D03*
X119400000Y-96800000D03*
X118700000Y-96800000D03*
X120800000Y-96800000D03*
X121500000Y-96800000D03*
X122200000Y-96800000D03*
D20*
X120500000Y-95600000D03*
D19*
X94200000Y-95200000D03*
X93500000Y-95200000D03*
X92800000Y-95200000D03*
X94900000Y-95200000D03*
X95600000Y-95200000D03*
X96300000Y-95200000D03*
X96300000Y-94600000D03*
X95600000Y-94600000D03*
X94900000Y-94600000D03*
X92800000Y-94600000D03*
X93500000Y-94600000D03*
X94200000Y-94600000D03*
X94200000Y-94000000D03*
X93500000Y-94000000D03*
X92800000Y-94000000D03*
X94900000Y-94000000D03*
X95600000Y-94000000D03*
X96300000Y-94000000D03*
X96300000Y-95800000D03*
X95600000Y-95800000D03*
X94900000Y-95800000D03*
X92800000Y-95800000D03*
X93500000Y-95800000D03*
X94200000Y-95800000D03*
X94200000Y-96400000D03*
X93500000Y-96400000D03*
X92800000Y-96400000D03*
X94900000Y-96400000D03*
X95600000Y-96400000D03*
X96300000Y-96400000D03*
D20*
X94600000Y-95200000D03*
D19*
X131400000Y-96900000D03*
X130700000Y-96900000D03*
X130000000Y-96900000D03*
X132100000Y-96900000D03*
X132800000Y-96900000D03*
X133500000Y-96900000D03*
X133500000Y-96300000D03*
X132800000Y-96300000D03*
X132100000Y-96300000D03*
X130000000Y-96300000D03*
X130700000Y-96300000D03*
X131400000Y-96300000D03*
X131400000Y-95700000D03*
X130700000Y-95700000D03*
X130000000Y-95700000D03*
X132100000Y-95700000D03*
X132800000Y-95700000D03*
X133500000Y-95700000D03*
X133500000Y-97500000D03*
X132800000Y-97500000D03*
X132100000Y-97500000D03*
X130000000Y-97500000D03*
X130700000Y-97500000D03*
X131400000Y-97500000D03*
X131400000Y-98100000D03*
X130700000Y-98100000D03*
X130000000Y-98100000D03*
X132100000Y-98100000D03*
X132800000Y-98100000D03*
X133500000Y-98100000D03*
D20*
X131800000Y-96900000D03*
D19*
X107700000Y-95800000D03*
X107000000Y-95800000D03*
X106300000Y-95800000D03*
X108400000Y-95800000D03*
X109100000Y-95800000D03*
X109800000Y-95800000D03*
X109800000Y-95200000D03*
X109100000Y-95200000D03*
X108400000Y-95200000D03*
X106300000Y-95200000D03*
X107000000Y-95200000D03*
X107700000Y-95200000D03*
X107700000Y-94600000D03*
X107000000Y-94600000D03*
X106300000Y-94600000D03*
X108400000Y-94600000D03*
X109100000Y-94600000D03*
X109800000Y-94600000D03*
X109800000Y-96400000D03*
X109100000Y-96400000D03*
X108400000Y-96400000D03*
X106300000Y-96400000D03*
X107000000Y-96400000D03*
X107700000Y-96400000D03*
X107700000Y-97000000D03*
X107000000Y-97000000D03*
X106300000Y-97000000D03*
X108400000Y-97000000D03*
X109100000Y-97000000D03*
X109800000Y-97000000D03*
D20*
X108100000Y-95800000D03*
D21*
X120599200Y-75412600D03*
X118338600Y-76733400D03*
X129794000Y-81711800D03*
X128300000Y-87050000D03*
X128850000Y-97750000D03*
X131500000Y-101400000D03*
X128400000Y-105900002D03*
X132300000Y-101400000D03*
X134000000Y-101500000D03*
X128143000Y-92176600D03*
X129450000Y-87600000D03*
X121300000Y-73000000D03*
X124028200Y-79603600D03*
X130124200Y-80568800D03*
X138303000Y-84632800D03*
X141100000Y-86000000D03*
X132300000Y-87700000D03*
X134600000Y-82000000D03*
X135600000Y-101200000D03*
X129600000Y-104800000D03*
X127600000Y-104600000D03*
X123500000Y-87700000D03*
X124200000Y-100400000D03*
X116750000Y-100150000D03*
X127450000Y-100250000D03*
X121700000Y-106050000D03*
X118900000Y-106000000D03*
X117000000Y-104950000D03*
X115800000Y-87650000D03*
X109700000Y-87100000D03*
X106500000Y-87800000D03*
X102600000Y-87600000D03*
X99200000Y-98300000D03*
X95900000Y-105000000D03*
X94100000Y-105100000D03*
X92200000Y-104900000D03*
X91000000Y-99800000D03*
X96200000Y-86800000D03*
X92500000Y-86100000D03*
X90100000Y-86500000D03*
X161467800Y-78714600D03*
X151384000Y-84251800D03*
X170357800Y-106730800D03*
X113995200Y-68224400D03*
X117576600Y-68199000D03*
X112217200Y-74523600D03*
X126288800Y-75209400D03*
X144000000Y-94700000D03*
X143450000Y-86750000D03*
X141050000Y-80150000D03*
X122707400Y-70713600D03*
X128400000Y-66450000D03*
X127350000Y-87950000D03*
X150900000Y-73050000D03*
X138400000Y-67800000D03*
X134300000Y-70700000D03*
X142500000Y-70800000D03*
X103400000Y-99000000D03*
X112700000Y-99300000D03*
X106500000Y-105750000D03*
X110700000Y-105000000D03*
X112300000Y-78900000D03*
X109500000Y-78700000D03*
X105800000Y-72800000D03*
X114200000Y-74600000D03*
X111900000Y-64000000D03*
X161900000Y-102600000D03*
X114700000Y-84800860D03*
X107851200Y-83000000D03*
X90700000Y-73400000D03*
X98900000Y-74000000D03*
X140843000Y-87045800D03*
X139900000Y-80200000D03*
X133350000Y-66550000D03*
X140360400Y-95605600D03*
X138950000Y-80100000D03*
X132399700Y-66450300D03*
X160700000Y-68150000D03*
X152000000Y-78950000D03*
X137300000Y-101300000D03*
X141376400Y-95783400D03*
X144475200Y-102412800D03*
X140970000Y-104419400D03*
X153700000Y-97900000D03*
X167600000Y-91900000D03*
X166800000Y-80800000D03*
X167082896Y-85850000D03*
X134200000Y-66550000D03*
X134100000Y-69100000D03*
X128000000Y-70400000D03*
X128000000Y-72400000D03*
X146100000Y-73500000D03*
X154700000Y-63600000D03*
X115200000Y-64200000D03*
X130100000Y-92050000D03*
X131700000Y-92000000D03*
X151950000Y-75450000D03*
X115499998Y-100499998D03*
X126100000Y-85700000D03*
X105700000Y-110800000D03*
X125900000Y-110800000D03*
X125599998Y-105200000D03*
X126700000Y-98800000D03*
X127200000Y-96400000D03*
X136900000Y-106900000D03*
X115851959Y-110800000D03*
X113200000Y-105900000D03*
X135900000Y-103800000D03*
X89600000Y-106400000D03*
X89600000Y-102900000D03*
X113500000Y-104750000D03*
X101700000Y-91600000D03*
X103100000Y-92000000D03*
X100200000Y-103900000D03*
X101600000Y-102700000D03*
X92000000Y-84900000D03*
X90100000Y-85300000D03*
X97300000Y-86100000D03*
X99100000Y-86100000D03*
X107900000Y-86100000D03*
X109100000Y-80700000D03*
X90100000Y-91300000D03*
X90200000Y-93000000D03*
X134137400Y-80822800D03*
X124714000Y-77952600D03*
X117300000Y-66700000D03*
X117750000Y-64100000D03*
X130650000Y-87950000D03*
X132550000Y-92100000D03*
X146200000Y-75250000D03*
X152350000Y-69500000D03*
X142050000Y-72150000D03*
X138100000Y-71550000D03*
X130100000Y-66600000D03*
X130050000Y-71300000D03*
X110600000Y-74300000D03*
X101300000Y-73700000D03*
X124000000Y-109200000D03*
X126700000Y-108800000D03*
X134400000Y-89700000D03*
X124500000Y-87600000D03*
X135200000Y-96900000D03*
X128154990Y-102400000D03*
X129445010Y-102900000D03*
X126700000Y-108800000D03*
X126800000Y-105600000D03*
X124000000Y-109200000D03*
X122119730Y-100400000D03*
X115858619Y-108900000D03*
X116000000Y-105900000D03*
X92450000Y-100950000D03*
X112900000Y-100450000D03*
X109800000Y-100500000D03*
X103150000Y-107000000D03*
X103500000Y-104550000D03*
X104050000Y-100900000D03*
X106150000Y-101000000D03*
X91005900Y-110894100D03*
X89400000Y-82600000D03*
X92000000Y-82800000D03*
X142697200Y-104622600D03*
X170281600Y-102209600D03*
X161200000Y-92300000D03*
X174500000Y-77800000D03*
X95905715Y-74114567D03*
X121920000Y-67640200D03*
X114706400Y-67030600D03*
X98526600Y-67056000D03*
X91217800Y-96569200D03*
X94300000Y-100500000D03*
X91200000Y-105100000D03*
X95300000Y-100400000D03*
X97600000Y-101400000D03*
X127750000Y-62850000D03*
X117050000Y-63550000D03*
X140792200Y-111455200D03*
X138303000Y-85953600D03*
X126899600Y-63699600D03*
X101700000Y-76400000D03*
X104775000Y-85596130D03*
X122072400Y-69164200D03*
X114884200Y-69392800D03*
X110413800Y-69392800D03*
X105206800Y-97129600D03*
X107800000Y-103600000D03*
X105100000Y-102000000D03*
X108900000Y-103900000D03*
X111800000Y-103800000D03*
X102000002Y-83800000D03*
X111963200Y-68173600D03*
X122885200Y-68300600D03*
X103987600Y-94386400D03*
X145338800Y-115392200D03*
X137744200Y-86995000D03*
X124866400Y-63830200D03*
X117600000Y-97050000D03*
X132410200Y-81838800D03*
X120179980Y-100800000D03*
X117900000Y-100350000D03*
X121100000Y-101799996D03*
X122700000Y-101300000D03*
X116950000Y-90950000D03*
X133248400Y-81635600D03*
X137134600Y-87782400D03*
X122599500Y-66699500D03*
X150650000Y-116550000D03*
X173700000Y-71200000D03*
X125400000Y-87100000D03*
X120600000Y-85800000D03*
X122099999Y-76499999D03*
X125222000Y-96366767D03*
D22*
X152349200Y-86918800D02*
X149818000Y-89450000D01*
D23*
X135839200Y-89255600D02*
X129794000Y-83210400D01*
X155750000Y-113300000D02*
X155750000Y-111655600D01*
X119659400Y-75412600D02*
X120599200Y-75412600D01*
X118338600Y-76733400D02*
X119659400Y-75412600D01*
X129794000Y-83210400D02*
X129794000Y-81711800D01*
X135890000Y-96443800D02*
X135839200Y-89255600D01*
X146481800Y-107035600D02*
X135890000Y-96443800D01*
X152730200Y-107035600D02*
X146481800Y-107035600D01*
X155750000Y-111655600D02*
X152730200Y-107035600D01*
D24*
X128300000Y-87050000D02*
X128200000Y-86950000D01*
X128200000Y-86950000D02*
X127000000Y-86950000D01*
X127000000Y-86950000D02*
X126350000Y-87600000D01*
X126350000Y-87600000D02*
X126350000Y-93750000D01*
X126350000Y-93750000D02*
X128850000Y-96250000D01*
X128850000Y-96250000D02*
X128850000Y-97750000D01*
X131150001Y-105049999D02*
X129750000Y-106450000D01*
X129750000Y-106450000D02*
X129750000Y-113300000D01*
X131500000Y-101400000D02*
X131150001Y-101749999D01*
X131150001Y-101749999D02*
X131150001Y-105049999D01*
X128400000Y-106394976D02*
X128400000Y-105900002D01*
X127250000Y-113300000D02*
X128400000Y-112150000D01*
X128400000Y-112150000D02*
X128400000Y-106394976D01*
X132200000Y-101994974D02*
X132250000Y-102044974D01*
X132250000Y-102044974D02*
X132250000Y-113300000D01*
X132300000Y-101400000D02*
X132300000Y-101894974D01*
X132300000Y-101894974D02*
X132200000Y-101994974D01*
X134000000Y-101500000D02*
X134750000Y-102250000D01*
X134750000Y-102250000D02*
X134750000Y-113300000D01*
D25*
X128800000Y-91519600D02*
X128800000Y-88250000D01*
X128143000Y-92176600D02*
X128800000Y-91519600D01*
X128800000Y-88250000D02*
X129450000Y-87600000D01*
D24*
X128800000Y-88250000D02*
X129450000Y-87600000D01*
D23*
X121649999Y-73349999D02*
X121300000Y-73000000D01*
X124028200Y-75728200D02*
X121649999Y-73349999D01*
X124028200Y-79603600D02*
X124028200Y-75728200D01*
X136652000Y-90551000D02*
X136525000Y-88798400D01*
X160750000Y-111677200D02*
X155219400Y-106146600D01*
X155219400Y-106146600D02*
X146862800Y-106146600D01*
X146862800Y-106146600D02*
X136652000Y-96139000D01*
X136652000Y-96139000D02*
X136652000Y-90551000D01*
X160750000Y-113300000D02*
X160750000Y-111677200D01*
X130824724Y-81253960D02*
X130124200Y-80568800D01*
X130824724Y-82752560D02*
X130824724Y-81253960D01*
X136525000Y-88798400D02*
X130824724Y-82752560D01*
D25*
X138488875Y-84818675D02*
X141100000Y-86000000D01*
X138303000Y-84632800D02*
X138488875Y-84818675D01*
D26*
X151384000Y-84251800D02*
X151333200Y-84251800D01*
D24*
X117551200Y-68224400D02*
X113995200Y-68224400D01*
X117576600Y-68199000D02*
X117551200Y-68224400D01*
X106500000Y-105750000D02*
X106500000Y-105550000D01*
D25*
X109500000Y-78700000D02*
X109500000Y-78800000D01*
D26*
X114700000Y-84800860D02*
X114700000Y-84700000D01*
X107800000Y-82948800D02*
X107800000Y-82900000D01*
X107851200Y-83000000D02*
X107800000Y-82948800D01*
X90700000Y-73400000D02*
X90700000Y-73600000D01*
D24*
X133350000Y-66550000D02*
X133350000Y-71500000D01*
X141043000Y-87245800D02*
X140843000Y-87045800D01*
X140000000Y-78600000D02*
X139900000Y-80200000D01*
X133150000Y-71700000D02*
X140000000Y-78600000D01*
D25*
X140100000Y-95730800D02*
X140360400Y-95605600D01*
X140500000Y-95330800D02*
X140100000Y-95730800D01*
X140500000Y-88450000D02*
X140500000Y-95330800D01*
D24*
X140500000Y-88450000D02*
X141043000Y-87245800D01*
X133350000Y-71500000D02*
X133150000Y-71700000D01*
D25*
X139200000Y-78950000D02*
X138950000Y-80100000D01*
X132200000Y-71950000D02*
X139200000Y-78950000D01*
X132499700Y-66550300D02*
X132200000Y-71950000D01*
X132399700Y-66450300D02*
X132499700Y-66550300D01*
D23*
X160790000Y-68060000D02*
X165730000Y-68060000D01*
X160700000Y-68150000D02*
X160790000Y-68060000D01*
X164610000Y-76100000D02*
X168270000Y-73140000D01*
X154150000Y-76100000D02*
X164610000Y-76100000D01*
X152000000Y-78950000D02*
X154150000Y-76100000D01*
D25*
X137649999Y-101649999D02*
X137300000Y-101300000D01*
X140419400Y-104419400D02*
X137649999Y-101649999D01*
X140970000Y-104419400D02*
X140419400Y-104419400D01*
X141376400Y-99314000D02*
X141376400Y-95783400D01*
X144475200Y-102412800D02*
X141376400Y-99314000D01*
D22*
X153700000Y-97900000D02*
X147417500Y-97900000D01*
X147417500Y-97900000D02*
X146637500Y-98680000D01*
X169940000Y-90850000D02*
X168650000Y-90850000D01*
X168650000Y-90850000D02*
X167600000Y-91900000D01*
D23*
X147400500Y-97917000D02*
X146637500Y-98680000D01*
D22*
X166800000Y-80800000D02*
X169890000Y-80800000D01*
X169890000Y-80800000D02*
X169940000Y-80850000D01*
D23*
X148307500Y-80850000D02*
X146557500Y-82600000D01*
D22*
X169940000Y-85850000D02*
X167082896Y-85850000D01*
D23*
X134200000Y-66650000D02*
X134200000Y-66550000D01*
X134150000Y-66700000D02*
X134200000Y-66650000D01*
X134150000Y-69050000D02*
X134150000Y-66700000D01*
X134100000Y-69100000D02*
X134150000Y-69050000D01*
X128000000Y-72400000D02*
X128000000Y-70400000D01*
X144750000Y-71250000D02*
X144750000Y-64750000D01*
X144750000Y-71250000D02*
X144850000Y-71250000D01*
X146100000Y-72500000D02*
X146100000Y-73500000D01*
X144850000Y-71250000D02*
X146100000Y-72500000D01*
D25*
X154400000Y-63600000D02*
X154700000Y-63600000D01*
X152600000Y-61800000D02*
X154400000Y-63600000D01*
X117600000Y-61800000D02*
X152600000Y-61800000D01*
X115200000Y-64200000D02*
X117600000Y-61800000D01*
D24*
X131650000Y-92050000D02*
X130100000Y-92050000D01*
X131700000Y-92000000D02*
X131650000Y-92050000D01*
D23*
X163820000Y-75050000D02*
X165730000Y-73140000D01*
X152350000Y-75050000D02*
X163820000Y-75050000D01*
X151950000Y-75450000D02*
X152350000Y-75050000D01*
D24*
X115499998Y-100994972D02*
X115499998Y-100499998D01*
X113500000Y-104750000D02*
X115499998Y-102750002D01*
X115499998Y-102750002D02*
X115499998Y-100994972D01*
D23*
X129000000Y-85700000D02*
X130650000Y-87350000D01*
X130650000Y-87350000D02*
X130650000Y-87950000D01*
X126100000Y-85700000D02*
X129000000Y-85700000D01*
D24*
X100200000Y-105300000D02*
X105700000Y-110800000D01*
X100200000Y-103900000D02*
X100200000Y-105300000D01*
X125599998Y-105200000D02*
X125599998Y-110499998D01*
X125599998Y-110499998D02*
X125900000Y-110800000D01*
X127200000Y-96400000D02*
X127200000Y-98300000D01*
X127200000Y-98300000D02*
X126700000Y-98800000D01*
D22*
X107900000Y-86100000D02*
X107900000Y-85400000D01*
X107900000Y-85400000D02*
X109421208Y-83878792D01*
X109421208Y-83878792D02*
X109421208Y-82300879D01*
X109421208Y-82300879D02*
X109100000Y-81979671D01*
X109100000Y-81979671D02*
X109100000Y-80700000D01*
D24*
X136550001Y-106550001D02*
X136900000Y-106900000D01*
X135900000Y-103800000D02*
X135900000Y-105900000D01*
X135900000Y-105900000D02*
X136550001Y-106550001D01*
X115213618Y-109513618D02*
X115851959Y-110151959D01*
X115851959Y-110151959D02*
X115851959Y-110800000D01*
X113200000Y-105900000D02*
X115213618Y-107913618D01*
X115213618Y-107913618D02*
X115213618Y-109513618D01*
D23*
X134137400Y-80822800D02*
X132207000Y-77698600D01*
X132207000Y-77698600D02*
X124968000Y-77698600D01*
X124968000Y-77698600D02*
X124714000Y-77952600D01*
D22*
X89600000Y-102900000D02*
X89600000Y-106400000D01*
D24*
X102100000Y-92000000D02*
X103100000Y-92000000D01*
X102100000Y-92000000D02*
X101700000Y-91600000D01*
X100400000Y-103900000D02*
X100200000Y-103900000D01*
X101600000Y-102700000D02*
X100400000Y-103900000D01*
D25*
X90500000Y-84900000D02*
X92000000Y-84900000D01*
X90100000Y-85300000D02*
X90500000Y-84900000D01*
D27*
X99100000Y-86100000D02*
X97300000Y-86100000D01*
X90100000Y-92900000D02*
X90100000Y-91300000D01*
X90200000Y-93000000D02*
X90100000Y-92900000D01*
D23*
X117750000Y-64300000D02*
X117750000Y-64100000D01*
X117300000Y-64750000D02*
X117750000Y-64300000D01*
X117300000Y-66700000D02*
X117300000Y-64750000D01*
D24*
X132650000Y-89950000D02*
X130650000Y-87950000D01*
X132650000Y-92000000D02*
X132650000Y-89950000D01*
X132550000Y-92100000D02*
X132650000Y-92000000D01*
D23*
X165730000Y-70600000D02*
X163500000Y-70600000D01*
X142050000Y-73700000D02*
X142050000Y-72150000D01*
X143400000Y-75050000D02*
X142050000Y-73700000D01*
X146000000Y-75050000D02*
X143400000Y-75050000D01*
X146200000Y-75250000D02*
X146000000Y-75050000D01*
X162400000Y-69500000D02*
X152350000Y-69500000D01*
X163500000Y-70600000D02*
X162400000Y-69500000D01*
X138700000Y-72150000D02*
X142050000Y-72150000D01*
X138100000Y-71550000D02*
X138700000Y-72150000D01*
X130100000Y-66600000D02*
X130100000Y-68050000D01*
X130100000Y-68050000D02*
X130050000Y-71300000D01*
X101900000Y-74300000D02*
X110600000Y-74300000D01*
X101300000Y-73700000D02*
X101900000Y-74300000D01*
X134400000Y-90194974D02*
X134400000Y-89700000D01*
X134400000Y-96325400D02*
X134400000Y-90194974D01*
X142697200Y-104622600D02*
X134400000Y-96325400D01*
X123500000Y-90400000D02*
X124500000Y-89400000D01*
X124500000Y-89400000D02*
X124500000Y-87600000D01*
X123500000Y-99019730D02*
X123500000Y-90400000D01*
X122119730Y-100400000D02*
X123500000Y-99019730D01*
D26*
X89400000Y-82600000D02*
X91800000Y-82600000D01*
X91800000Y-82600000D02*
X92000000Y-82800000D01*
D24*
X129445010Y-102900000D02*
X128654990Y-102900000D01*
X128654990Y-102900000D02*
X128154990Y-102400000D01*
X126800000Y-105600000D02*
X126800000Y-108700000D01*
X126800000Y-108700000D02*
X126700000Y-108800000D01*
X121769731Y-101469731D02*
X124000000Y-103700000D01*
X124000000Y-103700000D02*
X124000000Y-109200000D01*
X122119730Y-100400000D02*
X121769731Y-100749999D01*
X121769731Y-100749999D02*
X121769731Y-101469731D01*
X116000000Y-105900000D02*
X116000000Y-108758619D01*
X116000000Y-108758619D02*
X115858619Y-108900000D01*
X87858600Y-100900000D02*
X92400000Y-100900000D01*
X92400000Y-100900000D02*
X92450000Y-100950000D01*
X112850000Y-100500000D02*
X109800000Y-100500000D01*
X112900000Y-100450000D02*
X112850000Y-100500000D01*
X109300000Y-101000000D02*
X106150000Y-101000000D01*
X109800000Y-100500000D02*
X109300000Y-101000000D01*
X103150000Y-104900000D02*
X103150000Y-107000000D01*
X103500000Y-104550000D02*
X103150000Y-104900000D01*
X106050000Y-100900000D02*
X104050000Y-100900000D01*
X106150000Y-101000000D02*
X106050000Y-100900000D01*
D26*
X90905900Y-110794100D02*
X91005900Y-110894100D01*
X89400000Y-82600000D02*
X89400000Y-82700000D01*
X89400000Y-82700000D02*
X89400000Y-82700000D01*
X89400000Y-82700000D02*
X91800000Y-82600000D01*
X89500000Y-82701000D02*
X87858600Y-84201000D01*
X87858600Y-84201000D02*
X87858600Y-83235800D01*
X89400000Y-82700000D02*
X89401000Y-82701000D01*
X89401000Y-82701000D02*
X89500000Y-82701000D01*
X169940000Y-98350000D02*
X171146400Y-98350000D01*
X171146400Y-98350000D02*
X173964600Y-101168200D01*
X173964600Y-101168200D02*
X173964600Y-109905800D01*
X173964600Y-109905800D02*
X164871400Y-118999000D01*
X164871400Y-118999000D02*
X99110800Y-118999000D01*
X99110800Y-118999000D02*
X90905900Y-110794100D01*
X90905900Y-110794100D02*
X87858600Y-107746800D01*
X87858600Y-107746800D02*
X87858600Y-100900000D01*
X87858600Y-100900000D02*
X87858600Y-83235800D01*
X87858600Y-83235800D02*
X87858600Y-83235800D01*
X87858600Y-83235800D02*
X87579200Y-82956400D01*
D23*
X169940000Y-98350000D02*
X169940000Y-101868000D01*
X169940000Y-101868000D02*
X170281600Y-102209600D01*
D26*
X169940000Y-88350000D02*
X165150000Y-88350000D01*
X165150000Y-88350000D02*
X161200000Y-92300000D01*
X169940000Y-83350000D02*
X172950000Y-83350000D01*
X174500000Y-81800000D02*
X174500000Y-77800000D01*
X172950000Y-83350000D02*
X174500000Y-81800000D01*
X169940000Y-88350000D02*
X172550000Y-88350000D01*
X173150000Y-83350000D02*
X169940000Y-83350000D01*
X174300000Y-84500000D02*
X173150000Y-83350000D01*
X174300000Y-86600000D02*
X174300000Y-84500000D01*
X172550000Y-88350000D02*
X174300000Y-86600000D01*
X169940000Y-93350000D02*
X172550000Y-93350000D01*
X173250000Y-88350000D02*
X169940000Y-88350000D01*
X174400000Y-89500000D02*
X173250000Y-88350000D01*
X174400000Y-91500000D02*
X174400000Y-89500000D01*
X172550000Y-93350000D02*
X174400000Y-91500000D01*
X169940000Y-98350000D02*
X172850000Y-98350000D01*
X172850000Y-93350000D02*
X169940000Y-93350000D01*
X174300000Y-94800000D02*
X172850000Y-93350000D01*
X174300000Y-96900000D02*
X174300000Y-94800000D01*
X172850000Y-98350000D02*
X174300000Y-96900000D01*
D23*
X96139000Y-85344000D02*
X96139000Y-75921025D01*
D24*
X96139000Y-74347852D02*
X95905715Y-74114567D01*
X96139000Y-75921025D02*
X96139000Y-74347852D01*
D23*
X121691400Y-67411600D02*
X121920000Y-67640200D01*
X115087400Y-67411600D02*
X121691400Y-67411600D01*
X114706400Y-67030600D02*
X115087400Y-67411600D01*
X91294000Y-88161800D02*
X96139000Y-85344000D01*
X91294000Y-96493000D02*
X91294000Y-88161800D01*
X91217800Y-96569200D02*
X91294000Y-96493000D01*
D24*
X99750000Y-111950000D02*
X99750000Y-113300000D01*
X95000000Y-107200000D02*
X99750000Y-111950000D01*
X95000000Y-101100000D02*
X95000000Y-107200000D01*
X94300000Y-100500000D02*
X95000000Y-101100000D01*
X91100000Y-107150000D02*
X97250000Y-113300000D01*
X91100000Y-105200000D02*
X91100000Y-107150000D01*
X91200000Y-105100000D02*
X91100000Y-105200000D01*
X102250000Y-111850000D02*
X102250000Y-113300000D01*
X96800000Y-106400000D02*
X102250000Y-111850000D01*
X96800000Y-101900000D02*
X96800000Y-106400000D01*
X95300000Y-100400000D02*
X96800000Y-101900000D01*
X104750000Y-111550000D02*
X104750000Y-113300000D01*
X98800000Y-105600000D02*
X104750000Y-111550000D01*
X98800000Y-102200000D02*
X98800000Y-105600000D01*
X97600000Y-101400000D02*
X98800000Y-102200000D01*
D25*
X127750000Y-62850000D02*
X127750000Y-62900000D01*
X127750000Y-62900000D02*
X117750000Y-62850000D01*
X117750000Y-62850000D02*
X117050000Y-63550000D01*
X126899600Y-63699600D02*
X127300000Y-64100000D01*
X127300000Y-64100000D02*
X127175000Y-72875000D01*
X127175000Y-72875000D02*
X128050000Y-73750000D01*
X128050000Y-73750000D02*
X131400000Y-72250000D01*
X131400000Y-72250000D02*
X138050000Y-78900000D01*
X138050000Y-78900000D02*
X137591800Y-79502000D01*
X137591800Y-79502000D02*
X137337800Y-81381600D01*
X137337800Y-81381600D02*
X137464800Y-85064600D01*
X137464800Y-85064600D02*
X138153000Y-85903600D01*
X138153000Y-85903600D02*
X138303000Y-85953600D01*
X140792200Y-111455200D02*
X140750000Y-113300000D01*
X140792200Y-111455200D02*
X140792200Y-111455200D01*
D24*
X100076000Y-74752200D02*
X100076000Y-74776000D01*
X100076000Y-74776000D02*
X101700000Y-76400000D01*
X104775000Y-85596130D02*
X104775000Y-96697800D01*
X104775000Y-96697800D02*
X105206800Y-97129600D01*
D23*
X115112800Y-69164200D02*
X122072400Y-69164200D01*
X114884200Y-69392800D02*
X115112800Y-69164200D01*
X103555800Y-69392800D02*
X110413800Y-69392800D01*
X100076000Y-72872600D02*
X103555800Y-69392800D01*
X100076000Y-74752200D02*
X100076000Y-72872600D01*
D24*
X109750000Y-110650000D02*
X109750000Y-113300000D01*
X108100000Y-109000000D02*
X109750000Y-110650000D01*
X108100000Y-103900000D02*
X108100000Y-109000000D01*
X107800000Y-103600000D02*
X108100000Y-103900000D01*
X107250000Y-110750000D02*
X107250000Y-113300000D01*
X105200000Y-108700000D02*
X107250000Y-110750000D01*
X105200000Y-102100000D02*
X105200000Y-108700000D01*
X105100000Y-102000000D02*
X105200000Y-102100000D01*
X112250000Y-111050000D02*
X112250000Y-113300000D01*
X109500000Y-108300000D02*
X112250000Y-111050000D01*
X109500000Y-104500000D02*
X109500000Y-108300000D01*
X108900000Y-103900000D02*
X109500000Y-104500000D01*
X114750000Y-110150000D02*
X114750000Y-113300000D01*
X112000000Y-107400000D02*
X114750000Y-110150000D01*
X112000000Y-104000000D02*
X112000000Y-107400000D01*
X111800000Y-103800000D02*
X112000000Y-104000000D01*
X102350001Y-84149999D02*
X102000002Y-83800000D01*
X103987600Y-85787598D02*
X102350001Y-84149999D01*
X103987600Y-94386400D02*
X103987600Y-85787598D01*
X111963200Y-68757800D02*
X111963200Y-68173600D01*
X113563400Y-70358000D02*
X111963200Y-68757800D01*
X121894600Y-70358000D02*
X113563400Y-70358000D01*
X122859800Y-69392800D02*
X121894600Y-70358000D01*
X122859800Y-68326000D02*
X122859800Y-69392800D01*
X122885200Y-68300600D02*
X122859800Y-68326000D01*
D23*
X103987600Y-94386400D02*
X103784400Y-94183200D01*
D25*
X145750000Y-113300000D02*
X145750000Y-114981000D01*
X145750000Y-114981000D02*
X145338800Y-115392200D01*
X136601200Y-86156800D02*
X137744200Y-86995000D01*
X136575800Y-81610200D02*
X136601200Y-86156800D01*
X136800000Y-78950000D02*
X136575800Y-81610200D01*
X131400000Y-73150000D02*
X136800000Y-78950000D01*
X127950000Y-74558286D02*
X131400000Y-73150000D01*
X126500000Y-73100000D02*
X127950000Y-74558286D01*
X126600000Y-65500000D02*
X126500000Y-73100000D01*
X124866400Y-63830200D02*
X126600000Y-65500000D01*
D24*
X117600000Y-93850000D02*
X117600000Y-97050000D01*
X118700000Y-92750000D02*
X117600000Y-93850000D01*
X118846600Y-90576400D02*
X118700000Y-92750000D01*
X121005600Y-88900000D02*
X118846600Y-90576400D01*
X127914400Y-79832200D02*
X121005600Y-88900000D01*
X132410200Y-81838800D02*
X131241800Y-79585775D01*
X131241800Y-79585775D02*
X127914400Y-79832200D01*
X119750000Y-113300000D02*
X119750000Y-101229980D01*
X119829981Y-101149999D02*
X120179980Y-100800000D01*
X119750000Y-101229980D02*
X119829981Y-101149999D01*
X117250000Y-110350000D02*
X117250000Y-113300000D01*
X118050000Y-109550000D02*
X117250000Y-110350000D01*
X118050000Y-100500000D02*
X118050000Y-109550000D01*
X117900000Y-100350000D02*
X118050000Y-100500000D01*
X123249999Y-112300001D02*
X123249999Y-103949995D01*
X122250000Y-113300000D02*
X123249999Y-112300001D01*
X123249999Y-103949995D02*
X121449999Y-102149995D01*
X121449999Y-102149995D02*
X121100000Y-101799996D01*
X122700000Y-101300000D02*
X124750000Y-103350000D01*
X124750000Y-103350000D02*
X124750000Y-113300000D01*
X117652800Y-90195400D02*
X116950000Y-90950000D01*
X118301600Y-89660800D02*
X117652800Y-90195400D01*
X120192800Y-88188800D02*
X118301600Y-89660800D01*
X120929400Y-86791800D02*
X120192800Y-88188800D01*
X122859800Y-84759800D02*
X120929400Y-86791800D01*
X127203200Y-78562200D02*
X122859800Y-84759800D01*
X131700200Y-78536800D02*
X127203200Y-78562200D01*
X133248400Y-81635600D02*
X131700200Y-78536800D01*
D25*
X122599500Y-66699500D02*
X122649000Y-66650000D01*
X122649000Y-66650000D02*
X125050000Y-66650000D01*
X125050000Y-66650000D02*
X125850000Y-67450000D01*
X125850000Y-67450000D02*
X125900000Y-73450000D01*
X125900000Y-73450000D02*
X127850000Y-75310345D01*
X127850000Y-75310345D02*
X131300000Y-74000000D01*
X131300000Y-74000000D02*
X135900000Y-79100000D01*
X135900000Y-79100000D02*
X135788400Y-81381600D01*
X135788400Y-81381600D02*
X135864600Y-86309200D01*
X135864600Y-86309200D02*
X137134600Y-87782400D01*
X151250000Y-113800000D02*
X150750000Y-113300000D01*
X151250000Y-115950000D02*
X151250000Y-113800000D01*
X150650000Y-116550000D02*
X151250000Y-115950000D01*
D23*
X173100000Y-70600000D02*
X168270000Y-70600000D01*
X173700000Y-71200000D02*
X173100000Y-70600000D01*
X125222000Y-87278000D02*
X125400000Y-87100000D01*
X125222000Y-96366767D02*
X125222000Y-87278000D01*
X120949999Y-85450001D02*
X120600000Y-85800000D01*
X122099999Y-76499999D02*
X122099999Y-84300001D01*
X122099999Y-84300001D02*
X120949999Y-85450001D01*
D28*
G36*
X117321790Y-61128339D02*
X117321788Y-61128340D01*
X117321789Y-61128340D01*
X117085933Y-61285933D01*
X117085931Y-61285936D01*
X115048997Y-63322869D01*
X115026319Y-63322849D01*
X114703869Y-63456082D01*
X114456949Y-63702571D01*
X114323153Y-64024789D01*
X114322849Y-64373681D01*
X114456082Y-64696131D01*
X114702571Y-64943051D01*
X115024789Y-65076847D01*
X115373681Y-65077151D01*
X115696131Y-64943918D01*
X115943051Y-64697429D01*
X116076847Y-64375211D01*
X116076868Y-64351266D01*
X116344009Y-64084125D01*
X116552571Y-64293051D01*
X116659204Y-64337329D01*
X116582146Y-64452655D01*
X116523000Y-64750000D01*
X116523000Y-66284330D01*
X116423153Y-66524789D01*
X116423057Y-66634600D01*
X115491691Y-66634600D01*
X115450318Y-66534469D01*
X115203829Y-66287549D01*
X114881611Y-66153753D01*
X114532719Y-66153449D01*
X114210269Y-66286682D01*
X113963349Y-66533171D01*
X113829553Y-66855389D01*
X113829249Y-67204281D01*
X113962482Y-67526731D01*
X114208971Y-67773651D01*
X114451181Y-67874225D01*
X114537978Y-67961022D01*
X114790055Y-68129454D01*
X115087400Y-68188600D01*
X121228260Y-68188600D01*
X121422571Y-68383251D01*
X121432081Y-68387200D01*
X115112800Y-68387200D01*
X114815455Y-68446346D01*
X114711734Y-68515650D01*
X114710519Y-68515649D01*
X114388069Y-68648882D01*
X114141149Y-68895371D01*
X114007353Y-69217589D01*
X114007049Y-69566481D01*
X114023378Y-69606000D01*
X113874889Y-69606000D01*
X112774809Y-68505921D01*
X112840047Y-68348811D01*
X112840351Y-67999919D01*
X112707118Y-67677469D01*
X112460629Y-67430549D01*
X112138411Y-67296753D01*
X111789519Y-67296449D01*
X111467069Y-67429682D01*
X111220149Y-67676171D01*
X111086353Y-67998389D01*
X111086049Y-68347281D01*
X111211200Y-68650171D01*
X111211200Y-68757800D01*
X111268443Y-69045578D01*
X111431456Y-69289544D01*
X113031656Y-70889745D01*
X113147435Y-70967105D01*
X113275622Y-71052757D01*
X113563400Y-71110000D01*
X121894600Y-71110000D01*
X122182378Y-71052757D01*
X122426344Y-70889744D01*
X123391544Y-69924544D01*
X123554557Y-69680578D01*
X123611800Y-69392800D01*
X123611800Y-68814451D01*
X123628251Y-68798029D01*
X123762047Y-68475811D01*
X123762351Y-68126919D01*
X123629118Y-67804469D01*
X123382629Y-67557549D01*
X123099197Y-67439858D01*
X123162165Y-67377000D01*
X124748866Y-67377000D01*
X125125505Y-67753639D01*
X125173025Y-73456058D01*
X125174168Y-73461563D01*
X125173201Y-73467101D01*
X125202957Y-73600246D01*
X125230682Y-73733798D01*
X125233844Y-73738445D01*
X125235070Y-73743933D01*
X125313508Y-73855549D01*
X125390235Y-73968333D01*
X125394936Y-73971418D01*
X125398168Y-73976017D01*
X127348168Y-75836362D01*
X127451879Y-75902184D01*
X127551954Y-75973443D01*
X127571091Y-75977844D01*
X127587666Y-75988364D01*
X127708681Y-76009490D01*
X127828398Y-76037024D01*
X127847757Y-76033768D01*
X127867101Y-76037145D01*
X127987002Y-76010348D01*
X128108131Y-75989975D01*
X131093230Y-74856205D01*
X135159211Y-79364139D01*
X135062268Y-81346083D01*
X135065751Y-81369527D01*
X135061487Y-81392841D01*
X135135705Y-86192241D01*
X131601724Y-82444022D01*
X131601724Y-82178688D01*
X131666282Y-82334931D01*
X131912771Y-82581851D01*
X132234989Y-82715647D01*
X132583881Y-82715951D01*
X132906331Y-82582718D01*
X133005063Y-82484159D01*
X133073189Y-82512447D01*
X133422081Y-82512751D01*
X133744531Y-82379518D01*
X133991451Y-82133029D01*
X134125247Y-81810811D01*
X134125344Y-81699789D01*
X134311081Y-81699951D01*
X134633531Y-81566718D01*
X134880451Y-81320229D01*
X135014247Y-80998011D01*
X135014551Y-80649119D01*
X134881318Y-80326669D01*
X134634829Y-80079749D01*
X134576731Y-80055625D01*
X132867999Y-77290178D01*
X132806533Y-77224175D01*
X132756422Y-77149178D01*
X132704193Y-77114280D01*
X132661387Y-77068314D01*
X132579341Y-77030856D01*
X132504345Y-76980746D01*
X132442738Y-76968492D01*
X132385599Y-76942405D01*
X132295463Y-76939196D01*
X132207000Y-76921600D01*
X124968000Y-76921600D01*
X124805200Y-76953983D01*
X124805200Y-75728200D01*
X124746054Y-75430855D01*
X124577622Y-75178778D01*
X122143344Y-72744500D01*
X122043918Y-72503869D01*
X121797429Y-72256949D01*
X121475211Y-72123153D01*
X121126319Y-72122849D01*
X120803869Y-72256082D01*
X120556949Y-72502571D01*
X120423153Y-72824789D01*
X120422849Y-73173681D01*
X120556082Y-73496131D01*
X120802571Y-73743051D01*
X121044781Y-73843625D01*
X123251200Y-76050044D01*
X123251200Y-79187930D01*
X123151353Y-79428389D01*
X123151049Y-79777281D01*
X123284282Y-80099731D01*
X123530771Y-80346651D01*
X123852989Y-80480447D01*
X124201881Y-80480751D01*
X124524331Y-80347518D01*
X124771251Y-80101029D01*
X124905047Y-79778811D01*
X124905351Y-79429919D01*
X124805200Y-79187534D01*
X124805200Y-78829679D01*
X124887681Y-78829751D01*
X125210131Y-78696518D01*
X125431435Y-78475600D01*
X126345605Y-78475600D01*
X122876999Y-83424956D01*
X122876999Y-76915669D01*
X122976846Y-76675210D01*
X122977150Y-76326318D01*
X122843917Y-76003868D01*
X122597428Y-75756948D01*
X122275210Y-75623152D01*
X121926318Y-75622848D01*
X121603868Y-75756081D01*
X121356948Y-76002570D01*
X121223152Y-76324788D01*
X121222848Y-76673680D01*
X121322999Y-76916065D01*
X121322999Y-83978157D01*
X120344500Y-84956656D01*
X120103869Y-85056082D01*
X119856949Y-85302571D01*
X119723153Y-85624789D01*
X119722849Y-85973681D01*
X119856082Y-86296131D01*
X120102571Y-86543051D01*
X120191054Y-86579792D01*
X119603127Y-87694826D01*
X117839708Y-89067369D01*
X117832754Y-89075410D01*
X117823391Y-89080438D01*
X117174591Y-89615038D01*
X117142999Y-89653688D01*
X117102503Y-89682879D01*
X116716148Y-90097711D01*
X116453869Y-90206082D01*
X116206949Y-90452571D01*
X116073153Y-90774789D01*
X116072849Y-91123681D01*
X116206082Y-91446131D01*
X116452571Y-91693051D01*
X116774789Y-91826847D01*
X117123681Y-91827151D01*
X117446131Y-91693918D01*
X117693051Y-91447429D01*
X117826847Y-91125211D01*
X117826859Y-91111889D01*
X118074725Y-90845753D01*
X117968696Y-92417816D01*
X117068256Y-93318256D01*
X116905243Y-93562222D01*
X116848000Y-93850000D01*
X116848000Y-96574123D01*
X116723153Y-96874789D01*
X116722849Y-97223681D01*
X116856082Y-97546131D01*
X117102571Y-97793051D01*
X117424789Y-97926847D01*
X117773681Y-97927151D01*
X118096131Y-97793918D01*
X118343051Y-97547429D01*
X118476847Y-97225211D01*
X118477151Y-96876319D01*
X118352000Y-96573429D01*
X118352000Y-94161488D01*
X119231744Y-93281744D01*
X119299447Y-93180419D01*
X119373817Y-93083878D01*
X119380504Y-93059109D01*
X119394757Y-93037778D01*
X119418532Y-92918254D01*
X119450295Y-92800604D01*
X119574199Y-90963518D01*
X121466799Y-89493969D01*
X121530670Y-89420291D01*
X121603765Y-89355744D01*
X128307457Y-80557150D01*
X129247271Y-80487548D01*
X129247049Y-80742481D01*
X129334012Y-80952948D01*
X129297869Y-80967882D01*
X129050949Y-81214371D01*
X128917153Y-81536589D01*
X128916849Y-81885481D01*
X129017000Y-82127866D01*
X129017000Y-83210400D01*
X129076146Y-83507745D01*
X129244578Y-83759822D01*
X134307676Y-88822920D01*
X134226319Y-88822849D01*
X133903869Y-88956082D01*
X133656949Y-89202571D01*
X133523153Y-89524789D01*
X133522849Y-89873681D01*
X133623000Y-90116066D01*
X133623000Y-96325400D01*
X133682146Y-96622745D01*
X133850578Y-96874822D01*
X137398842Y-100423086D01*
X137126319Y-100422849D01*
X136803869Y-100556082D01*
X136556949Y-100802571D01*
X136423153Y-101124789D01*
X136422849Y-101473681D01*
X136556082Y-101796131D01*
X136802571Y-102043051D01*
X137124789Y-102176847D01*
X137148734Y-102176868D01*
X139905331Y-104933464D01*
X139905333Y-104933467D01*
X140079737Y-105049999D01*
X140141189Y-105091060D01*
X140419400Y-105146400D01*
X140456548Y-105146400D01*
X140472571Y-105162451D01*
X140794789Y-105296247D01*
X141143681Y-105296551D01*
X141466131Y-105163318D01*
X141713051Y-104916829D01*
X141765727Y-104789971D01*
X141853856Y-104878100D01*
X141953282Y-105118731D01*
X142199771Y-105365651D01*
X142521989Y-105499447D01*
X142870881Y-105499751D01*
X143193331Y-105366518D01*
X143440251Y-105120029D01*
X143448212Y-105100856D01*
X145932378Y-107585022D01*
X146184455Y-107753454D01*
X146481800Y-107812600D01*
X152309816Y-107812600D01*
X154973000Y-111887013D01*
X154973000Y-111968833D01*
X154886154Y-112004717D01*
X154519801Y-112370430D01*
X154402532Y-112327073D01*
X153429605Y-113300000D01*
X154402532Y-114272927D01*
X154520185Y-114229428D01*
X154883894Y-114593773D01*
X155444928Y-114826735D01*
X156052407Y-114827265D01*
X156613846Y-114595283D01*
X156756846Y-114452532D01*
X157277073Y-114452532D01*
X157375736Y-114719387D01*
X157985461Y-114945908D01*
X158635460Y-114921856D01*
X159124264Y-114719387D01*
X159222927Y-114452532D01*
X158250000Y-113479605D01*
X157277073Y-114452532D01*
X156756846Y-114452532D01*
X156980199Y-114229570D01*
X157097468Y-114272927D01*
X158070395Y-113300000D01*
X157097468Y-112327073D01*
X156979815Y-112370572D01*
X156757101Y-112147468D01*
X157277073Y-112147468D01*
X158250000Y-113120395D01*
X159222927Y-112147468D01*
X159124264Y-111880613D01*
X158514539Y-111654092D01*
X157864540Y-111678144D01*
X157375736Y-111880613D01*
X157277073Y-112147468D01*
X156757101Y-112147468D01*
X156616106Y-112006227D01*
X156527000Y-111969227D01*
X156527000Y-111655600D01*
X156512830Y-111584363D01*
X156513565Y-111511736D01*
X156483543Y-111437130D01*
X156467854Y-111358255D01*
X156427503Y-111297865D01*
X156400388Y-111230483D01*
X153585253Y-106923600D01*
X154897556Y-106923600D01*
X159951622Y-111977666D01*
X159886154Y-112004717D01*
X159519801Y-112370430D01*
X159402532Y-112327073D01*
X158429605Y-113300000D01*
X159402532Y-114272927D01*
X159520185Y-114229428D01*
X159883894Y-114593773D01*
X160444928Y-114826735D01*
X161052407Y-114827265D01*
X161613846Y-114595283D01*
X161756846Y-114452532D01*
X162277073Y-114452532D01*
X162375736Y-114719387D01*
X162985461Y-114945908D01*
X163635460Y-114921856D01*
X164124264Y-114719387D01*
X164222927Y-114452532D01*
X163250000Y-113479605D01*
X162277073Y-114452532D01*
X161756846Y-114452532D01*
X161980199Y-114229570D01*
X162097468Y-114272927D01*
X163070395Y-113300000D01*
X163429605Y-113300000D01*
X164402532Y-114272927D01*
X164669387Y-114174264D01*
X164895908Y-113564539D01*
X164871856Y-112914540D01*
X164669387Y-112425736D01*
X164402532Y-112327073D01*
X163429605Y-113300000D01*
X163070395Y-113300000D01*
X162097468Y-112327073D01*
X161979815Y-112370572D01*
X161757101Y-112147468D01*
X162277073Y-112147468D01*
X163250000Y-113120395D01*
X164222927Y-112147468D01*
X164124264Y-111880613D01*
X163514539Y-111654092D01*
X162864540Y-111678144D01*
X162375736Y-111880613D01*
X162277073Y-112147468D01*
X161757101Y-112147468D01*
X161616106Y-112006227D01*
X161527000Y-111969227D01*
X161527000Y-111677200D01*
X161467854Y-111379855D01*
X161299422Y-111127778D01*
X155768822Y-105597178D01*
X155516745Y-105428746D01*
X155219400Y-105369600D01*
X147180080Y-105369600D01*
X144936817Y-103170979D01*
X144971331Y-103156718D01*
X145218251Y-102910229D01*
X145352047Y-102588011D01*
X145352351Y-102239119D01*
X145250378Y-101992324D01*
X145940000Y-101992324D01*
X146135294Y-101955577D01*
X146314660Y-101840158D01*
X146434990Y-101664049D01*
X146452821Y-101575996D01*
X146643221Y-101497324D01*
X146797136Y-101497324D01*
X147036797Y-101596840D01*
X147401602Y-101597159D01*
X147643221Y-101497324D01*
X147797136Y-101497324D01*
X148036797Y-101596840D01*
X148401602Y-101597159D01*
X148643221Y-101497324D01*
X149140000Y-101497324D01*
X149335294Y-101460577D01*
X149514660Y-101345158D01*
X149634990Y-101169049D01*
X149677324Y-100960000D01*
X149677324Y-100210000D01*
X149640577Y-100014706D01*
X149525158Y-99835340D01*
X149349049Y-99715010D01*
X149202324Y-99685297D01*
X149202324Y-98927000D01*
X153700000Y-98927000D01*
X154093016Y-98848824D01*
X154426199Y-98626199D01*
X154648824Y-98293016D01*
X154727000Y-97900000D01*
X154648824Y-97506984D01*
X154426199Y-97173801D01*
X154093016Y-96951176D01*
X153700000Y-96873000D01*
X149677324Y-96873000D01*
X149677324Y-96400000D01*
X149640577Y-96204706D01*
X149525158Y-96025340D01*
X149349049Y-95905010D01*
X149140000Y-95862676D01*
X148642864Y-95862676D01*
X148403203Y-95763160D01*
X148038398Y-95762841D01*
X147796779Y-95862676D01*
X147642864Y-95862676D01*
X147403203Y-95763160D01*
X147038398Y-95762841D01*
X146796779Y-95862676D01*
X146642864Y-95862676D01*
X146454655Y-95784525D01*
X146440577Y-95709706D01*
X146360628Y-95585461D01*
X168294092Y-95585461D01*
X168318144Y-96235460D01*
X168520613Y-96724264D01*
X168787468Y-96822927D01*
X169760395Y-95850000D01*
X168787468Y-94877073D01*
X168520613Y-94975736D01*
X168294092Y-95585461D01*
X146360628Y-95585461D01*
X146325158Y-95530340D01*
X146149049Y-95410010D01*
X145940000Y-95367676D01*
X145035000Y-95367676D01*
X144839706Y-95404423D01*
X144660340Y-95519842D01*
X144540010Y-95695951D01*
X144502137Y-95882972D01*
X144414706Y-95899423D01*
X144235340Y-96014842D01*
X144115010Y-96190951D01*
X144072676Y-96400000D01*
X144072676Y-100960000D01*
X144077808Y-100987274D01*
X142103400Y-99012866D01*
X142103400Y-96296852D01*
X142119451Y-96280829D01*
X142253247Y-95958611D01*
X142253551Y-95609719D01*
X142120318Y-95287269D01*
X141873829Y-95040349D01*
X141551611Y-94906553D01*
X141227000Y-94906270D01*
X141227000Y-88667148D01*
X141451174Y-88170000D01*
X144032676Y-88170000D01*
X144032676Y-92730000D01*
X144069423Y-92925294D01*
X144184842Y-93104660D01*
X144360951Y-93224990D01*
X144461506Y-93245353D01*
X144494423Y-93420294D01*
X144609842Y-93599660D01*
X144785951Y-93719990D01*
X144995000Y-93762324D01*
X145900000Y-93762324D01*
X146095294Y-93725577D01*
X146274660Y-93610158D01*
X146394990Y-93434049D01*
X146412821Y-93345996D01*
X146603221Y-93267324D01*
X146757136Y-93267324D01*
X146996797Y-93366840D01*
X147361602Y-93367159D01*
X147603221Y-93267324D01*
X147757136Y-93267324D01*
X147996797Y-93366840D01*
X148361602Y-93367159D01*
X148603221Y-93267324D01*
X149100000Y-93267324D01*
X149295294Y-93230577D01*
X149474660Y-93115158D01*
X149594990Y-92939049D01*
X149637324Y-92730000D01*
X149637324Y-91980000D01*
X149600577Y-91784706D01*
X149485158Y-91605340D01*
X149309049Y-91485010D01*
X149162324Y-91455297D01*
X149162324Y-90223321D01*
X149424984Y-90398824D01*
X149818000Y-90477000D01*
X150211016Y-90398824D01*
X150544199Y-90176199D01*
X153075398Y-87644999D01*
X153298024Y-87311816D01*
X153376200Y-86918800D01*
X153298024Y-86525785D01*
X153075398Y-86192602D01*
X152742215Y-85969976D01*
X152349200Y-85891800D01*
X151956184Y-85969976D01*
X151623001Y-86192602D01*
X149637324Y-88178278D01*
X149637324Y-88170000D01*
X149600577Y-87974706D01*
X149485158Y-87795340D01*
X149309049Y-87675010D01*
X149100000Y-87632676D01*
X148602864Y-87632676D01*
X148363203Y-87533160D01*
X147998398Y-87532841D01*
X147756779Y-87632676D01*
X147602864Y-87632676D01*
X147363203Y-87533160D01*
X146998398Y-87532841D01*
X146756779Y-87632676D01*
X146602864Y-87632676D01*
X146414655Y-87554525D01*
X146400577Y-87479706D01*
X146285158Y-87300340D01*
X146109049Y-87180010D01*
X145900000Y-87137676D01*
X144995000Y-87137676D01*
X144799706Y-87174423D01*
X144620340Y-87289842D01*
X144500010Y-87465951D01*
X144462137Y-87652972D01*
X144374706Y-87669423D01*
X144195340Y-87784842D01*
X144075010Y-87960951D01*
X144032676Y-88170000D01*
X141451174Y-88170000D01*
X141728528Y-87554920D01*
X141731191Y-87543405D01*
X141737757Y-87533578D01*
X141764155Y-87400868D01*
X141794640Y-87269049D01*
X141792694Y-87257393D01*
X141795000Y-87245800D01*
X141768602Y-87113091D01*
X141746322Y-86979639D01*
X141740062Y-86969613D01*
X141737757Y-86958023D01*
X141720099Y-86931596D01*
X141720151Y-86872119D01*
X141646432Y-86693705D01*
X141843051Y-86497429D01*
X141976847Y-86175211D01*
X141977151Y-85826319D01*
X141843918Y-85503869D01*
X141597429Y-85256949D01*
X141275211Y-85123153D01*
X140926319Y-85122849D01*
X140925588Y-85123151D01*
X139116303Y-84304595D01*
X139046918Y-84136669D01*
X138800429Y-83889749D01*
X138478211Y-83755953D01*
X138147096Y-83755664D01*
X138066487Y-81418009D01*
X138184584Y-80544101D01*
X138206082Y-80596131D01*
X138452571Y-80843051D01*
X138774789Y-80976847D01*
X139123681Y-80977151D01*
X139345230Y-80885609D01*
X139402571Y-80943051D01*
X139724789Y-81076847D01*
X140073681Y-81077151D01*
X140396131Y-80943918D01*
X140643051Y-80697429D01*
X140776847Y-80375211D01*
X140776895Y-80320000D01*
X143992676Y-80320000D01*
X143992676Y-84880000D01*
X144029423Y-85075294D01*
X144144842Y-85254660D01*
X144320951Y-85374990D01*
X144421506Y-85395353D01*
X144454423Y-85570294D01*
X144569842Y-85749660D01*
X144745951Y-85869990D01*
X144955000Y-85912324D01*
X145860000Y-85912324D01*
X146055294Y-85875577D01*
X146234660Y-85760158D01*
X146354990Y-85584049D01*
X146372821Y-85495996D01*
X146563221Y-85417324D01*
X146717136Y-85417324D01*
X146956797Y-85516840D01*
X147321602Y-85517159D01*
X147563221Y-85417324D01*
X147717136Y-85417324D01*
X147956797Y-85516840D01*
X148321602Y-85517159D01*
X148563221Y-85417324D01*
X149060000Y-85417324D01*
X149255294Y-85380577D01*
X149434660Y-85265158D01*
X149554990Y-85089049D01*
X149597324Y-84880000D01*
X149597324Y-84130000D01*
X149560577Y-83934706D01*
X149445158Y-83755340D01*
X149269049Y-83635010D01*
X149122324Y-83605297D01*
X149122324Y-81595597D01*
X149255294Y-81570577D01*
X149434660Y-81455158D01*
X149554990Y-81279049D01*
X149597324Y-81070000D01*
X149597324Y-80320000D01*
X149560577Y-80124706D01*
X149445158Y-79945340D01*
X149269049Y-79825010D01*
X149060000Y-79782676D01*
X148562864Y-79782676D01*
X148323203Y-79683160D01*
X147958398Y-79682841D01*
X147716779Y-79782676D01*
X147562864Y-79782676D01*
X147323203Y-79683160D01*
X146958398Y-79682841D01*
X146716779Y-79782676D01*
X146562864Y-79782676D01*
X146374655Y-79704525D01*
X146360577Y-79629706D01*
X146245158Y-79450340D01*
X146069049Y-79330010D01*
X145860000Y-79287676D01*
X144955000Y-79287676D01*
X144759706Y-79324423D01*
X144580340Y-79439842D01*
X144460010Y-79615951D01*
X144422137Y-79802972D01*
X144334706Y-79819423D01*
X144155340Y-79934842D01*
X144035010Y-80110951D01*
X143992676Y-80320000D01*
X140776895Y-80320000D01*
X140777151Y-80026319D01*
X140679147Y-79789130D01*
X140750536Y-78646908D01*
X140747543Y-78624697D01*
X140751995Y-78602735D01*
X140728050Y-78480028D01*
X140711355Y-78356120D01*
X140700091Y-78336746D01*
X140695799Y-78314751D01*
X140626717Y-78210543D01*
X140563878Y-78102461D01*
X140546059Y-78088873D01*
X140533675Y-78070193D01*
X134233151Y-71723681D01*
X137222849Y-71723681D01*
X137356082Y-72046131D01*
X137602571Y-72293051D01*
X137844781Y-72393625D01*
X138150578Y-72699422D01*
X138402655Y-72867854D01*
X138700000Y-72927000D01*
X141273000Y-72927000D01*
X141273000Y-73700000D01*
X141332146Y-73997345D01*
X141500578Y-74249422D01*
X142850578Y-75599422D01*
X143102655Y-75767854D01*
X143400000Y-75827000D01*
X145536810Y-75827000D01*
X145702571Y-75993051D01*
X146024789Y-76126847D01*
X146373681Y-76127151D01*
X146696131Y-75993918D01*
X146943051Y-75747429D01*
X146994435Y-75623681D01*
X151072849Y-75623681D01*
X151206082Y-75946131D01*
X151452571Y-76193051D01*
X151774789Y-76326847D01*
X152123681Y-76327151D01*
X152446131Y-76193918D01*
X152693051Y-75947429D01*
X152743057Y-75827000D01*
X153382649Y-75827000D01*
X151625959Y-78155636D01*
X151503869Y-78206082D01*
X151256949Y-78452571D01*
X151123153Y-78774789D01*
X151122849Y-79123681D01*
X151256082Y-79446131D01*
X151502571Y-79693051D01*
X151824789Y-79826847D01*
X152173681Y-79827151D01*
X152496131Y-79693918D01*
X152743051Y-79447429D01*
X152876847Y-79125211D01*
X152876888Y-79077800D01*
X154537141Y-76877000D01*
X164610000Y-76877000D01*
X164719269Y-76855265D01*
X164830211Y-76845141D01*
X164866803Y-76825918D01*
X164907345Y-76817854D01*
X164999976Y-76755960D01*
X165098602Y-76704150D01*
X167946134Y-74401228D01*
X168012477Y-74428776D01*
X168525273Y-74429223D01*
X168999206Y-74233398D01*
X169362124Y-73871113D01*
X169558776Y-73397523D01*
X169559223Y-72884727D01*
X169363398Y-72410794D01*
X169001113Y-72047876D01*
X168572270Y-71869804D01*
X168999206Y-71693398D01*
X169316157Y-71377000D01*
X172778156Y-71377000D01*
X172856656Y-71455500D01*
X172956082Y-71696131D01*
X173202571Y-71943051D01*
X173524789Y-72076847D01*
X173873681Y-72077151D01*
X174196131Y-71943918D01*
X174443051Y-71697429D01*
X174576847Y-71375211D01*
X174577151Y-71026319D01*
X174443918Y-70703869D01*
X174197429Y-70456949D01*
X173955219Y-70356375D01*
X173649422Y-70050578D01*
X173397345Y-69882146D01*
X173100000Y-69823000D01*
X169315687Y-69823000D01*
X169001113Y-69507876D01*
X168729287Y-69395004D01*
X169001143Y-69282397D01*
X169070608Y-69040213D01*
X168270000Y-68239605D01*
X167469392Y-69040213D01*
X167538857Y-69282397D01*
X167831088Y-69386655D01*
X167540794Y-69506602D01*
X167177876Y-69868887D01*
X166999804Y-70297730D01*
X166823398Y-69870794D01*
X166461113Y-69507876D01*
X166032270Y-69329804D01*
X166459206Y-69153398D01*
X166822124Y-68791113D01*
X166934996Y-68519287D01*
X167047603Y-68791143D01*
X167289787Y-68860608D01*
X168090395Y-68060000D01*
X168449605Y-68060000D01*
X169250213Y-68860608D01*
X169492397Y-68791143D01*
X169679144Y-68267698D01*
X169651362Y-67712632D01*
X169522457Y-67401426D01*
X172972649Y-67401426D01*
X173280591Y-68146703D01*
X173850298Y-68717405D01*
X174595036Y-69026647D01*
X175401426Y-69027351D01*
X176146703Y-68719409D01*
X176717405Y-68149702D01*
X177026647Y-67404964D01*
X177027351Y-66598574D01*
X176719409Y-65853297D01*
X176149702Y-65282595D01*
X175404964Y-64973353D01*
X174598574Y-64972649D01*
X173853297Y-65280591D01*
X173282595Y-65850298D01*
X172973353Y-66595036D01*
X172972649Y-67401426D01*
X169522457Y-67401426D01*
X169492397Y-67328857D01*
X169250213Y-67259392D01*
X168449605Y-68060000D01*
X168090395Y-68060000D01*
X167289787Y-67259392D01*
X167047603Y-67328857D01*
X166943345Y-67621088D01*
X166823398Y-67330794D01*
X166572829Y-67079787D01*
X167469392Y-67079787D01*
X168270000Y-67880395D01*
X169070608Y-67079787D01*
X169001143Y-66837603D01*
X168477698Y-66650856D01*
X167922632Y-66678638D01*
X167538857Y-66837603D01*
X167469392Y-67079787D01*
X166572829Y-67079787D01*
X166461113Y-66967876D01*
X165987523Y-66771224D01*
X165474727Y-66770777D01*
X165000794Y-66966602D01*
X164683843Y-67283000D01*
X160898925Y-67283000D01*
X160875211Y-67273153D01*
X160526319Y-67272849D01*
X160203869Y-67406082D01*
X159956949Y-67652571D01*
X159823153Y-67974789D01*
X159822849Y-68323681D01*
X159956082Y-68646131D01*
X160032817Y-68723000D01*
X152765670Y-68723000D01*
X152525211Y-68623153D01*
X152176319Y-68622849D01*
X151853869Y-68756082D01*
X151606949Y-69002571D01*
X151473153Y-69324789D01*
X151472849Y-69673681D01*
X151606082Y-69996131D01*
X151852571Y-70243051D01*
X152174789Y-70376847D01*
X152523681Y-70377151D01*
X152766066Y-70277000D01*
X162078156Y-70277000D01*
X162950578Y-71149422D01*
X163202655Y-71317854D01*
X163500000Y-71377000D01*
X164684313Y-71377000D01*
X164998887Y-71692124D01*
X165427730Y-71870196D01*
X165000794Y-72046602D01*
X164637876Y-72408887D01*
X164441224Y-72882477D01*
X164440834Y-73330322D01*
X163498156Y-74273000D01*
X152350000Y-74273000D01*
X152052655Y-74332146D01*
X151800578Y-74500578D01*
X151694500Y-74606656D01*
X151453869Y-74706082D01*
X151206949Y-74952571D01*
X151073153Y-75274789D01*
X151072849Y-75623681D01*
X146994435Y-75623681D01*
X147076847Y-75425211D01*
X147077151Y-75076319D01*
X146943918Y-74753869D01*
X146697429Y-74506949D01*
X146375211Y-74373153D01*
X146358695Y-74373139D01*
X146329922Y-74353913D01*
X146596131Y-74243918D01*
X146843051Y-73997429D01*
X146976847Y-73675211D01*
X146977151Y-73326319D01*
X146877000Y-73083934D01*
X146877000Y-72500000D01*
X146841633Y-72322196D01*
X148357409Y-72322196D01*
X148442467Y-72577539D01*
X149011965Y-72785516D01*
X149617700Y-72759723D01*
X150057533Y-72577539D01*
X150142591Y-72322196D01*
X149250000Y-71429605D01*
X148357409Y-72322196D01*
X146841633Y-72322196D01*
X146817854Y-72202655D01*
X146649422Y-71950578D01*
X146165811Y-71466967D01*
X146166208Y-71011965D01*
X147714484Y-71011965D01*
X147740277Y-71617700D01*
X147922461Y-72057533D01*
X148177804Y-72142591D01*
X149070395Y-71250000D01*
X149429605Y-71250000D01*
X150322196Y-72142591D01*
X150577539Y-72057533D01*
X150785516Y-71488035D01*
X150759723Y-70882300D01*
X150577539Y-70442467D01*
X150322196Y-70357409D01*
X149429605Y-71250000D01*
X149070395Y-71250000D01*
X148177804Y-70357409D01*
X147922461Y-70442467D01*
X147714484Y-71011965D01*
X146166208Y-71011965D01*
X146166245Y-70969576D01*
X145951126Y-70448948D01*
X145680455Y-70177804D01*
X148357409Y-70177804D01*
X149250000Y-71070395D01*
X150142591Y-70177804D01*
X150057533Y-69922461D01*
X149488035Y-69714484D01*
X148882300Y-69740277D01*
X148442467Y-69922461D01*
X148357409Y-70177804D01*
X145680455Y-70177804D01*
X145553147Y-70050274D01*
X145527000Y-70039417D01*
X145527000Y-65961064D01*
X145551052Y-65951126D01*
X145680207Y-65822196D01*
X148357409Y-65822196D01*
X148442467Y-66077539D01*
X149011965Y-66285516D01*
X149617700Y-66259723D01*
X150057533Y-66077539D01*
X150142591Y-65822196D01*
X149250000Y-64929605D01*
X148357409Y-65822196D01*
X145680207Y-65822196D01*
X145949726Y-65553147D01*
X146165754Y-65032895D01*
X146166208Y-64511965D01*
X147714484Y-64511965D01*
X147740277Y-65117700D01*
X147922461Y-65557533D01*
X148177804Y-65642591D01*
X149070395Y-64750000D01*
X149429605Y-64750000D01*
X150322196Y-65642591D01*
X150577539Y-65557533D01*
X150785516Y-64988035D01*
X150759723Y-64382300D01*
X150577539Y-63942467D01*
X150322196Y-63857409D01*
X149429605Y-64750000D01*
X149070395Y-64750000D01*
X148177804Y-63857409D01*
X147922461Y-63942467D01*
X147714484Y-64511965D01*
X146166208Y-64511965D01*
X146166245Y-64469576D01*
X145951126Y-63948948D01*
X145680455Y-63677804D01*
X148357409Y-63677804D01*
X149250000Y-64570395D01*
X150142591Y-63677804D01*
X150057533Y-63422461D01*
X149488035Y-63214484D01*
X148882300Y-63240277D01*
X148442467Y-63422461D01*
X148357409Y-63677804D01*
X145680455Y-63677804D01*
X145553147Y-63550274D01*
X145032895Y-63334246D01*
X144469576Y-63333755D01*
X143948948Y-63548874D01*
X143550274Y-63946853D01*
X143334246Y-64467105D01*
X143333755Y-65030424D01*
X143548874Y-65551052D01*
X143946853Y-65949726D01*
X143973000Y-65960583D01*
X143973000Y-70038936D01*
X143948948Y-70048874D01*
X143550274Y-70446853D01*
X143334246Y-70967105D01*
X143333755Y-71530424D01*
X143548874Y-72051052D01*
X143946853Y-72449726D01*
X144467105Y-72665754D01*
X145030424Y-72666245D01*
X145127351Y-72626195D01*
X145323000Y-72821844D01*
X145323000Y-73084330D01*
X145223153Y-73324789D01*
X145222849Y-73673681D01*
X145356082Y-73996131D01*
X145602571Y-74243051D01*
X145674697Y-74273000D01*
X143721844Y-74273000D01*
X142827000Y-73378156D01*
X142827000Y-72565670D01*
X142926847Y-72325211D01*
X142927151Y-71976319D01*
X142793918Y-71653869D01*
X142547429Y-71406949D01*
X142225211Y-71273153D01*
X141876319Y-71272849D01*
X141633934Y-71373000D01*
X139021844Y-71373000D01*
X138943344Y-71294500D01*
X138843918Y-71053869D01*
X138597429Y-70806949D01*
X138275211Y-70673153D01*
X137926319Y-70672849D01*
X137603869Y-70806082D01*
X137356949Y-71052571D01*
X137223153Y-71374789D01*
X137222849Y-71723681D01*
X134233151Y-71723681D01*
X134086825Y-71576287D01*
X134102000Y-71500000D01*
X134102000Y-69977001D01*
X134273681Y-69977151D01*
X134596131Y-69843918D01*
X134843051Y-69597429D01*
X134976847Y-69275211D01*
X134977151Y-68926319D01*
X134927000Y-68804944D01*
X134927000Y-67063452D01*
X134943051Y-67047429D01*
X135076847Y-66725211D01*
X135077151Y-66376319D01*
X134943918Y-66053869D01*
X134697429Y-65806949D01*
X134375211Y-65673153D01*
X134026319Y-65672849D01*
X133774780Y-65776782D01*
X133525211Y-65673153D01*
X133176319Y-65672849D01*
X132954346Y-65764566D01*
X132897129Y-65707249D01*
X132574911Y-65573453D01*
X132226019Y-65573149D01*
X131903569Y-65706382D01*
X131656649Y-65952871D01*
X131522853Y-66275089D01*
X131522549Y-66623981D01*
X131655782Y-66946431D01*
X131744653Y-67035457D01*
X131494537Y-71541804D01*
X131400000Y-71522999D01*
X131389742Y-71525040D01*
X131379435Y-71523291D01*
X131251001Y-71552638D01*
X131121790Y-71578340D01*
X131113098Y-71584148D01*
X131102900Y-71586478D01*
X130829884Y-71708724D01*
X130926847Y-71475211D01*
X130927151Y-71126319D01*
X130833260Y-70899084D01*
X130876908Y-68061952D01*
X130875813Y-68055967D01*
X130877000Y-68050000D01*
X130877000Y-67015670D01*
X130976847Y-66775211D01*
X130977151Y-66426319D01*
X130843918Y-66103869D01*
X130597429Y-65856949D01*
X130275211Y-65723153D01*
X129926319Y-65722849D01*
X129603869Y-65856082D01*
X129356949Y-66102571D01*
X129223153Y-66424789D01*
X129222849Y-66773681D01*
X129323000Y-67016066D01*
X129323000Y-68044027D01*
X129279546Y-70868566D01*
X129173153Y-71124789D01*
X129172849Y-71473681D01*
X129306082Y-71796131D01*
X129552571Y-72043051D01*
X129827896Y-72157375D01*
X128872763Y-72585047D01*
X128876847Y-72575211D01*
X128877151Y-72226319D01*
X128777000Y-71983934D01*
X128777000Y-70815670D01*
X128876847Y-70575211D01*
X128877151Y-70226319D01*
X128743918Y-69903869D01*
X128497429Y-69656949D01*
X128175211Y-69523153D01*
X127949823Y-69522957D01*
X128026926Y-64110355D01*
X128025971Y-64105171D01*
X128027000Y-64100000D01*
X128000322Y-63965882D01*
X127975555Y-63831384D01*
X127972688Y-63826958D01*
X127971660Y-63821789D01*
X127908416Y-63727138D01*
X127923681Y-63727151D01*
X128246131Y-63593918D01*
X128493051Y-63347429D01*
X128626847Y-63025211D01*
X128627151Y-62676319D01*
X128565454Y-62527000D01*
X152298866Y-62527000D01*
X153885931Y-64114064D01*
X153885933Y-64114067D01*
X154121789Y-64271660D01*
X154133662Y-64274022D01*
X154202571Y-64343051D01*
X154524789Y-64476847D01*
X154873681Y-64477151D01*
X155196131Y-64343918D01*
X155443051Y-64097429D01*
X155576847Y-63775211D01*
X155577151Y-63426319D01*
X155443918Y-63103869D01*
X155197429Y-62856949D01*
X154875211Y-62723153D01*
X154551004Y-62722871D01*
X153114067Y-61285933D01*
X152878211Y-61128340D01*
X152832052Y-61119158D01*
X152620114Y-61077000D01*
X178873000Y-61077000D01*
X178873000Y-122873000D01*
X86077000Y-122873000D01*
X86077000Y-116401426D01*
X88972649Y-116401426D01*
X89280591Y-117146703D01*
X89850298Y-117717405D01*
X90595036Y-118026647D01*
X91401426Y-118027351D01*
X92146703Y-117719409D01*
X92717405Y-117149702D01*
X93026647Y-116404964D01*
X93027351Y-115598574D01*
X92719409Y-114853297D01*
X92149702Y-114282595D01*
X91404964Y-113973353D01*
X90598574Y-113972649D01*
X89853297Y-114280591D01*
X89282595Y-114850298D01*
X88973353Y-115595036D01*
X88972649Y-116401426D01*
X86077000Y-116401426D01*
X86077000Y-83081078D01*
X86168436Y-83540757D01*
X86331600Y-83784949D01*
X86331600Y-107746800D01*
X86447836Y-108331158D01*
X86759770Y-108798000D01*
X86778848Y-108826552D01*
X98031048Y-120078752D01*
X98526442Y-120409764D01*
X99110800Y-120526000D01*
X164871400Y-120526000D01*
X165455758Y-120409764D01*
X165951152Y-120078752D01*
X169628478Y-116401426D01*
X172972649Y-116401426D01*
X173280591Y-117146703D01*
X173850298Y-117717405D01*
X174595036Y-118026647D01*
X175401426Y-118027351D01*
X176146703Y-117719409D01*
X176717405Y-117149702D01*
X177026647Y-116404964D01*
X177027351Y-115598574D01*
X176719409Y-114853297D01*
X176149702Y-114282595D01*
X175404964Y-113973353D01*
X174598574Y-113972649D01*
X173853297Y-114280591D01*
X173282595Y-114850298D01*
X172973353Y-115595036D01*
X172972649Y-116401426D01*
X169628478Y-116401426D01*
X175044352Y-110985552D01*
X175172276Y-110794100D01*
X175375364Y-110490158D01*
X175491600Y-109905800D01*
X175491600Y-101168200D01*
X175486582Y-101142975D01*
X175375365Y-100583843D01*
X175044352Y-100088448D01*
X174157704Y-99201800D01*
X175379752Y-97979752D01*
X175710765Y-97484357D01*
X175827000Y-96900000D01*
X175827000Y-94800000D01*
X175710765Y-94215643D01*
X175379752Y-93720248D01*
X174859504Y-93200000D01*
X175479752Y-92579752D01*
X175531323Y-92502571D01*
X175810764Y-92084358D01*
X175927000Y-91500000D01*
X175927000Y-89500000D01*
X175910684Y-89417974D01*
X175810765Y-88915643D01*
X175479752Y-88420248D01*
X175059504Y-88000000D01*
X175379752Y-87679752D01*
X175710764Y-87184358D01*
X175827000Y-86600000D01*
X175827000Y-84500000D01*
X175803016Y-84379423D01*
X175710765Y-83915643D01*
X175379752Y-83420248D01*
X175209504Y-83250000D01*
X175579752Y-82879752D01*
X175650626Y-82773681D01*
X175910764Y-82384358D01*
X176027000Y-81800000D01*
X176027000Y-77800000D01*
X175910764Y-77215642D01*
X175579752Y-76720248D01*
X175084358Y-76389236D01*
X174500000Y-76273000D01*
X173915642Y-76389236D01*
X173420248Y-76720248D01*
X173089236Y-77215642D01*
X172973000Y-77800000D01*
X172973000Y-81167496D01*
X172317496Y-81823000D01*
X171126692Y-81823000D01*
X171233773Y-81716106D01*
X171466735Y-81155072D01*
X171467265Y-80547593D01*
X171235283Y-79986154D01*
X170806106Y-79556227D01*
X170245072Y-79323265D01*
X169637593Y-79322735D01*
X169076154Y-79554717D01*
X168857490Y-79773000D01*
X166800000Y-79773000D01*
X166406984Y-79851176D01*
X166073801Y-80073801D01*
X165851176Y-80406984D01*
X165773000Y-80800000D01*
X165851176Y-81193016D01*
X166073801Y-81526199D01*
X166406984Y-81748824D01*
X166800000Y-81827000D01*
X168757674Y-81827000D01*
X169030494Y-82100297D01*
X168646227Y-82483894D01*
X168413265Y-83044928D01*
X168412735Y-83652407D01*
X168644717Y-84213846D01*
X169030494Y-84600297D01*
X168807402Y-84823000D01*
X167082896Y-84823000D01*
X166689880Y-84901176D01*
X166356697Y-85123801D01*
X166134072Y-85456984D01*
X166055896Y-85850000D01*
X166134072Y-86243016D01*
X166356697Y-86576199D01*
X166689880Y-86798824D01*
X166811421Y-86823000D01*
X165150000Y-86823000D01*
X164565643Y-86939235D01*
X164070248Y-87270248D01*
X160120248Y-91220248D01*
X159789236Y-91715643D01*
X159673000Y-92300000D01*
X159789236Y-92884357D01*
X160120248Y-93379752D01*
X160615643Y-93710764D01*
X161200000Y-93827000D01*
X161784357Y-93710764D01*
X162279752Y-93379752D01*
X165782504Y-89877000D01*
X168378525Y-89877000D01*
X168256984Y-89901176D01*
X167923801Y-90123801D01*
X167923799Y-90123804D01*
X166873801Y-91173801D01*
X166651176Y-91506984D01*
X166573000Y-91900000D01*
X166651176Y-92293016D01*
X166873801Y-92626199D01*
X167206984Y-92848824D01*
X167600000Y-92927000D01*
X167993016Y-92848824D01*
X168326199Y-92626199D01*
X168941375Y-92011022D01*
X169030494Y-92100297D01*
X168646227Y-92483894D01*
X168413265Y-93044928D01*
X168412735Y-93652407D01*
X168644717Y-94213846D01*
X169010430Y-94580199D01*
X168967073Y-94697468D01*
X169940000Y-95670395D01*
X169954143Y-95656253D01*
X170133748Y-95835858D01*
X170119605Y-95850000D01*
X170133748Y-95864143D01*
X169954143Y-96043748D01*
X169940000Y-96029605D01*
X168967073Y-97002532D01*
X169010572Y-97120185D01*
X168646227Y-97483894D01*
X168413265Y-98044928D01*
X168412735Y-98652407D01*
X168644717Y-99213846D01*
X169073894Y-99643773D01*
X169163000Y-99680773D01*
X169163000Y-101868000D01*
X169222146Y-102165345D01*
X169390578Y-102417422D01*
X169438256Y-102465100D01*
X169537682Y-102705731D01*
X169784171Y-102952651D01*
X170106389Y-103086447D01*
X170455281Y-103086751D01*
X170777731Y-102953518D01*
X171024651Y-102707029D01*
X171158447Y-102384811D01*
X171158751Y-102035919D01*
X171025518Y-101713469D01*
X170779029Y-101466549D01*
X170717000Y-101440792D01*
X170717000Y-100080104D01*
X172437600Y-101800704D01*
X172437600Y-109273296D01*
X164238896Y-117472000D01*
X99743304Y-117472000D01*
X97098173Y-114826869D01*
X97552407Y-114827265D01*
X98113846Y-114595283D01*
X98500297Y-114209506D01*
X98883894Y-114593773D01*
X99444928Y-114826735D01*
X100052407Y-114827265D01*
X100613846Y-114595283D01*
X101000297Y-114209506D01*
X101383894Y-114593773D01*
X101944928Y-114826735D01*
X102552407Y-114827265D01*
X103113846Y-114595283D01*
X103500297Y-114209506D01*
X103883894Y-114593773D01*
X104444928Y-114826735D01*
X105052407Y-114827265D01*
X105613846Y-114595283D01*
X106000297Y-114209506D01*
X106383894Y-114593773D01*
X106944928Y-114826735D01*
X107552407Y-114827265D01*
X108113846Y-114595283D01*
X108500297Y-114209506D01*
X108883894Y-114593773D01*
X109444928Y-114826735D01*
X110052407Y-114827265D01*
X110613846Y-114595283D01*
X111000297Y-114209506D01*
X111383894Y-114593773D01*
X111944928Y-114826735D01*
X112552407Y-114827265D01*
X113113846Y-114595283D01*
X113500297Y-114209506D01*
X113883894Y-114593773D01*
X114444928Y-114826735D01*
X115052407Y-114827265D01*
X115613846Y-114595283D01*
X116000297Y-114209506D01*
X116383894Y-114593773D01*
X116944928Y-114826735D01*
X117552407Y-114827265D01*
X118113846Y-114595283D01*
X118500297Y-114209506D01*
X118883894Y-114593773D01*
X119444928Y-114826735D01*
X120052407Y-114827265D01*
X120613846Y-114595283D01*
X121000297Y-114209506D01*
X121383894Y-114593773D01*
X121944928Y-114826735D01*
X122552407Y-114827265D01*
X123113846Y-114595283D01*
X123500297Y-114209506D01*
X123883894Y-114593773D01*
X124444928Y-114826735D01*
X125052407Y-114827265D01*
X125613846Y-114595283D01*
X126000297Y-114209506D01*
X126383894Y-114593773D01*
X126944928Y-114826735D01*
X127552407Y-114827265D01*
X128113846Y-114595283D01*
X128500297Y-114209506D01*
X128883894Y-114593773D01*
X129444928Y-114826735D01*
X130052407Y-114827265D01*
X130613846Y-114595283D01*
X131000297Y-114209506D01*
X131383894Y-114593773D01*
X131944928Y-114826735D01*
X132552407Y-114827265D01*
X133113846Y-114595283D01*
X133500297Y-114209506D01*
X133883894Y-114593773D01*
X134444928Y-114826735D01*
X135052407Y-114827265D01*
X135613846Y-114595283D01*
X136043773Y-114166106D01*
X136276735Y-113605072D01*
X136276737Y-113602407D01*
X139222735Y-113602407D01*
X139454717Y-114163846D01*
X139883894Y-114593773D01*
X140444928Y-114826735D01*
X141052407Y-114827265D01*
X141613846Y-114595283D01*
X141756846Y-114452532D01*
X142277073Y-114452532D01*
X142375736Y-114719387D01*
X142985461Y-114945908D01*
X143635460Y-114921856D01*
X144124264Y-114719387D01*
X144222927Y-114452532D01*
X143250000Y-113479605D01*
X142277073Y-114452532D01*
X141756846Y-114452532D01*
X141980199Y-114229570D01*
X142097468Y-114272927D01*
X143070395Y-113300000D01*
X143429605Y-113300000D01*
X144402532Y-114272927D01*
X144520185Y-114229428D01*
X144883894Y-114593773D01*
X144929131Y-114612557D01*
X144842669Y-114648282D01*
X144595749Y-114894771D01*
X144461953Y-115216989D01*
X144461649Y-115565881D01*
X144594882Y-115888331D01*
X144841371Y-116135251D01*
X145163589Y-116269047D01*
X145512481Y-116269351D01*
X145834931Y-116136118D01*
X146081851Y-115889629D01*
X146215647Y-115567411D01*
X146215668Y-115543465D01*
X146264064Y-115495069D01*
X146264067Y-115495067D01*
X146421660Y-115259211D01*
X146430842Y-115213052D01*
X146477001Y-114981000D01*
X146477000Y-114980995D01*
X146477000Y-114651827D01*
X146613846Y-114595283D01*
X146756846Y-114452532D01*
X147277073Y-114452532D01*
X147375736Y-114719387D01*
X147985461Y-114945908D01*
X148635460Y-114921856D01*
X149124264Y-114719387D01*
X149222927Y-114452532D01*
X148250000Y-113479605D01*
X147277073Y-114452532D01*
X146756846Y-114452532D01*
X146980199Y-114229570D01*
X147097468Y-114272927D01*
X148070395Y-113300000D01*
X148429605Y-113300000D01*
X149402532Y-114272927D01*
X149520185Y-114229428D01*
X149883894Y-114593773D01*
X150444928Y-114826735D01*
X150523000Y-114826803D01*
X150523000Y-115648866D01*
X150498997Y-115672869D01*
X150476319Y-115672849D01*
X150153869Y-115806082D01*
X149906949Y-116052571D01*
X149773153Y-116374789D01*
X149772849Y-116723681D01*
X149906082Y-117046131D01*
X150152571Y-117293051D01*
X150474789Y-117426847D01*
X150823681Y-117427151D01*
X151146131Y-117293918D01*
X151393051Y-117047429D01*
X151526847Y-116725211D01*
X151526868Y-116701266D01*
X151764067Y-116464067D01*
X151921660Y-116228211D01*
X151977000Y-115950000D01*
X151977000Y-114452532D01*
X152277073Y-114452532D01*
X152375736Y-114719387D01*
X152985461Y-114945908D01*
X153635460Y-114921856D01*
X154124264Y-114719387D01*
X154222927Y-114452532D01*
X153250000Y-113479605D01*
X152277073Y-114452532D01*
X151977000Y-114452532D01*
X151977000Y-114232763D01*
X151980199Y-114229570D01*
X152097468Y-114272927D01*
X153070395Y-113300000D01*
X152097468Y-112327073D01*
X151979815Y-112370572D01*
X151757101Y-112147468D01*
X152277073Y-112147468D01*
X153250000Y-113120395D01*
X154222927Y-112147468D01*
X154124264Y-111880613D01*
X153514539Y-111654092D01*
X152864540Y-111678144D01*
X152375736Y-111880613D01*
X152277073Y-112147468D01*
X151757101Y-112147468D01*
X151616106Y-112006227D01*
X151055072Y-111773265D01*
X150447593Y-111772735D01*
X149886154Y-112004717D01*
X149519801Y-112370430D01*
X149402532Y-112327073D01*
X148429605Y-113300000D01*
X148070395Y-113300000D01*
X147097468Y-112327073D01*
X146979815Y-112370572D01*
X146757101Y-112147468D01*
X147277073Y-112147468D01*
X148250000Y-113120395D01*
X149222927Y-112147468D01*
X149124264Y-111880613D01*
X148514539Y-111654092D01*
X147864540Y-111678144D01*
X147375736Y-111880613D01*
X147277073Y-112147468D01*
X146757101Y-112147468D01*
X146616106Y-112006227D01*
X146055072Y-111773265D01*
X145447593Y-111772735D01*
X144886154Y-112004717D01*
X144519801Y-112370430D01*
X144402532Y-112327073D01*
X143429605Y-113300000D01*
X143070395Y-113300000D01*
X142097468Y-112327073D01*
X141979815Y-112370572D01*
X141757101Y-112147468D01*
X142277073Y-112147468D01*
X143250000Y-113120395D01*
X144222927Y-112147468D01*
X144124264Y-111880613D01*
X143514539Y-111654092D01*
X142864540Y-111678144D01*
X142375736Y-111880613D01*
X142277073Y-112147468D01*
X141757101Y-112147468D01*
X141616106Y-112006227D01*
X141521085Y-111966771D01*
X141535251Y-111952629D01*
X141669047Y-111630411D01*
X141669351Y-111281519D01*
X141536118Y-110959069D01*
X141289629Y-110712149D01*
X140967411Y-110578353D01*
X140618519Y-110578049D01*
X140296069Y-110711282D01*
X140049149Y-110957771D01*
X139915353Y-111279989D01*
X139915049Y-111628881D01*
X140043481Y-111939711D01*
X139886154Y-112004717D01*
X139456227Y-112433894D01*
X139223265Y-112994928D01*
X139222735Y-113602407D01*
X136276737Y-113602407D01*
X136277265Y-112997593D01*
X136045283Y-112436154D01*
X135616106Y-112006227D01*
X135502000Y-111958846D01*
X135502000Y-106565488D01*
X136018257Y-107081745D01*
X136031760Y-107095249D01*
X136156082Y-107396131D01*
X136402571Y-107643051D01*
X136724789Y-107776847D01*
X137073681Y-107777151D01*
X137396131Y-107643918D01*
X137643051Y-107397429D01*
X137776847Y-107075211D01*
X137777151Y-106726319D01*
X137643918Y-106403869D01*
X137397429Y-106156949D01*
X137094757Y-106031269D01*
X136652000Y-105588512D01*
X136652000Y-104275877D01*
X136776847Y-103975211D01*
X136777151Y-103626319D01*
X136643918Y-103303869D01*
X136397429Y-103056949D01*
X136075211Y-102923153D01*
X135726319Y-102922849D01*
X135502000Y-103015535D01*
X135502000Y-102250000D01*
X135444757Y-101962222D01*
X135281744Y-101718256D01*
X134868240Y-101304752D01*
X134743918Y-101003869D01*
X134497429Y-100756949D01*
X134175211Y-100623153D01*
X133826319Y-100622849D01*
X133503869Y-100756082D01*
X133256949Y-101002571D01*
X133170612Y-101210494D01*
X133043918Y-100903869D01*
X132797429Y-100656949D01*
X132475211Y-100523153D01*
X132126319Y-100522849D01*
X131899841Y-100616427D01*
X131675211Y-100523153D01*
X131326319Y-100522849D01*
X131003869Y-100656082D01*
X130756949Y-100902571D01*
X130631269Y-101205243D01*
X130618257Y-101218255D01*
X130455244Y-101462221D01*
X130398001Y-101749999D01*
X130398001Y-104738510D01*
X129277035Y-105859477D01*
X129277151Y-105726321D01*
X129143918Y-105403871D01*
X128897429Y-105156951D01*
X128575211Y-105023155D01*
X128226319Y-105022851D01*
X127903869Y-105156084D01*
X127664305Y-105395230D01*
X127543918Y-105103869D01*
X127297429Y-104856949D01*
X126975211Y-104723153D01*
X126626319Y-104722849D01*
X126391797Y-104819751D01*
X126343916Y-104703869D01*
X126097427Y-104456949D01*
X125775209Y-104323153D01*
X125502000Y-104322915D01*
X125502000Y-103350000D01*
X125444757Y-103062222D01*
X125281744Y-102818256D01*
X125037169Y-102573681D01*
X127277839Y-102573681D01*
X127411072Y-102896131D01*
X127657561Y-103143051D01*
X127960233Y-103268731D01*
X128123246Y-103431744D01*
X128367212Y-103594757D01*
X128654990Y-103652000D01*
X128969133Y-103652000D01*
X129269799Y-103776847D01*
X129618691Y-103777151D01*
X129941141Y-103643918D01*
X130188061Y-103397429D01*
X130321857Y-103075211D01*
X130322161Y-102726319D01*
X130188928Y-102403869D01*
X129942439Y-102156949D01*
X129620221Y-102023153D01*
X129271329Y-102022849D01*
X128995210Y-102136939D01*
X128898908Y-101903869D01*
X128652419Y-101656949D01*
X128330201Y-101523153D01*
X127981309Y-101522849D01*
X127658859Y-101656082D01*
X127411939Y-101902571D01*
X127278143Y-102224789D01*
X127277839Y-102573681D01*
X125037169Y-102573681D01*
X123568240Y-101104752D01*
X123443918Y-100803869D01*
X123197429Y-100556949D01*
X123101470Y-100517104D01*
X124049422Y-99569152D01*
X124080157Y-99523153D01*
X124217854Y-99317075D01*
X124277000Y-99019730D01*
X124277000Y-90721844D01*
X124445000Y-90553844D01*
X124445000Y-95951097D01*
X124345153Y-96191556D01*
X124344849Y-96540448D01*
X124478082Y-96862898D01*
X124724571Y-97109818D01*
X125046789Y-97243614D01*
X125395681Y-97243918D01*
X125718131Y-97110685D01*
X125965051Y-96864196D01*
X126098847Y-96541978D01*
X126099151Y-96193086D01*
X125999000Y-95950701D01*
X125999000Y-94462488D01*
X127059390Y-95522878D01*
X127026319Y-95522849D01*
X126703869Y-95656082D01*
X126456949Y-95902571D01*
X126323153Y-96224789D01*
X126322849Y-96573681D01*
X126448000Y-96876571D01*
X126448000Y-97955210D01*
X126203869Y-98056082D01*
X125956949Y-98302571D01*
X125823153Y-98624789D01*
X125822849Y-98973681D01*
X125956082Y-99296131D01*
X126202571Y-99543051D01*
X126524789Y-99676847D01*
X126873681Y-99677151D01*
X127196131Y-99543918D01*
X127443051Y-99297429D01*
X127568731Y-98994757D01*
X127731744Y-98831744D01*
X127777570Y-98763160D01*
X127894757Y-98587778D01*
X127952000Y-98300000D01*
X127952000Y-96875877D01*
X128076847Y-96575211D01*
X128076877Y-96540365D01*
X128098000Y-96561488D01*
X128098000Y-97274123D01*
X127973153Y-97574789D01*
X127972849Y-97923681D01*
X128106082Y-98246131D01*
X128352571Y-98493051D01*
X128674789Y-98626847D01*
X129023681Y-98627151D01*
X129346131Y-98493918D01*
X129593051Y-98247429D01*
X129726847Y-97925211D01*
X129727151Y-97576319D01*
X129602000Y-97273429D01*
X129602000Y-96250000D01*
X129544757Y-95962222D01*
X129381744Y-95718256D01*
X127102000Y-93438512D01*
X127102000Y-87911488D01*
X127311488Y-87702000D01*
X127711679Y-87702000D01*
X127802571Y-87793051D01*
X128124789Y-87926847D01*
X128128877Y-87926851D01*
X128105243Y-87962222D01*
X128048000Y-88250000D01*
X128073000Y-88375683D01*
X128073000Y-91218467D01*
X127991998Y-91299469D01*
X127969319Y-91299449D01*
X127646869Y-91432682D01*
X127399949Y-91679171D01*
X127266153Y-92001389D01*
X127265849Y-92350281D01*
X127399082Y-92672731D01*
X127645571Y-92919651D01*
X127967789Y-93053447D01*
X128316681Y-93053751D01*
X128639131Y-92920518D01*
X128886051Y-92674029D01*
X129019847Y-92351811D01*
X129019868Y-92327866D01*
X129222935Y-92124798D01*
X129222849Y-92223681D01*
X129356082Y-92546131D01*
X129602571Y-92793051D01*
X129924789Y-92926847D01*
X130273681Y-92927151D01*
X130576571Y-92802000D01*
X131344537Y-92802000D01*
X131524789Y-92876847D01*
X131873681Y-92877151D01*
X132024432Y-92814862D01*
X132052571Y-92843051D01*
X132374789Y-92976847D01*
X132723681Y-92977151D01*
X133046131Y-92843918D01*
X133293051Y-92597429D01*
X133426847Y-92275211D01*
X133427151Y-91926319D01*
X133402000Y-91865449D01*
X133402000Y-89950000D01*
X133344757Y-89662222D01*
X133181744Y-89418256D01*
X131518240Y-87754752D01*
X131427000Y-87533934D01*
X131427000Y-87350000D01*
X131367854Y-87052655D01*
X131199422Y-86800578D01*
X129549422Y-85150578D01*
X129297345Y-84982146D01*
X129000000Y-84923000D01*
X126515670Y-84923000D01*
X126275211Y-84823153D01*
X125926319Y-84822849D01*
X125603869Y-84956082D01*
X125356949Y-85202571D01*
X125223153Y-85524789D01*
X125222849Y-85873681D01*
X125356082Y-86196131D01*
X125382890Y-86222985D01*
X125226319Y-86222849D01*
X124903869Y-86356082D01*
X124656949Y-86602571D01*
X124606904Y-86723093D01*
X124326319Y-86722849D01*
X124003869Y-86856082D01*
X123756949Y-87102571D01*
X123623153Y-87424789D01*
X123622849Y-87773681D01*
X123723000Y-88016066D01*
X123723000Y-89078156D01*
X122950578Y-89850578D01*
X122782146Y-90102655D01*
X122723000Y-90400000D01*
X122723000Y-98697886D01*
X121864230Y-99556656D01*
X121623599Y-99656082D01*
X121376679Y-99902571D01*
X121250999Y-100205243D01*
X121237987Y-100218255D01*
X121074974Y-100462221D01*
X121047142Y-100602143D01*
X120923898Y-100303869D01*
X120677409Y-100056949D01*
X120355191Y-99923153D01*
X120006299Y-99922849D01*
X119683849Y-100056082D01*
X119436929Y-100302571D01*
X119311249Y-100605243D01*
X119218256Y-100698236D01*
X119055243Y-100942202D01*
X118998000Y-101229980D01*
X118998000Y-111958503D01*
X118886154Y-112004717D01*
X118499703Y-112390494D01*
X118116106Y-112006227D01*
X118002000Y-111958846D01*
X118002000Y-110661488D01*
X118581744Y-110081744D01*
X118744757Y-109837778D01*
X118802000Y-109550000D01*
X118802000Y-100500000D01*
X118776979Y-100374210D01*
X118777151Y-100176319D01*
X118643918Y-99853869D01*
X118397429Y-99606949D01*
X118075211Y-99473153D01*
X117726319Y-99472849D01*
X117403869Y-99606082D01*
X117156949Y-99852571D01*
X117023153Y-100174789D01*
X117022849Y-100523681D01*
X117156082Y-100846131D01*
X117298000Y-100988297D01*
X117298000Y-109238512D01*
X116718256Y-109818256D01*
X116579028Y-110026625D01*
X116546716Y-109864181D01*
X116507334Y-109805241D01*
X116383703Y-109620214D01*
X116381101Y-109617613D01*
X116601670Y-109397429D01*
X116735466Y-109075211D01*
X116735670Y-108840713D01*
X116752000Y-108758619D01*
X116752000Y-106375877D01*
X116876847Y-106075211D01*
X116877151Y-105726319D01*
X116743918Y-105403869D01*
X116497429Y-105156949D01*
X116175211Y-105023153D01*
X115826319Y-105022849D01*
X115503869Y-105156082D01*
X115256949Y-105402571D01*
X115123153Y-105724789D01*
X115122849Y-106073681D01*
X115248000Y-106376571D01*
X115248000Y-106884512D01*
X114068240Y-105704752D01*
X113983314Y-105499214D01*
X113996131Y-105493918D01*
X114243051Y-105247429D01*
X114368731Y-104944758D01*
X116031742Y-103281747D01*
X116194755Y-103037780D01*
X116251998Y-102750002D01*
X116251998Y-100975875D01*
X116376845Y-100675209D01*
X116377149Y-100326317D01*
X116243916Y-100003867D01*
X115997427Y-99756947D01*
X115675209Y-99623151D01*
X115326317Y-99622847D01*
X115003867Y-99756080D01*
X114756947Y-100002569D01*
X114623151Y-100324787D01*
X114622847Y-100673679D01*
X114747998Y-100976569D01*
X114747998Y-102438513D01*
X113304751Y-103881761D01*
X113003869Y-104006082D01*
X112756949Y-104252571D01*
X112752000Y-104264490D01*
X112752000Y-104000000D01*
X112694757Y-103712222D01*
X112677099Y-103685795D01*
X112677151Y-103626319D01*
X112543918Y-103303869D01*
X112297429Y-103056949D01*
X111975211Y-102923153D01*
X111626319Y-102922849D01*
X111303869Y-103056082D01*
X111056949Y-103302571D01*
X110923153Y-103624789D01*
X110922849Y-103973681D01*
X111056082Y-104296131D01*
X111248000Y-104488385D01*
X111248000Y-107400000D01*
X111305243Y-107687778D01*
X111468256Y-107931744D01*
X113998000Y-110461489D01*
X113998000Y-111958503D01*
X113886154Y-112004717D01*
X113499703Y-112390494D01*
X113116106Y-112006227D01*
X113002000Y-111958846D01*
X113002000Y-111050000D01*
X112944757Y-110762222D01*
X112861606Y-110637778D01*
X112781744Y-110518255D01*
X110252000Y-107988512D01*
X110252000Y-104500000D01*
X110194757Y-104212222D01*
X110031744Y-103968256D01*
X109768240Y-103704752D01*
X109643918Y-103403869D01*
X109397429Y-103156949D01*
X109075211Y-103023153D01*
X108726319Y-103022849D01*
X108539922Y-103099866D01*
X108297429Y-102856949D01*
X107975211Y-102723153D01*
X107626319Y-102722849D01*
X107303869Y-102856082D01*
X107056949Y-103102571D01*
X106923153Y-103424789D01*
X106922849Y-103773681D01*
X107056082Y-104096131D01*
X107302571Y-104343051D01*
X107348000Y-104361915D01*
X107348000Y-109000000D01*
X107405243Y-109287778D01*
X107568256Y-109531744D01*
X108998000Y-110961489D01*
X108998000Y-111958503D01*
X108886154Y-112004717D01*
X108499703Y-112390494D01*
X108116106Y-112006227D01*
X108002000Y-111958846D01*
X108002000Y-110750000D01*
X107944757Y-110462222D01*
X107781744Y-110218256D01*
X105952000Y-108388512D01*
X105952000Y-102235049D01*
X105976847Y-102175211D01*
X105977107Y-101876849D01*
X106323681Y-101877151D01*
X106626571Y-101752000D01*
X109300000Y-101752000D01*
X109587778Y-101694757D01*
X109831744Y-101531744D01*
X109995248Y-101368240D01*
X110276571Y-101252000D01*
X112544537Y-101252000D01*
X112724789Y-101326847D01*
X113073681Y-101327151D01*
X113396131Y-101193918D01*
X113643051Y-100947429D01*
X113776847Y-100625211D01*
X113777151Y-100276319D01*
X113643918Y-99953869D01*
X113397429Y-99706949D01*
X113075211Y-99573153D01*
X112726319Y-99572849D01*
X112403869Y-99706082D01*
X112361878Y-99748000D01*
X110275877Y-99748000D01*
X109975211Y-99623153D01*
X109626319Y-99622849D01*
X109303869Y-99756082D01*
X109056949Y-100002571D01*
X108955038Y-100248000D01*
X106625877Y-100248000D01*
X106325211Y-100123153D01*
X105976319Y-100122849D01*
X105915449Y-100148000D01*
X104525877Y-100148000D01*
X104225211Y-100023153D01*
X103876319Y-100022849D01*
X103553869Y-100156082D01*
X103306949Y-100402571D01*
X103173153Y-100724789D01*
X103172849Y-101073681D01*
X103306082Y-101396131D01*
X103552571Y-101643051D01*
X103874789Y-101776847D01*
X104223681Y-101777151D01*
X104246921Y-101767548D01*
X104223153Y-101824789D01*
X104222849Y-102173681D01*
X104356082Y-102496131D01*
X104448000Y-102588210D01*
X104448000Y-108484511D01*
X103676796Y-107713307D01*
X103893051Y-107497429D01*
X104026847Y-107175211D01*
X104027151Y-106826319D01*
X103902000Y-106523429D01*
X103902000Y-105332812D01*
X103996131Y-105293918D01*
X104243051Y-105047429D01*
X104376847Y-104725211D01*
X104377151Y-104376319D01*
X104243918Y-104053869D01*
X103997429Y-103806949D01*
X103675211Y-103673153D01*
X103326319Y-103672849D01*
X103003869Y-103806082D01*
X102756949Y-104052571D01*
X102631270Y-104355242D01*
X102618256Y-104368256D01*
X102455243Y-104612222D01*
X102398000Y-104900000D01*
X102398000Y-106434512D01*
X100952000Y-104988512D01*
X100952000Y-104411488D01*
X101795248Y-103568240D01*
X102096131Y-103443918D01*
X102343051Y-103197429D01*
X102476847Y-102875211D01*
X102477151Y-102526319D01*
X102343918Y-102203869D01*
X102097429Y-101956949D01*
X101775211Y-101823153D01*
X101426319Y-101822849D01*
X101103869Y-101956082D01*
X100856949Y-102202571D01*
X100731269Y-102505243D01*
X100213500Y-103023012D01*
X100026319Y-103022849D01*
X99703869Y-103156082D01*
X99552000Y-103307686D01*
X99552000Y-102200000D01*
X99537475Y-102126978D01*
X99537397Y-102052521D01*
X99509130Y-101984480D01*
X99494757Y-101912222D01*
X99453393Y-101850317D01*
X99424828Y-101781558D01*
X99372675Y-101729514D01*
X99331744Y-101668256D01*
X99269840Y-101626893D01*
X99217135Y-101574298D01*
X98394265Y-101025718D01*
X98343918Y-100903869D01*
X98097429Y-100656949D01*
X97775211Y-100523153D01*
X97426319Y-100522849D01*
X97103869Y-100656082D01*
X96861508Y-100898020D01*
X96168239Y-100204751D01*
X96043918Y-99903869D01*
X95797429Y-99656949D01*
X95475211Y-99523153D01*
X95126319Y-99522849D01*
X94803869Y-99656082D01*
X94730617Y-99729206D01*
X94475211Y-99623153D01*
X94126319Y-99622849D01*
X93803869Y-99756082D01*
X93556949Y-100002571D01*
X93423153Y-100324789D01*
X93422849Y-100673681D01*
X93556082Y-100996131D01*
X93802571Y-101243051D01*
X94124789Y-101376847D01*
X94167515Y-101376884D01*
X94248000Y-101445871D01*
X94248000Y-107200000D01*
X94305243Y-107487778D01*
X94468256Y-107731744D01*
X98813628Y-112077117D01*
X98499703Y-112390494D01*
X98116106Y-112006227D01*
X97555072Y-111773265D01*
X96947593Y-111772735D01*
X96833405Y-111819916D01*
X91852000Y-106838512D01*
X91852000Y-105688321D01*
X91943051Y-105597429D01*
X92076847Y-105275211D01*
X92077151Y-104926319D01*
X91943918Y-104603869D01*
X91697429Y-104356949D01*
X91375211Y-104223153D01*
X91026319Y-104222849D01*
X90703869Y-104356082D01*
X90627000Y-104432817D01*
X90627000Y-102900000D01*
X90548824Y-102506984D01*
X90326199Y-102173801D01*
X89993016Y-101951176D01*
X89600000Y-101873000D01*
X89385600Y-101915647D01*
X89385600Y-101652000D01*
X91911592Y-101652000D01*
X91952571Y-101693051D01*
X92274789Y-101826847D01*
X92623681Y-101827151D01*
X92946131Y-101693918D01*
X93193051Y-101447429D01*
X93326847Y-101125211D01*
X93327151Y-100776319D01*
X93193918Y-100453869D01*
X92947429Y-100206949D01*
X92625211Y-100073153D01*
X92276319Y-100072849D01*
X92094439Y-100148000D01*
X89385600Y-100148000D01*
X89385600Y-93325551D01*
X89456082Y-93496131D01*
X89702571Y-93743051D01*
X90024789Y-93876847D01*
X90373681Y-93877151D01*
X90517000Y-93817933D01*
X90517000Y-96029594D01*
X90474749Y-96071771D01*
X90340953Y-96393989D01*
X90340649Y-96742881D01*
X90473882Y-97065331D01*
X90720371Y-97312251D01*
X91042589Y-97446047D01*
X91391481Y-97446351D01*
X91713931Y-97313118D01*
X91960851Y-97066629D01*
X92094647Y-96744411D01*
X92094951Y-96395519D01*
X92071000Y-96337553D01*
X92071000Y-91773681D01*
X100822849Y-91773681D01*
X100956082Y-92096131D01*
X101202571Y-92343051D01*
X101505241Y-92468730D01*
X101568255Y-92531744D01*
X101736136Y-92643918D01*
X101812222Y-92694757D01*
X102100000Y-92752000D01*
X102624123Y-92752000D01*
X102924789Y-92876847D01*
X103235600Y-92877118D01*
X103235600Y-93633362D01*
X103234978Y-93633778D01*
X103066546Y-93885855D01*
X103007400Y-94183200D01*
X103066546Y-94480545D01*
X103110461Y-94546269D01*
X103110449Y-94560081D01*
X103243682Y-94882531D01*
X103490171Y-95129451D01*
X103812389Y-95263247D01*
X104023000Y-95263431D01*
X104023000Y-96697800D01*
X104080243Y-96985578D01*
X104243256Y-97229544D01*
X104338561Y-97324849D01*
X104462882Y-97625731D01*
X104709371Y-97872651D01*
X105031589Y-98006447D01*
X105380481Y-98006751D01*
X105702931Y-97873518D01*
X105949851Y-97627029D01*
X106083647Y-97304811D01*
X106083951Y-96955919D01*
X105950718Y-96633469D01*
X105704229Y-96386549D01*
X105527000Y-96312957D01*
X105527000Y-86072007D01*
X105651847Y-85771341D01*
X105652151Y-85422449D01*
X105642876Y-85400000D01*
X106873000Y-85400000D01*
X106873000Y-86100000D01*
X106951176Y-86493016D01*
X107173801Y-86826199D01*
X107506984Y-87048824D01*
X107900000Y-87127000D01*
X108293016Y-87048824D01*
X108626199Y-86826199D01*
X108848824Y-86493016D01*
X108927000Y-86100000D01*
X108927000Y-85825398D01*
X110147407Y-84604991D01*
X110370032Y-84271808D01*
X110448208Y-83878792D01*
X110448208Y-82300884D01*
X110448209Y-82300879D01*
X110373013Y-81922849D01*
X110370032Y-81907863D01*
X110147407Y-81574680D01*
X110147404Y-81574678D01*
X110127000Y-81554274D01*
X110127000Y-80700000D01*
X110048824Y-80306984D01*
X109826199Y-79973801D01*
X109493016Y-79751176D01*
X109100000Y-79673000D01*
X108706984Y-79751176D01*
X108373801Y-79973801D01*
X108151176Y-80306984D01*
X108073000Y-80700000D01*
X108073000Y-81979671D01*
X108151176Y-82372687D01*
X108373801Y-82705870D01*
X108394208Y-82726277D01*
X108394208Y-83453394D01*
X107173801Y-84673801D01*
X106951176Y-85006984D01*
X106873000Y-85400000D01*
X105642876Y-85400000D01*
X105518918Y-85099999D01*
X105272429Y-84853079D01*
X104950211Y-84719283D01*
X104601319Y-84718979D01*
X104278869Y-84852212D01*
X104197215Y-84933724D01*
X102881747Y-83618257D01*
X102881745Y-83618254D01*
X102868241Y-83604750D01*
X102743920Y-83303869D01*
X102497431Y-83056949D01*
X102175213Y-82923153D01*
X101826321Y-82922849D01*
X101503871Y-83056082D01*
X101256951Y-83302571D01*
X101123155Y-83624789D01*
X101122851Y-83973681D01*
X101256084Y-84296131D01*
X101502573Y-84543051D01*
X101805243Y-84668730D01*
X101818256Y-84681743D01*
X101818259Y-84681745D01*
X103235600Y-86099087D01*
X103235600Y-91123118D01*
X102926319Y-91122849D01*
X102623429Y-91248000D01*
X102503471Y-91248000D01*
X102443918Y-91103869D01*
X102197429Y-90856949D01*
X101875211Y-90723153D01*
X101526319Y-90722849D01*
X101203869Y-90856082D01*
X100956949Y-91102571D01*
X100823153Y-91424789D01*
X100822849Y-91773681D01*
X92071000Y-91773681D01*
X92071000Y-88608758D01*
X96423020Y-86077671D01*
X96422849Y-86273681D01*
X96556082Y-86596131D01*
X96802571Y-86843051D01*
X97124789Y-86976847D01*
X97473681Y-86977151D01*
X97796131Y-86843918D01*
X97838122Y-86802000D01*
X98561592Y-86802000D01*
X98602571Y-86843051D01*
X98924789Y-86976847D01*
X99273681Y-86977151D01*
X99596131Y-86843918D01*
X99843051Y-86597429D01*
X99976847Y-86275211D01*
X99977151Y-85926319D01*
X99843918Y-85603869D01*
X99597429Y-85356949D01*
X99275211Y-85223153D01*
X98926319Y-85222849D01*
X98603869Y-85356082D01*
X98561878Y-85398000D01*
X97838408Y-85398000D01*
X97797429Y-85356949D01*
X97475211Y-85223153D01*
X97126319Y-85222849D01*
X96916000Y-85309751D01*
X96916000Y-75921025D01*
X96891000Y-75795342D01*
X96891000Y-74347852D01*
X96833757Y-74060074D01*
X96782829Y-73983854D01*
X96782866Y-73940886D01*
X96649633Y-73618436D01*
X96403144Y-73371516D01*
X96080926Y-73237720D01*
X95732034Y-73237416D01*
X95409584Y-73370649D01*
X95162664Y-73617138D01*
X95028868Y-73939356D01*
X95028564Y-74288248D01*
X95161797Y-74610698D01*
X95387000Y-74836295D01*
X95387000Y-75795342D01*
X95362000Y-75921025D01*
X95362000Y-84897041D01*
X90903367Y-87490135D01*
X90828079Y-87556585D01*
X90744578Y-87612378D01*
X90715417Y-87656020D01*
X90676067Y-87690751D01*
X90631937Y-87780957D01*
X90576146Y-87864455D01*
X90565907Y-87915931D01*
X90542841Y-87963080D01*
X90536591Y-88063310D01*
X90517000Y-88161800D01*
X90517000Y-90523552D01*
X90275211Y-90423153D01*
X89926319Y-90422849D01*
X89603869Y-90556082D01*
X89385600Y-90773970D01*
X89385600Y-85825701D01*
X89602571Y-86043051D01*
X89924789Y-86176847D01*
X90273681Y-86177151D01*
X90596131Y-86043918D01*
X90843051Y-85797429D01*
X90913819Y-85627000D01*
X91486548Y-85627000D01*
X91502571Y-85643051D01*
X91824789Y-85776847D01*
X92173681Y-85777151D01*
X92496131Y-85643918D01*
X92743051Y-85397429D01*
X92876847Y-85075211D01*
X92877151Y-84726319D01*
X92743918Y-84403869D01*
X92556651Y-84216275D01*
X92584357Y-84210764D01*
X93079752Y-83879752D01*
X93410764Y-83384357D01*
X93527000Y-82800000D01*
X93410764Y-82215643D01*
X93079752Y-81720248D01*
X92879752Y-81520248D01*
X92852906Y-81502310D01*
X92833865Y-81476233D01*
X92606125Y-81337416D01*
X92384358Y-81189236D01*
X92352690Y-81182937D01*
X92325120Y-81166132D01*
X92061595Y-81125034D01*
X91800000Y-81073000D01*
X89400000Y-81073000D01*
X88815642Y-81189236D01*
X88320248Y-81520248D01*
X88260156Y-81610182D01*
X88163557Y-81545636D01*
X87579200Y-81429400D01*
X86994843Y-81545636D01*
X86499448Y-81876648D01*
X86168436Y-82372043D01*
X86077000Y-82831722D01*
X86077000Y-72872600D01*
X99299000Y-72872600D01*
X99299000Y-74752200D01*
X99358146Y-75049545D01*
X99526578Y-75301622D01*
X99561404Y-75324892D01*
X100831760Y-76595248D01*
X100956082Y-76896131D01*
X101202571Y-77143051D01*
X101524789Y-77276847D01*
X101873681Y-77277151D01*
X102196131Y-77143918D01*
X102433382Y-76907081D01*
X117461449Y-76907081D01*
X117594682Y-77229531D01*
X117841171Y-77476451D01*
X118163389Y-77610247D01*
X118512281Y-77610551D01*
X118834731Y-77477318D01*
X119081651Y-77230829D01*
X119182225Y-76988619D01*
X119981244Y-76189600D01*
X120183530Y-76189600D01*
X120423989Y-76289447D01*
X120772881Y-76289751D01*
X121095331Y-76156518D01*
X121342251Y-75910029D01*
X121476047Y-75587811D01*
X121476351Y-75238919D01*
X121343118Y-74916469D01*
X121096629Y-74669549D01*
X120774411Y-74535753D01*
X120425519Y-74535449D01*
X120183134Y-74635600D01*
X119659400Y-74635600D01*
X119362055Y-74694746D01*
X119109978Y-74863178D01*
X118083100Y-75890056D01*
X117842469Y-75989482D01*
X117595549Y-76235971D01*
X117461753Y-76558189D01*
X117461449Y-76907081D01*
X102433382Y-76907081D01*
X102443051Y-76897429D01*
X102576847Y-76575211D01*
X102577151Y-76226319D01*
X102443918Y-75903869D01*
X102197429Y-75656949D01*
X101894757Y-75531269D01*
X100853000Y-74489512D01*
X100853000Y-74463991D01*
X101044781Y-74543625D01*
X101350578Y-74849422D01*
X101602655Y-75017854D01*
X101900000Y-75077000D01*
X110184330Y-75077000D01*
X110424789Y-75176847D01*
X110773681Y-75177151D01*
X111096131Y-75043918D01*
X111343051Y-74797429D01*
X111476847Y-74475211D01*
X111477151Y-74126319D01*
X111343918Y-73803869D01*
X111097429Y-73556949D01*
X110775211Y-73423153D01*
X110426319Y-73422849D01*
X110183934Y-73523000D01*
X102221844Y-73523000D01*
X102143344Y-73444500D01*
X102043918Y-73203869D01*
X101797429Y-72956949D01*
X101475211Y-72823153D01*
X101224509Y-72822935D01*
X103877644Y-70169800D01*
X109998130Y-70169800D01*
X110238589Y-70269647D01*
X110587481Y-70269951D01*
X110909931Y-70136718D01*
X111156851Y-69890229D01*
X111290647Y-69568011D01*
X111290951Y-69219119D01*
X111157718Y-68896669D01*
X110911229Y-68649749D01*
X110589011Y-68515953D01*
X110240119Y-68515649D01*
X109997734Y-68615800D01*
X103555800Y-68615800D01*
X103258455Y-68674946D01*
X103126966Y-68762804D01*
X103127198Y-68495978D01*
X102971119Y-68118236D01*
X102682364Y-67828977D01*
X102304895Y-67672238D01*
X101896178Y-67671882D01*
X101518436Y-67827961D01*
X101229177Y-68116716D01*
X101072438Y-68494185D01*
X101072082Y-68902902D01*
X101228161Y-69280644D01*
X101516916Y-69569903D01*
X101894385Y-69726642D01*
X102122915Y-69726841D01*
X99526578Y-72323178D01*
X99358146Y-72575255D01*
X99299000Y-72872600D01*
X86077000Y-72872600D01*
X86077000Y-67401426D01*
X88972649Y-67401426D01*
X89280591Y-68146703D01*
X89850298Y-68717405D01*
X90595036Y-69026647D01*
X91401426Y-69027351D01*
X91702615Y-68902902D01*
X96672802Y-68902902D01*
X96828881Y-69280644D01*
X97117636Y-69569903D01*
X97495105Y-69726642D01*
X97903822Y-69726998D01*
X98281564Y-69570919D01*
X98570823Y-69282164D01*
X98727562Y-68904695D01*
X98727918Y-68495978D01*
X98571839Y-68118236D01*
X98386804Y-67932878D01*
X98700281Y-67933151D01*
X99022731Y-67799918D01*
X99269651Y-67553429D01*
X99403447Y-67231211D01*
X99403751Y-66882319D01*
X99270518Y-66559869D01*
X99024029Y-66312949D01*
X98701811Y-66179153D01*
X98352919Y-66178849D01*
X98030469Y-66312082D01*
X97783549Y-66558571D01*
X97649753Y-66880789D01*
X97649449Y-67229681D01*
X97782682Y-67552131D01*
X97902577Y-67672235D01*
X97496898Y-67671882D01*
X97119156Y-67827961D01*
X96829897Y-68116716D01*
X96673158Y-68494185D01*
X96672802Y-68902902D01*
X91702615Y-68902902D01*
X92146703Y-68719409D01*
X92717405Y-68149702D01*
X93026647Y-67404964D01*
X93027351Y-66598574D01*
X92719409Y-65853297D01*
X92149702Y-65282595D01*
X91404964Y-64973353D01*
X90598574Y-64972649D01*
X89853297Y-65280591D01*
X89282595Y-65850298D01*
X88973353Y-66595036D01*
X88972649Y-67401426D01*
X86077000Y-67401426D01*
X86077000Y-61077000D01*
X117579886Y-61077000D01*
X117321790Y-61128339D01*
X117321790Y-61128339D01*
G37*
X117321790Y-61128339D02*
X117321788Y-61128340D01*
X117321789Y-61128340D01*
X117085933Y-61285933D01*
X117085931Y-61285936D01*
X115048997Y-63322869D01*
X115026319Y-63322849D01*
X114703869Y-63456082D01*
X114456949Y-63702571D01*
X114323153Y-64024789D01*
X114322849Y-64373681D01*
X114456082Y-64696131D01*
X114702571Y-64943051D01*
X115024789Y-65076847D01*
X115373681Y-65077151D01*
X115696131Y-64943918D01*
X115943051Y-64697429D01*
X116076847Y-64375211D01*
X116076868Y-64351266D01*
X116344009Y-64084125D01*
X116552571Y-64293051D01*
X116659204Y-64337329D01*
X116582146Y-64452655D01*
X116523000Y-64750000D01*
X116523000Y-66284330D01*
X116423153Y-66524789D01*
X116423057Y-66634600D01*
X115491691Y-66634600D01*
X115450318Y-66534469D01*
X115203829Y-66287549D01*
X114881611Y-66153753D01*
X114532719Y-66153449D01*
X114210269Y-66286682D01*
X113963349Y-66533171D01*
X113829553Y-66855389D01*
X113829249Y-67204281D01*
X113962482Y-67526731D01*
X114208971Y-67773651D01*
X114451181Y-67874225D01*
X114537978Y-67961022D01*
X114790055Y-68129454D01*
X115087400Y-68188600D01*
X121228260Y-68188600D01*
X121422571Y-68383251D01*
X121432081Y-68387200D01*
X115112800Y-68387200D01*
X114815455Y-68446346D01*
X114711734Y-68515650D01*
X114710519Y-68515649D01*
X114388069Y-68648882D01*
X114141149Y-68895371D01*
X114007353Y-69217589D01*
X114007049Y-69566481D01*
X114023378Y-69606000D01*
X113874889Y-69606000D01*
X112774809Y-68505921D01*
X112840047Y-68348811D01*
X112840351Y-67999919D01*
X112707118Y-67677469D01*
X112460629Y-67430549D01*
X112138411Y-67296753D01*
X111789519Y-67296449D01*
X111467069Y-67429682D01*
X111220149Y-67676171D01*
X111086353Y-67998389D01*
X111086049Y-68347281D01*
X111211200Y-68650171D01*
X111211200Y-68757800D01*
X111268443Y-69045578D01*
X111431456Y-69289544D01*
X113031656Y-70889745D01*
X113147435Y-70967105D01*
X113275622Y-71052757D01*
X113563400Y-71110000D01*
X121894600Y-71110000D01*
X122182378Y-71052757D01*
X122426344Y-70889744D01*
X123391544Y-69924544D01*
X123554557Y-69680578D01*
X123611800Y-69392800D01*
X123611800Y-68814451D01*
X123628251Y-68798029D01*
X123762047Y-68475811D01*
X123762351Y-68126919D01*
X123629118Y-67804469D01*
X123382629Y-67557549D01*
X123099197Y-67439858D01*
X123162165Y-67377000D01*
X124748866Y-67377000D01*
X125125505Y-67753639D01*
X125173025Y-73456058D01*
X125174168Y-73461563D01*
X125173201Y-73467101D01*
X125202957Y-73600246D01*
X125230682Y-73733798D01*
X125233844Y-73738445D01*
X125235070Y-73743933D01*
X125313508Y-73855549D01*
X125390235Y-73968333D01*
X125394936Y-73971418D01*
X125398168Y-73976017D01*
X127348168Y-75836362D01*
X127451879Y-75902184D01*
X127551954Y-75973443D01*
X127571091Y-75977844D01*
X127587666Y-75988364D01*
X127708681Y-76009490D01*
X127828398Y-76037024D01*
X127847757Y-76033768D01*
X127867101Y-76037145D01*
X127987002Y-76010348D01*
X128108131Y-75989975D01*
X131093230Y-74856205D01*
X135159211Y-79364139D01*
X135062268Y-81346083D01*
X135065751Y-81369527D01*
X135061487Y-81392841D01*
X135135705Y-86192241D01*
X131601724Y-82444022D01*
X131601724Y-82178688D01*
X131666282Y-82334931D01*
X131912771Y-82581851D01*
X132234989Y-82715647D01*
X132583881Y-82715951D01*
X132906331Y-82582718D01*
X133005063Y-82484159D01*
X133073189Y-82512447D01*
X133422081Y-82512751D01*
X133744531Y-82379518D01*
X133991451Y-82133029D01*
X134125247Y-81810811D01*
X134125344Y-81699789D01*
X134311081Y-81699951D01*
X134633531Y-81566718D01*
X134880451Y-81320229D01*
X135014247Y-80998011D01*
X135014551Y-80649119D01*
X134881318Y-80326669D01*
X134634829Y-80079749D01*
X134576731Y-80055625D01*
X132867999Y-77290178D01*
X132806533Y-77224175D01*
X132756422Y-77149178D01*
X132704193Y-77114280D01*
X132661387Y-77068314D01*
X132579341Y-77030856D01*
X132504345Y-76980746D01*
X132442738Y-76968492D01*
X132385599Y-76942405D01*
X132295463Y-76939196D01*
X132207000Y-76921600D01*
X124968000Y-76921600D01*
X124805200Y-76953983D01*
X124805200Y-75728200D01*
X124746054Y-75430855D01*
X124577622Y-75178778D01*
X122143344Y-72744500D01*
X122043918Y-72503869D01*
X121797429Y-72256949D01*
X121475211Y-72123153D01*
X121126319Y-72122849D01*
X120803869Y-72256082D01*
X120556949Y-72502571D01*
X120423153Y-72824789D01*
X120422849Y-73173681D01*
X120556082Y-73496131D01*
X120802571Y-73743051D01*
X121044781Y-73843625D01*
X123251200Y-76050044D01*
X123251200Y-79187930D01*
X123151353Y-79428389D01*
X123151049Y-79777281D01*
X123284282Y-80099731D01*
X123530771Y-80346651D01*
X123852989Y-80480447D01*
X124201881Y-80480751D01*
X124524331Y-80347518D01*
X124771251Y-80101029D01*
X124905047Y-79778811D01*
X124905351Y-79429919D01*
X124805200Y-79187534D01*
X124805200Y-78829679D01*
X124887681Y-78829751D01*
X125210131Y-78696518D01*
X125431435Y-78475600D01*
X126345605Y-78475600D01*
X122876999Y-83424956D01*
X122876999Y-76915669D01*
X122976846Y-76675210D01*
X122977150Y-76326318D01*
X122843917Y-76003868D01*
X122597428Y-75756948D01*
X122275210Y-75623152D01*
X121926318Y-75622848D01*
X121603868Y-75756081D01*
X121356948Y-76002570D01*
X121223152Y-76324788D01*
X121222848Y-76673680D01*
X121322999Y-76916065D01*
X121322999Y-83978157D01*
X120344500Y-84956656D01*
X120103869Y-85056082D01*
X119856949Y-85302571D01*
X119723153Y-85624789D01*
X119722849Y-85973681D01*
X119856082Y-86296131D01*
X120102571Y-86543051D01*
X120191054Y-86579792D01*
X119603127Y-87694826D01*
X117839708Y-89067369D01*
X117832754Y-89075410D01*
X117823391Y-89080438D01*
X117174591Y-89615038D01*
X117142999Y-89653688D01*
X117102503Y-89682879D01*
X116716148Y-90097711D01*
X116453869Y-90206082D01*
X116206949Y-90452571D01*
X116073153Y-90774789D01*
X116072849Y-91123681D01*
X116206082Y-91446131D01*
X116452571Y-91693051D01*
X116774789Y-91826847D01*
X117123681Y-91827151D01*
X117446131Y-91693918D01*
X117693051Y-91447429D01*
X117826847Y-91125211D01*
X117826859Y-91111889D01*
X118074725Y-90845753D01*
X117968696Y-92417816D01*
X117068256Y-93318256D01*
X116905243Y-93562222D01*
X116848000Y-93850000D01*
X116848000Y-96574123D01*
X116723153Y-96874789D01*
X116722849Y-97223681D01*
X116856082Y-97546131D01*
X117102571Y-97793051D01*
X117424789Y-97926847D01*
X117773681Y-97927151D01*
X118096131Y-97793918D01*
X118343051Y-97547429D01*
X118476847Y-97225211D01*
X118477151Y-96876319D01*
X118352000Y-96573429D01*
X118352000Y-94161488D01*
X119231744Y-93281744D01*
X119299447Y-93180419D01*
X119373817Y-93083878D01*
X119380504Y-93059109D01*
X119394757Y-93037778D01*
X119418532Y-92918254D01*
X119450295Y-92800604D01*
X119574199Y-90963518D01*
X121466799Y-89493969D01*
X121530670Y-89420291D01*
X121603765Y-89355744D01*
X128307457Y-80557150D01*
X129247271Y-80487548D01*
X129247049Y-80742481D01*
X129334012Y-80952948D01*
X129297869Y-80967882D01*
X129050949Y-81214371D01*
X128917153Y-81536589D01*
X128916849Y-81885481D01*
X129017000Y-82127866D01*
X129017000Y-83210400D01*
X129076146Y-83507745D01*
X129244578Y-83759822D01*
X134307676Y-88822920D01*
X134226319Y-88822849D01*
X133903869Y-88956082D01*
X133656949Y-89202571D01*
X133523153Y-89524789D01*
X133522849Y-89873681D01*
X133623000Y-90116066D01*
X133623000Y-96325400D01*
X133682146Y-96622745D01*
X133850578Y-96874822D01*
X137398842Y-100423086D01*
X137126319Y-100422849D01*
X136803869Y-100556082D01*
X136556949Y-100802571D01*
X136423153Y-101124789D01*
X136422849Y-101473681D01*
X136556082Y-101796131D01*
X136802571Y-102043051D01*
X137124789Y-102176847D01*
X137148734Y-102176868D01*
X139905331Y-104933464D01*
X139905333Y-104933467D01*
X140079737Y-105049999D01*
X140141189Y-105091060D01*
X140419400Y-105146400D01*
X140456548Y-105146400D01*
X140472571Y-105162451D01*
X140794789Y-105296247D01*
X141143681Y-105296551D01*
X141466131Y-105163318D01*
X141713051Y-104916829D01*
X141765727Y-104789971D01*
X141853856Y-104878100D01*
X141953282Y-105118731D01*
X142199771Y-105365651D01*
X142521989Y-105499447D01*
X142870881Y-105499751D01*
X143193331Y-105366518D01*
X143440251Y-105120029D01*
X143448212Y-105100856D01*
X145932378Y-107585022D01*
X146184455Y-107753454D01*
X146481800Y-107812600D01*
X152309816Y-107812600D01*
X154973000Y-111887013D01*
X154973000Y-111968833D01*
X154886154Y-112004717D01*
X154519801Y-112370430D01*
X154402532Y-112327073D01*
X153429605Y-113300000D01*
X154402532Y-114272927D01*
X154520185Y-114229428D01*
X154883894Y-114593773D01*
X155444928Y-114826735D01*
X156052407Y-114827265D01*
X156613846Y-114595283D01*
X156756846Y-114452532D01*
X157277073Y-114452532D01*
X157375736Y-114719387D01*
X157985461Y-114945908D01*
X158635460Y-114921856D01*
X159124264Y-114719387D01*
X159222927Y-114452532D01*
X158250000Y-113479605D01*
X157277073Y-114452532D01*
X156756846Y-114452532D01*
X156980199Y-114229570D01*
X157097468Y-114272927D01*
X158070395Y-113300000D01*
X157097468Y-112327073D01*
X156979815Y-112370572D01*
X156757101Y-112147468D01*
X157277073Y-112147468D01*
X158250000Y-113120395D01*
X159222927Y-112147468D01*
X159124264Y-111880613D01*
X158514539Y-111654092D01*
X157864540Y-111678144D01*
X157375736Y-111880613D01*
X157277073Y-112147468D01*
X156757101Y-112147468D01*
X156616106Y-112006227D01*
X156527000Y-111969227D01*
X156527000Y-111655600D01*
X156512830Y-111584363D01*
X156513565Y-111511736D01*
X156483543Y-111437130D01*
X156467854Y-111358255D01*
X156427503Y-111297865D01*
X156400388Y-111230483D01*
X153585253Y-106923600D01*
X154897556Y-106923600D01*
X159951622Y-111977666D01*
X159886154Y-112004717D01*
X159519801Y-112370430D01*
X159402532Y-112327073D01*
X158429605Y-113300000D01*
X159402532Y-114272927D01*
X159520185Y-114229428D01*
X159883894Y-114593773D01*
X160444928Y-114826735D01*
X161052407Y-114827265D01*
X161613846Y-114595283D01*
X161756846Y-114452532D01*
X162277073Y-114452532D01*
X162375736Y-114719387D01*
X162985461Y-114945908D01*
X163635460Y-114921856D01*
X164124264Y-114719387D01*
X164222927Y-114452532D01*
X163250000Y-113479605D01*
X162277073Y-114452532D01*
X161756846Y-114452532D01*
X161980199Y-114229570D01*
X162097468Y-114272927D01*
X163070395Y-113300000D01*
X163429605Y-113300000D01*
X164402532Y-114272927D01*
X164669387Y-114174264D01*
X164895908Y-113564539D01*
X164871856Y-112914540D01*
X164669387Y-112425736D01*
X164402532Y-112327073D01*
X163429605Y-113300000D01*
X163070395Y-113300000D01*
X162097468Y-112327073D01*
X161979815Y-112370572D01*
X161757101Y-112147468D01*
X162277073Y-112147468D01*
X163250000Y-113120395D01*
X164222927Y-112147468D01*
X164124264Y-111880613D01*
X163514539Y-111654092D01*
X162864540Y-111678144D01*
X162375736Y-111880613D01*
X162277073Y-112147468D01*
X161757101Y-112147468D01*
X161616106Y-112006227D01*
X161527000Y-111969227D01*
X161527000Y-111677200D01*
X161467854Y-111379855D01*
X161299422Y-111127778D01*
X155768822Y-105597178D01*
X155516745Y-105428746D01*
X155219400Y-105369600D01*
X147180080Y-105369600D01*
X144936817Y-103170979D01*
X144971331Y-103156718D01*
X145218251Y-102910229D01*
X145352047Y-102588011D01*
X145352351Y-102239119D01*
X145250378Y-101992324D01*
X145940000Y-101992324D01*
X146135294Y-101955577D01*
X146314660Y-101840158D01*
X146434990Y-101664049D01*
X146452821Y-101575996D01*
X146643221Y-101497324D01*
X146797136Y-101497324D01*
X147036797Y-101596840D01*
X147401602Y-101597159D01*
X147643221Y-101497324D01*
X147797136Y-101497324D01*
X148036797Y-101596840D01*
X148401602Y-101597159D01*
X148643221Y-101497324D01*
X149140000Y-101497324D01*
X149335294Y-101460577D01*
X149514660Y-101345158D01*
X149634990Y-101169049D01*
X149677324Y-100960000D01*
X149677324Y-100210000D01*
X149640577Y-100014706D01*
X149525158Y-99835340D01*
X149349049Y-99715010D01*
X149202324Y-99685297D01*
X149202324Y-98927000D01*
X153700000Y-98927000D01*
X154093016Y-98848824D01*
X154426199Y-98626199D01*
X154648824Y-98293016D01*
X154727000Y-97900000D01*
X154648824Y-97506984D01*
X154426199Y-97173801D01*
X154093016Y-96951176D01*
X153700000Y-96873000D01*
X149677324Y-96873000D01*
X149677324Y-96400000D01*
X149640577Y-96204706D01*
X149525158Y-96025340D01*
X149349049Y-95905010D01*
X149140000Y-95862676D01*
X148642864Y-95862676D01*
X148403203Y-95763160D01*
X148038398Y-95762841D01*
X147796779Y-95862676D01*
X147642864Y-95862676D01*
X147403203Y-95763160D01*
X147038398Y-95762841D01*
X146796779Y-95862676D01*
X146642864Y-95862676D01*
X146454655Y-95784525D01*
X146440577Y-95709706D01*
X146360628Y-95585461D01*
X168294092Y-95585461D01*
X168318144Y-96235460D01*
X168520613Y-96724264D01*
X168787468Y-96822927D01*
X169760395Y-95850000D01*
X168787468Y-94877073D01*
X168520613Y-94975736D01*
X168294092Y-95585461D01*
X146360628Y-95585461D01*
X146325158Y-95530340D01*
X146149049Y-95410010D01*
X145940000Y-95367676D01*
X145035000Y-95367676D01*
X144839706Y-95404423D01*
X144660340Y-95519842D01*
X144540010Y-95695951D01*
X144502137Y-95882972D01*
X144414706Y-95899423D01*
X144235340Y-96014842D01*
X144115010Y-96190951D01*
X144072676Y-96400000D01*
X144072676Y-100960000D01*
X144077808Y-100987274D01*
X142103400Y-99012866D01*
X142103400Y-96296852D01*
X142119451Y-96280829D01*
X142253247Y-95958611D01*
X142253551Y-95609719D01*
X142120318Y-95287269D01*
X141873829Y-95040349D01*
X141551611Y-94906553D01*
X141227000Y-94906270D01*
X141227000Y-88667148D01*
X141451174Y-88170000D01*
X144032676Y-88170000D01*
X144032676Y-92730000D01*
X144069423Y-92925294D01*
X144184842Y-93104660D01*
X144360951Y-93224990D01*
X144461506Y-93245353D01*
X144494423Y-93420294D01*
X144609842Y-93599660D01*
X144785951Y-93719990D01*
X144995000Y-93762324D01*
X145900000Y-93762324D01*
X146095294Y-93725577D01*
X146274660Y-93610158D01*
X146394990Y-93434049D01*
X146412821Y-93345996D01*
X146603221Y-93267324D01*
X146757136Y-93267324D01*
X146996797Y-93366840D01*
X147361602Y-93367159D01*
X147603221Y-93267324D01*
X147757136Y-93267324D01*
X147996797Y-93366840D01*
X148361602Y-93367159D01*
X148603221Y-93267324D01*
X149100000Y-93267324D01*
X149295294Y-93230577D01*
X149474660Y-93115158D01*
X149594990Y-92939049D01*
X149637324Y-92730000D01*
X149637324Y-91980000D01*
X149600577Y-91784706D01*
X149485158Y-91605340D01*
X149309049Y-91485010D01*
X149162324Y-91455297D01*
X149162324Y-90223321D01*
X149424984Y-90398824D01*
X149818000Y-90477000D01*
X150211016Y-90398824D01*
X150544199Y-90176199D01*
X153075398Y-87644999D01*
X153298024Y-87311816D01*
X153376200Y-86918800D01*
X153298024Y-86525785D01*
X153075398Y-86192602D01*
X152742215Y-85969976D01*
X152349200Y-85891800D01*
X151956184Y-85969976D01*
X151623001Y-86192602D01*
X149637324Y-88178278D01*
X149637324Y-88170000D01*
X149600577Y-87974706D01*
X149485158Y-87795340D01*
X149309049Y-87675010D01*
X149100000Y-87632676D01*
X148602864Y-87632676D01*
X148363203Y-87533160D01*
X147998398Y-87532841D01*
X147756779Y-87632676D01*
X147602864Y-87632676D01*
X147363203Y-87533160D01*
X146998398Y-87532841D01*
X146756779Y-87632676D01*
X146602864Y-87632676D01*
X146414655Y-87554525D01*
X146400577Y-87479706D01*
X146285158Y-87300340D01*
X146109049Y-87180010D01*
X145900000Y-87137676D01*
X144995000Y-87137676D01*
X144799706Y-87174423D01*
X144620340Y-87289842D01*
X144500010Y-87465951D01*
X144462137Y-87652972D01*
X144374706Y-87669423D01*
X144195340Y-87784842D01*
X144075010Y-87960951D01*
X144032676Y-88170000D01*
X141451174Y-88170000D01*
X141728528Y-87554920D01*
X141731191Y-87543405D01*
X141737757Y-87533578D01*
X141764155Y-87400868D01*
X141794640Y-87269049D01*
X141792694Y-87257393D01*
X141795000Y-87245800D01*
X141768602Y-87113091D01*
X141746322Y-86979639D01*
X141740062Y-86969613D01*
X141737757Y-86958023D01*
X141720099Y-86931596D01*
X141720151Y-86872119D01*
X141646432Y-86693705D01*
X141843051Y-86497429D01*
X141976847Y-86175211D01*
X141977151Y-85826319D01*
X141843918Y-85503869D01*
X141597429Y-85256949D01*
X141275211Y-85123153D01*
X140926319Y-85122849D01*
X140925588Y-85123151D01*
X139116303Y-84304595D01*
X139046918Y-84136669D01*
X138800429Y-83889749D01*
X138478211Y-83755953D01*
X138147096Y-83755664D01*
X138066487Y-81418009D01*
X138184584Y-80544101D01*
X138206082Y-80596131D01*
X138452571Y-80843051D01*
X138774789Y-80976847D01*
X139123681Y-80977151D01*
X139345230Y-80885609D01*
X139402571Y-80943051D01*
X139724789Y-81076847D01*
X140073681Y-81077151D01*
X140396131Y-80943918D01*
X140643051Y-80697429D01*
X140776847Y-80375211D01*
X140776895Y-80320000D01*
X143992676Y-80320000D01*
X143992676Y-84880000D01*
X144029423Y-85075294D01*
X144144842Y-85254660D01*
X144320951Y-85374990D01*
X144421506Y-85395353D01*
X144454423Y-85570294D01*
X144569842Y-85749660D01*
X144745951Y-85869990D01*
X144955000Y-85912324D01*
X145860000Y-85912324D01*
X146055294Y-85875577D01*
X146234660Y-85760158D01*
X146354990Y-85584049D01*
X146372821Y-85495996D01*
X146563221Y-85417324D01*
X146717136Y-85417324D01*
X146956797Y-85516840D01*
X147321602Y-85517159D01*
X147563221Y-85417324D01*
X147717136Y-85417324D01*
X147956797Y-85516840D01*
X148321602Y-85517159D01*
X148563221Y-85417324D01*
X149060000Y-85417324D01*
X149255294Y-85380577D01*
X149434660Y-85265158D01*
X149554990Y-85089049D01*
X149597324Y-84880000D01*
X149597324Y-84130000D01*
X149560577Y-83934706D01*
X149445158Y-83755340D01*
X149269049Y-83635010D01*
X149122324Y-83605297D01*
X149122324Y-81595597D01*
X149255294Y-81570577D01*
X149434660Y-81455158D01*
X149554990Y-81279049D01*
X149597324Y-81070000D01*
X149597324Y-80320000D01*
X149560577Y-80124706D01*
X149445158Y-79945340D01*
X149269049Y-79825010D01*
X149060000Y-79782676D01*
X148562864Y-79782676D01*
X148323203Y-79683160D01*
X147958398Y-79682841D01*
X147716779Y-79782676D01*
X147562864Y-79782676D01*
X147323203Y-79683160D01*
X146958398Y-79682841D01*
X146716779Y-79782676D01*
X146562864Y-79782676D01*
X146374655Y-79704525D01*
X146360577Y-79629706D01*
X146245158Y-79450340D01*
X146069049Y-79330010D01*
X145860000Y-79287676D01*
X144955000Y-79287676D01*
X144759706Y-79324423D01*
X144580340Y-79439842D01*
X144460010Y-79615951D01*
X144422137Y-79802972D01*
X144334706Y-79819423D01*
X144155340Y-79934842D01*
X144035010Y-80110951D01*
X143992676Y-80320000D01*
X140776895Y-80320000D01*
X140777151Y-80026319D01*
X140679147Y-79789130D01*
X140750536Y-78646908D01*
X140747543Y-78624697D01*
X140751995Y-78602735D01*
X140728050Y-78480028D01*
X140711355Y-78356120D01*
X140700091Y-78336746D01*
X140695799Y-78314751D01*
X140626717Y-78210543D01*
X140563878Y-78102461D01*
X140546059Y-78088873D01*
X140533675Y-78070193D01*
X134233151Y-71723681D01*
X137222849Y-71723681D01*
X137356082Y-72046131D01*
X137602571Y-72293051D01*
X137844781Y-72393625D01*
X138150578Y-72699422D01*
X138402655Y-72867854D01*
X138700000Y-72927000D01*
X141273000Y-72927000D01*
X141273000Y-73700000D01*
X141332146Y-73997345D01*
X141500578Y-74249422D01*
X142850578Y-75599422D01*
X143102655Y-75767854D01*
X143400000Y-75827000D01*
X145536810Y-75827000D01*
X145702571Y-75993051D01*
X146024789Y-76126847D01*
X146373681Y-76127151D01*
X146696131Y-75993918D01*
X146943051Y-75747429D01*
X146994435Y-75623681D01*
X151072849Y-75623681D01*
X151206082Y-75946131D01*
X151452571Y-76193051D01*
X151774789Y-76326847D01*
X152123681Y-76327151D01*
X152446131Y-76193918D01*
X152693051Y-75947429D01*
X152743057Y-75827000D01*
X153382649Y-75827000D01*
X151625959Y-78155636D01*
X151503869Y-78206082D01*
X151256949Y-78452571D01*
X151123153Y-78774789D01*
X151122849Y-79123681D01*
X151256082Y-79446131D01*
X151502571Y-79693051D01*
X151824789Y-79826847D01*
X152173681Y-79827151D01*
X152496131Y-79693918D01*
X152743051Y-79447429D01*
X152876847Y-79125211D01*
X152876888Y-79077800D01*
X154537141Y-76877000D01*
X164610000Y-76877000D01*
X164719269Y-76855265D01*
X164830211Y-76845141D01*
X164866803Y-76825918D01*
X164907345Y-76817854D01*
X164999976Y-76755960D01*
X165098602Y-76704150D01*
X167946134Y-74401228D01*
X168012477Y-74428776D01*
X168525273Y-74429223D01*
X168999206Y-74233398D01*
X169362124Y-73871113D01*
X169558776Y-73397523D01*
X169559223Y-72884727D01*
X169363398Y-72410794D01*
X169001113Y-72047876D01*
X168572270Y-71869804D01*
X168999206Y-71693398D01*
X169316157Y-71377000D01*
X172778156Y-71377000D01*
X172856656Y-71455500D01*
X172956082Y-71696131D01*
X173202571Y-71943051D01*
X173524789Y-72076847D01*
X173873681Y-72077151D01*
X174196131Y-71943918D01*
X174443051Y-71697429D01*
X174576847Y-71375211D01*
X174577151Y-71026319D01*
X174443918Y-70703869D01*
X174197429Y-70456949D01*
X173955219Y-70356375D01*
X173649422Y-70050578D01*
X173397345Y-69882146D01*
X173100000Y-69823000D01*
X169315687Y-69823000D01*
X169001113Y-69507876D01*
X168729287Y-69395004D01*
X169001143Y-69282397D01*
X169070608Y-69040213D01*
X168270000Y-68239605D01*
X167469392Y-69040213D01*
X167538857Y-69282397D01*
X167831088Y-69386655D01*
X167540794Y-69506602D01*
X167177876Y-69868887D01*
X166999804Y-70297730D01*
X166823398Y-69870794D01*
X166461113Y-69507876D01*
X166032270Y-69329804D01*
X166459206Y-69153398D01*
X166822124Y-68791113D01*
X166934996Y-68519287D01*
X167047603Y-68791143D01*
X167289787Y-68860608D01*
X168090395Y-68060000D01*
X168449605Y-68060000D01*
X169250213Y-68860608D01*
X169492397Y-68791143D01*
X169679144Y-68267698D01*
X169651362Y-67712632D01*
X169522457Y-67401426D01*
X172972649Y-67401426D01*
X173280591Y-68146703D01*
X173850298Y-68717405D01*
X174595036Y-69026647D01*
X175401426Y-69027351D01*
X176146703Y-68719409D01*
X176717405Y-68149702D01*
X177026647Y-67404964D01*
X177027351Y-66598574D01*
X176719409Y-65853297D01*
X176149702Y-65282595D01*
X175404964Y-64973353D01*
X174598574Y-64972649D01*
X173853297Y-65280591D01*
X173282595Y-65850298D01*
X172973353Y-66595036D01*
X172972649Y-67401426D01*
X169522457Y-67401426D01*
X169492397Y-67328857D01*
X169250213Y-67259392D01*
X168449605Y-68060000D01*
X168090395Y-68060000D01*
X167289787Y-67259392D01*
X167047603Y-67328857D01*
X166943345Y-67621088D01*
X166823398Y-67330794D01*
X166572829Y-67079787D01*
X167469392Y-67079787D01*
X168270000Y-67880395D01*
X169070608Y-67079787D01*
X169001143Y-66837603D01*
X168477698Y-66650856D01*
X167922632Y-66678638D01*
X167538857Y-66837603D01*
X167469392Y-67079787D01*
X166572829Y-67079787D01*
X166461113Y-66967876D01*
X165987523Y-66771224D01*
X165474727Y-66770777D01*
X165000794Y-66966602D01*
X164683843Y-67283000D01*
X160898925Y-67283000D01*
X160875211Y-67273153D01*
X160526319Y-67272849D01*
X160203869Y-67406082D01*
X159956949Y-67652571D01*
X159823153Y-67974789D01*
X159822849Y-68323681D01*
X159956082Y-68646131D01*
X160032817Y-68723000D01*
X152765670Y-68723000D01*
X152525211Y-68623153D01*
X152176319Y-68622849D01*
X151853869Y-68756082D01*
X151606949Y-69002571D01*
X151473153Y-69324789D01*
X151472849Y-69673681D01*
X151606082Y-69996131D01*
X151852571Y-70243051D01*
X152174789Y-70376847D01*
X152523681Y-70377151D01*
X152766066Y-70277000D01*
X162078156Y-70277000D01*
X162950578Y-71149422D01*
X163202655Y-71317854D01*
X163500000Y-71377000D01*
X164684313Y-71377000D01*
X164998887Y-71692124D01*
X165427730Y-71870196D01*
X165000794Y-72046602D01*
X164637876Y-72408887D01*
X164441224Y-72882477D01*
X164440834Y-73330322D01*
X163498156Y-74273000D01*
X152350000Y-74273000D01*
X152052655Y-74332146D01*
X151800578Y-74500578D01*
X151694500Y-74606656D01*
X151453869Y-74706082D01*
X151206949Y-74952571D01*
X151073153Y-75274789D01*
X151072849Y-75623681D01*
X146994435Y-75623681D01*
X147076847Y-75425211D01*
X147077151Y-75076319D01*
X146943918Y-74753869D01*
X146697429Y-74506949D01*
X146375211Y-74373153D01*
X146358695Y-74373139D01*
X146329922Y-74353913D01*
X146596131Y-74243918D01*
X146843051Y-73997429D01*
X146976847Y-73675211D01*
X146977151Y-73326319D01*
X146877000Y-73083934D01*
X146877000Y-72500000D01*
X146841633Y-72322196D01*
X148357409Y-72322196D01*
X148442467Y-72577539D01*
X149011965Y-72785516D01*
X149617700Y-72759723D01*
X150057533Y-72577539D01*
X150142591Y-72322196D01*
X149250000Y-71429605D01*
X148357409Y-72322196D01*
X146841633Y-72322196D01*
X146817854Y-72202655D01*
X146649422Y-71950578D01*
X146165811Y-71466967D01*
X146166208Y-71011965D01*
X147714484Y-71011965D01*
X147740277Y-71617700D01*
X147922461Y-72057533D01*
X148177804Y-72142591D01*
X149070395Y-71250000D01*
X149429605Y-71250000D01*
X150322196Y-72142591D01*
X150577539Y-72057533D01*
X150785516Y-71488035D01*
X150759723Y-70882300D01*
X150577539Y-70442467D01*
X150322196Y-70357409D01*
X149429605Y-71250000D01*
X149070395Y-71250000D01*
X148177804Y-70357409D01*
X147922461Y-70442467D01*
X147714484Y-71011965D01*
X146166208Y-71011965D01*
X146166245Y-70969576D01*
X145951126Y-70448948D01*
X145680455Y-70177804D01*
X148357409Y-70177804D01*
X149250000Y-71070395D01*
X150142591Y-70177804D01*
X150057533Y-69922461D01*
X149488035Y-69714484D01*
X148882300Y-69740277D01*
X148442467Y-69922461D01*
X148357409Y-70177804D01*
X145680455Y-70177804D01*
X145553147Y-70050274D01*
X145527000Y-70039417D01*
X145527000Y-65961064D01*
X145551052Y-65951126D01*
X145680207Y-65822196D01*
X148357409Y-65822196D01*
X148442467Y-66077539D01*
X149011965Y-66285516D01*
X149617700Y-66259723D01*
X150057533Y-66077539D01*
X150142591Y-65822196D01*
X149250000Y-64929605D01*
X148357409Y-65822196D01*
X145680207Y-65822196D01*
X145949726Y-65553147D01*
X146165754Y-65032895D01*
X146166208Y-64511965D01*
X147714484Y-64511965D01*
X147740277Y-65117700D01*
X147922461Y-65557533D01*
X148177804Y-65642591D01*
X149070395Y-64750000D01*
X149429605Y-64750000D01*
X150322196Y-65642591D01*
X150577539Y-65557533D01*
X150785516Y-64988035D01*
X150759723Y-64382300D01*
X150577539Y-63942467D01*
X150322196Y-63857409D01*
X149429605Y-64750000D01*
X149070395Y-64750000D01*
X148177804Y-63857409D01*
X147922461Y-63942467D01*
X147714484Y-64511965D01*
X146166208Y-64511965D01*
X146166245Y-64469576D01*
X145951126Y-63948948D01*
X145680455Y-63677804D01*
X148357409Y-63677804D01*
X149250000Y-64570395D01*
X150142591Y-63677804D01*
X150057533Y-63422461D01*
X149488035Y-63214484D01*
X148882300Y-63240277D01*
X148442467Y-63422461D01*
X148357409Y-63677804D01*
X145680455Y-63677804D01*
X145553147Y-63550274D01*
X145032895Y-63334246D01*
X144469576Y-63333755D01*
X143948948Y-63548874D01*
X143550274Y-63946853D01*
X143334246Y-64467105D01*
X143333755Y-65030424D01*
X143548874Y-65551052D01*
X143946853Y-65949726D01*
X143973000Y-65960583D01*
X143973000Y-70038936D01*
X143948948Y-70048874D01*
X143550274Y-70446853D01*
X143334246Y-70967105D01*
X143333755Y-71530424D01*
X143548874Y-72051052D01*
X143946853Y-72449726D01*
X144467105Y-72665754D01*
X145030424Y-72666245D01*
X145127351Y-72626195D01*
X145323000Y-72821844D01*
X145323000Y-73084330D01*
X145223153Y-73324789D01*
X145222849Y-73673681D01*
X145356082Y-73996131D01*
X145602571Y-74243051D01*
X145674697Y-74273000D01*
X143721844Y-74273000D01*
X142827000Y-73378156D01*
X142827000Y-72565670D01*
X142926847Y-72325211D01*
X142927151Y-71976319D01*
X142793918Y-71653869D01*
X142547429Y-71406949D01*
X142225211Y-71273153D01*
X141876319Y-71272849D01*
X141633934Y-71373000D01*
X139021844Y-71373000D01*
X138943344Y-71294500D01*
X138843918Y-71053869D01*
X138597429Y-70806949D01*
X138275211Y-70673153D01*
X137926319Y-70672849D01*
X137603869Y-70806082D01*
X137356949Y-71052571D01*
X137223153Y-71374789D01*
X137222849Y-71723681D01*
X134233151Y-71723681D01*
X134086825Y-71576287D01*
X134102000Y-71500000D01*
X134102000Y-69977001D01*
X134273681Y-69977151D01*
X134596131Y-69843918D01*
X134843051Y-69597429D01*
X134976847Y-69275211D01*
X134977151Y-68926319D01*
X134927000Y-68804944D01*
X134927000Y-67063452D01*
X134943051Y-67047429D01*
X135076847Y-66725211D01*
X135077151Y-66376319D01*
X134943918Y-66053869D01*
X134697429Y-65806949D01*
X134375211Y-65673153D01*
X134026319Y-65672849D01*
X133774780Y-65776782D01*
X133525211Y-65673153D01*
X133176319Y-65672849D01*
X132954346Y-65764566D01*
X132897129Y-65707249D01*
X132574911Y-65573453D01*
X132226019Y-65573149D01*
X131903569Y-65706382D01*
X131656649Y-65952871D01*
X131522853Y-66275089D01*
X131522549Y-66623981D01*
X131655782Y-66946431D01*
X131744653Y-67035457D01*
X131494537Y-71541804D01*
X131400000Y-71522999D01*
X131389742Y-71525040D01*
X131379435Y-71523291D01*
X131251001Y-71552638D01*
X131121790Y-71578340D01*
X131113098Y-71584148D01*
X131102900Y-71586478D01*
X130829884Y-71708724D01*
X130926847Y-71475211D01*
X130927151Y-71126319D01*
X130833260Y-70899084D01*
X130876908Y-68061952D01*
X130875813Y-68055967D01*
X130877000Y-68050000D01*
X130877000Y-67015670D01*
X130976847Y-66775211D01*
X130977151Y-66426319D01*
X130843918Y-66103869D01*
X130597429Y-65856949D01*
X130275211Y-65723153D01*
X129926319Y-65722849D01*
X129603869Y-65856082D01*
X129356949Y-66102571D01*
X129223153Y-66424789D01*
X129222849Y-66773681D01*
X129323000Y-67016066D01*
X129323000Y-68044027D01*
X129279546Y-70868566D01*
X129173153Y-71124789D01*
X129172849Y-71473681D01*
X129306082Y-71796131D01*
X129552571Y-72043051D01*
X129827896Y-72157375D01*
X128872763Y-72585047D01*
X128876847Y-72575211D01*
X128877151Y-72226319D01*
X128777000Y-71983934D01*
X128777000Y-70815670D01*
X128876847Y-70575211D01*
X128877151Y-70226319D01*
X128743918Y-69903869D01*
X128497429Y-69656949D01*
X128175211Y-69523153D01*
X127949823Y-69522957D01*
X128026926Y-64110355D01*
X128025971Y-64105171D01*
X128027000Y-64100000D01*
X128000322Y-63965882D01*
X127975555Y-63831384D01*
X127972688Y-63826958D01*
X127971660Y-63821789D01*
X127908416Y-63727138D01*
X127923681Y-63727151D01*
X128246131Y-63593918D01*
X128493051Y-63347429D01*
X128626847Y-63025211D01*
X128627151Y-62676319D01*
X128565454Y-62527000D01*
X152298866Y-62527000D01*
X153885931Y-64114064D01*
X153885933Y-64114067D01*
X154121789Y-64271660D01*
X154133662Y-64274022D01*
X154202571Y-64343051D01*
X154524789Y-64476847D01*
X154873681Y-64477151D01*
X155196131Y-64343918D01*
X155443051Y-64097429D01*
X155576847Y-63775211D01*
X155577151Y-63426319D01*
X155443918Y-63103869D01*
X155197429Y-62856949D01*
X154875211Y-62723153D01*
X154551004Y-62722871D01*
X153114067Y-61285933D01*
X152878211Y-61128340D01*
X152832052Y-61119158D01*
X152620114Y-61077000D01*
X178873000Y-61077000D01*
X178873000Y-122873000D01*
X86077000Y-122873000D01*
X86077000Y-116401426D01*
X88972649Y-116401426D01*
X89280591Y-117146703D01*
X89850298Y-117717405D01*
X90595036Y-118026647D01*
X91401426Y-118027351D01*
X92146703Y-117719409D01*
X92717405Y-117149702D01*
X93026647Y-116404964D01*
X93027351Y-115598574D01*
X92719409Y-114853297D01*
X92149702Y-114282595D01*
X91404964Y-113973353D01*
X90598574Y-113972649D01*
X89853297Y-114280591D01*
X89282595Y-114850298D01*
X88973353Y-115595036D01*
X88972649Y-116401426D01*
X86077000Y-116401426D01*
X86077000Y-83081078D01*
X86168436Y-83540757D01*
X86331600Y-83784949D01*
X86331600Y-107746800D01*
X86447836Y-108331158D01*
X86759770Y-108798000D01*
X86778848Y-108826552D01*
X98031048Y-120078752D01*
X98526442Y-120409764D01*
X99110800Y-120526000D01*
X164871400Y-120526000D01*
X165455758Y-120409764D01*
X165951152Y-120078752D01*
X169628478Y-116401426D01*
X172972649Y-116401426D01*
X173280591Y-117146703D01*
X173850298Y-117717405D01*
X174595036Y-118026647D01*
X175401426Y-118027351D01*
X176146703Y-117719409D01*
X176717405Y-117149702D01*
X177026647Y-116404964D01*
X177027351Y-115598574D01*
X176719409Y-114853297D01*
X176149702Y-114282595D01*
X175404964Y-113973353D01*
X174598574Y-113972649D01*
X173853297Y-114280591D01*
X173282595Y-114850298D01*
X172973353Y-115595036D01*
X172972649Y-116401426D01*
X169628478Y-116401426D01*
X175044352Y-110985552D01*
X175172276Y-110794100D01*
X175375364Y-110490158D01*
X175491600Y-109905800D01*
X175491600Y-101168200D01*
X175486582Y-101142975D01*
X175375365Y-100583843D01*
X175044352Y-100088448D01*
X174157704Y-99201800D01*
X175379752Y-97979752D01*
X175710765Y-97484357D01*
X175827000Y-96900000D01*
X175827000Y-94800000D01*
X175710765Y-94215643D01*
X175379752Y-93720248D01*
X174859504Y-93200000D01*
X175479752Y-92579752D01*
X175531323Y-92502571D01*
X175810764Y-92084358D01*
X175927000Y-91500000D01*
X175927000Y-89500000D01*
X175910684Y-89417974D01*
X175810765Y-88915643D01*
X175479752Y-88420248D01*
X175059504Y-88000000D01*
X175379752Y-87679752D01*
X175710764Y-87184358D01*
X175827000Y-86600000D01*
X175827000Y-84500000D01*
X175803016Y-84379423D01*
X175710765Y-83915643D01*
X175379752Y-83420248D01*
X175209504Y-83250000D01*
X175579752Y-82879752D01*
X175650626Y-82773681D01*
X175910764Y-82384358D01*
X176027000Y-81800000D01*
X176027000Y-77800000D01*
X175910764Y-77215642D01*
X175579752Y-76720248D01*
X175084358Y-76389236D01*
X174500000Y-76273000D01*
X173915642Y-76389236D01*
X173420248Y-76720248D01*
X173089236Y-77215642D01*
X172973000Y-77800000D01*
X172973000Y-81167496D01*
X172317496Y-81823000D01*
X171126692Y-81823000D01*
X171233773Y-81716106D01*
X171466735Y-81155072D01*
X171467265Y-80547593D01*
X171235283Y-79986154D01*
X170806106Y-79556227D01*
X170245072Y-79323265D01*
X169637593Y-79322735D01*
X169076154Y-79554717D01*
X168857490Y-79773000D01*
X166800000Y-79773000D01*
X166406984Y-79851176D01*
X166073801Y-80073801D01*
X165851176Y-80406984D01*
X165773000Y-80800000D01*
X165851176Y-81193016D01*
X166073801Y-81526199D01*
X166406984Y-81748824D01*
X166800000Y-81827000D01*
X168757674Y-81827000D01*
X169030494Y-82100297D01*
X168646227Y-82483894D01*
X168413265Y-83044928D01*
X168412735Y-83652407D01*
X168644717Y-84213846D01*
X169030494Y-84600297D01*
X168807402Y-84823000D01*
X167082896Y-84823000D01*
X166689880Y-84901176D01*
X166356697Y-85123801D01*
X166134072Y-85456984D01*
X166055896Y-85850000D01*
X166134072Y-86243016D01*
X166356697Y-86576199D01*
X166689880Y-86798824D01*
X166811421Y-86823000D01*
X165150000Y-86823000D01*
X164565643Y-86939235D01*
X164070248Y-87270248D01*
X160120248Y-91220248D01*
X159789236Y-91715643D01*
X159673000Y-92300000D01*
X159789236Y-92884357D01*
X160120248Y-93379752D01*
X160615643Y-93710764D01*
X161200000Y-93827000D01*
X161784357Y-93710764D01*
X162279752Y-93379752D01*
X165782504Y-89877000D01*
X168378525Y-89877000D01*
X168256984Y-89901176D01*
X167923801Y-90123801D01*
X167923799Y-90123804D01*
X166873801Y-91173801D01*
X166651176Y-91506984D01*
X166573000Y-91900000D01*
X166651176Y-92293016D01*
X166873801Y-92626199D01*
X167206984Y-92848824D01*
X167600000Y-92927000D01*
X167993016Y-92848824D01*
X168326199Y-92626199D01*
X168941375Y-92011022D01*
X169030494Y-92100297D01*
X168646227Y-92483894D01*
X168413265Y-93044928D01*
X168412735Y-93652407D01*
X168644717Y-94213846D01*
X169010430Y-94580199D01*
X168967073Y-94697468D01*
X169940000Y-95670395D01*
X169954143Y-95656253D01*
X170133748Y-95835858D01*
X170119605Y-95850000D01*
X170133748Y-95864143D01*
X169954143Y-96043748D01*
X169940000Y-96029605D01*
X168967073Y-97002532D01*
X169010572Y-97120185D01*
X168646227Y-97483894D01*
X168413265Y-98044928D01*
X168412735Y-98652407D01*
X168644717Y-99213846D01*
X169073894Y-99643773D01*
X169163000Y-99680773D01*
X169163000Y-101868000D01*
X169222146Y-102165345D01*
X169390578Y-102417422D01*
X169438256Y-102465100D01*
X169537682Y-102705731D01*
X169784171Y-102952651D01*
X170106389Y-103086447D01*
X170455281Y-103086751D01*
X170777731Y-102953518D01*
X171024651Y-102707029D01*
X171158447Y-102384811D01*
X171158751Y-102035919D01*
X171025518Y-101713469D01*
X170779029Y-101466549D01*
X170717000Y-101440792D01*
X170717000Y-100080104D01*
X172437600Y-101800704D01*
X172437600Y-109273296D01*
X164238896Y-117472000D01*
X99743304Y-117472000D01*
X97098173Y-114826869D01*
X97552407Y-114827265D01*
X98113846Y-114595283D01*
X98500297Y-114209506D01*
X98883894Y-114593773D01*
X99444928Y-114826735D01*
X100052407Y-114827265D01*
X100613846Y-114595283D01*
X101000297Y-114209506D01*
X101383894Y-114593773D01*
X101944928Y-114826735D01*
X102552407Y-114827265D01*
X103113846Y-114595283D01*
X103500297Y-114209506D01*
X103883894Y-114593773D01*
X104444928Y-114826735D01*
X105052407Y-114827265D01*
X105613846Y-114595283D01*
X106000297Y-114209506D01*
X106383894Y-114593773D01*
X106944928Y-114826735D01*
X107552407Y-114827265D01*
X108113846Y-114595283D01*
X108500297Y-114209506D01*
X108883894Y-114593773D01*
X109444928Y-114826735D01*
X110052407Y-114827265D01*
X110613846Y-114595283D01*
X111000297Y-114209506D01*
X111383894Y-114593773D01*
X111944928Y-114826735D01*
X112552407Y-114827265D01*
X113113846Y-114595283D01*
X113500297Y-114209506D01*
X113883894Y-114593773D01*
X114444928Y-114826735D01*
X115052407Y-114827265D01*
X115613846Y-114595283D01*
X116000297Y-114209506D01*
X116383894Y-114593773D01*
X116944928Y-114826735D01*
X117552407Y-114827265D01*
X118113846Y-114595283D01*
X118500297Y-114209506D01*
X118883894Y-114593773D01*
X119444928Y-114826735D01*
X120052407Y-114827265D01*
X120613846Y-114595283D01*
X121000297Y-114209506D01*
X121383894Y-114593773D01*
X121944928Y-114826735D01*
X122552407Y-114827265D01*
X123113846Y-114595283D01*
X123500297Y-114209506D01*
X123883894Y-114593773D01*
X124444928Y-114826735D01*
X125052407Y-114827265D01*
X125613846Y-114595283D01*
X126000297Y-114209506D01*
X126383894Y-114593773D01*
X126944928Y-114826735D01*
X127552407Y-114827265D01*
X128113846Y-114595283D01*
X128500297Y-114209506D01*
X128883894Y-114593773D01*
X129444928Y-114826735D01*
X130052407Y-114827265D01*
X130613846Y-114595283D01*
X131000297Y-114209506D01*
X131383894Y-114593773D01*
X131944928Y-114826735D01*
X132552407Y-114827265D01*
X133113846Y-114595283D01*
X133500297Y-114209506D01*
X133883894Y-114593773D01*
X134444928Y-114826735D01*
X135052407Y-114827265D01*
X135613846Y-114595283D01*
X136043773Y-114166106D01*
X136276735Y-113605072D01*
X136276737Y-113602407D01*
X139222735Y-113602407D01*
X139454717Y-114163846D01*
X139883894Y-114593773D01*
X140444928Y-114826735D01*
X141052407Y-114827265D01*
X141613846Y-114595283D01*
X141756846Y-114452532D01*
X142277073Y-114452532D01*
X142375736Y-114719387D01*
X142985461Y-114945908D01*
X143635460Y-114921856D01*
X144124264Y-114719387D01*
X144222927Y-114452532D01*
X143250000Y-113479605D01*
X142277073Y-114452532D01*
X141756846Y-114452532D01*
X141980199Y-114229570D01*
X142097468Y-114272927D01*
X143070395Y-113300000D01*
X143429605Y-113300000D01*
X144402532Y-114272927D01*
X144520185Y-114229428D01*
X144883894Y-114593773D01*
X144929131Y-114612557D01*
X144842669Y-114648282D01*
X144595749Y-114894771D01*
X144461953Y-115216989D01*
X144461649Y-115565881D01*
X144594882Y-115888331D01*
X144841371Y-116135251D01*
X145163589Y-116269047D01*
X145512481Y-116269351D01*
X145834931Y-116136118D01*
X146081851Y-115889629D01*
X146215647Y-115567411D01*
X146215668Y-115543465D01*
X146264064Y-115495069D01*
X146264067Y-115495067D01*
X146421660Y-115259211D01*
X146430842Y-115213052D01*
X146477001Y-114981000D01*
X146477000Y-114980995D01*
X146477000Y-114651827D01*
X146613846Y-114595283D01*
X146756846Y-114452532D01*
X147277073Y-114452532D01*
X147375736Y-114719387D01*
X147985461Y-114945908D01*
X148635460Y-114921856D01*
X149124264Y-114719387D01*
X149222927Y-114452532D01*
X148250000Y-113479605D01*
X147277073Y-114452532D01*
X146756846Y-114452532D01*
X146980199Y-114229570D01*
X147097468Y-114272927D01*
X148070395Y-113300000D01*
X148429605Y-113300000D01*
X149402532Y-114272927D01*
X149520185Y-114229428D01*
X149883894Y-114593773D01*
X150444928Y-114826735D01*
X150523000Y-114826803D01*
X150523000Y-115648866D01*
X150498997Y-115672869D01*
X150476319Y-115672849D01*
X150153869Y-115806082D01*
X149906949Y-116052571D01*
X149773153Y-116374789D01*
X149772849Y-116723681D01*
X149906082Y-117046131D01*
X150152571Y-117293051D01*
X150474789Y-117426847D01*
X150823681Y-117427151D01*
X151146131Y-117293918D01*
X151393051Y-117047429D01*
X151526847Y-116725211D01*
X151526868Y-116701266D01*
X151764067Y-116464067D01*
X151921660Y-116228211D01*
X151977000Y-115950000D01*
X151977000Y-114452532D01*
X152277073Y-114452532D01*
X152375736Y-114719387D01*
X152985461Y-114945908D01*
X153635460Y-114921856D01*
X154124264Y-114719387D01*
X154222927Y-114452532D01*
X153250000Y-113479605D01*
X152277073Y-114452532D01*
X151977000Y-114452532D01*
X151977000Y-114232763D01*
X151980199Y-114229570D01*
X152097468Y-114272927D01*
X153070395Y-113300000D01*
X152097468Y-112327073D01*
X151979815Y-112370572D01*
X151757101Y-112147468D01*
X152277073Y-112147468D01*
X153250000Y-113120395D01*
X154222927Y-112147468D01*
X154124264Y-111880613D01*
X153514539Y-111654092D01*
X152864540Y-111678144D01*
X152375736Y-111880613D01*
X152277073Y-112147468D01*
X151757101Y-112147468D01*
X151616106Y-112006227D01*
X151055072Y-111773265D01*
X150447593Y-111772735D01*
X149886154Y-112004717D01*
X149519801Y-112370430D01*
X149402532Y-112327073D01*
X148429605Y-113300000D01*
X148070395Y-113300000D01*
X147097468Y-112327073D01*
X146979815Y-112370572D01*
X146757101Y-112147468D01*
X147277073Y-112147468D01*
X148250000Y-113120395D01*
X149222927Y-112147468D01*
X149124264Y-111880613D01*
X148514539Y-111654092D01*
X147864540Y-111678144D01*
X147375736Y-111880613D01*
X147277073Y-112147468D01*
X146757101Y-112147468D01*
X146616106Y-112006227D01*
X146055072Y-111773265D01*
X145447593Y-111772735D01*
X144886154Y-112004717D01*
X144519801Y-112370430D01*
X144402532Y-112327073D01*
X143429605Y-113300000D01*
X143070395Y-113300000D01*
X142097468Y-112327073D01*
X141979815Y-112370572D01*
X141757101Y-112147468D01*
X142277073Y-112147468D01*
X143250000Y-113120395D01*
X144222927Y-112147468D01*
X144124264Y-111880613D01*
X143514539Y-111654092D01*
X142864540Y-111678144D01*
X142375736Y-111880613D01*
X142277073Y-112147468D01*
X141757101Y-112147468D01*
X141616106Y-112006227D01*
X141521085Y-111966771D01*
X141535251Y-111952629D01*
X141669047Y-111630411D01*
X141669351Y-111281519D01*
X141536118Y-110959069D01*
X141289629Y-110712149D01*
X140967411Y-110578353D01*
X140618519Y-110578049D01*
X140296069Y-110711282D01*
X140049149Y-110957771D01*
X139915353Y-111279989D01*
X139915049Y-111628881D01*
X140043481Y-111939711D01*
X139886154Y-112004717D01*
X139456227Y-112433894D01*
X139223265Y-112994928D01*
X139222735Y-113602407D01*
X136276737Y-113602407D01*
X136277265Y-112997593D01*
X136045283Y-112436154D01*
X135616106Y-112006227D01*
X135502000Y-111958846D01*
X135502000Y-106565488D01*
X136018257Y-107081745D01*
X136031760Y-107095249D01*
X136156082Y-107396131D01*
X136402571Y-107643051D01*
X136724789Y-107776847D01*
X137073681Y-107777151D01*
X137396131Y-107643918D01*
X137643051Y-107397429D01*
X137776847Y-107075211D01*
X137777151Y-106726319D01*
X137643918Y-106403869D01*
X137397429Y-106156949D01*
X137094757Y-106031269D01*
X136652000Y-105588512D01*
X136652000Y-104275877D01*
X136776847Y-103975211D01*
X136777151Y-103626319D01*
X136643918Y-103303869D01*
X136397429Y-103056949D01*
X136075211Y-102923153D01*
X135726319Y-102922849D01*
X135502000Y-103015535D01*
X135502000Y-102250000D01*
X135444757Y-101962222D01*
X135281744Y-101718256D01*
X134868240Y-101304752D01*
X134743918Y-101003869D01*
X134497429Y-100756949D01*
X134175211Y-100623153D01*
X133826319Y-100622849D01*
X133503869Y-100756082D01*
X133256949Y-101002571D01*
X133170612Y-101210494D01*
X133043918Y-100903869D01*
X132797429Y-100656949D01*
X132475211Y-100523153D01*
X132126319Y-100522849D01*
X131899841Y-100616427D01*
X131675211Y-100523153D01*
X131326319Y-100522849D01*
X131003869Y-100656082D01*
X130756949Y-100902571D01*
X130631269Y-101205243D01*
X130618257Y-101218255D01*
X130455244Y-101462221D01*
X130398001Y-101749999D01*
X130398001Y-104738510D01*
X129277035Y-105859477D01*
X129277151Y-105726321D01*
X129143918Y-105403871D01*
X128897429Y-105156951D01*
X128575211Y-105023155D01*
X128226319Y-105022851D01*
X127903869Y-105156084D01*
X127664305Y-105395230D01*
X127543918Y-105103869D01*
X127297429Y-104856949D01*
X126975211Y-104723153D01*
X126626319Y-104722849D01*
X126391797Y-104819751D01*
X126343916Y-104703869D01*
X126097427Y-104456949D01*
X125775209Y-104323153D01*
X125502000Y-104322915D01*
X125502000Y-103350000D01*
X125444757Y-103062222D01*
X125281744Y-102818256D01*
X125037169Y-102573681D01*
X127277839Y-102573681D01*
X127411072Y-102896131D01*
X127657561Y-103143051D01*
X127960233Y-103268731D01*
X128123246Y-103431744D01*
X128367212Y-103594757D01*
X128654990Y-103652000D01*
X128969133Y-103652000D01*
X129269799Y-103776847D01*
X129618691Y-103777151D01*
X129941141Y-103643918D01*
X130188061Y-103397429D01*
X130321857Y-103075211D01*
X130322161Y-102726319D01*
X130188928Y-102403869D01*
X129942439Y-102156949D01*
X129620221Y-102023153D01*
X129271329Y-102022849D01*
X128995210Y-102136939D01*
X128898908Y-101903869D01*
X128652419Y-101656949D01*
X128330201Y-101523153D01*
X127981309Y-101522849D01*
X127658859Y-101656082D01*
X127411939Y-101902571D01*
X127278143Y-102224789D01*
X127277839Y-102573681D01*
X125037169Y-102573681D01*
X123568240Y-101104752D01*
X123443918Y-100803869D01*
X123197429Y-100556949D01*
X123101470Y-100517104D01*
X124049422Y-99569152D01*
X124080157Y-99523153D01*
X124217854Y-99317075D01*
X124277000Y-99019730D01*
X124277000Y-90721844D01*
X124445000Y-90553844D01*
X124445000Y-95951097D01*
X124345153Y-96191556D01*
X124344849Y-96540448D01*
X124478082Y-96862898D01*
X124724571Y-97109818D01*
X125046789Y-97243614D01*
X125395681Y-97243918D01*
X125718131Y-97110685D01*
X125965051Y-96864196D01*
X126098847Y-96541978D01*
X126099151Y-96193086D01*
X125999000Y-95950701D01*
X125999000Y-94462488D01*
X127059390Y-95522878D01*
X127026319Y-95522849D01*
X126703869Y-95656082D01*
X126456949Y-95902571D01*
X126323153Y-96224789D01*
X126322849Y-96573681D01*
X126448000Y-96876571D01*
X126448000Y-97955210D01*
X126203869Y-98056082D01*
X125956949Y-98302571D01*
X125823153Y-98624789D01*
X125822849Y-98973681D01*
X125956082Y-99296131D01*
X126202571Y-99543051D01*
X126524789Y-99676847D01*
X126873681Y-99677151D01*
X127196131Y-99543918D01*
X127443051Y-99297429D01*
X127568731Y-98994757D01*
X127731744Y-98831744D01*
X127777570Y-98763160D01*
X127894757Y-98587778D01*
X127952000Y-98300000D01*
X127952000Y-96875877D01*
X128076847Y-96575211D01*
X128076877Y-96540365D01*
X128098000Y-96561488D01*
X128098000Y-97274123D01*
X127973153Y-97574789D01*
X127972849Y-97923681D01*
X128106082Y-98246131D01*
X128352571Y-98493051D01*
X128674789Y-98626847D01*
X129023681Y-98627151D01*
X129346131Y-98493918D01*
X129593051Y-98247429D01*
X129726847Y-97925211D01*
X129727151Y-97576319D01*
X129602000Y-97273429D01*
X129602000Y-96250000D01*
X129544757Y-95962222D01*
X129381744Y-95718256D01*
X127102000Y-93438512D01*
X127102000Y-87911488D01*
X127311488Y-87702000D01*
X127711679Y-87702000D01*
X127802571Y-87793051D01*
X128124789Y-87926847D01*
X128128877Y-87926851D01*
X128105243Y-87962222D01*
X128048000Y-88250000D01*
X128073000Y-88375683D01*
X128073000Y-91218467D01*
X127991998Y-91299469D01*
X127969319Y-91299449D01*
X127646869Y-91432682D01*
X127399949Y-91679171D01*
X127266153Y-92001389D01*
X127265849Y-92350281D01*
X127399082Y-92672731D01*
X127645571Y-92919651D01*
X127967789Y-93053447D01*
X128316681Y-93053751D01*
X128639131Y-92920518D01*
X128886051Y-92674029D01*
X129019847Y-92351811D01*
X129019868Y-92327866D01*
X129222935Y-92124798D01*
X129222849Y-92223681D01*
X129356082Y-92546131D01*
X129602571Y-92793051D01*
X129924789Y-92926847D01*
X130273681Y-92927151D01*
X130576571Y-92802000D01*
X131344537Y-92802000D01*
X131524789Y-92876847D01*
X131873681Y-92877151D01*
X132024432Y-92814862D01*
X132052571Y-92843051D01*
X132374789Y-92976847D01*
X132723681Y-92977151D01*
X133046131Y-92843918D01*
X133293051Y-92597429D01*
X133426847Y-92275211D01*
X133427151Y-91926319D01*
X133402000Y-91865449D01*
X133402000Y-89950000D01*
X133344757Y-89662222D01*
X133181744Y-89418256D01*
X131518240Y-87754752D01*
X131427000Y-87533934D01*
X131427000Y-87350000D01*
X131367854Y-87052655D01*
X131199422Y-86800578D01*
X129549422Y-85150578D01*
X129297345Y-84982146D01*
X129000000Y-84923000D01*
X126515670Y-84923000D01*
X126275211Y-84823153D01*
X125926319Y-84822849D01*
X125603869Y-84956082D01*
X125356949Y-85202571D01*
X125223153Y-85524789D01*
X125222849Y-85873681D01*
X125356082Y-86196131D01*
X125382890Y-86222985D01*
X125226319Y-86222849D01*
X124903869Y-86356082D01*
X124656949Y-86602571D01*
X124606904Y-86723093D01*
X124326319Y-86722849D01*
X124003869Y-86856082D01*
X123756949Y-87102571D01*
X123623153Y-87424789D01*
X123622849Y-87773681D01*
X123723000Y-88016066D01*
X123723000Y-89078156D01*
X122950578Y-89850578D01*
X122782146Y-90102655D01*
X122723000Y-90400000D01*
X122723000Y-98697886D01*
X121864230Y-99556656D01*
X121623599Y-99656082D01*
X121376679Y-99902571D01*
X121250999Y-100205243D01*
X121237987Y-100218255D01*
X121074974Y-100462221D01*
X121047142Y-100602143D01*
X120923898Y-100303869D01*
X120677409Y-100056949D01*
X120355191Y-99923153D01*
X120006299Y-99922849D01*
X119683849Y-100056082D01*
X119436929Y-100302571D01*
X119311249Y-100605243D01*
X119218256Y-100698236D01*
X119055243Y-100942202D01*
X118998000Y-101229980D01*
X118998000Y-111958503D01*
X118886154Y-112004717D01*
X118499703Y-112390494D01*
X118116106Y-112006227D01*
X118002000Y-111958846D01*
X118002000Y-110661488D01*
X118581744Y-110081744D01*
X118744757Y-109837778D01*
X118802000Y-109550000D01*
X118802000Y-100500000D01*
X118776979Y-100374210D01*
X118777151Y-100176319D01*
X118643918Y-99853869D01*
X118397429Y-99606949D01*
X118075211Y-99473153D01*
X117726319Y-99472849D01*
X117403869Y-99606082D01*
X117156949Y-99852571D01*
X117023153Y-100174789D01*
X117022849Y-100523681D01*
X117156082Y-100846131D01*
X117298000Y-100988297D01*
X117298000Y-109238512D01*
X116718256Y-109818256D01*
X116579028Y-110026625D01*
X116546716Y-109864181D01*
X116507334Y-109805241D01*
X116383703Y-109620214D01*
X116381101Y-109617613D01*
X116601670Y-109397429D01*
X116735466Y-109075211D01*
X116735670Y-108840713D01*
X116752000Y-108758619D01*
X116752000Y-106375877D01*
X116876847Y-106075211D01*
X116877151Y-105726319D01*
X116743918Y-105403869D01*
X116497429Y-105156949D01*
X116175211Y-105023153D01*
X115826319Y-105022849D01*
X115503869Y-105156082D01*
X115256949Y-105402571D01*
X115123153Y-105724789D01*
X115122849Y-106073681D01*
X115248000Y-106376571D01*
X115248000Y-106884512D01*
X114068240Y-105704752D01*
X113983314Y-105499214D01*
X113996131Y-105493918D01*
X114243051Y-105247429D01*
X114368731Y-104944758D01*
X116031742Y-103281747D01*
X116194755Y-103037780D01*
X116251998Y-102750002D01*
X116251998Y-100975875D01*
X116376845Y-100675209D01*
X116377149Y-100326317D01*
X116243916Y-100003867D01*
X115997427Y-99756947D01*
X115675209Y-99623151D01*
X115326317Y-99622847D01*
X115003867Y-99756080D01*
X114756947Y-100002569D01*
X114623151Y-100324787D01*
X114622847Y-100673679D01*
X114747998Y-100976569D01*
X114747998Y-102438513D01*
X113304751Y-103881761D01*
X113003869Y-104006082D01*
X112756949Y-104252571D01*
X112752000Y-104264490D01*
X112752000Y-104000000D01*
X112694757Y-103712222D01*
X112677099Y-103685795D01*
X112677151Y-103626319D01*
X112543918Y-103303869D01*
X112297429Y-103056949D01*
X111975211Y-102923153D01*
X111626319Y-102922849D01*
X111303869Y-103056082D01*
X111056949Y-103302571D01*
X110923153Y-103624789D01*
X110922849Y-103973681D01*
X111056082Y-104296131D01*
X111248000Y-104488385D01*
X111248000Y-107400000D01*
X111305243Y-107687778D01*
X111468256Y-107931744D01*
X113998000Y-110461489D01*
X113998000Y-111958503D01*
X113886154Y-112004717D01*
X113499703Y-112390494D01*
X113116106Y-112006227D01*
X113002000Y-111958846D01*
X113002000Y-111050000D01*
X112944757Y-110762222D01*
X112861606Y-110637778D01*
X112781744Y-110518255D01*
X110252000Y-107988512D01*
X110252000Y-104500000D01*
X110194757Y-104212222D01*
X110031744Y-103968256D01*
X109768240Y-103704752D01*
X109643918Y-103403869D01*
X109397429Y-103156949D01*
X109075211Y-103023153D01*
X108726319Y-103022849D01*
X108539922Y-103099866D01*
X108297429Y-102856949D01*
X107975211Y-102723153D01*
X107626319Y-102722849D01*
X107303869Y-102856082D01*
X107056949Y-103102571D01*
X106923153Y-103424789D01*
X106922849Y-103773681D01*
X107056082Y-104096131D01*
X107302571Y-104343051D01*
X107348000Y-104361915D01*
X107348000Y-109000000D01*
X107405243Y-109287778D01*
X107568256Y-109531744D01*
X108998000Y-110961489D01*
X108998000Y-111958503D01*
X108886154Y-112004717D01*
X108499703Y-112390494D01*
X108116106Y-112006227D01*
X108002000Y-111958846D01*
X108002000Y-110750000D01*
X107944757Y-110462222D01*
X107781744Y-110218256D01*
X105952000Y-108388512D01*
X105952000Y-102235049D01*
X105976847Y-102175211D01*
X105977107Y-101876849D01*
X106323681Y-101877151D01*
X106626571Y-101752000D01*
X109300000Y-101752000D01*
X109587778Y-101694757D01*
X109831744Y-101531744D01*
X109995248Y-101368240D01*
X110276571Y-101252000D01*
X112544537Y-101252000D01*
X112724789Y-101326847D01*
X113073681Y-101327151D01*
X113396131Y-101193918D01*
X113643051Y-100947429D01*
X113776847Y-100625211D01*
X113777151Y-100276319D01*
X113643918Y-99953869D01*
X113397429Y-99706949D01*
X113075211Y-99573153D01*
X112726319Y-99572849D01*
X112403869Y-99706082D01*
X112361878Y-99748000D01*
X110275877Y-99748000D01*
X109975211Y-99623153D01*
X109626319Y-99622849D01*
X109303869Y-99756082D01*
X109056949Y-100002571D01*
X108955038Y-100248000D01*
X106625877Y-100248000D01*
X106325211Y-100123153D01*
X105976319Y-100122849D01*
X105915449Y-100148000D01*
X104525877Y-100148000D01*
X104225211Y-100023153D01*
X103876319Y-100022849D01*
X103553869Y-100156082D01*
X103306949Y-100402571D01*
X103173153Y-100724789D01*
X103172849Y-101073681D01*
X103306082Y-101396131D01*
X103552571Y-101643051D01*
X103874789Y-101776847D01*
X104223681Y-101777151D01*
X104246921Y-101767548D01*
X104223153Y-101824789D01*
X104222849Y-102173681D01*
X104356082Y-102496131D01*
X104448000Y-102588210D01*
X104448000Y-108484511D01*
X103676796Y-107713307D01*
X103893051Y-107497429D01*
X104026847Y-107175211D01*
X104027151Y-106826319D01*
X103902000Y-106523429D01*
X103902000Y-105332812D01*
X103996131Y-105293918D01*
X104243051Y-105047429D01*
X104376847Y-104725211D01*
X104377151Y-104376319D01*
X104243918Y-104053869D01*
X103997429Y-103806949D01*
X103675211Y-103673153D01*
X103326319Y-103672849D01*
X103003869Y-103806082D01*
X102756949Y-104052571D01*
X102631270Y-104355242D01*
X102618256Y-104368256D01*
X102455243Y-104612222D01*
X102398000Y-104900000D01*
X102398000Y-106434512D01*
X100952000Y-104988512D01*
X100952000Y-104411488D01*
X101795248Y-103568240D01*
X102096131Y-103443918D01*
X102343051Y-103197429D01*
X102476847Y-102875211D01*
X102477151Y-102526319D01*
X102343918Y-102203869D01*
X102097429Y-101956949D01*
X101775211Y-101823153D01*
X101426319Y-101822849D01*
X101103869Y-101956082D01*
X100856949Y-102202571D01*
X100731269Y-102505243D01*
X100213500Y-103023012D01*
X100026319Y-103022849D01*
X99703869Y-103156082D01*
X99552000Y-103307686D01*
X99552000Y-102200000D01*
X99537475Y-102126978D01*
X99537397Y-102052521D01*
X99509130Y-101984480D01*
X99494757Y-101912222D01*
X99453393Y-101850317D01*
X99424828Y-101781558D01*
X99372675Y-101729514D01*
X99331744Y-101668256D01*
X99269840Y-101626893D01*
X99217135Y-101574298D01*
X98394265Y-101025718D01*
X98343918Y-100903869D01*
X98097429Y-100656949D01*
X97775211Y-100523153D01*
X97426319Y-100522849D01*
X97103869Y-100656082D01*
X96861508Y-100898020D01*
X96168239Y-100204751D01*
X96043918Y-99903869D01*
X95797429Y-99656949D01*
X95475211Y-99523153D01*
X95126319Y-99522849D01*
X94803869Y-99656082D01*
X94730617Y-99729206D01*
X94475211Y-99623153D01*
X94126319Y-99622849D01*
X93803869Y-99756082D01*
X93556949Y-100002571D01*
X93423153Y-100324789D01*
X93422849Y-100673681D01*
X93556082Y-100996131D01*
X93802571Y-101243051D01*
X94124789Y-101376847D01*
X94167515Y-101376884D01*
X94248000Y-101445871D01*
X94248000Y-107200000D01*
X94305243Y-107487778D01*
X94468256Y-107731744D01*
X98813628Y-112077117D01*
X98499703Y-112390494D01*
X98116106Y-112006227D01*
X97555072Y-111773265D01*
X96947593Y-111772735D01*
X96833405Y-111819916D01*
X91852000Y-106838512D01*
X91852000Y-105688321D01*
X91943051Y-105597429D01*
X92076847Y-105275211D01*
X92077151Y-104926319D01*
X91943918Y-104603869D01*
X91697429Y-104356949D01*
X91375211Y-104223153D01*
X91026319Y-104222849D01*
X90703869Y-104356082D01*
X90627000Y-104432817D01*
X90627000Y-102900000D01*
X90548824Y-102506984D01*
X90326199Y-102173801D01*
X89993016Y-101951176D01*
X89600000Y-101873000D01*
X89385600Y-101915647D01*
X89385600Y-101652000D01*
X91911592Y-101652000D01*
X91952571Y-101693051D01*
X92274789Y-101826847D01*
X92623681Y-101827151D01*
X92946131Y-101693918D01*
X93193051Y-101447429D01*
X93326847Y-101125211D01*
X93327151Y-100776319D01*
X93193918Y-100453869D01*
X92947429Y-100206949D01*
X92625211Y-100073153D01*
X92276319Y-100072849D01*
X92094439Y-100148000D01*
X89385600Y-100148000D01*
X89385600Y-93325551D01*
X89456082Y-93496131D01*
X89702571Y-93743051D01*
X90024789Y-93876847D01*
X90373681Y-93877151D01*
X90517000Y-93817933D01*
X90517000Y-96029594D01*
X90474749Y-96071771D01*
X90340953Y-96393989D01*
X90340649Y-96742881D01*
X90473882Y-97065331D01*
X90720371Y-97312251D01*
X91042589Y-97446047D01*
X91391481Y-97446351D01*
X91713931Y-97313118D01*
X91960851Y-97066629D01*
X92094647Y-96744411D01*
X92094951Y-96395519D01*
X92071000Y-96337553D01*
X92071000Y-91773681D01*
X100822849Y-91773681D01*
X100956082Y-92096131D01*
X101202571Y-92343051D01*
X101505241Y-92468730D01*
X101568255Y-92531744D01*
X101736136Y-92643918D01*
X101812222Y-92694757D01*
X102100000Y-92752000D01*
X102624123Y-92752000D01*
X102924789Y-92876847D01*
X103235600Y-92877118D01*
X103235600Y-93633362D01*
X103234978Y-93633778D01*
X103066546Y-93885855D01*
X103007400Y-94183200D01*
X103066546Y-94480545D01*
X103110461Y-94546269D01*
X103110449Y-94560081D01*
X103243682Y-94882531D01*
X103490171Y-95129451D01*
X103812389Y-95263247D01*
X104023000Y-95263431D01*
X104023000Y-96697800D01*
X104080243Y-96985578D01*
X104243256Y-97229544D01*
X104338561Y-97324849D01*
X104462882Y-97625731D01*
X104709371Y-97872651D01*
X105031589Y-98006447D01*
X105380481Y-98006751D01*
X105702931Y-97873518D01*
X105949851Y-97627029D01*
X106083647Y-97304811D01*
X106083951Y-96955919D01*
X105950718Y-96633469D01*
X105704229Y-96386549D01*
X105527000Y-96312957D01*
X105527000Y-86072007D01*
X105651847Y-85771341D01*
X105652151Y-85422449D01*
X105642876Y-85400000D01*
X106873000Y-85400000D01*
X106873000Y-86100000D01*
X106951176Y-86493016D01*
X107173801Y-86826199D01*
X107506984Y-87048824D01*
X107900000Y-87127000D01*
X108293016Y-87048824D01*
X108626199Y-86826199D01*
X108848824Y-86493016D01*
X108927000Y-86100000D01*
X108927000Y-85825398D01*
X110147407Y-84604991D01*
X110370032Y-84271808D01*
X110448208Y-83878792D01*
X110448208Y-82300884D01*
X110448209Y-82300879D01*
X110373013Y-81922849D01*
X110370032Y-81907863D01*
X110147407Y-81574680D01*
X110147404Y-81574678D01*
X110127000Y-81554274D01*
X110127000Y-80700000D01*
X110048824Y-80306984D01*
X109826199Y-79973801D01*
X109493016Y-79751176D01*
X109100000Y-79673000D01*
X108706984Y-79751176D01*
X108373801Y-79973801D01*
X108151176Y-80306984D01*
X108073000Y-80700000D01*
X108073000Y-81979671D01*
X108151176Y-82372687D01*
X108373801Y-82705870D01*
X108394208Y-82726277D01*
X108394208Y-83453394D01*
X107173801Y-84673801D01*
X106951176Y-85006984D01*
X106873000Y-85400000D01*
X105642876Y-85400000D01*
X105518918Y-85099999D01*
X105272429Y-84853079D01*
X104950211Y-84719283D01*
X104601319Y-84718979D01*
X104278869Y-84852212D01*
X104197215Y-84933724D01*
X102881747Y-83618257D01*
X102881745Y-83618254D01*
X102868241Y-83604750D01*
X102743920Y-83303869D01*
X102497431Y-83056949D01*
X102175213Y-82923153D01*
X101826321Y-82922849D01*
X101503871Y-83056082D01*
X101256951Y-83302571D01*
X101123155Y-83624789D01*
X101122851Y-83973681D01*
X101256084Y-84296131D01*
X101502573Y-84543051D01*
X101805243Y-84668730D01*
X101818256Y-84681743D01*
X101818259Y-84681745D01*
X103235600Y-86099087D01*
X103235600Y-91123118D01*
X102926319Y-91122849D01*
X102623429Y-91248000D01*
X102503471Y-91248000D01*
X102443918Y-91103869D01*
X102197429Y-90856949D01*
X101875211Y-90723153D01*
X101526319Y-90722849D01*
X101203869Y-90856082D01*
X100956949Y-91102571D01*
X100823153Y-91424789D01*
X100822849Y-91773681D01*
X92071000Y-91773681D01*
X92071000Y-88608758D01*
X96423020Y-86077671D01*
X96422849Y-86273681D01*
X96556082Y-86596131D01*
X96802571Y-86843051D01*
X97124789Y-86976847D01*
X97473681Y-86977151D01*
X97796131Y-86843918D01*
X97838122Y-86802000D01*
X98561592Y-86802000D01*
X98602571Y-86843051D01*
X98924789Y-86976847D01*
X99273681Y-86977151D01*
X99596131Y-86843918D01*
X99843051Y-86597429D01*
X99976847Y-86275211D01*
X99977151Y-85926319D01*
X99843918Y-85603869D01*
X99597429Y-85356949D01*
X99275211Y-85223153D01*
X98926319Y-85222849D01*
X98603869Y-85356082D01*
X98561878Y-85398000D01*
X97838408Y-85398000D01*
X97797429Y-85356949D01*
X97475211Y-85223153D01*
X97126319Y-85222849D01*
X96916000Y-85309751D01*
X96916000Y-75921025D01*
X96891000Y-75795342D01*
X96891000Y-74347852D01*
X96833757Y-74060074D01*
X96782829Y-73983854D01*
X96782866Y-73940886D01*
X96649633Y-73618436D01*
X96403144Y-73371516D01*
X96080926Y-73237720D01*
X95732034Y-73237416D01*
X95409584Y-73370649D01*
X95162664Y-73617138D01*
X95028868Y-73939356D01*
X95028564Y-74288248D01*
X95161797Y-74610698D01*
X95387000Y-74836295D01*
X95387000Y-75795342D01*
X95362000Y-75921025D01*
X95362000Y-84897041D01*
X90903367Y-87490135D01*
X90828079Y-87556585D01*
X90744578Y-87612378D01*
X90715417Y-87656020D01*
X90676067Y-87690751D01*
X90631937Y-87780957D01*
X90576146Y-87864455D01*
X90565907Y-87915931D01*
X90542841Y-87963080D01*
X90536591Y-88063310D01*
X90517000Y-88161800D01*
X90517000Y-90523552D01*
X90275211Y-90423153D01*
X89926319Y-90422849D01*
X89603869Y-90556082D01*
X89385600Y-90773970D01*
X89385600Y-85825701D01*
X89602571Y-86043051D01*
X89924789Y-86176847D01*
X90273681Y-86177151D01*
X90596131Y-86043918D01*
X90843051Y-85797429D01*
X90913819Y-85627000D01*
X91486548Y-85627000D01*
X91502571Y-85643051D01*
X91824789Y-85776847D01*
X92173681Y-85777151D01*
X92496131Y-85643918D01*
X92743051Y-85397429D01*
X92876847Y-85075211D01*
X92877151Y-84726319D01*
X92743918Y-84403869D01*
X92556651Y-84216275D01*
X92584357Y-84210764D01*
X93079752Y-83879752D01*
X93410764Y-83384357D01*
X93527000Y-82800000D01*
X93410764Y-82215643D01*
X93079752Y-81720248D01*
X92879752Y-81520248D01*
X92852906Y-81502310D01*
X92833865Y-81476233D01*
X92606125Y-81337416D01*
X92384358Y-81189236D01*
X92352690Y-81182937D01*
X92325120Y-81166132D01*
X92061595Y-81125034D01*
X91800000Y-81073000D01*
X89400000Y-81073000D01*
X88815642Y-81189236D01*
X88320248Y-81520248D01*
X88260156Y-81610182D01*
X88163557Y-81545636D01*
X87579200Y-81429400D01*
X86994843Y-81545636D01*
X86499448Y-81876648D01*
X86168436Y-82372043D01*
X86077000Y-82831722D01*
X86077000Y-72872600D01*
X99299000Y-72872600D01*
X99299000Y-74752200D01*
X99358146Y-75049545D01*
X99526578Y-75301622D01*
X99561404Y-75324892D01*
X100831760Y-76595248D01*
X100956082Y-76896131D01*
X101202571Y-77143051D01*
X101524789Y-77276847D01*
X101873681Y-77277151D01*
X102196131Y-77143918D01*
X102433382Y-76907081D01*
X117461449Y-76907081D01*
X117594682Y-77229531D01*
X117841171Y-77476451D01*
X118163389Y-77610247D01*
X118512281Y-77610551D01*
X118834731Y-77477318D01*
X119081651Y-77230829D01*
X119182225Y-76988619D01*
X119981244Y-76189600D01*
X120183530Y-76189600D01*
X120423989Y-76289447D01*
X120772881Y-76289751D01*
X121095331Y-76156518D01*
X121342251Y-75910029D01*
X121476047Y-75587811D01*
X121476351Y-75238919D01*
X121343118Y-74916469D01*
X121096629Y-74669549D01*
X120774411Y-74535753D01*
X120425519Y-74535449D01*
X120183134Y-74635600D01*
X119659400Y-74635600D01*
X119362055Y-74694746D01*
X119109978Y-74863178D01*
X118083100Y-75890056D01*
X117842469Y-75989482D01*
X117595549Y-76235971D01*
X117461753Y-76558189D01*
X117461449Y-76907081D01*
X102433382Y-76907081D01*
X102443051Y-76897429D01*
X102576847Y-76575211D01*
X102577151Y-76226319D01*
X102443918Y-75903869D01*
X102197429Y-75656949D01*
X101894757Y-75531269D01*
X100853000Y-74489512D01*
X100853000Y-74463991D01*
X101044781Y-74543625D01*
X101350578Y-74849422D01*
X101602655Y-75017854D01*
X101900000Y-75077000D01*
X110184330Y-75077000D01*
X110424789Y-75176847D01*
X110773681Y-75177151D01*
X111096131Y-75043918D01*
X111343051Y-74797429D01*
X111476847Y-74475211D01*
X111477151Y-74126319D01*
X111343918Y-73803869D01*
X111097429Y-73556949D01*
X110775211Y-73423153D01*
X110426319Y-73422849D01*
X110183934Y-73523000D01*
X102221844Y-73523000D01*
X102143344Y-73444500D01*
X102043918Y-73203869D01*
X101797429Y-72956949D01*
X101475211Y-72823153D01*
X101224509Y-72822935D01*
X103877644Y-70169800D01*
X109998130Y-70169800D01*
X110238589Y-70269647D01*
X110587481Y-70269951D01*
X110909931Y-70136718D01*
X111156851Y-69890229D01*
X111290647Y-69568011D01*
X111290951Y-69219119D01*
X111157718Y-68896669D01*
X110911229Y-68649749D01*
X110589011Y-68515953D01*
X110240119Y-68515649D01*
X109997734Y-68615800D01*
X103555800Y-68615800D01*
X103258455Y-68674946D01*
X103126966Y-68762804D01*
X103127198Y-68495978D01*
X102971119Y-68118236D01*
X102682364Y-67828977D01*
X102304895Y-67672238D01*
X101896178Y-67671882D01*
X101518436Y-67827961D01*
X101229177Y-68116716D01*
X101072438Y-68494185D01*
X101072082Y-68902902D01*
X101228161Y-69280644D01*
X101516916Y-69569903D01*
X101894385Y-69726642D01*
X102122915Y-69726841D01*
X99526578Y-72323178D01*
X99358146Y-72575255D01*
X99299000Y-72872600D01*
X86077000Y-72872600D01*
X86077000Y-67401426D01*
X88972649Y-67401426D01*
X89280591Y-68146703D01*
X89850298Y-68717405D01*
X90595036Y-69026647D01*
X91401426Y-69027351D01*
X91702615Y-68902902D01*
X96672802Y-68902902D01*
X96828881Y-69280644D01*
X97117636Y-69569903D01*
X97495105Y-69726642D01*
X97903822Y-69726998D01*
X98281564Y-69570919D01*
X98570823Y-69282164D01*
X98727562Y-68904695D01*
X98727918Y-68495978D01*
X98571839Y-68118236D01*
X98386804Y-67932878D01*
X98700281Y-67933151D01*
X99022731Y-67799918D01*
X99269651Y-67553429D01*
X99403447Y-67231211D01*
X99403751Y-66882319D01*
X99270518Y-66559869D01*
X99024029Y-66312949D01*
X98701811Y-66179153D01*
X98352919Y-66178849D01*
X98030469Y-66312082D01*
X97783549Y-66558571D01*
X97649753Y-66880789D01*
X97649449Y-67229681D01*
X97782682Y-67552131D01*
X97902577Y-67672235D01*
X97496898Y-67671882D01*
X97119156Y-67827961D01*
X96829897Y-68116716D01*
X96673158Y-68494185D01*
X96672802Y-68902902D01*
X91702615Y-68902902D01*
X92146703Y-68719409D01*
X92717405Y-68149702D01*
X93026647Y-67404964D01*
X93027351Y-66598574D01*
X92719409Y-65853297D01*
X92149702Y-65282595D01*
X91404964Y-64973353D01*
X90598574Y-64972649D01*
X89853297Y-65280591D01*
X89282595Y-65850298D01*
X88973353Y-66595036D01*
X88972649Y-67401426D01*
X86077000Y-67401426D01*
X86077000Y-61077000D01*
X117579886Y-61077000D01*
X117321790Y-61128339D01*
G36*
X96048000Y-102211489D02*
X96048000Y-106400000D01*
X96105243Y-106687778D01*
X96268256Y-106931744D01*
X101363672Y-112027160D01*
X100999703Y-112390494D01*
X100616106Y-112006227D01*
X100502000Y-111958846D01*
X100502000Y-111950000D01*
X100444757Y-111662222D01*
X100415379Y-111618255D01*
X100281744Y-111418255D01*
X95752000Y-106888512D01*
X95752000Y-101915489D01*
X96048000Y-102211489D01*
X96048000Y-102211489D01*
G37*
X96048000Y-102211489D02*
X96048000Y-106400000D01*
X96105243Y-106687778D01*
X96268256Y-106931744D01*
X101363672Y-112027160D01*
X100999703Y-112390494D01*
X100616106Y-112006227D01*
X100502000Y-111958846D01*
X100502000Y-111950000D01*
X100444757Y-111662222D01*
X100415379Y-111618255D01*
X100281744Y-111418255D01*
X95752000Y-106888512D01*
X95752000Y-101915489D01*
X96048000Y-102211489D01*
G36*
X120602571Y-102543047D02*
X120905241Y-102668726D01*
X120918254Y-102681739D01*
X120918257Y-102681741D01*
X122497999Y-104261484D01*
X122497999Y-111773215D01*
X121947593Y-111772735D01*
X121386154Y-112004717D01*
X120999703Y-112390494D01*
X120616106Y-112006227D01*
X120502000Y-111958846D01*
X120502000Y-102442300D01*
X120602571Y-102543047D01*
X120602571Y-102543047D01*
G37*
X120602571Y-102543047D02*
X120905241Y-102668726D01*
X120918254Y-102681739D01*
X120918257Y-102681741D01*
X122497999Y-104261484D01*
X122497999Y-111773215D01*
X121947593Y-111772735D01*
X121386154Y-112004717D01*
X120999703Y-112390494D01*
X120616106Y-112006227D01*
X120502000Y-111958846D01*
X120502000Y-102442300D01*
X120602571Y-102543047D01*
M02*
