G04 (created by PCBNEW (2013-08-24 BZR 4298)-stable) date Sat 01 Feb 2014 01:44:32 PM PST*
%MOIN*%
G04 Gerber Fmt 3.4, Leading zero omitted, Abs format*
%FSLAX34Y34*%
G01*
G70*
G90*
G04 APERTURE LIST*
%ADD10C,0.005906*%
%ADD11C,0.078700*%
%ADD12R,0.078700X0.078700*%
%ADD13C,0.039370*%
G04 APERTURE END LIST*
G54D10*
G54D11*
X26771Y-42913D03*
G54D12*
X24999Y-40783D03*
X27401Y-40783D03*
X24999Y-45045D03*
X27401Y-45045D03*
G54D11*
X24999Y-42913D03*
X26771Y-30511D03*
G54D12*
X24999Y-28381D03*
X27401Y-28381D03*
X24999Y-32643D03*
X27401Y-32643D03*
G54D11*
X24999Y-30511D03*
X32677Y-31102D03*
G54D12*
X34807Y-29330D03*
X34807Y-31732D03*
X30545Y-29330D03*
X30545Y-31732D03*
G54D11*
X32677Y-29330D03*
X26771Y-36614D03*
G54D12*
X24999Y-34484D03*
X27401Y-34484D03*
X24999Y-38746D03*
X27401Y-38746D03*
G54D11*
X24999Y-36614D03*
X26771Y-49212D03*
G54D12*
X24999Y-47082D03*
X27401Y-47082D03*
X24999Y-51344D03*
X27401Y-51344D03*
G54D11*
X24999Y-49212D03*
X64960Y-48424D03*
G54D12*
X62830Y-50196D03*
X62830Y-47794D03*
X67092Y-50196D03*
X67092Y-47794D03*
G54D11*
X64960Y-50196D03*
X77361Y-49212D03*
G54D12*
X79133Y-51342D03*
X76731Y-51342D03*
X79133Y-47080D03*
X76731Y-47080D03*
G54D11*
X79133Y-49212D03*
X77361Y-42913D03*
G54D12*
X79133Y-45043D03*
X76731Y-45043D03*
X79133Y-40781D03*
X76731Y-40781D03*
G54D11*
X79133Y-42913D03*
X38976Y-31102D03*
G54D12*
X41106Y-29330D03*
X41106Y-31732D03*
X36844Y-29330D03*
X36844Y-31732D03*
G54D11*
X38976Y-29330D03*
X77361Y-36614D03*
G54D12*
X79133Y-38744D03*
X76731Y-38744D03*
X79133Y-34482D03*
X76731Y-34482D03*
G54D11*
X79133Y-36614D03*
X77361Y-30314D03*
G54D12*
X79133Y-32444D03*
X76731Y-32444D03*
X79133Y-28182D03*
X76731Y-28182D03*
G54D11*
X79133Y-30314D03*
X32677Y-48424D03*
G54D12*
X30547Y-50196D03*
X30547Y-47794D03*
X34809Y-50196D03*
X34809Y-47794D03*
G54D11*
X32677Y-50196D03*
X38976Y-48424D03*
G54D12*
X36846Y-50196D03*
X36846Y-47794D03*
X41108Y-50196D03*
X41108Y-47794D03*
G54D11*
X38976Y-50196D03*
X71259Y-48424D03*
G54D12*
X69129Y-50196D03*
X69129Y-47794D03*
X73391Y-50196D03*
X73391Y-47794D03*
G54D11*
X71259Y-50196D03*
X58661Y-31102D03*
G54D12*
X60791Y-29330D03*
X60791Y-31732D03*
X56529Y-29330D03*
X56529Y-31732D03*
G54D11*
X58661Y-29330D03*
X58267Y-48424D03*
G54D12*
X56137Y-50196D03*
X56137Y-47794D03*
X60399Y-50196D03*
X60399Y-47794D03*
G54D11*
X58267Y-50196D03*
X51968Y-48424D03*
G54D12*
X49838Y-50196D03*
X49838Y-47794D03*
X54100Y-50196D03*
X54100Y-47794D03*
G54D11*
X51968Y-50196D03*
X52362Y-31102D03*
G54D12*
X54492Y-29330D03*
X54492Y-31732D03*
X50230Y-29330D03*
X50230Y-31732D03*
G54D11*
X52362Y-29330D03*
X45669Y-48424D03*
G54D12*
X43539Y-50196D03*
X43539Y-47794D03*
X47801Y-50196D03*
X47801Y-47794D03*
G54D11*
X45669Y-50196D03*
X45669Y-31102D03*
G54D12*
X47799Y-29330D03*
X47799Y-31732D03*
X43537Y-29330D03*
X43537Y-31732D03*
G54D11*
X45669Y-29330D03*
X71456Y-31102D03*
G54D12*
X73586Y-29330D03*
X73586Y-31732D03*
X69324Y-29330D03*
X69324Y-31732D03*
G54D11*
X71456Y-29330D03*
X65354Y-31102D03*
G54D12*
X67484Y-29330D03*
X67484Y-31732D03*
X63222Y-29330D03*
X63222Y-31732D03*
G54D11*
X65354Y-29330D03*
G54D13*
X23031Y-50787D02*
X24999Y-51344D01*
X22885Y-50326D02*
X23031Y-50787D01*
X22885Y-27681D02*
X22885Y-50326D01*
X24015Y-27165D02*
X22885Y-27681D01*
X28145Y-27098D02*
X24015Y-27165D01*
X29200Y-28350D02*
X28145Y-27098D01*
X25214Y-44066D02*
X24999Y-45045D01*
X28173Y-44066D02*
X25214Y-44066D01*
X25293Y-37590D02*
X24999Y-38746D01*
X32338Y-37590D02*
X25293Y-37590D01*
X24999Y-51344D02*
X24350Y-51003D01*
X24350Y-51003D02*
X25129Y-50224D01*
X25129Y-50224D02*
X28106Y-50224D01*
X29200Y-29330D02*
X29200Y-28350D01*
X32338Y-37590D02*
X32338Y-39901D01*
X32338Y-39901D02*
X28173Y-44066D01*
X35759Y-28500D02*
X35759Y-34381D01*
X32551Y-37590D02*
X32338Y-37590D01*
X35759Y-34381D02*
X32551Y-37590D01*
X75110Y-36854D02*
X75110Y-36401D01*
X71051Y-30466D02*
X69324Y-29330D01*
X71051Y-32342D02*
X71051Y-30466D01*
X75110Y-36401D02*
X71051Y-32342D01*
X75110Y-42594D02*
X75110Y-36854D01*
X75110Y-36854D02*
X75110Y-36677D01*
X78572Y-35523D02*
X79133Y-34482D01*
X76263Y-35523D02*
X78572Y-35523D01*
X75110Y-36677D02*
X76263Y-35523D01*
X79133Y-47080D02*
X79133Y-46897D01*
X78714Y-41791D02*
X79133Y-40781D01*
X75913Y-41791D02*
X78714Y-41791D01*
X75074Y-42629D02*
X75110Y-42594D01*
X75110Y-42594D02*
X75913Y-41791D01*
X75074Y-45358D02*
X75074Y-42629D01*
X75846Y-46129D02*
X75074Y-45358D01*
X78818Y-46129D02*
X75846Y-46129D01*
X79133Y-46897D02*
X78818Y-46129D01*
X30545Y-29330D02*
X29200Y-29330D01*
X29200Y-29330D02*
X28917Y-29330D01*
X25214Y-31141D02*
X24999Y-32643D01*
X27106Y-31141D02*
X25214Y-31141D01*
X28917Y-29330D02*
X27106Y-31141D01*
X36844Y-29330D02*
X36590Y-29330D01*
X31340Y-28141D02*
X30545Y-29330D01*
X35401Y-28141D02*
X31340Y-28141D01*
X36590Y-29330D02*
X35759Y-28500D01*
X35759Y-28500D02*
X35401Y-28141D01*
X43537Y-29330D02*
X43537Y-29324D01*
X37927Y-28248D02*
X36844Y-29330D01*
X42460Y-28248D02*
X37927Y-28248D01*
X43537Y-29324D02*
X42460Y-28248D01*
X50230Y-29330D02*
X50051Y-29330D01*
X44552Y-28314D02*
X43537Y-29330D01*
X49035Y-28314D02*
X44552Y-28314D01*
X50051Y-29330D02*
X49035Y-28314D01*
X56529Y-29330D02*
X56529Y-29261D01*
X51316Y-28244D02*
X50230Y-29330D01*
X55511Y-28244D02*
X51316Y-28244D01*
X56529Y-29261D02*
X55511Y-28244D01*
X63222Y-29330D02*
X62948Y-29330D01*
X57718Y-28141D02*
X56529Y-29330D01*
X61759Y-28141D02*
X57718Y-28141D01*
X62948Y-29330D02*
X61759Y-28141D01*
X69324Y-29330D02*
X69157Y-29330D01*
X69157Y-29330D02*
X68751Y-28334D01*
X68751Y-28334D02*
X64218Y-28334D01*
X64218Y-28334D02*
X63222Y-29330D01*
X79133Y-28182D02*
X78852Y-28182D01*
X78852Y-28182D02*
X78342Y-29118D01*
X78342Y-29118D02*
X76200Y-29118D01*
X76200Y-29118D02*
X75598Y-28318D01*
X75598Y-28318D02*
X70927Y-28318D01*
X70927Y-28318D02*
X69324Y-29330D01*
X28106Y-50224D02*
X29366Y-51484D01*
X29366Y-51484D02*
X33521Y-51484D01*
X33521Y-51484D02*
X34809Y-50196D01*
X24999Y-47082D02*
X23751Y-47169D01*
X23622Y-46062D02*
X23669Y-40027D01*
X23751Y-47169D02*
X23622Y-46062D01*
X24999Y-40783D02*
X23590Y-40818D01*
X23590Y-40818D02*
X23669Y-40027D01*
X23669Y-40027D02*
X23669Y-34094D01*
X34807Y-31732D02*
X34413Y-32310D01*
X32303Y-34421D02*
X27401Y-34484D01*
X34413Y-32310D02*
X32303Y-34421D01*
X24999Y-28381D02*
X24759Y-28381D01*
X24759Y-28381D02*
X23622Y-29330D01*
X23622Y-29330D02*
X23669Y-34094D01*
X23622Y-34251D02*
X24999Y-34484D01*
X23669Y-34094D02*
X23622Y-34251D01*
X41108Y-50196D02*
X41108Y-50257D01*
X31125Y-49216D02*
X30547Y-48637D01*
X35700Y-49216D02*
X31125Y-49216D01*
X35893Y-49409D02*
X35700Y-49216D01*
X35893Y-50744D02*
X35893Y-49409D01*
X36555Y-51405D02*
X35893Y-50744D01*
X39960Y-51405D02*
X36555Y-51405D01*
X41108Y-50257D02*
X39960Y-51405D01*
X30547Y-47794D02*
X28873Y-47794D01*
X28247Y-47169D02*
X27401Y-47082D01*
X28873Y-47794D02*
X28247Y-47169D01*
X27401Y-47082D02*
X24999Y-47082D01*
X24999Y-40783D02*
X27401Y-40783D01*
X24999Y-34484D02*
X27401Y-34484D01*
X24999Y-28381D02*
X27401Y-28381D01*
X34807Y-29330D02*
X34807Y-31732D01*
X30547Y-50196D02*
X30547Y-48637D01*
X30547Y-48637D02*
X30547Y-47794D01*
X36846Y-47794D02*
X36846Y-37563D01*
X41106Y-33303D02*
X41106Y-31732D01*
X36846Y-37563D02*
X41106Y-33303D01*
X47801Y-50196D02*
X47665Y-50196D01*
X41909Y-49275D02*
X36846Y-49275D01*
X42240Y-49606D02*
X41909Y-49275D01*
X42240Y-50503D02*
X42240Y-49606D01*
X43110Y-51374D02*
X42240Y-50503D01*
X46488Y-51374D02*
X43110Y-51374D01*
X47665Y-50196D02*
X46488Y-51374D01*
X41106Y-29330D02*
X41106Y-31732D01*
X36846Y-50196D02*
X36846Y-49275D01*
X36846Y-49275D02*
X36846Y-47794D01*
X43539Y-47794D02*
X43539Y-45311D01*
X47799Y-41051D02*
X47799Y-31732D01*
X43539Y-45311D02*
X47799Y-41051D01*
X54100Y-50196D02*
X54100Y-50285D01*
X48724Y-49236D02*
X43539Y-49236D01*
X48913Y-49425D02*
X48724Y-49236D01*
X48913Y-51074D02*
X48913Y-49425D01*
X49287Y-51448D02*
X48913Y-51074D01*
X52937Y-51448D02*
X49287Y-51448D01*
X54100Y-50285D02*
X52937Y-51448D01*
X47799Y-29330D02*
X47799Y-31732D01*
X43539Y-50196D02*
X43539Y-49236D01*
X43539Y-49236D02*
X43539Y-47794D01*
X49838Y-47794D02*
X49838Y-44559D01*
X54492Y-39905D02*
X54492Y-31732D01*
X49838Y-44559D02*
X54492Y-39905D01*
X60399Y-50196D02*
X60244Y-50196D01*
X54933Y-49259D02*
X49838Y-49259D01*
X55133Y-49460D02*
X54933Y-49259D01*
X55133Y-50956D02*
X55133Y-49460D01*
X55657Y-51480D02*
X55133Y-50956D01*
X58960Y-51480D02*
X55657Y-51480D01*
X60244Y-50196D02*
X58960Y-51480D01*
X54492Y-29330D02*
X54492Y-31732D01*
X49838Y-50196D02*
X49838Y-49259D01*
X49838Y-49259D02*
X49838Y-47794D01*
X56137Y-47794D02*
X56137Y-44511D01*
X60791Y-39858D02*
X60791Y-31732D01*
X56137Y-44511D02*
X60791Y-39858D01*
X67092Y-50196D02*
X67092Y-50253D01*
X61314Y-49236D02*
X56137Y-49236D01*
X61645Y-49566D02*
X61314Y-49236D01*
X61645Y-50622D02*
X61645Y-49566D01*
X62350Y-51326D02*
X61645Y-50622D01*
X66019Y-51326D02*
X62350Y-51326D01*
X67092Y-50253D02*
X66019Y-51326D01*
X60791Y-29330D02*
X60791Y-31732D01*
X56137Y-50196D02*
X56137Y-49236D01*
X56137Y-49236D02*
X56137Y-47794D01*
X62830Y-47794D02*
X62830Y-46570D01*
X67484Y-41917D02*
X67484Y-31732D01*
X62830Y-46570D02*
X67484Y-41917D01*
X73391Y-50196D02*
X73391Y-50403D01*
X67779Y-49322D02*
X62830Y-49322D01*
X68133Y-49677D02*
X67779Y-49322D01*
X68133Y-50842D02*
X68133Y-49677D01*
X68795Y-51503D02*
X68133Y-50842D01*
X72291Y-51503D02*
X68795Y-51503D01*
X73391Y-50403D02*
X72291Y-51503D01*
X67484Y-29330D02*
X67484Y-31732D01*
X62830Y-50196D02*
X62830Y-49322D01*
X62830Y-49322D02*
X62830Y-47794D01*
X73586Y-31732D02*
X76385Y-32098D01*
X76385Y-32098D02*
X76731Y-32444D01*
X79133Y-32444D02*
X80118Y-32480D01*
X80511Y-39370D02*
X80476Y-39405D01*
X80511Y-32874D02*
X80511Y-39370D01*
X80118Y-32480D02*
X80511Y-32874D01*
X79133Y-38744D02*
X79401Y-38744D01*
X79401Y-38744D02*
X80476Y-39405D01*
X80492Y-46082D02*
X80476Y-46082D01*
X80476Y-39405D02*
X80492Y-46082D01*
X79133Y-45043D02*
X79476Y-45043D01*
X79476Y-45043D02*
X80314Y-45669D01*
X80314Y-45669D02*
X80476Y-46082D01*
X80511Y-50393D02*
X79133Y-51342D01*
X80476Y-46082D02*
X80511Y-50393D01*
X76731Y-51342D02*
X76731Y-51224D01*
X75240Y-49279D02*
X69129Y-49279D01*
X76731Y-51224D02*
X75240Y-49279D01*
X73586Y-29330D02*
X73586Y-31732D01*
X79133Y-32444D02*
X76731Y-32444D01*
X79133Y-38744D02*
X76731Y-38744D01*
X79133Y-45043D02*
X76731Y-45043D01*
X79133Y-51342D02*
X76731Y-51342D01*
X69129Y-50196D02*
X69129Y-49279D01*
X69129Y-49279D02*
X69129Y-47794D01*
M02*
