M48
;DRILL file {PCBnew (20100330 SVN-R2491)-final} date Sun 06 Jun 2010 05:16:25 PM PDT
;FORMAT={-.-/ absolute / inch / decimal}
R,T
VER,1
FMAT,2
INCH,TZ
TCST,OFF
ICI,OFF
ATC,ON
T1C0.025
T2C0.032
T3C0.039
T4C0.070
T5C0.098
T6C0.110
%
M47
G05
M72
T1
X6.912Y5.097
X7.225Y4.619
X7.406Y5.193
X7.563Y4.906
X7.812Y5.097
T2
X6.258Y4.813
X6.258Y4.913
X6.358Y4.813
X6.358Y4.913
X6.730Y5.186
X6.730Y4.986
X6.730Y5.086
T3
X6.337Y5.295
X6.337Y5.432
X7.663Y5.483
X7.801Y5.483
X8.193Y4.509
X8.193Y5.100
X8.331Y4.509
X8.331Y5.100
X8.468Y4.509
X8.468Y5.100
T4
X7.588Y4.197
X7.658Y4.307
X7.658Y4.527
T5
X7.937Y4.805
X8.724Y4.805
T6
X6.544Y4.331
X6.669Y4.516
X6.794Y4.331
T0
M30
