M48
; DRILL file {KiCad 5.1.9-73d0e3b20d~88~ubuntu18.04.1} date Mon Apr  5 22:09:17 2021
; FORMAT={-:-/ absolute / metric / decimal}
; #@! TF.CreationDate,2021-04-05T22:09:17-07:00
; #@! TF.GenerationSoftware,Kicad,Pcbnew,5.1.9-73d0e3b20d~88~ubuntu18.04.1
FMAT,2
METRIC
T1C0.400
T2C0.500
T3C0.900
T4C1.300
T5C1.300
T6C2.600
%
G90
G05
T1
X137.125Y-100.575
X137.125Y-127.975
X139.725Y-108.675
X139.725Y-136.075
X142.525Y-108.775
X142.525Y-136.175
X143.925Y-99.875
X143.925Y-127.275
X146.05Y-95.975
X146.05Y-123.375
X148.45Y-96.875
X148.45Y-124.275
X157.4Y-123.525
X157.5Y-103.3
X157.6Y-116.625
X157.7Y-96.4
X158.9Y-116.475
X159.0Y-96.25
X160.2Y-123.625
X160.3Y-103.4
X162.2Y-117.125
X162.3Y-96.9
X163.4Y-120.525
X163.5Y-100.3
X163.92Y-115.829
X164.02Y-95.604
X165.05Y-128.325
X165.15Y-108.1
X167.4Y-127.325
X167.5Y-107.1
X172.0Y-123.625
X172.1Y-103.4
X173.2Y-123.625
X173.3Y-103.4
X179.5Y-128.025
X179.6Y-107.8
T2
X141.163Y-104.713
X141.163Y-106.237
X141.163Y-132.113
X141.163Y-133.637
X141.925Y-105.475
X141.925Y-132.875
X142.687Y-104.713
X142.687Y-106.237
X142.687Y-132.113
X142.687Y-133.637
X158.838Y-119.563
X158.838Y-121.087
X158.938Y-99.338
X158.938Y-100.862
X159.6Y-120.325
X159.7Y-100.1
X160.362Y-119.563
X160.362Y-121.087
X160.462Y-99.338
X160.462Y-100.862
T3
X140.55Y-94.475
X140.55Y-121.875
X143.05Y-94.475
X143.05Y-121.875
X145.05Y-94.475
X145.05Y-121.875
X147.55Y-94.475
X147.55Y-121.875
T5
X170.1Y-123.125
X170.2Y-102.9
X175.0Y-123.125
X175.1Y-102.9
T6
X136.925Y-105.475
X136.925Y-132.875
X150.025Y-105.575
X150.025Y-132.975
X154.6Y-120.325
X154.7Y-100.1
X182.6Y-120.325
X182.7Y-100.1
T4
G00X137.48Y-97.375
M15
G01X137.48Y-96.375
M16
G05
G00X137.48Y-124.775
M15
G01X137.48Y-123.775
M16
G05
G00X150.62Y-96.375
M15
G01X150.62Y-97.375
M16
G05
G00X150.62Y-123.775
M15
G01X150.62Y-124.775
M16
G05
T0
M30
