G04 #@! TF.GenerationSoftware,KiCad,Pcbnew,5.1.9-73d0e3b20d~88~ubuntu18.04.1*
G04 #@! TF.CreationDate,2021-04-05T22:09:22-07:00*
G04 #@! TF.ProjectId,accelgyro_mpu6050_d2brv3_4x4,61636365-6c67-4797-926f-5f6d70753630,rev?*
G04 #@! TF.SameCoordinates,Original*
G04 #@! TF.FileFunction,Copper,L1,Top*
G04 #@! TF.FilePolarity,Positive*
%FSLAX46Y46*%
G04 Gerber Fmt 4.6, Leading zero omitted, Abs format (unit mm)*
G04 Created by KiCad (PCBNEW 5.1.9-73d0e3b20d~88~ubuntu18.04.1) date 2021-04-05 22:09:22*
%MOMM*%
%LPD*%
G01*
G04 APERTURE LIST*
G04 #@! TA.AperFunction,SMDPad,CuDef*
%ADD10R,1.000760X0.899160*%
G04 #@! TD*
G04 #@! TA.AperFunction,SMDPad,CuDef*
%ADD11R,1.397000X0.889000*%
G04 #@! TD*
G04 #@! TA.AperFunction,SMDPad,CuDef*
%ADD12R,0.899160X1.000760*%
G04 #@! TD*
G04 #@! TA.AperFunction,ComponentPad*
%ADD13O,1.900000X2.900000*%
G04 #@! TD*
G04 #@! TA.AperFunction,ComponentPad*
%ADD14C,1.300000*%
G04 #@! TD*
G04 #@! TA.AperFunction,ComponentPad*
%ADD15R,1.300000X1.300000*%
G04 #@! TD*
G04 #@! TA.AperFunction,SMDPad,CuDef*
%ADD16R,2.499360X2.499360*%
G04 #@! TD*
G04 #@! TA.AperFunction,SMDPad,CuDef*
%ADD17O,0.800100X0.248920*%
G04 #@! TD*
G04 #@! TA.AperFunction,SMDPad,CuDef*
%ADD18O,0.248920X0.800100*%
G04 #@! TD*
G04 #@! TA.AperFunction,ComponentPad*
%ADD19C,0.600000*%
G04 #@! TD*
G04 #@! TA.AperFunction,SMDPad,CuDef*
%ADD20R,2.000000X5.000000*%
G04 #@! TD*
G04 #@! TA.AperFunction,WasherPad*
%ADD21C,1.700000*%
G04 #@! TD*
G04 #@! TA.AperFunction,SMDPad,CuDef*
%ADD22R,1.120000X3.390000*%
G04 #@! TD*
G04 #@! TA.AperFunction,ViaPad*
%ADD23C,0.700000*%
G04 #@! TD*
G04 #@! TA.AperFunction,Conductor*
%ADD24C,0.300000*%
G04 #@! TD*
G04 #@! TA.AperFunction,Conductor*
%ADD25C,0.500000*%
G04 #@! TD*
G04 #@! TA.AperFunction,Conductor*
%ADD26C,0.200000*%
G04 #@! TD*
G04 #@! TA.AperFunction,Conductor*
%ADD27C,0.250000*%
G04 #@! TD*
G04 #@! TA.AperFunction,Conductor*
%ADD28C,0.254000*%
G04 #@! TD*
G04 #@! TA.AperFunction,Conductor*
%ADD29C,0.150000*%
G04 #@! TD*
G04 #@! TA.AperFunction,NonConductor*
%ADD30C,0.254000*%
G04 #@! TD*
G04 #@! TA.AperFunction,NonConductor*
%ADD31C,0.150000*%
G04 #@! TD*
G04 APERTURE END LIST*
D10*
X139525000Y-111226840D03*
X139525000Y-109723160D03*
D11*
X144325000Y-109822500D03*
X144325000Y-111727500D03*
D12*
X138473160Y-100575000D03*
X139976840Y-100575000D03*
D10*
X142725000Y-111226840D03*
X142725000Y-109723160D03*
D13*
X150620000Y-96875000D03*
X137480000Y-96875000D03*
D14*
X147550000Y-94475000D03*
X145050000Y-94475000D03*
X143050000Y-94475000D03*
D15*
X140550000Y-94475000D03*
D12*
X141373160Y-100575000D03*
X142876840Y-100575000D03*
X145676840Y-101575000D03*
X144173160Y-101575000D03*
D10*
X141125000Y-111226840D03*
X141125000Y-109723160D03*
D16*
X141925000Y-105475000D03*
D17*
X139926020Y-104225320D03*
X139926020Y-104725700D03*
X139926020Y-105226080D03*
X139926020Y-105723920D03*
X139926020Y-106224300D03*
X139926020Y-106724680D03*
D18*
X140675320Y-107473980D03*
X141175700Y-107473980D03*
X141676080Y-107473980D03*
X142173920Y-107473980D03*
X142674300Y-107473980D03*
X143174680Y-107473980D03*
D17*
X143923980Y-106724680D03*
X143923980Y-106224300D03*
X143923980Y-105723920D03*
X143923980Y-105226080D03*
X143923980Y-104725700D03*
X143923980Y-104225320D03*
D18*
X143174680Y-103476020D03*
X142674300Y-103476020D03*
X142173920Y-103476020D03*
X141676080Y-103476020D03*
X141175700Y-103476020D03*
X140675320Y-103476020D03*
D19*
X141925000Y-105475000D03*
X142687000Y-104713000D03*
X141163000Y-104713000D03*
X142687000Y-106237000D03*
X141163000Y-106237000D03*
D10*
X158900000Y-104348160D03*
X158900000Y-105851840D03*
D12*
X160448160Y-95600000D03*
X161951840Y-95600000D03*
D11*
X162100000Y-106352500D03*
X162100000Y-104447500D03*
D10*
X165036000Y-96884160D03*
X165036000Y-98387840D03*
X157300000Y-104348160D03*
X157300000Y-105851840D03*
X160500000Y-104348160D03*
X160500000Y-105851840D03*
D20*
X164900000Y-104000000D03*
X180500000Y-104000000D03*
D21*
X170200000Y-102900000D03*
D22*
X169700000Y-106900000D03*
X175700000Y-106900000D03*
X173700000Y-106900000D03*
X171700000Y-106900000D03*
D21*
X175100000Y-102900000D03*
D19*
X158938000Y-100862000D03*
X160462000Y-100862000D03*
X158938000Y-99338000D03*
X160462000Y-99338000D03*
X159700000Y-100100000D03*
D18*
X158450320Y-98101020D03*
X158950700Y-98101020D03*
X159451080Y-98101020D03*
X159948920Y-98101020D03*
X160449300Y-98101020D03*
X160949680Y-98101020D03*
D17*
X161698980Y-98850320D03*
X161698980Y-99350700D03*
X161698980Y-99851080D03*
X161698980Y-100348920D03*
X161698980Y-100849300D03*
X161698980Y-101349680D03*
D18*
X160949680Y-102098980D03*
X160449300Y-102098980D03*
X159948920Y-102098980D03*
X159451080Y-102098980D03*
X158950700Y-102098980D03*
X158450320Y-102098980D03*
D17*
X157701020Y-101349680D03*
X157701020Y-100849300D03*
X157701020Y-100348920D03*
X157701020Y-99851080D03*
X157701020Y-99350700D03*
X157701020Y-98850320D03*
D16*
X159700000Y-100100000D03*
D10*
X163512000Y-98387840D03*
X163512000Y-96884160D03*
X157200000Y-126076840D03*
X157200000Y-124573160D03*
D12*
X161851840Y-115825000D03*
X160348160Y-115825000D03*
D10*
X158800000Y-126076840D03*
X158800000Y-124573160D03*
X160400000Y-126076840D03*
X160400000Y-124573160D03*
D16*
X159600000Y-120325000D03*
D17*
X157601020Y-119075320D03*
X157601020Y-119575700D03*
X157601020Y-120076080D03*
X157601020Y-120573920D03*
X157601020Y-121074300D03*
X157601020Y-121574680D03*
D18*
X158350320Y-122323980D03*
X158850700Y-122323980D03*
X159351080Y-122323980D03*
X159848920Y-122323980D03*
X160349300Y-122323980D03*
X160849680Y-122323980D03*
D17*
X161598980Y-121574680D03*
X161598980Y-121074300D03*
X161598980Y-120573920D03*
X161598980Y-120076080D03*
X161598980Y-119575700D03*
X161598980Y-119075320D03*
D18*
X160849680Y-118326020D03*
X160349300Y-118326020D03*
X159848920Y-118326020D03*
X159351080Y-118326020D03*
X158850700Y-118326020D03*
X158350320Y-118326020D03*
D19*
X159600000Y-120325000D03*
X160362000Y-119563000D03*
X158838000Y-119563000D03*
X160362000Y-121087000D03*
X158838000Y-121087000D03*
D11*
X162000000Y-124672500D03*
X162000000Y-126577500D03*
D10*
X163412000Y-117109160D03*
X163412000Y-118612840D03*
X164936000Y-118612840D03*
X164936000Y-117109160D03*
D21*
X175000000Y-123125000D03*
D22*
X171600000Y-127125000D03*
X173600000Y-127125000D03*
X175600000Y-127125000D03*
X169600000Y-127125000D03*
D21*
X170100000Y-123125000D03*
D20*
X180400000Y-124225000D03*
X164800000Y-124225000D03*
D10*
X142725000Y-137123160D03*
X142725000Y-138626840D03*
D19*
X141163000Y-133637000D03*
X142687000Y-133637000D03*
X141163000Y-132113000D03*
X142687000Y-132113000D03*
X141925000Y-132875000D03*
D18*
X140675320Y-130876020D03*
X141175700Y-130876020D03*
X141676080Y-130876020D03*
X142173920Y-130876020D03*
X142674300Y-130876020D03*
X143174680Y-130876020D03*
D17*
X143923980Y-131625320D03*
X143923980Y-132125700D03*
X143923980Y-132626080D03*
X143923980Y-133123920D03*
X143923980Y-133624300D03*
X143923980Y-134124680D03*
D18*
X143174680Y-134873980D03*
X142674300Y-134873980D03*
X142173920Y-134873980D03*
X141676080Y-134873980D03*
X141175700Y-134873980D03*
X140675320Y-134873980D03*
D17*
X139926020Y-134124680D03*
X139926020Y-133624300D03*
X139926020Y-133123920D03*
X139926020Y-132626080D03*
X139926020Y-132125700D03*
X139926020Y-131625320D03*
D16*
X141925000Y-132875000D03*
D10*
X141125000Y-137123160D03*
X141125000Y-138626840D03*
D12*
X139976840Y-127975000D03*
X138473160Y-127975000D03*
D10*
X139525000Y-137123160D03*
X139525000Y-138626840D03*
D11*
X144325000Y-139127500D03*
X144325000Y-137222500D03*
D12*
X142876840Y-127975000D03*
X141373160Y-127975000D03*
X144173160Y-128975000D03*
X145676840Y-128975000D03*
D15*
X140550000Y-121875000D03*
D14*
X143050000Y-121875000D03*
X145050000Y-121875000D03*
X147550000Y-121875000D03*
D13*
X137480000Y-124275000D03*
X150620000Y-124275000D03*
D23*
X163500000Y-100300000D03*
X157500000Y-103300000D03*
X167500000Y-107100000D03*
X160300000Y-103400000D03*
X179600000Y-107800000D03*
X165150000Y-108100000D03*
X159000000Y-96250000D03*
X162300000Y-96900000D03*
X173300000Y-103400000D03*
X172100000Y-103400000D03*
X157700000Y-96400000D03*
X164020000Y-95604000D03*
X143925000Y-99875000D03*
X139725000Y-108675000D03*
X142525000Y-108775000D03*
X137125000Y-100575000D03*
X148450000Y-96875000D03*
X146050000Y-95975000D03*
X163400000Y-120525000D03*
X160200000Y-123625000D03*
X157400000Y-123525000D03*
X167400000Y-127325000D03*
X142525000Y-136175000D03*
X139725000Y-136075000D03*
X143925000Y-127275000D03*
X137125000Y-127975000D03*
X165050000Y-128325000D03*
X179500000Y-128025000D03*
X146050000Y-123375000D03*
X148450000Y-124275000D03*
X158900000Y-116475000D03*
X162200000Y-117125000D03*
X173200000Y-123625000D03*
X157600000Y-116625000D03*
X163920000Y-115829000D03*
X172000000Y-123625000D03*
D24*
X163500000Y-98424278D02*
X163524219Y-98400059D01*
X164150000Y-100300000D02*
X165036000Y-99414000D01*
X157300000Y-103800000D02*
X157300000Y-104348160D01*
X162100000Y-102600000D02*
X162100000Y-104447500D01*
X158400000Y-103300000D02*
X157800000Y-103300000D01*
X162650320Y-101349680D02*
X163600000Y-100400000D01*
X157800000Y-103300000D02*
X157300000Y-103800000D01*
X160500000Y-103600000D02*
X160500000Y-104348160D01*
X162100000Y-104447500D02*
X160599340Y-104447500D01*
X158950700Y-102749300D02*
X158400000Y-103300000D01*
X158950700Y-102098980D02*
X158950700Y-102749300D01*
X161698980Y-102198980D02*
X162100000Y-102600000D01*
X161698980Y-101349680D02*
X161698980Y-102198980D01*
X157300000Y-103500000D02*
X157500000Y-103300000D01*
D25*
X168100000Y-107100000D02*
X167500000Y-107100000D01*
D24*
X163500000Y-100300000D02*
X163500000Y-98424278D01*
D25*
X168800000Y-107800000D02*
X168100000Y-107100000D01*
D24*
X160599340Y-104447500D02*
X160500000Y-104348160D01*
X157300000Y-104348160D02*
X157300000Y-103500000D01*
X160300000Y-103400000D02*
X160500000Y-103600000D01*
X161698980Y-101349680D02*
X162650320Y-101349680D01*
D25*
X169700000Y-106900000D02*
X168800000Y-107800000D01*
D24*
X165036000Y-99414000D02*
X165036000Y-98387840D01*
X163500000Y-100300000D02*
X164150000Y-100300000D01*
D26*
X159451080Y-102098980D02*
X159451080Y-100348920D01*
D25*
X157300000Y-106900000D02*
X157300000Y-105851840D01*
X162100000Y-107297000D02*
X162100000Y-106352500D01*
D27*
X157701020Y-98850320D02*
X156850320Y-98850320D01*
D25*
X159150000Y-107550000D02*
X158900000Y-107300000D01*
D26*
X159451080Y-100348920D02*
X159700000Y-100100000D01*
X160449300Y-102098980D02*
X160449300Y-100849300D01*
D25*
X161250000Y-107550000D02*
X160750000Y-107550000D01*
X157950000Y-107550000D02*
X157300000Y-106900000D01*
D26*
X161698980Y-98850320D02*
X161098930Y-98850320D01*
D27*
X161698980Y-95852860D02*
X161951840Y-95600000D01*
D25*
X160000000Y-107550000D02*
X157950000Y-107550000D01*
X160000000Y-107550000D02*
X159150000Y-107550000D01*
X161847000Y-107550000D02*
X161250000Y-107550000D01*
D24*
X158450320Y-98850320D02*
X159700000Y-100100000D01*
D25*
X160500000Y-107300000D02*
X160500000Y-105851840D01*
X161250000Y-107550000D02*
X160000000Y-107550000D01*
D26*
X161098930Y-98850320D02*
X159849250Y-100100000D01*
D27*
X161698980Y-98850320D02*
X161698980Y-95852860D01*
D26*
X158450320Y-98850320D02*
X158938000Y-99338000D01*
D25*
X158900000Y-107300000D02*
X158900000Y-105851840D01*
X160750000Y-107550000D02*
X160500000Y-107300000D01*
X162100000Y-107297000D02*
X161847000Y-107550000D01*
D26*
X160449300Y-100849300D02*
X159700000Y-100100000D01*
X159849250Y-100100000D02*
X159700000Y-100100000D01*
X157701020Y-98850320D02*
X158450320Y-98850320D01*
D24*
X160949680Y-98850320D02*
X159700000Y-100100000D01*
X160449300Y-98101020D02*
X160449300Y-95601140D01*
X160449300Y-95601140D02*
X160448160Y-95600000D01*
X158900000Y-103800000D02*
X158900000Y-104348160D01*
X159948920Y-102751080D02*
X158900000Y-103800000D01*
X159948920Y-102098980D02*
X159948920Y-102751080D01*
D25*
X164900000Y-107850000D02*
X165150000Y-108100000D01*
X164900000Y-107000000D02*
X164810010Y-107089990D01*
X180200001Y-107450001D02*
X180500000Y-107150002D01*
X179949999Y-107450001D02*
X180200001Y-107450001D01*
X164900000Y-104000000D02*
X164900000Y-107000000D01*
X164900000Y-107000000D02*
X164900000Y-107850000D01*
X179600000Y-107800000D02*
X179949999Y-107450001D01*
X180500000Y-107150002D02*
X180500000Y-104000000D01*
D26*
X158950700Y-96999300D02*
X158950700Y-98101020D01*
D27*
X163014160Y-96884160D02*
X163512000Y-96884160D01*
X173900000Y-106700000D02*
X173700000Y-106900000D01*
X162300000Y-96900000D02*
X163014160Y-96884160D01*
D26*
X159000000Y-96250000D02*
X158950700Y-96999300D01*
D27*
X173300000Y-103400000D02*
X173900000Y-104000000D01*
X173900000Y-104000000D02*
X173900000Y-106700000D01*
D26*
X157700000Y-96400000D02*
X158450320Y-97150320D01*
D27*
X165036000Y-96884160D02*
X165036000Y-96620000D01*
X171700000Y-106900000D02*
X171700000Y-103800000D01*
X171700000Y-103800000D02*
X172100000Y-103400000D01*
X165036000Y-96620000D02*
X164020000Y-95604000D01*
D26*
X158450320Y-97150320D02*
X158450320Y-98101020D01*
D24*
X139525000Y-108875000D02*
X139725000Y-108675000D01*
D25*
X143225000Y-100575000D02*
X143925000Y-99875000D01*
D27*
X141175700Y-107473980D02*
X141175700Y-108024300D01*
D24*
X142525000Y-108775000D02*
X142725000Y-108975000D01*
X139525000Y-109723160D02*
X139525000Y-108875000D01*
D27*
X141175700Y-108024300D02*
X140525000Y-108675000D01*
D25*
X144225660Y-109723160D02*
X144325000Y-109822500D01*
D24*
X142725000Y-108975000D02*
X142725000Y-109723160D01*
D27*
X143923980Y-106724680D02*
X144274680Y-106724680D01*
D25*
X142725000Y-109723160D02*
X144225660Y-109723160D01*
D27*
X144825000Y-109322500D02*
X144325000Y-109822500D01*
D25*
X142876840Y-100575000D02*
X143225000Y-100575000D01*
D27*
X144274680Y-106724680D02*
X144825000Y-107275000D01*
X140525000Y-108675000D02*
X139725000Y-108675000D01*
X144825000Y-107275000D02*
X144825000Y-109322500D01*
D25*
X138473160Y-100575000D02*
X137125000Y-100575000D01*
X143475000Y-112925000D02*
X142225000Y-112925000D01*
D24*
X140675320Y-104225320D02*
X141925000Y-105475000D01*
D25*
X144325000Y-112672000D02*
X144325000Y-111727500D01*
X142975000Y-112925000D02*
X142725000Y-112675000D01*
X142225000Y-112925000D02*
X140175000Y-112925000D01*
D24*
X143174680Y-104225320D02*
X141925000Y-105475000D01*
D25*
X139525000Y-112275000D02*
X139525000Y-111226840D01*
D26*
X141676080Y-107473980D02*
X141676080Y-105723920D01*
D25*
X144325000Y-112672000D02*
X144072000Y-112925000D01*
D26*
X141676080Y-105723920D02*
X141925000Y-105475000D01*
D25*
X143475000Y-112925000D02*
X142975000Y-112925000D01*
D24*
X143923980Y-104225320D02*
X144474680Y-104225320D01*
X143923980Y-104225320D02*
X143174680Y-104225320D01*
X144474680Y-104225320D02*
X145174680Y-104225320D01*
D26*
X142674300Y-107473980D02*
X142674300Y-106224300D01*
X140675320Y-104225320D02*
X141163000Y-104713000D01*
X142674300Y-106224300D02*
X141925000Y-105475000D01*
X139926020Y-104225320D02*
X140675320Y-104225320D01*
D25*
X142225000Y-112925000D02*
X141375000Y-112925000D01*
X142725000Y-112675000D02*
X142725000Y-111226840D01*
X141375000Y-112925000D02*
X141125000Y-112675000D01*
X144072000Y-112925000D02*
X143475000Y-112925000D01*
X141125000Y-112675000D02*
X141125000Y-111226840D01*
X140175000Y-112925000D02*
X139525000Y-112275000D01*
D24*
X142674300Y-103476020D02*
X142674300Y-102625700D01*
X142674300Y-102625700D02*
X143725000Y-101575000D01*
X143725000Y-101575000D02*
X144173160Y-101575000D01*
D27*
X141125000Y-108975000D02*
X141125000Y-109723160D01*
X142173920Y-107926080D02*
X141125000Y-108975000D01*
X142173920Y-107473980D02*
X142173920Y-107926080D01*
D24*
X146950000Y-96875000D02*
X148450000Y-96875000D01*
X148450000Y-96875000D02*
X150620000Y-96875000D01*
X146050000Y-95975000D02*
X146950000Y-96875000D01*
D25*
X137755000Y-96075000D02*
X136955000Y-96875000D01*
D24*
X144550000Y-96075000D02*
X143450000Y-96075000D01*
X142637500Y-97762500D02*
X144262500Y-97762500D01*
X144950000Y-96450000D02*
X144550000Y-96075000D01*
X141175700Y-100772460D02*
X141373160Y-100575000D01*
X143050000Y-95675000D02*
X143050000Y-94475000D01*
X144950000Y-97275000D02*
X144950000Y-96450000D01*
X144262500Y-97762500D02*
X144950000Y-97275000D01*
D27*
X141175700Y-103476020D02*
X141175700Y-101976140D01*
X141175700Y-102374300D02*
X141175700Y-101976140D01*
D24*
X141373160Y-100575000D02*
X141373160Y-99026840D01*
X141175700Y-101976140D02*
X141175700Y-100772460D01*
D26*
X141175700Y-102374300D02*
X141175700Y-103476020D01*
D24*
X141373160Y-99026840D02*
X142637500Y-97762500D01*
X143450000Y-96075000D02*
X143050000Y-95675000D01*
D27*
X139976840Y-102326840D02*
X139976840Y-100575000D01*
X140675320Y-103025320D02*
X139976840Y-102326840D01*
D24*
X144625000Y-94575000D02*
X144525000Y-94475000D01*
X139976840Y-98223160D02*
X141787500Y-96412500D01*
D27*
X140675320Y-103476020D02*
X140675320Y-103025320D01*
D24*
X142450000Y-93275000D02*
X143850000Y-93275000D01*
X141787500Y-96412500D02*
X141787500Y-94075000D01*
X139976840Y-100575000D02*
X139976840Y-98223160D01*
X141787500Y-94075000D02*
X142450000Y-93275000D01*
X143850000Y-93275000D02*
X145050000Y-94475000D01*
X157200000Y-124573160D02*
X157200000Y-123725000D01*
X160400000Y-123825000D02*
X160400000Y-124573160D01*
X160200000Y-123625000D02*
X160400000Y-123825000D01*
X157200000Y-123725000D02*
X157400000Y-123525000D01*
X161598980Y-121574680D02*
X162550320Y-121574680D01*
X162550320Y-121574680D02*
X163500000Y-120625000D01*
X157200000Y-124025000D02*
X157200000Y-124573160D01*
X157700000Y-123525000D02*
X157200000Y-124025000D01*
X158300000Y-123525000D02*
X157700000Y-123525000D01*
X158850700Y-122974300D02*
X158300000Y-123525000D01*
X158850700Y-122323980D02*
X158850700Y-122974300D01*
X160499340Y-124672500D02*
X160400000Y-124573160D01*
X162000000Y-124672500D02*
X160499340Y-124672500D01*
X162000000Y-122825000D02*
X162000000Y-124672500D01*
X161598980Y-122423980D02*
X162000000Y-122825000D01*
X161598980Y-121574680D02*
X161598980Y-122423980D01*
X163400000Y-118649278D02*
X163424219Y-118625059D01*
X163400000Y-120525000D02*
X163400000Y-118649278D01*
X163400000Y-120525000D02*
X164050000Y-120525000D01*
X164936000Y-119639000D02*
X164936000Y-118612840D01*
X164050000Y-120525000D02*
X164936000Y-119639000D01*
D25*
X169600000Y-127125000D02*
X168700000Y-128025000D01*
X168700000Y-128025000D02*
X168000000Y-127325000D01*
X168000000Y-127325000D02*
X167400000Y-127325000D01*
D24*
X139525000Y-136275000D02*
X139725000Y-136075000D01*
X139525000Y-137123160D02*
X139525000Y-136275000D01*
X142525000Y-136175000D02*
X142725000Y-136375000D01*
X142725000Y-136375000D02*
X142725000Y-137123160D01*
D25*
X144225660Y-137123160D02*
X144325000Y-137222500D01*
X142725000Y-137123160D02*
X144225660Y-137123160D01*
X142876840Y-127975000D02*
X143225000Y-127975000D01*
X143225000Y-127975000D02*
X143925000Y-127275000D01*
X138473160Y-127975000D02*
X137125000Y-127975000D01*
D27*
X141175700Y-134873980D02*
X141175700Y-135424300D01*
X140525000Y-136075000D02*
X139725000Y-136075000D01*
X141175700Y-135424300D02*
X140525000Y-136075000D01*
X143923980Y-134124680D02*
X144274680Y-134124680D01*
X144274680Y-134124680D02*
X144825000Y-134675000D01*
X144825000Y-136722500D02*
X144325000Y-137222500D01*
X144825000Y-134675000D02*
X144825000Y-136722500D01*
D24*
X160849680Y-119075320D02*
X159600000Y-120325000D01*
X158350320Y-119075320D02*
X159600000Y-120325000D01*
D26*
X159749250Y-120325000D02*
X159600000Y-120325000D01*
X160998930Y-119075320D02*
X159749250Y-120325000D01*
X161598980Y-119075320D02*
X160998930Y-119075320D01*
X158350320Y-119075320D02*
X158838000Y-119563000D01*
X157601020Y-119075320D02*
X158350320Y-119075320D01*
X159351080Y-120573920D02*
X159600000Y-120325000D01*
X159351080Y-122323980D02*
X159351080Y-120573920D01*
X160349300Y-121074300D02*
X159600000Y-120325000D01*
X160349300Y-122323980D02*
X160349300Y-121074300D01*
D25*
X162000000Y-127522000D02*
X162000000Y-126577500D01*
X162000000Y-127522000D02*
X161747000Y-127775000D01*
X160400000Y-127525000D02*
X160400000Y-126076840D01*
X160650000Y-127775000D02*
X160400000Y-127525000D01*
X161150000Y-127775000D02*
X160650000Y-127775000D01*
X161747000Y-127775000D02*
X161150000Y-127775000D01*
X158800000Y-127525000D02*
X158800000Y-126076840D01*
X159050000Y-127775000D02*
X158800000Y-127525000D01*
X159900000Y-127775000D02*
X159050000Y-127775000D01*
X159900000Y-127775000D02*
X157850000Y-127775000D01*
X161150000Y-127775000D02*
X159900000Y-127775000D01*
X157200000Y-127125000D02*
X157200000Y-126076840D01*
X157850000Y-127775000D02*
X157200000Y-127125000D01*
D27*
X161598980Y-116077860D02*
X161851840Y-115825000D01*
X161598980Y-119075320D02*
X161598980Y-116077860D01*
X157601020Y-119075320D02*
X156750320Y-119075320D01*
D25*
X142725000Y-140075000D02*
X142725000Y-138626840D01*
X142975000Y-140325000D02*
X142725000Y-140075000D01*
D26*
X140675320Y-131625320D02*
X141163000Y-132113000D01*
D25*
X141375000Y-140325000D02*
X141125000Y-140075000D01*
X143475000Y-140325000D02*
X142225000Y-140325000D01*
D26*
X139926020Y-131625320D02*
X140675320Y-131625320D01*
X141676080Y-133123920D02*
X141925000Y-132875000D01*
D25*
X142225000Y-140325000D02*
X140175000Y-140325000D01*
X141125000Y-140075000D02*
X141125000Y-138626840D01*
X142225000Y-140325000D02*
X141375000Y-140325000D01*
X139525000Y-139675000D02*
X139525000Y-138626840D01*
D26*
X142674300Y-134873980D02*
X142674300Y-133624300D01*
X141676080Y-134873980D02*
X141676080Y-133123920D01*
X142674300Y-133624300D02*
X141925000Y-132875000D01*
D25*
X144325000Y-140072000D02*
X144325000Y-139127500D01*
X144325000Y-140072000D02*
X144072000Y-140325000D01*
D24*
X140675320Y-131625320D02*
X141925000Y-132875000D01*
D25*
X143475000Y-140325000D02*
X142975000Y-140325000D01*
X144072000Y-140325000D02*
X143475000Y-140325000D01*
X140175000Y-140325000D02*
X139525000Y-139675000D01*
D24*
X143174680Y-131625320D02*
X141925000Y-132875000D01*
X143923980Y-131625320D02*
X143174680Y-131625320D01*
X143923980Y-131625320D02*
X144474680Y-131625320D01*
X144474680Y-131625320D02*
X145174680Y-131625320D01*
X160349300Y-115826140D02*
X160348160Y-115825000D01*
X160349300Y-118326020D02*
X160349300Y-115826140D01*
X142674300Y-130876020D02*
X142674300Y-130025700D01*
X143725000Y-128975000D02*
X144173160Y-128975000D01*
X142674300Y-130025700D02*
X143725000Y-128975000D01*
X158800000Y-124025000D02*
X158800000Y-124573160D01*
X159848920Y-122976080D02*
X158800000Y-124025000D01*
X159848920Y-122323980D02*
X159848920Y-122976080D01*
D27*
X142173920Y-134873980D02*
X142173920Y-135326080D01*
X141125000Y-136375000D02*
X141125000Y-137123160D01*
X142173920Y-135326080D02*
X141125000Y-136375000D01*
D25*
X164800000Y-127225000D02*
X164710010Y-127314990D01*
X164800000Y-124225000D02*
X164800000Y-127225000D01*
X164800000Y-127225000D02*
X164800000Y-128075000D01*
X164800000Y-128075000D02*
X165050000Y-128325000D01*
X179849999Y-127675001D02*
X180100001Y-127675001D01*
X179500000Y-128025000D02*
X179849999Y-127675001D01*
X180400000Y-127375002D02*
X180400000Y-124225000D01*
X180100001Y-127675001D02*
X180400000Y-127375002D01*
X137755000Y-123475000D02*
X136955000Y-124275000D01*
D24*
X146050000Y-123375000D02*
X146950000Y-124275000D01*
X146950000Y-124275000D02*
X148450000Y-124275000D01*
X148450000Y-124275000D02*
X150620000Y-124275000D01*
D26*
X158900000Y-116475000D02*
X158850700Y-117224300D01*
X158850700Y-117224300D02*
X158850700Y-118326020D01*
D27*
X162914160Y-117109160D02*
X163412000Y-117109160D01*
X162200000Y-117125000D02*
X162914160Y-117109160D01*
X173200000Y-123625000D02*
X173800000Y-124225000D01*
X173800000Y-126925000D02*
X173600000Y-127125000D01*
X173800000Y-124225000D02*
X173800000Y-126925000D01*
D26*
X141175700Y-129774300D02*
X141175700Y-130876020D01*
D27*
X141175700Y-129774300D02*
X141175700Y-129376140D01*
X141175700Y-130876020D02*
X141175700Y-129376140D01*
D24*
X141175700Y-128172460D02*
X141373160Y-127975000D01*
X141175700Y-129376140D02*
X141175700Y-128172460D01*
X143050000Y-123075000D02*
X143050000Y-121875000D01*
X143450000Y-123475000D02*
X143050000Y-123075000D01*
X144550000Y-123475000D02*
X143450000Y-123475000D01*
X141373160Y-126426840D02*
X142637500Y-125162500D01*
X142637500Y-125162500D02*
X144262500Y-125162500D01*
X144950000Y-123850000D02*
X144550000Y-123475000D01*
X141373160Y-127975000D02*
X141373160Y-126426840D01*
X144262500Y-125162500D02*
X144950000Y-124675000D01*
X144950000Y-124675000D02*
X144950000Y-123850000D01*
D26*
X158350320Y-117375320D02*
X158350320Y-118326020D01*
X157600000Y-116625000D02*
X158350320Y-117375320D01*
D27*
X164936000Y-117109160D02*
X164936000Y-116845000D01*
X164936000Y-116845000D02*
X163920000Y-115829000D01*
X171600000Y-127125000D02*
X171600000Y-124025000D01*
X171600000Y-124025000D02*
X172000000Y-123625000D01*
D24*
X144625000Y-121975000D02*
X144525000Y-121875000D01*
D27*
X140675320Y-130876020D02*
X140675320Y-130425320D01*
X139976840Y-129726840D02*
X139976840Y-127975000D01*
X140675320Y-130425320D02*
X139976840Y-129726840D01*
D24*
X143850000Y-120675000D02*
X145050000Y-121875000D01*
X142450000Y-120675000D02*
X143850000Y-120675000D01*
X141787500Y-121475000D02*
X142450000Y-120675000D01*
X141787500Y-123812500D02*
X141787500Y-121475000D01*
X139976840Y-127975000D02*
X139976840Y-125623160D01*
X139976840Y-125623160D02*
X141787500Y-123812500D01*
D28*
X185273000Y-129198000D02*
X176671246Y-129198000D01*
X176690537Y-129174494D01*
X176749502Y-129064180D01*
X176785812Y-128944482D01*
X176798072Y-128820000D01*
X176796130Y-127928774D01*
X178523000Y-127928774D01*
X178523000Y-128121226D01*
X178560546Y-128309980D01*
X178634194Y-128487783D01*
X178741115Y-128647801D01*
X178877199Y-128783885D01*
X179037217Y-128890806D01*
X179215020Y-128964454D01*
X179403774Y-129002000D01*
X179596226Y-129002000D01*
X179784980Y-128964454D01*
X179962783Y-128890806D01*
X180122801Y-128783885D01*
X180258885Y-128647801D01*
X180346490Y-128516691D01*
X180437238Y-128489163D01*
X180589593Y-128407728D01*
X180723134Y-128298134D01*
X180750598Y-128264668D01*
X180989665Y-128025601D01*
X181023133Y-127998135D01*
X181132727Y-127864594D01*
X181214162Y-127712239D01*
X181252636Y-127585408D01*
X181264310Y-127546925D01*
X181281243Y-127375002D01*
X181279276Y-127355033D01*
X181400000Y-127355033D01*
X181522913Y-127342927D01*
X181641103Y-127307075D01*
X181750028Y-127248853D01*
X181845501Y-127170501D01*
X181923853Y-127075028D01*
X181982075Y-126966103D01*
X182017927Y-126847913D01*
X182030033Y-126725000D01*
X182030033Y-122174682D01*
X182037915Y-122177947D01*
X182410207Y-122252000D01*
X182789793Y-122252000D01*
X183162085Y-122177947D01*
X183512777Y-122032685D01*
X183828391Y-121821799D01*
X184096799Y-121553391D01*
X184307685Y-121237777D01*
X184452947Y-120887085D01*
X184527000Y-120514793D01*
X184527000Y-120135207D01*
X184452947Y-119762915D01*
X184307685Y-119412223D01*
X184096799Y-119096609D01*
X183828391Y-118828201D01*
X183512777Y-118617315D01*
X183162085Y-118472053D01*
X182789793Y-118398000D01*
X182410207Y-118398000D01*
X182037915Y-118472053D01*
X181687223Y-118617315D01*
X181371609Y-118828201D01*
X181103201Y-119096609D01*
X180892315Y-119412223D01*
X180747053Y-119762915D01*
X180673000Y-120135207D01*
X180673000Y-120514793D01*
X180747053Y-120887085D01*
X180833161Y-121094967D01*
X179400000Y-121094967D01*
X179277087Y-121107073D01*
X179158897Y-121142925D01*
X179049972Y-121201147D01*
X178954499Y-121279499D01*
X178876147Y-121374972D01*
X178817925Y-121483897D01*
X178782073Y-121602087D01*
X178769967Y-121725000D01*
X178769967Y-126725000D01*
X178782073Y-126847913D01*
X178817925Y-126966103D01*
X178876147Y-127075028D01*
X178954499Y-127170501D01*
X178984028Y-127194734D01*
X178877199Y-127266115D01*
X178741115Y-127402199D01*
X178634194Y-127562217D01*
X178560546Y-127740020D01*
X178523000Y-127928774D01*
X176796130Y-127928774D01*
X176795000Y-127410750D01*
X176636250Y-127252000D01*
X175727000Y-127252000D01*
X175727000Y-127272000D01*
X175473000Y-127272000D01*
X175473000Y-127252000D01*
X175453000Y-127252000D01*
X175453000Y-126998000D01*
X175473000Y-126998000D01*
X175473000Y-124953750D01*
X175727000Y-124953750D01*
X175727000Y-126998000D01*
X176636250Y-126998000D01*
X176795000Y-126839250D01*
X176798072Y-125430000D01*
X176785812Y-125305518D01*
X176749502Y-125185820D01*
X176690537Y-125075506D01*
X176611185Y-124978815D01*
X176514494Y-124899463D01*
X176404180Y-124840498D01*
X176284482Y-124804188D01*
X176160000Y-124791928D01*
X175885750Y-124795000D01*
X175727000Y-124953750D01*
X175473000Y-124953750D01*
X175314250Y-124795000D01*
X175040000Y-124791928D01*
X174915518Y-124804188D01*
X174795820Y-124840498D01*
X174685506Y-124899463D01*
X174593695Y-124974810D01*
X174552000Y-124940592D01*
X174552000Y-124538126D01*
X174569175Y-124545240D01*
X174854528Y-124602000D01*
X175145472Y-124602000D01*
X175430825Y-124545240D01*
X175699622Y-124433901D01*
X175941533Y-124272261D01*
X176147261Y-124066533D01*
X176308901Y-123824622D01*
X176420240Y-123555825D01*
X176477000Y-123270472D01*
X176477000Y-122979528D01*
X176420240Y-122694175D01*
X176308901Y-122425378D01*
X176147261Y-122183467D01*
X175941533Y-121977739D01*
X175699622Y-121816099D01*
X175430825Y-121704760D01*
X175145472Y-121648000D01*
X174854528Y-121648000D01*
X174569175Y-121704760D01*
X174300378Y-121816099D01*
X174058467Y-121977739D01*
X173852739Y-122183467D01*
X173691099Y-122425378D01*
X173579760Y-122694175D01*
X173574131Y-122722473D01*
X173484980Y-122685546D01*
X173296226Y-122648000D01*
X173103774Y-122648000D01*
X172915020Y-122685546D01*
X172737217Y-122759194D01*
X172600000Y-122850880D01*
X172462783Y-122759194D01*
X172284980Y-122685546D01*
X172096226Y-122648000D01*
X171903774Y-122648000D01*
X171715020Y-122685546D01*
X171537217Y-122759194D01*
X171533647Y-122761579D01*
X171520240Y-122694175D01*
X171408901Y-122425378D01*
X171247261Y-122183467D01*
X171041533Y-121977739D01*
X170799622Y-121816099D01*
X170530825Y-121704760D01*
X170245472Y-121648000D01*
X169954528Y-121648000D01*
X169669175Y-121704760D01*
X169400378Y-121816099D01*
X169158467Y-121977739D01*
X168952739Y-122183467D01*
X168791099Y-122425378D01*
X168679760Y-122694175D01*
X168623000Y-122979528D01*
X168623000Y-123270472D01*
X168679760Y-123555825D01*
X168791099Y-123824622D01*
X168952739Y-124066533D01*
X169158467Y-124272261D01*
X169400378Y-124433901D01*
X169669175Y-124545240D01*
X169954528Y-124602000D01*
X170245472Y-124602000D01*
X170530825Y-124545240D01*
X170799622Y-124433901D01*
X170848001Y-124401575D01*
X170848001Y-124833030D01*
X170798897Y-124847925D01*
X170689972Y-124906147D01*
X170600000Y-124979984D01*
X170510028Y-124906147D01*
X170401103Y-124847925D01*
X170282913Y-124812073D01*
X170160000Y-124799967D01*
X169040000Y-124799967D01*
X168917087Y-124812073D01*
X168798897Y-124847925D01*
X168689972Y-124906147D01*
X168594499Y-124984499D01*
X168516147Y-125079972D01*
X168457925Y-125188897D01*
X168422073Y-125307087D01*
X168409967Y-125430000D01*
X168409967Y-126549713D01*
X168337237Y-126510838D01*
X168171922Y-126460690D01*
X168043079Y-126448000D01*
X168000000Y-126443757D01*
X167956921Y-126448000D01*
X167835758Y-126448000D01*
X167684980Y-126385546D01*
X167496226Y-126348000D01*
X167303774Y-126348000D01*
X167115020Y-126385546D01*
X166937217Y-126459194D01*
X166777199Y-126566115D01*
X166641115Y-126702199D01*
X166534194Y-126862217D01*
X166460546Y-127040020D01*
X166423000Y-127228774D01*
X166423000Y-127421226D01*
X166460546Y-127609980D01*
X166534194Y-127787783D01*
X166641115Y-127947801D01*
X166777199Y-128083885D01*
X166937217Y-128190806D01*
X167115020Y-128264454D01*
X167303774Y-128302000D01*
X167496226Y-128302000D01*
X167684980Y-128264454D01*
X167695027Y-128260292D01*
X168049412Y-128614677D01*
X168076868Y-128648132D01*
X168110323Y-128675588D01*
X168110328Y-128675593D01*
X168210407Y-128757726D01*
X168303953Y-128807727D01*
X168362764Y-128839162D01*
X168413366Y-128854512D01*
X168422073Y-128942913D01*
X168457925Y-129061103D01*
X168516147Y-129170028D01*
X168539103Y-129198000D01*
X165495415Y-129198000D01*
X165512783Y-129190806D01*
X165672801Y-129083885D01*
X165808885Y-128947801D01*
X165915806Y-128787783D01*
X165989454Y-128609980D01*
X166027000Y-128421226D01*
X166027000Y-128228774D01*
X165989454Y-128040020D01*
X165915806Y-127862217D01*
X165808885Y-127702199D01*
X165677000Y-127570314D01*
X165677000Y-127355033D01*
X165800000Y-127355033D01*
X165922913Y-127342927D01*
X166041103Y-127307075D01*
X166150028Y-127248853D01*
X166245501Y-127170501D01*
X166323853Y-127075028D01*
X166382075Y-126966103D01*
X166417927Y-126847913D01*
X166430033Y-126725000D01*
X166430033Y-121725000D01*
X166417927Y-121602087D01*
X166382075Y-121483897D01*
X166323853Y-121374972D01*
X166245501Y-121279499D01*
X166150028Y-121201147D01*
X166041103Y-121142925D01*
X165922913Y-121107073D01*
X165800000Y-121094967D01*
X164580284Y-121094967D01*
X164602080Y-121077080D01*
X164626412Y-121047431D01*
X165458437Y-120215407D01*
X165488080Y-120191080D01*
X165512409Y-120161435D01*
X165585177Y-120072767D01*
X165657327Y-119937784D01*
X165660062Y-119928768D01*
X165701757Y-119791319D01*
X165713000Y-119677166D01*
X165713000Y-119677157D01*
X165716758Y-119639001D01*
X165715308Y-119624277D01*
X165786408Y-119586273D01*
X165881881Y-119507921D01*
X165960233Y-119412448D01*
X166018455Y-119303523D01*
X166054307Y-119185333D01*
X166066413Y-119062420D01*
X166066413Y-118163260D01*
X166054307Y-118040347D01*
X166018455Y-117922157D01*
X165985766Y-117861000D01*
X166018455Y-117799843D01*
X166054307Y-117681653D01*
X166066413Y-117558740D01*
X166066413Y-116659580D01*
X166054307Y-116536667D01*
X166018455Y-116418477D01*
X165960233Y-116309552D01*
X165881881Y-116214079D01*
X165786408Y-116135727D01*
X165677483Y-116077505D01*
X165559293Y-116041653D01*
X165436380Y-116029547D01*
X165184036Y-116029547D01*
X164897000Y-115742512D01*
X164897000Y-115732774D01*
X164859454Y-115544020D01*
X164785806Y-115366217D01*
X164678885Y-115206199D01*
X164542801Y-115070115D01*
X164382783Y-114963194D01*
X164204980Y-114889546D01*
X164016226Y-114852000D01*
X163823774Y-114852000D01*
X163635020Y-114889546D01*
X163457217Y-114963194D01*
X163297199Y-115070115D01*
X163161115Y-115206199D01*
X163054194Y-115366217D01*
X162980546Y-115544020D01*
X162943000Y-115732774D01*
X162943000Y-115925226D01*
X162963751Y-116029547D01*
X162911620Y-116029547D01*
X162860274Y-116034604D01*
X162777670Y-115952000D01*
X161978840Y-115952000D01*
X161978840Y-115972000D01*
X161724840Y-115972000D01*
X161724840Y-115952000D01*
X161704840Y-115952000D01*
X161704840Y-115698000D01*
X161724840Y-115698000D01*
X161724840Y-114848370D01*
X161978840Y-114848370D01*
X161978840Y-115698000D01*
X162777670Y-115698000D01*
X162936420Y-115539250D01*
X162939492Y-115324620D01*
X162927232Y-115200138D01*
X162890922Y-115080440D01*
X162831957Y-114970126D01*
X162752605Y-114873435D01*
X162655914Y-114794083D01*
X162545600Y-114735118D01*
X162425902Y-114698808D01*
X162301420Y-114686548D01*
X162137590Y-114689620D01*
X161978840Y-114848370D01*
X161724840Y-114848370D01*
X161566090Y-114689620D01*
X161402260Y-114686548D01*
X161277778Y-114698808D01*
X161158080Y-114735118D01*
X161091514Y-114770699D01*
X161038843Y-114742545D01*
X160920653Y-114706693D01*
X160797740Y-114694587D01*
X159898580Y-114694587D01*
X159775667Y-114706693D01*
X159657477Y-114742545D01*
X159548552Y-114800767D01*
X159453079Y-114879119D01*
X159374727Y-114974592D01*
X159316505Y-115083517D01*
X159280653Y-115201707D01*
X159268547Y-115324620D01*
X159268547Y-115570160D01*
X159184980Y-115535546D01*
X158996226Y-115498000D01*
X158803774Y-115498000D01*
X158615020Y-115535546D01*
X158437217Y-115609194D01*
X158277199Y-115716115D01*
X158165492Y-115827822D01*
X158062783Y-115759194D01*
X157884980Y-115685546D01*
X157696226Y-115648000D01*
X157503774Y-115648000D01*
X157315020Y-115685546D01*
X157137217Y-115759194D01*
X156977199Y-115866115D01*
X156841115Y-116002199D01*
X156734194Y-116162217D01*
X156660546Y-116340020D01*
X156623000Y-116528774D01*
X156623000Y-116721226D01*
X156660546Y-116909980D01*
X156734194Y-117087783D01*
X156841115Y-117247801D01*
X156977199Y-117383885D01*
X157137217Y-117490806D01*
X157315020Y-117564454D01*
X157503774Y-117602000D01*
X157548867Y-117602000D01*
X157623320Y-117676454D01*
X157623321Y-117858329D01*
X157609734Y-117903118D01*
X157598860Y-118013523D01*
X157598860Y-118315860D01*
X157198430Y-118315860D01*
X157052707Y-118355229D01*
X156917465Y-118422271D01*
X156797900Y-118514409D01*
X156698608Y-118628103D01*
X156623405Y-118758983D01*
X156575320Y-118956514D01*
X156724720Y-119075320D01*
X156575320Y-119194126D01*
X156611198Y-119341511D01*
X156584844Y-119428388D01*
X156570335Y-119575700D01*
X156584844Y-119723012D01*
X156616052Y-119825890D01*
X156584844Y-119928768D01*
X156570335Y-120076080D01*
X156584844Y-120223392D01*
X156615666Y-120325000D01*
X156584844Y-120426608D01*
X156570335Y-120573920D01*
X156584844Y-120721232D01*
X156616052Y-120824110D01*
X156584844Y-120926988D01*
X156570335Y-121074300D01*
X156584844Y-121221612D01*
X156616052Y-121324490D01*
X156584844Y-121427368D01*
X156570335Y-121574680D01*
X156584844Y-121721992D01*
X156627813Y-121863642D01*
X156697591Y-121994188D01*
X156791497Y-122108613D01*
X156905922Y-122202519D01*
X157036468Y-122272297D01*
X157178118Y-122315266D01*
X157288523Y-122326140D01*
X157598860Y-122326140D01*
X157598860Y-122568415D01*
X157496226Y-122548000D01*
X157303774Y-122548000D01*
X157115020Y-122585546D01*
X156937217Y-122659194D01*
X156777199Y-122766115D01*
X156641115Y-122902199D01*
X156534194Y-123062217D01*
X156460546Y-123240020D01*
X156423000Y-123428774D01*
X156423000Y-123560489D01*
X156349592Y-123599727D01*
X156254119Y-123678079D01*
X156175767Y-123773552D01*
X156117545Y-123882477D01*
X156081693Y-124000667D01*
X156069587Y-124123580D01*
X156069587Y-125022740D01*
X156081693Y-125145653D01*
X156117545Y-125263843D01*
X156145699Y-125316514D01*
X156110118Y-125383080D01*
X156073808Y-125502778D01*
X156061548Y-125627260D01*
X156064620Y-125791090D01*
X156223370Y-125949840D01*
X157073000Y-125949840D01*
X157073000Y-125929840D01*
X157327000Y-125929840D01*
X157327000Y-125949840D01*
X158673000Y-125949840D01*
X158673000Y-125929840D01*
X158927000Y-125929840D01*
X158927000Y-125949840D01*
X160273000Y-125949840D01*
X160273000Y-125929840D01*
X160527000Y-125929840D01*
X160527000Y-125949840D01*
X160547000Y-125949840D01*
X160547000Y-126203840D01*
X160527000Y-126203840D01*
X160527000Y-127002670D01*
X160677811Y-127153481D01*
X160711998Y-127266180D01*
X160770963Y-127376494D01*
X160850315Y-127473185D01*
X160947006Y-127552537D01*
X161057320Y-127611502D01*
X161177018Y-127647812D01*
X161301500Y-127660072D01*
X161714250Y-127657000D01*
X161873000Y-127498250D01*
X161873000Y-126704500D01*
X161853000Y-126704500D01*
X161853000Y-126450500D01*
X161873000Y-126450500D01*
X161873000Y-126430500D01*
X162127000Y-126430500D01*
X162127000Y-126450500D01*
X162147000Y-126450500D01*
X162147000Y-126704500D01*
X162127000Y-126704500D01*
X162127000Y-127498250D01*
X162285750Y-127657000D01*
X162698500Y-127660072D01*
X162822982Y-127647812D01*
X162942680Y-127611502D01*
X163052994Y-127552537D01*
X163149685Y-127473185D01*
X163229037Y-127376494D01*
X163288002Y-127266180D01*
X163324312Y-127146482D01*
X163325434Y-127135085D01*
X163354499Y-127170501D01*
X163449972Y-127248853D01*
X163558897Y-127307075D01*
X163677087Y-127342927D01*
X163800000Y-127355033D01*
X163832711Y-127355033D01*
X163845700Y-127486912D01*
X163895848Y-127652226D01*
X163923000Y-127703024D01*
X163923000Y-128031921D01*
X163918757Y-128075000D01*
X163935690Y-128246922D01*
X163985838Y-128412236D01*
X164067274Y-128564592D01*
X164116684Y-128624799D01*
X164184194Y-128787783D01*
X164291115Y-128947801D01*
X164427199Y-129083885D01*
X164587217Y-129190806D01*
X164604585Y-129198000D01*
X152277000Y-129198000D01*
X152277000Y-126526420D01*
X156061548Y-126526420D01*
X156073808Y-126650902D01*
X156110118Y-126770600D01*
X156169083Y-126880914D01*
X156248435Y-126977605D01*
X156345126Y-127056957D01*
X156455440Y-127115922D01*
X156575138Y-127152232D01*
X156699620Y-127164492D01*
X156914250Y-127161420D01*
X157073000Y-127002670D01*
X157073000Y-126203840D01*
X157327000Y-126203840D01*
X157327000Y-127002670D01*
X157485750Y-127161420D01*
X157700380Y-127164492D01*
X157824862Y-127152232D01*
X157944560Y-127115922D01*
X158000000Y-127086288D01*
X158055440Y-127115922D01*
X158175138Y-127152232D01*
X158299620Y-127164492D01*
X158514250Y-127161420D01*
X158673000Y-127002670D01*
X158673000Y-126203840D01*
X158927000Y-126203840D01*
X158927000Y-127002670D01*
X159085750Y-127161420D01*
X159300380Y-127164492D01*
X159424862Y-127152232D01*
X159544560Y-127115922D01*
X159600000Y-127086288D01*
X159655440Y-127115922D01*
X159775138Y-127152232D01*
X159899620Y-127164492D01*
X160114250Y-127161420D01*
X160273000Y-127002670D01*
X160273000Y-126203840D01*
X158927000Y-126203840D01*
X158673000Y-126203840D01*
X157327000Y-126203840D01*
X157073000Y-126203840D01*
X156223370Y-126203840D01*
X156064620Y-126362590D01*
X156061548Y-126526420D01*
X152277000Y-126526420D01*
X152277000Y-120135207D01*
X152673000Y-120135207D01*
X152673000Y-120514793D01*
X152747053Y-120887085D01*
X152892315Y-121237777D01*
X153103201Y-121553391D01*
X153371609Y-121821799D01*
X153687223Y-122032685D01*
X154037915Y-122177947D01*
X154410207Y-122252000D01*
X154789793Y-122252000D01*
X155162085Y-122177947D01*
X155512777Y-122032685D01*
X155828391Y-121821799D01*
X156096799Y-121553391D01*
X156307685Y-121237777D01*
X156452947Y-120887085D01*
X156527000Y-120514793D01*
X156527000Y-120135207D01*
X156452947Y-119762915D01*
X156307685Y-119412223D01*
X156096799Y-119096609D01*
X155828391Y-118828201D01*
X155512777Y-118617315D01*
X155162085Y-118472053D01*
X154789793Y-118398000D01*
X154410207Y-118398000D01*
X154037915Y-118472053D01*
X153687223Y-118617315D01*
X153371609Y-118828201D01*
X153103201Y-119096609D01*
X152892315Y-119412223D01*
X152747053Y-119762915D01*
X152673000Y-120135207D01*
X152277000Y-120135207D01*
X152277000Y-113002000D01*
X185273000Y-113002000D01*
X185273000Y-129198000D01*
G04 #@! TA.AperFunction,Conductor*
D29*
G36*
X185273000Y-129198000D02*
G01*
X176671246Y-129198000D01*
X176690537Y-129174494D01*
X176749502Y-129064180D01*
X176785812Y-128944482D01*
X176798072Y-128820000D01*
X176796130Y-127928774D01*
X178523000Y-127928774D01*
X178523000Y-128121226D01*
X178560546Y-128309980D01*
X178634194Y-128487783D01*
X178741115Y-128647801D01*
X178877199Y-128783885D01*
X179037217Y-128890806D01*
X179215020Y-128964454D01*
X179403774Y-129002000D01*
X179596226Y-129002000D01*
X179784980Y-128964454D01*
X179962783Y-128890806D01*
X180122801Y-128783885D01*
X180258885Y-128647801D01*
X180346490Y-128516691D01*
X180437238Y-128489163D01*
X180589593Y-128407728D01*
X180723134Y-128298134D01*
X180750598Y-128264668D01*
X180989665Y-128025601D01*
X181023133Y-127998135D01*
X181132727Y-127864594D01*
X181214162Y-127712239D01*
X181252636Y-127585408D01*
X181264310Y-127546925D01*
X181281243Y-127375002D01*
X181279276Y-127355033D01*
X181400000Y-127355033D01*
X181522913Y-127342927D01*
X181641103Y-127307075D01*
X181750028Y-127248853D01*
X181845501Y-127170501D01*
X181923853Y-127075028D01*
X181982075Y-126966103D01*
X182017927Y-126847913D01*
X182030033Y-126725000D01*
X182030033Y-122174682D01*
X182037915Y-122177947D01*
X182410207Y-122252000D01*
X182789793Y-122252000D01*
X183162085Y-122177947D01*
X183512777Y-122032685D01*
X183828391Y-121821799D01*
X184096799Y-121553391D01*
X184307685Y-121237777D01*
X184452947Y-120887085D01*
X184527000Y-120514793D01*
X184527000Y-120135207D01*
X184452947Y-119762915D01*
X184307685Y-119412223D01*
X184096799Y-119096609D01*
X183828391Y-118828201D01*
X183512777Y-118617315D01*
X183162085Y-118472053D01*
X182789793Y-118398000D01*
X182410207Y-118398000D01*
X182037915Y-118472053D01*
X181687223Y-118617315D01*
X181371609Y-118828201D01*
X181103201Y-119096609D01*
X180892315Y-119412223D01*
X180747053Y-119762915D01*
X180673000Y-120135207D01*
X180673000Y-120514793D01*
X180747053Y-120887085D01*
X180833161Y-121094967D01*
X179400000Y-121094967D01*
X179277087Y-121107073D01*
X179158897Y-121142925D01*
X179049972Y-121201147D01*
X178954499Y-121279499D01*
X178876147Y-121374972D01*
X178817925Y-121483897D01*
X178782073Y-121602087D01*
X178769967Y-121725000D01*
X178769967Y-126725000D01*
X178782073Y-126847913D01*
X178817925Y-126966103D01*
X178876147Y-127075028D01*
X178954499Y-127170501D01*
X178984028Y-127194734D01*
X178877199Y-127266115D01*
X178741115Y-127402199D01*
X178634194Y-127562217D01*
X178560546Y-127740020D01*
X178523000Y-127928774D01*
X176796130Y-127928774D01*
X176795000Y-127410750D01*
X176636250Y-127252000D01*
X175727000Y-127252000D01*
X175727000Y-127272000D01*
X175473000Y-127272000D01*
X175473000Y-127252000D01*
X175453000Y-127252000D01*
X175453000Y-126998000D01*
X175473000Y-126998000D01*
X175473000Y-124953750D01*
X175727000Y-124953750D01*
X175727000Y-126998000D01*
X176636250Y-126998000D01*
X176795000Y-126839250D01*
X176798072Y-125430000D01*
X176785812Y-125305518D01*
X176749502Y-125185820D01*
X176690537Y-125075506D01*
X176611185Y-124978815D01*
X176514494Y-124899463D01*
X176404180Y-124840498D01*
X176284482Y-124804188D01*
X176160000Y-124791928D01*
X175885750Y-124795000D01*
X175727000Y-124953750D01*
X175473000Y-124953750D01*
X175314250Y-124795000D01*
X175040000Y-124791928D01*
X174915518Y-124804188D01*
X174795820Y-124840498D01*
X174685506Y-124899463D01*
X174593695Y-124974810D01*
X174552000Y-124940592D01*
X174552000Y-124538126D01*
X174569175Y-124545240D01*
X174854528Y-124602000D01*
X175145472Y-124602000D01*
X175430825Y-124545240D01*
X175699622Y-124433901D01*
X175941533Y-124272261D01*
X176147261Y-124066533D01*
X176308901Y-123824622D01*
X176420240Y-123555825D01*
X176477000Y-123270472D01*
X176477000Y-122979528D01*
X176420240Y-122694175D01*
X176308901Y-122425378D01*
X176147261Y-122183467D01*
X175941533Y-121977739D01*
X175699622Y-121816099D01*
X175430825Y-121704760D01*
X175145472Y-121648000D01*
X174854528Y-121648000D01*
X174569175Y-121704760D01*
X174300378Y-121816099D01*
X174058467Y-121977739D01*
X173852739Y-122183467D01*
X173691099Y-122425378D01*
X173579760Y-122694175D01*
X173574131Y-122722473D01*
X173484980Y-122685546D01*
X173296226Y-122648000D01*
X173103774Y-122648000D01*
X172915020Y-122685546D01*
X172737217Y-122759194D01*
X172600000Y-122850880D01*
X172462783Y-122759194D01*
X172284980Y-122685546D01*
X172096226Y-122648000D01*
X171903774Y-122648000D01*
X171715020Y-122685546D01*
X171537217Y-122759194D01*
X171533647Y-122761579D01*
X171520240Y-122694175D01*
X171408901Y-122425378D01*
X171247261Y-122183467D01*
X171041533Y-121977739D01*
X170799622Y-121816099D01*
X170530825Y-121704760D01*
X170245472Y-121648000D01*
X169954528Y-121648000D01*
X169669175Y-121704760D01*
X169400378Y-121816099D01*
X169158467Y-121977739D01*
X168952739Y-122183467D01*
X168791099Y-122425378D01*
X168679760Y-122694175D01*
X168623000Y-122979528D01*
X168623000Y-123270472D01*
X168679760Y-123555825D01*
X168791099Y-123824622D01*
X168952739Y-124066533D01*
X169158467Y-124272261D01*
X169400378Y-124433901D01*
X169669175Y-124545240D01*
X169954528Y-124602000D01*
X170245472Y-124602000D01*
X170530825Y-124545240D01*
X170799622Y-124433901D01*
X170848001Y-124401575D01*
X170848001Y-124833030D01*
X170798897Y-124847925D01*
X170689972Y-124906147D01*
X170600000Y-124979984D01*
X170510028Y-124906147D01*
X170401103Y-124847925D01*
X170282913Y-124812073D01*
X170160000Y-124799967D01*
X169040000Y-124799967D01*
X168917087Y-124812073D01*
X168798897Y-124847925D01*
X168689972Y-124906147D01*
X168594499Y-124984499D01*
X168516147Y-125079972D01*
X168457925Y-125188897D01*
X168422073Y-125307087D01*
X168409967Y-125430000D01*
X168409967Y-126549713D01*
X168337237Y-126510838D01*
X168171922Y-126460690D01*
X168043079Y-126448000D01*
X168000000Y-126443757D01*
X167956921Y-126448000D01*
X167835758Y-126448000D01*
X167684980Y-126385546D01*
X167496226Y-126348000D01*
X167303774Y-126348000D01*
X167115020Y-126385546D01*
X166937217Y-126459194D01*
X166777199Y-126566115D01*
X166641115Y-126702199D01*
X166534194Y-126862217D01*
X166460546Y-127040020D01*
X166423000Y-127228774D01*
X166423000Y-127421226D01*
X166460546Y-127609980D01*
X166534194Y-127787783D01*
X166641115Y-127947801D01*
X166777199Y-128083885D01*
X166937217Y-128190806D01*
X167115020Y-128264454D01*
X167303774Y-128302000D01*
X167496226Y-128302000D01*
X167684980Y-128264454D01*
X167695027Y-128260292D01*
X168049412Y-128614677D01*
X168076868Y-128648132D01*
X168110323Y-128675588D01*
X168110328Y-128675593D01*
X168210407Y-128757726D01*
X168303953Y-128807727D01*
X168362764Y-128839162D01*
X168413366Y-128854512D01*
X168422073Y-128942913D01*
X168457925Y-129061103D01*
X168516147Y-129170028D01*
X168539103Y-129198000D01*
X165495415Y-129198000D01*
X165512783Y-129190806D01*
X165672801Y-129083885D01*
X165808885Y-128947801D01*
X165915806Y-128787783D01*
X165989454Y-128609980D01*
X166027000Y-128421226D01*
X166027000Y-128228774D01*
X165989454Y-128040020D01*
X165915806Y-127862217D01*
X165808885Y-127702199D01*
X165677000Y-127570314D01*
X165677000Y-127355033D01*
X165800000Y-127355033D01*
X165922913Y-127342927D01*
X166041103Y-127307075D01*
X166150028Y-127248853D01*
X166245501Y-127170501D01*
X166323853Y-127075028D01*
X166382075Y-126966103D01*
X166417927Y-126847913D01*
X166430033Y-126725000D01*
X166430033Y-121725000D01*
X166417927Y-121602087D01*
X166382075Y-121483897D01*
X166323853Y-121374972D01*
X166245501Y-121279499D01*
X166150028Y-121201147D01*
X166041103Y-121142925D01*
X165922913Y-121107073D01*
X165800000Y-121094967D01*
X164580284Y-121094967D01*
X164602080Y-121077080D01*
X164626412Y-121047431D01*
X165458437Y-120215407D01*
X165488080Y-120191080D01*
X165512409Y-120161435D01*
X165585177Y-120072767D01*
X165657327Y-119937784D01*
X165660062Y-119928768D01*
X165701757Y-119791319D01*
X165713000Y-119677166D01*
X165713000Y-119677157D01*
X165716758Y-119639001D01*
X165715308Y-119624277D01*
X165786408Y-119586273D01*
X165881881Y-119507921D01*
X165960233Y-119412448D01*
X166018455Y-119303523D01*
X166054307Y-119185333D01*
X166066413Y-119062420D01*
X166066413Y-118163260D01*
X166054307Y-118040347D01*
X166018455Y-117922157D01*
X165985766Y-117861000D01*
X166018455Y-117799843D01*
X166054307Y-117681653D01*
X166066413Y-117558740D01*
X166066413Y-116659580D01*
X166054307Y-116536667D01*
X166018455Y-116418477D01*
X165960233Y-116309552D01*
X165881881Y-116214079D01*
X165786408Y-116135727D01*
X165677483Y-116077505D01*
X165559293Y-116041653D01*
X165436380Y-116029547D01*
X165184036Y-116029547D01*
X164897000Y-115742512D01*
X164897000Y-115732774D01*
X164859454Y-115544020D01*
X164785806Y-115366217D01*
X164678885Y-115206199D01*
X164542801Y-115070115D01*
X164382783Y-114963194D01*
X164204980Y-114889546D01*
X164016226Y-114852000D01*
X163823774Y-114852000D01*
X163635020Y-114889546D01*
X163457217Y-114963194D01*
X163297199Y-115070115D01*
X163161115Y-115206199D01*
X163054194Y-115366217D01*
X162980546Y-115544020D01*
X162943000Y-115732774D01*
X162943000Y-115925226D01*
X162963751Y-116029547D01*
X162911620Y-116029547D01*
X162860274Y-116034604D01*
X162777670Y-115952000D01*
X161978840Y-115952000D01*
X161978840Y-115972000D01*
X161724840Y-115972000D01*
X161724840Y-115952000D01*
X161704840Y-115952000D01*
X161704840Y-115698000D01*
X161724840Y-115698000D01*
X161724840Y-114848370D01*
X161978840Y-114848370D01*
X161978840Y-115698000D01*
X162777670Y-115698000D01*
X162936420Y-115539250D01*
X162939492Y-115324620D01*
X162927232Y-115200138D01*
X162890922Y-115080440D01*
X162831957Y-114970126D01*
X162752605Y-114873435D01*
X162655914Y-114794083D01*
X162545600Y-114735118D01*
X162425902Y-114698808D01*
X162301420Y-114686548D01*
X162137590Y-114689620D01*
X161978840Y-114848370D01*
X161724840Y-114848370D01*
X161566090Y-114689620D01*
X161402260Y-114686548D01*
X161277778Y-114698808D01*
X161158080Y-114735118D01*
X161091514Y-114770699D01*
X161038843Y-114742545D01*
X160920653Y-114706693D01*
X160797740Y-114694587D01*
X159898580Y-114694587D01*
X159775667Y-114706693D01*
X159657477Y-114742545D01*
X159548552Y-114800767D01*
X159453079Y-114879119D01*
X159374727Y-114974592D01*
X159316505Y-115083517D01*
X159280653Y-115201707D01*
X159268547Y-115324620D01*
X159268547Y-115570160D01*
X159184980Y-115535546D01*
X158996226Y-115498000D01*
X158803774Y-115498000D01*
X158615020Y-115535546D01*
X158437217Y-115609194D01*
X158277199Y-115716115D01*
X158165492Y-115827822D01*
X158062783Y-115759194D01*
X157884980Y-115685546D01*
X157696226Y-115648000D01*
X157503774Y-115648000D01*
X157315020Y-115685546D01*
X157137217Y-115759194D01*
X156977199Y-115866115D01*
X156841115Y-116002199D01*
X156734194Y-116162217D01*
X156660546Y-116340020D01*
X156623000Y-116528774D01*
X156623000Y-116721226D01*
X156660546Y-116909980D01*
X156734194Y-117087783D01*
X156841115Y-117247801D01*
X156977199Y-117383885D01*
X157137217Y-117490806D01*
X157315020Y-117564454D01*
X157503774Y-117602000D01*
X157548867Y-117602000D01*
X157623320Y-117676454D01*
X157623321Y-117858329D01*
X157609734Y-117903118D01*
X157598860Y-118013523D01*
X157598860Y-118315860D01*
X157198430Y-118315860D01*
X157052707Y-118355229D01*
X156917465Y-118422271D01*
X156797900Y-118514409D01*
X156698608Y-118628103D01*
X156623405Y-118758983D01*
X156575320Y-118956514D01*
X156724720Y-119075320D01*
X156575320Y-119194126D01*
X156611198Y-119341511D01*
X156584844Y-119428388D01*
X156570335Y-119575700D01*
X156584844Y-119723012D01*
X156616052Y-119825890D01*
X156584844Y-119928768D01*
X156570335Y-120076080D01*
X156584844Y-120223392D01*
X156615666Y-120325000D01*
X156584844Y-120426608D01*
X156570335Y-120573920D01*
X156584844Y-120721232D01*
X156616052Y-120824110D01*
X156584844Y-120926988D01*
X156570335Y-121074300D01*
X156584844Y-121221612D01*
X156616052Y-121324490D01*
X156584844Y-121427368D01*
X156570335Y-121574680D01*
X156584844Y-121721992D01*
X156627813Y-121863642D01*
X156697591Y-121994188D01*
X156791497Y-122108613D01*
X156905922Y-122202519D01*
X157036468Y-122272297D01*
X157178118Y-122315266D01*
X157288523Y-122326140D01*
X157598860Y-122326140D01*
X157598860Y-122568415D01*
X157496226Y-122548000D01*
X157303774Y-122548000D01*
X157115020Y-122585546D01*
X156937217Y-122659194D01*
X156777199Y-122766115D01*
X156641115Y-122902199D01*
X156534194Y-123062217D01*
X156460546Y-123240020D01*
X156423000Y-123428774D01*
X156423000Y-123560489D01*
X156349592Y-123599727D01*
X156254119Y-123678079D01*
X156175767Y-123773552D01*
X156117545Y-123882477D01*
X156081693Y-124000667D01*
X156069587Y-124123580D01*
X156069587Y-125022740D01*
X156081693Y-125145653D01*
X156117545Y-125263843D01*
X156145699Y-125316514D01*
X156110118Y-125383080D01*
X156073808Y-125502778D01*
X156061548Y-125627260D01*
X156064620Y-125791090D01*
X156223370Y-125949840D01*
X157073000Y-125949840D01*
X157073000Y-125929840D01*
X157327000Y-125929840D01*
X157327000Y-125949840D01*
X158673000Y-125949840D01*
X158673000Y-125929840D01*
X158927000Y-125929840D01*
X158927000Y-125949840D01*
X160273000Y-125949840D01*
X160273000Y-125929840D01*
X160527000Y-125929840D01*
X160527000Y-125949840D01*
X160547000Y-125949840D01*
X160547000Y-126203840D01*
X160527000Y-126203840D01*
X160527000Y-127002670D01*
X160677811Y-127153481D01*
X160711998Y-127266180D01*
X160770963Y-127376494D01*
X160850315Y-127473185D01*
X160947006Y-127552537D01*
X161057320Y-127611502D01*
X161177018Y-127647812D01*
X161301500Y-127660072D01*
X161714250Y-127657000D01*
X161873000Y-127498250D01*
X161873000Y-126704500D01*
X161853000Y-126704500D01*
X161853000Y-126450500D01*
X161873000Y-126450500D01*
X161873000Y-126430500D01*
X162127000Y-126430500D01*
X162127000Y-126450500D01*
X162147000Y-126450500D01*
X162147000Y-126704500D01*
X162127000Y-126704500D01*
X162127000Y-127498250D01*
X162285750Y-127657000D01*
X162698500Y-127660072D01*
X162822982Y-127647812D01*
X162942680Y-127611502D01*
X163052994Y-127552537D01*
X163149685Y-127473185D01*
X163229037Y-127376494D01*
X163288002Y-127266180D01*
X163324312Y-127146482D01*
X163325434Y-127135085D01*
X163354499Y-127170501D01*
X163449972Y-127248853D01*
X163558897Y-127307075D01*
X163677087Y-127342927D01*
X163800000Y-127355033D01*
X163832711Y-127355033D01*
X163845700Y-127486912D01*
X163895848Y-127652226D01*
X163923000Y-127703024D01*
X163923000Y-128031921D01*
X163918757Y-128075000D01*
X163935690Y-128246922D01*
X163985838Y-128412236D01*
X164067274Y-128564592D01*
X164116684Y-128624799D01*
X164184194Y-128787783D01*
X164291115Y-128947801D01*
X164427199Y-129083885D01*
X164587217Y-129190806D01*
X164604585Y-129198000D01*
X152277000Y-129198000D01*
X152277000Y-126526420D01*
X156061548Y-126526420D01*
X156073808Y-126650902D01*
X156110118Y-126770600D01*
X156169083Y-126880914D01*
X156248435Y-126977605D01*
X156345126Y-127056957D01*
X156455440Y-127115922D01*
X156575138Y-127152232D01*
X156699620Y-127164492D01*
X156914250Y-127161420D01*
X157073000Y-127002670D01*
X157073000Y-126203840D01*
X157327000Y-126203840D01*
X157327000Y-127002670D01*
X157485750Y-127161420D01*
X157700380Y-127164492D01*
X157824862Y-127152232D01*
X157944560Y-127115922D01*
X158000000Y-127086288D01*
X158055440Y-127115922D01*
X158175138Y-127152232D01*
X158299620Y-127164492D01*
X158514250Y-127161420D01*
X158673000Y-127002670D01*
X158673000Y-126203840D01*
X158927000Y-126203840D01*
X158927000Y-127002670D01*
X159085750Y-127161420D01*
X159300380Y-127164492D01*
X159424862Y-127152232D01*
X159544560Y-127115922D01*
X159600000Y-127086288D01*
X159655440Y-127115922D01*
X159775138Y-127152232D01*
X159899620Y-127164492D01*
X160114250Y-127161420D01*
X160273000Y-127002670D01*
X160273000Y-126203840D01*
X158927000Y-126203840D01*
X158673000Y-126203840D01*
X157327000Y-126203840D01*
X157073000Y-126203840D01*
X156223370Y-126203840D01*
X156064620Y-126362590D01*
X156061548Y-126526420D01*
X152277000Y-126526420D01*
X152277000Y-120135207D01*
X152673000Y-120135207D01*
X152673000Y-120514793D01*
X152747053Y-120887085D01*
X152892315Y-121237777D01*
X153103201Y-121553391D01*
X153371609Y-121821799D01*
X153687223Y-122032685D01*
X154037915Y-122177947D01*
X154410207Y-122252000D01*
X154789793Y-122252000D01*
X155162085Y-122177947D01*
X155512777Y-122032685D01*
X155828391Y-121821799D01*
X156096799Y-121553391D01*
X156307685Y-121237777D01*
X156452947Y-120887085D01*
X156527000Y-120514793D01*
X156527000Y-120135207D01*
X156452947Y-119762915D01*
X156307685Y-119412223D01*
X156096799Y-119096609D01*
X155828391Y-118828201D01*
X155512777Y-118617315D01*
X155162085Y-118472053D01*
X154789793Y-118398000D01*
X154410207Y-118398000D01*
X154037915Y-118472053D01*
X153687223Y-118617315D01*
X153371609Y-118828201D01*
X153103201Y-119096609D01*
X152892315Y-119412223D01*
X152747053Y-119762915D01*
X152673000Y-120135207D01*
X152277000Y-120135207D01*
X152277000Y-113002000D01*
X185273000Y-113002000D01*
X185273000Y-129198000D01*
G37*
G04 #@! TD.AperFunction*
D28*
X160601906Y-119311721D02*
X160609158Y-119341511D01*
X160582804Y-119428388D01*
X160568295Y-119575700D01*
X160582804Y-119723012D01*
X160614012Y-119825890D01*
X160582804Y-119928768D01*
X160568295Y-120076080D01*
X160582804Y-120223392D01*
X160613626Y-120325000D01*
X160582804Y-120426608D01*
X160568295Y-120573920D01*
X160582804Y-120721232D01*
X160614012Y-120824110D01*
X160582804Y-120926988D01*
X160568295Y-121074300D01*
X160582804Y-121221612D01*
X160614012Y-121324490D01*
X160611382Y-121333158D01*
X160468106Y-121298280D01*
X160349300Y-121447680D01*
X160230494Y-121298280D01*
X160083109Y-121334158D01*
X159996231Y-121307804D01*
X159848920Y-121293295D01*
X159701608Y-121307804D01*
X159615862Y-121333815D01*
X159469886Y-121298280D01*
X159351080Y-121447680D01*
X159232274Y-121298280D01*
X159084889Y-121334158D01*
X158998011Y-121307804D01*
X158850700Y-121293295D01*
X158703388Y-121307804D01*
X158600510Y-121339012D01*
X158589368Y-121335632D01*
X158585988Y-121324490D01*
X158617196Y-121221612D01*
X158631705Y-121074300D01*
X158617196Y-120926988D01*
X158585988Y-120824110D01*
X158617196Y-120721232D01*
X158631705Y-120573920D01*
X158617196Y-120426608D01*
X158586374Y-120325000D01*
X158617196Y-120223392D01*
X158631705Y-120076080D01*
X158617196Y-119928768D01*
X158585988Y-119825890D01*
X158617196Y-119723012D01*
X158631705Y-119575700D01*
X158617196Y-119428388D01*
X158590842Y-119341511D01*
X158598094Y-119311721D01*
X158600510Y-119310988D01*
X158703388Y-119342196D01*
X158850700Y-119356705D01*
X158998011Y-119342196D01*
X159100890Y-119310988D01*
X159203768Y-119342196D01*
X159351080Y-119356705D01*
X159498391Y-119342196D01*
X159600000Y-119311373D01*
X159701608Y-119342196D01*
X159848920Y-119356705D01*
X159996231Y-119342196D01*
X160099110Y-119310988D01*
X160201988Y-119342196D01*
X160349300Y-119356705D01*
X160496611Y-119342196D01*
X160599490Y-119310988D01*
X160601906Y-119311721D01*
G04 #@! TA.AperFunction,Conductor*
D29*
G36*
X160601906Y-119311721D02*
G01*
X160609158Y-119341511D01*
X160582804Y-119428388D01*
X160568295Y-119575700D01*
X160582804Y-119723012D01*
X160614012Y-119825890D01*
X160582804Y-119928768D01*
X160568295Y-120076080D01*
X160582804Y-120223392D01*
X160613626Y-120325000D01*
X160582804Y-120426608D01*
X160568295Y-120573920D01*
X160582804Y-120721232D01*
X160614012Y-120824110D01*
X160582804Y-120926988D01*
X160568295Y-121074300D01*
X160582804Y-121221612D01*
X160614012Y-121324490D01*
X160611382Y-121333158D01*
X160468106Y-121298280D01*
X160349300Y-121447680D01*
X160230494Y-121298280D01*
X160083109Y-121334158D01*
X159996231Y-121307804D01*
X159848920Y-121293295D01*
X159701608Y-121307804D01*
X159615862Y-121333815D01*
X159469886Y-121298280D01*
X159351080Y-121447680D01*
X159232274Y-121298280D01*
X159084889Y-121334158D01*
X158998011Y-121307804D01*
X158850700Y-121293295D01*
X158703388Y-121307804D01*
X158600510Y-121339012D01*
X158589368Y-121335632D01*
X158585988Y-121324490D01*
X158617196Y-121221612D01*
X158631705Y-121074300D01*
X158617196Y-120926988D01*
X158585988Y-120824110D01*
X158617196Y-120721232D01*
X158631705Y-120573920D01*
X158617196Y-120426608D01*
X158586374Y-120325000D01*
X158617196Y-120223392D01*
X158631705Y-120076080D01*
X158617196Y-119928768D01*
X158585988Y-119825890D01*
X158617196Y-119723012D01*
X158631705Y-119575700D01*
X158617196Y-119428388D01*
X158590842Y-119341511D01*
X158598094Y-119311721D01*
X158600510Y-119310988D01*
X158703388Y-119342196D01*
X158850700Y-119356705D01*
X158998011Y-119342196D01*
X159100890Y-119310988D01*
X159203768Y-119342196D01*
X159351080Y-119356705D01*
X159498391Y-119342196D01*
X159600000Y-119311373D01*
X159701608Y-119342196D01*
X159848920Y-119356705D01*
X159996231Y-119342196D01*
X160099110Y-119310988D01*
X160201988Y-119342196D01*
X160349300Y-119356705D01*
X160496611Y-119342196D01*
X160599490Y-119310988D01*
X160601906Y-119311721D01*
G37*
G04 #@! TD.AperFunction*
D30*
X185373000Y-108973000D02*
X176771246Y-108973000D01*
X176790537Y-108949494D01*
X176849502Y-108839180D01*
X176885812Y-108719482D01*
X176898072Y-108595000D01*
X176896130Y-107703774D01*
X178623000Y-107703774D01*
X178623000Y-107896226D01*
X178660546Y-108084980D01*
X178734194Y-108262783D01*
X178841115Y-108422801D01*
X178977199Y-108558885D01*
X179137217Y-108665806D01*
X179315020Y-108739454D01*
X179503774Y-108777000D01*
X179696226Y-108777000D01*
X179884980Y-108739454D01*
X180062783Y-108665806D01*
X180222801Y-108558885D01*
X180358885Y-108422801D01*
X180446490Y-108291691D01*
X180537238Y-108264163D01*
X180689593Y-108182728D01*
X180823134Y-108073134D01*
X180850598Y-108039668D01*
X181089665Y-107800601D01*
X181123133Y-107773135D01*
X181232727Y-107639594D01*
X181314162Y-107487239D01*
X181352636Y-107360408D01*
X181364310Y-107321925D01*
X181381243Y-107150002D01*
X181379276Y-107130033D01*
X181500000Y-107130033D01*
X181622913Y-107117927D01*
X181741103Y-107082075D01*
X181850028Y-107023853D01*
X181945501Y-106945501D01*
X182023853Y-106850028D01*
X182082075Y-106741103D01*
X182117927Y-106622913D01*
X182130033Y-106500000D01*
X182130033Y-101949682D01*
X182137915Y-101952947D01*
X182510207Y-102027000D01*
X182889793Y-102027000D01*
X183262085Y-101952947D01*
X183612777Y-101807685D01*
X183928391Y-101596799D01*
X184196799Y-101328391D01*
X184407685Y-101012777D01*
X184552947Y-100662085D01*
X184627000Y-100289793D01*
X184627000Y-99910207D01*
X184552947Y-99537915D01*
X184407685Y-99187223D01*
X184196799Y-98871609D01*
X183928391Y-98603201D01*
X183612777Y-98392315D01*
X183262085Y-98247053D01*
X182889793Y-98173000D01*
X182510207Y-98173000D01*
X182137915Y-98247053D01*
X181787223Y-98392315D01*
X181471609Y-98603201D01*
X181203201Y-98871609D01*
X180992315Y-99187223D01*
X180847053Y-99537915D01*
X180773000Y-99910207D01*
X180773000Y-100289793D01*
X180847053Y-100662085D01*
X180933161Y-100869967D01*
X179500000Y-100869967D01*
X179377087Y-100882073D01*
X179258897Y-100917925D01*
X179149972Y-100976147D01*
X179054499Y-101054499D01*
X178976147Y-101149972D01*
X178917925Y-101258897D01*
X178882073Y-101377087D01*
X178869967Y-101500000D01*
X178869967Y-106500000D01*
X178882073Y-106622913D01*
X178917925Y-106741103D01*
X178976147Y-106850028D01*
X179054499Y-106945501D01*
X179084028Y-106969734D01*
X178977199Y-107041115D01*
X178841115Y-107177199D01*
X178734194Y-107337217D01*
X178660546Y-107515020D01*
X178623000Y-107703774D01*
X176896130Y-107703774D01*
X176895000Y-107185750D01*
X176736250Y-107027000D01*
X175827000Y-107027000D01*
X175827000Y-107047000D01*
X175573000Y-107047000D01*
X175573000Y-107027000D01*
X175553000Y-107027000D01*
X175553000Y-106773000D01*
X175573000Y-106773000D01*
X175573000Y-104728750D01*
X175827000Y-104728750D01*
X175827000Y-106773000D01*
X176736250Y-106773000D01*
X176895000Y-106614250D01*
X176898072Y-105205000D01*
X176885812Y-105080518D01*
X176849502Y-104960820D01*
X176790537Y-104850506D01*
X176711185Y-104753815D01*
X176614494Y-104674463D01*
X176504180Y-104615498D01*
X176384482Y-104579188D01*
X176260000Y-104566928D01*
X175985750Y-104570000D01*
X175827000Y-104728750D01*
X175573000Y-104728750D01*
X175414250Y-104570000D01*
X175140000Y-104566928D01*
X175015518Y-104579188D01*
X174895820Y-104615498D01*
X174785506Y-104674463D01*
X174693695Y-104749810D01*
X174652000Y-104715592D01*
X174652000Y-104313126D01*
X174669175Y-104320240D01*
X174954528Y-104377000D01*
X175245472Y-104377000D01*
X175530825Y-104320240D01*
X175799622Y-104208901D01*
X176041533Y-104047261D01*
X176247261Y-103841533D01*
X176408901Y-103599622D01*
X176520240Y-103330825D01*
X176577000Y-103045472D01*
X176577000Y-102754528D01*
X176520240Y-102469175D01*
X176408901Y-102200378D01*
X176247261Y-101958467D01*
X176041533Y-101752739D01*
X175799622Y-101591099D01*
X175530825Y-101479760D01*
X175245472Y-101423000D01*
X174954528Y-101423000D01*
X174669175Y-101479760D01*
X174400378Y-101591099D01*
X174158467Y-101752739D01*
X173952739Y-101958467D01*
X173791099Y-102200378D01*
X173679760Y-102469175D01*
X173674131Y-102497473D01*
X173584980Y-102460546D01*
X173396226Y-102423000D01*
X173203774Y-102423000D01*
X173015020Y-102460546D01*
X172837217Y-102534194D01*
X172700000Y-102625880D01*
X172562783Y-102534194D01*
X172384980Y-102460546D01*
X172196226Y-102423000D01*
X172003774Y-102423000D01*
X171815020Y-102460546D01*
X171637217Y-102534194D01*
X171633647Y-102536579D01*
X171620240Y-102469175D01*
X171508901Y-102200378D01*
X171347261Y-101958467D01*
X171141533Y-101752739D01*
X170899622Y-101591099D01*
X170630825Y-101479760D01*
X170345472Y-101423000D01*
X170054528Y-101423000D01*
X169769175Y-101479760D01*
X169500378Y-101591099D01*
X169258467Y-101752739D01*
X169052739Y-101958467D01*
X168891099Y-102200378D01*
X168779760Y-102469175D01*
X168723000Y-102754528D01*
X168723000Y-103045472D01*
X168779760Y-103330825D01*
X168891099Y-103599622D01*
X169052739Y-103841533D01*
X169258467Y-104047261D01*
X169500378Y-104208901D01*
X169769175Y-104320240D01*
X170054528Y-104377000D01*
X170345472Y-104377000D01*
X170630825Y-104320240D01*
X170899622Y-104208901D01*
X170948001Y-104176575D01*
X170948001Y-104608030D01*
X170898897Y-104622925D01*
X170789972Y-104681147D01*
X170700000Y-104754984D01*
X170610028Y-104681147D01*
X170501103Y-104622925D01*
X170382913Y-104587073D01*
X170260000Y-104574967D01*
X169140000Y-104574967D01*
X169017087Y-104587073D01*
X168898897Y-104622925D01*
X168789972Y-104681147D01*
X168694499Y-104759499D01*
X168616147Y-104854972D01*
X168557925Y-104963897D01*
X168522073Y-105082087D01*
X168509967Y-105205000D01*
X168509967Y-106324713D01*
X168437237Y-106285838D01*
X168271922Y-106235690D01*
X168143079Y-106223000D01*
X168100000Y-106218757D01*
X168056921Y-106223000D01*
X167935758Y-106223000D01*
X167784980Y-106160546D01*
X167596226Y-106123000D01*
X167403774Y-106123000D01*
X167215020Y-106160546D01*
X167037217Y-106234194D01*
X166877199Y-106341115D01*
X166741115Y-106477199D01*
X166634194Y-106637217D01*
X166560546Y-106815020D01*
X166523000Y-107003774D01*
X166523000Y-107196226D01*
X166560546Y-107384980D01*
X166634194Y-107562783D01*
X166741115Y-107722801D01*
X166877199Y-107858885D01*
X167037217Y-107965806D01*
X167215020Y-108039454D01*
X167403774Y-108077000D01*
X167596226Y-108077000D01*
X167784980Y-108039454D01*
X167795027Y-108035292D01*
X168149412Y-108389677D01*
X168176868Y-108423132D01*
X168210323Y-108450588D01*
X168210328Y-108450593D01*
X168310407Y-108532726D01*
X168403953Y-108582727D01*
X168462764Y-108614162D01*
X168513366Y-108629512D01*
X168522073Y-108717913D01*
X168557925Y-108836103D01*
X168616147Y-108945028D01*
X168639103Y-108973000D01*
X165595415Y-108973000D01*
X165612783Y-108965806D01*
X165772801Y-108858885D01*
X165908885Y-108722801D01*
X166015806Y-108562783D01*
X166089454Y-108384980D01*
X166127000Y-108196226D01*
X166127000Y-108003774D01*
X166089454Y-107815020D01*
X166015806Y-107637217D01*
X165908885Y-107477199D01*
X165777000Y-107345314D01*
X165777000Y-107130033D01*
X165900000Y-107130033D01*
X166022913Y-107117927D01*
X166141103Y-107082075D01*
X166250028Y-107023853D01*
X166345501Y-106945501D01*
X166423853Y-106850028D01*
X166482075Y-106741103D01*
X166517927Y-106622913D01*
X166530033Y-106500000D01*
X166530033Y-101500000D01*
X166517927Y-101377087D01*
X166482075Y-101258897D01*
X166423853Y-101149972D01*
X166345501Y-101054499D01*
X166250028Y-100976147D01*
X166141103Y-100917925D01*
X166022913Y-100882073D01*
X165900000Y-100869967D01*
X164680284Y-100869967D01*
X164702080Y-100852080D01*
X164726412Y-100822431D01*
X165558437Y-99990407D01*
X165588080Y-99966080D01*
X165612409Y-99936435D01*
X165685177Y-99847767D01*
X165757327Y-99712784D01*
X165760062Y-99703768D01*
X165801757Y-99566319D01*
X165813000Y-99452166D01*
X165813000Y-99452157D01*
X165816758Y-99414001D01*
X165815308Y-99399277D01*
X165886408Y-99361273D01*
X165981881Y-99282921D01*
X166060233Y-99187448D01*
X166118455Y-99078523D01*
X166154307Y-98960333D01*
X166166413Y-98837420D01*
X166166413Y-97938260D01*
X166154307Y-97815347D01*
X166118455Y-97697157D01*
X166085766Y-97636000D01*
X166118455Y-97574843D01*
X166154307Y-97456653D01*
X166166413Y-97333740D01*
X166166413Y-96434580D01*
X166154307Y-96311667D01*
X166118455Y-96193477D01*
X166060233Y-96084552D01*
X165981881Y-95989079D01*
X165886408Y-95910727D01*
X165777483Y-95852505D01*
X165659293Y-95816653D01*
X165536380Y-95804547D01*
X165284036Y-95804547D01*
X164997000Y-95517512D01*
X164997000Y-95507774D01*
X164959454Y-95319020D01*
X164885806Y-95141217D01*
X164778885Y-94981199D01*
X164642801Y-94845115D01*
X164482783Y-94738194D01*
X164304980Y-94664546D01*
X164116226Y-94627000D01*
X163923774Y-94627000D01*
X163735020Y-94664546D01*
X163557217Y-94738194D01*
X163397199Y-94845115D01*
X163261115Y-94981199D01*
X163154194Y-95141217D01*
X163080546Y-95319020D01*
X163043000Y-95507774D01*
X163043000Y-95700226D01*
X163063751Y-95804547D01*
X163011620Y-95804547D01*
X162960274Y-95809604D01*
X162877670Y-95727000D01*
X162078840Y-95727000D01*
X162078840Y-95747000D01*
X161824840Y-95747000D01*
X161824840Y-95727000D01*
X161804840Y-95727000D01*
X161804840Y-95473000D01*
X161824840Y-95473000D01*
X161824840Y-94623370D01*
X162078840Y-94623370D01*
X162078840Y-95473000D01*
X162877670Y-95473000D01*
X163036420Y-95314250D01*
X163039492Y-95099620D01*
X163027232Y-94975138D01*
X162990922Y-94855440D01*
X162931957Y-94745126D01*
X162852605Y-94648435D01*
X162755914Y-94569083D01*
X162645600Y-94510118D01*
X162525902Y-94473808D01*
X162401420Y-94461548D01*
X162237590Y-94464620D01*
X162078840Y-94623370D01*
X161824840Y-94623370D01*
X161666090Y-94464620D01*
X161502260Y-94461548D01*
X161377778Y-94473808D01*
X161258080Y-94510118D01*
X161191514Y-94545699D01*
X161138843Y-94517545D01*
X161020653Y-94481693D01*
X160897740Y-94469587D01*
X159998580Y-94469587D01*
X159875667Y-94481693D01*
X159757477Y-94517545D01*
X159648552Y-94575767D01*
X159553079Y-94654119D01*
X159474727Y-94749592D01*
X159416505Y-94858517D01*
X159380653Y-94976707D01*
X159368547Y-95099620D01*
X159368547Y-95345160D01*
X159284980Y-95310546D01*
X159096226Y-95273000D01*
X158903774Y-95273000D01*
X158715020Y-95310546D01*
X158537217Y-95384194D01*
X158377199Y-95491115D01*
X158265492Y-95602822D01*
X158162783Y-95534194D01*
X157984980Y-95460546D01*
X157796226Y-95423000D01*
X157603774Y-95423000D01*
X157415020Y-95460546D01*
X157237217Y-95534194D01*
X157077199Y-95641115D01*
X156941115Y-95777199D01*
X156834194Y-95937217D01*
X156760546Y-96115020D01*
X156723000Y-96303774D01*
X156723000Y-96496226D01*
X156760546Y-96684980D01*
X156834194Y-96862783D01*
X156941115Y-97022801D01*
X157077199Y-97158885D01*
X157237217Y-97265806D01*
X157415020Y-97339454D01*
X157603774Y-97377000D01*
X157648867Y-97377000D01*
X157723320Y-97451454D01*
X157723321Y-97633329D01*
X157709734Y-97678118D01*
X157698860Y-97788523D01*
X157698860Y-98090860D01*
X157298430Y-98090860D01*
X157152707Y-98130229D01*
X157017465Y-98197271D01*
X156897900Y-98289409D01*
X156798608Y-98403103D01*
X156723405Y-98533983D01*
X156675320Y-98731514D01*
X156824720Y-98850320D01*
X156675320Y-98969126D01*
X156711198Y-99116511D01*
X156684844Y-99203388D01*
X156670335Y-99350700D01*
X156684844Y-99498012D01*
X156716052Y-99600890D01*
X156684844Y-99703768D01*
X156670335Y-99851080D01*
X156684844Y-99998392D01*
X156715666Y-100100000D01*
X156684844Y-100201608D01*
X156670335Y-100348920D01*
X156684844Y-100496232D01*
X156716052Y-100599110D01*
X156684844Y-100701988D01*
X156670335Y-100849300D01*
X156684844Y-100996612D01*
X156716052Y-101099490D01*
X156684844Y-101202368D01*
X156670335Y-101349680D01*
X156684844Y-101496992D01*
X156727813Y-101638642D01*
X156797591Y-101769188D01*
X156891497Y-101883613D01*
X157005922Y-101977519D01*
X157136468Y-102047297D01*
X157278118Y-102090266D01*
X157388523Y-102101140D01*
X157698860Y-102101140D01*
X157698860Y-102343415D01*
X157596226Y-102323000D01*
X157403774Y-102323000D01*
X157215020Y-102360546D01*
X157037217Y-102434194D01*
X156877199Y-102541115D01*
X156741115Y-102677199D01*
X156634194Y-102837217D01*
X156560546Y-103015020D01*
X156523000Y-103203774D01*
X156523000Y-103335489D01*
X156449592Y-103374727D01*
X156354119Y-103453079D01*
X156275767Y-103548552D01*
X156217545Y-103657477D01*
X156181693Y-103775667D01*
X156169587Y-103898580D01*
X156169587Y-104797740D01*
X156181693Y-104920653D01*
X156217545Y-105038843D01*
X156245699Y-105091514D01*
X156210118Y-105158080D01*
X156173808Y-105277778D01*
X156161548Y-105402260D01*
X156164620Y-105566090D01*
X156323370Y-105724840D01*
X157173000Y-105724840D01*
X157173000Y-105704840D01*
X157427000Y-105704840D01*
X157427000Y-105724840D01*
X158773000Y-105724840D01*
X158773000Y-105704840D01*
X159027000Y-105704840D01*
X159027000Y-105724840D01*
X160373000Y-105724840D01*
X160373000Y-105704840D01*
X160627000Y-105704840D01*
X160627000Y-105724840D01*
X160647000Y-105724840D01*
X160647000Y-105978840D01*
X160627000Y-105978840D01*
X160627000Y-106777670D01*
X160777811Y-106928481D01*
X160811998Y-107041180D01*
X160870963Y-107151494D01*
X160950315Y-107248185D01*
X161047006Y-107327537D01*
X161157320Y-107386502D01*
X161277018Y-107422812D01*
X161401500Y-107435072D01*
X161814250Y-107432000D01*
X161973000Y-107273250D01*
X161973000Y-106479500D01*
X161953000Y-106479500D01*
X161953000Y-106225500D01*
X161973000Y-106225500D01*
X161973000Y-106205500D01*
X162227000Y-106205500D01*
X162227000Y-106225500D01*
X162247000Y-106225500D01*
X162247000Y-106479500D01*
X162227000Y-106479500D01*
X162227000Y-107273250D01*
X162385750Y-107432000D01*
X162798500Y-107435072D01*
X162922982Y-107422812D01*
X163042680Y-107386502D01*
X163152994Y-107327537D01*
X163249685Y-107248185D01*
X163329037Y-107151494D01*
X163388002Y-107041180D01*
X163424312Y-106921482D01*
X163425434Y-106910085D01*
X163454499Y-106945501D01*
X163549972Y-107023853D01*
X163658897Y-107082075D01*
X163777087Y-107117927D01*
X163900000Y-107130033D01*
X163932711Y-107130033D01*
X163945700Y-107261912D01*
X163995848Y-107427226D01*
X164023000Y-107478024D01*
X164023000Y-107806921D01*
X164018757Y-107850000D01*
X164035690Y-108021922D01*
X164085838Y-108187236D01*
X164167274Y-108339592D01*
X164216684Y-108399799D01*
X164284194Y-108562783D01*
X164391115Y-108722801D01*
X164527199Y-108858885D01*
X164687217Y-108965806D01*
X164704585Y-108973000D01*
X152377000Y-108973000D01*
X152377000Y-106301420D01*
X156161548Y-106301420D01*
X156173808Y-106425902D01*
X156210118Y-106545600D01*
X156269083Y-106655914D01*
X156348435Y-106752605D01*
X156445126Y-106831957D01*
X156555440Y-106890922D01*
X156675138Y-106927232D01*
X156799620Y-106939492D01*
X157014250Y-106936420D01*
X157173000Y-106777670D01*
X157173000Y-105978840D01*
X157427000Y-105978840D01*
X157427000Y-106777670D01*
X157585750Y-106936420D01*
X157800380Y-106939492D01*
X157924862Y-106927232D01*
X158044560Y-106890922D01*
X158100000Y-106861288D01*
X158155440Y-106890922D01*
X158275138Y-106927232D01*
X158399620Y-106939492D01*
X158614250Y-106936420D01*
X158773000Y-106777670D01*
X158773000Y-105978840D01*
X159027000Y-105978840D01*
X159027000Y-106777670D01*
X159185750Y-106936420D01*
X159400380Y-106939492D01*
X159524862Y-106927232D01*
X159644560Y-106890922D01*
X159700000Y-106861288D01*
X159755440Y-106890922D01*
X159875138Y-106927232D01*
X159999620Y-106939492D01*
X160214250Y-106936420D01*
X160373000Y-106777670D01*
X160373000Y-105978840D01*
X159027000Y-105978840D01*
X158773000Y-105978840D01*
X157427000Y-105978840D01*
X157173000Y-105978840D01*
X156323370Y-105978840D01*
X156164620Y-106137590D01*
X156161548Y-106301420D01*
X152377000Y-106301420D01*
X152377000Y-99910207D01*
X152773000Y-99910207D01*
X152773000Y-100289793D01*
X152847053Y-100662085D01*
X152992315Y-101012777D01*
X153203201Y-101328391D01*
X153471609Y-101596799D01*
X153787223Y-101807685D01*
X154137915Y-101952947D01*
X154510207Y-102027000D01*
X154889793Y-102027000D01*
X155262085Y-101952947D01*
X155612777Y-101807685D01*
X155928391Y-101596799D01*
X156196799Y-101328391D01*
X156407685Y-101012777D01*
X156552947Y-100662085D01*
X156627000Y-100289793D01*
X156627000Y-99910207D01*
X156552947Y-99537915D01*
X156407685Y-99187223D01*
X156196799Y-98871609D01*
X155928391Y-98603201D01*
X155612777Y-98392315D01*
X155262085Y-98247053D01*
X154889793Y-98173000D01*
X154510207Y-98173000D01*
X154137915Y-98247053D01*
X153787223Y-98392315D01*
X153471609Y-98603201D01*
X153203201Y-98871609D01*
X152992315Y-99187223D01*
X152847053Y-99537915D01*
X152773000Y-99910207D01*
X152377000Y-99910207D01*
X152377000Y-92777000D01*
X185373000Y-92777000D01*
X185373000Y-108973000D01*
G04 #@! TA.AperFunction,NonConductor*
D31*
G36*
X185373000Y-108973000D02*
G01*
X176771246Y-108973000D01*
X176790537Y-108949494D01*
X176849502Y-108839180D01*
X176885812Y-108719482D01*
X176898072Y-108595000D01*
X176896130Y-107703774D01*
X178623000Y-107703774D01*
X178623000Y-107896226D01*
X178660546Y-108084980D01*
X178734194Y-108262783D01*
X178841115Y-108422801D01*
X178977199Y-108558885D01*
X179137217Y-108665806D01*
X179315020Y-108739454D01*
X179503774Y-108777000D01*
X179696226Y-108777000D01*
X179884980Y-108739454D01*
X180062783Y-108665806D01*
X180222801Y-108558885D01*
X180358885Y-108422801D01*
X180446490Y-108291691D01*
X180537238Y-108264163D01*
X180689593Y-108182728D01*
X180823134Y-108073134D01*
X180850598Y-108039668D01*
X181089665Y-107800601D01*
X181123133Y-107773135D01*
X181232727Y-107639594D01*
X181314162Y-107487239D01*
X181352636Y-107360408D01*
X181364310Y-107321925D01*
X181381243Y-107150002D01*
X181379276Y-107130033D01*
X181500000Y-107130033D01*
X181622913Y-107117927D01*
X181741103Y-107082075D01*
X181850028Y-107023853D01*
X181945501Y-106945501D01*
X182023853Y-106850028D01*
X182082075Y-106741103D01*
X182117927Y-106622913D01*
X182130033Y-106500000D01*
X182130033Y-101949682D01*
X182137915Y-101952947D01*
X182510207Y-102027000D01*
X182889793Y-102027000D01*
X183262085Y-101952947D01*
X183612777Y-101807685D01*
X183928391Y-101596799D01*
X184196799Y-101328391D01*
X184407685Y-101012777D01*
X184552947Y-100662085D01*
X184627000Y-100289793D01*
X184627000Y-99910207D01*
X184552947Y-99537915D01*
X184407685Y-99187223D01*
X184196799Y-98871609D01*
X183928391Y-98603201D01*
X183612777Y-98392315D01*
X183262085Y-98247053D01*
X182889793Y-98173000D01*
X182510207Y-98173000D01*
X182137915Y-98247053D01*
X181787223Y-98392315D01*
X181471609Y-98603201D01*
X181203201Y-98871609D01*
X180992315Y-99187223D01*
X180847053Y-99537915D01*
X180773000Y-99910207D01*
X180773000Y-100289793D01*
X180847053Y-100662085D01*
X180933161Y-100869967D01*
X179500000Y-100869967D01*
X179377087Y-100882073D01*
X179258897Y-100917925D01*
X179149972Y-100976147D01*
X179054499Y-101054499D01*
X178976147Y-101149972D01*
X178917925Y-101258897D01*
X178882073Y-101377087D01*
X178869967Y-101500000D01*
X178869967Y-106500000D01*
X178882073Y-106622913D01*
X178917925Y-106741103D01*
X178976147Y-106850028D01*
X179054499Y-106945501D01*
X179084028Y-106969734D01*
X178977199Y-107041115D01*
X178841115Y-107177199D01*
X178734194Y-107337217D01*
X178660546Y-107515020D01*
X178623000Y-107703774D01*
X176896130Y-107703774D01*
X176895000Y-107185750D01*
X176736250Y-107027000D01*
X175827000Y-107027000D01*
X175827000Y-107047000D01*
X175573000Y-107047000D01*
X175573000Y-107027000D01*
X175553000Y-107027000D01*
X175553000Y-106773000D01*
X175573000Y-106773000D01*
X175573000Y-104728750D01*
X175827000Y-104728750D01*
X175827000Y-106773000D01*
X176736250Y-106773000D01*
X176895000Y-106614250D01*
X176898072Y-105205000D01*
X176885812Y-105080518D01*
X176849502Y-104960820D01*
X176790537Y-104850506D01*
X176711185Y-104753815D01*
X176614494Y-104674463D01*
X176504180Y-104615498D01*
X176384482Y-104579188D01*
X176260000Y-104566928D01*
X175985750Y-104570000D01*
X175827000Y-104728750D01*
X175573000Y-104728750D01*
X175414250Y-104570000D01*
X175140000Y-104566928D01*
X175015518Y-104579188D01*
X174895820Y-104615498D01*
X174785506Y-104674463D01*
X174693695Y-104749810D01*
X174652000Y-104715592D01*
X174652000Y-104313126D01*
X174669175Y-104320240D01*
X174954528Y-104377000D01*
X175245472Y-104377000D01*
X175530825Y-104320240D01*
X175799622Y-104208901D01*
X176041533Y-104047261D01*
X176247261Y-103841533D01*
X176408901Y-103599622D01*
X176520240Y-103330825D01*
X176577000Y-103045472D01*
X176577000Y-102754528D01*
X176520240Y-102469175D01*
X176408901Y-102200378D01*
X176247261Y-101958467D01*
X176041533Y-101752739D01*
X175799622Y-101591099D01*
X175530825Y-101479760D01*
X175245472Y-101423000D01*
X174954528Y-101423000D01*
X174669175Y-101479760D01*
X174400378Y-101591099D01*
X174158467Y-101752739D01*
X173952739Y-101958467D01*
X173791099Y-102200378D01*
X173679760Y-102469175D01*
X173674131Y-102497473D01*
X173584980Y-102460546D01*
X173396226Y-102423000D01*
X173203774Y-102423000D01*
X173015020Y-102460546D01*
X172837217Y-102534194D01*
X172700000Y-102625880D01*
X172562783Y-102534194D01*
X172384980Y-102460546D01*
X172196226Y-102423000D01*
X172003774Y-102423000D01*
X171815020Y-102460546D01*
X171637217Y-102534194D01*
X171633647Y-102536579D01*
X171620240Y-102469175D01*
X171508901Y-102200378D01*
X171347261Y-101958467D01*
X171141533Y-101752739D01*
X170899622Y-101591099D01*
X170630825Y-101479760D01*
X170345472Y-101423000D01*
X170054528Y-101423000D01*
X169769175Y-101479760D01*
X169500378Y-101591099D01*
X169258467Y-101752739D01*
X169052739Y-101958467D01*
X168891099Y-102200378D01*
X168779760Y-102469175D01*
X168723000Y-102754528D01*
X168723000Y-103045472D01*
X168779760Y-103330825D01*
X168891099Y-103599622D01*
X169052739Y-103841533D01*
X169258467Y-104047261D01*
X169500378Y-104208901D01*
X169769175Y-104320240D01*
X170054528Y-104377000D01*
X170345472Y-104377000D01*
X170630825Y-104320240D01*
X170899622Y-104208901D01*
X170948001Y-104176575D01*
X170948001Y-104608030D01*
X170898897Y-104622925D01*
X170789972Y-104681147D01*
X170700000Y-104754984D01*
X170610028Y-104681147D01*
X170501103Y-104622925D01*
X170382913Y-104587073D01*
X170260000Y-104574967D01*
X169140000Y-104574967D01*
X169017087Y-104587073D01*
X168898897Y-104622925D01*
X168789972Y-104681147D01*
X168694499Y-104759499D01*
X168616147Y-104854972D01*
X168557925Y-104963897D01*
X168522073Y-105082087D01*
X168509967Y-105205000D01*
X168509967Y-106324713D01*
X168437237Y-106285838D01*
X168271922Y-106235690D01*
X168143079Y-106223000D01*
X168100000Y-106218757D01*
X168056921Y-106223000D01*
X167935758Y-106223000D01*
X167784980Y-106160546D01*
X167596226Y-106123000D01*
X167403774Y-106123000D01*
X167215020Y-106160546D01*
X167037217Y-106234194D01*
X166877199Y-106341115D01*
X166741115Y-106477199D01*
X166634194Y-106637217D01*
X166560546Y-106815020D01*
X166523000Y-107003774D01*
X166523000Y-107196226D01*
X166560546Y-107384980D01*
X166634194Y-107562783D01*
X166741115Y-107722801D01*
X166877199Y-107858885D01*
X167037217Y-107965806D01*
X167215020Y-108039454D01*
X167403774Y-108077000D01*
X167596226Y-108077000D01*
X167784980Y-108039454D01*
X167795027Y-108035292D01*
X168149412Y-108389677D01*
X168176868Y-108423132D01*
X168210323Y-108450588D01*
X168210328Y-108450593D01*
X168310407Y-108532726D01*
X168403953Y-108582727D01*
X168462764Y-108614162D01*
X168513366Y-108629512D01*
X168522073Y-108717913D01*
X168557925Y-108836103D01*
X168616147Y-108945028D01*
X168639103Y-108973000D01*
X165595415Y-108973000D01*
X165612783Y-108965806D01*
X165772801Y-108858885D01*
X165908885Y-108722801D01*
X166015806Y-108562783D01*
X166089454Y-108384980D01*
X166127000Y-108196226D01*
X166127000Y-108003774D01*
X166089454Y-107815020D01*
X166015806Y-107637217D01*
X165908885Y-107477199D01*
X165777000Y-107345314D01*
X165777000Y-107130033D01*
X165900000Y-107130033D01*
X166022913Y-107117927D01*
X166141103Y-107082075D01*
X166250028Y-107023853D01*
X166345501Y-106945501D01*
X166423853Y-106850028D01*
X166482075Y-106741103D01*
X166517927Y-106622913D01*
X166530033Y-106500000D01*
X166530033Y-101500000D01*
X166517927Y-101377087D01*
X166482075Y-101258897D01*
X166423853Y-101149972D01*
X166345501Y-101054499D01*
X166250028Y-100976147D01*
X166141103Y-100917925D01*
X166022913Y-100882073D01*
X165900000Y-100869967D01*
X164680284Y-100869967D01*
X164702080Y-100852080D01*
X164726412Y-100822431D01*
X165558437Y-99990407D01*
X165588080Y-99966080D01*
X165612409Y-99936435D01*
X165685177Y-99847767D01*
X165757327Y-99712784D01*
X165760062Y-99703768D01*
X165801757Y-99566319D01*
X165813000Y-99452166D01*
X165813000Y-99452157D01*
X165816758Y-99414001D01*
X165815308Y-99399277D01*
X165886408Y-99361273D01*
X165981881Y-99282921D01*
X166060233Y-99187448D01*
X166118455Y-99078523D01*
X166154307Y-98960333D01*
X166166413Y-98837420D01*
X166166413Y-97938260D01*
X166154307Y-97815347D01*
X166118455Y-97697157D01*
X166085766Y-97636000D01*
X166118455Y-97574843D01*
X166154307Y-97456653D01*
X166166413Y-97333740D01*
X166166413Y-96434580D01*
X166154307Y-96311667D01*
X166118455Y-96193477D01*
X166060233Y-96084552D01*
X165981881Y-95989079D01*
X165886408Y-95910727D01*
X165777483Y-95852505D01*
X165659293Y-95816653D01*
X165536380Y-95804547D01*
X165284036Y-95804547D01*
X164997000Y-95517512D01*
X164997000Y-95507774D01*
X164959454Y-95319020D01*
X164885806Y-95141217D01*
X164778885Y-94981199D01*
X164642801Y-94845115D01*
X164482783Y-94738194D01*
X164304980Y-94664546D01*
X164116226Y-94627000D01*
X163923774Y-94627000D01*
X163735020Y-94664546D01*
X163557217Y-94738194D01*
X163397199Y-94845115D01*
X163261115Y-94981199D01*
X163154194Y-95141217D01*
X163080546Y-95319020D01*
X163043000Y-95507774D01*
X163043000Y-95700226D01*
X163063751Y-95804547D01*
X163011620Y-95804547D01*
X162960274Y-95809604D01*
X162877670Y-95727000D01*
X162078840Y-95727000D01*
X162078840Y-95747000D01*
X161824840Y-95747000D01*
X161824840Y-95727000D01*
X161804840Y-95727000D01*
X161804840Y-95473000D01*
X161824840Y-95473000D01*
X161824840Y-94623370D01*
X162078840Y-94623370D01*
X162078840Y-95473000D01*
X162877670Y-95473000D01*
X163036420Y-95314250D01*
X163039492Y-95099620D01*
X163027232Y-94975138D01*
X162990922Y-94855440D01*
X162931957Y-94745126D01*
X162852605Y-94648435D01*
X162755914Y-94569083D01*
X162645600Y-94510118D01*
X162525902Y-94473808D01*
X162401420Y-94461548D01*
X162237590Y-94464620D01*
X162078840Y-94623370D01*
X161824840Y-94623370D01*
X161666090Y-94464620D01*
X161502260Y-94461548D01*
X161377778Y-94473808D01*
X161258080Y-94510118D01*
X161191514Y-94545699D01*
X161138843Y-94517545D01*
X161020653Y-94481693D01*
X160897740Y-94469587D01*
X159998580Y-94469587D01*
X159875667Y-94481693D01*
X159757477Y-94517545D01*
X159648552Y-94575767D01*
X159553079Y-94654119D01*
X159474727Y-94749592D01*
X159416505Y-94858517D01*
X159380653Y-94976707D01*
X159368547Y-95099620D01*
X159368547Y-95345160D01*
X159284980Y-95310546D01*
X159096226Y-95273000D01*
X158903774Y-95273000D01*
X158715020Y-95310546D01*
X158537217Y-95384194D01*
X158377199Y-95491115D01*
X158265492Y-95602822D01*
X158162783Y-95534194D01*
X157984980Y-95460546D01*
X157796226Y-95423000D01*
X157603774Y-95423000D01*
X157415020Y-95460546D01*
X157237217Y-95534194D01*
X157077199Y-95641115D01*
X156941115Y-95777199D01*
X156834194Y-95937217D01*
X156760546Y-96115020D01*
X156723000Y-96303774D01*
X156723000Y-96496226D01*
X156760546Y-96684980D01*
X156834194Y-96862783D01*
X156941115Y-97022801D01*
X157077199Y-97158885D01*
X157237217Y-97265806D01*
X157415020Y-97339454D01*
X157603774Y-97377000D01*
X157648867Y-97377000D01*
X157723320Y-97451454D01*
X157723321Y-97633329D01*
X157709734Y-97678118D01*
X157698860Y-97788523D01*
X157698860Y-98090860D01*
X157298430Y-98090860D01*
X157152707Y-98130229D01*
X157017465Y-98197271D01*
X156897900Y-98289409D01*
X156798608Y-98403103D01*
X156723405Y-98533983D01*
X156675320Y-98731514D01*
X156824720Y-98850320D01*
X156675320Y-98969126D01*
X156711198Y-99116511D01*
X156684844Y-99203388D01*
X156670335Y-99350700D01*
X156684844Y-99498012D01*
X156716052Y-99600890D01*
X156684844Y-99703768D01*
X156670335Y-99851080D01*
X156684844Y-99998392D01*
X156715666Y-100100000D01*
X156684844Y-100201608D01*
X156670335Y-100348920D01*
X156684844Y-100496232D01*
X156716052Y-100599110D01*
X156684844Y-100701988D01*
X156670335Y-100849300D01*
X156684844Y-100996612D01*
X156716052Y-101099490D01*
X156684844Y-101202368D01*
X156670335Y-101349680D01*
X156684844Y-101496992D01*
X156727813Y-101638642D01*
X156797591Y-101769188D01*
X156891497Y-101883613D01*
X157005922Y-101977519D01*
X157136468Y-102047297D01*
X157278118Y-102090266D01*
X157388523Y-102101140D01*
X157698860Y-102101140D01*
X157698860Y-102343415D01*
X157596226Y-102323000D01*
X157403774Y-102323000D01*
X157215020Y-102360546D01*
X157037217Y-102434194D01*
X156877199Y-102541115D01*
X156741115Y-102677199D01*
X156634194Y-102837217D01*
X156560546Y-103015020D01*
X156523000Y-103203774D01*
X156523000Y-103335489D01*
X156449592Y-103374727D01*
X156354119Y-103453079D01*
X156275767Y-103548552D01*
X156217545Y-103657477D01*
X156181693Y-103775667D01*
X156169587Y-103898580D01*
X156169587Y-104797740D01*
X156181693Y-104920653D01*
X156217545Y-105038843D01*
X156245699Y-105091514D01*
X156210118Y-105158080D01*
X156173808Y-105277778D01*
X156161548Y-105402260D01*
X156164620Y-105566090D01*
X156323370Y-105724840D01*
X157173000Y-105724840D01*
X157173000Y-105704840D01*
X157427000Y-105704840D01*
X157427000Y-105724840D01*
X158773000Y-105724840D01*
X158773000Y-105704840D01*
X159027000Y-105704840D01*
X159027000Y-105724840D01*
X160373000Y-105724840D01*
X160373000Y-105704840D01*
X160627000Y-105704840D01*
X160627000Y-105724840D01*
X160647000Y-105724840D01*
X160647000Y-105978840D01*
X160627000Y-105978840D01*
X160627000Y-106777670D01*
X160777811Y-106928481D01*
X160811998Y-107041180D01*
X160870963Y-107151494D01*
X160950315Y-107248185D01*
X161047006Y-107327537D01*
X161157320Y-107386502D01*
X161277018Y-107422812D01*
X161401500Y-107435072D01*
X161814250Y-107432000D01*
X161973000Y-107273250D01*
X161973000Y-106479500D01*
X161953000Y-106479500D01*
X161953000Y-106225500D01*
X161973000Y-106225500D01*
X161973000Y-106205500D01*
X162227000Y-106205500D01*
X162227000Y-106225500D01*
X162247000Y-106225500D01*
X162247000Y-106479500D01*
X162227000Y-106479500D01*
X162227000Y-107273250D01*
X162385750Y-107432000D01*
X162798500Y-107435072D01*
X162922982Y-107422812D01*
X163042680Y-107386502D01*
X163152994Y-107327537D01*
X163249685Y-107248185D01*
X163329037Y-107151494D01*
X163388002Y-107041180D01*
X163424312Y-106921482D01*
X163425434Y-106910085D01*
X163454499Y-106945501D01*
X163549972Y-107023853D01*
X163658897Y-107082075D01*
X163777087Y-107117927D01*
X163900000Y-107130033D01*
X163932711Y-107130033D01*
X163945700Y-107261912D01*
X163995848Y-107427226D01*
X164023000Y-107478024D01*
X164023000Y-107806921D01*
X164018757Y-107850000D01*
X164035690Y-108021922D01*
X164085838Y-108187236D01*
X164167274Y-108339592D01*
X164216684Y-108399799D01*
X164284194Y-108562783D01*
X164391115Y-108722801D01*
X164527199Y-108858885D01*
X164687217Y-108965806D01*
X164704585Y-108973000D01*
X152377000Y-108973000D01*
X152377000Y-106301420D01*
X156161548Y-106301420D01*
X156173808Y-106425902D01*
X156210118Y-106545600D01*
X156269083Y-106655914D01*
X156348435Y-106752605D01*
X156445126Y-106831957D01*
X156555440Y-106890922D01*
X156675138Y-106927232D01*
X156799620Y-106939492D01*
X157014250Y-106936420D01*
X157173000Y-106777670D01*
X157173000Y-105978840D01*
X157427000Y-105978840D01*
X157427000Y-106777670D01*
X157585750Y-106936420D01*
X157800380Y-106939492D01*
X157924862Y-106927232D01*
X158044560Y-106890922D01*
X158100000Y-106861288D01*
X158155440Y-106890922D01*
X158275138Y-106927232D01*
X158399620Y-106939492D01*
X158614250Y-106936420D01*
X158773000Y-106777670D01*
X158773000Y-105978840D01*
X159027000Y-105978840D01*
X159027000Y-106777670D01*
X159185750Y-106936420D01*
X159400380Y-106939492D01*
X159524862Y-106927232D01*
X159644560Y-106890922D01*
X159700000Y-106861288D01*
X159755440Y-106890922D01*
X159875138Y-106927232D01*
X159999620Y-106939492D01*
X160214250Y-106936420D01*
X160373000Y-106777670D01*
X160373000Y-105978840D01*
X159027000Y-105978840D01*
X158773000Y-105978840D01*
X157427000Y-105978840D01*
X157173000Y-105978840D01*
X156323370Y-105978840D01*
X156164620Y-106137590D01*
X156161548Y-106301420D01*
X152377000Y-106301420D01*
X152377000Y-99910207D01*
X152773000Y-99910207D01*
X152773000Y-100289793D01*
X152847053Y-100662085D01*
X152992315Y-101012777D01*
X153203201Y-101328391D01*
X153471609Y-101596799D01*
X153787223Y-101807685D01*
X154137915Y-101952947D01*
X154510207Y-102027000D01*
X154889793Y-102027000D01*
X155262085Y-101952947D01*
X155612777Y-101807685D01*
X155928391Y-101596799D01*
X156196799Y-101328391D01*
X156407685Y-101012777D01*
X156552947Y-100662085D01*
X156627000Y-100289793D01*
X156627000Y-99910207D01*
X156552947Y-99537915D01*
X156407685Y-99187223D01*
X156196799Y-98871609D01*
X155928391Y-98603201D01*
X155612777Y-98392315D01*
X155262085Y-98247053D01*
X154889793Y-98173000D01*
X154510207Y-98173000D01*
X154137915Y-98247053D01*
X153787223Y-98392315D01*
X153471609Y-98603201D01*
X153203201Y-98871609D01*
X152992315Y-99187223D01*
X152847053Y-99537915D01*
X152773000Y-99910207D01*
X152377000Y-99910207D01*
X152377000Y-92777000D01*
X185373000Y-92777000D01*
X185373000Y-108973000D01*
G37*
G04 #@! TD.AperFunction*
D30*
X160701906Y-99086721D02*
X160709158Y-99116511D01*
X160682804Y-99203388D01*
X160668295Y-99350700D01*
X160682804Y-99498012D01*
X160714012Y-99600890D01*
X160682804Y-99703768D01*
X160668295Y-99851080D01*
X160682804Y-99998392D01*
X160713626Y-100100000D01*
X160682804Y-100201608D01*
X160668295Y-100348920D01*
X160682804Y-100496232D01*
X160714012Y-100599110D01*
X160682804Y-100701988D01*
X160668295Y-100849300D01*
X160682804Y-100996612D01*
X160714012Y-101099490D01*
X160711382Y-101108158D01*
X160568106Y-101073280D01*
X160449300Y-101222680D01*
X160330494Y-101073280D01*
X160183109Y-101109158D01*
X160096231Y-101082804D01*
X159948920Y-101068295D01*
X159801608Y-101082804D01*
X159715862Y-101108815D01*
X159569886Y-101073280D01*
X159451080Y-101222680D01*
X159332274Y-101073280D01*
X159184889Y-101109158D01*
X159098011Y-101082804D01*
X158950700Y-101068295D01*
X158803388Y-101082804D01*
X158700510Y-101114012D01*
X158689368Y-101110632D01*
X158685988Y-101099490D01*
X158717196Y-100996612D01*
X158731705Y-100849300D01*
X158717196Y-100701988D01*
X158685988Y-100599110D01*
X158717196Y-100496232D01*
X158731705Y-100348920D01*
X158717196Y-100201608D01*
X158686374Y-100100000D01*
X158717196Y-99998392D01*
X158731705Y-99851080D01*
X158717196Y-99703768D01*
X158685988Y-99600890D01*
X158717196Y-99498012D01*
X158731705Y-99350700D01*
X158717196Y-99203388D01*
X158690842Y-99116511D01*
X158698094Y-99086721D01*
X158700510Y-99085988D01*
X158803388Y-99117196D01*
X158950700Y-99131705D01*
X159098011Y-99117196D01*
X159200890Y-99085988D01*
X159303768Y-99117196D01*
X159451080Y-99131705D01*
X159598391Y-99117196D01*
X159700000Y-99086373D01*
X159801608Y-99117196D01*
X159948920Y-99131705D01*
X160096231Y-99117196D01*
X160199110Y-99085988D01*
X160301988Y-99117196D01*
X160449300Y-99131705D01*
X160596611Y-99117196D01*
X160699490Y-99085988D01*
X160701906Y-99086721D01*
G04 #@! TA.AperFunction,NonConductor*
D31*
G36*
X160701906Y-99086721D02*
G01*
X160709158Y-99116511D01*
X160682804Y-99203388D01*
X160668295Y-99350700D01*
X160682804Y-99498012D01*
X160714012Y-99600890D01*
X160682804Y-99703768D01*
X160668295Y-99851080D01*
X160682804Y-99998392D01*
X160713626Y-100100000D01*
X160682804Y-100201608D01*
X160668295Y-100348920D01*
X160682804Y-100496232D01*
X160714012Y-100599110D01*
X160682804Y-100701988D01*
X160668295Y-100849300D01*
X160682804Y-100996612D01*
X160714012Y-101099490D01*
X160711382Y-101108158D01*
X160568106Y-101073280D01*
X160449300Y-101222680D01*
X160330494Y-101073280D01*
X160183109Y-101109158D01*
X160096231Y-101082804D01*
X159948920Y-101068295D01*
X159801608Y-101082804D01*
X159715862Y-101108815D01*
X159569886Y-101073280D01*
X159451080Y-101222680D01*
X159332274Y-101073280D01*
X159184889Y-101109158D01*
X159098011Y-101082804D01*
X158950700Y-101068295D01*
X158803388Y-101082804D01*
X158700510Y-101114012D01*
X158689368Y-101110632D01*
X158685988Y-101099490D01*
X158717196Y-100996612D01*
X158731705Y-100849300D01*
X158717196Y-100701988D01*
X158685988Y-100599110D01*
X158717196Y-100496232D01*
X158731705Y-100348920D01*
X158717196Y-100201608D01*
X158686374Y-100100000D01*
X158717196Y-99998392D01*
X158731705Y-99851080D01*
X158717196Y-99703768D01*
X158685988Y-99600890D01*
X158717196Y-99498012D01*
X158731705Y-99350700D01*
X158717196Y-99203388D01*
X158690842Y-99116511D01*
X158698094Y-99086721D01*
X158700510Y-99085988D01*
X158803388Y-99117196D01*
X158950700Y-99131705D01*
X159098011Y-99117196D01*
X159200890Y-99085988D01*
X159303768Y-99117196D01*
X159451080Y-99131705D01*
X159598391Y-99117196D01*
X159700000Y-99086373D01*
X159801608Y-99117196D01*
X159948920Y-99131705D01*
X160096231Y-99117196D01*
X160199110Y-99085988D01*
X160301988Y-99117196D01*
X160449300Y-99131705D01*
X160596611Y-99117196D01*
X160699490Y-99085988D01*
X160701906Y-99086721D01*
G37*
G04 #@! TD.AperFunction*
D28*
X141850620Y-120180556D02*
X141464761Y-120646499D01*
X141444180Y-120635498D01*
X141324482Y-120599188D01*
X141200000Y-120586928D01*
X140835750Y-120590000D01*
X140677000Y-120748750D01*
X140677000Y-121748000D01*
X140697000Y-121748000D01*
X140697000Y-122002000D01*
X140677000Y-122002000D01*
X140677000Y-123001250D01*
X140835750Y-123160000D01*
X141010500Y-123161474D01*
X141010500Y-123490656D01*
X139454405Y-125046752D01*
X139424761Y-125071080D01*
X139400433Y-125100724D01*
X139400431Y-125100726D01*
X139327663Y-125189394D01*
X139255513Y-125324377D01*
X139251985Y-125336008D01*
X139213984Y-125461283D01*
X139211084Y-125470842D01*
X139196081Y-125623160D01*
X139199841Y-125661333D01*
X139199840Y-126911786D01*
X139163843Y-126892545D01*
X139045653Y-126856693D01*
X138922740Y-126844587D01*
X138023580Y-126844587D01*
X137900667Y-126856693D01*
X137782477Y-126892545D01*
X137673552Y-126950767D01*
X137578079Y-127029119D01*
X137531497Y-127085880D01*
X137409980Y-127035546D01*
X137221226Y-126998000D01*
X137028774Y-126998000D01*
X136840020Y-127035546D01*
X136662217Y-127109194D01*
X136502199Y-127216115D01*
X136366115Y-127352199D01*
X136259194Y-127512217D01*
X136185546Y-127690020D01*
X136148000Y-127878774D01*
X136148000Y-128071226D01*
X136185546Y-128259980D01*
X136259194Y-128437783D01*
X136366115Y-128597801D01*
X136502199Y-128733885D01*
X136662217Y-128840806D01*
X136840020Y-128914454D01*
X137028774Y-128952000D01*
X137221226Y-128952000D01*
X137409980Y-128914454D01*
X137531497Y-128864120D01*
X137578079Y-128920881D01*
X137673552Y-128999233D01*
X137782477Y-129057455D01*
X137900667Y-129093307D01*
X138023580Y-129105413D01*
X138922740Y-129105413D01*
X139045653Y-129093307D01*
X139163843Y-129057455D01*
X139224840Y-129024851D01*
X139224840Y-129689904D01*
X139221202Y-129726840D01*
X139224840Y-129763775D01*
X139224840Y-129763777D01*
X139235721Y-129874257D01*
X139265551Y-129972591D01*
X139278722Y-130016009D01*
X139348550Y-130146650D01*
X139387499Y-130194109D01*
X139442523Y-130261157D01*
X139471219Y-130284707D01*
X139923320Y-130736809D01*
X139923320Y-130865860D01*
X139523430Y-130865860D01*
X139377707Y-130905229D01*
X139242465Y-130972271D01*
X139122900Y-131064409D01*
X139023608Y-131178103D01*
X138948405Y-131308983D01*
X138900320Y-131506514D01*
X139049720Y-131625320D01*
X138900320Y-131744126D01*
X138936198Y-131891511D01*
X138909844Y-131978388D01*
X138895335Y-132125700D01*
X138909844Y-132273012D01*
X138941052Y-132375890D01*
X138909844Y-132478768D01*
X138895335Y-132626080D01*
X138909844Y-132773392D01*
X138940666Y-132875000D01*
X138909844Y-132976608D01*
X138895335Y-133123920D01*
X138909844Y-133271232D01*
X138941052Y-133374110D01*
X138909844Y-133476988D01*
X138895335Y-133624300D01*
X138909844Y-133771612D01*
X138941052Y-133874490D01*
X138909844Y-133977368D01*
X138895335Y-134124680D01*
X138909844Y-134271992D01*
X138952813Y-134413642D01*
X139022591Y-134544188D01*
X139116497Y-134658613D01*
X139230922Y-134752519D01*
X139361468Y-134822297D01*
X139503118Y-134865266D01*
X139613523Y-134876140D01*
X139923860Y-134876140D01*
X139923860Y-135118415D01*
X139821226Y-135098000D01*
X139628774Y-135098000D01*
X139440020Y-135135546D01*
X139262217Y-135209194D01*
X139102199Y-135316115D01*
X138966115Y-135452199D01*
X138859194Y-135612217D01*
X138785546Y-135790020D01*
X138748000Y-135978774D01*
X138748000Y-136110489D01*
X138674592Y-136149727D01*
X138579119Y-136228079D01*
X138500767Y-136323552D01*
X138442545Y-136432477D01*
X138406693Y-136550667D01*
X138394587Y-136673580D01*
X138394587Y-137572740D01*
X138406693Y-137695653D01*
X138442545Y-137813843D01*
X138470699Y-137866514D01*
X138435118Y-137933080D01*
X138398808Y-138052778D01*
X138386548Y-138177260D01*
X138389620Y-138341090D01*
X138548370Y-138499840D01*
X139398000Y-138499840D01*
X139398000Y-138479840D01*
X139652000Y-138479840D01*
X139652000Y-138499840D01*
X140998000Y-138499840D01*
X140998000Y-138479840D01*
X141252000Y-138479840D01*
X141252000Y-138499840D01*
X142598000Y-138499840D01*
X142598000Y-138479840D01*
X142852000Y-138479840D01*
X142852000Y-138499840D01*
X142872000Y-138499840D01*
X142872000Y-138753840D01*
X142852000Y-138753840D01*
X142852000Y-139552670D01*
X143002811Y-139703481D01*
X143036998Y-139816180D01*
X143095963Y-139926494D01*
X143175315Y-140023185D01*
X143272006Y-140102537D01*
X143382320Y-140161502D01*
X143502018Y-140197812D01*
X143626500Y-140210072D01*
X144039250Y-140207000D01*
X144198000Y-140048250D01*
X144198000Y-139254500D01*
X144452000Y-139254500D01*
X144452000Y-140048250D01*
X144610750Y-140207000D01*
X145023500Y-140210072D01*
X145147982Y-140197812D01*
X145267680Y-140161502D01*
X145377994Y-140102537D01*
X145474685Y-140023185D01*
X145554037Y-139926494D01*
X145613002Y-139816180D01*
X145649312Y-139696482D01*
X145661572Y-139572000D01*
X145658500Y-139413250D01*
X145499750Y-139254500D01*
X144452000Y-139254500D01*
X144198000Y-139254500D01*
X144178000Y-139254500D01*
X144178000Y-139000500D01*
X144198000Y-139000500D01*
X144198000Y-138980500D01*
X144452000Y-138980500D01*
X144452000Y-139000500D01*
X145499750Y-139000500D01*
X145658500Y-138841750D01*
X145661572Y-138683000D01*
X145649312Y-138558518D01*
X145613002Y-138438820D01*
X145554037Y-138328506D01*
X145474685Y-138231815D01*
X145399150Y-138169825D01*
X145469001Y-138112501D01*
X145547353Y-138017028D01*
X145605575Y-137908103D01*
X145641427Y-137789913D01*
X145653533Y-137667000D01*
X145653533Y-136778000D01*
X145641427Y-136655087D01*
X145605575Y-136536897D01*
X145577000Y-136483437D01*
X145577000Y-134711935D01*
X145580638Y-134674999D01*
X145571755Y-134584810D01*
X145566119Y-134527582D01*
X145523118Y-134385830D01*
X145511923Y-134364886D01*
X145453290Y-134255189D01*
X145382863Y-134169374D01*
X145359317Y-134140683D01*
X145330627Y-134117138D01*
X144944186Y-133730697D01*
X144954665Y-133624300D01*
X144940156Y-133476988D01*
X144908948Y-133374110D01*
X144940156Y-133271232D01*
X144954665Y-133123920D01*
X144940156Y-132976608D01*
X144909334Y-132875000D01*
X144940156Y-132773392D01*
X144954665Y-132626080D01*
X144940156Y-132478768D01*
X144908948Y-132375890D01*
X144940156Y-132273012D01*
X144954665Y-132125700D01*
X144940156Y-131978388D01*
X144913802Y-131891511D01*
X144949680Y-131744126D01*
X144800280Y-131625320D01*
X144949680Y-131506514D01*
X144901595Y-131308983D01*
X144826392Y-131178103D01*
X144727100Y-131064409D01*
X144607535Y-130972271D01*
X144472293Y-130905229D01*
X144326570Y-130865860D01*
X143926140Y-130865860D01*
X143926140Y-130563523D01*
X143915266Y-130453118D01*
X143872297Y-130311468D01*
X143802519Y-130180922D01*
X143740550Y-130105413D01*
X144622740Y-130105413D01*
X144745653Y-130093307D01*
X144863843Y-130057455D01*
X144916514Y-130029301D01*
X144983080Y-130064882D01*
X145102778Y-130101192D01*
X145227260Y-130113452D01*
X145391090Y-130110380D01*
X145549840Y-129951630D01*
X145549840Y-129102000D01*
X145803840Y-129102000D01*
X145803840Y-129951630D01*
X145962590Y-130110380D01*
X146126420Y-130113452D01*
X146250902Y-130101192D01*
X146370600Y-130064882D01*
X146480914Y-130005917D01*
X146577605Y-129926565D01*
X146656957Y-129829874D01*
X146715922Y-129719560D01*
X146752232Y-129599862D01*
X146764492Y-129475380D01*
X146761420Y-129260750D01*
X146602670Y-129102000D01*
X145803840Y-129102000D01*
X145549840Y-129102000D01*
X145529840Y-129102000D01*
X145529840Y-128848000D01*
X145549840Y-128848000D01*
X145549840Y-127998370D01*
X145803840Y-127998370D01*
X145803840Y-128848000D01*
X146602670Y-128848000D01*
X146761420Y-128689250D01*
X146764492Y-128474620D01*
X146752232Y-128350138D01*
X146715922Y-128230440D01*
X146656957Y-128120126D01*
X146577605Y-128023435D01*
X146480914Y-127944083D01*
X146370600Y-127885118D01*
X146250902Y-127848808D01*
X146126420Y-127836548D01*
X145962590Y-127839620D01*
X145803840Y-127998370D01*
X145549840Y-127998370D01*
X145391090Y-127839620D01*
X145227260Y-127836548D01*
X145102778Y-127848808D01*
X144983080Y-127885118D01*
X144916514Y-127920699D01*
X144863843Y-127892545D01*
X144745653Y-127856693D01*
X144713471Y-127853523D01*
X144790806Y-127737783D01*
X144864454Y-127559980D01*
X144902000Y-127371226D01*
X144902000Y-127178774D01*
X144864454Y-126990020D01*
X144790806Y-126812217D01*
X144683885Y-126652199D01*
X144547801Y-126516115D01*
X144387783Y-126409194D01*
X144209980Y-126335546D01*
X144021226Y-126298000D01*
X143828774Y-126298000D01*
X143640020Y-126335546D01*
X143462217Y-126409194D01*
X143302199Y-126516115D01*
X143166115Y-126652199D01*
X143059194Y-126812217D01*
X143045786Y-126844587D01*
X142427260Y-126844587D01*
X142304347Y-126856693D01*
X142186157Y-126892545D01*
X142150160Y-126911786D01*
X142150160Y-126748683D01*
X142959344Y-125939500D01*
X144235154Y-125939500D01*
X144284165Y-125942957D01*
X144349352Y-125934705D01*
X144414819Y-125928257D01*
X144425227Y-125925100D01*
X144436008Y-125923735D01*
X144498346Y-125902919D01*
X144561284Y-125883827D01*
X144570875Y-125878700D01*
X144581184Y-125875258D01*
X144638264Y-125842680D01*
X144696266Y-125811677D01*
X144734267Y-125780491D01*
X145359485Y-125337155D01*
X145383765Y-125324177D01*
X145421754Y-125293001D01*
X145430572Y-125286748D01*
X145451261Y-125268786D01*
X145502080Y-125227080D01*
X145508979Y-125218673D01*
X145517187Y-125211547D01*
X145557466Y-125159592D01*
X145599177Y-125108766D01*
X145604302Y-125099178D01*
X145610963Y-125090586D01*
X145640326Y-125031783D01*
X145671327Y-124973784D01*
X145674485Y-124963374D01*
X145679339Y-124953653D01*
X145696662Y-124890265D01*
X145715757Y-124827319D01*
X145716823Y-124816495D01*
X145719688Y-124806012D01*
X145724311Y-124740464D01*
X145727000Y-124713166D01*
X145727000Y-124702346D01*
X145730457Y-124653335D01*
X145727000Y-124626027D01*
X145727000Y-124298706D01*
X145765020Y-124314454D01*
X145921796Y-124345639D01*
X146373592Y-124797436D01*
X146397920Y-124827080D01*
X146427564Y-124851408D01*
X146427565Y-124851409D01*
X146516233Y-124924177D01*
X146651216Y-124996327D01*
X146797681Y-125040757D01*
X146911834Y-125052000D01*
X146911843Y-125052000D01*
X146949999Y-125055758D01*
X146988155Y-125052000D01*
X147854310Y-125052000D01*
X147987217Y-125140806D01*
X148165020Y-125214454D01*
X148353774Y-125252000D01*
X148546226Y-125252000D01*
X148734980Y-125214454D01*
X148912783Y-125140806D01*
X149045690Y-125052000D01*
X149062652Y-125052000D01*
X149065818Y-125084146D01*
X149155993Y-125381412D01*
X149302428Y-125655373D01*
X149499498Y-125895503D01*
X149739628Y-126092572D01*
X150013589Y-126239007D01*
X150310855Y-126329182D01*
X150620000Y-126359630D01*
X150929146Y-126329182D01*
X151226412Y-126239007D01*
X151500373Y-126092572D01*
X151740503Y-125895503D01*
X151762277Y-125868971D01*
X151727720Y-132054792D01*
X151521799Y-131746609D01*
X151253391Y-131478201D01*
X150937777Y-131267315D01*
X150587085Y-131122053D01*
X150214793Y-131048000D01*
X149835207Y-131048000D01*
X149462915Y-131122053D01*
X149112223Y-131267315D01*
X148796609Y-131478201D01*
X148528201Y-131746609D01*
X148317315Y-132062223D01*
X148172053Y-132412915D01*
X148098000Y-132785207D01*
X148098000Y-133164793D01*
X148172053Y-133537085D01*
X148317315Y-133887777D01*
X148528201Y-134203391D01*
X148796609Y-134471799D01*
X149112223Y-134682685D01*
X149462915Y-134827947D01*
X149835207Y-134902000D01*
X150214793Y-134902000D01*
X150587085Y-134827947D01*
X150937777Y-134682685D01*
X151253391Y-134471799D01*
X151521799Y-134203391D01*
X151717352Y-133910725D01*
X151673708Y-141723000D01*
X135527000Y-141723000D01*
X135527000Y-139076420D01*
X138386548Y-139076420D01*
X138398808Y-139200902D01*
X138435118Y-139320600D01*
X138494083Y-139430914D01*
X138573435Y-139527605D01*
X138670126Y-139606957D01*
X138780440Y-139665922D01*
X138900138Y-139702232D01*
X139024620Y-139714492D01*
X139239250Y-139711420D01*
X139398000Y-139552670D01*
X139398000Y-138753840D01*
X139652000Y-138753840D01*
X139652000Y-139552670D01*
X139810750Y-139711420D01*
X140025380Y-139714492D01*
X140149862Y-139702232D01*
X140269560Y-139665922D01*
X140325000Y-139636288D01*
X140380440Y-139665922D01*
X140500138Y-139702232D01*
X140624620Y-139714492D01*
X140839250Y-139711420D01*
X140998000Y-139552670D01*
X140998000Y-138753840D01*
X141252000Y-138753840D01*
X141252000Y-139552670D01*
X141410750Y-139711420D01*
X141625380Y-139714492D01*
X141749862Y-139702232D01*
X141869560Y-139665922D01*
X141925000Y-139636288D01*
X141980440Y-139665922D01*
X142100138Y-139702232D01*
X142224620Y-139714492D01*
X142439250Y-139711420D01*
X142598000Y-139552670D01*
X142598000Y-138753840D01*
X141252000Y-138753840D01*
X140998000Y-138753840D01*
X139652000Y-138753840D01*
X139398000Y-138753840D01*
X138548370Y-138753840D01*
X138389620Y-138912590D01*
X138386548Y-139076420D01*
X135527000Y-139076420D01*
X135527000Y-134202190D01*
X135696609Y-134371799D01*
X136012223Y-134582685D01*
X136362915Y-134727947D01*
X136735207Y-134802000D01*
X137114793Y-134802000D01*
X137487085Y-134727947D01*
X137837777Y-134582685D01*
X138153391Y-134371799D01*
X138421799Y-134103391D01*
X138632685Y-133787777D01*
X138777947Y-133437085D01*
X138852000Y-133064793D01*
X138852000Y-132685207D01*
X138777947Y-132312915D01*
X138632685Y-131962223D01*
X138421799Y-131646609D01*
X138153391Y-131378201D01*
X137837777Y-131167315D01*
X137487085Y-131022053D01*
X137114793Y-130948000D01*
X136735207Y-130948000D01*
X136362915Y-131022053D01*
X136012223Y-131167315D01*
X135696609Y-131378201D01*
X135527000Y-131547810D01*
X135527000Y-123697531D01*
X135903000Y-123697531D01*
X135903000Y-124852468D01*
X135925818Y-125084145D01*
X136015993Y-125381411D01*
X136162428Y-125655372D01*
X136359497Y-125895503D01*
X136599627Y-126092572D01*
X136873588Y-126239007D01*
X137170854Y-126329182D01*
X137480000Y-126359630D01*
X137789145Y-126329182D01*
X138086411Y-126239007D01*
X138360372Y-126092572D01*
X138600503Y-125895503D01*
X138797572Y-125655373D01*
X138944007Y-125381412D01*
X139034182Y-125084146D01*
X139057000Y-124852469D01*
X139057000Y-123697531D01*
X139034182Y-123465854D01*
X138944007Y-123168588D01*
X138797572Y-122894627D01*
X138600503Y-122654497D01*
X138442710Y-122525000D01*
X139261928Y-122525000D01*
X139274188Y-122649482D01*
X139310498Y-122769180D01*
X139369463Y-122879494D01*
X139448815Y-122976185D01*
X139545506Y-123055537D01*
X139655820Y-123114502D01*
X139775518Y-123150812D01*
X139900000Y-123163072D01*
X140264250Y-123160000D01*
X140423000Y-123001250D01*
X140423000Y-122002000D01*
X139423750Y-122002000D01*
X139265000Y-122160750D01*
X139261928Y-122525000D01*
X138442710Y-122525000D01*
X138360373Y-122457428D01*
X138086412Y-122310993D01*
X137789146Y-122220818D01*
X137480000Y-122190370D01*
X137170855Y-122220818D01*
X136873589Y-122310993D01*
X136599628Y-122457428D01*
X136359498Y-122654497D01*
X136162428Y-122894627D01*
X136015993Y-123168588D01*
X135925818Y-123465854D01*
X135903000Y-123697531D01*
X135527000Y-123697531D01*
X135527000Y-121225000D01*
X139261928Y-121225000D01*
X139265000Y-121589250D01*
X139423750Y-121748000D01*
X140423000Y-121748000D01*
X140423000Y-120748750D01*
X140264250Y-120590000D01*
X139900000Y-120586928D01*
X139775518Y-120599188D01*
X139655820Y-120635498D01*
X139545506Y-120694463D01*
X139448815Y-120773815D01*
X139369463Y-120870506D01*
X139310498Y-120980820D01*
X139274188Y-121100518D01*
X139261928Y-121225000D01*
X135527000Y-121225000D01*
X135527000Y-120152000D01*
X141874055Y-120152000D01*
X141850620Y-120180556D01*
G04 #@! TA.AperFunction,Conductor*
D29*
G36*
X141850620Y-120180556D02*
G01*
X141464761Y-120646499D01*
X141444180Y-120635498D01*
X141324482Y-120599188D01*
X141200000Y-120586928D01*
X140835750Y-120590000D01*
X140677000Y-120748750D01*
X140677000Y-121748000D01*
X140697000Y-121748000D01*
X140697000Y-122002000D01*
X140677000Y-122002000D01*
X140677000Y-123001250D01*
X140835750Y-123160000D01*
X141010500Y-123161474D01*
X141010500Y-123490656D01*
X139454405Y-125046752D01*
X139424761Y-125071080D01*
X139400433Y-125100724D01*
X139400431Y-125100726D01*
X139327663Y-125189394D01*
X139255513Y-125324377D01*
X139251985Y-125336008D01*
X139213984Y-125461283D01*
X139211084Y-125470842D01*
X139196081Y-125623160D01*
X139199841Y-125661333D01*
X139199840Y-126911786D01*
X139163843Y-126892545D01*
X139045653Y-126856693D01*
X138922740Y-126844587D01*
X138023580Y-126844587D01*
X137900667Y-126856693D01*
X137782477Y-126892545D01*
X137673552Y-126950767D01*
X137578079Y-127029119D01*
X137531497Y-127085880D01*
X137409980Y-127035546D01*
X137221226Y-126998000D01*
X137028774Y-126998000D01*
X136840020Y-127035546D01*
X136662217Y-127109194D01*
X136502199Y-127216115D01*
X136366115Y-127352199D01*
X136259194Y-127512217D01*
X136185546Y-127690020D01*
X136148000Y-127878774D01*
X136148000Y-128071226D01*
X136185546Y-128259980D01*
X136259194Y-128437783D01*
X136366115Y-128597801D01*
X136502199Y-128733885D01*
X136662217Y-128840806D01*
X136840020Y-128914454D01*
X137028774Y-128952000D01*
X137221226Y-128952000D01*
X137409980Y-128914454D01*
X137531497Y-128864120D01*
X137578079Y-128920881D01*
X137673552Y-128999233D01*
X137782477Y-129057455D01*
X137900667Y-129093307D01*
X138023580Y-129105413D01*
X138922740Y-129105413D01*
X139045653Y-129093307D01*
X139163843Y-129057455D01*
X139224840Y-129024851D01*
X139224840Y-129689904D01*
X139221202Y-129726840D01*
X139224840Y-129763775D01*
X139224840Y-129763777D01*
X139235721Y-129874257D01*
X139265551Y-129972591D01*
X139278722Y-130016009D01*
X139348550Y-130146650D01*
X139387499Y-130194109D01*
X139442523Y-130261157D01*
X139471219Y-130284707D01*
X139923320Y-130736809D01*
X139923320Y-130865860D01*
X139523430Y-130865860D01*
X139377707Y-130905229D01*
X139242465Y-130972271D01*
X139122900Y-131064409D01*
X139023608Y-131178103D01*
X138948405Y-131308983D01*
X138900320Y-131506514D01*
X139049720Y-131625320D01*
X138900320Y-131744126D01*
X138936198Y-131891511D01*
X138909844Y-131978388D01*
X138895335Y-132125700D01*
X138909844Y-132273012D01*
X138941052Y-132375890D01*
X138909844Y-132478768D01*
X138895335Y-132626080D01*
X138909844Y-132773392D01*
X138940666Y-132875000D01*
X138909844Y-132976608D01*
X138895335Y-133123920D01*
X138909844Y-133271232D01*
X138941052Y-133374110D01*
X138909844Y-133476988D01*
X138895335Y-133624300D01*
X138909844Y-133771612D01*
X138941052Y-133874490D01*
X138909844Y-133977368D01*
X138895335Y-134124680D01*
X138909844Y-134271992D01*
X138952813Y-134413642D01*
X139022591Y-134544188D01*
X139116497Y-134658613D01*
X139230922Y-134752519D01*
X139361468Y-134822297D01*
X139503118Y-134865266D01*
X139613523Y-134876140D01*
X139923860Y-134876140D01*
X139923860Y-135118415D01*
X139821226Y-135098000D01*
X139628774Y-135098000D01*
X139440020Y-135135546D01*
X139262217Y-135209194D01*
X139102199Y-135316115D01*
X138966115Y-135452199D01*
X138859194Y-135612217D01*
X138785546Y-135790020D01*
X138748000Y-135978774D01*
X138748000Y-136110489D01*
X138674592Y-136149727D01*
X138579119Y-136228079D01*
X138500767Y-136323552D01*
X138442545Y-136432477D01*
X138406693Y-136550667D01*
X138394587Y-136673580D01*
X138394587Y-137572740D01*
X138406693Y-137695653D01*
X138442545Y-137813843D01*
X138470699Y-137866514D01*
X138435118Y-137933080D01*
X138398808Y-138052778D01*
X138386548Y-138177260D01*
X138389620Y-138341090D01*
X138548370Y-138499840D01*
X139398000Y-138499840D01*
X139398000Y-138479840D01*
X139652000Y-138479840D01*
X139652000Y-138499840D01*
X140998000Y-138499840D01*
X140998000Y-138479840D01*
X141252000Y-138479840D01*
X141252000Y-138499840D01*
X142598000Y-138499840D01*
X142598000Y-138479840D01*
X142852000Y-138479840D01*
X142852000Y-138499840D01*
X142872000Y-138499840D01*
X142872000Y-138753840D01*
X142852000Y-138753840D01*
X142852000Y-139552670D01*
X143002811Y-139703481D01*
X143036998Y-139816180D01*
X143095963Y-139926494D01*
X143175315Y-140023185D01*
X143272006Y-140102537D01*
X143382320Y-140161502D01*
X143502018Y-140197812D01*
X143626500Y-140210072D01*
X144039250Y-140207000D01*
X144198000Y-140048250D01*
X144198000Y-139254500D01*
X144452000Y-139254500D01*
X144452000Y-140048250D01*
X144610750Y-140207000D01*
X145023500Y-140210072D01*
X145147982Y-140197812D01*
X145267680Y-140161502D01*
X145377994Y-140102537D01*
X145474685Y-140023185D01*
X145554037Y-139926494D01*
X145613002Y-139816180D01*
X145649312Y-139696482D01*
X145661572Y-139572000D01*
X145658500Y-139413250D01*
X145499750Y-139254500D01*
X144452000Y-139254500D01*
X144198000Y-139254500D01*
X144178000Y-139254500D01*
X144178000Y-139000500D01*
X144198000Y-139000500D01*
X144198000Y-138980500D01*
X144452000Y-138980500D01*
X144452000Y-139000500D01*
X145499750Y-139000500D01*
X145658500Y-138841750D01*
X145661572Y-138683000D01*
X145649312Y-138558518D01*
X145613002Y-138438820D01*
X145554037Y-138328506D01*
X145474685Y-138231815D01*
X145399150Y-138169825D01*
X145469001Y-138112501D01*
X145547353Y-138017028D01*
X145605575Y-137908103D01*
X145641427Y-137789913D01*
X145653533Y-137667000D01*
X145653533Y-136778000D01*
X145641427Y-136655087D01*
X145605575Y-136536897D01*
X145577000Y-136483437D01*
X145577000Y-134711935D01*
X145580638Y-134674999D01*
X145571755Y-134584810D01*
X145566119Y-134527582D01*
X145523118Y-134385830D01*
X145511923Y-134364886D01*
X145453290Y-134255189D01*
X145382863Y-134169374D01*
X145359317Y-134140683D01*
X145330627Y-134117138D01*
X144944186Y-133730697D01*
X144954665Y-133624300D01*
X144940156Y-133476988D01*
X144908948Y-133374110D01*
X144940156Y-133271232D01*
X144954665Y-133123920D01*
X144940156Y-132976608D01*
X144909334Y-132875000D01*
X144940156Y-132773392D01*
X144954665Y-132626080D01*
X144940156Y-132478768D01*
X144908948Y-132375890D01*
X144940156Y-132273012D01*
X144954665Y-132125700D01*
X144940156Y-131978388D01*
X144913802Y-131891511D01*
X144949680Y-131744126D01*
X144800280Y-131625320D01*
X144949680Y-131506514D01*
X144901595Y-131308983D01*
X144826392Y-131178103D01*
X144727100Y-131064409D01*
X144607535Y-130972271D01*
X144472293Y-130905229D01*
X144326570Y-130865860D01*
X143926140Y-130865860D01*
X143926140Y-130563523D01*
X143915266Y-130453118D01*
X143872297Y-130311468D01*
X143802519Y-130180922D01*
X143740550Y-130105413D01*
X144622740Y-130105413D01*
X144745653Y-130093307D01*
X144863843Y-130057455D01*
X144916514Y-130029301D01*
X144983080Y-130064882D01*
X145102778Y-130101192D01*
X145227260Y-130113452D01*
X145391090Y-130110380D01*
X145549840Y-129951630D01*
X145549840Y-129102000D01*
X145803840Y-129102000D01*
X145803840Y-129951630D01*
X145962590Y-130110380D01*
X146126420Y-130113452D01*
X146250902Y-130101192D01*
X146370600Y-130064882D01*
X146480914Y-130005917D01*
X146577605Y-129926565D01*
X146656957Y-129829874D01*
X146715922Y-129719560D01*
X146752232Y-129599862D01*
X146764492Y-129475380D01*
X146761420Y-129260750D01*
X146602670Y-129102000D01*
X145803840Y-129102000D01*
X145549840Y-129102000D01*
X145529840Y-129102000D01*
X145529840Y-128848000D01*
X145549840Y-128848000D01*
X145549840Y-127998370D01*
X145803840Y-127998370D01*
X145803840Y-128848000D01*
X146602670Y-128848000D01*
X146761420Y-128689250D01*
X146764492Y-128474620D01*
X146752232Y-128350138D01*
X146715922Y-128230440D01*
X146656957Y-128120126D01*
X146577605Y-128023435D01*
X146480914Y-127944083D01*
X146370600Y-127885118D01*
X146250902Y-127848808D01*
X146126420Y-127836548D01*
X145962590Y-127839620D01*
X145803840Y-127998370D01*
X145549840Y-127998370D01*
X145391090Y-127839620D01*
X145227260Y-127836548D01*
X145102778Y-127848808D01*
X144983080Y-127885118D01*
X144916514Y-127920699D01*
X144863843Y-127892545D01*
X144745653Y-127856693D01*
X144713471Y-127853523D01*
X144790806Y-127737783D01*
X144864454Y-127559980D01*
X144902000Y-127371226D01*
X144902000Y-127178774D01*
X144864454Y-126990020D01*
X144790806Y-126812217D01*
X144683885Y-126652199D01*
X144547801Y-126516115D01*
X144387783Y-126409194D01*
X144209980Y-126335546D01*
X144021226Y-126298000D01*
X143828774Y-126298000D01*
X143640020Y-126335546D01*
X143462217Y-126409194D01*
X143302199Y-126516115D01*
X143166115Y-126652199D01*
X143059194Y-126812217D01*
X143045786Y-126844587D01*
X142427260Y-126844587D01*
X142304347Y-126856693D01*
X142186157Y-126892545D01*
X142150160Y-126911786D01*
X142150160Y-126748683D01*
X142959344Y-125939500D01*
X144235154Y-125939500D01*
X144284165Y-125942957D01*
X144349352Y-125934705D01*
X144414819Y-125928257D01*
X144425227Y-125925100D01*
X144436008Y-125923735D01*
X144498346Y-125902919D01*
X144561284Y-125883827D01*
X144570875Y-125878700D01*
X144581184Y-125875258D01*
X144638264Y-125842680D01*
X144696266Y-125811677D01*
X144734267Y-125780491D01*
X145359485Y-125337155D01*
X145383765Y-125324177D01*
X145421754Y-125293001D01*
X145430572Y-125286748D01*
X145451261Y-125268786D01*
X145502080Y-125227080D01*
X145508979Y-125218673D01*
X145517187Y-125211547D01*
X145557466Y-125159592D01*
X145599177Y-125108766D01*
X145604302Y-125099178D01*
X145610963Y-125090586D01*
X145640326Y-125031783D01*
X145671327Y-124973784D01*
X145674485Y-124963374D01*
X145679339Y-124953653D01*
X145696662Y-124890265D01*
X145715757Y-124827319D01*
X145716823Y-124816495D01*
X145719688Y-124806012D01*
X145724311Y-124740464D01*
X145727000Y-124713166D01*
X145727000Y-124702346D01*
X145730457Y-124653335D01*
X145727000Y-124626027D01*
X145727000Y-124298706D01*
X145765020Y-124314454D01*
X145921796Y-124345639D01*
X146373592Y-124797436D01*
X146397920Y-124827080D01*
X146427564Y-124851408D01*
X146427565Y-124851409D01*
X146516233Y-124924177D01*
X146651216Y-124996327D01*
X146797681Y-125040757D01*
X146911834Y-125052000D01*
X146911843Y-125052000D01*
X146949999Y-125055758D01*
X146988155Y-125052000D01*
X147854310Y-125052000D01*
X147987217Y-125140806D01*
X148165020Y-125214454D01*
X148353774Y-125252000D01*
X148546226Y-125252000D01*
X148734980Y-125214454D01*
X148912783Y-125140806D01*
X149045690Y-125052000D01*
X149062652Y-125052000D01*
X149065818Y-125084146D01*
X149155993Y-125381412D01*
X149302428Y-125655373D01*
X149499498Y-125895503D01*
X149739628Y-126092572D01*
X150013589Y-126239007D01*
X150310855Y-126329182D01*
X150620000Y-126359630D01*
X150929146Y-126329182D01*
X151226412Y-126239007D01*
X151500373Y-126092572D01*
X151740503Y-125895503D01*
X151762277Y-125868971D01*
X151727720Y-132054792D01*
X151521799Y-131746609D01*
X151253391Y-131478201D01*
X150937777Y-131267315D01*
X150587085Y-131122053D01*
X150214793Y-131048000D01*
X149835207Y-131048000D01*
X149462915Y-131122053D01*
X149112223Y-131267315D01*
X148796609Y-131478201D01*
X148528201Y-131746609D01*
X148317315Y-132062223D01*
X148172053Y-132412915D01*
X148098000Y-132785207D01*
X148098000Y-133164793D01*
X148172053Y-133537085D01*
X148317315Y-133887777D01*
X148528201Y-134203391D01*
X148796609Y-134471799D01*
X149112223Y-134682685D01*
X149462915Y-134827947D01*
X149835207Y-134902000D01*
X150214793Y-134902000D01*
X150587085Y-134827947D01*
X150937777Y-134682685D01*
X151253391Y-134471799D01*
X151521799Y-134203391D01*
X151717352Y-133910725D01*
X151673708Y-141723000D01*
X135527000Y-141723000D01*
X135527000Y-139076420D01*
X138386548Y-139076420D01*
X138398808Y-139200902D01*
X138435118Y-139320600D01*
X138494083Y-139430914D01*
X138573435Y-139527605D01*
X138670126Y-139606957D01*
X138780440Y-139665922D01*
X138900138Y-139702232D01*
X139024620Y-139714492D01*
X139239250Y-139711420D01*
X139398000Y-139552670D01*
X139398000Y-138753840D01*
X139652000Y-138753840D01*
X139652000Y-139552670D01*
X139810750Y-139711420D01*
X140025380Y-139714492D01*
X140149862Y-139702232D01*
X140269560Y-139665922D01*
X140325000Y-139636288D01*
X140380440Y-139665922D01*
X140500138Y-139702232D01*
X140624620Y-139714492D01*
X140839250Y-139711420D01*
X140998000Y-139552670D01*
X140998000Y-138753840D01*
X141252000Y-138753840D01*
X141252000Y-139552670D01*
X141410750Y-139711420D01*
X141625380Y-139714492D01*
X141749862Y-139702232D01*
X141869560Y-139665922D01*
X141925000Y-139636288D01*
X141980440Y-139665922D01*
X142100138Y-139702232D01*
X142224620Y-139714492D01*
X142439250Y-139711420D01*
X142598000Y-139552670D01*
X142598000Y-138753840D01*
X141252000Y-138753840D01*
X140998000Y-138753840D01*
X139652000Y-138753840D01*
X139398000Y-138753840D01*
X138548370Y-138753840D01*
X138389620Y-138912590D01*
X138386548Y-139076420D01*
X135527000Y-139076420D01*
X135527000Y-134202190D01*
X135696609Y-134371799D01*
X136012223Y-134582685D01*
X136362915Y-134727947D01*
X136735207Y-134802000D01*
X137114793Y-134802000D01*
X137487085Y-134727947D01*
X137837777Y-134582685D01*
X138153391Y-134371799D01*
X138421799Y-134103391D01*
X138632685Y-133787777D01*
X138777947Y-133437085D01*
X138852000Y-133064793D01*
X138852000Y-132685207D01*
X138777947Y-132312915D01*
X138632685Y-131962223D01*
X138421799Y-131646609D01*
X138153391Y-131378201D01*
X137837777Y-131167315D01*
X137487085Y-131022053D01*
X137114793Y-130948000D01*
X136735207Y-130948000D01*
X136362915Y-131022053D01*
X136012223Y-131167315D01*
X135696609Y-131378201D01*
X135527000Y-131547810D01*
X135527000Y-123697531D01*
X135903000Y-123697531D01*
X135903000Y-124852468D01*
X135925818Y-125084145D01*
X136015993Y-125381411D01*
X136162428Y-125655372D01*
X136359497Y-125895503D01*
X136599627Y-126092572D01*
X136873588Y-126239007D01*
X137170854Y-126329182D01*
X137480000Y-126359630D01*
X137789145Y-126329182D01*
X138086411Y-126239007D01*
X138360372Y-126092572D01*
X138600503Y-125895503D01*
X138797572Y-125655373D01*
X138944007Y-125381412D01*
X139034182Y-125084146D01*
X139057000Y-124852469D01*
X139057000Y-123697531D01*
X139034182Y-123465854D01*
X138944007Y-123168588D01*
X138797572Y-122894627D01*
X138600503Y-122654497D01*
X138442710Y-122525000D01*
X139261928Y-122525000D01*
X139274188Y-122649482D01*
X139310498Y-122769180D01*
X139369463Y-122879494D01*
X139448815Y-122976185D01*
X139545506Y-123055537D01*
X139655820Y-123114502D01*
X139775518Y-123150812D01*
X139900000Y-123163072D01*
X140264250Y-123160000D01*
X140423000Y-123001250D01*
X140423000Y-122002000D01*
X139423750Y-122002000D01*
X139265000Y-122160750D01*
X139261928Y-122525000D01*
X138442710Y-122525000D01*
X138360373Y-122457428D01*
X138086412Y-122310993D01*
X137789146Y-122220818D01*
X137480000Y-122190370D01*
X137170855Y-122220818D01*
X136873589Y-122310993D01*
X136599628Y-122457428D01*
X136359498Y-122654497D01*
X136162428Y-122894627D01*
X136015993Y-123168588D01*
X135925818Y-123465854D01*
X135903000Y-123697531D01*
X135527000Y-123697531D01*
X135527000Y-121225000D01*
X139261928Y-121225000D01*
X139265000Y-121589250D01*
X139423750Y-121748000D01*
X140423000Y-121748000D01*
X140423000Y-120748750D01*
X140264250Y-120590000D01*
X139900000Y-120586928D01*
X139775518Y-120599188D01*
X139655820Y-120635498D01*
X139545506Y-120694463D01*
X139448815Y-120773815D01*
X139369463Y-120870506D01*
X139310498Y-120980820D01*
X139274188Y-121100518D01*
X139261928Y-121225000D01*
X135527000Y-121225000D01*
X135527000Y-120152000D01*
X141874055Y-120152000D01*
X141850620Y-120180556D01*
G37*
G04 #@! TD.AperFunction*
D28*
X142926906Y-131861721D02*
X142934158Y-131891511D01*
X142907804Y-131978388D01*
X142893295Y-132125700D01*
X142907804Y-132273012D01*
X142939012Y-132375890D01*
X142907804Y-132478768D01*
X142893295Y-132626080D01*
X142907804Y-132773392D01*
X142938626Y-132875000D01*
X142907804Y-132976608D01*
X142893295Y-133123920D01*
X142907804Y-133271232D01*
X142939012Y-133374110D01*
X142907804Y-133476988D01*
X142893295Y-133624300D01*
X142907804Y-133771612D01*
X142939012Y-133874490D01*
X142936382Y-133883158D01*
X142793106Y-133848280D01*
X142674300Y-133997680D01*
X142555494Y-133848280D01*
X142408109Y-133884158D01*
X142321231Y-133857804D01*
X142173920Y-133843295D01*
X142026608Y-133857804D01*
X141940862Y-133883815D01*
X141794886Y-133848280D01*
X141676080Y-133997680D01*
X141557274Y-133848280D01*
X141409889Y-133884158D01*
X141323011Y-133857804D01*
X141175700Y-133843295D01*
X141028388Y-133857804D01*
X140925510Y-133889012D01*
X140914368Y-133885632D01*
X140910988Y-133874490D01*
X140942196Y-133771612D01*
X140956705Y-133624300D01*
X140942196Y-133476988D01*
X140910988Y-133374110D01*
X140942196Y-133271232D01*
X140956705Y-133123920D01*
X140942196Y-132976608D01*
X140911374Y-132875000D01*
X140942196Y-132773392D01*
X140956705Y-132626080D01*
X140942196Y-132478768D01*
X140910988Y-132375890D01*
X140942196Y-132273012D01*
X140956705Y-132125700D01*
X140942196Y-131978388D01*
X140915842Y-131891511D01*
X140923094Y-131861721D01*
X140925510Y-131860988D01*
X141028388Y-131892196D01*
X141175700Y-131906705D01*
X141323011Y-131892196D01*
X141425890Y-131860988D01*
X141528768Y-131892196D01*
X141676080Y-131906705D01*
X141823391Y-131892196D01*
X141925000Y-131861373D01*
X142026608Y-131892196D01*
X142173920Y-131906705D01*
X142321231Y-131892196D01*
X142424110Y-131860988D01*
X142526988Y-131892196D01*
X142674300Y-131906705D01*
X142821611Y-131892196D01*
X142924490Y-131860988D01*
X142926906Y-131861721D01*
G04 #@! TA.AperFunction,Conductor*
D29*
G36*
X142926906Y-131861721D02*
G01*
X142934158Y-131891511D01*
X142907804Y-131978388D01*
X142893295Y-132125700D01*
X142907804Y-132273012D01*
X142939012Y-132375890D01*
X142907804Y-132478768D01*
X142893295Y-132626080D01*
X142907804Y-132773392D01*
X142938626Y-132875000D01*
X142907804Y-132976608D01*
X142893295Y-133123920D01*
X142907804Y-133271232D01*
X142939012Y-133374110D01*
X142907804Y-133476988D01*
X142893295Y-133624300D01*
X142907804Y-133771612D01*
X142939012Y-133874490D01*
X142936382Y-133883158D01*
X142793106Y-133848280D01*
X142674300Y-133997680D01*
X142555494Y-133848280D01*
X142408109Y-133884158D01*
X142321231Y-133857804D01*
X142173920Y-133843295D01*
X142026608Y-133857804D01*
X141940862Y-133883815D01*
X141794886Y-133848280D01*
X141676080Y-133997680D01*
X141557274Y-133848280D01*
X141409889Y-133884158D01*
X141323011Y-133857804D01*
X141175700Y-133843295D01*
X141028388Y-133857804D01*
X140925510Y-133889012D01*
X140914368Y-133885632D01*
X140910988Y-133874490D01*
X140942196Y-133771612D01*
X140956705Y-133624300D01*
X140942196Y-133476988D01*
X140910988Y-133374110D01*
X140942196Y-133271232D01*
X140956705Y-133123920D01*
X140942196Y-132976608D01*
X140911374Y-132875000D01*
X140942196Y-132773392D01*
X140956705Y-132626080D01*
X140942196Y-132478768D01*
X140910988Y-132375890D01*
X140942196Y-132273012D01*
X140956705Y-132125700D01*
X140942196Y-131978388D01*
X140915842Y-131891511D01*
X140923094Y-131861721D01*
X140925510Y-131860988D01*
X141028388Y-131892196D01*
X141175700Y-131906705D01*
X141323011Y-131892196D01*
X141425890Y-131860988D01*
X141528768Y-131892196D01*
X141676080Y-131906705D01*
X141823391Y-131892196D01*
X141925000Y-131861373D01*
X142026608Y-131892196D01*
X142173920Y-131906705D01*
X142321231Y-131892196D01*
X142424110Y-131860988D01*
X142526988Y-131892196D01*
X142674300Y-131906705D01*
X142821611Y-131892196D01*
X142924490Y-131860988D01*
X142926906Y-131861721D01*
G37*
G04 #@! TD.AperFunction*
D30*
X141850620Y-92780556D02*
X141464761Y-93246499D01*
X141444180Y-93235498D01*
X141324482Y-93199188D01*
X141200000Y-93186928D01*
X140835750Y-93190000D01*
X140677000Y-93348750D01*
X140677000Y-94348000D01*
X140697000Y-94348000D01*
X140697000Y-94602000D01*
X140677000Y-94602000D01*
X140677000Y-95601250D01*
X140835750Y-95760000D01*
X141010500Y-95761474D01*
X141010500Y-96090656D01*
X139454405Y-97646752D01*
X139424761Y-97671080D01*
X139400433Y-97700724D01*
X139400431Y-97700726D01*
X139327663Y-97789394D01*
X139255513Y-97924377D01*
X139251985Y-97936008D01*
X139213984Y-98061283D01*
X139211084Y-98070842D01*
X139196081Y-98223160D01*
X139199841Y-98261333D01*
X139199840Y-99511786D01*
X139163843Y-99492545D01*
X139045653Y-99456693D01*
X138922740Y-99444587D01*
X138023580Y-99444587D01*
X137900667Y-99456693D01*
X137782477Y-99492545D01*
X137673552Y-99550767D01*
X137578079Y-99629119D01*
X137531497Y-99685880D01*
X137409980Y-99635546D01*
X137221226Y-99598000D01*
X137028774Y-99598000D01*
X136840020Y-99635546D01*
X136662217Y-99709194D01*
X136502199Y-99816115D01*
X136366115Y-99952199D01*
X136259194Y-100112217D01*
X136185546Y-100290020D01*
X136148000Y-100478774D01*
X136148000Y-100671226D01*
X136185546Y-100859980D01*
X136259194Y-101037783D01*
X136366115Y-101197801D01*
X136502199Y-101333885D01*
X136662217Y-101440806D01*
X136840020Y-101514454D01*
X137028774Y-101552000D01*
X137221226Y-101552000D01*
X137409980Y-101514454D01*
X137531497Y-101464120D01*
X137578079Y-101520881D01*
X137673552Y-101599233D01*
X137782477Y-101657455D01*
X137900667Y-101693307D01*
X138023580Y-101705413D01*
X138922740Y-101705413D01*
X139045653Y-101693307D01*
X139163843Y-101657455D01*
X139224840Y-101624851D01*
X139224840Y-102289904D01*
X139221202Y-102326840D01*
X139224840Y-102363775D01*
X139224840Y-102363777D01*
X139235721Y-102474257D01*
X139265551Y-102572591D01*
X139278722Y-102616009D01*
X139348550Y-102746650D01*
X139387499Y-102794109D01*
X139442523Y-102861157D01*
X139471219Y-102884707D01*
X139923320Y-103336809D01*
X139923320Y-103465860D01*
X139523430Y-103465860D01*
X139377707Y-103505229D01*
X139242465Y-103572271D01*
X139122900Y-103664409D01*
X139023608Y-103778103D01*
X138948405Y-103908983D01*
X138900320Y-104106514D01*
X139049720Y-104225320D01*
X138900320Y-104344126D01*
X138936198Y-104491511D01*
X138909844Y-104578388D01*
X138895335Y-104725700D01*
X138909844Y-104873012D01*
X138941052Y-104975890D01*
X138909844Y-105078768D01*
X138895335Y-105226080D01*
X138909844Y-105373392D01*
X138940666Y-105475000D01*
X138909844Y-105576608D01*
X138895335Y-105723920D01*
X138909844Y-105871232D01*
X138941052Y-105974110D01*
X138909844Y-106076988D01*
X138895335Y-106224300D01*
X138909844Y-106371612D01*
X138941052Y-106474490D01*
X138909844Y-106577368D01*
X138895335Y-106724680D01*
X138909844Y-106871992D01*
X138952813Y-107013642D01*
X139022591Y-107144188D01*
X139116497Y-107258613D01*
X139230922Y-107352519D01*
X139361468Y-107422297D01*
X139503118Y-107465266D01*
X139613523Y-107476140D01*
X139923860Y-107476140D01*
X139923860Y-107718415D01*
X139821226Y-107698000D01*
X139628774Y-107698000D01*
X139440020Y-107735546D01*
X139262217Y-107809194D01*
X139102199Y-107916115D01*
X138966115Y-108052199D01*
X138859194Y-108212217D01*
X138785546Y-108390020D01*
X138748000Y-108578774D01*
X138748000Y-108710489D01*
X138674592Y-108749727D01*
X138579119Y-108828079D01*
X138500767Y-108923552D01*
X138442545Y-109032477D01*
X138406693Y-109150667D01*
X138394587Y-109273580D01*
X138394587Y-110172740D01*
X138406693Y-110295653D01*
X138442545Y-110413843D01*
X138470699Y-110466514D01*
X138435118Y-110533080D01*
X138398808Y-110652778D01*
X138386548Y-110777260D01*
X138389620Y-110941090D01*
X138548370Y-111099840D01*
X139398000Y-111099840D01*
X139398000Y-111079840D01*
X139652000Y-111079840D01*
X139652000Y-111099840D01*
X140998000Y-111099840D01*
X140998000Y-111079840D01*
X141252000Y-111079840D01*
X141252000Y-111099840D01*
X142598000Y-111099840D01*
X142598000Y-111079840D01*
X142852000Y-111079840D01*
X142852000Y-111099840D01*
X142872000Y-111099840D01*
X142872000Y-111353840D01*
X142852000Y-111353840D01*
X142852000Y-112152670D01*
X143002811Y-112303481D01*
X143036998Y-112416180D01*
X143095963Y-112526494D01*
X143175315Y-112623185D01*
X143272006Y-112702537D01*
X143382320Y-112761502D01*
X143502018Y-112797812D01*
X143626500Y-112810072D01*
X144039250Y-112807000D01*
X144198000Y-112648250D01*
X144198000Y-111854500D01*
X144452000Y-111854500D01*
X144452000Y-112648250D01*
X144610750Y-112807000D01*
X145023500Y-112810072D01*
X145147982Y-112797812D01*
X145267680Y-112761502D01*
X145377994Y-112702537D01*
X145474685Y-112623185D01*
X145554037Y-112526494D01*
X145613002Y-112416180D01*
X145649312Y-112296482D01*
X145661572Y-112172000D01*
X145658500Y-112013250D01*
X145499750Y-111854500D01*
X144452000Y-111854500D01*
X144198000Y-111854500D01*
X144178000Y-111854500D01*
X144178000Y-111600500D01*
X144198000Y-111600500D01*
X144198000Y-111580500D01*
X144452000Y-111580500D01*
X144452000Y-111600500D01*
X145499750Y-111600500D01*
X145658500Y-111441750D01*
X145661572Y-111283000D01*
X145649312Y-111158518D01*
X145613002Y-111038820D01*
X145554037Y-110928506D01*
X145474685Y-110831815D01*
X145399150Y-110769825D01*
X145469001Y-110712501D01*
X145547353Y-110617028D01*
X145605575Y-110508103D01*
X145641427Y-110389913D01*
X145653533Y-110267000D01*
X145653533Y-109378000D01*
X145641427Y-109255087D01*
X145605575Y-109136897D01*
X145577000Y-109083437D01*
X145577000Y-107311935D01*
X145580638Y-107274999D01*
X145571755Y-107184810D01*
X145566119Y-107127582D01*
X145523118Y-106985830D01*
X145511923Y-106964886D01*
X145453290Y-106855189D01*
X145382863Y-106769374D01*
X145359317Y-106740683D01*
X145330627Y-106717138D01*
X144944186Y-106330697D01*
X144954665Y-106224300D01*
X144940156Y-106076988D01*
X144908948Y-105974110D01*
X144940156Y-105871232D01*
X144954665Y-105723920D01*
X144940156Y-105576608D01*
X144909334Y-105475000D01*
X144940156Y-105373392D01*
X144954665Y-105226080D01*
X144940156Y-105078768D01*
X144908948Y-104975890D01*
X144940156Y-104873012D01*
X144954665Y-104725700D01*
X144940156Y-104578388D01*
X144913802Y-104491511D01*
X144949680Y-104344126D01*
X144800280Y-104225320D01*
X144949680Y-104106514D01*
X144901595Y-103908983D01*
X144826392Y-103778103D01*
X144727100Y-103664409D01*
X144607535Y-103572271D01*
X144472293Y-103505229D01*
X144326570Y-103465860D01*
X143926140Y-103465860D01*
X143926140Y-103163523D01*
X143915266Y-103053118D01*
X143872297Y-102911468D01*
X143802519Y-102780922D01*
X143740550Y-102705413D01*
X144622740Y-102705413D01*
X144745653Y-102693307D01*
X144863843Y-102657455D01*
X144916514Y-102629301D01*
X144983080Y-102664882D01*
X145102778Y-102701192D01*
X145227260Y-102713452D01*
X145391090Y-102710380D01*
X145549840Y-102551630D01*
X145549840Y-101702000D01*
X145803840Y-101702000D01*
X145803840Y-102551630D01*
X145962590Y-102710380D01*
X146126420Y-102713452D01*
X146250902Y-102701192D01*
X146370600Y-102664882D01*
X146480914Y-102605917D01*
X146577605Y-102526565D01*
X146656957Y-102429874D01*
X146715922Y-102319560D01*
X146752232Y-102199862D01*
X146764492Y-102075380D01*
X146761420Y-101860750D01*
X146602670Y-101702000D01*
X145803840Y-101702000D01*
X145549840Y-101702000D01*
X145529840Y-101702000D01*
X145529840Y-101448000D01*
X145549840Y-101448000D01*
X145549840Y-100598370D01*
X145803840Y-100598370D01*
X145803840Y-101448000D01*
X146602670Y-101448000D01*
X146761420Y-101289250D01*
X146764492Y-101074620D01*
X146752232Y-100950138D01*
X146715922Y-100830440D01*
X146656957Y-100720126D01*
X146577605Y-100623435D01*
X146480914Y-100544083D01*
X146370600Y-100485118D01*
X146250902Y-100448808D01*
X146126420Y-100436548D01*
X145962590Y-100439620D01*
X145803840Y-100598370D01*
X145549840Y-100598370D01*
X145391090Y-100439620D01*
X145227260Y-100436548D01*
X145102778Y-100448808D01*
X144983080Y-100485118D01*
X144916514Y-100520699D01*
X144863843Y-100492545D01*
X144745653Y-100456693D01*
X144713471Y-100453523D01*
X144790806Y-100337783D01*
X144864454Y-100159980D01*
X144902000Y-99971226D01*
X144902000Y-99778774D01*
X144864454Y-99590020D01*
X144790806Y-99412217D01*
X144683885Y-99252199D01*
X144547801Y-99116115D01*
X144387783Y-99009194D01*
X144209980Y-98935546D01*
X144021226Y-98898000D01*
X143828774Y-98898000D01*
X143640020Y-98935546D01*
X143462217Y-99009194D01*
X143302199Y-99116115D01*
X143166115Y-99252199D01*
X143059194Y-99412217D01*
X143045786Y-99444587D01*
X142427260Y-99444587D01*
X142304347Y-99456693D01*
X142186157Y-99492545D01*
X142150160Y-99511786D01*
X142150160Y-99348683D01*
X142959344Y-98539500D01*
X144235154Y-98539500D01*
X144284165Y-98542957D01*
X144349352Y-98534705D01*
X144414819Y-98528257D01*
X144425227Y-98525100D01*
X144436008Y-98523735D01*
X144498346Y-98502919D01*
X144561284Y-98483827D01*
X144570875Y-98478700D01*
X144581184Y-98475258D01*
X144638264Y-98442680D01*
X144696266Y-98411677D01*
X144734267Y-98380491D01*
X145359485Y-97937155D01*
X145383765Y-97924177D01*
X145421754Y-97893001D01*
X145430572Y-97886748D01*
X145451261Y-97868786D01*
X145502080Y-97827080D01*
X145508979Y-97818673D01*
X145517187Y-97811547D01*
X145557466Y-97759592D01*
X145599177Y-97708766D01*
X145604302Y-97699178D01*
X145610963Y-97690586D01*
X145640326Y-97631783D01*
X145671327Y-97573784D01*
X145674485Y-97563374D01*
X145679339Y-97553653D01*
X145696662Y-97490265D01*
X145715757Y-97427319D01*
X145716823Y-97416495D01*
X145719688Y-97406012D01*
X145724311Y-97340464D01*
X145727000Y-97313166D01*
X145727000Y-97302346D01*
X145730457Y-97253335D01*
X145727000Y-97226027D01*
X145727000Y-96898706D01*
X145765020Y-96914454D01*
X145921796Y-96945639D01*
X146373592Y-97397436D01*
X146397920Y-97427080D01*
X146427564Y-97451408D01*
X146427565Y-97451409D01*
X146516233Y-97524177D01*
X146651216Y-97596327D01*
X146797681Y-97640757D01*
X146911834Y-97652000D01*
X146911843Y-97652000D01*
X146949999Y-97655758D01*
X146988155Y-97652000D01*
X147854310Y-97652000D01*
X147987217Y-97740806D01*
X148165020Y-97814454D01*
X148353774Y-97852000D01*
X148546226Y-97852000D01*
X148734980Y-97814454D01*
X148912783Y-97740806D01*
X149045690Y-97652000D01*
X149062652Y-97652000D01*
X149065818Y-97684146D01*
X149155993Y-97981412D01*
X149302428Y-98255373D01*
X149499498Y-98495503D01*
X149739628Y-98692572D01*
X150013589Y-98839007D01*
X150310855Y-98929182D01*
X150620000Y-98959630D01*
X150929146Y-98929182D01*
X151226412Y-98839007D01*
X151500373Y-98692572D01*
X151740503Y-98495503D01*
X151762277Y-98468971D01*
X151727720Y-104654792D01*
X151521799Y-104346609D01*
X151253391Y-104078201D01*
X150937777Y-103867315D01*
X150587085Y-103722053D01*
X150214793Y-103648000D01*
X149835207Y-103648000D01*
X149462915Y-103722053D01*
X149112223Y-103867315D01*
X148796609Y-104078201D01*
X148528201Y-104346609D01*
X148317315Y-104662223D01*
X148172053Y-105012915D01*
X148098000Y-105385207D01*
X148098000Y-105764793D01*
X148172053Y-106137085D01*
X148317315Y-106487777D01*
X148528201Y-106803391D01*
X148796609Y-107071799D01*
X149112223Y-107282685D01*
X149462915Y-107427947D01*
X149835207Y-107502000D01*
X150214793Y-107502000D01*
X150587085Y-107427947D01*
X150937777Y-107282685D01*
X151253391Y-107071799D01*
X151521799Y-106803391D01*
X151717352Y-106510725D01*
X151673708Y-114323000D01*
X135527000Y-114323000D01*
X135527000Y-111676420D01*
X138386548Y-111676420D01*
X138398808Y-111800902D01*
X138435118Y-111920600D01*
X138494083Y-112030914D01*
X138573435Y-112127605D01*
X138670126Y-112206957D01*
X138780440Y-112265922D01*
X138900138Y-112302232D01*
X139024620Y-112314492D01*
X139239250Y-112311420D01*
X139398000Y-112152670D01*
X139398000Y-111353840D01*
X139652000Y-111353840D01*
X139652000Y-112152670D01*
X139810750Y-112311420D01*
X140025380Y-112314492D01*
X140149862Y-112302232D01*
X140269560Y-112265922D01*
X140325000Y-112236288D01*
X140380440Y-112265922D01*
X140500138Y-112302232D01*
X140624620Y-112314492D01*
X140839250Y-112311420D01*
X140998000Y-112152670D01*
X140998000Y-111353840D01*
X141252000Y-111353840D01*
X141252000Y-112152670D01*
X141410750Y-112311420D01*
X141625380Y-112314492D01*
X141749862Y-112302232D01*
X141869560Y-112265922D01*
X141925000Y-112236288D01*
X141980440Y-112265922D01*
X142100138Y-112302232D01*
X142224620Y-112314492D01*
X142439250Y-112311420D01*
X142598000Y-112152670D01*
X142598000Y-111353840D01*
X141252000Y-111353840D01*
X140998000Y-111353840D01*
X139652000Y-111353840D01*
X139398000Y-111353840D01*
X138548370Y-111353840D01*
X138389620Y-111512590D01*
X138386548Y-111676420D01*
X135527000Y-111676420D01*
X135527000Y-106802190D01*
X135696609Y-106971799D01*
X136012223Y-107182685D01*
X136362915Y-107327947D01*
X136735207Y-107402000D01*
X137114793Y-107402000D01*
X137487085Y-107327947D01*
X137837777Y-107182685D01*
X138153391Y-106971799D01*
X138421799Y-106703391D01*
X138632685Y-106387777D01*
X138777947Y-106037085D01*
X138852000Y-105664793D01*
X138852000Y-105285207D01*
X138777947Y-104912915D01*
X138632685Y-104562223D01*
X138421799Y-104246609D01*
X138153391Y-103978201D01*
X137837777Y-103767315D01*
X137487085Y-103622053D01*
X137114793Y-103548000D01*
X136735207Y-103548000D01*
X136362915Y-103622053D01*
X136012223Y-103767315D01*
X135696609Y-103978201D01*
X135527000Y-104147810D01*
X135527000Y-96297531D01*
X135903000Y-96297531D01*
X135903000Y-97452468D01*
X135925818Y-97684145D01*
X136015993Y-97981411D01*
X136162428Y-98255372D01*
X136359497Y-98495503D01*
X136599627Y-98692572D01*
X136873588Y-98839007D01*
X137170854Y-98929182D01*
X137480000Y-98959630D01*
X137789145Y-98929182D01*
X138086411Y-98839007D01*
X138360372Y-98692572D01*
X138600503Y-98495503D01*
X138797572Y-98255373D01*
X138944007Y-97981412D01*
X139034182Y-97684146D01*
X139057000Y-97452469D01*
X139057000Y-96297531D01*
X139034182Y-96065854D01*
X138944007Y-95768588D01*
X138797572Y-95494627D01*
X138600503Y-95254497D01*
X138442710Y-95125000D01*
X139261928Y-95125000D01*
X139274188Y-95249482D01*
X139310498Y-95369180D01*
X139369463Y-95479494D01*
X139448815Y-95576185D01*
X139545506Y-95655537D01*
X139655820Y-95714502D01*
X139775518Y-95750812D01*
X139900000Y-95763072D01*
X140264250Y-95760000D01*
X140423000Y-95601250D01*
X140423000Y-94602000D01*
X139423750Y-94602000D01*
X139265000Y-94760750D01*
X139261928Y-95125000D01*
X138442710Y-95125000D01*
X138360373Y-95057428D01*
X138086412Y-94910993D01*
X137789146Y-94820818D01*
X137480000Y-94790370D01*
X137170855Y-94820818D01*
X136873589Y-94910993D01*
X136599628Y-95057428D01*
X136359498Y-95254497D01*
X136162428Y-95494627D01*
X136015993Y-95768588D01*
X135925818Y-96065854D01*
X135903000Y-96297531D01*
X135527000Y-96297531D01*
X135527000Y-93825000D01*
X139261928Y-93825000D01*
X139265000Y-94189250D01*
X139423750Y-94348000D01*
X140423000Y-94348000D01*
X140423000Y-93348750D01*
X140264250Y-93190000D01*
X139900000Y-93186928D01*
X139775518Y-93199188D01*
X139655820Y-93235498D01*
X139545506Y-93294463D01*
X139448815Y-93373815D01*
X139369463Y-93470506D01*
X139310498Y-93580820D01*
X139274188Y-93700518D01*
X139261928Y-93825000D01*
X135527000Y-93825000D01*
X135527000Y-92752000D01*
X141874055Y-92752000D01*
X141850620Y-92780556D01*
G04 #@! TA.AperFunction,NonConductor*
D31*
G36*
X141850620Y-92780556D02*
G01*
X141464761Y-93246499D01*
X141444180Y-93235498D01*
X141324482Y-93199188D01*
X141200000Y-93186928D01*
X140835750Y-93190000D01*
X140677000Y-93348750D01*
X140677000Y-94348000D01*
X140697000Y-94348000D01*
X140697000Y-94602000D01*
X140677000Y-94602000D01*
X140677000Y-95601250D01*
X140835750Y-95760000D01*
X141010500Y-95761474D01*
X141010500Y-96090656D01*
X139454405Y-97646752D01*
X139424761Y-97671080D01*
X139400433Y-97700724D01*
X139400431Y-97700726D01*
X139327663Y-97789394D01*
X139255513Y-97924377D01*
X139251985Y-97936008D01*
X139213984Y-98061283D01*
X139211084Y-98070842D01*
X139196081Y-98223160D01*
X139199841Y-98261333D01*
X139199840Y-99511786D01*
X139163843Y-99492545D01*
X139045653Y-99456693D01*
X138922740Y-99444587D01*
X138023580Y-99444587D01*
X137900667Y-99456693D01*
X137782477Y-99492545D01*
X137673552Y-99550767D01*
X137578079Y-99629119D01*
X137531497Y-99685880D01*
X137409980Y-99635546D01*
X137221226Y-99598000D01*
X137028774Y-99598000D01*
X136840020Y-99635546D01*
X136662217Y-99709194D01*
X136502199Y-99816115D01*
X136366115Y-99952199D01*
X136259194Y-100112217D01*
X136185546Y-100290020D01*
X136148000Y-100478774D01*
X136148000Y-100671226D01*
X136185546Y-100859980D01*
X136259194Y-101037783D01*
X136366115Y-101197801D01*
X136502199Y-101333885D01*
X136662217Y-101440806D01*
X136840020Y-101514454D01*
X137028774Y-101552000D01*
X137221226Y-101552000D01*
X137409980Y-101514454D01*
X137531497Y-101464120D01*
X137578079Y-101520881D01*
X137673552Y-101599233D01*
X137782477Y-101657455D01*
X137900667Y-101693307D01*
X138023580Y-101705413D01*
X138922740Y-101705413D01*
X139045653Y-101693307D01*
X139163843Y-101657455D01*
X139224840Y-101624851D01*
X139224840Y-102289904D01*
X139221202Y-102326840D01*
X139224840Y-102363775D01*
X139224840Y-102363777D01*
X139235721Y-102474257D01*
X139265551Y-102572591D01*
X139278722Y-102616009D01*
X139348550Y-102746650D01*
X139387499Y-102794109D01*
X139442523Y-102861157D01*
X139471219Y-102884707D01*
X139923320Y-103336809D01*
X139923320Y-103465860D01*
X139523430Y-103465860D01*
X139377707Y-103505229D01*
X139242465Y-103572271D01*
X139122900Y-103664409D01*
X139023608Y-103778103D01*
X138948405Y-103908983D01*
X138900320Y-104106514D01*
X139049720Y-104225320D01*
X138900320Y-104344126D01*
X138936198Y-104491511D01*
X138909844Y-104578388D01*
X138895335Y-104725700D01*
X138909844Y-104873012D01*
X138941052Y-104975890D01*
X138909844Y-105078768D01*
X138895335Y-105226080D01*
X138909844Y-105373392D01*
X138940666Y-105475000D01*
X138909844Y-105576608D01*
X138895335Y-105723920D01*
X138909844Y-105871232D01*
X138941052Y-105974110D01*
X138909844Y-106076988D01*
X138895335Y-106224300D01*
X138909844Y-106371612D01*
X138941052Y-106474490D01*
X138909844Y-106577368D01*
X138895335Y-106724680D01*
X138909844Y-106871992D01*
X138952813Y-107013642D01*
X139022591Y-107144188D01*
X139116497Y-107258613D01*
X139230922Y-107352519D01*
X139361468Y-107422297D01*
X139503118Y-107465266D01*
X139613523Y-107476140D01*
X139923860Y-107476140D01*
X139923860Y-107718415D01*
X139821226Y-107698000D01*
X139628774Y-107698000D01*
X139440020Y-107735546D01*
X139262217Y-107809194D01*
X139102199Y-107916115D01*
X138966115Y-108052199D01*
X138859194Y-108212217D01*
X138785546Y-108390020D01*
X138748000Y-108578774D01*
X138748000Y-108710489D01*
X138674592Y-108749727D01*
X138579119Y-108828079D01*
X138500767Y-108923552D01*
X138442545Y-109032477D01*
X138406693Y-109150667D01*
X138394587Y-109273580D01*
X138394587Y-110172740D01*
X138406693Y-110295653D01*
X138442545Y-110413843D01*
X138470699Y-110466514D01*
X138435118Y-110533080D01*
X138398808Y-110652778D01*
X138386548Y-110777260D01*
X138389620Y-110941090D01*
X138548370Y-111099840D01*
X139398000Y-111099840D01*
X139398000Y-111079840D01*
X139652000Y-111079840D01*
X139652000Y-111099840D01*
X140998000Y-111099840D01*
X140998000Y-111079840D01*
X141252000Y-111079840D01*
X141252000Y-111099840D01*
X142598000Y-111099840D01*
X142598000Y-111079840D01*
X142852000Y-111079840D01*
X142852000Y-111099840D01*
X142872000Y-111099840D01*
X142872000Y-111353840D01*
X142852000Y-111353840D01*
X142852000Y-112152670D01*
X143002811Y-112303481D01*
X143036998Y-112416180D01*
X143095963Y-112526494D01*
X143175315Y-112623185D01*
X143272006Y-112702537D01*
X143382320Y-112761502D01*
X143502018Y-112797812D01*
X143626500Y-112810072D01*
X144039250Y-112807000D01*
X144198000Y-112648250D01*
X144198000Y-111854500D01*
X144452000Y-111854500D01*
X144452000Y-112648250D01*
X144610750Y-112807000D01*
X145023500Y-112810072D01*
X145147982Y-112797812D01*
X145267680Y-112761502D01*
X145377994Y-112702537D01*
X145474685Y-112623185D01*
X145554037Y-112526494D01*
X145613002Y-112416180D01*
X145649312Y-112296482D01*
X145661572Y-112172000D01*
X145658500Y-112013250D01*
X145499750Y-111854500D01*
X144452000Y-111854500D01*
X144198000Y-111854500D01*
X144178000Y-111854500D01*
X144178000Y-111600500D01*
X144198000Y-111600500D01*
X144198000Y-111580500D01*
X144452000Y-111580500D01*
X144452000Y-111600500D01*
X145499750Y-111600500D01*
X145658500Y-111441750D01*
X145661572Y-111283000D01*
X145649312Y-111158518D01*
X145613002Y-111038820D01*
X145554037Y-110928506D01*
X145474685Y-110831815D01*
X145399150Y-110769825D01*
X145469001Y-110712501D01*
X145547353Y-110617028D01*
X145605575Y-110508103D01*
X145641427Y-110389913D01*
X145653533Y-110267000D01*
X145653533Y-109378000D01*
X145641427Y-109255087D01*
X145605575Y-109136897D01*
X145577000Y-109083437D01*
X145577000Y-107311935D01*
X145580638Y-107274999D01*
X145571755Y-107184810D01*
X145566119Y-107127582D01*
X145523118Y-106985830D01*
X145511923Y-106964886D01*
X145453290Y-106855189D01*
X145382863Y-106769374D01*
X145359317Y-106740683D01*
X145330627Y-106717138D01*
X144944186Y-106330697D01*
X144954665Y-106224300D01*
X144940156Y-106076988D01*
X144908948Y-105974110D01*
X144940156Y-105871232D01*
X144954665Y-105723920D01*
X144940156Y-105576608D01*
X144909334Y-105475000D01*
X144940156Y-105373392D01*
X144954665Y-105226080D01*
X144940156Y-105078768D01*
X144908948Y-104975890D01*
X144940156Y-104873012D01*
X144954665Y-104725700D01*
X144940156Y-104578388D01*
X144913802Y-104491511D01*
X144949680Y-104344126D01*
X144800280Y-104225320D01*
X144949680Y-104106514D01*
X144901595Y-103908983D01*
X144826392Y-103778103D01*
X144727100Y-103664409D01*
X144607535Y-103572271D01*
X144472293Y-103505229D01*
X144326570Y-103465860D01*
X143926140Y-103465860D01*
X143926140Y-103163523D01*
X143915266Y-103053118D01*
X143872297Y-102911468D01*
X143802519Y-102780922D01*
X143740550Y-102705413D01*
X144622740Y-102705413D01*
X144745653Y-102693307D01*
X144863843Y-102657455D01*
X144916514Y-102629301D01*
X144983080Y-102664882D01*
X145102778Y-102701192D01*
X145227260Y-102713452D01*
X145391090Y-102710380D01*
X145549840Y-102551630D01*
X145549840Y-101702000D01*
X145803840Y-101702000D01*
X145803840Y-102551630D01*
X145962590Y-102710380D01*
X146126420Y-102713452D01*
X146250902Y-102701192D01*
X146370600Y-102664882D01*
X146480914Y-102605917D01*
X146577605Y-102526565D01*
X146656957Y-102429874D01*
X146715922Y-102319560D01*
X146752232Y-102199862D01*
X146764492Y-102075380D01*
X146761420Y-101860750D01*
X146602670Y-101702000D01*
X145803840Y-101702000D01*
X145549840Y-101702000D01*
X145529840Y-101702000D01*
X145529840Y-101448000D01*
X145549840Y-101448000D01*
X145549840Y-100598370D01*
X145803840Y-100598370D01*
X145803840Y-101448000D01*
X146602670Y-101448000D01*
X146761420Y-101289250D01*
X146764492Y-101074620D01*
X146752232Y-100950138D01*
X146715922Y-100830440D01*
X146656957Y-100720126D01*
X146577605Y-100623435D01*
X146480914Y-100544083D01*
X146370600Y-100485118D01*
X146250902Y-100448808D01*
X146126420Y-100436548D01*
X145962590Y-100439620D01*
X145803840Y-100598370D01*
X145549840Y-100598370D01*
X145391090Y-100439620D01*
X145227260Y-100436548D01*
X145102778Y-100448808D01*
X144983080Y-100485118D01*
X144916514Y-100520699D01*
X144863843Y-100492545D01*
X144745653Y-100456693D01*
X144713471Y-100453523D01*
X144790806Y-100337783D01*
X144864454Y-100159980D01*
X144902000Y-99971226D01*
X144902000Y-99778774D01*
X144864454Y-99590020D01*
X144790806Y-99412217D01*
X144683885Y-99252199D01*
X144547801Y-99116115D01*
X144387783Y-99009194D01*
X144209980Y-98935546D01*
X144021226Y-98898000D01*
X143828774Y-98898000D01*
X143640020Y-98935546D01*
X143462217Y-99009194D01*
X143302199Y-99116115D01*
X143166115Y-99252199D01*
X143059194Y-99412217D01*
X143045786Y-99444587D01*
X142427260Y-99444587D01*
X142304347Y-99456693D01*
X142186157Y-99492545D01*
X142150160Y-99511786D01*
X142150160Y-99348683D01*
X142959344Y-98539500D01*
X144235154Y-98539500D01*
X144284165Y-98542957D01*
X144349352Y-98534705D01*
X144414819Y-98528257D01*
X144425227Y-98525100D01*
X144436008Y-98523735D01*
X144498346Y-98502919D01*
X144561284Y-98483827D01*
X144570875Y-98478700D01*
X144581184Y-98475258D01*
X144638264Y-98442680D01*
X144696266Y-98411677D01*
X144734267Y-98380491D01*
X145359485Y-97937155D01*
X145383765Y-97924177D01*
X145421754Y-97893001D01*
X145430572Y-97886748D01*
X145451261Y-97868786D01*
X145502080Y-97827080D01*
X145508979Y-97818673D01*
X145517187Y-97811547D01*
X145557466Y-97759592D01*
X145599177Y-97708766D01*
X145604302Y-97699178D01*
X145610963Y-97690586D01*
X145640326Y-97631783D01*
X145671327Y-97573784D01*
X145674485Y-97563374D01*
X145679339Y-97553653D01*
X145696662Y-97490265D01*
X145715757Y-97427319D01*
X145716823Y-97416495D01*
X145719688Y-97406012D01*
X145724311Y-97340464D01*
X145727000Y-97313166D01*
X145727000Y-97302346D01*
X145730457Y-97253335D01*
X145727000Y-97226027D01*
X145727000Y-96898706D01*
X145765020Y-96914454D01*
X145921796Y-96945639D01*
X146373592Y-97397436D01*
X146397920Y-97427080D01*
X146427564Y-97451408D01*
X146427565Y-97451409D01*
X146516233Y-97524177D01*
X146651216Y-97596327D01*
X146797681Y-97640757D01*
X146911834Y-97652000D01*
X146911843Y-97652000D01*
X146949999Y-97655758D01*
X146988155Y-97652000D01*
X147854310Y-97652000D01*
X147987217Y-97740806D01*
X148165020Y-97814454D01*
X148353774Y-97852000D01*
X148546226Y-97852000D01*
X148734980Y-97814454D01*
X148912783Y-97740806D01*
X149045690Y-97652000D01*
X149062652Y-97652000D01*
X149065818Y-97684146D01*
X149155993Y-97981412D01*
X149302428Y-98255373D01*
X149499498Y-98495503D01*
X149739628Y-98692572D01*
X150013589Y-98839007D01*
X150310855Y-98929182D01*
X150620000Y-98959630D01*
X150929146Y-98929182D01*
X151226412Y-98839007D01*
X151500373Y-98692572D01*
X151740503Y-98495503D01*
X151762277Y-98468971D01*
X151727720Y-104654792D01*
X151521799Y-104346609D01*
X151253391Y-104078201D01*
X150937777Y-103867315D01*
X150587085Y-103722053D01*
X150214793Y-103648000D01*
X149835207Y-103648000D01*
X149462915Y-103722053D01*
X149112223Y-103867315D01*
X148796609Y-104078201D01*
X148528201Y-104346609D01*
X148317315Y-104662223D01*
X148172053Y-105012915D01*
X148098000Y-105385207D01*
X148098000Y-105764793D01*
X148172053Y-106137085D01*
X148317315Y-106487777D01*
X148528201Y-106803391D01*
X148796609Y-107071799D01*
X149112223Y-107282685D01*
X149462915Y-107427947D01*
X149835207Y-107502000D01*
X150214793Y-107502000D01*
X150587085Y-107427947D01*
X150937777Y-107282685D01*
X151253391Y-107071799D01*
X151521799Y-106803391D01*
X151717352Y-106510725D01*
X151673708Y-114323000D01*
X135527000Y-114323000D01*
X135527000Y-111676420D01*
X138386548Y-111676420D01*
X138398808Y-111800902D01*
X138435118Y-111920600D01*
X138494083Y-112030914D01*
X138573435Y-112127605D01*
X138670126Y-112206957D01*
X138780440Y-112265922D01*
X138900138Y-112302232D01*
X139024620Y-112314492D01*
X139239250Y-112311420D01*
X139398000Y-112152670D01*
X139398000Y-111353840D01*
X139652000Y-111353840D01*
X139652000Y-112152670D01*
X139810750Y-112311420D01*
X140025380Y-112314492D01*
X140149862Y-112302232D01*
X140269560Y-112265922D01*
X140325000Y-112236288D01*
X140380440Y-112265922D01*
X140500138Y-112302232D01*
X140624620Y-112314492D01*
X140839250Y-112311420D01*
X140998000Y-112152670D01*
X140998000Y-111353840D01*
X141252000Y-111353840D01*
X141252000Y-112152670D01*
X141410750Y-112311420D01*
X141625380Y-112314492D01*
X141749862Y-112302232D01*
X141869560Y-112265922D01*
X141925000Y-112236288D01*
X141980440Y-112265922D01*
X142100138Y-112302232D01*
X142224620Y-112314492D01*
X142439250Y-112311420D01*
X142598000Y-112152670D01*
X142598000Y-111353840D01*
X141252000Y-111353840D01*
X140998000Y-111353840D01*
X139652000Y-111353840D01*
X139398000Y-111353840D01*
X138548370Y-111353840D01*
X138389620Y-111512590D01*
X138386548Y-111676420D01*
X135527000Y-111676420D01*
X135527000Y-106802190D01*
X135696609Y-106971799D01*
X136012223Y-107182685D01*
X136362915Y-107327947D01*
X136735207Y-107402000D01*
X137114793Y-107402000D01*
X137487085Y-107327947D01*
X137837777Y-107182685D01*
X138153391Y-106971799D01*
X138421799Y-106703391D01*
X138632685Y-106387777D01*
X138777947Y-106037085D01*
X138852000Y-105664793D01*
X138852000Y-105285207D01*
X138777947Y-104912915D01*
X138632685Y-104562223D01*
X138421799Y-104246609D01*
X138153391Y-103978201D01*
X137837777Y-103767315D01*
X137487085Y-103622053D01*
X137114793Y-103548000D01*
X136735207Y-103548000D01*
X136362915Y-103622053D01*
X136012223Y-103767315D01*
X135696609Y-103978201D01*
X135527000Y-104147810D01*
X135527000Y-96297531D01*
X135903000Y-96297531D01*
X135903000Y-97452468D01*
X135925818Y-97684145D01*
X136015993Y-97981411D01*
X136162428Y-98255372D01*
X136359497Y-98495503D01*
X136599627Y-98692572D01*
X136873588Y-98839007D01*
X137170854Y-98929182D01*
X137480000Y-98959630D01*
X137789145Y-98929182D01*
X138086411Y-98839007D01*
X138360372Y-98692572D01*
X138600503Y-98495503D01*
X138797572Y-98255373D01*
X138944007Y-97981412D01*
X139034182Y-97684146D01*
X139057000Y-97452469D01*
X139057000Y-96297531D01*
X139034182Y-96065854D01*
X138944007Y-95768588D01*
X138797572Y-95494627D01*
X138600503Y-95254497D01*
X138442710Y-95125000D01*
X139261928Y-95125000D01*
X139274188Y-95249482D01*
X139310498Y-95369180D01*
X139369463Y-95479494D01*
X139448815Y-95576185D01*
X139545506Y-95655537D01*
X139655820Y-95714502D01*
X139775518Y-95750812D01*
X139900000Y-95763072D01*
X140264250Y-95760000D01*
X140423000Y-95601250D01*
X140423000Y-94602000D01*
X139423750Y-94602000D01*
X139265000Y-94760750D01*
X139261928Y-95125000D01*
X138442710Y-95125000D01*
X138360373Y-95057428D01*
X138086412Y-94910993D01*
X137789146Y-94820818D01*
X137480000Y-94790370D01*
X137170855Y-94820818D01*
X136873589Y-94910993D01*
X136599628Y-95057428D01*
X136359498Y-95254497D01*
X136162428Y-95494627D01*
X136015993Y-95768588D01*
X135925818Y-96065854D01*
X135903000Y-96297531D01*
X135527000Y-96297531D01*
X135527000Y-93825000D01*
X139261928Y-93825000D01*
X139265000Y-94189250D01*
X139423750Y-94348000D01*
X140423000Y-94348000D01*
X140423000Y-93348750D01*
X140264250Y-93190000D01*
X139900000Y-93186928D01*
X139775518Y-93199188D01*
X139655820Y-93235498D01*
X139545506Y-93294463D01*
X139448815Y-93373815D01*
X139369463Y-93470506D01*
X139310498Y-93580820D01*
X139274188Y-93700518D01*
X139261928Y-93825000D01*
X135527000Y-93825000D01*
X135527000Y-92752000D01*
X141874055Y-92752000D01*
X141850620Y-92780556D01*
G37*
G04 #@! TD.AperFunction*
D30*
X142926906Y-104461721D02*
X142934158Y-104491511D01*
X142907804Y-104578388D01*
X142893295Y-104725700D01*
X142907804Y-104873012D01*
X142939012Y-104975890D01*
X142907804Y-105078768D01*
X142893295Y-105226080D01*
X142907804Y-105373392D01*
X142938626Y-105475000D01*
X142907804Y-105576608D01*
X142893295Y-105723920D01*
X142907804Y-105871232D01*
X142939012Y-105974110D01*
X142907804Y-106076988D01*
X142893295Y-106224300D01*
X142907804Y-106371612D01*
X142939012Y-106474490D01*
X142936382Y-106483158D01*
X142793106Y-106448280D01*
X142674300Y-106597680D01*
X142555494Y-106448280D01*
X142408109Y-106484158D01*
X142321231Y-106457804D01*
X142173920Y-106443295D01*
X142026608Y-106457804D01*
X141940862Y-106483815D01*
X141794886Y-106448280D01*
X141676080Y-106597680D01*
X141557274Y-106448280D01*
X141409889Y-106484158D01*
X141323011Y-106457804D01*
X141175700Y-106443295D01*
X141028388Y-106457804D01*
X140925510Y-106489012D01*
X140914368Y-106485632D01*
X140910988Y-106474490D01*
X140942196Y-106371612D01*
X140956705Y-106224300D01*
X140942196Y-106076988D01*
X140910988Y-105974110D01*
X140942196Y-105871232D01*
X140956705Y-105723920D01*
X140942196Y-105576608D01*
X140911374Y-105475000D01*
X140942196Y-105373392D01*
X140956705Y-105226080D01*
X140942196Y-105078768D01*
X140910988Y-104975890D01*
X140942196Y-104873012D01*
X140956705Y-104725700D01*
X140942196Y-104578388D01*
X140915842Y-104491511D01*
X140923094Y-104461721D01*
X140925510Y-104460988D01*
X141028388Y-104492196D01*
X141175700Y-104506705D01*
X141323011Y-104492196D01*
X141425890Y-104460988D01*
X141528768Y-104492196D01*
X141676080Y-104506705D01*
X141823391Y-104492196D01*
X141925000Y-104461373D01*
X142026608Y-104492196D01*
X142173920Y-104506705D01*
X142321231Y-104492196D01*
X142424110Y-104460988D01*
X142526988Y-104492196D01*
X142674300Y-104506705D01*
X142821611Y-104492196D01*
X142924490Y-104460988D01*
X142926906Y-104461721D01*
G04 #@! TA.AperFunction,NonConductor*
D31*
G36*
X142926906Y-104461721D02*
G01*
X142934158Y-104491511D01*
X142907804Y-104578388D01*
X142893295Y-104725700D01*
X142907804Y-104873012D01*
X142939012Y-104975890D01*
X142907804Y-105078768D01*
X142893295Y-105226080D01*
X142907804Y-105373392D01*
X142938626Y-105475000D01*
X142907804Y-105576608D01*
X142893295Y-105723920D01*
X142907804Y-105871232D01*
X142939012Y-105974110D01*
X142907804Y-106076988D01*
X142893295Y-106224300D01*
X142907804Y-106371612D01*
X142939012Y-106474490D01*
X142936382Y-106483158D01*
X142793106Y-106448280D01*
X142674300Y-106597680D01*
X142555494Y-106448280D01*
X142408109Y-106484158D01*
X142321231Y-106457804D01*
X142173920Y-106443295D01*
X142026608Y-106457804D01*
X141940862Y-106483815D01*
X141794886Y-106448280D01*
X141676080Y-106597680D01*
X141557274Y-106448280D01*
X141409889Y-106484158D01*
X141323011Y-106457804D01*
X141175700Y-106443295D01*
X141028388Y-106457804D01*
X140925510Y-106489012D01*
X140914368Y-106485632D01*
X140910988Y-106474490D01*
X140942196Y-106371612D01*
X140956705Y-106224300D01*
X140942196Y-106076988D01*
X140910988Y-105974110D01*
X140942196Y-105871232D01*
X140956705Y-105723920D01*
X140942196Y-105576608D01*
X140911374Y-105475000D01*
X140942196Y-105373392D01*
X140956705Y-105226080D01*
X140942196Y-105078768D01*
X140910988Y-104975890D01*
X140942196Y-104873012D01*
X140956705Y-104725700D01*
X140942196Y-104578388D01*
X140915842Y-104491511D01*
X140923094Y-104461721D01*
X140925510Y-104460988D01*
X141028388Y-104492196D01*
X141175700Y-104506705D01*
X141323011Y-104492196D01*
X141425890Y-104460988D01*
X141528768Y-104492196D01*
X141676080Y-104506705D01*
X141823391Y-104492196D01*
X141925000Y-104461373D01*
X142026608Y-104492196D01*
X142173920Y-104506705D01*
X142321231Y-104492196D01*
X142424110Y-104460988D01*
X142526988Y-104492196D01*
X142674300Y-104506705D01*
X142821611Y-104492196D01*
X142924490Y-104460988D01*
X142926906Y-104461721D01*
G37*
G04 #@! TD.AperFunction*
M02*
