G04 #@! TF.GenerationSoftware,KiCad,Pcbnew,5.1.9-73d0e3b20d~88~ubuntu18.04.1*
G04 #@! TF.CreationDate,2021-03-21T23:49:59-07:00*
G04 #@! TF.ProjectId,accelgyro_mpu6050_d2r2_4x4,61636365-6c67-4797-926f-5f6d70753630,rev?*
G04 #@! TF.SameCoordinates,Original*
G04 #@! TF.FileFunction,Soldermask,Bot*
G04 #@! TF.FilePolarity,Negative*
%FSLAX46Y46*%
G04 Gerber Fmt 4.6, Leading zero omitted, Abs format (unit mm)*
G04 Created by KiCad (PCBNEW 5.1.9-73d0e3b20d~88~ubuntu18.04.1) date 2021-03-21 23:49:59*
%MOMM*%
%LPD*%
G01*
G04 APERTURE LIST*
%ADD10C,2.600000*%
%ADD11R,1.300000X1.300000*%
%ADD12C,1.300000*%
%ADD13O,1.900000X2.900000*%
%ADD14R,2.499360X2.499360*%
%ADD15C,1.700000*%
G04 APERTURE END LIST*
D10*
X119025000Y-73900000D03*
D11*
X122650000Y-62900000D03*
D12*
X125150000Y-62900000D03*
X127150000Y-62900000D03*
X129650000Y-62900000D03*
D13*
X119580000Y-65300000D03*
X132720000Y-65300000D03*
D10*
X132125000Y-74000000D03*
D14*
X124025000Y-73900000D03*
D15*
X106800000Y-86900000D03*
X101900000Y-86900000D03*
D10*
X86400000Y-84100000D03*
X114400000Y-84100000D03*
D14*
X91400000Y-84100000D03*
X30600000Y-75800000D03*
D10*
X53600000Y-75800000D03*
D11*
X47056000Y-81448000D03*
D12*
X44556000Y-81448000D03*
X42556000Y-81448000D03*
X40056000Y-81448000D03*
D13*
X50126000Y-79048000D03*
X36986000Y-79048000D03*
D10*
X25600000Y-75800000D03*
D14*
X91400000Y-67100000D03*
D10*
X114400000Y-67100000D03*
D13*
X97786000Y-70348000D03*
X110926000Y-70348000D03*
D12*
X100856000Y-72748000D03*
X103356000Y-72748000D03*
X105356000Y-72748000D03*
D11*
X107856000Y-72748000D03*
D10*
X86400000Y-67100000D03*
X114900000Y-102100000D03*
X86900000Y-102100000D03*
D14*
X109900000Y-102100000D03*
D15*
X99400000Y-99300000D03*
X94500000Y-99300000D03*
D14*
X123925000Y-101050000D03*
D10*
X132025000Y-101150000D03*
D13*
X132620000Y-92450000D03*
X119480000Y-92450000D03*
D12*
X129550000Y-90050000D03*
X127050000Y-90050000D03*
X125050000Y-90050000D03*
D11*
X122550000Y-90050000D03*
D10*
X118925000Y-101050000D03*
M02*
