G04 #@! TF.GenerationSoftware,KiCad,Pcbnew,5.1.9-73d0e3b20d~88~ubuntu18.04.1*
G04 #@! TF.CreationDate,2021-03-21T21:22:27-07:00*
G04 #@! TF.ProjectId,accelgyro_mpu6050_d2r2,61636365-6c67-4797-926f-5f6d70753630,rev?*
G04 #@! TF.SameCoordinates,Original*
G04 #@! TF.FileFunction,Copper,L2,Bot*
G04 #@! TF.FilePolarity,Positive*
%FSLAX46Y46*%
G04 Gerber Fmt 4.6, Leading zero omitted, Abs format (unit mm)*
G04 Created by KiCad (PCBNEW 5.1.9-73d0e3b20d~88~ubuntu18.04.1) date 2021-03-21 21:22:27*
%MOMM*%
%LPD*%
G01*
G04 APERTURE LIST*
G04 #@! TA.AperFunction,ComponentPad*
%ADD10C,0.600000*%
G04 #@! TD*
G04 #@! TA.AperFunction,SMDPad,CuDef*
%ADD11R,2.499360X2.499360*%
G04 #@! TD*
G04 #@! TA.AperFunction,WasherPad*
%ADD12C,1.700000*%
G04 #@! TD*
G04 #@! TA.AperFunction,ViaPad*
%ADD13C,0.700000*%
G04 #@! TD*
G04 #@! TA.AperFunction,Conductor*
%ADD14C,0.200000*%
G04 #@! TD*
G04 #@! TA.AperFunction,Conductor*
%ADD15C,0.250000*%
G04 #@! TD*
G04 #@! TA.AperFunction,Conductor*
%ADD16C,0.300000*%
G04 #@! TD*
G04 #@! TA.AperFunction,Conductor*
%ADD17C,0.500000*%
G04 #@! TD*
G04 #@! TA.AperFunction,Conductor*
%ADD18C,0.254000*%
G04 #@! TD*
G04 #@! TA.AperFunction,Conductor*
%ADD19C,0.150000*%
G04 #@! TD*
G04 APERTURE END LIST*
D10*
X143000000Y-100000000D03*
X143762000Y-99238000D03*
X142238000Y-99238000D03*
X143762000Y-100762000D03*
X142238000Y-100762000D03*
D11*
X143000000Y-100000000D03*
D12*
X153500000Y-102800000D03*
X158400000Y-102800000D03*
D13*
X155000000Y-104450000D03*
X142300000Y-96150000D03*
X145600000Y-96800000D03*
X157000000Y-104500000D03*
X141000000Y-96300000D03*
X147320000Y-95504000D03*
X146800000Y-100200000D03*
X143600000Y-103300000D03*
X140800000Y-103200000D03*
X160650000Y-106800000D03*
X148450000Y-108000000D03*
X162900000Y-107700000D03*
D14*
X153150000Y-104450000D02*
X155000000Y-104450000D01*
X142300000Y-96150000D02*
X143300000Y-95850000D01*
X148400000Y-98500000D02*
X148400000Y-99700000D01*
X148400000Y-99700000D02*
X153150000Y-104450000D01*
X143300000Y-95850000D02*
X145750000Y-95850000D01*
X145750000Y-95850000D02*
X145854000Y-95954000D01*
X145854000Y-95954000D02*
X148400000Y-98500000D01*
D15*
X146050000Y-96150000D02*
X145854000Y-95954000D01*
X145600000Y-96800000D02*
X146050000Y-96150000D01*
D14*
X157000000Y-104500000D02*
X156650001Y-104150001D01*
X156650001Y-104150001D02*
X156100000Y-103600000D01*
X156100000Y-103600000D02*
X154750000Y-103600000D01*
X154750000Y-103600000D02*
X154300000Y-104050000D01*
X154300000Y-104050000D02*
X153200000Y-104050000D01*
X153200000Y-104050000D02*
X148800000Y-99650000D01*
X148800000Y-99650000D02*
X148800000Y-98200000D01*
X145650000Y-95050000D02*
X141750000Y-95050000D01*
X141750000Y-95050000D02*
X141000000Y-95800000D01*
X141000000Y-95800000D02*
X141000000Y-96300000D01*
X148800000Y-98200000D02*
X146712000Y-96112000D01*
D15*
X147320000Y-95504000D02*
X146712000Y-96112000D01*
D14*
X146712000Y-96112000D02*
X145650000Y-95050000D01*
D16*
X142900000Y-103300000D02*
X143600000Y-103300000D01*
X142800000Y-103200000D02*
X142900000Y-103300000D01*
X140800000Y-103200000D02*
X142800000Y-103200000D01*
D17*
X160155026Y-106800000D02*
X159955026Y-107000000D01*
X160650000Y-106800000D02*
X160155026Y-106800000D01*
X159955026Y-107000000D02*
X149900000Y-107000000D01*
X149900000Y-107000000D02*
X148000000Y-105100000D01*
X148000000Y-101400000D02*
X146800000Y-100200000D01*
X148000000Y-105100000D02*
X148000000Y-101400000D01*
X148450000Y-108000000D02*
X148850000Y-108400000D01*
X148850000Y-108400000D02*
X162200000Y-108400000D01*
X162200000Y-108400000D02*
X162900000Y-107700000D01*
D18*
X168673000Y-108873000D02*
X162967265Y-108873000D01*
X163212005Y-108628260D01*
X163362783Y-108565806D01*
X163522801Y-108458885D01*
X163658885Y-108322801D01*
X163765806Y-108162783D01*
X163839454Y-107984980D01*
X163877000Y-107796226D01*
X163877000Y-107603774D01*
X163839454Y-107415020D01*
X163765806Y-107237217D01*
X163658885Y-107077199D01*
X163522801Y-106941115D01*
X163362783Y-106834194D01*
X163184980Y-106760546D01*
X162996226Y-106723000D01*
X162803774Y-106723000D01*
X162615020Y-106760546D01*
X162437217Y-106834194D01*
X162277199Y-106941115D01*
X162141115Y-107077199D01*
X162034194Y-107237217D01*
X161971740Y-107387995D01*
X161836735Y-107523000D01*
X161308686Y-107523000D01*
X161408885Y-107422801D01*
X161515806Y-107262783D01*
X161589454Y-107084980D01*
X161627000Y-106896226D01*
X161627000Y-106703774D01*
X161589454Y-106515020D01*
X161515806Y-106337217D01*
X161408885Y-106177199D01*
X161272801Y-106041115D01*
X161112783Y-105934194D01*
X160934980Y-105860546D01*
X160746226Y-105823000D01*
X160553774Y-105823000D01*
X160365020Y-105860546D01*
X160214242Y-105923000D01*
X160198105Y-105923000D01*
X160155026Y-105918757D01*
X159983103Y-105935690D01*
X159817789Y-105985838D01*
X159665434Y-106067273D01*
X159597530Y-106123000D01*
X150263266Y-106123000D01*
X148877000Y-104736735D01*
X148877000Y-101443069D01*
X148881242Y-101399999D01*
X148877000Y-101356930D01*
X148877000Y-101356921D01*
X148864310Y-101228078D01*
X148848793Y-101176925D01*
X152610679Y-104938812D01*
X152633446Y-104966554D01*
X152744147Y-105057403D01*
X152870443Y-105124910D01*
X153007483Y-105166480D01*
X153114292Y-105177000D01*
X153114294Y-105177000D01*
X153149999Y-105180517D01*
X153185705Y-105177000D01*
X154345314Y-105177000D01*
X154377199Y-105208885D01*
X154537217Y-105315806D01*
X154715020Y-105389454D01*
X154903774Y-105427000D01*
X155096226Y-105427000D01*
X155284980Y-105389454D01*
X155462783Y-105315806D01*
X155622801Y-105208885D01*
X155758885Y-105072801D01*
X155865806Y-104912783D01*
X155939454Y-104734980D01*
X155977000Y-104546226D01*
X155977000Y-104505133D01*
X156023000Y-104551134D01*
X156023000Y-104596226D01*
X156060546Y-104784980D01*
X156134194Y-104962783D01*
X156241115Y-105122801D01*
X156377199Y-105258885D01*
X156537217Y-105365806D01*
X156715020Y-105439454D01*
X156903774Y-105477000D01*
X157096226Y-105477000D01*
X157284980Y-105439454D01*
X157462783Y-105365806D01*
X157622801Y-105258885D01*
X157758885Y-105122801D01*
X157865806Y-104962783D01*
X157939454Y-104784980D01*
X157977000Y-104596226D01*
X157977000Y-104403774D01*
X157939454Y-104215020D01*
X157935909Y-104206461D01*
X157969175Y-104220240D01*
X158254528Y-104277000D01*
X158545472Y-104277000D01*
X158830825Y-104220240D01*
X159099622Y-104108901D01*
X159341533Y-103947261D01*
X159547261Y-103741533D01*
X159708901Y-103499622D01*
X159820240Y-103230825D01*
X159877000Y-102945472D01*
X159877000Y-102654528D01*
X159820240Y-102369175D01*
X159708901Y-102100378D01*
X159547261Y-101858467D01*
X159341533Y-101652739D01*
X159099622Y-101491099D01*
X158830825Y-101379760D01*
X158545472Y-101323000D01*
X158254528Y-101323000D01*
X157969175Y-101379760D01*
X157700378Y-101491099D01*
X157458467Y-101652739D01*
X157252739Y-101858467D01*
X157091099Y-102100378D01*
X156979760Y-102369175D01*
X156923000Y-102654528D01*
X156923000Y-102945472D01*
X156979760Y-103230825D01*
X157091099Y-103499622D01*
X157108328Y-103525407D01*
X157096226Y-103523000D01*
X157051134Y-103523000D01*
X156639325Y-103111193D01*
X156616554Y-103083446D01*
X156505853Y-102992597D01*
X156379557Y-102925090D01*
X156242517Y-102883520D01*
X156135708Y-102873000D01*
X156100000Y-102869483D01*
X156064292Y-102873000D01*
X154977000Y-102873000D01*
X154977000Y-102654528D01*
X154920240Y-102369175D01*
X154808901Y-102100378D01*
X154647261Y-101858467D01*
X154441533Y-101652739D01*
X154199622Y-101491099D01*
X153930825Y-101379760D01*
X153645472Y-101323000D01*
X153354528Y-101323000D01*
X153069175Y-101379760D01*
X152800378Y-101491099D01*
X152558467Y-101652739D01*
X152352739Y-101858467D01*
X152226111Y-102047978D01*
X149988340Y-99810207D01*
X164073000Y-99810207D01*
X164073000Y-100189793D01*
X164147053Y-100562085D01*
X164292315Y-100912777D01*
X164503201Y-101228391D01*
X164771609Y-101496799D01*
X165087223Y-101707685D01*
X165437915Y-101852947D01*
X165810207Y-101927000D01*
X166189793Y-101927000D01*
X166562085Y-101852947D01*
X166912777Y-101707685D01*
X167228391Y-101496799D01*
X167496799Y-101228391D01*
X167707685Y-100912777D01*
X167852947Y-100562085D01*
X167927000Y-100189793D01*
X167927000Y-99810207D01*
X167852947Y-99437915D01*
X167707685Y-99087223D01*
X167496799Y-98771609D01*
X167228391Y-98503201D01*
X166912777Y-98292315D01*
X166562085Y-98147053D01*
X166189793Y-98073000D01*
X165810207Y-98073000D01*
X165437915Y-98147053D01*
X165087223Y-98292315D01*
X164771609Y-98503201D01*
X164503201Y-98771609D01*
X164292315Y-99087223D01*
X164147053Y-99437915D01*
X164073000Y-99810207D01*
X149988340Y-99810207D01*
X149527000Y-99348868D01*
X149527000Y-98235708D01*
X149530517Y-98200000D01*
X149516480Y-98057482D01*
X149474910Y-97920443D01*
X149407402Y-97794146D01*
X149339316Y-97711182D01*
X149316554Y-97683446D01*
X149288817Y-97660683D01*
X147911759Y-96283627D01*
X147942801Y-96262885D01*
X148078885Y-96126801D01*
X148185806Y-95966783D01*
X148259454Y-95788980D01*
X148297000Y-95600226D01*
X148297000Y-95407774D01*
X148259454Y-95219020D01*
X148185806Y-95041217D01*
X148078885Y-94881199D01*
X147942801Y-94745115D01*
X147782783Y-94638194D01*
X147604980Y-94564546D01*
X147416226Y-94527000D01*
X147223774Y-94527000D01*
X147035020Y-94564546D01*
X146857217Y-94638194D01*
X146697199Y-94745115D01*
X146561115Y-94881199D01*
X146540373Y-94912241D01*
X146189325Y-94561193D01*
X146166554Y-94533446D01*
X146055853Y-94442597D01*
X145929557Y-94375090D01*
X145792517Y-94333520D01*
X145685708Y-94323000D01*
X145650000Y-94319483D01*
X145614292Y-94323000D01*
X141785707Y-94323000D01*
X141749999Y-94319483D01*
X141607482Y-94333520D01*
X141575587Y-94343195D01*
X141470443Y-94375090D01*
X141344147Y-94442597D01*
X141233446Y-94533446D01*
X141210679Y-94561189D01*
X140511189Y-95260679D01*
X140483446Y-95283447D01*
X140392597Y-95394148D01*
X140354628Y-95465183D01*
X140325090Y-95520444D01*
X140293399Y-95624915D01*
X140241115Y-95677199D01*
X140134194Y-95837217D01*
X140060546Y-96015020D01*
X140023000Y-96203774D01*
X140023000Y-96396226D01*
X140060546Y-96584980D01*
X140134194Y-96762783D01*
X140241115Y-96922801D01*
X140377199Y-97058885D01*
X140537217Y-97165806D01*
X140715020Y-97239454D01*
X140903774Y-97277000D01*
X141096226Y-97277000D01*
X141284980Y-97239454D01*
X141462783Y-97165806D01*
X141622801Y-97058885D01*
X141734508Y-96947178D01*
X141837217Y-97015806D01*
X142015020Y-97089454D01*
X142203774Y-97127000D01*
X142396226Y-97127000D01*
X142584980Y-97089454D01*
X142762783Y-97015806D01*
X142922801Y-96908885D01*
X143058885Y-96772801D01*
X143135316Y-96658415D01*
X143406698Y-96577000D01*
X144648217Y-96577000D01*
X144623000Y-96703774D01*
X144623000Y-96896226D01*
X144660546Y-97084980D01*
X144734194Y-97262783D01*
X144841115Y-97422801D01*
X144977199Y-97558885D01*
X145137217Y-97665806D01*
X145315020Y-97739454D01*
X145503774Y-97777000D01*
X145696226Y-97777000D01*
X145884980Y-97739454D01*
X146062783Y-97665806D01*
X146222801Y-97558885D01*
X146326777Y-97454909D01*
X147673000Y-98801134D01*
X147673001Y-99664282D01*
X147669483Y-99700000D01*
X147675439Y-99760474D01*
X147665806Y-99737217D01*
X147558885Y-99577199D01*
X147422801Y-99441115D01*
X147262783Y-99334194D01*
X147084980Y-99260546D01*
X146896226Y-99223000D01*
X146703774Y-99223000D01*
X146515020Y-99260546D01*
X146337217Y-99334194D01*
X146177199Y-99441115D01*
X146041115Y-99577199D01*
X145934194Y-99737217D01*
X145860546Y-99915020D01*
X145823000Y-100103774D01*
X145823000Y-100296226D01*
X145860546Y-100484980D01*
X145934194Y-100662783D01*
X146041115Y-100822801D01*
X146177199Y-100958885D01*
X146337217Y-101065806D01*
X146487995Y-101128260D01*
X147123001Y-101763266D01*
X147123000Y-105056920D01*
X147118757Y-105100000D01*
X147123000Y-105143078D01*
X147135690Y-105271921D01*
X147185838Y-105437236D01*
X147267273Y-105589591D01*
X147376867Y-105723133D01*
X147410332Y-105750597D01*
X148716630Y-107056896D01*
X148546226Y-107023000D01*
X148353774Y-107023000D01*
X148165020Y-107060546D01*
X147987217Y-107134194D01*
X147827199Y-107241115D01*
X147691115Y-107377199D01*
X147584194Y-107537217D01*
X147510546Y-107715020D01*
X147473000Y-107903774D01*
X147473000Y-108096226D01*
X147510546Y-108284980D01*
X147584194Y-108462783D01*
X147691115Y-108622801D01*
X147827199Y-108758885D01*
X147987217Y-108865806D01*
X148004585Y-108873000D01*
X135677000Y-108873000D01*
X135677000Y-103103774D01*
X139823000Y-103103774D01*
X139823000Y-103296226D01*
X139860546Y-103484980D01*
X139934194Y-103662783D01*
X140041115Y-103822801D01*
X140177199Y-103958885D01*
X140337217Y-104065806D01*
X140515020Y-104139454D01*
X140703774Y-104177000D01*
X140896226Y-104177000D01*
X141084980Y-104139454D01*
X141262783Y-104065806D01*
X141395690Y-103977000D01*
X142518287Y-103977000D01*
X142601216Y-104021327D01*
X142747681Y-104065757D01*
X142861834Y-104077000D01*
X142861844Y-104077000D01*
X142899999Y-104080758D01*
X142938155Y-104077000D01*
X143004310Y-104077000D01*
X143137217Y-104165806D01*
X143315020Y-104239454D01*
X143503774Y-104277000D01*
X143696226Y-104277000D01*
X143884980Y-104239454D01*
X144062783Y-104165806D01*
X144222801Y-104058885D01*
X144358885Y-103922801D01*
X144465806Y-103762783D01*
X144539454Y-103584980D01*
X144577000Y-103396226D01*
X144577000Y-103203774D01*
X144539454Y-103015020D01*
X144465806Y-102837217D01*
X144358885Y-102677199D01*
X144222801Y-102541115D01*
X144062783Y-102434194D01*
X143884980Y-102360546D01*
X143696226Y-102323000D01*
X143503774Y-102323000D01*
X143315020Y-102360546D01*
X143137217Y-102434194D01*
X143079434Y-102472803D01*
X142952319Y-102434243D01*
X142838166Y-102423000D01*
X142838163Y-102423000D01*
X142800000Y-102419241D01*
X142761837Y-102423000D01*
X141395690Y-102423000D01*
X141262783Y-102334194D01*
X141084980Y-102260546D01*
X140896226Y-102223000D01*
X140703774Y-102223000D01*
X140515020Y-102260546D01*
X140337217Y-102334194D01*
X140177199Y-102441115D01*
X140041115Y-102577199D01*
X139934194Y-102737217D01*
X139860546Y-102915020D01*
X139823000Y-103103774D01*
X135677000Y-103103774D01*
X135677000Y-99810207D01*
X136073000Y-99810207D01*
X136073000Y-100189793D01*
X136147053Y-100562085D01*
X136292315Y-100912777D01*
X136503201Y-101228391D01*
X136771609Y-101496799D01*
X137087223Y-101707685D01*
X137437915Y-101852947D01*
X137810207Y-101927000D01*
X138189793Y-101927000D01*
X138562085Y-101852947D01*
X138912777Y-101707685D01*
X139228391Y-101496799D01*
X139496799Y-101228391D01*
X139707685Y-100912777D01*
X139852947Y-100562085D01*
X139927000Y-100189793D01*
X139927000Y-99810207D01*
X139852947Y-99437915D01*
X139707685Y-99087223D01*
X139496799Y-98771609D01*
X139228391Y-98503201D01*
X138912777Y-98292315D01*
X138562085Y-98147053D01*
X138189793Y-98073000D01*
X137810207Y-98073000D01*
X137437915Y-98147053D01*
X137087223Y-98292315D01*
X136771609Y-98503201D01*
X136503201Y-98771609D01*
X136292315Y-99087223D01*
X136147053Y-99437915D01*
X136073000Y-99810207D01*
X135677000Y-99810207D01*
X135677000Y-92677000D01*
X168673000Y-92677000D01*
X168673000Y-108873000D01*
G04 #@! TA.AperFunction,Conductor*
D19*
G36*
X168673000Y-108873000D02*
G01*
X162967265Y-108873000D01*
X163212005Y-108628260D01*
X163362783Y-108565806D01*
X163522801Y-108458885D01*
X163658885Y-108322801D01*
X163765806Y-108162783D01*
X163839454Y-107984980D01*
X163877000Y-107796226D01*
X163877000Y-107603774D01*
X163839454Y-107415020D01*
X163765806Y-107237217D01*
X163658885Y-107077199D01*
X163522801Y-106941115D01*
X163362783Y-106834194D01*
X163184980Y-106760546D01*
X162996226Y-106723000D01*
X162803774Y-106723000D01*
X162615020Y-106760546D01*
X162437217Y-106834194D01*
X162277199Y-106941115D01*
X162141115Y-107077199D01*
X162034194Y-107237217D01*
X161971740Y-107387995D01*
X161836735Y-107523000D01*
X161308686Y-107523000D01*
X161408885Y-107422801D01*
X161515806Y-107262783D01*
X161589454Y-107084980D01*
X161627000Y-106896226D01*
X161627000Y-106703774D01*
X161589454Y-106515020D01*
X161515806Y-106337217D01*
X161408885Y-106177199D01*
X161272801Y-106041115D01*
X161112783Y-105934194D01*
X160934980Y-105860546D01*
X160746226Y-105823000D01*
X160553774Y-105823000D01*
X160365020Y-105860546D01*
X160214242Y-105923000D01*
X160198105Y-105923000D01*
X160155026Y-105918757D01*
X159983103Y-105935690D01*
X159817789Y-105985838D01*
X159665434Y-106067273D01*
X159597530Y-106123000D01*
X150263266Y-106123000D01*
X148877000Y-104736735D01*
X148877000Y-101443069D01*
X148881242Y-101399999D01*
X148877000Y-101356930D01*
X148877000Y-101356921D01*
X148864310Y-101228078D01*
X148848793Y-101176925D01*
X152610679Y-104938812D01*
X152633446Y-104966554D01*
X152744147Y-105057403D01*
X152870443Y-105124910D01*
X153007483Y-105166480D01*
X153114292Y-105177000D01*
X153114294Y-105177000D01*
X153149999Y-105180517D01*
X153185705Y-105177000D01*
X154345314Y-105177000D01*
X154377199Y-105208885D01*
X154537217Y-105315806D01*
X154715020Y-105389454D01*
X154903774Y-105427000D01*
X155096226Y-105427000D01*
X155284980Y-105389454D01*
X155462783Y-105315806D01*
X155622801Y-105208885D01*
X155758885Y-105072801D01*
X155865806Y-104912783D01*
X155939454Y-104734980D01*
X155977000Y-104546226D01*
X155977000Y-104505133D01*
X156023000Y-104551134D01*
X156023000Y-104596226D01*
X156060546Y-104784980D01*
X156134194Y-104962783D01*
X156241115Y-105122801D01*
X156377199Y-105258885D01*
X156537217Y-105365806D01*
X156715020Y-105439454D01*
X156903774Y-105477000D01*
X157096226Y-105477000D01*
X157284980Y-105439454D01*
X157462783Y-105365806D01*
X157622801Y-105258885D01*
X157758885Y-105122801D01*
X157865806Y-104962783D01*
X157939454Y-104784980D01*
X157977000Y-104596226D01*
X157977000Y-104403774D01*
X157939454Y-104215020D01*
X157935909Y-104206461D01*
X157969175Y-104220240D01*
X158254528Y-104277000D01*
X158545472Y-104277000D01*
X158830825Y-104220240D01*
X159099622Y-104108901D01*
X159341533Y-103947261D01*
X159547261Y-103741533D01*
X159708901Y-103499622D01*
X159820240Y-103230825D01*
X159877000Y-102945472D01*
X159877000Y-102654528D01*
X159820240Y-102369175D01*
X159708901Y-102100378D01*
X159547261Y-101858467D01*
X159341533Y-101652739D01*
X159099622Y-101491099D01*
X158830825Y-101379760D01*
X158545472Y-101323000D01*
X158254528Y-101323000D01*
X157969175Y-101379760D01*
X157700378Y-101491099D01*
X157458467Y-101652739D01*
X157252739Y-101858467D01*
X157091099Y-102100378D01*
X156979760Y-102369175D01*
X156923000Y-102654528D01*
X156923000Y-102945472D01*
X156979760Y-103230825D01*
X157091099Y-103499622D01*
X157108328Y-103525407D01*
X157096226Y-103523000D01*
X157051134Y-103523000D01*
X156639325Y-103111193D01*
X156616554Y-103083446D01*
X156505853Y-102992597D01*
X156379557Y-102925090D01*
X156242517Y-102883520D01*
X156135708Y-102873000D01*
X156100000Y-102869483D01*
X156064292Y-102873000D01*
X154977000Y-102873000D01*
X154977000Y-102654528D01*
X154920240Y-102369175D01*
X154808901Y-102100378D01*
X154647261Y-101858467D01*
X154441533Y-101652739D01*
X154199622Y-101491099D01*
X153930825Y-101379760D01*
X153645472Y-101323000D01*
X153354528Y-101323000D01*
X153069175Y-101379760D01*
X152800378Y-101491099D01*
X152558467Y-101652739D01*
X152352739Y-101858467D01*
X152226111Y-102047978D01*
X149988340Y-99810207D01*
X164073000Y-99810207D01*
X164073000Y-100189793D01*
X164147053Y-100562085D01*
X164292315Y-100912777D01*
X164503201Y-101228391D01*
X164771609Y-101496799D01*
X165087223Y-101707685D01*
X165437915Y-101852947D01*
X165810207Y-101927000D01*
X166189793Y-101927000D01*
X166562085Y-101852947D01*
X166912777Y-101707685D01*
X167228391Y-101496799D01*
X167496799Y-101228391D01*
X167707685Y-100912777D01*
X167852947Y-100562085D01*
X167927000Y-100189793D01*
X167927000Y-99810207D01*
X167852947Y-99437915D01*
X167707685Y-99087223D01*
X167496799Y-98771609D01*
X167228391Y-98503201D01*
X166912777Y-98292315D01*
X166562085Y-98147053D01*
X166189793Y-98073000D01*
X165810207Y-98073000D01*
X165437915Y-98147053D01*
X165087223Y-98292315D01*
X164771609Y-98503201D01*
X164503201Y-98771609D01*
X164292315Y-99087223D01*
X164147053Y-99437915D01*
X164073000Y-99810207D01*
X149988340Y-99810207D01*
X149527000Y-99348868D01*
X149527000Y-98235708D01*
X149530517Y-98200000D01*
X149516480Y-98057482D01*
X149474910Y-97920443D01*
X149407402Y-97794146D01*
X149339316Y-97711182D01*
X149316554Y-97683446D01*
X149288817Y-97660683D01*
X147911759Y-96283627D01*
X147942801Y-96262885D01*
X148078885Y-96126801D01*
X148185806Y-95966783D01*
X148259454Y-95788980D01*
X148297000Y-95600226D01*
X148297000Y-95407774D01*
X148259454Y-95219020D01*
X148185806Y-95041217D01*
X148078885Y-94881199D01*
X147942801Y-94745115D01*
X147782783Y-94638194D01*
X147604980Y-94564546D01*
X147416226Y-94527000D01*
X147223774Y-94527000D01*
X147035020Y-94564546D01*
X146857217Y-94638194D01*
X146697199Y-94745115D01*
X146561115Y-94881199D01*
X146540373Y-94912241D01*
X146189325Y-94561193D01*
X146166554Y-94533446D01*
X146055853Y-94442597D01*
X145929557Y-94375090D01*
X145792517Y-94333520D01*
X145685708Y-94323000D01*
X145650000Y-94319483D01*
X145614292Y-94323000D01*
X141785707Y-94323000D01*
X141749999Y-94319483D01*
X141607482Y-94333520D01*
X141575587Y-94343195D01*
X141470443Y-94375090D01*
X141344147Y-94442597D01*
X141233446Y-94533446D01*
X141210679Y-94561189D01*
X140511189Y-95260679D01*
X140483446Y-95283447D01*
X140392597Y-95394148D01*
X140354628Y-95465183D01*
X140325090Y-95520444D01*
X140293399Y-95624915D01*
X140241115Y-95677199D01*
X140134194Y-95837217D01*
X140060546Y-96015020D01*
X140023000Y-96203774D01*
X140023000Y-96396226D01*
X140060546Y-96584980D01*
X140134194Y-96762783D01*
X140241115Y-96922801D01*
X140377199Y-97058885D01*
X140537217Y-97165806D01*
X140715020Y-97239454D01*
X140903774Y-97277000D01*
X141096226Y-97277000D01*
X141284980Y-97239454D01*
X141462783Y-97165806D01*
X141622801Y-97058885D01*
X141734508Y-96947178D01*
X141837217Y-97015806D01*
X142015020Y-97089454D01*
X142203774Y-97127000D01*
X142396226Y-97127000D01*
X142584980Y-97089454D01*
X142762783Y-97015806D01*
X142922801Y-96908885D01*
X143058885Y-96772801D01*
X143135316Y-96658415D01*
X143406698Y-96577000D01*
X144648217Y-96577000D01*
X144623000Y-96703774D01*
X144623000Y-96896226D01*
X144660546Y-97084980D01*
X144734194Y-97262783D01*
X144841115Y-97422801D01*
X144977199Y-97558885D01*
X145137217Y-97665806D01*
X145315020Y-97739454D01*
X145503774Y-97777000D01*
X145696226Y-97777000D01*
X145884980Y-97739454D01*
X146062783Y-97665806D01*
X146222801Y-97558885D01*
X146326777Y-97454909D01*
X147673000Y-98801134D01*
X147673001Y-99664282D01*
X147669483Y-99700000D01*
X147675439Y-99760474D01*
X147665806Y-99737217D01*
X147558885Y-99577199D01*
X147422801Y-99441115D01*
X147262783Y-99334194D01*
X147084980Y-99260546D01*
X146896226Y-99223000D01*
X146703774Y-99223000D01*
X146515020Y-99260546D01*
X146337217Y-99334194D01*
X146177199Y-99441115D01*
X146041115Y-99577199D01*
X145934194Y-99737217D01*
X145860546Y-99915020D01*
X145823000Y-100103774D01*
X145823000Y-100296226D01*
X145860546Y-100484980D01*
X145934194Y-100662783D01*
X146041115Y-100822801D01*
X146177199Y-100958885D01*
X146337217Y-101065806D01*
X146487995Y-101128260D01*
X147123001Y-101763266D01*
X147123000Y-105056920D01*
X147118757Y-105100000D01*
X147123000Y-105143078D01*
X147135690Y-105271921D01*
X147185838Y-105437236D01*
X147267273Y-105589591D01*
X147376867Y-105723133D01*
X147410332Y-105750597D01*
X148716630Y-107056896D01*
X148546226Y-107023000D01*
X148353774Y-107023000D01*
X148165020Y-107060546D01*
X147987217Y-107134194D01*
X147827199Y-107241115D01*
X147691115Y-107377199D01*
X147584194Y-107537217D01*
X147510546Y-107715020D01*
X147473000Y-107903774D01*
X147473000Y-108096226D01*
X147510546Y-108284980D01*
X147584194Y-108462783D01*
X147691115Y-108622801D01*
X147827199Y-108758885D01*
X147987217Y-108865806D01*
X148004585Y-108873000D01*
X135677000Y-108873000D01*
X135677000Y-103103774D01*
X139823000Y-103103774D01*
X139823000Y-103296226D01*
X139860546Y-103484980D01*
X139934194Y-103662783D01*
X140041115Y-103822801D01*
X140177199Y-103958885D01*
X140337217Y-104065806D01*
X140515020Y-104139454D01*
X140703774Y-104177000D01*
X140896226Y-104177000D01*
X141084980Y-104139454D01*
X141262783Y-104065806D01*
X141395690Y-103977000D01*
X142518287Y-103977000D01*
X142601216Y-104021327D01*
X142747681Y-104065757D01*
X142861834Y-104077000D01*
X142861844Y-104077000D01*
X142899999Y-104080758D01*
X142938155Y-104077000D01*
X143004310Y-104077000D01*
X143137217Y-104165806D01*
X143315020Y-104239454D01*
X143503774Y-104277000D01*
X143696226Y-104277000D01*
X143884980Y-104239454D01*
X144062783Y-104165806D01*
X144222801Y-104058885D01*
X144358885Y-103922801D01*
X144465806Y-103762783D01*
X144539454Y-103584980D01*
X144577000Y-103396226D01*
X144577000Y-103203774D01*
X144539454Y-103015020D01*
X144465806Y-102837217D01*
X144358885Y-102677199D01*
X144222801Y-102541115D01*
X144062783Y-102434194D01*
X143884980Y-102360546D01*
X143696226Y-102323000D01*
X143503774Y-102323000D01*
X143315020Y-102360546D01*
X143137217Y-102434194D01*
X143079434Y-102472803D01*
X142952319Y-102434243D01*
X142838166Y-102423000D01*
X142838163Y-102423000D01*
X142800000Y-102419241D01*
X142761837Y-102423000D01*
X141395690Y-102423000D01*
X141262783Y-102334194D01*
X141084980Y-102260546D01*
X140896226Y-102223000D01*
X140703774Y-102223000D01*
X140515020Y-102260546D01*
X140337217Y-102334194D01*
X140177199Y-102441115D01*
X140041115Y-102577199D01*
X139934194Y-102737217D01*
X139860546Y-102915020D01*
X139823000Y-103103774D01*
X135677000Y-103103774D01*
X135677000Y-99810207D01*
X136073000Y-99810207D01*
X136073000Y-100189793D01*
X136147053Y-100562085D01*
X136292315Y-100912777D01*
X136503201Y-101228391D01*
X136771609Y-101496799D01*
X137087223Y-101707685D01*
X137437915Y-101852947D01*
X137810207Y-101927000D01*
X138189793Y-101927000D01*
X138562085Y-101852947D01*
X138912777Y-101707685D01*
X139228391Y-101496799D01*
X139496799Y-101228391D01*
X139707685Y-100912777D01*
X139852947Y-100562085D01*
X139927000Y-100189793D01*
X139927000Y-99810207D01*
X139852947Y-99437915D01*
X139707685Y-99087223D01*
X139496799Y-98771609D01*
X139228391Y-98503201D01*
X138912777Y-98292315D01*
X138562085Y-98147053D01*
X138189793Y-98073000D01*
X137810207Y-98073000D01*
X137437915Y-98147053D01*
X137087223Y-98292315D01*
X136771609Y-98503201D01*
X136503201Y-98771609D01*
X136292315Y-99087223D01*
X136147053Y-99437915D01*
X136073000Y-99810207D01*
X135677000Y-99810207D01*
X135677000Y-92677000D01*
X168673000Y-92677000D01*
X168673000Y-108873000D01*
G37*
G04 #@! TD.AperFunction*
M02*
