M48
; DRILL file {KiCad 5.1.9-73d0e3b20d~88~ubuntu18.04.1} date Sun Mar 21 21:22:22 2021
; FORMAT={-:-/ absolute / metric / decimal}
; #@! TF.CreationDate,2021-03-21T21:22:22-07:00
; #@! TF.GenerationSoftware,Kicad,Pcbnew,5.1.9-73d0e3b20d~88~ubuntu18.04.1
FMAT,2
METRIC
T1C0.400
T2C0.500
T3C1.300
T4C2.600
%
G90
G05
T1
X140.8Y-103.2
X141.0Y-96.3
X142.3Y-96.15
X143.6Y-103.3
X145.6Y-96.8
X146.8Y-100.2
X147.32Y-95.504
X148.45Y-108.0
X155.0Y-104.45
X157.0Y-104.5
X160.65Y-106.8
X162.9Y-107.7
T2
X142.238Y-99.238
X142.238Y-100.762
X143.0Y-100.0
X143.762Y-99.238
X143.762Y-100.762
T3
X153.5Y-102.8
X158.4Y-102.8
T4
X138.0Y-100.0
X166.0Y-100.0
T0
M30
