G04 #@! TF.GenerationSoftware,KiCad,Pcbnew,5.1.9-73d0e3b20d~88~ubuntu18.04.1*
G04 #@! TF.CreationDate,2021-03-21T23:49:59-07:00*
G04 #@! TF.ProjectId,accelgyro_mpu6050_d2r2_4x4,61636365-6c67-4797-926f-5f6d70753630,rev?*
G04 #@! TF.SameCoordinates,Original*
G04 #@! TF.FileFunction,Legend,Top*
G04 #@! TF.FilePolarity,Positive*
%FSLAX46Y46*%
G04 Gerber Fmt 4.6, Leading zero omitted, Abs format (unit mm)*
G04 Created by KiCad (PCBNEW 5.1.9-73d0e3b20d~88~ubuntu18.04.1) date 2021-03-21 23:49:59*
%MOMM*%
%LPD*%
G01*
G04 APERTURE LIST*
%ADD10C,0.250000*%
%ADD11C,0.125000*%
%ADD12C,0.200000*%
%ADD13C,0.120000*%
%ADD14C,0.127000*%
%ADD15C,0.149860*%
%ADD16C,0.200660*%
%ADD17C,0.150000*%
%ADD18C,0.099060*%
G04 APERTURE END LIST*
D10*
X129115476Y-68121428D02*
X129877380Y-68121428D01*
X129496428Y-68502380D02*
X129496428Y-67740476D01*
X130544047Y-68026190D02*
X130544047Y-68502380D01*
X130210714Y-67502380D02*
X130544047Y-68026190D01*
X130877380Y-67502380D01*
X117167857Y-76471428D02*
X117929761Y-76471428D01*
X118310714Y-75852380D02*
X118977380Y-76852380D01*
X118977380Y-75852380D02*
X118310714Y-76852380D01*
D11*
X132741666Y-82465476D02*
X132741666Y-81970238D01*
X133008333Y-82236904D01*
X133008333Y-82122619D01*
X133041666Y-82046428D01*
X133075000Y-82008333D01*
X133141666Y-81970238D01*
X133308333Y-81970238D01*
X133375000Y-82008333D01*
X133408333Y-82046428D01*
X133441666Y-82122619D01*
X133441666Y-82351190D01*
X133408333Y-82427380D01*
X133375000Y-82465476D01*
X132708333Y-81055952D02*
X133608333Y-81741666D01*
X132808333Y-80827380D02*
X132775000Y-80789285D01*
X132741666Y-80713095D01*
X132741666Y-80522619D01*
X132775000Y-80446428D01*
X132808333Y-80408333D01*
X132875000Y-80370238D01*
X132941666Y-80370238D01*
X133041666Y-80408333D01*
X133441666Y-80865476D01*
X133441666Y-80370238D01*
X133441666Y-79608333D02*
X133441666Y-80065476D01*
X133441666Y-79836904D02*
X132741666Y-79836904D01*
X132841666Y-79913095D01*
X132908333Y-79989285D01*
X132941666Y-80065476D01*
X132708333Y-78694047D02*
X133608333Y-79379761D01*
X132808333Y-78465476D02*
X132775000Y-78427380D01*
X132741666Y-78351190D01*
X132741666Y-78160714D01*
X132775000Y-78084523D01*
X132808333Y-78046428D01*
X132875000Y-78008333D01*
X132941666Y-78008333D01*
X133041666Y-78046428D01*
X133441666Y-78503571D01*
X133441666Y-78008333D01*
X132741666Y-77513095D02*
X132741666Y-77436904D01*
X132775000Y-77360714D01*
X132808333Y-77322619D01*
X132875000Y-77284523D01*
X133008333Y-77246428D01*
X133175000Y-77246428D01*
X133308333Y-77284523D01*
X133375000Y-77322619D01*
X133408333Y-77360714D01*
X133441666Y-77436904D01*
X133441666Y-77513095D01*
X133408333Y-77589285D01*
X133375000Y-77627380D01*
X133308333Y-77665476D01*
X133175000Y-77703571D01*
X133008333Y-77703571D01*
X132875000Y-77665476D01*
X132808333Y-77627380D01*
X132775000Y-77589285D01*
X132741666Y-77513095D01*
X132808333Y-76941666D02*
X132775000Y-76903571D01*
X132741666Y-76827380D01*
X132741666Y-76636904D01*
X132775000Y-76560714D01*
X132808333Y-76522619D01*
X132875000Y-76484523D01*
X132941666Y-76484523D01*
X133041666Y-76522619D01*
X133441666Y-76979761D01*
X133441666Y-76484523D01*
X133441666Y-75722619D02*
X133441666Y-76179761D01*
X133441666Y-75951190D02*
X132741666Y-75951190D01*
X132841666Y-76027380D01*
X132908333Y-76103571D01*
X132941666Y-76179761D01*
D10*
X127967857Y-73471428D02*
X128729761Y-73471428D01*
X128348809Y-73852380D02*
X128348809Y-73090476D01*
X129110714Y-72852380D02*
X129777380Y-73852380D01*
X129777380Y-72852380D02*
X129110714Y-73852380D01*
X125365476Y-81921428D02*
X126127380Y-81921428D01*
X126794047Y-81826190D02*
X126794047Y-82302380D01*
X126460714Y-81302380D02*
X126794047Y-81826190D01*
X127127380Y-81302380D01*
D12*
X117125000Y-82900000D02*
X133925000Y-82900000D01*
X133925000Y-82975000D02*
X133925000Y-60575000D01*
X133925000Y-60500000D02*
X117125000Y-60500000D01*
D10*
X84542857Y-86671428D02*
X85304761Y-86671428D01*
X85685714Y-86052380D02*
X86352380Y-87052380D01*
X86352380Y-86052380D02*
X85685714Y-87052380D01*
D11*
X85109523Y-77016666D02*
X85604761Y-77016666D01*
X85338095Y-77283333D01*
X85452380Y-77283333D01*
X85528571Y-77316666D01*
X85566666Y-77350000D01*
X85604761Y-77416666D01*
X85604761Y-77583333D01*
X85566666Y-77650000D01*
X85528571Y-77683333D01*
X85452380Y-77716666D01*
X85223809Y-77716666D01*
X85147619Y-77683333D01*
X85109523Y-77650000D01*
X86519047Y-76983333D02*
X85833333Y-77883333D01*
X86747619Y-77083333D02*
X86785714Y-77050000D01*
X86861904Y-77016666D01*
X87052380Y-77016666D01*
X87128571Y-77050000D01*
X87166666Y-77083333D01*
X87204761Y-77150000D01*
X87204761Y-77216666D01*
X87166666Y-77316666D01*
X86709523Y-77716666D01*
X87204761Y-77716666D01*
X87966666Y-77716666D02*
X87509523Y-77716666D01*
X87738095Y-77716666D02*
X87738095Y-77016666D01*
X87661904Y-77116666D01*
X87585714Y-77183333D01*
X87509523Y-77216666D01*
X88880952Y-76983333D02*
X88195238Y-77883333D01*
X89109523Y-77083333D02*
X89147619Y-77050000D01*
X89223809Y-77016666D01*
X89414285Y-77016666D01*
X89490476Y-77050000D01*
X89528571Y-77083333D01*
X89566666Y-77150000D01*
X89566666Y-77216666D01*
X89528571Y-77316666D01*
X89071428Y-77716666D01*
X89566666Y-77716666D01*
X90061904Y-77016666D02*
X90138095Y-77016666D01*
X90214285Y-77050000D01*
X90252380Y-77083333D01*
X90290476Y-77150000D01*
X90328571Y-77283333D01*
X90328571Y-77450000D01*
X90290476Y-77583333D01*
X90252380Y-77650000D01*
X90214285Y-77683333D01*
X90138095Y-77716666D01*
X90061904Y-77716666D01*
X89985714Y-77683333D01*
X89947619Y-77650000D01*
X89909523Y-77583333D01*
X89871428Y-77450000D01*
X89871428Y-77283333D01*
X89909523Y-77150000D01*
X89947619Y-77083333D01*
X89985714Y-77050000D01*
X90061904Y-77016666D01*
X90633333Y-77083333D02*
X90671428Y-77050000D01*
X90747619Y-77016666D01*
X90938095Y-77016666D01*
X91014285Y-77050000D01*
X91052380Y-77083333D01*
X91090476Y-77150000D01*
X91090476Y-77216666D01*
X91052380Y-77316666D01*
X90595238Y-77716666D01*
X91090476Y-77716666D01*
X91852380Y-77716666D02*
X91395238Y-77716666D01*
X91623809Y-77716666D02*
X91623809Y-77016666D01*
X91547619Y-77116666D01*
X91471428Y-77183333D01*
X91395238Y-77216666D01*
D10*
X84590476Y-92421428D02*
X85352380Y-92421428D01*
X86019047Y-92326190D02*
X86019047Y-92802380D01*
X85685714Y-91802380D02*
X86019047Y-92326190D01*
X86352380Y-91802380D01*
X115042857Y-86671428D02*
X115804761Y-86671428D01*
X115423809Y-87052380D02*
X115423809Y-86290476D01*
X116185714Y-86052380D02*
X116852380Y-87052380D01*
X116852380Y-86052380D02*
X116185714Y-87052380D01*
D12*
X117400000Y-76100000D02*
X83900000Y-76100000D01*
X117400000Y-93100000D02*
X117400000Y-76100000D01*
D10*
X94090476Y-77671428D02*
X94852380Y-77671428D01*
X94471428Y-78052380D02*
X94471428Y-77290476D01*
X95519047Y-77576190D02*
X95519047Y-78052380D01*
X95185714Y-77052380D02*
X95519047Y-77576190D01*
X95852380Y-77052380D01*
D12*
X83900000Y-76100000D02*
X83900000Y-93100000D01*
X83900000Y-93100000D02*
X117400000Y-93100000D01*
D10*
X54242857Y-78371428D02*
X55004761Y-78371428D01*
X54623809Y-78752380D02*
X54623809Y-77990476D01*
X55385714Y-77752380D02*
X56052380Y-78752380D01*
X56052380Y-77752380D02*
X55385714Y-78752380D01*
D11*
X48509523Y-70116666D02*
X49004761Y-70116666D01*
X48738095Y-70383333D01*
X48852380Y-70383333D01*
X48928571Y-70416666D01*
X48966666Y-70450000D01*
X49004761Y-70516666D01*
X49004761Y-70683333D01*
X48966666Y-70750000D01*
X48928571Y-70783333D01*
X48852380Y-70816666D01*
X48623809Y-70816666D01*
X48547619Y-70783333D01*
X48509523Y-70750000D01*
X49919047Y-70083333D02*
X49233333Y-70983333D01*
X50147619Y-70183333D02*
X50185714Y-70150000D01*
X50261904Y-70116666D01*
X50452380Y-70116666D01*
X50528571Y-70150000D01*
X50566666Y-70183333D01*
X50604761Y-70250000D01*
X50604761Y-70316666D01*
X50566666Y-70416666D01*
X50109523Y-70816666D01*
X50604761Y-70816666D01*
X51366666Y-70816666D02*
X50909523Y-70816666D01*
X51138095Y-70816666D02*
X51138095Y-70116666D01*
X51061904Y-70216666D01*
X50985714Y-70283333D01*
X50909523Y-70316666D01*
X52280952Y-70083333D02*
X51595238Y-70983333D01*
X52509523Y-70183333D02*
X52547619Y-70150000D01*
X52623809Y-70116666D01*
X52814285Y-70116666D01*
X52890476Y-70150000D01*
X52928571Y-70183333D01*
X52966666Y-70250000D01*
X52966666Y-70316666D01*
X52928571Y-70416666D01*
X52471428Y-70816666D01*
X52966666Y-70816666D01*
X53461904Y-70116666D02*
X53538095Y-70116666D01*
X53614285Y-70150000D01*
X53652380Y-70183333D01*
X53690476Y-70250000D01*
X53728571Y-70383333D01*
X53728571Y-70550000D01*
X53690476Y-70683333D01*
X53652380Y-70750000D01*
X53614285Y-70783333D01*
X53538095Y-70816666D01*
X53461904Y-70816666D01*
X53385714Y-70783333D01*
X53347619Y-70750000D01*
X53309523Y-70683333D01*
X53271428Y-70550000D01*
X53271428Y-70383333D01*
X53309523Y-70250000D01*
X53347619Y-70183333D01*
X53385714Y-70150000D01*
X53461904Y-70116666D01*
X54033333Y-70183333D02*
X54071428Y-70150000D01*
X54147619Y-70116666D01*
X54338095Y-70116666D01*
X54414285Y-70150000D01*
X54452380Y-70183333D01*
X54490476Y-70250000D01*
X54490476Y-70316666D01*
X54452380Y-70416666D01*
X53995238Y-70816666D01*
X54490476Y-70816666D01*
X55252380Y-70816666D02*
X54795238Y-70816666D01*
X55023809Y-70816666D02*
X55023809Y-70116666D01*
X54947619Y-70216666D01*
X54871428Y-70283333D01*
X54795238Y-70316666D01*
D10*
X23742857Y-78371428D02*
X24504761Y-78371428D01*
X24885714Y-77752380D02*
X25552380Y-78752380D01*
X25552380Y-77752380D02*
X24885714Y-78752380D01*
X23790476Y-84121428D02*
X24552380Y-84121428D01*
X25219047Y-84026190D02*
X25219047Y-84502380D01*
X24885714Y-83502380D02*
X25219047Y-84026190D01*
X25552380Y-83502380D01*
D12*
X23100000Y-84800000D02*
X56600000Y-84800000D01*
D10*
X42390476Y-70571428D02*
X43152380Y-70571428D01*
X42771428Y-70952380D02*
X42771428Y-70190476D01*
X43819047Y-70476190D02*
X43819047Y-70952380D01*
X43485714Y-69952380D02*
X43819047Y-70476190D01*
X44152380Y-69952380D01*
D12*
X56600000Y-84800000D02*
X56600000Y-69300000D01*
X23100000Y-69300000D02*
X23100000Y-84800000D01*
X56600000Y-69300000D02*
X23100000Y-69300000D01*
X83900000Y-76100000D02*
X117400000Y-76100000D01*
X117400000Y-60600000D02*
X83900000Y-60600000D01*
D10*
X103190476Y-61871428D02*
X103952380Y-61871428D01*
X103571428Y-62252380D02*
X103571428Y-61490476D01*
X104619047Y-61776190D02*
X104619047Y-62252380D01*
X104285714Y-61252380D02*
X104619047Y-61776190D01*
X104952380Y-61252380D01*
X84590476Y-75421428D02*
X85352380Y-75421428D01*
X86019047Y-75326190D02*
X86019047Y-75802380D01*
X85685714Y-74802380D02*
X86019047Y-75326190D01*
X86352380Y-74802380D01*
D12*
X83900000Y-60600000D02*
X83900000Y-76100000D01*
D10*
X115042857Y-69671428D02*
X115804761Y-69671428D01*
X115423809Y-70052380D02*
X115423809Y-69290476D01*
X116185714Y-69052380D02*
X116852380Y-70052380D01*
X116852380Y-69052380D02*
X116185714Y-70052380D01*
X84542857Y-69671428D02*
X85304761Y-69671428D01*
X85685714Y-69052380D02*
X86352380Y-70052380D01*
X86352380Y-69052380D02*
X85685714Y-70052380D01*
D11*
X109309523Y-61416666D02*
X109804761Y-61416666D01*
X109538095Y-61683333D01*
X109652380Y-61683333D01*
X109728571Y-61716666D01*
X109766666Y-61750000D01*
X109804761Y-61816666D01*
X109804761Y-61983333D01*
X109766666Y-62050000D01*
X109728571Y-62083333D01*
X109652380Y-62116666D01*
X109423809Y-62116666D01*
X109347619Y-62083333D01*
X109309523Y-62050000D01*
X110719047Y-61383333D02*
X110033333Y-62283333D01*
X110947619Y-61483333D02*
X110985714Y-61450000D01*
X111061904Y-61416666D01*
X111252380Y-61416666D01*
X111328571Y-61450000D01*
X111366666Y-61483333D01*
X111404761Y-61550000D01*
X111404761Y-61616666D01*
X111366666Y-61716666D01*
X110909523Y-62116666D01*
X111404761Y-62116666D01*
X112166666Y-62116666D02*
X111709523Y-62116666D01*
X111938095Y-62116666D02*
X111938095Y-61416666D01*
X111861904Y-61516666D01*
X111785714Y-61583333D01*
X111709523Y-61616666D01*
X113080952Y-61383333D02*
X112395238Y-62283333D01*
X113309523Y-61483333D02*
X113347619Y-61450000D01*
X113423809Y-61416666D01*
X113614285Y-61416666D01*
X113690476Y-61450000D01*
X113728571Y-61483333D01*
X113766666Y-61550000D01*
X113766666Y-61616666D01*
X113728571Y-61716666D01*
X113271428Y-62116666D01*
X113766666Y-62116666D01*
X114261904Y-61416666D02*
X114338095Y-61416666D01*
X114414285Y-61450000D01*
X114452380Y-61483333D01*
X114490476Y-61550000D01*
X114528571Y-61683333D01*
X114528571Y-61850000D01*
X114490476Y-61983333D01*
X114452380Y-62050000D01*
X114414285Y-62083333D01*
X114338095Y-62116666D01*
X114261904Y-62116666D01*
X114185714Y-62083333D01*
X114147619Y-62050000D01*
X114109523Y-61983333D01*
X114071428Y-61850000D01*
X114071428Y-61683333D01*
X114109523Y-61550000D01*
X114147619Y-61483333D01*
X114185714Y-61450000D01*
X114261904Y-61416666D01*
X114833333Y-61483333D02*
X114871428Y-61450000D01*
X114947619Y-61416666D01*
X115138095Y-61416666D01*
X115214285Y-61450000D01*
X115252380Y-61483333D01*
X115290476Y-61550000D01*
X115290476Y-61616666D01*
X115252380Y-61716666D01*
X114795238Y-62116666D01*
X115290476Y-62116666D01*
X116052380Y-62116666D02*
X115595238Y-62116666D01*
X115823809Y-62116666D02*
X115823809Y-61416666D01*
X115747619Y-61516666D01*
X115671428Y-61583333D01*
X115595238Y-61616666D01*
D12*
X117400000Y-76100000D02*
X117400000Y-60600000D01*
D10*
X107209523Y-108528571D02*
X106447619Y-108528571D01*
X106828571Y-108147619D02*
X106828571Y-108909523D01*
X105780952Y-108623809D02*
X105780952Y-108147619D01*
X106114285Y-109147619D02*
X105780952Y-108623809D01*
X105447619Y-109147619D01*
D12*
X83900000Y-110100000D02*
X117400000Y-110100000D01*
X83900000Y-93100000D02*
X83900000Y-110100000D01*
X117400000Y-93100000D02*
X83900000Y-93100000D01*
X117400000Y-110100000D02*
X117400000Y-93100000D01*
D11*
X116190476Y-109183333D02*
X115695238Y-109183333D01*
X115961904Y-108916666D01*
X115847619Y-108916666D01*
X115771428Y-108883333D01*
X115733333Y-108850000D01*
X115695238Y-108783333D01*
X115695238Y-108616666D01*
X115733333Y-108550000D01*
X115771428Y-108516666D01*
X115847619Y-108483333D01*
X116076190Y-108483333D01*
X116152380Y-108516666D01*
X116190476Y-108550000D01*
X114780952Y-109216666D02*
X115466666Y-108316666D01*
X114552380Y-109116666D02*
X114514285Y-109150000D01*
X114438095Y-109183333D01*
X114247619Y-109183333D01*
X114171428Y-109150000D01*
X114133333Y-109116666D01*
X114095238Y-109050000D01*
X114095238Y-108983333D01*
X114133333Y-108883333D01*
X114590476Y-108483333D01*
X114095238Y-108483333D01*
X113333333Y-108483333D02*
X113790476Y-108483333D01*
X113561904Y-108483333D02*
X113561904Y-109183333D01*
X113638095Y-109083333D01*
X113714285Y-109016666D01*
X113790476Y-108983333D01*
X112419047Y-109216666D02*
X113104761Y-108316666D01*
X112190476Y-109116666D02*
X112152380Y-109150000D01*
X112076190Y-109183333D01*
X111885714Y-109183333D01*
X111809523Y-109150000D01*
X111771428Y-109116666D01*
X111733333Y-109050000D01*
X111733333Y-108983333D01*
X111771428Y-108883333D01*
X112228571Y-108483333D01*
X111733333Y-108483333D01*
X111238095Y-109183333D02*
X111161904Y-109183333D01*
X111085714Y-109150000D01*
X111047619Y-109116666D01*
X111009523Y-109050000D01*
X110971428Y-108916666D01*
X110971428Y-108750000D01*
X111009523Y-108616666D01*
X111047619Y-108550000D01*
X111085714Y-108516666D01*
X111161904Y-108483333D01*
X111238095Y-108483333D01*
X111314285Y-108516666D01*
X111352380Y-108550000D01*
X111390476Y-108616666D01*
X111428571Y-108750000D01*
X111428571Y-108916666D01*
X111390476Y-109050000D01*
X111352380Y-109116666D01*
X111314285Y-109150000D01*
X111238095Y-109183333D01*
X110666666Y-109116666D02*
X110628571Y-109150000D01*
X110552380Y-109183333D01*
X110361904Y-109183333D01*
X110285714Y-109150000D01*
X110247619Y-109116666D01*
X110209523Y-109050000D01*
X110209523Y-108983333D01*
X110247619Y-108883333D01*
X110704761Y-108483333D01*
X110209523Y-108483333D01*
X109447619Y-108483333D02*
X109904761Y-108483333D01*
X109676190Y-108483333D02*
X109676190Y-109183333D01*
X109752380Y-109083333D01*
X109828571Y-109016666D01*
X109904761Y-108983333D01*
D10*
X116757142Y-99528571D02*
X115995238Y-99528571D01*
X115614285Y-100147619D02*
X114947619Y-99147619D01*
X114947619Y-100147619D02*
X115614285Y-99147619D01*
X86257142Y-99528571D02*
X85495238Y-99528571D01*
X85876190Y-99147619D02*
X85876190Y-99909523D01*
X85114285Y-100147619D02*
X84447619Y-99147619D01*
X84447619Y-100147619D02*
X85114285Y-99147619D01*
X116709523Y-93778571D02*
X115947619Y-93778571D01*
X115280952Y-93873809D02*
X115280952Y-93397619D01*
X115614285Y-94397619D02*
X115280952Y-93873809D01*
X114947619Y-94397619D01*
D12*
X117025000Y-110050000D02*
X133825000Y-110050000D01*
X133825000Y-87650000D02*
X117025000Y-87650000D01*
D10*
X129015476Y-95271428D02*
X129777380Y-95271428D01*
X129396428Y-95652380D02*
X129396428Y-94890476D01*
X130444047Y-95176190D02*
X130444047Y-95652380D01*
X130110714Y-94652380D02*
X130444047Y-95176190D01*
X130777380Y-94652380D01*
X125265476Y-109071428D02*
X126027380Y-109071428D01*
X126694047Y-108976190D02*
X126694047Y-109452380D01*
X126360714Y-108452380D02*
X126694047Y-108976190D01*
X127027380Y-108452380D01*
X127867857Y-100621428D02*
X128629761Y-100621428D01*
X128248809Y-101002380D02*
X128248809Y-100240476D01*
X129010714Y-100002380D02*
X129677380Y-101002380D01*
X129677380Y-100002380D02*
X129010714Y-101002380D01*
X117067857Y-103621428D02*
X117829761Y-103621428D01*
X118210714Y-103002380D02*
X118877380Y-104002380D01*
X118877380Y-103002380D02*
X118210714Y-104002380D01*
D11*
X132641666Y-109615476D02*
X132641666Y-109120238D01*
X132908333Y-109386904D01*
X132908333Y-109272619D01*
X132941666Y-109196428D01*
X132975000Y-109158333D01*
X133041666Y-109120238D01*
X133208333Y-109120238D01*
X133275000Y-109158333D01*
X133308333Y-109196428D01*
X133341666Y-109272619D01*
X133341666Y-109501190D01*
X133308333Y-109577380D01*
X133275000Y-109615476D01*
X132608333Y-108205952D02*
X133508333Y-108891666D01*
X132708333Y-107977380D02*
X132675000Y-107939285D01*
X132641666Y-107863095D01*
X132641666Y-107672619D01*
X132675000Y-107596428D01*
X132708333Y-107558333D01*
X132775000Y-107520238D01*
X132841666Y-107520238D01*
X132941666Y-107558333D01*
X133341666Y-108015476D01*
X133341666Y-107520238D01*
X133341666Y-106758333D02*
X133341666Y-107215476D01*
X133341666Y-106986904D02*
X132641666Y-106986904D01*
X132741666Y-107063095D01*
X132808333Y-107139285D01*
X132841666Y-107215476D01*
X132608333Y-105844047D02*
X133508333Y-106529761D01*
X132708333Y-105615476D02*
X132675000Y-105577380D01*
X132641666Y-105501190D01*
X132641666Y-105310714D01*
X132675000Y-105234523D01*
X132708333Y-105196428D01*
X132775000Y-105158333D01*
X132841666Y-105158333D01*
X132941666Y-105196428D01*
X133341666Y-105653571D01*
X133341666Y-105158333D01*
X132641666Y-104663095D02*
X132641666Y-104586904D01*
X132675000Y-104510714D01*
X132708333Y-104472619D01*
X132775000Y-104434523D01*
X132908333Y-104396428D01*
X133075000Y-104396428D01*
X133208333Y-104434523D01*
X133275000Y-104472619D01*
X133308333Y-104510714D01*
X133341666Y-104586904D01*
X133341666Y-104663095D01*
X133308333Y-104739285D01*
X133275000Y-104777380D01*
X133208333Y-104815476D01*
X133075000Y-104853571D01*
X132908333Y-104853571D01*
X132775000Y-104815476D01*
X132708333Y-104777380D01*
X132675000Y-104739285D01*
X132641666Y-104663095D01*
X132708333Y-104091666D02*
X132675000Y-104053571D01*
X132641666Y-103977380D01*
X132641666Y-103786904D01*
X132675000Y-103710714D01*
X132708333Y-103672619D01*
X132775000Y-103634523D01*
X132841666Y-103634523D01*
X132941666Y-103672619D01*
X133341666Y-104129761D01*
X133341666Y-103634523D01*
X133341666Y-102872619D02*
X133341666Y-103329761D01*
X133341666Y-103101190D02*
X132641666Y-103101190D01*
X132741666Y-103177380D01*
X132808333Y-103253571D01*
X132841666Y-103329761D01*
D12*
X133825000Y-110125000D02*
X133825000Y-87725000D01*
D13*
X119450000Y-61000000D02*
X124400000Y-61000000D01*
X119450000Y-61000000D02*
X119450000Y-63600000D01*
X132850000Y-61000000D02*
X132850000Y-63600000D01*
X132850000Y-61000000D02*
X127900000Y-61000000D01*
X132850000Y-67000000D02*
X119450000Y-67000000D01*
D14*
X125495000Y-69570000D02*
X125495000Y-68430000D01*
X122955000Y-69570000D02*
X122955000Y-68430000D01*
X125475000Y-69570000D02*
X122975000Y-69570000D01*
X122975000Y-68430000D02*
X125475000Y-68430000D01*
X125663000Y-78692000D02*
X125663000Y-77676000D01*
X125663000Y-77676000D02*
X127187000Y-77676000D01*
X127187000Y-77676000D02*
X127187000Y-78692000D01*
X127187000Y-79708000D02*
X127187000Y-80724000D01*
X127187000Y-80724000D02*
X125663000Y-80724000D01*
X125663000Y-80724000D02*
X125663000Y-79708000D01*
X127583800Y-70406400D02*
X127583800Y-69593600D01*
X126466200Y-69619000D02*
X126466200Y-70406400D01*
X126212200Y-69593600D02*
X127837800Y-69593600D01*
X127837800Y-69593600D02*
X127837800Y-70406400D01*
X127837800Y-70406400D02*
X126212200Y-70406400D01*
X126212200Y-70406400D02*
X126212200Y-69593600D01*
X122818600Y-79458800D02*
X123631400Y-79458800D01*
X123606000Y-78341200D02*
X122818600Y-78341200D01*
X123631400Y-78087200D02*
X123631400Y-79712800D01*
X123631400Y-79712800D02*
X122818600Y-79712800D01*
X122818600Y-79712800D02*
X122818600Y-78087200D01*
X122818600Y-78087200D02*
X123631400Y-78087200D01*
X124418600Y-79458800D02*
X125231400Y-79458800D01*
X125206000Y-78341200D02*
X124418600Y-78341200D01*
X125231400Y-78087200D02*
X125231400Y-79712800D01*
X125231400Y-79712800D02*
X124418600Y-79712800D01*
X124418600Y-79712800D02*
X124418600Y-78087200D01*
X124418600Y-78087200D02*
X125231400Y-78087200D01*
X121218600Y-79458800D02*
X122031400Y-79458800D01*
X122006000Y-78341200D02*
X121218600Y-78341200D01*
X122031400Y-78087200D02*
X122031400Y-79712800D01*
X122031400Y-79712800D02*
X121218600Y-79712800D01*
X121218600Y-79712800D02*
X121218600Y-78087200D01*
X121218600Y-78087200D02*
X122031400Y-78087200D01*
X122575000Y-69570000D02*
X120075000Y-69570000D01*
X120075000Y-68430000D02*
X122575000Y-68430000D01*
X122595000Y-68430000D02*
X122595000Y-69570000D01*
X120055000Y-68430000D02*
X120055000Y-69570000D01*
D15*
X122033640Y-71410800D02*
X126514200Y-71410800D01*
X121535800Y-71908640D02*
X121535800Y-76389200D01*
X121535800Y-71908640D02*
X122033640Y-71410800D01*
D16*
X122033640Y-72157560D02*
X122033640Y-71908640D01*
X122033640Y-71908640D02*
X122282560Y-71908640D01*
X122282560Y-75891360D02*
X122033640Y-75891360D01*
X122033640Y-75891360D02*
X122033640Y-75642440D01*
X126016360Y-75642440D02*
X126016360Y-75891360D01*
X126016360Y-75891360D02*
X125767440Y-75891360D01*
X125767440Y-71908640D02*
X126016360Y-71908640D01*
X126016360Y-71908640D02*
X126016360Y-72157560D01*
D15*
X126514200Y-76389200D02*
X121535800Y-76389200D01*
X126514200Y-71410800D02*
X126514200Y-76389200D01*
D14*
X111175000Y-90430000D02*
X97625000Y-90430000D01*
X97625000Y-90430000D02*
X97625000Y-76370000D01*
X97625000Y-76370000D02*
X111175000Y-76370000D01*
X111175000Y-90430000D02*
X111175000Y-76370000D01*
X90193600Y-89658800D02*
X91006400Y-89658800D01*
X90981000Y-88541200D02*
X90193600Y-88541200D01*
X91006400Y-88287200D02*
X91006400Y-89912800D01*
X91006400Y-89912800D02*
X90193600Y-89912800D01*
X90193600Y-89912800D02*
X90193600Y-88287200D01*
X90193600Y-88287200D02*
X91006400Y-88287200D01*
X93458800Y-80006400D02*
X93458800Y-79193600D01*
X92341200Y-79219000D02*
X92341200Y-80006400D01*
X92087200Y-79193600D02*
X93712800Y-79193600D01*
X93712800Y-79193600D02*
X93712800Y-80006400D01*
X93712800Y-80006400D02*
X92087200Y-80006400D01*
X92087200Y-80006400D02*
X92087200Y-79193600D01*
X88593600Y-89658800D02*
X89406400Y-89658800D01*
X89381000Y-88541200D02*
X88593600Y-88541200D01*
X89406400Y-88287200D02*
X89406400Y-89912800D01*
X89406400Y-89912800D02*
X88593600Y-89912800D01*
X88593600Y-89912800D02*
X88593600Y-88287200D01*
X88593600Y-88287200D02*
X89406400Y-88287200D01*
X94642000Y-82906000D02*
X95782000Y-82906000D01*
X94642000Y-80366000D02*
X95782000Y-80366000D01*
X94642000Y-82886000D02*
X94642000Y-80386000D01*
X95782000Y-80386000D02*
X95782000Y-82886000D01*
X93038000Y-88892000D02*
X93038000Y-87876000D01*
X93038000Y-87876000D02*
X94562000Y-87876000D01*
X94562000Y-87876000D02*
X94562000Y-88892000D01*
X94562000Y-89908000D02*
X94562000Y-90924000D01*
X94562000Y-90924000D02*
X93038000Y-90924000D01*
X93038000Y-90924000D02*
X93038000Y-89908000D01*
X91793600Y-89658800D02*
X92606400Y-89658800D01*
X92581000Y-88541200D02*
X91793600Y-88541200D01*
X92606400Y-88287200D02*
X92606400Y-89912800D01*
X92606400Y-89912800D02*
X91793600Y-89912800D01*
X91793600Y-89912800D02*
X91793600Y-88287200D01*
X91793600Y-88287200D02*
X92606400Y-88287200D01*
D15*
X89408640Y-81610800D02*
X93889200Y-81610800D01*
X88910800Y-82108640D02*
X88910800Y-86589200D01*
X88910800Y-82108640D02*
X89408640Y-81610800D01*
D16*
X89408640Y-82357560D02*
X89408640Y-82108640D01*
X89408640Y-82108640D02*
X89657560Y-82108640D01*
X89657560Y-86091360D02*
X89408640Y-86091360D01*
X89408640Y-86091360D02*
X89408640Y-85842440D01*
X93391360Y-85842440D02*
X93391360Y-86091360D01*
X93391360Y-86091360D02*
X93142440Y-86091360D01*
X93142440Y-82108640D02*
X93391360Y-82108640D01*
X93391360Y-82108640D02*
X93391360Y-82357560D01*
D15*
X93889200Y-86589200D02*
X88910800Y-86589200D01*
X93889200Y-81610800D02*
X93889200Y-86589200D01*
D14*
X97306000Y-80386000D02*
X97306000Y-82886000D01*
X96166000Y-82886000D02*
X96166000Y-80386000D01*
X96166000Y-80366000D02*
X97306000Y-80366000D01*
X96166000Y-82906000D02*
X97306000Y-82906000D01*
D15*
X28608640Y-73310800D02*
X33089200Y-73310800D01*
X28110800Y-73808640D02*
X28110800Y-78289200D01*
X28110800Y-73808640D02*
X28608640Y-73310800D01*
D16*
X28608640Y-74057560D02*
X28608640Y-73808640D01*
X28608640Y-73808640D02*
X28857560Y-73808640D01*
X28857560Y-77791360D02*
X28608640Y-77791360D01*
X28608640Y-77791360D02*
X28608640Y-77542440D01*
X32591360Y-77542440D02*
X32591360Y-77791360D01*
X32591360Y-77791360D02*
X32342440Y-77791360D01*
X32342440Y-73808640D02*
X32591360Y-73808640D01*
X32591360Y-73808640D02*
X32591360Y-74057560D01*
D15*
X33089200Y-78289200D02*
X28110800Y-78289200D01*
X33089200Y-73310800D02*
X33089200Y-78289200D01*
D14*
X29393600Y-81358800D02*
X30206400Y-81358800D01*
X30181000Y-80241200D02*
X29393600Y-80241200D01*
X30206400Y-79987200D02*
X30206400Y-81612800D01*
X30206400Y-81612800D02*
X29393600Y-81612800D01*
X29393600Y-81612800D02*
X29393600Y-79987200D01*
X29393600Y-79987200D02*
X30206400Y-79987200D01*
X27793600Y-81358800D02*
X28606400Y-81358800D01*
X28581000Y-80241200D02*
X27793600Y-80241200D01*
X28606400Y-79987200D02*
X28606400Y-81612800D01*
X28606400Y-81612800D02*
X27793600Y-81612800D01*
X27793600Y-81612800D02*
X27793600Y-79987200D01*
X27793600Y-79987200D02*
X28606400Y-79987200D01*
X32238000Y-80592000D02*
X32238000Y-79576000D01*
X32238000Y-79576000D02*
X33762000Y-79576000D01*
X33762000Y-79576000D02*
X33762000Y-80592000D01*
X33762000Y-81608000D02*
X33762000Y-82624000D01*
X33762000Y-82624000D02*
X32238000Y-82624000D01*
X32238000Y-82624000D02*
X32238000Y-81608000D01*
X33950000Y-70930000D02*
X36450000Y-70930000D01*
X36450000Y-72070000D02*
X33950000Y-72070000D01*
X33930000Y-72070000D02*
X33930000Y-70930000D01*
X36470000Y-72070000D02*
X36470000Y-70930000D01*
D13*
X50256000Y-83348000D02*
X45306000Y-83348000D01*
X50256000Y-83348000D02*
X50256000Y-80748000D01*
X36856000Y-83348000D02*
X36856000Y-80748000D01*
X36856000Y-83348000D02*
X41806000Y-83348000D01*
X36856000Y-77348000D02*
X50256000Y-77348000D01*
D14*
X32658800Y-71706400D02*
X32658800Y-70893600D01*
X31541200Y-70919000D02*
X31541200Y-71706400D01*
X31287200Y-70893600D02*
X32912800Y-70893600D01*
X32912800Y-70893600D02*
X32912800Y-71706400D01*
X32912800Y-71706400D02*
X31287200Y-71706400D01*
X31287200Y-71706400D02*
X31287200Y-70893600D01*
X30993600Y-81358800D02*
X31806400Y-81358800D01*
X31781000Y-80241200D02*
X30993600Y-80241200D01*
X31806400Y-79987200D02*
X31806400Y-81612800D01*
X31806400Y-81612800D02*
X30993600Y-81612800D01*
X30993600Y-81612800D02*
X30993600Y-79987200D01*
X30993600Y-79987200D02*
X31806400Y-79987200D01*
X36570000Y-74170000D02*
X36570000Y-73030000D01*
X34030000Y-74170000D02*
X34030000Y-73030000D01*
X36550000Y-74170000D02*
X34050000Y-74170000D01*
X34050000Y-73030000D02*
X36550000Y-73030000D01*
X91793600Y-72658800D02*
X92606400Y-72658800D01*
X92581000Y-71541200D02*
X91793600Y-71541200D01*
X92606400Y-71287200D02*
X92606400Y-72912800D01*
X92606400Y-72912800D02*
X91793600Y-72912800D01*
X91793600Y-72912800D02*
X91793600Y-71287200D01*
X91793600Y-71287200D02*
X92606400Y-71287200D01*
D15*
X89408640Y-64610800D02*
X93889200Y-64610800D01*
X88910800Y-65108640D02*
X88910800Y-69589200D01*
X88910800Y-65108640D02*
X89408640Y-64610800D01*
D16*
X89408640Y-65357560D02*
X89408640Y-65108640D01*
X89408640Y-65108640D02*
X89657560Y-65108640D01*
X89657560Y-69091360D02*
X89408640Y-69091360D01*
X89408640Y-69091360D02*
X89408640Y-68842440D01*
X93391360Y-68842440D02*
X93391360Y-69091360D01*
X93391360Y-69091360D02*
X93142440Y-69091360D01*
X93142440Y-65108640D02*
X93391360Y-65108640D01*
X93391360Y-65108640D02*
X93391360Y-65357560D01*
D15*
X93889200Y-69589200D02*
X88910800Y-69589200D01*
X93889200Y-64610800D02*
X93889200Y-69589200D01*
D14*
X90193600Y-72658800D02*
X91006400Y-72658800D01*
X90981000Y-71541200D02*
X90193600Y-71541200D01*
X91006400Y-71287200D02*
X91006400Y-72912800D01*
X91006400Y-72912800D02*
X90193600Y-72912800D01*
X90193600Y-72912800D02*
X90193600Y-71287200D01*
X90193600Y-71287200D02*
X91006400Y-71287200D01*
X94750000Y-62230000D02*
X97250000Y-62230000D01*
X97250000Y-63370000D02*
X94750000Y-63370000D01*
X94730000Y-63370000D02*
X94730000Y-62230000D01*
X97270000Y-63370000D02*
X97270000Y-62230000D01*
X88593600Y-72658800D02*
X89406400Y-72658800D01*
X89381000Y-71541200D02*
X88593600Y-71541200D01*
X89406400Y-71287200D02*
X89406400Y-72912800D01*
X89406400Y-72912800D02*
X88593600Y-72912800D01*
X88593600Y-72912800D02*
X88593600Y-71287200D01*
X88593600Y-71287200D02*
X89406400Y-71287200D01*
X93038000Y-71892000D02*
X93038000Y-70876000D01*
X93038000Y-70876000D02*
X94562000Y-70876000D01*
X94562000Y-70876000D02*
X94562000Y-71892000D01*
X94562000Y-72908000D02*
X94562000Y-73924000D01*
X94562000Y-73924000D02*
X93038000Y-73924000D01*
X93038000Y-73924000D02*
X93038000Y-72908000D01*
D13*
X111056000Y-74648000D02*
X106106000Y-74648000D01*
X111056000Y-74648000D02*
X111056000Y-72048000D01*
X97656000Y-74648000D02*
X97656000Y-72048000D01*
X97656000Y-74648000D02*
X102606000Y-74648000D01*
X97656000Y-68648000D02*
X111056000Y-68648000D01*
D14*
X97370000Y-65470000D02*
X97370000Y-64330000D01*
X94830000Y-65470000D02*
X94830000Y-64330000D01*
X97350000Y-65470000D02*
X94850000Y-65470000D01*
X94850000Y-64330000D02*
X97350000Y-64330000D01*
X93458800Y-63006400D02*
X93458800Y-62193600D01*
X92341200Y-62219000D02*
X92341200Y-63006400D01*
X92087200Y-62193600D02*
X93712800Y-62193600D01*
X93712800Y-62193600D02*
X93712800Y-63006400D01*
X93712800Y-63006400D02*
X92087200Y-63006400D01*
X92087200Y-63006400D02*
X92087200Y-62193600D01*
X112706400Y-96541200D02*
X111893600Y-96541200D01*
X111919000Y-97658800D02*
X112706400Y-97658800D01*
X111893600Y-97912800D02*
X111893600Y-96287200D01*
X111893600Y-96287200D02*
X112706400Y-96287200D01*
X112706400Y-96287200D02*
X112706400Y-97912800D01*
X112706400Y-97912800D02*
X111893600Y-97912800D01*
X107841200Y-106193600D02*
X107841200Y-107006400D01*
X108958800Y-106981000D02*
X108958800Y-106193600D01*
X109212800Y-107006400D02*
X107587200Y-107006400D01*
X107587200Y-107006400D02*
X107587200Y-106193600D01*
X107587200Y-106193600D02*
X109212800Y-106193600D01*
X109212800Y-106193600D02*
X109212800Y-107006400D01*
X111106400Y-96541200D02*
X110293600Y-96541200D01*
X110319000Y-97658800D02*
X111106400Y-97658800D01*
X110293600Y-97912800D02*
X110293600Y-96287200D01*
X110293600Y-96287200D02*
X111106400Y-96287200D01*
X111106400Y-96287200D02*
X111106400Y-97912800D01*
X111106400Y-97912800D02*
X110293600Y-97912800D01*
X109506400Y-96541200D02*
X108693600Y-96541200D01*
X108719000Y-97658800D02*
X109506400Y-97658800D01*
X108693600Y-97912800D02*
X108693600Y-96287200D01*
X108693600Y-96287200D02*
X109506400Y-96287200D01*
X109506400Y-96287200D02*
X109506400Y-97912800D01*
X109506400Y-97912800D02*
X108693600Y-97912800D01*
D15*
X111891360Y-104589200D02*
X107410800Y-104589200D01*
X112389200Y-104091360D02*
X112389200Y-99610800D01*
X112389200Y-104091360D02*
X111891360Y-104589200D01*
D16*
X111891360Y-103842440D02*
X111891360Y-104091360D01*
X111891360Y-104091360D02*
X111642440Y-104091360D01*
X111642440Y-100108640D02*
X111891360Y-100108640D01*
X111891360Y-100108640D02*
X111891360Y-100357560D01*
X107908640Y-100357560D02*
X107908640Y-100108640D01*
X107908640Y-100108640D02*
X108157560Y-100108640D01*
X108157560Y-104091360D02*
X107908640Y-104091360D01*
X107908640Y-104091360D02*
X107908640Y-103842440D01*
D15*
X107410800Y-99610800D02*
X112389200Y-99610800D01*
X107410800Y-104589200D02*
X107410800Y-99610800D01*
D14*
X108262000Y-97308000D02*
X108262000Y-98324000D01*
X108262000Y-98324000D02*
X106738000Y-98324000D01*
X106738000Y-98324000D02*
X106738000Y-97308000D01*
X106738000Y-96292000D02*
X106738000Y-95276000D01*
X106738000Y-95276000D02*
X108262000Y-95276000D01*
X108262000Y-95276000D02*
X108262000Y-96292000D01*
X90125000Y-95770000D02*
X103675000Y-95770000D01*
X103675000Y-95770000D02*
X103675000Y-109830000D01*
X103675000Y-109830000D02*
X90125000Y-109830000D01*
X90125000Y-95770000D02*
X90125000Y-109830000D01*
X106658000Y-103294000D02*
X105518000Y-103294000D01*
X106658000Y-105834000D02*
X105518000Y-105834000D01*
X106658000Y-103314000D02*
X106658000Y-105814000D01*
X105518000Y-105814000D02*
X105518000Y-103314000D01*
X103994000Y-105814000D02*
X103994000Y-103314000D01*
X105134000Y-103314000D02*
X105134000Y-105814000D01*
X105134000Y-105834000D02*
X103994000Y-105834000D01*
X105134000Y-103294000D02*
X103994000Y-103294000D01*
X124318600Y-106608800D02*
X125131400Y-106608800D01*
X125106000Y-105491200D02*
X124318600Y-105491200D01*
X125131400Y-105237200D02*
X125131400Y-106862800D01*
X125131400Y-106862800D02*
X124318600Y-106862800D01*
X124318600Y-106862800D02*
X124318600Y-105237200D01*
X124318600Y-105237200D02*
X125131400Y-105237200D01*
D15*
X121933640Y-98560800D02*
X126414200Y-98560800D01*
X121435800Y-99058640D02*
X121435800Y-103539200D01*
X121435800Y-99058640D02*
X121933640Y-98560800D01*
D16*
X121933640Y-99307560D02*
X121933640Y-99058640D01*
X121933640Y-99058640D02*
X122182560Y-99058640D01*
X122182560Y-103041360D02*
X121933640Y-103041360D01*
X121933640Y-103041360D02*
X121933640Y-102792440D01*
X125916360Y-102792440D02*
X125916360Y-103041360D01*
X125916360Y-103041360D02*
X125667440Y-103041360D01*
X125667440Y-99058640D02*
X125916360Y-99058640D01*
X125916360Y-99058640D02*
X125916360Y-99307560D01*
D15*
X126414200Y-103539200D02*
X121435800Y-103539200D01*
X126414200Y-98560800D02*
X126414200Y-103539200D01*
D14*
X122718600Y-106608800D02*
X123531400Y-106608800D01*
X123506000Y-105491200D02*
X122718600Y-105491200D01*
X123531400Y-105237200D02*
X123531400Y-106862800D01*
X123531400Y-106862800D02*
X122718600Y-106862800D01*
X122718600Y-106862800D02*
X122718600Y-105237200D01*
X122718600Y-105237200D02*
X123531400Y-105237200D01*
X122475000Y-96720000D02*
X119975000Y-96720000D01*
X119975000Y-95580000D02*
X122475000Y-95580000D01*
X122495000Y-95580000D02*
X122495000Y-96720000D01*
X119955000Y-95580000D02*
X119955000Y-96720000D01*
X121118600Y-106608800D02*
X121931400Y-106608800D01*
X121906000Y-105491200D02*
X121118600Y-105491200D01*
X121931400Y-105237200D02*
X121931400Y-106862800D01*
X121931400Y-106862800D02*
X121118600Y-106862800D01*
X121118600Y-106862800D02*
X121118600Y-105237200D01*
X121118600Y-105237200D02*
X121931400Y-105237200D01*
X125563000Y-105842000D02*
X125563000Y-104826000D01*
X125563000Y-104826000D02*
X127087000Y-104826000D01*
X127087000Y-104826000D02*
X127087000Y-105842000D01*
X127087000Y-106858000D02*
X127087000Y-107874000D01*
X127087000Y-107874000D02*
X125563000Y-107874000D01*
X125563000Y-107874000D02*
X125563000Y-106858000D01*
D13*
X119350000Y-88150000D02*
X124300000Y-88150000D01*
X119350000Y-88150000D02*
X119350000Y-90750000D01*
X132750000Y-88150000D02*
X132750000Y-90750000D01*
X132750000Y-88150000D02*
X127800000Y-88150000D01*
X132750000Y-94150000D02*
X119350000Y-94150000D01*
D14*
X125395000Y-96720000D02*
X125395000Y-95580000D01*
X122855000Y-96720000D02*
X122855000Y-95580000D01*
X125375000Y-96720000D02*
X122875000Y-96720000D01*
X122875000Y-95580000D02*
X125375000Y-95580000D01*
X127483800Y-97556400D02*
X127483800Y-96743600D01*
X126366200Y-96769000D02*
X126366200Y-97556400D01*
X126112200Y-96743600D02*
X127737800Y-96743600D01*
X127737800Y-96743600D02*
X127737800Y-97556400D01*
X127737800Y-97556400D02*
X126112200Y-97556400D01*
X126112200Y-97556400D02*
X126112200Y-96743600D01*
D17*
X118291666Y-61677380D02*
X118291666Y-62391666D01*
X118244047Y-62534523D01*
X118148809Y-62629761D01*
X118005952Y-62677380D01*
X117910714Y-62677380D01*
X119291666Y-62677380D02*
X118720238Y-62677380D01*
X119005952Y-62677380D02*
X119005952Y-61677380D01*
X118910714Y-61820238D01*
X118815476Y-61915476D01*
X118720238Y-61963095D01*
X124925000Y-67971428D02*
X124725000Y-67685714D01*
X124582142Y-67971428D02*
X124582142Y-67371428D01*
X124810714Y-67371428D01*
X124867857Y-67400000D01*
X124896428Y-67428571D01*
X124925000Y-67485714D01*
X124925000Y-67571428D01*
X124896428Y-67628571D01*
X124867857Y-67657142D01*
X124810714Y-67685714D01*
X124582142Y-67685714D01*
X125496428Y-67971428D02*
X125153571Y-67971428D01*
X125325000Y-67971428D02*
X125325000Y-67371428D01*
X125267857Y-67457142D01*
X125210714Y-67514285D01*
X125153571Y-67542857D01*
X122667857Y-67571428D02*
X122667857Y-67971428D01*
X122525000Y-67342857D02*
X122382142Y-67771428D01*
X122753571Y-67771428D01*
X122982142Y-67914285D02*
X123010714Y-67942857D01*
X122982142Y-67971428D01*
X122953571Y-67942857D01*
X122982142Y-67914285D01*
X122982142Y-67971428D01*
X123210714Y-67371428D02*
X123610714Y-67371428D01*
X123353571Y-67971428D01*
X123839285Y-67971428D02*
X123839285Y-67371428D01*
X123896428Y-67742857D02*
X124067857Y-67971428D01*
X124067857Y-67571428D02*
X123839285Y-67800000D01*
X128125000Y-80114285D02*
X128096428Y-80142857D01*
X128010714Y-80171428D01*
X127953571Y-80171428D01*
X127867857Y-80142857D01*
X127810714Y-80085714D01*
X127782142Y-80028571D01*
X127753571Y-79914285D01*
X127753571Y-79828571D01*
X127782142Y-79714285D01*
X127810714Y-79657142D01*
X127867857Y-79600000D01*
X127953571Y-79571428D01*
X128010714Y-79571428D01*
X128096428Y-79600000D01*
X128125000Y-79628571D01*
X128325000Y-79571428D02*
X128696428Y-79571428D01*
X128496428Y-79800000D01*
X128582142Y-79800000D01*
X128639285Y-79828571D01*
X128667857Y-79857142D01*
X128696428Y-79914285D01*
X128696428Y-80057142D01*
X128667857Y-80114285D01*
X128639285Y-80142857D01*
X128582142Y-80171428D01*
X128410714Y-80171428D01*
X128353571Y-80142857D01*
X128325000Y-80114285D01*
X128182142Y-78071428D02*
X128182142Y-78471428D01*
X128039285Y-77842857D02*
X127896428Y-78271428D01*
X128267857Y-78271428D01*
X128496428Y-78414285D02*
X128525000Y-78442857D01*
X128496428Y-78471428D01*
X128467857Y-78442857D01*
X128496428Y-78414285D01*
X128496428Y-78471428D01*
X128725000Y-77871428D02*
X129125000Y-77871428D01*
X128867857Y-78471428D01*
X129610714Y-78071428D02*
X129610714Y-78471428D01*
X129353571Y-78071428D02*
X129353571Y-78385714D01*
X129382142Y-78442857D01*
X129439285Y-78471428D01*
X129525000Y-78471428D01*
X129582142Y-78442857D01*
X129610714Y-78414285D01*
X130096428Y-78157142D02*
X129896428Y-78157142D01*
X129896428Y-78471428D02*
X129896428Y-77871428D01*
X130182142Y-77871428D01*
X127646428Y-77680952D02*
X127646428Y-76919047D01*
X128027380Y-77300000D02*
X127265476Y-77300000D01*
X127825000Y-68814285D02*
X127796428Y-68842857D01*
X127710714Y-68871428D01*
X127653571Y-68871428D01*
X127567857Y-68842857D01*
X127510714Y-68785714D01*
X127482142Y-68728571D01*
X127453571Y-68614285D01*
X127453571Y-68528571D01*
X127482142Y-68414285D01*
X127510714Y-68357142D01*
X127567857Y-68300000D01*
X127653571Y-68271428D01*
X127710714Y-68271428D01*
X127796428Y-68300000D01*
X127825000Y-68328571D01*
X128053571Y-68328571D02*
X128082142Y-68300000D01*
X128139285Y-68271428D01*
X128282142Y-68271428D01*
X128339285Y-68300000D01*
X128367857Y-68328571D01*
X128396428Y-68385714D01*
X128396428Y-68442857D01*
X128367857Y-68528571D01*
X128025000Y-68871428D01*
X128396428Y-68871428D01*
X128296428Y-69828571D02*
X128325000Y-69800000D01*
X128382142Y-69771428D01*
X128525000Y-69771428D01*
X128582142Y-69800000D01*
X128610714Y-69828571D01*
X128639285Y-69885714D01*
X128639285Y-69942857D01*
X128610714Y-70028571D01*
X128267857Y-70371428D01*
X128639285Y-70371428D01*
X128896428Y-70314285D02*
X128925000Y-70342857D01*
X128896428Y-70371428D01*
X128867857Y-70342857D01*
X128896428Y-70314285D01*
X128896428Y-70371428D01*
X129153571Y-69828571D02*
X129182142Y-69800000D01*
X129239285Y-69771428D01*
X129382142Y-69771428D01*
X129439285Y-69800000D01*
X129467857Y-69828571D01*
X129496428Y-69885714D01*
X129496428Y-69942857D01*
X129467857Y-70028571D01*
X129125000Y-70371428D01*
X129496428Y-70371428D01*
X129753571Y-69971428D02*
X129753571Y-70371428D01*
X129753571Y-70028571D02*
X129782142Y-70000000D01*
X129839285Y-69971428D01*
X129925000Y-69971428D01*
X129982142Y-70000000D01*
X130010714Y-70057142D01*
X130010714Y-70371428D01*
X130496428Y-70057142D02*
X130296428Y-70057142D01*
X130296428Y-70371428D02*
X130296428Y-69771428D01*
X130582142Y-69771428D01*
X123175000Y-82364285D02*
X123146428Y-82392857D01*
X123060714Y-82421428D01*
X123003571Y-82421428D01*
X122917857Y-82392857D01*
X122860714Y-82335714D01*
X122832142Y-82278571D01*
X122803571Y-82164285D01*
X122803571Y-82078571D01*
X122832142Y-81964285D01*
X122860714Y-81907142D01*
X122917857Y-81850000D01*
X123003571Y-81821428D01*
X123060714Y-81821428D01*
X123146428Y-81850000D01*
X123175000Y-81878571D01*
X123689285Y-82021428D02*
X123689285Y-82421428D01*
X123546428Y-81792857D02*
X123403571Y-82221428D01*
X123775000Y-82221428D01*
X122210714Y-81364285D02*
X122239285Y-81392857D01*
X122210714Y-81421428D01*
X122182142Y-81392857D01*
X122210714Y-81364285D01*
X122210714Y-81421428D01*
X122810714Y-81421428D02*
X122467857Y-81421428D01*
X122639285Y-81421428D02*
X122639285Y-80821428D01*
X122582142Y-80907142D01*
X122525000Y-80964285D01*
X122467857Y-80992857D01*
X123325000Y-81021428D02*
X123325000Y-81421428D01*
X123067857Y-81021428D02*
X123067857Y-81335714D01*
X123096428Y-81392857D01*
X123153571Y-81421428D01*
X123239285Y-81421428D01*
X123296428Y-81392857D01*
X123325000Y-81364285D01*
X123810714Y-81107142D02*
X123610714Y-81107142D01*
X123610714Y-81421428D02*
X123610714Y-80821428D01*
X123896428Y-80821428D01*
X124675000Y-82364285D02*
X124646428Y-82392857D01*
X124560714Y-82421428D01*
X124503571Y-82421428D01*
X124417857Y-82392857D01*
X124360714Y-82335714D01*
X124332142Y-82278571D01*
X124303571Y-82164285D01*
X124303571Y-82078571D01*
X124332142Y-81964285D01*
X124360714Y-81907142D01*
X124417857Y-81850000D01*
X124503571Y-81821428D01*
X124560714Y-81821428D01*
X124646428Y-81850000D01*
X124675000Y-81878571D01*
X125217857Y-81821428D02*
X124932142Y-81821428D01*
X124903571Y-82107142D01*
X124932142Y-82078571D01*
X124989285Y-82050000D01*
X125132142Y-82050000D01*
X125189285Y-82078571D01*
X125217857Y-82107142D01*
X125246428Y-82164285D01*
X125246428Y-82307142D01*
X125217857Y-82364285D01*
X125189285Y-82392857D01*
X125132142Y-82421428D01*
X124989285Y-82421428D01*
X124932142Y-82392857D01*
X124903571Y-82364285D01*
X124210714Y-81364285D02*
X124239285Y-81392857D01*
X124210714Y-81421428D01*
X124182142Y-81392857D01*
X124210714Y-81364285D01*
X124210714Y-81421428D01*
X124810714Y-81421428D02*
X124467857Y-81421428D01*
X124639285Y-81421428D02*
X124639285Y-80821428D01*
X124582142Y-80907142D01*
X124525000Y-80964285D01*
X124467857Y-80992857D01*
X125325000Y-81021428D02*
X125325000Y-81421428D01*
X125067857Y-81021428D02*
X125067857Y-81335714D01*
X125096428Y-81392857D01*
X125153571Y-81421428D01*
X125239285Y-81421428D01*
X125296428Y-81392857D01*
X125325000Y-81364285D01*
X125810714Y-81107142D02*
X125610714Y-81107142D01*
X125610714Y-81421428D02*
X125610714Y-80821428D01*
X125896428Y-80821428D01*
X120739285Y-79000000D02*
X120767857Y-79028571D01*
X120796428Y-79114285D01*
X120796428Y-79171428D01*
X120767857Y-79257142D01*
X120710714Y-79314285D01*
X120653571Y-79342857D01*
X120539285Y-79371428D01*
X120453571Y-79371428D01*
X120339285Y-79342857D01*
X120282142Y-79314285D01*
X120225000Y-79257142D01*
X120196428Y-79171428D01*
X120196428Y-79114285D01*
X120225000Y-79028571D01*
X120253571Y-79000000D01*
X120796428Y-78428571D02*
X120796428Y-78771428D01*
X120796428Y-78600000D02*
X120196428Y-78600000D01*
X120282142Y-78657142D01*
X120339285Y-78714285D01*
X120367857Y-78771428D01*
X120632142Y-80921428D02*
X120289285Y-80921428D01*
X120460714Y-80921428D02*
X120460714Y-80321428D01*
X120403571Y-80407142D01*
X120346428Y-80464285D01*
X120289285Y-80492857D01*
X121003571Y-80321428D02*
X121060714Y-80321428D01*
X121117857Y-80350000D01*
X121146428Y-80378571D01*
X121175000Y-80435714D01*
X121203571Y-80550000D01*
X121203571Y-80692857D01*
X121175000Y-80807142D01*
X121146428Y-80864285D01*
X121117857Y-80892857D01*
X121060714Y-80921428D01*
X121003571Y-80921428D01*
X120946428Y-80892857D01*
X120917857Y-80864285D01*
X120889285Y-80807142D01*
X120860714Y-80692857D01*
X120860714Y-80550000D01*
X120889285Y-80435714D01*
X120917857Y-80378571D01*
X120946428Y-80350000D01*
X121003571Y-80321428D01*
X121460714Y-80521428D02*
X121460714Y-80921428D01*
X121460714Y-80578571D02*
X121489285Y-80550000D01*
X121546428Y-80521428D01*
X121632142Y-80521428D01*
X121689285Y-80550000D01*
X121717857Y-80607142D01*
X121717857Y-80921428D01*
X122203571Y-80607142D02*
X122003571Y-80607142D01*
X122003571Y-80921428D02*
X122003571Y-80321428D01*
X122289285Y-80321428D01*
X120425000Y-67971428D02*
X120225000Y-67685714D01*
X120082142Y-67971428D02*
X120082142Y-67371428D01*
X120310714Y-67371428D01*
X120367857Y-67400000D01*
X120396428Y-67428571D01*
X120425000Y-67485714D01*
X120425000Y-67571428D01*
X120396428Y-67628571D01*
X120367857Y-67657142D01*
X120310714Y-67685714D01*
X120082142Y-67685714D01*
X120653571Y-67428571D02*
X120682142Y-67400000D01*
X120739285Y-67371428D01*
X120882142Y-67371428D01*
X120939285Y-67400000D01*
X120967857Y-67428571D01*
X120996428Y-67485714D01*
X120996428Y-67542857D01*
X120967857Y-67628571D01*
X120625000Y-67971428D01*
X120996428Y-67971428D01*
X120167857Y-70171428D02*
X120167857Y-70571428D01*
X120025000Y-69942857D02*
X119882142Y-70371428D01*
X120253571Y-70371428D01*
X120482142Y-70514285D02*
X120510714Y-70542857D01*
X120482142Y-70571428D01*
X120453571Y-70542857D01*
X120482142Y-70514285D01*
X120482142Y-70571428D01*
X120710714Y-69971428D02*
X121110714Y-69971428D01*
X120853571Y-70571428D01*
X121339285Y-70571428D02*
X121339285Y-69971428D01*
X121396428Y-70342857D02*
X121567857Y-70571428D01*
X121567857Y-70171428D02*
X121339285Y-70400000D01*
D12*
X124715476Y-70261904D02*
X124715476Y-70909523D01*
X124753571Y-70985714D01*
X124791666Y-71023809D01*
X124867857Y-71061904D01*
X125020238Y-71061904D01*
X125096428Y-71023809D01*
X125134523Y-70985714D01*
X125172619Y-70909523D01*
X125172619Y-70261904D01*
X125972619Y-71061904D02*
X125515476Y-71061904D01*
X125744047Y-71061904D02*
X125744047Y-70261904D01*
X125667857Y-70376190D01*
X125591666Y-70452380D01*
X125515476Y-70490476D01*
D11*
X117709523Y-71576190D02*
X117709523Y-71076190D01*
X117876190Y-71433333D01*
X118042857Y-71076190D01*
X118042857Y-71576190D01*
X118280952Y-71576190D02*
X118280952Y-71076190D01*
X118471428Y-71076190D01*
X118519047Y-71100000D01*
X118542857Y-71123809D01*
X118566666Y-71171428D01*
X118566666Y-71242857D01*
X118542857Y-71290476D01*
X118519047Y-71314285D01*
X118471428Y-71338095D01*
X118280952Y-71338095D01*
X118780952Y-71076190D02*
X118780952Y-71480952D01*
X118804761Y-71528571D01*
X118828571Y-71552380D01*
X118876190Y-71576190D01*
X118971428Y-71576190D01*
X119019047Y-71552380D01*
X119042857Y-71528571D01*
X119066666Y-71480952D01*
X119066666Y-71076190D01*
X119304761Y-71385714D02*
X119685714Y-71385714D01*
X120138095Y-71076190D02*
X120042857Y-71076190D01*
X119995238Y-71100000D01*
X119971428Y-71123809D01*
X119923809Y-71195238D01*
X119900000Y-71290476D01*
X119900000Y-71480952D01*
X119923809Y-71528571D01*
X119947619Y-71552380D01*
X119995238Y-71576190D01*
X120090476Y-71576190D01*
X120138095Y-71552380D01*
X120161904Y-71528571D01*
X120185714Y-71480952D01*
X120185714Y-71361904D01*
X120161904Y-71314285D01*
X120138095Y-71290476D01*
X120090476Y-71266666D01*
X119995238Y-71266666D01*
X119947619Y-71290476D01*
X119923809Y-71314285D01*
X119900000Y-71361904D01*
X120495238Y-71076190D02*
X120542857Y-71076190D01*
X120590476Y-71100000D01*
X120614285Y-71123809D01*
X120638095Y-71171428D01*
X120661904Y-71266666D01*
X120661904Y-71385714D01*
X120638095Y-71480952D01*
X120614285Y-71528571D01*
X120590476Y-71552380D01*
X120542857Y-71576190D01*
X120495238Y-71576190D01*
X120447619Y-71552380D01*
X120423809Y-71528571D01*
X120400000Y-71480952D01*
X120376190Y-71385714D01*
X120376190Y-71266666D01*
X120400000Y-71171428D01*
X120423809Y-71123809D01*
X120447619Y-71100000D01*
X120495238Y-71076190D01*
X121114285Y-71076190D02*
X120876190Y-71076190D01*
X120852380Y-71314285D01*
X120876190Y-71290476D01*
X120923809Y-71266666D01*
X121042857Y-71266666D01*
X121090476Y-71290476D01*
X121114285Y-71314285D01*
X121138095Y-71361904D01*
X121138095Y-71480952D01*
X121114285Y-71528571D01*
X121090476Y-71552380D01*
X121042857Y-71576190D01*
X120923809Y-71576190D01*
X120876190Y-71552380D01*
X120852380Y-71528571D01*
X121447619Y-71076190D02*
X121495238Y-71076190D01*
X121542857Y-71100000D01*
X121566666Y-71123809D01*
X121590476Y-71171428D01*
X121614285Y-71266666D01*
X121614285Y-71385714D01*
X121590476Y-71480952D01*
X121566666Y-71528571D01*
X121542857Y-71552380D01*
X121495238Y-71576190D01*
X121447619Y-71576190D01*
X121400000Y-71552380D01*
X121376190Y-71528571D01*
X121352380Y-71480952D01*
X121328571Y-71385714D01*
X121328571Y-71266666D01*
X121352380Y-71171428D01*
X121376190Y-71123809D01*
X121400000Y-71100000D01*
X121447619Y-71076190D01*
D18*
X112566413Y-76901964D02*
X112566413Y-77616793D01*
X112518758Y-77759759D01*
X112423447Y-77855069D01*
X112280481Y-77902724D01*
X112185171Y-77902724D01*
X113567173Y-77902724D02*
X112995310Y-77902724D01*
X113281241Y-77902724D02*
X113281241Y-76901964D01*
X113185931Y-77044930D01*
X113090620Y-77140240D01*
X112995310Y-77187896D01*
X111776997Y-78551964D02*
X111776997Y-79362103D01*
X111824652Y-79457414D01*
X111872307Y-79505069D01*
X111967618Y-79552724D01*
X112158239Y-79552724D01*
X112253549Y-79505069D01*
X112301204Y-79457414D01*
X112348860Y-79362103D01*
X112348860Y-78551964D01*
X112777757Y-79505069D02*
X112920722Y-79552724D01*
X113158999Y-79552724D01*
X113254309Y-79505069D01*
X113301964Y-79457414D01*
X113349620Y-79362103D01*
X113349620Y-79266793D01*
X113301964Y-79171482D01*
X113254309Y-79123827D01*
X113158999Y-79076172D01*
X112968378Y-79028517D01*
X112873067Y-78980861D01*
X112825412Y-78933206D01*
X112777757Y-78837896D01*
X112777757Y-78742585D01*
X112825412Y-78647275D01*
X112873067Y-78599620D01*
X112968378Y-78551964D01*
X113206654Y-78551964D01*
X113349620Y-78599620D01*
X114112103Y-79028517D02*
X114255069Y-79076172D01*
X114302724Y-79123827D01*
X114350380Y-79219138D01*
X114350380Y-79362103D01*
X114302724Y-79457414D01*
X114255069Y-79505069D01*
X114159759Y-79552724D01*
X113778517Y-79552724D01*
X113778517Y-78551964D01*
X114112103Y-78551964D01*
X114207414Y-78599620D01*
X114255069Y-78647275D01*
X114302724Y-78742585D01*
X114302724Y-78837896D01*
X114255069Y-78933206D01*
X114207414Y-78980861D01*
X114112103Y-79028517D01*
X113778517Y-79028517D01*
X114541000Y-79648035D02*
X115303484Y-79648035D01*
X115494105Y-79266793D02*
X115970658Y-79266793D01*
X115398795Y-79552724D02*
X115732381Y-78551964D01*
X116065968Y-79552724D01*
D17*
X90550000Y-92564285D02*
X90521428Y-92592857D01*
X90435714Y-92621428D01*
X90378571Y-92621428D01*
X90292857Y-92592857D01*
X90235714Y-92535714D01*
X90207142Y-92478571D01*
X90178571Y-92364285D01*
X90178571Y-92278571D01*
X90207142Y-92164285D01*
X90235714Y-92107142D01*
X90292857Y-92050000D01*
X90378571Y-92021428D01*
X90435714Y-92021428D01*
X90521428Y-92050000D01*
X90550000Y-92078571D01*
X91064285Y-92221428D02*
X91064285Y-92621428D01*
X90921428Y-91992857D02*
X90778571Y-92421428D01*
X91150000Y-92421428D01*
X89585714Y-91564285D02*
X89614285Y-91592857D01*
X89585714Y-91621428D01*
X89557142Y-91592857D01*
X89585714Y-91564285D01*
X89585714Y-91621428D01*
X90185714Y-91621428D02*
X89842857Y-91621428D01*
X90014285Y-91621428D02*
X90014285Y-91021428D01*
X89957142Y-91107142D01*
X89900000Y-91164285D01*
X89842857Y-91192857D01*
X90700000Y-91221428D02*
X90700000Y-91621428D01*
X90442857Y-91221428D02*
X90442857Y-91535714D01*
X90471428Y-91592857D01*
X90528571Y-91621428D01*
X90614285Y-91621428D01*
X90671428Y-91592857D01*
X90700000Y-91564285D01*
X91185714Y-91307142D02*
X90985714Y-91307142D01*
X90985714Y-91621428D02*
X90985714Y-91021428D01*
X91271428Y-91021428D01*
X90700000Y-79914285D02*
X90671428Y-79942857D01*
X90585714Y-79971428D01*
X90528571Y-79971428D01*
X90442857Y-79942857D01*
X90385714Y-79885714D01*
X90357142Y-79828571D01*
X90328571Y-79714285D01*
X90328571Y-79628571D01*
X90357142Y-79514285D01*
X90385714Y-79457142D01*
X90442857Y-79400000D01*
X90528571Y-79371428D01*
X90585714Y-79371428D01*
X90671428Y-79400000D01*
X90700000Y-79428571D01*
X90928571Y-79428571D02*
X90957142Y-79400000D01*
X91014285Y-79371428D01*
X91157142Y-79371428D01*
X91214285Y-79400000D01*
X91242857Y-79428571D01*
X91271428Y-79485714D01*
X91271428Y-79542857D01*
X91242857Y-79628571D01*
X90900000Y-79971428D01*
X91271428Y-79971428D01*
X91771428Y-78228571D02*
X91800000Y-78200000D01*
X91857142Y-78171428D01*
X92000000Y-78171428D01*
X92057142Y-78200000D01*
X92085714Y-78228571D01*
X92114285Y-78285714D01*
X92114285Y-78342857D01*
X92085714Y-78428571D01*
X91742857Y-78771428D01*
X92114285Y-78771428D01*
X92371428Y-78714285D02*
X92400000Y-78742857D01*
X92371428Y-78771428D01*
X92342857Y-78742857D01*
X92371428Y-78714285D01*
X92371428Y-78771428D01*
X92628571Y-78228571D02*
X92657142Y-78200000D01*
X92714285Y-78171428D01*
X92857142Y-78171428D01*
X92914285Y-78200000D01*
X92942857Y-78228571D01*
X92971428Y-78285714D01*
X92971428Y-78342857D01*
X92942857Y-78428571D01*
X92600000Y-78771428D01*
X92971428Y-78771428D01*
X93228571Y-78371428D02*
X93228571Y-78771428D01*
X93228571Y-78428571D02*
X93257142Y-78400000D01*
X93314285Y-78371428D01*
X93400000Y-78371428D01*
X93457142Y-78400000D01*
X93485714Y-78457142D01*
X93485714Y-78771428D01*
X93971428Y-78457142D02*
X93771428Y-78457142D01*
X93771428Y-78771428D02*
X93771428Y-78171428D01*
X94057142Y-78171428D01*
X88114285Y-89200000D02*
X88142857Y-89228571D01*
X88171428Y-89314285D01*
X88171428Y-89371428D01*
X88142857Y-89457142D01*
X88085714Y-89514285D01*
X88028571Y-89542857D01*
X87914285Y-89571428D01*
X87828571Y-89571428D01*
X87714285Y-89542857D01*
X87657142Y-89514285D01*
X87600000Y-89457142D01*
X87571428Y-89371428D01*
X87571428Y-89314285D01*
X87600000Y-89228571D01*
X87628571Y-89200000D01*
X88171428Y-88628571D02*
X88171428Y-88971428D01*
X88171428Y-88800000D02*
X87571428Y-88800000D01*
X87657142Y-88857142D01*
X87714285Y-88914285D01*
X87742857Y-88971428D01*
X88007142Y-91121428D02*
X87664285Y-91121428D01*
X87835714Y-91121428D02*
X87835714Y-90521428D01*
X87778571Y-90607142D01*
X87721428Y-90664285D01*
X87664285Y-90692857D01*
X88378571Y-90521428D02*
X88435714Y-90521428D01*
X88492857Y-90550000D01*
X88521428Y-90578571D01*
X88550000Y-90635714D01*
X88578571Y-90750000D01*
X88578571Y-90892857D01*
X88550000Y-91007142D01*
X88521428Y-91064285D01*
X88492857Y-91092857D01*
X88435714Y-91121428D01*
X88378571Y-91121428D01*
X88321428Y-91092857D01*
X88292857Y-91064285D01*
X88264285Y-91007142D01*
X88235714Y-90892857D01*
X88235714Y-90750000D01*
X88264285Y-90635714D01*
X88292857Y-90578571D01*
X88321428Y-90550000D01*
X88378571Y-90521428D01*
X88835714Y-90721428D02*
X88835714Y-91121428D01*
X88835714Y-90778571D02*
X88864285Y-90750000D01*
X88921428Y-90721428D01*
X89007142Y-90721428D01*
X89064285Y-90750000D01*
X89092857Y-90807142D01*
X89092857Y-91121428D01*
X89578571Y-90807142D02*
X89378571Y-90807142D01*
X89378571Y-91121428D02*
X89378571Y-90521428D01*
X89664285Y-90521428D01*
X94771428Y-83700000D02*
X94485714Y-83900000D01*
X94771428Y-84042857D02*
X94171428Y-84042857D01*
X94171428Y-83814285D01*
X94200000Y-83757142D01*
X94228571Y-83728571D01*
X94285714Y-83700000D01*
X94371428Y-83700000D01*
X94428571Y-83728571D01*
X94457142Y-83757142D01*
X94485714Y-83814285D01*
X94485714Y-84042857D01*
X94771428Y-83128571D02*
X94771428Y-83471428D01*
X94771428Y-83300000D02*
X94171428Y-83300000D01*
X94257142Y-83357142D01*
X94314285Y-83414285D01*
X94342857Y-83471428D01*
X94771428Y-79757142D02*
X95171428Y-79757142D01*
X94542857Y-79900000D02*
X94971428Y-80042857D01*
X94971428Y-79671428D01*
X95114285Y-79442857D02*
X95142857Y-79414285D01*
X95171428Y-79442857D01*
X95142857Y-79471428D01*
X95114285Y-79442857D01*
X95171428Y-79442857D01*
X94571428Y-79214285D02*
X94571428Y-78814285D01*
X95171428Y-79071428D01*
X95171428Y-78585714D02*
X94571428Y-78585714D01*
X94942857Y-78528571D02*
X95171428Y-78357142D01*
X94771428Y-78357142D02*
X95000000Y-78585714D01*
X95364285Y-89700000D02*
X95392857Y-89728571D01*
X95421428Y-89814285D01*
X95421428Y-89871428D01*
X95392857Y-89957142D01*
X95335714Y-90014285D01*
X95278571Y-90042857D01*
X95164285Y-90071428D01*
X95078571Y-90071428D01*
X94964285Y-90042857D01*
X94907142Y-90014285D01*
X94850000Y-89957142D01*
X94821428Y-89871428D01*
X94821428Y-89814285D01*
X94850000Y-89728571D01*
X94878571Y-89700000D01*
X94821428Y-89500000D02*
X94821428Y-89128571D01*
X95050000Y-89328571D01*
X95050000Y-89242857D01*
X95078571Y-89185714D01*
X95107142Y-89157142D01*
X95164285Y-89128571D01*
X95307142Y-89128571D01*
X95364285Y-89157142D01*
X95392857Y-89185714D01*
X95421428Y-89242857D01*
X95421428Y-89414285D01*
X95392857Y-89471428D01*
X95364285Y-89500000D01*
X93557142Y-91971428D02*
X93557142Y-92371428D01*
X93414285Y-91742857D02*
X93271428Y-92171428D01*
X93642857Y-92171428D01*
X93871428Y-92314285D02*
X93900000Y-92342857D01*
X93871428Y-92371428D01*
X93842857Y-92342857D01*
X93871428Y-92314285D01*
X93871428Y-92371428D01*
X94100000Y-91771428D02*
X94500000Y-91771428D01*
X94242857Y-92371428D01*
X94985714Y-91971428D02*
X94985714Y-92371428D01*
X94728571Y-91971428D02*
X94728571Y-92285714D01*
X94757142Y-92342857D01*
X94814285Y-92371428D01*
X94900000Y-92371428D01*
X94957142Y-92342857D01*
X94985714Y-92314285D01*
X95471428Y-92057142D02*
X95271428Y-92057142D01*
X95271428Y-92371428D02*
X95271428Y-91771428D01*
X95557142Y-91771428D01*
X95021428Y-87880952D02*
X95021428Y-87119047D01*
X95402380Y-87500000D02*
X94640476Y-87500000D01*
X92050000Y-92564285D02*
X92021428Y-92592857D01*
X91935714Y-92621428D01*
X91878571Y-92621428D01*
X91792857Y-92592857D01*
X91735714Y-92535714D01*
X91707142Y-92478571D01*
X91678571Y-92364285D01*
X91678571Y-92278571D01*
X91707142Y-92164285D01*
X91735714Y-92107142D01*
X91792857Y-92050000D01*
X91878571Y-92021428D01*
X91935714Y-92021428D01*
X92021428Y-92050000D01*
X92050000Y-92078571D01*
X92592857Y-92021428D02*
X92307142Y-92021428D01*
X92278571Y-92307142D01*
X92307142Y-92278571D01*
X92364285Y-92250000D01*
X92507142Y-92250000D01*
X92564285Y-92278571D01*
X92592857Y-92307142D01*
X92621428Y-92364285D01*
X92621428Y-92507142D01*
X92592857Y-92564285D01*
X92564285Y-92592857D01*
X92507142Y-92621428D01*
X92364285Y-92621428D01*
X92307142Y-92592857D01*
X92278571Y-92564285D01*
X91585714Y-91564285D02*
X91614285Y-91592857D01*
X91585714Y-91621428D01*
X91557142Y-91592857D01*
X91585714Y-91564285D01*
X91585714Y-91621428D01*
X92185714Y-91621428D02*
X91842857Y-91621428D01*
X92014285Y-91621428D02*
X92014285Y-91021428D01*
X91957142Y-91107142D01*
X91900000Y-91164285D01*
X91842857Y-91192857D01*
X92700000Y-91221428D02*
X92700000Y-91621428D01*
X92442857Y-91221428D02*
X92442857Y-91535714D01*
X92471428Y-91592857D01*
X92528571Y-91621428D01*
X92614285Y-91621428D01*
X92671428Y-91592857D01*
X92700000Y-91564285D01*
X93185714Y-91307142D02*
X92985714Y-91307142D01*
X92985714Y-91621428D02*
X92985714Y-91021428D01*
X93271428Y-91021428D01*
D12*
X92090476Y-80461904D02*
X92090476Y-81109523D01*
X92128571Y-81185714D01*
X92166666Y-81223809D01*
X92242857Y-81261904D01*
X92395238Y-81261904D01*
X92471428Y-81223809D01*
X92509523Y-81185714D01*
X92547619Y-81109523D01*
X92547619Y-80461904D01*
X93347619Y-81261904D02*
X92890476Y-81261904D01*
X93119047Y-81261904D02*
X93119047Y-80461904D01*
X93042857Y-80576190D01*
X92966666Y-80652380D01*
X92890476Y-80690476D01*
D11*
X84659523Y-81676190D02*
X84659523Y-81176190D01*
X84826190Y-81533333D01*
X84992857Y-81176190D01*
X84992857Y-81676190D01*
X85230952Y-81676190D02*
X85230952Y-81176190D01*
X85421428Y-81176190D01*
X85469047Y-81200000D01*
X85492857Y-81223809D01*
X85516666Y-81271428D01*
X85516666Y-81342857D01*
X85492857Y-81390476D01*
X85469047Y-81414285D01*
X85421428Y-81438095D01*
X85230952Y-81438095D01*
X85730952Y-81176190D02*
X85730952Y-81580952D01*
X85754761Y-81628571D01*
X85778571Y-81652380D01*
X85826190Y-81676190D01*
X85921428Y-81676190D01*
X85969047Y-81652380D01*
X85992857Y-81628571D01*
X86016666Y-81580952D01*
X86016666Y-81176190D01*
X86254761Y-81485714D02*
X86635714Y-81485714D01*
X87088095Y-81176190D02*
X86992857Y-81176190D01*
X86945238Y-81200000D01*
X86921428Y-81223809D01*
X86873809Y-81295238D01*
X86850000Y-81390476D01*
X86850000Y-81580952D01*
X86873809Y-81628571D01*
X86897619Y-81652380D01*
X86945238Y-81676190D01*
X87040476Y-81676190D01*
X87088095Y-81652380D01*
X87111904Y-81628571D01*
X87135714Y-81580952D01*
X87135714Y-81461904D01*
X87111904Y-81414285D01*
X87088095Y-81390476D01*
X87040476Y-81366666D01*
X86945238Y-81366666D01*
X86897619Y-81390476D01*
X86873809Y-81414285D01*
X86850000Y-81461904D01*
X87445238Y-81176190D02*
X87492857Y-81176190D01*
X87540476Y-81200000D01*
X87564285Y-81223809D01*
X87588095Y-81271428D01*
X87611904Y-81366666D01*
X87611904Y-81485714D01*
X87588095Y-81580952D01*
X87564285Y-81628571D01*
X87540476Y-81652380D01*
X87492857Y-81676190D01*
X87445238Y-81676190D01*
X87397619Y-81652380D01*
X87373809Y-81628571D01*
X87350000Y-81580952D01*
X87326190Y-81485714D01*
X87326190Y-81366666D01*
X87350000Y-81271428D01*
X87373809Y-81223809D01*
X87397619Y-81200000D01*
X87445238Y-81176190D01*
X88064285Y-81176190D02*
X87826190Y-81176190D01*
X87802380Y-81414285D01*
X87826190Y-81390476D01*
X87873809Y-81366666D01*
X87992857Y-81366666D01*
X88040476Y-81390476D01*
X88064285Y-81414285D01*
X88088095Y-81461904D01*
X88088095Y-81580952D01*
X88064285Y-81628571D01*
X88040476Y-81652380D01*
X87992857Y-81676190D01*
X87873809Y-81676190D01*
X87826190Y-81652380D01*
X87802380Y-81628571D01*
X88397619Y-81176190D02*
X88445238Y-81176190D01*
X88492857Y-81200000D01*
X88516666Y-81223809D01*
X88540476Y-81271428D01*
X88564285Y-81366666D01*
X88564285Y-81485714D01*
X88540476Y-81580952D01*
X88516666Y-81628571D01*
X88492857Y-81652380D01*
X88445238Y-81676190D01*
X88397619Y-81676190D01*
X88350000Y-81652380D01*
X88326190Y-81628571D01*
X88302380Y-81580952D01*
X88278571Y-81485714D01*
X88278571Y-81366666D01*
X88302380Y-81271428D01*
X88326190Y-81223809D01*
X88350000Y-81200000D01*
X88397619Y-81176190D01*
D17*
X96971428Y-84600000D02*
X96685714Y-84800000D01*
X96971428Y-84942857D02*
X96371428Y-84942857D01*
X96371428Y-84714285D01*
X96400000Y-84657142D01*
X96428571Y-84628571D01*
X96485714Y-84600000D01*
X96571428Y-84600000D01*
X96628571Y-84628571D01*
X96657142Y-84657142D01*
X96685714Y-84714285D01*
X96685714Y-84942857D01*
X96428571Y-84371428D02*
X96400000Y-84342857D01*
X96371428Y-84285714D01*
X96371428Y-84142857D01*
X96400000Y-84085714D01*
X96428571Y-84057142D01*
X96485714Y-84028571D01*
X96542857Y-84028571D01*
X96628571Y-84057142D01*
X96971428Y-84400000D01*
X96971428Y-84028571D01*
X96571428Y-79357142D02*
X96971428Y-79357142D01*
X96342857Y-79500000D02*
X96771428Y-79642857D01*
X96771428Y-79271428D01*
X96914285Y-79042857D02*
X96942857Y-79014285D01*
X96971428Y-79042857D01*
X96942857Y-79071428D01*
X96914285Y-79042857D01*
X96971428Y-79042857D01*
X96371428Y-78814285D02*
X96371428Y-78414285D01*
X96971428Y-78671428D01*
X96971428Y-78185714D02*
X96371428Y-78185714D01*
X96742857Y-78128571D02*
X96971428Y-77957142D01*
X96571428Y-77957142D02*
X96800000Y-78185714D01*
D12*
X31290476Y-72161904D02*
X31290476Y-72809523D01*
X31328571Y-72885714D01*
X31366666Y-72923809D01*
X31442857Y-72961904D01*
X31595238Y-72961904D01*
X31671428Y-72923809D01*
X31709523Y-72885714D01*
X31747619Y-72809523D01*
X31747619Y-72161904D01*
X32547619Y-72961904D02*
X32090476Y-72961904D01*
X32319047Y-72961904D02*
X32319047Y-72161904D01*
X32242857Y-72276190D01*
X32166666Y-72352380D01*
X32090476Y-72390476D01*
D11*
X23859523Y-73376190D02*
X23859523Y-72876190D01*
X24026190Y-73233333D01*
X24192857Y-72876190D01*
X24192857Y-73376190D01*
X24430952Y-73376190D02*
X24430952Y-72876190D01*
X24621428Y-72876190D01*
X24669047Y-72900000D01*
X24692857Y-72923809D01*
X24716666Y-72971428D01*
X24716666Y-73042857D01*
X24692857Y-73090476D01*
X24669047Y-73114285D01*
X24621428Y-73138095D01*
X24430952Y-73138095D01*
X24930952Y-72876190D02*
X24930952Y-73280952D01*
X24954761Y-73328571D01*
X24978571Y-73352380D01*
X25026190Y-73376190D01*
X25121428Y-73376190D01*
X25169047Y-73352380D01*
X25192857Y-73328571D01*
X25216666Y-73280952D01*
X25216666Y-72876190D01*
X25454761Y-73185714D02*
X25835714Y-73185714D01*
X26288095Y-72876190D02*
X26192857Y-72876190D01*
X26145238Y-72900000D01*
X26121428Y-72923809D01*
X26073809Y-72995238D01*
X26050000Y-73090476D01*
X26050000Y-73280952D01*
X26073809Y-73328571D01*
X26097619Y-73352380D01*
X26145238Y-73376190D01*
X26240476Y-73376190D01*
X26288095Y-73352380D01*
X26311904Y-73328571D01*
X26335714Y-73280952D01*
X26335714Y-73161904D01*
X26311904Y-73114285D01*
X26288095Y-73090476D01*
X26240476Y-73066666D01*
X26145238Y-73066666D01*
X26097619Y-73090476D01*
X26073809Y-73114285D01*
X26050000Y-73161904D01*
X26645238Y-72876190D02*
X26692857Y-72876190D01*
X26740476Y-72900000D01*
X26764285Y-72923809D01*
X26788095Y-72971428D01*
X26811904Y-73066666D01*
X26811904Y-73185714D01*
X26788095Y-73280952D01*
X26764285Y-73328571D01*
X26740476Y-73352380D01*
X26692857Y-73376190D01*
X26645238Y-73376190D01*
X26597619Y-73352380D01*
X26573809Y-73328571D01*
X26550000Y-73280952D01*
X26526190Y-73185714D01*
X26526190Y-73066666D01*
X26550000Y-72971428D01*
X26573809Y-72923809D01*
X26597619Y-72900000D01*
X26645238Y-72876190D01*
X27264285Y-72876190D02*
X27026190Y-72876190D01*
X27002380Y-73114285D01*
X27026190Y-73090476D01*
X27073809Y-73066666D01*
X27192857Y-73066666D01*
X27240476Y-73090476D01*
X27264285Y-73114285D01*
X27288095Y-73161904D01*
X27288095Y-73280952D01*
X27264285Y-73328571D01*
X27240476Y-73352380D01*
X27192857Y-73376190D01*
X27073809Y-73376190D01*
X27026190Y-73352380D01*
X27002380Y-73328571D01*
X27597619Y-72876190D02*
X27645238Y-72876190D01*
X27692857Y-72900000D01*
X27716666Y-72923809D01*
X27740476Y-72971428D01*
X27764285Y-73066666D01*
X27764285Y-73185714D01*
X27740476Y-73280952D01*
X27716666Y-73328571D01*
X27692857Y-73352380D01*
X27645238Y-73376190D01*
X27597619Y-73376190D01*
X27550000Y-73352380D01*
X27526190Y-73328571D01*
X27502380Y-73280952D01*
X27478571Y-73185714D01*
X27478571Y-73066666D01*
X27502380Y-72971428D01*
X27526190Y-72923809D01*
X27550000Y-72900000D01*
X27597619Y-72876190D01*
D17*
X29750000Y-84264285D02*
X29721428Y-84292857D01*
X29635714Y-84321428D01*
X29578571Y-84321428D01*
X29492857Y-84292857D01*
X29435714Y-84235714D01*
X29407142Y-84178571D01*
X29378571Y-84064285D01*
X29378571Y-83978571D01*
X29407142Y-83864285D01*
X29435714Y-83807142D01*
X29492857Y-83750000D01*
X29578571Y-83721428D01*
X29635714Y-83721428D01*
X29721428Y-83750000D01*
X29750000Y-83778571D01*
X30264285Y-83921428D02*
X30264285Y-84321428D01*
X30121428Y-83692857D02*
X29978571Y-84121428D01*
X30350000Y-84121428D01*
X28785714Y-83264285D02*
X28814285Y-83292857D01*
X28785714Y-83321428D01*
X28757142Y-83292857D01*
X28785714Y-83264285D01*
X28785714Y-83321428D01*
X29385714Y-83321428D02*
X29042857Y-83321428D01*
X29214285Y-83321428D02*
X29214285Y-82721428D01*
X29157142Y-82807142D01*
X29100000Y-82864285D01*
X29042857Y-82892857D01*
X29900000Y-82921428D02*
X29900000Y-83321428D01*
X29642857Y-82921428D02*
X29642857Y-83235714D01*
X29671428Y-83292857D01*
X29728571Y-83321428D01*
X29814285Y-83321428D01*
X29871428Y-83292857D01*
X29900000Y-83264285D01*
X30385714Y-83007142D02*
X30185714Y-83007142D01*
X30185714Y-83321428D02*
X30185714Y-82721428D01*
X30471428Y-82721428D01*
X27314285Y-80900000D02*
X27342857Y-80928571D01*
X27371428Y-81014285D01*
X27371428Y-81071428D01*
X27342857Y-81157142D01*
X27285714Y-81214285D01*
X27228571Y-81242857D01*
X27114285Y-81271428D01*
X27028571Y-81271428D01*
X26914285Y-81242857D01*
X26857142Y-81214285D01*
X26800000Y-81157142D01*
X26771428Y-81071428D01*
X26771428Y-81014285D01*
X26800000Y-80928571D01*
X26828571Y-80900000D01*
X27371428Y-80328571D02*
X27371428Y-80671428D01*
X27371428Y-80500000D02*
X26771428Y-80500000D01*
X26857142Y-80557142D01*
X26914285Y-80614285D01*
X26942857Y-80671428D01*
X27207142Y-82821428D02*
X26864285Y-82821428D01*
X27035714Y-82821428D02*
X27035714Y-82221428D01*
X26978571Y-82307142D01*
X26921428Y-82364285D01*
X26864285Y-82392857D01*
X27578571Y-82221428D02*
X27635714Y-82221428D01*
X27692857Y-82250000D01*
X27721428Y-82278571D01*
X27750000Y-82335714D01*
X27778571Y-82450000D01*
X27778571Y-82592857D01*
X27750000Y-82707142D01*
X27721428Y-82764285D01*
X27692857Y-82792857D01*
X27635714Y-82821428D01*
X27578571Y-82821428D01*
X27521428Y-82792857D01*
X27492857Y-82764285D01*
X27464285Y-82707142D01*
X27435714Y-82592857D01*
X27435714Y-82450000D01*
X27464285Y-82335714D01*
X27492857Y-82278571D01*
X27521428Y-82250000D01*
X27578571Y-82221428D01*
X28035714Y-82421428D02*
X28035714Y-82821428D01*
X28035714Y-82478571D02*
X28064285Y-82450000D01*
X28121428Y-82421428D01*
X28207142Y-82421428D01*
X28264285Y-82450000D01*
X28292857Y-82507142D01*
X28292857Y-82821428D01*
X28778571Y-82507142D02*
X28578571Y-82507142D01*
X28578571Y-82821428D02*
X28578571Y-82221428D01*
X28864285Y-82221428D01*
X34564285Y-81400000D02*
X34592857Y-81428571D01*
X34621428Y-81514285D01*
X34621428Y-81571428D01*
X34592857Y-81657142D01*
X34535714Y-81714285D01*
X34478571Y-81742857D01*
X34364285Y-81771428D01*
X34278571Y-81771428D01*
X34164285Y-81742857D01*
X34107142Y-81714285D01*
X34050000Y-81657142D01*
X34021428Y-81571428D01*
X34021428Y-81514285D01*
X34050000Y-81428571D01*
X34078571Y-81400000D01*
X34021428Y-81200000D02*
X34021428Y-80828571D01*
X34250000Y-81028571D01*
X34250000Y-80942857D01*
X34278571Y-80885714D01*
X34307142Y-80857142D01*
X34364285Y-80828571D01*
X34507142Y-80828571D01*
X34564285Y-80857142D01*
X34592857Y-80885714D01*
X34621428Y-80942857D01*
X34621428Y-81114285D01*
X34592857Y-81171428D01*
X34564285Y-81200000D01*
X32757142Y-83671428D02*
X32757142Y-84071428D01*
X32614285Y-83442857D02*
X32471428Y-83871428D01*
X32842857Y-83871428D01*
X33071428Y-84014285D02*
X33100000Y-84042857D01*
X33071428Y-84071428D01*
X33042857Y-84042857D01*
X33071428Y-84014285D01*
X33071428Y-84071428D01*
X33300000Y-83471428D02*
X33700000Y-83471428D01*
X33442857Y-84071428D01*
X34185714Y-83671428D02*
X34185714Y-84071428D01*
X33928571Y-83671428D02*
X33928571Y-83985714D01*
X33957142Y-84042857D01*
X34014285Y-84071428D01*
X34100000Y-84071428D01*
X34157142Y-84042857D01*
X34185714Y-84014285D01*
X34671428Y-83757142D02*
X34471428Y-83757142D01*
X34471428Y-84071428D02*
X34471428Y-83471428D01*
X34757142Y-83471428D01*
X34221428Y-79580952D02*
X34221428Y-78819047D01*
X34602380Y-79200000D02*
X33840476Y-79200000D01*
X37300000Y-71671428D02*
X37100000Y-71385714D01*
X36957142Y-71671428D02*
X36957142Y-71071428D01*
X37185714Y-71071428D01*
X37242857Y-71100000D01*
X37271428Y-71128571D01*
X37300000Y-71185714D01*
X37300000Y-71271428D01*
X37271428Y-71328571D01*
X37242857Y-71357142D01*
X37185714Y-71385714D01*
X36957142Y-71385714D01*
X37528571Y-71128571D02*
X37557142Y-71100000D01*
X37614285Y-71071428D01*
X37757142Y-71071428D01*
X37814285Y-71100000D01*
X37842857Y-71128571D01*
X37871428Y-71185714D01*
X37871428Y-71242857D01*
X37842857Y-71328571D01*
X37500000Y-71671428D01*
X37871428Y-71671428D01*
X35242857Y-70071428D02*
X35242857Y-70471428D01*
X35100000Y-69842857D02*
X34957142Y-70271428D01*
X35328571Y-70271428D01*
X35557142Y-70414285D02*
X35585714Y-70442857D01*
X35557142Y-70471428D01*
X35528571Y-70442857D01*
X35557142Y-70414285D01*
X35557142Y-70471428D01*
X35785714Y-69871428D02*
X36185714Y-69871428D01*
X35928571Y-70471428D01*
X36414285Y-70471428D02*
X36414285Y-69871428D01*
X36471428Y-70242857D02*
X36642857Y-70471428D01*
X36642857Y-70071428D02*
X36414285Y-70300000D01*
X51666666Y-82452380D02*
X51666666Y-83166666D01*
X51619047Y-83309523D01*
X51523809Y-83404761D01*
X51380952Y-83452380D01*
X51285714Y-83452380D01*
X52666666Y-83452380D02*
X52095238Y-83452380D01*
X52380952Y-83452380D02*
X52380952Y-82452380D01*
X52285714Y-82595238D01*
X52190476Y-82690476D01*
X52095238Y-82738095D01*
X29800000Y-71214285D02*
X29771428Y-71242857D01*
X29685714Y-71271428D01*
X29628571Y-71271428D01*
X29542857Y-71242857D01*
X29485714Y-71185714D01*
X29457142Y-71128571D01*
X29428571Y-71014285D01*
X29428571Y-70928571D01*
X29457142Y-70814285D01*
X29485714Y-70757142D01*
X29542857Y-70700000D01*
X29628571Y-70671428D01*
X29685714Y-70671428D01*
X29771428Y-70700000D01*
X29800000Y-70728571D01*
X30028571Y-70728571D02*
X30057142Y-70700000D01*
X30114285Y-70671428D01*
X30257142Y-70671428D01*
X30314285Y-70700000D01*
X30342857Y-70728571D01*
X30371428Y-70785714D01*
X30371428Y-70842857D01*
X30342857Y-70928571D01*
X30000000Y-71271428D01*
X30371428Y-71271428D01*
X30971428Y-69928571D02*
X31000000Y-69900000D01*
X31057142Y-69871428D01*
X31200000Y-69871428D01*
X31257142Y-69900000D01*
X31285714Y-69928571D01*
X31314285Y-69985714D01*
X31314285Y-70042857D01*
X31285714Y-70128571D01*
X30942857Y-70471428D01*
X31314285Y-70471428D01*
X31571428Y-70414285D02*
X31600000Y-70442857D01*
X31571428Y-70471428D01*
X31542857Y-70442857D01*
X31571428Y-70414285D01*
X31571428Y-70471428D01*
X31828571Y-69928571D02*
X31857142Y-69900000D01*
X31914285Y-69871428D01*
X32057142Y-69871428D01*
X32114285Y-69900000D01*
X32142857Y-69928571D01*
X32171428Y-69985714D01*
X32171428Y-70042857D01*
X32142857Y-70128571D01*
X31800000Y-70471428D01*
X32171428Y-70471428D01*
X32428571Y-70071428D02*
X32428571Y-70471428D01*
X32428571Y-70128571D02*
X32457142Y-70100000D01*
X32514285Y-70071428D01*
X32600000Y-70071428D01*
X32657142Y-70100000D01*
X32685714Y-70157142D01*
X32685714Y-70471428D01*
X33171428Y-70157142D02*
X32971428Y-70157142D01*
X32971428Y-70471428D02*
X32971428Y-69871428D01*
X33257142Y-69871428D01*
X31250000Y-84264285D02*
X31221428Y-84292857D01*
X31135714Y-84321428D01*
X31078571Y-84321428D01*
X30992857Y-84292857D01*
X30935714Y-84235714D01*
X30907142Y-84178571D01*
X30878571Y-84064285D01*
X30878571Y-83978571D01*
X30907142Y-83864285D01*
X30935714Y-83807142D01*
X30992857Y-83750000D01*
X31078571Y-83721428D01*
X31135714Y-83721428D01*
X31221428Y-83750000D01*
X31250000Y-83778571D01*
X31792857Y-83721428D02*
X31507142Y-83721428D01*
X31478571Y-84007142D01*
X31507142Y-83978571D01*
X31564285Y-83950000D01*
X31707142Y-83950000D01*
X31764285Y-83978571D01*
X31792857Y-84007142D01*
X31821428Y-84064285D01*
X31821428Y-84207142D01*
X31792857Y-84264285D01*
X31764285Y-84292857D01*
X31707142Y-84321428D01*
X31564285Y-84321428D01*
X31507142Y-84292857D01*
X31478571Y-84264285D01*
X30785714Y-83264285D02*
X30814285Y-83292857D01*
X30785714Y-83321428D01*
X30757142Y-83292857D01*
X30785714Y-83264285D01*
X30785714Y-83321428D01*
X31385714Y-83321428D02*
X31042857Y-83321428D01*
X31214285Y-83321428D02*
X31214285Y-82721428D01*
X31157142Y-82807142D01*
X31100000Y-82864285D01*
X31042857Y-82892857D01*
X31900000Y-82921428D02*
X31900000Y-83321428D01*
X31642857Y-82921428D02*
X31642857Y-83235714D01*
X31671428Y-83292857D01*
X31728571Y-83321428D01*
X31814285Y-83321428D01*
X31871428Y-83292857D01*
X31900000Y-83264285D01*
X32385714Y-83007142D02*
X32185714Y-83007142D01*
X32185714Y-83321428D02*
X32185714Y-82721428D01*
X32471428Y-82721428D01*
X37300000Y-73671428D02*
X37100000Y-73385714D01*
X36957142Y-73671428D02*
X36957142Y-73071428D01*
X37185714Y-73071428D01*
X37242857Y-73100000D01*
X37271428Y-73128571D01*
X37300000Y-73185714D01*
X37300000Y-73271428D01*
X37271428Y-73328571D01*
X37242857Y-73357142D01*
X37185714Y-73385714D01*
X36957142Y-73385714D01*
X37871428Y-73671428D02*
X37528571Y-73671428D01*
X37700000Y-73671428D02*
X37700000Y-73071428D01*
X37642857Y-73157142D01*
X37585714Y-73214285D01*
X37528571Y-73242857D01*
X35342857Y-74871428D02*
X35342857Y-75271428D01*
X35200000Y-74642857D02*
X35057142Y-75071428D01*
X35428571Y-75071428D01*
X35657142Y-75214285D02*
X35685714Y-75242857D01*
X35657142Y-75271428D01*
X35628571Y-75242857D01*
X35657142Y-75214285D01*
X35657142Y-75271428D01*
X35885714Y-74671428D02*
X36285714Y-74671428D01*
X36028571Y-75271428D01*
X36514285Y-75271428D02*
X36514285Y-74671428D01*
X36571428Y-75042857D02*
X36742857Y-75271428D01*
X36742857Y-74871428D02*
X36514285Y-75100000D01*
X92050000Y-75564285D02*
X92021428Y-75592857D01*
X91935714Y-75621428D01*
X91878571Y-75621428D01*
X91792857Y-75592857D01*
X91735714Y-75535714D01*
X91707142Y-75478571D01*
X91678571Y-75364285D01*
X91678571Y-75278571D01*
X91707142Y-75164285D01*
X91735714Y-75107142D01*
X91792857Y-75050000D01*
X91878571Y-75021428D01*
X91935714Y-75021428D01*
X92021428Y-75050000D01*
X92050000Y-75078571D01*
X92592857Y-75021428D02*
X92307142Y-75021428D01*
X92278571Y-75307142D01*
X92307142Y-75278571D01*
X92364285Y-75250000D01*
X92507142Y-75250000D01*
X92564285Y-75278571D01*
X92592857Y-75307142D01*
X92621428Y-75364285D01*
X92621428Y-75507142D01*
X92592857Y-75564285D01*
X92564285Y-75592857D01*
X92507142Y-75621428D01*
X92364285Y-75621428D01*
X92307142Y-75592857D01*
X92278571Y-75564285D01*
X91585714Y-74564285D02*
X91614285Y-74592857D01*
X91585714Y-74621428D01*
X91557142Y-74592857D01*
X91585714Y-74564285D01*
X91585714Y-74621428D01*
X92185714Y-74621428D02*
X91842857Y-74621428D01*
X92014285Y-74621428D02*
X92014285Y-74021428D01*
X91957142Y-74107142D01*
X91900000Y-74164285D01*
X91842857Y-74192857D01*
X92700000Y-74221428D02*
X92700000Y-74621428D01*
X92442857Y-74221428D02*
X92442857Y-74535714D01*
X92471428Y-74592857D01*
X92528571Y-74621428D01*
X92614285Y-74621428D01*
X92671428Y-74592857D01*
X92700000Y-74564285D01*
X93185714Y-74307142D02*
X92985714Y-74307142D01*
X92985714Y-74621428D02*
X92985714Y-74021428D01*
X93271428Y-74021428D01*
D12*
X92090476Y-63461904D02*
X92090476Y-64109523D01*
X92128571Y-64185714D01*
X92166666Y-64223809D01*
X92242857Y-64261904D01*
X92395238Y-64261904D01*
X92471428Y-64223809D01*
X92509523Y-64185714D01*
X92547619Y-64109523D01*
X92547619Y-63461904D01*
X93347619Y-64261904D02*
X92890476Y-64261904D01*
X93119047Y-64261904D02*
X93119047Y-63461904D01*
X93042857Y-63576190D01*
X92966666Y-63652380D01*
X92890476Y-63690476D01*
D11*
X84659523Y-64676190D02*
X84659523Y-64176190D01*
X84826190Y-64533333D01*
X84992857Y-64176190D01*
X84992857Y-64676190D01*
X85230952Y-64676190D02*
X85230952Y-64176190D01*
X85421428Y-64176190D01*
X85469047Y-64200000D01*
X85492857Y-64223809D01*
X85516666Y-64271428D01*
X85516666Y-64342857D01*
X85492857Y-64390476D01*
X85469047Y-64414285D01*
X85421428Y-64438095D01*
X85230952Y-64438095D01*
X85730952Y-64176190D02*
X85730952Y-64580952D01*
X85754761Y-64628571D01*
X85778571Y-64652380D01*
X85826190Y-64676190D01*
X85921428Y-64676190D01*
X85969047Y-64652380D01*
X85992857Y-64628571D01*
X86016666Y-64580952D01*
X86016666Y-64176190D01*
X86254761Y-64485714D02*
X86635714Y-64485714D01*
X87088095Y-64176190D02*
X86992857Y-64176190D01*
X86945238Y-64200000D01*
X86921428Y-64223809D01*
X86873809Y-64295238D01*
X86850000Y-64390476D01*
X86850000Y-64580952D01*
X86873809Y-64628571D01*
X86897619Y-64652380D01*
X86945238Y-64676190D01*
X87040476Y-64676190D01*
X87088095Y-64652380D01*
X87111904Y-64628571D01*
X87135714Y-64580952D01*
X87135714Y-64461904D01*
X87111904Y-64414285D01*
X87088095Y-64390476D01*
X87040476Y-64366666D01*
X86945238Y-64366666D01*
X86897619Y-64390476D01*
X86873809Y-64414285D01*
X86850000Y-64461904D01*
X87445238Y-64176190D02*
X87492857Y-64176190D01*
X87540476Y-64200000D01*
X87564285Y-64223809D01*
X87588095Y-64271428D01*
X87611904Y-64366666D01*
X87611904Y-64485714D01*
X87588095Y-64580952D01*
X87564285Y-64628571D01*
X87540476Y-64652380D01*
X87492857Y-64676190D01*
X87445238Y-64676190D01*
X87397619Y-64652380D01*
X87373809Y-64628571D01*
X87350000Y-64580952D01*
X87326190Y-64485714D01*
X87326190Y-64366666D01*
X87350000Y-64271428D01*
X87373809Y-64223809D01*
X87397619Y-64200000D01*
X87445238Y-64176190D01*
X88064285Y-64176190D02*
X87826190Y-64176190D01*
X87802380Y-64414285D01*
X87826190Y-64390476D01*
X87873809Y-64366666D01*
X87992857Y-64366666D01*
X88040476Y-64390476D01*
X88064285Y-64414285D01*
X88088095Y-64461904D01*
X88088095Y-64580952D01*
X88064285Y-64628571D01*
X88040476Y-64652380D01*
X87992857Y-64676190D01*
X87873809Y-64676190D01*
X87826190Y-64652380D01*
X87802380Y-64628571D01*
X88397619Y-64176190D02*
X88445238Y-64176190D01*
X88492857Y-64200000D01*
X88516666Y-64223809D01*
X88540476Y-64271428D01*
X88564285Y-64366666D01*
X88564285Y-64485714D01*
X88540476Y-64580952D01*
X88516666Y-64628571D01*
X88492857Y-64652380D01*
X88445238Y-64676190D01*
X88397619Y-64676190D01*
X88350000Y-64652380D01*
X88326190Y-64628571D01*
X88302380Y-64580952D01*
X88278571Y-64485714D01*
X88278571Y-64366666D01*
X88302380Y-64271428D01*
X88326190Y-64223809D01*
X88350000Y-64200000D01*
X88397619Y-64176190D01*
D17*
X90550000Y-75564285D02*
X90521428Y-75592857D01*
X90435714Y-75621428D01*
X90378571Y-75621428D01*
X90292857Y-75592857D01*
X90235714Y-75535714D01*
X90207142Y-75478571D01*
X90178571Y-75364285D01*
X90178571Y-75278571D01*
X90207142Y-75164285D01*
X90235714Y-75107142D01*
X90292857Y-75050000D01*
X90378571Y-75021428D01*
X90435714Y-75021428D01*
X90521428Y-75050000D01*
X90550000Y-75078571D01*
X91064285Y-75221428D02*
X91064285Y-75621428D01*
X90921428Y-74992857D02*
X90778571Y-75421428D01*
X91150000Y-75421428D01*
X89585714Y-74564285D02*
X89614285Y-74592857D01*
X89585714Y-74621428D01*
X89557142Y-74592857D01*
X89585714Y-74564285D01*
X89585714Y-74621428D01*
X90185714Y-74621428D02*
X89842857Y-74621428D01*
X90014285Y-74621428D02*
X90014285Y-74021428D01*
X89957142Y-74107142D01*
X89900000Y-74164285D01*
X89842857Y-74192857D01*
X90700000Y-74221428D02*
X90700000Y-74621428D01*
X90442857Y-74221428D02*
X90442857Y-74535714D01*
X90471428Y-74592857D01*
X90528571Y-74621428D01*
X90614285Y-74621428D01*
X90671428Y-74592857D01*
X90700000Y-74564285D01*
X91185714Y-74307142D02*
X90985714Y-74307142D01*
X90985714Y-74621428D02*
X90985714Y-74021428D01*
X91271428Y-74021428D01*
X98100000Y-62971428D02*
X97900000Y-62685714D01*
X97757142Y-62971428D02*
X97757142Y-62371428D01*
X97985714Y-62371428D01*
X98042857Y-62400000D01*
X98071428Y-62428571D01*
X98100000Y-62485714D01*
X98100000Y-62571428D01*
X98071428Y-62628571D01*
X98042857Y-62657142D01*
X97985714Y-62685714D01*
X97757142Y-62685714D01*
X98328571Y-62428571D02*
X98357142Y-62400000D01*
X98414285Y-62371428D01*
X98557142Y-62371428D01*
X98614285Y-62400000D01*
X98642857Y-62428571D01*
X98671428Y-62485714D01*
X98671428Y-62542857D01*
X98642857Y-62628571D01*
X98300000Y-62971428D01*
X98671428Y-62971428D01*
X96042857Y-61371428D02*
X96042857Y-61771428D01*
X95900000Y-61142857D02*
X95757142Y-61571428D01*
X96128571Y-61571428D01*
X96357142Y-61714285D02*
X96385714Y-61742857D01*
X96357142Y-61771428D01*
X96328571Y-61742857D01*
X96357142Y-61714285D01*
X96357142Y-61771428D01*
X96585714Y-61171428D02*
X96985714Y-61171428D01*
X96728571Y-61771428D01*
X97214285Y-61771428D02*
X97214285Y-61171428D01*
X97271428Y-61542857D02*
X97442857Y-61771428D01*
X97442857Y-61371428D02*
X97214285Y-61600000D01*
X88114285Y-72200000D02*
X88142857Y-72228571D01*
X88171428Y-72314285D01*
X88171428Y-72371428D01*
X88142857Y-72457142D01*
X88085714Y-72514285D01*
X88028571Y-72542857D01*
X87914285Y-72571428D01*
X87828571Y-72571428D01*
X87714285Y-72542857D01*
X87657142Y-72514285D01*
X87600000Y-72457142D01*
X87571428Y-72371428D01*
X87571428Y-72314285D01*
X87600000Y-72228571D01*
X87628571Y-72200000D01*
X88171428Y-71628571D02*
X88171428Y-71971428D01*
X88171428Y-71800000D02*
X87571428Y-71800000D01*
X87657142Y-71857142D01*
X87714285Y-71914285D01*
X87742857Y-71971428D01*
X88007142Y-74121428D02*
X87664285Y-74121428D01*
X87835714Y-74121428D02*
X87835714Y-73521428D01*
X87778571Y-73607142D01*
X87721428Y-73664285D01*
X87664285Y-73692857D01*
X88378571Y-73521428D02*
X88435714Y-73521428D01*
X88492857Y-73550000D01*
X88521428Y-73578571D01*
X88550000Y-73635714D01*
X88578571Y-73750000D01*
X88578571Y-73892857D01*
X88550000Y-74007142D01*
X88521428Y-74064285D01*
X88492857Y-74092857D01*
X88435714Y-74121428D01*
X88378571Y-74121428D01*
X88321428Y-74092857D01*
X88292857Y-74064285D01*
X88264285Y-74007142D01*
X88235714Y-73892857D01*
X88235714Y-73750000D01*
X88264285Y-73635714D01*
X88292857Y-73578571D01*
X88321428Y-73550000D01*
X88378571Y-73521428D01*
X88835714Y-73721428D02*
X88835714Y-74121428D01*
X88835714Y-73778571D02*
X88864285Y-73750000D01*
X88921428Y-73721428D01*
X89007142Y-73721428D01*
X89064285Y-73750000D01*
X89092857Y-73807142D01*
X89092857Y-74121428D01*
X89578571Y-73807142D02*
X89378571Y-73807142D01*
X89378571Y-74121428D02*
X89378571Y-73521428D01*
X89664285Y-73521428D01*
X95364285Y-72700000D02*
X95392857Y-72728571D01*
X95421428Y-72814285D01*
X95421428Y-72871428D01*
X95392857Y-72957142D01*
X95335714Y-73014285D01*
X95278571Y-73042857D01*
X95164285Y-73071428D01*
X95078571Y-73071428D01*
X94964285Y-73042857D01*
X94907142Y-73014285D01*
X94850000Y-72957142D01*
X94821428Y-72871428D01*
X94821428Y-72814285D01*
X94850000Y-72728571D01*
X94878571Y-72700000D01*
X94821428Y-72500000D02*
X94821428Y-72128571D01*
X95050000Y-72328571D01*
X95050000Y-72242857D01*
X95078571Y-72185714D01*
X95107142Y-72157142D01*
X95164285Y-72128571D01*
X95307142Y-72128571D01*
X95364285Y-72157142D01*
X95392857Y-72185714D01*
X95421428Y-72242857D01*
X95421428Y-72414285D01*
X95392857Y-72471428D01*
X95364285Y-72500000D01*
X93557142Y-74971428D02*
X93557142Y-75371428D01*
X93414285Y-74742857D02*
X93271428Y-75171428D01*
X93642857Y-75171428D01*
X93871428Y-75314285D02*
X93900000Y-75342857D01*
X93871428Y-75371428D01*
X93842857Y-75342857D01*
X93871428Y-75314285D01*
X93871428Y-75371428D01*
X94100000Y-74771428D02*
X94500000Y-74771428D01*
X94242857Y-75371428D01*
X94985714Y-74971428D02*
X94985714Y-75371428D01*
X94728571Y-74971428D02*
X94728571Y-75285714D01*
X94757142Y-75342857D01*
X94814285Y-75371428D01*
X94900000Y-75371428D01*
X94957142Y-75342857D01*
X94985714Y-75314285D01*
X95471428Y-75057142D02*
X95271428Y-75057142D01*
X95271428Y-75371428D02*
X95271428Y-74771428D01*
X95557142Y-74771428D01*
X95021428Y-70880952D02*
X95021428Y-70119047D01*
X95402380Y-70500000D02*
X94640476Y-70500000D01*
X112466666Y-73752380D02*
X112466666Y-74466666D01*
X112419047Y-74609523D01*
X112323809Y-74704761D01*
X112180952Y-74752380D01*
X112085714Y-74752380D01*
X113466666Y-74752380D02*
X112895238Y-74752380D01*
X113180952Y-74752380D02*
X113180952Y-73752380D01*
X113085714Y-73895238D01*
X112990476Y-73990476D01*
X112895238Y-74038095D01*
X98100000Y-64971428D02*
X97900000Y-64685714D01*
X97757142Y-64971428D02*
X97757142Y-64371428D01*
X97985714Y-64371428D01*
X98042857Y-64400000D01*
X98071428Y-64428571D01*
X98100000Y-64485714D01*
X98100000Y-64571428D01*
X98071428Y-64628571D01*
X98042857Y-64657142D01*
X97985714Y-64685714D01*
X97757142Y-64685714D01*
X98671428Y-64971428D02*
X98328571Y-64971428D01*
X98500000Y-64971428D02*
X98500000Y-64371428D01*
X98442857Y-64457142D01*
X98385714Y-64514285D01*
X98328571Y-64542857D01*
X96142857Y-66171428D02*
X96142857Y-66571428D01*
X96000000Y-65942857D02*
X95857142Y-66371428D01*
X96228571Y-66371428D01*
X96457142Y-66514285D02*
X96485714Y-66542857D01*
X96457142Y-66571428D01*
X96428571Y-66542857D01*
X96457142Y-66514285D01*
X96457142Y-66571428D01*
X96685714Y-65971428D02*
X97085714Y-65971428D01*
X96828571Y-66571428D01*
X97314285Y-66571428D02*
X97314285Y-65971428D01*
X97371428Y-66342857D02*
X97542857Y-66571428D01*
X97542857Y-66171428D02*
X97314285Y-66400000D01*
X90600000Y-62514285D02*
X90571428Y-62542857D01*
X90485714Y-62571428D01*
X90428571Y-62571428D01*
X90342857Y-62542857D01*
X90285714Y-62485714D01*
X90257142Y-62428571D01*
X90228571Y-62314285D01*
X90228571Y-62228571D01*
X90257142Y-62114285D01*
X90285714Y-62057142D01*
X90342857Y-62000000D01*
X90428571Y-61971428D01*
X90485714Y-61971428D01*
X90571428Y-62000000D01*
X90600000Y-62028571D01*
X90828571Y-62028571D02*
X90857142Y-62000000D01*
X90914285Y-61971428D01*
X91057142Y-61971428D01*
X91114285Y-62000000D01*
X91142857Y-62028571D01*
X91171428Y-62085714D01*
X91171428Y-62142857D01*
X91142857Y-62228571D01*
X90800000Y-62571428D01*
X91171428Y-62571428D01*
X91771428Y-61228571D02*
X91800000Y-61200000D01*
X91857142Y-61171428D01*
X92000000Y-61171428D01*
X92057142Y-61200000D01*
X92085714Y-61228571D01*
X92114285Y-61285714D01*
X92114285Y-61342857D01*
X92085714Y-61428571D01*
X91742857Y-61771428D01*
X92114285Y-61771428D01*
X92371428Y-61714285D02*
X92400000Y-61742857D01*
X92371428Y-61771428D01*
X92342857Y-61742857D01*
X92371428Y-61714285D01*
X92371428Y-61771428D01*
X92628571Y-61228571D02*
X92657142Y-61200000D01*
X92714285Y-61171428D01*
X92857142Y-61171428D01*
X92914285Y-61200000D01*
X92942857Y-61228571D01*
X92971428Y-61285714D01*
X92971428Y-61342857D01*
X92942857Y-61428571D01*
X92600000Y-61771428D01*
X92971428Y-61771428D01*
X93228571Y-61371428D02*
X93228571Y-61771428D01*
X93228571Y-61428571D02*
X93257142Y-61400000D01*
X93314285Y-61371428D01*
X93400000Y-61371428D01*
X93457142Y-61400000D01*
X93485714Y-61457142D01*
X93485714Y-61771428D01*
X93971428Y-61457142D02*
X93771428Y-61457142D01*
X93771428Y-61771428D02*
X93771428Y-61171428D01*
X94057142Y-61171428D01*
X113614285Y-97200000D02*
X113642857Y-97228571D01*
X113671428Y-97314285D01*
X113671428Y-97371428D01*
X113642857Y-97457142D01*
X113585714Y-97514285D01*
X113528571Y-97542857D01*
X113414285Y-97571428D01*
X113328571Y-97571428D01*
X113214285Y-97542857D01*
X113157142Y-97514285D01*
X113100000Y-97457142D01*
X113071428Y-97371428D01*
X113071428Y-97314285D01*
X113100000Y-97228571D01*
X113128571Y-97200000D01*
X113671428Y-96628571D02*
X113671428Y-96971428D01*
X113671428Y-96800000D02*
X113071428Y-96800000D01*
X113157142Y-96857142D01*
X113214285Y-96914285D01*
X113242857Y-96971428D01*
X112007142Y-95621428D02*
X111664285Y-95621428D01*
X111835714Y-95621428D02*
X111835714Y-95021428D01*
X111778571Y-95107142D01*
X111721428Y-95164285D01*
X111664285Y-95192857D01*
X112378571Y-95021428D02*
X112435714Y-95021428D01*
X112492857Y-95050000D01*
X112521428Y-95078571D01*
X112550000Y-95135714D01*
X112578571Y-95250000D01*
X112578571Y-95392857D01*
X112550000Y-95507142D01*
X112521428Y-95564285D01*
X112492857Y-95592857D01*
X112435714Y-95621428D01*
X112378571Y-95621428D01*
X112321428Y-95592857D01*
X112292857Y-95564285D01*
X112264285Y-95507142D01*
X112235714Y-95392857D01*
X112235714Y-95250000D01*
X112264285Y-95135714D01*
X112292857Y-95078571D01*
X112321428Y-95050000D01*
X112378571Y-95021428D01*
X112835714Y-95221428D02*
X112835714Y-95621428D01*
X112835714Y-95278571D02*
X112864285Y-95250000D01*
X112921428Y-95221428D01*
X113007142Y-95221428D01*
X113064285Y-95250000D01*
X113092857Y-95307142D01*
X113092857Y-95621428D01*
X113578571Y-95307142D02*
X113378571Y-95307142D01*
X113378571Y-95621428D02*
X113378571Y-95021428D01*
X113664285Y-95021428D01*
X110400000Y-106714285D02*
X110371428Y-106742857D01*
X110285714Y-106771428D01*
X110228571Y-106771428D01*
X110142857Y-106742857D01*
X110085714Y-106685714D01*
X110057142Y-106628571D01*
X110028571Y-106514285D01*
X110028571Y-106428571D01*
X110057142Y-106314285D01*
X110085714Y-106257142D01*
X110142857Y-106200000D01*
X110228571Y-106171428D01*
X110285714Y-106171428D01*
X110371428Y-106200000D01*
X110400000Y-106228571D01*
X110628571Y-106228571D02*
X110657142Y-106200000D01*
X110714285Y-106171428D01*
X110857142Y-106171428D01*
X110914285Y-106200000D01*
X110942857Y-106228571D01*
X110971428Y-106285714D01*
X110971428Y-106342857D01*
X110942857Y-106428571D01*
X110600000Y-106771428D01*
X110971428Y-106771428D01*
X107271428Y-107428571D02*
X107300000Y-107400000D01*
X107357142Y-107371428D01*
X107500000Y-107371428D01*
X107557142Y-107400000D01*
X107585714Y-107428571D01*
X107614285Y-107485714D01*
X107614285Y-107542857D01*
X107585714Y-107628571D01*
X107242857Y-107971428D01*
X107614285Y-107971428D01*
X107871428Y-107914285D02*
X107900000Y-107942857D01*
X107871428Y-107971428D01*
X107842857Y-107942857D01*
X107871428Y-107914285D01*
X107871428Y-107971428D01*
X108128571Y-107428571D02*
X108157142Y-107400000D01*
X108214285Y-107371428D01*
X108357142Y-107371428D01*
X108414285Y-107400000D01*
X108442857Y-107428571D01*
X108471428Y-107485714D01*
X108471428Y-107542857D01*
X108442857Y-107628571D01*
X108100000Y-107971428D01*
X108471428Y-107971428D01*
X108728571Y-107571428D02*
X108728571Y-107971428D01*
X108728571Y-107628571D02*
X108757142Y-107600000D01*
X108814285Y-107571428D01*
X108900000Y-107571428D01*
X108957142Y-107600000D01*
X108985714Y-107657142D01*
X108985714Y-107971428D01*
X109471428Y-107657142D02*
X109271428Y-107657142D01*
X109271428Y-107971428D02*
X109271428Y-107371428D01*
X109557142Y-107371428D01*
X110550000Y-94064285D02*
X110521428Y-94092857D01*
X110435714Y-94121428D01*
X110378571Y-94121428D01*
X110292857Y-94092857D01*
X110235714Y-94035714D01*
X110207142Y-93978571D01*
X110178571Y-93864285D01*
X110178571Y-93778571D01*
X110207142Y-93664285D01*
X110235714Y-93607142D01*
X110292857Y-93550000D01*
X110378571Y-93521428D01*
X110435714Y-93521428D01*
X110521428Y-93550000D01*
X110550000Y-93578571D01*
X111064285Y-93721428D02*
X111064285Y-94121428D01*
X110921428Y-93492857D02*
X110778571Y-93921428D01*
X111150000Y-93921428D01*
X110085714Y-95064285D02*
X110114285Y-95092857D01*
X110085714Y-95121428D01*
X110057142Y-95092857D01*
X110085714Y-95064285D01*
X110085714Y-95121428D01*
X110685714Y-95121428D02*
X110342857Y-95121428D01*
X110514285Y-95121428D02*
X110514285Y-94521428D01*
X110457142Y-94607142D01*
X110400000Y-94664285D01*
X110342857Y-94692857D01*
X111200000Y-94721428D02*
X111200000Y-95121428D01*
X110942857Y-94721428D02*
X110942857Y-95035714D01*
X110971428Y-95092857D01*
X111028571Y-95121428D01*
X111114285Y-95121428D01*
X111171428Y-95092857D01*
X111200000Y-95064285D01*
X111685714Y-94807142D02*
X111485714Y-94807142D01*
X111485714Y-95121428D02*
X111485714Y-94521428D01*
X111771428Y-94521428D01*
X109050000Y-94064285D02*
X109021428Y-94092857D01*
X108935714Y-94121428D01*
X108878571Y-94121428D01*
X108792857Y-94092857D01*
X108735714Y-94035714D01*
X108707142Y-93978571D01*
X108678571Y-93864285D01*
X108678571Y-93778571D01*
X108707142Y-93664285D01*
X108735714Y-93607142D01*
X108792857Y-93550000D01*
X108878571Y-93521428D01*
X108935714Y-93521428D01*
X109021428Y-93550000D01*
X109050000Y-93578571D01*
X109592857Y-93521428D02*
X109307142Y-93521428D01*
X109278571Y-93807142D01*
X109307142Y-93778571D01*
X109364285Y-93750000D01*
X109507142Y-93750000D01*
X109564285Y-93778571D01*
X109592857Y-93807142D01*
X109621428Y-93864285D01*
X109621428Y-94007142D01*
X109592857Y-94064285D01*
X109564285Y-94092857D01*
X109507142Y-94121428D01*
X109364285Y-94121428D01*
X109307142Y-94092857D01*
X109278571Y-94064285D01*
X108085714Y-95064285D02*
X108114285Y-95092857D01*
X108085714Y-95121428D01*
X108057142Y-95092857D01*
X108085714Y-95064285D01*
X108085714Y-95121428D01*
X108685714Y-95121428D02*
X108342857Y-95121428D01*
X108514285Y-95121428D02*
X108514285Y-94521428D01*
X108457142Y-94607142D01*
X108400000Y-94664285D01*
X108342857Y-94692857D01*
X109200000Y-94721428D02*
X109200000Y-95121428D01*
X108942857Y-94721428D02*
X108942857Y-95035714D01*
X108971428Y-95092857D01*
X109028571Y-95121428D01*
X109114285Y-95121428D01*
X109171428Y-95092857D01*
X109200000Y-95064285D01*
X109685714Y-94807142D02*
X109485714Y-94807142D01*
X109485714Y-95121428D02*
X109485714Y-94521428D01*
X109771428Y-94521428D01*
D12*
X107990476Y-104861904D02*
X107990476Y-105509523D01*
X108028571Y-105585714D01*
X108066666Y-105623809D01*
X108142857Y-105661904D01*
X108295238Y-105661904D01*
X108371428Y-105623809D01*
X108409523Y-105585714D01*
X108447619Y-105509523D01*
X108447619Y-104861904D01*
X109247619Y-105661904D02*
X108790476Y-105661904D01*
X109019047Y-105661904D02*
X109019047Y-104861904D01*
X108942857Y-104976190D01*
X108866666Y-105052380D01*
X108790476Y-105090476D01*
D11*
X112759523Y-104976190D02*
X112759523Y-104476190D01*
X112926190Y-104833333D01*
X113092857Y-104476190D01*
X113092857Y-104976190D01*
X113330952Y-104976190D02*
X113330952Y-104476190D01*
X113521428Y-104476190D01*
X113569047Y-104500000D01*
X113592857Y-104523809D01*
X113616666Y-104571428D01*
X113616666Y-104642857D01*
X113592857Y-104690476D01*
X113569047Y-104714285D01*
X113521428Y-104738095D01*
X113330952Y-104738095D01*
X113830952Y-104476190D02*
X113830952Y-104880952D01*
X113854761Y-104928571D01*
X113878571Y-104952380D01*
X113926190Y-104976190D01*
X114021428Y-104976190D01*
X114069047Y-104952380D01*
X114092857Y-104928571D01*
X114116666Y-104880952D01*
X114116666Y-104476190D01*
X114354761Y-104785714D02*
X114735714Y-104785714D01*
X115188095Y-104476190D02*
X115092857Y-104476190D01*
X115045238Y-104500000D01*
X115021428Y-104523809D01*
X114973809Y-104595238D01*
X114950000Y-104690476D01*
X114950000Y-104880952D01*
X114973809Y-104928571D01*
X114997619Y-104952380D01*
X115045238Y-104976190D01*
X115140476Y-104976190D01*
X115188095Y-104952380D01*
X115211904Y-104928571D01*
X115235714Y-104880952D01*
X115235714Y-104761904D01*
X115211904Y-104714285D01*
X115188095Y-104690476D01*
X115140476Y-104666666D01*
X115045238Y-104666666D01*
X114997619Y-104690476D01*
X114973809Y-104714285D01*
X114950000Y-104761904D01*
X115545238Y-104476190D02*
X115592857Y-104476190D01*
X115640476Y-104500000D01*
X115664285Y-104523809D01*
X115688095Y-104571428D01*
X115711904Y-104666666D01*
X115711904Y-104785714D01*
X115688095Y-104880952D01*
X115664285Y-104928571D01*
X115640476Y-104952380D01*
X115592857Y-104976190D01*
X115545238Y-104976190D01*
X115497619Y-104952380D01*
X115473809Y-104928571D01*
X115450000Y-104880952D01*
X115426190Y-104785714D01*
X115426190Y-104666666D01*
X115450000Y-104571428D01*
X115473809Y-104523809D01*
X115497619Y-104500000D01*
X115545238Y-104476190D01*
X116164285Y-104476190D02*
X115926190Y-104476190D01*
X115902380Y-104714285D01*
X115926190Y-104690476D01*
X115973809Y-104666666D01*
X116092857Y-104666666D01*
X116140476Y-104690476D01*
X116164285Y-104714285D01*
X116188095Y-104761904D01*
X116188095Y-104880952D01*
X116164285Y-104928571D01*
X116140476Y-104952380D01*
X116092857Y-104976190D01*
X115973809Y-104976190D01*
X115926190Y-104952380D01*
X115902380Y-104928571D01*
X116497619Y-104476190D02*
X116545238Y-104476190D01*
X116592857Y-104500000D01*
X116616666Y-104523809D01*
X116640476Y-104571428D01*
X116664285Y-104666666D01*
X116664285Y-104785714D01*
X116640476Y-104880952D01*
X116616666Y-104928571D01*
X116592857Y-104952380D01*
X116545238Y-104976190D01*
X116497619Y-104976190D01*
X116450000Y-104952380D01*
X116426190Y-104928571D01*
X116402380Y-104880952D01*
X116378571Y-104785714D01*
X116378571Y-104666666D01*
X116402380Y-104571428D01*
X116426190Y-104523809D01*
X116450000Y-104500000D01*
X116497619Y-104476190D01*
D17*
X106364285Y-96700000D02*
X106392857Y-96728571D01*
X106421428Y-96814285D01*
X106421428Y-96871428D01*
X106392857Y-96957142D01*
X106335714Y-97014285D01*
X106278571Y-97042857D01*
X106164285Y-97071428D01*
X106078571Y-97071428D01*
X105964285Y-97042857D01*
X105907142Y-97014285D01*
X105850000Y-96957142D01*
X105821428Y-96871428D01*
X105821428Y-96814285D01*
X105850000Y-96728571D01*
X105878571Y-96700000D01*
X105821428Y-96500000D02*
X105821428Y-96128571D01*
X106050000Y-96328571D01*
X106050000Y-96242857D01*
X106078571Y-96185714D01*
X106107142Y-96157142D01*
X106164285Y-96128571D01*
X106307142Y-96128571D01*
X106364285Y-96157142D01*
X106392857Y-96185714D01*
X106421428Y-96242857D01*
X106421428Y-96414285D01*
X106392857Y-96471428D01*
X106364285Y-96500000D01*
X106057142Y-93971428D02*
X106057142Y-94371428D01*
X105914285Y-93742857D02*
X105771428Y-94171428D01*
X106142857Y-94171428D01*
X106371428Y-94314285D02*
X106400000Y-94342857D01*
X106371428Y-94371428D01*
X106342857Y-94342857D01*
X106371428Y-94314285D01*
X106371428Y-94371428D01*
X106600000Y-93771428D02*
X107000000Y-93771428D01*
X106742857Y-94371428D01*
X107485714Y-93971428D02*
X107485714Y-94371428D01*
X107228571Y-93971428D02*
X107228571Y-94285714D01*
X107257142Y-94342857D01*
X107314285Y-94371428D01*
X107400000Y-94371428D01*
X107457142Y-94342857D01*
X107485714Y-94314285D01*
X107971428Y-94057142D02*
X107771428Y-94057142D01*
X107771428Y-94371428D02*
X107771428Y-93771428D01*
X108057142Y-93771428D01*
X106421428Y-99080952D02*
X106421428Y-98319047D01*
X106802380Y-98700000D02*
X106040476Y-98700000D01*
D18*
X88066413Y-108201964D02*
X88066413Y-108916793D01*
X88018758Y-109059759D01*
X87923447Y-109155069D01*
X87780481Y-109202724D01*
X87685171Y-109202724D01*
X89067173Y-109202724D02*
X88495310Y-109202724D01*
X88781241Y-109202724D02*
X88781241Y-108201964D01*
X88685931Y-108344930D01*
X88590620Y-108440240D01*
X88495310Y-108487896D01*
X85376997Y-106551964D02*
X85376997Y-107362103D01*
X85424652Y-107457414D01*
X85472307Y-107505069D01*
X85567618Y-107552724D01*
X85758239Y-107552724D01*
X85853549Y-107505069D01*
X85901204Y-107457414D01*
X85948860Y-107362103D01*
X85948860Y-106551964D01*
X86377757Y-107505069D02*
X86520722Y-107552724D01*
X86758999Y-107552724D01*
X86854309Y-107505069D01*
X86901964Y-107457414D01*
X86949620Y-107362103D01*
X86949620Y-107266793D01*
X86901964Y-107171482D01*
X86854309Y-107123827D01*
X86758999Y-107076172D01*
X86568378Y-107028517D01*
X86473067Y-106980861D01*
X86425412Y-106933206D01*
X86377757Y-106837896D01*
X86377757Y-106742585D01*
X86425412Y-106647275D01*
X86473067Y-106599620D01*
X86568378Y-106551964D01*
X86806654Y-106551964D01*
X86949620Y-106599620D01*
X87712103Y-107028517D02*
X87855069Y-107076172D01*
X87902724Y-107123827D01*
X87950380Y-107219138D01*
X87950380Y-107362103D01*
X87902724Y-107457414D01*
X87855069Y-107505069D01*
X87759759Y-107552724D01*
X87378517Y-107552724D01*
X87378517Y-106551964D01*
X87712103Y-106551964D01*
X87807414Y-106599620D01*
X87855069Y-106647275D01*
X87902724Y-106742585D01*
X87902724Y-106837896D01*
X87855069Y-106933206D01*
X87807414Y-106980861D01*
X87712103Y-107028517D01*
X87378517Y-107028517D01*
X88141000Y-107648035D02*
X88903484Y-107648035D01*
X89094105Y-107266793D02*
X89570658Y-107266793D01*
X88998795Y-107552724D02*
X89332381Y-106551964D01*
X89665968Y-107552724D01*
D17*
X107071428Y-102700000D02*
X106785714Y-102900000D01*
X107071428Y-103042857D02*
X106471428Y-103042857D01*
X106471428Y-102814285D01*
X106500000Y-102757142D01*
X106528571Y-102728571D01*
X106585714Y-102700000D01*
X106671428Y-102700000D01*
X106728571Y-102728571D01*
X106757142Y-102757142D01*
X106785714Y-102814285D01*
X106785714Y-103042857D01*
X107071428Y-102128571D02*
X107071428Y-102471428D01*
X107071428Y-102300000D02*
X106471428Y-102300000D01*
X106557142Y-102357142D01*
X106614285Y-102414285D01*
X106642857Y-102471428D01*
X106271428Y-107557142D02*
X106671428Y-107557142D01*
X106042857Y-107700000D02*
X106471428Y-107842857D01*
X106471428Y-107471428D01*
X106614285Y-107242857D02*
X106642857Y-107214285D01*
X106671428Y-107242857D01*
X106642857Y-107271428D01*
X106614285Y-107242857D01*
X106671428Y-107242857D01*
X106071428Y-107014285D02*
X106071428Y-106614285D01*
X106671428Y-106871428D01*
X106671428Y-106385714D02*
X106071428Y-106385714D01*
X106442857Y-106328571D02*
X106671428Y-106157142D01*
X106271428Y-106157142D02*
X106500000Y-106385714D01*
X104871428Y-101800000D02*
X104585714Y-102000000D01*
X104871428Y-102142857D02*
X104271428Y-102142857D01*
X104271428Y-101914285D01*
X104300000Y-101857142D01*
X104328571Y-101828571D01*
X104385714Y-101800000D01*
X104471428Y-101800000D01*
X104528571Y-101828571D01*
X104557142Y-101857142D01*
X104585714Y-101914285D01*
X104585714Y-102142857D01*
X104328571Y-101571428D02*
X104300000Y-101542857D01*
X104271428Y-101485714D01*
X104271428Y-101342857D01*
X104300000Y-101285714D01*
X104328571Y-101257142D01*
X104385714Y-101228571D01*
X104442857Y-101228571D01*
X104528571Y-101257142D01*
X104871428Y-101600000D01*
X104871428Y-101228571D01*
X104471428Y-107957142D02*
X104871428Y-107957142D01*
X104242857Y-108100000D02*
X104671428Y-108242857D01*
X104671428Y-107871428D01*
X104814285Y-107642857D02*
X104842857Y-107614285D01*
X104871428Y-107642857D01*
X104842857Y-107671428D01*
X104814285Y-107642857D01*
X104871428Y-107642857D01*
X104271428Y-107414285D02*
X104271428Y-107014285D01*
X104871428Y-107271428D01*
X104871428Y-106785714D02*
X104271428Y-106785714D01*
X104642857Y-106728571D02*
X104871428Y-106557142D01*
X104471428Y-106557142D02*
X104700000Y-106785714D01*
X124575000Y-109514285D02*
X124546428Y-109542857D01*
X124460714Y-109571428D01*
X124403571Y-109571428D01*
X124317857Y-109542857D01*
X124260714Y-109485714D01*
X124232142Y-109428571D01*
X124203571Y-109314285D01*
X124203571Y-109228571D01*
X124232142Y-109114285D01*
X124260714Y-109057142D01*
X124317857Y-109000000D01*
X124403571Y-108971428D01*
X124460714Y-108971428D01*
X124546428Y-109000000D01*
X124575000Y-109028571D01*
X125117857Y-108971428D02*
X124832142Y-108971428D01*
X124803571Y-109257142D01*
X124832142Y-109228571D01*
X124889285Y-109200000D01*
X125032142Y-109200000D01*
X125089285Y-109228571D01*
X125117857Y-109257142D01*
X125146428Y-109314285D01*
X125146428Y-109457142D01*
X125117857Y-109514285D01*
X125089285Y-109542857D01*
X125032142Y-109571428D01*
X124889285Y-109571428D01*
X124832142Y-109542857D01*
X124803571Y-109514285D01*
X124110714Y-108514285D02*
X124139285Y-108542857D01*
X124110714Y-108571428D01*
X124082142Y-108542857D01*
X124110714Y-108514285D01*
X124110714Y-108571428D01*
X124710714Y-108571428D02*
X124367857Y-108571428D01*
X124539285Y-108571428D02*
X124539285Y-107971428D01*
X124482142Y-108057142D01*
X124425000Y-108114285D01*
X124367857Y-108142857D01*
X125225000Y-108171428D02*
X125225000Y-108571428D01*
X124967857Y-108171428D02*
X124967857Y-108485714D01*
X124996428Y-108542857D01*
X125053571Y-108571428D01*
X125139285Y-108571428D01*
X125196428Y-108542857D01*
X125225000Y-108514285D01*
X125710714Y-108257142D02*
X125510714Y-108257142D01*
X125510714Y-108571428D02*
X125510714Y-107971428D01*
X125796428Y-107971428D01*
D12*
X124615476Y-97411904D02*
X124615476Y-98059523D01*
X124653571Y-98135714D01*
X124691666Y-98173809D01*
X124767857Y-98211904D01*
X124920238Y-98211904D01*
X124996428Y-98173809D01*
X125034523Y-98135714D01*
X125072619Y-98059523D01*
X125072619Y-97411904D01*
X125872619Y-98211904D02*
X125415476Y-98211904D01*
X125644047Y-98211904D02*
X125644047Y-97411904D01*
X125567857Y-97526190D01*
X125491666Y-97602380D01*
X125415476Y-97640476D01*
D11*
X117609523Y-98676190D02*
X117609523Y-98176190D01*
X117776190Y-98533333D01*
X117942857Y-98176190D01*
X117942857Y-98676190D01*
X118180952Y-98676190D02*
X118180952Y-98176190D01*
X118371428Y-98176190D01*
X118419047Y-98200000D01*
X118442857Y-98223809D01*
X118466666Y-98271428D01*
X118466666Y-98342857D01*
X118442857Y-98390476D01*
X118419047Y-98414285D01*
X118371428Y-98438095D01*
X118180952Y-98438095D01*
X118680952Y-98176190D02*
X118680952Y-98580952D01*
X118704761Y-98628571D01*
X118728571Y-98652380D01*
X118776190Y-98676190D01*
X118871428Y-98676190D01*
X118919047Y-98652380D01*
X118942857Y-98628571D01*
X118966666Y-98580952D01*
X118966666Y-98176190D01*
X119204761Y-98485714D02*
X119585714Y-98485714D01*
X120038095Y-98176190D02*
X119942857Y-98176190D01*
X119895238Y-98200000D01*
X119871428Y-98223809D01*
X119823809Y-98295238D01*
X119800000Y-98390476D01*
X119800000Y-98580952D01*
X119823809Y-98628571D01*
X119847619Y-98652380D01*
X119895238Y-98676190D01*
X119990476Y-98676190D01*
X120038095Y-98652380D01*
X120061904Y-98628571D01*
X120085714Y-98580952D01*
X120085714Y-98461904D01*
X120061904Y-98414285D01*
X120038095Y-98390476D01*
X119990476Y-98366666D01*
X119895238Y-98366666D01*
X119847619Y-98390476D01*
X119823809Y-98414285D01*
X119800000Y-98461904D01*
X120395238Y-98176190D02*
X120442857Y-98176190D01*
X120490476Y-98200000D01*
X120514285Y-98223809D01*
X120538095Y-98271428D01*
X120561904Y-98366666D01*
X120561904Y-98485714D01*
X120538095Y-98580952D01*
X120514285Y-98628571D01*
X120490476Y-98652380D01*
X120442857Y-98676190D01*
X120395238Y-98676190D01*
X120347619Y-98652380D01*
X120323809Y-98628571D01*
X120300000Y-98580952D01*
X120276190Y-98485714D01*
X120276190Y-98366666D01*
X120300000Y-98271428D01*
X120323809Y-98223809D01*
X120347619Y-98200000D01*
X120395238Y-98176190D01*
X121014285Y-98176190D02*
X120776190Y-98176190D01*
X120752380Y-98414285D01*
X120776190Y-98390476D01*
X120823809Y-98366666D01*
X120942857Y-98366666D01*
X120990476Y-98390476D01*
X121014285Y-98414285D01*
X121038095Y-98461904D01*
X121038095Y-98580952D01*
X121014285Y-98628571D01*
X120990476Y-98652380D01*
X120942857Y-98676190D01*
X120823809Y-98676190D01*
X120776190Y-98652380D01*
X120752380Y-98628571D01*
X121347619Y-98176190D02*
X121395238Y-98176190D01*
X121442857Y-98200000D01*
X121466666Y-98223809D01*
X121490476Y-98271428D01*
X121514285Y-98366666D01*
X121514285Y-98485714D01*
X121490476Y-98580952D01*
X121466666Y-98628571D01*
X121442857Y-98652380D01*
X121395238Y-98676190D01*
X121347619Y-98676190D01*
X121300000Y-98652380D01*
X121276190Y-98628571D01*
X121252380Y-98580952D01*
X121228571Y-98485714D01*
X121228571Y-98366666D01*
X121252380Y-98271428D01*
X121276190Y-98223809D01*
X121300000Y-98200000D01*
X121347619Y-98176190D01*
D17*
X123075000Y-109514285D02*
X123046428Y-109542857D01*
X122960714Y-109571428D01*
X122903571Y-109571428D01*
X122817857Y-109542857D01*
X122760714Y-109485714D01*
X122732142Y-109428571D01*
X122703571Y-109314285D01*
X122703571Y-109228571D01*
X122732142Y-109114285D01*
X122760714Y-109057142D01*
X122817857Y-109000000D01*
X122903571Y-108971428D01*
X122960714Y-108971428D01*
X123046428Y-109000000D01*
X123075000Y-109028571D01*
X123589285Y-109171428D02*
X123589285Y-109571428D01*
X123446428Y-108942857D02*
X123303571Y-109371428D01*
X123675000Y-109371428D01*
X122110714Y-108514285D02*
X122139285Y-108542857D01*
X122110714Y-108571428D01*
X122082142Y-108542857D01*
X122110714Y-108514285D01*
X122110714Y-108571428D01*
X122710714Y-108571428D02*
X122367857Y-108571428D01*
X122539285Y-108571428D02*
X122539285Y-107971428D01*
X122482142Y-108057142D01*
X122425000Y-108114285D01*
X122367857Y-108142857D01*
X123225000Y-108171428D02*
X123225000Y-108571428D01*
X122967857Y-108171428D02*
X122967857Y-108485714D01*
X122996428Y-108542857D01*
X123053571Y-108571428D01*
X123139285Y-108571428D01*
X123196428Y-108542857D01*
X123225000Y-108514285D01*
X123710714Y-108257142D02*
X123510714Y-108257142D01*
X123510714Y-108571428D02*
X123510714Y-107971428D01*
X123796428Y-107971428D01*
X120325000Y-95121428D02*
X120125000Y-94835714D01*
X119982142Y-95121428D02*
X119982142Y-94521428D01*
X120210714Y-94521428D01*
X120267857Y-94550000D01*
X120296428Y-94578571D01*
X120325000Y-94635714D01*
X120325000Y-94721428D01*
X120296428Y-94778571D01*
X120267857Y-94807142D01*
X120210714Y-94835714D01*
X119982142Y-94835714D01*
X120553571Y-94578571D02*
X120582142Y-94550000D01*
X120639285Y-94521428D01*
X120782142Y-94521428D01*
X120839285Y-94550000D01*
X120867857Y-94578571D01*
X120896428Y-94635714D01*
X120896428Y-94692857D01*
X120867857Y-94778571D01*
X120525000Y-95121428D01*
X120896428Y-95121428D01*
X120067857Y-97321428D02*
X120067857Y-97721428D01*
X119925000Y-97092857D02*
X119782142Y-97521428D01*
X120153571Y-97521428D01*
X120382142Y-97664285D02*
X120410714Y-97692857D01*
X120382142Y-97721428D01*
X120353571Y-97692857D01*
X120382142Y-97664285D01*
X120382142Y-97721428D01*
X120610714Y-97121428D02*
X121010714Y-97121428D01*
X120753571Y-97721428D01*
X121239285Y-97721428D02*
X121239285Y-97121428D01*
X121296428Y-97492857D02*
X121467857Y-97721428D01*
X121467857Y-97321428D02*
X121239285Y-97550000D01*
X120639285Y-106150000D02*
X120667857Y-106178571D01*
X120696428Y-106264285D01*
X120696428Y-106321428D01*
X120667857Y-106407142D01*
X120610714Y-106464285D01*
X120553571Y-106492857D01*
X120439285Y-106521428D01*
X120353571Y-106521428D01*
X120239285Y-106492857D01*
X120182142Y-106464285D01*
X120125000Y-106407142D01*
X120096428Y-106321428D01*
X120096428Y-106264285D01*
X120125000Y-106178571D01*
X120153571Y-106150000D01*
X120696428Y-105578571D02*
X120696428Y-105921428D01*
X120696428Y-105750000D02*
X120096428Y-105750000D01*
X120182142Y-105807142D01*
X120239285Y-105864285D01*
X120267857Y-105921428D01*
X120532142Y-108071428D02*
X120189285Y-108071428D01*
X120360714Y-108071428D02*
X120360714Y-107471428D01*
X120303571Y-107557142D01*
X120246428Y-107614285D01*
X120189285Y-107642857D01*
X120903571Y-107471428D02*
X120960714Y-107471428D01*
X121017857Y-107500000D01*
X121046428Y-107528571D01*
X121075000Y-107585714D01*
X121103571Y-107700000D01*
X121103571Y-107842857D01*
X121075000Y-107957142D01*
X121046428Y-108014285D01*
X121017857Y-108042857D01*
X120960714Y-108071428D01*
X120903571Y-108071428D01*
X120846428Y-108042857D01*
X120817857Y-108014285D01*
X120789285Y-107957142D01*
X120760714Y-107842857D01*
X120760714Y-107700000D01*
X120789285Y-107585714D01*
X120817857Y-107528571D01*
X120846428Y-107500000D01*
X120903571Y-107471428D01*
X121360714Y-107671428D02*
X121360714Y-108071428D01*
X121360714Y-107728571D02*
X121389285Y-107700000D01*
X121446428Y-107671428D01*
X121532142Y-107671428D01*
X121589285Y-107700000D01*
X121617857Y-107757142D01*
X121617857Y-108071428D01*
X122103571Y-107757142D02*
X121903571Y-107757142D01*
X121903571Y-108071428D02*
X121903571Y-107471428D01*
X122189285Y-107471428D01*
X128025000Y-107264285D02*
X127996428Y-107292857D01*
X127910714Y-107321428D01*
X127853571Y-107321428D01*
X127767857Y-107292857D01*
X127710714Y-107235714D01*
X127682142Y-107178571D01*
X127653571Y-107064285D01*
X127653571Y-106978571D01*
X127682142Y-106864285D01*
X127710714Y-106807142D01*
X127767857Y-106750000D01*
X127853571Y-106721428D01*
X127910714Y-106721428D01*
X127996428Y-106750000D01*
X128025000Y-106778571D01*
X128225000Y-106721428D02*
X128596428Y-106721428D01*
X128396428Y-106950000D01*
X128482142Y-106950000D01*
X128539285Y-106978571D01*
X128567857Y-107007142D01*
X128596428Y-107064285D01*
X128596428Y-107207142D01*
X128567857Y-107264285D01*
X128539285Y-107292857D01*
X128482142Y-107321428D01*
X128310714Y-107321428D01*
X128253571Y-107292857D01*
X128225000Y-107264285D01*
X128082142Y-105221428D02*
X128082142Y-105621428D01*
X127939285Y-104992857D02*
X127796428Y-105421428D01*
X128167857Y-105421428D01*
X128396428Y-105564285D02*
X128425000Y-105592857D01*
X128396428Y-105621428D01*
X128367857Y-105592857D01*
X128396428Y-105564285D01*
X128396428Y-105621428D01*
X128625000Y-105021428D02*
X129025000Y-105021428D01*
X128767857Y-105621428D01*
X129510714Y-105221428D02*
X129510714Y-105621428D01*
X129253571Y-105221428D02*
X129253571Y-105535714D01*
X129282142Y-105592857D01*
X129339285Y-105621428D01*
X129425000Y-105621428D01*
X129482142Y-105592857D01*
X129510714Y-105564285D01*
X129996428Y-105307142D02*
X129796428Y-105307142D01*
X129796428Y-105621428D02*
X129796428Y-105021428D01*
X130082142Y-105021428D01*
X127546428Y-104830952D02*
X127546428Y-104069047D01*
X127927380Y-104450000D02*
X127165476Y-104450000D01*
X118191666Y-88827380D02*
X118191666Y-89541666D01*
X118144047Y-89684523D01*
X118048809Y-89779761D01*
X117905952Y-89827380D01*
X117810714Y-89827380D01*
X119191666Y-89827380D02*
X118620238Y-89827380D01*
X118905952Y-89827380D02*
X118905952Y-88827380D01*
X118810714Y-88970238D01*
X118715476Y-89065476D01*
X118620238Y-89113095D01*
X124825000Y-95121428D02*
X124625000Y-94835714D01*
X124482142Y-95121428D02*
X124482142Y-94521428D01*
X124710714Y-94521428D01*
X124767857Y-94550000D01*
X124796428Y-94578571D01*
X124825000Y-94635714D01*
X124825000Y-94721428D01*
X124796428Y-94778571D01*
X124767857Y-94807142D01*
X124710714Y-94835714D01*
X124482142Y-94835714D01*
X125396428Y-95121428D02*
X125053571Y-95121428D01*
X125225000Y-95121428D02*
X125225000Y-94521428D01*
X125167857Y-94607142D01*
X125110714Y-94664285D01*
X125053571Y-94692857D01*
X122567857Y-94721428D02*
X122567857Y-95121428D01*
X122425000Y-94492857D02*
X122282142Y-94921428D01*
X122653571Y-94921428D01*
X122882142Y-95064285D02*
X122910714Y-95092857D01*
X122882142Y-95121428D01*
X122853571Y-95092857D01*
X122882142Y-95064285D01*
X122882142Y-95121428D01*
X123110714Y-94521428D02*
X123510714Y-94521428D01*
X123253571Y-95121428D01*
X123739285Y-95121428D02*
X123739285Y-94521428D01*
X123796428Y-94892857D02*
X123967857Y-95121428D01*
X123967857Y-94721428D02*
X123739285Y-94950000D01*
X127725000Y-95964285D02*
X127696428Y-95992857D01*
X127610714Y-96021428D01*
X127553571Y-96021428D01*
X127467857Y-95992857D01*
X127410714Y-95935714D01*
X127382142Y-95878571D01*
X127353571Y-95764285D01*
X127353571Y-95678571D01*
X127382142Y-95564285D01*
X127410714Y-95507142D01*
X127467857Y-95450000D01*
X127553571Y-95421428D01*
X127610714Y-95421428D01*
X127696428Y-95450000D01*
X127725000Y-95478571D01*
X127953571Y-95478571D02*
X127982142Y-95450000D01*
X128039285Y-95421428D01*
X128182142Y-95421428D01*
X128239285Y-95450000D01*
X128267857Y-95478571D01*
X128296428Y-95535714D01*
X128296428Y-95592857D01*
X128267857Y-95678571D01*
X127925000Y-96021428D01*
X128296428Y-96021428D01*
X128196428Y-96978571D02*
X128225000Y-96950000D01*
X128282142Y-96921428D01*
X128425000Y-96921428D01*
X128482142Y-96950000D01*
X128510714Y-96978571D01*
X128539285Y-97035714D01*
X128539285Y-97092857D01*
X128510714Y-97178571D01*
X128167857Y-97521428D01*
X128539285Y-97521428D01*
X128796428Y-97464285D02*
X128825000Y-97492857D01*
X128796428Y-97521428D01*
X128767857Y-97492857D01*
X128796428Y-97464285D01*
X128796428Y-97521428D01*
X129053571Y-96978571D02*
X129082142Y-96950000D01*
X129139285Y-96921428D01*
X129282142Y-96921428D01*
X129339285Y-96950000D01*
X129367857Y-96978571D01*
X129396428Y-97035714D01*
X129396428Y-97092857D01*
X129367857Y-97178571D01*
X129025000Y-97521428D01*
X129396428Y-97521428D01*
X129653571Y-97121428D02*
X129653571Y-97521428D01*
X129653571Y-97178571D02*
X129682142Y-97150000D01*
X129739285Y-97121428D01*
X129825000Y-97121428D01*
X129882142Y-97150000D01*
X129910714Y-97207142D01*
X129910714Y-97521428D01*
X130396428Y-97207142D02*
X130196428Y-97207142D01*
X130196428Y-97521428D02*
X130196428Y-96921428D01*
X130482142Y-96921428D01*
M02*
