G04 #@! TF.FileFunction,Legend,Bot*
%FSLAX46Y46*%
G04 Gerber Fmt 4.6, Leading zero omitted, Abs format (unit mm)*
G04 Created by KiCad (PCBNEW 4.0.7) date 04/26/19 15:52:11*
%MOMM*%
%LPD*%
G01*
G04 APERTURE LIST*
%ADD10C,0.050000*%
%ADD11C,0.300000*%
G04 APERTURE END LIST*
D10*
D11*
X183635713Y-74007143D02*
X183421427Y-74078571D01*
X183064284Y-74078571D01*
X182921427Y-74007143D01*
X182849998Y-73935714D01*
X182778570Y-73792857D01*
X182778570Y-73650000D01*
X182849998Y-73507143D01*
X182921427Y-73435714D01*
X183064284Y-73364286D01*
X183349998Y-73292857D01*
X183492856Y-73221429D01*
X183564284Y-73150000D01*
X183635713Y-73007143D01*
X183635713Y-72864286D01*
X183564284Y-72721429D01*
X183492856Y-72650000D01*
X183349998Y-72578571D01*
X182992856Y-72578571D01*
X182778570Y-72650000D01*
X181921427Y-74078571D02*
X182064285Y-74007143D01*
X182135713Y-73935714D01*
X182207142Y-73792857D01*
X182207142Y-73364286D01*
X182135713Y-73221429D01*
X182064285Y-73150000D01*
X181921427Y-73078571D01*
X181707142Y-73078571D01*
X181564285Y-73150000D01*
X181492856Y-73221429D01*
X181421427Y-73364286D01*
X181421427Y-73792857D01*
X181492856Y-73935714D01*
X181564285Y-74007143D01*
X181707142Y-74078571D01*
X181921427Y-74078571D01*
X180778570Y-73078571D02*
X180778570Y-74078571D01*
X180778570Y-73221429D02*
X180707142Y-73150000D01*
X180564284Y-73078571D01*
X180349999Y-73078571D01*
X180207142Y-73150000D01*
X180135713Y-73292857D01*
X180135713Y-74078571D01*
X178778570Y-74078571D02*
X178778570Y-73292857D01*
X178849999Y-73150000D01*
X178992856Y-73078571D01*
X179278570Y-73078571D01*
X179421427Y-73150000D01*
X178778570Y-74007143D02*
X178921427Y-74078571D01*
X179278570Y-74078571D01*
X179421427Y-74007143D01*
X179492856Y-73864286D01*
X179492856Y-73721429D01*
X179421427Y-73578571D01*
X179278570Y-73507143D01*
X178921427Y-73507143D01*
X178778570Y-73435714D01*
X178064284Y-74078571D02*
X178064284Y-73078571D01*
X178064284Y-73364286D02*
X177992856Y-73221429D01*
X177921427Y-73150000D01*
X177778570Y-73078571D01*
X177635713Y-73078571D01*
X177135713Y-74078571D02*
X177135713Y-72578571D01*
X176635713Y-73650000D01*
X176135713Y-72578571D01*
X176135713Y-74078571D01*
X175207141Y-74078571D02*
X175349999Y-74007143D01*
X175421427Y-73935714D01*
X175492856Y-73792857D01*
X175492856Y-73364286D01*
X175421427Y-73221429D01*
X175349999Y-73150000D01*
X175207141Y-73078571D01*
X174992856Y-73078571D01*
X174849999Y-73150000D01*
X174778570Y-73221429D01*
X174707141Y-73364286D01*
X174707141Y-73792857D01*
X174778570Y-73935714D01*
X174849999Y-74007143D01*
X174992856Y-74078571D01*
X175207141Y-74078571D01*
X173421427Y-74078571D02*
X173421427Y-72578571D01*
X173421427Y-74007143D02*
X173564284Y-74078571D01*
X173849998Y-74078571D01*
X173992856Y-74007143D01*
X174064284Y-73935714D01*
X174135713Y-73792857D01*
X174135713Y-73364286D01*
X174064284Y-73221429D01*
X173992856Y-73150000D01*
X173849998Y-73078571D01*
X173564284Y-73078571D01*
X173421427Y-73150000D01*
X172064284Y-73078571D02*
X172064284Y-74078571D01*
X172707141Y-73078571D02*
X172707141Y-73864286D01*
X172635713Y-74007143D01*
X172492855Y-74078571D01*
X172278570Y-74078571D01*
X172135713Y-74007143D01*
X172064284Y-73935714D01*
X171135712Y-74078571D02*
X171278570Y-74007143D01*
X171349998Y-73864286D01*
X171349998Y-72578571D01*
X169992856Y-74007143D02*
X170135713Y-74078571D01*
X170421427Y-74078571D01*
X170564284Y-74007143D01*
X170635713Y-73864286D01*
X170635713Y-73292857D01*
X170564284Y-73150000D01*
X170421427Y-73078571D01*
X170135713Y-73078571D01*
X169992856Y-73150000D01*
X169921427Y-73292857D01*
X169921427Y-73435714D01*
X170635713Y-73578571D01*
X169635713Y-74221429D02*
X168492856Y-74221429D01*
X168135713Y-74078571D02*
X168135713Y-73078571D01*
X168135713Y-73364286D02*
X168064285Y-73221429D01*
X167992856Y-73150000D01*
X167849999Y-73078571D01*
X167707142Y-73078571D01*
X166635714Y-74007143D02*
X166778571Y-74078571D01*
X167064285Y-74078571D01*
X167207142Y-74007143D01*
X167278571Y-73864286D01*
X167278571Y-73292857D01*
X167207142Y-73150000D01*
X167064285Y-73078571D01*
X166778571Y-73078571D01*
X166635714Y-73150000D01*
X166564285Y-73292857D01*
X166564285Y-73435714D01*
X167278571Y-73578571D01*
X166064285Y-73078571D02*
X165707142Y-74078571D01*
X165350000Y-73078571D01*
X164492857Y-72578571D02*
X164350000Y-72578571D01*
X164207143Y-72650000D01*
X164135714Y-72721429D01*
X164064285Y-72864286D01*
X163992857Y-73150000D01*
X163992857Y-73507143D01*
X164064285Y-73792857D01*
X164135714Y-73935714D01*
X164207143Y-74007143D01*
X164350000Y-74078571D01*
X164492857Y-74078571D01*
X164635714Y-74007143D01*
X164707143Y-73935714D01*
X164778571Y-73792857D01*
X164850000Y-73507143D01*
X164850000Y-73150000D01*
X164778571Y-72864286D01*
X164707143Y-72721429D01*
X164635714Y-72650000D01*
X164492857Y-72578571D01*
X162564286Y-74078571D02*
X163421429Y-74078571D01*
X162992857Y-74078571D02*
X162992857Y-72578571D01*
X163135714Y-72792857D01*
X163278572Y-72935714D01*
X163421429Y-73007143D01*
X182402856Y-53848571D02*
X182259999Y-53848571D01*
X182117142Y-53920000D01*
X182045713Y-53991429D01*
X181974284Y-54134286D01*
X181902856Y-54420000D01*
X181902856Y-54777143D01*
X181974284Y-55062857D01*
X182045713Y-55205714D01*
X182117142Y-55277143D01*
X182259999Y-55348571D01*
X182402856Y-55348571D01*
X182545713Y-55277143D01*
X182617142Y-55205714D01*
X182688570Y-55062857D01*
X182759999Y-54777143D01*
X182759999Y-54420000D01*
X182688570Y-54134286D01*
X182617142Y-53991429D01*
X182545713Y-53920000D01*
X182402856Y-53848571D01*
X180617142Y-54348571D02*
X180617142Y-55348571D01*
X180974285Y-53777143D02*
X181331428Y-54848571D01*
X180402856Y-54848571D01*
X178760000Y-53777143D02*
X180045714Y-55705714D01*
X178331428Y-53991429D02*
X178259999Y-53920000D01*
X178117142Y-53848571D01*
X177759999Y-53848571D01*
X177617142Y-53920000D01*
X177545713Y-53991429D01*
X177474285Y-54134286D01*
X177474285Y-54277143D01*
X177545713Y-54491429D01*
X178402856Y-55348571D01*
X177474285Y-55348571D01*
X176188571Y-53848571D02*
X176474285Y-53848571D01*
X176617142Y-53920000D01*
X176688571Y-53991429D01*
X176831428Y-54205714D01*
X176902857Y-54491429D01*
X176902857Y-55062857D01*
X176831428Y-55205714D01*
X176760000Y-55277143D01*
X176617142Y-55348571D01*
X176331428Y-55348571D01*
X176188571Y-55277143D01*
X176117142Y-55205714D01*
X176045714Y-55062857D01*
X176045714Y-54705714D01*
X176117142Y-54562857D01*
X176188571Y-54491429D01*
X176331428Y-54420000D01*
X176617142Y-54420000D01*
X176760000Y-54491429D01*
X176831428Y-54562857D01*
X176902857Y-54705714D01*
X174331429Y-53777143D02*
X175617143Y-55705714D01*
X173902857Y-53991429D02*
X173831428Y-53920000D01*
X173688571Y-53848571D01*
X173331428Y-53848571D01*
X173188571Y-53920000D01*
X173117142Y-53991429D01*
X173045714Y-54134286D01*
X173045714Y-54277143D01*
X173117142Y-54491429D01*
X173974285Y-55348571D01*
X173045714Y-55348571D01*
X172117143Y-53848571D02*
X171974286Y-53848571D01*
X171831429Y-53920000D01*
X171760000Y-53991429D01*
X171688571Y-54134286D01*
X171617143Y-54420000D01*
X171617143Y-54777143D01*
X171688571Y-55062857D01*
X171760000Y-55205714D01*
X171831429Y-55277143D01*
X171974286Y-55348571D01*
X172117143Y-55348571D01*
X172260000Y-55277143D01*
X172331429Y-55205714D01*
X172402857Y-55062857D01*
X172474286Y-54777143D01*
X172474286Y-54420000D01*
X172402857Y-54134286D01*
X172331429Y-53991429D01*
X172260000Y-53920000D01*
X172117143Y-53848571D01*
X170188572Y-55348571D02*
X171045715Y-55348571D01*
X170617143Y-55348571D02*
X170617143Y-53848571D01*
X170760000Y-54062857D01*
X170902858Y-54205714D01*
X171045715Y-54277143D01*
X169474287Y-55348571D02*
X169188572Y-55348571D01*
X169045715Y-55277143D01*
X168974287Y-55205714D01*
X168831429Y-54991429D01*
X168760001Y-54705714D01*
X168760001Y-54134286D01*
X168831429Y-53991429D01*
X168902858Y-53920000D01*
X169045715Y-53848571D01*
X169331429Y-53848571D01*
X169474287Y-53920000D01*
X169545715Y-53991429D01*
X169617144Y-54134286D01*
X169617144Y-54491429D01*
X169545715Y-54634286D01*
X169474287Y-54705714D01*
X169331429Y-54777143D01*
X169045715Y-54777143D01*
X168902858Y-54705714D01*
X168831429Y-54634286D01*
X168760001Y-54491429D01*
M02*
