G04 (created by PCBNEW (2013-08-24 BZR 4298)-stable) date Sat 24 May 2014 11:24:08 PM PDT*
%MOIN*%
G04 Gerber Fmt 3.4, Leading zero omitted, Abs format*
%FSLAX34Y34*%
G01*
G70*
G90*
G04 APERTURE LIST*
%ADD10C,0.005000*%
%ADD11C,0.003937*%
%ADD12C,0.007874*%
%ADD13C,0.011811*%
G04 APERTURE END LIST*
G54D10*
G54D11*
X72244Y-22440D02*
X33464Y-22440D01*
X33464Y-43307D02*
X72244Y-43307D01*
X33464Y-43307D02*
X33464Y-22440D01*
X72244Y-22440D02*
X72244Y-43307D01*
G54D12*
X34704Y-27736D02*
X35373Y-28405D01*
X35373Y-27736D02*
X34704Y-28405D01*
X36476Y-27736D02*
X37145Y-28405D01*
X37145Y-27736D02*
X36476Y-28405D01*
X36811Y-24409D02*
G75*
G03X36811Y-24409I-590J0D01*
G74*
G01*
X36811Y-41141D02*
G75*
G03X36811Y-41141I-590J0D01*
G74*
G01*
X41897Y-24409D02*
G75*
G03X41897Y-24409I-590J0D01*
G74*
G01*
X45897Y-24409D02*
G75*
G03X45897Y-24409I-590J0D01*
G74*
G01*
X48787Y-24409D02*
G75*
G03X48787Y-24409I-590J0D01*
G74*
G01*
X52787Y-24409D02*
G75*
G03X52787Y-24409I-590J0D01*
G74*
G01*
X55677Y-24409D02*
G75*
G03X55677Y-24409I-590J0D01*
G74*
G01*
X59677Y-24409D02*
G75*
G03X59677Y-24409I-590J0D01*
G74*
G01*
X62566Y-24409D02*
G75*
G03X62566Y-24409I-590J0D01*
G74*
G01*
X66566Y-24409D02*
G75*
G03X66566Y-24409I-590J0D01*
G74*
G01*
X70078Y-25000D02*
G75*
G03X70078Y-25000I-590J0D01*
G74*
G01*
X70866Y-30086D02*
G75*
G03X70866Y-30086I-590J0D01*
G74*
G01*
X70866Y-34086D02*
G75*
G03X70866Y-34086I-590J0D01*
G74*
G01*
X70866Y-36976D02*
G75*
G03X70866Y-36976I-590J0D01*
G74*
G01*
X70866Y-40976D02*
G75*
G03X70866Y-40976I-590J0D01*
G74*
G01*
X35681Y-32750D02*
X35681Y-34029D01*
X35041Y-33389D02*
X36320Y-33389D01*
X35681Y-37750D02*
X35681Y-39029D01*
X35041Y-38389D02*
X36320Y-38389D01*
G54D13*
X34513Y-45160D02*
X34513Y-43979D01*
X34794Y-43979D01*
X34963Y-44035D01*
X35075Y-44147D01*
X35132Y-44260D01*
X35188Y-44485D01*
X35188Y-44654D01*
X35132Y-44879D01*
X35075Y-44991D01*
X34963Y-45104D01*
X34794Y-45160D01*
X34513Y-45160D01*
X35694Y-45160D02*
X35694Y-44372D01*
X35694Y-44597D02*
X35750Y-44485D01*
X35807Y-44429D01*
X35919Y-44372D01*
X36032Y-44372D01*
X36425Y-45160D02*
X36425Y-44372D01*
X36425Y-43979D02*
X36369Y-44035D01*
X36425Y-44091D01*
X36482Y-44035D01*
X36425Y-43979D01*
X36425Y-44091D01*
X37156Y-45160D02*
X37044Y-45104D01*
X36988Y-44991D01*
X36988Y-43979D01*
X37775Y-45160D02*
X37663Y-45104D01*
X37606Y-44991D01*
X37606Y-43979D01*
X39125Y-45160D02*
X39125Y-43979D01*
X39519Y-44822D01*
X39912Y-43979D01*
X39912Y-45160D01*
X40981Y-45160D02*
X40981Y-44541D01*
X40925Y-44429D01*
X40812Y-44372D01*
X40587Y-44372D01*
X40475Y-44429D01*
X40981Y-45104D02*
X40868Y-45160D01*
X40587Y-45160D01*
X40475Y-45104D01*
X40419Y-44991D01*
X40419Y-44879D01*
X40475Y-44766D01*
X40587Y-44710D01*
X40868Y-44710D01*
X40981Y-44654D01*
X41543Y-44372D02*
X41543Y-45553D01*
X41543Y-44429D02*
X41656Y-44372D01*
X41881Y-44372D01*
X41993Y-44429D01*
X42050Y-44485D01*
X42106Y-44597D01*
X42106Y-44935D01*
X42050Y-45047D01*
X41993Y-45104D01*
X41881Y-45160D01*
X41656Y-45160D01*
X41543Y-45104D01*
X42612Y-45047D02*
X42668Y-45104D01*
X42612Y-45160D01*
X42556Y-45104D01*
X42612Y-45047D01*
X42612Y-45160D01*
X42612Y-44429D02*
X42668Y-44485D01*
X42612Y-44541D01*
X42556Y-44485D01*
X42612Y-44429D01*
X42612Y-44541D01*
X32775Y-46771D02*
X33444Y-47440D01*
X33444Y-46771D02*
X32775Y-47440D01*
X35132Y-47640D02*
X34457Y-47640D01*
X34794Y-47640D02*
X34794Y-46459D01*
X34682Y-46628D01*
X34569Y-46740D01*
X34457Y-46796D01*
X35638Y-47528D02*
X35694Y-47584D01*
X35638Y-47640D01*
X35582Y-47584D01*
X35638Y-47528D01*
X35638Y-47640D01*
X36088Y-46459D02*
X36875Y-46459D01*
X36369Y-47640D01*
X37550Y-46459D02*
X37663Y-46459D01*
X37775Y-46515D01*
X37831Y-46571D01*
X37888Y-46684D01*
X37944Y-46909D01*
X37944Y-47190D01*
X37888Y-47415D01*
X37831Y-47528D01*
X37775Y-47584D01*
X37663Y-47640D01*
X37550Y-47640D01*
X37438Y-47584D01*
X37381Y-47528D01*
X37325Y-47415D01*
X37269Y-47190D01*
X37269Y-46909D01*
X37325Y-46684D01*
X37381Y-46571D01*
X37438Y-46515D01*
X37550Y-46459D01*
X38450Y-47640D02*
X38450Y-46853D01*
X38450Y-46965D02*
X38506Y-46909D01*
X38619Y-46853D01*
X38787Y-46853D01*
X38900Y-46909D01*
X38956Y-47021D01*
X38956Y-47640D01*
X38956Y-47021D02*
X39012Y-46909D01*
X39125Y-46853D01*
X39294Y-46853D01*
X39406Y-46909D01*
X39462Y-47021D01*
X39462Y-47640D01*
X40025Y-47640D02*
X40025Y-46853D01*
X40025Y-46965D02*
X40081Y-46909D01*
X40194Y-46853D01*
X40362Y-46853D01*
X40475Y-46909D01*
X40531Y-47021D01*
X40531Y-47640D01*
X40531Y-47021D02*
X40587Y-46909D01*
X40700Y-46853D01*
X40868Y-46853D01*
X40981Y-46909D01*
X41037Y-47021D01*
X41037Y-47640D01*
X43343Y-46403D02*
X42331Y-47921D01*
X44862Y-46459D02*
X44974Y-46459D01*
X45087Y-46515D01*
X45143Y-46571D01*
X45199Y-46684D01*
X45255Y-46909D01*
X45255Y-47190D01*
X45199Y-47415D01*
X45143Y-47528D01*
X45087Y-47584D01*
X44974Y-47640D01*
X44862Y-47640D01*
X44749Y-47584D01*
X44693Y-47528D01*
X44637Y-47415D01*
X44580Y-47190D01*
X44580Y-46909D01*
X44637Y-46684D01*
X44693Y-46571D01*
X44749Y-46515D01*
X44862Y-46459D01*
X45762Y-47528D02*
X45818Y-47584D01*
X45762Y-47640D01*
X45705Y-47584D01*
X45762Y-47528D01*
X45762Y-47640D01*
X46549Y-46459D02*
X46661Y-46459D01*
X46774Y-46515D01*
X46830Y-46571D01*
X46886Y-46684D01*
X46943Y-46909D01*
X46943Y-47190D01*
X46886Y-47415D01*
X46830Y-47528D01*
X46774Y-47584D01*
X46661Y-47640D01*
X46549Y-47640D01*
X46437Y-47584D01*
X46380Y-47528D01*
X46324Y-47415D01*
X46268Y-47190D01*
X46268Y-46909D01*
X46324Y-46684D01*
X46380Y-46571D01*
X46437Y-46515D01*
X46549Y-46459D01*
X47955Y-46459D02*
X47730Y-46459D01*
X47618Y-46515D01*
X47561Y-46571D01*
X47449Y-46740D01*
X47393Y-46965D01*
X47393Y-47415D01*
X47449Y-47528D01*
X47505Y-47584D01*
X47618Y-47640D01*
X47843Y-47640D01*
X47955Y-47584D01*
X48011Y-47528D01*
X48068Y-47415D01*
X48068Y-47134D01*
X48011Y-47021D01*
X47955Y-46965D01*
X47843Y-46909D01*
X47618Y-46909D01*
X47505Y-46965D01*
X47449Y-47021D01*
X47393Y-47134D01*
X48461Y-46459D02*
X49249Y-46459D01*
X48742Y-47640D01*
X49642Y-46459D02*
X49642Y-46684D01*
X50092Y-46459D02*
X50092Y-46684D01*
X51836Y-48090D02*
X51780Y-48034D01*
X51667Y-47865D01*
X51611Y-47753D01*
X51555Y-47584D01*
X51498Y-47303D01*
X51498Y-47078D01*
X51555Y-46796D01*
X51611Y-46628D01*
X51667Y-46515D01*
X51780Y-46347D01*
X51836Y-46290D01*
X52230Y-46571D02*
X52286Y-46515D01*
X52398Y-46459D01*
X52679Y-46459D01*
X52792Y-46515D01*
X52848Y-46571D01*
X52904Y-46684D01*
X52904Y-46796D01*
X52848Y-46965D01*
X52173Y-47640D01*
X52904Y-47640D01*
X54311Y-47640D02*
X54311Y-46459D01*
X54817Y-47640D02*
X54817Y-47021D01*
X54760Y-46909D01*
X54648Y-46853D01*
X54479Y-46853D01*
X54367Y-46909D01*
X54311Y-46965D01*
X55548Y-47640D02*
X55435Y-47584D01*
X55379Y-47528D01*
X55323Y-47415D01*
X55323Y-47078D01*
X55379Y-46965D01*
X55435Y-46909D01*
X55548Y-46853D01*
X55717Y-46853D01*
X55829Y-46909D01*
X55885Y-46965D01*
X55942Y-47078D01*
X55942Y-47415D01*
X55885Y-47528D01*
X55829Y-47584D01*
X55717Y-47640D01*
X55548Y-47640D01*
X56616Y-47640D02*
X56504Y-47584D01*
X56448Y-47471D01*
X56448Y-46459D01*
X57516Y-47584D02*
X57404Y-47640D01*
X57179Y-47640D01*
X57066Y-47584D01*
X57010Y-47471D01*
X57010Y-47021D01*
X57066Y-46909D01*
X57179Y-46853D01*
X57404Y-46853D01*
X57516Y-46909D01*
X57573Y-47021D01*
X57573Y-47134D01*
X57010Y-47246D01*
X58023Y-47584D02*
X58135Y-47640D01*
X58360Y-47640D01*
X58473Y-47584D01*
X58529Y-47471D01*
X58529Y-47415D01*
X58473Y-47303D01*
X58360Y-47246D01*
X58191Y-47246D01*
X58079Y-47190D01*
X58023Y-47078D01*
X58023Y-47021D01*
X58079Y-46909D01*
X58191Y-46853D01*
X58360Y-46853D01*
X58473Y-46909D01*
X58922Y-48090D02*
X58979Y-48034D01*
X59091Y-47865D01*
X59147Y-47753D01*
X59204Y-47584D01*
X59260Y-47303D01*
X59260Y-47078D01*
X59204Y-46796D01*
X59147Y-46628D01*
X59091Y-46515D01*
X58979Y-46347D01*
X58922Y-46290D01*
G54D12*
X33444Y-48665D02*
G75*
G03X33444Y-48665I-590J0D01*
G74*
G01*
G54D13*
X34401Y-48018D02*
X35132Y-48018D01*
X34738Y-48468D01*
X34907Y-48468D01*
X35019Y-48524D01*
X35075Y-48580D01*
X35132Y-48693D01*
X35132Y-48974D01*
X35075Y-49087D01*
X35019Y-49143D01*
X34907Y-49199D01*
X34569Y-49199D01*
X34457Y-49143D01*
X34401Y-49087D01*
X35638Y-49087D02*
X35694Y-49143D01*
X35638Y-49199D01*
X35582Y-49143D01*
X35638Y-49087D01*
X35638Y-49199D01*
X36425Y-48018D02*
X36538Y-48018D01*
X36650Y-48074D01*
X36706Y-48131D01*
X36763Y-48243D01*
X36819Y-48468D01*
X36819Y-48749D01*
X36763Y-48974D01*
X36706Y-49087D01*
X36650Y-49143D01*
X36538Y-49199D01*
X36425Y-49199D01*
X36313Y-49143D01*
X36257Y-49087D01*
X36200Y-48974D01*
X36144Y-48749D01*
X36144Y-48468D01*
X36200Y-48243D01*
X36257Y-48131D01*
X36313Y-48074D01*
X36425Y-48018D01*
X37550Y-48018D02*
X37663Y-48018D01*
X37775Y-48074D01*
X37831Y-48131D01*
X37888Y-48243D01*
X37944Y-48468D01*
X37944Y-48749D01*
X37888Y-48974D01*
X37831Y-49087D01*
X37775Y-49143D01*
X37663Y-49199D01*
X37550Y-49199D01*
X37438Y-49143D01*
X37381Y-49087D01*
X37325Y-48974D01*
X37269Y-48749D01*
X37269Y-48468D01*
X37325Y-48243D01*
X37381Y-48131D01*
X37438Y-48074D01*
X37550Y-48018D01*
X38450Y-49199D02*
X38450Y-48412D01*
X38450Y-48524D02*
X38506Y-48468D01*
X38619Y-48412D01*
X38787Y-48412D01*
X38900Y-48468D01*
X38956Y-48580D01*
X38956Y-49199D01*
X38956Y-48580D02*
X39012Y-48468D01*
X39125Y-48412D01*
X39294Y-48412D01*
X39406Y-48468D01*
X39462Y-48580D01*
X39462Y-49199D01*
X40025Y-49199D02*
X40025Y-48412D01*
X40025Y-48524D02*
X40081Y-48468D01*
X40194Y-48412D01*
X40362Y-48412D01*
X40475Y-48468D01*
X40531Y-48580D01*
X40531Y-49199D01*
X40531Y-48580D02*
X40587Y-48468D01*
X40700Y-48412D01*
X40868Y-48412D01*
X40981Y-48468D01*
X41037Y-48580D01*
X41037Y-49199D01*
X43343Y-47962D02*
X42331Y-49480D01*
X44862Y-48018D02*
X44974Y-48018D01*
X45087Y-48074D01*
X45143Y-48131D01*
X45199Y-48243D01*
X45255Y-48468D01*
X45255Y-48749D01*
X45199Y-48974D01*
X45143Y-49087D01*
X45087Y-49143D01*
X44974Y-49199D01*
X44862Y-49199D01*
X44749Y-49143D01*
X44693Y-49087D01*
X44637Y-48974D01*
X44580Y-48749D01*
X44580Y-48468D01*
X44637Y-48243D01*
X44693Y-48131D01*
X44749Y-48074D01*
X44862Y-48018D01*
X45762Y-49087D02*
X45818Y-49143D01*
X45762Y-49199D01*
X45705Y-49143D01*
X45762Y-49087D01*
X45762Y-49199D01*
X46943Y-49199D02*
X46268Y-49199D01*
X46605Y-49199D02*
X46605Y-48018D01*
X46493Y-48187D01*
X46380Y-48299D01*
X46268Y-48356D01*
X48068Y-49199D02*
X47393Y-49199D01*
X47730Y-49199D02*
X47730Y-48018D01*
X47618Y-48187D01*
X47505Y-48299D01*
X47393Y-48356D01*
X48742Y-48524D02*
X48630Y-48468D01*
X48574Y-48412D01*
X48517Y-48299D01*
X48517Y-48243D01*
X48574Y-48131D01*
X48630Y-48074D01*
X48742Y-48018D01*
X48967Y-48018D01*
X49080Y-48074D01*
X49136Y-48131D01*
X49192Y-48243D01*
X49192Y-48299D01*
X49136Y-48412D01*
X49080Y-48468D01*
X48967Y-48524D01*
X48742Y-48524D01*
X48630Y-48580D01*
X48574Y-48637D01*
X48517Y-48749D01*
X48517Y-48974D01*
X48574Y-49087D01*
X48630Y-49143D01*
X48742Y-49199D01*
X48967Y-49199D01*
X49080Y-49143D01*
X49136Y-49087D01*
X49192Y-48974D01*
X49192Y-48749D01*
X49136Y-48637D01*
X49080Y-48580D01*
X48967Y-48524D01*
X49642Y-48018D02*
X49642Y-48243D01*
X50092Y-48018D02*
X50092Y-48243D01*
X51836Y-49649D02*
X51780Y-49593D01*
X51667Y-49424D01*
X51611Y-49312D01*
X51555Y-49143D01*
X51498Y-48862D01*
X51498Y-48637D01*
X51555Y-48356D01*
X51611Y-48187D01*
X51667Y-48074D01*
X51780Y-47906D01*
X51836Y-47849D01*
X52904Y-49199D02*
X52230Y-49199D01*
X52567Y-49199D02*
X52567Y-48018D01*
X52455Y-48187D01*
X52342Y-48299D01*
X52230Y-48356D01*
X53973Y-48018D02*
X53411Y-48018D01*
X53354Y-48580D01*
X53411Y-48524D01*
X53523Y-48468D01*
X53804Y-48468D01*
X53917Y-48524D01*
X53973Y-48580D01*
X54029Y-48693D01*
X54029Y-48974D01*
X53973Y-49087D01*
X53917Y-49143D01*
X53804Y-49199D01*
X53523Y-49199D01*
X53411Y-49143D01*
X53354Y-49087D01*
X55435Y-49199D02*
X55435Y-48018D01*
X55942Y-49199D02*
X55942Y-48580D01*
X55885Y-48468D01*
X55773Y-48412D01*
X55604Y-48412D01*
X55492Y-48468D01*
X55435Y-48524D01*
X56673Y-49199D02*
X56560Y-49143D01*
X56504Y-49087D01*
X56448Y-48974D01*
X56448Y-48637D01*
X56504Y-48524D01*
X56560Y-48468D01*
X56673Y-48412D01*
X56841Y-48412D01*
X56954Y-48468D01*
X57010Y-48524D01*
X57066Y-48637D01*
X57066Y-48974D01*
X57010Y-49087D01*
X56954Y-49143D01*
X56841Y-49199D01*
X56673Y-49199D01*
X57741Y-49199D02*
X57629Y-49143D01*
X57573Y-49030D01*
X57573Y-48018D01*
X58641Y-49143D02*
X58529Y-49199D01*
X58304Y-49199D01*
X58191Y-49143D01*
X58135Y-49030D01*
X58135Y-48580D01*
X58191Y-48468D01*
X58304Y-48412D01*
X58529Y-48412D01*
X58641Y-48468D01*
X58697Y-48580D01*
X58697Y-48693D01*
X58135Y-48805D01*
X59147Y-49143D02*
X59260Y-49199D01*
X59485Y-49199D01*
X59597Y-49143D01*
X59654Y-49030D01*
X59654Y-48974D01*
X59597Y-48862D01*
X59485Y-48805D01*
X59316Y-48805D01*
X59204Y-48749D01*
X59147Y-48637D01*
X59147Y-48580D01*
X59204Y-48468D01*
X59316Y-48412D01*
X59485Y-48412D01*
X59597Y-48468D01*
X60047Y-49649D02*
X60104Y-49593D01*
X60216Y-49424D01*
X60272Y-49312D01*
X60329Y-49143D01*
X60385Y-48862D01*
X60385Y-48637D01*
X60329Y-48356D01*
X60272Y-48187D01*
X60216Y-48074D01*
X60104Y-47906D01*
X60047Y-47849D01*
X32805Y-49718D02*
X32805Y-50998D01*
X32165Y-50358D02*
X33444Y-50358D01*
X34401Y-49711D02*
X35132Y-49711D01*
X34738Y-50161D01*
X34907Y-50161D01*
X35019Y-50217D01*
X35075Y-50273D01*
X35132Y-50386D01*
X35132Y-50667D01*
X35075Y-50780D01*
X35019Y-50836D01*
X34907Y-50892D01*
X34569Y-50892D01*
X34457Y-50836D01*
X34401Y-50780D01*
X35638Y-50780D02*
X35694Y-50836D01*
X35638Y-50892D01*
X35582Y-50836D01*
X35638Y-50780D01*
X35638Y-50892D01*
X36144Y-49823D02*
X36200Y-49767D01*
X36313Y-49711D01*
X36594Y-49711D01*
X36706Y-49767D01*
X36763Y-49823D01*
X36819Y-49936D01*
X36819Y-50048D01*
X36763Y-50217D01*
X36088Y-50892D01*
X36819Y-50892D01*
X37888Y-49711D02*
X37325Y-49711D01*
X37269Y-50273D01*
X37325Y-50217D01*
X37438Y-50161D01*
X37719Y-50161D01*
X37831Y-50217D01*
X37888Y-50273D01*
X37944Y-50386D01*
X37944Y-50667D01*
X37888Y-50780D01*
X37831Y-50836D01*
X37719Y-50892D01*
X37438Y-50892D01*
X37325Y-50836D01*
X37269Y-50780D01*
X38450Y-50892D02*
X38450Y-50105D01*
X38450Y-50217D02*
X38506Y-50161D01*
X38619Y-50105D01*
X38787Y-50105D01*
X38900Y-50161D01*
X38956Y-50273D01*
X38956Y-50892D01*
X38956Y-50273D02*
X39012Y-50161D01*
X39125Y-50105D01*
X39294Y-50105D01*
X39406Y-50161D01*
X39462Y-50273D01*
X39462Y-50892D01*
X40025Y-50892D02*
X40025Y-50105D01*
X40025Y-50217D02*
X40081Y-50161D01*
X40194Y-50105D01*
X40362Y-50105D01*
X40475Y-50161D01*
X40531Y-50273D01*
X40531Y-50892D01*
X40531Y-50273D02*
X40587Y-50161D01*
X40700Y-50105D01*
X40868Y-50105D01*
X40981Y-50161D01*
X41037Y-50273D01*
X41037Y-50892D01*
X43343Y-49655D02*
X42331Y-51173D01*
X44862Y-49711D02*
X44974Y-49711D01*
X45087Y-49767D01*
X45143Y-49823D01*
X45199Y-49936D01*
X45255Y-50161D01*
X45255Y-50442D01*
X45199Y-50667D01*
X45143Y-50780D01*
X45087Y-50836D01*
X44974Y-50892D01*
X44862Y-50892D01*
X44749Y-50836D01*
X44693Y-50780D01*
X44637Y-50667D01*
X44580Y-50442D01*
X44580Y-50161D01*
X44637Y-49936D01*
X44693Y-49823D01*
X44749Y-49767D01*
X44862Y-49711D01*
X45762Y-50780D02*
X45818Y-50836D01*
X45762Y-50892D01*
X45705Y-50836D01*
X45762Y-50780D01*
X45762Y-50892D01*
X46943Y-50892D02*
X46268Y-50892D01*
X46605Y-50892D02*
X46605Y-49711D01*
X46493Y-49880D01*
X46380Y-49992D01*
X46268Y-50048D01*
X47393Y-49823D02*
X47449Y-49767D01*
X47561Y-49711D01*
X47843Y-49711D01*
X47955Y-49767D01*
X48011Y-49823D01*
X48068Y-49936D01*
X48068Y-50048D01*
X48011Y-50217D01*
X47336Y-50892D01*
X48068Y-50892D01*
X48742Y-50217D02*
X48630Y-50161D01*
X48574Y-50105D01*
X48517Y-49992D01*
X48517Y-49936D01*
X48574Y-49823D01*
X48630Y-49767D01*
X48742Y-49711D01*
X48967Y-49711D01*
X49080Y-49767D01*
X49136Y-49823D01*
X49192Y-49936D01*
X49192Y-49992D01*
X49136Y-50105D01*
X49080Y-50161D01*
X48967Y-50217D01*
X48742Y-50217D01*
X48630Y-50273D01*
X48574Y-50330D01*
X48517Y-50442D01*
X48517Y-50667D01*
X48574Y-50780D01*
X48630Y-50836D01*
X48742Y-50892D01*
X48967Y-50892D01*
X49080Y-50836D01*
X49136Y-50780D01*
X49192Y-50667D01*
X49192Y-50442D01*
X49136Y-50330D01*
X49080Y-50273D01*
X48967Y-50217D01*
X49642Y-49711D02*
X49642Y-49936D01*
X50092Y-49711D02*
X50092Y-49936D01*
X51836Y-51342D02*
X51780Y-51286D01*
X51667Y-51117D01*
X51611Y-51005D01*
X51555Y-50836D01*
X51498Y-50555D01*
X51498Y-50330D01*
X51555Y-50048D01*
X51611Y-49880D01*
X51667Y-49767D01*
X51780Y-49598D01*
X51836Y-49542D01*
X52230Y-49823D02*
X52286Y-49767D01*
X52398Y-49711D01*
X52679Y-49711D01*
X52792Y-49767D01*
X52848Y-49823D01*
X52904Y-49936D01*
X52904Y-50048D01*
X52848Y-50217D01*
X52173Y-50892D01*
X52904Y-50892D01*
X54311Y-50892D02*
X54311Y-49711D01*
X54817Y-50892D02*
X54817Y-50273D01*
X54760Y-50161D01*
X54648Y-50105D01*
X54479Y-50105D01*
X54367Y-50161D01*
X54311Y-50217D01*
X55548Y-50892D02*
X55435Y-50836D01*
X55379Y-50780D01*
X55323Y-50667D01*
X55323Y-50330D01*
X55379Y-50217D01*
X55435Y-50161D01*
X55548Y-50105D01*
X55717Y-50105D01*
X55829Y-50161D01*
X55885Y-50217D01*
X55942Y-50330D01*
X55942Y-50667D01*
X55885Y-50780D01*
X55829Y-50836D01*
X55717Y-50892D01*
X55548Y-50892D01*
X56616Y-50892D02*
X56504Y-50836D01*
X56448Y-50723D01*
X56448Y-49711D01*
X57516Y-50836D02*
X57404Y-50892D01*
X57179Y-50892D01*
X57066Y-50836D01*
X57010Y-50723D01*
X57010Y-50273D01*
X57066Y-50161D01*
X57179Y-50105D01*
X57404Y-50105D01*
X57516Y-50161D01*
X57573Y-50273D01*
X57573Y-50386D01*
X57010Y-50498D01*
X58023Y-50836D02*
X58135Y-50892D01*
X58360Y-50892D01*
X58473Y-50836D01*
X58529Y-50723D01*
X58529Y-50667D01*
X58473Y-50555D01*
X58360Y-50498D01*
X58191Y-50498D01*
X58079Y-50442D01*
X58023Y-50330D01*
X58023Y-50273D01*
X58079Y-50161D01*
X58191Y-50105D01*
X58360Y-50105D01*
X58473Y-50161D01*
X58922Y-51342D02*
X58979Y-51286D01*
X59091Y-51117D01*
X59147Y-51005D01*
X59204Y-50836D01*
X59260Y-50555D01*
X59260Y-50330D01*
X59204Y-50048D01*
X59147Y-49880D01*
X59091Y-49767D01*
X58979Y-49598D01*
X58922Y-49542D01*
M02*
