G04 #@! TF.GenerationSoftware,KiCad,Pcbnew,5.1.5-52549c5~86~ubuntu18.04.1*
G04 #@! TF.CreationDate,2020-12-07T21:32:19-08:00*
G04 #@! TF.ProjectId,heat2sound_rx_rev04,68656174-3273-46f7-956e-645f72785f72,rev?*
G04 #@! TF.SameCoordinates,Original*
G04 #@! TF.FileFunction,Legend,Top*
G04 #@! TF.FilePolarity,Positive*
%FSLAX46Y46*%
G04 Gerber Fmt 4.6, Leading zero omitted, Abs format (unit mm)*
G04 Created by KiCad (PCBNEW 5.1.5-52549c5~86~ubuntu18.04.1) date 2020-12-07 21:32:19*
%MOMM*%
%LPD*%
G04 APERTURE LIST*
%ADD10C,0.200000*%
%ADD11C,0.250000*%
%ADD12C,0.175000*%
%ADD13C,0.254000*%
%ADD14C,0.300000*%
%ADD15C,0.317500*%
%ADD16C,0.304800*%
%ADD17C,0.120000*%
%ADD18C,0.127000*%
%ADD19C,0.150000*%
%ADD20C,0.381000*%
%ADD21C,0.066040*%
%ADD22C,0.101600*%
%ADD23C,0.200660*%
%ADD24C,0.762000*%
%ADD25C,0.190500*%
%ADD26C,0.088900*%
G04 APERTURE END LIST*
D10*
X155390476Y-131761904D02*
X155847619Y-131761904D01*
X155619047Y-132561904D02*
X155619047Y-131761904D01*
X156038095Y-131761904D02*
X156571428Y-132561904D01*
X156571428Y-131761904D02*
X156038095Y-132561904D01*
X158366666Y-132361904D02*
X158100000Y-131980952D01*
X157909523Y-132361904D02*
X157909523Y-131561904D01*
X158214285Y-131561904D01*
X158290476Y-131600000D01*
X158328571Y-131638095D01*
X158366666Y-131714285D01*
X158366666Y-131828571D01*
X158328571Y-131904761D01*
X158290476Y-131942857D01*
X158214285Y-131980952D01*
X157909523Y-131980952D01*
X158633333Y-131561904D02*
X159166666Y-132361904D01*
X159166666Y-131561904D02*
X158633333Y-132361904D01*
X160790476Y-131700000D02*
X160714285Y-131661904D01*
X160600000Y-131661904D01*
X160485714Y-131700000D01*
X160409523Y-131776190D01*
X160371428Y-131852380D01*
X160333333Y-132004761D01*
X160333333Y-132119047D01*
X160371428Y-132271428D01*
X160409523Y-132347619D01*
X160485714Y-132423809D01*
X160600000Y-132461904D01*
X160676190Y-132461904D01*
X160790476Y-132423809D01*
X160828571Y-132385714D01*
X160828571Y-132119047D01*
X160676190Y-132119047D01*
X161171428Y-132461904D02*
X161171428Y-131661904D01*
X161628571Y-132461904D01*
X161628571Y-131661904D01*
X162009523Y-132461904D02*
X162009523Y-131661904D01*
X162200000Y-131661904D01*
X162314285Y-131700000D01*
X162390476Y-131776190D01*
X162428571Y-131852380D01*
X162466666Y-132004761D01*
X162466666Y-132119047D01*
X162428571Y-132271428D01*
X162390476Y-132347619D01*
X162314285Y-132423809D01*
X162200000Y-132461904D01*
X162009523Y-132461904D01*
X174353571Y-111361904D02*
X174810714Y-111361904D01*
X174582142Y-112161904D02*
X174582142Y-111361904D01*
X175077380Y-112161904D02*
X175077380Y-111361904D01*
X175420238Y-112161904D02*
X175420238Y-111742857D01*
X175382142Y-111666666D01*
X175305952Y-111628571D01*
X175191666Y-111628571D01*
X175115476Y-111666666D01*
X175077380Y-111704761D01*
X175801190Y-112161904D02*
X175801190Y-111628571D01*
X175801190Y-111780952D02*
X175839285Y-111704761D01*
X175877380Y-111666666D01*
X175953571Y-111628571D01*
X176029761Y-111628571D01*
X176296428Y-112161904D02*
X176296428Y-111628571D01*
X176296428Y-111704761D02*
X176334523Y-111666666D01*
X176410714Y-111628571D01*
X176525000Y-111628571D01*
X176601190Y-111666666D01*
X176639285Y-111742857D01*
X176639285Y-112161904D01*
X176639285Y-111742857D02*
X176677380Y-111666666D01*
X176753571Y-111628571D01*
X176867857Y-111628571D01*
X176944047Y-111666666D01*
X176982142Y-111742857D01*
X176982142Y-112161904D01*
X179178571Y-117111904D02*
X179635714Y-117111904D01*
X179407142Y-117911904D02*
X179407142Y-117111904D01*
X179902380Y-117911904D02*
X179902380Y-117111904D01*
X180245238Y-117911904D02*
X180245238Y-117492857D01*
X180207142Y-117416666D01*
X180130952Y-117378571D01*
X180016666Y-117378571D01*
X179940476Y-117416666D01*
X179902380Y-117454761D01*
X180626190Y-117911904D02*
X180626190Y-117378571D01*
X180626190Y-117530952D02*
X180664285Y-117454761D01*
X180702380Y-117416666D01*
X180778571Y-117378571D01*
X180854761Y-117378571D01*
X181121428Y-117911904D02*
X181121428Y-117378571D01*
X181121428Y-117454761D02*
X181159523Y-117416666D01*
X181235714Y-117378571D01*
X181350000Y-117378571D01*
X181426190Y-117416666D01*
X181464285Y-117492857D01*
X181464285Y-117911904D01*
X181464285Y-117492857D02*
X181502380Y-117416666D01*
X181578571Y-117378571D01*
X181692857Y-117378571D01*
X181769047Y-117416666D01*
X181807142Y-117492857D01*
X181807142Y-117911904D01*
X169954761Y-110192857D02*
X170221428Y-110192857D01*
X170335714Y-110611904D02*
X169954761Y-110611904D01*
X169954761Y-109811904D01*
X170335714Y-109811904D01*
X170602380Y-110611904D02*
X171021428Y-110078571D01*
X170602380Y-110078571D02*
X171021428Y-110611904D01*
X169516666Y-111973809D02*
X169630952Y-112011904D01*
X169821428Y-112011904D01*
X169897619Y-111973809D01*
X169935714Y-111935714D01*
X169973809Y-111859523D01*
X169973809Y-111783333D01*
X169935714Y-111707142D01*
X169897619Y-111669047D01*
X169821428Y-111630952D01*
X169669047Y-111592857D01*
X169592857Y-111554761D01*
X169554761Y-111516666D01*
X169516666Y-111440476D01*
X169516666Y-111364285D01*
X169554761Y-111288095D01*
X169592857Y-111250000D01*
X169669047Y-111211904D01*
X169859523Y-111211904D01*
X169973809Y-111250000D01*
X170621428Y-111973809D02*
X170545238Y-112011904D01*
X170392857Y-112011904D01*
X170316666Y-111973809D01*
X170278571Y-111897619D01*
X170278571Y-111592857D01*
X170316666Y-111516666D01*
X170392857Y-111478571D01*
X170545238Y-111478571D01*
X170621428Y-111516666D01*
X170659523Y-111592857D01*
X170659523Y-111669047D01*
X170278571Y-111745238D01*
X171002380Y-111478571D02*
X171002380Y-112011904D01*
X171002380Y-111554761D02*
X171040476Y-111516666D01*
X171116666Y-111478571D01*
X171230952Y-111478571D01*
X171307142Y-111516666D01*
X171345238Y-111592857D01*
X171345238Y-112011904D01*
X154354761Y-118061904D02*
X153897619Y-118061904D01*
X154126190Y-118061904D02*
X154126190Y-117261904D01*
X154050000Y-117376190D01*
X153973809Y-117452380D01*
X153897619Y-117490476D01*
X154621428Y-118061904D02*
X155040476Y-117528571D01*
X154621428Y-117528571D02*
X155040476Y-118061904D01*
D11*
X183719047Y-125371428D02*
X184480952Y-125371428D01*
X184100000Y-125752380D02*
X184100000Y-124990476D01*
D12*
X176333333Y-123450000D02*
X176866666Y-123450000D01*
X172833333Y-123350000D02*
X173366666Y-123350000D01*
X173100000Y-123616666D02*
X173100000Y-123083333D01*
D13*
X152000000Y-153162000D02*
X152000000Y-97250000D01*
X185646000Y-153162000D02*
X152146000Y-153162000D01*
X185500000Y-114650000D02*
X185500000Y-153150000D01*
X152250000Y-97250000D02*
X185500000Y-97250000D01*
D14*
X173139714Y-151418857D02*
X172454000Y-151418857D01*
X172796857Y-151418857D02*
X172796857Y-150218857D01*
X172682571Y-150390285D01*
X172568285Y-150504571D01*
X172454000Y-150561714D01*
X173596857Y-150333142D02*
X173654000Y-150276000D01*
X173768285Y-150218857D01*
X174054000Y-150218857D01*
X174168285Y-150276000D01*
X174225428Y-150333142D01*
X174282571Y-150447428D01*
X174282571Y-150561714D01*
X174225428Y-150733142D01*
X173539714Y-151418857D01*
X174282571Y-151418857D01*
X175654000Y-150161714D02*
X174625428Y-151704571D01*
X176282571Y-150218857D02*
X176396857Y-150218857D01*
X176511142Y-150276000D01*
X176568285Y-150333142D01*
X176625428Y-150447428D01*
X176682571Y-150676000D01*
X176682571Y-150961714D01*
X176625428Y-151190285D01*
X176568285Y-151304571D01*
X176511142Y-151361714D01*
X176396857Y-151418857D01*
X176282571Y-151418857D01*
X176168285Y-151361714D01*
X176111142Y-151304571D01*
X176054000Y-151190285D01*
X175996857Y-150961714D01*
X175996857Y-150676000D01*
X176054000Y-150447428D01*
X176111142Y-150333142D01*
X176168285Y-150276000D01*
X176282571Y-150218857D01*
X177082571Y-150218857D02*
X177882571Y-150218857D01*
X177368285Y-151418857D01*
X179196857Y-150161714D02*
X178168285Y-151704571D01*
X179539714Y-150333142D02*
X179596857Y-150276000D01*
X179711142Y-150218857D01*
X179996857Y-150218857D01*
X180111142Y-150276000D01*
X180168285Y-150333142D01*
X180225428Y-150447428D01*
X180225428Y-150561714D01*
X180168285Y-150733142D01*
X179482571Y-151418857D01*
X180225428Y-151418857D01*
X180968285Y-150218857D02*
X181082571Y-150218857D01*
X181196857Y-150276000D01*
X181254000Y-150333142D01*
X181311142Y-150447428D01*
X181368285Y-150676000D01*
X181368285Y-150961714D01*
X181311142Y-151190285D01*
X181254000Y-151304571D01*
X181196857Y-151361714D01*
X181082571Y-151418857D01*
X180968285Y-151418857D01*
X180854000Y-151361714D01*
X180796857Y-151304571D01*
X180739714Y-151190285D01*
X180682571Y-150961714D01*
X180682571Y-150676000D01*
X180739714Y-150447428D01*
X180796857Y-150333142D01*
X180854000Y-150276000D01*
X180968285Y-150218857D01*
X181825428Y-150333142D02*
X181882571Y-150276000D01*
X181996857Y-150218857D01*
X182282571Y-150218857D01*
X182396857Y-150276000D01*
X182454000Y-150333142D01*
X182511142Y-150447428D01*
X182511142Y-150561714D01*
X182454000Y-150733142D01*
X181768285Y-151418857D01*
X182511142Y-151418857D01*
X183254000Y-150218857D02*
X183368285Y-150218857D01*
X183482571Y-150276000D01*
X183539714Y-150333142D01*
X183596857Y-150447428D01*
X183654000Y-150676000D01*
X183654000Y-150961714D01*
X183596857Y-151190285D01*
X183539714Y-151304571D01*
X183482571Y-151361714D01*
X183368285Y-151418857D01*
X183254000Y-151418857D01*
X183139714Y-151361714D01*
X183082571Y-151304571D01*
X183025428Y-151190285D01*
X182968285Y-150961714D01*
X182968285Y-150676000D01*
X183025428Y-150447428D01*
X183082571Y-150333142D01*
X183139714Y-150276000D01*
X183254000Y-150218857D01*
D11*
X178123809Y-123477380D02*
X178695238Y-123477380D01*
X178409523Y-124477380D02*
X178409523Y-123477380D01*
X179028571Y-124477380D02*
X179028571Y-123477380D01*
X179457142Y-124477380D02*
X179457142Y-123953571D01*
X179409523Y-123858333D01*
X179314285Y-123810714D01*
X179171428Y-123810714D01*
X179076190Y-123858333D01*
X179028571Y-123905952D01*
X180314285Y-124429761D02*
X180219047Y-124477380D01*
X180028571Y-124477380D01*
X179933333Y-124429761D01*
X179885714Y-124334523D01*
X179885714Y-123953571D01*
X179933333Y-123858333D01*
X180028571Y-123810714D01*
X180219047Y-123810714D01*
X180314285Y-123858333D01*
X180361904Y-123953571D01*
X180361904Y-124048809D01*
X179885714Y-124144047D01*
X180790476Y-124477380D02*
X180790476Y-123810714D01*
X180790476Y-124001190D02*
X180838095Y-123905952D01*
X180885714Y-123858333D01*
X180980952Y-123810714D01*
X181076190Y-123810714D01*
X181409523Y-124477380D02*
X181409523Y-123810714D01*
X181409523Y-123905952D02*
X181457142Y-123858333D01*
X181552380Y-123810714D01*
X181695238Y-123810714D01*
X181790476Y-123858333D01*
X181838095Y-123953571D01*
X181838095Y-124477380D01*
X181838095Y-123953571D02*
X181885714Y-123858333D01*
X181980952Y-123810714D01*
X182123809Y-123810714D01*
X182219047Y-123858333D01*
X182266666Y-123953571D01*
X182266666Y-124477380D01*
X182885714Y-124477380D02*
X182790476Y-124429761D01*
X182742857Y-124382142D01*
X182695238Y-124286904D01*
X182695238Y-124001190D01*
X182742857Y-123905952D01*
X182790476Y-123858333D01*
X182885714Y-123810714D01*
X183028571Y-123810714D01*
X183123809Y-123858333D01*
X183171428Y-123905952D01*
X183219047Y-124001190D01*
X183219047Y-124286904D01*
X183171428Y-124382142D01*
X183123809Y-124429761D01*
X183028571Y-124477380D01*
X182885714Y-124477380D01*
X180266666Y-125227380D02*
X180457142Y-125227380D01*
X180552380Y-125275000D01*
X180647619Y-125370238D01*
X180695238Y-125560714D01*
X180695238Y-125894047D01*
X180647619Y-126084523D01*
X180552380Y-126179761D01*
X180457142Y-126227380D01*
X180266666Y-126227380D01*
X180171428Y-126179761D01*
X180076190Y-126084523D01*
X180028571Y-125894047D01*
X180028571Y-125560714D01*
X180076190Y-125370238D01*
X180171428Y-125275000D01*
X180266666Y-125227380D01*
X181552380Y-125560714D02*
X181552380Y-126227380D01*
X181123809Y-125560714D02*
X181123809Y-126084523D01*
X181171428Y-126179761D01*
X181266666Y-126227380D01*
X181409523Y-126227380D01*
X181504761Y-126179761D01*
X181552380Y-126132142D01*
X181885714Y-125560714D02*
X182266666Y-125560714D01*
X182028571Y-125227380D02*
X182028571Y-126084523D01*
X182076190Y-126179761D01*
X182171428Y-126227380D01*
X182266666Y-126227380D01*
X177992380Y-109936547D02*
X178173809Y-109997023D01*
X178476190Y-109997023D01*
X178597142Y-109936547D01*
X178657619Y-109876071D01*
X178718095Y-109755119D01*
X178718095Y-109634166D01*
X178657619Y-109513214D01*
X178597142Y-109452738D01*
X178476190Y-109392261D01*
X178234285Y-109331785D01*
X178113333Y-109271309D01*
X178052857Y-109210833D01*
X177992380Y-109089880D01*
X177992380Y-108968928D01*
X178052857Y-108847976D01*
X178113333Y-108787500D01*
X178234285Y-108727023D01*
X178536666Y-108727023D01*
X178718095Y-108787500D01*
X179262380Y-109150357D02*
X179262380Y-110420357D01*
X179262380Y-109210833D02*
X179383333Y-109150357D01*
X179625238Y-109150357D01*
X179746190Y-109210833D01*
X179806666Y-109271309D01*
X179867142Y-109392261D01*
X179867142Y-109755119D01*
X179806666Y-109876071D01*
X179746190Y-109936547D01*
X179625238Y-109997023D01*
X179383333Y-109997023D01*
X179262380Y-109936547D01*
X180895238Y-109936547D02*
X180774285Y-109997023D01*
X180532380Y-109997023D01*
X180411428Y-109936547D01*
X180350952Y-109815595D01*
X180350952Y-109331785D01*
X180411428Y-109210833D01*
X180532380Y-109150357D01*
X180774285Y-109150357D01*
X180895238Y-109210833D01*
X180955714Y-109331785D01*
X180955714Y-109452738D01*
X180350952Y-109573690D01*
X182044285Y-109997023D02*
X182044285Y-109331785D01*
X181983809Y-109210833D01*
X181862857Y-109150357D01*
X181620952Y-109150357D01*
X181500000Y-109210833D01*
X182044285Y-109936547D02*
X181923333Y-109997023D01*
X181620952Y-109997023D01*
X181500000Y-109936547D01*
X181439523Y-109815595D01*
X181439523Y-109694642D01*
X181500000Y-109573690D01*
X181620952Y-109513214D01*
X181923333Y-109513214D01*
X182044285Y-109452738D01*
X182649047Y-109997023D02*
X182649047Y-108727023D01*
X182770000Y-109513214D02*
X183132857Y-109997023D01*
X183132857Y-109150357D02*
X182649047Y-109634166D01*
X184160952Y-109936547D02*
X184040000Y-109997023D01*
X183798095Y-109997023D01*
X183677142Y-109936547D01*
X183616666Y-109815595D01*
X183616666Y-109331785D01*
X183677142Y-109210833D01*
X183798095Y-109150357D01*
X184040000Y-109150357D01*
X184160952Y-109210833D01*
X184221428Y-109331785D01*
X184221428Y-109452738D01*
X183616666Y-109573690D01*
X184765714Y-109997023D02*
X184765714Y-109150357D01*
X184765714Y-109392261D02*
X184826190Y-109271309D01*
X184886666Y-109210833D01*
X185007619Y-109150357D01*
X185128571Y-109150357D01*
X180441666Y-110882023D02*
X180683571Y-110882023D01*
X180804523Y-110942500D01*
X180925476Y-111063452D01*
X180985952Y-111305357D01*
X180985952Y-111728690D01*
X180925476Y-111970595D01*
X180804523Y-112091547D01*
X180683571Y-112152023D01*
X180441666Y-112152023D01*
X180320714Y-112091547D01*
X180199761Y-111970595D01*
X180139285Y-111728690D01*
X180139285Y-111305357D01*
X180199761Y-111063452D01*
X180320714Y-110942500D01*
X180441666Y-110882023D01*
X182074523Y-111305357D02*
X182074523Y-112152023D01*
X181530238Y-111305357D02*
X181530238Y-111970595D01*
X181590714Y-112091547D01*
X181711666Y-112152023D01*
X181893095Y-112152023D01*
X182014047Y-112091547D01*
X182074523Y-112031071D01*
X182497857Y-111305357D02*
X182981666Y-111305357D01*
X182679285Y-110882023D02*
X182679285Y-111970595D01*
X182739761Y-112091547D01*
X182860714Y-112152023D01*
X182981666Y-112152023D01*
D15*
X164323809Y-99574523D02*
X164323809Y-98304523D01*
X164868095Y-99574523D02*
X164868095Y-98909285D01*
X164807619Y-98788333D01*
X164686666Y-98727857D01*
X164505238Y-98727857D01*
X164384285Y-98788333D01*
X164323809Y-98848809D01*
X165956666Y-99514047D02*
X165835714Y-99574523D01*
X165593809Y-99574523D01*
X165472857Y-99514047D01*
X165412380Y-99393095D01*
X165412380Y-98909285D01*
X165472857Y-98788333D01*
X165593809Y-98727857D01*
X165835714Y-98727857D01*
X165956666Y-98788333D01*
X166017142Y-98909285D01*
X166017142Y-99030238D01*
X165412380Y-99151190D01*
X167105714Y-99574523D02*
X167105714Y-98909285D01*
X167045238Y-98788333D01*
X166924285Y-98727857D01*
X166682380Y-98727857D01*
X166561428Y-98788333D01*
X167105714Y-99514047D02*
X166984761Y-99574523D01*
X166682380Y-99574523D01*
X166561428Y-99514047D01*
X166500952Y-99393095D01*
X166500952Y-99272142D01*
X166561428Y-99151190D01*
X166682380Y-99090714D01*
X166984761Y-99090714D01*
X167105714Y-99030238D01*
X167529047Y-98727857D02*
X168012857Y-98727857D01*
X167710476Y-98304523D02*
X167710476Y-99393095D01*
X167770952Y-99514047D01*
X167891904Y-99574523D01*
X168012857Y-99574523D01*
X168375714Y-98425476D02*
X168436190Y-98365000D01*
X168557142Y-98304523D01*
X168859523Y-98304523D01*
X168980476Y-98365000D01*
X169040952Y-98425476D01*
X169101428Y-98546428D01*
X169101428Y-98667380D01*
X169040952Y-98848809D01*
X168315238Y-99574523D01*
X169101428Y-99574523D01*
X169585238Y-99514047D02*
X169706190Y-99574523D01*
X169948095Y-99574523D01*
X170069047Y-99514047D01*
X170129523Y-99393095D01*
X170129523Y-99332619D01*
X170069047Y-99211666D01*
X169948095Y-99151190D01*
X169766666Y-99151190D01*
X169645714Y-99090714D01*
X169585238Y-98969761D01*
X169585238Y-98909285D01*
X169645714Y-98788333D01*
X169766666Y-98727857D01*
X169948095Y-98727857D01*
X170069047Y-98788333D01*
X170855238Y-99574523D02*
X170734285Y-99514047D01*
X170673809Y-99453571D01*
X170613333Y-99332619D01*
X170613333Y-98969761D01*
X170673809Y-98848809D01*
X170734285Y-98788333D01*
X170855238Y-98727857D01*
X171036666Y-98727857D01*
X171157619Y-98788333D01*
X171218095Y-98848809D01*
X171278571Y-98969761D01*
X171278571Y-99332619D01*
X171218095Y-99453571D01*
X171157619Y-99514047D01*
X171036666Y-99574523D01*
X170855238Y-99574523D01*
X172367142Y-98727857D02*
X172367142Y-99574523D01*
X171822857Y-98727857D02*
X171822857Y-99393095D01*
X171883333Y-99514047D01*
X172004285Y-99574523D01*
X172185714Y-99574523D01*
X172306666Y-99514047D01*
X172367142Y-99453571D01*
X172971904Y-98727857D02*
X172971904Y-99574523D01*
X172971904Y-98848809D02*
X173032380Y-98788333D01*
X173153333Y-98727857D01*
X173334761Y-98727857D01*
X173455714Y-98788333D01*
X173516190Y-98909285D01*
X173516190Y-99574523D01*
X174665238Y-99574523D02*
X174665238Y-98304523D01*
X174665238Y-99514047D02*
X174544285Y-99574523D01*
X174302380Y-99574523D01*
X174181428Y-99514047D01*
X174120952Y-99453571D01*
X174060476Y-99332619D01*
X174060476Y-98969761D01*
X174120952Y-98848809D01*
X174181428Y-98788333D01*
X174302380Y-98727857D01*
X174544285Y-98727857D01*
X174665238Y-98788333D01*
X174967619Y-99695476D02*
X175935238Y-99695476D01*
X176237619Y-99574523D02*
X176237619Y-98727857D01*
X176237619Y-98969761D02*
X176298095Y-98848809D01*
X176358571Y-98788333D01*
X176479523Y-98727857D01*
X176600476Y-98727857D01*
X176902857Y-99574523D02*
X177568095Y-98727857D01*
X176902857Y-98727857D02*
X177568095Y-99574523D01*
X177749523Y-99695476D02*
X178717142Y-99695476D01*
X179019523Y-99574523D02*
X179019523Y-98727857D01*
X179019523Y-98969761D02*
X179080000Y-98848809D01*
X179140476Y-98788333D01*
X179261428Y-98727857D01*
X179382380Y-98727857D01*
X180289523Y-99514047D02*
X180168571Y-99574523D01*
X179926666Y-99574523D01*
X179805714Y-99514047D01*
X179745238Y-99393095D01*
X179745238Y-98909285D01*
X179805714Y-98788333D01*
X179926666Y-98727857D01*
X180168571Y-98727857D01*
X180289523Y-98788333D01*
X180350000Y-98909285D01*
X180350000Y-99030238D01*
X179745238Y-99151190D01*
X180773333Y-98727857D02*
X181075714Y-99574523D01*
X181378095Y-98727857D01*
X182103809Y-98304523D02*
X182224761Y-98304523D01*
X182345714Y-98365000D01*
X182406190Y-98425476D01*
X182466666Y-98546428D01*
X182527142Y-98788333D01*
X182527142Y-99090714D01*
X182466666Y-99332619D01*
X182406190Y-99453571D01*
X182345714Y-99514047D01*
X182224761Y-99574523D01*
X182103809Y-99574523D01*
X181982857Y-99514047D01*
X181922380Y-99453571D01*
X181861904Y-99332619D01*
X181801428Y-99090714D01*
X181801428Y-98788333D01*
X181861904Y-98546428D01*
X181922380Y-98425476D01*
X181982857Y-98365000D01*
X182103809Y-98304523D01*
X183615714Y-98727857D02*
X183615714Y-99574523D01*
X183313333Y-98244047D02*
X183010952Y-99151190D01*
X183797142Y-99151190D01*
D16*
X153007380Y-115615000D02*
X152886428Y-115554523D01*
X152705000Y-115554523D01*
X152523571Y-115615000D01*
X152402619Y-115735952D01*
X152342142Y-115856904D01*
X152281666Y-116098809D01*
X152281666Y-116280238D01*
X152342142Y-116522142D01*
X152402619Y-116643095D01*
X152523571Y-116764047D01*
X152705000Y-116824523D01*
X152825952Y-116824523D01*
X153007380Y-116764047D01*
X153067857Y-116703571D01*
X153067857Y-116280238D01*
X152825952Y-116280238D01*
X153612142Y-116824523D02*
X153612142Y-115554523D01*
X154337857Y-116824523D01*
X154337857Y-115554523D01*
X154942619Y-116824523D02*
X154942619Y-115554523D01*
X155245000Y-115554523D01*
X155426428Y-115615000D01*
X155547380Y-115735952D01*
X155607857Y-115856904D01*
X155668333Y-116098809D01*
X155668333Y-116280238D01*
X155607857Y-116522142D01*
X155547380Y-116643095D01*
X155426428Y-116764047D01*
X155245000Y-116824523D01*
X154942619Y-116824523D01*
X155704047Y-99304523D02*
X155099285Y-99304523D01*
X155038809Y-99909285D01*
X155099285Y-99848809D01*
X155220238Y-99788333D01*
X155522619Y-99788333D01*
X155643571Y-99848809D01*
X155704047Y-99909285D01*
X155764523Y-100030238D01*
X155764523Y-100332619D01*
X155704047Y-100453571D01*
X155643571Y-100514047D01*
X155522619Y-100574523D01*
X155220238Y-100574523D01*
X155099285Y-100514047D01*
X155038809Y-100453571D01*
X156187857Y-99727857D02*
X156490238Y-100574523D01*
X156792619Y-99727857D01*
X158244047Y-100574523D02*
X158244047Y-99304523D01*
X158546428Y-99304523D01*
X158727857Y-99365000D01*
X158848809Y-99485952D01*
X158909285Y-99606904D01*
X158969761Y-99848809D01*
X158969761Y-100030238D01*
X158909285Y-100272142D01*
X158848809Y-100393095D01*
X158727857Y-100514047D01*
X158546428Y-100574523D01*
X158244047Y-100574523D01*
X160239761Y-100453571D02*
X160179285Y-100514047D01*
X159997857Y-100574523D01*
X159876904Y-100574523D01*
X159695476Y-100514047D01*
X159574523Y-100393095D01*
X159514047Y-100272142D01*
X159453571Y-100030238D01*
X159453571Y-99848809D01*
X159514047Y-99606904D01*
X159574523Y-99485952D01*
X159695476Y-99365000D01*
X159876904Y-99304523D01*
X159997857Y-99304523D01*
X160179285Y-99365000D01*
X160239761Y-99425476D01*
X161751666Y-100574523D02*
X161751666Y-99304523D01*
X162356428Y-99727857D02*
X162356428Y-100574523D01*
X162356428Y-99848809D02*
X162416904Y-99788333D01*
X162537857Y-99727857D01*
X162719285Y-99727857D01*
X162840238Y-99788333D01*
X162900714Y-99909285D01*
X162900714Y-100574523D01*
D17*
X171560000Y-108260000D02*
X173060000Y-108260000D01*
X171560000Y-108260000D02*
X170060000Y-108260000D01*
X171560000Y-105040000D02*
X173060000Y-105040000D01*
X171560000Y-105040000D02*
X168635000Y-105040000D01*
D13*
X177250000Y-119730000D02*
X172250000Y-119730000D01*
X177270000Y-119730000D02*
X177270000Y-122270000D01*
X177250000Y-122285240D02*
X172250000Y-122285240D01*
X172214760Y-122285240D02*
X172214760Y-119724920D01*
D18*
X165380000Y-119270000D02*
X165380000Y-118130000D01*
X167900000Y-119270000D02*
X165400000Y-119270000D01*
X167920000Y-118130000D02*
X167920000Y-119270000D01*
X165400000Y-118130000D02*
X167900000Y-118130000D01*
X164876160Y-133034000D02*
X167376160Y-133034000D01*
X167396160Y-133034000D02*
X167396160Y-134174000D01*
X167376160Y-134174000D02*
X164876160Y-134174000D01*
X164856160Y-134174000D02*
X164856160Y-133034000D01*
X176740000Y-108060000D02*
X175600000Y-108060000D01*
X176740000Y-105540000D02*
X176740000Y-108040000D01*
X175600000Y-105520000D02*
X176740000Y-105520000D01*
X175600000Y-108040000D02*
X175600000Y-105540000D01*
X184051840Y-114260000D02*
X181551840Y-114260000D01*
X181531840Y-114260000D02*
X181531840Y-113120000D01*
X181551840Y-113120000D02*
X184051840Y-113120000D01*
X184071840Y-113120000D02*
X184071840Y-114260000D01*
X177700000Y-114130000D02*
X177700000Y-112990000D01*
X180220000Y-114130000D02*
X177720000Y-114130000D01*
X180240000Y-112990000D02*
X180240000Y-114130000D01*
X177720000Y-112990000D02*
X180220000Y-112990000D01*
X174311840Y-109130000D02*
X176811840Y-109130000D01*
X176811840Y-110270000D02*
X174311840Y-110270000D01*
X174291840Y-110270000D02*
X174291840Y-109130000D01*
X176831840Y-110270000D02*
X176831840Y-109130000D01*
X176771840Y-102820000D02*
X176771840Y-101680000D01*
X174231840Y-102820000D02*
X174231840Y-101680000D01*
X176751840Y-102820000D02*
X174251840Y-102820000D01*
X174251840Y-101680000D02*
X176751840Y-101680000D01*
D13*
X177060000Y-112480000D02*
X169440000Y-112480000D01*
X177060000Y-112480000D02*
X177060000Y-115020000D01*
X177060000Y-115035240D02*
X169440000Y-115035240D01*
X169440000Y-115035240D02*
X169440000Y-112474920D01*
D19*
X183950000Y-107400000D02*
X184775000Y-107400000D01*
X183950000Y-105575000D02*
X183950000Y-107400000D01*
X184750000Y-105575000D02*
X183950000Y-105575000D01*
X184725000Y-101900000D02*
X183925000Y-101900000D01*
X183925000Y-101900000D02*
X183925000Y-103725000D01*
X183925000Y-103725000D02*
X184750000Y-103725000D01*
D20*
X184950000Y-101249880D02*
X178050000Y-101249880D01*
X178050000Y-101249880D02*
X178050000Y-108250120D01*
X178050000Y-108250120D02*
X184950000Y-108250120D01*
X184950000Y-108250120D02*
X184950000Y-101249880D01*
D18*
X153900000Y-122860000D02*
X153900000Y-124000000D01*
X156440000Y-122860000D02*
X156440000Y-124000000D01*
X153920000Y-122860000D02*
X156420000Y-122860000D01*
X156420000Y-124000000D02*
X153920000Y-124000000D01*
X155570000Y-118980000D02*
X154430000Y-118980000D01*
X155570000Y-121520000D02*
X154430000Y-121520000D01*
X155570000Y-119000000D02*
X155570000Y-121500000D01*
X154430000Y-121500000D02*
X154430000Y-119000000D01*
X165980000Y-124180000D02*
X165980000Y-125320000D01*
X168520000Y-124180000D02*
X168520000Y-125320000D01*
X166000000Y-124180000D02*
X168500000Y-124180000D01*
X168500000Y-125320000D02*
X166000000Y-125320000D01*
X165705000Y-122925000D02*
X165705000Y-120425000D01*
X166845000Y-120425000D02*
X166845000Y-122925000D01*
X166845000Y-122945000D02*
X165705000Y-122945000D01*
X166845000Y-120405000D02*
X165705000Y-120405000D01*
X173070000Y-124998160D02*
X173070000Y-127498160D01*
X171930000Y-127498160D02*
X171930000Y-124998160D01*
X171930000Y-124978160D02*
X173070000Y-124978160D01*
X171930000Y-127518160D02*
X173070000Y-127518160D01*
X166644000Y-131256000D02*
X169144000Y-131256000D01*
X169144000Y-132396000D02*
X166644000Y-132396000D01*
X166624000Y-132396000D02*
X166624000Y-131256000D01*
X169164000Y-132396000D02*
X169164000Y-131256000D01*
D10*
X158603553Y-119000000D02*
G75*
G03X158603553Y-119000000I-353553J0D01*
G01*
D19*
X158925000Y-119175000D02*
X158925000Y-119225000D01*
X163075000Y-119175000D02*
X163075000Y-119320000D01*
X163075000Y-124325000D02*
X163075000Y-124180000D01*
X158925000Y-124325000D02*
X158925000Y-124180000D01*
X158925000Y-119175000D02*
X163075000Y-119175000D01*
X158925000Y-124325000D02*
X163075000Y-124325000D01*
D13*
X178910000Y-115930000D02*
X171290000Y-115930000D01*
X178910000Y-115930000D02*
X178910000Y-118470000D01*
X178910000Y-118485240D02*
X171290000Y-118485240D01*
X171290000Y-118485240D02*
X171290000Y-115924920D01*
D18*
X153436000Y-138876000D02*
X155936000Y-138876000D01*
X155956000Y-138876000D02*
X155956000Y-140016000D01*
X155936000Y-140016000D02*
X153436000Y-140016000D01*
X153416000Y-140016000D02*
X153416000Y-138876000D01*
X155204160Y-142432000D02*
X155204160Y-143572000D01*
X152684160Y-142432000D02*
X155184160Y-142432000D01*
X152664160Y-143572000D02*
X152664160Y-142432000D01*
X155184160Y-143572000D02*
X152684160Y-143572000D01*
X168930000Y-144464000D02*
X171430000Y-144464000D01*
X171450000Y-144464000D02*
X171450000Y-145604000D01*
X171430000Y-145604000D02*
X168930000Y-145604000D01*
X168910000Y-145604000D02*
X168910000Y-144464000D01*
X168910000Y-143318000D02*
X168910000Y-142178000D01*
X171430000Y-143318000D02*
X168930000Y-143318000D01*
X171450000Y-142178000D02*
X171450000Y-143318000D01*
X168930000Y-142178000D02*
X171430000Y-142178000D01*
X152630000Y-152070000D02*
X152630000Y-150930000D01*
X155150000Y-152070000D02*
X152650000Y-152070000D01*
X155170000Y-150930000D02*
X155170000Y-152070000D01*
X152650000Y-150930000D02*
X155150000Y-150930000D01*
X155530000Y-150150000D02*
X155530000Y-147650000D01*
X155530000Y-147630000D02*
X156670000Y-147630000D01*
X156670000Y-147650000D02*
X156670000Y-150150000D01*
X156670000Y-150170000D02*
X155530000Y-150170000D01*
D19*
X160964000Y-151872000D02*
X160414000Y-151872000D01*
X160694000Y-151682000D02*
X160694000Y-152082000D01*
D21*
X162714940Y-150721060D02*
X162913060Y-150721060D01*
X162913060Y-150721060D02*
X162913060Y-150522940D01*
X162714940Y-150522940D02*
X162913060Y-150522940D01*
X162714940Y-150721060D02*
X162714940Y-150522940D01*
X163713160Y-151320500D02*
X163713160Y-150124160D01*
X163713160Y-150073360D02*
X163713160Y-149923500D01*
X161914840Y-151320500D02*
X161914840Y-150124160D01*
X161914840Y-150073360D02*
X161914840Y-149923500D01*
D22*
X164363400Y-151371300D02*
X161264600Y-151371300D01*
X161264600Y-151371300D02*
X161264600Y-149872700D01*
X161264600Y-149872700D02*
X164363400Y-149872700D01*
X164363400Y-149872700D02*
X164363400Y-151371300D01*
X162266738Y-151121354D02*
G75*
G03X163362640Y-151119840I547262J499354D01*
G01*
X162265867Y-150123602D02*
G75*
G03X162265360Y-151119840I548133J-498398D01*
G01*
X163361262Y-150122646D02*
G75*
G03X162265360Y-150124160I-547262J-499354D01*
G01*
X163362133Y-151120398D02*
G75*
G03X163362640Y-150124160I-548133J498398D01*
G01*
D18*
X152166000Y-112012000D02*
X153716000Y-112012000D01*
X153716000Y-112012000D02*
X153716000Y-105412000D01*
X153716000Y-105412000D02*
X152191000Y-105412000D01*
D23*
X167365680Y-115214400D02*
X152166320Y-115214400D01*
X152166320Y-115214400D02*
X152166320Y-102209600D01*
X152166320Y-102209600D02*
X167365680Y-102209600D01*
X167365680Y-102209600D02*
X167365680Y-115214400D01*
D19*
X182800000Y-138900000D02*
X181800000Y-138900000D01*
X181800000Y-138900000D02*
X181800000Y-134500000D01*
X181800000Y-134500000D02*
X182800000Y-134500000D01*
D24*
X174500000Y-129080000D02*
X183100000Y-129080000D01*
X183100000Y-129080000D02*
X183100000Y-144320000D01*
X183100000Y-144320000D02*
X174500000Y-144320000D01*
X174500000Y-144320000D02*
X174500000Y-129080000D01*
D13*
X154686000Y-130810000D02*
X162306000Y-130810000D01*
X154686000Y-130810000D02*
X154686000Y-128270000D01*
X154686000Y-128254760D02*
X162306000Y-128254760D01*
X162306000Y-128254760D02*
X162306000Y-130815080D01*
D18*
X181130000Y-148970000D02*
X182270000Y-148970000D01*
X181130000Y-146430000D02*
X182270000Y-146430000D01*
X181130000Y-148950000D02*
X181130000Y-146450000D01*
X182270000Y-146450000D02*
X182270000Y-148950000D01*
X155070000Y-149370000D02*
X155070000Y-148230000D01*
X152530000Y-149370000D02*
X152530000Y-148230000D01*
X155050000Y-149370000D02*
X152550000Y-149370000D01*
X152550000Y-148230000D02*
X155050000Y-148230000D01*
X161795000Y-134131840D02*
X160655000Y-134131840D01*
X161795000Y-136671840D02*
X160655000Y-136671840D01*
X161795000Y-134151840D02*
X161795000Y-136651840D01*
X160655000Y-136651840D02*
X160655000Y-134151840D01*
X158705000Y-137100000D02*
X158705000Y-134600000D01*
X159845000Y-134600000D02*
X159845000Y-137100000D01*
X159845000Y-137120000D02*
X158705000Y-137120000D01*
X159845000Y-134580000D02*
X158705000Y-134580000D01*
X169250000Y-151070000D02*
X166750000Y-151070000D01*
X166750000Y-149930000D02*
X169250000Y-149930000D01*
X169270000Y-149930000D02*
X169270000Y-151070000D01*
X166730000Y-149930000D02*
X166730000Y-151070000D01*
D19*
X158935000Y-139123000D02*
X158935000Y-139348000D01*
X166185000Y-139123000D02*
X166185000Y-139448000D01*
X166185000Y-146373000D02*
X166185000Y-146048000D01*
X158935000Y-146373000D02*
X158935000Y-146048000D01*
X158935000Y-139123000D02*
X159260000Y-139123000D01*
X158935000Y-146373000D02*
X159260000Y-146373000D01*
X166185000Y-146373000D02*
X165860000Y-146373000D01*
X166185000Y-139123000D02*
X165860000Y-139123000D01*
X158935000Y-139348000D02*
X157510000Y-139348000D01*
X155778000Y-146538000D02*
X152578000Y-146538000D01*
X152578000Y-146538000D02*
X152578000Y-144038000D01*
X152578000Y-144038000D02*
X155778000Y-144038000D01*
X155778000Y-144038000D02*
X155778000Y-146538000D01*
D18*
X172446000Y-134682000D02*
X169946000Y-134682000D01*
X169926000Y-134682000D02*
X169926000Y-133542000D01*
X169946000Y-133542000D02*
X172446000Y-133542000D01*
X172466000Y-133542000D02*
X172466000Y-134682000D01*
D19*
X170798095Y-103652380D02*
X170798095Y-104461904D01*
X170845714Y-104557142D01*
X170893333Y-104604761D01*
X170988571Y-104652380D01*
X171179047Y-104652380D01*
X171274285Y-104604761D01*
X171321904Y-104557142D01*
X171369523Y-104461904D01*
X171369523Y-103652380D01*
X171750476Y-103652380D02*
X172369523Y-103652380D01*
X172036190Y-104033333D01*
X172179047Y-104033333D01*
X172274285Y-104080952D01*
X172321904Y-104128571D01*
X172369523Y-104223809D01*
X172369523Y-104461904D01*
X172321904Y-104557142D01*
X172274285Y-104604761D01*
X172179047Y-104652380D01*
X171893333Y-104652380D01*
X171798095Y-104604761D01*
X171750476Y-104557142D01*
D25*
X174369428Y-116985714D02*
X174369428Y-117602571D01*
X174405714Y-117675142D01*
X174442000Y-117711428D01*
X174514571Y-117747714D01*
X174659714Y-117747714D01*
X174732285Y-117711428D01*
X174768571Y-117675142D01*
X174804857Y-117602571D01*
X174804857Y-116985714D01*
X175131428Y-117058285D02*
X175167714Y-117022000D01*
X175240285Y-116985714D01*
X175421714Y-116985714D01*
X175494285Y-117022000D01*
X175530571Y-117058285D01*
X175566857Y-117130857D01*
X175566857Y-117203428D01*
X175530571Y-117312285D01*
X175095142Y-117747714D01*
X175566857Y-117747714D01*
X174083571Y-123894714D02*
X174083571Y-123132714D01*
X174337571Y-123677000D01*
X174591571Y-123132714D01*
X174591571Y-123894714D01*
X174954428Y-123894714D02*
X174954428Y-123132714D01*
X175752714Y-123822142D02*
X175716428Y-123858428D01*
X175607571Y-123894714D01*
X175535000Y-123894714D01*
X175426142Y-123858428D01*
X175353571Y-123785857D01*
X175317285Y-123713285D01*
X175281000Y-123568142D01*
X175281000Y-123459285D01*
X175317285Y-123314142D01*
X175353571Y-123241571D01*
X175426142Y-123169000D01*
X175535000Y-123132714D01*
X175607571Y-123132714D01*
X175716428Y-123169000D01*
X175752714Y-123205285D01*
D19*
X166550000Y-117714285D02*
X166521428Y-117742857D01*
X166435714Y-117771428D01*
X166378571Y-117771428D01*
X166292857Y-117742857D01*
X166235714Y-117685714D01*
X166207142Y-117628571D01*
X166178571Y-117514285D01*
X166178571Y-117428571D01*
X166207142Y-117314285D01*
X166235714Y-117257142D01*
X166292857Y-117200000D01*
X166378571Y-117171428D01*
X166435714Y-117171428D01*
X166521428Y-117200000D01*
X166550000Y-117228571D01*
X167121428Y-117771428D02*
X166778571Y-117771428D01*
X166950000Y-117771428D02*
X166950000Y-117171428D01*
X166892857Y-117257142D01*
X166835714Y-117314285D01*
X166778571Y-117342857D01*
X167333714Y-120102285D02*
X167362285Y-120130857D01*
X167333714Y-120159428D01*
X167305142Y-120130857D01*
X167333714Y-120102285D01*
X167333714Y-120159428D01*
X167933714Y-120159428D02*
X167590857Y-120159428D01*
X167762285Y-120159428D02*
X167762285Y-119559428D01*
X167705142Y-119645142D01*
X167648000Y-119702285D01*
X167590857Y-119730857D01*
X168448000Y-119759428D02*
X168448000Y-120159428D01*
X168190857Y-119759428D02*
X168190857Y-120073714D01*
X168219428Y-120130857D01*
X168276571Y-120159428D01*
X168362285Y-120159428D01*
X168419428Y-120130857D01*
X168448000Y-120102285D01*
X168933714Y-119845142D02*
X168733714Y-119845142D01*
X168733714Y-120159428D02*
X168733714Y-119559428D01*
X169019428Y-119559428D01*
X166026160Y-132618285D02*
X165997588Y-132646857D01*
X165911874Y-132675428D01*
X165854731Y-132675428D01*
X165769017Y-132646857D01*
X165711874Y-132589714D01*
X165683302Y-132532571D01*
X165654731Y-132418285D01*
X165654731Y-132332571D01*
X165683302Y-132218285D01*
X165711874Y-132161142D01*
X165769017Y-132104000D01*
X165854731Y-132075428D01*
X165911874Y-132075428D01*
X165997588Y-132104000D01*
X166026160Y-132132571D01*
X166254731Y-132132571D02*
X166283302Y-132104000D01*
X166340445Y-132075428D01*
X166483302Y-132075428D01*
X166540445Y-132104000D01*
X166569017Y-132132571D01*
X166597588Y-132189714D01*
X166597588Y-132246857D01*
X166569017Y-132332571D01*
X166226160Y-132675428D01*
X166597588Y-132675428D01*
X168019017Y-134125428D02*
X167676160Y-134125428D01*
X167847588Y-134125428D02*
X167847588Y-133525428D01*
X167790445Y-133611142D01*
X167733302Y-133668285D01*
X167676160Y-133696857D01*
X168533302Y-133725428D02*
X168533302Y-134125428D01*
X168276160Y-133725428D02*
X168276160Y-134039714D01*
X168304731Y-134096857D01*
X168361874Y-134125428D01*
X168447588Y-134125428D01*
X168504731Y-134096857D01*
X168533302Y-134068285D01*
X169019017Y-133811142D02*
X168819017Y-133811142D01*
X168819017Y-134125428D02*
X168819017Y-133525428D01*
X169104731Y-133525428D01*
X177814285Y-105200000D02*
X177842857Y-105228571D01*
X177871428Y-105314285D01*
X177871428Y-105371428D01*
X177842857Y-105457142D01*
X177785714Y-105514285D01*
X177728571Y-105542857D01*
X177614285Y-105571428D01*
X177528571Y-105571428D01*
X177414285Y-105542857D01*
X177357142Y-105514285D01*
X177300000Y-105457142D01*
X177271428Y-105371428D01*
X177271428Y-105314285D01*
X177300000Y-105228571D01*
X177328571Y-105200000D01*
X177471428Y-104685714D02*
X177871428Y-104685714D01*
X177242857Y-104828571D02*
X177671428Y-104971428D01*
X177671428Y-104600000D01*
X177741428Y-107147142D02*
X177741428Y-107490000D01*
X177741428Y-107318571D02*
X177141428Y-107318571D01*
X177227142Y-107375714D01*
X177284285Y-107432857D01*
X177312857Y-107490000D01*
X177341428Y-106632857D02*
X177741428Y-106632857D01*
X177341428Y-106890000D02*
X177655714Y-106890000D01*
X177712857Y-106861428D01*
X177741428Y-106804285D01*
X177741428Y-106718571D01*
X177712857Y-106661428D01*
X177684285Y-106632857D01*
X177427142Y-106147142D02*
X177427142Y-106347142D01*
X177741428Y-106347142D02*
X177141428Y-106347142D01*
X177141428Y-106061428D01*
X182701840Y-115104285D02*
X182673268Y-115132857D01*
X182587554Y-115161428D01*
X182530411Y-115161428D01*
X182444697Y-115132857D01*
X182387554Y-115075714D01*
X182358982Y-115018571D01*
X182330411Y-114904285D01*
X182330411Y-114818571D01*
X182358982Y-114704285D01*
X182387554Y-114647142D01*
X182444697Y-114590000D01*
X182530411Y-114561428D01*
X182587554Y-114561428D01*
X182673268Y-114590000D01*
X182701840Y-114618571D01*
X183244697Y-114561428D02*
X182958982Y-114561428D01*
X182930411Y-114847142D01*
X182958982Y-114818571D01*
X183016125Y-114790000D01*
X183158982Y-114790000D01*
X183216125Y-114818571D01*
X183244697Y-114847142D01*
X183273268Y-114904285D01*
X183273268Y-115047142D01*
X183244697Y-115104285D01*
X183216125Y-115132857D01*
X183158982Y-115161428D01*
X183016125Y-115161428D01*
X182958982Y-115132857D01*
X182930411Y-115104285D01*
X180428571Y-115728571D02*
X180457142Y-115700000D01*
X180514285Y-115671428D01*
X180657142Y-115671428D01*
X180714285Y-115700000D01*
X180742857Y-115728571D01*
X180771428Y-115785714D01*
X180771428Y-115842857D01*
X180742857Y-115928571D01*
X180400000Y-116271428D01*
X180771428Y-116271428D01*
X181000000Y-115728571D02*
X181028571Y-115700000D01*
X181085714Y-115671428D01*
X181228571Y-115671428D01*
X181285714Y-115700000D01*
X181314285Y-115728571D01*
X181342857Y-115785714D01*
X181342857Y-115842857D01*
X181314285Y-115928571D01*
X180971428Y-116271428D01*
X181342857Y-116271428D01*
X181714285Y-115671428D02*
X181771428Y-115671428D01*
X181828571Y-115700000D01*
X181857142Y-115728571D01*
X181885714Y-115785714D01*
X181914285Y-115900000D01*
X181914285Y-116042857D01*
X181885714Y-116157142D01*
X181857142Y-116214285D01*
X181828571Y-116242857D01*
X181771428Y-116271428D01*
X181714285Y-116271428D01*
X181657142Y-116242857D01*
X181628571Y-116214285D01*
X181600000Y-116157142D01*
X181571428Y-116042857D01*
X181571428Y-115900000D01*
X181600000Y-115785714D01*
X181628571Y-115728571D01*
X181657142Y-115700000D01*
X181714285Y-115671428D01*
X182171428Y-115871428D02*
X182171428Y-116471428D01*
X182171428Y-115900000D02*
X182228571Y-115871428D01*
X182342857Y-115871428D01*
X182400000Y-115900000D01*
X182428571Y-115928571D01*
X182457142Y-115985714D01*
X182457142Y-116157142D01*
X182428571Y-116214285D01*
X182400000Y-116242857D01*
X182342857Y-116271428D01*
X182228571Y-116271428D01*
X182171428Y-116242857D01*
X182914285Y-115957142D02*
X182714285Y-115957142D01*
X182714285Y-116271428D02*
X182714285Y-115671428D01*
X183000000Y-115671428D01*
X178870000Y-112574285D02*
X178841428Y-112602857D01*
X178755714Y-112631428D01*
X178698571Y-112631428D01*
X178612857Y-112602857D01*
X178555714Y-112545714D01*
X178527142Y-112488571D01*
X178498571Y-112374285D01*
X178498571Y-112288571D01*
X178527142Y-112174285D01*
X178555714Y-112117142D01*
X178612857Y-112060000D01*
X178698571Y-112031428D01*
X178755714Y-112031428D01*
X178841428Y-112060000D01*
X178870000Y-112088571D01*
X179384285Y-112031428D02*
X179270000Y-112031428D01*
X179212857Y-112060000D01*
X179184285Y-112088571D01*
X179127142Y-112174285D01*
X179098571Y-112288571D01*
X179098571Y-112517142D01*
X179127142Y-112574285D01*
X179155714Y-112602857D01*
X179212857Y-112631428D01*
X179327142Y-112631428D01*
X179384285Y-112602857D01*
X179412857Y-112574285D01*
X179441428Y-112517142D01*
X179441428Y-112374285D01*
X179412857Y-112317142D01*
X179384285Y-112288571D01*
X179327142Y-112260000D01*
X179212857Y-112260000D01*
X179155714Y-112288571D01*
X179127142Y-112317142D01*
X179098571Y-112374285D01*
X177698571Y-114588571D02*
X177727142Y-114560000D01*
X177784285Y-114531428D01*
X177927142Y-114531428D01*
X177984285Y-114560000D01*
X178012857Y-114588571D01*
X178041428Y-114645714D01*
X178041428Y-114702857D01*
X178012857Y-114788571D01*
X177670000Y-115131428D01*
X178041428Y-115131428D01*
X178270000Y-114588571D02*
X178298571Y-114560000D01*
X178355714Y-114531428D01*
X178498571Y-114531428D01*
X178555714Y-114560000D01*
X178584285Y-114588571D01*
X178612857Y-114645714D01*
X178612857Y-114702857D01*
X178584285Y-114788571D01*
X178241428Y-115131428D01*
X178612857Y-115131428D01*
X178984285Y-114531428D02*
X179041428Y-114531428D01*
X179098571Y-114560000D01*
X179127142Y-114588571D01*
X179155714Y-114645714D01*
X179184285Y-114760000D01*
X179184285Y-114902857D01*
X179155714Y-115017142D01*
X179127142Y-115074285D01*
X179098571Y-115102857D01*
X179041428Y-115131428D01*
X178984285Y-115131428D01*
X178927142Y-115102857D01*
X178898571Y-115074285D01*
X178870000Y-115017142D01*
X178841428Y-114902857D01*
X178841428Y-114760000D01*
X178870000Y-114645714D01*
X178898571Y-114588571D01*
X178927142Y-114560000D01*
X178984285Y-114531428D01*
X179441428Y-114731428D02*
X179441428Y-115331428D01*
X179441428Y-114760000D02*
X179498571Y-114731428D01*
X179612857Y-114731428D01*
X179670000Y-114760000D01*
X179698571Y-114788571D01*
X179727142Y-114845714D01*
X179727142Y-115017142D01*
X179698571Y-115074285D01*
X179670000Y-115102857D01*
X179612857Y-115131428D01*
X179498571Y-115131428D01*
X179441428Y-115102857D01*
X180184285Y-114817142D02*
X179984285Y-114817142D01*
X179984285Y-115131428D02*
X179984285Y-114531428D01*
X180270000Y-114531428D01*
X175061840Y-110857142D02*
X174861840Y-110857142D01*
X174861840Y-111171428D02*
X174861840Y-110571428D01*
X175147554Y-110571428D01*
X175576125Y-110857142D02*
X175661840Y-110885714D01*
X175690411Y-110914285D01*
X175718982Y-110971428D01*
X175718982Y-111057142D01*
X175690411Y-111114285D01*
X175661840Y-111142857D01*
X175604697Y-111171428D01*
X175376125Y-111171428D01*
X175376125Y-110571428D01*
X175576125Y-110571428D01*
X175633268Y-110600000D01*
X175661840Y-110628571D01*
X175690411Y-110685714D01*
X175690411Y-110742857D01*
X175661840Y-110800000D01*
X175633268Y-110828571D01*
X175576125Y-110857142D01*
X175376125Y-110857142D01*
X176290411Y-111171428D02*
X175947554Y-111171428D01*
X176118982Y-111171428D02*
X176118982Y-110571428D01*
X176061840Y-110657142D01*
X176004697Y-110714285D01*
X175947554Y-110742857D01*
X175001840Y-103407142D02*
X174801840Y-103407142D01*
X174801840Y-103721428D02*
X174801840Y-103121428D01*
X175087554Y-103121428D01*
X175516125Y-103407142D02*
X175601840Y-103435714D01*
X175630411Y-103464285D01*
X175658982Y-103521428D01*
X175658982Y-103607142D01*
X175630411Y-103664285D01*
X175601840Y-103692857D01*
X175544697Y-103721428D01*
X175316125Y-103721428D01*
X175316125Y-103121428D01*
X175516125Y-103121428D01*
X175573268Y-103150000D01*
X175601840Y-103178571D01*
X175630411Y-103235714D01*
X175630411Y-103292857D01*
X175601840Y-103350000D01*
X175573268Y-103378571D01*
X175516125Y-103407142D01*
X175316125Y-103407142D01*
X175887554Y-103178571D02*
X175916125Y-103150000D01*
X175973268Y-103121428D01*
X176116125Y-103121428D01*
X176173268Y-103150000D01*
X176201840Y-103178571D01*
X176230411Y-103235714D01*
X176230411Y-103292857D01*
X176201840Y-103378571D01*
X175858982Y-103721428D01*
X176230411Y-103721428D01*
D25*
X173196000Y-111132714D02*
X173196000Y-111677000D01*
X173159714Y-111785857D01*
X173087142Y-111858428D01*
X172978285Y-111894714D01*
X172905714Y-111894714D01*
X173486285Y-111132714D02*
X173958000Y-111132714D01*
X173704000Y-111423000D01*
X173812857Y-111423000D01*
X173885428Y-111459285D01*
X173921714Y-111495571D01*
X173958000Y-111568142D01*
X173958000Y-111749571D01*
X173921714Y-111822142D01*
X173885428Y-111858428D01*
X173812857Y-111894714D01*
X173595142Y-111894714D01*
X173522571Y-111858428D01*
X173486285Y-111822142D01*
D19*
X155070000Y-122501428D02*
X154870000Y-122215714D01*
X154727142Y-122501428D02*
X154727142Y-121901428D01*
X154955714Y-121901428D01*
X155012857Y-121930000D01*
X155041428Y-121958571D01*
X155070000Y-122015714D01*
X155070000Y-122101428D01*
X155041428Y-122158571D01*
X155012857Y-122187142D01*
X154955714Y-122215714D01*
X154727142Y-122215714D01*
X155641428Y-122501428D02*
X155298571Y-122501428D01*
X155470000Y-122501428D02*
X155470000Y-121901428D01*
X155412857Y-121987142D01*
X155355714Y-122044285D01*
X155298571Y-122072857D01*
X154870000Y-125001428D02*
X154527142Y-125001428D01*
X154698571Y-125001428D02*
X154698571Y-124401428D01*
X154641428Y-124487142D01*
X154584285Y-124544285D01*
X154527142Y-124572857D01*
X155241428Y-124401428D02*
X155298571Y-124401428D01*
X155355714Y-124430000D01*
X155384285Y-124458571D01*
X155412857Y-124515714D01*
X155441428Y-124630000D01*
X155441428Y-124772857D01*
X155412857Y-124887142D01*
X155384285Y-124944285D01*
X155355714Y-124972857D01*
X155298571Y-125001428D01*
X155241428Y-125001428D01*
X155184285Y-124972857D01*
X155155714Y-124944285D01*
X155127142Y-124887142D01*
X155098571Y-124772857D01*
X155098571Y-124630000D01*
X155127142Y-124515714D01*
X155155714Y-124458571D01*
X155184285Y-124430000D01*
X155241428Y-124401428D01*
X155812857Y-124401428D02*
X155870000Y-124401428D01*
X155927142Y-124430000D01*
X155955714Y-124458571D01*
X155984285Y-124515714D01*
X156012857Y-124630000D01*
X156012857Y-124772857D01*
X155984285Y-124887142D01*
X155955714Y-124944285D01*
X155927142Y-124972857D01*
X155870000Y-125001428D01*
X155812857Y-125001428D01*
X155755714Y-124972857D01*
X155727142Y-124944285D01*
X155698571Y-124887142D01*
X155670000Y-124772857D01*
X155670000Y-124630000D01*
X155698571Y-124515714D01*
X155727142Y-124458571D01*
X155755714Y-124430000D01*
X155812857Y-124401428D01*
X156471428Y-120350000D02*
X156185714Y-120550000D01*
X156471428Y-120692857D02*
X155871428Y-120692857D01*
X155871428Y-120464285D01*
X155900000Y-120407142D01*
X155928571Y-120378571D01*
X155985714Y-120350000D01*
X156071428Y-120350000D01*
X156128571Y-120378571D01*
X156157142Y-120407142D01*
X156185714Y-120464285D01*
X156185714Y-120692857D01*
X155928571Y-120121428D02*
X155900000Y-120092857D01*
X155871428Y-120035714D01*
X155871428Y-119892857D01*
X155900000Y-119835714D01*
X155928571Y-119807142D01*
X155985714Y-119778571D01*
X156042857Y-119778571D01*
X156128571Y-119807142D01*
X156471428Y-120150000D01*
X156471428Y-119778571D01*
X153971428Y-120992857D02*
X153971428Y-121335714D01*
X153971428Y-121164285D02*
X153371428Y-121164285D01*
X153457142Y-121221428D01*
X153514285Y-121278571D01*
X153542857Y-121335714D01*
X153371428Y-120621428D02*
X153371428Y-120564285D01*
X153400000Y-120507142D01*
X153428571Y-120478571D01*
X153485714Y-120450000D01*
X153600000Y-120421428D01*
X153742857Y-120421428D01*
X153857142Y-120450000D01*
X153914285Y-120478571D01*
X153942857Y-120507142D01*
X153971428Y-120564285D01*
X153971428Y-120621428D01*
X153942857Y-120678571D01*
X153914285Y-120707142D01*
X153857142Y-120735714D01*
X153742857Y-120764285D01*
X153600000Y-120764285D01*
X153485714Y-120735714D01*
X153428571Y-120707142D01*
X153400000Y-120678571D01*
X153371428Y-120621428D01*
X153371428Y-120050000D02*
X153371428Y-119992857D01*
X153400000Y-119935714D01*
X153428571Y-119907142D01*
X153485714Y-119878571D01*
X153600000Y-119850000D01*
X153742857Y-119850000D01*
X153857142Y-119878571D01*
X153914285Y-119907142D01*
X153942857Y-119935714D01*
X153971428Y-119992857D01*
X153971428Y-120050000D01*
X153942857Y-120107142D01*
X153914285Y-120135714D01*
X153857142Y-120164285D01*
X153742857Y-120192857D01*
X153600000Y-120192857D01*
X153485714Y-120164285D01*
X153428571Y-120135714D01*
X153400000Y-120107142D01*
X153371428Y-120050000D01*
X153971428Y-119592857D02*
X153371428Y-119592857D01*
X153742857Y-119535714D02*
X153971428Y-119364285D01*
X153571428Y-119364285D02*
X153800000Y-119592857D01*
X167150000Y-123821428D02*
X166950000Y-123535714D01*
X166807142Y-123821428D02*
X166807142Y-123221428D01*
X167035714Y-123221428D01*
X167092857Y-123250000D01*
X167121428Y-123278571D01*
X167150000Y-123335714D01*
X167150000Y-123421428D01*
X167121428Y-123478571D01*
X167092857Y-123507142D01*
X167035714Y-123535714D01*
X166807142Y-123535714D01*
X167350000Y-123221428D02*
X167721428Y-123221428D01*
X167521428Y-123450000D01*
X167607142Y-123450000D01*
X167664285Y-123478571D01*
X167692857Y-123507142D01*
X167721428Y-123564285D01*
X167721428Y-123707142D01*
X167692857Y-123764285D01*
X167664285Y-123792857D01*
X167607142Y-123821428D01*
X167435714Y-123821428D01*
X167378571Y-123792857D01*
X167350000Y-123764285D01*
X164542857Y-125371428D02*
X164200000Y-125371428D01*
X164371428Y-125371428D02*
X164371428Y-124771428D01*
X164314285Y-124857142D01*
X164257142Y-124914285D01*
X164200000Y-124942857D01*
X164914285Y-124771428D02*
X164971428Y-124771428D01*
X165028571Y-124800000D01*
X165057142Y-124828571D01*
X165085714Y-124885714D01*
X165114285Y-125000000D01*
X165114285Y-125142857D01*
X165085714Y-125257142D01*
X165057142Y-125314285D01*
X165028571Y-125342857D01*
X164971428Y-125371428D01*
X164914285Y-125371428D01*
X164857142Y-125342857D01*
X164828571Y-125314285D01*
X164800000Y-125257142D01*
X164771428Y-125142857D01*
X164771428Y-125000000D01*
X164800000Y-124885714D01*
X164828571Y-124828571D01*
X164857142Y-124800000D01*
X164914285Y-124771428D01*
X165371428Y-125371428D02*
X165371428Y-124771428D01*
X165428571Y-125142857D02*
X165600000Y-125371428D01*
X165600000Y-124971428D02*
X165371428Y-125200000D01*
X167911428Y-122528000D02*
X167625714Y-122728000D01*
X167911428Y-122870857D02*
X167311428Y-122870857D01*
X167311428Y-122642285D01*
X167340000Y-122585142D01*
X167368571Y-122556571D01*
X167425714Y-122528000D01*
X167511428Y-122528000D01*
X167568571Y-122556571D01*
X167597142Y-122585142D01*
X167625714Y-122642285D01*
X167625714Y-122870857D01*
X167511428Y-122013714D02*
X167911428Y-122013714D01*
X167282857Y-122156571D02*
X167711428Y-122299428D01*
X167711428Y-121928000D01*
X165625428Y-122308857D02*
X165625428Y-122651714D01*
X165625428Y-122480285D02*
X165025428Y-122480285D01*
X165111142Y-122537428D01*
X165168285Y-122594571D01*
X165196857Y-122651714D01*
X165025428Y-121937428D02*
X165025428Y-121880285D01*
X165054000Y-121823142D01*
X165082571Y-121794571D01*
X165139714Y-121766000D01*
X165254000Y-121737428D01*
X165396857Y-121737428D01*
X165511142Y-121766000D01*
X165568285Y-121794571D01*
X165596857Y-121823142D01*
X165625428Y-121880285D01*
X165625428Y-121937428D01*
X165596857Y-121994571D01*
X165568285Y-122023142D01*
X165511142Y-122051714D01*
X165396857Y-122080285D01*
X165254000Y-122080285D01*
X165139714Y-122051714D01*
X165082571Y-122023142D01*
X165054000Y-121994571D01*
X165025428Y-121937428D01*
X165025428Y-121366000D02*
X165025428Y-121308857D01*
X165054000Y-121251714D01*
X165082571Y-121223142D01*
X165139714Y-121194571D01*
X165254000Y-121166000D01*
X165396857Y-121166000D01*
X165511142Y-121194571D01*
X165568285Y-121223142D01*
X165596857Y-121251714D01*
X165625428Y-121308857D01*
X165625428Y-121366000D01*
X165596857Y-121423142D01*
X165568285Y-121451714D01*
X165511142Y-121480285D01*
X165396857Y-121508857D01*
X165254000Y-121508857D01*
X165139714Y-121480285D01*
X165082571Y-121451714D01*
X165054000Y-121423142D01*
X165025428Y-121366000D01*
X165625428Y-120908857D02*
X165025428Y-120908857D01*
X165396857Y-120851714D02*
X165625428Y-120680285D01*
X165225428Y-120680285D02*
X165454000Y-120908857D01*
X173071428Y-128800000D02*
X172785714Y-129000000D01*
X173071428Y-129142857D02*
X172471428Y-129142857D01*
X172471428Y-128914285D01*
X172500000Y-128857142D01*
X172528571Y-128828571D01*
X172585714Y-128800000D01*
X172671428Y-128800000D01*
X172728571Y-128828571D01*
X172757142Y-128857142D01*
X172785714Y-128914285D01*
X172785714Y-129142857D01*
X172471428Y-128257142D02*
X172471428Y-128542857D01*
X172757142Y-128571428D01*
X172728571Y-128542857D01*
X172700000Y-128485714D01*
X172700000Y-128342857D01*
X172728571Y-128285714D01*
X172757142Y-128257142D01*
X172814285Y-128228571D01*
X172957142Y-128228571D01*
X173014285Y-128257142D01*
X173042857Y-128285714D01*
X173071428Y-128342857D01*
X173071428Y-128485714D01*
X173042857Y-128542857D01*
X173014285Y-128571428D01*
X173871428Y-129628571D02*
X173871428Y-129971428D01*
X173871428Y-129800000D02*
X173271428Y-129800000D01*
X173357142Y-129857142D01*
X173414285Y-129914285D01*
X173442857Y-129971428D01*
X173871428Y-129371428D02*
X173271428Y-129371428D01*
X173871428Y-129028571D02*
X173528571Y-129285714D01*
X173271428Y-129028571D02*
X173614285Y-129371428D01*
X167794000Y-133297428D02*
X167594000Y-133011714D01*
X167451142Y-133297428D02*
X167451142Y-132697428D01*
X167679714Y-132697428D01*
X167736857Y-132726000D01*
X167765428Y-132754571D01*
X167794000Y-132811714D01*
X167794000Y-132897428D01*
X167765428Y-132954571D01*
X167736857Y-132983142D01*
X167679714Y-133011714D01*
X167451142Y-133011714D01*
X168308285Y-132697428D02*
X168194000Y-132697428D01*
X168136857Y-132726000D01*
X168108285Y-132754571D01*
X168051142Y-132840285D01*
X168022571Y-132954571D01*
X168022571Y-133183142D01*
X168051142Y-133240285D01*
X168079714Y-133268857D01*
X168136857Y-133297428D01*
X168251142Y-133297428D01*
X168308285Y-133268857D01*
X168336857Y-133240285D01*
X168365428Y-133183142D01*
X168365428Y-133040285D01*
X168336857Y-132983142D01*
X168308285Y-132954571D01*
X168251142Y-132926000D01*
X168136857Y-132926000D01*
X168079714Y-132954571D01*
X168051142Y-132983142D01*
X168022571Y-133040285D01*
X167394000Y-130797428D02*
X167051142Y-130797428D01*
X167222571Y-130797428D02*
X167222571Y-130197428D01*
X167165428Y-130283142D01*
X167108285Y-130340285D01*
X167051142Y-130368857D01*
X167765428Y-130197428D02*
X167822571Y-130197428D01*
X167879714Y-130226000D01*
X167908285Y-130254571D01*
X167936857Y-130311714D01*
X167965428Y-130426000D01*
X167965428Y-130568857D01*
X167936857Y-130683142D01*
X167908285Y-130740285D01*
X167879714Y-130768857D01*
X167822571Y-130797428D01*
X167765428Y-130797428D01*
X167708285Y-130768857D01*
X167679714Y-130740285D01*
X167651142Y-130683142D01*
X167622571Y-130568857D01*
X167622571Y-130426000D01*
X167651142Y-130311714D01*
X167679714Y-130254571D01*
X167708285Y-130226000D01*
X167765428Y-130197428D01*
X168336857Y-130197428D02*
X168394000Y-130197428D01*
X168451142Y-130226000D01*
X168479714Y-130254571D01*
X168508285Y-130311714D01*
X168536857Y-130426000D01*
X168536857Y-130568857D01*
X168508285Y-130683142D01*
X168479714Y-130740285D01*
X168451142Y-130768857D01*
X168394000Y-130797428D01*
X168336857Y-130797428D01*
X168279714Y-130768857D01*
X168251142Y-130740285D01*
X168222571Y-130683142D01*
X168194000Y-130568857D01*
X168194000Y-130426000D01*
X168222571Y-130311714D01*
X168251142Y-130254571D01*
X168279714Y-130226000D01*
X168336857Y-130197428D01*
X162438095Y-124902380D02*
X162438095Y-125711904D01*
X162485714Y-125807142D01*
X162533333Y-125854761D01*
X162628571Y-125902380D01*
X162819047Y-125902380D01*
X162914285Y-125854761D01*
X162961904Y-125807142D01*
X163009523Y-125711904D01*
X163009523Y-124902380D01*
X164009523Y-125902380D02*
X163438095Y-125902380D01*
X163723809Y-125902380D02*
X163723809Y-124902380D01*
X163628571Y-125045238D01*
X163533333Y-125140476D01*
X163438095Y-125188095D01*
D25*
X177846000Y-118882714D02*
X177846000Y-119427000D01*
X177809714Y-119535857D01*
X177737142Y-119608428D01*
X177628285Y-119644714D01*
X177555714Y-119644714D01*
X178136285Y-118882714D02*
X178644285Y-118882714D01*
X178317714Y-119644714D01*
D19*
X154586000Y-138460285D02*
X154557428Y-138488857D01*
X154471714Y-138517428D01*
X154414571Y-138517428D01*
X154328857Y-138488857D01*
X154271714Y-138431714D01*
X154243142Y-138374571D01*
X154214571Y-138260285D01*
X154214571Y-138174571D01*
X154243142Y-138060285D01*
X154271714Y-138003142D01*
X154328857Y-137946000D01*
X154414571Y-137917428D01*
X154471714Y-137917428D01*
X154557428Y-137946000D01*
X154586000Y-137974571D01*
X154786000Y-137917428D02*
X155186000Y-137917428D01*
X154928857Y-138517428D01*
X153700285Y-140417428D02*
X153757428Y-140417428D01*
X153814571Y-140446000D01*
X153843142Y-140474571D01*
X153871714Y-140531714D01*
X153900285Y-140646000D01*
X153900285Y-140788857D01*
X153871714Y-140903142D01*
X153843142Y-140960285D01*
X153814571Y-140988857D01*
X153757428Y-141017428D01*
X153700285Y-141017428D01*
X153643142Y-140988857D01*
X153614571Y-140960285D01*
X153586000Y-140903142D01*
X153557428Y-140788857D01*
X153557428Y-140646000D01*
X153586000Y-140531714D01*
X153614571Y-140474571D01*
X153643142Y-140446000D01*
X153700285Y-140417428D01*
X154157428Y-140960285D02*
X154186000Y-140988857D01*
X154157428Y-141017428D01*
X154128857Y-140988857D01*
X154157428Y-140960285D01*
X154157428Y-141017428D01*
X154757428Y-141017428D02*
X154414571Y-141017428D01*
X154586000Y-141017428D02*
X154586000Y-140417428D01*
X154528857Y-140503142D01*
X154471714Y-140560285D01*
X154414571Y-140588857D01*
X155271714Y-140617428D02*
X155271714Y-141017428D01*
X155014571Y-140617428D02*
X155014571Y-140931714D01*
X155043142Y-140988857D01*
X155100285Y-141017428D01*
X155186000Y-141017428D01*
X155243142Y-140988857D01*
X155271714Y-140960285D01*
X155757428Y-140703142D02*
X155557428Y-140703142D01*
X155557428Y-141017428D02*
X155557428Y-140417428D01*
X155843142Y-140417428D01*
X152600000Y-141014285D02*
X152571428Y-141042857D01*
X152485714Y-141071428D01*
X152428571Y-141071428D01*
X152342857Y-141042857D01*
X152285714Y-140985714D01*
X152257142Y-140928571D01*
X152228571Y-140814285D01*
X152228571Y-140728571D01*
X152257142Y-140614285D01*
X152285714Y-140557142D01*
X152342857Y-140500000D01*
X152428571Y-140471428D01*
X152485714Y-140471428D01*
X152571428Y-140500000D01*
X152600000Y-140528571D01*
X152942857Y-140728571D02*
X152885714Y-140700000D01*
X152857142Y-140671428D01*
X152828571Y-140614285D01*
X152828571Y-140585714D01*
X152857142Y-140528571D01*
X152885714Y-140500000D01*
X152942857Y-140471428D01*
X153057142Y-140471428D01*
X153114285Y-140500000D01*
X153142857Y-140528571D01*
X153171428Y-140585714D01*
X153171428Y-140614285D01*
X153142857Y-140671428D01*
X153114285Y-140700000D01*
X153057142Y-140728571D01*
X152942857Y-140728571D01*
X152885714Y-140757142D01*
X152857142Y-140785714D01*
X152828571Y-140842857D01*
X152828571Y-140957142D01*
X152857142Y-141014285D01*
X152885714Y-141042857D01*
X152942857Y-141071428D01*
X153057142Y-141071428D01*
X153114285Y-141042857D01*
X153142857Y-141014285D01*
X153171428Y-140957142D01*
X153171428Y-140842857D01*
X153142857Y-140785714D01*
X153114285Y-140757142D01*
X153057142Y-140728571D01*
X152948445Y-141373428D02*
X153005588Y-141373428D01*
X153062731Y-141402000D01*
X153091302Y-141430571D01*
X153119874Y-141487714D01*
X153148445Y-141602000D01*
X153148445Y-141744857D01*
X153119874Y-141859142D01*
X153091302Y-141916285D01*
X153062731Y-141944857D01*
X153005588Y-141973428D01*
X152948445Y-141973428D01*
X152891302Y-141944857D01*
X152862731Y-141916285D01*
X152834160Y-141859142D01*
X152805588Y-141744857D01*
X152805588Y-141602000D01*
X152834160Y-141487714D01*
X152862731Y-141430571D01*
X152891302Y-141402000D01*
X152948445Y-141373428D01*
X153405588Y-141916285D02*
X153434160Y-141944857D01*
X153405588Y-141973428D01*
X153377017Y-141944857D01*
X153405588Y-141916285D01*
X153405588Y-141973428D01*
X154005588Y-141973428D02*
X153662731Y-141973428D01*
X153834160Y-141973428D02*
X153834160Y-141373428D01*
X153777017Y-141459142D01*
X153719874Y-141516285D01*
X153662731Y-141544857D01*
X154519874Y-141573428D02*
X154519874Y-141973428D01*
X154262731Y-141573428D02*
X154262731Y-141887714D01*
X154291302Y-141944857D01*
X154348445Y-141973428D01*
X154434160Y-141973428D01*
X154491302Y-141944857D01*
X154519874Y-141916285D01*
X155005588Y-141659142D02*
X154805588Y-141659142D01*
X154805588Y-141973428D02*
X154805588Y-141373428D01*
X155091302Y-141373428D01*
X172100000Y-145314285D02*
X172071428Y-145342857D01*
X171985714Y-145371428D01*
X171928571Y-145371428D01*
X171842857Y-145342857D01*
X171785714Y-145285714D01*
X171757142Y-145228571D01*
X171728571Y-145114285D01*
X171728571Y-145028571D01*
X171757142Y-144914285D01*
X171785714Y-144857142D01*
X171842857Y-144800000D01*
X171928571Y-144771428D01*
X171985714Y-144771428D01*
X172071428Y-144800000D01*
X172100000Y-144828571D01*
X172385714Y-145371428D02*
X172500000Y-145371428D01*
X172557142Y-145342857D01*
X172585714Y-145314285D01*
X172642857Y-145228571D01*
X172671428Y-145114285D01*
X172671428Y-144885714D01*
X172642857Y-144828571D01*
X172614285Y-144800000D01*
X172557142Y-144771428D01*
X172442857Y-144771428D01*
X172385714Y-144800000D01*
X172357142Y-144828571D01*
X172328571Y-144885714D01*
X172328571Y-145028571D01*
X172357142Y-145085714D01*
X172385714Y-145114285D01*
X172442857Y-145142857D01*
X172557142Y-145142857D01*
X172614285Y-145114285D01*
X172642857Y-145085714D01*
X172671428Y-145028571D01*
X169194285Y-146005428D02*
X169251428Y-146005428D01*
X169308571Y-146034000D01*
X169337142Y-146062571D01*
X169365714Y-146119714D01*
X169394285Y-146234000D01*
X169394285Y-146376857D01*
X169365714Y-146491142D01*
X169337142Y-146548285D01*
X169308571Y-146576857D01*
X169251428Y-146605428D01*
X169194285Y-146605428D01*
X169137142Y-146576857D01*
X169108571Y-146548285D01*
X169080000Y-146491142D01*
X169051428Y-146376857D01*
X169051428Y-146234000D01*
X169080000Y-146119714D01*
X169108571Y-146062571D01*
X169137142Y-146034000D01*
X169194285Y-146005428D01*
X169651428Y-146548285D02*
X169680000Y-146576857D01*
X169651428Y-146605428D01*
X169622857Y-146576857D01*
X169651428Y-146548285D01*
X169651428Y-146605428D01*
X170251428Y-146605428D02*
X169908571Y-146605428D01*
X170080000Y-146605428D02*
X170080000Y-146005428D01*
X170022857Y-146091142D01*
X169965714Y-146148285D01*
X169908571Y-146176857D01*
X170765714Y-146205428D02*
X170765714Y-146605428D01*
X170508571Y-146205428D02*
X170508571Y-146519714D01*
X170537142Y-146576857D01*
X170594285Y-146605428D01*
X170680000Y-146605428D01*
X170737142Y-146576857D01*
X170765714Y-146548285D01*
X171251428Y-146291142D02*
X171051428Y-146291142D01*
X171051428Y-146605428D02*
X171051428Y-146005428D01*
X171337142Y-146005428D01*
X169794285Y-141762285D02*
X169765714Y-141790857D01*
X169680000Y-141819428D01*
X169622857Y-141819428D01*
X169537142Y-141790857D01*
X169480000Y-141733714D01*
X169451428Y-141676571D01*
X169422857Y-141562285D01*
X169422857Y-141476571D01*
X169451428Y-141362285D01*
X169480000Y-141305142D01*
X169537142Y-141248000D01*
X169622857Y-141219428D01*
X169680000Y-141219428D01*
X169765714Y-141248000D01*
X169794285Y-141276571D01*
X170365714Y-141819428D02*
X170022857Y-141819428D01*
X170194285Y-141819428D02*
X170194285Y-141219428D01*
X170137142Y-141305142D01*
X170080000Y-141362285D01*
X170022857Y-141390857D01*
X170737142Y-141219428D02*
X170794285Y-141219428D01*
X170851428Y-141248000D01*
X170880000Y-141276571D01*
X170908571Y-141333714D01*
X170937142Y-141448000D01*
X170937142Y-141590857D01*
X170908571Y-141705142D01*
X170880000Y-141762285D01*
X170851428Y-141790857D01*
X170794285Y-141819428D01*
X170737142Y-141819428D01*
X170680000Y-141790857D01*
X170651428Y-141762285D01*
X170622857Y-141705142D01*
X170594285Y-141590857D01*
X170594285Y-141448000D01*
X170622857Y-141333714D01*
X170651428Y-141276571D01*
X170680000Y-141248000D01*
X170737142Y-141219428D01*
X171814285Y-142371428D02*
X171871428Y-142371428D01*
X171928571Y-142400000D01*
X171957142Y-142428571D01*
X171985714Y-142485714D01*
X172014285Y-142600000D01*
X172014285Y-142742857D01*
X171985714Y-142857142D01*
X171957142Y-142914285D01*
X171928571Y-142942857D01*
X171871428Y-142971428D01*
X171814285Y-142971428D01*
X171757142Y-142942857D01*
X171728571Y-142914285D01*
X171700000Y-142857142D01*
X171671428Y-142742857D01*
X171671428Y-142600000D01*
X171700000Y-142485714D01*
X171728571Y-142428571D01*
X171757142Y-142400000D01*
X171814285Y-142371428D01*
X172271428Y-142914285D02*
X172300000Y-142942857D01*
X172271428Y-142971428D01*
X172242857Y-142942857D01*
X172271428Y-142914285D01*
X172271428Y-142971428D01*
X172871428Y-142971428D02*
X172528571Y-142971428D01*
X172700000Y-142971428D02*
X172700000Y-142371428D01*
X172642857Y-142457142D01*
X172585714Y-142514285D01*
X172528571Y-142542857D01*
X173385714Y-142571428D02*
X173385714Y-142971428D01*
X173128571Y-142571428D02*
X173128571Y-142885714D01*
X173157142Y-142942857D01*
X173214285Y-142971428D01*
X173300000Y-142971428D01*
X173357142Y-142942857D01*
X173385714Y-142914285D01*
X173871428Y-142657142D02*
X173671428Y-142657142D01*
X173671428Y-142971428D02*
X173671428Y-142371428D01*
X173957142Y-142371428D01*
X156078285Y-151598285D02*
X156049714Y-151626857D01*
X155964000Y-151655428D01*
X155906857Y-151655428D01*
X155821142Y-151626857D01*
X155764000Y-151569714D01*
X155735428Y-151512571D01*
X155706857Y-151398285D01*
X155706857Y-151312571D01*
X155735428Y-151198285D01*
X155764000Y-151141142D01*
X155821142Y-151084000D01*
X155906857Y-151055428D01*
X155964000Y-151055428D01*
X156049714Y-151084000D01*
X156078285Y-151112571D01*
X156649714Y-151655428D02*
X156306857Y-151655428D01*
X156478285Y-151655428D02*
X156478285Y-151055428D01*
X156421142Y-151141142D01*
X156364000Y-151198285D01*
X156306857Y-151226857D01*
X157221142Y-151655428D02*
X156878285Y-151655428D01*
X157049714Y-151655428D02*
X157049714Y-151055428D01*
X156992571Y-151141142D01*
X156935428Y-151198285D01*
X156878285Y-151226857D01*
X155567142Y-152671428D02*
X155224285Y-152671428D01*
X155395714Y-152671428D02*
X155395714Y-152071428D01*
X155338571Y-152157142D01*
X155281428Y-152214285D01*
X155224285Y-152242857D01*
X156081428Y-152071428D02*
X155967142Y-152071428D01*
X155910000Y-152100000D01*
X155881428Y-152128571D01*
X155824285Y-152214285D01*
X155795714Y-152328571D01*
X155795714Y-152557142D01*
X155824285Y-152614285D01*
X155852857Y-152642857D01*
X155910000Y-152671428D01*
X156024285Y-152671428D01*
X156081428Y-152642857D01*
X156110000Y-152614285D01*
X156138571Y-152557142D01*
X156138571Y-152414285D01*
X156110000Y-152357142D01*
X156081428Y-152328571D01*
X156024285Y-152300000D01*
X155910000Y-152300000D01*
X155852857Y-152328571D01*
X155824285Y-152357142D01*
X155795714Y-152414285D01*
X156395714Y-152271428D02*
X156395714Y-152871428D01*
X156395714Y-152300000D02*
X156452857Y-152271428D01*
X156567142Y-152271428D01*
X156624285Y-152300000D01*
X156652857Y-152328571D01*
X156681428Y-152385714D01*
X156681428Y-152557142D01*
X156652857Y-152614285D01*
X156624285Y-152642857D01*
X156567142Y-152671428D01*
X156452857Y-152671428D01*
X156395714Y-152642857D01*
X157138571Y-152357142D02*
X156938571Y-152357142D01*
X156938571Y-152671428D02*
X156938571Y-152071428D01*
X157224285Y-152071428D01*
X158710285Y-149483714D02*
X158738857Y-149512285D01*
X158767428Y-149598000D01*
X158767428Y-149655142D01*
X158738857Y-149740857D01*
X158681714Y-149798000D01*
X158624571Y-149826571D01*
X158510285Y-149855142D01*
X158424571Y-149855142D01*
X158310285Y-149826571D01*
X158253142Y-149798000D01*
X158196000Y-149740857D01*
X158167428Y-149655142D01*
X158167428Y-149598000D01*
X158196000Y-149512285D01*
X158224571Y-149483714D01*
X158767428Y-148912285D02*
X158767428Y-149255142D01*
X158767428Y-149083714D02*
X158167428Y-149083714D01*
X158253142Y-149140857D01*
X158310285Y-149198000D01*
X158338857Y-149255142D01*
X158224571Y-148683714D02*
X158196000Y-148655142D01*
X158167428Y-148598000D01*
X158167428Y-148455142D01*
X158196000Y-148398000D01*
X158224571Y-148369428D01*
X158281714Y-148340857D01*
X158338857Y-148340857D01*
X158424571Y-148369428D01*
X158767428Y-148712285D01*
X158767428Y-148340857D01*
X157671428Y-149542857D02*
X157671428Y-149885714D01*
X157671428Y-149714285D02*
X157071428Y-149714285D01*
X157157142Y-149771428D01*
X157214285Y-149828571D01*
X157242857Y-149885714D01*
X157071428Y-149028571D02*
X157071428Y-149142857D01*
X157100000Y-149200000D01*
X157128571Y-149228571D01*
X157214285Y-149285714D01*
X157328571Y-149314285D01*
X157557142Y-149314285D01*
X157614285Y-149285714D01*
X157642857Y-149257142D01*
X157671428Y-149200000D01*
X157671428Y-149085714D01*
X157642857Y-149028571D01*
X157614285Y-149000000D01*
X157557142Y-148971428D01*
X157414285Y-148971428D01*
X157357142Y-149000000D01*
X157328571Y-149028571D01*
X157300000Y-149085714D01*
X157300000Y-149200000D01*
X157328571Y-149257142D01*
X157357142Y-149285714D01*
X157414285Y-149314285D01*
X157271428Y-148714285D02*
X157871428Y-148714285D01*
X157300000Y-148714285D02*
X157271428Y-148657142D01*
X157271428Y-148542857D01*
X157300000Y-148485714D01*
X157328571Y-148457142D01*
X157385714Y-148428571D01*
X157557142Y-148428571D01*
X157614285Y-148457142D01*
X157642857Y-148485714D01*
X157671428Y-148542857D01*
X157671428Y-148657142D01*
X157642857Y-148714285D01*
X157357142Y-147971428D02*
X157357142Y-148171428D01*
X157671428Y-148171428D02*
X157071428Y-148171428D01*
X157071428Y-147885714D01*
D26*
X162505571Y-149442714D02*
X162505571Y-148680714D01*
X162687000Y-148680714D01*
X162795857Y-148717000D01*
X162868428Y-148789571D01*
X162904714Y-148862142D01*
X162941000Y-149007285D01*
X162941000Y-149116142D01*
X162904714Y-149261285D01*
X162868428Y-149333857D01*
X162795857Y-149406428D01*
X162687000Y-149442714D01*
X162505571Y-149442714D01*
X163666714Y-149442714D02*
X163231285Y-149442714D01*
X163449000Y-149442714D02*
X163449000Y-148680714D01*
X163376428Y-148789571D01*
X163303857Y-148862142D01*
X163231285Y-148898428D01*
X162324142Y-152490714D02*
X161961285Y-152490714D01*
X161961285Y-151728714D01*
X162578142Y-152091571D02*
X162832142Y-152091571D01*
X162941000Y-152490714D02*
X162578142Y-152490714D01*
X162578142Y-151728714D01*
X162941000Y-151728714D01*
X163267571Y-152490714D02*
X163267571Y-151728714D01*
X163449000Y-151728714D01*
X163557857Y-151765000D01*
X163630428Y-151837571D01*
X163666714Y-151910142D01*
X163703000Y-152055285D01*
X163703000Y-152164142D01*
X163666714Y-152309285D01*
X163630428Y-152381857D01*
X163557857Y-152454428D01*
X163449000Y-152490714D01*
X163267571Y-152490714D01*
D16*
X159100520Y-116035908D02*
X159100520Y-117124480D01*
X159027948Y-117342194D01*
X158882805Y-117487337D01*
X158665091Y-117559908D01*
X158519948Y-117559908D01*
X159753662Y-116181051D02*
X159826234Y-116108480D01*
X159971377Y-116035908D01*
X160334234Y-116035908D01*
X160479377Y-116108480D01*
X160551948Y-116181051D01*
X160624520Y-116326194D01*
X160624520Y-116471337D01*
X160551948Y-116689051D01*
X159681091Y-117559908D01*
X160624520Y-117559908D01*
X171996428Y-136827000D02*
X173085000Y-136827000D01*
X173302714Y-136899571D01*
X173447857Y-137044714D01*
X173520428Y-137262428D01*
X173520428Y-137407571D01*
X172504428Y-135448142D02*
X173520428Y-135448142D01*
X171923857Y-135811000D02*
X173012428Y-136173857D01*
X173012428Y-135230428D01*
X185089428Y-141072857D02*
X183565428Y-141072857D01*
X185089428Y-140347142D02*
X183565428Y-140347142D01*
X183565428Y-139984285D01*
X183638000Y-139766571D01*
X183783142Y-139621428D01*
X183928285Y-139548857D01*
X184218571Y-139476285D01*
X184436285Y-139476285D01*
X184726571Y-139548857D01*
X184871714Y-139621428D01*
X185016857Y-139766571D01*
X185089428Y-139984285D01*
X185089428Y-140347142D01*
X184944285Y-137952285D02*
X185016857Y-138024857D01*
X185089428Y-138242571D01*
X185089428Y-138387714D01*
X185016857Y-138605428D01*
X184871714Y-138750571D01*
X184726571Y-138823142D01*
X184436285Y-138895714D01*
X184218571Y-138895714D01*
X183928285Y-138823142D01*
X183783142Y-138750571D01*
X183638000Y-138605428D01*
X183565428Y-138387714D01*
X183565428Y-138242571D01*
X183638000Y-138024857D01*
X183710571Y-137952285D01*
X185234571Y-137662000D02*
X185234571Y-136500857D01*
X183565428Y-136283142D02*
X183565428Y-135339714D01*
X184146000Y-135847714D01*
X184146000Y-135630000D01*
X184218571Y-135484857D01*
X184291142Y-135412285D01*
X184436285Y-135339714D01*
X184799142Y-135339714D01*
X184944285Y-135412285D01*
X185016857Y-135484857D01*
X185089428Y-135630000D01*
X185089428Y-136065428D01*
X185016857Y-136210571D01*
X184944285Y-136283142D01*
X185089428Y-134831714D02*
X184073428Y-134033428D01*
X184073428Y-134831714D02*
X185089428Y-134033428D01*
X183710571Y-133525428D02*
X183638000Y-133452857D01*
X183565428Y-133307714D01*
X183565428Y-132944857D01*
X183638000Y-132799714D01*
X183710571Y-132727142D01*
X183855714Y-132654571D01*
X184000857Y-132654571D01*
X184218571Y-132727142D01*
X185089428Y-133598000D01*
X185089428Y-132654571D01*
D25*
X163046000Y-128982714D02*
X163046000Y-129527000D01*
X163009714Y-129635857D01*
X162937142Y-129708428D01*
X162828285Y-129744714D01*
X162755714Y-129744714D01*
X163771714Y-128982714D02*
X163408857Y-128982714D01*
X163372571Y-129345571D01*
X163408857Y-129309285D01*
X163481428Y-129273000D01*
X163662857Y-129273000D01*
X163735428Y-129309285D01*
X163771714Y-129345571D01*
X163808000Y-129418142D01*
X163808000Y-129599571D01*
X163771714Y-129672142D01*
X163735428Y-129708428D01*
X163662857Y-129744714D01*
X163481428Y-129744714D01*
X163408857Y-129708428D01*
X163372571Y-129672142D01*
X154821428Y-127484714D02*
X154821428Y-126722714D01*
X154821428Y-127085571D02*
X155256857Y-127085571D01*
X155256857Y-127484714D02*
X155256857Y-126722714D01*
X155619714Y-127085571D02*
X155873714Y-127085571D01*
X155982571Y-127484714D02*
X155619714Y-127484714D01*
X155619714Y-126722714D01*
X155982571Y-126722714D01*
X156272857Y-127267000D02*
X156635714Y-127267000D01*
X156200285Y-127484714D02*
X156454285Y-126722714D01*
X156708285Y-127484714D01*
X156962285Y-127484714D02*
X156962285Y-126722714D01*
X157143714Y-126722714D01*
X157252571Y-126759000D01*
X157325142Y-126831571D01*
X157361428Y-126904142D01*
X157397714Y-127049285D01*
X157397714Y-127158142D01*
X157361428Y-127303285D01*
X157325142Y-127375857D01*
X157252571Y-127448428D01*
X157143714Y-127484714D01*
X156962285Y-127484714D01*
X157724285Y-127085571D02*
X157978285Y-127085571D01*
X158087142Y-127484714D02*
X157724285Y-127484714D01*
X157724285Y-126722714D01*
X158087142Y-126722714D01*
X158849142Y-127484714D02*
X158595142Y-127121857D01*
X158413714Y-127484714D02*
X158413714Y-126722714D01*
X158704000Y-126722714D01*
X158776571Y-126759000D01*
X158812857Y-126795285D01*
X158849142Y-126867857D01*
X158849142Y-126976714D01*
X158812857Y-127049285D01*
X158776571Y-127085571D01*
X158704000Y-127121857D01*
X158413714Y-127121857D01*
X158994285Y-127557285D02*
X159574857Y-127557285D01*
X159683714Y-126722714D02*
X160155428Y-126722714D01*
X159901428Y-127013000D01*
X160010285Y-127013000D01*
X160082857Y-127049285D01*
X160119142Y-127085571D01*
X160155428Y-127158142D01*
X160155428Y-127339571D01*
X160119142Y-127412142D01*
X160082857Y-127448428D01*
X160010285Y-127484714D01*
X159792571Y-127484714D01*
X159720000Y-127448428D01*
X159683714Y-127412142D01*
X160409428Y-126722714D02*
X160917428Y-127484714D01*
X160917428Y-126722714D02*
X160409428Y-127484714D01*
X161606857Y-127484714D02*
X161171428Y-127484714D01*
X161389142Y-127484714D02*
X161389142Y-126722714D01*
X161316571Y-126831571D01*
X161244000Y-126904142D01*
X161171428Y-126940428D01*
D19*
X180771428Y-147800000D02*
X180485714Y-148000000D01*
X180771428Y-148142857D02*
X180171428Y-148142857D01*
X180171428Y-147914285D01*
X180200000Y-147857142D01*
X180228571Y-147828571D01*
X180285714Y-147800000D01*
X180371428Y-147800000D01*
X180428571Y-147828571D01*
X180457142Y-147857142D01*
X180485714Y-147914285D01*
X180485714Y-148142857D01*
X180171428Y-147600000D02*
X180171428Y-147200000D01*
X180771428Y-147457142D01*
X183271428Y-147957142D02*
X183271428Y-148300000D01*
X183271428Y-148128571D02*
X182671428Y-148128571D01*
X182757142Y-148185714D01*
X182814285Y-148242857D01*
X182842857Y-148300000D01*
X182671428Y-147585714D02*
X182671428Y-147528571D01*
X182700000Y-147471428D01*
X182728571Y-147442857D01*
X182785714Y-147414285D01*
X182900000Y-147385714D01*
X183042857Y-147385714D01*
X183157142Y-147414285D01*
X183214285Y-147442857D01*
X183242857Y-147471428D01*
X183271428Y-147528571D01*
X183271428Y-147585714D01*
X183242857Y-147642857D01*
X183214285Y-147671428D01*
X183157142Y-147700000D01*
X183042857Y-147728571D01*
X182900000Y-147728571D01*
X182785714Y-147700000D01*
X182728571Y-147671428D01*
X182700000Y-147642857D01*
X182671428Y-147585714D01*
X183271428Y-147128571D02*
X182671428Y-147128571D01*
X183042857Y-147071428D02*
X183271428Y-146900000D01*
X182871428Y-146900000D02*
X183100000Y-147128571D01*
X152800000Y-150171428D02*
X152600000Y-149885714D01*
X152457142Y-150171428D02*
X152457142Y-149571428D01*
X152685714Y-149571428D01*
X152742857Y-149600000D01*
X152771428Y-149628571D01*
X152800000Y-149685714D01*
X152800000Y-149771428D01*
X152771428Y-149828571D01*
X152742857Y-149857142D01*
X152685714Y-149885714D01*
X152457142Y-149885714D01*
X153142857Y-149828571D02*
X153085714Y-149800000D01*
X153057142Y-149771428D01*
X153028571Y-149714285D01*
X153028571Y-149685714D01*
X153057142Y-149628571D01*
X153085714Y-149600000D01*
X153142857Y-149571428D01*
X153257142Y-149571428D01*
X153314285Y-149600000D01*
X153342857Y-149628571D01*
X153371428Y-149685714D01*
X153371428Y-149714285D01*
X153342857Y-149771428D01*
X153314285Y-149800000D01*
X153257142Y-149828571D01*
X153142857Y-149828571D01*
X153085714Y-149857142D01*
X153057142Y-149885714D01*
X153028571Y-149942857D01*
X153028571Y-150057142D01*
X153057142Y-150114285D01*
X153085714Y-150142857D01*
X153142857Y-150171428D01*
X153257142Y-150171428D01*
X153314285Y-150142857D01*
X153342857Y-150114285D01*
X153371428Y-150057142D01*
X153371428Y-149942857D01*
X153342857Y-149885714D01*
X153314285Y-149857142D01*
X153257142Y-149828571D01*
X153528571Y-147771428D02*
X153185714Y-147771428D01*
X153357142Y-147771428D02*
X153357142Y-147171428D01*
X153300000Y-147257142D01*
X153242857Y-147314285D01*
X153185714Y-147342857D01*
X153785714Y-147771428D02*
X153785714Y-147171428D01*
X153985714Y-147600000D01*
X154185714Y-147171428D01*
X154185714Y-147771428D01*
X162696428Y-135501840D02*
X162410714Y-135701840D01*
X162696428Y-135844697D02*
X162096428Y-135844697D01*
X162096428Y-135616125D01*
X162125000Y-135558982D01*
X162153571Y-135530411D01*
X162210714Y-135501840D01*
X162296428Y-135501840D01*
X162353571Y-135530411D01*
X162382142Y-135558982D01*
X162410714Y-135616125D01*
X162410714Y-135844697D01*
X162696428Y-135216125D02*
X162696428Y-135101840D01*
X162667857Y-135044697D01*
X162639285Y-135016125D01*
X162553571Y-134958982D01*
X162439285Y-134930411D01*
X162210714Y-134930411D01*
X162153571Y-134958982D01*
X162125000Y-134987554D01*
X162096428Y-135044697D01*
X162096428Y-135158982D01*
X162125000Y-135216125D01*
X162153571Y-135244697D01*
X162210714Y-135273268D01*
X162353571Y-135273268D01*
X162410714Y-135244697D01*
X162439285Y-135216125D01*
X162467857Y-135158982D01*
X162467857Y-135044697D01*
X162439285Y-134987554D01*
X162410714Y-134958982D01*
X162353571Y-134930411D01*
X160196428Y-135573268D02*
X160196428Y-135916125D01*
X160196428Y-135744697D02*
X159596428Y-135744697D01*
X159682142Y-135801840D01*
X159739285Y-135858982D01*
X159767857Y-135916125D01*
X160196428Y-135316125D02*
X159596428Y-135316125D01*
X159967857Y-135258982D02*
X160196428Y-135087554D01*
X159796428Y-135087554D02*
X160025000Y-135316125D01*
X160746428Y-136235714D02*
X160460714Y-136435714D01*
X160746428Y-136578571D02*
X160146428Y-136578571D01*
X160146428Y-136350000D01*
X160175000Y-136292857D01*
X160203571Y-136264285D01*
X160260714Y-136235714D01*
X160346428Y-136235714D01*
X160403571Y-136264285D01*
X160432142Y-136292857D01*
X160460714Y-136350000D01*
X160460714Y-136578571D01*
X160746428Y-135664285D02*
X160746428Y-136007142D01*
X160746428Y-135835714D02*
X160146428Y-135835714D01*
X160232142Y-135892857D01*
X160289285Y-135950000D01*
X160317857Y-136007142D01*
X160146428Y-135292857D02*
X160146428Y-135235714D01*
X160175000Y-135178571D01*
X160203571Y-135150000D01*
X160260714Y-135121428D01*
X160375000Y-135092857D01*
X160517857Y-135092857D01*
X160632142Y-135121428D01*
X160689285Y-135150000D01*
X160717857Y-135178571D01*
X160746428Y-135235714D01*
X160746428Y-135292857D01*
X160717857Y-135350000D01*
X160689285Y-135378571D01*
X160632142Y-135407142D01*
X160517857Y-135435714D01*
X160375000Y-135435714D01*
X160260714Y-135407142D01*
X160203571Y-135378571D01*
X160175000Y-135350000D01*
X160146428Y-135292857D01*
X158246428Y-136021428D02*
X158246428Y-136364285D01*
X158246428Y-136192857D02*
X157646428Y-136192857D01*
X157732142Y-136250000D01*
X157789285Y-136307142D01*
X157817857Y-136364285D01*
X158246428Y-135764285D02*
X157646428Y-135764285D01*
X158017857Y-135707142D02*
X158246428Y-135535714D01*
X157846428Y-135535714D02*
X158075000Y-135764285D01*
X167614285Y-149571428D02*
X167414285Y-149285714D01*
X167271428Y-149571428D02*
X167271428Y-148971428D01*
X167500000Y-148971428D01*
X167557142Y-149000000D01*
X167585714Y-149028571D01*
X167614285Y-149085714D01*
X167614285Y-149171428D01*
X167585714Y-149228571D01*
X167557142Y-149257142D01*
X167500000Y-149285714D01*
X167271428Y-149285714D01*
X168185714Y-149571428D02*
X167842857Y-149571428D01*
X168014285Y-149571428D02*
X168014285Y-148971428D01*
X167957142Y-149057142D01*
X167900000Y-149114285D01*
X167842857Y-149142857D01*
X168757142Y-149571428D02*
X168414285Y-149571428D01*
X168585714Y-149571428D02*
X168585714Y-148971428D01*
X168528571Y-149057142D01*
X168471428Y-149114285D01*
X168414285Y-149142857D01*
X167357142Y-151528571D02*
X167385714Y-151500000D01*
X167442857Y-151471428D01*
X167585714Y-151471428D01*
X167642857Y-151500000D01*
X167671428Y-151528571D01*
X167700000Y-151585714D01*
X167700000Y-151642857D01*
X167671428Y-151728571D01*
X167328571Y-152071428D01*
X167700000Y-152071428D01*
X168242857Y-151471428D02*
X167957142Y-151471428D01*
X167928571Y-151757142D01*
X167957142Y-151728571D01*
X168014285Y-151700000D01*
X168157142Y-151700000D01*
X168214285Y-151728571D01*
X168242857Y-151757142D01*
X168271428Y-151814285D01*
X168271428Y-151957142D01*
X168242857Y-152014285D01*
X168214285Y-152042857D01*
X168157142Y-152071428D01*
X168014285Y-152071428D01*
X167957142Y-152042857D01*
X167928571Y-152014285D01*
X168642857Y-151471428D02*
X168700000Y-151471428D01*
X168757142Y-151500000D01*
X168785714Y-151528571D01*
X168814285Y-151585714D01*
X168842857Y-151700000D01*
X168842857Y-151842857D01*
X168814285Y-151957142D01*
X168785714Y-152014285D01*
X168757142Y-152042857D01*
X168700000Y-152071428D01*
X168642857Y-152071428D01*
X168585714Y-152042857D01*
X168557142Y-152014285D01*
X168528571Y-151957142D01*
X168500000Y-151842857D01*
X168500000Y-151700000D01*
X168528571Y-151585714D01*
X168557142Y-151528571D01*
X168585714Y-151500000D01*
X168642857Y-151471428D01*
X161798095Y-136150380D02*
X161798095Y-136959904D01*
X161845714Y-137055142D01*
X161893333Y-137102761D01*
X161988571Y-137150380D01*
X162179047Y-137150380D01*
X162274285Y-137102761D01*
X162321904Y-137055142D01*
X162369523Y-136959904D01*
X162369523Y-136150380D01*
X163274285Y-136483714D02*
X163274285Y-137150380D01*
X163036190Y-136102761D02*
X162798095Y-136817047D01*
X163417142Y-136817047D01*
X156832380Y-146627904D02*
X157365714Y-147427904D01*
X157365714Y-146627904D02*
X156832380Y-147427904D01*
X158089523Y-147427904D02*
X157632380Y-147427904D01*
X157860952Y-147427904D02*
X157860952Y-146627904D01*
X157784761Y-146742190D01*
X157708571Y-146818380D01*
X157632380Y-146856476D01*
X156825904Y-143084380D02*
X156825904Y-143541523D01*
X156825904Y-143312952D02*
X156025904Y-143312952D01*
X156140190Y-143389142D01*
X156216380Y-143465333D01*
X156254476Y-143541523D01*
X156025904Y-142398666D02*
X156025904Y-142551047D01*
X156064000Y-142627238D01*
X156102095Y-142665333D01*
X156216380Y-142741523D01*
X156368761Y-142779619D01*
X156673523Y-142779619D01*
X156749714Y-142741523D01*
X156787809Y-142703428D01*
X156825904Y-142627238D01*
X156825904Y-142474857D01*
X156787809Y-142398666D01*
X156749714Y-142360571D01*
X156673523Y-142322476D01*
X156483047Y-142322476D01*
X156406857Y-142360571D01*
X156368761Y-142398666D01*
X156330666Y-142474857D01*
X156330666Y-142627238D01*
X156368761Y-142703428D01*
X156406857Y-142741523D01*
X156483047Y-142779619D01*
X156825904Y-141979619D02*
X156025904Y-141979619D01*
X156597333Y-141712952D01*
X156025904Y-141446285D01*
X156825904Y-141446285D01*
X156825904Y-141065333D02*
X156025904Y-141065333D01*
X156406857Y-141065333D02*
X156406857Y-140608190D01*
X156825904Y-140608190D02*
X156025904Y-140608190D01*
X156292571Y-140303428D02*
X156292571Y-139884380D01*
X156825904Y-140303428D01*
X156825904Y-139884380D01*
X171096000Y-135526285D02*
X171067428Y-135554857D01*
X170981714Y-135583428D01*
X170924571Y-135583428D01*
X170838857Y-135554857D01*
X170781714Y-135497714D01*
X170753142Y-135440571D01*
X170724571Y-135326285D01*
X170724571Y-135240571D01*
X170753142Y-135126285D01*
X170781714Y-135069142D01*
X170838857Y-135012000D01*
X170924571Y-134983428D01*
X170981714Y-134983428D01*
X171067428Y-135012000D01*
X171096000Y-135040571D01*
X171296000Y-134983428D02*
X171667428Y-134983428D01*
X171467428Y-135212000D01*
X171553142Y-135212000D01*
X171610285Y-135240571D01*
X171638857Y-135269142D01*
X171667428Y-135326285D01*
X171667428Y-135469142D01*
X171638857Y-135526285D01*
X171610285Y-135554857D01*
X171553142Y-135583428D01*
X171381714Y-135583428D01*
X171324571Y-135554857D01*
X171296000Y-135526285D01*
X170838857Y-133083428D02*
X170496000Y-133083428D01*
X170667428Y-133083428D02*
X170667428Y-132483428D01*
X170610285Y-132569142D01*
X170553142Y-132626285D01*
X170496000Y-132654857D01*
X171353142Y-132683428D02*
X171353142Y-133083428D01*
X171096000Y-132683428D02*
X171096000Y-132997714D01*
X171124571Y-133054857D01*
X171181714Y-133083428D01*
X171267428Y-133083428D01*
X171324571Y-133054857D01*
X171353142Y-133026285D01*
X171838857Y-132769142D02*
X171638857Y-132769142D01*
X171638857Y-133083428D02*
X171638857Y-132483428D01*
X171924571Y-132483428D01*
M02*
