G04 (created by PCBNEW (2013-08-24 BZR 4298)-stable) date Wed 27 Nov 2013 09:16:30 PM PST*
%MOIN*%
G04 Gerber Fmt 3.4, Leading zero omitted, Abs format*
%FSLAX34Y34*%
G01*
G70*
G90*
G04 APERTURE LIST*
%ADD10C,0.005906*%
%ADD11R,0.035400X0.039400*%
%ADD12R,0.039400X0.035400*%
%ADD13C,0.062992*%
%ADD14C,0.011811*%
%ADD15R,0.049200X0.078700*%
%ADD16C,0.027559*%
%ADD17C,0.011811*%
%ADD18C,0.009843*%
%ADD19C,0.003937*%
G04 APERTURE END LIST*
G54D10*
G54D11*
X57424Y-47429D03*
X58016Y-47429D03*
G54D12*
X54169Y-39885D03*
X54169Y-40477D03*
G54D11*
X57455Y-48165D03*
X58047Y-48165D03*
X52465Y-39090D03*
X51873Y-39090D03*
X58213Y-39783D03*
X57621Y-39783D03*
G54D13*
X50661Y-48102D03*
X49661Y-48102D03*
X50661Y-45102D03*
X49661Y-46102D03*
X49661Y-47102D03*
X50661Y-47102D03*
X50661Y-46102D03*
X50661Y-44102D03*
X49661Y-45102D03*
X49661Y-44102D03*
X49661Y-43102D03*
X49661Y-39102D03*
X49661Y-40102D03*
X49661Y-41102D03*
X49661Y-42102D03*
X50661Y-43102D03*
X50661Y-42102D03*
X50661Y-41102D03*
X50661Y-40102D03*
X50661Y-39102D03*
G54D11*
X57605Y-40551D03*
X58197Y-40551D03*
X52445Y-40251D03*
X51853Y-40251D03*
G54D14*
X56149Y-44460D03*
X56393Y-44460D03*
X56393Y-44704D03*
X56149Y-44704D03*
X55661Y-44460D03*
X55417Y-44460D03*
X55417Y-44704D03*
X55661Y-44704D03*
X56149Y-43728D03*
X56393Y-43728D03*
X55661Y-43728D03*
X55417Y-43728D03*
X56393Y-43484D03*
X56149Y-43484D03*
X55417Y-43484D03*
X55661Y-43484D03*
X55905Y-43484D03*
X55905Y-43728D03*
X55905Y-44460D03*
X55905Y-44704D03*
X56393Y-43972D03*
X56393Y-44216D03*
X56149Y-43972D03*
X56149Y-44216D03*
G54D15*
X52283Y-38149D03*
X54251Y-38149D03*
X55472Y-38149D03*
X57440Y-38149D03*
X52283Y-48110D03*
X54251Y-48110D03*
G54D16*
X58425Y-38110D03*
X57627Y-43966D03*
X58688Y-48188D03*
X52076Y-47165D03*
X53937Y-43198D03*
X54438Y-42185D03*
X52057Y-46633D03*
X52017Y-46161D03*
X53405Y-42391D03*
X51909Y-45610D03*
X53179Y-41830D03*
X54576Y-46387D03*
X55639Y-46555D03*
X55905Y-45472D03*
X53149Y-39685D03*
X55220Y-42748D03*
X58041Y-46505D03*
X57805Y-44744D03*
X54064Y-44468D03*
X57037Y-44990D03*
X48494Y-43110D03*
X57106Y-43444D03*
X57106Y-44517D03*
X54035Y-44025D03*
X54881Y-48858D03*
X54124Y-45482D03*
X56929Y-46092D03*
X54084Y-44940D03*
G54D17*
X58385Y-38149D02*
X57440Y-38149D01*
X58425Y-38110D02*
X58385Y-38149D01*
G54D10*
X56393Y-43972D02*
X57624Y-43970D01*
X57624Y-43970D02*
X57627Y-43966D01*
G54D17*
X58665Y-48165D02*
X58047Y-48165D01*
X58688Y-48188D02*
X58665Y-48165D01*
X55472Y-38149D02*
X55472Y-38582D01*
X58740Y-40551D02*
X58197Y-40551D01*
X58858Y-40433D02*
X58740Y-40551D01*
X58858Y-39448D02*
X58858Y-40433D01*
X58307Y-38897D02*
X58858Y-39448D01*
X55787Y-38897D02*
X58307Y-38897D01*
X55472Y-38582D02*
X55787Y-38897D01*
X55472Y-38149D02*
X54251Y-38149D01*
G54D18*
X56393Y-44704D02*
X56393Y-44712D01*
X58366Y-44704D02*
X58197Y-40551D01*
X57992Y-45413D02*
X58366Y-44704D01*
X56823Y-45325D02*
X57992Y-45413D01*
X56393Y-44712D02*
X56823Y-45325D01*
G54D17*
X51873Y-39090D02*
X51873Y-38560D01*
X51873Y-38560D02*
X52283Y-38149D01*
X49661Y-39102D02*
X49720Y-39102D01*
X51412Y-38629D02*
X51873Y-39090D01*
X50192Y-38629D02*
X51412Y-38629D01*
X49720Y-39102D02*
X50192Y-38629D01*
X57605Y-40551D02*
X57605Y-39799D01*
X57605Y-39799D02*
X57621Y-39783D01*
G54D18*
X56393Y-43484D02*
X56397Y-43484D01*
X57605Y-42276D02*
X57605Y-40551D01*
X56397Y-43484D02*
X57605Y-42276D01*
G54D10*
X55661Y-43728D02*
X55661Y-43787D01*
X52061Y-47181D02*
X50661Y-47102D01*
X52076Y-47165D02*
X52061Y-47181D01*
X55129Y-43885D02*
X54562Y-43708D01*
X54562Y-43708D02*
X53937Y-43198D01*
X55570Y-43887D02*
X55129Y-43885D01*
X55661Y-43787D02*
X55570Y-43887D01*
X55610Y-43433D02*
X55448Y-43228D01*
X55448Y-43228D02*
X54964Y-42976D01*
X54964Y-42976D02*
X54438Y-42185D01*
X55661Y-43484D02*
X55610Y-43433D01*
X51978Y-46633D02*
X51958Y-46614D01*
X52057Y-46633D02*
X51978Y-46633D01*
X49661Y-47102D02*
X49866Y-47102D01*
X50354Y-46614D02*
X51958Y-46614D01*
X51958Y-46614D02*
X52007Y-46614D01*
X49866Y-47102D02*
X50354Y-46614D01*
X55417Y-43728D02*
X55145Y-43728D01*
X51574Y-46102D02*
X50661Y-46102D01*
X52017Y-46161D02*
X51574Y-46102D01*
X55145Y-43728D02*
X53405Y-42391D01*
X55124Y-43464D02*
X55143Y-43484D01*
X50163Y-45600D02*
X51545Y-45600D01*
X51545Y-45600D02*
X51909Y-45610D01*
X53179Y-41830D02*
X53671Y-42076D01*
X53671Y-42076D02*
X53671Y-42106D01*
X53671Y-42106D02*
X53681Y-42106D01*
X53681Y-42106D02*
X54483Y-42860D01*
X54483Y-42860D02*
X55124Y-43464D01*
X49661Y-46102D02*
X50163Y-45600D01*
X55143Y-43484D02*
X55417Y-43484D01*
X53799Y-47263D02*
X54744Y-47135D01*
X55206Y-45433D02*
X55206Y-46673D01*
X55206Y-46673D02*
X55137Y-46742D01*
X55137Y-46742D02*
X54744Y-47135D01*
X55275Y-45000D02*
X55417Y-44704D01*
X55275Y-45000D02*
X55216Y-45364D01*
X55216Y-45364D02*
X55206Y-45433D01*
X52755Y-45708D02*
X52726Y-45738D01*
X50694Y-45068D02*
X51840Y-45078D01*
X51840Y-45078D02*
X51870Y-45078D01*
X51870Y-45078D02*
X52755Y-45708D01*
X50661Y-45102D02*
X50694Y-45068D01*
X52903Y-46692D02*
X53813Y-47278D01*
X52913Y-46702D02*
X52903Y-46692D01*
X52726Y-45738D02*
X52913Y-46702D01*
X54793Y-46663D02*
X54921Y-46535D01*
X55409Y-44468D02*
X55374Y-44468D01*
X55374Y-44468D02*
X55088Y-44753D01*
X55088Y-44753D02*
X55059Y-44783D01*
X55417Y-44460D02*
X55409Y-44468D01*
X53946Y-46909D02*
X54527Y-46830D01*
X54527Y-46830D02*
X54793Y-46663D01*
X52864Y-45236D02*
X53110Y-45472D01*
X50137Y-44625D02*
X51948Y-44625D01*
X51948Y-44625D02*
X51968Y-44625D01*
X51968Y-44625D02*
X52864Y-45236D01*
X50137Y-44625D02*
X49661Y-45102D01*
X53169Y-46161D02*
X53750Y-46830D01*
X53110Y-45472D02*
X53169Y-46161D01*
X53750Y-46830D02*
X53946Y-46909D01*
X54931Y-45108D02*
X55059Y-44783D01*
X54921Y-46535D02*
X54931Y-45108D01*
X53986Y-46456D02*
X54576Y-46387D01*
X53395Y-45167D02*
X53484Y-45915D01*
X53484Y-45915D02*
X53484Y-45925D01*
X53484Y-45925D02*
X53484Y-45954D01*
X53484Y-45954D02*
X53986Y-46456D01*
X50661Y-44102D02*
X50663Y-44104D01*
X51860Y-44084D02*
X52125Y-44163D01*
X51791Y-44074D02*
X51860Y-44084D01*
X50663Y-44104D02*
X51791Y-44074D01*
X52125Y-44163D02*
X53395Y-45167D01*
X55639Y-46418D02*
X55570Y-46131D01*
X55639Y-46555D02*
X55639Y-46418D01*
X55570Y-46131D02*
X55570Y-46131D01*
X55570Y-46131D02*
X55569Y-45662D01*
X55661Y-44704D02*
X55570Y-45068D01*
X55570Y-45068D02*
X55570Y-45629D01*
X55570Y-45629D02*
X55570Y-45659D01*
X54142Y-46081D02*
X54559Y-45893D01*
X53661Y-45039D02*
X53700Y-45629D01*
X53700Y-45629D02*
X53700Y-45639D01*
X53700Y-45639D02*
X54142Y-46081D01*
X51122Y-43602D02*
X51525Y-43582D01*
X50151Y-43612D02*
X51023Y-43612D01*
X51023Y-43612D02*
X51023Y-43622D01*
X51023Y-43622D02*
X51122Y-43602D01*
X49661Y-44102D02*
X50151Y-43612D01*
X52283Y-43868D02*
X53425Y-44783D01*
X51525Y-43582D02*
X52283Y-43868D01*
X53425Y-44783D02*
X53661Y-45039D01*
X54980Y-44576D02*
X54672Y-45067D01*
X55501Y-44301D02*
X55661Y-44460D01*
X55501Y-44301D02*
X55314Y-44311D01*
X55314Y-44311D02*
X54980Y-44576D01*
X54559Y-45893D02*
X54672Y-45067D01*
G54D18*
X52389Y-39610D02*
X53074Y-39610D01*
X53074Y-39610D02*
X53149Y-39685D01*
X55905Y-45472D02*
X56023Y-45590D01*
X56023Y-46028D02*
X57424Y-47429D01*
X56023Y-45590D02*
X56023Y-46028D01*
X55905Y-44704D02*
X55905Y-45472D01*
G54D10*
X55905Y-43728D02*
X55787Y-43610D01*
G54D19*
X55787Y-43610D02*
X55787Y-43307D01*
G54D10*
X55787Y-43307D02*
X55787Y-43267D01*
X55787Y-43267D02*
X55629Y-43070D01*
X55629Y-43070D02*
X55220Y-42748D01*
G54D17*
X52465Y-39090D02*
X52465Y-39534D01*
G54D18*
X51169Y-39610D02*
X50661Y-39102D01*
X52389Y-39610D02*
X51169Y-39610D01*
G54D17*
X52465Y-39534D02*
X52389Y-39610D01*
X53759Y-39212D02*
X58019Y-39212D01*
X58213Y-39323D02*
X58213Y-39783D01*
X58019Y-39212D02*
X58213Y-39323D01*
X54169Y-39885D02*
X54169Y-39460D01*
X53858Y-39212D02*
X53759Y-39212D01*
X53759Y-39212D02*
X52465Y-39090D01*
X54169Y-39460D02*
X53858Y-39212D01*
X57455Y-48165D02*
X57455Y-47460D01*
X57455Y-47460D02*
X57424Y-47429D01*
G54D10*
X50661Y-41102D02*
X51185Y-41102D01*
X51185Y-41102D02*
X51570Y-41295D01*
X51570Y-41295D02*
X51964Y-41641D01*
X51964Y-41641D02*
X53566Y-43307D01*
X53566Y-43307D02*
X53783Y-43507D01*
X53783Y-43507D02*
X54615Y-44024D01*
X54615Y-44024D02*
X55777Y-44025D01*
X55777Y-44025D02*
X56149Y-44216D01*
X56149Y-43728D02*
X56269Y-43608D01*
X56604Y-42716D02*
X54169Y-40477D01*
G54D19*
X56269Y-43608D02*
X56269Y-43336D01*
G54D10*
X56269Y-43336D02*
X56604Y-42716D01*
X56149Y-43972D02*
X56271Y-44094D01*
X58041Y-47404D02*
X58016Y-47429D01*
X58041Y-46505D02*
X58041Y-47404D01*
X56860Y-44094D02*
X57539Y-44350D01*
X57539Y-44350D02*
X57805Y-44744D01*
G54D19*
X56271Y-44094D02*
X56860Y-44094D01*
G54D17*
X51853Y-40251D02*
X50712Y-40051D01*
X50712Y-40051D02*
X50661Y-40102D01*
G54D10*
X56633Y-44468D02*
X56625Y-44460D01*
X53894Y-44468D02*
X54064Y-44468D01*
X57037Y-44990D02*
X57037Y-44980D01*
X57037Y-44980D02*
X56988Y-44980D01*
X56988Y-44980D02*
X56633Y-44468D01*
X53779Y-44353D02*
X53894Y-44468D01*
X56625Y-44460D02*
X56393Y-44460D01*
X51535Y-42598D02*
X53779Y-44353D01*
X49661Y-42102D02*
X50157Y-42598D01*
X50157Y-42598D02*
X51535Y-42598D01*
X48494Y-43110D02*
X48501Y-43102D01*
X48501Y-43102D02*
X49661Y-43102D01*
X56411Y-43710D02*
X56840Y-43710D01*
X56840Y-43710D02*
X57106Y-43444D01*
X56393Y-43728D02*
X56411Y-43710D01*
G54D18*
X50661Y-42102D02*
X49809Y-41603D01*
X49335Y-41587D02*
X49055Y-41692D01*
X49809Y-41603D02*
X49335Y-41587D01*
X48150Y-41899D02*
X48074Y-46741D01*
X49055Y-41692D02*
X48150Y-41899D01*
X48074Y-46741D02*
X48779Y-47283D01*
X51771Y-47598D02*
X52283Y-48110D01*
X49094Y-47598D02*
X48779Y-47283D01*
X49133Y-47598D02*
X49094Y-47598D01*
X49212Y-47598D02*
X49133Y-47598D01*
X51771Y-47598D02*
X49212Y-47598D01*
G54D10*
X55905Y-43484D02*
X55905Y-43011D01*
X55905Y-43011D02*
X55251Y-42358D01*
X55251Y-42358D02*
X53041Y-40826D01*
X53041Y-40826D02*
X52692Y-40822D01*
X52692Y-40822D02*
X51511Y-40822D01*
X51511Y-40822D02*
X51275Y-40586D01*
X51275Y-40586D02*
X50145Y-40586D01*
X50145Y-40586D02*
X49661Y-40102D01*
X52445Y-40251D02*
X52755Y-40251D01*
X52755Y-40251D02*
X53125Y-40518D01*
X53125Y-40518D02*
X55448Y-42082D01*
X55448Y-42082D02*
X56149Y-42783D01*
X56149Y-42783D02*
X56149Y-43484D01*
X49661Y-41102D02*
X49661Y-41118D01*
X56814Y-44216D02*
X56393Y-44216D01*
X57106Y-44517D02*
X56814Y-44216D01*
X51614Y-42047D02*
X54035Y-44025D01*
X51496Y-41889D02*
X51614Y-42047D01*
X51177Y-41614D02*
X51496Y-41889D01*
X50311Y-41614D02*
X51177Y-41614D01*
X49661Y-41118D02*
X50311Y-41614D01*
X55905Y-44460D02*
X55893Y-44460D01*
G54D18*
X54803Y-48661D02*
X54251Y-48110D01*
X54803Y-48779D02*
X54803Y-48661D01*
X54881Y-48858D02*
X54803Y-48779D01*
G54D10*
X54173Y-45423D02*
X54124Y-45482D01*
X54429Y-45039D02*
X54124Y-45482D01*
X54124Y-45482D02*
X54173Y-45423D01*
X54704Y-44557D02*
X54488Y-44783D01*
X54488Y-44783D02*
X54429Y-45039D01*
X55098Y-44192D02*
X54704Y-44557D01*
X55629Y-44183D02*
X55098Y-44192D01*
X55893Y-44460D02*
X55629Y-44183D01*
X54035Y-44940D02*
X53503Y-44498D01*
X54084Y-44940D02*
X54035Y-44940D01*
X56149Y-44704D02*
X56309Y-45246D01*
X56309Y-45246D02*
X56924Y-46077D01*
X56924Y-46077D02*
X56929Y-46092D01*
X52194Y-43484D02*
X53503Y-44498D01*
X50661Y-43102D02*
X50905Y-43100D01*
X51584Y-43080D02*
X52194Y-43484D01*
X51564Y-43080D02*
X51584Y-43080D01*
X50905Y-43100D02*
X51564Y-43080D01*
X53503Y-44498D02*
X53508Y-44502D01*
X56929Y-46092D02*
X56929Y-46092D01*
M02*
