G04 (created by PCBNEW (2013-08-24 BZR 4298)-stable) date Mon 09 Dec 2013 08:52:25 PM PST*
%MOIN*%
G04 Gerber Fmt 3.4, Leading zero omitted, Abs format*
%FSLAX34Y34*%
G01*
G70*
G90*
G04 APERTURE LIST*
%ADD10C,0.005906*%
%ADD11C,0.007874*%
%ADD12R,0.035400X0.039400*%
%ADD13R,0.039400X0.035400*%
%ADD14C,0.062992*%
%ADD15C,0.011811*%
%ADD16C,0.003937*%
%ADD17R,0.024114X0.015748*%
%ADD18C,0.027559*%
%ADD19C,0.003937*%
%ADD20C,0.011811*%
%ADD21C,0.009843*%
G04 APERTURE END LIST*
G54D10*
G54D11*
X47784Y-38987D02*
X47802Y-38968D01*
X47840Y-38949D01*
X47934Y-38949D01*
X47971Y-38968D01*
X47990Y-38987D01*
X48008Y-39024D01*
X48008Y-39062D01*
X47990Y-39118D01*
X47765Y-39343D01*
X48008Y-39343D01*
X48177Y-39305D02*
X48196Y-39324D01*
X48177Y-39343D01*
X48158Y-39324D01*
X48177Y-39305D01*
X48177Y-39343D01*
X48421Y-39118D02*
X48383Y-39099D01*
X48365Y-39080D01*
X48346Y-39043D01*
X48346Y-39024D01*
X48365Y-38987D01*
X48383Y-38968D01*
X48421Y-38949D01*
X48496Y-38949D01*
X48533Y-38968D01*
X48552Y-38987D01*
X48571Y-39024D01*
X48571Y-39043D01*
X48552Y-39080D01*
X48533Y-39099D01*
X48496Y-39118D01*
X48421Y-39118D01*
X48383Y-39137D01*
X48365Y-39155D01*
X48346Y-39193D01*
X48346Y-39268D01*
X48365Y-39305D01*
X48383Y-39324D01*
X48421Y-39343D01*
X48496Y-39343D01*
X48533Y-39324D01*
X48552Y-39305D01*
X48571Y-39268D01*
X48571Y-39193D01*
X48552Y-39155D01*
X48533Y-39137D01*
X48496Y-39118D01*
X48683Y-38949D02*
X48815Y-39343D01*
X48946Y-38949D01*
G54D12*
X57424Y-47429D03*
X58016Y-47429D03*
G54D13*
X54169Y-39885D03*
X54169Y-40477D03*
G54D12*
X57455Y-48165D03*
X58047Y-48165D03*
X52465Y-39090D03*
X51873Y-39090D03*
X58213Y-39783D03*
X57621Y-39783D03*
G54D14*
X50661Y-48102D03*
X49661Y-48102D03*
X50661Y-45102D03*
X49661Y-46102D03*
X49661Y-47102D03*
X50661Y-47102D03*
X50661Y-46102D03*
X50661Y-44102D03*
X49661Y-45102D03*
X49661Y-44102D03*
X49661Y-43102D03*
X49661Y-39102D03*
X49661Y-40102D03*
X49661Y-41102D03*
X49661Y-42102D03*
X50661Y-43102D03*
X50661Y-42102D03*
X50661Y-41102D03*
X50661Y-40102D03*
X50661Y-39102D03*
G54D12*
X57605Y-40551D03*
X58197Y-40551D03*
G54D15*
X56149Y-44460D03*
X56393Y-44460D03*
X56393Y-44704D03*
X56149Y-44704D03*
X55661Y-44460D03*
X55417Y-44460D03*
X55417Y-44704D03*
X55661Y-44704D03*
X56149Y-43728D03*
X56393Y-43728D03*
X55661Y-43728D03*
X55417Y-43728D03*
G54D16*
X56393Y-43484D03*
X56149Y-43484D03*
G54D15*
X55417Y-43484D03*
G54D16*
X55661Y-43484D03*
X55905Y-43484D03*
G54D15*
X55905Y-43728D03*
X55905Y-44460D03*
X55905Y-44704D03*
G54D16*
X56393Y-43972D03*
X56393Y-44216D03*
G54D15*
X56149Y-43972D03*
X56149Y-44216D03*
G54D17*
X56635Y-37775D03*
X56635Y-38523D03*
X57435Y-38149D03*
G54D18*
X58425Y-38110D03*
X57799Y-43814D03*
X58688Y-48188D03*
X52338Y-46350D03*
X54181Y-43161D03*
X51807Y-46074D03*
X54531Y-42377D03*
X53704Y-42421D03*
X51759Y-45480D03*
X53614Y-41740D03*
X51700Y-44905D03*
X55153Y-45877D03*
X53669Y-44799D03*
X51944Y-43779D03*
X48515Y-43070D03*
X55118Y-37889D03*
X55905Y-45472D03*
X53149Y-39685D03*
X55220Y-42748D03*
X58279Y-44921D03*
X57751Y-46354D03*
X54291Y-44818D03*
X57527Y-45311D03*
X52031Y-47500D03*
X58570Y-45366D03*
X51976Y-46948D03*
X56929Y-46092D03*
X54401Y-44118D03*
X57559Y-44771D03*
G54D19*
X56393Y-43972D02*
X56992Y-43897D01*
G54D20*
X58385Y-38149D02*
X57440Y-38149D01*
X58425Y-38110D02*
X58385Y-38149D01*
G54D21*
X57795Y-43818D02*
X57799Y-43814D01*
G54D19*
X56992Y-43897D02*
X57795Y-43818D01*
G54D20*
X58665Y-48165D02*
X58047Y-48165D01*
X58688Y-48188D02*
X58665Y-48165D01*
X55661Y-38898D02*
X56036Y-38523D01*
X56036Y-38523D02*
X56635Y-38523D01*
X52389Y-38519D02*
X53429Y-38625D01*
X54675Y-38824D02*
X53429Y-38625D01*
X55240Y-38900D02*
X55661Y-38898D01*
X55661Y-38898D02*
X55787Y-38897D01*
X55787Y-38897D02*
X58307Y-38897D01*
X58307Y-38897D02*
X58858Y-39448D01*
X58858Y-39448D02*
X58858Y-40433D01*
X58858Y-40433D02*
X58740Y-40551D01*
X58200Y-40492D02*
X58740Y-40551D01*
X54675Y-38824D02*
X55240Y-38900D01*
X52031Y-38606D02*
X52389Y-38519D01*
X52031Y-38606D02*
X51873Y-39090D01*
X49661Y-39102D02*
X49720Y-39102D01*
X49720Y-39102D02*
X50188Y-38503D01*
X50188Y-38503D02*
X51408Y-38503D01*
X51408Y-38503D02*
X51873Y-39090D01*
G54D21*
X56393Y-44704D02*
X56393Y-44712D01*
X59074Y-45448D02*
X58842Y-40566D01*
X58842Y-40566D02*
X58200Y-40492D01*
X58200Y-40492D02*
X58200Y-40492D01*
X57522Y-45810D02*
X58464Y-45948D01*
X58464Y-45948D02*
X59074Y-45448D01*
X56823Y-45325D02*
X57522Y-45810D01*
X56393Y-44712D02*
X56823Y-45325D01*
G54D20*
X57605Y-40551D02*
X57605Y-39799D01*
X57605Y-39799D02*
X57621Y-39783D01*
G54D21*
X56393Y-43484D02*
X56397Y-43484D01*
X57605Y-42276D02*
X57605Y-40551D01*
G54D10*
X56397Y-43484D02*
X57605Y-42276D01*
G54D21*
X52338Y-46350D02*
X52240Y-46350D01*
X51455Y-46354D02*
X50661Y-46102D01*
X51881Y-46543D02*
X51455Y-46354D01*
X52023Y-46543D02*
X51881Y-46543D01*
X52240Y-46350D02*
X52023Y-46543D01*
G54D19*
X55071Y-43866D02*
X54616Y-43607D01*
G54D10*
X54616Y-43607D02*
X54181Y-43161D01*
G54D21*
X55661Y-43728D02*
X55661Y-43787D01*
G54D19*
X55661Y-43787D02*
X55472Y-43909D01*
X55472Y-43909D02*
X55071Y-43866D01*
G54D21*
X52338Y-46350D02*
X52263Y-46275D01*
G54D19*
X55661Y-43484D02*
X55610Y-43433D01*
G54D10*
X54866Y-42866D02*
X54531Y-42377D01*
X55448Y-43228D02*
X54866Y-42866D01*
G54D19*
X55610Y-43433D02*
X55448Y-43228D01*
G54D21*
X50118Y-45590D02*
X49661Y-46102D01*
X51708Y-46118D02*
X50882Y-45579D01*
X50882Y-45579D02*
X50118Y-45590D01*
G54D10*
X51807Y-46074D02*
X51708Y-46118D01*
X54535Y-43140D02*
X53948Y-42488D01*
X53948Y-42488D02*
X53704Y-42421D01*
X54856Y-43516D02*
X54535Y-43140D01*
G54D19*
X55417Y-43728D02*
X54856Y-43516D01*
G54D21*
X51688Y-45551D02*
X50661Y-45102D01*
G54D10*
X51759Y-45480D02*
X51688Y-45551D01*
X54901Y-43240D02*
X53614Y-41740D01*
G54D19*
X55417Y-43484D02*
X54901Y-43240D01*
G54D21*
X50149Y-44614D02*
X49661Y-45102D01*
X51641Y-44846D02*
X50889Y-44610D01*
X50889Y-44610D02*
X50149Y-44614D01*
G54D10*
X51700Y-44905D02*
X51641Y-44846D01*
G54D11*
X50661Y-44102D02*
X51346Y-44102D01*
G54D10*
X55162Y-45242D02*
X54940Y-45448D01*
X55275Y-45000D02*
X55162Y-45242D01*
X55275Y-45000D02*
X55417Y-44704D01*
X54477Y-45566D02*
X53866Y-45570D01*
X54940Y-45448D02*
X54477Y-45566D01*
G54D11*
X53300Y-45609D02*
X53866Y-45570D01*
X51346Y-44102D02*
X53300Y-45609D01*
X51502Y-43864D02*
X51458Y-43864D01*
X50078Y-43602D02*
X49661Y-44102D01*
X51271Y-43602D02*
X50078Y-43602D01*
X51458Y-43864D02*
X51271Y-43602D01*
G54D10*
X53370Y-45332D02*
X54712Y-45283D01*
X55409Y-44468D02*
X55374Y-44468D01*
G54D19*
X55374Y-44468D02*
X55088Y-44753D01*
X55088Y-44753D02*
X55055Y-44897D01*
G54D10*
X55417Y-44460D02*
X55409Y-44468D01*
X51496Y-43858D02*
X51502Y-43864D01*
X51502Y-43864D02*
X53370Y-45332D01*
G54D19*
X54931Y-45108D02*
X55055Y-44897D01*
G54D10*
X54712Y-45283D02*
X54931Y-45108D01*
G54D21*
X55153Y-45877D02*
X55486Y-45448D01*
G54D10*
X55570Y-45068D02*
X55661Y-44704D01*
G54D21*
X55486Y-45448D02*
X55570Y-45068D01*
G54D11*
X50661Y-43102D02*
X51704Y-43102D01*
X53484Y-44590D02*
X53669Y-44799D01*
X51704Y-43102D02*
X53484Y-44590D01*
G54D10*
X55153Y-45877D02*
X55153Y-45877D01*
X55153Y-45877D02*
X55223Y-45800D01*
G54D11*
X53452Y-45078D02*
X51944Y-43779D01*
X54089Y-45121D02*
X53452Y-45078D01*
G54D21*
X48547Y-43102D02*
X49661Y-43102D01*
X48515Y-43070D02*
X48547Y-43102D01*
G54D19*
X54980Y-44576D02*
X54672Y-45067D01*
X55498Y-44297D02*
X55661Y-44460D01*
X55498Y-44297D02*
X55255Y-44299D01*
X55255Y-44299D02*
X54980Y-44576D01*
G54D10*
X54082Y-45122D02*
X54089Y-45121D01*
X54089Y-45121D02*
X54672Y-45067D01*
G54D20*
X56635Y-37775D02*
X56521Y-37889D01*
X56521Y-37889D02*
X55118Y-37889D01*
G54D21*
X52389Y-39610D02*
X53074Y-39610D01*
X53074Y-39610D02*
X53149Y-39685D01*
X55905Y-45472D02*
X55952Y-45673D01*
X56023Y-46028D02*
X57424Y-47429D01*
X55952Y-45673D02*
X56023Y-46028D01*
G54D10*
X55905Y-44704D02*
X55905Y-45472D01*
G54D19*
X55905Y-43728D02*
X55787Y-43610D01*
X55787Y-43610D02*
X55787Y-43307D01*
X55787Y-43307D02*
X55787Y-43267D01*
X55787Y-43267D02*
X55629Y-43070D01*
G54D10*
X55629Y-43070D02*
X55220Y-42748D01*
G54D20*
X52465Y-39090D02*
X52465Y-39534D01*
G54D21*
X51169Y-39610D02*
X50661Y-39102D01*
X52389Y-39610D02*
X51169Y-39610D01*
G54D20*
X52465Y-39534D02*
X52389Y-39610D01*
X53759Y-39212D02*
X58019Y-39212D01*
X58213Y-39323D02*
X58213Y-39783D01*
X58019Y-39212D02*
X58213Y-39323D01*
X54169Y-39885D02*
X54169Y-39460D01*
X53858Y-39212D02*
X53759Y-39212D01*
X53759Y-39212D02*
X52465Y-39090D01*
X54169Y-39460D02*
X53858Y-39212D01*
X57455Y-48165D02*
X57455Y-47460D01*
X57455Y-47460D02*
X57424Y-47429D01*
G54D21*
X50661Y-41102D02*
X51185Y-41102D01*
X51185Y-41102D02*
X51570Y-41295D01*
X51570Y-41295D02*
X51964Y-41641D01*
X51964Y-41641D02*
X53134Y-42553D01*
X53134Y-42553D02*
X53614Y-43074D01*
X53614Y-43074D02*
X54161Y-43665D01*
G54D19*
X54161Y-43665D02*
X55027Y-44019D01*
X55027Y-44019D02*
X55779Y-44023D01*
X55779Y-44023D02*
X56149Y-44216D01*
X56149Y-43972D02*
X56271Y-44094D01*
X56271Y-44094D02*
X56860Y-44094D01*
G54D21*
X57905Y-44409D02*
X58279Y-44921D01*
G54D19*
X56860Y-44094D02*
X57905Y-44409D01*
G54D21*
X57751Y-46354D02*
X58041Y-47404D01*
X58041Y-47404D02*
X58016Y-47429D01*
G54D19*
X56149Y-43728D02*
X56261Y-43608D01*
G54D10*
X56393Y-43097D02*
X56604Y-42716D01*
G54D19*
X56307Y-43318D02*
X56393Y-43097D01*
X56267Y-43444D02*
X56307Y-43318D01*
X56261Y-43608D02*
X56267Y-43444D01*
G54D21*
X56604Y-42716D02*
X54169Y-40477D01*
G54D11*
X56826Y-44657D02*
X56818Y-44650D01*
X54090Y-44673D02*
X54291Y-44818D01*
X57527Y-45311D02*
X57527Y-45301D01*
X57527Y-45301D02*
X57478Y-45301D01*
X57478Y-45301D02*
X56826Y-44657D01*
X53644Y-44305D02*
X54090Y-44673D01*
G54D19*
X56818Y-44650D02*
X56393Y-44460D01*
G54D11*
X51535Y-42598D02*
X53644Y-44305D01*
X49661Y-42102D02*
X50157Y-42598D01*
X50157Y-42598D02*
X51535Y-42598D01*
G54D21*
X58311Y-43685D02*
X58311Y-43732D01*
X57925Y-43443D02*
X58311Y-43685D01*
G54D19*
X56803Y-43610D02*
X57925Y-43443D01*
X56411Y-43710D02*
X56803Y-43610D01*
X56393Y-43728D02*
X56411Y-43710D01*
G54D21*
X51740Y-47338D02*
X50661Y-47102D01*
X52031Y-47500D02*
X51740Y-47338D01*
X58661Y-45291D02*
X58570Y-45366D01*
X58661Y-44452D02*
X58661Y-45291D01*
X58311Y-43732D02*
X58661Y-44452D01*
X49661Y-47102D02*
X50173Y-46590D01*
X51886Y-46859D02*
X51129Y-46598D01*
X51129Y-46598D02*
X50173Y-46590D01*
X51886Y-46859D02*
X51976Y-46948D01*
G54D10*
X56149Y-44704D02*
X56309Y-45246D01*
G54D21*
X56309Y-45246D02*
X56924Y-46077D01*
G54D10*
X56924Y-46077D02*
X56929Y-46092D01*
X56929Y-46092D02*
X56929Y-46092D01*
G54D19*
X55905Y-43484D02*
X55905Y-43011D01*
G54D10*
X55905Y-43011D02*
X55251Y-42358D01*
G54D21*
X55251Y-42358D02*
X53041Y-40826D01*
G54D10*
X53041Y-40826D02*
X52692Y-40822D01*
G54D21*
X52692Y-40822D02*
X51511Y-40822D01*
X51511Y-40822D02*
X51275Y-40586D01*
X51275Y-40586D02*
X50145Y-40586D01*
X50145Y-40586D02*
X49661Y-40102D01*
G54D20*
X52476Y-40251D02*
X50712Y-40051D01*
X50712Y-40051D02*
X50661Y-40102D01*
G54D10*
X52445Y-40251D02*
X52755Y-40251D01*
X52755Y-40251D02*
X53125Y-40518D01*
G54D21*
X53125Y-40518D02*
X55448Y-42082D01*
G54D10*
X55448Y-42082D02*
X56149Y-42783D01*
G54D19*
X56149Y-42783D02*
X56149Y-43484D01*
G54D21*
X49661Y-41102D02*
X49661Y-41118D01*
X49661Y-41118D02*
X50311Y-41614D01*
X50311Y-41614D02*
X51177Y-41614D01*
X51177Y-41614D02*
X51511Y-41665D01*
X51511Y-41665D02*
X53093Y-43034D01*
X53093Y-43034D02*
X53870Y-43814D01*
X53870Y-43814D02*
X54401Y-44118D01*
G54D10*
X57559Y-44771D02*
X56842Y-44311D01*
G54D19*
X56842Y-44311D02*
X56393Y-44216D01*
G54D11*
X53653Y-43988D02*
X54094Y-44362D01*
G54D19*
X55893Y-44460D02*
X55625Y-44167D01*
X55625Y-44167D02*
X55074Y-44169D01*
X55074Y-44169D02*
X54636Y-44454D01*
G54D11*
X54636Y-44454D02*
X54119Y-44362D01*
G54D10*
X55905Y-44460D02*
X55893Y-44460D01*
G54D11*
X51984Y-42393D02*
X53653Y-43988D01*
X50700Y-42141D02*
X51421Y-42126D01*
X51421Y-42126D02*
X51984Y-42393D01*
X50700Y-42141D02*
X50661Y-42102D01*
G54D10*
X54094Y-44362D02*
X54119Y-44362D01*
M02*
