M48
;DRILL file {Pcbnew (2013-08-24 BZR 4298)-stable} date Mon 09 Dec 2013 08:52:27 PM PST
;FORMAT={-:-/ absolute / metric / decimal}
FMAT,2
METRIC,TZ
T1C0.500
T2C1.000
%
G90
G05
M71
T1
X123.23Y-109.4
X131.32Y-114.06
X131.47Y-115.52
X131.59Y-117.03
X131.94Y-111.2
X132.02Y-119.25
X132.16Y-120.65
X132.94Y-117.73
X135.Y-100.8
X136.18Y-106.02
X136.32Y-113.79
X136.41Y-107.75
X137.62Y-109.63
X137.9Y-113.84
X138.18Y-112.06
X138.51Y-107.64
X140.Y-96.24
X140.09Y-116.53
X140.26Y-108.58
X142.Y-115.5
X144.6Y-117.075
X146.12Y-115.09
X146.2Y-113.72
X146.69Y-117.74
X146.81Y-111.29
X148.03Y-114.1
X148.4Y-96.8
X148.77Y-115.23
X149.07Y-122.4
T2
X126.14Y-99.32
X126.14Y-101.86
X126.14Y-104.4
X126.14Y-106.94
X126.14Y-109.48
X126.14Y-112.02
X126.14Y-114.56
X126.14Y-117.1
X126.14Y-119.64
X126.14Y-122.18
X128.68Y-99.32
X128.68Y-101.86
X128.68Y-104.4
X128.68Y-106.94
X128.68Y-109.48
X128.68Y-112.02
X128.68Y-114.56
X128.68Y-117.1
X128.68Y-119.64
X128.68Y-122.18
T0
M30
