G04 (created by PCBNEW (2013-08-24 BZR 4298)-stable) date Sat 25 Jan 2014 07:06:08 PM PST*
%MOIN*%
G04 Gerber Fmt 3.4, Leading zero omitted, Abs format*
%FSLAX34Y34*%
G01*
G70*
G90*
G04 APERTURE LIST*
%ADD10C,0.005906*%
%ADD11C,0.010000*%
%ADD12C,0.005000*%
%ADD13C,0.007900*%
%ADD14C,0.015000*%
%ADD15C,0.003900*%
%ADD16C,0.005900*%
%ADD17C,0.007500*%
%ADD18C,0.001600*%
%ADD19C,0.012000*%
%ADD20C,0.003700*%
%ADD21C,0.007874*%
G04 APERTURE END LIST*
G54D10*
G54D11*
X22366Y-53618D02*
X19366Y-53618D01*
X22366Y-53618D02*
X22366Y-56618D01*
X22366Y-56618D02*
X19366Y-56618D01*
X19366Y-56618D02*
X19366Y-53618D01*
X27877Y-53618D02*
X24877Y-53618D01*
X27877Y-53618D02*
X27877Y-56618D01*
X27877Y-56618D02*
X24877Y-56618D01*
X24877Y-56618D02*
X24877Y-53618D01*
X33389Y-53618D02*
X30389Y-53618D01*
X33389Y-53618D02*
X33389Y-56618D01*
X33389Y-56618D02*
X30389Y-56618D01*
X30389Y-56618D02*
X30389Y-53618D01*
X38901Y-53618D02*
X35901Y-53618D01*
X38901Y-53618D02*
X38901Y-56618D01*
X38901Y-56618D02*
X35901Y-56618D01*
X35901Y-56618D02*
X35901Y-53618D01*
X44413Y-53618D02*
X41413Y-53618D01*
X44413Y-53618D02*
X44413Y-56618D01*
X44413Y-56618D02*
X41413Y-56618D01*
X41413Y-56618D02*
X41413Y-53618D01*
X49925Y-53618D02*
X46925Y-53618D01*
X49925Y-53618D02*
X49925Y-56618D01*
X49925Y-56618D02*
X46925Y-56618D01*
X46925Y-56618D02*
X46925Y-53618D01*
X55437Y-51500D02*
X55437Y-48500D01*
X55437Y-51500D02*
X52437Y-51500D01*
X52437Y-51500D02*
X52437Y-48500D01*
X52437Y-48500D02*
X55437Y-48500D01*
X55437Y-45988D02*
X55437Y-42988D01*
X55437Y-45988D02*
X52437Y-45988D01*
X52437Y-45988D02*
X52437Y-42988D01*
X52437Y-42988D02*
X55437Y-42988D01*
X55437Y-40476D02*
X55437Y-37476D01*
X55437Y-40476D02*
X52437Y-40476D01*
X52437Y-40476D02*
X52437Y-37476D01*
X52437Y-37476D02*
X55437Y-37476D01*
X55437Y-34964D02*
X55437Y-31964D01*
X55437Y-34964D02*
X52437Y-34964D01*
X52437Y-34964D02*
X52437Y-31964D01*
X52437Y-31964D02*
X55437Y-31964D01*
X51425Y-28552D02*
X48425Y-28552D01*
X51425Y-28552D02*
X51425Y-31552D01*
X51425Y-31552D02*
X48425Y-31552D01*
X48425Y-31552D02*
X48425Y-28552D01*
X45913Y-28552D02*
X42913Y-28552D01*
X45913Y-28552D02*
X45913Y-31552D01*
X45913Y-31552D02*
X42913Y-31552D01*
X42913Y-31552D02*
X42913Y-28552D01*
X40401Y-28552D02*
X37401Y-28552D01*
X40401Y-28552D02*
X40401Y-31552D01*
X40401Y-31552D02*
X37401Y-31552D01*
X37401Y-31552D02*
X37401Y-28552D01*
X34889Y-28552D02*
X31889Y-28552D01*
X34889Y-28552D02*
X34889Y-31552D01*
X34889Y-31552D02*
X31889Y-31552D01*
X31889Y-31552D02*
X31889Y-28552D01*
X29377Y-28552D02*
X26377Y-28552D01*
X29377Y-28552D02*
X29377Y-31552D01*
X29377Y-31552D02*
X26377Y-31552D01*
X26377Y-31552D02*
X26377Y-28552D01*
G54D12*
X44275Y-45219D02*
X44275Y-44899D01*
X43835Y-44909D02*
X43835Y-45219D01*
X43735Y-44899D02*
X44375Y-44899D01*
X44375Y-44899D02*
X44375Y-45219D01*
X44375Y-45219D02*
X43735Y-45219D01*
X43735Y-45219D02*
X43735Y-44899D01*
X43329Y-36748D02*
X43009Y-36748D01*
X43019Y-37188D02*
X43329Y-37188D01*
X43009Y-37288D02*
X43009Y-36648D01*
X43009Y-36648D02*
X43329Y-36648D01*
X43329Y-36648D02*
X43329Y-37288D01*
X43329Y-37288D02*
X43009Y-37288D01*
G54D11*
X12700Y-54100D02*
X12700Y-48100D01*
X12700Y-54100D02*
X11700Y-54100D01*
X11694Y-54106D02*
X11694Y-48094D01*
X11694Y-48094D02*
X12702Y-48094D01*
G54D12*
X10777Y-35078D02*
X11387Y-35078D01*
X11387Y-35078D02*
X11387Y-32480D01*
X11387Y-32480D02*
X10787Y-32480D01*
G54D13*
X16761Y-36339D02*
X10777Y-36339D01*
X10777Y-36339D02*
X10777Y-31219D01*
X10777Y-31219D02*
X16761Y-31219D01*
X16761Y-31219D02*
X16761Y-36339D01*
G54D12*
X28900Y-37165D02*
X28580Y-37165D01*
X28590Y-37605D02*
X28900Y-37605D01*
X28580Y-37705D02*
X28580Y-37065D01*
X28580Y-37065D02*
X28900Y-37065D01*
X28900Y-37065D02*
X28900Y-37705D01*
X28900Y-37705D02*
X28580Y-37705D01*
X23624Y-39370D02*
X23304Y-39370D01*
X23314Y-39810D02*
X23624Y-39810D01*
X23304Y-39910D02*
X23304Y-39270D01*
X23304Y-39270D02*
X23624Y-39270D01*
X23624Y-39270D02*
X23624Y-39910D01*
X23624Y-39910D02*
X23304Y-39910D01*
X28670Y-45775D02*
X28990Y-45775D01*
X28980Y-45335D02*
X28670Y-45335D01*
X28990Y-45235D02*
X28990Y-45875D01*
X28990Y-45875D02*
X28670Y-45875D01*
X28670Y-45875D02*
X28670Y-45235D01*
X28670Y-45235D02*
X28990Y-45235D01*
G54D10*
X10875Y-39807D02*
X10482Y-39807D01*
X10482Y-39807D02*
X10482Y-45633D01*
X10482Y-45633D02*
X10875Y-45633D01*
X10875Y-45633D02*
X10875Y-39807D01*
G54D11*
X20137Y-39531D02*
X20137Y-45870D01*
X20137Y-45870D02*
X10137Y-45870D01*
X10137Y-45870D02*
X10137Y-39531D01*
X10137Y-39531D02*
X20137Y-39531D01*
G54D14*
X24074Y-48401D02*
X24074Y-46551D01*
X29074Y-48401D02*
X29074Y-46551D01*
X29074Y-46551D02*
X24074Y-46551D01*
X29074Y-48401D02*
X24074Y-48401D01*
X46795Y-47185D02*
X44944Y-47185D01*
X46795Y-42185D02*
X44944Y-42185D01*
X44944Y-42185D02*
X44944Y-47185D01*
X46795Y-42185D02*
X46795Y-47185D01*
G54D12*
X24181Y-42765D02*
X24181Y-43085D01*
X24621Y-43075D02*
X24621Y-42765D01*
X24721Y-43085D02*
X24081Y-43085D01*
X24081Y-43085D02*
X24081Y-42765D01*
X24081Y-42765D02*
X24721Y-42765D01*
X24721Y-42765D02*
X24721Y-43085D01*
G54D15*
X42625Y-37244D02*
X42625Y-37644D01*
X42611Y-37646D02*
X42011Y-37646D01*
X41987Y-37646D02*
X41987Y-37246D01*
X41985Y-36462D02*
X41985Y-36062D01*
X42011Y-36056D02*
X42611Y-36056D01*
X42633Y-36058D02*
X42633Y-36458D01*
G54D12*
X22408Y-39063D02*
X22408Y-38663D01*
X22408Y-38663D02*
X23008Y-38663D01*
X23008Y-38663D02*
X23008Y-39063D01*
X23008Y-39463D02*
X23008Y-39863D01*
X23008Y-39863D02*
X22408Y-39863D01*
X22408Y-39863D02*
X22408Y-39463D01*
X29643Y-45830D02*
X29963Y-45830D01*
X29953Y-45390D02*
X29643Y-45390D01*
X29963Y-45290D02*
X29963Y-45930D01*
X29963Y-45930D02*
X29643Y-45930D01*
X29643Y-45930D02*
X29643Y-45290D01*
X29643Y-45290D02*
X29963Y-45290D01*
X27365Y-45841D02*
X27365Y-45521D01*
X26925Y-45531D02*
X26925Y-45841D01*
X26825Y-45521D02*
X27465Y-45521D01*
X27465Y-45521D02*
X27465Y-45841D01*
X27465Y-45841D02*
X26825Y-45841D01*
X26825Y-45841D02*
X26825Y-45521D01*
X24760Y-45528D02*
X24760Y-45848D01*
X25200Y-45838D02*
X25200Y-45528D01*
X25300Y-45848D02*
X24660Y-45848D01*
X24660Y-45848D02*
X24660Y-45528D01*
X24660Y-45528D02*
X25300Y-45528D01*
X25300Y-45528D02*
X25300Y-45848D01*
X24770Y-39398D02*
X24450Y-39398D01*
X24460Y-39838D02*
X24770Y-39838D01*
X24450Y-39938D02*
X24450Y-39298D01*
X24450Y-39298D02*
X24770Y-39298D01*
X24770Y-39298D02*
X24770Y-39938D01*
X24770Y-39938D02*
X24450Y-39938D01*
X24183Y-39378D02*
X23863Y-39378D01*
X23873Y-39818D02*
X24183Y-39818D01*
X23863Y-39918D02*
X23863Y-39278D01*
X23863Y-39278D02*
X24183Y-39278D01*
X24183Y-39278D02*
X24183Y-39918D01*
X24183Y-39918D02*
X23863Y-39918D01*
X15872Y-37605D02*
X15872Y-37925D01*
X16312Y-37915D02*
X16312Y-37605D01*
X16412Y-37925D02*
X15772Y-37925D01*
X15772Y-37925D02*
X15772Y-37605D01*
X15772Y-37605D02*
X16412Y-37605D01*
X16412Y-37605D02*
X16412Y-37925D01*
X34919Y-37980D02*
X34599Y-37980D01*
X34609Y-38420D02*
X34919Y-38420D01*
X34599Y-38520D02*
X34599Y-37880D01*
X34599Y-37880D02*
X34919Y-37880D01*
X34919Y-37880D02*
X34919Y-38520D01*
X34919Y-38520D02*
X34599Y-38520D01*
X21370Y-35045D02*
X21050Y-35045D01*
X21060Y-35485D02*
X21370Y-35485D01*
X21050Y-35585D02*
X21050Y-34945D01*
X21050Y-34945D02*
X21370Y-34945D01*
X21370Y-34945D02*
X21370Y-35585D01*
X21370Y-35585D02*
X21050Y-35585D01*
X30531Y-43120D02*
X30531Y-42800D01*
X30091Y-42810D02*
X30091Y-43120D01*
X29991Y-42800D02*
X30631Y-42800D01*
X30631Y-42800D02*
X30631Y-43120D01*
X30631Y-43120D02*
X29991Y-43120D01*
X29991Y-43120D02*
X29991Y-42800D01*
X35525Y-48401D02*
X35845Y-48401D01*
X35835Y-47961D02*
X35525Y-47961D01*
X35845Y-47861D02*
X35845Y-48501D01*
X35845Y-48501D02*
X35525Y-48501D01*
X35525Y-48501D02*
X35525Y-47861D01*
X35525Y-47861D02*
X35845Y-47861D01*
X36493Y-48471D02*
X36813Y-48471D01*
X36803Y-48031D02*
X36493Y-48031D01*
X36813Y-47931D02*
X36813Y-48571D01*
X36813Y-48571D02*
X36493Y-48571D01*
X36493Y-48571D02*
X36493Y-47931D01*
X36493Y-47931D02*
X36813Y-47931D01*
X41699Y-36311D02*
X41379Y-36311D01*
X41389Y-36751D02*
X41699Y-36751D01*
X41379Y-36851D02*
X41379Y-36211D01*
X41379Y-36211D02*
X41699Y-36211D01*
X41699Y-36211D02*
X41699Y-36851D01*
X41699Y-36851D02*
X41379Y-36851D01*
X43399Y-49660D02*
X43719Y-49660D01*
X43709Y-49220D02*
X43399Y-49220D01*
X43719Y-49120D02*
X43719Y-49760D01*
X43719Y-49760D02*
X43399Y-49760D01*
X43399Y-49760D02*
X43399Y-49120D01*
X43399Y-49120D02*
X43719Y-49120D01*
X47210Y-43188D02*
X47530Y-43188D01*
X47520Y-42748D02*
X47210Y-42748D01*
X47530Y-42648D02*
X47530Y-43288D01*
X47530Y-43288D02*
X47210Y-43288D01*
X47210Y-43288D02*
X47210Y-42648D01*
X47210Y-42648D02*
X47530Y-42648D01*
X46058Y-48321D02*
X46058Y-48001D01*
X45618Y-48011D02*
X45618Y-48321D01*
X45518Y-48001D02*
X46158Y-48001D01*
X46158Y-48001D02*
X46158Y-48321D01*
X46158Y-48321D02*
X45518Y-48321D01*
X45518Y-48321D02*
X45518Y-48001D01*
X44279Y-45880D02*
X44279Y-45560D01*
X43839Y-45570D02*
X43839Y-45880D01*
X43739Y-45560D02*
X44379Y-45560D01*
X44379Y-45560D02*
X44379Y-45880D01*
X44379Y-45880D02*
X43739Y-45880D01*
X43739Y-45880D02*
X43739Y-45560D01*
X32204Y-45392D02*
X32204Y-45072D01*
X31764Y-45082D02*
X31764Y-45392D01*
X31664Y-45072D02*
X32304Y-45072D01*
X32304Y-45072D02*
X32304Y-45392D01*
X32304Y-45392D02*
X31664Y-45392D01*
X31664Y-45392D02*
X31664Y-45072D01*
X32101Y-46888D02*
X32101Y-46568D01*
X31661Y-46578D02*
X31661Y-46888D01*
X31561Y-46568D02*
X32201Y-46568D01*
X32201Y-46568D02*
X32201Y-46888D01*
X32201Y-46888D02*
X31561Y-46888D01*
X31561Y-46888D02*
X31561Y-46568D01*
X32109Y-46148D02*
X32109Y-45828D01*
X31669Y-45838D02*
X31669Y-46148D01*
X31569Y-45828D02*
X32209Y-45828D01*
X32209Y-45828D02*
X32209Y-46148D01*
X32209Y-46148D02*
X31569Y-46148D01*
X31569Y-46148D02*
X31569Y-45828D01*
X26000Y-44780D02*
X26000Y-45100D01*
X26440Y-45090D02*
X26440Y-44780D01*
X26540Y-45100D02*
X25900Y-45100D01*
X25900Y-45100D02*
X25900Y-44780D01*
X25900Y-44780D02*
X26540Y-44780D01*
X26540Y-44780D02*
X26540Y-45100D01*
X29649Y-44695D02*
X29649Y-44375D01*
X29209Y-44385D02*
X29209Y-44695D01*
X29109Y-44375D02*
X29749Y-44375D01*
X29749Y-44375D02*
X29749Y-44695D01*
X29749Y-44695D02*
X29109Y-44695D01*
X29109Y-44695D02*
X29109Y-44375D01*
X29641Y-44108D02*
X29641Y-43788D01*
X29201Y-43798D02*
X29201Y-44108D01*
X29101Y-43788D02*
X29741Y-43788D01*
X29741Y-43788D02*
X29741Y-44108D01*
X29741Y-44108D02*
X29101Y-44108D01*
X29101Y-44108D02*
X29101Y-43788D01*
X31251Y-41699D02*
X31251Y-41379D01*
X30811Y-41389D02*
X30811Y-41699D01*
X30711Y-41379D02*
X31351Y-41379D01*
X31351Y-41379D02*
X31351Y-41699D01*
X31351Y-41699D02*
X30711Y-41699D01*
X30711Y-41699D02*
X30711Y-41379D01*
X22737Y-41786D02*
X23057Y-41786D01*
X23047Y-41346D02*
X22737Y-41346D01*
X23057Y-41246D02*
X23057Y-41886D01*
X23057Y-41886D02*
X22737Y-41886D01*
X22737Y-41886D02*
X22737Y-41246D01*
X22737Y-41246D02*
X23057Y-41246D01*
X23065Y-42551D02*
X22745Y-42551D01*
X22755Y-42991D02*
X23065Y-42991D01*
X22745Y-43091D02*
X22745Y-42451D01*
X22745Y-42451D02*
X23065Y-42451D01*
X23065Y-42451D02*
X23065Y-43091D01*
X23065Y-43091D02*
X22745Y-43091D01*
X21840Y-43869D02*
X22160Y-43869D01*
X22150Y-43429D02*
X21840Y-43429D01*
X22160Y-43329D02*
X22160Y-43969D01*
X22160Y-43969D02*
X21840Y-43969D01*
X21840Y-43969D02*
X21840Y-43329D01*
X21840Y-43329D02*
X22160Y-43329D01*
X22179Y-44709D02*
X21859Y-44709D01*
X21869Y-45149D02*
X22179Y-45149D01*
X21859Y-45249D02*
X21859Y-44609D01*
X21859Y-44609D02*
X22179Y-44609D01*
X22179Y-44609D02*
X22179Y-45249D01*
X22179Y-45249D02*
X21859Y-45249D01*
X21231Y-47179D02*
X21231Y-46859D01*
X20791Y-46869D02*
X20791Y-47179D01*
X20691Y-46859D02*
X21331Y-46859D01*
X21331Y-46859D02*
X21331Y-47179D01*
X21331Y-47179D02*
X20691Y-47179D01*
X20691Y-47179D02*
X20691Y-46859D01*
X14106Y-48746D02*
X13786Y-48746D01*
X13796Y-49186D02*
X14106Y-49186D01*
X13786Y-49286D02*
X13786Y-48646D01*
X13786Y-48646D02*
X14106Y-48646D01*
X14106Y-48646D02*
X14106Y-49286D01*
X14106Y-49286D02*
X13786Y-49286D01*
X22054Y-40266D02*
X22054Y-39946D01*
X21614Y-39956D02*
X21614Y-40266D01*
X21514Y-39946D02*
X22154Y-39946D01*
X22154Y-39946D02*
X22154Y-40266D01*
X22154Y-40266D02*
X21514Y-40266D01*
X21514Y-40266D02*
X21514Y-39946D01*
X21560Y-41247D02*
X21880Y-41247D01*
X21870Y-40807D02*
X21560Y-40807D01*
X21880Y-40707D02*
X21880Y-41347D01*
X21880Y-41347D02*
X21560Y-41347D01*
X21560Y-41347D02*
X21560Y-40707D01*
X21560Y-40707D02*
X21880Y-40707D01*
G54D11*
X23866Y-28552D02*
X20866Y-28552D01*
X23866Y-28552D02*
X23866Y-31552D01*
X23866Y-31552D02*
X20866Y-31552D01*
X20866Y-31552D02*
X20866Y-28552D01*
G54D15*
X20284Y-32591D02*
X20284Y-37191D01*
X20284Y-37191D02*
X17884Y-37191D01*
X17884Y-37191D02*
X17884Y-32591D01*
X17884Y-32591D02*
X20284Y-32591D01*
G54D16*
X25638Y-42803D02*
X25638Y-41039D01*
X25834Y-42999D02*
X27598Y-42999D01*
X25834Y-42999D02*
X25638Y-42803D01*
G54D13*
X25932Y-42803D02*
X25834Y-42803D01*
X25834Y-42803D02*
X25834Y-42705D01*
X27402Y-42705D02*
X27402Y-42803D01*
X27402Y-42803D02*
X27304Y-42803D01*
X27304Y-41235D02*
X27402Y-41235D01*
X27402Y-41235D02*
X27402Y-41333D01*
X25834Y-41333D02*
X25834Y-41235D01*
X25834Y-41235D02*
X25932Y-41235D01*
G54D16*
X27598Y-41039D02*
X27598Y-42999D01*
X25638Y-41039D02*
X27598Y-41039D01*
G54D15*
X35915Y-40295D02*
X41427Y-40295D01*
X41427Y-40295D02*
X41427Y-45807D01*
X41427Y-45807D02*
X35915Y-45807D01*
X35915Y-45807D02*
X35915Y-40295D01*
X36157Y-40503D02*
G75*
G03X36157Y-40503I-53J0D01*
G74*
G01*
G54D17*
X20642Y-57060D02*
X20642Y-57274D01*
X20628Y-57317D01*
X20600Y-57345D01*
X20557Y-57360D01*
X20528Y-57360D01*
X20942Y-57360D02*
X20771Y-57360D01*
X20857Y-57360D02*
X20857Y-57060D01*
X20828Y-57102D01*
X20800Y-57131D01*
X20771Y-57145D01*
X21114Y-57188D02*
X21085Y-57174D01*
X21071Y-57160D01*
X21057Y-57131D01*
X21057Y-57117D01*
X21071Y-57088D01*
X21085Y-57074D01*
X21114Y-57060D01*
X21171Y-57060D01*
X21200Y-57074D01*
X21214Y-57088D01*
X21228Y-57117D01*
X21228Y-57131D01*
X21214Y-57160D01*
X21200Y-57174D01*
X21171Y-57188D01*
X21114Y-57188D01*
X21085Y-57202D01*
X21071Y-57217D01*
X21057Y-57245D01*
X21057Y-57302D01*
X21071Y-57331D01*
X21085Y-57345D01*
X21114Y-57360D01*
X21171Y-57360D01*
X21200Y-57345D01*
X21214Y-57331D01*
X21228Y-57302D01*
X21228Y-57245D01*
X21214Y-57217D01*
X21200Y-57202D01*
X21171Y-57188D01*
X19744Y-53226D02*
X19744Y-52926D01*
X19744Y-53069D02*
X19915Y-53069D01*
X19915Y-53226D02*
X19915Y-52926D01*
X20058Y-53069D02*
X20158Y-53069D01*
X20201Y-53226D02*
X20058Y-53226D01*
X20058Y-52926D01*
X20201Y-52926D01*
X20315Y-53140D02*
X20458Y-53140D01*
X20287Y-53226D02*
X20387Y-52926D01*
X20487Y-53226D01*
X20587Y-53226D02*
X20587Y-52926D01*
X20658Y-52926D01*
X20701Y-52940D01*
X20729Y-52969D01*
X20744Y-52997D01*
X20758Y-53054D01*
X20758Y-53097D01*
X20744Y-53154D01*
X20729Y-53183D01*
X20701Y-53211D01*
X20658Y-53226D01*
X20587Y-53226D01*
X20887Y-53069D02*
X20987Y-53069D01*
X21029Y-53226D02*
X20887Y-53226D01*
X20887Y-52926D01*
X21029Y-52926D01*
X21329Y-53226D02*
X21229Y-53083D01*
X21158Y-53226D02*
X21158Y-52926D01*
X21272Y-52926D01*
X21301Y-52940D01*
X21315Y-52954D01*
X21329Y-52983D01*
X21329Y-53026D01*
X21315Y-53054D01*
X21301Y-53069D01*
X21272Y-53083D01*
X21158Y-53083D01*
X21387Y-53254D02*
X21615Y-53254D01*
X21658Y-52926D02*
X21844Y-52926D01*
X21744Y-53040D01*
X21787Y-53040D01*
X21815Y-53054D01*
X21829Y-53069D01*
X21844Y-53097D01*
X21844Y-53169D01*
X21829Y-53197D01*
X21815Y-53211D01*
X21787Y-53226D01*
X21701Y-53226D01*
X21672Y-53211D01*
X21658Y-53197D01*
X21944Y-52926D02*
X22144Y-53226D01*
X22144Y-52926D02*
X21944Y-53226D01*
X22244Y-52954D02*
X22258Y-52940D01*
X22287Y-52926D01*
X22358Y-52926D01*
X22387Y-52940D01*
X22401Y-52954D01*
X22415Y-52983D01*
X22415Y-53011D01*
X22401Y-53054D01*
X22229Y-53226D01*
X22415Y-53226D01*
X26154Y-57060D02*
X26154Y-57274D01*
X26140Y-57317D01*
X26111Y-57345D01*
X26069Y-57360D01*
X26040Y-57360D01*
X26454Y-57360D02*
X26283Y-57360D01*
X26369Y-57360D02*
X26369Y-57060D01*
X26340Y-57102D01*
X26311Y-57131D01*
X26283Y-57145D01*
X26554Y-57060D02*
X26754Y-57060D01*
X26626Y-57360D01*
X25256Y-53226D02*
X25256Y-52926D01*
X25256Y-53069D02*
X25427Y-53069D01*
X25427Y-53226D02*
X25427Y-52926D01*
X25570Y-53069D02*
X25670Y-53069D01*
X25713Y-53226D02*
X25570Y-53226D01*
X25570Y-52926D01*
X25713Y-52926D01*
X25827Y-53140D02*
X25970Y-53140D01*
X25798Y-53226D02*
X25898Y-52926D01*
X25998Y-53226D01*
X26098Y-53226D02*
X26098Y-52926D01*
X26170Y-52926D01*
X26213Y-52940D01*
X26241Y-52969D01*
X26256Y-52997D01*
X26270Y-53054D01*
X26270Y-53097D01*
X26256Y-53154D01*
X26241Y-53183D01*
X26213Y-53211D01*
X26170Y-53226D01*
X26098Y-53226D01*
X26398Y-53069D02*
X26498Y-53069D01*
X26541Y-53226D02*
X26398Y-53226D01*
X26398Y-52926D01*
X26541Y-52926D01*
X26841Y-53226D02*
X26741Y-53083D01*
X26670Y-53226D02*
X26670Y-52926D01*
X26784Y-52926D01*
X26813Y-52940D01*
X26827Y-52954D01*
X26841Y-52983D01*
X26841Y-53026D01*
X26827Y-53054D01*
X26813Y-53069D01*
X26784Y-53083D01*
X26670Y-53083D01*
X26898Y-53254D02*
X27127Y-53254D01*
X27170Y-52926D02*
X27356Y-52926D01*
X27256Y-53040D01*
X27298Y-53040D01*
X27327Y-53054D01*
X27341Y-53069D01*
X27356Y-53097D01*
X27356Y-53169D01*
X27341Y-53197D01*
X27327Y-53211D01*
X27298Y-53226D01*
X27213Y-53226D01*
X27184Y-53211D01*
X27170Y-53197D01*
X27456Y-52926D02*
X27656Y-53226D01*
X27656Y-52926D02*
X27456Y-53226D01*
X27756Y-52954D02*
X27770Y-52940D01*
X27798Y-52926D01*
X27870Y-52926D01*
X27898Y-52940D01*
X27913Y-52954D01*
X27927Y-52983D01*
X27927Y-53011D01*
X27913Y-53054D01*
X27741Y-53226D01*
X27927Y-53226D01*
X31666Y-57060D02*
X31666Y-57274D01*
X31652Y-57317D01*
X31623Y-57345D01*
X31580Y-57360D01*
X31552Y-57360D01*
X31966Y-57360D02*
X31795Y-57360D01*
X31880Y-57360D02*
X31880Y-57060D01*
X31852Y-57102D01*
X31823Y-57131D01*
X31795Y-57145D01*
X32223Y-57060D02*
X32166Y-57060D01*
X32138Y-57074D01*
X32123Y-57088D01*
X32095Y-57131D01*
X32080Y-57188D01*
X32080Y-57302D01*
X32095Y-57331D01*
X32109Y-57345D01*
X32138Y-57360D01*
X32195Y-57360D01*
X32223Y-57345D01*
X32238Y-57331D01*
X32252Y-57302D01*
X32252Y-57231D01*
X32238Y-57202D01*
X32223Y-57188D01*
X32195Y-57174D01*
X32138Y-57174D01*
X32109Y-57188D01*
X32095Y-57202D01*
X32080Y-57231D01*
X30767Y-53226D02*
X30767Y-52926D01*
X30767Y-53069D02*
X30939Y-53069D01*
X30939Y-53226D02*
X30939Y-52926D01*
X31082Y-53069D02*
X31182Y-53069D01*
X31225Y-53226D02*
X31082Y-53226D01*
X31082Y-52926D01*
X31225Y-52926D01*
X31339Y-53140D02*
X31482Y-53140D01*
X31310Y-53226D02*
X31410Y-52926D01*
X31510Y-53226D01*
X31610Y-53226D02*
X31610Y-52926D01*
X31682Y-52926D01*
X31725Y-52940D01*
X31753Y-52969D01*
X31767Y-52997D01*
X31782Y-53054D01*
X31782Y-53097D01*
X31767Y-53154D01*
X31753Y-53183D01*
X31725Y-53211D01*
X31682Y-53226D01*
X31610Y-53226D01*
X31910Y-53069D02*
X32010Y-53069D01*
X32053Y-53226D02*
X31910Y-53226D01*
X31910Y-52926D01*
X32053Y-52926D01*
X32353Y-53226D02*
X32253Y-53083D01*
X32182Y-53226D02*
X32182Y-52926D01*
X32296Y-52926D01*
X32325Y-52940D01*
X32339Y-52954D01*
X32353Y-52983D01*
X32353Y-53026D01*
X32339Y-53054D01*
X32325Y-53069D01*
X32296Y-53083D01*
X32182Y-53083D01*
X32410Y-53254D02*
X32639Y-53254D01*
X32682Y-52926D02*
X32867Y-52926D01*
X32767Y-53040D01*
X32810Y-53040D01*
X32839Y-53054D01*
X32853Y-53069D01*
X32867Y-53097D01*
X32867Y-53169D01*
X32853Y-53197D01*
X32839Y-53211D01*
X32810Y-53226D01*
X32725Y-53226D01*
X32696Y-53211D01*
X32682Y-53197D01*
X32967Y-52926D02*
X33167Y-53226D01*
X33167Y-52926D02*
X32967Y-53226D01*
X33267Y-52954D02*
X33282Y-52940D01*
X33310Y-52926D01*
X33382Y-52926D01*
X33410Y-52940D01*
X33425Y-52954D01*
X33439Y-52983D01*
X33439Y-53011D01*
X33425Y-53054D01*
X33253Y-53226D01*
X33439Y-53226D01*
X37178Y-57060D02*
X37178Y-57274D01*
X37164Y-57317D01*
X37135Y-57345D01*
X37092Y-57360D01*
X37064Y-57360D01*
X37478Y-57360D02*
X37306Y-57360D01*
X37392Y-57360D02*
X37392Y-57060D01*
X37364Y-57102D01*
X37335Y-57131D01*
X37306Y-57145D01*
X37749Y-57060D02*
X37606Y-57060D01*
X37592Y-57202D01*
X37606Y-57188D01*
X37635Y-57174D01*
X37706Y-57174D01*
X37735Y-57188D01*
X37749Y-57202D01*
X37764Y-57231D01*
X37764Y-57302D01*
X37749Y-57331D01*
X37735Y-57345D01*
X37706Y-57360D01*
X37635Y-57360D01*
X37606Y-57345D01*
X37592Y-57331D01*
X36279Y-53226D02*
X36279Y-52926D01*
X36279Y-53069D02*
X36451Y-53069D01*
X36451Y-53226D02*
X36451Y-52926D01*
X36593Y-53069D02*
X36693Y-53069D01*
X36736Y-53226D02*
X36593Y-53226D01*
X36593Y-52926D01*
X36736Y-52926D01*
X36851Y-53140D02*
X36993Y-53140D01*
X36822Y-53226D02*
X36922Y-52926D01*
X37022Y-53226D01*
X37122Y-53226D02*
X37122Y-52926D01*
X37193Y-52926D01*
X37236Y-52940D01*
X37265Y-52969D01*
X37279Y-52997D01*
X37293Y-53054D01*
X37293Y-53097D01*
X37279Y-53154D01*
X37265Y-53183D01*
X37236Y-53211D01*
X37193Y-53226D01*
X37122Y-53226D01*
X37422Y-53069D02*
X37522Y-53069D01*
X37565Y-53226D02*
X37422Y-53226D01*
X37422Y-52926D01*
X37565Y-52926D01*
X37865Y-53226D02*
X37765Y-53083D01*
X37693Y-53226D02*
X37693Y-52926D01*
X37808Y-52926D01*
X37836Y-52940D01*
X37851Y-52954D01*
X37865Y-52983D01*
X37865Y-53026D01*
X37851Y-53054D01*
X37836Y-53069D01*
X37808Y-53083D01*
X37693Y-53083D01*
X37922Y-53254D02*
X38151Y-53254D01*
X38193Y-52926D02*
X38379Y-52926D01*
X38279Y-53040D01*
X38322Y-53040D01*
X38351Y-53054D01*
X38365Y-53069D01*
X38379Y-53097D01*
X38379Y-53169D01*
X38365Y-53197D01*
X38351Y-53211D01*
X38322Y-53226D01*
X38236Y-53226D01*
X38208Y-53211D01*
X38193Y-53197D01*
X38479Y-52926D02*
X38679Y-53226D01*
X38679Y-52926D02*
X38479Y-53226D01*
X38779Y-52954D02*
X38793Y-52940D01*
X38822Y-52926D01*
X38893Y-52926D01*
X38922Y-52940D01*
X38936Y-52954D01*
X38951Y-52983D01*
X38951Y-53011D01*
X38936Y-53054D01*
X38765Y-53226D01*
X38951Y-53226D01*
X42690Y-57060D02*
X42690Y-57274D01*
X42675Y-57317D01*
X42647Y-57345D01*
X42604Y-57360D01*
X42575Y-57360D01*
X42990Y-57360D02*
X42818Y-57360D01*
X42904Y-57360D02*
X42904Y-57060D01*
X42875Y-57102D01*
X42847Y-57131D01*
X42818Y-57145D01*
X43247Y-57160D02*
X43247Y-57360D01*
X43175Y-57045D02*
X43104Y-57260D01*
X43290Y-57260D01*
X41791Y-53226D02*
X41791Y-52926D01*
X41791Y-53069D02*
X41962Y-53069D01*
X41962Y-53226D02*
X41962Y-52926D01*
X42105Y-53069D02*
X42205Y-53069D01*
X42248Y-53226D02*
X42105Y-53226D01*
X42105Y-52926D01*
X42248Y-52926D01*
X42362Y-53140D02*
X42505Y-53140D01*
X42334Y-53226D02*
X42434Y-52926D01*
X42534Y-53226D01*
X42634Y-53226D02*
X42634Y-52926D01*
X42705Y-52926D01*
X42748Y-52940D01*
X42777Y-52969D01*
X42791Y-52997D01*
X42805Y-53054D01*
X42805Y-53097D01*
X42791Y-53154D01*
X42777Y-53183D01*
X42748Y-53211D01*
X42705Y-53226D01*
X42634Y-53226D01*
X42934Y-53069D02*
X43034Y-53069D01*
X43077Y-53226D02*
X42934Y-53226D01*
X42934Y-52926D01*
X43077Y-52926D01*
X43377Y-53226D02*
X43277Y-53083D01*
X43205Y-53226D02*
X43205Y-52926D01*
X43320Y-52926D01*
X43348Y-52940D01*
X43362Y-52954D01*
X43377Y-52983D01*
X43377Y-53026D01*
X43362Y-53054D01*
X43348Y-53069D01*
X43320Y-53083D01*
X43205Y-53083D01*
X43434Y-53254D02*
X43662Y-53254D01*
X43705Y-52926D02*
X43891Y-52926D01*
X43791Y-53040D01*
X43834Y-53040D01*
X43862Y-53054D01*
X43877Y-53069D01*
X43891Y-53097D01*
X43891Y-53169D01*
X43877Y-53197D01*
X43862Y-53211D01*
X43834Y-53226D01*
X43748Y-53226D01*
X43720Y-53211D01*
X43705Y-53197D01*
X43991Y-52926D02*
X44191Y-53226D01*
X44191Y-52926D02*
X43991Y-53226D01*
X44291Y-52954D02*
X44305Y-52940D01*
X44334Y-52926D01*
X44405Y-52926D01*
X44434Y-52940D01*
X44448Y-52954D01*
X44462Y-52983D01*
X44462Y-53011D01*
X44448Y-53054D01*
X44277Y-53226D01*
X44462Y-53226D01*
X48202Y-57060D02*
X48202Y-57274D01*
X48187Y-57317D01*
X48159Y-57345D01*
X48116Y-57360D01*
X48087Y-57360D01*
X48502Y-57360D02*
X48330Y-57360D01*
X48416Y-57360D02*
X48416Y-57060D01*
X48387Y-57102D01*
X48359Y-57131D01*
X48330Y-57145D01*
X48602Y-57060D02*
X48787Y-57060D01*
X48687Y-57174D01*
X48730Y-57174D01*
X48759Y-57188D01*
X48773Y-57202D01*
X48787Y-57231D01*
X48787Y-57302D01*
X48773Y-57331D01*
X48759Y-57345D01*
X48730Y-57360D01*
X48644Y-57360D01*
X48616Y-57345D01*
X48602Y-57331D01*
X47303Y-53226D02*
X47303Y-52926D01*
X47303Y-53069D02*
X47474Y-53069D01*
X47474Y-53226D02*
X47474Y-52926D01*
X47617Y-53069D02*
X47717Y-53069D01*
X47760Y-53226D02*
X47617Y-53226D01*
X47617Y-52926D01*
X47760Y-52926D01*
X47874Y-53140D02*
X48017Y-53140D01*
X47846Y-53226D02*
X47946Y-52926D01*
X48046Y-53226D01*
X48146Y-53226D02*
X48146Y-52926D01*
X48217Y-52926D01*
X48260Y-52940D01*
X48289Y-52969D01*
X48303Y-52997D01*
X48317Y-53054D01*
X48317Y-53097D01*
X48303Y-53154D01*
X48289Y-53183D01*
X48260Y-53211D01*
X48217Y-53226D01*
X48146Y-53226D01*
X48446Y-53069D02*
X48546Y-53069D01*
X48589Y-53226D02*
X48446Y-53226D01*
X48446Y-52926D01*
X48589Y-52926D01*
X48889Y-53226D02*
X48789Y-53083D01*
X48717Y-53226D02*
X48717Y-52926D01*
X48831Y-52926D01*
X48860Y-52940D01*
X48874Y-52954D01*
X48889Y-52983D01*
X48889Y-53026D01*
X48874Y-53054D01*
X48860Y-53069D01*
X48831Y-53083D01*
X48717Y-53083D01*
X48946Y-53254D02*
X49174Y-53254D01*
X49217Y-52926D02*
X49403Y-52926D01*
X49303Y-53040D01*
X49346Y-53040D01*
X49374Y-53054D01*
X49389Y-53069D01*
X49403Y-53097D01*
X49403Y-53169D01*
X49389Y-53197D01*
X49374Y-53211D01*
X49346Y-53226D01*
X49260Y-53226D01*
X49231Y-53211D01*
X49217Y-53197D01*
X49503Y-52926D02*
X49703Y-53226D01*
X49703Y-52926D02*
X49503Y-53226D01*
X49803Y-52954D02*
X49817Y-52940D01*
X49846Y-52926D01*
X49917Y-52926D01*
X49946Y-52940D01*
X49960Y-52954D01*
X49974Y-52983D01*
X49974Y-53011D01*
X49960Y-53054D01*
X49789Y-53226D01*
X49974Y-53226D01*
X51666Y-50262D02*
X51880Y-50262D01*
X51923Y-50276D01*
X51952Y-50305D01*
X51966Y-50348D01*
X51966Y-50376D01*
X51966Y-49962D02*
X51966Y-50133D01*
X51966Y-50048D02*
X51666Y-50048D01*
X51709Y-50076D01*
X51737Y-50105D01*
X51752Y-50133D01*
X51694Y-49848D02*
X51680Y-49833D01*
X51666Y-49805D01*
X51666Y-49733D01*
X51680Y-49705D01*
X51694Y-49691D01*
X51723Y-49676D01*
X51752Y-49676D01*
X51794Y-49691D01*
X51966Y-49862D01*
X51966Y-49676D01*
X56100Y-51535D02*
X55800Y-51535D01*
X55943Y-51535D02*
X55943Y-51363D01*
X56100Y-51363D02*
X55800Y-51363D01*
X55943Y-51220D02*
X55943Y-51120D01*
X56100Y-51078D02*
X56100Y-51220D01*
X55800Y-51220D01*
X55800Y-51078D01*
X56014Y-50963D02*
X56014Y-50820D01*
X56100Y-50992D02*
X55800Y-50892D01*
X56100Y-50792D01*
X56100Y-50692D02*
X55800Y-50692D01*
X55800Y-50620D01*
X55814Y-50578D01*
X55843Y-50549D01*
X55871Y-50535D01*
X55928Y-50520D01*
X55971Y-50520D01*
X56028Y-50535D01*
X56057Y-50549D01*
X56085Y-50578D01*
X56100Y-50620D01*
X56100Y-50692D01*
X55943Y-50392D02*
X55943Y-50292D01*
X56100Y-50249D02*
X56100Y-50392D01*
X55800Y-50392D01*
X55800Y-50249D01*
X56100Y-49949D02*
X55957Y-50049D01*
X56100Y-50120D02*
X55800Y-50120D01*
X55800Y-50006D01*
X55814Y-49978D01*
X55828Y-49963D01*
X55857Y-49949D01*
X55900Y-49949D01*
X55928Y-49963D01*
X55943Y-49978D01*
X55957Y-50006D01*
X55957Y-50120D01*
X56128Y-49892D02*
X56128Y-49663D01*
X55800Y-49620D02*
X55800Y-49435D01*
X55914Y-49535D01*
X55914Y-49492D01*
X55928Y-49463D01*
X55943Y-49449D01*
X55971Y-49435D01*
X56043Y-49435D01*
X56071Y-49449D01*
X56085Y-49463D01*
X56100Y-49492D01*
X56100Y-49578D01*
X56085Y-49606D01*
X56071Y-49620D01*
X55800Y-49335D02*
X56100Y-49135D01*
X55800Y-49135D02*
X56100Y-49335D01*
X55828Y-49035D02*
X55814Y-49020D01*
X55800Y-48992D01*
X55800Y-48920D01*
X55814Y-48892D01*
X55828Y-48878D01*
X55857Y-48863D01*
X55885Y-48863D01*
X55928Y-48878D01*
X56100Y-49049D01*
X56100Y-48863D01*
X51666Y-44750D02*
X51880Y-44750D01*
X51923Y-44765D01*
X51952Y-44793D01*
X51966Y-44836D01*
X51966Y-44865D01*
X51966Y-44450D02*
X51966Y-44622D01*
X51966Y-44536D02*
X51666Y-44536D01*
X51709Y-44565D01*
X51737Y-44593D01*
X51752Y-44622D01*
X51966Y-44165D02*
X51966Y-44336D01*
X51966Y-44250D02*
X51666Y-44250D01*
X51709Y-44279D01*
X51737Y-44307D01*
X51752Y-44336D01*
X56100Y-46023D02*
X55800Y-46023D01*
X55943Y-46023D02*
X55943Y-45852D01*
X56100Y-45852D02*
X55800Y-45852D01*
X55943Y-45709D02*
X55943Y-45609D01*
X56100Y-45566D02*
X56100Y-45709D01*
X55800Y-45709D01*
X55800Y-45566D01*
X56014Y-45452D02*
X56014Y-45309D01*
X56100Y-45480D02*
X55800Y-45380D01*
X56100Y-45280D01*
X56100Y-45180D02*
X55800Y-45180D01*
X55800Y-45109D01*
X55814Y-45066D01*
X55843Y-45037D01*
X55871Y-45023D01*
X55928Y-45009D01*
X55971Y-45009D01*
X56028Y-45023D01*
X56057Y-45037D01*
X56085Y-45066D01*
X56100Y-45109D01*
X56100Y-45180D01*
X55943Y-44880D02*
X55943Y-44780D01*
X56100Y-44737D02*
X56100Y-44880D01*
X55800Y-44880D01*
X55800Y-44737D01*
X56100Y-44437D02*
X55957Y-44537D01*
X56100Y-44609D02*
X55800Y-44609D01*
X55800Y-44494D01*
X55814Y-44466D01*
X55828Y-44452D01*
X55857Y-44437D01*
X55900Y-44437D01*
X55928Y-44452D01*
X55943Y-44466D01*
X55957Y-44494D01*
X55957Y-44609D01*
X56128Y-44380D02*
X56128Y-44152D01*
X55800Y-44109D02*
X55800Y-43923D01*
X55914Y-44023D01*
X55914Y-43980D01*
X55928Y-43952D01*
X55943Y-43937D01*
X55971Y-43923D01*
X56043Y-43923D01*
X56071Y-43937D01*
X56085Y-43952D01*
X56100Y-43980D01*
X56100Y-44066D01*
X56085Y-44094D01*
X56071Y-44109D01*
X55800Y-43823D02*
X56100Y-43623D01*
X55800Y-43623D02*
X56100Y-43823D01*
X55828Y-43523D02*
X55814Y-43509D01*
X55800Y-43480D01*
X55800Y-43409D01*
X55814Y-43380D01*
X55828Y-43366D01*
X55857Y-43352D01*
X55885Y-43352D01*
X55928Y-43366D01*
X56100Y-43537D01*
X56100Y-43352D01*
X51666Y-39238D02*
X51880Y-39238D01*
X51923Y-39253D01*
X51952Y-39281D01*
X51966Y-39324D01*
X51966Y-39353D01*
X51966Y-38938D02*
X51966Y-39110D01*
X51966Y-39024D02*
X51666Y-39024D01*
X51709Y-39053D01*
X51737Y-39081D01*
X51752Y-39110D01*
X51666Y-38753D02*
X51666Y-38724D01*
X51680Y-38696D01*
X51694Y-38681D01*
X51723Y-38667D01*
X51780Y-38653D01*
X51852Y-38653D01*
X51909Y-38667D01*
X51937Y-38681D01*
X51952Y-38696D01*
X51966Y-38724D01*
X51966Y-38753D01*
X51952Y-38781D01*
X51937Y-38796D01*
X51909Y-38810D01*
X51852Y-38824D01*
X51780Y-38824D01*
X51723Y-38810D01*
X51694Y-38796D01*
X51680Y-38781D01*
X51666Y-38753D01*
X56100Y-40511D02*
X55800Y-40511D01*
X55943Y-40511D02*
X55943Y-40340D01*
X56100Y-40340D02*
X55800Y-40340D01*
X55943Y-40197D02*
X55943Y-40097D01*
X56100Y-40054D02*
X56100Y-40197D01*
X55800Y-40197D01*
X55800Y-40054D01*
X56014Y-39940D02*
X56014Y-39797D01*
X56100Y-39968D02*
X55800Y-39868D01*
X56100Y-39768D01*
X56100Y-39668D02*
X55800Y-39668D01*
X55800Y-39597D01*
X55814Y-39554D01*
X55843Y-39525D01*
X55871Y-39511D01*
X55928Y-39497D01*
X55971Y-39497D01*
X56028Y-39511D01*
X56057Y-39525D01*
X56085Y-39554D01*
X56100Y-39597D01*
X56100Y-39668D01*
X55943Y-39368D02*
X55943Y-39268D01*
X56100Y-39225D02*
X56100Y-39368D01*
X55800Y-39368D01*
X55800Y-39225D01*
X56100Y-38925D02*
X55957Y-39025D01*
X56100Y-39097D02*
X55800Y-39097D01*
X55800Y-38983D01*
X55814Y-38954D01*
X55828Y-38940D01*
X55857Y-38925D01*
X55900Y-38925D01*
X55928Y-38940D01*
X55943Y-38954D01*
X55957Y-38983D01*
X55957Y-39097D01*
X56128Y-38868D02*
X56128Y-38640D01*
X55800Y-38597D02*
X55800Y-38411D01*
X55914Y-38511D01*
X55914Y-38468D01*
X55928Y-38440D01*
X55943Y-38425D01*
X55971Y-38411D01*
X56043Y-38411D01*
X56071Y-38425D01*
X56085Y-38440D01*
X56100Y-38468D01*
X56100Y-38554D01*
X56085Y-38583D01*
X56071Y-38597D01*
X55800Y-38311D02*
X56100Y-38111D01*
X55800Y-38111D02*
X56100Y-38311D01*
X55828Y-38011D02*
X55814Y-37997D01*
X55800Y-37968D01*
X55800Y-37897D01*
X55814Y-37868D01*
X55828Y-37854D01*
X55857Y-37840D01*
X55885Y-37840D01*
X55928Y-37854D01*
X56100Y-38025D01*
X56100Y-37840D01*
X51666Y-33584D02*
X51880Y-33584D01*
X51923Y-33598D01*
X51952Y-33627D01*
X51966Y-33669D01*
X51966Y-33698D01*
X51966Y-33427D02*
X51966Y-33369D01*
X51952Y-33341D01*
X51937Y-33327D01*
X51894Y-33298D01*
X51837Y-33284D01*
X51723Y-33284D01*
X51694Y-33298D01*
X51680Y-33312D01*
X51666Y-33341D01*
X51666Y-33398D01*
X51680Y-33427D01*
X51694Y-33441D01*
X51723Y-33455D01*
X51794Y-33455D01*
X51823Y-33441D01*
X51837Y-33427D01*
X51852Y-33398D01*
X51852Y-33341D01*
X51837Y-33312D01*
X51823Y-33298D01*
X51794Y-33284D01*
X56100Y-34999D02*
X55800Y-34999D01*
X55943Y-34999D02*
X55943Y-34828D01*
X56100Y-34828D02*
X55800Y-34828D01*
X55943Y-34685D02*
X55943Y-34585D01*
X56100Y-34542D02*
X56100Y-34685D01*
X55800Y-34685D01*
X55800Y-34542D01*
X56014Y-34428D02*
X56014Y-34285D01*
X56100Y-34456D02*
X55800Y-34356D01*
X56100Y-34256D01*
X56100Y-34156D02*
X55800Y-34156D01*
X55800Y-34085D01*
X55814Y-34042D01*
X55843Y-34014D01*
X55871Y-33999D01*
X55928Y-33985D01*
X55971Y-33985D01*
X56028Y-33999D01*
X56057Y-34014D01*
X56085Y-34042D01*
X56100Y-34085D01*
X56100Y-34156D01*
X55943Y-33856D02*
X55943Y-33756D01*
X56100Y-33714D02*
X56100Y-33856D01*
X55800Y-33856D01*
X55800Y-33714D01*
X56100Y-33414D02*
X55957Y-33514D01*
X56100Y-33585D02*
X55800Y-33585D01*
X55800Y-33471D01*
X55814Y-33442D01*
X55828Y-33428D01*
X55857Y-33414D01*
X55900Y-33414D01*
X55928Y-33428D01*
X55943Y-33442D01*
X55957Y-33471D01*
X55957Y-33585D01*
X56128Y-33356D02*
X56128Y-33128D01*
X55800Y-33085D02*
X55800Y-32899D01*
X55914Y-32999D01*
X55914Y-32956D01*
X55928Y-32928D01*
X55943Y-32914D01*
X55971Y-32899D01*
X56043Y-32899D01*
X56071Y-32914D01*
X56085Y-32928D01*
X56100Y-32956D01*
X56100Y-33042D01*
X56085Y-33071D01*
X56071Y-33085D01*
X55800Y-32799D02*
X56100Y-32599D01*
X55800Y-32599D02*
X56100Y-32799D01*
X55828Y-32499D02*
X55814Y-32485D01*
X55800Y-32456D01*
X55800Y-32385D01*
X55814Y-32356D01*
X55828Y-32342D01*
X55857Y-32328D01*
X55885Y-32328D01*
X55928Y-32342D01*
X56100Y-32514D01*
X56100Y-32328D01*
X49844Y-31994D02*
X49844Y-32209D01*
X49830Y-32251D01*
X49802Y-32280D01*
X49759Y-32294D01*
X49730Y-32294D01*
X50030Y-32123D02*
X50002Y-32109D01*
X49987Y-32094D01*
X49973Y-32066D01*
X49973Y-32051D01*
X49987Y-32023D01*
X50002Y-32009D01*
X50030Y-31994D01*
X50087Y-31994D01*
X50116Y-32009D01*
X50130Y-32023D01*
X50144Y-32051D01*
X50144Y-32066D01*
X50130Y-32094D01*
X50116Y-32109D01*
X50087Y-32123D01*
X50030Y-32123D01*
X50002Y-32137D01*
X49987Y-32151D01*
X49973Y-32180D01*
X49973Y-32237D01*
X49987Y-32266D01*
X50002Y-32280D01*
X50030Y-32294D01*
X50087Y-32294D01*
X50116Y-32280D01*
X50130Y-32266D01*
X50144Y-32237D01*
X50144Y-32180D01*
X50130Y-32151D01*
X50116Y-32137D01*
X50087Y-32123D01*
X48803Y-28160D02*
X48803Y-27860D01*
X48803Y-28003D02*
X48974Y-28003D01*
X48974Y-28160D02*
X48974Y-27860D01*
X49117Y-28003D02*
X49217Y-28003D01*
X49260Y-28160D02*
X49117Y-28160D01*
X49117Y-27860D01*
X49260Y-27860D01*
X49374Y-28075D02*
X49517Y-28075D01*
X49346Y-28160D02*
X49446Y-27860D01*
X49546Y-28160D01*
X49646Y-28160D02*
X49646Y-27860D01*
X49717Y-27860D01*
X49760Y-27875D01*
X49789Y-27903D01*
X49803Y-27932D01*
X49817Y-27989D01*
X49817Y-28032D01*
X49803Y-28089D01*
X49789Y-28118D01*
X49760Y-28146D01*
X49717Y-28160D01*
X49646Y-28160D01*
X49946Y-28003D02*
X50046Y-28003D01*
X50089Y-28160D02*
X49946Y-28160D01*
X49946Y-27860D01*
X50089Y-27860D01*
X50389Y-28160D02*
X50289Y-28018D01*
X50217Y-28160D02*
X50217Y-27860D01*
X50331Y-27860D01*
X50360Y-27875D01*
X50374Y-27889D01*
X50389Y-27918D01*
X50389Y-27960D01*
X50374Y-27989D01*
X50360Y-28003D01*
X50331Y-28018D01*
X50217Y-28018D01*
X50446Y-28189D02*
X50674Y-28189D01*
X50717Y-27860D02*
X50903Y-27860D01*
X50803Y-27975D01*
X50846Y-27975D01*
X50874Y-27989D01*
X50889Y-28003D01*
X50903Y-28032D01*
X50903Y-28103D01*
X50889Y-28132D01*
X50874Y-28146D01*
X50846Y-28160D01*
X50760Y-28160D01*
X50731Y-28146D01*
X50717Y-28132D01*
X51003Y-27860D02*
X51203Y-28160D01*
X51203Y-27860D02*
X51003Y-28160D01*
X51303Y-27889D02*
X51317Y-27875D01*
X51346Y-27860D01*
X51417Y-27860D01*
X51446Y-27875D01*
X51460Y-27889D01*
X51474Y-27918D01*
X51474Y-27946D01*
X51460Y-27989D01*
X51289Y-28160D01*
X51474Y-28160D01*
X44333Y-31994D02*
X44333Y-32209D01*
X44318Y-32251D01*
X44290Y-32280D01*
X44247Y-32294D01*
X44218Y-32294D01*
X44447Y-31994D02*
X44647Y-31994D01*
X44518Y-32294D01*
X43291Y-28160D02*
X43291Y-27860D01*
X43291Y-28003D02*
X43462Y-28003D01*
X43462Y-28160D02*
X43462Y-27860D01*
X43605Y-28003D02*
X43705Y-28003D01*
X43748Y-28160D02*
X43605Y-28160D01*
X43605Y-27860D01*
X43748Y-27860D01*
X43862Y-28075D02*
X44005Y-28075D01*
X43834Y-28160D02*
X43934Y-27860D01*
X44034Y-28160D01*
X44134Y-28160D02*
X44134Y-27860D01*
X44205Y-27860D01*
X44248Y-27875D01*
X44277Y-27903D01*
X44291Y-27932D01*
X44305Y-27989D01*
X44305Y-28032D01*
X44291Y-28089D01*
X44277Y-28118D01*
X44248Y-28146D01*
X44205Y-28160D01*
X44134Y-28160D01*
X44434Y-28003D02*
X44534Y-28003D01*
X44577Y-28160D02*
X44434Y-28160D01*
X44434Y-27860D01*
X44577Y-27860D01*
X44877Y-28160D02*
X44777Y-28018D01*
X44705Y-28160D02*
X44705Y-27860D01*
X44820Y-27860D01*
X44848Y-27875D01*
X44862Y-27889D01*
X44877Y-27918D01*
X44877Y-27960D01*
X44862Y-27989D01*
X44848Y-28003D01*
X44820Y-28018D01*
X44705Y-28018D01*
X44934Y-28189D02*
X45162Y-28189D01*
X45205Y-27860D02*
X45391Y-27860D01*
X45291Y-27975D01*
X45334Y-27975D01*
X45362Y-27989D01*
X45377Y-28003D01*
X45391Y-28032D01*
X45391Y-28103D01*
X45377Y-28132D01*
X45362Y-28146D01*
X45334Y-28160D01*
X45248Y-28160D01*
X45220Y-28146D01*
X45205Y-28132D01*
X45491Y-27860D02*
X45691Y-28160D01*
X45691Y-27860D02*
X45491Y-28160D01*
X45791Y-27889D02*
X45805Y-27875D01*
X45834Y-27860D01*
X45905Y-27860D01*
X45934Y-27875D01*
X45948Y-27889D01*
X45962Y-27918D01*
X45962Y-27946D01*
X45948Y-27989D01*
X45777Y-28160D01*
X45962Y-28160D01*
X38821Y-31994D02*
X38821Y-32209D01*
X38806Y-32251D01*
X38778Y-32280D01*
X38735Y-32294D01*
X38706Y-32294D01*
X39092Y-31994D02*
X39035Y-31994D01*
X39006Y-32009D01*
X38992Y-32023D01*
X38964Y-32066D01*
X38949Y-32123D01*
X38949Y-32237D01*
X38964Y-32266D01*
X38978Y-32280D01*
X39006Y-32294D01*
X39064Y-32294D01*
X39092Y-32280D01*
X39106Y-32266D01*
X39121Y-32237D01*
X39121Y-32166D01*
X39106Y-32137D01*
X39092Y-32123D01*
X39064Y-32109D01*
X39006Y-32109D01*
X38978Y-32123D01*
X38964Y-32137D01*
X38949Y-32166D01*
X37779Y-28160D02*
X37779Y-27860D01*
X37779Y-28003D02*
X37951Y-28003D01*
X37951Y-28160D02*
X37951Y-27860D01*
X38093Y-28003D02*
X38193Y-28003D01*
X38236Y-28160D02*
X38093Y-28160D01*
X38093Y-27860D01*
X38236Y-27860D01*
X38351Y-28075D02*
X38493Y-28075D01*
X38322Y-28160D02*
X38422Y-27860D01*
X38522Y-28160D01*
X38622Y-28160D02*
X38622Y-27860D01*
X38693Y-27860D01*
X38736Y-27875D01*
X38765Y-27903D01*
X38779Y-27932D01*
X38793Y-27989D01*
X38793Y-28032D01*
X38779Y-28089D01*
X38765Y-28118D01*
X38736Y-28146D01*
X38693Y-28160D01*
X38622Y-28160D01*
X38922Y-28003D02*
X39022Y-28003D01*
X39065Y-28160D02*
X38922Y-28160D01*
X38922Y-27860D01*
X39065Y-27860D01*
X39365Y-28160D02*
X39265Y-28018D01*
X39193Y-28160D02*
X39193Y-27860D01*
X39308Y-27860D01*
X39336Y-27875D01*
X39351Y-27889D01*
X39365Y-27918D01*
X39365Y-27960D01*
X39351Y-27989D01*
X39336Y-28003D01*
X39308Y-28018D01*
X39193Y-28018D01*
X39422Y-28189D02*
X39651Y-28189D01*
X39693Y-27860D02*
X39879Y-27860D01*
X39779Y-27975D01*
X39822Y-27975D01*
X39851Y-27989D01*
X39865Y-28003D01*
X39879Y-28032D01*
X39879Y-28103D01*
X39865Y-28132D01*
X39851Y-28146D01*
X39822Y-28160D01*
X39736Y-28160D01*
X39708Y-28146D01*
X39693Y-28132D01*
X39979Y-27860D02*
X40179Y-28160D01*
X40179Y-27860D02*
X39979Y-28160D01*
X40279Y-27889D02*
X40293Y-27875D01*
X40322Y-27860D01*
X40393Y-27860D01*
X40422Y-27875D01*
X40436Y-27889D01*
X40451Y-27918D01*
X40451Y-27946D01*
X40436Y-27989D01*
X40265Y-28160D01*
X40451Y-28160D01*
X33309Y-31994D02*
X33309Y-32209D01*
X33295Y-32251D01*
X33266Y-32280D01*
X33223Y-32294D01*
X33195Y-32294D01*
X33595Y-31994D02*
X33452Y-31994D01*
X33438Y-32137D01*
X33452Y-32123D01*
X33480Y-32109D01*
X33552Y-32109D01*
X33580Y-32123D01*
X33595Y-32137D01*
X33609Y-32166D01*
X33609Y-32237D01*
X33595Y-32266D01*
X33580Y-32280D01*
X33552Y-32294D01*
X33480Y-32294D01*
X33452Y-32280D01*
X33438Y-32266D01*
X32267Y-28160D02*
X32267Y-27860D01*
X32267Y-28003D02*
X32439Y-28003D01*
X32439Y-28160D02*
X32439Y-27860D01*
X32582Y-28003D02*
X32682Y-28003D01*
X32725Y-28160D02*
X32582Y-28160D01*
X32582Y-27860D01*
X32725Y-27860D01*
X32839Y-28075D02*
X32982Y-28075D01*
X32810Y-28160D02*
X32910Y-27860D01*
X33010Y-28160D01*
X33110Y-28160D02*
X33110Y-27860D01*
X33182Y-27860D01*
X33225Y-27875D01*
X33253Y-27903D01*
X33267Y-27932D01*
X33282Y-27989D01*
X33282Y-28032D01*
X33267Y-28089D01*
X33253Y-28118D01*
X33225Y-28146D01*
X33182Y-28160D01*
X33110Y-28160D01*
X33410Y-28003D02*
X33510Y-28003D01*
X33553Y-28160D02*
X33410Y-28160D01*
X33410Y-27860D01*
X33553Y-27860D01*
X33853Y-28160D02*
X33753Y-28018D01*
X33682Y-28160D02*
X33682Y-27860D01*
X33796Y-27860D01*
X33825Y-27875D01*
X33839Y-27889D01*
X33853Y-27918D01*
X33853Y-27960D01*
X33839Y-27989D01*
X33825Y-28003D01*
X33796Y-28018D01*
X33682Y-28018D01*
X33910Y-28189D02*
X34139Y-28189D01*
X34182Y-27860D02*
X34367Y-27860D01*
X34267Y-27975D01*
X34310Y-27975D01*
X34339Y-27989D01*
X34353Y-28003D01*
X34367Y-28032D01*
X34367Y-28103D01*
X34353Y-28132D01*
X34339Y-28146D01*
X34310Y-28160D01*
X34225Y-28160D01*
X34196Y-28146D01*
X34182Y-28132D01*
X34467Y-27860D02*
X34667Y-28160D01*
X34667Y-27860D02*
X34467Y-28160D01*
X34767Y-27889D02*
X34782Y-27875D01*
X34810Y-27860D01*
X34882Y-27860D01*
X34910Y-27875D01*
X34925Y-27889D01*
X34939Y-27918D01*
X34939Y-27946D01*
X34925Y-27989D01*
X34753Y-28160D01*
X34939Y-28160D01*
X27797Y-31994D02*
X27797Y-32209D01*
X27783Y-32251D01*
X27754Y-32280D01*
X27711Y-32294D01*
X27683Y-32294D01*
X28069Y-32094D02*
X28069Y-32294D01*
X27997Y-31980D02*
X27926Y-32194D01*
X28111Y-32194D01*
X26756Y-28160D02*
X26756Y-27860D01*
X26756Y-28003D02*
X26927Y-28003D01*
X26927Y-28160D02*
X26927Y-27860D01*
X27070Y-28003D02*
X27170Y-28003D01*
X27213Y-28160D02*
X27070Y-28160D01*
X27070Y-27860D01*
X27213Y-27860D01*
X27327Y-28075D02*
X27470Y-28075D01*
X27298Y-28160D02*
X27398Y-27860D01*
X27498Y-28160D01*
X27598Y-28160D02*
X27598Y-27860D01*
X27670Y-27860D01*
X27713Y-27875D01*
X27741Y-27903D01*
X27756Y-27932D01*
X27770Y-27989D01*
X27770Y-28032D01*
X27756Y-28089D01*
X27741Y-28118D01*
X27713Y-28146D01*
X27670Y-28160D01*
X27598Y-28160D01*
X27898Y-28003D02*
X27998Y-28003D01*
X28041Y-28160D02*
X27898Y-28160D01*
X27898Y-27860D01*
X28041Y-27860D01*
X28341Y-28160D02*
X28241Y-28018D01*
X28170Y-28160D02*
X28170Y-27860D01*
X28284Y-27860D01*
X28313Y-27875D01*
X28327Y-27889D01*
X28341Y-27918D01*
X28341Y-27960D01*
X28327Y-27989D01*
X28313Y-28003D01*
X28284Y-28018D01*
X28170Y-28018D01*
X28398Y-28189D02*
X28627Y-28189D01*
X28670Y-27860D02*
X28856Y-27860D01*
X28756Y-27975D01*
X28798Y-27975D01*
X28827Y-27989D01*
X28841Y-28003D01*
X28856Y-28032D01*
X28856Y-28103D01*
X28841Y-28132D01*
X28827Y-28146D01*
X28798Y-28160D01*
X28713Y-28160D01*
X28684Y-28146D01*
X28670Y-28132D01*
X28956Y-27860D02*
X29156Y-28160D01*
X29156Y-27860D02*
X28956Y-28160D01*
X29256Y-27889D02*
X29270Y-27875D01*
X29298Y-27860D01*
X29370Y-27860D01*
X29398Y-27875D01*
X29413Y-27889D01*
X29427Y-27918D01*
X29427Y-27946D01*
X29413Y-27989D01*
X29241Y-28160D01*
X29427Y-28160D01*
G54D18*
X44004Y-44837D02*
X44000Y-44841D01*
X43989Y-44844D01*
X43981Y-44844D01*
X43970Y-44841D01*
X43962Y-44833D01*
X43959Y-44825D01*
X43955Y-44810D01*
X43955Y-44799D01*
X43959Y-44784D01*
X43962Y-44777D01*
X43970Y-44769D01*
X43981Y-44765D01*
X43989Y-44765D01*
X44000Y-44769D01*
X44004Y-44773D01*
X44034Y-44773D02*
X44038Y-44769D01*
X44045Y-44765D01*
X44064Y-44765D01*
X44072Y-44769D01*
X44075Y-44773D01*
X44079Y-44780D01*
X44079Y-44788D01*
X44075Y-44799D01*
X44030Y-44844D01*
X44079Y-44844D01*
X44109Y-44773D02*
X44113Y-44769D01*
X44120Y-44765D01*
X44139Y-44765D01*
X44147Y-44769D01*
X44151Y-44773D01*
X44154Y-44780D01*
X44154Y-44788D01*
X44151Y-44799D01*
X44105Y-44844D01*
X44154Y-44844D01*
X42947Y-37019D02*
X42951Y-37023D01*
X42955Y-37034D01*
X42955Y-37041D01*
X42951Y-37053D01*
X42943Y-37060D01*
X42936Y-37064D01*
X42921Y-37068D01*
X42909Y-37068D01*
X42894Y-37064D01*
X42887Y-37060D01*
X42879Y-37053D01*
X42876Y-37041D01*
X42876Y-37034D01*
X42879Y-37023D01*
X42883Y-37019D01*
X42955Y-36944D02*
X42955Y-36989D01*
X42955Y-36966D02*
X42876Y-36966D01*
X42887Y-36974D01*
X42894Y-36981D01*
X42898Y-36989D01*
X42876Y-36917D02*
X42876Y-36865D01*
X42955Y-36898D01*
G54D10*
X54011Y-26339D02*
X54011Y-25945D01*
X54011Y-26133D02*
X54236Y-26133D01*
X54236Y-26339D02*
X54236Y-25945D01*
X54592Y-26077D02*
X54592Y-26339D01*
X54498Y-25927D02*
X54404Y-26208D01*
X54648Y-26208D01*
X53772Y-28367D02*
X53772Y-27973D01*
X53772Y-28160D02*
X53997Y-28160D01*
X53997Y-28367D02*
X53997Y-27973D01*
X54260Y-27973D02*
X54335Y-27973D01*
X54372Y-27992D01*
X54410Y-28029D01*
X54429Y-28104D01*
X54429Y-28235D01*
X54410Y-28310D01*
X54372Y-28348D01*
X54335Y-28367D01*
X54260Y-28367D01*
X54222Y-28348D01*
X54185Y-28310D01*
X54166Y-28235D01*
X54166Y-28104D01*
X54185Y-28029D01*
X54222Y-27992D01*
X54260Y-27973D01*
X54785Y-28367D02*
X54597Y-28367D01*
X54597Y-27973D01*
X54916Y-28160D02*
X55047Y-28160D01*
X55104Y-28367D02*
X54916Y-28367D01*
X54916Y-27973D01*
X55104Y-27973D01*
X12278Y-26339D02*
X12278Y-25945D01*
X12278Y-26133D02*
X12503Y-26133D01*
X12503Y-26339D02*
X12503Y-25945D01*
X12653Y-25945D02*
X12897Y-25945D01*
X12766Y-26095D01*
X12822Y-26095D01*
X12859Y-26114D01*
X12878Y-26133D01*
X12897Y-26170D01*
X12897Y-26264D01*
X12878Y-26302D01*
X12859Y-26320D01*
X12822Y-26339D01*
X12709Y-26339D01*
X12672Y-26320D01*
X12653Y-26302D01*
X12040Y-28367D02*
X12040Y-27973D01*
X12040Y-28160D02*
X12265Y-28160D01*
X12265Y-28367D02*
X12265Y-27973D01*
X12528Y-27973D02*
X12603Y-27973D01*
X12640Y-27992D01*
X12678Y-28029D01*
X12696Y-28104D01*
X12696Y-28235D01*
X12678Y-28310D01*
X12640Y-28348D01*
X12603Y-28367D01*
X12528Y-28367D01*
X12490Y-28348D01*
X12453Y-28310D01*
X12434Y-28235D01*
X12434Y-28104D01*
X12453Y-28029D01*
X12490Y-27992D01*
X12528Y-27973D01*
X13053Y-28367D02*
X12865Y-28367D01*
X12865Y-27973D01*
X13184Y-28160D02*
X13315Y-28160D01*
X13371Y-28367D02*
X13184Y-28367D01*
X13184Y-27973D01*
X13371Y-27973D01*
X54011Y-55079D02*
X54011Y-54685D01*
X54011Y-54873D02*
X54236Y-54873D01*
X54236Y-55079D02*
X54236Y-54685D01*
X54404Y-54723D02*
X54423Y-54704D01*
X54461Y-54685D01*
X54554Y-54685D01*
X54592Y-54704D01*
X54610Y-54723D01*
X54629Y-54760D01*
X54629Y-54798D01*
X54610Y-54854D01*
X54386Y-55079D01*
X54629Y-55079D01*
X53772Y-57107D02*
X53772Y-56713D01*
X53772Y-56901D02*
X53997Y-56901D01*
X53997Y-57107D02*
X53997Y-56713D01*
X54260Y-56713D02*
X54335Y-56713D01*
X54372Y-56732D01*
X54410Y-56769D01*
X54429Y-56844D01*
X54429Y-56976D01*
X54410Y-57050D01*
X54372Y-57088D01*
X54335Y-57107D01*
X54260Y-57107D01*
X54222Y-57088D01*
X54185Y-57050D01*
X54166Y-56976D01*
X54166Y-56844D01*
X54185Y-56769D01*
X54222Y-56732D01*
X54260Y-56713D01*
X54785Y-57107D02*
X54597Y-57107D01*
X54597Y-56713D01*
X54916Y-56901D02*
X55047Y-56901D01*
X55104Y-57107D02*
X54916Y-57107D01*
X54916Y-56713D01*
X55104Y-56713D01*
X12278Y-55079D02*
X12278Y-54685D01*
X12278Y-54873D02*
X12503Y-54873D01*
X12503Y-55079D02*
X12503Y-54685D01*
X12897Y-55079D02*
X12672Y-55079D01*
X12784Y-55079D02*
X12784Y-54685D01*
X12747Y-54742D01*
X12709Y-54779D01*
X12672Y-54798D01*
X12040Y-57107D02*
X12040Y-56713D01*
X12040Y-56901D02*
X12265Y-56901D01*
X12265Y-57107D02*
X12265Y-56713D01*
X12528Y-56713D02*
X12603Y-56713D01*
X12640Y-56732D01*
X12678Y-56769D01*
X12696Y-56844D01*
X12696Y-56976D01*
X12678Y-57050D01*
X12640Y-57088D01*
X12603Y-57107D01*
X12528Y-57107D01*
X12490Y-57088D01*
X12453Y-57050D01*
X12434Y-56976D01*
X12434Y-56844D01*
X12453Y-56769D01*
X12490Y-56732D01*
X12528Y-56713D01*
X13053Y-57107D02*
X12865Y-57107D01*
X12865Y-56713D01*
X13184Y-56901D02*
X13315Y-56901D01*
X13371Y-57107D02*
X13184Y-57107D01*
X13184Y-56713D01*
X13371Y-56713D01*
G54D17*
X12817Y-51269D02*
X13032Y-51269D01*
X13074Y-51284D01*
X13103Y-51312D01*
X13117Y-51355D01*
X13117Y-51384D01*
X13117Y-50970D02*
X13117Y-51141D01*
X13117Y-51055D02*
X12817Y-51055D01*
X12860Y-51084D01*
X12889Y-51112D01*
X12903Y-51141D01*
X11503Y-52534D02*
X11203Y-52534D01*
X11346Y-52534D02*
X11346Y-52363D01*
X11503Y-52363D02*
X11203Y-52363D01*
X11346Y-52220D02*
X11346Y-52120D01*
X11503Y-52077D02*
X11503Y-52220D01*
X11203Y-52220D01*
X11203Y-52077D01*
X11418Y-51963D02*
X11418Y-51820D01*
X11503Y-51991D02*
X11203Y-51891D01*
X11503Y-51791D01*
X11503Y-51691D02*
X11203Y-51691D01*
X11203Y-51620D01*
X11218Y-51577D01*
X11246Y-51548D01*
X11275Y-51534D01*
X11332Y-51520D01*
X11375Y-51520D01*
X11432Y-51534D01*
X11460Y-51548D01*
X11489Y-51577D01*
X11503Y-51620D01*
X11503Y-51691D01*
X11346Y-51391D02*
X11346Y-51291D01*
X11503Y-51248D02*
X11503Y-51391D01*
X11203Y-51391D01*
X11203Y-51248D01*
X11503Y-50948D02*
X11360Y-51048D01*
X11503Y-51120D02*
X11203Y-51120D01*
X11203Y-51005D01*
X11218Y-50977D01*
X11232Y-50963D01*
X11260Y-50948D01*
X11303Y-50948D01*
X11332Y-50963D01*
X11346Y-50977D01*
X11360Y-51005D01*
X11360Y-51120D01*
X11532Y-50891D02*
X11532Y-50663D01*
X11203Y-50463D02*
X11203Y-50520D01*
X11218Y-50548D01*
X11232Y-50563D01*
X11275Y-50591D01*
X11332Y-50605D01*
X11446Y-50605D01*
X11475Y-50591D01*
X11489Y-50577D01*
X11503Y-50548D01*
X11503Y-50491D01*
X11489Y-50463D01*
X11475Y-50448D01*
X11446Y-50434D01*
X11375Y-50434D01*
X11346Y-50448D01*
X11332Y-50463D01*
X11318Y-50491D01*
X11318Y-50548D01*
X11332Y-50577D01*
X11346Y-50591D01*
X11375Y-50605D01*
X11203Y-50334D02*
X11503Y-50134D01*
X11203Y-50134D02*
X11503Y-50334D01*
X11503Y-49863D02*
X11503Y-50034D01*
X11503Y-49948D02*
X11203Y-49948D01*
X11246Y-49977D01*
X11275Y-50006D01*
X11289Y-50034D01*
G54D19*
X13507Y-36662D02*
X13507Y-37091D01*
X13479Y-37177D01*
X13421Y-37234D01*
X13336Y-37262D01*
X13279Y-37262D01*
X13736Y-36662D02*
X14107Y-36662D01*
X13907Y-36891D01*
X13993Y-36891D01*
X14050Y-36920D01*
X14079Y-36948D01*
X14107Y-37005D01*
X14107Y-37148D01*
X14079Y-37205D01*
X14050Y-37234D01*
X13993Y-37262D01*
X13821Y-37262D01*
X13764Y-37234D01*
X13736Y-37205D01*
G54D18*
X28518Y-37436D02*
X28522Y-37440D01*
X28525Y-37451D01*
X28525Y-37459D01*
X28522Y-37470D01*
X28514Y-37477D01*
X28507Y-37481D01*
X28492Y-37485D01*
X28480Y-37485D01*
X28465Y-37481D01*
X28458Y-37477D01*
X28450Y-37470D01*
X28446Y-37459D01*
X28446Y-37451D01*
X28450Y-37440D01*
X28454Y-37436D01*
X28525Y-37361D02*
X28525Y-37406D01*
X28525Y-37383D02*
X28446Y-37383D01*
X28458Y-37391D01*
X28465Y-37398D01*
X28469Y-37406D01*
X28446Y-37293D02*
X28446Y-37308D01*
X28450Y-37316D01*
X28454Y-37319D01*
X28465Y-37327D01*
X28480Y-37331D01*
X28510Y-37331D01*
X28518Y-37327D01*
X28522Y-37323D01*
X28525Y-37316D01*
X28525Y-37301D01*
X28522Y-37293D01*
X28518Y-37289D01*
X28510Y-37286D01*
X28492Y-37286D01*
X28484Y-37289D01*
X28480Y-37293D01*
X28476Y-37301D01*
X28476Y-37316D01*
X28480Y-37323D01*
X28484Y-37327D01*
X28492Y-37331D01*
X23242Y-39641D02*
X23246Y-39645D01*
X23250Y-39656D01*
X23250Y-39663D01*
X23246Y-39675D01*
X23239Y-39682D01*
X23231Y-39686D01*
X23216Y-39690D01*
X23205Y-39690D01*
X23190Y-39686D01*
X23182Y-39682D01*
X23175Y-39675D01*
X23171Y-39663D01*
X23171Y-39656D01*
X23175Y-39645D01*
X23178Y-39641D01*
X23250Y-39566D02*
X23250Y-39611D01*
X23250Y-39588D02*
X23171Y-39588D01*
X23182Y-39596D01*
X23190Y-39603D01*
X23193Y-39611D01*
X23171Y-39494D02*
X23171Y-39532D01*
X23208Y-39536D01*
X23205Y-39532D01*
X23201Y-39524D01*
X23201Y-39505D01*
X23205Y-39498D01*
X23208Y-39494D01*
X23216Y-39490D01*
X23235Y-39490D01*
X23242Y-39494D01*
X23246Y-39498D01*
X23250Y-39505D01*
X23250Y-39524D01*
X23246Y-39532D01*
X23242Y-39536D01*
X29108Y-45568D02*
X29112Y-45572D01*
X29116Y-45583D01*
X29116Y-45590D01*
X29112Y-45602D01*
X29105Y-45609D01*
X29097Y-45613D01*
X29082Y-45617D01*
X29071Y-45617D01*
X29056Y-45613D01*
X29048Y-45609D01*
X29041Y-45602D01*
X29037Y-45590D01*
X29037Y-45583D01*
X29041Y-45572D01*
X29044Y-45568D01*
X29044Y-45538D02*
X29041Y-45534D01*
X29037Y-45526D01*
X29037Y-45508D01*
X29041Y-45500D01*
X29044Y-45496D01*
X29052Y-45493D01*
X29060Y-45493D01*
X29071Y-45496D01*
X29116Y-45541D01*
X29116Y-45493D01*
G54D15*
X21659Y-42911D02*
X22145Y-42911D01*
X22202Y-42883D01*
X22231Y-42854D01*
X22259Y-42797D01*
X22259Y-42683D01*
X22231Y-42626D01*
X22202Y-42597D01*
X22145Y-42569D01*
X21659Y-42569D01*
X22259Y-41969D02*
X22259Y-42311D01*
X22259Y-42140D02*
X21659Y-42140D01*
X21745Y-42197D01*
X21802Y-42254D01*
X21831Y-42311D01*
X9661Y-46415D02*
X9375Y-46615D01*
X9661Y-46758D02*
X9061Y-46758D01*
X9061Y-46529D01*
X9089Y-46472D01*
X9118Y-46443D01*
X9175Y-46415D01*
X9261Y-46415D01*
X9318Y-46443D01*
X9346Y-46472D01*
X9375Y-46529D01*
X9375Y-46758D01*
X9061Y-45986D02*
X9489Y-45986D01*
X9575Y-46015D01*
X9632Y-46072D01*
X9661Y-46158D01*
X9661Y-46215D01*
X9261Y-45443D02*
X9661Y-45443D01*
X9032Y-45586D02*
X9461Y-45729D01*
X9461Y-45358D01*
X9061Y-44843D02*
X9061Y-45129D01*
X9346Y-45158D01*
X9318Y-45129D01*
X9289Y-45072D01*
X9289Y-44929D01*
X9318Y-44872D01*
X9346Y-44843D01*
X9404Y-44815D01*
X9546Y-44815D01*
X9604Y-44843D01*
X9632Y-44872D01*
X9661Y-44929D01*
X9661Y-45072D01*
X9632Y-45129D01*
X9604Y-45158D01*
X9718Y-44701D02*
X9718Y-44243D01*
X9661Y-43786D02*
X9661Y-44129D01*
X9661Y-43958D02*
X9061Y-43958D01*
X9146Y-44015D01*
X9204Y-44072D01*
X9232Y-44129D01*
X9118Y-43558D02*
X9089Y-43529D01*
X9061Y-43472D01*
X9061Y-43329D01*
X9089Y-43272D01*
X9118Y-43243D01*
X9175Y-43215D01*
X9232Y-43215D01*
X9318Y-43243D01*
X9661Y-43586D01*
X9661Y-43215D01*
X9718Y-43101D02*
X9718Y-42643D01*
X9661Y-42501D02*
X9061Y-42501D01*
X9061Y-42272D01*
X9089Y-42215D01*
X9118Y-42186D01*
X9175Y-42158D01*
X9261Y-42158D01*
X9318Y-42186D01*
X9346Y-42215D01*
X9375Y-42272D01*
X9375Y-42501D01*
X9661Y-41901D02*
X9061Y-41901D01*
X9661Y-41615D02*
X9061Y-41615D01*
X9661Y-41272D01*
X9061Y-41272D01*
X9718Y-41129D02*
X9718Y-40672D01*
X9632Y-40558D02*
X9661Y-40472D01*
X9661Y-40329D01*
X9632Y-40272D01*
X9604Y-40243D01*
X9546Y-40215D01*
X9489Y-40215D01*
X9432Y-40243D01*
X9404Y-40272D01*
X9375Y-40329D01*
X9346Y-40443D01*
X9318Y-40501D01*
X9289Y-40529D01*
X9232Y-40558D01*
X9175Y-40558D01*
X9118Y-40529D01*
X9089Y-40501D01*
X9061Y-40443D01*
X9061Y-40301D01*
X9089Y-40215D01*
X9661Y-39958D02*
X9061Y-39958D01*
X9489Y-39758D01*
X9061Y-39558D01*
X9661Y-39558D01*
X9661Y-39272D02*
X9061Y-39272D01*
X9061Y-39129D01*
X9089Y-39043D01*
X9146Y-38986D01*
X9204Y-38958D01*
X9318Y-38929D01*
X9404Y-38929D01*
X9518Y-38958D01*
X9575Y-38986D01*
X9632Y-39043D01*
X9661Y-39129D01*
X9661Y-39272D01*
G54D13*
X26380Y-48645D02*
X26643Y-49039D01*
X26643Y-48645D02*
X26380Y-49039D01*
X26999Y-49039D02*
X26774Y-49039D01*
X26887Y-49039D02*
X26887Y-48645D01*
X26849Y-48701D01*
X26812Y-48739D01*
X26774Y-48758D01*
X25473Y-45930D02*
X25492Y-45911D01*
X25529Y-45892D01*
X25623Y-45892D01*
X25661Y-45911D01*
X25679Y-45930D01*
X25698Y-45967D01*
X25698Y-46005D01*
X25679Y-46061D01*
X25454Y-46286D01*
X25698Y-46286D01*
X26055Y-45892D02*
X25867Y-45892D01*
X25848Y-46080D01*
X25867Y-46061D01*
X25905Y-46042D01*
X25998Y-46042D01*
X26036Y-46061D01*
X26055Y-46080D01*
X26073Y-46117D01*
X26073Y-46211D01*
X26055Y-46249D01*
X26036Y-46267D01*
X25998Y-46286D01*
X25905Y-46286D01*
X25867Y-46267D01*
X25848Y-46249D01*
X26242Y-46286D02*
X26242Y-45892D01*
X26374Y-46174D01*
X26505Y-45892D01*
X26505Y-46286D01*
X26693Y-46286D02*
X26693Y-45892D01*
X26693Y-46080D02*
X26918Y-46080D01*
X26918Y-46286D02*
X26918Y-45892D01*
X27068Y-46023D02*
X27274Y-46023D01*
X27068Y-46286D01*
X27274Y-46286D01*
X47039Y-44878D02*
X47433Y-44616D01*
X47039Y-44616D02*
X47433Y-44878D01*
X47076Y-44484D02*
X47058Y-44466D01*
X47039Y-44428D01*
X47039Y-44334D01*
X47058Y-44297D01*
X47076Y-44278D01*
X47114Y-44259D01*
X47151Y-44259D01*
X47208Y-44278D01*
X47433Y-44503D01*
X47433Y-44259D01*
X44455Y-45673D02*
X44436Y-45711D01*
X44417Y-45729D01*
X44380Y-45748D01*
X44361Y-45748D01*
X44323Y-45729D01*
X44305Y-45711D01*
X44286Y-45673D01*
X44286Y-45598D01*
X44305Y-45561D01*
X44323Y-45542D01*
X44361Y-45523D01*
X44380Y-45523D01*
X44417Y-45542D01*
X44436Y-45561D01*
X44455Y-45598D01*
X44455Y-45673D01*
X44473Y-45711D01*
X44492Y-45729D01*
X44530Y-45748D01*
X44605Y-45748D01*
X44642Y-45729D01*
X44661Y-45711D01*
X44680Y-45673D01*
X44680Y-45598D01*
X44661Y-45561D01*
X44642Y-45542D01*
X44605Y-45523D01*
X44530Y-45523D01*
X44492Y-45542D01*
X44473Y-45561D01*
X44455Y-45598D01*
X44680Y-45054D02*
X44286Y-45054D01*
X44567Y-44923D01*
X44286Y-44791D01*
X44680Y-44791D01*
X44680Y-44604D02*
X44286Y-44604D01*
X44473Y-44604D02*
X44473Y-44379D01*
X44680Y-44379D02*
X44286Y-44379D01*
X44417Y-44228D02*
X44417Y-44022D01*
X44680Y-44228D01*
X44680Y-44022D01*
G54D18*
X24388Y-43210D02*
X24362Y-43173D01*
X24343Y-43210D02*
X24343Y-43131D01*
X24373Y-43131D01*
X24380Y-43135D01*
X24384Y-43139D01*
X24388Y-43146D01*
X24388Y-43158D01*
X24384Y-43165D01*
X24380Y-43169D01*
X24373Y-43173D01*
X24343Y-43173D01*
X24456Y-43158D02*
X24456Y-43210D01*
X24437Y-43128D02*
X24418Y-43184D01*
X24467Y-43184D01*
G54D20*
X41912Y-36936D02*
X41919Y-36943D01*
X41926Y-36965D01*
X41926Y-36979D01*
X41919Y-37001D01*
X41905Y-37015D01*
X41891Y-37022D01*
X41862Y-37029D01*
X41841Y-37029D01*
X41812Y-37022D01*
X41798Y-37015D01*
X41784Y-37001D01*
X41776Y-36979D01*
X41776Y-36965D01*
X41784Y-36943D01*
X41791Y-36936D01*
X41926Y-36793D02*
X41926Y-36879D01*
X41926Y-36836D02*
X41776Y-36836D01*
X41798Y-36851D01*
X41812Y-36865D01*
X41819Y-36879D01*
X41826Y-36665D02*
X41926Y-36665D01*
X41769Y-36701D02*
X41876Y-36736D01*
X41876Y-36643D01*
X23149Y-39398D02*
X23149Y-39448D01*
X23228Y-39448D02*
X23078Y-39448D01*
X23078Y-39377D01*
X23149Y-39270D02*
X23157Y-39248D01*
X23164Y-39241D01*
X23178Y-39234D01*
X23199Y-39234D01*
X23214Y-39241D01*
X23221Y-39248D01*
X23228Y-39263D01*
X23228Y-39320D01*
X23078Y-39320D01*
X23078Y-39270D01*
X23085Y-39255D01*
X23092Y-39248D01*
X23107Y-39241D01*
X23121Y-39241D01*
X23135Y-39248D01*
X23142Y-39255D01*
X23149Y-39270D01*
X23149Y-39320D01*
X23228Y-39091D02*
X23228Y-39177D01*
X23228Y-39134D02*
X23078Y-39134D01*
X23099Y-39148D01*
X23114Y-39163D01*
X23121Y-39177D01*
G54D18*
X30081Y-45623D02*
X30085Y-45627D01*
X30088Y-45638D01*
X30088Y-45645D01*
X30085Y-45657D01*
X30077Y-45664D01*
X30070Y-45668D01*
X30055Y-45672D01*
X30043Y-45672D01*
X30028Y-45668D01*
X30021Y-45664D01*
X30013Y-45657D01*
X30009Y-45645D01*
X30009Y-45638D01*
X30013Y-45627D01*
X30017Y-45623D01*
X30088Y-45548D02*
X30088Y-45593D01*
X30088Y-45570D02*
X30009Y-45570D01*
X30021Y-45578D01*
X30028Y-45585D01*
X30032Y-45593D01*
X27132Y-45459D02*
X27128Y-45463D01*
X27117Y-45466D01*
X27109Y-45466D01*
X27098Y-45463D01*
X27091Y-45455D01*
X27087Y-45448D01*
X27083Y-45432D01*
X27083Y-45421D01*
X27087Y-45406D01*
X27091Y-45399D01*
X27098Y-45391D01*
X27109Y-45387D01*
X27117Y-45387D01*
X27128Y-45391D01*
X27132Y-45395D01*
X27158Y-45387D02*
X27207Y-45387D01*
X27181Y-45417D01*
X27192Y-45417D01*
X27200Y-45421D01*
X27203Y-45425D01*
X27207Y-45432D01*
X27207Y-45451D01*
X27203Y-45459D01*
X27200Y-45463D01*
X27192Y-45466D01*
X27170Y-45466D01*
X27162Y-45463D01*
X27158Y-45459D01*
X24967Y-45967D02*
X24963Y-45970D01*
X24952Y-45974D01*
X24944Y-45974D01*
X24933Y-45970D01*
X24925Y-45963D01*
X24922Y-45955D01*
X24918Y-45940D01*
X24918Y-45929D01*
X24922Y-45914D01*
X24925Y-45907D01*
X24933Y-45899D01*
X24944Y-45895D01*
X24952Y-45895D01*
X24963Y-45899D01*
X24967Y-45903D01*
X25034Y-45922D02*
X25034Y-45974D01*
X25016Y-45891D02*
X24997Y-45948D01*
X25046Y-45948D01*
X24388Y-39631D02*
X24392Y-39635D01*
X24395Y-39646D01*
X24395Y-39653D01*
X24392Y-39665D01*
X24384Y-39672D01*
X24377Y-39676D01*
X24362Y-39680D01*
X24350Y-39680D01*
X24335Y-39676D01*
X24328Y-39672D01*
X24320Y-39665D01*
X24316Y-39653D01*
X24316Y-39646D01*
X24320Y-39635D01*
X24324Y-39631D01*
X24316Y-39559D02*
X24316Y-39597D01*
X24354Y-39601D01*
X24350Y-39597D01*
X24347Y-39589D01*
X24347Y-39571D01*
X24350Y-39563D01*
X24354Y-39559D01*
X24362Y-39556D01*
X24380Y-39556D01*
X24388Y-39559D01*
X24392Y-39563D01*
X24395Y-39571D01*
X24395Y-39589D01*
X24392Y-39597D01*
X24388Y-39601D01*
X23801Y-39611D02*
X23805Y-39615D01*
X23809Y-39626D01*
X23809Y-39634D01*
X23805Y-39645D01*
X23798Y-39652D01*
X23790Y-39656D01*
X23775Y-39660D01*
X23764Y-39660D01*
X23749Y-39656D01*
X23741Y-39652D01*
X23734Y-39645D01*
X23730Y-39634D01*
X23730Y-39626D01*
X23734Y-39615D01*
X23737Y-39611D01*
X23730Y-39543D02*
X23730Y-39558D01*
X23734Y-39566D01*
X23737Y-39570D01*
X23749Y-39577D01*
X23764Y-39581D01*
X23794Y-39581D01*
X23801Y-39577D01*
X23805Y-39573D01*
X23809Y-39566D01*
X23809Y-39551D01*
X23805Y-39543D01*
X23801Y-39540D01*
X23794Y-39536D01*
X23775Y-39536D01*
X23767Y-39540D01*
X23764Y-39543D01*
X23760Y-39551D01*
X23760Y-39566D01*
X23764Y-39573D01*
X23767Y-39577D01*
X23775Y-39581D01*
X16079Y-38043D02*
X16075Y-38047D01*
X16064Y-38051D01*
X16056Y-38051D01*
X16045Y-38047D01*
X16037Y-38040D01*
X16034Y-38032D01*
X16030Y-38017D01*
X16030Y-38006D01*
X16034Y-37991D01*
X16037Y-37983D01*
X16045Y-37976D01*
X16056Y-37972D01*
X16064Y-37972D01*
X16075Y-37976D01*
X16079Y-37980D01*
X16105Y-37972D02*
X16158Y-37972D01*
X16124Y-38051D01*
X34538Y-38213D02*
X34541Y-38217D01*
X34545Y-38229D01*
X34545Y-38236D01*
X34541Y-38247D01*
X34534Y-38255D01*
X34526Y-38259D01*
X34511Y-38262D01*
X34500Y-38262D01*
X34485Y-38259D01*
X34477Y-38255D01*
X34470Y-38247D01*
X34466Y-38236D01*
X34466Y-38229D01*
X34470Y-38217D01*
X34474Y-38213D01*
X34500Y-38168D02*
X34496Y-38176D01*
X34492Y-38180D01*
X34485Y-38183D01*
X34481Y-38183D01*
X34474Y-38180D01*
X34470Y-38176D01*
X34466Y-38168D01*
X34466Y-38153D01*
X34470Y-38146D01*
X34474Y-38142D01*
X34481Y-38138D01*
X34485Y-38138D01*
X34492Y-38142D01*
X34496Y-38146D01*
X34500Y-38153D01*
X34500Y-38168D01*
X34504Y-38176D01*
X34507Y-38180D01*
X34515Y-38183D01*
X34530Y-38183D01*
X34538Y-38180D01*
X34541Y-38176D01*
X34545Y-38168D01*
X34545Y-38153D01*
X34541Y-38146D01*
X34538Y-38142D01*
X34530Y-38138D01*
X34515Y-38138D01*
X34507Y-38142D01*
X34504Y-38146D01*
X34500Y-38153D01*
X20988Y-35278D02*
X20992Y-35282D01*
X20996Y-35293D01*
X20996Y-35301D01*
X20992Y-35312D01*
X20985Y-35320D01*
X20977Y-35324D01*
X20962Y-35327D01*
X20951Y-35327D01*
X20936Y-35324D01*
X20928Y-35320D01*
X20921Y-35312D01*
X20917Y-35301D01*
X20917Y-35293D01*
X20921Y-35282D01*
X20924Y-35278D01*
X20996Y-35241D02*
X20996Y-35226D01*
X20992Y-35218D01*
X20988Y-35214D01*
X20977Y-35207D01*
X20962Y-35203D01*
X20932Y-35203D01*
X20924Y-35207D01*
X20921Y-35211D01*
X20917Y-35218D01*
X20917Y-35233D01*
X20921Y-35241D01*
X20924Y-35245D01*
X20932Y-35248D01*
X20951Y-35248D01*
X20958Y-35245D01*
X20962Y-35241D01*
X20966Y-35233D01*
X20966Y-35218D01*
X20962Y-35211D01*
X20958Y-35207D01*
X20951Y-35203D01*
X30260Y-42738D02*
X30256Y-42742D01*
X30245Y-42746D01*
X30237Y-42746D01*
X30226Y-42742D01*
X30218Y-42735D01*
X30215Y-42727D01*
X30211Y-42712D01*
X30211Y-42701D01*
X30215Y-42686D01*
X30218Y-42678D01*
X30226Y-42671D01*
X30237Y-42667D01*
X30245Y-42667D01*
X30256Y-42671D01*
X30260Y-42674D01*
X30335Y-42746D02*
X30290Y-42746D01*
X30312Y-42746D02*
X30312Y-42667D01*
X30305Y-42678D01*
X30297Y-42686D01*
X30290Y-42689D01*
X30384Y-42667D02*
X30391Y-42667D01*
X30399Y-42671D01*
X30403Y-42674D01*
X30406Y-42682D01*
X30410Y-42697D01*
X30410Y-42716D01*
X30406Y-42731D01*
X30403Y-42738D01*
X30399Y-42742D01*
X30391Y-42746D01*
X30384Y-42746D01*
X30376Y-42742D01*
X30373Y-42738D01*
X30369Y-42731D01*
X30365Y-42716D01*
X30365Y-42697D01*
X30369Y-42682D01*
X30373Y-42674D01*
X30376Y-42671D01*
X30384Y-42667D01*
X35963Y-48231D02*
X35967Y-48235D01*
X35970Y-48246D01*
X35970Y-48254D01*
X35967Y-48265D01*
X35959Y-48273D01*
X35951Y-48277D01*
X35936Y-48280D01*
X35925Y-48280D01*
X35910Y-48277D01*
X35903Y-48273D01*
X35895Y-48265D01*
X35891Y-48254D01*
X35891Y-48246D01*
X35895Y-48235D01*
X35899Y-48231D01*
X35970Y-48156D02*
X35970Y-48201D01*
X35970Y-48179D02*
X35891Y-48179D01*
X35903Y-48186D01*
X35910Y-48194D01*
X35914Y-48201D01*
X35970Y-48081D02*
X35970Y-48126D01*
X35970Y-48103D02*
X35891Y-48103D01*
X35903Y-48111D01*
X35910Y-48119D01*
X35914Y-48126D01*
X36931Y-48302D02*
X36935Y-48306D01*
X36939Y-48317D01*
X36939Y-48325D01*
X36935Y-48336D01*
X36927Y-48344D01*
X36920Y-48347D01*
X36905Y-48351D01*
X36894Y-48351D01*
X36879Y-48347D01*
X36871Y-48344D01*
X36864Y-48336D01*
X36860Y-48325D01*
X36860Y-48317D01*
X36864Y-48306D01*
X36867Y-48302D01*
X36939Y-48227D02*
X36939Y-48272D01*
X36939Y-48250D02*
X36860Y-48250D01*
X36871Y-48257D01*
X36879Y-48265D01*
X36882Y-48272D01*
X36867Y-48197D02*
X36864Y-48193D01*
X36860Y-48186D01*
X36860Y-48167D01*
X36864Y-48159D01*
X36867Y-48156D01*
X36875Y-48152D01*
X36882Y-48152D01*
X36894Y-48156D01*
X36939Y-48201D01*
X36939Y-48152D01*
X41317Y-36582D02*
X41321Y-36586D01*
X41325Y-36597D01*
X41325Y-36604D01*
X41321Y-36616D01*
X41313Y-36623D01*
X41306Y-36627D01*
X41291Y-36631D01*
X41279Y-36631D01*
X41264Y-36627D01*
X41257Y-36623D01*
X41249Y-36616D01*
X41246Y-36604D01*
X41246Y-36597D01*
X41249Y-36586D01*
X41253Y-36582D01*
X41325Y-36507D02*
X41325Y-36552D01*
X41325Y-36529D02*
X41246Y-36529D01*
X41257Y-36537D01*
X41264Y-36544D01*
X41268Y-36552D01*
X41246Y-36480D02*
X41246Y-36431D01*
X41276Y-36458D01*
X41276Y-36446D01*
X41279Y-36439D01*
X41283Y-36435D01*
X41291Y-36431D01*
X41310Y-36431D01*
X41317Y-36435D01*
X41321Y-36439D01*
X41325Y-36446D01*
X41325Y-36469D01*
X41321Y-36476D01*
X41317Y-36480D01*
X43837Y-49491D02*
X43841Y-49495D01*
X43844Y-49506D01*
X43844Y-49514D01*
X43841Y-49525D01*
X43833Y-49533D01*
X43825Y-49536D01*
X43810Y-49540D01*
X43799Y-49540D01*
X43784Y-49536D01*
X43777Y-49533D01*
X43769Y-49525D01*
X43765Y-49514D01*
X43765Y-49506D01*
X43769Y-49495D01*
X43773Y-49491D01*
X43844Y-49416D02*
X43844Y-49461D01*
X43844Y-49439D02*
X43765Y-49439D01*
X43777Y-49446D01*
X43784Y-49454D01*
X43788Y-49461D01*
X43799Y-49371D02*
X43795Y-49378D01*
X43792Y-49382D01*
X43784Y-49386D01*
X43780Y-49386D01*
X43773Y-49382D01*
X43769Y-49378D01*
X43765Y-49371D01*
X43765Y-49356D01*
X43769Y-49348D01*
X43773Y-49345D01*
X43780Y-49341D01*
X43784Y-49341D01*
X43792Y-49345D01*
X43795Y-49348D01*
X43799Y-49356D01*
X43799Y-49371D01*
X43803Y-49378D01*
X43807Y-49382D01*
X43814Y-49386D01*
X43829Y-49386D01*
X43837Y-49382D01*
X43841Y-49378D01*
X43844Y-49371D01*
X43844Y-49356D01*
X43841Y-49348D01*
X43837Y-49345D01*
X43829Y-49341D01*
X43814Y-49341D01*
X43807Y-49345D01*
X43803Y-49348D01*
X43799Y-49356D01*
X47648Y-43019D02*
X47652Y-43023D01*
X47655Y-43034D01*
X47655Y-43041D01*
X47652Y-43053D01*
X47644Y-43060D01*
X47637Y-43064D01*
X47621Y-43068D01*
X47610Y-43068D01*
X47595Y-43064D01*
X47588Y-43060D01*
X47580Y-43053D01*
X47576Y-43041D01*
X47576Y-43034D01*
X47580Y-43023D01*
X47584Y-43019D01*
X47655Y-42944D02*
X47655Y-42989D01*
X47655Y-42966D02*
X47576Y-42966D01*
X47588Y-42974D01*
X47595Y-42981D01*
X47599Y-42989D01*
X47655Y-42906D02*
X47655Y-42891D01*
X47652Y-42883D01*
X47648Y-42880D01*
X47637Y-42872D01*
X47621Y-42868D01*
X47591Y-42868D01*
X47584Y-42872D01*
X47580Y-42876D01*
X47576Y-42883D01*
X47576Y-42898D01*
X47580Y-42906D01*
X47584Y-42910D01*
X47591Y-42913D01*
X47610Y-42913D01*
X47618Y-42910D01*
X47621Y-42906D01*
X47625Y-42898D01*
X47625Y-42883D01*
X47621Y-42876D01*
X47618Y-42872D01*
X47610Y-42868D01*
X45787Y-47939D02*
X45784Y-47943D01*
X45772Y-47947D01*
X45765Y-47947D01*
X45753Y-47943D01*
X45746Y-47935D01*
X45742Y-47928D01*
X45738Y-47913D01*
X45738Y-47902D01*
X45742Y-47886D01*
X45746Y-47879D01*
X45753Y-47871D01*
X45765Y-47868D01*
X45772Y-47868D01*
X45784Y-47871D01*
X45787Y-47875D01*
X45817Y-47875D02*
X45821Y-47871D01*
X45829Y-47868D01*
X45847Y-47868D01*
X45855Y-47871D01*
X45859Y-47875D01*
X45863Y-47883D01*
X45863Y-47890D01*
X45859Y-47902D01*
X45814Y-47947D01*
X45863Y-47947D01*
X45911Y-47868D02*
X45919Y-47868D01*
X45926Y-47871D01*
X45930Y-47875D01*
X45934Y-47883D01*
X45938Y-47898D01*
X45938Y-47917D01*
X45934Y-47932D01*
X45930Y-47939D01*
X45926Y-47943D01*
X45919Y-47947D01*
X45911Y-47947D01*
X45904Y-47943D01*
X45900Y-47939D01*
X45896Y-47932D01*
X45893Y-47917D01*
X45893Y-47898D01*
X45896Y-47883D01*
X45900Y-47875D01*
X45904Y-47871D01*
X45911Y-47868D01*
X44008Y-45498D02*
X44004Y-45502D01*
X43993Y-45506D01*
X43985Y-45506D01*
X43974Y-45502D01*
X43966Y-45494D01*
X43963Y-45487D01*
X43959Y-45472D01*
X43959Y-45461D01*
X43963Y-45446D01*
X43966Y-45438D01*
X43974Y-45430D01*
X43985Y-45427D01*
X43993Y-45427D01*
X44004Y-45430D01*
X44008Y-45434D01*
X44038Y-45434D02*
X44042Y-45430D01*
X44049Y-45427D01*
X44068Y-45427D01*
X44075Y-45430D01*
X44079Y-45434D01*
X44083Y-45442D01*
X44083Y-45449D01*
X44079Y-45461D01*
X44034Y-45506D01*
X44083Y-45506D01*
X44158Y-45506D02*
X44113Y-45506D01*
X44136Y-45506D02*
X44136Y-45427D01*
X44128Y-45438D01*
X44121Y-45446D01*
X44113Y-45449D01*
X31971Y-45018D02*
X31944Y-44980D01*
X31925Y-45018D02*
X31925Y-44939D01*
X31956Y-44939D01*
X31963Y-44942D01*
X31967Y-44946D01*
X31971Y-44954D01*
X31971Y-44965D01*
X31967Y-44972D01*
X31963Y-44976D01*
X31956Y-44980D01*
X31925Y-44980D01*
X32046Y-45018D02*
X32001Y-45018D01*
X32023Y-45018D02*
X32023Y-44939D01*
X32016Y-44950D01*
X32008Y-44957D01*
X32001Y-44961D01*
X31868Y-46514D02*
X31842Y-46476D01*
X31823Y-46514D02*
X31823Y-46435D01*
X31853Y-46435D01*
X31861Y-46438D01*
X31864Y-46442D01*
X31868Y-46450D01*
X31868Y-46461D01*
X31864Y-46468D01*
X31861Y-46472D01*
X31853Y-46476D01*
X31823Y-46476D01*
X31898Y-46442D02*
X31902Y-46438D01*
X31910Y-46435D01*
X31928Y-46435D01*
X31936Y-46438D01*
X31940Y-46442D01*
X31943Y-46450D01*
X31943Y-46457D01*
X31940Y-46468D01*
X31895Y-46514D01*
X31943Y-46514D01*
X31876Y-45773D02*
X31850Y-45736D01*
X31831Y-45773D02*
X31831Y-45694D01*
X31861Y-45694D01*
X31869Y-45698D01*
X31872Y-45702D01*
X31876Y-45709D01*
X31876Y-45721D01*
X31872Y-45728D01*
X31869Y-45732D01*
X31861Y-45736D01*
X31831Y-45736D01*
X31902Y-45694D02*
X31951Y-45694D01*
X31925Y-45725D01*
X31936Y-45725D01*
X31944Y-45728D01*
X31948Y-45732D01*
X31951Y-45740D01*
X31951Y-45758D01*
X31948Y-45766D01*
X31944Y-45770D01*
X31936Y-45773D01*
X31914Y-45773D01*
X31906Y-45770D01*
X31902Y-45766D01*
X26207Y-45226D02*
X26180Y-45189D01*
X26162Y-45226D02*
X26162Y-45147D01*
X26192Y-45147D01*
X26199Y-45151D01*
X26203Y-45155D01*
X26207Y-45162D01*
X26207Y-45174D01*
X26203Y-45181D01*
X26199Y-45185D01*
X26192Y-45189D01*
X26162Y-45189D01*
X26278Y-45147D02*
X26241Y-45147D01*
X26237Y-45185D01*
X26241Y-45181D01*
X26248Y-45177D01*
X26267Y-45177D01*
X26275Y-45181D01*
X26278Y-45185D01*
X26282Y-45192D01*
X26282Y-45211D01*
X26278Y-45219D01*
X26275Y-45222D01*
X26267Y-45226D01*
X26248Y-45226D01*
X26241Y-45222D01*
X26237Y-45219D01*
X29415Y-44321D02*
X29389Y-44283D01*
X29370Y-44321D02*
X29370Y-44242D01*
X29400Y-44242D01*
X29408Y-44245D01*
X29412Y-44249D01*
X29415Y-44257D01*
X29415Y-44268D01*
X29412Y-44276D01*
X29408Y-44279D01*
X29400Y-44283D01*
X29370Y-44283D01*
X29483Y-44242D02*
X29468Y-44242D01*
X29461Y-44245D01*
X29457Y-44249D01*
X29449Y-44260D01*
X29446Y-44276D01*
X29446Y-44306D01*
X29449Y-44313D01*
X29453Y-44317D01*
X29461Y-44321D01*
X29476Y-44321D01*
X29483Y-44317D01*
X29487Y-44313D01*
X29491Y-44306D01*
X29491Y-44287D01*
X29487Y-44279D01*
X29483Y-44276D01*
X29476Y-44272D01*
X29461Y-44272D01*
X29453Y-44276D01*
X29449Y-44279D01*
X29446Y-44287D01*
X29408Y-43734D02*
X29381Y-43696D01*
X29362Y-43734D02*
X29362Y-43655D01*
X29393Y-43655D01*
X29400Y-43659D01*
X29404Y-43663D01*
X29408Y-43670D01*
X29408Y-43681D01*
X29404Y-43689D01*
X29400Y-43693D01*
X29393Y-43696D01*
X29362Y-43696D01*
X29434Y-43655D02*
X29487Y-43655D01*
X29453Y-43734D01*
X31018Y-41325D02*
X30991Y-41287D01*
X30973Y-41325D02*
X30973Y-41246D01*
X31003Y-41246D01*
X31010Y-41249D01*
X31014Y-41253D01*
X31018Y-41261D01*
X31018Y-41272D01*
X31014Y-41279D01*
X31010Y-41283D01*
X31003Y-41287D01*
X30973Y-41287D01*
X31063Y-41279D02*
X31055Y-41276D01*
X31052Y-41272D01*
X31048Y-41264D01*
X31048Y-41261D01*
X31052Y-41253D01*
X31055Y-41249D01*
X31063Y-41246D01*
X31078Y-41246D01*
X31086Y-41249D01*
X31089Y-41253D01*
X31093Y-41261D01*
X31093Y-41264D01*
X31089Y-41272D01*
X31086Y-41276D01*
X31078Y-41279D01*
X31063Y-41279D01*
X31055Y-41283D01*
X31052Y-41287D01*
X31048Y-41295D01*
X31048Y-41310D01*
X31052Y-41317D01*
X31055Y-41321D01*
X31063Y-41325D01*
X31078Y-41325D01*
X31086Y-41321D01*
X31089Y-41317D01*
X31093Y-41310D01*
X31093Y-41295D01*
X31089Y-41287D01*
X31086Y-41283D01*
X31078Y-41279D01*
X23183Y-41580D02*
X23145Y-41606D01*
X23183Y-41625D02*
X23104Y-41625D01*
X23104Y-41595D01*
X23108Y-41587D01*
X23111Y-41583D01*
X23119Y-41580D01*
X23130Y-41580D01*
X23138Y-41583D01*
X23141Y-41587D01*
X23145Y-41595D01*
X23145Y-41625D01*
X23183Y-41542D02*
X23183Y-41527D01*
X23179Y-41519D01*
X23175Y-41516D01*
X23164Y-41508D01*
X23149Y-41504D01*
X23119Y-41504D01*
X23111Y-41508D01*
X23108Y-41512D01*
X23104Y-41519D01*
X23104Y-41534D01*
X23108Y-41542D01*
X23111Y-41546D01*
X23119Y-41550D01*
X23138Y-41550D01*
X23145Y-41546D01*
X23149Y-41542D01*
X23153Y-41534D01*
X23153Y-41519D01*
X23149Y-41512D01*
X23145Y-41508D01*
X23138Y-41504D01*
X22691Y-42822D02*
X22653Y-42848D01*
X22691Y-42867D02*
X22612Y-42867D01*
X22612Y-42837D01*
X22616Y-42829D01*
X22619Y-42826D01*
X22627Y-42822D01*
X22638Y-42822D01*
X22646Y-42826D01*
X22649Y-42829D01*
X22653Y-42837D01*
X22653Y-42867D01*
X22691Y-42747D02*
X22691Y-42792D01*
X22691Y-42769D02*
X22612Y-42769D01*
X22623Y-42777D01*
X22631Y-42784D01*
X22634Y-42792D01*
X22612Y-42698D02*
X22612Y-42690D01*
X22616Y-42683D01*
X22619Y-42679D01*
X22627Y-42675D01*
X22642Y-42671D01*
X22661Y-42671D01*
X22676Y-42675D01*
X22683Y-42679D01*
X22687Y-42683D01*
X22691Y-42690D01*
X22691Y-42698D01*
X22687Y-42705D01*
X22683Y-42709D01*
X22676Y-42713D01*
X22661Y-42717D01*
X22642Y-42717D01*
X22627Y-42713D01*
X22619Y-42709D01*
X22616Y-42705D01*
X22612Y-42698D01*
X22285Y-43700D02*
X22248Y-43726D01*
X22285Y-43745D02*
X22206Y-43745D01*
X22206Y-43715D01*
X22210Y-43707D01*
X22214Y-43704D01*
X22221Y-43700D01*
X22233Y-43700D01*
X22240Y-43704D01*
X22244Y-43707D01*
X22248Y-43715D01*
X22248Y-43745D01*
X22285Y-43625D02*
X22285Y-43670D01*
X22285Y-43647D02*
X22206Y-43647D01*
X22218Y-43655D01*
X22225Y-43662D01*
X22229Y-43670D01*
X22285Y-43549D02*
X22285Y-43595D01*
X22285Y-43572D02*
X22206Y-43572D01*
X22218Y-43580D01*
X22225Y-43587D01*
X22229Y-43595D01*
X21805Y-44979D02*
X21767Y-45006D01*
X21805Y-45025D02*
X21726Y-45025D01*
X21726Y-44994D01*
X21730Y-44987D01*
X21733Y-44983D01*
X21741Y-44979D01*
X21752Y-44979D01*
X21760Y-44983D01*
X21764Y-44987D01*
X21767Y-44994D01*
X21767Y-45025D01*
X21805Y-44904D02*
X21805Y-44949D01*
X21805Y-44927D02*
X21726Y-44927D01*
X21737Y-44934D01*
X21745Y-44942D01*
X21748Y-44949D01*
X21733Y-44874D02*
X21730Y-44870D01*
X21726Y-44863D01*
X21726Y-44844D01*
X21730Y-44836D01*
X21733Y-44833D01*
X21741Y-44829D01*
X21748Y-44829D01*
X21760Y-44833D01*
X21805Y-44878D01*
X21805Y-44829D01*
X20961Y-46805D02*
X20934Y-46767D01*
X20915Y-46805D02*
X20915Y-46726D01*
X20945Y-46726D01*
X20953Y-46730D01*
X20957Y-46733D01*
X20961Y-46741D01*
X20961Y-46752D01*
X20957Y-46760D01*
X20953Y-46764D01*
X20945Y-46767D01*
X20915Y-46767D01*
X21036Y-46805D02*
X20991Y-46805D01*
X21013Y-46805D02*
X21013Y-46726D01*
X21006Y-46737D01*
X20998Y-46745D01*
X20991Y-46748D01*
X21062Y-46726D02*
X21111Y-46726D01*
X21085Y-46756D01*
X21096Y-46756D01*
X21103Y-46760D01*
X21107Y-46764D01*
X21111Y-46771D01*
X21111Y-46790D01*
X21107Y-46797D01*
X21103Y-46801D01*
X21096Y-46805D01*
X21073Y-46805D01*
X21066Y-46801D01*
X21062Y-46797D01*
X13732Y-49017D02*
X13694Y-49043D01*
X13732Y-49062D02*
X13653Y-49062D01*
X13653Y-49032D01*
X13657Y-49024D01*
X13661Y-49021D01*
X13668Y-49017D01*
X13679Y-49017D01*
X13687Y-49021D01*
X13691Y-49024D01*
X13694Y-49032D01*
X13694Y-49062D01*
X13732Y-48942D02*
X13732Y-48987D01*
X13732Y-48964D02*
X13653Y-48964D01*
X13664Y-48972D01*
X13672Y-48979D01*
X13676Y-48987D01*
X13679Y-48874D02*
X13732Y-48874D01*
X13649Y-48893D02*
X13706Y-48911D01*
X13706Y-48863D01*
X21783Y-39892D02*
X21757Y-39854D01*
X21738Y-39892D02*
X21738Y-39813D01*
X21768Y-39813D01*
X21776Y-39816D01*
X21780Y-39820D01*
X21783Y-39828D01*
X21783Y-39839D01*
X21780Y-39846D01*
X21776Y-39850D01*
X21768Y-39854D01*
X21738Y-39854D01*
X21859Y-39892D02*
X21813Y-39892D01*
X21836Y-39892D02*
X21836Y-39813D01*
X21829Y-39824D01*
X21821Y-39831D01*
X21813Y-39835D01*
X21930Y-39813D02*
X21892Y-39813D01*
X21889Y-39850D01*
X21892Y-39846D01*
X21900Y-39843D01*
X21919Y-39843D01*
X21926Y-39846D01*
X21930Y-39850D01*
X21934Y-39858D01*
X21934Y-39876D01*
X21930Y-39884D01*
X21926Y-39888D01*
X21919Y-39892D01*
X21900Y-39892D01*
X21892Y-39888D01*
X21889Y-39884D01*
X22006Y-41078D02*
X21968Y-41104D01*
X22006Y-41123D02*
X21927Y-41123D01*
X21927Y-41093D01*
X21930Y-41085D01*
X21934Y-41082D01*
X21942Y-41078D01*
X21953Y-41078D01*
X21961Y-41082D01*
X21964Y-41085D01*
X21968Y-41093D01*
X21968Y-41123D01*
X22006Y-41003D02*
X22006Y-41048D01*
X22006Y-41025D02*
X21927Y-41025D01*
X21938Y-41033D01*
X21946Y-41040D01*
X21949Y-41048D01*
X21927Y-40935D02*
X21927Y-40950D01*
X21930Y-40957D01*
X21934Y-40961D01*
X21946Y-40969D01*
X21961Y-40973D01*
X21991Y-40973D01*
X21998Y-40969D01*
X22002Y-40965D01*
X22006Y-40957D01*
X22006Y-40942D01*
X22002Y-40935D01*
X21998Y-40931D01*
X21991Y-40927D01*
X21972Y-40927D01*
X21964Y-40931D01*
X21961Y-40935D01*
X21957Y-40942D01*
X21957Y-40957D01*
X21961Y-40965D01*
X21964Y-40969D01*
X21972Y-40973D01*
G54D17*
X22285Y-31994D02*
X22285Y-32209D01*
X22271Y-32251D01*
X22242Y-32280D01*
X22200Y-32294D01*
X22171Y-32294D01*
X22414Y-32023D02*
X22428Y-32009D01*
X22457Y-31994D01*
X22528Y-31994D01*
X22557Y-32009D01*
X22571Y-32023D01*
X22585Y-32051D01*
X22585Y-32080D01*
X22571Y-32123D01*
X22400Y-32294D01*
X22585Y-32294D01*
X21244Y-28160D02*
X21244Y-27860D01*
X21244Y-28003D02*
X21415Y-28003D01*
X21415Y-28160D02*
X21415Y-27860D01*
X21558Y-28003D02*
X21658Y-28003D01*
X21701Y-28160D02*
X21558Y-28160D01*
X21558Y-27860D01*
X21701Y-27860D01*
X21815Y-28075D02*
X21958Y-28075D01*
X21787Y-28160D02*
X21887Y-27860D01*
X21987Y-28160D01*
X22087Y-28160D02*
X22087Y-27860D01*
X22158Y-27860D01*
X22201Y-27875D01*
X22229Y-27903D01*
X22244Y-27932D01*
X22258Y-27989D01*
X22258Y-28032D01*
X22244Y-28089D01*
X22229Y-28118D01*
X22201Y-28146D01*
X22158Y-28160D01*
X22087Y-28160D01*
X22387Y-28003D02*
X22487Y-28003D01*
X22529Y-28160D02*
X22387Y-28160D01*
X22387Y-27860D01*
X22529Y-27860D01*
X22829Y-28160D02*
X22729Y-28018D01*
X22658Y-28160D02*
X22658Y-27860D01*
X22772Y-27860D01*
X22801Y-27875D01*
X22815Y-27889D01*
X22829Y-27918D01*
X22829Y-27960D01*
X22815Y-27989D01*
X22801Y-28003D01*
X22772Y-28018D01*
X22658Y-28018D01*
X22887Y-28189D02*
X23115Y-28189D01*
X23158Y-27860D02*
X23344Y-27860D01*
X23244Y-27975D01*
X23287Y-27975D01*
X23315Y-27989D01*
X23329Y-28003D01*
X23344Y-28032D01*
X23344Y-28103D01*
X23329Y-28132D01*
X23315Y-28146D01*
X23287Y-28160D01*
X23201Y-28160D01*
X23172Y-28146D01*
X23158Y-28132D01*
X23444Y-27860D02*
X23644Y-28160D01*
X23644Y-27860D02*
X23444Y-28160D01*
X23744Y-27889D02*
X23758Y-27875D01*
X23787Y-27860D01*
X23858Y-27860D01*
X23887Y-27875D01*
X23901Y-27889D01*
X23915Y-27918D01*
X23915Y-27946D01*
X23901Y-27989D01*
X23729Y-28160D01*
X23915Y-28160D01*
G54D15*
X20370Y-35170D02*
X20613Y-35170D01*
X20641Y-35156D01*
X20656Y-35141D01*
X20670Y-35113D01*
X20670Y-35056D01*
X20656Y-35027D01*
X20641Y-35013D01*
X20613Y-34998D01*
X20370Y-34998D01*
X20370Y-34884D02*
X20370Y-34698D01*
X20484Y-34798D01*
X20484Y-34756D01*
X20498Y-34727D01*
X20513Y-34713D01*
X20541Y-34698D01*
X20613Y-34698D01*
X20641Y-34713D01*
X20656Y-34727D01*
X20670Y-34756D01*
X20670Y-34841D01*
X20656Y-34870D01*
X20641Y-34884D01*
X17720Y-36113D02*
X17577Y-36213D01*
X17720Y-36284D02*
X17420Y-36284D01*
X17420Y-36170D01*
X17434Y-36141D01*
X17448Y-36127D01*
X17477Y-36113D01*
X17520Y-36113D01*
X17548Y-36127D01*
X17563Y-36141D01*
X17577Y-36170D01*
X17577Y-36284D01*
X17563Y-35984D02*
X17563Y-35884D01*
X17720Y-35841D02*
X17720Y-35984D01*
X17420Y-35984D01*
X17420Y-35841D01*
X17434Y-35556D02*
X17420Y-35584D01*
X17420Y-35627D01*
X17434Y-35670D01*
X17463Y-35698D01*
X17491Y-35713D01*
X17548Y-35727D01*
X17591Y-35727D01*
X17648Y-35713D01*
X17677Y-35698D01*
X17706Y-35670D01*
X17720Y-35627D01*
X17720Y-35598D01*
X17706Y-35556D01*
X17691Y-35541D01*
X17591Y-35541D01*
X17591Y-35598D01*
X17420Y-35413D02*
X17663Y-35413D01*
X17691Y-35398D01*
X17706Y-35384D01*
X17720Y-35356D01*
X17720Y-35298D01*
X17706Y-35270D01*
X17691Y-35256D01*
X17663Y-35241D01*
X17420Y-35241D01*
X17720Y-34956D02*
X17720Y-35098D01*
X17420Y-35098D01*
X17634Y-34870D02*
X17634Y-34727D01*
X17720Y-34898D02*
X17420Y-34798D01*
X17720Y-34698D01*
X17420Y-34641D02*
X17420Y-34470D01*
X17720Y-34556D02*
X17420Y-34556D01*
X17420Y-34313D02*
X17420Y-34256D01*
X17434Y-34227D01*
X17463Y-34198D01*
X17520Y-34184D01*
X17620Y-34184D01*
X17677Y-34198D01*
X17706Y-34227D01*
X17720Y-34256D01*
X17720Y-34313D01*
X17706Y-34341D01*
X17677Y-34370D01*
X17620Y-34384D01*
X17520Y-34384D01*
X17463Y-34370D01*
X17434Y-34341D01*
X17420Y-34313D01*
X17720Y-33884D02*
X17577Y-33984D01*
X17720Y-34056D02*
X17420Y-34056D01*
X17420Y-33941D01*
X17434Y-33913D01*
X17448Y-33898D01*
X17477Y-33884D01*
X17520Y-33884D01*
X17548Y-33898D01*
X17563Y-33913D01*
X17577Y-33941D01*
X17577Y-34056D01*
G54D21*
X25097Y-42220D02*
X25352Y-42220D01*
X25382Y-42205D01*
X25397Y-42190D01*
X25412Y-42160D01*
X25412Y-42100D01*
X25397Y-42070D01*
X25382Y-42055D01*
X25352Y-42040D01*
X25097Y-42040D01*
X25127Y-41905D02*
X25112Y-41890D01*
X25097Y-41860D01*
X25097Y-41785D01*
X25112Y-41755D01*
X25127Y-41740D01*
X25157Y-41725D01*
X25187Y-41725D01*
X25232Y-41740D01*
X25412Y-41920D01*
X25412Y-41725D01*
X28128Y-44290D02*
X28128Y-44440D01*
X27813Y-44440D01*
X28038Y-44200D02*
X28038Y-44050D01*
X28128Y-44230D02*
X27813Y-44125D01*
X28128Y-44020D01*
X28128Y-43915D02*
X27813Y-43915D01*
X28128Y-43735D01*
X27813Y-43735D01*
X27948Y-43540D02*
X27933Y-43570D01*
X27918Y-43585D01*
X27888Y-43600D01*
X27873Y-43600D01*
X27843Y-43585D01*
X27828Y-43570D01*
X27813Y-43540D01*
X27813Y-43480D01*
X27828Y-43450D01*
X27843Y-43435D01*
X27873Y-43420D01*
X27888Y-43420D01*
X27918Y-43435D01*
X27933Y-43450D01*
X27948Y-43480D01*
X27948Y-43540D01*
X27963Y-43570D01*
X27978Y-43585D01*
X28008Y-43600D01*
X28068Y-43600D01*
X28098Y-43585D01*
X28113Y-43570D01*
X28128Y-43540D01*
X28128Y-43480D01*
X28113Y-43450D01*
X28098Y-43435D01*
X28068Y-43420D01*
X28008Y-43420D01*
X27978Y-43435D01*
X27963Y-43450D01*
X27948Y-43480D01*
X27813Y-43315D02*
X27813Y-43105D01*
X28128Y-43240D01*
X27843Y-43000D02*
X27828Y-42985D01*
X27813Y-42955D01*
X27813Y-42880D01*
X27828Y-42850D01*
X27843Y-42835D01*
X27873Y-42820D01*
X27903Y-42820D01*
X27948Y-42835D01*
X28128Y-43015D01*
X28128Y-42820D01*
X27813Y-42625D02*
X27813Y-42595D01*
X27828Y-42565D01*
X27843Y-42550D01*
X27873Y-42535D01*
X27933Y-42520D01*
X28008Y-42520D01*
X28068Y-42535D01*
X28098Y-42550D01*
X28113Y-42565D01*
X28128Y-42595D01*
X28128Y-42625D01*
X28113Y-42655D01*
X28098Y-42670D01*
X28068Y-42685D01*
X28008Y-42700D01*
X27933Y-42700D01*
X27873Y-42685D01*
X27843Y-42670D01*
X27828Y-42655D01*
X27813Y-42625D01*
X28038Y-42400D02*
X28038Y-42250D01*
X28128Y-42430D02*
X27813Y-42325D01*
X28128Y-42220D01*
X27798Y-41890D02*
X28203Y-42160D01*
X28128Y-41635D02*
X28128Y-41785D01*
X27813Y-41785D01*
X28038Y-41545D02*
X28038Y-41395D01*
X28128Y-41575D02*
X27813Y-41470D01*
X28128Y-41365D01*
X28128Y-41260D02*
X27813Y-41260D01*
X28128Y-41080D01*
X27813Y-41080D01*
X27948Y-40885D02*
X27933Y-40915D01*
X27918Y-40930D01*
X27888Y-40945D01*
X27873Y-40945D01*
X27843Y-40930D01*
X27828Y-40915D01*
X27813Y-40885D01*
X27813Y-40825D01*
X27828Y-40795D01*
X27843Y-40780D01*
X27873Y-40765D01*
X27888Y-40765D01*
X27918Y-40780D01*
X27933Y-40795D01*
X27948Y-40825D01*
X27948Y-40885D01*
X27963Y-40915D01*
X27978Y-40930D01*
X28008Y-40945D01*
X28068Y-40945D01*
X28098Y-40930D01*
X28113Y-40915D01*
X28128Y-40885D01*
X28128Y-40825D01*
X28113Y-40795D01*
X28098Y-40780D01*
X28068Y-40765D01*
X28008Y-40765D01*
X27978Y-40780D01*
X27963Y-40795D01*
X27948Y-40825D01*
X27813Y-40660D02*
X27813Y-40450D01*
X28128Y-40585D01*
X27843Y-40345D02*
X27828Y-40330D01*
X27813Y-40300D01*
X27813Y-40226D01*
X27828Y-40196D01*
X27843Y-40181D01*
X27873Y-40166D01*
X27903Y-40166D01*
X27948Y-40181D01*
X28128Y-40360D01*
X28128Y-40166D01*
X27813Y-39971D02*
X27813Y-39941D01*
X27828Y-39911D01*
X27843Y-39896D01*
X27873Y-39881D01*
X27933Y-39866D01*
X28008Y-39866D01*
X28068Y-39881D01*
X28098Y-39896D01*
X28113Y-39911D01*
X28128Y-39941D01*
X28128Y-39971D01*
X28113Y-40001D01*
X28098Y-40016D01*
X28068Y-40031D01*
X28008Y-40046D01*
X27933Y-40046D01*
X27873Y-40031D01*
X27843Y-40016D01*
X27828Y-40001D01*
X27813Y-39971D01*
X28038Y-39746D02*
X28038Y-39596D01*
X28128Y-39776D02*
X27813Y-39671D01*
X28128Y-39566D01*
X28128Y-39461D02*
X27813Y-39461D01*
G54D12*
X38316Y-39438D02*
X38316Y-39681D01*
X38330Y-39710D01*
X38345Y-39724D01*
X38373Y-39738D01*
X38430Y-39738D01*
X38459Y-39724D01*
X38473Y-39710D01*
X38488Y-39681D01*
X38488Y-39438D01*
X38759Y-39538D02*
X38759Y-39738D01*
X38688Y-39424D02*
X38616Y-39638D01*
X38802Y-39638D01*
X36127Y-46796D02*
X36127Y-46496D01*
X36242Y-46496D01*
X36270Y-46511D01*
X36284Y-46525D01*
X36299Y-46554D01*
X36299Y-46596D01*
X36284Y-46625D01*
X36270Y-46639D01*
X36242Y-46654D01*
X36127Y-46654D01*
X36427Y-46796D02*
X36427Y-46496D01*
X36742Y-46768D02*
X36727Y-46782D01*
X36684Y-46796D01*
X36656Y-46796D01*
X36613Y-46782D01*
X36584Y-46754D01*
X36570Y-46725D01*
X36556Y-46668D01*
X36556Y-46625D01*
X36570Y-46568D01*
X36584Y-46539D01*
X36613Y-46511D01*
X36656Y-46496D01*
X36684Y-46496D01*
X36727Y-46511D01*
X36742Y-46525D01*
X36842Y-46496D02*
X37027Y-46496D01*
X36927Y-46611D01*
X36970Y-46611D01*
X36999Y-46625D01*
X37013Y-46639D01*
X37027Y-46668D01*
X37027Y-46739D01*
X37013Y-46768D01*
X36999Y-46782D01*
X36970Y-46796D01*
X36884Y-46796D01*
X36856Y-46782D01*
X36842Y-46768D01*
X37142Y-46525D02*
X37156Y-46511D01*
X37184Y-46496D01*
X37256Y-46496D01*
X37284Y-46511D01*
X37299Y-46525D01*
X37313Y-46554D01*
X37313Y-46582D01*
X37299Y-46625D01*
X37127Y-46796D01*
X37313Y-46796D01*
X37442Y-46796D02*
X37442Y-46496D01*
X37542Y-46711D01*
X37642Y-46496D01*
X37642Y-46796D01*
X37756Y-46496D02*
X37956Y-46796D01*
X37956Y-46496D02*
X37756Y-46796D01*
X38199Y-46496D02*
X38142Y-46496D01*
X38113Y-46511D01*
X38099Y-46525D01*
X38070Y-46568D01*
X38056Y-46625D01*
X38056Y-46739D01*
X38070Y-46768D01*
X38084Y-46782D01*
X38113Y-46796D01*
X38170Y-46796D01*
X38199Y-46782D01*
X38213Y-46768D01*
X38227Y-46739D01*
X38227Y-46668D01*
X38213Y-46639D01*
X38199Y-46625D01*
X38170Y-46611D01*
X38113Y-46611D01*
X38084Y-46625D01*
X38070Y-46639D01*
X38056Y-46668D01*
X38327Y-46496D02*
X38527Y-46496D01*
X38399Y-46796D01*
X38784Y-46496D02*
X38642Y-46496D01*
X38627Y-46639D01*
X38642Y-46625D01*
X38670Y-46611D01*
X38742Y-46611D01*
X38770Y-46625D01*
X38784Y-46639D01*
X38799Y-46668D01*
X38799Y-46739D01*
X38784Y-46768D01*
X38770Y-46782D01*
X38742Y-46796D01*
X38670Y-46796D01*
X38642Y-46782D01*
X38627Y-46768D01*
X39027Y-46639D02*
X38927Y-46639D01*
X38927Y-46796D02*
X38927Y-46496D01*
X39070Y-46496D01*
X39327Y-46496D02*
X39184Y-46496D01*
X39170Y-46639D01*
X39184Y-46625D01*
X39213Y-46611D01*
X39284Y-46611D01*
X39313Y-46625D01*
X39327Y-46639D01*
X39342Y-46668D01*
X39342Y-46739D01*
X39327Y-46768D01*
X39313Y-46782D01*
X39284Y-46796D01*
X39213Y-46796D01*
X39184Y-46782D01*
X39170Y-46768D01*
X39627Y-46796D02*
X39456Y-46796D01*
X39542Y-46796D02*
X39542Y-46496D01*
X39513Y-46539D01*
X39484Y-46568D01*
X39456Y-46582D01*
X39742Y-46525D02*
X39756Y-46511D01*
X39784Y-46496D01*
X39856Y-46496D01*
X39884Y-46511D01*
X39899Y-46525D01*
X39913Y-46554D01*
X39913Y-46582D01*
X39899Y-46625D01*
X39727Y-46796D01*
X39913Y-46796D01*
X40184Y-46796D02*
X40042Y-46796D01*
X40042Y-46496D01*
X40213Y-46825D02*
X40442Y-46825D01*
X40470Y-46496D02*
X40642Y-46496D01*
X40556Y-46796D02*
X40556Y-46496D01*
X40942Y-46825D02*
X40913Y-46811D01*
X40884Y-46782D01*
X40842Y-46739D01*
X40813Y-46725D01*
X40784Y-46725D01*
X40799Y-46796D02*
X40770Y-46782D01*
X40742Y-46754D01*
X40727Y-46696D01*
X40727Y-46596D01*
X40742Y-46539D01*
X40770Y-46511D01*
X40799Y-46496D01*
X40856Y-46496D01*
X40884Y-46511D01*
X40913Y-46539D01*
X40927Y-46596D01*
X40927Y-46696D01*
X40913Y-46754D01*
X40884Y-46782D01*
X40856Y-46796D01*
X40799Y-46796D01*
X41156Y-46639D02*
X41056Y-46639D01*
X41056Y-46796D02*
X41056Y-46496D01*
X41199Y-46496D01*
X41313Y-46796D02*
X41313Y-46496D01*
X41427Y-46496D01*
X41456Y-46511D01*
X41470Y-46525D01*
X41484Y-46554D01*
X41484Y-46596D01*
X41470Y-46625D01*
X41456Y-46639D01*
X41427Y-46654D01*
X41313Y-46654D01*
M02*
