G04 (created by PCBNEW (2013-08-24 BZR 4298)-stable) date Fri 11 Oct 2013 09:56:01 PM PDT*
%MOIN*%
G04 Gerber Fmt 3.4, Leading zero omitted, Abs format*
%FSLAX34Y34*%
G01*
G70*
G90*
G04 APERTURE LIST*
%ADD10C,0.005906*%
%ADD11C,0.039400*%
%ADD12C,0.023622*%
%ADD13R,0.098400X0.098400*%
%ADD14C,0.127953*%
%ADD15C,0.027559*%
%ADD16C,0.039370*%
%ADD17C,0.047244*%
%ADD18C,0.031496*%
%ADD19C,0.023622*%
%ADD20C,0.019685*%
%ADD21C,0.015748*%
%ADD22C,0.009843*%
%ADD23C,0.010000*%
G04 APERTURE END LIST*
G54D10*
G54D11*
X37076Y-27608D03*
X38808Y-27608D03*
G54D12*
X26618Y-42019D03*
X26318Y-41719D03*
X26318Y-42319D03*
X26918Y-41719D03*
X26918Y-42319D03*
G54D13*
X26618Y-42019D03*
G54D14*
X45275Y-26771D03*
X45275Y-49212D03*
X14960Y-49212D03*
X14960Y-26771D03*
G54D15*
X24984Y-44240D03*
X41090Y-36779D03*
X35003Y-28645D03*
X43570Y-37551D03*
X18133Y-30720D03*
X35440Y-49149D03*
X40409Y-38649D03*
X28917Y-42106D03*
X25078Y-40440D03*
X23649Y-43200D03*
X25799Y-39330D03*
X25700Y-44000D03*
X27740Y-40732D03*
X33228Y-37338D03*
X28314Y-41259D03*
X33240Y-37933D03*
X29566Y-42141D03*
X28838Y-40641D03*
X22480Y-46350D03*
X38834Y-37696D03*
X37185Y-31035D03*
X45673Y-37303D03*
X41523Y-39866D03*
X18842Y-27748D03*
X41988Y-34448D03*
X41181Y-42728D03*
X37141Y-46618D03*
X35350Y-43322D03*
X27775Y-45724D03*
X41098Y-31291D03*
X26425Y-37311D03*
X30240Y-46409D03*
X37086Y-43070D03*
X37669Y-45759D03*
X37818Y-43578D03*
X38578Y-46468D03*
X23881Y-35700D03*
X26850Y-44791D03*
X34007Y-45141D03*
X29401Y-38157D03*
X33118Y-45196D03*
X28724Y-38641D03*
X32031Y-45318D03*
X29212Y-39409D03*
X39208Y-44129D03*
X40078Y-46003D03*
X40303Y-44236D03*
X40771Y-45570D03*
X41011Y-44669D03*
X42000Y-45066D03*
X33055Y-36177D03*
X27480Y-31484D03*
X32031Y-26728D03*
X33944Y-34098D03*
X30181Y-36090D03*
X32681Y-36771D03*
X32610Y-35488D03*
X29669Y-31909D03*
X31834Y-35622D03*
X26850Y-27988D03*
X31129Y-31070D03*
X30519Y-32409D03*
X34980Y-35641D03*
X31244Y-26728D03*
X32275Y-31129D03*
X34539Y-34830D03*
X23039Y-39240D03*
X24141Y-42433D03*
G54D16*
X34649Y-39531D02*
X38110Y-39531D01*
G54D17*
X25078Y-34669D02*
X25078Y-40440D01*
G54D16*
X41779Y-37468D02*
X41779Y-37551D01*
X41090Y-36779D02*
X41779Y-37468D01*
X35440Y-49149D02*
X35440Y-45204D01*
X34649Y-44413D02*
X34649Y-39531D01*
X35440Y-45204D02*
X34649Y-44413D01*
X35507Y-36031D02*
X38759Y-39282D01*
X35507Y-29149D02*
X35507Y-36031D01*
X35003Y-28645D02*
X35507Y-29149D01*
X40409Y-38649D02*
X40551Y-38649D01*
X40551Y-38649D02*
X41649Y-37551D01*
X41649Y-37551D02*
X41779Y-37551D01*
X41779Y-37551D02*
X43570Y-37551D01*
G54D17*
X23145Y-32736D02*
X25078Y-34669D01*
X19610Y-32736D02*
X23145Y-32736D01*
X18224Y-31350D02*
X19610Y-32736D01*
X18208Y-30795D02*
X18224Y-31350D01*
X18133Y-30720D02*
X18208Y-30795D01*
G54D16*
X28917Y-42106D02*
X28917Y-42204D01*
X28917Y-42204D02*
X29933Y-43665D01*
X29933Y-43665D02*
X30129Y-44051D01*
X30129Y-44051D02*
X30661Y-45129D01*
X30661Y-45129D02*
X31228Y-46208D01*
X31228Y-46208D02*
X34169Y-49149D01*
X34169Y-49149D02*
X35440Y-49149D01*
X38110Y-39531D02*
X38759Y-39282D01*
X38759Y-39282D02*
X40409Y-38649D01*
G54D18*
X28917Y-42106D02*
X28381Y-43133D01*
X28381Y-43133D02*
X26807Y-43125D01*
X26807Y-43125D02*
X25972Y-44539D01*
X25972Y-44539D02*
X25456Y-44539D01*
X25456Y-44539D02*
X24984Y-44421D01*
X24984Y-44421D02*
X24877Y-44350D01*
X24877Y-44350D02*
X24984Y-44240D01*
G54D19*
X24996Y-44263D02*
X24826Y-44267D01*
X24996Y-44251D02*
X24996Y-44263D01*
X24984Y-44240D02*
X24996Y-44251D01*
G54D16*
X25082Y-40437D02*
X25082Y-40425D01*
X25043Y-44204D02*
X24826Y-44267D01*
X25082Y-40425D02*
X25043Y-44204D01*
X25078Y-40440D02*
X25082Y-40437D01*
X24826Y-44267D02*
X24992Y-44255D01*
X24992Y-44255D02*
X23649Y-43200D01*
G54D20*
X25799Y-39330D02*
X25720Y-41449D01*
X25720Y-41449D02*
X25700Y-44000D01*
G54D21*
X27740Y-40732D02*
X27751Y-40720D01*
X27751Y-40720D02*
X27551Y-38562D01*
X27551Y-38562D02*
X27901Y-37110D01*
X27901Y-37110D02*
X33228Y-37338D01*
X28314Y-41259D02*
X28326Y-41248D01*
X28326Y-41248D02*
X28200Y-38704D01*
X28200Y-38704D02*
X28291Y-37559D01*
X28291Y-37559D02*
X30027Y-37696D01*
X30027Y-37696D02*
X30374Y-37933D01*
X30374Y-37933D02*
X33240Y-37933D01*
X29401Y-41748D02*
X29566Y-42141D01*
X28838Y-40641D02*
X29401Y-41748D01*
G54D16*
X26918Y-41719D02*
X26918Y-41453D01*
X26918Y-41453D02*
X26425Y-40960D01*
X26425Y-37311D02*
X26425Y-40960D01*
X26425Y-40960D02*
X26425Y-41612D01*
X26425Y-41612D02*
X26318Y-41719D01*
G54D20*
X22480Y-46350D02*
X22468Y-46350D01*
G54D21*
X38834Y-37696D02*
X38834Y-37685D01*
G54D16*
X45673Y-37303D02*
X45673Y-37275D01*
G54D22*
X41523Y-39866D02*
X41523Y-39854D01*
G54D16*
X20488Y-27811D02*
X19696Y-27811D01*
X19696Y-27811D02*
X18842Y-27748D01*
G54D18*
X41988Y-34448D02*
X41996Y-34448D01*
G54D20*
X41200Y-42748D02*
X41220Y-42748D01*
X41181Y-42728D02*
X41200Y-42748D01*
X37141Y-46618D02*
X37114Y-46645D01*
G54D22*
X35350Y-43322D02*
X35350Y-43326D01*
G54D20*
X27775Y-45724D02*
X27763Y-45736D01*
X27763Y-45736D02*
X27763Y-45740D01*
G54D18*
X41098Y-31291D02*
X41098Y-31303D01*
G54D16*
X26460Y-37275D02*
X26460Y-37204D01*
X26425Y-37311D02*
X26460Y-37275D01*
G54D18*
X30228Y-46397D02*
X30228Y-46393D01*
X30240Y-46409D02*
X30228Y-46397D01*
X37086Y-43070D02*
X37366Y-44476D01*
X37366Y-44476D02*
X37669Y-45759D01*
X37818Y-43578D02*
X38578Y-46468D01*
G54D20*
X23881Y-35700D02*
X23232Y-36350D01*
X23232Y-36350D02*
X22629Y-36350D01*
X22629Y-36350D02*
X21661Y-37318D01*
X21661Y-37318D02*
X21661Y-43759D01*
X21661Y-43759D02*
X22299Y-45015D01*
X22299Y-45015D02*
X26295Y-45015D01*
X26295Y-45015D02*
X26850Y-44791D01*
G54D21*
X34098Y-44287D02*
X34007Y-45141D01*
X34098Y-43889D02*
X34098Y-44287D01*
X33263Y-43055D02*
X34098Y-43889D01*
X31287Y-43055D02*
X33263Y-43055D01*
X30011Y-38259D02*
X31287Y-43055D01*
X29401Y-38157D02*
X30011Y-38259D01*
X33118Y-44098D02*
X33118Y-45196D01*
X32744Y-43724D02*
X33118Y-44098D01*
X31244Y-43724D02*
X32744Y-43724D01*
X30838Y-42885D02*
X31244Y-43724D01*
X30433Y-41814D02*
X30838Y-42885D01*
X30299Y-41161D02*
X30433Y-41814D01*
X29610Y-38803D02*
X30299Y-41161D01*
X28724Y-38641D02*
X29610Y-38803D01*
X30885Y-43874D02*
X32031Y-45318D01*
X29893Y-41500D02*
X30885Y-43874D01*
X29212Y-39409D02*
X29893Y-41500D01*
X39208Y-44129D02*
X40078Y-45881D01*
X40078Y-45881D02*
X40078Y-46003D01*
X40531Y-44897D02*
X40771Y-45570D01*
X40531Y-44897D02*
X40303Y-44236D01*
X41673Y-44775D02*
X42000Y-45066D01*
X41011Y-44669D02*
X41673Y-44775D01*
X33022Y-36144D02*
X33055Y-36177D01*
X33022Y-36144D02*
X31141Y-36161D01*
X31141Y-36161D02*
X27984Y-33330D01*
X27984Y-33330D02*
X27480Y-31484D01*
X32031Y-26728D02*
X33704Y-28401D01*
X33704Y-28401D02*
X33704Y-33440D01*
X33704Y-33440D02*
X33944Y-34098D01*
X30598Y-36771D02*
X30181Y-36090D01*
X32681Y-36771D02*
X30598Y-36771D01*
X30181Y-33090D02*
X29669Y-31909D01*
X32610Y-35488D02*
X30181Y-33090D01*
X28980Y-32838D02*
X26850Y-27988D01*
X28980Y-32838D02*
X31834Y-35622D01*
X31129Y-31070D02*
X30862Y-31555D01*
X30862Y-31555D02*
X30519Y-32409D01*
X34980Y-35641D02*
X34692Y-35641D01*
X34692Y-35641D02*
X33379Y-35475D01*
X33379Y-35475D02*
X31724Y-33570D01*
X31559Y-26960D02*
X31244Y-26728D01*
X31724Y-33570D02*
X31559Y-26960D01*
X33051Y-34251D02*
X33082Y-34251D01*
X32618Y-33251D02*
X32275Y-31129D01*
X33051Y-34251D02*
X32618Y-33251D01*
X33440Y-34830D02*
X34539Y-34830D01*
X33082Y-34251D02*
X33440Y-34830D01*
G54D20*
X23815Y-40870D02*
X23039Y-39240D01*
X24074Y-42366D02*
X23815Y-40870D01*
X24141Y-42433D02*
X24074Y-42366D01*
G54D10*
G36*
X26694Y-42025D02*
X26642Y-42077D01*
X26594Y-42077D01*
X26560Y-42043D01*
X26560Y-41995D01*
X26612Y-41943D01*
X26618Y-41948D01*
X26623Y-41943D01*
X26694Y-42014D01*
X26688Y-42019D01*
X26694Y-42025D01*
X26694Y-42025D01*
G37*
G54D23*
X26694Y-42025D02*
X26642Y-42077D01*
X26594Y-42077D01*
X26560Y-42043D01*
X26560Y-41995D01*
X26612Y-41943D01*
X26618Y-41948D01*
X26623Y-41943D01*
X26694Y-42014D01*
X26688Y-42019D01*
X26694Y-42025D01*
G54D10*
G36*
X47036Y-34029D02*
X46869Y-50745D01*
X46359Y-50748D01*
X46359Y-48998D01*
X46359Y-26557D01*
X46194Y-26158D01*
X45890Y-25853D01*
X45492Y-25688D01*
X45061Y-25688D01*
X44662Y-25852D01*
X44357Y-26157D01*
X44192Y-26555D01*
X44191Y-26986D01*
X44356Y-27384D01*
X44661Y-27689D01*
X45059Y-27854D01*
X45490Y-27855D01*
X45888Y-27690D01*
X46193Y-27386D01*
X46358Y-26988D01*
X46359Y-26557D01*
X46359Y-48998D01*
X46194Y-48599D01*
X45890Y-48294D01*
X45492Y-48129D01*
X45061Y-48128D01*
X44662Y-48293D01*
X44357Y-48598D01*
X44192Y-48996D01*
X44191Y-49427D01*
X44356Y-49825D01*
X44661Y-50130D01*
X45059Y-50295D01*
X45490Y-50296D01*
X45888Y-50131D01*
X46193Y-49827D01*
X46358Y-49429D01*
X46359Y-48998D01*
X46359Y-50748D01*
X43359Y-50767D01*
X43359Y-45165D01*
X42381Y-44626D01*
X42329Y-44574D01*
X42159Y-44503D01*
X42142Y-44494D01*
X42020Y-44385D01*
X41981Y-44362D01*
X41947Y-44330D01*
X41894Y-44311D01*
X41845Y-44282D01*
X41799Y-44275D01*
X41756Y-44259D01*
X41702Y-44251D01*
X40027Y-43326D01*
X37185Y-42445D01*
X37134Y-42481D01*
X36969Y-42481D01*
X36752Y-42570D01*
X36586Y-42736D01*
X36496Y-42953D01*
X36496Y-43188D01*
X36518Y-43295D01*
X36437Y-43978D01*
X36755Y-44795D01*
X36914Y-45177D01*
X37084Y-45898D01*
X37181Y-46111D01*
X37353Y-46271D01*
X37573Y-46353D01*
X37627Y-46351D01*
X38059Y-46748D01*
X38100Y-46832D01*
X38275Y-46987D01*
X38345Y-47011D01*
X38737Y-47372D01*
X40893Y-46875D01*
X43359Y-45165D01*
X43359Y-50767D01*
X16584Y-50936D01*
X16044Y-50936D01*
X16044Y-48998D01*
X15879Y-48599D01*
X15575Y-48294D01*
X15177Y-48129D01*
X14746Y-48128D01*
X14347Y-48293D01*
X14042Y-48598D01*
X13877Y-48996D01*
X13876Y-49427D01*
X14041Y-49825D01*
X14346Y-50130D01*
X14744Y-50295D01*
X15175Y-50296D01*
X15573Y-50131D01*
X15878Y-49827D01*
X16043Y-49429D01*
X16044Y-48998D01*
X16044Y-50936D01*
X13463Y-50936D01*
X13463Y-45751D01*
X23113Y-45751D01*
X23113Y-45557D01*
X26295Y-45557D01*
X26396Y-45537D01*
X26498Y-45518D01*
X26858Y-45372D01*
X26965Y-45372D01*
X27179Y-45284D01*
X27343Y-45121D01*
X27431Y-44907D01*
X27431Y-44676D01*
X27343Y-44462D01*
X27180Y-44298D01*
X26966Y-44209D01*
X26865Y-44209D01*
X27149Y-43728D01*
X28378Y-43735D01*
X28470Y-43717D01*
X28562Y-43707D01*
X28584Y-43695D01*
X28609Y-43690D01*
X28686Y-43639D01*
X28768Y-43594D01*
X28783Y-43574D01*
X28804Y-43561D01*
X28856Y-43484D01*
X28915Y-43411D01*
X28941Y-43361D01*
X29382Y-43995D01*
X29557Y-44338D01*
X30086Y-45413D01*
X30091Y-45419D01*
X30094Y-45427D01*
X30661Y-46506D01*
X30721Y-46581D01*
X30775Y-46661D01*
X33716Y-49602D01*
X33924Y-49741D01*
X34169Y-49790D01*
X35440Y-49790D01*
X35686Y-49741D01*
X35893Y-49602D01*
X36032Y-49394D01*
X36081Y-49149D01*
X36081Y-45204D01*
X36032Y-44959D01*
X35893Y-44751D01*
X35290Y-44148D01*
X35290Y-40172D01*
X38110Y-40172D01*
X38224Y-40149D01*
X38339Y-40129D01*
X38988Y-39880D01*
X40528Y-39290D01*
X40551Y-39290D01*
X40796Y-39241D01*
X41004Y-39102D01*
X41914Y-38191D01*
X43570Y-38191D01*
X43815Y-38142D01*
X44023Y-38004D01*
X44162Y-37796D01*
X44211Y-37551D01*
X44162Y-37306D01*
X44023Y-37098D01*
X43815Y-36959D01*
X43570Y-36910D01*
X42127Y-36910D01*
X41543Y-36326D01*
X41335Y-36187D01*
X41090Y-36138D01*
X40845Y-36187D01*
X40637Y-36326D01*
X40498Y-36534D01*
X40450Y-36779D01*
X40498Y-37024D01*
X40637Y-37232D01*
X40850Y-37444D01*
X40256Y-38038D01*
X40180Y-38051D01*
X39449Y-38331D01*
X39449Y-27481D01*
X39352Y-27245D01*
X39172Y-27065D01*
X38936Y-26967D01*
X38682Y-26967D01*
X38446Y-27064D01*
X38266Y-27244D01*
X38168Y-27480D01*
X38168Y-27734D01*
X38265Y-27970D01*
X38445Y-28150D01*
X38680Y-28248D01*
X38935Y-28248D01*
X39171Y-28151D01*
X39351Y-27971D01*
X39449Y-27736D01*
X39449Y-27481D01*
X39449Y-38331D01*
X38917Y-38535D01*
X37717Y-37335D01*
X37717Y-27481D01*
X37620Y-27245D01*
X37440Y-27065D01*
X37204Y-26967D01*
X36950Y-26967D01*
X36714Y-27064D01*
X36534Y-27244D01*
X36436Y-27480D01*
X36436Y-27734D01*
X36533Y-27970D01*
X36713Y-28150D01*
X36948Y-28248D01*
X37203Y-28248D01*
X37439Y-28151D01*
X37619Y-27971D01*
X37717Y-27736D01*
X37717Y-27481D01*
X37717Y-37335D01*
X37342Y-36960D01*
X36148Y-34997D01*
X36148Y-29149D01*
X36099Y-28904D01*
X35960Y-28696D01*
X35960Y-28696D01*
X35456Y-28192D01*
X35249Y-28053D01*
X35003Y-28005D01*
X34758Y-28053D01*
X34550Y-28192D01*
X34412Y-28400D01*
X34363Y-28645D01*
X34412Y-28890D01*
X34550Y-29098D01*
X34867Y-29414D01*
X34867Y-32892D01*
X34227Y-31840D01*
X34227Y-28401D01*
X34227Y-28401D01*
X34227Y-28401D01*
X34187Y-28201D01*
X34074Y-28032D01*
X34074Y-28032D01*
X34074Y-28032D01*
X32583Y-26541D01*
X32524Y-26399D01*
X32361Y-26235D01*
X32147Y-26146D01*
X31916Y-26146D01*
X31702Y-26235D01*
X31637Y-26299D01*
X31573Y-26235D01*
X31360Y-26146D01*
X31128Y-26146D01*
X30915Y-26235D01*
X30751Y-26398D01*
X30662Y-26612D01*
X30662Y-26843D01*
X30750Y-27057D01*
X30914Y-27221D01*
X31044Y-27275D01*
X31124Y-30489D01*
X31014Y-30489D01*
X30800Y-30577D01*
X30765Y-30612D01*
X28569Y-30604D01*
X27431Y-28012D01*
X27431Y-27873D01*
X27343Y-27659D01*
X27180Y-27495D01*
X26966Y-27406D01*
X26735Y-27406D01*
X26521Y-27494D01*
X26357Y-27658D01*
X26268Y-27872D01*
X26268Y-28103D01*
X26357Y-28317D01*
X26476Y-28437D01*
X27426Y-30600D01*
X26999Y-30598D01*
X27002Y-31139D01*
X26987Y-31154D01*
X26898Y-31368D01*
X26898Y-31599D01*
X26987Y-31813D01*
X27006Y-31832D01*
X27040Y-38517D01*
X27039Y-38526D01*
X27030Y-38611D01*
X27041Y-38721D01*
X27052Y-40890D01*
X28162Y-42253D01*
X28018Y-42530D01*
X27360Y-42527D01*
X27360Y-42461D01*
X27360Y-42132D01*
X27297Y-42069D01*
X27097Y-42069D01*
X27101Y-42065D01*
X27098Y-42019D01*
X27101Y-41973D01*
X27097Y-41969D01*
X27297Y-41969D01*
X27360Y-41907D01*
X27360Y-41577D01*
X27360Y-41477D01*
X27322Y-41386D01*
X27251Y-41315D01*
X27159Y-41277D01*
X26730Y-41277D01*
X26668Y-41340D01*
X26668Y-41540D01*
X26664Y-41536D01*
X26618Y-41539D01*
X26571Y-41536D01*
X26568Y-41540D01*
X26568Y-41340D01*
X26505Y-41277D01*
X26269Y-41277D01*
X26333Y-39561D01*
X26380Y-39446D01*
X26380Y-39215D01*
X26292Y-39001D01*
X26129Y-38838D01*
X25915Y-38749D01*
X25758Y-38749D01*
X25758Y-34669D01*
X25706Y-34409D01*
X25559Y-34188D01*
X23626Y-32255D01*
X23405Y-32108D01*
X23362Y-32099D01*
X23282Y-32083D01*
X23282Y-29546D01*
X23282Y-27774D01*
X23164Y-27488D01*
X22945Y-27269D01*
X22659Y-27150D01*
X22349Y-27150D01*
X22063Y-27268D01*
X21844Y-27487D01*
X21725Y-27773D01*
X21725Y-28083D01*
X21843Y-28369D01*
X22062Y-28588D01*
X22348Y-28707D01*
X22658Y-28707D01*
X22944Y-28589D01*
X23163Y-28370D01*
X23282Y-28084D01*
X23282Y-27774D01*
X23282Y-29546D01*
X23164Y-29260D01*
X22945Y-29041D01*
X22659Y-28922D01*
X22349Y-28922D01*
X22063Y-29040D01*
X21844Y-29259D01*
X21725Y-29545D01*
X21725Y-29854D01*
X21843Y-30141D01*
X22062Y-30360D01*
X22348Y-30478D01*
X22658Y-30479D01*
X22944Y-30361D01*
X23163Y-30142D01*
X23282Y-29856D01*
X23282Y-29546D01*
X23282Y-32083D01*
X23145Y-32056D01*
X19891Y-32056D01*
X18896Y-31060D01*
X18888Y-30775D01*
X18860Y-30655D01*
X18836Y-30535D01*
X18831Y-30526D01*
X18829Y-30517D01*
X18757Y-30416D01*
X18689Y-30314D01*
X18614Y-30239D01*
X18394Y-30092D01*
X18133Y-30040D01*
X17873Y-30092D01*
X17653Y-30239D01*
X17505Y-30460D01*
X17453Y-30720D01*
X17505Y-30980D01*
X17534Y-31024D01*
X17544Y-31369D01*
X17572Y-31489D01*
X17596Y-31610D01*
X17601Y-31618D01*
X17603Y-31628D01*
X17675Y-31728D01*
X17743Y-31831D01*
X19129Y-33216D01*
X19350Y-33364D01*
X19610Y-33416D01*
X22864Y-33416D01*
X24398Y-34950D01*
X24398Y-35429D01*
X24375Y-35371D01*
X24211Y-35208D01*
X23998Y-35119D01*
X23766Y-35119D01*
X23552Y-35207D01*
X23389Y-35370D01*
X23349Y-35466D01*
X23113Y-35702D01*
X23113Y-34445D01*
X16044Y-34445D01*
X16044Y-26557D01*
X15879Y-26158D01*
X15575Y-25853D01*
X15177Y-25688D01*
X14746Y-25688D01*
X14347Y-25852D01*
X14042Y-26157D01*
X13877Y-26555D01*
X13876Y-26986D01*
X14041Y-27384D01*
X14346Y-27689D01*
X14744Y-27854D01*
X15175Y-27855D01*
X15573Y-27690D01*
X15878Y-27386D01*
X16043Y-26988D01*
X16044Y-26557D01*
X16044Y-34445D01*
X13463Y-34445D01*
X13463Y-25660D01*
X47036Y-25660D01*
X47036Y-34029D01*
X47036Y-34029D01*
G37*
G54D23*
X47036Y-34029D02*
X46869Y-50745D01*
X46359Y-50748D01*
X46359Y-48998D01*
X46359Y-26557D01*
X46194Y-26158D01*
X45890Y-25853D01*
X45492Y-25688D01*
X45061Y-25688D01*
X44662Y-25852D01*
X44357Y-26157D01*
X44192Y-26555D01*
X44191Y-26986D01*
X44356Y-27384D01*
X44661Y-27689D01*
X45059Y-27854D01*
X45490Y-27855D01*
X45888Y-27690D01*
X46193Y-27386D01*
X46358Y-26988D01*
X46359Y-26557D01*
X46359Y-48998D01*
X46194Y-48599D01*
X45890Y-48294D01*
X45492Y-48129D01*
X45061Y-48128D01*
X44662Y-48293D01*
X44357Y-48598D01*
X44192Y-48996D01*
X44191Y-49427D01*
X44356Y-49825D01*
X44661Y-50130D01*
X45059Y-50295D01*
X45490Y-50296D01*
X45888Y-50131D01*
X46193Y-49827D01*
X46358Y-49429D01*
X46359Y-48998D01*
X46359Y-50748D01*
X43359Y-50767D01*
X43359Y-45165D01*
X42381Y-44626D01*
X42329Y-44574D01*
X42159Y-44503D01*
X42142Y-44494D01*
X42020Y-44385D01*
X41981Y-44362D01*
X41947Y-44330D01*
X41894Y-44311D01*
X41845Y-44282D01*
X41799Y-44275D01*
X41756Y-44259D01*
X41702Y-44251D01*
X40027Y-43326D01*
X37185Y-42445D01*
X37134Y-42481D01*
X36969Y-42481D01*
X36752Y-42570D01*
X36586Y-42736D01*
X36496Y-42953D01*
X36496Y-43188D01*
X36518Y-43295D01*
X36437Y-43978D01*
X36755Y-44795D01*
X36914Y-45177D01*
X37084Y-45898D01*
X37181Y-46111D01*
X37353Y-46271D01*
X37573Y-46353D01*
X37627Y-46351D01*
X38059Y-46748D01*
X38100Y-46832D01*
X38275Y-46987D01*
X38345Y-47011D01*
X38737Y-47372D01*
X40893Y-46875D01*
X43359Y-45165D01*
X43359Y-50767D01*
X16584Y-50936D01*
X16044Y-50936D01*
X16044Y-48998D01*
X15879Y-48599D01*
X15575Y-48294D01*
X15177Y-48129D01*
X14746Y-48128D01*
X14347Y-48293D01*
X14042Y-48598D01*
X13877Y-48996D01*
X13876Y-49427D01*
X14041Y-49825D01*
X14346Y-50130D01*
X14744Y-50295D01*
X15175Y-50296D01*
X15573Y-50131D01*
X15878Y-49827D01*
X16043Y-49429D01*
X16044Y-48998D01*
X16044Y-50936D01*
X13463Y-50936D01*
X13463Y-45751D01*
X23113Y-45751D01*
X23113Y-45557D01*
X26295Y-45557D01*
X26396Y-45537D01*
X26498Y-45518D01*
X26858Y-45372D01*
X26965Y-45372D01*
X27179Y-45284D01*
X27343Y-45121D01*
X27431Y-44907D01*
X27431Y-44676D01*
X27343Y-44462D01*
X27180Y-44298D01*
X26966Y-44209D01*
X26865Y-44209D01*
X27149Y-43728D01*
X28378Y-43735D01*
X28470Y-43717D01*
X28562Y-43707D01*
X28584Y-43695D01*
X28609Y-43690D01*
X28686Y-43639D01*
X28768Y-43594D01*
X28783Y-43574D01*
X28804Y-43561D01*
X28856Y-43484D01*
X28915Y-43411D01*
X28941Y-43361D01*
X29382Y-43995D01*
X29557Y-44338D01*
X30086Y-45413D01*
X30091Y-45419D01*
X30094Y-45427D01*
X30661Y-46506D01*
X30721Y-46581D01*
X30775Y-46661D01*
X33716Y-49602D01*
X33924Y-49741D01*
X34169Y-49790D01*
X35440Y-49790D01*
X35686Y-49741D01*
X35893Y-49602D01*
X36032Y-49394D01*
X36081Y-49149D01*
X36081Y-45204D01*
X36032Y-44959D01*
X35893Y-44751D01*
X35290Y-44148D01*
X35290Y-40172D01*
X38110Y-40172D01*
X38224Y-40149D01*
X38339Y-40129D01*
X38988Y-39880D01*
X40528Y-39290D01*
X40551Y-39290D01*
X40796Y-39241D01*
X41004Y-39102D01*
X41914Y-38191D01*
X43570Y-38191D01*
X43815Y-38142D01*
X44023Y-38004D01*
X44162Y-37796D01*
X44211Y-37551D01*
X44162Y-37306D01*
X44023Y-37098D01*
X43815Y-36959D01*
X43570Y-36910D01*
X42127Y-36910D01*
X41543Y-36326D01*
X41335Y-36187D01*
X41090Y-36138D01*
X40845Y-36187D01*
X40637Y-36326D01*
X40498Y-36534D01*
X40450Y-36779D01*
X40498Y-37024D01*
X40637Y-37232D01*
X40850Y-37444D01*
X40256Y-38038D01*
X40180Y-38051D01*
X39449Y-38331D01*
X39449Y-27481D01*
X39352Y-27245D01*
X39172Y-27065D01*
X38936Y-26967D01*
X38682Y-26967D01*
X38446Y-27064D01*
X38266Y-27244D01*
X38168Y-27480D01*
X38168Y-27734D01*
X38265Y-27970D01*
X38445Y-28150D01*
X38680Y-28248D01*
X38935Y-28248D01*
X39171Y-28151D01*
X39351Y-27971D01*
X39449Y-27736D01*
X39449Y-27481D01*
X39449Y-38331D01*
X38917Y-38535D01*
X37717Y-37335D01*
X37717Y-27481D01*
X37620Y-27245D01*
X37440Y-27065D01*
X37204Y-26967D01*
X36950Y-26967D01*
X36714Y-27064D01*
X36534Y-27244D01*
X36436Y-27480D01*
X36436Y-27734D01*
X36533Y-27970D01*
X36713Y-28150D01*
X36948Y-28248D01*
X37203Y-28248D01*
X37439Y-28151D01*
X37619Y-27971D01*
X37717Y-27736D01*
X37717Y-27481D01*
X37717Y-37335D01*
X37342Y-36960D01*
X36148Y-34997D01*
X36148Y-29149D01*
X36099Y-28904D01*
X35960Y-28696D01*
X35960Y-28696D01*
X35456Y-28192D01*
X35249Y-28053D01*
X35003Y-28005D01*
X34758Y-28053D01*
X34550Y-28192D01*
X34412Y-28400D01*
X34363Y-28645D01*
X34412Y-28890D01*
X34550Y-29098D01*
X34867Y-29414D01*
X34867Y-32892D01*
X34227Y-31840D01*
X34227Y-28401D01*
X34227Y-28401D01*
X34227Y-28401D01*
X34187Y-28201D01*
X34074Y-28032D01*
X34074Y-28032D01*
X34074Y-28032D01*
X32583Y-26541D01*
X32524Y-26399D01*
X32361Y-26235D01*
X32147Y-26146D01*
X31916Y-26146D01*
X31702Y-26235D01*
X31637Y-26299D01*
X31573Y-26235D01*
X31360Y-26146D01*
X31128Y-26146D01*
X30915Y-26235D01*
X30751Y-26398D01*
X30662Y-26612D01*
X30662Y-26843D01*
X30750Y-27057D01*
X30914Y-27221D01*
X31044Y-27275D01*
X31124Y-30489D01*
X31014Y-30489D01*
X30800Y-30577D01*
X30765Y-30612D01*
X28569Y-30604D01*
X27431Y-28012D01*
X27431Y-27873D01*
X27343Y-27659D01*
X27180Y-27495D01*
X26966Y-27406D01*
X26735Y-27406D01*
X26521Y-27494D01*
X26357Y-27658D01*
X26268Y-27872D01*
X26268Y-28103D01*
X26357Y-28317D01*
X26476Y-28437D01*
X27426Y-30600D01*
X26999Y-30598D01*
X27002Y-31139D01*
X26987Y-31154D01*
X26898Y-31368D01*
X26898Y-31599D01*
X26987Y-31813D01*
X27006Y-31832D01*
X27040Y-38517D01*
X27039Y-38526D01*
X27030Y-38611D01*
X27041Y-38721D01*
X27052Y-40890D01*
X28162Y-42253D01*
X28018Y-42530D01*
X27360Y-42527D01*
X27360Y-42461D01*
X27360Y-42132D01*
X27297Y-42069D01*
X27097Y-42069D01*
X27101Y-42065D01*
X27098Y-42019D01*
X27101Y-41973D01*
X27097Y-41969D01*
X27297Y-41969D01*
X27360Y-41907D01*
X27360Y-41577D01*
X27360Y-41477D01*
X27322Y-41386D01*
X27251Y-41315D01*
X27159Y-41277D01*
X26730Y-41277D01*
X26668Y-41340D01*
X26668Y-41540D01*
X26664Y-41536D01*
X26618Y-41539D01*
X26571Y-41536D01*
X26568Y-41540D01*
X26568Y-41340D01*
X26505Y-41277D01*
X26269Y-41277D01*
X26333Y-39561D01*
X26380Y-39446D01*
X26380Y-39215D01*
X26292Y-39001D01*
X26129Y-38838D01*
X25915Y-38749D01*
X25758Y-38749D01*
X25758Y-34669D01*
X25706Y-34409D01*
X25559Y-34188D01*
X23626Y-32255D01*
X23405Y-32108D01*
X23362Y-32099D01*
X23282Y-32083D01*
X23282Y-29546D01*
X23282Y-27774D01*
X23164Y-27488D01*
X22945Y-27269D01*
X22659Y-27150D01*
X22349Y-27150D01*
X22063Y-27268D01*
X21844Y-27487D01*
X21725Y-27773D01*
X21725Y-28083D01*
X21843Y-28369D01*
X22062Y-28588D01*
X22348Y-28707D01*
X22658Y-28707D01*
X22944Y-28589D01*
X23163Y-28370D01*
X23282Y-28084D01*
X23282Y-27774D01*
X23282Y-29546D01*
X23164Y-29260D01*
X22945Y-29041D01*
X22659Y-28922D01*
X22349Y-28922D01*
X22063Y-29040D01*
X21844Y-29259D01*
X21725Y-29545D01*
X21725Y-29854D01*
X21843Y-30141D01*
X22062Y-30360D01*
X22348Y-30478D01*
X22658Y-30479D01*
X22944Y-30361D01*
X23163Y-30142D01*
X23282Y-29856D01*
X23282Y-29546D01*
X23282Y-32083D01*
X23145Y-32056D01*
X19891Y-32056D01*
X18896Y-31060D01*
X18888Y-30775D01*
X18860Y-30655D01*
X18836Y-30535D01*
X18831Y-30526D01*
X18829Y-30517D01*
X18757Y-30416D01*
X18689Y-30314D01*
X18614Y-30239D01*
X18394Y-30092D01*
X18133Y-30040D01*
X17873Y-30092D01*
X17653Y-30239D01*
X17505Y-30460D01*
X17453Y-30720D01*
X17505Y-30980D01*
X17534Y-31024D01*
X17544Y-31369D01*
X17572Y-31489D01*
X17596Y-31610D01*
X17601Y-31618D01*
X17603Y-31628D01*
X17675Y-31728D01*
X17743Y-31831D01*
X19129Y-33216D01*
X19350Y-33364D01*
X19610Y-33416D01*
X22864Y-33416D01*
X24398Y-34950D01*
X24398Y-35429D01*
X24375Y-35371D01*
X24211Y-35208D01*
X23998Y-35119D01*
X23766Y-35119D01*
X23552Y-35207D01*
X23389Y-35370D01*
X23349Y-35466D01*
X23113Y-35702D01*
X23113Y-34445D01*
X16044Y-34445D01*
X16044Y-26557D01*
X15879Y-26158D01*
X15575Y-25853D01*
X15177Y-25688D01*
X14746Y-25688D01*
X14347Y-25852D01*
X14042Y-26157D01*
X13877Y-26555D01*
X13876Y-26986D01*
X14041Y-27384D01*
X14346Y-27689D01*
X14744Y-27854D01*
X15175Y-27855D01*
X15573Y-27690D01*
X15878Y-27386D01*
X16043Y-26988D01*
X16044Y-26557D01*
X16044Y-34445D01*
X13463Y-34445D01*
X13463Y-25660D01*
X47036Y-25660D01*
X47036Y-34029D01*
M02*
