G04 (created by PCBNEW (2013-08-24 BZR 4298)-stable) date Fri 11 Oct 2013 07:09:07 PM PDT*
%MOIN*%
G04 Gerber Fmt 3.4, Leading zero omitted, Abs format*
%FSLAX34Y34*%
G01*
G70*
G90*
G04 APERTURE LIST*
%ADD10C,0.005906*%
%ADD11C,0.011811*%
%ADD12C,0.007874*%
%ADD13R,0.039400X0.059100*%
%ADD14R,0.039400X0.061000*%
%ADD15R,0.063000X0.063000*%
%ADD16C,0.039400*%
%ADD17R,0.019700X0.047200*%
%ADD18R,0.009800X0.060000*%
%ADD19O,0.009800X0.060000*%
%ADD20O,0.060000X0.009800*%
%ADD21R,0.149600X0.082700*%
%ADD22C,0.060000*%
%ADD23C,0.157480*%
%ADD24C,0.090000*%
%ADD25C,0.086614*%
%ADD26R,0.078700X0.078700*%
%ADD27R,0.055000X0.035000*%
%ADD28R,0.035000X0.055000*%
%ADD29R,0.060000X0.120000*%
%ADD30R,0.200000X0.210000*%
%ADD31R,0.039000X0.100000*%
%ADD32R,0.100000X0.039000*%
%ADD33C,0.118110*%
%ADD34R,0.098400X0.098400*%
%ADD35O,0.009800X0.031500*%
%ADD36O,0.031500X0.009800*%
%ADD37C,0.023622*%
%ADD38C,0.027559*%
%ADD39C,0.023622*%
%ADD40C,0.009843*%
%ADD41C,0.039370*%
%ADD42C,0.047244*%
%ADD43C,0.019685*%
%ADD44C,0.015748*%
%ADD45C,0.031496*%
G04 APERTURE END LIST*
G54D10*
G54D11*
X25989Y-29649D02*
X25539Y-29817D01*
X25989Y-29986D01*
X26270Y-29817D02*
X26720Y-29817D01*
X25355Y-28991D02*
X25805Y-28991D01*
X25580Y-29215D02*
X25580Y-28766D01*
X26367Y-28625D02*
X26086Y-28625D01*
X26058Y-28906D01*
X26086Y-28878D01*
X26142Y-28850D01*
X26283Y-28850D01*
X26339Y-28878D01*
X26367Y-28906D01*
X26395Y-28962D01*
X26395Y-29103D01*
X26367Y-29159D01*
X26339Y-29187D01*
X26283Y-29215D01*
X26142Y-29215D01*
X26086Y-29187D01*
X26058Y-29159D01*
X26592Y-28822D02*
X26733Y-29215D01*
X26874Y-28822D01*
G54D12*
X39816Y-50167D02*
X39801Y-50182D01*
X39756Y-50197D01*
X39726Y-50197D01*
X39681Y-50182D01*
X39651Y-50152D01*
X39636Y-50122D01*
X39621Y-50062D01*
X39621Y-50017D01*
X39636Y-49957D01*
X39651Y-49927D01*
X39681Y-49897D01*
X39726Y-49882D01*
X39756Y-49882D01*
X39801Y-49897D01*
X39816Y-49912D01*
X40101Y-50197D02*
X39951Y-50197D01*
X39951Y-49882D01*
X40206Y-50197D02*
X40206Y-49882D01*
X40386Y-50197D02*
X40251Y-50017D01*
X40386Y-49882D02*
X40206Y-50062D01*
X37618Y-49913D02*
X37588Y-49898D01*
X37543Y-49898D01*
X37498Y-49913D01*
X37468Y-49943D01*
X37453Y-49973D01*
X37438Y-50033D01*
X37438Y-50078D01*
X37453Y-50138D01*
X37468Y-50168D01*
X37498Y-50198D01*
X37543Y-50213D01*
X37573Y-50213D01*
X37618Y-50198D01*
X37633Y-50183D01*
X37633Y-50078D01*
X37573Y-50078D01*
X37768Y-50213D02*
X37768Y-49898D01*
X37948Y-50213D01*
X37948Y-49898D01*
X38098Y-50213D02*
X38098Y-49898D01*
X38173Y-49898D01*
X38218Y-49913D01*
X38248Y-49943D01*
X38263Y-49973D01*
X38278Y-50033D01*
X38278Y-50078D01*
X38263Y-50138D01*
X38248Y-50168D01*
X38218Y-50198D01*
X38173Y-50213D01*
X38098Y-50213D01*
X38587Y-50213D02*
X38587Y-49898D01*
X38662Y-49898D01*
X38707Y-49913D01*
X38737Y-49943D01*
X38752Y-49973D01*
X38767Y-50033D01*
X38767Y-50078D01*
X38752Y-50138D01*
X38737Y-50168D01*
X38707Y-50198D01*
X38662Y-50213D01*
X38587Y-50213D01*
X38887Y-50123D02*
X39037Y-50123D01*
X38857Y-50213D02*
X38962Y-49898D01*
X39067Y-50213D01*
X39127Y-49898D02*
X39307Y-49898D01*
X39217Y-50213D02*
X39217Y-49898D01*
X36223Y-49553D02*
X36463Y-49553D01*
X36343Y-49673D02*
X36343Y-49434D01*
X36583Y-49359D02*
X36778Y-49359D01*
X36673Y-49479D01*
X36718Y-49479D01*
X36748Y-49494D01*
X36763Y-49508D01*
X36778Y-49538D01*
X36778Y-49613D01*
X36763Y-49643D01*
X36748Y-49658D01*
X36718Y-49673D01*
X36628Y-49673D01*
X36598Y-49658D01*
X36583Y-49643D01*
X36913Y-49643D02*
X36928Y-49658D01*
X36913Y-49673D01*
X36898Y-49658D01*
X36913Y-49643D01*
X36913Y-49673D01*
X37033Y-49359D02*
X37228Y-49359D01*
X37123Y-49479D01*
X37168Y-49479D01*
X37198Y-49494D01*
X37213Y-49508D01*
X37228Y-49538D01*
X37228Y-49613D01*
X37213Y-49643D01*
X37198Y-49658D01*
X37168Y-49673D01*
X37078Y-49673D01*
X37048Y-49658D01*
X37033Y-49643D01*
X37333Y-49464D02*
X37408Y-49673D01*
X37483Y-49464D01*
X35527Y-50229D02*
X35527Y-49914D01*
X35632Y-50139D01*
X35737Y-49914D01*
X35737Y-50229D01*
X36067Y-50199D02*
X36052Y-50214D01*
X36007Y-50229D01*
X35977Y-50229D01*
X35932Y-50214D01*
X35902Y-50184D01*
X35887Y-50154D01*
X35872Y-50094D01*
X35872Y-50049D01*
X35887Y-49989D01*
X35902Y-49959D01*
X35932Y-49929D01*
X35977Y-49914D01*
X36007Y-49914D01*
X36052Y-49929D01*
X36067Y-49944D01*
X36352Y-50229D02*
X36202Y-50229D01*
X36202Y-49914D01*
X36637Y-50229D02*
X36532Y-50079D01*
X36457Y-50229D02*
X36457Y-49914D01*
X36577Y-49914D01*
X36607Y-49929D01*
X36622Y-49944D01*
X36637Y-49974D01*
X36637Y-50019D01*
X36622Y-50049D01*
X36607Y-50064D01*
X36577Y-50079D01*
X36457Y-50079D01*
X35452Y-49859D02*
X36697Y-49859D01*
G54D13*
X29150Y-34612D03*
G54D14*
X27998Y-34608D03*
G54D15*
X36190Y-28592D03*
X36190Y-26427D03*
X39694Y-28592D03*
G54D16*
X37076Y-27608D03*
G54D17*
X37627Y-28829D03*
X38572Y-28829D03*
X38257Y-28829D03*
X37312Y-28829D03*
X37937Y-28829D03*
G54D15*
X39694Y-26427D03*
G54D16*
X38808Y-27608D03*
G54D18*
X34124Y-42261D03*
G54D19*
X34321Y-42261D03*
X34518Y-42261D03*
X34715Y-42261D03*
X34912Y-42261D03*
X35108Y-42261D03*
X35305Y-42261D03*
X35502Y-42261D03*
X35699Y-42261D03*
X35896Y-42261D03*
X36093Y-42261D03*
X36289Y-42261D03*
X36486Y-42261D03*
X36683Y-42261D03*
X36880Y-42261D03*
X37077Y-42261D03*
G54D20*
X37975Y-41426D03*
X37975Y-41229D03*
X37975Y-41032D03*
X37975Y-40835D03*
X37975Y-40638D03*
X37975Y-40442D03*
X37975Y-40245D03*
X37975Y-40048D03*
X37975Y-39851D03*
X37975Y-39654D03*
X37975Y-39457D03*
X37975Y-39261D03*
X37975Y-39064D03*
X37975Y-38867D03*
X37975Y-38670D03*
X37975Y-38473D03*
G54D19*
X37077Y-37575D03*
X36880Y-37575D03*
X36683Y-37575D03*
X36486Y-37575D03*
X36289Y-37575D03*
X36093Y-37575D03*
X35896Y-37575D03*
X35699Y-37575D03*
X35502Y-37575D03*
X35305Y-37575D03*
X35108Y-37575D03*
X34912Y-37575D03*
X34715Y-37575D03*
X34518Y-37575D03*
X34321Y-37575D03*
X34124Y-37575D03*
G54D20*
X33289Y-38473D03*
X33289Y-38670D03*
X33289Y-39064D03*
X33282Y-38867D03*
X33289Y-39261D03*
X33289Y-39457D03*
X33289Y-39654D03*
X33289Y-39851D03*
X33289Y-40048D03*
X33289Y-40245D03*
X33289Y-40439D03*
X33289Y-40636D03*
X33289Y-40833D03*
X33289Y-41030D03*
X33289Y-41226D03*
X33289Y-41423D03*
G54D21*
X31330Y-48462D03*
X27330Y-48500D03*
X33893Y-32667D03*
X37893Y-32629D03*
G54D22*
X14921Y-37765D03*
X14921Y-38765D03*
X14921Y-41982D03*
X14921Y-42982D03*
X19350Y-39084D03*
X19350Y-41084D03*
X19350Y-40084D03*
X19350Y-42080D03*
X20350Y-41570D03*
X20350Y-39574D03*
X20350Y-40574D03*
G54D23*
X16902Y-42624D03*
X16902Y-38124D03*
G54D24*
X18051Y-37324D03*
X18051Y-43423D03*
G54D22*
X20350Y-38574D03*
G54D25*
X22503Y-29700D03*
G54D26*
X24629Y-27929D03*
X24629Y-30330D03*
X20371Y-27929D03*
X20377Y-30330D03*
G54D25*
X22503Y-27929D03*
G54D27*
X25688Y-45274D03*
X25688Y-46024D03*
G54D28*
X17577Y-44940D03*
X18327Y-44940D03*
G54D27*
X35500Y-45193D03*
X35500Y-44443D03*
G54D28*
X22855Y-42696D03*
X22105Y-42696D03*
G54D27*
X22066Y-40786D03*
X22066Y-41536D03*
G54D28*
X22884Y-43986D03*
X22134Y-43986D03*
G54D27*
X22066Y-39971D03*
X22066Y-39221D03*
G54D28*
X29593Y-40905D03*
X30343Y-40905D03*
X31786Y-42141D03*
X32536Y-42141D03*
X30495Y-42940D03*
X31245Y-42940D03*
X29843Y-50086D03*
X29093Y-50086D03*
G54D27*
X23618Y-45254D03*
X23618Y-46004D03*
X33988Y-44213D03*
X33988Y-43463D03*
X33098Y-44233D03*
X33098Y-43483D03*
X32118Y-44237D03*
X32118Y-43487D03*
X24539Y-45274D03*
X24539Y-46024D03*
X39200Y-35394D03*
X39200Y-34644D03*
X38106Y-34156D03*
X38106Y-34906D03*
X36570Y-34306D03*
X36570Y-35056D03*
X40921Y-36178D03*
X40921Y-35428D03*
X41901Y-36154D03*
X41901Y-35404D03*
G54D28*
X37046Y-30009D03*
X37796Y-30009D03*
X41536Y-29956D03*
X40786Y-29956D03*
X28831Y-35850D03*
X28081Y-35850D03*
X40274Y-39350D03*
X41024Y-39350D03*
X28859Y-37003D03*
X28109Y-37003D03*
X39554Y-42169D03*
X40304Y-42169D03*
X18081Y-29062D03*
X18831Y-29062D03*
G54D27*
X36590Y-45278D03*
X36590Y-46028D03*
X24000Y-39914D03*
X24000Y-39164D03*
X24913Y-39886D03*
X24913Y-39136D03*
X27468Y-46325D03*
X27468Y-47075D03*
X29259Y-46254D03*
X29259Y-47004D03*
X29031Y-44825D03*
X29031Y-45575D03*
X29858Y-44845D03*
X29858Y-45595D03*
G54D28*
X15727Y-35679D03*
X16477Y-35679D03*
G54D29*
X15385Y-32950D03*
X16985Y-32950D03*
G54D30*
X16185Y-30150D03*
G54D31*
X40901Y-48531D03*
X39901Y-47531D03*
X38901Y-48531D03*
X37901Y-47531D03*
X36901Y-48531D03*
X35901Y-47531D03*
X33043Y-27755D03*
X34043Y-27755D03*
X34043Y-29755D03*
X33043Y-29755D03*
X32043Y-29755D03*
X28039Y-29755D03*
X29043Y-29755D03*
X30043Y-29755D03*
X31043Y-29755D03*
X32043Y-27755D03*
X31043Y-27755D03*
X30043Y-27755D03*
X29043Y-27755D03*
X28043Y-27755D03*
G54D32*
X43696Y-40594D03*
X45696Y-39594D03*
X45696Y-38594D03*
X43696Y-38594D03*
X43696Y-39594D03*
X43696Y-41594D03*
X45696Y-40594D03*
X45696Y-41594D03*
X45696Y-42594D03*
X45696Y-46594D03*
X45696Y-45594D03*
X45696Y-44594D03*
X45696Y-43594D03*
X43696Y-42594D03*
X43696Y-43594D03*
X43696Y-44594D03*
X43696Y-45594D03*
X43696Y-46594D03*
G54D33*
X45275Y-27559D03*
X45275Y-48818D03*
X14566Y-48818D03*
X14566Y-27559D03*
G54D34*
X26618Y-42019D03*
G54D35*
X26126Y-42806D03*
X26323Y-42806D03*
X26520Y-42806D03*
X26716Y-42806D03*
X26913Y-42806D03*
X27110Y-42806D03*
G54D36*
X27405Y-42511D03*
X27405Y-42314D03*
X27405Y-42117D03*
X27405Y-41921D03*
X27405Y-41724D03*
X27405Y-41527D03*
G54D35*
X27110Y-41232D03*
X26913Y-41232D03*
X26716Y-41232D03*
X26520Y-41232D03*
X26323Y-41232D03*
X26126Y-41232D03*
G54D36*
X25831Y-41527D03*
X25831Y-41724D03*
X25831Y-41921D03*
X25831Y-42117D03*
X25831Y-42314D03*
X25831Y-42511D03*
G54D37*
X26618Y-42019D03*
X26318Y-41719D03*
X26318Y-42319D03*
X26918Y-41719D03*
X26918Y-42319D03*
G54D38*
X24984Y-44240D03*
X41090Y-36779D03*
X35003Y-28645D03*
X43570Y-37551D03*
X18133Y-30720D03*
X35440Y-49149D03*
X40409Y-38649D03*
X28917Y-42106D03*
X25078Y-40440D03*
X23649Y-43200D03*
X25799Y-39330D03*
X25700Y-44000D03*
X27740Y-40732D03*
X33228Y-37338D03*
X28314Y-41259D03*
X33240Y-37933D03*
X29566Y-42141D03*
X28838Y-40641D03*
X22480Y-46350D03*
X38834Y-37696D03*
X37185Y-31035D03*
X45673Y-37303D03*
X41523Y-39866D03*
X18842Y-27748D03*
X41988Y-34448D03*
X41181Y-42728D03*
X37141Y-46618D03*
X35350Y-43322D03*
X27775Y-45724D03*
X41098Y-31291D03*
X26425Y-37311D03*
X30240Y-46409D03*
X37086Y-43070D03*
X37669Y-45759D03*
X37818Y-43578D03*
X38578Y-46468D03*
X23881Y-35700D03*
X26850Y-44791D03*
X34007Y-45141D03*
X29401Y-38157D03*
X33118Y-45196D03*
X28724Y-38641D03*
X32031Y-45318D03*
X29212Y-39409D03*
X39208Y-44129D03*
X40078Y-46003D03*
X40303Y-44236D03*
X40771Y-45570D03*
X41011Y-44669D03*
X42000Y-45066D03*
X33055Y-36177D03*
X27480Y-31484D03*
X32031Y-26728D03*
X33944Y-34098D03*
X32681Y-36771D03*
X30181Y-36090D03*
X32610Y-35488D03*
X29669Y-31909D03*
X31834Y-35622D03*
X26850Y-27988D03*
X31129Y-31070D03*
X30519Y-32409D03*
X34980Y-35641D03*
X31244Y-26728D03*
X32098Y-31086D03*
X34539Y-34830D03*
X23039Y-39240D03*
X24141Y-42433D03*
G54D39*
X24539Y-45274D02*
X25003Y-44259D01*
X25003Y-44259D02*
X24984Y-44240D01*
G54D40*
X35896Y-42261D02*
X35896Y-41825D01*
X34119Y-40048D02*
X33289Y-40048D01*
X35896Y-41825D02*
X34119Y-40048D01*
G54D41*
X40921Y-36178D02*
X40921Y-36610D01*
X40921Y-36610D02*
X41090Y-36779D01*
G54D40*
X37975Y-39654D02*
X37412Y-39654D01*
X37426Y-41032D02*
X37975Y-41032D01*
X37153Y-40759D02*
X37426Y-41032D01*
X37153Y-39913D02*
X37153Y-40759D01*
X37412Y-39654D02*
X37153Y-39913D01*
X36683Y-37575D02*
X36683Y-38084D01*
X36093Y-38077D02*
X36093Y-37575D01*
X36196Y-38181D02*
X36093Y-38077D01*
X36586Y-38181D02*
X36196Y-38181D01*
X36683Y-38084D02*
X36586Y-38181D01*
G54D41*
X34043Y-27755D02*
X34114Y-27755D01*
X34114Y-27755D02*
X35003Y-28645D01*
X43696Y-37677D02*
X43696Y-38594D01*
X43570Y-37551D02*
X43696Y-37677D01*
G54D42*
X18081Y-29062D02*
X18109Y-30695D01*
X18109Y-30695D02*
X18133Y-30720D01*
X18081Y-29062D02*
X16735Y-30700D01*
X16735Y-30700D02*
X16185Y-30150D01*
G54D43*
X35393Y-49102D02*
X36901Y-48531D01*
X35440Y-49149D02*
X35393Y-49102D01*
G54D11*
X40274Y-39350D02*
X40274Y-39350D01*
X40409Y-38649D02*
X40274Y-39350D01*
G54D40*
X37975Y-41032D02*
X38433Y-41031D01*
X39539Y-42154D02*
X39554Y-42169D01*
X38433Y-41031D02*
X39539Y-42154D01*
X27405Y-42117D02*
X28893Y-42082D01*
G54D43*
X28893Y-42082D02*
X28917Y-42106D01*
G54D40*
X35896Y-42261D02*
X35889Y-43893D01*
G54D44*
X36818Y-47208D02*
X35720Y-46149D01*
X36901Y-48037D02*
X36818Y-47208D01*
X35614Y-45074D02*
X35645Y-45232D01*
X35645Y-45232D02*
X35657Y-45263D01*
X35657Y-45263D02*
X35457Y-45218D01*
X35457Y-45218D02*
X36516Y-45260D01*
X35720Y-46149D02*
X35614Y-45074D01*
X36723Y-45338D02*
X36516Y-45260D01*
X35889Y-43893D02*
X36723Y-45338D01*
G54D40*
X37975Y-39654D02*
X38427Y-39654D01*
X38427Y-39654D02*
X38577Y-39645D01*
X38577Y-39645D02*
X38704Y-39644D01*
X38704Y-39644D02*
X40274Y-39350D01*
X33289Y-40048D02*
X32598Y-40051D01*
X32598Y-40051D02*
X30287Y-40058D01*
G54D44*
X29899Y-37995D02*
X28860Y-37005D01*
X30013Y-39874D02*
X29899Y-37995D01*
X30287Y-40058D02*
X30013Y-39874D01*
X28860Y-37005D02*
X28859Y-37003D01*
G54D41*
X24913Y-39886D02*
X24929Y-40291D01*
X24929Y-40291D02*
X25078Y-40440D01*
X23570Y-43279D02*
X22884Y-43279D01*
X23649Y-43200D02*
X23570Y-43279D01*
X22066Y-39971D02*
X23891Y-40022D01*
X23891Y-40022D02*
X24000Y-39914D01*
X22884Y-43986D02*
X22884Y-43279D01*
X22884Y-43279D02*
X22884Y-42726D01*
X22884Y-42726D02*
X22855Y-42696D01*
X24000Y-39914D02*
X24874Y-39926D01*
X24874Y-39926D02*
X24913Y-39886D01*
G54D40*
X36093Y-37575D02*
X36098Y-36566D01*
G54D44*
X36098Y-36566D02*
X37830Y-35435D01*
X37830Y-35435D02*
X39160Y-35435D01*
X39160Y-35435D02*
X39200Y-35394D01*
G54D40*
X36683Y-37575D02*
X36681Y-36940D01*
X36681Y-36940D02*
X37484Y-36692D01*
G54D43*
X37484Y-36692D02*
X40440Y-36681D01*
X40440Y-36681D02*
X40884Y-36178D01*
X40884Y-36178D02*
X40921Y-36178D01*
G54D45*
X22066Y-40786D02*
X22066Y-39971D01*
X20350Y-40574D02*
X21854Y-40574D01*
X21854Y-40574D02*
X22066Y-40786D01*
G54D41*
X20350Y-40574D02*
X20200Y-40574D01*
X19710Y-40084D02*
X19350Y-40084D01*
X20200Y-40574D02*
X19710Y-40084D01*
G54D43*
X41536Y-29956D02*
X41536Y-30016D01*
X42767Y-31248D02*
X42767Y-36562D01*
X41536Y-30016D02*
X42767Y-31248D01*
X43696Y-39594D02*
X43086Y-39594D01*
X42767Y-36562D02*
X42757Y-39265D01*
X43086Y-39594D02*
X42757Y-39265D01*
X42757Y-39265D02*
X42757Y-39265D01*
X42767Y-36562D02*
X41983Y-36236D01*
G54D44*
X41983Y-36236D02*
X41901Y-36154D01*
G54D43*
X38572Y-28829D02*
X38572Y-28423D01*
X34527Y-26236D02*
X32598Y-26236D01*
X35712Y-27421D02*
X34527Y-26236D01*
X36377Y-27421D02*
X35712Y-27421D01*
X36787Y-27011D02*
X36377Y-27421D01*
X37370Y-27011D02*
X36787Y-27011D01*
X38350Y-27992D02*
X37370Y-27011D01*
X38535Y-28192D02*
X38350Y-27992D01*
X38572Y-28423D02*
X38535Y-28192D01*
G54D41*
X20377Y-30330D02*
X20598Y-30330D01*
X20598Y-30330D02*
X21629Y-29299D01*
X21629Y-29299D02*
X21629Y-27437D01*
X21629Y-27437D02*
X22838Y-26228D01*
X22838Y-26228D02*
X32590Y-26228D01*
X32590Y-26228D02*
X32598Y-26236D01*
X33043Y-26681D02*
X33043Y-27755D01*
X32598Y-26236D02*
X33043Y-26681D01*
G54D42*
X16985Y-32950D02*
X19907Y-30800D01*
X19907Y-30800D02*
X20377Y-30330D01*
G54D40*
X36880Y-37575D02*
X36880Y-37143D01*
X36880Y-37143D02*
X36980Y-37043D01*
X36980Y-37043D02*
X38346Y-37102D01*
G54D43*
X38346Y-37102D02*
X41468Y-37212D01*
X41468Y-37212D02*
X41901Y-36154D01*
X38572Y-28829D02*
X38647Y-28829D01*
X41610Y-29338D02*
X41536Y-29956D01*
X39708Y-29307D02*
X41610Y-29338D01*
X39125Y-29307D02*
X39708Y-29307D01*
X38647Y-28829D02*
X39125Y-29307D01*
G54D41*
X42766Y-36641D02*
X42767Y-36562D01*
G54D40*
X25831Y-41527D02*
X25720Y-41456D01*
G54D43*
X25720Y-41456D02*
X25606Y-41259D01*
X25606Y-41259D02*
X25606Y-40874D01*
X25606Y-40874D02*
X25799Y-39330D01*
X25700Y-44000D02*
X25712Y-43988D01*
X25712Y-43988D02*
X25720Y-43988D01*
X24539Y-46024D02*
X24929Y-46051D01*
X25090Y-44948D02*
X25598Y-44220D01*
X25598Y-44220D02*
X25629Y-44078D01*
X25629Y-44078D02*
X25720Y-43988D01*
X25051Y-45940D02*
X25090Y-44948D01*
X24929Y-46051D02*
X25051Y-45940D01*
G54D40*
X25866Y-43177D02*
X26126Y-42806D01*
G54D43*
X25720Y-43988D02*
X25866Y-43177D01*
G54D40*
X36289Y-37575D02*
X36289Y-36722D01*
X36289Y-36722D02*
X37842Y-35885D01*
G54D44*
X37842Y-35885D02*
X39744Y-35877D01*
X39744Y-35877D02*
X39952Y-35767D01*
X39952Y-35767D02*
X40003Y-30728D01*
X40003Y-30728D02*
X38377Y-29633D01*
X38377Y-29633D02*
X37937Y-29343D01*
X37937Y-29343D02*
X37937Y-28829D01*
G54D40*
X36486Y-37575D02*
X36486Y-36836D01*
G54D44*
X38257Y-29155D02*
X38257Y-28829D01*
X40330Y-30610D02*
X38257Y-29155D01*
G54D40*
X36486Y-36836D02*
X37889Y-36149D01*
G54D44*
X37889Y-36149D02*
X39870Y-36129D01*
X39870Y-36129D02*
X40251Y-35850D01*
X40251Y-35850D02*
X40330Y-30610D01*
G54D40*
X33289Y-41030D02*
X32550Y-41030D01*
G54D44*
X32550Y-41030D02*
X32330Y-41035D01*
X32330Y-41035D02*
X30343Y-40905D01*
X30807Y-40929D02*
X30460Y-40901D01*
X33692Y-37787D02*
X33893Y-37952D01*
G54D40*
X27110Y-41157D02*
X27740Y-40732D01*
G54D44*
X33228Y-37338D02*
X33531Y-37409D01*
X33531Y-37409D02*
X33692Y-37787D01*
G54D40*
X27110Y-41232D02*
X27110Y-41157D01*
X36859Y-38867D02*
X37975Y-38867D01*
G54D44*
X35535Y-38866D02*
X36859Y-38867D01*
X34035Y-38031D02*
X35535Y-38866D01*
X33893Y-37952D02*
X34035Y-38031D01*
G54D40*
X27405Y-41527D02*
X27594Y-41527D01*
X27594Y-41527D02*
X27814Y-41307D01*
G54D44*
X27814Y-41307D02*
X28314Y-41259D01*
X33240Y-37933D02*
X33289Y-37982D01*
G54D40*
X33289Y-37982D02*
X33289Y-38473D01*
X26913Y-41232D02*
X26913Y-40850D01*
G54D11*
X33732Y-41496D02*
X33756Y-41231D01*
X33602Y-41629D02*
X33732Y-41496D01*
X32177Y-41629D02*
X33602Y-41629D01*
X30259Y-41657D02*
X32177Y-41629D01*
G54D44*
X30019Y-41740D02*
X30259Y-41657D01*
X29566Y-42141D02*
X30019Y-41740D01*
X27740Y-40003D02*
X28838Y-40641D01*
G54D40*
X26913Y-40850D02*
X27740Y-40003D01*
G54D11*
X33756Y-41231D02*
X33756Y-41231D01*
X33756Y-41231D02*
X33289Y-41226D01*
G54D40*
X33289Y-40833D02*
X33794Y-40833D01*
X32701Y-42212D02*
X32536Y-42141D01*
X33263Y-42244D02*
X32701Y-42212D01*
X33992Y-41515D02*
X33263Y-42244D01*
X33992Y-41031D02*
X33992Y-41515D01*
X33794Y-40833D02*
X33992Y-41031D01*
X31245Y-42940D02*
X32066Y-42944D01*
X34118Y-40621D02*
X33289Y-40636D01*
X34196Y-40972D02*
X34118Y-40621D01*
X34202Y-41580D02*
X34196Y-40972D01*
X33187Y-42596D02*
X34202Y-41580D01*
X32413Y-42598D02*
X33187Y-42596D01*
X32066Y-42944D02*
X32413Y-42598D01*
X27405Y-41921D02*
X28240Y-41897D01*
X30031Y-41433D02*
X33289Y-41423D01*
G54D44*
X29444Y-41625D02*
X30031Y-41433D01*
X29039Y-41755D02*
X29444Y-41625D01*
G54D40*
X28240Y-41897D02*
X29039Y-41755D01*
X34321Y-42261D02*
X34321Y-42792D01*
X33098Y-43200D02*
X33098Y-43483D01*
X33267Y-43031D02*
X33098Y-43200D01*
X34082Y-43031D02*
X33267Y-43031D01*
X34321Y-42792D02*
X34082Y-43031D01*
X34518Y-42261D02*
X34518Y-43020D01*
X34315Y-43223D02*
X33988Y-43463D01*
X34518Y-43020D02*
X34315Y-43223D01*
X34124Y-42261D02*
X34124Y-42639D01*
X32118Y-43346D02*
X32118Y-43487D01*
X32681Y-42811D02*
X32118Y-43346D01*
X33980Y-42811D02*
X32681Y-42811D01*
X34124Y-42639D02*
X33980Y-42811D01*
X38464Y-40838D02*
X37978Y-40838D01*
X37978Y-40838D02*
X37975Y-40835D01*
G54D41*
X25187Y-37799D02*
X25937Y-37799D01*
X25937Y-37799D02*
X26425Y-37311D01*
X25187Y-37799D02*
X24913Y-39136D01*
G54D43*
X23872Y-46718D02*
X22848Y-46718D01*
X22848Y-46718D02*
X22480Y-46350D01*
X25688Y-46024D02*
X25688Y-46452D01*
X23618Y-46464D02*
X23618Y-46004D01*
X23885Y-46732D02*
X23872Y-46718D01*
X23872Y-46718D02*
X23618Y-46464D01*
X25409Y-46732D02*
X23885Y-46732D01*
X25688Y-46452D02*
X25409Y-46732D01*
G54D40*
X35502Y-37575D02*
X35502Y-38029D01*
G54D44*
X35502Y-38029D02*
X35913Y-38440D01*
X35913Y-38440D02*
X37299Y-38440D01*
X37917Y-37822D02*
X38834Y-37696D01*
X37299Y-38440D02*
X37917Y-37822D01*
G54D45*
X26425Y-37311D02*
X26932Y-37311D01*
X26932Y-37311D02*
X28081Y-35850D01*
G54D41*
X28109Y-37003D02*
X28081Y-35850D01*
G54D43*
X36570Y-35056D02*
X36932Y-35056D01*
X36374Y-31846D02*
X37185Y-31035D01*
X36374Y-33204D02*
X36374Y-31846D01*
X37169Y-34000D02*
X36374Y-33204D01*
X37169Y-34818D02*
X37169Y-34000D01*
X36932Y-35056D02*
X37169Y-34818D01*
G54D41*
X34043Y-29755D02*
X35968Y-30712D01*
G54D45*
X37275Y-31125D02*
X37185Y-31035D01*
X37275Y-31125D02*
X38669Y-30539D01*
G54D41*
X35968Y-30712D02*
X37185Y-31035D01*
X45696Y-38594D02*
X45696Y-37326D01*
X45696Y-37326D02*
X45673Y-37303D01*
G54D40*
X41024Y-39350D02*
X41024Y-39382D01*
X41024Y-39382D02*
X41523Y-39866D01*
G54D41*
X29858Y-45595D02*
X29051Y-45595D01*
X29051Y-45595D02*
X29031Y-45575D01*
G54D42*
X20371Y-27929D02*
X19814Y-27929D01*
X19814Y-27929D02*
X18842Y-27748D01*
X18831Y-29062D02*
X18838Y-27736D01*
X18838Y-27736D02*
X18842Y-27748D01*
X15385Y-32950D02*
X14751Y-33512D01*
X14594Y-33669D02*
X13405Y-35423D01*
X13405Y-35423D02*
X13405Y-39094D01*
X13405Y-39094D02*
X14921Y-40610D01*
X14921Y-40610D02*
X14921Y-41982D01*
X14751Y-33512D02*
X14594Y-33669D01*
G54D41*
X18858Y-27763D02*
X18885Y-27763D01*
X18842Y-27748D02*
X18858Y-27763D01*
G54D43*
X36590Y-46028D02*
X36716Y-46161D01*
X36716Y-46161D02*
X37141Y-46618D01*
G54D45*
X41901Y-35404D02*
X41901Y-35267D01*
X41901Y-35267D02*
X41988Y-34448D01*
X41901Y-35404D02*
X40956Y-35392D01*
X40956Y-35392D02*
X40921Y-35428D01*
G54D43*
X40304Y-42169D02*
X40377Y-42358D01*
X40377Y-42358D02*
X41181Y-42728D01*
X37901Y-47531D02*
X37641Y-46641D01*
X37641Y-46641D02*
X37141Y-46618D01*
G54D40*
X35700Y-42267D02*
X35699Y-42765D01*
X35699Y-42765D02*
X35350Y-43322D01*
G54D43*
X27468Y-46325D02*
X27700Y-45688D01*
X27700Y-45688D02*
X27775Y-45724D01*
G54D45*
X40786Y-29956D02*
X40814Y-30795D01*
X40814Y-30795D02*
X41098Y-31291D01*
G54D40*
X40311Y-41838D02*
X40304Y-42169D01*
X39968Y-41629D02*
X40311Y-41838D01*
X38464Y-40838D02*
X39968Y-41629D01*
X38475Y-40847D02*
X38464Y-40838D01*
G54D45*
X27998Y-34608D02*
X28081Y-35850D01*
G54D40*
X28081Y-35850D02*
X28081Y-35850D01*
G54D45*
X29259Y-46254D02*
X30213Y-46436D01*
X30213Y-46436D02*
X30240Y-46409D01*
X29259Y-46254D02*
X29059Y-45598D01*
X29059Y-45598D02*
X29031Y-45575D01*
G54D40*
X41024Y-39350D02*
X40669Y-39929D01*
X38548Y-39851D02*
X37975Y-39851D01*
X40669Y-39929D02*
X39743Y-39857D01*
X39743Y-39857D02*
X38548Y-39851D01*
G54D45*
X28043Y-34318D02*
X27998Y-34608D01*
G54D41*
X24000Y-39164D02*
X24874Y-39176D01*
X24874Y-39176D02*
X24913Y-39136D01*
X24025Y-38278D02*
X24025Y-38896D01*
X24025Y-38896D02*
X24000Y-39164D01*
X24025Y-38278D02*
X20645Y-38278D01*
X20645Y-38278D02*
X20350Y-38574D01*
X39200Y-34644D02*
X39196Y-33629D01*
X39196Y-33629D02*
X39255Y-31393D01*
X39255Y-31393D02*
X38669Y-30539D01*
X38669Y-30539D02*
X37796Y-30009D01*
G54D43*
X38106Y-34906D02*
X38239Y-34906D01*
X38239Y-34906D02*
X39048Y-34644D01*
X39048Y-34644D02*
X39200Y-34644D01*
X37627Y-28829D02*
X37627Y-29841D01*
X37627Y-29841D02*
X37796Y-30009D01*
G54D45*
X14921Y-41982D02*
X14921Y-41181D01*
G54D42*
X14921Y-41181D02*
X16535Y-39566D01*
G54D45*
X20350Y-38574D02*
X20350Y-38450D01*
X15610Y-37765D02*
X14921Y-37765D01*
X15659Y-37814D02*
X15610Y-37765D01*
X15659Y-38690D02*
X15659Y-37814D01*
X16535Y-39566D02*
X15659Y-38690D01*
X17460Y-39566D02*
X16535Y-39566D01*
X18956Y-38070D02*
X17460Y-39566D01*
X19970Y-38070D02*
X18956Y-38070D01*
X20350Y-38450D02*
X19970Y-38070D01*
X15629Y-44940D02*
X17577Y-44940D01*
X14921Y-44232D02*
X15629Y-44940D01*
X14921Y-42982D02*
X14921Y-44232D01*
X43696Y-46594D02*
X40791Y-46641D01*
X40791Y-46641D02*
X39901Y-47531D01*
G54D40*
X36880Y-42261D02*
X36880Y-42864D01*
G54D45*
X39448Y-45929D02*
X39598Y-46771D01*
X39598Y-46771D02*
X39838Y-46858D01*
X39838Y-46858D02*
X39928Y-47284D01*
X37669Y-45759D02*
X39448Y-45929D01*
G54D40*
X36880Y-42864D02*
X37086Y-43070D01*
G54D45*
X45696Y-46594D02*
X45996Y-46641D01*
X38901Y-49338D02*
X38901Y-48531D01*
X38972Y-49409D02*
X38901Y-49338D01*
X42570Y-49366D02*
X38972Y-49409D01*
X45901Y-47468D02*
X43905Y-47830D01*
X43905Y-47830D02*
X42570Y-49366D01*
X46425Y-47070D02*
X45901Y-47468D01*
X45996Y-46641D02*
X46425Y-47070D01*
X38901Y-48531D02*
X38901Y-47303D01*
X38901Y-47303D02*
X38578Y-46468D01*
G54D40*
X37077Y-42261D02*
X37100Y-42261D01*
X37100Y-42261D02*
X37818Y-43578D01*
X38578Y-46468D02*
X38632Y-46521D01*
G54D43*
X16477Y-35679D02*
X23860Y-35679D01*
X23860Y-35679D02*
X23881Y-35700D01*
G54D40*
X26850Y-44791D02*
X26519Y-43472D01*
X26519Y-43472D02*
X26519Y-42821D01*
G54D44*
X31786Y-42141D02*
X30177Y-42141D01*
X30177Y-42141D02*
X29759Y-42559D01*
X29759Y-42559D02*
X28094Y-42559D01*
X28094Y-42559D02*
X27850Y-42314D01*
G54D40*
X27850Y-42314D02*
X27405Y-42314D01*
X27405Y-42511D02*
X27590Y-42511D01*
X27590Y-42511D02*
X28023Y-42944D01*
G54D44*
X28023Y-42944D02*
X30495Y-42940D01*
G54D40*
X26716Y-42806D02*
X26716Y-43121D01*
X26716Y-43121D02*
X27255Y-44062D01*
G54D43*
X27255Y-44062D02*
X27389Y-45429D01*
X27389Y-45429D02*
X27125Y-45751D01*
X27125Y-45751D02*
X26818Y-46031D01*
X26818Y-46031D02*
X26791Y-47059D01*
X26791Y-47059D02*
X27598Y-47083D01*
X27598Y-47083D02*
X27330Y-48500D01*
X29093Y-50086D02*
X28987Y-50086D01*
X28987Y-50086D02*
X27330Y-48500D01*
G54D41*
X29031Y-44825D02*
X29830Y-44817D01*
G54D40*
X29830Y-44817D02*
X29858Y-44845D01*
X27110Y-42806D02*
X27153Y-42806D01*
G54D44*
X27153Y-42806D02*
X27628Y-43282D01*
X27628Y-43282D02*
X29031Y-44825D01*
G54D40*
X33289Y-39851D02*
X30570Y-39842D01*
G54D44*
X29413Y-36149D02*
X28960Y-35850D01*
X30299Y-37732D02*
X29413Y-36149D01*
X30375Y-39674D02*
X30299Y-37732D01*
X30570Y-39842D02*
X30375Y-39674D01*
X28960Y-35850D02*
X28831Y-35850D01*
G54D45*
X28831Y-35850D02*
X28905Y-35326D01*
X29150Y-34612D02*
X29150Y-34612D01*
X28905Y-35326D02*
X29150Y-34612D01*
G54D43*
X36570Y-34306D02*
X36570Y-34291D01*
X36570Y-34291D02*
X34947Y-32667D01*
X34947Y-32667D02*
X33893Y-32667D01*
G54D40*
X35699Y-37575D02*
X35699Y-36210D01*
X36142Y-34306D02*
X36570Y-34306D01*
X35818Y-34629D02*
X36142Y-34306D01*
X35818Y-36090D02*
X35818Y-34629D01*
X35699Y-36210D02*
X35818Y-36090D01*
G54D39*
X25688Y-45274D02*
X26271Y-45228D01*
X19252Y-47161D02*
X18327Y-44940D01*
X25952Y-47161D02*
X19252Y-47161D01*
X26354Y-46385D02*
X25952Y-47161D01*
X26350Y-45732D02*
X26354Y-46385D01*
X26271Y-45228D02*
X26350Y-45732D01*
G54D11*
X26323Y-42806D02*
X26334Y-44826D01*
G54D44*
X25563Y-45148D02*
X25688Y-45274D01*
G54D43*
X26334Y-44826D02*
X25563Y-45148D01*
G54D40*
X27405Y-41724D02*
X27720Y-41724D01*
X27720Y-41724D02*
X28425Y-41653D01*
G54D44*
X28425Y-41641D02*
X28425Y-41653D01*
X29547Y-40921D02*
X28425Y-41641D01*
X29566Y-40901D02*
X29547Y-40921D01*
G54D11*
X26126Y-41232D02*
X26098Y-39866D01*
G54D44*
X33988Y-44397D02*
X33988Y-44213D01*
X34007Y-45141D02*
X33988Y-44397D01*
X28318Y-37858D02*
X29401Y-38157D01*
G54D11*
X26830Y-37850D02*
X28318Y-37858D01*
X26098Y-39866D02*
X26830Y-37850D01*
X26323Y-41232D02*
X26338Y-40042D01*
G54D44*
X33098Y-45177D02*
X33098Y-44233D01*
X33118Y-45196D02*
X33098Y-45177D01*
X28393Y-38519D02*
X28724Y-38641D01*
X27133Y-38354D02*
X28393Y-38519D01*
G54D11*
X26338Y-40042D02*
X27133Y-38354D01*
G54D40*
X26913Y-42806D02*
X26913Y-43027D01*
X26913Y-43027D02*
X27425Y-43724D01*
G54D43*
X27425Y-43724D02*
X28228Y-44818D01*
X28228Y-44818D02*
X28350Y-46968D01*
X28350Y-46968D02*
X28386Y-46973D01*
X28386Y-46973D02*
X29259Y-47004D01*
X31330Y-48462D02*
X31330Y-48489D01*
X31330Y-48489D02*
X29843Y-50086D01*
X29259Y-47004D02*
X30669Y-46988D01*
X30669Y-46988D02*
X31330Y-48462D01*
G54D40*
X26520Y-41232D02*
X26560Y-40160D01*
G54D44*
X32118Y-45232D02*
X32118Y-44237D01*
X32031Y-45318D02*
X32118Y-45232D01*
G54D11*
X27515Y-38948D02*
X29212Y-39409D01*
G54D40*
X26560Y-40160D02*
X27515Y-38948D01*
X25831Y-42511D02*
X25563Y-42511D01*
G54D43*
X25110Y-43115D02*
X23618Y-45106D01*
G54D11*
X25563Y-42511D02*
X25110Y-43115D01*
G54D43*
X23618Y-45106D02*
X23618Y-45254D01*
X37046Y-30009D02*
X37046Y-29095D01*
X37046Y-29095D02*
X37312Y-28829D01*
G54D40*
X35896Y-37575D02*
X35896Y-36927D01*
X35896Y-36927D02*
X35881Y-36464D01*
X35881Y-36464D02*
X37492Y-35287D01*
G54D44*
X37492Y-35287D02*
X37507Y-35162D01*
X37507Y-35162D02*
X37495Y-34869D01*
X37495Y-34869D02*
X37484Y-34216D01*
X37484Y-34216D02*
X38106Y-34156D01*
G54D43*
X38106Y-34156D02*
X38173Y-33283D01*
X38173Y-33283D02*
X37893Y-32629D01*
G54D40*
X37975Y-40245D02*
X38354Y-40244D01*
G54D44*
X44799Y-42098D02*
X45696Y-41594D01*
X42775Y-42098D02*
X44799Y-42098D01*
X40629Y-40460D02*
X42775Y-42098D01*
G54D40*
X38354Y-40244D02*
X40629Y-40460D01*
X37975Y-40048D02*
X38385Y-40051D01*
X38385Y-40051D02*
X41102Y-40181D01*
G54D44*
X41102Y-40181D02*
X42720Y-41641D01*
X42720Y-41641D02*
X43696Y-41594D01*
G54D40*
X37975Y-39457D02*
X38744Y-39452D01*
X38744Y-39452D02*
X38708Y-39452D01*
G54D44*
X44787Y-41090D02*
X45696Y-40594D01*
X42661Y-41090D02*
X44787Y-41090D01*
X42011Y-40346D02*
X42661Y-41090D01*
X41771Y-39429D02*
X42011Y-40346D01*
X41539Y-38570D02*
X41771Y-39429D01*
X40204Y-38204D02*
X41539Y-38570D01*
X39901Y-38519D02*
X40204Y-38204D01*
X39374Y-39047D02*
X39901Y-38519D01*
X38796Y-39400D02*
X39374Y-39047D01*
X43696Y-40594D02*
X42673Y-40641D01*
X42673Y-40641D02*
X42220Y-40051D01*
X42220Y-40051D02*
X41901Y-38389D01*
X41901Y-38389D02*
X41110Y-37881D01*
X41110Y-37881D02*
X40082Y-37881D01*
X40082Y-37881D02*
X39066Y-38645D01*
X39066Y-38645D02*
X38582Y-39220D01*
G54D40*
X38582Y-39220D02*
X38409Y-39271D01*
X38409Y-39271D02*
X37975Y-39261D01*
X37975Y-39064D02*
X38366Y-39059D01*
X38366Y-39059D02*
X38535Y-38811D01*
G54D44*
X38535Y-38811D02*
X38559Y-38433D01*
X38559Y-38433D02*
X40000Y-37519D01*
X40000Y-37519D02*
X41200Y-37519D01*
X41200Y-37519D02*
X42165Y-38114D01*
X42165Y-38114D02*
X42531Y-39874D01*
X42531Y-39874D02*
X42625Y-40090D01*
X42625Y-40090D02*
X44787Y-40090D01*
X44787Y-40090D02*
X45696Y-39594D01*
X37640Y-44262D02*
X39181Y-44129D01*
X39181Y-44129D02*
X39208Y-44129D01*
X40078Y-46003D02*
X41259Y-46082D01*
X41259Y-46082D02*
X44814Y-46082D01*
X44814Y-46082D02*
X45696Y-45594D01*
G54D40*
X36683Y-42261D02*
X36683Y-43128D01*
G54D44*
X36683Y-43128D02*
X37640Y-44262D01*
G54D40*
X37640Y-44262D02*
X37645Y-44270D01*
G54D44*
X43696Y-45594D02*
X40830Y-45629D01*
X40771Y-45570D02*
X40830Y-45629D01*
G54D40*
X36486Y-42261D02*
X36486Y-41844D01*
G54D44*
X39409Y-43716D02*
X40303Y-44236D01*
X38901Y-43708D02*
X39409Y-43716D01*
X38358Y-43681D02*
X38901Y-43708D01*
X37377Y-41803D02*
X38358Y-43681D01*
X36527Y-41803D02*
X37377Y-41803D01*
X36486Y-41844D02*
X36527Y-41803D01*
G54D40*
X40303Y-44236D02*
X40353Y-44268D01*
G54D44*
X40783Y-44759D02*
X41011Y-44669D01*
G54D40*
X36289Y-42261D02*
X36289Y-43100D01*
X36289Y-43100D02*
X37287Y-44759D01*
G54D44*
X37287Y-44759D02*
X40783Y-44759D01*
X44751Y-45094D02*
X45696Y-44594D01*
X42027Y-45094D02*
X44751Y-45094D01*
X42000Y-45066D02*
X42027Y-45094D01*
G54D43*
X43696Y-44594D02*
X41759Y-44641D01*
X41759Y-44641D02*
X41260Y-45140D01*
G54D40*
X36093Y-42261D02*
X36118Y-43637D01*
G54D44*
X36118Y-43637D02*
X36440Y-44082D01*
X36440Y-44082D02*
X36700Y-44409D01*
X36700Y-44409D02*
X37181Y-45133D01*
X37181Y-45133D02*
X41260Y-45140D01*
G54D40*
X41260Y-45140D02*
X41291Y-45140D01*
G54D44*
X41830Y-44098D02*
X44603Y-44098D01*
X44603Y-44098D02*
X45696Y-43594D01*
G54D40*
X37975Y-41426D02*
X38166Y-41426D01*
G54D44*
X38578Y-43051D02*
X41830Y-44098D01*
G54D40*
X38166Y-41426D02*
X38578Y-43051D01*
G54D44*
X42163Y-43617D02*
X43672Y-43570D01*
X43672Y-43570D02*
X43696Y-43594D01*
G54D40*
X37975Y-41229D02*
X38370Y-41228D01*
X38370Y-41228D02*
X38988Y-42755D01*
G54D44*
X38988Y-42755D02*
X42163Y-43617D01*
G54D40*
X42163Y-43617D02*
X42257Y-43662D01*
X38492Y-40637D02*
X40618Y-41401D01*
G54D44*
X40618Y-41401D02*
X42405Y-43090D01*
X42405Y-43090D02*
X45082Y-43090D01*
X45082Y-43090D02*
X45696Y-42594D01*
G54D40*
X37975Y-40638D02*
X38413Y-40638D01*
X38413Y-40638D02*
X38492Y-40637D01*
X37975Y-40442D02*
X38464Y-40433D01*
G54D44*
X42775Y-42641D02*
X43696Y-42594D01*
X40523Y-40885D02*
X42775Y-42641D01*
G54D40*
X38464Y-40433D02*
X40523Y-40885D01*
G54D44*
X27480Y-31484D02*
X27535Y-31429D01*
X28039Y-29755D02*
X27535Y-31429D01*
G54D40*
X34518Y-37575D02*
X34518Y-37156D01*
X33909Y-36618D02*
X33055Y-36177D01*
X33055Y-36177D02*
X33049Y-36175D01*
X34389Y-36968D02*
X33909Y-36618D01*
X34518Y-37156D02*
X34389Y-36968D01*
G54D44*
X32043Y-27755D02*
X32043Y-26740D01*
X32043Y-26740D02*
X32031Y-26728D01*
G54D40*
X34323Y-36169D02*
X34899Y-36853D01*
G54D44*
X33944Y-34098D02*
X34323Y-36169D01*
G54D40*
X34899Y-36853D02*
X34912Y-37575D01*
X34715Y-37575D02*
X34715Y-37010D01*
G54D44*
X32933Y-29866D02*
X33043Y-29755D01*
X32933Y-33814D02*
X32933Y-29866D01*
X33654Y-35308D02*
X32933Y-33814D01*
X34055Y-36350D02*
X33654Y-35308D01*
G54D40*
X34715Y-37010D02*
X34055Y-36350D01*
G54D44*
X32622Y-38512D02*
X32622Y-36830D01*
X32622Y-36830D02*
X32681Y-36771D01*
X30181Y-36090D02*
X30047Y-35956D01*
X30047Y-35956D02*
X30015Y-34291D01*
X30015Y-34291D02*
X28511Y-30822D01*
G54D40*
X28511Y-30822D02*
X28511Y-28224D01*
G54D44*
X28511Y-28224D02*
X28043Y-27755D01*
G54D40*
X33289Y-38670D02*
X32895Y-38670D01*
X32895Y-38670D02*
X32622Y-38512D01*
X32622Y-38512D02*
X32614Y-38507D01*
X32444Y-38877D02*
X32240Y-38480D01*
G54D44*
X32240Y-38480D02*
X32216Y-35936D01*
X32216Y-35936D02*
X32610Y-35488D01*
G54D40*
X33282Y-38867D02*
X32444Y-38877D01*
G54D44*
X29043Y-30822D02*
X29043Y-29755D01*
X29669Y-31909D02*
X29043Y-30822D01*
X26850Y-27988D02*
X26913Y-28051D01*
X29043Y-27755D02*
X29051Y-26759D01*
X29051Y-26759D02*
X27236Y-26724D01*
X27236Y-26724D02*
X26913Y-28051D01*
G54D40*
X33289Y-39064D02*
X32334Y-39082D01*
X32334Y-39082D02*
X31870Y-38570D01*
G54D44*
X31870Y-38570D02*
X31834Y-35622D01*
G54D40*
X31834Y-35622D02*
X31834Y-35621D01*
G54D44*
X31413Y-32188D02*
X31326Y-31929D01*
X31326Y-31929D02*
X30043Y-30645D01*
X30043Y-30645D02*
X30043Y-29755D01*
G54D40*
X33289Y-39261D02*
X32200Y-39267D01*
G54D44*
X31413Y-38866D02*
X31413Y-32188D01*
G54D40*
X32200Y-39267D02*
X31413Y-38866D01*
G54D44*
X31125Y-32830D02*
X30976Y-32161D01*
X30976Y-32161D02*
X29578Y-30763D01*
G54D40*
X29578Y-30763D02*
X29578Y-28220D01*
G54D44*
X29578Y-28220D02*
X30043Y-27755D01*
G54D40*
X33289Y-39457D02*
X31669Y-39460D01*
G54D11*
X31691Y-39438D02*
X31062Y-39188D01*
G54D44*
X31062Y-39188D02*
X31125Y-32830D01*
G54D40*
X31669Y-39460D02*
X31691Y-39438D01*
G54D44*
X31031Y-30708D02*
X31031Y-30972D01*
X31031Y-30972D02*
X31129Y-31070D01*
X30519Y-32409D02*
X30695Y-32585D01*
X30695Y-32585D02*
X30746Y-32897D01*
X30746Y-32897D02*
X30746Y-32897D01*
X31043Y-29755D02*
X31031Y-30708D01*
G54D40*
X33289Y-39654D02*
X31661Y-39653D01*
X31661Y-39653D02*
X30700Y-39346D01*
G54D44*
X30700Y-39346D02*
X30746Y-32897D01*
G54D40*
X30746Y-32897D02*
X30747Y-32850D01*
X35305Y-37575D02*
X35305Y-36254D01*
G54D44*
X35305Y-36254D02*
X34980Y-35641D01*
X31244Y-26728D02*
X31228Y-26744D01*
X31228Y-26744D02*
X31043Y-27755D01*
X32043Y-29755D02*
X32043Y-31031D01*
X32098Y-31086D02*
X32043Y-31031D01*
G54D40*
X35100Y-36728D02*
X34539Y-35951D01*
X34539Y-35951D02*
X34539Y-34830D01*
X35100Y-36728D02*
X35108Y-37575D01*
G54D11*
X25831Y-42117D02*
X25039Y-42117D01*
G54D43*
X23020Y-39221D02*
X22066Y-39221D01*
X23039Y-39240D02*
X23020Y-39221D01*
G54D11*
X25039Y-42117D02*
X24141Y-42433D01*
G54D41*
X20350Y-39574D02*
X21990Y-39145D01*
X21990Y-39145D02*
X22066Y-39221D01*
G54D43*
X22134Y-43986D02*
X22134Y-44465D01*
X22134Y-44465D02*
X22350Y-44681D01*
X22350Y-44681D02*
X23118Y-44681D01*
G54D11*
X24653Y-42917D02*
X25484Y-42314D01*
G54D43*
X24177Y-43188D02*
X24653Y-42917D01*
X23118Y-44681D02*
X24177Y-43188D01*
G54D40*
X25484Y-42314D02*
X25831Y-42314D01*
G54D41*
X19350Y-41084D02*
X18925Y-41084D01*
X20029Y-43986D02*
X22134Y-43986D01*
X18415Y-42372D02*
X20029Y-43986D01*
X18415Y-41594D02*
X18415Y-42372D01*
X18925Y-41084D02*
X18415Y-41594D01*
G54D40*
X25831Y-41724D02*
X24913Y-41586D01*
G54D43*
X22208Y-41688D02*
X22066Y-41536D01*
X22019Y-41634D02*
X22208Y-41688D01*
X24913Y-41586D02*
X22019Y-41634D01*
G54D41*
X20350Y-41570D02*
X22074Y-41554D01*
X22074Y-41554D02*
X22066Y-41536D01*
G54D43*
X22105Y-42696D02*
X22105Y-42481D01*
G54D40*
X24704Y-41921D02*
X25831Y-41921D01*
G54D43*
X22527Y-42082D02*
X24704Y-41921D01*
X22105Y-42481D02*
X22527Y-42082D01*
G54D41*
X22105Y-42696D02*
X19967Y-42696D01*
X19967Y-42696D02*
X19350Y-42080D01*
G54D45*
X14921Y-35679D02*
X15727Y-35679D01*
X14153Y-36614D02*
X14921Y-35679D01*
X14153Y-38188D02*
X14153Y-36614D01*
X14582Y-38765D02*
X14153Y-38188D01*
X14921Y-38765D02*
X14582Y-38765D01*
G54D40*
X26716Y-41232D02*
X26716Y-40791D01*
X26750Y-40585D02*
X26720Y-40787D01*
X26750Y-40585D02*
X26854Y-40379D01*
X26716Y-40791D02*
X26720Y-40787D01*
X33289Y-40245D02*
X32809Y-40245D01*
G54D44*
X27578Y-39444D02*
X26854Y-40379D01*
X28980Y-39830D02*
X27578Y-39444D01*
X29775Y-40374D02*
X28980Y-39830D01*
X32496Y-40374D02*
X29775Y-40374D01*
G54D40*
X32809Y-40245D02*
X32496Y-40374D01*
X26854Y-40379D02*
X26850Y-40381D01*
G54D43*
X34904Y-44393D02*
X34904Y-46534D01*
X34904Y-46534D02*
X35901Y-47531D01*
G54D40*
X35305Y-42261D02*
X35305Y-42698D01*
G54D44*
X35305Y-42698D02*
X34905Y-43220D01*
X34905Y-43220D02*
X34893Y-44389D01*
X34893Y-44389D02*
X34904Y-44393D01*
G54D43*
X35086Y-44456D02*
X35500Y-44443D01*
X34904Y-44393D02*
X35086Y-44456D01*
M02*
