G04 (created by PCBNEW (2013-08-24 BZR 4298)-stable) date Thu 09 Jan 2014 09:40:57 PM PST*
%MOIN*%
G04 Gerber Fmt 3.4, Leading zero omitted, Abs format*
%FSLAX34Y34*%
G01*
G70*
G90*
G04 APERTURE LIST*
%ADD10C,0.005000*%
%ADD11C,0.007874*%
%ADD12C,0.011811*%
G04 APERTURE END LIST*
G54D10*
G54D11*
X50255Y-49458D02*
X50452Y-49655D01*
X50452Y-49458D02*
X50255Y-49655D01*
X51653Y-41998D02*
X51850Y-42194D01*
X51850Y-41998D02*
X51653Y-42194D01*
X52244Y-42038D02*
X52441Y-42235D01*
X52441Y-42038D02*
X52244Y-42235D01*
X52783Y-38200D02*
X52980Y-38397D01*
X52980Y-38200D02*
X52783Y-38397D01*
X53236Y-40307D02*
X53433Y-40503D01*
X53433Y-40307D02*
X53236Y-40503D01*
X53326Y-42027D02*
X53523Y-42224D01*
X53523Y-42027D02*
X53326Y-42224D01*
X53460Y-42562D02*
X53657Y-42759D01*
X53657Y-42562D02*
X53460Y-42759D01*
X53547Y-43307D02*
X53744Y-43503D01*
X53744Y-43307D02*
X53547Y-43503D01*
X53720Y-39311D02*
X53917Y-39507D01*
X53917Y-39311D02*
X53720Y-39507D01*
X54322Y-39480D02*
X54519Y-39677D01*
X54519Y-39480D02*
X54322Y-39677D01*
X54397Y-41452D02*
X54594Y-41649D01*
X54594Y-41452D02*
X54397Y-41649D01*
X54519Y-44925D02*
X54716Y-45122D01*
X54716Y-44925D02*
X54519Y-45122D01*
X55759Y-42000D02*
X55956Y-42196D01*
X55956Y-42000D02*
X55759Y-42196D01*
X55783Y-45055D02*
X55980Y-45251D01*
X55980Y-45055D02*
X55783Y-45251D01*
X55870Y-38090D02*
X56066Y-38287D01*
X56066Y-38090D02*
X55870Y-38287D01*
X56271Y-42232D02*
X56468Y-42429D01*
X56468Y-42232D02*
X56271Y-42429D01*
X56728Y-48854D02*
X56925Y-49051D01*
X56925Y-48854D02*
X56728Y-49051D01*
X57141Y-48118D02*
X57338Y-48314D01*
X57338Y-48118D02*
X57141Y-48314D01*
X57421Y-42401D02*
X57618Y-42598D01*
X57618Y-42401D02*
X57421Y-42598D01*
X57429Y-46429D02*
X57625Y-46625D01*
X57625Y-46429D02*
X57429Y-46625D01*
X57555Y-43846D02*
X57751Y-44043D01*
X57751Y-43846D02*
X57555Y-44043D01*
X57673Y-41732D02*
X57870Y-41929D01*
X57870Y-41732D02*
X57673Y-41929D01*
X57952Y-43086D02*
X58149Y-43283D01*
X58149Y-43086D02*
X57952Y-43283D01*
X49480Y-39122D02*
G75*
G03X49480Y-39122I-196J0D01*
G74*
G01*
X49480Y-40122D02*
G75*
G03X49480Y-40122I-196J0D01*
G74*
G01*
X49480Y-41122D02*
G75*
G03X49480Y-41122I-196J0D01*
G74*
G01*
X49480Y-42122D02*
G75*
G03X49480Y-42122I-196J0D01*
G74*
G01*
X49480Y-43122D02*
G75*
G03X49480Y-43122I-196J0D01*
G74*
G01*
X49480Y-44122D02*
G75*
G03X49480Y-44122I-196J0D01*
G74*
G01*
X49480Y-45122D02*
G75*
G03X49480Y-45122I-196J0D01*
G74*
G01*
X49480Y-46122D02*
G75*
G03X49480Y-46122I-196J0D01*
G74*
G01*
X49480Y-47122D02*
G75*
G03X49480Y-47122I-196J0D01*
G74*
G01*
X49480Y-48122D02*
G75*
G03X49480Y-48122I-196J0D01*
G74*
G01*
X50480Y-39122D02*
G75*
G03X50480Y-39122I-196J0D01*
G74*
G01*
X50480Y-40122D02*
G75*
G03X50480Y-40122I-196J0D01*
G74*
G01*
X50480Y-41122D02*
G75*
G03X50480Y-41122I-196J0D01*
G74*
G01*
X50480Y-42122D02*
G75*
G03X50480Y-42122I-196J0D01*
G74*
G01*
X50480Y-43122D02*
G75*
G03X50480Y-43122I-196J0D01*
G74*
G01*
X50480Y-44122D02*
G75*
G03X50480Y-44122I-196J0D01*
G74*
G01*
X50480Y-45122D02*
G75*
G03X50480Y-45122I-196J0D01*
G74*
G01*
X50480Y-46122D02*
G75*
G03X50480Y-46122I-196J0D01*
G74*
G01*
X50480Y-47122D02*
G75*
G03X50480Y-47122I-196J0D01*
G74*
G01*
X50480Y-48122D02*
G75*
G03X50480Y-48122I-196J0D01*
G74*
G01*
G54D12*
X1068Y-1833D02*
X1068Y-652D01*
X1349Y-652D01*
X1518Y-708D01*
X1631Y-821D01*
X1687Y-933D01*
X1743Y-1158D01*
X1743Y-1327D01*
X1687Y-1552D01*
X1631Y-1664D01*
X1518Y-1777D01*
X1349Y-1833D01*
X1068Y-1833D01*
X2249Y-1833D02*
X2249Y-1046D01*
X2249Y-1271D02*
X2305Y-1158D01*
X2362Y-1102D01*
X2474Y-1046D01*
X2587Y-1046D01*
X2980Y-1833D02*
X2980Y-1046D01*
X2980Y-652D02*
X2924Y-708D01*
X2980Y-764D01*
X3037Y-708D01*
X2980Y-652D01*
X2980Y-764D01*
X3712Y-1833D02*
X3599Y-1777D01*
X3543Y-1664D01*
X3543Y-652D01*
X4330Y-1833D02*
X4218Y-1777D01*
X4161Y-1664D01*
X4161Y-652D01*
X5680Y-1833D02*
X5680Y-652D01*
X6074Y-1496D01*
X6467Y-652D01*
X6467Y-1833D01*
X7536Y-1833D02*
X7536Y-1214D01*
X7480Y-1102D01*
X7367Y-1046D01*
X7142Y-1046D01*
X7030Y-1102D01*
X7536Y-1777D02*
X7424Y-1833D01*
X7142Y-1833D01*
X7030Y-1777D01*
X6974Y-1664D01*
X6974Y-1552D01*
X7030Y-1439D01*
X7142Y-1383D01*
X7424Y-1383D01*
X7536Y-1327D01*
X8098Y-1046D02*
X8098Y-2227D01*
X8098Y-1102D02*
X8211Y-1046D01*
X8436Y-1046D01*
X8548Y-1102D01*
X8605Y-1158D01*
X8661Y-1271D01*
X8661Y-1608D01*
X8605Y-1721D01*
X8548Y-1777D01*
X8436Y-1833D01*
X8211Y-1833D01*
X8098Y-1777D01*
X9167Y-1721D02*
X9223Y-1777D01*
X9167Y-1833D01*
X9111Y-1777D01*
X9167Y-1721D01*
X9167Y-1833D01*
X9167Y-1102D02*
X9223Y-1158D01*
X9167Y-1214D01*
X9111Y-1158D01*
X9167Y-1102D01*
X9167Y-1214D01*
X-196Y-3681D02*
X0Y-3877D01*
X0Y-3681D02*
X-196Y-3877D01*
X1293Y-3132D02*
X1406Y-3132D01*
X1518Y-3188D01*
X1574Y-3245D01*
X1631Y-3357D01*
X1687Y-3582D01*
X1687Y-3863D01*
X1631Y-4088D01*
X1574Y-4201D01*
X1518Y-4257D01*
X1406Y-4313D01*
X1293Y-4313D01*
X1181Y-4257D01*
X1124Y-4201D01*
X1068Y-4088D01*
X1012Y-3863D01*
X1012Y-3582D01*
X1068Y-3357D01*
X1124Y-3245D01*
X1181Y-3188D01*
X1293Y-3132D01*
X2193Y-4201D02*
X2249Y-4257D01*
X2193Y-4313D01*
X2137Y-4257D01*
X2193Y-4201D01*
X2193Y-4313D01*
X3318Y-3132D02*
X2755Y-3132D01*
X2699Y-3695D01*
X2755Y-3638D01*
X2868Y-3582D01*
X3149Y-3582D01*
X3262Y-3638D01*
X3318Y-3695D01*
X3374Y-3807D01*
X3374Y-4088D01*
X3318Y-4201D01*
X3262Y-4257D01*
X3149Y-4313D01*
X2868Y-4313D01*
X2755Y-4257D01*
X2699Y-4201D01*
X4105Y-3132D02*
X4218Y-3132D01*
X4330Y-3188D01*
X4386Y-3245D01*
X4443Y-3357D01*
X4499Y-3582D01*
X4499Y-3863D01*
X4443Y-4088D01*
X4386Y-4201D01*
X4330Y-4257D01*
X4218Y-4313D01*
X4105Y-4313D01*
X3993Y-4257D01*
X3937Y-4201D01*
X3880Y-4088D01*
X3824Y-3863D01*
X3824Y-3582D01*
X3880Y-3357D01*
X3937Y-3245D01*
X3993Y-3188D01*
X4105Y-3132D01*
X5005Y-4313D02*
X5005Y-3526D01*
X5005Y-3638D02*
X5061Y-3582D01*
X5174Y-3526D01*
X5343Y-3526D01*
X5455Y-3582D01*
X5511Y-3695D01*
X5511Y-4313D01*
X5511Y-3695D02*
X5568Y-3582D01*
X5680Y-3526D01*
X5849Y-3526D01*
X5961Y-3582D01*
X6017Y-3695D01*
X6017Y-4313D01*
X6580Y-4313D02*
X6580Y-3526D01*
X6580Y-3638D02*
X6636Y-3582D01*
X6749Y-3526D01*
X6917Y-3526D01*
X7030Y-3582D01*
X7086Y-3695D01*
X7086Y-4313D01*
X7086Y-3695D02*
X7142Y-3582D01*
X7255Y-3526D01*
X7424Y-3526D01*
X7536Y-3582D01*
X7592Y-3695D01*
X7592Y-4313D01*
X9898Y-3076D02*
X8886Y-4595D01*
X11417Y-3132D02*
X11529Y-3132D01*
X11642Y-3188D01*
X11698Y-3245D01*
X11754Y-3357D01*
X11811Y-3582D01*
X11811Y-3863D01*
X11754Y-4088D01*
X11698Y-4201D01*
X11642Y-4257D01*
X11529Y-4313D01*
X11417Y-4313D01*
X11304Y-4257D01*
X11248Y-4201D01*
X11192Y-4088D01*
X11136Y-3863D01*
X11136Y-3582D01*
X11192Y-3357D01*
X11248Y-3245D01*
X11304Y-3188D01*
X11417Y-3132D01*
X12317Y-4201D02*
X12373Y-4257D01*
X12317Y-4313D01*
X12260Y-4257D01*
X12317Y-4201D01*
X12317Y-4313D01*
X13104Y-3132D02*
X13217Y-3132D01*
X13329Y-3188D01*
X13385Y-3245D01*
X13442Y-3357D01*
X13498Y-3582D01*
X13498Y-3863D01*
X13442Y-4088D01*
X13385Y-4201D01*
X13329Y-4257D01*
X13217Y-4313D01*
X13104Y-4313D01*
X12992Y-4257D01*
X12935Y-4201D01*
X12879Y-4088D01*
X12823Y-3863D01*
X12823Y-3582D01*
X12879Y-3357D01*
X12935Y-3245D01*
X12992Y-3188D01*
X13104Y-3132D01*
X13948Y-3245D02*
X14004Y-3188D01*
X14116Y-3132D01*
X14398Y-3132D01*
X14510Y-3188D01*
X14566Y-3245D01*
X14623Y-3357D01*
X14623Y-3470D01*
X14566Y-3638D01*
X13892Y-4313D01*
X14623Y-4313D01*
X15354Y-3132D02*
X15466Y-3132D01*
X15579Y-3188D01*
X15635Y-3245D01*
X15691Y-3357D01*
X15748Y-3582D01*
X15748Y-3863D01*
X15691Y-4088D01*
X15635Y-4201D01*
X15579Y-4257D01*
X15466Y-4313D01*
X15354Y-4313D01*
X15241Y-4257D01*
X15185Y-4201D01*
X15129Y-4088D01*
X15073Y-3863D01*
X15073Y-3582D01*
X15129Y-3357D01*
X15185Y-3245D01*
X15241Y-3188D01*
X15354Y-3132D01*
X16197Y-3132D02*
X16197Y-3357D01*
X16647Y-3132D02*
X16647Y-3357D01*
X18391Y-4763D02*
X18335Y-4707D01*
X18222Y-4538D01*
X18166Y-4426D01*
X18110Y-4257D01*
X18053Y-3976D01*
X18053Y-3751D01*
X18110Y-3470D01*
X18166Y-3301D01*
X18222Y-3188D01*
X18335Y-3020D01*
X18391Y-2964D01*
X18785Y-3245D02*
X18841Y-3188D01*
X18953Y-3132D01*
X19235Y-3132D01*
X19347Y-3188D01*
X19403Y-3245D01*
X19460Y-3357D01*
X19460Y-3470D01*
X19403Y-3638D01*
X18728Y-4313D01*
X19460Y-4313D01*
X19853Y-3132D02*
X20584Y-3132D01*
X20191Y-3582D01*
X20359Y-3582D01*
X20472Y-3638D01*
X20528Y-3695D01*
X20584Y-3807D01*
X20584Y-4088D01*
X20528Y-4201D01*
X20472Y-4257D01*
X20359Y-4313D01*
X20022Y-4313D01*
X19910Y-4257D01*
X19853Y-4201D01*
X21991Y-4313D02*
X21991Y-3132D01*
X22497Y-4313D02*
X22497Y-3695D01*
X22440Y-3582D01*
X22328Y-3526D01*
X22159Y-3526D01*
X22047Y-3582D01*
X21991Y-3638D01*
X23228Y-4313D02*
X23115Y-4257D01*
X23059Y-4201D01*
X23003Y-4088D01*
X23003Y-3751D01*
X23059Y-3638D01*
X23115Y-3582D01*
X23228Y-3526D01*
X23397Y-3526D01*
X23509Y-3582D01*
X23565Y-3638D01*
X23622Y-3751D01*
X23622Y-4088D01*
X23565Y-4201D01*
X23509Y-4257D01*
X23397Y-4313D01*
X23228Y-4313D01*
X24296Y-4313D02*
X24184Y-4257D01*
X24128Y-4145D01*
X24128Y-3132D01*
X25196Y-4257D02*
X25084Y-4313D01*
X24859Y-4313D01*
X24746Y-4257D01*
X24690Y-4145D01*
X24690Y-3695D01*
X24746Y-3582D01*
X24859Y-3526D01*
X25084Y-3526D01*
X25196Y-3582D01*
X25253Y-3695D01*
X25253Y-3807D01*
X24690Y-3920D01*
X25703Y-4257D02*
X25815Y-4313D01*
X26040Y-4313D01*
X26152Y-4257D01*
X26209Y-4145D01*
X26209Y-4088D01*
X26152Y-3976D01*
X26040Y-3920D01*
X25871Y-3920D01*
X25759Y-3863D01*
X25703Y-3751D01*
X25703Y-3695D01*
X25759Y-3582D01*
X25871Y-3526D01*
X26040Y-3526D01*
X26152Y-3582D01*
X26602Y-4763D02*
X26659Y-4707D01*
X26771Y-4538D01*
X26827Y-4426D01*
X26884Y-4257D01*
X26940Y-3976D01*
X26940Y-3751D01*
X26884Y-3470D01*
X26827Y-3301D01*
X26771Y-3188D01*
X26659Y-3020D01*
X26602Y-2964D01*
G54D11*
X0Y-5338D02*
G75*
G03X0Y-5338I-196J0D01*
G74*
G01*
G54D12*
X1687Y-5872D02*
X1012Y-5872D01*
X1349Y-5872D02*
X1349Y-4691D01*
X1237Y-4860D01*
X1124Y-4973D01*
X1012Y-5029D01*
X2193Y-5760D02*
X2249Y-5816D01*
X2193Y-5872D01*
X2137Y-5816D01*
X2193Y-5760D01*
X2193Y-5872D01*
X2980Y-4691D02*
X3093Y-4691D01*
X3205Y-4748D01*
X3262Y-4804D01*
X3318Y-4916D01*
X3374Y-5141D01*
X3374Y-5422D01*
X3318Y-5647D01*
X3262Y-5760D01*
X3205Y-5816D01*
X3093Y-5872D01*
X2980Y-5872D01*
X2868Y-5816D01*
X2812Y-5760D01*
X2755Y-5647D01*
X2699Y-5422D01*
X2699Y-5141D01*
X2755Y-4916D01*
X2812Y-4804D01*
X2868Y-4748D01*
X2980Y-4691D01*
X4105Y-4691D02*
X4218Y-4691D01*
X4330Y-4748D01*
X4386Y-4804D01*
X4443Y-4916D01*
X4499Y-5141D01*
X4499Y-5422D01*
X4443Y-5647D01*
X4386Y-5760D01*
X4330Y-5816D01*
X4218Y-5872D01*
X4105Y-5872D01*
X3993Y-5816D01*
X3937Y-5760D01*
X3880Y-5647D01*
X3824Y-5422D01*
X3824Y-5141D01*
X3880Y-4916D01*
X3937Y-4804D01*
X3993Y-4748D01*
X4105Y-4691D01*
X5005Y-5872D02*
X5005Y-5085D01*
X5005Y-5197D02*
X5061Y-5141D01*
X5174Y-5085D01*
X5343Y-5085D01*
X5455Y-5141D01*
X5511Y-5254D01*
X5511Y-5872D01*
X5511Y-5254D02*
X5568Y-5141D01*
X5680Y-5085D01*
X5849Y-5085D01*
X5961Y-5141D01*
X6017Y-5254D01*
X6017Y-5872D01*
X6580Y-5872D02*
X6580Y-5085D01*
X6580Y-5197D02*
X6636Y-5141D01*
X6749Y-5085D01*
X6917Y-5085D01*
X7030Y-5141D01*
X7086Y-5254D01*
X7086Y-5872D01*
X7086Y-5254D02*
X7142Y-5141D01*
X7255Y-5085D01*
X7424Y-5085D01*
X7536Y-5141D01*
X7592Y-5254D01*
X7592Y-5872D01*
X9898Y-4635D02*
X8886Y-6154D01*
X11417Y-4691D02*
X11529Y-4691D01*
X11642Y-4748D01*
X11698Y-4804D01*
X11754Y-4916D01*
X11811Y-5141D01*
X11811Y-5422D01*
X11754Y-5647D01*
X11698Y-5760D01*
X11642Y-5816D01*
X11529Y-5872D01*
X11417Y-5872D01*
X11304Y-5816D01*
X11248Y-5760D01*
X11192Y-5647D01*
X11136Y-5422D01*
X11136Y-5141D01*
X11192Y-4916D01*
X11248Y-4804D01*
X11304Y-4748D01*
X11417Y-4691D01*
X12317Y-5760D02*
X12373Y-5816D01*
X12317Y-5872D01*
X12260Y-5816D01*
X12317Y-5760D01*
X12317Y-5872D01*
X13104Y-4691D02*
X13217Y-4691D01*
X13329Y-4748D01*
X13385Y-4804D01*
X13442Y-4916D01*
X13498Y-5141D01*
X13498Y-5422D01*
X13442Y-5647D01*
X13385Y-5760D01*
X13329Y-5816D01*
X13217Y-5872D01*
X13104Y-5872D01*
X12992Y-5816D01*
X12935Y-5760D01*
X12879Y-5647D01*
X12823Y-5422D01*
X12823Y-5141D01*
X12879Y-4916D01*
X12935Y-4804D01*
X12992Y-4748D01*
X13104Y-4691D01*
X13892Y-4691D02*
X14623Y-4691D01*
X14229Y-5141D01*
X14398Y-5141D01*
X14510Y-5197D01*
X14566Y-5254D01*
X14623Y-5366D01*
X14623Y-5647D01*
X14566Y-5760D01*
X14510Y-5816D01*
X14398Y-5872D01*
X14060Y-5872D01*
X13948Y-5816D01*
X13892Y-5760D01*
X15185Y-5872D02*
X15410Y-5872D01*
X15523Y-5816D01*
X15579Y-5760D01*
X15691Y-5591D01*
X15748Y-5366D01*
X15748Y-4916D01*
X15691Y-4804D01*
X15635Y-4748D01*
X15523Y-4691D01*
X15298Y-4691D01*
X15185Y-4748D01*
X15129Y-4804D01*
X15073Y-4916D01*
X15073Y-5197D01*
X15129Y-5310D01*
X15185Y-5366D01*
X15298Y-5422D01*
X15523Y-5422D01*
X15635Y-5366D01*
X15691Y-5310D01*
X15748Y-5197D01*
X16197Y-4691D02*
X16197Y-4916D01*
X16647Y-4691D02*
X16647Y-4916D01*
X18391Y-6322D02*
X18335Y-6266D01*
X18222Y-6097D01*
X18166Y-5985D01*
X18110Y-5816D01*
X18053Y-5535D01*
X18053Y-5310D01*
X18110Y-5029D01*
X18166Y-4860D01*
X18222Y-4748D01*
X18335Y-4579D01*
X18391Y-4523D01*
X18785Y-4804D02*
X18841Y-4748D01*
X18953Y-4691D01*
X19235Y-4691D01*
X19347Y-4748D01*
X19403Y-4804D01*
X19460Y-4916D01*
X19460Y-5029D01*
X19403Y-5197D01*
X18728Y-5872D01*
X19460Y-5872D01*
X20191Y-4691D02*
X20303Y-4691D01*
X20416Y-4748D01*
X20472Y-4804D01*
X20528Y-4916D01*
X20584Y-5141D01*
X20584Y-5422D01*
X20528Y-5647D01*
X20472Y-5760D01*
X20416Y-5816D01*
X20303Y-5872D01*
X20191Y-5872D01*
X20078Y-5816D01*
X20022Y-5760D01*
X19966Y-5647D01*
X19910Y-5422D01*
X19910Y-5141D01*
X19966Y-4916D01*
X20022Y-4804D01*
X20078Y-4748D01*
X20191Y-4691D01*
X21991Y-5872D02*
X21991Y-4691D01*
X22497Y-5872D02*
X22497Y-5254D01*
X22440Y-5141D01*
X22328Y-5085D01*
X22159Y-5085D01*
X22047Y-5141D01*
X21991Y-5197D01*
X23228Y-5872D02*
X23115Y-5816D01*
X23059Y-5760D01*
X23003Y-5647D01*
X23003Y-5310D01*
X23059Y-5197D01*
X23115Y-5141D01*
X23228Y-5085D01*
X23397Y-5085D01*
X23509Y-5141D01*
X23565Y-5197D01*
X23622Y-5310D01*
X23622Y-5647D01*
X23565Y-5760D01*
X23509Y-5816D01*
X23397Y-5872D01*
X23228Y-5872D01*
X24296Y-5872D02*
X24184Y-5816D01*
X24128Y-5704D01*
X24128Y-4691D01*
X25196Y-5816D02*
X25084Y-5872D01*
X24859Y-5872D01*
X24746Y-5816D01*
X24690Y-5704D01*
X24690Y-5254D01*
X24746Y-5141D01*
X24859Y-5085D01*
X25084Y-5085D01*
X25196Y-5141D01*
X25253Y-5254D01*
X25253Y-5366D01*
X24690Y-5479D01*
X25703Y-5816D02*
X25815Y-5872D01*
X26040Y-5872D01*
X26152Y-5816D01*
X26209Y-5704D01*
X26209Y-5647D01*
X26152Y-5535D01*
X26040Y-5479D01*
X25871Y-5479D01*
X25759Y-5422D01*
X25703Y-5310D01*
X25703Y-5254D01*
X25759Y-5141D01*
X25871Y-5085D01*
X26040Y-5085D01*
X26152Y-5141D01*
X26602Y-6322D02*
X26659Y-6266D01*
X26771Y-6097D01*
X26827Y-5985D01*
X26884Y-5816D01*
X26940Y-5535D01*
X26940Y-5310D01*
X26884Y-5029D01*
X26827Y-4860D01*
X26771Y-4748D01*
X26659Y-4579D01*
X26602Y-4523D01*
M02*
