G04 (created by PCBNEW (2013-08-24 BZR 4298)-stable) date Thu 09 Jan 2014 09:40:54 PM PST*
%MOIN*%
G04 Gerber Fmt 3.4, Leading zero omitted, Abs format*
%FSLAX34Y34*%
G01*
G70*
G90*
G04 APERTURE LIST*
%ADD10C,0.005906*%
%ADD11C,0.027559*%
%ADD12C,0.009843*%
%ADD13C,0.007874*%
%ADD14C,0.010000*%
G04 APERTURE END LIST*
G54D10*
G54D11*
X54496Y-41551D03*
X57771Y-41830D03*
X54421Y-39578D03*
X53425Y-42125D03*
X56370Y-42330D03*
X57519Y-42500D03*
X57240Y-48216D03*
X55881Y-45153D03*
X53645Y-43405D03*
X52881Y-38299D03*
X55968Y-38188D03*
X57527Y-46527D03*
X54618Y-45023D03*
X53818Y-39409D03*
X53334Y-40405D03*
X58051Y-43185D03*
X55858Y-42098D03*
X50354Y-49557D03*
X51751Y-42096D03*
X57653Y-43944D03*
X53559Y-42661D03*
X56826Y-48952D03*
X52343Y-42136D03*
G54D10*
X56169Y-41818D02*
X54496Y-41551D01*
X57771Y-41830D02*
X56169Y-41818D01*
X54421Y-39669D02*
X54421Y-39578D01*
X54141Y-40338D02*
X54421Y-39669D01*
X53338Y-42039D02*
X54141Y-40338D01*
X53425Y-42125D02*
X53338Y-42039D01*
X57311Y-42291D02*
X56370Y-42330D01*
X57519Y-42500D02*
X57311Y-42291D01*
G54D12*
X55968Y-38188D02*
X55968Y-38181D01*
G54D10*
X57389Y-46527D02*
X57527Y-46527D01*
X54618Y-45023D02*
X55905Y-45980D01*
X55905Y-45980D02*
X57389Y-46527D01*
X53818Y-39464D02*
X53818Y-39409D01*
X53334Y-39948D02*
X53818Y-39464D01*
X53334Y-40405D02*
X53334Y-39948D01*
X56259Y-43003D02*
X55976Y-42440D01*
X57870Y-43003D02*
X56259Y-43003D01*
X58051Y-43185D02*
X57870Y-43003D01*
X55858Y-42098D02*
X55976Y-42440D01*
X55976Y-42440D02*
X55976Y-42425D01*
G54D13*
X51751Y-42096D02*
X51791Y-42795D01*
X51791Y-42795D02*
X51663Y-44251D01*
X51663Y-44251D02*
X51604Y-46742D01*
X51604Y-46742D02*
X50354Y-49557D01*
G54D10*
X50354Y-49557D02*
X50350Y-49561D01*
X54535Y-43279D02*
X54488Y-43279D01*
X57653Y-43944D02*
X57311Y-43602D01*
X57311Y-43602D02*
X54858Y-43602D01*
X54858Y-43602D02*
X54535Y-43279D01*
X53866Y-42783D02*
X53559Y-42661D01*
X54488Y-43279D02*
X53866Y-42783D01*
X56826Y-48952D02*
X55110Y-48596D01*
X55110Y-48596D02*
X54744Y-48287D01*
X54744Y-48287D02*
X54448Y-46309D01*
X54448Y-46309D02*
X52795Y-44773D01*
X52795Y-44773D02*
X52795Y-42677D01*
X52795Y-42677D02*
X52253Y-42037D01*
X52253Y-42047D02*
X52253Y-42037D01*
G54D13*
X52225Y-42038D02*
X52343Y-42136D01*
G54D10*
G36*
X59654Y-37612D02*
X59635Y-51692D01*
X57991Y-51694D01*
X57991Y-46435D01*
X57920Y-46265D01*
X57790Y-46134D01*
X57620Y-46064D01*
X57435Y-46064D01*
X57305Y-46117D01*
X56076Y-45664D01*
X55077Y-44922D01*
X55011Y-44761D01*
X54880Y-44631D01*
X54710Y-44560D01*
X54526Y-44560D01*
X54355Y-44630D01*
X54225Y-44760D01*
X54154Y-44931D01*
X54154Y-45115D01*
X54225Y-45285D01*
X54355Y-45416D01*
X54525Y-45486D01*
X54646Y-45487D01*
X55693Y-46265D01*
X55739Y-46287D01*
X55782Y-46313D01*
X57169Y-46824D01*
X57264Y-46920D01*
X57434Y-46990D01*
X57619Y-46991D01*
X57789Y-46920D01*
X57920Y-46790D01*
X57990Y-46620D01*
X57991Y-46435D01*
X57991Y-51694D01*
X47412Y-51711D01*
X47549Y-37612D01*
X48070Y-37612D01*
X48070Y-50118D01*
X51892Y-50118D01*
X51871Y-47015D01*
X51928Y-46886D01*
X51928Y-46885D01*
X51929Y-46885D01*
X51944Y-46818D01*
X51959Y-46751D01*
X51959Y-46750D01*
X51959Y-46750D01*
X52018Y-44271D01*
X52145Y-42826D01*
X52142Y-42800D01*
X52145Y-42775D01*
X52133Y-42551D01*
X52250Y-42599D01*
X52264Y-42599D01*
X52440Y-42807D01*
X52440Y-44773D01*
X52441Y-44780D01*
X52440Y-44786D01*
X52454Y-44847D01*
X52467Y-44909D01*
X52470Y-44915D01*
X52472Y-44921D01*
X52509Y-44972D01*
X52544Y-45024D01*
X52549Y-45028D01*
X52553Y-45033D01*
X54115Y-46484D01*
X54392Y-48339D01*
X54412Y-48394D01*
X54428Y-48450D01*
X54435Y-48459D01*
X54439Y-48470D01*
X54478Y-48513D01*
X54514Y-48558D01*
X54881Y-48867D01*
X54897Y-48877D01*
X54910Y-48890D01*
X54957Y-48910D01*
X55002Y-48935D01*
X55020Y-48937D01*
X55038Y-48944D01*
X56457Y-49238D01*
X56563Y-49345D01*
X56734Y-49416D01*
X56918Y-49416D01*
X57088Y-49345D01*
X57219Y-49215D01*
X57290Y-49045D01*
X57290Y-48860D01*
X57219Y-48690D01*
X57089Y-48560D01*
X56919Y-48489D01*
X56735Y-48489D01*
X56603Y-48543D01*
X56445Y-48511D01*
X56681Y-48275D01*
X56821Y-47938D01*
X56821Y-47574D01*
X56682Y-47237D01*
X56425Y-46979D01*
X56088Y-46839D01*
X55724Y-46839D01*
X55387Y-46978D01*
X55129Y-47236D01*
X54994Y-47560D01*
X54800Y-46256D01*
X54783Y-46209D01*
X54771Y-46161D01*
X54759Y-46144D01*
X54753Y-46126D01*
X54719Y-46089D01*
X54690Y-46048D01*
X53150Y-44618D01*
X53150Y-42885D01*
X53165Y-42923D01*
X53296Y-43054D01*
X53466Y-43124D01*
X53650Y-43124D01*
X53699Y-43104D01*
X54266Y-43557D01*
X54310Y-43579D01*
X54352Y-43607D01*
X54363Y-43609D01*
X54607Y-43853D01*
X54722Y-43930D01*
X54722Y-43930D01*
X54744Y-43934D01*
X54858Y-43957D01*
X57163Y-43957D01*
X57190Y-43983D01*
X57190Y-44036D01*
X57260Y-44207D01*
X57390Y-44337D01*
X57560Y-44408D01*
X57745Y-44408D01*
X57915Y-44337D01*
X58046Y-44207D01*
X58116Y-44037D01*
X58117Y-43853D01*
X58046Y-43682D01*
X58012Y-43648D01*
X58142Y-43648D01*
X58313Y-43578D01*
X58443Y-43447D01*
X58514Y-43277D01*
X58514Y-43093D01*
X58444Y-42922D01*
X58314Y-42792D01*
X58143Y-42721D01*
X58074Y-42721D01*
X58074Y-42721D01*
X58005Y-42675D01*
X57952Y-42665D01*
X57982Y-42592D01*
X57983Y-42408D01*
X57925Y-42268D01*
X58033Y-42223D01*
X58164Y-42093D01*
X58234Y-41923D01*
X58235Y-41738D01*
X58164Y-41568D01*
X58034Y-41438D01*
X57864Y-41367D01*
X57679Y-41367D01*
X57509Y-41437D01*
X57473Y-41473D01*
X56821Y-41468D01*
X56821Y-40251D01*
X56682Y-39914D01*
X56425Y-39656D01*
X56088Y-39517D01*
X55724Y-39516D01*
X55387Y-39655D01*
X55129Y-39913D01*
X54989Y-40250D01*
X54989Y-40614D01*
X55128Y-40951D01*
X55385Y-41209D01*
X55722Y-41349D01*
X56086Y-41349D01*
X56423Y-41210D01*
X56681Y-40952D01*
X56821Y-40616D01*
X56821Y-40251D01*
X56821Y-41468D01*
X56198Y-41463D01*
X54848Y-41247D01*
X54758Y-41158D01*
X54588Y-41087D01*
X54404Y-41087D01*
X54233Y-41158D01*
X54103Y-41288D01*
X54032Y-41458D01*
X54032Y-41642D01*
X54102Y-41813D01*
X54233Y-41943D01*
X54403Y-42014D01*
X54587Y-42014D01*
X54743Y-41950D01*
X55394Y-42054D01*
X55394Y-42190D01*
X55465Y-42360D01*
X55595Y-42491D01*
X55621Y-42501D01*
X55640Y-42556D01*
X55646Y-42566D01*
X55648Y-42576D01*
X55655Y-42587D01*
X55659Y-42600D01*
X55942Y-43163D01*
X55977Y-43208D01*
X56003Y-43247D01*
X55005Y-43247D01*
X54786Y-43028D01*
X54671Y-42951D01*
X54638Y-42944D01*
X54087Y-42505D01*
X54041Y-42481D01*
X53997Y-42453D01*
X53970Y-42442D01*
X53952Y-42399D01*
X53854Y-42301D01*
X53888Y-42218D01*
X53888Y-42034D01*
X53818Y-41863D01*
X53815Y-41861D01*
X54462Y-40490D01*
X54464Y-40482D01*
X54469Y-40475D01*
X54678Y-39973D01*
X54683Y-39971D01*
X54813Y-39841D01*
X54884Y-39671D01*
X54884Y-39486D01*
X54814Y-39316D01*
X54684Y-39186D01*
X54513Y-39115D01*
X54329Y-39115D01*
X54217Y-39161D01*
X54211Y-39147D01*
X54081Y-39016D01*
X53911Y-38946D01*
X53727Y-38945D01*
X53556Y-39016D01*
X53426Y-39146D01*
X53355Y-39316D01*
X53355Y-39425D01*
X53083Y-39697D01*
X53006Y-39812D01*
X52979Y-39948D01*
X52979Y-40105D01*
X52942Y-40142D01*
X52871Y-40312D01*
X52871Y-40497D01*
X52941Y-40667D01*
X53071Y-40798D01*
X53242Y-40868D01*
X53426Y-40868D01*
X53516Y-40831D01*
X53017Y-41887D01*
X53015Y-41896D01*
X53010Y-41903D01*
X53005Y-41928D01*
X52961Y-42033D01*
X52961Y-42217D01*
X53032Y-42388D01*
X53130Y-42486D01*
X53113Y-42526D01*
X53092Y-42495D01*
X53066Y-42447D01*
X52806Y-42140D01*
X52806Y-42044D01*
X52736Y-41874D01*
X52606Y-41743D01*
X52435Y-41673D01*
X52251Y-41673D01*
X52236Y-41679D01*
X52192Y-41674D01*
X52055Y-41714D01*
X52039Y-41728D01*
X52014Y-41703D01*
X51844Y-41633D01*
X51835Y-41633D01*
X51808Y-37612D01*
X59654Y-37612D01*
X59654Y-37612D01*
G37*
G54D14*
X59654Y-37612D02*
X59635Y-51692D01*
X57991Y-51694D01*
X57991Y-46435D01*
X57920Y-46265D01*
X57790Y-46134D01*
X57620Y-46064D01*
X57435Y-46064D01*
X57305Y-46117D01*
X56076Y-45664D01*
X55077Y-44922D01*
X55011Y-44761D01*
X54880Y-44631D01*
X54710Y-44560D01*
X54526Y-44560D01*
X54355Y-44630D01*
X54225Y-44760D01*
X54154Y-44931D01*
X54154Y-45115D01*
X54225Y-45285D01*
X54355Y-45416D01*
X54525Y-45486D01*
X54646Y-45487D01*
X55693Y-46265D01*
X55739Y-46287D01*
X55782Y-46313D01*
X57169Y-46824D01*
X57264Y-46920D01*
X57434Y-46990D01*
X57619Y-46991D01*
X57789Y-46920D01*
X57920Y-46790D01*
X57990Y-46620D01*
X57991Y-46435D01*
X57991Y-51694D01*
X47412Y-51711D01*
X47549Y-37612D01*
X48070Y-37612D01*
X48070Y-50118D01*
X51892Y-50118D01*
X51871Y-47015D01*
X51928Y-46886D01*
X51928Y-46885D01*
X51929Y-46885D01*
X51944Y-46818D01*
X51959Y-46751D01*
X51959Y-46750D01*
X51959Y-46750D01*
X52018Y-44271D01*
X52145Y-42826D01*
X52142Y-42800D01*
X52145Y-42775D01*
X52133Y-42551D01*
X52250Y-42599D01*
X52264Y-42599D01*
X52440Y-42807D01*
X52440Y-44773D01*
X52441Y-44780D01*
X52440Y-44786D01*
X52454Y-44847D01*
X52467Y-44909D01*
X52470Y-44915D01*
X52472Y-44921D01*
X52509Y-44972D01*
X52544Y-45024D01*
X52549Y-45028D01*
X52553Y-45033D01*
X54115Y-46484D01*
X54392Y-48339D01*
X54412Y-48394D01*
X54428Y-48450D01*
X54435Y-48459D01*
X54439Y-48470D01*
X54478Y-48513D01*
X54514Y-48558D01*
X54881Y-48867D01*
X54897Y-48877D01*
X54910Y-48890D01*
X54957Y-48910D01*
X55002Y-48935D01*
X55020Y-48937D01*
X55038Y-48944D01*
X56457Y-49238D01*
X56563Y-49345D01*
X56734Y-49416D01*
X56918Y-49416D01*
X57088Y-49345D01*
X57219Y-49215D01*
X57290Y-49045D01*
X57290Y-48860D01*
X57219Y-48690D01*
X57089Y-48560D01*
X56919Y-48489D01*
X56735Y-48489D01*
X56603Y-48543D01*
X56445Y-48511D01*
X56681Y-48275D01*
X56821Y-47938D01*
X56821Y-47574D01*
X56682Y-47237D01*
X56425Y-46979D01*
X56088Y-46839D01*
X55724Y-46839D01*
X55387Y-46978D01*
X55129Y-47236D01*
X54994Y-47560D01*
X54800Y-46256D01*
X54783Y-46209D01*
X54771Y-46161D01*
X54759Y-46144D01*
X54753Y-46126D01*
X54719Y-46089D01*
X54690Y-46048D01*
X53150Y-44618D01*
X53150Y-42885D01*
X53165Y-42923D01*
X53296Y-43054D01*
X53466Y-43124D01*
X53650Y-43124D01*
X53699Y-43104D01*
X54266Y-43557D01*
X54310Y-43579D01*
X54352Y-43607D01*
X54363Y-43609D01*
X54607Y-43853D01*
X54722Y-43930D01*
X54722Y-43930D01*
X54744Y-43934D01*
X54858Y-43957D01*
X57163Y-43957D01*
X57190Y-43983D01*
X57190Y-44036D01*
X57260Y-44207D01*
X57390Y-44337D01*
X57560Y-44408D01*
X57745Y-44408D01*
X57915Y-44337D01*
X58046Y-44207D01*
X58116Y-44037D01*
X58117Y-43853D01*
X58046Y-43682D01*
X58012Y-43648D01*
X58142Y-43648D01*
X58313Y-43578D01*
X58443Y-43447D01*
X58514Y-43277D01*
X58514Y-43093D01*
X58444Y-42922D01*
X58314Y-42792D01*
X58143Y-42721D01*
X58074Y-42721D01*
X58074Y-42721D01*
X58005Y-42675D01*
X57952Y-42665D01*
X57982Y-42592D01*
X57983Y-42408D01*
X57925Y-42268D01*
X58033Y-42223D01*
X58164Y-42093D01*
X58234Y-41923D01*
X58235Y-41738D01*
X58164Y-41568D01*
X58034Y-41438D01*
X57864Y-41367D01*
X57679Y-41367D01*
X57509Y-41437D01*
X57473Y-41473D01*
X56821Y-41468D01*
X56821Y-40251D01*
X56682Y-39914D01*
X56425Y-39656D01*
X56088Y-39517D01*
X55724Y-39516D01*
X55387Y-39655D01*
X55129Y-39913D01*
X54989Y-40250D01*
X54989Y-40614D01*
X55128Y-40951D01*
X55385Y-41209D01*
X55722Y-41349D01*
X56086Y-41349D01*
X56423Y-41210D01*
X56681Y-40952D01*
X56821Y-40616D01*
X56821Y-40251D01*
X56821Y-41468D01*
X56198Y-41463D01*
X54848Y-41247D01*
X54758Y-41158D01*
X54588Y-41087D01*
X54404Y-41087D01*
X54233Y-41158D01*
X54103Y-41288D01*
X54032Y-41458D01*
X54032Y-41642D01*
X54102Y-41813D01*
X54233Y-41943D01*
X54403Y-42014D01*
X54587Y-42014D01*
X54743Y-41950D01*
X55394Y-42054D01*
X55394Y-42190D01*
X55465Y-42360D01*
X55595Y-42491D01*
X55621Y-42501D01*
X55640Y-42556D01*
X55646Y-42566D01*
X55648Y-42576D01*
X55655Y-42587D01*
X55659Y-42600D01*
X55942Y-43163D01*
X55977Y-43208D01*
X56003Y-43247D01*
X55005Y-43247D01*
X54786Y-43028D01*
X54671Y-42951D01*
X54638Y-42944D01*
X54087Y-42505D01*
X54041Y-42481D01*
X53997Y-42453D01*
X53970Y-42442D01*
X53952Y-42399D01*
X53854Y-42301D01*
X53888Y-42218D01*
X53888Y-42034D01*
X53818Y-41863D01*
X53815Y-41861D01*
X54462Y-40490D01*
X54464Y-40482D01*
X54469Y-40475D01*
X54678Y-39973D01*
X54683Y-39971D01*
X54813Y-39841D01*
X54884Y-39671D01*
X54884Y-39486D01*
X54814Y-39316D01*
X54684Y-39186D01*
X54513Y-39115D01*
X54329Y-39115D01*
X54217Y-39161D01*
X54211Y-39147D01*
X54081Y-39016D01*
X53911Y-38946D01*
X53727Y-38945D01*
X53556Y-39016D01*
X53426Y-39146D01*
X53355Y-39316D01*
X53355Y-39425D01*
X53083Y-39697D01*
X53006Y-39812D01*
X52979Y-39948D01*
X52979Y-40105D01*
X52942Y-40142D01*
X52871Y-40312D01*
X52871Y-40497D01*
X52941Y-40667D01*
X53071Y-40798D01*
X53242Y-40868D01*
X53426Y-40868D01*
X53516Y-40831D01*
X53017Y-41887D01*
X53015Y-41896D01*
X53010Y-41903D01*
X53005Y-41928D01*
X52961Y-42033D01*
X52961Y-42217D01*
X53032Y-42388D01*
X53130Y-42486D01*
X53113Y-42526D01*
X53092Y-42495D01*
X53066Y-42447D01*
X52806Y-42140D01*
X52806Y-42044D01*
X52736Y-41874D01*
X52606Y-41743D01*
X52435Y-41673D01*
X52251Y-41673D01*
X52236Y-41679D01*
X52192Y-41674D01*
X52055Y-41714D01*
X52039Y-41728D01*
X52014Y-41703D01*
X51844Y-41633D01*
X51835Y-41633D01*
X51808Y-37612D01*
X59654Y-37612D01*
M02*
