G04 (created by PCBNEW (2013-08-24 BZR 4298)-stable) date Sat 01 Feb 2014 02:51:32 PM PST*
%MOIN*%
G04 Gerber Fmt 3.4, Leading zero omitted, Abs format*
%FSLAX34Y34*%
G01*
G70*
G90*
G04 APERTURE LIST*
%ADD10C,0.005906*%
%ADD11C,0.005000*%
%ADD12C,0.007900*%
%ADD13C,0.003937*%
%ADD14C,0.003900*%
%ADD15C,0.001600*%
%ADD16C,0.012000*%
%ADD17C,0.003700*%
%ADD18C,0.002953*%
%ADD19C,0.004921*%
G04 APERTURE END LIST*
G54D10*
G54D11*
X33160Y-51266D02*
X33160Y-50946D01*
X32720Y-50956D02*
X32720Y-51266D01*
X32620Y-50946D02*
X33260Y-50946D01*
X33260Y-50946D02*
X33260Y-51266D01*
X33260Y-51266D02*
X32620Y-51266D01*
X32620Y-51266D02*
X32620Y-50946D01*
X32987Y-31388D02*
X32987Y-31068D01*
X32547Y-31078D02*
X32547Y-31388D01*
X32447Y-31068D02*
X33087Y-31068D01*
X33087Y-31068D02*
X33087Y-31388D01*
X33087Y-31388D02*
X32447Y-31388D01*
X32447Y-31388D02*
X32447Y-31068D01*
X33231Y-44758D02*
X33231Y-44438D01*
X32791Y-44448D02*
X32791Y-44758D01*
X32691Y-44438D02*
X33331Y-44438D01*
X33331Y-44438D02*
X33331Y-44758D01*
X33331Y-44758D02*
X32691Y-44758D01*
X32691Y-44758D02*
X32691Y-44438D01*
X33180Y-37848D02*
X33180Y-37528D01*
X32740Y-37538D02*
X32740Y-37848D01*
X32640Y-37528D02*
X33280Y-37528D01*
X33280Y-37528D02*
X33280Y-37848D01*
X33280Y-37848D02*
X32640Y-37848D01*
X32640Y-37848D02*
X32640Y-37528D01*
X31477Y-45275D02*
X31797Y-45275D01*
X31787Y-44835D02*
X31477Y-44835D01*
X31797Y-44735D02*
X31797Y-45375D01*
X31797Y-45375D02*
X31477Y-45375D01*
X31477Y-45375D02*
X31477Y-44735D01*
X31477Y-44735D02*
X31797Y-44735D01*
X31414Y-38487D02*
X31734Y-38487D01*
X31724Y-38047D02*
X31414Y-38047D01*
X31734Y-37947D02*
X31734Y-38587D01*
X31734Y-38587D02*
X31414Y-38587D01*
X31414Y-38587D02*
X31414Y-37947D01*
X31414Y-37947D02*
X31734Y-37947D01*
X31269Y-32231D02*
X31589Y-32231D01*
X31579Y-31791D02*
X31269Y-31791D01*
X31589Y-31691D02*
X31589Y-32331D01*
X31589Y-32331D02*
X31269Y-32331D01*
X31269Y-32331D02*
X31269Y-31691D01*
X31269Y-31691D02*
X31589Y-31691D01*
X31402Y-52097D02*
X31722Y-52097D01*
X31712Y-51657D02*
X31402Y-51657D01*
X31722Y-51557D02*
X31722Y-52197D01*
X31722Y-52197D02*
X31402Y-52197D01*
X31402Y-52197D02*
X31402Y-51557D01*
X31402Y-51557D02*
X31722Y-51557D01*
X40145Y-37519D02*
X39535Y-37519D01*
X39535Y-37519D02*
X39535Y-40118D01*
X39535Y-40118D02*
X40135Y-40118D01*
G54D12*
X34161Y-36258D02*
X40145Y-36258D01*
X40145Y-36258D02*
X40145Y-41378D01*
X40145Y-41378D02*
X34161Y-41378D01*
X34161Y-41378D02*
X34161Y-36258D01*
G54D11*
X40255Y-44291D02*
X39645Y-44291D01*
X39645Y-44291D02*
X39645Y-46889D01*
X39645Y-46889D02*
X40246Y-46889D01*
G54D12*
X34271Y-43030D02*
X40255Y-43030D01*
X40255Y-43030D02*
X40255Y-48150D01*
X40255Y-48150D02*
X34271Y-48150D01*
X34271Y-48150D02*
X34271Y-43030D01*
G54D11*
X40255Y-50787D02*
X39645Y-50787D01*
X39645Y-50787D02*
X39645Y-53385D01*
X39645Y-53385D02*
X40246Y-53385D01*
G54D12*
X34271Y-49526D02*
X40255Y-49526D01*
X40255Y-49526D02*
X40255Y-54646D01*
X40255Y-54646D02*
X34271Y-54646D01*
X34271Y-54646D02*
X34271Y-49526D01*
G54D11*
X28514Y-44595D02*
X28514Y-44195D01*
X28514Y-44195D02*
X29114Y-44195D01*
X29114Y-44195D02*
X29114Y-44595D01*
X29114Y-44995D02*
X29114Y-45395D01*
X29114Y-45395D02*
X28514Y-45395D01*
X28514Y-45395D02*
X28514Y-44995D01*
X40106Y-31129D02*
X39496Y-31129D01*
X39496Y-31129D02*
X39496Y-33728D01*
X39496Y-33728D02*
X40096Y-33728D01*
G54D12*
X34122Y-29869D02*
X40106Y-29869D01*
X40106Y-29869D02*
X40106Y-34989D01*
X40106Y-34989D02*
X34122Y-34989D01*
X34122Y-34989D02*
X34122Y-29869D01*
G54D11*
X28412Y-51170D02*
X28412Y-50770D01*
X28412Y-50770D02*
X29012Y-50770D01*
X29012Y-50770D02*
X29012Y-51170D01*
X29012Y-51570D02*
X29012Y-51970D01*
X29012Y-51970D02*
X28412Y-51970D01*
X28412Y-51970D02*
X28412Y-51570D01*
X28550Y-37658D02*
X28550Y-37258D01*
X28550Y-37258D02*
X29150Y-37258D01*
X29150Y-37258D02*
X29150Y-37658D01*
X29150Y-38058D02*
X29150Y-38458D01*
X29150Y-38458D02*
X28550Y-38458D01*
X28550Y-38458D02*
X28550Y-38058D01*
X28373Y-31331D02*
X28373Y-30931D01*
X28373Y-30931D02*
X28973Y-30931D01*
X28973Y-30931D02*
X28973Y-31331D01*
X28973Y-31731D02*
X28973Y-32131D01*
X28973Y-32131D02*
X28373Y-32131D01*
X28373Y-32131D02*
X28373Y-31731D01*
X29302Y-53845D02*
X29702Y-53845D01*
X29702Y-53845D02*
X29702Y-54445D01*
X29702Y-54445D02*
X29302Y-54445D01*
X28902Y-54445D02*
X28502Y-54445D01*
X28502Y-54445D02*
X28502Y-53845D01*
X28502Y-53845D02*
X28902Y-53845D01*
X29731Y-47058D02*
X30131Y-47058D01*
X30131Y-47058D02*
X30131Y-47658D01*
X30131Y-47658D02*
X29731Y-47658D01*
X29331Y-47658D02*
X28931Y-47658D01*
X28931Y-47658D02*
X28931Y-47058D01*
X28931Y-47058D02*
X29331Y-47058D01*
X29262Y-33581D02*
X29662Y-33581D01*
X29662Y-33581D02*
X29662Y-34181D01*
X29662Y-34181D02*
X29262Y-34181D01*
X28862Y-34181D02*
X28462Y-34181D01*
X28462Y-34181D02*
X28462Y-33581D01*
X28462Y-33581D02*
X28862Y-33581D01*
X29428Y-40109D02*
X29828Y-40109D01*
X29828Y-40109D02*
X29828Y-40709D01*
X29828Y-40709D02*
X29428Y-40709D01*
X29028Y-40709D02*
X28628Y-40709D01*
X28628Y-40709D02*
X28628Y-40109D01*
X28628Y-40109D02*
X29028Y-40109D01*
X27917Y-27598D02*
X28527Y-27598D01*
X28527Y-27598D02*
X28527Y-25000D01*
X28527Y-25000D02*
X27927Y-25000D01*
G54D12*
X33901Y-28859D02*
X27917Y-28859D01*
X27917Y-28859D02*
X27917Y-23739D01*
X27917Y-23739D02*
X33901Y-23739D01*
X33901Y-23739D02*
X33901Y-28859D01*
G54D13*
X32578Y-38360D02*
X32578Y-39009D01*
G54D14*
X32460Y-38999D02*
X32060Y-38999D01*
X32058Y-38985D02*
X32058Y-38385D01*
X32058Y-38361D02*
X32458Y-38361D01*
X33242Y-38359D02*
X33642Y-38359D01*
X33648Y-38385D02*
X33648Y-38985D01*
X33646Y-39007D02*
X33246Y-39007D01*
G54D13*
X32696Y-45289D02*
X32696Y-45938D01*
G54D14*
X32578Y-45928D02*
X32178Y-45928D01*
X32176Y-45914D02*
X32176Y-45314D01*
X32176Y-45290D02*
X32576Y-45290D01*
X33360Y-45288D02*
X33760Y-45288D01*
X33766Y-45314D02*
X33766Y-45914D01*
X33764Y-45936D02*
X33364Y-45936D01*
G54D13*
X32370Y-31828D02*
X32370Y-32478D01*
G54D14*
X32251Y-32467D02*
X31851Y-32467D01*
X31849Y-32453D02*
X31849Y-31853D01*
X31849Y-31829D02*
X32249Y-31829D01*
X33033Y-31827D02*
X33433Y-31827D01*
X33439Y-31853D02*
X33439Y-32453D01*
X33437Y-32475D02*
X33037Y-32475D01*
G54D13*
X32653Y-51919D02*
X32653Y-52568D01*
G54D14*
X32535Y-52558D02*
X32135Y-52558D01*
X32133Y-52544D02*
X32133Y-51944D01*
X32133Y-51920D02*
X32533Y-51920D01*
X33317Y-51918D02*
X33717Y-51918D01*
X33723Y-51944D02*
X33723Y-52544D01*
X33721Y-52566D02*
X33321Y-52566D01*
G54D12*
X30826Y-51885D02*
X30826Y-53066D01*
X30826Y-53066D02*
X29645Y-53066D01*
X29645Y-53066D02*
X29645Y-51885D01*
X29645Y-51885D02*
X30826Y-51885D01*
X30826Y-31889D02*
X30826Y-33070D01*
X30826Y-33070D02*
X29645Y-33070D01*
X29645Y-33070D02*
X29645Y-31889D01*
X29645Y-31889D02*
X30826Y-31889D01*
X30826Y-38149D02*
X30826Y-39330D01*
X30826Y-39330D02*
X29645Y-39330D01*
X29645Y-39330D02*
X29645Y-38149D01*
X29645Y-38149D02*
X30826Y-38149D01*
X30826Y-44988D02*
X30826Y-46169D01*
X30826Y-46169D02*
X29645Y-46169D01*
X29645Y-46169D02*
X29645Y-44988D01*
X29645Y-44988D02*
X30826Y-44988D01*
G54D15*
X32927Y-50892D02*
X32901Y-50854D01*
X32882Y-50892D02*
X32882Y-50813D01*
X32912Y-50813D01*
X32920Y-50816D01*
X32924Y-50820D01*
X32927Y-50828D01*
X32927Y-50839D01*
X32924Y-50846D01*
X32920Y-50850D01*
X32912Y-50854D01*
X32882Y-50854D01*
X32972Y-50846D02*
X32965Y-50843D01*
X32961Y-50839D01*
X32957Y-50831D01*
X32957Y-50828D01*
X32961Y-50820D01*
X32965Y-50816D01*
X32972Y-50813D01*
X32987Y-50813D01*
X32995Y-50816D01*
X32999Y-50820D01*
X33003Y-50828D01*
X33003Y-50831D01*
X32999Y-50839D01*
X32995Y-50843D01*
X32987Y-50846D01*
X32972Y-50846D01*
X32965Y-50850D01*
X32961Y-50854D01*
X32957Y-50861D01*
X32957Y-50876D01*
X32961Y-50884D01*
X32965Y-50888D01*
X32972Y-50892D01*
X32987Y-50892D01*
X32995Y-50888D01*
X32999Y-50884D01*
X33003Y-50876D01*
X33003Y-50861D01*
X32999Y-50854D01*
X32995Y-50850D01*
X32987Y-50846D01*
X32754Y-31014D02*
X32728Y-30976D01*
X32709Y-31014D02*
X32709Y-30935D01*
X32739Y-30935D01*
X32747Y-30938D01*
X32750Y-30942D01*
X32754Y-30950D01*
X32754Y-30961D01*
X32750Y-30968D01*
X32747Y-30972D01*
X32739Y-30976D01*
X32709Y-30976D01*
X32780Y-30935D02*
X32833Y-30935D01*
X32799Y-31014D01*
X32998Y-44384D02*
X32972Y-44346D01*
X32953Y-44384D02*
X32953Y-44305D01*
X32983Y-44305D01*
X32991Y-44308D01*
X32994Y-44312D01*
X32998Y-44320D01*
X32998Y-44331D01*
X32994Y-44339D01*
X32991Y-44342D01*
X32983Y-44346D01*
X32953Y-44346D01*
X33066Y-44305D02*
X33051Y-44305D01*
X33043Y-44308D01*
X33040Y-44312D01*
X33032Y-44323D01*
X33028Y-44339D01*
X33028Y-44369D01*
X33032Y-44376D01*
X33036Y-44380D01*
X33043Y-44384D01*
X33058Y-44384D01*
X33066Y-44380D01*
X33070Y-44376D01*
X33073Y-44369D01*
X33073Y-44350D01*
X33070Y-44342D01*
X33066Y-44339D01*
X33058Y-44335D01*
X33043Y-44335D01*
X33036Y-44339D01*
X33032Y-44342D01*
X33028Y-44350D01*
X32947Y-37474D02*
X32921Y-37437D01*
X32902Y-37474D02*
X32902Y-37395D01*
X32932Y-37395D01*
X32939Y-37399D01*
X32943Y-37403D01*
X32947Y-37410D01*
X32947Y-37422D01*
X32943Y-37429D01*
X32939Y-37433D01*
X32932Y-37437D01*
X32902Y-37437D01*
X33018Y-37395D02*
X32981Y-37395D01*
X32977Y-37433D01*
X32981Y-37429D01*
X32988Y-37425D01*
X33007Y-37425D01*
X33015Y-37429D01*
X33018Y-37433D01*
X33022Y-37440D01*
X33022Y-37459D01*
X33018Y-37467D01*
X33015Y-37470D01*
X33007Y-37474D01*
X32988Y-37474D01*
X32981Y-37470D01*
X32977Y-37467D01*
X31923Y-45068D02*
X31885Y-45094D01*
X31923Y-45113D02*
X31844Y-45113D01*
X31844Y-45083D01*
X31848Y-45075D01*
X31852Y-45072D01*
X31859Y-45068D01*
X31870Y-45068D01*
X31878Y-45072D01*
X31882Y-45075D01*
X31885Y-45083D01*
X31885Y-45113D01*
X31844Y-45041D02*
X31844Y-44993D01*
X31874Y-45019D01*
X31874Y-45008D01*
X31878Y-45000D01*
X31882Y-44996D01*
X31889Y-44993D01*
X31908Y-44993D01*
X31916Y-44996D01*
X31919Y-45000D01*
X31923Y-45008D01*
X31923Y-45030D01*
X31919Y-45038D01*
X31916Y-45041D01*
X31860Y-38280D02*
X31822Y-38307D01*
X31860Y-38326D02*
X31781Y-38326D01*
X31781Y-38295D01*
X31785Y-38288D01*
X31789Y-38284D01*
X31796Y-38280D01*
X31807Y-38280D01*
X31815Y-38284D01*
X31819Y-38288D01*
X31822Y-38295D01*
X31822Y-38326D01*
X31789Y-38250D02*
X31785Y-38247D01*
X31781Y-38239D01*
X31781Y-38220D01*
X31785Y-38213D01*
X31789Y-38209D01*
X31796Y-38205D01*
X31804Y-38205D01*
X31815Y-38209D01*
X31860Y-38254D01*
X31860Y-38205D01*
X31714Y-32024D02*
X31677Y-32051D01*
X31714Y-32070D02*
X31635Y-32070D01*
X31635Y-32040D01*
X31639Y-32032D01*
X31643Y-32028D01*
X31650Y-32024D01*
X31662Y-32024D01*
X31669Y-32028D01*
X31673Y-32032D01*
X31677Y-32040D01*
X31677Y-32070D01*
X31714Y-31949D02*
X31714Y-31994D01*
X31714Y-31972D02*
X31635Y-31972D01*
X31647Y-31979D01*
X31654Y-31987D01*
X31658Y-31994D01*
X31848Y-51891D02*
X31811Y-51917D01*
X31848Y-51936D02*
X31769Y-51936D01*
X31769Y-51906D01*
X31773Y-51898D01*
X31777Y-51894D01*
X31784Y-51891D01*
X31796Y-51891D01*
X31803Y-51894D01*
X31807Y-51898D01*
X31811Y-51906D01*
X31811Y-51936D01*
X31796Y-51823D02*
X31848Y-51823D01*
X31765Y-51842D02*
X31822Y-51861D01*
X31822Y-51812D01*
G54D16*
X37015Y-35278D02*
X37015Y-35706D01*
X36986Y-35792D01*
X36929Y-35849D01*
X36844Y-35878D01*
X36786Y-35878D01*
X37244Y-35278D02*
X37615Y-35278D01*
X37415Y-35506D01*
X37501Y-35506D01*
X37558Y-35535D01*
X37586Y-35564D01*
X37615Y-35621D01*
X37615Y-35764D01*
X37586Y-35821D01*
X37558Y-35849D01*
X37501Y-35878D01*
X37329Y-35878D01*
X37272Y-35849D01*
X37244Y-35821D01*
G54D10*
X33538Y-20827D02*
X33538Y-20434D01*
X33538Y-20621D02*
X33763Y-20621D01*
X33763Y-20827D02*
X33763Y-20434D01*
X34157Y-20827D02*
X33932Y-20827D01*
X34044Y-20827D02*
X34044Y-20434D01*
X34007Y-20490D01*
X33969Y-20527D01*
X33932Y-20546D01*
X33300Y-22855D02*
X33300Y-22461D01*
X33300Y-22649D02*
X33525Y-22649D01*
X33525Y-22855D02*
X33525Y-22461D01*
X33787Y-22461D02*
X33862Y-22461D01*
X33900Y-22480D01*
X33937Y-22517D01*
X33956Y-22592D01*
X33956Y-22724D01*
X33937Y-22799D01*
X33900Y-22836D01*
X33862Y-22855D01*
X33787Y-22855D01*
X33750Y-22836D01*
X33712Y-22799D01*
X33694Y-22724D01*
X33694Y-22592D01*
X33712Y-22517D01*
X33750Y-22480D01*
X33787Y-22461D01*
X34312Y-22855D02*
X34125Y-22855D01*
X34125Y-22461D01*
X34444Y-22649D02*
X34575Y-22649D01*
X34631Y-22855D02*
X34444Y-22855D01*
X34444Y-22461D01*
X34631Y-22461D01*
X33538Y-56260D02*
X33538Y-55867D01*
X33538Y-56054D02*
X33763Y-56054D01*
X33763Y-56260D02*
X33763Y-55867D01*
X33932Y-55904D02*
X33951Y-55885D01*
X33988Y-55867D01*
X34082Y-55867D01*
X34119Y-55885D01*
X34138Y-55904D01*
X34157Y-55942D01*
X34157Y-55979D01*
X34138Y-56035D01*
X33913Y-56260D01*
X34157Y-56260D01*
X33300Y-58288D02*
X33300Y-57894D01*
X33300Y-58082D02*
X33525Y-58082D01*
X33525Y-58288D02*
X33525Y-57894D01*
X33787Y-57894D02*
X33862Y-57894D01*
X33900Y-57913D01*
X33937Y-57950D01*
X33956Y-58025D01*
X33956Y-58157D01*
X33937Y-58232D01*
X33900Y-58269D01*
X33862Y-58288D01*
X33787Y-58288D01*
X33750Y-58269D01*
X33712Y-58232D01*
X33694Y-58157D01*
X33694Y-58025D01*
X33712Y-57950D01*
X33750Y-57913D01*
X33787Y-57894D01*
X34312Y-58288D02*
X34125Y-58288D01*
X34125Y-57894D01*
X34444Y-58082D02*
X34575Y-58082D01*
X34631Y-58288D02*
X34444Y-58288D01*
X34444Y-57894D01*
X34631Y-57894D01*
G54D16*
X37125Y-42049D02*
X37125Y-42478D01*
X37097Y-42564D01*
X37040Y-42621D01*
X36954Y-42649D01*
X36897Y-42649D01*
X37668Y-42249D02*
X37668Y-42649D01*
X37525Y-42021D02*
X37382Y-42449D01*
X37754Y-42449D01*
X37125Y-48546D02*
X37125Y-48974D01*
X37097Y-49060D01*
X37040Y-49117D01*
X36954Y-49146D01*
X36897Y-49146D01*
X37697Y-48546D02*
X37411Y-48546D01*
X37382Y-48831D01*
X37411Y-48803D01*
X37468Y-48774D01*
X37611Y-48774D01*
X37668Y-48803D01*
X37697Y-48831D01*
X37725Y-48888D01*
X37725Y-49031D01*
X37697Y-49088D01*
X37668Y-49117D01*
X37611Y-49146D01*
X37468Y-49146D01*
X37411Y-49117D01*
X37382Y-49088D01*
G54D17*
X29320Y-44830D02*
X29327Y-44837D01*
X29334Y-44858D01*
X29334Y-44873D01*
X29327Y-44894D01*
X29313Y-44908D01*
X29299Y-44915D01*
X29270Y-44923D01*
X29249Y-44923D01*
X29220Y-44915D01*
X29206Y-44908D01*
X29191Y-44894D01*
X29184Y-44873D01*
X29184Y-44858D01*
X29191Y-44837D01*
X29199Y-44830D01*
X29184Y-44780D02*
X29184Y-44680D01*
X29334Y-44744D01*
G54D16*
X36976Y-28888D02*
X36976Y-29317D01*
X36947Y-29402D01*
X36890Y-29459D01*
X36804Y-29488D01*
X36747Y-29488D01*
X37233Y-28945D02*
X37261Y-28917D01*
X37319Y-28888D01*
X37461Y-28888D01*
X37519Y-28917D01*
X37547Y-28945D01*
X37576Y-29002D01*
X37576Y-29059D01*
X37547Y-29145D01*
X37204Y-29488D01*
X37576Y-29488D01*
G54D17*
X29218Y-51405D02*
X29225Y-51412D01*
X29232Y-51433D01*
X29232Y-51447D01*
X29225Y-51469D01*
X29211Y-51483D01*
X29196Y-51490D01*
X29168Y-51497D01*
X29146Y-51497D01*
X29118Y-51490D01*
X29103Y-51483D01*
X29089Y-51469D01*
X29082Y-51447D01*
X29082Y-51433D01*
X29089Y-51412D01*
X29096Y-51405D01*
X29146Y-51319D02*
X29139Y-51333D01*
X29132Y-51340D01*
X29118Y-51347D01*
X29111Y-51347D01*
X29096Y-51340D01*
X29089Y-51333D01*
X29082Y-51319D01*
X29082Y-51290D01*
X29089Y-51276D01*
X29096Y-51269D01*
X29111Y-51262D01*
X29118Y-51262D01*
X29132Y-51269D01*
X29139Y-51276D01*
X29146Y-51290D01*
X29146Y-51319D01*
X29153Y-51333D01*
X29161Y-51340D01*
X29175Y-51347D01*
X29203Y-51347D01*
X29218Y-51340D01*
X29225Y-51333D01*
X29232Y-51319D01*
X29232Y-51290D01*
X29225Y-51276D01*
X29218Y-51269D01*
X29203Y-51262D01*
X29175Y-51262D01*
X29161Y-51269D01*
X29153Y-51276D01*
X29146Y-51290D01*
X29355Y-37893D02*
X29363Y-37900D01*
X29370Y-37921D01*
X29370Y-37936D01*
X29363Y-37957D01*
X29348Y-37971D01*
X29334Y-37978D01*
X29305Y-37986D01*
X29284Y-37986D01*
X29255Y-37978D01*
X29241Y-37971D01*
X29227Y-37957D01*
X29220Y-37936D01*
X29220Y-37921D01*
X29227Y-37900D01*
X29234Y-37893D01*
X29220Y-37764D02*
X29220Y-37793D01*
X29227Y-37807D01*
X29234Y-37814D01*
X29255Y-37828D01*
X29284Y-37836D01*
X29341Y-37836D01*
X29355Y-37828D01*
X29363Y-37821D01*
X29370Y-37807D01*
X29370Y-37778D01*
X29363Y-37764D01*
X29355Y-37757D01*
X29341Y-37750D01*
X29305Y-37750D01*
X29291Y-37757D01*
X29284Y-37764D01*
X29277Y-37778D01*
X29277Y-37807D01*
X29284Y-37821D01*
X29291Y-37828D01*
X29305Y-37836D01*
X29178Y-31566D02*
X29185Y-31573D01*
X29193Y-31595D01*
X29193Y-31609D01*
X29185Y-31630D01*
X29171Y-31645D01*
X29157Y-31652D01*
X29128Y-31659D01*
X29107Y-31659D01*
X29078Y-31652D01*
X29064Y-31645D01*
X29050Y-31630D01*
X29043Y-31609D01*
X29043Y-31595D01*
X29050Y-31573D01*
X29057Y-31566D01*
X29043Y-31430D02*
X29043Y-31502D01*
X29114Y-31509D01*
X29107Y-31502D01*
X29100Y-31487D01*
X29100Y-31452D01*
X29107Y-31437D01*
X29114Y-31430D01*
X29128Y-31423D01*
X29164Y-31423D01*
X29178Y-31430D01*
X29185Y-31437D01*
X29193Y-31452D01*
X29193Y-31487D01*
X29185Y-31502D01*
X29178Y-31509D01*
X29067Y-54651D02*
X29060Y-54658D01*
X29038Y-54665D01*
X29024Y-54665D01*
X29003Y-54658D01*
X28988Y-54644D01*
X28981Y-54629D01*
X28974Y-54601D01*
X28974Y-54579D01*
X28981Y-54551D01*
X28988Y-54536D01*
X29003Y-54522D01*
X29024Y-54515D01*
X29038Y-54515D01*
X29060Y-54522D01*
X29067Y-54529D01*
X29195Y-54565D02*
X29195Y-54665D01*
X29160Y-54508D02*
X29124Y-54615D01*
X29217Y-54615D01*
X29496Y-47863D02*
X29489Y-47870D01*
X29467Y-47878D01*
X29453Y-47878D01*
X29432Y-47870D01*
X29417Y-47856D01*
X29410Y-47842D01*
X29403Y-47813D01*
X29403Y-47792D01*
X29410Y-47763D01*
X29417Y-47749D01*
X29432Y-47735D01*
X29453Y-47728D01*
X29467Y-47728D01*
X29489Y-47735D01*
X29496Y-47742D01*
X29546Y-47728D02*
X29639Y-47728D01*
X29589Y-47785D01*
X29610Y-47785D01*
X29625Y-47792D01*
X29632Y-47799D01*
X29639Y-47813D01*
X29639Y-47849D01*
X29632Y-47863D01*
X29625Y-47870D01*
X29610Y-47878D01*
X29567Y-47878D01*
X29553Y-47870D01*
X29546Y-47863D01*
X29027Y-34387D02*
X29020Y-34394D01*
X28999Y-34401D01*
X28985Y-34401D01*
X28963Y-34394D01*
X28949Y-34380D01*
X28942Y-34366D01*
X28935Y-34337D01*
X28935Y-34316D01*
X28942Y-34287D01*
X28949Y-34273D01*
X28963Y-34258D01*
X28985Y-34251D01*
X28999Y-34251D01*
X29020Y-34258D01*
X29027Y-34266D01*
X29170Y-34401D02*
X29085Y-34401D01*
X29127Y-34401D02*
X29127Y-34251D01*
X29113Y-34273D01*
X29099Y-34287D01*
X29085Y-34294D01*
X29193Y-40915D02*
X29186Y-40922D01*
X29164Y-40929D01*
X29150Y-40929D01*
X29129Y-40922D01*
X29114Y-40907D01*
X29107Y-40893D01*
X29100Y-40865D01*
X29100Y-40843D01*
X29107Y-40815D01*
X29114Y-40800D01*
X29129Y-40786D01*
X29150Y-40779D01*
X29164Y-40779D01*
X29186Y-40786D01*
X29193Y-40793D01*
X29250Y-40793D02*
X29257Y-40786D01*
X29271Y-40779D01*
X29307Y-40779D01*
X29321Y-40786D01*
X29329Y-40793D01*
X29336Y-40807D01*
X29336Y-40822D01*
X29329Y-40843D01*
X29243Y-40929D01*
X29336Y-40929D01*
G54D16*
X30647Y-29182D02*
X30647Y-29611D01*
X30618Y-29696D01*
X30561Y-29754D01*
X30476Y-29782D01*
X30418Y-29782D01*
X31247Y-29782D02*
X30904Y-29782D01*
X31076Y-29782D02*
X31076Y-29182D01*
X31018Y-29268D01*
X30961Y-29325D01*
X30904Y-29354D01*
G54D17*
X32782Y-38250D02*
X32782Y-38100D01*
X32818Y-38100D01*
X32840Y-38108D01*
X32854Y-38122D01*
X32861Y-38136D01*
X32868Y-38165D01*
X32868Y-38186D01*
X32861Y-38215D01*
X32854Y-38229D01*
X32840Y-38243D01*
X32818Y-38250D01*
X32782Y-38250D01*
X33011Y-38250D02*
X32925Y-38250D01*
X32968Y-38250D02*
X32968Y-38100D01*
X32954Y-38122D01*
X32940Y-38136D01*
X32925Y-38143D01*
X32901Y-45180D02*
X32901Y-45030D01*
X32936Y-45030D01*
X32958Y-45037D01*
X32972Y-45051D01*
X32979Y-45065D01*
X32986Y-45094D01*
X32986Y-45115D01*
X32979Y-45144D01*
X32972Y-45158D01*
X32958Y-45172D01*
X32936Y-45180D01*
X32901Y-45180D01*
X33043Y-45044D02*
X33051Y-45037D01*
X33065Y-45030D01*
X33101Y-45030D01*
X33115Y-45037D01*
X33122Y-45044D01*
X33129Y-45058D01*
X33129Y-45072D01*
X33122Y-45094D01*
X33036Y-45180D01*
X33129Y-45180D01*
X32574Y-31719D02*
X32574Y-31569D01*
X32610Y-31569D01*
X32631Y-31576D01*
X32645Y-31590D01*
X32652Y-31605D01*
X32660Y-31633D01*
X32660Y-31655D01*
X32652Y-31683D01*
X32645Y-31698D01*
X32631Y-31712D01*
X32610Y-31719D01*
X32574Y-31719D01*
X32710Y-31569D02*
X32802Y-31569D01*
X32752Y-31626D01*
X32774Y-31626D01*
X32788Y-31633D01*
X32795Y-31640D01*
X32802Y-31655D01*
X32802Y-31690D01*
X32795Y-31705D01*
X32788Y-31712D01*
X32774Y-31719D01*
X32731Y-31719D01*
X32717Y-31712D01*
X32710Y-31705D01*
X32857Y-51809D02*
X32857Y-51659D01*
X32893Y-51659D01*
X32914Y-51667D01*
X32929Y-51681D01*
X32936Y-51695D01*
X32943Y-51724D01*
X32943Y-51745D01*
X32936Y-51774D01*
X32929Y-51788D01*
X32914Y-51802D01*
X32893Y-51809D01*
X32857Y-51809D01*
X33072Y-51709D02*
X33072Y-51809D01*
X33036Y-51652D02*
X33000Y-51759D01*
X33093Y-51759D01*
G54D18*
X30154Y-51649D02*
X30154Y-51777D01*
X30159Y-51792D01*
X30165Y-51799D01*
X30176Y-51807D01*
X30199Y-51807D01*
X30210Y-51799D01*
X30215Y-51792D01*
X30221Y-51777D01*
X30221Y-51649D01*
X30328Y-51702D02*
X30328Y-51807D01*
X30300Y-51642D02*
X30272Y-51754D01*
X30345Y-51754D01*
G54D19*
X29536Y-53396D02*
X29536Y-53199D01*
X29602Y-53339D01*
X29667Y-53199D01*
X29667Y-53396D01*
X29874Y-53377D02*
X29864Y-53386D01*
X29836Y-53396D01*
X29817Y-53396D01*
X29789Y-53386D01*
X29770Y-53368D01*
X29761Y-53349D01*
X29752Y-53311D01*
X29752Y-53283D01*
X29761Y-53246D01*
X29770Y-53227D01*
X29789Y-53208D01*
X29817Y-53199D01*
X29836Y-53199D01*
X29864Y-53208D01*
X29874Y-53218D01*
X29958Y-53396D02*
X29958Y-53199D01*
X30033Y-53199D01*
X30052Y-53208D01*
X30061Y-53218D01*
X30070Y-53236D01*
X30070Y-53264D01*
X30061Y-53283D01*
X30052Y-53293D01*
X30033Y-53302D01*
X29958Y-53302D01*
X30136Y-53199D02*
X30267Y-53199D01*
X30183Y-53396D01*
X30323Y-53199D02*
X30445Y-53199D01*
X30380Y-53274D01*
X30408Y-53274D01*
X30427Y-53283D01*
X30436Y-53293D01*
X30445Y-53311D01*
X30445Y-53358D01*
X30436Y-53377D01*
X30427Y-53386D01*
X30408Y-53396D01*
X30352Y-53396D01*
X30333Y-53386D01*
X30323Y-53377D01*
X30633Y-53396D02*
X30520Y-53396D01*
X30577Y-53396D02*
X30577Y-53199D01*
X30558Y-53227D01*
X30539Y-53246D01*
X30520Y-53255D01*
X30820Y-53396D02*
X30708Y-53396D01*
X30764Y-53396D02*
X30764Y-53199D01*
X30745Y-53227D01*
X30727Y-53246D01*
X30708Y-53255D01*
X30886Y-53199D02*
X31008Y-53199D01*
X30942Y-53274D01*
X30970Y-53274D01*
X30989Y-53283D01*
X30998Y-53293D01*
X31008Y-53311D01*
X31008Y-53358D01*
X30998Y-53377D01*
X30989Y-53386D01*
X30970Y-53396D01*
X30914Y-53396D01*
X30895Y-53386D01*
X30886Y-53377D01*
G54D18*
X30154Y-31653D02*
X30154Y-31781D01*
X30159Y-31796D01*
X30165Y-31803D01*
X30176Y-31811D01*
X30199Y-31811D01*
X30210Y-31803D01*
X30215Y-31796D01*
X30221Y-31781D01*
X30221Y-31653D01*
X30339Y-31811D02*
X30272Y-31811D01*
X30305Y-31811D02*
X30305Y-31653D01*
X30294Y-31676D01*
X30283Y-31691D01*
X30272Y-31698D01*
G54D19*
X29536Y-33400D02*
X29536Y-33203D01*
X29602Y-33343D01*
X29667Y-33203D01*
X29667Y-33400D01*
X29874Y-33381D02*
X29864Y-33390D01*
X29836Y-33400D01*
X29817Y-33400D01*
X29789Y-33390D01*
X29770Y-33371D01*
X29761Y-33353D01*
X29752Y-33315D01*
X29752Y-33287D01*
X29761Y-33250D01*
X29770Y-33231D01*
X29789Y-33212D01*
X29817Y-33203D01*
X29836Y-33203D01*
X29864Y-33212D01*
X29874Y-33221D01*
X29958Y-33400D02*
X29958Y-33203D01*
X30033Y-33203D01*
X30052Y-33212D01*
X30061Y-33221D01*
X30070Y-33240D01*
X30070Y-33268D01*
X30061Y-33287D01*
X30052Y-33296D01*
X30033Y-33306D01*
X29958Y-33306D01*
X30136Y-33203D02*
X30267Y-33203D01*
X30183Y-33400D01*
X30323Y-33203D02*
X30445Y-33203D01*
X30380Y-33278D01*
X30408Y-33278D01*
X30427Y-33287D01*
X30436Y-33296D01*
X30445Y-33315D01*
X30445Y-33362D01*
X30436Y-33381D01*
X30427Y-33390D01*
X30408Y-33400D01*
X30352Y-33400D01*
X30333Y-33390D01*
X30323Y-33381D01*
X30633Y-33400D02*
X30520Y-33400D01*
X30577Y-33400D02*
X30577Y-33203D01*
X30558Y-33231D01*
X30539Y-33250D01*
X30520Y-33259D01*
X30820Y-33400D02*
X30708Y-33400D01*
X30764Y-33400D02*
X30764Y-33203D01*
X30745Y-33231D01*
X30727Y-33250D01*
X30708Y-33259D01*
X30886Y-33203D02*
X31008Y-33203D01*
X30942Y-33278D01*
X30970Y-33278D01*
X30989Y-33287D01*
X30998Y-33296D01*
X31008Y-33315D01*
X31008Y-33362D01*
X30998Y-33381D01*
X30989Y-33390D01*
X30970Y-33400D01*
X30914Y-33400D01*
X30895Y-33390D01*
X30886Y-33381D01*
G54D18*
X30154Y-37913D02*
X30154Y-38041D01*
X30159Y-38056D01*
X30165Y-38063D01*
X30176Y-38071D01*
X30199Y-38071D01*
X30210Y-38063D01*
X30215Y-38056D01*
X30221Y-38041D01*
X30221Y-37913D01*
X30272Y-37928D02*
X30277Y-37921D01*
X30289Y-37913D01*
X30317Y-37913D01*
X30328Y-37921D01*
X30334Y-37928D01*
X30339Y-37943D01*
X30339Y-37958D01*
X30334Y-37981D01*
X30266Y-38071D01*
X30339Y-38071D01*
G54D19*
X29536Y-39659D02*
X29536Y-39463D01*
X29602Y-39603D01*
X29667Y-39463D01*
X29667Y-39659D01*
X29874Y-39641D02*
X29864Y-39650D01*
X29836Y-39659D01*
X29817Y-39659D01*
X29789Y-39650D01*
X29770Y-39631D01*
X29761Y-39613D01*
X29752Y-39575D01*
X29752Y-39547D01*
X29761Y-39509D01*
X29770Y-39491D01*
X29789Y-39472D01*
X29817Y-39463D01*
X29836Y-39463D01*
X29864Y-39472D01*
X29874Y-39481D01*
X29958Y-39659D02*
X29958Y-39463D01*
X30033Y-39463D01*
X30052Y-39472D01*
X30061Y-39481D01*
X30070Y-39500D01*
X30070Y-39528D01*
X30061Y-39547D01*
X30052Y-39556D01*
X30033Y-39566D01*
X29958Y-39566D01*
X30136Y-39463D02*
X30267Y-39463D01*
X30183Y-39659D01*
X30323Y-39463D02*
X30445Y-39463D01*
X30380Y-39538D01*
X30408Y-39538D01*
X30427Y-39547D01*
X30436Y-39556D01*
X30445Y-39575D01*
X30445Y-39622D01*
X30436Y-39641D01*
X30427Y-39650D01*
X30408Y-39659D01*
X30352Y-39659D01*
X30333Y-39650D01*
X30323Y-39641D01*
X30633Y-39659D02*
X30520Y-39659D01*
X30577Y-39659D02*
X30577Y-39463D01*
X30558Y-39491D01*
X30539Y-39509D01*
X30520Y-39519D01*
X30820Y-39659D02*
X30708Y-39659D01*
X30764Y-39659D02*
X30764Y-39463D01*
X30745Y-39491D01*
X30727Y-39509D01*
X30708Y-39519D01*
X30886Y-39463D02*
X31008Y-39463D01*
X30942Y-39538D01*
X30970Y-39538D01*
X30989Y-39547D01*
X30998Y-39556D01*
X31008Y-39575D01*
X31008Y-39622D01*
X30998Y-39641D01*
X30989Y-39650D01*
X30970Y-39659D01*
X30914Y-39659D01*
X30895Y-39650D01*
X30886Y-39641D01*
G54D18*
X30154Y-44752D02*
X30154Y-44879D01*
X30159Y-44894D01*
X30165Y-44902D01*
X30176Y-44909D01*
X30199Y-44909D01*
X30210Y-44902D01*
X30215Y-44894D01*
X30221Y-44879D01*
X30221Y-44752D01*
X30266Y-44752D02*
X30339Y-44752D01*
X30300Y-44812D01*
X30317Y-44812D01*
X30328Y-44819D01*
X30334Y-44827D01*
X30339Y-44842D01*
X30339Y-44879D01*
X30334Y-44894D01*
X30328Y-44902D01*
X30317Y-44909D01*
X30283Y-44909D01*
X30272Y-44902D01*
X30266Y-44894D01*
G54D19*
X29536Y-46498D02*
X29536Y-46301D01*
X29602Y-46442D01*
X29667Y-46301D01*
X29667Y-46498D01*
X29874Y-46479D02*
X29864Y-46489D01*
X29836Y-46498D01*
X29817Y-46498D01*
X29789Y-46489D01*
X29770Y-46470D01*
X29761Y-46451D01*
X29752Y-46414D01*
X29752Y-46386D01*
X29761Y-46348D01*
X29770Y-46329D01*
X29789Y-46311D01*
X29817Y-46301D01*
X29836Y-46301D01*
X29864Y-46311D01*
X29874Y-46320D01*
X29958Y-46498D02*
X29958Y-46301D01*
X30033Y-46301D01*
X30052Y-46311D01*
X30061Y-46320D01*
X30070Y-46339D01*
X30070Y-46367D01*
X30061Y-46386D01*
X30052Y-46395D01*
X30033Y-46404D01*
X29958Y-46404D01*
X30136Y-46301D02*
X30267Y-46301D01*
X30183Y-46498D01*
X30323Y-46301D02*
X30445Y-46301D01*
X30380Y-46376D01*
X30408Y-46376D01*
X30427Y-46386D01*
X30436Y-46395D01*
X30445Y-46414D01*
X30445Y-46461D01*
X30436Y-46479D01*
X30427Y-46489D01*
X30408Y-46498D01*
X30352Y-46498D01*
X30333Y-46489D01*
X30323Y-46479D01*
X30633Y-46498D02*
X30520Y-46498D01*
X30577Y-46498D02*
X30577Y-46301D01*
X30558Y-46329D01*
X30539Y-46348D01*
X30520Y-46357D01*
X30820Y-46498D02*
X30708Y-46498D01*
X30764Y-46498D02*
X30764Y-46301D01*
X30745Y-46329D01*
X30727Y-46348D01*
X30708Y-46357D01*
X30886Y-46301D02*
X31008Y-46301D01*
X30942Y-46376D01*
X30970Y-46376D01*
X30989Y-46386D01*
X30998Y-46395D01*
X31008Y-46414D01*
X31008Y-46461D01*
X30998Y-46479D01*
X30989Y-46489D01*
X30970Y-46498D01*
X30914Y-46498D01*
X30895Y-46489D01*
X30886Y-46479D01*
M02*
