G04 (created by PCBNEW (2013-08-24 BZR 4298)-stable) date Sat 07 Jun 2014 09:10:14 PM PDT*
%MOIN*%
G04 Gerber Fmt 3.4, Leading zero omitted, Abs format*
%FSLAX34Y34*%
G01*
G70*
G90*
G04 APERTURE LIST*
%ADD10C,0.005906*%
%ADD11C,0.011811*%
%ADD12R,0.220472X0.090551*%
%ADD13R,0.133858X0.055118*%
%ADD14R,0.035000X0.055000*%
%ADD15R,0.250000X0.029921*%
%ADD16C,0.127953*%
%ADD17R,0.082677X0.082677*%
%ADD18R,0.013780X0.039370*%
%ADD19R,0.039370X0.013780*%
%ADD20C,0.019685*%
%ADD21R,0.035400X0.039400*%
%ADD22R,0.039400X0.035400*%
%ADD23C,0.027559*%
%ADD24C,0.015748*%
%ADD25C,0.013780*%
%ADD26C,0.009843*%
G04 APERTURE END LIST*
G54D10*
G54D11*
X45711Y-49755D02*
X45711Y-49164D01*
X45908Y-49586D01*
X46105Y-49164D01*
X46105Y-49755D01*
X46498Y-49164D02*
X46611Y-49164D01*
X46667Y-49192D01*
X46723Y-49249D01*
X46751Y-49361D01*
X46751Y-49558D01*
X46723Y-49670D01*
X46667Y-49727D01*
X46611Y-49755D01*
X46498Y-49755D01*
X46442Y-49727D01*
X46386Y-49670D01*
X46358Y-49558D01*
X46358Y-49361D01*
X46386Y-49249D01*
X46442Y-49192D01*
X46498Y-49164D01*
X46920Y-49164D02*
X47258Y-49164D01*
X47089Y-49755D02*
X47089Y-49164D01*
X47567Y-49164D02*
X47679Y-49164D01*
X47736Y-49192D01*
X47792Y-49249D01*
X47820Y-49361D01*
X47820Y-49558D01*
X47792Y-49670D01*
X47736Y-49727D01*
X47679Y-49755D01*
X47567Y-49755D01*
X47511Y-49727D01*
X47455Y-49670D01*
X47426Y-49558D01*
X47426Y-49361D01*
X47455Y-49249D01*
X47511Y-49192D01*
X47567Y-49164D01*
X48411Y-49755D02*
X48214Y-49474D01*
X48073Y-49755D02*
X48073Y-49164D01*
X48298Y-49164D01*
X48354Y-49192D01*
X48383Y-49221D01*
X48411Y-49277D01*
X48411Y-49361D01*
X48383Y-49417D01*
X48354Y-49446D01*
X48298Y-49474D01*
X48073Y-49474D01*
X65002Y-49755D02*
X65002Y-49164D01*
X65199Y-49586D01*
X65396Y-49164D01*
X65396Y-49755D01*
X65790Y-49164D02*
X65902Y-49164D01*
X65958Y-49192D01*
X66015Y-49249D01*
X66043Y-49361D01*
X66043Y-49558D01*
X66015Y-49670D01*
X65958Y-49727D01*
X65902Y-49755D01*
X65790Y-49755D01*
X65733Y-49727D01*
X65677Y-49670D01*
X65649Y-49558D01*
X65649Y-49361D01*
X65677Y-49249D01*
X65733Y-49192D01*
X65790Y-49164D01*
X66212Y-49164D02*
X66549Y-49164D01*
X66380Y-49755D02*
X66380Y-49164D01*
X66858Y-49164D02*
X66971Y-49164D01*
X67027Y-49192D01*
X67083Y-49249D01*
X67111Y-49361D01*
X67111Y-49558D01*
X67083Y-49670D01*
X67027Y-49727D01*
X66971Y-49755D01*
X66858Y-49755D01*
X66802Y-49727D01*
X66746Y-49670D01*
X66718Y-49558D01*
X66718Y-49361D01*
X66746Y-49249D01*
X66802Y-49192D01*
X66858Y-49164D01*
X67702Y-49755D02*
X67505Y-49474D01*
X67365Y-49755D02*
X67365Y-49164D01*
X67589Y-49164D01*
X67646Y-49192D01*
X67674Y-49221D01*
X67702Y-49277D01*
X67702Y-49361D01*
X67674Y-49417D01*
X67646Y-49446D01*
X67589Y-49474D01*
X67365Y-49474D01*
X65002Y-37944D02*
X65002Y-37353D01*
X65199Y-37775D01*
X65396Y-37353D01*
X65396Y-37944D01*
X65790Y-37353D02*
X65902Y-37353D01*
X65958Y-37381D01*
X66015Y-37438D01*
X66043Y-37550D01*
X66043Y-37747D01*
X66015Y-37859D01*
X65958Y-37916D01*
X65902Y-37944D01*
X65790Y-37944D01*
X65733Y-37916D01*
X65677Y-37859D01*
X65649Y-37747D01*
X65649Y-37550D01*
X65677Y-37438D01*
X65733Y-37381D01*
X65790Y-37353D01*
X66212Y-37353D02*
X66549Y-37353D01*
X66380Y-37944D02*
X66380Y-37353D01*
X66858Y-37353D02*
X66971Y-37353D01*
X67027Y-37381D01*
X67083Y-37438D01*
X67111Y-37550D01*
X67111Y-37747D01*
X67083Y-37859D01*
X67027Y-37916D01*
X66971Y-37944D01*
X66858Y-37944D01*
X66802Y-37916D01*
X66746Y-37859D01*
X66718Y-37747D01*
X66718Y-37550D01*
X66746Y-37438D01*
X66802Y-37381D01*
X66858Y-37353D01*
X67702Y-37944D02*
X67505Y-37663D01*
X67365Y-37944D02*
X67365Y-37353D01*
X67589Y-37353D01*
X67646Y-37381D01*
X67674Y-37410D01*
X67702Y-37466D01*
X67702Y-37550D01*
X67674Y-37606D01*
X67646Y-37634D01*
X67589Y-37663D01*
X67365Y-37663D01*
X45711Y-37944D02*
X45711Y-37353D01*
X45908Y-37775D01*
X46105Y-37353D01*
X46105Y-37944D01*
X46498Y-37353D02*
X46611Y-37353D01*
X46667Y-37381D01*
X46723Y-37438D01*
X46751Y-37550D01*
X46751Y-37747D01*
X46723Y-37859D01*
X46667Y-37916D01*
X46611Y-37944D01*
X46498Y-37944D01*
X46442Y-37916D01*
X46386Y-37859D01*
X46358Y-37747D01*
X46358Y-37550D01*
X46386Y-37438D01*
X46442Y-37381D01*
X46498Y-37353D01*
X46920Y-37353D02*
X47258Y-37353D01*
X47089Y-37944D02*
X47089Y-37353D01*
X47567Y-37353D02*
X47679Y-37353D01*
X47736Y-37381D01*
X47792Y-37438D01*
X47820Y-37550D01*
X47820Y-37747D01*
X47792Y-37859D01*
X47736Y-37916D01*
X47679Y-37944D01*
X47567Y-37944D01*
X47511Y-37916D01*
X47455Y-37859D01*
X47426Y-37747D01*
X47426Y-37550D01*
X47455Y-37438D01*
X47511Y-37381D01*
X47567Y-37353D01*
X48411Y-37944D02*
X48214Y-37663D01*
X48073Y-37944D02*
X48073Y-37353D01*
X48298Y-37353D01*
X48354Y-37381D01*
X48383Y-37410D01*
X48411Y-37466D01*
X48411Y-37550D01*
X48383Y-37606D01*
X48354Y-37634D01*
X48298Y-37663D01*
X48073Y-37663D01*
G54D12*
X47007Y-53877D03*
G54D13*
X49606Y-51870D03*
X49606Y-52854D03*
G54D12*
X47007Y-50846D03*
X61141Y-51437D03*
G54D13*
X58543Y-53444D03*
X58543Y-52460D03*
G54D12*
X61141Y-54468D03*
G54D14*
X52067Y-52135D03*
X51317Y-52135D03*
G54D15*
X56801Y-48494D03*
X56801Y-47494D03*
X56801Y-46494D03*
X56801Y-46994D03*
X56801Y-45994D03*
G54D16*
X60826Y-45244D03*
X60826Y-49244D03*
G54D15*
X56801Y-47994D03*
G54D17*
X54330Y-51771D03*
G54D18*
X54714Y-51023D03*
X54458Y-51023D03*
X54202Y-51023D03*
X53946Y-51023D03*
G54D19*
X53582Y-51387D03*
X53582Y-51643D03*
X53582Y-51899D03*
X53582Y-52155D03*
G54D18*
X53946Y-52519D03*
X54202Y-52519D03*
X54458Y-52519D03*
X54714Y-52519D03*
G54D19*
X55078Y-52155D03*
X55078Y-51899D03*
X55078Y-51643D03*
X55078Y-51387D03*
G54D20*
X54330Y-51771D03*
X54557Y-51998D03*
X54557Y-51545D03*
X54104Y-51998D03*
X54104Y-51545D03*
G54D21*
X51298Y-52962D03*
X51890Y-52962D03*
X56308Y-52598D03*
X56900Y-52598D03*
X56308Y-51840D03*
X56900Y-51840D03*
G54D22*
X51842Y-49032D03*
X51842Y-48440D03*
G54D21*
X54015Y-53651D03*
X54607Y-53651D03*
G54D22*
X50570Y-49555D03*
X50570Y-48963D03*
X52996Y-48294D03*
X52996Y-48886D03*
X55881Y-50626D03*
X55881Y-50034D03*
X75173Y-50626D03*
X75173Y-50034D03*
X72287Y-48294D03*
X72287Y-48886D03*
X69862Y-49555D03*
X69862Y-48963D03*
G54D21*
X73306Y-53651D03*
X73898Y-53651D03*
G54D22*
X71133Y-49032D03*
X71133Y-48440D03*
G54D21*
X75599Y-51840D03*
X76191Y-51840D03*
X75599Y-52598D03*
X76191Y-52598D03*
X70589Y-52962D03*
X71181Y-52962D03*
G54D17*
X73622Y-51771D03*
G54D18*
X74005Y-51023D03*
X73750Y-51023D03*
X73494Y-51023D03*
X73238Y-51023D03*
G54D19*
X72874Y-51387D03*
X72874Y-51643D03*
X72874Y-51899D03*
X72874Y-52155D03*
G54D18*
X73238Y-52519D03*
X73494Y-52519D03*
X73750Y-52519D03*
X74005Y-52519D03*
G54D19*
X74370Y-52155D03*
X74370Y-51899D03*
X74370Y-51643D03*
X74370Y-51387D03*
G54D20*
X73622Y-51771D03*
X73848Y-51998D03*
X73848Y-51545D03*
X73395Y-51998D03*
X73395Y-51545D03*
G54D15*
X76092Y-48494D03*
X76092Y-47494D03*
X76092Y-46494D03*
X76092Y-46994D03*
X76092Y-45994D03*
G54D16*
X80118Y-45244D03*
X80118Y-49244D03*
G54D15*
X76092Y-47994D03*
G54D14*
X71359Y-52135D03*
X70609Y-52135D03*
G54D12*
X80433Y-51437D03*
G54D13*
X77834Y-53444D03*
X77834Y-52460D03*
G54D12*
X80433Y-54468D03*
X66299Y-53877D03*
G54D13*
X68897Y-51870D03*
X68897Y-52854D03*
G54D12*
X66299Y-50846D03*
X66299Y-42066D03*
G54D13*
X68897Y-40059D03*
X68897Y-41043D03*
G54D12*
X66299Y-39035D03*
X80433Y-39625D03*
G54D13*
X77834Y-41633D03*
X77834Y-40649D03*
G54D12*
X80433Y-42657D03*
G54D14*
X71359Y-40324D03*
X70609Y-40324D03*
G54D15*
X76092Y-36683D03*
X76092Y-35683D03*
X76092Y-34683D03*
X76092Y-35183D03*
X76092Y-34183D03*
G54D16*
X80118Y-33433D03*
X80118Y-37433D03*
G54D15*
X76092Y-36183D03*
G54D17*
X73622Y-39960D03*
G54D18*
X74005Y-39212D03*
X73750Y-39212D03*
X73494Y-39212D03*
X73238Y-39212D03*
G54D19*
X72874Y-39576D03*
X72874Y-39832D03*
X72874Y-40088D03*
X72874Y-40344D03*
G54D18*
X73238Y-40708D03*
X73494Y-40708D03*
X73750Y-40708D03*
X74005Y-40708D03*
G54D19*
X74370Y-40344D03*
X74370Y-40088D03*
X74370Y-39832D03*
X74370Y-39576D03*
G54D20*
X73622Y-39960D03*
X73848Y-40187D03*
X73848Y-39734D03*
X73395Y-40187D03*
X73395Y-39734D03*
G54D21*
X70589Y-41151D03*
X71181Y-41151D03*
X75599Y-40787D03*
X76191Y-40787D03*
X75599Y-40029D03*
X76191Y-40029D03*
G54D22*
X71133Y-37221D03*
X71133Y-36629D03*
G54D21*
X73306Y-41840D03*
X73898Y-41840D03*
G54D22*
X69862Y-37744D03*
X69862Y-37152D03*
X72287Y-36483D03*
X72287Y-37075D03*
X75173Y-38815D03*
X75173Y-38223D03*
X55881Y-38815D03*
X55881Y-38223D03*
X52996Y-36483D03*
X52996Y-37075D03*
X50570Y-37744D03*
X50570Y-37152D03*
G54D21*
X54015Y-41840D03*
X54607Y-41840D03*
G54D22*
X51842Y-37221D03*
X51842Y-36629D03*
G54D21*
X56308Y-40029D03*
X56900Y-40029D03*
X56308Y-40787D03*
X56900Y-40787D03*
X51298Y-41151D03*
X51890Y-41151D03*
G54D17*
X54330Y-39960D03*
G54D18*
X54714Y-39212D03*
X54458Y-39212D03*
X54202Y-39212D03*
X53946Y-39212D03*
G54D19*
X53582Y-39576D03*
X53582Y-39832D03*
X53582Y-40088D03*
X53582Y-40344D03*
G54D18*
X53946Y-40708D03*
X54202Y-40708D03*
X54458Y-40708D03*
X54714Y-40708D03*
G54D19*
X55078Y-40344D03*
X55078Y-40088D03*
X55078Y-39832D03*
X55078Y-39576D03*
G54D20*
X54330Y-39960D03*
X54557Y-40187D03*
X54557Y-39734D03*
X54104Y-40187D03*
X54104Y-39734D03*
G54D15*
X56801Y-36683D03*
X56801Y-35683D03*
X56801Y-34683D03*
X56801Y-35183D03*
X56801Y-34183D03*
G54D16*
X60826Y-33433D03*
X60826Y-37433D03*
G54D15*
X56801Y-36183D03*
G54D14*
X52067Y-40324D03*
X51317Y-40324D03*
G54D12*
X61141Y-39625D03*
G54D13*
X58543Y-41633D03*
X58543Y-40649D03*
G54D12*
X61141Y-42657D03*
X47007Y-42066D03*
G54D13*
X49606Y-40059D03*
X49606Y-41043D03*
G54D12*
X47007Y-39035D03*
G54D23*
X52086Y-51417D03*
X54511Y-48251D03*
X73803Y-48251D03*
X71377Y-51417D03*
X71377Y-39606D03*
X73803Y-36440D03*
X54511Y-36440D03*
X52086Y-39606D03*
X51377Y-51387D03*
X53980Y-49590D03*
X56055Y-49161D03*
X57874Y-51574D03*
X55433Y-52972D03*
X74724Y-52972D03*
X77165Y-51574D03*
X75346Y-49161D03*
X73271Y-49590D03*
X70669Y-51387D03*
X70669Y-39576D03*
X73271Y-37779D03*
X75346Y-37350D03*
X77165Y-39763D03*
X74724Y-41161D03*
X55433Y-41161D03*
X57874Y-39763D03*
X56055Y-37350D03*
X53980Y-37779D03*
X51377Y-39576D03*
X54208Y-47452D03*
X50720Y-47590D03*
X70011Y-47590D03*
X73500Y-47452D03*
X73500Y-35641D03*
X70011Y-35779D03*
X50720Y-35779D03*
X54208Y-35641D03*
X56850Y-51062D03*
X55574Y-44901D03*
X74866Y-44901D03*
X76141Y-51062D03*
X76141Y-39251D03*
X74866Y-33090D03*
X55574Y-33090D03*
X56850Y-39251D03*
X51417Y-53986D03*
X53159Y-54458D03*
X72450Y-54458D03*
X70708Y-53986D03*
X70708Y-42175D03*
X72450Y-42647D03*
X53159Y-42647D03*
X51417Y-42175D03*
G54D24*
X52086Y-51417D02*
X52086Y-51417D01*
G54D25*
X53031Y-51903D02*
X52106Y-52165D01*
X53582Y-51899D02*
X53031Y-51903D01*
X52086Y-51417D02*
X52106Y-52165D01*
G54D24*
X54568Y-48194D02*
X54511Y-48251D01*
X54870Y-48009D02*
X54568Y-48194D01*
X56801Y-47994D02*
X54870Y-48009D01*
X76092Y-47994D02*
X74161Y-48009D01*
X74161Y-48009D02*
X73860Y-48194D01*
X73860Y-48194D02*
X73803Y-48251D01*
G54D25*
X71377Y-51417D02*
X71397Y-52165D01*
X72874Y-51899D02*
X72322Y-51903D01*
X72322Y-51903D02*
X71397Y-52165D01*
G54D24*
X71377Y-51417D02*
X71377Y-51417D01*
X71377Y-39606D02*
X71377Y-39606D01*
G54D25*
X72322Y-40092D02*
X71397Y-40354D01*
X72874Y-40088D02*
X72322Y-40092D01*
X71377Y-39606D02*
X71397Y-40354D01*
G54D24*
X73860Y-36383D02*
X73803Y-36440D01*
X74161Y-36198D02*
X73860Y-36383D01*
X76092Y-36183D02*
X74161Y-36198D01*
X56801Y-36183D02*
X54870Y-36198D01*
X54870Y-36198D02*
X54568Y-36383D01*
X54568Y-36383D02*
X54511Y-36440D01*
G54D25*
X52086Y-39606D02*
X52106Y-40354D01*
X53582Y-40088D02*
X53031Y-40092D01*
X53031Y-40092D02*
X52106Y-40354D01*
G54D24*
X52086Y-39606D02*
X52086Y-39606D01*
X51318Y-52215D02*
X51377Y-52155D01*
X51298Y-52962D02*
X51318Y-52215D01*
X51387Y-51328D02*
X51377Y-51387D01*
X51377Y-52155D02*
X51387Y-51328D01*
G54D25*
X54724Y-50196D02*
X53980Y-49590D01*
X54458Y-50610D02*
X54724Y-50196D01*
X54458Y-51023D02*
X54458Y-50610D01*
G54D24*
X55553Y-48494D02*
X55559Y-48500D01*
X55559Y-48500D02*
X55559Y-48665D01*
X55559Y-48665D02*
X56055Y-49161D01*
X56801Y-48494D02*
X55553Y-48494D01*
X58543Y-52244D02*
X57874Y-51574D01*
X58543Y-52460D02*
X58543Y-52244D01*
G54D25*
X54960Y-52519D02*
X55433Y-52972D01*
X54714Y-52519D02*
X54960Y-52519D01*
X74005Y-52519D02*
X74251Y-52519D01*
X74251Y-52519D02*
X74724Y-52972D01*
G54D24*
X77834Y-52460D02*
X77834Y-52244D01*
X77834Y-52244D02*
X77165Y-51574D01*
X76092Y-48494D02*
X74844Y-48494D01*
X74850Y-48665D02*
X75346Y-49161D01*
X74850Y-48500D02*
X74850Y-48665D01*
X74844Y-48494D02*
X74850Y-48500D01*
G54D25*
X73750Y-51023D02*
X73750Y-50610D01*
X73750Y-50610D02*
X74015Y-50196D01*
X74015Y-50196D02*
X73271Y-49590D01*
G54D24*
X70669Y-52155D02*
X70679Y-51328D01*
X70679Y-51328D02*
X70669Y-51387D01*
X70589Y-52962D02*
X70609Y-52215D01*
X70609Y-52215D02*
X70669Y-52155D01*
X70609Y-40404D02*
X70669Y-40344D01*
X70589Y-41151D02*
X70609Y-40404D01*
X70679Y-39517D02*
X70669Y-39576D01*
X70669Y-40344D02*
X70679Y-39517D01*
G54D25*
X74015Y-38385D02*
X73271Y-37779D01*
X73750Y-38799D02*
X74015Y-38385D01*
X73750Y-39212D02*
X73750Y-38799D01*
G54D24*
X74844Y-36683D02*
X74850Y-36688D01*
X74850Y-36688D02*
X74850Y-36854D01*
X74850Y-36854D02*
X75346Y-37350D01*
X76092Y-36683D02*
X74844Y-36683D01*
X77834Y-40433D02*
X77165Y-39763D01*
X77834Y-40649D02*
X77834Y-40433D01*
G54D25*
X74251Y-40708D02*
X74724Y-41161D01*
X74005Y-40708D02*
X74251Y-40708D01*
X54714Y-40708D02*
X54960Y-40708D01*
X54960Y-40708D02*
X55433Y-41161D01*
G54D24*
X58543Y-40649D02*
X58543Y-40433D01*
X58543Y-40433D02*
X57874Y-39763D01*
X56801Y-36683D02*
X55553Y-36683D01*
X55559Y-36854D02*
X56055Y-37350D01*
X55559Y-36688D02*
X55559Y-36854D01*
X55553Y-36683D02*
X55559Y-36688D01*
G54D25*
X54458Y-39212D02*
X54458Y-38799D01*
X54458Y-38799D02*
X54724Y-38385D01*
X54724Y-38385D02*
X53980Y-37779D01*
G54D24*
X51377Y-40344D02*
X51387Y-39517D01*
X51387Y-39517D02*
X51377Y-39576D01*
X51298Y-41151D02*
X51318Y-40404D01*
X51318Y-40404D02*
X51377Y-40344D01*
G54D25*
X55610Y-51387D02*
X55885Y-51112D01*
X55885Y-51112D02*
X55881Y-50626D01*
X55078Y-51387D02*
X55610Y-51387D01*
X74370Y-51387D02*
X74901Y-51387D01*
X75177Y-51112D02*
X75173Y-50626D01*
X74901Y-51387D02*
X75177Y-51112D01*
X74901Y-39576D02*
X75177Y-39301D01*
X75177Y-39301D02*
X75173Y-38815D01*
X74370Y-39576D02*
X74901Y-39576D01*
X55078Y-39576D02*
X55610Y-39576D01*
X55885Y-39301D02*
X55881Y-38815D01*
X55610Y-39576D02*
X55885Y-39301D01*
G54D24*
X51102Y-50795D02*
X51071Y-50795D01*
G54D25*
X52519Y-50787D02*
X51102Y-50795D01*
X53267Y-51633D02*
X52519Y-50787D01*
X53582Y-51643D02*
X53267Y-51633D01*
G54D24*
X50201Y-51067D02*
X49606Y-51870D01*
X50474Y-50795D02*
X50201Y-51067D01*
X51102Y-50795D02*
X50474Y-50795D01*
X70393Y-50795D02*
X69765Y-50795D01*
X69765Y-50795D02*
X69493Y-51067D01*
X69493Y-51067D02*
X68897Y-51870D01*
G54D25*
X72874Y-51643D02*
X72559Y-51633D01*
X72559Y-51633D02*
X71811Y-50787D01*
X71811Y-50787D02*
X70393Y-50795D01*
G54D24*
X70393Y-50795D02*
X70363Y-50795D01*
X70393Y-38984D02*
X70363Y-38984D01*
G54D25*
X71811Y-38976D02*
X70393Y-38984D01*
X72559Y-39822D02*
X71811Y-38976D01*
X72874Y-39832D02*
X72559Y-39822D01*
G54D24*
X69493Y-39256D02*
X68897Y-40059D01*
X69765Y-38984D02*
X69493Y-39256D01*
X70393Y-38984D02*
X69765Y-38984D01*
X51102Y-38984D02*
X50474Y-38984D01*
X50474Y-38984D02*
X50201Y-39256D01*
X50201Y-39256D02*
X49606Y-40059D01*
G54D25*
X53582Y-39832D02*
X53267Y-39822D01*
X53267Y-39822D02*
X52519Y-38976D01*
X52519Y-38976D02*
X51102Y-38984D01*
G54D24*
X51102Y-38984D02*
X51071Y-38984D01*
X53946Y-52519D02*
X53946Y-52549D01*
G54D25*
X50629Y-54566D02*
X49881Y-53070D01*
X49881Y-53070D02*
X49606Y-52854D01*
X53946Y-52519D02*
X53946Y-52627D01*
X53946Y-52627D02*
X51701Y-54566D01*
X51701Y-54566D02*
X50629Y-54566D01*
X70992Y-54566D02*
X69920Y-54566D01*
X73238Y-52627D02*
X70992Y-54566D01*
X73238Y-52519D02*
X73238Y-52627D01*
X69173Y-53070D02*
X68897Y-52854D01*
X69920Y-54566D02*
X69173Y-53070D01*
G54D24*
X73238Y-52519D02*
X73238Y-52549D01*
X73238Y-40708D02*
X73238Y-40738D01*
G54D25*
X69920Y-42755D02*
X69173Y-41259D01*
X69173Y-41259D02*
X68897Y-41043D01*
X73238Y-40708D02*
X73238Y-40816D01*
X73238Y-40816D02*
X70992Y-42755D01*
X70992Y-42755D02*
X69920Y-42755D01*
X51701Y-42755D02*
X50629Y-42755D01*
X53946Y-40816D02*
X51701Y-42755D01*
X53946Y-40708D02*
X53946Y-40816D01*
X49881Y-41259D02*
X49606Y-41043D01*
X50629Y-42755D02*
X49881Y-41259D01*
G54D24*
X53946Y-40708D02*
X53946Y-40738D01*
X53421Y-46429D02*
X54187Y-46494D01*
X52877Y-46988D02*
X52996Y-48294D01*
X56801Y-46494D02*
X54187Y-46494D01*
X52877Y-46988D02*
X53421Y-46429D01*
X72169Y-46988D02*
X72712Y-46429D01*
X76092Y-46494D02*
X73478Y-46494D01*
X72169Y-46988D02*
X72287Y-48294D01*
X72712Y-46429D02*
X73478Y-46494D01*
X72712Y-34618D02*
X73478Y-34683D01*
X72169Y-35177D02*
X72287Y-36483D01*
X76092Y-34683D02*
X73478Y-34683D01*
X72169Y-35177D02*
X72712Y-34618D01*
X52877Y-35177D02*
X53421Y-34618D01*
X56801Y-34683D02*
X54187Y-34683D01*
X52877Y-35177D02*
X52996Y-36483D01*
X53421Y-34618D02*
X54187Y-34683D01*
X54222Y-47466D02*
X54208Y-47452D01*
X50570Y-48963D02*
X50570Y-48963D01*
X50570Y-48963D02*
X50720Y-47590D01*
X56801Y-47494D02*
X54222Y-47466D01*
X76092Y-47494D02*
X73513Y-47466D01*
X69861Y-48963D02*
X70011Y-47590D01*
X69861Y-48963D02*
X69862Y-48963D01*
X73513Y-47466D02*
X73500Y-47452D01*
X73513Y-35655D02*
X73500Y-35641D01*
X69861Y-37152D02*
X69862Y-37152D01*
X69861Y-37152D02*
X70011Y-35779D01*
X76092Y-35683D02*
X73513Y-35655D01*
X56801Y-35683D02*
X54222Y-35655D01*
X50570Y-37152D02*
X50720Y-35779D01*
X50570Y-37152D02*
X50570Y-37152D01*
X54222Y-35655D02*
X54208Y-35641D01*
X55881Y-49803D02*
X54811Y-48937D01*
X53744Y-48574D02*
X53409Y-47366D01*
X54811Y-48937D02*
X53744Y-48574D01*
X53716Y-46984D02*
X54807Y-46988D01*
X53409Y-47366D02*
X53716Y-46984D01*
X54807Y-46988D02*
X56801Y-46994D01*
X55881Y-50034D02*
X55881Y-49803D01*
X75173Y-50034D02*
X75173Y-49803D01*
X74098Y-46988D02*
X76092Y-46994D01*
X72700Y-47366D02*
X73007Y-46984D01*
X73007Y-46984D02*
X74098Y-46988D01*
X74102Y-48937D02*
X73035Y-48574D01*
X73035Y-48574D02*
X72700Y-47366D01*
X75173Y-49803D02*
X74102Y-48937D01*
X75173Y-37992D02*
X74102Y-37125D01*
X73035Y-36763D02*
X72700Y-35555D01*
X74102Y-37125D02*
X73035Y-36763D01*
X73007Y-35173D02*
X74098Y-35177D01*
X72700Y-35555D02*
X73007Y-35173D01*
X74098Y-35177D02*
X76092Y-35183D01*
X75173Y-38223D02*
X75173Y-37992D01*
X55881Y-38223D02*
X55881Y-37992D01*
X54807Y-35177D02*
X56801Y-35183D01*
X53409Y-35555D02*
X53716Y-35173D01*
X53716Y-35173D02*
X54807Y-35177D01*
X54811Y-37125D02*
X53744Y-36763D01*
X53744Y-36763D02*
X53409Y-35555D01*
X55881Y-37992D02*
X54811Y-37125D01*
G54D25*
X54458Y-53001D02*
X54607Y-53150D01*
X54607Y-53150D02*
X54607Y-53651D01*
X54458Y-52519D02*
X54458Y-53001D01*
X73750Y-52519D02*
X73750Y-53001D01*
X73898Y-53150D02*
X73898Y-53651D01*
X73750Y-53001D02*
X73898Y-53150D01*
X73750Y-41190D02*
X73898Y-41339D01*
X73898Y-41339D02*
X73898Y-41840D01*
X73750Y-40708D02*
X73750Y-41190D01*
X54458Y-40708D02*
X54458Y-41190D01*
X54607Y-41339D02*
X54607Y-41840D01*
X54458Y-41190D02*
X54607Y-41339D01*
X54202Y-52874D02*
X54015Y-53061D01*
X54015Y-53061D02*
X54015Y-53651D01*
X54202Y-52519D02*
X54202Y-52874D01*
X73494Y-52519D02*
X73494Y-52874D01*
X73306Y-53061D02*
X73306Y-53651D01*
X73494Y-52874D02*
X73306Y-53061D01*
X73494Y-41062D02*
X73306Y-41250D01*
X73306Y-41250D02*
X73306Y-41840D01*
X73494Y-40708D02*
X73494Y-41062D01*
X54202Y-40708D02*
X54202Y-41062D01*
X54015Y-41250D02*
X54015Y-41840D01*
X54202Y-41062D02*
X54015Y-41250D01*
X55482Y-52155D02*
X55925Y-52598D01*
X55925Y-52598D02*
X56308Y-52598D01*
X55078Y-52155D02*
X55482Y-52155D01*
X74370Y-52155D02*
X74773Y-52155D01*
X75216Y-52598D02*
X75599Y-52598D01*
X74773Y-52155D02*
X75216Y-52598D01*
X74773Y-40344D02*
X75216Y-40787D01*
X75216Y-40787D02*
X75599Y-40787D01*
X74370Y-40344D02*
X74773Y-40344D01*
X55078Y-40344D02*
X55482Y-40344D01*
X55925Y-40787D02*
X56308Y-40787D01*
X55482Y-40344D02*
X55925Y-40787D01*
X55757Y-51643D02*
X55954Y-51840D01*
X55954Y-51840D02*
X56308Y-51840D01*
X55078Y-51643D02*
X55757Y-51643D01*
X74370Y-51643D02*
X75049Y-51643D01*
X75246Y-51840D02*
X75599Y-51840D01*
X75049Y-51643D02*
X75246Y-51840D01*
X75049Y-39832D02*
X75246Y-40029D01*
X75246Y-40029D02*
X75599Y-40029D01*
X74370Y-39832D02*
X75049Y-39832D01*
X55078Y-39832D02*
X55757Y-39832D01*
X55954Y-40029D02*
X56308Y-40029D01*
X55757Y-39832D02*
X55954Y-40029D01*
X51763Y-49110D02*
X51842Y-49032D01*
X54192Y-50669D02*
X51763Y-49110D01*
X54202Y-51023D02*
X54192Y-50669D01*
X73494Y-51023D02*
X73484Y-50669D01*
X73484Y-50669D02*
X71055Y-49110D01*
X71055Y-49110D02*
X71133Y-49032D01*
X71055Y-37299D02*
X71133Y-37221D01*
X73484Y-38858D02*
X71055Y-37299D01*
X73494Y-39212D02*
X73484Y-38858D01*
X54202Y-39212D02*
X54192Y-38858D01*
X54192Y-38858D02*
X51763Y-37299D01*
X51763Y-37299D02*
X51842Y-37221D01*
X54714Y-50807D02*
X55267Y-50729D01*
X54460Y-49259D02*
X52996Y-48886D01*
X55275Y-49881D02*
X54460Y-49259D01*
X55267Y-50729D02*
X55275Y-49881D01*
X54714Y-51023D02*
X54714Y-50807D01*
X74005Y-51023D02*
X74005Y-50807D01*
X74558Y-50729D02*
X74566Y-49881D01*
X74566Y-49881D02*
X73751Y-49259D01*
X73751Y-49259D02*
X72287Y-48886D01*
X74005Y-50807D02*
X74558Y-50729D01*
X74005Y-38996D02*
X74558Y-38918D01*
X73751Y-37448D02*
X72287Y-37075D01*
X74566Y-38070D02*
X73751Y-37448D01*
X74558Y-38918D02*
X74566Y-38070D01*
X74005Y-39212D02*
X74005Y-38996D01*
X54714Y-39212D02*
X54714Y-38996D01*
X55267Y-38918D02*
X55275Y-38070D01*
X55275Y-38070D02*
X54460Y-37448D01*
X54460Y-37448D02*
X52996Y-37075D01*
X54714Y-38996D02*
X55267Y-38918D01*
X52874Y-50433D02*
X50570Y-49555D01*
X53946Y-51023D02*
X52874Y-50433D01*
X73238Y-51023D02*
X72165Y-50433D01*
X72165Y-50433D02*
X69862Y-49555D01*
X72165Y-38622D02*
X69862Y-37744D01*
X73238Y-39212D02*
X72165Y-38622D01*
X53946Y-39212D02*
X52874Y-38622D01*
X52874Y-38622D02*
X50570Y-37744D01*
G54D24*
X56888Y-51656D02*
X56850Y-51062D01*
X56900Y-51840D02*
X56888Y-51656D01*
X56131Y-45994D02*
X55665Y-45366D01*
X55665Y-45366D02*
X55574Y-44901D01*
X56801Y-45994D02*
X56131Y-45994D01*
X51988Y-46842D02*
X52836Y-45994D01*
X52836Y-45994D02*
X56801Y-45994D01*
X51842Y-48440D02*
X51988Y-46842D01*
X71133Y-48440D02*
X71279Y-46842D01*
X72127Y-45994D02*
X76092Y-45994D01*
X71279Y-46842D02*
X72127Y-45994D01*
X76092Y-45994D02*
X75423Y-45994D01*
X74956Y-45366D02*
X74866Y-44901D01*
X75423Y-45994D02*
X74956Y-45366D01*
X76191Y-51840D02*
X76179Y-51656D01*
X76179Y-51656D02*
X76141Y-51062D01*
X76179Y-39845D02*
X76141Y-39251D01*
X76191Y-40029D02*
X76179Y-39845D01*
X75423Y-34183D02*
X74956Y-33555D01*
X74956Y-33555D02*
X74866Y-33090D01*
X76092Y-34183D02*
X75423Y-34183D01*
X71279Y-35031D02*
X72127Y-34183D01*
X72127Y-34183D02*
X76092Y-34183D01*
X71133Y-36629D02*
X71279Y-35031D01*
X51842Y-36629D02*
X51988Y-35031D01*
X52836Y-34183D02*
X56801Y-34183D01*
X51988Y-35031D02*
X52836Y-34183D01*
X56801Y-34183D02*
X56131Y-34183D01*
X55665Y-33555D02*
X55574Y-33090D01*
X56131Y-34183D02*
X55665Y-33555D01*
X56900Y-40029D02*
X56888Y-39845D01*
X56888Y-39845D02*
X56850Y-39251D01*
G54D25*
X52401Y-52962D02*
X51890Y-52962D01*
X53385Y-52480D02*
X52401Y-52962D01*
X53582Y-52155D02*
X53385Y-52480D01*
G54D24*
X51417Y-53986D02*
X51890Y-53513D01*
X51890Y-53513D02*
X51890Y-52962D01*
X53159Y-54458D02*
X54793Y-54458D01*
X54793Y-54458D02*
X55846Y-53405D01*
X55846Y-53405D02*
X56604Y-53405D01*
X56604Y-53405D02*
X56900Y-53109D01*
X56900Y-53109D02*
X56900Y-52598D01*
X57578Y-53444D02*
X56900Y-52766D01*
G54D26*
X56900Y-52766D02*
X56900Y-52598D01*
G54D24*
X58543Y-53444D02*
X57578Y-53444D01*
X77834Y-53444D02*
X76870Y-53444D01*
G54D26*
X76191Y-52766D02*
X76191Y-52598D01*
G54D24*
X76870Y-53444D02*
X76191Y-52766D01*
X76191Y-53109D02*
X76191Y-52598D01*
X75895Y-53405D02*
X76191Y-53109D01*
X75137Y-53405D02*
X75895Y-53405D01*
X74084Y-54458D02*
X75137Y-53405D01*
X72450Y-54458D02*
X74084Y-54458D01*
X71181Y-53513D02*
X71181Y-52962D01*
X70708Y-53986D02*
X71181Y-53513D01*
G54D25*
X72874Y-52155D02*
X72677Y-52480D01*
X72677Y-52480D02*
X71692Y-52962D01*
X71692Y-52962D02*
X71181Y-52962D01*
X71692Y-41151D02*
X71181Y-41151D01*
X72677Y-40669D02*
X71692Y-41151D01*
X72874Y-40344D02*
X72677Y-40669D01*
G54D24*
X70708Y-42175D02*
X71181Y-41702D01*
X71181Y-41702D02*
X71181Y-41151D01*
X72450Y-42647D02*
X74084Y-42647D01*
X74084Y-42647D02*
X75137Y-41594D01*
X75137Y-41594D02*
X75895Y-41594D01*
X75895Y-41594D02*
X76191Y-41298D01*
X76191Y-41298D02*
X76191Y-40787D01*
X76870Y-41633D02*
X76191Y-40955D01*
G54D26*
X76191Y-40955D02*
X76191Y-40787D01*
G54D24*
X77834Y-41633D02*
X76870Y-41633D01*
X58543Y-41633D02*
X57578Y-41633D01*
G54D26*
X56900Y-40955D02*
X56900Y-40787D01*
G54D24*
X57578Y-41633D02*
X56900Y-40955D01*
X56900Y-41298D02*
X56900Y-40787D01*
X56604Y-41594D02*
X56900Y-41298D01*
X55846Y-41594D02*
X56604Y-41594D01*
X54793Y-42647D02*
X55846Y-41594D01*
X53159Y-42647D02*
X54793Y-42647D01*
X51890Y-41702D02*
X51890Y-41151D01*
X51417Y-42175D02*
X51890Y-41702D01*
G54D25*
X53582Y-40344D02*
X53385Y-40669D01*
X53385Y-40669D02*
X52401Y-41151D01*
X52401Y-41151D02*
X51890Y-41151D01*
M02*
