G04 (created by PCBNEW (2013-08-24 BZR 4298)-stable) date Thu 05 Jun 2014 02:52:59 PM PDT*
%MOIN*%
G04 Gerber Fmt 3.4, Leading zero omitted, Abs format*
%FSLAX34Y34*%
G01*
G70*
G90*
G04 APERTURE LIST*
%ADD10C,0.005000*%
%ADD11C,0.003937*%
%ADD12C,0.007874*%
%ADD13C,0.011811*%
G04 APERTURE END LIST*
G54D10*
G54D11*
X44685Y-43700D02*
X44685Y-31889D01*
X63976Y-43700D02*
X44685Y-43700D01*
X63976Y-31889D02*
X63976Y-43700D01*
X44685Y-31889D02*
X63976Y-31889D01*
G54D12*
X50641Y-35700D02*
X50799Y-35858D01*
X50799Y-35700D02*
X50641Y-35858D01*
X51299Y-39498D02*
X51456Y-39655D01*
X51456Y-39498D02*
X51299Y-39655D01*
X51338Y-42096D02*
X51496Y-42253D01*
X51496Y-42096D02*
X51338Y-42253D01*
X52007Y-39527D02*
X52165Y-39685D01*
X52165Y-39527D02*
X52007Y-39685D01*
X53080Y-42568D02*
X53238Y-42726D01*
X53238Y-42568D02*
X53080Y-42726D01*
X53901Y-37700D02*
X54059Y-37858D01*
X54059Y-37700D02*
X53901Y-37858D01*
X54129Y-35562D02*
X54287Y-35720D01*
X54287Y-35562D02*
X54129Y-35720D01*
X54433Y-36362D02*
X54590Y-36519D01*
X54590Y-36362D02*
X54433Y-36519D01*
X55206Y-41407D02*
X55364Y-41564D01*
X55364Y-41407D02*
X55206Y-41564D01*
X55496Y-33011D02*
X55653Y-33169D01*
X55653Y-33011D02*
X55496Y-33169D01*
X55976Y-37271D02*
X56133Y-37429D01*
X56133Y-37271D02*
X55976Y-37429D01*
X56771Y-39173D02*
X56929Y-39330D01*
X56929Y-39173D02*
X56771Y-39330D01*
X57795Y-39685D02*
X57952Y-39842D01*
X57952Y-39685D02*
X57795Y-39842D01*
X54202Y-39734D02*
G75*
G03X54202Y-39734I-98J0D01*
G74*
G01*
X54202Y-40187D02*
G75*
G03X54202Y-40187I-98J0D01*
G74*
G01*
X54429Y-39960D02*
G75*
G03X54429Y-39960I-98J0D01*
G74*
G01*
X54655Y-39734D02*
G75*
G03X54655Y-39734I-98J0D01*
G74*
G01*
X54655Y-40187D02*
G75*
G03X54655Y-40187I-98J0D01*
G74*
G01*
G54D13*
X45733Y-45553D02*
X45733Y-44372D01*
X46015Y-44372D01*
X46183Y-44429D01*
X46296Y-44541D01*
X46352Y-44654D01*
X46408Y-44879D01*
X46408Y-45047D01*
X46352Y-45272D01*
X46296Y-45385D01*
X46183Y-45497D01*
X46015Y-45553D01*
X45733Y-45553D01*
X46915Y-45553D02*
X46915Y-44766D01*
X46915Y-44991D02*
X46971Y-44879D01*
X47027Y-44822D01*
X47140Y-44766D01*
X47252Y-44766D01*
X47646Y-45553D02*
X47646Y-44766D01*
X47646Y-44372D02*
X47589Y-44429D01*
X47646Y-44485D01*
X47702Y-44429D01*
X47646Y-44372D01*
X47646Y-44485D01*
X48377Y-45553D02*
X48264Y-45497D01*
X48208Y-45385D01*
X48208Y-44372D01*
X48996Y-45553D02*
X48883Y-45497D01*
X48827Y-45385D01*
X48827Y-44372D01*
X50345Y-45553D02*
X50345Y-44372D01*
X50739Y-45216D01*
X51133Y-44372D01*
X51133Y-45553D01*
X52201Y-45553D02*
X52201Y-44935D01*
X52145Y-44822D01*
X52033Y-44766D01*
X51808Y-44766D01*
X51695Y-44822D01*
X52201Y-45497D02*
X52089Y-45553D01*
X51808Y-45553D01*
X51695Y-45497D01*
X51639Y-45385D01*
X51639Y-45272D01*
X51695Y-45160D01*
X51808Y-45104D01*
X52089Y-45104D01*
X52201Y-45047D01*
X52764Y-44766D02*
X52764Y-45947D01*
X52764Y-44822D02*
X52876Y-44766D01*
X53101Y-44766D01*
X53214Y-44822D01*
X53270Y-44879D01*
X53326Y-44991D01*
X53326Y-45329D01*
X53270Y-45441D01*
X53214Y-45497D01*
X53101Y-45553D01*
X52876Y-45553D01*
X52764Y-45497D01*
X53832Y-45441D02*
X53889Y-45497D01*
X53832Y-45553D01*
X53776Y-45497D01*
X53832Y-45441D01*
X53832Y-45553D01*
X53832Y-44822D02*
X53889Y-44879D01*
X53832Y-44935D01*
X53776Y-44879D01*
X53832Y-44822D01*
X53832Y-44935D01*
X44507Y-47421D02*
X44665Y-47578D01*
X44665Y-47421D02*
X44507Y-47578D01*
X45958Y-46853D02*
X46071Y-46853D01*
X46183Y-46909D01*
X46240Y-46965D01*
X46296Y-47078D01*
X46352Y-47303D01*
X46352Y-47584D01*
X46296Y-47809D01*
X46240Y-47921D01*
X46183Y-47978D01*
X46071Y-48034D01*
X45958Y-48034D01*
X45846Y-47978D01*
X45790Y-47921D01*
X45733Y-47809D01*
X45677Y-47584D01*
X45677Y-47303D01*
X45733Y-47078D01*
X45790Y-46965D01*
X45846Y-46909D01*
X45958Y-46853D01*
X46858Y-47921D02*
X46915Y-47978D01*
X46858Y-48034D01*
X46802Y-47978D01*
X46858Y-47921D01*
X46858Y-48034D01*
X47927Y-47246D02*
X47927Y-48034D01*
X47646Y-46796D02*
X47365Y-47640D01*
X48096Y-47640D01*
X48771Y-46853D02*
X48883Y-46853D01*
X48996Y-46909D01*
X49052Y-46965D01*
X49108Y-47078D01*
X49164Y-47303D01*
X49164Y-47584D01*
X49108Y-47809D01*
X49052Y-47921D01*
X48996Y-47978D01*
X48883Y-48034D01*
X48771Y-48034D01*
X48658Y-47978D01*
X48602Y-47921D01*
X48546Y-47809D01*
X48489Y-47584D01*
X48489Y-47303D01*
X48546Y-47078D01*
X48602Y-46965D01*
X48658Y-46909D01*
X48771Y-46853D01*
X49670Y-48034D02*
X49670Y-47246D01*
X49670Y-47359D02*
X49727Y-47303D01*
X49839Y-47246D01*
X50008Y-47246D01*
X50120Y-47303D01*
X50177Y-47415D01*
X50177Y-48034D01*
X50177Y-47415D02*
X50233Y-47303D01*
X50345Y-47246D01*
X50514Y-47246D01*
X50627Y-47303D01*
X50683Y-47415D01*
X50683Y-48034D01*
X51245Y-48034D02*
X51245Y-47246D01*
X51245Y-47359D02*
X51302Y-47303D01*
X51414Y-47246D01*
X51583Y-47246D01*
X51695Y-47303D01*
X51751Y-47415D01*
X51751Y-48034D01*
X51751Y-47415D02*
X51808Y-47303D01*
X51920Y-47246D01*
X52089Y-47246D01*
X52201Y-47303D01*
X52258Y-47415D01*
X52258Y-48034D01*
X54564Y-46796D02*
X53551Y-48315D01*
X56082Y-46853D02*
X56195Y-46853D01*
X56307Y-46909D01*
X56363Y-46965D01*
X56420Y-47078D01*
X56476Y-47303D01*
X56476Y-47584D01*
X56420Y-47809D01*
X56363Y-47921D01*
X56307Y-47978D01*
X56195Y-48034D01*
X56082Y-48034D01*
X55970Y-47978D01*
X55913Y-47921D01*
X55857Y-47809D01*
X55801Y-47584D01*
X55801Y-47303D01*
X55857Y-47078D01*
X55913Y-46965D01*
X55970Y-46909D01*
X56082Y-46853D01*
X56982Y-47921D02*
X57038Y-47978D01*
X56982Y-48034D01*
X56926Y-47978D01*
X56982Y-47921D01*
X56982Y-48034D01*
X57769Y-46853D02*
X57882Y-46853D01*
X57994Y-46909D01*
X58051Y-46965D01*
X58107Y-47078D01*
X58163Y-47303D01*
X58163Y-47584D01*
X58107Y-47809D01*
X58051Y-47921D01*
X57994Y-47978D01*
X57882Y-48034D01*
X57769Y-48034D01*
X57657Y-47978D01*
X57601Y-47921D01*
X57544Y-47809D01*
X57488Y-47584D01*
X57488Y-47303D01*
X57544Y-47078D01*
X57601Y-46965D01*
X57657Y-46909D01*
X57769Y-46853D01*
X59288Y-48034D02*
X58613Y-48034D01*
X58951Y-48034D02*
X58951Y-46853D01*
X58838Y-47021D01*
X58726Y-47134D01*
X58613Y-47190D01*
X60300Y-46853D02*
X60075Y-46853D01*
X59963Y-46909D01*
X59907Y-46965D01*
X59794Y-47134D01*
X59738Y-47359D01*
X59738Y-47809D01*
X59794Y-47921D01*
X59850Y-47978D01*
X59963Y-48034D01*
X60188Y-48034D01*
X60300Y-47978D01*
X60357Y-47921D01*
X60413Y-47809D01*
X60413Y-47528D01*
X60357Y-47415D01*
X60300Y-47359D01*
X60188Y-47303D01*
X59963Y-47303D01*
X59850Y-47359D01*
X59794Y-47415D01*
X59738Y-47528D01*
X60863Y-46853D02*
X60863Y-47078D01*
X61313Y-46853D02*
X61313Y-47078D01*
X63056Y-48484D02*
X63000Y-48428D01*
X62888Y-48259D01*
X62831Y-48146D01*
X62775Y-47978D01*
X62719Y-47696D01*
X62719Y-47471D01*
X62775Y-47190D01*
X62831Y-47021D01*
X62888Y-46909D01*
X63000Y-46740D01*
X63056Y-46684D01*
X64125Y-48034D02*
X63450Y-48034D01*
X63787Y-48034D02*
X63787Y-46853D01*
X63675Y-47021D01*
X63562Y-47134D01*
X63450Y-47190D01*
X64519Y-46853D02*
X65250Y-46853D01*
X64856Y-47303D01*
X65025Y-47303D01*
X65137Y-47359D01*
X65194Y-47415D01*
X65250Y-47528D01*
X65250Y-47809D01*
X65194Y-47921D01*
X65137Y-47978D01*
X65025Y-48034D01*
X64687Y-48034D01*
X64575Y-47978D01*
X64519Y-47921D01*
X66656Y-48034D02*
X66656Y-46853D01*
X67162Y-48034D02*
X67162Y-47415D01*
X67106Y-47303D01*
X66993Y-47246D01*
X66825Y-47246D01*
X66712Y-47303D01*
X66656Y-47359D01*
X67893Y-48034D02*
X67781Y-47978D01*
X67724Y-47921D01*
X67668Y-47809D01*
X67668Y-47471D01*
X67724Y-47359D01*
X67781Y-47303D01*
X67893Y-47246D01*
X68062Y-47246D01*
X68174Y-47303D01*
X68231Y-47359D01*
X68287Y-47471D01*
X68287Y-47809D01*
X68231Y-47921D01*
X68174Y-47978D01*
X68062Y-48034D01*
X67893Y-48034D01*
X68962Y-48034D02*
X68849Y-47978D01*
X68793Y-47865D01*
X68793Y-46853D01*
X69862Y-47978D02*
X69749Y-48034D01*
X69524Y-48034D01*
X69412Y-47978D01*
X69356Y-47865D01*
X69356Y-47415D01*
X69412Y-47303D01*
X69524Y-47246D01*
X69749Y-47246D01*
X69862Y-47303D01*
X69918Y-47415D01*
X69918Y-47528D01*
X69356Y-47640D01*
X70368Y-47978D02*
X70480Y-48034D01*
X70705Y-48034D01*
X70818Y-47978D01*
X70874Y-47865D01*
X70874Y-47809D01*
X70818Y-47696D01*
X70705Y-47640D01*
X70537Y-47640D01*
X70424Y-47584D01*
X70368Y-47471D01*
X70368Y-47415D01*
X70424Y-47303D01*
X70537Y-47246D01*
X70705Y-47246D01*
X70818Y-47303D01*
X71268Y-48484D02*
X71324Y-48428D01*
X71437Y-48259D01*
X71493Y-48146D01*
X71549Y-47978D01*
X71605Y-47696D01*
X71605Y-47471D01*
X71549Y-47190D01*
X71493Y-47021D01*
X71437Y-46909D01*
X71324Y-46740D01*
X71268Y-46684D01*
G54D12*
X44665Y-49059D02*
G75*
G03X44665Y-49059I-98J0D01*
G74*
G01*
G54D13*
X45958Y-48412D02*
X46071Y-48412D01*
X46183Y-48468D01*
X46240Y-48524D01*
X46296Y-48637D01*
X46352Y-48862D01*
X46352Y-49143D01*
X46296Y-49368D01*
X46240Y-49480D01*
X46183Y-49537D01*
X46071Y-49593D01*
X45958Y-49593D01*
X45846Y-49537D01*
X45790Y-49480D01*
X45733Y-49368D01*
X45677Y-49143D01*
X45677Y-48862D01*
X45733Y-48637D01*
X45790Y-48524D01*
X45846Y-48468D01*
X45958Y-48412D01*
X46858Y-49480D02*
X46915Y-49537D01*
X46858Y-49593D01*
X46802Y-49537D01*
X46858Y-49480D01*
X46858Y-49593D01*
X47983Y-48412D02*
X47421Y-48412D01*
X47365Y-48974D01*
X47421Y-48918D01*
X47533Y-48862D01*
X47814Y-48862D01*
X47927Y-48918D01*
X47983Y-48974D01*
X48039Y-49087D01*
X48039Y-49368D01*
X47983Y-49480D01*
X47927Y-49537D01*
X47814Y-49593D01*
X47533Y-49593D01*
X47421Y-49537D01*
X47365Y-49480D01*
X48771Y-48412D02*
X48883Y-48412D01*
X48996Y-48468D01*
X49052Y-48524D01*
X49108Y-48637D01*
X49164Y-48862D01*
X49164Y-49143D01*
X49108Y-49368D01*
X49052Y-49480D01*
X48996Y-49537D01*
X48883Y-49593D01*
X48771Y-49593D01*
X48658Y-49537D01*
X48602Y-49480D01*
X48546Y-49368D01*
X48489Y-49143D01*
X48489Y-48862D01*
X48546Y-48637D01*
X48602Y-48524D01*
X48658Y-48468D01*
X48771Y-48412D01*
X49670Y-49593D02*
X49670Y-48805D01*
X49670Y-48918D02*
X49727Y-48862D01*
X49839Y-48805D01*
X50008Y-48805D01*
X50120Y-48862D01*
X50177Y-48974D01*
X50177Y-49593D01*
X50177Y-48974D02*
X50233Y-48862D01*
X50345Y-48805D01*
X50514Y-48805D01*
X50627Y-48862D01*
X50683Y-48974D01*
X50683Y-49593D01*
X51245Y-49593D02*
X51245Y-48805D01*
X51245Y-48918D02*
X51302Y-48862D01*
X51414Y-48805D01*
X51583Y-48805D01*
X51695Y-48862D01*
X51751Y-48974D01*
X51751Y-49593D01*
X51751Y-48974D02*
X51808Y-48862D01*
X51920Y-48805D01*
X52089Y-48805D01*
X52201Y-48862D01*
X52258Y-48974D01*
X52258Y-49593D01*
X54564Y-48356D02*
X53551Y-49874D01*
X56082Y-48412D02*
X56195Y-48412D01*
X56307Y-48468D01*
X56363Y-48524D01*
X56420Y-48637D01*
X56476Y-48862D01*
X56476Y-49143D01*
X56420Y-49368D01*
X56363Y-49480D01*
X56307Y-49537D01*
X56195Y-49593D01*
X56082Y-49593D01*
X55970Y-49537D01*
X55913Y-49480D01*
X55857Y-49368D01*
X55801Y-49143D01*
X55801Y-48862D01*
X55857Y-48637D01*
X55913Y-48524D01*
X55970Y-48468D01*
X56082Y-48412D01*
X56982Y-49480D02*
X57038Y-49537D01*
X56982Y-49593D01*
X56926Y-49537D01*
X56982Y-49480D01*
X56982Y-49593D01*
X57769Y-48412D02*
X57882Y-48412D01*
X57994Y-48468D01*
X58051Y-48524D01*
X58107Y-48637D01*
X58163Y-48862D01*
X58163Y-49143D01*
X58107Y-49368D01*
X58051Y-49480D01*
X57994Y-49537D01*
X57882Y-49593D01*
X57769Y-49593D01*
X57657Y-49537D01*
X57601Y-49480D01*
X57544Y-49368D01*
X57488Y-49143D01*
X57488Y-48862D01*
X57544Y-48637D01*
X57601Y-48524D01*
X57657Y-48468D01*
X57769Y-48412D01*
X58613Y-48524D02*
X58669Y-48468D01*
X58782Y-48412D01*
X59063Y-48412D01*
X59176Y-48468D01*
X59232Y-48524D01*
X59288Y-48637D01*
X59288Y-48749D01*
X59232Y-48918D01*
X58557Y-49593D01*
X59288Y-49593D01*
X60019Y-48412D02*
X60132Y-48412D01*
X60244Y-48468D01*
X60300Y-48524D01*
X60357Y-48637D01*
X60413Y-48862D01*
X60413Y-49143D01*
X60357Y-49368D01*
X60300Y-49480D01*
X60244Y-49537D01*
X60132Y-49593D01*
X60019Y-49593D01*
X59907Y-49537D01*
X59850Y-49480D01*
X59794Y-49368D01*
X59738Y-49143D01*
X59738Y-48862D01*
X59794Y-48637D01*
X59850Y-48524D01*
X59907Y-48468D01*
X60019Y-48412D01*
X60863Y-48412D02*
X60863Y-48637D01*
X61313Y-48412D02*
X61313Y-48637D01*
X63056Y-50043D02*
X63000Y-49987D01*
X62888Y-49818D01*
X62831Y-49705D01*
X62775Y-49537D01*
X62719Y-49255D01*
X62719Y-49030D01*
X62775Y-48749D01*
X62831Y-48580D01*
X62888Y-48468D01*
X63000Y-48299D01*
X63056Y-48243D01*
X64069Y-48412D02*
X63506Y-48412D01*
X63450Y-48974D01*
X63506Y-48918D01*
X63619Y-48862D01*
X63900Y-48862D01*
X64012Y-48918D01*
X64069Y-48974D01*
X64125Y-49087D01*
X64125Y-49368D01*
X64069Y-49480D01*
X64012Y-49537D01*
X63900Y-49593D01*
X63619Y-49593D01*
X63506Y-49537D01*
X63450Y-49480D01*
X65531Y-49593D02*
X65531Y-48412D01*
X66037Y-49593D02*
X66037Y-48974D01*
X65981Y-48862D01*
X65868Y-48805D01*
X65700Y-48805D01*
X65587Y-48862D01*
X65531Y-48918D01*
X66768Y-49593D02*
X66656Y-49537D01*
X66600Y-49480D01*
X66543Y-49368D01*
X66543Y-49030D01*
X66600Y-48918D01*
X66656Y-48862D01*
X66768Y-48805D01*
X66937Y-48805D01*
X67050Y-48862D01*
X67106Y-48918D01*
X67162Y-49030D01*
X67162Y-49368D01*
X67106Y-49480D01*
X67050Y-49537D01*
X66937Y-49593D01*
X66768Y-49593D01*
X67837Y-49593D02*
X67724Y-49537D01*
X67668Y-49424D01*
X67668Y-48412D01*
X68737Y-49537D02*
X68624Y-49593D01*
X68399Y-49593D01*
X68287Y-49537D01*
X68231Y-49424D01*
X68231Y-48974D01*
X68287Y-48862D01*
X68399Y-48805D01*
X68624Y-48805D01*
X68737Y-48862D01*
X68793Y-48974D01*
X68793Y-49087D01*
X68231Y-49199D01*
X69243Y-49537D02*
X69356Y-49593D01*
X69580Y-49593D01*
X69693Y-49537D01*
X69749Y-49424D01*
X69749Y-49368D01*
X69693Y-49255D01*
X69580Y-49199D01*
X69412Y-49199D01*
X69299Y-49143D01*
X69243Y-49030D01*
X69243Y-48974D01*
X69299Y-48862D01*
X69412Y-48805D01*
X69580Y-48805D01*
X69693Y-48862D01*
X70143Y-50043D02*
X70199Y-49987D01*
X70312Y-49818D01*
X70368Y-49705D01*
X70424Y-49537D01*
X70480Y-49255D01*
X70480Y-49030D01*
X70424Y-48749D01*
X70368Y-48580D01*
X70312Y-48468D01*
X70199Y-48299D01*
X70143Y-48243D01*
M02*
