M48
;DRILL file {Pcbnew (2013-08-24 BZR 4298)-stable} date Sat 07 Jun 2014 09:10:01 PM PDT
;FORMAT={-:-/ absolute / metric / decimal}
FMAT,2
METRIC,TZ
T1C0.400
T2C0.500
%
G90
G05
M71
T1
X128.83Y-90.88
X128.83Y-120.88
X130.5Y-100.525
X130.5Y-130.525
X130.6Y-107.125
X130.6Y-137.125
X132.3Y-100.6
X132.3Y-130.6
X135.025Y-108.325
X135.025Y-138.325
X137.11Y-95.96
X137.11Y-125.96
X137.69Y-90.53
X137.69Y-120.53
X138.46Y-92.56
X138.46Y-122.56
X140.8Y-104.55
X140.8Y-134.55
X141.16Y-84.05
X141.16Y-114.05
X142.38Y-94.87
X142.38Y-124.87
X144.4Y-99.7
X144.4Y-129.7
X147.Y-101.
X147.Y-131.
X177.83Y-90.88
X177.83Y-120.88
X179.5Y-100.525
X179.5Y-130.525
X179.6Y-107.125
X179.6Y-137.125
X181.3Y-100.6
X181.3Y-130.6
X184.025Y-108.325
X184.025Y-138.325
X186.11Y-95.96
X186.11Y-125.96
X186.69Y-90.53
X186.69Y-120.53
X187.46Y-92.56
X187.46Y-122.56
X189.8Y-104.55
X189.8Y-134.55
X190.16Y-84.05
X190.16Y-114.05
X191.38Y-94.87
X191.38Y-124.87
X193.4Y-99.7
X193.4Y-129.7
X196.Y-101.
X196.Y-131.
T2
X137.425Y-100.925
X137.425Y-102.075
X137.425Y-130.925
X137.425Y-132.075
X138.Y-101.5
X138.Y-131.5
X138.575Y-100.925
X138.575Y-102.075
X138.575Y-130.925
X138.575Y-132.075
X186.425Y-100.925
X186.425Y-102.075
X186.425Y-130.925
X186.425Y-132.075
X187.Y-101.5
X187.Y-131.5
X187.575Y-100.925
X187.575Y-102.075
X187.575Y-130.925
X187.575Y-132.075
T0
M30
