G04 #@! TF.GenerationSoftware,KiCad,Pcbnew,5.1.5-52549c5~86~ubuntu18.04.1*
G04 #@! TF.CreationDate,2020-12-07T22:29:05-08:00*
G04 #@! TF.ProjectId,multiple_PCBs,6d756c74-6970-46c6-955f-504342732e6b,rev?*
G04 #@! TF.SameCoordinates,Original*
G04 #@! TF.FileFunction,Paste,Top*
G04 #@! TF.FilePolarity,Positive*
%FSLAX46Y46*%
G04 Gerber Fmt 4.6, Leading zero omitted, Abs format (unit mm)*
G04 Created by KiCad (PCBNEW 5.1.5-52549c5~86~ubuntu18.04.1) date 2020-12-07 22:29:05*
%MOMM*%
%LPD*%
G04 APERTURE LIST*
%ADD10R,1.240000X0.480000*%
%ADD11R,1.160000X0.360000*%
%ADD12R,0.660000X0.760000*%
%ADD13R,0.712000X0.336000*%
%ADD14R,1.920000X0.608000*%
%ADD15R,2.848000X1.016000*%
%ADD16R,1.000000X1.600000*%
%ADD17R,1.600000X1.000000*%
%ADD18R,0.719328X0.800608*%
%ADD19R,0.800608X0.719328*%
%ADD20C,0.050000*%
%ADD21R,0.800000X0.720000*%
%ADD22R,0.720000X0.800000*%
%ADD23R,0.480000X1.240000*%
%ADD24R,1.440688X1.278128*%
%ADD25R,1.599184X1.599184*%
%ADD26R,0.440000X1.280000*%
%ADD27R,1.280000X0.440000*%
%ADD28R,0.640000X0.800000*%
%ADD29R,1.200000X0.360000*%
%ADD30R,2.400000X2.400000*%
%ADD31R,0.360000X1.200000*%
%ADD32R,1.999488X1.999488*%
%ADD33O,0.640080X0.199136*%
%ADD34O,0.199136X0.640080*%
%ADD35R,1.120000X0.960000*%
%ADD36R,0.960000X0.880000*%
%ADD37R,1.200000X0.240000*%
%ADD38R,0.240000X1.200000*%
%ADD39R,1.120000X2.720000*%
%ADD40R,1.840000X4.480000*%
%ADD41R,2.720000X1.120000*%
%ADD42R,4.480000X1.840000*%
%ADD43R,0.320000X1.080000*%
%ADD44R,2.320000X1.520000*%
%ADD45R,0.320000X0.880000*%
G04 APERTURE END LIST*
D10*
X141700000Y-97895000D03*
X141700000Y-99165000D03*
X141700000Y-100435000D03*
X141700000Y-101705000D03*
X147100000Y-101705000D03*
X147100000Y-100435000D03*
X147100000Y-99165000D03*
X147100000Y-97895000D03*
D11*
X146968000Y-123485000D03*
X146968000Y-124135000D03*
X146968000Y-124785000D03*
X146968000Y-125435000D03*
X141068000Y-125435000D03*
X141068000Y-124785000D03*
X141068000Y-124135000D03*
X141068000Y-123485000D03*
D12*
X144320000Y-111930000D03*
X143480000Y-111930000D03*
X143480000Y-112870000D03*
X144320000Y-112870000D03*
D13*
X146005000Y-111425000D03*
X146005000Y-112075000D03*
X146005000Y-112725000D03*
X146005000Y-113375000D03*
X141795000Y-113375000D03*
X141795000Y-112725000D03*
X141795000Y-112075000D03*
X141795000Y-111425000D03*
D14*
X157652000Y-109220000D03*
X157652000Y-110490000D03*
X153752000Y-110490000D03*
X153752000Y-109220000D03*
X153752000Y-105410000D03*
X153752000Y-106680000D03*
X153752000Y-107950000D03*
X157652000Y-107950000D03*
X157652000Y-106680000D03*
X157652000Y-105410000D03*
X158160000Y-127254000D03*
X158160000Y-128524000D03*
X158160000Y-129794000D03*
X154260000Y-129794000D03*
X154260000Y-128524000D03*
X154260000Y-127254000D03*
X154260000Y-131064000D03*
X154260000Y-132334000D03*
X158160000Y-132334000D03*
X158160000Y-131064000D03*
D15*
X175325000Y-124968000D03*
X175325000Y-127508000D03*
X175325000Y-130048000D03*
X170115000Y-130048000D03*
X170115000Y-127508000D03*
X170115000Y-124968000D03*
X170115000Y-132608000D03*
X170115000Y-135148000D03*
X175325000Y-135148000D03*
X175325000Y-132608000D03*
X175071000Y-111780000D03*
X175071000Y-114320000D03*
X169861000Y-114320000D03*
X169861000Y-111780000D03*
X169861000Y-104140000D03*
X169861000Y-106680000D03*
X169861000Y-109220000D03*
X175071000Y-109220000D03*
X175071000Y-106680000D03*
X175071000Y-104140000D03*
X194121000Y-132354000D03*
X188911000Y-132354000D03*
X188911000Y-127254000D03*
X188911000Y-129794000D03*
X194121000Y-129794000D03*
X194121000Y-127254000D03*
D16*
X153581000Y-99648000D03*
X156331000Y-99648000D03*
D17*
X197196000Y-117963000D03*
X197196000Y-120713000D03*
D18*
X153444160Y-97338000D03*
X154947840Y-97338000D03*
D19*
X197196000Y-114841680D03*
X197196000Y-113338000D03*
D20*
G36*
X152774802Y-74758982D02*
G01*
X152784509Y-74760421D01*
X152794028Y-74762806D01*
X152803268Y-74766112D01*
X152812140Y-74770308D01*
X152820557Y-74775353D01*
X152828439Y-74781199D01*
X152835711Y-74787789D01*
X152842301Y-74795061D01*
X152848147Y-74802943D01*
X152853192Y-74811360D01*
X152857388Y-74820232D01*
X152860694Y-74829472D01*
X152863079Y-74838991D01*
X152864518Y-74848698D01*
X152865000Y-74858500D01*
X152865000Y-75958500D01*
X152864518Y-75968302D01*
X152863079Y-75978009D01*
X152860694Y-75987528D01*
X152857388Y-75996768D01*
X152853192Y-76005640D01*
X152848147Y-76014057D01*
X152842301Y-76021939D01*
X152835711Y-76029211D01*
X152828439Y-76035801D01*
X152820557Y-76041647D01*
X152812140Y-76046692D01*
X152803268Y-76050888D01*
X152794028Y-76054194D01*
X152784509Y-76056579D01*
X152774802Y-76058018D01*
X152765000Y-76058500D01*
X152565000Y-76058500D01*
X152555198Y-76058018D01*
X152545491Y-76056579D01*
X152535972Y-76054194D01*
X152526732Y-76050888D01*
X152517860Y-76046692D01*
X152509443Y-76041647D01*
X152501561Y-76035801D01*
X152494289Y-76029211D01*
X152487699Y-76021939D01*
X152481853Y-76014057D01*
X152476808Y-76005640D01*
X152472612Y-75996768D01*
X152469306Y-75987528D01*
X152466921Y-75978009D01*
X152465482Y-75968302D01*
X152465000Y-75958500D01*
X152465000Y-74858500D01*
X152465482Y-74848698D01*
X152466921Y-74838991D01*
X152469306Y-74829472D01*
X152472612Y-74820232D01*
X152476808Y-74811360D01*
X152481853Y-74802943D01*
X152487699Y-74795061D01*
X152494289Y-74787789D01*
X152501561Y-74781199D01*
X152509443Y-74775353D01*
X152517860Y-74770308D01*
X152526732Y-74766112D01*
X152535972Y-74762806D01*
X152545491Y-74760421D01*
X152555198Y-74758982D01*
X152565000Y-74758500D01*
X152765000Y-74758500D01*
X152774802Y-74758982D01*
G37*
G36*
X153424802Y-74758982D02*
G01*
X153434509Y-74760421D01*
X153444028Y-74762806D01*
X153453268Y-74766112D01*
X153462140Y-74770308D01*
X153470557Y-74775353D01*
X153478439Y-74781199D01*
X153485711Y-74787789D01*
X153492301Y-74795061D01*
X153498147Y-74802943D01*
X153503192Y-74811360D01*
X153507388Y-74820232D01*
X153510694Y-74829472D01*
X153513079Y-74838991D01*
X153514518Y-74848698D01*
X153515000Y-74858500D01*
X153515000Y-75958500D01*
X153514518Y-75968302D01*
X153513079Y-75978009D01*
X153510694Y-75987528D01*
X153507388Y-75996768D01*
X153503192Y-76005640D01*
X153498147Y-76014057D01*
X153492301Y-76021939D01*
X153485711Y-76029211D01*
X153478439Y-76035801D01*
X153470557Y-76041647D01*
X153462140Y-76046692D01*
X153453268Y-76050888D01*
X153444028Y-76054194D01*
X153434509Y-76056579D01*
X153424802Y-76058018D01*
X153415000Y-76058500D01*
X153215000Y-76058500D01*
X153205198Y-76058018D01*
X153195491Y-76056579D01*
X153185972Y-76054194D01*
X153176732Y-76050888D01*
X153167860Y-76046692D01*
X153159443Y-76041647D01*
X153151561Y-76035801D01*
X153144289Y-76029211D01*
X153137699Y-76021939D01*
X153131853Y-76014057D01*
X153126808Y-76005640D01*
X153122612Y-75996768D01*
X153119306Y-75987528D01*
X153116921Y-75978009D01*
X153115482Y-75968302D01*
X153115000Y-75958500D01*
X153115000Y-74858500D01*
X153115482Y-74848698D01*
X153116921Y-74838991D01*
X153119306Y-74829472D01*
X153122612Y-74820232D01*
X153126808Y-74811360D01*
X153131853Y-74802943D01*
X153137699Y-74795061D01*
X153144289Y-74787789D01*
X153151561Y-74781199D01*
X153159443Y-74775353D01*
X153167860Y-74770308D01*
X153176732Y-74766112D01*
X153185972Y-74762806D01*
X153195491Y-74760421D01*
X153205198Y-74758982D01*
X153215000Y-74758500D01*
X153415000Y-74758500D01*
X153424802Y-74758982D01*
G37*
G36*
X154074802Y-74758982D02*
G01*
X154084509Y-74760421D01*
X154094028Y-74762806D01*
X154103268Y-74766112D01*
X154112140Y-74770308D01*
X154120557Y-74775353D01*
X154128439Y-74781199D01*
X154135711Y-74787789D01*
X154142301Y-74795061D01*
X154148147Y-74802943D01*
X154153192Y-74811360D01*
X154157388Y-74820232D01*
X154160694Y-74829472D01*
X154163079Y-74838991D01*
X154164518Y-74848698D01*
X154165000Y-74858500D01*
X154165000Y-75958500D01*
X154164518Y-75968302D01*
X154163079Y-75978009D01*
X154160694Y-75987528D01*
X154157388Y-75996768D01*
X154153192Y-76005640D01*
X154148147Y-76014057D01*
X154142301Y-76021939D01*
X154135711Y-76029211D01*
X154128439Y-76035801D01*
X154120557Y-76041647D01*
X154112140Y-76046692D01*
X154103268Y-76050888D01*
X154094028Y-76054194D01*
X154084509Y-76056579D01*
X154074802Y-76058018D01*
X154065000Y-76058500D01*
X153865000Y-76058500D01*
X153855198Y-76058018D01*
X153845491Y-76056579D01*
X153835972Y-76054194D01*
X153826732Y-76050888D01*
X153817860Y-76046692D01*
X153809443Y-76041647D01*
X153801561Y-76035801D01*
X153794289Y-76029211D01*
X153787699Y-76021939D01*
X153781853Y-76014057D01*
X153776808Y-76005640D01*
X153772612Y-75996768D01*
X153769306Y-75987528D01*
X153766921Y-75978009D01*
X153765482Y-75968302D01*
X153765000Y-75958500D01*
X153765000Y-74858500D01*
X153765482Y-74848698D01*
X153766921Y-74838991D01*
X153769306Y-74829472D01*
X153772612Y-74820232D01*
X153776808Y-74811360D01*
X153781853Y-74802943D01*
X153787699Y-74795061D01*
X153794289Y-74787789D01*
X153801561Y-74781199D01*
X153809443Y-74775353D01*
X153817860Y-74770308D01*
X153826732Y-74766112D01*
X153835972Y-74762806D01*
X153845491Y-74760421D01*
X153855198Y-74758982D01*
X153865000Y-74758500D01*
X154065000Y-74758500D01*
X154074802Y-74758982D01*
G37*
G36*
X154724802Y-74758982D02*
G01*
X154734509Y-74760421D01*
X154744028Y-74762806D01*
X154753268Y-74766112D01*
X154762140Y-74770308D01*
X154770557Y-74775353D01*
X154778439Y-74781199D01*
X154785711Y-74787789D01*
X154792301Y-74795061D01*
X154798147Y-74802943D01*
X154803192Y-74811360D01*
X154807388Y-74820232D01*
X154810694Y-74829472D01*
X154813079Y-74838991D01*
X154814518Y-74848698D01*
X154815000Y-74858500D01*
X154815000Y-75958500D01*
X154814518Y-75968302D01*
X154813079Y-75978009D01*
X154810694Y-75987528D01*
X154807388Y-75996768D01*
X154803192Y-76005640D01*
X154798147Y-76014057D01*
X154792301Y-76021939D01*
X154785711Y-76029211D01*
X154778439Y-76035801D01*
X154770557Y-76041647D01*
X154762140Y-76046692D01*
X154753268Y-76050888D01*
X154744028Y-76054194D01*
X154734509Y-76056579D01*
X154724802Y-76058018D01*
X154715000Y-76058500D01*
X154515000Y-76058500D01*
X154505198Y-76058018D01*
X154495491Y-76056579D01*
X154485972Y-76054194D01*
X154476732Y-76050888D01*
X154467860Y-76046692D01*
X154459443Y-76041647D01*
X154451561Y-76035801D01*
X154444289Y-76029211D01*
X154437699Y-76021939D01*
X154431853Y-76014057D01*
X154426808Y-76005640D01*
X154422612Y-75996768D01*
X154419306Y-75987528D01*
X154416921Y-75978009D01*
X154415482Y-75968302D01*
X154415000Y-75958500D01*
X154415000Y-74858500D01*
X154415482Y-74848698D01*
X154416921Y-74838991D01*
X154419306Y-74829472D01*
X154422612Y-74820232D01*
X154426808Y-74811360D01*
X154431853Y-74802943D01*
X154437699Y-74795061D01*
X154444289Y-74787789D01*
X154451561Y-74781199D01*
X154459443Y-74775353D01*
X154467860Y-74770308D01*
X154476732Y-74766112D01*
X154485972Y-74762806D01*
X154495491Y-74760421D01*
X154505198Y-74758982D01*
X154515000Y-74758500D01*
X154715000Y-74758500D01*
X154724802Y-74758982D01*
G37*
G36*
X154724802Y-70533982D02*
G01*
X154734509Y-70535421D01*
X154744028Y-70537806D01*
X154753268Y-70541112D01*
X154762140Y-70545308D01*
X154770557Y-70550353D01*
X154778439Y-70556199D01*
X154785711Y-70562789D01*
X154792301Y-70570061D01*
X154798147Y-70577943D01*
X154803192Y-70586360D01*
X154807388Y-70595232D01*
X154810694Y-70604472D01*
X154813079Y-70613991D01*
X154814518Y-70623698D01*
X154815000Y-70633500D01*
X154815000Y-71733500D01*
X154814518Y-71743302D01*
X154813079Y-71753009D01*
X154810694Y-71762528D01*
X154807388Y-71771768D01*
X154803192Y-71780640D01*
X154798147Y-71789057D01*
X154792301Y-71796939D01*
X154785711Y-71804211D01*
X154778439Y-71810801D01*
X154770557Y-71816647D01*
X154762140Y-71821692D01*
X154753268Y-71825888D01*
X154744028Y-71829194D01*
X154734509Y-71831579D01*
X154724802Y-71833018D01*
X154715000Y-71833500D01*
X154515000Y-71833500D01*
X154505198Y-71833018D01*
X154495491Y-71831579D01*
X154485972Y-71829194D01*
X154476732Y-71825888D01*
X154467860Y-71821692D01*
X154459443Y-71816647D01*
X154451561Y-71810801D01*
X154444289Y-71804211D01*
X154437699Y-71796939D01*
X154431853Y-71789057D01*
X154426808Y-71780640D01*
X154422612Y-71771768D01*
X154419306Y-71762528D01*
X154416921Y-71753009D01*
X154415482Y-71743302D01*
X154415000Y-71733500D01*
X154415000Y-70633500D01*
X154415482Y-70623698D01*
X154416921Y-70613991D01*
X154419306Y-70604472D01*
X154422612Y-70595232D01*
X154426808Y-70586360D01*
X154431853Y-70577943D01*
X154437699Y-70570061D01*
X154444289Y-70562789D01*
X154451561Y-70556199D01*
X154459443Y-70550353D01*
X154467860Y-70545308D01*
X154476732Y-70541112D01*
X154485972Y-70537806D01*
X154495491Y-70535421D01*
X154505198Y-70533982D01*
X154515000Y-70533500D01*
X154715000Y-70533500D01*
X154724802Y-70533982D01*
G37*
G36*
X154074802Y-70533982D02*
G01*
X154084509Y-70535421D01*
X154094028Y-70537806D01*
X154103268Y-70541112D01*
X154112140Y-70545308D01*
X154120557Y-70550353D01*
X154128439Y-70556199D01*
X154135711Y-70562789D01*
X154142301Y-70570061D01*
X154148147Y-70577943D01*
X154153192Y-70586360D01*
X154157388Y-70595232D01*
X154160694Y-70604472D01*
X154163079Y-70613991D01*
X154164518Y-70623698D01*
X154165000Y-70633500D01*
X154165000Y-71733500D01*
X154164518Y-71743302D01*
X154163079Y-71753009D01*
X154160694Y-71762528D01*
X154157388Y-71771768D01*
X154153192Y-71780640D01*
X154148147Y-71789057D01*
X154142301Y-71796939D01*
X154135711Y-71804211D01*
X154128439Y-71810801D01*
X154120557Y-71816647D01*
X154112140Y-71821692D01*
X154103268Y-71825888D01*
X154094028Y-71829194D01*
X154084509Y-71831579D01*
X154074802Y-71833018D01*
X154065000Y-71833500D01*
X153865000Y-71833500D01*
X153855198Y-71833018D01*
X153845491Y-71831579D01*
X153835972Y-71829194D01*
X153826732Y-71825888D01*
X153817860Y-71821692D01*
X153809443Y-71816647D01*
X153801561Y-71810801D01*
X153794289Y-71804211D01*
X153787699Y-71796939D01*
X153781853Y-71789057D01*
X153776808Y-71780640D01*
X153772612Y-71771768D01*
X153769306Y-71762528D01*
X153766921Y-71753009D01*
X153765482Y-71743302D01*
X153765000Y-71733500D01*
X153765000Y-70633500D01*
X153765482Y-70623698D01*
X153766921Y-70613991D01*
X153769306Y-70604472D01*
X153772612Y-70595232D01*
X153776808Y-70586360D01*
X153781853Y-70577943D01*
X153787699Y-70570061D01*
X153794289Y-70562789D01*
X153801561Y-70556199D01*
X153809443Y-70550353D01*
X153817860Y-70545308D01*
X153826732Y-70541112D01*
X153835972Y-70537806D01*
X153845491Y-70535421D01*
X153855198Y-70533982D01*
X153865000Y-70533500D01*
X154065000Y-70533500D01*
X154074802Y-70533982D01*
G37*
G36*
X153424802Y-70533982D02*
G01*
X153434509Y-70535421D01*
X153444028Y-70537806D01*
X153453268Y-70541112D01*
X153462140Y-70545308D01*
X153470557Y-70550353D01*
X153478439Y-70556199D01*
X153485711Y-70562789D01*
X153492301Y-70570061D01*
X153498147Y-70577943D01*
X153503192Y-70586360D01*
X153507388Y-70595232D01*
X153510694Y-70604472D01*
X153513079Y-70613991D01*
X153514518Y-70623698D01*
X153515000Y-70633500D01*
X153515000Y-71733500D01*
X153514518Y-71743302D01*
X153513079Y-71753009D01*
X153510694Y-71762528D01*
X153507388Y-71771768D01*
X153503192Y-71780640D01*
X153498147Y-71789057D01*
X153492301Y-71796939D01*
X153485711Y-71804211D01*
X153478439Y-71810801D01*
X153470557Y-71816647D01*
X153462140Y-71821692D01*
X153453268Y-71825888D01*
X153444028Y-71829194D01*
X153434509Y-71831579D01*
X153424802Y-71833018D01*
X153415000Y-71833500D01*
X153215000Y-71833500D01*
X153205198Y-71833018D01*
X153195491Y-71831579D01*
X153185972Y-71829194D01*
X153176732Y-71825888D01*
X153167860Y-71821692D01*
X153159443Y-71816647D01*
X153151561Y-71810801D01*
X153144289Y-71804211D01*
X153137699Y-71796939D01*
X153131853Y-71789057D01*
X153126808Y-71780640D01*
X153122612Y-71771768D01*
X153119306Y-71762528D01*
X153116921Y-71753009D01*
X153115482Y-71743302D01*
X153115000Y-71733500D01*
X153115000Y-70633500D01*
X153115482Y-70623698D01*
X153116921Y-70613991D01*
X153119306Y-70604472D01*
X153122612Y-70595232D01*
X153126808Y-70586360D01*
X153131853Y-70577943D01*
X153137699Y-70570061D01*
X153144289Y-70562789D01*
X153151561Y-70556199D01*
X153159443Y-70550353D01*
X153167860Y-70545308D01*
X153176732Y-70541112D01*
X153185972Y-70537806D01*
X153195491Y-70535421D01*
X153205198Y-70533982D01*
X153215000Y-70533500D01*
X153415000Y-70533500D01*
X153424802Y-70533982D01*
G37*
G36*
X152774802Y-70533982D02*
G01*
X152784509Y-70535421D01*
X152794028Y-70537806D01*
X152803268Y-70541112D01*
X152812140Y-70545308D01*
X152820557Y-70550353D01*
X152828439Y-70556199D01*
X152835711Y-70562789D01*
X152842301Y-70570061D01*
X152848147Y-70577943D01*
X152853192Y-70586360D01*
X152857388Y-70595232D01*
X152860694Y-70604472D01*
X152863079Y-70613991D01*
X152864518Y-70623698D01*
X152865000Y-70633500D01*
X152865000Y-71733500D01*
X152864518Y-71743302D01*
X152863079Y-71753009D01*
X152860694Y-71762528D01*
X152857388Y-71771768D01*
X152853192Y-71780640D01*
X152848147Y-71789057D01*
X152842301Y-71796939D01*
X152835711Y-71804211D01*
X152828439Y-71810801D01*
X152820557Y-71816647D01*
X152812140Y-71821692D01*
X152803268Y-71825888D01*
X152794028Y-71829194D01*
X152784509Y-71831579D01*
X152774802Y-71833018D01*
X152765000Y-71833500D01*
X152565000Y-71833500D01*
X152555198Y-71833018D01*
X152545491Y-71831579D01*
X152535972Y-71829194D01*
X152526732Y-71825888D01*
X152517860Y-71821692D01*
X152509443Y-71816647D01*
X152501561Y-71810801D01*
X152494289Y-71804211D01*
X152487699Y-71796939D01*
X152481853Y-71789057D01*
X152476808Y-71780640D01*
X152472612Y-71771768D01*
X152469306Y-71762528D01*
X152466921Y-71753009D01*
X152465482Y-71743302D01*
X152465000Y-71733500D01*
X152465000Y-70633500D01*
X152465482Y-70623698D01*
X152466921Y-70613991D01*
X152469306Y-70604472D01*
X152472612Y-70595232D01*
X152476808Y-70586360D01*
X152481853Y-70577943D01*
X152487699Y-70570061D01*
X152494289Y-70562789D01*
X152501561Y-70556199D01*
X152509443Y-70550353D01*
X152517860Y-70545308D01*
X152526732Y-70541112D01*
X152535972Y-70537806D01*
X152545491Y-70535421D01*
X152555198Y-70533982D01*
X152565000Y-70533500D01*
X152765000Y-70533500D01*
X152774802Y-70533982D01*
G37*
D21*
X165690000Y-78957840D03*
D19*
X165690000Y-77454160D03*
X180594000Y-77978000D03*
D21*
X180594000Y-79481680D03*
D22*
X154531840Y-68686000D03*
D18*
X153028160Y-68686000D03*
D19*
X160680000Y-62806000D03*
D21*
X160680000Y-61302320D03*
X160550000Y-66637840D03*
D19*
X160550000Y-65134160D03*
X156690000Y-68542320D03*
X156690000Y-70046000D03*
X149240000Y-70106000D03*
X149240000Y-68602320D03*
X170420000Y-88934160D03*
X170420000Y-90437840D03*
D18*
X167991840Y-89856000D03*
X166488160Y-89856000D03*
D19*
X171740000Y-76854160D03*
X171740000Y-78357840D03*
D18*
X167913160Y-78581000D03*
X169416840Y-78581000D03*
X173990000Y-72356000D03*
X172486320Y-72356000D03*
D19*
X178816000Y-76210160D03*
X178816000Y-77713840D03*
D23*
X166835000Y-86556000D03*
X168105000Y-86556000D03*
X169375000Y-86556000D03*
X170645000Y-86556000D03*
X170645000Y-81156000D03*
X169375000Y-81156000D03*
X168105000Y-81156000D03*
X166835000Y-81156000D03*
D19*
X186436000Y-89418160D03*
D21*
X186436000Y-90921840D03*
X189992000Y-90170000D03*
D19*
X189992000Y-91673680D03*
X192024000Y-73924160D03*
D21*
X192024000Y-75427840D03*
X189738000Y-75427840D03*
D19*
X189738000Y-73924160D03*
D21*
X198490000Y-91707840D03*
D19*
X198490000Y-90204160D03*
D18*
X195138160Y-88756000D03*
D22*
X196641840Y-88756000D03*
D24*
X197612000Y-83461860D03*
X197612000Y-80622140D03*
D25*
X150291800Y-88590120D03*
X150291800Y-82489040D03*
X161117280Y-88590120D03*
X161117280Y-82489040D03*
D18*
X193938160Y-63156000D03*
X195441840Y-63156000D03*
D19*
X195790000Y-91807840D03*
X195790000Y-90304160D03*
D18*
X183143680Y-83631000D03*
X181640000Y-83631000D03*
X182088160Y-85581000D03*
X183591840Y-85581000D03*
D19*
X197490000Y-77607840D03*
X197490000Y-76104160D03*
D26*
X186938000Y-86546000D03*
X187738000Y-86546000D03*
X188538000Y-86546000D03*
X189338000Y-86546000D03*
X190138000Y-86546000D03*
X190938000Y-86546000D03*
X191738000Y-86546000D03*
X192538000Y-86546000D03*
D27*
X193988000Y-85096000D03*
X193988000Y-84296000D03*
X193988000Y-83496000D03*
X193988000Y-82696000D03*
X193988000Y-81896000D03*
X193988000Y-81096000D03*
X193988000Y-80296000D03*
X193988000Y-79496000D03*
D26*
X192538000Y-78046000D03*
X191738000Y-78046000D03*
X190938000Y-78046000D03*
X190138000Y-78046000D03*
X189338000Y-78046000D03*
X188538000Y-78046000D03*
X187738000Y-78046000D03*
X186938000Y-78046000D03*
D27*
X185488000Y-79496000D03*
X185488000Y-80296000D03*
X185488000Y-81096000D03*
X185488000Y-81896000D03*
X185488000Y-82696000D03*
X185488000Y-83496000D03*
X185488000Y-84296000D03*
X185488000Y-85096000D03*
D28*
X191528000Y-89678000D03*
X191528000Y-91678000D03*
X193028000Y-89678000D03*
X193028000Y-91678000D03*
D19*
X181102000Y-74411840D03*
D21*
X181102000Y-72908160D03*
D29*
X235486000Y-77475000D03*
X235486000Y-78125000D03*
X235486000Y-76825000D03*
X235486000Y-76175000D03*
X235486000Y-73575000D03*
X235486000Y-74225000D03*
X235486000Y-75525000D03*
X235486000Y-74875000D03*
X229686000Y-74875000D03*
X229686000Y-75525000D03*
X229686000Y-74225000D03*
X229686000Y-73575000D03*
X229686000Y-76175000D03*
X229686000Y-76825000D03*
X229686000Y-78125000D03*
X229686000Y-77475000D03*
D30*
X232586000Y-75850000D03*
D29*
X221770000Y-86873000D03*
X221770000Y-87523000D03*
X221770000Y-86223000D03*
X221770000Y-85573000D03*
X221770000Y-82973000D03*
X221770000Y-83623000D03*
X221770000Y-84923000D03*
X221770000Y-84273000D03*
X215970000Y-84273000D03*
X215970000Y-84923000D03*
X215970000Y-83623000D03*
X215970000Y-82973000D03*
X215970000Y-85573000D03*
X215970000Y-86223000D03*
X215970000Y-87523000D03*
X215970000Y-86873000D03*
D30*
X218870000Y-85248000D03*
D29*
X235338000Y-84658000D03*
X235338000Y-85308000D03*
X235338000Y-84008000D03*
X235338000Y-83358000D03*
X235338000Y-80758000D03*
X235338000Y-81408000D03*
X235338000Y-82708000D03*
X235338000Y-82058000D03*
X229538000Y-82058000D03*
X229538000Y-82708000D03*
X229538000Y-81408000D03*
X229538000Y-80758000D03*
X229538000Y-83358000D03*
X229538000Y-84008000D03*
X229538000Y-85308000D03*
X229538000Y-84658000D03*
D30*
X232438000Y-83033000D03*
D29*
X221516000Y-77983000D03*
X221516000Y-78633000D03*
X221516000Y-77333000D03*
X221516000Y-76683000D03*
X221516000Y-74083000D03*
X221516000Y-74733000D03*
X221516000Y-76033000D03*
X221516000Y-75383000D03*
X215716000Y-75383000D03*
X215716000Y-76033000D03*
X215716000Y-74733000D03*
X215716000Y-74083000D03*
X215716000Y-76683000D03*
X215716000Y-77333000D03*
X215716000Y-78633000D03*
X215716000Y-77983000D03*
D30*
X218616000Y-76358000D03*
D31*
X278625000Y-98650000D03*
X277975000Y-98650000D03*
X279275000Y-98650000D03*
X279925000Y-98650000D03*
X282525000Y-98650000D03*
X281875000Y-98650000D03*
X280575000Y-98650000D03*
X281225000Y-98650000D03*
X281225000Y-92850000D03*
X280575000Y-92850000D03*
X281875000Y-92850000D03*
X282525000Y-92850000D03*
X279925000Y-92850000D03*
X279275000Y-92850000D03*
X277975000Y-92850000D03*
X278625000Y-92850000D03*
D30*
X280250000Y-95750000D03*
D31*
X278125000Y-86150000D03*
X277475000Y-86150000D03*
X278775000Y-86150000D03*
X279425000Y-86150000D03*
X282025000Y-86150000D03*
X281375000Y-86150000D03*
X280075000Y-86150000D03*
X280725000Y-86150000D03*
X280725000Y-80350000D03*
X280075000Y-80350000D03*
X281375000Y-80350000D03*
X282025000Y-80350000D03*
X279425000Y-80350000D03*
X278775000Y-80350000D03*
X277475000Y-80350000D03*
X278125000Y-80350000D03*
D30*
X279750000Y-83250000D03*
D29*
X296900000Y-72625000D03*
X296900000Y-73275000D03*
X296900000Y-71975000D03*
X296900000Y-71325000D03*
X296900000Y-68725000D03*
X296900000Y-69375000D03*
X296900000Y-70675000D03*
X296900000Y-70025000D03*
X291100000Y-70025000D03*
X291100000Y-70675000D03*
X291100000Y-69375000D03*
X291100000Y-68725000D03*
X291100000Y-71325000D03*
X291100000Y-71975000D03*
X291100000Y-73275000D03*
X291100000Y-72625000D03*
D30*
X294000000Y-71000000D03*
D29*
X274050000Y-65945000D03*
X274050000Y-65295000D03*
X274050000Y-66595000D03*
X274050000Y-67245000D03*
X274050000Y-69845000D03*
X274050000Y-69195000D03*
X274050000Y-67895000D03*
X274050000Y-68545000D03*
X279850000Y-68545000D03*
X279850000Y-67895000D03*
X279850000Y-69195000D03*
X279850000Y-69845000D03*
X279850000Y-67245000D03*
X279850000Y-66595000D03*
X279850000Y-65295000D03*
X279850000Y-65945000D03*
D30*
X276950000Y-67570000D03*
D29*
X260700000Y-120175000D03*
X260700000Y-119525000D03*
X260700000Y-120825000D03*
X260700000Y-121475000D03*
X260700000Y-124075000D03*
X260700000Y-123425000D03*
X260700000Y-122125000D03*
X260700000Y-122775000D03*
X266500000Y-122775000D03*
X266500000Y-122125000D03*
X266500000Y-123425000D03*
X266500000Y-124075000D03*
X266500000Y-121475000D03*
X266500000Y-120825000D03*
X266500000Y-119525000D03*
X266500000Y-120175000D03*
D30*
X263600000Y-121800000D03*
D29*
X273500000Y-119875000D03*
X273500000Y-119225000D03*
X273500000Y-120525000D03*
X273500000Y-121175000D03*
X273500000Y-123775000D03*
X273500000Y-123125000D03*
X273500000Y-121825000D03*
X273500000Y-122475000D03*
X279300000Y-122475000D03*
X279300000Y-121825000D03*
X279300000Y-123125000D03*
X279300000Y-123775000D03*
X279300000Y-121175000D03*
X279300000Y-120525000D03*
X279300000Y-119225000D03*
X279300000Y-119875000D03*
D30*
X276400000Y-121500000D03*
D29*
X286125000Y-134350000D03*
X286125000Y-133700000D03*
X286125000Y-135000000D03*
X286125000Y-135650000D03*
X286125000Y-138250000D03*
X286125000Y-137600000D03*
X286125000Y-136300000D03*
X286125000Y-136950000D03*
X291925000Y-136950000D03*
X291925000Y-136300000D03*
X291925000Y-137600000D03*
X291925000Y-138250000D03*
X291925000Y-135650000D03*
X291925000Y-135000000D03*
X291925000Y-133700000D03*
X291925000Y-134350000D03*
D30*
X289025000Y-135975000D03*
D29*
X287810000Y-126335000D03*
X287810000Y-125685000D03*
X287810000Y-126985000D03*
X287810000Y-127635000D03*
X287810000Y-130235000D03*
X287810000Y-129585000D03*
X287810000Y-128285000D03*
X287810000Y-128935000D03*
X293610000Y-128935000D03*
X293610000Y-128285000D03*
X293610000Y-129585000D03*
X293610000Y-130235000D03*
X293610000Y-127635000D03*
X293610000Y-126985000D03*
X293610000Y-125685000D03*
X293610000Y-126335000D03*
D30*
X290710000Y-127960000D03*
D29*
X220200000Y-119175000D03*
X220200000Y-118525000D03*
X220200000Y-119825000D03*
X220200000Y-120475000D03*
X220200000Y-123075000D03*
X220200000Y-122425000D03*
X220200000Y-121125000D03*
X220200000Y-121775000D03*
X226000000Y-121775000D03*
X226000000Y-121125000D03*
X226000000Y-122425000D03*
X226000000Y-123075000D03*
X226000000Y-120475000D03*
X226000000Y-119825000D03*
X226000000Y-118525000D03*
X226000000Y-119175000D03*
D30*
X223100000Y-120800000D03*
D29*
X233400000Y-119675000D03*
X233400000Y-119025000D03*
X233400000Y-120325000D03*
X233400000Y-120975000D03*
X233400000Y-123575000D03*
X233400000Y-122925000D03*
X233400000Y-121625000D03*
X233400000Y-122275000D03*
X239200000Y-122275000D03*
X239200000Y-121625000D03*
X239200000Y-122925000D03*
X239200000Y-123575000D03*
X239200000Y-120975000D03*
X239200000Y-120325000D03*
X239200000Y-119025000D03*
X239200000Y-119675000D03*
D30*
X236300000Y-121300000D03*
D29*
X246700000Y-119875000D03*
X246700000Y-119225000D03*
X246700000Y-120525000D03*
X246700000Y-121175000D03*
X246700000Y-123775000D03*
X246700000Y-123125000D03*
X246700000Y-121825000D03*
X246700000Y-122475000D03*
X252500000Y-122475000D03*
X252500000Y-121825000D03*
X252500000Y-123125000D03*
X252500000Y-123775000D03*
X252500000Y-121175000D03*
X252500000Y-120525000D03*
X252500000Y-119225000D03*
X252500000Y-119875000D03*
D30*
X249600000Y-121500000D03*
D29*
X207630000Y-120135000D03*
X207630000Y-119485000D03*
X207630000Y-120785000D03*
X207630000Y-121435000D03*
X207630000Y-124035000D03*
X207630000Y-123385000D03*
X207630000Y-122085000D03*
X207630000Y-122735000D03*
X213430000Y-122735000D03*
X213430000Y-122085000D03*
X213430000Y-123385000D03*
X213430000Y-124035000D03*
X213430000Y-121435000D03*
X213430000Y-120785000D03*
X213430000Y-119485000D03*
X213430000Y-120135000D03*
D30*
X210530000Y-121760000D03*
D18*
X272151840Y-99200000D03*
X270648160Y-99200000D03*
D19*
X256208000Y-90063840D03*
X256208000Y-88560160D03*
X228522000Y-96413840D03*
X228522000Y-94910160D03*
X261800000Y-112751840D03*
X261800000Y-111248160D03*
X263200000Y-112751840D03*
X263200000Y-111248160D03*
D18*
X219251840Y-130750000D03*
X217748160Y-130750000D03*
D19*
X283100000Y-110251840D03*
X283100000Y-108748160D03*
D18*
X219251840Y-127250000D03*
X217748160Y-127250000D03*
X219251840Y-129000000D03*
X217748160Y-129000000D03*
X239801840Y-99850000D03*
X238298160Y-99850000D03*
X239951840Y-106570000D03*
X238448160Y-106570000D03*
X240001840Y-102000000D03*
X238498160Y-102000000D03*
D19*
X237750000Y-109751840D03*
X237750000Y-108248160D03*
X231950000Y-96501840D03*
X231950000Y-94998160D03*
D18*
X245501840Y-104250000D03*
X243998160Y-104250000D03*
D19*
X233500000Y-96501840D03*
X233500000Y-94998160D03*
D18*
X206118160Y-113560000D03*
X207621840Y-113560000D03*
X210811840Y-94440000D03*
X209308160Y-94440000D03*
X210641840Y-92550000D03*
X209138160Y-92550000D03*
X216751840Y-133000000D03*
X215248160Y-133000000D03*
X228351840Y-91900000D03*
X226848160Y-91900000D03*
D32*
X233000000Y-102000000D03*
D33*
X231001020Y-100750320D03*
X231001020Y-101250700D03*
X231001020Y-101751080D03*
X231001020Y-102248920D03*
X231001020Y-102749300D03*
X231001020Y-103249680D03*
D34*
X231750320Y-103998980D03*
X232250700Y-103998980D03*
X232751080Y-103998980D03*
X233248920Y-103998980D03*
X233749300Y-103998980D03*
X234249680Y-103998980D03*
D33*
X234998980Y-103249680D03*
X234998980Y-102749300D03*
X234998980Y-102248920D03*
X234998980Y-101751080D03*
X234998980Y-101250700D03*
X234998980Y-100750320D03*
D34*
X234249680Y-100001020D03*
X233749300Y-100001020D03*
X233248920Y-100001020D03*
X232751080Y-100001020D03*
X232250700Y-100001020D03*
X231750320Y-100001020D03*
D35*
X271550000Y-105725000D03*
X269350000Y-105725000D03*
X271550000Y-107425000D03*
X269350000Y-107425000D03*
D36*
X232150000Y-109700000D03*
X233850000Y-109700000D03*
X232150000Y-108300000D03*
X233850000Y-108300000D03*
D18*
X226248160Y-110000000D03*
X227751840Y-110000000D03*
X244248160Y-100900000D03*
D22*
X245751840Y-100900000D03*
D18*
X244748160Y-95000000D03*
D22*
X246251840Y-95000000D03*
D18*
X273551840Y-100900000D03*
D22*
X272048160Y-100900000D03*
D19*
X249650000Y-110998160D03*
D21*
X249650000Y-112501840D03*
D18*
X269048160Y-100900000D03*
D22*
X270551840Y-100900000D03*
D18*
X272951840Y-97700000D03*
D22*
X271448160Y-97700000D03*
D19*
X256250000Y-110748160D03*
D21*
X256250000Y-112251840D03*
D19*
X253160000Y-88560160D03*
D21*
X253160000Y-90063840D03*
D19*
X267500000Y-109751840D03*
D21*
X267500000Y-108248160D03*
D19*
X254684000Y-88560160D03*
D21*
X254684000Y-90063840D03*
D19*
X273350000Y-106426840D03*
D21*
X273350000Y-104923160D03*
D18*
X270901840Y-109025000D03*
D22*
X269398160Y-109025000D03*
D19*
X215900000Y-123001840D03*
D21*
X215900000Y-121498160D03*
D18*
X214948160Y-119650000D03*
D22*
X216451840Y-119650000D03*
D19*
X226998000Y-73066160D03*
D21*
X226998000Y-74569840D03*
D19*
X226740000Y-80958160D03*
D21*
X226740000Y-82461840D03*
D19*
X226998000Y-76348160D03*
D21*
X226998000Y-77851840D03*
D19*
X227350000Y-83898160D03*
D21*
X227350000Y-85401840D03*
D19*
X212820000Y-77548160D03*
D21*
X212820000Y-79051840D03*
D19*
X212774000Y-86528160D03*
D21*
X212774000Y-88031840D03*
D19*
X213028000Y-75331840D03*
D21*
X213028000Y-73828160D03*
D19*
X213282000Y-83459840D03*
D21*
X213282000Y-81956160D03*
D18*
X281371840Y-90720000D03*
D22*
X279868160Y-90720000D03*
D18*
X281551840Y-77300000D03*
D22*
X280048160Y-77300000D03*
D19*
X283100000Y-88948160D03*
D21*
X283100000Y-90451840D03*
D19*
X278500000Y-78001840D03*
D21*
X278500000Y-76498160D03*
D19*
X287900000Y-69638160D03*
D21*
X287900000Y-71141840D03*
D19*
X283150000Y-70111840D03*
D21*
X283150000Y-68608160D03*
D18*
X289248160Y-66000000D03*
D22*
X290751840Y-66000000D03*
D19*
X283130000Y-65558160D03*
D21*
X283130000Y-67061840D03*
D19*
X270300000Y-123701840D03*
D21*
X270300000Y-122198160D03*
D19*
X281900000Y-122751840D03*
D21*
X281900000Y-121248160D03*
D18*
X268398160Y-120550000D03*
D22*
X269901840Y-120550000D03*
D19*
X281900000Y-118448160D03*
D21*
X281900000Y-119951840D03*
D19*
X294660000Y-136461840D03*
D21*
X294660000Y-134958160D03*
D19*
X296830000Y-128071840D03*
D21*
X296830000Y-126568160D03*
D18*
X294818160Y-133160000D03*
D22*
X296321840Y-133160000D03*
D18*
X297851840Y-130510000D03*
D22*
X296348160Y-130510000D03*
D19*
X228800000Y-122601840D03*
D21*
X228800000Y-121098160D03*
D19*
X242600000Y-123201840D03*
D21*
X242600000Y-121698160D03*
D19*
X256050000Y-122901840D03*
D21*
X256050000Y-121398160D03*
D18*
X227998160Y-119150000D03*
D22*
X229501840Y-119150000D03*
D18*
X241248160Y-119450000D03*
D22*
X242751840Y-119450000D03*
D18*
X254548160Y-120000000D03*
D22*
X256051840Y-120000000D03*
D19*
X230300000Y-94402160D03*
D21*
X230300000Y-95905840D03*
D18*
X226733840Y-94646000D03*
D22*
X225230160Y-94646000D03*
D18*
X239921840Y-105160000D03*
D22*
X238418160Y-105160000D03*
D18*
X227248160Y-100000000D03*
D22*
X228751840Y-100000000D03*
D19*
X230000000Y-108248160D03*
D21*
X230000000Y-109751840D03*
D18*
X226751840Y-98000000D03*
D22*
X225248160Y-98000000D03*
D18*
X239851840Y-103425000D03*
D22*
X238348160Y-103425000D03*
D19*
X236000000Y-109751840D03*
D21*
X236000000Y-108248160D03*
D19*
X235190000Y-94088160D03*
D21*
X235190000Y-95591840D03*
D18*
X227751840Y-103800000D03*
D22*
X226248160Y-103800000D03*
D18*
X226248160Y-107500000D03*
D22*
X227751840Y-107500000D03*
D18*
X212351840Y-132800000D03*
X210848160Y-132800000D03*
D19*
X206650000Y-129951840D03*
X206650000Y-128448160D03*
X265352000Y-89576160D03*
X265352000Y-91079840D03*
X261542000Y-81173840D03*
X261542000Y-79670160D03*
X259002000Y-80919840D03*
X259002000Y-79416160D03*
X256970000Y-80919840D03*
X256970000Y-79416160D03*
X254176000Y-79903840D03*
X254176000Y-78400160D03*
X283670000Y-105248160D03*
X283670000Y-106751840D03*
D37*
X264950000Y-98750000D03*
X264950000Y-98250000D03*
X264950000Y-97750000D03*
X264950000Y-96750000D03*
X264950000Y-97250000D03*
X264950000Y-95250000D03*
X264950000Y-94750000D03*
X264950000Y-95750000D03*
X264950000Y-96250000D03*
D38*
X251750000Y-108450000D03*
X251250000Y-108450000D03*
X254750000Y-108450000D03*
X254250000Y-108450000D03*
X255250000Y-108450000D03*
X253250000Y-108450000D03*
X253750000Y-108450000D03*
X252250000Y-108450000D03*
X252750000Y-108450000D03*
D37*
X249550000Y-103250000D03*
X249550000Y-103750000D03*
X249550000Y-102750000D03*
X249550000Y-104250000D03*
X249550000Y-104750000D03*
X249550000Y-106750000D03*
X249550000Y-106250000D03*
X249550000Y-105750000D03*
X249550000Y-105250000D03*
D38*
X253250000Y-93050000D03*
X254750000Y-93050000D03*
X255250000Y-93050000D03*
X254250000Y-93050000D03*
X253750000Y-93050000D03*
X251750000Y-93050000D03*
X252250000Y-93050000D03*
X252750000Y-93050000D03*
X251250000Y-93050000D03*
D37*
X264950000Y-100750000D03*
X264950000Y-100250000D03*
X264950000Y-99250000D03*
X264950000Y-99750000D03*
D38*
X256250000Y-108450000D03*
X255750000Y-108450000D03*
X257250000Y-108450000D03*
X256750000Y-108450000D03*
D37*
X249550000Y-100750000D03*
X249550000Y-101250000D03*
X249550000Y-101750000D03*
X249550000Y-102250000D03*
D38*
X255750000Y-93050000D03*
X257250000Y-93050000D03*
X256750000Y-93050000D03*
X256250000Y-93050000D03*
D37*
X264950000Y-101750000D03*
X264950000Y-101250000D03*
X264950000Y-102250000D03*
X264950000Y-102750000D03*
D38*
X260250000Y-108450000D03*
X260750000Y-108450000D03*
X261750000Y-108450000D03*
X261250000Y-108450000D03*
X258750000Y-108450000D03*
X259750000Y-108450000D03*
X259250000Y-108450000D03*
X257750000Y-108450000D03*
X258250000Y-108450000D03*
D37*
X249550000Y-100250000D03*
X249550000Y-99750000D03*
D38*
X258250000Y-93050000D03*
X258750000Y-93050000D03*
X259750000Y-93050000D03*
X259250000Y-93050000D03*
X260750000Y-93050000D03*
X261250000Y-93050000D03*
X260250000Y-93050000D03*
X262750000Y-93050000D03*
X263250000Y-93050000D03*
X262250000Y-93050000D03*
X261750000Y-93050000D03*
D37*
X264950000Y-103250000D03*
X264950000Y-103750000D03*
X264950000Y-104750000D03*
X264950000Y-104250000D03*
X264950000Y-105750000D03*
X264950000Y-106250000D03*
X264950000Y-105250000D03*
D38*
X262750000Y-108450000D03*
X262250000Y-108450000D03*
X263250000Y-108450000D03*
D37*
X264950000Y-106750000D03*
X249550000Y-97750000D03*
X249550000Y-98250000D03*
X249550000Y-99250000D03*
X249550000Y-98750000D03*
X249550000Y-96250000D03*
X249550000Y-97250000D03*
X249550000Y-96750000D03*
X249550000Y-95250000D03*
X249550000Y-95750000D03*
X249550000Y-94750000D03*
D38*
X257750000Y-93050000D03*
D10*
X214700000Y-130405000D03*
X214700000Y-129135000D03*
X214700000Y-127865000D03*
X214700000Y-126595000D03*
X209300000Y-126595000D03*
X209300000Y-127865000D03*
X209300000Y-129135000D03*
X209300000Y-130405000D03*
D19*
X251000000Y-88498160D03*
D21*
X251000000Y-90001840D03*
D16*
X204625000Y-93000000D03*
X207375000Y-93000000D03*
X222375000Y-91950000D03*
X225125000Y-91950000D03*
D39*
X234732000Y-64922000D03*
X232232000Y-64922000D03*
X229732000Y-64922000D03*
X217232000Y-64922000D03*
X222232000Y-64922000D03*
X219732000Y-64922000D03*
D40*
X237682000Y-68072000D03*
D39*
X224732000Y-64922000D03*
X227232000Y-64922000D03*
D40*
X214282000Y-68072000D03*
D39*
X227750000Y-138300000D03*
X230250000Y-138300000D03*
X232750000Y-138300000D03*
X245250000Y-138300000D03*
X240250000Y-138300000D03*
X242750000Y-138300000D03*
D40*
X224800000Y-135150000D03*
D39*
X237750000Y-138300000D03*
X235250000Y-138300000D03*
D40*
X248200000Y-135150000D03*
D41*
X296300000Y-97750000D03*
X296300000Y-95250000D03*
X296300000Y-92750000D03*
X296300000Y-80250000D03*
X296300000Y-85250000D03*
X296300000Y-82750000D03*
D42*
X293150000Y-100700000D03*
D41*
X296300000Y-87750000D03*
X296300000Y-90250000D03*
D42*
X293150000Y-77300000D03*
D39*
X255250000Y-138300000D03*
X257750000Y-138300000D03*
X260250000Y-138300000D03*
X272750000Y-138300000D03*
X267750000Y-138300000D03*
X270250000Y-138300000D03*
D40*
X252300000Y-135150000D03*
D39*
X265250000Y-138300000D03*
X262750000Y-138300000D03*
D40*
X275700000Y-135150000D03*
D14*
X287120000Y-106730000D03*
X287120000Y-105460000D03*
X291020000Y-105460000D03*
X291020000Y-106730000D03*
X291020000Y-110540000D03*
X291020000Y-109270000D03*
X291020000Y-108000000D03*
X287120000Y-108000000D03*
X287120000Y-109270000D03*
X287120000Y-110540000D03*
D39*
X264196000Y-62128000D03*
X261696000Y-62128000D03*
X259196000Y-62128000D03*
X246696000Y-62128000D03*
X251696000Y-62128000D03*
X249196000Y-62128000D03*
D40*
X267146000Y-65278000D03*
D39*
X254196000Y-62128000D03*
X256696000Y-62128000D03*
D40*
X243746000Y-65278000D03*
D43*
X219400000Y-147675000D03*
X220050000Y-147675000D03*
X218100000Y-147675000D03*
X217450000Y-147675000D03*
X218750000Y-147675000D03*
D44*
X218750000Y-150350000D03*
X296400000Y-150000000D03*
D43*
X296400000Y-147325000D03*
X295100000Y-147325000D03*
X295750000Y-147325000D03*
X297700000Y-147325000D03*
X297050000Y-147325000D03*
D44*
X229500000Y-150350000D03*
D43*
X229500000Y-147675000D03*
X228200000Y-147675000D03*
X228850000Y-147675000D03*
X230800000Y-147675000D03*
X230150000Y-147675000D03*
X285850000Y-147275000D03*
X286500000Y-147275000D03*
X284550000Y-147275000D03*
X283900000Y-147275000D03*
X285200000Y-147275000D03*
D44*
X285200000Y-149950000D03*
D43*
X241450000Y-147575000D03*
X242100000Y-147575000D03*
X240150000Y-147575000D03*
X239500000Y-147575000D03*
X240800000Y-147575000D03*
D44*
X240800000Y-150250000D03*
D43*
X274950000Y-147425000D03*
X275600000Y-147425000D03*
X273650000Y-147425000D03*
X273000000Y-147425000D03*
X274300000Y-147425000D03*
D44*
X274300000Y-150100000D03*
X252250000Y-150150000D03*
D43*
X252250000Y-147475000D03*
X250950000Y-147475000D03*
X251600000Y-147475000D03*
X253550000Y-147475000D03*
X252900000Y-147475000D03*
D44*
X263050000Y-150100000D03*
D43*
X263050000Y-147425000D03*
X261750000Y-147425000D03*
X262400000Y-147425000D03*
X264350000Y-147425000D03*
X263700000Y-147425000D03*
D40*
X267146000Y-72198000D03*
D39*
X254196000Y-75348000D03*
X256696000Y-75348000D03*
D40*
X243746000Y-72198000D03*
D39*
X261696000Y-75348000D03*
X259196000Y-75348000D03*
X264196000Y-75348000D03*
X251696000Y-75348000D03*
X249196000Y-75348000D03*
X246696000Y-75348000D03*
D19*
X251890000Y-78400160D03*
X251890000Y-79903840D03*
X249604000Y-79649840D03*
X249604000Y-78146160D03*
X244524000Y-77871840D03*
X244524000Y-76368160D03*
D45*
X203925000Y-152850000D03*
X204575000Y-152850000D03*
X205225000Y-152850000D03*
X205875000Y-152850000D03*
X206525000Y-152850000D03*
X207175000Y-152850000D03*
X207825000Y-152850000D03*
X208475000Y-152850000D03*
X209125000Y-152850000D03*
X209775000Y-152850000D03*
X210425000Y-152850000D03*
X211075000Y-152850000D03*
X211075000Y-147150000D03*
X210425000Y-147150000D03*
X209775000Y-147150000D03*
X209125000Y-147150000D03*
X208475000Y-147150000D03*
X207825000Y-147150000D03*
X207175000Y-147150000D03*
X206525000Y-147150000D03*
X205875000Y-147150000D03*
X205225000Y-147150000D03*
X204575000Y-147150000D03*
X203925000Y-147150000D03*
M02*
