M48
;DRILL file {KiCad 4.0.2+e4-6225~38~ubuntu14.04.1-stable} date Sun 24 Jul 2016 05:02:54 PM PDT
;FORMAT={-:-/ absolute / metric / decimal}
FMAT,2
METRIC,TZ
T1C1.300
T2C1.699
T3C2.600
T4C3.000
T5C3.250
%
G90
G05
M71
T1
X97.5Y-141.6
X97.5Y-146.5
X104.05Y-83.155
X104.05Y-98.645
T2
X106.2Y-126.115
X110.701Y-126.115
X112.3Y-143.89
X116.801Y-143.89
X120.8Y-107.149
X120.8Y-111.65
X163.6Y-62.85
X163.6Y-67.351
T3
X146.2Y-124.3
X147.1Y-142.3
X182.2Y-132.8
X183.1Y-150.8
T4
X90.Y-59.
X90.Y-113.
X182.Y-59.
X182.Y-113.
T5
X101.132Y-85.185
X101.132Y-96.615
T0
M30
