  0
SECTION
  2
HEADER
  9
$ANGBASE
  50
0.0
  9
$ANGDIR
  70
  1
  9
$MEASUREMENT
  70
0
  0
ENDSEC
  0
SECTION
  2
TABLES
  0
TABLE
  2
LTYPE
  70
1
  0
LTYPE
  2
CONTINUOUS
  70
0
  3
Solid line
  72
65
  73
0
  40
0.0
  0
ENDTAB
  0
TABLE
  2
STYLE
  70
4
  0
STYLE
  2
KICAD
  70
0
  40
0
  41
1
  42
1
  50
0
  71
0
  3
isocp.shx
  0
STYLE
  2
KICADB
  70
0
  40
0
  41
1
  42
1
  50
0
  71
0
  3
isocp.shx
  0
STYLE
  2
KICADI
  70
0
  40
0
  41
1
  42
1
  50
15
  71
0
  3
isocp.shx
  0
STYLE
  2
KICADBI
  70
0
  40
0
  41
1
  42
1
  50
15
  71
0
  3
isocp.shx
  0
ENDTAB
  0
TABLE
  2
LAYER
  70
30
  0
LAYER
  2
BLACK
  70
0
  62
7
  6
CONTINUOUS
  0
LAYER
  2
GRAY1
  70
0
  62
251
  6
CONTINUOUS
  0
LAYER
  2
GRAY2
  70
0
  62
8
  6
CONTINUOUS
  0
LAYER
  2
GRAY3
  70
0
  62
9
  6
CONTINUOUS
  0
LAYER
  2
WHITE
  70
0
  62
7
  6
CONTINUOUS
  0
LAYER
  2
LYELLOW
  70
0
  62
51
  6
CONTINUOUS
  0
LAYER
  2
BLUE1
  70
0
  62
178
  6
CONTINUOUS
  0
LAYER
  2
GREEN1
  70
0
  62
98
  6
CONTINUOUS
  0
LAYER
  2
CYAN1
  70
0
  62
138
  6
CONTINUOUS
  0
LAYER
  2
RED1
  70
0
  62
18
  6
CONTINUOUS
  0
LAYER
  2
MAGENTA1
  70
0
  62
228
  6
CONTINUOUS
  0
LAYER
  2
BROWN1
  70
0
  62
58
  6
CONTINUOUS
  0
LAYER
  2
BLUE2
  70
0
  62
5
  6
CONTINUOUS
  0
LAYER
  2
GREEN2
  70
0
  62
3
  6
CONTINUOUS
  0
LAYER
  2
CYAN2
  70
0
  62
4
  6
CONTINUOUS
  0
LAYER
  2
RED2
  70
0
  62
1
  6
CONTINUOUS
  0
LAYER
  2
MAGENTA2
  70
0
  62
6
  6
CONTINUOUS
  0
LAYER
  2
BROWN2
  70
0
  62
54
  6
CONTINUOUS
  0
LAYER
  2
BLUE3
  70
0
  62
171
  6
CONTINUOUS
  0
LAYER
  2
GREEN3
  70
0
  62
91
  6
CONTINUOUS
  0
LAYER
  2
CYAN3
  70
0
  62
131
  6
CONTINUOUS
  0
LAYER
  2
RED3
  70
0
  62
11
  6
CONTINUOUS
  0
LAYER
  2
MAGENTA3
  70
0
  62
221
  6
CONTINUOUS
  0
LAYER
  2
YELLOW3
  70
0
  62
2
  6
CONTINUOUS
  0
LAYER
  2
BLUE4
  70
0
  62
5
  6
CONTINUOUS
  0
LAYER
  2
GREEN4
  70
0
  62
3
  6
CONTINUOUS
  0
LAYER
  2
CYAN4
  70
0
  62
4
  6
CONTINUOUS
  0
LAYER
  2
RED4
  70
0
  62
1
  6
CONTINUOUS
  0
LAYER
  2
MAGENTA4
  70
0
  62
6
  6
CONTINUOUS
  0
LAYER
  2
YELLOW4
  70
0
  62
2
  6
CONTINUOUS
  0
ENDTAB
  0
ENDSEC
  0
SECTION
  2
ENTITIES
0
LINE
8
Black
10
135.37
20
-107.87
11
134.41
21
-107.87
0
LINE
8
Black
10
134.41
20
-107.87
11
134.41
21
-106.99
0
LINE
8
Black
10
134.41
20
-106.99
11
135.37
21
-106.99
0
LINE
8
Black
10
135.37
20
-106.99
11
135.37
21
-107.87
0
LINE
8
Black
10
137.07
20
-107.87
11
136.11
21
-107.87
0
LINE
8
Black
10
136.11
20
-107.87
11
136.11
21
-106.99
0
LINE
8
Black
10
136.11
20
-106.99
11
137.07
21
-106.99
0
LINE
8
Black
10
137.07
20
-106.99
11
137.07
21
-107.87
0
LINE
8
Black
10
133.99
20
-107.762
11
133.19
21
-107.762
0
LINE
8
Black
10
133.19
20
-107.762
11
133.19
21
-107.042
0
LINE
8
Black
10
133.19
20
-107.042
11
133.99
21
-107.042
0
LINE
8
Black
10
133.99
20
-107.042
11
133.99
21
-107.762
0
LINE
8
Black
10
138.46
20
-107.762
11
137.66
21
-107.762
0
LINE
8
Black
10
137.66
20
-107.762
11
137.66
21
-107.042
0
LINE
8
Black
10
137.66
20
-107.042
11
138.46
21
-107.042
0
LINE
8
Black
10
138.46
20
-107.042
11
138.46
21
-107.762
0
LINE
8
Black
10
104.608
20
-106.809
11
103.897
21
-106.809
0
LINE
8
Black
10
103.897
20
-106.809
11
103.897
21
-105.691
0
LINE
8
Black
10
103.897
20
-105.691
11
104.608
21
-105.691
0
LINE
8
Black
10
104.608
20
-105.691
11
104.608
21
-106.809
0
LINE
8
Black
10
102.703
20
-106.809
11
101.992
21
-106.809
0
LINE
8
Black
10
101.992
20
-106.809
11
101.992
21
-105.691
0
LINE
8
Black
10
101.992
20
-105.691
11
102.703
21
-105.691
0
LINE
8
Black
10
102.703
20
-105.691
11
102.703
21
-106.809
0
LINE
8
Black
10
135.37
20
-106.47
11
134.41
21
-106.47
0
LINE
8
Black
10
134.41
20
-106.47
11
134.41
21
-105.59
0
LINE
8
Black
10
134.41
20
-105.59
11
135.37
21
-105.59
0
LINE
8
Black
10
135.37
20
-105.59
11
135.37
21
-106.47
0
LINE
8
Black
10
137.07
20
-106.47
11
136.11
21
-106.47
0
LINE
8
Black
10
136.11
20
-106.47
11
136.11
21
-105.59
0
LINE
8
Black
10
136.11
20
-105.59
11
137.07
21
-105.59
0
LINE
8
Black
10
137.07
20
-105.59
11
137.07
21
-106.47
0
LINE
8
Black
10
133.99
20
-106.258
11
133.19
21
-106.258
0
LINE
8
Black
10
133.19
20
-106.258
11
133.19
21
-105.538
0
LINE
8
Black
10
133.19
20
-105.538
11
133.99
21
-105.538
0
LINE
8
Black
10
133.99
20
-105.538
11
133.99
21
-106.258
0
LINE
8
Black
10
138.46
20
-106.258
11
137.66
21
-106.258
0
LINE
8
Black
10
137.66
20
-106.258
11
137.66
21
-105.538
0
LINE
8
Black
10
137.66
20
-105.538
11
138.46
21
-105.538
0
LINE
8
Black
10
138.46
20
-105.538
11
138.46
21
-106.258
0
LINE
8
Black
10
139.89
20
-105.432
11
139.09
21
-105.432
0
LINE
8
Black
10
139.09
20
-105.432
11
139.09
21
-104.712
0
LINE
8
Black
10
139.09
20
-104.712
11
139.89
21
-104.712
0
LINE
8
Black
10
139.89
20
-104.712
11
139.89
21
-105.432
0
LINE
8
Black
10
141.23
20
-105.432
11
140.43
21
-105.432
0
LINE
8
Black
10
140.43
20
-105.432
11
140.43
21
-104.712
0
LINE
8
Black
10
140.43
20
-104.712
11
141.23
21
-104.712
0
LINE
8
Black
10
141.23
20
-104.712
11
141.23
21
-105.432
0
LINE
8
Black
10
164.808
20
-105.24
11
164.088
21
-105.24
0
LINE
8
Black
10
164.088
20
-105.24
11
164.088
21
-104.44
0
LINE
8
Black
10
164.088
20
-104.44
11
164.808
21
-104.44
0
LINE
8
Black
10
164.808
20
-104.44
11
164.808
21
-105.24
0
LINE
8
Black
10
166.312
20
-105.24
11
165.592
21
-105.24
0
LINE
8
Black
10
165.592
20
-105.24
11
165.592
21
-104.44
0
LINE
8
Black
10
165.592
20
-104.44
11
166.312
21
-104.44
0
LINE
8
Black
10
166.312
20
-104.44
11
166.312
21
-105.24
0
LINE
8
Black
10
142.65
20
-104.882
11
141.85
21
-104.882
0
LINE
8
Black
10
141.85
20
-104.882
11
141.85
21
-104.162
0
LINE
8
Black
10
141.85
20
-104.162
11
142.65
21
-104.162
0
LINE
8
Black
10
142.65
20
-104.162
11
142.65
21
-104.882
0
LINE
8
Black
10
145.4
20
-104.862
11
144.6
21
-104.862
0
LINE
8
Black
10
144.6
20
-104.862
11
144.6
21
-104.142
0
LINE
8
Black
10
144.6
20
-104.142
11
145.4
21
-104.142
0
LINE
8
Black
10
145.4
20
-104.142
11
145.4
21
-104.862
0
LINE
8
Black
10
144.15
20
-104.862
11
143.35
21
-104.862
0
LINE
8
Black
10
143.35
20
-104.862
11
143.35
21
-104.142
0
LINE
8
Black
10
143.35
20
-104.142
11
144.15
21
-104.142
0
LINE
8
Black
10
144.15
20
-104.142
11
144.15
21
-104.862
0
LINE
8
Black
10
132.94
20
-104.542
11
132.14
21
-104.542
0
LINE
8
Black
10
132.14
20
-104.542
11
132.14
21
-103.822
0
LINE
8
Black
10
132.14
20
-103.822
11
132.94
21
-103.822
0
LINE
8
Black
10
132.94
20
-103.822
11
132.94
21
-104.542
0
LINE
8
Black
10
113.025
20
-104.54
11
111.945
21
-104.54
0
LINE
8
Black
10
111.945
20
-104.54
11
111.945
21
-102.38
0
LINE
8
Black
10
111.945
20
-102.38
11
113.025
21
-102.38
0
LINE
8
Black
10
113.025
20
-102.38
11
113.025
21
-104.54
0
LINE
8
Black
10
115.775
20
-104.54
11
114.695
21
-104.54
0
LINE
8
Black
10
114.695
20
-104.54
11
114.695
21
-102.38
0
LINE
8
Black
10
114.695
20
-102.38
11
115.775
21
-102.38
0
LINE
8
Black
10
115.775
20
-102.38
11
115.775
21
-104.54
0
LINE
8
Black
10
134.63
20
-104.252
11
133.83
21
-104.252
0
LINE
8
Black
10
133.83
20
-104.252
11
133.83
21
-103.532
0
LINE
8
Black
10
133.83
20
-103.532
11
134.63
21
-103.532
0
LINE
8
Black
10
134.63
20
-103.532
11
134.63
21
-104.252
0
LINE
8
Black
10
138.22
20
-104.242
11
137.42
21
-104.242
0
LINE
8
Black
10
137.42
20
-104.242
11
137.42
21
-103.522
0
LINE
8
Black
10
137.42
20
-103.522
11
138.22
21
-103.522
0
LINE
8
Black
10
138.22
20
-103.522
11
138.22
21
-104.242
0
LINE
8
Black
10
131.38
20
-104.232
11
130.58
21
-104.232
0
LINE
8
Black
10
130.58
20
-104.232
11
130.58
21
-103.512
0
LINE
8
Black
10
130.58
20
-103.512
11
131.38
21
-103.512
0
LINE
8
Black
10
131.38
20
-103.512
11
131.38
21
-104.232
0
LINE
8
Black
10
136.85
20
-104.182
11
136.05
21
-104.182
0
LINE
8
Black
10
136.05
20
-104.182
11
136.05
21
-103.462
0
LINE
8
Black
10
136.05
20
-103.462
11
136.85
21
-103.462
0
LINE
8
Black
10
136.85
20
-103.462
11
136.85
21
-104.182
0
LINE
8
Black
10
130.08
20
-104.092
11
129.28
21
-104.092
0
LINE
8
Black
10
129.28
20
-104.092
11
129.28
21
-103.372
0
LINE
8
Black
10
129.28
20
-103.372
11
130.08
21
-103.372
0
LINE
8
Black
10
130.08
20
-103.372
11
130.08
21
-104.092
0
LINE
8
Black
10
103.43
20
-104.065
11
101.27
21
-104.065
0
LINE
8
Black
10
101.27
20
-104.065
11
101.27
21
-102.985
0
LINE
8
Black
10
101.27
20
-102.985
11
103.43
21
-102.985
0
LINE
8
Black
10
103.43
20
-102.985
11
103.43
21
-104.065
0
LINE
8
Black
10
139.89
20
-103.928
11
139.09
21
-103.928
0
LINE
8
Black
10
139.09
20
-103.928
11
139.09
21
-103.208
0
LINE
8
Black
10
139.09
20
-103.208
11
139.89
21
-103.208
0
LINE
8
Black
10
139.89
20
-103.208
11
139.89
21
-103.928
0
LINE
8
Black
10
141.23
20
-103.928
11
140.43
21
-103.928
0
LINE
8
Black
10
140.43
20
-103.928
11
140.43
21
-103.208
0
LINE
8
Black
10
140.43
20
-103.208
11
141.23
21
-103.208
0
LINE
8
Black
10
141.23
20
-103.208
11
141.23
21
-103.928
0
LINE
8
Black
10
142.65
20
-103.378
11
141.85
21
-103.378
0
LINE
8
Black
10
141.85
20
-103.378
11
141.85
21
-102.658
0
LINE
8
Black
10
141.85
20
-102.658
11
142.65
21
-102.658
0
LINE
8
Black
10
142.65
20
-102.658
11
142.65
21
-103.378
0
LINE
8
Black
10
145.4
20
-103.358
11
144.6
21
-103.358
0
LINE
8
Black
10
144.6
20
-103.358
11
144.6
21
-102.638
0
LINE
8
Black
10
144.6
20
-102.638
11
145.4
21
-102.638
0
LINE
8
Black
10
145.4
20
-102.638
11
145.4
21
-103.358
0
LINE
8
Black
10
144.15
20
-103.358
11
143.35
21
-103.358
0
LINE
8
Black
10
143.35
20
-103.358
11
143.35
21
-102.638
0
LINE
8
Black
10
143.35
20
-102.638
11
144.15
21
-102.638
0
LINE
8
Black
10
144.15
20
-102.638
11
144.15
21
-103.358
0
LINE
8
Black
10
109.309
20
-103.058
11
108.191
21
-103.058
0
LINE
8
Black
10
108.191
20
-103.058
11
108.191
21
-102.347
0
LINE
8
Black
10
108.191
20
-102.347
11
109.309
21
-102.347
0
LINE
8
Black
10
109.309
20
-102.347
11
109.309
21
-103.058
0
LINE
8
Black
10
132.94
20
-103.038
11
132.14
21
-103.038
0
LINE
8
Black
10
132.14
20
-103.038
11
132.14
21
-102.318
0
LINE
8
Black
10
132.14
20
-102.318
11
132.94
21
-102.318
0
LINE
8
Black
10
132.94
20
-102.318
11
132.94
21
-103.038
0
LINE
8
Black
10
166.312
20
-102.9
11
165.592
21
-102.9
0
LINE
8
Black
10
165.592
20
-102.9
11
165.592
21
-102.1
0
LINE
8
Black
10
165.592
20
-102.1
11
166.312
21
-102.1
0
LINE
8
Black
10
166.312
20
-102.1
11
166.312
21
-102.9
0
LINE
8
Black
10
164.808
20
-102.9
11
164.088
21
-102.9
0
LINE
8
Black
10
164.088
20
-102.9
11
164.088
21
-102.1
0
LINE
8
Black
10
164.088
20
-102.1
11
164.808
21
-102.1
0
LINE
8
Black
10
164.808
20
-102.1
11
164.808
21
-102.9
0
LINE
8
Black
10
134.63
20
-102.748
11
133.83
21
-102.748
0
LINE
8
Black
10
133.83
20
-102.748
11
133.83
21
-102.028
0
LINE
8
Black
10
133.83
20
-102.028
11
134.63
21
-102.028
0
LINE
8
Black
10
134.63
20
-102.028
11
134.63
21
-102.748
0
LINE
8
Black
10
138.22
20
-102.738
11
137.42
21
-102.738
0
LINE
8
Black
10
137.42
20
-102.738
11
137.42
21
-102.018
0
LINE
8
Black
10
137.42
20
-102.018
11
138.22
21
-102.018
0
LINE
8
Black
10
138.22
20
-102.018
11
138.22
21
-102.738
0
LINE
8
Black
10
131.38
20
-102.728
11
130.58
21
-102.728
0
LINE
8
Black
10
130.58
20
-102.728
11
130.58
21
-102.008
0
LINE
8
Black
10
130.58
20
-102.008
11
131.38
21
-102.008
0
LINE
8
Black
10
131.38
20
-102.008
11
131.38
21
-102.728
0
LINE
8
Black
10
136.85
20
-102.678
11
136.05
21
-102.678
0
LINE
8
Black
10
136.05
20
-102.678
11
136.05
21
-101.958
0
LINE
8
Black
10
136.05
20
-101.958
11
136.85
21
-101.958
0
LINE
8
Black
10
136.85
20
-101.958
11
136.85
21
-102.678
0
LINE
8
Black
10
130.08
20
-102.588
11
129.28
21
-102.588
0
LINE
8
Black
10
129.28
20
-102.588
11
129.28
21
-101.868
0
LINE
8
Black
10
129.28
20
-101.868
11
130.08
21
-101.868
0
LINE
8
Black
10
130.08
20
-101.868
11
130.08
21
-102.588
0
LINE
8
Black
10
161.612
20
-102.05
11
160.892
21
-102.05
0
LINE
8
Black
10
160.892
20
-102.05
11
160.892
21
-101.25
0
LINE
8
Black
10
160.892
20
-101.25
11
161.612
21
-101.25
0
LINE
8
Black
10
161.612
20
-101.25
11
161.612
21
-102.05
0
LINE
8
Black
10
160.108
20
-102.05
11
159.388
21
-102.05
0
LINE
8
Black
10
159.388
20
-102.05
11
159.388
21
-101.25
0
LINE
8
Black
10
159.388
20
-101.25
11
160.108
21
-101.25
0
LINE
8
Black
10
160.108
20
-101.25
11
160.108
21
-102.05
0
LINE
8
Black
10
118.518
20
-101.53
11
117.798
21
-101.53
0
LINE
8
Black
10
117.798
20
-101.53
11
117.798
21
-100.73
0
LINE
8
Black
10
117.798
20
-100.73
11
118.518
21
-100.73
0
LINE
8
Black
10
118.518
20
-100.73
11
118.518
21
-101.53
0
LINE
8
Black
10
120.022
20
-101.53
11
119.302
21
-101.53
0
LINE
8
Black
10
119.302
20
-101.53
11
119.302
21
-100.73
0
LINE
8
Black
10
119.302
20
-100.73
11
120.022
21
-100.73
0
LINE
8
Black
10
120.022
20
-100.73
11
120.022
21
-101.53
0
LINE
8
Black
10
164.808
20
-101.45
11
164.088
21
-101.45
0
LINE
8
Black
10
164.088
20
-101.45
11
164.088
21
-100.65
0
LINE
8
Black
10
164.088
20
-100.65
11
164.808
21
-100.65
0
LINE
8
Black
10
164.808
20
-100.65
11
164.808
21
-101.45
0
LINE
8
Black
10
166.312
20
-101.45
11
165.592
21
-101.45
0
LINE
8
Black
10
165.592
20
-101.45
11
165.592
21
-100.65
0
LINE
8
Black
10
165.592
20
-100.65
11
166.312
21
-100.65
0
LINE
8
Black
10
166.312
20
-100.65
11
166.312
21
-101.45
0
LINE
8
Black
10
117.08
20
-101.415
11
114.92
21
-101.415
0
LINE
8
Black
10
114.92
20
-101.415
11
114.92
21
-100.335
0
LINE
8
Black
10
114.92
20
-100.335
11
117.08
21
-100.335
0
LINE
8
Black
10
117.08
20
-100.335
11
117.08
21
-101.415
0
LINE
8
Black
10
103.43
20
-101.315
11
101.27
21
-101.315
0
LINE
8
Black
10
101.27
20
-101.315
11
101.27
21
-100.235
0
LINE
8
Black
10
101.27
20
-100.235
11
103.43
21
-100.235
0
LINE
8
Black
10
103.43
20
-100.235
11
103.43
21
-101.315
0
LINE
8
Black
10
135.362
20
-101.3
11
135.138
21
-101.3
0
LINE
8
Black
10
135.138
20
-101.3
11
135.138
21
-100.1
0
LINE
8
Black
10
135.138
20
-100.1
11
135.362
21
-100.1
0
LINE
8
Black
10
135.362
20
-100.1
11
135.362
21
-101.3
0
LINE
8
Black
10
133.362
20
-101.3
11
133.138
21
-101.3
0
LINE
8
Black
10
133.138
20
-101.3
11
133.138
21
-100.1
0
LINE
8
Black
10
133.138
20
-100.1
11
133.362
21
-100.1
0
LINE
8
Black
10
133.362
20
-100.1
11
133.362
21
-101.3
0
LINE
8
Black
10
134.862
20
-101.3
11
134.638
21
-101.3
0
LINE
8
Black
10
134.638
20
-101.3
11
134.638
21
-100.1
0
LINE
8
Black
10
134.638
20
-100.1
11
134.862
21
-100.1
0
LINE
8
Black
10
134.862
20
-100.1
11
134.862
21
-101.3
0
LINE
8
Black
10
134.362
20
-101.3
11
134.138
21
-101.3
0
LINE
8
Black
10
134.138
20
-101.3
11
134.138
21
-100.1
0
LINE
8
Black
10
134.138
20
-100.1
11
134.362
21
-100.1
0
LINE
8
Black
10
134.362
20
-100.1
11
134.362
21
-101.3
0
LINE
8
Black
10
133.862
20
-101.3
11
133.638
21
-101.3
0
LINE
8
Black
10
133.638
20
-101.3
11
133.638
21
-100.1
0
LINE
8
Black
10
133.638
20
-100.1
11
133.862
21
-100.1
0
LINE
8
Black
10
133.862
20
-100.1
11
133.862
21
-101.3
0
LINE
8
Black
10
126.362
20
-101.3
11
126.138
21
-101.3
0
LINE
8
Black
10
126.138
20
-101.3
11
126.138
21
-100.1
0
LINE
8
Black
10
126.138
20
-100.1
11
126.362
21
-100.1
0
LINE
8
Black
10
126.362
20
-100.1
11
126.362
21
-101.3
0
LINE
8
Black
10
126.862
20
-101.3
11
126.638
21
-101.3
0
LINE
8
Black
10
126.638
20
-101.3
11
126.638
21
-100.1
0
LINE
8
Black
10
126.638
20
-100.1
11
126.862
21
-100.1
0
LINE
8
Black
10
126.862
20
-100.1
11
126.862
21
-101.3
0
LINE
8
Black
10
127.362
20
-101.3
11
127.138
21
-101.3
0
LINE
8
Black
10
127.138
20
-101.3
11
127.138
21
-100.1
0
LINE
8
Black
10
127.138
20
-100.1
11
127.362
21
-100.1
0
LINE
8
Black
10
127.362
20
-100.1
11
127.362
21
-101.3
0
LINE
8
Black
10
127.862
20
-101.3
11
127.638
21
-101.3
0
LINE
8
Black
10
127.638
20
-101.3
11
127.638
21
-100.1
0
LINE
8
Black
10
127.638
20
-100.1
11
127.862
21
-100.1
0
LINE
8
Black
10
127.862
20
-100.1
11
127.862
21
-101.3
0
LINE
8
Black
10
128.362
20
-101.3
11
128.138
21
-101.3
0
LINE
8
Black
10
128.138
20
-101.3
11
128.138
21
-100.1
0
LINE
8
Black
10
128.138
20
-100.1
11
128.362
21
-100.1
0
LINE
8
Black
10
128.362
20
-100.1
11
128.362
21
-101.3
0
LINE
8
Black
10
128.862
20
-101.3
11
128.638
21
-101.3
0
LINE
8
Black
10
128.638
20
-101.3
11
128.638
21
-100.1
0
LINE
8
Black
10
128.638
20
-100.1
11
128.862
21
-100.1
0
LINE
8
Black
10
128.862
20
-100.1
11
128.862
21
-101.3
0
LINE
8
Black
10
129.362
20
-101.3
11
129.138
21
-101.3
0
LINE
8
Black
10
129.138
20
-101.3
11
129.138
21
-100.1
0
LINE
8
Black
10
129.138
20
-100.1
11
129.362
21
-100.1
0
LINE
8
Black
10
129.362
20
-100.1
11
129.362
21
-101.3
0
LINE
8
Black
10
129.862
20
-101.3
11
129.638
21
-101.3
0
LINE
8
Black
10
129.638
20
-101.3
11
129.638
21
-100.1
0
LINE
8
Black
10
129.638
20
-100.1
11
129.862
21
-100.1
0
LINE
8
Black
10
129.862
20
-100.1
11
129.862
21
-101.3
0
LINE
8
Black
10
130.362
20
-101.3
11
130.138
21
-101.3
0
LINE
8
Black
10
130.138
20
-101.3
11
130.138
21
-100.1
0
LINE
8
Black
10
130.138
20
-100.1
11
130.362
21
-100.1
0
LINE
8
Black
10
130.362
20
-100.1
11
130.362
21
-101.3
0
LINE
8
Black
10
130.862
20
-101.3
11
130.638
21
-101.3
0
LINE
8
Black
10
130.638
20
-101.3
11
130.638
21
-100.1
0
LINE
8
Black
10
130.638
20
-100.1
11
130.862
21
-100.1
0
LINE
8
Black
10
130.862
20
-100.1
11
130.862
21
-101.3
0
LINE
8
Black
10
131.362
20
-101.3
11
131.138
21
-101.3
0
LINE
8
Black
10
131.138
20
-101.3
11
131.138
21
-100.1
0
LINE
8
Black
10
131.138
20
-100.1
11
131.362
21
-100.1
0
LINE
8
Black
10
131.362
20
-100.1
11
131.362
21
-101.3
0
LINE
8
Black
10
131.862
20
-101.3
11
131.638
21
-101.3
0
LINE
8
Black
10
131.638
20
-101.3
11
131.638
21
-100.1
0
LINE
8
Black
10
131.638
20
-100.1
11
131.862
21
-100.1
0
LINE
8
Black
10
131.862
20
-100.1
11
131.862
21
-101.3
0
LINE
8
Black
10
132.362
20
-101.3
11
132.138
21
-101.3
0
LINE
8
Black
10
132.138
20
-101.3
11
132.138
21
-100.1
0
LINE
8
Black
10
132.138
20
-100.1
11
132.362
21
-100.1
0
LINE
8
Black
10
132.362
20
-100.1
11
132.362
21
-101.3
0
LINE
8
Black
10
132.862
20
-101.3
11
132.638
21
-101.3
0
LINE
8
Black
10
132.638
20
-101.3
11
132.638
21
-100.1
0
LINE
8
Black
10
132.638
20
-100.1
11
132.862
21
-100.1
0
LINE
8
Black
10
132.862
20
-100.1
11
132.862
21
-101.3
0
LINE
8
Black
10
136.362
20
-101.3
11
136.138
21
-101.3
0
LINE
8
Black
10
136.138
20
-101.3
11
136.138
21
-100.1
0
LINE
8
Black
10
136.138
20
-100.1
11
136.362
21
-100.1
0
LINE
8
Black
10
136.362
20
-100.1
11
136.362
21
-101.3
0
LINE
8
Black
10
144.862
20
-101.3
11
144.638
21
-101.3
0
LINE
8
Black
10
144.638
20
-101.3
11
144.638
21
-100.1
0
LINE
8
Black
10
144.638
20
-100.1
11
144.862
21
-100.1
0
LINE
8
Black
10
144.862
20
-100.1
11
144.862
21
-101.3
0
LINE
8
Black
10
144.362
20
-101.3
11
144.138
21
-101.3
0
LINE
8
Black
10
144.138
20
-101.3
11
144.138
21
-100.1
0
LINE
8
Black
10
144.138
20
-100.1
11
144.362
21
-100.1
0
LINE
8
Black
10
144.362
20
-100.1
11
144.362
21
-101.3
0
LINE
8
Black
10
143.862
20
-101.3
11
143.638
21
-101.3
0
LINE
8
Black
10
143.638
20
-101.3
11
143.638
21
-100.1
0
LINE
8
Black
10
143.638
20
-100.1
11
143.862
21
-100.1
0
LINE
8
Black
10
143.862
20
-100.1
11
143.862
21
-101.3
0
LINE
8
Black
10
143.362
20
-101.3
11
143.138
21
-101.3
0
LINE
8
Black
10
143.138
20
-101.3
11
143.138
21
-100.1
0
LINE
8
Black
10
143.138
20
-100.1
11
143.362
21
-100.1
0
LINE
8
Black
10
143.362
20
-100.1
11
143.362
21
-101.3
0
LINE
8
Black
10
142.862
20
-101.3
11
142.638
21
-101.3
0
LINE
8
Black
10
142.638
20
-101.3
11
142.638
21
-100.1
0
LINE
8
Black
10
142.638
20
-100.1
11
142.862
21
-100.1
0
LINE
8
Black
10
142.862
20
-100.1
11
142.862
21
-101.3
0
LINE
8
Black
10
142.362
20
-101.3
11
142.138
21
-101.3
0
LINE
8
Black
10
142.138
20
-101.3
11
142.138
21
-100.1
0
LINE
8
Black
10
142.138
20
-100.1
11
142.362
21
-100.1
0
LINE
8
Black
10
142.362
20
-100.1
11
142.362
21
-101.3
0
LINE
8
Black
10
141.862
20
-101.3
11
141.638
21
-101.3
0
LINE
8
Black
10
141.638
20
-101.3
11
141.638
21
-100.1
0
LINE
8
Black
10
141.638
20
-100.1
11
141.862
21
-100.1
0
LINE
8
Black
10
141.862
20
-100.1
11
141.862
21
-101.3
0
LINE
8
Black
10
141.362
20
-101.3
11
141.138
21
-101.3
0
LINE
8
Black
10
141.138
20
-101.3
11
141.138
21
-100.1
0
LINE
8
Black
10
141.138
20
-100.1
11
141.362
21
-100.1
0
LINE
8
Black
10
141.362
20
-100.1
11
141.362
21
-101.3
0
LINE
8
Black
10
140.862
20
-101.3
11
140.638
21
-101.3
0
LINE
8
Black
10
140.638
20
-101.3
11
140.638
21
-100.1
0
LINE
8
Black
10
140.638
20
-100.1
11
140.862
21
-100.1
0
LINE
8
Black
10
140.862
20
-100.1
11
140.862
21
-101.3
0
LINE
8
Black
10
140.362
20
-101.3
11
140.138
21
-101.3
0
LINE
8
Black
10
140.138
20
-101.3
11
140.138
21
-100.1
0
LINE
8
Black
10
140.138
20
-100.1
11
140.362
21
-100.1
0
LINE
8
Black
10
140.362
20
-100.1
11
140.362
21
-101.3
0
LINE
8
Black
10
139.862
20
-101.3
11
139.638
21
-101.3
0
LINE
8
Black
10
139.638
20
-101.3
11
139.638
21
-100.1
0
LINE
8
Black
10
139.638
20
-100.1
11
139.862
21
-100.1
0
LINE
8
Black
10
139.862
20
-100.1
11
139.862
21
-101.3
0
LINE
8
Black
10
139.362
20
-101.3
11
139.138
21
-101.3
0
LINE
8
Black
10
139.138
20
-101.3
11
139.138
21
-100.1
0
LINE
8
Black
10
139.138
20
-100.1
11
139.362
21
-100.1
0
LINE
8
Black
10
139.362
20
-100.1
11
139.362
21
-101.3
0
LINE
8
Black
10
138.862
20
-101.3
11
138.638
21
-101.3
0
LINE
8
Black
10
138.638
20
-101.3
11
138.638
21
-100.1
0
LINE
8
Black
10
138.638
20
-100.1
11
138.862
21
-100.1
0
LINE
8
Black
10
138.862
20
-100.1
11
138.862
21
-101.3
0
LINE
8
Black
10
138.362
20
-101.3
11
138.138
21
-101.3
0
LINE
8
Black
10
138.138
20
-101.3
11
138.138
21
-100.1
0
LINE
8
Black
10
138.138
20
-100.1
11
138.362
21
-100.1
0
LINE
8
Black
10
138.362
20
-100.1
11
138.362
21
-101.3
0
LINE
8
Black
10
137.862
20
-101.3
11
137.638
21
-101.3
0
LINE
8
Black
10
137.638
20
-101.3
11
137.638
21
-100.1
0
LINE
8
Black
10
137.638
20
-100.1
11
137.862
21
-100.1
0
LINE
8
Black
10
137.862
20
-100.1
11
137.862
21
-101.3
0
LINE
8
Black
10
137.362
20
-101.3
11
137.138
21
-101.3
0
LINE
8
Black
10
137.138
20
-101.3
11
137.138
21
-100.1
0
LINE
8
Black
10
137.138
20
-100.1
11
137.362
21
-100.1
0
LINE
8
Black
10
137.362
20
-100.1
11
137.362
21
-101.3
0
LINE
8
Black
10
136.862
20
-101.3
11
136.638
21
-101.3
0
LINE
8
Black
10
136.638
20
-101.3
11
136.638
21
-100.1
0
LINE
8
Black
10
136.638
20
-100.1
11
136.862
21
-100.1
0
LINE
8
Black
10
136.862
20
-100.1
11
136.862
21
-101.3
0
LINE
8
Black
10
135.862
20
-101.3
11
135.638
21
-101.3
0
LINE
8
Black
10
135.638
20
-101.3
11
135.638
21
-100.1
0
LINE
8
Black
10
135.638
20
-100.1
11
135.862
21
-100.1
0
LINE
8
Black
10
135.862
20
-100.1
11
135.862
21
-101.3
0
LINE
8
Black
10
109.309
20
-101.153
11
108.191
21
-101.153
0
LINE
8
Black
10
108.191
20
-101.153
11
108.191
21
-100.442
0
LINE
8
Black
10
108.191
20
-100.442
11
109.309
21
-100.442
0
LINE
8
Black
10
109.309
20
-100.442
11
109.309
21
-101.153
0
LINE
8
Black
10
119.7
20
-100.075
11
118.1
21
-100.075
0
LINE
8
Black
10
118.1
20
-100.075
11
118.1
21
-99.075
0
LINE
8
Black
10
118.1
20
-99.075
11
119.7
21
-99.075
0
LINE
8
Black
10
119.7
20
-99.075
11
119.7
21
-100.075
0
LINE
8
Black
10
164.808
20
-100.05
11
164.088
21
-100.05
0
LINE
8
Black
10
164.088
20
-100.05
11
164.088
21
-99.2497
0
LINE
8
Black
10
164.088
20
-99.2497
11
164.808
21
-99.2497
0
LINE
8
Black
10
164.808
20
-99.2497
11
164.808
21
-100.05
0
LINE
8
Black
10
166.312
20
-100.05
11
165.592
21
-100.05
0
LINE
8
Black
10
165.592
20
-100.05
11
165.592
21
-99.2497
0
LINE
8
Black
10
165.592
20
-99.2497
11
166.312
21
-99.2497
0
LINE
8
Black
10
166.312
20
-99.2497
11
166.312
21
-100.05
0
LINE
8
Black
10
152.562
20
-99.2253
11
151.842
21
-99.2253
0
LINE
8
Black
10
151.842
20
-99.2253
11
151.842
21
-98.4247
0
LINE
8
Black
10
151.842
20
-98.4247
11
152.562
21
-98.4247
0
LINE
8
Black
10
152.562
20
-98.4247
11
152.562
21
-99.2253
0
LINE
8
Black
10
151.058
20
-99.2253
11
150.338
21
-99.2253
0
LINE
8
Black
10
150.338
20
-99.2253
11
150.338
21
-98.4247
0
LINE
8
Black
10
150.338
20
-98.4247
11
151.058
21
-98.4247
0
LINE
8
Black
10
151.058
20
-98.4247
11
151.058
21
-99.2253
0
LINE
8
Black
10
147.3
20
-98.862
11
146.1
21
-98.862
0
LINE
8
Black
10
146.1
20
-98.862
11
146.1
21
-98.638
0
LINE
8
Black
10
146.1
20
-98.638
11
147.3
21
-98.638
0
LINE
8
Black
10
147.3
20
-98.638
11
147.3
21
-98.862
0
LINE
8
Black
10
124.9
20
-98.862
11
123.7
21
-98.862
0
LINE
8
Black
10
123.7
20
-98.862
11
123.7
21
-98.638
0
LINE
8
Black
10
123.7
20
-98.638
11
124.9
21
-98.638
0
LINE
8
Black
10
124.9
20
-98.638
11
124.9
21
-98.862
0
LINE
8
Black
10
117.08
20
-98.665
11
114.92
21
-98.665
0
LINE
8
Black
10
114.92
20
-98.665
11
114.92
21
-97.585
0
LINE
8
Black
10
114.92
20
-97.585
11
117.08
21
-97.585
0
LINE
8
Black
10
117.08
20
-97.585
11
117.08
21
-98.665
0
LINE
8
Black
10
124.9
20
-98.362
11
123.7
21
-98.362
0
LINE
8
Black
10
123.7
20
-98.362
11
123.7
21
-98.138
0
LINE
8
Black
10
123.7
20
-98.138
11
124.9
21
-98.138
0
LINE
8
Black
10
124.9
20
-98.138
11
124.9
21
-98.362
0
LINE
8
Black
10
147.3
20
-98.362
11
146.1
21
-98.362
0
LINE
8
Black
10
146.1
20
-98.362
11
146.1
21
-98.138
0
LINE
8
Black
10
146.1
20
-98.138
11
147.3
21
-98.138
0
LINE
8
Black
10
147.3
20
-98.138
11
147.3
21
-98.362
0
LINE
8
Black
10
121.048
20
-98.1803
11
120.328
21
-98.1803
0
LINE
8
Black
10
120.328
20
-98.1803
11
120.328
21
-97.3797
0
LINE
8
Black
10
120.328
20
-97.3797
11
121.048
21
-97.3797
0
LINE
8
Black
10
121.048
20
-97.3797
11
121.048
21
-98.1803
0
LINE
8
Black
10
122.552
20
-98.18
11
121.832
21
-98.18
0
LINE
8
Black
10
121.832
20
-98.18
11
121.832
21
-97.38
0
LINE
8
Black
10
121.832
20
-97.38
11
122.552
21
-97.38
0
LINE
8
Black
10
122.552
20
-97.38
11
122.552
21
-98.18
0
LINE
8
Black
10
166.262
20
-98.1253
11
165.542
21
-98.1253
0
LINE
8
Black
10
165.542
20
-98.1253
11
165.542
21
-97.3247
0
LINE
8
Black
10
165.542
20
-97.3247
11
166.262
21
-97.3247
0
LINE
8
Black
10
166.262
20
-97.3247
11
166.262
21
-98.1253
0
LINE
8
Black
10
164.758
20
-98.1253
11
164.038
21
-98.1253
0
LINE
8
Black
10
164.038
20
-98.1253
11
164.038
21
-97.3247
0
LINE
8
Black
10
164.038
20
-97.3247
11
164.758
21
-97.3247
0
LINE
8
Black
10
164.758
20
-97.3247
11
164.758
21
-98.1253
0
LINE
8
Black
10
147.3
20
-97.862
11
146.1
21
-97.862
0
LINE
8
Black
10
146.1
20
-97.862
11
146.1
21
-97.638
0
LINE
8
Black
10
146.1
20
-97.638
11
147.3
21
-97.638
0
LINE
8
Black
10
147.3
20
-97.638
11
147.3
21
-97.862
0
LINE
8
Black
10
124.9
20
-97.862
11
123.7
21
-97.862
0
LINE
8
Black
10
123.7
20
-97.862
11
123.7
21
-97.638
0
LINE
8
Black
10
123.7
20
-97.638
11
124.9
21
-97.638
0
LINE
8
Black
10
124.9
20
-97.638
11
124.9
21
-97.862
0
LINE
8
Black
10
152.412
20
-97.4003
11
151.692
21
-97.4003
0
LINE
8
Black
10
151.692
20
-97.4003
11
151.692
21
-96.5997
0
LINE
8
Black
10
151.692
20
-96.5997
11
152.412
21
-96.5997
0
LINE
8
Black
10
152.412
20
-96.5997
11
152.412
21
-97.4003
0
LINE
8
Black
10
150.908
20
-97.4
11
150.188
21
-97.4
0
LINE
8
Black
10
150.188
20
-97.4
11
150.188
21
-96.6
0
LINE
8
Black
10
150.188
20
-96.6
11
150.908
21
-96.6
0
LINE
8
Black
10
150.908
20
-96.6
11
150.908
21
-97.4
0
LINE
8
Black
10
124.9
20
-97.362
11
123.7
21
-97.362
0
LINE
8
Black
10
123.7
20
-97.362
11
123.7
21
-97.138
0
LINE
8
Black
10
123.7
20
-97.138
11
124.9
21
-97.138
0
LINE
8
Black
10
124.9
20
-97.138
11
124.9
21
-97.362
0
LINE
8
Black
10
147.3
20
-97.362
11
146.1
21
-97.362
0
LINE
8
Black
10
146.1
20
-97.362
11
146.1
21
-97.138
0
LINE
8
Black
10
146.1
20
-97.138
11
147.3
21
-97.138
0
LINE
8
Black
10
147.3
20
-97.138
11
147.3
21
-97.362
0
LINE
8
Black
10
119.7
20
-97.325
11
118.1
21
-97.325
0
LINE
8
Black
10
118.1
20
-97.325
11
118.1
21
-96.325
0
LINE
8
Black
10
118.1
20
-96.325
11
119.7
21
-96.325
0
LINE
8
Black
10
119.7
20
-96.325
11
119.7
21
-97.325
0
LINE
8
Black
10
124.9
20
-96.862
11
123.7
21
-96.862
0
LINE
8
Black
10
123.7
20
-96.862
11
123.7
21
-96.638
0
LINE
8
Black
10
123.7
20
-96.638
11
124.9
21
-96.638
0
LINE
8
Black
10
124.9
20
-96.638
11
124.9
21
-96.862
0
LINE
8
Black
10
147.3
20
-96.862
11
146.1
21
-96.862
0
LINE
8
Black
10
146.1
20
-96.862
11
146.1
21
-96.638
0
LINE
8
Black
10
146.1
20
-96.638
11
147.3
21
-96.638
0
LINE
8
Black
10
147.3
20
-96.638
11
147.3
21
-96.862
0
LINE
8
Black
10
116.65
20
-96.6
11
114.65
21
-96.6
0
LINE
8
Black
10
114.65
20
-96.6
11
114.65
21
-95.4
0
LINE
8
Black
10
114.65
20
-95.4
11
116.65
21
-95.4
0
LINE
8
Black
10
116.65
20
-95.4
11
116.65
21
-96.6
0
LINE
8
Black
10
111.6
20
-96.5
11
106
21
-96.5
0
LINE
8
Black
10
106
20
-96.5
11
106
21
-90.9
0
LINE
8
Black
10
106
20
-90.9
11
111.6
21
-90.9
0
LINE
8
Black
10
111.6
20
-90.9
11
111.6
21
-96.5
0
LINE
8
Black
10
124.9
20
-96.362
11
123.7
21
-96.362
0
LINE
8
Black
10
123.7
20
-96.362
11
123.7
21
-96.138
0
LINE
8
Black
10
123.7
20
-96.138
11
124.9
21
-96.138
0
LINE
8
Black
10
124.9
20
-96.138
11
124.9
21
-96.362
0
LINE
8
Black
10
147.3
20
-96.362
11
146.1
21
-96.362
0
LINE
8
Black
10
146.1
20
-96.362
11
146.1
21
-96.138
0
LINE
8
Black
10
146.1
20
-96.138
11
147.3
21
-96.138
0
LINE
8
Black
10
147.3
20
-96.138
11
147.3
21
-96.362
0
LINE
8
Black
10
150.908
20
-95.9003
11
150.188
21
-95.9003
0
LINE
8
Black
10
150.188
20
-95.9003
11
150.188
21
-95.0997
0
LINE
8
Black
10
150.188
20
-95.0997
11
150.908
21
-95.0997
0
LINE
8
Black
10
150.908
20
-95.0997
11
150.908
21
-95.9003
0
LINE
8
Black
10
152.412
20
-95.9003
11
151.692
21
-95.9003
0
LINE
8
Black
10
151.692
20
-95.9003
11
151.692
21
-95.0997
0
LINE
8
Black
10
151.692
20
-95.0997
11
152.412
21
-95.0997
0
LINE
8
Black
10
152.412
20
-95.0997
11
152.412
21
-95.9003
0
LINE
8
Black
10
147.3
20
-95.862
11
146.1
21
-95.862
0
LINE
8
Black
10
146.1
20
-95.862
11
146.1
21
-95.638
0
LINE
8
Black
10
146.1
20
-95.638
11
147.3
21
-95.638
0
LINE
8
Black
10
147.3
20
-95.638
11
147.3
21
-95.862
0
LINE
8
Black
10
124.9
20
-95.862
11
123.7
21
-95.862
0
LINE
8
Black
10
123.7
20
-95.862
11
123.7
21
-95.638
0
LINE
8
Black
10
123.7
20
-95.638
11
124.9
21
-95.638
0
LINE
8
Black
10
124.9
20
-95.638
11
124.9
21
-95.862
0
LINE
8
Black
10
124.9
20
-95.362
11
123.7
21
-95.362
0
LINE
8
Black
10
123.7
20
-95.362
11
123.7
21
-95.138
0
LINE
8
Black
10
123.7
20
-95.138
11
124.9
21
-95.138
0
LINE
8
Black
10
124.9
20
-95.138
11
124.9
21
-95.362
0
LINE
8
Black
10
147.3
20
-95.362
11
146.1
21
-95.362
0
LINE
8
Black
10
146.1
20
-95.362
11
146.1
21
-95.138
0
LINE
8
Black
10
146.1
20
-95.138
11
147.3
21
-95.138
0
LINE
8
Black
10
147.3
20
-95.138
11
147.3
21
-95.362
0
LINE
8
Black
10
122.922
20
-94.9103
11
122.202
21
-94.9103
0
LINE
8
Black
10
122.202
20
-94.9103
11
122.202
21
-94.1097
0
LINE
8
Black
10
122.202
20
-94.1097
11
122.922
21
-94.1097
0
LINE
8
Black
10
122.922
20
-94.1097
11
122.922
21
-94.9103
0
LINE
8
Black
10
121.418
20
-94.9103
11
120.698
21
-94.9103
0
LINE
8
Black
10
120.698
20
-94.9103
11
120.698
21
-94.1097
0
LINE
8
Black
10
120.698
20
-94.1097
11
121.418
21
-94.1097
0
LINE
8
Black
10
121.418
20
-94.1097
11
121.418
21
-94.9103
0
LINE
8
Black
10
124.9
20
-94.862
11
123.7
21
-94.862
0
LINE
8
Black
10
123.7
20
-94.862
11
123.7
21
-94.638
0
LINE
8
Black
10
123.7
20
-94.638
11
124.9
21
-94.638
0
LINE
8
Black
10
124.9
20
-94.638
11
124.9
21
-94.862
0
LINE
8
Black
10
147.3
20
-94.862
11
146.1
21
-94.862
0
LINE
8
Black
10
146.1
20
-94.862
11
146.1
21
-94.638
0
LINE
8
Black
10
146.1
20
-94.638
11
147.3
21
-94.638
0
LINE
8
Black
10
147.3
20
-94.638
11
147.3
21
-94.862
0
LINE
8
Black
10
150.908
20
-94.5003
11
150.188
21
-94.5003
0
LINE
8
Black
10
150.188
20
-94.5003
11
150.188
21
-93.6997
0
LINE
8
Black
10
150.188
20
-93.6997
11
150.908
21
-93.6997
0
LINE
8
Black
10
150.908
20
-93.6997
11
150.908
21
-94.5003
0
LINE
8
Black
10
152.412
20
-94.5003
11
151.692
21
-94.5003
0
LINE
8
Black
10
151.692
20
-94.5003
11
151.692
21
-93.6997
0
LINE
8
Black
10
151.692
20
-93.6997
11
152.412
21
-93.6997
0
LINE
8
Black
10
152.412
20
-93.6997
11
152.412
21
-94.5003
0
LINE
8
Black
10
124.9
20
-94.362
11
123.7
21
-94.362
0
LINE
8
Black
10
123.7
20
-94.362
11
123.7
21
-94.138
0
LINE
8
Black
10
123.7
20
-94.138
11
124.9
21
-94.138
0
LINE
8
Black
10
124.9
20
-94.138
11
124.9
21
-94.362
0
LINE
8
Black
10
147.3
20
-94.362
11
146.1
21
-94.362
0
LINE
8
Black
10
146.1
20
-94.362
11
146.1
21
-94.138
0
LINE
8
Black
10
146.1
20
-94.138
11
147.3
21
-94.138
0
LINE
8
Black
10
147.3
20
-94.138
11
147.3
21
-94.362
0
LINE
8
Black
10
147.3
20
-93.862
11
146.1
21
-93.862
0
LINE
8
Black
10
146.1
20
-93.862
11
146.1
21
-93.638
0
LINE
8
Black
10
146.1
20
-93.638
11
147.3
21
-93.638
0
LINE
8
Black
10
147.3
20
-93.638
11
147.3
21
-93.862
0
LINE
8
Black
10
124.9
20
-93.862
11
123.7
21
-93.862
0
LINE
8
Black
10
123.7
20
-93.862
11
123.7
21
-93.638
0
LINE
8
Black
10
123.7
20
-93.638
11
124.9
21
-93.638
0
LINE
8
Black
10
124.9
20
-93.638
11
124.9
21
-93.862
0
LINE
8
Black
10
119.348
20
-93.4703
11
118.628
21
-93.4703
0
LINE
8
Black
10
118.628
20
-93.4703
11
118.628
21
-92.6697
0
LINE
8
Black
10
118.628
20
-92.6697
11
119.348
21
-92.6697
0
LINE
8
Black
10
119.348
20
-92.6697
11
119.348
21
-93.4703
0
LINE
8
Black
10
120.852
20
-93.47
11
120.132
21
-93.47
0
LINE
8
Black
10
120.132
20
-93.47
11
120.132
21
-92.67
0
LINE
8
Black
10
120.132
20
-92.67
11
120.852
21
-92.67
0
LINE
8
Black
10
120.852
20
-92.67
11
120.852
21
-93.47
0
LINE
8
Black
10
124.9
20
-93.362
11
123.7
21
-93.362
0
LINE
8
Black
10
123.7
20
-93.362
11
123.7
21
-93.138
0
LINE
8
Black
10
123.7
20
-93.138
11
124.9
21
-93.138
0
LINE
8
Black
10
124.9
20
-93.138
11
124.9
21
-93.362
0
LINE
8
Black
10
147.3
20
-93.362
11
146.1
21
-93.362
0
LINE
8
Black
10
146.1
20
-93.362
11
146.1
21
-93.138
0
LINE
8
Black
10
146.1
20
-93.138
11
147.3
21
-93.138
0
LINE
8
Black
10
147.3
20
-93.138
11
147.3
21
-93.362
0
LINE
8
Black
10
152.412
20
-93.1003
11
151.692
21
-93.1003
0
LINE
8
Black
10
151.692
20
-93.1003
11
151.692
21
-92.2997
0
LINE
8
Black
10
151.692
20
-92.2997
11
152.412
21
-92.2997
0
LINE
8
Black
10
152.412
20
-92.2997
11
152.412
21
-93.1003
0
LINE
8
Black
10
150.908
20
-93.1
11
150.188
21
-93.1
0
LINE
8
Black
10
150.188
20
-93.1
11
150.188
21
-92.3
0
LINE
8
Black
10
150.188
20
-92.3
11
150.908
21
-92.3
0
LINE
8
Black
10
150.908
20
-92.3
11
150.908
21
-93.1
0
LINE
8
Black
10
124.9
20
-92.862
11
123.7
21
-92.862
0
LINE
8
Black
10
123.7
20
-92.862
11
123.7
21
-92.638
0
LINE
8
Black
10
123.7
20
-92.638
11
124.9
21
-92.638
0
LINE
8
Black
10
124.9
20
-92.638
11
124.9
21
-92.862
0
LINE
8
Black
10
147.3
20
-92.862
11
146.1
21
-92.862
0
LINE
8
Black
10
146.1
20
-92.862
11
146.1
21
-92.638
0
LINE
8
Black
10
146.1
20
-92.638
11
147.3
21
-92.638
0
LINE
8
Black
10
147.3
20
-92.638
11
147.3
21
-92.862
0
LINE
8
Black
10
147.3
20
-92.362
11
146.1
21
-92.362
0
LINE
8
Black
10
146.1
20
-92.362
11
146.1
21
-92.138
0
LINE
8
Black
10
146.1
20
-92.138
11
147.3
21
-92.138
0
LINE
8
Black
10
147.3
20
-92.138
11
147.3
21
-92.362
0
LINE
8
Black
10
124.9
20
-92.362
11
123.7
21
-92.362
0
LINE
8
Black
10
123.7
20
-92.362
11
123.7
21
-92.138
0
LINE
8
Black
10
123.7
20
-92.138
11
124.9
21
-92.138
0
LINE
8
Black
10
124.9
20
-92.138
11
124.9
21
-92.362
0
LINE
8
Black
10
122.862
20
-92.1503
11
122.142
21
-92.1503
0
LINE
8
Black
10
122.142
20
-92.1503
11
122.142
21
-91.3497
0
LINE
8
Black
10
122.142
20
-91.3497
11
122.862
21
-91.3497
0
LINE
8
Black
10
122.862
20
-91.3497
11
122.862
21
-92.1503
0
LINE
8
Black
10
121.358
20
-92.1503
11
120.638
21
-92.1503
0
LINE
8
Black
10
120.638
20
-92.1503
11
120.638
21
-91.3497
0
LINE
8
Black
10
120.638
20
-91.3497
11
121.358
21
-91.3497
0
LINE
8
Black
10
121.358
20
-91.3497
11
121.358
21
-92.1503
0
LINE
8
Black
10
116.65
20
-92
11
114.65
21
-92
0
LINE
8
Black
10
114.65
20
-92
11
114.65
21
-90.8
0
LINE
8
Black
10
114.65
20
-90.8
11
116.65
21
-90.8
0
LINE
8
Black
10
116.65
20
-90.8
11
116.65
21
-92
0
LINE
8
Black
10
124.9
20
-91.862
11
123.7
21
-91.862
0
LINE
8
Black
10
123.7
20
-91.862
11
123.7
21
-91.638
0
LINE
8
Black
10
123.7
20
-91.638
11
124.9
21
-91.638
0
LINE
8
Black
10
124.9
20
-91.638
11
124.9
21
-91.862
0
LINE
8
Black
10
147.3
20
-91.862
11
146.1
21
-91.862
0
LINE
8
Black
10
146.1
20
-91.862
11
146.1
21
-91.638
0
LINE
8
Black
10
146.1
20
-91.638
11
147.3
21
-91.638
0
LINE
8
Black
10
147.3
20
-91.638
11
147.3
21
-91.862
0
LINE
8
Black
10
152.362
20
-91.3753
11
151.642
21
-91.3753
0
LINE
8
Black
10
151.642
20
-91.3753
11
151.642
21
-90.5747
0
LINE
8
Black
10
151.642
20
-90.5747
11
152.362
21
-90.5747
0
LINE
8
Black
10
152.362
20
-90.5747
11
152.362
21
-91.3753
0
LINE
8
Black
10
150.858
20
-91.375
11
150.138
21
-91.375
0
LINE
8
Black
10
150.138
20
-91.375
11
150.138
21
-90.575
0
LINE
8
Black
10
150.138
20
-90.575
11
150.858
21
-90.575
0
LINE
8
Black
10
150.858
20
-90.575
11
150.858
21
-91.375
0
LINE
8
Black
10
124.9
20
-91.362
11
123.7
21
-91.362
0
LINE
8
Black
10
123.7
20
-91.362
11
123.7
21
-91.138
0
LINE
8
Black
10
123.7
20
-91.138
11
124.9
21
-91.138
0
LINE
8
Black
10
124.9
20
-91.138
11
124.9
21
-91.362
0
LINE
8
Black
10
147.3
20
-91.362
11
146.1
21
-91.362
0
LINE
8
Black
10
146.1
20
-91.362
11
146.1
21
-91.138
0
LINE
8
Black
10
146.1
20
-91.138
11
147.3
21
-91.138
0
LINE
8
Black
10
147.3
20
-91.138
11
147.3
21
-91.362
0
LINE
8
Black
10
124.9
20
-90.862
11
123.7
21
-90.862
0
LINE
8
Black
10
123.7
20
-90.862
11
123.7
21
-90.638
0
LINE
8
Black
10
123.7
20
-90.638
11
124.9
21
-90.638
0
LINE
8
Black
10
124.9
20
-90.638
11
124.9
21
-90.862
0
LINE
8
Black
10
147.3
20
-90.862
11
146.1
21
-90.862
0
LINE
8
Black
10
146.1
20
-90.862
11
146.1
21
-90.638
0
LINE
8
Black
10
146.1
20
-90.638
11
147.3
21
-90.638
0
LINE
8
Black
10
147.3
20
-90.638
11
147.3
21
-90.862
0
LINE
8
Black
10
120.168
20
-90.6103
11
119.448
21
-90.6103
0
LINE
8
Black
10
119.448
20
-90.6103
11
119.448
21
-89.8097
0
LINE
8
Black
10
119.448
20
-89.8097
11
120.168
21
-89.8097
0
LINE
8
Black
10
120.168
20
-89.8097
11
120.168
21
-90.6103
0
LINE
8
Black
10
121.672
20
-90.6103
11
120.952
21
-90.6103
0
LINE
8
Black
10
120.952
20
-90.6103
11
120.952
21
-89.8097
0
LINE
8
Black
10
120.952
20
-89.8097
11
121.672
21
-89.8097
0
LINE
8
Black
10
121.672
20
-89.8097
11
121.672
21
-90.6103
0
LINE
8
Black
10
147.3
20
-90.362
11
146.1
21
-90.362
0
LINE
8
Black
10
146.1
20
-90.362
11
146.1
21
-90.138
0
LINE
8
Black
10
146.1
20
-90.138
11
147.3
21
-90.138
0
LINE
8
Black
10
147.3
20
-90.138
11
147.3
21
-90.362
0
LINE
8
Black
10
124.9
20
-90.362
11
123.7
21
-90.362
0
LINE
8
Black
10
123.7
20
-90.362
11
123.7
21
-90.138
0
LINE
8
Black
10
123.7
20
-90.138
11
124.9
21
-90.138
0
LINE
8
Black
10
124.9
20
-90.138
11
124.9
21
-90.362
0
LINE
8
Black
10
124.9
20
-89.862
11
123.7
21
-89.862
0
LINE
8
Black
10
123.7
20
-89.862
11
123.7
21
-89.638
0
LINE
8
Black
10
123.7
20
-89.638
11
124.9
21
-89.638
0
LINE
8
Black
10
124.9
20
-89.638
11
124.9
21
-89.862
0
LINE
8
Black
10
147.3
20
-89.862
11
146.1
21
-89.862
0
LINE
8
Black
10
146.1
20
-89.862
11
146.1
21
-89.638
0
LINE
8
Black
10
146.1
20
-89.638
11
147.3
21
-89.638
0
LINE
8
Black
10
147.3
20
-89.638
11
147.3
21
-89.862
0
LINE
8
Black
10
147.3
20
-89.362
11
146.1
21
-89.362
0
LINE
8
Black
10
146.1
20
-89.362
11
146.1
21
-89.138
0
LINE
8
Black
10
146.1
20
-89.138
11
147.3
21
-89.138
0
LINE
8
Black
10
147.3
20
-89.138
11
147.3
21
-89.362
0
LINE
8
Black
10
124.9
20
-89.362
11
123.7
21
-89.362
0
LINE
8
Black
10
123.7
20
-89.362
11
123.7
21
-89.138
0
LINE
8
Black
10
123.7
20
-89.138
11
124.9
21
-89.138
0
LINE
8
Black
10
124.9
20
-89.138
11
124.9
21
-89.362
0
LINE
8
Black
10
152.312
20
-89.3503
11
151.592
21
-89.3503
0
LINE
8
Black
10
151.592
20
-89.3503
11
151.592
21
-88.5497
0
LINE
8
Black
10
151.592
20
-88.5497
11
152.312
21
-88.5497
0
LINE
8
Black
10
152.312
20
-88.5497
11
152.312
21
-89.3503
0
LINE
8
Black
10
150.808
20
-89.35
11
150.088
21
-89.35
0
LINE
8
Black
10
150.088
20
-89.35
11
150.088
21
-88.55
0
LINE
8
Black
10
150.088
20
-88.55
11
150.808
21
-88.55
0
LINE
8
Black
10
150.808
20
-88.55
11
150.808
21
-89.35
0
LINE
8
Black
10
120.168
20
-89.1803
11
119.448
21
-89.1803
0
LINE
8
Black
10
119.448
20
-89.1803
11
119.448
21
-88.3797
0
LINE
8
Black
10
119.448
20
-88.3797
11
120.168
21
-88.3797
0
LINE
8
Black
10
120.168
20
-88.3797
11
120.168
21
-89.1803
0
LINE
8
Black
10
121.672
20
-89.18
11
120.952
21
-89.18
0
LINE
8
Black
10
120.952
20
-89.18
11
120.952
21
-88.38
0
LINE
8
Black
10
120.952
20
-88.38
11
121.672
21
-88.38
0
LINE
8
Black
10
121.672
20
-88.38
11
121.672
21
-89.18
0
LINE
8
Black
10
147.3
20
-88.862
11
146.1
21
-88.862
0
LINE
8
Black
10
146.1
20
-88.862
11
146.1
21
-88.638
0
LINE
8
Black
10
146.1
20
-88.638
11
147.3
21
-88.638
0
LINE
8
Black
10
147.3
20
-88.638
11
147.3
21
-88.862
0
LINE
8
Black
10
124.9
20
-88.862
11
123.7
21
-88.862
0
LINE
8
Black
10
123.7
20
-88.862
11
123.7
21
-88.638
0
LINE
8
Black
10
123.7
20
-88.638
11
124.9
21
-88.638
0
LINE
8
Black
10
124.9
20
-88.638
11
124.9
21
-88.862
0
LINE
8
Black
10
147.3
20
-88.362
11
146.1
21
-88.362
0
LINE
8
Black
10
146.1
20
-88.362
11
146.1
21
-88.138
0
LINE
8
Black
10
146.1
20
-88.138
11
147.3
21
-88.138
0
LINE
8
Black
10
147.3
20
-88.138
11
147.3
21
-88.362
0
LINE
8
Black
10
124.9
20
-88.362
11
123.7
21
-88.362
0
LINE
8
Black
10
123.7
20
-88.362
11
123.7
21
-88.138
0
LINE
8
Black
10
123.7
20
-88.138
11
124.9
21
-88.138
0
LINE
8
Black
10
124.9
20
-88.138
11
124.9
21
-88.362
0
LINE
8
Black
10
147.3
20
-87.862
11
146.1
21
-87.862
0
LINE
8
Black
10
146.1
20
-87.862
11
146.1
21
-87.638
0
LINE
8
Black
10
146.1
20
-87.638
11
147.3
21
-87.638
0
LINE
8
Black
10
147.3
20
-87.638
11
147.3
21
-87.862
0
LINE
8
Black
10
124.9
20
-87.862
11
123.7
21
-87.862
0
LINE
8
Black
10
123.7
20
-87.862
11
123.7
21
-87.638
0
LINE
8
Black
10
123.7
20
-87.638
11
124.9
21
-87.638
0
LINE
8
Black
10
124.9
20
-87.638
11
124.9
21
-87.862
0
LINE
8
Black
10
124.9
20
-87.362
11
123.7
21
-87.362
0
LINE
8
Black
10
123.7
20
-87.362
11
123.7
21
-87.138
0
LINE
8
Black
10
123.7
20
-87.138
11
124.9
21
-87.138
0
LINE
8
Black
10
124.9
20
-87.138
11
124.9
21
-87.362
0
LINE
8
Black
10
147.3
20
-87.362
11
146.1
21
-87.362
0
LINE
8
Black
10
146.1
20
-87.362
11
146.1
21
-87.138
0
LINE
8
Black
10
146.1
20
-87.138
11
147.3
21
-87.138
0
LINE
8
Black
10
147.3
20
-87.138
11
147.3
21
-87.362
0
LINE
8
Black
10
147.3
20
-86.862
11
146.1
21
-86.862
0
LINE
8
Black
10
146.1
20
-86.862
11
146.1
21
-86.638
0
LINE
8
Black
10
146.1
20
-86.638
11
147.3
21
-86.638
0
LINE
8
Black
10
147.3
20
-86.638
11
147.3
21
-86.862
0
LINE
8
Black
10
124.9
20
-86.862
11
123.7
21
-86.862
0
LINE
8
Black
10
123.7
20
-86.862
11
123.7
21
-86.638
0
LINE
8
Black
10
123.7
20
-86.638
11
124.9
21
-86.638
0
LINE
8
Black
10
124.9
20
-86.638
11
124.9
21
-86.862
0
LINE
8
Black
10
124.9
20
-86.362
11
123.7
21
-86.362
0
LINE
8
Black
10
123.7
20
-86.362
11
123.7
21
-86.138
0
LINE
8
Black
10
123.7
20
-86.138
11
124.9
21
-86.138
0
LINE
8
Black
10
124.9
20
-86.138
11
124.9
21
-86.362
0
LINE
8
Black
10
147.3
20
-86.362
11
146.1
21
-86.362
0
LINE
8
Black
10
146.1
20
-86.362
11
146.1
21
-86.138
0
LINE
8
Black
10
146.1
20
-86.138
11
147.3
21
-86.138
0
LINE
8
Black
10
147.3
20
-86.138
11
147.3
21
-86.362
0
LINE
8
Black
10
164.958
20
-86.0003
11
164.238
21
-86.0003
0
LINE
8
Black
10
164.238
20
-86.0003
11
164.238
21
-85.1997
0
LINE
8
Black
10
164.238
20
-85.1997
11
164.958
21
-85.1997
0
LINE
8
Black
10
164.958
20
-85.1997
11
164.958
21
-86.0003
0
LINE
8
Black
10
166.462
20
-86.0003
11
165.742
21
-86.0003
0
LINE
8
Black
10
165.742
20
-86.0003
11
165.742
21
-85.1997
0
LINE
8
Black
10
165.742
20
-85.1997
11
166.462
21
-85.1997
0
LINE
8
Black
10
166.462
20
-85.1997
11
166.462
21
-86.0003
0
LINE
8
Black
10
140.862
20
-84.9
11
140.638
21
-84.9
0
LINE
8
Black
10
140.638
20
-84.9
11
140.638
21
-83.7
0
LINE
8
Black
10
140.638
20
-83.7
11
140.862
21
-83.7
0
LINE
8
Black
10
140.862
20
-83.7
11
140.862
21
-84.9
0
LINE
8
Black
10
133.362
20
-84.9
11
133.138
21
-84.9
0
LINE
8
Black
10
133.138
20
-84.9
11
133.138
21
-83.7
0
LINE
8
Black
10
133.138
20
-83.7
11
133.362
21
-83.7
0
LINE
8
Black
10
133.362
20
-83.7
11
133.362
21
-84.9
0
LINE
8
Black
10
144.362
20
-84.9
11
144.138
21
-84.9
0
LINE
8
Black
10
144.138
20
-84.9
11
144.138
21
-83.7
0
LINE
8
Black
10
144.138
20
-83.7
11
144.362
21
-83.7
0
LINE
8
Black
10
144.362
20
-83.7
11
144.362
21
-84.9
0
LINE
8
Black
10
143.862
20
-84.9
11
143.638
21
-84.9
0
LINE
8
Black
10
143.638
20
-84.9
11
143.638
21
-83.7
0
LINE
8
Black
10
143.638
20
-83.7
11
143.862
21
-83.7
0
LINE
8
Black
10
143.862
20
-83.7
11
143.862
21
-84.9
0
LINE
8
Black
10
133.862
20
-84.9
11
133.638
21
-84.9
0
LINE
8
Black
10
133.638
20
-84.9
11
133.638
21
-83.7
0
LINE
8
Black
10
133.638
20
-83.7
11
133.862
21
-83.7
0
LINE
8
Black
10
133.862
20
-83.7
11
133.862
21
-84.9
0
LINE
8
Black
10
143.362
20
-84.9
11
143.138
21
-84.9
0
LINE
8
Black
10
143.138
20
-84.9
11
143.138
21
-83.7
0
LINE
8
Black
10
143.138
20
-83.7
11
143.362
21
-83.7
0
LINE
8
Black
10
143.362
20
-83.7
11
143.362
21
-84.9
0
LINE
8
Black
10
142.862
20
-84.9
11
142.638
21
-84.9
0
LINE
8
Black
10
142.638
20
-84.9
11
142.638
21
-83.7
0
LINE
8
Black
10
142.638
20
-83.7
11
142.862
21
-83.7
0
LINE
8
Black
10
142.862
20
-83.7
11
142.862
21
-84.9
0
LINE
8
Black
10
134.362
20
-84.9
11
134.138
21
-84.9
0
LINE
8
Black
10
134.138
20
-84.9
11
134.138
21
-83.7
0
LINE
8
Black
10
134.138
20
-83.7
11
134.362
21
-83.7
0
LINE
8
Black
10
134.362
20
-83.7
11
134.362
21
-84.9
0
LINE
8
Black
10
142.362
20
-84.9
11
142.138
21
-84.9
0
LINE
8
Black
10
142.138
20
-84.9
11
142.138
21
-83.7
0
LINE
8
Black
10
142.138
20
-83.7
11
142.362
21
-83.7
0
LINE
8
Black
10
142.362
20
-83.7
11
142.362
21
-84.9
0
LINE
8
Black
10
141.862
20
-84.9
11
141.638
21
-84.9
0
LINE
8
Black
10
141.638
20
-84.9
11
141.638
21
-83.7
0
LINE
8
Black
10
141.638
20
-83.7
11
141.862
21
-83.7
0
LINE
8
Black
10
141.862
20
-83.7
11
141.862
21
-84.9
0
LINE
8
Black
10
141.362
20
-84.9
11
141.138
21
-84.9
0
LINE
8
Black
10
141.138
20
-84.9
11
141.138
21
-83.7
0
LINE
8
Black
10
141.138
20
-83.7
11
141.362
21
-83.7
0
LINE
8
Black
10
141.362
20
-83.7
11
141.362
21
-84.9
0
LINE
8
Black
10
134.862
20
-84.9
11
134.638
21
-84.9
0
LINE
8
Black
10
134.638
20
-84.9
11
134.638
21
-83.7
0
LINE
8
Black
10
134.638
20
-83.7
11
134.862
21
-83.7
0
LINE
8
Black
10
134.862
20
-83.7
11
134.862
21
-84.9
0
LINE
8
Black
10
136.362
20
-84.9
11
136.138
21
-84.9
0
LINE
8
Black
10
136.138
20
-84.9
11
136.138
21
-83.7
0
LINE
8
Black
10
136.138
20
-83.7
11
136.362
21
-83.7
0
LINE
8
Black
10
136.362
20
-83.7
11
136.362
21
-84.9
0
LINE
8
Black
10
140.362
20
-84.9
11
140.138
21
-84.9
0
LINE
8
Black
10
140.138
20
-84.9
11
140.138
21
-83.7
0
LINE
8
Black
10
140.138
20
-83.7
11
140.362
21
-83.7
0
LINE
8
Black
10
140.362
20
-83.7
11
140.362
21
-84.9
0
LINE
8
Black
10
139.862
20
-84.9
11
139.638
21
-84.9
0
LINE
8
Black
10
139.638
20
-84.9
11
139.638
21
-83.7
0
LINE
8
Black
10
139.638
20
-83.7
11
139.862
21
-83.7
0
LINE
8
Black
10
139.862
20
-83.7
11
139.862
21
-84.9
0
LINE
8
Black
10
135.362
20
-84.9
11
135.138
21
-84.9
0
LINE
8
Black
10
135.138
20
-84.9
11
135.138
21
-83.7
0
LINE
8
Black
10
135.138
20
-83.7
11
135.362
21
-83.7
0
LINE
8
Black
10
135.362
20
-83.7
11
135.362
21
-84.9
0
LINE
8
Black
10
132.862
20
-84.9
11
132.638
21
-84.9
0
LINE
8
Black
10
132.638
20
-84.9
11
132.638
21
-83.7
0
LINE
8
Black
10
132.638
20
-83.7
11
132.862
21
-83.7
0
LINE
8
Black
10
132.862
20
-83.7
11
132.862
21
-84.9
0
LINE
8
Black
10
139.362
20
-84.9
11
139.138
21
-84.9
0
LINE
8
Black
10
139.138
20
-84.9
11
139.138
21
-83.7
0
LINE
8
Black
10
139.138
20
-83.7
11
139.362
21
-83.7
0
LINE
8
Black
10
139.362
20
-83.7
11
139.362
21
-84.9
0
LINE
8
Black
10
138.862
20
-84.9
11
138.638
21
-84.9
0
LINE
8
Black
10
138.638
20
-84.9
11
138.638
21
-83.7
0
LINE
8
Black
10
138.638
20
-83.7
11
138.862
21
-83.7
0
LINE
8
Black
10
138.862
20
-83.7
11
138.862
21
-84.9
0
LINE
8
Black
10
138.362
20
-84.9
11
138.138
21
-84.9
0
LINE
8
Black
10
138.138
20
-84.9
11
138.138
21
-83.7
0
LINE
8
Black
10
138.138
20
-83.7
11
138.362
21
-83.7
0
LINE
8
Black
10
138.362
20
-83.7
11
138.362
21
-84.9
0
LINE
8
Black
10
137.862
20
-84.9
11
137.638
21
-84.9
0
LINE
8
Black
10
137.638
20
-84.9
11
137.638
21
-83.7
0
LINE
8
Black
10
137.638
20
-83.7
11
137.862
21
-83.7
0
LINE
8
Black
10
137.862
20
-83.7
11
137.862
21
-84.9
0
LINE
8
Black
10
137.362
20
-84.9
11
137.138
21
-84.9
0
LINE
8
Black
10
137.138
20
-84.9
11
137.138
21
-83.7
0
LINE
8
Black
10
137.138
20
-83.7
11
137.362
21
-83.7
0
LINE
8
Black
10
137.362
20
-83.7
11
137.362
21
-84.9
0
LINE
8
Black
10
135.862
20
-84.9
11
135.638
21
-84.9
0
LINE
8
Black
10
135.638
20
-84.9
11
135.638
21
-83.7
0
LINE
8
Black
10
135.638
20
-83.7
11
135.862
21
-83.7
0
LINE
8
Black
10
135.862
20
-83.7
11
135.862
21
-84.9
0
LINE
8
Black
10
136.862
20
-84.9
11
136.638
21
-84.9
0
LINE
8
Black
10
136.638
20
-84.9
11
136.638
21
-83.7
0
LINE
8
Black
10
136.638
20
-83.7
11
136.862
21
-83.7
0
LINE
8
Black
10
136.862
20
-83.7
11
136.862
21
-84.9
0
LINE
8
Black
10
126.862
20
-84.9
11
126.638
21
-84.9
0
LINE
8
Black
10
126.638
20
-84.9
11
126.638
21
-83.7
0
LINE
8
Black
10
126.638
20
-83.7
11
126.862
21
-83.7
0
LINE
8
Black
10
126.862
20
-83.7
11
126.862
21
-84.9
0
LINE
8
Black
10
128.862
20
-84.9
11
128.638
21
-84.9
0
LINE
8
Black
10
128.638
20
-84.9
11
128.638
21
-83.7
0
LINE
8
Black
10
128.638
20
-83.7
11
128.862
21
-83.7
0
LINE
8
Black
10
128.862
20
-83.7
11
128.862
21
-84.9
0
LINE
8
Black
10
129.362
20
-84.9
11
129.138
21
-84.9
0
LINE
8
Black
10
129.138
20
-84.9
11
129.138
21
-83.7
0
LINE
8
Black
10
129.138
20
-83.7
11
129.362
21
-83.7
0
LINE
8
Black
10
129.362
20
-83.7
11
129.362
21
-84.9
0
LINE
8
Black
10
129.862
20
-84.9
11
129.638
21
-84.9
0
LINE
8
Black
10
129.638
20
-84.9
11
129.638
21
-83.7
0
LINE
8
Black
10
129.638
20
-83.7
11
129.862
21
-83.7
0
LINE
8
Black
10
129.862
20
-83.7
11
129.862
21
-84.9
0
LINE
8
Black
10
130.362
20
-84.9
11
130.138
21
-84.9
0
LINE
8
Black
10
130.138
20
-84.9
11
130.138
21
-83.7
0
LINE
8
Black
10
130.138
20
-83.7
11
130.362
21
-83.7
0
LINE
8
Black
10
130.362
20
-83.7
11
130.362
21
-84.9
0
LINE
8
Black
10
130.862
20
-84.9
11
130.638
21
-84.9
0
LINE
8
Black
10
130.638
20
-84.9
11
130.638
21
-83.7
0
LINE
8
Black
10
130.638
20
-83.7
11
130.862
21
-83.7
0
LINE
8
Black
10
130.862
20
-83.7
11
130.862
21
-84.9
0
LINE
8
Black
10
131.362
20
-84.9
11
131.138
21
-84.9
0
LINE
8
Black
10
131.138
20
-84.9
11
131.138
21
-83.7
0
LINE
8
Black
10
131.138
20
-83.7
11
131.362
21
-83.7
0
LINE
8
Black
10
131.362
20
-83.7
11
131.362
21
-84.9
0
LINE
8
Black
10
131.862
20
-84.9
11
131.638
21
-84.9
0
LINE
8
Black
10
131.638
20
-84.9
11
131.638
21
-83.7
0
LINE
8
Black
10
131.638
20
-83.7
11
131.862
21
-83.7
0
LINE
8
Black
10
131.862
20
-83.7
11
131.862
21
-84.9
0
LINE
8
Black
10
132.362
20
-84.9
11
132.138
21
-84.9
0
LINE
8
Black
10
132.138
20
-84.9
11
132.138
21
-83.7
0
LINE
8
Black
10
132.138
20
-83.7
11
132.362
21
-83.7
0
LINE
8
Black
10
132.362
20
-83.7
11
132.362
21
-84.9
0
LINE
8
Black
10
126.362
20
-84.9
11
126.138
21
-84.9
0
LINE
8
Black
10
126.138
20
-84.9
11
126.138
21
-83.7
0
LINE
8
Black
10
126.138
20
-83.7
11
126.362
21
-83.7
0
LINE
8
Black
10
126.362
20
-83.7
11
126.362
21
-84.9
0
LINE
8
Black
10
144.862
20
-84.9
11
144.638
21
-84.9
0
LINE
8
Black
10
144.638
20
-84.9
11
144.638
21
-83.7
0
LINE
8
Black
10
144.638
20
-83.7
11
144.862
21
-83.7
0
LINE
8
Black
10
144.862
20
-83.7
11
144.862
21
-84.9
0
LINE
8
Black
10
127.362
20
-84.9
11
127.138
21
-84.9
0
LINE
8
Black
10
127.138
20
-84.9
11
127.138
21
-83.7
0
LINE
8
Black
10
127.138
20
-83.7
11
127.362
21
-83.7
0
LINE
8
Black
10
127.362
20
-83.7
11
127.362
21
-84.9
0
LINE
8
Black
10
127.862
20
-84.9
11
127.638
21
-84.9
0
LINE
8
Black
10
127.638
20
-84.9
11
127.638
21
-83.7
0
LINE
8
Black
10
127.638
20
-83.7
11
127.862
21
-83.7
0
LINE
8
Black
10
127.862
20
-83.7
11
127.862
21
-84.9
0
LINE
8
Black
10
128.362
20
-84.9
11
128.138
21
-84.9
0
LINE
8
Black
10
128.138
20
-84.9
11
128.138
21
-83.7
0
LINE
8
Black
10
128.138
20
-83.7
11
128.362
21
-83.7
0
LINE
8
Black
10
128.362
20
-83.7
11
128.362
21
-84.9
0
LINE
8
Black
10
123.528
20
-84.7403
11
122.808
21
-84.7403
0
LINE
8
Black
10
122.808
20
-84.7403
11
122.808
21
-83.9397
0
LINE
8
Black
10
122.808
20
-83.9397
11
123.528
21
-83.9397
0
LINE
8
Black
10
123.528
20
-83.9397
11
123.528
21
-84.7403
0
LINE
8
Black
10
125.032
20
-84.74
11
124.312
21
-84.74
0
LINE
8
Black
10
124.312
20
-84.74
11
124.312
21
-83.94
0
LINE
8
Black
10
124.312
20
-83.94
11
125.032
21
-83.94
0
LINE
8
Black
10
125.032
20
-83.94
11
125.032
21
-84.74
0
LINE
8
Black
10
164.908
20
-84.4003
11
164.188
21
-84.4003
0
LINE
8
Black
10
164.188
20
-84.4003
11
164.188
21
-83.5997
0
LINE
8
Black
10
164.188
20
-83.5997
11
164.908
21
-83.5997
0
LINE
8
Black
10
164.908
20
-83.5997
11
164.908
21
-84.4003
0
LINE
8
Black
10
166.412
20
-84.4003
11
165.692
21
-84.4003
0
LINE
8
Black
10
165.692
20
-84.4003
11
165.692
21
-83.5997
0
LINE
8
Black
10
165.692
20
-83.5997
11
166.412
21
-83.5997
0
LINE
8
Black
10
166.412
20
-83.5997
11
166.412
21
-84.4003
0
LINE
8
Black
10
149.112
20
-83.7003
11
148.392
21
-83.7003
0
LINE
8
Black
10
148.392
20
-83.7003
11
148.392
21
-82.8997
0
LINE
8
Black
10
148.392
20
-82.8997
11
149.112
21
-82.8997
0
LINE
8
Black
10
149.112
20
-82.8997
11
149.112
21
-83.7003
0
LINE
8
Black
10
147.608
20
-83.7
11
146.888
21
-83.7
0
LINE
8
Black
10
146.888
20
-83.7
11
146.888
21
-82.9
0
LINE
8
Black
10
146.888
20
-82.9
11
147.608
21
-82.9
0
LINE
8
Black
10
147.608
20
-82.9
11
147.608
21
-83.7
0
LINE
8
Black
10
165.183
20
-82.3003
11
164.463
21
-82.3003
0
LINE
8
Black
10
164.463
20
-82.3003
11
164.463
21
-81.4997
0
LINE
8
Black
10
164.463
20
-81.4997
11
165.183
21
-81.4997
0
LINE
8
Black
10
165.183
20
-81.4997
11
165.183
21
-82.3003
0
LINE
8
Black
10
166.687
20
-82.3
11
165.967
21
-82.3
0
LINE
8
Black
10
165.967
20
-82.3
11
165.967
21
-81.5
0
LINE
8
Black
10
165.967
20
-81.5
11
166.687
21
-81.5
0
LINE
8
Black
10
166.687
20
-81.5
11
166.687
21
-82.3
0
LINE
8
Black
10
108.142
20
-82.1903
11
107.422
21
-82.1903
0
LINE
8
Black
10
107.422
20
-82.1903
11
107.422
21
-81.3897
0
LINE
8
Black
10
107.422
20
-81.3897
11
108.142
21
-81.3897
0
LINE
8
Black
10
108.142
20
-81.3897
11
108.142
21
-82.1903
0
LINE
8
Black
10
106.638
20
-82.1903
11
105.918
21
-82.1903
0
LINE
8
Black
10
105.918
20
-82.1903
11
105.918
21
-81.3897
0
LINE
8
Black
10
105.918
20
-81.3897
11
106.638
21
-81.3897
0
LINE
8
Black
10
106.638
20
-81.3897
11
106.638
21
-82.1903
0
LINE
8
Black
10
135.69
20
-82.0918
11
134.89
21
-82.0918
0
LINE
8
Black
10
134.89
20
-82.0918
11
134.89
21
-81.3718
0
LINE
8
Black
10
134.89
20
-81.3718
11
135.69
21
-81.3718
0
LINE
8
Black
10
135.69
20
-81.3718
11
135.69
21
-82.0918
0
LINE
8
Black
10
126.938
20
-81.3003
11
126.218
21
-81.3003
0
LINE
8
Black
10
126.218
20
-81.3003
11
126.218
21
-80.4997
0
LINE
8
Black
10
126.218
20
-80.4997
11
126.938
21
-80.4997
0
LINE
8
Black
10
126.938
20
-80.4997
11
126.938
21
-81.3003
0
LINE
8
Black
10
128.442
20
-81.3
11
127.722
21
-81.3
0
LINE
8
Black
10
127.722
20
-81.3
11
127.722
21
-80.5
0
LINE
8
Black
10
127.722
20
-80.5
11
128.442
21
-80.5
0
LINE
8
Black
10
128.442
20
-80.5
11
128.442
21
-81.3
0
LINE
8
Black
10
142.875
20
-81.0868
11
142.075
21
-81.0868
0
LINE
8
Black
10
142.075
20
-81.0868
11
142.075
21
-80.3668
0
LINE
8
Black
10
142.075
20
-80.3668
11
142.875
21
-80.3668
0
LINE
8
Black
10
142.875
20
-80.3668
11
142.875
21
-81.0868
0
LINE
8
Black
10
132.02
20
-81.0218
11
131.22
21
-81.0218
0
LINE
8
Black
10
131.22
20
-81.0218
11
131.22
21
-80.3018
0
LINE
8
Black
10
131.22
20
-80.3018
11
132.02
21
-80.3018
0
LINE
8
Black
10
132.02
20
-80.3018
11
132.02
21
-81.0218
0
LINE
8
Black
10
135.69
20
-80.5878
11
134.89
21
-80.5878
0
LINE
8
Black
10
134.89
20
-80.5878
11
134.89
21
-79.8685
0
LINE
8
Black
10
134.89
20
-79.8685
11
135.69
21
-79.8685
0
LINE
8
Black
10
135.69
20
-79.8685
11
135.69
21
-80.5878
0
LINE
8
Black
10
108.092
20
-80.4603
11
107.372
21
-80.4603
0
LINE
8
Black
10
107.372
20
-80.4603
11
107.372
21
-79.6597
0
LINE
8
Black
10
107.372
20
-79.6597
11
108.092
21
-79.6597
0
LINE
8
Black
10
108.092
20
-79.6597
11
108.092
21
-80.4603
0
LINE
8
Black
10
106.588
20
-80.4603
11
105.868
21
-80.4603
0
LINE
8
Black
10
105.868
20
-80.4603
11
105.868
21
-79.6597
0
LINE
8
Black
10
105.868
20
-79.6597
11
106.588
21
-79.6597
0
LINE
8
Black
10
106.588
20
-79.6597
11
106.588
21
-80.4603
0
LINE
8
Black
10
139.27
20
-80.3418
11
138.47
21
-80.3418
0
LINE
8
Black
10
138.47
20
-80.3418
11
138.47
21
-79.6218
0
LINE
8
Black
10
138.47
20
-79.6218
11
139.27
21
-79.6218
0
LINE
8
Black
10
139.27
20
-79.6218
11
139.27
21
-80.3418
0
LINE
8
Black
10
166.737
20
-79.9253
11
166.017
21
-79.9253
0
LINE
8
Black
10
166.017
20
-79.9253
11
166.017
21
-79.1247
0
LINE
8
Black
10
166.017
20
-79.1247
11
166.737
21
-79.1247
0
LINE
8
Black
10
166.737
20
-79.1247
11
166.737
21
-79.9253
0
LINE
8
Black
10
165.233
20
-79.9253
11
164.513
21
-79.9253
0
LINE
8
Black
10
164.513
20
-79.9253
11
164.513
21
-79.1247
0
LINE
8
Black
10
164.513
20
-79.1247
11
165.233
21
-79.1247
0
LINE
8
Black
10
165.233
20
-79.1247
11
165.233
21
-79.9253
0
LINE
8
Black
10
142.875
20
-79.5828
11
142.075
21
-79.5828
0
LINE
8
Black
10
142.075
20
-79.5828
11
142.075
21
-78.8635
0
LINE
8
Black
10
142.075
20
-78.8635
11
142.875
21
-78.8635
0
LINE
8
Black
10
142.875
20
-78.8635
11
142.875
21
-79.5828
0
LINE
8
Black
10
132.02
20
-79.5178
11
131.22
21
-79.5178
0
LINE
8
Black
10
131.22
20
-79.5178
11
131.22
21
-78.7985
0
LINE
8
Black
10
131.22
20
-78.7985
11
132.02
21
-78.7985
0
LINE
8
Black
10
132.02
20
-78.7985
11
132.02
21
-79.5178
0
LINE
8
Black
10
161.212
20
-79.4503
11
160.492
21
-79.4503
0
LINE
8
Black
10
160.492
20
-79.4503
11
160.492
21
-78.6497
0
LINE
8
Black
10
160.492
20
-78.6497
11
161.212
21
-78.6497
0
LINE
8
Black
10
161.212
20
-78.6497
11
161.212
21
-79.4503
0
LINE
8
Black
10
159.708
20
-79.4503
11
158.988
21
-79.4503
0
LINE
8
Black
10
158.988
20
-79.4503
11
158.988
21
-78.6497
0
LINE
8
Black
10
158.988
20
-78.6497
11
159.708
21
-78.6497
0
LINE
8
Black
10
159.708
20
-78.6497
11
159.708
21
-79.4503
0
LINE
8
Black
10
139.27
20
-78.8378
11
138.47
21
-78.8378
0
LINE
8
Black
10
138.47
20
-78.8378
11
138.47
21
-78.1185
0
LINE
8
Black
10
138.47
20
-78.1185
11
139.27
21
-78.1185
0
LINE
8
Black
10
139.27
20
-78.1185
11
139.27
21
-78.8378
0
LINE
8
Black
10
106.528
20
-78.7103
11
105.808
21
-78.7103
0
LINE
8
Black
10
105.808
20
-78.7103
11
105.808
21
-77.9097
0
LINE
8
Black
10
105.808
20
-77.9097
11
106.528
21
-77.9097
0
LINE
8
Black
10
106.528
20
-77.9097
11
106.528
21
-78.7103
0
LINE
8
Black
10
108.032
20
-78.7103
11
107.312
21
-78.7103
0
LINE
8
Black
10
107.312
20
-78.7103
11
107.312
21
-77.9097
0
LINE
8
Black
10
107.312
20
-77.9097
11
108.032
21
-77.9097
0
LINE
8
Black
10
108.032
20
-77.9097
11
108.032
21
-78.7103
0
LINE
8
Black
10
166.662
20
-78.0503
11
165.942
21
-78.0503
0
LINE
8
Black
10
165.942
20
-78.0503
11
165.942
21
-77.2497
0
LINE
8
Black
10
165.942
20
-77.2497
11
166.662
21
-77.2497
0
LINE
8
Black
10
166.662
20
-77.2497
11
166.662
21
-78.0503
0
LINE
8
Black
10
165.158
20
-78.0503
11
164.438
21
-78.0503
0
LINE
8
Black
10
164.438
20
-78.0503
11
164.438
21
-77.2497
0
LINE
8
Black
10
164.438
20
-77.2497
11
165.158
21
-77.2497
0
LINE
8
Black
10
165.158
20
-77.2497
11
165.158
21
-78.0503
0
LINE
8
Black
10
161.287
20
-77.3753
11
160.567
21
-77.3753
0
LINE
8
Black
10
160.567
20
-77.3753
11
160.567
21
-76.5747
0
LINE
8
Black
10
160.567
20
-76.5747
11
161.287
21
-76.5747
0
LINE
8
Black
10
161.287
20
-76.5747
11
161.287
21
-77.3753
0
LINE
8
Black
10
159.783
20
-77.3753
11
159.063
21
-77.3753
0
LINE
8
Black
10
159.063
20
-77.3753
11
159.063
21
-76.5747
0
LINE
8
Black
10
159.063
20
-76.5747
11
159.783
21
-76.5747
0
LINE
8
Black
10
159.783
20
-76.5747
11
159.783
21
-77.3753
0
LINE
8
Black
10
107.972
20
-77.1103
11
107.252
21
-77.1103
0
LINE
8
Black
10
107.252
20
-77.1103
11
107.252
21
-76.3097
0
LINE
8
Black
10
107.252
20
-76.3097
11
107.972
21
-76.3097
0
LINE
8
Black
10
107.972
20
-76.3097
11
107.972
21
-77.1103
0
LINE
8
Black
10
106.468
20
-77.1103
11
105.748
21
-77.1103
0
LINE
8
Black
10
105.748
20
-77.1103
11
105.748
21
-76.3097
0
LINE
8
Black
10
105.748
20
-76.3097
11
106.468
21
-76.3097
0
LINE
8
Black
10
106.468
20
-76.3097
11
106.468
21
-77.1103
0
LINE
8
Black
10
118.03
20
-76.7115
11
117.23
21
-76.7115
0
LINE
8
Black
10
117.23
20
-76.7115
11
117.23
21
-75.9922
0
LINE
8
Black
10
117.23
20
-75.9922
11
118.03
21
-75.9922
0
LINE
8
Black
10
118.03
20
-75.9922
11
118.03
21
-76.7115
0
LINE
8
Black
10
114.91
20
-76.7015
11
114.11
21
-76.7015
0
LINE
8
Black
10
114.11
20
-76.7015
11
114.11
21
-75.9822
0
LINE
8
Black
10
114.11
20
-75.9822
11
114.91
21
-75.9822
0
LINE
8
Black
10
114.91
20
-75.9822
11
114.91
21
-76.7015
0
LINE
8
Black
10
116.47
20
-76.6915
11
115.67
21
-76.6915
0
LINE
8
Black
10
115.67
20
-76.6915
11
115.67
21
-75.9722
0
LINE
8
Black
10
115.67
20
-75.9722
11
116.47
21
-75.9722
0
LINE
8
Black
10
116.47
20
-75.9722
11
116.47
21
-76.6915
0
LINE
8
Black
10
113.3
20
-76.6915
11
112.5
21
-76.6915
0
LINE
8
Black
10
112.5
20
-76.6915
11
112.5
21
-75.9722
0
LINE
8
Black
10
112.5
20
-75.9722
11
113.3
21
-75.9722
0
LINE
8
Black
10
113.3
20
-75.9722
11
113.3
21
-76.6915
0
LINE
8
Black
10
127.01
20
-76.3215
11
126.21
21
-76.3215
0
LINE
8
Black
10
126.21
20
-76.3215
11
126.21
21
-75.6022
0
LINE
8
Black
10
126.21
20
-75.6022
11
127.01
21
-75.6022
0
LINE
8
Black
10
127.01
20
-75.6022
11
127.01
21
-76.3215
0
LINE
8
Black
10
125.41
20
-76.2615
11
124.61
21
-76.2615
0
LINE
8
Black
10
124.61
20
-76.2615
11
124.61
21
-75.5422
0
LINE
8
Black
10
124.61
20
-75.5422
11
125.41
21
-75.5422
0
LINE
8
Black
10
125.41
20
-75.5422
11
125.41
21
-76.2615
0
LINE
8
Black
10
123.81
20
-76.2615
11
123.01
21
-76.2615
0
LINE
8
Black
10
123.01
20
-76.2615
11
123.01
21
-75.5422
0
LINE
8
Black
10
123.01
20
-75.5422
11
123.81
21
-75.5422
0
LINE
8
Black
10
123.81
20
-75.5422
11
123.81
21
-76.2615
0
LINE
8
Black
10
122.15
20
-76.2315
11
121.35
21
-76.2315
0
LINE
8
Black
10
121.35
20
-76.2315
11
121.35
21
-75.5122
0
LINE
8
Black
10
121.35
20
-75.5122
11
122.15
21
-75.5122
0
LINE
8
Black
10
122.15
20
-75.5122
11
122.15
21
-76.2315
0
LINE
8
Black
10
120.58
20
-76.2115
11
119.78
21
-76.2115
0
LINE
8
Black
10
119.78
20
-76.2115
11
119.78
21
-75.4922
0
LINE
8
Black
10
119.78
20
-75.4922
11
120.58
21
-75.4922
0
LINE
8
Black
10
120.58
20
-75.4922
11
120.58
21
-76.2115
0
LINE
8
Black
10
101.332
20
-76.1103
11
100.612
21
-76.1103
0
LINE
8
Black
10
100.612
20
-76.1103
11
100.612
21
-75.3097
0
LINE
8
Black
10
100.612
20
-75.3097
11
101.332
21
-75.3097
0
LINE
8
Black
10
101.332
20
-75.3097
11
101.332
21
-76.1103
0
LINE
8
Black
10
99.8282
20
-76.11
11
99.1082
21
-76.11
0
LINE
8
Black
10
99.1082
20
-76.11
11
99.1082
21
-75.31
0
LINE
8
Black
10
99.1082
20
-75.31
11
99.8282
21
-75.31
0
LINE
8
Black
10
99.8282
20
-75.31
11
99.8282
21
-76.11
0
LINE
8
Black
10
148.23
20
-75.9915
11
147.43
21
-75.9915
0
LINE
8
Black
10
147.43
20
-75.9915
11
147.43
21
-75.2722
0
LINE
8
Black
10
147.43
20
-75.2722
11
148.23
21
-75.2722
0
LINE
8
Black
10
148.23
20
-75.2722
11
148.23
21
-75.9915
0
LINE
8
Black
10
150.3
20
-75.9715
11
149.5
21
-75.9715
0
LINE
8
Black
10
149.5
20
-75.9715
11
149.5
21
-75.2522
0
LINE
8
Black
10
149.5
20
-75.2522
11
150.3
21
-75.2522
0
LINE
8
Black
10
150.3
20
-75.2522
11
150.3
21
-75.9715
0
LINE
8
Black
10
156.64
20
-75.9118
11
155.84
21
-75.9118
0
LINE
8
Black
10
155.84
20
-75.9118
11
155.84
21
-75.1918
0
LINE
8
Black
10
155.84
20
-75.1918
11
156.64
21
-75.1918
0
LINE
8
Black
10
156.64
20
-75.1918
11
156.64
21
-75.9118
0
LINE
8
Black
10
154.84
20
-75.8815
11
154.04
21
-75.8815
0
LINE
8
Black
10
154.04
20
-75.8815
11
154.04
21
-75.1622
0
LINE
8
Black
10
154.04
20
-75.1622
11
154.84
21
-75.1622
0
LINE
8
Black
10
154.84
20
-75.1622
11
154.84
21
-75.8815
0
LINE
8
Black
10
153.01
20
-75.8315
11
152.21
21
-75.8315
0
LINE
8
Black
10
152.21
20
-75.8315
11
152.21
21
-75.1122
0
LINE
8
Black
10
152.21
20
-75.1122
11
153.01
21
-75.1122
0
LINE
8
Black
10
153.01
20
-75.1122
11
153.01
21
-75.8315
0
LINE
8
Black
10
135.16
20
-75.7515
11
134.36
21
-75.7515
0
LINE
8
Black
10
134.36
20
-75.7515
11
134.36
21
-75.0322
0
LINE
8
Black
10
134.36
20
-75.0322
11
135.16
21
-75.0322
0
LINE
8
Black
10
135.16
20
-75.0322
11
135.16
21
-75.7515
0
LINE
8
Black
10
131.17
20
-75.7315
11
130.37
21
-75.7315
0
LINE
8
Black
10
130.37
20
-75.7315
11
130.37
21
-75.0122
0
LINE
8
Black
10
130.37
20
-75.0122
11
131.17
21
-75.0122
0
LINE
8
Black
10
131.17
20
-75.0122
11
131.17
21
-75.7315
0
LINE
8
Black
10
133.16
20
-75.7315
11
132.36
21
-75.7315
0
LINE
8
Black
10
132.36
20
-75.7315
11
132.36
21
-75.0122
0
LINE
8
Black
10
132.36
20
-75.0122
11
133.16
21
-75.0122
0
LINE
8
Black
10
133.16
20
-75.0122
11
133.16
21
-75.7315
0
LINE
8
Black
10
129.07
20
-75.7115
11
128.27
21
-75.7115
0
LINE
8
Black
10
128.27
20
-75.7115
11
128.27
21
-74.9922
0
LINE
8
Black
10
128.27
20
-74.9922
11
129.07
21
-74.9922
0
LINE
8
Black
10
129.07
20
-74.9922
11
129.07
21
-75.7115
0
LINE
8
Black
10
118.03
20
-75.2078
11
117.23
21
-75.2078
0
LINE
8
Black
10
117.23
20
-75.2078
11
117.23
21
-74.4885
0
LINE
8
Black
10
117.23
20
-74.4885
11
118.03
21
-74.4885
0
LINE
8
Black
10
118.03
20
-74.4885
11
118.03
21
-75.2078
0
LINE
8
Black
10
114.91
20
-75.1978
11
114.11
21
-75.1978
0
LINE
8
Black
10
114.11
20
-75.1978
11
114.11
21
-74.4785
0
LINE
8
Black
10
114.11
20
-74.4785
11
114.91
21
-74.4785
0
LINE
8
Black
10
114.91
20
-74.4785
11
114.91
21
-75.1978
0
LINE
8
Black
10
116.47
20
-75.1878
11
115.67
21
-75.1878
0
LINE
8
Black
10
115.67
20
-75.1878
11
115.67
21
-74.4685
0
LINE
8
Black
10
115.67
20
-74.4685
11
116.47
21
-74.4685
0
LINE
8
Black
10
116.47
20
-74.4685
11
116.47
21
-75.1878
0
LINE
8
Black
10
113.3
20
-75.1878
11
112.5
21
-75.1878
0
LINE
8
Black
10
112.5
20
-75.1878
11
112.5
21
-74.4685
0
LINE
8
Black
10
112.5
20
-74.4685
11
113.3
21
-74.4685
0
LINE
8
Black
10
113.3
20
-74.4685
11
113.3
21
-75.1878
0
LINE
8
Black
10
127.01
20
-74.8182
11
126.21
21
-74.8182
0
LINE
8
Black
10
126.21
20
-74.8182
11
126.21
21
-74.0982
0
LINE
8
Black
10
126.21
20
-74.0982
11
127.01
21
-74.0982
0
LINE
8
Black
10
127.01
20
-74.0982
11
127.01
21
-74.8182
0
LINE
8
Black
10
123.81
20
-74.7578
11
123.01
21
-74.7578
0
LINE
8
Black
10
123.01
20
-74.7578
11
123.01
21
-74.0385
0
LINE
8
Black
10
123.01
20
-74.0385
11
123.81
21
-74.0385
0
LINE
8
Black
10
123.81
20
-74.0385
11
123.81
21
-74.7578
0
LINE
8
Black
10
125.41
20
-74.7578
11
124.61
21
-74.7578
0
LINE
8
Black
10
124.61
20
-74.7578
11
124.61
21
-74.0385
0
LINE
8
Black
10
124.61
20
-74.0385
11
125.41
21
-74.0385
0
LINE
8
Black
10
125.41
20
-74.0385
11
125.41
21
-74.7578
0
LINE
8
Black
10
122.15
20
-74.7278
11
121.35
21
-74.7278
0
LINE
8
Black
10
121.35
20
-74.7278
11
121.35
21
-74.0085
0
LINE
8
Black
10
121.35
20
-74.0085
11
122.15
21
-74.0085
0
LINE
8
Black
10
122.15
20
-74.0085
11
122.15
21
-74.7278
0
LINE
8
Black
10
120.58
20
-74.7078
11
119.78
21
-74.7078
0
LINE
8
Black
10
119.78
20
-74.7078
11
119.78
21
-73.9885
0
LINE
8
Black
10
119.78
20
-73.9885
11
120.58
21
-73.9885
0
LINE
8
Black
10
120.58
20
-73.9885
11
120.58
21
-74.7078
0
LINE
8
Black
10
148.23
20
-74.4878
11
147.43
21
-74.4878
0
LINE
8
Black
10
147.43
20
-74.4878
11
147.43
21
-73.7685
0
LINE
8
Black
10
147.43
20
-73.7685
11
148.23
21
-73.7685
0
LINE
8
Black
10
148.23
20
-73.7685
11
148.23
21
-74.4878
0
LINE
8
Black
10
150.3
20
-74.4678
11
149.5
21
-74.4678
0
LINE
8
Black
10
149.5
20
-74.4678
11
149.5
21
-73.7485
0
LINE
8
Black
10
149.5
20
-73.7485
11
150.3
21
-73.7485
0
LINE
8
Black
10
150.3
20
-73.7485
11
150.3
21
-74.4678
0
LINE
8
Black
10
156.64
20
-74.4078
11
155.84
21
-74.4078
0
LINE
8
Black
10
155.84
20
-74.4078
11
155.84
21
-73.6885
0
LINE
8
Black
10
155.84
20
-73.6885
11
156.64
21
-73.6885
0
LINE
8
Black
10
156.64
20
-73.6885
11
156.64
21
-74.4078
0
LINE
8
Black
10
154.84
20
-74.3778
11
154.04
21
-74.3778
0
LINE
8
Black
10
154.04
20
-74.3778
11
154.04
21
-73.6585
0
LINE
8
Black
10
154.04
20
-73.6585
11
154.84
21
-73.6585
0
LINE
8
Black
10
154.84
20
-73.6585
11
154.84
21
-74.3778
0
LINE
8
Black
10
96.6415
20
-74.3703
11
95.9222
21
-74.3703
0
LINE
8
Black
10
95.9222
20
-74.3703
11
95.9222
21
-73.5697
0
LINE
8
Black
10
95.9222
20
-73.5697
11
96.6415
21
-73.5697
0
LINE
8
Black
10
96.6415
20
-73.5697
11
96.6415
21
-74.3703
0
LINE
8
Black
10
95.1382
20
-74.37
11
94.4182
21
-74.37
0
LINE
8
Black
10
94.4182
20
-74.37
11
94.4182
21
-73.57
0
LINE
8
Black
10
94.4182
20
-73.57
11
95.1382
21
-73.57
0
LINE
8
Black
10
95.1382
20
-73.57
11
95.1382
21
-74.37
0
LINE
8
Black
10
153.01
20
-74.3278
11
152.21
21
-74.3278
0
LINE
8
Black
10
152.21
20
-74.3278
11
152.21
21
-73.6085
0
LINE
8
Black
10
152.21
20
-73.6085
11
153.01
21
-73.6085
0
LINE
8
Black
10
153.01
20
-73.6085
11
153.01
21
-74.3278
0
LINE
8
Black
10
135.16
20
-74.2478
11
134.36
21
-74.2478
0
LINE
8
Black
10
134.36
20
-74.2478
11
134.36
21
-73.5285
0
LINE
8
Black
10
134.36
20
-73.5285
11
135.16
21
-73.5285
0
LINE
8
Black
10
135.16
20
-73.5285
11
135.16
21
-74.2478
0
LINE
8
Black
10
131.17
20
-74.2278
11
130.37
21
-74.2278
0
LINE
8
Black
10
130.37
20
-74.2278
11
130.37
21
-73.5085
0
LINE
8
Black
10
130.37
20
-73.5085
11
131.17
21
-73.5085
0
LINE
8
Black
10
131.17
20
-73.5085
11
131.17
21
-74.2278
0
LINE
8
Black
10
133.16
20
-74.2278
11
132.36
21
-74.2278
0
LINE
8
Black
10
132.36
20
-74.2278
11
132.36
21
-73.5085
0
LINE
8
Black
10
132.36
20
-73.5085
11
133.16
21
-73.5085
0
LINE
8
Black
10
133.16
20
-73.5085
11
133.16
21
-74.2278
0
LINE
8
Black
10
129.07
20
-74.2078
11
128.27
21
-74.2078
0
LINE
8
Black
10
128.27
20
-74.2078
11
128.27
21
-73.4885
0
LINE
8
Black
10
128.27
20
-73.4885
11
129.07
21
-73.4885
0
LINE
8
Black
10
129.07
20
-73.4885
11
129.07
21
-74.2078
0
LINE
8
Black
10
165.583
20
-74.1753
11
164.863
21
-74.1753
0
LINE
8
Black
10
164.863
20
-74.1753
11
164.863
21
-73.3747
0
LINE
8
Black
10
164.863
20
-73.3747
11
165.583
21
-73.3747
0
LINE
8
Black
10
165.583
20
-73.3747
11
165.583
21
-74.1753
0
LINE
8
Black
10
167.087
20
-74.1753
11
166.367
21
-74.1753
0
LINE
8
Black
10
166.367
20
-74.1753
11
166.367
21
-73.3747
0
LINE
8
Black
10
166.367
20
-73.3747
11
167.087
21
-73.3747
0
LINE
8
Black
10
167.087
20
-73.3747
11
167.087
21
-74.1753
0
LINE
8
Black
10
140.872
20
-74.1603
11
140.152
21
-74.1603
0
LINE
8
Black
10
140.152
20
-74.1603
11
140.152
21
-73.3597
0
LINE
8
Black
10
140.152
20
-73.3597
11
140.872
21
-73.3597
0
LINE
8
Black
10
140.872
20
-73.3597
11
140.872
21
-74.1603
0
LINE
8
Black
10
139.368
20
-74.16
11
138.648
21
-74.16
0
LINE
8
Black
10
138.648
20
-74.16
11
138.648
21
-73.36
0
LINE
8
Black
10
138.648
20
-73.36
11
139.368
21
-73.36
0
LINE
8
Black
10
139.368
20
-73.36
11
139.368
21
-74.16
0
LINE
8
Black
10
162.558
20
-74.1503
11
161.838
21
-74.1503
0
LINE
8
Black
10
161.838
20
-74.1503
11
161.838
21
-73.3497
0
LINE
8
Black
10
161.838
20
-73.3497
11
162.558
21
-73.3497
0
LINE
8
Black
10
162.558
20
-73.3497
11
162.558
21
-74.1503
0
LINE
8
Black
10
164.062
20
-74.1503
11
163.342
21
-74.1503
0
LINE
8
Black
10
163.342
20
-74.1503
11
163.342
21
-73.3497
0
LINE
8
Black
10
163.342
20
-73.3497
11
164.062
21
-73.3497
0
LINE
8
Black
10
164.062
20
-73.3497
11
164.062
21
-74.1503
0
LINE
8
Black
10
183.19
20
-71.1415
11
182.39
21
-71.1415
0
LINE
8
Black
10
182.39
20
-71.1415
11
182.39
21
-70.4222
0
LINE
8
Black
10
182.39
20
-70.4222
11
183.19
21
-70.4222
0
LINE
8
Black
10
183.19
20
-70.4222
11
183.19
21
-71.1415
0
LINE
8
Black
10
183.19
20
-69.6382
11
182.39
21
-69.6382
0
LINE
8
Black
10
182.39
20
-69.6382
11
182.39
21
-68.9182
0
LINE
8
Black
10
182.39
20
-68.9182
11
183.19
21
-68.9182
0
LINE
8
Black
10
183.19
20
-68.9182
11
183.19
21
-69.6382
  0
ENDSEC
  0
EOF
