G04 #@! TF.FileFunction,Paste,Top*
%FSLAX46Y46*%
G04 Gerber Fmt 4.6, Leading zero omitted, Abs format (unit mm)*
G04 Created by KiCad (PCBNEW 4.0.6-e0-6349~53~ubuntu16.04.1) date Wed Aug 23 21:58:44 2017*
%MOMM*%
%LPD*%
G01*
G04 APERTURE LIST*
%ADD10C,0.150000*%
%ADD11R,1.117600X0.711200*%
%ADD12R,0.960000X0.880000*%
%ADD13R,0.711200X1.117600*%
%ADD14R,0.224000X1.200000*%
%ADD15R,1.200000X0.224000*%
%ADD16R,1.600000X1.000000*%
%ADD17R,2.000000X1.200000*%
%ADD18R,5.600000X5.600000*%
%ADD19R,0.719328X0.800608*%
%ADD20R,0.720000X0.800000*%
%ADD21R,0.800608X0.719328*%
%ADD22R,0.800000X0.720000*%
%ADD23R,2.160000X1.080000*%
%ADD24R,1.080000X2.160000*%
G04 APERTURE END LIST*
D10*
D11*
X108750000Y-100797500D03*
X108750000Y-102702500D03*
D12*
X134890000Y-107430000D03*
X136590000Y-107430000D03*
X134890000Y-106030000D03*
X136590000Y-106030000D03*
D13*
X104252500Y-106250000D03*
X102347500Y-106250000D03*
D14*
X144750000Y-84300000D03*
X144250000Y-84300000D03*
X143750000Y-84300000D03*
X143250000Y-84300000D03*
X142750000Y-84300000D03*
X142250000Y-84300000D03*
X141750000Y-84300000D03*
X141250000Y-84300000D03*
X140750000Y-84300000D03*
X140250000Y-84300000D03*
X139750000Y-84300000D03*
X139250000Y-84300000D03*
X138750000Y-84300000D03*
X138250000Y-84300000D03*
X137750000Y-84300000D03*
X137250000Y-84300000D03*
X136750000Y-84300000D03*
X136250000Y-84300000D03*
X135750000Y-84300000D03*
X135250000Y-84300000D03*
X134750000Y-84300000D03*
X134250000Y-84300000D03*
X133750000Y-84300000D03*
X133250000Y-84300000D03*
X132750000Y-84300000D03*
X132250000Y-84300000D03*
X131750000Y-84300000D03*
X131250000Y-84300000D03*
X130750000Y-84300000D03*
X130250000Y-84300000D03*
X129750000Y-84300000D03*
X129250000Y-84300000D03*
X128750000Y-84300000D03*
X128250000Y-84300000D03*
X127750000Y-84300000D03*
X127250000Y-84300000D03*
X126750000Y-84300000D03*
X126250000Y-84300000D03*
D15*
X124300000Y-86250000D03*
X124300000Y-86750000D03*
X124300000Y-87250000D03*
X124300000Y-87750000D03*
X124300000Y-88250000D03*
X124300000Y-88750000D03*
X124300000Y-89250000D03*
X124300000Y-89750000D03*
X124300000Y-90250000D03*
X124300000Y-90750000D03*
X124300000Y-91250000D03*
X124300000Y-91750000D03*
X124300000Y-92250000D03*
X124300000Y-92750000D03*
X124300000Y-93250000D03*
X124300000Y-93750000D03*
X124300000Y-94250000D03*
X124300000Y-94750000D03*
X124300000Y-95250000D03*
X124300000Y-95750000D03*
X124300000Y-96250000D03*
X124300000Y-96750000D03*
X124300000Y-97250000D03*
X124300000Y-97750000D03*
X124300000Y-98250000D03*
X124300000Y-98750000D03*
D14*
X126250000Y-100700000D03*
X126750000Y-100700000D03*
X127250000Y-100700000D03*
X127750000Y-100700000D03*
X128250000Y-100700000D03*
X128750000Y-100700000D03*
X129250000Y-100700000D03*
X129750000Y-100700000D03*
X130250000Y-100700000D03*
X130750000Y-100700000D03*
X131250000Y-100700000D03*
X131750000Y-100700000D03*
X132250000Y-100700000D03*
X132750000Y-100700000D03*
X133250000Y-100700000D03*
X133750000Y-100700000D03*
X134250000Y-100700000D03*
X134750000Y-100700000D03*
X135250000Y-100700000D03*
X135750000Y-100700000D03*
X136250000Y-100700000D03*
X136750000Y-100700000D03*
X137250000Y-100700000D03*
X137750000Y-100700000D03*
X138250000Y-100700000D03*
X138750000Y-100700000D03*
X139250000Y-100700000D03*
X139750000Y-100700000D03*
X140250000Y-100700000D03*
X140750000Y-100700000D03*
X141250000Y-100700000D03*
X141750000Y-100700000D03*
X142250000Y-100700000D03*
X142750000Y-100700000D03*
X143250000Y-100700000D03*
X143750000Y-100700000D03*
X144250000Y-100700000D03*
X144750000Y-100700000D03*
D15*
X146700000Y-98750000D03*
X146700000Y-98250000D03*
X146700000Y-97750000D03*
X146700000Y-97250000D03*
X146700000Y-96750000D03*
X146700000Y-96250000D03*
X146700000Y-95750000D03*
X146700000Y-95250000D03*
X146700000Y-94750000D03*
X146700000Y-94250000D03*
X146700000Y-93750000D03*
X146700000Y-93250000D03*
X146700000Y-92750000D03*
X146700000Y-92250000D03*
X146700000Y-91750000D03*
X146700000Y-91250000D03*
X146700000Y-90750000D03*
X146700000Y-90250000D03*
X146700000Y-89750000D03*
X146700000Y-89250000D03*
X146700000Y-88750000D03*
X146700000Y-88250000D03*
X146700000Y-87750000D03*
X146700000Y-87250000D03*
X146700000Y-86750000D03*
X146700000Y-86250000D03*
D16*
X118900000Y-96825000D03*
X118900000Y-99575000D03*
D17*
X115650000Y-96000000D03*
X115650000Y-91400000D03*
D18*
X108800000Y-93700000D03*
D19*
X100971840Y-75710000D03*
D20*
X99468160Y-75710000D03*
D19*
X96281840Y-73970000D03*
D20*
X94778160Y-73970000D03*
D21*
X126610000Y-75961840D03*
D22*
X126610000Y-74458160D03*
D19*
X140511840Y-73760000D03*
D20*
X139008160Y-73760000D03*
D21*
X156240000Y-74048160D03*
D22*
X156240000Y-75551840D03*
D19*
X164448160Y-101050000D03*
D20*
X165951840Y-101050000D03*
D21*
X133590000Y-105898160D03*
D22*
X133590000Y-107401840D03*
D21*
X138060000Y-105898160D03*
D22*
X138060000Y-107401840D03*
D19*
X151951840Y-88950000D03*
D20*
X150448160Y-88950000D03*
D21*
X182790000Y-70781840D03*
D22*
X182790000Y-69278160D03*
D19*
X119808160Y-88780000D03*
D20*
X121311840Y-88780000D03*
D19*
X152001840Y-90975000D03*
D20*
X150498160Y-90975000D03*
D19*
X123168160Y-84340000D03*
D20*
X124671840Y-84340000D03*
D19*
X152051840Y-92700000D03*
D20*
X150548160Y-92700000D03*
D19*
X152051840Y-97000000D03*
D20*
X150548160Y-97000000D03*
D21*
X131620000Y-79158160D03*
D22*
X131620000Y-80661840D03*
D21*
X142250000Y-104521840D03*
D22*
X142250000Y-103018160D03*
D21*
X135290000Y-80228160D03*
D22*
X135290000Y-81731840D03*
D21*
X137820000Y-103881840D03*
D22*
X137820000Y-102378160D03*
D21*
X138870000Y-78478160D03*
D22*
X138870000Y-79981840D03*
D21*
X134230000Y-103891840D03*
D22*
X134230000Y-102388160D03*
D21*
X142475000Y-79223160D03*
D22*
X142475000Y-80726840D03*
D21*
X129680000Y-103731840D03*
D22*
X129680000Y-102228160D03*
D19*
X148751840Y-83300000D03*
D20*
X147248160Y-83300000D03*
D19*
X118988160Y-93070000D03*
D20*
X120491840Y-93070000D03*
D19*
X164823160Y-81900000D03*
D20*
X166326840Y-81900000D03*
D19*
X120688160Y-97780000D03*
D20*
X122191840Y-97780000D03*
D19*
X126578160Y-80900000D03*
D20*
X128081840Y-80900000D03*
D19*
X122561840Y-94510000D03*
X121058160Y-94510000D03*
X121311840Y-90210000D03*
X119808160Y-90210000D03*
X150548160Y-94100000D03*
X152051840Y-94100000D03*
X106108160Y-76710000D03*
X107611840Y-76710000D03*
X107671840Y-78310000D03*
X106168160Y-78310000D03*
X106278160Y-81790000D03*
X107781840Y-81790000D03*
X107731840Y-80060000D03*
X106228160Y-80060000D03*
D21*
X117630000Y-74848160D03*
X117630000Y-76351840D03*
X116070000Y-76331840D03*
X116070000Y-74828160D03*
X112900000Y-74828160D03*
X112900000Y-76331840D03*
X114510000Y-76341840D03*
X114510000Y-74838160D03*
X125010000Y-74398160D03*
X125010000Y-75901840D03*
X123410000Y-75901840D03*
X123410000Y-74398160D03*
X120180000Y-74348160D03*
X120180000Y-75851840D03*
X121750000Y-75871840D03*
X121750000Y-74368160D03*
X134760000Y-73888160D03*
X134760000Y-75391840D03*
X132760000Y-75371840D03*
X132760000Y-73868160D03*
X128670000Y-73848160D03*
X128670000Y-75351840D03*
X130770000Y-75371840D03*
X130770000Y-73868160D03*
X154440000Y-74018160D03*
X154440000Y-75521840D03*
X152610000Y-75471840D03*
X152610000Y-73968160D03*
X147830000Y-74128160D03*
X147830000Y-75631840D03*
X149900000Y-75611840D03*
X149900000Y-74108160D03*
D19*
X159348160Y-79050000D03*
X160851840Y-79050000D03*
X160926840Y-76975000D03*
X159423160Y-76975000D03*
X152201840Y-98825000D03*
X150698160Y-98825000D03*
X162198160Y-73750000D03*
X163701840Y-73750000D03*
D21*
X143750000Y-104501840D03*
X143750000Y-102998160D03*
D19*
X166726840Y-73775000D03*
X165223160Y-73775000D03*
D21*
X140830000Y-105071840D03*
X140830000Y-103568160D03*
X145000000Y-104501840D03*
X145000000Y-102998160D03*
X139490000Y-105071840D03*
X139490000Y-103568160D03*
D19*
X120998160Y-91750000D03*
X122501840Y-91750000D03*
D21*
X136450000Y-103821840D03*
X136450000Y-102318160D03*
X132540000Y-104181840D03*
X132540000Y-102678160D03*
X130980000Y-103871840D03*
X130980000Y-102368160D03*
D19*
X164598160Y-85600000D03*
X166101840Y-85600000D03*
X166051840Y-84000000D03*
X164548160Y-84000000D03*
X164798160Y-77650000D03*
X166301840Y-77650000D03*
X166376840Y-79525000D03*
X164873160Y-79525000D03*
X164448160Y-104840000D03*
X165951840Y-104840000D03*
X165951840Y-102500000D03*
X164448160Y-102500000D03*
X164398160Y-97725000D03*
X165901840Y-97725000D03*
X165951840Y-99650000D03*
X164448160Y-99650000D03*
X118158160Y-101130000D03*
X119661840Y-101130000D03*
X152051840Y-95500000D03*
X150548160Y-95500000D03*
X161251840Y-101650000D03*
X159748160Y-101650000D03*
D23*
X102350000Y-100775000D03*
X102350000Y-103525000D03*
D24*
X112485000Y-103460000D03*
X115235000Y-103460000D03*
D23*
X116000000Y-98125000D03*
X116000000Y-100875000D03*
M02*
