G04 #@! TF.FileFunction,Legend,Bot*
%FSLAX46Y46*%
G04 Gerber Fmt 4.6, Leading zero omitted, Abs format (unit mm)*
G04 Created by KiCad (PCBNEW 4.0.6-e0-6349~53~ubuntu16.04.1) date Wed Aug 23 21:58:44 2017*
%MOMM*%
%LPD*%
G01*
G04 APERTURE LIST*
%ADD10C,0.150000*%
%ADD11C,0.200000*%
%ADD12C,0.300000*%
%ADD13C,0.100000*%
%ADD14C,0.254000*%
%ADD15C,0.099060*%
G04 APERTURE END LIST*
D10*
D11*
X104061905Y-83819048D02*
X104061905Y-84314286D01*
X104366667Y-84047619D01*
X104366667Y-84161905D01*
X104404762Y-84238095D01*
X104442857Y-84276191D01*
X104519048Y-84314286D01*
X104709524Y-84314286D01*
X104785714Y-84276191D01*
X104823810Y-84238095D01*
X104861905Y-84161905D01*
X104861905Y-83933333D01*
X104823810Y-83857143D01*
X104785714Y-83819048D01*
X104785714Y-84657143D02*
X104823810Y-84695238D01*
X104861905Y-84657143D01*
X104823810Y-84619048D01*
X104785714Y-84657143D01*
X104861905Y-84657143D01*
X104061905Y-84961905D02*
X104061905Y-85457143D01*
X104366667Y-85190476D01*
X104366667Y-85304762D01*
X104404762Y-85380952D01*
X104442857Y-85419048D01*
X104519048Y-85457143D01*
X104709524Y-85457143D01*
X104785714Y-85419048D01*
X104823810Y-85380952D01*
X104861905Y-85304762D01*
X104861905Y-85076190D01*
X104823810Y-85000000D01*
X104785714Y-84961905D01*
X104061905Y-85685714D02*
X104861905Y-85952381D01*
X104061905Y-86219048D01*
X164442856Y-80578571D02*
X164299999Y-80578571D01*
X164157142Y-80650000D01*
X164085713Y-80721429D01*
X164014284Y-80864286D01*
X163942856Y-81150000D01*
X163942856Y-81507143D01*
X164014284Y-81792857D01*
X164085713Y-81935714D01*
X164157142Y-82007143D01*
X164299999Y-82078571D01*
X164442856Y-82078571D01*
X164585713Y-82007143D01*
X164657142Y-81935714D01*
X164728570Y-81792857D01*
X164799999Y-81507143D01*
X164799999Y-81150000D01*
X164728570Y-80864286D01*
X164657142Y-80721429D01*
X164585713Y-80650000D01*
X164442856Y-80578571D01*
X163442856Y-80578571D02*
X162442856Y-80578571D01*
X163085713Y-82078571D01*
X160800000Y-80507143D02*
X162085714Y-82435714D01*
X160371428Y-80721429D02*
X160299999Y-80650000D01*
X160157142Y-80578571D01*
X159799999Y-80578571D01*
X159657142Y-80650000D01*
X159585713Y-80721429D01*
X159514285Y-80864286D01*
X159514285Y-81007143D01*
X159585713Y-81221429D01*
X160442856Y-82078571D01*
X159514285Y-82078571D01*
X158800000Y-82078571D02*
X158514285Y-82078571D01*
X158371428Y-82007143D01*
X158300000Y-81935714D01*
X158157142Y-81721429D01*
X158085714Y-81435714D01*
X158085714Y-80864286D01*
X158157142Y-80721429D01*
X158228571Y-80650000D01*
X158371428Y-80578571D01*
X158657142Y-80578571D01*
X158800000Y-80650000D01*
X158871428Y-80721429D01*
X158942857Y-80864286D01*
X158942857Y-81221429D01*
X158871428Y-81364286D01*
X158800000Y-81435714D01*
X158657142Y-81507143D01*
X158371428Y-81507143D01*
X158228571Y-81435714D01*
X158157142Y-81364286D01*
X158085714Y-81221429D01*
X156371429Y-80507143D02*
X157657143Y-82435714D01*
X155942857Y-80721429D02*
X155871428Y-80650000D01*
X155728571Y-80578571D01*
X155371428Y-80578571D01*
X155228571Y-80650000D01*
X155157142Y-80721429D01*
X155085714Y-80864286D01*
X155085714Y-81007143D01*
X155157142Y-81221429D01*
X156014285Y-82078571D01*
X155085714Y-82078571D01*
X154157143Y-80578571D02*
X154014286Y-80578571D01*
X153871429Y-80650000D01*
X153800000Y-80721429D01*
X153728571Y-80864286D01*
X153657143Y-81150000D01*
X153657143Y-81507143D01*
X153728571Y-81792857D01*
X153800000Y-81935714D01*
X153871429Y-82007143D01*
X154014286Y-82078571D01*
X154157143Y-82078571D01*
X154300000Y-82007143D01*
X154371429Y-81935714D01*
X154442857Y-81792857D01*
X154514286Y-81507143D01*
X154514286Y-81150000D01*
X154442857Y-80864286D01*
X154371429Y-80721429D01*
X154300000Y-80650000D01*
X154157143Y-80578571D01*
X152228572Y-82078571D02*
X153085715Y-82078571D01*
X152657143Y-82078571D02*
X152657143Y-80578571D01*
X152800000Y-80792857D01*
X152942858Y-80935714D01*
X153085715Y-81007143D01*
X151728572Y-80578571D02*
X150728572Y-80578571D01*
X151371429Y-82078571D01*
X104100000Y-87390477D02*
X104061905Y-87314286D01*
X104061905Y-87200001D01*
X104100000Y-87085715D01*
X104176190Y-87009524D01*
X104252381Y-86971429D01*
X104404762Y-86933334D01*
X104519048Y-86933334D01*
X104671429Y-86971429D01*
X104747619Y-87009524D01*
X104823810Y-87085715D01*
X104861905Y-87200001D01*
X104861905Y-87276191D01*
X104823810Y-87390477D01*
X104785714Y-87428572D01*
X104519048Y-87428572D01*
X104519048Y-87276191D01*
X104861905Y-87771429D02*
X104061905Y-87771429D01*
X104861905Y-88228572D01*
X104061905Y-88228572D01*
X104861905Y-88609524D02*
X104061905Y-88609524D01*
X104061905Y-88800000D01*
X104100000Y-88914286D01*
X104176190Y-88990477D01*
X104252381Y-89028572D01*
X104404762Y-89066667D01*
X104519048Y-89066667D01*
X104671429Y-89028572D01*
X104747619Y-88990477D01*
X104823810Y-88914286D01*
X104861905Y-88800000D01*
X104861905Y-88609524D01*
D12*
X167848570Y-77502857D02*
X167348570Y-77502857D01*
X167134284Y-78288571D02*
X167848570Y-78288571D01*
X167848570Y-76788571D01*
X167134284Y-76788571D01*
X166705713Y-77288571D02*
X166134284Y-77288571D01*
X166491427Y-76788571D02*
X166491427Y-78074286D01*
X166419999Y-78217143D01*
X166277141Y-78288571D01*
X166134284Y-78288571D01*
X165634284Y-78288571D02*
X165634284Y-76788571D01*
X164991427Y-78288571D02*
X164991427Y-77502857D01*
X165062856Y-77360000D01*
X165205713Y-77288571D01*
X165419998Y-77288571D01*
X165562856Y-77360000D01*
X165634284Y-77431429D01*
X164348570Y-78217143D02*
X164134284Y-78288571D01*
X163777141Y-78288571D01*
X163634284Y-78217143D01*
X163562855Y-78145714D01*
X163491427Y-78002857D01*
X163491427Y-77860000D01*
X163562855Y-77717143D01*
X163634284Y-77645714D01*
X163777141Y-77574286D01*
X164062855Y-77502857D01*
X164205713Y-77431429D01*
X164277141Y-77360000D01*
X164348570Y-77217143D01*
X164348570Y-77074286D01*
X164277141Y-76931429D01*
X164205713Y-76860000D01*
X164062855Y-76788571D01*
X163705713Y-76788571D01*
X163491427Y-76860000D01*
X162991427Y-77288571D02*
X162705713Y-78288571D01*
X162419999Y-77574286D01*
X162134284Y-78288571D01*
X161848570Y-77288571D01*
X161277141Y-78288571D02*
X161277141Y-77288571D01*
X161277141Y-76788571D02*
X161348570Y-76860000D01*
X161277141Y-76931429D01*
X161205713Y-76860000D01*
X161277141Y-76788571D01*
X161277141Y-76931429D01*
X160777141Y-77288571D02*
X160205712Y-77288571D01*
X160562855Y-76788571D02*
X160562855Y-78074286D01*
X160491427Y-78217143D01*
X160348569Y-78288571D01*
X160205712Y-78288571D01*
X159062855Y-78217143D02*
X159205712Y-78288571D01*
X159491426Y-78288571D01*
X159634284Y-78217143D01*
X159705712Y-78145714D01*
X159777141Y-78002857D01*
X159777141Y-77574286D01*
X159705712Y-77431429D01*
X159634284Y-77360000D01*
X159491426Y-77288571D01*
X159205712Y-77288571D01*
X159062855Y-77360000D01*
X158419998Y-78288571D02*
X158419998Y-76788571D01*
X157777141Y-78288571D02*
X157777141Y-77502857D01*
X157848570Y-77360000D01*
X157991427Y-77288571D01*
X158205712Y-77288571D01*
X158348570Y-77360000D01*
X158419998Y-77431429D01*
X156848569Y-77431429D02*
X156991427Y-77360000D01*
X157062855Y-77288571D01*
X157134284Y-77145714D01*
X157134284Y-77074286D01*
X157062855Y-76931429D01*
X156991427Y-76860000D01*
X156848569Y-76788571D01*
X156562855Y-76788571D01*
X156419998Y-76860000D01*
X156348569Y-76931429D01*
X156277141Y-77074286D01*
X156277141Y-77145714D01*
X156348569Y-77288571D01*
X156419998Y-77360000D01*
X156562855Y-77431429D01*
X156848569Y-77431429D01*
X156991427Y-77502857D01*
X157062855Y-77574286D01*
X157134284Y-77717143D01*
X157134284Y-78002857D01*
X157062855Y-78145714D01*
X156991427Y-78217143D01*
X156848569Y-78288571D01*
X156562855Y-78288571D01*
X156419998Y-78217143D01*
X156348569Y-78145714D01*
X156277141Y-78002857D01*
X156277141Y-77717143D01*
X156348569Y-77574286D01*
X156419998Y-77502857D01*
X156562855Y-77431429D01*
X155991427Y-78431429D02*
X154848570Y-78431429D01*
X154491427Y-78288571D02*
X154491427Y-77288571D01*
X154491427Y-77574286D02*
X154419999Y-77431429D01*
X154348570Y-77360000D01*
X154205713Y-77288571D01*
X154062856Y-77288571D01*
X152991428Y-78217143D02*
X153134285Y-78288571D01*
X153419999Y-78288571D01*
X153562856Y-78217143D01*
X153634285Y-78074286D01*
X153634285Y-77502857D01*
X153562856Y-77360000D01*
X153419999Y-77288571D01*
X153134285Y-77288571D01*
X152991428Y-77360000D01*
X152919999Y-77502857D01*
X152919999Y-77645714D01*
X153634285Y-77788571D01*
X152419999Y-77288571D02*
X152062856Y-78288571D01*
X151705714Y-77288571D01*
X150848571Y-76788571D02*
X150705714Y-76788571D01*
X150562857Y-76860000D01*
X150491428Y-76931429D01*
X150419999Y-77074286D01*
X150348571Y-77360000D01*
X150348571Y-77717143D01*
X150419999Y-78002857D01*
X150491428Y-78145714D01*
X150562857Y-78217143D01*
X150705714Y-78288571D01*
X150848571Y-78288571D01*
X150991428Y-78217143D01*
X151062857Y-78145714D01*
X151134285Y-78002857D01*
X151205714Y-77717143D01*
X151205714Y-77360000D01*
X151134285Y-77074286D01*
X151062857Y-76931429D01*
X150991428Y-76860000D01*
X150848571Y-76788571D01*
X148920000Y-78288571D02*
X149777143Y-78288571D01*
X149348571Y-78288571D02*
X149348571Y-76788571D01*
X149491428Y-77002857D01*
X149634286Y-77145714D01*
X149777143Y-77217143D01*
D13*
X182000000Y-104000000D02*
X184500000Y-104000000D01*
X184500000Y-104000000D02*
X184500000Y-100000000D01*
X184500000Y-100000000D02*
X182000000Y-100000000D01*
X182000000Y-100000000D02*
X182000000Y-98500000D01*
X182000000Y-98500000D02*
X176500000Y-98500000D01*
X176500000Y-98500000D02*
X176500000Y-95500000D01*
X176500000Y-95500000D02*
X168500000Y-95500000D01*
X168500000Y-95500000D02*
X168500000Y-108500000D01*
X168500000Y-108500000D02*
X176500000Y-108500000D01*
X176500000Y-108500000D02*
X176500000Y-105500000D01*
X176500000Y-105500000D02*
X182000000Y-105500000D01*
X182000000Y-105500000D02*
X182000000Y-104000000D01*
D14*
X168250000Y-110450000D02*
X168250000Y-93550000D01*
X168250000Y-93550000D02*
X185750000Y-93550000D01*
X185750000Y-93550000D02*
X185750000Y-110450000D01*
X185750000Y-110450000D02*
X168250000Y-110450000D01*
D13*
X182000000Y-85000000D02*
X184500000Y-85000000D01*
X184500000Y-85000000D02*
X184500000Y-81000000D01*
X184500000Y-81000000D02*
X182000000Y-81000000D01*
X182000000Y-81000000D02*
X182000000Y-79500000D01*
X182000000Y-79500000D02*
X176500000Y-79500000D01*
X176500000Y-79500000D02*
X176500000Y-76500000D01*
X176500000Y-76500000D02*
X168500000Y-76500000D01*
X168500000Y-76500000D02*
X168500000Y-89500000D01*
X168500000Y-89500000D02*
X176500000Y-89500000D01*
X176500000Y-89500000D02*
X176500000Y-86500000D01*
X176500000Y-86500000D02*
X182000000Y-86500000D01*
X182000000Y-86500000D02*
X182000000Y-85000000D01*
D14*
X168250000Y-91450000D02*
X168250000Y-74550000D01*
X168250000Y-74550000D02*
X185750000Y-74550000D01*
X185750000Y-74550000D02*
X185750000Y-91450000D01*
X185750000Y-91450000D02*
X168250000Y-91450000D01*
D13*
X174500000Y-59000000D02*
X174500000Y-56500000D01*
X174500000Y-56500000D02*
X170500000Y-56500000D01*
X170500000Y-56500000D02*
X170500000Y-59000000D01*
X170500000Y-59000000D02*
X169000000Y-59000000D01*
X169000000Y-59000000D02*
X169000000Y-64500000D01*
X169000000Y-64500000D02*
X166000000Y-64500000D01*
X166000000Y-64500000D02*
X166000000Y-72500000D01*
X166000000Y-72500000D02*
X179000000Y-72500000D01*
X179000000Y-72500000D02*
X179000000Y-64500000D01*
X179000000Y-64500000D02*
X176000000Y-64500000D01*
X176000000Y-64500000D02*
X176000000Y-59000000D01*
X176000000Y-59000000D02*
X174500000Y-59000000D01*
D14*
X180950000Y-72750000D02*
X164050000Y-72750000D01*
X164050000Y-72750000D02*
X164050000Y-55250000D01*
X164050000Y-55250000D02*
X180950000Y-55250000D01*
X180950000Y-55250000D02*
X180950000Y-72750000D01*
D13*
X156000000Y-59000000D02*
X156000000Y-56500000D01*
X156000000Y-56500000D02*
X152000000Y-56500000D01*
X152000000Y-56500000D02*
X152000000Y-59000000D01*
X152000000Y-59000000D02*
X150500000Y-59000000D01*
X150500000Y-59000000D02*
X150500000Y-64500000D01*
X150500000Y-64500000D02*
X147500000Y-64500000D01*
X147500000Y-64500000D02*
X147500000Y-72500000D01*
X147500000Y-72500000D02*
X160500000Y-72500000D01*
X160500000Y-72500000D02*
X160500000Y-64500000D01*
X160500000Y-64500000D02*
X157500000Y-64500000D01*
X157500000Y-64500000D02*
X157500000Y-59000000D01*
X157500000Y-59000000D02*
X156000000Y-59000000D01*
D14*
X162450000Y-72750000D02*
X145550000Y-72750000D01*
X145550000Y-72750000D02*
X145550000Y-55250000D01*
X145550000Y-55250000D02*
X162450000Y-55250000D01*
X162450000Y-55250000D02*
X162450000Y-72750000D01*
D13*
X137500000Y-59000000D02*
X137500000Y-56500000D01*
X137500000Y-56500000D02*
X133500000Y-56500000D01*
X133500000Y-56500000D02*
X133500000Y-59000000D01*
X133500000Y-59000000D02*
X132000000Y-59000000D01*
X132000000Y-59000000D02*
X132000000Y-64500000D01*
X132000000Y-64500000D02*
X129000000Y-64500000D01*
X129000000Y-64500000D02*
X129000000Y-72500000D01*
X129000000Y-72500000D02*
X142000000Y-72500000D01*
X142000000Y-72500000D02*
X142000000Y-64500000D01*
X142000000Y-64500000D02*
X139000000Y-64500000D01*
X139000000Y-64500000D02*
X139000000Y-59000000D01*
X139000000Y-59000000D02*
X137500000Y-59000000D01*
D14*
X143950000Y-72750000D02*
X127050000Y-72750000D01*
X127050000Y-72750000D02*
X127050000Y-55250000D01*
X127050000Y-55250000D02*
X143950000Y-55250000D01*
X143950000Y-55250000D02*
X143950000Y-72750000D01*
D13*
X119000000Y-59000000D02*
X119000000Y-56500000D01*
X119000000Y-56500000D02*
X115000000Y-56500000D01*
X115000000Y-56500000D02*
X115000000Y-59000000D01*
X115000000Y-59000000D02*
X113500000Y-59000000D01*
X113500000Y-59000000D02*
X113500000Y-64500000D01*
X113500000Y-64500000D02*
X110500000Y-64500000D01*
X110500000Y-64500000D02*
X110500000Y-72500000D01*
X110500000Y-72500000D02*
X123500000Y-72500000D01*
X123500000Y-72500000D02*
X123500000Y-64500000D01*
X123500000Y-64500000D02*
X120500000Y-64500000D01*
X120500000Y-64500000D02*
X120500000Y-59000000D01*
X120500000Y-59000000D02*
X119000000Y-59000000D01*
D14*
X125450000Y-72750000D02*
X108550000Y-72750000D01*
X108550000Y-72750000D02*
X108550000Y-55250000D01*
X108550000Y-55250000D02*
X125450000Y-55250000D01*
X125450000Y-55250000D02*
X125450000Y-72750000D01*
D13*
X100500000Y-59000000D02*
X100500000Y-56500000D01*
X100500000Y-56500000D02*
X96500000Y-56500000D01*
X96500000Y-56500000D02*
X96500000Y-59000000D01*
X96500000Y-59000000D02*
X95000000Y-59000000D01*
X95000000Y-59000000D02*
X95000000Y-64500000D01*
X95000000Y-64500000D02*
X92000000Y-64500000D01*
X92000000Y-64500000D02*
X92000000Y-72500000D01*
X92000000Y-72500000D02*
X105000000Y-72500000D01*
X105000000Y-72500000D02*
X105000000Y-64500000D01*
X105000000Y-64500000D02*
X102000000Y-64500000D01*
X102000000Y-64500000D02*
X102000000Y-59000000D01*
X102000000Y-59000000D02*
X100500000Y-59000000D01*
D14*
X106950000Y-72750000D02*
X90050000Y-72750000D01*
X90050000Y-72750000D02*
X90050000Y-55250000D01*
X90050000Y-55250000D02*
X106950000Y-55250000D01*
X106950000Y-55250000D02*
X106950000Y-72750000D01*
D13*
X90000000Y-83500000D02*
X87500000Y-83500000D01*
X87500000Y-83500000D02*
X87500000Y-87500000D01*
X87500000Y-87500000D02*
X90000000Y-87500000D01*
X90000000Y-87500000D02*
X90000000Y-89000000D01*
X90000000Y-89000000D02*
X95500000Y-89000000D01*
X95500000Y-89000000D02*
X95500000Y-92000000D01*
X95500000Y-92000000D02*
X103500000Y-92000000D01*
X103500000Y-92000000D02*
X103500000Y-79000000D01*
X103500000Y-79000000D02*
X95500000Y-79000000D01*
X95500000Y-79000000D02*
X95500000Y-82000000D01*
X95500000Y-82000000D02*
X90000000Y-82000000D01*
X90000000Y-82000000D02*
X90000000Y-83500000D01*
D14*
X103750000Y-77050000D02*
X103750000Y-93950000D01*
X103750000Y-93950000D02*
X86250000Y-93950000D01*
X86250000Y-93950000D02*
X86250000Y-77050000D01*
X86250000Y-77050000D02*
X103750000Y-77050000D01*
D15*
X189189429Y-93763142D02*
X188463714Y-93255142D01*
X189189429Y-92892285D02*
X187665429Y-92892285D01*
X187665429Y-93472857D01*
X187738000Y-93617999D01*
X187810571Y-93690571D01*
X187955714Y-93763142D01*
X188173429Y-93763142D01*
X188318571Y-93690571D01*
X188391143Y-93617999D01*
X188463714Y-93472857D01*
X188463714Y-92892285D01*
X187665429Y-94851714D02*
X188754000Y-94851714D01*
X188971714Y-94779142D01*
X189116857Y-94633999D01*
X189189429Y-94416285D01*
X189189429Y-94271142D01*
X188173429Y-96230571D02*
X189189429Y-96230571D01*
X187592857Y-95867714D02*
X188681429Y-95504857D01*
X188681429Y-96448285D01*
X187665429Y-97754571D02*
X187665429Y-97028857D01*
X188391143Y-96956286D01*
X188318571Y-97028857D01*
X188246000Y-97174000D01*
X188246000Y-97536857D01*
X188318571Y-97682000D01*
X188391143Y-97754571D01*
X188536286Y-97827143D01*
X188899143Y-97827143D01*
X189044286Y-97754571D01*
X189116857Y-97682000D01*
X189189429Y-97536857D01*
X189189429Y-97174000D01*
X189116857Y-97028857D01*
X189044286Y-96956286D01*
X189334571Y-98117429D02*
X189334571Y-99278572D01*
X189189429Y-100439715D02*
X189189429Y-99568858D01*
X189189429Y-100004286D02*
X187665429Y-100004286D01*
X187883143Y-99859143D01*
X188028286Y-99714001D01*
X188100857Y-99568858D01*
X187810571Y-101020287D02*
X187738000Y-101092858D01*
X187665429Y-101238001D01*
X187665429Y-101600858D01*
X187738000Y-101746001D01*
X187810571Y-101818572D01*
X187955714Y-101891144D01*
X188100857Y-101891144D01*
X188318571Y-101818572D01*
X189189429Y-100947715D01*
X189189429Y-101891144D01*
X189334571Y-102181430D02*
X189334571Y-103342573D01*
X189189429Y-103705430D02*
X187665429Y-103705430D01*
X187665429Y-104286002D01*
X187738000Y-104431144D01*
X187810571Y-104503716D01*
X187955714Y-104576287D01*
X188173429Y-104576287D01*
X188318571Y-104503716D01*
X188391143Y-104431144D01*
X188463714Y-104286002D01*
X188463714Y-103705430D01*
X189189429Y-105229430D02*
X187665429Y-105229430D01*
X189189429Y-105955144D02*
X187665429Y-105955144D01*
X189189429Y-106826001D01*
X187665429Y-106826001D01*
X189334571Y-107188858D02*
X189334571Y-108350001D01*
X187665429Y-108712858D02*
X188899143Y-108712858D01*
X189044286Y-108785430D01*
X189116857Y-108858001D01*
X189189429Y-109003144D01*
X189189429Y-109293430D01*
X189116857Y-109438572D01*
X189044286Y-109511144D01*
X188899143Y-109583715D01*
X187665429Y-109583715D01*
X189189429Y-110309429D02*
X187665429Y-110309429D01*
X187665429Y-110890001D01*
X187738000Y-111035143D01*
X187810571Y-111107715D01*
X187955714Y-111180286D01*
X188173429Y-111180286D01*
X188318571Y-111107715D01*
X188391143Y-111035143D01*
X188463714Y-110890001D01*
X188463714Y-110309429D01*
X189189429Y-74763142D02*
X188463714Y-74255142D01*
X189189429Y-73892285D02*
X187665429Y-73892285D01*
X187665429Y-74472857D01*
X187738000Y-74617999D01*
X187810571Y-74690571D01*
X187955714Y-74763142D01*
X188173429Y-74763142D01*
X188318571Y-74690571D01*
X188391143Y-74617999D01*
X188463714Y-74472857D01*
X188463714Y-73892285D01*
X187665429Y-75851714D02*
X188754000Y-75851714D01*
X188971714Y-75779142D01*
X189116857Y-75633999D01*
X189189429Y-75416285D01*
X189189429Y-75271142D01*
X188173429Y-77230571D02*
X189189429Y-77230571D01*
X187592857Y-76867714D02*
X188681429Y-76504857D01*
X188681429Y-77448285D01*
X187665429Y-78754571D02*
X187665429Y-78028857D01*
X188391143Y-77956286D01*
X188318571Y-78028857D01*
X188246000Y-78174000D01*
X188246000Y-78536857D01*
X188318571Y-78682000D01*
X188391143Y-78754571D01*
X188536286Y-78827143D01*
X188899143Y-78827143D01*
X189044286Y-78754571D01*
X189116857Y-78682000D01*
X189189429Y-78536857D01*
X189189429Y-78174000D01*
X189116857Y-78028857D01*
X189044286Y-77956286D01*
X189334571Y-79117429D02*
X189334571Y-80278572D01*
X189189429Y-81439715D02*
X189189429Y-80568858D01*
X189189429Y-81004286D02*
X187665429Y-81004286D01*
X187883143Y-80859143D01*
X188028286Y-80714001D01*
X188100857Y-80568858D01*
X187810571Y-82020287D02*
X187738000Y-82092858D01*
X187665429Y-82238001D01*
X187665429Y-82600858D01*
X187738000Y-82746001D01*
X187810571Y-82818572D01*
X187955714Y-82891144D01*
X188100857Y-82891144D01*
X188318571Y-82818572D01*
X189189429Y-81947715D01*
X189189429Y-82891144D01*
X189334571Y-83181430D02*
X189334571Y-84342573D01*
X189189429Y-84705430D02*
X187665429Y-84705430D01*
X187665429Y-85286002D01*
X187738000Y-85431144D01*
X187810571Y-85503716D01*
X187955714Y-85576287D01*
X188173429Y-85576287D01*
X188318571Y-85503716D01*
X188391143Y-85431144D01*
X188463714Y-85286002D01*
X188463714Y-84705430D01*
X189189429Y-86229430D02*
X187665429Y-86229430D01*
X189189429Y-86955144D02*
X187665429Y-86955144D01*
X189189429Y-87826001D01*
X187665429Y-87826001D01*
X189334571Y-88188858D02*
X189334571Y-89350001D01*
X187665429Y-89712858D02*
X188899143Y-89712858D01*
X189044286Y-89785430D01*
X189116857Y-89858001D01*
X189189429Y-90003144D01*
X189189429Y-90293430D01*
X189116857Y-90438572D01*
X189044286Y-90511144D01*
X188899143Y-90583715D01*
X187665429Y-90583715D01*
X189189429Y-91309429D02*
X187665429Y-91309429D01*
X187665429Y-91890001D01*
X187738000Y-92035143D01*
X187810571Y-92107715D01*
X187955714Y-92180286D01*
X188173429Y-92180286D01*
X188318571Y-92107715D01*
X188391143Y-92035143D01*
X188463714Y-91890001D01*
X188463714Y-91309429D01*
X180736858Y-53189429D02*
X181244858Y-52463714D01*
X181607715Y-53189429D02*
X181607715Y-51665429D01*
X181027143Y-51665429D01*
X180882001Y-51738000D01*
X180809429Y-51810571D01*
X180736858Y-51955714D01*
X180736858Y-52173429D01*
X180809429Y-52318571D01*
X180882001Y-52391143D01*
X181027143Y-52463714D01*
X181607715Y-52463714D01*
X179648286Y-51665429D02*
X179648286Y-52754000D01*
X179720858Y-52971714D01*
X179866001Y-53116857D01*
X180083715Y-53189429D01*
X180228858Y-53189429D01*
X178269429Y-52173429D02*
X178269429Y-53189429D01*
X178632286Y-51592857D02*
X178995143Y-52681429D01*
X178051715Y-52681429D01*
X176745429Y-51665429D02*
X177471143Y-51665429D01*
X177543714Y-52391143D01*
X177471143Y-52318571D01*
X177326000Y-52246000D01*
X176963143Y-52246000D01*
X176818000Y-52318571D01*
X176745429Y-52391143D01*
X176672857Y-52536286D01*
X176672857Y-52899143D01*
X176745429Y-53044286D01*
X176818000Y-53116857D01*
X176963143Y-53189429D01*
X177326000Y-53189429D01*
X177471143Y-53116857D01*
X177543714Y-53044286D01*
X176382571Y-53334571D02*
X175221428Y-53334571D01*
X174060285Y-53189429D02*
X174931142Y-53189429D01*
X174495714Y-53189429D02*
X174495714Y-51665429D01*
X174640857Y-51883143D01*
X174785999Y-52028286D01*
X174931142Y-52100857D01*
X173479713Y-51810571D02*
X173407142Y-51738000D01*
X173261999Y-51665429D01*
X172899142Y-51665429D01*
X172753999Y-51738000D01*
X172681428Y-51810571D01*
X172608856Y-51955714D01*
X172608856Y-52100857D01*
X172681428Y-52318571D01*
X173552285Y-53189429D01*
X172608856Y-53189429D01*
X172318570Y-53334571D02*
X171157427Y-53334571D01*
X170794570Y-53189429D02*
X170794570Y-51665429D01*
X170213998Y-51665429D01*
X170068856Y-51738000D01*
X169996284Y-51810571D01*
X169923713Y-51955714D01*
X169923713Y-52173429D01*
X169996284Y-52318571D01*
X170068856Y-52391143D01*
X170213998Y-52463714D01*
X170794570Y-52463714D01*
X169270570Y-53189429D02*
X169270570Y-51665429D01*
X168544856Y-53189429D02*
X168544856Y-51665429D01*
X167673999Y-53189429D01*
X167673999Y-51665429D01*
X167311142Y-53334571D02*
X166149999Y-53334571D01*
X165787142Y-51665429D02*
X165787142Y-52899143D01*
X165714570Y-53044286D01*
X165641999Y-53116857D01*
X165496856Y-53189429D01*
X165206570Y-53189429D01*
X165061428Y-53116857D01*
X164988856Y-53044286D01*
X164916285Y-52899143D01*
X164916285Y-51665429D01*
X164190571Y-53189429D02*
X164190571Y-51665429D01*
X163609999Y-51665429D01*
X163464857Y-51738000D01*
X163392285Y-51810571D01*
X163319714Y-51955714D01*
X163319714Y-52173429D01*
X163392285Y-52318571D01*
X163464857Y-52391143D01*
X163609999Y-52463714D01*
X164190571Y-52463714D01*
X162236858Y-53189429D02*
X162744858Y-52463714D01*
X163107715Y-53189429D02*
X163107715Y-51665429D01*
X162527143Y-51665429D01*
X162382001Y-51738000D01*
X162309429Y-51810571D01*
X162236858Y-51955714D01*
X162236858Y-52173429D01*
X162309429Y-52318571D01*
X162382001Y-52391143D01*
X162527143Y-52463714D01*
X163107715Y-52463714D01*
X161148286Y-51665429D02*
X161148286Y-52754000D01*
X161220858Y-52971714D01*
X161366001Y-53116857D01*
X161583715Y-53189429D01*
X161728858Y-53189429D01*
X159769429Y-52173429D02*
X159769429Y-53189429D01*
X160132286Y-51592857D02*
X160495143Y-52681429D01*
X159551715Y-52681429D01*
X158245429Y-51665429D02*
X158971143Y-51665429D01*
X159043714Y-52391143D01*
X158971143Y-52318571D01*
X158826000Y-52246000D01*
X158463143Y-52246000D01*
X158318000Y-52318571D01*
X158245429Y-52391143D01*
X158172857Y-52536286D01*
X158172857Y-52899143D01*
X158245429Y-53044286D01*
X158318000Y-53116857D01*
X158463143Y-53189429D01*
X158826000Y-53189429D01*
X158971143Y-53116857D01*
X159043714Y-53044286D01*
X157882571Y-53334571D02*
X156721428Y-53334571D01*
X155560285Y-53189429D02*
X156431142Y-53189429D01*
X155995714Y-53189429D02*
X155995714Y-51665429D01*
X156140857Y-51883143D01*
X156285999Y-52028286D01*
X156431142Y-52100857D01*
X154979713Y-51810571D02*
X154907142Y-51738000D01*
X154761999Y-51665429D01*
X154399142Y-51665429D01*
X154253999Y-51738000D01*
X154181428Y-51810571D01*
X154108856Y-51955714D01*
X154108856Y-52100857D01*
X154181428Y-52318571D01*
X155052285Y-53189429D01*
X154108856Y-53189429D01*
X153818570Y-53334571D02*
X152657427Y-53334571D01*
X152294570Y-53189429D02*
X152294570Y-51665429D01*
X151713998Y-51665429D01*
X151568856Y-51738000D01*
X151496284Y-51810571D01*
X151423713Y-51955714D01*
X151423713Y-52173429D01*
X151496284Y-52318571D01*
X151568856Y-52391143D01*
X151713998Y-52463714D01*
X152294570Y-52463714D01*
X150770570Y-53189429D02*
X150770570Y-51665429D01*
X150044856Y-53189429D02*
X150044856Y-51665429D01*
X149173999Y-53189429D01*
X149173999Y-51665429D01*
X148811142Y-53334571D02*
X147649999Y-53334571D01*
X147287142Y-51665429D02*
X147287142Y-52899143D01*
X147214570Y-53044286D01*
X147141999Y-53116857D01*
X146996856Y-53189429D01*
X146706570Y-53189429D01*
X146561428Y-53116857D01*
X146488856Y-53044286D01*
X146416285Y-52899143D01*
X146416285Y-51665429D01*
X145690571Y-53189429D02*
X145690571Y-51665429D01*
X145109999Y-51665429D01*
X144964857Y-51738000D01*
X144892285Y-51810571D01*
X144819714Y-51955714D01*
X144819714Y-52173429D01*
X144892285Y-52318571D01*
X144964857Y-52391143D01*
X145109999Y-52463714D01*
X145690571Y-52463714D01*
X143736858Y-53189429D02*
X144244858Y-52463714D01*
X144607715Y-53189429D02*
X144607715Y-51665429D01*
X144027143Y-51665429D01*
X143882001Y-51738000D01*
X143809429Y-51810571D01*
X143736858Y-51955714D01*
X143736858Y-52173429D01*
X143809429Y-52318571D01*
X143882001Y-52391143D01*
X144027143Y-52463714D01*
X144607715Y-52463714D01*
X142648286Y-51665429D02*
X142648286Y-52754000D01*
X142720858Y-52971714D01*
X142866001Y-53116857D01*
X143083715Y-53189429D01*
X143228858Y-53189429D01*
X141269429Y-52173429D02*
X141269429Y-53189429D01*
X141632286Y-51592857D02*
X141995143Y-52681429D01*
X141051715Y-52681429D01*
X139745429Y-51665429D02*
X140471143Y-51665429D01*
X140543714Y-52391143D01*
X140471143Y-52318571D01*
X140326000Y-52246000D01*
X139963143Y-52246000D01*
X139818000Y-52318571D01*
X139745429Y-52391143D01*
X139672857Y-52536286D01*
X139672857Y-52899143D01*
X139745429Y-53044286D01*
X139818000Y-53116857D01*
X139963143Y-53189429D01*
X140326000Y-53189429D01*
X140471143Y-53116857D01*
X140543714Y-53044286D01*
X139382571Y-53334571D02*
X138221428Y-53334571D01*
X137060285Y-53189429D02*
X137931142Y-53189429D01*
X137495714Y-53189429D02*
X137495714Y-51665429D01*
X137640857Y-51883143D01*
X137785999Y-52028286D01*
X137931142Y-52100857D01*
X136479713Y-51810571D02*
X136407142Y-51738000D01*
X136261999Y-51665429D01*
X135899142Y-51665429D01*
X135753999Y-51738000D01*
X135681428Y-51810571D01*
X135608856Y-51955714D01*
X135608856Y-52100857D01*
X135681428Y-52318571D01*
X136552285Y-53189429D01*
X135608856Y-53189429D01*
X135318570Y-53334571D02*
X134157427Y-53334571D01*
X133794570Y-53189429D02*
X133794570Y-51665429D01*
X133213998Y-51665429D01*
X133068856Y-51738000D01*
X132996284Y-51810571D01*
X132923713Y-51955714D01*
X132923713Y-52173429D01*
X132996284Y-52318571D01*
X133068856Y-52391143D01*
X133213998Y-52463714D01*
X133794570Y-52463714D01*
X132270570Y-53189429D02*
X132270570Y-51665429D01*
X131544856Y-53189429D02*
X131544856Y-51665429D01*
X130673999Y-53189429D01*
X130673999Y-51665429D01*
X130311142Y-53334571D02*
X129149999Y-53334571D01*
X128787142Y-51665429D02*
X128787142Y-52899143D01*
X128714570Y-53044286D01*
X128641999Y-53116857D01*
X128496856Y-53189429D01*
X128206570Y-53189429D01*
X128061428Y-53116857D01*
X127988856Y-53044286D01*
X127916285Y-52899143D01*
X127916285Y-51665429D01*
X127190571Y-53189429D02*
X127190571Y-51665429D01*
X126609999Y-51665429D01*
X126464857Y-51738000D01*
X126392285Y-51810571D01*
X126319714Y-51955714D01*
X126319714Y-52173429D01*
X126392285Y-52318571D01*
X126464857Y-52391143D01*
X126609999Y-52463714D01*
X127190571Y-52463714D01*
X125236858Y-53189429D02*
X125744858Y-52463714D01*
X126107715Y-53189429D02*
X126107715Y-51665429D01*
X125527143Y-51665429D01*
X125382001Y-51738000D01*
X125309429Y-51810571D01*
X125236858Y-51955714D01*
X125236858Y-52173429D01*
X125309429Y-52318571D01*
X125382001Y-52391143D01*
X125527143Y-52463714D01*
X126107715Y-52463714D01*
X124148286Y-51665429D02*
X124148286Y-52754000D01*
X124220858Y-52971714D01*
X124366001Y-53116857D01*
X124583715Y-53189429D01*
X124728858Y-53189429D01*
X122769429Y-52173429D02*
X122769429Y-53189429D01*
X123132286Y-51592857D02*
X123495143Y-52681429D01*
X122551715Y-52681429D01*
X121245429Y-51665429D02*
X121971143Y-51665429D01*
X122043714Y-52391143D01*
X121971143Y-52318571D01*
X121826000Y-52246000D01*
X121463143Y-52246000D01*
X121318000Y-52318571D01*
X121245429Y-52391143D01*
X121172857Y-52536286D01*
X121172857Y-52899143D01*
X121245429Y-53044286D01*
X121318000Y-53116857D01*
X121463143Y-53189429D01*
X121826000Y-53189429D01*
X121971143Y-53116857D01*
X122043714Y-53044286D01*
X120882571Y-53334571D02*
X119721428Y-53334571D01*
X118560285Y-53189429D02*
X119431142Y-53189429D01*
X118995714Y-53189429D02*
X118995714Y-51665429D01*
X119140857Y-51883143D01*
X119285999Y-52028286D01*
X119431142Y-52100857D01*
X117979713Y-51810571D02*
X117907142Y-51738000D01*
X117761999Y-51665429D01*
X117399142Y-51665429D01*
X117253999Y-51738000D01*
X117181428Y-51810571D01*
X117108856Y-51955714D01*
X117108856Y-52100857D01*
X117181428Y-52318571D01*
X118052285Y-53189429D01*
X117108856Y-53189429D01*
X116818570Y-53334571D02*
X115657427Y-53334571D01*
X115294570Y-53189429D02*
X115294570Y-51665429D01*
X114713998Y-51665429D01*
X114568856Y-51738000D01*
X114496284Y-51810571D01*
X114423713Y-51955714D01*
X114423713Y-52173429D01*
X114496284Y-52318571D01*
X114568856Y-52391143D01*
X114713998Y-52463714D01*
X115294570Y-52463714D01*
X113770570Y-53189429D02*
X113770570Y-51665429D01*
X113044856Y-53189429D02*
X113044856Y-51665429D01*
X112173999Y-53189429D01*
X112173999Y-51665429D01*
X111811142Y-53334571D02*
X110649999Y-53334571D01*
X110287142Y-51665429D02*
X110287142Y-52899143D01*
X110214570Y-53044286D01*
X110141999Y-53116857D01*
X109996856Y-53189429D01*
X109706570Y-53189429D01*
X109561428Y-53116857D01*
X109488856Y-53044286D01*
X109416285Y-52899143D01*
X109416285Y-51665429D01*
X108690571Y-53189429D02*
X108690571Y-51665429D01*
X108109999Y-51665429D01*
X107964857Y-51738000D01*
X107892285Y-51810571D01*
X107819714Y-51955714D01*
X107819714Y-52173429D01*
X107892285Y-52318571D01*
X107964857Y-52391143D01*
X108109999Y-52463714D01*
X108690571Y-52463714D01*
X106736858Y-53189429D02*
X107244858Y-52463714D01*
X107607715Y-53189429D02*
X107607715Y-51665429D01*
X107027143Y-51665429D01*
X106882001Y-51738000D01*
X106809429Y-51810571D01*
X106736858Y-51955714D01*
X106736858Y-52173429D01*
X106809429Y-52318571D01*
X106882001Y-52391143D01*
X107027143Y-52463714D01*
X107607715Y-52463714D01*
X105648286Y-51665429D02*
X105648286Y-52754000D01*
X105720858Y-52971714D01*
X105866001Y-53116857D01*
X106083715Y-53189429D01*
X106228858Y-53189429D01*
X104269429Y-52173429D02*
X104269429Y-53189429D01*
X104632286Y-51592857D02*
X104995143Y-52681429D01*
X104051715Y-52681429D01*
X102745429Y-51665429D02*
X103471143Y-51665429D01*
X103543714Y-52391143D01*
X103471143Y-52318571D01*
X103326000Y-52246000D01*
X102963143Y-52246000D01*
X102818000Y-52318571D01*
X102745429Y-52391143D01*
X102672857Y-52536286D01*
X102672857Y-52899143D01*
X102745429Y-53044286D01*
X102818000Y-53116857D01*
X102963143Y-53189429D01*
X103326000Y-53189429D01*
X103471143Y-53116857D01*
X103543714Y-53044286D01*
X102382571Y-53334571D02*
X101221428Y-53334571D01*
X100060285Y-53189429D02*
X100931142Y-53189429D01*
X100495714Y-53189429D02*
X100495714Y-51665429D01*
X100640857Y-51883143D01*
X100785999Y-52028286D01*
X100931142Y-52100857D01*
X99479713Y-51810571D02*
X99407142Y-51738000D01*
X99261999Y-51665429D01*
X98899142Y-51665429D01*
X98753999Y-51738000D01*
X98681428Y-51810571D01*
X98608856Y-51955714D01*
X98608856Y-52100857D01*
X98681428Y-52318571D01*
X99552285Y-53189429D01*
X98608856Y-53189429D01*
X98318570Y-53334571D02*
X97157427Y-53334571D01*
X96794570Y-53189429D02*
X96794570Y-51665429D01*
X96213998Y-51665429D01*
X96068856Y-51738000D01*
X95996284Y-51810571D01*
X95923713Y-51955714D01*
X95923713Y-52173429D01*
X95996284Y-52318571D01*
X96068856Y-52391143D01*
X96213998Y-52463714D01*
X96794570Y-52463714D01*
X95270570Y-53189429D02*
X95270570Y-51665429D01*
X94544856Y-53189429D02*
X94544856Y-51665429D01*
X93673999Y-53189429D01*
X93673999Y-51665429D01*
X93311142Y-53334571D02*
X92149999Y-53334571D01*
X91787142Y-51665429D02*
X91787142Y-52899143D01*
X91714570Y-53044286D01*
X91641999Y-53116857D01*
X91496856Y-53189429D01*
X91206570Y-53189429D01*
X91061428Y-53116857D01*
X90988856Y-53044286D01*
X90916285Y-52899143D01*
X90916285Y-51665429D01*
X90190571Y-53189429D02*
X90190571Y-51665429D01*
X89609999Y-51665429D01*
X89464857Y-51738000D01*
X89392285Y-51810571D01*
X89319714Y-51955714D01*
X89319714Y-52173429D01*
X89392285Y-52318571D01*
X89464857Y-52391143D01*
X89609999Y-52463714D01*
X90190571Y-52463714D01*
X84189429Y-77263142D02*
X83463714Y-76755142D01*
X84189429Y-76392285D02*
X82665429Y-76392285D01*
X82665429Y-76972857D01*
X82738000Y-77117999D01*
X82810571Y-77190571D01*
X82955714Y-77263142D01*
X83173429Y-77263142D01*
X83318571Y-77190571D01*
X83391143Y-77117999D01*
X83463714Y-76972857D01*
X83463714Y-76392285D01*
X82665429Y-78351714D02*
X83754000Y-78351714D01*
X83971714Y-78279142D01*
X84116857Y-78133999D01*
X84189429Y-77916285D01*
X84189429Y-77771142D01*
X83173429Y-79730571D02*
X84189429Y-79730571D01*
X82592857Y-79367714D02*
X83681429Y-79004857D01*
X83681429Y-79948285D01*
X82665429Y-81254571D02*
X82665429Y-80528857D01*
X83391143Y-80456286D01*
X83318571Y-80528857D01*
X83246000Y-80674000D01*
X83246000Y-81036857D01*
X83318571Y-81182000D01*
X83391143Y-81254571D01*
X83536286Y-81327143D01*
X83899143Y-81327143D01*
X84044286Y-81254571D01*
X84116857Y-81182000D01*
X84189429Y-81036857D01*
X84189429Y-80674000D01*
X84116857Y-80528857D01*
X84044286Y-80456286D01*
X84334571Y-81617429D02*
X84334571Y-82778572D01*
X84189429Y-83939715D02*
X84189429Y-83068858D01*
X84189429Y-83504286D02*
X82665429Y-83504286D01*
X82883143Y-83359143D01*
X83028286Y-83214001D01*
X83100857Y-83068858D01*
X82810571Y-84520287D02*
X82738000Y-84592858D01*
X82665429Y-84738001D01*
X82665429Y-85100858D01*
X82738000Y-85246001D01*
X82810571Y-85318572D01*
X82955714Y-85391144D01*
X83100857Y-85391144D01*
X83318571Y-85318572D01*
X84189429Y-84447715D01*
X84189429Y-85391144D01*
X84334571Y-85681430D02*
X84334571Y-86842573D01*
X84189429Y-87205430D02*
X82665429Y-87205430D01*
X82665429Y-87786002D01*
X82738000Y-87931144D01*
X82810571Y-88003716D01*
X82955714Y-88076287D01*
X83173429Y-88076287D01*
X83318571Y-88003716D01*
X83391143Y-87931144D01*
X83463714Y-87786002D01*
X83463714Y-87205430D01*
X84189429Y-88729430D02*
X82665429Y-88729430D01*
X84189429Y-89455144D02*
X82665429Y-89455144D01*
X84189429Y-90326001D01*
X82665429Y-90326001D01*
X84334571Y-90688858D02*
X84334571Y-91850001D01*
X82665429Y-92212858D02*
X83899143Y-92212858D01*
X84044286Y-92285430D01*
X84116857Y-92358001D01*
X84189429Y-92503144D01*
X84189429Y-92793430D01*
X84116857Y-92938572D01*
X84044286Y-93011144D01*
X83899143Y-93083715D01*
X82665429Y-93083715D01*
X84189429Y-93809429D02*
X82665429Y-93809429D01*
X82665429Y-94390001D01*
X82738000Y-94535143D01*
X82810571Y-94607715D01*
X82955714Y-94680286D01*
X83173429Y-94680286D01*
X83318571Y-94607715D01*
X83391143Y-94535143D01*
X83463714Y-94390001D01*
X83463714Y-93809429D01*
M02*
