<?xml version="1.0" standalone="no"?>
 <!DOCTYPE svg PUBLIC "-//W3C//DTD SVG 1.1//EN" 
 "http://www.w3.org/Graphics/SVG/1.1/DTD/svg11.dtd"> 
<svg xmlns="http://www.w3.org/2000/svg" version="1.1" 
    width="27.94cm" height="21.59cm" viewBox="0 0 110000 85000 ">
<title>SVG Picture created as EthSwitch8_rev01-F.Paste.svg date 2017/08/23 22:40:06 </title>
  <desc>Picture generated by PCBNEW </desc>
<g style="fill:#000000; fill-opacity:1;stroke:#000000; stroke-opacity:1;
stroke-linecap:round; stroke-linejoin:round; "
 transform="translate(0 0) scale(1 1)">
</g>
<g style="fill:#000000; fill-opacity:0.0; 
stroke:#000000; stroke-width:-0.000393701; stroke-opacity:1; 
stroke-linecap:round; stroke-linejoin:round;">
</g>
<g style="fill:#000000; fill-opacity:0.0; 
stroke:#000000; stroke-width:0; stroke-opacity:1; 
stroke-linecap:round; stroke-linejoin:round;">
</g>
<g style="fill:#000000; fill-opacity:1.0; 
stroke:#000000; stroke-width:0; stroke-opacity:1; 
stroke-linecap:round; stroke-linejoin:round;">
<polyline style="fill-rule:evenodd;"
points="42594,39544
43034,39544
43034,39824
42594,39824
42594,39544
" /> 
<polyline style="fill-rule:evenodd;"
points="42594,40294
43034,40294
43034,40574
42594,40574
42594,40294
" /> 
<polyline style="fill-rule:evenodd;"
points="52917,42468
52917,42122
53295,42122
53295,42468
52917,42468
" /> 
<polyline style="fill-rule:evenodd;"
points="53586,42468
53586,42122
53964,42122
53964,42468
53586,42468
" /> 
<polyline style="fill-rule:evenodd;"
points="52917,41917
52917,41570
53295,41570
53295,41917
52917,41917
" /> 
<polyline style="fill-rule:evenodd;"
points="53586,41917
53586,41570
53964,41570
53964,41917
53586,41917
" /> 
<polyline style="fill-rule:evenodd;"
points="41184,41610
41184,42050
40904,42050
40904,41610
41184,41610
" /> 
<polyline style="fill-rule:evenodd;"
points="40434,41610
40434,42050
40154,42050
40154,41610
40434,41610
" /> 
<polyline style="fill-rule:evenodd;"
points="56944,32952
57032,32952
57032,33425
56944,33425
56944,32952
" /> 
<polyline style="fill-rule:evenodd;"
points="56747,32952
56835,32952
56835,33425
56747,33425
56747,32952
" /> 
<polyline style="fill-rule:evenodd;"
points="56550,32952
56638,32952
56638,33425
56550,33425
56550,32952
" /> 
<polyline style="fill-rule:evenodd;"
points="56353,32952
56441,32952
56441,33425
56353,33425
56353,32952
" /> 
<polyline style="fill-rule:evenodd;"
points="56156,32952
56244,32952
56244,33425
56156,33425
56156,32952
" /> 
<polyline style="fill-rule:evenodd;"
points="55959,32952
56048,32952
56048,33425
55959,33425
55959,32952
" /> 
<polyline style="fill-rule:evenodd;"
points="55762,32952
55851,32952
55851,33425
55762,33425
55762,32952
" /> 
<polyline style="fill-rule:evenodd;"
points="55566,32952
55654,32952
55654,33425
55566,33425
55566,32952
" /> 
<polyline style="fill-rule:evenodd;"
points="55369,32952
55457,32952
55457,33425
55369,33425
55369,32952
" /> 
<polyline style="fill-rule:evenodd;"
points="55172,32952
55260,32952
55260,33425
55172,33425
55172,32952
" /> 
<polyline style="fill-rule:evenodd;"
points="54975,32952
55063,32952
55063,33425
54975,33425
54975,32952
" /> 
<polyline style="fill-rule:evenodd;"
points="54778,32952
54866,32952
54866,33425
54778,33425
54778,32952
" /> 
<polyline style="fill-rule:evenodd;"
points="54581,32952
54670,32952
54670,33425
54581,33425
54581,32952
" /> 
<polyline style="fill-rule:evenodd;"
points="54385,32952
54473,32952
54473,33425
54385,33425
54385,32952
" /> 
<polyline style="fill-rule:evenodd;"
points="54188,32952
54276,32952
54276,33425
54188,33425
54188,32952
" /> 
<polyline style="fill-rule:evenodd;"
points="53991,32952
54079,32952
54079,33425
53991,33425
53991,32952
" /> 
<polyline style="fill-rule:evenodd;"
points="53794,32952
53882,32952
53882,33425
53794,33425
53794,32952
" /> 
<polyline style="fill-rule:evenodd;"
points="53597,32952
53685,32952
53685,33425
53597,33425
53597,32952
" /> 
<polyline style="fill-rule:evenodd;"
points="53400,32952
53488,32952
53488,33425
53400,33425
53400,32952
" /> 
<polyline style="fill-rule:evenodd;"
points="53203,32952
53292,32952
53292,33425
53203,33425
53203,32952
" /> 
<polyline style="fill-rule:evenodd;"
points="53007,32952
53095,32952
53095,33425
53007,33425
53007,32952
" /> 
<polyline style="fill-rule:evenodd;"
points="52810,32952
52898,32952
52898,33425
52810,33425
52810,32952
" /> 
<polyline style="fill-rule:evenodd;"
points="52613,32952
52701,32952
52701,33425
52613,33425
52613,32952
" /> 
<polyline style="fill-rule:evenodd;"
points="52416,32952
52504,32952
52504,33425
52416,33425
52416,32952
" /> 
<polyline style="fill-rule:evenodd;"
points="52219,32952
52307,32952
52307,33425
52219,33425
52219,32952
" /> 
<polyline style="fill-rule:evenodd;"
points="52022,32952
52111,32952
52111,33425
52022,33425
52022,32952
" /> 
<polyline style="fill-rule:evenodd;"
points="51825,32952
51914,32952
51914,33425
51825,33425
51825,32952
" /> 
<polyline style="fill-rule:evenodd;"
points="51629,32952
51717,32952
51717,33425
51629,33425
51629,32952
" /> 
<polyline style="fill-rule:evenodd;"
points="51432,32952
51520,32952
51520,33425
51432,33425
51432,32952
" /> 
<polyline style="fill-rule:evenodd;"
points="51235,32952
51323,32952
51323,33425
51235,33425
51235,32952
" /> 
<polyline style="fill-rule:evenodd;"
points="51038,32952
51126,32952
51126,33425
51038,33425
51038,32952
" /> 
<polyline style="fill-rule:evenodd;"
points="50841,32952
50929,32952
50929,33425
50841,33425
50841,32952
" /> 
<polyline style="fill-rule:evenodd;"
points="50644,32952
50733,32952
50733,33425
50644,33425
50644,32952
" /> 
<polyline style="fill-rule:evenodd;"
points="50448,32952
50536,32952
50536,33425
50448,33425
50448,32952
" /> 
<polyline style="fill-rule:evenodd;"
points="50251,32952
50339,32952
50339,33425
50251,33425
50251,32952
" /> 
<polyline style="fill-rule:evenodd;"
points="50054,32952
50142,32952
50142,33425
50054,33425
50054,32952
" /> 
<polyline style="fill-rule:evenodd;"
points="49857,32952
49945,32952
49945,33425
49857,33425
49857,32952
" /> 
<polyline style="fill-rule:evenodd;"
points="49660,32952
49748,32952
49748,33425
49660,33425
49660,32952
" /> 
<polyline style="fill-rule:evenodd;"
points="48700,34000
48700,33912
49173,33912
49173,34000
48700,34000
" /> 
<polyline style="fill-rule:evenodd;"
points="48700,34197
48700,34109
49173,34109
49173,34197
48700,34197
" /> 
<polyline style="fill-rule:evenodd;"
points="48700,34394
48700,34306
49173,34306
49173,34394
48700,34394
" /> 
<polyline style="fill-rule:evenodd;"
points="48700,34591
48700,34503
49173,34503
49173,34591
48700,34591
" /> 
<polyline style="fill-rule:evenodd;"
points="48700,34788
48700,34700
49173,34700
49173,34788
48700,34788
" /> 
<polyline style="fill-rule:evenodd;"
points="48700,34985
48700,34896
49173,34896
49173,34985
48700,34985
" /> 
<polyline style="fill-rule:evenodd;"
points="48700,35181
48700,35093
49173,35093
49173,35181
48700,35181
" /> 
<polyline style="fill-rule:evenodd;"
points="48700,35378
48700,35290
49173,35290
49173,35378
48700,35378
" /> 
<polyline style="fill-rule:evenodd;"
points="48700,35575
48700,35487
49173,35487
49173,35575
48700,35575
" /> 
<polyline style="fill-rule:evenodd;"
points="48700,35772
48700,35684
49173,35684
49173,35772
48700,35772
" /> 
<polyline style="fill-rule:evenodd;"
points="48700,35969
48700,35881
49173,35881
49173,35969
48700,35969
" /> 
<polyline style="fill-rule:evenodd;"
points="48700,36166
48700,36077
49173,36077
49173,36166
48700,36166
" /> 
<polyline style="fill-rule:evenodd;"
points="48700,36362
48700,36274
49173,36274
49173,36362
48700,36362
" /> 
<polyline style="fill-rule:evenodd;"
points="48700,36559
48700,36471
49173,36471
49173,36559
48700,36559
" /> 
<polyline style="fill-rule:evenodd;"
points="48700,36756
48700,36668
49173,36668
49173,36756
48700,36756
" /> 
<polyline style="fill-rule:evenodd;"
points="48700,36953
48700,36865
49173,36865
49173,36953
48700,36953
" /> 
<polyline style="fill-rule:evenodd;"
points="48700,37150
48700,37062
49173,37062
49173,37150
48700,37150
" /> 
<polyline style="fill-rule:evenodd;"
points="48700,37347
48700,37259
49173,37259
49173,37347
48700,37347
" /> 
<polyline style="fill-rule:evenodd;"
points="48700,37544
48700,37455
49173,37455
49173,37544
48700,37544
" /> 
<polyline style="fill-rule:evenodd;"
points="48700,37740
48700,37652
49173,37652
49173,37740
48700,37740
" /> 
<polyline style="fill-rule:evenodd;"
points="48700,37937
48700,37849
49173,37849
49173,37937
48700,37937
" /> 
<polyline style="fill-rule:evenodd;"
points="48700,38134
48700,38046
49173,38046
49173,38134
48700,38134
" /> 
<polyline style="fill-rule:evenodd;"
points="48700,38331
48700,38243
49173,38243
49173,38331
48700,38331
" /> 
<polyline style="fill-rule:evenodd;"
points="48700,38528
48700,38440
49173,38440
49173,38528
48700,38528
" /> 
<polyline style="fill-rule:evenodd;"
points="48700,38725
48700,38637
49173,38637
49173,38725
48700,38725
" /> 
<polyline style="fill-rule:evenodd;"
points="48700,38922
48700,38833
49173,38833
49173,38922
48700,38922
" /> 
<polyline style="fill-rule:evenodd;"
points="49660,39409
49748,39409
49748,39881
49660,39881
49660,39409
" /> 
<polyline style="fill-rule:evenodd;"
points="49857,39409
49945,39409
49945,39881
49857,39881
49857,39409
" /> 
<polyline style="fill-rule:evenodd;"
points="50054,39409
50142,39409
50142,39881
50054,39881
50054,39409
" /> 
<polyline style="fill-rule:evenodd;"
points="50251,39409
50339,39409
50339,39881
50251,39881
50251,39409
" /> 
<polyline style="fill-rule:evenodd;"
points="50448,39409
50536,39409
50536,39881
50448,39881
50448,39409
" /> 
<polyline style="fill-rule:evenodd;"
points="50644,39409
50733,39409
50733,39881
50644,39881
50644,39409
" /> 
<polyline style="fill-rule:evenodd;"
points="50841,39409
50929,39409
50929,39881
50841,39881
50841,39409
" /> 
<polyline style="fill-rule:evenodd;"
points="51038,39409
51126,39409
51126,39881
51038,39881
51038,39409
" /> 
<polyline style="fill-rule:evenodd;"
points="51235,39409
51323,39409
51323,39881
51235,39881
51235,39409
" /> 
<polyline style="fill-rule:evenodd;"
points="51432,39409
51520,39409
51520,39881
51432,39881
51432,39409
" /> 
<polyline style="fill-rule:evenodd;"
points="51629,39409
51717,39409
51717,39881
51629,39881
51629,39409
" /> 
<polyline style="fill-rule:evenodd;"
points="51825,39409
51914,39409
51914,39881
51825,39881
51825,39409
" /> 
<polyline style="fill-rule:evenodd;"
points="52022,39409
52111,39409
52111,39881
52022,39881
52022,39409
" /> 
<polyline style="fill-rule:evenodd;"
points="52219,39409
52307,39409
52307,39881
52219,39881
52219,39409
" /> 
<polyline style="fill-rule:evenodd;"
points="52416,39409
52504,39409
52504,39881
52416,39881
52416,39409
" /> 
<polyline style="fill-rule:evenodd;"
points="52613,39409
52701,39409
52701,39881
52613,39881
52613,39409
" /> 
<polyline style="fill-rule:evenodd;"
points="52810,39409
52898,39409
52898,39881
52810,39881
52810,39409
" /> 
<polyline style="fill-rule:evenodd;"
points="53007,39409
53095,39409
53095,39881
53007,39881
53007,39409
" /> 
<polyline style="fill-rule:evenodd;"
points="53203,39409
53292,39409
53292,39881
53203,39881
53203,39409
" /> 
<polyline style="fill-rule:evenodd;"
points="53400,39409
53488,39409
53488,39881
53400,39881
53400,39409
" /> 
<polyline style="fill-rule:evenodd;"
points="53597,39409
53685,39409
53685,39881
53597,39881
53597,39409
" /> 
<polyline style="fill-rule:evenodd;"
points="53794,39409
53882,39409
53882,39881
53794,39881
53794,39409
" /> 
<polyline style="fill-rule:evenodd;"
points="53991,39409
54079,39409
54079,39881
53991,39881
53991,39409
" /> 
<polyline style="fill-rule:evenodd;"
points="54188,39409
54276,39409
54276,39881
54188,39881
54188,39409
" /> 
<polyline style="fill-rule:evenodd;"
points="54385,39409
54473,39409
54473,39881
54385,39881
54385,39409
" /> 
<polyline style="fill-rule:evenodd;"
points="54581,39409
54670,39409
54670,39881
54581,39881
54581,39409
" /> 
<polyline style="fill-rule:evenodd;"
points="54778,39409
54866,39409
54866,39881
54778,39881
54778,39409
" /> 
<polyline style="fill-rule:evenodd;"
points="54975,39409
55063,39409
55063,39881
54975,39881
54975,39409
" /> 
<polyline style="fill-rule:evenodd;"
points="55172,39409
55260,39409
55260,39881
55172,39881
55172,39409
" /> 
<polyline style="fill-rule:evenodd;"
points="55369,39409
55457,39409
55457,39881
55369,39881
55369,39409
" /> 
<polyline style="fill-rule:evenodd;"
points="55566,39409
55654,39409
55654,39881
55566,39881
55566,39409
" /> 
<polyline style="fill-rule:evenodd;"
points="55762,39409
55851,39409
55851,39881
55762,39881
55762,39409
" /> 
<polyline style="fill-rule:evenodd;"
points="55959,39409
56048,39409
56048,39881
55959,39881
55959,39409
" /> 
<polyline style="fill-rule:evenodd;"
points="56156,39409
56244,39409
56244,39881
56156,39881
56156,39409
" /> 
<polyline style="fill-rule:evenodd;"
points="56353,39409
56441,39409
56441,39881
56353,39881
56353,39409
" /> 
<polyline style="fill-rule:evenodd;"
points="56550,39409
56638,39409
56638,39881
56550,39881
56550,39409
" /> 
<polyline style="fill-rule:evenodd;"
points="56747,39409
56835,39409
56835,39881
56747,39881
56747,39409
" /> 
<polyline style="fill-rule:evenodd;"
points="56944,39409
57032,39409
57032,39881
56944,39881
56944,39409
" /> 
<polyline style="fill-rule:evenodd;"
points="57519,38922
57519,38833
57992,38833
57992,38922
57519,38922
" /> 
<polyline style="fill-rule:evenodd;"
points="57519,38725
57519,38637
57992,38637
57992,38725
57519,38725
" /> 
<polyline style="fill-rule:evenodd;"
points="57519,38528
57519,38440
57992,38440
57992,38528
57519,38528
" /> 
<polyline style="fill-rule:evenodd;"
points="57519,38331
57519,38243
57992,38243
57992,38331
57519,38331
" /> 
<polyline style="fill-rule:evenodd;"
points="57519,38134
57519,38046
57992,38046
57992,38134
57519,38134
" /> 
<polyline style="fill-rule:evenodd;"
points="57519,37937
57519,37849
57992,37849
57992,37937
57519,37937
" /> 
<polyline style="fill-rule:evenodd;"
points="57519,37740
57519,37652
57992,37652
57992,37740
57519,37740
" /> 
<polyline style="fill-rule:evenodd;"
points="57519,37544
57519,37455
57992,37455
57992,37544
57519,37544
" /> 
<polyline style="fill-rule:evenodd;"
points="57519,37347
57519,37259
57992,37259
57992,37347
57519,37347
" /> 
<polyline style="fill-rule:evenodd;"
points="57519,37150
57519,37062
57992,37062
57992,37150
57519,37150
" /> 
<polyline style="fill-rule:evenodd;"
points="57519,36953
57519,36865
57992,36865
57992,36953
57519,36953
" /> 
<polyline style="fill-rule:evenodd;"
points="57519,36756
57519,36668
57992,36668
57992,36756
57519,36756
" /> 
<polyline style="fill-rule:evenodd;"
points="57519,36559
57519,36471
57992,36471
57992,36559
57519,36559
" /> 
<polyline style="fill-rule:evenodd;"
points="57519,36362
57519,36274
57992,36274
57992,36362
57519,36362
" /> 
<polyline style="fill-rule:evenodd;"
points="57519,36166
57519,36077
57992,36077
57992,36166
57519,36166
" /> 
<polyline style="fill-rule:evenodd;"
points="57519,35969
57519,35881
57992,35881
57992,35969
57519,35969
" /> 
<polyline style="fill-rule:evenodd;"
points="57519,35772
57519,35684
57992,35684
57992,35772
57519,35772
" /> 
<polyline style="fill-rule:evenodd;"
points="57519,35575
57519,35487
57992,35487
57992,35575
57519,35575
" /> 
<polyline style="fill-rule:evenodd;"
points="57519,35378
57519,35290
57992,35290
57992,35378
57519,35378
" /> 
<polyline style="fill-rule:evenodd;"
points="57519,35181
57519,35093
57992,35093
57992,35181
57519,35181
" /> 
<polyline style="fill-rule:evenodd;"
points="57519,34985
57519,34896
57992,34896
57992,34985
57519,34985
" /> 
<polyline style="fill-rule:evenodd;"
points="57519,34788
57519,34700
57992,34700
57992,34788
57519,34788
" /> 
<polyline style="fill-rule:evenodd;"
points="57519,34591
57519,34503
57992,34503
57992,34591
57519,34591
" /> 
<polyline style="fill-rule:evenodd;"
points="57519,34394
57519,34306
57992,34306
57992,34394
57519,34394
" /> 
<polyline style="fill-rule:evenodd;"
points="57519,34197
57519,34109
57992,34109
57992,34197
57519,34197
" /> 
<polyline style="fill-rule:evenodd;"
points="57519,34000
57519,33912
57992,33912
57992,34000
57519,34000
" /> 
<polyline style="fill-rule:evenodd;"
points="46496,37923
47125,37923
47125,38316
46496,38316
46496,37923
" /> 
<polyline style="fill-rule:evenodd;"
points="46496,39005
47125,39005
47125,39399
46496,39399
46496,39005
" /> 
<polyline style="fill-rule:evenodd;"
points="45137,38031
45137,37559
45925,37559
45925,38031
45137,38031
" /> 
<polyline style="fill-rule:evenodd;"
points="45137,36220
45137,35748
45925,35748
45925,36220
45137,36220
" /> 
<polyline style="fill-rule:evenodd;"
points="41732,37992
41732,35787
43937,35787
43937,37992
41732,37992
" /> 
<polyline style="fill-rule:evenodd;"
points="39611,29964
39611,29649
39894,29649
39894,29964
39611,29964
" /> 
<polyline style="fill-rule:evenodd;"
points="39018,29964
39018,29649
39302,29649
39302,29964
39018,29964
" /> 
<polyline style="fill-rule:evenodd;"
points="37764,29279
37764,28964
38047,28964
38047,29279
37764,29279
" /> 
<polyline style="fill-rule:evenodd;"
points="37172,29279
37172,28964
37455,28964
37455,29279
37172,29279
" /> 
<polyline style="fill-rule:evenodd;"
points="49688,29764
50004,29764
50004,30047
49688,30047
49688,29764
" /> 
<polyline style="fill-rule:evenodd;"
points="49688,29172
50003,29172
50003,29455
49688,29455
49688,29172
" /> 
<polyline style="fill-rule:evenodd;"
points="55178,29196
55178,28881
55461,28881
55461,29196
55178,29196
" /> 
<polyline style="fill-rule:evenodd;"
points="54585,29196
54585,28881
54869,28881
54869,29196
54585,29196
" /> 
<polyline style="fill-rule:evenodd;"
points="61669,29294
61354,29294
61354,29011
61669,29011
61669,29294
" /> 
<polyline style="fill-rule:evenodd;"
points="61669,29886
61354,29886
61354,29603
61669,29603
61669,29886
" /> 
<polyline style="fill-rule:evenodd;"
points="64884,39625
64884,39941
64601,39941
64601,39625
64884,39625
" /> 
<polyline style="fill-rule:evenodd;"
points="65477,39625
65477,39940
65193,39940
65193,39625
65477,39625
" /> 
<polyline style="fill-rule:evenodd;"
points="52752,41833
52436,41833
52436,41550
52752,41550
52752,41833
" /> 
<polyline style="fill-rule:evenodd;"
points="52751,42425
52437,42425
52437,42142
52751,42142
52751,42425
" /> 
<polyline style="fill-rule:evenodd;"
points="54511,41833
54196,41833
54196,41550
54511,41550
54511,41833
" /> 
<polyline style="fill-rule:evenodd;"
points="54511,42425
54196,42425
54196,42142
54511,42142
54511,42425
" /> 
<polyline style="fill-rule:evenodd;"
points="59681,35177
59681,34862
59965,34862
59965,35177
59681,35177
" /> 
<polyline style="fill-rule:evenodd;"
points="59089,35177
59089,34862
59373,34862
59373,35177
59089,35177
" /> 
<polyline style="fill-rule:evenodd;"
points="71806,27725
72122,27725
72122,28008
71806,28008
71806,27725
" /> 
<polyline style="fill-rule:evenodd;"
points="71807,27133
72122,27133
72122,27416
71807,27416
71807,27133
" /> 
<polyline style="fill-rule:evenodd;"
points="47310,34795
47310,35110
47026,35110
47026,34795
47310,34795
" /> 
<polyline style="fill-rule:evenodd;"
points="47902,34795
47902,35110
47618,35110
47618,34795
47902,34795
" /> 
<polyline style="fill-rule:evenodd;"
points="59701,35974
59701,35659
59984,35659
59984,35974
59701,35974
" /> 
<polyline style="fill-rule:evenodd;"
points="59109,35974
59109,35659
59392,35659
59392,35974
59109,35974
" /> 
<polyline style="fill-rule:evenodd;"
points="48633,33047
48633,33362
48349,33362
48349,33047
48633,33047
" /> 
<polyline style="fill-rule:evenodd;"
points="49225,33047
49225,33362
48941,33362
48941,33047
49225,33047
" /> 
<polyline style="fill-rule:evenodd;"
points="59721,36653
59721,36338
60004,36338
60004,36653
59721,36653
" /> 
<polyline style="fill-rule:evenodd;"
points="59129,36653
59129,36338
59412,36338
59412,36653
59129,36653
" /> 
<polyline style="fill-rule:evenodd;"
points="59721,38346
59721,38031
60004,38031
60004,38346
59721,38346
" /> 
<polyline style="fill-rule:evenodd;"
points="59129,38346
59129,38031
59412,38031
59412,38346
59129,38346
" /> 
<polyline style="fill-rule:evenodd;"
points="51976,31306
51661,31306
51661,31023
51976,31023
51976,31306
" /> 
<polyline style="fill-rule:evenodd;"
points="51976,31898
51661,31898
51661,31614
51976,31614
51976,31898
" /> 
<polyline style="fill-rule:evenodd;"
points="55846,41008
56161,41008
56161,41291
55846,41291
55846,41008
" /> 
<polyline style="fill-rule:evenodd;"
points="55846,40416
56161,40416
56161,40700
55846,40700
55846,40416
" /> 
<polyline style="fill-rule:evenodd;"
points="53421,31727
53106,31727
53106,31444
53421,31444
53421,31727
" /> 
<polyline style="fill-rule:evenodd;"
points="53421,32319
53106,32319
53106,32036
53421,32036
53421,32319
" /> 
<polyline style="fill-rule:evenodd;"
points="54102,40756
54417,40756
54417,41039
54102,41039
54102,40756
" /> 
<polyline style="fill-rule:evenodd;"
points="54102,40164
54417,40164
54417,40448
54102,40448
54102,40164
" /> 
<polyline style="fill-rule:evenodd;"
points="54830,31038
54515,31038
54515,30755
54830,30755
54830,31038
" /> 
<polyline style="fill-rule:evenodd;"
points="54830,31630
54515,31630
54515,31347
54830,31347
54830,31630
" /> 
<polyline style="fill-rule:evenodd;"
points="52688,40760
53004,40760
53004,41043
52688,41043
52688,40760
" /> 
<polyline style="fill-rule:evenodd;"
points="52688,40168
53003,40168
53003,40452
52688,40452
52688,40168
" /> 
<polyline style="fill-rule:evenodd;"
points="56250,31331
55934,31331
55934,31048
56250,31048
56250,31331
" /> 
<polyline style="fill-rule:evenodd;"
points="56250,31923
55935,31923
55935,31640
56250,31640
56250,31923
" /> 
<polyline style="fill-rule:evenodd;"
points="50897,40697
51212,40697
51212,40980
50897,40980
50897,40697
" /> 
<polyline style="fill-rule:evenodd;"
points="50897,40105
51212,40105
51212,40389
50897,40389
50897,40105
" /> 
<polyline style="fill-rule:evenodd;"
points="58422,32952
58422,32637
58705,32637
58705,32952
58422,32952
" /> 
<polyline style="fill-rule:evenodd;"
points="57829,32952
57829,32637
58113,32637
58113,32952
57829,32952
" /> 
<polyline style="fill-rule:evenodd;"
points="46987,36484
46987,36799
46704,36799
46704,36484
46987,36484
" /> 
<polyline style="fill-rule:evenodd;"
points="47579,36484
47579,36799
47296,36799
47296,36484
47579,36484
" /> 
<polyline style="fill-rule:evenodd;"
points="65032,32086
65032,32401
64749,32401
64749,32086
65032,32086
" /> 
<polyline style="fill-rule:evenodd;"
points="65624,32086
65624,32401
65341,32401
65341,32086
65624,32086
" /> 
<polyline style="fill-rule:evenodd;"
points="47656,38338
47656,38653
47373,38653
47373,38338
47656,38338
" /> 
<polyline style="fill-rule:evenodd;"
points="48248,38338
48248,38653
47965,38653
47965,38338
48248,38338
" /> 
<polyline style="fill-rule:evenodd;"
points="49975,31692
49975,32007
49692,32007
49692,31692
49975,31692
" /> 
<polyline style="fill-rule:evenodd;"
points="50567,31692
50567,32007
50284,32007
50284,31692
50567,31692
" /> 
<polyline style="fill-rule:evenodd;"
points="48111,37366
48111,37051
48394,37051
48394,37366
48111,37366
" /> 
<polyline style="fill-rule:evenodd;"
points="47519,37366
47519,37051
47802,37051
47802,37366
47519,37366
" /> 
<polyline style="fill-rule:evenodd;"
points="47618,35673
47618,35358
47902,35358
47902,35673
47618,35673
" /> 
<polyline style="fill-rule:evenodd;"
points="47026,35673
47026,35358
47310,35358
47310,35673
47026,35673
" /> 
<polyline style="fill-rule:evenodd;"
points="59412,36889
59412,37204
59129,37204
59129,36889
59412,36889
" /> 
<polyline style="fill-rule:evenodd;"
points="60004,36889
60004,37204
59721,37204
59721,36889
60004,36889
" /> 
<polyline style="fill-rule:evenodd;"
points="41916,30043
41916,30358
41633,30358
41633,30043
41916,30043
" /> 
<polyline style="fill-rule:evenodd;"
points="42508,30043
42508,30358
42225,30358
42225,30043
42508,30043
" /> 
<polyline style="fill-rule:evenodd;"
points="42248,30988
42248,30673
42532,30673
42532,30988
42248,30988
" /> 
<polyline style="fill-rule:evenodd;"
points="41656,30988
41656,30673
41940,30673
41940,30988
41656,30988
" /> 
<polyline style="fill-rule:evenodd;"
points="41983,32043
41983,32358
41700,32358
41700,32043
41983,32043
" /> 
<polyline style="fill-rule:evenodd;"
points="42575,32043
42575,32358
42292,32358
42292,32043
42575,32043
" /> 
<polyline style="fill-rule:evenodd;"
points="42272,31677
42272,31362
42555,31362
42555,31677
42272,31677
" /> 
<polyline style="fill-rule:evenodd;"
points="41680,31677
41680,31362
41963,31362
41963,31677
41680,31677
" /> 
<polyline style="fill-rule:evenodd;"
points="46468,29609
46153,29609
46153,29326
46468,29326
46468,29609
" /> 
<polyline style="fill-rule:evenodd;"
points="46468,30201
46153,30201
46153,29918
46468,29918
46468,30201
" /> 
<polyline style="fill-rule:evenodd;"
points="45539,29910
45854,29910
45854,30193
45539,30193
45539,29910
" /> 
<polyline style="fill-rule:evenodd;"
points="45539,29318
45854,29318
45854,29601
45539,29601
45539,29318
" /> 
<polyline style="fill-rule:evenodd;"
points="44606,29601
44291,29601
44291,29318
44606,29318
44606,29601
" /> 
<polyline style="fill-rule:evenodd;"
points="44606,30193
44291,30193
44291,29910
44606,29910
44606,30193
" /> 
<polyline style="fill-rule:evenodd;"
points="44925,29914
45240,29914
45240,30197
44925,30197
44925,29914
" /> 
<polyline style="fill-rule:evenodd;"
points="44925,29322
45240,29322
45240,29605
44925,29605
44925,29322
" /> 
<polyline style="fill-rule:evenodd;"
points="49374,29432
49058,29432
49058,29149
49374,29149
49374,29432
" /> 
<polyline style="fill-rule:evenodd;"
points="49374,30024
49058,30024
49058,29741
49374,29741
49374,30024
" /> 
<polyline style="fill-rule:evenodd;"
points="48429,29741
48744,29741
48744,30024
48429,30024
48429,29741
" /> 
<polyline style="fill-rule:evenodd;"
points="48429,29149
48744,29149
48744,29432
48429,29432
48429,29149
" /> 
<polyline style="fill-rule:evenodd;"
points="47472,29412
47157,29412
47157,29129
47472,29129
47472,29412
" /> 
<polyline style="fill-rule:evenodd;"
points="47472,30004
47157,30004
47157,29721
47472,29721
47472,30004
" /> 
<polyline style="fill-rule:evenodd;"
points="47775,29729
48090,29729
48090,30012
47775,30012
47775,29729
" /> 
<polyline style="fill-rule:evenodd;"
points="47775,29137
48090,29137
48090,29420
47775,29420
47775,29137
" /> 
<polyline style="fill-rule:evenodd;"
points="53212,29231
52897,29231
52897,28948
53212,28948
53212,29231
" /> 
<polyline style="fill-rule:evenodd;"
points="53212,29823
52897,29823
52897,29540
53212,29540
53212,29823
" /> 
<polyline style="fill-rule:evenodd;"
points="52110,29532
52425,29532
52425,29815
52110,29815
52110,29532
" /> 
<polyline style="fill-rule:evenodd;"
points="52110,28940
52425,28940
52425,29223
52110,29223
52110,28940
" /> 
<polyline style="fill-rule:evenodd;"
points="50815,29215
50499,29215
50499,28932
50815,28932
50815,29215
" /> 
<polyline style="fill-rule:evenodd;"
points="50815,29807
50499,29807
50499,29524
50815,29524
50815,29807
" /> 
<polyline style="fill-rule:evenodd;"
points="51326,29532
51641,29532
51641,29815
51326,29815
51326,29532
" /> 
<polyline style="fill-rule:evenodd;"
points="51326,28940
51641,28940
51641,29223
51326,29223
51326,28940
" /> 
<polyline style="fill-rule:evenodd;"
points="60960,29282
60645,29282
60645,28999
60960,28999
60960,29282
" /> 
<polyline style="fill-rule:evenodd;"
points="60960,29874
60645,29874
60645,29591
60960,29591
60960,29874
" /> 
<polyline style="fill-rule:evenodd;"
points="59925,29571
60240,29571
60240,29854
59925,29854
59925,29571
" /> 
<polyline style="fill-rule:evenodd;"
points="59925,28979
60240,28979
60240,29262
59925,29262
59925,28979
" /> 
<polyline style="fill-rule:evenodd;"
points="58358,29325
58043,29325
58043,29042
58358,29042
58358,29325
" /> 
<polyline style="fill-rule:evenodd;"
points="58358,29917
58043,29917
58043,29634
58358,29634
58358,29917
" /> 
<polyline style="fill-rule:evenodd;"
points="58858,29626
59173,29626
59173,29910
58858,29910
58858,29626
" /> 
<polyline style="fill-rule:evenodd;"
points="58858,29034
59173,29034
59173,29318
58858,29318
58858,29034
" /> 
<polyline style="fill-rule:evenodd;"
points="62877,30964
62877,31279
62593,31279
62593,30964
62877,30964
" /> 
<polyline style="fill-rule:evenodd;"
points="63469,30964
63469,31279
63185,31279
63185,30964
63469,30964
" /> 
<polyline style="fill-rule:evenodd;"
points="63215,30462
63215,30147
63498,30147
63498,30462
63215,30462
" /> 
<polyline style="fill-rule:evenodd;"
points="62623,30462
62623,30147
62906,30147
62906,30462
62623,30462
" /> 
<polyline style="fill-rule:evenodd;"
points="59780,39065
59780,38749
60063,38749
60063,39065
59780,39065
" /> 
<polyline style="fill-rule:evenodd;"
points="59188,39065
59188,38749
59471,38749
59471,39065
59188,39065
" /> 
<polyline style="fill-rule:evenodd;"
points="63999,28877
63999,29193
63715,29193
63715,28877
63999,28877
" /> 
<polyline style="fill-rule:evenodd;"
points="64591,28877
64591,29193
64307,29193
64307,28877
64591,28877
" /> 
<polyline style="fill-rule:evenodd;"
points="56436,41000
56752,41000
56752,41284
56436,41284
56436,41000
" /> 
<polyline style="fill-rule:evenodd;"
points="56436,40408
56752,40408
56752,40692
56436,40692
56436,40408
" /> 
<polyline style="fill-rule:evenodd;"
points="65498,29202
65498,28887
65782,28887
65782,29202
65498,29202
" /> 
<polyline style="fill-rule:evenodd;"
points="64906,29202
64906,28887
65190,28887
65190,29202
64906,29202
" /> 
<polyline style="fill-rule:evenodd;"
points="55287,41225
55602,41225
55602,41508
55287,41508
55287,41225
" /> 
<polyline style="fill-rule:evenodd;"
points="55287,40633
55602,40633
55602,40916
55287,40916
55287,40633
" /> 
<polyline style="fill-rule:evenodd;"
points="56929,41000
57244,41000
57244,41284
56929,41284
56929,41000
" /> 
<polyline style="fill-rule:evenodd;"
points="56929,40408
57244,40408
57244,40692
56929,40692
56929,40408
" /> 
<polyline style="fill-rule:evenodd;"
points="54759,41225
55074,41225
55074,41508
54759,41508
54759,41225
" /> 
<polyline style="fill-rule:evenodd;"
points="54759,40633
55074,40633
55074,40916
54759,40916
54759,40633
" /> 
<polyline style="fill-rule:evenodd;"
points="47778,35964
47778,36279
47495,36279
47495,35964
47778,35964
" /> 
<polyline style="fill-rule:evenodd;"
points="48370,35964
48370,36279
48087,36279
48087,35964
48370,35964
" /> 
<polyline style="fill-rule:evenodd;"
points="53562,40733
53878,40733
53878,41016
53562,41016
53562,40733
" /> 
<polyline style="fill-rule:evenodd;"
points="53562,40141
53878,40141
53878,40424
53562,40424
53562,40141
" /> 
<polyline style="fill-rule:evenodd;"
points="52023,40874
52338,40874
52338,41158
52023,41158
52023,40874
" /> 
<polyline style="fill-rule:evenodd;"
points="52023,40282
52338,40282
52338,40566
52023,40566
52023,40282
" /> 
<polyline style="fill-rule:evenodd;"
points="51409,40752
51724,40752
51724,41036
51409,41036
51409,40752
" /> 
<polyline style="fill-rule:evenodd;"
points="51409,40160
51724,40160
51724,40444
51409,40444
51409,40160
" /> 
<polyline style="fill-rule:evenodd;"
points="64944,33543
64944,33858
64660,33858
64660,33543
64944,33543
" /> 
<polyline style="fill-rule:evenodd;"
points="65536,33543
65536,33858
65252,33858
65252,33543
65536,33543
" /> 
<polyline style="fill-rule:evenodd;"
points="65233,33228
65233,32913
65516,32913
65516,33228
65233,33228
" /> 
<polyline style="fill-rule:evenodd;"
points="64641,33228
64641,32913
64924,32913
64924,33228
64641,33228
" /> 
<polyline style="fill-rule:evenodd;"
points="65022,30413
65022,30728
64739,30728
64739,30413
65022,30413
" /> 
<polyline style="fill-rule:evenodd;"
points="65614,30413
65614,30728
65331,30728
65331,30413
65614,30413
" /> 
<polyline style="fill-rule:evenodd;"
points="65361,31466
65361,31151
65644,31151
65644,31466
65361,31466
" /> 
<polyline style="fill-rule:evenodd;"
points="64769,31466
64769,31151
65052,31151
65052,31466
64769,31466
" /> 
<polyline style="fill-rule:evenodd;"
points="64884,41117
64884,41433
64601,41433
64601,41117
64884,41117
" /> 
<polyline style="fill-rule:evenodd;"
points="65476,41117
65476,41433
65193,41433
65193,41117
65476,41117
" /> 
<polyline style="fill-rule:evenodd;"
points="65193,40511
65193,40196
65476,40196
65476,40511
65193,40511
" /> 
<polyline style="fill-rule:evenodd;"
points="64601,40511
64601,40196
64884,40196
64884,40511
64601,40511
" /> 
<polyline style="fill-rule:evenodd;"
points="64865,38316
64865,38632
64582,38632
64582,38316
64865,38316
" /> 
<polyline style="fill-rule:evenodd;"
points="65457,38316
65457,38632
65174,38632
65174,38316
65457,38316
" /> 
<polyline style="fill-rule:evenodd;"
points="65193,39389
65193,39074
65476,39074
65476,39389
65193,39389
" /> 
<polyline style="fill-rule:evenodd;"
points="64601,39389
64601,39074
64884,39074
64884,39389
64601,39389
" /> 
<polyline style="fill-rule:evenodd;"
points="46660,39657
46660,39972
46377,39972
46377,39657
46660,39657
" /> 
<polyline style="fill-rule:evenodd;"
points="47252,39657
47252,39972
46969,39972
46969,39657
47252,39657
" /> 
<polyline style="fill-rule:evenodd;"
points="59721,37756
59721,37440
60004,37440
60004,37756
59721,37756
" /> 
<polyline style="fill-rule:evenodd;"
points="59129,37756
59129,37440
59412,37440
59412,37756
59129,37756
" /> 
<polyline style="fill-rule:evenodd;"
points="63343,40177
63343,39862
63626,39862
63626,40177
63343,40177
" /> 
<polyline style="fill-rule:evenodd;"
points="62751,40177
62751,39862
63034,39862
63034,40177
62751,40177
" /> 
<polyline style="fill-rule:evenodd;"
points="39870,39462
40720,39462
40720,39887
39870,39887
39870,39462
" /> 
<polyline style="fill-rule:evenodd;"
points="39870,40545
40720,40545
40720,40970
39870,40970
39870,40545
" /> 
<polyline style="fill-rule:evenodd;"
points="44072,41157
44072,40307
44498,40307
44498,41157
44072,41157
" /> 
<polyline style="fill-rule:evenodd;"
points="45155,41157
45155,40307
45580,40307
45580,41157
45155,41157
" /> 
<polyline style="fill-rule:evenodd;"
points="45244,38419
46094,38419
46094,38844
45244,38844
45244,38419
" /> 
<polyline style="fill-rule:evenodd;"
points="45244,39501
46094,39501
46094,39927
45244,39927
45244,39501
" /> 
</g> 
</svg>
