G04 #@! TF.FileFunction,Paste,Bot*
%FSLAX46Y46*%
G04 Gerber Fmt 4.6, Leading zero omitted, Abs format (unit mm)*
G04 Created by KiCad (PCBNEW 4.0.2+e4-6225~38~ubuntu14.04.1-stable) date Thu 11 Aug 2016 08:52:07 PM PDT*
%MOMM*%
G01*
G04 APERTURE LIST*
%ADD10C,0.150000*%
%ADD11C,1.200000*%
G04 APERTURE END LIST*
D10*
D11*
X183110000Y-108325000D03*
X183110000Y-105785000D03*
X183110000Y-98215000D03*
X183110000Y-95675000D03*
X172650000Y-106440000D03*
X172650000Y-101370000D03*
X172650000Y-103900000D03*
X172650000Y-98830000D03*
X170110000Y-105180000D03*
X170110000Y-100100000D03*
X170110000Y-102640000D03*
X170110000Y-97560000D03*
X183110000Y-89325000D03*
X183110000Y-86785000D03*
X183110000Y-79215000D03*
X183110000Y-76675000D03*
X172650000Y-87440000D03*
X172650000Y-82370000D03*
X172650000Y-84900000D03*
X172650000Y-79830000D03*
X170110000Y-86180000D03*
X170110000Y-81100000D03*
X170110000Y-83640000D03*
X170110000Y-78560000D03*
X178825000Y-57890000D03*
X176285000Y-57890000D03*
X168715000Y-57890000D03*
X166175000Y-57890000D03*
X176940000Y-68350000D03*
X171870000Y-68350000D03*
X174400000Y-68350000D03*
X169330000Y-68350000D03*
X175680000Y-70890000D03*
X170600000Y-70890000D03*
X173140000Y-70890000D03*
X168060000Y-70890000D03*
X160325000Y-57890000D03*
X157785000Y-57890000D03*
X150215000Y-57890000D03*
X147675000Y-57890000D03*
X158440000Y-68350000D03*
X153370000Y-68350000D03*
X155900000Y-68350000D03*
X150830000Y-68350000D03*
X157180000Y-70890000D03*
X152100000Y-70890000D03*
X154640000Y-70890000D03*
X149560000Y-70890000D03*
X141825000Y-57890000D03*
X139285000Y-57890000D03*
X131715000Y-57890000D03*
X129175000Y-57890000D03*
X139940000Y-68350000D03*
X134870000Y-68350000D03*
X137400000Y-68350000D03*
X132330000Y-68350000D03*
X138680000Y-70890000D03*
X133600000Y-70890000D03*
X136140000Y-70890000D03*
X131060000Y-70890000D03*
X123325000Y-57890000D03*
X120785000Y-57890000D03*
X113215000Y-57890000D03*
X110675000Y-57890000D03*
X121440000Y-68350000D03*
X116370000Y-68350000D03*
X118900000Y-68350000D03*
X113830000Y-68350000D03*
X120180000Y-70890000D03*
X115100000Y-70890000D03*
X117640000Y-70890000D03*
X112560000Y-70890000D03*
X104825000Y-57890000D03*
X102285000Y-57890000D03*
X94715000Y-57890000D03*
X92175000Y-57890000D03*
X102940000Y-68350000D03*
X97870000Y-68350000D03*
X100400000Y-68350000D03*
X95330000Y-68350000D03*
X101680000Y-70890000D03*
X96600000Y-70890000D03*
X99140000Y-70890000D03*
X94060000Y-70890000D03*
X88890000Y-79175000D03*
X88890000Y-81715000D03*
X88890000Y-89285000D03*
X88890000Y-91825000D03*
X99350000Y-81060000D03*
X99350000Y-86130000D03*
X99350000Y-83600000D03*
X99350000Y-88670000D03*
X101890000Y-82320000D03*
X101890000Y-87400000D03*
X101890000Y-84860000D03*
X101890000Y-89940000D03*
X88890000Y-97675000D03*
X88890000Y-100215000D03*
X88890000Y-107785000D03*
X88890000Y-110325000D03*
X99350000Y-99560000D03*
X99350000Y-104630000D03*
X99350000Y-102100000D03*
X99350000Y-107170000D03*
X101890000Y-100820000D03*
X101890000Y-105900000D03*
X101890000Y-103360000D03*
X101890000Y-108440000D03*
X88890000Y-116675000D03*
X88890000Y-119215000D03*
X88890000Y-126785000D03*
X88890000Y-129325000D03*
X99350000Y-118560000D03*
X99350000Y-123630000D03*
X99350000Y-121100000D03*
X99350000Y-126170000D03*
X101890000Y-119820000D03*
X101890000Y-124900000D03*
X101890000Y-122360000D03*
X101890000Y-127440000D03*
X91175000Y-151610000D03*
X93715000Y-151610000D03*
X101285000Y-151610000D03*
X103825000Y-151610000D03*
X93060000Y-141150000D03*
X98130000Y-141150000D03*
X95600000Y-141150000D03*
X100670000Y-141150000D03*
X94320000Y-138610000D03*
X99400000Y-138610000D03*
X96860000Y-138610000D03*
X101940000Y-138610000D03*
X110175000Y-151610000D03*
X112715000Y-151610000D03*
X120285000Y-151610000D03*
X122825000Y-151610000D03*
X112060000Y-141150000D03*
X117130000Y-141150000D03*
X114600000Y-141150000D03*
X119670000Y-141150000D03*
X113320000Y-138610000D03*
X118400000Y-138610000D03*
X115860000Y-138610000D03*
X120940000Y-138610000D03*
X129175000Y-151610000D03*
X131715000Y-151610000D03*
X139285000Y-151610000D03*
X141825000Y-151610000D03*
X131060000Y-141150000D03*
X136130000Y-141150000D03*
X133600000Y-141150000D03*
X138670000Y-141150000D03*
X132320000Y-138610000D03*
X137400000Y-138610000D03*
X134860000Y-138610000D03*
X139940000Y-138610000D03*
X148175000Y-151610000D03*
X150715000Y-151610000D03*
X158285000Y-151610000D03*
X160825000Y-151610000D03*
X150060000Y-141150000D03*
X155130000Y-141150000D03*
X152600000Y-141150000D03*
X157670000Y-141150000D03*
X151320000Y-138610000D03*
X156400000Y-138610000D03*
X153860000Y-138610000D03*
X158940000Y-138610000D03*
X167175000Y-151610000D03*
X169715000Y-151610000D03*
X177285000Y-151610000D03*
X179825000Y-151610000D03*
X169060000Y-141150000D03*
X174130000Y-141150000D03*
X171600000Y-141150000D03*
X176670000Y-141150000D03*
X170320000Y-138610000D03*
X175400000Y-138610000D03*
X172860000Y-138610000D03*
X177940000Y-138610000D03*
X183110000Y-127325000D03*
X183110000Y-124785000D03*
X183110000Y-117215000D03*
X183110000Y-114675000D03*
X172650000Y-125440000D03*
X172650000Y-120370000D03*
X172650000Y-122900000D03*
X172650000Y-117830000D03*
X170110000Y-124180000D03*
X170110000Y-119100000D03*
X170110000Y-121640000D03*
X170110000Y-116560000D03*
M02*
