M48
;DRILL file {KiCad 4.0.2+e4-6225~38~ubuntu14.04.1-stable} date Thu 11 Aug 2016 08:52:03 PM PDT
;FORMAT={-:-/ absolute / metric / decimal}
FMAT,2
METRIC,TZ
T1C1.700
T2C3.000
T3C3.250
%
G90
G05
M71
T1
X89.55Y-143.6
X90.55Y-65.9
X96.9Y-77.55
X96.9Y-93.45
X96.9Y-96.05
X96.9Y-111.95
X96.9Y-115.05
X96.9Y-130.95
X105.45Y-143.6
X106.45Y-65.9
X108.55Y-143.6
X109.05Y-65.9
X124.45Y-143.6
X124.95Y-65.9
X127.55Y-65.9
X127.55Y-143.6
X143.45Y-65.9
X143.45Y-143.6
X146.05Y-65.9
X146.55Y-143.6
X161.95Y-65.9
X162.45Y-143.6
X164.55Y-65.9
X165.55Y-143.6
X175.1Y-75.05
X175.1Y-90.95
X175.1Y-94.05
X175.1Y-109.95
X175.1Y-113.05
X175.1Y-128.95
X180.45Y-65.9
X181.45Y-143.6
T2
X90.Y-75.
X90.Y-134.
X181.Y-133.
X183.Y-59.
T3
X91.785Y-147.368
X92.785Y-62.132
X93.132Y-79.785
X93.132Y-91.215
X93.132Y-98.285
X93.132Y-109.715
X93.132Y-117.285
X93.132Y-128.715
X103.215Y-147.368
X104.215Y-62.132
X110.785Y-147.368
X111.285Y-62.132
X122.215Y-147.368
X122.715Y-62.132
X129.785Y-62.132
X129.785Y-147.368
X141.215Y-62.132
X141.215Y-147.368
X148.285Y-62.132
X148.785Y-147.368
X159.715Y-62.132
X160.215Y-147.368
X166.785Y-62.132
X167.785Y-147.368
X178.215Y-62.132
X178.868Y-77.285
X178.868Y-88.715
X178.868Y-96.285
X178.868Y-107.715
X178.868Y-115.285
X178.868Y-126.715
X179.215Y-147.368
T0
M30
