G04 #@! TF.GenerationSoftware,KiCad,Pcbnew,5.1.5-52549c5~86~ubuntu18.04.1*
G04 #@! TF.CreationDate,2020-08-23T11:51:57-07:00*
G04 #@! TF.ProjectId,heat2sound_rx_rev01,68656174-3273-46f7-956e-645f72785f72,rev?*
G04 #@! TF.SameCoordinates,Original*
G04 #@! TF.FileFunction,Soldermask,Bot*
G04 #@! TF.FilePolarity,Negative*
%FSLAX46Y46*%
G04 Gerber Fmt 4.6, Leading zero omitted, Abs format (unit mm)*
G04 Created by KiCad (PCBNEW 5.1.5-52549c5~86~ubuntu18.04.1) date 2020-08-23 11:51:57*
%MOMM*%
%LPD*%
G04 APERTURE LIST*
%ADD10C,0.100000*%
G04 APERTURE END LIST*
D10*
G36*
X155002390Y-128729783D02*
G01*
X155152118Y-128759565D01*
X155268960Y-128807963D01*
X155434199Y-128876407D01*
X155434200Y-128876408D01*
X155688068Y-129046036D01*
X155903964Y-129261932D01*
X155903965Y-129261934D01*
X156073593Y-129515801D01*
X156142037Y-129681040D01*
X156190435Y-129797882D01*
X156250000Y-130097338D01*
X156250000Y-130402662D01*
X156190435Y-130702118D01*
X156154246Y-130789485D01*
X156073593Y-130984199D01*
X156053223Y-131014685D01*
X156048603Y-131023329D01*
X156045758Y-131032709D01*
X156044797Y-131042463D01*
X156045758Y-131052217D01*
X156048603Y-131061597D01*
X156053223Y-131070241D01*
X156059441Y-131077818D01*
X156067018Y-131084036D01*
X156075662Y-131088656D01*
X156085042Y-131091501D01*
X156094796Y-131092462D01*
X156104550Y-131091501D01*
X156113930Y-131088656D01*
X156122574Y-131084036D01*
X156130145Y-131077823D01*
X156161932Y-131046036D01*
X156415800Y-130876408D01*
X156415801Y-130876407D01*
X156581040Y-130807963D01*
X156697882Y-130759565D01*
X156847610Y-130729783D01*
X156997337Y-130700000D01*
X157302663Y-130700000D01*
X157452390Y-130729783D01*
X157602118Y-130759565D01*
X157718960Y-130807963D01*
X157884199Y-130876407D01*
X157884200Y-130876408D01*
X158138068Y-131046036D01*
X158353964Y-131261932D01*
X158393999Y-131321849D01*
X158523593Y-131515801D01*
X158568241Y-131623592D01*
X158616640Y-131740435D01*
X158640435Y-131797883D01*
X158700000Y-132097337D01*
X158700000Y-132402663D01*
X158640435Y-132702117D01*
X158523593Y-132984199D01*
X158523592Y-132984200D01*
X158353964Y-133238068D01*
X158138068Y-133453964D01*
X158010273Y-133539353D01*
X157884199Y-133623593D01*
X157718960Y-133692037D01*
X157602118Y-133740435D01*
X157452390Y-133770217D01*
X157302663Y-133800000D01*
X156997337Y-133800000D01*
X156847610Y-133770217D01*
X156697882Y-133740435D01*
X156581040Y-133692037D01*
X156415801Y-133623593D01*
X156289727Y-133539353D01*
X156161932Y-133453964D01*
X155946036Y-133238068D01*
X155776408Y-132984200D01*
X155776407Y-132984199D01*
X155659565Y-132702117D01*
X155600000Y-132402663D01*
X155600000Y-132097337D01*
X155659565Y-131797883D01*
X155683361Y-131740435D01*
X155731759Y-131623592D01*
X155776407Y-131515801D01*
X155796777Y-131485315D01*
X155801397Y-131476671D01*
X155804242Y-131467291D01*
X155805203Y-131457537D01*
X155804242Y-131447783D01*
X155801397Y-131438403D01*
X155796777Y-131429759D01*
X155790559Y-131422182D01*
X155782982Y-131415964D01*
X155774338Y-131411344D01*
X155764958Y-131408499D01*
X155755204Y-131407538D01*
X155745450Y-131408499D01*
X155736070Y-131411344D01*
X155727426Y-131415964D01*
X155719855Y-131422177D01*
X155688068Y-131453964D01*
X155613429Y-131503836D01*
X155434199Y-131623593D01*
X155268960Y-131692037D01*
X155152118Y-131740435D01*
X155002390Y-131770217D01*
X154852663Y-131800000D01*
X154547337Y-131800000D01*
X154397610Y-131770217D01*
X154247882Y-131740435D01*
X154131040Y-131692037D01*
X153965801Y-131623593D01*
X153786571Y-131503836D01*
X153711932Y-131453964D01*
X153496036Y-131238068D01*
X153367725Y-131046036D01*
X153326407Y-130984199D01*
X153245754Y-130789485D01*
X153209565Y-130702118D01*
X153150000Y-130402662D01*
X153150000Y-130097338D01*
X153209565Y-129797882D01*
X153257963Y-129681040D01*
X153326407Y-129515801D01*
X153496035Y-129261934D01*
X153496036Y-129261932D01*
X153711932Y-129046036D01*
X153965800Y-128876408D01*
X153965801Y-128876407D01*
X154131040Y-128807963D01*
X154247882Y-128759565D01*
X154397610Y-128729783D01*
X154547337Y-128700000D01*
X154852663Y-128700000D01*
X155002390Y-128729783D01*
G37*
G36*
X163052390Y-130729783D02*
G01*
X163202118Y-130759565D01*
X163318960Y-130807963D01*
X163484199Y-130876407D01*
X163484200Y-130876408D01*
X163738068Y-131046036D01*
X163953964Y-131261932D01*
X163993999Y-131321849D01*
X164123593Y-131515801D01*
X164168241Y-131623592D01*
X164216640Y-131740435D01*
X164240435Y-131797883D01*
X164300000Y-132097337D01*
X164300000Y-132402663D01*
X164240435Y-132702117D01*
X164123593Y-132984199D01*
X164123592Y-132984200D01*
X163953964Y-133238068D01*
X163738068Y-133453964D01*
X163610273Y-133539353D01*
X163484199Y-133623593D01*
X163318960Y-133692037D01*
X163202118Y-133740435D01*
X163052390Y-133770217D01*
X162902663Y-133800000D01*
X162597337Y-133800000D01*
X162447610Y-133770217D01*
X162297882Y-133740435D01*
X162181040Y-133692037D01*
X162015801Y-133623593D01*
X161889727Y-133539353D01*
X161761932Y-133453964D01*
X161546036Y-133238068D01*
X161376408Y-132984200D01*
X161376407Y-132984199D01*
X161259565Y-132702117D01*
X161200000Y-132402663D01*
X161200000Y-132097337D01*
X161259565Y-131797883D01*
X161283361Y-131740435D01*
X161331759Y-131623592D01*
X161376407Y-131515801D01*
X161506001Y-131321849D01*
X161546036Y-131261932D01*
X161761932Y-131046036D01*
X162015800Y-130876408D01*
X162015801Y-130876407D01*
X162181040Y-130807963D01*
X162297882Y-130759565D01*
X162447610Y-130729783D01*
X162597337Y-130700000D01*
X162902663Y-130700000D01*
X163052390Y-130729783D01*
G37*
G36*
X181793779Y-130351939D02*
G01*
X182039463Y-130453705D01*
X182039465Y-130453706D01*
X182260575Y-130601447D01*
X182448613Y-130789485D01*
X182578717Y-130984200D01*
X182596355Y-131010597D01*
X182698121Y-131256281D01*
X182750000Y-131517095D01*
X182750000Y-131783025D01*
X182698121Y-132043839D01*
X182596355Y-132289523D01*
X182596354Y-132289525D01*
X182448613Y-132510635D01*
X182260575Y-132698673D01*
X182039465Y-132846414D01*
X182039464Y-132846415D01*
X182039463Y-132846415D01*
X181793779Y-132948181D01*
X181532965Y-133000060D01*
X181267035Y-133000060D01*
X181006221Y-132948181D01*
X180760537Y-132846415D01*
X180760536Y-132846415D01*
X180760535Y-132846414D01*
X180539425Y-132698673D01*
X180351387Y-132510635D01*
X180203646Y-132289525D01*
X180203645Y-132289523D01*
X180101879Y-132043839D01*
X180050000Y-131783025D01*
X180050000Y-131517095D01*
X180101879Y-131256281D01*
X180203645Y-131010597D01*
X180221283Y-130984200D01*
X180351387Y-130789485D01*
X180539425Y-130601447D01*
X180760535Y-130453706D01*
X180760537Y-130453705D01*
X181006221Y-130351939D01*
X181267035Y-130300060D01*
X181532965Y-130300060D01*
X181793779Y-130351939D01*
G37*
G36*
X175695090Y-130049375D02*
G01*
X175791689Y-130068589D01*
X175973678Y-130143971D01*
X176137463Y-130253409D01*
X176276751Y-130392697D01*
X176386189Y-130556482D01*
X176461571Y-130738471D01*
X176500000Y-130931669D01*
X176500000Y-131128651D01*
X176461571Y-131321849D01*
X176386189Y-131503838D01*
X176276751Y-131667623D01*
X176137463Y-131806911D01*
X175973678Y-131916349D01*
X175791689Y-131991731D01*
X175695090Y-132010945D01*
X175598493Y-132030160D01*
X175401507Y-132030160D01*
X175304910Y-132010945D01*
X175208311Y-131991731D01*
X175026322Y-131916349D01*
X174862537Y-131806911D01*
X174723249Y-131667623D01*
X174613811Y-131503838D01*
X174538429Y-131321849D01*
X174500000Y-131128651D01*
X174500000Y-130931669D01*
X174538429Y-130738471D01*
X174613811Y-130556482D01*
X174723249Y-130392697D01*
X174862537Y-130253409D01*
X175026322Y-130143971D01*
X175208311Y-130068589D01*
X175304910Y-130049375D01*
X175401507Y-130030160D01*
X175598493Y-130030160D01*
X175695090Y-130049375D01*
G37*
G36*
X181793779Y-126851819D02*
G01*
X182039463Y-126953585D01*
X182039465Y-126953586D01*
X182260575Y-127101327D01*
X182448613Y-127289365D01*
X182448614Y-127289367D01*
X182596355Y-127510477D01*
X182698121Y-127756161D01*
X182750000Y-128016975D01*
X182750000Y-128282905D01*
X182698121Y-128543719D01*
X182633387Y-128700000D01*
X182596354Y-128789405D01*
X182448613Y-129010515D01*
X182260575Y-129198553D01*
X182039465Y-129346294D01*
X182039464Y-129346295D01*
X182039463Y-129346295D01*
X181793779Y-129448061D01*
X181532965Y-129499940D01*
X181267035Y-129499940D01*
X181006221Y-129448061D01*
X180760537Y-129346295D01*
X180760536Y-129346295D01*
X180760535Y-129346294D01*
X180539425Y-129198553D01*
X180351387Y-129010515D01*
X180203646Y-128789405D01*
X180166613Y-128700000D01*
X180101879Y-128543719D01*
X180050000Y-128282905D01*
X180050000Y-128016975D01*
X180101879Y-127756161D01*
X180203645Y-127510477D01*
X180351386Y-127289367D01*
X180351387Y-127289365D01*
X180539425Y-127101327D01*
X180760535Y-126953586D01*
X180760537Y-126953585D01*
X181006221Y-126851819D01*
X181267035Y-126799940D01*
X181532965Y-126799940D01*
X181793779Y-126851819D01*
G37*
G36*
X175695090Y-127509375D02*
G01*
X175791689Y-127528589D01*
X175973678Y-127603971D01*
X176137463Y-127713409D01*
X176276751Y-127852697D01*
X176386189Y-128016482D01*
X176461571Y-128198471D01*
X176500000Y-128391669D01*
X176500000Y-128588651D01*
X176461571Y-128781849D01*
X176386189Y-128963838D01*
X176276751Y-129127623D01*
X176137463Y-129266911D01*
X175973678Y-129376349D01*
X175791689Y-129451731D01*
X175695090Y-129470946D01*
X175598493Y-129490160D01*
X175401507Y-129490160D01*
X175304910Y-129470946D01*
X175208311Y-129451731D01*
X175026322Y-129376349D01*
X174862537Y-129266911D01*
X174723249Y-129127623D01*
X174613811Y-128963838D01*
X174538429Y-128781849D01*
X174500000Y-128588651D01*
X174500000Y-128391669D01*
X174538429Y-128198471D01*
X174613811Y-128016482D01*
X174723249Y-127852697D01*
X174862537Y-127713409D01*
X175026322Y-127603971D01*
X175208311Y-127528589D01*
X175304910Y-127509375D01*
X175401507Y-127490160D01*
X175598493Y-127490160D01*
X175695090Y-127509375D01*
G37*
G36*
X180425090Y-121539214D02*
G01*
X180521689Y-121558429D01*
X180703678Y-121633811D01*
X180867463Y-121743249D01*
X181006751Y-121882537D01*
X181116189Y-122046322D01*
X181191571Y-122228311D01*
X181230000Y-122421509D01*
X181230000Y-122618491D01*
X181191571Y-122811689D01*
X181116189Y-122993678D01*
X181006751Y-123157463D01*
X180867463Y-123296751D01*
X180703678Y-123406189D01*
X180521689Y-123481571D01*
X180425090Y-123500785D01*
X180328493Y-123520000D01*
X180131507Y-123520000D01*
X180034910Y-123500785D01*
X179938311Y-123481571D01*
X179756322Y-123406189D01*
X179592537Y-123296751D01*
X179453249Y-123157463D01*
X179343811Y-122993678D01*
X179268429Y-122811689D01*
X179230000Y-122618491D01*
X179230000Y-122421509D01*
X179268429Y-122228311D01*
X179343811Y-122046322D01*
X179453249Y-121882537D01*
X179592537Y-121743249D01*
X179756322Y-121633811D01*
X179938311Y-121558429D01*
X180034910Y-121539214D01*
X180131507Y-121520000D01*
X180328493Y-121520000D01*
X180425090Y-121539214D01*
G37*
G36*
X182965090Y-121539214D02*
G01*
X183061689Y-121558429D01*
X183243678Y-121633811D01*
X183407463Y-121743249D01*
X183546751Y-121882537D01*
X183656189Y-122046322D01*
X183731571Y-122228311D01*
X183770000Y-122421509D01*
X183770000Y-122618491D01*
X183731571Y-122811689D01*
X183656189Y-122993678D01*
X183546751Y-123157463D01*
X183407463Y-123296751D01*
X183243678Y-123406189D01*
X183061689Y-123481571D01*
X182965090Y-123500785D01*
X182868493Y-123520000D01*
X182671507Y-123520000D01*
X182574910Y-123500785D01*
X182478311Y-123481571D01*
X182296322Y-123406189D01*
X182132537Y-123296751D01*
X181993249Y-123157463D01*
X181883811Y-122993678D01*
X181808429Y-122811689D01*
X181770000Y-122618491D01*
X181770000Y-122421509D01*
X181808429Y-122228311D01*
X181883811Y-122046322D01*
X181993249Y-121882537D01*
X182132537Y-121743249D01*
X182296322Y-121633811D01*
X182478311Y-121558429D01*
X182574910Y-121539214D01*
X182671507Y-121520000D01*
X182868493Y-121520000D01*
X182965090Y-121539214D01*
G37*
G36*
X173664930Y-120019214D02*
G01*
X173761529Y-120038429D01*
X173943518Y-120113811D01*
X174107303Y-120223249D01*
X174246591Y-120362537D01*
X174356029Y-120526322D01*
X174431411Y-120708311D01*
X174450625Y-120804910D01*
X174469491Y-120899751D01*
X174469840Y-120901509D01*
X174469840Y-121098491D01*
X174431411Y-121291689D01*
X174356029Y-121473678D01*
X174246591Y-121637463D01*
X174107303Y-121776751D01*
X173943518Y-121886189D01*
X173761529Y-121961571D01*
X173664930Y-121980786D01*
X173568333Y-122000000D01*
X173371347Y-122000000D01*
X173274750Y-121980786D01*
X173178151Y-121961571D01*
X172996162Y-121886189D01*
X172832377Y-121776751D01*
X172693089Y-121637463D01*
X172583651Y-121473678D01*
X172508269Y-121291689D01*
X172469840Y-121098491D01*
X172469840Y-120901509D01*
X172470190Y-120899751D01*
X172489055Y-120804910D01*
X172508269Y-120708311D01*
X172583651Y-120526322D01*
X172693089Y-120362537D01*
X172832377Y-120223249D01*
X172996162Y-120113811D01*
X173178151Y-120038429D01*
X173274750Y-120019214D01*
X173371347Y-120000000D01*
X173568333Y-120000000D01*
X173664930Y-120019214D01*
G37*
G36*
X176204930Y-120019214D02*
G01*
X176301529Y-120038429D01*
X176483518Y-120113811D01*
X176647303Y-120223249D01*
X176786591Y-120362537D01*
X176896029Y-120526322D01*
X176971411Y-120708311D01*
X176990625Y-120804910D01*
X177009491Y-120899751D01*
X177009840Y-120901509D01*
X177009840Y-121098491D01*
X176971411Y-121291689D01*
X176896029Y-121473678D01*
X176786591Y-121637463D01*
X176647303Y-121776751D01*
X176483518Y-121886189D01*
X176301529Y-121961571D01*
X176204930Y-121980786D01*
X176108333Y-122000000D01*
X175911347Y-122000000D01*
X175814750Y-121980786D01*
X175718151Y-121961571D01*
X175536162Y-121886189D01*
X175372377Y-121776751D01*
X175233089Y-121637463D01*
X175123651Y-121473678D01*
X175048269Y-121291689D01*
X175009840Y-121098491D01*
X175009840Y-120901509D01*
X175010190Y-120899751D01*
X175029055Y-120804910D01*
X175048269Y-120708311D01*
X175123651Y-120526322D01*
X175233089Y-120362537D01*
X175372377Y-120223249D01*
X175536162Y-120113811D01*
X175718151Y-120038429D01*
X175814750Y-120019214D01*
X175911347Y-120000000D01*
X176108333Y-120000000D01*
X176204930Y-120019214D01*
G37*
G36*
X182822090Y-119142214D02*
G01*
X182918689Y-119161429D01*
X183100678Y-119236811D01*
X183264463Y-119346249D01*
X183403751Y-119485537D01*
X183513189Y-119649322D01*
X183588571Y-119831311D01*
X183588571Y-119831313D01*
X183627000Y-120024507D01*
X183627000Y-120221493D01*
X183617016Y-120271687D01*
X183588571Y-120414689D01*
X183513189Y-120596678D01*
X183403751Y-120760463D01*
X183264463Y-120899751D01*
X183100678Y-121009189D01*
X182918689Y-121084571D01*
X182822090Y-121103786D01*
X182725493Y-121123000D01*
X182528507Y-121123000D01*
X182431910Y-121103786D01*
X182335311Y-121084571D01*
X182153322Y-121009189D01*
X181989537Y-120899751D01*
X181850249Y-120760463D01*
X181740811Y-120596678D01*
X181665429Y-120414689D01*
X181636984Y-120271687D01*
X181627000Y-120221493D01*
X181627000Y-120024507D01*
X181665429Y-119831313D01*
X181665429Y-119831311D01*
X181740811Y-119649322D01*
X181850249Y-119485537D01*
X181989537Y-119346249D01*
X182153322Y-119236811D01*
X182335311Y-119161429D01*
X182431910Y-119142214D01*
X182528507Y-119123000D01*
X182725493Y-119123000D01*
X182822090Y-119142214D01*
G37*
G36*
X180425090Y-118999215D02*
G01*
X180521689Y-119018429D01*
X180703678Y-119093811D01*
X180867463Y-119203249D01*
X181006751Y-119342537D01*
X181116189Y-119506322D01*
X181191571Y-119688311D01*
X181230000Y-119881509D01*
X181230000Y-120078491D01*
X181191571Y-120271689D01*
X181116189Y-120453678D01*
X181006751Y-120617463D01*
X180867463Y-120756751D01*
X180703678Y-120866189D01*
X180521689Y-120941571D01*
X180425090Y-120960785D01*
X180328493Y-120980000D01*
X180131507Y-120980000D01*
X180034910Y-120960785D01*
X179938311Y-120941571D01*
X179756322Y-120866189D01*
X179592537Y-120756751D01*
X179453249Y-120617463D01*
X179343811Y-120453678D01*
X179268429Y-120271689D01*
X179230000Y-120078491D01*
X179230000Y-119881509D01*
X179268429Y-119688311D01*
X179343811Y-119506322D01*
X179453249Y-119342537D01*
X179592537Y-119203249D01*
X179756322Y-119093811D01*
X179938311Y-119018429D01*
X180034910Y-118999215D01*
X180131507Y-118980000D01*
X180328493Y-118980000D01*
X180425090Y-118999215D01*
G37*
G36*
X170905090Y-112769215D02*
G01*
X171001689Y-112788429D01*
X171183678Y-112863811D01*
X171347463Y-112973249D01*
X171486751Y-113112537D01*
X171596189Y-113276322D01*
X171671571Y-113458311D01*
X171710000Y-113651509D01*
X171710000Y-113848491D01*
X171671571Y-114041689D01*
X171596189Y-114223678D01*
X171486751Y-114387463D01*
X171347463Y-114526751D01*
X171183678Y-114636189D01*
X171001689Y-114711571D01*
X170905090Y-114730785D01*
X170808493Y-114750000D01*
X170611507Y-114750000D01*
X170514910Y-114730785D01*
X170418311Y-114711571D01*
X170236322Y-114636189D01*
X170072537Y-114526751D01*
X169933249Y-114387463D01*
X169823811Y-114223678D01*
X169748429Y-114041689D01*
X169710000Y-113848491D01*
X169710000Y-113651509D01*
X169748429Y-113458311D01*
X169823811Y-113276322D01*
X169933249Y-113112537D01*
X170072537Y-112973249D01*
X170236322Y-112863811D01*
X170418311Y-112788429D01*
X170514910Y-112769215D01*
X170611507Y-112750000D01*
X170808493Y-112750000D01*
X170905090Y-112769215D01*
G37*
G36*
X175985090Y-112769215D02*
G01*
X176081689Y-112788429D01*
X176263678Y-112863811D01*
X176427463Y-112973249D01*
X176566751Y-113112537D01*
X176676189Y-113276322D01*
X176751571Y-113458311D01*
X176790000Y-113651509D01*
X176790000Y-113848491D01*
X176751571Y-114041689D01*
X176676189Y-114223678D01*
X176566751Y-114387463D01*
X176427463Y-114526751D01*
X176263678Y-114636189D01*
X176081689Y-114711571D01*
X175985090Y-114730785D01*
X175888493Y-114750000D01*
X175691507Y-114750000D01*
X175594910Y-114730785D01*
X175498311Y-114711571D01*
X175316322Y-114636189D01*
X175152537Y-114526751D01*
X175013249Y-114387463D01*
X174903811Y-114223678D01*
X174828429Y-114041689D01*
X174790000Y-113848491D01*
X174790000Y-113651509D01*
X174828429Y-113458311D01*
X174903811Y-113276322D01*
X175013249Y-113112537D01*
X175152537Y-112973249D01*
X175316322Y-112863811D01*
X175498311Y-112788429D01*
X175594910Y-112769215D01*
X175691507Y-112750000D01*
X175888493Y-112750000D01*
X175985090Y-112769215D01*
G37*
G36*
X173445090Y-112769215D02*
G01*
X173541689Y-112788429D01*
X173723678Y-112863811D01*
X173887463Y-112973249D01*
X174026751Y-113112537D01*
X174136189Y-113276322D01*
X174211571Y-113458311D01*
X174250000Y-113651509D01*
X174250000Y-113848491D01*
X174211571Y-114041689D01*
X174136189Y-114223678D01*
X174026751Y-114387463D01*
X173887463Y-114526751D01*
X173723678Y-114636189D01*
X173541689Y-114711571D01*
X173445090Y-114730785D01*
X173348493Y-114750000D01*
X173151507Y-114750000D01*
X173054910Y-114730785D01*
X172958311Y-114711571D01*
X172776322Y-114636189D01*
X172612537Y-114526751D01*
X172473249Y-114387463D01*
X172363811Y-114223678D01*
X172288429Y-114041689D01*
X172250000Y-113848491D01*
X172250000Y-113651509D01*
X172288429Y-113458311D01*
X172363811Y-113276322D01*
X172473249Y-113112537D01*
X172612537Y-112973249D01*
X172776322Y-112863811D01*
X172958311Y-112788429D01*
X173054910Y-112769215D01*
X173151507Y-112750000D01*
X173348493Y-112750000D01*
X173445090Y-112769215D01*
G37*
G36*
X156820588Y-107692762D02*
G01*
X157020682Y-107775644D01*
X157020684Y-107775645D01*
X157200764Y-107895970D01*
X157353910Y-108049116D01*
X157474235Y-108229196D01*
X157474236Y-108229198D01*
X157557118Y-108429292D01*
X157599370Y-108641708D01*
X157599370Y-108858292D01*
X157557118Y-109070708D01*
X157474236Y-109270802D01*
X157474235Y-109270804D01*
X157353910Y-109450884D01*
X157200764Y-109604030D01*
X157020684Y-109724355D01*
X157020683Y-109724356D01*
X157020682Y-109724356D01*
X156820588Y-109807238D01*
X156608172Y-109849490D01*
X156391588Y-109849490D01*
X156179172Y-109807238D01*
X155979078Y-109724356D01*
X155979077Y-109724356D01*
X155979076Y-109724355D01*
X155798996Y-109604030D01*
X155645850Y-109450884D01*
X155525525Y-109270804D01*
X155525524Y-109270802D01*
X155442642Y-109070708D01*
X155400390Y-108858292D01*
X155400390Y-108641708D01*
X155442642Y-108429292D01*
X155525524Y-108229198D01*
X155525525Y-108229196D01*
X155645850Y-108049116D01*
X155798996Y-107895970D01*
X155979076Y-107775645D01*
X155979078Y-107775644D01*
X156179172Y-107692762D01*
X156391588Y-107650510D01*
X156608172Y-107650510D01*
X156820588Y-107692762D01*
G37*
G36*
X161321468Y-107692762D02*
G01*
X161521562Y-107775644D01*
X161521564Y-107775645D01*
X161701644Y-107895970D01*
X161854790Y-108049116D01*
X161975115Y-108229196D01*
X161975116Y-108229198D01*
X162057998Y-108429292D01*
X162100250Y-108641708D01*
X162100250Y-108858292D01*
X162057998Y-109070708D01*
X161975116Y-109270802D01*
X161975115Y-109270804D01*
X161854790Y-109450884D01*
X161701644Y-109604030D01*
X161521564Y-109724355D01*
X161521563Y-109724356D01*
X161521562Y-109724356D01*
X161321468Y-109807238D01*
X161109052Y-109849490D01*
X160892468Y-109849490D01*
X160680052Y-109807238D01*
X160479958Y-109724356D01*
X160479957Y-109724356D01*
X160479956Y-109724355D01*
X160299876Y-109604030D01*
X160146730Y-109450884D01*
X160026405Y-109270804D01*
X160026404Y-109270802D01*
X159943522Y-109070708D01*
X159901270Y-108858292D01*
X159901270Y-108641708D01*
X159943522Y-108429292D01*
X160026404Y-108229198D01*
X160026405Y-108229196D01*
X160146730Y-108049116D01*
X160299876Y-107895970D01*
X160479956Y-107775645D01*
X160479958Y-107775644D01*
X160680052Y-107692762D01*
X160892468Y-107650510D01*
X161109052Y-107650510D01*
X161321468Y-107692762D01*
G37*
G36*
X181893779Y-105201939D02*
G01*
X182139463Y-105303705D01*
X182139465Y-105303706D01*
X182360575Y-105451447D01*
X182548613Y-105639485D01*
X182548614Y-105639487D01*
X182696355Y-105860597D01*
X182798121Y-106106281D01*
X182850000Y-106367095D01*
X182850000Y-106633025D01*
X182798121Y-106893839D01*
X182696355Y-107139523D01*
X182696354Y-107139525D01*
X182548613Y-107360635D01*
X182360575Y-107548673D01*
X182139465Y-107696414D01*
X182139464Y-107696415D01*
X182139463Y-107696415D01*
X181893779Y-107798181D01*
X181632965Y-107850060D01*
X181367035Y-107850060D01*
X181106221Y-107798181D01*
X180860537Y-107696415D01*
X180860536Y-107696415D01*
X180860535Y-107696414D01*
X180639425Y-107548673D01*
X180451387Y-107360635D01*
X180303646Y-107139525D01*
X180303645Y-107139523D01*
X180201879Y-106893839D01*
X180150000Y-106633025D01*
X180150000Y-106367095D01*
X180201879Y-106106281D01*
X180303645Y-105860597D01*
X180451386Y-105639487D01*
X180451387Y-105639485D01*
X180639425Y-105451447D01*
X180860535Y-105303706D01*
X180860537Y-105303705D01*
X181106221Y-105201939D01*
X181367035Y-105150060D01*
X181632965Y-105150060D01*
X181893779Y-105201939D01*
G37*
G36*
X181893779Y-101701819D02*
G01*
X182139463Y-101803585D01*
X182139465Y-101803586D01*
X182360575Y-101951327D01*
X182548613Y-102139365D01*
X182548614Y-102139367D01*
X182696355Y-102360477D01*
X182798121Y-102606161D01*
X182850000Y-102866975D01*
X182850000Y-103132905D01*
X182798121Y-103393719D01*
X182696355Y-103639403D01*
X182696354Y-103639405D01*
X182548613Y-103860515D01*
X182360575Y-104048553D01*
X182139465Y-104196294D01*
X182139464Y-104196295D01*
X182139463Y-104196295D01*
X181893779Y-104298061D01*
X181632965Y-104349940D01*
X181367035Y-104349940D01*
X181106221Y-104298061D01*
X180860537Y-104196295D01*
X180860536Y-104196295D01*
X180860535Y-104196294D01*
X180639425Y-104048553D01*
X180451387Y-103860515D01*
X180303646Y-103639405D01*
X180303645Y-103639403D01*
X180201879Y-103393719D01*
X180150000Y-103132905D01*
X180150000Y-102866975D01*
X180201879Y-102606161D01*
X180303645Y-102360477D01*
X180451386Y-102139367D01*
X180451387Y-102139365D01*
X180639425Y-101951327D01*
X180860535Y-101803586D01*
X180860537Y-101803585D01*
X181106221Y-101701819D01*
X181367035Y-101649940D01*
X181632965Y-101649940D01*
X181893779Y-101701819D01*
G37*
M02*
