G04 #@! TF.GenerationSoftware,KiCad,Pcbnew,5.1.5-52549c5~86~ubuntu18.04.1*
G04 #@! TF.CreationDate,2020-08-23T11:51:57-07:00*
G04 #@! TF.ProjectId,heat2sound_rx_rev01,68656174-3273-46f7-956e-645f72785f72,rev?*
G04 #@! TF.SameCoordinates,Original*
G04 #@! TF.FileFunction,Copper,L1,Top*
G04 #@! TF.FilePolarity,Positive*
%FSLAX46Y46*%
G04 Gerber Fmt 4.6, Leading zero omitted, Abs format (unit mm)*
G04 Created by KiCad (PCBNEW 5.1.5-52549c5~86~ubuntu18.04.1) date 2020-08-23 11:51:57*
%MOMM*%
%LPD*%
G04 APERTURE LIST*
%ADD10C,1.800000*%
%ADD11C,2.900000*%
%ADD12R,0.900000X1.000000*%
%ADD13R,0.899160X1.000760*%
%ADD14R,1.000760X0.899160*%
%ADD15R,1.000000X0.900000*%
%ADD16C,1.998980*%
%ADD17R,1.998980X1.998980*%
%ADD18C,2.500000*%
%ADD19R,1.550000X0.600000*%
%ADD20C,0.100000*%
%ADD21C,0.889000*%
%ADD22C,0.508000*%
%ADD23C,0.254000*%
%ADD24C,1.270000*%
%ADD25C,0.762000*%
%ADD26C,1.016000*%
G04 APERTURE END LIST*
D10*
X176009840Y-121000000D03*
X173469840Y-121000000D03*
X175500000Y-128490160D03*
X175500000Y-131030160D03*
D11*
X162750000Y-132250000D03*
X157150000Y-132250000D03*
X154700000Y-130250000D03*
D12*
X166828160Y-118700000D03*
D13*
X168331840Y-118700000D03*
D14*
X170250000Y-124498160D03*
D15*
X170250000Y-126001840D03*
D14*
X170430000Y-133670000D03*
D15*
X170430000Y-132166320D03*
X176170000Y-107541840D03*
D14*
X176170000Y-106038160D03*
D13*
X182050000Y-113690000D03*
D12*
X183553680Y-113690000D03*
X178218160Y-113560000D03*
D13*
X179721840Y-113560000D03*
X176313680Y-109700000D03*
X174810000Y-109700000D03*
X174750000Y-102250000D03*
X176253680Y-102250000D03*
D16*
X161000760Y-108750000D03*
D17*
X156499880Y-103339800D03*
X162600960Y-103339800D03*
X156499880Y-114165280D03*
X162600960Y-114165280D03*
D16*
X156499880Y-108750000D03*
D10*
X175790000Y-113750000D03*
X173250000Y-113750000D03*
X170710000Y-113750000D03*
D18*
X181400000Y-128149940D03*
X181400000Y-131650060D03*
X181500000Y-102999940D03*
X181500000Y-106500060D03*
D13*
X155921840Y-123430000D03*
X154418160Y-123430000D03*
D14*
X155000000Y-121001840D03*
X155000000Y-119498160D03*
D13*
X168001840Y-124750000D03*
X166498160Y-124750000D03*
X169253680Y-122250000D03*
X167750000Y-122250000D03*
D14*
X172500000Y-127000000D03*
X172500000Y-125496320D03*
D13*
X168690000Y-128750000D03*
X170193680Y-128750000D03*
D19*
X158300000Y-119845000D03*
X158300000Y-121115000D03*
X158300000Y-122385000D03*
X158300000Y-123655000D03*
X163700000Y-123655000D03*
X163700000Y-122385000D03*
X163700000Y-121115000D03*
X163700000Y-119845000D03*
G04 #@! TA.AperFunction,SMDPad,CuDef*
D20*
G36*
X170147252Y-105425602D02*
G01*
X170159386Y-105427402D01*
X170171286Y-105430382D01*
X170182835Y-105434515D01*
X170193925Y-105439760D01*
X170204446Y-105446066D01*
X170214299Y-105453374D01*
X170223388Y-105461612D01*
X170231626Y-105470701D01*
X170238934Y-105480554D01*
X170245240Y-105491075D01*
X170250485Y-105502165D01*
X170254618Y-105513714D01*
X170257598Y-105525614D01*
X170259398Y-105537748D01*
X170260000Y-105550000D01*
X170260000Y-105800000D01*
X170259398Y-105812252D01*
X170257598Y-105824386D01*
X170254618Y-105836286D01*
X170250485Y-105847835D01*
X170245240Y-105858925D01*
X170238934Y-105869446D01*
X170231626Y-105879299D01*
X170223388Y-105888388D01*
X170214299Y-105896626D01*
X170204446Y-105903934D01*
X170193925Y-105910240D01*
X170182835Y-105915485D01*
X170171286Y-105919618D01*
X170159386Y-105922598D01*
X170147252Y-105924398D01*
X170135000Y-105925000D01*
X168760000Y-105925000D01*
X168747748Y-105924398D01*
X168735614Y-105922598D01*
X168723714Y-105919618D01*
X168712165Y-105915485D01*
X168701075Y-105910240D01*
X168690554Y-105903934D01*
X168680701Y-105896626D01*
X168671612Y-105888388D01*
X168663374Y-105879299D01*
X168656066Y-105869446D01*
X168649760Y-105858925D01*
X168644515Y-105847835D01*
X168640382Y-105836286D01*
X168637402Y-105824386D01*
X168635602Y-105812252D01*
X168635000Y-105800000D01*
X168635000Y-105550000D01*
X168635602Y-105537748D01*
X168637402Y-105525614D01*
X168640382Y-105513714D01*
X168644515Y-105502165D01*
X168649760Y-105491075D01*
X168656066Y-105480554D01*
X168663374Y-105470701D01*
X168671612Y-105461612D01*
X168680701Y-105453374D01*
X168690554Y-105446066D01*
X168701075Y-105439760D01*
X168712165Y-105434515D01*
X168723714Y-105430382D01*
X168735614Y-105427402D01*
X168747748Y-105425602D01*
X168760000Y-105425000D01*
X170135000Y-105425000D01*
X170147252Y-105425602D01*
G37*
G04 #@! TD.AperFunction*
G04 #@! TA.AperFunction,SMDPad,CuDef*
G36*
X170147252Y-106075602D02*
G01*
X170159386Y-106077402D01*
X170171286Y-106080382D01*
X170182835Y-106084515D01*
X170193925Y-106089760D01*
X170204446Y-106096066D01*
X170214299Y-106103374D01*
X170223388Y-106111612D01*
X170231626Y-106120701D01*
X170238934Y-106130554D01*
X170245240Y-106141075D01*
X170250485Y-106152165D01*
X170254618Y-106163714D01*
X170257598Y-106175614D01*
X170259398Y-106187748D01*
X170260000Y-106200000D01*
X170260000Y-106450000D01*
X170259398Y-106462252D01*
X170257598Y-106474386D01*
X170254618Y-106486286D01*
X170250485Y-106497835D01*
X170245240Y-106508925D01*
X170238934Y-106519446D01*
X170231626Y-106529299D01*
X170223388Y-106538388D01*
X170214299Y-106546626D01*
X170204446Y-106553934D01*
X170193925Y-106560240D01*
X170182835Y-106565485D01*
X170171286Y-106569618D01*
X170159386Y-106572598D01*
X170147252Y-106574398D01*
X170135000Y-106575000D01*
X168760000Y-106575000D01*
X168747748Y-106574398D01*
X168735614Y-106572598D01*
X168723714Y-106569618D01*
X168712165Y-106565485D01*
X168701075Y-106560240D01*
X168690554Y-106553934D01*
X168680701Y-106546626D01*
X168671612Y-106538388D01*
X168663374Y-106529299D01*
X168656066Y-106519446D01*
X168649760Y-106508925D01*
X168644515Y-106497835D01*
X168640382Y-106486286D01*
X168637402Y-106474386D01*
X168635602Y-106462252D01*
X168635000Y-106450000D01*
X168635000Y-106200000D01*
X168635602Y-106187748D01*
X168637402Y-106175614D01*
X168640382Y-106163714D01*
X168644515Y-106152165D01*
X168649760Y-106141075D01*
X168656066Y-106130554D01*
X168663374Y-106120701D01*
X168671612Y-106111612D01*
X168680701Y-106103374D01*
X168690554Y-106096066D01*
X168701075Y-106089760D01*
X168712165Y-106084515D01*
X168723714Y-106080382D01*
X168735614Y-106077402D01*
X168747748Y-106075602D01*
X168760000Y-106075000D01*
X170135000Y-106075000D01*
X170147252Y-106075602D01*
G37*
G04 #@! TD.AperFunction*
G04 #@! TA.AperFunction,SMDPad,CuDef*
G36*
X170147252Y-106725602D02*
G01*
X170159386Y-106727402D01*
X170171286Y-106730382D01*
X170182835Y-106734515D01*
X170193925Y-106739760D01*
X170204446Y-106746066D01*
X170214299Y-106753374D01*
X170223388Y-106761612D01*
X170231626Y-106770701D01*
X170238934Y-106780554D01*
X170245240Y-106791075D01*
X170250485Y-106802165D01*
X170254618Y-106813714D01*
X170257598Y-106825614D01*
X170259398Y-106837748D01*
X170260000Y-106850000D01*
X170260000Y-107100000D01*
X170259398Y-107112252D01*
X170257598Y-107124386D01*
X170254618Y-107136286D01*
X170250485Y-107147835D01*
X170245240Y-107158925D01*
X170238934Y-107169446D01*
X170231626Y-107179299D01*
X170223388Y-107188388D01*
X170214299Y-107196626D01*
X170204446Y-107203934D01*
X170193925Y-107210240D01*
X170182835Y-107215485D01*
X170171286Y-107219618D01*
X170159386Y-107222598D01*
X170147252Y-107224398D01*
X170135000Y-107225000D01*
X168760000Y-107225000D01*
X168747748Y-107224398D01*
X168735614Y-107222598D01*
X168723714Y-107219618D01*
X168712165Y-107215485D01*
X168701075Y-107210240D01*
X168690554Y-107203934D01*
X168680701Y-107196626D01*
X168671612Y-107188388D01*
X168663374Y-107179299D01*
X168656066Y-107169446D01*
X168649760Y-107158925D01*
X168644515Y-107147835D01*
X168640382Y-107136286D01*
X168637402Y-107124386D01*
X168635602Y-107112252D01*
X168635000Y-107100000D01*
X168635000Y-106850000D01*
X168635602Y-106837748D01*
X168637402Y-106825614D01*
X168640382Y-106813714D01*
X168644515Y-106802165D01*
X168649760Y-106791075D01*
X168656066Y-106780554D01*
X168663374Y-106770701D01*
X168671612Y-106761612D01*
X168680701Y-106753374D01*
X168690554Y-106746066D01*
X168701075Y-106739760D01*
X168712165Y-106734515D01*
X168723714Y-106730382D01*
X168735614Y-106727402D01*
X168747748Y-106725602D01*
X168760000Y-106725000D01*
X170135000Y-106725000D01*
X170147252Y-106725602D01*
G37*
G04 #@! TD.AperFunction*
G04 #@! TA.AperFunction,SMDPad,CuDef*
G36*
X170147252Y-107375602D02*
G01*
X170159386Y-107377402D01*
X170171286Y-107380382D01*
X170182835Y-107384515D01*
X170193925Y-107389760D01*
X170204446Y-107396066D01*
X170214299Y-107403374D01*
X170223388Y-107411612D01*
X170231626Y-107420701D01*
X170238934Y-107430554D01*
X170245240Y-107441075D01*
X170250485Y-107452165D01*
X170254618Y-107463714D01*
X170257598Y-107475614D01*
X170259398Y-107487748D01*
X170260000Y-107500000D01*
X170260000Y-107750000D01*
X170259398Y-107762252D01*
X170257598Y-107774386D01*
X170254618Y-107786286D01*
X170250485Y-107797835D01*
X170245240Y-107808925D01*
X170238934Y-107819446D01*
X170231626Y-107829299D01*
X170223388Y-107838388D01*
X170214299Y-107846626D01*
X170204446Y-107853934D01*
X170193925Y-107860240D01*
X170182835Y-107865485D01*
X170171286Y-107869618D01*
X170159386Y-107872598D01*
X170147252Y-107874398D01*
X170135000Y-107875000D01*
X168760000Y-107875000D01*
X168747748Y-107874398D01*
X168735614Y-107872598D01*
X168723714Y-107869618D01*
X168712165Y-107865485D01*
X168701075Y-107860240D01*
X168690554Y-107853934D01*
X168680701Y-107846626D01*
X168671612Y-107838388D01*
X168663374Y-107829299D01*
X168656066Y-107819446D01*
X168649760Y-107808925D01*
X168644515Y-107797835D01*
X168640382Y-107786286D01*
X168637402Y-107774386D01*
X168635602Y-107762252D01*
X168635000Y-107750000D01*
X168635000Y-107500000D01*
X168635602Y-107487748D01*
X168637402Y-107475614D01*
X168640382Y-107463714D01*
X168644515Y-107452165D01*
X168649760Y-107441075D01*
X168656066Y-107430554D01*
X168663374Y-107420701D01*
X168671612Y-107411612D01*
X168680701Y-107403374D01*
X168690554Y-107396066D01*
X168701075Y-107389760D01*
X168712165Y-107384515D01*
X168723714Y-107380382D01*
X168735614Y-107377402D01*
X168747748Y-107375602D01*
X168760000Y-107375000D01*
X170135000Y-107375000D01*
X170147252Y-107375602D01*
G37*
G04 #@! TD.AperFunction*
G04 #@! TA.AperFunction,SMDPad,CuDef*
G36*
X174372252Y-107375602D02*
G01*
X174384386Y-107377402D01*
X174396286Y-107380382D01*
X174407835Y-107384515D01*
X174418925Y-107389760D01*
X174429446Y-107396066D01*
X174439299Y-107403374D01*
X174448388Y-107411612D01*
X174456626Y-107420701D01*
X174463934Y-107430554D01*
X174470240Y-107441075D01*
X174475485Y-107452165D01*
X174479618Y-107463714D01*
X174482598Y-107475614D01*
X174484398Y-107487748D01*
X174485000Y-107500000D01*
X174485000Y-107750000D01*
X174484398Y-107762252D01*
X174482598Y-107774386D01*
X174479618Y-107786286D01*
X174475485Y-107797835D01*
X174470240Y-107808925D01*
X174463934Y-107819446D01*
X174456626Y-107829299D01*
X174448388Y-107838388D01*
X174439299Y-107846626D01*
X174429446Y-107853934D01*
X174418925Y-107860240D01*
X174407835Y-107865485D01*
X174396286Y-107869618D01*
X174384386Y-107872598D01*
X174372252Y-107874398D01*
X174360000Y-107875000D01*
X172985000Y-107875000D01*
X172972748Y-107874398D01*
X172960614Y-107872598D01*
X172948714Y-107869618D01*
X172937165Y-107865485D01*
X172926075Y-107860240D01*
X172915554Y-107853934D01*
X172905701Y-107846626D01*
X172896612Y-107838388D01*
X172888374Y-107829299D01*
X172881066Y-107819446D01*
X172874760Y-107808925D01*
X172869515Y-107797835D01*
X172865382Y-107786286D01*
X172862402Y-107774386D01*
X172860602Y-107762252D01*
X172860000Y-107750000D01*
X172860000Y-107500000D01*
X172860602Y-107487748D01*
X172862402Y-107475614D01*
X172865382Y-107463714D01*
X172869515Y-107452165D01*
X172874760Y-107441075D01*
X172881066Y-107430554D01*
X172888374Y-107420701D01*
X172896612Y-107411612D01*
X172905701Y-107403374D01*
X172915554Y-107396066D01*
X172926075Y-107389760D01*
X172937165Y-107384515D01*
X172948714Y-107380382D01*
X172960614Y-107377402D01*
X172972748Y-107375602D01*
X172985000Y-107375000D01*
X174360000Y-107375000D01*
X174372252Y-107375602D01*
G37*
G04 #@! TD.AperFunction*
G04 #@! TA.AperFunction,SMDPad,CuDef*
G36*
X174372252Y-106725602D02*
G01*
X174384386Y-106727402D01*
X174396286Y-106730382D01*
X174407835Y-106734515D01*
X174418925Y-106739760D01*
X174429446Y-106746066D01*
X174439299Y-106753374D01*
X174448388Y-106761612D01*
X174456626Y-106770701D01*
X174463934Y-106780554D01*
X174470240Y-106791075D01*
X174475485Y-106802165D01*
X174479618Y-106813714D01*
X174482598Y-106825614D01*
X174484398Y-106837748D01*
X174485000Y-106850000D01*
X174485000Y-107100000D01*
X174484398Y-107112252D01*
X174482598Y-107124386D01*
X174479618Y-107136286D01*
X174475485Y-107147835D01*
X174470240Y-107158925D01*
X174463934Y-107169446D01*
X174456626Y-107179299D01*
X174448388Y-107188388D01*
X174439299Y-107196626D01*
X174429446Y-107203934D01*
X174418925Y-107210240D01*
X174407835Y-107215485D01*
X174396286Y-107219618D01*
X174384386Y-107222598D01*
X174372252Y-107224398D01*
X174360000Y-107225000D01*
X172985000Y-107225000D01*
X172972748Y-107224398D01*
X172960614Y-107222598D01*
X172948714Y-107219618D01*
X172937165Y-107215485D01*
X172926075Y-107210240D01*
X172915554Y-107203934D01*
X172905701Y-107196626D01*
X172896612Y-107188388D01*
X172888374Y-107179299D01*
X172881066Y-107169446D01*
X172874760Y-107158925D01*
X172869515Y-107147835D01*
X172865382Y-107136286D01*
X172862402Y-107124386D01*
X172860602Y-107112252D01*
X172860000Y-107100000D01*
X172860000Y-106850000D01*
X172860602Y-106837748D01*
X172862402Y-106825614D01*
X172865382Y-106813714D01*
X172869515Y-106802165D01*
X172874760Y-106791075D01*
X172881066Y-106780554D01*
X172888374Y-106770701D01*
X172896612Y-106761612D01*
X172905701Y-106753374D01*
X172915554Y-106746066D01*
X172926075Y-106739760D01*
X172937165Y-106734515D01*
X172948714Y-106730382D01*
X172960614Y-106727402D01*
X172972748Y-106725602D01*
X172985000Y-106725000D01*
X174360000Y-106725000D01*
X174372252Y-106725602D01*
G37*
G04 #@! TD.AperFunction*
G04 #@! TA.AperFunction,SMDPad,CuDef*
G36*
X174372252Y-106075602D02*
G01*
X174384386Y-106077402D01*
X174396286Y-106080382D01*
X174407835Y-106084515D01*
X174418925Y-106089760D01*
X174429446Y-106096066D01*
X174439299Y-106103374D01*
X174448388Y-106111612D01*
X174456626Y-106120701D01*
X174463934Y-106130554D01*
X174470240Y-106141075D01*
X174475485Y-106152165D01*
X174479618Y-106163714D01*
X174482598Y-106175614D01*
X174484398Y-106187748D01*
X174485000Y-106200000D01*
X174485000Y-106450000D01*
X174484398Y-106462252D01*
X174482598Y-106474386D01*
X174479618Y-106486286D01*
X174475485Y-106497835D01*
X174470240Y-106508925D01*
X174463934Y-106519446D01*
X174456626Y-106529299D01*
X174448388Y-106538388D01*
X174439299Y-106546626D01*
X174429446Y-106553934D01*
X174418925Y-106560240D01*
X174407835Y-106565485D01*
X174396286Y-106569618D01*
X174384386Y-106572598D01*
X174372252Y-106574398D01*
X174360000Y-106575000D01*
X172985000Y-106575000D01*
X172972748Y-106574398D01*
X172960614Y-106572598D01*
X172948714Y-106569618D01*
X172937165Y-106565485D01*
X172926075Y-106560240D01*
X172915554Y-106553934D01*
X172905701Y-106546626D01*
X172896612Y-106538388D01*
X172888374Y-106529299D01*
X172881066Y-106519446D01*
X172874760Y-106508925D01*
X172869515Y-106497835D01*
X172865382Y-106486286D01*
X172862402Y-106474386D01*
X172860602Y-106462252D01*
X172860000Y-106450000D01*
X172860000Y-106200000D01*
X172860602Y-106187748D01*
X172862402Y-106175614D01*
X172865382Y-106163714D01*
X172869515Y-106152165D01*
X172874760Y-106141075D01*
X172881066Y-106130554D01*
X172888374Y-106120701D01*
X172896612Y-106111612D01*
X172905701Y-106103374D01*
X172915554Y-106096066D01*
X172926075Y-106089760D01*
X172937165Y-106084515D01*
X172948714Y-106080382D01*
X172960614Y-106077402D01*
X172972748Y-106075602D01*
X172985000Y-106075000D01*
X174360000Y-106075000D01*
X174372252Y-106075602D01*
G37*
G04 #@! TD.AperFunction*
G04 #@! TA.AperFunction,SMDPad,CuDef*
G36*
X174372252Y-105425602D02*
G01*
X174384386Y-105427402D01*
X174396286Y-105430382D01*
X174407835Y-105434515D01*
X174418925Y-105439760D01*
X174429446Y-105446066D01*
X174439299Y-105453374D01*
X174448388Y-105461612D01*
X174456626Y-105470701D01*
X174463934Y-105480554D01*
X174470240Y-105491075D01*
X174475485Y-105502165D01*
X174479618Y-105513714D01*
X174482598Y-105525614D01*
X174484398Y-105537748D01*
X174485000Y-105550000D01*
X174485000Y-105800000D01*
X174484398Y-105812252D01*
X174482598Y-105824386D01*
X174479618Y-105836286D01*
X174475485Y-105847835D01*
X174470240Y-105858925D01*
X174463934Y-105869446D01*
X174456626Y-105879299D01*
X174448388Y-105888388D01*
X174439299Y-105896626D01*
X174429446Y-105903934D01*
X174418925Y-105910240D01*
X174407835Y-105915485D01*
X174396286Y-105919618D01*
X174384386Y-105922598D01*
X174372252Y-105924398D01*
X174360000Y-105925000D01*
X172985000Y-105925000D01*
X172972748Y-105924398D01*
X172960614Y-105922598D01*
X172948714Y-105919618D01*
X172937165Y-105915485D01*
X172926075Y-105910240D01*
X172915554Y-105903934D01*
X172905701Y-105896626D01*
X172896612Y-105888388D01*
X172888374Y-105879299D01*
X172881066Y-105869446D01*
X172874760Y-105858925D01*
X172869515Y-105847835D01*
X172865382Y-105836286D01*
X172862402Y-105824386D01*
X172860602Y-105812252D01*
X172860000Y-105800000D01*
X172860000Y-105550000D01*
X172860602Y-105537748D01*
X172862402Y-105525614D01*
X172865382Y-105513714D01*
X172869515Y-105502165D01*
X172874760Y-105491075D01*
X172881066Y-105480554D01*
X172888374Y-105470701D01*
X172896612Y-105461612D01*
X172905701Y-105453374D01*
X172915554Y-105446066D01*
X172926075Y-105439760D01*
X172937165Y-105434515D01*
X172948714Y-105430382D01*
X172960614Y-105427402D01*
X172972748Y-105425602D01*
X172985000Y-105425000D01*
X174360000Y-105425000D01*
X174372252Y-105425602D01*
G37*
G04 #@! TD.AperFunction*
D10*
X182770000Y-122520000D03*
X180230000Y-122520000D03*
X180230000Y-119980000D03*
X182627000Y-120123000D03*
D21*
X156760000Y-125130000D03*
X169270000Y-109100000D03*
X171610000Y-106690000D03*
X164390000Y-116630000D03*
X156510000Y-116840000D03*
X183730000Y-116160000D03*
X162890000Y-126800000D03*
X166313271Y-122339689D03*
X168650000Y-134660000D03*
X172200000Y-131500000D03*
X173770000Y-125290000D03*
X179080000Y-110920000D03*
X160007500Y-122070000D03*
X168670000Y-126730000D03*
X169840000Y-118580000D03*
D22*
X155921840Y-123430000D02*
X155921840Y-123581840D01*
X155921840Y-123581840D02*
X156430000Y-124090000D01*
X156430000Y-124090000D02*
X157720000Y-124090000D01*
X158155000Y-123655000D02*
X157720000Y-124090000D01*
X158300000Y-123655000D02*
X158155000Y-123655000D01*
X155921840Y-123430000D02*
X155921840Y-124291840D01*
X155921840Y-124291840D02*
X156760000Y-125130000D01*
D23*
X169447500Y-107625000D02*
X169447500Y-108922500D01*
X169447500Y-108922500D02*
X169270000Y-109100000D01*
X173672500Y-106325000D02*
X171975000Y-106325000D01*
X171975000Y-106325000D02*
X171610000Y-106690000D01*
X175415620Y-106038160D02*
X176170000Y-106038160D01*
X175147770Y-106306010D02*
X175415620Y-106038160D01*
X174213990Y-106306010D02*
X175147770Y-106306010D01*
X174195000Y-106325000D02*
X174213990Y-106306010D01*
X173672500Y-106325000D02*
X174195000Y-106325000D01*
D24*
X182627000Y-118157000D02*
X181380000Y-116910000D01*
X181380000Y-116910000D02*
X174970000Y-116910000D01*
X174970000Y-116910000D02*
X173480000Y-118400000D01*
D22*
X167270220Y-116630000D02*
X164390000Y-116630000D01*
X168331840Y-118700000D02*
X168331840Y-117691620D01*
X168331840Y-117691620D02*
X167270220Y-116630000D01*
D24*
X156499880Y-114165280D02*
X156499880Y-116829880D01*
X156499880Y-116829880D02*
X156510000Y-116840000D01*
D25*
X181920000Y-113560000D02*
X182050000Y-113690000D01*
X179721840Y-113560000D02*
X181920000Y-113560000D01*
X182050000Y-113690000D02*
X182050000Y-114480000D01*
X182050000Y-114480000D02*
X183730000Y-116160000D01*
D24*
X182627000Y-117263000D02*
X183730000Y-116160000D01*
D22*
X168001840Y-125758380D02*
X168001840Y-124750000D01*
X164970000Y-126810000D02*
X166950220Y-126810000D01*
X166950220Y-126810000D02*
X168001840Y-125758380D01*
X162890000Y-126800000D02*
X164970000Y-126810000D01*
X165683160Y-119845000D02*
X166828160Y-118700000D01*
X163700000Y-119845000D02*
X165683160Y-119845000D01*
X163700000Y-121115000D02*
X165915000Y-121115000D01*
X165915000Y-121115000D02*
X166410000Y-120620000D01*
X166410000Y-120620000D02*
X168870000Y-120620000D01*
X169253680Y-121003680D02*
X169253680Y-122250000D01*
X168870000Y-120620000D02*
X169253680Y-121003680D01*
D25*
X170250000Y-123246320D02*
X169253680Y-122250000D01*
X170250000Y-124498160D02*
X170250000Y-123246320D01*
X166362960Y-121562960D02*
X165915000Y-121115000D01*
X166362960Y-122290000D02*
X166362960Y-121562960D01*
X166313271Y-122339689D02*
X166362960Y-122290000D01*
D23*
X170193680Y-126058160D02*
X170250000Y-126001840D01*
X170193680Y-128750000D02*
X170193680Y-126058160D01*
D22*
X170430000Y-133670000D02*
X170430000Y-133880000D01*
X170380000Y-133320000D02*
X168900000Y-134800000D01*
D25*
X169640000Y-133670000D02*
X168650000Y-134660000D01*
X170430000Y-133670000D02*
X169640000Y-133670000D01*
D22*
X170430000Y-132166320D02*
X171533680Y-132166320D01*
X171533680Y-132166320D02*
X172200000Y-131500000D01*
X172500000Y-125496320D02*
X173563680Y-125496320D01*
X173563680Y-125496320D02*
X173770000Y-125290000D01*
D23*
X175603160Y-106975000D02*
X176170000Y-107541840D01*
X173672500Y-106975000D02*
X175603160Y-106975000D01*
D25*
X178300060Y-109700000D02*
X181500000Y-106500060D01*
X176313680Y-109700000D02*
X178300060Y-109700000D01*
X183553680Y-108553740D02*
X181500000Y-106500060D01*
X183553680Y-113690000D02*
X183553680Y-108553740D01*
D23*
X178218160Y-113560000D02*
X178218160Y-111781840D01*
X178218160Y-111781840D02*
X179080000Y-110920000D01*
D25*
X176253680Y-102250000D02*
X177749940Y-102250000D01*
D26*
X180750060Y-102250000D02*
X181500000Y-102999940D01*
X176253680Y-102250000D02*
X180750060Y-102250000D01*
D23*
X173672500Y-109266080D02*
X174106420Y-109700000D01*
X174106420Y-109700000D02*
X174810000Y-109700000D01*
X173672500Y-107625000D02*
X173672500Y-109266080D01*
X174046420Y-102250000D02*
X174750000Y-102250000D01*
X173672500Y-102623920D02*
X174046420Y-102250000D01*
X173672500Y-105675000D02*
X173672500Y-102623920D01*
D22*
X170710000Y-115022792D02*
X171200000Y-115512792D01*
X170710000Y-113750000D02*
X170710000Y-115022792D01*
X171200000Y-115512792D02*
X171200000Y-122980000D01*
X171200000Y-122980000D02*
X172200000Y-123980000D01*
X172200000Y-123980000D02*
X173810000Y-123980000D01*
X175500000Y-125670000D02*
X175500000Y-127999940D01*
X173810000Y-123980000D02*
X175500000Y-125670000D01*
D24*
X156499880Y-103339800D02*
X162600960Y-103339800D01*
D22*
X158300000Y-122385000D02*
X159692500Y-122385000D01*
X159692500Y-122385000D02*
X160007500Y-122070000D01*
X155113160Y-121115000D02*
X155000000Y-121001840D01*
X158300000Y-121115000D02*
X155113160Y-121115000D01*
X154418160Y-121583680D02*
X154418160Y-123430000D01*
X155000000Y-121001840D02*
X154418160Y-121583680D01*
X156670160Y-119498160D02*
X155000000Y-119498160D01*
X158300000Y-119845000D02*
X157017000Y-119845000D01*
X157017000Y-119845000D02*
X156670160Y-119498160D01*
X159583000Y-119845000D02*
X160960000Y-121222000D01*
X158300000Y-119845000D02*
X159583000Y-119845000D01*
X160960000Y-121222000D02*
X160960000Y-122870000D01*
X161745000Y-123655000D02*
X163700000Y-123655000D01*
X160960000Y-122870000D02*
X161745000Y-123655000D01*
X164983000Y-122385000D02*
X166150000Y-123552000D01*
X163700000Y-122385000D02*
X164983000Y-122385000D01*
X166498160Y-123741620D02*
X166498160Y-124750000D01*
X166308540Y-123552000D02*
X166498160Y-123741620D01*
X166150000Y-123552000D02*
X166308540Y-123552000D01*
X166498160Y-123501840D02*
X166498160Y-124750000D01*
X167750000Y-122250000D02*
X166498160Y-123501840D01*
D23*
X168690000Y-128750000D02*
X168690000Y-126750000D01*
X168690000Y-126750000D02*
X168670000Y-126730000D01*
X168005000Y-106975000D02*
X169447500Y-106975000D01*
X166950000Y-108030000D02*
X168005000Y-106975000D01*
X166950000Y-114180000D02*
X166950000Y-108030000D01*
X169840000Y-118580000D02*
X169840000Y-117070000D01*
X169840000Y-117070000D02*
X166950000Y-114180000D01*
G36*
X185498404Y-136123000D02*
G01*
X152376193Y-136123000D01*
X152366203Y-134554466D01*
X167578500Y-134554466D01*
X167578500Y-134765534D01*
X167619677Y-134972545D01*
X167700449Y-135167546D01*
X167817711Y-135343042D01*
X167966958Y-135492289D01*
X168142454Y-135609551D01*
X168337455Y-135690323D01*
X168544466Y-135731500D01*
X168755534Y-135731500D01*
X168962545Y-135690323D01*
X168998088Y-135675601D01*
X169072705Y-135668251D01*
X169238774Y-135617875D01*
X169391825Y-135536068D01*
X169492362Y-135453559D01*
X170196308Y-134749613D01*
X170271113Y-134749613D01*
X170430000Y-134765262D01*
X170588887Y-134749613D01*
X170930380Y-134749613D01*
X171053293Y-134737507D01*
X171171483Y-134701655D01*
X171280408Y-134643433D01*
X171375881Y-134565081D01*
X171454233Y-134469608D01*
X171512455Y-134360683D01*
X171548307Y-134242493D01*
X171560413Y-134119580D01*
X171560413Y-133220420D01*
X171548307Y-133097507D01*
X171534356Y-133051515D01*
X171576950Y-133047320D01*
X171576953Y-133047320D01*
X171706386Y-133034572D01*
X171872455Y-132984195D01*
X171910863Y-132963665D01*
X180266000Y-132963665D01*
X180391914Y-133253637D01*
X180724126Y-133419493D01*
X181082312Y-133517350D01*
X181452706Y-133543449D01*
X181821075Y-133496785D01*
X182173262Y-133379154D01*
X182408086Y-133253637D01*
X182534000Y-132963665D01*
X181400000Y-131829665D01*
X180266000Y-132963665D01*
X171910863Y-132963665D01*
X172025505Y-132902388D01*
X172159655Y-132792295D01*
X172187245Y-132758676D01*
X172391526Y-132554395D01*
X172512545Y-132530323D01*
X172707546Y-132449551D01*
X172883042Y-132332289D01*
X173032289Y-132183042D01*
X173091624Y-132094240D01*
X174615525Y-132094240D01*
X174699208Y-132348421D01*
X174971775Y-132479318D01*
X175264642Y-132554525D01*
X175566553Y-132571151D01*
X175865907Y-132528557D01*
X176151199Y-132428382D01*
X176300792Y-132348421D01*
X176384475Y-132094240D01*
X175500000Y-131209765D01*
X174615525Y-132094240D01*
X173091624Y-132094240D01*
X173149551Y-132007546D01*
X173230323Y-131812545D01*
X173271500Y-131605534D01*
X173271500Y-131394466D01*
X173230323Y-131187455D01*
X173192737Y-131096713D01*
X173959009Y-131096713D01*
X174001603Y-131396067D01*
X174101778Y-131681359D01*
X174181739Y-131830952D01*
X174435920Y-131914635D01*
X175320395Y-131030160D01*
X175679605Y-131030160D01*
X176564080Y-131914635D01*
X176818261Y-131830952D01*
X176879820Y-131702766D01*
X179506611Y-131702766D01*
X179553275Y-132071135D01*
X179670906Y-132423322D01*
X179796423Y-132658146D01*
X180086395Y-132784060D01*
X181220395Y-131650060D01*
X181579605Y-131650060D01*
X182713605Y-132784060D01*
X183003577Y-132658146D01*
X183169433Y-132325934D01*
X183267290Y-131967748D01*
X183293389Y-131597354D01*
X183246725Y-131228985D01*
X183129094Y-130876798D01*
X183003577Y-130641974D01*
X182713605Y-130516060D01*
X181579605Y-131650060D01*
X181220395Y-131650060D01*
X180086395Y-130516060D01*
X179796423Y-130641974D01*
X179630567Y-130974186D01*
X179532710Y-131332372D01*
X179506611Y-131702766D01*
X176879820Y-131702766D01*
X176949158Y-131558385D01*
X177024365Y-131265518D01*
X177040991Y-130963607D01*
X176998397Y-130664253D01*
X176898222Y-130378961D01*
X176818261Y-130229368D01*
X176564080Y-130145685D01*
X175679605Y-131030160D01*
X175320395Y-131030160D01*
X174435920Y-130145685D01*
X174181739Y-130229368D01*
X174050842Y-130501935D01*
X173975635Y-130794802D01*
X173959009Y-131096713D01*
X173192737Y-131096713D01*
X173149551Y-130992454D01*
X173032289Y-130816958D01*
X172883042Y-130667711D01*
X172707546Y-130550449D01*
X172512545Y-130469677D01*
X172305534Y-130428500D01*
X172094466Y-130428500D01*
X171887455Y-130469677D01*
X171692454Y-130550449D01*
X171516958Y-130667711D01*
X171367711Y-130816958D01*
X171250449Y-130992454D01*
X171187981Y-131143266D01*
X171171103Y-131134245D01*
X171052913Y-131098393D01*
X170930000Y-131086287D01*
X169930000Y-131086287D01*
X169807087Y-131098393D01*
X169688897Y-131134245D01*
X169579972Y-131192467D01*
X169484499Y-131270819D01*
X169406147Y-131366292D01*
X169347925Y-131475217D01*
X169312073Y-131593407D01*
X169299967Y-131716320D01*
X169299967Y-132616320D01*
X169309862Y-132716789D01*
X169252389Y-132734224D01*
X169176254Y-132774919D01*
X169077275Y-132827824D01*
X168986419Y-132902388D01*
X168923788Y-132953788D01*
X168892224Y-132992249D01*
X168196347Y-133688126D01*
X168142454Y-133710449D01*
X167966958Y-133827711D01*
X167817711Y-133976958D01*
X167700449Y-134152454D01*
X167619677Y-134347455D01*
X167578500Y-134554466D01*
X152366203Y-134554466D01*
X152348060Y-131706052D01*
X153423553Y-131706052D01*
X153573548Y-132016493D01*
X153939819Y-132202311D01*
X154335303Y-132313101D01*
X154744801Y-132344609D01*
X155073000Y-132305181D01*
X155073000Y-132454567D01*
X155152818Y-132855839D01*
X155309386Y-133233829D01*
X155536689Y-133574011D01*
X155825989Y-133863311D01*
X156166171Y-134090614D01*
X156544161Y-134247182D01*
X156945433Y-134327000D01*
X157354567Y-134327000D01*
X157755839Y-134247182D01*
X158133829Y-134090614D01*
X158474011Y-133863311D01*
X158763311Y-133574011D01*
X158990614Y-133233829D01*
X159147182Y-132855839D01*
X159227000Y-132454567D01*
X159227000Y-132045433D01*
X160673000Y-132045433D01*
X160673000Y-132454567D01*
X160752818Y-132855839D01*
X160909386Y-133233829D01*
X161136689Y-133574011D01*
X161425989Y-133863311D01*
X161766171Y-134090614D01*
X162144161Y-134247182D01*
X162545433Y-134327000D01*
X162954567Y-134327000D01*
X163355839Y-134247182D01*
X163733829Y-134090614D01*
X164074011Y-133863311D01*
X164363311Y-133574011D01*
X164590614Y-133233829D01*
X164747182Y-132855839D01*
X164827000Y-132454567D01*
X164827000Y-132045433D01*
X164747182Y-131644161D01*
X164590614Y-131266171D01*
X164363311Y-130925989D01*
X164074011Y-130636689D01*
X163733829Y-130409386D01*
X163355839Y-130252818D01*
X162954567Y-130173000D01*
X162545433Y-130173000D01*
X162144161Y-130252818D01*
X161766171Y-130409386D01*
X161425989Y-130636689D01*
X161136689Y-130925989D01*
X160909386Y-131266171D01*
X160752818Y-131644161D01*
X160673000Y-132045433D01*
X159227000Y-132045433D01*
X159147182Y-131644161D01*
X158990614Y-131266171D01*
X158763311Y-130925989D01*
X158474011Y-130636689D01*
X158133829Y-130409386D01*
X157755839Y-130252818D01*
X157354567Y-130173000D01*
X156945433Y-130173000D01*
X156794351Y-130203052D01*
X156745621Y-129797423D01*
X156618021Y-129407038D01*
X156466493Y-129123548D01*
X156156052Y-128973553D01*
X154879605Y-130250000D01*
X154893748Y-130264143D01*
X154714143Y-130443748D01*
X154700000Y-130429605D01*
X153423553Y-131706052D01*
X152348060Y-131706052D01*
X152339071Y-130294801D01*
X152605391Y-130294801D01*
X152654379Y-130702577D01*
X152781979Y-131092962D01*
X152933507Y-131376452D01*
X153243948Y-131526447D01*
X154520395Y-130250000D01*
X153243948Y-128973553D01*
X152933507Y-129123548D01*
X152747689Y-129489819D01*
X152636899Y-129885303D01*
X152605391Y-130294801D01*
X152339071Y-130294801D01*
X152329512Y-128793948D01*
X153423553Y-128793948D01*
X154700000Y-130070395D01*
X155976447Y-128793948D01*
X155826452Y-128483507D01*
X155460181Y-128297689D01*
X155064697Y-128186899D01*
X154655199Y-128155391D01*
X154247423Y-128204379D01*
X153857038Y-128331979D01*
X153573548Y-128483507D01*
X153423553Y-128793948D01*
X152329512Y-128793948D01*
X152292159Y-122929620D01*
X153338547Y-122929620D01*
X153338547Y-123930380D01*
X153350653Y-124053293D01*
X153386505Y-124171483D01*
X153444727Y-124280408D01*
X153523079Y-124375881D01*
X153618552Y-124454233D01*
X153727477Y-124512455D01*
X153845667Y-124548307D01*
X153968580Y-124560413D01*
X154867740Y-124560413D01*
X154990653Y-124548307D01*
X155108843Y-124512455D01*
X155161514Y-124484301D01*
X155228080Y-124519882D01*
X155347778Y-124556192D01*
X155472260Y-124568452D01*
X155636090Y-124565380D01*
X155794840Y-124406630D01*
X155794840Y-123557000D01*
X155774840Y-123557000D01*
X155774840Y-123303000D01*
X155794840Y-123303000D01*
X155794840Y-122453370D01*
X155636090Y-122294620D01*
X155472260Y-122291548D01*
X155347778Y-122303808D01*
X155299160Y-122318556D01*
X155299160Y-122081453D01*
X155500380Y-122081453D01*
X155623293Y-122069347D01*
X155741483Y-122033495D01*
X155811631Y-121996000D01*
X156903733Y-121996000D01*
X156894967Y-122085000D01*
X156894967Y-122566609D01*
X156822605Y-122478435D01*
X156725914Y-122399083D01*
X156615600Y-122340118D01*
X156495902Y-122303808D01*
X156371420Y-122291548D01*
X156207590Y-122294620D01*
X156048840Y-122453370D01*
X156048840Y-123303000D01*
X156068840Y-123303000D01*
X156068840Y-123557000D01*
X156048840Y-123557000D01*
X156048840Y-124406630D01*
X156207590Y-124565380D01*
X156371420Y-124568452D01*
X156495902Y-124556192D01*
X156615600Y-124519882D01*
X156725914Y-124460917D01*
X156822605Y-124381565D01*
X156901957Y-124284874D01*
X156941630Y-124210652D01*
X156994463Y-124309494D01*
X157073815Y-124406185D01*
X157170506Y-124485537D01*
X157280820Y-124544502D01*
X157400518Y-124580812D01*
X157525000Y-124593072D01*
X158014250Y-124590000D01*
X158173000Y-124431250D01*
X158173000Y-123782000D01*
X158427000Y-123782000D01*
X158427000Y-124431250D01*
X158585750Y-124590000D01*
X159075000Y-124593072D01*
X159199482Y-124580812D01*
X159319180Y-124544502D01*
X159429494Y-124485537D01*
X159526185Y-124406185D01*
X159605537Y-124309494D01*
X159664502Y-124199180D01*
X159700812Y-124079482D01*
X159713072Y-123955000D01*
X159710000Y-123940750D01*
X159551250Y-123782000D01*
X158427000Y-123782000D01*
X158173000Y-123782000D01*
X158153000Y-123782000D01*
X158153000Y-123528000D01*
X158173000Y-123528000D01*
X158173000Y-123508000D01*
X158427000Y-123508000D01*
X158427000Y-123528000D01*
X159551250Y-123528000D01*
X159710000Y-123369250D01*
X159713072Y-123355000D01*
X159704609Y-123269069D01*
X159735770Y-123266000D01*
X159735773Y-123266000D01*
X159865206Y-123253252D01*
X160031275Y-123202875D01*
X160125120Y-123152714D01*
X160142125Y-123208774D01*
X160223932Y-123361825D01*
X160270483Y-123418547D01*
X160334026Y-123495975D01*
X160367640Y-123523561D01*
X161091438Y-124247360D01*
X161119025Y-124280975D01*
X161185022Y-124335137D01*
X161253174Y-124391068D01*
X161371348Y-124454233D01*
X161406225Y-124472875D01*
X161572294Y-124523252D01*
X161701727Y-124536000D01*
X161701730Y-124536000D01*
X161745000Y-124540262D01*
X161788270Y-124536000D01*
X162681886Y-124536000D01*
X162683897Y-124537075D01*
X162802087Y-124572927D01*
X162925000Y-124585033D01*
X164475000Y-124585033D01*
X164597913Y-124572927D01*
X164716103Y-124537075D01*
X164825028Y-124478853D01*
X164920501Y-124400501D01*
X164998853Y-124305028D01*
X165057075Y-124196103D01*
X165092927Y-124077913D01*
X165105033Y-123955000D01*
X165105033Y-123752955D01*
X165441855Y-124089777D01*
X165430653Y-124126707D01*
X165418547Y-124249620D01*
X165418547Y-125250380D01*
X165430653Y-125373293D01*
X165466505Y-125491483D01*
X165524727Y-125600408D01*
X165603079Y-125695881D01*
X165698552Y-125774233D01*
X165807477Y-125832455D01*
X165925667Y-125868307D01*
X166048580Y-125880413D01*
X166947740Y-125880413D01*
X167070653Y-125868307D01*
X167188843Y-125832455D01*
X167241514Y-125804301D01*
X167308080Y-125839882D01*
X167427778Y-125876192D01*
X167552260Y-125888452D01*
X167716090Y-125885380D01*
X167874840Y-125726630D01*
X167874840Y-124877000D01*
X167854840Y-124877000D01*
X167854840Y-124623000D01*
X167874840Y-124623000D01*
X167874840Y-123773370D01*
X168128840Y-123773370D01*
X168128840Y-124623000D01*
X168927670Y-124623000D01*
X169086420Y-124464250D01*
X169089492Y-124249620D01*
X169077232Y-124125138D01*
X169040922Y-124005440D01*
X168981957Y-123895126D01*
X168902605Y-123798435D01*
X168805914Y-123719083D01*
X168695600Y-123660118D01*
X168575902Y-123623808D01*
X168451420Y-123611548D01*
X168287590Y-123614620D01*
X168128840Y-123773370D01*
X167874840Y-123773370D01*
X167716090Y-123614620D01*
X167632862Y-123613059D01*
X167865509Y-123380413D01*
X168199580Y-123380413D01*
X168322493Y-123368307D01*
X168440683Y-123332455D01*
X168501840Y-123299766D01*
X168562997Y-123332455D01*
X168681187Y-123368307D01*
X168804100Y-123380413D01*
X168958566Y-123380413D01*
X169242001Y-123663848D01*
X169242001Y-123678771D01*
X169225767Y-123698552D01*
X169167545Y-123807477D01*
X169131693Y-123925667D01*
X169119587Y-124048580D01*
X169119587Y-124947740D01*
X169131693Y-125070653D01*
X169167545Y-125188843D01*
X169200312Y-125250145D01*
X169167925Y-125310737D01*
X169132073Y-125428927D01*
X169119967Y-125551840D01*
X169119967Y-125756599D01*
X168982545Y-125699677D01*
X168915155Y-125686272D01*
X168981957Y-125604874D01*
X169040922Y-125494560D01*
X169077232Y-125374862D01*
X169089492Y-125250380D01*
X169086420Y-125035750D01*
X168927670Y-124877000D01*
X168128840Y-124877000D01*
X168128840Y-125726630D01*
X168176741Y-125774531D01*
X168162454Y-125780449D01*
X167986958Y-125897711D01*
X167837711Y-126046958D01*
X167720449Y-126222454D01*
X167639677Y-126417455D01*
X167598500Y-126624466D01*
X167598500Y-126835534D01*
X167639677Y-127042545D01*
X167720449Y-127237546D01*
X167837711Y-127413042D01*
X167936001Y-127511332D01*
X167936001Y-127701389D01*
X167890392Y-127725767D01*
X167794919Y-127804119D01*
X167716567Y-127899592D01*
X167658345Y-128008517D01*
X167622493Y-128126707D01*
X167610387Y-128249620D01*
X167610387Y-129250380D01*
X167622493Y-129373293D01*
X167658345Y-129491483D01*
X167716567Y-129600408D01*
X167794919Y-129695881D01*
X167890392Y-129774233D01*
X167999317Y-129832455D01*
X168117507Y-129868307D01*
X168240420Y-129880413D01*
X169139580Y-129880413D01*
X169262493Y-129868307D01*
X169380683Y-129832455D01*
X169441840Y-129799766D01*
X169502997Y-129832455D01*
X169621187Y-129868307D01*
X169744100Y-129880413D01*
X170643260Y-129880413D01*
X170766173Y-129868307D01*
X170884363Y-129832455D01*
X170993288Y-129774233D01*
X171088761Y-129695881D01*
X171167113Y-129600408D01*
X171225335Y-129491483D01*
X171261187Y-129373293D01*
X171273293Y-129250380D01*
X171273293Y-128249620D01*
X171261187Y-128126707D01*
X171225335Y-128008517D01*
X171167113Y-127899592D01*
X171088761Y-127804119D01*
X170993288Y-127725767D01*
X170947680Y-127701389D01*
X170947680Y-127047087D01*
X170991103Y-127033915D01*
X171100028Y-126975693D01*
X171195501Y-126897341D01*
X171273853Y-126801868D01*
X171332075Y-126692943D01*
X171367927Y-126574753D01*
X171369587Y-126557899D01*
X171369587Y-127449580D01*
X171381693Y-127572493D01*
X171417545Y-127690683D01*
X171475767Y-127799608D01*
X171554119Y-127895081D01*
X171649592Y-127973433D01*
X171758517Y-128031655D01*
X171876707Y-128067507D01*
X171999620Y-128079613D01*
X173000380Y-128079613D01*
X173123293Y-128067507D01*
X173241483Y-128031655D01*
X173350408Y-127973433D01*
X173445881Y-127895081D01*
X173524233Y-127799608D01*
X173582455Y-127690683D01*
X173618307Y-127572493D01*
X173630413Y-127449580D01*
X173630413Y-126550420D01*
X173618307Y-126427507D01*
X173603195Y-126377690D01*
X173606950Y-126377320D01*
X173606953Y-126377320D01*
X173736386Y-126364572D01*
X173746513Y-126361500D01*
X173875534Y-126361500D01*
X174082545Y-126320323D01*
X174277546Y-126239551D01*
X174453042Y-126122289D01*
X174579705Y-125995626D01*
X174619000Y-126034922D01*
X174619001Y-127242317D01*
X174526594Y-127304061D01*
X174313901Y-127516754D01*
X174146790Y-127766854D01*
X174031681Y-128044750D01*
X173973000Y-128339764D01*
X173973000Y-128640556D01*
X174031681Y-128935570D01*
X174146790Y-129213466D01*
X174313901Y-129463566D01*
X174526594Y-129676259D01*
X174677701Y-129777225D01*
X174615525Y-129966080D01*
X175500000Y-130850555D01*
X176384475Y-129966080D01*
X176322299Y-129777225D01*
X176473406Y-129676259D01*
X176686099Y-129463566D01*
X176853210Y-129213466D01*
X176968319Y-128935570D01*
X177027000Y-128640556D01*
X177027000Y-128339764D01*
X176968319Y-128044750D01*
X176935316Y-127965072D01*
X179523000Y-127965072D01*
X179523000Y-128334808D01*
X179595132Y-128697441D01*
X179736624Y-129039033D01*
X179942039Y-129346458D01*
X180203482Y-129607901D01*
X180510907Y-129813316D01*
X180706489Y-129894329D01*
X180626738Y-129920966D01*
X180391914Y-130046483D01*
X180266000Y-130336455D01*
X181400000Y-131470455D01*
X182534000Y-130336455D01*
X182408086Y-130046483D01*
X182098871Y-129892108D01*
X182289093Y-129813316D01*
X182596518Y-129607901D01*
X182857961Y-129346458D01*
X183063376Y-129039033D01*
X183204868Y-128697441D01*
X183277000Y-128334808D01*
X183277000Y-127965072D01*
X183204868Y-127602439D01*
X183063376Y-127260847D01*
X182857961Y-126953422D01*
X182596518Y-126691979D01*
X182289093Y-126486564D01*
X181947501Y-126345072D01*
X181584868Y-126272940D01*
X181215132Y-126272940D01*
X180852499Y-126345072D01*
X180510907Y-126486564D01*
X180203482Y-126691979D01*
X179942039Y-126953422D01*
X179736624Y-127260847D01*
X179595132Y-127602439D01*
X179523000Y-127965072D01*
X176935316Y-127965072D01*
X176853210Y-127766854D01*
X176686099Y-127516754D01*
X176473406Y-127304061D01*
X176381000Y-127242317D01*
X176381000Y-125713270D01*
X176385262Y-125670000D01*
X176380165Y-125618252D01*
X176368252Y-125497294D01*
X176317875Y-125331225D01*
X176295840Y-125290000D01*
X176236068Y-125178174D01*
X176153559Y-125077637D01*
X176125975Y-125044025D01*
X176092362Y-125016440D01*
X174660002Y-123584080D01*
X179345525Y-123584080D01*
X179429208Y-123838261D01*
X179701775Y-123969158D01*
X179994642Y-124044365D01*
X180296553Y-124060991D01*
X180595907Y-124018397D01*
X180881199Y-123918222D01*
X181030792Y-123838261D01*
X181114475Y-123584080D01*
X180230000Y-122699605D01*
X179345525Y-123584080D01*
X174660002Y-123584080D01*
X174463566Y-123387645D01*
X174435975Y-123354025D01*
X174301825Y-123243932D01*
X174148775Y-123162125D01*
X173982706Y-123111748D01*
X173853273Y-123099000D01*
X173853270Y-123099000D01*
X173810000Y-123094738D01*
X173766730Y-123099000D01*
X172564922Y-123099000D01*
X172081000Y-122615078D01*
X172081000Y-122586553D01*
X178689009Y-122586553D01*
X178731603Y-122885907D01*
X178831778Y-123171199D01*
X178911739Y-123320792D01*
X179165920Y-123404475D01*
X180050395Y-122520000D01*
X179165920Y-121635525D01*
X178911739Y-121719208D01*
X178780842Y-121991775D01*
X178705635Y-122284642D01*
X178689009Y-122586553D01*
X172081000Y-122586553D01*
X172081000Y-121637288D01*
X172116630Y-121723306D01*
X172283741Y-121973406D01*
X172496434Y-122186099D01*
X172746534Y-122353210D01*
X173024430Y-122468319D01*
X173319444Y-122527000D01*
X173620236Y-122527000D01*
X173915250Y-122468319D01*
X174193146Y-122353210D01*
X174443246Y-122186099D01*
X174565265Y-122064080D01*
X175125365Y-122064080D01*
X175209048Y-122318261D01*
X175481615Y-122449158D01*
X175774482Y-122524365D01*
X176076393Y-122540991D01*
X176375747Y-122498397D01*
X176661039Y-122398222D01*
X176810632Y-122318261D01*
X176894315Y-122064080D01*
X176009840Y-121179605D01*
X175125365Y-122064080D01*
X174565265Y-122064080D01*
X174655939Y-121973406D01*
X174756905Y-121822299D01*
X174945760Y-121884475D01*
X175830235Y-121000000D01*
X176189445Y-121000000D01*
X177073920Y-121884475D01*
X177328101Y-121800792D01*
X177458998Y-121528225D01*
X177534205Y-121235358D01*
X177550831Y-120933447D01*
X177508237Y-120634093D01*
X177408062Y-120348801D01*
X177328101Y-120199208D01*
X177073920Y-120115525D01*
X176189445Y-121000000D01*
X175830235Y-121000000D01*
X174945760Y-120115525D01*
X174756905Y-120177701D01*
X174655939Y-120026594D01*
X174565265Y-119935920D01*
X175125365Y-119935920D01*
X176009840Y-120820395D01*
X176894315Y-119935920D01*
X176859314Y-119829604D01*
X178703000Y-119829604D01*
X178703000Y-120130396D01*
X178761681Y-120425410D01*
X178876790Y-120703306D01*
X179043901Y-120953406D01*
X179256594Y-121166099D01*
X179407701Y-121267065D01*
X179345525Y-121455920D01*
X180230000Y-122340395D01*
X181114475Y-121455920D01*
X181052299Y-121267065D01*
X181203406Y-121166099D01*
X181373689Y-120995816D01*
X181440901Y-121096406D01*
X181653594Y-121309099D01*
X181754184Y-121376311D01*
X181583901Y-121546594D01*
X181482935Y-121697701D01*
X181294080Y-121635525D01*
X180409605Y-122520000D01*
X181294080Y-123404475D01*
X181482935Y-123342299D01*
X181583901Y-123493406D01*
X181796594Y-123706099D01*
X182046694Y-123873210D01*
X182324590Y-123988319D01*
X182619604Y-124047000D01*
X182920396Y-124047000D01*
X183215410Y-123988319D01*
X183493306Y-123873210D01*
X183743406Y-123706099D01*
X183956099Y-123493406D01*
X184123210Y-123243306D01*
X184238319Y-122965410D01*
X184297000Y-122670396D01*
X184297000Y-122369604D01*
X184238319Y-122074590D01*
X184123210Y-121796694D01*
X183956099Y-121546594D01*
X183743406Y-121333901D01*
X183642816Y-121266689D01*
X183813099Y-121096406D01*
X183980210Y-120846306D01*
X184095319Y-120568410D01*
X184154000Y-120273396D01*
X184154000Y-119972604D01*
X184095319Y-119677590D01*
X183980210Y-119399694D01*
X183813099Y-119149594D01*
X183600406Y-118936901D01*
X183350306Y-118769790D01*
X183072410Y-118654681D01*
X182777396Y-118596000D01*
X182476604Y-118596000D01*
X182181590Y-118654681D01*
X181903694Y-118769790D01*
X181653594Y-118936901D01*
X181483311Y-119107184D01*
X181416099Y-119006594D01*
X181203406Y-118793901D01*
X180953306Y-118626790D01*
X180675410Y-118511681D01*
X180380396Y-118453000D01*
X180079604Y-118453000D01*
X179784590Y-118511681D01*
X179506694Y-118626790D01*
X179256594Y-118793901D01*
X179043901Y-119006594D01*
X178876790Y-119256694D01*
X178761681Y-119534590D01*
X178703000Y-119829604D01*
X176859314Y-119829604D01*
X176810632Y-119681739D01*
X176538065Y-119550842D01*
X176245198Y-119475635D01*
X175943287Y-119459009D01*
X175643933Y-119501603D01*
X175358641Y-119601778D01*
X175209048Y-119681739D01*
X175125365Y-119935920D01*
X174565265Y-119935920D01*
X174443246Y-119813901D01*
X174193146Y-119646790D01*
X173915250Y-119531681D01*
X173620236Y-119473000D01*
X173319444Y-119473000D01*
X173024430Y-119531681D01*
X172746534Y-119646790D01*
X172496434Y-119813901D01*
X172283741Y-120026594D01*
X172116630Y-120276694D01*
X172081000Y-120362712D01*
X172081000Y-115556062D01*
X172085262Y-115512792D01*
X172074731Y-115405873D01*
X172068252Y-115340086D01*
X172017875Y-115174017D01*
X171936068Y-115020967D01*
X171825975Y-114886817D01*
X171792356Y-114859227D01*
X171776317Y-114843188D01*
X171896099Y-114723406D01*
X171980000Y-114597839D01*
X172063901Y-114723406D01*
X172276594Y-114936099D01*
X172526694Y-115103210D01*
X172804590Y-115218319D01*
X173099604Y-115277000D01*
X173400396Y-115277000D01*
X173695410Y-115218319D01*
X173973306Y-115103210D01*
X174223406Y-114936099D01*
X174436099Y-114723406D01*
X174520000Y-114597839D01*
X174603901Y-114723406D01*
X174816594Y-114936099D01*
X175066694Y-115103210D01*
X175344590Y-115218319D01*
X175639604Y-115277000D01*
X175940396Y-115277000D01*
X176235410Y-115218319D01*
X176513306Y-115103210D01*
X176763406Y-114936099D01*
X176976099Y-114723406D01*
X177143210Y-114473306D01*
X177202116Y-114331095D01*
X177244307Y-114410028D01*
X177322659Y-114505501D01*
X177418132Y-114583853D01*
X177527057Y-114642075D01*
X177645247Y-114677927D01*
X177768160Y-114690033D01*
X178668160Y-114690033D01*
X178791073Y-114677927D01*
X178909263Y-114642075D01*
X178961369Y-114614224D01*
X179028080Y-114649882D01*
X179147778Y-114686192D01*
X179272260Y-114698452D01*
X179436090Y-114695380D01*
X179594840Y-114536630D01*
X179594840Y-113687000D01*
X179848840Y-113687000D01*
X179848840Y-114536630D01*
X180007590Y-114695380D01*
X180171420Y-114698452D01*
X180295902Y-114686192D01*
X180415600Y-114649882D01*
X180525914Y-114590917D01*
X180622605Y-114511565D01*
X180701957Y-114414874D01*
X180760922Y-114304560D01*
X180795558Y-114190380D01*
X180962348Y-114190380D01*
X180974608Y-114314862D01*
X181010918Y-114434560D01*
X181069883Y-114544874D01*
X181149235Y-114641565D01*
X181245926Y-114720917D01*
X181356240Y-114779882D01*
X181475938Y-114816192D01*
X181600420Y-114828452D01*
X181764250Y-114825380D01*
X181923000Y-114666630D01*
X181923000Y-113817000D01*
X181124170Y-113817000D01*
X180965420Y-113975750D01*
X180962348Y-114190380D01*
X180795558Y-114190380D01*
X180797232Y-114184862D01*
X180809492Y-114060380D01*
X180806420Y-113845750D01*
X180647670Y-113687000D01*
X179848840Y-113687000D01*
X179594840Y-113687000D01*
X179574840Y-113687000D01*
X179574840Y-113433000D01*
X179594840Y-113433000D01*
X179594840Y-112583370D01*
X179848840Y-112583370D01*
X179848840Y-113433000D01*
X180647670Y-113433000D01*
X180806420Y-113274250D01*
X180807631Y-113189620D01*
X180962348Y-113189620D01*
X180965420Y-113404250D01*
X181124170Y-113563000D01*
X181923000Y-113563000D01*
X181923000Y-112713370D01*
X181764250Y-112554620D01*
X181600420Y-112551548D01*
X181475938Y-112563808D01*
X181356240Y-112600118D01*
X181245926Y-112659083D01*
X181149235Y-112738435D01*
X181069883Y-112835126D01*
X181010918Y-112945440D01*
X180974608Y-113065138D01*
X180962348Y-113189620D01*
X180807631Y-113189620D01*
X180809492Y-113059620D01*
X180797232Y-112935138D01*
X180760922Y-112815440D01*
X180701957Y-112705126D01*
X180622605Y-112608435D01*
X180525914Y-112529083D01*
X180415600Y-112470118D01*
X180295902Y-112433808D01*
X180171420Y-112421548D01*
X180007590Y-112424620D01*
X179848840Y-112583370D01*
X179594840Y-112583370D01*
X179436090Y-112424620D01*
X179272260Y-112421548D01*
X179147778Y-112433808D01*
X179028080Y-112470118D01*
X178972160Y-112500008D01*
X178972160Y-112094156D01*
X179074816Y-111991500D01*
X179185534Y-111991500D01*
X179392545Y-111950323D01*
X179587546Y-111869551D01*
X179763042Y-111752289D01*
X179912289Y-111603042D01*
X180029551Y-111427546D01*
X180110323Y-111232545D01*
X180151500Y-111025534D01*
X180151500Y-110814466D01*
X180110323Y-110607455D01*
X180029551Y-110412454D01*
X179912289Y-110236958D01*
X179763042Y-110087711D01*
X179587546Y-109970449D01*
X179493919Y-109931668D01*
X181092760Y-108332827D01*
X181315132Y-108377060D01*
X181684868Y-108377060D01*
X181907240Y-108332828D01*
X182545681Y-108971269D01*
X182545680Y-112556088D01*
X182499580Y-112551548D01*
X182335750Y-112554620D01*
X182177000Y-112713370D01*
X182177000Y-113563000D01*
X182197000Y-113563000D01*
X182197000Y-113817000D01*
X182177000Y-113817000D01*
X182177000Y-114666630D01*
X182335750Y-114825380D01*
X182499580Y-114828452D01*
X182624062Y-114816192D01*
X182743760Y-114779882D01*
X182810471Y-114744224D01*
X182862577Y-114772075D01*
X182980767Y-114807927D01*
X183103680Y-114820033D01*
X184003680Y-114820033D01*
X184126593Y-114807927D01*
X184244783Y-114772075D01*
X184353708Y-114713853D01*
X184449181Y-114635501D01*
X184527533Y-114540028D01*
X184585755Y-114431103D01*
X184621607Y-114312913D01*
X184633713Y-114190000D01*
X184633713Y-113190000D01*
X184621607Y-113067087D01*
X184585755Y-112948897D01*
X184561680Y-112903856D01*
X184561680Y-108603246D01*
X184566556Y-108553739D01*
X184561680Y-108504232D01*
X184561680Y-108504222D01*
X184547095Y-108356137D01*
X184489456Y-108166129D01*
X184442124Y-108077578D01*
X184395856Y-107991015D01*
X184301458Y-107875990D01*
X184301452Y-107875984D01*
X184269892Y-107837528D01*
X184231436Y-107805968D01*
X183332768Y-106907300D01*
X183377000Y-106684928D01*
X183377000Y-106315192D01*
X183304868Y-105952559D01*
X183163376Y-105610967D01*
X182957961Y-105303542D01*
X182696518Y-105042099D01*
X182389093Y-104836684D01*
X182179819Y-104750000D01*
X182389093Y-104663316D01*
X182696518Y-104457901D01*
X182957961Y-104196458D01*
X183163376Y-103889033D01*
X183304868Y-103547441D01*
X183377000Y-103184808D01*
X183377000Y-102815072D01*
X183304868Y-102452439D01*
X183163376Y-102110847D01*
X182957961Y-101803422D01*
X182696518Y-101541979D01*
X182389093Y-101336564D01*
X182047501Y-101195072D01*
X181684868Y-101122940D01*
X181315132Y-101122940D01*
X181091339Y-101167455D01*
X180972559Y-101131423D01*
X180805812Y-101115000D01*
X180805811Y-101115000D01*
X180750060Y-101109509D01*
X180694309Y-101115000D01*
X176197928Y-101115000D01*
X176151355Y-101119587D01*
X175804100Y-101119587D01*
X175681187Y-101131693D01*
X175562997Y-101167545D01*
X175501840Y-101200234D01*
X175440683Y-101167545D01*
X175322493Y-101131693D01*
X175199580Y-101119587D01*
X174300420Y-101119587D01*
X174177507Y-101131693D01*
X174059317Y-101167545D01*
X173950392Y-101225767D01*
X173854919Y-101304119D01*
X173776567Y-101399592D01*
X173718345Y-101508517D01*
X173695937Y-101582386D01*
X173690987Y-101585032D01*
X173625493Y-101620039D01*
X173510682Y-101714262D01*
X173487067Y-101743037D01*
X173165533Y-102064571D01*
X173136763Y-102088182D01*
X173113152Y-102116952D01*
X173113151Y-102116953D01*
X173042539Y-102202994D01*
X172972526Y-102333981D01*
X172929410Y-102476111D01*
X172914853Y-102623920D01*
X172918501Y-102660961D01*
X172918500Y-104801517D01*
X172837700Y-104809475D01*
X172696061Y-104852440D01*
X172565526Y-104922213D01*
X172451111Y-105016111D01*
X172357213Y-105130526D01*
X172287440Y-105261061D01*
X172244475Y-105402700D01*
X172229967Y-105550000D01*
X172229967Y-105800000D01*
X172242056Y-105922738D01*
X172235999Y-105941740D01*
X172225000Y-106043250D01*
X172306675Y-106124925D01*
X172357213Y-106219474D01*
X172443816Y-106325000D01*
X172357213Y-106430526D01*
X172306675Y-106525075D01*
X172225000Y-106606750D01*
X172235999Y-106708260D01*
X172242056Y-106727262D01*
X172229967Y-106850000D01*
X172229967Y-107100000D01*
X172244475Y-107247300D01*
X172260461Y-107300000D01*
X172244475Y-107352700D01*
X172229967Y-107500000D01*
X172229967Y-107750000D01*
X172244475Y-107897300D01*
X172287440Y-108038939D01*
X172357213Y-108169474D01*
X172451111Y-108283889D01*
X172565526Y-108377787D01*
X172696061Y-108447560D01*
X172837700Y-108490525D01*
X172918501Y-108498483D01*
X172918501Y-109229039D01*
X172914853Y-109266080D01*
X172929410Y-109413889D01*
X172969837Y-109547154D01*
X172972526Y-109556019D01*
X173042540Y-109687007D01*
X173136763Y-109801818D01*
X173165533Y-109825429D01*
X173547067Y-110206963D01*
X173570682Y-110235738D01*
X173603565Y-110262724D01*
X173685493Y-110329961D01*
X173755937Y-110367614D01*
X173778345Y-110441483D01*
X173836567Y-110550408D01*
X173914919Y-110645881D01*
X174010392Y-110724233D01*
X174119317Y-110782455D01*
X174237507Y-110818307D01*
X174360420Y-110830413D01*
X175259580Y-110830413D01*
X175382493Y-110818307D01*
X175500683Y-110782455D01*
X175561840Y-110749766D01*
X175622997Y-110782455D01*
X175741187Y-110818307D01*
X175864100Y-110830413D01*
X176763260Y-110830413D01*
X176886173Y-110818307D01*
X177004363Y-110782455D01*
X177113288Y-110724233D01*
X177133068Y-110708000D01*
X178029677Y-110708000D01*
X178008500Y-110814466D01*
X178008500Y-110925184D01*
X177711192Y-111222492D01*
X177682423Y-111246102D01*
X177658812Y-111274872D01*
X177658811Y-111274873D01*
X177588199Y-111360914D01*
X177518186Y-111491901D01*
X177475070Y-111634031D01*
X177460513Y-111781840D01*
X177464161Y-111818881D01*
X177464161Y-112511544D01*
X177418132Y-112536147D01*
X177322659Y-112614499D01*
X177244307Y-112709972D01*
X177186085Y-112818897D01*
X177150233Y-112937087D01*
X177141639Y-113024343D01*
X176976099Y-112776594D01*
X176763406Y-112563901D01*
X176513306Y-112396790D01*
X176235410Y-112281681D01*
X175940396Y-112223000D01*
X175639604Y-112223000D01*
X175344590Y-112281681D01*
X175066694Y-112396790D01*
X174816594Y-112563901D01*
X174603901Y-112776594D01*
X174520000Y-112902161D01*
X174436099Y-112776594D01*
X174223406Y-112563901D01*
X173973306Y-112396790D01*
X173695410Y-112281681D01*
X173400396Y-112223000D01*
X173099604Y-112223000D01*
X172804590Y-112281681D01*
X172526694Y-112396790D01*
X172276594Y-112563901D01*
X172063901Y-112776594D01*
X171980000Y-112902161D01*
X171896099Y-112776594D01*
X171683406Y-112563901D01*
X171433306Y-112396790D01*
X171155410Y-112281681D01*
X170860396Y-112223000D01*
X170559604Y-112223000D01*
X170264590Y-112281681D01*
X169986694Y-112396790D01*
X169736594Y-112563901D01*
X169523901Y-112776594D01*
X169356790Y-113026694D01*
X169241681Y-113304590D01*
X169183000Y-113599604D01*
X169183000Y-113900396D01*
X169241681Y-114195410D01*
X169356790Y-114473306D01*
X169523901Y-114723406D01*
X169736594Y-114936099D01*
X169827307Y-114996711D01*
X169824738Y-115022792D01*
X169841749Y-115195497D01*
X169892125Y-115361566D01*
X169973932Y-115514617D01*
X170042085Y-115597661D01*
X170084026Y-115648767D01*
X170117640Y-115676353D01*
X170319000Y-115877713D01*
X170319000Y-116482683D01*
X167704000Y-113867684D01*
X167704000Y-108342316D01*
X168017539Y-108028777D01*
X168048987Y-108127436D01*
X168109495Y-108236911D01*
X168190197Y-108332478D01*
X168287994Y-108410465D01*
X168399125Y-108467874D01*
X168519322Y-108502499D01*
X168643963Y-108513009D01*
X169161750Y-108510000D01*
X169320500Y-108351250D01*
X169320500Y-107855033D01*
X169574500Y-107855033D01*
X169574500Y-108351250D01*
X169733250Y-108510000D01*
X170251037Y-108513009D01*
X170375678Y-108502499D01*
X170495875Y-108467874D01*
X170607006Y-108410465D01*
X170704803Y-108332478D01*
X170785505Y-108236911D01*
X170846013Y-108127436D01*
X170884001Y-108008260D01*
X170895000Y-107906750D01*
X170736250Y-107748000D01*
X170516658Y-107748000D01*
X170554474Y-107727787D01*
X170668889Y-107633889D01*
X170762787Y-107519474D01*
X170813325Y-107424925D01*
X170895000Y-107343250D01*
X170884001Y-107241740D01*
X170877944Y-107222738D01*
X170890033Y-107100000D01*
X170890033Y-106850000D01*
X170875525Y-106702700D01*
X170859539Y-106650000D01*
X170875525Y-106597300D01*
X170890033Y-106450000D01*
X170890033Y-106200000D01*
X170875525Y-106052700D01*
X170859539Y-106000000D01*
X170875525Y-105947300D01*
X170890033Y-105800000D01*
X170890033Y-105550000D01*
X170875525Y-105402700D01*
X170832560Y-105261061D01*
X170762787Y-105130526D01*
X170668889Y-105016111D01*
X170554474Y-104922213D01*
X170423939Y-104852440D01*
X170282300Y-104809475D01*
X170135000Y-104794967D01*
X168760000Y-104794967D01*
X168612700Y-104809475D01*
X168471061Y-104852440D01*
X168340526Y-104922213D01*
X168226111Y-105016111D01*
X168132213Y-105130526D01*
X168062440Y-105261061D01*
X168019475Y-105402700D01*
X168004967Y-105550000D01*
X168004967Y-105800000D01*
X168019475Y-105947300D01*
X168035461Y-106000000D01*
X168019475Y-106052700D01*
X168004967Y-106200000D01*
X168004967Y-106217356D01*
X167967971Y-106221000D01*
X167967961Y-106221000D01*
X167857190Y-106231910D01*
X167715061Y-106275025D01*
X167584073Y-106345039D01*
X167469262Y-106439262D01*
X167445651Y-106468032D01*
X166443032Y-107470652D01*
X166414263Y-107494262D01*
X166390652Y-107523032D01*
X166390651Y-107523033D01*
X166320039Y-107609074D01*
X166250026Y-107740061D01*
X166206910Y-107882191D01*
X166192353Y-108030000D01*
X166196001Y-108067041D01*
X166196000Y-114142969D01*
X166192353Y-114180000D01*
X166196000Y-114217031D01*
X166196000Y-114217038D01*
X166206910Y-114327809D01*
X166250025Y-114469938D01*
X166320039Y-114600926D01*
X166414262Y-114715738D01*
X166443037Y-114739353D01*
X169086001Y-117382318D01*
X169086001Y-117642403D01*
X169025600Y-117610118D01*
X168905902Y-117573808D01*
X168781420Y-117561548D01*
X168617590Y-117564620D01*
X168458840Y-117723370D01*
X168458840Y-118573000D01*
X168478840Y-118573000D01*
X168478840Y-118827000D01*
X168458840Y-118827000D01*
X168458840Y-118847000D01*
X168204840Y-118847000D01*
X168204840Y-118827000D01*
X168184840Y-118827000D01*
X168184840Y-118573000D01*
X168204840Y-118573000D01*
X168204840Y-117723370D01*
X168046090Y-117564620D01*
X167882260Y-117561548D01*
X167757778Y-117573808D01*
X167638080Y-117610118D01*
X167571369Y-117645776D01*
X167519263Y-117617925D01*
X167401073Y-117582073D01*
X167278160Y-117569967D01*
X166378160Y-117569967D01*
X166255247Y-117582073D01*
X166137057Y-117617925D01*
X166028132Y-117676147D01*
X165932659Y-117754499D01*
X165854307Y-117849972D01*
X165796085Y-117958897D01*
X165760233Y-118077087D01*
X165748127Y-118200000D01*
X165748127Y-118534111D01*
X165318239Y-118964000D01*
X164718114Y-118964000D01*
X164716103Y-118962925D01*
X164597913Y-118927073D01*
X164475000Y-118914967D01*
X162925000Y-118914967D01*
X162802087Y-118927073D01*
X162683897Y-118962925D01*
X162574972Y-119021147D01*
X162479499Y-119099499D01*
X162401147Y-119194972D01*
X162342925Y-119303897D01*
X162307073Y-119422087D01*
X162294967Y-119545000D01*
X162294967Y-120145000D01*
X162307073Y-120267913D01*
X162342925Y-120386103D01*
X162393114Y-120480000D01*
X162342925Y-120573897D01*
X162307073Y-120692087D01*
X162294967Y-120815000D01*
X162294967Y-121415000D01*
X162307073Y-121537913D01*
X162342925Y-121656103D01*
X162393114Y-121750000D01*
X162342925Y-121843897D01*
X162307073Y-121962087D01*
X162294967Y-122085000D01*
X162294967Y-122685000D01*
X162303733Y-122774000D01*
X162109922Y-122774000D01*
X161841000Y-122505079D01*
X161841000Y-121265269D01*
X161845262Y-121221999D01*
X161840588Y-121174545D01*
X161828252Y-121049294D01*
X161777875Y-120883225D01*
X161759904Y-120849604D01*
X161696068Y-120730174D01*
X161613559Y-120629637D01*
X161585975Y-120596025D01*
X161552362Y-120568440D01*
X160236566Y-119252645D01*
X160208975Y-119219025D01*
X160074825Y-119108932D01*
X159921775Y-119027125D01*
X159755706Y-118976748D01*
X159626273Y-118964000D01*
X159626270Y-118964000D01*
X159583000Y-118959738D01*
X159539730Y-118964000D01*
X159318114Y-118964000D01*
X159316103Y-118962925D01*
X159197913Y-118927073D01*
X159075000Y-118914967D01*
X157525000Y-118914967D01*
X157402087Y-118927073D01*
X157358282Y-118940361D01*
X157323726Y-118905805D01*
X157296135Y-118872185D01*
X157161985Y-118762092D01*
X157008935Y-118680285D01*
X156842866Y-118629908D01*
X156713433Y-118617160D01*
X156713430Y-118617160D01*
X156670160Y-118612898D01*
X156626890Y-118617160D01*
X155957437Y-118617160D01*
X155945881Y-118603079D01*
X155850408Y-118524727D01*
X155741483Y-118466505D01*
X155623293Y-118430653D01*
X155500380Y-118418547D01*
X154499620Y-118418547D01*
X154376707Y-118430653D01*
X154258517Y-118466505D01*
X154149592Y-118524727D01*
X154054119Y-118603079D01*
X153975767Y-118698552D01*
X153917545Y-118807477D01*
X153881693Y-118925667D01*
X153869587Y-119048580D01*
X153869587Y-119947740D01*
X153881693Y-120070653D01*
X153917545Y-120188843D01*
X153950234Y-120250000D01*
X153917545Y-120311157D01*
X153881693Y-120429347D01*
X153869587Y-120552260D01*
X153869587Y-120886332D01*
X153825805Y-120930114D01*
X153792185Y-120957705D01*
X153719181Y-121046663D01*
X153682092Y-121091855D01*
X153604445Y-121237124D01*
X153600285Y-121244906D01*
X153549908Y-121410975D01*
X153538360Y-121528225D01*
X153532898Y-121583680D01*
X153537160Y-121626951D01*
X153537160Y-122472563D01*
X153523079Y-122484119D01*
X153444727Y-122579592D01*
X153386505Y-122688517D01*
X153350653Y-122806707D01*
X153338547Y-122929620D01*
X152292159Y-122929620D01*
X152242702Y-115164770D01*
X154862318Y-115164770D01*
X154874578Y-115289252D01*
X154910888Y-115408950D01*
X154969853Y-115519264D01*
X155049205Y-115615955D01*
X155145896Y-115695307D01*
X155256210Y-115754272D01*
X155375908Y-115790582D01*
X155500390Y-115802842D01*
X156214130Y-115799770D01*
X156372880Y-115641020D01*
X156372880Y-114292280D01*
X156626880Y-114292280D01*
X156626880Y-115641020D01*
X156785630Y-115799770D01*
X157499370Y-115802842D01*
X157623852Y-115790582D01*
X157743550Y-115754272D01*
X157853864Y-115695307D01*
X157950555Y-115615955D01*
X158029907Y-115519264D01*
X158088872Y-115408950D01*
X158125182Y-115289252D01*
X158137442Y-115164770D01*
X158134370Y-114451030D01*
X157975620Y-114292280D01*
X156626880Y-114292280D01*
X156372880Y-114292280D01*
X155024140Y-114292280D01*
X154865390Y-114451030D01*
X154862318Y-115164770D01*
X152242702Y-115164770D01*
X152229970Y-113165790D01*
X154862318Y-113165790D01*
X154865390Y-113879530D01*
X155024140Y-114038280D01*
X156372880Y-114038280D01*
X156372880Y-112689540D01*
X156626880Y-112689540D01*
X156626880Y-114038280D01*
X157975620Y-114038280D01*
X158134370Y-113879530D01*
X158137442Y-113165790D01*
X160971437Y-113165790D01*
X160971437Y-115164770D01*
X160983543Y-115287683D01*
X161019395Y-115405873D01*
X161077617Y-115514798D01*
X161155969Y-115610271D01*
X161251442Y-115688623D01*
X161360367Y-115746845D01*
X161478557Y-115782697D01*
X161601470Y-115794803D01*
X163600450Y-115794803D01*
X163723363Y-115782697D01*
X163841553Y-115746845D01*
X163950478Y-115688623D01*
X164045951Y-115610271D01*
X164124303Y-115514798D01*
X164182525Y-115405873D01*
X164218377Y-115287683D01*
X164230483Y-115164770D01*
X164230483Y-113165790D01*
X164218377Y-113042877D01*
X164182525Y-112924687D01*
X164124303Y-112815762D01*
X164045951Y-112720289D01*
X163950478Y-112641937D01*
X163841553Y-112583715D01*
X163723363Y-112547863D01*
X163600450Y-112535757D01*
X161601470Y-112535757D01*
X161478557Y-112547863D01*
X161360367Y-112583715D01*
X161251442Y-112641937D01*
X161155969Y-112720289D01*
X161077617Y-112815762D01*
X161019395Y-112924687D01*
X160983543Y-113042877D01*
X160971437Y-113165790D01*
X158137442Y-113165790D01*
X158125182Y-113041308D01*
X158088872Y-112921610D01*
X158029907Y-112811296D01*
X157950555Y-112714605D01*
X157853864Y-112635253D01*
X157743550Y-112576288D01*
X157623852Y-112539978D01*
X157499370Y-112527718D01*
X156785630Y-112530790D01*
X156626880Y-112689540D01*
X156372880Y-112689540D01*
X156214130Y-112530790D01*
X155500390Y-112527718D01*
X155375908Y-112539978D01*
X155256210Y-112576288D01*
X155145896Y-112635253D01*
X155049205Y-112714605D01*
X154969853Y-112811296D01*
X154910888Y-112921610D01*
X154874578Y-113041308D01*
X154862318Y-113165790D01*
X152229970Y-113165790D01*
X152200824Y-108589805D01*
X154873390Y-108589805D01*
X154873390Y-108910195D01*
X154935895Y-109224430D01*
X155058503Y-109520432D01*
X155236503Y-109786827D01*
X155463053Y-110013377D01*
X155729448Y-110191377D01*
X156025450Y-110313985D01*
X156339685Y-110376490D01*
X156660075Y-110376490D01*
X156974310Y-110313985D01*
X157270312Y-110191377D01*
X157536707Y-110013377D01*
X157763257Y-109786827D01*
X157941257Y-109520432D01*
X158063865Y-109224430D01*
X158126370Y-108910195D01*
X158126370Y-108589805D01*
X159374270Y-108589805D01*
X159374270Y-108910195D01*
X159436775Y-109224430D01*
X159559383Y-109520432D01*
X159737383Y-109786827D01*
X159963933Y-110013377D01*
X160230328Y-110191377D01*
X160526330Y-110313985D01*
X160840565Y-110376490D01*
X161160955Y-110376490D01*
X161475190Y-110313985D01*
X161771192Y-110191377D01*
X162037587Y-110013377D01*
X162264137Y-109786827D01*
X162442137Y-109520432D01*
X162564745Y-109224430D01*
X162627250Y-108910195D01*
X162627250Y-108589805D01*
X162564745Y-108275570D01*
X162442137Y-107979568D01*
X162264137Y-107713173D01*
X162037587Y-107486623D01*
X161771192Y-107308623D01*
X161475190Y-107186015D01*
X161160955Y-107123510D01*
X160840565Y-107123510D01*
X160526330Y-107186015D01*
X160230328Y-107308623D01*
X159963933Y-107486623D01*
X159737383Y-107713173D01*
X159559383Y-107979568D01*
X159436775Y-108275570D01*
X159374270Y-108589805D01*
X158126370Y-108589805D01*
X158063865Y-108275570D01*
X157941257Y-107979568D01*
X157763257Y-107713173D01*
X157536707Y-107486623D01*
X157270312Y-107308623D01*
X156974310Y-107186015D01*
X156660075Y-107123510D01*
X156339685Y-107123510D01*
X156025450Y-107186015D01*
X155729448Y-107308623D01*
X155463053Y-107486623D01*
X155236503Y-107713173D01*
X155058503Y-107979568D01*
X154935895Y-108275570D01*
X154873390Y-108589805D01*
X152200824Y-108589805D01*
X152161018Y-102340310D01*
X154870357Y-102340310D01*
X154870357Y-104339290D01*
X154882463Y-104462203D01*
X154918315Y-104580393D01*
X154976537Y-104689318D01*
X155054889Y-104784791D01*
X155150362Y-104863143D01*
X155259287Y-104921365D01*
X155377477Y-104957217D01*
X155500390Y-104969323D01*
X157499370Y-104969323D01*
X157622283Y-104957217D01*
X157740473Y-104921365D01*
X157849398Y-104863143D01*
X157944871Y-104784791D01*
X158023223Y-104689318D01*
X158070003Y-104601800D01*
X161030837Y-104601800D01*
X161077617Y-104689318D01*
X161155969Y-104784791D01*
X161251442Y-104863143D01*
X161360367Y-104921365D01*
X161478557Y-104957217D01*
X161601470Y-104969323D01*
X163600450Y-104969323D01*
X163723363Y-104957217D01*
X163841553Y-104921365D01*
X163950478Y-104863143D01*
X164045951Y-104784791D01*
X164124303Y-104689318D01*
X164182525Y-104580393D01*
X164218377Y-104462203D01*
X164230483Y-104339290D01*
X164230483Y-102340310D01*
X164218377Y-102217397D01*
X164182525Y-102099207D01*
X164124303Y-101990282D01*
X164045951Y-101894809D01*
X163950478Y-101816457D01*
X163841553Y-101758235D01*
X163723363Y-101722383D01*
X163600450Y-101710277D01*
X161601470Y-101710277D01*
X161478557Y-101722383D01*
X161360367Y-101758235D01*
X161251442Y-101816457D01*
X161155969Y-101894809D01*
X161077617Y-101990282D01*
X161030837Y-102077800D01*
X158070003Y-102077800D01*
X158023223Y-101990282D01*
X157944871Y-101894809D01*
X157849398Y-101816457D01*
X157740473Y-101758235D01*
X157622283Y-101722383D01*
X157499370Y-101710277D01*
X155500390Y-101710277D01*
X155377477Y-101722383D01*
X155259287Y-101758235D01*
X155150362Y-101816457D01*
X155054889Y-101894809D01*
X154976537Y-101990282D01*
X154918315Y-102099207D01*
X154882463Y-102217397D01*
X154870357Y-102340310D01*
X152161018Y-102340310D01*
X152127811Y-97127000D01*
X185622595Y-97127000D01*
X185498404Y-136123000D01*
G37*
X185498404Y-136123000D02*
X152376193Y-136123000D01*
X152366203Y-134554466D01*
X167578500Y-134554466D01*
X167578500Y-134765534D01*
X167619677Y-134972545D01*
X167700449Y-135167546D01*
X167817711Y-135343042D01*
X167966958Y-135492289D01*
X168142454Y-135609551D01*
X168337455Y-135690323D01*
X168544466Y-135731500D01*
X168755534Y-135731500D01*
X168962545Y-135690323D01*
X168998088Y-135675601D01*
X169072705Y-135668251D01*
X169238774Y-135617875D01*
X169391825Y-135536068D01*
X169492362Y-135453559D01*
X170196308Y-134749613D01*
X170271113Y-134749613D01*
X170430000Y-134765262D01*
X170588887Y-134749613D01*
X170930380Y-134749613D01*
X171053293Y-134737507D01*
X171171483Y-134701655D01*
X171280408Y-134643433D01*
X171375881Y-134565081D01*
X171454233Y-134469608D01*
X171512455Y-134360683D01*
X171548307Y-134242493D01*
X171560413Y-134119580D01*
X171560413Y-133220420D01*
X171548307Y-133097507D01*
X171534356Y-133051515D01*
X171576950Y-133047320D01*
X171576953Y-133047320D01*
X171706386Y-133034572D01*
X171872455Y-132984195D01*
X171910863Y-132963665D01*
X180266000Y-132963665D01*
X180391914Y-133253637D01*
X180724126Y-133419493D01*
X181082312Y-133517350D01*
X181452706Y-133543449D01*
X181821075Y-133496785D01*
X182173262Y-133379154D01*
X182408086Y-133253637D01*
X182534000Y-132963665D01*
X181400000Y-131829665D01*
X180266000Y-132963665D01*
X171910863Y-132963665D01*
X172025505Y-132902388D01*
X172159655Y-132792295D01*
X172187245Y-132758676D01*
X172391526Y-132554395D01*
X172512545Y-132530323D01*
X172707546Y-132449551D01*
X172883042Y-132332289D01*
X173032289Y-132183042D01*
X173091624Y-132094240D01*
X174615525Y-132094240D01*
X174699208Y-132348421D01*
X174971775Y-132479318D01*
X175264642Y-132554525D01*
X175566553Y-132571151D01*
X175865907Y-132528557D01*
X176151199Y-132428382D01*
X176300792Y-132348421D01*
X176384475Y-132094240D01*
X175500000Y-131209765D01*
X174615525Y-132094240D01*
X173091624Y-132094240D01*
X173149551Y-132007546D01*
X173230323Y-131812545D01*
X173271500Y-131605534D01*
X173271500Y-131394466D01*
X173230323Y-131187455D01*
X173192737Y-131096713D01*
X173959009Y-131096713D01*
X174001603Y-131396067D01*
X174101778Y-131681359D01*
X174181739Y-131830952D01*
X174435920Y-131914635D01*
X175320395Y-131030160D01*
X175679605Y-131030160D01*
X176564080Y-131914635D01*
X176818261Y-131830952D01*
X176879820Y-131702766D01*
X179506611Y-131702766D01*
X179553275Y-132071135D01*
X179670906Y-132423322D01*
X179796423Y-132658146D01*
X180086395Y-132784060D01*
X181220395Y-131650060D01*
X181579605Y-131650060D01*
X182713605Y-132784060D01*
X183003577Y-132658146D01*
X183169433Y-132325934D01*
X183267290Y-131967748D01*
X183293389Y-131597354D01*
X183246725Y-131228985D01*
X183129094Y-130876798D01*
X183003577Y-130641974D01*
X182713605Y-130516060D01*
X181579605Y-131650060D01*
X181220395Y-131650060D01*
X180086395Y-130516060D01*
X179796423Y-130641974D01*
X179630567Y-130974186D01*
X179532710Y-131332372D01*
X179506611Y-131702766D01*
X176879820Y-131702766D01*
X176949158Y-131558385D01*
X177024365Y-131265518D01*
X177040991Y-130963607D01*
X176998397Y-130664253D01*
X176898222Y-130378961D01*
X176818261Y-130229368D01*
X176564080Y-130145685D01*
X175679605Y-131030160D01*
X175320395Y-131030160D01*
X174435920Y-130145685D01*
X174181739Y-130229368D01*
X174050842Y-130501935D01*
X173975635Y-130794802D01*
X173959009Y-131096713D01*
X173192737Y-131096713D01*
X173149551Y-130992454D01*
X173032289Y-130816958D01*
X172883042Y-130667711D01*
X172707546Y-130550449D01*
X172512545Y-130469677D01*
X172305534Y-130428500D01*
X172094466Y-130428500D01*
X171887455Y-130469677D01*
X171692454Y-130550449D01*
X171516958Y-130667711D01*
X171367711Y-130816958D01*
X171250449Y-130992454D01*
X171187981Y-131143266D01*
X171171103Y-131134245D01*
X171052913Y-131098393D01*
X170930000Y-131086287D01*
X169930000Y-131086287D01*
X169807087Y-131098393D01*
X169688897Y-131134245D01*
X169579972Y-131192467D01*
X169484499Y-131270819D01*
X169406147Y-131366292D01*
X169347925Y-131475217D01*
X169312073Y-131593407D01*
X169299967Y-131716320D01*
X169299967Y-132616320D01*
X169309862Y-132716789D01*
X169252389Y-132734224D01*
X169176254Y-132774919D01*
X169077275Y-132827824D01*
X168986419Y-132902388D01*
X168923788Y-132953788D01*
X168892224Y-132992249D01*
X168196347Y-133688126D01*
X168142454Y-133710449D01*
X167966958Y-133827711D01*
X167817711Y-133976958D01*
X167700449Y-134152454D01*
X167619677Y-134347455D01*
X167578500Y-134554466D01*
X152366203Y-134554466D01*
X152348060Y-131706052D01*
X153423553Y-131706052D01*
X153573548Y-132016493D01*
X153939819Y-132202311D01*
X154335303Y-132313101D01*
X154744801Y-132344609D01*
X155073000Y-132305181D01*
X155073000Y-132454567D01*
X155152818Y-132855839D01*
X155309386Y-133233829D01*
X155536689Y-133574011D01*
X155825989Y-133863311D01*
X156166171Y-134090614D01*
X156544161Y-134247182D01*
X156945433Y-134327000D01*
X157354567Y-134327000D01*
X157755839Y-134247182D01*
X158133829Y-134090614D01*
X158474011Y-133863311D01*
X158763311Y-133574011D01*
X158990614Y-133233829D01*
X159147182Y-132855839D01*
X159227000Y-132454567D01*
X159227000Y-132045433D01*
X160673000Y-132045433D01*
X160673000Y-132454567D01*
X160752818Y-132855839D01*
X160909386Y-133233829D01*
X161136689Y-133574011D01*
X161425989Y-133863311D01*
X161766171Y-134090614D01*
X162144161Y-134247182D01*
X162545433Y-134327000D01*
X162954567Y-134327000D01*
X163355839Y-134247182D01*
X163733829Y-134090614D01*
X164074011Y-133863311D01*
X164363311Y-133574011D01*
X164590614Y-133233829D01*
X164747182Y-132855839D01*
X164827000Y-132454567D01*
X164827000Y-132045433D01*
X164747182Y-131644161D01*
X164590614Y-131266171D01*
X164363311Y-130925989D01*
X164074011Y-130636689D01*
X163733829Y-130409386D01*
X163355839Y-130252818D01*
X162954567Y-130173000D01*
X162545433Y-130173000D01*
X162144161Y-130252818D01*
X161766171Y-130409386D01*
X161425989Y-130636689D01*
X161136689Y-130925989D01*
X160909386Y-131266171D01*
X160752818Y-131644161D01*
X160673000Y-132045433D01*
X159227000Y-132045433D01*
X159147182Y-131644161D01*
X158990614Y-131266171D01*
X158763311Y-130925989D01*
X158474011Y-130636689D01*
X158133829Y-130409386D01*
X157755839Y-130252818D01*
X157354567Y-130173000D01*
X156945433Y-130173000D01*
X156794351Y-130203052D01*
X156745621Y-129797423D01*
X156618021Y-129407038D01*
X156466493Y-129123548D01*
X156156052Y-128973553D01*
X154879605Y-130250000D01*
X154893748Y-130264143D01*
X154714143Y-130443748D01*
X154700000Y-130429605D01*
X153423553Y-131706052D01*
X152348060Y-131706052D01*
X152339071Y-130294801D01*
X152605391Y-130294801D01*
X152654379Y-130702577D01*
X152781979Y-131092962D01*
X152933507Y-131376452D01*
X153243948Y-131526447D01*
X154520395Y-130250000D01*
X153243948Y-128973553D01*
X152933507Y-129123548D01*
X152747689Y-129489819D01*
X152636899Y-129885303D01*
X152605391Y-130294801D01*
X152339071Y-130294801D01*
X152329512Y-128793948D01*
X153423553Y-128793948D01*
X154700000Y-130070395D01*
X155976447Y-128793948D01*
X155826452Y-128483507D01*
X155460181Y-128297689D01*
X155064697Y-128186899D01*
X154655199Y-128155391D01*
X154247423Y-128204379D01*
X153857038Y-128331979D01*
X153573548Y-128483507D01*
X153423553Y-128793948D01*
X152329512Y-128793948D01*
X152292159Y-122929620D01*
X153338547Y-122929620D01*
X153338547Y-123930380D01*
X153350653Y-124053293D01*
X153386505Y-124171483D01*
X153444727Y-124280408D01*
X153523079Y-124375881D01*
X153618552Y-124454233D01*
X153727477Y-124512455D01*
X153845667Y-124548307D01*
X153968580Y-124560413D01*
X154867740Y-124560413D01*
X154990653Y-124548307D01*
X155108843Y-124512455D01*
X155161514Y-124484301D01*
X155228080Y-124519882D01*
X155347778Y-124556192D01*
X155472260Y-124568452D01*
X155636090Y-124565380D01*
X155794840Y-124406630D01*
X155794840Y-123557000D01*
X155774840Y-123557000D01*
X155774840Y-123303000D01*
X155794840Y-123303000D01*
X155794840Y-122453370D01*
X155636090Y-122294620D01*
X155472260Y-122291548D01*
X155347778Y-122303808D01*
X155299160Y-122318556D01*
X155299160Y-122081453D01*
X155500380Y-122081453D01*
X155623293Y-122069347D01*
X155741483Y-122033495D01*
X155811631Y-121996000D01*
X156903733Y-121996000D01*
X156894967Y-122085000D01*
X156894967Y-122566609D01*
X156822605Y-122478435D01*
X156725914Y-122399083D01*
X156615600Y-122340118D01*
X156495902Y-122303808D01*
X156371420Y-122291548D01*
X156207590Y-122294620D01*
X156048840Y-122453370D01*
X156048840Y-123303000D01*
X156068840Y-123303000D01*
X156068840Y-123557000D01*
X156048840Y-123557000D01*
X156048840Y-124406630D01*
X156207590Y-124565380D01*
X156371420Y-124568452D01*
X156495902Y-124556192D01*
X156615600Y-124519882D01*
X156725914Y-124460917D01*
X156822605Y-124381565D01*
X156901957Y-124284874D01*
X156941630Y-124210652D01*
X156994463Y-124309494D01*
X157073815Y-124406185D01*
X157170506Y-124485537D01*
X157280820Y-124544502D01*
X157400518Y-124580812D01*
X157525000Y-124593072D01*
X158014250Y-124590000D01*
X158173000Y-124431250D01*
X158173000Y-123782000D01*
X158427000Y-123782000D01*
X158427000Y-124431250D01*
X158585750Y-124590000D01*
X159075000Y-124593072D01*
X159199482Y-124580812D01*
X159319180Y-124544502D01*
X159429494Y-124485537D01*
X159526185Y-124406185D01*
X159605537Y-124309494D01*
X159664502Y-124199180D01*
X159700812Y-124079482D01*
X159713072Y-123955000D01*
X159710000Y-123940750D01*
X159551250Y-123782000D01*
X158427000Y-123782000D01*
X158173000Y-123782000D01*
X158153000Y-123782000D01*
X158153000Y-123528000D01*
X158173000Y-123528000D01*
X158173000Y-123508000D01*
X158427000Y-123508000D01*
X158427000Y-123528000D01*
X159551250Y-123528000D01*
X159710000Y-123369250D01*
X159713072Y-123355000D01*
X159704609Y-123269069D01*
X159735770Y-123266000D01*
X159735773Y-123266000D01*
X159865206Y-123253252D01*
X160031275Y-123202875D01*
X160125120Y-123152714D01*
X160142125Y-123208774D01*
X160223932Y-123361825D01*
X160270483Y-123418547D01*
X160334026Y-123495975D01*
X160367640Y-123523561D01*
X161091438Y-124247360D01*
X161119025Y-124280975D01*
X161185022Y-124335137D01*
X161253174Y-124391068D01*
X161371348Y-124454233D01*
X161406225Y-124472875D01*
X161572294Y-124523252D01*
X161701727Y-124536000D01*
X161701730Y-124536000D01*
X161745000Y-124540262D01*
X161788270Y-124536000D01*
X162681886Y-124536000D01*
X162683897Y-124537075D01*
X162802087Y-124572927D01*
X162925000Y-124585033D01*
X164475000Y-124585033D01*
X164597913Y-124572927D01*
X164716103Y-124537075D01*
X164825028Y-124478853D01*
X164920501Y-124400501D01*
X164998853Y-124305028D01*
X165057075Y-124196103D01*
X165092927Y-124077913D01*
X165105033Y-123955000D01*
X165105033Y-123752955D01*
X165441855Y-124089777D01*
X165430653Y-124126707D01*
X165418547Y-124249620D01*
X165418547Y-125250380D01*
X165430653Y-125373293D01*
X165466505Y-125491483D01*
X165524727Y-125600408D01*
X165603079Y-125695881D01*
X165698552Y-125774233D01*
X165807477Y-125832455D01*
X165925667Y-125868307D01*
X166048580Y-125880413D01*
X166947740Y-125880413D01*
X167070653Y-125868307D01*
X167188843Y-125832455D01*
X167241514Y-125804301D01*
X167308080Y-125839882D01*
X167427778Y-125876192D01*
X167552260Y-125888452D01*
X167716090Y-125885380D01*
X167874840Y-125726630D01*
X167874840Y-124877000D01*
X167854840Y-124877000D01*
X167854840Y-124623000D01*
X167874840Y-124623000D01*
X167874840Y-123773370D01*
X168128840Y-123773370D01*
X168128840Y-124623000D01*
X168927670Y-124623000D01*
X169086420Y-124464250D01*
X169089492Y-124249620D01*
X169077232Y-124125138D01*
X169040922Y-124005440D01*
X168981957Y-123895126D01*
X168902605Y-123798435D01*
X168805914Y-123719083D01*
X168695600Y-123660118D01*
X168575902Y-123623808D01*
X168451420Y-123611548D01*
X168287590Y-123614620D01*
X168128840Y-123773370D01*
X167874840Y-123773370D01*
X167716090Y-123614620D01*
X167632862Y-123613059D01*
X167865509Y-123380413D01*
X168199580Y-123380413D01*
X168322493Y-123368307D01*
X168440683Y-123332455D01*
X168501840Y-123299766D01*
X168562997Y-123332455D01*
X168681187Y-123368307D01*
X168804100Y-123380413D01*
X168958566Y-123380413D01*
X169242001Y-123663848D01*
X169242001Y-123678771D01*
X169225767Y-123698552D01*
X169167545Y-123807477D01*
X169131693Y-123925667D01*
X169119587Y-124048580D01*
X169119587Y-124947740D01*
X169131693Y-125070653D01*
X169167545Y-125188843D01*
X169200312Y-125250145D01*
X169167925Y-125310737D01*
X169132073Y-125428927D01*
X169119967Y-125551840D01*
X169119967Y-125756599D01*
X168982545Y-125699677D01*
X168915155Y-125686272D01*
X168981957Y-125604874D01*
X169040922Y-125494560D01*
X169077232Y-125374862D01*
X169089492Y-125250380D01*
X169086420Y-125035750D01*
X168927670Y-124877000D01*
X168128840Y-124877000D01*
X168128840Y-125726630D01*
X168176741Y-125774531D01*
X168162454Y-125780449D01*
X167986958Y-125897711D01*
X167837711Y-126046958D01*
X167720449Y-126222454D01*
X167639677Y-126417455D01*
X167598500Y-126624466D01*
X167598500Y-126835534D01*
X167639677Y-127042545D01*
X167720449Y-127237546D01*
X167837711Y-127413042D01*
X167936001Y-127511332D01*
X167936001Y-127701389D01*
X167890392Y-127725767D01*
X167794919Y-127804119D01*
X167716567Y-127899592D01*
X167658345Y-128008517D01*
X167622493Y-128126707D01*
X167610387Y-128249620D01*
X167610387Y-129250380D01*
X167622493Y-129373293D01*
X167658345Y-129491483D01*
X167716567Y-129600408D01*
X167794919Y-129695881D01*
X167890392Y-129774233D01*
X167999317Y-129832455D01*
X168117507Y-129868307D01*
X168240420Y-129880413D01*
X169139580Y-129880413D01*
X169262493Y-129868307D01*
X169380683Y-129832455D01*
X169441840Y-129799766D01*
X169502997Y-129832455D01*
X169621187Y-129868307D01*
X169744100Y-129880413D01*
X170643260Y-129880413D01*
X170766173Y-129868307D01*
X170884363Y-129832455D01*
X170993288Y-129774233D01*
X171088761Y-129695881D01*
X171167113Y-129600408D01*
X171225335Y-129491483D01*
X171261187Y-129373293D01*
X171273293Y-129250380D01*
X171273293Y-128249620D01*
X171261187Y-128126707D01*
X171225335Y-128008517D01*
X171167113Y-127899592D01*
X171088761Y-127804119D01*
X170993288Y-127725767D01*
X170947680Y-127701389D01*
X170947680Y-127047087D01*
X170991103Y-127033915D01*
X171100028Y-126975693D01*
X171195501Y-126897341D01*
X171273853Y-126801868D01*
X171332075Y-126692943D01*
X171367927Y-126574753D01*
X171369587Y-126557899D01*
X171369587Y-127449580D01*
X171381693Y-127572493D01*
X171417545Y-127690683D01*
X171475767Y-127799608D01*
X171554119Y-127895081D01*
X171649592Y-127973433D01*
X171758517Y-128031655D01*
X171876707Y-128067507D01*
X171999620Y-128079613D01*
X173000380Y-128079613D01*
X173123293Y-128067507D01*
X173241483Y-128031655D01*
X173350408Y-127973433D01*
X173445881Y-127895081D01*
X173524233Y-127799608D01*
X173582455Y-127690683D01*
X173618307Y-127572493D01*
X173630413Y-127449580D01*
X173630413Y-126550420D01*
X173618307Y-126427507D01*
X173603195Y-126377690D01*
X173606950Y-126377320D01*
X173606953Y-126377320D01*
X173736386Y-126364572D01*
X173746513Y-126361500D01*
X173875534Y-126361500D01*
X174082545Y-126320323D01*
X174277546Y-126239551D01*
X174453042Y-126122289D01*
X174579705Y-125995626D01*
X174619000Y-126034922D01*
X174619001Y-127242317D01*
X174526594Y-127304061D01*
X174313901Y-127516754D01*
X174146790Y-127766854D01*
X174031681Y-128044750D01*
X173973000Y-128339764D01*
X173973000Y-128640556D01*
X174031681Y-128935570D01*
X174146790Y-129213466D01*
X174313901Y-129463566D01*
X174526594Y-129676259D01*
X174677701Y-129777225D01*
X174615525Y-129966080D01*
X175500000Y-130850555D01*
X176384475Y-129966080D01*
X176322299Y-129777225D01*
X176473406Y-129676259D01*
X176686099Y-129463566D01*
X176853210Y-129213466D01*
X176968319Y-128935570D01*
X177027000Y-128640556D01*
X177027000Y-128339764D01*
X176968319Y-128044750D01*
X176935316Y-127965072D01*
X179523000Y-127965072D01*
X179523000Y-128334808D01*
X179595132Y-128697441D01*
X179736624Y-129039033D01*
X179942039Y-129346458D01*
X180203482Y-129607901D01*
X180510907Y-129813316D01*
X180706489Y-129894329D01*
X180626738Y-129920966D01*
X180391914Y-130046483D01*
X180266000Y-130336455D01*
X181400000Y-131470455D01*
X182534000Y-130336455D01*
X182408086Y-130046483D01*
X182098871Y-129892108D01*
X182289093Y-129813316D01*
X182596518Y-129607901D01*
X182857961Y-129346458D01*
X183063376Y-129039033D01*
X183204868Y-128697441D01*
X183277000Y-128334808D01*
X183277000Y-127965072D01*
X183204868Y-127602439D01*
X183063376Y-127260847D01*
X182857961Y-126953422D01*
X182596518Y-126691979D01*
X182289093Y-126486564D01*
X181947501Y-126345072D01*
X181584868Y-126272940D01*
X181215132Y-126272940D01*
X180852499Y-126345072D01*
X180510907Y-126486564D01*
X180203482Y-126691979D01*
X179942039Y-126953422D01*
X179736624Y-127260847D01*
X179595132Y-127602439D01*
X179523000Y-127965072D01*
X176935316Y-127965072D01*
X176853210Y-127766854D01*
X176686099Y-127516754D01*
X176473406Y-127304061D01*
X176381000Y-127242317D01*
X176381000Y-125713270D01*
X176385262Y-125670000D01*
X176380165Y-125618252D01*
X176368252Y-125497294D01*
X176317875Y-125331225D01*
X176295840Y-125290000D01*
X176236068Y-125178174D01*
X176153559Y-125077637D01*
X176125975Y-125044025D01*
X176092362Y-125016440D01*
X174660002Y-123584080D01*
X179345525Y-123584080D01*
X179429208Y-123838261D01*
X179701775Y-123969158D01*
X179994642Y-124044365D01*
X180296553Y-124060991D01*
X180595907Y-124018397D01*
X180881199Y-123918222D01*
X181030792Y-123838261D01*
X181114475Y-123584080D01*
X180230000Y-122699605D01*
X179345525Y-123584080D01*
X174660002Y-123584080D01*
X174463566Y-123387645D01*
X174435975Y-123354025D01*
X174301825Y-123243932D01*
X174148775Y-123162125D01*
X173982706Y-123111748D01*
X173853273Y-123099000D01*
X173853270Y-123099000D01*
X173810000Y-123094738D01*
X173766730Y-123099000D01*
X172564922Y-123099000D01*
X172081000Y-122615078D01*
X172081000Y-122586553D01*
X178689009Y-122586553D01*
X178731603Y-122885907D01*
X178831778Y-123171199D01*
X178911739Y-123320792D01*
X179165920Y-123404475D01*
X180050395Y-122520000D01*
X179165920Y-121635525D01*
X178911739Y-121719208D01*
X178780842Y-121991775D01*
X178705635Y-122284642D01*
X178689009Y-122586553D01*
X172081000Y-122586553D01*
X172081000Y-121637288D01*
X172116630Y-121723306D01*
X172283741Y-121973406D01*
X172496434Y-122186099D01*
X172746534Y-122353210D01*
X173024430Y-122468319D01*
X173319444Y-122527000D01*
X173620236Y-122527000D01*
X173915250Y-122468319D01*
X174193146Y-122353210D01*
X174443246Y-122186099D01*
X174565265Y-122064080D01*
X175125365Y-122064080D01*
X175209048Y-122318261D01*
X175481615Y-122449158D01*
X175774482Y-122524365D01*
X176076393Y-122540991D01*
X176375747Y-122498397D01*
X176661039Y-122398222D01*
X176810632Y-122318261D01*
X176894315Y-122064080D01*
X176009840Y-121179605D01*
X175125365Y-122064080D01*
X174565265Y-122064080D01*
X174655939Y-121973406D01*
X174756905Y-121822299D01*
X174945760Y-121884475D01*
X175830235Y-121000000D01*
X176189445Y-121000000D01*
X177073920Y-121884475D01*
X177328101Y-121800792D01*
X177458998Y-121528225D01*
X177534205Y-121235358D01*
X177550831Y-120933447D01*
X177508237Y-120634093D01*
X177408062Y-120348801D01*
X177328101Y-120199208D01*
X177073920Y-120115525D01*
X176189445Y-121000000D01*
X175830235Y-121000000D01*
X174945760Y-120115525D01*
X174756905Y-120177701D01*
X174655939Y-120026594D01*
X174565265Y-119935920D01*
X175125365Y-119935920D01*
X176009840Y-120820395D01*
X176894315Y-119935920D01*
X176859314Y-119829604D01*
X178703000Y-119829604D01*
X178703000Y-120130396D01*
X178761681Y-120425410D01*
X178876790Y-120703306D01*
X179043901Y-120953406D01*
X179256594Y-121166099D01*
X179407701Y-121267065D01*
X179345525Y-121455920D01*
X180230000Y-122340395D01*
X181114475Y-121455920D01*
X181052299Y-121267065D01*
X181203406Y-121166099D01*
X181373689Y-120995816D01*
X181440901Y-121096406D01*
X181653594Y-121309099D01*
X181754184Y-121376311D01*
X181583901Y-121546594D01*
X181482935Y-121697701D01*
X181294080Y-121635525D01*
X180409605Y-122520000D01*
X181294080Y-123404475D01*
X181482935Y-123342299D01*
X181583901Y-123493406D01*
X181796594Y-123706099D01*
X182046694Y-123873210D01*
X182324590Y-123988319D01*
X182619604Y-124047000D01*
X182920396Y-124047000D01*
X183215410Y-123988319D01*
X183493306Y-123873210D01*
X183743406Y-123706099D01*
X183956099Y-123493406D01*
X184123210Y-123243306D01*
X184238319Y-122965410D01*
X184297000Y-122670396D01*
X184297000Y-122369604D01*
X184238319Y-122074590D01*
X184123210Y-121796694D01*
X183956099Y-121546594D01*
X183743406Y-121333901D01*
X183642816Y-121266689D01*
X183813099Y-121096406D01*
X183980210Y-120846306D01*
X184095319Y-120568410D01*
X184154000Y-120273396D01*
X184154000Y-119972604D01*
X184095319Y-119677590D01*
X183980210Y-119399694D01*
X183813099Y-119149594D01*
X183600406Y-118936901D01*
X183350306Y-118769790D01*
X183072410Y-118654681D01*
X182777396Y-118596000D01*
X182476604Y-118596000D01*
X182181590Y-118654681D01*
X181903694Y-118769790D01*
X181653594Y-118936901D01*
X181483311Y-119107184D01*
X181416099Y-119006594D01*
X181203406Y-118793901D01*
X180953306Y-118626790D01*
X180675410Y-118511681D01*
X180380396Y-118453000D01*
X180079604Y-118453000D01*
X179784590Y-118511681D01*
X179506694Y-118626790D01*
X179256594Y-118793901D01*
X179043901Y-119006594D01*
X178876790Y-119256694D01*
X178761681Y-119534590D01*
X178703000Y-119829604D01*
X176859314Y-119829604D01*
X176810632Y-119681739D01*
X176538065Y-119550842D01*
X176245198Y-119475635D01*
X175943287Y-119459009D01*
X175643933Y-119501603D01*
X175358641Y-119601778D01*
X175209048Y-119681739D01*
X175125365Y-119935920D01*
X174565265Y-119935920D01*
X174443246Y-119813901D01*
X174193146Y-119646790D01*
X173915250Y-119531681D01*
X173620236Y-119473000D01*
X173319444Y-119473000D01*
X173024430Y-119531681D01*
X172746534Y-119646790D01*
X172496434Y-119813901D01*
X172283741Y-120026594D01*
X172116630Y-120276694D01*
X172081000Y-120362712D01*
X172081000Y-115556062D01*
X172085262Y-115512792D01*
X172074731Y-115405873D01*
X172068252Y-115340086D01*
X172017875Y-115174017D01*
X171936068Y-115020967D01*
X171825975Y-114886817D01*
X171792356Y-114859227D01*
X171776317Y-114843188D01*
X171896099Y-114723406D01*
X171980000Y-114597839D01*
X172063901Y-114723406D01*
X172276594Y-114936099D01*
X172526694Y-115103210D01*
X172804590Y-115218319D01*
X173099604Y-115277000D01*
X173400396Y-115277000D01*
X173695410Y-115218319D01*
X173973306Y-115103210D01*
X174223406Y-114936099D01*
X174436099Y-114723406D01*
X174520000Y-114597839D01*
X174603901Y-114723406D01*
X174816594Y-114936099D01*
X175066694Y-115103210D01*
X175344590Y-115218319D01*
X175639604Y-115277000D01*
X175940396Y-115277000D01*
X176235410Y-115218319D01*
X176513306Y-115103210D01*
X176763406Y-114936099D01*
X176976099Y-114723406D01*
X177143210Y-114473306D01*
X177202116Y-114331095D01*
X177244307Y-114410028D01*
X177322659Y-114505501D01*
X177418132Y-114583853D01*
X177527057Y-114642075D01*
X177645247Y-114677927D01*
X177768160Y-114690033D01*
X178668160Y-114690033D01*
X178791073Y-114677927D01*
X178909263Y-114642075D01*
X178961369Y-114614224D01*
X179028080Y-114649882D01*
X179147778Y-114686192D01*
X179272260Y-114698452D01*
X179436090Y-114695380D01*
X179594840Y-114536630D01*
X179594840Y-113687000D01*
X179848840Y-113687000D01*
X179848840Y-114536630D01*
X180007590Y-114695380D01*
X180171420Y-114698452D01*
X180295902Y-114686192D01*
X180415600Y-114649882D01*
X180525914Y-114590917D01*
X180622605Y-114511565D01*
X180701957Y-114414874D01*
X180760922Y-114304560D01*
X180795558Y-114190380D01*
X180962348Y-114190380D01*
X180974608Y-114314862D01*
X181010918Y-114434560D01*
X181069883Y-114544874D01*
X181149235Y-114641565D01*
X181245926Y-114720917D01*
X181356240Y-114779882D01*
X181475938Y-114816192D01*
X181600420Y-114828452D01*
X181764250Y-114825380D01*
X181923000Y-114666630D01*
X181923000Y-113817000D01*
X181124170Y-113817000D01*
X180965420Y-113975750D01*
X180962348Y-114190380D01*
X180795558Y-114190380D01*
X180797232Y-114184862D01*
X180809492Y-114060380D01*
X180806420Y-113845750D01*
X180647670Y-113687000D01*
X179848840Y-113687000D01*
X179594840Y-113687000D01*
X179574840Y-113687000D01*
X179574840Y-113433000D01*
X179594840Y-113433000D01*
X179594840Y-112583370D01*
X179848840Y-112583370D01*
X179848840Y-113433000D01*
X180647670Y-113433000D01*
X180806420Y-113274250D01*
X180807631Y-113189620D01*
X180962348Y-113189620D01*
X180965420Y-113404250D01*
X181124170Y-113563000D01*
X181923000Y-113563000D01*
X181923000Y-112713370D01*
X181764250Y-112554620D01*
X181600420Y-112551548D01*
X181475938Y-112563808D01*
X181356240Y-112600118D01*
X181245926Y-112659083D01*
X181149235Y-112738435D01*
X181069883Y-112835126D01*
X181010918Y-112945440D01*
X180974608Y-113065138D01*
X180962348Y-113189620D01*
X180807631Y-113189620D01*
X180809492Y-113059620D01*
X180797232Y-112935138D01*
X180760922Y-112815440D01*
X180701957Y-112705126D01*
X180622605Y-112608435D01*
X180525914Y-112529083D01*
X180415600Y-112470118D01*
X180295902Y-112433808D01*
X180171420Y-112421548D01*
X180007590Y-112424620D01*
X179848840Y-112583370D01*
X179594840Y-112583370D01*
X179436090Y-112424620D01*
X179272260Y-112421548D01*
X179147778Y-112433808D01*
X179028080Y-112470118D01*
X178972160Y-112500008D01*
X178972160Y-112094156D01*
X179074816Y-111991500D01*
X179185534Y-111991500D01*
X179392545Y-111950323D01*
X179587546Y-111869551D01*
X179763042Y-111752289D01*
X179912289Y-111603042D01*
X180029551Y-111427546D01*
X180110323Y-111232545D01*
X180151500Y-111025534D01*
X180151500Y-110814466D01*
X180110323Y-110607455D01*
X180029551Y-110412454D01*
X179912289Y-110236958D01*
X179763042Y-110087711D01*
X179587546Y-109970449D01*
X179493919Y-109931668D01*
X181092760Y-108332827D01*
X181315132Y-108377060D01*
X181684868Y-108377060D01*
X181907240Y-108332828D01*
X182545681Y-108971269D01*
X182545680Y-112556088D01*
X182499580Y-112551548D01*
X182335750Y-112554620D01*
X182177000Y-112713370D01*
X182177000Y-113563000D01*
X182197000Y-113563000D01*
X182197000Y-113817000D01*
X182177000Y-113817000D01*
X182177000Y-114666630D01*
X182335750Y-114825380D01*
X182499580Y-114828452D01*
X182624062Y-114816192D01*
X182743760Y-114779882D01*
X182810471Y-114744224D01*
X182862577Y-114772075D01*
X182980767Y-114807927D01*
X183103680Y-114820033D01*
X184003680Y-114820033D01*
X184126593Y-114807927D01*
X184244783Y-114772075D01*
X184353708Y-114713853D01*
X184449181Y-114635501D01*
X184527533Y-114540028D01*
X184585755Y-114431103D01*
X184621607Y-114312913D01*
X184633713Y-114190000D01*
X184633713Y-113190000D01*
X184621607Y-113067087D01*
X184585755Y-112948897D01*
X184561680Y-112903856D01*
X184561680Y-108603246D01*
X184566556Y-108553739D01*
X184561680Y-108504232D01*
X184561680Y-108504222D01*
X184547095Y-108356137D01*
X184489456Y-108166129D01*
X184442124Y-108077578D01*
X184395856Y-107991015D01*
X184301458Y-107875990D01*
X184301452Y-107875984D01*
X184269892Y-107837528D01*
X184231436Y-107805968D01*
X183332768Y-106907300D01*
X183377000Y-106684928D01*
X183377000Y-106315192D01*
X183304868Y-105952559D01*
X183163376Y-105610967D01*
X182957961Y-105303542D01*
X182696518Y-105042099D01*
X182389093Y-104836684D01*
X182179819Y-104750000D01*
X182389093Y-104663316D01*
X182696518Y-104457901D01*
X182957961Y-104196458D01*
X183163376Y-103889033D01*
X183304868Y-103547441D01*
X183377000Y-103184808D01*
X183377000Y-102815072D01*
X183304868Y-102452439D01*
X183163376Y-102110847D01*
X182957961Y-101803422D01*
X182696518Y-101541979D01*
X182389093Y-101336564D01*
X182047501Y-101195072D01*
X181684868Y-101122940D01*
X181315132Y-101122940D01*
X181091339Y-101167455D01*
X180972559Y-101131423D01*
X180805812Y-101115000D01*
X180805811Y-101115000D01*
X180750060Y-101109509D01*
X180694309Y-101115000D01*
X176197928Y-101115000D01*
X176151355Y-101119587D01*
X175804100Y-101119587D01*
X175681187Y-101131693D01*
X175562997Y-101167545D01*
X175501840Y-101200234D01*
X175440683Y-101167545D01*
X175322493Y-101131693D01*
X175199580Y-101119587D01*
X174300420Y-101119587D01*
X174177507Y-101131693D01*
X174059317Y-101167545D01*
X173950392Y-101225767D01*
X173854919Y-101304119D01*
X173776567Y-101399592D01*
X173718345Y-101508517D01*
X173695937Y-101582386D01*
X173690987Y-101585032D01*
X173625493Y-101620039D01*
X173510682Y-101714262D01*
X173487067Y-101743037D01*
X173165533Y-102064571D01*
X173136763Y-102088182D01*
X173113152Y-102116952D01*
X173113151Y-102116953D01*
X173042539Y-102202994D01*
X172972526Y-102333981D01*
X172929410Y-102476111D01*
X172914853Y-102623920D01*
X172918501Y-102660961D01*
X172918500Y-104801517D01*
X172837700Y-104809475D01*
X172696061Y-104852440D01*
X172565526Y-104922213D01*
X172451111Y-105016111D01*
X172357213Y-105130526D01*
X172287440Y-105261061D01*
X172244475Y-105402700D01*
X172229967Y-105550000D01*
X172229967Y-105800000D01*
X172242056Y-105922738D01*
X172235999Y-105941740D01*
X172225000Y-106043250D01*
X172306675Y-106124925D01*
X172357213Y-106219474D01*
X172443816Y-106325000D01*
X172357213Y-106430526D01*
X172306675Y-106525075D01*
X172225000Y-106606750D01*
X172235999Y-106708260D01*
X172242056Y-106727262D01*
X172229967Y-106850000D01*
X172229967Y-107100000D01*
X172244475Y-107247300D01*
X172260461Y-107300000D01*
X172244475Y-107352700D01*
X172229967Y-107500000D01*
X172229967Y-107750000D01*
X172244475Y-107897300D01*
X172287440Y-108038939D01*
X172357213Y-108169474D01*
X172451111Y-108283889D01*
X172565526Y-108377787D01*
X172696061Y-108447560D01*
X172837700Y-108490525D01*
X172918501Y-108498483D01*
X172918501Y-109229039D01*
X172914853Y-109266080D01*
X172929410Y-109413889D01*
X172969837Y-109547154D01*
X172972526Y-109556019D01*
X173042540Y-109687007D01*
X173136763Y-109801818D01*
X173165533Y-109825429D01*
X173547067Y-110206963D01*
X173570682Y-110235738D01*
X173603565Y-110262724D01*
X173685493Y-110329961D01*
X173755937Y-110367614D01*
X173778345Y-110441483D01*
X173836567Y-110550408D01*
X173914919Y-110645881D01*
X174010392Y-110724233D01*
X174119317Y-110782455D01*
X174237507Y-110818307D01*
X174360420Y-110830413D01*
X175259580Y-110830413D01*
X175382493Y-110818307D01*
X175500683Y-110782455D01*
X175561840Y-110749766D01*
X175622997Y-110782455D01*
X175741187Y-110818307D01*
X175864100Y-110830413D01*
X176763260Y-110830413D01*
X176886173Y-110818307D01*
X177004363Y-110782455D01*
X177113288Y-110724233D01*
X177133068Y-110708000D01*
X178029677Y-110708000D01*
X178008500Y-110814466D01*
X178008500Y-110925184D01*
X177711192Y-111222492D01*
X177682423Y-111246102D01*
X177658812Y-111274872D01*
X177658811Y-111274873D01*
X177588199Y-111360914D01*
X177518186Y-111491901D01*
X177475070Y-111634031D01*
X177460513Y-111781840D01*
X177464161Y-111818881D01*
X177464161Y-112511544D01*
X177418132Y-112536147D01*
X177322659Y-112614499D01*
X177244307Y-112709972D01*
X177186085Y-112818897D01*
X177150233Y-112937087D01*
X177141639Y-113024343D01*
X176976099Y-112776594D01*
X176763406Y-112563901D01*
X176513306Y-112396790D01*
X176235410Y-112281681D01*
X175940396Y-112223000D01*
X175639604Y-112223000D01*
X175344590Y-112281681D01*
X175066694Y-112396790D01*
X174816594Y-112563901D01*
X174603901Y-112776594D01*
X174520000Y-112902161D01*
X174436099Y-112776594D01*
X174223406Y-112563901D01*
X173973306Y-112396790D01*
X173695410Y-112281681D01*
X173400396Y-112223000D01*
X173099604Y-112223000D01*
X172804590Y-112281681D01*
X172526694Y-112396790D01*
X172276594Y-112563901D01*
X172063901Y-112776594D01*
X171980000Y-112902161D01*
X171896099Y-112776594D01*
X171683406Y-112563901D01*
X171433306Y-112396790D01*
X171155410Y-112281681D01*
X170860396Y-112223000D01*
X170559604Y-112223000D01*
X170264590Y-112281681D01*
X169986694Y-112396790D01*
X169736594Y-112563901D01*
X169523901Y-112776594D01*
X169356790Y-113026694D01*
X169241681Y-113304590D01*
X169183000Y-113599604D01*
X169183000Y-113900396D01*
X169241681Y-114195410D01*
X169356790Y-114473306D01*
X169523901Y-114723406D01*
X169736594Y-114936099D01*
X169827307Y-114996711D01*
X169824738Y-115022792D01*
X169841749Y-115195497D01*
X169892125Y-115361566D01*
X169973932Y-115514617D01*
X170042085Y-115597661D01*
X170084026Y-115648767D01*
X170117640Y-115676353D01*
X170319000Y-115877713D01*
X170319000Y-116482683D01*
X167704000Y-113867684D01*
X167704000Y-108342316D01*
X168017539Y-108028777D01*
X168048987Y-108127436D01*
X168109495Y-108236911D01*
X168190197Y-108332478D01*
X168287994Y-108410465D01*
X168399125Y-108467874D01*
X168519322Y-108502499D01*
X168643963Y-108513009D01*
X169161750Y-108510000D01*
X169320500Y-108351250D01*
X169320500Y-107855033D01*
X169574500Y-107855033D01*
X169574500Y-108351250D01*
X169733250Y-108510000D01*
X170251037Y-108513009D01*
X170375678Y-108502499D01*
X170495875Y-108467874D01*
X170607006Y-108410465D01*
X170704803Y-108332478D01*
X170785505Y-108236911D01*
X170846013Y-108127436D01*
X170884001Y-108008260D01*
X170895000Y-107906750D01*
X170736250Y-107748000D01*
X170516658Y-107748000D01*
X170554474Y-107727787D01*
X170668889Y-107633889D01*
X170762787Y-107519474D01*
X170813325Y-107424925D01*
X170895000Y-107343250D01*
X170884001Y-107241740D01*
X170877944Y-107222738D01*
X170890033Y-107100000D01*
X170890033Y-106850000D01*
X170875525Y-106702700D01*
X170859539Y-106650000D01*
X170875525Y-106597300D01*
X170890033Y-106450000D01*
X170890033Y-106200000D01*
X170875525Y-106052700D01*
X170859539Y-106000000D01*
X170875525Y-105947300D01*
X170890033Y-105800000D01*
X170890033Y-105550000D01*
X170875525Y-105402700D01*
X170832560Y-105261061D01*
X170762787Y-105130526D01*
X170668889Y-105016111D01*
X170554474Y-104922213D01*
X170423939Y-104852440D01*
X170282300Y-104809475D01*
X170135000Y-104794967D01*
X168760000Y-104794967D01*
X168612700Y-104809475D01*
X168471061Y-104852440D01*
X168340526Y-104922213D01*
X168226111Y-105016111D01*
X168132213Y-105130526D01*
X168062440Y-105261061D01*
X168019475Y-105402700D01*
X168004967Y-105550000D01*
X168004967Y-105800000D01*
X168019475Y-105947300D01*
X168035461Y-106000000D01*
X168019475Y-106052700D01*
X168004967Y-106200000D01*
X168004967Y-106217356D01*
X167967971Y-106221000D01*
X167967961Y-106221000D01*
X167857190Y-106231910D01*
X167715061Y-106275025D01*
X167584073Y-106345039D01*
X167469262Y-106439262D01*
X167445651Y-106468032D01*
X166443032Y-107470652D01*
X166414263Y-107494262D01*
X166390652Y-107523032D01*
X166390651Y-107523033D01*
X166320039Y-107609074D01*
X166250026Y-107740061D01*
X166206910Y-107882191D01*
X166192353Y-108030000D01*
X166196001Y-108067041D01*
X166196000Y-114142969D01*
X166192353Y-114180000D01*
X166196000Y-114217031D01*
X166196000Y-114217038D01*
X166206910Y-114327809D01*
X166250025Y-114469938D01*
X166320039Y-114600926D01*
X166414262Y-114715738D01*
X166443037Y-114739353D01*
X169086001Y-117382318D01*
X169086001Y-117642403D01*
X169025600Y-117610118D01*
X168905902Y-117573808D01*
X168781420Y-117561548D01*
X168617590Y-117564620D01*
X168458840Y-117723370D01*
X168458840Y-118573000D01*
X168478840Y-118573000D01*
X168478840Y-118827000D01*
X168458840Y-118827000D01*
X168458840Y-118847000D01*
X168204840Y-118847000D01*
X168204840Y-118827000D01*
X168184840Y-118827000D01*
X168184840Y-118573000D01*
X168204840Y-118573000D01*
X168204840Y-117723370D01*
X168046090Y-117564620D01*
X167882260Y-117561548D01*
X167757778Y-117573808D01*
X167638080Y-117610118D01*
X167571369Y-117645776D01*
X167519263Y-117617925D01*
X167401073Y-117582073D01*
X167278160Y-117569967D01*
X166378160Y-117569967D01*
X166255247Y-117582073D01*
X166137057Y-117617925D01*
X166028132Y-117676147D01*
X165932659Y-117754499D01*
X165854307Y-117849972D01*
X165796085Y-117958897D01*
X165760233Y-118077087D01*
X165748127Y-118200000D01*
X165748127Y-118534111D01*
X165318239Y-118964000D01*
X164718114Y-118964000D01*
X164716103Y-118962925D01*
X164597913Y-118927073D01*
X164475000Y-118914967D01*
X162925000Y-118914967D01*
X162802087Y-118927073D01*
X162683897Y-118962925D01*
X162574972Y-119021147D01*
X162479499Y-119099499D01*
X162401147Y-119194972D01*
X162342925Y-119303897D01*
X162307073Y-119422087D01*
X162294967Y-119545000D01*
X162294967Y-120145000D01*
X162307073Y-120267913D01*
X162342925Y-120386103D01*
X162393114Y-120480000D01*
X162342925Y-120573897D01*
X162307073Y-120692087D01*
X162294967Y-120815000D01*
X162294967Y-121415000D01*
X162307073Y-121537913D01*
X162342925Y-121656103D01*
X162393114Y-121750000D01*
X162342925Y-121843897D01*
X162307073Y-121962087D01*
X162294967Y-122085000D01*
X162294967Y-122685000D01*
X162303733Y-122774000D01*
X162109922Y-122774000D01*
X161841000Y-122505079D01*
X161841000Y-121265269D01*
X161845262Y-121221999D01*
X161840588Y-121174545D01*
X161828252Y-121049294D01*
X161777875Y-120883225D01*
X161759904Y-120849604D01*
X161696068Y-120730174D01*
X161613559Y-120629637D01*
X161585975Y-120596025D01*
X161552362Y-120568440D01*
X160236566Y-119252645D01*
X160208975Y-119219025D01*
X160074825Y-119108932D01*
X159921775Y-119027125D01*
X159755706Y-118976748D01*
X159626273Y-118964000D01*
X159626270Y-118964000D01*
X159583000Y-118959738D01*
X159539730Y-118964000D01*
X159318114Y-118964000D01*
X159316103Y-118962925D01*
X159197913Y-118927073D01*
X159075000Y-118914967D01*
X157525000Y-118914967D01*
X157402087Y-118927073D01*
X157358282Y-118940361D01*
X157323726Y-118905805D01*
X157296135Y-118872185D01*
X157161985Y-118762092D01*
X157008935Y-118680285D01*
X156842866Y-118629908D01*
X156713433Y-118617160D01*
X156713430Y-118617160D01*
X156670160Y-118612898D01*
X156626890Y-118617160D01*
X155957437Y-118617160D01*
X155945881Y-118603079D01*
X155850408Y-118524727D01*
X155741483Y-118466505D01*
X155623293Y-118430653D01*
X155500380Y-118418547D01*
X154499620Y-118418547D01*
X154376707Y-118430653D01*
X154258517Y-118466505D01*
X154149592Y-118524727D01*
X154054119Y-118603079D01*
X153975767Y-118698552D01*
X153917545Y-118807477D01*
X153881693Y-118925667D01*
X153869587Y-119048580D01*
X153869587Y-119947740D01*
X153881693Y-120070653D01*
X153917545Y-120188843D01*
X153950234Y-120250000D01*
X153917545Y-120311157D01*
X153881693Y-120429347D01*
X153869587Y-120552260D01*
X153869587Y-120886332D01*
X153825805Y-120930114D01*
X153792185Y-120957705D01*
X153719181Y-121046663D01*
X153682092Y-121091855D01*
X153604445Y-121237124D01*
X153600285Y-121244906D01*
X153549908Y-121410975D01*
X153538360Y-121528225D01*
X153532898Y-121583680D01*
X153537160Y-121626951D01*
X153537160Y-122472563D01*
X153523079Y-122484119D01*
X153444727Y-122579592D01*
X153386505Y-122688517D01*
X153350653Y-122806707D01*
X153338547Y-122929620D01*
X152292159Y-122929620D01*
X152242702Y-115164770D01*
X154862318Y-115164770D01*
X154874578Y-115289252D01*
X154910888Y-115408950D01*
X154969853Y-115519264D01*
X155049205Y-115615955D01*
X155145896Y-115695307D01*
X155256210Y-115754272D01*
X155375908Y-115790582D01*
X155500390Y-115802842D01*
X156214130Y-115799770D01*
X156372880Y-115641020D01*
X156372880Y-114292280D01*
X156626880Y-114292280D01*
X156626880Y-115641020D01*
X156785630Y-115799770D01*
X157499370Y-115802842D01*
X157623852Y-115790582D01*
X157743550Y-115754272D01*
X157853864Y-115695307D01*
X157950555Y-115615955D01*
X158029907Y-115519264D01*
X158088872Y-115408950D01*
X158125182Y-115289252D01*
X158137442Y-115164770D01*
X158134370Y-114451030D01*
X157975620Y-114292280D01*
X156626880Y-114292280D01*
X156372880Y-114292280D01*
X155024140Y-114292280D01*
X154865390Y-114451030D01*
X154862318Y-115164770D01*
X152242702Y-115164770D01*
X152229970Y-113165790D01*
X154862318Y-113165790D01*
X154865390Y-113879530D01*
X155024140Y-114038280D01*
X156372880Y-114038280D01*
X156372880Y-112689540D01*
X156626880Y-112689540D01*
X156626880Y-114038280D01*
X157975620Y-114038280D01*
X158134370Y-113879530D01*
X158137442Y-113165790D01*
X160971437Y-113165790D01*
X160971437Y-115164770D01*
X160983543Y-115287683D01*
X161019395Y-115405873D01*
X161077617Y-115514798D01*
X161155969Y-115610271D01*
X161251442Y-115688623D01*
X161360367Y-115746845D01*
X161478557Y-115782697D01*
X161601470Y-115794803D01*
X163600450Y-115794803D01*
X163723363Y-115782697D01*
X163841553Y-115746845D01*
X163950478Y-115688623D01*
X164045951Y-115610271D01*
X164124303Y-115514798D01*
X164182525Y-115405873D01*
X164218377Y-115287683D01*
X164230483Y-115164770D01*
X164230483Y-113165790D01*
X164218377Y-113042877D01*
X164182525Y-112924687D01*
X164124303Y-112815762D01*
X164045951Y-112720289D01*
X163950478Y-112641937D01*
X163841553Y-112583715D01*
X163723363Y-112547863D01*
X163600450Y-112535757D01*
X161601470Y-112535757D01*
X161478557Y-112547863D01*
X161360367Y-112583715D01*
X161251442Y-112641937D01*
X161155969Y-112720289D01*
X161077617Y-112815762D01*
X161019395Y-112924687D01*
X160983543Y-113042877D01*
X160971437Y-113165790D01*
X158137442Y-113165790D01*
X158125182Y-113041308D01*
X158088872Y-112921610D01*
X158029907Y-112811296D01*
X157950555Y-112714605D01*
X157853864Y-112635253D01*
X157743550Y-112576288D01*
X157623852Y-112539978D01*
X157499370Y-112527718D01*
X156785630Y-112530790D01*
X156626880Y-112689540D01*
X156372880Y-112689540D01*
X156214130Y-112530790D01*
X155500390Y-112527718D01*
X155375908Y-112539978D01*
X155256210Y-112576288D01*
X155145896Y-112635253D01*
X155049205Y-112714605D01*
X154969853Y-112811296D01*
X154910888Y-112921610D01*
X154874578Y-113041308D01*
X154862318Y-113165790D01*
X152229970Y-113165790D01*
X152200824Y-108589805D01*
X154873390Y-108589805D01*
X154873390Y-108910195D01*
X154935895Y-109224430D01*
X155058503Y-109520432D01*
X155236503Y-109786827D01*
X155463053Y-110013377D01*
X155729448Y-110191377D01*
X156025450Y-110313985D01*
X156339685Y-110376490D01*
X156660075Y-110376490D01*
X156974310Y-110313985D01*
X157270312Y-110191377D01*
X157536707Y-110013377D01*
X157763257Y-109786827D01*
X157941257Y-109520432D01*
X158063865Y-109224430D01*
X158126370Y-108910195D01*
X158126370Y-108589805D01*
X159374270Y-108589805D01*
X159374270Y-108910195D01*
X159436775Y-109224430D01*
X159559383Y-109520432D01*
X159737383Y-109786827D01*
X159963933Y-110013377D01*
X160230328Y-110191377D01*
X160526330Y-110313985D01*
X160840565Y-110376490D01*
X161160955Y-110376490D01*
X161475190Y-110313985D01*
X161771192Y-110191377D01*
X162037587Y-110013377D01*
X162264137Y-109786827D01*
X162442137Y-109520432D01*
X162564745Y-109224430D01*
X162627250Y-108910195D01*
X162627250Y-108589805D01*
X162564745Y-108275570D01*
X162442137Y-107979568D01*
X162264137Y-107713173D01*
X162037587Y-107486623D01*
X161771192Y-107308623D01*
X161475190Y-107186015D01*
X161160955Y-107123510D01*
X160840565Y-107123510D01*
X160526330Y-107186015D01*
X160230328Y-107308623D01*
X159963933Y-107486623D01*
X159737383Y-107713173D01*
X159559383Y-107979568D01*
X159436775Y-108275570D01*
X159374270Y-108589805D01*
X158126370Y-108589805D01*
X158063865Y-108275570D01*
X157941257Y-107979568D01*
X157763257Y-107713173D01*
X157536707Y-107486623D01*
X157270312Y-107308623D01*
X156974310Y-107186015D01*
X156660075Y-107123510D01*
X156339685Y-107123510D01*
X156025450Y-107186015D01*
X155729448Y-107308623D01*
X155463053Y-107486623D01*
X155236503Y-107713173D01*
X155058503Y-107979568D01*
X154935895Y-108275570D01*
X154873390Y-108589805D01*
X152200824Y-108589805D01*
X152161018Y-102340310D01*
X154870357Y-102340310D01*
X154870357Y-104339290D01*
X154882463Y-104462203D01*
X154918315Y-104580393D01*
X154976537Y-104689318D01*
X155054889Y-104784791D01*
X155150362Y-104863143D01*
X155259287Y-104921365D01*
X155377477Y-104957217D01*
X155500390Y-104969323D01*
X157499370Y-104969323D01*
X157622283Y-104957217D01*
X157740473Y-104921365D01*
X157849398Y-104863143D01*
X157944871Y-104784791D01*
X158023223Y-104689318D01*
X158070003Y-104601800D01*
X161030837Y-104601800D01*
X161077617Y-104689318D01*
X161155969Y-104784791D01*
X161251442Y-104863143D01*
X161360367Y-104921365D01*
X161478557Y-104957217D01*
X161601470Y-104969323D01*
X163600450Y-104969323D01*
X163723363Y-104957217D01*
X163841553Y-104921365D01*
X163950478Y-104863143D01*
X164045951Y-104784791D01*
X164124303Y-104689318D01*
X164182525Y-104580393D01*
X164218377Y-104462203D01*
X164230483Y-104339290D01*
X164230483Y-102340310D01*
X164218377Y-102217397D01*
X164182525Y-102099207D01*
X164124303Y-101990282D01*
X164045951Y-101894809D01*
X163950478Y-101816457D01*
X163841553Y-101758235D01*
X163723363Y-101722383D01*
X163600450Y-101710277D01*
X161601470Y-101710277D01*
X161478557Y-101722383D01*
X161360367Y-101758235D01*
X161251442Y-101816457D01*
X161155969Y-101894809D01*
X161077617Y-101990282D01*
X161030837Y-102077800D01*
X158070003Y-102077800D01*
X158023223Y-101990282D01*
X157944871Y-101894809D01*
X157849398Y-101816457D01*
X157740473Y-101758235D01*
X157622283Y-101722383D01*
X157499370Y-101710277D01*
X155500390Y-101710277D01*
X155377477Y-101722383D01*
X155259287Y-101758235D01*
X155150362Y-101816457D01*
X155054889Y-101894809D01*
X154976537Y-101990282D01*
X154918315Y-102099207D01*
X154882463Y-102217397D01*
X154870357Y-102340310D01*
X152161018Y-102340310D01*
X152127811Y-97127000D01*
X185622595Y-97127000D01*
X185498404Y-136123000D01*
G36*
X175562997Y-103332455D02*
G01*
X175681187Y-103368307D01*
X175804100Y-103380413D01*
X176151355Y-103380413D01*
X176197928Y-103385000D01*
X179662821Y-103385000D01*
X179695132Y-103547441D01*
X179836624Y-103889033D01*
X180042039Y-104196458D01*
X180303482Y-104457901D01*
X180610907Y-104663316D01*
X180820181Y-104750000D01*
X180610907Y-104836684D01*
X180303482Y-105042099D01*
X180042039Y-105303542D01*
X179836624Y-105610967D01*
X179695132Y-105952559D01*
X179623000Y-106315192D01*
X179623000Y-106684928D01*
X179667233Y-106907300D01*
X177882533Y-108692000D01*
X177133068Y-108692000D01*
X177113288Y-108675767D01*
X177004363Y-108617545D01*
X176886173Y-108581693D01*
X176885636Y-108581640D01*
X176911103Y-108573915D01*
X177020028Y-108515693D01*
X177115501Y-108437341D01*
X177193853Y-108341868D01*
X177252075Y-108232943D01*
X177287927Y-108114753D01*
X177300033Y-107991840D01*
X177300033Y-107091840D01*
X177287927Y-106968927D01*
X177252075Y-106850737D01*
X177224224Y-106798631D01*
X177259882Y-106731920D01*
X177296192Y-106612222D01*
X177308452Y-106487740D01*
X177305380Y-106323910D01*
X177146630Y-106165160D01*
X176297000Y-106165160D01*
X176297000Y-106185160D01*
X176043000Y-106185160D01*
X176043000Y-106165160D01*
X176023000Y-106165160D01*
X176023000Y-105911160D01*
X176043000Y-105911160D01*
X176043000Y-105112330D01*
X176297000Y-105112330D01*
X176297000Y-105911160D01*
X177146630Y-105911160D01*
X177305380Y-105752410D01*
X177308452Y-105588580D01*
X177296192Y-105464098D01*
X177259882Y-105344400D01*
X177200917Y-105234086D01*
X177121565Y-105137395D01*
X177024874Y-105058043D01*
X176914560Y-104999078D01*
X176794862Y-104962768D01*
X176670380Y-104950508D01*
X176455750Y-104953580D01*
X176297000Y-105112330D01*
X176043000Y-105112330D01*
X175884250Y-104953580D01*
X175669620Y-104950508D01*
X175545138Y-104962768D01*
X175425440Y-104999078D01*
X175315126Y-105058043D01*
X175218435Y-105137395D01*
X175139083Y-105234086D01*
X175081855Y-105341151D01*
X175057560Y-105261061D01*
X174987787Y-105130526D01*
X174893889Y-105016111D01*
X174779474Y-104922213D01*
X174648939Y-104852440D01*
X174507300Y-104809475D01*
X174426500Y-104801517D01*
X174426500Y-103380413D01*
X175199580Y-103380413D01*
X175322493Y-103368307D01*
X175440683Y-103332455D01*
X175501840Y-103299766D01*
X175562997Y-103332455D01*
G37*
X175562997Y-103332455D02*
X175681187Y-103368307D01*
X175804100Y-103380413D01*
X176151355Y-103380413D01*
X176197928Y-103385000D01*
X179662821Y-103385000D01*
X179695132Y-103547441D01*
X179836624Y-103889033D01*
X180042039Y-104196458D01*
X180303482Y-104457901D01*
X180610907Y-104663316D01*
X180820181Y-104750000D01*
X180610907Y-104836684D01*
X180303482Y-105042099D01*
X180042039Y-105303542D01*
X179836624Y-105610967D01*
X179695132Y-105952559D01*
X179623000Y-106315192D01*
X179623000Y-106684928D01*
X179667233Y-106907300D01*
X177882533Y-108692000D01*
X177133068Y-108692000D01*
X177113288Y-108675767D01*
X177004363Y-108617545D01*
X176886173Y-108581693D01*
X176885636Y-108581640D01*
X176911103Y-108573915D01*
X177020028Y-108515693D01*
X177115501Y-108437341D01*
X177193853Y-108341868D01*
X177252075Y-108232943D01*
X177287927Y-108114753D01*
X177300033Y-107991840D01*
X177300033Y-107091840D01*
X177287927Y-106968927D01*
X177252075Y-106850737D01*
X177224224Y-106798631D01*
X177259882Y-106731920D01*
X177296192Y-106612222D01*
X177308452Y-106487740D01*
X177305380Y-106323910D01*
X177146630Y-106165160D01*
X176297000Y-106165160D01*
X176297000Y-106185160D01*
X176043000Y-106185160D01*
X176043000Y-106165160D01*
X176023000Y-106165160D01*
X176023000Y-105911160D01*
X176043000Y-105911160D01*
X176043000Y-105112330D01*
X176297000Y-105112330D01*
X176297000Y-105911160D01*
X177146630Y-105911160D01*
X177305380Y-105752410D01*
X177308452Y-105588580D01*
X177296192Y-105464098D01*
X177259882Y-105344400D01*
X177200917Y-105234086D01*
X177121565Y-105137395D01*
X177024874Y-105058043D01*
X176914560Y-104999078D01*
X176794862Y-104962768D01*
X176670380Y-104950508D01*
X176455750Y-104953580D01*
X176297000Y-105112330D01*
X176043000Y-105112330D01*
X175884250Y-104953580D01*
X175669620Y-104950508D01*
X175545138Y-104962768D01*
X175425440Y-104999078D01*
X175315126Y-105058043D01*
X175218435Y-105137395D01*
X175139083Y-105234086D01*
X175081855Y-105341151D01*
X175057560Y-105261061D01*
X174987787Y-105130526D01*
X174893889Y-105016111D01*
X174779474Y-104922213D01*
X174648939Y-104852440D01*
X174507300Y-104809475D01*
X174426500Y-104801517D01*
X174426500Y-103380413D01*
X175199580Y-103380413D01*
X175322493Y-103368307D01*
X175440683Y-103332455D01*
X175501840Y-103299766D01*
X175562997Y-103332455D01*
G36*
X175034620Y-106165162D02*
G01*
X175193368Y-106165162D01*
X175137530Y-106221000D01*
X175120000Y-106221000D01*
X175120000Y-106197998D01*
X174999266Y-106197998D01*
X175034620Y-106131856D01*
X175034620Y-106165162D01*
G37*
X175034620Y-106165162D02*
X175193368Y-106165162D01*
X175137530Y-106221000D01*
X175120000Y-106221000D01*
X175120000Y-106197998D01*
X174999266Y-106197998D01*
X175034620Y-106131856D01*
X175034620Y-106165162D01*
M02*
