G04 #@! TF.GenerationSoftware,KiCad,Pcbnew,5.1.5-52549c5~86~ubuntu18.04.1*
G04 #@! TF.CreationDate,2020-08-23T11:51:57-07:00*
G04 #@! TF.ProjectId,heat2sound_rx_rev01,68656174-3273-46f7-956e-645f72785f72,rev?*
G04 #@! TF.SameCoordinates,Original*
G04 #@! TF.FileFunction,Legend,Top*
G04 #@! TF.FilePolarity,Positive*
%FSLAX46Y46*%
G04 Gerber Fmt 4.6, Leading zero omitted, Abs format (unit mm)*
G04 Created by KiCad (PCBNEW 5.1.5-52549c5~86~ubuntu18.04.1) date 2020-08-23 11:51:57*
%MOMM*%
%LPD*%
G04 APERTURE LIST*
%ADD10C,0.250000*%
%ADD11C,0.175000*%
%ADD12C,0.254000*%
%ADD13C,0.300000*%
%ADD14C,0.317500*%
%ADD15C,0.304800*%
%ADD16C,0.127000*%
%ADD17C,0.200660*%
%ADD18C,0.150000*%
%ADD19C,0.381000*%
%ADD20C,0.200000*%
%ADD21C,0.120000*%
%ADD22C,0.190500*%
G04 APERTURE END LIST*
D10*
X183719047Y-125371428D02*
X184480952Y-125371428D01*
X184100000Y-125752380D02*
X184100000Y-124990476D01*
D11*
X176466666Y-118750000D02*
X176400000Y-118716666D01*
X176300000Y-118716666D01*
X176200000Y-118750000D01*
X176133333Y-118816666D01*
X176100000Y-118883333D01*
X176066666Y-119016666D01*
X176066666Y-119116666D01*
X176100000Y-119250000D01*
X176133333Y-119316666D01*
X176200000Y-119383333D01*
X176300000Y-119416666D01*
X176366666Y-119416666D01*
X176466666Y-119383333D01*
X176500000Y-119350000D01*
X176500000Y-119116666D01*
X176366666Y-119116666D01*
X176800000Y-119416666D02*
X176800000Y-118716666D01*
X177200000Y-119416666D01*
X177200000Y-118716666D01*
X177533333Y-119416666D02*
X177533333Y-118716666D01*
X177700000Y-118716666D01*
X177800000Y-118750000D01*
X177866666Y-118816666D01*
X177900000Y-118883333D01*
X177933333Y-119016666D01*
X177933333Y-119116666D01*
X177900000Y-119250000D01*
X177866666Y-119316666D01*
X177800000Y-119383333D01*
X177700000Y-119416666D01*
X177533333Y-119416666D01*
X172733333Y-119050000D02*
X173266666Y-119050000D01*
X173000000Y-119316666D02*
X173000000Y-118783333D01*
D12*
X152000000Y-135750000D02*
X152000000Y-97250000D01*
X185500000Y-136000000D02*
X152000000Y-136000000D01*
X185500000Y-97250000D02*
X185500000Y-135750000D01*
X152250000Y-97250000D02*
X185500000Y-97250000D01*
D13*
X172685714Y-133742857D02*
X172800000Y-133742857D01*
X172914285Y-133800000D01*
X172971428Y-133857142D01*
X173028571Y-133971428D01*
X173085714Y-134200000D01*
X173085714Y-134485714D01*
X173028571Y-134714285D01*
X172971428Y-134828571D01*
X172914285Y-134885714D01*
X172800000Y-134942857D01*
X172685714Y-134942857D01*
X172571428Y-134885714D01*
X172514285Y-134828571D01*
X172457142Y-134714285D01*
X172400000Y-134485714D01*
X172400000Y-134200000D01*
X172457142Y-133971428D01*
X172514285Y-133857142D01*
X172571428Y-133800000D01*
X172685714Y-133742857D01*
X173771428Y-134257142D02*
X173657142Y-134200000D01*
X173600000Y-134142857D01*
X173542857Y-134028571D01*
X173542857Y-133971428D01*
X173600000Y-133857142D01*
X173657142Y-133800000D01*
X173771428Y-133742857D01*
X174000000Y-133742857D01*
X174114285Y-133800000D01*
X174171428Y-133857142D01*
X174228571Y-133971428D01*
X174228571Y-134028571D01*
X174171428Y-134142857D01*
X174114285Y-134200000D01*
X174000000Y-134257142D01*
X173771428Y-134257142D01*
X173657142Y-134314285D01*
X173600000Y-134371428D01*
X173542857Y-134485714D01*
X173542857Y-134714285D01*
X173600000Y-134828571D01*
X173657142Y-134885714D01*
X173771428Y-134942857D01*
X174000000Y-134942857D01*
X174114285Y-134885714D01*
X174171428Y-134828571D01*
X174228571Y-134714285D01*
X174228571Y-134485714D01*
X174171428Y-134371428D01*
X174114285Y-134314285D01*
X174000000Y-134257142D01*
X175600000Y-133685714D02*
X174571428Y-135228571D01*
X175942857Y-133857142D02*
X176000000Y-133800000D01*
X176114285Y-133742857D01*
X176400000Y-133742857D01*
X176514285Y-133800000D01*
X176571428Y-133857142D01*
X176628571Y-133971428D01*
X176628571Y-134085714D01*
X176571428Y-134257142D01*
X175885714Y-134942857D01*
X176628571Y-134942857D01*
X177085714Y-133857142D02*
X177142857Y-133800000D01*
X177257142Y-133742857D01*
X177542857Y-133742857D01*
X177657142Y-133800000D01*
X177714285Y-133857142D01*
X177771428Y-133971428D01*
X177771428Y-134085714D01*
X177714285Y-134257142D01*
X177028571Y-134942857D01*
X177771428Y-134942857D01*
X179142857Y-133685714D02*
X178114285Y-135228571D01*
X179485714Y-133857142D02*
X179542857Y-133800000D01*
X179657142Y-133742857D01*
X179942857Y-133742857D01*
X180057142Y-133800000D01*
X180114285Y-133857142D01*
X180171428Y-133971428D01*
X180171428Y-134085714D01*
X180114285Y-134257142D01*
X179428571Y-134942857D01*
X180171428Y-134942857D01*
X180914285Y-133742857D02*
X181028571Y-133742857D01*
X181142857Y-133800000D01*
X181200000Y-133857142D01*
X181257142Y-133971428D01*
X181314285Y-134200000D01*
X181314285Y-134485714D01*
X181257142Y-134714285D01*
X181200000Y-134828571D01*
X181142857Y-134885714D01*
X181028571Y-134942857D01*
X180914285Y-134942857D01*
X180800000Y-134885714D01*
X180742857Y-134828571D01*
X180685714Y-134714285D01*
X180628571Y-134485714D01*
X180628571Y-134200000D01*
X180685714Y-133971428D01*
X180742857Y-133857142D01*
X180800000Y-133800000D01*
X180914285Y-133742857D01*
X181771428Y-133857142D02*
X181828571Y-133800000D01*
X181942857Y-133742857D01*
X182228571Y-133742857D01*
X182342857Y-133800000D01*
X182400000Y-133857142D01*
X182457142Y-133971428D01*
X182457142Y-134085714D01*
X182400000Y-134257142D01*
X181714285Y-134942857D01*
X182457142Y-134942857D01*
X183200000Y-133742857D02*
X183314285Y-133742857D01*
X183428571Y-133800000D01*
X183485714Y-133857142D01*
X183542857Y-133971428D01*
X183600000Y-134200000D01*
X183600000Y-134485714D01*
X183542857Y-134714285D01*
X183485714Y-134828571D01*
X183428571Y-134885714D01*
X183314285Y-134942857D01*
X183200000Y-134942857D01*
X183085714Y-134885714D01*
X183028571Y-134828571D01*
X182971428Y-134714285D01*
X182914285Y-134485714D01*
X182914285Y-134200000D01*
X182971428Y-133971428D01*
X183028571Y-133857142D01*
X183085714Y-133800000D01*
X183200000Y-133742857D01*
D10*
X178123809Y-123477380D02*
X178695238Y-123477380D01*
X178409523Y-124477380D02*
X178409523Y-123477380D01*
X179028571Y-124477380D02*
X179028571Y-123477380D01*
X179457142Y-124477380D02*
X179457142Y-123953571D01*
X179409523Y-123858333D01*
X179314285Y-123810714D01*
X179171428Y-123810714D01*
X179076190Y-123858333D01*
X179028571Y-123905952D01*
X180314285Y-124429761D02*
X180219047Y-124477380D01*
X180028571Y-124477380D01*
X179933333Y-124429761D01*
X179885714Y-124334523D01*
X179885714Y-123953571D01*
X179933333Y-123858333D01*
X180028571Y-123810714D01*
X180219047Y-123810714D01*
X180314285Y-123858333D01*
X180361904Y-123953571D01*
X180361904Y-124048809D01*
X179885714Y-124144047D01*
X180790476Y-124477380D02*
X180790476Y-123810714D01*
X180790476Y-124001190D02*
X180838095Y-123905952D01*
X180885714Y-123858333D01*
X180980952Y-123810714D01*
X181076190Y-123810714D01*
X181409523Y-124477380D02*
X181409523Y-123810714D01*
X181409523Y-123905952D02*
X181457142Y-123858333D01*
X181552380Y-123810714D01*
X181695238Y-123810714D01*
X181790476Y-123858333D01*
X181838095Y-123953571D01*
X181838095Y-124477380D01*
X181838095Y-123953571D02*
X181885714Y-123858333D01*
X181980952Y-123810714D01*
X182123809Y-123810714D01*
X182219047Y-123858333D01*
X182266666Y-123953571D01*
X182266666Y-124477380D01*
X182885714Y-124477380D02*
X182790476Y-124429761D01*
X182742857Y-124382142D01*
X182695238Y-124286904D01*
X182695238Y-124001190D01*
X182742857Y-123905952D01*
X182790476Y-123858333D01*
X182885714Y-123810714D01*
X183028571Y-123810714D01*
X183123809Y-123858333D01*
X183171428Y-123905952D01*
X183219047Y-124001190D01*
X183219047Y-124286904D01*
X183171428Y-124382142D01*
X183123809Y-124429761D01*
X183028571Y-124477380D01*
X182885714Y-124477380D01*
X180266666Y-125227380D02*
X180457142Y-125227380D01*
X180552380Y-125275000D01*
X180647619Y-125370238D01*
X180695238Y-125560714D01*
X180695238Y-125894047D01*
X180647619Y-126084523D01*
X180552380Y-126179761D01*
X180457142Y-126227380D01*
X180266666Y-126227380D01*
X180171428Y-126179761D01*
X180076190Y-126084523D01*
X180028571Y-125894047D01*
X180028571Y-125560714D01*
X180076190Y-125370238D01*
X180171428Y-125275000D01*
X180266666Y-125227380D01*
X181552380Y-125560714D02*
X181552380Y-126227380D01*
X181123809Y-125560714D02*
X181123809Y-126084523D01*
X181171428Y-126179761D01*
X181266666Y-126227380D01*
X181409523Y-126227380D01*
X181504761Y-126179761D01*
X181552380Y-126132142D01*
X181885714Y-125560714D02*
X182266666Y-125560714D01*
X182028571Y-125227380D02*
X182028571Y-126084523D01*
X182076190Y-126179761D01*
X182171428Y-126227380D01*
X182266666Y-126227380D01*
X177992380Y-109936547D02*
X178173809Y-109997023D01*
X178476190Y-109997023D01*
X178597142Y-109936547D01*
X178657619Y-109876071D01*
X178718095Y-109755119D01*
X178718095Y-109634166D01*
X178657619Y-109513214D01*
X178597142Y-109452738D01*
X178476190Y-109392261D01*
X178234285Y-109331785D01*
X178113333Y-109271309D01*
X178052857Y-109210833D01*
X177992380Y-109089880D01*
X177992380Y-108968928D01*
X178052857Y-108847976D01*
X178113333Y-108787500D01*
X178234285Y-108727023D01*
X178536666Y-108727023D01*
X178718095Y-108787500D01*
X179262380Y-109150357D02*
X179262380Y-110420357D01*
X179262380Y-109210833D02*
X179383333Y-109150357D01*
X179625238Y-109150357D01*
X179746190Y-109210833D01*
X179806666Y-109271309D01*
X179867142Y-109392261D01*
X179867142Y-109755119D01*
X179806666Y-109876071D01*
X179746190Y-109936547D01*
X179625238Y-109997023D01*
X179383333Y-109997023D01*
X179262380Y-109936547D01*
X180895238Y-109936547D02*
X180774285Y-109997023D01*
X180532380Y-109997023D01*
X180411428Y-109936547D01*
X180350952Y-109815595D01*
X180350952Y-109331785D01*
X180411428Y-109210833D01*
X180532380Y-109150357D01*
X180774285Y-109150357D01*
X180895238Y-109210833D01*
X180955714Y-109331785D01*
X180955714Y-109452738D01*
X180350952Y-109573690D01*
X182044285Y-109997023D02*
X182044285Y-109331785D01*
X181983809Y-109210833D01*
X181862857Y-109150357D01*
X181620952Y-109150357D01*
X181500000Y-109210833D01*
X182044285Y-109936547D02*
X181923333Y-109997023D01*
X181620952Y-109997023D01*
X181500000Y-109936547D01*
X181439523Y-109815595D01*
X181439523Y-109694642D01*
X181500000Y-109573690D01*
X181620952Y-109513214D01*
X181923333Y-109513214D01*
X182044285Y-109452738D01*
X182649047Y-109997023D02*
X182649047Y-108727023D01*
X182770000Y-109513214D02*
X183132857Y-109997023D01*
X183132857Y-109150357D02*
X182649047Y-109634166D01*
X184160952Y-109936547D02*
X184040000Y-109997023D01*
X183798095Y-109997023D01*
X183677142Y-109936547D01*
X183616666Y-109815595D01*
X183616666Y-109331785D01*
X183677142Y-109210833D01*
X183798095Y-109150357D01*
X184040000Y-109150357D01*
X184160952Y-109210833D01*
X184221428Y-109331785D01*
X184221428Y-109452738D01*
X183616666Y-109573690D01*
X184765714Y-109997023D02*
X184765714Y-109150357D01*
X184765714Y-109392261D02*
X184826190Y-109271309D01*
X184886666Y-109210833D01*
X185007619Y-109150357D01*
X185128571Y-109150357D01*
X180441666Y-110882023D02*
X180683571Y-110882023D01*
X180804523Y-110942500D01*
X180925476Y-111063452D01*
X180985952Y-111305357D01*
X180985952Y-111728690D01*
X180925476Y-111970595D01*
X180804523Y-112091547D01*
X180683571Y-112152023D01*
X180441666Y-112152023D01*
X180320714Y-112091547D01*
X180199761Y-111970595D01*
X180139285Y-111728690D01*
X180139285Y-111305357D01*
X180199761Y-111063452D01*
X180320714Y-110942500D01*
X180441666Y-110882023D01*
X182074523Y-111305357D02*
X182074523Y-112152023D01*
X181530238Y-111305357D02*
X181530238Y-111970595D01*
X181590714Y-112091547D01*
X181711666Y-112152023D01*
X181893095Y-112152023D01*
X182014047Y-112091547D01*
X182074523Y-112031071D01*
X182497857Y-111305357D02*
X182981666Y-111305357D01*
X182679285Y-110882023D02*
X182679285Y-111970595D01*
X182739761Y-112091547D01*
X182860714Y-112152023D01*
X182981666Y-112152023D01*
D14*
X164323809Y-99574523D02*
X164323809Y-98304523D01*
X164868095Y-99574523D02*
X164868095Y-98909285D01*
X164807619Y-98788333D01*
X164686666Y-98727857D01*
X164505238Y-98727857D01*
X164384285Y-98788333D01*
X164323809Y-98848809D01*
X165956666Y-99514047D02*
X165835714Y-99574523D01*
X165593809Y-99574523D01*
X165472857Y-99514047D01*
X165412380Y-99393095D01*
X165412380Y-98909285D01*
X165472857Y-98788333D01*
X165593809Y-98727857D01*
X165835714Y-98727857D01*
X165956666Y-98788333D01*
X166017142Y-98909285D01*
X166017142Y-99030238D01*
X165412380Y-99151190D01*
X167105714Y-99574523D02*
X167105714Y-98909285D01*
X167045238Y-98788333D01*
X166924285Y-98727857D01*
X166682380Y-98727857D01*
X166561428Y-98788333D01*
X167105714Y-99514047D02*
X166984761Y-99574523D01*
X166682380Y-99574523D01*
X166561428Y-99514047D01*
X166500952Y-99393095D01*
X166500952Y-99272142D01*
X166561428Y-99151190D01*
X166682380Y-99090714D01*
X166984761Y-99090714D01*
X167105714Y-99030238D01*
X167529047Y-98727857D02*
X168012857Y-98727857D01*
X167710476Y-98304523D02*
X167710476Y-99393095D01*
X167770952Y-99514047D01*
X167891904Y-99574523D01*
X168012857Y-99574523D01*
X168375714Y-98425476D02*
X168436190Y-98365000D01*
X168557142Y-98304523D01*
X168859523Y-98304523D01*
X168980476Y-98365000D01*
X169040952Y-98425476D01*
X169101428Y-98546428D01*
X169101428Y-98667380D01*
X169040952Y-98848809D01*
X168315238Y-99574523D01*
X169101428Y-99574523D01*
X169585238Y-99514047D02*
X169706190Y-99574523D01*
X169948095Y-99574523D01*
X170069047Y-99514047D01*
X170129523Y-99393095D01*
X170129523Y-99332619D01*
X170069047Y-99211666D01*
X169948095Y-99151190D01*
X169766666Y-99151190D01*
X169645714Y-99090714D01*
X169585238Y-98969761D01*
X169585238Y-98909285D01*
X169645714Y-98788333D01*
X169766666Y-98727857D01*
X169948095Y-98727857D01*
X170069047Y-98788333D01*
X170855238Y-99574523D02*
X170734285Y-99514047D01*
X170673809Y-99453571D01*
X170613333Y-99332619D01*
X170613333Y-98969761D01*
X170673809Y-98848809D01*
X170734285Y-98788333D01*
X170855238Y-98727857D01*
X171036666Y-98727857D01*
X171157619Y-98788333D01*
X171218095Y-98848809D01*
X171278571Y-98969761D01*
X171278571Y-99332619D01*
X171218095Y-99453571D01*
X171157619Y-99514047D01*
X171036666Y-99574523D01*
X170855238Y-99574523D01*
X172367142Y-98727857D02*
X172367142Y-99574523D01*
X171822857Y-98727857D02*
X171822857Y-99393095D01*
X171883333Y-99514047D01*
X172004285Y-99574523D01*
X172185714Y-99574523D01*
X172306666Y-99514047D01*
X172367142Y-99453571D01*
X172971904Y-98727857D02*
X172971904Y-99574523D01*
X172971904Y-98848809D02*
X173032380Y-98788333D01*
X173153333Y-98727857D01*
X173334761Y-98727857D01*
X173455714Y-98788333D01*
X173516190Y-98909285D01*
X173516190Y-99574523D01*
X174665238Y-99574523D02*
X174665238Y-98304523D01*
X174665238Y-99514047D02*
X174544285Y-99574523D01*
X174302380Y-99574523D01*
X174181428Y-99514047D01*
X174120952Y-99453571D01*
X174060476Y-99332619D01*
X174060476Y-98969761D01*
X174120952Y-98848809D01*
X174181428Y-98788333D01*
X174302380Y-98727857D01*
X174544285Y-98727857D01*
X174665238Y-98788333D01*
X174967619Y-99695476D02*
X175935238Y-99695476D01*
X176237619Y-99574523D02*
X176237619Y-98727857D01*
X176237619Y-98969761D02*
X176298095Y-98848809D01*
X176358571Y-98788333D01*
X176479523Y-98727857D01*
X176600476Y-98727857D01*
X176902857Y-99574523D02*
X177568095Y-98727857D01*
X176902857Y-98727857D02*
X177568095Y-99574523D01*
X177749523Y-99695476D02*
X178717142Y-99695476D01*
X179019523Y-99574523D02*
X179019523Y-98727857D01*
X179019523Y-98969761D02*
X179080000Y-98848809D01*
X179140476Y-98788333D01*
X179261428Y-98727857D01*
X179382380Y-98727857D01*
X180289523Y-99514047D02*
X180168571Y-99574523D01*
X179926666Y-99574523D01*
X179805714Y-99514047D01*
X179745238Y-99393095D01*
X179745238Y-98909285D01*
X179805714Y-98788333D01*
X179926666Y-98727857D01*
X180168571Y-98727857D01*
X180289523Y-98788333D01*
X180350000Y-98909285D01*
X180350000Y-99030238D01*
X179745238Y-99151190D01*
X180773333Y-98727857D02*
X181075714Y-99574523D01*
X181378095Y-98727857D01*
X182103809Y-98304523D02*
X182224761Y-98304523D01*
X182345714Y-98365000D01*
X182406190Y-98425476D01*
X182466666Y-98546428D01*
X182527142Y-98788333D01*
X182527142Y-99090714D01*
X182466666Y-99332619D01*
X182406190Y-99453571D01*
X182345714Y-99514047D01*
X182224761Y-99574523D01*
X182103809Y-99574523D01*
X181982857Y-99514047D01*
X181922380Y-99453571D01*
X181861904Y-99332619D01*
X181801428Y-99090714D01*
X181801428Y-98788333D01*
X181861904Y-98546428D01*
X181922380Y-98425476D01*
X181982857Y-98365000D01*
X182103809Y-98304523D01*
X183736666Y-99574523D02*
X183010952Y-99574523D01*
X183373809Y-99574523D02*
X183373809Y-98304523D01*
X183252857Y-98485952D01*
X183131904Y-98606904D01*
X183010952Y-98667380D01*
D15*
X153232380Y-116365000D02*
X153111428Y-116304523D01*
X152930000Y-116304523D01*
X152748571Y-116365000D01*
X152627619Y-116485952D01*
X152567142Y-116606904D01*
X152506666Y-116848809D01*
X152506666Y-117030238D01*
X152567142Y-117272142D01*
X152627619Y-117393095D01*
X152748571Y-117514047D01*
X152930000Y-117574523D01*
X153050952Y-117574523D01*
X153232380Y-117514047D01*
X153292857Y-117453571D01*
X153292857Y-117030238D01*
X153050952Y-117030238D01*
X153837142Y-117574523D02*
X153837142Y-116304523D01*
X154562857Y-117574523D01*
X154562857Y-116304523D01*
X155167619Y-117574523D02*
X155167619Y-116304523D01*
X155470000Y-116304523D01*
X155651428Y-116365000D01*
X155772380Y-116485952D01*
X155832857Y-116606904D01*
X155893333Y-116848809D01*
X155893333Y-117030238D01*
X155832857Y-117272142D01*
X155772380Y-117393095D01*
X155651428Y-117514047D01*
X155470000Y-117574523D01*
X155167619Y-117574523D01*
X155704047Y-99304523D02*
X155099285Y-99304523D01*
X155038809Y-99909285D01*
X155099285Y-99848809D01*
X155220238Y-99788333D01*
X155522619Y-99788333D01*
X155643571Y-99848809D01*
X155704047Y-99909285D01*
X155764523Y-100030238D01*
X155764523Y-100332619D01*
X155704047Y-100453571D01*
X155643571Y-100514047D01*
X155522619Y-100574523D01*
X155220238Y-100574523D01*
X155099285Y-100514047D01*
X155038809Y-100453571D01*
X156187857Y-99727857D02*
X156490238Y-100574523D01*
X156792619Y-99727857D01*
X158244047Y-100574523D02*
X158244047Y-99304523D01*
X158546428Y-99304523D01*
X158727857Y-99365000D01*
X158848809Y-99485952D01*
X158909285Y-99606904D01*
X158969761Y-99848809D01*
X158969761Y-100030238D01*
X158909285Y-100272142D01*
X158848809Y-100393095D01*
X158727857Y-100514047D01*
X158546428Y-100574523D01*
X158244047Y-100574523D01*
X160239761Y-100453571D02*
X160179285Y-100514047D01*
X159997857Y-100574523D01*
X159876904Y-100574523D01*
X159695476Y-100514047D01*
X159574523Y-100393095D01*
X159514047Y-100272142D01*
X159453571Y-100030238D01*
X159453571Y-99848809D01*
X159514047Y-99606904D01*
X159574523Y-99485952D01*
X159695476Y-99365000D01*
X159876904Y-99304523D01*
X159997857Y-99304523D01*
X160179285Y-99365000D01*
X160239761Y-99425476D01*
X161751666Y-100574523D02*
X161751666Y-99304523D01*
X162356428Y-99727857D02*
X162356428Y-100574523D01*
X162356428Y-99848809D02*
X162416904Y-99788333D01*
X162537857Y-99727857D01*
X162719285Y-99727857D01*
X162840238Y-99788333D01*
X162900714Y-99909285D01*
X162900714Y-100574523D01*
D12*
X177250000Y-119730000D02*
X172250000Y-119730000D01*
X177270000Y-119730000D02*
X177270000Y-122270000D01*
X177250000Y-122285240D02*
X172250000Y-122285240D01*
X172214760Y-122285240D02*
X172214760Y-119724920D01*
X167500000Y-134300000D02*
X167500000Y-126200000D01*
X153500000Y-134334320D02*
X167500000Y-134334320D01*
X153500000Y-126200000D02*
X153500000Y-134300000D01*
X167500000Y-126180920D02*
X153500000Y-126170760D01*
D16*
X166310000Y-119270000D02*
X166310000Y-118130000D01*
X168830000Y-119270000D02*
X166330000Y-119270000D01*
X168850000Y-118130000D02*
X168850000Y-119270000D01*
X166330000Y-118130000D02*
X168830000Y-118130000D01*
X169680000Y-126500000D02*
X169680000Y-124000000D01*
X169680000Y-123980000D02*
X170820000Y-123980000D01*
X170820000Y-124000000D02*
X170820000Y-126500000D01*
X170820000Y-126520000D02*
X169680000Y-126520000D01*
X171000000Y-131668160D02*
X171000000Y-134168160D01*
X171000000Y-134188160D02*
X169860000Y-134188160D01*
X169860000Y-134168160D02*
X169860000Y-131668160D01*
X169860000Y-131648160D02*
X171000000Y-131648160D01*
X176740000Y-108060000D02*
X175600000Y-108060000D01*
X176740000Y-105540000D02*
X176740000Y-108040000D01*
X175600000Y-105520000D02*
X176740000Y-105520000D01*
X175600000Y-108040000D02*
X175600000Y-105540000D01*
X184051840Y-114260000D02*
X181551840Y-114260000D01*
X181531840Y-114260000D02*
X181531840Y-113120000D01*
X181551840Y-113120000D02*
X184051840Y-113120000D01*
X184071840Y-113120000D02*
X184071840Y-114260000D01*
X177700000Y-114130000D02*
X177700000Y-112990000D01*
X180220000Y-114130000D02*
X177720000Y-114130000D01*
X180240000Y-112990000D02*
X180240000Y-114130000D01*
X177720000Y-112990000D02*
X180220000Y-112990000D01*
X174311840Y-109130000D02*
X176811840Y-109130000D01*
X176811840Y-110270000D02*
X174311840Y-110270000D01*
X174291840Y-110270000D02*
X174291840Y-109130000D01*
X176831840Y-110270000D02*
X176831840Y-109130000D01*
X176771840Y-102820000D02*
X176771840Y-101680000D01*
X174231840Y-102820000D02*
X174231840Y-101680000D01*
X176751840Y-102820000D02*
X174251840Y-102820000D01*
X174251840Y-101680000D02*
X176751840Y-101680000D01*
X152400000Y-112050000D02*
X153950000Y-112050000D01*
X153950000Y-112050000D02*
X153950000Y-105450000D01*
X153950000Y-105450000D02*
X152425000Y-105450000D01*
D17*
X167599680Y-115252400D02*
X152400320Y-115252400D01*
X152400320Y-115252400D02*
X152400320Y-102247600D01*
X152400320Y-102247600D02*
X167599680Y-102247600D01*
X167599680Y-102247600D02*
X167599680Y-115252400D01*
D12*
X177060000Y-112480000D02*
X169440000Y-112480000D01*
X177060000Y-112480000D02*
X177060000Y-115020000D01*
X177060000Y-115035240D02*
X169440000Y-115035240D01*
X169440000Y-115035240D02*
X169440000Y-112474920D01*
D18*
X183850000Y-132550000D02*
X184675000Y-132550000D01*
X183850000Y-130725000D02*
X183850000Y-132550000D01*
X184650000Y-130725000D02*
X183850000Y-130725000D01*
X184625000Y-127050000D02*
X183825000Y-127050000D01*
X183825000Y-127050000D02*
X183825000Y-128875000D01*
X183825000Y-128875000D02*
X184650000Y-128875000D01*
D19*
X184850000Y-126399880D02*
X177950000Y-126399880D01*
X177950000Y-126399880D02*
X177950000Y-133400120D01*
X177950000Y-133400120D02*
X184850000Y-133400120D01*
X184850000Y-133400120D02*
X184850000Y-126399880D01*
D18*
X183950000Y-107400000D02*
X184775000Y-107400000D01*
X183950000Y-105575000D02*
X183950000Y-107400000D01*
X184750000Y-105575000D02*
X183950000Y-105575000D01*
X184725000Y-101900000D02*
X183925000Y-101900000D01*
X183925000Y-101900000D02*
X183925000Y-103725000D01*
X183925000Y-103725000D02*
X184750000Y-103725000D01*
D19*
X184950000Y-101249880D02*
X178050000Y-101249880D01*
X178050000Y-101249880D02*
X178050000Y-108250120D01*
X178050000Y-108250120D02*
X184950000Y-108250120D01*
X184950000Y-108250120D02*
X184950000Y-101249880D01*
D16*
X153900000Y-122860000D02*
X153900000Y-124000000D01*
X156440000Y-122860000D02*
X156440000Y-124000000D01*
X153920000Y-122860000D02*
X156420000Y-122860000D01*
X156420000Y-124000000D02*
X153920000Y-124000000D01*
X155570000Y-118980000D02*
X154430000Y-118980000D01*
X155570000Y-121520000D02*
X154430000Y-121520000D01*
X155570000Y-119000000D02*
X155570000Y-121500000D01*
X154430000Y-121500000D02*
X154430000Y-119000000D01*
X165980000Y-124180000D02*
X165980000Y-125320000D01*
X168520000Y-124180000D02*
X168520000Y-125320000D01*
X166000000Y-124180000D02*
X168500000Y-124180000D01*
X168500000Y-125320000D02*
X166000000Y-125320000D01*
X167251840Y-121680000D02*
X169751840Y-121680000D01*
X169751840Y-122820000D02*
X167251840Y-122820000D01*
X167231840Y-122820000D02*
X167231840Y-121680000D01*
X169771840Y-122820000D02*
X169771840Y-121680000D01*
X173070000Y-124998160D02*
X173070000Y-127498160D01*
X171930000Y-127498160D02*
X171930000Y-124998160D01*
X171930000Y-124978160D02*
X173070000Y-124978160D01*
X171930000Y-127518160D02*
X173070000Y-127518160D01*
X170691840Y-129320000D02*
X168191840Y-129320000D01*
X168191840Y-128180000D02*
X170691840Y-128180000D01*
X170711840Y-128180000D02*
X170711840Y-129320000D01*
X168171840Y-128180000D02*
X168171840Y-129320000D01*
D20*
X158603553Y-119000000D02*
G75*
G03X158603553Y-119000000I-353553J0D01*
G01*
D18*
X158925000Y-119175000D02*
X158925000Y-119225000D01*
X163075000Y-119175000D02*
X163075000Y-119320000D01*
X163075000Y-124325000D02*
X163075000Y-124180000D01*
X158925000Y-124325000D02*
X158925000Y-124180000D01*
X158925000Y-119175000D02*
X163075000Y-119175000D01*
X158925000Y-124325000D02*
X163075000Y-124325000D01*
D21*
X171560000Y-108260000D02*
X173060000Y-108260000D01*
X171560000Y-108260000D02*
X170060000Y-108260000D01*
X171560000Y-105040000D02*
X173060000Y-105040000D01*
X171560000Y-105040000D02*
X168635000Y-105040000D01*
D22*
X174369428Y-116985714D02*
X174369428Y-117602571D01*
X174405714Y-117675142D01*
X174442000Y-117711428D01*
X174514571Y-117747714D01*
X174659714Y-117747714D01*
X174732285Y-117711428D01*
X174768571Y-117675142D01*
X174804857Y-117602571D01*
X174804857Y-116985714D01*
X175131428Y-117058285D02*
X175167714Y-117022000D01*
X175240285Y-116985714D01*
X175421714Y-116985714D01*
X175494285Y-117022000D01*
X175530571Y-117058285D01*
X175566857Y-117130857D01*
X175566857Y-117203428D01*
X175530571Y-117312285D01*
X175095142Y-117747714D01*
X175566857Y-117747714D01*
X173883571Y-119344714D02*
X173883571Y-118582714D01*
X174137571Y-119127000D01*
X174391571Y-118582714D01*
X174391571Y-119344714D01*
X174754428Y-119344714D02*
X174754428Y-118582714D01*
X175552714Y-119272142D02*
X175516428Y-119308428D01*
X175407571Y-119344714D01*
X175335000Y-119344714D01*
X175226142Y-119308428D01*
X175153571Y-119235857D01*
X175117285Y-119163285D01*
X175081000Y-119018142D01*
X175081000Y-118909285D01*
X175117285Y-118764142D01*
X175153571Y-118691571D01*
X175226142Y-118619000D01*
X175335000Y-118582714D01*
X175407571Y-118582714D01*
X175516428Y-118619000D01*
X175552714Y-118655285D01*
D15*
X160093600Y-124106828D02*
X160093600Y-125195400D01*
X160021028Y-125413114D01*
X159875885Y-125558257D01*
X159658171Y-125630828D01*
X159513028Y-125630828D01*
X161545028Y-124106828D02*
X160819314Y-124106828D01*
X160746742Y-124832542D01*
X160819314Y-124759971D01*
X160964457Y-124687400D01*
X161327314Y-124687400D01*
X161472457Y-124759971D01*
X161545028Y-124832542D01*
X161617600Y-124977685D01*
X161617600Y-125340542D01*
X161545028Y-125485685D01*
X161472457Y-125558257D01*
X161327314Y-125630828D01*
X160964457Y-125630828D01*
X160819314Y-125558257D01*
X160746742Y-125485685D01*
D18*
X167480000Y-117714285D02*
X167451428Y-117742857D01*
X167365714Y-117771428D01*
X167308571Y-117771428D01*
X167222857Y-117742857D01*
X167165714Y-117685714D01*
X167137142Y-117628571D01*
X167108571Y-117514285D01*
X167108571Y-117428571D01*
X167137142Y-117314285D01*
X167165714Y-117257142D01*
X167222857Y-117200000D01*
X167308571Y-117171428D01*
X167365714Y-117171428D01*
X167451428Y-117200000D01*
X167480000Y-117228571D01*
X168051428Y-117771428D02*
X167708571Y-117771428D01*
X167880000Y-117771428D02*
X167880000Y-117171428D01*
X167822857Y-117257142D01*
X167765714Y-117314285D01*
X167708571Y-117342857D01*
X166765714Y-120214285D02*
X166794285Y-120242857D01*
X166765714Y-120271428D01*
X166737142Y-120242857D01*
X166765714Y-120214285D01*
X166765714Y-120271428D01*
X167365714Y-120271428D02*
X167022857Y-120271428D01*
X167194285Y-120271428D02*
X167194285Y-119671428D01*
X167137142Y-119757142D01*
X167080000Y-119814285D01*
X167022857Y-119842857D01*
X167880000Y-119871428D02*
X167880000Y-120271428D01*
X167622857Y-119871428D02*
X167622857Y-120185714D01*
X167651428Y-120242857D01*
X167708571Y-120271428D01*
X167794285Y-120271428D01*
X167851428Y-120242857D01*
X167880000Y-120214285D01*
X168365714Y-119957142D02*
X168165714Y-119957142D01*
X168165714Y-120271428D02*
X168165714Y-119671428D01*
X168451428Y-119671428D01*
X169264285Y-125350000D02*
X169292857Y-125378571D01*
X169321428Y-125464285D01*
X169321428Y-125521428D01*
X169292857Y-125607142D01*
X169235714Y-125664285D01*
X169178571Y-125692857D01*
X169064285Y-125721428D01*
X168978571Y-125721428D01*
X168864285Y-125692857D01*
X168807142Y-125664285D01*
X168750000Y-125607142D01*
X168721428Y-125521428D01*
X168721428Y-125464285D01*
X168750000Y-125378571D01*
X168778571Y-125350000D01*
X168778571Y-125121428D02*
X168750000Y-125092857D01*
X168721428Y-125035714D01*
X168721428Y-124892857D01*
X168750000Y-124835714D01*
X168778571Y-124807142D01*
X168835714Y-124778571D01*
X168892857Y-124778571D01*
X168978571Y-124807142D01*
X169321428Y-125150000D01*
X169321428Y-124778571D01*
X170771428Y-123357142D02*
X170771428Y-123700000D01*
X170771428Y-123528571D02*
X170171428Y-123528571D01*
X170257142Y-123585714D01*
X170314285Y-123642857D01*
X170342857Y-123700000D01*
X170371428Y-122842857D02*
X170771428Y-122842857D01*
X170371428Y-123100000D02*
X170685714Y-123100000D01*
X170742857Y-123071428D01*
X170771428Y-123014285D01*
X170771428Y-122928571D01*
X170742857Y-122871428D01*
X170714285Y-122842857D01*
X170457142Y-122357142D02*
X170457142Y-122557142D01*
X170771428Y-122557142D02*
X170171428Y-122557142D01*
X170171428Y-122271428D01*
X171844285Y-133018160D02*
X171872857Y-133046731D01*
X171901428Y-133132445D01*
X171901428Y-133189588D01*
X171872857Y-133275302D01*
X171815714Y-133332445D01*
X171758571Y-133361017D01*
X171644285Y-133389588D01*
X171558571Y-133389588D01*
X171444285Y-133361017D01*
X171387142Y-133332445D01*
X171330000Y-133275302D01*
X171301428Y-133189588D01*
X171301428Y-133132445D01*
X171330000Y-133046731D01*
X171358571Y-133018160D01*
X171301428Y-132818160D02*
X171301428Y-132446731D01*
X171530000Y-132646731D01*
X171530000Y-132561017D01*
X171558571Y-132503874D01*
X171587142Y-132475302D01*
X171644285Y-132446731D01*
X171787142Y-132446731D01*
X171844285Y-132475302D01*
X171872857Y-132503874D01*
X171901428Y-132561017D01*
X171901428Y-132732445D01*
X171872857Y-132789588D01*
X171844285Y-132818160D01*
X169401428Y-133275302D02*
X169401428Y-133618160D01*
X169401428Y-133446731D02*
X168801428Y-133446731D01*
X168887142Y-133503874D01*
X168944285Y-133561017D01*
X168972857Y-133618160D01*
X169001428Y-132761017D02*
X169401428Y-132761017D01*
X169001428Y-133018160D02*
X169315714Y-133018160D01*
X169372857Y-132989588D01*
X169401428Y-132932445D01*
X169401428Y-132846731D01*
X169372857Y-132789588D01*
X169344285Y-132761017D01*
X169087142Y-132275302D02*
X169087142Y-132475302D01*
X169401428Y-132475302D02*
X168801428Y-132475302D01*
X168801428Y-132189588D01*
X177814285Y-105200000D02*
X177842857Y-105228571D01*
X177871428Y-105314285D01*
X177871428Y-105371428D01*
X177842857Y-105457142D01*
X177785714Y-105514285D01*
X177728571Y-105542857D01*
X177614285Y-105571428D01*
X177528571Y-105571428D01*
X177414285Y-105542857D01*
X177357142Y-105514285D01*
X177300000Y-105457142D01*
X177271428Y-105371428D01*
X177271428Y-105314285D01*
X177300000Y-105228571D01*
X177328571Y-105200000D01*
X177471428Y-104685714D02*
X177871428Y-104685714D01*
X177242857Y-104828571D02*
X177671428Y-104971428D01*
X177671428Y-104600000D01*
X177741428Y-107147142D02*
X177741428Y-107490000D01*
X177741428Y-107318571D02*
X177141428Y-107318571D01*
X177227142Y-107375714D01*
X177284285Y-107432857D01*
X177312857Y-107490000D01*
X177341428Y-106632857D02*
X177741428Y-106632857D01*
X177341428Y-106890000D02*
X177655714Y-106890000D01*
X177712857Y-106861428D01*
X177741428Y-106804285D01*
X177741428Y-106718571D01*
X177712857Y-106661428D01*
X177684285Y-106632857D01*
X177427142Y-106147142D02*
X177427142Y-106347142D01*
X177741428Y-106347142D02*
X177141428Y-106347142D01*
X177141428Y-106061428D01*
X182701840Y-115104285D02*
X182673268Y-115132857D01*
X182587554Y-115161428D01*
X182530411Y-115161428D01*
X182444697Y-115132857D01*
X182387554Y-115075714D01*
X182358982Y-115018571D01*
X182330411Y-114904285D01*
X182330411Y-114818571D01*
X182358982Y-114704285D01*
X182387554Y-114647142D01*
X182444697Y-114590000D01*
X182530411Y-114561428D01*
X182587554Y-114561428D01*
X182673268Y-114590000D01*
X182701840Y-114618571D01*
X183244697Y-114561428D02*
X182958982Y-114561428D01*
X182930411Y-114847142D01*
X182958982Y-114818571D01*
X183016125Y-114790000D01*
X183158982Y-114790000D01*
X183216125Y-114818571D01*
X183244697Y-114847142D01*
X183273268Y-114904285D01*
X183273268Y-115047142D01*
X183244697Y-115104285D01*
X183216125Y-115132857D01*
X183158982Y-115161428D01*
X183016125Y-115161428D01*
X182958982Y-115132857D01*
X182930411Y-115104285D01*
X180428571Y-115728571D02*
X180457142Y-115700000D01*
X180514285Y-115671428D01*
X180657142Y-115671428D01*
X180714285Y-115700000D01*
X180742857Y-115728571D01*
X180771428Y-115785714D01*
X180771428Y-115842857D01*
X180742857Y-115928571D01*
X180400000Y-116271428D01*
X180771428Y-116271428D01*
X181000000Y-115728571D02*
X181028571Y-115700000D01*
X181085714Y-115671428D01*
X181228571Y-115671428D01*
X181285714Y-115700000D01*
X181314285Y-115728571D01*
X181342857Y-115785714D01*
X181342857Y-115842857D01*
X181314285Y-115928571D01*
X180971428Y-116271428D01*
X181342857Y-116271428D01*
X181714285Y-115671428D02*
X181771428Y-115671428D01*
X181828571Y-115700000D01*
X181857142Y-115728571D01*
X181885714Y-115785714D01*
X181914285Y-115900000D01*
X181914285Y-116042857D01*
X181885714Y-116157142D01*
X181857142Y-116214285D01*
X181828571Y-116242857D01*
X181771428Y-116271428D01*
X181714285Y-116271428D01*
X181657142Y-116242857D01*
X181628571Y-116214285D01*
X181600000Y-116157142D01*
X181571428Y-116042857D01*
X181571428Y-115900000D01*
X181600000Y-115785714D01*
X181628571Y-115728571D01*
X181657142Y-115700000D01*
X181714285Y-115671428D01*
X182171428Y-115871428D02*
X182171428Y-116471428D01*
X182171428Y-115900000D02*
X182228571Y-115871428D01*
X182342857Y-115871428D01*
X182400000Y-115900000D01*
X182428571Y-115928571D01*
X182457142Y-115985714D01*
X182457142Y-116157142D01*
X182428571Y-116214285D01*
X182400000Y-116242857D01*
X182342857Y-116271428D01*
X182228571Y-116271428D01*
X182171428Y-116242857D01*
X182914285Y-115957142D02*
X182714285Y-115957142D01*
X182714285Y-116271428D02*
X182714285Y-115671428D01*
X183000000Y-115671428D01*
X178870000Y-112574285D02*
X178841428Y-112602857D01*
X178755714Y-112631428D01*
X178698571Y-112631428D01*
X178612857Y-112602857D01*
X178555714Y-112545714D01*
X178527142Y-112488571D01*
X178498571Y-112374285D01*
X178498571Y-112288571D01*
X178527142Y-112174285D01*
X178555714Y-112117142D01*
X178612857Y-112060000D01*
X178698571Y-112031428D01*
X178755714Y-112031428D01*
X178841428Y-112060000D01*
X178870000Y-112088571D01*
X179384285Y-112031428D02*
X179270000Y-112031428D01*
X179212857Y-112060000D01*
X179184285Y-112088571D01*
X179127142Y-112174285D01*
X179098571Y-112288571D01*
X179098571Y-112517142D01*
X179127142Y-112574285D01*
X179155714Y-112602857D01*
X179212857Y-112631428D01*
X179327142Y-112631428D01*
X179384285Y-112602857D01*
X179412857Y-112574285D01*
X179441428Y-112517142D01*
X179441428Y-112374285D01*
X179412857Y-112317142D01*
X179384285Y-112288571D01*
X179327142Y-112260000D01*
X179212857Y-112260000D01*
X179155714Y-112288571D01*
X179127142Y-112317142D01*
X179098571Y-112374285D01*
X177698571Y-114588571D02*
X177727142Y-114560000D01*
X177784285Y-114531428D01*
X177927142Y-114531428D01*
X177984285Y-114560000D01*
X178012857Y-114588571D01*
X178041428Y-114645714D01*
X178041428Y-114702857D01*
X178012857Y-114788571D01*
X177670000Y-115131428D01*
X178041428Y-115131428D01*
X178270000Y-114588571D02*
X178298571Y-114560000D01*
X178355714Y-114531428D01*
X178498571Y-114531428D01*
X178555714Y-114560000D01*
X178584285Y-114588571D01*
X178612857Y-114645714D01*
X178612857Y-114702857D01*
X178584285Y-114788571D01*
X178241428Y-115131428D01*
X178612857Y-115131428D01*
X178984285Y-114531428D02*
X179041428Y-114531428D01*
X179098571Y-114560000D01*
X179127142Y-114588571D01*
X179155714Y-114645714D01*
X179184285Y-114760000D01*
X179184285Y-114902857D01*
X179155714Y-115017142D01*
X179127142Y-115074285D01*
X179098571Y-115102857D01*
X179041428Y-115131428D01*
X178984285Y-115131428D01*
X178927142Y-115102857D01*
X178898571Y-115074285D01*
X178870000Y-115017142D01*
X178841428Y-114902857D01*
X178841428Y-114760000D01*
X178870000Y-114645714D01*
X178898571Y-114588571D01*
X178927142Y-114560000D01*
X178984285Y-114531428D01*
X179441428Y-114731428D02*
X179441428Y-115331428D01*
X179441428Y-114760000D02*
X179498571Y-114731428D01*
X179612857Y-114731428D01*
X179670000Y-114760000D01*
X179698571Y-114788571D01*
X179727142Y-114845714D01*
X179727142Y-115017142D01*
X179698571Y-115074285D01*
X179670000Y-115102857D01*
X179612857Y-115131428D01*
X179498571Y-115131428D01*
X179441428Y-115102857D01*
X180184285Y-114817142D02*
X179984285Y-114817142D01*
X179984285Y-115131428D02*
X179984285Y-114531428D01*
X180270000Y-114531428D01*
X175061840Y-110857142D02*
X174861840Y-110857142D01*
X174861840Y-111171428D02*
X174861840Y-110571428D01*
X175147554Y-110571428D01*
X175576125Y-110857142D02*
X175661840Y-110885714D01*
X175690411Y-110914285D01*
X175718982Y-110971428D01*
X175718982Y-111057142D01*
X175690411Y-111114285D01*
X175661840Y-111142857D01*
X175604697Y-111171428D01*
X175376125Y-111171428D01*
X175376125Y-110571428D01*
X175576125Y-110571428D01*
X175633268Y-110600000D01*
X175661840Y-110628571D01*
X175690411Y-110685714D01*
X175690411Y-110742857D01*
X175661840Y-110800000D01*
X175633268Y-110828571D01*
X175576125Y-110857142D01*
X175376125Y-110857142D01*
X176290411Y-111171428D02*
X175947554Y-111171428D01*
X176118982Y-111171428D02*
X176118982Y-110571428D01*
X176061840Y-110657142D01*
X176004697Y-110714285D01*
X175947554Y-110742857D01*
X168635714Y-110371428D02*
X168864285Y-110371428D01*
X168721428Y-110771428D02*
X168721428Y-110257142D01*
X168750000Y-110200000D01*
X168807142Y-110171428D01*
X168864285Y-110171428D01*
X169292857Y-110742857D02*
X169235714Y-110771428D01*
X169121428Y-110771428D01*
X169064285Y-110742857D01*
X169035714Y-110685714D01*
X169035714Y-110457142D01*
X169064285Y-110400000D01*
X169121428Y-110371428D01*
X169235714Y-110371428D01*
X169292857Y-110400000D01*
X169321428Y-110457142D01*
X169321428Y-110514285D01*
X169035714Y-110571428D01*
X169578571Y-110771428D02*
X169578571Y-110371428D01*
X169578571Y-110485714D02*
X169607142Y-110428571D01*
X169635714Y-110400000D01*
X169692857Y-110371428D01*
X169750000Y-110371428D01*
X169950000Y-110771428D02*
X169950000Y-110371428D01*
X169950000Y-110485714D02*
X169978571Y-110428571D01*
X170007142Y-110400000D01*
X170064285Y-110371428D01*
X170121428Y-110371428D01*
X170321428Y-110771428D02*
X170321428Y-110371428D01*
X170321428Y-110171428D02*
X170292857Y-110200000D01*
X170321428Y-110228571D01*
X170350000Y-110200000D01*
X170321428Y-110171428D01*
X170321428Y-110228571D01*
X170521428Y-110371428D02*
X170750000Y-110371428D01*
X170607142Y-110171428D02*
X170607142Y-110685714D01*
X170635714Y-110742857D01*
X170692857Y-110771428D01*
X170750000Y-110771428D01*
X171178571Y-110742857D02*
X171121428Y-110771428D01*
X171007142Y-110771428D01*
X170950000Y-110742857D01*
X170921428Y-110685714D01*
X170921428Y-110457142D01*
X170950000Y-110400000D01*
X171007142Y-110371428D01*
X171121428Y-110371428D01*
X171178571Y-110400000D01*
X171207142Y-110457142D01*
X171207142Y-110514285D01*
X170921428Y-110571428D01*
X171321428Y-110828571D02*
X171778571Y-110828571D01*
X171921428Y-110771428D02*
X171921428Y-110171428D01*
X171921428Y-110400000D02*
X171978571Y-110371428D01*
X172092857Y-110371428D01*
X172150000Y-110400000D01*
X172178571Y-110428571D01*
X172207142Y-110485714D01*
X172207142Y-110657142D01*
X172178571Y-110714285D01*
X172150000Y-110742857D01*
X172092857Y-110771428D01*
X171978571Y-110771428D01*
X171921428Y-110742857D01*
X172692857Y-110742857D02*
X172635714Y-110771428D01*
X172521428Y-110771428D01*
X172464285Y-110742857D01*
X172435714Y-110685714D01*
X172435714Y-110457142D01*
X172464285Y-110400000D01*
X172521428Y-110371428D01*
X172635714Y-110371428D01*
X172692857Y-110400000D01*
X172721428Y-110457142D01*
X172721428Y-110514285D01*
X172435714Y-110571428D01*
X173235714Y-110771428D02*
X173235714Y-110457142D01*
X173207142Y-110400000D01*
X173150000Y-110371428D01*
X173035714Y-110371428D01*
X172978571Y-110400000D01*
X173235714Y-110742857D02*
X173178571Y-110771428D01*
X173035714Y-110771428D01*
X172978571Y-110742857D01*
X172950000Y-110685714D01*
X172950000Y-110628571D01*
X172978571Y-110571428D01*
X173035714Y-110542857D01*
X173178571Y-110542857D01*
X173235714Y-110514285D01*
X173778571Y-110771428D02*
X173778571Y-110171428D01*
X173778571Y-110742857D02*
X173721428Y-110771428D01*
X173607142Y-110771428D01*
X173550000Y-110742857D01*
X173521428Y-110714285D01*
X173492857Y-110657142D01*
X173492857Y-110485714D01*
X173521428Y-110428571D01*
X173550000Y-110400000D01*
X173607142Y-110371428D01*
X173721428Y-110371428D01*
X173778571Y-110400000D01*
X175001840Y-103407142D02*
X174801840Y-103407142D01*
X174801840Y-103721428D02*
X174801840Y-103121428D01*
X175087554Y-103121428D01*
X175516125Y-103407142D02*
X175601840Y-103435714D01*
X175630411Y-103464285D01*
X175658982Y-103521428D01*
X175658982Y-103607142D01*
X175630411Y-103664285D01*
X175601840Y-103692857D01*
X175544697Y-103721428D01*
X175316125Y-103721428D01*
X175316125Y-103121428D01*
X175516125Y-103121428D01*
X175573268Y-103150000D01*
X175601840Y-103178571D01*
X175630411Y-103235714D01*
X175630411Y-103292857D01*
X175601840Y-103350000D01*
X175573268Y-103378571D01*
X175516125Y-103407142D01*
X175316125Y-103407142D01*
X175887554Y-103178571D02*
X175916125Y-103150000D01*
X175973268Y-103121428D01*
X176116125Y-103121428D01*
X176173268Y-103150000D01*
X176201840Y-103178571D01*
X176230411Y-103235714D01*
X176230411Y-103292857D01*
X176201840Y-103378571D01*
X175858982Y-103721428D01*
X176230411Y-103721428D01*
X172787554Y-100821428D02*
X173016125Y-100821428D01*
X172873268Y-101221428D02*
X172873268Y-100707142D01*
X172901840Y-100650000D01*
X172958982Y-100621428D01*
X173016125Y-100621428D01*
X173444697Y-101192857D02*
X173387554Y-101221428D01*
X173273268Y-101221428D01*
X173216125Y-101192857D01*
X173187554Y-101135714D01*
X173187554Y-100907142D01*
X173216125Y-100850000D01*
X173273268Y-100821428D01*
X173387554Y-100821428D01*
X173444697Y-100850000D01*
X173473268Y-100907142D01*
X173473268Y-100964285D01*
X173187554Y-101021428D01*
X173730411Y-101221428D02*
X173730411Y-100821428D01*
X173730411Y-100935714D02*
X173758982Y-100878571D01*
X173787554Y-100850000D01*
X173844697Y-100821428D01*
X173901840Y-100821428D01*
X174101840Y-101221428D02*
X174101840Y-100821428D01*
X174101840Y-100935714D02*
X174130411Y-100878571D01*
X174158982Y-100850000D01*
X174216125Y-100821428D01*
X174273268Y-100821428D01*
X174473268Y-101221428D02*
X174473268Y-100821428D01*
X174473268Y-100621428D02*
X174444697Y-100650000D01*
X174473268Y-100678571D01*
X174501840Y-100650000D01*
X174473268Y-100621428D01*
X174473268Y-100678571D01*
X174673268Y-100821428D02*
X174901840Y-100821428D01*
X174758982Y-100621428D02*
X174758982Y-101135714D01*
X174787554Y-101192857D01*
X174844697Y-101221428D01*
X174901840Y-101221428D01*
X175330411Y-101192857D02*
X175273268Y-101221428D01*
X175158982Y-101221428D01*
X175101840Y-101192857D01*
X175073268Y-101135714D01*
X175073268Y-100907142D01*
X175101840Y-100850000D01*
X175158982Y-100821428D01*
X175273268Y-100821428D01*
X175330411Y-100850000D01*
X175358982Y-100907142D01*
X175358982Y-100964285D01*
X175073268Y-101021428D01*
X175473268Y-101278571D02*
X175930411Y-101278571D01*
X176073268Y-101221428D02*
X176073268Y-100621428D01*
X176073268Y-100850000D02*
X176130411Y-100821428D01*
X176244697Y-100821428D01*
X176301840Y-100850000D01*
X176330411Y-100878571D01*
X176358982Y-100935714D01*
X176358982Y-101107142D01*
X176330411Y-101164285D01*
X176301840Y-101192857D01*
X176244697Y-101221428D01*
X176130411Y-101221428D01*
X176073268Y-101192857D01*
X176844697Y-101192857D02*
X176787554Y-101221428D01*
X176673268Y-101221428D01*
X176616125Y-101192857D01*
X176587554Y-101135714D01*
X176587554Y-100907142D01*
X176616125Y-100850000D01*
X176673268Y-100821428D01*
X176787554Y-100821428D01*
X176844697Y-100850000D01*
X176873268Y-100907142D01*
X176873268Y-100964285D01*
X176587554Y-101021428D01*
X177387554Y-101221428D02*
X177387554Y-100907142D01*
X177358982Y-100850000D01*
X177301840Y-100821428D01*
X177187554Y-100821428D01*
X177130411Y-100850000D01*
X177387554Y-101192857D02*
X177330411Y-101221428D01*
X177187554Y-101221428D01*
X177130411Y-101192857D01*
X177101840Y-101135714D01*
X177101840Y-101078571D01*
X177130411Y-101021428D01*
X177187554Y-100992857D01*
X177330411Y-100992857D01*
X177387554Y-100964285D01*
X177930411Y-101221428D02*
X177930411Y-100621428D01*
X177930411Y-101192857D02*
X177873268Y-101221428D01*
X177758982Y-101221428D01*
X177701840Y-101192857D01*
X177673268Y-101164285D01*
X177644697Y-101107142D01*
X177644697Y-100935714D01*
X177673268Y-100878571D01*
X177701840Y-100850000D01*
X177758982Y-100821428D01*
X177873268Y-100821428D01*
X177930411Y-100850000D01*
D15*
X158392000Y-115765428D02*
X158392000Y-116854000D01*
X158319428Y-117071714D01*
X158174285Y-117216857D01*
X157956571Y-117289428D01*
X157811428Y-117289428D01*
X159045142Y-115910571D02*
X159117714Y-115838000D01*
X159262857Y-115765428D01*
X159625714Y-115765428D01*
X159770857Y-115838000D01*
X159843428Y-115910571D01*
X159916000Y-116055714D01*
X159916000Y-116200857D01*
X159843428Y-116418571D01*
X158972571Y-117289428D01*
X159916000Y-117289428D01*
D22*
X173196000Y-111132714D02*
X173196000Y-111677000D01*
X173159714Y-111785857D01*
X173087142Y-111858428D01*
X172978285Y-111894714D01*
X172905714Y-111894714D01*
X173486285Y-111132714D02*
X173958000Y-111132714D01*
X173704000Y-111423000D01*
X173812857Y-111423000D01*
X173885428Y-111459285D01*
X173921714Y-111495571D01*
X173958000Y-111568142D01*
X173958000Y-111749571D01*
X173921714Y-111822142D01*
X173885428Y-111858428D01*
X173812857Y-111894714D01*
X173595142Y-111894714D01*
X173522571Y-111858428D01*
X173486285Y-111822142D01*
X170338714Y-115732714D02*
X170338714Y-116277000D01*
X170302428Y-116385857D01*
X170229857Y-116458428D01*
X170121000Y-116494714D01*
X170048428Y-116494714D01*
X170701571Y-115732714D02*
X170701571Y-116349571D01*
X170737857Y-116422142D01*
X170774142Y-116458428D01*
X170846714Y-116494714D01*
X170991857Y-116494714D01*
X171064428Y-116458428D01*
X171100714Y-116422142D01*
X171137000Y-116349571D01*
X171137000Y-115732714D01*
X171499857Y-116494714D02*
X171499857Y-115732714D01*
X171753857Y-116277000D01*
X172007857Y-115732714D01*
X172007857Y-116494714D01*
X172370714Y-116494714D02*
X172370714Y-115732714D01*
X172661000Y-115732714D01*
X172733571Y-115769000D01*
X172769857Y-115805285D01*
X172806142Y-115877857D01*
X172806142Y-115986714D01*
X172769857Y-116059285D01*
X172733571Y-116095571D01*
X172661000Y-116131857D01*
X172370714Y-116131857D01*
X173132714Y-116095571D02*
X173386714Y-116095571D01*
X173495571Y-116494714D02*
X173132714Y-116494714D01*
X173132714Y-115732714D01*
X173495571Y-115732714D01*
X174257571Y-116494714D02*
X174003571Y-116131857D01*
X173822142Y-116494714D02*
X173822142Y-115732714D01*
X174112428Y-115732714D01*
X174185000Y-115769000D01*
X174221285Y-115805285D01*
X174257571Y-115877857D01*
X174257571Y-115986714D01*
X174221285Y-116059285D01*
X174185000Y-116095571D01*
X174112428Y-116131857D01*
X173822142Y-116131857D01*
X174402714Y-116567285D02*
X174983285Y-116567285D01*
X175092142Y-115732714D02*
X175563857Y-115732714D01*
X175309857Y-116023000D01*
X175418714Y-116023000D01*
X175491285Y-116059285D01*
X175527571Y-116095571D01*
X175563857Y-116168142D01*
X175563857Y-116349571D01*
X175527571Y-116422142D01*
X175491285Y-116458428D01*
X175418714Y-116494714D01*
X175201000Y-116494714D01*
X175128428Y-116458428D01*
X175092142Y-116422142D01*
X175817857Y-115732714D02*
X176325857Y-116494714D01*
X176325857Y-115732714D02*
X175817857Y-116494714D01*
X177015285Y-116494714D02*
X176579857Y-116494714D01*
X176797571Y-116494714D02*
X176797571Y-115732714D01*
X176725000Y-115841571D01*
X176652428Y-115914142D01*
X176579857Y-115950428D01*
D18*
X155070000Y-122501428D02*
X154870000Y-122215714D01*
X154727142Y-122501428D02*
X154727142Y-121901428D01*
X154955714Y-121901428D01*
X155012857Y-121930000D01*
X155041428Y-121958571D01*
X155070000Y-122015714D01*
X155070000Y-122101428D01*
X155041428Y-122158571D01*
X155012857Y-122187142D01*
X154955714Y-122215714D01*
X154727142Y-122215714D01*
X155641428Y-122501428D02*
X155298571Y-122501428D01*
X155470000Y-122501428D02*
X155470000Y-121901428D01*
X155412857Y-121987142D01*
X155355714Y-122044285D01*
X155298571Y-122072857D01*
X154870000Y-125001428D02*
X154527142Y-125001428D01*
X154698571Y-125001428D02*
X154698571Y-124401428D01*
X154641428Y-124487142D01*
X154584285Y-124544285D01*
X154527142Y-124572857D01*
X155241428Y-124401428D02*
X155298571Y-124401428D01*
X155355714Y-124430000D01*
X155384285Y-124458571D01*
X155412857Y-124515714D01*
X155441428Y-124630000D01*
X155441428Y-124772857D01*
X155412857Y-124887142D01*
X155384285Y-124944285D01*
X155355714Y-124972857D01*
X155298571Y-125001428D01*
X155241428Y-125001428D01*
X155184285Y-124972857D01*
X155155714Y-124944285D01*
X155127142Y-124887142D01*
X155098571Y-124772857D01*
X155098571Y-124630000D01*
X155127142Y-124515714D01*
X155155714Y-124458571D01*
X155184285Y-124430000D01*
X155241428Y-124401428D01*
X155812857Y-124401428D02*
X155870000Y-124401428D01*
X155927142Y-124430000D01*
X155955714Y-124458571D01*
X155984285Y-124515714D01*
X156012857Y-124630000D01*
X156012857Y-124772857D01*
X155984285Y-124887142D01*
X155955714Y-124944285D01*
X155927142Y-124972857D01*
X155870000Y-125001428D01*
X155812857Y-125001428D01*
X155755714Y-124972857D01*
X155727142Y-124944285D01*
X155698571Y-124887142D01*
X155670000Y-124772857D01*
X155670000Y-124630000D01*
X155698571Y-124515714D01*
X155727142Y-124458571D01*
X155755714Y-124430000D01*
X155812857Y-124401428D01*
X156471428Y-120350000D02*
X156185714Y-120550000D01*
X156471428Y-120692857D02*
X155871428Y-120692857D01*
X155871428Y-120464285D01*
X155900000Y-120407142D01*
X155928571Y-120378571D01*
X155985714Y-120350000D01*
X156071428Y-120350000D01*
X156128571Y-120378571D01*
X156157142Y-120407142D01*
X156185714Y-120464285D01*
X156185714Y-120692857D01*
X155928571Y-120121428D02*
X155900000Y-120092857D01*
X155871428Y-120035714D01*
X155871428Y-119892857D01*
X155900000Y-119835714D01*
X155928571Y-119807142D01*
X155985714Y-119778571D01*
X156042857Y-119778571D01*
X156128571Y-119807142D01*
X156471428Y-120150000D01*
X156471428Y-119778571D01*
X153971428Y-120992857D02*
X153971428Y-121335714D01*
X153971428Y-121164285D02*
X153371428Y-121164285D01*
X153457142Y-121221428D01*
X153514285Y-121278571D01*
X153542857Y-121335714D01*
X153371428Y-120621428D02*
X153371428Y-120564285D01*
X153400000Y-120507142D01*
X153428571Y-120478571D01*
X153485714Y-120450000D01*
X153600000Y-120421428D01*
X153742857Y-120421428D01*
X153857142Y-120450000D01*
X153914285Y-120478571D01*
X153942857Y-120507142D01*
X153971428Y-120564285D01*
X153971428Y-120621428D01*
X153942857Y-120678571D01*
X153914285Y-120707142D01*
X153857142Y-120735714D01*
X153742857Y-120764285D01*
X153600000Y-120764285D01*
X153485714Y-120735714D01*
X153428571Y-120707142D01*
X153400000Y-120678571D01*
X153371428Y-120621428D01*
X153371428Y-120050000D02*
X153371428Y-119992857D01*
X153400000Y-119935714D01*
X153428571Y-119907142D01*
X153485714Y-119878571D01*
X153600000Y-119850000D01*
X153742857Y-119850000D01*
X153857142Y-119878571D01*
X153914285Y-119907142D01*
X153942857Y-119935714D01*
X153971428Y-119992857D01*
X153971428Y-120050000D01*
X153942857Y-120107142D01*
X153914285Y-120135714D01*
X153857142Y-120164285D01*
X153742857Y-120192857D01*
X153600000Y-120192857D01*
X153485714Y-120164285D01*
X153428571Y-120135714D01*
X153400000Y-120107142D01*
X153371428Y-120050000D01*
X153971428Y-119592857D02*
X153371428Y-119592857D01*
X153742857Y-119535714D02*
X153971428Y-119364285D01*
X153571428Y-119364285D02*
X153800000Y-119592857D01*
X167150000Y-123821428D02*
X166950000Y-123535714D01*
X166807142Y-123821428D02*
X166807142Y-123221428D01*
X167035714Y-123221428D01*
X167092857Y-123250000D01*
X167121428Y-123278571D01*
X167150000Y-123335714D01*
X167150000Y-123421428D01*
X167121428Y-123478571D01*
X167092857Y-123507142D01*
X167035714Y-123535714D01*
X166807142Y-123535714D01*
X167350000Y-123221428D02*
X167721428Y-123221428D01*
X167521428Y-123450000D01*
X167607142Y-123450000D01*
X167664285Y-123478571D01*
X167692857Y-123507142D01*
X167721428Y-123564285D01*
X167721428Y-123707142D01*
X167692857Y-123764285D01*
X167664285Y-123792857D01*
X167607142Y-123821428D01*
X167435714Y-123821428D01*
X167378571Y-123792857D01*
X167350000Y-123764285D01*
X164542857Y-125371428D02*
X164200000Y-125371428D01*
X164371428Y-125371428D02*
X164371428Y-124771428D01*
X164314285Y-124857142D01*
X164257142Y-124914285D01*
X164200000Y-124942857D01*
X164914285Y-124771428D02*
X164971428Y-124771428D01*
X165028571Y-124800000D01*
X165057142Y-124828571D01*
X165085714Y-124885714D01*
X165114285Y-125000000D01*
X165114285Y-125142857D01*
X165085714Y-125257142D01*
X165057142Y-125314285D01*
X165028571Y-125342857D01*
X164971428Y-125371428D01*
X164914285Y-125371428D01*
X164857142Y-125342857D01*
X164828571Y-125314285D01*
X164800000Y-125257142D01*
X164771428Y-125142857D01*
X164771428Y-125000000D01*
X164800000Y-124885714D01*
X164828571Y-124828571D01*
X164857142Y-124800000D01*
X164914285Y-124771428D01*
X165371428Y-125371428D02*
X165371428Y-124771428D01*
X165428571Y-125142857D02*
X165600000Y-125371428D01*
X165600000Y-124971428D02*
X165371428Y-125200000D01*
X168401840Y-123721428D02*
X168201840Y-123435714D01*
X168058982Y-123721428D02*
X168058982Y-123121428D01*
X168287554Y-123121428D01*
X168344697Y-123150000D01*
X168373268Y-123178571D01*
X168401840Y-123235714D01*
X168401840Y-123321428D01*
X168373268Y-123378571D01*
X168344697Y-123407142D01*
X168287554Y-123435714D01*
X168058982Y-123435714D01*
X168916125Y-123321428D02*
X168916125Y-123721428D01*
X168773268Y-123092857D02*
X168630411Y-123521428D01*
X169001840Y-123521428D01*
X167758982Y-121221428D02*
X167416125Y-121221428D01*
X167587554Y-121221428D02*
X167587554Y-120621428D01*
X167530411Y-120707142D01*
X167473268Y-120764285D01*
X167416125Y-120792857D01*
X168130411Y-120621428D02*
X168187554Y-120621428D01*
X168244697Y-120650000D01*
X168273268Y-120678571D01*
X168301840Y-120735714D01*
X168330411Y-120850000D01*
X168330411Y-120992857D01*
X168301840Y-121107142D01*
X168273268Y-121164285D01*
X168244697Y-121192857D01*
X168187554Y-121221428D01*
X168130411Y-121221428D01*
X168073268Y-121192857D01*
X168044697Y-121164285D01*
X168016125Y-121107142D01*
X167987554Y-120992857D01*
X167987554Y-120850000D01*
X168016125Y-120735714D01*
X168044697Y-120678571D01*
X168073268Y-120650000D01*
X168130411Y-120621428D01*
X168701840Y-120621428D02*
X168758982Y-120621428D01*
X168816125Y-120650000D01*
X168844697Y-120678571D01*
X168873268Y-120735714D01*
X168901840Y-120850000D01*
X168901840Y-120992857D01*
X168873268Y-121107142D01*
X168844697Y-121164285D01*
X168816125Y-121192857D01*
X168758982Y-121221428D01*
X168701840Y-121221428D01*
X168644697Y-121192857D01*
X168616125Y-121164285D01*
X168587554Y-121107142D01*
X168558982Y-120992857D01*
X168558982Y-120850000D01*
X168587554Y-120735714D01*
X168616125Y-120678571D01*
X168644697Y-120650000D01*
X168701840Y-120621428D01*
X169158982Y-121221428D02*
X169158982Y-120621428D01*
X169216125Y-120992857D02*
X169387554Y-121221428D01*
X169387554Y-120821428D02*
X169158982Y-121050000D01*
X173071428Y-128800000D02*
X172785714Y-129000000D01*
X173071428Y-129142857D02*
X172471428Y-129142857D01*
X172471428Y-128914285D01*
X172500000Y-128857142D01*
X172528571Y-128828571D01*
X172585714Y-128800000D01*
X172671428Y-128800000D01*
X172728571Y-128828571D01*
X172757142Y-128857142D01*
X172785714Y-128914285D01*
X172785714Y-129142857D01*
X172471428Y-128257142D02*
X172471428Y-128542857D01*
X172757142Y-128571428D01*
X172728571Y-128542857D01*
X172700000Y-128485714D01*
X172700000Y-128342857D01*
X172728571Y-128285714D01*
X172757142Y-128257142D01*
X172814285Y-128228571D01*
X172957142Y-128228571D01*
X173014285Y-128257142D01*
X173042857Y-128285714D01*
X173071428Y-128342857D01*
X173071428Y-128485714D01*
X173042857Y-128542857D01*
X173014285Y-128571428D01*
X173871428Y-129628571D02*
X173871428Y-129971428D01*
X173871428Y-129800000D02*
X173271428Y-129800000D01*
X173357142Y-129857142D01*
X173414285Y-129914285D01*
X173442857Y-129971428D01*
X173871428Y-129371428D02*
X173271428Y-129371428D01*
X173871428Y-129028571D02*
X173528571Y-129285714D01*
X173271428Y-129028571D02*
X173614285Y-129371428D01*
X169341840Y-127821428D02*
X169141840Y-127535714D01*
X168998982Y-127821428D02*
X168998982Y-127221428D01*
X169227554Y-127221428D01*
X169284697Y-127250000D01*
X169313268Y-127278571D01*
X169341840Y-127335714D01*
X169341840Y-127421428D01*
X169313268Y-127478571D01*
X169284697Y-127507142D01*
X169227554Y-127535714D01*
X168998982Y-127535714D01*
X169856125Y-127221428D02*
X169741840Y-127221428D01*
X169684697Y-127250000D01*
X169656125Y-127278571D01*
X169598982Y-127364285D01*
X169570411Y-127478571D01*
X169570411Y-127707142D01*
X169598982Y-127764285D01*
X169627554Y-127792857D01*
X169684697Y-127821428D01*
X169798982Y-127821428D01*
X169856125Y-127792857D01*
X169884697Y-127764285D01*
X169913268Y-127707142D01*
X169913268Y-127564285D01*
X169884697Y-127507142D01*
X169856125Y-127478571D01*
X169798982Y-127450000D01*
X169684697Y-127450000D01*
X169627554Y-127478571D01*
X169598982Y-127507142D01*
X169570411Y-127564285D01*
X169141840Y-130321428D02*
X168798982Y-130321428D01*
X168970411Y-130321428D02*
X168970411Y-129721428D01*
X168913268Y-129807142D01*
X168856125Y-129864285D01*
X168798982Y-129892857D01*
X169513268Y-129721428D02*
X169570411Y-129721428D01*
X169627554Y-129750000D01*
X169656125Y-129778571D01*
X169684697Y-129835714D01*
X169713268Y-129950000D01*
X169713268Y-130092857D01*
X169684697Y-130207142D01*
X169656125Y-130264285D01*
X169627554Y-130292857D01*
X169570411Y-130321428D01*
X169513268Y-130321428D01*
X169456125Y-130292857D01*
X169427554Y-130264285D01*
X169398982Y-130207142D01*
X169370411Y-130092857D01*
X169370411Y-129950000D01*
X169398982Y-129835714D01*
X169427554Y-129778571D01*
X169456125Y-129750000D01*
X169513268Y-129721428D01*
X170084697Y-129721428D02*
X170141840Y-129721428D01*
X170198982Y-129750000D01*
X170227554Y-129778571D01*
X170256125Y-129835714D01*
X170284697Y-129950000D01*
X170284697Y-130092857D01*
X170256125Y-130207142D01*
X170227554Y-130264285D01*
X170198982Y-130292857D01*
X170141840Y-130321428D01*
X170084697Y-130321428D01*
X170027554Y-130292857D01*
X169998982Y-130264285D01*
X169970411Y-130207142D01*
X169941840Y-130092857D01*
X169941840Y-129950000D01*
X169970411Y-129835714D01*
X169998982Y-129778571D01*
X170027554Y-129750000D01*
X170084697Y-129721428D01*
X160238095Y-117702380D02*
X160238095Y-118511904D01*
X160285714Y-118607142D01*
X160333333Y-118654761D01*
X160428571Y-118702380D01*
X160619047Y-118702380D01*
X160714285Y-118654761D01*
X160761904Y-118607142D01*
X160809523Y-118511904D01*
X160809523Y-117702380D01*
X161809523Y-118702380D02*
X161238095Y-118702380D01*
X161523809Y-118702380D02*
X161523809Y-117702380D01*
X161428571Y-117845238D01*
X161333333Y-117940476D01*
X161238095Y-117988095D01*
X170798095Y-103652380D02*
X170798095Y-104461904D01*
X170845714Y-104557142D01*
X170893333Y-104604761D01*
X170988571Y-104652380D01*
X171179047Y-104652380D01*
X171274285Y-104604761D01*
X171321904Y-104557142D01*
X171369523Y-104461904D01*
X171369523Y-103652380D01*
X171750476Y-103652380D02*
X172369523Y-103652380D01*
X172036190Y-104033333D01*
X172179047Y-104033333D01*
X172274285Y-104080952D01*
X172321904Y-104128571D01*
X172369523Y-104223809D01*
X172369523Y-104461904D01*
X172321904Y-104557142D01*
X172274285Y-104604761D01*
X172179047Y-104652380D01*
X171893333Y-104652380D01*
X171798095Y-104604761D01*
X171750476Y-104557142D01*
M02*
