<?xml version="1.0" standalone="no"?>
 <!DOCTYPE svg PUBLIC "-//W3C//DTD SVG 1.1//EN" 
 "http://www.w3.org/Graphics/SVG/1.1/DTD/svg11.dtd"> 
<svg xmlns="http://www.w3.org/2000/svg" version="1.1" 
    width="27.94cm" height="21.59cm" viewBox="0 0 110000 85000 ">
<title>SVG Picture created as Robot_Battery_rev01-F.Paste.svg date 2017/08/06 12:55:04 </title>
  <desc>Picture generated by PCBNEW </desc>
<g style="fill:#000000; fill-opacity:1;stroke:#000000; stroke-opacity:1;
stroke-linecap:round; stroke-linejoin:round; "
 transform="translate(0 0) scale(1 1)">
</g>
<g style="fill:#000000; fill-opacity:0.0; 
stroke:#000000; stroke-width:-0.000393701; stroke-opacity:1; 
stroke-linecap:round; stroke-linejoin:round;">
</g>
<g style="fill:#000000; fill-opacity:0.0; 
stroke:#000000; stroke-width:0; stroke-opacity:1; 
stroke-linecap:round; stroke-linejoin:round;">
</g>
<g style="fill:#000000; fill-opacity:1.0; 
stroke:#000000; stroke-width:0; stroke-opacity:1; 
stroke-linecap:round; stroke-linejoin:round;">
<polyline style="fill-rule:evenodd;"
points="38362,47137
40377,47137
40377,49449
38362,49449
38362,47137
" /> 
<polyline style="fill-rule:evenodd;"
points="38362,78109
40377,78109
40377,80421
38362,80421
38362,78109
" /> 
<polyline style="fill-rule:evenodd;"
points="47023,12491
49039,12491
49039,14803
47023,14803
47023,12491
" /> 
<polyline style="fill-rule:evenodd;"
points="47023,43464
49039,43464
49039,45775
47023,45775
47023,43464
" /> 
<polyline style="fill-rule:evenodd;"
points="12377,47137
14393,47137
14393,49449
12377,49449
12377,47137
" /> 
<polyline style="fill-rule:evenodd;"
points="12377,78109
14393,78109
14393,80421
12377,80421
12377,78109
" /> 
<polyline style="fill-rule:evenodd;"
points="21039,47137
23055,47137
23055,49449
21039,49449
21039,47137
" /> 
<polyline style="fill-rule:evenodd;"
points="21039,78109
23055,78109
23055,80421
21039,80421
21039,78109
" /> 
<polyline style="fill-rule:evenodd;"
points="38362,12491
40377,12491
40377,14803
38362,14803
38362,12491
" /> 
<polyline style="fill-rule:evenodd;"
points="38362,43464
40377,43464
40377,45775
38362,45775
38362,43464
" /> 
<polyline style="fill-rule:evenodd;"
points="29700,47137
31716,47137
31716,49449
29700,49449
29700,47137
" /> 
<polyline style="fill-rule:evenodd;"
points="29700,78109
31716,78109
31716,80421
29700,80421
29700,78109
" /> 
<polyline style="fill-rule:evenodd;"
points="29700,12491
31716,12491
31716,14803
29700,14803
29700,12491
" /> 
<polyline style="fill-rule:evenodd;"
points="29700,43464
31716,43464
31716,45775
29700,45775
29700,43464
" /> 
<polyline style="fill-rule:evenodd;"
points="21039,12491
23055,12491
23055,14803
21039,14803
21039,12491
" /> 
<polyline style="fill-rule:evenodd;"
points="21039,43464
23055,43464
23055,45775
21039,45775
21039,43464
" /> 
<polyline style="fill-rule:evenodd;"
points="47023,47137
49039,47137
49039,49449
47023,49449
47023,47137
" /> 
<polyline style="fill-rule:evenodd;"
points="47023,78109
49039,78109
49039,80421
47023,80421
47023,78109
" /> 
<polyline style="fill-rule:evenodd;"
points="12377,12491
14393,12491
14393,14803
12377,14803
12377,12491
" /> 
<polyline style="fill-rule:evenodd;"
points="12377,43464
14393,43464
14393,45775
12377,45775
12377,43464
" /> 
<polyline style="fill-rule:evenodd;"
points="6220,12677
6220,10157
8740,10157
8740,12677
6220,12677
" /> 
<polyline style="fill-rule:evenodd;"
points="29842,7952
29842,5433
32362,5433
32362,7952
29842,7952
" /> 
<polyline style="fill-rule:evenodd;"
points="6220,75275
6220,72755
8740,72755
8740,75275
6220,75275
" /> 
<polyline style="fill-rule:evenodd;"
points="12519,9921
12519,7401
15039,7401
15039,9921
12519,9921
" /> 
<polyline style="fill-rule:evenodd;"
points="16062,9921
16062,7401
18582,7401
18582,9921
16062,9921
" /> 
</g> 
</svg>
