<?xml version="1.0" standalone="no"?>
 <!DOCTYPE svg PUBLIC "-//W3C//DTD SVG 1.1//EN" 
 "http://www.w3.org/Graphics/SVG/1.1/DTD/svg11.dtd"> 
<svg xmlns="http://www.w3.org/2000/svg" version="1.1" 
    width="27.94cm" height="21.59cm" viewBox="0 0 110000 85000 ">
<title>SVG Picture created as Robot_Battery_rev01-F.Cu.svg date 2017/08/06 12:55:04 </title>
  <desc>Picture generated by PCBNEW </desc>
<g style="fill:#000000; fill-opacity:1;stroke:#000000; stroke-opacity:1;
stroke-linecap:round; stroke-linejoin:round; "
 transform="translate(0 0) scale(1 1)">
</g>
<g style="fill:#000000; fill-opacity:0.0; 
stroke:#000000; stroke-width:-0.000393701; stroke-opacity:1; 
stroke-linecap:round; stroke-linejoin:round;">
</g>
<g style="fill:#000000; fill-opacity:0.0; 
stroke:#000000; stroke-width:196.85; stroke-opacity:1; 
stroke-linecap:round; stroke-linejoin:round;">
<path d="M12579 82227
L12692 82264
L12729 82302
L12767 82377
L12767 82489
L12729 82564
L12692 82602
L12617 82639
L12317 82639
L12317 81852
L12579 81852
L12654 81889
L12692 81927
L12729 82002
L12729 82077
L12692 82152
L12654 82189
L12579 82227
L12317 82227
" />
<path d="M13517 82639
L13067 82639
" />
<path d="M13292 82639
L13292 81852
L13217 81964
L13142 82039
L13067 82077
" />
<path d="M13854 82339
L14454 82339
" />
<path d="M21634 82227
L21747 82264
L21784 82302
L21822 82377
L21822 82489
L21784 82564
L21747 82602
L21672 82639
L21372 82639
L21372 81852
L21634 81852
L21709 81889
L21747 81927
L21784 82002
L21784 82077
L21747 82152
L21709 82189
L21634 82227
L21372 82227
" />
<path d="M22572 82639
L22122 82639
" />
<path d="M22347 82639
L22347 81852
L22272 81964
L22197 82039
L22122 82077
" />
<path d="M22909 82339
L23509 82339
" />
<path d="M23209 82639
L23209 82039
" />
<path d="M29508 82227
L29621 82264
L29658 82302
L29696 82377
L29696 82489
L29658 82564
L29621 82602
L29546 82639
L29246 82639
L29246 81852
L29508 81852
L29583 81889
L29621 81927
L29658 82002
L29658 82077
L29621 82152
L29583 82189
L29508 82227
L29246 82227
" />
<path d="M29996 81927
L30033 81889
L30108 81852
L30296 81852
L30371 81889
L30408 81927
L30446 82002
L30446 82077
L30408 82189
L29958 82639
L30446 82639
" />
<path d="M30783 82339
L31383 82339
" />
<path d="M31083 82639
L31083 82039
" />
<path d="M38170 82227
L38282 82264
L38320 82302
L38357 82377
L38357 82489
L38320 82564
L38282 82602
L38207 82639
L37907 82639
L37907 81852
L38170 81852
L38245 81889
L38282 81927
L38320 82002
L38320 82077
L38282 82152
L38245 82189
L38170 82227
L37907 82227
" />
<path d="M38620 81852
L39107 81852
L38845 82152
L38957 82152
L39032 82189
L39070 82227
L39107 82302
L39107 82489
L39070 82564
L39032 82602
L38957 82639
L38732 82639
L38657 82602
L38620 82564
" />
<path d="M39445 82339
L40044 82339
" />
<path d="M39745 82639
L39745 82039
" />
<path d="M47225 82227
L47337 82264
L47375 82302
L47412 82377
L47412 82489
L47375 82564
L47337 82602
L47262 82639
L46962 82639
L46962 81852
L47225 81852
L47300 81889
L47337 81927
L47375 82002
L47375 82077
L47337 82152
L47300 82189
L47225 82227
L46962 82227
" />
<path d="M48087 82114
L48087 82639
" />
<path d="M47900 81814
L47712 82377
L48200 82377
" />
<path d="M48500 82339
L49100 82339
" />
<path d="M48800 82639
L48800 82039
" />
<path d="M53524 46006
L53637 46044
L53674 46081
L53712 46156
L53712 46269
L53674 46344
L53637 46381
L53562 46419
L53262 46419
L53262 45631
L53524 45631
L53599 45669
L53637 45706
L53674 45781
L53674 45856
L53637 45931
L53599 45969
L53524 46006
L53262 46006
" />
<path d="M54424 45631
L54049 45631
L54011 46006
L54049 45969
L54124 45931
L54311 45931
L54386 45969
L54424 46006
L54461 46081
L54461 46269
L54424 46344
L54386 46381
L54311 46419
L54124 46419
L54049 46381
L54011 46344
" />
<path d="M54799 46119
L55399 46119
" />
<path d="M55099 46419
L55099 45819
" />
<path d="M47225 10573
L47337 10611
L47375 10648
L47412 10723
L47412 10836
L47375 10911
L47337 10948
L47262 10986
L46962 10986
L46962 10198
L47225 10198
L47300 10236
L47337 10273
L47375 10348
L47375 10423
L47337 10498
L47300 10536
L47225 10573
L46962 10573
" />
<path d="M48087 10198
L47937 10198
L47862 10236
L47825 10273
L47750 10386
L47712 10536
L47712 10836
L47750 10911
L47787 10948
L47862 10986
L48012 10986
L48087 10948
L48125 10911
L48162 10836
L48162 10648
L48125 10573
L48087 10536
L48012 10498
L47862 10498
L47787 10536
L47750 10573
L47712 10648
" />
<path d="M48500 10686
L49100 10686
" />
<path d="M48800 10986
L48800 10386
" />
<path d="M38563 10573
L38676 10611
L38713 10648
L38751 10723
L38751 10836
L38713 10911
L38676 10948
L38601 10986
L38301 10986
L38301 10198
L38563 10198
L38638 10236
L38676 10273
L38713 10348
L38713 10423
L38676 10498
L38638 10536
L38563 10573
L38301 10573
" />
<path d="M39013 10198
L39538 10198
L39201 10986
" />
<path d="M39838 10686
L40438 10686
" />
<path d="M40138 10986
L40138 10386
" />
<path d="M29902 10967
L30014 11004
L30052 11042
L30089 11117
L30089 11229
L30052 11304
L30014 11342
L29940 11379
L29640 11379
L29640 10592
L29902 10592
L29977 10629
L30014 10667
L30052 10742
L30052 10817
L30014 10892
L29977 10929
L29902 10967
L29640 10967
" />
<path d="M30539 10929
L30464 10892
L30427 10854
L30389 10779
L30389 10742
L30427 10667
L30464 10629
L30539 10592
L30689 10592
L30764 10629
L30802 10667
L30839 10742
L30839 10779
L30802 10854
L30764 10892
L30689 10929
L30539 10929
L30464 10967
L30427 11004
L30389 11079
L30389 11229
L30427 11304
L30464 11342
L30539 11379
L30689 11379
L30764 11342
L30802 11304
L30839 11229
L30839 11079
L30802 11004
L30764 10967
L30689 10929
" />
<path d="M31177 11079
L31777 11079
" />
<path d="M31477 11379
L31477 10779
" />
<path d="M22028 10573
L22140 10611
L22178 10648
L22215 10723
L22215 10836
L22178 10911
L22140 10948
L22065 10986
L21766 10986
L21766 10198
L22028 10198
L22103 10236
L22140 10273
L22178 10348
L22178 10423
L22140 10498
L22103 10536
L22028 10573
L21766 10573
" />
<path d="M22590 10986
L22740 10986
L22815 10948
L22853 10911
L22928 10798
L22965 10648
L22965 10348
L22928 10273
L22890 10236
L22815 10198
L22665 10198
L22590 10236
L22553 10273
L22515 10348
L22515 10536
L22553 10611
L22590 10648
L22665 10686
L22815 10686
L22890 10648
L22928 10611
L22965 10536
" />
<path d="M23303 10686
L23903 10686
" />
<path d="M23603 10986
L23603 10386
" />
<path d="M16141 10967
L16254 11004
L16291 11042
L16329 11117
L16329 11229
L16291 11304
L16254 11342
L16179 11379
L15879 11379
L15879 10592
L16141 10592
L16216 10629
L16254 10667
L16291 10742
L16291 10817
L16254 10892
L16216 10929
L16141 10967
L15879 10967
" />
<path d="M17079 11379
L16629 11379
" />
<path d="M16854 11379
L16854 10592
L16779 10704
L16704 10779
L16629 10817
" />
<path d="M17566 10592
L17641 10592
L17716 10629
L17754 10667
L17791 10742
L17829 10892
L17829 11079
L17791 11229
L17754 11304
L17716 11342
L17641 11379
L17566 11379
L17491 11342
L17454 11304
L17416 11229
L17379 11079
L17379 10892
L17416 10742
L17454 10667
L17491 10629
L17566 10592
" />
<path d="M18166 11079
L18766 11079
" />
<path d="M18466 11379
L18466 10779
" />
<path d="M6824 5961
L7424 5961
" />
<path d="M7124 6261
L7124 5661
" />
<path d="M8136 5736
L8136 6261
" />
<path d="M7949 5436
L7761 5999
L8248 5999
" />
<path d="M8511 5549
L8548 5511
L8623 5474
L8811 5474
L8886 5511
L8923 5549
L8961 5624
L8961 5699
L8923 5811
L8473 6261
L8961 6261
" />
<path d="M9186 5474
L9448 6261
L9711 5474
" />
<path d="M10573 6261
L10573 5474
" />
<path d="M10948 5736
L10948 6261
" />
<path d="M10948 5811
L10986 5774
L11061 5736
L11173 5736
L11248 5774
L11286 5849
L11286 6261
" />
</g>
<g style="fill:#000000; fill-opacity:0.0; 
stroke:#000000; stroke-width:98.4252; stroke-opacity:1; 
stroke-linecap:round; stroke-linejoin:round;">
<path d="M5971 77657
L5952 77629
L5914 77544
L5896 77488
L5877 77404
L5858 77263
L5858 77151
L5877 77010
L5896 76926
L5914 76870
L5952 76785
L5971 76757
" />
<path d="M6252 77123
L6308 77151
L6327 77179
L6346 77235
L6346 77320
L6327 77376
L6308 77404
L6271 77432
L6121 77432
L6121 76841
L6252 76841
L6289 76870
L6308 76898
L6327 76954
L6327 77010
L6308 77066
L6289 77095
L6252 77123
L6121 77123
" />
<path d="M6496 77263
L6683 77263
" />
<path d="M6458 77432
L6589 76841
L6721 77432
" />
<path d="M6796 76841
L7020 76841
" />
<path d="M6908 77432
L6908 76841
" />
<path d="M7095 76841
L7320 76841
" />
<path d="M7208 77432
L7208 76841
" />
<path d="M7452 77123
L7583 77123
" />
<path d="M7639 77432
L7452 77432
L7452 76841
L7639 76841
" />
<path d="M8033 77432
L7902 77151
" />
<path d="M7808 77432
L7808 76841
L7958 76841
L7995 76870
L8014 76898
L8033 76954
L8033 77038
L8014 77095
L7995 77123
L7958 77151
L7808 77151
" />
<path d="M8277 77151
L8277 77432
" />
<path d="M8145 76841
L8277 77151
L8408 76841
" />
<path d="M8539 77207
L8839 77207
" />
<path d="M8989 77657
L9008 77629
L9045 77544
L9064 77488
L9083 77404
L9101 77263
L9101 77151
L9083 77010
L9064 76926
L9045 76870
L9008 76785
L8989 76757
" />
</g>
<g style="fill:#000000; fill-opacity:0.0; 
stroke:#000000; stroke-width:196.85; stroke-opacity:1; 
stroke-linecap:round; stroke-linejoin:round;">
<path d="M25271 6692
L25196 6655
L25084 6655
L24971 6692
L24896 6767
L24859 6842
L24821 6992
L24821 7105
L24859 7255
L24896 7330
L24971 7405
L25084 7442
L25159 7442
L25271 7405
L25309 7367
L25309 7105
L25159 7105
" />
<path d="M25646 6917
L25646 7442
" />
<path d="M25646 6992
L25684 6955
L25759 6917
L25871 6917
L25946 6955
L25984 7030
L25984 7442
" />
<path d="M26696 7442
L26696 6655
" />
<path d="M26696 7405
L26621 7442
L26471 7442
L26396 7405
L26359 7367
L26321 7292
L26321 7067
L26359 6992
L26396 6955
L26471 6917
L26621 6917
L26696 6955
" />
<path d="M27221 6655
L27371 6655
L27446 6692
L27521 6767
L27559 6917
L27559 7180
L27521 7330
L27446 7405
L27371 7442
L27221 7442
L27146 7405
L27071 7330
L27034 7180
L27034 6917
L27071 6767
L27146 6692
L27221 6655
" />
<path d="M28233 6917
L28233 7442
" />
<path d="M27896 6917
L27896 7330
L27934 7405
L28008 7442
L28121 7442
L28196 7405
L28233 7367
" />
<path d="M28496 6917
L28796 6917
" />
<path d="M28608 6655
L28608 7330
L28646 7405
L28721 7442
L28796 7442
" />
<path d="M6074 8623
L6261 9411
L6411 8848
L6561 9411
L6749 8623
" />
<path d="M7011 9186
L7386 9186
" />
<path d="M6936 9411
L7199 8623
L7461 9411
" />
<path d="M8098 9411
L7724 9411
L7724 8623
" />
<path d="M8736 9411
L8361 9411
L8361 8623
" />
<path d="M8998 9111
L9598 9111
" />
</g>
<g style="fill:#000000; fill-opacity:0.0; 
stroke:#000000; stroke-width:147.638; stroke-opacity:1; 
stroke-linecap:round; stroke-linejoin:round;">
<path d="M5652 15059
L5624 15030
L5568 14946
L5539 14890
L5511 14805
L5483 14665
L5483 14552
L5511 14412
L5539 14327
L5568 14271
L5624 14187
L5652 14159
" />
<path d="M6186 14271
L6130 14243
L6046 14243
L5961 14271
L5905 14327
L5877 14384
L5849 14496
L5849 14580
L5877 14693
L5905 14749
L5961 14805
L6046 14834
L6102 14834
L6186 14805
L6214 14777
L6214 14580
L6102 14580
" />
<path d="M6467 14440
L6467 14834
" />
<path d="M6467 14496
L6496 14468
L6552 14440
L6636 14440
L6692 14468
L6721 14524
L6721 14834
" />
<path d="M7255 14834
L7255 14243
" />
<path d="M7255 14805
L7199 14834
L7086 14834
L7030 14805
L7002 14777
L6974 14721
L6974 14552
L7002 14496
L7030 14468
L7086 14440
L7199 14440
L7255 14468
" />
<path d="M7480 14243
L7620 14834
L7733 14412
L7845 14834
L7986 14243
" />
<path d="M8464 14834
L8464 14524
L8436 14468
L8380 14440
L8267 14440
L8211 14468
" />
<path d="M8464 14805
L8408 14834
L8267 14834
L8211 14805
L8183 14749
L8183 14693
L8211 14637
L8267 14609
L8408 14609
L8464 14580
" />
<path d="M8830 14834
L8773 14805
L8745 14749
L8745 14243
" />
<path d="M9139 14834
L9083 14805
L9055 14749
L9055 14243
" />
<path d="M9308 15059
L9336 15030
L9392 14946
L9420 14890
L9448 14805
L9476 14665
L9476 14552
L9448 14412
L9420 14327
L9392 14271
L9336 14187
L9308 14159
" />
</g>
<g style="fill:#000000; fill-opacity:0.0; 
stroke:#000000; stroke-width:196.85; stroke-opacity:1; 
stroke-linecap:round; stroke-linejoin:round;">
<path d="M6674 70416
L6786 70453
L6824 70491
L6861 70566
L6861 70678
L6824 70753
L6786 70791
L6711 70828
L6411 70828
L6411 70041
L6674 70041
L6749 70078
L6786 70116
L6824 70191
L6824 70266
L6786 70341
L6749 70378
L6674 70416
L6411 70416
" />
<path d="M7611 70828
L7161 70828
" />
<path d="M7386 70828
L7386 70041
L7311 70153
L7236 70228
L7161 70266
" />
<path d="M7949 70528
L8548 70528
" />
</g>
<g style="fill:#000000; fill-opacity:0.0; 
stroke:#000000; stroke-width:147.638; stroke-opacity:1; 
stroke-linecap:round; stroke-linejoin:round;">
<path d="M19632 10250
L19632 10137
L19660 10081
L19716 10025
L19829 9997
L20026 9997
L20138 10025
L20194 10081
L20222 10137
L20222 10250
L20194 10306
L20138 10362
L20026 10390
L19829 10390
L19716 10362
L19660 10306
L19632 10250
" />
<path d="M19829 9491
L20222 9491
" />
<path d="M19829 9744
L20138 9744
L20194 9715
L20222 9659
L20222 9575
L20194 9519
L20166 9491
" />
<path d="M19829 9294
L19829 9069
" />
<path d="M19632 9209
L20138 9209
L20194 9181
L20222 9125
L20222 9069
" />
<path d="M19829 8872
L20419 8872
" />
<path d="M19857 8872
L19829 8816
L19829 8703
L19857 8647
L19885 8619
L19941 8591
L20110 8591
L20166 8619
L20194 8647
L20222 8703
L20222 8816
L20194 8872
" />
<path d="M19829 8084
L20222 8084
" />
<path d="M19829 8338
L20138 8338
L20194 8309
L20222 8253
L20222 8169
L20194 8113
L20166 8084
" />
<path d="M19829 7888
L19829 7663
" />
<path d="M19632 7803
L20138 7803
L20194 7775
L20222 7719
L20222 7663
" />
<path d="M21481 11304
L21453 11332
L21368 11389
L21312 11417
L21228 11445
L21087 11473
L20975 11473
L20834 11445
L20750 11417
L20693 11389
L20609 11332
L20581 11304
" />
<path d="M21256 11079
L20665 11079
L20665 10939
L20693 10854
L20750 10798
L20806 10770
L20918 10742
L21003 10742
L21115 10770
L21171 10798
L21228 10854
L21256 10939
L21256 11079
" />
<path d="M21256 10489
L20862 10489
" />
<path d="M20665 10489
L20693 10517
L20722 10489
L20693 10461
L20665 10489
L20722 10489
" />
<path d="M21228 10236
L21256 10179
L21256 10067
L21228 10011
L21171 9983
L21143 9983
L21087 10011
L21059 10067
L21059 10151
L21031 10208
L20975 10236
L20946 10236
L20890 10208
L20862 10151
L20862 10067
L20890 10011
" />
<path d="M21228 9476
L21256 9533
L21256 9645
L21228 9701
L21200 9730
L21143 9758
L20975 9758
L20918 9730
L20890 9701
L20862 9645
L20862 9533
L20890 9476
" />
<path d="M21256 9223
L20665 9223
" />
<path d="M21256 8970
L20946 8970
L20890 8998
L20862 9055
L20862 9139
L20890 9195
L20918 9223
" />
<path d="M21256 8436
L20946 8436
L20890 8464
L20862 8520
L20862 8633
L20890 8689
" />
<path d="M21228 8436
L21256 8492
L21256 8633
L21228 8689
L21171 8717
L21115 8717
L21059 8689
L21031 8633
L21031 8492
L21003 8436
" />
<path d="M21256 8155
L20862 8155
" />
<path d="M20975 8155
L20918 8127
L20890 8098
L20862 8042
L20862 7986
" />
<path d="M20862 7536
L21340 7536
L21396 7564
L21425 7592
L21453 7649
L21453 7733
L21425 7789
" />
<path d="M21228 7536
L21256 7592
L21256 7705
L21228 7761
L21200 7789
L21143 7817
L20975 7817
L20918 7789
L20890 7761
L20862 7705
L20862 7592
L20890 7536
" />
<path d="M21228 7030
L21256 7086
L21256 7199
L21228 7255
L21171 7283
L20946 7283
L20890 7255
L20862 7199
L20862 7086
L20890 7030
L20946 7002
L21003 7002
L21059 7283
" />
<path d="M21481 6805
L21453 6777
L21368 6721
L21312 6692
L21228 6664
L21087 6636
L20975 6636
L20834 6664
L20750 6692
L20693 6721
L20609 6777
L20581 6805
" />
<path d="M10380 10025
L9789 10025
" />
<path d="M9986 9744
L10380 9744
" />
<path d="M10042 9744
L10014 9715
L9986 9659
L9986 9575
L10014 9519
L10071 9491
L10380 9491
" />
<path d="M9986 9209
L10577 9209
" />
<path d="M10014 9209
L9986 9153
L9986 9041
L10014 8984
L10042 8956
L10099 8928
L10267 8928
L10324 8956
L10352 8984
L10380 9041
L10380 9153
L10352 9209
" />
<path d="M9986 8422
L10380 8422
" />
<path d="M9986 8675
L10295 8675
L10352 8647
L10380 8591
L10380 8506
L10352 8450
L10324 8422
" />
<path d="M9986 8225
L9986 8000
" />
<path d="M9789 8141
L10295 8141
L10352 8113
L10380 8056
L10380 8000
" />
<path d="M11638 10672
L11610 10700
L11526 10756
L11470 10784
L11385 10812
L11245 10840
L11132 10840
L10991 10812
L10907 10784
L10851 10756
L10767 10700
L10738 10672
" />
<path d="M11357 10109
L11385 10137
L11413 10222
L11413 10278
L11385 10362
L11329 10419
L11273 10447
L11160 10475
L11076 10475
L10963 10447
L10907 10419
L10851 10362
L10823 10278
L10823 10222
L10851 10137
L10879 10109
" />
<path d="M11413 9856
L10823 9856
" />
<path d="M11413 9603
L11104 9603
L11048 9631
L11020 9687
L11020 9772
L11048 9828
L11076 9856
" />
<path d="M11413 9069
L11104 9069
L11048 9097
L11020 9153
L11020 9266
L11048 9322
" />
<path d="M11385 9069
L11413 9125
L11413 9266
L11385 9322
L11329 9350
L11273 9350
L11216 9322
L11188 9266
L11188 9125
L11160 9069
" />
<path d="M11413 8787
L11020 8787
" />
<path d="M11132 8787
L11076 8759
L11048 8731
L11020 8675
L11020 8619
" />
<path d="M11020 8169
L11498 8169
L11554 8197
L11582 8225
L11610 8281
L11610 8366
L11582 8422
" />
<path d="M11385 8169
L11413 8225
L11413 8338
L11385 8394
L11357 8422
L11301 8450
L11132 8450
L11076 8422
L11048 8394
L11020 8338
L11020 8225
L11048 8169
" />
<path d="M11385 7663
L11413 7719
L11413 7831
L11385 7888
L11329 7916
L11104 7916
L11048 7888
L11020 7831
L11020 7719
L11048 7663
L11104 7634
L11160 7634
L11216 7916
" />
<path d="M11638 7438
L11610 7410
L11526 7353
L11470 7325
L11385 7297
L11245 7269
L11132 7269
L10991 7297
L10907 7325
L10851 7353
L10767 7410
L10738 7438
" />
</g>
<g style="fill:#000000; fill-opacity:0.0; 
stroke:#000000; stroke-width:196.85; stroke-opacity:1; 
stroke-linecap:round; stroke-linejoin:round;">
<path d="M16610 5961
L17210 5961
" />
<path d="M16910 6261
L16910 5661
" />
<path d="M17510 5474
L17997 5474
L17735 5774
L17847 5774
L17922 5811
L17960 5849
L17997 5924
L17997 6111
L17960 6186
L17922 6224
L17847 6261
L17622 6261
L17547 6224
L17510 6186
" />
<path d="M18260 5474
L18785 5474
L18447 6261
" />
<path d="M18972 5474
L19235 6261
L19497 5474
" />
<path d="M20509 5474
L20659 5474
L20734 5511
L20809 5586
L20847 5736
L20847 5999
L20809 6149
L20734 6224
L20659 6261
L20509 6261
L20434 6224
L20359 6149
L20322 5999
L20322 5736
L20359 5586
L20434 5511
L20509 5474
" />
<path d="M21522 5736
L21522 6261
" />
<path d="M21184 5736
L21184 6149
L21222 6224
L21297 6261
L21409 6261
L21484 6224
L21522 6186
" />
<path d="M21784 5736
L22084 5736
" />
<path d="M21897 5474
L21897 6149
L21934 6224
L22009 6261
L22084 6261
" />
<path d="M11979 5474
L12167 6261
L12317 5699
L12467 6261
L12654 5474
" />
<path d="M12917 6036
L13292 6036
" />
<path d="M12842 6261
L13104 5474
L13367 6261
" />
<path d="M14004 6261
L13629 6261
L13629 5474
" />
<path d="M14641 6261
L14266 6261
L14266 5474
" />
<path d="M14904 5961
L15504 5961
" />
<path d="M15204 6261
L15204 5661
" />
<path d="M38338 7442
L38076 7067
" />
<path d="M37889 7442
L37889 6655
L38188 6655
L38263 6692
L38301 6730
L38338 6805
L38338 6917
L38301 6992
L38263 7030
L38188 7067
L37889 7067
" />
<path d="M38788 7442
L38713 7405
L38676 7367
L38638 7292
L38638 7067
L38676 6992
L38713 6955
L38788 6917
L38901 6917
L38976 6955
L39013 6992
L39051 7067
L39051 7292
L39013 7367
L38976 7405
L38901 7442
L38788 7442
" />
<path d="M39388 7442
L39388 6655
" />
<path d="M39388 6955
L39463 6917
L39613 6917
L39688 6955
L39726 6992
L39763 7067
L39763 7292
L39726 7367
L39688 7405
L39613 7442
L39463 7442
L39388 7405
" />
<path d="M40213 7442
L40138 7405
L40101 7367
L40063 7292
L40063 7067
L40101 6992
L40138 6955
L40213 6917
L40326 6917
L40401 6955
L40438 6992
L40476 7067
L40476 7292
L40438 7367
L40401 7405
L40326 7442
L40213 7442
" />
<path d="M40701 6917
L41001 6917
" />
<path d="M40813 6655
L40813 7330
L40851 7405
L40926 7442
L41001 7442
" />
<path d="M41076 7517
L41676 7517
" />
<path d="M42125 7030
L42238 7067
L42275 7105
L42313 7180
L42313 7292
L42275 7367
L42238 7405
L42163 7442
L41863 7442
L41863 6655
L42125 6655
L42200 6692
L42238 6730
L42275 6805
L42275 6880
L42238 6955
L42200 6992
L42125 7030
L41863 7030
" />
<path d="M42988 7442
L42988 7030
L42950 6955
L42875 6917
L42725 6917
L42650 6955
" />
<path d="M42988 7405
L42913 7442
L42725 7442
L42650 7405
L42613 7330
L42613 7255
L42650 7180
L42725 7142
L42913 7142
L42988 7105
" />
<path d="M43250 6917
L43550 6917
" />
<path d="M43363 6655
L43363 7330
L43400 7405
L43475 7442
L43550 7442
" />
<path d="M43700 6917
L44000 6917
" />
<path d="M43813 6655
L43813 7330
L43850 7405
L43925 7442
L44000 7442
" />
<path d="M44563 7405
L44488 7442
L44338 7442
L44263 7405
L44225 7330
L44225 7030
L44263 6955
L44338 6917
L44488 6917
L44563 6955
L44600 7030
L44600 7105
L44225 7180
" />
<path d="M44938 7442
L44938 6917
" />
<path d="M44938 7067
L44975 6992
L45013 6955
L45088 6917
L45163 6917
" />
<path d="M45350 6917
L45538 7442
" />
<path d="M45725 6917
L45538 7442
L45463 7630
L45425 7667
L45350 7705
" />
<path d="M45838 7517
L46437 7517
" />
<path d="M46625 7442
L46625 6917
" />
<path d="M46625 7067
L46662 6992
L46700 6955
L46775 6917
L46850 6917
" />
<path d="M47412 7405
L47337 7442
L47187 7442
L47112 7405
L47075 7330
L47075 7030
L47112 6955
L47187 6917
L47337 6917
L47412 6955
L47450 7030
L47450 7105
L47075 7180
" />
<path d="M47712 6917
L47900 7442
L48087 6917
" />
<path d="M48537 6655
L48612 6655
L48687 6692
L48725 6730
L48762 6805
L48800 6955
L48800 7142
L48762 7292
L48725 7367
L48687 7405
L48612 7442
L48537 7442
L48462 7405
L48425 7367
L48387 7292
L48350 7142
L48350 6955
L48387 6805
L48425 6730
L48462 6692
L48537 6655
" />
<path d="M49550 7442
L49100 7442
" />
<path d="M49325 7442
L49325 6655
L49250 6767
L49175 6842
L49100 6880
" />
</g>
<g style="fill:#000000; fill-opacity:0.0; 
stroke:#000000; stroke-width:0; stroke-opacity:1; 
stroke-linecap:round; stroke-linejoin:round;">
</g>
<g style="fill:#000000; fill-opacity:1.0; 
stroke:#000000; stroke-width:0; stroke-opacity:1; 
stroke-linecap:round; stroke-linejoin:round;">
<polyline style="fill-rule:evenodd;"
points="38110,46848
40629,46848
40629,49738
38110,49738
38110,46848
" /> 
<polyline style="fill-rule:evenodd;"
points="38110,77820
40629,77820
40629,80710
38110,80710
38110,77820
" /> 
<circle cx="54133.9" cy="30905.5" r="590.551" /> 
</g>
<g style="fill:#000000; fill-opacity:1.0; 
stroke:#000000; stroke-width:59.0551; stroke-opacity:1; 
stroke-linecap:round; stroke-linejoin:round;">
</g>
<g style="fill:#000000; fill-opacity:1.0; 
stroke:#000000; stroke-width:0; stroke-opacity:1; 
stroke-linecap:round; stroke-linejoin:round;">
<circle cx="54133.9" cy="10039.4" r="590.551" /> 
</g>
<g style="fill:#000000; fill-opacity:1.0; 
stroke:#000000; stroke-width:59.0551; stroke-opacity:1; 
stroke-linecap:round; stroke-linejoin:round;">
</g>
<g style="fill:#000000; fill-opacity:1.0; 
stroke:#000000; stroke-width:0; stroke-opacity:1; 
stroke-linecap:round; stroke-linejoin:round;">
<circle cx="26181.1" cy="10039.4" r="590.551" /> 
</g>
<g style="fill:#000000; fill-opacity:1.0; 
stroke:#000000; stroke-width:59.0551; stroke-opacity:1; 
stroke-linecap:round; stroke-linejoin:round;">
</g>
<g style="fill:#000000; fill-opacity:1.0; 
stroke:#000000; stroke-width:0; stroke-opacity:1; 
stroke-linecap:round; stroke-linejoin:round;">
<polyline style="fill-rule:evenodd;"
points="46771,12202
49291,12202
49291,15092
46771,15092
46771,12202
" /> 
<polyline style="fill-rule:evenodd;"
points="46771,43175
49291,43175
49291,46064
46771,46064
46771,43175
" /> 
<polyline style="fill-rule:evenodd;"
points="12125,46848
14645,46848
14645,49738
12125,49738
12125,46848
" /> 
<polyline style="fill-rule:evenodd;"
points="12125,77820
14645,77820
14645,80710
12125,80710
12125,77820
" /> 
<polyline style="fill-rule:evenodd;"
points="20787,46848
23307,46848
23307,49738
20787,49738
20787,46848
" /> 
<polyline style="fill-rule:evenodd;"
points="20787,77820
23307,77820
23307,80710
20787,80710
20787,77820
" /> 
<polyline style="fill-rule:evenodd;"
points="38110,12202
40629,12202
40629,15092
38110,15092
38110,12202
" /> 
<polyline style="fill-rule:evenodd;"
points="38110,43175
40629,43175
40629,46064
38110,46064
38110,43175
" /> 
<polyline style="fill-rule:evenodd;"
points="29448,46848
31968,46848
31968,49738
29448,49738
29448,46848
" /> 
<polyline style="fill-rule:evenodd;"
points="29448,77820
31968,77820
31968,80710
29448,80710
29448,77820
" /> 
<polyline style="fill-rule:evenodd;"
points="29448,12202
31968,12202
31968,15092
29448,15092
29448,12202
" /> 
<polyline style="fill-rule:evenodd;"
points="29448,43175
31968,43175
31968,46064
29448,46064
29448,43175
" /> 
<polyline style="fill-rule:evenodd;"
points="20787,12202
23307,12202
23307,15092
20787,15092
20787,12202
" /> 
<polyline style="fill-rule:evenodd;"
points="20787,43175
23307,43175
23307,46064
20787,46064
20787,43175
" /> 
<polyline style="fill-rule:evenodd;"
points="46771,46848
49291,46848
49291,49738
46771,49738
46771,46848
" /> 
<polyline style="fill-rule:evenodd;"
points="46771,77820
49291,77820
49291,80710
46771,80710
46771,77820
" /> 
<polyline style="fill-rule:evenodd;"
points="12125,12202
14645,12202
14645,15092
12125,15092
12125,12202
" /> 
<polyline style="fill-rule:evenodd;"
points="12125,43175
14645,43175
14645,46064
12125,46064
12125,43175
" /> 
<circle cx="7874.02" cy="7480.31" r="590.551" /> 
</g>
<g style="fill:#000000; fill-opacity:1.0; 
stroke:#000000; stroke-width:59.0551; stroke-opacity:1; 
stroke-linecap:round; stroke-linejoin:round;">
</g>
<g style="fill:#000000; fill-opacity:1.0; 
stroke:#000000; stroke-width:0; stroke-opacity:1; 
stroke-linecap:round; stroke-linejoin:round;">
<circle cx="7874.02" cy="81496.1" r="590.551" /> 
</g>
<g style="fill:#000000; fill-opacity:1.0; 
stroke:#000000; stroke-width:59.0551; stroke-opacity:1; 
stroke-linecap:round; stroke-linejoin:round;">
</g>
<g style="fill:#000000; fill-opacity:1.0; 
stroke:#000000; stroke-width:0; stroke-opacity:1; 
stroke-linecap:round; stroke-linejoin:round;">
<circle cx="54330.7" cy="81496.1" r="590.551" /> 
</g>
<g style="fill:#000000; fill-opacity:1.0; 
stroke:#000000; stroke-width:59.0551; stroke-opacity:1; 
stroke-linecap:round; stroke-linejoin:round;">
</g>
<g style="fill:#000000; fill-opacity:1.0; 
stroke:#000000; stroke-width:0; stroke-opacity:1; 
stroke-linecap:round; stroke-linejoin:round;">
<circle cx="54330.7" cy="7480.31" r="590.551" /> 
</g>
<g style="fill:#000000; fill-opacity:1.0; 
stroke:#000000; stroke-width:59.0551; stroke-opacity:1; 
stroke-linecap:round; stroke-linejoin:round;">
</g>
<g style="fill:#000000; fill-opacity:1.0; 
stroke:#000000; stroke-width:0; stroke-opacity:1; 
stroke-linecap:round; stroke-linejoin:round;">
<polyline style="fill-rule:evenodd;"
points="5905,12992
5905,9842
9055,9842
9055,12992
5905,12992
" /> 
<polyline style="fill-rule:evenodd;"
points="29527,8267
29527,5118
32677,5118
32677,8267
29527,8267
" /> 
<polyline style="fill-rule:evenodd;"
points="5905,75590
5905,72440
9055,72440
9055,75590
5905,75590
" /> 
<polyline style="fill-rule:evenodd;"
points="12204,10236
12204,7086
15354,7086
15354,10236
12204,10236
" /> 
<polyline style="fill-rule:evenodd;"
points="15748,10236
15748,7086
18897,7086
18897,10236
15748,10236
" /> 
</g>
<g style="fill:#000000; fill-opacity:1.0; 
stroke:#000000; stroke-width:3149.61; stroke-opacity:1; 
stroke-linecap:round; stroke-linejoin:round;">
</g>
<g style="fill:#000000; fill-opacity:0.0; 
stroke:#000000; stroke-width:3149.61; stroke-opacity:1; 
stroke-linecap:round; stroke-linejoin:round;">
<path d="M13779 8661
L17322 8661
" />
<path d="M13779 8661
L13779 13253
" />
<path d="M13779 13253
L13385 13647
" />
<path d="M22047 13647
L22047 20472
" />
<path d="M13385 29133
L13385 44620
" />
<path d="M22047 20472
L13385 29133
" />
<path d="M48031 44620
L48031 48293
" />
<path d="M39370 48293
L39370 57480
" />
<path d="M48031 66141
L48031 79265
" />
<path d="M39370 57480
L48031 66141
" />
<path d="M30708 13647
L30708 23129
" />
<path d="M22047 31791
L22047 44620
" />
<path d="M30708 23129
L22047 31791
" />
<path d="M30708 48293
L30708 58858
" />
<path d="M39370 67519
L39370 79265
" />
<path d="M30708 58858
L39370 67519
" />
<path d="M39370 13647
L39370 25295
" />
<path d="M30708 33956
L30708 44620
" />
<path d="M39370 25295
L30708 33956
" />
<path d="M22047 48293
L22047 60728
" />
<path d="M30708 69389
L30708 79265
" />
<path d="M22047 60728
L30708 69389
" />
<path d="M48031 13647
L48031 27657
" />
<path d="M39370 36318
L39370 44620
" />
<path d="M48031 27657
L39370 36318
" />
<path d="M13385 48293
L13385 63582
" />
<path d="M22047 72244
L22047 79265
" />
<path d="M13385 63582
L22047 72244
" />
<path d="M7480 74015
L11417 74015
" />
<path d="M12992 75590
L12992 78872
" />
<path d="M11417 74015
L12992 75590
" />
<path d="M12992 78872
L13385 79265
" />
</g> 
</svg>
