<?xml version="1.0" standalone="no"?>
 <!DOCTYPE svg PUBLIC "-//W3C//DTD SVG 1.1//EN" 
 "http://www.w3.org/Graphics/SVG/1.1/DTD/svg11.dtd"> 
<svg xmlns="http://www.w3.org/2000/svg" version="1.1" 
    width="27.94cm" height="21.59cm" viewBox="0 0 110000 85000 ">
<title>SVG Picture created as Robot_Battery_rev01-F.SilkS.svg date 2017/08/06 12:55:04 </title>
  <desc>Picture generated by PCBNEW </desc>
<g style="fill:#000000; fill-opacity:1;stroke:#000000; stroke-opacity:1;
stroke-linecap:round; stroke-linejoin:round; "
 transform="translate(0 0) scale(1 1)">
</g>
<g style="fill:#000000; fill-opacity:0.0; 
stroke:#000000; stroke-width:-0.000393701; stroke-opacity:1; 
stroke-linecap:round; stroke-linejoin:round;">
</g>
<g style="fill:#000000; fill-opacity:0.0; 
stroke:#000000; stroke-width:118.11; stroke-opacity:1; 
stroke-linecap:round; stroke-linejoin:round;">
<path d="M39738 47038
L39541 46757
" />
<path d="M39401 47038
L39401 46448
L39625 46448
L39682 46476
L39710 46504
L39738 46560
L39738 46645
L39710 46701
L39682 46729
L39625 46757
L39401 46757
" />
<path d="M40075 47038
L40019 47010
L39991 46982
L39963 46926
L39963 46757
L39991 46701
L40019 46673
L40075 46645
L40160 46645
L40216 46673
L40244 46701
L40272 46757
L40272 46926
L40244 46982
L40216 47010
L40160 47038
L40075 47038
" />
<path d="M40525 47038
L40525 46448
" />
<path d="M40525 46673
L40582 46645
L40694 46645
L40750 46673
L40778 46701
L40807 46757
L40807 46926
L40778 46982
L40750 47010
L40694 47038
L40582 47038
L40525 47010
" />
<path d="M41144 47038
L41088 47010
L41060 46982
L41032 46926
L41032 46757
L41060 46701
L41088 46673
L41144 46645
L41228 46645
L41285 46673
L41313 46701
L41341 46757
L41341 46926
L41313 46982
L41285 47010
L41228 47038
L41144 47038
" />
<path d="M41510 46645
L41735 46645
" />
<path d="M41594 46448
L41594 46954
L41622 47010
L41678 47038
L41735 47038
" />
<path d="M41791 47095
L42241 47095
" />
<path d="M42578 46729
L42663 46757
L42691 46785
L42719 46841
L42719 46926
L42691 46982
L42663 47010
L42606 47038
L42381 47038
L42381 46448
L42578 46448
L42634 46476
L42663 46504
L42691 46560
L42691 46616
L42663 46673
L42634 46701
L42578 46729
L42381 46729
" />
<path d="M43225 47038
L43225 46729
L43197 46673
L43141 46645
L43028 46645
L42972 46673
" />
<path d="M43225 47010
L43169 47038
L43028 47038
L42972 47010
L42944 46954
L42944 46898
L42972 46841
L43028 46813
L43169 46813
L43225 46785
" />
<path d="M43422 46645
L43647 46645
" />
<path d="M43506 46448
L43506 46954
L43534 47010
L43591 47038
L43647 47038
" />
<path d="M43759 46645
L43984 46645
" />
<path d="M43844 46448
L43844 46954
L43872 47010
L43928 47038
L43984 47038
" />
<path d="M44406 47010
L44350 47038
L44237 47038
L44181 47010
L44153 46954
L44153 46729
L44181 46673
L44237 46645
L44350 46645
L44406 46673
L44434 46729
L44434 46785
L44153 46841
" />
<path d="M44687 47038
L44687 46645
" />
<path d="M44687 46757
L44715 46701
L44744 46673
L44800 46645
L44856 46645
" />
<path d="M44997 46645
L45137 47038
" />
<path d="M45278 46645
L45137 47038
L45081 47179
L45053 47207
L44997 47235
" />
<path d="M45362 47095
L45812 47095
" />
<path d="M45953 47038
L45953 46645
" />
<path d="M45953 46757
L45981 46701
L46009 46673
L46065 46645
L46122 46645
" />
<path d="M46543 47010
L46487 47038
L46375 47038
L46318 47010
L46290 46954
L46290 46729
L46318 46673
L46375 46645
L46487 46645
L46543 46673
L46571 46729
L46571 46785
L46290 46841
" />
<path d="M46768 46645
L46909 47038
L47050 46645
" />
<path d="M47387 46448
L47443 46448
L47500 46476
L47528 46504
L47556 46560
L47584 46673
L47584 46813
L47556 46926
L47528 46982
L47500 47010
L47443 47038
L47387 47038
L47331 47010
L47303 46982
L47275 46926
L47246 46813
L47246 46673
L47275 46560
L47303 46504
L47331 46476
L47387 46448
" />
<path d="M48146 47038
L47809 47038
" />
<path d="M47978 47038
L47978 46448
L47921 46532
L47865 46588
L47809 46616
" />
</g>
<g style="fill:#000000; fill-opacity:0.0; 
stroke:#000000; stroke-width:78.7402; stroke-opacity:1; 
stroke-linecap:round; stroke-linejoin:round;">
<path d="M41085 47668
L41141 47668
L41197 47696
L41226 47724
L41254 47781
L41282 47893
L41282 48034
L41254 48146
L41226 48203
L41197 48231
L41141 48259
L41085 48259
L41029 48231
L41001 48203
L40973 48146
L40944 48034
L40944 47893
L40973 47781
L41001 47724
L41029 47696
L41085 47668
" />
<path d="M41479 47668
L41872 47668
L41619 48259
" />
<path d="M42519 47640
L42013 48399
" />
<path d="M42688 47724
L42716 47696
L42772 47668
L42913 47668
L42969 47696
L42997 47724
L43025 47781
L43025 47837
L42997 47921
L42660 48259
L43025 48259
" />
<path d="M43391 47668
L43447 47668
L43503 47696
L43532 47724
L43560 47781
L43588 47893
L43588 48034
L43560 48146
L43532 48203
L43503 48231
L43447 48259
L43391 48259
L43335 48231
L43307 48203
L43278 48146
L43250 48034
L43250 47893
L43278 47781
L43307 47724
L43335 47696
L43391 47668
" />
<path d="M44263 47640
L43757 48399
" />
<path d="M44431 47724
L44460 47696
L44516 47668
L44656 47668
L44713 47696
L44741 47724
L44769 47781
L44769 47837
L44741 47921
L44403 48259
L44769 48259
" />
<path d="M45134 47668
L45191 47668
L45247 47696
L45275 47724
L45303 47781
L45331 47893
L45331 48034
L45303 48146
L45275 48203
L45247 48231
L45191 48259
L45134 48259
L45078 48231
L45050 48203
L45022 48146
L44994 48034
L44994 47893
L45022 47781
L45050 47724
L45078 47696
L45134 47668
" />
<path d="M45894 48259
L45556 48259
" />
<path d="M45725 48259
L45725 47668
L45669 47753
L45613 47809
L45556 47837
" />
<path d="M46091 47668
L46484 47668
L46231 48259
" />
</g>
<g style="fill:#000000; fill-opacity:0.0; 
stroke:#000000; stroke-width:59.0551; stroke-opacity:1; 
stroke-linecap:round; stroke-linejoin:round;">
<path d="M40826 79370
L43188 79370
" />
<path d="M36633 49350
L36633 46988
" />
<path d="M35452 48169
L37814 48169
" />
<path d="M43435 46830
L35305 46830
" />
<path d="M43435 80728
L35305 80728
" />
<path d="M35305 46830
L35305 80728
" />
<path d="M43435 46830
L43435 80728
" />
<path d="M55511 32283
L55511 8661
" />
<path d="M24803 32283
L24803 8661
" />
<path d="M24803 8661
L55511 8661
" />
<path d="M24803 32283
L55511 32283
" />
<path d="M49488 44724
L51850 44724
" />
<path d="M45295 14704
L45295 12342
" />
<path d="M44114 13523
L46476 13523
" />
<path d="M52096 12185
L43966 12185
" />
<path d="M52096 46082
L43966 46082
" />
<path d="M43966 12185
L43966 46082
" />
<path d="M52096 12185
L52096 46082
" />
<path d="M14842 79370
L17204 79370
" />
<path d="M10649 49350
L10649 46988
" />
<path d="M9468 48169
L11830 48169
" />
<path d="M17450 46830
L9320 46830
" />
<path d="M17450 80728
L9320 80728
" />
<path d="M9320 46830
L9320 80728
" />
<path d="M17450 46830
L17450 80728
" />
<path d="M23503 79370
L25866 79370
" />
<path d="M19311 49350
L19311 46988
" />
<path d="M18129 48169
L20492 48169
" />
<path d="M26112 46830
L17982 46830
" />
<path d="M26112 80728
L17982 80728
" />
<path d="M17982 46830
L17982 80728
" />
<path d="M26112 46830
L26112 80728
" />
<path d="M40826 44724
L43188 44724
" />
<path d="M36633 14704
L36633 12342
" />
<path d="M35452 13523
L37814 13523
" />
<path d="M43435 12185
L35305 12185
" />
<path d="M43435 46082
L35305 46082
" />
<path d="M35305 12185
L35305 46082
" />
<path d="M43435 12185
L43435 46082
" />
<path d="M32165 79370
L34527 79370
" />
<path d="M27972 49350
L27972 46988
" />
<path d="M26791 48169
L29153 48169
" />
<path d="M34773 46830
L26643 46830
" />
<path d="M34773 80728
L26643 80728
" />
<path d="M26643 46830
L26643 80728
" />
<path d="M34773 46830
L34773 80728
" />
<path d="M32165 44724
L34527 44724
" />
<path d="M27972 14704
L27972 12342
" />
<path d="M26791 13523
L29153 13523
" />
<path d="M34773 12185
L26643 12185
" />
<path d="M34773 46082
L26643 46082
" />
<path d="M26643 12185
L26643 46082
" />
<path d="M34773 12185
L34773 46082
" />
<path d="M23503 44724
L25866 44724
" />
<path d="M19311 14704
L19311 12342
" />
<path d="M18129 13523
L20492 13523
" />
<path d="M26112 12185
L17982 12185
" />
<path d="M26112 46082
L17982 46082
" />
<path d="M17982 12185
L17982 46082
" />
<path d="M26112 12185
L26112 46082
" />
<path d="M49488 79370
L51850 79370
" />
<path d="M45295 49350
L45295 46988
" />
<path d="M44114 48169
L46476 48169
" />
<path d="M52096 46830
L43966 46830
" />
<path d="M52096 80728
L43966 80728
" />
<path d="M43966 46830
L43966 80728
" />
<path d="M52096 46830
L52096 80728
" />
<path d="M14842 44724
L17204 44724
" />
<path d="M10649 14704
L10649 12342
" />
<path d="M9468 13523
L11830 13523
" />
<path d="M17450 12185
L9320 12185
" />
<path d="M17450 46082
L9320 46082
" />
<path d="M9320 12185
L9320 46082
" />
<path d="M17450 12185
L17450 46082
" />
<path d="M36004 64079
L36323 64079
L36361 64060
L36379 64041
L36398 64004
L36398 63929
L36379 63892
L36361 63873
L36323 63854
L36004 63854
" />
<path d="M36136 63498
L36398 63498
" />
<path d="M35986 63592
L36267 63685
L36267 63442
" />
<path d="M57028 20811
L57347 20811
L57384 20793
L57403 20774
L57422 20736
L57422 20661
L57403 20624
L57384 20605
L57347 20586
L57028 20586
" />
<path d="M57028 20211
L57028 20399
L57215 20418
L57197 20399
L57178 20361
L57178 20268
L57197 20230
L57215 20211
L57253 20193
L57347 20193
L57384 20211
L57403 20230
L57422 20268
L57422 20361
L57403 20399
L57384 20418
" />
<path d="M44666 29621
L44985 29621
L45022 29602
L45041 29583
L45059 29546
L45059 29471
L45041 29433
L45022 29415
L44985 29396
L44666 29396
" />
<path d="M45059 29002
L45059 29227
" />
<path d="M45059 29115
L44666 29115
L44722 29152
L44760 29190
L44778 29227
" />
<path d="M45059 28627
L45059 28852
" />
<path d="M45059 28740
L44666 28740
L44722 28777
L44760 28815
L44778 28852
" />
<path d="M10020 64266
L10339 64266
L10376 64248
L10395 64229
L10414 64191
L10414 64116
L10395 64079
L10376 64060
L10339 64041
L10020 64041
" />
<path d="M10414 63648
L10414 63873
" />
<path d="M10414 63760
L10020 63760
L10076 63798
L10114 63835
L10133 63873
" />
<path d="M10020 63404
L10020 63367
L10039 63329
L10058 63310
L10095 63292
L10170 63273
L10264 63273
L10339 63292
L10376 63310
L10395 63329
L10414 63367
L10414 63404
L10395 63442
L10376 63460
L10339 63479
L10264 63498
L10170 63498
L10095 63479
L10058 63460
L10039 63442
L10020 63404
" />
<path d="M18682 64079
L19000 64079
L19038 64060
L19056 64041
L19075 64004
L19075 63929
L19056 63892
L19038 63873
L19000 63854
L18682 63854
" />
<path d="M19075 63648
L19075 63573
L19056 63535
L19038 63517
L18982 63479
L18907 63460
L18757 63460
L18719 63479
L18700 63498
L18682 63535
L18682 63610
L18700 63648
L18719 63667
L18757 63685
L18850 63685
L18888 63667
L18907 63648
L18925 63610
L18925 63535
L18907 63498
L18888 63479
L18850 63460
" />
<path d="M36004 29433
L36323 29433
L36361 29415
L36379 29396
L36398 29358
L36398 29283
L36379 29246
L36361 29227
L36323 29208
L36004 29208
" />
<path d="M36173 28965
L36154 29002
L36136 29021
L36098 29040
L36079 29040
L36042 29021
L36023 29002
L36004 28965
L36004 28890
L36023 28852
L36042 28833
L36079 28815
L36098 28815
L36136 28833
L36154 28852
L36173 28890
L36173 28965
L36192 29002
L36211 29021
L36248 29040
L36323 29040
L36361 29021
L36379 29002
L36398 28965
L36398 28890
L36379 28852
L36361 28833
L36323 28815
L36248 28815
L36211 28833
L36192 28852
L36173 28890
" />
<path d="M27343 64079
L27662 64079
L27699 64060
L27718 64041
L27737 64004
L27737 63929
L27718 63892
L27699 63873
L27662 63854
L27343 63854
" />
<path d="M27343 63704
L27343 63442
L27737 63610
" />
<path d="M27343 29433
L27662 29433
L27699 29415
L27718 29396
L27737 29358
L27737 29283
L27718 29246
L27699 29227
L27662 29208
L27343 29208
" />
<path d="M27343 28852
L27343 28927
L27362 28965
L27380 28983
L27437 29021
L27512 29040
L27662 29040
L27699 29021
L27718 29002
L27737 28965
L27737 28890
L27718 28852
L27699 28833
L27662 28815
L27568 28815
L27530 28833
L27512 28852
L27493 28890
L27493 28965
L27512 29002
L27530 29021
L27568 29040
" />
<path d="M18682 29433
L19000 29433
L19038 29415
L19056 29396
L19075 29358
L19075 29283
L19056 29246
L19038 29227
L19000 29208
L18682 29208
" />
<path d="M18682 29058
L18682 28815
L18832 28946
L18832 28890
L18850 28852
L18869 28833
L18907 28815
L19000 28815
L19038 28833
L19056 28852
L19075 28890
L19075 29002
L19056 29040
L19038 29058
" />
<path d="M44666 64079
L44985 64079
L45022 64060
L45041 64041
L45059 64004
L45059 63929
L45041 63892
L45022 63873
L44985 63854
L44666 63854
" />
<path d="M44703 63685
L44685 63667
L44666 63629
L44666 63535
L44685 63498
L44703 63479
L44741 63460
L44778 63460
L44835 63479
L45059 63704
L45059 63460
" />
<path d="M10020 29433
L10339 29433
L10376 29415
L10395 29396
L10414 29358
L10414 29283
L10395 29246
L10376 29227
L10339 29208
L10020 29208
" />
<path d="M10414 28815
L10414 29040
" />
<path d="M10414 28927
L10020 28927
L10076 28965
L10114 29002
L10133 29040
" />
<path d="M7209 13997
L7209 13603
L7359 13603
L7396 13622
L7415 13640
L7434 13678
L7434 13734
L7415 13772
L7396 13790
L7359 13809
L7209 13809
" />
<path d="M7809 13997
L7584 13997
" />
<path d="M7696 13997
L7696 13603
L7659 13659
L7621 13697
L7584 13715
" />
<path d="M30831 9272
L30831 8878
L30981 8878
L31018 8897
L31037 8916
L31056 8953
L31056 9010
L31037 9047
L31018 9066
L30981 9085
L30831 9085
" />
<path d="M31206 8916
L31225 8897
L31262 8878
L31356 8878
L31393 8897
L31412 8916
L31431 8953
L31431 8991
L31412 9047
L31187 9272
L31431 9272
" />
<path d="M7209 76595
L7209 76201
L7359 76201
L7396 76220
L7415 76239
L7434 76276
L7434 76332
L7415 76370
L7396 76389
L7359 76407
L7209 76407
" />
<path d="M7565 76201
L7809 76201
L7678 76351
L7734 76351
L7771 76370
L7790 76389
L7809 76426
L7809 76520
L7790 76557
L7771 76576
L7734 76595
L7621 76595
L7584 76576
L7565 76557
" />
<path d="M13508 11241
L13508 10847
L13658 10847
L13696 10866
L13714 10884
L13733 10922
L13733 10978
L13714 11016
L13696 11034
L13658 11053
L13508 11053
" />
<path d="M14071 10978
L14071 11241
" />
<path d="M13977 10828
L13883 11109
L14127 11109
" />
<path d="M17051 11241
L17051 10847
L17201 10847
L17239 10866
L17258 10884
L17276 10922
L17276 10978
L17258 11016
L17239 11034
L17201 11053
L17051 11053
" />
<path d="M17633 10847
L17445 10847
L17426 11034
L17445 11016
L17483 10997
L17576 10997
L17614 11016
L17633 11034
L17651 11072
L17651 11166
L17633 11203
L17614 11222
L17576 11241
L17483 11241
L17445 11222
L17426 11203
" />
</g> 
</svg>
