G04 #@! TF.FileFunction,Soldermask,Bot*
%FSLAX46Y46*%
G04 Gerber Fmt 4.6, Leading zero omitted, Abs format (unit mm)*
G04 Created by KiCad (PCBNEW 4.0.6-e0-6349~53~ubuntu16.04.1) date Sat May 20 22:39:52 2017*
%MOMM*%
%LPD*%
G01*
G04 APERTURE LIST*
%ADD10C,0.150000*%
%ADD11C,3.000000*%
%ADD12C,1.800000*%
%ADD13R,2.499360X2.499360*%
%ADD14C,0.780000*%
%ADD15C,1.500000*%
%ADD16C,3.250000*%
%ADD17C,1.300000*%
%ADD18R,2.400000X2.400000*%
%ADD19C,2.400000*%
%ADD20C,2.500000*%
G04 APERTURE END LIST*
D10*
D11*
X178000000Y-113000000D03*
X90000000Y-113000000D03*
X90000000Y-59000000D03*
X178000000Y-59000000D03*
D12*
X142759680Y-112320000D03*
X145299680Y-112320000D03*
X132620000Y-112320000D03*
X135160000Y-112320000D03*
X140229840Y-112320000D03*
X137689840Y-112320000D03*
D13*
X127010000Y-89430000D03*
D14*
X140200000Y-61260000D03*
X131200000Y-61260000D03*
X138700000Y-65760000D03*
X138700000Y-64260000D03*
X138700000Y-62760000D03*
X138700000Y-61260000D03*
X135700000Y-65760000D03*
X135700000Y-64260000D03*
X135700000Y-62760000D03*
X135700000Y-61260000D03*
X137200000Y-61260000D03*
X137200000Y-62760000D03*
X137200000Y-64260000D03*
X137200000Y-65760000D03*
X134200000Y-65760000D03*
X134200000Y-64260000D03*
X134200000Y-62760000D03*
X134200000Y-61260000D03*
X132700000Y-61260000D03*
X132700000Y-62760000D03*
X132700000Y-64260000D03*
X132700000Y-65760000D03*
D15*
X96100000Y-84275000D03*
X96100000Y-86815000D03*
X96100000Y-94985000D03*
X96100000Y-97525000D03*
X107350000Y-86460000D03*
X107350000Y-91530000D03*
X107350000Y-89000000D03*
X107350000Y-94070000D03*
X109890000Y-87720000D03*
X109890000Y-92800000D03*
X109890000Y-90260000D03*
D16*
X101132080Y-96615000D03*
X101132080Y-85185000D03*
D17*
X104050000Y-83155000D03*
X104050000Y-98645000D03*
D15*
X109890000Y-95340000D03*
D18*
X104510000Y-74140000D03*
D19*
X109510000Y-74140000D03*
D18*
X151040000Y-63370000D03*
D19*
X146040000Y-63370000D03*
D12*
X125200000Y-106700000D03*
X127740000Y-106700000D03*
X130280000Y-106700000D03*
X127460000Y-59959840D03*
X127460000Y-57419840D03*
X127729840Y-112590000D03*
X125189840Y-112590000D03*
X173850160Y-78790000D03*
X176390160Y-78790000D03*
D20*
X158269940Y-64520000D03*
X161770060Y-64520000D03*
X166559940Y-64320000D03*
X170060060Y-64320000D03*
X120700060Y-107290000D03*
X117199940Y-107290000D03*
X92510000Y-75820060D03*
X92510000Y-72319940D03*
X119999940Y-62850000D03*
X123500060Y-62850000D03*
X111949940Y-62800000D03*
X115450060Y-62800000D03*
X103949940Y-62750000D03*
X107450060Y-62750000D03*
X95979940Y-62920000D03*
X99480060Y-62920000D03*
X170490060Y-108850000D03*
X166989940Y-108850000D03*
M02*
