G04 #@! TF.FileFunction,Copper,L2,Bot,Signal*
%FSLAX46Y46*%
G04 Gerber Fmt 4.6, Leading zero omitted, Abs format (unit mm)*
G04 Created by KiCad (PCBNEW 4.0.6-e0-6349~53~ubuntu16.04.1) date Sun May 21 20:45:15 2017*
%MOMM*%
%LPD*%
G01*
G04 APERTURE LIST*
%ADD10C,0.150000*%
%ADD11C,0.600000*%
%ADD12C,1.800000*%
%ADD13R,2.499360X2.499360*%
%ADD14C,0.780000*%
%ADD15R,8.330000X6.990000*%
%ADD16R,10.800000X1.910000*%
%ADD17C,1.500000*%
%ADD18R,2.400000X2.400000*%
%ADD19C,2.400000*%
%ADD20R,6.230000X6.740000*%
%ADD21C,0.500000*%
%ADD22R,5.800000X6.200000*%
%ADD23R,6.740000X6.230000*%
%ADD24C,2.500000*%
%ADD25C,1.700000*%
%ADD26C,0.700000*%
%ADD27C,1.000000*%
%ADD28C,0.400000*%
%ADD29C,0.300000*%
%ADD30C,0.500000*%
%ADD31C,0.250000*%
%ADD32C,3.000000*%
%ADD33C,0.700000*%
%ADD34C,0.350000*%
%ADD35C,0.800000*%
%ADD36C,0.254000*%
G04 APERTURE END LIST*
D10*
D11*
X177500000Y-81000000D03*
X177500000Y-82500000D03*
X177500000Y-84000000D03*
X174500000Y-84000000D03*
X175500000Y-85500000D03*
X174500000Y-85500000D03*
X175500000Y-84000000D03*
X176500000Y-84000000D03*
X176500000Y-82500000D03*
X164000000Y-69000000D03*
X163000000Y-67500000D03*
X162000000Y-66500000D03*
X155500000Y-68000000D03*
X154500000Y-67000000D03*
X153500000Y-66000000D03*
X152500000Y-65000000D03*
X154200000Y-63000000D03*
X155700000Y-63000000D03*
X151200000Y-61000000D03*
X152700000Y-61000000D03*
X155700000Y-61000000D03*
X154200000Y-61000000D03*
X148200000Y-61000000D03*
X149700000Y-61000000D03*
X146700000Y-61000000D03*
X145200000Y-61000000D03*
X143700000Y-61500000D03*
X142200000Y-61500000D03*
X142200000Y-63500000D03*
X143700000Y-63500000D03*
X141200000Y-67500000D03*
X142700000Y-67500000D03*
X144200000Y-65500000D03*
X142700000Y-65500000D03*
X141200000Y-65500000D03*
X144200000Y-67500000D03*
X118200000Y-60000000D03*
X121200000Y-60000000D03*
X119700000Y-60000000D03*
X119200000Y-65500000D03*
X120700000Y-65500000D03*
X117700000Y-65500000D03*
X116200000Y-65500000D03*
X114700000Y-65500000D03*
X113200000Y-65000000D03*
X111700000Y-65000000D03*
X110200000Y-65000000D03*
X110200000Y-60000000D03*
X108700000Y-60000000D03*
X104200000Y-60000000D03*
X105700000Y-60000000D03*
X107200000Y-60000000D03*
X113200000Y-71000000D03*
X113200000Y-69000000D03*
X110200000Y-67000000D03*
X111700000Y-67000000D03*
X113200000Y-67000000D03*
X111700000Y-69000000D03*
X110200000Y-69000000D03*
X108700000Y-69000000D03*
X112200000Y-73000000D03*
X112200000Y-75000000D03*
X108700000Y-71000000D03*
X110200000Y-71000000D03*
X107200000Y-71000000D03*
X105700000Y-71000000D03*
X111700000Y-71000000D03*
X110700000Y-81500000D03*
X112200000Y-81500000D03*
X112200000Y-79500000D03*
X112200000Y-77500000D03*
X106200000Y-79500000D03*
X107700000Y-79500000D03*
X106200000Y-77500000D03*
X107700000Y-77500000D03*
X110700000Y-77500000D03*
X109200000Y-77500000D03*
X110700000Y-79500000D03*
X109200000Y-79500000D03*
X103200000Y-79500000D03*
X104700000Y-79500000D03*
X103200000Y-77500000D03*
X104700000Y-77500000D03*
X101700000Y-77500000D03*
X101700000Y-75500000D03*
X100200000Y-77500000D03*
X100200000Y-75500000D03*
X107500000Y-65000000D03*
X103000000Y-68000000D03*
X104500000Y-68000000D03*
X105500000Y-67000000D03*
X126000000Y-70000000D03*
X126000000Y-68000000D03*
X126000000Y-66000000D03*
X112700000Y-83000000D03*
X114200000Y-83000000D03*
X101700000Y-79500000D03*
X100200000Y-79500000D03*
X101700000Y-81500000D03*
X100200000Y-81500000D03*
X179200000Y-117000000D03*
X177700000Y-117000000D03*
X176200000Y-117000000D03*
X173200000Y-117000000D03*
X174700000Y-117000000D03*
X173200000Y-115000000D03*
X173200000Y-113000000D03*
X174700000Y-113000000D03*
X174700000Y-115000000D03*
X174700000Y-110500000D03*
X174700000Y-106500000D03*
X174700000Y-108500000D03*
X173200000Y-108500000D03*
X173200000Y-106500000D03*
X173200000Y-110500000D03*
X176200000Y-100000000D03*
X176200000Y-102000000D03*
X176200000Y-110500000D03*
X176200000Y-106500000D03*
X176200000Y-108500000D03*
X176200000Y-104500000D03*
X177700000Y-104500000D03*
X177700000Y-108500000D03*
X177700000Y-106500000D03*
X177700000Y-110500000D03*
X177700000Y-102000000D03*
X177700000Y-100000000D03*
X179200000Y-90000000D03*
X179200000Y-92000000D03*
X179200000Y-96000000D03*
X179200000Y-94000000D03*
X179200000Y-100000000D03*
X179200000Y-102000000D03*
X179200000Y-98000000D03*
X179200000Y-110500000D03*
X179200000Y-106500000D03*
X179200000Y-108500000D03*
X179200000Y-104500000D03*
X179200000Y-77500000D03*
X179200000Y-81500000D03*
X179200000Y-79500000D03*
X179200000Y-85500000D03*
X179200000Y-87500000D03*
X179200000Y-83500000D03*
X179200000Y-71000000D03*
X177700000Y-71000000D03*
X179200000Y-75000000D03*
X179200000Y-73000000D03*
X177700000Y-73000000D03*
X177700000Y-67000000D03*
X179200000Y-67000000D03*
X179200000Y-69000000D03*
X177700000Y-69000000D03*
X177700000Y-65000000D03*
X179200000Y-65000000D03*
X179200000Y-63000000D03*
D12*
X142759680Y-112320000D03*
X145299680Y-112320000D03*
X132620000Y-112320000D03*
X135160000Y-112320000D03*
X140229840Y-112320000D03*
X137689840Y-112320000D03*
D11*
X127010000Y-89430000D03*
X126248000Y-88668000D03*
X126248000Y-90192000D03*
X127772000Y-88668000D03*
X127772000Y-90192000D03*
D13*
X127010000Y-89430000D03*
D14*
X140200000Y-61260000D03*
X131200000Y-61260000D03*
X138700000Y-65760000D03*
X138700000Y-64260000D03*
X138700000Y-62760000D03*
X138700000Y-61260000D03*
X135700000Y-65760000D03*
X135700000Y-64260000D03*
X135700000Y-62760000D03*
X135700000Y-61260000D03*
X137200000Y-61260000D03*
X137200000Y-62760000D03*
X137200000Y-64260000D03*
X137200000Y-65760000D03*
X134200000Y-65760000D03*
X134200000Y-64260000D03*
X134200000Y-62760000D03*
X134200000Y-61260000D03*
X132700000Y-61260000D03*
X132700000Y-62760000D03*
X132700000Y-64260000D03*
X132700000Y-65760000D03*
D15*
X135700000Y-63585000D03*
D16*
X135700000Y-61050000D03*
D17*
X96100000Y-84275000D03*
X96100000Y-86815000D03*
X96100000Y-94985000D03*
X96100000Y-97525000D03*
X107350000Y-86460000D03*
X107350000Y-91530000D03*
X107350000Y-89000000D03*
X107350000Y-94070000D03*
X109890000Y-87720000D03*
X109890000Y-92800000D03*
X109890000Y-90260000D03*
X109890000Y-95340000D03*
D18*
X104510000Y-74140000D03*
D19*
X109510000Y-74140000D03*
D18*
X151040000Y-63370000D03*
D19*
X146040000Y-63370000D03*
D12*
X125200000Y-106700000D03*
X127740000Y-106700000D03*
X130280000Y-106700000D03*
X127460000Y-59959840D03*
X127460000Y-57419840D03*
D20*
X157020000Y-111220000D03*
D21*
X154520000Y-113720000D03*
X154520000Y-112720000D03*
X154520000Y-111720000D03*
X154520000Y-110720000D03*
X154520000Y-109720000D03*
X154520000Y-108720000D03*
X155520000Y-113720000D03*
X155520000Y-112720000D03*
X155520000Y-111720000D03*
X155520000Y-110720000D03*
X155520000Y-109720000D03*
X155520000Y-108720000D03*
X156520000Y-108720000D03*
X156520000Y-109720000D03*
X156520000Y-110720000D03*
X156520000Y-111720000D03*
X156520000Y-112720000D03*
X156520000Y-113720000D03*
X157520000Y-113720000D03*
X157520000Y-112720000D03*
X157520000Y-111720000D03*
X157520000Y-110720000D03*
X157520000Y-109720000D03*
X157520000Y-108720000D03*
X158520000Y-108720000D03*
X158520000Y-109720000D03*
X158520000Y-110720000D03*
X158520000Y-111720000D03*
X158520000Y-112720000D03*
X158520000Y-113720000D03*
X159520000Y-113720000D03*
X159520000Y-112720000D03*
X159520000Y-111720000D03*
X159520000Y-110720000D03*
X159520000Y-109720000D03*
X159520000Y-108720000D03*
D20*
X102760000Y-111020000D03*
D21*
X100260000Y-113520000D03*
X100260000Y-112520000D03*
X100260000Y-111520000D03*
X100260000Y-110520000D03*
X100260000Y-109520000D03*
X100260000Y-108520000D03*
X101260000Y-113520000D03*
X101260000Y-112520000D03*
X101260000Y-111520000D03*
X101260000Y-110520000D03*
X101260000Y-109520000D03*
X101260000Y-108520000D03*
X102260000Y-108520000D03*
X102260000Y-109520000D03*
X102260000Y-110520000D03*
X102260000Y-111520000D03*
X102260000Y-112520000D03*
X102260000Y-113520000D03*
X103260000Y-113520000D03*
X103260000Y-112520000D03*
X103260000Y-111520000D03*
X103260000Y-110520000D03*
X103260000Y-109520000D03*
X103260000Y-108520000D03*
X104260000Y-108520000D03*
X104260000Y-109520000D03*
X104260000Y-110520000D03*
X104260000Y-111520000D03*
X104260000Y-112520000D03*
X104260000Y-113520000D03*
X105260000Y-113520000D03*
X105260000Y-112520000D03*
X105260000Y-111520000D03*
X105260000Y-110520000D03*
X105260000Y-109520000D03*
X105260000Y-108520000D03*
D20*
X111210000Y-110940000D03*
D21*
X108710000Y-113440000D03*
X108710000Y-112440000D03*
X108710000Y-111440000D03*
X108710000Y-110440000D03*
X108710000Y-109440000D03*
X108710000Y-108440000D03*
X109710000Y-113440000D03*
X109710000Y-112440000D03*
X109710000Y-111440000D03*
X109710000Y-110440000D03*
X109710000Y-109440000D03*
X109710000Y-108440000D03*
X110710000Y-108440000D03*
X110710000Y-109440000D03*
X110710000Y-110440000D03*
X110710000Y-111440000D03*
X110710000Y-112440000D03*
X110710000Y-113440000D03*
X111710000Y-113440000D03*
X111710000Y-112440000D03*
X111710000Y-111440000D03*
X111710000Y-110440000D03*
X111710000Y-109440000D03*
X111710000Y-108440000D03*
X112710000Y-108440000D03*
X112710000Y-109440000D03*
X112710000Y-110440000D03*
X112710000Y-111440000D03*
X112710000Y-112440000D03*
X112710000Y-113440000D03*
X113710000Y-113440000D03*
X113710000Y-112440000D03*
X113710000Y-111440000D03*
X113710000Y-110440000D03*
X113710000Y-109440000D03*
X113710000Y-108440000D03*
D22*
X163900000Y-73490000D03*
D21*
X166400000Y-70980000D03*
X166400000Y-71980000D03*
X166400000Y-72980000D03*
X166400000Y-73980000D03*
X166400000Y-74980000D03*
X166400000Y-75980000D03*
X165400000Y-70980000D03*
X165400000Y-71980000D03*
X165400000Y-72980000D03*
X165400000Y-73980000D03*
X165400000Y-74980000D03*
X165400000Y-75980000D03*
X164400000Y-75980000D03*
X164400000Y-74980000D03*
X164400000Y-73980000D03*
X164400000Y-72980000D03*
X164400000Y-71980000D03*
X164400000Y-70980000D03*
X163400000Y-70980000D03*
X163400000Y-71980000D03*
X163400000Y-72980000D03*
X163400000Y-73980000D03*
X163400000Y-74980000D03*
X163400000Y-75980000D03*
X162400000Y-75980000D03*
X162400000Y-74980000D03*
X162400000Y-73980000D03*
X162400000Y-72980000D03*
X162400000Y-71980000D03*
X162400000Y-70980000D03*
X161400000Y-70980000D03*
X161400000Y-71980000D03*
X161400000Y-72980000D03*
X161400000Y-73980000D03*
X161400000Y-74980000D03*
X161400000Y-75980000D03*
D23*
X164940000Y-89210000D03*
D21*
X162440000Y-86710000D03*
X163440000Y-86710000D03*
X164440000Y-86710000D03*
X165440000Y-86710000D03*
X166440000Y-86710000D03*
X167440000Y-86710000D03*
X162440000Y-87710000D03*
X163440000Y-87710000D03*
X164440000Y-87710000D03*
X165440000Y-87710000D03*
X166440000Y-87710000D03*
X167440000Y-87710000D03*
X167440000Y-88710000D03*
X166440000Y-88710000D03*
X165440000Y-88710000D03*
X164440000Y-88710000D03*
X163440000Y-88710000D03*
X162440000Y-88710000D03*
X162440000Y-89710000D03*
X163440000Y-89710000D03*
X164440000Y-89710000D03*
X165440000Y-89710000D03*
X166440000Y-89710000D03*
X167440000Y-89710000D03*
X167440000Y-90710000D03*
X166440000Y-90710000D03*
X165440000Y-90710000D03*
X164440000Y-90710000D03*
X163440000Y-90710000D03*
X162440000Y-90710000D03*
X162440000Y-91710000D03*
X163440000Y-91710000D03*
X164440000Y-91710000D03*
X165440000Y-91710000D03*
X166440000Y-91710000D03*
X167440000Y-91710000D03*
D12*
X127729840Y-112590000D03*
X125189840Y-112590000D03*
X173850160Y-78790000D03*
X176390160Y-78790000D03*
D24*
X158269940Y-64520000D03*
X161770060Y-64520000D03*
X166559940Y-64320000D03*
X170060060Y-64320000D03*
X120700060Y-107290000D03*
X117199940Y-107290000D03*
X92510000Y-75820060D03*
X92510000Y-72319940D03*
X119999940Y-62850000D03*
X123500060Y-62850000D03*
X111949940Y-62800000D03*
X115450060Y-62800000D03*
X103949940Y-62750000D03*
X107450060Y-62750000D03*
X95979940Y-62920000D03*
X99480060Y-62920000D03*
X170490060Y-108850000D03*
X166989940Y-108850000D03*
D11*
X177700000Y-63000000D03*
X125000000Y-64500000D03*
X170000000Y-62000000D03*
X98500000Y-105500000D03*
X106500000Y-66000000D03*
X176500000Y-81000000D03*
X116100000Y-142700000D03*
X115100000Y-142700000D03*
X114100000Y-142700000D03*
X113100000Y-142700000D03*
X116100000Y-141700000D03*
X115100000Y-141700000D03*
X114100000Y-141700000D03*
X113100000Y-141700000D03*
X116100000Y-140700000D03*
X115100000Y-140700000D03*
X114100000Y-140700000D03*
X113100000Y-140700000D03*
X116100000Y-139700000D03*
X115100000Y-139700000D03*
X114100000Y-139700000D03*
X113100000Y-139700000D03*
X100900000Y-140900000D03*
X100900000Y-139800000D03*
X107000000Y-142800000D03*
X107000000Y-141700000D03*
X107000000Y-140700000D03*
X107000000Y-139700000D03*
X106000000Y-143700000D03*
X107000000Y-143700000D03*
X106000000Y-144700000D03*
X107000000Y-144700000D03*
X93100000Y-149700000D03*
X93100000Y-150700000D03*
X93100000Y-148600000D03*
D25*
X94960000Y-140175000D03*
X94960000Y-137635000D03*
X94960000Y-135095000D03*
X97500000Y-136365000D03*
X97500000Y-133825000D03*
X97500000Y-138905000D03*
D11*
X87800000Y-129500000D03*
X88800000Y-129500000D03*
X89800000Y-129500000D03*
X90800000Y-129500000D03*
X87800000Y-130500000D03*
X88800000Y-130500000D03*
X89800000Y-130500000D03*
X87800000Y-131500000D03*
X88800000Y-131500000D03*
X87800000Y-132500000D03*
X88800000Y-132500000D03*
X87900000Y-140700000D03*
X87900000Y-141700000D03*
X87900000Y-142700000D03*
X87900000Y-143700000D03*
X87900000Y-144700000D03*
X87900000Y-145700000D03*
X87900000Y-146700000D03*
X87900000Y-147700000D03*
X87900000Y-148700000D03*
X87900000Y-149700000D03*
X87900000Y-150700000D03*
X91100000Y-141700000D03*
X90100000Y-140700000D03*
X89000000Y-148700000D03*
X89000000Y-142700000D03*
X89100000Y-140700000D03*
X91000000Y-139600000D03*
X90000000Y-142700000D03*
X91100000Y-142700000D03*
X91000000Y-140800000D03*
X90100000Y-139600000D03*
X108000000Y-147700000D03*
X109000000Y-147700000D03*
X110000000Y-147700000D03*
X111000000Y-147700000D03*
X112000000Y-147700000D03*
X108000000Y-148700000D03*
X109000000Y-148700000D03*
X110000000Y-148700000D03*
X111000000Y-148700000D03*
X112000000Y-148700000D03*
X108000000Y-149800000D03*
X109000000Y-149800000D03*
X110000000Y-149800000D03*
X111000000Y-149700000D03*
X112000000Y-149700000D03*
X108000000Y-150800000D03*
X109000000Y-150800000D03*
X110000000Y-150800000D03*
X111000000Y-150700000D03*
X112000000Y-150700000D03*
X89800000Y-137700000D03*
X88800000Y-137700000D03*
X87800000Y-137700000D03*
X89800000Y-136700000D03*
X88800000Y-136700000D03*
X87800000Y-136700000D03*
X89800000Y-135700000D03*
X88800000Y-135700000D03*
X87800000Y-135700000D03*
X89800000Y-134700000D03*
X88800000Y-134700000D03*
X87800000Y-134700000D03*
X89800000Y-133700000D03*
X88800000Y-133700000D03*
X87800000Y-133700000D03*
X89800000Y-132500000D03*
X89800000Y-131500000D03*
X90800000Y-131500000D03*
X90800000Y-132500000D03*
X90800000Y-133700000D03*
X90800000Y-134700000D03*
X90800000Y-135700000D03*
X90800000Y-136700000D03*
X90800000Y-137700000D03*
X90800000Y-130500000D03*
X93800000Y-130500000D03*
X93800000Y-132500000D03*
X93800000Y-131500000D03*
X92800000Y-131500000D03*
X92800000Y-132500000D03*
X91800000Y-132500000D03*
X91800000Y-131500000D03*
X92800000Y-130500000D03*
X91800000Y-130500000D03*
X93800000Y-129500000D03*
X92800000Y-129500000D03*
X91800000Y-129500000D03*
X87900000Y-139800000D03*
X87900000Y-138800000D03*
X89100000Y-141700000D03*
X88900000Y-138800000D03*
X90100000Y-143700000D03*
X90000000Y-141700000D03*
X89000000Y-144700000D03*
X89000000Y-143700000D03*
X91100000Y-143700000D03*
X89200000Y-139600000D03*
X90100000Y-138800000D03*
X91100000Y-148600000D03*
X90100000Y-148600000D03*
X92100000Y-148600000D03*
X92100000Y-150700000D03*
X91100000Y-150700000D03*
X90100000Y-150700000D03*
X92100000Y-149700000D03*
X91100000Y-149700000D03*
X90100000Y-149700000D03*
X89000000Y-150700000D03*
X89000000Y-149700000D03*
X89000000Y-151800000D03*
X89000000Y-152800000D03*
X90100000Y-151800000D03*
X91100000Y-151800000D03*
X92100000Y-151800000D03*
X90100000Y-152800000D03*
X91100000Y-152800000D03*
X92100000Y-152800000D03*
X97200000Y-152800000D03*
X97200000Y-151800000D03*
X87900000Y-152800000D03*
X87900000Y-151800000D03*
X98200000Y-151800000D03*
X98200000Y-152800000D03*
X99200000Y-152800000D03*
X112000000Y-152800000D03*
X111000000Y-152800000D03*
X110000000Y-152900000D03*
X109000000Y-152900000D03*
X108000000Y-152900000D03*
X112000000Y-151800000D03*
X111000000Y-151800000D03*
X110000000Y-151900000D03*
X109000000Y-151900000D03*
X108000000Y-151900000D03*
X113100000Y-151800000D03*
X114100000Y-151800000D03*
X115100000Y-151800000D03*
X113100000Y-152800000D03*
X114100000Y-152800000D03*
X115100000Y-152800000D03*
X115100000Y-150700000D03*
X114100000Y-150700000D03*
X113100000Y-150700000D03*
X115100000Y-149700000D03*
X114100000Y-149700000D03*
X113100000Y-149700000D03*
X115100000Y-148700000D03*
X114100000Y-148700000D03*
X113100000Y-148700000D03*
X114100000Y-143700000D03*
X115100000Y-143700000D03*
X113100000Y-144700000D03*
X112000000Y-146700000D03*
X111000000Y-146700000D03*
X110000000Y-146700000D03*
X109000000Y-146700000D03*
X108000000Y-146700000D03*
X112000000Y-145700000D03*
X111000000Y-145700000D03*
X110000000Y-145700000D03*
X109000000Y-145700000D03*
X108000000Y-145700000D03*
X112000000Y-144700000D03*
X111000000Y-144700000D03*
X110000000Y-144700000D03*
X109000000Y-144700000D03*
X108000000Y-144700000D03*
X113100000Y-143800000D03*
X112000000Y-143700000D03*
X111000000Y-143700000D03*
X110000000Y-143700000D03*
X109000000Y-143700000D03*
X108000000Y-143700000D03*
X116100000Y-143800000D03*
X118100000Y-146700000D03*
X117100000Y-146700000D03*
X118100000Y-145700000D03*
X117100000Y-145700000D03*
X118100000Y-144700000D03*
X117100000Y-144700000D03*
X116100000Y-144700000D03*
X118100000Y-143800000D03*
X117100000Y-143800000D03*
X117100000Y-147700000D03*
X118100000Y-147700000D03*
X116100000Y-148700000D03*
X117100000Y-148700000D03*
X118100000Y-148700000D03*
X116100000Y-149700000D03*
X117100000Y-149700000D03*
X118100000Y-149700000D03*
X116100000Y-150700000D03*
X117100000Y-150700000D03*
X118100000Y-150700000D03*
X118100000Y-152800000D03*
X117100000Y-152800000D03*
X116100000Y-152800000D03*
X118100000Y-151800000D03*
X117100000Y-151800000D03*
X116100000Y-151800000D03*
X108000000Y-139700000D03*
X109000000Y-139700000D03*
X110000000Y-139700000D03*
X111000000Y-139700000D03*
X112000000Y-139700000D03*
X108000000Y-140700000D03*
X109000000Y-140700000D03*
X110000000Y-140700000D03*
X111000000Y-140700000D03*
X112000000Y-140700000D03*
X108000000Y-141700000D03*
X109000000Y-141700000D03*
X110000000Y-141700000D03*
X111000000Y-141700000D03*
X112000000Y-141700000D03*
X108000000Y-142700000D03*
X109000000Y-142700000D03*
X110000000Y-142700000D03*
X111000000Y-142700000D03*
X112000000Y-142700000D03*
X116100000Y-133500000D03*
X116100000Y-137600000D03*
X117100000Y-137600000D03*
X118100000Y-137600000D03*
X116100000Y-138600000D03*
X117100000Y-138600000D03*
X118100000Y-138600000D03*
X118100000Y-136500000D03*
X117100000Y-136500000D03*
X116100000Y-136500000D03*
X118100000Y-135500000D03*
X117100000Y-135500000D03*
X116100000Y-135500000D03*
X118100000Y-134500000D03*
X117100000Y-134500000D03*
X116100000Y-134500000D03*
X118100000Y-133500000D03*
X117100000Y-133500000D03*
X117100000Y-129500000D03*
X118100000Y-129500000D03*
X116100000Y-130500000D03*
X117100000Y-130500000D03*
X118100000Y-130500000D03*
X116100000Y-131500000D03*
X117100000Y-131500000D03*
X118100000Y-131500000D03*
X116100000Y-132500000D03*
X117100000Y-132500000D03*
X118100000Y-132500000D03*
X116100000Y-129500000D03*
X108000000Y-129500000D03*
X109000000Y-129500000D03*
X110000000Y-129500000D03*
X111000000Y-129500000D03*
X112000000Y-129500000D03*
X113100000Y-129500000D03*
X108000000Y-130500000D03*
X109000000Y-130500000D03*
X110000000Y-130500000D03*
X111000000Y-130500000D03*
X112000000Y-130500000D03*
X108000000Y-131500000D03*
X109000000Y-131500000D03*
X110000000Y-131500000D03*
X111000000Y-131500000D03*
X112000000Y-131500000D03*
X108000000Y-132500000D03*
X109000000Y-132500000D03*
X110000000Y-132500000D03*
X111000000Y-132500000D03*
X112000000Y-132500000D03*
X115100000Y-132500000D03*
X114100000Y-132500000D03*
X113100000Y-132500000D03*
X115100000Y-131500000D03*
X114100000Y-131500000D03*
X113100000Y-131500000D03*
X115100000Y-130500000D03*
X114100000Y-130500000D03*
X113100000Y-130500000D03*
X115100000Y-129500000D03*
X114100000Y-129500000D03*
X114100000Y-133500000D03*
X115100000Y-133500000D03*
X113100000Y-134500000D03*
X114100000Y-134500000D03*
X115100000Y-134500000D03*
X113100000Y-135500000D03*
X114100000Y-135500000D03*
X115100000Y-135500000D03*
X113100000Y-136500000D03*
X114100000Y-136500000D03*
X115100000Y-136500000D03*
X115100000Y-138600000D03*
X114100000Y-138600000D03*
X113100000Y-138600000D03*
X115100000Y-137600000D03*
X114100000Y-137600000D03*
X113100000Y-137600000D03*
X108000000Y-137600000D03*
X109000000Y-137600000D03*
X110000000Y-137600000D03*
X111000000Y-137600000D03*
X112000000Y-137600000D03*
X108000000Y-138600000D03*
X109000000Y-138600000D03*
X110000000Y-138600000D03*
X111000000Y-138600000D03*
X112000000Y-138600000D03*
X112000000Y-136500000D03*
X111000000Y-136500000D03*
X110000000Y-136500000D03*
X109000000Y-136500000D03*
X108000000Y-136500000D03*
X112000000Y-135500000D03*
X111000000Y-135500000D03*
X110000000Y-135500000D03*
X109000000Y-135500000D03*
X108000000Y-135500000D03*
X112000000Y-134500000D03*
X111000000Y-134500000D03*
X110000000Y-134500000D03*
X109000000Y-134500000D03*
X108000000Y-134500000D03*
X113100000Y-133500000D03*
X112000000Y-133500000D03*
X111000000Y-133500000D03*
X110000000Y-133500000D03*
X109000000Y-133500000D03*
X108000000Y-133500000D03*
X97800000Y-129500000D03*
X98800000Y-129500000D03*
X99800000Y-129500000D03*
X97800000Y-130500000D03*
X98800000Y-130500000D03*
X97800000Y-131500000D03*
X98800000Y-131500000D03*
X99800000Y-131500000D03*
X99800000Y-130500000D03*
X96800000Y-130500000D03*
X96800000Y-131500000D03*
X95800000Y-131500000D03*
X94800000Y-131500000D03*
X95800000Y-130500000D03*
X94800000Y-130500000D03*
X96800000Y-129500000D03*
X95800000Y-129500000D03*
X94800000Y-129500000D03*
X100900000Y-134500000D03*
X101900000Y-134500000D03*
X102900000Y-134500000D03*
X103900000Y-134500000D03*
X104900000Y-134500000D03*
X100900000Y-135500000D03*
X101900000Y-135500000D03*
X102900000Y-135500000D03*
X103900000Y-135500000D03*
X104900000Y-135500000D03*
X100900000Y-136500000D03*
X101900000Y-136500000D03*
X102900000Y-136500000D03*
X103900000Y-136500000D03*
X104900000Y-136500000D03*
X104900000Y-138600000D03*
X103900000Y-138600000D03*
X102900000Y-138600000D03*
X101900000Y-138600000D03*
X100900000Y-138600000D03*
X104900000Y-137600000D03*
X103900000Y-137600000D03*
X102900000Y-137600000D03*
X101900000Y-137600000D03*
X100900000Y-137600000D03*
X106000000Y-137600000D03*
X107000000Y-137600000D03*
X106000000Y-138600000D03*
X107000000Y-138600000D03*
X107000000Y-136500000D03*
X106000000Y-136500000D03*
X107000000Y-135500000D03*
X106000000Y-135500000D03*
X107000000Y-134500000D03*
X106000000Y-134500000D03*
X117100000Y-139700000D03*
X118100000Y-139700000D03*
X118100000Y-141800000D03*
X117100000Y-141800000D03*
X118100000Y-140800000D03*
X117100000Y-140800000D03*
X117100000Y-142800000D03*
X118100000Y-142800000D03*
X93100000Y-151800000D03*
X94100000Y-151800000D03*
X95100000Y-151800000D03*
X96100000Y-151800000D03*
X93100000Y-152800000D03*
X94100000Y-152800000D03*
X95100000Y-152800000D03*
X96100000Y-152800000D03*
X183000000Y-142900000D03*
X183000000Y-141900000D03*
X183000000Y-140900000D03*
X183000000Y-139900000D03*
X172900000Y-143900000D03*
X173900000Y-143900000D03*
X172900000Y-144900000D03*
X173900000Y-144900000D03*
X160000000Y-149900000D03*
X160000000Y-150900000D03*
X160000000Y-148800000D03*
X153700000Y-129700000D03*
X154700000Y-129700000D03*
X155700000Y-129700000D03*
X156700000Y-129700000D03*
X157700000Y-129700000D03*
X153700000Y-130700000D03*
X154700000Y-130700000D03*
X155700000Y-130700000D03*
X156700000Y-130700000D03*
X153700000Y-131700000D03*
X154700000Y-131700000D03*
X155700000Y-131700000D03*
X153700000Y-132700000D03*
X154700000Y-132700000D03*
X155700000Y-132700000D03*
X153700000Y-137900000D03*
X153700000Y-136900000D03*
X153700000Y-135900000D03*
X153700000Y-134900000D03*
X153700000Y-133900000D03*
X153700000Y-138900000D03*
X153700000Y-139900000D03*
X153700000Y-140900000D03*
X153700000Y-141900000D03*
X153700000Y-142900000D03*
X153700000Y-143900000D03*
X153700000Y-144900000D03*
X153700000Y-145900000D03*
X153700000Y-146900000D03*
X153700000Y-147900000D03*
X153700000Y-148900000D03*
X153700000Y-149900000D03*
X153700000Y-150900000D03*
X154800000Y-140900000D03*
X154800000Y-141900000D03*
X154800000Y-142900000D03*
X154800000Y-143900000D03*
X154800000Y-144900000D03*
X154800000Y-145900000D03*
X154800000Y-146900000D03*
X154800000Y-147900000D03*
X154800000Y-148900000D03*
X154800000Y-149900000D03*
X154800000Y-150900000D03*
X158000000Y-141900000D03*
X157000000Y-140900000D03*
X155900000Y-148900000D03*
X155900000Y-142900000D03*
X156000000Y-140900000D03*
X157900000Y-139800000D03*
X156900000Y-142900000D03*
X158000000Y-142900000D03*
X157900000Y-141000000D03*
X157000000Y-139800000D03*
X174900000Y-147900000D03*
X175900000Y-147900000D03*
X176900000Y-147900000D03*
X177900000Y-147900000D03*
X178900000Y-147900000D03*
X174900000Y-148900000D03*
X175900000Y-148900000D03*
X176900000Y-148900000D03*
X177900000Y-148900000D03*
X178900000Y-148900000D03*
X174900000Y-150000000D03*
X175900000Y-150000000D03*
X176900000Y-150000000D03*
X177900000Y-149900000D03*
X178900000Y-149900000D03*
X174900000Y-151000000D03*
X175900000Y-151000000D03*
X176900000Y-151000000D03*
X177900000Y-150900000D03*
X178900000Y-150900000D03*
X156700000Y-137900000D03*
X155700000Y-137900000D03*
X154700000Y-137900000D03*
X156700000Y-136900000D03*
X155700000Y-136900000D03*
X154700000Y-136900000D03*
X156700000Y-135900000D03*
X155700000Y-135900000D03*
X154700000Y-135900000D03*
X156700000Y-134900000D03*
X155700000Y-134900000D03*
X154700000Y-134900000D03*
X156700000Y-133900000D03*
X155700000Y-133900000D03*
X154700000Y-133900000D03*
X156700000Y-132700000D03*
X156700000Y-131700000D03*
X157700000Y-131700000D03*
X157700000Y-132700000D03*
X157700000Y-133900000D03*
X157700000Y-134900000D03*
X157700000Y-135900000D03*
X157700000Y-136900000D03*
X157700000Y-137900000D03*
X157700000Y-130700000D03*
X160700000Y-130700000D03*
X160700000Y-132700000D03*
X160700000Y-131700000D03*
X159700000Y-131700000D03*
X159700000Y-132700000D03*
X158700000Y-132700000D03*
X158700000Y-131700000D03*
X159700000Y-130700000D03*
X158700000Y-130700000D03*
X160700000Y-129700000D03*
X159700000Y-129700000D03*
X158700000Y-129700000D03*
X154800000Y-140000000D03*
X154800000Y-139000000D03*
X156000000Y-141900000D03*
X155800000Y-139000000D03*
X157000000Y-143900000D03*
X156900000Y-141900000D03*
X155900000Y-144900000D03*
X155900000Y-143900000D03*
X158000000Y-143900000D03*
X156100000Y-139800000D03*
X157000000Y-139000000D03*
X158000000Y-148800000D03*
X157000000Y-148800000D03*
X159000000Y-148800000D03*
X159000000Y-150900000D03*
X158000000Y-150900000D03*
X157000000Y-150900000D03*
X159000000Y-149900000D03*
X158000000Y-149900000D03*
X157000000Y-149900000D03*
X155900000Y-150900000D03*
X155900000Y-149900000D03*
X155900000Y-152000000D03*
X155900000Y-153000000D03*
X157000000Y-152000000D03*
X158000000Y-152000000D03*
X159000000Y-152000000D03*
X157000000Y-153000000D03*
X158000000Y-153000000D03*
X159000000Y-153000000D03*
X164100000Y-153000000D03*
X154800000Y-153000000D03*
X154800000Y-152000000D03*
X153700000Y-153000000D03*
X153700000Y-152000000D03*
X165100000Y-152000000D03*
X165100000Y-153000000D03*
X166100000Y-153000000D03*
X178900000Y-153000000D03*
X177900000Y-153000000D03*
X176900000Y-153100000D03*
X175900000Y-153100000D03*
X174900000Y-153100000D03*
X178900000Y-152000000D03*
X177900000Y-152000000D03*
X176900000Y-152100000D03*
X175900000Y-152100000D03*
X174900000Y-152100000D03*
X180000000Y-152000000D03*
X181000000Y-152000000D03*
X182000000Y-152000000D03*
X180000000Y-153000000D03*
X181000000Y-153000000D03*
X182000000Y-153000000D03*
X182000000Y-150900000D03*
X181000000Y-150900000D03*
X180000000Y-150900000D03*
X182000000Y-149900000D03*
X181000000Y-149900000D03*
X180000000Y-149900000D03*
X182000000Y-148900000D03*
X181000000Y-148900000D03*
X180000000Y-148900000D03*
X181000000Y-143900000D03*
X182000000Y-143900000D03*
X180000000Y-144900000D03*
X178900000Y-146900000D03*
X177900000Y-146900000D03*
X176900000Y-146900000D03*
X175900000Y-146900000D03*
X174900000Y-146900000D03*
X178900000Y-145900000D03*
X177900000Y-145900000D03*
X176900000Y-145900000D03*
X175900000Y-145900000D03*
X174900000Y-145900000D03*
X178900000Y-144900000D03*
X177900000Y-144900000D03*
X176900000Y-144900000D03*
X175900000Y-144900000D03*
X174900000Y-144900000D03*
X180000000Y-144000000D03*
X178900000Y-143900000D03*
X177900000Y-143900000D03*
X176900000Y-143900000D03*
X175900000Y-143900000D03*
X174900000Y-143900000D03*
X183000000Y-144000000D03*
X185000000Y-146900000D03*
X184000000Y-146900000D03*
X185000000Y-145900000D03*
X184000000Y-145900000D03*
X185000000Y-144900000D03*
X184000000Y-144900000D03*
X183000000Y-144900000D03*
X185000000Y-144000000D03*
X184000000Y-144000000D03*
X184000000Y-147900000D03*
X185000000Y-147900000D03*
X183000000Y-148900000D03*
X184000000Y-148900000D03*
X185000000Y-148900000D03*
X183000000Y-149900000D03*
X184000000Y-149900000D03*
X185000000Y-149900000D03*
X183000000Y-150900000D03*
X184000000Y-150900000D03*
X185000000Y-150900000D03*
X185000000Y-153000000D03*
X184000000Y-153000000D03*
X183000000Y-153000000D03*
X185000000Y-152000000D03*
X184000000Y-152000000D03*
X183000000Y-152000000D03*
X183000000Y-133700000D03*
X183000000Y-137800000D03*
X184000000Y-137800000D03*
X185000000Y-137800000D03*
X183000000Y-138800000D03*
X184000000Y-138800000D03*
X185000000Y-138800000D03*
X185000000Y-136700000D03*
X184000000Y-136700000D03*
X183000000Y-136700000D03*
X185000000Y-135700000D03*
X184000000Y-135700000D03*
X183000000Y-135700000D03*
X185000000Y-134700000D03*
X184000000Y-134700000D03*
X183000000Y-134700000D03*
X185000000Y-133700000D03*
X184000000Y-133700000D03*
X184000000Y-129700000D03*
X185000000Y-129700000D03*
X183000000Y-130700000D03*
X184000000Y-130700000D03*
X185000000Y-130700000D03*
X183000000Y-131700000D03*
X184000000Y-131700000D03*
X185000000Y-131700000D03*
X183000000Y-132700000D03*
X184000000Y-132700000D03*
X185000000Y-132700000D03*
X183000000Y-129700000D03*
X174900000Y-129700000D03*
X175900000Y-129700000D03*
X176900000Y-129700000D03*
X177900000Y-129700000D03*
X178900000Y-129700000D03*
X180000000Y-129700000D03*
X174900000Y-130700000D03*
X175900000Y-130700000D03*
X176900000Y-130700000D03*
X177900000Y-130700000D03*
X178900000Y-130700000D03*
X174900000Y-131700000D03*
X175900000Y-131700000D03*
X176900000Y-131700000D03*
X177900000Y-131700000D03*
X178900000Y-131700000D03*
X174900000Y-132700000D03*
X175900000Y-132700000D03*
X176900000Y-132700000D03*
X177900000Y-132700000D03*
X178900000Y-132700000D03*
X182000000Y-132700000D03*
X181000000Y-132700000D03*
X180000000Y-132700000D03*
X182000000Y-131700000D03*
X181000000Y-131700000D03*
X180000000Y-131700000D03*
X182000000Y-130700000D03*
X181000000Y-130700000D03*
X180000000Y-130700000D03*
X182000000Y-129700000D03*
X181000000Y-129700000D03*
X164700000Y-129700000D03*
X165700000Y-129700000D03*
X166700000Y-129700000D03*
X164700000Y-130700000D03*
X165700000Y-130700000D03*
X164700000Y-131700000D03*
X165700000Y-131700000D03*
X166700000Y-131700000D03*
X166700000Y-130700000D03*
X163700000Y-130700000D03*
X163700000Y-131700000D03*
X162700000Y-131700000D03*
X161700000Y-131700000D03*
X162700000Y-130700000D03*
X161700000Y-130700000D03*
X163700000Y-129700000D03*
X162700000Y-129700000D03*
X161700000Y-129700000D03*
X184000000Y-139900000D03*
X185000000Y-139900000D03*
X185000000Y-142000000D03*
X184000000Y-142000000D03*
X185000000Y-141000000D03*
X184000000Y-141000000D03*
X184000000Y-143000000D03*
X185000000Y-143000000D03*
X160000000Y-152000000D03*
X161000000Y-152000000D03*
X162000000Y-152000000D03*
X163000000Y-152000000D03*
X160000000Y-153000000D03*
X161000000Y-153000000D03*
X162000000Y-153000000D03*
X163000000Y-153000000D03*
X146500000Y-130200000D03*
X147500000Y-130200000D03*
X146500000Y-131400000D03*
X147500000Y-131400000D03*
X146500000Y-132400000D03*
X147500000Y-132400000D03*
X146500000Y-133400000D03*
X147500000Y-133400000D03*
X146500000Y-134400000D03*
X147500000Y-134400000D03*
X146500000Y-135400000D03*
X147500000Y-135400000D03*
X146500000Y-136400000D03*
X147500000Y-136400000D03*
X146500000Y-137400000D03*
X147500000Y-137400000D03*
X146500000Y-138400000D03*
X147500000Y-138400000D03*
X146500000Y-139400000D03*
X147500000Y-139400000D03*
X146500000Y-140400000D03*
X147500000Y-140400000D03*
X146500000Y-141400000D03*
X147500000Y-141400000D03*
X146500000Y-142400000D03*
X147500000Y-142400000D03*
X146500000Y-143400000D03*
X147500000Y-143400000D03*
X145400000Y-143400000D03*
X144400000Y-143400000D03*
X145400000Y-142400000D03*
X144400000Y-142400000D03*
X145400000Y-141400000D03*
X144400000Y-141400000D03*
X145400000Y-140400000D03*
X144400000Y-140400000D03*
X145400000Y-139400000D03*
X144400000Y-139400000D03*
X145400000Y-138400000D03*
X144400000Y-138400000D03*
X145400000Y-137400000D03*
X144400000Y-137400000D03*
X145400000Y-136400000D03*
X144400000Y-136400000D03*
X145400000Y-135400000D03*
X144400000Y-135400000D03*
X145400000Y-134400000D03*
X144400000Y-134400000D03*
X145400000Y-133400000D03*
X144400000Y-133400000D03*
X145400000Y-132400000D03*
X144400000Y-132400000D03*
X145400000Y-131400000D03*
X144400000Y-131400000D03*
X145400000Y-130200000D03*
X144400000Y-130200000D03*
X148500000Y-130200000D03*
X149500000Y-130200000D03*
X148500000Y-131400000D03*
X149500000Y-131400000D03*
X148500000Y-132400000D03*
X149500000Y-132400000D03*
X148500000Y-133400000D03*
X149500000Y-133400000D03*
X148500000Y-134400000D03*
X149500000Y-134400000D03*
X148500000Y-135400000D03*
X149500000Y-135400000D03*
X148500000Y-136400000D03*
X149500000Y-136400000D03*
X148500000Y-137400000D03*
X149500000Y-137400000D03*
X148500000Y-138400000D03*
X149500000Y-138400000D03*
X148500000Y-139400000D03*
X149500000Y-139400000D03*
X148500000Y-140400000D03*
X149500000Y-140400000D03*
X148500000Y-141400000D03*
X149500000Y-141400000D03*
X148500000Y-142400000D03*
X149500000Y-142400000D03*
X148500000Y-143400000D03*
X149500000Y-143400000D03*
X124200000Y-130300000D03*
X125200000Y-130300000D03*
X124200000Y-131300000D03*
X125200000Y-131300000D03*
X124200000Y-132300000D03*
X125200000Y-132300000D03*
X124200000Y-133300000D03*
X124200000Y-134300000D03*
X125300000Y-136500000D03*
X125300000Y-135500000D03*
X124300000Y-135500000D03*
X124300000Y-136500000D03*
X125300000Y-134300000D03*
X125300000Y-133300000D03*
X123100000Y-133200000D03*
X123100000Y-134200000D03*
X122100000Y-139400000D03*
X122100000Y-138400000D03*
X122100000Y-137400000D03*
X122100000Y-136400000D03*
X122100000Y-135400000D03*
X122100000Y-140400000D03*
X122100000Y-141400000D03*
X122100000Y-142400000D03*
X122100000Y-143400000D03*
X123200000Y-142400000D03*
X123200000Y-143400000D03*
X123100000Y-141400000D03*
X123100000Y-140400000D03*
X123100000Y-135400000D03*
X123100000Y-136400000D03*
X123100000Y-137400000D03*
X123100000Y-138400000D03*
X123100000Y-139400000D03*
X121000000Y-139400000D03*
X121000000Y-138400000D03*
X121000000Y-137400000D03*
X121000000Y-136400000D03*
X121000000Y-135400000D03*
X121000000Y-140400000D03*
X121000000Y-141400000D03*
X128200000Y-142800000D03*
X129100000Y-143600000D03*
X129900000Y-144600000D03*
X129900000Y-145600000D03*
X129900000Y-146600000D03*
X146200000Y-152400000D03*
X146200000Y-151400000D03*
X146200000Y-150400000D03*
X146200000Y-149400000D03*
X151600000Y-152400000D03*
X150600000Y-152400000D03*
X149600000Y-152400000D03*
X148600000Y-152400000D03*
X147600000Y-152400000D03*
X151600000Y-151400000D03*
X150600000Y-151400000D03*
X149600000Y-151400000D03*
X148600000Y-151400000D03*
X147600000Y-151400000D03*
X151600000Y-150400000D03*
X150600000Y-150400000D03*
X149600000Y-150400000D03*
X148600000Y-150400000D03*
X147600000Y-150400000D03*
X151600000Y-149400000D03*
X150600000Y-149400000D03*
X149600000Y-149400000D03*
X148600000Y-149400000D03*
X147600000Y-149400000D03*
X151600000Y-148400000D03*
X150600000Y-148400000D03*
X149600000Y-148400000D03*
X148600000Y-148400000D03*
X147600000Y-148400000D03*
X151600000Y-147400000D03*
X150600000Y-147400000D03*
X149600000Y-147400000D03*
X151600000Y-146400000D03*
X150600000Y-146400000D03*
X151600000Y-145400000D03*
X150600000Y-145400000D03*
X151600000Y-144400000D03*
X150600000Y-144400000D03*
X149600000Y-144400000D03*
X151600000Y-143400000D03*
X150600000Y-143400000D03*
X151600000Y-142400000D03*
X150600000Y-142400000D03*
X151600000Y-141400000D03*
X150600000Y-141400000D03*
X151600000Y-140400000D03*
X150600000Y-140400000D03*
X151600000Y-139400000D03*
X150600000Y-139400000D03*
X151600000Y-138400000D03*
X150600000Y-138400000D03*
X151600000Y-137400000D03*
X150600000Y-137400000D03*
X151600000Y-136400000D03*
X150600000Y-136400000D03*
X151600000Y-135400000D03*
X150600000Y-135400000D03*
X151600000Y-134400000D03*
X150600000Y-134400000D03*
X151600000Y-133400000D03*
X150600000Y-133400000D03*
X151600000Y-132400000D03*
X150600000Y-132400000D03*
X151600000Y-131400000D03*
X150600000Y-131400000D03*
X151600000Y-130200000D03*
X150600000Y-130200000D03*
X124300000Y-152500000D03*
X123300000Y-152500000D03*
X124300000Y-151500000D03*
X123300000Y-151500000D03*
X124300000Y-150500000D03*
X123300000Y-150500000D03*
X124300000Y-149500000D03*
X123300000Y-149500000D03*
X124300000Y-148500000D03*
X123300000Y-148500000D03*
X122200000Y-152400000D03*
X122200000Y-150500000D03*
X122200000Y-149500000D03*
X122200000Y-148500000D03*
X122200000Y-151500000D03*
X121100000Y-152400000D03*
X121100000Y-151400000D03*
X121100000Y-150400000D03*
X121100000Y-149400000D03*
X121100000Y-148400000D03*
X121100000Y-147400000D03*
X121100000Y-146400000D03*
X121100000Y-145400000D03*
X121100000Y-144400000D03*
X121100000Y-143400000D03*
X121100000Y-142400000D03*
X120000000Y-152400000D03*
X120000000Y-151400000D03*
X120000000Y-150400000D03*
X120000000Y-149400000D03*
X120000000Y-148400000D03*
X120000000Y-147400000D03*
X120000000Y-146400000D03*
X120000000Y-145400000D03*
X120000000Y-144400000D03*
X120000000Y-143400000D03*
X120000000Y-142400000D03*
X120000000Y-141400000D03*
X120000000Y-140400000D03*
X120000000Y-135400000D03*
X120000000Y-136400000D03*
X120000000Y-137400000D03*
X120000000Y-138400000D03*
X120000000Y-139400000D03*
X122000000Y-134200000D03*
X121000000Y-134200000D03*
X120000000Y-134200000D03*
X122000000Y-133200000D03*
X121000000Y-133200000D03*
X120000000Y-133200000D03*
X123000000Y-132200000D03*
X122000000Y-132200000D03*
X121000000Y-132200000D03*
X120000000Y-132200000D03*
X123000000Y-131200000D03*
X122000000Y-131200000D03*
X121000000Y-131200000D03*
X120000000Y-131200000D03*
X123000000Y-130200000D03*
X122000000Y-130200000D03*
X121000000Y-130200000D03*
X135450000Y-148900000D03*
X136212000Y-148138000D03*
X134688000Y-148138000D03*
X136212000Y-149662000D03*
X134688000Y-149662000D03*
D13*
X135450000Y-148900000D03*
D11*
X120000000Y-130200000D03*
D25*
X127510000Y-140575000D03*
X127510000Y-138035000D03*
X127510000Y-135495000D03*
X130050000Y-136765000D03*
X130050000Y-134225000D03*
X130050000Y-139305000D03*
D26*
X169200000Y-145400000D03*
X172300000Y-142200000D03*
X119600000Y-89400000D03*
X113100000Y-90500000D03*
X122770000Y-86170000D03*
X122900000Y-93150000D03*
X144200000Y-83600000D03*
X134800000Y-84400000D03*
X155950000Y-85950000D03*
X143325000Y-84650000D03*
X135000000Y-85500000D03*
X131600000Y-84300000D03*
X134800000Y-98100000D03*
X133975000Y-88500000D03*
X140900000Y-96500000D03*
X163770000Y-105230000D03*
X93000000Y-57110000D03*
X174370000Y-87720000D03*
X176280000Y-94610000D03*
X167720000Y-77910000D03*
X173990000Y-103200000D03*
X172620000Y-101490000D03*
X172620000Y-101500000D03*
X165400000Y-116800000D03*
X147010000Y-79640000D03*
X157430000Y-74880000D03*
X154720000Y-74330000D03*
X147220000Y-75630000D03*
X163390000Y-99860000D03*
X158590000Y-100380000D03*
X138390000Y-110140000D03*
X134560000Y-106650000D03*
X118830000Y-99150000D03*
X96380000Y-112610000D03*
X94450000Y-103100000D03*
X95440000Y-108510000D03*
X131430000Y-79700000D03*
X139250000Y-76220000D03*
X135710000Y-76540000D03*
X87450000Y-61410000D03*
X156420000Y-92870000D03*
X110900000Y-100500000D03*
X126300000Y-95800000D03*
X134600000Y-92300000D03*
X138670000Y-82750000D03*
X154350000Y-82100000D03*
X159550000Y-87400000D03*
X148950000Y-99050000D03*
X129500000Y-101200000D03*
X124000000Y-82800000D03*
X118300000Y-93300000D03*
X94400000Y-144300000D03*
X99500000Y-151500000D03*
X100700000Y-152500000D03*
X101000000Y-146700000D03*
X104900000Y-151100000D03*
X104800000Y-150100000D03*
X105000000Y-147000000D03*
X104700000Y-149000000D03*
X105500000Y-148100000D03*
X161700000Y-142700000D03*
X163000000Y-145000000D03*
X159100000Y-137900000D03*
X171800000Y-151300000D03*
X171700000Y-150300000D03*
X171900000Y-147200000D03*
X171600000Y-149200000D03*
X172400000Y-148300000D03*
X127300000Y-149800000D03*
X125500000Y-152000000D03*
X127200000Y-147900000D03*
X138700000Y-147400000D03*
X141200000Y-146000000D03*
X132100000Y-147000000D03*
X99470000Y-100440000D03*
X117300000Y-91500000D03*
X115200000Y-90800000D03*
X116000000Y-86800000D03*
X113400000Y-85800000D03*
X96280000Y-99580000D03*
X136200000Y-87700000D03*
X139200000Y-89900000D03*
X117800000Y-71400000D03*
X133900000Y-77380000D03*
X135400000Y-99200000D03*
X126500000Y-83300000D03*
X133800000Y-100250000D03*
X124800000Y-84100000D03*
X130850000Y-100500000D03*
X124200000Y-85350000D03*
X135800000Y-95100000D03*
X135900000Y-92400000D03*
X134000000Y-96300000D03*
X132900000Y-87800000D03*
X151340000Y-97170000D03*
X154010000Y-98020000D03*
X162260000Y-95040000D03*
X161800000Y-93540000D03*
X114460000Y-100150000D03*
X114630000Y-104950000D03*
X158860000Y-92520000D03*
X173740000Y-81110000D03*
X127850000Y-80350000D03*
X128650000Y-81000000D03*
X129450000Y-81600000D03*
X141400000Y-82800000D03*
X153150000Y-84300000D03*
X158300000Y-87650000D03*
X129400000Y-82700000D03*
X138200000Y-89000000D03*
X147500000Y-104100000D03*
X114000000Y-57500000D03*
X113995000Y-59005000D03*
X115000000Y-60000000D03*
X173620000Y-85040000D03*
X92350000Y-61350000D03*
X145760000Y-97780000D03*
X154550000Y-95450000D03*
X155830000Y-91690000D03*
X176390000Y-96590000D03*
X172010000Y-93980000D03*
X177390000Y-89340000D03*
X161250000Y-83990000D03*
X153170000Y-70830000D03*
X163920000Y-107040000D03*
X161630000Y-107290000D03*
X165000000Y-101500000D03*
X152890000Y-106480000D03*
X92260000Y-79910000D03*
X107820000Y-105030000D03*
X96790000Y-106680000D03*
X97450000Y-105610000D03*
X115500000Y-109000000D03*
X170000000Y-79000000D03*
X170000000Y-67000000D03*
X130820000Y-75550000D03*
X161270000Y-95940000D03*
X161740000Y-105160000D03*
X148530000Y-72920000D03*
X151770000Y-76200000D03*
X93300000Y-146900000D03*
X96100000Y-142900000D03*
X98100000Y-144200000D03*
X99500000Y-148400000D03*
X99100000Y-149700000D03*
X97300000Y-149800000D03*
X165000000Y-133200000D03*
X166300000Y-150300000D03*
X166800000Y-149100000D03*
X164000000Y-151100000D03*
X167000000Y-144700000D03*
X167200000Y-135000000D03*
X144100000Y-152000000D03*
X170200000Y-138200000D03*
X170000000Y-140900000D03*
X95300000Y-146500000D03*
X101000000Y-148100000D03*
D27*
X172300000Y-142200000D02*
X172300000Y-142300000D01*
X172300000Y-142300000D02*
X169200000Y-145400000D01*
D28*
X122830182Y-89401310D02*
X122900000Y-93150000D01*
D29*
X122830182Y-89401300D02*
X122830182Y-89401310D01*
X119601300Y-89401300D02*
X122830182Y-89401300D01*
X119600000Y-89400000D02*
X119601300Y-89401300D01*
X109890000Y-90260000D02*
X109540000Y-90260000D01*
X108270000Y-91530000D02*
X107350000Y-91530000D01*
X109540000Y-90260000D02*
X108270000Y-91530000D01*
X110430000Y-90800000D02*
X109890000Y-90260000D01*
X112800000Y-90800000D02*
X110430000Y-90800000D01*
X113100000Y-90500000D02*
X112800000Y-90800000D01*
D28*
X122770000Y-86170000D02*
X122830182Y-89401310D01*
D30*
X152900000Y-85500000D02*
X155500000Y-85500000D01*
X155500000Y-85500000D02*
X155950000Y-85950000D01*
X152430010Y-85030010D02*
X152900000Y-85500000D01*
X150900000Y-83600000D02*
X152330010Y-85030010D01*
X152330010Y-85030010D02*
X152430010Y-85030010D01*
X143900000Y-83600000D02*
X144200000Y-83600000D01*
X144200000Y-83600000D02*
X150900000Y-83600000D01*
D28*
X143900000Y-83600000D02*
X134800000Y-84400000D01*
X135000000Y-85500000D02*
X136700000Y-85300000D01*
X136700000Y-85300000D02*
X143325000Y-84650000D01*
D31*
X132100000Y-88900000D02*
X131600000Y-84300000D01*
X134800000Y-98100000D02*
X133300000Y-97600000D01*
X133300000Y-97600000D02*
X132100000Y-88900000D01*
X140900000Y-96500000D02*
X137800000Y-93500000D01*
X137800000Y-93500000D02*
X136850000Y-89600000D01*
X136850000Y-89600000D02*
X133975000Y-88500000D01*
D27*
X163760000Y-105220000D02*
X163740000Y-105220000D01*
X163770000Y-105230000D02*
X163760000Y-105220000D01*
X174370000Y-87740000D02*
X174370000Y-87760000D01*
X174370000Y-87720000D02*
X174370000Y-87740000D01*
X176340000Y-94670000D02*
X176340000Y-94710000D01*
X176280000Y-94610000D02*
X176340000Y-94670000D01*
D32*
X172260000Y-101210000D02*
X173750000Y-102700000D01*
X172260000Y-101210000D02*
X172260000Y-101130000D01*
X173750000Y-102960000D02*
X173750000Y-102700000D01*
X173990000Y-103200000D02*
X173750000Y-102960000D01*
X172620000Y-101490000D02*
X172260000Y-101130000D01*
X172260000Y-101130000D02*
X172260000Y-100770000D01*
D27*
X172610000Y-101510000D02*
X172590000Y-101510000D01*
X172620000Y-101500000D02*
X172610000Y-101510000D01*
X165340000Y-116860000D02*
X165340000Y-116910000D01*
X165400000Y-116800000D02*
X165340000Y-116860000D01*
X147220000Y-75630000D02*
X147220000Y-75660000D01*
D29*
X118810000Y-99190000D02*
X118810000Y-99210000D01*
X118830000Y-99170000D02*
X118810000Y-99190000D01*
X118830000Y-99150000D02*
X118830000Y-99170000D01*
X96380000Y-112610000D02*
X96380000Y-109450000D01*
X96380000Y-109450000D02*
X95440000Y-108510000D01*
D27*
X139300000Y-76270000D02*
X139200000Y-76170000D01*
X139250000Y-76220000D02*
X139300000Y-76270000D01*
D31*
X156420000Y-92870000D02*
X156470000Y-92820000D01*
X134800000Y-95600000D02*
X140600000Y-101000000D01*
X134800000Y-92900000D02*
X134800000Y-95600000D01*
X134600000Y-92300000D02*
X134800000Y-92900000D01*
X138670000Y-82750000D02*
X138670000Y-82800000D01*
X148950000Y-99050000D02*
X148950000Y-99025000D01*
D30*
X124000000Y-82800000D02*
X124000000Y-82700000D01*
D33*
X118300000Y-93300000D02*
X118300000Y-93330000D01*
D27*
X94400000Y-144300000D02*
X94300000Y-144300000D01*
D33*
X161600000Y-142700000D02*
X161600000Y-142600000D01*
X161700000Y-142700000D02*
X161600000Y-142700000D01*
D30*
X161600000Y-143600000D02*
X161600000Y-142600000D01*
X163000000Y-145000000D02*
X161600000Y-143600000D01*
D27*
X161600000Y-142600000D02*
X159100000Y-140100000D01*
X159100000Y-140100000D02*
X159100000Y-137900000D01*
X125500000Y-149600000D02*
X125500000Y-152000000D01*
X127200000Y-147900000D02*
X125500000Y-149600000D01*
D31*
X138700000Y-147400000D02*
X139800000Y-147400000D01*
X139800000Y-147400000D02*
X141200000Y-146000000D01*
D29*
X94825000Y-84275000D02*
X96100000Y-84275000D01*
X94840000Y-86130000D02*
X94825000Y-84275000D01*
X94840000Y-101930000D02*
X94840000Y-86130000D01*
X95650000Y-103010000D02*
X94840000Y-101930000D01*
X97100000Y-103000000D02*
X95650000Y-103010000D01*
X99470000Y-100440000D02*
X97100000Y-103000000D01*
D31*
X116000000Y-92800000D02*
X109890000Y-92800000D01*
X117300000Y-91500000D02*
X116000000Y-92800000D01*
X114200000Y-89000000D02*
X107350000Y-89000000D01*
X114800000Y-89600000D02*
X114200000Y-89000000D01*
X114800000Y-90400000D02*
X114800000Y-89600000D01*
X115200000Y-90800000D02*
X114800000Y-90400000D01*
X116000000Y-86800000D02*
X111920000Y-87720000D01*
X109890000Y-87720000D02*
X111920000Y-87720000D01*
X107350000Y-86460000D02*
X107540000Y-86460000D01*
X112100000Y-85600000D02*
X113400000Y-85800000D01*
X108400000Y-85600000D02*
X112100000Y-85600000D01*
X107540000Y-86460000D02*
X108400000Y-85600000D01*
D29*
X96370000Y-98680000D02*
X96100000Y-97525000D01*
X96400000Y-99460000D02*
X96370000Y-98680000D01*
X96280000Y-99580000D02*
X96400000Y-99460000D01*
D31*
X138200000Y-88200000D02*
X136200000Y-87700000D01*
X139200000Y-89900000D02*
X139000000Y-89700000D01*
X139000000Y-89700000D02*
X139000000Y-88600000D01*
X139000000Y-88600000D02*
X138200000Y-88200000D01*
X136200000Y-87700000D02*
X136200000Y-87700000D01*
D27*
X118200000Y-71400000D02*
X117800000Y-71400000D01*
X124450000Y-77380000D02*
X118200000Y-71400000D01*
X133900000Y-77380000D02*
X124450000Y-77380000D01*
D29*
X135400000Y-99200000D02*
X134000000Y-99200000D01*
X134000000Y-99200000D02*
X132600000Y-98300000D01*
X132600000Y-98300000D02*
X130770000Y-85220000D01*
D31*
X130605997Y-84233053D02*
X126500000Y-83300000D01*
X130770000Y-85220000D02*
X130605997Y-84233053D01*
D29*
X133800000Y-100250000D02*
X131800000Y-99400000D01*
X131850000Y-99450000D02*
X130970000Y-92160000D01*
X129900000Y-85250000D02*
X124800000Y-84100000D01*
X130970000Y-92160000D02*
X129900000Y-85250000D01*
X130850000Y-100500000D02*
X130802033Y-100599872D01*
X130802033Y-100599872D02*
X130610000Y-96430000D01*
X130610000Y-96430000D02*
X128900000Y-85950000D01*
X128900000Y-85950000D02*
X124200000Y-85350000D01*
X135800000Y-95100000D02*
X135900000Y-92400000D01*
D28*
X132900000Y-87800000D02*
X132910000Y-87686441D01*
D31*
X132910000Y-87686441D02*
X133100000Y-89300000D01*
X133100000Y-89300000D02*
X133550000Y-92100000D01*
X133550000Y-92100000D02*
X134000000Y-96300000D01*
X153160000Y-97170000D02*
X151340000Y-97170000D01*
X154010000Y-98020000D02*
X153160000Y-97170000D01*
X162410000Y-94150000D02*
X162260000Y-95040000D01*
X161800000Y-93540000D02*
X162410000Y-94150000D01*
D27*
X114460000Y-104780000D02*
X114460000Y-100150000D01*
X114630000Y-104950000D02*
X114460000Y-104780000D01*
D34*
X158700000Y-91200000D02*
X158860000Y-92520000D01*
D31*
X158950000Y-97350000D02*
X154500000Y-103100000D01*
X154480000Y-103120000D02*
X151000000Y-103710000D01*
X154500000Y-103100000D02*
X154480000Y-103120000D01*
D28*
X158860000Y-92520000D02*
X158950000Y-97350000D01*
X158950000Y-97350000D02*
X158950000Y-97400000D01*
D31*
X151000000Y-103710000D02*
X150450000Y-103700000D01*
X150440000Y-103790000D02*
X150450000Y-103700000D01*
D27*
X164000000Y-69000000D02*
X164000000Y-68500000D01*
X164000000Y-68500000D02*
X161770060Y-66270060D01*
X161770060Y-66270060D02*
X161770060Y-64520000D01*
D32*
X161770060Y-64520000D02*
X161770060Y-66270060D01*
X163900000Y-68400000D02*
X163900000Y-73490000D01*
X161770060Y-66270060D02*
X163900000Y-68400000D01*
D27*
X152500000Y-65000000D02*
X153500000Y-66000000D01*
X155500000Y-68000000D02*
X154500000Y-67000000D01*
X154500000Y-67000000D02*
X153500000Y-66000000D01*
D32*
X123500060Y-62850000D02*
X123500060Y-63500060D01*
X123500060Y-63500060D02*
X126000000Y-66000000D01*
X126000000Y-66000000D02*
X126000000Y-71000000D01*
D27*
X173850160Y-80999840D02*
X173850160Y-78790000D01*
X173740000Y-81110000D02*
X173850160Y-80999840D01*
D32*
X151040000Y-63370000D02*
X151040000Y-63700000D01*
X151040000Y-63700000D02*
X156320000Y-68980000D01*
X159390000Y-68980000D02*
X163900000Y-73490000D01*
X156320000Y-68980000D02*
X159390000Y-68980000D01*
X128850000Y-81000000D02*
X128650000Y-81000000D01*
X129450000Y-81600000D02*
X128850000Y-81000000D01*
D30*
X144500000Y-82700000D02*
X151550000Y-82700000D01*
X151550000Y-82700000D02*
X153150000Y-84300000D01*
X141400332Y-82800332D02*
X141400332Y-82809400D01*
X141400000Y-82800000D02*
X141400332Y-82800332D01*
X153150000Y-84300000D02*
X153150000Y-84450000D01*
X144500000Y-82700000D02*
X141400332Y-82809400D01*
D34*
X158300000Y-87650000D02*
X158700000Y-91200000D01*
D30*
X155950000Y-83900000D02*
X153150000Y-84300000D01*
D31*
X155725000Y-83875000D02*
X155950000Y-83900000D01*
X158200000Y-86100000D02*
X155725000Y-83875000D01*
X158300000Y-87650000D02*
X158200000Y-86100000D01*
X132000000Y-83200000D02*
X131950000Y-83200000D01*
X131900000Y-83100000D02*
X132000000Y-83200000D01*
X129400000Y-82700000D02*
X129500000Y-82600000D01*
X129500000Y-82600000D02*
X131400000Y-82600000D01*
X131400000Y-82600000D02*
X131900000Y-83100000D01*
X131950000Y-83200000D02*
X132300000Y-83700000D01*
X134650000Y-87850000D02*
X135108911Y-88110891D01*
X135108911Y-88110891D02*
X135400000Y-88300000D01*
X135400000Y-88300000D02*
X136350000Y-88650000D01*
X136350000Y-88650000D02*
X137200000Y-88850000D01*
X137200000Y-88850000D02*
X138200000Y-89000000D01*
X134650000Y-87850000D02*
X133900000Y-87100000D01*
X133000000Y-86200000D02*
X133900000Y-87100000D01*
X132300000Y-83700000D02*
X133000000Y-86200000D01*
X147500000Y-104100000D02*
X150440000Y-103790000D01*
D27*
X176500000Y-81000000D02*
X177500000Y-81000000D01*
X173620000Y-85040000D02*
X174040000Y-85040000D01*
X174040000Y-85040000D02*
X174500000Y-85500000D01*
X174500000Y-85500000D02*
X175500000Y-85500000D01*
D32*
X114005000Y-59005000D02*
X113995000Y-59005000D01*
X115000000Y-60000000D02*
X114005000Y-59005000D01*
X114000000Y-57500000D02*
X114000000Y-57419840D01*
X114000000Y-57419840D02*
X114000000Y-57500000D01*
X114000000Y-57500000D02*
X114000000Y-57419840D01*
X174510000Y-65160000D02*
X174510000Y-74500000D01*
X171469840Y-57419840D02*
X174510000Y-60460000D01*
X174510000Y-60460000D02*
X174510000Y-65160000D01*
X127460000Y-57419840D02*
X171469840Y-57419840D01*
X176390160Y-76380160D02*
X176390160Y-78790000D01*
X174510000Y-74500000D02*
X176390160Y-76380160D01*
X173620000Y-85040000D02*
X173770000Y-84890000D01*
X173770000Y-84890000D02*
X175180000Y-84890000D01*
X175180000Y-84890000D02*
X176900000Y-83170000D01*
X176900000Y-83170000D02*
X176900000Y-79299840D01*
X176900000Y-79299840D02*
X176390160Y-78790000D01*
D27*
X95570000Y-58130000D02*
X101750000Y-58130000D01*
X92350000Y-61350000D02*
X95570000Y-58130000D01*
D32*
X127460000Y-57419840D02*
X114000000Y-57419840D01*
X114000000Y-57419840D02*
X112409840Y-57419840D01*
X112409840Y-57419840D02*
X112320000Y-57330000D01*
X115450060Y-62800000D02*
X115450060Y-60460060D01*
X99480060Y-60399940D02*
X99480060Y-62920000D01*
X102550000Y-57330000D02*
X101750000Y-58130000D01*
X101750000Y-58130000D02*
X99480060Y-60399940D01*
X112320000Y-57330000D02*
X102550000Y-57330000D01*
X115450060Y-60460060D02*
X112320000Y-57330000D01*
X99480060Y-62920000D02*
X99480060Y-69110060D01*
X99480060Y-69110060D02*
X104510000Y-74140000D01*
D31*
X154550000Y-95450000D02*
X151510000Y-95450000D01*
X146280000Y-97260000D02*
X145760000Y-97780000D01*
X149700000Y-97260000D02*
X146280000Y-97260000D01*
X151510000Y-95450000D02*
X149700000Y-97260000D01*
D29*
X154750000Y-95250000D02*
X154550000Y-95450000D01*
X154780000Y-92420000D02*
X154750000Y-95250000D01*
X155830000Y-91690000D02*
X154780000Y-92420000D01*
D27*
X173550000Y-96590000D02*
X176390000Y-96590000D01*
X172300000Y-95340000D02*
X173550000Y-96590000D01*
X172300000Y-94270000D02*
X172300000Y-95340000D01*
X172010000Y-93980000D02*
X172300000Y-94270000D01*
X168690000Y-83990000D02*
X161250000Y-83990000D01*
X170380000Y-85150000D02*
X168690000Y-83990000D01*
X170380000Y-87090000D02*
X170380000Y-85150000D01*
X173660000Y-90370000D02*
X170380000Y-87090000D01*
X176360000Y-90370000D02*
X173660000Y-90370000D01*
X177390000Y-89340000D02*
X176360000Y-90370000D01*
X161250000Y-83990000D02*
X153000000Y-75210000D01*
X153000000Y-75210000D02*
X153000000Y-71000000D01*
X153000000Y-71000000D02*
X153170000Y-70830000D01*
D32*
X153780000Y-116370000D02*
X156740000Y-116450000D01*
X130260000Y-116470000D02*
X153780000Y-116370000D01*
X126770000Y-116460000D02*
X130260000Y-116470000D01*
X102140000Y-116460000D02*
X126770000Y-116460000D01*
X95030000Y-116460000D02*
X102140000Y-116460000D01*
X102140000Y-116460000D02*
X102760000Y-115840000D01*
X93700000Y-115130000D02*
X95030000Y-116460000D01*
X156740000Y-116450000D02*
X157020000Y-114070000D01*
X157020000Y-114070000D02*
X157020000Y-111220000D01*
X95979940Y-62920000D02*
X95110000Y-62920000D01*
X95110000Y-62920000D02*
X92820000Y-65210000D01*
X92820000Y-65210000D02*
X90750000Y-65210000D01*
X90750000Y-65210000D02*
X88190000Y-67770000D01*
X88190000Y-67770000D02*
X88190000Y-105260000D01*
X88190000Y-105260000D02*
X93700000Y-110770000D01*
X93700000Y-110770000D02*
X93700000Y-115130000D01*
X102760000Y-115840000D02*
X102760000Y-111020000D01*
D31*
X164760000Y-106200000D02*
X163920000Y-107040000D01*
X164760000Y-102060000D02*
X164760000Y-106200000D01*
X165000000Y-101500000D02*
X164760000Y-102060000D01*
D29*
X160820000Y-106480000D02*
X161630000Y-107290000D01*
D27*
X107450060Y-62750000D02*
X107450060Y-64950060D01*
X107450060Y-64950060D02*
X106500000Y-65900120D01*
X106500000Y-65900120D02*
X106500000Y-66000000D01*
X106500000Y-66000000D02*
X104500000Y-68000000D01*
X104500000Y-68000000D02*
X103000000Y-68000000D01*
D32*
X104500000Y-68000000D02*
X103000000Y-68000000D01*
X107450060Y-62750000D02*
X107450060Y-65049940D01*
X107450060Y-65049940D02*
X105000000Y-67500000D01*
D29*
X152890000Y-106480000D02*
X158810000Y-106480000D01*
X158810000Y-106480000D02*
X160820000Y-106480000D01*
D32*
X96790000Y-105540000D02*
X97270000Y-105540000D01*
X97430000Y-105590000D02*
X97270000Y-105540000D01*
X97430000Y-105590000D02*
X97450000Y-105610000D01*
X91820000Y-82070000D02*
X92010000Y-104190000D01*
X92010000Y-104190000D02*
X93410000Y-105590000D01*
X93410000Y-105590000D02*
X96790000Y-105540000D01*
X91920000Y-81970000D02*
X91820000Y-82070000D01*
X91920000Y-80250000D02*
X91920000Y-81970000D01*
X92260000Y-79910000D02*
X91920000Y-80250000D01*
X97450000Y-105610000D02*
X98500000Y-105610000D01*
X107620000Y-104830000D02*
X107820000Y-105030000D01*
X99280000Y-104830000D02*
X107620000Y-104830000D01*
X98500000Y-105610000D02*
X99280000Y-104830000D01*
D27*
X96790000Y-106680000D02*
X96390000Y-105590000D01*
X96390000Y-105590000D02*
X96790000Y-106680000D01*
X96790000Y-106680000D02*
X96390000Y-105590000D01*
D32*
X115500000Y-109000000D02*
X115500000Y-109500000D01*
X115500000Y-109500000D02*
X114060000Y-110940000D01*
X114060000Y-110940000D02*
X111210000Y-110940000D01*
X117199940Y-107290000D02*
X117199940Y-107300060D01*
X117199940Y-107300060D02*
X115500000Y-109000000D01*
D27*
X170000000Y-62000000D02*
X170000000Y-64259940D01*
X170000000Y-64259940D02*
X170060060Y-64320000D01*
D32*
X170000000Y-79000000D02*
X168500000Y-80500000D01*
X170060060Y-79000000D02*
X170060060Y-79339940D01*
X170000000Y-79000000D02*
X170060060Y-79000000D01*
X170060060Y-64320000D02*
X170060060Y-61560060D01*
X170060060Y-61560060D02*
X170000000Y-61500000D01*
X170060060Y-61560060D02*
X170000000Y-61500000D01*
X170000000Y-67000000D02*
X170000000Y-64380060D01*
X170000000Y-64380060D02*
X170060060Y-64320000D01*
X170000000Y-67000000D02*
X170060060Y-67000000D01*
X170060060Y-67000000D02*
X170000000Y-67000000D01*
X170000000Y-67000000D02*
X170060060Y-67000000D01*
X170060060Y-79339940D02*
X170060060Y-67000000D01*
X170060060Y-67000000D02*
X170060060Y-64320000D01*
D27*
X127460000Y-59959840D02*
X127509840Y-59959840D01*
X127509840Y-59959840D02*
X129190000Y-62020000D01*
X129190000Y-62020000D02*
X130200000Y-74930000D01*
X130200000Y-74930000D02*
X130820000Y-75550000D01*
X161270000Y-104690000D02*
X161270000Y-95940000D01*
X161740000Y-105160000D02*
X161270000Y-104690000D01*
D29*
X148560000Y-72990000D02*
X148530000Y-72920000D01*
X151770000Y-76200000D02*
X148560000Y-72990000D01*
D32*
X167950000Y-95920000D02*
X167670000Y-94100000D01*
X167870000Y-98420000D02*
X167950000Y-95920000D01*
X167870000Y-102750000D02*
X167870000Y-98420000D01*
X166989940Y-103630060D02*
X167870000Y-102750000D01*
X166989940Y-108850000D02*
X166989940Y-103630060D01*
X167670000Y-94100000D02*
X167290000Y-92220000D01*
X167290000Y-92220000D02*
X165540000Y-89810000D01*
X165540000Y-89810000D02*
X164940000Y-89210000D01*
D30*
X94000000Y-142900000D02*
X96100000Y-142900000D01*
X93400000Y-143500000D02*
X94000000Y-142900000D01*
X93400000Y-146800000D02*
X93400000Y-143500000D01*
X93300000Y-146900000D02*
X93400000Y-146800000D01*
D27*
X96100000Y-142900000D02*
X97400000Y-144200000D01*
X97400000Y-144200000D02*
X98100000Y-144200000D01*
D31*
X99100000Y-148800000D02*
X99100000Y-149700000D01*
X99500000Y-148400000D02*
X99100000Y-148800000D01*
X97400000Y-149700000D02*
X99100000Y-149700000D01*
X97300000Y-149800000D02*
X97400000Y-149700000D01*
D30*
X164000000Y-151100000D02*
X164000000Y-147900000D01*
X165000000Y-146900000D02*
X165000000Y-133200000D01*
X164000000Y-147900000D02*
X165000000Y-146900000D01*
D31*
X165500000Y-151100000D02*
X164000000Y-151100000D01*
X166300000Y-150300000D02*
X165500000Y-151100000D01*
X166800000Y-149100000D02*
X166400000Y-149500000D01*
X166400000Y-149500000D02*
X165600000Y-149500000D01*
X165600000Y-149500000D02*
X164000000Y-151100000D01*
D35*
X167000000Y-144700000D02*
X167200000Y-144500000D01*
X167200000Y-144500000D02*
X167200000Y-135000000D01*
D27*
X127510000Y-140575000D02*
X127510000Y-142110000D01*
X127510000Y-142110000D02*
X128200000Y-142800000D01*
X129900000Y-147700000D02*
X129900000Y-146600000D01*
X129900000Y-146600000D02*
X129900000Y-145600000D01*
X129900000Y-145600000D02*
X129900000Y-144600000D01*
X129900000Y-144600000D02*
X129100000Y-143800000D01*
X129100000Y-143800000D02*
X129100000Y-143700000D01*
X129100000Y-143700000D02*
X127510000Y-142110000D01*
X129900000Y-144500000D02*
X127510000Y-142110000D01*
X129900000Y-150200000D02*
X129900000Y-147700000D01*
X129900000Y-147700000D02*
X129900000Y-144500000D01*
X131800000Y-152100000D02*
X129900000Y-150200000D01*
X144000000Y-152100000D02*
X131800000Y-152100000D01*
X144100000Y-152000000D02*
X144000000Y-152100000D01*
X127510000Y-142110000D02*
X127510000Y-140575000D01*
D31*
X170200000Y-140700000D02*
X170200000Y-138200000D01*
X170000000Y-140900000D02*
X170200000Y-140700000D01*
X96300000Y-147500000D02*
X95300000Y-146500000D01*
X100100000Y-147500000D02*
X96300000Y-147500000D01*
X101000000Y-148100000D02*
X100100000Y-147500000D01*
D36*
G36*
X180873000Y-117873000D02*
X158168400Y-117873000D01*
X158310781Y-117671895D01*
X158509243Y-117439195D01*
X158537712Y-117351366D01*
X158591063Y-117276011D01*
X158658812Y-116977769D01*
X158753116Y-116686837D01*
X158936588Y-115127324D01*
X160135000Y-115127324D01*
X160330294Y-115090577D01*
X160509660Y-114975158D01*
X160629990Y-114799049D01*
X160672324Y-114590000D01*
X160672324Y-113401426D01*
X175972649Y-113401426D01*
X176280591Y-114146703D01*
X176850298Y-114717405D01*
X177595036Y-115026647D01*
X178401426Y-115027351D01*
X179146703Y-114719409D01*
X179717405Y-114149702D01*
X180026647Y-113404964D01*
X180027351Y-112598574D01*
X179719409Y-111853297D01*
X179149702Y-111282595D01*
X178404964Y-110973353D01*
X177598574Y-110972649D01*
X176853297Y-111280591D01*
X176282595Y-111850298D01*
X175973353Y-112595036D01*
X175972649Y-113401426D01*
X160672324Y-113401426D01*
X160672324Y-107850000D01*
X160635577Y-107654706D01*
X160520158Y-107475340D01*
X160344049Y-107355010D01*
X160135000Y-107312676D01*
X153905000Y-107312676D01*
X153709706Y-107349423D01*
X153530340Y-107464842D01*
X153410010Y-107640951D01*
X153367676Y-107850000D01*
X153367676Y-114344734D01*
X130258595Y-114442987D01*
X126775808Y-114433008D01*
X126772902Y-114433577D01*
X126770000Y-114433000D01*
X114837416Y-114433000D01*
X114862324Y-114310000D01*
X114862324Y-112794914D01*
X115150137Y-112602603D01*
X131192752Y-112602603D01*
X131409543Y-113127275D01*
X131810614Y-113529047D01*
X132334907Y-113746752D01*
X132902603Y-113747248D01*
X133427275Y-113530457D01*
X133829047Y-113129386D01*
X133889881Y-112982882D01*
X133949543Y-113127275D01*
X134350614Y-113529047D01*
X134874907Y-113746752D01*
X135442603Y-113747248D01*
X135967275Y-113530457D01*
X136369047Y-113129386D01*
X136586752Y-112605093D01*
X136586754Y-112602603D01*
X138802592Y-112602603D01*
X139019383Y-113127275D01*
X139420454Y-113529047D01*
X139944747Y-113746752D01*
X140512443Y-113747248D01*
X141037115Y-113530457D01*
X141438887Y-113129386D01*
X141494628Y-112995146D01*
X141549223Y-113127275D01*
X141950294Y-113529047D01*
X142474587Y-113746752D01*
X143042283Y-113747248D01*
X143566955Y-113530457D01*
X143968727Y-113129386D01*
X144029561Y-112982882D01*
X144089223Y-113127275D01*
X144490294Y-113529047D01*
X145014587Y-113746752D01*
X145582283Y-113747248D01*
X146106955Y-113530457D01*
X146508727Y-113129386D01*
X146726432Y-112605093D01*
X146726928Y-112037397D01*
X146510137Y-111512725D01*
X146109066Y-111110953D01*
X145584773Y-110893248D01*
X145017077Y-110892752D01*
X144492405Y-111109543D01*
X144090633Y-111510614D01*
X144029799Y-111657118D01*
X143970137Y-111512725D01*
X143569066Y-111110953D01*
X143044773Y-110893248D01*
X142477077Y-110892752D01*
X141952405Y-111109543D01*
X141550633Y-111510614D01*
X141494892Y-111644854D01*
X141440297Y-111512725D01*
X141039226Y-111110953D01*
X140514933Y-110893248D01*
X139947237Y-110892752D01*
X139422565Y-111109543D01*
X139020793Y-111510614D01*
X138803088Y-112034907D01*
X138802592Y-112602603D01*
X136586754Y-112602603D01*
X136587248Y-112037397D01*
X136370457Y-111512725D01*
X135969386Y-111110953D01*
X135445093Y-110893248D01*
X134877397Y-110892752D01*
X134352725Y-111109543D01*
X133950953Y-111510614D01*
X133890119Y-111657118D01*
X133830457Y-111512725D01*
X133429386Y-111110953D01*
X132905093Y-110893248D01*
X132337397Y-110892752D01*
X131812725Y-111109543D01*
X131410953Y-111510614D01*
X131193248Y-112034907D01*
X131192752Y-112602603D01*
X115150137Y-112602603D01*
X115493305Y-112373305D01*
X116933306Y-110933305D01*
X117372704Y-110275699D01*
X117442674Y-109923936D01*
X118633245Y-108733366D01*
X119072644Y-108075760D01*
X119104193Y-107917151D01*
X119226940Y-107300060D01*
X119226940Y-107290000D01*
X119165795Y-106982603D01*
X126312752Y-106982603D01*
X126529543Y-107507275D01*
X126930614Y-107909047D01*
X127454907Y-108126752D01*
X128022603Y-108127248D01*
X128547275Y-107910457D01*
X128949047Y-107509386D01*
X129009881Y-107362882D01*
X129069543Y-107507275D01*
X129470614Y-107909047D01*
X129994907Y-108126752D01*
X130562603Y-108127248D01*
X131087275Y-107910457D01*
X131489047Y-107509386D01*
X131706752Y-106985093D01*
X131707041Y-106653681D01*
X152012849Y-106653681D01*
X152146082Y-106976131D01*
X152392571Y-107223051D01*
X152714789Y-107356847D01*
X153063681Y-107357151D01*
X153386131Y-107223918D01*
X153453166Y-107157000D01*
X160539578Y-107157000D01*
X160752930Y-107370352D01*
X160752849Y-107463681D01*
X160886082Y-107786131D01*
X161132571Y-108033051D01*
X161454789Y-108166847D01*
X161803681Y-108167151D01*
X162126131Y-108033918D01*
X162373051Y-107787429D01*
X162506847Y-107465211D01*
X162507151Y-107116319D01*
X162373918Y-106793869D01*
X162127429Y-106546949D01*
X161805211Y-106413153D01*
X161710492Y-106413070D01*
X161420961Y-106123539D01*
X161740000Y-106187000D01*
X162133015Y-106108824D01*
X162466198Y-105886198D01*
X162688824Y-105553015D01*
X162767000Y-105160000D01*
X162688824Y-104766984D01*
X162466198Y-104433801D01*
X162297000Y-104264603D01*
X162297000Y-95940000D01*
X162292431Y-95917028D01*
X162433681Y-95917151D01*
X162756131Y-95783918D01*
X163003051Y-95537429D01*
X163136847Y-95215211D01*
X163137151Y-94866319D01*
X163004554Y-94545408D01*
X163052933Y-94258359D01*
X163051325Y-94203664D01*
X163062000Y-94150000D01*
X163047624Y-94077727D01*
X163045459Y-94004071D01*
X163023044Y-93954155D01*
X163012369Y-93900491D01*
X162971433Y-93839226D01*
X162941244Y-93771999D01*
X162901430Y-93734459D01*
X162871033Y-93688966D01*
X162677039Y-93494972D01*
X162677151Y-93366319D01*
X162543918Y-93043869D01*
X162362690Y-92862324D01*
X165251386Y-92862324D01*
X165390586Y-93054023D01*
X165673785Y-94455109D01*
X165918035Y-96042735D01*
X165844037Y-98355169D01*
X165849429Y-98387679D01*
X165843000Y-98420000D01*
X165843000Y-101243667D01*
X165743918Y-101003869D01*
X165497429Y-100756949D01*
X165175211Y-100623153D01*
X164826319Y-100622849D01*
X164503869Y-100756082D01*
X164256949Y-101002571D01*
X164123153Y-101324789D01*
X164122849Y-101673681D01*
X164168677Y-101784593D01*
X164160717Y-101803165D01*
X164159879Y-101807126D01*
X164157631Y-101810490D01*
X164133577Y-101931418D01*
X164108049Y-102052051D01*
X164108790Y-102056029D01*
X164108000Y-102060000D01*
X164108000Y-105929933D01*
X163874971Y-106162961D01*
X163746319Y-106162849D01*
X163423869Y-106296082D01*
X163176949Y-106542571D01*
X163043153Y-106864789D01*
X163042849Y-107213681D01*
X163176082Y-107536131D01*
X163422571Y-107783051D01*
X163744789Y-107916847D01*
X164093681Y-107917151D01*
X164416131Y-107783918D01*
X164663051Y-107537429D01*
X164796847Y-107215211D01*
X164796960Y-107085107D01*
X164962940Y-106919127D01*
X164962940Y-108850000D01*
X165117236Y-109625699D01*
X165556635Y-110283305D01*
X166214241Y-110722704D01*
X166989940Y-110877000D01*
X167765639Y-110722704D01*
X168423245Y-110283305D01*
X168811365Y-109702443D01*
X168897889Y-109911846D01*
X169425436Y-110440316D01*
X170115064Y-110726674D01*
X170861780Y-110727325D01*
X171551906Y-110442171D01*
X172080376Y-109914624D01*
X172366734Y-109224996D01*
X172367385Y-108478280D01*
X172082231Y-107788154D01*
X171554684Y-107259684D01*
X170865056Y-106973326D01*
X170118340Y-106972675D01*
X169428214Y-107257829D01*
X169016940Y-107668385D01*
X169016940Y-104469671D01*
X169303306Y-104183305D01*
X169742704Y-103525700D01*
X169897000Y-102750000D01*
X169897000Y-98452425D01*
X169975963Y-95984830D01*
X169945222Y-95799483D01*
X169953430Y-95611781D01*
X169702387Y-93980000D01*
X170983000Y-93980000D01*
X171061176Y-94373016D01*
X171273000Y-94690034D01*
X171273000Y-95340000D01*
X171351176Y-95733016D01*
X171573801Y-96066199D01*
X172823801Y-97316199D01*
X173156984Y-97538824D01*
X173550000Y-97617001D01*
X173550005Y-97617000D01*
X176390000Y-97617000D01*
X176783016Y-97538824D01*
X177116199Y-97316199D01*
X177338824Y-96983016D01*
X177417000Y-96590000D01*
X177338824Y-96196984D01*
X177116199Y-95863801D01*
X176783016Y-95641176D01*
X176390000Y-95563000D01*
X173975398Y-95563000D01*
X173327000Y-94914602D01*
X173327000Y-94270005D01*
X173327001Y-94270000D01*
X173248824Y-93876984D01*
X173026199Y-93543801D01*
X172736199Y-93253801D01*
X172403016Y-93031176D01*
X172010000Y-92953000D01*
X171616984Y-93031176D01*
X171283801Y-93253801D01*
X171061176Y-93586984D01*
X170983000Y-93980000D01*
X169702387Y-93980000D01*
X169673429Y-93791780D01*
X169656969Y-93746547D01*
X169656820Y-93698409D01*
X169276820Y-91818409D01*
X169262560Y-91784282D01*
X169261118Y-91747324D01*
X169110596Y-91420591D01*
X168971900Y-91088655D01*
X168945666Y-91062582D01*
X168930190Y-91028990D01*
X168847324Y-90914872D01*
X168847324Y-86095000D01*
X168810577Y-85899706D01*
X168695158Y-85720340D01*
X168519049Y-85600010D01*
X168310000Y-85557676D01*
X161570000Y-85557676D01*
X161374706Y-85594423D01*
X161195340Y-85709842D01*
X161075010Y-85885951D01*
X161032676Y-86095000D01*
X161032676Y-92325000D01*
X161069423Y-92520294D01*
X161184842Y-92699660D01*
X161317636Y-92790394D01*
X161303869Y-92796082D01*
X161056949Y-93042571D01*
X160923153Y-93364789D01*
X160922849Y-93713681D01*
X161056082Y-94036131D01*
X161302571Y-94283051D01*
X161624789Y-94416847D01*
X161642877Y-94416863D01*
X161516949Y-94542571D01*
X161383153Y-94864789D01*
X161383091Y-94935495D01*
X161270000Y-94913000D01*
X160876984Y-94991176D01*
X160543801Y-95213801D01*
X160321176Y-95546984D01*
X160243000Y-95940000D01*
X160243000Y-104690000D01*
X160321176Y-105083016D01*
X160543801Y-105416199D01*
X160958066Y-105830463D01*
X160820000Y-105803000D01*
X153453365Y-105803000D01*
X153387429Y-105736949D01*
X153065211Y-105603153D01*
X152716319Y-105602849D01*
X152393869Y-105736082D01*
X152146949Y-105982571D01*
X152013153Y-106304789D01*
X152012849Y-106653681D01*
X131707041Y-106653681D01*
X131707248Y-106417397D01*
X131490457Y-105892725D01*
X131089386Y-105490953D01*
X130565093Y-105273248D01*
X129997397Y-105272752D01*
X129472725Y-105489543D01*
X129070953Y-105890614D01*
X129010119Y-106037118D01*
X128950457Y-105892725D01*
X128549386Y-105490953D01*
X128025093Y-105273248D01*
X127457397Y-105272752D01*
X126932725Y-105489543D01*
X126530953Y-105890614D01*
X126313248Y-106414907D01*
X126312752Y-106982603D01*
X119165795Y-106982603D01*
X119072644Y-106514301D01*
X118633245Y-105856695D01*
X117975639Y-105417296D01*
X117199940Y-105263000D01*
X116424241Y-105417296D01*
X115766635Y-105856695D01*
X115746379Y-105887010D01*
X114548503Y-107084886D01*
X114534049Y-107075010D01*
X114325000Y-107032676D01*
X108095000Y-107032676D01*
X107899706Y-107069423D01*
X107720340Y-107184842D01*
X107600010Y-107360951D01*
X107557676Y-107570000D01*
X107557676Y-114310000D01*
X107580820Y-114433000D01*
X106403616Y-114433000D01*
X106412324Y-114390000D01*
X106412324Y-107650000D01*
X106375577Y-107454706D01*
X106260158Y-107275340D01*
X106084049Y-107155010D01*
X105875000Y-107112676D01*
X99829484Y-107112676D01*
X99933305Y-107043305D01*
X100119610Y-106857000D01*
X106975900Y-106857000D01*
X107044301Y-106902704D01*
X107820000Y-107057000D01*
X108595700Y-106902704D01*
X109253306Y-106463306D01*
X109692704Y-105805700D01*
X109847000Y-105030000D01*
X109692704Y-104254301D01*
X109253306Y-103596695D01*
X109053305Y-103396695D01*
X108395700Y-102957296D01*
X108251686Y-102928650D01*
X107620000Y-102803000D01*
X99280000Y-102803000D01*
X98504301Y-102957296D01*
X97846695Y-103396694D01*
X97660967Y-103582423D01*
X97570228Y-103572719D01*
X97469040Y-103552591D01*
X97481397Y-103543628D01*
X97582001Y-103475398D01*
X97587982Y-103466312D01*
X97596792Y-103459921D01*
X99580579Y-101317096D01*
X99643681Y-101317151D01*
X99966131Y-101183918D01*
X100213051Y-100937429D01*
X100346847Y-100615211D01*
X100347151Y-100266319D01*
X100299090Y-100150000D01*
X113433000Y-100150000D01*
X113433000Y-104780000D01*
X113511176Y-105173016D01*
X113733801Y-105506199D01*
X113903801Y-105676198D01*
X114236984Y-105898824D01*
X114630000Y-105977000D01*
X115023015Y-105898824D01*
X115356198Y-105676198D01*
X115578824Y-105343015D01*
X115657000Y-104950000D01*
X115578824Y-104556984D01*
X115487000Y-104419560D01*
X115487000Y-100150000D01*
X115408824Y-99756984D01*
X115186199Y-99423801D01*
X114853016Y-99201176D01*
X114460000Y-99123000D01*
X114066984Y-99201176D01*
X113733801Y-99423801D01*
X113511176Y-99756984D01*
X113433000Y-100150000D01*
X100299090Y-100150000D01*
X100213918Y-99943869D01*
X99967429Y-99696949D01*
X99645211Y-99563153D01*
X99296319Y-99562849D01*
X98973869Y-99696082D01*
X98726949Y-99942571D01*
X98593153Y-100264789D01*
X98593043Y-100390722D01*
X96802290Y-102325037D01*
X95986746Y-102330661D01*
X95517000Y-101704333D01*
X95517000Y-100029949D01*
X95536082Y-100076131D01*
X95782571Y-100323051D01*
X96104789Y-100456847D01*
X96453681Y-100457151D01*
X96776131Y-100323918D01*
X97023051Y-100077429D01*
X97156847Y-99755211D01*
X97157151Y-99406319D01*
X97067049Y-99188254D01*
X97055120Y-98878093D01*
X102872796Y-98878093D01*
X103051606Y-99310846D01*
X103382412Y-99642230D01*
X103814853Y-99821795D01*
X104283093Y-99822204D01*
X104715846Y-99643394D01*
X105047230Y-99312588D01*
X105226795Y-98880147D01*
X105227204Y-98411907D01*
X105048394Y-97979154D01*
X104717588Y-97647770D01*
X104285147Y-97468205D01*
X103816907Y-97467796D01*
X103384154Y-97646606D01*
X103052770Y-97977412D01*
X102873205Y-98409853D01*
X102872796Y-98878093D01*
X97055120Y-98878093D01*
X97046500Y-98653981D01*
X97031389Y-98590809D01*
X97029227Y-98525895D01*
X97005701Y-98425255D01*
X97181957Y-98249307D01*
X97376778Y-97780125D01*
X97377221Y-97272103D01*
X97281806Y-97041181D01*
X98979707Y-97041181D01*
X99306640Y-97832417D01*
X99911478Y-98438313D01*
X100702143Y-98766625D01*
X101558261Y-98767373D01*
X102349497Y-98440440D01*
X102955393Y-97835602D01*
X103283705Y-97044937D01*
X103284453Y-96188819D01*
X102957520Y-95397583D01*
X102352682Y-94791687D01*
X101562017Y-94463375D01*
X100705899Y-94462627D01*
X99914663Y-94789560D01*
X99308767Y-95394398D01*
X98980455Y-96185063D01*
X98979707Y-97041181D01*
X97281806Y-97041181D01*
X97183219Y-96802583D01*
X96824307Y-96443043D01*
X96355125Y-96248222D01*
X95847103Y-96247779D01*
X95517000Y-96384175D01*
X95517000Y-86130000D01*
X95516456Y-86127265D01*
X95516978Y-86124526D01*
X95512827Y-85611181D01*
X98979707Y-85611181D01*
X99306640Y-86402417D01*
X99911478Y-87008313D01*
X100702143Y-87336625D01*
X101558261Y-87337373D01*
X102349497Y-87010440D01*
X102647560Y-86712897D01*
X106072779Y-86712897D01*
X106266781Y-87182417D01*
X106625693Y-87541957D01*
X107079088Y-87730223D01*
X106627583Y-87916781D01*
X106268043Y-88275693D01*
X106073222Y-88744875D01*
X106072779Y-89252897D01*
X106266781Y-89722417D01*
X106625693Y-90081957D01*
X107067017Y-90265210D01*
X106627583Y-90446781D01*
X106268043Y-90805693D01*
X106073222Y-91274875D01*
X106072779Y-91782897D01*
X106266781Y-92252417D01*
X106625693Y-92611957D01*
X107079088Y-92800223D01*
X106627583Y-92986781D01*
X106268043Y-93345693D01*
X106073222Y-93814875D01*
X106072779Y-94322897D01*
X106266781Y-94792417D01*
X106625693Y-95151957D01*
X107094875Y-95346778D01*
X107602897Y-95347221D01*
X108072417Y-95153219D01*
X108431957Y-94794307D01*
X108626778Y-94325125D01*
X108627221Y-93817103D01*
X108433219Y-93347583D01*
X108074307Y-92988043D01*
X107620912Y-92799777D01*
X108072417Y-92613219D01*
X108431957Y-92254307D01*
X108467950Y-92167625D01*
X108529077Y-92155466D01*
X108748711Y-92008711D01*
X109342181Y-91415241D01*
X109619088Y-91530223D01*
X109167583Y-91716781D01*
X108808043Y-92075693D01*
X108613222Y-92544875D01*
X108612779Y-93052897D01*
X108806781Y-93522417D01*
X109165693Y-93881957D01*
X109634875Y-94076778D01*
X110142897Y-94077221D01*
X110612417Y-93883219D01*
X110971957Y-93524307D01*
X111001981Y-93452000D01*
X115999995Y-93452000D01*
X116000000Y-93452001D01*
X116208113Y-93410604D01*
X116249510Y-93402369D01*
X116461034Y-93261034D01*
X117345028Y-92377039D01*
X117473681Y-92377151D01*
X117796131Y-92243918D01*
X118043051Y-91997429D01*
X118176847Y-91675211D01*
X118177151Y-91326319D01*
X118043918Y-91003869D01*
X117797429Y-90756949D01*
X117475211Y-90623153D01*
X117126319Y-90622849D01*
X116803869Y-90756082D01*
X116556949Y-91002571D01*
X116423153Y-91324789D01*
X116423040Y-91454893D01*
X115729932Y-92148000D01*
X111002315Y-92148000D01*
X110973219Y-92077583D01*
X110614307Y-91718043D01*
X110160912Y-91529777D01*
X110334579Y-91458019D01*
X110430000Y-91477000D01*
X112800000Y-91477000D01*
X113059077Y-91425466D01*
X113131571Y-91377027D01*
X113273681Y-91377151D01*
X113596131Y-91243918D01*
X113843051Y-90997429D01*
X113976847Y-90675211D01*
X113977151Y-90326319D01*
X113843918Y-90003869D01*
X113597429Y-89756949D01*
X113344683Y-89652000D01*
X113929932Y-89652000D01*
X114148000Y-89870068D01*
X114148000Y-90399995D01*
X114147999Y-90400000D01*
X114178235Y-90552001D01*
X114197631Y-90649510D01*
X114306770Y-90812849D01*
X114322968Y-90837091D01*
X114322849Y-90973681D01*
X114456082Y-91296131D01*
X114702571Y-91543051D01*
X115024789Y-91676847D01*
X115373681Y-91677151D01*
X115696131Y-91543918D01*
X115943051Y-91297429D01*
X116076847Y-90975211D01*
X116077151Y-90626319D01*
X115943918Y-90303869D01*
X115697429Y-90056949D01*
X115452000Y-89955038D01*
X115452000Y-89600000D01*
X115446765Y-89573681D01*
X118722849Y-89573681D01*
X118856082Y-89896131D01*
X119102571Y-90143051D01*
X119424789Y-90276847D01*
X119773681Y-90277151D01*
X120096131Y-90143918D01*
X120161864Y-90078300D01*
X122115665Y-90078300D01*
X122163488Y-92646044D01*
X122156949Y-92652571D01*
X122023153Y-92974789D01*
X122022849Y-93323681D01*
X122156082Y-93646131D01*
X122402571Y-93893051D01*
X122724789Y-94026847D01*
X123073681Y-94027151D01*
X123396131Y-93893918D01*
X123643051Y-93647429D01*
X123776847Y-93325211D01*
X123777151Y-92976319D01*
X123643918Y-92653869D01*
X123617391Y-92627296D01*
X123557056Y-89387772D01*
X123506512Y-86673956D01*
X123513051Y-86667429D01*
X123646847Y-86345211D01*
X123647115Y-86037498D01*
X123702571Y-86093051D01*
X124024789Y-86226847D01*
X124373681Y-86227151D01*
X124692596Y-86095379D01*
X128313185Y-86557582D01*
X129935521Y-96500322D01*
X130097821Y-100024554D01*
X129973153Y-100324789D01*
X129972849Y-100673681D01*
X130106082Y-100996131D01*
X130352571Y-101243051D01*
X130674789Y-101376847D01*
X131023681Y-101377151D01*
X131346131Y-101243918D01*
X131593051Y-100997429D01*
X131726847Y-100675211D01*
X131727151Y-100326319D01*
X131625657Y-100080683D01*
X131667748Y-100102007D01*
X131732599Y-100106959D01*
X133017644Y-100653104D01*
X133056082Y-100746131D01*
X133302571Y-100993051D01*
X133624789Y-101126847D01*
X133973681Y-101127151D01*
X134296131Y-100993918D01*
X134543051Y-100747429D01*
X134676847Y-100425211D01*
X134677151Y-100076319D01*
X134594794Y-99877000D01*
X134836635Y-99877000D01*
X134902571Y-99943051D01*
X135224789Y-100076847D01*
X135573681Y-100077151D01*
X135896131Y-99943918D01*
X136143051Y-99697429D01*
X136276847Y-99375211D01*
X136277151Y-99026319D01*
X136143918Y-98703869D01*
X135897429Y-98456949D01*
X135644921Y-98352099D01*
X135676847Y-98275211D01*
X135677127Y-97953681D01*
X144882849Y-97953681D01*
X145016082Y-98276131D01*
X145262571Y-98523051D01*
X145584789Y-98656847D01*
X145933681Y-98657151D01*
X146256131Y-98523918D01*
X146503051Y-98277429D01*
X146636847Y-97955211D01*
X146636885Y-97912000D01*
X149699995Y-97912000D01*
X149700000Y-97912001D01*
X149908113Y-97870604D01*
X149949510Y-97862369D01*
X150161034Y-97721034D01*
X150484935Y-97397133D01*
X150596082Y-97666131D01*
X150842571Y-97913051D01*
X151164789Y-98046847D01*
X151513681Y-98047151D01*
X151836131Y-97913918D01*
X151928210Y-97822000D01*
X152889932Y-97822000D01*
X153132961Y-98065029D01*
X153132849Y-98193681D01*
X153266082Y-98516131D01*
X153512571Y-98763051D01*
X153834789Y-98896847D01*
X154183681Y-98897151D01*
X154506131Y-98763918D01*
X154753051Y-98517429D01*
X154886847Y-98195211D01*
X154887151Y-97846319D01*
X154753918Y-97523869D01*
X154507429Y-97276949D01*
X154185211Y-97143153D01*
X154055107Y-97143040D01*
X153621034Y-96708966D01*
X153582249Y-96683051D01*
X153409510Y-96567631D01*
X153368113Y-96559396D01*
X153160000Y-96517999D01*
X153159995Y-96518000D01*
X151928321Y-96518000D01*
X151837429Y-96426949D01*
X151567289Y-96314778D01*
X151780067Y-96102000D01*
X153961679Y-96102000D01*
X154052571Y-96193051D01*
X154374789Y-96326847D01*
X154723681Y-96327151D01*
X155046131Y-96193918D01*
X155293051Y-95947429D01*
X155426847Y-95625211D01*
X155427151Y-95276319D01*
X155424361Y-95269566D01*
X155426962Y-95257176D01*
X155453259Y-92776464D01*
X155754638Y-92566934D01*
X156003681Y-92567151D01*
X156326131Y-92433918D01*
X156573051Y-92187429D01*
X156706847Y-91865211D01*
X156707151Y-91516319D01*
X156573918Y-91193869D01*
X156327429Y-90946949D01*
X156005211Y-90813153D01*
X155656319Y-90812849D01*
X155333869Y-90946082D01*
X155086949Y-91192571D01*
X154976335Y-91458961D01*
X154393544Y-91864139D01*
X154354044Y-91905126D01*
X154306390Y-91936242D01*
X154263268Y-91999320D01*
X154210243Y-92054342D01*
X154189437Y-92107321D01*
X154157315Y-92154308D01*
X154141614Y-92229091D01*
X154113682Y-92300213D01*
X154114733Y-92357120D01*
X154103038Y-92412824D01*
X154078837Y-94695765D01*
X154053869Y-94706082D01*
X153961790Y-94798000D01*
X151510005Y-94798000D01*
X151510000Y-94797999D01*
X151260491Y-94847630D01*
X151260489Y-94847631D01*
X151260490Y-94847631D01*
X151048966Y-94988966D01*
X151048964Y-94988969D01*
X149429932Y-96608000D01*
X146280000Y-96608000D01*
X146030490Y-96657631D01*
X145907811Y-96739602D01*
X145818966Y-96798966D01*
X145714971Y-96902961D01*
X145586319Y-96902849D01*
X145263869Y-97036082D01*
X145016949Y-97282571D01*
X144883153Y-97604789D01*
X144882849Y-97953681D01*
X135677127Y-97953681D01*
X135677151Y-97926319D01*
X135543918Y-97603869D01*
X135297429Y-97356949D01*
X134975211Y-97223153D01*
X134626319Y-97222849D01*
X134449514Y-97295903D01*
X134093048Y-97177081D01*
X134173681Y-97177151D01*
X134496131Y-97043918D01*
X134743051Y-96797429D01*
X134876847Y-96475211D01*
X134877151Y-96126319D01*
X134743918Y-95803869D01*
X134585581Y-95645255D01*
X134545770Y-95273681D01*
X134922849Y-95273681D01*
X135056082Y-95596131D01*
X135302571Y-95843051D01*
X135624789Y-95976847D01*
X135973681Y-95977151D01*
X136296131Y-95843918D01*
X136543051Y-95597429D01*
X136676847Y-95275211D01*
X136677151Y-94926319D01*
X136543918Y-94603869D01*
X136497559Y-94557429D01*
X136555815Y-92984512D01*
X136643051Y-92897429D01*
X136776847Y-92575211D01*
X136777151Y-92226319D01*
X136643918Y-91903869D01*
X136397429Y-91656949D01*
X136075211Y-91523153D01*
X135726319Y-91522849D01*
X135403869Y-91656082D01*
X135156949Y-91902571D01*
X135023153Y-92224789D01*
X135022849Y-92573681D01*
X135156082Y-92896131D01*
X135202441Y-92942571D01*
X135144185Y-94515488D01*
X135056949Y-94602571D01*
X134923153Y-94924789D01*
X134922849Y-95273681D01*
X134545770Y-95273681D01*
X134198290Y-92030540D01*
X134193095Y-92013929D01*
X134193739Y-91996542D01*
X133770781Y-89364802D01*
X133799789Y-89376847D01*
X134148681Y-89377151D01*
X134290181Y-89318685D01*
X136297490Y-90086699D01*
X137166523Y-93654309D01*
X137190030Y-93704858D01*
X137201801Y-93759349D01*
X137243157Y-93819099D01*
X137273796Y-93884984D01*
X137314856Y-93922688D01*
X137346585Y-93968529D01*
X140022949Y-96558559D01*
X140022849Y-96673681D01*
X140156082Y-96996131D01*
X140402571Y-97243051D01*
X140724789Y-97376847D01*
X141073681Y-97377151D01*
X141396131Y-97243918D01*
X141643051Y-96997429D01*
X141776847Y-96675211D01*
X141777151Y-96326319D01*
X141643918Y-96003869D01*
X141397429Y-95756949D01*
X141075211Y-95623153D01*
X140931357Y-95623028D01*
X138388866Y-93162553D01*
X137510308Y-89555840D01*
X137516635Y-89556789D01*
X137702571Y-89743051D01*
X138024789Y-89876847D01*
X138323020Y-89877107D01*
X138322849Y-90073681D01*
X138456082Y-90396131D01*
X138702571Y-90643051D01*
X139024789Y-90776847D01*
X139373681Y-90777151D01*
X139696131Y-90643918D01*
X139943051Y-90397429D01*
X140076847Y-90075211D01*
X140077151Y-89726319D01*
X139943918Y-89403869D01*
X139697429Y-89156949D01*
X139652000Y-89138085D01*
X139652000Y-88600000D01*
X139631613Y-88497507D01*
X139618542Y-88393819D01*
X139606939Y-88373464D01*
X139602369Y-88350490D01*
X139544310Y-88263598D01*
X139492556Y-88172809D01*
X139474051Y-88158447D01*
X139461034Y-88138966D01*
X139374138Y-88080904D01*
X139291583Y-88016833D01*
X138491583Y-87616833D01*
X138422704Y-87597971D01*
X138358133Y-87567467D01*
X136948546Y-87215070D01*
X136943918Y-87203869D01*
X136697429Y-86956949D01*
X136375211Y-86823153D01*
X136026319Y-86822849D01*
X135703869Y-86956082D01*
X135456949Y-87202571D01*
X135337295Y-87490731D01*
X135048774Y-87326706D01*
X134361034Y-86638966D01*
X134361031Y-86638964D01*
X133581802Y-85859735D01*
X133221708Y-84573681D01*
X133922849Y-84573681D01*
X134056082Y-84896131D01*
X134229155Y-85069507D01*
X134123153Y-85324789D01*
X134122849Y-85673681D01*
X134256082Y-85996131D01*
X134502571Y-86243051D01*
X134824789Y-86376847D01*
X135173681Y-86377151D01*
X135496131Y-86243918D01*
X135575931Y-86164257D01*
X136777994Y-86022838D01*
X142898174Y-85422368D01*
X143149789Y-85526847D01*
X143498681Y-85527151D01*
X143821131Y-85393918D01*
X144068051Y-85147429D01*
X144201847Y-84825211D01*
X144202150Y-84477002D01*
X144373681Y-84477151D01*
X144616066Y-84377000D01*
X150578156Y-84377000D01*
X151780588Y-85579432D01*
X152032665Y-85747864D01*
X152053081Y-85751925D01*
X152350578Y-86049422D01*
X152602655Y-86217854D01*
X152900000Y-86277000D01*
X155136199Y-86277000D01*
X155206082Y-86446131D01*
X155452571Y-86693051D01*
X155774789Y-86826847D01*
X156123681Y-86827151D01*
X156446131Y-86693918D01*
X156693051Y-86447429D01*
X156826847Y-86125211D01*
X156827151Y-85776319D01*
X156804957Y-85722606D01*
X157566464Y-86407193D01*
X157611067Y-87098547D01*
X157556949Y-87152571D01*
X157423153Y-87474789D01*
X157422849Y-87823681D01*
X157556082Y-88146131D01*
X157661340Y-88251574D01*
X158002414Y-91278601D01*
X158003329Y-91281471D01*
X158003101Y-91284473D01*
X158098077Y-92068021D01*
X157983153Y-92344789D01*
X157982849Y-92693681D01*
X158116082Y-93016131D01*
X158142614Y-93042709D01*
X158220585Y-97227203D01*
X154125329Y-102518827D01*
X150951008Y-103057002D01*
X150461853Y-103048108D01*
X150365793Y-103065407D01*
X150268537Y-103073761D01*
X150241477Y-103087794D01*
X150211482Y-103093195D01*
X150129354Y-103145937D01*
X150078027Y-103172553D01*
X148029029Y-103388604D01*
X147997429Y-103356949D01*
X147675211Y-103223153D01*
X147326319Y-103222849D01*
X147003869Y-103356082D01*
X146756949Y-103602571D01*
X146623153Y-103924789D01*
X146622849Y-104273681D01*
X146756082Y-104596131D01*
X147002571Y-104843051D01*
X147324789Y-104976847D01*
X147673681Y-104977151D01*
X147996131Y-104843918D01*
X148153630Y-104686694D01*
X150508369Y-104438405D01*
X150563713Y-104421200D01*
X150621463Y-104416239D01*
X150684019Y-104383800D01*
X150751299Y-104362884D01*
X150757529Y-104357699D01*
X150988148Y-104361892D01*
X151048095Y-104351097D01*
X151108985Y-104352827D01*
X154588985Y-103762827D01*
X154657545Y-103736684D01*
X154729509Y-103722369D01*
X154775268Y-103691794D01*
X154826688Y-103672187D01*
X154880022Y-103621800D01*
X154941034Y-103581034D01*
X154961033Y-103561034D01*
X154984182Y-103526389D01*
X155015622Y-103499046D01*
X159213716Y-98074543D01*
X159228211Y-98071660D01*
X159464067Y-97914067D01*
X159621660Y-97678211D01*
X159677000Y-97400000D01*
X159677000Y-97350000D01*
X159675655Y-97343240D01*
X159676874Y-97336455D01*
X159596517Y-93023952D01*
X159603051Y-93017429D01*
X159736847Y-92695211D01*
X159737151Y-92346319D01*
X159603918Y-92023869D01*
X159493607Y-91913365D01*
X159397259Y-91118499D01*
X159058342Y-88110605D01*
X159176847Y-87825211D01*
X159177151Y-87476319D01*
X159043918Y-87153869D01*
X158912878Y-87022600D01*
X158850647Y-86058023D01*
X158818797Y-85938669D01*
X158788266Y-85818847D01*
X158786021Y-85815845D01*
X158785055Y-85812226D01*
X158709905Y-85714080D01*
X158635894Y-85615129D01*
X156713895Y-83887271D01*
X156719191Y-83790116D01*
X156618588Y-83504124D01*
X156416200Y-83278400D01*
X156142837Y-83147310D01*
X155840115Y-83130809D01*
X153445134Y-83472949D01*
X153405219Y-83456375D01*
X152099422Y-82150578D01*
X151847345Y-81982146D01*
X151550000Y-81923000D01*
X144500000Y-81923000D01*
X144486342Y-81925717D01*
X144472594Y-81923483D01*
X141802923Y-82017707D01*
X141575211Y-81923153D01*
X141226319Y-81922849D01*
X140903869Y-82056082D01*
X140656949Y-82302571D01*
X140523153Y-82624789D01*
X140522849Y-82973681D01*
X140599962Y-83160309D01*
X135236844Y-83631792D01*
X134975211Y-83523153D01*
X134626319Y-83522849D01*
X134303869Y-83656082D01*
X134056949Y-83902571D01*
X133923153Y-84224789D01*
X133922849Y-84573681D01*
X133221708Y-84573681D01*
X132927853Y-83524201D01*
X132878270Y-83426436D01*
X132834139Y-83326103D01*
X132614738Y-83012673D01*
X132602369Y-82950490D01*
X132461034Y-82738966D01*
X132461031Y-82738964D01*
X132361034Y-82638966D01*
X132361031Y-82638964D01*
X131861034Y-82138966D01*
X131798869Y-82097429D01*
X131649510Y-81997631D01*
X131595296Y-81986847D01*
X131407482Y-81949487D01*
X131476999Y-81600000D01*
X131322704Y-80824300D01*
X130883305Y-80166694D01*
X130283305Y-79566695D01*
X129625700Y-79127296D01*
X129497003Y-79101697D01*
X128850000Y-78973000D01*
X128650000Y-78973000D01*
X127874301Y-79127296D01*
X127216695Y-79566695D01*
X126777296Y-80224301D01*
X126623000Y-81000000D01*
X126777296Y-81775699D01*
X127216695Y-82433305D01*
X127819429Y-82836040D01*
X127942581Y-82959192D01*
X127239473Y-82799417D01*
X126997429Y-82556949D01*
X126675211Y-82423153D01*
X126326319Y-82422849D01*
X126003869Y-82556082D01*
X125756949Y-82802571D01*
X125623153Y-83124789D01*
X125622849Y-83473681D01*
X125676554Y-83603657D01*
X125505116Y-83564999D01*
X125297429Y-83356949D01*
X124975211Y-83223153D01*
X124626319Y-83222849D01*
X124303869Y-83356082D01*
X124056949Y-83602571D01*
X123923153Y-83924789D01*
X123922849Y-84273681D01*
X124008231Y-84480323D01*
X123703869Y-84606082D01*
X123456949Y-84852571D01*
X123323153Y-85174789D01*
X123322885Y-85482502D01*
X123267429Y-85426949D01*
X122945211Y-85293153D01*
X122596319Y-85292849D01*
X122273869Y-85426082D01*
X122026949Y-85672571D01*
X121893153Y-85994789D01*
X121892849Y-86343681D01*
X122026082Y-86666131D01*
X122052609Y-86692704D01*
X122090447Y-88724300D01*
X120164662Y-88724300D01*
X120097429Y-88656949D01*
X119775211Y-88523153D01*
X119426319Y-88522849D01*
X119103869Y-88656082D01*
X118856949Y-88902571D01*
X118723153Y-89224789D01*
X118722849Y-89573681D01*
X115446765Y-89573681D01*
X115402369Y-89350490D01*
X115261034Y-89138966D01*
X114661034Y-88538966D01*
X114449510Y-88397631D01*
X114408113Y-88389396D01*
X114200000Y-88347999D01*
X114199995Y-88348000D01*
X112099035Y-88348000D01*
X115561075Y-87567344D01*
X115824789Y-87676847D01*
X116173681Y-87677151D01*
X116496131Y-87543918D01*
X116743051Y-87297429D01*
X116876847Y-86975211D01*
X116877151Y-86626319D01*
X116743918Y-86303869D01*
X116497429Y-86056949D01*
X116175211Y-85923153D01*
X115826319Y-85922849D01*
X115503869Y-86056082D01*
X115261337Y-86298191D01*
X111847400Y-87068000D01*
X111002315Y-87068000D01*
X110973219Y-86997583D01*
X110614307Y-86638043D01*
X110145125Y-86443222D01*
X109637103Y-86442779D01*
X109167583Y-86636781D01*
X108808043Y-86995693D01*
X108613222Y-87464875D01*
X108612779Y-87972897D01*
X108767769Y-88348000D01*
X108462315Y-88348000D01*
X108433219Y-88277583D01*
X108074307Y-87918043D01*
X107620912Y-87729777D01*
X108072417Y-87543219D01*
X108431957Y-87184307D01*
X108626778Y-86715125D01*
X108627144Y-86294923D01*
X108670067Y-86252000D01*
X112050142Y-86252000D01*
X112713978Y-86354129D01*
X112902571Y-86543051D01*
X113224789Y-86676847D01*
X113573681Y-86677151D01*
X113896131Y-86543918D01*
X114143051Y-86297429D01*
X114276847Y-85975211D01*
X114277151Y-85626319D01*
X114143918Y-85303869D01*
X113897429Y-85056949D01*
X113575211Y-84923153D01*
X113226319Y-84922849D01*
X112903869Y-85056082D01*
X112896995Y-85062944D01*
X112199141Y-84955582D01*
X112149115Y-84957770D01*
X112100000Y-84948000D01*
X108400005Y-84948000D01*
X108400000Y-84947999D01*
X108150491Y-84997630D01*
X108122244Y-85016504D01*
X107938966Y-85138966D01*
X107938964Y-85138969D01*
X107809745Y-85268188D01*
X107605125Y-85183222D01*
X107097103Y-85182779D01*
X106627583Y-85376781D01*
X106268043Y-85735693D01*
X106073222Y-86204875D01*
X106072779Y-86712897D01*
X102647560Y-86712897D01*
X102955393Y-86405602D01*
X103283705Y-85614937D01*
X103284453Y-84758819D01*
X102957520Y-83967583D01*
X102379042Y-83388093D01*
X102872796Y-83388093D01*
X103051606Y-83820846D01*
X103382412Y-84152230D01*
X103814853Y-84331795D01*
X104283093Y-84332204D01*
X104715846Y-84153394D01*
X105047230Y-83822588D01*
X105226795Y-83390147D01*
X105227204Y-82921907D01*
X105048394Y-82489154D01*
X104717588Y-82157770D01*
X104285147Y-81978205D01*
X103816907Y-81977796D01*
X103384154Y-82156606D01*
X103052770Y-82487412D01*
X102873205Y-82919853D01*
X102872796Y-83388093D01*
X102379042Y-83388093D01*
X102352682Y-83361687D01*
X101562017Y-83033375D01*
X100705899Y-83032627D01*
X99914663Y-83359560D01*
X99308767Y-83964398D01*
X98980455Y-84755063D01*
X98979707Y-85611181D01*
X95512827Y-85611181D01*
X95511226Y-85413235D01*
X95844875Y-85551778D01*
X96352897Y-85552221D01*
X96822417Y-85358219D01*
X97181957Y-84999307D01*
X97376778Y-84530125D01*
X97377221Y-84022103D01*
X97183219Y-83552583D01*
X96824307Y-83193043D01*
X96355125Y-82998222D01*
X95847103Y-82997779D01*
X95377583Y-83191781D01*
X95018043Y-83550693D01*
X94998399Y-83598000D01*
X94825000Y-83598000D01*
X94822265Y-83598544D01*
X94819526Y-83598022D01*
X94692803Y-83624296D01*
X94565923Y-83649534D01*
X94563605Y-83651083D01*
X94560874Y-83651649D01*
X94453886Y-83724395D01*
X94346289Y-83796289D01*
X94344739Y-83798609D01*
X94342434Y-83800176D01*
X94271449Y-83908295D01*
X94199534Y-84015923D01*
X94198990Y-84018659D01*
X94197460Y-84020989D01*
X94173247Y-84148077D01*
X94148000Y-84275000D01*
X94148544Y-84277735D01*
X94148022Y-84280474D01*
X94163000Y-86132754D01*
X94163000Y-101930000D01*
X94179561Y-102013258D01*
X94184181Y-102098018D01*
X94205097Y-102141634D01*
X94214534Y-102189077D01*
X94261694Y-102259657D01*
X94298400Y-102336200D01*
X95108400Y-103416200D01*
X95146148Y-103450045D01*
X95174602Y-103492001D01*
X95240978Y-103535693D01*
X94237152Y-103550542D01*
X94029801Y-103343191D01*
X93850388Y-82455704D01*
X93947000Y-81970000D01*
X93947000Y-80963625D01*
X94132704Y-80685699D01*
X94287000Y-79910000D01*
X94132704Y-79134300D01*
X93693306Y-78476694D01*
X93035700Y-78037296D01*
X92260000Y-77883000D01*
X91484301Y-78037296D01*
X90826695Y-78476694D01*
X90486695Y-78816695D01*
X90217000Y-79220321D01*
X90217000Y-72691660D01*
X90632675Y-72691660D01*
X90917829Y-73381786D01*
X91445376Y-73910256D01*
X92135004Y-74196614D01*
X92881720Y-74197265D01*
X93571846Y-73912111D01*
X94100316Y-73384564D01*
X94386674Y-72694936D01*
X94387325Y-71948220D01*
X94102171Y-71258094D01*
X93574624Y-70729624D01*
X92884996Y-70443266D01*
X92138280Y-70442615D01*
X91448154Y-70727769D01*
X90919684Y-71255316D01*
X90633326Y-71944944D01*
X90632675Y-72691660D01*
X90217000Y-72691660D01*
X90217000Y-68609610D01*
X91589611Y-67237000D01*
X92820000Y-67237000D01*
X93472067Y-67107296D01*
X93595700Y-67082704D01*
X94253305Y-66643305D01*
X95949610Y-64947000D01*
X95979940Y-64947000D01*
X96755639Y-64792704D01*
X97413245Y-64353305D01*
X97453060Y-64293718D01*
X97453060Y-69110060D01*
X97570543Y-69700688D01*
X97607356Y-69885760D01*
X98046755Y-70543365D01*
X102772676Y-75269287D01*
X102772676Y-75340000D01*
X102809423Y-75535294D01*
X102924842Y-75714660D01*
X103100951Y-75834990D01*
X103310000Y-75877324D01*
X103531691Y-75877324D01*
X103734300Y-76012703D01*
X104510000Y-76166999D01*
X105285699Y-76012703D01*
X105488308Y-75877324D01*
X105710000Y-75877324D01*
X105905294Y-75840577D01*
X106084660Y-75725158D01*
X106204990Y-75549049D01*
X106247324Y-75340000D01*
X106247324Y-75118308D01*
X106382703Y-74915699D01*
X106536999Y-74140000D01*
X106382703Y-73364300D01*
X106247324Y-73161691D01*
X106247324Y-72940000D01*
X106210577Y-72744706D01*
X106095158Y-72565340D01*
X105919049Y-72445010D01*
X105710000Y-72402676D01*
X105639287Y-72402676D01*
X103263610Y-70027000D01*
X104500000Y-70027000D01*
X105275699Y-69872704D01*
X105933305Y-69433305D01*
X106133577Y-69133578D01*
X106433305Y-68933305D01*
X108883365Y-66483246D01*
X109322764Y-65825640D01*
X109348363Y-65696943D01*
X109477060Y-65049940D01*
X109477060Y-62750000D01*
X109322764Y-61974301D01*
X108883365Y-61316695D01*
X108225759Y-60877296D01*
X107450060Y-60723000D01*
X106674361Y-60877296D01*
X106016755Y-61316695D01*
X105577356Y-61974301D01*
X105423060Y-62750000D01*
X105423060Y-64210329D01*
X103660390Y-65973000D01*
X103000000Y-65973000D01*
X102224301Y-66127296D01*
X101566695Y-66566695D01*
X101507060Y-66655945D01*
X101507060Y-61239550D01*
X103389610Y-59357000D01*
X111480390Y-59357000D01*
X113423060Y-61299671D01*
X113423060Y-62800000D01*
X113577356Y-63575699D01*
X114016755Y-64233305D01*
X114674361Y-64672704D01*
X115450060Y-64827000D01*
X116225759Y-64672704D01*
X116883365Y-64233305D01*
X117322764Y-63575699D01*
X117467114Y-62850000D01*
X121473060Y-62850000D01*
X121473060Y-63500060D01*
X121567134Y-63973000D01*
X121627356Y-64275760D01*
X122066755Y-64933365D01*
X123973000Y-66839610D01*
X123973000Y-71000000D01*
X124127296Y-71775699D01*
X124566695Y-72433305D01*
X125224301Y-72872704D01*
X126000000Y-73027000D01*
X126775699Y-72872704D01*
X127433305Y-72433305D01*
X127872704Y-71775699D01*
X128027000Y-71000000D01*
X128027000Y-66000000D01*
X127881560Y-65268824D01*
X127872704Y-65224300D01*
X127433305Y-64566695D01*
X125479994Y-62613384D01*
X125372764Y-62074301D01*
X124933365Y-61416695D01*
X124275759Y-60977296D01*
X123500060Y-60823000D01*
X122724361Y-60977296D01*
X122066755Y-61416695D01*
X121627356Y-62074301D01*
X121473060Y-62850000D01*
X117467114Y-62850000D01*
X117477060Y-62800000D01*
X117477060Y-60460060D01*
X117322764Y-59684361D01*
X117322764Y-59684360D01*
X117164058Y-59446840D01*
X126127883Y-59446840D01*
X126033248Y-59674747D01*
X126032752Y-60242443D01*
X126249543Y-60767115D01*
X126650614Y-61168887D01*
X127174907Y-61386592D01*
X127348313Y-61386744D01*
X128191174Y-62420233D01*
X129176129Y-75010102D01*
X129219763Y-75165091D01*
X129251176Y-75323016D01*
X129273723Y-75356759D01*
X129284720Y-75395823D01*
X129384343Y-75522315D01*
X129473801Y-75656199D01*
X130093801Y-76276198D01*
X130208743Y-76353000D01*
X124862177Y-76353000D01*
X118909993Y-70657950D01*
X118750385Y-70556326D01*
X118593016Y-70451176D01*
X118581705Y-70448926D01*
X118571978Y-70442733D01*
X118385608Y-70409920D01*
X118200000Y-70373000D01*
X117800000Y-70373000D01*
X117406984Y-70451176D01*
X117073801Y-70673801D01*
X116851176Y-71006984D01*
X116773000Y-71400000D01*
X116851176Y-71793016D01*
X117073801Y-72126199D01*
X117406984Y-72348824D01*
X117784627Y-72423942D01*
X123740006Y-78122050D01*
X123899626Y-78223681D01*
X124056984Y-78328824D01*
X124068295Y-78331074D01*
X124078022Y-78337267D01*
X124264392Y-78370080D01*
X124450000Y-78407000D01*
X133900000Y-78407000D01*
X134293016Y-78328824D01*
X134626199Y-78106199D01*
X134848824Y-77773016D01*
X134927000Y-77380000D01*
X134848824Y-76986984D01*
X134626199Y-76653801D01*
X134293016Y-76431176D01*
X133900000Y-76353000D01*
X131431256Y-76353000D01*
X131546198Y-76276198D01*
X131768824Y-75943015D01*
X131847000Y-75550000D01*
X131768824Y-75156984D01*
X131546198Y-74823801D01*
X131194299Y-74471901D01*
X131086476Y-73093681D01*
X147652849Y-73093681D01*
X147786082Y-73416131D01*
X148032571Y-73663051D01*
X148354789Y-73796847D01*
X148409473Y-73796895D01*
X150892930Y-76280353D01*
X150892849Y-76373681D01*
X151026082Y-76696131D01*
X151272571Y-76943051D01*
X151594789Y-77076847D01*
X151943681Y-77077151D01*
X152266131Y-76943918D01*
X152513051Y-76697429D01*
X152646847Y-76375211D01*
X152646883Y-76333974D01*
X160501563Y-84693258D01*
X160514779Y-84702696D01*
X160523801Y-84716199D01*
X160677363Y-84818806D01*
X160827660Y-84926140D01*
X160843482Y-84929802D01*
X160856984Y-84938824D01*
X161038102Y-84974851D01*
X161218054Y-85016504D01*
X161234075Y-85013832D01*
X161250000Y-85017000D01*
X168371449Y-85017000D01*
X169353000Y-85690727D01*
X169353000Y-87090000D01*
X169431176Y-87483016D01*
X169653801Y-87816199D01*
X172933799Y-91096196D01*
X172933801Y-91096199D01*
X173234964Y-91297429D01*
X173266984Y-91318824D01*
X173660000Y-91397000D01*
X176360000Y-91397000D01*
X176753016Y-91318824D01*
X177086199Y-91096199D01*
X178116199Y-90066199D01*
X178338824Y-89733016D01*
X178417000Y-89340000D01*
X178338824Y-88946984D01*
X178116199Y-88613801D01*
X177783016Y-88391176D01*
X177390000Y-88313000D01*
X176996984Y-88391176D01*
X176663801Y-88613801D01*
X175934602Y-89343000D01*
X174085397Y-89343000D01*
X171407000Y-86664602D01*
X171407000Y-85150000D01*
X171388506Y-85057027D01*
X171389690Y-84962233D01*
X171349795Y-84862411D01*
X171328824Y-84756984D01*
X171276157Y-84678163D01*
X171240976Y-84590135D01*
X171165922Y-84513183D01*
X171106199Y-84423801D01*
X171027375Y-84371133D01*
X170961187Y-84303271D01*
X169271187Y-83143271D01*
X169172397Y-83100899D01*
X169083016Y-83041176D01*
X168990037Y-83022681D01*
X168902917Y-82985314D01*
X168795431Y-82983972D01*
X168690000Y-82963000D01*
X161694238Y-82963000D01*
X154027000Y-74803201D01*
X154027000Y-71360440D01*
X154118824Y-71223016D01*
X154197000Y-70830000D01*
X154118824Y-70436985D01*
X153896198Y-70103802D01*
X153563015Y-69881176D01*
X153170000Y-69803000D01*
X152776984Y-69881176D01*
X152443801Y-70103802D01*
X152273801Y-70273801D01*
X152051176Y-70606984D01*
X151973000Y-71000000D01*
X151973000Y-75210000D01*
X152000036Y-75345918D01*
X151945211Y-75323153D01*
X151850493Y-75323070D01*
X149407035Y-72879613D01*
X149407151Y-72746319D01*
X149273918Y-72423869D01*
X149027429Y-72176949D01*
X148705211Y-72043153D01*
X148356319Y-72042849D01*
X148033869Y-72176082D01*
X147786949Y-72422571D01*
X147653153Y-72744789D01*
X147652849Y-73093681D01*
X131086476Y-73093681D01*
X130325754Y-63370000D01*
X149013000Y-63370000D01*
X149013000Y-63700000D01*
X149136326Y-64320000D01*
X149167296Y-64475700D01*
X149331045Y-64720766D01*
X149339423Y-64765294D01*
X149454842Y-64944660D01*
X149502324Y-64977103D01*
X149606695Y-65133305D01*
X154886695Y-70413306D01*
X155360099Y-70729624D01*
X155544301Y-70852704D01*
X156320000Y-71007000D01*
X158550390Y-71007000D01*
X160462676Y-72919287D01*
X160462676Y-76590000D01*
X160499423Y-76785294D01*
X160614842Y-76964660D01*
X160790951Y-77084990D01*
X161000000Y-77127324D01*
X166800000Y-77127324D01*
X166995294Y-77090577D01*
X167174660Y-76975158D01*
X167294990Y-76799049D01*
X167337324Y-76590000D01*
X167337324Y-70390000D01*
X167300577Y-70194706D01*
X167185158Y-70015340D01*
X167009049Y-69895010D01*
X166800000Y-69852676D01*
X165927000Y-69852676D01*
X165927000Y-68400000D01*
X165772704Y-67624301D01*
X165772704Y-67624300D01*
X165333305Y-66966695D01*
X163797060Y-65430450D01*
X163797060Y-64520000D01*
X163642764Y-63744301D01*
X163203365Y-63086695D01*
X162545759Y-62647296D01*
X161770060Y-62493000D01*
X160994361Y-62647296D01*
X160336755Y-63086695D01*
X159948635Y-63667557D01*
X159862111Y-63458154D01*
X159334564Y-62929684D01*
X158644936Y-62643326D01*
X157898220Y-62642675D01*
X157208094Y-62927829D01*
X156679624Y-63455376D01*
X156393266Y-64145004D01*
X156392615Y-64891720D01*
X156677769Y-65581846D01*
X157205316Y-66110316D01*
X157894944Y-66396674D01*
X158641660Y-66397325D01*
X159331786Y-66112171D01*
X159743060Y-65701615D01*
X159743060Y-66270060D01*
X159853707Y-66826319D01*
X159897356Y-67045760D01*
X159903644Y-67055170D01*
X159390000Y-66953000D01*
X157159611Y-66953000D01*
X152940462Y-62733852D01*
X152912704Y-62594301D01*
X152777324Y-62391691D01*
X152777324Y-62170000D01*
X152740577Y-61974706D01*
X152625158Y-61795340D01*
X152449049Y-61675010D01*
X152240000Y-61632676D01*
X152018309Y-61632676D01*
X151815699Y-61497296D01*
X151040000Y-61343000D01*
X150264301Y-61497296D01*
X150061691Y-61632676D01*
X149840000Y-61632676D01*
X149644706Y-61669423D01*
X149465340Y-61784842D01*
X149345010Y-61960951D01*
X149302676Y-62170000D01*
X149302676Y-62391691D01*
X149167296Y-62594301D01*
X149013000Y-63370000D01*
X130325754Y-63370000D01*
X130213871Y-61939899D01*
X130184116Y-61834207D01*
X130173689Y-61724900D01*
X130130343Y-61643202D01*
X130105280Y-61554177D01*
X130037342Y-61467915D01*
X129985880Y-61370921D01*
X128886946Y-60023442D01*
X128887248Y-59677237D01*
X128792049Y-59446840D01*
X170630230Y-59446840D01*
X170881136Y-59697746D01*
X170775700Y-59627296D01*
X170000000Y-59473001D01*
X169224300Y-59627296D01*
X168566695Y-60066695D01*
X168127296Y-60724300D01*
X167973001Y-61500000D01*
X168033060Y-61801940D01*
X168033060Y-63138895D01*
X167624564Y-62729684D01*
X166934936Y-62443326D01*
X166188220Y-62442675D01*
X165498094Y-62727829D01*
X164969624Y-63255376D01*
X164683266Y-63945004D01*
X164682615Y-64691720D01*
X164967769Y-65381846D01*
X165495316Y-65910316D01*
X166184944Y-66196674D01*
X166931660Y-66197325D01*
X167621786Y-65912171D01*
X167973000Y-65561570D01*
X167973000Y-67000000D01*
X168033060Y-67301942D01*
X168033060Y-78100329D01*
X167066695Y-79066695D01*
X166627296Y-79724300D01*
X166473001Y-80500000D01*
X166627296Y-81275700D01*
X167066695Y-81933305D01*
X167724300Y-82372704D01*
X168500000Y-82526999D01*
X169275700Y-82372704D01*
X169933305Y-81933305D01*
X170608827Y-81257784D01*
X170835759Y-81212644D01*
X171493365Y-80773245D01*
X171932764Y-80115639D01*
X172087060Y-79339940D01*
X172087060Y-61560060D01*
X171932764Y-60784361D01*
X171905741Y-60743918D01*
X171862313Y-60678924D01*
X172483000Y-61299611D01*
X172483000Y-74500000D01*
X172571885Y-74946855D01*
X172637296Y-75275700D01*
X173076695Y-75933305D01*
X174363160Y-77219771D01*
X174363160Y-77457883D01*
X174135253Y-77363248D01*
X173567557Y-77362752D01*
X173042885Y-77579543D01*
X172641113Y-77980614D01*
X172423408Y-78504907D01*
X172422912Y-79072603D01*
X172639703Y-79597275D01*
X172823160Y-79781053D01*
X172823160Y-80669116D01*
X172791176Y-80716984D01*
X172713000Y-81110000D01*
X172791176Y-81503016D01*
X173013801Y-81836199D01*
X173346984Y-82058824D01*
X173740000Y-82137000D01*
X174133016Y-82058824D01*
X174466199Y-81836199D01*
X174576356Y-81726041D01*
X174576359Y-81726039D01*
X174798984Y-81392856D01*
X174831945Y-81227151D01*
X174873000Y-81020758D01*
X174873000Y-82330389D01*
X174340390Y-82863000D01*
X173770000Y-82863000D01*
X173155086Y-82985314D01*
X172994300Y-83017296D01*
X172336695Y-83456695D01*
X172186695Y-83606695D01*
X171747296Y-84264300D01*
X171593001Y-85040000D01*
X171747296Y-85815700D01*
X172186695Y-86473305D01*
X172844300Y-86912704D01*
X173620000Y-87066999D01*
X174374102Y-86917000D01*
X175180000Y-86917000D01*
X175827003Y-86788303D01*
X175955700Y-86762704D01*
X176613305Y-86323305D01*
X178333305Y-84603306D01*
X178658215Y-84117043D01*
X178772704Y-83945699D01*
X178927000Y-83170000D01*
X178927000Y-79299840D01*
X178772704Y-78524141D01*
X178594104Y-78256847D01*
X178417160Y-77992031D01*
X178417160Y-76380160D01*
X178328275Y-75933305D01*
X178262864Y-75604460D01*
X177823466Y-74946855D01*
X176537000Y-73660390D01*
X176537000Y-60460000D01*
X176522980Y-60389515D01*
X176850298Y-60717405D01*
X177595036Y-61026647D01*
X178401426Y-61027351D01*
X179146703Y-60719409D01*
X179717405Y-60149702D01*
X180026647Y-59404964D01*
X180027351Y-58598574D01*
X179719409Y-57853297D01*
X179149702Y-57282595D01*
X178404964Y-56973353D01*
X177598574Y-56972649D01*
X176853297Y-57280591D01*
X176282595Y-57850298D01*
X175973353Y-58595036D01*
X175972937Y-59071042D01*
X175943306Y-59026695D01*
X173043610Y-56127000D01*
X180873000Y-56127000D01*
X180873000Y-117873000D01*
X180873000Y-117873000D01*
G37*
X180873000Y-117873000D02*
X158168400Y-117873000D01*
X158310781Y-117671895D01*
X158509243Y-117439195D01*
X158537712Y-117351366D01*
X158591063Y-117276011D01*
X158658812Y-116977769D01*
X158753116Y-116686837D01*
X158936588Y-115127324D01*
X160135000Y-115127324D01*
X160330294Y-115090577D01*
X160509660Y-114975158D01*
X160629990Y-114799049D01*
X160672324Y-114590000D01*
X160672324Y-113401426D01*
X175972649Y-113401426D01*
X176280591Y-114146703D01*
X176850298Y-114717405D01*
X177595036Y-115026647D01*
X178401426Y-115027351D01*
X179146703Y-114719409D01*
X179717405Y-114149702D01*
X180026647Y-113404964D01*
X180027351Y-112598574D01*
X179719409Y-111853297D01*
X179149702Y-111282595D01*
X178404964Y-110973353D01*
X177598574Y-110972649D01*
X176853297Y-111280591D01*
X176282595Y-111850298D01*
X175973353Y-112595036D01*
X175972649Y-113401426D01*
X160672324Y-113401426D01*
X160672324Y-107850000D01*
X160635577Y-107654706D01*
X160520158Y-107475340D01*
X160344049Y-107355010D01*
X160135000Y-107312676D01*
X153905000Y-107312676D01*
X153709706Y-107349423D01*
X153530340Y-107464842D01*
X153410010Y-107640951D01*
X153367676Y-107850000D01*
X153367676Y-114344734D01*
X130258595Y-114442987D01*
X126775808Y-114433008D01*
X126772902Y-114433577D01*
X126770000Y-114433000D01*
X114837416Y-114433000D01*
X114862324Y-114310000D01*
X114862324Y-112794914D01*
X115150137Y-112602603D01*
X131192752Y-112602603D01*
X131409543Y-113127275D01*
X131810614Y-113529047D01*
X132334907Y-113746752D01*
X132902603Y-113747248D01*
X133427275Y-113530457D01*
X133829047Y-113129386D01*
X133889881Y-112982882D01*
X133949543Y-113127275D01*
X134350614Y-113529047D01*
X134874907Y-113746752D01*
X135442603Y-113747248D01*
X135967275Y-113530457D01*
X136369047Y-113129386D01*
X136586752Y-112605093D01*
X136586754Y-112602603D01*
X138802592Y-112602603D01*
X139019383Y-113127275D01*
X139420454Y-113529047D01*
X139944747Y-113746752D01*
X140512443Y-113747248D01*
X141037115Y-113530457D01*
X141438887Y-113129386D01*
X141494628Y-112995146D01*
X141549223Y-113127275D01*
X141950294Y-113529047D01*
X142474587Y-113746752D01*
X143042283Y-113747248D01*
X143566955Y-113530457D01*
X143968727Y-113129386D01*
X144029561Y-112982882D01*
X144089223Y-113127275D01*
X144490294Y-113529047D01*
X145014587Y-113746752D01*
X145582283Y-113747248D01*
X146106955Y-113530457D01*
X146508727Y-113129386D01*
X146726432Y-112605093D01*
X146726928Y-112037397D01*
X146510137Y-111512725D01*
X146109066Y-111110953D01*
X145584773Y-110893248D01*
X145017077Y-110892752D01*
X144492405Y-111109543D01*
X144090633Y-111510614D01*
X144029799Y-111657118D01*
X143970137Y-111512725D01*
X143569066Y-111110953D01*
X143044773Y-110893248D01*
X142477077Y-110892752D01*
X141952405Y-111109543D01*
X141550633Y-111510614D01*
X141494892Y-111644854D01*
X141440297Y-111512725D01*
X141039226Y-111110953D01*
X140514933Y-110893248D01*
X139947237Y-110892752D01*
X139422565Y-111109543D01*
X139020793Y-111510614D01*
X138803088Y-112034907D01*
X138802592Y-112602603D01*
X136586754Y-112602603D01*
X136587248Y-112037397D01*
X136370457Y-111512725D01*
X135969386Y-111110953D01*
X135445093Y-110893248D01*
X134877397Y-110892752D01*
X134352725Y-111109543D01*
X133950953Y-111510614D01*
X133890119Y-111657118D01*
X133830457Y-111512725D01*
X133429386Y-111110953D01*
X132905093Y-110893248D01*
X132337397Y-110892752D01*
X131812725Y-111109543D01*
X131410953Y-111510614D01*
X131193248Y-112034907D01*
X131192752Y-112602603D01*
X115150137Y-112602603D01*
X115493305Y-112373305D01*
X116933306Y-110933305D01*
X117372704Y-110275699D01*
X117442674Y-109923936D01*
X118633245Y-108733366D01*
X119072644Y-108075760D01*
X119104193Y-107917151D01*
X119226940Y-107300060D01*
X119226940Y-107290000D01*
X119165795Y-106982603D01*
X126312752Y-106982603D01*
X126529543Y-107507275D01*
X126930614Y-107909047D01*
X127454907Y-108126752D01*
X128022603Y-108127248D01*
X128547275Y-107910457D01*
X128949047Y-107509386D01*
X129009881Y-107362882D01*
X129069543Y-107507275D01*
X129470614Y-107909047D01*
X129994907Y-108126752D01*
X130562603Y-108127248D01*
X131087275Y-107910457D01*
X131489047Y-107509386D01*
X131706752Y-106985093D01*
X131707041Y-106653681D01*
X152012849Y-106653681D01*
X152146082Y-106976131D01*
X152392571Y-107223051D01*
X152714789Y-107356847D01*
X153063681Y-107357151D01*
X153386131Y-107223918D01*
X153453166Y-107157000D01*
X160539578Y-107157000D01*
X160752930Y-107370352D01*
X160752849Y-107463681D01*
X160886082Y-107786131D01*
X161132571Y-108033051D01*
X161454789Y-108166847D01*
X161803681Y-108167151D01*
X162126131Y-108033918D01*
X162373051Y-107787429D01*
X162506847Y-107465211D01*
X162507151Y-107116319D01*
X162373918Y-106793869D01*
X162127429Y-106546949D01*
X161805211Y-106413153D01*
X161710492Y-106413070D01*
X161420961Y-106123539D01*
X161740000Y-106187000D01*
X162133015Y-106108824D01*
X162466198Y-105886198D01*
X162688824Y-105553015D01*
X162767000Y-105160000D01*
X162688824Y-104766984D01*
X162466198Y-104433801D01*
X162297000Y-104264603D01*
X162297000Y-95940000D01*
X162292431Y-95917028D01*
X162433681Y-95917151D01*
X162756131Y-95783918D01*
X163003051Y-95537429D01*
X163136847Y-95215211D01*
X163137151Y-94866319D01*
X163004554Y-94545408D01*
X163052933Y-94258359D01*
X163051325Y-94203664D01*
X163062000Y-94150000D01*
X163047624Y-94077727D01*
X163045459Y-94004071D01*
X163023044Y-93954155D01*
X163012369Y-93900491D01*
X162971433Y-93839226D01*
X162941244Y-93771999D01*
X162901430Y-93734459D01*
X162871033Y-93688966D01*
X162677039Y-93494972D01*
X162677151Y-93366319D01*
X162543918Y-93043869D01*
X162362690Y-92862324D01*
X165251386Y-92862324D01*
X165390586Y-93054023D01*
X165673785Y-94455109D01*
X165918035Y-96042735D01*
X165844037Y-98355169D01*
X165849429Y-98387679D01*
X165843000Y-98420000D01*
X165843000Y-101243667D01*
X165743918Y-101003869D01*
X165497429Y-100756949D01*
X165175211Y-100623153D01*
X164826319Y-100622849D01*
X164503869Y-100756082D01*
X164256949Y-101002571D01*
X164123153Y-101324789D01*
X164122849Y-101673681D01*
X164168677Y-101784593D01*
X164160717Y-101803165D01*
X164159879Y-101807126D01*
X164157631Y-101810490D01*
X164133577Y-101931418D01*
X164108049Y-102052051D01*
X164108790Y-102056029D01*
X164108000Y-102060000D01*
X164108000Y-105929933D01*
X163874971Y-106162961D01*
X163746319Y-106162849D01*
X163423869Y-106296082D01*
X163176949Y-106542571D01*
X163043153Y-106864789D01*
X163042849Y-107213681D01*
X163176082Y-107536131D01*
X163422571Y-107783051D01*
X163744789Y-107916847D01*
X164093681Y-107917151D01*
X164416131Y-107783918D01*
X164663051Y-107537429D01*
X164796847Y-107215211D01*
X164796960Y-107085107D01*
X164962940Y-106919127D01*
X164962940Y-108850000D01*
X165117236Y-109625699D01*
X165556635Y-110283305D01*
X166214241Y-110722704D01*
X166989940Y-110877000D01*
X167765639Y-110722704D01*
X168423245Y-110283305D01*
X168811365Y-109702443D01*
X168897889Y-109911846D01*
X169425436Y-110440316D01*
X170115064Y-110726674D01*
X170861780Y-110727325D01*
X171551906Y-110442171D01*
X172080376Y-109914624D01*
X172366734Y-109224996D01*
X172367385Y-108478280D01*
X172082231Y-107788154D01*
X171554684Y-107259684D01*
X170865056Y-106973326D01*
X170118340Y-106972675D01*
X169428214Y-107257829D01*
X169016940Y-107668385D01*
X169016940Y-104469671D01*
X169303306Y-104183305D01*
X169742704Y-103525700D01*
X169897000Y-102750000D01*
X169897000Y-98452425D01*
X169975963Y-95984830D01*
X169945222Y-95799483D01*
X169953430Y-95611781D01*
X169702387Y-93980000D01*
X170983000Y-93980000D01*
X171061176Y-94373016D01*
X171273000Y-94690034D01*
X171273000Y-95340000D01*
X171351176Y-95733016D01*
X171573801Y-96066199D01*
X172823801Y-97316199D01*
X173156984Y-97538824D01*
X173550000Y-97617001D01*
X173550005Y-97617000D01*
X176390000Y-97617000D01*
X176783016Y-97538824D01*
X177116199Y-97316199D01*
X177338824Y-96983016D01*
X177417000Y-96590000D01*
X177338824Y-96196984D01*
X177116199Y-95863801D01*
X176783016Y-95641176D01*
X176390000Y-95563000D01*
X173975398Y-95563000D01*
X173327000Y-94914602D01*
X173327000Y-94270005D01*
X173327001Y-94270000D01*
X173248824Y-93876984D01*
X173026199Y-93543801D01*
X172736199Y-93253801D01*
X172403016Y-93031176D01*
X172010000Y-92953000D01*
X171616984Y-93031176D01*
X171283801Y-93253801D01*
X171061176Y-93586984D01*
X170983000Y-93980000D01*
X169702387Y-93980000D01*
X169673429Y-93791780D01*
X169656969Y-93746547D01*
X169656820Y-93698409D01*
X169276820Y-91818409D01*
X169262560Y-91784282D01*
X169261118Y-91747324D01*
X169110596Y-91420591D01*
X168971900Y-91088655D01*
X168945666Y-91062582D01*
X168930190Y-91028990D01*
X168847324Y-90914872D01*
X168847324Y-86095000D01*
X168810577Y-85899706D01*
X168695158Y-85720340D01*
X168519049Y-85600010D01*
X168310000Y-85557676D01*
X161570000Y-85557676D01*
X161374706Y-85594423D01*
X161195340Y-85709842D01*
X161075010Y-85885951D01*
X161032676Y-86095000D01*
X161032676Y-92325000D01*
X161069423Y-92520294D01*
X161184842Y-92699660D01*
X161317636Y-92790394D01*
X161303869Y-92796082D01*
X161056949Y-93042571D01*
X160923153Y-93364789D01*
X160922849Y-93713681D01*
X161056082Y-94036131D01*
X161302571Y-94283051D01*
X161624789Y-94416847D01*
X161642877Y-94416863D01*
X161516949Y-94542571D01*
X161383153Y-94864789D01*
X161383091Y-94935495D01*
X161270000Y-94913000D01*
X160876984Y-94991176D01*
X160543801Y-95213801D01*
X160321176Y-95546984D01*
X160243000Y-95940000D01*
X160243000Y-104690000D01*
X160321176Y-105083016D01*
X160543801Y-105416199D01*
X160958066Y-105830463D01*
X160820000Y-105803000D01*
X153453365Y-105803000D01*
X153387429Y-105736949D01*
X153065211Y-105603153D01*
X152716319Y-105602849D01*
X152393869Y-105736082D01*
X152146949Y-105982571D01*
X152013153Y-106304789D01*
X152012849Y-106653681D01*
X131707041Y-106653681D01*
X131707248Y-106417397D01*
X131490457Y-105892725D01*
X131089386Y-105490953D01*
X130565093Y-105273248D01*
X129997397Y-105272752D01*
X129472725Y-105489543D01*
X129070953Y-105890614D01*
X129010119Y-106037118D01*
X128950457Y-105892725D01*
X128549386Y-105490953D01*
X128025093Y-105273248D01*
X127457397Y-105272752D01*
X126932725Y-105489543D01*
X126530953Y-105890614D01*
X126313248Y-106414907D01*
X126312752Y-106982603D01*
X119165795Y-106982603D01*
X119072644Y-106514301D01*
X118633245Y-105856695D01*
X117975639Y-105417296D01*
X117199940Y-105263000D01*
X116424241Y-105417296D01*
X115766635Y-105856695D01*
X115746379Y-105887010D01*
X114548503Y-107084886D01*
X114534049Y-107075010D01*
X114325000Y-107032676D01*
X108095000Y-107032676D01*
X107899706Y-107069423D01*
X107720340Y-107184842D01*
X107600010Y-107360951D01*
X107557676Y-107570000D01*
X107557676Y-114310000D01*
X107580820Y-114433000D01*
X106403616Y-114433000D01*
X106412324Y-114390000D01*
X106412324Y-107650000D01*
X106375577Y-107454706D01*
X106260158Y-107275340D01*
X106084049Y-107155010D01*
X105875000Y-107112676D01*
X99829484Y-107112676D01*
X99933305Y-107043305D01*
X100119610Y-106857000D01*
X106975900Y-106857000D01*
X107044301Y-106902704D01*
X107820000Y-107057000D01*
X108595700Y-106902704D01*
X109253306Y-106463306D01*
X109692704Y-105805700D01*
X109847000Y-105030000D01*
X109692704Y-104254301D01*
X109253306Y-103596695D01*
X109053305Y-103396695D01*
X108395700Y-102957296D01*
X108251686Y-102928650D01*
X107620000Y-102803000D01*
X99280000Y-102803000D01*
X98504301Y-102957296D01*
X97846695Y-103396694D01*
X97660967Y-103582423D01*
X97570228Y-103572719D01*
X97469040Y-103552591D01*
X97481397Y-103543628D01*
X97582001Y-103475398D01*
X97587982Y-103466312D01*
X97596792Y-103459921D01*
X99580579Y-101317096D01*
X99643681Y-101317151D01*
X99966131Y-101183918D01*
X100213051Y-100937429D01*
X100346847Y-100615211D01*
X100347151Y-100266319D01*
X100299090Y-100150000D01*
X113433000Y-100150000D01*
X113433000Y-104780000D01*
X113511176Y-105173016D01*
X113733801Y-105506199D01*
X113903801Y-105676198D01*
X114236984Y-105898824D01*
X114630000Y-105977000D01*
X115023015Y-105898824D01*
X115356198Y-105676198D01*
X115578824Y-105343015D01*
X115657000Y-104950000D01*
X115578824Y-104556984D01*
X115487000Y-104419560D01*
X115487000Y-100150000D01*
X115408824Y-99756984D01*
X115186199Y-99423801D01*
X114853016Y-99201176D01*
X114460000Y-99123000D01*
X114066984Y-99201176D01*
X113733801Y-99423801D01*
X113511176Y-99756984D01*
X113433000Y-100150000D01*
X100299090Y-100150000D01*
X100213918Y-99943869D01*
X99967429Y-99696949D01*
X99645211Y-99563153D01*
X99296319Y-99562849D01*
X98973869Y-99696082D01*
X98726949Y-99942571D01*
X98593153Y-100264789D01*
X98593043Y-100390722D01*
X96802290Y-102325037D01*
X95986746Y-102330661D01*
X95517000Y-101704333D01*
X95517000Y-100029949D01*
X95536082Y-100076131D01*
X95782571Y-100323051D01*
X96104789Y-100456847D01*
X96453681Y-100457151D01*
X96776131Y-100323918D01*
X97023051Y-100077429D01*
X97156847Y-99755211D01*
X97157151Y-99406319D01*
X97067049Y-99188254D01*
X97055120Y-98878093D01*
X102872796Y-98878093D01*
X103051606Y-99310846D01*
X103382412Y-99642230D01*
X103814853Y-99821795D01*
X104283093Y-99822204D01*
X104715846Y-99643394D01*
X105047230Y-99312588D01*
X105226795Y-98880147D01*
X105227204Y-98411907D01*
X105048394Y-97979154D01*
X104717588Y-97647770D01*
X104285147Y-97468205D01*
X103816907Y-97467796D01*
X103384154Y-97646606D01*
X103052770Y-97977412D01*
X102873205Y-98409853D01*
X102872796Y-98878093D01*
X97055120Y-98878093D01*
X97046500Y-98653981D01*
X97031389Y-98590809D01*
X97029227Y-98525895D01*
X97005701Y-98425255D01*
X97181957Y-98249307D01*
X97376778Y-97780125D01*
X97377221Y-97272103D01*
X97281806Y-97041181D01*
X98979707Y-97041181D01*
X99306640Y-97832417D01*
X99911478Y-98438313D01*
X100702143Y-98766625D01*
X101558261Y-98767373D01*
X102349497Y-98440440D01*
X102955393Y-97835602D01*
X103283705Y-97044937D01*
X103284453Y-96188819D01*
X102957520Y-95397583D01*
X102352682Y-94791687D01*
X101562017Y-94463375D01*
X100705899Y-94462627D01*
X99914663Y-94789560D01*
X99308767Y-95394398D01*
X98980455Y-96185063D01*
X98979707Y-97041181D01*
X97281806Y-97041181D01*
X97183219Y-96802583D01*
X96824307Y-96443043D01*
X96355125Y-96248222D01*
X95847103Y-96247779D01*
X95517000Y-96384175D01*
X95517000Y-86130000D01*
X95516456Y-86127265D01*
X95516978Y-86124526D01*
X95512827Y-85611181D01*
X98979707Y-85611181D01*
X99306640Y-86402417D01*
X99911478Y-87008313D01*
X100702143Y-87336625D01*
X101558261Y-87337373D01*
X102349497Y-87010440D01*
X102647560Y-86712897D01*
X106072779Y-86712897D01*
X106266781Y-87182417D01*
X106625693Y-87541957D01*
X107079088Y-87730223D01*
X106627583Y-87916781D01*
X106268043Y-88275693D01*
X106073222Y-88744875D01*
X106072779Y-89252897D01*
X106266781Y-89722417D01*
X106625693Y-90081957D01*
X107067017Y-90265210D01*
X106627583Y-90446781D01*
X106268043Y-90805693D01*
X106073222Y-91274875D01*
X106072779Y-91782897D01*
X106266781Y-92252417D01*
X106625693Y-92611957D01*
X107079088Y-92800223D01*
X106627583Y-92986781D01*
X106268043Y-93345693D01*
X106073222Y-93814875D01*
X106072779Y-94322897D01*
X106266781Y-94792417D01*
X106625693Y-95151957D01*
X107094875Y-95346778D01*
X107602897Y-95347221D01*
X108072417Y-95153219D01*
X108431957Y-94794307D01*
X108626778Y-94325125D01*
X108627221Y-93817103D01*
X108433219Y-93347583D01*
X108074307Y-92988043D01*
X107620912Y-92799777D01*
X108072417Y-92613219D01*
X108431957Y-92254307D01*
X108467950Y-92167625D01*
X108529077Y-92155466D01*
X108748711Y-92008711D01*
X109342181Y-91415241D01*
X109619088Y-91530223D01*
X109167583Y-91716781D01*
X108808043Y-92075693D01*
X108613222Y-92544875D01*
X108612779Y-93052897D01*
X108806781Y-93522417D01*
X109165693Y-93881957D01*
X109634875Y-94076778D01*
X110142897Y-94077221D01*
X110612417Y-93883219D01*
X110971957Y-93524307D01*
X111001981Y-93452000D01*
X115999995Y-93452000D01*
X116000000Y-93452001D01*
X116208113Y-93410604D01*
X116249510Y-93402369D01*
X116461034Y-93261034D01*
X117345028Y-92377039D01*
X117473681Y-92377151D01*
X117796131Y-92243918D01*
X118043051Y-91997429D01*
X118176847Y-91675211D01*
X118177151Y-91326319D01*
X118043918Y-91003869D01*
X117797429Y-90756949D01*
X117475211Y-90623153D01*
X117126319Y-90622849D01*
X116803869Y-90756082D01*
X116556949Y-91002571D01*
X116423153Y-91324789D01*
X116423040Y-91454893D01*
X115729932Y-92148000D01*
X111002315Y-92148000D01*
X110973219Y-92077583D01*
X110614307Y-91718043D01*
X110160912Y-91529777D01*
X110334579Y-91458019D01*
X110430000Y-91477000D01*
X112800000Y-91477000D01*
X113059077Y-91425466D01*
X113131571Y-91377027D01*
X113273681Y-91377151D01*
X113596131Y-91243918D01*
X113843051Y-90997429D01*
X113976847Y-90675211D01*
X113977151Y-90326319D01*
X113843918Y-90003869D01*
X113597429Y-89756949D01*
X113344683Y-89652000D01*
X113929932Y-89652000D01*
X114148000Y-89870068D01*
X114148000Y-90399995D01*
X114147999Y-90400000D01*
X114178235Y-90552001D01*
X114197631Y-90649510D01*
X114306770Y-90812849D01*
X114322968Y-90837091D01*
X114322849Y-90973681D01*
X114456082Y-91296131D01*
X114702571Y-91543051D01*
X115024789Y-91676847D01*
X115373681Y-91677151D01*
X115696131Y-91543918D01*
X115943051Y-91297429D01*
X116076847Y-90975211D01*
X116077151Y-90626319D01*
X115943918Y-90303869D01*
X115697429Y-90056949D01*
X115452000Y-89955038D01*
X115452000Y-89600000D01*
X115446765Y-89573681D01*
X118722849Y-89573681D01*
X118856082Y-89896131D01*
X119102571Y-90143051D01*
X119424789Y-90276847D01*
X119773681Y-90277151D01*
X120096131Y-90143918D01*
X120161864Y-90078300D01*
X122115665Y-90078300D01*
X122163488Y-92646044D01*
X122156949Y-92652571D01*
X122023153Y-92974789D01*
X122022849Y-93323681D01*
X122156082Y-93646131D01*
X122402571Y-93893051D01*
X122724789Y-94026847D01*
X123073681Y-94027151D01*
X123396131Y-93893918D01*
X123643051Y-93647429D01*
X123776847Y-93325211D01*
X123777151Y-92976319D01*
X123643918Y-92653869D01*
X123617391Y-92627296D01*
X123557056Y-89387772D01*
X123506512Y-86673956D01*
X123513051Y-86667429D01*
X123646847Y-86345211D01*
X123647115Y-86037498D01*
X123702571Y-86093051D01*
X124024789Y-86226847D01*
X124373681Y-86227151D01*
X124692596Y-86095379D01*
X128313185Y-86557582D01*
X129935521Y-96500322D01*
X130097821Y-100024554D01*
X129973153Y-100324789D01*
X129972849Y-100673681D01*
X130106082Y-100996131D01*
X130352571Y-101243051D01*
X130674789Y-101376847D01*
X131023681Y-101377151D01*
X131346131Y-101243918D01*
X131593051Y-100997429D01*
X131726847Y-100675211D01*
X131727151Y-100326319D01*
X131625657Y-100080683D01*
X131667748Y-100102007D01*
X131732599Y-100106959D01*
X133017644Y-100653104D01*
X133056082Y-100746131D01*
X133302571Y-100993051D01*
X133624789Y-101126847D01*
X133973681Y-101127151D01*
X134296131Y-100993918D01*
X134543051Y-100747429D01*
X134676847Y-100425211D01*
X134677151Y-100076319D01*
X134594794Y-99877000D01*
X134836635Y-99877000D01*
X134902571Y-99943051D01*
X135224789Y-100076847D01*
X135573681Y-100077151D01*
X135896131Y-99943918D01*
X136143051Y-99697429D01*
X136276847Y-99375211D01*
X136277151Y-99026319D01*
X136143918Y-98703869D01*
X135897429Y-98456949D01*
X135644921Y-98352099D01*
X135676847Y-98275211D01*
X135677127Y-97953681D01*
X144882849Y-97953681D01*
X145016082Y-98276131D01*
X145262571Y-98523051D01*
X145584789Y-98656847D01*
X145933681Y-98657151D01*
X146256131Y-98523918D01*
X146503051Y-98277429D01*
X146636847Y-97955211D01*
X146636885Y-97912000D01*
X149699995Y-97912000D01*
X149700000Y-97912001D01*
X149908113Y-97870604D01*
X149949510Y-97862369D01*
X150161034Y-97721034D01*
X150484935Y-97397133D01*
X150596082Y-97666131D01*
X150842571Y-97913051D01*
X151164789Y-98046847D01*
X151513681Y-98047151D01*
X151836131Y-97913918D01*
X151928210Y-97822000D01*
X152889932Y-97822000D01*
X153132961Y-98065029D01*
X153132849Y-98193681D01*
X153266082Y-98516131D01*
X153512571Y-98763051D01*
X153834789Y-98896847D01*
X154183681Y-98897151D01*
X154506131Y-98763918D01*
X154753051Y-98517429D01*
X154886847Y-98195211D01*
X154887151Y-97846319D01*
X154753918Y-97523869D01*
X154507429Y-97276949D01*
X154185211Y-97143153D01*
X154055107Y-97143040D01*
X153621034Y-96708966D01*
X153582249Y-96683051D01*
X153409510Y-96567631D01*
X153368113Y-96559396D01*
X153160000Y-96517999D01*
X153159995Y-96518000D01*
X151928321Y-96518000D01*
X151837429Y-96426949D01*
X151567289Y-96314778D01*
X151780067Y-96102000D01*
X153961679Y-96102000D01*
X154052571Y-96193051D01*
X154374789Y-96326847D01*
X154723681Y-96327151D01*
X155046131Y-96193918D01*
X155293051Y-95947429D01*
X155426847Y-95625211D01*
X155427151Y-95276319D01*
X155424361Y-95269566D01*
X155426962Y-95257176D01*
X155453259Y-92776464D01*
X155754638Y-92566934D01*
X156003681Y-92567151D01*
X156326131Y-92433918D01*
X156573051Y-92187429D01*
X156706847Y-91865211D01*
X156707151Y-91516319D01*
X156573918Y-91193869D01*
X156327429Y-90946949D01*
X156005211Y-90813153D01*
X155656319Y-90812849D01*
X155333869Y-90946082D01*
X155086949Y-91192571D01*
X154976335Y-91458961D01*
X154393544Y-91864139D01*
X154354044Y-91905126D01*
X154306390Y-91936242D01*
X154263268Y-91999320D01*
X154210243Y-92054342D01*
X154189437Y-92107321D01*
X154157315Y-92154308D01*
X154141614Y-92229091D01*
X154113682Y-92300213D01*
X154114733Y-92357120D01*
X154103038Y-92412824D01*
X154078837Y-94695765D01*
X154053869Y-94706082D01*
X153961790Y-94798000D01*
X151510005Y-94798000D01*
X151510000Y-94797999D01*
X151260491Y-94847630D01*
X151260489Y-94847631D01*
X151260490Y-94847631D01*
X151048966Y-94988966D01*
X151048964Y-94988969D01*
X149429932Y-96608000D01*
X146280000Y-96608000D01*
X146030490Y-96657631D01*
X145907811Y-96739602D01*
X145818966Y-96798966D01*
X145714971Y-96902961D01*
X145586319Y-96902849D01*
X145263869Y-97036082D01*
X145016949Y-97282571D01*
X144883153Y-97604789D01*
X144882849Y-97953681D01*
X135677127Y-97953681D01*
X135677151Y-97926319D01*
X135543918Y-97603869D01*
X135297429Y-97356949D01*
X134975211Y-97223153D01*
X134626319Y-97222849D01*
X134449514Y-97295903D01*
X134093048Y-97177081D01*
X134173681Y-97177151D01*
X134496131Y-97043918D01*
X134743051Y-96797429D01*
X134876847Y-96475211D01*
X134877151Y-96126319D01*
X134743918Y-95803869D01*
X134585581Y-95645255D01*
X134545770Y-95273681D01*
X134922849Y-95273681D01*
X135056082Y-95596131D01*
X135302571Y-95843051D01*
X135624789Y-95976847D01*
X135973681Y-95977151D01*
X136296131Y-95843918D01*
X136543051Y-95597429D01*
X136676847Y-95275211D01*
X136677151Y-94926319D01*
X136543918Y-94603869D01*
X136497559Y-94557429D01*
X136555815Y-92984512D01*
X136643051Y-92897429D01*
X136776847Y-92575211D01*
X136777151Y-92226319D01*
X136643918Y-91903869D01*
X136397429Y-91656949D01*
X136075211Y-91523153D01*
X135726319Y-91522849D01*
X135403869Y-91656082D01*
X135156949Y-91902571D01*
X135023153Y-92224789D01*
X135022849Y-92573681D01*
X135156082Y-92896131D01*
X135202441Y-92942571D01*
X135144185Y-94515488D01*
X135056949Y-94602571D01*
X134923153Y-94924789D01*
X134922849Y-95273681D01*
X134545770Y-95273681D01*
X134198290Y-92030540D01*
X134193095Y-92013929D01*
X134193739Y-91996542D01*
X133770781Y-89364802D01*
X133799789Y-89376847D01*
X134148681Y-89377151D01*
X134290181Y-89318685D01*
X136297490Y-90086699D01*
X137166523Y-93654309D01*
X137190030Y-93704858D01*
X137201801Y-93759349D01*
X137243157Y-93819099D01*
X137273796Y-93884984D01*
X137314856Y-93922688D01*
X137346585Y-93968529D01*
X140022949Y-96558559D01*
X140022849Y-96673681D01*
X140156082Y-96996131D01*
X140402571Y-97243051D01*
X140724789Y-97376847D01*
X141073681Y-97377151D01*
X141396131Y-97243918D01*
X141643051Y-96997429D01*
X141776847Y-96675211D01*
X141777151Y-96326319D01*
X141643918Y-96003869D01*
X141397429Y-95756949D01*
X141075211Y-95623153D01*
X140931357Y-95623028D01*
X138388866Y-93162553D01*
X137510308Y-89555840D01*
X137516635Y-89556789D01*
X137702571Y-89743051D01*
X138024789Y-89876847D01*
X138323020Y-89877107D01*
X138322849Y-90073681D01*
X138456082Y-90396131D01*
X138702571Y-90643051D01*
X139024789Y-90776847D01*
X139373681Y-90777151D01*
X139696131Y-90643918D01*
X139943051Y-90397429D01*
X140076847Y-90075211D01*
X140077151Y-89726319D01*
X139943918Y-89403869D01*
X139697429Y-89156949D01*
X139652000Y-89138085D01*
X139652000Y-88600000D01*
X139631613Y-88497507D01*
X139618542Y-88393819D01*
X139606939Y-88373464D01*
X139602369Y-88350490D01*
X139544310Y-88263598D01*
X139492556Y-88172809D01*
X139474051Y-88158447D01*
X139461034Y-88138966D01*
X139374138Y-88080904D01*
X139291583Y-88016833D01*
X138491583Y-87616833D01*
X138422704Y-87597971D01*
X138358133Y-87567467D01*
X136948546Y-87215070D01*
X136943918Y-87203869D01*
X136697429Y-86956949D01*
X136375211Y-86823153D01*
X136026319Y-86822849D01*
X135703869Y-86956082D01*
X135456949Y-87202571D01*
X135337295Y-87490731D01*
X135048774Y-87326706D01*
X134361034Y-86638966D01*
X134361031Y-86638964D01*
X133581802Y-85859735D01*
X133221708Y-84573681D01*
X133922849Y-84573681D01*
X134056082Y-84896131D01*
X134229155Y-85069507D01*
X134123153Y-85324789D01*
X134122849Y-85673681D01*
X134256082Y-85996131D01*
X134502571Y-86243051D01*
X134824789Y-86376847D01*
X135173681Y-86377151D01*
X135496131Y-86243918D01*
X135575931Y-86164257D01*
X136777994Y-86022838D01*
X142898174Y-85422368D01*
X143149789Y-85526847D01*
X143498681Y-85527151D01*
X143821131Y-85393918D01*
X144068051Y-85147429D01*
X144201847Y-84825211D01*
X144202150Y-84477002D01*
X144373681Y-84477151D01*
X144616066Y-84377000D01*
X150578156Y-84377000D01*
X151780588Y-85579432D01*
X152032665Y-85747864D01*
X152053081Y-85751925D01*
X152350578Y-86049422D01*
X152602655Y-86217854D01*
X152900000Y-86277000D01*
X155136199Y-86277000D01*
X155206082Y-86446131D01*
X155452571Y-86693051D01*
X155774789Y-86826847D01*
X156123681Y-86827151D01*
X156446131Y-86693918D01*
X156693051Y-86447429D01*
X156826847Y-86125211D01*
X156827151Y-85776319D01*
X156804957Y-85722606D01*
X157566464Y-86407193D01*
X157611067Y-87098547D01*
X157556949Y-87152571D01*
X157423153Y-87474789D01*
X157422849Y-87823681D01*
X157556082Y-88146131D01*
X157661340Y-88251574D01*
X158002414Y-91278601D01*
X158003329Y-91281471D01*
X158003101Y-91284473D01*
X158098077Y-92068021D01*
X157983153Y-92344789D01*
X157982849Y-92693681D01*
X158116082Y-93016131D01*
X158142614Y-93042709D01*
X158220585Y-97227203D01*
X154125329Y-102518827D01*
X150951008Y-103057002D01*
X150461853Y-103048108D01*
X150365793Y-103065407D01*
X150268537Y-103073761D01*
X150241477Y-103087794D01*
X150211482Y-103093195D01*
X150129354Y-103145937D01*
X150078027Y-103172553D01*
X148029029Y-103388604D01*
X147997429Y-103356949D01*
X147675211Y-103223153D01*
X147326319Y-103222849D01*
X147003869Y-103356082D01*
X146756949Y-103602571D01*
X146623153Y-103924789D01*
X146622849Y-104273681D01*
X146756082Y-104596131D01*
X147002571Y-104843051D01*
X147324789Y-104976847D01*
X147673681Y-104977151D01*
X147996131Y-104843918D01*
X148153630Y-104686694D01*
X150508369Y-104438405D01*
X150563713Y-104421200D01*
X150621463Y-104416239D01*
X150684019Y-104383800D01*
X150751299Y-104362884D01*
X150757529Y-104357699D01*
X150988148Y-104361892D01*
X151048095Y-104351097D01*
X151108985Y-104352827D01*
X154588985Y-103762827D01*
X154657545Y-103736684D01*
X154729509Y-103722369D01*
X154775268Y-103691794D01*
X154826688Y-103672187D01*
X154880022Y-103621800D01*
X154941034Y-103581034D01*
X154961033Y-103561034D01*
X154984182Y-103526389D01*
X155015622Y-103499046D01*
X159213716Y-98074543D01*
X159228211Y-98071660D01*
X159464067Y-97914067D01*
X159621660Y-97678211D01*
X159677000Y-97400000D01*
X159677000Y-97350000D01*
X159675655Y-97343240D01*
X159676874Y-97336455D01*
X159596517Y-93023952D01*
X159603051Y-93017429D01*
X159736847Y-92695211D01*
X159737151Y-92346319D01*
X159603918Y-92023869D01*
X159493607Y-91913365D01*
X159397259Y-91118499D01*
X159058342Y-88110605D01*
X159176847Y-87825211D01*
X159177151Y-87476319D01*
X159043918Y-87153869D01*
X158912878Y-87022600D01*
X158850647Y-86058023D01*
X158818797Y-85938669D01*
X158788266Y-85818847D01*
X158786021Y-85815845D01*
X158785055Y-85812226D01*
X158709905Y-85714080D01*
X158635894Y-85615129D01*
X156713895Y-83887271D01*
X156719191Y-83790116D01*
X156618588Y-83504124D01*
X156416200Y-83278400D01*
X156142837Y-83147310D01*
X155840115Y-83130809D01*
X153445134Y-83472949D01*
X153405219Y-83456375D01*
X152099422Y-82150578D01*
X151847345Y-81982146D01*
X151550000Y-81923000D01*
X144500000Y-81923000D01*
X144486342Y-81925717D01*
X144472594Y-81923483D01*
X141802923Y-82017707D01*
X141575211Y-81923153D01*
X141226319Y-81922849D01*
X140903869Y-82056082D01*
X140656949Y-82302571D01*
X140523153Y-82624789D01*
X140522849Y-82973681D01*
X140599962Y-83160309D01*
X135236844Y-83631792D01*
X134975211Y-83523153D01*
X134626319Y-83522849D01*
X134303869Y-83656082D01*
X134056949Y-83902571D01*
X133923153Y-84224789D01*
X133922849Y-84573681D01*
X133221708Y-84573681D01*
X132927853Y-83524201D01*
X132878270Y-83426436D01*
X132834139Y-83326103D01*
X132614738Y-83012673D01*
X132602369Y-82950490D01*
X132461034Y-82738966D01*
X132461031Y-82738964D01*
X132361034Y-82638966D01*
X132361031Y-82638964D01*
X131861034Y-82138966D01*
X131798869Y-82097429D01*
X131649510Y-81997631D01*
X131595296Y-81986847D01*
X131407482Y-81949487D01*
X131476999Y-81600000D01*
X131322704Y-80824300D01*
X130883305Y-80166694D01*
X130283305Y-79566695D01*
X129625700Y-79127296D01*
X129497003Y-79101697D01*
X128850000Y-78973000D01*
X128650000Y-78973000D01*
X127874301Y-79127296D01*
X127216695Y-79566695D01*
X126777296Y-80224301D01*
X126623000Y-81000000D01*
X126777296Y-81775699D01*
X127216695Y-82433305D01*
X127819429Y-82836040D01*
X127942581Y-82959192D01*
X127239473Y-82799417D01*
X126997429Y-82556949D01*
X126675211Y-82423153D01*
X126326319Y-82422849D01*
X126003869Y-82556082D01*
X125756949Y-82802571D01*
X125623153Y-83124789D01*
X125622849Y-83473681D01*
X125676554Y-83603657D01*
X125505116Y-83564999D01*
X125297429Y-83356949D01*
X124975211Y-83223153D01*
X124626319Y-83222849D01*
X124303869Y-83356082D01*
X124056949Y-83602571D01*
X123923153Y-83924789D01*
X123922849Y-84273681D01*
X124008231Y-84480323D01*
X123703869Y-84606082D01*
X123456949Y-84852571D01*
X123323153Y-85174789D01*
X123322885Y-85482502D01*
X123267429Y-85426949D01*
X122945211Y-85293153D01*
X122596319Y-85292849D01*
X122273869Y-85426082D01*
X122026949Y-85672571D01*
X121893153Y-85994789D01*
X121892849Y-86343681D01*
X122026082Y-86666131D01*
X122052609Y-86692704D01*
X122090447Y-88724300D01*
X120164662Y-88724300D01*
X120097429Y-88656949D01*
X119775211Y-88523153D01*
X119426319Y-88522849D01*
X119103869Y-88656082D01*
X118856949Y-88902571D01*
X118723153Y-89224789D01*
X118722849Y-89573681D01*
X115446765Y-89573681D01*
X115402369Y-89350490D01*
X115261034Y-89138966D01*
X114661034Y-88538966D01*
X114449510Y-88397631D01*
X114408113Y-88389396D01*
X114200000Y-88347999D01*
X114199995Y-88348000D01*
X112099035Y-88348000D01*
X115561075Y-87567344D01*
X115824789Y-87676847D01*
X116173681Y-87677151D01*
X116496131Y-87543918D01*
X116743051Y-87297429D01*
X116876847Y-86975211D01*
X116877151Y-86626319D01*
X116743918Y-86303869D01*
X116497429Y-86056949D01*
X116175211Y-85923153D01*
X115826319Y-85922849D01*
X115503869Y-86056082D01*
X115261337Y-86298191D01*
X111847400Y-87068000D01*
X111002315Y-87068000D01*
X110973219Y-86997583D01*
X110614307Y-86638043D01*
X110145125Y-86443222D01*
X109637103Y-86442779D01*
X109167583Y-86636781D01*
X108808043Y-86995693D01*
X108613222Y-87464875D01*
X108612779Y-87972897D01*
X108767769Y-88348000D01*
X108462315Y-88348000D01*
X108433219Y-88277583D01*
X108074307Y-87918043D01*
X107620912Y-87729777D01*
X108072417Y-87543219D01*
X108431957Y-87184307D01*
X108626778Y-86715125D01*
X108627144Y-86294923D01*
X108670067Y-86252000D01*
X112050142Y-86252000D01*
X112713978Y-86354129D01*
X112902571Y-86543051D01*
X113224789Y-86676847D01*
X113573681Y-86677151D01*
X113896131Y-86543918D01*
X114143051Y-86297429D01*
X114276847Y-85975211D01*
X114277151Y-85626319D01*
X114143918Y-85303869D01*
X113897429Y-85056949D01*
X113575211Y-84923153D01*
X113226319Y-84922849D01*
X112903869Y-85056082D01*
X112896995Y-85062944D01*
X112199141Y-84955582D01*
X112149115Y-84957770D01*
X112100000Y-84948000D01*
X108400005Y-84948000D01*
X108400000Y-84947999D01*
X108150491Y-84997630D01*
X108122244Y-85016504D01*
X107938966Y-85138966D01*
X107938964Y-85138969D01*
X107809745Y-85268188D01*
X107605125Y-85183222D01*
X107097103Y-85182779D01*
X106627583Y-85376781D01*
X106268043Y-85735693D01*
X106073222Y-86204875D01*
X106072779Y-86712897D01*
X102647560Y-86712897D01*
X102955393Y-86405602D01*
X103283705Y-85614937D01*
X103284453Y-84758819D01*
X102957520Y-83967583D01*
X102379042Y-83388093D01*
X102872796Y-83388093D01*
X103051606Y-83820846D01*
X103382412Y-84152230D01*
X103814853Y-84331795D01*
X104283093Y-84332204D01*
X104715846Y-84153394D01*
X105047230Y-83822588D01*
X105226795Y-83390147D01*
X105227204Y-82921907D01*
X105048394Y-82489154D01*
X104717588Y-82157770D01*
X104285147Y-81978205D01*
X103816907Y-81977796D01*
X103384154Y-82156606D01*
X103052770Y-82487412D01*
X102873205Y-82919853D01*
X102872796Y-83388093D01*
X102379042Y-83388093D01*
X102352682Y-83361687D01*
X101562017Y-83033375D01*
X100705899Y-83032627D01*
X99914663Y-83359560D01*
X99308767Y-83964398D01*
X98980455Y-84755063D01*
X98979707Y-85611181D01*
X95512827Y-85611181D01*
X95511226Y-85413235D01*
X95844875Y-85551778D01*
X96352897Y-85552221D01*
X96822417Y-85358219D01*
X97181957Y-84999307D01*
X97376778Y-84530125D01*
X97377221Y-84022103D01*
X97183219Y-83552583D01*
X96824307Y-83193043D01*
X96355125Y-82998222D01*
X95847103Y-82997779D01*
X95377583Y-83191781D01*
X95018043Y-83550693D01*
X94998399Y-83598000D01*
X94825000Y-83598000D01*
X94822265Y-83598544D01*
X94819526Y-83598022D01*
X94692803Y-83624296D01*
X94565923Y-83649534D01*
X94563605Y-83651083D01*
X94560874Y-83651649D01*
X94453886Y-83724395D01*
X94346289Y-83796289D01*
X94344739Y-83798609D01*
X94342434Y-83800176D01*
X94271449Y-83908295D01*
X94199534Y-84015923D01*
X94198990Y-84018659D01*
X94197460Y-84020989D01*
X94173247Y-84148077D01*
X94148000Y-84275000D01*
X94148544Y-84277735D01*
X94148022Y-84280474D01*
X94163000Y-86132754D01*
X94163000Y-101930000D01*
X94179561Y-102013258D01*
X94184181Y-102098018D01*
X94205097Y-102141634D01*
X94214534Y-102189077D01*
X94261694Y-102259657D01*
X94298400Y-102336200D01*
X95108400Y-103416200D01*
X95146148Y-103450045D01*
X95174602Y-103492001D01*
X95240978Y-103535693D01*
X94237152Y-103550542D01*
X94029801Y-103343191D01*
X93850388Y-82455704D01*
X93947000Y-81970000D01*
X93947000Y-80963625D01*
X94132704Y-80685699D01*
X94287000Y-79910000D01*
X94132704Y-79134300D01*
X93693306Y-78476694D01*
X93035700Y-78037296D01*
X92260000Y-77883000D01*
X91484301Y-78037296D01*
X90826695Y-78476694D01*
X90486695Y-78816695D01*
X90217000Y-79220321D01*
X90217000Y-72691660D01*
X90632675Y-72691660D01*
X90917829Y-73381786D01*
X91445376Y-73910256D01*
X92135004Y-74196614D01*
X92881720Y-74197265D01*
X93571846Y-73912111D01*
X94100316Y-73384564D01*
X94386674Y-72694936D01*
X94387325Y-71948220D01*
X94102171Y-71258094D01*
X93574624Y-70729624D01*
X92884996Y-70443266D01*
X92138280Y-70442615D01*
X91448154Y-70727769D01*
X90919684Y-71255316D01*
X90633326Y-71944944D01*
X90632675Y-72691660D01*
X90217000Y-72691660D01*
X90217000Y-68609610D01*
X91589611Y-67237000D01*
X92820000Y-67237000D01*
X93472067Y-67107296D01*
X93595700Y-67082704D01*
X94253305Y-66643305D01*
X95949610Y-64947000D01*
X95979940Y-64947000D01*
X96755639Y-64792704D01*
X97413245Y-64353305D01*
X97453060Y-64293718D01*
X97453060Y-69110060D01*
X97570543Y-69700688D01*
X97607356Y-69885760D01*
X98046755Y-70543365D01*
X102772676Y-75269287D01*
X102772676Y-75340000D01*
X102809423Y-75535294D01*
X102924842Y-75714660D01*
X103100951Y-75834990D01*
X103310000Y-75877324D01*
X103531691Y-75877324D01*
X103734300Y-76012703D01*
X104510000Y-76166999D01*
X105285699Y-76012703D01*
X105488308Y-75877324D01*
X105710000Y-75877324D01*
X105905294Y-75840577D01*
X106084660Y-75725158D01*
X106204990Y-75549049D01*
X106247324Y-75340000D01*
X106247324Y-75118308D01*
X106382703Y-74915699D01*
X106536999Y-74140000D01*
X106382703Y-73364300D01*
X106247324Y-73161691D01*
X106247324Y-72940000D01*
X106210577Y-72744706D01*
X106095158Y-72565340D01*
X105919049Y-72445010D01*
X105710000Y-72402676D01*
X105639287Y-72402676D01*
X103263610Y-70027000D01*
X104500000Y-70027000D01*
X105275699Y-69872704D01*
X105933305Y-69433305D01*
X106133577Y-69133578D01*
X106433305Y-68933305D01*
X108883365Y-66483246D01*
X109322764Y-65825640D01*
X109348363Y-65696943D01*
X109477060Y-65049940D01*
X109477060Y-62750000D01*
X109322764Y-61974301D01*
X108883365Y-61316695D01*
X108225759Y-60877296D01*
X107450060Y-60723000D01*
X106674361Y-60877296D01*
X106016755Y-61316695D01*
X105577356Y-61974301D01*
X105423060Y-62750000D01*
X105423060Y-64210329D01*
X103660390Y-65973000D01*
X103000000Y-65973000D01*
X102224301Y-66127296D01*
X101566695Y-66566695D01*
X101507060Y-66655945D01*
X101507060Y-61239550D01*
X103389610Y-59357000D01*
X111480390Y-59357000D01*
X113423060Y-61299671D01*
X113423060Y-62800000D01*
X113577356Y-63575699D01*
X114016755Y-64233305D01*
X114674361Y-64672704D01*
X115450060Y-64827000D01*
X116225759Y-64672704D01*
X116883365Y-64233305D01*
X117322764Y-63575699D01*
X117467114Y-62850000D01*
X121473060Y-62850000D01*
X121473060Y-63500060D01*
X121567134Y-63973000D01*
X121627356Y-64275760D01*
X122066755Y-64933365D01*
X123973000Y-66839610D01*
X123973000Y-71000000D01*
X124127296Y-71775699D01*
X124566695Y-72433305D01*
X125224301Y-72872704D01*
X126000000Y-73027000D01*
X126775699Y-72872704D01*
X127433305Y-72433305D01*
X127872704Y-71775699D01*
X128027000Y-71000000D01*
X128027000Y-66000000D01*
X127881560Y-65268824D01*
X127872704Y-65224300D01*
X127433305Y-64566695D01*
X125479994Y-62613384D01*
X125372764Y-62074301D01*
X124933365Y-61416695D01*
X124275759Y-60977296D01*
X123500060Y-60823000D01*
X122724361Y-60977296D01*
X122066755Y-61416695D01*
X121627356Y-62074301D01*
X121473060Y-62850000D01*
X117467114Y-62850000D01*
X117477060Y-62800000D01*
X117477060Y-60460060D01*
X117322764Y-59684361D01*
X117322764Y-59684360D01*
X117164058Y-59446840D01*
X126127883Y-59446840D01*
X126033248Y-59674747D01*
X126032752Y-60242443D01*
X126249543Y-60767115D01*
X126650614Y-61168887D01*
X127174907Y-61386592D01*
X127348313Y-61386744D01*
X128191174Y-62420233D01*
X129176129Y-75010102D01*
X129219763Y-75165091D01*
X129251176Y-75323016D01*
X129273723Y-75356759D01*
X129284720Y-75395823D01*
X129384343Y-75522315D01*
X129473801Y-75656199D01*
X130093801Y-76276198D01*
X130208743Y-76353000D01*
X124862177Y-76353000D01*
X118909993Y-70657950D01*
X118750385Y-70556326D01*
X118593016Y-70451176D01*
X118581705Y-70448926D01*
X118571978Y-70442733D01*
X118385608Y-70409920D01*
X118200000Y-70373000D01*
X117800000Y-70373000D01*
X117406984Y-70451176D01*
X117073801Y-70673801D01*
X116851176Y-71006984D01*
X116773000Y-71400000D01*
X116851176Y-71793016D01*
X117073801Y-72126199D01*
X117406984Y-72348824D01*
X117784627Y-72423942D01*
X123740006Y-78122050D01*
X123899626Y-78223681D01*
X124056984Y-78328824D01*
X124068295Y-78331074D01*
X124078022Y-78337267D01*
X124264392Y-78370080D01*
X124450000Y-78407000D01*
X133900000Y-78407000D01*
X134293016Y-78328824D01*
X134626199Y-78106199D01*
X134848824Y-77773016D01*
X134927000Y-77380000D01*
X134848824Y-76986984D01*
X134626199Y-76653801D01*
X134293016Y-76431176D01*
X133900000Y-76353000D01*
X131431256Y-76353000D01*
X131546198Y-76276198D01*
X131768824Y-75943015D01*
X131847000Y-75550000D01*
X131768824Y-75156984D01*
X131546198Y-74823801D01*
X131194299Y-74471901D01*
X131086476Y-73093681D01*
X147652849Y-73093681D01*
X147786082Y-73416131D01*
X148032571Y-73663051D01*
X148354789Y-73796847D01*
X148409473Y-73796895D01*
X150892930Y-76280353D01*
X150892849Y-76373681D01*
X151026082Y-76696131D01*
X151272571Y-76943051D01*
X151594789Y-77076847D01*
X151943681Y-77077151D01*
X152266131Y-76943918D01*
X152513051Y-76697429D01*
X152646847Y-76375211D01*
X152646883Y-76333974D01*
X160501563Y-84693258D01*
X160514779Y-84702696D01*
X160523801Y-84716199D01*
X160677363Y-84818806D01*
X160827660Y-84926140D01*
X160843482Y-84929802D01*
X160856984Y-84938824D01*
X161038102Y-84974851D01*
X161218054Y-85016504D01*
X161234075Y-85013832D01*
X161250000Y-85017000D01*
X168371449Y-85017000D01*
X169353000Y-85690727D01*
X169353000Y-87090000D01*
X169431176Y-87483016D01*
X169653801Y-87816199D01*
X172933799Y-91096196D01*
X172933801Y-91096199D01*
X173234964Y-91297429D01*
X173266984Y-91318824D01*
X173660000Y-91397000D01*
X176360000Y-91397000D01*
X176753016Y-91318824D01*
X177086199Y-91096199D01*
X178116199Y-90066199D01*
X178338824Y-89733016D01*
X178417000Y-89340000D01*
X178338824Y-88946984D01*
X178116199Y-88613801D01*
X177783016Y-88391176D01*
X177390000Y-88313000D01*
X176996984Y-88391176D01*
X176663801Y-88613801D01*
X175934602Y-89343000D01*
X174085397Y-89343000D01*
X171407000Y-86664602D01*
X171407000Y-85150000D01*
X171388506Y-85057027D01*
X171389690Y-84962233D01*
X171349795Y-84862411D01*
X171328824Y-84756984D01*
X171276157Y-84678163D01*
X171240976Y-84590135D01*
X171165922Y-84513183D01*
X171106199Y-84423801D01*
X171027375Y-84371133D01*
X170961187Y-84303271D01*
X169271187Y-83143271D01*
X169172397Y-83100899D01*
X169083016Y-83041176D01*
X168990037Y-83022681D01*
X168902917Y-82985314D01*
X168795431Y-82983972D01*
X168690000Y-82963000D01*
X161694238Y-82963000D01*
X154027000Y-74803201D01*
X154027000Y-71360440D01*
X154118824Y-71223016D01*
X154197000Y-70830000D01*
X154118824Y-70436985D01*
X153896198Y-70103802D01*
X153563015Y-69881176D01*
X153170000Y-69803000D01*
X152776984Y-69881176D01*
X152443801Y-70103802D01*
X152273801Y-70273801D01*
X152051176Y-70606984D01*
X151973000Y-71000000D01*
X151973000Y-75210000D01*
X152000036Y-75345918D01*
X151945211Y-75323153D01*
X151850493Y-75323070D01*
X149407035Y-72879613D01*
X149407151Y-72746319D01*
X149273918Y-72423869D01*
X149027429Y-72176949D01*
X148705211Y-72043153D01*
X148356319Y-72042849D01*
X148033869Y-72176082D01*
X147786949Y-72422571D01*
X147653153Y-72744789D01*
X147652849Y-73093681D01*
X131086476Y-73093681D01*
X130325754Y-63370000D01*
X149013000Y-63370000D01*
X149013000Y-63700000D01*
X149136326Y-64320000D01*
X149167296Y-64475700D01*
X149331045Y-64720766D01*
X149339423Y-64765294D01*
X149454842Y-64944660D01*
X149502324Y-64977103D01*
X149606695Y-65133305D01*
X154886695Y-70413306D01*
X155360099Y-70729624D01*
X155544301Y-70852704D01*
X156320000Y-71007000D01*
X158550390Y-71007000D01*
X160462676Y-72919287D01*
X160462676Y-76590000D01*
X160499423Y-76785294D01*
X160614842Y-76964660D01*
X160790951Y-77084990D01*
X161000000Y-77127324D01*
X166800000Y-77127324D01*
X166995294Y-77090577D01*
X167174660Y-76975158D01*
X167294990Y-76799049D01*
X167337324Y-76590000D01*
X167337324Y-70390000D01*
X167300577Y-70194706D01*
X167185158Y-70015340D01*
X167009049Y-69895010D01*
X166800000Y-69852676D01*
X165927000Y-69852676D01*
X165927000Y-68400000D01*
X165772704Y-67624301D01*
X165772704Y-67624300D01*
X165333305Y-66966695D01*
X163797060Y-65430450D01*
X163797060Y-64520000D01*
X163642764Y-63744301D01*
X163203365Y-63086695D01*
X162545759Y-62647296D01*
X161770060Y-62493000D01*
X160994361Y-62647296D01*
X160336755Y-63086695D01*
X159948635Y-63667557D01*
X159862111Y-63458154D01*
X159334564Y-62929684D01*
X158644936Y-62643326D01*
X157898220Y-62642675D01*
X157208094Y-62927829D01*
X156679624Y-63455376D01*
X156393266Y-64145004D01*
X156392615Y-64891720D01*
X156677769Y-65581846D01*
X157205316Y-66110316D01*
X157894944Y-66396674D01*
X158641660Y-66397325D01*
X159331786Y-66112171D01*
X159743060Y-65701615D01*
X159743060Y-66270060D01*
X159853707Y-66826319D01*
X159897356Y-67045760D01*
X159903644Y-67055170D01*
X159390000Y-66953000D01*
X157159611Y-66953000D01*
X152940462Y-62733852D01*
X152912704Y-62594301D01*
X152777324Y-62391691D01*
X152777324Y-62170000D01*
X152740577Y-61974706D01*
X152625158Y-61795340D01*
X152449049Y-61675010D01*
X152240000Y-61632676D01*
X152018309Y-61632676D01*
X151815699Y-61497296D01*
X151040000Y-61343000D01*
X150264301Y-61497296D01*
X150061691Y-61632676D01*
X149840000Y-61632676D01*
X149644706Y-61669423D01*
X149465340Y-61784842D01*
X149345010Y-61960951D01*
X149302676Y-62170000D01*
X149302676Y-62391691D01*
X149167296Y-62594301D01*
X149013000Y-63370000D01*
X130325754Y-63370000D01*
X130213871Y-61939899D01*
X130184116Y-61834207D01*
X130173689Y-61724900D01*
X130130343Y-61643202D01*
X130105280Y-61554177D01*
X130037342Y-61467915D01*
X129985880Y-61370921D01*
X128886946Y-60023442D01*
X128887248Y-59677237D01*
X128792049Y-59446840D01*
X170630230Y-59446840D01*
X170881136Y-59697746D01*
X170775700Y-59627296D01*
X170000000Y-59473001D01*
X169224300Y-59627296D01*
X168566695Y-60066695D01*
X168127296Y-60724300D01*
X167973001Y-61500000D01*
X168033060Y-61801940D01*
X168033060Y-63138895D01*
X167624564Y-62729684D01*
X166934936Y-62443326D01*
X166188220Y-62442675D01*
X165498094Y-62727829D01*
X164969624Y-63255376D01*
X164683266Y-63945004D01*
X164682615Y-64691720D01*
X164967769Y-65381846D01*
X165495316Y-65910316D01*
X166184944Y-66196674D01*
X166931660Y-66197325D01*
X167621786Y-65912171D01*
X167973000Y-65561570D01*
X167973000Y-67000000D01*
X168033060Y-67301942D01*
X168033060Y-78100329D01*
X167066695Y-79066695D01*
X166627296Y-79724300D01*
X166473001Y-80500000D01*
X166627296Y-81275700D01*
X167066695Y-81933305D01*
X167724300Y-82372704D01*
X168500000Y-82526999D01*
X169275700Y-82372704D01*
X169933305Y-81933305D01*
X170608827Y-81257784D01*
X170835759Y-81212644D01*
X171493365Y-80773245D01*
X171932764Y-80115639D01*
X172087060Y-79339940D01*
X172087060Y-61560060D01*
X171932764Y-60784361D01*
X171905741Y-60743918D01*
X171862313Y-60678924D01*
X172483000Y-61299611D01*
X172483000Y-74500000D01*
X172571885Y-74946855D01*
X172637296Y-75275700D01*
X173076695Y-75933305D01*
X174363160Y-77219771D01*
X174363160Y-77457883D01*
X174135253Y-77363248D01*
X173567557Y-77362752D01*
X173042885Y-77579543D01*
X172641113Y-77980614D01*
X172423408Y-78504907D01*
X172422912Y-79072603D01*
X172639703Y-79597275D01*
X172823160Y-79781053D01*
X172823160Y-80669116D01*
X172791176Y-80716984D01*
X172713000Y-81110000D01*
X172791176Y-81503016D01*
X173013801Y-81836199D01*
X173346984Y-82058824D01*
X173740000Y-82137000D01*
X174133016Y-82058824D01*
X174466199Y-81836199D01*
X174576356Y-81726041D01*
X174576359Y-81726039D01*
X174798984Y-81392856D01*
X174831945Y-81227151D01*
X174873000Y-81020758D01*
X174873000Y-82330389D01*
X174340390Y-82863000D01*
X173770000Y-82863000D01*
X173155086Y-82985314D01*
X172994300Y-83017296D01*
X172336695Y-83456695D01*
X172186695Y-83606695D01*
X171747296Y-84264300D01*
X171593001Y-85040000D01*
X171747296Y-85815700D01*
X172186695Y-86473305D01*
X172844300Y-86912704D01*
X173620000Y-87066999D01*
X174374102Y-86917000D01*
X175180000Y-86917000D01*
X175827003Y-86788303D01*
X175955700Y-86762704D01*
X176613305Y-86323305D01*
X178333305Y-84603306D01*
X178658215Y-84117043D01*
X178772704Y-83945699D01*
X178927000Y-83170000D01*
X178927000Y-79299840D01*
X178772704Y-78524141D01*
X178594104Y-78256847D01*
X178417160Y-77992031D01*
X178417160Y-76380160D01*
X178328275Y-75933305D01*
X178262864Y-75604460D01*
X177823466Y-74946855D01*
X176537000Y-73660390D01*
X176537000Y-60460000D01*
X176522980Y-60389515D01*
X176850298Y-60717405D01*
X177595036Y-61026647D01*
X178401426Y-61027351D01*
X179146703Y-60719409D01*
X179717405Y-60149702D01*
X180026647Y-59404964D01*
X180027351Y-58598574D01*
X179719409Y-57853297D01*
X179149702Y-57282595D01*
X178404964Y-56973353D01*
X177598574Y-56972649D01*
X176853297Y-57280591D01*
X176282595Y-57850298D01*
X175973353Y-58595036D01*
X175972937Y-59071042D01*
X175943306Y-59026695D01*
X173043610Y-56127000D01*
X180873000Y-56127000D01*
X180873000Y-117873000D01*
G36*
X99107676Y-107650000D02*
X99107676Y-114390000D01*
X99115767Y-114433000D01*
X95869610Y-114433000D01*
X95727000Y-114290390D01*
X95727000Y-110770000D01*
X95572704Y-109994301D01*
X95538336Y-109942866D01*
X95133306Y-109336695D01*
X93413011Y-107616400D01*
X93424968Y-107614022D01*
X93439982Y-107616778D01*
X96306930Y-107574368D01*
X96358437Y-107611925D01*
X96747920Y-107706137D01*
X97143809Y-107644131D01*
X97227871Y-107592816D01*
X97450000Y-107637000D01*
X98500000Y-107637000D01*
X99135924Y-107510507D01*
X99107676Y-107650000D01*
X99107676Y-107650000D01*
G37*
X99107676Y-107650000D02*
X99107676Y-114390000D01*
X99115767Y-114433000D01*
X95869610Y-114433000D01*
X95727000Y-114290390D01*
X95727000Y-110770000D01*
X95572704Y-109994301D01*
X95538336Y-109942866D01*
X95133306Y-109336695D01*
X93413011Y-107616400D01*
X93424968Y-107614022D01*
X93439982Y-107616778D01*
X96306930Y-107574368D01*
X96358437Y-107611925D01*
X96747920Y-107706137D01*
X97143809Y-107644131D01*
X97227871Y-107592816D01*
X97450000Y-107637000D01*
X98500000Y-107637000D01*
X99135924Y-107510507D01*
X99107676Y-107650000D01*
G36*
X100316695Y-56696695D02*
X99910390Y-57103000D01*
X95570005Y-57103000D01*
X95570000Y-57102999D01*
X95242191Y-57168206D01*
X95176984Y-57181176D01*
X94843801Y-57403801D01*
X94843799Y-57403804D01*
X91623801Y-60623801D01*
X91401176Y-60956984D01*
X91323000Y-61350000D01*
X91401176Y-61743016D01*
X91623801Y-62076199D01*
X91956984Y-62298824D01*
X92350000Y-62377000D01*
X92743016Y-62298824D01*
X93076199Y-62076199D01*
X95995397Y-59157000D01*
X97919557Y-59157000D01*
X97607356Y-59624240D01*
X97595397Y-59684361D01*
X97453060Y-60399940D01*
X97453060Y-61546282D01*
X97413245Y-61486695D01*
X96755639Y-61047296D01*
X95979940Y-60893000D01*
X95110000Y-60893000D01*
X94462997Y-61021697D01*
X94334300Y-61047296D01*
X93676695Y-61486695D01*
X91980390Y-63183000D01*
X90750000Y-63183000D01*
X89974301Y-63337296D01*
X89316695Y-63776694D01*
X87127000Y-65966390D01*
X87127000Y-59401426D01*
X87972649Y-59401426D01*
X88280591Y-60146703D01*
X88850298Y-60717405D01*
X89595036Y-61026647D01*
X90401426Y-61027351D01*
X91146703Y-60719409D01*
X91717405Y-60149702D01*
X92026647Y-59404964D01*
X92027351Y-58598574D01*
X91719409Y-57853297D01*
X91149702Y-57282595D01*
X90404964Y-56973353D01*
X89598574Y-56972649D01*
X88853297Y-57280591D01*
X88282595Y-57850298D01*
X87973353Y-58595036D01*
X87972649Y-59401426D01*
X87127000Y-59401426D01*
X87127000Y-56127000D01*
X100886389Y-56127000D01*
X100316695Y-56696695D01*
X100316695Y-56696695D01*
G37*
X100316695Y-56696695D02*
X99910390Y-57103000D01*
X95570005Y-57103000D01*
X95570000Y-57102999D01*
X95242191Y-57168206D01*
X95176984Y-57181176D01*
X94843801Y-57403801D01*
X94843799Y-57403804D01*
X91623801Y-60623801D01*
X91401176Y-60956984D01*
X91323000Y-61350000D01*
X91401176Y-61743016D01*
X91623801Y-62076199D01*
X91956984Y-62298824D01*
X92350000Y-62377000D01*
X92743016Y-62298824D01*
X93076199Y-62076199D01*
X95995397Y-59157000D01*
X97919557Y-59157000D01*
X97607356Y-59624240D01*
X97595397Y-59684361D01*
X97453060Y-60399940D01*
X97453060Y-61546282D01*
X97413245Y-61486695D01*
X96755639Y-61047296D01*
X95979940Y-60893000D01*
X95110000Y-60893000D01*
X94462997Y-61021697D01*
X94334300Y-61047296D01*
X93676695Y-61486695D01*
X91980390Y-63183000D01*
X90750000Y-63183000D01*
X89974301Y-63337296D01*
X89316695Y-63776694D01*
X87127000Y-65966390D01*
X87127000Y-59401426D01*
X87972649Y-59401426D01*
X88280591Y-60146703D01*
X88850298Y-60717405D01*
X89595036Y-61026647D01*
X90401426Y-61027351D01*
X91146703Y-60719409D01*
X91717405Y-60149702D01*
X92026647Y-59404964D01*
X92027351Y-58598574D01*
X91719409Y-57853297D01*
X91149702Y-57282595D01*
X90404964Y-56973353D01*
X89598574Y-56972649D01*
X88853297Y-57280591D01*
X88282595Y-57850298D01*
X87973353Y-58595036D01*
X87972649Y-59401426D01*
X87127000Y-59401426D01*
X87127000Y-56127000D01*
X100886389Y-56127000D01*
X100316695Y-56696695D01*
G36*
X151773515Y-153273000D02*
X118928234Y-153273000D01*
X118995830Y-146281622D01*
X121772666Y-146281622D01*
X122065416Y-146990132D01*
X122607017Y-147532678D01*
X123315014Y-147826665D01*
X124081622Y-147827334D01*
X124790132Y-147534584D01*
X125332678Y-146992983D01*
X125626665Y-146284986D01*
X125627334Y-145518378D01*
X125334584Y-144809868D01*
X124792983Y-144267322D01*
X124084986Y-143973335D01*
X123318378Y-143972666D01*
X122609868Y-144265416D01*
X122067322Y-144807017D01*
X121773335Y-145515014D01*
X121772666Y-146281622D01*
X118995830Y-146281622D01*
X119026994Y-143058371D01*
X119017466Y-143008866D01*
X118989429Y-142966969D01*
X118947301Y-142939280D01*
X118897719Y-142930163D01*
X118848497Y-142941055D01*
X118807390Y-142970239D01*
X118780875Y-143013116D01*
X118773051Y-143053531D01*
X118476562Y-153473000D01*
X86677000Y-153473000D01*
X86677000Y-146831622D01*
X88572666Y-146831622D01*
X88865416Y-147540132D01*
X89407017Y-148082678D01*
X90115014Y-148376665D01*
X90881622Y-148377334D01*
X91590132Y-148084584D01*
X92132678Y-147542983D01*
X92322837Y-147085030D01*
X92322830Y-147093485D01*
X92471256Y-147452703D01*
X92745851Y-147727778D01*
X93104810Y-147876830D01*
X93493485Y-147877170D01*
X93852703Y-147728744D01*
X94127778Y-147454149D01*
X94276830Y-147095190D01*
X94277170Y-146706515D01*
X94277000Y-146706104D01*
X94277000Y-146693485D01*
X94322830Y-146693485D01*
X94471256Y-147052703D01*
X94745851Y-147327778D01*
X95104810Y-147476830D01*
X95213437Y-147476925D01*
X95768256Y-148031745D01*
X95878255Y-148105243D01*
X96012222Y-148194757D01*
X96300000Y-148252000D01*
X98523129Y-148252000D01*
X98523055Y-148335904D01*
X98405243Y-148512222D01*
X98348000Y-148800000D01*
X98348000Y-148948000D01*
X97795816Y-148948000D01*
X97495190Y-148823170D01*
X97106515Y-148822830D01*
X96747297Y-148971256D01*
X96472222Y-149245851D01*
X96323170Y-149604810D01*
X96322830Y-149993485D01*
X96471256Y-150352703D01*
X96745851Y-150627778D01*
X97104810Y-150776830D01*
X97493485Y-150777170D01*
X97852703Y-150628744D01*
X98029756Y-150452000D01*
X98470205Y-150452000D01*
X98545851Y-150527778D01*
X98904810Y-150676830D01*
X99293485Y-150677170D01*
X99652703Y-150528744D01*
X99927778Y-150254149D01*
X100076830Y-149895190D01*
X100077170Y-149506515D01*
X99975567Y-149260616D01*
X100052703Y-149228744D01*
X100327778Y-148954149D01*
X100370197Y-148851992D01*
X100445851Y-148927778D01*
X100804810Y-149076830D01*
X101193485Y-149077170D01*
X101552703Y-148928744D01*
X101827778Y-148654149D01*
X101976830Y-148295190D01*
X101977170Y-147906515D01*
X101828744Y-147547297D01*
X101554149Y-147272222D01*
X101195190Y-147123170D01*
X100890042Y-147122903D01*
X100517135Y-146874298D01*
X100449035Y-146846174D01*
X100427257Y-146831622D01*
X112572666Y-146831622D01*
X112865416Y-147540132D01*
X113407017Y-148082678D01*
X114115014Y-148376665D01*
X114881622Y-148377334D01*
X115590132Y-148084584D01*
X116132678Y-147542983D01*
X116426665Y-146834986D01*
X116427334Y-146068378D01*
X116134584Y-145359868D01*
X115592983Y-144817322D01*
X114884986Y-144523335D01*
X114118378Y-144522666D01*
X113409868Y-144815416D01*
X112867322Y-145357017D01*
X112573335Y-146065014D01*
X112572666Y-146831622D01*
X100427257Y-146831622D01*
X100387778Y-146805243D01*
X100314753Y-146790717D01*
X100245936Y-146762297D01*
X100172263Y-146762374D01*
X100100000Y-146748000D01*
X96611489Y-146748000D01*
X96277076Y-146413588D01*
X96277170Y-146306515D01*
X96128744Y-145947297D01*
X95854149Y-145672222D01*
X95495190Y-145523170D01*
X95106515Y-145522830D01*
X94747297Y-145671256D01*
X94472222Y-145945851D01*
X94323170Y-146304810D01*
X94322830Y-146693485D01*
X94277000Y-146693485D01*
X94277000Y-143863266D01*
X94363266Y-143777000D01*
X95383182Y-143777000D01*
X96603091Y-144996910D01*
X96968716Y-145241212D01*
X97400000Y-145327000D01*
X98100000Y-145327000D01*
X98531284Y-145241212D01*
X98896909Y-144996909D01*
X99141212Y-144631284D01*
X99227000Y-144200000D01*
X99141212Y-143768716D01*
X98896909Y-143403091D01*
X98531284Y-143158788D01*
X98100000Y-143073000D01*
X97866819Y-143073000D01*
X97312873Y-142519054D01*
X101632616Y-142519054D01*
X101969423Y-143334189D01*
X102592530Y-143958386D01*
X103407077Y-144296615D01*
X104289054Y-144297384D01*
X105104189Y-143960577D01*
X105728386Y-143337470D01*
X106066615Y-142522923D01*
X106067384Y-141640946D01*
X105730577Y-140825811D01*
X105107470Y-140201614D01*
X104292923Y-139863385D01*
X103410946Y-139862616D01*
X102595811Y-140199423D01*
X101971614Y-140822530D01*
X101633385Y-141637077D01*
X101632616Y-142519054D01*
X97312873Y-142519054D01*
X96896909Y-142103091D01*
X96531284Y-141858788D01*
X96100000Y-141773000D01*
X95668716Y-141858788D01*
X95422956Y-142023000D01*
X94000000Y-142023000D01*
X93664387Y-142089758D01*
X93379867Y-142279867D01*
X92779867Y-142879867D01*
X92589758Y-143164387D01*
X92523000Y-143500000D01*
X92523000Y-146295162D01*
X92472222Y-146345851D01*
X92426997Y-146454766D01*
X92427334Y-146068378D01*
X92134584Y-145359868D01*
X91592983Y-144817322D01*
X90884986Y-144523335D01*
X90118378Y-144522666D01*
X89409868Y-144815416D01*
X88867322Y-145357017D01*
X88573335Y-146065014D01*
X88572666Y-146831622D01*
X86677000Y-146831622D01*
X86677000Y-135387505D01*
X93482744Y-135387505D01*
X93707130Y-135930560D01*
X94122254Y-136346409D01*
X94166463Y-136364766D01*
X94124440Y-136382130D01*
X93708591Y-136797254D01*
X93483257Y-137339918D01*
X93482744Y-137927505D01*
X93707130Y-138470560D01*
X94122254Y-138886409D01*
X94166463Y-138904766D01*
X94124440Y-138922130D01*
X93708591Y-139337254D01*
X93483257Y-139879918D01*
X93482744Y-140467505D01*
X93707130Y-141010560D01*
X94122254Y-141426409D01*
X94664918Y-141651743D01*
X95252505Y-141652256D01*
X95795560Y-141427870D01*
X96211409Y-141012746D01*
X96436743Y-140470082D01*
X96437214Y-139930976D01*
X96662254Y-140156409D01*
X97204918Y-140381743D01*
X97792505Y-140382256D01*
X98335560Y-140157870D01*
X98751409Y-139742746D01*
X98976743Y-139200082D01*
X98977256Y-138612495D01*
X98752870Y-138069440D01*
X98337746Y-137653591D01*
X98293537Y-137635234D01*
X98335560Y-137617870D01*
X98751409Y-137202746D01*
X98976743Y-136660082D01*
X98977256Y-136072495D01*
X98859501Y-135787505D01*
X126032744Y-135787505D01*
X126257130Y-136330560D01*
X126672254Y-136746409D01*
X126716463Y-136764766D01*
X126674440Y-136782130D01*
X126258591Y-137197254D01*
X126033257Y-137739918D01*
X126032744Y-138327505D01*
X126257130Y-138870560D01*
X126672254Y-139286409D01*
X126716463Y-139304766D01*
X126674440Y-139322130D01*
X126258591Y-139737254D01*
X126033257Y-140279918D01*
X126032744Y-140867505D01*
X126257130Y-141410560D01*
X126383000Y-141536650D01*
X126383000Y-142110000D01*
X126468788Y-142541284D01*
X126713091Y-142906909D01*
X127403090Y-143596909D01*
X127403092Y-143596910D01*
X128101725Y-144295543D01*
X128303091Y-144596909D01*
X128773000Y-145066818D01*
X128773000Y-150200000D01*
X128858788Y-150631284D01*
X129103091Y-150996909D01*
X131003091Y-152896910D01*
X131368716Y-153141212D01*
X131800000Y-153227000D01*
X144000000Y-153227000D01*
X144431284Y-153141212D01*
X144796909Y-152896909D01*
X144896909Y-152796910D01*
X145141212Y-152431284D01*
X145226999Y-152000000D01*
X145141212Y-151568716D01*
X144896909Y-151203091D01*
X144531284Y-150958788D01*
X144100000Y-150873001D01*
X143668716Y-150958788D01*
X143647446Y-150973000D01*
X132266819Y-150973000D01*
X131027000Y-149733182D01*
X131027000Y-146281622D01*
X145772666Y-146281622D01*
X146065416Y-146990132D01*
X146607017Y-147532678D01*
X147315014Y-147826665D01*
X148081622Y-147827334D01*
X148790132Y-147534584D01*
X149332678Y-146992983D01*
X149626665Y-146284986D01*
X149627334Y-145518378D01*
X149334584Y-144809868D01*
X148792983Y-144267322D01*
X148084986Y-143973335D01*
X147318378Y-143972666D01*
X146609868Y-144265416D01*
X146067322Y-144807017D01*
X145773335Y-145515014D01*
X145772666Y-146281622D01*
X131027000Y-146281622D01*
X131027000Y-144500000D01*
X130941212Y-144068716D01*
X130941212Y-144068715D01*
X130696909Y-143703090D01*
X129912873Y-142919054D01*
X134182616Y-142919054D01*
X134519423Y-143734189D01*
X135142530Y-144358386D01*
X135957077Y-144696615D01*
X136839054Y-144697384D01*
X137654189Y-144360577D01*
X138278386Y-143737470D01*
X138616615Y-142922923D01*
X138617384Y-142040946D01*
X138280577Y-141225811D01*
X137657470Y-140601614D01*
X136842923Y-140263385D01*
X135960946Y-140262616D01*
X135145811Y-140599423D01*
X134521614Y-141222530D01*
X134183385Y-142037077D01*
X134182616Y-142919054D01*
X129912873Y-142919054D01*
X129462535Y-142468716D01*
X128996910Y-142003092D01*
X128996909Y-142003090D01*
X128637000Y-141643182D01*
X128637000Y-141536938D01*
X128761409Y-141412746D01*
X128986743Y-140870082D01*
X128987214Y-140330976D01*
X129212254Y-140556409D01*
X129754918Y-140781743D01*
X130342505Y-140782256D01*
X130885560Y-140557870D01*
X131301409Y-140142746D01*
X131526743Y-139600082D01*
X131527256Y-139012495D01*
X131302870Y-138469440D01*
X130887746Y-138053591D01*
X130843537Y-138035234D01*
X130885560Y-138017870D01*
X131301409Y-137602746D01*
X131526743Y-137060082D01*
X131527256Y-136472495D01*
X131302870Y-135929440D01*
X130887746Y-135513591D01*
X130842245Y-135494697D01*
X130914353Y-135268958D01*
X130050000Y-134404605D01*
X130035858Y-134418748D01*
X129856253Y-134239143D01*
X129870395Y-134225000D01*
X130229605Y-134225000D01*
X131093958Y-135089353D01*
X131345259Y-135009080D01*
X131546718Y-134453721D01*
X131520315Y-133863542D01*
X131345259Y-133440920D01*
X131093958Y-133360647D01*
X130229605Y-134225000D01*
X129870395Y-134225000D01*
X129006042Y-133360647D01*
X128754741Y-133440920D01*
X128553282Y-133996279D01*
X128574509Y-134470750D01*
X128347746Y-134243591D01*
X127805082Y-134018257D01*
X127217495Y-134017744D01*
X126674440Y-134242130D01*
X126258591Y-134657254D01*
X126033257Y-135199918D01*
X126032744Y-135787505D01*
X98859501Y-135787505D01*
X98752870Y-135529440D01*
X98337746Y-135113591D01*
X98292245Y-135094697D01*
X98364353Y-134868958D01*
X97500000Y-134004605D01*
X97485858Y-134018748D01*
X97306253Y-133839143D01*
X97320395Y-133825000D01*
X97679605Y-133825000D01*
X98543958Y-134689353D01*
X98795259Y-134609080D01*
X98996718Y-134053721D01*
X98970315Y-133463542D01*
X98795259Y-133040920D01*
X98543958Y-132960647D01*
X97679605Y-133825000D01*
X97320395Y-133825000D01*
X96456042Y-132960647D01*
X96204741Y-133040920D01*
X96003282Y-133596279D01*
X96024509Y-134070750D01*
X95797746Y-133843591D01*
X95255082Y-133618257D01*
X94667495Y-133617744D01*
X94124440Y-133842130D01*
X93708591Y-134257254D01*
X93483257Y-134799918D01*
X93482744Y-135387505D01*
X86677000Y-135387505D01*
X86677000Y-132781042D01*
X96635647Y-132781042D01*
X97500000Y-133645395D01*
X98364353Y-132781042D01*
X98284080Y-132529741D01*
X97813550Y-132359054D01*
X101632616Y-132359054D01*
X101969423Y-133174189D01*
X102592530Y-133798386D01*
X103407077Y-134136615D01*
X104289054Y-134137384D01*
X105104189Y-133800577D01*
X105724807Y-133181042D01*
X129185647Y-133181042D01*
X130050000Y-134045395D01*
X130914353Y-133181042D01*
X130834080Y-132929741D01*
X130363550Y-132759054D01*
X134182616Y-132759054D01*
X134519423Y-133574189D01*
X135142530Y-134198386D01*
X135957077Y-134536615D01*
X136839054Y-134537384D01*
X137654189Y-134200577D01*
X138278386Y-133577470D01*
X138616615Y-132762923D01*
X138617384Y-131880946D01*
X138280577Y-131065811D01*
X137657470Y-130441614D01*
X136842923Y-130103385D01*
X135960946Y-130102616D01*
X135145811Y-130439423D01*
X134521614Y-131062530D01*
X134183385Y-131877077D01*
X134182616Y-132759054D01*
X130363550Y-132759054D01*
X130278721Y-132728282D01*
X129688542Y-132754685D01*
X129265920Y-132929741D01*
X129185647Y-133181042D01*
X105724807Y-133181042D01*
X105728386Y-133177470D01*
X106066615Y-132362923D01*
X106067384Y-131480946D01*
X105730577Y-130665811D01*
X105107470Y-130041614D01*
X104292923Y-129703385D01*
X103410946Y-129702616D01*
X102595811Y-130039423D01*
X101971614Y-130662530D01*
X101633385Y-131477077D01*
X101632616Y-132359054D01*
X97813550Y-132359054D01*
X97728721Y-132328282D01*
X97138542Y-132354685D01*
X96715920Y-132529741D01*
X96635647Y-132781042D01*
X86677000Y-132781042D01*
X86677000Y-129127000D01*
X118200000Y-129127000D01*
X118234890Y-129122114D01*
X118917789Y-128927000D01*
X151872483Y-128927000D01*
X151773515Y-153273000D01*
X151773515Y-153273000D01*
G37*
X151773515Y-153273000D02*
X118928234Y-153273000D01*
X118995830Y-146281622D01*
X121772666Y-146281622D01*
X122065416Y-146990132D01*
X122607017Y-147532678D01*
X123315014Y-147826665D01*
X124081622Y-147827334D01*
X124790132Y-147534584D01*
X125332678Y-146992983D01*
X125626665Y-146284986D01*
X125627334Y-145518378D01*
X125334584Y-144809868D01*
X124792983Y-144267322D01*
X124084986Y-143973335D01*
X123318378Y-143972666D01*
X122609868Y-144265416D01*
X122067322Y-144807017D01*
X121773335Y-145515014D01*
X121772666Y-146281622D01*
X118995830Y-146281622D01*
X119026994Y-143058371D01*
X119017466Y-143008866D01*
X118989429Y-142966969D01*
X118947301Y-142939280D01*
X118897719Y-142930163D01*
X118848497Y-142941055D01*
X118807390Y-142970239D01*
X118780875Y-143013116D01*
X118773051Y-143053531D01*
X118476562Y-153473000D01*
X86677000Y-153473000D01*
X86677000Y-146831622D01*
X88572666Y-146831622D01*
X88865416Y-147540132D01*
X89407017Y-148082678D01*
X90115014Y-148376665D01*
X90881622Y-148377334D01*
X91590132Y-148084584D01*
X92132678Y-147542983D01*
X92322837Y-147085030D01*
X92322830Y-147093485D01*
X92471256Y-147452703D01*
X92745851Y-147727778D01*
X93104810Y-147876830D01*
X93493485Y-147877170D01*
X93852703Y-147728744D01*
X94127778Y-147454149D01*
X94276830Y-147095190D01*
X94277170Y-146706515D01*
X94277000Y-146706104D01*
X94277000Y-146693485D01*
X94322830Y-146693485D01*
X94471256Y-147052703D01*
X94745851Y-147327778D01*
X95104810Y-147476830D01*
X95213437Y-147476925D01*
X95768256Y-148031745D01*
X95878255Y-148105243D01*
X96012222Y-148194757D01*
X96300000Y-148252000D01*
X98523129Y-148252000D01*
X98523055Y-148335904D01*
X98405243Y-148512222D01*
X98348000Y-148800000D01*
X98348000Y-148948000D01*
X97795816Y-148948000D01*
X97495190Y-148823170D01*
X97106515Y-148822830D01*
X96747297Y-148971256D01*
X96472222Y-149245851D01*
X96323170Y-149604810D01*
X96322830Y-149993485D01*
X96471256Y-150352703D01*
X96745851Y-150627778D01*
X97104810Y-150776830D01*
X97493485Y-150777170D01*
X97852703Y-150628744D01*
X98029756Y-150452000D01*
X98470205Y-150452000D01*
X98545851Y-150527778D01*
X98904810Y-150676830D01*
X99293485Y-150677170D01*
X99652703Y-150528744D01*
X99927778Y-150254149D01*
X100076830Y-149895190D01*
X100077170Y-149506515D01*
X99975567Y-149260616D01*
X100052703Y-149228744D01*
X100327778Y-148954149D01*
X100370197Y-148851992D01*
X100445851Y-148927778D01*
X100804810Y-149076830D01*
X101193485Y-149077170D01*
X101552703Y-148928744D01*
X101827778Y-148654149D01*
X101976830Y-148295190D01*
X101977170Y-147906515D01*
X101828744Y-147547297D01*
X101554149Y-147272222D01*
X101195190Y-147123170D01*
X100890042Y-147122903D01*
X100517135Y-146874298D01*
X100449035Y-146846174D01*
X100427257Y-146831622D01*
X112572666Y-146831622D01*
X112865416Y-147540132D01*
X113407017Y-148082678D01*
X114115014Y-148376665D01*
X114881622Y-148377334D01*
X115590132Y-148084584D01*
X116132678Y-147542983D01*
X116426665Y-146834986D01*
X116427334Y-146068378D01*
X116134584Y-145359868D01*
X115592983Y-144817322D01*
X114884986Y-144523335D01*
X114118378Y-144522666D01*
X113409868Y-144815416D01*
X112867322Y-145357017D01*
X112573335Y-146065014D01*
X112572666Y-146831622D01*
X100427257Y-146831622D01*
X100387778Y-146805243D01*
X100314753Y-146790717D01*
X100245936Y-146762297D01*
X100172263Y-146762374D01*
X100100000Y-146748000D01*
X96611489Y-146748000D01*
X96277076Y-146413588D01*
X96277170Y-146306515D01*
X96128744Y-145947297D01*
X95854149Y-145672222D01*
X95495190Y-145523170D01*
X95106515Y-145522830D01*
X94747297Y-145671256D01*
X94472222Y-145945851D01*
X94323170Y-146304810D01*
X94322830Y-146693485D01*
X94277000Y-146693485D01*
X94277000Y-143863266D01*
X94363266Y-143777000D01*
X95383182Y-143777000D01*
X96603091Y-144996910D01*
X96968716Y-145241212D01*
X97400000Y-145327000D01*
X98100000Y-145327000D01*
X98531284Y-145241212D01*
X98896909Y-144996909D01*
X99141212Y-144631284D01*
X99227000Y-144200000D01*
X99141212Y-143768716D01*
X98896909Y-143403091D01*
X98531284Y-143158788D01*
X98100000Y-143073000D01*
X97866819Y-143073000D01*
X97312873Y-142519054D01*
X101632616Y-142519054D01*
X101969423Y-143334189D01*
X102592530Y-143958386D01*
X103407077Y-144296615D01*
X104289054Y-144297384D01*
X105104189Y-143960577D01*
X105728386Y-143337470D01*
X106066615Y-142522923D01*
X106067384Y-141640946D01*
X105730577Y-140825811D01*
X105107470Y-140201614D01*
X104292923Y-139863385D01*
X103410946Y-139862616D01*
X102595811Y-140199423D01*
X101971614Y-140822530D01*
X101633385Y-141637077D01*
X101632616Y-142519054D01*
X97312873Y-142519054D01*
X96896909Y-142103091D01*
X96531284Y-141858788D01*
X96100000Y-141773000D01*
X95668716Y-141858788D01*
X95422956Y-142023000D01*
X94000000Y-142023000D01*
X93664387Y-142089758D01*
X93379867Y-142279867D01*
X92779867Y-142879867D01*
X92589758Y-143164387D01*
X92523000Y-143500000D01*
X92523000Y-146295162D01*
X92472222Y-146345851D01*
X92426997Y-146454766D01*
X92427334Y-146068378D01*
X92134584Y-145359868D01*
X91592983Y-144817322D01*
X90884986Y-144523335D01*
X90118378Y-144522666D01*
X89409868Y-144815416D01*
X88867322Y-145357017D01*
X88573335Y-146065014D01*
X88572666Y-146831622D01*
X86677000Y-146831622D01*
X86677000Y-135387505D01*
X93482744Y-135387505D01*
X93707130Y-135930560D01*
X94122254Y-136346409D01*
X94166463Y-136364766D01*
X94124440Y-136382130D01*
X93708591Y-136797254D01*
X93483257Y-137339918D01*
X93482744Y-137927505D01*
X93707130Y-138470560D01*
X94122254Y-138886409D01*
X94166463Y-138904766D01*
X94124440Y-138922130D01*
X93708591Y-139337254D01*
X93483257Y-139879918D01*
X93482744Y-140467505D01*
X93707130Y-141010560D01*
X94122254Y-141426409D01*
X94664918Y-141651743D01*
X95252505Y-141652256D01*
X95795560Y-141427870D01*
X96211409Y-141012746D01*
X96436743Y-140470082D01*
X96437214Y-139930976D01*
X96662254Y-140156409D01*
X97204918Y-140381743D01*
X97792505Y-140382256D01*
X98335560Y-140157870D01*
X98751409Y-139742746D01*
X98976743Y-139200082D01*
X98977256Y-138612495D01*
X98752870Y-138069440D01*
X98337746Y-137653591D01*
X98293537Y-137635234D01*
X98335560Y-137617870D01*
X98751409Y-137202746D01*
X98976743Y-136660082D01*
X98977256Y-136072495D01*
X98859501Y-135787505D01*
X126032744Y-135787505D01*
X126257130Y-136330560D01*
X126672254Y-136746409D01*
X126716463Y-136764766D01*
X126674440Y-136782130D01*
X126258591Y-137197254D01*
X126033257Y-137739918D01*
X126032744Y-138327505D01*
X126257130Y-138870560D01*
X126672254Y-139286409D01*
X126716463Y-139304766D01*
X126674440Y-139322130D01*
X126258591Y-139737254D01*
X126033257Y-140279918D01*
X126032744Y-140867505D01*
X126257130Y-141410560D01*
X126383000Y-141536650D01*
X126383000Y-142110000D01*
X126468788Y-142541284D01*
X126713091Y-142906909D01*
X127403090Y-143596909D01*
X127403092Y-143596910D01*
X128101725Y-144295543D01*
X128303091Y-144596909D01*
X128773000Y-145066818D01*
X128773000Y-150200000D01*
X128858788Y-150631284D01*
X129103091Y-150996909D01*
X131003091Y-152896910D01*
X131368716Y-153141212D01*
X131800000Y-153227000D01*
X144000000Y-153227000D01*
X144431284Y-153141212D01*
X144796909Y-152896909D01*
X144896909Y-152796910D01*
X145141212Y-152431284D01*
X145226999Y-152000000D01*
X145141212Y-151568716D01*
X144896909Y-151203091D01*
X144531284Y-150958788D01*
X144100000Y-150873001D01*
X143668716Y-150958788D01*
X143647446Y-150973000D01*
X132266819Y-150973000D01*
X131027000Y-149733182D01*
X131027000Y-146281622D01*
X145772666Y-146281622D01*
X146065416Y-146990132D01*
X146607017Y-147532678D01*
X147315014Y-147826665D01*
X148081622Y-147827334D01*
X148790132Y-147534584D01*
X149332678Y-146992983D01*
X149626665Y-146284986D01*
X149627334Y-145518378D01*
X149334584Y-144809868D01*
X148792983Y-144267322D01*
X148084986Y-143973335D01*
X147318378Y-143972666D01*
X146609868Y-144265416D01*
X146067322Y-144807017D01*
X145773335Y-145515014D01*
X145772666Y-146281622D01*
X131027000Y-146281622D01*
X131027000Y-144500000D01*
X130941212Y-144068716D01*
X130941212Y-144068715D01*
X130696909Y-143703090D01*
X129912873Y-142919054D01*
X134182616Y-142919054D01*
X134519423Y-143734189D01*
X135142530Y-144358386D01*
X135957077Y-144696615D01*
X136839054Y-144697384D01*
X137654189Y-144360577D01*
X138278386Y-143737470D01*
X138616615Y-142922923D01*
X138617384Y-142040946D01*
X138280577Y-141225811D01*
X137657470Y-140601614D01*
X136842923Y-140263385D01*
X135960946Y-140262616D01*
X135145811Y-140599423D01*
X134521614Y-141222530D01*
X134183385Y-142037077D01*
X134182616Y-142919054D01*
X129912873Y-142919054D01*
X129462535Y-142468716D01*
X128996910Y-142003092D01*
X128996909Y-142003090D01*
X128637000Y-141643182D01*
X128637000Y-141536938D01*
X128761409Y-141412746D01*
X128986743Y-140870082D01*
X128987214Y-140330976D01*
X129212254Y-140556409D01*
X129754918Y-140781743D01*
X130342505Y-140782256D01*
X130885560Y-140557870D01*
X131301409Y-140142746D01*
X131526743Y-139600082D01*
X131527256Y-139012495D01*
X131302870Y-138469440D01*
X130887746Y-138053591D01*
X130843537Y-138035234D01*
X130885560Y-138017870D01*
X131301409Y-137602746D01*
X131526743Y-137060082D01*
X131527256Y-136472495D01*
X131302870Y-135929440D01*
X130887746Y-135513591D01*
X130842245Y-135494697D01*
X130914353Y-135268958D01*
X130050000Y-134404605D01*
X130035858Y-134418748D01*
X129856253Y-134239143D01*
X129870395Y-134225000D01*
X130229605Y-134225000D01*
X131093958Y-135089353D01*
X131345259Y-135009080D01*
X131546718Y-134453721D01*
X131520315Y-133863542D01*
X131345259Y-133440920D01*
X131093958Y-133360647D01*
X130229605Y-134225000D01*
X129870395Y-134225000D01*
X129006042Y-133360647D01*
X128754741Y-133440920D01*
X128553282Y-133996279D01*
X128574509Y-134470750D01*
X128347746Y-134243591D01*
X127805082Y-134018257D01*
X127217495Y-134017744D01*
X126674440Y-134242130D01*
X126258591Y-134657254D01*
X126033257Y-135199918D01*
X126032744Y-135787505D01*
X98859501Y-135787505D01*
X98752870Y-135529440D01*
X98337746Y-135113591D01*
X98292245Y-135094697D01*
X98364353Y-134868958D01*
X97500000Y-134004605D01*
X97485858Y-134018748D01*
X97306253Y-133839143D01*
X97320395Y-133825000D01*
X97679605Y-133825000D01*
X98543958Y-134689353D01*
X98795259Y-134609080D01*
X98996718Y-134053721D01*
X98970315Y-133463542D01*
X98795259Y-133040920D01*
X98543958Y-132960647D01*
X97679605Y-133825000D01*
X97320395Y-133825000D01*
X96456042Y-132960647D01*
X96204741Y-133040920D01*
X96003282Y-133596279D01*
X96024509Y-134070750D01*
X95797746Y-133843591D01*
X95255082Y-133618257D01*
X94667495Y-133617744D01*
X94124440Y-133842130D01*
X93708591Y-134257254D01*
X93483257Y-134799918D01*
X93482744Y-135387505D01*
X86677000Y-135387505D01*
X86677000Y-132781042D01*
X96635647Y-132781042D01*
X97500000Y-133645395D01*
X98364353Y-132781042D01*
X98284080Y-132529741D01*
X97813550Y-132359054D01*
X101632616Y-132359054D01*
X101969423Y-133174189D01*
X102592530Y-133798386D01*
X103407077Y-134136615D01*
X104289054Y-134137384D01*
X105104189Y-133800577D01*
X105724807Y-133181042D01*
X129185647Y-133181042D01*
X130050000Y-134045395D01*
X130914353Y-133181042D01*
X130834080Y-132929741D01*
X130363550Y-132759054D01*
X134182616Y-132759054D01*
X134519423Y-133574189D01*
X135142530Y-134198386D01*
X135957077Y-134536615D01*
X136839054Y-134537384D01*
X137654189Y-134200577D01*
X138278386Y-133577470D01*
X138616615Y-132762923D01*
X138617384Y-131880946D01*
X138280577Y-131065811D01*
X137657470Y-130441614D01*
X136842923Y-130103385D01*
X135960946Y-130102616D01*
X135145811Y-130439423D01*
X134521614Y-131062530D01*
X134183385Y-131877077D01*
X134182616Y-132759054D01*
X130363550Y-132759054D01*
X130278721Y-132728282D01*
X129688542Y-132754685D01*
X129265920Y-132929741D01*
X129185647Y-133181042D01*
X105724807Y-133181042D01*
X105728386Y-133177470D01*
X106066615Y-132362923D01*
X106067384Y-131480946D01*
X105730577Y-130665811D01*
X105107470Y-130041614D01*
X104292923Y-129703385D01*
X103410946Y-129702616D01*
X102595811Y-130039423D01*
X101971614Y-130662530D01*
X101633385Y-131477077D01*
X101632616Y-132359054D01*
X97813550Y-132359054D01*
X97728721Y-132328282D01*
X97138542Y-132354685D01*
X96715920Y-132529741D01*
X96635647Y-132781042D01*
X86677000Y-132781042D01*
X86677000Y-129127000D01*
X118200000Y-129127000D01*
X118234890Y-129122114D01*
X118917789Y-128927000D01*
X151872483Y-128927000D01*
X151773515Y-153273000D01*
G36*
X185323000Y-153673000D02*
X152528037Y-153673000D01*
X152547382Y-151293485D01*
X163022830Y-151293485D01*
X163171256Y-151652703D01*
X163445851Y-151927778D01*
X163804810Y-152076830D01*
X164193485Y-152077170D01*
X164552703Y-151928744D01*
X164629581Y-151852000D01*
X165500000Y-151852000D01*
X165787778Y-151794757D01*
X166031744Y-151631744D01*
X166386412Y-151277076D01*
X166493485Y-151277170D01*
X166852703Y-151128744D01*
X167127778Y-150854149D01*
X167276830Y-150495190D01*
X167277170Y-150106515D01*
X167225443Y-149981327D01*
X167352703Y-149928744D01*
X167627778Y-149654149D01*
X167776830Y-149295190D01*
X167777170Y-148906515D01*
X167628744Y-148547297D01*
X167354149Y-148272222D01*
X166995190Y-148123170D01*
X166606515Y-148122830D01*
X166247297Y-148271256D01*
X165972222Y-148545851D01*
X165888283Y-148748000D01*
X165600000Y-148748000D01*
X165312222Y-148805243D01*
X165214503Y-148870536D01*
X165068256Y-148968255D01*
X164877000Y-149159511D01*
X164877000Y-148263266D01*
X165620130Y-147520135D01*
X165620133Y-147520133D01*
X165810242Y-147235613D01*
X165839255Y-147089758D01*
X165850819Y-147031622D01*
X179472666Y-147031622D01*
X179765416Y-147740132D01*
X180307017Y-148282678D01*
X181015014Y-148576665D01*
X181781622Y-148577334D01*
X182490132Y-148284584D01*
X183032678Y-147742983D01*
X183326665Y-147034986D01*
X183327334Y-146268378D01*
X183034584Y-145559868D01*
X182492983Y-145017322D01*
X181784986Y-144723335D01*
X181018378Y-144722666D01*
X180309868Y-145015416D01*
X179767322Y-145557017D01*
X179473335Y-146265014D01*
X179472666Y-147031622D01*
X165850819Y-147031622D01*
X165877001Y-146900000D01*
X165877000Y-146899995D01*
X165877000Y-144700000D01*
X165973000Y-144700000D01*
X166051176Y-145093016D01*
X166273801Y-145426199D01*
X166606984Y-145648824D01*
X167000000Y-145727000D01*
X167393016Y-145648824D01*
X167726199Y-145426199D01*
X167752397Y-145400000D01*
X168073000Y-145400000D01*
X168158788Y-145831284D01*
X168403091Y-146196909D01*
X168768716Y-146441212D01*
X169200000Y-146527000D01*
X169631284Y-146441212D01*
X169996909Y-146196909D01*
X173096909Y-143096909D01*
X173341212Y-142731284D01*
X173408065Y-142395190D01*
X173427000Y-142300000D01*
X173427000Y-142200000D01*
X173341212Y-141768716D01*
X173096909Y-141403091D01*
X172731284Y-141158788D01*
X172300000Y-141073000D01*
X171868716Y-141158788D01*
X171503091Y-141403091D01*
X171301724Y-141704458D01*
X168403091Y-144603091D01*
X168158788Y-144968716D01*
X168073000Y-145400000D01*
X167752397Y-145400000D01*
X167926196Y-145226201D01*
X167926199Y-145226199D01*
X168148824Y-144893016D01*
X168182709Y-144722666D01*
X168227001Y-144500000D01*
X168227000Y-144499995D01*
X168227000Y-141093485D01*
X169022830Y-141093485D01*
X169171256Y-141452703D01*
X169445851Y-141727778D01*
X169804810Y-141876830D01*
X170193485Y-141877170D01*
X170552703Y-141728744D01*
X170827778Y-141454149D01*
X170976830Y-141095190D01*
X170977170Y-140706515D01*
X170952000Y-140645599D01*
X170952000Y-138829795D01*
X171027778Y-138754149D01*
X171176830Y-138395190D01*
X171177170Y-138006515D01*
X171028744Y-137647297D01*
X170754149Y-137372222D01*
X170395190Y-137223170D01*
X170006515Y-137222830D01*
X169647297Y-137371256D01*
X169372222Y-137645851D01*
X169223170Y-138004810D01*
X169222830Y-138393485D01*
X169371256Y-138752703D01*
X169448000Y-138829581D01*
X169448000Y-140070966D01*
X169447297Y-140071256D01*
X169172222Y-140345851D01*
X169023170Y-140704810D01*
X169022830Y-141093485D01*
X168227000Y-141093485D01*
X168227000Y-135000000D01*
X168148824Y-134606984D01*
X167926199Y-134273801D01*
X167593016Y-134051176D01*
X167200000Y-133973000D01*
X166806984Y-134051176D01*
X166473801Y-134273801D01*
X166251176Y-134606984D01*
X166173000Y-135000000D01*
X166173000Y-144124661D01*
X166051176Y-144306984D01*
X165973000Y-144700000D01*
X165877000Y-144700000D01*
X165877000Y-133635609D01*
X165976830Y-133395190D01*
X165977170Y-133006515D01*
X165828744Y-132647297D01*
X165554149Y-132372222D01*
X165195190Y-132223170D01*
X164806515Y-132222830D01*
X164447297Y-132371256D01*
X164172222Y-132645851D01*
X164023170Y-133004810D01*
X164022830Y-133393485D01*
X164123000Y-133635915D01*
X164123000Y-146536735D01*
X163379867Y-147279867D01*
X163189758Y-147564387D01*
X163123000Y-147900000D01*
X163123000Y-150664391D01*
X163023170Y-150904810D01*
X163022830Y-151293485D01*
X152547382Y-151293485D01*
X152582031Y-147031622D01*
X155472666Y-147031622D01*
X155765416Y-147740132D01*
X156307017Y-148282678D01*
X157015014Y-148576665D01*
X157781622Y-148577334D01*
X158490132Y-148284584D01*
X159032678Y-147742983D01*
X159326665Y-147034986D01*
X159327334Y-146268378D01*
X159034584Y-145559868D01*
X158492983Y-145017322D01*
X157784986Y-144723335D01*
X157018378Y-144722666D01*
X156309868Y-145015416D01*
X155767322Y-145557017D01*
X155473335Y-146265014D01*
X155472666Y-147031622D01*
X152582031Y-147031622D01*
X152725972Y-129327000D01*
X185323000Y-129327000D01*
X185323000Y-153673000D01*
X185323000Y-153673000D01*
G37*
X185323000Y-153673000D02*
X152528037Y-153673000D01*
X152547382Y-151293485D01*
X163022830Y-151293485D01*
X163171256Y-151652703D01*
X163445851Y-151927778D01*
X163804810Y-152076830D01*
X164193485Y-152077170D01*
X164552703Y-151928744D01*
X164629581Y-151852000D01*
X165500000Y-151852000D01*
X165787778Y-151794757D01*
X166031744Y-151631744D01*
X166386412Y-151277076D01*
X166493485Y-151277170D01*
X166852703Y-151128744D01*
X167127778Y-150854149D01*
X167276830Y-150495190D01*
X167277170Y-150106515D01*
X167225443Y-149981327D01*
X167352703Y-149928744D01*
X167627778Y-149654149D01*
X167776830Y-149295190D01*
X167777170Y-148906515D01*
X167628744Y-148547297D01*
X167354149Y-148272222D01*
X166995190Y-148123170D01*
X166606515Y-148122830D01*
X166247297Y-148271256D01*
X165972222Y-148545851D01*
X165888283Y-148748000D01*
X165600000Y-148748000D01*
X165312222Y-148805243D01*
X165214503Y-148870536D01*
X165068256Y-148968255D01*
X164877000Y-149159511D01*
X164877000Y-148263266D01*
X165620130Y-147520135D01*
X165620133Y-147520133D01*
X165810242Y-147235613D01*
X165839255Y-147089758D01*
X165850819Y-147031622D01*
X179472666Y-147031622D01*
X179765416Y-147740132D01*
X180307017Y-148282678D01*
X181015014Y-148576665D01*
X181781622Y-148577334D01*
X182490132Y-148284584D01*
X183032678Y-147742983D01*
X183326665Y-147034986D01*
X183327334Y-146268378D01*
X183034584Y-145559868D01*
X182492983Y-145017322D01*
X181784986Y-144723335D01*
X181018378Y-144722666D01*
X180309868Y-145015416D01*
X179767322Y-145557017D01*
X179473335Y-146265014D01*
X179472666Y-147031622D01*
X165850819Y-147031622D01*
X165877001Y-146900000D01*
X165877000Y-146899995D01*
X165877000Y-144700000D01*
X165973000Y-144700000D01*
X166051176Y-145093016D01*
X166273801Y-145426199D01*
X166606984Y-145648824D01*
X167000000Y-145727000D01*
X167393016Y-145648824D01*
X167726199Y-145426199D01*
X167752397Y-145400000D01*
X168073000Y-145400000D01*
X168158788Y-145831284D01*
X168403091Y-146196909D01*
X168768716Y-146441212D01*
X169200000Y-146527000D01*
X169631284Y-146441212D01*
X169996909Y-146196909D01*
X173096909Y-143096909D01*
X173341212Y-142731284D01*
X173408065Y-142395190D01*
X173427000Y-142300000D01*
X173427000Y-142200000D01*
X173341212Y-141768716D01*
X173096909Y-141403091D01*
X172731284Y-141158788D01*
X172300000Y-141073000D01*
X171868716Y-141158788D01*
X171503091Y-141403091D01*
X171301724Y-141704458D01*
X168403091Y-144603091D01*
X168158788Y-144968716D01*
X168073000Y-145400000D01*
X167752397Y-145400000D01*
X167926196Y-145226201D01*
X167926199Y-145226199D01*
X168148824Y-144893016D01*
X168182709Y-144722666D01*
X168227001Y-144500000D01*
X168227000Y-144499995D01*
X168227000Y-141093485D01*
X169022830Y-141093485D01*
X169171256Y-141452703D01*
X169445851Y-141727778D01*
X169804810Y-141876830D01*
X170193485Y-141877170D01*
X170552703Y-141728744D01*
X170827778Y-141454149D01*
X170976830Y-141095190D01*
X170977170Y-140706515D01*
X170952000Y-140645599D01*
X170952000Y-138829795D01*
X171027778Y-138754149D01*
X171176830Y-138395190D01*
X171177170Y-138006515D01*
X171028744Y-137647297D01*
X170754149Y-137372222D01*
X170395190Y-137223170D01*
X170006515Y-137222830D01*
X169647297Y-137371256D01*
X169372222Y-137645851D01*
X169223170Y-138004810D01*
X169222830Y-138393485D01*
X169371256Y-138752703D01*
X169448000Y-138829581D01*
X169448000Y-140070966D01*
X169447297Y-140071256D01*
X169172222Y-140345851D01*
X169023170Y-140704810D01*
X169022830Y-141093485D01*
X168227000Y-141093485D01*
X168227000Y-135000000D01*
X168148824Y-134606984D01*
X167926199Y-134273801D01*
X167593016Y-134051176D01*
X167200000Y-133973000D01*
X166806984Y-134051176D01*
X166473801Y-134273801D01*
X166251176Y-134606984D01*
X166173000Y-135000000D01*
X166173000Y-144124661D01*
X166051176Y-144306984D01*
X165973000Y-144700000D01*
X165877000Y-144700000D01*
X165877000Y-133635609D01*
X165976830Y-133395190D01*
X165977170Y-133006515D01*
X165828744Y-132647297D01*
X165554149Y-132372222D01*
X165195190Y-132223170D01*
X164806515Y-132222830D01*
X164447297Y-132371256D01*
X164172222Y-132645851D01*
X164023170Y-133004810D01*
X164022830Y-133393485D01*
X164123000Y-133635915D01*
X164123000Y-146536735D01*
X163379867Y-147279867D01*
X163189758Y-147564387D01*
X163123000Y-147900000D01*
X163123000Y-150664391D01*
X163023170Y-150904810D01*
X163022830Y-151293485D01*
X152547382Y-151293485D01*
X152582031Y-147031622D01*
X155472666Y-147031622D01*
X155765416Y-147740132D01*
X156307017Y-148282678D01*
X157015014Y-148576665D01*
X157781622Y-148577334D01*
X158490132Y-148284584D01*
X159032678Y-147742983D01*
X159326665Y-147034986D01*
X159327334Y-146268378D01*
X159034584Y-145559868D01*
X158492983Y-145017322D01*
X157784986Y-144723335D01*
X157018378Y-144722666D01*
X156309868Y-145015416D01*
X155767322Y-145557017D01*
X155473335Y-146265014D01*
X155472666Y-147031622D01*
X152582031Y-147031622D01*
X152725972Y-129327000D01*
X185323000Y-129327000D01*
X185323000Y-153673000D01*
M02*
