G04 (created by PCBNEW (2013-08-24 BZR 4298)-stable) date Wed 06 Aug 2014 08:08:47 PM PDT*
%MOIN*%
G04 Gerber Fmt 3.4, Leading zero omitted, Abs format*
%FSLAX34Y34*%
G01*
G70*
G90*
G04 APERTURE LIST*
%ADD10C,0.005906*%
%ADD11C,0.118110*%
%ADD12R,0.094500X0.137800*%
%ADD13R,0.090551X0.220472*%
%ADD14R,0.055118X0.133858*%
%ADD15R,0.055000X0.035000*%
%ADD16R,0.029921X0.250000*%
%ADD17C,0.127953*%
%ADD18R,0.090551X0.090551*%
%ADD19R,0.047244X0.021654*%
%ADD20R,0.021654X0.047244*%
%ADD21R,0.039400X0.035400*%
%ADD22R,0.035400X0.039400*%
G04 APERTURE END LIST*
G54D10*
G54D11*
X14911Y-25344D03*
X14911Y-22194D03*
G54D12*
X17667Y-24064D03*
X17667Y-26624D03*
G54D13*
X23120Y-25580D03*
G54D14*
X21112Y-22982D03*
X22096Y-22982D03*
G54D13*
X20088Y-25580D03*
X20679Y-11446D03*
G54D14*
X22687Y-14045D03*
X21702Y-14045D03*
G54D13*
X23710Y-11446D03*
G54D15*
X21377Y-20520D03*
X21377Y-21270D03*
G54D16*
X17736Y-16377D03*
X16736Y-16377D03*
X15736Y-16377D03*
X16236Y-16377D03*
X15236Y-16377D03*
G54D17*
X14486Y-12352D03*
X18486Y-12352D03*
G54D16*
X17236Y-16377D03*
G54D18*
X21013Y-18257D03*
G54D19*
X20265Y-17874D03*
X20265Y-18129D03*
X20265Y-18385D03*
X20265Y-18641D03*
G54D20*
X20629Y-19005D03*
X20885Y-19005D03*
X21141Y-19005D03*
X21397Y-19005D03*
G54D19*
X21761Y-18641D03*
X21761Y-18385D03*
X21761Y-18129D03*
X21761Y-17874D03*
G54D20*
X21397Y-17509D03*
X21141Y-17509D03*
X20885Y-17509D03*
X20629Y-17509D03*
G54D21*
X22204Y-21290D03*
X22204Y-20698D03*
X22007Y-16329D03*
X22007Y-15737D03*
X20866Y-16339D03*
X20866Y-15747D03*
G54D22*
X18274Y-20746D03*
X17682Y-20746D03*
G54D21*
X22893Y-18573D03*
X22893Y-17981D03*
G54D22*
X18797Y-22017D03*
X18205Y-22017D03*
X17536Y-19592D03*
X18128Y-19592D03*
X19734Y-17175D03*
X19142Y-17175D03*
M02*
