M48
;DRILL file {Pcbnew (2013-08-24 BZR 4298)-stable} date Tue 18 Feb 2014 09:28:55 PM PST
;FORMAT={-:-/ absolute / metric / decimal}
FMAT,2
METRIC,TZ
T1C1.699
T2C1.727
T3C3.175
T4C3.250
%
G90
G05
M71
T1
X62.315Y-59.53
X62.315Y-148.53
X66.816Y-59.53
X66.816Y-148.53
T2
X194.35Y-40.
X194.35Y-40.
X194.35Y-44.501
X194.35Y-44.501
X194.35Y-100.
X194.35Y-100.
X194.35Y-104.501
X194.35Y-104.501
X194.35Y-159.8
X194.35Y-159.8
X194.35Y-164.301
X194.35Y-164.301
X195.39Y-82.999
X195.39Y-82.999
X195.39Y-87.5
X195.39Y-87.5
X195.39Y-142.999
X195.39Y-142.999
X195.39Y-147.5
X195.39Y-147.5
X195.39Y-202.799
X195.39Y-202.799
X195.39Y-207.3
X195.39Y-207.3
X238.35Y-40.
X238.35Y-40.
X238.35Y-44.501
X238.35Y-44.501
X238.35Y-100.
X238.35Y-100.
X238.35Y-104.501
X238.35Y-104.501
X238.35Y-159.8
X238.35Y-159.8
X238.35Y-164.301
X238.35Y-164.301
X239.39Y-82.999
X239.39Y-82.999
X239.39Y-87.5
X239.39Y-87.5
X239.39Y-142.999
X239.39Y-142.999
X239.39Y-147.5
X239.39Y-147.5
X239.39Y-202.799
X239.39Y-202.799
X239.39Y-207.3
X239.39Y-207.3
X282.35Y-40.
X282.35Y-40.
X282.35Y-44.501
X282.35Y-44.501
X282.35Y-100.
X282.35Y-100.
X282.35Y-104.501
X282.35Y-104.501
X282.35Y-159.8
X282.35Y-159.8
X282.35Y-164.301
X282.35Y-164.301
X283.39Y-82.999
X283.39Y-82.999
X283.39Y-87.5
X283.39Y-87.5
X283.39Y-142.999
X283.39Y-142.999
X283.39Y-147.5
X283.39Y-147.5
X283.39Y-202.799
X283.39Y-202.799
X283.39Y-207.3
X283.39Y-207.3
X326.35Y-40.
X326.35Y-40.
X326.35Y-44.501
X326.35Y-44.501
X326.35Y-100.
X326.35Y-100.
X326.35Y-104.501
X326.35Y-104.501
X326.35Y-159.8
X326.35Y-159.8
X326.35Y-164.301
X326.35Y-164.301
X327.39Y-82.999
X327.39Y-82.999
X327.39Y-87.5
X327.39Y-87.5
X327.39Y-142.999
X327.39Y-142.999
X327.39Y-147.5
X327.39Y-147.5
X327.39Y-202.799
X327.39Y-202.799
X327.39Y-207.3
X327.39Y-207.3
X370.35Y-40.
X370.35Y-40.
X370.35Y-44.501
X370.35Y-44.501
X370.35Y-100.
X370.35Y-100.
X370.35Y-104.501
X370.35Y-104.501
X370.35Y-159.8
X370.35Y-159.8
X370.35Y-164.301
X370.35Y-164.301
X371.39Y-82.999
X371.39Y-82.999
X371.39Y-87.5
X371.39Y-87.5
X371.39Y-142.999
X371.39Y-142.999
X371.39Y-147.5
X371.39Y-147.5
X371.39Y-202.799
X371.39Y-202.799
X371.39Y-207.3
X371.39Y-207.3
T3
X182.85Y-39.
X182.85Y-39.
X182.85Y-89.
X182.85Y-89.
X182.85Y-99.
X182.85Y-99.
X182.85Y-149.
X182.85Y-149.
X182.85Y-158.8
X182.85Y-158.8
X182.85Y-208.8
X182.85Y-208.8
X214.85Y-39.
X214.85Y-39.
X214.85Y-89.
X214.85Y-89.
X214.85Y-99.
X214.85Y-99.
X214.85Y-149.
X214.85Y-149.
X214.85Y-158.8
X214.85Y-158.8
X214.85Y-208.8
X214.85Y-208.8
X226.85Y-39.
X226.85Y-39.
X226.85Y-89.
X226.85Y-89.
X226.85Y-99.
X226.85Y-99.
X226.85Y-149.
X226.85Y-149.
X226.85Y-158.8
X226.85Y-158.8
X226.85Y-208.8
X226.85Y-208.8
X258.85Y-39.
X258.85Y-39.
X258.85Y-89.
X258.85Y-89.
X258.85Y-99.
X258.85Y-99.
X258.85Y-149.
X258.85Y-149.
X258.85Y-158.8
X258.85Y-158.8
X258.85Y-208.8
X258.85Y-208.8
X270.85Y-39.
X270.85Y-39.
X270.85Y-89.
X270.85Y-89.
X270.85Y-99.
X270.85Y-99.
X270.85Y-149.
X270.85Y-149.
X270.85Y-158.8
X270.85Y-158.8
X270.85Y-208.8
X270.85Y-208.8
X302.85Y-39.
X302.85Y-39.
X302.85Y-89.
X302.85Y-89.
X302.85Y-99.
X302.85Y-99.
X302.85Y-149.
X302.85Y-149.
X302.85Y-158.8
X302.85Y-158.8
X302.85Y-208.8
X302.85Y-208.8
X314.85Y-39.
X314.85Y-39.
X314.85Y-89.
X314.85Y-89.
X314.85Y-99.
X314.85Y-99.
X314.85Y-149.
X314.85Y-149.
X314.85Y-158.8
X314.85Y-158.8
X314.85Y-208.8
X314.85Y-208.8
X346.85Y-39.
X346.85Y-39.
X346.85Y-89.
X346.85Y-89.
X346.85Y-99.
X346.85Y-99.
X346.85Y-149.
X346.85Y-149.
X346.85Y-158.8
X346.85Y-158.8
X346.85Y-208.8
X346.85Y-208.8
X358.85Y-39.
X358.85Y-39.
X358.85Y-89.
X358.85Y-89.
X358.85Y-99.
X358.85Y-99.
X358.85Y-149.
X358.85Y-149.
X358.85Y-158.8
X358.85Y-158.8
X358.85Y-208.8
X358.85Y-208.8
X390.85Y-39.
X390.85Y-39.
X390.85Y-89.
X390.85Y-89.
X390.85Y-99.
X390.85Y-99.
X390.85Y-149.
X390.85Y-149.
X390.85Y-158.8
X390.85Y-158.8
X390.85Y-208.8
X390.85Y-208.8
T4
X62.07Y-75.84
X62.07Y-88.54
X62.07Y-164.84
X62.07Y-177.54
X62.84Y-42.73
X62.84Y-115.73
X62.84Y-131.73
X62.84Y-204.73
X168.84Y-42.73
X168.84Y-115.73
X168.84Y-131.73
X168.84Y-204.73
T0
M30
