M48
;DRILL file {KiCad 4.0.6-e0-6349~53~ubuntu16.04.1} date Sat Jul 29 16:25:41 2017
;FORMAT={-:-/ absolute / metric / decimal}
FMAT,2
METRIC,TZ
T1C0.300
T2C0.400
T3C0.500
T4C3.000
%
G90
G05
M71
T1
X136.3Y-93.3
X136.3Y-94.3
X136.3Y-95.3
X136.3Y-96.3
X136.3Y-97.3
X136.3Y-98.5
X136.3Y-99.5
X136.3Y-100.5
X136.3Y-101.5
X136.3Y-102.5
X136.3Y-103.5
X136.3Y-104.5
X136.3Y-105.5
X136.3Y-106.5
X136.3Y-107.5
X136.3Y-108.5
X136.3Y-109.5
X136.3Y-110.5
X136.3Y-111.5
X136.3Y-112.5
X136.3Y-113.5
X136.3Y-114.5
X136.3Y-115.5
X137.3Y-93.3
X137.3Y-94.3
X137.3Y-95.3
X137.3Y-96.3
X137.3Y-97.3
X137.4Y-105.5
X137.4Y-106.5
X137.4Y-107.5
X137.4Y-108.5
X137.4Y-109.5
X137.4Y-110.5
X137.4Y-111.5
X137.4Y-112.5
X137.4Y-113.5
X137.4Y-114.5
X137.4Y-115.5
X138.3Y-93.3
X138.3Y-94.3
X138.3Y-95.3
X138.3Y-96.3
X138.3Y-97.3
X138.5Y-111.6
X138.5Y-112.6
X138.5Y-113.6
X138.5Y-114.6
X138.5Y-115.5
X139.3Y-93.3
X139.3Y-94.3
X139.3Y-95.3
X139.6Y-111.6
X139.6Y-112.6
X139.6Y-113.6
X139.6Y-114.6
X139.6Y-115.6
X140.3Y-93.3
X140.3Y-94.3
X140.6Y-111.6
X140.6Y-112.6
X140.6Y-113.6
X140.6Y-114.6
X140.6Y-115.6
X141.3Y-93.3
X141.6Y-110.5
X141.6Y-111.6
X141.6Y-112.6
X141.6Y-113.6
X141.6Y-114.6
X141.6Y-115.6
X142.2Y-103.5
X142.4Y-93.3
X142.6Y-110.5
X142.6Y-111.6
X142.6Y-112.6
X142.6Y-113.6
X142.6Y-114.6
X142.6Y-115.6
X143.2Y-103.5
X143.2Y-104.9
X143.6Y-93.3
X143.6Y-110.5
X143.6Y-111.6
X143.6Y-112.6
X143.6Y-113.6
X143.6Y-114.6
X143.6Y-115.6
X144.2Y-103.5
X144.2Y-104.9
X144.3Y-105.9
X144.6Y-111.6
X144.6Y-112.6
X144.6Y-113.6
X144.6Y-114.6
X144.6Y-115.6
X144.9Y-93.3
X145.2Y-103.5
X145.2Y-104.9
X145.2Y-106.3
X145.6Y-112.6
X145.6Y-113.6
X145.6Y-114.6
X145.6Y-115.6
X145.9Y-93.3
X146.2Y-103.5
X146.2Y-104.9
X146.2Y-106.3
X146.2Y-107.8
X146.6Y-113.6
X146.6Y-114.6
X146.6Y-115.6
X146.9Y-93.3
X147.2Y-103.5
X147.2Y-104.9
X147.2Y-106.3
X147.2Y-107.8
X147.6Y-97.2
X147.6Y-98.6
X147.6Y-114.6
X147.6Y-115.6
X147.9Y-93.3
X148.2Y-103.5
X148.2Y-104.9
X148.2Y-106.3
X148.3Y-109.4
X148.6Y-97.2
X148.6Y-98.6
X148.6Y-115.6
X148.9Y-93.3
X149.Y-100.
X149.2Y-104.9
X149.2Y-106.3
X149.6Y-98.6
X149.9Y-93.3
X149.9Y-94.6
X150.Y-100.
X150.4Y-101.4
X150.9Y-93.3
X150.9Y-94.6
X150.9Y-96.1
X151.Y-100.
X151.4Y-101.4
X151.6Y-102.6
X151.9Y-93.3
X151.9Y-94.6
X151.9Y-96.1
X151.9Y-97.7
X152.4Y-101.4
X152.6Y-102.6
X152.8Y-104.2
X152.9Y-93.3
X152.9Y-94.6
X152.9Y-96.1
X152.9Y-97.7
X153.6Y-102.6
X153.8Y-104.2
X153.9Y-93.3
X153.9Y-94.6
X153.9Y-96.1
X153.9Y-97.7
X153.9Y-99.2
X154.8Y-104.2
X154.9Y-93.3
X154.9Y-94.6
X154.9Y-96.1
X154.9Y-97.7
X154.9Y-99.2
X154.9Y-100.7
X155.4Y-115.3
X155.9Y-93.3
X155.9Y-94.6
X155.9Y-96.1
X155.9Y-97.7
X155.9Y-99.2
X155.9Y-100.7
X156.3Y-112.2
X156.4Y-115.3
X156.9Y-93.3
X156.9Y-94.6
X156.9Y-96.1
X156.9Y-97.7
X156.9Y-99.2
X156.9Y-100.7
X157.5Y-112.5
X157.5Y-113.5
X157.5Y-114.5
X157.5Y-115.5
X157.9Y-93.3
X158.5Y-112.5
X158.5Y-113.5
X158.5Y-114.5
X158.5Y-115.5
X158.9Y-93.3
X159.5Y-112.5
X159.5Y-113.5
X159.5Y-114.5
X159.5Y-115.5
X159.9Y-93.3
X159.9Y-104.5
X160.5Y-112.5
X160.5Y-113.5
X160.5Y-114.5
X160.5Y-115.5
X160.9Y-93.3
X160.9Y-104.5
X161.5Y-112.5
X161.5Y-113.5
X161.5Y-114.5
X161.5Y-115.5
X161.9Y-93.3
X161.9Y-104.5
X161.9Y-105.5
X161.9Y-106.5
X162.5Y-112.5
X162.5Y-113.5
X162.5Y-114.5
X162.5Y-115.5
X162.9Y-93.3
X162.9Y-104.5
X162.9Y-105.5
X162.9Y-106.5
X163.9Y-93.3
X163.9Y-94.5
X163.9Y-95.5
X163.9Y-96.5
X163.9Y-97.5
X163.9Y-98.5
X163.9Y-99.5
X163.9Y-100.5
X163.9Y-101.5
X163.9Y-102.5
X163.9Y-103.5
X163.9Y-104.5
X163.9Y-105.5
X163.9Y-106.5
X163.9Y-111.5
X163.9Y-112.5
X163.9Y-113.5
X163.9Y-114.5
X163.9Y-115.5
X164.9Y-93.3
X164.9Y-94.5
X164.9Y-95.5
X164.9Y-96.5
X164.9Y-97.5
X164.9Y-98.5
X164.9Y-99.5
X164.9Y-100.5
X164.9Y-101.5
X164.9Y-102.5
X164.9Y-103.5
X164.9Y-104.5
X164.9Y-105.5
X164.9Y-106.5
X164.9Y-111.5
X164.9Y-112.5
X164.9Y-113.5
X164.9Y-114.5
X164.9Y-115.5
X165.9Y-93.3
X165.9Y-94.5
X165.9Y-95.5
X165.9Y-96.5
X165.9Y-97.5
X165.9Y-98.5
X165.9Y-99.5
X165.9Y-100.5
X165.9Y-101.5
X165.9Y-102.5
X165.9Y-103.5
X165.9Y-104.5
X165.9Y-105.5
X165.9Y-106.5
X165.9Y-107.5
X165.9Y-110.5
X165.9Y-111.5
X165.9Y-112.5
X165.9Y-113.5
X165.9Y-114.5
X165.9Y-115.5
X166.9Y-93.3
X166.9Y-94.5
X166.9Y-95.5
X166.9Y-96.5
X166.9Y-97.5
X166.9Y-98.5
X166.9Y-99.5
X166.9Y-100.5
X166.9Y-101.5
X166.9Y-102.5
X166.9Y-103.5
X166.9Y-104.5
X166.9Y-105.5
X166.9Y-106.5
X166.9Y-107.5
X166.9Y-108.5
X166.9Y-109.5
X166.9Y-110.5
X166.9Y-111.5
X166.9Y-112.5
X166.9Y-113.5
X166.9Y-114.5
X166.9Y-115.5
X167.9Y-93.3
X167.9Y-94.5
X167.9Y-95.5
X167.9Y-96.5
X167.9Y-97.5
X167.9Y-98.5
X167.9Y-99.5
X167.9Y-100.5
X167.9Y-101.5
X167.9Y-102.5
X167.9Y-103.5
X167.9Y-104.5
X167.9Y-105.5
X167.9Y-106.5
X167.9Y-107.5
X167.9Y-108.5
X167.9Y-109.5
X167.9Y-110.5
X167.9Y-111.5
X167.9Y-112.5
X167.9Y-113.5
X167.9Y-114.5
X167.9Y-115.5
T2
X138.Y-98.6
X140.6Y-101.8
X140.7Y-98.1
X148.8Y-108.3
X151.648Y-114.252
X152.Y-105.4
T3
X151.238Y-108.238
X151.238Y-109.762
X152.Y-109.
X152.762Y-108.238
X152.762Y-109.762
T4
X140.Y-109.
X164.Y-109.
T0
M30
