G04 #@! TF.FileFunction,Legend,Bot*
%FSLAX46Y46*%
G04 Gerber Fmt 4.6, Leading zero omitted, Abs format (unit mm)*
G04 Created by KiCad (PCBNEW 4.0.6-e0-6349~53~ubuntu16.04.1) date Sat Jul 29 16:25:42 2017*
%MOMM*%
%LPD*%
G01*
G04 APERTURE LIST*
%ADD10C,0.150000*%
%ADD11C,0.300000*%
G04 APERTURE END LIST*
D10*
D11*
X148514286Y-113350000D02*
X148657143Y-113278571D01*
X148871429Y-113278571D01*
X149085714Y-113350000D01*
X149228572Y-113492857D01*
X149300000Y-113635714D01*
X149371429Y-113921429D01*
X149371429Y-114135714D01*
X149300000Y-114421429D01*
X149228572Y-114564286D01*
X149085714Y-114707143D01*
X148871429Y-114778571D01*
X148728572Y-114778571D01*
X148514286Y-114707143D01*
X148442857Y-114635714D01*
X148442857Y-114135714D01*
X148728572Y-114135714D01*
X147800000Y-114778571D02*
X147800000Y-113278571D01*
X147228572Y-113278571D01*
X147085714Y-113350000D01*
X147014286Y-113421429D01*
X146942857Y-113564286D01*
X146942857Y-113778571D01*
X147014286Y-113921429D01*
X147085714Y-113992857D01*
X147228572Y-114064286D01*
X147800000Y-114064286D01*
X145585714Y-114778571D02*
X146300000Y-114778571D01*
X146300000Y-113278571D01*
X143228571Y-114778571D02*
X143942857Y-114778571D01*
X143942857Y-113278571D01*
X142728571Y-114778571D02*
X142728571Y-113778571D01*
X142728571Y-113278571D02*
X142800000Y-113350000D01*
X142728571Y-113421429D01*
X142657143Y-113350000D01*
X142728571Y-113278571D01*
X142728571Y-113421429D01*
X141371428Y-114707143D02*
X141514285Y-114778571D01*
X141799999Y-114778571D01*
X141942857Y-114707143D01*
X142014285Y-114635714D01*
X142085714Y-114492857D01*
X142085714Y-114064286D01*
X142014285Y-113921429D01*
X141942857Y-113850000D01*
X141799999Y-113778571D01*
X141514285Y-113778571D01*
X141371428Y-113850000D01*
X140157143Y-114707143D02*
X140300000Y-114778571D01*
X140585714Y-114778571D01*
X140728571Y-114707143D01*
X140800000Y-114564286D01*
X140800000Y-113992857D01*
X140728571Y-113850000D01*
X140585714Y-113778571D01*
X140300000Y-113778571D01*
X140157143Y-113850000D01*
X140085714Y-113992857D01*
X140085714Y-114135714D01*
X140800000Y-114278571D01*
X139442857Y-113778571D02*
X139442857Y-114778571D01*
X139442857Y-113921429D02*
X139371429Y-113850000D01*
X139228571Y-113778571D01*
X139014286Y-113778571D01*
X138871429Y-113850000D01*
X138800000Y-113992857D01*
X138800000Y-114778571D01*
X138157143Y-114707143D02*
X138014286Y-114778571D01*
X137728571Y-114778571D01*
X137585714Y-114707143D01*
X137514286Y-114564286D01*
X137514286Y-114492857D01*
X137585714Y-114350000D01*
X137728571Y-114278571D01*
X137942857Y-114278571D01*
X138085714Y-114207143D01*
X138157143Y-114064286D01*
X138157143Y-113992857D01*
X138085714Y-113850000D01*
X137942857Y-113778571D01*
X137728571Y-113778571D01*
X137585714Y-113850000D01*
X136300000Y-114707143D02*
X136442857Y-114778571D01*
X136728571Y-114778571D01*
X136871428Y-114707143D01*
X136942857Y-114564286D01*
X136942857Y-113992857D01*
X136871428Y-113850000D01*
X136728571Y-113778571D01*
X136442857Y-113778571D01*
X136300000Y-113850000D01*
X136228571Y-113992857D01*
X136228571Y-114135714D01*
X136942857Y-114278571D01*
D10*
X159838096Y-104152381D02*
X159838096Y-103628571D01*
X159885715Y-103533333D01*
X159980953Y-103485714D01*
X160171430Y-103485714D01*
X160266668Y-103533333D01*
X159838096Y-104104762D02*
X159933334Y-104152381D01*
X160171430Y-104152381D01*
X160266668Y-104104762D01*
X160314287Y-104009524D01*
X160314287Y-103914286D01*
X160266668Y-103819048D01*
X160171430Y-103771429D01*
X159933334Y-103771429D01*
X159838096Y-103723810D01*
X158933334Y-104104762D02*
X159028572Y-104152381D01*
X159219049Y-104152381D01*
X159314287Y-104104762D01*
X159361906Y-104057143D01*
X159409525Y-103961905D01*
X159409525Y-103676190D01*
X159361906Y-103580952D01*
X159314287Y-103533333D01*
X159219049Y-103485714D01*
X159028572Y-103485714D01*
X158933334Y-103533333D01*
X158076191Y-104104762D02*
X158171429Y-104152381D01*
X158361906Y-104152381D01*
X158457144Y-104104762D01*
X158504763Y-104057143D01*
X158552382Y-103961905D01*
X158552382Y-103676190D01*
X158504763Y-103580952D01*
X158457144Y-103533333D01*
X158361906Y-103485714D01*
X158171429Y-103485714D01*
X158076191Y-103533333D01*
X157266667Y-104104762D02*
X157361905Y-104152381D01*
X157552382Y-104152381D01*
X157647620Y-104104762D01*
X157695239Y-104009524D01*
X157695239Y-103628571D01*
X157647620Y-103533333D01*
X157552382Y-103485714D01*
X157361905Y-103485714D01*
X157266667Y-103533333D01*
X157219048Y-103628571D01*
X157219048Y-103723810D01*
X157695239Y-103819048D01*
X156647620Y-104152381D02*
X156742858Y-104104762D01*
X156790477Y-104009524D01*
X156790477Y-103152381D01*
X155838095Y-103485714D02*
X155838095Y-104295238D01*
X155885714Y-104390476D01*
X155933333Y-104438095D01*
X156028572Y-104485714D01*
X156171429Y-104485714D01*
X156266667Y-104438095D01*
X155838095Y-104104762D02*
X155933333Y-104152381D01*
X156123810Y-104152381D01*
X156219048Y-104104762D01*
X156266667Y-104057143D01*
X156314286Y-103961905D01*
X156314286Y-103676190D01*
X156266667Y-103580952D01*
X156219048Y-103533333D01*
X156123810Y-103485714D01*
X155933333Y-103485714D01*
X155838095Y-103533333D01*
X155457143Y-103485714D02*
X155219048Y-104152381D01*
X154980952Y-103485714D02*
X155219048Y-104152381D01*
X155314286Y-104390476D01*
X155361905Y-104438095D01*
X155457143Y-104485714D01*
X154600000Y-104152381D02*
X154600000Y-103485714D01*
X154600000Y-103676190D02*
X154552381Y-103580952D01*
X154504762Y-103533333D01*
X154409524Y-103485714D01*
X154314285Y-103485714D01*
X153838095Y-104152381D02*
X153933333Y-104104762D01*
X153980952Y-104057143D01*
X154028571Y-103961905D01*
X154028571Y-103676190D01*
X153980952Y-103580952D01*
X153933333Y-103533333D01*
X153838095Y-103485714D01*
X153695237Y-103485714D01*
X153599999Y-103533333D01*
X153552380Y-103580952D01*
X153504761Y-103676190D01*
X153504761Y-103961905D01*
X153552380Y-104057143D01*
X153599999Y-104104762D01*
X153695237Y-104152381D01*
X153838095Y-104152381D01*
X153314285Y-104247619D02*
X152552380Y-104247619D01*
X152314285Y-104152381D02*
X152314285Y-103485714D01*
X152314285Y-103580952D02*
X152266666Y-103533333D01*
X152171428Y-103485714D01*
X152028570Y-103485714D01*
X151933332Y-103533333D01*
X151885713Y-103628571D01*
X151885713Y-104152381D01*
X151885713Y-103628571D02*
X151838094Y-103533333D01*
X151742856Y-103485714D01*
X151599999Y-103485714D01*
X151504761Y-103533333D01*
X151457142Y-103628571D01*
X151457142Y-104152381D01*
X150980952Y-103485714D02*
X150980952Y-104485714D01*
X150980952Y-103533333D02*
X150885714Y-103485714D01*
X150695237Y-103485714D01*
X150599999Y-103533333D01*
X150552380Y-103580952D01*
X150504761Y-103676190D01*
X150504761Y-103961905D01*
X150552380Y-104057143D01*
X150599999Y-104104762D01*
X150695237Y-104152381D01*
X150885714Y-104152381D01*
X150980952Y-104104762D01*
X149647618Y-103485714D02*
X149647618Y-104152381D01*
X150076190Y-103485714D02*
X150076190Y-104009524D01*
X150028571Y-104104762D01*
X149933333Y-104152381D01*
X149790475Y-104152381D01*
X149695237Y-104104762D01*
X149647618Y-104057143D01*
X149123809Y-104152381D02*
X148933333Y-104152381D01*
X148838094Y-104104762D01*
X148790475Y-104057143D01*
X148695237Y-103914286D01*
X148647618Y-103723810D01*
X148647618Y-103342857D01*
X148695237Y-103247619D01*
X148742856Y-103200000D01*
X148838094Y-103152381D01*
X149028571Y-103152381D01*
X149123809Y-103200000D01*
X149171428Y-103247619D01*
X149219047Y-103342857D01*
X149219047Y-103580952D01*
X149171428Y-103676190D01*
X149123809Y-103723810D01*
X149028571Y-103771429D01*
X148838094Y-103771429D01*
X148742856Y-103723810D01*
X148695237Y-103676190D01*
X148647618Y-103580952D01*
X148266666Y-103247619D02*
X148219047Y-103200000D01*
X148123809Y-103152381D01*
X147885713Y-103152381D01*
X147790475Y-103200000D01*
X147742856Y-103247619D01*
X147695237Y-103342857D01*
X147695237Y-103438095D01*
X147742856Y-103580952D01*
X148314285Y-104152381D01*
X147695237Y-104152381D01*
X146790475Y-103152381D02*
X147266666Y-103152381D01*
X147314285Y-103628571D01*
X147266666Y-103580952D01*
X147171428Y-103533333D01*
X146933332Y-103533333D01*
X146838094Y-103580952D01*
X146790475Y-103628571D01*
X146742856Y-103723810D01*
X146742856Y-103961905D01*
X146790475Y-104057143D01*
X146838094Y-104104762D01*
X146933332Y-104152381D01*
X147171428Y-104152381D01*
X147266666Y-104104762D01*
X147314285Y-104057143D01*
X146123809Y-103152381D02*
X146028570Y-103152381D01*
X145933332Y-103200000D01*
X145885713Y-103247619D01*
X145838094Y-103342857D01*
X145790475Y-103533333D01*
X145790475Y-103771429D01*
X145838094Y-103961905D01*
X145885713Y-104057143D01*
X145933332Y-104104762D01*
X146028570Y-104152381D01*
X146123809Y-104152381D01*
X146219047Y-104104762D01*
X146266666Y-104057143D01*
X146314285Y-103961905D01*
X146361904Y-103771429D01*
X146361904Y-103533333D01*
X146314285Y-103342857D01*
X146266666Y-103247619D01*
X146219047Y-103200000D01*
X146123809Y-103152381D01*
X145599999Y-104247619D02*
X144838094Y-104247619D01*
X144599999Y-104152381D02*
X144599999Y-103485714D01*
X144599999Y-103676190D02*
X144552380Y-103580952D01*
X144504761Y-103533333D01*
X144409523Y-103485714D01*
X144314284Y-103485714D01*
X143599998Y-104104762D02*
X143695236Y-104152381D01*
X143885713Y-104152381D01*
X143980951Y-104104762D01*
X144028570Y-104009524D01*
X144028570Y-103628571D01*
X143980951Y-103533333D01*
X143885713Y-103485714D01*
X143695236Y-103485714D01*
X143599998Y-103533333D01*
X143552379Y-103628571D01*
X143552379Y-103723810D01*
X144028570Y-103819048D01*
X143219046Y-103485714D02*
X142980951Y-104152381D01*
X142742855Y-103485714D01*
X142171427Y-103152381D02*
X142076188Y-103152381D01*
X141980950Y-103200000D01*
X141933331Y-103247619D01*
X141885712Y-103342857D01*
X141838093Y-103533333D01*
X141838093Y-103771429D01*
X141885712Y-103961905D01*
X141933331Y-104057143D01*
X141980950Y-104104762D01*
X142076188Y-104152381D01*
X142171427Y-104152381D01*
X142266665Y-104104762D01*
X142314284Y-104057143D01*
X142361903Y-103961905D01*
X142409522Y-103771429D01*
X142409522Y-103533333D01*
X142361903Y-103342857D01*
X142314284Y-103247619D01*
X142266665Y-103200000D01*
X142171427Y-103152381D01*
X140885712Y-104152381D02*
X141457141Y-104152381D01*
X141171427Y-104152381D02*
X141171427Y-103152381D01*
X141266665Y-103295238D01*
X141361903Y-103390476D01*
X141457141Y-103438095D01*
M02*
