G04 (created by pcbnew (20090530 SVN-R1798)) date Sat 01 Aug 2009 03:12:29 AM PDT*
G01*
G70*
G90*
%MOIN*%
G04 Gerber Fmt 3.4, Leading zero omitted, Abs format*
%FSLAX34Y34*%
G04 APERTURE LIST*
%ADD10C,0.010000*%
%ADD11C,0.078700*%
%ADD12R,0.055000X0.055000*%
%ADD13R,0.070000X0.070000*%
%ADD14C,0.070000*%
%ADD15R,0.120000X0.120000*%
%ADD16C,0.120000*%
%ADD17C,0.045000*%
%ADD18C,0.080000*%
%ADD19C,0.040000*%
%ADD20C,0.020000*%
%ADD21C,0.010000*%
%ADD22C,0.012000*%
%ADD23C,0.055000*%
%ADD24R,0.055000X0.035000*%
%ADD25R,0.035000X0.055000*%
%ADD26R,0.024000X0.086900*%
%ADD27R,0.039400X0.078700*%
%ADD28R,0.033500X0.033500*%
%ADD29C,0.050000*%
%ADD30C,0.030000*%
G04 APERTURE END LIST*
G54D10*
X29054Y-68637D02*
X29035Y-68599D01*
X29035Y-68599D02*
X28997Y-68561D01*
X28997Y-68561D02*
X28959Y-68542D01*
X28959Y-68542D02*
X28882Y-68542D01*
X28882Y-68542D02*
X28844Y-68561D01*
X28844Y-68561D02*
X28806Y-68599D01*
X28806Y-68599D02*
X28787Y-68637D01*
X28787Y-68637D02*
X28768Y-68694D01*
X28768Y-68694D02*
X28768Y-68790D01*
X28768Y-68790D02*
X28787Y-68847D01*
X28787Y-68847D02*
X28806Y-68885D01*
X28806Y-68885D02*
X28844Y-68923D01*
X28844Y-68923D02*
X28882Y-68942D01*
X28882Y-68942D02*
X28959Y-68942D01*
X28959Y-68942D02*
X28997Y-68923D01*
X28997Y-68923D02*
X29035Y-68885D01*
X29035Y-68885D02*
X29054Y-68847D01*
X29054Y-68847D02*
X29054Y-68790D01*
X28959Y-68790D02*
X29054Y-68790D01*
X29187Y-68542D02*
X29187Y-68942D01*
X29187Y-68542D02*
X29454Y-68942D01*
X29454Y-68542D02*
X29454Y-68942D01*
X29606Y-68542D02*
X29606Y-68942D01*
X29606Y-68542D02*
X29740Y-68542D01*
X29740Y-68542D02*
X29797Y-68561D01*
X29797Y-68561D02*
X29835Y-68599D01*
X29835Y-68599D02*
X29854Y-68637D01*
X29854Y-68637D02*
X29873Y-68694D01*
X29873Y-68694D02*
X29873Y-68790D01*
X29873Y-68790D02*
X29854Y-68847D01*
X29854Y-68847D02*
X29835Y-68885D01*
X29835Y-68885D02*
X29797Y-68923D01*
X29797Y-68923D02*
X29740Y-68942D01*
X29740Y-68942D02*
X29606Y-68942D01*
X17989Y-66088D02*
X17989Y-66774D01*
X17817Y-66431D02*
X18160Y-66431D01*
X18522Y-65974D02*
X18331Y-65974D01*
X18331Y-65974D02*
X18312Y-66317D01*
X18312Y-66317D02*
X18331Y-66279D01*
X18331Y-66279D02*
X18388Y-66240D01*
X18388Y-66240D02*
X18446Y-66240D01*
X18446Y-66240D02*
X18503Y-66279D01*
X18503Y-66279D02*
X18541Y-66355D01*
X18541Y-66355D02*
X18560Y-66469D01*
X18560Y-66469D02*
X18560Y-66545D01*
X18560Y-66545D02*
X18541Y-66660D01*
X18541Y-66660D02*
X18503Y-66736D01*
X18503Y-66736D02*
X18446Y-66774D01*
X18446Y-66774D02*
X18388Y-66774D01*
X18388Y-66774D02*
X18331Y-66736D01*
X18331Y-66736D02*
X18312Y-66698D01*
X18312Y-66698D02*
X18293Y-66621D01*
X18636Y-65974D02*
X18788Y-66774D01*
X18941Y-65974D02*
X18788Y-66774D01*
X16234Y-66814D02*
X16215Y-66738D01*
X16215Y-66738D02*
X16177Y-66662D01*
X16177Y-66662D02*
X16139Y-66624D01*
X16139Y-66624D02*
X16062Y-66624D01*
X16062Y-66624D02*
X16024Y-66662D01*
X16024Y-66662D02*
X15986Y-66738D01*
X15986Y-66738D02*
X15967Y-66814D01*
X15967Y-66814D02*
X15948Y-66929D01*
X15948Y-66929D02*
X15948Y-67119D01*
X15948Y-67119D02*
X15967Y-67233D01*
X15967Y-67233D02*
X15986Y-67310D01*
X15986Y-67310D02*
X16024Y-67386D01*
X16024Y-67386D02*
X16062Y-67424D01*
X16062Y-67424D02*
X16139Y-67424D01*
X16139Y-67424D02*
X16177Y-67386D01*
X16177Y-67386D02*
X16215Y-67310D01*
X16215Y-67310D02*
X16234Y-67233D01*
X16234Y-67233D02*
X16234Y-67119D01*
X16139Y-67119D02*
X16234Y-67119D01*
X16367Y-66624D02*
X16367Y-67424D01*
X16367Y-66624D02*
X16634Y-67424D01*
X16634Y-66624D02*
X16634Y-67424D01*
X16786Y-66624D02*
X16786Y-67424D01*
X16786Y-66624D02*
X16920Y-66624D01*
X16920Y-66624D02*
X16977Y-66662D01*
X16977Y-66662D02*
X17015Y-66738D01*
X17015Y-66738D02*
X17034Y-66814D01*
X17034Y-66814D02*
X17053Y-66929D01*
X17053Y-66929D02*
X17053Y-67119D01*
X17053Y-67119D02*
X17034Y-67233D01*
X17034Y-67233D02*
X17015Y-67310D01*
X17015Y-67310D02*
X16977Y-67386D01*
X16977Y-67386D02*
X16920Y-67424D01*
X16920Y-67424D02*
X16786Y-67424D01*
G54D22*
X10797Y-63268D02*
X10797Y-63954D01*
X10540Y-63611D02*
X11055Y-63611D01*
X11283Y-63344D02*
X11283Y-63306D01*
X11283Y-63306D02*
X11312Y-63230D01*
X11312Y-63230D02*
X11340Y-63192D01*
X11340Y-63192D02*
X11398Y-63154D01*
X11398Y-63154D02*
X11512Y-63154D01*
X11512Y-63154D02*
X11569Y-63192D01*
X11569Y-63192D02*
X11598Y-63230D01*
X11598Y-63230D02*
X11626Y-63306D01*
X11626Y-63306D02*
X11626Y-63382D01*
X11626Y-63382D02*
X11598Y-63459D01*
X11598Y-63459D02*
X11540Y-63573D01*
X11540Y-63573D02*
X11255Y-63954D01*
X11255Y-63954D02*
X11655Y-63954D01*
X12111Y-63154D02*
X11826Y-63687D01*
X11826Y-63687D02*
X12254Y-63687D01*
X12111Y-63154D02*
X12111Y-63954D01*
X12340Y-63154D02*
X12568Y-63954D01*
X12797Y-63154D02*
X12568Y-63954D01*
X33170Y-66138D02*
X33170Y-66824D01*
X32913Y-66481D02*
X33428Y-66481D01*
X30412Y-50458D02*
X30412Y-51144D01*
X30155Y-50801D02*
X30670Y-50801D01*
X30898Y-50534D02*
X30898Y-50496D01*
X30898Y-50496D02*
X30927Y-50420D01*
X30927Y-50420D02*
X30955Y-50382D01*
X30955Y-50382D02*
X31013Y-50344D01*
X31013Y-50344D02*
X31127Y-50344D01*
X31127Y-50344D02*
X31184Y-50382D01*
X31184Y-50382D02*
X31213Y-50420D01*
X31213Y-50420D02*
X31241Y-50496D01*
X31241Y-50496D02*
X31241Y-50572D01*
X31241Y-50572D02*
X31213Y-50649D01*
X31213Y-50649D02*
X31155Y-50763D01*
X31155Y-50763D02*
X30870Y-51144D01*
X30870Y-51144D02*
X31270Y-51144D01*
X31726Y-50344D02*
X31441Y-50877D01*
X31441Y-50877D02*
X31869Y-50877D01*
X31726Y-50344D02*
X31726Y-51144D01*
X31955Y-50344D02*
X32183Y-51144D01*
X32412Y-50344D02*
X32183Y-51144D01*
X29872Y-69314D02*
X30100Y-70114D01*
X30329Y-69314D02*
X30100Y-70114D01*
X30471Y-69314D02*
X30471Y-70114D01*
X30700Y-69314D02*
X30700Y-70114D01*
X30700Y-69314D02*
X30900Y-69314D01*
X30900Y-69314D02*
X30986Y-69352D01*
X30986Y-69352D02*
X31043Y-69428D01*
X31043Y-69428D02*
X31072Y-69504D01*
X31072Y-69504D02*
X31100Y-69619D01*
X31100Y-69619D02*
X31100Y-69809D01*
X31100Y-69809D02*
X31072Y-69923D01*
X31072Y-69923D02*
X31043Y-70000D01*
X31043Y-70000D02*
X30986Y-70076D01*
X30986Y-70076D02*
X30900Y-70114D01*
X30900Y-70114D02*
X30700Y-70114D01*
X31300Y-69314D02*
X31300Y-70114D01*
X31300Y-69314D02*
X31672Y-69314D01*
X31300Y-69695D02*
X31529Y-69695D01*
X31300Y-70114D02*
X31672Y-70114D01*
X31986Y-69314D02*
X31929Y-69352D01*
X31929Y-69352D02*
X31872Y-69428D01*
X31872Y-69428D02*
X31843Y-69504D01*
X31843Y-69504D02*
X31815Y-69619D01*
X31815Y-69619D02*
X31815Y-69809D01*
X31815Y-69809D02*
X31843Y-69923D01*
X31843Y-69923D02*
X31872Y-70000D01*
X31872Y-70000D02*
X31929Y-70076D01*
X31929Y-70076D02*
X31986Y-70114D01*
X31986Y-70114D02*
X32100Y-70114D01*
X32100Y-70114D02*
X32158Y-70076D01*
X32158Y-70076D02*
X32215Y-70000D01*
X32215Y-70000D02*
X32243Y-69923D01*
X32243Y-69923D02*
X32272Y-69809D01*
X32272Y-69809D02*
X32272Y-69619D01*
X32272Y-69619D02*
X32243Y-69504D01*
X32243Y-69504D02*
X32215Y-69428D01*
X32215Y-69428D02*
X32158Y-69352D01*
X32158Y-69352D02*
X32100Y-69314D01*
X32100Y-69314D02*
X31986Y-69314D01*
X30500Y-70474D02*
X30443Y-70512D01*
X30443Y-70512D02*
X30386Y-70588D01*
X30386Y-70588D02*
X30357Y-70664D01*
X30357Y-70664D02*
X30329Y-70779D01*
X30329Y-70779D02*
X30329Y-70969D01*
X30329Y-70969D02*
X30357Y-71083D01*
X30357Y-71083D02*
X30386Y-71160D01*
X30386Y-71160D02*
X30443Y-71236D01*
X30443Y-71236D02*
X30500Y-71274D01*
X30500Y-71274D02*
X30614Y-71274D01*
X30614Y-71274D02*
X30672Y-71236D01*
X30672Y-71236D02*
X30729Y-71160D01*
X30729Y-71160D02*
X30757Y-71083D01*
X30757Y-71083D02*
X30786Y-70969D01*
X30786Y-70969D02*
X30786Y-70779D01*
X30786Y-70779D02*
X30757Y-70664D01*
X30757Y-70664D02*
X30729Y-70588D01*
X30729Y-70588D02*
X30672Y-70512D01*
X30672Y-70512D02*
X30614Y-70474D01*
X30614Y-70474D02*
X30500Y-70474D01*
X30986Y-70474D02*
X30986Y-71045D01*
X30986Y-71045D02*
X31015Y-71160D01*
X31015Y-71160D02*
X31072Y-71236D01*
X31072Y-71236D02*
X31158Y-71274D01*
X31158Y-71274D02*
X31215Y-71274D01*
X31215Y-71274D02*
X31301Y-71236D01*
X31301Y-71236D02*
X31358Y-71160D01*
X31358Y-71160D02*
X31386Y-71045D01*
X31386Y-71045D02*
X31386Y-70474D01*
X31730Y-70474D02*
X31730Y-71274D01*
X31530Y-70474D02*
X31930Y-70474D01*
X27816Y-47874D02*
X27816Y-48674D01*
X27616Y-47874D02*
X28016Y-47874D01*
X28301Y-47874D02*
X28244Y-47912D01*
X28244Y-47912D02*
X28187Y-47988D01*
X28187Y-47988D02*
X28158Y-48064D01*
X28158Y-48064D02*
X28130Y-48179D01*
X28130Y-48179D02*
X28130Y-48369D01*
X28130Y-48369D02*
X28158Y-48483D01*
X28158Y-48483D02*
X28187Y-48560D01*
X28187Y-48560D02*
X28244Y-48636D01*
X28244Y-48636D02*
X28301Y-48674D01*
X28301Y-48674D02*
X28415Y-48674D01*
X28415Y-48674D02*
X28473Y-48636D01*
X28473Y-48636D02*
X28530Y-48560D01*
X28530Y-48560D02*
X28558Y-48483D01*
X28558Y-48483D02*
X28587Y-48369D01*
X28587Y-48369D02*
X28587Y-48179D01*
X28587Y-48179D02*
X28558Y-48064D01*
X28558Y-48064D02*
X28530Y-47988D01*
X28530Y-47988D02*
X28473Y-47912D01*
X28473Y-47912D02*
X28415Y-47874D01*
X28415Y-47874D02*
X28301Y-47874D01*
X26744Y-49034D02*
X26744Y-49834D01*
X26744Y-49034D02*
X26973Y-49834D01*
X27201Y-49034D02*
X26973Y-49834D01*
X27201Y-49034D02*
X27201Y-49834D01*
X27573Y-49034D02*
X27516Y-49072D01*
X27516Y-49072D02*
X27459Y-49148D01*
X27459Y-49148D02*
X27430Y-49224D01*
X27430Y-49224D02*
X27402Y-49339D01*
X27402Y-49339D02*
X27402Y-49529D01*
X27402Y-49529D02*
X27430Y-49643D01*
X27430Y-49643D02*
X27459Y-49720D01*
X27459Y-49720D02*
X27516Y-49796D01*
X27516Y-49796D02*
X27573Y-49834D01*
X27573Y-49834D02*
X27687Y-49834D01*
X27687Y-49834D02*
X27745Y-49796D01*
X27745Y-49796D02*
X27802Y-49720D01*
X27802Y-49720D02*
X27830Y-49643D01*
X27830Y-49643D02*
X27859Y-49529D01*
X27859Y-49529D02*
X27859Y-49339D01*
X27859Y-49339D02*
X27830Y-49224D01*
X27830Y-49224D02*
X27802Y-49148D01*
X27802Y-49148D02*
X27745Y-49072D01*
X27745Y-49072D02*
X27687Y-49034D01*
X27687Y-49034D02*
X27573Y-49034D01*
X28174Y-49034D02*
X28174Y-49834D01*
X27974Y-49034D02*
X28374Y-49034D01*
X28659Y-49034D02*
X28602Y-49072D01*
X28602Y-49072D02*
X28545Y-49148D01*
X28545Y-49148D02*
X28516Y-49224D01*
X28516Y-49224D02*
X28488Y-49339D01*
X28488Y-49339D02*
X28488Y-49529D01*
X28488Y-49529D02*
X28516Y-49643D01*
X28516Y-49643D02*
X28545Y-49720D01*
X28545Y-49720D02*
X28602Y-49796D01*
X28602Y-49796D02*
X28659Y-49834D01*
X28659Y-49834D02*
X28773Y-49834D01*
X28773Y-49834D02*
X28831Y-49796D01*
X28831Y-49796D02*
X28888Y-49720D01*
X28888Y-49720D02*
X28916Y-49643D01*
X28916Y-49643D02*
X28945Y-49529D01*
X28945Y-49529D02*
X28945Y-49339D01*
X28945Y-49339D02*
X28916Y-49224D01*
X28916Y-49224D02*
X28888Y-49148D01*
X28888Y-49148D02*
X28831Y-49072D01*
X28831Y-49072D02*
X28773Y-49034D01*
X28773Y-49034D02*
X28659Y-49034D01*
X29145Y-49034D02*
X29145Y-49834D01*
X29145Y-49034D02*
X29402Y-49034D01*
X29402Y-49034D02*
X29488Y-49072D01*
X29488Y-49072D02*
X29517Y-49110D01*
X29517Y-49110D02*
X29545Y-49186D01*
X29545Y-49186D02*
X29545Y-49262D01*
X29545Y-49262D02*
X29517Y-49339D01*
X29517Y-49339D02*
X29488Y-49377D01*
X29488Y-49377D02*
X29402Y-49415D01*
X29402Y-49415D02*
X29145Y-49415D01*
X29345Y-49415D02*
X29545Y-49834D01*
X20778Y-49648D02*
X20721Y-49572D01*
X20721Y-49572D02*
X20635Y-49534D01*
X20635Y-49534D02*
X20521Y-49534D01*
X20521Y-49534D02*
X20435Y-49572D01*
X20435Y-49572D02*
X20378Y-49648D01*
X20378Y-49648D02*
X20378Y-49724D01*
X20378Y-49724D02*
X20406Y-49800D01*
X20406Y-49800D02*
X20435Y-49839D01*
X20435Y-49839D02*
X20492Y-49877D01*
X20492Y-49877D02*
X20663Y-49953D01*
X20663Y-49953D02*
X20721Y-49991D01*
X20721Y-49991D02*
X20749Y-50029D01*
X20749Y-50029D02*
X20778Y-50105D01*
X20778Y-50105D02*
X20778Y-50220D01*
X20778Y-50220D02*
X20721Y-50296D01*
X20721Y-50296D02*
X20635Y-50334D01*
X20635Y-50334D02*
X20521Y-50334D01*
X20521Y-50334D02*
X20435Y-50296D01*
X20435Y-50296D02*
X20378Y-50220D01*
X20977Y-49534D02*
X20977Y-50334D01*
X20977Y-49534D02*
X21234Y-49534D01*
X21234Y-49534D02*
X21320Y-49572D01*
X21320Y-49572D02*
X21349Y-49610D01*
X21349Y-49610D02*
X21377Y-49686D01*
X21377Y-49686D02*
X21377Y-49800D01*
X21377Y-49800D02*
X21349Y-49877D01*
X21349Y-49877D02*
X21320Y-49915D01*
X21320Y-49915D02*
X21234Y-49953D01*
X21234Y-49953D02*
X20977Y-49953D01*
X21577Y-49534D02*
X21577Y-50334D01*
X21577Y-49534D02*
X21949Y-49534D01*
X21577Y-49915D02*
X21806Y-49915D01*
X21577Y-50334D02*
X21949Y-50334D01*
X22120Y-49534D02*
X22120Y-50334D01*
X22120Y-49534D02*
X22492Y-49534D01*
X22120Y-49915D02*
X22349Y-49915D01*
X22120Y-50334D02*
X22492Y-50334D01*
X22663Y-49534D02*
X22663Y-50334D01*
X22663Y-49534D02*
X22863Y-49534D01*
X22863Y-49534D02*
X22949Y-49572D01*
X22949Y-49572D02*
X23006Y-49648D01*
X23006Y-49648D02*
X23035Y-49724D01*
X23035Y-49724D02*
X23063Y-49839D01*
X23063Y-49839D02*
X23063Y-50029D01*
X23063Y-50029D02*
X23035Y-50143D01*
X23035Y-50143D02*
X23006Y-50220D01*
X23006Y-50220D02*
X22949Y-50296D01*
X22949Y-50296D02*
X22863Y-50334D01*
X22863Y-50334D02*
X22663Y-50334D01*
X20334Y-48434D02*
X20334Y-49234D01*
X20334Y-48434D02*
X20563Y-49234D01*
X20791Y-48434D02*
X20563Y-49234D01*
X20791Y-48434D02*
X20791Y-49234D01*
X21163Y-48434D02*
X21106Y-48472D01*
X21106Y-48472D02*
X21049Y-48548D01*
X21049Y-48548D02*
X21020Y-48624D01*
X21020Y-48624D02*
X20992Y-48739D01*
X20992Y-48739D02*
X20992Y-48929D01*
X20992Y-48929D02*
X21020Y-49043D01*
X21020Y-49043D02*
X21049Y-49120D01*
X21049Y-49120D02*
X21106Y-49196D01*
X21106Y-49196D02*
X21163Y-49234D01*
X21163Y-49234D02*
X21277Y-49234D01*
X21277Y-49234D02*
X21335Y-49196D01*
X21335Y-49196D02*
X21392Y-49120D01*
X21392Y-49120D02*
X21420Y-49043D01*
X21420Y-49043D02*
X21449Y-48929D01*
X21449Y-48929D02*
X21449Y-48739D01*
X21449Y-48739D02*
X21420Y-48624D01*
X21420Y-48624D02*
X21392Y-48548D01*
X21392Y-48548D02*
X21335Y-48472D01*
X21335Y-48472D02*
X21277Y-48434D01*
X21277Y-48434D02*
X21163Y-48434D01*
X21764Y-48434D02*
X21764Y-49234D01*
X21564Y-48434D02*
X21964Y-48434D01*
X22249Y-48434D02*
X22192Y-48472D01*
X22192Y-48472D02*
X22135Y-48548D01*
X22135Y-48548D02*
X22106Y-48624D01*
X22106Y-48624D02*
X22078Y-48739D01*
X22078Y-48739D02*
X22078Y-48929D01*
X22078Y-48929D02*
X22106Y-49043D01*
X22106Y-49043D02*
X22135Y-49120D01*
X22135Y-49120D02*
X22192Y-49196D01*
X22192Y-49196D02*
X22249Y-49234D01*
X22249Y-49234D02*
X22363Y-49234D01*
X22363Y-49234D02*
X22421Y-49196D01*
X22421Y-49196D02*
X22478Y-49120D01*
X22478Y-49120D02*
X22506Y-49043D01*
X22506Y-49043D02*
X22535Y-48929D01*
X22535Y-48929D02*
X22535Y-48739D01*
X22535Y-48739D02*
X22506Y-48624D01*
X22506Y-48624D02*
X22478Y-48548D01*
X22478Y-48548D02*
X22421Y-48472D01*
X22421Y-48472D02*
X22363Y-48434D01*
X22363Y-48434D02*
X22249Y-48434D01*
X22735Y-48434D02*
X22735Y-49234D01*
X22735Y-48434D02*
X22992Y-48434D01*
X22992Y-48434D02*
X23078Y-48472D01*
X23078Y-48472D02*
X23107Y-48510D01*
X23107Y-48510D02*
X23135Y-48586D01*
X23135Y-48586D02*
X23135Y-48662D01*
X23135Y-48662D02*
X23107Y-48739D01*
X23107Y-48739D02*
X23078Y-48777D01*
X23078Y-48777D02*
X22992Y-48815D01*
X22992Y-48815D02*
X22735Y-48815D01*
X22935Y-48815D02*
X23135Y-49234D01*
X24238Y-70706D02*
X24296Y-70668D01*
X24296Y-70668D02*
X24381Y-70554D01*
X24381Y-70554D02*
X24381Y-71354D01*
X24895Y-70554D02*
X24809Y-70592D01*
X24809Y-70592D02*
X24752Y-70706D01*
X24752Y-70706D02*
X24724Y-70897D01*
X24724Y-70897D02*
X24724Y-71011D01*
X24724Y-71011D02*
X24752Y-71201D01*
X24752Y-71201D02*
X24809Y-71316D01*
X24809Y-71316D02*
X24895Y-71354D01*
X24895Y-71354D02*
X24952Y-71354D01*
X24952Y-71354D02*
X25038Y-71316D01*
X25038Y-71316D02*
X25095Y-71201D01*
X25095Y-71201D02*
X25124Y-71011D01*
X25124Y-71011D02*
X25124Y-70897D01*
X25124Y-70897D02*
X25095Y-70706D01*
X25095Y-70706D02*
X25038Y-70592D01*
X25038Y-70592D02*
X24952Y-70554D01*
X24952Y-70554D02*
X24895Y-70554D01*
X25323Y-70554D02*
X25323Y-71354D01*
X25723Y-70554D02*
X25323Y-71087D01*
X25466Y-70897D02*
X25723Y-71354D01*
X26295Y-70554D02*
X26523Y-71354D01*
X26752Y-70554D02*
X26523Y-71354D01*
X27037Y-70554D02*
X26809Y-71354D01*
X27037Y-70554D02*
X27266Y-71354D01*
X26894Y-71087D02*
X27180Y-71087D01*
X27408Y-70554D02*
X27408Y-71354D01*
X27408Y-70554D02*
X27665Y-70554D01*
X27665Y-70554D02*
X27751Y-70592D01*
X27751Y-70592D02*
X27780Y-70630D01*
X27780Y-70630D02*
X27808Y-70706D01*
X27808Y-70706D02*
X27808Y-70782D01*
X27808Y-70782D02*
X27780Y-70859D01*
X27780Y-70859D02*
X27751Y-70897D01*
X27751Y-70897D02*
X27665Y-70935D01*
X27665Y-70935D02*
X27408Y-70935D01*
X27608Y-70935D02*
X27808Y-71354D01*
X24787Y-69254D02*
X24787Y-70054D01*
X24787Y-69254D02*
X25044Y-69254D01*
X25044Y-69254D02*
X25130Y-69292D01*
X25130Y-69292D02*
X25159Y-69330D01*
X25159Y-69330D02*
X25187Y-69406D01*
X25187Y-69406D02*
X25187Y-69482D01*
X25187Y-69482D02*
X25159Y-69559D01*
X25159Y-69559D02*
X25130Y-69597D01*
X25130Y-69597D02*
X25044Y-69635D01*
X24787Y-69635D02*
X25044Y-69635D01*
X25044Y-69635D02*
X25130Y-69673D01*
X25130Y-69673D02*
X25159Y-69711D01*
X25159Y-69711D02*
X25187Y-69787D01*
X25187Y-69787D02*
X25187Y-69901D01*
X25187Y-69901D02*
X25159Y-69978D01*
X25159Y-69978D02*
X25130Y-70016D01*
X25130Y-70016D02*
X25044Y-70054D01*
X25044Y-70054D02*
X24787Y-70054D01*
X25387Y-69254D02*
X25387Y-70054D01*
X25387Y-69254D02*
X25644Y-69254D01*
X25644Y-69254D02*
X25730Y-69292D01*
X25730Y-69292D02*
X25759Y-69330D01*
X25759Y-69330D02*
X25787Y-69406D01*
X25787Y-69406D02*
X25787Y-69482D01*
X25787Y-69482D02*
X25759Y-69559D01*
X25759Y-69559D02*
X25730Y-69597D01*
X25730Y-69597D02*
X25644Y-69635D01*
X25644Y-69635D02*
X25387Y-69635D01*
X25587Y-69635D02*
X25787Y-70054D01*
X25987Y-69254D02*
X25987Y-70054D01*
X26616Y-69444D02*
X26588Y-69368D01*
X26588Y-69368D02*
X26531Y-69292D01*
X26531Y-69292D02*
X26473Y-69254D01*
X26473Y-69254D02*
X26359Y-69254D01*
X26359Y-69254D02*
X26302Y-69292D01*
X26302Y-69292D02*
X26245Y-69368D01*
X26245Y-69368D02*
X26216Y-69444D01*
X26216Y-69444D02*
X26188Y-69559D01*
X26188Y-69559D02*
X26188Y-69749D01*
X26188Y-69749D02*
X26216Y-69863D01*
X26216Y-69863D02*
X26245Y-69940D01*
X26245Y-69940D02*
X26302Y-70016D01*
X26302Y-70016D02*
X26359Y-70054D01*
X26359Y-70054D02*
X26473Y-70054D01*
X26473Y-70054D02*
X26531Y-70016D01*
X26531Y-70016D02*
X26588Y-69940D01*
X26588Y-69940D02*
X26616Y-69863D01*
X26616Y-69863D02*
X26616Y-69749D01*
X26473Y-69749D02*
X26616Y-69749D01*
X26816Y-69254D02*
X26816Y-70054D01*
X27216Y-69254D02*
X27216Y-70054D01*
X26816Y-69635D02*
X27216Y-69635D01*
X27560Y-69254D02*
X27560Y-70054D01*
X27360Y-69254D02*
X27760Y-69254D01*
X19735Y-70868D02*
X19678Y-70792D01*
X19678Y-70792D02*
X19592Y-70754D01*
X19592Y-70754D02*
X19478Y-70754D01*
X19478Y-70754D02*
X19392Y-70792D01*
X19392Y-70792D02*
X19335Y-70868D01*
X19335Y-70868D02*
X19335Y-70944D01*
X19335Y-70944D02*
X19363Y-71020D01*
X19363Y-71020D02*
X19392Y-71059D01*
X19392Y-71059D02*
X19449Y-71097D01*
X19449Y-71097D02*
X19620Y-71173D01*
X19620Y-71173D02*
X19678Y-71211D01*
X19678Y-71211D02*
X19706Y-71249D01*
X19706Y-71249D02*
X19735Y-71325D01*
X19735Y-71325D02*
X19735Y-71440D01*
X19735Y-71440D02*
X19678Y-71516D01*
X19678Y-71516D02*
X19592Y-71554D01*
X19592Y-71554D02*
X19478Y-71554D01*
X19478Y-71554D02*
X19392Y-71516D01*
X19392Y-71516D02*
X19335Y-71440D01*
X19934Y-70754D02*
X19934Y-71554D01*
X19934Y-70754D02*
X20306Y-70754D01*
X19934Y-71135D02*
X20163Y-71135D01*
X19934Y-71554D02*
X20306Y-71554D01*
X20477Y-70754D02*
X20477Y-71554D01*
X20477Y-70754D02*
X20877Y-71554D01*
X20877Y-70754D02*
X20877Y-71554D01*
X21478Y-70868D02*
X21421Y-70792D01*
X21421Y-70792D02*
X21335Y-70754D01*
X21335Y-70754D02*
X21221Y-70754D01*
X21221Y-70754D02*
X21135Y-70792D01*
X21135Y-70792D02*
X21078Y-70868D01*
X21078Y-70868D02*
X21078Y-70944D01*
X21078Y-70944D02*
X21106Y-71020D01*
X21106Y-71020D02*
X21135Y-71059D01*
X21135Y-71059D02*
X21192Y-71097D01*
X21192Y-71097D02*
X21363Y-71173D01*
X21363Y-71173D02*
X21421Y-71211D01*
X21421Y-71211D02*
X21449Y-71249D01*
X21449Y-71249D02*
X21478Y-71325D01*
X21478Y-71325D02*
X21478Y-71440D01*
X21478Y-71440D02*
X21421Y-71516D01*
X21421Y-71516D02*
X21335Y-71554D01*
X21335Y-71554D02*
X21221Y-71554D01*
X21221Y-71554D02*
X21135Y-71516D01*
X21135Y-71516D02*
X21078Y-71440D01*
X21820Y-70754D02*
X21763Y-70792D01*
X21763Y-70792D02*
X21706Y-70868D01*
X21706Y-70868D02*
X21677Y-70944D01*
X21677Y-70944D02*
X21649Y-71059D01*
X21649Y-71059D02*
X21649Y-71249D01*
X21649Y-71249D02*
X21677Y-71363D01*
X21677Y-71363D02*
X21706Y-71440D01*
X21706Y-71440D02*
X21763Y-71516D01*
X21763Y-71516D02*
X21820Y-71554D01*
X21820Y-71554D02*
X21934Y-71554D01*
X21934Y-71554D02*
X21992Y-71516D01*
X21992Y-71516D02*
X22049Y-71440D01*
X22049Y-71440D02*
X22077Y-71363D01*
X22077Y-71363D02*
X22106Y-71249D01*
X22106Y-71249D02*
X22106Y-71059D01*
X22106Y-71059D02*
X22077Y-70944D01*
X22077Y-70944D02*
X22049Y-70868D01*
X22049Y-70868D02*
X21992Y-70792D01*
X21992Y-70792D02*
X21934Y-70754D01*
X21934Y-70754D02*
X21820Y-70754D01*
X22306Y-70754D02*
X22306Y-71554D01*
X22306Y-70754D02*
X22563Y-70754D01*
X22563Y-70754D02*
X22649Y-70792D01*
X22649Y-70792D02*
X22678Y-70830D01*
X22678Y-70830D02*
X22706Y-70906D01*
X22706Y-70906D02*
X22706Y-70982D01*
X22706Y-70982D02*
X22678Y-71059D01*
X22678Y-71059D02*
X22649Y-71097D01*
X22649Y-71097D02*
X22563Y-71135D01*
X22563Y-71135D02*
X22306Y-71135D01*
X22506Y-71135D02*
X22706Y-71554D01*
X19954Y-69394D02*
X19954Y-70194D01*
X19954Y-70194D02*
X20297Y-70194D01*
X20440Y-69394D02*
X20440Y-70194D01*
X21069Y-69584D02*
X21041Y-69508D01*
X21041Y-69508D02*
X20984Y-69432D01*
X20984Y-69432D02*
X20926Y-69394D01*
X20926Y-69394D02*
X20812Y-69394D01*
X20812Y-69394D02*
X20755Y-69432D01*
X20755Y-69432D02*
X20698Y-69508D01*
X20698Y-69508D02*
X20669Y-69584D01*
X20669Y-69584D02*
X20641Y-69699D01*
X20641Y-69699D02*
X20641Y-69889D01*
X20641Y-69889D02*
X20669Y-70003D01*
X20669Y-70003D02*
X20698Y-70080D01*
X20698Y-70080D02*
X20755Y-70156D01*
X20755Y-70156D02*
X20812Y-70194D01*
X20812Y-70194D02*
X20926Y-70194D01*
X20926Y-70194D02*
X20984Y-70156D01*
X20984Y-70156D02*
X21041Y-70080D01*
X21041Y-70080D02*
X21069Y-70003D01*
X21069Y-70003D02*
X21069Y-69889D01*
X20926Y-69889D02*
X21069Y-69889D01*
X21269Y-69394D02*
X21269Y-70194D01*
X21669Y-69394D02*
X21669Y-70194D01*
X21269Y-69775D02*
X21669Y-69775D01*
X22013Y-69394D02*
X22013Y-70194D01*
X21813Y-69394D02*
X22213Y-69394D01*
X12130Y-69848D02*
X12073Y-69772D01*
X12073Y-69772D02*
X11987Y-69734D01*
X11987Y-69734D02*
X11873Y-69734D01*
X11873Y-69734D02*
X11787Y-69772D01*
X11787Y-69772D02*
X11730Y-69848D01*
X11730Y-69848D02*
X11730Y-69924D01*
X11730Y-69924D02*
X11758Y-70000D01*
X11758Y-70000D02*
X11787Y-70039D01*
X11787Y-70039D02*
X11844Y-70077D01*
X11844Y-70077D02*
X12015Y-70153D01*
X12015Y-70153D02*
X12073Y-70191D01*
X12073Y-70191D02*
X12101Y-70229D01*
X12101Y-70229D02*
X12130Y-70305D01*
X12130Y-70305D02*
X12130Y-70420D01*
X12130Y-70420D02*
X12073Y-70496D01*
X12073Y-70496D02*
X11987Y-70534D01*
X11987Y-70534D02*
X11873Y-70534D01*
X11873Y-70534D02*
X11787Y-70496D01*
X11787Y-70496D02*
X11730Y-70420D01*
X12272Y-69734D02*
X12415Y-70534D01*
X12558Y-69734D02*
X12415Y-70534D01*
X12558Y-69734D02*
X12701Y-70534D01*
X12844Y-69734D02*
X12701Y-70534D01*
X13015Y-69734D02*
X13015Y-70534D01*
X13359Y-69734D02*
X13359Y-70534D01*
X13159Y-69734D02*
X13559Y-69734D01*
X14101Y-69924D02*
X14073Y-69848D01*
X14073Y-69848D02*
X14016Y-69772D01*
X14016Y-69772D02*
X13958Y-69734D01*
X13958Y-69734D02*
X13844Y-69734D01*
X13844Y-69734D02*
X13787Y-69772D01*
X13787Y-69772D02*
X13730Y-69848D01*
X13730Y-69848D02*
X13701Y-69924D01*
X13701Y-69924D02*
X13673Y-70039D01*
X13673Y-70039D02*
X13673Y-70229D01*
X13673Y-70229D02*
X13701Y-70343D01*
X13701Y-70343D02*
X13730Y-70420D01*
X13730Y-70420D02*
X13787Y-70496D01*
X13787Y-70496D02*
X13844Y-70534D01*
X13844Y-70534D02*
X13958Y-70534D01*
X13958Y-70534D02*
X14016Y-70496D01*
X14016Y-70496D02*
X14073Y-70420D01*
X14073Y-70420D02*
X14101Y-70343D01*
X14301Y-69734D02*
X14301Y-70534D01*
X14701Y-69734D02*
X14701Y-70534D01*
X14301Y-70115D02*
X14701Y-70115D01*
X11795Y-68394D02*
X11795Y-69194D01*
X11795Y-68394D02*
X12052Y-68394D01*
X12052Y-68394D02*
X12138Y-68432D01*
X12138Y-68432D02*
X12167Y-68470D01*
X12167Y-68470D02*
X12195Y-68546D01*
X12195Y-68546D02*
X12195Y-68660D01*
X12195Y-68660D02*
X12167Y-68737D01*
X12167Y-68737D02*
X12138Y-68775D01*
X12138Y-68775D02*
X12052Y-68813D01*
X12052Y-68813D02*
X11795Y-68813D01*
X12538Y-68394D02*
X12481Y-68432D01*
X12481Y-68432D02*
X12424Y-68508D01*
X12424Y-68508D02*
X12395Y-68584D01*
X12395Y-68584D02*
X12367Y-68699D01*
X12367Y-68699D02*
X12367Y-68889D01*
X12367Y-68889D02*
X12395Y-69003D01*
X12395Y-69003D02*
X12424Y-69080D01*
X12424Y-69080D02*
X12481Y-69156D01*
X12481Y-69156D02*
X12538Y-69194D01*
X12538Y-69194D02*
X12652Y-69194D01*
X12652Y-69194D02*
X12710Y-69156D01*
X12710Y-69156D02*
X12767Y-69080D01*
X12767Y-69080D02*
X12795Y-69003D01*
X12795Y-69003D02*
X12824Y-68889D01*
X12824Y-68889D02*
X12824Y-68699D01*
X12824Y-68699D02*
X12795Y-68584D01*
X12795Y-68584D02*
X12767Y-68508D01*
X12767Y-68508D02*
X12710Y-68432D01*
X12710Y-68432D02*
X12652Y-68394D01*
X12652Y-68394D02*
X12538Y-68394D01*
X12967Y-68394D02*
X13110Y-69194D01*
X13253Y-68394D02*
X13110Y-69194D01*
X13253Y-68394D02*
X13396Y-69194D01*
X13539Y-68394D02*
X13396Y-69194D01*
X13710Y-68394D02*
X13710Y-69194D01*
X13710Y-68394D02*
X14082Y-68394D01*
X13710Y-68775D02*
X13939Y-68775D01*
X13710Y-69194D02*
X14082Y-69194D01*
X14253Y-68394D02*
X14253Y-69194D01*
X14253Y-68394D02*
X14510Y-68394D01*
X14510Y-68394D02*
X14596Y-68432D01*
X14596Y-68432D02*
X14625Y-68470D01*
X14625Y-68470D02*
X14653Y-68546D01*
X14653Y-68546D02*
X14653Y-68622D01*
X14653Y-68622D02*
X14625Y-68699D01*
X14625Y-68699D02*
X14596Y-68737D01*
X14596Y-68737D02*
X14510Y-68775D01*
X14510Y-68775D02*
X14253Y-68775D01*
X14453Y-68775D02*
X14653Y-69194D01*
G54D23*
X12451Y-57890D03*
X16389Y-57890D03*
G54D11*
X22419Y-52165D03*
X21041Y-52165D03*
X26719Y-66470D03*
X25341Y-66470D03*
G54D24*
X22970Y-66295D03*
X22970Y-65545D03*
G54D25*
X21575Y-63050D03*
X20825Y-63050D03*
X22725Y-61800D03*
X23475Y-61800D03*
G54D26*
X20300Y-58180D03*
X20800Y-58180D03*
X21300Y-58180D03*
X21800Y-58180D03*
X21800Y-56120D03*
X21300Y-56120D03*
X20800Y-56120D03*
X20300Y-56120D03*
G54D11*
X31929Y-66540D03*
X30551Y-66540D03*
X21339Y-66250D03*
X19961Y-66250D03*
G54D25*
X28765Y-66480D03*
X28015Y-66480D03*
G54D12*
X26900Y-55850D03*
G54D23*
X26900Y-56850D03*
X26900Y-57850D03*
X26900Y-58850D03*
X26900Y-59850D03*
X26900Y-60850D03*
X26900Y-61850D03*
X29900Y-61850D03*
X29900Y-60850D03*
X29900Y-59850D03*
X29900Y-58850D03*
X29900Y-57850D03*
X29900Y-56850D03*
X29900Y-55850D03*
G54D24*
X25290Y-56805D03*
X25290Y-57555D03*
G54D25*
X32065Y-59360D03*
X32815Y-59360D03*
X32105Y-60530D03*
X32855Y-60530D03*
G54D24*
X31160Y-55955D03*
X31160Y-56705D03*
X25200Y-55245D03*
X25200Y-55995D03*
G54D11*
X28989Y-52080D03*
X27611Y-52080D03*
X13889Y-66300D03*
X12511Y-66300D03*
G54D27*
X18671Y-50230D03*
X17489Y-50230D03*
G54D24*
X32360Y-55975D03*
X32360Y-56725D03*
G54D13*
X33530Y-62880D03*
G54D14*
X31530Y-62880D03*
X32530Y-62880D03*
G54D13*
X18560Y-52430D03*
G54D14*
X16560Y-52430D03*
X17560Y-52430D03*
G54D28*
X28728Y-64376D03*
X28716Y-65482D03*
G54D15*
X25400Y-48788D03*
G54D16*
X25400Y-52790D03*
G54D17*
X19275Y-54250D03*
X24760Y-63670D03*
X31930Y-64115D03*
X23850Y-56000D03*
X23855Y-52500D03*
X22250Y-60200D03*
G54D19*
X19315Y-54290D02*
X20800Y-54290D01*
X19275Y-54250D02*
X19315Y-54290D01*
X18671Y-50230D02*
X18671Y-52319D01*
X18671Y-52319D02*
X18560Y-52430D01*
G54D20*
X31160Y-55955D02*
X32340Y-55955D01*
X32340Y-55955D02*
X32360Y-55975D01*
X29900Y-55850D02*
X31055Y-55850D01*
X31055Y-55850D02*
X31160Y-55955D01*
X20800Y-56120D02*
X20800Y-54290D01*
X20800Y-54290D02*
X20800Y-54050D01*
G54D19*
X32815Y-59360D02*
X33430Y-59360D01*
X33530Y-59460D02*
X33530Y-62880D01*
X33430Y-59360D02*
X33530Y-59460D01*
X28728Y-64376D02*
X28016Y-64376D01*
X26900Y-63260D02*
X26900Y-61850D01*
X28016Y-64376D02*
X26900Y-63260D01*
X17489Y-50230D02*
X17489Y-52359D01*
X17489Y-52359D02*
X17560Y-52430D01*
G54D20*
X32360Y-56725D02*
X32360Y-56840D01*
X32815Y-57295D02*
X32815Y-59360D01*
X32360Y-56840D02*
X32815Y-57295D01*
X25290Y-57555D02*
X25290Y-58370D01*
X23377Y-58240D02*
X23377Y-58253D01*
X25160Y-58240D02*
X23377Y-58240D01*
X25290Y-58370D02*
X25160Y-58240D01*
X26900Y-61850D02*
X23525Y-61850D01*
X23525Y-61850D02*
X23475Y-61800D01*
X22970Y-65545D02*
X23930Y-65520D01*
X16139Y-68550D02*
X13889Y-66300D01*
X23410Y-68550D02*
X16139Y-68550D01*
X23920Y-68560D02*
X23410Y-68550D01*
X23920Y-65560D02*
X23920Y-68560D01*
X23930Y-65520D02*
X23920Y-65560D01*
G54D29*
X13889Y-66300D02*
X15350Y-66300D01*
X15350Y-66300D02*
X15700Y-66300D01*
X15700Y-66300D02*
X16389Y-65611D01*
X16389Y-65611D02*
X16389Y-57890D01*
G54D20*
X23475Y-61800D02*
X23377Y-58253D01*
X23377Y-58253D02*
X23375Y-58180D01*
X21800Y-58180D02*
X23375Y-58180D01*
X29900Y-60850D02*
X31785Y-60850D01*
X31785Y-60850D02*
X32105Y-60530D01*
X29900Y-56850D02*
X31015Y-56850D01*
X31015Y-56850D02*
X31160Y-56705D01*
X29900Y-57850D02*
X31210Y-57850D01*
X32065Y-58705D02*
X32065Y-59360D01*
X31210Y-57850D02*
X32065Y-58705D01*
G54D30*
X26900Y-56850D02*
X25335Y-56850D01*
X25335Y-56850D02*
X25290Y-56805D01*
G54D20*
X25290Y-56805D02*
X25290Y-56085D01*
X25290Y-56085D02*
X25200Y-55995D01*
X24720Y-63050D02*
X21575Y-63050D01*
X24760Y-63670D02*
X24720Y-63050D01*
G54D19*
X29540Y-66480D02*
X28765Y-66480D01*
X29555Y-66465D02*
X29540Y-66480D01*
X29555Y-65080D02*
X29555Y-66465D01*
X30280Y-64355D02*
X29555Y-65080D01*
X31690Y-64355D02*
X30280Y-64355D01*
X31930Y-64115D02*
X31690Y-64355D01*
X28765Y-66480D02*
X28765Y-65531D01*
X28765Y-65531D02*
X28716Y-65482D01*
G54D20*
X21300Y-55200D02*
X21300Y-56120D01*
X21550Y-54950D02*
X21300Y-55200D01*
X22800Y-54950D02*
X21550Y-54950D01*
X23850Y-56000D02*
X22800Y-54950D01*
X28015Y-66480D02*
X27670Y-66500D01*
X27670Y-66500D02*
X26719Y-66470D01*
G54D19*
X23900Y-53945D02*
X25200Y-55245D01*
X23900Y-52545D02*
X23900Y-53945D01*
X23855Y-52500D02*
X23900Y-52545D01*
G54D20*
X25200Y-55245D02*
X26295Y-55245D01*
X26295Y-55245D02*
X26900Y-55850D01*
G54D19*
X32855Y-60530D02*
X32855Y-61445D01*
X31530Y-61690D02*
X31530Y-62880D01*
X31620Y-61600D02*
X31530Y-61690D01*
X32700Y-61600D02*
X31620Y-61600D01*
X32855Y-61445D02*
X32700Y-61600D01*
G54D20*
X22970Y-66295D02*
X21414Y-66325D01*
X21414Y-66325D02*
X21339Y-66250D01*
X21300Y-59250D02*
X21300Y-58180D01*
X22250Y-60200D02*
X21300Y-59250D01*
X22725Y-61800D02*
X21150Y-61800D01*
X20820Y-62130D02*
X20820Y-62076D01*
X21150Y-61800D02*
X20820Y-62130D01*
X20800Y-58180D02*
X20820Y-62076D01*
X20820Y-62076D02*
X20825Y-63050D01*
M02*
