G04 #@! TF.GenerationSoftware,KiCad,Pcbnew,5.1.5-52549c5~86~ubuntu18.04.1*
G04 #@! TF.CreationDate,2020-12-07T21:37:36-08:00*
G04 #@! TF.ProjectId,Atmel_Adapter_rev01,41746d65-6c5f-4416-9461-707465725f72,rev?*
G04 #@! TF.SameCoordinates,Original*
G04 #@! TF.FileFunction,Copper,L2,Bot*
G04 #@! TF.FilePolarity,Positive*
%FSLAX46Y46*%
G04 Gerber Fmt 4.6, Leading zero omitted, Abs format (unit mm)*
G04 Created by KiCad (PCBNEW 5.1.5-52549c5~86~ubuntu18.04.1) date 2020-12-07 21:37:36*
%MOMM*%
%LPD*%
G04 APERTURE LIST*
%ADD10C,0.700000*%
%ADD11C,0.600000*%
G04 APERTURE END LIST*
D10*
X119380000Y-73914000D03*
X133604000Y-74422000D03*
X119380000Y-75946000D03*
X133858000Y-77216000D03*
X106934000Y-72644000D03*
X122428000Y-74930000D03*
X107188000Y-69342000D03*
X119126000Y-69596000D03*
X107188000Y-70866000D03*
X119380000Y-72390000D03*
X119126000Y-71120000D03*
X133604000Y-71882000D03*
X119380000Y-68326000D03*
X133604000Y-69342000D03*
X120142000Y-66294000D03*
X133604000Y-67056000D03*
X118872000Y-88900000D03*
X134112000Y-87630000D03*
X137000000Y-83000000D03*
X119126000Y-91440000D03*
X134112000Y-90170000D03*
X141732000Y-88392000D03*
X153162000Y-94996000D03*
X119126000Y-93980000D03*
X134112000Y-92710000D03*
X107950000Y-92456000D03*
X119126000Y-92710000D03*
X139446000Y-96520000D03*
X122174000Y-91440000D03*
X107950000Y-91186000D03*
X119126000Y-90170000D03*
X107950000Y-93726000D03*
X119126000Y-95250000D03*
X137668000Y-96520000D03*
X122682000Y-96774000D03*
X139954000Y-98806000D03*
X141732000Y-90170000D03*
X119126000Y-98044000D03*
X134112000Y-97790000D03*
X119126000Y-96774000D03*
X134112000Y-94234000D03*
D11*
X119874974Y-73914000D02*
X120382974Y-73406000D01*
X119380000Y-73914000D02*
X119874974Y-73914000D01*
X120382974Y-73406000D02*
X126238000Y-73406000D01*
X126238000Y-73406000D02*
X127254000Y-74422000D01*
X127254000Y-74422000D02*
X133604000Y-74422000D01*
X119380000Y-75946000D02*
X121158000Y-75946000D01*
X121158000Y-75946000D02*
X122428000Y-77216000D01*
X122428000Y-77216000D02*
X133858000Y-77216000D01*
X108458000Y-72644000D02*
X106934000Y-72644000D01*
X110744000Y-74930000D02*
X108458000Y-72644000D01*
X122428000Y-74930000D02*
X110744000Y-74930000D01*
X107188000Y-69342000D02*
X116078000Y-69342000D01*
X116078000Y-69342000D02*
X116332000Y-69596000D01*
X116332000Y-69596000D02*
X119126000Y-69596000D01*
X107188000Y-70866000D02*
X109728000Y-70866000D01*
X109728000Y-70866000D02*
X111252000Y-72390000D01*
X111252000Y-72390000D02*
X119380000Y-72390000D01*
X119126000Y-71120000D02*
X119620974Y-71120000D01*
X119620974Y-71120000D02*
X126492000Y-71120000D01*
X126492000Y-71120000D02*
X127254000Y-71882000D01*
X127254000Y-71882000D02*
X133604000Y-71882000D01*
X119380000Y-68326000D02*
X123190000Y-68326000D01*
X123190000Y-68326000D02*
X124206000Y-69342000D01*
X124206000Y-69342000D02*
X133604000Y-69342000D01*
X120142000Y-66294000D02*
X133096000Y-66294000D01*
X133096000Y-66294000D02*
X133604000Y-66802000D01*
X133604000Y-66802000D02*
X133604000Y-67056000D01*
X118872000Y-88900000D02*
X120142000Y-88900000D01*
X120142000Y-88900000D02*
X121412000Y-87630000D01*
X121412000Y-87630000D02*
X134112000Y-87630000D01*
X137000000Y-84742000D02*
X134112000Y-87630000D01*
X137000000Y-83000000D02*
X137000000Y-84742000D01*
X119620974Y-91440000D02*
X120890974Y-90170000D01*
X119126000Y-91440000D02*
X119620974Y-91440000D01*
X120890974Y-90170000D02*
X134112000Y-90170000D01*
X141732000Y-88392000D02*
X142240000Y-87884000D01*
X142240000Y-87884000D02*
X152400000Y-87884000D01*
X152400000Y-87884000D02*
X154178000Y-89662000D01*
X154178000Y-89662000D02*
X154178000Y-93980000D01*
X154178000Y-93980000D02*
X153162000Y-94996000D01*
X119126000Y-93980000D02*
X122174000Y-93980000D01*
X122174000Y-93980000D02*
X123444000Y-92710000D01*
X123444000Y-92710000D02*
X134112000Y-92710000D01*
X107950000Y-92456000D02*
X115062000Y-92456000D01*
X115062000Y-92456000D02*
X115316000Y-92710000D01*
X115316000Y-92710000D02*
X119126000Y-92710000D01*
X139446000Y-96025026D02*
X135128000Y-91707026D01*
X139446000Y-96520000D02*
X139446000Y-96025026D01*
X135128000Y-91707026D02*
X134887026Y-91707026D01*
X134887026Y-91707026D02*
X134620000Y-91440000D01*
X134620000Y-91440000D02*
X122174000Y-91440000D01*
X108444974Y-91186000D02*
X109460974Y-90170000D01*
X107950000Y-91186000D02*
X108444974Y-91186000D01*
X109460974Y-90170000D02*
X119126000Y-90170000D01*
X107950000Y-93726000D02*
X115062000Y-93726000D01*
X115062000Y-93726000D02*
X116586000Y-95250000D01*
X116586000Y-95250000D02*
X119126000Y-95250000D01*
X122682000Y-96774000D02*
X132334000Y-96774000D01*
X132334000Y-96774000D02*
X133350000Y-95758000D01*
X136906000Y-95758000D02*
X137668000Y-96520000D01*
X133350000Y-95758000D02*
X136906000Y-95758000D01*
X139954000Y-98311026D02*
X140716000Y-97549026D01*
X139954000Y-98806000D02*
X139954000Y-98311026D01*
X140716000Y-97549026D02*
X140716000Y-91186000D01*
X140716000Y-91186000D02*
X141732000Y-90170000D01*
X119620974Y-98044000D02*
X119874974Y-98298000D01*
X119126000Y-98044000D02*
X119620974Y-98044000D01*
X119874974Y-98298000D02*
X133604000Y-98298000D01*
X133604000Y-98298000D02*
X134112000Y-97790000D01*
X120142000Y-96774000D02*
X119126000Y-96774000D01*
X134112000Y-94234000D02*
X124460000Y-94234000D01*
X124460000Y-94234000D02*
X120142000Y-96774000D01*
M02*
