G04 #@! TF.GenerationSoftware,KiCad,Pcbnew,5.1.5-52549c5~86~ubuntu18.04.1*
G04 #@! TF.CreationDate,2020-12-07T21:37:36-08:00*
G04 #@! TF.ProjectId,Atmel_Adapter_rev01,41746d65-6c5f-4416-9461-707465725f72,rev?*
G04 #@! TF.SameCoordinates,Original*
G04 #@! TF.FileFunction,Copper,L1,Top*
G04 #@! TF.FilePolarity,Positive*
%FSLAX46Y46*%
G04 Gerber Fmt 4.6, Leading zero omitted, Abs format (unit mm)*
G04 Created by KiCad (PCBNEW 5.1.5-52549c5~86~ubuntu18.04.1) date 2020-12-07 21:37:36*
%MOMM*%
%LPD*%
G04 APERTURE LIST*
%ADD10R,2.400000X0.760000*%
%ADD11R,3.560000X1.270000*%
%ADD12R,1.250000X2.000000*%
%ADD13R,2.000000X1.250000*%
%ADD14R,0.899160X1.000760*%
%ADD15R,1.000760X0.899160*%
%ADD16C,0.700000*%
%ADD17C,0.600000*%
G04 APERTURE END LIST*
D10*
X113456000Y-71882000D03*
X113456000Y-73152000D03*
X109556000Y-73152000D03*
X109556000Y-71882000D03*
X109556000Y-68072000D03*
X109556000Y-69342000D03*
X109556000Y-70612000D03*
X113456000Y-70612000D03*
X113456000Y-69342000D03*
X113456000Y-68072000D03*
X113964000Y-89916000D03*
X113964000Y-91186000D03*
X113964000Y-92456000D03*
X110064000Y-92456000D03*
X110064000Y-91186000D03*
X110064000Y-89916000D03*
X110064000Y-93726000D03*
X110064000Y-94996000D03*
X113964000Y-94996000D03*
X113964000Y-93726000D03*
D11*
X131129000Y-87630000D03*
X131129000Y-90170000D03*
X131129000Y-92710000D03*
X125919000Y-92710000D03*
X125919000Y-90170000D03*
X125919000Y-87630000D03*
X125919000Y-95270000D03*
X125919000Y-97810000D03*
X131129000Y-97810000D03*
X131129000Y-95270000D03*
X130875000Y-74442000D03*
X130875000Y-76982000D03*
X125665000Y-76982000D03*
X125665000Y-74442000D03*
X125665000Y-66802000D03*
X125665000Y-69342000D03*
X125665000Y-71882000D03*
X130875000Y-71882000D03*
X130875000Y-69342000D03*
X130875000Y-66802000D03*
X149925000Y-95016000D03*
X144715000Y-95016000D03*
X144715000Y-89916000D03*
X144715000Y-92456000D03*
X149925000Y-92456000D03*
X149925000Y-89916000D03*
D12*
X109385000Y-62310000D03*
X112135000Y-62310000D03*
D13*
X153000000Y-80625000D03*
X153000000Y-83375000D03*
D14*
X109248160Y-60000000D03*
X110751840Y-60000000D03*
D15*
X153000000Y-77503680D03*
X153000000Y-76000000D03*
D16*
X119380000Y-73914000D03*
X133604000Y-74422000D03*
X119380000Y-75946000D03*
X133858000Y-77216000D03*
X106934000Y-72644000D03*
X122428000Y-74930000D03*
X107188000Y-69342000D03*
X119126000Y-69596000D03*
X107188000Y-70866000D03*
X119380000Y-72390000D03*
X119126000Y-71120000D03*
X133604000Y-71882000D03*
X119380000Y-68326000D03*
X133604000Y-69342000D03*
X120142000Y-66294000D03*
X133604000Y-67056000D03*
X118872000Y-88900000D03*
X134112000Y-87630000D03*
X137000000Y-83000000D03*
X119126000Y-91440000D03*
X134112000Y-90170000D03*
X141732000Y-88392000D03*
X153162000Y-94996000D03*
X119126000Y-93980000D03*
X134112000Y-92710000D03*
X107950000Y-92456000D03*
X119126000Y-92710000D03*
X139446000Y-96520000D03*
X122174000Y-91440000D03*
X107950000Y-91186000D03*
X119126000Y-90170000D03*
X107950000Y-93726000D03*
X119126000Y-95250000D03*
X137668000Y-96520000D03*
X122682000Y-96774000D03*
X139954000Y-98806000D03*
X141732000Y-90170000D03*
X119126000Y-98044000D03*
X134112000Y-97790000D03*
X119126000Y-96774000D03*
X134112000Y-94234000D03*
D17*
X111801420Y-60000000D02*
X112190000Y-60388580D01*
X110751840Y-60000000D02*
X111801420Y-60000000D01*
X112135000Y-60443580D02*
X112135000Y-62310000D01*
X112190000Y-60388580D02*
X112135000Y-60443580D01*
X115256000Y-71882000D02*
X117288000Y-73914000D01*
X113456000Y-71882000D02*
X115256000Y-71882000D01*
X117288000Y-73914000D02*
X119380000Y-73914000D01*
X130895000Y-74422000D02*
X130875000Y-74442000D01*
X133604000Y-74422000D02*
X130895000Y-74422000D01*
X115256000Y-73152000D02*
X118050000Y-75946000D01*
X113456000Y-73152000D02*
X115256000Y-73152000D01*
X118050000Y-75946000D02*
X119380000Y-75946000D01*
X131109000Y-77216000D02*
X130875000Y-76982000D01*
X133858000Y-77216000D02*
X131109000Y-77216000D01*
X123285000Y-76982000D02*
X123265000Y-76962000D01*
X125665000Y-76982000D02*
X123285000Y-76982000D01*
X123265000Y-76962000D02*
X110998000Y-76962000D01*
X109556000Y-75520000D02*
X109556000Y-73152000D01*
X110998000Y-76962000D02*
X109556000Y-75520000D01*
X109556000Y-71882000D02*
X107696000Y-71882000D01*
X107696000Y-71882000D02*
X106934000Y-72644000D01*
X122428000Y-74930000D02*
X123190000Y-74422000D01*
X123190000Y-74422000D02*
X123210000Y-74442000D01*
X123210000Y-74442000D02*
X125665000Y-74442000D01*
X125665000Y-65567000D02*
X125665000Y-66802000D01*
X124360000Y-64262000D02*
X125665000Y-65567000D01*
X112386000Y-64262000D02*
X124360000Y-64262000D01*
X109556000Y-67092000D02*
X112386000Y-64262000D01*
X109385000Y-63910000D02*
X109590000Y-64115000D01*
X109590000Y-64115000D02*
X109590000Y-67480000D01*
X109385000Y-62310000D02*
X109385000Y-63910000D01*
X109556000Y-68072000D02*
X109590000Y-67480000D01*
X109590000Y-67480000D02*
X109556000Y-67092000D01*
X109556000Y-69342000D02*
X107188000Y-69342000D01*
X119126000Y-69596000D02*
X120650000Y-69596000D01*
X120904000Y-69342000D02*
X125665000Y-69342000D01*
X120650000Y-69596000D02*
X120904000Y-69342000D01*
X107188000Y-68847026D02*
X107188000Y-69342000D01*
X107188000Y-61010580D02*
X107188000Y-68847026D01*
X108198580Y-60000000D02*
X107188000Y-61010580D01*
X109248160Y-60000000D02*
X108198580Y-60000000D01*
X107756000Y-70612000D02*
X107502000Y-70866000D01*
X109556000Y-70612000D02*
X107756000Y-70612000D01*
X107502000Y-70866000D02*
X107188000Y-70866000D01*
X119380000Y-72390000D02*
X119888000Y-72390000D01*
X120396000Y-71882000D02*
X125665000Y-71882000D01*
X119888000Y-72390000D02*
X120396000Y-71882000D01*
X115256000Y-70612000D02*
X115764000Y-71120000D01*
X113456000Y-70612000D02*
X115256000Y-70612000D01*
X115764000Y-71120000D02*
X119126000Y-71120000D01*
X133604000Y-71882000D02*
X130875000Y-71882000D01*
X113456000Y-69342000D02*
X116332000Y-69342000D01*
X116332000Y-69342000D02*
X117348000Y-68326000D01*
X117348000Y-68326000D02*
X119380000Y-68326000D01*
X133604000Y-69342000D02*
X130875000Y-69342000D01*
X113456000Y-67092000D02*
X114254000Y-66294000D01*
X113456000Y-68072000D02*
X113456000Y-67092000D01*
X114254000Y-66294000D02*
X120142000Y-66294000D01*
X131129000Y-67056000D02*
X130875000Y-66802000D01*
X133604000Y-67056000D02*
X131129000Y-67056000D01*
X115764000Y-89916000D02*
X116780000Y-88900000D01*
X113964000Y-89916000D02*
X115764000Y-89916000D01*
X116780000Y-88900000D02*
X118872000Y-88900000D01*
X134112000Y-87630000D02*
X131129000Y-87630000D01*
X134112000Y-87630000D02*
X140208000Y-87630000D01*
X140208000Y-87630000D02*
X141732000Y-86106000D01*
X141732000Y-86106000D02*
X148082000Y-86106000D01*
X149925000Y-87949000D02*
X149925000Y-89916000D01*
X148082000Y-86106000D02*
X149925000Y-87949000D01*
X153000000Y-83375000D02*
X151375000Y-83375000D01*
X151375000Y-83375000D02*
X150000000Y-82000000D01*
X150000000Y-82000000D02*
X138000000Y-82000000D01*
X138000000Y-82000000D02*
X137000000Y-83000000D01*
X115764000Y-91186000D02*
X116018000Y-91440000D01*
X113964000Y-91186000D02*
X115764000Y-91186000D01*
X116018000Y-91440000D02*
X119126000Y-91440000D01*
X134112000Y-90170000D02*
X131129000Y-90170000D01*
X134112000Y-90170000D02*
X139954000Y-90170000D01*
X139954000Y-90170000D02*
X141732000Y-88392000D01*
X149945000Y-94996000D02*
X149925000Y-95016000D01*
X153162000Y-94996000D02*
X149945000Y-94996000D01*
X154100380Y-76000000D02*
X155000000Y-76899620D01*
X153000000Y-76000000D02*
X154100380Y-76000000D01*
X155000000Y-93158000D02*
X153158000Y-95000000D01*
X155000000Y-76899620D02*
X155000000Y-93158000D01*
X153158000Y-95000000D02*
X153162000Y-94996000D01*
X113964000Y-92456000D02*
X116586000Y-92456000D01*
X116586000Y-92456000D02*
X118110000Y-93980000D01*
X118110000Y-93980000D02*
X119126000Y-93980000D01*
X134112000Y-92710000D02*
X131129000Y-92710000D01*
X110064000Y-92456000D02*
X108264000Y-92456000D01*
X108264000Y-92456000D02*
X107950000Y-92456000D01*
X142335000Y-95016000D02*
X140831000Y-96520000D01*
X144715000Y-95016000D02*
X142335000Y-95016000D01*
X140831000Y-96520000D02*
X139446000Y-96520000D01*
X121398974Y-92710000D02*
X120904000Y-92710000D01*
X122174000Y-91934974D02*
X121398974Y-92710000D01*
X122174000Y-91440000D02*
X122174000Y-91934974D01*
X119126000Y-92710000D02*
X120904000Y-92710000D01*
X120904000Y-92710000D02*
X125919000Y-92710000D01*
X110064000Y-91186000D02*
X107950000Y-91186000D01*
X119620974Y-90170000D02*
X125919000Y-90170000D01*
X119126000Y-90170000D02*
X119620974Y-90170000D01*
X123539000Y-87630000D02*
X125919000Y-87630000D01*
X111370000Y-87630000D02*
X123539000Y-87630000D01*
X110064000Y-88936000D02*
X111370000Y-87630000D01*
X110064000Y-89916000D02*
X110064000Y-88936000D01*
X125919000Y-86395000D02*
X127732000Y-84582000D01*
X125919000Y-87630000D02*
X125919000Y-86395000D01*
X127732000Y-84582000D02*
X151384000Y-84582000D01*
X151384000Y-84582000D02*
X153670000Y-86868000D01*
X153670000Y-86868000D02*
X153670000Y-91948000D01*
X153162000Y-92456000D02*
X149925000Y-92456000D01*
X153670000Y-91948000D02*
X153162000Y-92456000D01*
X110064000Y-93726000D02*
X107950000Y-93726000D01*
X125899000Y-95250000D02*
X125919000Y-95270000D01*
X119126000Y-95250000D02*
X125899000Y-95250000D01*
X144715000Y-92456000D02*
X141224000Y-92456000D01*
X141224000Y-92456000D02*
X137668000Y-96012000D01*
X137668000Y-96012000D02*
X137668000Y-96520000D01*
X123539000Y-95270000D02*
X122682000Y-96127000D01*
X125919000Y-95270000D02*
X123539000Y-95270000D01*
X122682000Y-96127000D02*
X122682000Y-96774000D01*
X125919000Y-99045000D02*
X125919000Y-97810000D01*
X125396000Y-99568000D02*
X125919000Y-99045000D01*
X113656000Y-99568000D02*
X125396000Y-99568000D01*
X110064000Y-95976000D02*
X113656000Y-99568000D01*
X110064000Y-94996000D02*
X110064000Y-95976000D01*
X125396000Y-99568000D02*
X139192000Y-99568000D01*
X139192000Y-99568000D02*
X139954000Y-98806000D01*
X144461000Y-90170000D02*
X144715000Y-89916000D01*
X141732000Y-90170000D02*
X144461000Y-90170000D01*
X113964000Y-95976000D02*
X116032000Y-98044000D01*
X113964000Y-94996000D02*
X113964000Y-95976000D01*
X116032000Y-98044000D02*
X119126000Y-98044000D01*
X131149000Y-97790000D02*
X131129000Y-97810000D01*
X134112000Y-97790000D02*
X131149000Y-97790000D01*
X115764000Y-93726000D02*
X118812000Y-96774000D01*
X113964000Y-93726000D02*
X115764000Y-93726000D01*
X118812000Y-96774000D02*
X119126000Y-96774000D01*
X134112000Y-94234000D02*
X134112000Y-94728974D01*
X133570974Y-95270000D02*
X131129000Y-95270000D01*
X134112000Y-94728974D02*
X133570974Y-95270000D01*
X153000000Y-80625000D02*
X153000000Y-77503680D01*
M02*
