M48
;DRILL file {Pcbnew (2013-08-24 BZR 4298)-stable} date Wed 20 Nov 2013 08:14:21 PM PST
;FORMAT={-:-/ absolute / metric / decimal}
FMAT,2
METRIC,TZ
T1C0.500
T2C0.813
T3C1.699
%
G90
G05
M71
T1
X136.91Y-65.83
X137.67Y-100.69
X137.72Y-104.04
X138.05Y-73.53
X138.35Y-112.98
X139.4Y-109.61
X140.46Y-78.77
X141.7Y-81.675
X149.55Y-81.775
X151.43Y-92.46
X151.725Y-89.075
X151.77Y-108.41
X152.66Y-106.
X154.125Y-83.
X154.325Y-81.05
X155.07Y-64.14
X155.56Y-104.24
X155.58Y-86.66
X155.95Y-68.29
X155.96Y-111.65
X156.09Y-109.51
X156.67Y-71.48
X157.18Y-97.89
X157.19Y-93.04
X157.275Y-87.775
X157.58Y-102.26
X157.69Y-74.82
X157.73Y-105.84
X158.65Y-97.04
X158.99Y-98.53
X168.76Y-97.16
X170.41Y-113.61
X170.45Y-81.85
X170.95Y-78.4
X171.17Y-103.14
X171.43Y-94.33
X171.625Y-74.675
X171.65Y-67.1
X171.71Y-69.37
X171.75Y-85.23
X171.75Y-92.99
X171.83Y-86.83
X172.08Y-110.07
X172.22Y-108.28
X172.23Y-102.04
X172.86Y-81.72
X172.9Y-78.3
T2
X144.4Y-76.58
X144.4Y-79.12
X144.4Y-81.66
X144.4Y-84.2
X144.4Y-86.74
X144.4Y-89.28
X144.4Y-91.82
X144.4Y-94.36
X144.4Y-96.9
X146.94Y-76.58
X146.94Y-79.12
X146.94Y-81.66
X146.94Y-84.2
X146.94Y-86.74
X146.94Y-89.28
X146.94Y-91.82
X146.94Y-94.36
X146.94Y-96.9
T3
X145.31Y-63.56
X145.31Y-68.061
T0
M30
