G04 #@! TF.FileFunction,Copper,L2,Bot,Signal*
%FSLAX46Y46*%
G04 Gerber Fmt 4.6, Leading zero omitted, Abs format (unit mm)*
G04 Created by KiCad (PCBNEW 4.0.3+e1-6302~38~ubuntu14.04.1-stable) date Sun Sep  4 16:46:07 2016*
%MOMM*%
%LPD*%
G01*
G04 APERTURE LIST*
%ADD10C,0.150000*%
%ADD11C,1.700000*%
%ADD12C,0.600000*%
%ADD13C,1.800000*%
%ADD14C,2.500000*%
%ADD15O,1.699260X3.500120*%
%ADD16R,2.499360X2.499360*%
%ADD17C,0.700000*%
%ADD18C,0.250000*%
%ADD19C,0.350000*%
%ADD20C,1.000000*%
%ADD21C,0.254000*%
G04 APERTURE END LIST*
D10*
D11*
X183000000Y-64100000D03*
X183000000Y-69000000D03*
D12*
X174600000Y-63150000D03*
X173600000Y-63150000D03*
X172600000Y-63150000D03*
X171600000Y-63150000D03*
X170600000Y-63150000D03*
X169600000Y-63150000D03*
X168600000Y-63150000D03*
X167600000Y-63150000D03*
X167550000Y-59800000D03*
X168550000Y-59800000D03*
X169550000Y-59800000D03*
X170550000Y-59800000D03*
X171550000Y-59800000D03*
X172550000Y-59800000D03*
X173550000Y-59800000D03*
X174550000Y-59800000D03*
X175550000Y-59800000D03*
X176550000Y-59800000D03*
X177550000Y-59800000D03*
X167550000Y-60950000D03*
X168550000Y-60950000D03*
X169550000Y-60950000D03*
X170550000Y-60950000D03*
X171550000Y-60950000D03*
X172550000Y-60950000D03*
X173550000Y-60950000D03*
X174550000Y-60950000D03*
X175550000Y-60950000D03*
X176550000Y-60950000D03*
X177550000Y-60950000D03*
X167550000Y-61950000D03*
X168550000Y-61950000D03*
X169550000Y-61950000D03*
X170550000Y-61950000D03*
X171550000Y-61950000D03*
X172550000Y-61950000D03*
X173550000Y-61950000D03*
X174550000Y-61950000D03*
X175550000Y-61950000D03*
X176550000Y-61950000D03*
X177550000Y-61950000D03*
X177350000Y-58650000D03*
X176350000Y-58650000D03*
X175350000Y-58650000D03*
X174350000Y-58650000D03*
X173350000Y-58650000D03*
X172350000Y-58650000D03*
X171350000Y-58650000D03*
X170350000Y-58650000D03*
X169350000Y-58650000D03*
X168350000Y-58650000D03*
X167350000Y-58650000D03*
X166350000Y-58650000D03*
X165350000Y-58650000D03*
X164350000Y-58650000D03*
X163350000Y-58650000D03*
X162350000Y-58650000D03*
X177350000Y-57650000D03*
X176350000Y-57650000D03*
X175350000Y-57650000D03*
X174350000Y-57650000D03*
X173350000Y-57650000D03*
X172350000Y-57650000D03*
X171350000Y-57650000D03*
X170350000Y-57650000D03*
X169350000Y-57650000D03*
X168350000Y-57650000D03*
X167350000Y-57650000D03*
X166350000Y-57650000D03*
X165350000Y-57650000D03*
X164350000Y-57650000D03*
X163350000Y-57650000D03*
X162350000Y-57650000D03*
X184350000Y-56500000D03*
X183350000Y-56500000D03*
X182350000Y-56500000D03*
X181350000Y-56500000D03*
X180350000Y-56500000D03*
X179350000Y-56500000D03*
X178350000Y-56500000D03*
X177350000Y-56500000D03*
X176350000Y-56500000D03*
X175350000Y-56500000D03*
X174350000Y-56500000D03*
X173350000Y-56500000D03*
X172350000Y-56500000D03*
X171350000Y-56500000D03*
X170350000Y-56500000D03*
X169350000Y-56500000D03*
X168350000Y-56500000D03*
X167350000Y-56500000D03*
X166350000Y-56500000D03*
X165350000Y-56500000D03*
X164350000Y-56500000D03*
X163350000Y-56500000D03*
D13*
X174939680Y-75700000D03*
X177479680Y-75700000D03*
X164800000Y-75700000D03*
X167340000Y-75700000D03*
X172409840Y-75700000D03*
X169869840Y-75700000D03*
D12*
X162350000Y-56500000D03*
X161700000Y-102050000D03*
X161700000Y-103050000D03*
X162750000Y-103100000D03*
X162750000Y-102100000D03*
X181300000Y-101900000D03*
X181300000Y-102900000D03*
X180250000Y-102850000D03*
X180250000Y-101850000D03*
X182450000Y-101850000D03*
X182450000Y-102850000D03*
X183500000Y-102900000D03*
X183500000Y-101900000D03*
X184500000Y-101950000D03*
X184500000Y-102950000D03*
X179700000Y-100400000D03*
X179700000Y-99400000D03*
X179700000Y-98400000D03*
X179700000Y-97400000D03*
X179700000Y-96400000D03*
X178700000Y-95350000D03*
X178700000Y-96350000D03*
X178700000Y-97350000D03*
X178700000Y-98350000D03*
X178700000Y-99350000D03*
X176400000Y-82400000D03*
X176400000Y-83400000D03*
X176400000Y-84400000D03*
X176400000Y-85400000D03*
X177650000Y-99300000D03*
X176650000Y-99300000D03*
X175650000Y-99300000D03*
X177650000Y-98300000D03*
X176650000Y-98300000D03*
X175650000Y-98300000D03*
X177650000Y-97300000D03*
X176650000Y-97300000D03*
X175650000Y-97300000D03*
X177650000Y-96300000D03*
X176650000Y-96300000D03*
X175650000Y-96300000D03*
X177650000Y-95300000D03*
X176650000Y-95300000D03*
X175650000Y-95300000D03*
X177650000Y-94300000D03*
X176650000Y-94300000D03*
X175650000Y-94300000D03*
X177650000Y-93300000D03*
X176650000Y-93300000D03*
X175650000Y-93300000D03*
X177650000Y-92300000D03*
X176650000Y-92300000D03*
X175650000Y-92300000D03*
X177650000Y-91300000D03*
X176650000Y-91300000D03*
X175650000Y-91300000D03*
X168700000Y-91000000D03*
X169700000Y-91000000D03*
X170700000Y-91000000D03*
X171700000Y-91000000D03*
X171700000Y-90000000D03*
X170700000Y-90000000D03*
X169700000Y-90000000D03*
X168700000Y-90000000D03*
X167700000Y-90000000D03*
X171700000Y-89000000D03*
X170700000Y-89000000D03*
X169700000Y-89000000D03*
X168700000Y-89000000D03*
D14*
X182550000Y-95899940D03*
X182550000Y-99400060D03*
X182600000Y-88399940D03*
X182600000Y-91900060D03*
D15*
X181100000Y-83950000D03*
X178560000Y-83950000D03*
X183640000Y-83950000D03*
D13*
X174739680Y-101300000D03*
X177279680Y-101300000D03*
X164600000Y-101300000D03*
X167140000Y-101300000D03*
X172209840Y-101300000D03*
X169669840Y-101300000D03*
D12*
X167700000Y-89000000D03*
X148625000Y-79225000D03*
X148625000Y-77225000D03*
X148625000Y-78225000D03*
X147025000Y-79425000D03*
X147025000Y-78425000D03*
X147025000Y-80425000D03*
X145825000Y-81625000D03*
X145825000Y-79625000D03*
X145825000Y-80625000D03*
X144425000Y-82025000D03*
X144425000Y-81025000D03*
X144425000Y-83025000D03*
X141625000Y-83425000D03*
X141625000Y-84425000D03*
X143025000Y-84425000D03*
X143025000Y-82425000D03*
X143025000Y-83425000D03*
X148925000Y-71125000D03*
X148925000Y-72125000D03*
X148925000Y-70125000D03*
X148925000Y-69125000D03*
X149925000Y-70125000D03*
X149925000Y-69125000D03*
X150925000Y-70125000D03*
X150925000Y-69125000D03*
X153825000Y-83725000D03*
X152225000Y-84825000D03*
X150725000Y-82825000D03*
X150725000Y-83825000D03*
X150725000Y-84825000D03*
X150725000Y-85825000D03*
X150725000Y-86825000D03*
X150325000Y-87725000D03*
X152225000Y-85825000D03*
X149325000Y-88825000D03*
X149325000Y-87825000D03*
X149325000Y-86825000D03*
X149325000Y-85825000D03*
X149325000Y-84825000D03*
X149325000Y-83825000D03*
X149325000Y-82825000D03*
X147925000Y-83825000D03*
X147925000Y-84825000D03*
X147925000Y-85825000D03*
X147925000Y-86825000D03*
X147925000Y-87825000D03*
X147925000Y-88825000D03*
X147925000Y-89825000D03*
X159925000Y-69525000D03*
X159925000Y-70525000D03*
X159925000Y-71525000D03*
X159925000Y-72525000D03*
X159925000Y-73525000D03*
X159925000Y-74525000D03*
X158925000Y-69525000D03*
X158925000Y-70525000D03*
X158925000Y-71525000D03*
X158925000Y-72525000D03*
X158925000Y-73525000D03*
X158925000Y-74525000D03*
X157925000Y-69525000D03*
X157925000Y-70525000D03*
X157925000Y-71525000D03*
X157925000Y-72525000D03*
X157925000Y-73525000D03*
X157925000Y-74525000D03*
X156925000Y-69525000D03*
X156925000Y-70525000D03*
X156925000Y-71525000D03*
X156925000Y-72525000D03*
X156925000Y-73525000D03*
X156925000Y-74525000D03*
X159925000Y-64125000D03*
X159925000Y-65125000D03*
X159925000Y-66125000D03*
X159925000Y-67125000D03*
X159925000Y-68125000D03*
X158925000Y-64125000D03*
X158925000Y-65125000D03*
X158925000Y-66125000D03*
X158925000Y-67125000D03*
X158925000Y-68125000D03*
X157925000Y-64125000D03*
X157925000Y-65125000D03*
X157925000Y-66125000D03*
X157925000Y-67125000D03*
X157925000Y-68125000D03*
X156925000Y-64125000D03*
X156925000Y-65125000D03*
X156925000Y-66125000D03*
X156925000Y-67125000D03*
X156925000Y-68125000D03*
X155925000Y-64125000D03*
X155925000Y-65125000D03*
X155925000Y-66125000D03*
X155925000Y-67125000D03*
X155925000Y-68125000D03*
X154925000Y-64125000D03*
X154925000Y-65125000D03*
X154925000Y-66125000D03*
X156625000Y-75725000D03*
X153925000Y-64125000D03*
X153925000Y-65125000D03*
X159725000Y-76625000D03*
X152925000Y-64125000D03*
X152925000Y-65125000D03*
X159725000Y-75625000D03*
X151925000Y-64125000D03*
X151925000Y-65125000D03*
X151925000Y-66125000D03*
X150925000Y-64125000D03*
X150925000Y-65125000D03*
X150925000Y-66125000D03*
X150925000Y-67125000D03*
X150925000Y-68125000D03*
X149925000Y-64125000D03*
X149925000Y-65125000D03*
X149925000Y-66125000D03*
X149925000Y-67125000D03*
X149925000Y-68125000D03*
X148925000Y-64125000D03*
X148925000Y-65125000D03*
X148925000Y-66125000D03*
X148925000Y-67125000D03*
X148925000Y-68125000D03*
X147925000Y-64125000D03*
X147925000Y-65125000D03*
X147925000Y-66125000D03*
X147925000Y-67125000D03*
X147925000Y-68125000D03*
X146925000Y-64125000D03*
X146925000Y-65125000D03*
X146925000Y-66125000D03*
X146925000Y-67125000D03*
X146925000Y-68125000D03*
X145925000Y-64125000D03*
X145925000Y-65125000D03*
X145925000Y-66125000D03*
X145925000Y-67125000D03*
X145925000Y-68125000D03*
X144925000Y-64125000D03*
X144925000Y-65125000D03*
X144925000Y-66125000D03*
X144925000Y-67125000D03*
X144925000Y-68125000D03*
X143925000Y-64125000D03*
X143925000Y-65125000D03*
X143925000Y-66125000D03*
X143925000Y-67125000D03*
X143925000Y-68125000D03*
X142925000Y-64125000D03*
X142925000Y-65125000D03*
X142925000Y-66125000D03*
X142925000Y-67125000D03*
X142925000Y-68125000D03*
X141925000Y-64125000D03*
X141925000Y-65125000D03*
X141925000Y-66125000D03*
X141925000Y-67125000D03*
X141925000Y-68125000D03*
X140925000Y-64125000D03*
X140925000Y-65125000D03*
X140925000Y-66125000D03*
X140925000Y-67125000D03*
X140925000Y-68125000D03*
X139925000Y-64125000D03*
X139925000Y-65125000D03*
X139925000Y-66125000D03*
X139925000Y-67125000D03*
X139925000Y-68125000D03*
X138925000Y-64125000D03*
X138925000Y-65125000D03*
X138925000Y-66125000D03*
X138925000Y-67125000D03*
X138925000Y-68125000D03*
X145125000Y-77125000D03*
X145125000Y-76125000D03*
X145125000Y-75125000D03*
X143625000Y-75125000D03*
X143625000Y-76125000D03*
X143625000Y-77125000D03*
X143625000Y-78125000D03*
X142125000Y-80125000D03*
X142125000Y-79125000D03*
X142125000Y-78125000D03*
X142125000Y-77125000D03*
X142125000Y-76125000D03*
X142125000Y-75125000D03*
X140525000Y-75125000D03*
X140525000Y-76125000D03*
X140525000Y-77125000D03*
X140525000Y-78125000D03*
X140525000Y-79125000D03*
X140525000Y-80125000D03*
X140525000Y-81125000D03*
X139025000Y-81125000D03*
X139025000Y-80125000D03*
X139025000Y-79125000D03*
X139025000Y-78125000D03*
X139025000Y-77125000D03*
X139025000Y-76125000D03*
X139025000Y-75125000D03*
X139025000Y-82125000D03*
X137725000Y-64125000D03*
X137725000Y-65125000D03*
X137725000Y-66125000D03*
X137725000Y-67125000D03*
X137725000Y-68125000D03*
X137725000Y-69125000D03*
X137725000Y-70125000D03*
X137725000Y-71125000D03*
X137725000Y-72125000D03*
X137725000Y-73125000D03*
X137725000Y-74125000D03*
X137725000Y-75125000D03*
X137725000Y-76125000D03*
X137725000Y-77125000D03*
X137725000Y-78125000D03*
X137725000Y-79125000D03*
X137725000Y-80125000D03*
X137725000Y-81125000D03*
X137725000Y-82125000D03*
X137725000Y-83125000D03*
X137725000Y-84125000D03*
X137725000Y-85125000D03*
X137725000Y-86125000D03*
X157025000Y-86425000D03*
X158025000Y-86425000D03*
X158025000Y-85425000D03*
X160025000Y-83425000D03*
X159025000Y-86425000D03*
X159025000Y-85425000D03*
X159025000Y-84425000D03*
X160025000Y-86425000D03*
X160025000Y-85425000D03*
X160025000Y-84425000D03*
X154925000Y-90425000D03*
X154925000Y-89425000D03*
X154925000Y-88425000D03*
X160025000Y-87425000D03*
X160025000Y-88425000D03*
X160025000Y-89425000D03*
X160025000Y-90425000D03*
X160025000Y-91425000D03*
X160025000Y-92425000D03*
X159025000Y-87425000D03*
X159025000Y-88425000D03*
X159025000Y-89425000D03*
X159025000Y-90425000D03*
X159025000Y-91425000D03*
X159025000Y-92425000D03*
X158025000Y-87425000D03*
X158025000Y-88425000D03*
X158025000Y-89425000D03*
X158025000Y-90425000D03*
X158025000Y-91425000D03*
X158025000Y-92425000D03*
X157025000Y-87425000D03*
X157025000Y-88425000D03*
X157025000Y-89425000D03*
X157025000Y-90425000D03*
X157025000Y-91425000D03*
X157025000Y-92425000D03*
X156025000Y-87425000D03*
X156025000Y-88425000D03*
X156025000Y-89425000D03*
X156025000Y-90425000D03*
X156025000Y-91425000D03*
X156025000Y-92425000D03*
X159925000Y-93525000D03*
X158025000Y-93525000D03*
X157025000Y-93525000D03*
X156025000Y-93525000D03*
X159025000Y-93525000D03*
X159925000Y-94625000D03*
X158925000Y-94625000D03*
X157925000Y-94625000D03*
X156925000Y-94625000D03*
X155925000Y-94625000D03*
X154925000Y-94625000D03*
X153925000Y-94625000D03*
X152925000Y-94625000D03*
X151925000Y-94625000D03*
X150925000Y-94625000D03*
X149925000Y-94625000D03*
X159925000Y-95725000D03*
X158925000Y-95725000D03*
X157925000Y-95725000D03*
X156925000Y-95725000D03*
X155925000Y-95725000D03*
X154925000Y-95725000D03*
X153925000Y-95725000D03*
X152925000Y-95725000D03*
X151925000Y-95725000D03*
X150925000Y-95725000D03*
X149925000Y-95725000D03*
X148925000Y-95725000D03*
X147925000Y-95725000D03*
X142925000Y-95725000D03*
X143925000Y-95725000D03*
X144925000Y-95725000D03*
X145925000Y-95725000D03*
X146925000Y-95725000D03*
X137725000Y-88425000D03*
X141725000Y-93725000D03*
X141725000Y-94725000D03*
X141725000Y-95725000D03*
X137725000Y-90725000D03*
X137725000Y-87125000D03*
X140725000Y-93725000D03*
X140725000Y-94725000D03*
X140725000Y-95725000D03*
X137725000Y-89625000D03*
X139725000Y-92725000D03*
X139725000Y-93725000D03*
X139725000Y-94725000D03*
X139725000Y-95725000D03*
X138725000Y-91725000D03*
X138725000Y-92725000D03*
X138725000Y-93725000D03*
X138725000Y-94725000D03*
X138725000Y-95725000D03*
X137725000Y-91725000D03*
X137725000Y-92725000D03*
X137725000Y-93725000D03*
X137725000Y-94725000D03*
X153425000Y-80025000D03*
X152663000Y-79263000D03*
X152663000Y-80787000D03*
X154187000Y-79263000D03*
X154187000Y-80787000D03*
D16*
X153425000Y-80025000D03*
D12*
X137725000Y-95725000D03*
D17*
X165650000Y-70950000D03*
X170600000Y-68400000D03*
X180250000Y-77050000D03*
X178750000Y-61500000D03*
X170700000Y-72250000D03*
X166000000Y-63400000D03*
X175100000Y-68300000D03*
X166700000Y-60400000D03*
X162800000Y-60500000D03*
X161950000Y-86350000D03*
X162400000Y-81500000D03*
X171750000Y-86700000D03*
X165900000Y-82300000D03*
X168900000Y-83750000D03*
X165450000Y-96550000D03*
X170550000Y-94750000D03*
X170500000Y-97850000D03*
X165800000Y-89000000D03*
X174900000Y-93900000D03*
X158225000Y-77925000D03*
X158225000Y-76125000D03*
X151725000Y-74825000D03*
X151125000Y-72825000D03*
X158676840Y-80376840D03*
X152175320Y-83174680D03*
X146225000Y-91425000D03*
X166500000Y-72500000D03*
X162650000Y-69200000D03*
X162600000Y-62200000D03*
X175000000Y-69900000D03*
X161500000Y-90400000D03*
X166300000Y-98100000D03*
X162450000Y-94800000D03*
X166550000Y-68550000D03*
X168000000Y-68400000D03*
X166350000Y-94150000D03*
X167800000Y-94000000D03*
X177200000Y-89050000D03*
X163000000Y-93800000D03*
X169800000Y-86000000D03*
X162750000Y-85000000D03*
X165350000Y-86400000D03*
X162750000Y-90100000D03*
X142525000Y-91325000D03*
X143025000Y-94025000D03*
D18*
X158225000Y-76125000D02*
X158225000Y-77925000D01*
X158725000Y-80425000D02*
X158725000Y-80525000D01*
X158676840Y-80376840D02*
X158725000Y-80425000D01*
X152175320Y-83174680D02*
X152225000Y-83125000D01*
D19*
X166450000Y-73650000D02*
X167150000Y-75510000D01*
X166550000Y-72600000D02*
X166450000Y-73650000D01*
X166500000Y-72500000D02*
X166550000Y-72600000D01*
X167150000Y-75510000D02*
X167340000Y-75700000D01*
X162650000Y-69200000D02*
X162675000Y-69175000D01*
X162675000Y-69175000D02*
X162650000Y-69200000D01*
X162650000Y-69200000D02*
X162650000Y-69150000D01*
X161700000Y-63100000D02*
X162600000Y-62200000D01*
X161700000Y-68200000D02*
X161700000Y-63100000D01*
X163300000Y-69800000D02*
X162650000Y-69150000D01*
X162650000Y-69150000D02*
X161700000Y-68200000D01*
X174800000Y-70100000D02*
X163300000Y-69800000D01*
X175000000Y-69900000D02*
X174800000Y-70100000D01*
X162450000Y-94800000D02*
X162450000Y-94600000D01*
X161500000Y-93650000D02*
X161500000Y-90400000D01*
X162450000Y-94600000D02*
X161500000Y-93650000D01*
X166250000Y-99250000D02*
X166950000Y-101110000D01*
X166350000Y-98200000D02*
X166250000Y-99250000D01*
X166300000Y-98100000D02*
X166350000Y-98200000D01*
X166950000Y-101110000D02*
X167140000Y-101300000D01*
X162450000Y-94800000D02*
X162475000Y-94775000D01*
X162475000Y-94775000D02*
X162450000Y-94800000D01*
X167900000Y-68500000D02*
X166550000Y-68550000D01*
X168000000Y-68400000D02*
X167900000Y-68500000D01*
X167700000Y-94100000D02*
X166350000Y-94150000D01*
X167800000Y-94000000D02*
X167700000Y-94100000D01*
D20*
X177850060Y-88399940D02*
X182600000Y-88399940D01*
X177200000Y-89050000D02*
X177850060Y-88399940D01*
X182550000Y-95899940D02*
X181749940Y-95899940D01*
X181749940Y-95899940D02*
X179350000Y-93500000D01*
X179350000Y-93500000D02*
X179350000Y-90150000D01*
X179350000Y-90150000D02*
X181100060Y-88399940D01*
X181100060Y-88399940D02*
X182600000Y-88399940D01*
D19*
X178560000Y-86290000D02*
X178560000Y-83950000D01*
X171950000Y-92900000D02*
X178560000Y-86290000D01*
X166000000Y-92900000D02*
X171950000Y-92900000D01*
X164850000Y-94050000D02*
X166000000Y-92900000D01*
X163250000Y-94050000D02*
X164850000Y-94050000D01*
X163000000Y-93800000D02*
X163250000Y-94050000D01*
X169800000Y-86000000D02*
X168900000Y-85100000D01*
X168900000Y-85100000D02*
X162850000Y-85100000D01*
X162850000Y-85100000D02*
X162750000Y-85000000D01*
X165350000Y-87500000D02*
X165350000Y-86400000D01*
X162750000Y-90100000D02*
X165350000Y-87500000D01*
D18*
X142625000Y-93625000D02*
X142525000Y-91325000D01*
X143025000Y-94025000D02*
X142625000Y-93625000D01*
D21*
G36*
X185423000Y-78026494D02*
X161377553Y-78172224D01*
X161387011Y-75982603D01*
X163372752Y-75982603D01*
X163589543Y-76507275D01*
X163990614Y-76909047D01*
X164514907Y-77126752D01*
X165082603Y-77127248D01*
X165607275Y-76910457D01*
X166009047Y-76509386D01*
X166069881Y-76362882D01*
X166129543Y-76507275D01*
X166530614Y-76909047D01*
X167054907Y-77126752D01*
X167622603Y-77127248D01*
X168147275Y-76910457D01*
X168277800Y-76780159D01*
X168969286Y-76780159D01*
X169055692Y-77036643D01*
X169629176Y-77246458D01*
X170239300Y-77220839D01*
X170683988Y-77036643D01*
X170770394Y-76780159D01*
X169869840Y-75879605D01*
X168969286Y-76780159D01*
X168277800Y-76780159D01*
X168541481Y-76516939D01*
X168789681Y-76600554D01*
X169690235Y-75700000D01*
X170049445Y-75700000D01*
X170949999Y-76600554D01*
X171206304Y-76514208D01*
X171600454Y-76909047D01*
X172124747Y-77126752D01*
X172692443Y-77127248D01*
X173217115Y-76910457D01*
X173618887Y-76509386D01*
X173674628Y-76375146D01*
X173729223Y-76507275D01*
X174130294Y-76909047D01*
X174654587Y-77126752D01*
X175222283Y-77127248D01*
X175746955Y-76910457D01*
X176148727Y-76509386D01*
X176209561Y-76362882D01*
X176269223Y-76507275D01*
X176670294Y-76909047D01*
X177194587Y-77126752D01*
X177762283Y-77127248D01*
X178286955Y-76910457D01*
X178688727Y-76509386D01*
X178906432Y-75985093D01*
X178906928Y-75417397D01*
X178690137Y-74892725D01*
X178289066Y-74490953D01*
X177764773Y-74273248D01*
X177197077Y-74272752D01*
X176672405Y-74489543D01*
X176270633Y-74890614D01*
X176209799Y-75037118D01*
X176150137Y-74892725D01*
X175749066Y-74490953D01*
X175224773Y-74273248D01*
X174657077Y-74272752D01*
X174132405Y-74489543D01*
X173730633Y-74890614D01*
X173674892Y-75024854D01*
X173620297Y-74892725D01*
X173219226Y-74490953D01*
X172694933Y-74273248D01*
X172127237Y-74272752D01*
X171602565Y-74489543D01*
X171205795Y-74885620D01*
X170949999Y-74799446D01*
X170049445Y-75700000D01*
X169690235Y-75700000D01*
X168789681Y-74799446D01*
X168540979Y-74883230D01*
X168278050Y-74619841D01*
X168969286Y-74619841D01*
X169869840Y-75520395D01*
X170770394Y-74619841D01*
X170683988Y-74363357D01*
X170110504Y-74153542D01*
X169500380Y-74179161D01*
X169055692Y-74363357D01*
X168969286Y-74619841D01*
X168278050Y-74619841D01*
X168149386Y-74490953D01*
X167625093Y-74273248D01*
X167434561Y-74273082D01*
X167164243Y-73554807D01*
X167214624Y-73025807D01*
X167243051Y-72997429D01*
X167376847Y-72675211D01*
X167377151Y-72326319D01*
X167243918Y-72003869D01*
X166997429Y-71756949D01*
X166675211Y-71623153D01*
X166326319Y-71622849D01*
X166003869Y-71756082D01*
X165756949Y-72002571D01*
X165623153Y-72324789D01*
X165622849Y-72673681D01*
X165756082Y-72996131D01*
X165802653Y-73042784D01*
X165751162Y-73583444D01*
X165753402Y-73605463D01*
X165748377Y-73627013D01*
X165767194Y-73741003D01*
X165778889Y-73855944D01*
X165789383Y-73875426D01*
X165792988Y-73897263D01*
X166157032Y-74864580D01*
X166130953Y-74890614D01*
X166070119Y-75037118D01*
X166010457Y-74892725D01*
X165609386Y-74490953D01*
X165085093Y-74273248D01*
X164517397Y-74272752D01*
X163992725Y-74489543D01*
X163590953Y-74890614D01*
X163373248Y-75414907D01*
X163372752Y-75982603D01*
X161387011Y-75982603D01*
X161417561Y-68910339D01*
X161772943Y-69265721D01*
X161772849Y-69373681D01*
X161906082Y-69696131D01*
X162152571Y-69943051D01*
X162474789Y-70076847D01*
X162584164Y-70076942D01*
X162803611Y-70296389D01*
X162910010Y-70367482D01*
X163014534Y-70441337D01*
X163023617Y-70443391D01*
X163031357Y-70448563D01*
X163156866Y-70473529D01*
X163281693Y-70501761D01*
X174781693Y-70801761D01*
X174790868Y-70800184D01*
X174800000Y-70802000D01*
X174925522Y-70777032D01*
X174926084Y-70776935D01*
X175173681Y-70777151D01*
X175496131Y-70643918D01*
X175743051Y-70397429D01*
X175876847Y-70075211D01*
X175877151Y-69726319D01*
X175743918Y-69403869D01*
X175612979Y-69272701D01*
X181622762Y-69272701D01*
X181831956Y-69778989D01*
X182218974Y-70166683D01*
X182724896Y-70376760D01*
X183272701Y-70377238D01*
X183778989Y-70168044D01*
X184166683Y-69781026D01*
X184376760Y-69275104D01*
X184377238Y-68727299D01*
X184168044Y-68221011D01*
X183781026Y-67833317D01*
X183275104Y-67623240D01*
X182727299Y-67622762D01*
X182221011Y-67831956D01*
X181833317Y-68218974D01*
X181623240Y-68724896D01*
X181622762Y-69272701D01*
X175612979Y-69272701D01*
X175497429Y-69156949D01*
X175175211Y-69023153D01*
X174826319Y-69022849D01*
X174503869Y-69156082D01*
X174275474Y-69384078D01*
X168292627Y-69228004D01*
X168496131Y-69143918D01*
X168743051Y-68897429D01*
X168876847Y-68575211D01*
X168877151Y-68226319D01*
X168743918Y-67903869D01*
X168497429Y-67656949D01*
X168175211Y-67523153D01*
X167826319Y-67522849D01*
X167503869Y-67656082D01*
X167341462Y-67818205D01*
X167068749Y-67828306D01*
X167047429Y-67806949D01*
X166725211Y-67673153D01*
X166376319Y-67672849D01*
X166053869Y-67806082D01*
X165806949Y-68052571D01*
X165673153Y-68374789D01*
X165672849Y-68723681D01*
X165806082Y-69046131D01*
X165926007Y-69166266D01*
X163598322Y-69105544D01*
X163527144Y-69034366D01*
X163527151Y-69026319D01*
X163393918Y-68703869D01*
X163147429Y-68456949D01*
X162825211Y-68323153D01*
X162815923Y-68323145D01*
X162402000Y-67909222D01*
X162402000Y-64372701D01*
X181622762Y-64372701D01*
X181831956Y-64878989D01*
X182218974Y-65266683D01*
X182724896Y-65476760D01*
X183272701Y-65477238D01*
X183778989Y-65268044D01*
X184166683Y-64881026D01*
X184376760Y-64375104D01*
X184377238Y-63827299D01*
X184168044Y-63321011D01*
X183781026Y-62933317D01*
X183275104Y-62723240D01*
X182727299Y-62722762D01*
X182221011Y-62931956D01*
X181833317Y-63318974D01*
X181623240Y-63824896D01*
X181622762Y-64372701D01*
X162402000Y-64372701D01*
X162402000Y-63390778D01*
X162715678Y-63077100D01*
X162773681Y-63077151D01*
X163096131Y-62943918D01*
X163343051Y-62697429D01*
X163476847Y-62375211D01*
X163477151Y-62026319D01*
X163343918Y-61703869D01*
X163097429Y-61456949D01*
X162775211Y-61323153D01*
X162426319Y-61322849D01*
X162103869Y-61456082D01*
X161856949Y-61702571D01*
X161723153Y-62024789D01*
X161723101Y-62084121D01*
X161445851Y-62361371D01*
X161475157Y-55577000D01*
X185423000Y-55577000D01*
X185423000Y-78026494D01*
X185423000Y-78026494D01*
G37*
X185423000Y-78026494D02*
X161377553Y-78172224D01*
X161387011Y-75982603D01*
X163372752Y-75982603D01*
X163589543Y-76507275D01*
X163990614Y-76909047D01*
X164514907Y-77126752D01*
X165082603Y-77127248D01*
X165607275Y-76910457D01*
X166009047Y-76509386D01*
X166069881Y-76362882D01*
X166129543Y-76507275D01*
X166530614Y-76909047D01*
X167054907Y-77126752D01*
X167622603Y-77127248D01*
X168147275Y-76910457D01*
X168277800Y-76780159D01*
X168969286Y-76780159D01*
X169055692Y-77036643D01*
X169629176Y-77246458D01*
X170239300Y-77220839D01*
X170683988Y-77036643D01*
X170770394Y-76780159D01*
X169869840Y-75879605D01*
X168969286Y-76780159D01*
X168277800Y-76780159D01*
X168541481Y-76516939D01*
X168789681Y-76600554D01*
X169690235Y-75700000D01*
X170049445Y-75700000D01*
X170949999Y-76600554D01*
X171206304Y-76514208D01*
X171600454Y-76909047D01*
X172124747Y-77126752D01*
X172692443Y-77127248D01*
X173217115Y-76910457D01*
X173618887Y-76509386D01*
X173674628Y-76375146D01*
X173729223Y-76507275D01*
X174130294Y-76909047D01*
X174654587Y-77126752D01*
X175222283Y-77127248D01*
X175746955Y-76910457D01*
X176148727Y-76509386D01*
X176209561Y-76362882D01*
X176269223Y-76507275D01*
X176670294Y-76909047D01*
X177194587Y-77126752D01*
X177762283Y-77127248D01*
X178286955Y-76910457D01*
X178688727Y-76509386D01*
X178906432Y-75985093D01*
X178906928Y-75417397D01*
X178690137Y-74892725D01*
X178289066Y-74490953D01*
X177764773Y-74273248D01*
X177197077Y-74272752D01*
X176672405Y-74489543D01*
X176270633Y-74890614D01*
X176209799Y-75037118D01*
X176150137Y-74892725D01*
X175749066Y-74490953D01*
X175224773Y-74273248D01*
X174657077Y-74272752D01*
X174132405Y-74489543D01*
X173730633Y-74890614D01*
X173674892Y-75024854D01*
X173620297Y-74892725D01*
X173219226Y-74490953D01*
X172694933Y-74273248D01*
X172127237Y-74272752D01*
X171602565Y-74489543D01*
X171205795Y-74885620D01*
X170949999Y-74799446D01*
X170049445Y-75700000D01*
X169690235Y-75700000D01*
X168789681Y-74799446D01*
X168540979Y-74883230D01*
X168278050Y-74619841D01*
X168969286Y-74619841D01*
X169869840Y-75520395D01*
X170770394Y-74619841D01*
X170683988Y-74363357D01*
X170110504Y-74153542D01*
X169500380Y-74179161D01*
X169055692Y-74363357D01*
X168969286Y-74619841D01*
X168278050Y-74619841D01*
X168149386Y-74490953D01*
X167625093Y-74273248D01*
X167434561Y-74273082D01*
X167164243Y-73554807D01*
X167214624Y-73025807D01*
X167243051Y-72997429D01*
X167376847Y-72675211D01*
X167377151Y-72326319D01*
X167243918Y-72003869D01*
X166997429Y-71756949D01*
X166675211Y-71623153D01*
X166326319Y-71622849D01*
X166003869Y-71756082D01*
X165756949Y-72002571D01*
X165623153Y-72324789D01*
X165622849Y-72673681D01*
X165756082Y-72996131D01*
X165802653Y-73042784D01*
X165751162Y-73583444D01*
X165753402Y-73605463D01*
X165748377Y-73627013D01*
X165767194Y-73741003D01*
X165778889Y-73855944D01*
X165789383Y-73875426D01*
X165792988Y-73897263D01*
X166157032Y-74864580D01*
X166130953Y-74890614D01*
X166070119Y-75037118D01*
X166010457Y-74892725D01*
X165609386Y-74490953D01*
X165085093Y-74273248D01*
X164517397Y-74272752D01*
X163992725Y-74489543D01*
X163590953Y-74890614D01*
X163373248Y-75414907D01*
X163372752Y-75982603D01*
X161387011Y-75982603D01*
X161417561Y-68910339D01*
X161772943Y-69265721D01*
X161772849Y-69373681D01*
X161906082Y-69696131D01*
X162152571Y-69943051D01*
X162474789Y-70076847D01*
X162584164Y-70076942D01*
X162803611Y-70296389D01*
X162910010Y-70367482D01*
X163014534Y-70441337D01*
X163023617Y-70443391D01*
X163031357Y-70448563D01*
X163156866Y-70473529D01*
X163281693Y-70501761D01*
X174781693Y-70801761D01*
X174790868Y-70800184D01*
X174800000Y-70802000D01*
X174925522Y-70777032D01*
X174926084Y-70776935D01*
X175173681Y-70777151D01*
X175496131Y-70643918D01*
X175743051Y-70397429D01*
X175876847Y-70075211D01*
X175877151Y-69726319D01*
X175743918Y-69403869D01*
X175612979Y-69272701D01*
X181622762Y-69272701D01*
X181831956Y-69778989D01*
X182218974Y-70166683D01*
X182724896Y-70376760D01*
X183272701Y-70377238D01*
X183778989Y-70168044D01*
X184166683Y-69781026D01*
X184376760Y-69275104D01*
X184377238Y-68727299D01*
X184168044Y-68221011D01*
X183781026Y-67833317D01*
X183275104Y-67623240D01*
X182727299Y-67622762D01*
X182221011Y-67831956D01*
X181833317Y-68218974D01*
X181623240Y-68724896D01*
X181622762Y-69272701D01*
X175612979Y-69272701D01*
X175497429Y-69156949D01*
X175175211Y-69023153D01*
X174826319Y-69022849D01*
X174503869Y-69156082D01*
X174275474Y-69384078D01*
X168292627Y-69228004D01*
X168496131Y-69143918D01*
X168743051Y-68897429D01*
X168876847Y-68575211D01*
X168877151Y-68226319D01*
X168743918Y-67903869D01*
X168497429Y-67656949D01*
X168175211Y-67523153D01*
X167826319Y-67522849D01*
X167503869Y-67656082D01*
X167341462Y-67818205D01*
X167068749Y-67828306D01*
X167047429Y-67806949D01*
X166725211Y-67673153D01*
X166376319Y-67672849D01*
X166053869Y-67806082D01*
X165806949Y-68052571D01*
X165673153Y-68374789D01*
X165672849Y-68723681D01*
X165806082Y-69046131D01*
X165926007Y-69166266D01*
X163598322Y-69105544D01*
X163527144Y-69034366D01*
X163527151Y-69026319D01*
X163393918Y-68703869D01*
X163147429Y-68456949D01*
X162825211Y-68323153D01*
X162815923Y-68323145D01*
X162402000Y-67909222D01*
X162402000Y-64372701D01*
X181622762Y-64372701D01*
X181831956Y-64878989D01*
X182218974Y-65266683D01*
X182724896Y-65476760D01*
X183272701Y-65477238D01*
X183778989Y-65268044D01*
X184166683Y-64881026D01*
X184376760Y-64375104D01*
X184377238Y-63827299D01*
X184168044Y-63321011D01*
X183781026Y-62933317D01*
X183275104Y-62723240D01*
X182727299Y-62722762D01*
X182221011Y-62931956D01*
X181833317Y-63318974D01*
X181623240Y-63824896D01*
X181622762Y-64372701D01*
X162402000Y-64372701D01*
X162402000Y-63390778D01*
X162715678Y-63077100D01*
X162773681Y-63077151D01*
X163096131Y-62943918D01*
X163343051Y-62697429D01*
X163476847Y-62375211D01*
X163477151Y-62026319D01*
X163343918Y-61703869D01*
X163097429Y-61456949D01*
X162775211Y-61323153D01*
X162426319Y-61322849D01*
X162103869Y-61456082D01*
X161856949Y-61702571D01*
X161723153Y-62024789D01*
X161723101Y-62084121D01*
X161445851Y-62361371D01*
X161475157Y-55577000D01*
X185423000Y-55577000D01*
X185423000Y-78026494D01*
G36*
X185223000Y-103626494D02*
X161177553Y-103772224D01*
X161187011Y-101582603D01*
X163172752Y-101582603D01*
X163389543Y-102107275D01*
X163790614Y-102509047D01*
X164314907Y-102726752D01*
X164882603Y-102727248D01*
X165407275Y-102510457D01*
X165809047Y-102109386D01*
X165869881Y-101962882D01*
X165929543Y-102107275D01*
X166330614Y-102509047D01*
X166854907Y-102726752D01*
X167422603Y-102727248D01*
X167947275Y-102510457D01*
X168077800Y-102380159D01*
X168769286Y-102380159D01*
X168855692Y-102636643D01*
X169429176Y-102846458D01*
X170039300Y-102820839D01*
X170483988Y-102636643D01*
X170570394Y-102380159D01*
X169669840Y-101479605D01*
X168769286Y-102380159D01*
X168077800Y-102380159D01*
X168341481Y-102116939D01*
X168589681Y-102200554D01*
X169490235Y-101300000D01*
X169849445Y-101300000D01*
X170749999Y-102200554D01*
X171006304Y-102114208D01*
X171400454Y-102509047D01*
X171924747Y-102726752D01*
X172492443Y-102727248D01*
X173017115Y-102510457D01*
X173418887Y-102109386D01*
X173474628Y-101975146D01*
X173529223Y-102107275D01*
X173930294Y-102509047D01*
X174454587Y-102726752D01*
X175022283Y-102727248D01*
X175546955Y-102510457D01*
X175948727Y-102109386D01*
X176009561Y-101962882D01*
X176069223Y-102107275D01*
X176470294Y-102509047D01*
X176994587Y-102726752D01*
X177562283Y-102727248D01*
X178086955Y-102510457D01*
X178488727Y-102109386D01*
X178706432Y-101585093D01*
X178706928Y-101017397D01*
X178589575Y-100733380D01*
X181396285Y-100733380D01*
X181525533Y-101026183D01*
X182225806Y-101294448D01*
X182975435Y-101274310D01*
X183574467Y-101026183D01*
X183703715Y-100733380D01*
X182550000Y-99579665D01*
X181396285Y-100733380D01*
X178589575Y-100733380D01*
X178490137Y-100492725D01*
X178089066Y-100090953D01*
X177564773Y-99873248D01*
X176997077Y-99872752D01*
X176472405Y-100089543D01*
X176070633Y-100490614D01*
X176009799Y-100637118D01*
X175950137Y-100492725D01*
X175549066Y-100090953D01*
X175024773Y-99873248D01*
X174457077Y-99872752D01*
X173932405Y-100089543D01*
X173530633Y-100490614D01*
X173474892Y-100624854D01*
X173420297Y-100492725D01*
X173019226Y-100090953D01*
X172494933Y-99873248D01*
X171927237Y-99872752D01*
X171402565Y-100089543D01*
X171005795Y-100485620D01*
X170749999Y-100399446D01*
X169849445Y-101300000D01*
X169490235Y-101300000D01*
X168589681Y-100399446D01*
X168340979Y-100483230D01*
X168078050Y-100219841D01*
X168769286Y-100219841D01*
X169669840Y-101120395D01*
X170570394Y-100219841D01*
X170483988Y-99963357D01*
X169910504Y-99753542D01*
X169300380Y-99779161D01*
X168855692Y-99963357D01*
X168769286Y-100219841D01*
X168078050Y-100219841D01*
X167949386Y-100090953D01*
X167425093Y-99873248D01*
X167234561Y-99873082D01*
X166964243Y-99154807D01*
X166971761Y-99075866D01*
X180655612Y-99075866D01*
X180675750Y-99825495D01*
X180923877Y-100424527D01*
X181216680Y-100553775D01*
X182370395Y-99400060D01*
X182729605Y-99400060D01*
X183883320Y-100553775D01*
X184176123Y-100424527D01*
X184444388Y-99724254D01*
X184424250Y-98974625D01*
X184176123Y-98375593D01*
X183883320Y-98246345D01*
X182729605Y-99400060D01*
X182370395Y-99400060D01*
X181216680Y-98246345D01*
X180923877Y-98375593D01*
X180655612Y-99075866D01*
X166971761Y-99075866D01*
X167014624Y-98625807D01*
X167043051Y-98597429D01*
X167176847Y-98275211D01*
X167177151Y-97926319D01*
X167043918Y-97603869D01*
X166797429Y-97356949D01*
X166475211Y-97223153D01*
X166126319Y-97222849D01*
X165803869Y-97356082D01*
X165556949Y-97602571D01*
X165423153Y-97924789D01*
X165422849Y-98273681D01*
X165556082Y-98596131D01*
X165602653Y-98642784D01*
X165551162Y-99183444D01*
X165553402Y-99205463D01*
X165548377Y-99227013D01*
X165567194Y-99341003D01*
X165578889Y-99455944D01*
X165589383Y-99475426D01*
X165592988Y-99497263D01*
X165957032Y-100464580D01*
X165930953Y-100490614D01*
X165870119Y-100637118D01*
X165810457Y-100492725D01*
X165409386Y-100090953D01*
X164885093Y-99873248D01*
X164317397Y-99872752D01*
X163792725Y-100089543D01*
X163390953Y-100490614D01*
X163173248Y-101014907D01*
X163172752Y-101582603D01*
X161187011Y-101582603D01*
X161218206Y-94360984D01*
X161573074Y-94715852D01*
X161572849Y-94973681D01*
X161706082Y-95296131D01*
X161952571Y-95543051D01*
X162274789Y-95676847D01*
X162623681Y-95677151D01*
X162946131Y-95543918D01*
X163193051Y-95297429D01*
X163326847Y-94975211D01*
X163327041Y-94752000D01*
X164850000Y-94752000D01*
X165118644Y-94698563D01*
X165346389Y-94546389D01*
X165500990Y-94391788D01*
X165606082Y-94646131D01*
X165852571Y-94893051D01*
X166174789Y-95026847D01*
X166523681Y-95027151D01*
X166846131Y-94893918D01*
X166908356Y-94831801D01*
X167466521Y-94811129D01*
X167624789Y-94876847D01*
X167973681Y-94877151D01*
X168296131Y-94743918D01*
X168543051Y-94497429D01*
X168676847Y-94175211D01*
X168677151Y-93826319D01*
X168584465Y-93602000D01*
X171950000Y-93602000D01*
X172218644Y-93548563D01*
X172446389Y-93396389D01*
X176310691Y-89532087D01*
X176473801Y-89776199D01*
X176806984Y-89998824D01*
X177200000Y-90077000D01*
X177593016Y-89998824D01*
X177926199Y-89776199D01*
X178275457Y-89426940D01*
X178621704Y-89426940D01*
X178401176Y-89756984D01*
X178323000Y-90150000D01*
X178323000Y-93500000D01*
X178401176Y-93893016D01*
X178623801Y-94226199D01*
X180422890Y-96025287D01*
X180422632Y-96321170D01*
X180745766Y-97103214D01*
X181343578Y-97702071D01*
X181524157Y-97777054D01*
X181396285Y-98066740D01*
X182550000Y-99220455D01*
X183703715Y-98066740D01*
X183576005Y-97777420D01*
X183753274Y-97704174D01*
X184352131Y-97106362D01*
X184676630Y-96324883D01*
X184677368Y-95478710D01*
X184354234Y-94696666D01*
X183756422Y-94097809D01*
X183304776Y-93910269D01*
X183803274Y-93704294D01*
X184402131Y-93106482D01*
X184726630Y-92325003D01*
X184727368Y-91478830D01*
X184404234Y-90696786D01*
X183857973Y-90149570D01*
X184402131Y-89606362D01*
X184726630Y-88824883D01*
X184727368Y-87978710D01*
X184404234Y-87196666D01*
X183806422Y-86597809D01*
X183024943Y-86273310D01*
X182178770Y-86272572D01*
X181396726Y-86595706D01*
X180797869Y-87193518D01*
X180723366Y-87372940D01*
X178469838Y-87372940D01*
X179056389Y-86786389D01*
X179208564Y-86558643D01*
X179262000Y-86290000D01*
X179262000Y-86049824D01*
X179533424Y-85868464D01*
X179830000Y-85424607D01*
X180126576Y-85868464D01*
X180573187Y-86166880D01*
X181100000Y-86271670D01*
X181626813Y-86166880D01*
X182073424Y-85868464D01*
X182310530Y-85513610D01*
X182316982Y-85535906D01*
X182680011Y-85990024D01*
X183189190Y-86270649D01*
X183283168Y-86291540D01*
X183513000Y-86170214D01*
X183513000Y-84077000D01*
X183767000Y-84077000D01*
X183767000Y-86170214D01*
X183996832Y-86291540D01*
X184090810Y-86270649D01*
X184599989Y-85990024D01*
X184963018Y-85535906D01*
X185124630Y-84977430D01*
X185124630Y-84077000D01*
X183767000Y-84077000D01*
X183513000Y-84077000D01*
X183493000Y-84077000D01*
X183493000Y-83823000D01*
X183513000Y-83823000D01*
X183513000Y-81729786D01*
X183767000Y-81729786D01*
X183767000Y-83823000D01*
X185124630Y-83823000D01*
X185124630Y-82922570D01*
X184963018Y-82364094D01*
X184599989Y-81909976D01*
X184090810Y-81629351D01*
X183996832Y-81608460D01*
X183767000Y-81729786D01*
X183513000Y-81729786D01*
X183283168Y-81608460D01*
X183189190Y-81629351D01*
X182680011Y-81909976D01*
X182316982Y-82364094D01*
X182310530Y-82386390D01*
X182073424Y-82031536D01*
X181626813Y-81733120D01*
X181100000Y-81628330D01*
X180573187Y-81733120D01*
X180126576Y-82031536D01*
X179830000Y-82475393D01*
X179533424Y-82031536D01*
X179086813Y-81733120D01*
X178560000Y-81628330D01*
X178033187Y-81733120D01*
X177586576Y-82031536D01*
X177288160Y-82478147D01*
X177183370Y-83004960D01*
X177183370Y-84895040D01*
X177288160Y-85421853D01*
X177586576Y-85868464D01*
X177827666Y-86029556D01*
X171659222Y-92198000D01*
X166000000Y-92198000D01*
X165731357Y-92251436D01*
X165503611Y-92403611D01*
X164559222Y-93348000D01*
X163762152Y-93348000D01*
X163743918Y-93303869D01*
X163497429Y-93056949D01*
X163175211Y-92923153D01*
X162826319Y-92922849D01*
X162503869Y-93056082D01*
X162256949Y-93302571D01*
X162224205Y-93381427D01*
X162202000Y-93359222D01*
X162202000Y-90938408D01*
X162243051Y-90897429D01*
X162263710Y-90847676D01*
X162574789Y-90976847D01*
X162923681Y-90977151D01*
X163246131Y-90843918D01*
X163493051Y-90597429D01*
X163626847Y-90275211D01*
X163626899Y-90215879D01*
X165846389Y-87996389D01*
X165860683Y-87974997D01*
X165998563Y-87768644D01*
X166052000Y-87500000D01*
X166052000Y-86938408D01*
X166093051Y-86897429D01*
X166226847Y-86575211D01*
X166227151Y-86226319D01*
X166093918Y-85903869D01*
X165992227Y-85802000D01*
X168609222Y-85802000D01*
X168922900Y-86115678D01*
X168922849Y-86173681D01*
X169056082Y-86496131D01*
X169302571Y-86743051D01*
X169624789Y-86876847D01*
X169973681Y-86877151D01*
X170296131Y-86743918D01*
X170543051Y-86497429D01*
X170676847Y-86175211D01*
X170677151Y-85826319D01*
X170543918Y-85503869D01*
X170297429Y-85256949D01*
X169975211Y-85123153D01*
X169915879Y-85123101D01*
X169396389Y-84603611D01*
X169247114Y-84503869D01*
X169168644Y-84451437D01*
X168900000Y-84398000D01*
X163388234Y-84398000D01*
X163247429Y-84256949D01*
X162925211Y-84123153D01*
X162576319Y-84122849D01*
X162253869Y-84256082D01*
X162006949Y-84502571D01*
X161873153Y-84824789D01*
X161872849Y-85173681D01*
X162006082Y-85496131D01*
X162252571Y-85743051D01*
X162574789Y-85876847D01*
X162923681Y-85877151D01*
X163105561Y-85802000D01*
X164707696Y-85802000D01*
X164606949Y-85902571D01*
X164473153Y-86224789D01*
X164472849Y-86573681D01*
X164606082Y-86896131D01*
X164648000Y-86938122D01*
X164648000Y-87209222D01*
X162634322Y-89222900D01*
X162576319Y-89222849D01*
X162253869Y-89356082D01*
X162006949Y-89602571D01*
X161986290Y-89652324D01*
X161675211Y-89523153D01*
X161326319Y-89522849D01*
X161238950Y-89558949D01*
X161275157Y-81177000D01*
X185223000Y-81177000D01*
X185223000Y-103626494D01*
X185223000Y-103626494D01*
G37*
X185223000Y-103626494D02*
X161177553Y-103772224D01*
X161187011Y-101582603D01*
X163172752Y-101582603D01*
X163389543Y-102107275D01*
X163790614Y-102509047D01*
X164314907Y-102726752D01*
X164882603Y-102727248D01*
X165407275Y-102510457D01*
X165809047Y-102109386D01*
X165869881Y-101962882D01*
X165929543Y-102107275D01*
X166330614Y-102509047D01*
X166854907Y-102726752D01*
X167422603Y-102727248D01*
X167947275Y-102510457D01*
X168077800Y-102380159D01*
X168769286Y-102380159D01*
X168855692Y-102636643D01*
X169429176Y-102846458D01*
X170039300Y-102820839D01*
X170483988Y-102636643D01*
X170570394Y-102380159D01*
X169669840Y-101479605D01*
X168769286Y-102380159D01*
X168077800Y-102380159D01*
X168341481Y-102116939D01*
X168589681Y-102200554D01*
X169490235Y-101300000D01*
X169849445Y-101300000D01*
X170749999Y-102200554D01*
X171006304Y-102114208D01*
X171400454Y-102509047D01*
X171924747Y-102726752D01*
X172492443Y-102727248D01*
X173017115Y-102510457D01*
X173418887Y-102109386D01*
X173474628Y-101975146D01*
X173529223Y-102107275D01*
X173930294Y-102509047D01*
X174454587Y-102726752D01*
X175022283Y-102727248D01*
X175546955Y-102510457D01*
X175948727Y-102109386D01*
X176009561Y-101962882D01*
X176069223Y-102107275D01*
X176470294Y-102509047D01*
X176994587Y-102726752D01*
X177562283Y-102727248D01*
X178086955Y-102510457D01*
X178488727Y-102109386D01*
X178706432Y-101585093D01*
X178706928Y-101017397D01*
X178589575Y-100733380D01*
X181396285Y-100733380D01*
X181525533Y-101026183D01*
X182225806Y-101294448D01*
X182975435Y-101274310D01*
X183574467Y-101026183D01*
X183703715Y-100733380D01*
X182550000Y-99579665D01*
X181396285Y-100733380D01*
X178589575Y-100733380D01*
X178490137Y-100492725D01*
X178089066Y-100090953D01*
X177564773Y-99873248D01*
X176997077Y-99872752D01*
X176472405Y-100089543D01*
X176070633Y-100490614D01*
X176009799Y-100637118D01*
X175950137Y-100492725D01*
X175549066Y-100090953D01*
X175024773Y-99873248D01*
X174457077Y-99872752D01*
X173932405Y-100089543D01*
X173530633Y-100490614D01*
X173474892Y-100624854D01*
X173420297Y-100492725D01*
X173019226Y-100090953D01*
X172494933Y-99873248D01*
X171927237Y-99872752D01*
X171402565Y-100089543D01*
X171005795Y-100485620D01*
X170749999Y-100399446D01*
X169849445Y-101300000D01*
X169490235Y-101300000D01*
X168589681Y-100399446D01*
X168340979Y-100483230D01*
X168078050Y-100219841D01*
X168769286Y-100219841D01*
X169669840Y-101120395D01*
X170570394Y-100219841D01*
X170483988Y-99963357D01*
X169910504Y-99753542D01*
X169300380Y-99779161D01*
X168855692Y-99963357D01*
X168769286Y-100219841D01*
X168078050Y-100219841D01*
X167949386Y-100090953D01*
X167425093Y-99873248D01*
X167234561Y-99873082D01*
X166964243Y-99154807D01*
X166971761Y-99075866D01*
X180655612Y-99075866D01*
X180675750Y-99825495D01*
X180923877Y-100424527D01*
X181216680Y-100553775D01*
X182370395Y-99400060D01*
X182729605Y-99400060D01*
X183883320Y-100553775D01*
X184176123Y-100424527D01*
X184444388Y-99724254D01*
X184424250Y-98974625D01*
X184176123Y-98375593D01*
X183883320Y-98246345D01*
X182729605Y-99400060D01*
X182370395Y-99400060D01*
X181216680Y-98246345D01*
X180923877Y-98375593D01*
X180655612Y-99075866D01*
X166971761Y-99075866D01*
X167014624Y-98625807D01*
X167043051Y-98597429D01*
X167176847Y-98275211D01*
X167177151Y-97926319D01*
X167043918Y-97603869D01*
X166797429Y-97356949D01*
X166475211Y-97223153D01*
X166126319Y-97222849D01*
X165803869Y-97356082D01*
X165556949Y-97602571D01*
X165423153Y-97924789D01*
X165422849Y-98273681D01*
X165556082Y-98596131D01*
X165602653Y-98642784D01*
X165551162Y-99183444D01*
X165553402Y-99205463D01*
X165548377Y-99227013D01*
X165567194Y-99341003D01*
X165578889Y-99455944D01*
X165589383Y-99475426D01*
X165592988Y-99497263D01*
X165957032Y-100464580D01*
X165930953Y-100490614D01*
X165870119Y-100637118D01*
X165810457Y-100492725D01*
X165409386Y-100090953D01*
X164885093Y-99873248D01*
X164317397Y-99872752D01*
X163792725Y-100089543D01*
X163390953Y-100490614D01*
X163173248Y-101014907D01*
X163172752Y-101582603D01*
X161187011Y-101582603D01*
X161218206Y-94360984D01*
X161573074Y-94715852D01*
X161572849Y-94973681D01*
X161706082Y-95296131D01*
X161952571Y-95543051D01*
X162274789Y-95676847D01*
X162623681Y-95677151D01*
X162946131Y-95543918D01*
X163193051Y-95297429D01*
X163326847Y-94975211D01*
X163327041Y-94752000D01*
X164850000Y-94752000D01*
X165118644Y-94698563D01*
X165346389Y-94546389D01*
X165500990Y-94391788D01*
X165606082Y-94646131D01*
X165852571Y-94893051D01*
X166174789Y-95026847D01*
X166523681Y-95027151D01*
X166846131Y-94893918D01*
X166908356Y-94831801D01*
X167466521Y-94811129D01*
X167624789Y-94876847D01*
X167973681Y-94877151D01*
X168296131Y-94743918D01*
X168543051Y-94497429D01*
X168676847Y-94175211D01*
X168677151Y-93826319D01*
X168584465Y-93602000D01*
X171950000Y-93602000D01*
X172218644Y-93548563D01*
X172446389Y-93396389D01*
X176310691Y-89532087D01*
X176473801Y-89776199D01*
X176806984Y-89998824D01*
X177200000Y-90077000D01*
X177593016Y-89998824D01*
X177926199Y-89776199D01*
X178275457Y-89426940D01*
X178621704Y-89426940D01*
X178401176Y-89756984D01*
X178323000Y-90150000D01*
X178323000Y-93500000D01*
X178401176Y-93893016D01*
X178623801Y-94226199D01*
X180422890Y-96025287D01*
X180422632Y-96321170D01*
X180745766Y-97103214D01*
X181343578Y-97702071D01*
X181524157Y-97777054D01*
X181396285Y-98066740D01*
X182550000Y-99220455D01*
X183703715Y-98066740D01*
X183576005Y-97777420D01*
X183753274Y-97704174D01*
X184352131Y-97106362D01*
X184676630Y-96324883D01*
X184677368Y-95478710D01*
X184354234Y-94696666D01*
X183756422Y-94097809D01*
X183304776Y-93910269D01*
X183803274Y-93704294D01*
X184402131Y-93106482D01*
X184726630Y-92325003D01*
X184727368Y-91478830D01*
X184404234Y-90696786D01*
X183857973Y-90149570D01*
X184402131Y-89606362D01*
X184726630Y-88824883D01*
X184727368Y-87978710D01*
X184404234Y-87196666D01*
X183806422Y-86597809D01*
X183024943Y-86273310D01*
X182178770Y-86272572D01*
X181396726Y-86595706D01*
X180797869Y-87193518D01*
X180723366Y-87372940D01*
X178469838Y-87372940D01*
X179056389Y-86786389D01*
X179208564Y-86558643D01*
X179262000Y-86290000D01*
X179262000Y-86049824D01*
X179533424Y-85868464D01*
X179830000Y-85424607D01*
X180126576Y-85868464D01*
X180573187Y-86166880D01*
X181100000Y-86271670D01*
X181626813Y-86166880D01*
X182073424Y-85868464D01*
X182310530Y-85513610D01*
X182316982Y-85535906D01*
X182680011Y-85990024D01*
X183189190Y-86270649D01*
X183283168Y-86291540D01*
X183513000Y-86170214D01*
X183513000Y-84077000D01*
X183767000Y-84077000D01*
X183767000Y-86170214D01*
X183996832Y-86291540D01*
X184090810Y-86270649D01*
X184599989Y-85990024D01*
X184963018Y-85535906D01*
X185124630Y-84977430D01*
X185124630Y-84077000D01*
X183767000Y-84077000D01*
X183513000Y-84077000D01*
X183493000Y-84077000D01*
X183493000Y-83823000D01*
X183513000Y-83823000D01*
X183513000Y-81729786D01*
X183767000Y-81729786D01*
X183767000Y-83823000D01*
X185124630Y-83823000D01*
X185124630Y-82922570D01*
X184963018Y-82364094D01*
X184599989Y-81909976D01*
X184090810Y-81629351D01*
X183996832Y-81608460D01*
X183767000Y-81729786D01*
X183513000Y-81729786D01*
X183283168Y-81608460D01*
X183189190Y-81629351D01*
X182680011Y-81909976D01*
X182316982Y-82364094D01*
X182310530Y-82386390D01*
X182073424Y-82031536D01*
X181626813Y-81733120D01*
X181100000Y-81628330D01*
X180573187Y-81733120D01*
X180126576Y-82031536D01*
X179830000Y-82475393D01*
X179533424Y-82031536D01*
X179086813Y-81733120D01*
X178560000Y-81628330D01*
X178033187Y-81733120D01*
X177586576Y-82031536D01*
X177288160Y-82478147D01*
X177183370Y-83004960D01*
X177183370Y-84895040D01*
X177288160Y-85421853D01*
X177586576Y-85868464D01*
X177827666Y-86029556D01*
X171659222Y-92198000D01*
X166000000Y-92198000D01*
X165731357Y-92251436D01*
X165503611Y-92403611D01*
X164559222Y-93348000D01*
X163762152Y-93348000D01*
X163743918Y-93303869D01*
X163497429Y-93056949D01*
X163175211Y-92923153D01*
X162826319Y-92922849D01*
X162503869Y-93056082D01*
X162256949Y-93302571D01*
X162224205Y-93381427D01*
X162202000Y-93359222D01*
X162202000Y-90938408D01*
X162243051Y-90897429D01*
X162263710Y-90847676D01*
X162574789Y-90976847D01*
X162923681Y-90977151D01*
X163246131Y-90843918D01*
X163493051Y-90597429D01*
X163626847Y-90275211D01*
X163626899Y-90215879D01*
X165846389Y-87996389D01*
X165860683Y-87974997D01*
X165998563Y-87768644D01*
X166052000Y-87500000D01*
X166052000Y-86938408D01*
X166093051Y-86897429D01*
X166226847Y-86575211D01*
X166227151Y-86226319D01*
X166093918Y-85903869D01*
X165992227Y-85802000D01*
X168609222Y-85802000D01*
X168922900Y-86115678D01*
X168922849Y-86173681D01*
X169056082Y-86496131D01*
X169302571Y-86743051D01*
X169624789Y-86876847D01*
X169973681Y-86877151D01*
X170296131Y-86743918D01*
X170543051Y-86497429D01*
X170676847Y-86175211D01*
X170677151Y-85826319D01*
X170543918Y-85503869D01*
X170297429Y-85256949D01*
X169975211Y-85123153D01*
X169915879Y-85123101D01*
X169396389Y-84603611D01*
X169247114Y-84503869D01*
X169168644Y-84451437D01*
X168900000Y-84398000D01*
X163388234Y-84398000D01*
X163247429Y-84256949D01*
X162925211Y-84123153D01*
X162576319Y-84122849D01*
X162253869Y-84256082D01*
X162006949Y-84502571D01*
X161873153Y-84824789D01*
X161872849Y-85173681D01*
X162006082Y-85496131D01*
X162252571Y-85743051D01*
X162574789Y-85876847D01*
X162923681Y-85877151D01*
X163105561Y-85802000D01*
X164707696Y-85802000D01*
X164606949Y-85902571D01*
X164473153Y-86224789D01*
X164472849Y-86573681D01*
X164606082Y-86896131D01*
X164648000Y-86938122D01*
X164648000Y-87209222D01*
X162634322Y-89222900D01*
X162576319Y-89222849D01*
X162253869Y-89356082D01*
X162006949Y-89602571D01*
X161986290Y-89652324D01*
X161675211Y-89523153D01*
X161326319Y-89522849D01*
X161238950Y-89558949D01*
X161275157Y-81177000D01*
X185223000Y-81177000D01*
X185223000Y-103626494D01*
G36*
X160298000Y-63852000D02*
X160298000Y-96148000D01*
X153806622Y-96148000D01*
X153806622Y-93952334D01*
X154515132Y-93659584D01*
X155057678Y-93117983D01*
X155351665Y-92409986D01*
X155352334Y-91643378D01*
X155059584Y-90934868D01*
X154517983Y-90392322D01*
X153809986Y-90098335D01*
X153806622Y-90098333D01*
X153806622Y-69952334D01*
X154515132Y-69659584D01*
X155057678Y-69117983D01*
X155351665Y-68409986D01*
X155352334Y-67643378D01*
X155059584Y-66934868D01*
X154517983Y-66392322D01*
X153809986Y-66098335D01*
X153043378Y-66097666D01*
X152334868Y-66390416D01*
X151792322Y-66932017D01*
X151498335Y-67640014D01*
X151497666Y-68406622D01*
X151790416Y-69115132D01*
X152332017Y-69657678D01*
X153040014Y-69951665D01*
X153806622Y-69952334D01*
X153806622Y-90098333D01*
X153043378Y-90097666D01*
X152334868Y-90390416D01*
X151792322Y-90932017D01*
X151498335Y-91640014D01*
X151497666Y-92406622D01*
X151790416Y-93115132D01*
X152332017Y-93657678D01*
X153040014Y-93951665D01*
X153806622Y-93952334D01*
X153806622Y-96148000D01*
X143218485Y-96148000D01*
X143218485Y-95002170D01*
X143577703Y-94853744D01*
X143852778Y-94579149D01*
X144001830Y-94220190D01*
X144002170Y-93831515D01*
X143853744Y-93472297D01*
X143579149Y-93197222D01*
X143355066Y-93104175D01*
X143303924Y-91927918D01*
X143352778Y-91879149D01*
X143501830Y-91520190D01*
X143502170Y-91131515D01*
X143353744Y-90772297D01*
X143079149Y-90497222D01*
X142720190Y-90348170D01*
X142331515Y-90347830D01*
X141972297Y-90496256D01*
X141697222Y-90770851D01*
X141548170Y-91129810D01*
X141547830Y-91518485D01*
X141696256Y-91877703D01*
X141800877Y-91982507D01*
X141873710Y-93657665D01*
X141904750Y-93784617D01*
X141930243Y-93912778D01*
X141939459Y-93926571D01*
X141943399Y-93942685D01*
X142020653Y-94048087D01*
X142047943Y-94088930D01*
X142047830Y-94218485D01*
X142196256Y-94577703D01*
X142470851Y-94852778D01*
X142829810Y-95001830D01*
X143218485Y-95002170D01*
X143218485Y-96148000D01*
X137002000Y-96148000D01*
X137002000Y-63852000D01*
X160298000Y-63852000D01*
X160298000Y-63852000D01*
G37*
X160298000Y-63852000D02*
X160298000Y-96148000D01*
X153806622Y-96148000D01*
X153806622Y-93952334D01*
X154515132Y-93659584D01*
X155057678Y-93117983D01*
X155351665Y-92409986D01*
X155352334Y-91643378D01*
X155059584Y-90934868D01*
X154517983Y-90392322D01*
X153809986Y-90098335D01*
X153806622Y-90098333D01*
X153806622Y-69952334D01*
X154515132Y-69659584D01*
X155057678Y-69117983D01*
X155351665Y-68409986D01*
X155352334Y-67643378D01*
X155059584Y-66934868D01*
X154517983Y-66392322D01*
X153809986Y-66098335D01*
X153043378Y-66097666D01*
X152334868Y-66390416D01*
X151792322Y-66932017D01*
X151498335Y-67640014D01*
X151497666Y-68406622D01*
X151790416Y-69115132D01*
X152332017Y-69657678D01*
X153040014Y-69951665D01*
X153806622Y-69952334D01*
X153806622Y-90098333D01*
X153043378Y-90097666D01*
X152334868Y-90390416D01*
X151792322Y-90932017D01*
X151498335Y-91640014D01*
X151497666Y-92406622D01*
X151790416Y-93115132D01*
X152332017Y-93657678D01*
X153040014Y-93951665D01*
X153806622Y-93952334D01*
X153806622Y-96148000D01*
X143218485Y-96148000D01*
X143218485Y-95002170D01*
X143577703Y-94853744D01*
X143852778Y-94579149D01*
X144001830Y-94220190D01*
X144002170Y-93831515D01*
X143853744Y-93472297D01*
X143579149Y-93197222D01*
X143355066Y-93104175D01*
X143303924Y-91927918D01*
X143352778Y-91879149D01*
X143501830Y-91520190D01*
X143502170Y-91131515D01*
X143353744Y-90772297D01*
X143079149Y-90497222D01*
X142720190Y-90348170D01*
X142331515Y-90347830D01*
X141972297Y-90496256D01*
X141697222Y-90770851D01*
X141548170Y-91129810D01*
X141547830Y-91518485D01*
X141696256Y-91877703D01*
X141800877Y-91982507D01*
X141873710Y-93657665D01*
X141904750Y-93784617D01*
X141930243Y-93912778D01*
X141939459Y-93926571D01*
X141943399Y-93942685D01*
X142020653Y-94048087D01*
X142047943Y-94088930D01*
X142047830Y-94218485D01*
X142196256Y-94577703D01*
X142470851Y-94852778D01*
X142829810Y-95001830D01*
X143218485Y-95002170D01*
X143218485Y-96148000D01*
X137002000Y-96148000D01*
X137002000Y-63852000D01*
X160298000Y-63852000D01*
M02*
