G04 (created by PCBNEW (2013-08-24 BZR 4298)-stable) date Wed 06 Nov 2013 10:08:36 PM PST*
%MOIN*%
G04 Gerber Fmt 3.4, Leading zero omitted, Abs format*
%FSLAX34Y34*%
G01*
G70*
G90*
G04 APERTURE LIST*
%ADD10C,0.005906*%
%ADD11C,0.005000*%
%ADD12C,0.010000*%
%ADD13C,0.007900*%
%ADD14C,0.003900*%
%ADD15C,0.015000*%
%ADD16C,0.008000*%
%ADD17C,0.005900*%
%ADD18C,0.001600*%
%ADD19C,0.007500*%
%ADD20C,0.012000*%
%ADD21C,0.003700*%
%ADD22C,0.006000*%
%ADD23C,0.007874*%
G04 APERTURE END LIST*
G54D10*
G54D11*
X15881Y-46758D02*
X15881Y-46438D01*
X15441Y-46448D02*
X15441Y-46758D01*
X15341Y-46438D02*
X15981Y-46438D01*
X15981Y-46438D02*
X15981Y-46758D01*
X15981Y-46758D02*
X15341Y-46758D01*
X15341Y-46758D02*
X15341Y-46438D01*
X15314Y-47494D02*
X15314Y-47174D01*
X14874Y-47184D02*
X14874Y-47494D01*
X14774Y-47174D02*
X15414Y-47174D01*
X15414Y-47174D02*
X15414Y-47494D01*
X15414Y-47494D02*
X14774Y-47494D01*
X14774Y-47494D02*
X14774Y-47174D01*
X36181Y-46532D02*
X36181Y-46852D01*
X36621Y-46842D02*
X36621Y-46532D01*
X36721Y-46852D02*
X36081Y-46852D01*
X36081Y-46852D02*
X36081Y-46532D01*
X36081Y-46532D02*
X36721Y-46532D01*
X36721Y-46532D02*
X36721Y-46852D01*
X16460Y-48049D02*
X16460Y-47729D01*
X16020Y-47739D02*
X16020Y-48049D01*
X15920Y-47729D02*
X16560Y-47729D01*
X16560Y-47729D02*
X16560Y-48049D01*
X16560Y-48049D02*
X15920Y-48049D01*
X15920Y-48049D02*
X15920Y-47729D01*
X21468Y-44560D02*
X21468Y-44880D01*
X21908Y-44870D02*
X21908Y-44560D01*
X22008Y-44880D02*
X21368Y-44880D01*
X21368Y-44880D02*
X21368Y-44560D01*
X21368Y-44560D02*
X22008Y-44560D01*
X22008Y-44560D02*
X22008Y-44880D01*
X21500Y-43710D02*
X21500Y-44030D01*
X21940Y-44020D02*
X21940Y-43710D01*
X22040Y-44030D02*
X21400Y-44030D01*
X21400Y-44030D02*
X21400Y-43710D01*
X21400Y-43710D02*
X22040Y-43710D01*
X22040Y-43710D02*
X22040Y-44030D01*
X21458Y-42531D02*
X21778Y-42531D01*
X21768Y-42091D02*
X21458Y-42091D01*
X21778Y-41991D02*
X21778Y-42631D01*
X21778Y-42631D02*
X21458Y-42631D01*
X21458Y-42631D02*
X21458Y-41991D01*
X21458Y-41991D02*
X21778Y-41991D01*
X21758Y-40618D02*
X21438Y-40618D01*
X21448Y-41058D02*
X21758Y-41058D01*
X21438Y-41158D02*
X21438Y-40518D01*
X21438Y-40518D02*
X21758Y-40518D01*
X21758Y-40518D02*
X21758Y-41158D01*
X21758Y-41158D02*
X21438Y-41158D01*
X31031Y-43793D02*
X31031Y-43473D01*
X30591Y-43483D02*
X30591Y-43793D01*
X30491Y-43473D02*
X31131Y-43473D01*
X31131Y-43473D02*
X31131Y-43793D01*
X31131Y-43793D02*
X30491Y-43793D01*
X30491Y-43793D02*
X30491Y-43473D01*
X31042Y-43041D02*
X31042Y-42721D01*
X30602Y-42731D02*
X30602Y-43041D01*
X30502Y-42721D02*
X31142Y-42721D01*
X31142Y-42721D02*
X31142Y-43041D01*
X31142Y-43041D02*
X30502Y-43041D01*
X30502Y-43041D02*
X30502Y-42721D01*
X31042Y-42321D02*
X31042Y-42001D01*
X30602Y-42011D02*
X30602Y-42321D01*
X30502Y-42001D02*
X31142Y-42001D01*
X31142Y-42001D02*
X31142Y-42321D01*
X31142Y-42321D02*
X30502Y-42321D01*
X30502Y-42321D02*
X30502Y-42001D01*
X26000Y-44780D02*
X26000Y-45100D01*
X26440Y-45090D02*
X26440Y-44780D01*
X26540Y-45100D02*
X25900Y-45100D01*
X25900Y-45100D02*
X25900Y-44780D01*
X25900Y-44780D02*
X26540Y-44780D01*
X26540Y-44780D02*
X26540Y-45100D01*
X32216Y-46990D02*
X32216Y-46670D01*
X31776Y-46680D02*
X31776Y-46990D01*
X31676Y-46670D02*
X32316Y-46670D01*
X32316Y-46670D02*
X32316Y-46990D01*
X32316Y-46990D02*
X31676Y-46990D01*
X31676Y-46990D02*
X31676Y-46670D01*
X32200Y-46195D02*
X32200Y-45875D01*
X31760Y-45885D02*
X31760Y-46195D01*
X31660Y-45875D02*
X32300Y-45875D01*
X32300Y-45875D02*
X32300Y-46195D01*
X32300Y-46195D02*
X31660Y-46195D01*
X31660Y-46195D02*
X31660Y-45875D01*
X32204Y-45392D02*
X32204Y-45072D01*
X31764Y-45082D02*
X31764Y-45392D01*
X31664Y-45072D02*
X32304Y-45072D01*
X32304Y-45072D02*
X32304Y-45392D01*
X32304Y-45392D02*
X31664Y-45392D01*
X31664Y-45392D02*
X31664Y-45072D01*
G54D12*
X41401Y-47531D02*
X35401Y-47531D01*
X41401Y-47531D02*
X41401Y-48531D01*
X41407Y-48537D02*
X35395Y-48537D01*
X35395Y-48537D02*
X35395Y-47529D01*
G54D11*
X37148Y-37768D02*
X36828Y-37768D01*
X36838Y-38208D02*
X37148Y-38208D01*
X36828Y-38308D02*
X36828Y-37668D01*
X36828Y-37668D02*
X37148Y-37668D01*
X37148Y-37668D02*
X37148Y-38308D01*
X37148Y-38308D02*
X36828Y-38308D01*
X36439Y-37772D02*
X36119Y-37772D01*
X36129Y-38212D02*
X36439Y-38212D01*
X36119Y-38312D02*
X36119Y-37672D01*
X36119Y-37672D02*
X36439Y-37672D01*
X36439Y-37672D02*
X36439Y-38312D01*
X36439Y-38312D02*
X36119Y-38312D01*
X33289Y-37358D02*
X32969Y-37358D01*
X32979Y-37798D02*
X33289Y-37798D01*
X32969Y-37898D02*
X32969Y-37258D01*
X32969Y-37258D02*
X33289Y-37258D01*
X33289Y-37258D02*
X33289Y-37898D01*
X33289Y-37898D02*
X32969Y-37898D01*
X37770Y-37783D02*
X37450Y-37783D01*
X37460Y-38223D02*
X37770Y-38223D01*
X37450Y-38323D02*
X37450Y-37683D01*
X37450Y-37683D02*
X37770Y-37683D01*
X37770Y-37683D02*
X37770Y-38323D01*
X37770Y-38323D02*
X37450Y-38323D01*
X30986Y-37260D02*
X30666Y-37260D01*
X30676Y-37700D02*
X30986Y-37700D01*
X30666Y-37800D02*
X30666Y-37160D01*
X30666Y-37160D02*
X30986Y-37160D01*
X30986Y-37160D02*
X30986Y-37800D01*
X30986Y-37800D02*
X30666Y-37800D01*
X40133Y-41593D02*
X40133Y-41273D01*
X39693Y-41283D02*
X39693Y-41593D01*
X39593Y-41273D02*
X40233Y-41273D01*
X40233Y-41273D02*
X40233Y-41593D01*
X40233Y-41593D02*
X39593Y-41593D01*
X39593Y-41593D02*
X39593Y-41273D01*
X32478Y-39476D02*
X32158Y-39476D01*
X32168Y-39916D02*
X32478Y-39916D01*
X32158Y-40016D02*
X32158Y-39376D01*
X32158Y-39376D02*
X32478Y-39376D01*
X32478Y-39376D02*
X32478Y-40016D01*
X32478Y-40016D02*
X32158Y-40016D01*
X39408Y-43502D02*
X39408Y-43182D01*
X38968Y-43192D02*
X38968Y-43502D01*
X38868Y-43182D02*
X39508Y-43182D01*
X39508Y-43182D02*
X39508Y-43502D01*
X39508Y-43502D02*
X38868Y-43502D01*
X38868Y-43502D02*
X38868Y-43182D01*
X14440Y-36220D02*
X14760Y-36220D01*
X14750Y-35780D02*
X14440Y-35780D01*
X14760Y-35680D02*
X14760Y-36320D01*
X14760Y-36320D02*
X14440Y-36320D01*
X14440Y-36320D02*
X14440Y-35680D01*
X14440Y-35680D02*
X14760Y-35680D01*
X35273Y-45940D02*
X35593Y-45940D01*
X35583Y-45500D02*
X35273Y-45500D01*
X35593Y-45400D02*
X35593Y-46040D01*
X35593Y-46040D02*
X35273Y-46040D01*
X35273Y-46040D02*
X35273Y-45400D01*
X35273Y-45400D02*
X35593Y-45400D01*
X25261Y-36180D02*
X25581Y-36180D01*
X25571Y-35740D02*
X25261Y-35740D01*
X25581Y-35640D02*
X25581Y-36280D01*
X25581Y-36280D02*
X25261Y-36280D01*
X25261Y-36280D02*
X25261Y-35640D01*
X25261Y-35640D02*
X25581Y-35640D01*
X24163Y-38622D02*
X23843Y-38622D01*
X23853Y-39062D02*
X24163Y-39062D01*
X23843Y-39162D02*
X23843Y-38522D01*
X23843Y-38522D02*
X24163Y-38522D01*
X24163Y-38522D02*
X24163Y-39162D01*
X24163Y-39162D02*
X23843Y-39162D01*
X24947Y-38614D02*
X24627Y-38614D01*
X24637Y-39054D02*
X24947Y-39054D01*
X24627Y-39154D02*
X24627Y-38514D01*
X24627Y-38514D02*
X24947Y-38514D01*
X24947Y-38514D02*
X24947Y-39154D01*
X24947Y-39154D02*
X24627Y-39154D01*
X24760Y-45528D02*
X24760Y-45848D01*
X25200Y-45838D02*
X25200Y-45528D01*
X25300Y-45848D02*
X24660Y-45848D01*
X24660Y-45848D02*
X24660Y-45528D01*
X24660Y-45528D02*
X25300Y-45528D01*
X25300Y-45528D02*
X25300Y-45848D01*
X27365Y-45841D02*
X27365Y-45521D01*
X26925Y-45531D02*
X26925Y-45841D01*
X26825Y-45521D02*
X27465Y-45521D01*
X27465Y-45521D02*
X27465Y-45841D01*
X27465Y-45841D02*
X26825Y-45841D01*
X26825Y-45841D02*
X26825Y-45521D01*
X29623Y-45767D02*
X29943Y-45767D01*
X29933Y-45327D02*
X29623Y-45327D01*
X29943Y-45227D02*
X29943Y-45867D01*
X29943Y-45867D02*
X29623Y-45867D01*
X29623Y-45867D02*
X29623Y-45227D01*
X29623Y-45227D02*
X29943Y-45227D01*
X23366Y-37992D02*
X23366Y-37381D01*
X23366Y-37381D02*
X20767Y-37381D01*
X20767Y-37381D02*
X20767Y-37982D01*
G54D13*
X24626Y-32008D02*
X24626Y-37992D01*
X24626Y-37992D02*
X19506Y-37992D01*
X19506Y-37992D02*
X19506Y-32008D01*
X19506Y-32008D02*
X24626Y-32008D01*
G54D10*
X13082Y-39787D02*
X12688Y-39787D01*
X12688Y-39787D02*
X12688Y-45614D01*
X12688Y-45614D02*
X13082Y-45614D01*
X13082Y-45614D02*
X13082Y-39787D01*
G54D12*
X20838Y-39551D02*
X20838Y-45850D01*
X20838Y-45850D02*
X12413Y-45850D01*
X12413Y-45850D02*
X12413Y-39551D01*
X12413Y-39551D02*
X20838Y-39551D01*
G54D14*
X18097Y-33538D02*
X18097Y-38138D01*
X18097Y-38138D02*
X15697Y-38138D01*
X15697Y-38138D02*
X15697Y-33538D01*
X15697Y-33538D02*
X18097Y-33538D01*
G54D11*
X28530Y-45355D02*
X28530Y-44955D01*
X28530Y-44955D02*
X29130Y-44955D01*
X29130Y-44955D02*
X29130Y-45355D01*
X29130Y-45755D02*
X29130Y-46155D01*
X29130Y-46155D02*
X28530Y-46155D01*
X28530Y-46155D02*
X28530Y-45755D01*
X22914Y-44603D02*
X22514Y-44603D01*
X22514Y-44603D02*
X22514Y-44003D01*
X22514Y-44003D02*
X22914Y-44003D01*
X23314Y-44003D02*
X23714Y-44003D01*
X23714Y-44003D02*
X23714Y-44603D01*
X23714Y-44603D02*
X23314Y-44603D01*
G54D15*
X37540Y-34654D02*
X37540Y-36546D01*
X32112Y-34660D02*
X32112Y-36552D01*
X32228Y-36546D02*
X37430Y-36546D01*
X32226Y-34648D02*
X37428Y-34648D01*
X23860Y-48416D02*
X23860Y-46524D01*
X29288Y-48410D02*
X29288Y-46518D01*
X29172Y-46524D02*
X23970Y-46524D01*
X29174Y-48422D02*
X23972Y-48422D01*
G54D16*
X33723Y-43603D02*
G75*
G03X33723Y-43603I-150J0D01*
G74*
G01*
X37173Y-40003D02*
X33173Y-40003D01*
X33173Y-40003D02*
X33173Y-43753D01*
X33173Y-43753D02*
X33423Y-44003D01*
X33423Y-44003D02*
X37173Y-44003D01*
X37173Y-44003D02*
X37173Y-40003D01*
G54D14*
X32203Y-38169D02*
X32203Y-38569D01*
X32189Y-38571D02*
X31589Y-38571D01*
X31565Y-38571D02*
X31565Y-38171D01*
X31563Y-37387D02*
X31563Y-36987D01*
X31589Y-36981D02*
X32189Y-36981D01*
X32211Y-36983D02*
X32211Y-37383D01*
G54D12*
X41714Y-37106D02*
X44714Y-37106D01*
X41685Y-37106D02*
X41685Y-47106D01*
X44685Y-37106D02*
X44685Y-47106D01*
X44714Y-47106D02*
X41714Y-47106D01*
G54D11*
X23886Y-42855D02*
X23886Y-43175D01*
X24326Y-43165D02*
X24326Y-42855D01*
X24426Y-43175D02*
X23786Y-43175D01*
X23786Y-43175D02*
X23786Y-42855D01*
X23786Y-42855D02*
X24426Y-42855D01*
X24426Y-42855D02*
X24426Y-43175D01*
G54D17*
X25638Y-42803D02*
X25638Y-41039D01*
X25834Y-42999D02*
X27598Y-42999D01*
X25834Y-42999D02*
X25638Y-42803D01*
G54D13*
X25932Y-42803D02*
X25834Y-42803D01*
X25834Y-42803D02*
X25834Y-42705D01*
X27402Y-42705D02*
X27402Y-42803D01*
X27402Y-42803D02*
X27304Y-42803D01*
X27304Y-41235D02*
X27402Y-41235D01*
X27402Y-41235D02*
X27402Y-41333D01*
X25834Y-41333D02*
X25834Y-41235D01*
X25834Y-41235D02*
X25932Y-41235D01*
G54D17*
X27598Y-41039D02*
X27598Y-42999D01*
X25638Y-41039D02*
X27598Y-41039D01*
G54D18*
X15610Y-46384D02*
X15584Y-46346D01*
X15565Y-46384D02*
X15565Y-46305D01*
X15595Y-46305D01*
X15603Y-46308D01*
X15606Y-46312D01*
X15610Y-46320D01*
X15610Y-46331D01*
X15606Y-46339D01*
X15603Y-46342D01*
X15595Y-46346D01*
X15565Y-46346D01*
X15685Y-46384D02*
X15640Y-46384D01*
X15663Y-46384D02*
X15663Y-46305D01*
X15655Y-46316D01*
X15648Y-46323D01*
X15640Y-46327D01*
X15753Y-46305D02*
X15738Y-46305D01*
X15731Y-46308D01*
X15727Y-46312D01*
X15719Y-46323D01*
X15715Y-46339D01*
X15715Y-46369D01*
X15719Y-46376D01*
X15723Y-46380D01*
X15731Y-46384D01*
X15746Y-46384D01*
X15753Y-46380D01*
X15757Y-46376D01*
X15761Y-46369D01*
X15761Y-46350D01*
X15757Y-46342D01*
X15753Y-46339D01*
X15746Y-46335D01*
X15731Y-46335D01*
X15723Y-46339D01*
X15719Y-46342D01*
X15715Y-46350D01*
X15043Y-47120D02*
X15017Y-47082D01*
X14998Y-47120D02*
X14998Y-47041D01*
X15028Y-47041D01*
X15036Y-47045D01*
X15039Y-47048D01*
X15043Y-47056D01*
X15043Y-47067D01*
X15039Y-47075D01*
X15036Y-47079D01*
X15028Y-47082D01*
X14998Y-47082D01*
X15118Y-47120D02*
X15073Y-47120D01*
X15096Y-47120D02*
X15096Y-47041D01*
X15088Y-47052D01*
X15081Y-47060D01*
X15073Y-47063D01*
X15190Y-47041D02*
X15152Y-47041D01*
X15149Y-47079D01*
X15152Y-47075D01*
X15160Y-47071D01*
X15179Y-47071D01*
X15186Y-47075D01*
X15190Y-47079D01*
X15194Y-47086D01*
X15194Y-47105D01*
X15190Y-47112D01*
X15186Y-47116D01*
X15179Y-47120D01*
X15160Y-47120D01*
X15152Y-47116D01*
X15149Y-47112D01*
X36350Y-46978D02*
X36324Y-46941D01*
X36305Y-46978D02*
X36305Y-46899D01*
X36335Y-46899D01*
X36343Y-46903D01*
X36347Y-46907D01*
X36350Y-46914D01*
X36350Y-46925D01*
X36347Y-46933D01*
X36343Y-46937D01*
X36335Y-46941D01*
X36305Y-46941D01*
X36426Y-46978D02*
X36380Y-46978D01*
X36403Y-46978D02*
X36403Y-46899D01*
X36395Y-46910D01*
X36388Y-46918D01*
X36380Y-46922D01*
X36493Y-46925D02*
X36493Y-46978D01*
X36474Y-46895D02*
X36456Y-46952D01*
X36505Y-46952D01*
X16189Y-47675D02*
X16163Y-47637D01*
X16144Y-47675D02*
X16144Y-47596D01*
X16174Y-47596D01*
X16181Y-47600D01*
X16185Y-47604D01*
X16189Y-47611D01*
X16189Y-47622D01*
X16185Y-47630D01*
X16181Y-47634D01*
X16174Y-47637D01*
X16144Y-47637D01*
X16264Y-47675D02*
X16219Y-47675D01*
X16242Y-47675D02*
X16242Y-47596D01*
X16234Y-47607D01*
X16226Y-47615D01*
X16219Y-47619D01*
X16290Y-47596D02*
X16339Y-47596D01*
X16313Y-47626D01*
X16324Y-47626D01*
X16332Y-47630D01*
X16336Y-47634D01*
X16339Y-47641D01*
X16339Y-47660D01*
X16336Y-47667D01*
X16332Y-47671D01*
X16324Y-47675D01*
X16302Y-47675D01*
X16294Y-47671D01*
X16290Y-47667D01*
X21638Y-45006D02*
X21611Y-44968D01*
X21593Y-45006D02*
X21593Y-44927D01*
X21623Y-44927D01*
X21630Y-44930D01*
X21634Y-44934D01*
X21638Y-44942D01*
X21638Y-44953D01*
X21634Y-44961D01*
X21630Y-44964D01*
X21623Y-44968D01*
X21593Y-44968D01*
X21713Y-45006D02*
X21668Y-45006D01*
X21690Y-45006D02*
X21690Y-44927D01*
X21683Y-44938D01*
X21675Y-44946D01*
X21668Y-44949D01*
X21743Y-44934D02*
X21747Y-44930D01*
X21754Y-44927D01*
X21773Y-44927D01*
X21781Y-44930D01*
X21784Y-44934D01*
X21788Y-44942D01*
X21788Y-44949D01*
X21784Y-44961D01*
X21739Y-45006D01*
X21788Y-45006D01*
X21669Y-44155D02*
X21643Y-44118D01*
X21624Y-44155D02*
X21624Y-44076D01*
X21654Y-44076D01*
X21662Y-44080D01*
X21665Y-44084D01*
X21669Y-44091D01*
X21669Y-44103D01*
X21665Y-44110D01*
X21662Y-44114D01*
X21654Y-44118D01*
X21624Y-44118D01*
X21744Y-44155D02*
X21699Y-44155D01*
X21722Y-44155D02*
X21722Y-44076D01*
X21714Y-44088D01*
X21707Y-44095D01*
X21699Y-44099D01*
X21820Y-44155D02*
X21775Y-44155D01*
X21797Y-44155D02*
X21797Y-44076D01*
X21790Y-44088D01*
X21782Y-44095D01*
X21775Y-44099D01*
X21903Y-42361D02*
X21866Y-42388D01*
X21903Y-42406D02*
X21824Y-42406D01*
X21824Y-42376D01*
X21828Y-42369D01*
X21832Y-42365D01*
X21839Y-42361D01*
X21851Y-42361D01*
X21858Y-42365D01*
X21862Y-42369D01*
X21866Y-42376D01*
X21866Y-42406D01*
X21903Y-42286D02*
X21903Y-42331D01*
X21903Y-42309D02*
X21824Y-42309D01*
X21836Y-42316D01*
X21843Y-42324D01*
X21847Y-42331D01*
X21824Y-42237D02*
X21824Y-42230D01*
X21828Y-42222D01*
X21832Y-42218D01*
X21839Y-42215D01*
X21854Y-42211D01*
X21873Y-42211D01*
X21888Y-42215D01*
X21896Y-42218D01*
X21900Y-42222D01*
X21903Y-42230D01*
X21903Y-42237D01*
X21900Y-42245D01*
X21896Y-42248D01*
X21888Y-42252D01*
X21873Y-42256D01*
X21854Y-42256D01*
X21839Y-42252D01*
X21832Y-42248D01*
X21828Y-42245D01*
X21824Y-42237D01*
X21384Y-40851D02*
X21346Y-40878D01*
X21384Y-40896D02*
X21305Y-40896D01*
X21305Y-40866D01*
X21308Y-40859D01*
X21312Y-40855D01*
X21320Y-40851D01*
X21331Y-40851D01*
X21339Y-40855D01*
X21342Y-40859D01*
X21346Y-40866D01*
X21346Y-40896D01*
X21384Y-40814D02*
X21384Y-40799D01*
X21380Y-40791D01*
X21376Y-40787D01*
X21365Y-40780D01*
X21350Y-40776D01*
X21320Y-40776D01*
X21312Y-40780D01*
X21308Y-40784D01*
X21305Y-40791D01*
X21305Y-40806D01*
X21308Y-40814D01*
X21312Y-40817D01*
X21320Y-40821D01*
X21339Y-40821D01*
X21346Y-40817D01*
X21350Y-40814D01*
X21354Y-40806D01*
X21354Y-40791D01*
X21350Y-40784D01*
X21346Y-40780D01*
X21339Y-40776D01*
X30797Y-43419D02*
X30771Y-43381D01*
X30752Y-43419D02*
X30752Y-43340D01*
X30782Y-43340D01*
X30790Y-43344D01*
X30794Y-43348D01*
X30797Y-43355D01*
X30797Y-43366D01*
X30794Y-43374D01*
X30790Y-43378D01*
X30782Y-43381D01*
X30752Y-43381D01*
X30843Y-43374D02*
X30835Y-43370D01*
X30831Y-43366D01*
X30827Y-43359D01*
X30827Y-43355D01*
X30831Y-43348D01*
X30835Y-43344D01*
X30843Y-43340D01*
X30858Y-43340D01*
X30865Y-43344D01*
X30869Y-43348D01*
X30873Y-43355D01*
X30873Y-43359D01*
X30869Y-43366D01*
X30865Y-43370D01*
X30858Y-43374D01*
X30843Y-43374D01*
X30835Y-43378D01*
X30831Y-43381D01*
X30827Y-43389D01*
X30827Y-43404D01*
X30831Y-43412D01*
X30835Y-43415D01*
X30843Y-43419D01*
X30858Y-43419D01*
X30865Y-43415D01*
X30869Y-43412D01*
X30873Y-43404D01*
X30873Y-43389D01*
X30869Y-43381D01*
X30865Y-43378D01*
X30858Y-43374D01*
X30809Y-42667D02*
X30783Y-42630D01*
X30764Y-42667D02*
X30764Y-42588D01*
X30794Y-42588D01*
X30802Y-42592D01*
X30805Y-42596D01*
X30809Y-42603D01*
X30809Y-42614D01*
X30805Y-42622D01*
X30802Y-42626D01*
X30794Y-42630D01*
X30764Y-42630D01*
X30836Y-42588D02*
X30888Y-42588D01*
X30854Y-42667D01*
X30809Y-41947D02*
X30783Y-41909D01*
X30764Y-41947D02*
X30764Y-41868D01*
X30794Y-41868D01*
X30802Y-41871D01*
X30805Y-41875D01*
X30809Y-41883D01*
X30809Y-41894D01*
X30805Y-41902D01*
X30802Y-41905D01*
X30794Y-41909D01*
X30764Y-41909D01*
X30877Y-41868D02*
X30862Y-41868D01*
X30854Y-41871D01*
X30851Y-41875D01*
X30843Y-41886D01*
X30839Y-41902D01*
X30839Y-41932D01*
X30843Y-41939D01*
X30847Y-41943D01*
X30854Y-41947D01*
X30869Y-41947D01*
X30877Y-41943D01*
X30881Y-41939D01*
X30884Y-41932D01*
X30884Y-41913D01*
X30881Y-41905D01*
X30877Y-41902D01*
X30869Y-41898D01*
X30854Y-41898D01*
X30847Y-41902D01*
X30843Y-41905D01*
X30839Y-41913D01*
X26207Y-45226D02*
X26180Y-45189D01*
X26162Y-45226D02*
X26162Y-45147D01*
X26192Y-45147D01*
X26199Y-45151D01*
X26203Y-45155D01*
X26207Y-45162D01*
X26207Y-45174D01*
X26203Y-45181D01*
X26199Y-45185D01*
X26192Y-45189D01*
X26162Y-45189D01*
X26278Y-45147D02*
X26241Y-45147D01*
X26237Y-45185D01*
X26241Y-45181D01*
X26248Y-45177D01*
X26267Y-45177D01*
X26275Y-45181D01*
X26278Y-45185D01*
X26282Y-45192D01*
X26282Y-45211D01*
X26278Y-45219D01*
X26275Y-45222D01*
X26267Y-45226D01*
X26248Y-45226D01*
X26241Y-45222D01*
X26237Y-45219D01*
X31982Y-46616D02*
X31956Y-46578D01*
X31937Y-46616D02*
X31937Y-46537D01*
X31967Y-46537D01*
X31975Y-46541D01*
X31979Y-46544D01*
X31982Y-46552D01*
X31982Y-46563D01*
X31979Y-46571D01*
X31975Y-46575D01*
X31967Y-46578D01*
X31937Y-46578D01*
X32009Y-46537D02*
X32058Y-46537D01*
X32031Y-46567D01*
X32043Y-46567D01*
X32050Y-46571D01*
X32054Y-46575D01*
X32058Y-46582D01*
X32058Y-46601D01*
X32054Y-46608D01*
X32050Y-46612D01*
X32043Y-46616D01*
X32020Y-46616D01*
X32012Y-46612D01*
X32009Y-46608D01*
X31967Y-45821D02*
X31940Y-45783D01*
X31922Y-45821D02*
X31922Y-45742D01*
X31952Y-45742D01*
X31959Y-45745D01*
X31963Y-45749D01*
X31967Y-45757D01*
X31967Y-45768D01*
X31963Y-45776D01*
X31959Y-45779D01*
X31952Y-45783D01*
X31922Y-45783D01*
X31997Y-45749D02*
X32001Y-45745D01*
X32008Y-45742D01*
X32027Y-45742D01*
X32034Y-45745D01*
X32038Y-45749D01*
X32042Y-45757D01*
X32042Y-45764D01*
X32038Y-45776D01*
X31993Y-45821D01*
X32042Y-45821D01*
X31971Y-45018D02*
X31944Y-44980D01*
X31925Y-45018D02*
X31925Y-44939D01*
X31956Y-44939D01*
X31963Y-44942D01*
X31967Y-44946D01*
X31971Y-44954D01*
X31971Y-44965D01*
X31967Y-44972D01*
X31963Y-44976D01*
X31956Y-44980D01*
X31925Y-44980D01*
X32046Y-45018D02*
X32001Y-45018D01*
X32023Y-45018D02*
X32023Y-44939D01*
X32016Y-44950D01*
X32008Y-44957D01*
X32001Y-44961D01*
G54D19*
X38371Y-47085D02*
X38371Y-47299D01*
X38357Y-47342D01*
X38328Y-47370D01*
X38285Y-47385D01*
X38257Y-47385D01*
X38671Y-47385D02*
X38500Y-47385D01*
X38585Y-47385D02*
X38585Y-47085D01*
X38557Y-47128D01*
X38528Y-47156D01*
X38500Y-47170D01*
X37179Y-48999D02*
X37179Y-48699D01*
X37179Y-48842D02*
X37350Y-48842D01*
X37350Y-48999D02*
X37350Y-48699D01*
X37493Y-48842D02*
X37593Y-48842D01*
X37636Y-48999D02*
X37493Y-48999D01*
X37493Y-48699D01*
X37636Y-48699D01*
X37750Y-48913D02*
X37893Y-48913D01*
X37721Y-48999D02*
X37821Y-48699D01*
X37921Y-48999D01*
X38021Y-48999D02*
X38021Y-48699D01*
X38093Y-48699D01*
X38136Y-48713D01*
X38164Y-48742D01*
X38179Y-48770D01*
X38193Y-48827D01*
X38193Y-48870D01*
X38179Y-48927D01*
X38164Y-48956D01*
X38136Y-48984D01*
X38093Y-48999D01*
X38021Y-48999D01*
X38321Y-48842D02*
X38421Y-48842D01*
X38464Y-48999D02*
X38321Y-48999D01*
X38321Y-48699D01*
X38464Y-48699D01*
X38764Y-48999D02*
X38664Y-48856D01*
X38593Y-48999D02*
X38593Y-48699D01*
X38707Y-48699D01*
X38736Y-48713D01*
X38750Y-48727D01*
X38764Y-48756D01*
X38764Y-48799D01*
X38750Y-48827D01*
X38736Y-48842D01*
X38707Y-48856D01*
X38593Y-48856D01*
X38821Y-49027D02*
X39050Y-49027D01*
X39250Y-48699D02*
X39193Y-48699D01*
X39164Y-48713D01*
X39150Y-48727D01*
X39121Y-48770D01*
X39107Y-48827D01*
X39107Y-48942D01*
X39121Y-48970D01*
X39136Y-48984D01*
X39164Y-48999D01*
X39221Y-48999D01*
X39250Y-48984D01*
X39264Y-48970D01*
X39279Y-48942D01*
X39279Y-48870D01*
X39264Y-48842D01*
X39250Y-48827D01*
X39221Y-48813D01*
X39164Y-48813D01*
X39136Y-48827D01*
X39121Y-48842D01*
X39107Y-48870D01*
X39379Y-48699D02*
X39579Y-48999D01*
X39579Y-48699D02*
X39379Y-48999D01*
X39850Y-48999D02*
X39679Y-48999D01*
X39764Y-48999D02*
X39764Y-48699D01*
X39736Y-48742D01*
X39707Y-48770D01*
X39679Y-48784D01*
G54D18*
X36766Y-38038D02*
X36770Y-38042D01*
X36773Y-38054D01*
X36773Y-38061D01*
X36770Y-38072D01*
X36762Y-38080D01*
X36755Y-38084D01*
X36740Y-38087D01*
X36728Y-38087D01*
X36713Y-38084D01*
X36706Y-38080D01*
X36698Y-38072D01*
X36694Y-38061D01*
X36694Y-38054D01*
X36698Y-38042D01*
X36702Y-38038D01*
X36702Y-38008D02*
X36698Y-38005D01*
X36694Y-37997D01*
X36694Y-37978D01*
X36698Y-37971D01*
X36702Y-37967D01*
X36709Y-37963D01*
X36717Y-37963D01*
X36728Y-37967D01*
X36773Y-38012D01*
X36773Y-37963D01*
X36773Y-37888D02*
X36773Y-37933D01*
X36773Y-37911D02*
X36694Y-37911D01*
X36706Y-37918D01*
X36713Y-37926D01*
X36717Y-37933D01*
X36057Y-38042D02*
X36061Y-38046D01*
X36065Y-38057D01*
X36065Y-38065D01*
X36061Y-38076D01*
X36053Y-38084D01*
X36046Y-38088D01*
X36031Y-38091D01*
X36020Y-38091D01*
X36005Y-38088D01*
X35997Y-38084D01*
X35990Y-38076D01*
X35986Y-38065D01*
X35986Y-38057D01*
X35990Y-38046D01*
X35993Y-38042D01*
X35993Y-38012D02*
X35990Y-38009D01*
X35986Y-38001D01*
X35986Y-37982D01*
X35990Y-37975D01*
X35993Y-37971D01*
X36001Y-37967D01*
X36008Y-37967D01*
X36020Y-37971D01*
X36065Y-38016D01*
X36065Y-37967D01*
X35986Y-37918D02*
X35986Y-37911D01*
X35990Y-37903D01*
X35993Y-37899D01*
X36001Y-37896D01*
X36016Y-37892D01*
X36035Y-37892D01*
X36050Y-37896D01*
X36057Y-37899D01*
X36061Y-37903D01*
X36065Y-37911D01*
X36065Y-37918D01*
X36061Y-37926D01*
X36057Y-37930D01*
X36050Y-37933D01*
X36035Y-37937D01*
X36016Y-37937D01*
X36001Y-37933D01*
X35993Y-37930D01*
X35990Y-37926D01*
X35986Y-37918D01*
X32908Y-37629D02*
X32911Y-37633D01*
X32915Y-37644D01*
X32915Y-37652D01*
X32911Y-37663D01*
X32904Y-37670D01*
X32896Y-37674D01*
X32881Y-37678D01*
X32870Y-37678D01*
X32855Y-37674D01*
X32847Y-37670D01*
X32840Y-37663D01*
X32836Y-37652D01*
X32836Y-37644D01*
X32840Y-37633D01*
X32844Y-37629D01*
X32915Y-37554D02*
X32915Y-37599D01*
X32915Y-37576D02*
X32836Y-37576D01*
X32847Y-37584D01*
X32855Y-37591D01*
X32859Y-37599D01*
X32915Y-37516D02*
X32915Y-37501D01*
X32911Y-37494D01*
X32908Y-37490D01*
X32896Y-37482D01*
X32881Y-37479D01*
X32851Y-37479D01*
X32844Y-37482D01*
X32840Y-37486D01*
X32836Y-37494D01*
X32836Y-37509D01*
X32840Y-37516D01*
X32844Y-37520D01*
X32851Y-37524D01*
X32870Y-37524D01*
X32878Y-37520D01*
X32881Y-37516D01*
X32885Y-37509D01*
X32885Y-37494D01*
X32881Y-37486D01*
X32878Y-37482D01*
X32870Y-37479D01*
X37388Y-38054D02*
X37392Y-38058D01*
X37395Y-38069D01*
X37395Y-38077D01*
X37392Y-38088D01*
X37384Y-38096D01*
X37377Y-38099D01*
X37362Y-38103D01*
X37350Y-38103D01*
X37335Y-38099D01*
X37328Y-38096D01*
X37320Y-38088D01*
X37316Y-38077D01*
X37316Y-38069D01*
X37320Y-38058D01*
X37324Y-38054D01*
X37395Y-37979D02*
X37395Y-38024D01*
X37395Y-38002D02*
X37316Y-38002D01*
X37328Y-38009D01*
X37335Y-38017D01*
X37339Y-38024D01*
X37350Y-37934D02*
X37347Y-37941D01*
X37343Y-37945D01*
X37335Y-37949D01*
X37332Y-37949D01*
X37324Y-37945D01*
X37320Y-37941D01*
X37316Y-37934D01*
X37316Y-37919D01*
X37320Y-37911D01*
X37324Y-37908D01*
X37332Y-37904D01*
X37335Y-37904D01*
X37343Y-37908D01*
X37347Y-37911D01*
X37350Y-37919D01*
X37350Y-37934D01*
X37354Y-37941D01*
X37358Y-37945D01*
X37365Y-37949D01*
X37380Y-37949D01*
X37388Y-37945D01*
X37392Y-37941D01*
X37395Y-37934D01*
X37395Y-37919D01*
X37392Y-37911D01*
X37388Y-37908D01*
X37380Y-37904D01*
X37365Y-37904D01*
X37358Y-37908D01*
X37354Y-37911D01*
X37350Y-37919D01*
X30604Y-37531D02*
X30608Y-37534D01*
X30612Y-37546D01*
X30612Y-37553D01*
X30608Y-37564D01*
X30601Y-37572D01*
X30593Y-37576D01*
X30578Y-37580D01*
X30567Y-37580D01*
X30552Y-37576D01*
X30544Y-37572D01*
X30537Y-37564D01*
X30533Y-37553D01*
X30533Y-37546D01*
X30537Y-37534D01*
X30541Y-37531D01*
X30612Y-37455D02*
X30612Y-37501D01*
X30612Y-37478D02*
X30533Y-37478D01*
X30544Y-37485D01*
X30552Y-37493D01*
X30556Y-37501D01*
X30533Y-37429D02*
X30533Y-37380D01*
X30563Y-37406D01*
X30563Y-37395D01*
X30567Y-37388D01*
X30571Y-37384D01*
X30578Y-37380D01*
X30597Y-37380D01*
X30604Y-37384D01*
X30608Y-37388D01*
X30612Y-37395D01*
X30612Y-37418D01*
X30608Y-37425D01*
X30604Y-37429D01*
X39862Y-41211D02*
X39858Y-41215D01*
X39847Y-41218D01*
X39840Y-41218D01*
X39828Y-41215D01*
X39821Y-41207D01*
X39817Y-41199D01*
X39813Y-41184D01*
X39813Y-41173D01*
X39817Y-41158D01*
X39821Y-41151D01*
X39828Y-41143D01*
X39840Y-41139D01*
X39847Y-41139D01*
X39858Y-41143D01*
X39862Y-41147D01*
X39937Y-41218D02*
X39892Y-41218D01*
X39915Y-41218D02*
X39915Y-41139D01*
X39907Y-41151D01*
X39900Y-41158D01*
X39892Y-41162D01*
X39967Y-41147D02*
X39971Y-41143D01*
X39979Y-41139D01*
X39998Y-41139D01*
X40005Y-41143D01*
X40009Y-41147D01*
X40013Y-41154D01*
X40013Y-41162D01*
X40009Y-41173D01*
X39964Y-41218D01*
X40013Y-41218D01*
X32097Y-39747D02*
X32100Y-39751D01*
X32104Y-39762D01*
X32104Y-39770D01*
X32100Y-39781D01*
X32093Y-39789D01*
X32085Y-39792D01*
X32070Y-39796D01*
X32059Y-39796D01*
X32044Y-39792D01*
X32036Y-39789D01*
X32029Y-39781D01*
X32025Y-39770D01*
X32025Y-39762D01*
X32029Y-39751D01*
X32033Y-39747D01*
X32104Y-39672D02*
X32104Y-39717D01*
X32104Y-39694D02*
X32025Y-39694D01*
X32036Y-39702D01*
X32044Y-39710D01*
X32048Y-39717D01*
X32104Y-39597D02*
X32104Y-39642D01*
X32104Y-39619D02*
X32025Y-39619D01*
X32036Y-39627D01*
X32044Y-39634D01*
X32048Y-39642D01*
X39138Y-43120D02*
X39134Y-43124D01*
X39123Y-43128D01*
X39115Y-43128D01*
X39104Y-43124D01*
X39096Y-43116D01*
X39093Y-43109D01*
X39089Y-43094D01*
X39089Y-43083D01*
X39093Y-43068D01*
X39096Y-43060D01*
X39104Y-43053D01*
X39115Y-43049D01*
X39123Y-43049D01*
X39134Y-43053D01*
X39138Y-43056D01*
X39213Y-43128D02*
X39168Y-43128D01*
X39190Y-43128D02*
X39190Y-43049D01*
X39183Y-43060D01*
X39175Y-43068D01*
X39168Y-43071D01*
X39262Y-43049D02*
X39269Y-43049D01*
X39277Y-43053D01*
X39281Y-43056D01*
X39284Y-43064D01*
X39288Y-43079D01*
X39288Y-43098D01*
X39284Y-43113D01*
X39281Y-43120D01*
X39277Y-43124D01*
X39269Y-43128D01*
X39262Y-43128D01*
X39254Y-43124D01*
X39251Y-43120D01*
X39247Y-43113D01*
X39243Y-43098D01*
X39243Y-43079D01*
X39247Y-43064D01*
X39251Y-43056D01*
X39254Y-43053D01*
X39262Y-43049D01*
X14878Y-36013D02*
X14881Y-36016D01*
X14885Y-36028D01*
X14885Y-36035D01*
X14881Y-36047D01*
X14874Y-36054D01*
X14866Y-36058D01*
X14851Y-36062D01*
X14840Y-36062D01*
X14825Y-36058D01*
X14818Y-36054D01*
X14810Y-36047D01*
X14806Y-36035D01*
X14806Y-36028D01*
X14810Y-36016D01*
X14814Y-36013D01*
X14885Y-35975D02*
X14885Y-35960D01*
X14881Y-35952D01*
X14878Y-35949D01*
X14866Y-35941D01*
X14851Y-35937D01*
X14821Y-35937D01*
X14814Y-35941D01*
X14810Y-35945D01*
X14806Y-35952D01*
X14806Y-35968D01*
X14810Y-35975D01*
X14814Y-35979D01*
X14821Y-35983D01*
X14840Y-35983D01*
X14848Y-35979D01*
X14851Y-35975D01*
X14855Y-35968D01*
X14855Y-35952D01*
X14851Y-35945D01*
X14848Y-35941D01*
X14840Y-35937D01*
X35711Y-45733D02*
X35715Y-45737D01*
X35718Y-45748D01*
X35718Y-45756D01*
X35715Y-45767D01*
X35707Y-45775D01*
X35699Y-45778D01*
X35684Y-45782D01*
X35673Y-45782D01*
X35658Y-45778D01*
X35651Y-45775D01*
X35643Y-45767D01*
X35639Y-45756D01*
X35639Y-45748D01*
X35643Y-45737D01*
X35647Y-45733D01*
X35673Y-45688D02*
X35669Y-45696D01*
X35666Y-45699D01*
X35658Y-45703D01*
X35654Y-45703D01*
X35647Y-45699D01*
X35643Y-45696D01*
X35639Y-45688D01*
X35639Y-45673D01*
X35643Y-45665D01*
X35647Y-45662D01*
X35654Y-45658D01*
X35658Y-45658D01*
X35666Y-45662D01*
X35669Y-45665D01*
X35673Y-45673D01*
X35673Y-45688D01*
X35677Y-45696D01*
X35681Y-45699D01*
X35688Y-45703D01*
X35703Y-45703D01*
X35711Y-45699D01*
X35715Y-45696D01*
X35718Y-45688D01*
X35718Y-45673D01*
X35715Y-45665D01*
X35711Y-45662D01*
X35703Y-45658D01*
X35688Y-45658D01*
X35681Y-45662D01*
X35677Y-45665D01*
X35673Y-45673D01*
X25699Y-35973D02*
X25703Y-35977D01*
X25706Y-35988D01*
X25706Y-35996D01*
X25703Y-36007D01*
X25695Y-36015D01*
X25688Y-36018D01*
X25673Y-36022D01*
X25661Y-36022D01*
X25646Y-36018D01*
X25639Y-36015D01*
X25631Y-36007D01*
X25627Y-35996D01*
X25627Y-35988D01*
X25631Y-35977D01*
X25635Y-35973D01*
X25627Y-35947D02*
X25627Y-35894D01*
X25706Y-35928D01*
X23782Y-38855D02*
X23785Y-38859D01*
X23789Y-38870D01*
X23789Y-38878D01*
X23785Y-38889D01*
X23778Y-38897D01*
X23770Y-38900D01*
X23755Y-38904D01*
X23744Y-38904D01*
X23729Y-38900D01*
X23721Y-38897D01*
X23714Y-38889D01*
X23710Y-38878D01*
X23710Y-38870D01*
X23714Y-38859D01*
X23718Y-38855D01*
X23710Y-38787D02*
X23710Y-38803D01*
X23714Y-38810D01*
X23718Y-38814D01*
X23729Y-38821D01*
X23744Y-38825D01*
X23774Y-38825D01*
X23782Y-38821D01*
X23785Y-38818D01*
X23789Y-38810D01*
X23789Y-38795D01*
X23785Y-38787D01*
X23782Y-38784D01*
X23774Y-38780D01*
X23755Y-38780D01*
X23748Y-38784D01*
X23744Y-38787D01*
X23740Y-38795D01*
X23740Y-38810D01*
X23744Y-38818D01*
X23748Y-38821D01*
X23755Y-38825D01*
X24565Y-38847D02*
X24569Y-38851D01*
X24573Y-38862D01*
X24573Y-38870D01*
X24569Y-38881D01*
X24561Y-38889D01*
X24554Y-38892D01*
X24539Y-38896D01*
X24527Y-38896D01*
X24512Y-38892D01*
X24505Y-38889D01*
X24497Y-38881D01*
X24494Y-38870D01*
X24494Y-38862D01*
X24497Y-38851D01*
X24501Y-38847D01*
X24494Y-38776D02*
X24494Y-38813D01*
X24531Y-38817D01*
X24527Y-38813D01*
X24524Y-38806D01*
X24524Y-38787D01*
X24527Y-38780D01*
X24531Y-38776D01*
X24539Y-38772D01*
X24558Y-38772D01*
X24565Y-38776D01*
X24569Y-38780D01*
X24573Y-38787D01*
X24573Y-38806D01*
X24569Y-38813D01*
X24565Y-38817D01*
X24967Y-45967D02*
X24963Y-45970D01*
X24952Y-45974D01*
X24944Y-45974D01*
X24933Y-45970D01*
X24925Y-45963D01*
X24922Y-45955D01*
X24918Y-45940D01*
X24918Y-45929D01*
X24922Y-45914D01*
X24925Y-45907D01*
X24933Y-45899D01*
X24944Y-45895D01*
X24952Y-45895D01*
X24963Y-45899D01*
X24967Y-45903D01*
X25034Y-45922D02*
X25034Y-45974D01*
X25016Y-45891D02*
X24997Y-45948D01*
X25046Y-45948D01*
X27132Y-45459D02*
X27128Y-45463D01*
X27117Y-45466D01*
X27109Y-45466D01*
X27098Y-45463D01*
X27091Y-45455D01*
X27087Y-45448D01*
X27083Y-45432D01*
X27083Y-45421D01*
X27087Y-45406D01*
X27091Y-45399D01*
X27098Y-45391D01*
X27109Y-45387D01*
X27117Y-45387D01*
X27128Y-45391D01*
X27132Y-45395D01*
X27158Y-45387D02*
X27207Y-45387D01*
X27181Y-45417D01*
X27192Y-45417D01*
X27200Y-45421D01*
X27203Y-45425D01*
X27207Y-45432D01*
X27207Y-45451D01*
X27203Y-45459D01*
X27200Y-45463D01*
X27192Y-45466D01*
X27170Y-45466D01*
X27162Y-45463D01*
X27158Y-45459D01*
X30061Y-45560D02*
X30065Y-45564D01*
X30069Y-45575D01*
X30069Y-45582D01*
X30065Y-45594D01*
X30057Y-45601D01*
X30050Y-45605D01*
X30035Y-45609D01*
X30024Y-45609D01*
X30009Y-45605D01*
X30001Y-45601D01*
X29993Y-45594D01*
X29990Y-45582D01*
X29990Y-45575D01*
X29993Y-45564D01*
X29997Y-45560D01*
X30069Y-45485D02*
X30069Y-45530D01*
X30069Y-45507D02*
X29990Y-45507D01*
X30001Y-45515D01*
X30009Y-45522D01*
X30012Y-45530D01*
G54D20*
X24950Y-35262D02*
X25378Y-35262D01*
X25464Y-35290D01*
X25521Y-35347D01*
X25550Y-35433D01*
X25550Y-35490D01*
X24950Y-35033D02*
X24950Y-34662D01*
X25178Y-34862D01*
X25178Y-34776D01*
X25207Y-34719D01*
X25236Y-34690D01*
X25293Y-34662D01*
X25436Y-34662D01*
X25493Y-34690D01*
X25521Y-34719D01*
X25550Y-34776D01*
X25550Y-34947D01*
X25521Y-35004D01*
X25493Y-35033D01*
G54D14*
X21165Y-43097D02*
X21651Y-43097D01*
X21708Y-43069D01*
X21736Y-43040D01*
X21765Y-42983D01*
X21765Y-42869D01*
X21736Y-42812D01*
X21708Y-42783D01*
X21651Y-42755D01*
X21165Y-42755D01*
X21765Y-42155D02*
X21765Y-42497D01*
X21765Y-42326D02*
X21165Y-42326D01*
X21251Y-42383D01*
X21308Y-42440D01*
X21336Y-42497D01*
X11725Y-45140D02*
X11439Y-45340D01*
X11725Y-45483D02*
X11125Y-45483D01*
X11125Y-45255D01*
X11153Y-45197D01*
X11182Y-45169D01*
X11239Y-45140D01*
X11325Y-45140D01*
X11382Y-45169D01*
X11411Y-45197D01*
X11439Y-45255D01*
X11439Y-45483D01*
X11125Y-44712D02*
X11553Y-44712D01*
X11639Y-44740D01*
X11696Y-44797D01*
X11725Y-44883D01*
X11725Y-44940D01*
X11325Y-44169D02*
X11725Y-44169D01*
X11096Y-44312D02*
X11525Y-44455D01*
X11525Y-44083D01*
X11125Y-43569D02*
X11125Y-43855D01*
X11411Y-43883D01*
X11382Y-43855D01*
X11353Y-43797D01*
X11353Y-43655D01*
X11382Y-43597D01*
X11411Y-43569D01*
X11468Y-43540D01*
X11611Y-43540D01*
X11668Y-43569D01*
X11696Y-43597D01*
X11725Y-43655D01*
X11725Y-43797D01*
X11696Y-43855D01*
X11668Y-43883D01*
X11782Y-43426D02*
X11782Y-42969D01*
X11725Y-42512D02*
X11725Y-42855D01*
X11725Y-42683D02*
X11125Y-42683D01*
X11211Y-42740D01*
X11268Y-42797D01*
X11296Y-42855D01*
X11182Y-42283D02*
X11153Y-42255D01*
X11125Y-42197D01*
X11125Y-42055D01*
X11153Y-41997D01*
X11182Y-41969D01*
X11239Y-41940D01*
X11296Y-41940D01*
X11382Y-41969D01*
X11725Y-42312D01*
X11725Y-41940D01*
X11782Y-41826D02*
X11782Y-41369D01*
X11725Y-41226D02*
X11125Y-41226D01*
X11125Y-40997D01*
X11153Y-40940D01*
X11182Y-40912D01*
X11239Y-40883D01*
X11325Y-40883D01*
X11382Y-40912D01*
X11411Y-40940D01*
X11439Y-40997D01*
X11439Y-41226D01*
X11725Y-40626D02*
X11125Y-40626D01*
X11725Y-40340D02*
X11125Y-40340D01*
X11725Y-39997D01*
X11125Y-39997D01*
X18183Y-36117D02*
X18426Y-36117D01*
X18454Y-36102D01*
X18469Y-36088D01*
X18483Y-36060D01*
X18483Y-36002D01*
X18469Y-35974D01*
X18454Y-35960D01*
X18426Y-35945D01*
X18183Y-35945D01*
X18183Y-35831D02*
X18183Y-35645D01*
X18297Y-35745D01*
X18297Y-35702D01*
X18311Y-35674D01*
X18326Y-35660D01*
X18354Y-35645D01*
X18426Y-35645D01*
X18454Y-35660D01*
X18469Y-35674D01*
X18483Y-35702D01*
X18483Y-35788D01*
X18469Y-35817D01*
X18454Y-35831D01*
X15533Y-37660D02*
X15390Y-37760D01*
X15533Y-37831D02*
X15233Y-37831D01*
X15233Y-37717D01*
X15247Y-37688D01*
X15261Y-37674D01*
X15290Y-37660D01*
X15333Y-37660D01*
X15361Y-37674D01*
X15376Y-37688D01*
X15390Y-37717D01*
X15390Y-37831D01*
X15376Y-37531D02*
X15376Y-37431D01*
X15533Y-37388D02*
X15533Y-37531D01*
X15233Y-37531D01*
X15233Y-37388D01*
X15247Y-37102D02*
X15233Y-37131D01*
X15233Y-37174D01*
X15247Y-37217D01*
X15276Y-37245D01*
X15304Y-37260D01*
X15361Y-37274D01*
X15404Y-37274D01*
X15461Y-37260D01*
X15490Y-37245D01*
X15519Y-37217D01*
X15533Y-37174D01*
X15533Y-37145D01*
X15519Y-37102D01*
X15504Y-37088D01*
X15404Y-37088D01*
X15404Y-37145D01*
X15233Y-36960D02*
X15476Y-36960D01*
X15504Y-36945D01*
X15519Y-36931D01*
X15533Y-36902D01*
X15533Y-36845D01*
X15519Y-36817D01*
X15504Y-36802D01*
X15476Y-36788D01*
X15233Y-36788D01*
X15533Y-36502D02*
X15533Y-36645D01*
X15233Y-36645D01*
X15447Y-36417D02*
X15447Y-36274D01*
X15533Y-36445D02*
X15233Y-36345D01*
X15533Y-36245D01*
X15233Y-36188D02*
X15233Y-36017D01*
X15533Y-36102D02*
X15233Y-36102D01*
X15233Y-35860D02*
X15233Y-35802D01*
X15247Y-35774D01*
X15276Y-35745D01*
X15333Y-35731D01*
X15433Y-35731D01*
X15490Y-35745D01*
X15519Y-35774D01*
X15533Y-35802D01*
X15533Y-35860D01*
X15519Y-35888D01*
X15490Y-35917D01*
X15433Y-35931D01*
X15333Y-35931D01*
X15276Y-35917D01*
X15247Y-35888D01*
X15233Y-35860D01*
X15533Y-35431D02*
X15390Y-35531D01*
X15533Y-35602D02*
X15233Y-35602D01*
X15233Y-35488D01*
X15247Y-35460D01*
X15261Y-35445D01*
X15290Y-35431D01*
X15333Y-35431D01*
X15361Y-35445D01*
X15376Y-35460D01*
X15390Y-35488D01*
X15390Y-35602D01*
X15561Y-35374D02*
X15561Y-35145D01*
X15233Y-35102D02*
X15233Y-34917D01*
X15347Y-35017D01*
X15347Y-34974D01*
X15361Y-34945D01*
X15376Y-34931D01*
X15404Y-34917D01*
X15476Y-34917D01*
X15504Y-34931D01*
X15519Y-34945D01*
X15533Y-34974D01*
X15533Y-35060D01*
X15519Y-35088D01*
X15504Y-35102D01*
X15504Y-34788D02*
X15519Y-34774D01*
X15533Y-34788D01*
X15519Y-34802D01*
X15504Y-34788D01*
X15533Y-34788D01*
X15233Y-34674D02*
X15233Y-34488D01*
X15347Y-34588D01*
X15347Y-34545D01*
X15361Y-34517D01*
X15376Y-34502D01*
X15404Y-34488D01*
X15476Y-34488D01*
X15504Y-34502D01*
X15519Y-34517D01*
X15533Y-34545D01*
X15533Y-34631D01*
X15519Y-34660D01*
X15504Y-34674D01*
X15233Y-34402D02*
X15533Y-34302D01*
X15233Y-34202D01*
G54D21*
X29336Y-45590D02*
X29343Y-45597D01*
X29350Y-45618D01*
X29350Y-45632D01*
X29343Y-45654D01*
X29329Y-45668D01*
X29314Y-45675D01*
X29286Y-45682D01*
X29264Y-45682D01*
X29236Y-45675D01*
X29221Y-45668D01*
X29207Y-45654D01*
X29200Y-45632D01*
X29200Y-45618D01*
X29207Y-45597D01*
X29214Y-45590D01*
X29214Y-45532D02*
X29207Y-45525D01*
X29200Y-45511D01*
X29200Y-45475D01*
X29207Y-45461D01*
X29214Y-45454D01*
X29229Y-45447D01*
X29243Y-45447D01*
X29264Y-45454D01*
X29350Y-45540D01*
X29350Y-45447D01*
X22999Y-43840D02*
X22949Y-43840D01*
X22949Y-43919D02*
X22949Y-43769D01*
X23020Y-43769D01*
X23127Y-43840D02*
X23149Y-43847D01*
X23156Y-43854D01*
X23163Y-43869D01*
X23163Y-43890D01*
X23156Y-43904D01*
X23149Y-43911D01*
X23134Y-43919D01*
X23077Y-43919D01*
X23077Y-43769D01*
X23127Y-43769D01*
X23142Y-43776D01*
X23149Y-43783D01*
X23156Y-43797D01*
X23156Y-43811D01*
X23149Y-43826D01*
X23142Y-43833D01*
X23127Y-43840D01*
X23077Y-43840D01*
X23306Y-43919D02*
X23220Y-43919D01*
X23263Y-43919D02*
X23263Y-43769D01*
X23249Y-43790D01*
X23234Y-43804D01*
X23220Y-43811D01*
G54D13*
X34597Y-33960D02*
X34860Y-34354D01*
X34860Y-33960D02*
X34597Y-34354D01*
X34991Y-33998D02*
X35010Y-33979D01*
X35048Y-33960D01*
X35141Y-33960D01*
X35179Y-33979D01*
X35198Y-33998D01*
X35216Y-34035D01*
X35216Y-34073D01*
X35198Y-34129D01*
X34973Y-34354D01*
X35216Y-34354D01*
X34436Y-36915D02*
X34398Y-36896D01*
X34380Y-36878D01*
X34361Y-36840D01*
X34361Y-36821D01*
X34380Y-36784D01*
X34398Y-36765D01*
X34436Y-36746D01*
X34511Y-36746D01*
X34548Y-36765D01*
X34567Y-36784D01*
X34586Y-36821D01*
X34586Y-36840D01*
X34567Y-36878D01*
X34548Y-36896D01*
X34511Y-36915D01*
X34436Y-36915D01*
X34398Y-36934D01*
X34380Y-36953D01*
X34361Y-36990D01*
X34361Y-37065D01*
X34380Y-37103D01*
X34398Y-37121D01*
X34436Y-37140D01*
X34511Y-37140D01*
X34548Y-37121D01*
X34567Y-37103D01*
X34586Y-37065D01*
X34586Y-36990D01*
X34567Y-36953D01*
X34548Y-36934D01*
X34511Y-36915D01*
X34755Y-37140D02*
X34755Y-36746D01*
X34886Y-37028D01*
X35018Y-36746D01*
X35018Y-37140D01*
X35205Y-37140D02*
X35205Y-36746D01*
X35374Y-37140D02*
X35374Y-36934D01*
X35355Y-36896D01*
X35318Y-36878D01*
X35261Y-36878D01*
X35224Y-36896D01*
X35205Y-36915D01*
X35524Y-36878D02*
X35730Y-36878D01*
X35524Y-37140D01*
X35730Y-37140D01*
X26165Y-48678D02*
X26428Y-49072D01*
X26428Y-48678D02*
X26165Y-49072D01*
X26784Y-49072D02*
X26559Y-49072D01*
X26672Y-49072D02*
X26672Y-48678D01*
X26634Y-48734D01*
X26597Y-48772D01*
X26559Y-48791D01*
X25323Y-45930D02*
X25342Y-45911D01*
X25379Y-45892D01*
X25473Y-45892D01*
X25511Y-45911D01*
X25529Y-45930D01*
X25548Y-45967D01*
X25548Y-46005D01*
X25529Y-46061D01*
X25304Y-46286D01*
X25548Y-46286D01*
X25905Y-45892D02*
X25717Y-45892D01*
X25698Y-46080D01*
X25717Y-46061D01*
X25755Y-46042D01*
X25848Y-46042D01*
X25886Y-46061D01*
X25905Y-46080D01*
X25923Y-46117D01*
X25923Y-46211D01*
X25905Y-46249D01*
X25886Y-46267D01*
X25848Y-46286D01*
X25755Y-46286D01*
X25717Y-46267D01*
X25698Y-46249D01*
X26392Y-46286D02*
X26392Y-45892D01*
X26524Y-46174D01*
X26655Y-45892D01*
X26655Y-46286D01*
X26843Y-46286D02*
X26843Y-45892D01*
X26843Y-46080D02*
X27068Y-46080D01*
X27068Y-46286D02*
X27068Y-45892D01*
X27218Y-46023D02*
X27424Y-46023D01*
X27218Y-46286D01*
X27424Y-46286D01*
G54D11*
X34861Y-41198D02*
X34861Y-41548D01*
X34882Y-41590D01*
X34903Y-41610D01*
X34944Y-41631D01*
X35026Y-41631D01*
X35068Y-41610D01*
X35088Y-41590D01*
X35109Y-41548D01*
X35109Y-41198D01*
X35501Y-41342D02*
X35501Y-41631D01*
X35397Y-41177D02*
X35294Y-41486D01*
X35562Y-41486D01*
G54D22*
X32458Y-42863D02*
X32458Y-42469D01*
X32608Y-42469D01*
X32646Y-42488D01*
X32665Y-42507D01*
X32683Y-42544D01*
X32683Y-42601D01*
X32665Y-42638D01*
X32646Y-42657D01*
X32608Y-42676D01*
X32458Y-42676D01*
X32852Y-42863D02*
X32852Y-42469D01*
X33265Y-42826D02*
X33246Y-42844D01*
X33190Y-42863D01*
X33152Y-42863D01*
X33096Y-42844D01*
X33059Y-42807D01*
X33040Y-42769D01*
X33021Y-42694D01*
X33021Y-42638D01*
X33040Y-42563D01*
X33059Y-42525D01*
X33096Y-42488D01*
X33152Y-42469D01*
X33190Y-42469D01*
X33246Y-42488D01*
X33265Y-42507D01*
X33396Y-42469D02*
X33640Y-42469D01*
X33509Y-42619D01*
X33565Y-42619D01*
X33603Y-42638D01*
X33622Y-42657D01*
X33640Y-42694D01*
X33640Y-42788D01*
X33622Y-42826D01*
X33603Y-42844D01*
X33565Y-42863D01*
X33453Y-42863D01*
X33415Y-42844D01*
X33396Y-42826D01*
X33790Y-42507D02*
X33809Y-42488D01*
X33847Y-42469D01*
X33940Y-42469D01*
X33978Y-42488D01*
X33997Y-42507D01*
X34016Y-42544D01*
X34016Y-42582D01*
X33997Y-42638D01*
X33772Y-42863D01*
X34016Y-42863D01*
X34184Y-42863D02*
X34184Y-42469D01*
X34316Y-42751D01*
X34447Y-42469D01*
X34447Y-42863D01*
X34597Y-42469D02*
X34860Y-42863D01*
X34860Y-42469D02*
X34597Y-42863D01*
X34972Y-42469D02*
X35235Y-42469D01*
X35066Y-42863D01*
X35404Y-42863D02*
X35479Y-42863D01*
X35516Y-42844D01*
X35535Y-42826D01*
X35573Y-42769D01*
X35592Y-42694D01*
X35592Y-42544D01*
X35573Y-42507D01*
X35554Y-42488D01*
X35516Y-42469D01*
X35441Y-42469D01*
X35404Y-42488D01*
X35385Y-42507D01*
X35366Y-42544D01*
X35366Y-42638D01*
X35385Y-42676D01*
X35404Y-42694D01*
X35441Y-42713D01*
X35516Y-42713D01*
X35554Y-42694D01*
X35573Y-42676D01*
X35592Y-42638D01*
X35948Y-42469D02*
X35760Y-42469D01*
X35742Y-42657D01*
X35760Y-42638D01*
X35798Y-42619D01*
X35892Y-42619D01*
X35929Y-42638D01*
X35948Y-42657D01*
X35967Y-42694D01*
X35967Y-42788D01*
X35948Y-42826D01*
X35929Y-42844D01*
X35892Y-42863D01*
X35798Y-42863D01*
X35760Y-42844D01*
X35742Y-42826D01*
X36267Y-42657D02*
X36136Y-42657D01*
X36136Y-42863D02*
X36136Y-42469D01*
X36323Y-42469D01*
X36661Y-42469D02*
X36473Y-42469D01*
X36455Y-42657D01*
X36473Y-42638D01*
X36511Y-42619D01*
X36605Y-42619D01*
X36642Y-42638D01*
X36661Y-42657D01*
X36680Y-42694D01*
X36680Y-42788D01*
X36661Y-42826D01*
X36642Y-42844D01*
X36605Y-42863D01*
X36511Y-42863D01*
X36473Y-42844D01*
X36455Y-42826D01*
X37055Y-42863D02*
X36830Y-42863D01*
X36942Y-42863D02*
X36942Y-42469D01*
X36905Y-42525D01*
X36867Y-42563D01*
X36830Y-42582D01*
X37205Y-42507D02*
X37224Y-42488D01*
X37261Y-42469D01*
X37355Y-42469D01*
X37393Y-42488D01*
X37411Y-42507D01*
X37430Y-42544D01*
X37430Y-42582D01*
X37411Y-42638D01*
X37186Y-42863D01*
X37430Y-42863D01*
X37599Y-42863D02*
X37599Y-42469D01*
X37599Y-42657D02*
X37824Y-42657D01*
X37824Y-42863D02*
X37824Y-42469D01*
G54D21*
X31491Y-37862D02*
X31498Y-37869D01*
X31505Y-37890D01*
X31505Y-37904D01*
X31498Y-37926D01*
X31484Y-37940D01*
X31469Y-37947D01*
X31441Y-37954D01*
X31419Y-37954D01*
X31391Y-37947D01*
X31377Y-37940D01*
X31362Y-37926D01*
X31355Y-37904D01*
X31355Y-37890D01*
X31362Y-37869D01*
X31369Y-37862D01*
X31505Y-37719D02*
X31505Y-37804D01*
X31505Y-37762D02*
X31355Y-37762D01*
X31377Y-37776D01*
X31391Y-37790D01*
X31398Y-37804D01*
X31405Y-37590D02*
X31505Y-37590D01*
X31348Y-37626D02*
X31455Y-37662D01*
X31455Y-37569D01*
G54D19*
X45028Y-42009D02*
X45242Y-42009D01*
X45285Y-42023D01*
X45314Y-42052D01*
X45328Y-42095D01*
X45328Y-42123D01*
X45057Y-41880D02*
X45042Y-41866D01*
X45028Y-41838D01*
X45028Y-41766D01*
X45042Y-41738D01*
X45057Y-41723D01*
X45085Y-41709D01*
X45114Y-41709D01*
X45157Y-41723D01*
X45328Y-41895D01*
X45328Y-41709D01*
X41293Y-43292D02*
X40993Y-43292D01*
X41136Y-43292D02*
X41136Y-43120D01*
X41293Y-43120D02*
X40993Y-43120D01*
X41136Y-42978D02*
X41136Y-42878D01*
X41293Y-42835D02*
X41293Y-42978D01*
X40993Y-42978D01*
X40993Y-42835D01*
X41207Y-42720D02*
X41207Y-42578D01*
X41293Y-42749D02*
X40993Y-42649D01*
X41293Y-42549D01*
X41293Y-42449D02*
X40993Y-42449D01*
X40993Y-42378D01*
X41007Y-42335D01*
X41036Y-42306D01*
X41064Y-42292D01*
X41121Y-42278D01*
X41164Y-42278D01*
X41221Y-42292D01*
X41250Y-42306D01*
X41278Y-42335D01*
X41293Y-42378D01*
X41293Y-42449D01*
X41136Y-42149D02*
X41136Y-42049D01*
X41293Y-42006D02*
X41293Y-42149D01*
X40993Y-42149D01*
X40993Y-42006D01*
X41293Y-41706D02*
X41150Y-41806D01*
X41293Y-41878D02*
X40993Y-41878D01*
X40993Y-41763D01*
X41007Y-41735D01*
X41021Y-41720D01*
X41050Y-41706D01*
X41093Y-41706D01*
X41121Y-41720D01*
X41136Y-41735D01*
X41150Y-41763D01*
X41150Y-41878D01*
X41321Y-41649D02*
X41321Y-41420D01*
X41293Y-41192D02*
X41293Y-41363D01*
X41293Y-41278D02*
X40993Y-41278D01*
X41036Y-41306D01*
X41064Y-41335D01*
X41078Y-41363D01*
X40993Y-41006D02*
X40993Y-40978D01*
X41007Y-40949D01*
X41021Y-40935D01*
X41050Y-40920D01*
X41107Y-40906D01*
X41178Y-40906D01*
X41236Y-40920D01*
X41264Y-40935D01*
X41278Y-40949D01*
X41293Y-40978D01*
X41293Y-41006D01*
X41278Y-41035D01*
X41264Y-41049D01*
X41236Y-41063D01*
X41178Y-41078D01*
X41107Y-41078D01*
X41050Y-41063D01*
X41021Y-41049D01*
X41007Y-41035D01*
X40993Y-41006D01*
X40993Y-40806D02*
X41293Y-40606D01*
X40993Y-40606D02*
X41293Y-40806D01*
X41021Y-40506D02*
X41007Y-40492D01*
X40993Y-40463D01*
X40993Y-40392D01*
X41007Y-40363D01*
X41021Y-40349D01*
X41050Y-40335D01*
X41078Y-40335D01*
X41121Y-40349D01*
X41293Y-40520D01*
X41293Y-40335D01*
G54D18*
X24093Y-43301D02*
X24066Y-43263D01*
X24047Y-43301D02*
X24047Y-43222D01*
X24078Y-43222D01*
X24085Y-43226D01*
X24089Y-43230D01*
X24093Y-43237D01*
X24093Y-43248D01*
X24089Y-43256D01*
X24085Y-43260D01*
X24078Y-43263D01*
X24047Y-43263D01*
X24160Y-43248D02*
X24160Y-43301D01*
X24142Y-43218D02*
X24123Y-43275D01*
X24172Y-43275D01*
G54D23*
X25097Y-42220D02*
X25352Y-42220D01*
X25382Y-42205D01*
X25397Y-42190D01*
X25412Y-42160D01*
X25412Y-42100D01*
X25397Y-42070D01*
X25382Y-42055D01*
X25352Y-42040D01*
X25097Y-42040D01*
X25127Y-41905D02*
X25112Y-41890D01*
X25097Y-41860D01*
X25097Y-41785D01*
X25112Y-41755D01*
X25127Y-41740D01*
X25157Y-41725D01*
X25187Y-41725D01*
X25232Y-41740D01*
X25412Y-41920D01*
X25412Y-41725D01*
X28128Y-44290D02*
X28128Y-44440D01*
X27813Y-44440D01*
X28038Y-44200D02*
X28038Y-44050D01*
X28128Y-44230D02*
X27813Y-44125D01*
X28128Y-44020D01*
X28128Y-43915D02*
X27813Y-43915D01*
X28128Y-43735D01*
X27813Y-43735D01*
X27948Y-43540D02*
X27933Y-43570D01*
X27918Y-43585D01*
X27888Y-43600D01*
X27873Y-43600D01*
X27843Y-43585D01*
X27828Y-43570D01*
X27813Y-43540D01*
X27813Y-43480D01*
X27828Y-43450D01*
X27843Y-43435D01*
X27873Y-43420D01*
X27888Y-43420D01*
X27918Y-43435D01*
X27933Y-43450D01*
X27948Y-43480D01*
X27948Y-43540D01*
X27963Y-43570D01*
X27978Y-43585D01*
X28008Y-43600D01*
X28068Y-43600D01*
X28098Y-43585D01*
X28113Y-43570D01*
X28128Y-43540D01*
X28128Y-43480D01*
X28113Y-43450D01*
X28098Y-43435D01*
X28068Y-43420D01*
X28008Y-43420D01*
X27978Y-43435D01*
X27963Y-43450D01*
X27948Y-43480D01*
X27813Y-43315D02*
X27813Y-43105D01*
X28128Y-43240D01*
X27843Y-43000D02*
X27828Y-42985D01*
X27813Y-42955D01*
X27813Y-42880D01*
X27828Y-42850D01*
X27843Y-42835D01*
X27873Y-42820D01*
X27903Y-42820D01*
X27948Y-42835D01*
X28128Y-43015D01*
X28128Y-42820D01*
X27813Y-42625D02*
X27813Y-42595D01*
X27828Y-42565D01*
X27843Y-42550D01*
X27873Y-42535D01*
X27933Y-42520D01*
X28008Y-42520D01*
X28068Y-42535D01*
X28098Y-42550D01*
X28113Y-42565D01*
X28128Y-42595D01*
X28128Y-42625D01*
X28113Y-42655D01*
X28098Y-42670D01*
X28068Y-42685D01*
X28008Y-42700D01*
X27933Y-42700D01*
X27873Y-42685D01*
X27843Y-42670D01*
X27828Y-42655D01*
X27813Y-42625D01*
X28038Y-42400D02*
X28038Y-42250D01*
X28128Y-42430D02*
X27813Y-42325D01*
X28128Y-42220D01*
X27798Y-41890D02*
X28203Y-42160D01*
X28128Y-41635D02*
X28128Y-41785D01*
X27813Y-41785D01*
X28038Y-41545D02*
X28038Y-41395D01*
X28128Y-41575D02*
X27813Y-41470D01*
X28128Y-41365D01*
X28128Y-41260D02*
X27813Y-41260D01*
X28128Y-41080D01*
X27813Y-41080D01*
X27948Y-40885D02*
X27933Y-40915D01*
X27918Y-40930D01*
X27888Y-40945D01*
X27873Y-40945D01*
X27843Y-40930D01*
X27828Y-40915D01*
X27813Y-40885D01*
X27813Y-40825D01*
X27828Y-40795D01*
X27843Y-40780D01*
X27873Y-40765D01*
X27888Y-40765D01*
X27918Y-40780D01*
X27933Y-40795D01*
X27948Y-40825D01*
X27948Y-40885D01*
X27963Y-40915D01*
X27978Y-40930D01*
X28008Y-40945D01*
X28068Y-40945D01*
X28098Y-40930D01*
X28113Y-40915D01*
X28128Y-40885D01*
X28128Y-40825D01*
X28113Y-40795D01*
X28098Y-40780D01*
X28068Y-40765D01*
X28008Y-40765D01*
X27978Y-40780D01*
X27963Y-40795D01*
X27948Y-40825D01*
X27813Y-40660D02*
X27813Y-40450D01*
X28128Y-40585D01*
X27843Y-40345D02*
X27828Y-40330D01*
X27813Y-40300D01*
X27813Y-40226D01*
X27828Y-40196D01*
X27843Y-40181D01*
X27873Y-40166D01*
X27903Y-40166D01*
X27948Y-40181D01*
X28128Y-40360D01*
X28128Y-40166D01*
X27813Y-39971D02*
X27813Y-39941D01*
X27828Y-39911D01*
X27843Y-39896D01*
X27873Y-39881D01*
X27933Y-39866D01*
X28008Y-39866D01*
X28068Y-39881D01*
X28098Y-39896D01*
X28113Y-39911D01*
X28128Y-39941D01*
X28128Y-39971D01*
X28113Y-40001D01*
X28098Y-40016D01*
X28068Y-40031D01*
X28008Y-40046D01*
X27933Y-40046D01*
X27873Y-40031D01*
X27843Y-40016D01*
X27828Y-40001D01*
X27813Y-39971D01*
X28038Y-39746D02*
X28038Y-39596D01*
X28128Y-39776D02*
X27813Y-39671D01*
X28128Y-39566D01*
X28128Y-39461D02*
X27813Y-39461D01*
G54D10*
X13917Y-32953D02*
X13917Y-32559D01*
X13917Y-32747D02*
X14142Y-32747D01*
X14142Y-32953D02*
X14142Y-32559D01*
X14386Y-32953D02*
X14349Y-32934D01*
X14330Y-32916D01*
X14311Y-32878D01*
X14311Y-32766D01*
X14330Y-32728D01*
X14349Y-32709D01*
X14386Y-32691D01*
X14442Y-32691D01*
X14480Y-32709D01*
X14499Y-32728D01*
X14517Y-32766D01*
X14517Y-32878D01*
X14499Y-32916D01*
X14480Y-32934D01*
X14442Y-32953D01*
X14386Y-32953D01*
X14742Y-32953D02*
X14705Y-32934D01*
X14686Y-32897D01*
X14686Y-32559D01*
X15042Y-32934D02*
X15005Y-32953D01*
X14930Y-32953D01*
X14892Y-32934D01*
X14874Y-32897D01*
X14874Y-32747D01*
X14892Y-32709D01*
X14930Y-32691D01*
X15005Y-32691D01*
X15042Y-32709D01*
X15061Y-32747D01*
X15061Y-32784D01*
X14874Y-32822D01*
X13839Y-34587D02*
X13970Y-34981D01*
X14101Y-34587D01*
X14214Y-34868D02*
X14401Y-34868D01*
X14176Y-34981D02*
X14307Y-34587D01*
X14439Y-34981D01*
X14757Y-34981D02*
X14570Y-34981D01*
X14570Y-34587D01*
X14945Y-34587D02*
X14945Y-34681D01*
X14851Y-34643D02*
X14945Y-34681D01*
X15038Y-34643D01*
X14889Y-34756D02*
X14945Y-34681D01*
X15001Y-34756D01*
X15245Y-34587D02*
X15245Y-34681D01*
X15151Y-34643D02*
X15245Y-34681D01*
X15338Y-34643D01*
X15188Y-34756D02*
X15245Y-34681D01*
X15301Y-34756D01*
X44102Y-32953D02*
X44102Y-32559D01*
X44102Y-32747D02*
X44327Y-32747D01*
X44327Y-32953D02*
X44327Y-32559D01*
X44571Y-32953D02*
X44534Y-32934D01*
X44515Y-32916D01*
X44496Y-32878D01*
X44496Y-32766D01*
X44515Y-32728D01*
X44534Y-32709D01*
X44571Y-32691D01*
X44627Y-32691D01*
X44665Y-32709D01*
X44684Y-32728D01*
X44702Y-32766D01*
X44702Y-32878D01*
X44684Y-32916D01*
X44665Y-32934D01*
X44627Y-32953D01*
X44571Y-32953D01*
X44927Y-32953D02*
X44890Y-32934D01*
X44871Y-32897D01*
X44871Y-32559D01*
X45227Y-32934D02*
X45190Y-32953D01*
X45115Y-32953D01*
X45077Y-32934D01*
X45059Y-32897D01*
X45059Y-32747D01*
X45077Y-32709D01*
X45115Y-32691D01*
X45190Y-32691D01*
X45227Y-32709D01*
X45246Y-32747D01*
X45246Y-32784D01*
X45059Y-32822D01*
X44024Y-34587D02*
X44155Y-34981D01*
X44286Y-34587D01*
X44399Y-34868D02*
X44586Y-34868D01*
X44361Y-34981D02*
X44492Y-34587D01*
X44624Y-34981D01*
X44942Y-34981D02*
X44755Y-34981D01*
X44755Y-34587D01*
X45130Y-34587D02*
X45130Y-34681D01*
X45036Y-34643D02*
X45130Y-34681D01*
X45224Y-34643D01*
X45074Y-34756D02*
X45130Y-34681D01*
X45186Y-34756D01*
X45430Y-34587D02*
X45430Y-34681D01*
X45336Y-34643D02*
X45430Y-34681D01*
X45523Y-34643D01*
X45374Y-34756D02*
X45430Y-34681D01*
X45486Y-34756D01*
X44437Y-48248D02*
X44437Y-47855D01*
X44437Y-48042D02*
X44662Y-48042D01*
X44662Y-48248D02*
X44662Y-47855D01*
X44906Y-48248D02*
X44868Y-48230D01*
X44850Y-48211D01*
X44831Y-48173D01*
X44831Y-48061D01*
X44850Y-48023D01*
X44868Y-48005D01*
X44906Y-47986D01*
X44962Y-47986D01*
X45000Y-48005D01*
X45018Y-48023D01*
X45037Y-48061D01*
X45037Y-48173D01*
X45018Y-48211D01*
X45000Y-48230D01*
X44962Y-48248D01*
X44906Y-48248D01*
X45262Y-48248D02*
X45224Y-48230D01*
X45206Y-48192D01*
X45206Y-47855D01*
X45562Y-48230D02*
X45524Y-48248D01*
X45449Y-48248D01*
X45412Y-48230D01*
X45393Y-48192D01*
X45393Y-48042D01*
X45412Y-48005D01*
X45449Y-47986D01*
X45524Y-47986D01*
X45562Y-48005D01*
X45581Y-48042D01*
X45581Y-48080D01*
X45393Y-48117D01*
X44358Y-49882D02*
X44490Y-50276D01*
X44621Y-49882D01*
X44733Y-50164D02*
X44921Y-50164D01*
X44696Y-50276D02*
X44827Y-49882D01*
X44958Y-50276D01*
X45277Y-50276D02*
X45089Y-50276D01*
X45089Y-49882D01*
X45464Y-49882D02*
X45464Y-49976D01*
X45371Y-49939D02*
X45464Y-49976D01*
X45558Y-49939D01*
X45408Y-50051D02*
X45464Y-49976D01*
X45521Y-50051D01*
X45764Y-49882D02*
X45764Y-49976D01*
X45671Y-49939D02*
X45764Y-49976D01*
X45858Y-49939D01*
X45708Y-50051D02*
X45764Y-49976D01*
X45821Y-50051D01*
X14317Y-48374D02*
X14317Y-47980D01*
X14317Y-48167D02*
X14542Y-48167D01*
X14542Y-48374D02*
X14542Y-47980D01*
X14786Y-48374D02*
X14749Y-48355D01*
X14730Y-48336D01*
X14711Y-48299D01*
X14711Y-48186D01*
X14730Y-48149D01*
X14749Y-48130D01*
X14786Y-48111D01*
X14842Y-48111D01*
X14880Y-48130D01*
X14899Y-48149D01*
X14917Y-48186D01*
X14917Y-48299D01*
X14899Y-48336D01*
X14880Y-48355D01*
X14842Y-48374D01*
X14786Y-48374D01*
X15142Y-48374D02*
X15105Y-48355D01*
X15086Y-48317D01*
X15086Y-47980D01*
X15442Y-48355D02*
X15405Y-48374D01*
X15330Y-48374D01*
X15292Y-48355D01*
X15274Y-48317D01*
X15274Y-48167D01*
X15292Y-48130D01*
X15330Y-48111D01*
X15405Y-48111D01*
X15442Y-48130D01*
X15461Y-48167D01*
X15461Y-48205D01*
X15274Y-48242D01*
X14239Y-50008D02*
X14370Y-50401D01*
X14501Y-50008D01*
X14614Y-50289D02*
X14801Y-50289D01*
X14576Y-50401D02*
X14707Y-50008D01*
X14839Y-50401D01*
X15157Y-50401D02*
X14970Y-50401D01*
X14970Y-50008D01*
X15345Y-50008D02*
X15345Y-50101D01*
X15251Y-50064D02*
X15345Y-50101D01*
X15438Y-50064D01*
X15289Y-50176D02*
X15345Y-50101D01*
X15401Y-50176D01*
X15645Y-50008D02*
X15645Y-50101D01*
X15551Y-50064D02*
X15645Y-50101D01*
X15738Y-50064D01*
X15588Y-50176D02*
X15645Y-50101D01*
X15701Y-50176D01*
M02*
