G04 (created by PCBNEW (2013-08-24 BZR 4298)-stable) date Thu 21 Nov 2013 10:15:51 PM PST*
%MOIN*%
G04 Gerber Fmt 3.4, Leading zero omitted, Abs format*
%FSLAX34Y34*%
G01*
G70*
G90*
G04 APERTURE LIST*
%ADD10C,0.005906*%
%ADD11C,0.062992*%
%ADD12C,0.027559*%
%ADD13C,0.011811*%
G04 APERTURE END LIST*
G54D10*
G54D11*
X54610Y-37606D03*
X55610Y-37606D03*
X54610Y-40606D03*
X55610Y-39606D03*
X55610Y-38606D03*
X54610Y-38606D03*
X54610Y-39606D03*
X54610Y-41606D03*
X55610Y-40606D03*
X55610Y-41606D03*
X55610Y-42606D03*
X55610Y-46606D03*
X55610Y-45606D03*
X55610Y-44606D03*
X55610Y-43606D03*
X54610Y-42606D03*
X54610Y-43606D03*
X54610Y-44606D03*
X54610Y-45606D03*
X54610Y-46606D03*
G54D12*
X50818Y-37641D03*
X56653Y-46515D03*
X56669Y-37598D03*
X51106Y-45661D03*
X56669Y-45539D03*
X56649Y-39629D03*
X50940Y-40629D03*
X56649Y-38618D03*
X50858Y-39641D03*
X50858Y-38740D03*
X56594Y-44535D03*
X51118Y-44641D03*
X56570Y-43511D03*
X51090Y-43570D03*
X56570Y-42578D03*
X51011Y-42641D03*
X56610Y-41570D03*
X51011Y-41618D03*
X56618Y-40551D03*
X51208Y-46590D03*
G54D13*
X54610Y-37606D02*
X53846Y-37606D01*
X51311Y-37149D02*
X50818Y-37641D01*
X53389Y-37149D02*
X51311Y-37149D01*
X53846Y-37606D02*
X53389Y-37149D01*
X56562Y-46606D02*
X55610Y-46606D01*
X56653Y-46515D02*
X56562Y-46606D01*
X56661Y-37606D02*
X55610Y-37606D01*
X56669Y-37598D02*
X56661Y-37606D01*
X54610Y-45606D02*
X54547Y-45606D01*
X51677Y-45090D02*
X51106Y-45661D01*
X54031Y-45090D02*
X51677Y-45090D01*
X54547Y-45606D02*
X54031Y-45090D01*
X56602Y-45606D02*
X55610Y-45606D01*
X56669Y-45539D02*
X56602Y-45606D01*
X56625Y-39606D02*
X55610Y-39606D01*
X56649Y-39629D02*
X56625Y-39606D01*
X54610Y-40606D02*
X54267Y-40606D01*
X51440Y-40129D02*
X50940Y-40629D01*
X53791Y-40129D02*
X51440Y-40129D01*
X54267Y-40606D02*
X53791Y-40129D01*
X56637Y-38606D02*
X55610Y-38606D01*
X56649Y-38618D02*
X56637Y-38606D01*
X54610Y-39606D02*
X54125Y-39606D01*
X51338Y-39161D02*
X50858Y-39641D01*
X53681Y-39161D02*
X51338Y-39161D01*
X54125Y-39606D02*
X53681Y-39161D01*
X54610Y-38606D02*
X54094Y-38606D01*
X51437Y-38161D02*
X50858Y-38740D01*
X53649Y-38161D02*
X51437Y-38161D01*
X54094Y-38606D02*
X53649Y-38161D01*
X56523Y-44606D02*
X55610Y-44606D01*
X56594Y-44535D02*
X56523Y-44606D01*
X54610Y-44606D02*
X54389Y-44606D01*
X51614Y-44145D02*
X51118Y-44641D01*
X53929Y-44145D02*
X51614Y-44145D01*
X54389Y-44606D02*
X53929Y-44145D01*
X56476Y-43606D02*
X55610Y-43606D01*
X56570Y-43511D02*
X56476Y-43606D01*
X54610Y-43606D02*
X54366Y-43606D01*
X51500Y-43161D02*
X51090Y-43570D01*
X53921Y-43161D02*
X51500Y-43161D01*
X54366Y-43606D02*
X53921Y-43161D01*
X56543Y-42606D02*
X55610Y-42606D01*
X56570Y-42578D02*
X56543Y-42606D01*
X54610Y-42606D02*
X54354Y-42606D01*
X51511Y-42141D02*
X51011Y-42641D01*
X53889Y-42141D02*
X51511Y-42141D01*
X54354Y-42606D02*
X53889Y-42141D01*
X56574Y-41606D02*
X55610Y-41606D01*
X56610Y-41570D02*
X56574Y-41606D01*
X54610Y-41606D02*
X54338Y-41606D01*
X51460Y-41169D02*
X51011Y-41618D01*
X53901Y-41169D02*
X51460Y-41169D01*
X54338Y-41606D02*
X53901Y-41169D01*
X56562Y-40606D02*
X55610Y-40606D01*
X56618Y-40551D02*
X56562Y-40606D01*
X54610Y-46606D02*
X54133Y-46606D01*
X51645Y-46153D02*
X51208Y-46590D01*
X53681Y-46153D02*
X51645Y-46153D01*
X54133Y-46606D02*
X53681Y-46153D01*
M02*
