  0
SECTION
  2
HEADER
  9
$ANGBASE
  50
0.0
  9
$ANGDIR
  70
  1
  9
$MEASUREMENT
  70
0
  0
ENDSEC
  0
SECTION
  2
TABLES
  0
TABLE
  2
LTYPE
  70
1
  0
LTYPE
  2
CONTINUOUS
  70
0
  3
Solid line
  72
65
  73
0
  40
0.0
  0
ENDTAB
  0
TABLE
  2
STYLE
  70
4
  0
STYLE
  2
KICAD
  70
0
  40
0
  41
1
  42
1
  50
0
  71
0
  3
isocp.shx
  0
STYLE
  2
KICADB
  70
0
  40
0
  41
1
  42
1
  50
0
  71
0
  3
isocp.shx
  0
STYLE
  2
KICADI
  70
0
  40
0
  41
1
  42
1
  50
15
  71
0
  3
isocp.shx
  0
STYLE
  2
KICADBI
  70
0
  40
0
  41
1
  42
1
  50
15
  71
0
  3
isocp.shx
  0
ENDTAB
  0
TABLE
  2
LAYER
  70
30
  0
LAYER
  2
BLACK
  70
0
  62
7
  6
CONTINUOUS
  0
LAYER
  2
GRAY1
  70
0
  62
251
  6
CONTINUOUS
  0
LAYER
  2
GRAY2
  70
0
  62
8
  6
CONTINUOUS
  0
LAYER
  2
GRAY3
  70
0
  62
9
  6
CONTINUOUS
  0
LAYER
  2
WHITE
  70
0
  62
7
  6
CONTINUOUS
  0
LAYER
  2
LYELLOW
  70
0
  62
51
  6
CONTINUOUS
  0
LAYER
  2
BLUE1
  70
0
  62
178
  6
CONTINUOUS
  0
LAYER
  2
GREEN1
  70
0
  62
98
  6
CONTINUOUS
  0
LAYER
  2
CYAN1
  70
0
  62
138
  6
CONTINUOUS
  0
LAYER
  2
RED1
  70
0
  62
18
  6
CONTINUOUS
  0
LAYER
  2
MAGENTA1
  70
0
  62
228
  6
CONTINUOUS
  0
LAYER
  2
BROWN1
  70
0
  62
58
  6
CONTINUOUS
  0
LAYER
  2
BLUE2
  70
0
  62
5
  6
CONTINUOUS
  0
LAYER
  2
GREEN2
  70
0
  62
3
  6
CONTINUOUS
  0
LAYER
  2
CYAN2
  70
0
  62
4
  6
CONTINUOUS
  0
LAYER
  2
RED2
  70
0
  62
1
  6
CONTINUOUS
  0
LAYER
  2
MAGENTA2
  70
0
  62
6
  6
CONTINUOUS
  0
LAYER
  2
BROWN2
  70
0
  62
54
  6
CONTINUOUS
  0
LAYER
  2
BLUE3
  70
0
  62
171
  6
CONTINUOUS
  0
LAYER
  2
GREEN3
  70
0
  62
91
  6
CONTINUOUS
  0
LAYER
  2
CYAN3
  70
0
  62
131
  6
CONTINUOUS
  0
LAYER
  2
RED3
  70
0
  62
11
  6
CONTINUOUS
  0
LAYER
  2
MAGENTA3
  70
0
  62
221
  6
CONTINUOUS
  0
LAYER
  2
YELLOW3
  70
0
  62
2
  6
CONTINUOUS
  0
LAYER
  2
BLUE4
  70
0
  62
5
  6
CONTINUOUS
  0
LAYER
  2
GREEN4
  70
0
  62
3
  6
CONTINUOUS
  0
LAYER
  2
CYAN4
  70
0
  62
4
  6
CONTINUOUS
  0
LAYER
  2
RED4
  70
0
  62
1
  6
CONTINUOUS
  0
LAYER
  2
MAGENTA4
  70
0
  62
6
  6
CONTINUOUS
  0
LAYER
  2
YELLOW4
  70
0
  62
2
  6
CONTINUOUS
  0
ENDTAB
  0
ENDSEC
  0
SECTION
  2
ENTITIES
0
LINE
8
Black
10
78.225
20
-61.5749
11
81.025
21
-61.5749
0
LINE
8
Black
10
78.225
20
-61.4251
11
81.025
21
-61.4251
0
ARC
8
Black
10
81.025
20
-61.5
40
0.07493
50
270
51
450
0
ARC
8
Black
10
78.225
20
-61.5
40
0.07493
50
90
51
270
0
LINE
8
Black
10
78.0999
20
-64.5
11
78.0999
21
-61.7
0
LINE
8
Black
10
77.9501
20
-64.5
11
77.9501
21
-61.7
0
ARC
8
Black
10
78.025
20
-61.7
40
0.07493
50
360
51
540
0
ARC
8
Black
10
78.025
20
-64.5
40
0.07493
50
180
51
360
0
LINE
8
Black
10
78.172
20
-61.447
11
77.972
21
-61.647
0
LINE
8
Black
10
78.278
20
-61.553
11
78.078
21
-61.753
0
ARC
8
Black
10
78.025
20
-61.7
40
0.07493
50
495
51
675
0
ARC
8
Black
10
78.225
20
-61.5
40
0.07493
50
315
51
495
0
LINE
8
Black
10
78.025
20
-64.5749
11
81.025
21
-64.5749
0
LINE
8
Black
10
78.025
20
-64.4251
11
81.025
21
-64.4251
0
ARC
8
Black
10
81.025
20
-64.5
40
0.07493
50
270
51
450
0
ARC
8
Black
10
78.025
20
-64.5
40
0.07493
50
90
51
270
0
LINE
8
Black
10
81.0999
20
-64.5
11
81.0999
21
-61.5
0
LINE
8
Black
10
80.9501
20
-64.5
11
80.9501
21
-61.5
0
ARC
8
Black
10
81.025
20
-61.5
40
0.07493
50
360
51
540
0
ARC
8
Black
10
81.025
20
-64.5
40
0.07493
50
180
51
360
0
LINE
8
Black
10
73.395
20
-38.087
11
86.605
21
-38.087
0
LINE
8
Black
10
73.395
20
-37.833
11
86.605
21
-37.833
0
ARC
8
Black
10
86.605
20
-37.96
40
0.127
50
270
51
450
0
ARC
8
Black
10
73.395
20
-37.96
40
0.127
50
90
51
270
0
LINE
8
Black
10
86.732
20
-53.04
11
86.732
21
-37.96
0
LINE
8
Black
10
86.478
20
-53.04
11
86.478
21
-37.96
0
ARC
8
Black
10
86.605
20
-37.96
40
0.127
50
360
51
540
0
ARC
8
Black
10
86.605
20
-53.04
40
0.127
50
180
51
360
0
LINE
8
Black
10
73.395
20
-53.167
11
86.605
21
-53.167
0
LINE
8
Black
10
73.395
20
-52.913
11
86.605
21
-52.913
0
ARC
8
Black
10
86.605
20
-53.04
40
0.127
50
270
51
450
0
ARC
8
Black
10
73.395
20
-53.04
40
0.127
50
90
51
270
0
LINE
8
Black
10
73.522
20
-53.04
11
73.522
21
-37.96
0
LINE
8
Black
10
73.268
20
-53.04
11
73.268
21
-37.96
0
ARC
8
Black
10
73.395
20
-37.96
40
0.127
50
360
51
540
0
ARC
8
Black
10
73.395
20
-53.04
40
0.127
50
180
51
360
0
LINE
8
Black
10
75.1936
20
-64.1223
11
76.0064
21
-64.1223
0
LINE
8
Black
10
75.1936
20
-63.9953
11
76.0064
21
-63.9953
0
ARC
8
Black
10
76.0064
20
-64.0588
40
0.0635
50
270
51
450
0
ARC
8
Black
10
75.1936
20
-64.0588
40
0.0635
50
90
51
270
0
LINE
8
Black
10
75.1936
20
-63.0047
11
75.981
21
-63.0047
0
LINE
8
Black
10
75.1936
20
-62.8777
11
75.981
21
-62.8777
0
ARC
8
Black
10
75.981
20
-62.9412
40
0.0635
50
270
51
450
0
ARC
8
Black
10
75.1936
20
-62.9412
40
0.0635
50
90
51
270
0
LINE
8
Black
10
76.0699
20
-64.3128
11
76.0699
21
-62.6872
0
LINE
8
Black
10
75.9429
20
-64.3128
11
75.9429
21
-62.6872
0
ARC
8
Black
10
76.0064
20
-62.6872
40
0.0635
50
360
51
540
0
ARC
8
Black
10
76.0064
20
-64.3128
40
0.0635
50
180
51
360
0
LINE
8
Black
10
75.1936
20
-64.3763
11
76.0064
21
-64.3763
0
LINE
8
Black
10
75.1936
20
-64.2493
11
76.0064
21
-64.2493
0
ARC
8
Black
10
76.0064
20
-64.3128
40
0.0635
50
270
51
450
0
ARC
8
Black
10
75.1936
20
-64.3128
40
0.0635
50
90
51
270
0
LINE
8
Black
10
75.2571
20
-64.3128
11
75.2571
21
-62.6872
0
LINE
8
Black
10
75.1301
20
-64.3128
11
75.1301
21
-62.6872
0
ARC
8
Black
10
75.1936
20
-62.6872
40
0.0635
50
360
51
540
0
ARC
8
Black
10
75.1936
20
-64.3128
40
0.0635
50
180
51
360
0
LINE
8
Black
10
75.1936
20
-62.7507
11
76.0064
21
-62.7507
0
LINE
8
Black
10
75.1936
20
-62.6237
11
76.0064
21
-62.6237
0
ARC
8
Black
10
76.0064
20
-62.6872
40
0.0635
50
270
51
450
0
ARC
8
Black
10
75.1936
20
-62.6872
40
0.0635
50
90
51
270
0
LINE
8
Black
10
75.5936
20
-60.6223
11
76.4064
21
-60.6223
0
LINE
8
Black
10
75.5936
20
-60.4953
11
76.4064
21
-60.4953
0
ARC
8
Black
10
76.4064
20
-60.5588
40
0.0635
50
270
51
450
0
ARC
8
Black
10
75.5936
20
-60.5588
40
0.0635
50
90
51
270
0
LINE
8
Black
10
75.5936
20
-59.5047
11
76.381
21
-59.5047
0
LINE
8
Black
10
75.5936
20
-59.3777
11
76.381
21
-59.3777
0
ARC
8
Black
10
76.381
20
-59.4412
40
0.0635
50
270
51
450
0
ARC
8
Black
10
75.5936
20
-59.4412
40
0.0635
50
90
51
270
0
LINE
8
Black
10
76.4699
20
-60.8128
11
76.4699
21
-59.1872
0
LINE
8
Black
10
76.3429
20
-60.8128
11
76.3429
21
-59.1872
0
ARC
8
Black
10
76.4064
20
-59.1872
40
0.0635
50
360
51
540
0
ARC
8
Black
10
76.4064
20
-60.8128
40
0.0635
50
180
51
360
0
LINE
8
Black
10
75.5936
20
-60.8763
11
76.4064
21
-60.8763
0
LINE
8
Black
10
75.5936
20
-60.7493
11
76.4064
21
-60.7493
0
ARC
8
Black
10
76.4064
20
-60.8128
40
0.0635
50
270
51
450
0
ARC
8
Black
10
75.5936
20
-60.8128
40
0.0635
50
90
51
270
0
LINE
8
Black
10
75.6571
20
-60.8128
11
75.6571
21
-59.1872
0
LINE
8
Black
10
75.5301
20
-60.8128
11
75.5301
21
-59.1872
0
ARC
8
Black
10
75.5936
20
-59.1872
40
0.0635
50
360
51
540
0
ARC
8
Black
10
75.5936
20
-60.8128
40
0.0635
50
180
51
360
0
LINE
8
Black
10
75.5936
20
-59.2507
11
76.4064
21
-59.2507
0
LINE
8
Black
10
75.5936
20
-59.1237
11
76.4064
21
-59.1237
0
ARC
8
Black
10
76.4064
20
-59.1872
40
0.0635
50
270
51
450
0
ARC
8
Black
10
75.5936
20
-59.1872
40
0.0635
50
90
51
270
0
LINE
8
Black
10
73.5936
20
-60.6223
11
74.4064
21
-60.6223
0
LINE
8
Black
10
73.5936
20
-60.4953
11
74.4064
21
-60.4953
0
ARC
8
Black
10
74.4064
20
-60.5588
40
0.0635
50
270
51
450
0
ARC
8
Black
10
73.5936
20
-60.5588
40
0.0635
50
90
51
270
0
LINE
8
Black
10
73.5936
20
-59.5047
11
74.381
21
-59.5047
0
LINE
8
Black
10
73.5936
20
-59.3777
11
74.381
21
-59.3777
0
ARC
8
Black
10
74.381
20
-59.4412
40
0.0635
50
270
51
450
0
ARC
8
Black
10
73.5936
20
-59.4412
40
0.0635
50
90
51
270
0
LINE
8
Black
10
74.4699
20
-60.8128
11
74.4699
21
-59.1872
0
LINE
8
Black
10
74.3429
20
-60.8128
11
74.3429
21
-59.1872
0
ARC
8
Black
10
74.4064
20
-59.1872
40
0.0635
50
360
51
540
0
ARC
8
Black
10
74.4064
20
-60.8128
40
0.0635
50
180
51
360
0
LINE
8
Black
10
73.5936
20
-60.8763
11
74.4064
21
-60.8763
0
LINE
8
Black
10
73.5936
20
-60.7493
11
74.4064
21
-60.7493
0
ARC
8
Black
10
74.4064
20
-60.8128
40
0.0635
50
270
51
450
0
ARC
8
Black
10
73.5936
20
-60.8128
40
0.0635
50
90
51
270
0
LINE
8
Black
10
73.6571
20
-60.8128
11
73.6571
21
-59.1872
0
LINE
8
Black
10
73.5301
20
-60.8128
11
73.5301
21
-59.1872
0
ARC
8
Black
10
73.5936
20
-59.1872
40
0.0635
50
360
51
540
0
ARC
8
Black
10
73.5936
20
-60.8128
40
0.0635
50
180
51
360
0
LINE
8
Black
10
73.5936
20
-59.2507
11
74.4064
21
-59.2507
0
LINE
8
Black
10
73.5936
20
-59.1237
11
74.4064
21
-59.1237
0
ARC
8
Black
10
74.4064
20
-59.1872
40
0.0635
50
270
51
450
0
ARC
8
Black
10
73.5936
20
-59.1872
40
0.0635
50
90
51
270
0
LINE
8
Black
10
57.5936
20
-60.6223
11
58.4064
21
-60.6223
0
LINE
8
Black
10
57.5936
20
-60.4953
11
58.4064
21
-60.4953
0
ARC
8
Black
10
58.4064
20
-60.5588
40
0.0635
50
270
51
450
0
ARC
8
Black
10
57.5936
20
-60.5588
40
0.0635
50
90
51
270
0
LINE
8
Black
10
57.5936
20
-59.5047
11
58.381
21
-59.5047
0
LINE
8
Black
10
57.5936
20
-59.3777
11
58.381
21
-59.3777
0
ARC
8
Black
10
58.381
20
-59.4412
40
0.0635
50
270
51
450
0
ARC
8
Black
10
57.5936
20
-59.4412
40
0.0635
50
90
51
270
0
LINE
8
Black
10
58.4699
20
-60.8128
11
58.4699
21
-59.1872
0
LINE
8
Black
10
58.3429
20
-60.8128
11
58.3429
21
-59.1872
0
ARC
8
Black
10
58.4064
20
-59.1872
40
0.0635
50
360
51
540
0
ARC
8
Black
10
58.4064
20
-60.8128
40
0.0635
50
180
51
360
0
LINE
8
Black
10
57.5936
20
-60.8763
11
58.4064
21
-60.8763
0
LINE
8
Black
10
57.5936
20
-60.7493
11
58.4064
21
-60.7493
0
ARC
8
Black
10
58.4064
20
-60.8128
40
0.0635
50
270
51
450
0
ARC
8
Black
10
57.5936
20
-60.8128
40
0.0635
50
90
51
270
0
LINE
8
Black
10
57.6571
20
-60.8128
11
57.6571
21
-59.1872
0
LINE
8
Black
10
57.5301
20
-60.8128
11
57.5301
21
-59.1872
0
ARC
8
Black
10
57.5936
20
-59.1872
40
0.0635
50
360
51
540
0
ARC
8
Black
10
57.5936
20
-60.8128
40
0.0635
50
180
51
360
0
LINE
8
Black
10
57.5936
20
-59.2507
11
58.4064
21
-59.2507
0
LINE
8
Black
10
57.5936
20
-59.1237
11
58.4064
21
-59.1237
0
ARC
8
Black
10
58.4064
20
-59.1872
40
0.0635
50
270
51
450
0
ARC
8
Black
10
57.5936
20
-59.1872
40
0.0635
50
90
51
270
0
LINE
8
Black
10
59.5936
20
-60.6223
11
60.4064
21
-60.6223
0
LINE
8
Black
10
59.5936
20
-60.4953
11
60.4064
21
-60.4953
0
ARC
8
Black
10
60.4064
20
-60.5588
40
0.0635
50
270
51
450
0
ARC
8
Black
10
59.5936
20
-60.5588
40
0.0635
50
90
51
270
0
LINE
8
Black
10
59.5936
20
-59.5047
11
60.381
21
-59.5047
0
LINE
8
Black
10
59.5936
20
-59.3777
11
60.381
21
-59.3777
0
ARC
8
Black
10
60.381
20
-59.4412
40
0.0635
50
270
51
450
0
ARC
8
Black
10
59.5936
20
-59.4412
40
0.0635
50
90
51
270
0
LINE
8
Black
10
60.4699
20
-60.8128
11
60.4699
21
-59.1872
0
LINE
8
Black
10
60.3429
20
-60.8128
11
60.3429
21
-59.1872
0
ARC
8
Black
10
60.4064
20
-59.1872
40
0.0635
50
360
51
540
0
ARC
8
Black
10
60.4064
20
-60.8128
40
0.0635
50
180
51
360
0
LINE
8
Black
10
59.5936
20
-60.8763
11
60.4064
21
-60.8763
0
LINE
8
Black
10
59.5936
20
-60.7493
11
60.4064
21
-60.7493
0
ARC
8
Black
10
60.4064
20
-60.8128
40
0.0635
50
270
51
450
0
ARC
8
Black
10
59.5936
20
-60.8128
40
0.0635
50
90
51
270
0
LINE
8
Black
10
59.6571
20
-60.8128
11
59.6571
21
-59.1872
0
LINE
8
Black
10
59.5301
20
-60.8128
11
59.5301
21
-59.1872
0
ARC
8
Black
10
59.5936
20
-59.1872
40
0.0635
50
360
51
540
0
ARC
8
Black
10
59.5936
20
-60.8128
40
0.0635
50
180
51
360
0
LINE
8
Black
10
59.5936
20
-59.2507
11
60.4064
21
-59.2507
0
LINE
8
Black
10
59.5936
20
-59.1237
11
60.4064
21
-59.1237
0
ARC
8
Black
10
60.4064
20
-59.1872
40
0.0635
50
270
51
450
0
ARC
8
Black
10
59.5936
20
-59.1872
40
0.0635
50
90
51
270
0
LINE
8
Black
10
59.1936
20
-64.1223
11
60.0064
21
-64.1223
0
LINE
8
Black
10
59.1936
20
-63.9953
11
60.0064
21
-63.9953
0
ARC
8
Black
10
60.0064
20
-64.0588
40
0.0635
50
270
51
450
0
ARC
8
Black
10
59.1936
20
-64.0588
40
0.0635
50
90
51
270
0
LINE
8
Black
10
59.1936
20
-63.0047
11
59.981
21
-63.0047
0
LINE
8
Black
10
59.1936
20
-62.8777
11
59.981
21
-62.8777
0
ARC
8
Black
10
59.981
20
-62.9412
40
0.0635
50
270
51
450
0
ARC
8
Black
10
59.1936
20
-62.9412
40
0.0635
50
90
51
270
0
LINE
8
Black
10
60.0699
20
-64.3128
11
60.0699
21
-62.6872
0
LINE
8
Black
10
59.9429
20
-64.3128
11
59.9429
21
-62.6872
0
ARC
8
Black
10
60.0064
20
-62.6872
40
0.0635
50
360
51
540
0
ARC
8
Black
10
60.0064
20
-64.3128
40
0.0635
50
180
51
360
0
LINE
8
Black
10
59.1936
20
-64.3763
11
60.0064
21
-64.3763
0
LINE
8
Black
10
59.1936
20
-64.2493
11
60.0064
21
-64.2493
0
ARC
8
Black
10
60.0064
20
-64.3128
40
0.0635
50
270
51
450
0
ARC
8
Black
10
59.1936
20
-64.3128
40
0.0635
50
90
51
270
0
LINE
8
Black
10
59.2571
20
-64.3128
11
59.2571
21
-62.6872
0
LINE
8
Black
10
59.1301
20
-64.3128
11
59.1301
21
-62.6872
0
ARC
8
Black
10
59.1936
20
-62.6872
40
0.0635
50
360
51
540
0
ARC
8
Black
10
59.1936
20
-64.3128
40
0.0635
50
180
51
360
0
LINE
8
Black
10
59.1936
20
-62.7507
11
60.0064
21
-62.7507
0
LINE
8
Black
10
59.1936
20
-62.6237
11
60.0064
21
-62.6237
0
ARC
8
Black
10
60.0064
20
-62.6872
40
0.0635
50
270
51
450
0
ARC
8
Black
10
59.1936
20
-62.6872
40
0.0635
50
90
51
270
0
LINE
8
Black
10
57.395
20
-38.087
11
70.605
21
-38.087
0
LINE
8
Black
10
57.395
20
-37.833
11
70.605
21
-37.833
0
ARC
8
Black
10
70.605
20
-37.96
40
0.127
50
270
51
450
0
ARC
8
Black
10
57.395
20
-37.96
40
0.127
50
90
51
270
0
LINE
8
Black
10
70.732
20
-53.04
11
70.732
21
-37.96
0
LINE
8
Black
10
70.478
20
-53.04
11
70.478
21
-37.96
0
ARC
8
Black
10
70.605
20
-37.96
40
0.127
50
360
51
540
0
ARC
8
Black
10
70.605
20
-53.04
40
0.127
50
180
51
360
0
LINE
8
Black
10
57.395
20
-53.167
11
70.605
21
-53.167
0
LINE
8
Black
10
57.395
20
-52.913
11
70.605
21
-52.913
0
ARC
8
Black
10
70.605
20
-53.04
40
0.127
50
270
51
450
0
ARC
8
Black
10
57.395
20
-53.04
40
0.127
50
90
51
270
0
LINE
8
Black
10
57.522
20
-53.04
11
57.522
21
-37.96
0
LINE
8
Black
10
57.268
20
-53.04
11
57.268
21
-37.96
0
ARC
8
Black
10
57.395
20
-37.96
40
0.127
50
360
51
540
0
ARC
8
Black
10
57.395
20
-53.04
40
0.127
50
180
51
360
0
LINE
8
Black
10
62.225
20
-61.5749
11
65.025
21
-61.5749
0
LINE
8
Black
10
62.225
20
-61.4251
11
65.025
21
-61.4251
0
ARC
8
Black
10
65.025
20
-61.5
40
0.07493
50
270
51
450
0
ARC
8
Black
10
62.225
20
-61.5
40
0.07493
50
90
51
270
0
LINE
8
Black
10
62.0999
20
-64.5
11
62.0999
21
-61.7
0
LINE
8
Black
10
61.9501
20
-64.5
11
61.9501
21
-61.7
0
ARC
8
Black
10
62.025
20
-61.7
40
0.07493
50
360
51
540
0
ARC
8
Black
10
62.025
20
-64.5
40
0.07493
50
180
51
360
0
LINE
8
Black
10
62.172
20
-61.447
11
61.972
21
-61.647
0
LINE
8
Black
10
62.278
20
-61.553
11
62.078
21
-61.753
0
ARC
8
Black
10
62.025
20
-61.7
40
0.07493
50
495
51
675
0
ARC
8
Black
10
62.225
20
-61.5
40
0.07493
50
315
51
495
0
LINE
8
Black
10
62.025
20
-64.5749
11
65.025
21
-64.5749
0
LINE
8
Black
10
62.025
20
-64.4251
11
65.025
21
-64.4251
0
ARC
8
Black
10
65.025
20
-64.5
40
0.07493
50
270
51
450
0
ARC
8
Black
10
62.025
20
-64.5
40
0.07493
50
90
51
270
0
LINE
8
Black
10
65.0999
20
-64.5
11
65.0999
21
-61.5
0
LINE
8
Black
10
64.9501
20
-64.5
11
64.9501
21
-61.5
0
ARC
8
Black
10
65.025
20
-61.5
40
0.07493
50
360
51
540
0
ARC
8
Black
10
65.025
20
-64.5
40
0.07493
50
180
51
360
0
LINE
8
Black
10
60.0936
20
-82.9223
11
60.9064
21
-82.9223
0
LINE
8
Black
10
60.0936
20
-82.7953
11
60.9064
21
-82.7953
0
ARC
8
Black
10
60.9064
20
-82.8588
40
0.0635
50
270
51
450
0
ARC
8
Black
10
60.0936
20
-82.8588
40
0.0635
50
90
51
270
0
LINE
8
Black
10
60.0936
20
-81.8047
11
60.881
21
-81.8047
0
LINE
8
Black
10
60.0936
20
-81.6777
11
60.881
21
-81.6777
0
ARC
8
Black
10
60.881
20
-81.7412
40
0.0635
50
270
51
450
0
ARC
8
Black
10
60.0936
20
-81.7412
40
0.0635
50
90
51
270
0
LINE
8
Black
10
60.9699
20
-83.1128
11
60.9699
21
-81.4872
0
LINE
8
Black
10
60.8429
20
-83.1128
11
60.8429
21
-81.4872
0
ARC
8
Black
10
60.9064
20
-81.4872
40
0.0635
50
360
51
540
0
ARC
8
Black
10
60.9064
20
-83.1128
40
0.0635
50
180
51
360
0
LINE
8
Black
10
60.0936
20
-83.1763
11
60.9064
21
-83.1763
0
LINE
8
Black
10
60.0936
20
-83.0493
11
60.9064
21
-83.0493
0
ARC
8
Black
10
60.9064
20
-83.1128
40
0.0635
50
270
51
450
0
ARC
8
Black
10
60.0936
20
-83.1128
40
0.0635
50
90
51
270
0
LINE
8
Black
10
60.1571
20
-83.1128
11
60.1571
21
-81.4872
0
LINE
8
Black
10
60.0301
20
-83.1128
11
60.0301
21
-81.4872
0
ARC
8
Black
10
60.0936
20
-81.4872
40
0.0635
50
360
51
540
0
ARC
8
Black
10
60.0936
20
-83.1128
40
0.0635
50
180
51
360
0
LINE
8
Black
10
60.0936
20
-81.5507
11
60.9064
21
-81.5507
0
LINE
8
Black
10
60.0936
20
-81.4237
11
60.9064
21
-81.4237
0
ARC
8
Black
10
60.9064
20
-81.4872
40
0.0635
50
270
51
450
0
ARC
8
Black
10
60.0936
20
-81.4872
40
0.0635
50
90
51
270
0
LINE
8
Black
10
61.8936
20
-82.9223
11
62.7064
21
-82.9223
0
LINE
8
Black
10
61.8936
20
-82.7953
11
62.7064
21
-82.7953
0
ARC
8
Black
10
62.7064
20
-82.8588
40
0.0635
50
270
51
450
0
ARC
8
Black
10
61.8936
20
-82.8588
40
0.0635
50
90
51
270
0
LINE
8
Black
10
61.8936
20
-81.8047
11
62.681
21
-81.8047
0
LINE
8
Black
10
61.8936
20
-81.6777
11
62.681
21
-81.6777
0
ARC
8
Black
10
62.681
20
-81.7412
40
0.0635
50
270
51
450
0
ARC
8
Black
10
61.8936
20
-81.7412
40
0.0635
50
90
51
270
0
LINE
8
Black
10
62.7699
20
-83.1128
11
62.7699
21
-81.4872
0
LINE
8
Black
10
62.6429
20
-83.1128
11
62.6429
21
-81.4872
0
ARC
8
Black
10
62.7064
20
-81.4872
40
0.0635
50
360
51
540
0
ARC
8
Black
10
62.7064
20
-83.1128
40
0.0635
50
180
51
360
0
LINE
8
Black
10
61.8936
20
-83.1763
11
62.7064
21
-83.1763
0
LINE
8
Black
10
61.8936
20
-83.0493
11
62.7064
21
-83.0493
0
ARC
8
Black
10
62.7064
20
-83.1128
40
0.0635
50
270
51
450
0
ARC
8
Black
10
61.8936
20
-83.1128
40
0.0635
50
90
51
270
0
LINE
8
Black
10
61.9571
20
-83.1128
11
61.9571
21
-81.4872
0
LINE
8
Black
10
61.8301
20
-83.1128
11
61.8301
21
-81.4872
0
ARC
8
Black
10
61.8936
20
-81.4872
40
0.0635
50
360
51
540
0
ARC
8
Black
10
61.8936
20
-83.1128
40
0.0635
50
180
51
360
0
LINE
8
Black
10
61.8936
20
-81.5507
11
62.7064
21
-81.5507
0
LINE
8
Black
10
61.8936
20
-81.4237
11
62.7064
21
-81.4237
0
ARC
8
Black
10
62.7064
20
-81.4872
40
0.0635
50
270
51
450
0
ARC
8
Black
10
61.8936
20
-81.4872
40
0.0635
50
90
51
270
0
LINE
8
Black
10
57.1936
20
-88.1223
11
58.0064
21
-88.1223
0
LINE
8
Black
10
57.1936
20
-87.9953
11
58.0064
21
-87.9953
0
ARC
8
Black
10
58.0064
20
-88.0588
40
0.0635
50
270
51
450
0
ARC
8
Black
10
57.1936
20
-88.0588
40
0.0635
50
90
51
270
0
LINE
8
Black
10
57.1936
20
-87.0047
11
57.981
21
-87.0047
0
LINE
8
Black
10
57.1936
20
-86.8777
11
57.981
21
-86.8777
0
ARC
8
Black
10
57.981
20
-86.9412
40
0.0635
50
270
51
450
0
ARC
8
Black
10
57.1936
20
-86.9412
40
0.0635
50
90
51
270
0
LINE
8
Black
10
58.0699
20
-88.3128
11
58.0699
21
-86.6872
0
LINE
8
Black
10
57.9429
20
-88.3128
11
57.9429
21
-86.6872
0
ARC
8
Black
10
58.0064
20
-86.6872
40
0.0635
50
360
51
540
0
ARC
8
Black
10
58.0064
20
-88.3128
40
0.0635
50
180
51
360
0
LINE
8
Black
10
57.1936
20
-88.3763
11
58.0064
21
-88.3763
0
LINE
8
Black
10
57.1936
20
-88.2493
11
58.0064
21
-88.2493
0
ARC
8
Black
10
58.0064
20
-88.3128
40
0.0635
50
270
51
450
0
ARC
8
Black
10
57.1936
20
-88.3128
40
0.0635
50
90
51
270
0
LINE
8
Black
10
57.2571
20
-88.3128
11
57.2571
21
-86.6872
0
LINE
8
Black
10
57.1301
20
-88.3128
11
57.1301
21
-86.6872
0
ARC
8
Black
10
57.1936
20
-86.6872
40
0.0635
50
360
51
540
0
ARC
8
Black
10
57.1936
20
-88.3128
40
0.0635
50
180
51
360
0
LINE
8
Black
10
57.1936
20
-86.7507
11
58.0064
21
-86.7507
0
LINE
8
Black
10
57.1936
20
-86.6237
11
58.0064
21
-86.6237
0
ARC
8
Black
10
58.0064
20
-86.6872
40
0.0635
50
270
51
450
0
ARC
8
Black
10
57.1936
20
-86.6872
40
0.0635
50
90
51
270
0
LINE
8
Black
10
84.467
20
-93.305
11
84.467
21
-80.095
0
LINE
8
Black
10
84.213
20
-93.305
11
84.213
21
-80.095
0
ARC
8
Black
10
84.34
20
-80.095
40
0.127
50
360
51
540
0
ARC
8
Black
10
84.34
20
-93.305
40
0.127
50
180
51
360
0
LINE
8
Black
10
69.26
20
-93.432
11
84.34
21
-93.432
0
LINE
8
Black
10
69.26
20
-93.178
11
84.34
21
-93.178
0
ARC
8
Black
10
84.34
20
-93.305
40
0.127
50
270
51
450
0
ARC
8
Black
10
69.26
20
-93.305
40
0.127
50
90
51
270
0
LINE
8
Black
10
69.387
20
-93.305
11
69.387
21
-80.095
0
LINE
8
Black
10
69.133
20
-93.305
11
69.133
21
-80.095
0
ARC
8
Black
10
69.26
20
-80.095
40
0.127
50
360
51
540
0
ARC
8
Black
10
69.26
20
-93.305
40
0.127
50
180
51
360
0
LINE
8
Black
10
69.26
20
-80.222
11
84.34
21
-80.222
0
LINE
8
Black
10
69.26
20
-79.968
11
84.34
21
-79.968
0
ARC
8
Black
10
84.34
20
-80.095
40
0.127
50
270
51
450
0
ARC
8
Black
10
69.26
20
-80.095
40
0.127
50
90
51
270
0
LINE
8
Black
10
60.225
20
-85.5749
11
63.025
21
-85.5749
0
LINE
8
Black
10
60.225
20
-85.4251
11
63.025
21
-85.4251
0
ARC
8
Black
10
63.025
20
-85.5
40
0.07493
50
270
51
450
0
ARC
8
Black
10
60.225
20
-85.5
40
0.07493
50
90
51
270
0
LINE
8
Black
10
60.0999
20
-88.5
11
60.0999
21
-85.7
0
LINE
8
Black
10
59.9501
20
-88.5
11
59.9501
21
-85.7
0
ARC
8
Black
10
60.025
20
-85.7
40
0.07493
50
360
51
540
0
ARC
8
Black
10
60.025
20
-88.5
40
0.07493
50
180
51
360
0
LINE
8
Black
10
60.172
20
-85.447
11
59.972
21
-85.647
0
LINE
8
Black
10
60.278
20
-85.553
11
60.078
21
-85.753
0
ARC
8
Black
10
60.025
20
-85.7
40
0.07493
50
495
51
675
0
ARC
8
Black
10
60.225
20
-85.5
40
0.07493
50
315
51
495
0
LINE
8
Black
10
60.025
20
-88.5749
11
63.025
21
-88.5749
0
LINE
8
Black
10
60.025
20
-88.4251
11
63.025
21
-88.4251
0
ARC
8
Black
10
63.025
20
-88.5
40
0.07493
50
270
51
450
0
ARC
8
Black
10
60.025
20
-88.5
40
0.07493
50
90
51
270
0
LINE
8
Black
10
63.0999
20
-88.5
11
63.0999
21
-85.5
0
LINE
8
Black
10
62.9501
20
-88.5
11
62.9501
21
-85.5
0
ARC
8
Black
10
63.025
20
-85.5
40
0.07493
50
360
51
540
0
ARC
8
Black
10
63.025
20
-88.5
40
0.07493
50
180
51
360
0
LINE
8
Black
10
93.5936
20
-82.9223
11
94.4064
21
-82.9223
0
LINE
8
Black
10
93.5936
20
-82.7953
11
94.4064
21
-82.7953
0
ARC
8
Black
10
94.4064
20
-82.8588
40
0.0635
50
270
51
450
0
ARC
8
Black
10
93.5936
20
-82.8588
40
0.0635
50
90
51
270
0
LINE
8
Black
10
93.5936
20
-81.8047
11
94.381
21
-81.8047
0
LINE
8
Black
10
93.5936
20
-81.6777
11
94.381
21
-81.6777
0
ARC
8
Black
10
94.381
20
-81.7412
40
0.0635
50
270
51
450
0
ARC
8
Black
10
93.5936
20
-81.7412
40
0.0635
50
90
51
270
0
LINE
8
Black
10
94.4699
20
-83.1128
11
94.4699
21
-81.4872
0
LINE
8
Black
10
94.3429
20
-83.1128
11
94.3429
21
-81.4872
0
ARC
8
Black
10
94.4064
20
-81.4872
40
0.0635
50
360
51
540
0
ARC
8
Black
10
94.4064
20
-83.1128
40
0.0635
50
180
51
360
0
LINE
8
Black
10
93.5936
20
-83.1763
11
94.4064
21
-83.1763
0
LINE
8
Black
10
93.5936
20
-83.0493
11
94.4064
21
-83.0493
0
ARC
8
Black
10
94.4064
20
-83.1128
40
0.0635
50
270
51
450
0
ARC
8
Black
10
93.5936
20
-83.1128
40
0.0635
50
90
51
270
0
LINE
8
Black
10
93.6571
20
-83.1128
11
93.6571
21
-81.4872
0
LINE
8
Black
10
93.5301
20
-83.1128
11
93.5301
21
-81.4872
0
ARC
8
Black
10
93.5936
20
-81.4872
40
0.0635
50
360
51
540
0
ARC
8
Black
10
93.5936
20
-83.1128
40
0.0635
50
180
51
360
0
LINE
8
Black
10
93.5936
20
-81.5507
11
94.4064
21
-81.5507
0
LINE
8
Black
10
93.5936
20
-81.4237
11
94.4064
21
-81.4237
0
ARC
8
Black
10
94.4064
20
-81.4872
40
0.0635
50
270
51
450
0
ARC
8
Black
10
93.5936
20
-81.4872
40
0.0635
50
90
51
270
0
LINE
8
Black
10
95.3936
20
-82.9223
11
96.2064
21
-82.9223
0
LINE
8
Black
10
95.3936
20
-82.7953
11
96.2064
21
-82.7953
0
ARC
8
Black
10
96.2064
20
-82.8588
40
0.0635
50
270
51
450
0
ARC
8
Black
10
95.3936
20
-82.8588
40
0.0635
50
90
51
270
0
LINE
8
Black
10
95.3936
20
-81.8047
11
96.181
21
-81.8047
0
LINE
8
Black
10
95.3936
20
-81.6777
11
96.181
21
-81.6777
0
ARC
8
Black
10
96.181
20
-81.7412
40
0.0635
50
270
51
450
0
ARC
8
Black
10
95.3936
20
-81.7412
40
0.0635
50
90
51
270
0
LINE
8
Black
10
96.2699
20
-83.1128
11
96.2699
21
-81.4872
0
LINE
8
Black
10
96.1429
20
-83.1128
11
96.1429
21
-81.4872
0
ARC
8
Black
10
96.2064
20
-81.4872
40
0.0635
50
360
51
540
0
ARC
8
Black
10
96.2064
20
-83.1128
40
0.0635
50
180
51
360
0
LINE
8
Black
10
95.3936
20
-83.1763
11
96.2064
21
-83.1763
0
LINE
8
Black
10
95.3936
20
-83.0493
11
96.2064
21
-83.0493
0
ARC
8
Black
10
96.2064
20
-83.1128
40
0.0635
50
270
51
450
0
ARC
8
Black
10
95.3936
20
-83.1128
40
0.0635
50
90
51
270
0
LINE
8
Black
10
95.4571
20
-83.1128
11
95.4571
21
-81.4872
0
LINE
8
Black
10
95.3301
20
-83.1128
11
95.3301
21
-81.4872
0
ARC
8
Black
10
95.3936
20
-81.4872
40
0.0635
50
360
51
540
0
ARC
8
Black
10
95.3936
20
-83.1128
40
0.0635
50
180
51
360
0
LINE
8
Black
10
95.3936
20
-81.5507
11
96.2064
21
-81.5507
0
LINE
8
Black
10
95.3936
20
-81.4237
11
96.2064
21
-81.4237
0
ARC
8
Black
10
96.2064
20
-81.4872
40
0.0635
50
270
51
450
0
ARC
8
Black
10
95.3936
20
-81.4872
40
0.0635
50
90
51
270
0
LINE
8
Black
10
90.6936
20
-88.1223
11
91.5064
21
-88.1223
0
LINE
8
Black
10
90.6936
20
-87.9953
11
91.5064
21
-87.9953
0
ARC
8
Black
10
91.5064
20
-88.0588
40
0.0635
50
270
51
450
0
ARC
8
Black
10
90.6936
20
-88.0588
40
0.0635
50
90
51
270
0
LINE
8
Black
10
90.6936
20
-87.0047
11
91.481
21
-87.0047
0
LINE
8
Black
10
90.6936
20
-86.8777
11
91.481
21
-86.8777
0
ARC
8
Black
10
91.481
20
-86.9412
40
0.0635
50
270
51
450
0
ARC
8
Black
10
90.6936
20
-86.9412
40
0.0635
50
90
51
270
0
LINE
8
Black
10
91.5699
20
-88.3128
11
91.5699
21
-86.6872
0
LINE
8
Black
10
91.4429
20
-88.3128
11
91.4429
21
-86.6872
0
ARC
8
Black
10
91.5064
20
-86.6872
40
0.0635
50
360
51
540
0
ARC
8
Black
10
91.5064
20
-88.3128
40
0.0635
50
180
51
360
0
LINE
8
Black
10
90.6936
20
-88.3763
11
91.5064
21
-88.3763
0
LINE
8
Black
10
90.6936
20
-88.2493
11
91.5064
21
-88.2493
0
ARC
8
Black
10
91.5064
20
-88.3128
40
0.0635
50
270
51
450
0
ARC
8
Black
10
90.6936
20
-88.3128
40
0.0635
50
90
51
270
0
LINE
8
Black
10
90.7571
20
-88.3128
11
90.7571
21
-86.6872
0
LINE
8
Black
10
90.6301
20
-88.3128
11
90.6301
21
-86.6872
0
ARC
8
Black
10
90.6936
20
-86.6872
40
0.0635
50
360
51
540
0
ARC
8
Black
10
90.6936
20
-88.3128
40
0.0635
50
180
51
360
0
LINE
8
Black
10
90.6936
20
-86.7507
11
91.5064
21
-86.7507
0
LINE
8
Black
10
90.6936
20
-86.6237
11
91.5064
21
-86.6237
0
ARC
8
Black
10
91.5064
20
-86.6872
40
0.0635
50
270
51
450
0
ARC
8
Black
10
90.6936
20
-86.6872
40
0.0635
50
90
51
270
0
LINE
8
Black
10
117.967
20
-93.305
11
117.967
21
-80.095
0
LINE
8
Black
10
117.713
20
-93.305
11
117.713
21
-80.095
0
ARC
8
Black
10
117.84
20
-80.095
40
0.127
50
360
51
540
0
ARC
8
Black
10
117.84
20
-93.305
40
0.127
50
180
51
360
0
LINE
8
Black
10
102.76
20
-93.432
11
117.84
21
-93.432
0
LINE
8
Black
10
102.76
20
-93.178
11
117.84
21
-93.178
0
ARC
8
Black
10
117.84
20
-93.305
40
0.127
50
270
51
450
0
ARC
8
Black
10
102.76
20
-93.305
40
0.127
50
90
51
270
0
LINE
8
Black
10
102.887
20
-93.305
11
102.887
21
-80.095
0
LINE
8
Black
10
102.633
20
-93.305
11
102.633
21
-80.095
0
ARC
8
Black
10
102.76
20
-80.095
40
0.127
50
360
51
540
0
ARC
8
Black
10
102.76
20
-93.305
40
0.127
50
180
51
360
0
LINE
8
Black
10
102.76
20
-80.222
11
117.84
21
-80.222
0
LINE
8
Black
10
102.76
20
-79.968
11
117.84
21
-79.968
0
ARC
8
Black
10
117.84
20
-80.095
40
0.127
50
270
51
450
0
ARC
8
Black
10
102.76
20
-80.095
40
0.127
50
90
51
270
0
LINE
8
Black
10
93.725
20
-85.5749
11
96.525
21
-85.5749
0
LINE
8
Black
10
93.725
20
-85.4251
11
96.525
21
-85.4251
0
ARC
8
Black
10
96.525
20
-85.5
40
0.07493
50
270
51
450
0
ARC
8
Black
10
93.725
20
-85.5
40
0.07493
50
90
51
270
0
LINE
8
Black
10
93.5999
20
-88.5
11
93.5999
21
-85.7
0
LINE
8
Black
10
93.4501
20
-88.5
11
93.4501
21
-85.7
0
ARC
8
Black
10
93.525
20
-85.7
40
0.07493
50
360
51
540
0
ARC
8
Black
10
93.525
20
-88.5
40
0.07493
50
180
51
360
0
LINE
8
Black
10
93.672
20
-85.447
11
93.472
21
-85.647
0
LINE
8
Black
10
93.778
20
-85.553
11
93.578
21
-85.753
0
ARC
8
Black
10
93.525
20
-85.7
40
0.07493
50
495
51
675
0
ARC
8
Black
10
93.725
20
-85.5
40
0.07493
50
315
51
495
0
LINE
8
Black
10
93.525
20
-88.5749
11
96.525
21
-88.5749
0
LINE
8
Black
10
93.525
20
-88.4251
11
96.525
21
-88.4251
0
ARC
8
Black
10
96.525
20
-88.5
40
0.07493
50
270
51
450
0
ARC
8
Black
10
93.525
20
-88.5
40
0.07493
50
90
51
270
0
LINE
8
Black
10
96.5999
20
-88.5
11
96.5999
21
-85.5
0
LINE
8
Black
10
96.4501
20
-88.5
11
96.4501
21
-85.5
0
ARC
8
Black
10
96.525
20
-85.5
40
0.07493
50
360
51
540
0
ARC
8
Black
10
96.525
20
-88.5
40
0.07493
50
180
51
360
0
LINE
8
Black
10
93.5936
20
-62.4223
11
94.4064
21
-62.4223
0
LINE
8
Black
10
93.5936
20
-62.2953
11
94.4064
21
-62.2953
0
ARC
8
Black
10
94.4064
20
-62.3588
40
0.0635
50
270
51
450
0
ARC
8
Black
10
93.5936
20
-62.3588
40
0.0635
50
90
51
270
0
LINE
8
Black
10
93.5936
20
-61.3047
11
94.381
21
-61.3047
0
LINE
8
Black
10
93.5936
20
-61.1777
11
94.381
21
-61.1777
0
ARC
8
Black
10
94.381
20
-61.2412
40
0.0635
50
270
51
450
0
ARC
8
Black
10
93.5936
20
-61.2412
40
0.0635
50
90
51
270
0
LINE
8
Black
10
94.4699
20
-62.6128
11
94.4699
21
-60.9872
0
LINE
8
Black
10
94.3429
20
-62.6128
11
94.3429
21
-60.9872
0
ARC
8
Black
10
94.4064
20
-60.9872
40
0.0635
50
360
51
540
0
ARC
8
Black
10
94.4064
20
-62.6128
40
0.0635
50
180
51
360
0
LINE
8
Black
10
93.5936
20
-62.6763
11
94.4064
21
-62.6763
0
LINE
8
Black
10
93.5936
20
-62.5493
11
94.4064
21
-62.5493
0
ARC
8
Black
10
94.4064
20
-62.6128
40
0.0635
50
270
51
450
0
ARC
8
Black
10
93.5936
20
-62.6128
40
0.0635
50
90
51
270
0
LINE
8
Black
10
93.6571
20
-62.6128
11
93.6571
21
-60.9872
0
LINE
8
Black
10
93.5301
20
-62.6128
11
93.5301
21
-60.9872
0
ARC
8
Black
10
93.5936
20
-60.9872
40
0.0635
50
360
51
540
0
ARC
8
Black
10
93.5936
20
-62.6128
40
0.0635
50
180
51
360
0
LINE
8
Black
10
93.5936
20
-61.0507
11
94.4064
21
-61.0507
0
LINE
8
Black
10
93.5936
20
-60.9237
11
94.4064
21
-60.9237
0
ARC
8
Black
10
94.4064
20
-60.9872
40
0.0635
50
270
51
450
0
ARC
8
Black
10
93.5936
20
-60.9872
40
0.0635
50
90
51
270
0
LINE
8
Black
10
95.3936
20
-62.4223
11
96.2064
21
-62.4223
0
LINE
8
Black
10
95.3936
20
-62.2953
11
96.2064
21
-62.2953
0
ARC
8
Black
10
96.2064
20
-62.3588
40
0.0635
50
270
51
450
0
ARC
8
Black
10
95.3936
20
-62.3588
40
0.0635
50
90
51
270
0
LINE
8
Black
10
95.3936
20
-61.3047
11
96.181
21
-61.3047
0
LINE
8
Black
10
95.3936
20
-61.1777
11
96.181
21
-61.1777
0
ARC
8
Black
10
96.181
20
-61.2412
40
0.0635
50
270
51
450
0
ARC
8
Black
10
95.3936
20
-61.2412
40
0.0635
50
90
51
270
0
LINE
8
Black
10
96.2699
20
-62.6128
11
96.2699
21
-60.9872
0
LINE
8
Black
10
96.1429
20
-62.6128
11
96.1429
21
-60.9872
0
ARC
8
Black
10
96.2064
20
-60.9872
40
0.0635
50
360
51
540
0
ARC
8
Black
10
96.2064
20
-62.6128
40
0.0635
50
180
51
360
0
LINE
8
Black
10
95.3936
20
-62.6763
11
96.2064
21
-62.6763
0
LINE
8
Black
10
95.3936
20
-62.5493
11
96.2064
21
-62.5493
0
ARC
8
Black
10
96.2064
20
-62.6128
40
0.0635
50
270
51
450
0
ARC
8
Black
10
95.3936
20
-62.6128
40
0.0635
50
90
51
270
0
LINE
8
Black
10
95.4571
20
-62.6128
11
95.4571
21
-60.9872
0
LINE
8
Black
10
95.3301
20
-62.6128
11
95.3301
21
-60.9872
0
ARC
8
Black
10
95.3936
20
-60.9872
40
0.0635
50
360
51
540
0
ARC
8
Black
10
95.3936
20
-62.6128
40
0.0635
50
180
51
360
0
LINE
8
Black
10
95.3936
20
-61.0507
11
96.2064
21
-61.0507
0
LINE
8
Black
10
95.3936
20
-60.9237
11
96.2064
21
-60.9237
0
ARC
8
Black
10
96.2064
20
-60.9872
40
0.0635
50
270
51
450
0
ARC
8
Black
10
95.3936
20
-60.9872
40
0.0635
50
90
51
270
0
LINE
8
Black
10
90.6936
20
-67.6223
11
91.5064
21
-67.6223
0
LINE
8
Black
10
90.6936
20
-67.4953
11
91.5064
21
-67.4953
0
ARC
8
Black
10
91.5064
20
-67.5588
40
0.0635
50
270
51
450
0
ARC
8
Black
10
90.6936
20
-67.5588
40
0.0635
50
90
51
270
0
LINE
8
Black
10
90.6936
20
-66.5047
11
91.481
21
-66.5047
0
LINE
8
Black
10
90.6936
20
-66.3777
11
91.481
21
-66.3777
0
ARC
8
Black
10
91.481
20
-66.4412
40
0.0635
50
270
51
450
0
ARC
8
Black
10
90.6936
20
-66.4412
40
0.0635
50
90
51
270
0
LINE
8
Black
10
91.5699
20
-67.8128
11
91.5699
21
-66.1872
0
LINE
8
Black
10
91.4429
20
-67.8128
11
91.4429
21
-66.1872
0
ARC
8
Black
10
91.5064
20
-66.1872
40
0.0635
50
360
51
540
0
ARC
8
Black
10
91.5064
20
-67.8128
40
0.0635
50
180
51
360
0
LINE
8
Black
10
90.6936
20
-67.8763
11
91.5064
21
-67.8763
0
LINE
8
Black
10
90.6936
20
-67.7493
11
91.5064
21
-67.7493
0
ARC
8
Black
10
91.5064
20
-67.8128
40
0.0635
50
270
51
450
0
ARC
8
Black
10
90.6936
20
-67.8128
40
0.0635
50
90
51
270
0
LINE
8
Black
10
90.7571
20
-67.8128
11
90.7571
21
-66.1872
0
LINE
8
Black
10
90.6301
20
-67.8128
11
90.6301
21
-66.1872
0
ARC
8
Black
10
90.6936
20
-66.1872
40
0.0635
50
360
51
540
0
ARC
8
Black
10
90.6936
20
-67.8128
40
0.0635
50
180
51
360
0
LINE
8
Black
10
90.6936
20
-66.2507
11
91.5064
21
-66.2507
0
LINE
8
Black
10
90.6936
20
-66.1237
11
91.5064
21
-66.1237
0
ARC
8
Black
10
91.5064
20
-66.1872
40
0.0635
50
270
51
450
0
ARC
8
Black
10
90.6936
20
-66.1872
40
0.0635
50
90
51
270
0
LINE
8
Black
10
117.967
20
-72.805
11
117.967
21
-59.595
0
LINE
8
Black
10
117.713
20
-72.805
11
117.713
21
-59.595
0
ARC
8
Black
10
117.84
20
-59.595
40
0.127
50
360
51
540
0
ARC
8
Black
10
117.84
20
-72.805
40
0.127
50
180
51
360
0
LINE
8
Black
10
102.76
20
-72.932
11
117.84
21
-72.932
0
LINE
8
Black
10
102.76
20
-72.678
11
117.84
21
-72.678
0
ARC
8
Black
10
117.84
20
-72.805
40
0.127
50
270
51
450
0
ARC
8
Black
10
102.76
20
-72.805
40
0.127
50
90
51
270
0
LINE
8
Black
10
102.887
20
-72.805
11
102.887
21
-59.595
0
LINE
8
Black
10
102.633
20
-72.805
11
102.633
21
-59.595
0
ARC
8
Black
10
102.76
20
-59.595
40
0.127
50
360
51
540
0
ARC
8
Black
10
102.76
20
-72.805
40
0.127
50
180
51
360
0
LINE
8
Black
10
102.76
20
-59.722
11
117.84
21
-59.722
0
LINE
8
Black
10
102.76
20
-59.468
11
117.84
21
-59.468
0
ARC
8
Black
10
117.84
20
-59.595
40
0.127
50
270
51
450
0
ARC
8
Black
10
102.76
20
-59.595
40
0.127
50
90
51
270
0
LINE
8
Black
10
93.725
20
-65.0749
11
96.525
21
-65.0749
0
LINE
8
Black
10
93.725
20
-64.9251
11
96.525
21
-64.9251
0
ARC
8
Black
10
96.525
20
-65
40
0.07493
50
270
51
450
0
ARC
8
Black
10
93.725
20
-65
40
0.07493
50
90
51
270
0
LINE
8
Black
10
93.5999
20
-68
11
93.5999
21
-65.2
0
LINE
8
Black
10
93.4501
20
-68
11
93.4501
21
-65.2
0
ARC
8
Black
10
93.525
20
-65.2
40
0.07493
50
360
51
540
0
ARC
8
Black
10
93.525
20
-68
40
0.07493
50
180
51
360
0
LINE
8
Black
10
93.672
20
-64.947
11
93.472
21
-65.147
0
LINE
8
Black
10
93.778
20
-65.053
11
93.578
21
-65.253
0
ARC
8
Black
10
93.525
20
-65.2
40
0.07493
50
495
51
675
0
ARC
8
Black
10
93.725
20
-65
40
0.07493
50
315
51
495
0
LINE
8
Black
10
93.525
20
-68.0749
11
96.525
21
-68.0749
0
LINE
8
Black
10
93.525
20
-67.9251
11
96.525
21
-67.9251
0
ARC
8
Black
10
96.525
20
-68
40
0.07493
50
270
51
450
0
ARC
8
Black
10
93.525
20
-68
40
0.07493
50
90
51
270
0
LINE
8
Black
10
96.5999
20
-68
11
96.5999
21
-65
0
LINE
8
Black
10
96.4501
20
-68
11
96.4501
21
-65
0
ARC
8
Black
10
96.525
20
-65
40
0.07493
50
360
51
540
0
ARC
8
Black
10
96.525
20
-68
40
0.07493
50
180
51
360
0
LINE
8
Black
10
93.5936
20
-41.9223
11
94.4064
21
-41.9223
0
LINE
8
Black
10
93.5936
20
-41.7953
11
94.4064
21
-41.7953
0
ARC
8
Black
10
94.4064
20
-41.8588
40
0.0635
50
270
51
450
0
ARC
8
Black
10
93.5936
20
-41.8588
40
0.0635
50
90
51
270
0
LINE
8
Black
10
93.5936
20
-40.8047
11
94.381
21
-40.8047
0
LINE
8
Black
10
93.5936
20
-40.6777
11
94.381
21
-40.6777
0
ARC
8
Black
10
94.381
20
-40.7412
40
0.0635
50
270
51
450
0
ARC
8
Black
10
93.5936
20
-40.7412
40
0.0635
50
90
51
270
0
LINE
8
Black
10
94.4699
20
-42.1128
11
94.4699
21
-40.4872
0
LINE
8
Black
10
94.3429
20
-42.1128
11
94.3429
21
-40.4872
0
ARC
8
Black
10
94.4064
20
-40.4872
40
0.0635
50
360
51
540
0
ARC
8
Black
10
94.4064
20
-42.1128
40
0.0635
50
180
51
360
0
LINE
8
Black
10
93.5936
20
-42.1763
11
94.4064
21
-42.1763
0
LINE
8
Black
10
93.5936
20
-42.0493
11
94.4064
21
-42.0493
0
ARC
8
Black
10
94.4064
20
-42.1128
40
0.0635
50
270
51
450
0
ARC
8
Black
10
93.5936
20
-42.1128
40
0.0635
50
90
51
270
0
LINE
8
Black
10
93.6571
20
-42.1128
11
93.6571
21
-40.4872
0
LINE
8
Black
10
93.5301
20
-42.1128
11
93.5301
21
-40.4872
0
ARC
8
Black
10
93.5936
20
-40.4872
40
0.0635
50
360
51
540
0
ARC
8
Black
10
93.5936
20
-42.1128
40
0.0635
50
180
51
360
0
LINE
8
Black
10
93.5936
20
-40.5507
11
94.4064
21
-40.5507
0
LINE
8
Black
10
93.5936
20
-40.4237
11
94.4064
21
-40.4237
0
ARC
8
Black
10
94.4064
20
-40.4872
40
0.0635
50
270
51
450
0
ARC
8
Black
10
93.5936
20
-40.4872
40
0.0635
50
90
51
270
0
LINE
8
Black
10
95.3936
20
-41.9223
11
96.2064
21
-41.9223
0
LINE
8
Black
10
95.3936
20
-41.7953
11
96.2064
21
-41.7953
0
ARC
8
Black
10
96.2064
20
-41.8588
40
0.0635
50
270
51
450
0
ARC
8
Black
10
95.3936
20
-41.8588
40
0.0635
50
90
51
270
0
LINE
8
Black
10
95.3936
20
-40.8047
11
96.181
21
-40.8047
0
LINE
8
Black
10
95.3936
20
-40.6777
11
96.181
21
-40.6777
0
ARC
8
Black
10
96.181
20
-40.7412
40
0.0635
50
270
51
450
0
ARC
8
Black
10
95.3936
20
-40.7412
40
0.0635
50
90
51
270
0
LINE
8
Black
10
96.2699
20
-42.1128
11
96.2699
21
-40.4872
0
LINE
8
Black
10
96.1429
20
-42.1128
11
96.1429
21
-40.4872
0
ARC
8
Black
10
96.2064
20
-40.4872
40
0.0635
50
360
51
540
0
ARC
8
Black
10
96.2064
20
-42.1128
40
0.0635
50
180
51
360
0
LINE
8
Black
10
95.3936
20
-42.1763
11
96.2064
21
-42.1763
0
LINE
8
Black
10
95.3936
20
-42.0493
11
96.2064
21
-42.0493
0
ARC
8
Black
10
96.2064
20
-42.1128
40
0.0635
50
270
51
450
0
ARC
8
Black
10
95.3936
20
-42.1128
40
0.0635
50
90
51
270
0
LINE
8
Black
10
95.4571
20
-42.1128
11
95.4571
21
-40.4872
0
LINE
8
Black
10
95.3301
20
-42.1128
11
95.3301
21
-40.4872
0
ARC
8
Black
10
95.3936
20
-40.4872
40
0.0635
50
360
51
540
0
ARC
8
Black
10
95.3936
20
-42.1128
40
0.0635
50
180
51
360
0
LINE
8
Black
10
95.3936
20
-40.5507
11
96.2064
21
-40.5507
0
LINE
8
Black
10
95.3936
20
-40.4237
11
96.2064
21
-40.4237
0
ARC
8
Black
10
96.2064
20
-40.4872
40
0.0635
50
270
51
450
0
ARC
8
Black
10
95.3936
20
-40.4872
40
0.0635
50
90
51
270
0
LINE
8
Black
10
90.6936
20
-47.1223
11
91.5064
21
-47.1223
0
LINE
8
Black
10
90.6936
20
-46.9953
11
91.5064
21
-46.9953
0
ARC
8
Black
10
91.5064
20
-47.0588
40
0.0635
50
270
51
450
0
ARC
8
Black
10
90.6936
20
-47.0588
40
0.0635
50
90
51
270
0
LINE
8
Black
10
90.6936
20
-46.0047
11
91.481
21
-46.0047
0
LINE
8
Black
10
90.6936
20
-45.8777
11
91.481
21
-45.8777
0
ARC
8
Black
10
91.481
20
-45.9412
40
0.0635
50
270
51
450
0
ARC
8
Black
10
90.6936
20
-45.9412
40
0.0635
50
90
51
270
0
LINE
8
Black
10
91.5699
20
-47.3128
11
91.5699
21
-45.6872
0
LINE
8
Black
10
91.4429
20
-47.3128
11
91.4429
21
-45.6872
0
ARC
8
Black
10
91.5064
20
-45.6872
40
0.0635
50
360
51
540
0
ARC
8
Black
10
91.5064
20
-47.3128
40
0.0635
50
180
51
360
0
LINE
8
Black
10
90.6936
20
-47.3763
11
91.5064
21
-47.3763
0
LINE
8
Black
10
90.6936
20
-47.2493
11
91.5064
21
-47.2493
0
ARC
8
Black
10
91.5064
20
-47.3128
40
0.0635
50
270
51
450
0
ARC
8
Black
10
90.6936
20
-47.3128
40
0.0635
50
90
51
270
0
LINE
8
Black
10
90.7571
20
-47.3128
11
90.7571
21
-45.6872
0
LINE
8
Black
10
90.6301
20
-47.3128
11
90.6301
21
-45.6872
0
ARC
8
Black
10
90.6936
20
-45.6872
40
0.0635
50
360
51
540
0
ARC
8
Black
10
90.6936
20
-47.3128
40
0.0635
50
180
51
360
0
LINE
8
Black
10
90.6936
20
-45.7507
11
91.5064
21
-45.7507
0
LINE
8
Black
10
90.6936
20
-45.6237
11
91.5064
21
-45.6237
0
ARC
8
Black
10
91.5064
20
-45.6872
40
0.0635
50
270
51
450
0
ARC
8
Black
10
90.6936
20
-45.6872
40
0.0635
50
90
51
270
0
LINE
8
Black
10
117.967
20
-52.305
11
117.967
21
-39.095
0
LINE
8
Black
10
117.713
20
-52.305
11
117.713
21
-39.095
0
ARC
8
Black
10
117.84
20
-39.095
40
0.127
50
360
51
540
0
ARC
8
Black
10
117.84
20
-52.305
40
0.127
50
180
51
360
0
LINE
8
Black
10
102.76
20
-52.432
11
117.84
21
-52.432
0
LINE
8
Black
10
102.76
20
-52.178
11
117.84
21
-52.178
0
ARC
8
Black
10
117.84
20
-52.305
40
0.127
50
270
51
450
0
ARC
8
Black
10
102.76
20
-52.305
40
0.127
50
90
51
270
0
LINE
8
Black
10
102.887
20
-52.305
11
102.887
21
-39.095
0
LINE
8
Black
10
102.633
20
-52.305
11
102.633
21
-39.095
0
ARC
8
Black
10
102.76
20
-39.095
40
0.127
50
360
51
540
0
ARC
8
Black
10
102.76
20
-52.305
40
0.127
50
180
51
360
0
LINE
8
Black
10
102.76
20
-39.222
11
117.84
21
-39.222
0
LINE
8
Black
10
102.76
20
-38.968
11
117.84
21
-38.968
0
ARC
8
Black
10
117.84
20
-39.095
40
0.127
50
270
51
450
0
ARC
8
Black
10
102.76
20
-39.095
40
0.127
50
90
51
270
0
LINE
8
Black
10
93.725
20
-44.5749
11
96.525
21
-44.5749
0
LINE
8
Black
10
93.725
20
-44.4251
11
96.525
21
-44.4251
0
ARC
8
Black
10
96.525
20
-44.5
40
0.07493
50
270
51
450
0
ARC
8
Black
10
93.725
20
-44.5
40
0.07493
50
90
51
270
0
LINE
8
Black
10
93.5999
20
-47.5
11
93.5999
21
-44.7
0
LINE
8
Black
10
93.4501
20
-47.5
11
93.4501
21
-44.7
0
ARC
8
Black
10
93.525
20
-44.7
40
0.07493
50
360
51
540
0
ARC
8
Black
10
93.525
20
-47.5
40
0.07493
50
180
51
360
0
LINE
8
Black
10
93.672
20
-44.447
11
93.472
21
-44.647
0
LINE
8
Black
10
93.778
20
-44.553
11
93.578
21
-44.753
0
ARC
8
Black
10
93.525
20
-44.7
40
0.07493
50
495
51
675
0
ARC
8
Black
10
93.725
20
-44.5
40
0.07493
50
315
51
495
0
LINE
8
Black
10
93.525
20
-47.5749
11
96.525
21
-47.5749
0
LINE
8
Black
10
93.525
20
-47.4251
11
96.525
21
-47.4251
0
ARC
8
Black
10
96.525
20
-47.5
40
0.07493
50
270
51
450
0
ARC
8
Black
10
93.525
20
-47.5
40
0.07493
50
90
51
270
0
LINE
8
Black
10
96.5999
20
-47.5
11
96.5999
21
-44.5
0
LINE
8
Black
10
96.4501
20
-47.5
11
96.4501
21
-44.5
0
ARC
8
Black
10
96.525
20
-44.5
40
0.07493
50
360
51
540
0
ARC
8
Black
10
96.525
20
-47.5
40
0.07493
50
180
51
360
  0
TEXT
  7
KICADB
  8
Black
  10
79.95
  11
79.95
  20
-68.075
  21
-68.075
  40
1
  41
1
  50
0
  51
0
  71
0
  72
1
  73
2
  1
H1
  0
TEXT
  7
KICADB
  8
Black
  10
80.25
  11
80.25
  20
-73.1
  21
-73.1
  40
1
  41
1
  50
0
  51
0
  71
0
  72
1
  73
2
  1
HOLE
  0
TEXT
  7
KICADB
  8
Black
  10
79.525
  11
79.525
  20
-60.78
  21
-60.78
  40
0.6
  41
1
  50
0
  51
0
  71
0
  72
1
  73
2
  1
U1
  0
TEXT
  7
KICADB
  8
Black
  10
79.525
  11
79.525
  20
-65.49
  21
-65.49
  40
0.6
  41
1
  50
0
  51
0
  71
0
  72
1
  73
2
  1
FXLS8471Q
  0
TEXT
  7
KICADB
  8
Black
  10
80.09
  11
80.09
  20
-33.08
  21
-33.08
  40
1.524
  41
1
  50
0
  51
0
  71
0
  72
1
  73
2
  1
U2
  0
TEXT
  7
KICADB
  8
Black
  10
80.03
  11
80.03
  20
-58.46
  21
-58.46
  40
1.524
  41
1
  50
0
  51
0
  71
0
  72
1
  73
2
  1
RJ12
  0
TEXT
  7
KICADB
  8
Black
  10
76.235
  11
76.235
  20
-63.5
  21
-63.5
  40
0.20066
  41
1
  50
90
  51
0
  71
0
  72
1
  73
2
  1
C4
  0
TEXT
  7
KICADB
  8
Black
  10
76.635
  11
76.635
  20
-60
  21
-60
  40
0.20066
  41
1
  50
90
  51
0
  71
0
  72
1
  73
2
  1
C2
  0
TEXT
  7
KICADB
  8
Black
  10
74.635
  11
74.635
  20
-60
  21
-60
  40
0.20066
  41
1
  50
90
  51
0
  71
0
  72
1
  73
2
  1
C1
  0
TEXT
  7
KICADB
  8
Black
  10
58.635
  11
58.635
  20
-60
  21
-60
  40
0.20066
  41
1
  50
90
  51
0
  71
0
  72
1
  73
2
  1
C1
  0
TEXT
  7
KICADB
  8
Black
  10
60.635
  11
60.635
  20
-60
  21
-60
  40
0.20066
  41
1
  50
90
  51
0
  71
0
  72
1
  73
2
  1
C2
  0
TEXT
  7
KICADB
  8
Black
  10
60.235
  11
60.235
  20
-63.5
  21
-63.5
  40
0.20066
  41
1
  50
90
  51
0
  71
0
  72
1
  73
2
  1
C4
  0
TEXT
  7
KICADB
  8
Black
  10
64.09
  11
64.09
  20
-33.08
  21
-33.08
  40
1.524
  41
1
  50
0
  51
0
  71
0
  72
1
  73
2
  1
U2
  0
TEXT
  7
KICADB
  8
Black
  10
64.03
  11
64.03
  20
-58.46
  21
-58.46
  40
1.524
  41
1
  50
0
  51
0
  71
0
  72
1
  73
2
  1
RJ12
  0
TEXT
  7
KICADB
  8
Black
  10
63.525
  11
63.525
  20
-60.78
  21
-60.78
  40
0.6
  41
1
  50
0
  51
0
  71
0
  72
1
  73
2
  1
U1
  0
TEXT
  7
KICADB
  8
Black
  10
63.525
  11
63.525
  20
-65.49
  21
-65.49
  40
0.6
  41
1
  50
0
  51
0
  71
0
  72
1
  73
2
  1
FXLS8471Q
  0
TEXT
  7
KICADB
  8
Black
  10
63.95
  11
63.95
  20
-68.075
  21
-68.075
  40
1
  41
1
  50
0
  51
0
  71
0
  72
1
  73
2
  1
H1
  0
TEXT
  7
KICADB
  8
Black
  10
64.25
  11
64.25
  20
-73.1
  21
-73.1
  40
1
  41
1
  50
0
  51
0
  71
0
  72
1
  73
2
  1
HOLE
  0
TEXT
  7
KICADB
  8
Black
  10
61.135
  11
61.135
  20
-82.3
  21
-82.3
  40
0.20066
  41
1
  50
90
  51
0
  71
0
  72
1
  73
2
  1
C1
  0
TEXT
  7
KICADB
  8
Black
  10
62.935
  11
62.935
  20
-82.3
  21
-82.3
  40
0.20066
  41
1
  50
90
  51
0
  71
0
  72
1
  73
2
  1
C2
  0
TEXT
  7
KICADB
  8
Black
  10
58.235
  11
58.235
  20
-87.5
  21
-87.5
  40
0.20066
  41
1
  50
90
  51
0
  71
0
  72
1
  73
2
  1
C4
  0
TEXT
  7
KICADB
  8
Black
  10
89.22
  11
89.22
  20
-86.79
  21
-86.79
  40
1.524
  41
1
  50
90
  51
0
  71
0
  72
1
  73
2
  1
U2
  0
TEXT
  7
KICADB
  8
Black
  10
63.84
  11
63.84
  20
-86.73
  21
-86.73
  40
1.524
  41
1
  50
90
  51
0
  71
0
  72
1
  73
2
  1
RJ12
  0
TEXT
  7
KICADB
  8
Black
  10
61.525
  11
61.525
  20
-84.78
  21
-84.78
  40
0.6
  41
1
  50
0
  51
0
  71
0
  72
1
  73
2
  1
U1
  0
TEXT
  7
KICADB
  8
Black
  10
61.525
  11
61.525
  20
-89.49
  21
-89.49
  40
0.6
  41
1
  50
0
  51
0
  71
0
  72
1
  73
2
  1
FXLS8471Q
  0
TEXT
  7
KICADB
  8
Black
  10
61.95
  11
61.95
  20
-75.075
  21
-75.075
  40
1
  41
1
  50
0
  51
0
  71
0
  72
1
  73
2
  1
H1
  0
TEXT
  7
KICADB
  8
Black
  10
62.25
  11
62.25
  20
-80.1
  21
-80.1
  40
1
  41
1
  50
0
  51
0
  71
0
  72
1
  73
2
  1
HOLE
  0
TEXT
  7
KICADB
  8
Black
  10
83.45
  11
83.45
  20
-75.075
  21
-75.075
  40
1
  41
1
  50
0
  51
0
  71
0
  72
1
  73
2
  1
H2
  0
TEXT
  7
KICADB
  8
Black
  10
83.75
  11
83.75
  20
-80.1
  21
-80.1
  40
1
  41
1
  50
0
  51
0
  71
0
  72
1
  73
2
  1
HOLE
  0
TEXT
  7
KICADB
  8
Black
  10
94.635
  11
94.635
  20
-82.3
  21
-82.3
  40
0.20066
  41
1
  50
90
  51
0
  71
0
  72
1
  73
2
  1
C1
  0
TEXT
  7
KICADB
  8
Black
  10
96.435
  11
96.435
  20
-82.3
  21
-82.3
  40
0.20066
  41
1
  50
90
  51
0
  71
0
  72
1
  73
2
  1
C2
  0
TEXT
  7
KICADB
  8
Black
  10
91.735
  11
91.735
  20
-87.5
  21
-87.5
  40
0.20066
  41
1
  50
90
  51
0
  71
0
  72
1
  73
2
  1
C4
  0
TEXT
  7
KICADB
  8
Black
  10
122.72
  11
122.72
  20
-86.79
  21
-86.79
  40
1.524
  41
1
  50
90
  51
0
  71
0
  72
1
  73
2
  1
U2
  0
TEXT
  7
KICADB
  8
Black
  10
97.34
  11
97.34
  20
-86.73
  21
-86.73
  40
1.524
  41
1
  50
90
  51
0
  71
0
  72
1
  73
2
  1
RJ12
  0
TEXT
  7
KICADB
  8
Black
  10
95.025
  11
95.025
  20
-84.78
  21
-84.78
  40
0.6
  41
1
  50
0
  51
0
  71
0
  72
1
  73
2
  1
U1
  0
TEXT
  7
KICADB
  8
Black
  10
95.025
  11
95.025
  20
-89.49
  21
-89.49
  40
0.6
  41
1
  50
0
  51
0
  71
0
  72
1
  73
2
  1
FXLS8471Q
  0
TEXT
  7
KICADB
  8
Black
  10
95.45
  11
95.45
  20
-75.075
  21
-75.075
  40
1
  41
1
  50
0
  51
0
  71
0
  72
1
  73
2
  1
H1
  0
TEXT
  7
KICADB
  8
Black
  10
95.75
  11
95.75
  20
-80.1
  21
-80.1
  40
1
  41
1
  50
0
  51
0
  71
0
  72
1
  73
2
  1
HOLE
  0
TEXT
  7
KICADB
  8
Black
  10
116.95
  11
116.95
  20
-75.075
  21
-75.075
  40
1
  41
1
  50
0
  51
0
  71
0
  72
1
  73
2
  1
H2
  0
TEXT
  7
KICADB
  8
Black
  10
117.25
  11
117.25
  20
-80.1
  21
-80.1
  40
1
  41
1
  50
0
  51
0
  71
0
  72
1
  73
2
  1
HOLE
  0
TEXT
  7
KICADB
  8
Black
  10
94.635
  11
94.635
  20
-61.8
  21
-61.8
  40
0.20066
  41
1
  50
90
  51
0
  71
0
  72
1
  73
2
  1
C1
  0
TEXT
  7
KICADB
  8
Black
  10
96.435
  11
96.435
  20
-61.8
  21
-61.8
  40
0.20066
  41
1
  50
90
  51
0
  71
0
  72
1
  73
2
  1
C2
  0
TEXT
  7
KICADB
  8
Black
  10
91.735
  11
91.735
  20
-67
  21
-67
  40
0.20066
  41
1
  50
90
  51
0
  71
0
  72
1
  73
2
  1
C4
  0
TEXT
  7
KICADB
  8
Black
  10
122.72
  11
122.72
  20
-66.29
  21
-66.29
  40
1.524
  41
1
  50
90
  51
0
  71
0
  72
1
  73
2
  1
U2
  0
TEXT
  7
KICADB
  8
Black
  10
97.34
  11
97.34
  20
-66.23
  21
-66.23
  40
1.524
  41
1
  50
90
  51
0
  71
0
  72
1
  73
2
  1
RJ12
  0
TEXT
  7
KICADB
  8
Black
  10
95.025
  11
95.025
  20
-64.28
  21
-64.28
  40
0.6
  41
1
  50
0
  51
0
  71
0
  72
1
  73
2
  1
U1
  0
TEXT
  7
KICADB
  8
Black
  10
95.025
  11
95.025
  20
-68.99
  21
-68.99
  40
0.6
  41
1
  50
0
  51
0
  71
0
  72
1
  73
2
  1
FXLS8471Q
  0
TEXT
  7
KICADB
  8
Black
  10
95.45
  11
95.45
  20
-54.575
  21
-54.575
  40
1
  41
1
  50
0
  51
0
  71
0
  72
1
  73
2
  1
H1
  0
TEXT
  7
KICADB
  8
Black
  10
95.75
  11
95.75
  20
-59.6
  21
-59.6
  40
1
  41
1
  50
0
  51
0
  71
0
  72
1
  73
2
  1
HOLE
  0
TEXT
  7
KICADB
  8
Black
  10
116.95
  11
116.95
  20
-54.575
  21
-54.575
  40
1
  41
1
  50
0
  51
0
  71
0
  72
1
  73
2
  1
H2
  0
TEXT
  7
KICADB
  8
Black
  10
117.25
  11
117.25
  20
-59.6
  21
-59.6
  40
1
  41
1
  50
0
  51
0
  71
0
  72
1
  73
2
  1
HOLE
  0
TEXT
  7
KICADB
  8
Black
  10
94.635
  11
94.635
  20
-41.3
  21
-41.3
  40
0.20066
  41
1
  50
90
  51
0
  71
0
  72
1
  73
2
  1
C1
  0
TEXT
  7
KICADB
  8
Black
  10
96.435
  11
96.435
  20
-41.3
  21
-41.3
  40
0.20066
  41
1
  50
90
  51
0
  71
0
  72
1
  73
2
  1
C2
  0
TEXT
  7
KICADB
  8
Black
  10
91.735
  11
91.735
  20
-46.5
  21
-46.5
  40
0.20066
  41
1
  50
90
  51
0
  71
0
  72
1
  73
2
  1
C4
  0
TEXT
  7
KICADB
  8
Black
  10
122.72
  11
122.72
  20
-45.79
  21
-45.79
  40
1.524
  41
1
  50
90
  51
0
  71
0
  72
1
  73
2
  1
U2
  0
TEXT
  7
KICADB
  8
Black
  10
97.34
  11
97.34
  20
-45.73
  21
-45.73
  40
1.524
  41
1
  50
90
  51
0
  71
0
  72
1
  73
2
  1
RJ12
  0
TEXT
  7
KICADB
  8
Black
  10
95.025
  11
95.025
  20
-43.78
  21
-43.78
  40
0.6
  41
1
  50
0
  51
0
  71
0
  72
1
  73
2
  1
U1
  0
TEXT
  7
KICADB
  8
Black
  10
95.025
  11
95.025
  20
-48.49
  21
-48.49
  40
0.6
  41
1
  50
0
  51
0
  71
0
  72
1
  73
2
  1
FXLS8471Q
  0
TEXT
  7
KICADB
  8
Black
  10
95.45
  11
95.45
  20
-34.075
  21
-34.075
  40
1
  41
1
  50
0
  51
0
  71
0
  72
1
  73
2
  1
H1
  0
TEXT
  7
KICADB
  8
Black
  10
95.75
  11
95.75
  20
-39.1
  21
-39.1
  40
1
  41
1
  50
0
  51
0
  71
0
  72
1
  73
2
  1
HOLE
  0
TEXT
  7
KICADB
  8
Black
  10
116.95
  11
116.95
  20
-34.075
  21
-34.075
  40
1
  41
1
  50
0
  51
0
  71
0
  72
1
  73
2
  1
H2
  0
TEXT
  7
KICADB
  8
Black
  10
117.25
  11
117.25
  20
-39.1
  21
-39.1
  40
1
  41
1
  50
0
  51
0
  71
0
  72
1
  73
2
  1
HOLE
  0
ENDSEC
  0
EOF
