G04 (created by PCBNEW (2013-07-07 BZR 4022)-stable) date 8/8/2014 4:44:39 PM*
%MOIN*%
G04 Gerber Fmt 3.4, Leading zero omitted, Abs format*
%FSLAX34Y34*%
G01*
G70*
G90*
G04 APERTURE LIST*
%ADD10C,0.00590551*%
%ADD11C,0.00984252*%
%ADD12C,0.005*%
%ADD13C,0.01*%
%ADD14C,0.0059*%
%ADD15C,0.0019685*%
%ADD16C,0.0039*%
G04 APERTURE END LIST*
G54D10*
G54D11*
X22477Y-22155D02*
X22777Y-22155D01*
X22927Y-21911D02*
X23189Y-22305D01*
X23189Y-21911D02*
X22927Y-22305D01*
X25941Y-28355D02*
X26241Y-28355D01*
X26503Y-28318D02*
X26503Y-28505D01*
X26372Y-28112D02*
X26503Y-28318D01*
X26634Y-28112D01*
X27123Y-22233D02*
X27423Y-22233D01*
X27273Y-22383D02*
X27273Y-22083D01*
X27573Y-21990D02*
X27835Y-22383D01*
X27835Y-21990D02*
X27573Y-22383D01*
X22555Y-14379D02*
X22855Y-14379D01*
X22705Y-14529D02*
X22705Y-14229D01*
X23117Y-14341D02*
X23117Y-14529D01*
X22986Y-14135D02*
X23117Y-14341D01*
X23248Y-14135D01*
G54D12*
X22674Y-23842D02*
X22994Y-23842D01*
X22984Y-23402D02*
X22674Y-23402D01*
X22994Y-23302D02*
X22994Y-23942D01*
X22994Y-23942D02*
X22674Y-23942D01*
X22674Y-23942D02*
X22674Y-23302D01*
X22674Y-23302D02*
X22994Y-23302D01*
X23462Y-23842D02*
X23782Y-23842D01*
X23772Y-23402D02*
X23462Y-23402D01*
X23782Y-23302D02*
X23782Y-23942D01*
X23782Y-23942D02*
X23462Y-23942D01*
X23462Y-23942D02*
X23462Y-23302D01*
X23462Y-23302D02*
X23782Y-23302D01*
X23304Y-25220D02*
X23624Y-25220D01*
X23614Y-24780D02*
X23304Y-24780D01*
X23624Y-24680D02*
X23624Y-25320D01*
X23624Y-25320D02*
X23304Y-25320D01*
X23304Y-25320D02*
X23304Y-24680D01*
X23304Y-24680D02*
X23624Y-24680D01*
G54D13*
X22596Y-14944D02*
X27797Y-14944D01*
X27797Y-14944D02*
X27797Y-20881D01*
X27797Y-20881D02*
X22596Y-20881D01*
X22596Y-20881D02*
X22596Y-14944D01*
G54D14*
X24498Y-24212D02*
X25600Y-24212D01*
X24419Y-24291D02*
X24419Y-25393D01*
X24498Y-24212D02*
X24419Y-24291D01*
X25600Y-25393D02*
X24419Y-25393D01*
X25600Y-24212D02*
X25600Y-25393D01*
G54D15*
X23197Y-23633D02*
X23203Y-23639D01*
X23209Y-23656D01*
X23209Y-23667D01*
X23203Y-23684D01*
X23192Y-23695D01*
X23181Y-23701D01*
X23158Y-23706D01*
X23141Y-23706D01*
X23119Y-23701D01*
X23107Y-23695D01*
X23096Y-23684D01*
X23091Y-23667D01*
X23091Y-23656D01*
X23096Y-23639D01*
X23102Y-23633D01*
X23209Y-23521D02*
X23209Y-23588D01*
X23209Y-23555D02*
X23091Y-23555D01*
X23107Y-23566D01*
X23119Y-23577D01*
X23124Y-23588D01*
X23985Y-23633D02*
X23991Y-23639D01*
X23996Y-23656D01*
X23996Y-23667D01*
X23991Y-23684D01*
X23979Y-23695D01*
X23968Y-23701D01*
X23946Y-23706D01*
X23929Y-23706D01*
X23906Y-23701D01*
X23895Y-23695D01*
X23884Y-23684D01*
X23878Y-23667D01*
X23878Y-23656D01*
X23884Y-23639D01*
X23889Y-23633D01*
X23889Y-23588D02*
X23884Y-23583D01*
X23878Y-23571D01*
X23878Y-23543D01*
X23884Y-23532D01*
X23889Y-23526D01*
X23901Y-23521D01*
X23912Y-23521D01*
X23929Y-23526D01*
X23996Y-23594D01*
X23996Y-23521D01*
X23827Y-25011D02*
X23833Y-25017D01*
X23839Y-25034D01*
X23839Y-25045D01*
X23833Y-25062D01*
X23822Y-25073D01*
X23811Y-25079D01*
X23788Y-25084D01*
X23771Y-25084D01*
X23749Y-25079D01*
X23737Y-25073D01*
X23726Y-25062D01*
X23721Y-25045D01*
X23721Y-25034D01*
X23726Y-25017D01*
X23732Y-25011D01*
X23760Y-24910D02*
X23839Y-24910D01*
X23715Y-24938D02*
X23799Y-24966D01*
X23799Y-24893D01*
G54D16*
X27222Y-21242D02*
X27222Y-21624D01*
X27245Y-21669D01*
X27267Y-21692D01*
X27312Y-21714D01*
X27402Y-21714D01*
X27447Y-21692D01*
X27470Y-21669D01*
X27492Y-21624D01*
X27492Y-21242D01*
X27695Y-21287D02*
X27717Y-21264D01*
X27762Y-21242D01*
X27875Y-21242D01*
X27920Y-21264D01*
X27942Y-21287D01*
X27965Y-21332D01*
X27965Y-21377D01*
X27942Y-21444D01*
X27672Y-21714D01*
X27965Y-21714D01*
X22268Y-21643D02*
X22110Y-21419D01*
X21998Y-21643D02*
X21998Y-21171D01*
X22178Y-21171D01*
X22223Y-21194D01*
X22245Y-21216D01*
X22268Y-21261D01*
X22268Y-21329D01*
X22245Y-21374D01*
X22223Y-21396D01*
X22178Y-21419D01*
X21998Y-21419D01*
X22605Y-21171D02*
X22605Y-21508D01*
X22583Y-21576D01*
X22538Y-21621D01*
X22470Y-21643D01*
X22425Y-21643D01*
X23078Y-21643D02*
X22808Y-21643D01*
X22943Y-21643D02*
X22943Y-21171D01*
X22898Y-21239D01*
X22853Y-21284D01*
X22808Y-21306D01*
X23258Y-21216D02*
X23280Y-21194D01*
X23325Y-21171D01*
X23438Y-21171D01*
X23483Y-21194D01*
X23505Y-21216D01*
X23528Y-21261D01*
X23528Y-21306D01*
X23505Y-21374D01*
X23235Y-21643D01*
X23528Y-21643D01*
G54D10*
X24877Y-26960D02*
X24877Y-26566D01*
X24877Y-26754D02*
X25102Y-26754D01*
X25102Y-26960D02*
X25102Y-26566D01*
X25495Y-26960D02*
X25270Y-26960D01*
X25383Y-26960D02*
X25383Y-26566D01*
X25345Y-26623D01*
X25308Y-26660D01*
X25270Y-26679D01*
X24639Y-28938D02*
X24639Y-28545D01*
X24639Y-28732D02*
X24864Y-28732D01*
X24864Y-28938D02*
X24864Y-28545D01*
X25126Y-28545D02*
X25201Y-28545D01*
X25239Y-28563D01*
X25276Y-28601D01*
X25295Y-28676D01*
X25295Y-28807D01*
X25276Y-28882D01*
X25239Y-28920D01*
X25201Y-28938D01*
X25126Y-28938D01*
X25089Y-28920D01*
X25051Y-28882D01*
X25032Y-28807D01*
X25032Y-28676D01*
X25051Y-28601D01*
X25089Y-28563D01*
X25126Y-28545D01*
X25651Y-28938D02*
X25464Y-28938D01*
X25464Y-28545D01*
X25782Y-28732D02*
X25913Y-28732D01*
X25970Y-28938D02*
X25782Y-28938D01*
X25782Y-28545D01*
X25970Y-28545D01*
X24829Y-23788D02*
X24829Y-23979D01*
X24841Y-24002D01*
X24852Y-24013D01*
X24874Y-24024D01*
X24919Y-24024D01*
X24942Y-24013D01*
X24953Y-24002D01*
X24964Y-23979D01*
X24964Y-23788D01*
X25201Y-24024D02*
X25066Y-24024D01*
X25133Y-24024D02*
X25133Y-23788D01*
X25111Y-23822D01*
X25088Y-23844D01*
X25066Y-23856D01*
X24149Y-25755D02*
X24070Y-25755D01*
X24070Y-25879D02*
X24070Y-25642D01*
X24183Y-25642D01*
X24250Y-25642D02*
X24408Y-25879D01*
X24408Y-25642D02*
X24250Y-25879D01*
X24610Y-25879D02*
X24498Y-25879D01*
X24498Y-25642D01*
X24678Y-25867D02*
X24711Y-25879D01*
X24767Y-25879D01*
X24790Y-25867D01*
X24801Y-25856D01*
X24812Y-25834D01*
X24812Y-25811D01*
X24801Y-25789D01*
X24790Y-25777D01*
X24767Y-25766D01*
X24723Y-25755D01*
X24700Y-25744D01*
X24689Y-25732D01*
X24678Y-25710D01*
X24678Y-25687D01*
X24689Y-25665D01*
X24700Y-25654D01*
X24723Y-25642D01*
X24779Y-25642D01*
X24812Y-25654D01*
X24947Y-25744D02*
X24925Y-25732D01*
X24914Y-25721D01*
X24902Y-25699D01*
X24902Y-25687D01*
X24914Y-25665D01*
X24925Y-25654D01*
X24947Y-25642D01*
X24992Y-25642D01*
X25015Y-25654D01*
X25026Y-25665D01*
X25037Y-25687D01*
X25037Y-25699D01*
X25026Y-25721D01*
X25015Y-25732D01*
X24992Y-25744D01*
X24947Y-25744D01*
X24925Y-25755D01*
X24914Y-25766D01*
X24902Y-25789D01*
X24902Y-25834D01*
X24914Y-25856D01*
X24925Y-25867D01*
X24947Y-25879D01*
X24992Y-25879D01*
X25015Y-25867D01*
X25026Y-25856D01*
X25037Y-25834D01*
X25037Y-25789D01*
X25026Y-25766D01*
X25015Y-25755D01*
X24992Y-25744D01*
X25240Y-25721D02*
X25240Y-25879D01*
X25184Y-25631D02*
X25127Y-25800D01*
X25274Y-25800D01*
X25341Y-25642D02*
X25499Y-25642D01*
X25397Y-25879D01*
X25712Y-25879D02*
X25577Y-25879D01*
X25645Y-25879D02*
X25645Y-25642D01*
X25622Y-25676D01*
X25600Y-25699D01*
X25577Y-25710D01*
X25971Y-25901D02*
X25949Y-25890D01*
X25926Y-25867D01*
X25892Y-25834D01*
X25870Y-25822D01*
X25847Y-25822D01*
X25859Y-25879D02*
X25836Y-25867D01*
X25814Y-25845D01*
X25802Y-25800D01*
X25802Y-25721D01*
X25814Y-25676D01*
X25836Y-25654D01*
X25859Y-25642D01*
X25904Y-25642D01*
X25926Y-25654D01*
X25949Y-25676D01*
X25960Y-25721D01*
X25960Y-25800D01*
X25949Y-25845D01*
X25926Y-25867D01*
X25904Y-25879D01*
X25859Y-25879D01*
M02*
