G04 (created by PCBNEW (2013-07-07 BZR 4022)-stable) date 8/8/2014 4:44:39 PM*
%MOIN*%
G04 Gerber Fmt 3.4, Leading zero omitted, Abs format*
%FSLAX34Y34*%
G01*
G70*
G90*
G04 APERTURE LIST*
%ADD10C,0.00590551*%
%ADD11R,0.0394X0.0354*%
%ADD12R,0.0299213X0.19685*%
%ADD13R,0.346457X0.177165*%
%ADD14R,0.0314961X0.011811*%
%ADD15R,0.011811X0.0314961*%
%ADD16C,0.0275591*%
%ADD17C,0.011811*%
G04 APERTURE END LIST*
G54D10*
G54D11*
X22834Y-23918D03*
X22834Y-23326D03*
X23622Y-23918D03*
X23622Y-23326D03*
X23464Y-25296D03*
X23464Y-24704D03*
G54D12*
X23946Y-21023D03*
X24946Y-21023D03*
X25946Y-21023D03*
X25446Y-21023D03*
X26446Y-21023D03*
X24446Y-21023D03*
G54D13*
X25196Y-14704D03*
G54D14*
X24507Y-24606D03*
X24507Y-24409D03*
X25511Y-24409D03*
X24507Y-24801D03*
X24507Y-25000D03*
X24507Y-25196D03*
G54D15*
X24812Y-25305D03*
X24996Y-25305D03*
X25206Y-25305D03*
G54D14*
X25511Y-25196D03*
X25511Y-25000D03*
X25511Y-24801D03*
X25511Y-24606D03*
G54D15*
X25206Y-24301D03*
X25003Y-24301D03*
X24812Y-24301D03*
G54D16*
X27322Y-21574D03*
X25776Y-23906D03*
X22992Y-26299D03*
X25275Y-25984D03*
X25984Y-25590D03*
X26279Y-23917D03*
X23937Y-25826D03*
X26496Y-26417D03*
G54D17*
X26446Y-21023D02*
X26446Y-21761D01*
X26545Y-21860D02*
X26446Y-21761D01*
X26870Y-21948D02*
X26545Y-21860D01*
X27027Y-21870D02*
X26870Y-21948D01*
X27234Y-21663D02*
X27027Y-21870D01*
X27234Y-21663D02*
X27322Y-21574D01*
X22834Y-23918D02*
X23622Y-23918D01*
X23464Y-25296D02*
X22933Y-25296D01*
X22834Y-25196D02*
X22834Y-23918D01*
X22933Y-25296D02*
X22834Y-25196D01*
X25766Y-23906D02*
X25678Y-23808D01*
X25688Y-23818D02*
X25776Y-23906D01*
X24330Y-25433D02*
X24330Y-25236D01*
X24330Y-25433D02*
X24434Y-25675D01*
X22992Y-26299D02*
X24330Y-26299D01*
X24330Y-26299D02*
X24434Y-25675D01*
X24370Y-25196D02*
X24507Y-25196D01*
X24330Y-25236D02*
X24370Y-25196D01*
X25511Y-25000D02*
X25748Y-25000D01*
X25708Y-26181D02*
X25275Y-25984D01*
X26417Y-25905D02*
X25708Y-26181D01*
X26417Y-25039D02*
X26417Y-25905D01*
X25748Y-25000D02*
X26417Y-25039D01*
X24996Y-25305D02*
X25000Y-25551D01*
X22911Y-26379D02*
X22913Y-25590D01*
X22992Y-26299D02*
X22911Y-26379D01*
X25000Y-25551D02*
X25275Y-25984D01*
X24507Y-24801D02*
X23978Y-24801D01*
X23759Y-25296D02*
X23464Y-25296D01*
X23818Y-25236D02*
X23759Y-25296D01*
X23818Y-24960D02*
X23818Y-25236D01*
X23978Y-24801D02*
X23818Y-24960D01*
X22913Y-25590D02*
X23464Y-25296D01*
X25511Y-24606D02*
X25826Y-24606D01*
X25866Y-24330D02*
X25787Y-24251D01*
X25866Y-24566D02*
X25866Y-24330D01*
X25826Y-24606D02*
X25866Y-24566D01*
X25511Y-24409D02*
X25748Y-24409D01*
X25885Y-23917D02*
X25776Y-23917D01*
X25885Y-24114D02*
X25885Y-23917D01*
X25787Y-24173D02*
X25885Y-24114D01*
X25787Y-24370D02*
X25787Y-24251D01*
X25787Y-24251D02*
X25787Y-24173D01*
X25748Y-24409D02*
X25787Y-24370D01*
X24946Y-21023D02*
X24946Y-21620D01*
X26673Y-23622D02*
X26663Y-23864D01*
X26082Y-23129D02*
X26673Y-23622D01*
X25000Y-22716D02*
X26082Y-23129D01*
X24946Y-21620D02*
X25000Y-22716D01*
X26062Y-24803D02*
X26614Y-24212D01*
X26614Y-24212D02*
X26663Y-23864D01*
X26663Y-23864D02*
X26663Y-23864D01*
X25511Y-24801D02*
X26062Y-24803D01*
X26279Y-23917D02*
X26279Y-23828D01*
X24446Y-21720D02*
X24446Y-21023D01*
X24409Y-22145D02*
X24446Y-21720D01*
X25620Y-23444D02*
X24488Y-22874D01*
X24488Y-22874D02*
X24409Y-22145D01*
X25885Y-23523D02*
X25620Y-23444D01*
X25944Y-23503D02*
X25885Y-23523D01*
X26279Y-23828D02*
X25944Y-23503D01*
X25669Y-25196D02*
X25826Y-25275D01*
X25826Y-25275D02*
X25984Y-25590D01*
X25511Y-25196D02*
X25669Y-25196D01*
X26279Y-23917D02*
X26242Y-23954D01*
X24507Y-24606D02*
X23562Y-24606D01*
X23562Y-24606D02*
X23464Y-24704D01*
X26692Y-26181D02*
X26850Y-25905D01*
X25446Y-21559D02*
X25446Y-21023D01*
X25472Y-22559D02*
X25446Y-21559D01*
X26279Y-22834D02*
X25472Y-22559D01*
X26968Y-23425D02*
X26279Y-22834D01*
X26968Y-24724D02*
X26968Y-23425D01*
X26850Y-25905D02*
X26968Y-24724D01*
X24212Y-25000D02*
X24094Y-25039D01*
X24094Y-25039D02*
X23937Y-25826D01*
X24507Y-25000D02*
X24212Y-25000D01*
X26535Y-26456D02*
X26574Y-26377D01*
X26574Y-26377D02*
X26692Y-26181D01*
X26692Y-26181D02*
X26707Y-26167D01*
X26496Y-26417D02*
X26535Y-26456D01*
X25946Y-21023D02*
X25946Y-21616D01*
X26811Y-26811D02*
X25984Y-26850D01*
X27253Y-26200D02*
X26811Y-26811D01*
X27263Y-23129D02*
X27253Y-26200D01*
X25946Y-21616D02*
X25944Y-22244D01*
X25944Y-22244D02*
X26476Y-22539D01*
X26476Y-22539D02*
X27263Y-23129D01*
X26007Y-26858D02*
X25984Y-26850D01*
X25984Y-26850D02*
X25118Y-26771D01*
X24812Y-26309D02*
X24921Y-26535D01*
X24812Y-26309D02*
X24812Y-25305D01*
X25118Y-26771D02*
X24921Y-26535D01*
X23622Y-23326D02*
X24212Y-23326D01*
X22834Y-23326D02*
X23622Y-23326D01*
X24212Y-23897D02*
X25118Y-23897D01*
X25206Y-23986D02*
X25206Y-24301D01*
X25118Y-23897D02*
X25206Y-23986D01*
X23917Y-21456D02*
X23917Y-22539D01*
X24170Y-23037D02*
X24212Y-23326D01*
X23917Y-22539D02*
X24170Y-23037D01*
X24212Y-23326D02*
X24212Y-23897D01*
X24212Y-23897D02*
X24212Y-24212D01*
X24212Y-24212D02*
X24311Y-24409D01*
X24311Y-24409D02*
X24507Y-24409D01*
M02*
