G04 #@! TF.GenerationSoftware,KiCad,Pcbnew,5.1.5-52549c5~86~ubuntu18.04.1*
G04 #@! TF.CreationDate,2020-12-06T21:57:42-08:00*
G04 #@! TF.ProjectId,GAMTP_rev01,47414d54-505f-4726-9576-30312e6b6963,rev?*
G04 #@! TF.SameCoordinates,Original*
G04 #@! TF.FileFunction,Soldermask,Bot*
G04 #@! TF.FilePolarity,Negative*
%FSLAX46Y46*%
G04 Gerber Fmt 4.6, Leading zero omitted, Abs format (unit mm)*
G04 Created by KiCad (PCBNEW 5.1.5-52549c5~86~ubuntu18.04.1) date 2020-12-06 21:57:42*
%MOMM*%
%LPD*%
G04 APERTURE LIST*
%ADD10C,0.300000*%
%ADD11R,3.400000X5.000000*%
%ADD12R,3.000000X3.000000*%
%ADD13R,5.000000X3.400000*%
%ADD14C,3.000000*%
%ADD15R,2.499360X2.499360*%
%ADD16C,1.500000*%
%ADD17C,3.250000*%
%ADD18C,1.300000*%
%ADD19C,2.500000*%
%ADD20C,1.800000*%
%ADD21O,1.000000X1.700000*%
%ADD22O,1.050000X1.250000*%
G04 APERTURE END LIST*
D10*
X117686000Y-69850000D03*
X115486000Y-69850000D03*
X116586000Y-69850000D03*
D11*
X116586000Y-69850000D03*
D10*
X116586000Y-70950000D03*
X115486000Y-70950000D03*
X117686000Y-70950000D03*
X117686000Y-68750000D03*
X115486000Y-68750000D03*
X116586000Y-68750000D03*
X116586000Y-67650000D03*
X115486000Y-67650000D03*
X117686000Y-67650000D03*
X117686000Y-72050000D03*
X115486000Y-72050000D03*
X116586000Y-72050000D03*
D12*
X116586000Y-69850000D03*
D10*
X103970000Y-79248000D03*
X101770000Y-79248000D03*
X102870000Y-79248000D03*
D11*
X102870000Y-79248000D03*
D10*
X102870000Y-80348000D03*
X101770000Y-80348000D03*
X103970000Y-80348000D03*
X103970000Y-78148000D03*
X101770000Y-78148000D03*
X102870000Y-78148000D03*
X102870000Y-77048000D03*
X101770000Y-77048000D03*
X103970000Y-77048000D03*
X103970000Y-81448000D03*
X101770000Y-81448000D03*
X102870000Y-81448000D03*
D12*
X102870000Y-79248000D03*
D10*
X117538000Y-77033000D03*
X115338000Y-77033000D03*
X116438000Y-77033000D03*
D11*
X116438000Y-77033000D03*
D10*
X116438000Y-78133000D03*
X115338000Y-78133000D03*
X117538000Y-78133000D03*
X117538000Y-75933000D03*
X115338000Y-75933000D03*
X116438000Y-75933000D03*
X116438000Y-74833000D03*
X115338000Y-74833000D03*
X117538000Y-74833000D03*
X117538000Y-79233000D03*
X115338000Y-79233000D03*
X116438000Y-79233000D03*
D12*
X116438000Y-77033000D03*
D10*
X103716000Y-70358000D03*
X101516000Y-70358000D03*
X102616000Y-70358000D03*
D11*
X102616000Y-70358000D03*
D10*
X102616000Y-71458000D03*
X101516000Y-71458000D03*
X103716000Y-71458000D03*
X103716000Y-69258000D03*
X101516000Y-69258000D03*
X102616000Y-69258000D03*
X102616000Y-68158000D03*
X101516000Y-68158000D03*
X103716000Y-68158000D03*
X103716000Y-72558000D03*
X101516000Y-72558000D03*
X102616000Y-72558000D03*
D12*
X102616000Y-70358000D03*
D10*
X164250000Y-90850000D03*
X164250000Y-88650000D03*
X164250000Y-89750000D03*
D13*
X164250000Y-89750000D03*
D10*
X163150000Y-89750000D03*
X163150000Y-88650000D03*
X163150000Y-90850000D03*
X165350000Y-90850000D03*
X165350000Y-88650000D03*
X165350000Y-89750000D03*
X166450000Y-89750000D03*
X166450000Y-88650000D03*
X166450000Y-90850000D03*
X162050000Y-90850000D03*
X162050000Y-88650000D03*
X162050000Y-89750000D03*
D12*
X164250000Y-89750000D03*
D10*
X163750000Y-78350000D03*
X163750000Y-76150000D03*
X163750000Y-77250000D03*
D13*
X163750000Y-77250000D03*
D10*
X162650000Y-77250000D03*
X162650000Y-76150000D03*
X162650000Y-78350000D03*
X164850000Y-78350000D03*
X164850000Y-76150000D03*
X164850000Y-77250000D03*
X165950000Y-77250000D03*
X165950000Y-76150000D03*
X165950000Y-78350000D03*
X161550000Y-78350000D03*
X161550000Y-76150000D03*
X161550000Y-77250000D03*
D12*
X163750000Y-77250000D03*
D10*
X179100000Y-65000000D03*
X176900000Y-65000000D03*
X178000000Y-65000000D03*
D11*
X178000000Y-65000000D03*
D10*
X178000000Y-66100000D03*
X176900000Y-66100000D03*
X179100000Y-66100000D03*
X179100000Y-63900000D03*
X176900000Y-63900000D03*
X178000000Y-63900000D03*
X178000000Y-62800000D03*
X176900000Y-62800000D03*
X179100000Y-62800000D03*
X179100000Y-67200000D03*
X176900000Y-67200000D03*
X178000000Y-67200000D03*
D12*
X178000000Y-65000000D03*
D10*
X159850000Y-61570000D03*
X162050000Y-61570000D03*
X160950000Y-61570000D03*
D11*
X160950000Y-61570000D03*
D10*
X160950000Y-60470000D03*
X162050000Y-60470000D03*
X159850000Y-60470000D03*
X159850000Y-62670000D03*
X162050000Y-62670000D03*
X160950000Y-62670000D03*
X160950000Y-63770000D03*
X162050000Y-63770000D03*
X159850000Y-63770000D03*
X159850000Y-59370000D03*
X162050000Y-59370000D03*
X160950000Y-59370000D03*
D12*
X160950000Y-61570000D03*
D10*
X146500000Y-115800000D03*
X148700000Y-115800000D03*
X147600000Y-115800000D03*
D11*
X147600000Y-115800000D03*
D10*
X147600000Y-114700000D03*
X148700000Y-114700000D03*
X146500000Y-114700000D03*
X146500000Y-116900000D03*
X148700000Y-116900000D03*
X147600000Y-116900000D03*
X147600000Y-118000000D03*
X148700000Y-118000000D03*
X146500000Y-118000000D03*
X146500000Y-113600000D03*
X148700000Y-113600000D03*
X147600000Y-113600000D03*
D12*
X147600000Y-115800000D03*
D10*
X159300000Y-115500000D03*
X161500000Y-115500000D03*
X160400000Y-115500000D03*
D11*
X160400000Y-115500000D03*
D10*
X160400000Y-114400000D03*
X161500000Y-114400000D03*
X159300000Y-114400000D03*
X159300000Y-116600000D03*
X161500000Y-116600000D03*
X160400000Y-116600000D03*
X160400000Y-117700000D03*
X161500000Y-117700000D03*
X159300000Y-117700000D03*
X159300000Y-113300000D03*
X161500000Y-113300000D03*
X160400000Y-113300000D03*
D12*
X160400000Y-115500000D03*
D10*
X171925000Y-129975000D03*
X174125000Y-129975000D03*
X173025000Y-129975000D03*
D11*
X173025000Y-129975000D03*
D10*
X173025000Y-128875000D03*
X174125000Y-128875000D03*
X171925000Y-128875000D03*
X171925000Y-131075000D03*
X174125000Y-131075000D03*
X173025000Y-131075000D03*
X173025000Y-132175000D03*
X174125000Y-132175000D03*
X171925000Y-132175000D03*
X171925000Y-127775000D03*
X174125000Y-127775000D03*
X173025000Y-127775000D03*
D12*
X173025000Y-129975000D03*
D10*
X173610000Y-121960000D03*
X175810000Y-121960000D03*
X174710000Y-121960000D03*
D11*
X174710000Y-121960000D03*
D10*
X174710000Y-120860000D03*
X175810000Y-120860000D03*
X173610000Y-120860000D03*
X173610000Y-123060000D03*
X175810000Y-123060000D03*
X174710000Y-123060000D03*
X174710000Y-124160000D03*
X175810000Y-124160000D03*
X173610000Y-124160000D03*
X173610000Y-119760000D03*
X175810000Y-119760000D03*
X174710000Y-119760000D03*
D12*
X174710000Y-121960000D03*
D10*
X106000000Y-114800000D03*
X108200000Y-114800000D03*
X107100000Y-114800000D03*
D11*
X107100000Y-114800000D03*
D10*
X107100000Y-113700000D03*
X108200000Y-113700000D03*
X106000000Y-113700000D03*
X106000000Y-115900000D03*
X108200000Y-115900000D03*
X107100000Y-115900000D03*
X107100000Y-117000000D03*
X108200000Y-117000000D03*
X106000000Y-117000000D03*
X106000000Y-112600000D03*
X108200000Y-112600000D03*
X107100000Y-112600000D03*
D12*
X107100000Y-114800000D03*
D10*
X119200000Y-115300000D03*
X121400000Y-115300000D03*
X120300000Y-115300000D03*
D11*
X120300000Y-115300000D03*
D10*
X120300000Y-114200000D03*
X121400000Y-114200000D03*
X119200000Y-114200000D03*
X119200000Y-116400000D03*
X121400000Y-116400000D03*
X120300000Y-116400000D03*
X120300000Y-117500000D03*
X121400000Y-117500000D03*
X119200000Y-117500000D03*
X119200000Y-113100000D03*
X121400000Y-113100000D03*
X120300000Y-113100000D03*
D12*
X120300000Y-115300000D03*
D10*
X132500000Y-115500000D03*
X134700000Y-115500000D03*
X133600000Y-115500000D03*
D11*
X133600000Y-115500000D03*
D10*
X133600000Y-114400000D03*
X134700000Y-114400000D03*
X132500000Y-114400000D03*
X132500000Y-116600000D03*
X134700000Y-116600000D03*
X133600000Y-116600000D03*
X133600000Y-117700000D03*
X134700000Y-117700000D03*
X132500000Y-117700000D03*
X132500000Y-113300000D03*
X134700000Y-113300000D03*
X133600000Y-113300000D03*
D12*
X133600000Y-115500000D03*
D10*
X93430000Y-115760000D03*
X95630000Y-115760000D03*
X94530000Y-115760000D03*
D11*
X94530000Y-115760000D03*
D10*
X94530000Y-114660000D03*
X95630000Y-114660000D03*
X93430000Y-114660000D03*
X93430000Y-116860000D03*
X95630000Y-116860000D03*
X94530000Y-116860000D03*
X94530000Y-117960000D03*
X95630000Y-117960000D03*
X93430000Y-117960000D03*
X93430000Y-113560000D03*
X95630000Y-113560000D03*
X94530000Y-113560000D03*
D12*
X94530000Y-115760000D03*
D14*
X92000000Y-131000000D03*
X92000000Y-58000000D03*
X181000000Y-132000000D03*
X181000000Y-58000000D03*
D15*
X117000000Y-96000000D03*
D16*
X92100000Y-91375000D03*
X92100000Y-93915000D03*
X92100000Y-102085000D03*
X92100000Y-104625000D03*
X103350000Y-93560000D03*
X103350000Y-98630000D03*
X103350000Y-96100000D03*
X103350000Y-101170000D03*
X105890000Y-94820000D03*
X105890000Y-99900000D03*
X105890000Y-97360000D03*
D17*
X97132080Y-103715000D03*
X97132080Y-92285000D03*
D18*
X100050000Y-90255000D03*
X100050000Y-105745000D03*
D16*
X105890000Y-102440000D03*
D19*
X92202000Y-75478000D03*
X92202000Y-80478000D03*
D20*
X181000000Y-105950000D03*
X181000000Y-103410000D03*
X181000000Y-98340160D03*
X181000000Y-100880160D03*
X101270000Y-131770000D03*
X103810000Y-131770000D03*
X98730000Y-131770000D03*
X96190000Y-131770000D03*
X96190000Y-129230000D03*
X98730000Y-129230000D03*
X103810000Y-129230000D03*
X101270000Y-129230000D03*
D19*
X92202000Y-68286000D03*
X92202000Y-63286000D03*
D21*
X106925000Y-144350000D03*
X98575000Y-144350000D03*
D22*
X104975000Y-141350000D03*
X100525000Y-141350000D03*
X178175000Y-141000000D03*
X182625000Y-141000000D03*
D21*
X176225000Y-144000000D03*
X184575000Y-144000000D03*
D22*
X111275000Y-141350000D03*
X115725000Y-141350000D03*
D21*
X109325000Y-144350000D03*
X117675000Y-144350000D03*
X173375000Y-143950000D03*
X165025000Y-143950000D03*
D22*
X171425000Y-140950000D03*
X166975000Y-140950000D03*
D21*
X128975000Y-144250000D03*
X120625000Y-144250000D03*
D22*
X127025000Y-141250000D03*
X122575000Y-141250000D03*
D21*
X162475000Y-144100000D03*
X154125000Y-144100000D03*
D22*
X160525000Y-141100000D03*
X156075000Y-141100000D03*
X134025000Y-141150000D03*
X138475000Y-141150000D03*
D21*
X132075000Y-144150000D03*
X140425000Y-144150000D03*
D22*
X144825000Y-141100000D03*
X149275000Y-141100000D03*
D21*
X142875000Y-144100000D03*
X151225000Y-144100000D03*
M02*
