M48
;DRILL file {Pcbnew (2013-08-24 BZR 4298)-stable} date Thu 07 Nov 2013 07:47:32 PM PST
;FORMAT={-:-/ absolute / metric / decimal}
FMAT,2
METRIC,TZ
T1C0.500
T2C0.600
T3C0.813
T4C1.300
T5C1.699
T6C3.250
%
G90
G05
M71
T1
X38.61Y-95.11
X54.25Y-115.34
X55.27Y-100.3
X56.62Y-109.61
X57.65Y-102.68
X58.56Y-104.66
X60.42Y-110.65
X62.94Y-103.52
X63.08Y-110.75
X65.15Y-99.59
X65.74Y-94.62
X66.52Y-98.15
X68.58Y-97.01
X72.23Y-100.86
X72.5Y-98.34
X73.75Y-110.8
X74.422Y-107.188
X74.5Y-101.99
X75.1Y-99.75
X75.26Y-97.76
X75.3Y-111.
X75.89Y-104.3
X76.45Y-109.81
X76.65Y-106.95
X77.5Y-104.3
X77.82Y-118.33
X78.18Y-121.77
X78.27Y-116.3
X78.46Y-114.72
X79.05Y-104.35
X79.96Y-100.17
X80.73Y-104.22
X81.2Y-112.85
X84.05Y-99.67
X89.65Y-118.87
X92.05Y-115.45
X96.4Y-85.5
X96.47Y-114.35
X99.13Y-116.45
X100.56Y-101.27
X102.29Y-109.5
X102.45Y-104.01
X103.49Y-87.34
X108.07Y-124.22
X109.45Y-121.5
T2
X37.33Y-101.835
X37.33Y-104.375
X37.33Y-112.545
X37.33Y-115.085
X48.58Y-105.183
X48.58Y-107.723
X48.58Y-110.263
X48.58Y-112.793
X51.12Y-103.888
X51.12Y-106.428
X51.12Y-108.968
X51.12Y-111.498
X66.848Y-105.968
X66.848Y-107.492
X67.61Y-106.73
X68.372Y-105.968
X68.372Y-107.492
T3
X91.19Y-122.01
X93.73Y-122.015
X96.26Y-122.01
X98.8Y-122.015
X101.33Y-122.01
X103.87Y-122.015
T4
X45.28Y-100.715
X45.28Y-116.205
T5
X56.05Y-87.899
X56.05Y-92.4
T6
X36.83Y-85.8
X37.846Y-124.968
X42.362Y-102.745
X42.362Y-114.175
X113.5Y-85.8
X114.35Y-124.65
T0
M30
