G04 (created by PCBNEW (2013-08-24 BZR 4298)-stable) date Thu 07 Nov 2013 12:10:41 PM PST*
%MOIN*%
G04 Gerber Fmt 3.4, Leading zero omitted, Abs format*
%FSLAX34Y34*%
G01*
G70*
G90*
G04 APERTURE LIST*
%ADD10C,0.005906*%
%ADD11C,0.023622*%
%ADD12R,0.098400X0.098400*%
%ADD13C,0.127953*%
%ADD14C,0.027559*%
%ADD15C,0.027559*%
%ADD16C,0.019685*%
%ADD17C,0.047244*%
%ADD18C,0.015748*%
%ADD19C,0.039370*%
%ADD20C,0.009843*%
%ADD21C,0.010000*%
G04 APERTURE END LIST*
G54D10*
G54D11*
X26618Y-42019D03*
X26318Y-41719D03*
X26318Y-42319D03*
X26918Y-41719D03*
X26918Y-42319D03*
G54D12*
X26618Y-42019D03*
G54D13*
X14500Y-33779D03*
X44685Y-33779D03*
X45019Y-49074D03*
X14900Y-49200D03*
G54D14*
X28543Y-38716D03*
X29300Y-42200D03*
X29330Y-40153D03*
X37952Y-33661D03*
X40744Y-34385D03*
X24834Y-43602D03*
X24779Y-40755D03*
X39590Y-39870D03*
X33090Y-39240D03*
X29035Y-43622D03*
X28437Y-39708D03*
X30511Y-41062D03*
X31968Y-44429D03*
X23787Y-43562D03*
X30779Y-47940D03*
X42547Y-48905D03*
X35295Y-46799D03*
X40271Y-43110D03*
X40334Y-40948D03*
X31480Y-39437D03*
X21759Y-39488D03*
X15200Y-37444D03*
X25881Y-37251D03*
X43090Y-47834D03*
X39027Y-45846D03*
X30637Y-46586D03*
X25649Y-39208D03*
X30814Y-45787D03*
X26188Y-38641D03*
X30889Y-45165D03*
X27000Y-38192D03*
X30098Y-43232D03*
X30177Y-42106D03*
X29645Y-43700D03*
X29877Y-41062D03*
X29629Y-38488D03*
X31783Y-41031D03*
X36240Y-45452D03*
X37980Y-45019D03*
X22291Y-43153D03*
X22696Y-40425D03*
X23055Y-41204D03*
X21358Y-45409D03*
X31122Y-41082D03*
X29566Y-39271D03*
G54D15*
X28543Y-38716D02*
X29330Y-40153D01*
G54D16*
X29271Y-40905D02*
X29330Y-40153D01*
X29251Y-41620D02*
X29271Y-40905D01*
X29300Y-42200D02*
X29251Y-41620D01*
G54D17*
X37952Y-33661D02*
X40744Y-34385D01*
G54D18*
X24779Y-40755D02*
X24834Y-43602D01*
X39590Y-39870D02*
X33090Y-39240D01*
X29035Y-43622D02*
X28744Y-41854D01*
X28744Y-41854D02*
X28437Y-39708D01*
X31968Y-44429D02*
X30511Y-41062D01*
G54D15*
X23787Y-43562D02*
X23787Y-43574D01*
G54D19*
X42547Y-48905D02*
X42547Y-48885D01*
G54D18*
X35295Y-46799D02*
X35326Y-46814D01*
G54D20*
X40334Y-40948D02*
X40334Y-40940D01*
G54D15*
X21759Y-39488D02*
X21759Y-39468D01*
G54D19*
X15200Y-37444D02*
X15220Y-37444D01*
X25870Y-37240D02*
X25866Y-37240D01*
X25881Y-37251D02*
X25870Y-37240D01*
G54D16*
X41251Y-47232D02*
X43090Y-47834D01*
X39027Y-45846D02*
X41251Y-47232D01*
G54D18*
X30637Y-46586D02*
X28035Y-44775D01*
X28035Y-44775D02*
X27389Y-40003D01*
X27389Y-40003D02*
X25649Y-39208D01*
X30814Y-45787D02*
X28456Y-44476D01*
X28456Y-44476D02*
X28177Y-43094D01*
X27685Y-39807D02*
X26188Y-38641D01*
X28177Y-43094D02*
X27685Y-39807D01*
X30889Y-45165D02*
X28901Y-44208D01*
X28901Y-44208D02*
X28633Y-43751D01*
X28633Y-43751D02*
X28098Y-40362D01*
X27940Y-39696D02*
X27000Y-38192D01*
X28098Y-40362D02*
X27940Y-39696D01*
X30098Y-43232D02*
X30177Y-42106D01*
X29877Y-41062D02*
X29645Y-43700D01*
X31783Y-41031D02*
X29629Y-38488D01*
X36240Y-45452D02*
X37980Y-45019D01*
X22291Y-43153D02*
X22696Y-40425D01*
X23055Y-41204D02*
X22409Y-44940D01*
X22409Y-44940D02*
X22011Y-45358D01*
X22011Y-45358D02*
X21358Y-45409D01*
X29566Y-39271D02*
X31122Y-41082D01*
G54D10*
G36*
X46349Y-32353D02*
X46308Y-50658D01*
X46103Y-50659D01*
X46103Y-48860D01*
X45938Y-48461D01*
X45768Y-48291D01*
X45768Y-33564D01*
X45604Y-33166D01*
X45299Y-32861D01*
X44901Y-32696D01*
X44470Y-32695D01*
X44072Y-32860D01*
X43767Y-33164D01*
X43601Y-33563D01*
X43601Y-33994D01*
X43765Y-34392D01*
X44070Y-34697D01*
X44468Y-34862D01*
X44899Y-34863D01*
X45297Y-34698D01*
X45603Y-34394D01*
X45768Y-33995D01*
X45768Y-33564D01*
X45768Y-48291D01*
X45634Y-48156D01*
X45236Y-47991D01*
X44805Y-47991D01*
X44406Y-48155D01*
X44101Y-48460D01*
X43936Y-48858D01*
X43936Y-49289D01*
X44100Y-49687D01*
X44405Y-49992D01*
X44803Y-50158D01*
X45234Y-50158D01*
X45632Y-49993D01*
X45937Y-49689D01*
X46102Y-49291D01*
X46103Y-48860D01*
X46103Y-50659D01*
X43672Y-50663D01*
X43672Y-47719D01*
X43583Y-47505D01*
X43420Y-47341D01*
X43206Y-47253D01*
X43056Y-47253D01*
X41483Y-46737D01*
X41417Y-46696D01*
X41417Y-34291D01*
X41330Y-34041D01*
X41153Y-33843D01*
X40914Y-33727D01*
X38123Y-33003D01*
X37858Y-32988D01*
X37608Y-33075D01*
X37410Y-33251D01*
X37294Y-33490D01*
X37279Y-33755D01*
X37366Y-34006D01*
X37543Y-34204D01*
X37781Y-34319D01*
X40573Y-35043D01*
X40838Y-35059D01*
X41088Y-34971D01*
X41286Y-34795D01*
X41402Y-34556D01*
X41417Y-34291D01*
X41417Y-46696D01*
X40172Y-45920D01*
X40172Y-39754D01*
X40083Y-39541D01*
X39920Y-39377D01*
X39706Y-39288D01*
X39475Y-39288D01*
X39327Y-39349D01*
X33452Y-38780D01*
X33420Y-38747D01*
X33206Y-38658D01*
X32975Y-38658D01*
X32761Y-38746D01*
X32597Y-38910D01*
X32509Y-39123D01*
X32508Y-39355D01*
X32597Y-39569D01*
X32760Y-39732D01*
X32974Y-39821D01*
X33205Y-39821D01*
X33353Y-39760D01*
X39228Y-40330D01*
X39260Y-40362D01*
X39474Y-40451D01*
X39705Y-40451D01*
X39919Y-40363D01*
X40083Y-40199D01*
X40171Y-39986D01*
X40172Y-39754D01*
X40172Y-45920D01*
X39514Y-45510D01*
X39357Y-45353D01*
X39143Y-45265D01*
X38912Y-45264D01*
X38698Y-45353D01*
X38561Y-45489D01*
X38561Y-44904D01*
X38473Y-44690D01*
X38310Y-44527D01*
X38096Y-44438D01*
X37865Y-44438D01*
X37651Y-44526D01*
X37602Y-44575D01*
X36377Y-44880D01*
X36356Y-44871D01*
X36124Y-44871D01*
X35911Y-44959D01*
X35747Y-45122D01*
X35658Y-45336D01*
X35658Y-45567D01*
X35746Y-45781D01*
X35910Y-45945D01*
X36123Y-46034D01*
X36355Y-46034D01*
X36569Y-45946D01*
X36618Y-45897D01*
X37842Y-45592D01*
X37864Y-45601D01*
X38095Y-45601D01*
X38309Y-45512D01*
X38472Y-45349D01*
X38561Y-45135D01*
X38561Y-44904D01*
X38561Y-45489D01*
X38534Y-45516D01*
X38446Y-45730D01*
X38445Y-45961D01*
X38534Y-46175D01*
X38697Y-46339D01*
X38911Y-46427D01*
X38935Y-46427D01*
X40639Y-47489D01*
X40552Y-47525D01*
X40394Y-47682D01*
X40235Y-47524D01*
X40014Y-47431D01*
X39774Y-47431D01*
X39552Y-47523D01*
X39394Y-47680D01*
X39239Y-47526D01*
X39018Y-47433D01*
X38778Y-47433D01*
X38556Y-47525D01*
X38398Y-47682D01*
X38239Y-47524D01*
X38018Y-47431D01*
X37778Y-47431D01*
X37556Y-47523D01*
X37398Y-47680D01*
X37243Y-47526D01*
X37022Y-47433D01*
X36782Y-47433D01*
X36560Y-47525D01*
X36402Y-47682D01*
X36243Y-47524D01*
X36022Y-47431D01*
X35782Y-47431D01*
X35560Y-47523D01*
X35390Y-47693D01*
X35297Y-47914D01*
X35297Y-48155D01*
X35389Y-48377D01*
X35559Y-48546D01*
X35780Y-48639D01*
X36021Y-48639D01*
X36243Y-48547D01*
X36400Y-48390D01*
X36559Y-48548D01*
X36780Y-48641D01*
X37021Y-48641D01*
X37243Y-48549D01*
X37400Y-48392D01*
X37555Y-48546D01*
X37776Y-48639D01*
X38017Y-48639D01*
X38239Y-48547D01*
X38396Y-48390D01*
X38555Y-48548D01*
X38776Y-48641D01*
X39017Y-48641D01*
X39239Y-48549D01*
X39396Y-48392D01*
X39551Y-48546D01*
X39772Y-48639D01*
X40013Y-48639D01*
X40235Y-48547D01*
X40392Y-48390D01*
X40551Y-48548D01*
X40772Y-48641D01*
X41013Y-48641D01*
X41235Y-48549D01*
X41405Y-48379D01*
X41497Y-48158D01*
X41497Y-47917D01*
X41480Y-47877D01*
X42715Y-48282D01*
X42760Y-48327D01*
X42974Y-48416D01*
X43205Y-48416D01*
X43419Y-48327D01*
X43583Y-48164D01*
X43671Y-47950D01*
X43672Y-47719D01*
X43672Y-50663D01*
X32593Y-50683D01*
X32593Y-44568D01*
X32250Y-42124D01*
X32537Y-40911D01*
X30202Y-38351D01*
X30123Y-38159D01*
X29959Y-37995D01*
X29746Y-37906D01*
X29514Y-37906D01*
X29470Y-37924D01*
X27167Y-37632D01*
X27116Y-37611D01*
X26999Y-37611D01*
X26958Y-37606D01*
X26948Y-37611D01*
X26884Y-37611D01*
X26671Y-37699D01*
X26570Y-37800D01*
X25939Y-38115D01*
X25860Y-38148D01*
X25846Y-38162D01*
X25836Y-38167D01*
X25806Y-38202D01*
X25696Y-38311D01*
X25682Y-38344D01*
X25382Y-38689D01*
X25320Y-38715D01*
X25156Y-38878D01*
X25100Y-39014D01*
X24787Y-39375D01*
X25160Y-39541D01*
X25319Y-39701D01*
X25533Y-39790D01*
X25665Y-39790D01*
X26910Y-40359D01*
X27517Y-44845D01*
X27521Y-44856D01*
X27521Y-44867D01*
X27554Y-44952D01*
X27574Y-45011D01*
X27579Y-45058D01*
X27635Y-45099D01*
X27658Y-45123D01*
X27718Y-45191D01*
X27729Y-45196D01*
X27737Y-45204D01*
X28955Y-46052D01*
X30141Y-46909D01*
X30144Y-46915D01*
X30307Y-47079D01*
X30471Y-47147D01*
X30909Y-47463D01*
X32593Y-44568D01*
X32593Y-50683D01*
X25416Y-50696D01*
X25416Y-43487D01*
X25351Y-43331D01*
X25306Y-41002D01*
X25360Y-40872D01*
X25361Y-40640D01*
X25272Y-40426D01*
X25109Y-40263D01*
X24895Y-40174D01*
X24664Y-40174D01*
X24450Y-40262D01*
X24286Y-40426D01*
X24198Y-40639D01*
X24197Y-40871D01*
X24262Y-41026D01*
X24307Y-43355D01*
X24253Y-43486D01*
X24253Y-43717D01*
X24341Y-43931D01*
X24504Y-44095D01*
X24718Y-44183D01*
X24949Y-44183D01*
X25163Y-44095D01*
X25327Y-43932D01*
X25416Y-43718D01*
X25416Y-43487D01*
X25416Y-50696D01*
X23636Y-50699D01*
X23636Y-41089D01*
X23548Y-40875D01*
X23384Y-40712D01*
X23233Y-40649D01*
X23278Y-40541D01*
X23278Y-40310D01*
X23190Y-40096D01*
X23026Y-39932D01*
X22845Y-39857D01*
X22845Y-36223D01*
X22845Y-34451D01*
X22727Y-34165D01*
X22508Y-33946D01*
X22222Y-33827D01*
X21912Y-33827D01*
X21626Y-33945D01*
X21407Y-34164D01*
X21288Y-34450D01*
X21288Y-34760D01*
X21406Y-35046D01*
X21625Y-35265D01*
X21911Y-35384D01*
X22221Y-35384D01*
X22507Y-35266D01*
X22726Y-35047D01*
X22844Y-34761D01*
X22845Y-34451D01*
X22845Y-36223D01*
X22727Y-35937D01*
X22508Y-35718D01*
X22222Y-35599D01*
X21912Y-35599D01*
X21626Y-35717D01*
X21407Y-35936D01*
X21288Y-36222D01*
X21288Y-36532D01*
X21406Y-36818D01*
X21625Y-37037D01*
X21911Y-37156D01*
X22221Y-37156D01*
X22507Y-37038D01*
X22726Y-36819D01*
X22844Y-36533D01*
X22845Y-36223D01*
X22845Y-39857D01*
X22813Y-39843D01*
X22581Y-39843D01*
X22367Y-39931D01*
X22204Y-40095D01*
X22115Y-40309D01*
X22115Y-40540D01*
X22141Y-40604D01*
X21814Y-42807D01*
X21798Y-42823D01*
X21709Y-43037D01*
X21709Y-43268D01*
X21798Y-43482D01*
X21961Y-43646D01*
X22093Y-43701D01*
X21921Y-44695D01*
X21771Y-44853D01*
X21572Y-44868D01*
X21474Y-44828D01*
X21243Y-44827D01*
X21029Y-44916D01*
X20865Y-45079D01*
X20776Y-45293D01*
X20776Y-45524D01*
X20865Y-45738D01*
X21028Y-45902D01*
X21242Y-45990D01*
X21473Y-45991D01*
X21672Y-45908D01*
X22052Y-45879D01*
X22137Y-45855D01*
X22223Y-45835D01*
X22235Y-45827D01*
X22248Y-45823D01*
X22318Y-45769D01*
X22390Y-45718D01*
X22787Y-45301D01*
X22815Y-45257D01*
X22851Y-45220D01*
X22869Y-45172D01*
X22896Y-45129D01*
X22905Y-45078D01*
X22924Y-45029D01*
X23524Y-41558D01*
X23547Y-41534D01*
X23636Y-41320D01*
X23636Y-41089D01*
X23636Y-50699D01*
X20687Y-50704D01*
X20687Y-43785D01*
X20602Y-43578D01*
X20444Y-43420D01*
X20391Y-43398D01*
X20443Y-43377D01*
X20601Y-43219D01*
X20687Y-43013D01*
X20687Y-42789D01*
X20602Y-42582D01*
X20444Y-42424D01*
X20386Y-42400D01*
X20443Y-42377D01*
X20601Y-42219D01*
X20687Y-42013D01*
X20687Y-41789D01*
X20602Y-41582D01*
X20444Y-41424D01*
X20386Y-41400D01*
X20443Y-41377D01*
X20601Y-41219D01*
X20687Y-41013D01*
X20687Y-40789D01*
X20602Y-40582D01*
X20444Y-40424D01*
X20238Y-40339D01*
X20014Y-40338D01*
X19808Y-40424D01*
X19649Y-40582D01*
X19564Y-40788D01*
X19564Y-41012D01*
X19593Y-41084D01*
X19444Y-40934D01*
X19238Y-40849D01*
X19014Y-40848D01*
X18808Y-40934D01*
X18649Y-41092D01*
X18564Y-41298D01*
X18564Y-41522D01*
X18649Y-41728D01*
X18807Y-41886D01*
X18865Y-41910D01*
X18808Y-41934D01*
X18649Y-42092D01*
X18564Y-42298D01*
X18564Y-42522D01*
X18649Y-42728D01*
X18807Y-42886D01*
X18865Y-42910D01*
X18808Y-42934D01*
X18649Y-43092D01*
X18564Y-43298D01*
X18564Y-43522D01*
X18649Y-43728D01*
X18807Y-43886D01*
X18860Y-43908D01*
X18808Y-43930D01*
X18649Y-44088D01*
X18564Y-44294D01*
X18564Y-44518D01*
X18649Y-44724D01*
X18807Y-44882D01*
X19013Y-44968D01*
X19237Y-44968D01*
X19443Y-44883D01*
X19601Y-44725D01*
X19687Y-44519D01*
X19687Y-44295D01*
X19658Y-44223D01*
X19807Y-44372D01*
X20013Y-44458D01*
X20237Y-44458D01*
X20443Y-44373D01*
X20601Y-44215D01*
X20687Y-44009D01*
X20687Y-43785D01*
X20687Y-50704D01*
X18526Y-50708D01*
X18526Y-45611D01*
X18526Y-39513D01*
X18420Y-39255D01*
X18223Y-39058D01*
X17966Y-38952D01*
X17688Y-38951D01*
X17430Y-39058D01*
X17234Y-39254D01*
X17144Y-39471D01*
X16894Y-39367D01*
X16463Y-39367D01*
X16065Y-39531D01*
X15760Y-39836D01*
X15594Y-40234D01*
X15594Y-40665D01*
X15758Y-41063D01*
X16063Y-41368D01*
X16461Y-41534D01*
X16892Y-41534D01*
X17290Y-41369D01*
X17595Y-41065D01*
X17761Y-40667D01*
X17761Y-40351D01*
X17965Y-40351D01*
X18222Y-40245D01*
X18419Y-40048D01*
X18526Y-39791D01*
X18526Y-39513D01*
X18526Y-45611D01*
X18420Y-45354D01*
X18223Y-45157D01*
X17966Y-45050D01*
X17761Y-45050D01*
X17761Y-44736D01*
X17597Y-44337D01*
X17292Y-44032D01*
X16894Y-43867D01*
X16463Y-43867D01*
X16065Y-44031D01*
X15760Y-44336D01*
X15594Y-44734D01*
X15594Y-45165D01*
X15758Y-45563D01*
X16063Y-45868D01*
X16461Y-46034D01*
X16892Y-46034D01*
X17144Y-45930D01*
X17233Y-46145D01*
X17429Y-46342D01*
X17687Y-46449D01*
X17965Y-46449D01*
X18222Y-46343D01*
X18419Y-46146D01*
X18526Y-45889D01*
X18526Y-45611D01*
X18526Y-50708D01*
X15983Y-50713D01*
X15983Y-48985D01*
X15819Y-48587D01*
X15514Y-48282D01*
X15258Y-48175D01*
X15258Y-45197D01*
X15173Y-44991D01*
X15015Y-44833D01*
X14957Y-44809D01*
X15014Y-44785D01*
X15172Y-44627D01*
X15258Y-44421D01*
X15258Y-44197D01*
X15258Y-40981D01*
X15173Y-40774D01*
X15015Y-40616D01*
X14957Y-40592D01*
X15014Y-40569D01*
X15172Y-40411D01*
X15258Y-40204D01*
X15258Y-39981D01*
X15173Y-39774D01*
X15015Y-39616D01*
X14809Y-39530D01*
X14585Y-39530D01*
X14379Y-39615D01*
X14220Y-39773D01*
X14135Y-39980D01*
X14134Y-40203D01*
X14220Y-40410D01*
X14378Y-40568D01*
X14435Y-40592D01*
X14379Y-40615D01*
X14220Y-40773D01*
X14135Y-40980D01*
X14134Y-41203D01*
X14220Y-41410D01*
X14378Y-41568D01*
X14584Y-41654D01*
X14808Y-41654D01*
X15014Y-41569D01*
X15172Y-41411D01*
X15258Y-41204D01*
X15258Y-40981D01*
X15258Y-44197D01*
X15173Y-43991D01*
X15015Y-43833D01*
X14809Y-43747D01*
X14585Y-43747D01*
X14379Y-43832D01*
X14220Y-43990D01*
X14135Y-44196D01*
X14134Y-44420D01*
X14220Y-44626D01*
X14378Y-44785D01*
X14435Y-44809D01*
X14379Y-44832D01*
X14220Y-44990D01*
X14135Y-45196D01*
X14134Y-45420D01*
X14220Y-45626D01*
X14378Y-45785D01*
X14584Y-45870D01*
X14808Y-45870D01*
X15014Y-45785D01*
X15172Y-45627D01*
X15258Y-45421D01*
X15258Y-45197D01*
X15258Y-48175D01*
X15116Y-48116D01*
X14685Y-48116D01*
X14287Y-48280D01*
X13982Y-48585D01*
X13816Y-48983D01*
X13816Y-49414D01*
X13980Y-49812D01*
X14285Y-50117D01*
X14683Y-50283D01*
X15114Y-50283D01*
X15512Y-50119D01*
X15817Y-49814D01*
X15983Y-49416D01*
X15983Y-48985D01*
X15983Y-50713D01*
X13455Y-50717D01*
X13455Y-34088D01*
X13580Y-34392D01*
X13885Y-34697D01*
X14283Y-34862D01*
X14714Y-34863D01*
X15112Y-34698D01*
X15417Y-34394D01*
X15583Y-33995D01*
X15583Y-33564D01*
X15419Y-33166D01*
X15114Y-32861D01*
X14716Y-32696D01*
X14285Y-32695D01*
X13887Y-32860D01*
X13582Y-33164D01*
X13455Y-33469D01*
X13455Y-32431D01*
X45128Y-32353D01*
X46349Y-32353D01*
X46349Y-32353D01*
G37*
G54D21*
X46349Y-32353D02*
X46308Y-50658D01*
X46103Y-50659D01*
X46103Y-48860D01*
X45938Y-48461D01*
X45768Y-48291D01*
X45768Y-33564D01*
X45604Y-33166D01*
X45299Y-32861D01*
X44901Y-32696D01*
X44470Y-32695D01*
X44072Y-32860D01*
X43767Y-33164D01*
X43601Y-33563D01*
X43601Y-33994D01*
X43765Y-34392D01*
X44070Y-34697D01*
X44468Y-34862D01*
X44899Y-34863D01*
X45297Y-34698D01*
X45603Y-34394D01*
X45768Y-33995D01*
X45768Y-33564D01*
X45768Y-48291D01*
X45634Y-48156D01*
X45236Y-47991D01*
X44805Y-47991D01*
X44406Y-48155D01*
X44101Y-48460D01*
X43936Y-48858D01*
X43936Y-49289D01*
X44100Y-49687D01*
X44405Y-49992D01*
X44803Y-50158D01*
X45234Y-50158D01*
X45632Y-49993D01*
X45937Y-49689D01*
X46102Y-49291D01*
X46103Y-48860D01*
X46103Y-50659D01*
X43672Y-50663D01*
X43672Y-47719D01*
X43583Y-47505D01*
X43420Y-47341D01*
X43206Y-47253D01*
X43056Y-47253D01*
X41483Y-46737D01*
X41417Y-46696D01*
X41417Y-34291D01*
X41330Y-34041D01*
X41153Y-33843D01*
X40914Y-33727D01*
X38123Y-33003D01*
X37858Y-32988D01*
X37608Y-33075D01*
X37410Y-33251D01*
X37294Y-33490D01*
X37279Y-33755D01*
X37366Y-34006D01*
X37543Y-34204D01*
X37781Y-34319D01*
X40573Y-35043D01*
X40838Y-35059D01*
X41088Y-34971D01*
X41286Y-34795D01*
X41402Y-34556D01*
X41417Y-34291D01*
X41417Y-46696D01*
X40172Y-45920D01*
X40172Y-39754D01*
X40083Y-39541D01*
X39920Y-39377D01*
X39706Y-39288D01*
X39475Y-39288D01*
X39327Y-39349D01*
X33452Y-38780D01*
X33420Y-38747D01*
X33206Y-38658D01*
X32975Y-38658D01*
X32761Y-38746D01*
X32597Y-38910D01*
X32509Y-39123D01*
X32508Y-39355D01*
X32597Y-39569D01*
X32760Y-39732D01*
X32974Y-39821D01*
X33205Y-39821D01*
X33353Y-39760D01*
X39228Y-40330D01*
X39260Y-40362D01*
X39474Y-40451D01*
X39705Y-40451D01*
X39919Y-40363D01*
X40083Y-40199D01*
X40171Y-39986D01*
X40172Y-39754D01*
X40172Y-45920D01*
X39514Y-45510D01*
X39357Y-45353D01*
X39143Y-45265D01*
X38912Y-45264D01*
X38698Y-45353D01*
X38561Y-45489D01*
X38561Y-44904D01*
X38473Y-44690D01*
X38310Y-44527D01*
X38096Y-44438D01*
X37865Y-44438D01*
X37651Y-44526D01*
X37602Y-44575D01*
X36377Y-44880D01*
X36356Y-44871D01*
X36124Y-44871D01*
X35911Y-44959D01*
X35747Y-45122D01*
X35658Y-45336D01*
X35658Y-45567D01*
X35746Y-45781D01*
X35910Y-45945D01*
X36123Y-46034D01*
X36355Y-46034D01*
X36569Y-45946D01*
X36618Y-45897D01*
X37842Y-45592D01*
X37864Y-45601D01*
X38095Y-45601D01*
X38309Y-45512D01*
X38472Y-45349D01*
X38561Y-45135D01*
X38561Y-44904D01*
X38561Y-45489D01*
X38534Y-45516D01*
X38446Y-45730D01*
X38445Y-45961D01*
X38534Y-46175D01*
X38697Y-46339D01*
X38911Y-46427D01*
X38935Y-46427D01*
X40639Y-47489D01*
X40552Y-47525D01*
X40394Y-47682D01*
X40235Y-47524D01*
X40014Y-47431D01*
X39774Y-47431D01*
X39552Y-47523D01*
X39394Y-47680D01*
X39239Y-47526D01*
X39018Y-47433D01*
X38778Y-47433D01*
X38556Y-47525D01*
X38398Y-47682D01*
X38239Y-47524D01*
X38018Y-47431D01*
X37778Y-47431D01*
X37556Y-47523D01*
X37398Y-47680D01*
X37243Y-47526D01*
X37022Y-47433D01*
X36782Y-47433D01*
X36560Y-47525D01*
X36402Y-47682D01*
X36243Y-47524D01*
X36022Y-47431D01*
X35782Y-47431D01*
X35560Y-47523D01*
X35390Y-47693D01*
X35297Y-47914D01*
X35297Y-48155D01*
X35389Y-48377D01*
X35559Y-48546D01*
X35780Y-48639D01*
X36021Y-48639D01*
X36243Y-48547D01*
X36400Y-48390D01*
X36559Y-48548D01*
X36780Y-48641D01*
X37021Y-48641D01*
X37243Y-48549D01*
X37400Y-48392D01*
X37555Y-48546D01*
X37776Y-48639D01*
X38017Y-48639D01*
X38239Y-48547D01*
X38396Y-48390D01*
X38555Y-48548D01*
X38776Y-48641D01*
X39017Y-48641D01*
X39239Y-48549D01*
X39396Y-48392D01*
X39551Y-48546D01*
X39772Y-48639D01*
X40013Y-48639D01*
X40235Y-48547D01*
X40392Y-48390D01*
X40551Y-48548D01*
X40772Y-48641D01*
X41013Y-48641D01*
X41235Y-48549D01*
X41405Y-48379D01*
X41497Y-48158D01*
X41497Y-47917D01*
X41480Y-47877D01*
X42715Y-48282D01*
X42760Y-48327D01*
X42974Y-48416D01*
X43205Y-48416D01*
X43419Y-48327D01*
X43583Y-48164D01*
X43671Y-47950D01*
X43672Y-47719D01*
X43672Y-50663D01*
X32593Y-50683D01*
X32593Y-44568D01*
X32250Y-42124D01*
X32537Y-40911D01*
X30202Y-38351D01*
X30123Y-38159D01*
X29959Y-37995D01*
X29746Y-37906D01*
X29514Y-37906D01*
X29470Y-37924D01*
X27167Y-37632D01*
X27116Y-37611D01*
X26999Y-37611D01*
X26958Y-37606D01*
X26948Y-37611D01*
X26884Y-37611D01*
X26671Y-37699D01*
X26570Y-37800D01*
X25939Y-38115D01*
X25860Y-38148D01*
X25846Y-38162D01*
X25836Y-38167D01*
X25806Y-38202D01*
X25696Y-38311D01*
X25682Y-38344D01*
X25382Y-38689D01*
X25320Y-38715D01*
X25156Y-38878D01*
X25100Y-39014D01*
X24787Y-39375D01*
X25160Y-39541D01*
X25319Y-39701D01*
X25533Y-39790D01*
X25665Y-39790D01*
X26910Y-40359D01*
X27517Y-44845D01*
X27521Y-44856D01*
X27521Y-44867D01*
X27554Y-44952D01*
X27574Y-45011D01*
X27579Y-45058D01*
X27635Y-45099D01*
X27658Y-45123D01*
X27718Y-45191D01*
X27729Y-45196D01*
X27737Y-45204D01*
X28955Y-46052D01*
X30141Y-46909D01*
X30144Y-46915D01*
X30307Y-47079D01*
X30471Y-47147D01*
X30909Y-47463D01*
X32593Y-44568D01*
X32593Y-50683D01*
X25416Y-50696D01*
X25416Y-43487D01*
X25351Y-43331D01*
X25306Y-41002D01*
X25360Y-40872D01*
X25361Y-40640D01*
X25272Y-40426D01*
X25109Y-40263D01*
X24895Y-40174D01*
X24664Y-40174D01*
X24450Y-40262D01*
X24286Y-40426D01*
X24198Y-40639D01*
X24197Y-40871D01*
X24262Y-41026D01*
X24307Y-43355D01*
X24253Y-43486D01*
X24253Y-43717D01*
X24341Y-43931D01*
X24504Y-44095D01*
X24718Y-44183D01*
X24949Y-44183D01*
X25163Y-44095D01*
X25327Y-43932D01*
X25416Y-43718D01*
X25416Y-43487D01*
X25416Y-50696D01*
X23636Y-50699D01*
X23636Y-41089D01*
X23548Y-40875D01*
X23384Y-40712D01*
X23233Y-40649D01*
X23278Y-40541D01*
X23278Y-40310D01*
X23190Y-40096D01*
X23026Y-39932D01*
X22845Y-39857D01*
X22845Y-36223D01*
X22845Y-34451D01*
X22727Y-34165D01*
X22508Y-33946D01*
X22222Y-33827D01*
X21912Y-33827D01*
X21626Y-33945D01*
X21407Y-34164D01*
X21288Y-34450D01*
X21288Y-34760D01*
X21406Y-35046D01*
X21625Y-35265D01*
X21911Y-35384D01*
X22221Y-35384D01*
X22507Y-35266D01*
X22726Y-35047D01*
X22844Y-34761D01*
X22845Y-34451D01*
X22845Y-36223D01*
X22727Y-35937D01*
X22508Y-35718D01*
X22222Y-35599D01*
X21912Y-35599D01*
X21626Y-35717D01*
X21407Y-35936D01*
X21288Y-36222D01*
X21288Y-36532D01*
X21406Y-36818D01*
X21625Y-37037D01*
X21911Y-37156D01*
X22221Y-37156D01*
X22507Y-37038D01*
X22726Y-36819D01*
X22844Y-36533D01*
X22845Y-36223D01*
X22845Y-39857D01*
X22813Y-39843D01*
X22581Y-39843D01*
X22367Y-39931D01*
X22204Y-40095D01*
X22115Y-40309D01*
X22115Y-40540D01*
X22141Y-40604D01*
X21814Y-42807D01*
X21798Y-42823D01*
X21709Y-43037D01*
X21709Y-43268D01*
X21798Y-43482D01*
X21961Y-43646D01*
X22093Y-43701D01*
X21921Y-44695D01*
X21771Y-44853D01*
X21572Y-44868D01*
X21474Y-44828D01*
X21243Y-44827D01*
X21029Y-44916D01*
X20865Y-45079D01*
X20776Y-45293D01*
X20776Y-45524D01*
X20865Y-45738D01*
X21028Y-45902D01*
X21242Y-45990D01*
X21473Y-45991D01*
X21672Y-45908D01*
X22052Y-45879D01*
X22137Y-45855D01*
X22223Y-45835D01*
X22235Y-45827D01*
X22248Y-45823D01*
X22318Y-45769D01*
X22390Y-45718D01*
X22787Y-45301D01*
X22815Y-45257D01*
X22851Y-45220D01*
X22869Y-45172D01*
X22896Y-45129D01*
X22905Y-45078D01*
X22924Y-45029D01*
X23524Y-41558D01*
X23547Y-41534D01*
X23636Y-41320D01*
X23636Y-41089D01*
X23636Y-50699D01*
X20687Y-50704D01*
X20687Y-43785D01*
X20602Y-43578D01*
X20444Y-43420D01*
X20391Y-43398D01*
X20443Y-43377D01*
X20601Y-43219D01*
X20687Y-43013D01*
X20687Y-42789D01*
X20602Y-42582D01*
X20444Y-42424D01*
X20386Y-42400D01*
X20443Y-42377D01*
X20601Y-42219D01*
X20687Y-42013D01*
X20687Y-41789D01*
X20602Y-41582D01*
X20444Y-41424D01*
X20386Y-41400D01*
X20443Y-41377D01*
X20601Y-41219D01*
X20687Y-41013D01*
X20687Y-40789D01*
X20602Y-40582D01*
X20444Y-40424D01*
X20238Y-40339D01*
X20014Y-40338D01*
X19808Y-40424D01*
X19649Y-40582D01*
X19564Y-40788D01*
X19564Y-41012D01*
X19593Y-41084D01*
X19444Y-40934D01*
X19238Y-40849D01*
X19014Y-40848D01*
X18808Y-40934D01*
X18649Y-41092D01*
X18564Y-41298D01*
X18564Y-41522D01*
X18649Y-41728D01*
X18807Y-41886D01*
X18865Y-41910D01*
X18808Y-41934D01*
X18649Y-42092D01*
X18564Y-42298D01*
X18564Y-42522D01*
X18649Y-42728D01*
X18807Y-42886D01*
X18865Y-42910D01*
X18808Y-42934D01*
X18649Y-43092D01*
X18564Y-43298D01*
X18564Y-43522D01*
X18649Y-43728D01*
X18807Y-43886D01*
X18860Y-43908D01*
X18808Y-43930D01*
X18649Y-44088D01*
X18564Y-44294D01*
X18564Y-44518D01*
X18649Y-44724D01*
X18807Y-44882D01*
X19013Y-44968D01*
X19237Y-44968D01*
X19443Y-44883D01*
X19601Y-44725D01*
X19687Y-44519D01*
X19687Y-44295D01*
X19658Y-44223D01*
X19807Y-44372D01*
X20013Y-44458D01*
X20237Y-44458D01*
X20443Y-44373D01*
X20601Y-44215D01*
X20687Y-44009D01*
X20687Y-43785D01*
X20687Y-50704D01*
X18526Y-50708D01*
X18526Y-45611D01*
X18526Y-39513D01*
X18420Y-39255D01*
X18223Y-39058D01*
X17966Y-38952D01*
X17688Y-38951D01*
X17430Y-39058D01*
X17234Y-39254D01*
X17144Y-39471D01*
X16894Y-39367D01*
X16463Y-39367D01*
X16065Y-39531D01*
X15760Y-39836D01*
X15594Y-40234D01*
X15594Y-40665D01*
X15758Y-41063D01*
X16063Y-41368D01*
X16461Y-41534D01*
X16892Y-41534D01*
X17290Y-41369D01*
X17595Y-41065D01*
X17761Y-40667D01*
X17761Y-40351D01*
X17965Y-40351D01*
X18222Y-40245D01*
X18419Y-40048D01*
X18526Y-39791D01*
X18526Y-39513D01*
X18526Y-45611D01*
X18420Y-45354D01*
X18223Y-45157D01*
X17966Y-45050D01*
X17761Y-45050D01*
X17761Y-44736D01*
X17597Y-44337D01*
X17292Y-44032D01*
X16894Y-43867D01*
X16463Y-43867D01*
X16065Y-44031D01*
X15760Y-44336D01*
X15594Y-44734D01*
X15594Y-45165D01*
X15758Y-45563D01*
X16063Y-45868D01*
X16461Y-46034D01*
X16892Y-46034D01*
X17144Y-45930D01*
X17233Y-46145D01*
X17429Y-46342D01*
X17687Y-46449D01*
X17965Y-46449D01*
X18222Y-46343D01*
X18419Y-46146D01*
X18526Y-45889D01*
X18526Y-45611D01*
X18526Y-50708D01*
X15983Y-50713D01*
X15983Y-48985D01*
X15819Y-48587D01*
X15514Y-48282D01*
X15258Y-48175D01*
X15258Y-45197D01*
X15173Y-44991D01*
X15015Y-44833D01*
X14957Y-44809D01*
X15014Y-44785D01*
X15172Y-44627D01*
X15258Y-44421D01*
X15258Y-44197D01*
X15258Y-40981D01*
X15173Y-40774D01*
X15015Y-40616D01*
X14957Y-40592D01*
X15014Y-40569D01*
X15172Y-40411D01*
X15258Y-40204D01*
X15258Y-39981D01*
X15173Y-39774D01*
X15015Y-39616D01*
X14809Y-39530D01*
X14585Y-39530D01*
X14379Y-39615D01*
X14220Y-39773D01*
X14135Y-39980D01*
X14134Y-40203D01*
X14220Y-40410D01*
X14378Y-40568D01*
X14435Y-40592D01*
X14379Y-40615D01*
X14220Y-40773D01*
X14135Y-40980D01*
X14134Y-41203D01*
X14220Y-41410D01*
X14378Y-41568D01*
X14584Y-41654D01*
X14808Y-41654D01*
X15014Y-41569D01*
X15172Y-41411D01*
X15258Y-41204D01*
X15258Y-40981D01*
X15258Y-44197D01*
X15173Y-43991D01*
X15015Y-43833D01*
X14809Y-43747D01*
X14585Y-43747D01*
X14379Y-43832D01*
X14220Y-43990D01*
X14135Y-44196D01*
X14134Y-44420D01*
X14220Y-44626D01*
X14378Y-44785D01*
X14435Y-44809D01*
X14379Y-44832D01*
X14220Y-44990D01*
X14135Y-45196D01*
X14134Y-45420D01*
X14220Y-45626D01*
X14378Y-45785D01*
X14584Y-45870D01*
X14808Y-45870D01*
X15014Y-45785D01*
X15172Y-45627D01*
X15258Y-45421D01*
X15258Y-45197D01*
X15258Y-48175D01*
X15116Y-48116D01*
X14685Y-48116D01*
X14287Y-48280D01*
X13982Y-48585D01*
X13816Y-48983D01*
X13816Y-49414D01*
X13980Y-49812D01*
X14285Y-50117D01*
X14683Y-50283D01*
X15114Y-50283D01*
X15512Y-50119D01*
X15817Y-49814D01*
X15983Y-49416D01*
X15983Y-48985D01*
X15983Y-50713D01*
X13455Y-50717D01*
X13455Y-34088D01*
X13580Y-34392D01*
X13885Y-34697D01*
X14283Y-34862D01*
X14714Y-34863D01*
X15112Y-34698D01*
X15417Y-34394D01*
X15583Y-33995D01*
X15583Y-33564D01*
X15419Y-33166D01*
X15114Y-32861D01*
X14716Y-32696D01*
X14285Y-32695D01*
X13887Y-32860D01*
X13582Y-33164D01*
X13455Y-33469D01*
X13455Y-32431D01*
X45128Y-32353D01*
X46349Y-32353D01*
M02*
