G04 #@! TF.GenerationSoftware,KiCad,Pcbnew,5.1.9-73d0e3b20d~88~ubuntu18.04.1*
G04 #@! TF.CreationDate,2021-04-05T21:15:54-07:00*
G04 #@! TF.ProjectId,accelgyro_mpu6050_d2r3,61636365-6c67-4797-926f-5f6d70753630,rev?*
G04 #@! TF.SameCoordinates,Original*
G04 #@! TF.FileFunction,Legend,Top*
G04 #@! TF.FilePolarity,Positive*
%FSLAX46Y46*%
G04 Gerber Fmt 4.6, Leading zero omitted, Abs format (unit mm)*
G04 Created by KiCad (PCBNEW 5.1.9-73d0e3b20d~88~ubuntu18.04.1) date 2021-04-05 21:15:54*
%MOMM*%
%LPD*%
G01*
G04 APERTURE LIST*
%ADD10C,0.250000*%
%ADD11C,0.200000*%
%ADD12C,0.125000*%
%ADD13C,0.127000*%
%ADD14C,0.149860*%
%ADD15C,0.200660*%
%ADD16C,0.150000*%
%ADD17C,0.099060*%
G04 APERTURE END LIST*
D10*
X145690476Y-93571428D02*
X146452380Y-93571428D01*
X146071428Y-93952380D02*
X146071428Y-93190476D01*
X147119047Y-93476190D02*
X147119047Y-93952380D01*
X146785714Y-92952380D02*
X147119047Y-93476190D01*
X147452380Y-92952380D01*
D11*
X169000000Y-92000000D02*
X135500000Y-92000000D01*
X169000000Y-109000000D02*
X169000000Y-92000000D01*
X135500000Y-109000000D02*
X169000000Y-109000000D01*
X135500000Y-92000000D02*
X135500000Y-109000000D01*
D12*
X137509523Y-93150000D02*
X137509523Y-93616666D01*
X137319047Y-92883333D02*
X137128571Y-93383333D01*
X137623809Y-93383333D01*
X138500000Y-92883333D02*
X137814285Y-93783333D01*
X139147619Y-92916666D02*
X138766666Y-92916666D01*
X138728571Y-93250000D01*
X138766666Y-93216666D01*
X138842857Y-93183333D01*
X139033333Y-93183333D01*
X139109523Y-93216666D01*
X139147619Y-93250000D01*
X139185714Y-93316666D01*
X139185714Y-93483333D01*
X139147619Y-93550000D01*
X139109523Y-93583333D01*
X139033333Y-93616666D01*
X138842857Y-93616666D01*
X138766666Y-93583333D01*
X138728571Y-93550000D01*
X140100000Y-92883333D02*
X139414285Y-93783333D01*
X140328571Y-92983333D02*
X140366666Y-92950000D01*
X140442857Y-92916666D01*
X140633333Y-92916666D01*
X140709523Y-92950000D01*
X140747619Y-92983333D01*
X140785714Y-93050000D01*
X140785714Y-93116666D01*
X140747619Y-93216666D01*
X140290476Y-93616666D01*
X140785714Y-93616666D01*
X141280952Y-92916666D02*
X141357142Y-92916666D01*
X141433333Y-92950000D01*
X141471428Y-92983333D01*
X141509523Y-93050000D01*
X141547619Y-93183333D01*
X141547619Y-93350000D01*
X141509523Y-93483333D01*
X141471428Y-93550000D01*
X141433333Y-93583333D01*
X141357142Y-93616666D01*
X141280952Y-93616666D01*
X141204761Y-93583333D01*
X141166666Y-93550000D01*
X141128571Y-93483333D01*
X141090476Y-93350000D01*
X141090476Y-93183333D01*
X141128571Y-93050000D01*
X141166666Y-92983333D01*
X141204761Y-92950000D01*
X141280952Y-92916666D01*
X141852380Y-92983333D02*
X141890476Y-92950000D01*
X141966666Y-92916666D01*
X142157142Y-92916666D01*
X142233333Y-92950000D01*
X142271428Y-92983333D01*
X142309523Y-93050000D01*
X142309523Y-93116666D01*
X142271428Y-93216666D01*
X141814285Y-93616666D01*
X142309523Y-93616666D01*
X143071428Y-93616666D02*
X142614285Y-93616666D01*
X142842857Y-93616666D02*
X142842857Y-92916666D01*
X142766666Y-93016666D01*
X142690476Y-93083333D01*
X142614285Y-93116666D01*
D10*
X136142857Y-102571428D02*
X136904761Y-102571428D01*
X137285714Y-101952380D02*
X137952380Y-102952380D01*
X137952380Y-101952380D02*
X137285714Y-102952380D01*
X166642857Y-102571428D02*
X167404761Y-102571428D01*
X167023809Y-102952380D02*
X167023809Y-102190476D01*
X167785714Y-101952380D02*
X168452380Y-102952380D01*
X168452380Y-101952380D02*
X167785714Y-102952380D01*
X136190476Y-108321428D02*
X136952380Y-108321428D01*
X137619047Y-108226190D02*
X137619047Y-108702380D01*
X137285714Y-107702380D02*
X137619047Y-108226190D01*
X137952380Y-107702380D01*
D13*
X140193600Y-105558800D02*
X141006400Y-105558800D01*
X140981000Y-104441200D02*
X140193600Y-104441200D01*
X141006400Y-104187200D02*
X141006400Y-105812800D01*
X141006400Y-105812800D02*
X140193600Y-105812800D01*
X140193600Y-105812800D02*
X140193600Y-104187200D01*
X140193600Y-104187200D02*
X141006400Y-104187200D01*
X145058800Y-95906400D02*
X145058800Y-95093600D01*
X143941200Y-95119000D02*
X143941200Y-95906400D01*
X143687200Y-95093600D02*
X145312800Y-95093600D01*
X145312800Y-95093600D02*
X145312800Y-95906400D01*
X145312800Y-95906400D02*
X143687200Y-95906400D01*
X143687200Y-95906400D02*
X143687200Y-95093600D01*
X141793600Y-105558800D02*
X142606400Y-105558800D01*
X142581000Y-104441200D02*
X141793600Y-104441200D01*
X142606400Y-104187200D02*
X142606400Y-105812800D01*
X142606400Y-105812800D02*
X141793600Y-105812800D01*
X141793600Y-105812800D02*
X141793600Y-104187200D01*
X141793600Y-104187200D02*
X142606400Y-104187200D01*
X143393600Y-105558800D02*
X144206400Y-105558800D01*
X144181000Y-104441200D02*
X143393600Y-104441200D01*
X144206400Y-104187200D02*
X144206400Y-105812800D01*
X144206400Y-105812800D02*
X143393600Y-105812800D01*
X143393600Y-105812800D02*
X143393600Y-104187200D01*
X143393600Y-104187200D02*
X144206400Y-104187200D01*
D14*
X141008640Y-97510800D02*
X145489200Y-97510800D01*
X140510800Y-98008640D02*
X140510800Y-102489200D01*
X140510800Y-98008640D02*
X141008640Y-97510800D01*
D15*
X141008640Y-98257560D02*
X141008640Y-98008640D01*
X141008640Y-98008640D02*
X141257560Y-98008640D01*
X141257560Y-101991360D02*
X141008640Y-101991360D01*
X141008640Y-101991360D02*
X141008640Y-101742440D01*
X144991360Y-101742440D02*
X144991360Y-101991360D01*
X144991360Y-101991360D02*
X144742440Y-101991360D01*
X144742440Y-98008640D02*
X144991360Y-98008640D01*
X144991360Y-98008640D02*
X144991360Y-98257560D01*
D14*
X145489200Y-102489200D02*
X140510800Y-102489200D01*
X145489200Y-97510800D02*
X145489200Y-102489200D01*
D13*
X144638000Y-104792000D02*
X144638000Y-103776000D01*
X144638000Y-103776000D02*
X146162000Y-103776000D01*
X146162000Y-103776000D02*
X146162000Y-104792000D01*
X146162000Y-105808000D02*
X146162000Y-106824000D01*
X146162000Y-106824000D02*
X144638000Y-106824000D01*
X144638000Y-106824000D02*
X144638000Y-105808000D01*
X146242000Y-98806000D02*
X147382000Y-98806000D01*
X146242000Y-96266000D02*
X147382000Y-96266000D01*
X146242000Y-98786000D02*
X146242000Y-96286000D01*
X147382000Y-96286000D02*
X147382000Y-98786000D01*
X148906000Y-96286000D02*
X148906000Y-98786000D01*
X147766000Y-98786000D02*
X147766000Y-96286000D01*
X147766000Y-96266000D02*
X148906000Y-96266000D01*
X147766000Y-98806000D02*
X148906000Y-98806000D01*
X162775000Y-106330000D02*
X162775000Y-92270000D01*
X149225000Y-92270000D02*
X162775000Y-92270000D01*
X149225000Y-106330000D02*
X149225000Y-92270000D01*
X162775000Y-106330000D02*
X149225000Y-106330000D01*
D16*
X139714285Y-105100000D02*
X139742857Y-105128571D01*
X139771428Y-105214285D01*
X139771428Y-105271428D01*
X139742857Y-105357142D01*
X139685714Y-105414285D01*
X139628571Y-105442857D01*
X139514285Y-105471428D01*
X139428571Y-105471428D01*
X139314285Y-105442857D01*
X139257142Y-105414285D01*
X139200000Y-105357142D01*
X139171428Y-105271428D01*
X139171428Y-105214285D01*
X139200000Y-105128571D01*
X139228571Y-105100000D01*
X139771428Y-104528571D02*
X139771428Y-104871428D01*
X139771428Y-104700000D02*
X139171428Y-104700000D01*
X139257142Y-104757142D01*
X139314285Y-104814285D01*
X139342857Y-104871428D01*
X139607142Y-107021428D02*
X139264285Y-107021428D01*
X139435714Y-107021428D02*
X139435714Y-106421428D01*
X139378571Y-106507142D01*
X139321428Y-106564285D01*
X139264285Y-106592857D01*
X139978571Y-106421428D02*
X140035714Y-106421428D01*
X140092857Y-106450000D01*
X140121428Y-106478571D01*
X140150000Y-106535714D01*
X140178571Y-106650000D01*
X140178571Y-106792857D01*
X140150000Y-106907142D01*
X140121428Y-106964285D01*
X140092857Y-106992857D01*
X140035714Y-107021428D01*
X139978571Y-107021428D01*
X139921428Y-106992857D01*
X139892857Y-106964285D01*
X139864285Y-106907142D01*
X139835714Y-106792857D01*
X139835714Y-106650000D01*
X139864285Y-106535714D01*
X139892857Y-106478571D01*
X139921428Y-106450000D01*
X139978571Y-106421428D01*
X140435714Y-106621428D02*
X140435714Y-107021428D01*
X140435714Y-106678571D02*
X140464285Y-106650000D01*
X140521428Y-106621428D01*
X140607142Y-106621428D01*
X140664285Y-106650000D01*
X140692857Y-106707142D01*
X140692857Y-107021428D01*
X141178571Y-106707142D02*
X140978571Y-106707142D01*
X140978571Y-107021428D02*
X140978571Y-106421428D01*
X141264285Y-106421428D01*
X142300000Y-95814285D02*
X142271428Y-95842857D01*
X142185714Y-95871428D01*
X142128571Y-95871428D01*
X142042857Y-95842857D01*
X141985714Y-95785714D01*
X141957142Y-95728571D01*
X141928571Y-95614285D01*
X141928571Y-95528571D01*
X141957142Y-95414285D01*
X141985714Y-95357142D01*
X142042857Y-95300000D01*
X142128571Y-95271428D01*
X142185714Y-95271428D01*
X142271428Y-95300000D01*
X142300000Y-95328571D01*
X142528571Y-95328571D02*
X142557142Y-95300000D01*
X142614285Y-95271428D01*
X142757142Y-95271428D01*
X142814285Y-95300000D01*
X142842857Y-95328571D01*
X142871428Y-95385714D01*
X142871428Y-95442857D01*
X142842857Y-95528571D01*
X142500000Y-95871428D01*
X142871428Y-95871428D01*
X143371428Y-94128571D02*
X143400000Y-94100000D01*
X143457142Y-94071428D01*
X143600000Y-94071428D01*
X143657142Y-94100000D01*
X143685714Y-94128571D01*
X143714285Y-94185714D01*
X143714285Y-94242857D01*
X143685714Y-94328571D01*
X143342857Y-94671428D01*
X143714285Y-94671428D01*
X143971428Y-94614285D02*
X144000000Y-94642857D01*
X143971428Y-94671428D01*
X143942857Y-94642857D01*
X143971428Y-94614285D01*
X143971428Y-94671428D01*
X144228571Y-94128571D02*
X144257142Y-94100000D01*
X144314285Y-94071428D01*
X144457142Y-94071428D01*
X144514285Y-94100000D01*
X144542857Y-94128571D01*
X144571428Y-94185714D01*
X144571428Y-94242857D01*
X144542857Y-94328571D01*
X144200000Y-94671428D01*
X144571428Y-94671428D01*
X144828571Y-94271428D02*
X144828571Y-94671428D01*
X144828571Y-94328571D02*
X144857142Y-94300000D01*
X144914285Y-94271428D01*
X145000000Y-94271428D01*
X145057142Y-94300000D01*
X145085714Y-94357142D01*
X145085714Y-94671428D01*
X145571428Y-94357142D02*
X145371428Y-94357142D01*
X145371428Y-94671428D02*
X145371428Y-94071428D01*
X145657142Y-94071428D01*
X142150000Y-108464285D02*
X142121428Y-108492857D01*
X142035714Y-108521428D01*
X141978571Y-108521428D01*
X141892857Y-108492857D01*
X141835714Y-108435714D01*
X141807142Y-108378571D01*
X141778571Y-108264285D01*
X141778571Y-108178571D01*
X141807142Y-108064285D01*
X141835714Y-108007142D01*
X141892857Y-107950000D01*
X141978571Y-107921428D01*
X142035714Y-107921428D01*
X142121428Y-107950000D01*
X142150000Y-107978571D01*
X142664285Y-108121428D02*
X142664285Y-108521428D01*
X142521428Y-107892857D02*
X142378571Y-108321428D01*
X142750000Y-108321428D01*
X141185714Y-107464285D02*
X141214285Y-107492857D01*
X141185714Y-107521428D01*
X141157142Y-107492857D01*
X141185714Y-107464285D01*
X141185714Y-107521428D01*
X141785714Y-107521428D02*
X141442857Y-107521428D01*
X141614285Y-107521428D02*
X141614285Y-106921428D01*
X141557142Y-107007142D01*
X141500000Y-107064285D01*
X141442857Y-107092857D01*
X142300000Y-107121428D02*
X142300000Y-107521428D01*
X142042857Y-107121428D02*
X142042857Y-107435714D01*
X142071428Y-107492857D01*
X142128571Y-107521428D01*
X142214285Y-107521428D01*
X142271428Y-107492857D01*
X142300000Y-107464285D01*
X142785714Y-107207142D02*
X142585714Y-107207142D01*
X142585714Y-107521428D02*
X142585714Y-106921428D01*
X142871428Y-106921428D01*
X143650000Y-108464285D02*
X143621428Y-108492857D01*
X143535714Y-108521428D01*
X143478571Y-108521428D01*
X143392857Y-108492857D01*
X143335714Y-108435714D01*
X143307142Y-108378571D01*
X143278571Y-108264285D01*
X143278571Y-108178571D01*
X143307142Y-108064285D01*
X143335714Y-108007142D01*
X143392857Y-107950000D01*
X143478571Y-107921428D01*
X143535714Y-107921428D01*
X143621428Y-107950000D01*
X143650000Y-107978571D01*
X144192857Y-107921428D02*
X143907142Y-107921428D01*
X143878571Y-108207142D01*
X143907142Y-108178571D01*
X143964285Y-108150000D01*
X144107142Y-108150000D01*
X144164285Y-108178571D01*
X144192857Y-108207142D01*
X144221428Y-108264285D01*
X144221428Y-108407142D01*
X144192857Y-108464285D01*
X144164285Y-108492857D01*
X144107142Y-108521428D01*
X143964285Y-108521428D01*
X143907142Y-108492857D01*
X143878571Y-108464285D01*
X143185714Y-107464285D02*
X143214285Y-107492857D01*
X143185714Y-107521428D01*
X143157142Y-107492857D01*
X143185714Y-107464285D01*
X143185714Y-107521428D01*
X143785714Y-107521428D02*
X143442857Y-107521428D01*
X143614285Y-107521428D02*
X143614285Y-106921428D01*
X143557142Y-107007142D01*
X143500000Y-107064285D01*
X143442857Y-107092857D01*
X144300000Y-107121428D02*
X144300000Y-107521428D01*
X144042857Y-107121428D02*
X144042857Y-107435714D01*
X144071428Y-107492857D01*
X144128571Y-107521428D01*
X144214285Y-107521428D01*
X144271428Y-107492857D01*
X144300000Y-107464285D01*
X144785714Y-107207142D02*
X144585714Y-107207142D01*
X144585714Y-107521428D02*
X144585714Y-106921428D01*
X144871428Y-106921428D01*
D11*
X143690476Y-96361904D02*
X143690476Y-97009523D01*
X143728571Y-97085714D01*
X143766666Y-97123809D01*
X143842857Y-97161904D01*
X143995238Y-97161904D01*
X144071428Y-97123809D01*
X144109523Y-97085714D01*
X144147619Y-97009523D01*
X144147619Y-96361904D01*
X144947619Y-97161904D02*
X144490476Y-97161904D01*
X144719047Y-97161904D02*
X144719047Y-96361904D01*
X144642857Y-96476190D01*
X144566666Y-96552380D01*
X144490476Y-96590476D01*
D12*
X136259523Y-97576190D02*
X136259523Y-97076190D01*
X136426190Y-97433333D01*
X136592857Y-97076190D01*
X136592857Y-97576190D01*
X136830952Y-97576190D02*
X136830952Y-97076190D01*
X137021428Y-97076190D01*
X137069047Y-97100000D01*
X137092857Y-97123809D01*
X137116666Y-97171428D01*
X137116666Y-97242857D01*
X137092857Y-97290476D01*
X137069047Y-97314285D01*
X137021428Y-97338095D01*
X136830952Y-97338095D01*
X137330952Y-97076190D02*
X137330952Y-97480952D01*
X137354761Y-97528571D01*
X137378571Y-97552380D01*
X137426190Y-97576190D01*
X137521428Y-97576190D01*
X137569047Y-97552380D01*
X137592857Y-97528571D01*
X137616666Y-97480952D01*
X137616666Y-97076190D01*
X137854761Y-97385714D02*
X138235714Y-97385714D01*
X138688095Y-97076190D02*
X138592857Y-97076190D01*
X138545238Y-97100000D01*
X138521428Y-97123809D01*
X138473809Y-97195238D01*
X138450000Y-97290476D01*
X138450000Y-97480952D01*
X138473809Y-97528571D01*
X138497619Y-97552380D01*
X138545238Y-97576190D01*
X138640476Y-97576190D01*
X138688095Y-97552380D01*
X138711904Y-97528571D01*
X138735714Y-97480952D01*
X138735714Y-97361904D01*
X138711904Y-97314285D01*
X138688095Y-97290476D01*
X138640476Y-97266666D01*
X138545238Y-97266666D01*
X138497619Y-97290476D01*
X138473809Y-97314285D01*
X138450000Y-97361904D01*
X139045238Y-97076190D02*
X139092857Y-97076190D01*
X139140476Y-97100000D01*
X139164285Y-97123809D01*
X139188095Y-97171428D01*
X139211904Y-97266666D01*
X139211904Y-97385714D01*
X139188095Y-97480952D01*
X139164285Y-97528571D01*
X139140476Y-97552380D01*
X139092857Y-97576190D01*
X139045238Y-97576190D01*
X138997619Y-97552380D01*
X138973809Y-97528571D01*
X138950000Y-97480952D01*
X138926190Y-97385714D01*
X138926190Y-97266666D01*
X138950000Y-97171428D01*
X138973809Y-97123809D01*
X138997619Y-97100000D01*
X139045238Y-97076190D01*
X139664285Y-97076190D02*
X139426190Y-97076190D01*
X139402380Y-97314285D01*
X139426190Y-97290476D01*
X139473809Y-97266666D01*
X139592857Y-97266666D01*
X139640476Y-97290476D01*
X139664285Y-97314285D01*
X139688095Y-97361904D01*
X139688095Y-97480952D01*
X139664285Y-97528571D01*
X139640476Y-97552380D01*
X139592857Y-97576190D01*
X139473809Y-97576190D01*
X139426190Y-97552380D01*
X139402380Y-97528571D01*
X139997619Y-97076190D02*
X140045238Y-97076190D01*
X140092857Y-97100000D01*
X140116666Y-97123809D01*
X140140476Y-97171428D01*
X140164285Y-97266666D01*
X140164285Y-97385714D01*
X140140476Y-97480952D01*
X140116666Y-97528571D01*
X140092857Y-97552380D01*
X140045238Y-97576190D01*
X139997619Y-97576190D01*
X139950000Y-97552380D01*
X139926190Y-97528571D01*
X139902380Y-97480952D01*
X139878571Y-97385714D01*
X139878571Y-97266666D01*
X139902380Y-97171428D01*
X139926190Y-97123809D01*
X139950000Y-97100000D01*
X139997619Y-97076190D01*
D16*
X146964285Y-105600000D02*
X146992857Y-105628571D01*
X147021428Y-105714285D01*
X147021428Y-105771428D01*
X146992857Y-105857142D01*
X146935714Y-105914285D01*
X146878571Y-105942857D01*
X146764285Y-105971428D01*
X146678571Y-105971428D01*
X146564285Y-105942857D01*
X146507142Y-105914285D01*
X146450000Y-105857142D01*
X146421428Y-105771428D01*
X146421428Y-105714285D01*
X146450000Y-105628571D01*
X146478571Y-105600000D01*
X146421428Y-105400000D02*
X146421428Y-105028571D01*
X146650000Y-105228571D01*
X146650000Y-105142857D01*
X146678571Y-105085714D01*
X146707142Y-105057142D01*
X146764285Y-105028571D01*
X146907142Y-105028571D01*
X146964285Y-105057142D01*
X146992857Y-105085714D01*
X147021428Y-105142857D01*
X147021428Y-105314285D01*
X146992857Y-105371428D01*
X146964285Y-105400000D01*
X145157142Y-107871428D02*
X145157142Y-108271428D01*
X145014285Y-107642857D02*
X144871428Y-108071428D01*
X145242857Y-108071428D01*
X145471428Y-108214285D02*
X145500000Y-108242857D01*
X145471428Y-108271428D01*
X145442857Y-108242857D01*
X145471428Y-108214285D01*
X145471428Y-108271428D01*
X145700000Y-107671428D02*
X146100000Y-107671428D01*
X145842857Y-108271428D01*
X146585714Y-107871428D02*
X146585714Y-108271428D01*
X146328571Y-107871428D02*
X146328571Y-108185714D01*
X146357142Y-108242857D01*
X146414285Y-108271428D01*
X146500000Y-108271428D01*
X146557142Y-108242857D01*
X146585714Y-108214285D01*
X147071428Y-107957142D02*
X146871428Y-107957142D01*
X146871428Y-108271428D02*
X146871428Y-107671428D01*
X147157142Y-107671428D01*
X146621428Y-103780952D02*
X146621428Y-103019047D01*
X147002380Y-103400000D02*
X146240476Y-103400000D01*
X146371428Y-99600000D02*
X146085714Y-99800000D01*
X146371428Y-99942857D02*
X145771428Y-99942857D01*
X145771428Y-99714285D01*
X145800000Y-99657142D01*
X145828571Y-99628571D01*
X145885714Y-99600000D01*
X145971428Y-99600000D01*
X146028571Y-99628571D01*
X146057142Y-99657142D01*
X146085714Y-99714285D01*
X146085714Y-99942857D01*
X146371428Y-99028571D02*
X146371428Y-99371428D01*
X146371428Y-99200000D02*
X145771428Y-99200000D01*
X145857142Y-99257142D01*
X145914285Y-99314285D01*
X145942857Y-99371428D01*
X146371428Y-95657142D02*
X146771428Y-95657142D01*
X146142857Y-95800000D02*
X146571428Y-95942857D01*
X146571428Y-95571428D01*
X146714285Y-95342857D02*
X146742857Y-95314285D01*
X146771428Y-95342857D01*
X146742857Y-95371428D01*
X146714285Y-95342857D01*
X146771428Y-95342857D01*
X146171428Y-95114285D02*
X146171428Y-94714285D01*
X146771428Y-94971428D01*
X146771428Y-94485714D02*
X146171428Y-94485714D01*
X146542857Y-94428571D02*
X146771428Y-94257142D01*
X146371428Y-94257142D02*
X146600000Y-94485714D01*
X148571428Y-100500000D02*
X148285714Y-100700000D01*
X148571428Y-100842857D02*
X147971428Y-100842857D01*
X147971428Y-100614285D01*
X148000000Y-100557142D01*
X148028571Y-100528571D01*
X148085714Y-100500000D01*
X148171428Y-100500000D01*
X148228571Y-100528571D01*
X148257142Y-100557142D01*
X148285714Y-100614285D01*
X148285714Y-100842857D01*
X148028571Y-100271428D02*
X148000000Y-100242857D01*
X147971428Y-100185714D01*
X147971428Y-100042857D01*
X148000000Y-99985714D01*
X148028571Y-99957142D01*
X148085714Y-99928571D01*
X148142857Y-99928571D01*
X148228571Y-99957142D01*
X148571428Y-100300000D01*
X148571428Y-99928571D01*
X148171428Y-95257142D02*
X148571428Y-95257142D01*
X147942857Y-95400000D02*
X148371428Y-95542857D01*
X148371428Y-95171428D01*
X148514285Y-94942857D02*
X148542857Y-94914285D01*
X148571428Y-94942857D01*
X148542857Y-94971428D01*
X148514285Y-94942857D01*
X148571428Y-94942857D01*
X147971428Y-94714285D02*
X147971428Y-94314285D01*
X148571428Y-94571428D01*
X148571428Y-94085714D02*
X147971428Y-94085714D01*
X148342857Y-94028571D02*
X148571428Y-93857142D01*
X148171428Y-93857142D02*
X148400000Y-94085714D01*
D17*
X165366413Y-96351964D02*
X165366413Y-97066793D01*
X165318758Y-97209759D01*
X165223447Y-97305069D01*
X165080481Y-97352724D01*
X164985171Y-97352724D01*
X166367173Y-97352724D02*
X165795310Y-97352724D01*
X166081241Y-97352724D02*
X166081241Y-96351964D01*
X165985931Y-96494930D01*
X165890620Y-96590240D01*
X165795310Y-96637896D01*
X163926997Y-93351964D02*
X163926997Y-94162103D01*
X163974652Y-94257414D01*
X164022307Y-94305069D01*
X164117618Y-94352724D01*
X164308239Y-94352724D01*
X164403549Y-94305069D01*
X164451204Y-94257414D01*
X164498860Y-94162103D01*
X164498860Y-93351964D01*
X164927757Y-94305069D02*
X165070722Y-94352724D01*
X165308999Y-94352724D01*
X165404309Y-94305069D01*
X165451964Y-94257414D01*
X165499620Y-94162103D01*
X165499620Y-94066793D01*
X165451964Y-93971482D01*
X165404309Y-93923827D01*
X165308999Y-93876172D01*
X165118378Y-93828517D01*
X165023067Y-93780861D01*
X164975412Y-93733206D01*
X164927757Y-93637896D01*
X164927757Y-93542585D01*
X164975412Y-93447275D01*
X165023067Y-93399620D01*
X165118378Y-93351964D01*
X165356654Y-93351964D01*
X165499620Y-93399620D01*
X166262103Y-93828517D02*
X166405069Y-93876172D01*
X166452724Y-93923827D01*
X166500380Y-94019138D01*
X166500380Y-94162103D01*
X166452724Y-94257414D01*
X166405069Y-94305069D01*
X166309759Y-94352724D01*
X165928517Y-94352724D01*
X165928517Y-93351964D01*
X166262103Y-93351964D01*
X166357414Y-93399620D01*
X166405069Y-93447275D01*
X166452724Y-93542585D01*
X166452724Y-93637896D01*
X166405069Y-93733206D01*
X166357414Y-93780861D01*
X166262103Y-93828517D01*
X165928517Y-93828517D01*
X166691000Y-94448035D02*
X167453484Y-94448035D01*
X167644105Y-94066793D02*
X168120658Y-94066793D01*
X167548795Y-94352724D02*
X167882381Y-93351964D01*
X168215968Y-94352724D01*
M02*
