M48
;DRILL file {KiCad 4.0.6-e0-6349~53~ubuntu16.04.1} date Sat Aug  5 15:09:52 2017
;FORMAT={-:-/ absolute / metric / decimal}
FMAT,2
METRIC,TZ
T1C0.300
T2C0.400
T3C0.500
T4C0.890
T5C1.000
T6C1.300
T7C3.000
T8C3.250
%
G90
G05
M71
T1
X86.65Y-127.05
X86.65Y-128.05
X86.65Y-129.05
X86.65Y-130.05
X86.65Y-131.05
X86.65Y-132.05
X86.65Y-133.05
X86.65Y-134.05
X86.65Y-135.05
X86.65Y-136.05
X86.65Y-137.05
X86.65Y-138.05
X86.65Y-139.05
X86.65Y-140.05
X86.65Y-141.05
X86.65Y-142.05
X86.65Y-143.05
X86.65Y-144.05
X86.65Y-145.05
X86.65Y-146.05
X86.65Y-147.05
X86.65Y-148.05
X86.65Y-149.25
X87.65Y-127.05
X87.65Y-128.05
X87.65Y-129.05
X87.65Y-130.05
X87.65Y-131.05
X87.65Y-132.05
X87.65Y-133.05
X87.65Y-134.05
X87.65Y-135.05
X87.65Y-136.05
X87.65Y-137.05
X87.65Y-138.05
X87.65Y-139.05
X87.65Y-140.05
X87.65Y-141.05
X87.65Y-142.05
X87.65Y-143.05
X87.65Y-144.05
X87.65Y-145.05
X87.65Y-146.05
X87.65Y-147.05
X87.65Y-148.05
X87.65Y-149.25
X88.65Y-127.05
X88.65Y-128.05
X88.65Y-129.05
X88.65Y-130.05
X88.65Y-131.05
X88.65Y-132.05
X88.65Y-135.05
X88.65Y-136.05
X88.65Y-137.05
X88.65Y-138.05
X88.65Y-139.05
X88.65Y-140.05
X88.65Y-141.05
X88.65Y-142.05
X88.65Y-143.05
X88.65Y-144.05
X88.65Y-145.05
X88.65Y-146.05
X88.65Y-147.05
X88.65Y-148.05
X88.65Y-149.25
X89.65Y-127.05
X89.65Y-128.05
X89.65Y-129.05
X89.65Y-130.05
X89.65Y-131.05
X89.65Y-136.05
X89.65Y-137.05
X89.65Y-138.05
X89.65Y-139.05
X89.65Y-140.05
X89.65Y-141.05
X89.65Y-142.05
X89.65Y-143.05
X89.65Y-144.05
X89.65Y-145.05
X89.65Y-146.05
X89.65Y-147.05
X89.65Y-148.05
X89.65Y-149.25
X90.65Y-127.05
X90.65Y-128.05
X90.65Y-129.05
X90.65Y-130.05
X90.65Y-131.05
X90.65Y-136.05
X90.65Y-137.05
X90.65Y-138.05
X90.65Y-139.05
X90.65Y-140.05
X90.65Y-141.05
X90.65Y-142.05
X90.65Y-143.05
X90.65Y-144.05
X90.65Y-145.05
X90.65Y-146.05
X90.65Y-147.05
X90.65Y-148.05
X90.65Y-149.25
X91.65Y-136.05
X91.65Y-137.05
X91.65Y-138.05
X91.65Y-149.25
X92.05Y-127.05
X92.05Y-128.05
X92.05Y-129.05
X92.05Y-130.05
X92.65Y-136.05
X92.65Y-137.05
X92.65Y-138.05
X92.65Y-149.25
X93.05Y-127.05
X93.05Y-128.05
X93.05Y-129.05
X93.05Y-130.05
X93.65Y-138.05
X93.65Y-149.25
X94.05Y-127.05
X94.05Y-128.05
X94.05Y-129.05
X94.05Y-130.05
X94.65Y-138.05
X94.65Y-149.25
X95.05Y-127.05
X95.05Y-128.05
X95.05Y-129.05
X95.05Y-130.05
X95.65Y-149.25
X96.05Y-127.05
X96.05Y-128.05
X96.05Y-129.05
X96.05Y-130.05
X96.65Y-149.25
X97.05Y-127.05
X97.05Y-128.05
X97.05Y-129.05
X97.05Y-130.05
X97.65Y-141.85
X97.65Y-143.35
X97.65Y-144.85
X97.65Y-146.45
X97.65Y-147.95
X97.65Y-149.25
X98.15Y-127.25
X98.25Y-130.35
X98.65Y-141.85
X98.65Y-143.35
X98.65Y-144.85
X98.65Y-146.45
X98.65Y-147.95
X98.65Y-149.25
X99.15Y-127.25
X99.65Y-141.85
X99.65Y-143.35
X99.65Y-144.85
X99.65Y-146.45
X99.65Y-147.95
X99.65Y-149.25
X99.75Y-138.35
X100.65Y-143.35
X100.65Y-144.85
X100.65Y-146.45
X100.65Y-147.95
X100.65Y-149.25
X100.75Y-138.35
X100.95Y-139.95
X101.65Y-144.85
X101.65Y-146.45
X101.65Y-147.95
X101.65Y-149.25
X101.75Y-138.35
X101.95Y-139.95
X102.15Y-141.15
X102.3Y-60.9
X102.3Y-62.
X102.3Y-63.1
X102.65Y-144.85
X102.65Y-146.45
X102.65Y-147.95
X102.65Y-149.25
X102.95Y-139.95
X103.15Y-141.15
X103.4Y-60.9
X103.4Y-62.
X103.4Y-63.1
X103.55Y-142.55
X103.65Y-146.45
X103.65Y-147.95
X103.65Y-149.25
X104.15Y-141.15
X104.5Y-60.9
X104.5Y-62.
X104.5Y-63.1
X104.55Y-142.55
X104.65Y-147.95
X104.65Y-149.25
X104.95Y-143.95
X105.35Y-136.25
X105.35Y-137.65
X105.55Y-142.55
X105.6Y-60.9
X105.6Y-62.
X105.6Y-63.1
X105.65Y-149.25
X105.95Y-126.95
X105.95Y-143.95
X105.95Y-145.35
X106.25Y-133.15
X106.35Y-136.25
X106.35Y-137.65
X106.35Y-139.05
X106.65Y-149.25
X106.7Y-60.9
X106.7Y-62.
X106.7Y-63.1
X106.95Y-126.95
X106.95Y-127.95
X106.95Y-143.95
X106.95Y-145.35
X107.35Y-134.75
X107.35Y-136.25
X107.35Y-137.65
X107.35Y-139.05
X107.65Y-149.25
X107.95Y-126.95
X107.95Y-127.95
X107.95Y-128.95
X108.35Y-134.75
X108.35Y-136.25
X108.35Y-137.65
X108.35Y-139.05
X108.65Y-149.25
X108.95Y-126.95
X108.95Y-127.95
X108.95Y-128.95
X108.95Y-129.95
X109.35Y-136.25
X109.35Y-137.65
X109.35Y-139.05
X109.65Y-149.25
X109.7Y-73.2
X109.7Y-74.3
X109.7Y-75.4
X109.95Y-126.95
X109.95Y-127.95
X109.95Y-128.95
X109.95Y-129.95
X109.95Y-130.95
X110.25Y-136.65
X110.35Y-137.65
X110.35Y-139.05
X110.8Y-73.2
X110.8Y-74.3
X110.8Y-75.4
X110.95Y-126.95
X110.95Y-127.95
X110.95Y-128.95
X110.95Y-129.95
X110.95Y-130.95
X110.95Y-132.05
X110.95Y-149.25
X111.35Y-137.65
X111.35Y-139.05
X111.9Y-73.2
X111.9Y-74.3
X111.9Y-75.4
X111.95Y-126.95
X111.95Y-127.95
X111.95Y-128.95
X111.95Y-129.95
X111.95Y-130.95
X111.95Y-132.05
X112.15Y-149.25
X112.35Y-139.05
X112.95Y-126.95
X112.95Y-127.95
X112.95Y-128.95
X112.95Y-129.95
X112.95Y-130.95
X112.95Y-132.05
X113.Y-73.2
X113.Y-74.3
X113.Y-75.4
X113.25Y-149.25
X113.95Y-126.95
X113.95Y-127.95
X113.95Y-128.95
X113.95Y-129.95
X113.95Y-130.95
X114.1Y-73.2
X114.1Y-74.3
X114.1Y-75.4
X114.25Y-148.25
X114.25Y-149.25
X114.95Y-126.95
X114.95Y-127.95
X114.95Y-128.95
X114.95Y-129.95
X114.95Y-130.95
X115.25Y-147.25
X115.25Y-148.25
X115.25Y-149.25
X116.05Y-127.05
X116.05Y-127.95
X116.05Y-128.95
X116.05Y-129.95
X116.05Y-130.95
X116.25Y-145.25
X116.25Y-146.25
X116.25Y-147.25
X116.25Y-148.25
X116.25Y-149.25
X116.9Y-102.3
X116.9Y-103.4
X116.9Y-104.5
X116.9Y-105.6
X116.9Y-106.7
X117.15Y-127.05
X117.15Y-128.05
X117.15Y-129.05
X117.15Y-130.05
X117.15Y-131.05
X117.15Y-132.05
X117.15Y-133.05
X117.15Y-134.05
X117.15Y-135.05
X117.15Y-136.05
X117.15Y-137.05
X117.25Y-145.25
X117.25Y-146.25
X117.25Y-147.25
X117.25Y-148.25
X117.25Y-149.25
X118.Y-102.3
X118.Y-103.4
X118.Y-104.5
X118.Y-105.6
X118.Y-106.7
X118.25Y-127.05
X118.25Y-128.05
X118.25Y-129.05
X118.25Y-130.05
X118.25Y-131.05
X118.25Y-132.05
X118.25Y-133.05
X118.25Y-134.05
X118.25Y-135.05
X118.25Y-136.05
X118.25Y-137.05
X118.25Y-138.05
X118.25Y-139.05
X118.25Y-140.05
X118.25Y-141.05
X118.25Y-142.05
X118.25Y-143.05
X118.25Y-144.05
X118.25Y-145.25
X118.25Y-146.25
X118.25Y-147.25
X118.25Y-148.25
X118.25Y-149.25
X119.1Y-102.3
X119.1Y-103.4
X119.1Y-104.5
X119.1Y-105.6
X119.1Y-106.7
X120.8Y-126.85
X120.8Y-127.85
X120.8Y-128.85
X120.8Y-129.85
X120.8Y-131.05
X120.8Y-132.05
X120.8Y-133.05
X120.8Y-134.05
X120.8Y-135.05
X120.8Y-136.05
X120.8Y-137.05
X120.8Y-138.05
X120.8Y-139.05
X120.8Y-140.05
X120.8Y-141.05
X120.8Y-142.05
X120.8Y-143.05
X120.8Y-144.05
X120.8Y-145.05
X120.8Y-146.05
X120.8Y-147.05
X120.8Y-148.05
X120.8Y-149.15
X120.8Y-150.15
X121.8Y-126.85
X121.8Y-127.85
X121.8Y-128.85
X121.8Y-129.85
X121.8Y-131.05
X121.8Y-132.05
X121.8Y-133.05
X121.8Y-134.05
X121.8Y-135.05
X121.9Y-136.15
X121.9Y-137.15
X121.9Y-138.05
X121.9Y-139.05
X121.9Y-140.05
X121.9Y-141.05
X121.9Y-142.05
X121.9Y-143.05
X121.9Y-144.05
X121.9Y-145.05
X121.9Y-146.05
X121.9Y-147.05
X121.9Y-148.05
X121.9Y-149.15
X121.9Y-150.15
X122.8Y-126.85
X122.8Y-127.85
X122.8Y-128.85
X122.8Y-129.85
X122.8Y-131.05
X122.8Y-132.05
X122.8Y-133.05
X122.8Y-134.05
X122.8Y-135.05
X122.9Y-136.15
X123.Y-140.05
X123.Y-141.05
X123.Y-142.05
X123.Y-146.05
X123.Y-147.05
X123.Y-148.05
X123.Y-149.15
X123.Y-150.15
X123.1Y-138.05
X123.1Y-139.05
X123.2Y-136.95
X123.8Y-126.85
X123.8Y-127.85
X123.8Y-128.85
X123.8Y-129.85
X123.8Y-131.05
X123.8Y-132.05
X123.8Y-133.05
X123.8Y-134.05
X123.8Y-135.05
X124.Y-139.05
X124.Y-140.05
X124.1Y-136.15
X124.1Y-136.95
X124.1Y-138.05
X124.1Y-141.05
X124.1Y-145.95
X124.1Y-147.05
X124.1Y-148.05
X124.1Y-149.15
X124.1Y-150.15
X124.8Y-126.85
X124.8Y-127.85
X124.8Y-128.85
X124.8Y-129.85
X124.8Y-131.05
X124.8Y-132.05
X124.8Y-133.05
X124.8Y-134.05
X124.8Y-135.05
X125.Y-136.95
X125.Y-138.15
X125.1Y-139.05
X125.1Y-140.05
X125.1Y-141.05
X125.1Y-145.95
X125.1Y-147.05
X125.1Y-148.05
X125.1Y-149.15
X125.1Y-150.15
X125.8Y-126.85
X125.8Y-127.85
X125.8Y-128.85
X125.8Y-129.85
X126.1Y-145.95
X126.1Y-147.05
X126.1Y-148.05
X126.1Y-149.15
X126.1Y-150.15
X126.8Y-126.85
X126.8Y-127.85
X126.8Y-128.85
X126.8Y-129.85
X127.1Y-145.95
X127.1Y-147.05
X127.1Y-148.05
X127.1Y-149.15
X127.1Y-150.15
X127.8Y-126.85
X127.8Y-127.85
X127.8Y-128.85
X127.8Y-129.85
X127.925Y-71.95
X127.925Y-73.05
X127.925Y-74.15
X127.925Y-75.25
X127.925Y-76.35
X128.1Y-149.15
X128.1Y-150.15
X128.8Y-126.85
X128.8Y-127.85
X128.8Y-128.85
X129.025Y-71.95
X129.025Y-73.05
X129.025Y-74.15
X129.025Y-75.25
X129.025Y-76.35
X129.1Y-149.15
X129.1Y-150.15
X129.425Y-103.975
X129.425Y-105.075
X129.425Y-106.175
X129.425Y-107.275
X129.425Y-108.375
X129.8Y-126.85
X129.8Y-127.85
X129.8Y-128.85
X130.1Y-149.15
X130.1Y-150.15
X130.125Y-71.95
X130.125Y-73.05
X130.125Y-74.15
X130.125Y-75.25
X130.125Y-76.35
X130.525Y-103.975
X130.525Y-105.075
X130.525Y-106.175
X130.525Y-107.275
X130.525Y-108.375
X130.8Y-126.85
X130.8Y-127.85
X130.8Y-128.85
X131.2Y-150.15
X131.625Y-103.975
X131.625Y-105.075
X131.625Y-106.175
X131.625Y-107.275
X131.625Y-108.375
X131.8Y-126.85
X131.8Y-127.85
X131.8Y-128.85
X132.2Y-149.15
X132.2Y-150.15
X132.8Y-126.85
X132.8Y-127.85
X132.8Y-128.85
X133.2Y-150.15
X133.8Y-126.85
X133.8Y-127.85
X133.8Y-128.85
X140.Y-141.05
X140.Y-142.05
X140.8Y-61.9
X140.8Y-63.
X140.8Y-64.1
X141.Y-141.05
X141.Y-142.05
X141.9Y-61.9
X141.9Y-63.
X141.9Y-64.1
X142.Y-126.85
X142.Y-127.85
X142.Y-128.85
X142.Y-129.85
X142.Y-141.05
X142.Y-142.05
X142.Y-143.05
X142.Y-144.05
X142.Y-145.05
X142.Y-146.05
X142.Y-147.15
X142.Y-148.15
X142.Y-149.25
X142.Y-150.25
X143.Y-61.9
X143.Y-63.
X143.Y-64.1
X143.Y-126.85
X143.Y-127.85
X143.Y-128.85
X143.Y-129.85
X143.Y-141.05
X143.Y-142.05
X143.Y-143.05
X143.Y-144.05
X143.Y-145.05
X143.Y-146.05
X143.Y-147.15
X143.Y-148.15
X143.Y-149.25
X143.Y-150.25
X144.Y-126.85
X144.Y-127.85
X144.Y-128.85
X144.Y-129.85
X144.Y-141.05
X144.Y-142.05
X144.Y-143.05
X144.Y-144.05
X144.Y-145.05
X144.Y-146.05
X144.Y-147.15
X144.Y-148.15
X144.Y-149.25
X144.Y-150.25
X144.1Y-61.9
X144.1Y-63.
X144.1Y-64.1
X145.Y-126.85
X145.Y-127.85
X145.Y-128.85
X145.Y-129.85
X145.Y-141.05
X145.Y-142.05
X145.Y-143.05
X145.Y-144.05
X145.Y-145.05
X145.Y-146.05
X145.Y-147.05
X145.Y-148.05
X145.Y-149.15
X145.Y-150.15
X145.2Y-61.9
X145.2Y-63.
X145.2Y-64.1
X146.Y-126.85
X146.Y-127.85
X146.Y-128.85
X146.Y-129.85
X146.Y-141.05
X146.Y-142.05
X146.Y-143.05
X146.Y-144.05
X146.Y-145.05
X146.Y-146.05
X146.Y-147.05
X146.Y-148.05
X146.Y-149.15
X146.Y-150.15
X147.1Y-126.85
X147.1Y-127.85
X147.1Y-128.85
X147.1Y-129.85
X147.1Y-141.15
X147.1Y-142.05
X147.1Y-146.05
X147.1Y-147.05
X147.1Y-148.05
X147.1Y-149.15
X147.1Y-150.15
X148.1Y-126.85
X148.1Y-127.85
X148.1Y-128.85
X148.1Y-129.85
X148.1Y-141.05
X148.1Y-146.05
X148.1Y-147.05
X148.1Y-148.05
X148.1Y-149.15
X148.1Y-150.15
X149.1Y-126.85
X149.1Y-127.85
X149.1Y-128.85
X149.1Y-129.85
X149.1Y-141.05
X149.1Y-146.05
X149.1Y-147.05
X149.1Y-148.05
X149.1Y-149.15
X149.1Y-150.15
X150.1Y-126.85
X150.1Y-127.85
X150.1Y-128.85
X150.1Y-129.85
X150.1Y-130.85
X150.1Y-131.85
X150.1Y-132.85
X150.1Y-133.85
X150.1Y-134.95
X150.1Y-135.95
X150.1Y-137.05
X150.1Y-138.05
X150.1Y-139.05
X150.1Y-140.05
X150.1Y-141.15
X150.1Y-142.05
X150.1Y-146.05
X150.1Y-147.05
X150.1Y-148.05
X150.1Y-149.15
X150.1Y-150.15
X151.1Y-126.85
X151.1Y-127.85
X151.1Y-128.85
X151.1Y-129.85
X151.1Y-130.85
X151.1Y-131.85
X151.1Y-132.85
X151.1Y-133.85
X151.1Y-134.95
X151.1Y-135.95
X151.1Y-137.05
X151.1Y-138.15
X151.1Y-139.15
X151.1Y-140.15
X151.1Y-141.15
X151.1Y-142.05
X151.1Y-143.05
X151.1Y-144.05
X151.1Y-145.05
X151.1Y-146.05
X151.1Y-147.05
X151.1Y-148.05
X151.1Y-149.15
X151.1Y-150.15
X151.65Y-104.07
X151.65Y-105.17
X151.65Y-106.27
X151.65Y-107.37
X151.65Y-108.47
X152.1Y-126.85
X152.1Y-127.85
X152.1Y-128.85
X152.1Y-129.85
X152.1Y-130.85
X152.1Y-131.85
X152.1Y-132.85
X152.1Y-133.85
X152.1Y-134.95
X152.1Y-135.95
X152.1Y-137.05
X152.1Y-138.15
X152.1Y-139.15
X152.1Y-140.15
X152.1Y-141.15
X152.1Y-142.05
X152.1Y-143.05
X152.1Y-144.05
X152.1Y-145.05
X152.1Y-146.05
X152.1Y-147.05
X152.1Y-148.05
X152.1Y-149.15
X152.1Y-150.15
X152.75Y-104.07
X152.75Y-105.17
X152.75Y-106.27
X152.75Y-107.37
X152.75Y-108.47
X153.85Y-104.07
X153.85Y-105.17
X153.85Y-106.27
X153.85Y-107.37
X153.85Y-108.47
X154.05Y-129.05
X154.05Y-130.05
X154.05Y-131.05
X154.05Y-132.05
X154.05Y-133.05
X154.05Y-134.25
X154.05Y-135.25
X154.05Y-136.25
X154.05Y-137.25
X154.05Y-138.25
X154.05Y-139.25
X154.05Y-140.25
X154.05Y-141.25
X154.05Y-142.25
X154.05Y-143.25
X154.05Y-144.25
X154.05Y-145.25
X154.05Y-146.25
X154.05Y-147.25
X154.05Y-148.25
X155.05Y-129.05
X155.05Y-130.05
X155.05Y-131.05
X155.05Y-132.05
X155.05Y-133.05
X155.05Y-134.25
X155.05Y-135.25
X155.05Y-136.25
X155.05Y-137.25
X155.05Y-138.25
X155.05Y-139.25
X155.05Y-140.25
X155.15Y-141.25
X155.15Y-142.25
X155.15Y-143.25
X155.15Y-144.25
X155.15Y-145.25
X155.15Y-146.25
X155.15Y-147.25
X155.15Y-148.25
X156.05Y-129.05
X156.05Y-130.05
X156.05Y-131.05
X156.05Y-132.05
X156.05Y-133.05
X157.05Y-129.05
X157.05Y-130.05
X157.05Y-131.05
X158.05Y-129.05
X158.05Y-130.05
X159.05Y-129.05
X159.95Y-139.25
X160.15Y-129.05
X160.35Y-146.25
X160.35Y-147.35
X160.35Y-148.35
X160.95Y-139.25
X160.95Y-140.65
X161.35Y-129.05
X161.35Y-146.25
X161.35Y-147.35
X161.35Y-148.35
X161.95Y-139.25
X161.95Y-140.65
X162.05Y-141.65
X162.1Y-59.5
X162.1Y-60.6
X162.1Y-61.7
X162.1Y-62.8
X162.1Y-63.9
X162.35Y-147.35
X162.35Y-148.35
X162.375Y-66.15
X162.375Y-67.25
X162.375Y-68.35
X162.375Y-69.45
X162.375Y-70.55
X162.65Y-129.05
X162.8Y-75.7
X162.8Y-76.8
X162.8Y-77.9
X162.8Y-79.
X162.8Y-80.1
X162.95Y-139.25
X162.95Y-140.65
X162.95Y-142.05
X163.2Y-59.5
X163.2Y-60.6
X163.2Y-61.7
X163.2Y-62.8
X163.2Y-63.9
X163.35Y-148.35
X163.475Y-66.15
X163.475Y-67.25
X163.475Y-68.35
X163.475Y-69.45
X163.475Y-70.55
X163.65Y-129.05
X163.8Y-99.68
X163.8Y-100.78
X163.8Y-101.88
X163.8Y-102.98
X163.8Y-104.08
X163.9Y-75.7
X163.9Y-76.8
X163.9Y-77.9
X163.9Y-79.
X163.9Y-80.1
X163.95Y-139.25
X163.95Y-140.65
X163.95Y-142.05
X164.3Y-59.5
X164.3Y-60.6
X164.3Y-61.7
X164.3Y-62.8
X164.3Y-63.9
X164.575Y-66.15
X164.575Y-67.25
X164.575Y-68.35
X164.575Y-69.45
X164.575Y-70.55
X164.65Y-129.05
X164.9Y-99.68
X164.9Y-100.78
X164.9Y-101.88
X164.9Y-102.98
X164.9Y-104.08
X164.95Y-139.25
X164.95Y-140.65
X164.95Y-142.05
X164.95Y-143.55
X165.Y-75.7
X165.Y-76.8
X165.Y-77.9
X165.Y-79.
X165.Y-80.1
X165.35Y-132.95
X165.65Y-129.05
X165.95Y-139.25
X165.95Y-140.65
X165.95Y-142.05
X166.Y-99.68
X166.Y-100.78
X166.Y-101.88
X166.Y-102.98
X166.Y-104.08
X166.35Y-134.35
X166.65Y-129.05
X167.35Y-134.35
X167.65Y-129.05
X167.65Y-130.35
X167.75Y-135.75
X168.65Y-129.05
X168.65Y-130.35
X168.65Y-131.85
X168.75Y-135.75
X169.15Y-137.15
X169.35Y-138.35
X169.65Y-129.05
X169.65Y-130.35
X169.65Y-131.85
X169.65Y-133.45
X170.15Y-137.15
X170.35Y-138.35
X170.55Y-139.95
X170.65Y-129.05
X170.65Y-130.35
X170.65Y-131.85
X170.65Y-133.45
X171.55Y-139.95
X171.65Y-129.05
X171.65Y-130.35
X171.65Y-131.85
X171.65Y-133.45
X171.65Y-134.95
X172.65Y-129.05
X172.65Y-130.35
X172.65Y-131.85
X172.65Y-133.45
X172.65Y-134.95
X172.65Y-136.45
X173.25Y-146.25
X173.25Y-147.25
X173.25Y-148.25
X173.65Y-129.05
X173.65Y-130.35
X173.65Y-131.85
X173.65Y-133.45
X173.65Y-134.95
X173.65Y-136.45
X174.25Y-146.25
X174.25Y-147.25
X174.25Y-148.25
X174.65Y-129.05
X174.65Y-130.35
X174.65Y-131.85
X174.65Y-133.45
X174.65Y-134.95
X174.65Y-136.45
X175.25Y-146.25
X175.25Y-147.25
X175.25Y-148.25
X175.65Y-129.05
X176.25Y-142.25
X176.25Y-143.25
X176.25Y-144.25
X176.25Y-145.25
X176.25Y-146.25
X176.25Y-147.25
X176.25Y-148.25
X176.35Y-110.09
X176.35Y-111.19
X176.35Y-112.29
X176.35Y-113.39
X176.35Y-114.49
X176.4Y-89.35
X176.4Y-90.45
X176.4Y-91.55
X176.4Y-92.65
X176.4Y-93.75
X176.65Y-129.05
X177.25Y-142.25
X177.25Y-143.25
X177.25Y-144.25
X177.25Y-145.25
X177.25Y-146.25
X177.25Y-147.25
X177.25Y-148.25
X177.45Y-110.09
X177.45Y-111.19
X177.45Y-112.29
X177.45Y-113.39
X177.45Y-114.49
X177.5Y-89.35
X177.5Y-90.45
X177.5Y-91.55
X177.5Y-92.65
X177.5Y-93.75
X177.65Y-129.05
X177.65Y-140.25
X178.25Y-142.25
X178.25Y-143.25
X178.25Y-144.25
X178.25Y-145.25
X178.25Y-146.25
X178.25Y-147.25
X178.25Y-148.25
X178.55Y-110.09
X178.55Y-111.19
X178.55Y-112.29
X178.55Y-113.39
X178.55Y-114.49
X178.6Y-89.35
X178.6Y-90.45
X178.6Y-91.55
X178.6Y-92.65
X178.6Y-93.75
X178.65Y-129.05
X178.65Y-140.25
X179.25Y-142.25
X179.25Y-143.25
X179.25Y-144.25
X179.25Y-145.25
X179.25Y-146.25
X179.25Y-147.25
X179.25Y-148.25
X179.65Y-129.05
X179.65Y-140.25
X179.65Y-141.25
X180.65Y-129.05
X180.65Y-140.25
X180.65Y-141.25
X181.65Y-129.05
X181.65Y-130.25
X181.65Y-131.25
X181.65Y-132.25
X181.65Y-133.25
X181.65Y-134.25
X181.65Y-135.25
X181.65Y-136.25
X181.65Y-137.25
X181.65Y-138.25
X181.65Y-139.25
X181.65Y-140.25
X181.65Y-141.25
X182.65Y-129.05
X182.65Y-130.25
X182.65Y-131.25
X182.65Y-132.25
X182.65Y-133.25
X182.65Y-134.25
X182.65Y-135.25
X182.65Y-136.25
X182.65Y-137.25
X182.65Y-138.25
X182.65Y-139.25
X182.65Y-140.25
X182.65Y-141.25
X183.65Y-129.05
X183.65Y-130.25
X183.65Y-131.25
X183.65Y-132.25
X183.65Y-133.25
X183.65Y-134.25
X183.65Y-135.25
X183.65Y-136.25
X183.65Y-137.25
X183.65Y-138.25
X183.65Y-139.25
X183.65Y-140.25
X183.65Y-141.25
X183.65Y-142.25
X183.65Y-143.25
X183.65Y-148.25
X184.65Y-129.05
X184.65Y-130.25
X184.65Y-131.25
X184.65Y-132.25
X184.65Y-133.25
X184.65Y-134.25
X184.65Y-135.25
X184.65Y-136.25
X184.65Y-137.25
X184.65Y-138.25
X184.65Y-139.25
X184.65Y-140.25
X184.65Y-141.25
X184.65Y-142.25
X184.65Y-143.25
X184.65Y-144.25
X184.65Y-145.25
X184.65Y-146.25
X184.65Y-147.25
X184.65Y-148.25
X185.65Y-129.05
X185.65Y-130.25
X185.65Y-131.25
X185.65Y-132.25
X185.65Y-133.25
X185.65Y-134.25
X185.65Y-135.25
X185.65Y-136.25
X185.65Y-137.25
X185.65Y-138.25
X185.65Y-139.25
X185.65Y-140.25
X185.65Y-141.25
X185.65Y-142.25
X185.65Y-143.25
X185.65Y-144.25
X185.65Y-145.25
X185.65Y-146.25
X185.65Y-147.25
X185.65Y-148.25
T2
X87.7Y-72.1
X93.6Y-99.86
X95.35Y-135.85
X97.Y-55.7
X97.35Y-135.25
X97.45Y-99.02
X98.65Y-128.75
X99.6Y-59.5
X100.45Y-128.75
X100.775Y-55.35
X102.902Y-128.298
X103.275Y-70.5
X103.3Y-79.375
X105.7Y-134.8
X107.5Y-65.025
X107.5Y-72.05
X107.875Y-119.525
X108.125Y-104.85
X108.55Y-60.475
X108.93Y-99.25
X109.575Y-81.7
X109.775Y-119.375
X109.8Y-66.2
X110.25Y-59.775
X110.5Y-98.
X110.75Y-79.775
X110.75Y-119.975
X110.775Y-80.875
X111.3Y-102.675
X111.95Y-55.1
X112.275Y-78.775
X113.025Y-105.8
X113.75Y-103.8
X113.85Y-144.45
X113.95Y-140.75
X114.425Y-59.8
X114.425Y-84.675
X114.85Y-77.025
X114.925Y-101.025
X115.025Y-67.45
X115.275Y-73.85
X115.3Y-55.2
X116.55Y-143.95
X116.625Y-69.825
X117.5Y-93.3
X117.525Y-107.775
X118.65Y-69.425
X118.95Y-110.95
X119.025Y-93.95
X119.1Y-96.025
X119.125Y-89.725
X119.125Y-90.925
X119.625Y-112.85
X119.975Y-107.7
X120.275Y-88.5
X120.325Y-94.2
X121.025Y-101.3
X121.625Y-77.825
X121.825Y-110.725
X122.2Y-67.325
X122.77Y-86.17
X122.9Y-93.15
X123.175Y-109.7
X124.Y-82.8
X124.2Y-85.35
X124.2Y-100.4
X124.225Y-71.725
X124.475Y-113.025
X124.8Y-84.1
X125.45Y-103.125
X125.75Y-105.25
X125.75Y-107.25
X125.825Y-111.95
X126.2Y-135.05
X126.3Y-95.8
X126.5Y-83.3
X126.75Y-100.25
X128.8Y-139.85
X129.4Y-82.7
X130.1Y-142.15
X130.45Y-114.125
X130.85Y-100.5
X131.07Y-119.93
X131.1Y-148.25
X131.25Y-70.975
X131.6Y-84.3
X131.675Y-69.85
X132.1Y-130.35
X132.35Y-66.85
X132.8Y-81.9
X132.9Y-87.8
X133.225Y-111.75
X133.275Y-75.975
X133.4Y-147.45
X133.5Y-72.2
X133.8Y-100.25
X133.9Y-146.25
X133.975Y-88.5
X134.Y-96.3
X134.1Y-141.85
X134.3Y-132.15
X134.8Y-84.4
X134.8Y-98.1
X135.Y-85.5
X135.1Y-76.9
X135.45Y-90.925
X135.675Y-99.7
X135.675Y-112.125
X135.8Y-95.1
X135.9Y-92.4
X136.Y-87.3
X136.2Y-116.65
X136.3Y-142.55
X137.1Y-138.05
X137.125Y-115.475
X137.2Y-82.2
X137.3Y-135.35
X138.2Y-89.
X138.7Y-146.35
X138.725Y-111.55
X138.8Y-65.6
X138.8Y-147.45
X138.9Y-148.45
X138.975Y-61.475
X139.Y-107.625
X139.Y-144.35
X139.2Y-89.9
X139.25Y-117.4
X139.4Y-139.35
X139.5Y-145.45
X139.95Y-66.225
X140.Y-68.125
X140.Y-91.1
X140.05Y-60.475
X140.125Y-116.35
X140.5Y-103.25
X140.9Y-96.5
X141.25Y-104.
X141.375Y-70.775
X142.5Y-103.25
X143.Y-101.25
X143.325Y-84.65
X143.5Y-99.4
X143.5Y-103.5
X144.225Y-117.75
X144.4Y-116.85
X144.5Y-100.075
X144.5Y-104.
X144.85Y-58.75
X144.875Y-99.075
X145.5Y-69.425
X145.55Y-104.44
X145.65Y-78.8
X146.05Y-60.05
X146.05Y-72.775
X146.15Y-79.85
X146.2Y-57.575
X146.2Y-109.32
X146.525Y-78.
X146.673Y-97.374
X146.825Y-80.975
X147.Y-100.
X147.25Y-74.075
X147.47Y-115.39
X147.875Y-60.
X148.25Y-65.825
X148.36Y-107.32
X148.4Y-119.175
X148.475Y-116.825
X148.48Y-105.96
X148.5Y-96.25
X148.53Y-111.59
X149.425Y-58.
X149.87Y-102.96
X150.1Y-68.375
X150.27Y-109.44
X150.4Y-99.66
X151.55Y-55.2
X151.69Y-102.7
X152.18Y-96.97
X152.825Y-69.6
X153.21Y-97.73
X153.25Y-111.06
X153.6Y-101.35
X154.31Y-90.88
X154.32Y-100.26
X154.48Y-88.22
X154.51Y-86.75
X154.6Y-68.325
X154.63Y-96.53
X154.73Y-92.1
X155.02Y-97.9
X155.45Y-57.625
X155.53Y-92.39
X155.7Y-68.75
X155.75Y-77.675
X155.87Y-102.98
X155.94Y-109.48
X155.95Y-85.95
X155.975Y-59.825
X155.975Y-82.55
X156.Y-76.5
X156.225Y-81.15
X156.425Y-69.825
X156.67Y-112.02
X156.73Y-101.
X157.Y-84.
X157.075Y-79.15
X157.15Y-72.025
X157.35Y-75.325
X157.58Y-90.91
X157.75Y-133.
X157.75Y-135.
X157.925Y-63.725
X158.36Y-109.8
X158.55Y-58.375
X158.7Y-87.5
X158.95Y-100.14
X159.Y-63.95
X159.1Y-65.475
X159.65Y-93.23
X159.85Y-80.7
X159.85Y-87.45
X160.04Y-101.89
X160.05Y-83.9
X160.21Y-109.83
X160.575Y-71.375
X160.65Y-64.825
X161.3Y-112.23
X161.62Y-95.33
X162.04Y-104.95
X166.625Y-71.25
X166.7Y-72.55
X167.25Y-145.05
X167.34Y-108.36
X167.42Y-97.87
X167.65Y-64.075
X167.95Y-81.675
X168.66Y-105.22
X168.75Y-70.7
X169.675Y-66.15
X169.79Y-86.5
X170.24Y-115.21
X170.55Y-82.9
X170.6Y-61.375
X170.7Y-104.68
X170.75Y-146.85
X171.075Y-74.325
X171.79Y-95.06
X171.83Y-98.18
X171.95Y-144.75
X172.05Y-145.75
X172.09Y-87.26
X172.11Y-117.17
X172.15Y-77.225
X172.325Y-84.6
X172.61Y-113.43
X172.725Y-72.125
X172.75Y-111.18
X172.85Y-69.475
X172.925Y-67.05
X173.Y-62.2
X173.Y-104.69
X173.2Y-54.6
X173.55Y-62.875
X173.55Y-100.51
X173.58Y-87.01
X173.65Y-96.9
X174.3Y-80.6
X174.99Y-115.2
X175.34Y-87.52
X177.5Y-63.3
X177.97Y-85.62
X179.61Y-85.56
X180.37Y-116.21
X181.3Y-101.37
X181.74Y-114.21
X181.875Y-90.6
X181.875Y-92.05
X182.44Y-106.97
T3
X101.788Y-132.788
X101.788Y-134.312
X102.55Y-133.55
X103.312Y-132.788
X103.312Y-134.312
X126.248Y-88.668
X126.248Y-90.192
X127.01Y-89.43
X127.772Y-88.668
X127.772Y-90.192
T4
X93.1Y-83.375
X93.1Y-85.915
X93.1Y-94.085
X93.1Y-96.625
X104.35Y-85.56
X104.35Y-88.1
X104.35Y-90.63
X104.35Y-93.17
X106.89Y-86.82
X106.89Y-89.36
X106.89Y-91.9
X106.89Y-94.44
T5
X93.7Y-65.25
X93.7Y-67.75
X93.7Y-74.75
X93.7Y-77.25
X107.575Y-67.695
X107.575Y-70.235
X116.Y-111.24
X116.Y-113.78
X116.Y-116.31
X116.Y-118.85
X118.725Y-60.725
X121.225Y-60.725
X121.25Y-117.3
X123.725Y-60.725
X123.75Y-117.3
X126.225Y-60.725
X128.725Y-60.725
X131.225Y-60.725
X132.95Y-119.2
X133.725Y-60.725
X135.49Y-119.2
X136.225Y-60.725
X138.02Y-119.2
X140.56Y-119.2
X143.09Y-119.2
X145.63Y-119.2
X151.25Y-117.3
X153.75Y-117.3
X156.25Y-117.3
X158.75Y-117.3
X161.25Y-117.3
X162.67Y-108.1
X163.75Y-117.3
X165.21Y-108.1
X166.25Y-117.3
X168.75Y-117.3
X178.8Y-65.95
X178.8Y-68.45
X178.8Y-70.95
X178.8Y-73.45
X178.8Y-75.95
X178.8Y-78.45
X178.8Y-80.95
X178.8Y-83.45
T6
X101.05Y-82.255
X101.05Y-97.745
T7
X90.55Y-133.55
X91.Y-59.
X91.Y-121.
X114.55Y-133.55
X124.5Y-143.8
X148.5Y-143.8
X157.75Y-144.55
X181.Y-121.
X181.75Y-144.55
X182.Y-59.
T8
X98.132Y-84.285
X98.132Y-95.715
T0
M30
