G04 #@! TF.FileFunction,Soldermask,Top*
%FSLAX46Y46*%
G04 Gerber Fmt 4.6, Leading zero omitted, Abs format (unit mm)*
G04 Created by KiCad (PCBNEW (2015-08-20 BZR 6109)-product) date Wed 02 Sep 2015 10:01:10 PM PDT*
%MOMM*%
G01*
G04 APERTURE LIST*
%ADD10C,0.150000*%
%ADD11R,0.899160X1.000760*%
%ADD12R,1.000760X0.899160*%
%ADD13R,0.889000X1.397000*%
%ADD14C,1.778000*%
%ADD15C,3.000000*%
%ADD16R,2.400300X3.500120*%
%ADD17R,3.500120X2.400300*%
%ADD18R,1.597660X1.800860*%
%ADD19R,1.200000X1.100000*%
%ADD20R,1.501140X0.551180*%
%ADD21R,0.551180X1.501140*%
%ADD22R,1.600200X2.600960*%
%ADD23C,2.000000*%
%ADD24R,1.397000X0.889000*%
%ADD25C,1.524000*%
%ADD26R,2.540000X0.990600*%
%ADD27R,1.600200X1.600200*%
%ADD28C,1.000760*%
%ADD29R,0.500380X1.198880*%
%ADD30R,0.406400X1.270000*%
%ADD31C,0.400000*%
%ADD32R,0.450000X1.650000*%
%ADD33R,4.320000X3.000000*%
%ADD34R,0.475000X0.750000*%
%ADD35R,0.905000X0.495000*%
%ADD36C,0.780000*%
%ADD37R,1.000000X0.750000*%
%ADD38R,4.055000X4.560000*%
%ADD39R,0.800000X0.300000*%
%ADD40R,0.300000X0.800000*%
%ADD41C,2.600000*%
%ADD42R,5.000000X0.760000*%
%ADD43R,4.500000X8.800000*%
%ADD44R,2.600960X1.600200*%
G04 APERTURE END LIST*
D10*
D11*
X215851840Y-34800000D03*
X214348160Y-34800000D03*
D12*
X212200000Y-44351840D03*
X212200000Y-42848160D03*
D11*
X193856760Y-29148200D03*
X195360440Y-29148200D03*
D12*
X179400000Y-49748160D03*
X179400000Y-51251840D03*
X245300000Y-65951840D03*
X245300000Y-64448160D03*
X186600000Y-50751840D03*
X186600000Y-49248160D03*
X197400000Y-49398160D03*
X197400000Y-50901840D03*
X202000000Y-64751840D03*
X202000000Y-63248160D03*
X210300000Y-52151840D03*
X210300000Y-50648160D03*
X203750000Y-50298160D03*
X203750000Y-51801840D03*
X184400000Y-38051840D03*
X184400000Y-36548160D03*
X192250000Y-48848160D03*
X192250000Y-50351840D03*
X165450000Y-48498160D03*
X165450000Y-50001840D03*
X174900000Y-50451840D03*
X174900000Y-48948160D03*
X200400000Y-54451840D03*
X200400000Y-52948160D03*
X170800000Y-48848160D03*
X170800000Y-50351840D03*
X187100000Y-38251840D03*
X187100000Y-36748160D03*
X173000000Y-50351840D03*
X173000000Y-48848160D03*
X199200000Y-51251840D03*
X199200000Y-49748160D03*
X167000000Y-64751840D03*
X167000000Y-63248160D03*
X192000000Y-64751840D03*
X192000000Y-63248160D03*
X211650000Y-53348160D03*
X211650000Y-54851840D03*
X188400000Y-51548160D03*
X188400000Y-53051840D03*
X208200000Y-50448160D03*
X208200000Y-51951840D03*
X185100000Y-49248160D03*
X185100000Y-50751840D03*
D11*
X179051840Y-34800000D03*
X177548160Y-34800000D03*
X204834640Y-39587600D03*
X203330960Y-39587600D03*
D13*
X193529100Y-30850000D03*
X195434100Y-30850000D03*
D11*
X219751840Y-34500000D03*
X218248160Y-34500000D03*
D14*
X219750000Y-32250000D03*
X224250000Y-32250000D03*
X219750000Y-25750000D03*
X224250000Y-25750000D03*
D15*
X250000000Y-77000000D03*
X166000000Y-77000000D03*
D12*
X216100000Y-44048160D03*
X216100000Y-45551840D03*
D11*
X215851840Y-33200000D03*
X214348160Y-33200000D03*
X214448160Y-28800000D03*
X215951840Y-28800000D03*
D15*
X250000000Y-28000000D03*
X166000000Y-28000000D03*
D16*
X231400000Y-55648800D03*
X231400000Y-62151200D03*
D17*
X202548800Y-44800000D03*
X209051200Y-44800000D03*
X198351200Y-43700000D03*
X191848800Y-43700000D03*
D16*
X231800000Y-33048800D03*
X231800000Y-39551200D03*
D17*
X174448800Y-42100000D03*
X180951200Y-42100000D03*
D18*
X216419860Y-25500000D03*
X213580140Y-25500000D03*
D19*
X215950000Y-30300000D03*
X214250000Y-30300000D03*
X215950000Y-31700000D03*
X214250000Y-31700000D03*
D20*
X199354520Y-33300200D03*
X199354520Y-34100300D03*
X199354520Y-35700500D03*
X199354520Y-34900400D03*
X199354520Y-30899900D03*
X199354520Y-32500100D03*
X199354520Y-31700000D03*
X199354520Y-29299700D03*
X199354520Y-30099800D03*
X199354520Y-28499600D03*
X199354520Y-27699500D03*
X210840400Y-27699500D03*
X210840400Y-28499600D03*
X210840400Y-30099800D03*
X210840400Y-29299700D03*
X210840400Y-31700000D03*
X210840400Y-32500100D03*
X210840400Y-30899900D03*
X210840400Y-34900400D03*
X210840400Y-35700500D03*
X210840400Y-34100300D03*
X210840400Y-33300200D03*
D21*
X209100500Y-37440400D03*
X208300400Y-37440400D03*
X206700200Y-37440400D03*
X207500300Y-37440400D03*
X205100000Y-37440400D03*
X204299900Y-37440400D03*
X205900100Y-37440400D03*
X201899600Y-37440400D03*
X201099500Y-37440400D03*
X202699700Y-37440400D03*
X203499800Y-37440400D03*
X203499800Y-25959600D03*
X202699700Y-25959600D03*
X201099500Y-25959600D03*
X201899600Y-25959600D03*
X205900100Y-25959600D03*
X204299900Y-25959600D03*
X205100000Y-25959600D03*
X207500300Y-25959600D03*
X206700200Y-25959600D03*
X208300400Y-25959600D03*
X209100500Y-25959600D03*
D22*
X186600000Y-42199140D03*
X186600000Y-45800860D03*
D23*
X194750000Y-74300000D03*
X192250000Y-74300000D03*
X202250000Y-74300000D03*
X204750000Y-74300000D03*
X209750000Y-74300000D03*
X207250000Y-74300000D03*
X197250000Y-74300000D03*
X199750000Y-74300000D03*
X179750000Y-74300000D03*
X177250000Y-74300000D03*
X187250000Y-74300000D03*
X189750000Y-74300000D03*
X184750000Y-74300000D03*
X182250000Y-74300000D03*
X172250000Y-74300000D03*
X174750000Y-74300000D03*
D11*
X224751840Y-34500000D03*
X223248160Y-34500000D03*
D12*
X216200000Y-52048160D03*
X216200000Y-53551840D03*
X216300000Y-60348160D03*
X216300000Y-61851840D03*
D11*
X195360440Y-35142600D03*
X193856760Y-35142600D03*
X195251840Y-27700000D03*
X193748160Y-27700000D03*
X195251840Y-24900000D03*
X193748160Y-24900000D03*
D24*
X185400000Y-63047500D03*
X185400000Y-64952500D03*
X181550000Y-63497500D03*
X181550000Y-65402500D03*
X208200000Y-63795000D03*
X208200000Y-65700000D03*
X205800000Y-63695000D03*
X205800000Y-65600000D03*
D12*
X181600000Y-49948160D03*
X181600000Y-51451840D03*
X206400000Y-49998160D03*
X206400000Y-51501840D03*
D11*
X195251840Y-23600000D03*
X193748160Y-23600000D03*
D12*
X183000000Y-51451840D03*
X183000000Y-49948160D03*
X205100000Y-51851840D03*
X205100000Y-50348160D03*
X210000000Y-63248160D03*
X210000000Y-64751840D03*
X188400000Y-63048160D03*
X188400000Y-64551840D03*
X177900000Y-49848160D03*
X177900000Y-51351840D03*
X178000000Y-54048160D03*
X178000000Y-55551840D03*
X190800000Y-49748160D03*
X190800000Y-51251840D03*
D17*
X171151200Y-40100000D03*
X164648800Y-40100000D03*
D11*
X164151840Y-53100000D03*
X162648160Y-53100000D03*
D12*
X163900000Y-48448160D03*
X163900000Y-49951840D03*
X190500000Y-54048160D03*
X190500000Y-55551840D03*
X174000000Y-63248160D03*
X174000000Y-64751840D03*
X198600000Y-63548160D03*
X198600000Y-65051840D03*
X169000000Y-50151840D03*
X169000000Y-48648160D03*
X195300000Y-51151840D03*
X195300000Y-49648160D03*
X167500000Y-48748160D03*
X167500000Y-50251840D03*
X193900000Y-49548160D03*
X193900000Y-51051840D03*
D24*
X169000000Y-63047500D03*
X169000000Y-64952500D03*
X171000000Y-63047500D03*
X171000000Y-64952500D03*
X194000000Y-63647500D03*
X194000000Y-65552500D03*
X196600000Y-63947500D03*
X196600000Y-65852500D03*
D12*
X202350000Y-50348160D03*
X202350000Y-51851840D03*
D11*
X217651840Y-55250000D03*
X216148160Y-55250000D03*
X194751840Y-33700000D03*
X193248160Y-33700000D03*
D23*
X238250000Y-74300000D03*
X235750000Y-74300000D03*
X223250000Y-74300000D03*
X220750000Y-74300000D03*
X230750000Y-74300000D03*
X233250000Y-74300000D03*
X228250000Y-74300000D03*
X225750000Y-74300000D03*
X215750000Y-74300000D03*
X218250000Y-74300000D03*
D25*
X240730000Y-29060000D03*
X240730000Y-31600000D03*
X240730000Y-34140000D03*
X243270000Y-34140000D03*
X243270000Y-31600000D03*
X243270000Y-29060000D03*
D23*
X244940000Y-51850000D03*
X244940000Y-54350000D03*
X244940000Y-44350000D03*
X244940000Y-41850000D03*
X244940000Y-46850000D03*
X244940000Y-49350000D03*
X244940000Y-59350000D03*
X244940000Y-56850000D03*
D26*
X229860000Y-26800000D03*
X234940000Y-26800000D03*
D27*
X170449920Y-32198800D03*
X170449920Y-26699700D03*
X179350080Y-32198800D03*
D28*
X172700360Y-29699440D03*
D29*
X174099900Y-32800780D03*
X176500200Y-32800780D03*
X175700100Y-32800780D03*
X173299800Y-32800780D03*
X174887300Y-32800780D03*
D27*
X179350080Y-26699700D03*
D28*
X177099640Y-29699440D03*
D16*
X231600000Y-51051200D03*
X231600000Y-44548800D03*
D30*
X190825000Y-26644000D03*
X190175000Y-26644000D03*
X189525000Y-26644000D03*
X188875000Y-26644000D03*
X188225000Y-26644000D03*
X187575000Y-26644000D03*
X186925000Y-26644000D03*
X186275000Y-26644000D03*
X185625000Y-26644000D03*
X184975000Y-26644000D03*
X184325000Y-26644000D03*
X183675000Y-26644000D03*
X183025000Y-26644000D03*
X182375000Y-26644000D03*
X182375000Y-33756000D03*
X183025000Y-33756000D03*
X183675000Y-33756000D03*
X184325000Y-33756000D03*
X184975000Y-33756000D03*
X185625000Y-33756000D03*
X186275000Y-33756000D03*
X186925000Y-33756000D03*
X187575000Y-33756000D03*
X188225000Y-33756000D03*
X188875000Y-33756000D03*
X189525000Y-33756000D03*
X190175000Y-33756000D03*
X190825000Y-33756000D03*
D31*
X195100000Y-56600000D03*
X194400000Y-56600000D03*
X193700000Y-56600000D03*
X195800000Y-56600000D03*
X196500000Y-56600000D03*
X197200000Y-56600000D03*
X197200000Y-56000000D03*
X196500000Y-56000000D03*
X195800000Y-56000000D03*
X193700000Y-56000000D03*
X194400000Y-56000000D03*
X195100000Y-56000000D03*
X195100000Y-55400000D03*
X194400000Y-55400000D03*
X193700000Y-55400000D03*
X195800000Y-55400000D03*
X196500000Y-55400000D03*
X197200000Y-55400000D03*
X197200000Y-57200000D03*
X196500000Y-57200000D03*
X195800000Y-57200000D03*
X193700000Y-57200000D03*
X194400000Y-57200000D03*
X195100000Y-57200000D03*
X195100000Y-57800000D03*
X194400000Y-57800000D03*
X193700000Y-57800000D03*
X195800000Y-57800000D03*
X196500000Y-57800000D03*
D32*
X191851060Y-53550000D03*
X192498760Y-53550000D03*
X192573760Y-59650000D03*
X191926060Y-59650000D03*
X193226060Y-59650000D03*
X193873760Y-59650000D03*
X194524000Y-59650000D03*
X195175000Y-59650000D03*
X195825000Y-59650000D03*
X196474720Y-59650000D03*
X197124960Y-59650000D03*
X197775200Y-59650000D03*
X198425440Y-59650000D03*
X199075680Y-59650000D03*
X199000680Y-53550000D03*
X198350440Y-53550000D03*
X197700200Y-53550000D03*
X197049960Y-53550000D03*
X196399720Y-53550000D03*
X195749480Y-53550000D03*
X195099240Y-53550000D03*
X194449000Y-53550000D03*
X193798760Y-53550000D03*
X193151060Y-53550000D03*
D33*
X195500000Y-56600000D03*
D31*
X197200000Y-57800000D03*
X169200000Y-56200000D03*
X168500000Y-56200000D03*
X167800000Y-56200000D03*
X169900000Y-56200000D03*
X170600000Y-56200000D03*
X171300000Y-56200000D03*
X171300000Y-55600000D03*
X170600000Y-55600000D03*
X169900000Y-55600000D03*
X167800000Y-55600000D03*
X168500000Y-55600000D03*
X169200000Y-55600000D03*
X169200000Y-55000000D03*
X168500000Y-55000000D03*
X167800000Y-55000000D03*
X169900000Y-55000000D03*
X170600000Y-55000000D03*
X171300000Y-55000000D03*
X171300000Y-56800000D03*
X170600000Y-56800000D03*
X169900000Y-56800000D03*
X167800000Y-56800000D03*
X168500000Y-56800000D03*
X169200000Y-56800000D03*
X169200000Y-57400000D03*
X168500000Y-57400000D03*
X167800000Y-57400000D03*
X169900000Y-57400000D03*
X170600000Y-57400000D03*
D32*
X165951060Y-53150000D03*
X166598760Y-53150000D03*
X166673760Y-59250000D03*
X166026060Y-59250000D03*
X167326060Y-59250000D03*
X167973760Y-59250000D03*
X168624000Y-59250000D03*
X169275000Y-59250000D03*
X169925000Y-59250000D03*
X170574720Y-59250000D03*
X171224960Y-59250000D03*
X171875200Y-59250000D03*
X172525440Y-59250000D03*
X173175680Y-59250000D03*
X173100680Y-53150000D03*
X172450440Y-53150000D03*
X171800200Y-53150000D03*
X171149960Y-53150000D03*
X170499720Y-53150000D03*
X169849480Y-53150000D03*
X169199240Y-53150000D03*
X168549000Y-53150000D03*
X167898760Y-53150000D03*
X167251060Y-53150000D03*
D33*
X169600000Y-56200000D03*
D31*
X171300000Y-57400000D03*
X206400000Y-57900000D03*
X205700000Y-57900000D03*
X205000000Y-57900000D03*
X207100000Y-57900000D03*
X207800000Y-57900000D03*
X208500000Y-57900000D03*
X208500000Y-57300000D03*
X207800000Y-57300000D03*
X207100000Y-57300000D03*
X205000000Y-57300000D03*
X205700000Y-57300000D03*
X206400000Y-57300000D03*
X206400000Y-56700000D03*
X205700000Y-56700000D03*
X205000000Y-56700000D03*
X207100000Y-56700000D03*
X207800000Y-56700000D03*
X208500000Y-56700000D03*
X208500000Y-58500000D03*
X207800000Y-58500000D03*
X207100000Y-58500000D03*
X205000000Y-58500000D03*
X205700000Y-58500000D03*
X206400000Y-58500000D03*
X206400000Y-59100000D03*
X205700000Y-59100000D03*
X205000000Y-59100000D03*
X207100000Y-59100000D03*
X207800000Y-59100000D03*
D32*
X203151060Y-54850000D03*
X203798760Y-54850000D03*
X203873760Y-60950000D03*
X203226060Y-60950000D03*
X204526060Y-60950000D03*
X205173760Y-60950000D03*
X205824000Y-60950000D03*
X206475000Y-60950000D03*
X207125000Y-60950000D03*
X207774720Y-60950000D03*
X208424960Y-60950000D03*
X209075200Y-60950000D03*
X209725440Y-60950000D03*
X210375680Y-60950000D03*
X210300680Y-54850000D03*
X209650440Y-54850000D03*
X209000200Y-54850000D03*
X208349960Y-54850000D03*
X207699720Y-54850000D03*
X207049480Y-54850000D03*
X206399240Y-54850000D03*
X205749000Y-54850000D03*
X205098760Y-54850000D03*
X204451060Y-54850000D03*
D33*
X206800000Y-57900000D03*
D31*
X208500000Y-59100000D03*
X182700000Y-56800000D03*
X182000000Y-56800000D03*
X181300000Y-56800000D03*
X183400000Y-56800000D03*
X184100000Y-56800000D03*
X184800000Y-56800000D03*
X184800000Y-56200000D03*
X184100000Y-56200000D03*
X183400000Y-56200000D03*
X181300000Y-56200000D03*
X182000000Y-56200000D03*
X182700000Y-56200000D03*
X182700000Y-55600000D03*
X182000000Y-55600000D03*
X181300000Y-55600000D03*
X183400000Y-55600000D03*
X184100000Y-55600000D03*
X184800000Y-55600000D03*
X184800000Y-57400000D03*
X184100000Y-57400000D03*
X183400000Y-57400000D03*
X181300000Y-57400000D03*
X182000000Y-57400000D03*
X182700000Y-57400000D03*
X182700000Y-58000000D03*
X182000000Y-58000000D03*
X181300000Y-58000000D03*
X183400000Y-58000000D03*
X184100000Y-58000000D03*
D32*
X179451060Y-53750000D03*
X180098760Y-53750000D03*
X180173760Y-59850000D03*
X179526060Y-59850000D03*
X180826060Y-59850000D03*
X181473760Y-59850000D03*
X182124000Y-59850000D03*
X182775000Y-59850000D03*
X183425000Y-59850000D03*
X184074720Y-59850000D03*
X184724960Y-59850000D03*
X185375200Y-59850000D03*
X186025440Y-59850000D03*
X186675680Y-59850000D03*
X186600680Y-53750000D03*
X185950440Y-53750000D03*
X185300200Y-53750000D03*
X184649960Y-53750000D03*
X183999720Y-53750000D03*
X183349480Y-53750000D03*
X182699240Y-53750000D03*
X182049000Y-53750000D03*
X181398760Y-53750000D03*
X180751060Y-53750000D03*
D33*
X183100000Y-56800000D03*
D31*
X184800000Y-58000000D03*
D34*
X223822500Y-41695000D03*
X223822500Y-45505000D03*
D35*
X220407500Y-46127500D03*
X220407500Y-41072500D03*
D34*
X223822500Y-45505000D03*
X223822500Y-41695000D03*
D35*
X220407500Y-46127500D03*
D36*
X223140000Y-45600000D03*
X220140000Y-41600000D03*
X221140000Y-41600000D03*
X222140000Y-41600000D03*
X220140000Y-45600000D03*
X221140000Y-43600000D03*
X222140000Y-43600000D03*
X223140000Y-42600000D03*
X223140000Y-41600000D03*
X222140000Y-42600000D03*
X221140000Y-42600000D03*
X220140000Y-42600000D03*
X220140000Y-44600000D03*
X221140000Y-44600000D03*
X222140000Y-44600000D03*
X223140000Y-43600000D03*
X223140000Y-44600000D03*
X222140000Y-45600000D03*
X221140000Y-45600000D03*
D35*
X220407500Y-41072500D03*
D37*
X218065000Y-41695000D03*
X218065000Y-42965000D03*
X218065000Y-44235000D03*
X218065000Y-45505000D03*
D38*
X221557500Y-43600000D03*
D36*
X220140000Y-43600000D03*
D34*
X223862500Y-49545000D03*
X223862500Y-53355000D03*
D35*
X220447500Y-53977500D03*
X220447500Y-48922500D03*
D34*
X223862500Y-53355000D03*
X223862500Y-49545000D03*
D35*
X220447500Y-53977500D03*
D36*
X223180000Y-53450000D03*
X220180000Y-49450000D03*
X221180000Y-49450000D03*
X222180000Y-49450000D03*
X220180000Y-53450000D03*
X221180000Y-51450000D03*
X222180000Y-51450000D03*
X223180000Y-50450000D03*
X223180000Y-49450000D03*
X222180000Y-50450000D03*
X221180000Y-50450000D03*
X220180000Y-50450000D03*
X220180000Y-52450000D03*
X221180000Y-52450000D03*
X222180000Y-52450000D03*
X223180000Y-51450000D03*
X223180000Y-52450000D03*
X222180000Y-53450000D03*
X221180000Y-53450000D03*
D35*
X220447500Y-48922500D03*
D37*
X218105000Y-49545000D03*
X218105000Y-50815000D03*
X218105000Y-52085000D03*
X218105000Y-53355000D03*
D38*
X221597500Y-51450000D03*
D36*
X220180000Y-51450000D03*
D34*
X223902500Y-57775000D03*
X223902500Y-61585000D03*
D35*
X220487500Y-62207500D03*
X220487500Y-57152500D03*
D34*
X223902500Y-61585000D03*
X223902500Y-57775000D03*
D35*
X220487500Y-62207500D03*
D36*
X223220000Y-61680000D03*
X220220000Y-57680000D03*
X221220000Y-57680000D03*
X222220000Y-57680000D03*
X220220000Y-61680000D03*
X221220000Y-59680000D03*
X222220000Y-59680000D03*
X223220000Y-58680000D03*
X223220000Y-57680000D03*
X222220000Y-58680000D03*
X221220000Y-58680000D03*
X220220000Y-58680000D03*
X220220000Y-60680000D03*
X221220000Y-60680000D03*
X222220000Y-60680000D03*
X223220000Y-59680000D03*
X223220000Y-60680000D03*
X222220000Y-61680000D03*
X221220000Y-61680000D03*
D35*
X220487500Y-57152500D03*
D37*
X218145000Y-57775000D03*
X218145000Y-59045000D03*
X218145000Y-60315000D03*
X218145000Y-61585000D03*
D38*
X221637500Y-59680000D03*
D36*
X220220000Y-59680000D03*
D39*
X169350000Y-92300000D03*
X169350000Y-91800000D03*
X171900000Y-91800000D03*
X169350000Y-92795000D03*
X169350000Y-93300000D03*
X169350000Y-93800000D03*
D40*
X170125000Y-94075000D03*
X170590000Y-94075000D03*
X171125000Y-94075000D03*
D39*
X171900000Y-93800000D03*
X171900000Y-93300000D03*
X171900000Y-92795000D03*
X171900000Y-92300000D03*
D40*
X171125000Y-91525000D03*
X170610000Y-91525000D03*
X170125000Y-91525000D03*
D41*
X199600000Y-92300000D03*
X163100000Y-92300000D03*
D42*
X178000000Y-89325000D03*
X178000000Y-91865000D03*
X178000000Y-94405000D03*
X178000000Y-93135000D03*
X178000000Y-95675000D03*
X178000000Y-90595000D03*
D43*
X194050000Y-92500000D03*
D12*
X166700000Y-94051840D03*
X166700000Y-92548160D03*
X171860000Y-97541840D03*
X171860000Y-96038160D03*
X166690000Y-89061840D03*
X166690000Y-87558160D03*
D44*
X173770860Y-87600000D03*
X170169140Y-87600000D03*
D39*
X249125000Y-92800000D03*
X249125000Y-92300000D03*
X251675000Y-92300000D03*
X249125000Y-93295000D03*
X249125000Y-93800000D03*
X249125000Y-94300000D03*
D40*
X249900000Y-94575000D03*
X250365000Y-94575000D03*
X250900000Y-94575000D03*
D39*
X251675000Y-94300000D03*
X251675000Y-93800000D03*
X251675000Y-93295000D03*
X251675000Y-92800000D03*
D40*
X250900000Y-92025000D03*
X250385000Y-92025000D03*
X249900000Y-92025000D03*
D41*
X257400000Y-92800000D03*
X220900000Y-92800000D03*
D42*
X242300000Y-96475000D03*
X242300000Y-93935000D03*
X242300000Y-91395000D03*
X242300000Y-92665000D03*
X242300000Y-90125000D03*
X242300000Y-95205000D03*
D43*
X226250000Y-93300000D03*
D12*
X254000000Y-95151840D03*
X254000000Y-93648160D03*
D11*
X248648160Y-97300000D03*
X250151840Y-97300000D03*
X254951840Y-91000000D03*
X253448160Y-91000000D03*
D44*
X248599140Y-88300000D03*
X252200860Y-88300000D03*
D39*
X169450000Y-112200000D03*
X169450000Y-111700000D03*
X172000000Y-111700000D03*
X169450000Y-112695000D03*
X169450000Y-113200000D03*
X169450000Y-113700000D03*
D40*
X170225000Y-113975000D03*
X170690000Y-113975000D03*
X171225000Y-113975000D03*
D39*
X172000000Y-113700000D03*
X172000000Y-113200000D03*
X172000000Y-112695000D03*
X172000000Y-112200000D03*
D40*
X171225000Y-111425000D03*
X170710000Y-111425000D03*
X170225000Y-111425000D03*
D41*
X199700000Y-112200000D03*
X163200000Y-112200000D03*
D42*
X178100000Y-109225000D03*
X178100000Y-111765000D03*
X178100000Y-114305000D03*
X178100000Y-113035000D03*
X178100000Y-115575000D03*
X178100000Y-110495000D03*
D43*
X194150000Y-112400000D03*
D12*
X166800000Y-113951840D03*
X166800000Y-112448160D03*
X171960000Y-117441840D03*
X171960000Y-115938160D03*
X166790000Y-108961840D03*
X166790000Y-107458160D03*
D44*
X173870860Y-107500000D03*
X170269140Y-107500000D03*
D39*
X249425000Y-112700000D03*
X249425000Y-112200000D03*
X251975000Y-112200000D03*
X249425000Y-113195000D03*
X249425000Y-113700000D03*
X249425000Y-114200000D03*
D40*
X250200000Y-114475000D03*
X250665000Y-114475000D03*
X251200000Y-114475000D03*
D39*
X251975000Y-114200000D03*
X251975000Y-113700000D03*
X251975000Y-113195000D03*
X251975000Y-112700000D03*
D40*
X251200000Y-111925000D03*
X250685000Y-111925000D03*
X250200000Y-111925000D03*
D41*
X257700000Y-112700000D03*
X221200000Y-112700000D03*
D42*
X242600000Y-116375000D03*
X242600000Y-113835000D03*
X242600000Y-111295000D03*
X242600000Y-112565000D03*
X242600000Y-110025000D03*
X242600000Y-115105000D03*
D43*
X226550000Y-113200000D03*
D12*
X254300000Y-115051840D03*
X254300000Y-113548160D03*
D11*
X248948160Y-117200000D03*
X250451840Y-117200000D03*
X255251840Y-110900000D03*
X253748160Y-110900000D03*
D44*
X248899140Y-108200000D03*
X252500860Y-108200000D03*
M02*
