G04 #@! TF.FileFunction,Legend,Top*
%FSLAX46Y46*%
G04 Gerber Fmt 4.6, Leading zero omitted, Abs format (unit mm)*
G04 Created by KiCad (PCBNEW 4.0.6-e0-6349~53~ubuntu16.04.1) date Sat Jul 29 16:27:28 2017*
%MOMM*%
%LPD*%
G01*
G04 APERTURE LIST*
%ADD10C,0.150000*%
%ADD11C,0.125000*%
%ADD12C,0.250000*%
%ADD13C,0.254000*%
%ADD14C,0.200660*%
%ADD15C,0.127000*%
%ADD16C,0.099060*%
%ADD17C,0.175000*%
%ADD18C,0.170000*%
G04 APERTURE END LIST*
D10*
D11*
X149757142Y-94516667D02*
X149833333Y-94516667D01*
X149909523Y-94550000D01*
X149947618Y-94583333D01*
X149985714Y-94650000D01*
X150023809Y-94783333D01*
X150023809Y-94950000D01*
X149985714Y-95083333D01*
X149947618Y-95150000D01*
X149909523Y-95183333D01*
X149833333Y-95216667D01*
X149757142Y-95216667D01*
X149680952Y-95183333D01*
X149642856Y-95150000D01*
X149604761Y-95083333D01*
X149566666Y-94950000D01*
X149566666Y-94783333D01*
X149604761Y-94650000D01*
X149642856Y-94583333D01*
X149680952Y-94550000D01*
X149757142Y-94516667D01*
X150290476Y-94516667D02*
X150823809Y-94516667D01*
X150480952Y-95216667D01*
X151700000Y-94483333D02*
X151014285Y-95383333D01*
X151928571Y-94583333D02*
X151966666Y-94550000D01*
X152042857Y-94516667D01*
X152233333Y-94516667D01*
X152309523Y-94550000D01*
X152347619Y-94583333D01*
X152385714Y-94650000D01*
X152385714Y-94716667D01*
X152347619Y-94816667D01*
X151890476Y-95216667D01*
X152385714Y-95216667D01*
X152766666Y-95216667D02*
X152919047Y-95216667D01*
X152995238Y-95183333D01*
X153033333Y-95150000D01*
X153109524Y-95050000D01*
X153147619Y-94916667D01*
X153147619Y-94650000D01*
X153109524Y-94583333D01*
X153071428Y-94550000D01*
X152995238Y-94516667D01*
X152842857Y-94516667D01*
X152766666Y-94550000D01*
X152728571Y-94583333D01*
X152690476Y-94650000D01*
X152690476Y-94816667D01*
X152728571Y-94883333D01*
X152766666Y-94916667D01*
X152842857Y-94950000D01*
X152995238Y-94950000D01*
X153071428Y-94916667D01*
X153109524Y-94883333D01*
X153147619Y-94816667D01*
X154061905Y-94483333D02*
X153376190Y-95383333D01*
X154290476Y-94583333D02*
X154328571Y-94550000D01*
X154404762Y-94516667D01*
X154595238Y-94516667D01*
X154671428Y-94550000D01*
X154709524Y-94583333D01*
X154747619Y-94650000D01*
X154747619Y-94716667D01*
X154709524Y-94816667D01*
X154252381Y-95216667D01*
X154747619Y-95216667D01*
X155242857Y-94516667D02*
X155319048Y-94516667D01*
X155395238Y-94550000D01*
X155433333Y-94583333D01*
X155471429Y-94650000D01*
X155509524Y-94783333D01*
X155509524Y-94950000D01*
X155471429Y-95083333D01*
X155433333Y-95150000D01*
X155395238Y-95183333D01*
X155319048Y-95216667D01*
X155242857Y-95216667D01*
X155166667Y-95183333D01*
X155128571Y-95150000D01*
X155090476Y-95083333D01*
X155052381Y-94950000D01*
X155052381Y-94783333D01*
X155090476Y-94650000D01*
X155128571Y-94583333D01*
X155166667Y-94550000D01*
X155242857Y-94516667D01*
X156271429Y-95216667D02*
X155814286Y-95216667D01*
X156042857Y-95216667D02*
X156042857Y-94516667D01*
X155966667Y-94616667D01*
X155890476Y-94683333D01*
X155814286Y-94716667D01*
X156538096Y-94516667D02*
X157071429Y-94516667D01*
X156728572Y-95216667D01*
D12*
X136042857Y-105971429D02*
X136804762Y-105971429D01*
X137185714Y-105352381D02*
X137852381Y-106352381D01*
X137852381Y-105352381D02*
X137185714Y-106352381D01*
X154690476Y-117571429D02*
X155452381Y-117571429D01*
X156119047Y-117476190D02*
X156119047Y-117952381D01*
X155785714Y-116952381D02*
X156119047Y-117476190D01*
X156452381Y-116952381D01*
X165442857Y-105071429D02*
X166204762Y-105071429D01*
X165823810Y-105452381D02*
X165823810Y-104690476D01*
X166585714Y-104452381D02*
X167252381Y-105452381D01*
X167252381Y-104452381D02*
X166585714Y-105452381D01*
X141090476Y-95271429D02*
X141852381Y-95271429D01*
X141471429Y-95652381D02*
X141471429Y-94890476D01*
X142519047Y-95176190D02*
X142519047Y-95652381D01*
X142185714Y-94652381D02*
X142519047Y-95176190D01*
X142852381Y-94652381D01*
D13*
X161440000Y-95895000D02*
X161440000Y-109105000D01*
X161440000Y-109105000D02*
X146360000Y-109105000D01*
X146360000Y-109105000D02*
X146360000Y-95895000D01*
X146360000Y-95895000D02*
X161440000Y-95895000D01*
D10*
X149800000Y-113200000D02*
G75*
G03X149800000Y-113200000I-100000J0D01*
G01*
D14*
X153450000Y-113500000D02*
X153450000Y-116500000D01*
X153450000Y-116500000D02*
X149950000Y-116500000D01*
X149950000Y-113500000D02*
X149950000Y-116500000D01*
X149950000Y-113500000D02*
X153450000Y-113500000D01*
D15*
X151350000Y-111230000D02*
X153850000Y-111230000D01*
X153870000Y-111230000D02*
X153870000Y-112370000D01*
X153850000Y-112370000D02*
X151350000Y-112370000D01*
X151330000Y-112370000D02*
X151330000Y-111230000D01*
X150170000Y-110150000D02*
X150170000Y-112650000D01*
X150170000Y-112670000D02*
X149030000Y-112670000D01*
X149030000Y-112650000D02*
X149030000Y-110150000D01*
X149030000Y-110130000D02*
X150170000Y-110130000D01*
X145430000Y-112750000D02*
X145430000Y-110250000D01*
X145430000Y-110230000D02*
X146570000Y-110230000D01*
X146570000Y-110250000D02*
X146570000Y-112750000D01*
X146570000Y-112770000D02*
X145430000Y-112770000D01*
X145850000Y-115670000D02*
X143350000Y-115670000D01*
X143330000Y-115670000D02*
X143330000Y-114530000D01*
X143350000Y-114530000D02*
X145850000Y-114530000D01*
X145870000Y-114530000D02*
X145870000Y-115670000D01*
X148470000Y-110150000D02*
X148470000Y-112650000D01*
X148470000Y-112670000D02*
X147330000Y-112670000D01*
X147330000Y-112650000D02*
X147330000Y-110150000D01*
X147330000Y-110130000D02*
X148470000Y-110130000D01*
D16*
X144072857Y-109474286D02*
X145044286Y-109474286D01*
X145158571Y-109417143D01*
X145215714Y-109360000D01*
X145272857Y-109245714D01*
X145272857Y-109017143D01*
X145215714Y-108902857D01*
X145158571Y-108845714D01*
X145044286Y-108788571D01*
X144072857Y-108788571D01*
X144187143Y-108274286D02*
X144130000Y-108217143D01*
X144072857Y-108102857D01*
X144072857Y-107817143D01*
X144130000Y-107702857D01*
X144187143Y-107645714D01*
X144301429Y-107588571D01*
X144415714Y-107588571D01*
X144587143Y-107645714D01*
X145272857Y-108331428D01*
X145272857Y-107588571D01*
X145452857Y-97518571D02*
X144881429Y-97918571D01*
X145452857Y-98204286D02*
X144252857Y-98204286D01*
X144252857Y-97747143D01*
X144310000Y-97632857D01*
X144367143Y-97575714D01*
X144481429Y-97518571D01*
X144652857Y-97518571D01*
X144767143Y-97575714D01*
X144824286Y-97632857D01*
X144881429Y-97747143D01*
X144881429Y-98204286D01*
X144252857Y-96661429D02*
X145110000Y-96661429D01*
X145281429Y-96718571D01*
X145395714Y-96832857D01*
X145452857Y-97004286D01*
X145452857Y-97118571D01*
X145452857Y-95461428D02*
X145452857Y-96147143D01*
X145452857Y-95804285D02*
X144252857Y-95804285D01*
X144424286Y-95918571D01*
X144538571Y-96032857D01*
X144595714Y-96147143D01*
X144367143Y-95004286D02*
X144310000Y-94947143D01*
X144252857Y-94832857D01*
X144252857Y-94547143D01*
X144310000Y-94432857D01*
X144367143Y-94375714D01*
X144481429Y-94318571D01*
X144595714Y-94318571D01*
X144767143Y-94375714D01*
X145452857Y-95061428D01*
X145452857Y-94318571D01*
D17*
X154966667Y-114366667D02*
X154966667Y-114933333D01*
X155000000Y-115000000D01*
X155033333Y-115033333D01*
X155100000Y-115066667D01*
X155233333Y-115066667D01*
X155300000Y-115033333D01*
X155333333Y-115000000D01*
X155366667Y-114933333D01*
X155366667Y-114366667D01*
X156066666Y-115066667D02*
X155666666Y-115066667D01*
X155866666Y-115066667D02*
X155866666Y-114366667D01*
X155800000Y-114466667D01*
X155733333Y-114533333D01*
X155666666Y-114566667D01*
D18*
X149933333Y-118216667D02*
X149600000Y-118216667D01*
X149600000Y-117516667D01*
X150133333Y-118183333D02*
X150233333Y-118216667D01*
X150400000Y-118216667D01*
X150466667Y-118183333D01*
X150500000Y-118150000D01*
X150533333Y-118083333D01*
X150533333Y-118016667D01*
X150500000Y-117950000D01*
X150466667Y-117916667D01*
X150400000Y-117883333D01*
X150266667Y-117850000D01*
X150200000Y-117816667D01*
X150166667Y-117783333D01*
X150133333Y-117716667D01*
X150133333Y-117650000D01*
X150166667Y-117583333D01*
X150200000Y-117550000D01*
X150266667Y-117516667D01*
X150433333Y-117516667D01*
X150533333Y-117550000D01*
X150833334Y-118216667D02*
X150833334Y-117516667D01*
X151066667Y-118016667D01*
X151300000Y-117516667D01*
X151300000Y-118216667D01*
X151666667Y-118216667D02*
X151800000Y-118216667D01*
X151866667Y-118183333D01*
X151900000Y-118150000D01*
X151966667Y-118050000D01*
X152000000Y-117916667D01*
X152000000Y-117650000D01*
X151966667Y-117583333D01*
X151933334Y-117550000D01*
X151866667Y-117516667D01*
X151733334Y-117516667D01*
X151666667Y-117550000D01*
X151633334Y-117583333D01*
X151600000Y-117650000D01*
X151600000Y-117816667D01*
X151633334Y-117883333D01*
X151666667Y-117916667D01*
X151733334Y-117950000D01*
X151866667Y-117950000D01*
X151933334Y-117916667D01*
X151966667Y-117883333D01*
X152000000Y-117816667D01*
X152300001Y-118216667D02*
X152300001Y-117516667D01*
X152466667Y-117516667D01*
X152566667Y-117550000D01*
X152633334Y-117616667D01*
X152666667Y-117683333D01*
X152700001Y-117816667D01*
X152700001Y-117916667D01*
X152666667Y-118050000D01*
X152633334Y-118116667D01*
X152566667Y-118183333D01*
X152466667Y-118216667D01*
X152300001Y-118216667D01*
X152966667Y-118183333D02*
X153066667Y-118216667D01*
X153233334Y-118216667D01*
X153300001Y-118183333D01*
X153333334Y-118150000D01*
X153366667Y-118083333D01*
X153366667Y-118016667D01*
X153333334Y-117950000D01*
X153300001Y-117916667D01*
X153233334Y-117883333D01*
X153100001Y-117850000D01*
X153033334Y-117816667D01*
X153000001Y-117783333D01*
X152966667Y-117716667D01*
X152966667Y-117650000D01*
X153000001Y-117583333D01*
X153033334Y-117550000D01*
X153100001Y-117516667D01*
X153266667Y-117516667D01*
X153366667Y-117550000D01*
X154033334Y-118216667D02*
X153633334Y-118216667D01*
X153833334Y-118216667D02*
X153833334Y-117516667D01*
X153766668Y-117616667D01*
X153700001Y-117683333D01*
X153633334Y-117716667D01*
D10*
X152500000Y-110814286D02*
X152471429Y-110842857D01*
X152385715Y-110871429D01*
X152328572Y-110871429D01*
X152242857Y-110842857D01*
X152185715Y-110785714D01*
X152157143Y-110728571D01*
X152128572Y-110614286D01*
X152128572Y-110528571D01*
X152157143Y-110414286D01*
X152185715Y-110357143D01*
X152242857Y-110300000D01*
X152328572Y-110271429D01*
X152385715Y-110271429D01*
X152471429Y-110300000D01*
X152500000Y-110328571D01*
X153042857Y-110271429D02*
X152757143Y-110271429D01*
X152728572Y-110557143D01*
X152757143Y-110528571D01*
X152814286Y-110500000D01*
X152957143Y-110500000D01*
X153014286Y-110528571D01*
X153042857Y-110557143D01*
X153071429Y-110614286D01*
X153071429Y-110757143D01*
X153042857Y-110814286D01*
X153014286Y-110842857D01*
X152957143Y-110871429D01*
X152814286Y-110871429D01*
X152757143Y-110842857D01*
X152728572Y-110814286D01*
X153371428Y-110814286D02*
X153400000Y-110842857D01*
X153371428Y-110871429D01*
X153342857Y-110842857D01*
X153371428Y-110814286D01*
X153371428Y-110871429D01*
X153771428Y-110271429D02*
X153828571Y-110271429D01*
X153885714Y-110300000D01*
X153914285Y-110328571D01*
X153942856Y-110385714D01*
X153971428Y-110500000D01*
X153971428Y-110642857D01*
X153942856Y-110757143D01*
X153914285Y-110814286D01*
X153885714Y-110842857D01*
X153828571Y-110871429D01*
X153771428Y-110871429D01*
X153714285Y-110842857D01*
X153685714Y-110814286D01*
X153657142Y-110757143D01*
X153628571Y-110642857D01*
X153628571Y-110500000D01*
X153657142Y-110385714D01*
X153685714Y-110328571D01*
X153714285Y-110300000D01*
X153771428Y-110271429D01*
X154542857Y-110871429D02*
X154200000Y-110871429D01*
X154371428Y-110871429D02*
X154371428Y-110271429D01*
X154314285Y-110357143D01*
X154257143Y-110414286D01*
X154200000Y-110442857D01*
X155057143Y-110471429D02*
X155057143Y-110871429D01*
X154800000Y-110471429D02*
X154800000Y-110785714D01*
X154828572Y-110842857D01*
X154885714Y-110871429D01*
X154971429Y-110871429D01*
X155028572Y-110842857D01*
X155057143Y-110814286D01*
X155542857Y-110557143D02*
X155342857Y-110557143D01*
X155342857Y-110871429D02*
X155342857Y-110271429D01*
X155628571Y-110271429D01*
X156028572Y-111100000D02*
X156000000Y-111071429D01*
X155942857Y-110985714D01*
X155914286Y-110928571D01*
X155885715Y-110842857D01*
X155857143Y-110700000D01*
X155857143Y-110585714D01*
X155885715Y-110442857D01*
X155914286Y-110357143D01*
X155942857Y-110300000D01*
X156000000Y-110214286D01*
X156028572Y-110185714D01*
X156571429Y-110871429D02*
X156228572Y-110871429D01*
X156400000Y-110871429D02*
X156400000Y-110271429D01*
X156342857Y-110357143D01*
X156285715Y-110414286D01*
X156228572Y-110442857D01*
X157085715Y-110271429D02*
X156971429Y-110271429D01*
X156914286Y-110300000D01*
X156885715Y-110328571D01*
X156828572Y-110414286D01*
X156800001Y-110528571D01*
X156800001Y-110757143D01*
X156828572Y-110814286D01*
X156857144Y-110842857D01*
X156914286Y-110871429D01*
X157028572Y-110871429D01*
X157085715Y-110842857D01*
X157114286Y-110814286D01*
X157142858Y-110757143D01*
X157142858Y-110614286D01*
X157114286Y-110557143D01*
X157085715Y-110528571D01*
X157028572Y-110500000D01*
X156914286Y-110500000D01*
X156857144Y-110528571D01*
X156828572Y-110557143D01*
X156800001Y-110614286D01*
X157314287Y-110271429D02*
X157514287Y-110871429D01*
X157714287Y-110271429D01*
X157857144Y-111100000D02*
X157885716Y-111071429D01*
X157942859Y-110985714D01*
X157971430Y-110928571D01*
X158000001Y-110842857D01*
X158028573Y-110700000D01*
X158028573Y-110585714D01*
X158000001Y-110442857D01*
X157971430Y-110357143D01*
X157942859Y-110300000D01*
X157885716Y-110214286D01*
X157857144Y-110185714D01*
X150914286Y-112400000D02*
X150942857Y-112428571D01*
X150971429Y-112514285D01*
X150971429Y-112571428D01*
X150942857Y-112657143D01*
X150885714Y-112714285D01*
X150828571Y-112742857D01*
X150714286Y-112771428D01*
X150628571Y-112771428D01*
X150514286Y-112742857D01*
X150457143Y-112714285D01*
X150400000Y-112657143D01*
X150371429Y-112571428D01*
X150371429Y-112514285D01*
X150400000Y-112428571D01*
X150428571Y-112400000D01*
X150371429Y-112200000D02*
X150371429Y-111828571D01*
X150600000Y-112028571D01*
X150600000Y-111942857D01*
X150628571Y-111885714D01*
X150657143Y-111857143D01*
X150714286Y-111828571D01*
X150857143Y-111828571D01*
X150914286Y-111857143D01*
X150942857Y-111885714D01*
X150971429Y-111942857D01*
X150971429Y-112114285D01*
X150942857Y-112171428D01*
X150914286Y-112200000D01*
X150914286Y-111114286D02*
X150942857Y-111085714D01*
X150971429Y-111114286D01*
X150942857Y-111142857D01*
X150914286Y-111114286D01*
X150971429Y-111114286D01*
X150971429Y-110514286D02*
X150971429Y-110857143D01*
X150971429Y-110685715D02*
X150371429Y-110685715D01*
X150457143Y-110742858D01*
X150514286Y-110800000D01*
X150542857Y-110857143D01*
X150571429Y-110000000D02*
X150971429Y-110000000D01*
X150571429Y-110257143D02*
X150885714Y-110257143D01*
X150942857Y-110228571D01*
X150971429Y-110171429D01*
X150971429Y-110085714D01*
X150942857Y-110028571D01*
X150914286Y-110000000D01*
X150657143Y-109514286D02*
X150657143Y-109714286D01*
X150971429Y-109714286D02*
X150371429Y-109714286D01*
X150371429Y-109428572D01*
X144914286Y-110700000D02*
X144942857Y-110728571D01*
X144971429Y-110814285D01*
X144971429Y-110871428D01*
X144942857Y-110957143D01*
X144885714Y-111014285D01*
X144828571Y-111042857D01*
X144714286Y-111071428D01*
X144628571Y-111071428D01*
X144514286Y-111042857D01*
X144457143Y-111014285D01*
X144400000Y-110957143D01*
X144371429Y-110871428D01*
X144371429Y-110814285D01*
X144400000Y-110728571D01*
X144428571Y-110700000D01*
X144428571Y-110471428D02*
X144400000Y-110442857D01*
X144371429Y-110385714D01*
X144371429Y-110242857D01*
X144400000Y-110185714D01*
X144428571Y-110157143D01*
X144485714Y-110128571D01*
X144542857Y-110128571D01*
X144628571Y-110157143D01*
X144971429Y-110500000D01*
X144971429Y-110128571D01*
X146014286Y-109114286D02*
X146042857Y-109085714D01*
X146071429Y-109114286D01*
X146042857Y-109142857D01*
X146014286Y-109114286D01*
X146071429Y-109114286D01*
X146071429Y-108514286D02*
X146071429Y-108857143D01*
X146071429Y-108685715D02*
X145471429Y-108685715D01*
X145557143Y-108742858D01*
X145614286Y-108800000D01*
X145642857Y-108857143D01*
X145671429Y-108000000D02*
X146071429Y-108000000D01*
X145671429Y-108257143D02*
X145985714Y-108257143D01*
X146042857Y-108228571D01*
X146071429Y-108171429D01*
X146071429Y-108085714D01*
X146042857Y-108028571D01*
X146014286Y-108000000D01*
X145757143Y-107514286D02*
X145757143Y-107714286D01*
X146071429Y-107714286D02*
X145471429Y-107714286D01*
X145471429Y-107428572D01*
X144500000Y-116514286D02*
X144471429Y-116542857D01*
X144385715Y-116571429D01*
X144328572Y-116571429D01*
X144242857Y-116542857D01*
X144185715Y-116485714D01*
X144157143Y-116428571D01*
X144128572Y-116314286D01*
X144128572Y-116228571D01*
X144157143Y-116114286D01*
X144185715Y-116057143D01*
X144242857Y-116000000D01*
X144328572Y-115971429D01*
X144385715Y-115971429D01*
X144471429Y-116000000D01*
X144500000Y-116028571D01*
X145014286Y-116171429D02*
X145014286Y-116571429D01*
X144871429Y-115942857D02*
X144728572Y-116371429D01*
X145100000Y-116371429D01*
X143785714Y-114014286D02*
X143814286Y-114042857D01*
X143785714Y-114071429D01*
X143757143Y-114042857D01*
X143785714Y-114014286D01*
X143785714Y-114071429D01*
X144385714Y-114071429D02*
X144042857Y-114071429D01*
X144214285Y-114071429D02*
X144214285Y-113471429D01*
X144157142Y-113557143D01*
X144100000Y-113614286D01*
X144042857Y-113642857D01*
X144900000Y-113671429D02*
X144900000Y-114071429D01*
X144642857Y-113671429D02*
X144642857Y-113985714D01*
X144671429Y-114042857D01*
X144728571Y-114071429D01*
X144814286Y-114071429D01*
X144871429Y-114042857D01*
X144900000Y-114014286D01*
X145385714Y-113757143D02*
X145185714Y-113757143D01*
X145185714Y-114071429D02*
X145185714Y-113471429D01*
X145471428Y-113471429D01*
X148414286Y-114000000D02*
X148442857Y-114028571D01*
X148471429Y-114114285D01*
X148471429Y-114171428D01*
X148442857Y-114257143D01*
X148385714Y-114314285D01*
X148328571Y-114342857D01*
X148214286Y-114371428D01*
X148128571Y-114371428D01*
X148014286Y-114342857D01*
X147957143Y-114314285D01*
X147900000Y-114257143D01*
X147871429Y-114171428D01*
X147871429Y-114114285D01*
X147900000Y-114028571D01*
X147928571Y-114000000D01*
X148471429Y-113428571D02*
X148471429Y-113771428D01*
X148471429Y-113600000D02*
X147871429Y-113600000D01*
X147957143Y-113657143D01*
X148014286Y-113714285D01*
X148042857Y-113771428D01*
X146857143Y-109771429D02*
X146514286Y-109771429D01*
X146685714Y-109771429D02*
X146685714Y-109171429D01*
X146628571Y-109257143D01*
X146571429Y-109314286D01*
X146514286Y-109342857D01*
X147228572Y-109171429D02*
X147285715Y-109171429D01*
X147342858Y-109200000D01*
X147371429Y-109228571D01*
X147400000Y-109285714D01*
X147428572Y-109400000D01*
X147428572Y-109542857D01*
X147400000Y-109657143D01*
X147371429Y-109714286D01*
X147342858Y-109742857D01*
X147285715Y-109771429D01*
X147228572Y-109771429D01*
X147171429Y-109742857D01*
X147142858Y-109714286D01*
X147114286Y-109657143D01*
X147085715Y-109542857D01*
X147085715Y-109400000D01*
X147114286Y-109285714D01*
X147142858Y-109228571D01*
X147171429Y-109200000D01*
X147228572Y-109171429D01*
X147942858Y-109371429D02*
X147942858Y-109771429D01*
X147685715Y-109371429D02*
X147685715Y-109685714D01*
X147714287Y-109742857D01*
X147771429Y-109771429D01*
X147857144Y-109771429D01*
X147914287Y-109742857D01*
X147942858Y-109714286D01*
X148428572Y-109457143D02*
X148228572Y-109457143D01*
X148228572Y-109771429D02*
X148228572Y-109171429D01*
X148514286Y-109171429D01*
M02*
