G04 #@! TF.FileFunction,Soldermask,Top*
%FSLAX46Y46*%
G04 Gerber Fmt 4.6, Leading zero omitted, Abs format (unit mm)*
G04 Created by KiCad (PCBNEW 4.0.6-e0-6349~53~ubuntu16.04.1) date Sat Jul 29 16:27:28 2017*
%MOMM*%
%LPD*%
G01*
G04 APERTURE LIST*
%ADD10C,0.150000*%
%ADD11R,5.000000X0.760000*%
%ADD12R,4.500000X8.800000*%
%ADD13R,0.250000X0.350000*%
%ADD14R,0.350000X0.250000*%
%ADD15R,0.899160X1.000760*%
%ADD16R,0.900000X1.000000*%
%ADD17R,1.000760X0.899160*%
%ADD18R,1.000000X0.900000*%
%ADD19C,3.000000*%
G04 APERTURE END LIST*
D10*
D11*
X146000000Y-99325000D03*
X146000000Y-101865000D03*
X146000000Y-104405000D03*
X146000000Y-103135000D03*
X146000000Y-105675000D03*
X146000000Y-100595000D03*
D12*
X162050000Y-102500000D03*
D13*
X153205000Y-113775000D03*
X150195000Y-113750000D03*
X153205000Y-116225000D03*
X150195000Y-116225000D03*
X151915000Y-116225000D03*
X152775000Y-116225000D03*
X152345000Y-116225000D03*
X152775000Y-113775000D03*
D14*
X153175000Y-115645000D03*
X153175000Y-115215000D03*
D13*
X151915000Y-113775000D03*
X152345000Y-113775000D03*
X150625000Y-113750000D03*
D14*
X150225000Y-115645000D03*
X150225000Y-114355000D03*
D13*
X151055000Y-113775000D03*
D14*
X150225000Y-114785000D03*
X150225000Y-115215000D03*
X153175000Y-114355000D03*
X153175000Y-114785000D03*
D13*
X151485000Y-113775000D03*
X151055000Y-116225000D03*
X151485000Y-116225000D03*
X150625000Y-116225000D03*
D15*
X153351840Y-111800000D03*
D16*
X151848160Y-111800000D03*
D17*
X149600000Y-112151840D03*
D18*
X149600000Y-110648160D03*
D17*
X146000000Y-110748160D03*
D18*
X146000000Y-112251840D03*
D15*
X143848160Y-115100000D03*
D16*
X145351840Y-115100000D03*
D17*
X147900000Y-112151840D03*
D18*
X147900000Y-110648160D03*
D19*
X140000000Y-111250000D03*
X164000000Y-111250000D03*
M02*
