M48
;DRILL file {KiCad 4.0.6-e0-6349~53~ubuntu16.04.1} date Sat Jul 29 16:27:26 2017
;FORMAT={-:-/ absolute / metric / decimal}
FMAT,2
METRIC,TZ
T1C0.300
T2C0.400
T3C3.000
%
G90
G05
M71
T1
X136.3Y-94.3
X136.3Y-95.3
X136.3Y-96.3
X136.3Y-97.3
X136.3Y-98.5
X136.3Y-99.5
X136.3Y-100.5
X136.3Y-101.5
X136.3Y-102.5
X136.3Y-103.5
X136.3Y-104.5
X136.3Y-105.5
X136.3Y-106.5
X136.3Y-107.5
X136.3Y-108.5
X136.3Y-109.5
X136.3Y-110.5
X136.3Y-111.5
X136.3Y-112.5
X136.3Y-113.5
X136.3Y-114.5
X136.3Y-115.5
X136.3Y-116.6
X136.3Y-117.6
X137.3Y-94.3
X137.3Y-95.3
X137.3Y-96.3
X137.3Y-97.3
X137.3Y-98.5
X137.3Y-99.5
X137.3Y-100.5
X137.3Y-101.5
X137.3Y-102.5
X137.4Y-103.6
X137.4Y-104.6
X137.4Y-105.5
X137.4Y-106.5
X137.4Y-107.5
X137.4Y-108.5
X137.4Y-109.5
X137.4Y-110.5
X137.4Y-111.5
X137.4Y-112.5
X137.4Y-113.5
X137.4Y-114.5
X137.4Y-115.5
X137.4Y-116.6
X137.4Y-117.6
X138.3Y-94.3
X138.3Y-95.3
X138.3Y-96.3
X138.3Y-97.3
X138.3Y-98.5
X138.3Y-99.5
X138.3Y-100.5
X138.3Y-101.5
X138.3Y-102.5
X138.4Y-103.6
X138.5Y-107.5
X138.5Y-108.5
X138.5Y-109.5
X138.5Y-113.5
X138.5Y-114.5
X138.5Y-115.5
X138.5Y-116.6
X138.5Y-117.6
X138.6Y-105.5
X138.6Y-106.5
X138.7Y-104.4
X139.3Y-94.3
X139.3Y-95.3
X139.3Y-96.3
X139.3Y-97.3
X139.3Y-98.5
X139.3Y-99.5
X139.3Y-100.5
X139.3Y-101.5
X139.3Y-102.5
X139.5Y-106.5
X139.5Y-107.5
X139.6Y-103.6
X139.6Y-104.4
X139.6Y-105.5
X139.6Y-108.5
X139.6Y-113.4
X139.6Y-114.5
X139.6Y-115.5
X139.6Y-116.6
X139.6Y-117.6
X140.3Y-94.3
X140.3Y-95.3
X140.3Y-96.3
X140.3Y-97.3
X140.3Y-98.5
X140.3Y-99.5
X140.3Y-100.5
X140.3Y-101.5
X140.3Y-102.5
X140.5Y-104.4
X140.5Y-105.6
X140.6Y-106.5
X140.6Y-107.5
X140.6Y-108.5
X140.6Y-113.4
X140.6Y-114.5
X140.6Y-115.5
X140.6Y-116.6
X140.6Y-117.6
X141.3Y-94.3
X141.3Y-95.3
X141.3Y-96.3
X141.3Y-97.3
X141.6Y-113.4
X141.6Y-114.5
X141.6Y-115.5
X141.6Y-116.6
X141.6Y-117.6
X142.3Y-94.3
X142.3Y-95.3
X142.3Y-96.3
X142.3Y-97.3
X142.6Y-113.4
X142.6Y-114.5
X142.6Y-115.5
X142.6Y-116.6
X142.6Y-117.6
X143.3Y-94.3
X143.3Y-95.3
X143.3Y-96.3
X143.3Y-97.3
X143.6Y-116.6
X143.6Y-117.6
X144.3Y-94.3
X144.3Y-95.3
X144.3Y-96.3
X144.6Y-116.6
X144.6Y-117.6
X145.3Y-94.3
X145.3Y-95.3
X145.3Y-96.3
X145.6Y-116.6
X145.6Y-117.6
X146.3Y-94.3
X146.3Y-95.3
X146.3Y-96.3
X146.7Y-117.6
X147.3Y-94.3
X147.3Y-95.3
X147.3Y-96.3
X147.7Y-116.6
X147.7Y-117.6
X148.3Y-94.3
X148.3Y-95.3
X148.3Y-96.3
X148.7Y-117.6
X149.3Y-94.3
X149.3Y-95.3
X149.3Y-96.3
X155.5Y-108.5
X155.5Y-109.5
X156.5Y-108.5
X156.5Y-109.5
X157.5Y-94.3
X157.5Y-95.3
X157.5Y-96.3
X157.5Y-97.3
X157.5Y-108.5
X157.5Y-109.5
X157.5Y-110.5
X157.5Y-111.5
X157.5Y-112.5
X157.5Y-113.5
X157.5Y-114.6
X157.5Y-115.6
X157.5Y-116.7
X157.5Y-117.7
X158.5Y-94.3
X158.5Y-95.3
X158.5Y-96.3
X158.5Y-97.3
X158.5Y-108.5
X158.5Y-109.5
X158.5Y-110.5
X158.5Y-111.5
X158.5Y-112.5
X158.5Y-113.5
X158.5Y-114.6
X158.5Y-115.6
X158.5Y-116.7
X158.5Y-117.7
X159.5Y-94.3
X159.5Y-95.3
X159.5Y-96.3
X159.5Y-97.3
X159.5Y-108.5
X159.5Y-109.5
X159.5Y-110.5
X159.5Y-111.5
X159.5Y-112.5
X159.5Y-113.5
X159.5Y-114.6
X159.5Y-115.6
X159.5Y-116.7
X159.5Y-117.7
X160.5Y-94.3
X160.5Y-95.3
X160.5Y-96.3
X160.5Y-97.3
X160.5Y-108.5
X160.5Y-109.5
X160.5Y-110.5
X160.5Y-111.5
X160.5Y-112.5
X160.5Y-113.5
X160.5Y-114.5
X160.5Y-115.5
X160.5Y-116.6
X160.5Y-117.6
X161.5Y-94.3
X161.5Y-95.3
X161.5Y-96.3
X161.5Y-97.3
X161.5Y-108.5
X161.5Y-109.5
X161.5Y-110.5
X161.5Y-111.5
X161.5Y-112.5
X161.5Y-113.5
X161.5Y-114.5
X161.5Y-115.5
X161.5Y-116.6
X161.5Y-117.6
X162.6Y-94.3
X162.6Y-95.3
X162.6Y-96.3
X162.6Y-97.3
X162.6Y-108.6
X162.6Y-109.5
X162.6Y-113.5
X162.6Y-114.5
X162.6Y-115.5
X162.6Y-116.6
X162.6Y-117.6
X163.6Y-94.3
X163.6Y-95.3
X163.6Y-96.3
X163.6Y-97.3
X163.6Y-108.5
X163.6Y-113.5
X163.6Y-114.5
X163.6Y-115.5
X163.6Y-116.6
X163.6Y-117.6
X164.6Y-94.3
X164.6Y-95.3
X164.6Y-96.3
X164.6Y-97.3
X164.6Y-108.5
X164.6Y-113.5
X164.6Y-114.5
X164.6Y-115.5
X164.6Y-116.6
X164.6Y-117.6
X165.6Y-94.3
X165.6Y-95.3
X165.6Y-96.3
X165.6Y-97.3
X165.6Y-98.3
X165.6Y-99.3
X165.6Y-100.3
X165.6Y-101.3
X165.6Y-102.4
X165.6Y-103.4
X165.6Y-104.5
X165.6Y-105.5
X165.6Y-106.5
X165.6Y-107.5
X165.6Y-108.6
X165.6Y-109.5
X165.6Y-113.5
X165.6Y-114.5
X165.6Y-115.5
X165.6Y-116.6
X165.6Y-117.6
X166.6Y-94.3
X166.6Y-95.3
X166.6Y-96.3
X166.6Y-97.3
X166.6Y-98.3
X166.6Y-99.3
X166.6Y-100.3
X166.6Y-101.3
X166.6Y-102.4
X166.6Y-103.4
X166.6Y-104.5
X166.6Y-105.6
X166.6Y-106.6
X166.6Y-107.6
X166.6Y-108.6
X166.6Y-109.5
X166.6Y-110.5
X166.6Y-111.5
X166.6Y-112.5
X166.6Y-113.5
X166.6Y-114.5
X166.6Y-115.5
X166.6Y-116.6
X166.6Y-117.6
X167.6Y-94.3
X167.6Y-95.3
X167.6Y-96.3
X167.6Y-97.3
X167.6Y-98.3
X167.6Y-99.3
X167.6Y-100.3
X167.6Y-101.3
X167.6Y-102.4
X167.6Y-103.4
X167.6Y-104.5
X167.6Y-105.6
X167.6Y-106.6
X167.6Y-107.6
X167.6Y-108.6
X167.6Y-109.5
X167.6Y-110.5
X167.6Y-111.5
X167.6Y-112.5
X167.6Y-113.5
X167.6Y-114.5
X167.6Y-115.5
X167.6Y-116.6
X167.6Y-117.6
T2
X141.7Y-102.5
X144.3Y-107.3
X145.6Y-109.6
X146.6Y-115.7
X147.6Y-97.8
X148.9Y-114.9
X149.4Y-113.7
X149.6Y-109.3
X149.8Y-99.6
X151.8Y-110.
X152.6Y-105.5
X152.8Y-102.8
X154.2Y-113.8
X154.3Y-114.9
X154.4Y-115.9
X154.5Y-111.8
X154.9Y-106.8
X155.Y-112.9
T3
X140.Y-111.25
X164.Y-111.25
T0
M30
