M48
; DRILL file {KiCad 5.1.5-52549c5~86~ubuntu18.04.1} date Mon 07 Dec 2020 10:39:30 PM PST
; FORMAT={-:-/ absolute / metric / decimal}
; #@! TF.CreationDate,2020-12-07T22:39:30-08:00
; #@! TF.GenerationSoftware,Kicad,Pcbnew,5.1.5-52549c5~86~ubuntu18.04.1
FMAT,2
METRIC
T1C0.400
T2C0.635
T3C0.800
T4C0.813
T5C1.000
T6C1.699
%
G90
G05
T1
X151.13Y-109.982
X151.384Y-106.68
X151.384Y-108.204
X152.146Y-128.524
X152.146Y-129.794
X152.146Y-131.064
X163.068Y-126.238
X163.322Y-106.934
X163.322Y-108.458
X163.322Y-127.508
X163.322Y-128.778
X163.322Y-130.048
X163.322Y-131.318
X163.322Y-132.588
X163.322Y-134.112
X163.322Y-135.382
X163.576Y-105.664
X163.576Y-109.728
X163.576Y-111.252
X163.576Y-113.284
X164.338Y-103.632
X166.37Y-128.778
X166.624Y-112.268
X166.878Y-134.112
X177.8Y-104.394
X177.8Y-106.68
X177.8Y-109.22
X177.8Y-111.76
X178.054Y-114.554
X178.308Y-124.968
X178.308Y-127.508
X178.308Y-130.048
X178.308Y-131.572
X178.308Y-135.128
X181.196Y-120.338
X181.864Y-133.858
X183.642Y-133.858
X184.15Y-136.144
X185.928Y-125.73
X185.928Y-127.508
X197.358Y-132.334
T2
X143.256Y-97.79
X143.256Y-99.06
X144.018Y-100.076
X144.78Y-59.944
X144.78Y-98.806
X145.288Y-101.092
X145.542Y-80.264
X145.542Y-100.09
X145.796Y-88.392
X146.558Y-65.278
X148.844Y-78.994
X149.24Y-66.756
X154.225Y-78.453
X156.09Y-75.586
X157.91Y-65.776
X163.15Y-61.126
X163.28Y-76.796
X163.49Y-78.056
X163.64Y-90.356
X168.04Y-75.856
X168.389Y-77.338
X169.06Y-84.849
X170.688Y-79.502
X172.28Y-71.086
X172.94Y-86.756
X173.14Y-80.226
X175.14Y-63.456
X176.022Y-74.676
X176.53Y-68.326
X177.8Y-72.136
X178.373Y-74.93
X180.58Y-76.726
X181.49Y-82.306
X181.64Y-83.631
X181.815Y-87.256
X184.658Y-88.392
X184.815Y-76.856
X185.928Y-72.39
X186.19Y-76.631
X189.33Y-80.056
X189.992Y-84.582
X191.516Y-88.392
X192.715Y-71.156
X192.84Y-88.482
X193.294Y-67.564
X193.802Y-76.708
X194.113Y-73.857
X196.515Y-87.156
X197.14Y-90.281
X197.358Y-63.246
X197.866Y-70.358
X198.815Y-86.656
T3
X139.99Y-108.59
X139.99Y-116.21
X142.53Y-108.59
X142.53Y-116.21
X145.07Y-108.59
X145.07Y-116.21
X147.61Y-108.59
X147.61Y-116.21
X140.09Y-96.09
X140.09Y-103.71
X142.63Y-96.09
X142.63Y-103.71
X145.17Y-96.09
X145.17Y-103.71
X147.71Y-96.09
X147.71Y-103.71
X140.208Y-120.65
X140.208Y-128.27
X142.748Y-120.65
X142.748Y-128.27
X145.288Y-120.65
X145.288Y-128.27
X147.828Y-120.65
X147.828Y-128.27
T4
X181.15Y-64.786
X181.15Y-67.326
X183.69Y-64.786
X183.69Y-67.326
X186.23Y-64.786
X186.23Y-67.326
T5
X166.97Y-64.626
X167.113Y-62.229
X169.51Y-62.086
X169.51Y-64.626
X164.19Y-67.216
X164.19Y-69.756
X164.19Y-72.296
X160.74Y-69.066
X160.74Y-71.606
X160.74Y-74.146
X173.228Y-66.03
X173.228Y-68.57
X167.99Y-68.846
X167.99Y-71.386
X176.53Y-83.82
X176.53Y-86.36
X176.53Y-88.9
X149.99Y-63.356
X153.49Y-63.356
T6
X155.702Y-84.089
X155.702Y-88.59
T0
M30
