G04 #@! TF.GenerationSoftware,KiCad,Pcbnew,5.1.5-52549c5~86~ubuntu18.04.1*
G04 #@! TF.CreationDate,2020-12-07T22:39:35-08:00*
G04 #@! TF.ProjectId,multiple_PCBs,6d756c74-6970-46c6-955f-504342732e6b,rev?*
G04 #@! TF.SameCoordinates,Original*
G04 #@! TF.FileFunction,Copper,L2,Bot*
G04 #@! TF.FilePolarity,Positive*
%FSLAX46Y46*%
G04 Gerber Fmt 4.6, Leading zero omitted, Abs format (unit mm)*
G04 Created by KiCad (PCBNEW 5.1.5-52549c5~86~ubuntu18.04.1) date 2020-12-07 22:39:35*
%MOMM*%
%LPD*%
G04 APERTURE LIST*
%ADD10R,1.397000X1.397000*%
%ADD11C,1.397000*%
%ADD12C,1.800000*%
%ADD13C,2.500000*%
%ADD14C,1.998980*%
%ADD15C,1.524000*%
%ADD16C,0.889000*%
%ADD17C,0.700000*%
%ADD18C,0.762000*%
%ADD19C,0.600000*%
%ADD20C,0.508000*%
%ADD21C,0.254000*%
%ADD22C,1.016000*%
%ADD23C,1.270000*%
G04 APERTURE END LIST*
D10*
X140090000Y-103710000D03*
D11*
X142630000Y-103710000D03*
X145170000Y-103710000D03*
X147710000Y-103710000D03*
X147710000Y-96090000D03*
X145170000Y-96090000D03*
X142630000Y-96090000D03*
X140090000Y-96090000D03*
D10*
X140208000Y-128270000D03*
D11*
X142748000Y-128270000D03*
X145288000Y-128270000D03*
X147828000Y-128270000D03*
X147828000Y-120650000D03*
X145288000Y-120650000D03*
X142748000Y-120650000D03*
X140208000Y-120650000D03*
D10*
X139990000Y-116210000D03*
D11*
X142530000Y-116210000D03*
X145070000Y-116210000D03*
X147610000Y-116210000D03*
X147610000Y-108590000D03*
X145070000Y-108590000D03*
X142530000Y-108590000D03*
X139990000Y-108590000D03*
D12*
X167113000Y-62229000D03*
X166970000Y-64626000D03*
X169510000Y-64626000D03*
X169510000Y-62086000D03*
X167990000Y-68846160D03*
X167990000Y-71386160D03*
X173228000Y-68569840D03*
X173228000Y-66029840D03*
X160740000Y-69066000D03*
X160740000Y-71606000D03*
X160740000Y-74146000D03*
D13*
X149989940Y-63356000D03*
X153490060Y-63356000D03*
D12*
X164190000Y-67216000D03*
X164190000Y-69756000D03*
X164190000Y-72296000D03*
D14*
X155702000Y-84089240D03*
X155702000Y-88590120D03*
D15*
X186230000Y-64786000D03*
X183690000Y-64786000D03*
X181150000Y-64786000D03*
X181150000Y-67326000D03*
X183690000Y-67326000D03*
X186230000Y-67326000D03*
D12*
X176530000Y-88900000D03*
X176530000Y-86360000D03*
X176530000Y-83820000D03*
D16*
X143256000Y-99060000D03*
X144018000Y-100076000D03*
X145288000Y-101092000D03*
X145542000Y-100090500D03*
X144780000Y-98806000D03*
X143256000Y-97790000D03*
D17*
X163576000Y-111252000D03*
X177800000Y-111760000D03*
X163576000Y-113284000D03*
X178054000Y-114554000D03*
X151130000Y-109982000D03*
X166624000Y-112268000D03*
X151384000Y-106680000D03*
X163322000Y-106934000D03*
X151384000Y-108204000D03*
X163576000Y-109728000D03*
X163322000Y-108458000D03*
X177800000Y-109220000D03*
X163576000Y-105664000D03*
X177800000Y-106680000D03*
X164338000Y-103632000D03*
X177800000Y-104394000D03*
X163068000Y-126238000D03*
X178308000Y-124968000D03*
X181196000Y-120338000D03*
X163322000Y-128778000D03*
X178308000Y-127508000D03*
X185928000Y-125730000D03*
X197358000Y-132334000D03*
X163322000Y-131318000D03*
X178308000Y-130048000D03*
X152146000Y-129794000D03*
X163322000Y-130048000D03*
X183642000Y-133858000D03*
X166370000Y-128778000D03*
X152146000Y-128524000D03*
X163322000Y-127508000D03*
X152146000Y-131064000D03*
X163322000Y-132588000D03*
X181864000Y-133858000D03*
X166878000Y-134112000D03*
X184150000Y-136144000D03*
X185928000Y-127508000D03*
X163322000Y-135382000D03*
X178308000Y-135128000D03*
X163322000Y-134112000D03*
X178308000Y-131572000D03*
D16*
X172280000Y-71086000D03*
X177800000Y-72136000D03*
X157910000Y-65776000D03*
X149240000Y-66756000D03*
X169060000Y-84848500D03*
X176022000Y-74676000D03*
X178372500Y-74930000D03*
X194112625Y-73857375D03*
X193294000Y-67564000D03*
X148844000Y-78994000D03*
X146558000Y-65278000D03*
X156090000Y-75586000D03*
X163640000Y-90356000D03*
X163150000Y-61126000D03*
X163490000Y-78056000D03*
X154224858Y-78453500D03*
X168040000Y-75856000D03*
X163280265Y-76796265D03*
X184658000Y-88392000D03*
X192840000Y-88482000D03*
X196515000Y-87156000D03*
X189330000Y-80056000D03*
X189992000Y-84582000D03*
X144780000Y-59944000D03*
X145542000Y-80264000D03*
X145796000Y-88392000D03*
X197358000Y-63246000D03*
X197866000Y-70358000D03*
X185928000Y-72390000D03*
X175139940Y-63456000D03*
X176530000Y-68326000D03*
X172940000Y-86756000D03*
X173140000Y-80226000D03*
X170688000Y-79502000D03*
X180580000Y-76726000D03*
X184815000Y-76856000D03*
X197140000Y-90281000D03*
X191516000Y-88392000D03*
X198815000Y-86656000D03*
X192715000Y-71156000D03*
X193802000Y-76708000D03*
X181815000Y-87256000D03*
X181490000Y-82306000D03*
X181640000Y-83631000D03*
X186190000Y-76631000D03*
X168388967Y-77337798D03*
D18*
X142630000Y-99686000D02*
X142630000Y-103710000D01*
X143256000Y-99060000D02*
X142630000Y-99686000D01*
X144081501Y-102621501D02*
X145170000Y-103710000D01*
X144018000Y-100076000D02*
X144081501Y-100520499D01*
X144081501Y-100520499D02*
X144081501Y-102621501D01*
X145288000Y-101092000D02*
X146558000Y-101092000D01*
X147710000Y-102244000D02*
X147710000Y-103710000D01*
X146558000Y-101092000D02*
X147710000Y-102244000D01*
X145868499Y-96788499D02*
X145170000Y-96090000D01*
X145986499Y-99646001D02*
X145986499Y-96906499D01*
X145986499Y-96906499D02*
X145868499Y-96788499D01*
X145542000Y-100090500D02*
X145986499Y-99646001D01*
X144780000Y-98806000D02*
X144780000Y-97944258D01*
X143328499Y-96788499D02*
X142630000Y-96090000D01*
X143624241Y-96788499D02*
X143328499Y-96788499D01*
X144780000Y-97944258D02*
X143624241Y-96788499D01*
X140090000Y-97164000D02*
X140090000Y-96090000D01*
X143256000Y-97790000D02*
X140716000Y-97790000D01*
X140716000Y-97790000D02*
X140090000Y-97164000D01*
D19*
X164070974Y-111252000D02*
X164578974Y-110744000D01*
X163576000Y-111252000D02*
X164070974Y-111252000D01*
X164578974Y-110744000D02*
X170434000Y-110744000D01*
X170434000Y-110744000D02*
X171450000Y-111760000D01*
X171450000Y-111760000D02*
X177800000Y-111760000D01*
X163576000Y-113284000D02*
X165354000Y-113284000D01*
X165354000Y-113284000D02*
X166624000Y-114554000D01*
X166624000Y-114554000D02*
X178054000Y-114554000D01*
X152654000Y-109982000D02*
X151130000Y-109982000D01*
X154940000Y-112268000D02*
X152654000Y-109982000D01*
X166624000Y-112268000D02*
X154940000Y-112268000D01*
X151384000Y-106680000D02*
X160274000Y-106680000D01*
X160274000Y-106680000D02*
X160528000Y-106934000D01*
X160528000Y-106934000D02*
X163322000Y-106934000D01*
X151384000Y-108204000D02*
X153924000Y-108204000D01*
X153924000Y-108204000D02*
X155448000Y-109728000D01*
X155448000Y-109728000D02*
X163576000Y-109728000D01*
X163322000Y-108458000D02*
X163816974Y-108458000D01*
X163816974Y-108458000D02*
X170688000Y-108458000D01*
X170688000Y-108458000D02*
X171450000Y-109220000D01*
X171450000Y-109220000D02*
X177800000Y-109220000D01*
X163576000Y-105664000D02*
X167386000Y-105664000D01*
X167386000Y-105664000D02*
X168402000Y-106680000D01*
X168402000Y-106680000D02*
X177800000Y-106680000D01*
X164338000Y-103632000D02*
X177292000Y-103632000D01*
X177292000Y-103632000D02*
X177800000Y-104140000D01*
X177800000Y-104140000D02*
X177800000Y-104394000D01*
X163068000Y-126238000D02*
X164338000Y-126238000D01*
X164338000Y-126238000D02*
X165608000Y-124968000D01*
X165608000Y-124968000D02*
X178308000Y-124968000D01*
X181196000Y-122080000D02*
X178308000Y-124968000D01*
X181196000Y-120338000D02*
X181196000Y-122080000D01*
X163816974Y-128778000D02*
X165086974Y-127508000D01*
X163322000Y-128778000D02*
X163816974Y-128778000D01*
X165086974Y-127508000D02*
X178308000Y-127508000D01*
X185928000Y-125730000D02*
X186436000Y-125222000D01*
X186436000Y-125222000D02*
X196596000Y-125222000D01*
X196596000Y-125222000D02*
X198374000Y-127000000D01*
X198374000Y-127000000D02*
X198374000Y-131318000D01*
X198374000Y-131318000D02*
X197358000Y-132334000D01*
X163322000Y-131318000D02*
X166370000Y-131318000D01*
X166370000Y-131318000D02*
X167640000Y-130048000D01*
X167640000Y-130048000D02*
X178308000Y-130048000D01*
X152146000Y-129794000D02*
X159258000Y-129794000D01*
X159258000Y-129794000D02*
X159512000Y-130048000D01*
X159512000Y-130048000D02*
X163322000Y-130048000D01*
X183642000Y-133363026D02*
X179324000Y-129045026D01*
X183642000Y-133858000D02*
X183642000Y-133363026D01*
X179324000Y-129045026D02*
X179083026Y-129045026D01*
X179083026Y-129045026D02*
X178816000Y-128778000D01*
X178816000Y-128778000D02*
X166370000Y-128778000D01*
X152640974Y-128524000D02*
X153656974Y-127508000D01*
X152146000Y-128524000D02*
X152640974Y-128524000D01*
X153656974Y-127508000D02*
X163322000Y-127508000D01*
X152146000Y-131064000D02*
X159258000Y-131064000D01*
X159258000Y-131064000D02*
X160782000Y-132588000D01*
X160782000Y-132588000D02*
X163322000Y-132588000D01*
X166878000Y-134112000D02*
X176530000Y-134112000D01*
X176530000Y-134112000D02*
X177546000Y-133096000D01*
X181102000Y-133096000D02*
X181864000Y-133858000D01*
X177546000Y-133096000D02*
X181102000Y-133096000D01*
X184150000Y-135649026D02*
X184912000Y-134887026D01*
X184150000Y-136144000D02*
X184150000Y-135649026D01*
X184912000Y-134887026D02*
X184912000Y-128524000D01*
X184912000Y-128524000D02*
X185928000Y-127508000D01*
X163816974Y-135382000D02*
X164070974Y-135636000D01*
X163322000Y-135382000D02*
X163816974Y-135382000D01*
X164070974Y-135636000D02*
X177800000Y-135636000D01*
X177800000Y-135636000D02*
X178308000Y-135128000D01*
X164338000Y-134112000D02*
X163322000Y-134112000D01*
X178308000Y-131572000D02*
X168656000Y-131572000D01*
X168656000Y-131572000D02*
X164338000Y-134112000D01*
D18*
X171979840Y-71386160D02*
X172280000Y-71086000D01*
X167990000Y-71386160D02*
X171979840Y-71386160D01*
D20*
X169550000Y-71086000D02*
X172280000Y-71086000D01*
X169260000Y-71376000D02*
X169550000Y-71086000D01*
X170280000Y-72396000D02*
X169260000Y-71376000D01*
X177800000Y-72136000D02*
X177601383Y-72396000D01*
X177601383Y-72396000D02*
X170280000Y-72396000D01*
D21*
X152409940Y-65776000D02*
X151490000Y-64856060D01*
X157910000Y-65776000D02*
X152409940Y-65776000D01*
X151490000Y-64856060D02*
X149989940Y-63356000D01*
D18*
X149989940Y-63356000D02*
X149989940Y-66006060D01*
X149989940Y-66006060D02*
X149240000Y-66756000D01*
D22*
X160740000Y-67793208D02*
X160740000Y-69066000D01*
X160740000Y-67329208D02*
X160740000Y-67793208D01*
D18*
X169152792Y-60456000D02*
X169510000Y-60813208D01*
X165890000Y-60456000D02*
X169152792Y-60456000D01*
X164890000Y-61456000D02*
X165890000Y-60456000D01*
X169510000Y-60813208D02*
X169510000Y-62086000D01*
X164890000Y-63643208D02*
X164890000Y-61456000D01*
X160740000Y-67793208D02*
X164890000Y-63643208D01*
D20*
X169060000Y-84848500D02*
X166632500Y-84848500D01*
X165640000Y-83856000D02*
X165640000Y-77756000D01*
X166632500Y-84848500D02*
X165640000Y-83856000D01*
X162012792Y-71606000D02*
X162290000Y-71883208D01*
X160740000Y-71606000D02*
X162012792Y-71606000D01*
X162290000Y-71883208D02*
X162290000Y-73156000D01*
X162290000Y-73156000D02*
X164040000Y-74906000D01*
X164040000Y-74906000D02*
X164040000Y-76356000D01*
X165640000Y-77756000D02*
X164040000Y-76356000D01*
X176276000Y-74930000D02*
X176022000Y-74676000D01*
X178372500Y-74930000D02*
X176276000Y-74930000D01*
D18*
X194112625Y-73857375D02*
X194112625Y-68382625D01*
X194112625Y-68382625D02*
X193294000Y-67564000D01*
D23*
X146812000Y-77216000D02*
X147320000Y-77470000D01*
X147066000Y-77216000D02*
X146812000Y-77216000D01*
X148844000Y-78994000D02*
X147066000Y-77216000D01*
X146304000Y-76454000D02*
X148844000Y-78994000D01*
X146558000Y-65278000D02*
X146304000Y-76454000D01*
D18*
X169262792Y-68846160D02*
X170002952Y-68106000D01*
X167990000Y-68846160D02*
X169262792Y-68846160D01*
X170002952Y-68106000D02*
X170740000Y-68106000D01*
D22*
X175139940Y-65223766D02*
X176072174Y-66156000D01*
X176072174Y-66156000D02*
X179690000Y-66156000D01*
X179690000Y-66156000D02*
X181790000Y-68256000D01*
X181790000Y-68256000D02*
X181790000Y-73156000D01*
X175442501Y-82011201D02*
X175293851Y-82159851D01*
X175442501Y-80518501D02*
X175442501Y-82011201D01*
X174950000Y-79746000D02*
X174950000Y-80026000D01*
X174950000Y-80026000D02*
X175442501Y-80518501D01*
D20*
X162549735Y-76796265D02*
X163280265Y-76796265D01*
X161690000Y-77656000D02*
X162549735Y-76796265D01*
X161690000Y-83906000D02*
X161690000Y-77656000D01*
X164240000Y-85156000D02*
X162940000Y-85156000D01*
X162940000Y-85156000D02*
X161690000Y-83906000D01*
X189620501Y-91386501D02*
X189620501Y-90386501D01*
X190065000Y-91831000D02*
X189620501Y-91386501D01*
X192840000Y-88482000D02*
X193539000Y-88482000D01*
X193539000Y-88482000D02*
X194890000Y-87131000D01*
X196490000Y-87131000D02*
X196515000Y-87156000D01*
X194890000Y-87131000D02*
X196490000Y-87131000D01*
X193284499Y-88926499D02*
X193284499Y-89636501D01*
X192840000Y-88482000D02*
X193284499Y-88926499D01*
X193284499Y-89636501D02*
X191090000Y-91831000D01*
D22*
X175139940Y-63456000D02*
X175139940Y-65223766D01*
D18*
X164380000Y-67216000D02*
X166970000Y-64626000D01*
X164190000Y-67216000D02*
X164380000Y-67216000D01*
D20*
X165462792Y-69756000D02*
X164190000Y-69756000D01*
X166040000Y-73206000D02*
X166040000Y-70333208D01*
X165340000Y-73906000D02*
X166040000Y-73206000D01*
X166790000Y-77606000D02*
X165340000Y-76156000D01*
X165340000Y-76156000D02*
X165340000Y-73906000D01*
X173038501Y-85557499D02*
X171300000Y-83526000D01*
X172940000Y-86756000D02*
X173038501Y-85557499D01*
X171300000Y-83526000D02*
X169900000Y-83066000D01*
X166040000Y-70333208D02*
X165462792Y-69756000D01*
X169090000Y-82306000D02*
X166790000Y-80006000D01*
X166790000Y-80006000D02*
X166790000Y-77606000D01*
X169900000Y-83066000D02*
X169090000Y-82306000D01*
X172416000Y-79502000D02*
X173140000Y-80226000D01*
X170688000Y-79502000D02*
X172416000Y-79502000D01*
X180710000Y-76856000D02*
X180580000Y-76726000D01*
X184815000Y-76856000D02*
X180710000Y-76856000D01*
X198815000Y-88606000D02*
X197140000Y-90281000D01*
X197815000Y-85656000D02*
X198815000Y-86656000D01*
X191516000Y-88392000D02*
X193161383Y-85656000D01*
X193161383Y-85656000D02*
X197815000Y-85656000D01*
X198815000Y-86656000D02*
X198815000Y-88606000D01*
X186345000Y-64786000D02*
X186230000Y-64786000D01*
X192715000Y-71156000D02*
X186345000Y-64786000D01*
X185113999Y-67861681D02*
X188626318Y-71374000D01*
X183690000Y-64786000D02*
X185113999Y-66209999D01*
X185113999Y-66209999D02*
X185113999Y-67861681D01*
X188626318Y-71374000D02*
X190500000Y-71374000D01*
X190500000Y-71374000D02*
X193802000Y-74676000D01*
X193802000Y-74676000D02*
X193802000Y-76708000D01*
X181370501Y-87700499D02*
X181370501Y-87725499D01*
X181815000Y-87256000D02*
X181370501Y-87700499D01*
X180196000Y-88900000D02*
X176530000Y-88900000D01*
X181370501Y-87725499D02*
X180196000Y-88900000D01*
D22*
X177429999Y-85460001D02*
X179785999Y-85460001D01*
X176530000Y-86360000D02*
X177429999Y-85460001D01*
X179785999Y-85460001D02*
X181490000Y-83756000D01*
X181490000Y-83756000D02*
X181490000Y-82306000D01*
D20*
X185745501Y-77075499D02*
X185745501Y-77500499D01*
X186190000Y-76631000D02*
X185745501Y-77075499D01*
X184864990Y-78381010D02*
X185745501Y-77500499D01*
X168388967Y-77337798D02*
X169432179Y-78381010D01*
X169432179Y-78381010D02*
X184864990Y-78381010D01*
M02*
