G04 #@! TF.GenerationSoftware,KiCad,Pcbnew,5.1.5-52549c5~86~ubuntu18.04.1*
G04 #@! TF.CreationDate,2020-12-07T22:39:35-08:00*
G04 #@! TF.ProjectId,multiple_PCBs,6d756c74-6970-46c6-955f-504342732e6b,rev?*
G04 #@! TF.SameCoordinates,Original*
G04 #@! TF.FileFunction,Legend,Top*
G04 #@! TF.FilePolarity,Positive*
%FSLAX46Y46*%
G04 Gerber Fmt 4.6, Leading zero omitted, Abs format (unit mm)*
G04 Created by KiCad (PCBNEW 5.1.5-52549c5~86~ubuntu18.04.1) date 2020-12-07 22:39:35*
%MOMM*%
%LPD*%
G04 APERTURE LIST*
%ADD10C,0.254000*%
%ADD11C,0.162500*%
%ADD12C,0.175000*%
%ADD13C,0.250000*%
%ADD14C,0.300000*%
%ADD15C,0.150000*%
%ADD16C,0.200000*%
%ADD17C,0.317500*%
%ADD18C,0.304800*%
%ADD19C,0.099060*%
%ADD20C,0.762000*%
%ADD21C,0.127000*%
%ADD22C,0.120000*%
%ADD23C,0.381000*%
%ADD24C,0.066040*%
%ADD25C,0.101600*%
%ADD26C,0.200660*%
%ADD27C,0.187500*%
%ADD28C,0.190500*%
%ADD29C,0.088900*%
G04 APERTURE END LIST*
D10*
X201000000Y-142000000D02*
X201000000Y-59000000D01*
X137000000Y-59000000D02*
X201000000Y-59000000D01*
X137000000Y-142000000D02*
X201000000Y-142000000D01*
X137000000Y-59000000D02*
X137000000Y-142000000D01*
D11*
X148151904Y-126642142D02*
X148151904Y-126270714D01*
X148951904Y-126456428D02*
X148151904Y-126456428D01*
X148913809Y-126085000D02*
X148951904Y-125992142D01*
X148951904Y-125837380D01*
X148913809Y-125775476D01*
X148875714Y-125744523D01*
X148799523Y-125713571D01*
X148723333Y-125713571D01*
X148647142Y-125744523D01*
X148609047Y-125775476D01*
X148570952Y-125837380D01*
X148532857Y-125961190D01*
X148494761Y-126023095D01*
X148456666Y-126054047D01*
X148380476Y-126085000D01*
X148304285Y-126085000D01*
X148228095Y-126054047D01*
X148190000Y-126023095D01*
X148151904Y-125961190D01*
X148151904Y-125806428D01*
X148190000Y-125713571D01*
X148913809Y-125465952D02*
X148951904Y-125373095D01*
X148951904Y-125218333D01*
X148913809Y-125156428D01*
X148875714Y-125125476D01*
X148799523Y-125094523D01*
X148723333Y-125094523D01*
X148647142Y-125125476D01*
X148609047Y-125156428D01*
X148570952Y-125218333D01*
X148532857Y-125342142D01*
X148494761Y-125404047D01*
X148456666Y-125435000D01*
X148380476Y-125465952D01*
X148304285Y-125465952D01*
X148228095Y-125435000D01*
X148190000Y-125404047D01*
X148151904Y-125342142D01*
X148151904Y-125187380D01*
X148190000Y-125094523D01*
X148151904Y-124692142D02*
X148151904Y-124568333D01*
X148190000Y-124506428D01*
X148266190Y-124444523D01*
X148418571Y-124413571D01*
X148685238Y-124413571D01*
X148837619Y-124444523D01*
X148913809Y-124506428D01*
X148951904Y-124568333D01*
X148951904Y-124692142D01*
X148913809Y-124754047D01*
X148837619Y-124815952D01*
X148685238Y-124846904D01*
X148418571Y-124846904D01*
X148266190Y-124815952D01*
X148190000Y-124754047D01*
X148151904Y-124692142D01*
X148951904Y-124135000D02*
X148151904Y-124135000D01*
X148151904Y-123887380D01*
X148190000Y-123825476D01*
X148228095Y-123794523D01*
X148304285Y-123763571D01*
X148418571Y-123763571D01*
X148494761Y-123794523D01*
X148532857Y-123825476D01*
X148570952Y-123887380D01*
X148570952Y-124135000D01*
X148647142Y-123485000D02*
X148647142Y-122989761D01*
X148494761Y-122587380D02*
X148456666Y-122649285D01*
X148418571Y-122680238D01*
X148342380Y-122711190D01*
X148304285Y-122711190D01*
X148228095Y-122680238D01*
X148190000Y-122649285D01*
X148151904Y-122587380D01*
X148151904Y-122463571D01*
X148190000Y-122401666D01*
X148228095Y-122370714D01*
X148304285Y-122339761D01*
X148342380Y-122339761D01*
X148418571Y-122370714D01*
X148456666Y-122401666D01*
X148494761Y-122463571D01*
X148494761Y-122587380D01*
X148532857Y-122649285D01*
X148570952Y-122680238D01*
X148647142Y-122711190D01*
X148799523Y-122711190D01*
X148875714Y-122680238D01*
X148913809Y-122649285D01*
X148951904Y-122587380D01*
X148951904Y-122463571D01*
X148913809Y-122401666D01*
X148875714Y-122370714D01*
X148799523Y-122339761D01*
X148647142Y-122339761D01*
X148570952Y-122370714D01*
X148532857Y-122401666D01*
X148494761Y-122463571D01*
D12*
X148443904Y-114318000D02*
X147643904Y-114318000D01*
X148215333Y-114084666D01*
X147643904Y-113851333D01*
X148443904Y-113851333D01*
X148405809Y-113551333D02*
X148443904Y-113451333D01*
X148443904Y-113284666D01*
X148405809Y-113218000D01*
X148367714Y-113184666D01*
X148291523Y-113151333D01*
X148215333Y-113151333D01*
X148139142Y-113184666D01*
X148101047Y-113218000D01*
X148062952Y-113284666D01*
X148024857Y-113418000D01*
X147986761Y-113484666D01*
X147948666Y-113518000D01*
X147872476Y-113551333D01*
X147796285Y-113551333D01*
X147720095Y-113518000D01*
X147682000Y-113484666D01*
X147643904Y-113418000D01*
X147643904Y-113251333D01*
X147682000Y-113151333D01*
X147643904Y-112718000D02*
X147643904Y-112584666D01*
X147682000Y-112518000D01*
X147758190Y-112451333D01*
X147910571Y-112418000D01*
X148177238Y-112418000D01*
X148329619Y-112451333D01*
X148405809Y-112518000D01*
X148443904Y-112584666D01*
X148443904Y-112718000D01*
X148405809Y-112784666D01*
X148329619Y-112851333D01*
X148177238Y-112884666D01*
X147910571Y-112884666D01*
X147758190Y-112851333D01*
X147682000Y-112784666D01*
X147643904Y-112718000D01*
X148443904Y-112118000D02*
X147643904Y-112118000D01*
X147643904Y-111851333D01*
X147682000Y-111784666D01*
X147720095Y-111751333D01*
X147796285Y-111718000D01*
X147910571Y-111718000D01*
X147986761Y-111751333D01*
X148024857Y-111784666D01*
X148062952Y-111851333D01*
X148062952Y-112118000D01*
X148139142Y-111418000D02*
X148139142Y-110884666D01*
X147986761Y-110451333D02*
X147948666Y-110518000D01*
X147910571Y-110551333D01*
X147834380Y-110584666D01*
X147796285Y-110584666D01*
X147720095Y-110551333D01*
X147682000Y-110518000D01*
X147643904Y-110451333D01*
X147643904Y-110318000D01*
X147682000Y-110251333D01*
X147720095Y-110218000D01*
X147796285Y-110184666D01*
X147834380Y-110184666D01*
X147910571Y-110218000D01*
X147948666Y-110251333D01*
X147986761Y-110318000D01*
X147986761Y-110451333D01*
X148024857Y-110518000D01*
X148062952Y-110551333D01*
X148139142Y-110584666D01*
X148291523Y-110584666D01*
X148367714Y-110551333D01*
X148405809Y-110518000D01*
X148443904Y-110451333D01*
X148443904Y-110318000D01*
X148405809Y-110251333D01*
X148367714Y-110218000D01*
X148291523Y-110184666D01*
X148139142Y-110184666D01*
X148062952Y-110218000D01*
X148024857Y-110251333D01*
X147986761Y-110318000D01*
D11*
X148873333Y-101539857D02*
X148906666Y-101447000D01*
X148906666Y-101292238D01*
X148873333Y-101230333D01*
X148840000Y-101199380D01*
X148773333Y-101168428D01*
X148706666Y-101168428D01*
X148640000Y-101199380D01*
X148606666Y-101230333D01*
X148573333Y-101292238D01*
X148540000Y-101416047D01*
X148506666Y-101477952D01*
X148473333Y-101508904D01*
X148406666Y-101539857D01*
X148340000Y-101539857D01*
X148273333Y-101508904D01*
X148240000Y-101477952D01*
X148206666Y-101416047D01*
X148206666Y-101261285D01*
X148240000Y-101168428D01*
X148206666Y-100766047D02*
X148206666Y-100642238D01*
X148240000Y-100580333D01*
X148306666Y-100518428D01*
X148440000Y-100487476D01*
X148673333Y-100487476D01*
X148806666Y-100518428D01*
X148873333Y-100580333D01*
X148906666Y-100642238D01*
X148906666Y-100766047D01*
X148873333Y-100827952D01*
X148806666Y-100889857D01*
X148673333Y-100920809D01*
X148440000Y-100920809D01*
X148306666Y-100889857D01*
X148240000Y-100827952D01*
X148206666Y-100766047D01*
X148906666Y-100208904D02*
X148206666Y-100208904D01*
X148840000Y-99527952D02*
X148873333Y-99558904D01*
X148906666Y-99651761D01*
X148906666Y-99713666D01*
X148873333Y-99806523D01*
X148806666Y-99868428D01*
X148740000Y-99899380D01*
X148606666Y-99930333D01*
X148506666Y-99930333D01*
X148373333Y-99899380D01*
X148306666Y-99868428D01*
X148240000Y-99806523D01*
X148206666Y-99713666D01*
X148206666Y-99651761D01*
X148240000Y-99558904D01*
X148273333Y-99527952D01*
X148640000Y-99249380D02*
X148640000Y-98754142D01*
X148506666Y-98351761D02*
X148473333Y-98413666D01*
X148440000Y-98444619D01*
X148373333Y-98475571D01*
X148340000Y-98475571D01*
X148273333Y-98444619D01*
X148240000Y-98413666D01*
X148206666Y-98351761D01*
X148206666Y-98227952D01*
X148240000Y-98166047D01*
X148273333Y-98135095D01*
X148340000Y-98104142D01*
X148373333Y-98104142D01*
X148440000Y-98135095D01*
X148473333Y-98166047D01*
X148506666Y-98227952D01*
X148506666Y-98351761D01*
X148540000Y-98413666D01*
X148573333Y-98444619D01*
X148640000Y-98475571D01*
X148773333Y-98475571D01*
X148840000Y-98444619D01*
X148873333Y-98413666D01*
X148906666Y-98351761D01*
X148906666Y-98227952D01*
X148873333Y-98166047D01*
X148840000Y-98135095D01*
X148773333Y-98104142D01*
X148640000Y-98104142D01*
X148573333Y-98135095D01*
X148540000Y-98166047D01*
X148506666Y-98227952D01*
D13*
X182978976Y-116159666D02*
X183455166Y-116159666D01*
X182883738Y-116445380D02*
X183217071Y-115445380D01*
X183550404Y-116445380D01*
X183740880Y-115445380D02*
X184074214Y-116445380D01*
X184407547Y-115445380D01*
X185312309Y-116445380D02*
X184978976Y-115969190D01*
X184740880Y-116445380D02*
X184740880Y-115445380D01*
X185121833Y-115445380D01*
X185217071Y-115493000D01*
X185264690Y-115540619D01*
X185312309Y-115635857D01*
X185312309Y-115778714D01*
X185264690Y-115873952D01*
X185217071Y-115921571D01*
X185121833Y-115969190D01*
X184740880Y-115969190D01*
X186788500Y-116826333D02*
X186740880Y-116778714D01*
X186645642Y-116635857D01*
X186598023Y-116540619D01*
X186550404Y-116397761D01*
X186502785Y-116159666D01*
X186502785Y-115969190D01*
X186550404Y-115731095D01*
X186598023Y-115588238D01*
X186645642Y-115493000D01*
X186740880Y-115350142D01*
X186788500Y-115302523D01*
X187740880Y-116445380D02*
X187407547Y-115969190D01*
X187169452Y-116445380D02*
X187169452Y-115445380D01*
X187550404Y-115445380D01*
X187645642Y-115493000D01*
X187693261Y-115540619D01*
X187740880Y-115635857D01*
X187740880Y-115778714D01*
X187693261Y-115873952D01*
X187645642Y-115921571D01*
X187550404Y-115969190D01*
X187169452Y-115969190D01*
X188169452Y-115921571D02*
X188502785Y-115921571D01*
X188645642Y-116445380D02*
X188169452Y-116445380D01*
X188169452Y-115445380D01*
X188645642Y-115445380D01*
X189598023Y-115493000D02*
X189502785Y-115445380D01*
X189359928Y-115445380D01*
X189217071Y-115493000D01*
X189121833Y-115588238D01*
X189074214Y-115683476D01*
X189026595Y-115873952D01*
X189026595Y-116016809D01*
X189074214Y-116207285D01*
X189121833Y-116302523D01*
X189217071Y-116397761D01*
X189359928Y-116445380D01*
X189455166Y-116445380D01*
X189598023Y-116397761D01*
X189645642Y-116350142D01*
X189645642Y-116016809D01*
X189455166Y-116016809D01*
X191407547Y-116350142D02*
X191359928Y-116397761D01*
X191217071Y-116445380D01*
X191121833Y-116445380D01*
X190978976Y-116397761D01*
X190883738Y-116302523D01*
X190836119Y-116207285D01*
X190788500Y-116016809D01*
X190788500Y-115873952D01*
X190836119Y-115683476D01*
X190883738Y-115588238D01*
X190978976Y-115493000D01*
X191121833Y-115445380D01*
X191217071Y-115445380D01*
X191359928Y-115493000D01*
X191407547Y-115540619D01*
X191788500Y-116159666D02*
X192264690Y-116159666D01*
X191693261Y-116445380D02*
X192026595Y-115445380D01*
X192359928Y-116445380D01*
X193026595Y-115921571D02*
X193169452Y-115969190D01*
X193217071Y-116016809D01*
X193264690Y-116112047D01*
X193264690Y-116254904D01*
X193217071Y-116350142D01*
X193169452Y-116397761D01*
X193074214Y-116445380D01*
X192693261Y-116445380D01*
X192693261Y-115445380D01*
X193026595Y-115445380D01*
X193121833Y-115493000D01*
X193169452Y-115540619D01*
X193217071Y-115635857D01*
X193217071Y-115731095D01*
X193169452Y-115826333D01*
X193121833Y-115873952D01*
X193026595Y-115921571D01*
X192693261Y-115921571D01*
X194169452Y-116445380D02*
X193693261Y-116445380D01*
X193693261Y-115445380D01*
X194502785Y-115921571D02*
X194836119Y-115921571D01*
X194978976Y-116445380D02*
X194502785Y-116445380D01*
X194502785Y-115445380D01*
X194978976Y-115445380D01*
X195312309Y-116826333D02*
X195359928Y-116778714D01*
X195455166Y-116635857D01*
X195502785Y-116540619D01*
X195550404Y-116397761D01*
X195598023Y-116159666D01*
X195598023Y-115969190D01*
X195550404Y-115731095D01*
X195502785Y-115588238D01*
X195455166Y-115493000D01*
X195359928Y-115350142D01*
X195312309Y-115302523D01*
X196074214Y-116350142D02*
X196121833Y-116397761D01*
X196074214Y-116445380D01*
X196026595Y-116397761D01*
X196074214Y-116350142D01*
X196074214Y-116445380D01*
X196074214Y-115826333D02*
X196121833Y-115873952D01*
X196074214Y-115921571D01*
X196026595Y-115873952D01*
X196074214Y-115826333D01*
X196074214Y-115921571D01*
X182883738Y-117195380D02*
X183217071Y-118195380D01*
X183550404Y-117195380D01*
X184455166Y-118100142D02*
X184407547Y-118147761D01*
X184264690Y-118195380D01*
X184169452Y-118195380D01*
X184026595Y-118147761D01*
X183931357Y-118052523D01*
X183883738Y-117957285D01*
X183836119Y-117766809D01*
X183836119Y-117623952D01*
X183883738Y-117433476D01*
X183931357Y-117338238D01*
X184026595Y-117243000D01*
X184169452Y-117195380D01*
X184264690Y-117195380D01*
X184407547Y-117243000D01*
X184455166Y-117290619D01*
X185455166Y-118100142D02*
X185407547Y-118147761D01*
X185264690Y-118195380D01*
X185169452Y-118195380D01*
X185026595Y-118147761D01*
X184931357Y-118052523D01*
X184883738Y-117957285D01*
X184836119Y-117766809D01*
X184836119Y-117623952D01*
X184883738Y-117433476D01*
X184931357Y-117338238D01*
X185026595Y-117243000D01*
X185169452Y-117195380D01*
X185264690Y-117195380D01*
X185407547Y-117243000D01*
X185455166Y-117290619D01*
X187931357Y-118195380D02*
X187359928Y-118195380D01*
X187645642Y-118195380D02*
X187645642Y-117195380D01*
X187550404Y-117338238D01*
X187455166Y-117433476D01*
X187359928Y-117481095D01*
X189836119Y-117290619D02*
X189883738Y-117243000D01*
X189978976Y-117195380D01*
X190217071Y-117195380D01*
X190312309Y-117243000D01*
X190359928Y-117290619D01*
X190407547Y-117385857D01*
X190407547Y-117481095D01*
X190359928Y-117623952D01*
X189788500Y-118195380D01*
X190407547Y-118195380D01*
X191598023Y-118195380D02*
X191598023Y-117195380D01*
X191931357Y-117909666D01*
X192264690Y-117195380D01*
X192264690Y-118195380D01*
X192740880Y-118195380D02*
X192740880Y-117195380D01*
X193169452Y-118147761D02*
X193312309Y-118195380D01*
X193550404Y-118195380D01*
X193645642Y-118147761D01*
X193693261Y-118100142D01*
X193740880Y-118004904D01*
X193740880Y-117909666D01*
X193693261Y-117814428D01*
X193645642Y-117766809D01*
X193550404Y-117719190D01*
X193359928Y-117671571D01*
X193264690Y-117623952D01*
X193217071Y-117576333D01*
X193169452Y-117481095D01*
X193169452Y-117385857D01*
X193217071Y-117290619D01*
X193264690Y-117243000D01*
X193359928Y-117195380D01*
X193598023Y-117195380D01*
X193740880Y-117243000D01*
X194359928Y-117195380D02*
X194550404Y-117195380D01*
X194645642Y-117243000D01*
X194740880Y-117338238D01*
X194788500Y-117528714D01*
X194788500Y-117862047D01*
X194740880Y-118052523D01*
X194645642Y-118147761D01*
X194550404Y-118195380D01*
X194359928Y-118195380D01*
X194264690Y-118147761D01*
X194169452Y-118052523D01*
X194121833Y-117862047D01*
X194121833Y-117528714D01*
X194169452Y-117338238D01*
X194264690Y-117243000D01*
X194359928Y-117195380D01*
X183026595Y-119945380D02*
X183026595Y-118945380D01*
X183359928Y-119659666D01*
X183693261Y-118945380D01*
X183693261Y-119945380D01*
X184359928Y-118945380D02*
X184550404Y-118945380D01*
X184645642Y-118993000D01*
X184740880Y-119088238D01*
X184788500Y-119278714D01*
X184788500Y-119612047D01*
X184740880Y-119802523D01*
X184645642Y-119897761D01*
X184550404Y-119945380D01*
X184359928Y-119945380D01*
X184264690Y-119897761D01*
X184169452Y-119802523D01*
X184121833Y-119612047D01*
X184121833Y-119278714D01*
X184169452Y-119088238D01*
X184264690Y-118993000D01*
X184359928Y-118945380D01*
X185169452Y-119897761D02*
X185312309Y-119945380D01*
X185550404Y-119945380D01*
X185645642Y-119897761D01*
X185693261Y-119850142D01*
X185740880Y-119754904D01*
X185740880Y-119659666D01*
X185693261Y-119564428D01*
X185645642Y-119516809D01*
X185550404Y-119469190D01*
X185359928Y-119421571D01*
X185264690Y-119373952D01*
X185217071Y-119326333D01*
X185169452Y-119231095D01*
X185169452Y-119135857D01*
X185217071Y-119040619D01*
X185264690Y-118993000D01*
X185359928Y-118945380D01*
X185598023Y-118945380D01*
X185740880Y-118993000D01*
X186169452Y-119945380D02*
X186169452Y-118945380D01*
X187312309Y-118945380D02*
X187931357Y-118945380D01*
X187598023Y-119326333D01*
X187740880Y-119326333D01*
X187836119Y-119373952D01*
X187883738Y-119421571D01*
X187931357Y-119516809D01*
X187931357Y-119754904D01*
X187883738Y-119850142D01*
X187836119Y-119897761D01*
X187740880Y-119945380D01*
X187455166Y-119945380D01*
X187359928Y-119897761D01*
X187312309Y-119850142D01*
X190312309Y-119278714D02*
X190312309Y-119945380D01*
X190074214Y-118897761D02*
X189836119Y-119612047D01*
X190455166Y-119612047D01*
X191550404Y-119897761D02*
X191693261Y-119945380D01*
X191931357Y-119945380D01*
X192026595Y-119897761D01*
X192074214Y-119850142D01*
X192121833Y-119754904D01*
X192121833Y-119659666D01*
X192074214Y-119564428D01*
X192026595Y-119516809D01*
X191931357Y-119469190D01*
X191740880Y-119421571D01*
X191645642Y-119373952D01*
X191598023Y-119326333D01*
X191550404Y-119231095D01*
X191550404Y-119135857D01*
X191598023Y-119040619D01*
X191645642Y-118993000D01*
X191740880Y-118945380D01*
X191978976Y-118945380D01*
X192121833Y-118993000D01*
X193121833Y-119850142D02*
X193074214Y-119897761D01*
X192931357Y-119945380D01*
X192836119Y-119945380D01*
X192693261Y-119897761D01*
X192598023Y-119802523D01*
X192550404Y-119707285D01*
X192502785Y-119516809D01*
X192502785Y-119373952D01*
X192550404Y-119183476D01*
X192598023Y-119088238D01*
X192693261Y-118993000D01*
X192836119Y-118945380D01*
X192931357Y-118945380D01*
X193074214Y-118993000D01*
X193121833Y-119040619D01*
X193550404Y-119945380D02*
X193550404Y-118945380D01*
X194121833Y-119945380D02*
X193693261Y-119373952D01*
X194121833Y-118945380D02*
X193550404Y-119516809D01*
X183598023Y-121695380D02*
X183264690Y-121219190D01*
X183026595Y-121695380D02*
X183026595Y-120695380D01*
X183407547Y-120695380D01*
X183502785Y-120743000D01*
X183550404Y-120790619D01*
X183598023Y-120885857D01*
X183598023Y-121028714D01*
X183550404Y-121123952D01*
X183502785Y-121171571D01*
X183407547Y-121219190D01*
X183026595Y-121219190D01*
X183978976Y-121647761D02*
X184121833Y-121695380D01*
X184359928Y-121695380D01*
X184455166Y-121647761D01*
X184502785Y-121600142D01*
X184550404Y-121504904D01*
X184550404Y-121409666D01*
X184502785Y-121314428D01*
X184455166Y-121266809D01*
X184359928Y-121219190D01*
X184169452Y-121171571D01*
X184074214Y-121123952D01*
X184026595Y-121076333D01*
X183978976Y-120981095D01*
X183978976Y-120885857D01*
X184026595Y-120790619D01*
X184074214Y-120743000D01*
X184169452Y-120695380D01*
X184407547Y-120695380D01*
X184550404Y-120743000D01*
X184836119Y-120695380D02*
X185407547Y-120695380D01*
X185121833Y-121695380D02*
X185121833Y-120695380D01*
X187740880Y-120695380D02*
X187264690Y-120695380D01*
X187217071Y-121171571D01*
X187264690Y-121123952D01*
X187359928Y-121076333D01*
X187598023Y-121076333D01*
X187693261Y-121123952D01*
X187740880Y-121171571D01*
X187788500Y-121266809D01*
X187788500Y-121504904D01*
X187740880Y-121600142D01*
X187693261Y-121647761D01*
X187598023Y-121695380D01*
X187359928Y-121695380D01*
X187264690Y-121647761D01*
X187217071Y-121600142D01*
X190169452Y-120695380D02*
X189978976Y-120695380D01*
X189883738Y-120743000D01*
X189836119Y-120790619D01*
X189740880Y-120933476D01*
X189693261Y-121123952D01*
X189693261Y-121504904D01*
X189740880Y-121600142D01*
X189788500Y-121647761D01*
X189883738Y-121695380D01*
X190074214Y-121695380D01*
X190169452Y-121647761D01*
X190217071Y-121600142D01*
X190264690Y-121504904D01*
X190264690Y-121266809D01*
X190217071Y-121171571D01*
X190169452Y-121123952D01*
X190074214Y-121076333D01*
X189883738Y-121076333D01*
X189788500Y-121123952D01*
X189740880Y-121171571D01*
X189693261Y-121266809D01*
X191978976Y-120743000D02*
X191883738Y-120695380D01*
X191740880Y-120695380D01*
X191598023Y-120743000D01*
X191502785Y-120838238D01*
X191455166Y-120933476D01*
X191407547Y-121123952D01*
X191407547Y-121266809D01*
X191455166Y-121457285D01*
X191502785Y-121552523D01*
X191598023Y-121647761D01*
X191740880Y-121695380D01*
X191836119Y-121695380D01*
X191978976Y-121647761D01*
X192026595Y-121600142D01*
X192026595Y-121266809D01*
X191836119Y-121266809D01*
X192455166Y-121695380D02*
X192455166Y-120695380D01*
X193026595Y-121695380D01*
X193026595Y-120695380D01*
X193502785Y-121695380D02*
X193502785Y-120695380D01*
X193740880Y-120695380D01*
X193883738Y-120743000D01*
X193978976Y-120838238D01*
X194026595Y-120933476D01*
X194074214Y-121123952D01*
X194074214Y-121266809D01*
X194026595Y-121457285D01*
X193978976Y-121552523D01*
X193883738Y-121647761D01*
X193740880Y-121695380D01*
X193502785Y-121695380D01*
D14*
X163281714Y-139880857D02*
X162596000Y-139880857D01*
X162938857Y-139880857D02*
X162938857Y-138680857D01*
X162824571Y-138852285D01*
X162710285Y-138966571D01*
X162596000Y-139023714D01*
X164024571Y-138680857D02*
X164138857Y-138680857D01*
X164253142Y-138738000D01*
X164310285Y-138795142D01*
X164367428Y-138909428D01*
X164424571Y-139138000D01*
X164424571Y-139423714D01*
X164367428Y-139652285D01*
X164310285Y-139766571D01*
X164253142Y-139823714D01*
X164138857Y-139880857D01*
X164024571Y-139880857D01*
X163910285Y-139823714D01*
X163853142Y-139766571D01*
X163796000Y-139652285D01*
X163738857Y-139423714D01*
X163738857Y-139138000D01*
X163796000Y-138909428D01*
X163853142Y-138795142D01*
X163910285Y-138738000D01*
X164024571Y-138680857D01*
X164938857Y-139423714D02*
X165853142Y-139423714D01*
X166424571Y-139080857D02*
X166424571Y-140280857D01*
X166424571Y-139138000D02*
X166538857Y-139080857D01*
X166767428Y-139080857D01*
X166881714Y-139138000D01*
X166938857Y-139195142D01*
X166996000Y-139309428D01*
X166996000Y-139652285D01*
X166938857Y-139766571D01*
X166881714Y-139823714D01*
X166767428Y-139880857D01*
X166538857Y-139880857D01*
X166424571Y-139823714D01*
X167510285Y-139880857D02*
X167510285Y-139080857D01*
X167510285Y-138680857D02*
X167453142Y-138738000D01*
X167510285Y-138795142D01*
X167567428Y-138738000D01*
X167510285Y-138680857D01*
X167510285Y-138795142D01*
X168081714Y-139080857D02*
X168081714Y-139880857D01*
X168081714Y-139195142D02*
X168138857Y-139138000D01*
X168253142Y-139080857D01*
X168424571Y-139080857D01*
X168538857Y-139138000D01*
X168596000Y-139252285D01*
X168596000Y-139880857D01*
X170024571Y-139538000D02*
X170596000Y-139538000D01*
X169910285Y-139880857D02*
X170310285Y-138680857D01*
X170710285Y-139880857D01*
X170938857Y-138680857D02*
X171338857Y-139880857D01*
X171738857Y-138680857D01*
X172824571Y-139880857D02*
X172424571Y-139309428D01*
X172138857Y-139880857D02*
X172138857Y-138680857D01*
X172596000Y-138680857D01*
X172710285Y-138738000D01*
X172767428Y-138795142D01*
X172824571Y-138909428D01*
X172824571Y-139080857D01*
X172767428Y-139195142D01*
X172710285Y-139252285D01*
X172596000Y-139309428D01*
X172138857Y-139309428D01*
X174253142Y-139880857D02*
X174253142Y-138680857D01*
X174767428Y-139823714D02*
X174938857Y-139880857D01*
X175224571Y-139880857D01*
X175338857Y-139823714D01*
X175396000Y-139766571D01*
X175453142Y-139652285D01*
X175453142Y-139538000D01*
X175396000Y-139423714D01*
X175338857Y-139366571D01*
X175224571Y-139309428D01*
X174996000Y-139252285D01*
X174881714Y-139195142D01*
X174824571Y-139138000D01*
X174767428Y-139023714D01*
X174767428Y-138909428D01*
X174824571Y-138795142D01*
X174881714Y-138738000D01*
X174996000Y-138680857D01*
X175281714Y-138680857D01*
X175453142Y-138738000D01*
X175967428Y-139880857D02*
X175967428Y-138680857D01*
X176424571Y-138680857D01*
X176538857Y-138738000D01*
X176596000Y-138795142D01*
X176653142Y-138909428D01*
X176653142Y-139080857D01*
X176596000Y-139195142D01*
X176538857Y-139252285D01*
X176424571Y-139309428D01*
X175967428Y-139309428D01*
X178081714Y-139880857D02*
X178081714Y-138680857D01*
X178081714Y-139252285D02*
X178767428Y-139252285D01*
X178767428Y-139880857D02*
X178767428Y-138680857D01*
X179796000Y-139823714D02*
X179681714Y-139880857D01*
X179453142Y-139880857D01*
X179338857Y-139823714D01*
X179281714Y-139709428D01*
X179281714Y-139252285D01*
X179338857Y-139138000D01*
X179453142Y-139080857D01*
X179681714Y-139080857D01*
X179796000Y-139138000D01*
X179853142Y-139252285D01*
X179853142Y-139366571D01*
X179281714Y-139480857D01*
X180881714Y-139880857D02*
X180881714Y-139252285D01*
X180824571Y-139138000D01*
X180710285Y-139080857D01*
X180481714Y-139080857D01*
X180367428Y-139138000D01*
X180881714Y-139823714D02*
X180767428Y-139880857D01*
X180481714Y-139880857D01*
X180367428Y-139823714D01*
X180310285Y-139709428D01*
X180310285Y-139595142D01*
X180367428Y-139480857D01*
X180481714Y-139423714D01*
X180767428Y-139423714D01*
X180881714Y-139366571D01*
X181967428Y-139880857D02*
X181967428Y-138680857D01*
X181967428Y-139823714D02*
X181853142Y-139880857D01*
X181624571Y-139880857D01*
X181510285Y-139823714D01*
X181453142Y-139766571D01*
X181396000Y-139652285D01*
X181396000Y-139309428D01*
X181453142Y-139195142D01*
X181510285Y-139138000D01*
X181624571Y-139080857D01*
X181853142Y-139080857D01*
X181967428Y-139138000D01*
X182996000Y-139823714D02*
X182881714Y-139880857D01*
X182653142Y-139880857D01*
X182538857Y-139823714D01*
X182481714Y-139709428D01*
X182481714Y-139252285D01*
X182538857Y-139138000D01*
X182653142Y-139080857D01*
X182881714Y-139080857D01*
X182996000Y-139138000D01*
X183053142Y-139252285D01*
X183053142Y-139366571D01*
X182481714Y-139480857D01*
X183567428Y-139880857D02*
X183567428Y-139080857D01*
X183567428Y-139309428D02*
X183624571Y-139195142D01*
X183681714Y-139138000D01*
X183796000Y-139080857D01*
X183910285Y-139080857D01*
D15*
X150196000Y-141338000D02*
X150196000Y-95338000D01*
X200196000Y-141338000D02*
X150196000Y-141338000D01*
X200196000Y-95338000D02*
X200196000Y-141338000D01*
X150196000Y-95338000D02*
X200196000Y-95338000D01*
D13*
X151736976Y-114663666D02*
X152213166Y-114663666D01*
X151641738Y-114949380D02*
X151975071Y-113949380D01*
X152308404Y-114949380D01*
X152498880Y-113949380D02*
X152832214Y-114949380D01*
X153165547Y-113949380D01*
X154070309Y-114949380D02*
X153736976Y-114473190D01*
X153498880Y-114949380D02*
X153498880Y-113949380D01*
X153879833Y-113949380D01*
X153975071Y-113997000D01*
X154022690Y-114044619D01*
X154070309Y-114139857D01*
X154070309Y-114282714D01*
X154022690Y-114377952D01*
X153975071Y-114425571D01*
X153879833Y-114473190D01*
X153498880Y-114473190D01*
X155546500Y-115330333D02*
X155498880Y-115282714D01*
X155403642Y-115139857D01*
X155356023Y-115044619D01*
X155308404Y-114901761D01*
X155260785Y-114663666D01*
X155260785Y-114473190D01*
X155308404Y-114235095D01*
X155356023Y-114092238D01*
X155403642Y-113997000D01*
X155498880Y-113854142D01*
X155546500Y-113806523D01*
X156498880Y-114949380D02*
X156165547Y-114473190D01*
X155927452Y-114949380D02*
X155927452Y-113949380D01*
X156308404Y-113949380D01*
X156403642Y-113997000D01*
X156451261Y-114044619D01*
X156498880Y-114139857D01*
X156498880Y-114282714D01*
X156451261Y-114377952D01*
X156403642Y-114425571D01*
X156308404Y-114473190D01*
X155927452Y-114473190D01*
X156927452Y-114425571D02*
X157260785Y-114425571D01*
X157403642Y-114949380D02*
X156927452Y-114949380D01*
X156927452Y-113949380D01*
X157403642Y-113949380D01*
X158356023Y-113997000D02*
X158260785Y-113949380D01*
X158117928Y-113949380D01*
X157975071Y-113997000D01*
X157879833Y-114092238D01*
X157832214Y-114187476D01*
X157784595Y-114377952D01*
X157784595Y-114520809D01*
X157832214Y-114711285D01*
X157879833Y-114806523D01*
X157975071Y-114901761D01*
X158117928Y-114949380D01*
X158213166Y-114949380D01*
X158356023Y-114901761D01*
X158403642Y-114854142D01*
X158403642Y-114520809D01*
X158213166Y-114520809D01*
X160165547Y-114854142D02*
X160117928Y-114901761D01*
X159975071Y-114949380D01*
X159879833Y-114949380D01*
X159736976Y-114901761D01*
X159641738Y-114806523D01*
X159594119Y-114711285D01*
X159546500Y-114520809D01*
X159546500Y-114377952D01*
X159594119Y-114187476D01*
X159641738Y-114092238D01*
X159736976Y-113997000D01*
X159879833Y-113949380D01*
X159975071Y-113949380D01*
X160117928Y-113997000D01*
X160165547Y-114044619D01*
X160546500Y-114663666D02*
X161022690Y-114663666D01*
X160451261Y-114949380D02*
X160784595Y-113949380D01*
X161117928Y-114949380D01*
X161784595Y-114425571D02*
X161927452Y-114473190D01*
X161975071Y-114520809D01*
X162022690Y-114616047D01*
X162022690Y-114758904D01*
X161975071Y-114854142D01*
X161927452Y-114901761D01*
X161832214Y-114949380D01*
X161451261Y-114949380D01*
X161451261Y-113949380D01*
X161784595Y-113949380D01*
X161879833Y-113997000D01*
X161927452Y-114044619D01*
X161975071Y-114139857D01*
X161975071Y-114235095D01*
X161927452Y-114330333D01*
X161879833Y-114377952D01*
X161784595Y-114425571D01*
X161451261Y-114425571D01*
X162927452Y-114949380D02*
X162451261Y-114949380D01*
X162451261Y-113949380D01*
X163260785Y-114425571D02*
X163594119Y-114425571D01*
X163736976Y-114949380D02*
X163260785Y-114949380D01*
X163260785Y-113949380D01*
X163736976Y-113949380D01*
X164070309Y-115330333D02*
X164117928Y-115282714D01*
X164213166Y-115139857D01*
X164260785Y-115044619D01*
X164308404Y-114901761D01*
X164356023Y-114663666D01*
X164356023Y-114473190D01*
X164308404Y-114235095D01*
X164260785Y-114092238D01*
X164213166Y-113997000D01*
X164117928Y-113854142D01*
X164070309Y-113806523D01*
X164832214Y-114854142D02*
X164879833Y-114901761D01*
X164832214Y-114949380D01*
X164784595Y-114901761D01*
X164832214Y-114854142D01*
X164832214Y-114949380D01*
X164832214Y-114330333D02*
X164879833Y-114377952D01*
X164832214Y-114425571D01*
X164784595Y-114377952D01*
X164832214Y-114330333D01*
X164832214Y-114425571D01*
X151641738Y-115699380D02*
X151975071Y-116699380D01*
X152308404Y-115699380D01*
X153213166Y-116604142D02*
X153165547Y-116651761D01*
X153022690Y-116699380D01*
X152927452Y-116699380D01*
X152784595Y-116651761D01*
X152689357Y-116556523D01*
X152641738Y-116461285D01*
X152594119Y-116270809D01*
X152594119Y-116127952D01*
X152641738Y-115937476D01*
X152689357Y-115842238D01*
X152784595Y-115747000D01*
X152927452Y-115699380D01*
X153022690Y-115699380D01*
X153165547Y-115747000D01*
X153213166Y-115794619D01*
X154213166Y-116604142D02*
X154165547Y-116651761D01*
X154022690Y-116699380D01*
X153927452Y-116699380D01*
X153784595Y-116651761D01*
X153689357Y-116556523D01*
X153641738Y-116461285D01*
X153594119Y-116270809D01*
X153594119Y-116127952D01*
X153641738Y-115937476D01*
X153689357Y-115842238D01*
X153784595Y-115747000D01*
X153927452Y-115699380D01*
X154022690Y-115699380D01*
X154165547Y-115747000D01*
X154213166Y-115794619D01*
X155927452Y-116699380D02*
X155356023Y-116699380D01*
X155641738Y-116699380D02*
X155641738Y-115699380D01*
X155546500Y-115842238D01*
X155451261Y-115937476D01*
X155356023Y-115985095D01*
X157832214Y-115794619D02*
X157879833Y-115747000D01*
X157975071Y-115699380D01*
X158213166Y-115699380D01*
X158308404Y-115747000D01*
X158356023Y-115794619D01*
X158403642Y-115889857D01*
X158403642Y-115985095D01*
X158356023Y-116127952D01*
X157784595Y-116699380D01*
X158403642Y-116699380D01*
X159594119Y-116699380D02*
X159594119Y-115699380D01*
X159927452Y-116413666D01*
X160260785Y-115699380D01*
X160260785Y-116699380D01*
X160927452Y-115699380D02*
X161117928Y-115699380D01*
X161213166Y-115747000D01*
X161308404Y-115842238D01*
X161356023Y-116032714D01*
X161356023Y-116366047D01*
X161308404Y-116556523D01*
X161213166Y-116651761D01*
X161117928Y-116699380D01*
X160927452Y-116699380D01*
X160832214Y-116651761D01*
X160736976Y-116556523D01*
X160689357Y-116366047D01*
X160689357Y-116032714D01*
X160736976Y-115842238D01*
X160832214Y-115747000D01*
X160927452Y-115699380D01*
X161736976Y-116651761D02*
X161879833Y-116699380D01*
X162117928Y-116699380D01*
X162213166Y-116651761D01*
X162260785Y-116604142D01*
X162308404Y-116508904D01*
X162308404Y-116413666D01*
X162260785Y-116318428D01*
X162213166Y-116270809D01*
X162117928Y-116223190D01*
X161927452Y-116175571D01*
X161832214Y-116127952D01*
X161784595Y-116080333D01*
X161736976Y-115985095D01*
X161736976Y-115889857D01*
X161784595Y-115794619D01*
X161832214Y-115747000D01*
X161927452Y-115699380D01*
X162165547Y-115699380D01*
X162308404Y-115747000D01*
X162736976Y-116699380D02*
X162736976Y-115699380D01*
X152308404Y-117497000D02*
X152213166Y-117449380D01*
X152070309Y-117449380D01*
X151927452Y-117497000D01*
X151832214Y-117592238D01*
X151784595Y-117687476D01*
X151736976Y-117877952D01*
X151736976Y-118020809D01*
X151784595Y-118211285D01*
X151832214Y-118306523D01*
X151927452Y-118401761D01*
X152070309Y-118449380D01*
X152165547Y-118449380D01*
X152308404Y-118401761D01*
X152356023Y-118354142D01*
X152356023Y-118020809D01*
X152165547Y-118020809D01*
X152784595Y-118449380D02*
X152784595Y-117449380D01*
X153356023Y-118449380D01*
X153356023Y-117449380D01*
X153832214Y-118449380D02*
X153832214Y-117449380D01*
X154070309Y-117449380D01*
X154213166Y-117497000D01*
X154308404Y-117592238D01*
X154356023Y-117687476D01*
X154403642Y-117877952D01*
X154403642Y-118020809D01*
X154356023Y-118211285D01*
X154308404Y-118306523D01*
X154213166Y-118401761D01*
X154070309Y-118449380D01*
X153832214Y-118449380D01*
X155498880Y-117449380D02*
X156117928Y-117449380D01*
X155784595Y-117830333D01*
X155927452Y-117830333D01*
X156022690Y-117877952D01*
X156070309Y-117925571D01*
X156117928Y-118020809D01*
X156117928Y-118258904D01*
X156070309Y-118354142D01*
X156022690Y-118401761D01*
X155927452Y-118449380D01*
X155641738Y-118449380D01*
X155546500Y-118401761D01*
X155498880Y-118354142D01*
X158498880Y-117782714D02*
X158498880Y-118449380D01*
X158260785Y-117401761D02*
X158022690Y-118116047D01*
X158641738Y-118116047D01*
X159784595Y-118449380D02*
X159784595Y-117449380D01*
X160356023Y-118449380D01*
X160356023Y-117449380D01*
X161403642Y-118354142D02*
X161356023Y-118401761D01*
X161213166Y-118449380D01*
X161117928Y-118449380D01*
X160975071Y-118401761D01*
X160879833Y-118306523D01*
X160832214Y-118211285D01*
X160784595Y-118020809D01*
X160784595Y-117877952D01*
X160832214Y-117687476D01*
X160879833Y-117592238D01*
X160975071Y-117497000D01*
X161117928Y-117449380D01*
X161213166Y-117449380D01*
X161356023Y-117497000D01*
X161403642Y-117544619D01*
X152308404Y-119247000D02*
X152213166Y-119199380D01*
X152070309Y-119199380D01*
X151927452Y-119247000D01*
X151832214Y-119342238D01*
X151784595Y-119437476D01*
X151736976Y-119627952D01*
X151736976Y-119770809D01*
X151784595Y-119961285D01*
X151832214Y-120056523D01*
X151927452Y-120151761D01*
X152070309Y-120199380D01*
X152165547Y-120199380D01*
X152308404Y-120151761D01*
X152356023Y-120104142D01*
X152356023Y-119770809D01*
X152165547Y-119770809D01*
X152784595Y-120199380D02*
X152784595Y-119199380D01*
X153356023Y-120199380D01*
X153356023Y-119199380D01*
X153832214Y-120199380D02*
X153832214Y-119199380D01*
X154070309Y-119199380D01*
X154213166Y-119247000D01*
X154308404Y-119342238D01*
X154356023Y-119437476D01*
X154403642Y-119627952D01*
X154403642Y-119770809D01*
X154356023Y-119961285D01*
X154308404Y-120056523D01*
X154213166Y-120151761D01*
X154070309Y-120199380D01*
X153832214Y-120199380D01*
X156070309Y-119199380D02*
X155594119Y-119199380D01*
X155546500Y-119675571D01*
X155594119Y-119627952D01*
X155689357Y-119580333D01*
X155927452Y-119580333D01*
X156022690Y-119627952D01*
X156070309Y-119675571D01*
X156117928Y-119770809D01*
X156117928Y-120008904D01*
X156070309Y-120104142D01*
X156022690Y-120151761D01*
X155927452Y-120199380D01*
X155689357Y-120199380D01*
X155594119Y-120151761D01*
X155546500Y-120104142D01*
X158498880Y-119199380D02*
X158308404Y-119199380D01*
X158213166Y-119247000D01*
X158165547Y-119294619D01*
X158070309Y-119437476D01*
X158022690Y-119627952D01*
X158022690Y-120008904D01*
X158070309Y-120104142D01*
X158117928Y-120151761D01*
X158213166Y-120199380D01*
X158403642Y-120199380D01*
X158498880Y-120151761D01*
X158546500Y-120104142D01*
X158594119Y-120008904D01*
X158594119Y-119770809D01*
X158546500Y-119675571D01*
X158498880Y-119627952D01*
X158403642Y-119580333D01*
X158213166Y-119580333D01*
X158117928Y-119627952D01*
X158070309Y-119675571D01*
X158022690Y-119770809D01*
X160356023Y-120199380D02*
X160022690Y-119723190D01*
X159784595Y-120199380D02*
X159784595Y-119199380D01*
X160165547Y-119199380D01*
X160260785Y-119247000D01*
X160308404Y-119294619D01*
X160356023Y-119389857D01*
X160356023Y-119532714D01*
X160308404Y-119627952D01*
X160260785Y-119675571D01*
X160165547Y-119723190D01*
X159784595Y-119723190D01*
X160736976Y-120151761D02*
X160879833Y-120199380D01*
X161117928Y-120199380D01*
X161213166Y-120151761D01*
X161260785Y-120104142D01*
X161308404Y-120008904D01*
X161308404Y-119913666D01*
X161260785Y-119818428D01*
X161213166Y-119770809D01*
X161117928Y-119723190D01*
X160927452Y-119675571D01*
X160832214Y-119627952D01*
X160784595Y-119580333D01*
X160736976Y-119485095D01*
X160736976Y-119389857D01*
X160784595Y-119294619D01*
X160832214Y-119247000D01*
X160927452Y-119199380D01*
X161165547Y-119199380D01*
X161308404Y-119247000D01*
X161594119Y-119199380D02*
X162165547Y-119199380D01*
X161879833Y-120199380D02*
X161879833Y-119199380D01*
X152308404Y-120997000D02*
X152213166Y-120949380D01*
X152070309Y-120949380D01*
X151927452Y-120997000D01*
X151832214Y-121092238D01*
X151784595Y-121187476D01*
X151736976Y-121377952D01*
X151736976Y-121520809D01*
X151784595Y-121711285D01*
X151832214Y-121806523D01*
X151927452Y-121901761D01*
X152070309Y-121949380D01*
X152165547Y-121949380D01*
X152308404Y-121901761D01*
X152356023Y-121854142D01*
X152356023Y-121520809D01*
X152165547Y-121520809D01*
X152784595Y-121949380D02*
X152784595Y-120949380D01*
X153356023Y-121949380D01*
X153356023Y-120949380D01*
X153832214Y-121949380D02*
X153832214Y-120949380D01*
X154070309Y-120949380D01*
X154213166Y-120997000D01*
X154308404Y-121092238D01*
X154356023Y-121187476D01*
X154403642Y-121377952D01*
X154403642Y-121520809D01*
X154356023Y-121711285D01*
X154308404Y-121806523D01*
X154213166Y-121901761D01*
X154070309Y-121949380D01*
X153832214Y-121949380D01*
X155498880Y-120949380D02*
X156165547Y-120949380D01*
X155736976Y-121949380D01*
X158213166Y-121377952D02*
X158117928Y-121330333D01*
X158070309Y-121282714D01*
X158022690Y-121187476D01*
X158022690Y-121139857D01*
X158070309Y-121044619D01*
X158117928Y-120997000D01*
X158213166Y-120949380D01*
X158403642Y-120949380D01*
X158498880Y-120997000D01*
X158546500Y-121044619D01*
X158594119Y-121139857D01*
X158594119Y-121187476D01*
X158546500Y-121282714D01*
X158498880Y-121330333D01*
X158403642Y-121377952D01*
X158213166Y-121377952D01*
X158117928Y-121425571D01*
X158070309Y-121473190D01*
X158022690Y-121568428D01*
X158022690Y-121758904D01*
X158070309Y-121854142D01*
X158117928Y-121901761D01*
X158213166Y-121949380D01*
X158403642Y-121949380D01*
X158498880Y-121901761D01*
X158546500Y-121854142D01*
X158594119Y-121758904D01*
X158594119Y-121568428D01*
X158546500Y-121473190D01*
X158498880Y-121425571D01*
X158403642Y-121377952D01*
X159736976Y-121901761D02*
X159879833Y-121949380D01*
X160117928Y-121949380D01*
X160213166Y-121901761D01*
X160260785Y-121854142D01*
X160308404Y-121758904D01*
X160308404Y-121663666D01*
X160260785Y-121568428D01*
X160213166Y-121520809D01*
X160117928Y-121473190D01*
X159927452Y-121425571D01*
X159832214Y-121377952D01*
X159784595Y-121330333D01*
X159736976Y-121235095D01*
X159736976Y-121139857D01*
X159784595Y-121044619D01*
X159832214Y-120997000D01*
X159927452Y-120949380D01*
X160165547Y-120949380D01*
X160308404Y-120997000D01*
X161308404Y-121854142D02*
X161260785Y-121901761D01*
X161117928Y-121949380D01*
X161022690Y-121949380D01*
X160879833Y-121901761D01*
X160784595Y-121806523D01*
X160736976Y-121711285D01*
X160689357Y-121520809D01*
X160689357Y-121377952D01*
X160736976Y-121187476D01*
X160784595Y-121092238D01*
X160879833Y-120997000D01*
X161022690Y-120949380D01*
X161117928Y-120949380D01*
X161260785Y-120997000D01*
X161308404Y-121044619D01*
X161736976Y-121949380D02*
X161736976Y-120949380D01*
X162308404Y-121949380D02*
X161879833Y-121377952D01*
X162308404Y-120949380D02*
X161736976Y-121520809D01*
X152308404Y-122747000D02*
X152213166Y-122699380D01*
X152070309Y-122699380D01*
X151927452Y-122747000D01*
X151832214Y-122842238D01*
X151784595Y-122937476D01*
X151736976Y-123127952D01*
X151736976Y-123270809D01*
X151784595Y-123461285D01*
X151832214Y-123556523D01*
X151927452Y-123651761D01*
X152070309Y-123699380D01*
X152165547Y-123699380D01*
X152308404Y-123651761D01*
X152356023Y-123604142D01*
X152356023Y-123270809D01*
X152165547Y-123270809D01*
X152784595Y-123699380D02*
X152784595Y-122699380D01*
X153356023Y-123699380D01*
X153356023Y-122699380D01*
X153832214Y-123699380D02*
X153832214Y-122699380D01*
X154070309Y-122699380D01*
X154213166Y-122747000D01*
X154308404Y-122842238D01*
X154356023Y-122937476D01*
X154403642Y-123127952D01*
X154403642Y-123270809D01*
X154356023Y-123461285D01*
X154308404Y-123556523D01*
X154213166Y-123651761D01*
X154070309Y-123699380D01*
X153832214Y-123699380D01*
X155641738Y-123699380D02*
X155832214Y-123699380D01*
X155927452Y-123651761D01*
X155975071Y-123604142D01*
X156070309Y-123461285D01*
X156117928Y-123270809D01*
X156117928Y-122889857D01*
X156070309Y-122794619D01*
X156022690Y-122747000D01*
X155927452Y-122699380D01*
X155736976Y-122699380D01*
X155641738Y-122747000D01*
X155594119Y-122794619D01*
X155546500Y-122889857D01*
X155546500Y-123127952D01*
X155594119Y-123223190D01*
X155641738Y-123270809D01*
X155736976Y-123318428D01*
X155927452Y-123318428D01*
X156022690Y-123270809D01*
X156070309Y-123223190D01*
X156117928Y-123127952D01*
X157832214Y-123699380D02*
X157260785Y-123699380D01*
X157546500Y-123699380D02*
X157546500Y-122699380D01*
X157451261Y-122842238D01*
X157356023Y-122937476D01*
X157260785Y-122985095D01*
X158451261Y-122699380D02*
X158546500Y-122699380D01*
X158641738Y-122747000D01*
X158689357Y-122794619D01*
X158736976Y-122889857D01*
X158784595Y-123080333D01*
X158784595Y-123318428D01*
X158736976Y-123508904D01*
X158689357Y-123604142D01*
X158641738Y-123651761D01*
X158546500Y-123699380D01*
X158451261Y-123699380D01*
X158356023Y-123651761D01*
X158308404Y-123604142D01*
X158260785Y-123508904D01*
X158213166Y-123318428D01*
X158213166Y-123080333D01*
X158260785Y-122889857D01*
X158308404Y-122794619D01*
X158356023Y-122747000D01*
X158451261Y-122699380D01*
X159975071Y-123699380D02*
X159975071Y-122699380D01*
X160308404Y-123413666D01*
X160641738Y-122699380D01*
X160641738Y-123699380D01*
X161117928Y-123699380D02*
X161117928Y-122699380D01*
X161546500Y-123651761D02*
X161689357Y-123699380D01*
X161927452Y-123699380D01*
X162022690Y-123651761D01*
X162070309Y-123604142D01*
X162117928Y-123508904D01*
X162117928Y-123413666D01*
X162070309Y-123318428D01*
X162022690Y-123270809D01*
X161927452Y-123223190D01*
X161736976Y-123175571D01*
X161641738Y-123127952D01*
X161594119Y-123080333D01*
X161546500Y-122985095D01*
X161546500Y-122889857D01*
X161594119Y-122794619D01*
X161641738Y-122747000D01*
X161736976Y-122699380D01*
X161975071Y-122699380D01*
X162117928Y-122747000D01*
X162736976Y-122699380D02*
X162927452Y-122699380D01*
X163022690Y-122747000D01*
X163117928Y-122842238D01*
X163165547Y-123032714D01*
X163165547Y-123366047D01*
X163117928Y-123556523D01*
X163022690Y-123651761D01*
X162927452Y-123699380D01*
X162736976Y-123699380D01*
X162641738Y-123651761D01*
X162546500Y-123556523D01*
X162498880Y-123366047D01*
X162498880Y-123032714D01*
X162546500Y-122842238D01*
X162641738Y-122747000D01*
X162736976Y-122699380D01*
X181200976Y-101367761D02*
X181343833Y-101415380D01*
X181581928Y-101415380D01*
X181677166Y-101367761D01*
X181724785Y-101320142D01*
X181772404Y-101224904D01*
X181772404Y-101129666D01*
X181724785Y-101034428D01*
X181677166Y-100986809D01*
X181581928Y-100939190D01*
X181391452Y-100891571D01*
X181296214Y-100843952D01*
X181248595Y-100796333D01*
X181200976Y-100701095D01*
X181200976Y-100605857D01*
X181248595Y-100510619D01*
X181296214Y-100463000D01*
X181391452Y-100415380D01*
X181629547Y-100415380D01*
X181772404Y-100463000D01*
X182153357Y-101129666D02*
X182629547Y-101129666D01*
X182058119Y-101415380D02*
X182391452Y-100415380D01*
X182724785Y-101415380D01*
X183058119Y-101415380D02*
X183058119Y-100415380D01*
X183391452Y-101129666D01*
X183724785Y-100415380D01*
X183724785Y-101415380D01*
X185248595Y-101796333D02*
X185200976Y-101748714D01*
X185105738Y-101605857D01*
X185058119Y-101510619D01*
X185010500Y-101367761D01*
X184962880Y-101129666D01*
X184962880Y-100939190D01*
X185010500Y-100701095D01*
X185058119Y-100558238D01*
X185105738Y-100463000D01*
X185200976Y-100320142D01*
X185248595Y-100272523D01*
X185629547Y-101415380D02*
X185629547Y-100415380D01*
X186010500Y-100415380D01*
X186105738Y-100463000D01*
X186153357Y-100510619D01*
X186200976Y-100605857D01*
X186200976Y-100748714D01*
X186153357Y-100843952D01*
X186105738Y-100891571D01*
X186010500Y-100939190D01*
X185629547Y-100939190D01*
X187153357Y-101415380D02*
X186581928Y-101415380D01*
X186867642Y-101415380D02*
X186867642Y-100415380D01*
X186772404Y-100558238D01*
X186677166Y-100653476D01*
X186581928Y-100701095D01*
X187439071Y-100748714D02*
X187820023Y-100748714D01*
X187581928Y-100415380D02*
X187581928Y-101272523D01*
X187629547Y-101367761D01*
X187724785Y-101415380D01*
X187820023Y-101415380D01*
X188296214Y-101415380D02*
X188200976Y-101367761D01*
X188153357Y-101320142D01*
X188105738Y-101224904D01*
X188105738Y-100939190D01*
X188153357Y-100843952D01*
X188200976Y-100796333D01*
X188296214Y-100748714D01*
X188439071Y-100748714D01*
X188534309Y-100796333D01*
X188581928Y-100843952D01*
X188629547Y-100939190D01*
X188629547Y-101224904D01*
X188581928Y-101320142D01*
X188534309Y-101367761D01*
X188439071Y-101415380D01*
X188296214Y-101415380D01*
X189058119Y-101415380D02*
X189058119Y-100415380D01*
X189439071Y-100415380D01*
X189534309Y-100463000D01*
X189581928Y-100510619D01*
X189629547Y-100605857D01*
X189629547Y-100748714D01*
X189581928Y-100843952D01*
X189534309Y-100891571D01*
X189439071Y-100939190D01*
X189058119Y-100939190D01*
X190581928Y-101415380D02*
X190010500Y-101415380D01*
X190296214Y-101415380D02*
X190296214Y-100415380D01*
X190200976Y-100558238D01*
X190105738Y-100653476D01*
X190010500Y-100701095D01*
X192343833Y-101320142D02*
X192296214Y-101367761D01*
X192153357Y-101415380D01*
X192058119Y-101415380D01*
X191915261Y-101367761D01*
X191820023Y-101272523D01*
X191772404Y-101177285D01*
X191724785Y-100986809D01*
X191724785Y-100843952D01*
X191772404Y-100653476D01*
X191820023Y-100558238D01*
X191915261Y-100463000D01*
X192058119Y-100415380D01*
X192153357Y-100415380D01*
X192296214Y-100463000D01*
X192343833Y-100510619D01*
X192724785Y-101129666D02*
X193200976Y-101129666D01*
X192629547Y-101415380D02*
X192962880Y-100415380D01*
X193296214Y-101415380D01*
X193962880Y-100891571D02*
X194105738Y-100939190D01*
X194153357Y-100986809D01*
X194200976Y-101082047D01*
X194200976Y-101224904D01*
X194153357Y-101320142D01*
X194105738Y-101367761D01*
X194010500Y-101415380D01*
X193629547Y-101415380D01*
X193629547Y-100415380D01*
X193962880Y-100415380D01*
X194058119Y-100463000D01*
X194105738Y-100510619D01*
X194153357Y-100605857D01*
X194153357Y-100701095D01*
X194105738Y-100796333D01*
X194058119Y-100843952D01*
X193962880Y-100891571D01*
X193629547Y-100891571D01*
X195105738Y-101415380D02*
X194629547Y-101415380D01*
X194629547Y-100415380D01*
X195439071Y-100891571D02*
X195772404Y-100891571D01*
X195915261Y-101415380D02*
X195439071Y-101415380D01*
X195439071Y-100415380D01*
X195915261Y-100415380D01*
X196248595Y-101796333D02*
X196296214Y-101748714D01*
X196391452Y-101605857D01*
X196439071Y-101510619D01*
X196486690Y-101367761D01*
X196534309Y-101129666D01*
X196534309Y-100939190D01*
X196486690Y-100701095D01*
X196439071Y-100558238D01*
X196391452Y-100463000D01*
X196296214Y-100320142D01*
X196248595Y-100272523D01*
X181200976Y-103117761D02*
X181343833Y-103165380D01*
X181581928Y-103165380D01*
X181677166Y-103117761D01*
X181724785Y-103070142D01*
X181772404Y-102974904D01*
X181772404Y-102879666D01*
X181724785Y-102784428D01*
X181677166Y-102736809D01*
X181581928Y-102689190D01*
X181391452Y-102641571D01*
X181296214Y-102593952D01*
X181248595Y-102546333D01*
X181200976Y-102451095D01*
X181200976Y-102355857D01*
X181248595Y-102260619D01*
X181296214Y-102213000D01*
X181391452Y-102165380D01*
X181629547Y-102165380D01*
X181772404Y-102213000D01*
X182105738Y-102165380D02*
X182343833Y-103165380D01*
X182534309Y-102451095D01*
X182724785Y-103165380D01*
X182962880Y-102165380D01*
X183343833Y-103165380D02*
X183343833Y-102165380D01*
X183581928Y-102165380D01*
X183724785Y-102213000D01*
X183820023Y-102308238D01*
X183867642Y-102403476D01*
X183915261Y-102593952D01*
X183915261Y-102736809D01*
X183867642Y-102927285D01*
X183820023Y-103022523D01*
X183724785Y-103117761D01*
X183581928Y-103165380D01*
X183343833Y-103165380D01*
X184343833Y-103165380D02*
X184343833Y-102165380D01*
X185010500Y-102165380D02*
X185200976Y-102165380D01*
X185296214Y-102213000D01*
X185391452Y-102308238D01*
X185439071Y-102498714D01*
X185439071Y-102832047D01*
X185391452Y-103022523D01*
X185296214Y-103117761D01*
X185200976Y-103165380D01*
X185010500Y-103165380D01*
X184915261Y-103117761D01*
X184820023Y-103022523D01*
X184772404Y-102832047D01*
X184772404Y-102498714D01*
X184820023Y-102308238D01*
X184915261Y-102213000D01*
X185010500Y-102165380D01*
X187153357Y-103165380D02*
X186581928Y-103165380D01*
X186867642Y-103165380D02*
X186867642Y-102165380D01*
X186772404Y-102308238D01*
X186677166Y-102403476D01*
X186581928Y-102451095D01*
X189058119Y-102260619D02*
X189105738Y-102213000D01*
X189200976Y-102165380D01*
X189439071Y-102165380D01*
X189534309Y-102213000D01*
X189581928Y-102260619D01*
X189629547Y-102355857D01*
X189629547Y-102451095D01*
X189581928Y-102593952D01*
X189010500Y-103165380D01*
X189629547Y-103165380D01*
X190677166Y-102165380D02*
X191010500Y-103165380D01*
X191343833Y-102165380D01*
X191677166Y-103165380D02*
X191677166Y-102165380D01*
X191915261Y-102165380D01*
X192058119Y-102213000D01*
X192153357Y-102308238D01*
X192200976Y-102403476D01*
X192248595Y-102593952D01*
X192248595Y-102736809D01*
X192200976Y-102927285D01*
X192153357Y-103022523D01*
X192058119Y-103117761D01*
X191915261Y-103165380D01*
X191677166Y-103165380D01*
X192677166Y-103165380D02*
X192677166Y-102165380D01*
X192915261Y-102165380D01*
X193058119Y-102213000D01*
X193153357Y-102308238D01*
X193200976Y-102403476D01*
X193248595Y-102593952D01*
X193248595Y-102736809D01*
X193200976Y-102927285D01*
X193153357Y-103022523D01*
X193058119Y-103117761D01*
X192915261Y-103165380D01*
X192677166Y-103165380D01*
X181200976Y-104867761D02*
X181343833Y-104915380D01*
X181581928Y-104915380D01*
X181677166Y-104867761D01*
X181724785Y-104820142D01*
X181772404Y-104724904D01*
X181772404Y-104629666D01*
X181724785Y-104534428D01*
X181677166Y-104486809D01*
X181581928Y-104439190D01*
X181391452Y-104391571D01*
X181296214Y-104343952D01*
X181248595Y-104296333D01*
X181200976Y-104201095D01*
X181200976Y-104105857D01*
X181248595Y-104010619D01*
X181296214Y-103963000D01*
X181391452Y-103915380D01*
X181629547Y-103915380D01*
X181772404Y-103963000D01*
X182105738Y-103915380D02*
X182343833Y-104915380D01*
X182534309Y-104201095D01*
X182724785Y-104915380D01*
X182962880Y-103915380D01*
X183915261Y-104820142D02*
X183867642Y-104867761D01*
X183724785Y-104915380D01*
X183629547Y-104915380D01*
X183486690Y-104867761D01*
X183391452Y-104772523D01*
X183343833Y-104677285D01*
X183296214Y-104486809D01*
X183296214Y-104343952D01*
X183343833Y-104153476D01*
X183391452Y-104058238D01*
X183486690Y-103963000D01*
X183629547Y-103915380D01*
X183724785Y-103915380D01*
X183867642Y-103963000D01*
X183915261Y-104010619D01*
X184820023Y-104915380D02*
X184343833Y-104915380D01*
X184343833Y-103915380D01*
X185153357Y-104915380D02*
X185153357Y-103915380D01*
X185724785Y-104915380D02*
X185296214Y-104343952D01*
X185724785Y-103915380D02*
X185153357Y-104486809D01*
X186820023Y-103915380D02*
X187439071Y-103915380D01*
X187105738Y-104296333D01*
X187248595Y-104296333D01*
X187343833Y-104343952D01*
X187391452Y-104391571D01*
X187439071Y-104486809D01*
X187439071Y-104724904D01*
X187391452Y-104820142D01*
X187343833Y-104867761D01*
X187248595Y-104915380D01*
X186962880Y-104915380D01*
X186867642Y-104867761D01*
X186820023Y-104820142D01*
X189820023Y-104248714D02*
X189820023Y-104915380D01*
X189581928Y-103867761D02*
X189343833Y-104582047D01*
X189962880Y-104582047D01*
X191629547Y-103963000D02*
X191534309Y-103915380D01*
X191391452Y-103915380D01*
X191248595Y-103963000D01*
X191153357Y-104058238D01*
X191105738Y-104153476D01*
X191058119Y-104343952D01*
X191058119Y-104486809D01*
X191105738Y-104677285D01*
X191153357Y-104772523D01*
X191248595Y-104867761D01*
X191391452Y-104915380D01*
X191486690Y-104915380D01*
X191629547Y-104867761D01*
X191677166Y-104820142D01*
X191677166Y-104486809D01*
X191486690Y-104486809D01*
X192105738Y-104915380D02*
X192105738Y-103915380D01*
X192677166Y-104915380D01*
X192677166Y-103915380D01*
X193153357Y-104915380D02*
X193153357Y-103915380D01*
X193391452Y-103915380D01*
X193534309Y-103963000D01*
X193629547Y-104058238D01*
X193677166Y-104153476D01*
X193724785Y-104343952D01*
X193724785Y-104486809D01*
X193677166Y-104677285D01*
X193629547Y-104772523D01*
X193534309Y-104867761D01*
X193391452Y-104915380D01*
X193153357Y-104915380D01*
X181200976Y-106617761D02*
X181343833Y-106665380D01*
X181581928Y-106665380D01*
X181677166Y-106617761D01*
X181724785Y-106570142D01*
X181772404Y-106474904D01*
X181772404Y-106379666D01*
X181724785Y-106284428D01*
X181677166Y-106236809D01*
X181581928Y-106189190D01*
X181391452Y-106141571D01*
X181296214Y-106093952D01*
X181248595Y-106046333D01*
X181200976Y-105951095D01*
X181200976Y-105855857D01*
X181248595Y-105760619D01*
X181296214Y-105713000D01*
X181391452Y-105665380D01*
X181629547Y-105665380D01*
X181772404Y-105713000D01*
X182105738Y-105665380D02*
X182343833Y-106665380D01*
X182534309Y-105951095D01*
X182724785Y-106665380D01*
X182962880Y-105665380D01*
X183534309Y-105665380D02*
X183724785Y-105665380D01*
X183820023Y-105713000D01*
X183915261Y-105808238D01*
X183962880Y-105998714D01*
X183962880Y-106332047D01*
X183915261Y-106522523D01*
X183820023Y-106617761D01*
X183724785Y-106665380D01*
X183534309Y-106665380D01*
X183439071Y-106617761D01*
X183343833Y-106522523D01*
X183296214Y-106332047D01*
X183296214Y-105998714D01*
X183343833Y-105808238D01*
X183439071Y-105713000D01*
X183534309Y-105665380D01*
X187153357Y-105665380D02*
X186677166Y-105665380D01*
X186629547Y-106141571D01*
X186677166Y-106093952D01*
X186772404Y-106046333D01*
X187010500Y-106046333D01*
X187105738Y-106093952D01*
X187153357Y-106141571D01*
X187200976Y-106236809D01*
X187200976Y-106474904D01*
X187153357Y-106570142D01*
X187105738Y-106617761D01*
X187010500Y-106665380D01*
X186772404Y-106665380D01*
X186677166Y-106617761D01*
X186629547Y-106570142D01*
X189581928Y-105665380D02*
X189391452Y-105665380D01*
X189296214Y-105713000D01*
X189248595Y-105760619D01*
X189153357Y-105903476D01*
X189105738Y-106093952D01*
X189105738Y-106474904D01*
X189153357Y-106570142D01*
X189200976Y-106617761D01*
X189296214Y-106665380D01*
X189486690Y-106665380D01*
X189581928Y-106617761D01*
X189629547Y-106570142D01*
X189677166Y-106474904D01*
X189677166Y-106236809D01*
X189629547Y-106141571D01*
X189581928Y-106093952D01*
X189486690Y-106046333D01*
X189296214Y-106046333D01*
X189200976Y-106093952D01*
X189153357Y-106141571D01*
X189105738Y-106236809D01*
X191391452Y-105713000D02*
X191296214Y-105665380D01*
X191153357Y-105665380D01*
X191010500Y-105713000D01*
X190915261Y-105808238D01*
X190867642Y-105903476D01*
X190820023Y-106093952D01*
X190820023Y-106236809D01*
X190867642Y-106427285D01*
X190915261Y-106522523D01*
X191010500Y-106617761D01*
X191153357Y-106665380D01*
X191248595Y-106665380D01*
X191391452Y-106617761D01*
X191439071Y-106570142D01*
X191439071Y-106236809D01*
X191248595Y-106236809D01*
X191867642Y-106665380D02*
X191867642Y-105665380D01*
X192439071Y-106665380D01*
X192439071Y-105665380D01*
X192915261Y-106665380D02*
X192915261Y-105665380D01*
X193153357Y-105665380D01*
X193296214Y-105713000D01*
X193391452Y-105808238D01*
X193439071Y-105903476D01*
X193486690Y-106093952D01*
X193486690Y-106236809D01*
X193439071Y-106427285D01*
X193391452Y-106522523D01*
X193296214Y-106617761D01*
X193153357Y-106665380D01*
X192915261Y-106665380D01*
X181248595Y-108415380D02*
X181248595Y-107415380D01*
X181820023Y-108415380D01*
X181820023Y-107415380D01*
X183010500Y-107367761D02*
X182153357Y-108653476D01*
X183915261Y-108320142D02*
X183867642Y-108367761D01*
X183724785Y-108415380D01*
X183629547Y-108415380D01*
X183486690Y-108367761D01*
X183391452Y-108272523D01*
X183343833Y-108177285D01*
X183296214Y-107986809D01*
X183296214Y-107843952D01*
X183343833Y-107653476D01*
X183391452Y-107558238D01*
X183486690Y-107463000D01*
X183629547Y-107415380D01*
X183724785Y-107415380D01*
X183867642Y-107463000D01*
X183915261Y-107510619D01*
X186534309Y-107415380D02*
X187200976Y-107415380D01*
X186772404Y-108415380D01*
X189248595Y-107843952D02*
X189153357Y-107796333D01*
X189105738Y-107748714D01*
X189058119Y-107653476D01*
X189058119Y-107605857D01*
X189105738Y-107510619D01*
X189153357Y-107463000D01*
X189248595Y-107415380D01*
X189439071Y-107415380D01*
X189534309Y-107463000D01*
X189581928Y-107510619D01*
X189629547Y-107605857D01*
X189629547Y-107653476D01*
X189581928Y-107748714D01*
X189534309Y-107796333D01*
X189439071Y-107843952D01*
X189248595Y-107843952D01*
X189153357Y-107891571D01*
X189105738Y-107939190D01*
X189058119Y-108034428D01*
X189058119Y-108224904D01*
X189105738Y-108320142D01*
X189153357Y-108367761D01*
X189248595Y-108415380D01*
X189439071Y-108415380D01*
X189534309Y-108367761D01*
X189581928Y-108320142D01*
X189629547Y-108224904D01*
X189629547Y-108034428D01*
X189581928Y-107939190D01*
X189534309Y-107891571D01*
X189439071Y-107843952D01*
X190820023Y-108415380D02*
X190820023Y-107415380D01*
X191391452Y-108415380D02*
X190962880Y-107843952D01*
X191391452Y-107415380D02*
X190820023Y-107986809D01*
X191820023Y-107891571D02*
X192153357Y-107891571D01*
X192296214Y-108415380D02*
X191820023Y-108415380D01*
X191820023Y-107415380D01*
X192296214Y-107415380D01*
X192915261Y-107939190D02*
X192915261Y-108415380D01*
X192581928Y-107415380D02*
X192915261Y-107939190D01*
X193248595Y-107415380D01*
X181010500Y-108668000D02*
X182010500Y-108668000D01*
X181820023Y-110165380D02*
X181486690Y-109689190D01*
X181248595Y-110165380D02*
X181248595Y-109165380D01*
X181629547Y-109165380D01*
X181724785Y-109213000D01*
X181772404Y-109260619D01*
X181820023Y-109355857D01*
X181820023Y-109498714D01*
X181772404Y-109593952D01*
X181724785Y-109641571D01*
X181629547Y-109689190D01*
X181248595Y-109689190D01*
X182010500Y-108668000D02*
X182915261Y-108668000D01*
X182248595Y-109641571D02*
X182581928Y-109641571D01*
X182724785Y-110165380D02*
X182248595Y-110165380D01*
X182248595Y-109165380D01*
X182724785Y-109165380D01*
X182915261Y-108668000D02*
X183867642Y-108668000D01*
X183105738Y-110117761D02*
X183248595Y-110165380D01*
X183486690Y-110165380D01*
X183581928Y-110117761D01*
X183629547Y-110070142D01*
X183677166Y-109974904D01*
X183677166Y-109879666D01*
X183629547Y-109784428D01*
X183581928Y-109736809D01*
X183486690Y-109689190D01*
X183296214Y-109641571D01*
X183200976Y-109593952D01*
X183153357Y-109546333D01*
X183105738Y-109451095D01*
X183105738Y-109355857D01*
X183153357Y-109260619D01*
X183200976Y-109213000D01*
X183296214Y-109165380D01*
X183534309Y-109165380D01*
X183677166Y-109213000D01*
X183867642Y-108668000D02*
X184772404Y-108668000D01*
X184105738Y-109641571D02*
X184439071Y-109641571D01*
X184581928Y-110165380D02*
X184105738Y-110165380D01*
X184105738Y-109165380D01*
X184581928Y-109165380D01*
X184772404Y-108668000D02*
X185534309Y-108668000D01*
X184867642Y-109165380D02*
X185439071Y-109165380D01*
X185153357Y-110165380D02*
X185153357Y-109165380D01*
X186581928Y-110165380D02*
X186772404Y-110165380D01*
X186867642Y-110117761D01*
X186915261Y-110070142D01*
X187010500Y-109927285D01*
X187058119Y-109736809D01*
X187058119Y-109355857D01*
X187010500Y-109260619D01*
X186962880Y-109213000D01*
X186867642Y-109165380D01*
X186677166Y-109165380D01*
X186581928Y-109213000D01*
X186534309Y-109260619D01*
X186486690Y-109355857D01*
X186486690Y-109593952D01*
X186534309Y-109689190D01*
X186581928Y-109736809D01*
X186677166Y-109784428D01*
X186867642Y-109784428D01*
X186962880Y-109736809D01*
X187010500Y-109689190D01*
X187058119Y-109593952D01*
X188772404Y-110165380D02*
X188200976Y-110165380D01*
X188486690Y-110165380D02*
X188486690Y-109165380D01*
X188391452Y-109308238D01*
X188296214Y-109403476D01*
X188200976Y-109451095D01*
X189391452Y-109165380D02*
X189486690Y-109165380D01*
X189581928Y-109213000D01*
X189629547Y-109260619D01*
X189677166Y-109355857D01*
X189724785Y-109546333D01*
X189724785Y-109784428D01*
X189677166Y-109974904D01*
X189629547Y-110070142D01*
X189581928Y-110117761D01*
X189486690Y-110165380D01*
X189391452Y-110165380D01*
X189296214Y-110117761D01*
X189248595Y-110070142D01*
X189200976Y-109974904D01*
X189153357Y-109784428D01*
X189153357Y-109546333D01*
X189200976Y-109355857D01*
X189248595Y-109260619D01*
X189296214Y-109213000D01*
X189391452Y-109165380D01*
X191439071Y-109213000D02*
X191343833Y-109165380D01*
X191200976Y-109165380D01*
X191058119Y-109213000D01*
X190962880Y-109308238D01*
X190915261Y-109403476D01*
X190867642Y-109593952D01*
X190867642Y-109736809D01*
X190915261Y-109927285D01*
X190962880Y-110022523D01*
X191058119Y-110117761D01*
X191200976Y-110165380D01*
X191296214Y-110165380D01*
X191439071Y-110117761D01*
X191486690Y-110070142D01*
X191486690Y-109736809D01*
X191296214Y-109736809D01*
X191915261Y-110165380D02*
X191915261Y-109165380D01*
X192486690Y-110165380D01*
X192486690Y-109165380D01*
X192962880Y-110165380D02*
X192962880Y-109165380D01*
X193200976Y-109165380D01*
X193343833Y-109213000D01*
X193439071Y-109308238D01*
X193486690Y-109403476D01*
X193534309Y-109593952D01*
X193534309Y-109736809D01*
X193486690Y-109927285D01*
X193439071Y-110022523D01*
X193343833Y-110117761D01*
X193200976Y-110165380D01*
X192962880Y-110165380D01*
D14*
X159061714Y-99300857D02*
X158376000Y-99300857D01*
X158718857Y-99300857D02*
X158718857Y-98100857D01*
X158604571Y-98272285D01*
X158490285Y-98386571D01*
X158376000Y-98443714D01*
X159804571Y-98100857D02*
X159918857Y-98100857D01*
X160033142Y-98158000D01*
X160090285Y-98215142D01*
X160147428Y-98329428D01*
X160204571Y-98558000D01*
X160204571Y-98843714D01*
X160147428Y-99072285D01*
X160090285Y-99186571D01*
X160033142Y-99243714D01*
X159918857Y-99300857D01*
X159804571Y-99300857D01*
X159690285Y-99243714D01*
X159633142Y-99186571D01*
X159576000Y-99072285D01*
X159518857Y-98843714D01*
X159518857Y-98558000D01*
X159576000Y-98329428D01*
X159633142Y-98215142D01*
X159690285Y-98158000D01*
X159804571Y-98100857D01*
X160718857Y-98843714D02*
X161633142Y-98843714D01*
X162204571Y-98500857D02*
X162204571Y-99700857D01*
X162204571Y-98558000D02*
X162318857Y-98500857D01*
X162547428Y-98500857D01*
X162661714Y-98558000D01*
X162718857Y-98615142D01*
X162776000Y-98729428D01*
X162776000Y-99072285D01*
X162718857Y-99186571D01*
X162661714Y-99243714D01*
X162547428Y-99300857D01*
X162318857Y-99300857D01*
X162204571Y-99243714D01*
X163290285Y-99300857D02*
X163290285Y-98500857D01*
X163290285Y-98100857D02*
X163233142Y-98158000D01*
X163290285Y-98215142D01*
X163347428Y-98158000D01*
X163290285Y-98100857D01*
X163290285Y-98215142D01*
X163861714Y-98500857D02*
X163861714Y-99300857D01*
X163861714Y-98615142D02*
X163918857Y-98558000D01*
X164033142Y-98500857D01*
X164204571Y-98500857D01*
X164318857Y-98558000D01*
X164376000Y-98672285D01*
X164376000Y-99300857D01*
X165804571Y-99243714D02*
X165976000Y-99300857D01*
X166261714Y-99300857D01*
X166376000Y-99243714D01*
X166433142Y-99186571D01*
X166490285Y-99072285D01*
X166490285Y-98958000D01*
X166433142Y-98843714D01*
X166376000Y-98786571D01*
X166261714Y-98729428D01*
X166033142Y-98672285D01*
X165918857Y-98615142D01*
X165861714Y-98558000D01*
X165804571Y-98443714D01*
X165804571Y-98329428D01*
X165861714Y-98215142D01*
X165918857Y-98158000D01*
X166033142Y-98100857D01*
X166318857Y-98100857D01*
X166490285Y-98158000D01*
X166947428Y-98958000D02*
X167518857Y-98958000D01*
X166833142Y-99300857D02*
X167233142Y-98100857D01*
X167633142Y-99300857D01*
X168033142Y-99300857D02*
X168033142Y-98100857D01*
X168433142Y-98958000D01*
X168833142Y-98100857D01*
X168833142Y-99300857D01*
X170661714Y-98100857D02*
X170661714Y-98958000D01*
X170604571Y-99129428D01*
X170490285Y-99243714D01*
X170318857Y-99300857D01*
X170204571Y-99300857D01*
X171061714Y-98100857D02*
X171747428Y-98100857D01*
X171404571Y-99300857D02*
X171404571Y-98100857D01*
X172090285Y-98958000D02*
X172661714Y-98958000D01*
X171976000Y-99300857D02*
X172376000Y-98100857D01*
X172776000Y-99300857D01*
X173804571Y-98158000D02*
X173690285Y-98100857D01*
X173518857Y-98100857D01*
X173347428Y-98158000D01*
X173233142Y-98272285D01*
X173176000Y-98386571D01*
X173118857Y-98615142D01*
X173118857Y-98786571D01*
X173176000Y-99015142D01*
X173233142Y-99129428D01*
X173347428Y-99243714D01*
X173518857Y-99300857D01*
X173633142Y-99300857D01*
X173804571Y-99243714D01*
X173861714Y-99186571D01*
X173861714Y-98786571D01*
X173633142Y-98786571D01*
X175233142Y-98043714D02*
X174204571Y-99586571D01*
X175576000Y-99243714D02*
X175747428Y-99300857D01*
X176033142Y-99300857D01*
X176147428Y-99243714D01*
X176204571Y-99186571D01*
X176261714Y-99072285D01*
X176261714Y-98958000D01*
X176204571Y-98843714D01*
X176147428Y-98786571D01*
X176033142Y-98729428D01*
X175804571Y-98672285D01*
X175690285Y-98615142D01*
X175633142Y-98558000D01*
X175576000Y-98443714D01*
X175576000Y-98329428D01*
X175633142Y-98215142D01*
X175690285Y-98158000D01*
X175804571Y-98100857D01*
X176090285Y-98100857D01*
X176261714Y-98158000D01*
X176661714Y-98100857D02*
X176947428Y-99300857D01*
X177176000Y-98443714D01*
X177404571Y-99300857D01*
X177690285Y-98100857D01*
X178147428Y-99300857D02*
X178147428Y-98100857D01*
X178433142Y-98100857D01*
X178604571Y-98158000D01*
X178718857Y-98272285D01*
X178776000Y-98386571D01*
X178833142Y-98615142D01*
X178833142Y-98786571D01*
X178776000Y-99015142D01*
X178718857Y-99129428D01*
X178604571Y-99243714D01*
X178433142Y-99300857D01*
X178147428Y-99300857D01*
X180261714Y-99300857D02*
X180261714Y-98100857D01*
X180261714Y-98672285D02*
X180947428Y-98672285D01*
X180947428Y-99300857D02*
X180947428Y-98100857D01*
X181976000Y-99243714D02*
X181861714Y-99300857D01*
X181633142Y-99300857D01*
X181518857Y-99243714D01*
X181461714Y-99129428D01*
X181461714Y-98672285D01*
X181518857Y-98558000D01*
X181633142Y-98500857D01*
X181861714Y-98500857D01*
X181976000Y-98558000D01*
X182033142Y-98672285D01*
X182033142Y-98786571D01*
X181461714Y-98900857D01*
X183061714Y-99300857D02*
X183061714Y-98672285D01*
X183004571Y-98558000D01*
X182890285Y-98500857D01*
X182661714Y-98500857D01*
X182547428Y-98558000D01*
X183061714Y-99243714D02*
X182947428Y-99300857D01*
X182661714Y-99300857D01*
X182547428Y-99243714D01*
X182490285Y-99129428D01*
X182490285Y-99015142D01*
X182547428Y-98900857D01*
X182661714Y-98843714D01*
X182947428Y-98843714D01*
X183061714Y-98786571D01*
X184147428Y-99300857D02*
X184147428Y-98100857D01*
X184147428Y-99243714D02*
X184033142Y-99300857D01*
X183804571Y-99300857D01*
X183690285Y-99243714D01*
X183633142Y-99186571D01*
X183576000Y-99072285D01*
X183576000Y-98729428D01*
X183633142Y-98615142D01*
X183690285Y-98558000D01*
X183804571Y-98500857D01*
X184033142Y-98500857D01*
X184147428Y-98558000D01*
X185176000Y-99243714D02*
X185061714Y-99300857D01*
X184833142Y-99300857D01*
X184718857Y-99243714D01*
X184661714Y-99129428D01*
X184661714Y-98672285D01*
X184718857Y-98558000D01*
X184833142Y-98500857D01*
X185061714Y-98500857D01*
X185176000Y-98558000D01*
X185233142Y-98672285D01*
X185233142Y-98786571D01*
X184661714Y-98900857D01*
X185747428Y-99300857D02*
X185747428Y-98500857D01*
X185747428Y-98729428D02*
X185804571Y-98615142D01*
X185861714Y-98558000D01*
X185976000Y-98500857D01*
X186090285Y-98500857D01*
D16*
X178751904Y-89465523D02*
X178751904Y-89008380D01*
X179551904Y-89236952D02*
X178751904Y-89236952D01*
X178751904Y-88817904D02*
X179551904Y-88284571D01*
X178751904Y-88284571D02*
X179551904Y-88817904D01*
X179351904Y-86489333D02*
X178970952Y-86756000D01*
X179351904Y-86946476D02*
X178551904Y-86946476D01*
X178551904Y-86641714D01*
X178590000Y-86565523D01*
X178628095Y-86527428D01*
X178704285Y-86489333D01*
X178818571Y-86489333D01*
X178894761Y-86527428D01*
X178932857Y-86565523D01*
X178970952Y-86641714D01*
X178970952Y-86946476D01*
X178551904Y-86222666D02*
X179351904Y-85689333D01*
X178551904Y-85689333D02*
X179351904Y-86222666D01*
X178690000Y-84065523D02*
X178651904Y-84141714D01*
X178651904Y-84256000D01*
X178690000Y-84370285D01*
X178766190Y-84446476D01*
X178842380Y-84484571D01*
X178994761Y-84522666D01*
X179109047Y-84522666D01*
X179261428Y-84484571D01*
X179337619Y-84446476D01*
X179413809Y-84370285D01*
X179451904Y-84256000D01*
X179451904Y-84179809D01*
X179413809Y-84065523D01*
X179375714Y-84027428D01*
X179109047Y-84027428D01*
X179109047Y-84179809D01*
X179451904Y-83684571D02*
X178651904Y-83684571D01*
X179451904Y-83227428D01*
X178651904Y-83227428D01*
X179451904Y-82846476D02*
X178651904Y-82846476D01*
X178651904Y-82656000D01*
X178690000Y-82541714D01*
X178766190Y-82465523D01*
X178842380Y-82427428D01*
X178994761Y-82389333D01*
X179109047Y-82389333D01*
X179261428Y-82427428D01*
X179337619Y-82465523D01*
X179413809Y-82541714D01*
X179451904Y-82656000D01*
X179451904Y-82846476D01*
X158351904Y-70502428D02*
X158351904Y-70045285D01*
X159151904Y-70273857D02*
X158351904Y-70273857D01*
X159151904Y-69778619D02*
X158351904Y-69778619D01*
X159151904Y-69435761D02*
X158732857Y-69435761D01*
X158656666Y-69473857D01*
X158618571Y-69550047D01*
X158618571Y-69664333D01*
X158656666Y-69740523D01*
X158694761Y-69778619D01*
X159151904Y-69054809D02*
X158618571Y-69054809D01*
X158770952Y-69054809D02*
X158694761Y-69016714D01*
X158656666Y-68978619D01*
X158618571Y-68902428D01*
X158618571Y-68826238D01*
X159151904Y-68559571D02*
X158618571Y-68559571D01*
X158694761Y-68559571D02*
X158656666Y-68521476D01*
X158618571Y-68445285D01*
X158618571Y-68331000D01*
X158656666Y-68254809D01*
X158732857Y-68216714D01*
X159151904Y-68216714D01*
X158732857Y-68216714D02*
X158656666Y-68178619D01*
X158618571Y-68102428D01*
X158618571Y-67988142D01*
X158656666Y-67911952D01*
X158732857Y-67873857D01*
X159151904Y-67873857D01*
X164101904Y-65677428D02*
X164101904Y-65220285D01*
X164901904Y-65448857D02*
X164101904Y-65448857D01*
X164901904Y-64953619D02*
X164101904Y-64953619D01*
X164901904Y-64610761D02*
X164482857Y-64610761D01*
X164406666Y-64648857D01*
X164368571Y-64725047D01*
X164368571Y-64839333D01*
X164406666Y-64915523D01*
X164444761Y-64953619D01*
X164901904Y-64229809D02*
X164368571Y-64229809D01*
X164520952Y-64229809D02*
X164444761Y-64191714D01*
X164406666Y-64153619D01*
X164368571Y-64077428D01*
X164368571Y-64001238D01*
X164901904Y-63734571D02*
X164368571Y-63734571D01*
X164444761Y-63734571D02*
X164406666Y-63696476D01*
X164368571Y-63620285D01*
X164368571Y-63506000D01*
X164406666Y-63429809D01*
X164482857Y-63391714D01*
X164901904Y-63391714D01*
X164482857Y-63391714D02*
X164406666Y-63353619D01*
X164368571Y-63277428D01*
X164368571Y-63163142D01*
X164406666Y-63086952D01*
X164482857Y-63048857D01*
X164901904Y-63048857D01*
X157182857Y-74901238D02*
X157182857Y-74634571D01*
X157601904Y-74520285D02*
X157601904Y-74901238D01*
X156801904Y-74901238D01*
X156801904Y-74520285D01*
X157601904Y-74253619D02*
X157068571Y-73834571D01*
X157068571Y-74253619D02*
X157601904Y-73834571D01*
X158963809Y-75339333D02*
X159001904Y-75225047D01*
X159001904Y-75034571D01*
X158963809Y-74958380D01*
X158925714Y-74920285D01*
X158849523Y-74882190D01*
X158773333Y-74882190D01*
X158697142Y-74920285D01*
X158659047Y-74958380D01*
X158620952Y-75034571D01*
X158582857Y-75186952D01*
X158544761Y-75263142D01*
X158506666Y-75301238D01*
X158430476Y-75339333D01*
X158354285Y-75339333D01*
X158278095Y-75301238D01*
X158240000Y-75263142D01*
X158201904Y-75186952D01*
X158201904Y-74996476D01*
X158240000Y-74882190D01*
X158963809Y-74234571D02*
X159001904Y-74310761D01*
X159001904Y-74463142D01*
X158963809Y-74539333D01*
X158887619Y-74577428D01*
X158582857Y-74577428D01*
X158506666Y-74539333D01*
X158468571Y-74463142D01*
X158468571Y-74310761D01*
X158506666Y-74234571D01*
X158582857Y-74196476D01*
X158659047Y-74196476D01*
X158735238Y-74577428D01*
X158468571Y-73853619D02*
X159001904Y-73853619D01*
X158544761Y-73853619D02*
X158506666Y-73815523D01*
X158468571Y-73739333D01*
X158468571Y-73625047D01*
X158506666Y-73548857D01*
X158582857Y-73510761D01*
X159001904Y-73510761D01*
X165051904Y-90501238D02*
X165051904Y-90958380D01*
X165051904Y-90729809D02*
X164251904Y-90729809D01*
X164366190Y-90806000D01*
X164442380Y-90882190D01*
X164480476Y-90958380D01*
X165051904Y-90234571D02*
X164518571Y-89815523D01*
X164518571Y-90234571D02*
X165051904Y-89815523D01*
D13*
X172361428Y-61136952D02*
X172361428Y-60375047D01*
X172742380Y-60756000D02*
X171980476Y-60756000D01*
D12*
X170440000Y-68522666D02*
X170440000Y-67989333D01*
X170340000Y-72022666D02*
X170340000Y-71489333D01*
X170606666Y-71756000D02*
X170073333Y-71756000D01*
D10*
X200152000Y-92856000D02*
X144240000Y-92856000D01*
X200152000Y-59210000D02*
X200152000Y-92710000D01*
X161640000Y-59356000D02*
X200140000Y-59356000D01*
X144240000Y-92606000D02*
X144240000Y-59356000D01*
D14*
X198408857Y-71716285D02*
X198408857Y-72402000D01*
X198408857Y-72059142D02*
X197208857Y-72059142D01*
X197380285Y-72173428D01*
X197494571Y-72287714D01*
X197551714Y-72402000D01*
X197323142Y-71259142D02*
X197266000Y-71202000D01*
X197208857Y-71087714D01*
X197208857Y-70802000D01*
X197266000Y-70687714D01*
X197323142Y-70630571D01*
X197437428Y-70573428D01*
X197551714Y-70573428D01*
X197723142Y-70630571D01*
X198408857Y-71316285D01*
X198408857Y-70573428D01*
X197151714Y-69202000D02*
X198694571Y-70230571D01*
X197208857Y-68573428D02*
X197208857Y-68459142D01*
X197266000Y-68344857D01*
X197323142Y-68287714D01*
X197437428Y-68230571D01*
X197666000Y-68173428D01*
X197951714Y-68173428D01*
X198180285Y-68230571D01*
X198294571Y-68287714D01*
X198351714Y-68344857D01*
X198408857Y-68459142D01*
X198408857Y-68573428D01*
X198351714Y-68687714D01*
X198294571Y-68744857D01*
X198180285Y-68802000D01*
X197951714Y-68859142D01*
X197666000Y-68859142D01*
X197437428Y-68802000D01*
X197323142Y-68744857D01*
X197266000Y-68687714D01*
X197208857Y-68573428D01*
X197208857Y-67773428D02*
X197208857Y-66973428D01*
X198408857Y-67487714D01*
X197151714Y-65659142D02*
X198694571Y-66687714D01*
X197323142Y-65316285D02*
X197266000Y-65259142D01*
X197208857Y-65144857D01*
X197208857Y-64859142D01*
X197266000Y-64744857D01*
X197323142Y-64687714D01*
X197437428Y-64630571D01*
X197551714Y-64630571D01*
X197723142Y-64687714D01*
X198408857Y-65373428D01*
X198408857Y-64630571D01*
X197208857Y-63887714D02*
X197208857Y-63773428D01*
X197266000Y-63659142D01*
X197323142Y-63602000D01*
X197437428Y-63544857D01*
X197666000Y-63487714D01*
X197951714Y-63487714D01*
X198180285Y-63544857D01*
X198294571Y-63602000D01*
X198351714Y-63659142D01*
X198408857Y-63773428D01*
X198408857Y-63887714D01*
X198351714Y-64002000D01*
X198294571Y-64059142D01*
X198180285Y-64116285D01*
X197951714Y-64173428D01*
X197666000Y-64173428D01*
X197437428Y-64116285D01*
X197323142Y-64059142D01*
X197266000Y-64002000D01*
X197208857Y-63887714D01*
X197323142Y-63030571D02*
X197266000Y-62973428D01*
X197208857Y-62859142D01*
X197208857Y-62573428D01*
X197266000Y-62459142D01*
X197323142Y-62402000D01*
X197437428Y-62344857D01*
X197551714Y-62344857D01*
X197723142Y-62402000D01*
X198408857Y-63087714D01*
X198408857Y-62344857D01*
X197208857Y-61602000D02*
X197208857Y-61487714D01*
X197266000Y-61373428D01*
X197323142Y-61316285D01*
X197437428Y-61259142D01*
X197666000Y-61202000D01*
X197951714Y-61202000D01*
X198180285Y-61259142D01*
X198294571Y-61316285D01*
X198351714Y-61373428D01*
X198408857Y-61487714D01*
X198408857Y-61602000D01*
X198351714Y-61716285D01*
X198294571Y-61773428D01*
X198180285Y-61830571D01*
X197951714Y-61887714D01*
X197666000Y-61887714D01*
X197437428Y-61830571D01*
X197323142Y-61773428D01*
X197266000Y-61716285D01*
X197208857Y-61602000D01*
D13*
X170467380Y-66732190D02*
X170467380Y-66160761D01*
X171467380Y-66446476D02*
X170467380Y-66446476D01*
X171467380Y-65827428D02*
X170467380Y-65827428D01*
X171467380Y-65398857D02*
X170943571Y-65398857D01*
X170848333Y-65446476D01*
X170800714Y-65541714D01*
X170800714Y-65684571D01*
X170848333Y-65779809D01*
X170895952Y-65827428D01*
X171419761Y-64541714D02*
X171467380Y-64636952D01*
X171467380Y-64827428D01*
X171419761Y-64922666D01*
X171324523Y-64970285D01*
X170943571Y-64970285D01*
X170848333Y-64922666D01*
X170800714Y-64827428D01*
X170800714Y-64636952D01*
X170848333Y-64541714D01*
X170943571Y-64494095D01*
X171038809Y-64494095D01*
X171134047Y-64970285D01*
X171467380Y-64065523D02*
X170800714Y-64065523D01*
X170991190Y-64065523D02*
X170895952Y-64017904D01*
X170848333Y-63970285D01*
X170800714Y-63875047D01*
X170800714Y-63779809D01*
X171467380Y-63446476D02*
X170800714Y-63446476D01*
X170895952Y-63446476D02*
X170848333Y-63398857D01*
X170800714Y-63303619D01*
X170800714Y-63160761D01*
X170848333Y-63065523D01*
X170943571Y-63017904D01*
X171467380Y-63017904D01*
X170943571Y-63017904D02*
X170848333Y-62970285D01*
X170800714Y-62875047D01*
X170800714Y-62732190D01*
X170848333Y-62636952D01*
X170943571Y-62589333D01*
X171467380Y-62589333D01*
X171467380Y-61970285D02*
X171419761Y-62065523D01*
X171372142Y-62113142D01*
X171276904Y-62160761D01*
X170991190Y-62160761D01*
X170895952Y-62113142D01*
X170848333Y-62065523D01*
X170800714Y-61970285D01*
X170800714Y-61827428D01*
X170848333Y-61732190D01*
X170895952Y-61684571D01*
X170991190Y-61636952D01*
X171276904Y-61636952D01*
X171372142Y-61684571D01*
X171419761Y-61732190D01*
X171467380Y-61827428D01*
X171467380Y-61970285D01*
X172217380Y-64589333D02*
X172217380Y-64398857D01*
X172265000Y-64303619D01*
X172360238Y-64208380D01*
X172550714Y-64160761D01*
X172884047Y-64160761D01*
X173074523Y-64208380D01*
X173169761Y-64303619D01*
X173217380Y-64398857D01*
X173217380Y-64589333D01*
X173169761Y-64684571D01*
X173074523Y-64779809D01*
X172884047Y-64827428D01*
X172550714Y-64827428D01*
X172360238Y-64779809D01*
X172265000Y-64684571D01*
X172217380Y-64589333D01*
X172550714Y-63303619D02*
X173217380Y-63303619D01*
X172550714Y-63732190D02*
X173074523Y-63732190D01*
X173169761Y-63684571D01*
X173217380Y-63589333D01*
X173217380Y-63446476D01*
X173169761Y-63351238D01*
X173122142Y-63303619D01*
X172550714Y-62970285D02*
X172550714Y-62589333D01*
X172217380Y-62827428D02*
X173074523Y-62827428D01*
X173169761Y-62779809D01*
X173217380Y-62684571D01*
X173217380Y-62589333D01*
X156926547Y-66863619D02*
X156987023Y-66682190D01*
X156987023Y-66379809D01*
X156926547Y-66258857D01*
X156866071Y-66198380D01*
X156745119Y-66137904D01*
X156624166Y-66137904D01*
X156503214Y-66198380D01*
X156442738Y-66258857D01*
X156382261Y-66379809D01*
X156321785Y-66621714D01*
X156261309Y-66742666D01*
X156200833Y-66803142D01*
X156079880Y-66863619D01*
X155958928Y-66863619D01*
X155837976Y-66803142D01*
X155777500Y-66742666D01*
X155717023Y-66621714D01*
X155717023Y-66319333D01*
X155777500Y-66137904D01*
X156140357Y-65593619D02*
X157410357Y-65593619D01*
X156200833Y-65593619D02*
X156140357Y-65472666D01*
X156140357Y-65230761D01*
X156200833Y-65109809D01*
X156261309Y-65049333D01*
X156382261Y-64988857D01*
X156745119Y-64988857D01*
X156866071Y-65049333D01*
X156926547Y-65109809D01*
X156987023Y-65230761D01*
X156987023Y-65472666D01*
X156926547Y-65593619D01*
X156926547Y-63960761D02*
X156987023Y-64081714D01*
X156987023Y-64323619D01*
X156926547Y-64444571D01*
X156805595Y-64505047D01*
X156321785Y-64505047D01*
X156200833Y-64444571D01*
X156140357Y-64323619D01*
X156140357Y-64081714D01*
X156200833Y-63960761D01*
X156321785Y-63900285D01*
X156442738Y-63900285D01*
X156563690Y-64505047D01*
X156987023Y-62811714D02*
X156321785Y-62811714D01*
X156200833Y-62872190D01*
X156140357Y-62993142D01*
X156140357Y-63235047D01*
X156200833Y-63356000D01*
X156926547Y-62811714D02*
X156987023Y-62932666D01*
X156987023Y-63235047D01*
X156926547Y-63356000D01*
X156805595Y-63416476D01*
X156684642Y-63416476D01*
X156563690Y-63356000D01*
X156503214Y-63235047D01*
X156503214Y-62932666D01*
X156442738Y-62811714D01*
X156987023Y-62206952D02*
X155717023Y-62206952D01*
X156503214Y-62086000D02*
X156987023Y-61723142D01*
X156140357Y-61723142D02*
X156624166Y-62206952D01*
X156926547Y-60695047D02*
X156987023Y-60816000D01*
X156987023Y-61057904D01*
X156926547Y-61178857D01*
X156805595Y-61239333D01*
X156321785Y-61239333D01*
X156200833Y-61178857D01*
X156140357Y-61057904D01*
X156140357Y-60816000D01*
X156200833Y-60695047D01*
X156321785Y-60634571D01*
X156442738Y-60634571D01*
X156563690Y-61239333D01*
X156987023Y-60090285D02*
X156140357Y-60090285D01*
X156382261Y-60090285D02*
X156261309Y-60029809D01*
X156200833Y-59969333D01*
X156140357Y-59848380D01*
X156140357Y-59727428D01*
X157872023Y-64414333D02*
X157872023Y-64172428D01*
X157932500Y-64051476D01*
X158053452Y-63930523D01*
X158295357Y-63870047D01*
X158718690Y-63870047D01*
X158960595Y-63930523D01*
X159081547Y-64051476D01*
X159142023Y-64172428D01*
X159142023Y-64414333D01*
X159081547Y-64535285D01*
X158960595Y-64656238D01*
X158718690Y-64716714D01*
X158295357Y-64716714D01*
X158053452Y-64656238D01*
X157932500Y-64535285D01*
X157872023Y-64414333D01*
X158295357Y-62781476D02*
X159142023Y-62781476D01*
X158295357Y-63325761D02*
X158960595Y-63325761D01*
X159081547Y-63265285D01*
X159142023Y-63144333D01*
X159142023Y-62962904D01*
X159081547Y-62841952D01*
X159021071Y-62781476D01*
X158295357Y-62358142D02*
X158295357Y-61874333D01*
X157872023Y-62176714D02*
X158960595Y-62176714D01*
X159081547Y-62116238D01*
X159142023Y-61995285D01*
X159142023Y-61874333D01*
D17*
X146564523Y-80532190D02*
X145294523Y-80532190D01*
X146564523Y-79987904D02*
X145899285Y-79987904D01*
X145778333Y-80048380D01*
X145717857Y-80169333D01*
X145717857Y-80350761D01*
X145778333Y-80471714D01*
X145838809Y-80532190D01*
X146504047Y-78899333D02*
X146564523Y-79020285D01*
X146564523Y-79262190D01*
X146504047Y-79383142D01*
X146383095Y-79443619D01*
X145899285Y-79443619D01*
X145778333Y-79383142D01*
X145717857Y-79262190D01*
X145717857Y-79020285D01*
X145778333Y-78899333D01*
X145899285Y-78838857D01*
X146020238Y-78838857D01*
X146141190Y-79443619D01*
X146564523Y-77750285D02*
X145899285Y-77750285D01*
X145778333Y-77810761D01*
X145717857Y-77931714D01*
X145717857Y-78173619D01*
X145778333Y-78294571D01*
X146504047Y-77750285D02*
X146564523Y-77871238D01*
X146564523Y-78173619D01*
X146504047Y-78294571D01*
X146383095Y-78355047D01*
X146262142Y-78355047D01*
X146141190Y-78294571D01*
X146080714Y-78173619D01*
X146080714Y-77871238D01*
X146020238Y-77750285D01*
X145717857Y-77326952D02*
X145717857Y-76843142D01*
X145294523Y-77145523D02*
X146383095Y-77145523D01*
X146504047Y-77085047D01*
X146564523Y-76964095D01*
X146564523Y-76843142D01*
X145415476Y-76480285D02*
X145355000Y-76419809D01*
X145294523Y-76298857D01*
X145294523Y-75996476D01*
X145355000Y-75875523D01*
X145415476Y-75815047D01*
X145536428Y-75754571D01*
X145657380Y-75754571D01*
X145838809Y-75815047D01*
X146564523Y-76540761D01*
X146564523Y-75754571D01*
X146504047Y-75270761D02*
X146564523Y-75149809D01*
X146564523Y-74907904D01*
X146504047Y-74786952D01*
X146383095Y-74726476D01*
X146322619Y-74726476D01*
X146201666Y-74786952D01*
X146141190Y-74907904D01*
X146141190Y-75089333D01*
X146080714Y-75210285D01*
X145959761Y-75270761D01*
X145899285Y-75270761D01*
X145778333Y-75210285D01*
X145717857Y-75089333D01*
X145717857Y-74907904D01*
X145778333Y-74786952D01*
X146564523Y-74000761D02*
X146504047Y-74121714D01*
X146443571Y-74182190D01*
X146322619Y-74242666D01*
X145959761Y-74242666D01*
X145838809Y-74182190D01*
X145778333Y-74121714D01*
X145717857Y-74000761D01*
X145717857Y-73819333D01*
X145778333Y-73698380D01*
X145838809Y-73637904D01*
X145959761Y-73577428D01*
X146322619Y-73577428D01*
X146443571Y-73637904D01*
X146504047Y-73698380D01*
X146564523Y-73819333D01*
X146564523Y-74000761D01*
X145717857Y-72488857D02*
X146564523Y-72488857D01*
X145717857Y-73033142D02*
X146383095Y-73033142D01*
X146504047Y-72972666D01*
X146564523Y-72851714D01*
X146564523Y-72670285D01*
X146504047Y-72549333D01*
X146443571Y-72488857D01*
X145717857Y-71884095D02*
X146564523Y-71884095D01*
X145838809Y-71884095D02*
X145778333Y-71823619D01*
X145717857Y-71702666D01*
X145717857Y-71521238D01*
X145778333Y-71400285D01*
X145899285Y-71339809D01*
X146564523Y-71339809D01*
X146564523Y-70190761D02*
X145294523Y-70190761D01*
X146504047Y-70190761D02*
X146564523Y-70311714D01*
X146564523Y-70553619D01*
X146504047Y-70674571D01*
X146443571Y-70735047D01*
X146322619Y-70795523D01*
X145959761Y-70795523D01*
X145838809Y-70735047D01*
X145778333Y-70674571D01*
X145717857Y-70553619D01*
X145717857Y-70311714D01*
X145778333Y-70190761D01*
X146685476Y-69888380D02*
X146685476Y-68920761D01*
X146564523Y-68618380D02*
X145717857Y-68618380D01*
X145959761Y-68618380D02*
X145838809Y-68557904D01*
X145778333Y-68497428D01*
X145717857Y-68376476D01*
X145717857Y-68255523D01*
X146564523Y-67953142D02*
X145717857Y-67287904D01*
X145717857Y-67953142D02*
X146564523Y-67287904D01*
X146685476Y-67106476D02*
X146685476Y-66138857D01*
X146564523Y-65836476D02*
X145717857Y-65836476D01*
X145959761Y-65836476D02*
X145838809Y-65776000D01*
X145778333Y-65715523D01*
X145717857Y-65594571D01*
X145717857Y-65473619D01*
X146504047Y-64566476D02*
X146564523Y-64687428D01*
X146564523Y-64929333D01*
X146504047Y-65050285D01*
X146383095Y-65110761D01*
X145899285Y-65110761D01*
X145778333Y-65050285D01*
X145717857Y-64929333D01*
X145717857Y-64687428D01*
X145778333Y-64566476D01*
X145899285Y-64506000D01*
X146020238Y-64506000D01*
X146141190Y-65110761D01*
X145717857Y-64082666D02*
X146564523Y-63780285D01*
X145717857Y-63477904D01*
X145294523Y-62752190D02*
X145294523Y-62631238D01*
X145355000Y-62510285D01*
X145415476Y-62449809D01*
X145536428Y-62389333D01*
X145778333Y-62328857D01*
X146080714Y-62328857D01*
X146322619Y-62389333D01*
X146443571Y-62449809D01*
X146504047Y-62510285D01*
X146564523Y-62631238D01*
X146564523Y-62752190D01*
X146504047Y-62873142D01*
X146443571Y-62933619D01*
X146322619Y-62994095D01*
X146080714Y-63054571D01*
X145778333Y-63054571D01*
X145536428Y-62994095D01*
X145415476Y-62933619D01*
X145355000Y-62873142D01*
X145294523Y-62752190D01*
X145717857Y-61240285D02*
X146564523Y-61240285D01*
X145234047Y-61542666D02*
X146141190Y-61845047D01*
X146141190Y-61058857D01*
D18*
X162605000Y-91848619D02*
X162544523Y-91969571D01*
X162544523Y-92151000D01*
X162605000Y-92332428D01*
X162725952Y-92453380D01*
X162846904Y-92513857D01*
X163088809Y-92574333D01*
X163270238Y-92574333D01*
X163512142Y-92513857D01*
X163633095Y-92453380D01*
X163754047Y-92332428D01*
X163814523Y-92151000D01*
X163814523Y-92030047D01*
X163754047Y-91848619D01*
X163693571Y-91788142D01*
X163270238Y-91788142D01*
X163270238Y-92030047D01*
X163814523Y-91243857D02*
X162544523Y-91243857D01*
X163814523Y-90518142D01*
X162544523Y-90518142D01*
X163814523Y-89913380D02*
X162544523Y-89913380D01*
X162544523Y-89611000D01*
X162605000Y-89429571D01*
X162725952Y-89308619D01*
X162846904Y-89248142D01*
X163088809Y-89187666D01*
X163270238Y-89187666D01*
X163512142Y-89248142D01*
X163633095Y-89308619D01*
X163754047Y-89429571D01*
X163814523Y-89611000D01*
X163814523Y-89913380D01*
X146294523Y-89151952D02*
X146294523Y-89756714D01*
X146899285Y-89817190D01*
X146838809Y-89756714D01*
X146778333Y-89635761D01*
X146778333Y-89333380D01*
X146838809Y-89212428D01*
X146899285Y-89151952D01*
X147020238Y-89091476D01*
X147322619Y-89091476D01*
X147443571Y-89151952D01*
X147504047Y-89212428D01*
X147564523Y-89333380D01*
X147564523Y-89635761D01*
X147504047Y-89756714D01*
X147443571Y-89817190D01*
X146717857Y-88668142D02*
X147564523Y-88365761D01*
X146717857Y-88063380D01*
X147564523Y-86611952D02*
X146294523Y-86611952D01*
X146294523Y-86309571D01*
X146355000Y-86128142D01*
X146475952Y-86007190D01*
X146596904Y-85946714D01*
X146838809Y-85886238D01*
X147020238Y-85886238D01*
X147262142Y-85946714D01*
X147383095Y-86007190D01*
X147504047Y-86128142D01*
X147564523Y-86309571D01*
X147564523Y-86611952D01*
X147443571Y-84616238D02*
X147504047Y-84676714D01*
X147564523Y-84858142D01*
X147564523Y-84979095D01*
X147504047Y-85160523D01*
X147383095Y-85281476D01*
X147262142Y-85341952D01*
X147020238Y-85402428D01*
X146838809Y-85402428D01*
X146596904Y-85341952D01*
X146475952Y-85281476D01*
X146355000Y-85160523D01*
X146294523Y-84979095D01*
X146294523Y-84858142D01*
X146355000Y-84676714D01*
X146415476Y-84616238D01*
X147564523Y-83104333D02*
X146294523Y-83104333D01*
X146717857Y-82499571D02*
X147564523Y-82499571D01*
X146838809Y-82499571D02*
X146778333Y-82439095D01*
X146717857Y-82318142D01*
X146717857Y-82136714D01*
X146778333Y-82015761D01*
X146899285Y-81955285D01*
X147564523Y-81955285D01*
D19*
X139611981Y-101932000D02*
G75*
G03X139611981Y-101932000I-283981J0D01*
G01*
X138820000Y-98884000D02*
X139582000Y-98884000D01*
X139582000Y-98884000D02*
X139582000Y-100916000D01*
X139582000Y-100916000D02*
X138820000Y-100916000D01*
X138820000Y-97360000D02*
X148980000Y-97360000D01*
X148980000Y-97360000D02*
X148980000Y-102440000D01*
X148980000Y-102440000D02*
X138820000Y-102440000D01*
X138820000Y-102440000D02*
X138820000Y-97360000D01*
X139729981Y-126492000D02*
G75*
G03X139729981Y-126492000I-283981J0D01*
G01*
X138938000Y-123444000D02*
X139700000Y-123444000D01*
X139700000Y-123444000D02*
X139700000Y-125476000D01*
X139700000Y-125476000D02*
X138938000Y-125476000D01*
X138938000Y-121920000D02*
X149098000Y-121920000D01*
X149098000Y-121920000D02*
X149098000Y-127000000D01*
X149098000Y-127000000D02*
X138938000Y-127000000D01*
X138938000Y-127000000D02*
X138938000Y-121920000D01*
X139511981Y-114432000D02*
G75*
G03X139511981Y-114432000I-283981J0D01*
G01*
X138720000Y-111384000D02*
X139482000Y-111384000D01*
X139482000Y-111384000D02*
X139482000Y-113416000D01*
X139482000Y-113416000D02*
X138720000Y-113416000D01*
X138720000Y-109860000D02*
X148880000Y-109860000D01*
X148880000Y-109860000D02*
X148880000Y-114940000D01*
X148880000Y-114940000D02*
X138720000Y-114940000D01*
X138720000Y-114940000D02*
X138720000Y-109860000D01*
D16*
X142003553Y-97050000D02*
G75*
G03X142003553Y-97050000I-353553J0D01*
G01*
D15*
X142325000Y-97225000D02*
X142325000Y-97275000D01*
X146475000Y-97225000D02*
X146475000Y-97370000D01*
X146475000Y-102375000D02*
X146475000Y-102230000D01*
X142325000Y-102375000D02*
X142325000Y-102230000D01*
X142325000Y-97225000D02*
X146475000Y-97225000D01*
X142325000Y-102375000D02*
X146475000Y-102375000D01*
X141693000Y-122935000D02*
X140343000Y-122935000D01*
X141693000Y-126085000D02*
X146343000Y-126085000D01*
X141693000Y-122835000D02*
X146343000Y-122835000D01*
X141693000Y-126085000D02*
X141693000Y-125885000D01*
X146343000Y-126085000D02*
X146343000Y-125885000D01*
X146343000Y-122835000D02*
X146343000Y-123035000D01*
X141693000Y-122835000D02*
X141693000Y-122935000D01*
X142275000Y-110900000D02*
X141350000Y-110900000D01*
X142275000Y-114025000D02*
X145525000Y-114025000D01*
X142275000Y-110775000D02*
X145525000Y-110775000D01*
X142275000Y-114025000D02*
X142275000Y-113810000D01*
X145525000Y-114025000D02*
X145525000Y-113810000D01*
X145525000Y-110775000D02*
X145525000Y-110990000D01*
X142275000Y-110775000D02*
X142275000Y-110900000D01*
D14*
X152022000Y-104484000D02*
G75*
G03X152022000Y-104484000I-254000J0D01*
G01*
D20*
X158702000Y-111350000D02*
X152702000Y-111350000D01*
X152702000Y-104550000D02*
X158702000Y-104550000D01*
X155938000Y-104550000D02*
X155938000Y-111350000D01*
X156446000Y-126394000D02*
X156446000Y-133194000D01*
X153210000Y-126394000D02*
X159210000Y-126394000D01*
X159210000Y-133194000D02*
X153210000Y-133194000D01*
D14*
X152530000Y-126328000D02*
G75*
G03X152530000Y-126328000I-254000J0D01*
G01*
D20*
X172956000Y-122428000D02*
X172956000Y-137668000D01*
X168420000Y-122428000D02*
X177020000Y-122428000D01*
X177020000Y-137668000D02*
X168420000Y-137668000D01*
D14*
X167640000Y-122682000D02*
G75*
G03X167640000Y-122682000I-254000J0D01*
G01*
X167640000Y-132588000D02*
X166624000Y-132588000D01*
X167640000Y-127508000D02*
X167640000Y-132588000D01*
X166624000Y-127508000D02*
X167640000Y-127508000D01*
X166370000Y-106680000D02*
X167386000Y-106680000D01*
X167386000Y-106680000D02*
X167386000Y-111760000D01*
X167386000Y-111760000D02*
X166370000Y-111760000D01*
X167386000Y-101854000D02*
G75*
G03X167386000Y-101854000I-254000J0D01*
G01*
D20*
X176766000Y-116840000D02*
X168166000Y-116840000D01*
X168166000Y-101600000D02*
X176766000Y-101600000D01*
X172702000Y-101600000D02*
X172702000Y-116840000D01*
D14*
X185420000Y-127254000D02*
X186436000Y-127254000D01*
X186436000Y-127254000D02*
X186436000Y-132334000D01*
X186436000Y-132334000D02*
X185420000Y-132334000D01*
X186436000Y-123688000D02*
G75*
G03X186436000Y-123688000I-254000J0D01*
G01*
D20*
X195816000Y-134874000D02*
X187216000Y-134874000D01*
X187216000Y-124714000D02*
X195816000Y-124714000D01*
X191752000Y-124714000D02*
X191752000Y-134874000D01*
D16*
X152306000Y-100798000D02*
X152606000Y-100798000D01*
X152456000Y-100588000D02*
X152456000Y-100988000D01*
D19*
X154156000Y-100705560D02*
X152956000Y-100705560D01*
X152904160Y-100698000D02*
X152904160Y-98598000D01*
X152956000Y-98595040D02*
X154156000Y-98595040D01*
X155756000Y-98589960D02*
X156956000Y-98589960D01*
X157002760Y-98598000D02*
X157002760Y-100698000D01*
X156956000Y-100705880D02*
X155756000Y-100705880D01*
X198253880Y-117338000D02*
X198253880Y-118538000D01*
X196146000Y-117291240D02*
X198246000Y-117291240D01*
X196137960Y-118538000D02*
X196137960Y-117338000D01*
X196143040Y-121338000D02*
X196143040Y-120138000D01*
X198246000Y-121389840D02*
X196146000Y-121389840D01*
X198253560Y-120138000D02*
X198253560Y-121338000D01*
D16*
X198136000Y-121838000D02*
X198536000Y-121838000D01*
X198346000Y-121988000D02*
X198346000Y-121688000D01*
D21*
X155466000Y-97908000D02*
X155466000Y-96768000D01*
X152926000Y-97908000D02*
X152926000Y-96768000D01*
X155446000Y-97908000D02*
X152946000Y-97908000D01*
X152946000Y-96768000D02*
X155446000Y-96768000D01*
X197766000Y-112839840D02*
X197766000Y-115339840D01*
X196626000Y-115339840D02*
X196626000Y-112839840D01*
X196626000Y-112819840D02*
X197766000Y-112819840D01*
X196626000Y-115359840D02*
X197766000Y-115359840D01*
D22*
X155250000Y-73296000D02*
X155250000Y-71796000D01*
X155250000Y-73296000D02*
X155250000Y-74796000D01*
X152030000Y-73296000D02*
X152030000Y-71796000D01*
X152030000Y-73296000D02*
X152030000Y-76221000D01*
D10*
X166720000Y-67606000D02*
X166720000Y-72606000D01*
X166720000Y-67586000D02*
X169260000Y-67586000D01*
X169275240Y-67606000D02*
X169275240Y-72606000D01*
X169275240Y-72641240D02*
X166714920Y-72641240D01*
D21*
X166260000Y-79476000D02*
X165120000Y-79476000D01*
X166260000Y-76956000D02*
X166260000Y-79456000D01*
X165120000Y-76936000D02*
X166260000Y-76936000D01*
X165120000Y-79456000D02*
X165120000Y-76956000D01*
X180024000Y-79979840D02*
X180024000Y-77479840D01*
X180024000Y-77459840D02*
X181164000Y-77459840D01*
X181164000Y-77479840D02*
X181164000Y-79979840D01*
X181164000Y-79999840D02*
X180024000Y-79999840D01*
X155050000Y-68116000D02*
X155050000Y-69256000D01*
X152530000Y-68116000D02*
X155030000Y-68116000D01*
X152510000Y-69256000D02*
X152510000Y-68116000D01*
X155030000Y-69256000D02*
X152530000Y-69256000D01*
X161250000Y-60804160D02*
X161250000Y-63304160D01*
X161250000Y-63324160D02*
X160110000Y-63324160D01*
X160110000Y-63304160D02*
X160110000Y-60804160D01*
X160110000Y-60784160D02*
X161250000Y-60784160D01*
X161120000Y-67156000D02*
X159980000Y-67156000D01*
X161120000Y-64636000D02*
X161120000Y-67136000D01*
X159980000Y-64616000D02*
X161120000Y-64616000D01*
X159980000Y-67136000D02*
X159980000Y-64636000D01*
X156120000Y-70544160D02*
X156120000Y-68044160D01*
X157260000Y-68044160D02*
X157260000Y-70544160D01*
X157260000Y-70564160D02*
X156120000Y-70564160D01*
X157260000Y-68024160D02*
X156120000Y-68024160D01*
X149810000Y-68084160D02*
X148670000Y-68084160D01*
X149810000Y-70624160D02*
X148670000Y-70624160D01*
X149810000Y-68104160D02*
X149810000Y-70604160D01*
X148670000Y-70604160D02*
X148670000Y-68104160D01*
D10*
X159470000Y-67796000D02*
X159470000Y-75416000D01*
X159470000Y-67796000D02*
X162010000Y-67796000D01*
X162025240Y-67796000D02*
X162025240Y-75416000D01*
X162025240Y-75416000D02*
X159464920Y-75416000D01*
D15*
X154390000Y-60906000D02*
X154390000Y-60081000D01*
X152565000Y-60906000D02*
X154390000Y-60906000D01*
X152565000Y-60106000D02*
X152565000Y-60906000D01*
X148890000Y-60131000D02*
X148890000Y-60931000D01*
X148890000Y-60931000D02*
X150715000Y-60931000D01*
X150715000Y-60931000D02*
X150715000Y-60106000D01*
D23*
X148239880Y-59906000D02*
X148239880Y-66806000D01*
X148239880Y-66806000D02*
X155240120Y-66806000D01*
X155240120Y-66806000D02*
X155240120Y-59906000D01*
X155240120Y-59906000D02*
X148239880Y-59906000D01*
D21*
X169850000Y-90956000D02*
X170990000Y-90956000D01*
X169850000Y-88416000D02*
X170990000Y-88416000D01*
X169850000Y-90936000D02*
X169850000Y-88436000D01*
X170990000Y-88436000D02*
X170990000Y-90936000D01*
X165970000Y-89286000D02*
X165970000Y-90426000D01*
X168510000Y-89286000D02*
X168510000Y-90426000D01*
X165990000Y-89286000D02*
X168490000Y-89286000D01*
X168490000Y-90426000D02*
X165990000Y-90426000D01*
X171170000Y-78876000D02*
X172310000Y-78876000D01*
X171170000Y-76336000D02*
X172310000Y-76336000D01*
X171170000Y-78856000D02*
X171170000Y-76356000D01*
X172310000Y-76356000D02*
X172310000Y-78856000D01*
X169915000Y-79151000D02*
X167415000Y-79151000D01*
X167415000Y-78011000D02*
X169915000Y-78011000D01*
X169935000Y-78011000D02*
X169935000Y-79151000D01*
X167395000Y-78011000D02*
X167395000Y-79151000D01*
X171988160Y-71786000D02*
X174488160Y-71786000D01*
X174488160Y-72926000D02*
X171988160Y-72926000D01*
X171968160Y-72926000D02*
X171968160Y-71786000D01*
X174508160Y-72926000D02*
X174508160Y-71786000D01*
X178246000Y-78212000D02*
X178246000Y-75712000D01*
X179386000Y-75712000D02*
X179386000Y-78212000D01*
X179386000Y-78232000D02*
X178246000Y-78232000D01*
X179386000Y-75692000D02*
X178246000Y-75692000D01*
D16*
X166343553Y-86606000D02*
G75*
G03X166343553Y-86606000I-353553J0D01*
G01*
D15*
X166165000Y-85931000D02*
X166215000Y-85931000D01*
X166165000Y-81781000D02*
X166310000Y-81781000D01*
X171315000Y-81781000D02*
X171170000Y-81781000D01*
X171315000Y-85931000D02*
X171170000Y-85931000D01*
X166165000Y-85931000D02*
X166165000Y-81781000D01*
X171315000Y-85931000D02*
X171315000Y-81781000D01*
D10*
X162920000Y-65946000D02*
X162920000Y-73566000D01*
X162920000Y-65946000D02*
X165460000Y-65946000D01*
X165475240Y-65946000D02*
X165475240Y-73566000D01*
X165475240Y-73566000D02*
X162914920Y-73566000D01*
D21*
X185866000Y-91420000D02*
X185866000Y-88920000D01*
X185866000Y-88900000D02*
X187006000Y-88900000D01*
X187006000Y-88920000D02*
X187006000Y-91420000D01*
X187006000Y-91440000D02*
X185866000Y-91440000D01*
X189422000Y-89651840D02*
X190562000Y-89651840D01*
X189422000Y-92171840D02*
X189422000Y-89671840D01*
X190562000Y-92191840D02*
X189422000Y-92191840D01*
X190562000Y-89671840D02*
X190562000Y-92171840D01*
X191454000Y-75926000D02*
X191454000Y-73426000D01*
X191454000Y-73406000D02*
X192594000Y-73406000D01*
X192594000Y-73426000D02*
X192594000Y-75926000D01*
X192594000Y-75946000D02*
X191454000Y-75946000D01*
X190308000Y-75946000D02*
X189168000Y-75946000D01*
X190308000Y-73426000D02*
X190308000Y-75926000D01*
X189168000Y-73406000D02*
X190308000Y-73406000D01*
X189168000Y-75926000D02*
X189168000Y-73426000D01*
X199060000Y-92226000D02*
X197920000Y-92226000D01*
X199060000Y-89706000D02*
X199060000Y-92206000D01*
X197920000Y-89686000D02*
X199060000Y-89686000D01*
X197920000Y-92206000D02*
X197920000Y-89706000D01*
X197140000Y-89326000D02*
X194640000Y-89326000D01*
X194620000Y-89326000D02*
X194620000Y-88186000D01*
X194640000Y-88186000D02*
X197140000Y-88186000D01*
X197160000Y-88186000D02*
X197160000Y-89326000D01*
D15*
X198862000Y-83892000D02*
X198862000Y-84442000D01*
X198672000Y-84162000D02*
X199072000Y-84162000D01*
D24*
X197711060Y-82141060D02*
X197711060Y-81942940D01*
X197711060Y-81942940D02*
X197512940Y-81942940D01*
X197512940Y-82141060D02*
X197512940Y-81942940D01*
X197711060Y-82141060D02*
X197512940Y-82141060D01*
X198310500Y-81142840D02*
X197114160Y-81142840D01*
X197063360Y-81142840D02*
X196913500Y-81142840D01*
X198310500Y-82941160D02*
X197114160Y-82941160D01*
X197063360Y-82941160D02*
X196913500Y-82941160D01*
D25*
X198361300Y-80492600D02*
X198361300Y-83591400D01*
X198361300Y-83591400D02*
X196862700Y-83591400D01*
X196862700Y-83591400D02*
X196862700Y-80492600D01*
X196862700Y-80492600D02*
X198361300Y-80492600D01*
X198111354Y-82589262D02*
G75*
G03X198109840Y-81493360I-499354J547262D01*
G01*
X197113602Y-82590133D02*
G75*
G03X198109840Y-82590640I498398J548133D01*
G01*
X197112646Y-81494738D02*
G75*
G03X197114160Y-82590640I499354J-547262D01*
G01*
X198110398Y-81493867D02*
G75*
G03X197114160Y-81493360I-498398J-548133D01*
G01*
D21*
X159002000Y-92690000D02*
X159002000Y-91140000D01*
X159002000Y-91140000D02*
X152402000Y-91140000D01*
X152402000Y-91140000D02*
X152402000Y-92665000D01*
D26*
X162204400Y-77490320D02*
X162204400Y-92689680D01*
X162204400Y-92689680D02*
X149199600Y-92689680D01*
X149199600Y-92689680D02*
X149199600Y-77490320D01*
X149199600Y-77490320D02*
X162204400Y-77490320D01*
D15*
X185890000Y-62056000D02*
X185890000Y-63056000D01*
X185890000Y-63056000D02*
X181490000Y-63056000D01*
X181490000Y-63056000D02*
X181490000Y-62056000D01*
D20*
X176070000Y-70356000D02*
X176070000Y-61756000D01*
X176070000Y-61756000D02*
X191310000Y-61756000D01*
X191310000Y-61756000D02*
X191310000Y-70356000D01*
X191310000Y-70356000D02*
X176070000Y-70356000D01*
D10*
X177800000Y-90170000D02*
X177800000Y-82550000D01*
X177800000Y-90170000D02*
X175260000Y-90170000D01*
X175244760Y-90170000D02*
X175244760Y-82550000D01*
X175244760Y-82550000D02*
X177805080Y-82550000D01*
D21*
X195960000Y-63726000D02*
X195960000Y-62586000D01*
X193420000Y-63726000D02*
X193420000Y-62586000D01*
X195940000Y-63726000D02*
X193440000Y-63726000D01*
X193440000Y-62586000D02*
X195940000Y-62586000D01*
X196360000Y-89786000D02*
X195220000Y-89786000D01*
X196360000Y-92326000D02*
X195220000Y-92326000D01*
X196360000Y-89806000D02*
X196360000Y-92306000D01*
X195220000Y-92306000D02*
X195220000Y-89806000D01*
X181121840Y-83061000D02*
X181121840Y-84201000D01*
X183661840Y-83061000D02*
X183661840Y-84201000D01*
X181141840Y-83061000D02*
X183641840Y-83061000D01*
X183641840Y-84201000D02*
X181141840Y-84201000D01*
X184090000Y-86151000D02*
X181590000Y-86151000D01*
X181590000Y-85011000D02*
X184090000Y-85011000D01*
X184110000Y-85011000D02*
X184110000Y-86151000D01*
X181570000Y-85011000D02*
X181570000Y-86151000D01*
X198060000Y-75606000D02*
X198060000Y-78106000D01*
X196920000Y-78106000D02*
X196920000Y-75606000D01*
X196920000Y-75586000D02*
X198060000Y-75586000D01*
X196920000Y-78126000D02*
X198060000Y-78126000D01*
D15*
X186113000Y-85921000D02*
X186338000Y-85921000D01*
X186113000Y-78671000D02*
X186438000Y-78671000D01*
X193363000Y-78671000D02*
X193038000Y-78671000D01*
X193363000Y-85921000D02*
X193038000Y-85921000D01*
X186113000Y-85921000D02*
X186113000Y-85596000D01*
X193363000Y-85921000D02*
X193363000Y-85596000D01*
X193363000Y-78671000D02*
X193363000Y-78996000D01*
X186113000Y-78671000D02*
X186113000Y-78996000D01*
X186338000Y-85921000D02*
X186338000Y-87346000D01*
X193528000Y-89078000D02*
X193528000Y-92278000D01*
X193528000Y-92278000D02*
X191028000Y-92278000D01*
X191028000Y-92278000D02*
X191028000Y-89078000D01*
X191028000Y-89078000D02*
X193528000Y-89078000D01*
D21*
X181672000Y-72410000D02*
X181672000Y-74910000D01*
X181672000Y-74930000D02*
X180532000Y-74930000D01*
X180532000Y-74910000D02*
X180532000Y-72410000D01*
X180532000Y-72390000D02*
X181672000Y-72390000D01*
D13*
X159940666Y-104100380D02*
X159940666Y-104814666D01*
X159893047Y-104957523D01*
X159797809Y-105052761D01*
X159654952Y-105100380D01*
X159559714Y-105100380D01*
X160940666Y-105100380D02*
X160369238Y-105100380D01*
X160654952Y-105100380D02*
X160654952Y-104100380D01*
X160559714Y-104243238D01*
X160464476Y-104338476D01*
X160369238Y-104386095D01*
X156265904Y-102814380D02*
X156265904Y-101814380D01*
X156742095Y-102814380D02*
X156742095Y-101814380D01*
X156980190Y-101814380D01*
X157123047Y-101862000D01*
X157218285Y-101957238D01*
X157265904Y-102052476D01*
X157313523Y-102242952D01*
X157313523Y-102385809D01*
X157265904Y-102576285D01*
X157218285Y-102671523D01*
X157123047Y-102766761D01*
X156980190Y-102814380D01*
X156742095Y-102814380D01*
X158313523Y-102719142D02*
X158265904Y-102766761D01*
X158123047Y-102814380D01*
X158027809Y-102814380D01*
X157884952Y-102766761D01*
X157789714Y-102671523D01*
X157742095Y-102576285D01*
X157694476Y-102385809D01*
X157694476Y-102242952D01*
X157742095Y-102052476D01*
X157789714Y-101957238D01*
X157884952Y-101862000D01*
X158027809Y-101814380D01*
X158123047Y-101814380D01*
X158265904Y-101862000D01*
X158313523Y-101909619D01*
X158504000Y-102909619D02*
X159265904Y-102909619D01*
X159980190Y-101814380D02*
X159504000Y-101814380D01*
X159456380Y-102290571D01*
X159504000Y-102242952D01*
X159599238Y-102195333D01*
X159837333Y-102195333D01*
X159932571Y-102242952D01*
X159980190Y-102290571D01*
X160027809Y-102385809D01*
X160027809Y-102623904D01*
X159980190Y-102719142D01*
X159932571Y-102766761D01*
X159837333Y-102814380D01*
X159599238Y-102814380D01*
X159504000Y-102766761D01*
X159456380Y-102719142D01*
X160361142Y-102814380D02*
X160884952Y-102147714D01*
X160361142Y-102147714D02*
X160884952Y-102814380D01*
X161218285Y-101909619D02*
X161265904Y-101862000D01*
X161361142Y-101814380D01*
X161599238Y-101814380D01*
X161694476Y-101862000D01*
X161742095Y-101909619D01*
X161789714Y-102004857D01*
X161789714Y-102100095D01*
X161742095Y-102242952D01*
X161170666Y-102814380D01*
X161789714Y-102814380D01*
X155862666Y-134790380D02*
X155862666Y-135504666D01*
X155815047Y-135647523D01*
X155719809Y-135742761D01*
X155576952Y-135790380D01*
X155481714Y-135790380D01*
X156291238Y-134885619D02*
X156338857Y-134838000D01*
X156434095Y-134790380D01*
X156672190Y-134790380D01*
X156767428Y-134838000D01*
X156815047Y-134885619D01*
X156862666Y-134980857D01*
X156862666Y-135076095D01*
X156815047Y-135218952D01*
X156243619Y-135790380D01*
X156862666Y-135790380D01*
X152963904Y-138120380D02*
X152963904Y-137120380D01*
X153440095Y-138120380D02*
X153440095Y-137120380D01*
X153678190Y-137120380D01*
X153821047Y-137168000D01*
X153916285Y-137263238D01*
X153963904Y-137358476D01*
X154011523Y-137548952D01*
X154011523Y-137691809D01*
X153963904Y-137882285D01*
X153916285Y-137977523D01*
X153821047Y-138072761D01*
X153678190Y-138120380D01*
X153440095Y-138120380D01*
X155011523Y-138025142D02*
X154963904Y-138072761D01*
X154821047Y-138120380D01*
X154725809Y-138120380D01*
X154582952Y-138072761D01*
X154487714Y-137977523D01*
X154440095Y-137882285D01*
X154392476Y-137691809D01*
X154392476Y-137548952D01*
X154440095Y-137358476D01*
X154487714Y-137263238D01*
X154582952Y-137168000D01*
X154725809Y-137120380D01*
X154821047Y-137120380D01*
X154963904Y-137168000D01*
X155011523Y-137215619D01*
X155202000Y-138215619D02*
X155963904Y-138215619D01*
X156678190Y-137120380D02*
X156202000Y-137120380D01*
X156154380Y-137596571D01*
X156202000Y-137548952D01*
X156297238Y-137501333D01*
X156535333Y-137501333D01*
X156630571Y-137548952D01*
X156678190Y-137596571D01*
X156725809Y-137691809D01*
X156725809Y-137929904D01*
X156678190Y-138025142D01*
X156630571Y-138072761D01*
X156535333Y-138120380D01*
X156297238Y-138120380D01*
X156202000Y-138072761D01*
X156154380Y-138025142D01*
X157059142Y-138120380D02*
X157582952Y-137453714D01*
X157059142Y-137453714D02*
X157582952Y-138120380D01*
X157916285Y-137215619D02*
X157963904Y-137168000D01*
X158059142Y-137120380D01*
X158297238Y-137120380D01*
X158392476Y-137168000D01*
X158440095Y-137215619D01*
X158487714Y-137310857D01*
X158487714Y-137406095D01*
X158440095Y-137548952D01*
X157868666Y-138120380D01*
X158487714Y-138120380D01*
D18*
X178688000Y-120503428D02*
X178688000Y-121592000D01*
X178615428Y-121809714D01*
X178470285Y-121954857D01*
X178252571Y-122027428D01*
X178107428Y-122027428D01*
X179268571Y-120503428D02*
X180212000Y-120503428D01*
X179704000Y-121084000D01*
X179921714Y-121084000D01*
X180066857Y-121156571D01*
X180139428Y-121229142D01*
X180212000Y-121374285D01*
X180212000Y-121737142D01*
X180139428Y-121882285D01*
X180066857Y-121954857D01*
X179921714Y-122027428D01*
X179486285Y-122027428D01*
X179341142Y-121954857D01*
X179268571Y-121882285D01*
X168023142Y-121027428D02*
X168023142Y-119503428D01*
X168748857Y-121027428D02*
X168748857Y-119503428D01*
X169111714Y-119503428D01*
X169329428Y-119576000D01*
X169474571Y-119721142D01*
X169547142Y-119866285D01*
X169619714Y-120156571D01*
X169619714Y-120374285D01*
X169547142Y-120664571D01*
X169474571Y-120809714D01*
X169329428Y-120954857D01*
X169111714Y-121027428D01*
X168748857Y-121027428D01*
X171143714Y-120882285D02*
X171071142Y-120954857D01*
X170853428Y-121027428D01*
X170708285Y-121027428D01*
X170490571Y-120954857D01*
X170345428Y-120809714D01*
X170272857Y-120664571D01*
X170200285Y-120374285D01*
X170200285Y-120156571D01*
X170272857Y-119866285D01*
X170345428Y-119721142D01*
X170490571Y-119576000D01*
X170708285Y-119503428D01*
X170853428Y-119503428D01*
X171071142Y-119576000D01*
X171143714Y-119648571D01*
X171434000Y-121172571D02*
X172595142Y-121172571D01*
X173683714Y-119503428D02*
X172958000Y-119503428D01*
X172885428Y-120229142D01*
X172958000Y-120156571D01*
X173103142Y-120084000D01*
X173466000Y-120084000D01*
X173611142Y-120156571D01*
X173683714Y-120229142D01*
X173756285Y-120374285D01*
X173756285Y-120737142D01*
X173683714Y-120882285D01*
X173611142Y-120954857D01*
X173466000Y-121027428D01*
X173103142Y-121027428D01*
X172958000Y-120954857D01*
X172885428Y-120882285D01*
X174264285Y-121027428D02*
X175062571Y-120011428D01*
X174264285Y-120011428D02*
X175062571Y-121027428D01*
X175570571Y-119648571D02*
X175643142Y-119576000D01*
X175788285Y-119503428D01*
X176151142Y-119503428D01*
X176296285Y-119576000D01*
X176368857Y-119648571D01*
X176441428Y-119793714D01*
X176441428Y-119938857D01*
X176368857Y-120156571D01*
X175498000Y-121027428D01*
X176441428Y-121027428D01*
X178688000Y-115503428D02*
X178688000Y-116592000D01*
X178615428Y-116809714D01*
X178470285Y-116954857D01*
X178252571Y-117027428D01*
X178107428Y-117027428D01*
X180066857Y-116011428D02*
X180066857Y-117027428D01*
X179704000Y-115430857D02*
X179341142Y-116519428D01*
X180284571Y-116519428D01*
X180267428Y-113392857D02*
X178743428Y-113392857D01*
X180267428Y-112667142D02*
X178743428Y-112667142D01*
X178743428Y-112304285D01*
X178816000Y-112086571D01*
X178961142Y-111941428D01*
X179106285Y-111868857D01*
X179396571Y-111796285D01*
X179614285Y-111796285D01*
X179904571Y-111868857D01*
X180049714Y-111941428D01*
X180194857Y-112086571D01*
X180267428Y-112304285D01*
X180267428Y-112667142D01*
X180122285Y-110272285D02*
X180194857Y-110344857D01*
X180267428Y-110562571D01*
X180267428Y-110707714D01*
X180194857Y-110925428D01*
X180049714Y-111070571D01*
X179904571Y-111143142D01*
X179614285Y-111215714D01*
X179396571Y-111215714D01*
X179106285Y-111143142D01*
X178961142Y-111070571D01*
X178816000Y-110925428D01*
X178743428Y-110707714D01*
X178743428Y-110562571D01*
X178816000Y-110344857D01*
X178888571Y-110272285D01*
X180412571Y-109982000D02*
X180412571Y-108820857D01*
X178743428Y-107732285D02*
X178743428Y-108458000D01*
X179469142Y-108530571D01*
X179396571Y-108458000D01*
X179324000Y-108312857D01*
X179324000Y-107950000D01*
X179396571Y-107804857D01*
X179469142Y-107732285D01*
X179614285Y-107659714D01*
X179977142Y-107659714D01*
X180122285Y-107732285D01*
X180194857Y-107804857D01*
X180267428Y-107950000D01*
X180267428Y-108312857D01*
X180194857Y-108458000D01*
X180122285Y-108530571D01*
X180267428Y-107151714D02*
X179251428Y-106353428D01*
X179251428Y-107151714D02*
X180267428Y-106353428D01*
X178888571Y-105845428D02*
X178816000Y-105772857D01*
X178743428Y-105627714D01*
X178743428Y-105264857D01*
X178816000Y-105119714D01*
X178888571Y-105047142D01*
X179033714Y-104974571D01*
X179178857Y-104974571D01*
X179396571Y-105047142D01*
X180267428Y-105918000D01*
X180267428Y-104974571D01*
D27*
X197235000Y-135790380D02*
X197235000Y-136504666D01*
X197199285Y-136647523D01*
X197127857Y-136742761D01*
X197020714Y-136790380D01*
X196949285Y-136790380D01*
X197949285Y-135790380D02*
X197592142Y-135790380D01*
X197556428Y-136266571D01*
X197592142Y-136218952D01*
X197663571Y-136171333D01*
X197842142Y-136171333D01*
X197913571Y-136218952D01*
X197949285Y-136266571D01*
X197985000Y-136361809D01*
X197985000Y-136599904D01*
X197949285Y-136695142D01*
X197913571Y-136742761D01*
X197842142Y-136790380D01*
X197663571Y-136790380D01*
X197592142Y-136742761D01*
X197556428Y-136695142D01*
D18*
X187023142Y-138027428D02*
X187023142Y-136503428D01*
X187748857Y-138027428D02*
X187748857Y-136503428D01*
X188111714Y-136503428D01*
X188329428Y-136576000D01*
X188474571Y-136721142D01*
X188547142Y-136866285D01*
X188619714Y-137156571D01*
X188619714Y-137374285D01*
X188547142Y-137664571D01*
X188474571Y-137809714D01*
X188329428Y-137954857D01*
X188111714Y-138027428D01*
X187748857Y-138027428D01*
X190143714Y-137882285D02*
X190071142Y-137954857D01*
X189853428Y-138027428D01*
X189708285Y-138027428D01*
X189490571Y-137954857D01*
X189345428Y-137809714D01*
X189272857Y-137664571D01*
X189200285Y-137374285D01*
X189200285Y-137156571D01*
X189272857Y-136866285D01*
X189345428Y-136721142D01*
X189490571Y-136576000D01*
X189708285Y-136503428D01*
X189853428Y-136503428D01*
X190071142Y-136576000D01*
X190143714Y-136648571D01*
X190434000Y-138172571D02*
X191595142Y-138172571D01*
X191812857Y-136503428D02*
X192756285Y-136503428D01*
X192248285Y-137084000D01*
X192466000Y-137084000D01*
X192611142Y-137156571D01*
X192683714Y-137229142D01*
X192756285Y-137374285D01*
X192756285Y-137737142D01*
X192683714Y-137882285D01*
X192611142Y-137954857D01*
X192466000Y-138027428D01*
X192030571Y-138027428D01*
X191885428Y-137954857D01*
X191812857Y-137882285D01*
X193264285Y-138027428D02*
X194062571Y-137011428D01*
X193264285Y-137011428D02*
X194062571Y-138027428D01*
X194570571Y-136648571D02*
X194643142Y-136576000D01*
X194788285Y-136503428D01*
X195151142Y-136503428D01*
X195296285Y-136576000D01*
X195368857Y-136648571D01*
X195441428Y-136793714D01*
X195441428Y-136938857D01*
X195368857Y-137156571D01*
X194498000Y-138027428D01*
X195441428Y-138027428D01*
D16*
X154365523Y-97709904D02*
X154365523Y-96909904D01*
X154556000Y-96909904D01*
X154670285Y-96948000D01*
X154746476Y-97024190D01*
X154784571Y-97100380D01*
X154822666Y-97252761D01*
X154822666Y-97367047D01*
X154784571Y-97519428D01*
X154746476Y-97595619D01*
X154670285Y-97671809D01*
X154556000Y-97709904D01*
X154365523Y-97709904D01*
X155584571Y-97709904D02*
X155127428Y-97709904D01*
X155356000Y-97709904D02*
X155356000Y-96909904D01*
X155279809Y-97024190D01*
X155203619Y-97100380D01*
X155127428Y-97138476D01*
X154441714Y-102209904D02*
X154060761Y-102209904D01*
X154060761Y-101409904D01*
X154708380Y-101790857D02*
X154975047Y-101790857D01*
X155089333Y-102209904D02*
X154708380Y-102209904D01*
X154708380Y-101409904D01*
X155089333Y-101409904D01*
X155432190Y-102209904D02*
X155432190Y-101409904D01*
X155622666Y-101409904D01*
X155736952Y-101448000D01*
X155813142Y-101524190D01*
X155851238Y-101600380D01*
X155889333Y-101752761D01*
X155889333Y-101867047D01*
X155851238Y-102019428D01*
X155813142Y-102095619D01*
X155736952Y-102171809D01*
X155622666Y-102209904D01*
X155432190Y-102209904D01*
X199557904Y-123928476D02*
X198757904Y-123928476D01*
X198757904Y-123738000D01*
X198796000Y-123623714D01*
X198872190Y-123547523D01*
X198948380Y-123509428D01*
X199100761Y-123471333D01*
X199215047Y-123471333D01*
X199367428Y-123509428D01*
X199443619Y-123547523D01*
X199519809Y-123623714D01*
X199557904Y-123738000D01*
X199557904Y-123928476D01*
X198834095Y-123166571D02*
X198796000Y-123128476D01*
X198757904Y-123052285D01*
X198757904Y-122861809D01*
X198796000Y-122785619D01*
X198834095Y-122747523D01*
X198910285Y-122709428D01*
X198986476Y-122709428D01*
X199100761Y-122747523D01*
X199557904Y-123204666D01*
X199557904Y-122709428D01*
X196681714Y-122699904D02*
X196300761Y-122699904D01*
X196300761Y-121899904D01*
X196948380Y-122280857D02*
X197215047Y-122280857D01*
X197329333Y-122699904D02*
X196948380Y-122699904D01*
X196948380Y-121899904D01*
X197329333Y-121899904D01*
X197672190Y-122699904D02*
X197672190Y-121899904D01*
X197862666Y-121899904D01*
X197976952Y-121938000D01*
X198053142Y-122014190D01*
X198091238Y-122090380D01*
X198129333Y-122242761D01*
X198129333Y-122357047D01*
X198091238Y-122509428D01*
X198053142Y-122585619D01*
X197976952Y-122661809D01*
X197862666Y-122699904D01*
X197672190Y-122699904D01*
D15*
X156886000Y-97379428D02*
X156686000Y-97093714D01*
X156543142Y-97379428D02*
X156543142Y-96779428D01*
X156771714Y-96779428D01*
X156828857Y-96808000D01*
X156857428Y-96836571D01*
X156886000Y-96893714D01*
X156886000Y-96979428D01*
X156857428Y-97036571D01*
X156828857Y-97065142D01*
X156771714Y-97093714D01*
X156543142Y-97093714D01*
X157457428Y-97379428D02*
X157114571Y-97379428D01*
X157286000Y-97379428D02*
X157286000Y-96779428D01*
X157228857Y-96865142D01*
X157171714Y-96922285D01*
X157114571Y-96950857D01*
X151217428Y-97099428D02*
X150931714Y-97099428D01*
X150903142Y-97385142D01*
X150931714Y-97356571D01*
X150988857Y-97328000D01*
X151131714Y-97328000D01*
X151188857Y-97356571D01*
X151217428Y-97385142D01*
X151246000Y-97442285D01*
X151246000Y-97585142D01*
X151217428Y-97642285D01*
X151188857Y-97670857D01*
X151131714Y-97699428D01*
X150988857Y-97699428D01*
X150931714Y-97670857D01*
X150903142Y-97642285D01*
X151760285Y-97099428D02*
X151646000Y-97099428D01*
X151588857Y-97128000D01*
X151560285Y-97156571D01*
X151503142Y-97242285D01*
X151474571Y-97356571D01*
X151474571Y-97585142D01*
X151503142Y-97642285D01*
X151531714Y-97670857D01*
X151588857Y-97699428D01*
X151703142Y-97699428D01*
X151760285Y-97670857D01*
X151788857Y-97642285D01*
X151817428Y-97585142D01*
X151817428Y-97442285D01*
X151788857Y-97385142D01*
X151760285Y-97356571D01*
X151703142Y-97328000D01*
X151588857Y-97328000D01*
X151531714Y-97356571D01*
X151503142Y-97385142D01*
X151474571Y-97442285D01*
X152388857Y-97699428D02*
X152046000Y-97699428D01*
X152217428Y-97699428D02*
X152217428Y-97099428D01*
X152160285Y-97185142D01*
X152103142Y-97242285D01*
X152046000Y-97270857D01*
X197467428Y-111438000D02*
X197181714Y-111638000D01*
X197467428Y-111780857D02*
X196867428Y-111780857D01*
X196867428Y-111552285D01*
X196896000Y-111495142D01*
X196924571Y-111466571D01*
X196981714Y-111438000D01*
X197067428Y-111438000D01*
X197124571Y-111466571D01*
X197153142Y-111495142D01*
X197181714Y-111552285D01*
X197181714Y-111780857D01*
X196924571Y-111209428D02*
X196896000Y-111180857D01*
X196867428Y-111123714D01*
X196867428Y-110980857D01*
X196896000Y-110923714D01*
X196924571Y-110895142D01*
X196981714Y-110866571D01*
X197038857Y-110866571D01*
X197124571Y-110895142D01*
X197467428Y-111238000D01*
X197467428Y-110866571D01*
X198167428Y-114418411D02*
X198167428Y-114704125D01*
X198453142Y-114732697D01*
X198424571Y-114704125D01*
X198396000Y-114646982D01*
X198396000Y-114504125D01*
X198424571Y-114446982D01*
X198453142Y-114418411D01*
X198510285Y-114389840D01*
X198653142Y-114389840D01*
X198710285Y-114418411D01*
X198738857Y-114446982D01*
X198767428Y-114504125D01*
X198767428Y-114646982D01*
X198738857Y-114704125D01*
X198710285Y-114732697D01*
X198167428Y-113875554D02*
X198167428Y-113989840D01*
X198196000Y-114046982D01*
X198224571Y-114075554D01*
X198310285Y-114132697D01*
X198424571Y-114161268D01*
X198653142Y-114161268D01*
X198710285Y-114132697D01*
X198738857Y-114104125D01*
X198767428Y-114046982D01*
X198767428Y-113932697D01*
X198738857Y-113875554D01*
X198710285Y-113846982D01*
X198653142Y-113818411D01*
X198510285Y-113818411D01*
X198453142Y-113846982D01*
X198424571Y-113875554D01*
X198396000Y-113932697D01*
X198396000Y-114046982D01*
X198424571Y-114104125D01*
X198453142Y-114132697D01*
X198510285Y-114161268D01*
X198767428Y-113246982D02*
X198767428Y-113589840D01*
X198767428Y-113418411D02*
X198167428Y-113418411D01*
X198253142Y-113475554D01*
X198310285Y-113532697D01*
X198338857Y-113589840D01*
X150642380Y-74057904D02*
X151451904Y-74057904D01*
X151547142Y-74010285D01*
X151594761Y-73962666D01*
X151642380Y-73867428D01*
X151642380Y-73676952D01*
X151594761Y-73581714D01*
X151547142Y-73534095D01*
X151451904Y-73486476D01*
X150642380Y-73486476D01*
X150642380Y-73105523D02*
X150642380Y-72486476D01*
X151023333Y-72819809D01*
X151023333Y-72676952D01*
X151070952Y-72581714D01*
X151118571Y-72534095D01*
X151213809Y-72486476D01*
X151451904Y-72486476D01*
X151547142Y-72534095D01*
X151594761Y-72581714D01*
X151642380Y-72676952D01*
X151642380Y-72962666D01*
X151594761Y-73057904D01*
X151547142Y-73105523D01*
D28*
X163975714Y-70486571D02*
X164592571Y-70486571D01*
X164665142Y-70450285D01*
X164701428Y-70414000D01*
X164737714Y-70341428D01*
X164737714Y-70196285D01*
X164701428Y-70123714D01*
X164665142Y-70087428D01*
X164592571Y-70051142D01*
X163975714Y-70051142D01*
X164048285Y-69724571D02*
X164012000Y-69688285D01*
X163975714Y-69615714D01*
X163975714Y-69434285D01*
X164012000Y-69361714D01*
X164048285Y-69325428D01*
X164120857Y-69289142D01*
X164193428Y-69289142D01*
X164302285Y-69325428D01*
X164737714Y-69760857D01*
X164737714Y-69289142D01*
X170884714Y-70772428D02*
X170122714Y-70772428D01*
X170667000Y-70518428D01*
X170122714Y-70264428D01*
X170884714Y-70264428D01*
X170884714Y-69901571D02*
X170122714Y-69901571D01*
X170812142Y-69103285D02*
X170848428Y-69139571D01*
X170884714Y-69248428D01*
X170884714Y-69321000D01*
X170848428Y-69429857D01*
X170775857Y-69502428D01*
X170703285Y-69538714D01*
X170558142Y-69575000D01*
X170449285Y-69575000D01*
X170304142Y-69538714D01*
X170231571Y-69502428D01*
X170159000Y-69429857D01*
X170122714Y-69321000D01*
X170122714Y-69248428D01*
X170159000Y-69139571D01*
X170195285Y-69103285D01*
D15*
X164704285Y-78306000D02*
X164732857Y-78334571D01*
X164761428Y-78420285D01*
X164761428Y-78477428D01*
X164732857Y-78563142D01*
X164675714Y-78620285D01*
X164618571Y-78648857D01*
X164504285Y-78677428D01*
X164418571Y-78677428D01*
X164304285Y-78648857D01*
X164247142Y-78620285D01*
X164190000Y-78563142D01*
X164161428Y-78477428D01*
X164161428Y-78420285D01*
X164190000Y-78334571D01*
X164218571Y-78306000D01*
X164761428Y-77734571D02*
X164761428Y-78077428D01*
X164761428Y-77906000D02*
X164161428Y-77906000D01*
X164247142Y-77963142D01*
X164304285Y-78020285D01*
X164332857Y-78077428D01*
X167092285Y-77522285D02*
X167120857Y-77493714D01*
X167149428Y-77522285D01*
X167120857Y-77550857D01*
X167092285Y-77522285D01*
X167149428Y-77522285D01*
X167149428Y-76922285D02*
X167149428Y-77265142D01*
X167149428Y-77093714D02*
X166549428Y-77093714D01*
X166635142Y-77150857D01*
X166692285Y-77208000D01*
X166720857Y-77265142D01*
X166749428Y-76408000D02*
X167149428Y-76408000D01*
X166749428Y-76665142D02*
X167063714Y-76665142D01*
X167120857Y-76636571D01*
X167149428Y-76579428D01*
X167149428Y-76493714D01*
X167120857Y-76436571D01*
X167092285Y-76408000D01*
X166835142Y-75922285D02*
X166835142Y-76122285D01*
X167149428Y-76122285D02*
X166549428Y-76122285D01*
X166549428Y-75836571D01*
X179608285Y-78829840D02*
X179636857Y-78858411D01*
X179665428Y-78944125D01*
X179665428Y-79001268D01*
X179636857Y-79086982D01*
X179579714Y-79144125D01*
X179522571Y-79172697D01*
X179408285Y-79201268D01*
X179322571Y-79201268D01*
X179208285Y-79172697D01*
X179151142Y-79144125D01*
X179094000Y-79086982D01*
X179065428Y-79001268D01*
X179065428Y-78944125D01*
X179094000Y-78858411D01*
X179122571Y-78829840D01*
X179122571Y-78601268D02*
X179094000Y-78572697D01*
X179065428Y-78515554D01*
X179065428Y-78372697D01*
X179094000Y-78315554D01*
X179122571Y-78286982D01*
X179179714Y-78258411D01*
X179236857Y-78258411D01*
X179322571Y-78286982D01*
X179665428Y-78629840D01*
X179665428Y-78258411D01*
X181115428Y-76836982D02*
X181115428Y-77179840D01*
X181115428Y-77008411D02*
X180515428Y-77008411D01*
X180601142Y-77065554D01*
X180658285Y-77122697D01*
X180686857Y-77179840D01*
X180715428Y-76322697D02*
X181115428Y-76322697D01*
X180715428Y-76579840D02*
X181029714Y-76579840D01*
X181086857Y-76551268D01*
X181115428Y-76494125D01*
X181115428Y-76408411D01*
X181086857Y-76351268D01*
X181058285Y-76322697D01*
X180801142Y-75836982D02*
X180801142Y-76036982D01*
X181115428Y-76036982D02*
X180515428Y-76036982D01*
X180515428Y-75751268D01*
X151990000Y-67470285D02*
X151961428Y-67498857D01*
X151875714Y-67527428D01*
X151818571Y-67527428D01*
X151732857Y-67498857D01*
X151675714Y-67441714D01*
X151647142Y-67384571D01*
X151618571Y-67270285D01*
X151618571Y-67184571D01*
X151647142Y-67070285D01*
X151675714Y-67013142D01*
X151732857Y-66956000D01*
X151818571Y-66927428D01*
X151875714Y-66927428D01*
X151961428Y-66956000D01*
X151990000Y-66984571D01*
X152504285Y-67127428D02*
X152504285Y-67527428D01*
X152361428Y-66898857D02*
X152218571Y-67327428D01*
X152590000Y-67327428D01*
X153422857Y-67657428D02*
X153080000Y-67657428D01*
X153251428Y-67657428D02*
X153251428Y-67057428D01*
X153194285Y-67143142D01*
X153137142Y-67200285D01*
X153080000Y-67228857D01*
X153937142Y-67257428D02*
X153937142Y-67657428D01*
X153680000Y-67257428D02*
X153680000Y-67571714D01*
X153708571Y-67628857D01*
X153765714Y-67657428D01*
X153851428Y-67657428D01*
X153908571Y-67628857D01*
X153937142Y-67600285D01*
X154422857Y-67343142D02*
X154222857Y-67343142D01*
X154222857Y-67657428D02*
X154222857Y-67057428D01*
X154508571Y-67057428D01*
X162094285Y-62154160D02*
X162122857Y-62182731D01*
X162151428Y-62268445D01*
X162151428Y-62325588D01*
X162122857Y-62411302D01*
X162065714Y-62468445D01*
X162008571Y-62497017D01*
X161894285Y-62525588D01*
X161808571Y-62525588D01*
X161694285Y-62497017D01*
X161637142Y-62468445D01*
X161580000Y-62411302D01*
X161551428Y-62325588D01*
X161551428Y-62268445D01*
X161580000Y-62182731D01*
X161608571Y-62154160D01*
X161551428Y-61611302D02*
X161551428Y-61897017D01*
X161837142Y-61925588D01*
X161808571Y-61897017D01*
X161780000Y-61839874D01*
X161780000Y-61697017D01*
X161808571Y-61639874D01*
X161837142Y-61611302D01*
X161894285Y-61582731D01*
X162037142Y-61582731D01*
X162094285Y-61611302D01*
X162122857Y-61639874D01*
X162151428Y-61697017D01*
X162151428Y-61839874D01*
X162122857Y-61897017D01*
X162094285Y-61925588D01*
X162718571Y-64427428D02*
X162690000Y-64398857D01*
X162661428Y-64341714D01*
X162661428Y-64198857D01*
X162690000Y-64141714D01*
X162718571Y-64113142D01*
X162775714Y-64084571D01*
X162832857Y-64084571D01*
X162918571Y-64113142D01*
X163261428Y-64456000D01*
X163261428Y-64084571D01*
X162718571Y-63856000D02*
X162690000Y-63827428D01*
X162661428Y-63770285D01*
X162661428Y-63627428D01*
X162690000Y-63570285D01*
X162718571Y-63541714D01*
X162775714Y-63513142D01*
X162832857Y-63513142D01*
X162918571Y-63541714D01*
X163261428Y-63884571D01*
X163261428Y-63513142D01*
X162661428Y-63141714D02*
X162661428Y-63084571D01*
X162690000Y-63027428D01*
X162718571Y-62998857D01*
X162775714Y-62970285D01*
X162890000Y-62941714D01*
X163032857Y-62941714D01*
X163147142Y-62970285D01*
X163204285Y-62998857D01*
X163232857Y-63027428D01*
X163261428Y-63084571D01*
X163261428Y-63141714D01*
X163232857Y-63198857D01*
X163204285Y-63227428D01*
X163147142Y-63256000D01*
X163032857Y-63284571D01*
X162890000Y-63284571D01*
X162775714Y-63256000D01*
X162718571Y-63227428D01*
X162690000Y-63198857D01*
X162661428Y-63141714D01*
X162861428Y-62684571D02*
X163461428Y-62684571D01*
X162890000Y-62684571D02*
X162861428Y-62627428D01*
X162861428Y-62513142D01*
X162890000Y-62456000D01*
X162918571Y-62427428D01*
X162975714Y-62398857D01*
X163147142Y-62398857D01*
X163204285Y-62427428D01*
X163232857Y-62456000D01*
X163261428Y-62513142D01*
X163261428Y-62627428D01*
X163232857Y-62684571D01*
X162947142Y-61941714D02*
X162947142Y-62141714D01*
X163261428Y-62141714D02*
X162661428Y-62141714D01*
X162661428Y-61856000D01*
X159564285Y-65986000D02*
X159592857Y-66014571D01*
X159621428Y-66100285D01*
X159621428Y-66157428D01*
X159592857Y-66243142D01*
X159535714Y-66300285D01*
X159478571Y-66328857D01*
X159364285Y-66357428D01*
X159278571Y-66357428D01*
X159164285Y-66328857D01*
X159107142Y-66300285D01*
X159050000Y-66243142D01*
X159021428Y-66157428D01*
X159021428Y-66100285D01*
X159050000Y-66014571D01*
X159078571Y-65986000D01*
X159021428Y-65471714D02*
X159021428Y-65586000D01*
X159050000Y-65643142D01*
X159078571Y-65671714D01*
X159164285Y-65728857D01*
X159278571Y-65757428D01*
X159507142Y-65757428D01*
X159564285Y-65728857D01*
X159592857Y-65700285D01*
X159621428Y-65643142D01*
X159621428Y-65528857D01*
X159592857Y-65471714D01*
X159564285Y-65443142D01*
X159507142Y-65414571D01*
X159364285Y-65414571D01*
X159307142Y-65443142D01*
X159278571Y-65471714D01*
X159250000Y-65528857D01*
X159250000Y-65643142D01*
X159278571Y-65700285D01*
X159307142Y-65728857D01*
X159364285Y-65757428D01*
X161578571Y-67157428D02*
X161550000Y-67128857D01*
X161521428Y-67071714D01*
X161521428Y-66928857D01*
X161550000Y-66871714D01*
X161578571Y-66843142D01*
X161635714Y-66814571D01*
X161692857Y-66814571D01*
X161778571Y-66843142D01*
X162121428Y-67186000D01*
X162121428Y-66814571D01*
X161578571Y-66586000D02*
X161550000Y-66557428D01*
X161521428Y-66500285D01*
X161521428Y-66357428D01*
X161550000Y-66300285D01*
X161578571Y-66271714D01*
X161635714Y-66243142D01*
X161692857Y-66243142D01*
X161778571Y-66271714D01*
X162121428Y-66614571D01*
X162121428Y-66243142D01*
X161521428Y-65871714D02*
X161521428Y-65814571D01*
X161550000Y-65757428D01*
X161578571Y-65728857D01*
X161635714Y-65700285D01*
X161750000Y-65671714D01*
X161892857Y-65671714D01*
X162007142Y-65700285D01*
X162064285Y-65728857D01*
X162092857Y-65757428D01*
X162121428Y-65814571D01*
X162121428Y-65871714D01*
X162092857Y-65928857D01*
X162064285Y-65957428D01*
X162007142Y-65986000D01*
X161892857Y-66014571D01*
X161750000Y-66014571D01*
X161635714Y-65986000D01*
X161578571Y-65957428D01*
X161550000Y-65928857D01*
X161521428Y-65871714D01*
X161721428Y-65414571D02*
X162321428Y-65414571D01*
X161750000Y-65414571D02*
X161721428Y-65357428D01*
X161721428Y-65243142D01*
X161750000Y-65186000D01*
X161778571Y-65157428D01*
X161835714Y-65128857D01*
X162007142Y-65128857D01*
X162064285Y-65157428D01*
X162092857Y-65186000D01*
X162121428Y-65243142D01*
X162121428Y-65357428D01*
X162092857Y-65414571D01*
X161807142Y-64671714D02*
X161807142Y-64871714D01*
X162121428Y-64871714D02*
X161521428Y-64871714D01*
X161521428Y-64586000D01*
X157847142Y-69794160D02*
X157847142Y-69994160D01*
X158161428Y-69994160D02*
X157561428Y-69994160D01*
X157561428Y-69708445D01*
X157847142Y-69279874D02*
X157875714Y-69194160D01*
X157904285Y-69165588D01*
X157961428Y-69137017D01*
X158047142Y-69137017D01*
X158104285Y-69165588D01*
X158132857Y-69194160D01*
X158161428Y-69251302D01*
X158161428Y-69479874D01*
X157561428Y-69479874D01*
X157561428Y-69279874D01*
X157590000Y-69222731D01*
X157618571Y-69194160D01*
X157675714Y-69165588D01*
X157732857Y-69165588D01*
X157790000Y-69194160D01*
X157818571Y-69222731D01*
X157847142Y-69279874D01*
X157847142Y-69479874D01*
X158161428Y-68565588D02*
X158161428Y-68908445D01*
X158161428Y-68737017D02*
X157561428Y-68737017D01*
X157647142Y-68794160D01*
X157704285Y-68851302D01*
X157732857Y-68908445D01*
X150397142Y-69854160D02*
X150397142Y-70054160D01*
X150711428Y-70054160D02*
X150111428Y-70054160D01*
X150111428Y-69768445D01*
X150397142Y-69339874D02*
X150425714Y-69254160D01*
X150454285Y-69225588D01*
X150511428Y-69197017D01*
X150597142Y-69197017D01*
X150654285Y-69225588D01*
X150682857Y-69254160D01*
X150711428Y-69311302D01*
X150711428Y-69539874D01*
X150111428Y-69539874D01*
X150111428Y-69339874D01*
X150140000Y-69282731D01*
X150168571Y-69254160D01*
X150225714Y-69225588D01*
X150282857Y-69225588D01*
X150340000Y-69254160D01*
X150368571Y-69282731D01*
X150397142Y-69339874D01*
X150397142Y-69539874D01*
X150168571Y-68968445D02*
X150140000Y-68939874D01*
X150111428Y-68882731D01*
X150111428Y-68739874D01*
X150140000Y-68682731D01*
X150168571Y-68654160D01*
X150225714Y-68625588D01*
X150282857Y-68625588D01*
X150368571Y-68654160D01*
X150711428Y-68997017D01*
X150711428Y-68625588D01*
D28*
X158122714Y-71660000D02*
X158667000Y-71660000D01*
X158775857Y-71696285D01*
X158848428Y-71768857D01*
X158884714Y-71877714D01*
X158884714Y-71950285D01*
X158122714Y-71369714D02*
X158122714Y-70898000D01*
X158413000Y-71152000D01*
X158413000Y-71043142D01*
X158449285Y-70970571D01*
X158485571Y-70934285D01*
X158558142Y-70898000D01*
X158739571Y-70898000D01*
X158812142Y-70934285D01*
X158848428Y-70970571D01*
X158884714Y-71043142D01*
X158884714Y-71260857D01*
X158848428Y-71333428D01*
X158812142Y-71369714D01*
D15*
X169491428Y-89786000D02*
X169205714Y-89986000D01*
X169491428Y-90128857D02*
X168891428Y-90128857D01*
X168891428Y-89900285D01*
X168920000Y-89843142D01*
X168948571Y-89814571D01*
X169005714Y-89786000D01*
X169091428Y-89786000D01*
X169148571Y-89814571D01*
X169177142Y-89843142D01*
X169205714Y-89900285D01*
X169205714Y-90128857D01*
X169491428Y-89214571D02*
X169491428Y-89557428D01*
X169491428Y-89386000D02*
X168891428Y-89386000D01*
X168977142Y-89443142D01*
X169034285Y-89500285D01*
X169062857Y-89557428D01*
X171991428Y-89986000D02*
X171991428Y-90328857D01*
X171991428Y-90157428D02*
X171391428Y-90157428D01*
X171477142Y-90214571D01*
X171534285Y-90271714D01*
X171562857Y-90328857D01*
X171391428Y-89614571D02*
X171391428Y-89557428D01*
X171420000Y-89500285D01*
X171448571Y-89471714D01*
X171505714Y-89443142D01*
X171620000Y-89414571D01*
X171762857Y-89414571D01*
X171877142Y-89443142D01*
X171934285Y-89471714D01*
X171962857Y-89500285D01*
X171991428Y-89557428D01*
X171991428Y-89614571D01*
X171962857Y-89671714D01*
X171934285Y-89700285D01*
X171877142Y-89728857D01*
X171762857Y-89757428D01*
X171620000Y-89757428D01*
X171505714Y-89728857D01*
X171448571Y-89700285D01*
X171420000Y-89671714D01*
X171391428Y-89614571D01*
X171391428Y-89043142D02*
X171391428Y-88986000D01*
X171420000Y-88928857D01*
X171448571Y-88900285D01*
X171505714Y-88871714D01*
X171620000Y-88843142D01*
X171762857Y-88843142D01*
X171877142Y-88871714D01*
X171934285Y-88900285D01*
X171962857Y-88928857D01*
X171991428Y-88986000D01*
X171991428Y-89043142D01*
X171962857Y-89100285D01*
X171934285Y-89128857D01*
X171877142Y-89157428D01*
X171762857Y-89186000D01*
X171620000Y-89186000D01*
X171505714Y-89157428D01*
X171448571Y-89128857D01*
X171420000Y-89100285D01*
X171391428Y-89043142D01*
X167140000Y-88927428D02*
X166940000Y-88641714D01*
X166797142Y-88927428D02*
X166797142Y-88327428D01*
X167025714Y-88327428D01*
X167082857Y-88356000D01*
X167111428Y-88384571D01*
X167140000Y-88441714D01*
X167140000Y-88527428D01*
X167111428Y-88584571D01*
X167082857Y-88613142D01*
X167025714Y-88641714D01*
X166797142Y-88641714D01*
X167368571Y-88384571D02*
X167397142Y-88356000D01*
X167454285Y-88327428D01*
X167597142Y-88327428D01*
X167654285Y-88356000D01*
X167682857Y-88384571D01*
X167711428Y-88441714D01*
X167711428Y-88498857D01*
X167682857Y-88584571D01*
X167340000Y-88927428D01*
X167711428Y-88927428D01*
X166697142Y-91427428D02*
X166354285Y-91427428D01*
X166525714Y-91427428D02*
X166525714Y-90827428D01*
X166468571Y-90913142D01*
X166411428Y-90970285D01*
X166354285Y-90998857D01*
X167068571Y-90827428D02*
X167125714Y-90827428D01*
X167182857Y-90856000D01*
X167211428Y-90884571D01*
X167240000Y-90941714D01*
X167268571Y-91056000D01*
X167268571Y-91198857D01*
X167240000Y-91313142D01*
X167211428Y-91370285D01*
X167182857Y-91398857D01*
X167125714Y-91427428D01*
X167068571Y-91427428D01*
X167011428Y-91398857D01*
X166982857Y-91370285D01*
X166954285Y-91313142D01*
X166925714Y-91198857D01*
X166925714Y-91056000D01*
X166954285Y-90941714D01*
X166982857Y-90884571D01*
X167011428Y-90856000D01*
X167068571Y-90827428D01*
X167640000Y-90827428D02*
X167697142Y-90827428D01*
X167754285Y-90856000D01*
X167782857Y-90884571D01*
X167811428Y-90941714D01*
X167840000Y-91056000D01*
X167840000Y-91198857D01*
X167811428Y-91313142D01*
X167782857Y-91370285D01*
X167754285Y-91398857D01*
X167697142Y-91427428D01*
X167640000Y-91427428D01*
X167582857Y-91398857D01*
X167554285Y-91370285D01*
X167525714Y-91313142D01*
X167497142Y-91198857D01*
X167497142Y-91056000D01*
X167525714Y-90941714D01*
X167554285Y-90884571D01*
X167582857Y-90856000D01*
X167640000Y-90827428D01*
X168097142Y-91427428D02*
X168097142Y-90827428D01*
X168154285Y-91198857D02*
X168325714Y-91427428D01*
X168325714Y-91027428D02*
X168097142Y-91256000D01*
X170811428Y-77706000D02*
X170525714Y-77906000D01*
X170811428Y-78048857D02*
X170211428Y-78048857D01*
X170211428Y-77820285D01*
X170240000Y-77763142D01*
X170268571Y-77734571D01*
X170325714Y-77706000D01*
X170411428Y-77706000D01*
X170468571Y-77734571D01*
X170497142Y-77763142D01*
X170525714Y-77820285D01*
X170525714Y-78048857D01*
X170211428Y-77506000D02*
X170211428Y-77134571D01*
X170440000Y-77334571D01*
X170440000Y-77248857D01*
X170468571Y-77191714D01*
X170497142Y-77163142D01*
X170554285Y-77134571D01*
X170697142Y-77134571D01*
X170754285Y-77163142D01*
X170782857Y-77191714D01*
X170811428Y-77248857D01*
X170811428Y-77420285D01*
X170782857Y-77477428D01*
X170754285Y-77506000D01*
X172361428Y-80313142D02*
X172361428Y-80656000D01*
X172361428Y-80484571D02*
X171761428Y-80484571D01*
X171847142Y-80541714D01*
X171904285Y-80598857D01*
X171932857Y-80656000D01*
X171761428Y-79941714D02*
X171761428Y-79884571D01*
X171790000Y-79827428D01*
X171818571Y-79798857D01*
X171875714Y-79770285D01*
X171990000Y-79741714D01*
X172132857Y-79741714D01*
X172247142Y-79770285D01*
X172304285Y-79798857D01*
X172332857Y-79827428D01*
X172361428Y-79884571D01*
X172361428Y-79941714D01*
X172332857Y-79998857D01*
X172304285Y-80027428D01*
X172247142Y-80056000D01*
X172132857Y-80084571D01*
X171990000Y-80084571D01*
X171875714Y-80056000D01*
X171818571Y-80027428D01*
X171790000Y-79998857D01*
X171761428Y-79941714D01*
X172361428Y-79484571D02*
X171761428Y-79484571D01*
X172132857Y-79427428D02*
X172361428Y-79256000D01*
X171961428Y-79256000D02*
X172190000Y-79484571D01*
X169318000Y-77487428D02*
X169118000Y-77201714D01*
X168975142Y-77487428D02*
X168975142Y-76887428D01*
X169203714Y-76887428D01*
X169260857Y-76916000D01*
X169289428Y-76944571D01*
X169318000Y-77001714D01*
X169318000Y-77087428D01*
X169289428Y-77144571D01*
X169260857Y-77173142D01*
X169203714Y-77201714D01*
X168975142Y-77201714D01*
X169832285Y-77087428D02*
X169832285Y-77487428D01*
X169689428Y-76858857D02*
X169546571Y-77287428D01*
X169918000Y-77287428D01*
X168013142Y-79773428D02*
X167670285Y-79773428D01*
X167841714Y-79773428D02*
X167841714Y-79173428D01*
X167784571Y-79259142D01*
X167727428Y-79316285D01*
X167670285Y-79344857D01*
X168384571Y-79173428D02*
X168441714Y-79173428D01*
X168498857Y-79202000D01*
X168527428Y-79230571D01*
X168556000Y-79287714D01*
X168584571Y-79402000D01*
X168584571Y-79544857D01*
X168556000Y-79659142D01*
X168527428Y-79716285D01*
X168498857Y-79744857D01*
X168441714Y-79773428D01*
X168384571Y-79773428D01*
X168327428Y-79744857D01*
X168298857Y-79716285D01*
X168270285Y-79659142D01*
X168241714Y-79544857D01*
X168241714Y-79402000D01*
X168270285Y-79287714D01*
X168298857Y-79230571D01*
X168327428Y-79202000D01*
X168384571Y-79173428D01*
X168956000Y-79173428D02*
X169013142Y-79173428D01*
X169070285Y-79202000D01*
X169098857Y-79230571D01*
X169127428Y-79287714D01*
X169156000Y-79402000D01*
X169156000Y-79544857D01*
X169127428Y-79659142D01*
X169098857Y-79716285D01*
X169070285Y-79744857D01*
X169013142Y-79773428D01*
X168956000Y-79773428D01*
X168898857Y-79744857D01*
X168870285Y-79716285D01*
X168841714Y-79659142D01*
X168813142Y-79544857D01*
X168813142Y-79402000D01*
X168841714Y-79287714D01*
X168870285Y-79230571D01*
X168898857Y-79202000D01*
X168956000Y-79173428D01*
X169413142Y-79773428D02*
X169413142Y-79173428D01*
X169470285Y-79544857D02*
X169641714Y-79773428D01*
X169641714Y-79373428D02*
X169413142Y-79602000D01*
X175590000Y-72327428D02*
X175390000Y-72041714D01*
X175247142Y-72327428D02*
X175247142Y-71727428D01*
X175475714Y-71727428D01*
X175532857Y-71756000D01*
X175561428Y-71784571D01*
X175590000Y-71841714D01*
X175590000Y-71927428D01*
X175561428Y-71984571D01*
X175532857Y-72013142D01*
X175475714Y-72041714D01*
X175247142Y-72041714D01*
X176132857Y-71727428D02*
X175847142Y-71727428D01*
X175818571Y-72013142D01*
X175847142Y-71984571D01*
X175904285Y-71956000D01*
X176047142Y-71956000D01*
X176104285Y-71984571D01*
X176132857Y-72013142D01*
X176161428Y-72070285D01*
X176161428Y-72213142D01*
X176132857Y-72270285D01*
X176104285Y-72298857D01*
X176047142Y-72327428D01*
X175904285Y-72327428D01*
X175847142Y-72298857D01*
X175818571Y-72270285D01*
X176361428Y-71527428D02*
X176018571Y-71527428D01*
X176190000Y-71527428D02*
X176190000Y-70927428D01*
X176132857Y-71013142D01*
X176075714Y-71070285D01*
X176018571Y-71098857D01*
X176618571Y-71527428D02*
X176618571Y-70927428D01*
X176961428Y-71527428D02*
X176704285Y-71184571D01*
X176961428Y-70927428D02*
X176618571Y-71270285D01*
X180287428Y-77062000D02*
X180001714Y-77262000D01*
X180287428Y-77404857D02*
X179687428Y-77404857D01*
X179687428Y-77176285D01*
X179716000Y-77119142D01*
X179744571Y-77090571D01*
X179801714Y-77062000D01*
X179887428Y-77062000D01*
X179944571Y-77090571D01*
X179973142Y-77119142D01*
X180001714Y-77176285D01*
X180001714Y-77404857D01*
X179687428Y-76547714D02*
X179687428Y-76662000D01*
X179716000Y-76719142D01*
X179744571Y-76747714D01*
X179830285Y-76804857D01*
X179944571Y-76833428D01*
X180173142Y-76833428D01*
X180230285Y-76804857D01*
X180258857Y-76776285D01*
X180287428Y-76719142D01*
X180287428Y-76604857D01*
X180258857Y-76547714D01*
X180230285Y-76519142D01*
X180173142Y-76490571D01*
X180030285Y-76490571D01*
X179973142Y-76519142D01*
X179944571Y-76547714D01*
X179916000Y-76604857D01*
X179916000Y-76719142D01*
X179944571Y-76776285D01*
X179973142Y-76804857D01*
X180030285Y-76833428D01*
X177787428Y-77462000D02*
X177787428Y-77804857D01*
X177787428Y-77633428D02*
X177187428Y-77633428D01*
X177273142Y-77690571D01*
X177330285Y-77747714D01*
X177358857Y-77804857D01*
X177187428Y-77090571D02*
X177187428Y-77033428D01*
X177216000Y-76976285D01*
X177244571Y-76947714D01*
X177301714Y-76919142D01*
X177416000Y-76890571D01*
X177558857Y-76890571D01*
X177673142Y-76919142D01*
X177730285Y-76947714D01*
X177758857Y-76976285D01*
X177787428Y-77033428D01*
X177787428Y-77090571D01*
X177758857Y-77147714D01*
X177730285Y-77176285D01*
X177673142Y-77204857D01*
X177558857Y-77233428D01*
X177416000Y-77233428D01*
X177301714Y-77204857D01*
X177244571Y-77176285D01*
X177216000Y-77147714D01*
X177187428Y-77090571D01*
X177187428Y-76519142D02*
X177187428Y-76462000D01*
X177216000Y-76404857D01*
X177244571Y-76376285D01*
X177301714Y-76347714D01*
X177416000Y-76319142D01*
X177558857Y-76319142D01*
X177673142Y-76347714D01*
X177730285Y-76376285D01*
X177758857Y-76404857D01*
X177787428Y-76462000D01*
X177787428Y-76519142D01*
X177758857Y-76576285D01*
X177730285Y-76604857D01*
X177673142Y-76633428D01*
X177558857Y-76662000D01*
X177416000Y-76662000D01*
X177301714Y-76633428D01*
X177244571Y-76604857D01*
X177216000Y-76576285D01*
X177187428Y-76519142D01*
X171892380Y-82417904D02*
X172701904Y-82417904D01*
X172797142Y-82370285D01*
X172844761Y-82322666D01*
X172892380Y-82227428D01*
X172892380Y-82036952D01*
X172844761Y-81941714D01*
X172797142Y-81894095D01*
X172701904Y-81846476D01*
X171892380Y-81846476D01*
X172892380Y-80846476D02*
X172892380Y-81417904D01*
X172892380Y-81132190D02*
X171892380Y-81132190D01*
X172035238Y-81227428D01*
X172130476Y-81322666D01*
X172178095Y-81417904D01*
D28*
X165872714Y-67010000D02*
X166417000Y-67010000D01*
X166525857Y-67046285D01*
X166598428Y-67118857D01*
X166634714Y-67227714D01*
X166634714Y-67300285D01*
X165872714Y-66719714D02*
X165872714Y-66211714D01*
X166634714Y-66538285D01*
D15*
X185450285Y-90270000D02*
X185478857Y-90298571D01*
X185507428Y-90384285D01*
X185507428Y-90441428D01*
X185478857Y-90527142D01*
X185421714Y-90584285D01*
X185364571Y-90612857D01*
X185250285Y-90641428D01*
X185164571Y-90641428D01*
X185050285Y-90612857D01*
X184993142Y-90584285D01*
X184936000Y-90527142D01*
X184907428Y-90441428D01*
X184907428Y-90384285D01*
X184936000Y-90298571D01*
X184964571Y-90270000D01*
X184907428Y-90070000D02*
X184907428Y-89670000D01*
X185507428Y-89927142D01*
X187407428Y-91155714D02*
X187407428Y-91098571D01*
X187436000Y-91041428D01*
X187464571Y-91012857D01*
X187521714Y-90984285D01*
X187636000Y-90955714D01*
X187778857Y-90955714D01*
X187893142Y-90984285D01*
X187950285Y-91012857D01*
X187978857Y-91041428D01*
X188007428Y-91098571D01*
X188007428Y-91155714D01*
X187978857Y-91212857D01*
X187950285Y-91241428D01*
X187893142Y-91270000D01*
X187778857Y-91298571D01*
X187636000Y-91298571D01*
X187521714Y-91270000D01*
X187464571Y-91241428D01*
X187436000Y-91212857D01*
X187407428Y-91155714D01*
X187950285Y-90698571D02*
X187978857Y-90670000D01*
X188007428Y-90698571D01*
X187978857Y-90727142D01*
X187950285Y-90698571D01*
X188007428Y-90698571D01*
X188007428Y-90098571D02*
X188007428Y-90441428D01*
X188007428Y-90270000D02*
X187407428Y-90270000D01*
X187493142Y-90327142D01*
X187550285Y-90384285D01*
X187578857Y-90441428D01*
X187607428Y-89584285D02*
X188007428Y-89584285D01*
X187607428Y-89841428D02*
X187921714Y-89841428D01*
X187978857Y-89812857D01*
X188007428Y-89755714D01*
X188007428Y-89670000D01*
X187978857Y-89612857D01*
X187950285Y-89584285D01*
X187693142Y-89098571D02*
X187693142Y-89298571D01*
X188007428Y-89298571D02*
X187407428Y-89298571D01*
X187407428Y-89012857D01*
X188004285Y-92256000D02*
X188032857Y-92284571D01*
X188061428Y-92370285D01*
X188061428Y-92427428D01*
X188032857Y-92513142D01*
X187975714Y-92570285D01*
X187918571Y-92598857D01*
X187804285Y-92627428D01*
X187718571Y-92627428D01*
X187604285Y-92598857D01*
X187547142Y-92570285D01*
X187490000Y-92513142D01*
X187461428Y-92427428D01*
X187461428Y-92370285D01*
X187490000Y-92284571D01*
X187518571Y-92256000D01*
X187718571Y-91913142D02*
X187690000Y-91970285D01*
X187661428Y-91998857D01*
X187604285Y-92027428D01*
X187575714Y-92027428D01*
X187518571Y-91998857D01*
X187490000Y-91970285D01*
X187461428Y-91913142D01*
X187461428Y-91798857D01*
X187490000Y-91741714D01*
X187518571Y-91713142D01*
X187575714Y-91684571D01*
X187604285Y-91684571D01*
X187661428Y-91713142D01*
X187690000Y-91741714D01*
X187718571Y-91798857D01*
X187718571Y-91913142D01*
X187747142Y-91970285D01*
X187775714Y-91998857D01*
X187832857Y-92027428D01*
X187947142Y-92027428D01*
X188004285Y-91998857D01*
X188032857Y-91970285D01*
X188061428Y-91913142D01*
X188061428Y-91798857D01*
X188032857Y-91741714D01*
X188004285Y-91713142D01*
X187947142Y-91684571D01*
X187832857Y-91684571D01*
X187775714Y-91713142D01*
X187747142Y-91741714D01*
X187718571Y-91798857D01*
X188363428Y-91907554D02*
X188363428Y-91850411D01*
X188392000Y-91793268D01*
X188420571Y-91764697D01*
X188477714Y-91736125D01*
X188592000Y-91707554D01*
X188734857Y-91707554D01*
X188849142Y-91736125D01*
X188906285Y-91764697D01*
X188934857Y-91793268D01*
X188963428Y-91850411D01*
X188963428Y-91907554D01*
X188934857Y-91964697D01*
X188906285Y-91993268D01*
X188849142Y-92021840D01*
X188734857Y-92050411D01*
X188592000Y-92050411D01*
X188477714Y-92021840D01*
X188420571Y-91993268D01*
X188392000Y-91964697D01*
X188363428Y-91907554D01*
X188906285Y-91450411D02*
X188934857Y-91421840D01*
X188963428Y-91450411D01*
X188934857Y-91478982D01*
X188906285Y-91450411D01*
X188963428Y-91450411D01*
X188963428Y-90850411D02*
X188963428Y-91193268D01*
X188963428Y-91021840D02*
X188363428Y-91021840D01*
X188449142Y-91078982D01*
X188506285Y-91136125D01*
X188534857Y-91193268D01*
X188563428Y-90336125D02*
X188963428Y-90336125D01*
X188563428Y-90593268D02*
X188877714Y-90593268D01*
X188934857Y-90564697D01*
X188963428Y-90507554D01*
X188963428Y-90421840D01*
X188934857Y-90364697D01*
X188906285Y-90336125D01*
X188649142Y-89850411D02*
X188649142Y-90050411D01*
X188963428Y-90050411D02*
X188363428Y-90050411D01*
X188363428Y-89764697D01*
X192304285Y-72756000D02*
X192332857Y-72784571D01*
X192361428Y-72870285D01*
X192361428Y-72927428D01*
X192332857Y-73013142D01*
X192275714Y-73070285D01*
X192218571Y-73098857D01*
X192104285Y-73127428D01*
X192018571Y-73127428D01*
X191904285Y-73098857D01*
X191847142Y-73070285D01*
X191790000Y-73013142D01*
X191761428Y-72927428D01*
X191761428Y-72870285D01*
X191790000Y-72784571D01*
X191818571Y-72756000D01*
X192361428Y-72470285D02*
X192361428Y-72356000D01*
X192332857Y-72298857D01*
X192304285Y-72270285D01*
X192218571Y-72213142D01*
X192104285Y-72184571D01*
X191875714Y-72184571D01*
X191818571Y-72213142D01*
X191790000Y-72241714D01*
X191761428Y-72298857D01*
X191761428Y-72413142D01*
X191790000Y-72470285D01*
X191818571Y-72498857D01*
X191875714Y-72527428D01*
X192018571Y-72527428D01*
X192075714Y-72498857D01*
X192104285Y-72470285D01*
X192132857Y-72413142D01*
X192132857Y-72298857D01*
X192104285Y-72241714D01*
X192075714Y-72213142D01*
X192018571Y-72184571D01*
X192995428Y-75661714D02*
X192995428Y-75604571D01*
X193024000Y-75547428D01*
X193052571Y-75518857D01*
X193109714Y-75490285D01*
X193224000Y-75461714D01*
X193366857Y-75461714D01*
X193481142Y-75490285D01*
X193538285Y-75518857D01*
X193566857Y-75547428D01*
X193595428Y-75604571D01*
X193595428Y-75661714D01*
X193566857Y-75718857D01*
X193538285Y-75747428D01*
X193481142Y-75776000D01*
X193366857Y-75804571D01*
X193224000Y-75804571D01*
X193109714Y-75776000D01*
X193052571Y-75747428D01*
X193024000Y-75718857D01*
X192995428Y-75661714D01*
X193538285Y-75204571D02*
X193566857Y-75176000D01*
X193595428Y-75204571D01*
X193566857Y-75233142D01*
X193538285Y-75204571D01*
X193595428Y-75204571D01*
X193595428Y-74604571D02*
X193595428Y-74947428D01*
X193595428Y-74776000D02*
X192995428Y-74776000D01*
X193081142Y-74833142D01*
X193138285Y-74890285D01*
X193166857Y-74947428D01*
X193195428Y-74090285D02*
X193595428Y-74090285D01*
X193195428Y-74347428D02*
X193509714Y-74347428D01*
X193566857Y-74318857D01*
X193595428Y-74261714D01*
X193595428Y-74176000D01*
X193566857Y-74118857D01*
X193538285Y-74090285D01*
X193281142Y-73604571D02*
X193281142Y-73804571D01*
X193595428Y-73804571D02*
X192995428Y-73804571D01*
X192995428Y-73518857D01*
X188752285Y-75061714D02*
X188780857Y-75090285D01*
X188809428Y-75176000D01*
X188809428Y-75233142D01*
X188780857Y-75318857D01*
X188723714Y-75376000D01*
X188666571Y-75404571D01*
X188552285Y-75433142D01*
X188466571Y-75433142D01*
X188352285Y-75404571D01*
X188295142Y-75376000D01*
X188238000Y-75318857D01*
X188209428Y-75233142D01*
X188209428Y-75176000D01*
X188238000Y-75090285D01*
X188266571Y-75061714D01*
X188809428Y-74490285D02*
X188809428Y-74833142D01*
X188809428Y-74661714D02*
X188209428Y-74661714D01*
X188295142Y-74718857D01*
X188352285Y-74776000D01*
X188380857Y-74833142D01*
X188209428Y-74118857D02*
X188209428Y-74061714D01*
X188238000Y-74004571D01*
X188266571Y-73976000D01*
X188323714Y-73947428D01*
X188438000Y-73918857D01*
X188580857Y-73918857D01*
X188695142Y-73947428D01*
X188752285Y-73976000D01*
X188780857Y-74004571D01*
X188809428Y-74061714D01*
X188809428Y-74118857D01*
X188780857Y-74176000D01*
X188752285Y-74204571D01*
X188695142Y-74233142D01*
X188580857Y-74261714D01*
X188438000Y-74261714D01*
X188323714Y-74233142D01*
X188266571Y-74204571D01*
X188238000Y-74176000D01*
X188209428Y-74118857D01*
X189361428Y-73041714D02*
X189361428Y-72984571D01*
X189390000Y-72927428D01*
X189418571Y-72898857D01*
X189475714Y-72870285D01*
X189590000Y-72841714D01*
X189732857Y-72841714D01*
X189847142Y-72870285D01*
X189904285Y-72898857D01*
X189932857Y-72927428D01*
X189961428Y-72984571D01*
X189961428Y-73041714D01*
X189932857Y-73098857D01*
X189904285Y-73127428D01*
X189847142Y-73156000D01*
X189732857Y-73184571D01*
X189590000Y-73184571D01*
X189475714Y-73156000D01*
X189418571Y-73127428D01*
X189390000Y-73098857D01*
X189361428Y-73041714D01*
X189904285Y-72584571D02*
X189932857Y-72556000D01*
X189961428Y-72584571D01*
X189932857Y-72613142D01*
X189904285Y-72584571D01*
X189961428Y-72584571D01*
X189961428Y-71984571D02*
X189961428Y-72327428D01*
X189961428Y-72156000D02*
X189361428Y-72156000D01*
X189447142Y-72213142D01*
X189504285Y-72270285D01*
X189532857Y-72327428D01*
X189561428Y-71470285D02*
X189961428Y-71470285D01*
X189561428Y-71727428D02*
X189875714Y-71727428D01*
X189932857Y-71698857D01*
X189961428Y-71641714D01*
X189961428Y-71556000D01*
X189932857Y-71498857D01*
X189904285Y-71470285D01*
X189647142Y-70984571D02*
X189647142Y-71184571D01*
X189961428Y-71184571D02*
X189361428Y-71184571D01*
X189361428Y-70898857D01*
X198588285Y-88777714D02*
X198616857Y-88806285D01*
X198645428Y-88892000D01*
X198645428Y-88949142D01*
X198616857Y-89034857D01*
X198559714Y-89092000D01*
X198502571Y-89120571D01*
X198388285Y-89149142D01*
X198302571Y-89149142D01*
X198188285Y-89120571D01*
X198131142Y-89092000D01*
X198074000Y-89034857D01*
X198045428Y-88949142D01*
X198045428Y-88892000D01*
X198074000Y-88806285D01*
X198102571Y-88777714D01*
X198645428Y-88206285D02*
X198645428Y-88549142D01*
X198645428Y-88377714D02*
X198045428Y-88377714D01*
X198131142Y-88434857D01*
X198188285Y-88492000D01*
X198216857Y-88549142D01*
X198645428Y-87634857D02*
X198645428Y-87977714D01*
X198645428Y-87806285D02*
X198045428Y-87806285D01*
X198131142Y-87863428D01*
X198188285Y-87920571D01*
X198216857Y-87977714D01*
X199661428Y-89288857D02*
X199661428Y-89631714D01*
X199661428Y-89460285D02*
X199061428Y-89460285D01*
X199147142Y-89517428D01*
X199204285Y-89574571D01*
X199232857Y-89631714D01*
X199061428Y-88774571D02*
X199061428Y-88888857D01*
X199090000Y-88946000D01*
X199118571Y-88974571D01*
X199204285Y-89031714D01*
X199318571Y-89060285D01*
X199547142Y-89060285D01*
X199604285Y-89031714D01*
X199632857Y-89003142D01*
X199661428Y-88946000D01*
X199661428Y-88831714D01*
X199632857Y-88774571D01*
X199604285Y-88746000D01*
X199547142Y-88717428D01*
X199404285Y-88717428D01*
X199347142Y-88746000D01*
X199318571Y-88774571D01*
X199290000Y-88831714D01*
X199290000Y-88946000D01*
X199318571Y-89003142D01*
X199347142Y-89031714D01*
X199404285Y-89060285D01*
X199261428Y-88460285D02*
X199861428Y-88460285D01*
X199290000Y-88460285D02*
X199261428Y-88403142D01*
X199261428Y-88288857D01*
X199290000Y-88231714D01*
X199318571Y-88203142D01*
X199375714Y-88174571D01*
X199547142Y-88174571D01*
X199604285Y-88203142D01*
X199632857Y-88231714D01*
X199661428Y-88288857D01*
X199661428Y-88403142D01*
X199632857Y-88460285D01*
X199347142Y-87717428D02*
X199347142Y-87917428D01*
X199661428Y-87917428D02*
X199061428Y-87917428D01*
X199061428Y-87631714D01*
X195702285Y-86574285D02*
X195673714Y-86602857D01*
X195588000Y-86631428D01*
X195530857Y-86631428D01*
X195445142Y-86602857D01*
X195388000Y-86545714D01*
X195359428Y-86488571D01*
X195330857Y-86374285D01*
X195330857Y-86288571D01*
X195359428Y-86174285D01*
X195388000Y-86117142D01*
X195445142Y-86060000D01*
X195530857Y-86031428D01*
X195588000Y-86031428D01*
X195673714Y-86060000D01*
X195702285Y-86088571D01*
X196273714Y-86631428D02*
X195930857Y-86631428D01*
X196102285Y-86631428D02*
X196102285Y-86031428D01*
X196045142Y-86117142D01*
X195988000Y-86174285D01*
X195930857Y-86202857D01*
X196502285Y-86088571D02*
X196530857Y-86060000D01*
X196588000Y-86031428D01*
X196730857Y-86031428D01*
X196788000Y-86060000D01*
X196816571Y-86088571D01*
X196845142Y-86145714D01*
X196845142Y-86202857D01*
X196816571Y-86288571D01*
X196473714Y-86631428D01*
X196845142Y-86631428D01*
X195247142Y-87727428D02*
X194904285Y-87727428D01*
X195075714Y-87727428D02*
X195075714Y-87127428D01*
X195018571Y-87213142D01*
X194961428Y-87270285D01*
X194904285Y-87298857D01*
X195761428Y-87127428D02*
X195647142Y-87127428D01*
X195590000Y-87156000D01*
X195561428Y-87184571D01*
X195504285Y-87270285D01*
X195475714Y-87384571D01*
X195475714Y-87613142D01*
X195504285Y-87670285D01*
X195532857Y-87698857D01*
X195590000Y-87727428D01*
X195704285Y-87727428D01*
X195761428Y-87698857D01*
X195790000Y-87670285D01*
X195818571Y-87613142D01*
X195818571Y-87470285D01*
X195790000Y-87413142D01*
X195761428Y-87384571D01*
X195704285Y-87356000D01*
X195590000Y-87356000D01*
X195532857Y-87384571D01*
X195504285Y-87413142D01*
X195475714Y-87470285D01*
X196075714Y-87327428D02*
X196075714Y-87927428D01*
X196075714Y-87356000D02*
X196132857Y-87327428D01*
X196247142Y-87327428D01*
X196304285Y-87356000D01*
X196332857Y-87384571D01*
X196361428Y-87441714D01*
X196361428Y-87613142D01*
X196332857Y-87670285D01*
X196304285Y-87698857D01*
X196247142Y-87727428D01*
X196132857Y-87727428D01*
X196075714Y-87698857D01*
X196818571Y-87413142D02*
X196618571Y-87413142D01*
X196618571Y-87727428D02*
X196618571Y-87127428D01*
X196904285Y-87127428D01*
D29*
X196432714Y-82350428D02*
X195670714Y-82350428D01*
X195670714Y-82169000D01*
X195707000Y-82060142D01*
X195779571Y-81987571D01*
X195852142Y-81951285D01*
X195997285Y-81915000D01*
X196106142Y-81915000D01*
X196251285Y-81951285D01*
X196323857Y-81987571D01*
X196396428Y-82060142D01*
X196432714Y-82169000D01*
X196432714Y-82350428D01*
X196432714Y-81189285D02*
X196432714Y-81624714D01*
X196432714Y-81407000D02*
X195670714Y-81407000D01*
X195779571Y-81479571D01*
X195852142Y-81552142D01*
X195888428Y-81624714D01*
X199480714Y-82531857D02*
X199480714Y-82894714D01*
X198718714Y-82894714D01*
X199081571Y-82277857D02*
X199081571Y-82023857D01*
X199480714Y-81915000D02*
X199480714Y-82277857D01*
X198718714Y-82277857D01*
X198718714Y-81915000D01*
X199480714Y-81588428D02*
X198718714Y-81588428D01*
X198718714Y-81407000D01*
X198755000Y-81298142D01*
X198827571Y-81225571D01*
X198900142Y-81189285D01*
X199045285Y-81153000D01*
X199154142Y-81153000D01*
X199299285Y-81189285D01*
X199371857Y-81225571D01*
X199444428Y-81298142D01*
X199480714Y-81407000D01*
X199480714Y-81588428D01*
D18*
X163025908Y-85755480D02*
X164114480Y-85755480D01*
X164332194Y-85828051D01*
X164477337Y-85973194D01*
X164549908Y-86190908D01*
X164549908Y-86336051D01*
X163171051Y-85102337D02*
X163098480Y-85029765D01*
X163025908Y-84884622D01*
X163025908Y-84521765D01*
X163098480Y-84376622D01*
X163171051Y-84304051D01*
X163316194Y-84231480D01*
X163461337Y-84231480D01*
X163679051Y-84304051D01*
X164549908Y-85174908D01*
X164549908Y-84231480D01*
X182801000Y-71190428D02*
X182801000Y-72279000D01*
X182728428Y-72496714D01*
X182583285Y-72641857D01*
X182365571Y-72714428D01*
X182220428Y-72714428D01*
X184179857Y-71698428D02*
X184179857Y-72714428D01*
X183817000Y-71117857D02*
X183454142Y-72206428D01*
X184397571Y-72206428D01*
X179717142Y-61145428D02*
X179717142Y-59621428D01*
X180442857Y-61145428D02*
X180442857Y-59621428D01*
X180805714Y-59621428D01*
X181023428Y-59694000D01*
X181168571Y-59839142D01*
X181241142Y-59984285D01*
X181313714Y-60274571D01*
X181313714Y-60492285D01*
X181241142Y-60782571D01*
X181168571Y-60927714D01*
X181023428Y-61072857D01*
X180805714Y-61145428D01*
X180442857Y-61145428D01*
X182837714Y-61000285D02*
X182765142Y-61072857D01*
X182547428Y-61145428D01*
X182402285Y-61145428D01*
X182184571Y-61072857D01*
X182039428Y-60927714D01*
X181966857Y-60782571D01*
X181894285Y-60492285D01*
X181894285Y-60274571D01*
X181966857Y-59984285D01*
X182039428Y-59839142D01*
X182184571Y-59694000D01*
X182402285Y-59621428D01*
X182547428Y-59621428D01*
X182765142Y-59694000D01*
X182837714Y-59766571D01*
X183128000Y-61290571D02*
X184289142Y-61290571D01*
X184506857Y-59621428D02*
X185450285Y-59621428D01*
X184942285Y-60202000D01*
X185160000Y-60202000D01*
X185305142Y-60274571D01*
X185377714Y-60347142D01*
X185450285Y-60492285D01*
X185450285Y-60855142D01*
X185377714Y-61000285D01*
X185305142Y-61072857D01*
X185160000Y-61145428D01*
X184724571Y-61145428D01*
X184579428Y-61072857D01*
X184506857Y-61000285D01*
X185958285Y-61145428D02*
X186756571Y-60129428D01*
X185958285Y-60129428D02*
X186756571Y-61145428D01*
X187264571Y-59766571D02*
X187337142Y-59694000D01*
X187482285Y-59621428D01*
X187845142Y-59621428D01*
X187990285Y-59694000D01*
X188062857Y-59766571D01*
X188135428Y-59911714D01*
X188135428Y-60056857D01*
X188062857Y-60274571D01*
X187192000Y-61145428D01*
X188135428Y-61145428D01*
D28*
X175972714Y-81810000D02*
X176517000Y-81810000D01*
X176625857Y-81846285D01*
X176698428Y-81918857D01*
X176734714Y-82027714D01*
X176734714Y-82100285D01*
X175972714Y-81084285D02*
X175972714Y-81447142D01*
X176335571Y-81483428D01*
X176299285Y-81447142D01*
X176263000Y-81374571D01*
X176263000Y-81193142D01*
X176299285Y-81120571D01*
X176335571Y-81084285D01*
X176408142Y-81048000D01*
X176589571Y-81048000D01*
X176662142Y-81084285D01*
X176698428Y-81120571D01*
X176734714Y-81193142D01*
X176734714Y-81374571D01*
X176698428Y-81447142D01*
X176662142Y-81483428D01*
X174474714Y-90034571D02*
X173712714Y-90034571D01*
X174075571Y-90034571D02*
X174075571Y-89599142D01*
X174474714Y-89599142D02*
X173712714Y-89599142D01*
X174075571Y-89236285D02*
X174075571Y-88982285D01*
X174474714Y-88873428D02*
X174474714Y-89236285D01*
X173712714Y-89236285D01*
X173712714Y-88873428D01*
X174257000Y-88583142D02*
X174257000Y-88220285D01*
X174474714Y-88655714D02*
X173712714Y-88401714D01*
X174474714Y-88147714D01*
X174474714Y-87893714D02*
X173712714Y-87893714D01*
X173712714Y-87712285D01*
X173749000Y-87603428D01*
X173821571Y-87530857D01*
X173894142Y-87494571D01*
X174039285Y-87458285D01*
X174148142Y-87458285D01*
X174293285Y-87494571D01*
X174365857Y-87530857D01*
X174438428Y-87603428D01*
X174474714Y-87712285D01*
X174474714Y-87893714D01*
X174075571Y-87131714D02*
X174075571Y-86877714D01*
X174474714Y-86768857D02*
X174474714Y-87131714D01*
X173712714Y-87131714D01*
X173712714Y-86768857D01*
X174474714Y-86006857D02*
X174111857Y-86260857D01*
X174474714Y-86442285D02*
X173712714Y-86442285D01*
X173712714Y-86152000D01*
X173749000Y-86079428D01*
X173785285Y-86043142D01*
X173857857Y-86006857D01*
X173966714Y-86006857D01*
X174039285Y-86043142D01*
X174075571Y-86079428D01*
X174111857Y-86152000D01*
X174111857Y-86442285D01*
X174547285Y-85861714D02*
X174547285Y-85281142D01*
X173712714Y-85172285D02*
X173712714Y-84700571D01*
X174003000Y-84954571D01*
X174003000Y-84845714D01*
X174039285Y-84773142D01*
X174075571Y-84736857D01*
X174148142Y-84700571D01*
X174329571Y-84700571D01*
X174402142Y-84736857D01*
X174438428Y-84773142D01*
X174474714Y-84845714D01*
X174474714Y-85063428D01*
X174438428Y-85136000D01*
X174402142Y-85172285D01*
X173712714Y-84446571D02*
X174474714Y-83938571D01*
X173712714Y-83938571D02*
X174474714Y-84446571D01*
X174474714Y-83249142D02*
X174474714Y-83684571D01*
X174474714Y-83466857D02*
X173712714Y-83466857D01*
X173821571Y-83539428D01*
X173894142Y-83612000D01*
X173930428Y-83684571D01*
D15*
X194590000Y-64627428D02*
X194390000Y-64341714D01*
X194247142Y-64627428D02*
X194247142Y-64027428D01*
X194475714Y-64027428D01*
X194532857Y-64056000D01*
X194561428Y-64084571D01*
X194590000Y-64141714D01*
X194590000Y-64227428D01*
X194561428Y-64284571D01*
X194532857Y-64313142D01*
X194475714Y-64341714D01*
X194247142Y-64341714D01*
X194790000Y-64027428D02*
X195190000Y-64027428D01*
X194932857Y-64627428D01*
X194232857Y-62127428D02*
X193890000Y-62127428D01*
X194061428Y-62127428D02*
X194061428Y-61527428D01*
X194004285Y-61613142D01*
X193947142Y-61670285D01*
X193890000Y-61698857D01*
X194604285Y-61527428D02*
X194661428Y-61527428D01*
X194718571Y-61556000D01*
X194747142Y-61584571D01*
X194775714Y-61641714D01*
X194804285Y-61756000D01*
X194804285Y-61898857D01*
X194775714Y-62013142D01*
X194747142Y-62070285D01*
X194718571Y-62098857D01*
X194661428Y-62127428D01*
X194604285Y-62127428D01*
X194547142Y-62098857D01*
X194518571Y-62070285D01*
X194490000Y-62013142D01*
X194461428Y-61898857D01*
X194461428Y-61756000D01*
X194490000Y-61641714D01*
X194518571Y-61584571D01*
X194547142Y-61556000D01*
X194604285Y-61527428D01*
X195061428Y-62127428D02*
X195061428Y-61527428D01*
X195118571Y-61898857D02*
X195290000Y-62127428D01*
X195290000Y-61727428D02*
X195061428Y-61956000D01*
X197161428Y-92056000D02*
X196875714Y-92256000D01*
X197161428Y-92398857D02*
X196561428Y-92398857D01*
X196561428Y-92170285D01*
X196590000Y-92113142D01*
X196618571Y-92084571D01*
X196675714Y-92056000D01*
X196761428Y-92056000D01*
X196818571Y-92084571D01*
X196847142Y-92113142D01*
X196875714Y-92170285D01*
X196875714Y-92398857D01*
X196818571Y-91713142D02*
X196790000Y-91770285D01*
X196761428Y-91798857D01*
X196704285Y-91827428D01*
X196675714Y-91827428D01*
X196618571Y-91798857D01*
X196590000Y-91770285D01*
X196561428Y-91713142D01*
X196561428Y-91598857D01*
X196590000Y-91541714D01*
X196618571Y-91513142D01*
X196675714Y-91484571D01*
X196704285Y-91484571D01*
X196761428Y-91513142D01*
X196790000Y-91541714D01*
X196818571Y-91598857D01*
X196818571Y-91713142D01*
X196847142Y-91770285D01*
X196875714Y-91798857D01*
X196932857Y-91827428D01*
X197047142Y-91827428D01*
X197104285Y-91798857D01*
X197132857Y-91770285D01*
X197161428Y-91713142D01*
X197161428Y-91598857D01*
X197132857Y-91541714D01*
X197104285Y-91513142D01*
X197047142Y-91484571D01*
X196932857Y-91484571D01*
X196875714Y-91513142D01*
X196847142Y-91541714D01*
X196818571Y-91598857D01*
X194761428Y-91327428D02*
X194761428Y-91670285D01*
X194761428Y-91498857D02*
X194161428Y-91498857D01*
X194247142Y-91556000D01*
X194304285Y-91613142D01*
X194332857Y-91670285D01*
X194761428Y-91070285D02*
X194161428Y-91070285D01*
X194590000Y-90870285D01*
X194161428Y-90670285D01*
X194761428Y-90670285D01*
X182291840Y-82702428D02*
X182091840Y-82416714D01*
X181948982Y-82702428D02*
X181948982Y-82102428D01*
X182177554Y-82102428D01*
X182234697Y-82131000D01*
X182263268Y-82159571D01*
X182291840Y-82216714D01*
X182291840Y-82302428D01*
X182263268Y-82359571D01*
X182234697Y-82388142D01*
X182177554Y-82416714D01*
X181948982Y-82416714D01*
X182577554Y-82702428D02*
X182691840Y-82702428D01*
X182748982Y-82673857D01*
X182777554Y-82645285D01*
X182834697Y-82559571D01*
X182863268Y-82445285D01*
X182863268Y-82216714D01*
X182834697Y-82159571D01*
X182806125Y-82131000D01*
X182748982Y-82102428D01*
X182634697Y-82102428D01*
X182577554Y-82131000D01*
X182548982Y-82159571D01*
X182520411Y-82216714D01*
X182520411Y-82359571D01*
X182548982Y-82416714D01*
X182577554Y-82445285D01*
X182634697Y-82473857D01*
X182748982Y-82473857D01*
X182806125Y-82445285D01*
X182834697Y-82416714D01*
X182863268Y-82359571D01*
X182420411Y-85202428D02*
X182077554Y-85202428D01*
X182248982Y-85202428D02*
X182248982Y-84602428D01*
X182191840Y-84688142D01*
X182134697Y-84745285D01*
X182077554Y-84773857D01*
X182677554Y-85202428D02*
X182677554Y-84602428D01*
X182734697Y-84973857D02*
X182906125Y-85202428D01*
X182906125Y-84802428D02*
X182677554Y-85031000D01*
X182454285Y-84652428D02*
X182254285Y-84366714D01*
X182111428Y-84652428D02*
X182111428Y-84052428D01*
X182340000Y-84052428D01*
X182397142Y-84081000D01*
X182425714Y-84109571D01*
X182454285Y-84166714D01*
X182454285Y-84252428D01*
X182425714Y-84309571D01*
X182397142Y-84338142D01*
X182340000Y-84366714D01*
X182111428Y-84366714D01*
X183025714Y-84652428D02*
X182682857Y-84652428D01*
X182854285Y-84652428D02*
X182854285Y-84052428D01*
X182797142Y-84138142D01*
X182740000Y-84195285D01*
X182682857Y-84223857D01*
X183397142Y-84052428D02*
X183454285Y-84052428D01*
X183511428Y-84081000D01*
X183540000Y-84109571D01*
X183568571Y-84166714D01*
X183597142Y-84281000D01*
X183597142Y-84423857D01*
X183568571Y-84538142D01*
X183540000Y-84595285D01*
X183511428Y-84623857D01*
X183454285Y-84652428D01*
X183397142Y-84652428D01*
X183340000Y-84623857D01*
X183311428Y-84595285D01*
X183282857Y-84538142D01*
X183254285Y-84423857D01*
X183254285Y-84281000D01*
X183282857Y-84166714D01*
X183311428Y-84109571D01*
X183340000Y-84081000D01*
X183397142Y-84052428D01*
X182868571Y-87152428D02*
X182525714Y-87152428D01*
X182697142Y-87152428D02*
X182697142Y-86552428D01*
X182640000Y-86638142D01*
X182582857Y-86695285D01*
X182525714Y-86723857D01*
X183125714Y-87152428D02*
X183125714Y-86552428D01*
X183182857Y-86923857D02*
X183354285Y-87152428D01*
X183354285Y-86752428D02*
X183125714Y-86981000D01*
X196561428Y-77241714D02*
X196275714Y-77441714D01*
X196561428Y-77584571D02*
X195961428Y-77584571D01*
X195961428Y-77356000D01*
X195990000Y-77298857D01*
X196018571Y-77270285D01*
X196075714Y-77241714D01*
X196161428Y-77241714D01*
X196218571Y-77270285D01*
X196247142Y-77298857D01*
X196275714Y-77356000D01*
X196275714Y-77584571D01*
X196561428Y-76670285D02*
X196561428Y-77013142D01*
X196561428Y-76841714D02*
X195961428Y-76841714D01*
X196047142Y-76898857D01*
X196104285Y-76956000D01*
X196132857Y-77013142D01*
X196561428Y-76098857D02*
X196561428Y-76441714D01*
X196561428Y-76270285D02*
X195961428Y-76270285D01*
X196047142Y-76327428D01*
X196104285Y-76384571D01*
X196132857Y-76441714D01*
X198518571Y-77498857D02*
X198490000Y-77470285D01*
X198461428Y-77413142D01*
X198461428Y-77270285D01*
X198490000Y-77213142D01*
X198518571Y-77184571D01*
X198575714Y-77156000D01*
X198632857Y-77156000D01*
X198718571Y-77184571D01*
X199061428Y-77527428D01*
X199061428Y-77156000D01*
X198461428Y-76613142D02*
X198461428Y-76898857D01*
X198747142Y-76927428D01*
X198718571Y-76898857D01*
X198690000Y-76841714D01*
X198690000Y-76698857D01*
X198718571Y-76641714D01*
X198747142Y-76613142D01*
X198804285Y-76584571D01*
X198947142Y-76584571D01*
X199004285Y-76613142D01*
X199032857Y-76641714D01*
X199061428Y-76698857D01*
X199061428Y-76841714D01*
X199032857Y-76898857D01*
X199004285Y-76927428D01*
X198461428Y-76213142D02*
X198461428Y-76156000D01*
X198490000Y-76098857D01*
X198518571Y-76070285D01*
X198575714Y-76041714D01*
X198690000Y-76013142D01*
X198832857Y-76013142D01*
X198947142Y-76041714D01*
X199004285Y-76070285D01*
X199032857Y-76098857D01*
X199061428Y-76156000D01*
X199061428Y-76213142D01*
X199032857Y-76270285D01*
X199004285Y-76298857D01*
X198947142Y-76327428D01*
X198832857Y-76356000D01*
X198690000Y-76356000D01*
X198575714Y-76327428D01*
X198518571Y-76298857D01*
X198490000Y-76270285D01*
X198461428Y-76213142D01*
X183140380Y-83057904D02*
X183949904Y-83057904D01*
X184045142Y-83010285D01*
X184092761Y-82962666D01*
X184140380Y-82867428D01*
X184140380Y-82676952D01*
X184092761Y-82581714D01*
X184045142Y-82534095D01*
X183949904Y-82486476D01*
X183140380Y-82486476D01*
X183473714Y-81581714D02*
X184140380Y-81581714D01*
X183092761Y-81819809D02*
X183807047Y-82057904D01*
X183807047Y-81438857D01*
X193617904Y-88023619D02*
X194417904Y-87490285D01*
X193617904Y-87490285D02*
X194417904Y-88023619D01*
X194417904Y-86766476D02*
X194417904Y-87223619D01*
X194417904Y-86995047D02*
X193617904Y-86995047D01*
X193732190Y-87071238D01*
X193808380Y-87147428D01*
X193846476Y-87223619D01*
X187369619Y-88753904D02*
X186912476Y-88753904D01*
X187141047Y-88753904D02*
X187141047Y-87953904D01*
X187064857Y-88068190D01*
X186988666Y-88144380D01*
X186912476Y-88182476D01*
X188055333Y-87953904D02*
X187902952Y-87953904D01*
X187826761Y-87992000D01*
X187788666Y-88030095D01*
X187712476Y-88144380D01*
X187674380Y-88296761D01*
X187674380Y-88601523D01*
X187712476Y-88677714D01*
X187750571Y-88715809D01*
X187826761Y-88753904D01*
X187979142Y-88753904D01*
X188055333Y-88715809D01*
X188093428Y-88677714D01*
X188131523Y-88601523D01*
X188131523Y-88411047D01*
X188093428Y-88334857D01*
X188055333Y-88296761D01*
X187979142Y-88258666D01*
X187826761Y-88258666D01*
X187750571Y-88296761D01*
X187712476Y-88334857D01*
X187674380Y-88411047D01*
X188474380Y-88753904D02*
X188474380Y-87953904D01*
X188741047Y-88525333D01*
X189007714Y-87953904D01*
X189007714Y-88753904D01*
X189388666Y-88753904D02*
X189388666Y-87953904D01*
X189388666Y-88334857D02*
X189845809Y-88334857D01*
X189845809Y-88753904D02*
X189845809Y-87953904D01*
X190150571Y-88220571D02*
X190569619Y-88220571D01*
X190150571Y-88753904D01*
X190569619Y-88753904D01*
X182516285Y-73760000D02*
X182544857Y-73788571D01*
X182573428Y-73874285D01*
X182573428Y-73931428D01*
X182544857Y-74017142D01*
X182487714Y-74074285D01*
X182430571Y-74102857D01*
X182316285Y-74131428D01*
X182230571Y-74131428D01*
X182116285Y-74102857D01*
X182059142Y-74074285D01*
X182002000Y-74017142D01*
X181973428Y-73931428D01*
X181973428Y-73874285D01*
X182002000Y-73788571D01*
X182030571Y-73760000D01*
X181973428Y-73560000D02*
X181973428Y-73188571D01*
X182202000Y-73388571D01*
X182202000Y-73302857D01*
X182230571Y-73245714D01*
X182259142Y-73217142D01*
X182316285Y-73188571D01*
X182459142Y-73188571D01*
X182516285Y-73217142D01*
X182544857Y-73245714D01*
X182573428Y-73302857D01*
X182573428Y-73474285D01*
X182544857Y-73531428D01*
X182516285Y-73560000D01*
X180073428Y-74017142D02*
X180073428Y-74360000D01*
X180073428Y-74188571D02*
X179473428Y-74188571D01*
X179559142Y-74245714D01*
X179616285Y-74302857D01*
X179644857Y-74360000D01*
X179673428Y-73502857D02*
X180073428Y-73502857D01*
X179673428Y-73760000D02*
X179987714Y-73760000D01*
X180044857Y-73731428D01*
X180073428Y-73674285D01*
X180073428Y-73588571D01*
X180044857Y-73531428D01*
X180016285Y-73502857D01*
X179759142Y-73017142D02*
X179759142Y-73217142D01*
X180073428Y-73217142D02*
X179473428Y-73217142D01*
X179473428Y-72931428D01*
M02*
