G04 #@! TF.GenerationSoftware,KiCad,Pcbnew,5.1.5-52549c5~86~ubuntu18.04.1*
G04 #@! TF.CreationDate,2020-12-07T22:39:35-08:00*
G04 #@! TF.ProjectId,multiple_PCBs,6d756c74-6970-46c6-955f-504342732e6b,rev?*
G04 #@! TF.SameCoordinates,Original*
G04 #@! TF.FileFunction,Soldermask,Top*
G04 #@! TF.FilePolarity,Negative*
%FSLAX46Y46*%
G04 Gerber Fmt 4.6, Leading zero omitted, Abs format (unit mm)*
G04 Created by KiCad (PCBNEW 5.1.5-52549c5~86~ubuntu18.04.1) date 2020-12-07 22:39:35*
%MOMM*%
%LPD*%
G04 APERTURE LIST*
%ADD10R,1.397000X1.397000*%
%ADD11C,1.397000*%
%ADD12R,1.550000X0.600000*%
%ADD13R,1.450000X0.450000*%
%ADD14R,1.680000X1.880000*%
%ADD15R,0.890000X0.420000*%
%ADD16R,2.400000X0.760000*%
%ADD17R,3.560000X1.270000*%
%ADD18R,1.250000X2.000000*%
%ADD19R,2.000000X1.250000*%
%ADD20R,0.899160X1.000760*%
%ADD21R,1.000760X0.899160*%
%ADD22C,1.800000*%
%ADD23C,0.050000*%
%ADD24R,1.000000X0.900000*%
%ADD25R,0.900000X1.000000*%
%ADD26C,2.500000*%
%ADD27R,0.600000X1.550000*%
%ADD28R,1.800860X1.597660*%
%ADD29C,1.998980*%
%ADD30R,1.998980X1.998980*%
%ADD31C,1.524000*%
%ADD32R,0.550000X1.600000*%
%ADD33R,1.600000X0.550000*%
%ADD34R,0.800000X1.000000*%
G04 APERTURE END LIST*
D10*
X140090000Y-103710000D03*
D11*
X142630000Y-103710000D03*
X145170000Y-103710000D03*
X147710000Y-103710000D03*
X147710000Y-96090000D03*
X145170000Y-96090000D03*
X142630000Y-96090000D03*
X140090000Y-96090000D03*
D10*
X140208000Y-128270000D03*
D11*
X142748000Y-128270000D03*
X145288000Y-128270000D03*
X147828000Y-128270000D03*
X147828000Y-120650000D03*
X145288000Y-120650000D03*
X142748000Y-120650000D03*
X140208000Y-120650000D03*
D10*
X139990000Y-116210000D03*
D11*
X142530000Y-116210000D03*
X145070000Y-116210000D03*
X147610000Y-116210000D03*
X147610000Y-108590000D03*
X145070000Y-108590000D03*
X142530000Y-108590000D03*
X139990000Y-108590000D03*
D12*
X141700000Y-97895000D03*
X141700000Y-99165000D03*
X141700000Y-100435000D03*
X141700000Y-101705000D03*
X147100000Y-101705000D03*
X147100000Y-100435000D03*
X147100000Y-99165000D03*
X147100000Y-97895000D03*
D13*
X146968000Y-123485000D03*
X146968000Y-124135000D03*
X146968000Y-124785000D03*
X146968000Y-125435000D03*
X141068000Y-125435000D03*
X141068000Y-124785000D03*
X141068000Y-124135000D03*
X141068000Y-123485000D03*
D14*
X143900000Y-112400000D03*
D15*
X146005000Y-111425000D03*
X146005000Y-112075000D03*
X146005000Y-112725000D03*
X146005000Y-113375000D03*
X141795000Y-113375000D03*
X141795000Y-112725000D03*
X141795000Y-112075000D03*
X141795000Y-111425000D03*
D16*
X157652000Y-109220000D03*
X157652000Y-110490000D03*
X153752000Y-110490000D03*
X153752000Y-109220000D03*
X153752000Y-105410000D03*
X153752000Y-106680000D03*
X153752000Y-107950000D03*
X157652000Y-107950000D03*
X157652000Y-106680000D03*
X157652000Y-105410000D03*
X158160000Y-127254000D03*
X158160000Y-128524000D03*
X158160000Y-129794000D03*
X154260000Y-129794000D03*
X154260000Y-128524000D03*
X154260000Y-127254000D03*
X154260000Y-131064000D03*
X154260000Y-132334000D03*
X158160000Y-132334000D03*
X158160000Y-131064000D03*
D17*
X175325000Y-124968000D03*
X175325000Y-127508000D03*
X175325000Y-130048000D03*
X170115000Y-130048000D03*
X170115000Y-127508000D03*
X170115000Y-124968000D03*
X170115000Y-132608000D03*
X170115000Y-135148000D03*
X175325000Y-135148000D03*
X175325000Y-132608000D03*
X175071000Y-111780000D03*
X175071000Y-114320000D03*
X169861000Y-114320000D03*
X169861000Y-111780000D03*
X169861000Y-104140000D03*
X169861000Y-106680000D03*
X169861000Y-109220000D03*
X175071000Y-109220000D03*
X175071000Y-106680000D03*
X175071000Y-104140000D03*
X194121000Y-132354000D03*
X188911000Y-132354000D03*
X188911000Y-127254000D03*
X188911000Y-129794000D03*
X194121000Y-129794000D03*
X194121000Y-127254000D03*
D18*
X153581000Y-99648000D03*
X156331000Y-99648000D03*
D19*
X197196000Y-117963000D03*
X197196000Y-120713000D03*
D20*
X153444160Y-97338000D03*
X154947840Y-97338000D03*
D21*
X197196000Y-114841680D03*
X197196000Y-113338000D03*
D22*
X167113000Y-62229000D03*
X166970000Y-64626000D03*
X169510000Y-64626000D03*
X169510000Y-62086000D03*
D23*
G36*
X152802252Y-74596602D02*
G01*
X152814386Y-74598402D01*
X152826286Y-74601382D01*
X152837835Y-74605515D01*
X152848925Y-74610760D01*
X152859446Y-74617066D01*
X152869299Y-74624374D01*
X152878388Y-74632612D01*
X152886626Y-74641701D01*
X152893934Y-74651554D01*
X152900240Y-74662075D01*
X152905485Y-74673165D01*
X152909618Y-74684714D01*
X152912598Y-74696614D01*
X152914398Y-74708748D01*
X152915000Y-74721000D01*
X152915000Y-76096000D01*
X152914398Y-76108252D01*
X152912598Y-76120386D01*
X152909618Y-76132286D01*
X152905485Y-76143835D01*
X152900240Y-76154925D01*
X152893934Y-76165446D01*
X152886626Y-76175299D01*
X152878388Y-76184388D01*
X152869299Y-76192626D01*
X152859446Y-76199934D01*
X152848925Y-76206240D01*
X152837835Y-76211485D01*
X152826286Y-76215618D01*
X152814386Y-76218598D01*
X152802252Y-76220398D01*
X152790000Y-76221000D01*
X152540000Y-76221000D01*
X152527748Y-76220398D01*
X152515614Y-76218598D01*
X152503714Y-76215618D01*
X152492165Y-76211485D01*
X152481075Y-76206240D01*
X152470554Y-76199934D01*
X152460701Y-76192626D01*
X152451612Y-76184388D01*
X152443374Y-76175299D01*
X152436066Y-76165446D01*
X152429760Y-76154925D01*
X152424515Y-76143835D01*
X152420382Y-76132286D01*
X152417402Y-76120386D01*
X152415602Y-76108252D01*
X152415000Y-76096000D01*
X152415000Y-74721000D01*
X152415602Y-74708748D01*
X152417402Y-74696614D01*
X152420382Y-74684714D01*
X152424515Y-74673165D01*
X152429760Y-74662075D01*
X152436066Y-74651554D01*
X152443374Y-74641701D01*
X152451612Y-74632612D01*
X152460701Y-74624374D01*
X152470554Y-74617066D01*
X152481075Y-74610760D01*
X152492165Y-74605515D01*
X152503714Y-74601382D01*
X152515614Y-74598402D01*
X152527748Y-74596602D01*
X152540000Y-74596000D01*
X152790000Y-74596000D01*
X152802252Y-74596602D01*
G37*
G36*
X153452252Y-74596602D02*
G01*
X153464386Y-74598402D01*
X153476286Y-74601382D01*
X153487835Y-74605515D01*
X153498925Y-74610760D01*
X153509446Y-74617066D01*
X153519299Y-74624374D01*
X153528388Y-74632612D01*
X153536626Y-74641701D01*
X153543934Y-74651554D01*
X153550240Y-74662075D01*
X153555485Y-74673165D01*
X153559618Y-74684714D01*
X153562598Y-74696614D01*
X153564398Y-74708748D01*
X153565000Y-74721000D01*
X153565000Y-76096000D01*
X153564398Y-76108252D01*
X153562598Y-76120386D01*
X153559618Y-76132286D01*
X153555485Y-76143835D01*
X153550240Y-76154925D01*
X153543934Y-76165446D01*
X153536626Y-76175299D01*
X153528388Y-76184388D01*
X153519299Y-76192626D01*
X153509446Y-76199934D01*
X153498925Y-76206240D01*
X153487835Y-76211485D01*
X153476286Y-76215618D01*
X153464386Y-76218598D01*
X153452252Y-76220398D01*
X153440000Y-76221000D01*
X153190000Y-76221000D01*
X153177748Y-76220398D01*
X153165614Y-76218598D01*
X153153714Y-76215618D01*
X153142165Y-76211485D01*
X153131075Y-76206240D01*
X153120554Y-76199934D01*
X153110701Y-76192626D01*
X153101612Y-76184388D01*
X153093374Y-76175299D01*
X153086066Y-76165446D01*
X153079760Y-76154925D01*
X153074515Y-76143835D01*
X153070382Y-76132286D01*
X153067402Y-76120386D01*
X153065602Y-76108252D01*
X153065000Y-76096000D01*
X153065000Y-74721000D01*
X153065602Y-74708748D01*
X153067402Y-74696614D01*
X153070382Y-74684714D01*
X153074515Y-74673165D01*
X153079760Y-74662075D01*
X153086066Y-74651554D01*
X153093374Y-74641701D01*
X153101612Y-74632612D01*
X153110701Y-74624374D01*
X153120554Y-74617066D01*
X153131075Y-74610760D01*
X153142165Y-74605515D01*
X153153714Y-74601382D01*
X153165614Y-74598402D01*
X153177748Y-74596602D01*
X153190000Y-74596000D01*
X153440000Y-74596000D01*
X153452252Y-74596602D01*
G37*
G36*
X154102252Y-74596602D02*
G01*
X154114386Y-74598402D01*
X154126286Y-74601382D01*
X154137835Y-74605515D01*
X154148925Y-74610760D01*
X154159446Y-74617066D01*
X154169299Y-74624374D01*
X154178388Y-74632612D01*
X154186626Y-74641701D01*
X154193934Y-74651554D01*
X154200240Y-74662075D01*
X154205485Y-74673165D01*
X154209618Y-74684714D01*
X154212598Y-74696614D01*
X154214398Y-74708748D01*
X154215000Y-74721000D01*
X154215000Y-76096000D01*
X154214398Y-76108252D01*
X154212598Y-76120386D01*
X154209618Y-76132286D01*
X154205485Y-76143835D01*
X154200240Y-76154925D01*
X154193934Y-76165446D01*
X154186626Y-76175299D01*
X154178388Y-76184388D01*
X154169299Y-76192626D01*
X154159446Y-76199934D01*
X154148925Y-76206240D01*
X154137835Y-76211485D01*
X154126286Y-76215618D01*
X154114386Y-76218598D01*
X154102252Y-76220398D01*
X154090000Y-76221000D01*
X153840000Y-76221000D01*
X153827748Y-76220398D01*
X153815614Y-76218598D01*
X153803714Y-76215618D01*
X153792165Y-76211485D01*
X153781075Y-76206240D01*
X153770554Y-76199934D01*
X153760701Y-76192626D01*
X153751612Y-76184388D01*
X153743374Y-76175299D01*
X153736066Y-76165446D01*
X153729760Y-76154925D01*
X153724515Y-76143835D01*
X153720382Y-76132286D01*
X153717402Y-76120386D01*
X153715602Y-76108252D01*
X153715000Y-76096000D01*
X153715000Y-74721000D01*
X153715602Y-74708748D01*
X153717402Y-74696614D01*
X153720382Y-74684714D01*
X153724515Y-74673165D01*
X153729760Y-74662075D01*
X153736066Y-74651554D01*
X153743374Y-74641701D01*
X153751612Y-74632612D01*
X153760701Y-74624374D01*
X153770554Y-74617066D01*
X153781075Y-74610760D01*
X153792165Y-74605515D01*
X153803714Y-74601382D01*
X153815614Y-74598402D01*
X153827748Y-74596602D01*
X153840000Y-74596000D01*
X154090000Y-74596000D01*
X154102252Y-74596602D01*
G37*
G36*
X154752252Y-74596602D02*
G01*
X154764386Y-74598402D01*
X154776286Y-74601382D01*
X154787835Y-74605515D01*
X154798925Y-74610760D01*
X154809446Y-74617066D01*
X154819299Y-74624374D01*
X154828388Y-74632612D01*
X154836626Y-74641701D01*
X154843934Y-74651554D01*
X154850240Y-74662075D01*
X154855485Y-74673165D01*
X154859618Y-74684714D01*
X154862598Y-74696614D01*
X154864398Y-74708748D01*
X154865000Y-74721000D01*
X154865000Y-76096000D01*
X154864398Y-76108252D01*
X154862598Y-76120386D01*
X154859618Y-76132286D01*
X154855485Y-76143835D01*
X154850240Y-76154925D01*
X154843934Y-76165446D01*
X154836626Y-76175299D01*
X154828388Y-76184388D01*
X154819299Y-76192626D01*
X154809446Y-76199934D01*
X154798925Y-76206240D01*
X154787835Y-76211485D01*
X154776286Y-76215618D01*
X154764386Y-76218598D01*
X154752252Y-76220398D01*
X154740000Y-76221000D01*
X154490000Y-76221000D01*
X154477748Y-76220398D01*
X154465614Y-76218598D01*
X154453714Y-76215618D01*
X154442165Y-76211485D01*
X154431075Y-76206240D01*
X154420554Y-76199934D01*
X154410701Y-76192626D01*
X154401612Y-76184388D01*
X154393374Y-76175299D01*
X154386066Y-76165446D01*
X154379760Y-76154925D01*
X154374515Y-76143835D01*
X154370382Y-76132286D01*
X154367402Y-76120386D01*
X154365602Y-76108252D01*
X154365000Y-76096000D01*
X154365000Y-74721000D01*
X154365602Y-74708748D01*
X154367402Y-74696614D01*
X154370382Y-74684714D01*
X154374515Y-74673165D01*
X154379760Y-74662075D01*
X154386066Y-74651554D01*
X154393374Y-74641701D01*
X154401612Y-74632612D01*
X154410701Y-74624374D01*
X154420554Y-74617066D01*
X154431075Y-74610760D01*
X154442165Y-74605515D01*
X154453714Y-74601382D01*
X154465614Y-74598402D01*
X154477748Y-74596602D01*
X154490000Y-74596000D01*
X154740000Y-74596000D01*
X154752252Y-74596602D01*
G37*
G36*
X154752252Y-70371602D02*
G01*
X154764386Y-70373402D01*
X154776286Y-70376382D01*
X154787835Y-70380515D01*
X154798925Y-70385760D01*
X154809446Y-70392066D01*
X154819299Y-70399374D01*
X154828388Y-70407612D01*
X154836626Y-70416701D01*
X154843934Y-70426554D01*
X154850240Y-70437075D01*
X154855485Y-70448165D01*
X154859618Y-70459714D01*
X154862598Y-70471614D01*
X154864398Y-70483748D01*
X154865000Y-70496000D01*
X154865000Y-71871000D01*
X154864398Y-71883252D01*
X154862598Y-71895386D01*
X154859618Y-71907286D01*
X154855485Y-71918835D01*
X154850240Y-71929925D01*
X154843934Y-71940446D01*
X154836626Y-71950299D01*
X154828388Y-71959388D01*
X154819299Y-71967626D01*
X154809446Y-71974934D01*
X154798925Y-71981240D01*
X154787835Y-71986485D01*
X154776286Y-71990618D01*
X154764386Y-71993598D01*
X154752252Y-71995398D01*
X154740000Y-71996000D01*
X154490000Y-71996000D01*
X154477748Y-71995398D01*
X154465614Y-71993598D01*
X154453714Y-71990618D01*
X154442165Y-71986485D01*
X154431075Y-71981240D01*
X154420554Y-71974934D01*
X154410701Y-71967626D01*
X154401612Y-71959388D01*
X154393374Y-71950299D01*
X154386066Y-71940446D01*
X154379760Y-71929925D01*
X154374515Y-71918835D01*
X154370382Y-71907286D01*
X154367402Y-71895386D01*
X154365602Y-71883252D01*
X154365000Y-71871000D01*
X154365000Y-70496000D01*
X154365602Y-70483748D01*
X154367402Y-70471614D01*
X154370382Y-70459714D01*
X154374515Y-70448165D01*
X154379760Y-70437075D01*
X154386066Y-70426554D01*
X154393374Y-70416701D01*
X154401612Y-70407612D01*
X154410701Y-70399374D01*
X154420554Y-70392066D01*
X154431075Y-70385760D01*
X154442165Y-70380515D01*
X154453714Y-70376382D01*
X154465614Y-70373402D01*
X154477748Y-70371602D01*
X154490000Y-70371000D01*
X154740000Y-70371000D01*
X154752252Y-70371602D01*
G37*
G36*
X154102252Y-70371602D02*
G01*
X154114386Y-70373402D01*
X154126286Y-70376382D01*
X154137835Y-70380515D01*
X154148925Y-70385760D01*
X154159446Y-70392066D01*
X154169299Y-70399374D01*
X154178388Y-70407612D01*
X154186626Y-70416701D01*
X154193934Y-70426554D01*
X154200240Y-70437075D01*
X154205485Y-70448165D01*
X154209618Y-70459714D01*
X154212598Y-70471614D01*
X154214398Y-70483748D01*
X154215000Y-70496000D01*
X154215000Y-71871000D01*
X154214398Y-71883252D01*
X154212598Y-71895386D01*
X154209618Y-71907286D01*
X154205485Y-71918835D01*
X154200240Y-71929925D01*
X154193934Y-71940446D01*
X154186626Y-71950299D01*
X154178388Y-71959388D01*
X154169299Y-71967626D01*
X154159446Y-71974934D01*
X154148925Y-71981240D01*
X154137835Y-71986485D01*
X154126286Y-71990618D01*
X154114386Y-71993598D01*
X154102252Y-71995398D01*
X154090000Y-71996000D01*
X153840000Y-71996000D01*
X153827748Y-71995398D01*
X153815614Y-71993598D01*
X153803714Y-71990618D01*
X153792165Y-71986485D01*
X153781075Y-71981240D01*
X153770554Y-71974934D01*
X153760701Y-71967626D01*
X153751612Y-71959388D01*
X153743374Y-71950299D01*
X153736066Y-71940446D01*
X153729760Y-71929925D01*
X153724515Y-71918835D01*
X153720382Y-71907286D01*
X153717402Y-71895386D01*
X153715602Y-71883252D01*
X153715000Y-71871000D01*
X153715000Y-70496000D01*
X153715602Y-70483748D01*
X153717402Y-70471614D01*
X153720382Y-70459714D01*
X153724515Y-70448165D01*
X153729760Y-70437075D01*
X153736066Y-70426554D01*
X153743374Y-70416701D01*
X153751612Y-70407612D01*
X153760701Y-70399374D01*
X153770554Y-70392066D01*
X153781075Y-70385760D01*
X153792165Y-70380515D01*
X153803714Y-70376382D01*
X153815614Y-70373402D01*
X153827748Y-70371602D01*
X153840000Y-70371000D01*
X154090000Y-70371000D01*
X154102252Y-70371602D01*
G37*
G36*
X153452252Y-70371602D02*
G01*
X153464386Y-70373402D01*
X153476286Y-70376382D01*
X153487835Y-70380515D01*
X153498925Y-70385760D01*
X153509446Y-70392066D01*
X153519299Y-70399374D01*
X153528388Y-70407612D01*
X153536626Y-70416701D01*
X153543934Y-70426554D01*
X153550240Y-70437075D01*
X153555485Y-70448165D01*
X153559618Y-70459714D01*
X153562598Y-70471614D01*
X153564398Y-70483748D01*
X153565000Y-70496000D01*
X153565000Y-71871000D01*
X153564398Y-71883252D01*
X153562598Y-71895386D01*
X153559618Y-71907286D01*
X153555485Y-71918835D01*
X153550240Y-71929925D01*
X153543934Y-71940446D01*
X153536626Y-71950299D01*
X153528388Y-71959388D01*
X153519299Y-71967626D01*
X153509446Y-71974934D01*
X153498925Y-71981240D01*
X153487835Y-71986485D01*
X153476286Y-71990618D01*
X153464386Y-71993598D01*
X153452252Y-71995398D01*
X153440000Y-71996000D01*
X153190000Y-71996000D01*
X153177748Y-71995398D01*
X153165614Y-71993598D01*
X153153714Y-71990618D01*
X153142165Y-71986485D01*
X153131075Y-71981240D01*
X153120554Y-71974934D01*
X153110701Y-71967626D01*
X153101612Y-71959388D01*
X153093374Y-71950299D01*
X153086066Y-71940446D01*
X153079760Y-71929925D01*
X153074515Y-71918835D01*
X153070382Y-71907286D01*
X153067402Y-71895386D01*
X153065602Y-71883252D01*
X153065000Y-71871000D01*
X153065000Y-70496000D01*
X153065602Y-70483748D01*
X153067402Y-70471614D01*
X153070382Y-70459714D01*
X153074515Y-70448165D01*
X153079760Y-70437075D01*
X153086066Y-70426554D01*
X153093374Y-70416701D01*
X153101612Y-70407612D01*
X153110701Y-70399374D01*
X153120554Y-70392066D01*
X153131075Y-70385760D01*
X153142165Y-70380515D01*
X153153714Y-70376382D01*
X153165614Y-70373402D01*
X153177748Y-70371602D01*
X153190000Y-70371000D01*
X153440000Y-70371000D01*
X153452252Y-70371602D01*
G37*
G36*
X152802252Y-70371602D02*
G01*
X152814386Y-70373402D01*
X152826286Y-70376382D01*
X152837835Y-70380515D01*
X152848925Y-70385760D01*
X152859446Y-70392066D01*
X152869299Y-70399374D01*
X152878388Y-70407612D01*
X152886626Y-70416701D01*
X152893934Y-70426554D01*
X152900240Y-70437075D01*
X152905485Y-70448165D01*
X152909618Y-70459714D01*
X152912598Y-70471614D01*
X152914398Y-70483748D01*
X152915000Y-70496000D01*
X152915000Y-71871000D01*
X152914398Y-71883252D01*
X152912598Y-71895386D01*
X152909618Y-71907286D01*
X152905485Y-71918835D01*
X152900240Y-71929925D01*
X152893934Y-71940446D01*
X152886626Y-71950299D01*
X152878388Y-71959388D01*
X152869299Y-71967626D01*
X152859446Y-71974934D01*
X152848925Y-71981240D01*
X152837835Y-71986485D01*
X152826286Y-71990618D01*
X152814386Y-71993598D01*
X152802252Y-71995398D01*
X152790000Y-71996000D01*
X152540000Y-71996000D01*
X152527748Y-71995398D01*
X152515614Y-71993598D01*
X152503714Y-71990618D01*
X152492165Y-71986485D01*
X152481075Y-71981240D01*
X152470554Y-71974934D01*
X152460701Y-71967626D01*
X152451612Y-71959388D01*
X152443374Y-71950299D01*
X152436066Y-71940446D01*
X152429760Y-71929925D01*
X152424515Y-71918835D01*
X152420382Y-71907286D01*
X152417402Y-71895386D01*
X152415602Y-71883252D01*
X152415000Y-71871000D01*
X152415000Y-70496000D01*
X152415602Y-70483748D01*
X152417402Y-70471614D01*
X152420382Y-70459714D01*
X152424515Y-70448165D01*
X152429760Y-70437075D01*
X152436066Y-70426554D01*
X152443374Y-70416701D01*
X152451612Y-70407612D01*
X152460701Y-70399374D01*
X152470554Y-70392066D01*
X152481075Y-70385760D01*
X152492165Y-70380515D01*
X152503714Y-70376382D01*
X152515614Y-70373402D01*
X152527748Y-70371602D01*
X152540000Y-70371000D01*
X152790000Y-70371000D01*
X152802252Y-70371602D01*
G37*
D22*
X167990000Y-68846160D03*
X167990000Y-71386160D03*
X173228000Y-68569840D03*
X173228000Y-66029840D03*
D24*
X165690000Y-78957840D03*
D21*
X165690000Y-77454160D03*
X180594000Y-77978000D03*
D24*
X180594000Y-79481680D03*
D25*
X154531840Y-68686000D03*
D20*
X153028160Y-68686000D03*
D21*
X160680000Y-62806000D03*
D24*
X160680000Y-61302320D03*
X160550000Y-66637840D03*
D21*
X160550000Y-65134160D03*
X156690000Y-68542320D03*
X156690000Y-70046000D03*
X149240000Y-70106000D03*
X149240000Y-68602320D03*
D22*
X160740000Y-69066000D03*
X160740000Y-71606000D03*
X160740000Y-74146000D03*
D26*
X149989940Y-63356000D03*
X153490060Y-63356000D03*
D21*
X170420000Y-88934160D03*
X170420000Y-90437840D03*
D20*
X167991840Y-89856000D03*
X166488160Y-89856000D03*
D21*
X171740000Y-76854160D03*
X171740000Y-78357840D03*
D20*
X167913160Y-78581000D03*
X169416840Y-78581000D03*
X173990000Y-72356000D03*
X172486320Y-72356000D03*
D21*
X178816000Y-76210160D03*
X178816000Y-77713840D03*
D27*
X166835000Y-86556000D03*
X168105000Y-86556000D03*
X169375000Y-86556000D03*
X170645000Y-86556000D03*
X170645000Y-81156000D03*
X169375000Y-81156000D03*
X168105000Y-81156000D03*
X166835000Y-81156000D03*
D22*
X164190000Y-67216000D03*
X164190000Y-69756000D03*
X164190000Y-72296000D03*
D21*
X186436000Y-89418160D03*
D24*
X186436000Y-90921840D03*
X189992000Y-90170000D03*
D21*
X189992000Y-91673680D03*
X192024000Y-73924160D03*
D24*
X192024000Y-75427840D03*
X189738000Y-75427840D03*
D21*
X189738000Y-73924160D03*
D24*
X198490000Y-91707840D03*
D21*
X198490000Y-90204160D03*
D20*
X195138160Y-88756000D03*
D25*
X196641840Y-88756000D03*
D28*
X197612000Y-83461860D03*
X197612000Y-80622140D03*
D29*
X155702000Y-84089240D03*
D30*
X150291800Y-88590120D03*
X150291800Y-82489040D03*
X161117280Y-88590120D03*
X161117280Y-82489040D03*
D29*
X155702000Y-88590120D03*
D31*
X186230000Y-64786000D03*
X183690000Y-64786000D03*
X181150000Y-64786000D03*
X181150000Y-67326000D03*
X183690000Y-67326000D03*
X186230000Y-67326000D03*
D22*
X176530000Y-88900000D03*
X176530000Y-86360000D03*
X176530000Y-83820000D03*
D20*
X193938160Y-63156000D03*
X195441840Y-63156000D03*
D21*
X195790000Y-91807840D03*
X195790000Y-90304160D03*
D20*
X183143680Y-83631000D03*
X181640000Y-83631000D03*
X182088160Y-85581000D03*
X183591840Y-85581000D03*
D21*
X197490000Y-77607840D03*
X197490000Y-76104160D03*
D32*
X186938000Y-86546000D03*
X187738000Y-86546000D03*
X188538000Y-86546000D03*
X189338000Y-86546000D03*
X190138000Y-86546000D03*
X190938000Y-86546000D03*
X191738000Y-86546000D03*
X192538000Y-86546000D03*
D33*
X193988000Y-85096000D03*
X193988000Y-84296000D03*
X193988000Y-83496000D03*
X193988000Y-82696000D03*
X193988000Y-81896000D03*
X193988000Y-81096000D03*
X193988000Y-80296000D03*
X193988000Y-79496000D03*
D32*
X192538000Y-78046000D03*
X191738000Y-78046000D03*
X190938000Y-78046000D03*
X190138000Y-78046000D03*
X189338000Y-78046000D03*
X188538000Y-78046000D03*
X187738000Y-78046000D03*
X186938000Y-78046000D03*
D33*
X185488000Y-79496000D03*
X185488000Y-80296000D03*
X185488000Y-81096000D03*
X185488000Y-81896000D03*
X185488000Y-82696000D03*
X185488000Y-83496000D03*
X185488000Y-84296000D03*
X185488000Y-85096000D03*
D34*
X191528000Y-89678000D03*
X191528000Y-91678000D03*
X193028000Y-89678000D03*
X193028000Y-91678000D03*
D21*
X181102000Y-74411840D03*
D24*
X181102000Y-72908160D03*
M02*
