M48
; DRILL file {KiCad 5.1.5-52549c5~86~ubuntu18.04.1} date Fri 11 Dec 2020 09:21:47 PM PST
; FORMAT={-:-/ absolute / metric / decimal}
; #@! TF.CreationDate,2020-12-11T21:21:47-08:00
; #@! TF.GenerationSoftware,Kicad,Pcbnew,5.1.5-52549c5~86~ubuntu18.04.1
FMAT,2
METRIC
T1C0.400
T2C0.500
T3C0.900
T4C1.300
T5C1.300
T6C2.600
%
G90
G05
T1
X140.7Y-138.7
X140.7Y-156.1
X140.8Y-103.2
X140.8Y-120.6
X140.9Y-131.8
X140.9Y-149.2
X141.0Y-96.3
X141.0Y-113.7
X142.2Y-131.65
X142.2Y-149.05
X142.3Y-96.15
X142.3Y-113.55
X143.5Y-138.8
X143.5Y-156.2
X143.6Y-103.3
X143.6Y-120.7
X146.7Y-135.7
X146.7Y-153.1
X146.8Y-100.2
X146.8Y-117.6
X148.35Y-143.5
X148.45Y-108.0
X149.76Y-158.564
X149.86Y-123.064
X150.58Y-161.3
X150.68Y-125.8
X154.9Y-139.95
X155.0Y-104.45
X156.9Y-140.0
X157.0Y-104.5
X160.55Y-142.3
X160.65Y-106.8
X162.8Y-143.2
X162.9Y-107.7
X174.9Y-138.8
X174.9Y-156.2
X175.0Y-103.3
X175.0Y-120.7
X175.1Y-131.9
X175.1Y-149.3
X175.2Y-96.4
X175.2Y-113.8
X176.4Y-131.75
X176.4Y-149.15
X176.5Y-96.25
X176.5Y-113.65
X177.7Y-138.9
X177.7Y-156.3
X177.8Y-103.4
X177.8Y-120.8
X180.9Y-135.8
X180.9Y-153.2
X181.0Y-100.3
X181.0Y-117.7
X182.55Y-143.6
X182.65Y-108.1
X183.96Y-158.664
X184.06Y-123.164
X184.78Y-161.4
X184.88Y-125.9
X189.1Y-140.05
X189.2Y-104.55
X191.1Y-140.1
X191.2Y-104.6
X194.75Y-142.4
X194.85Y-106.9
X197.0Y-143.3
X197.1Y-107.8
T2
X142.238Y-99.238
X142.238Y-100.762
X143.0Y-100.0
X143.762Y-99.238
X143.762Y-100.762
X176.338Y-152.238
X176.338Y-153.762
X177.1Y-153.0
X177.862Y-152.238
X177.862Y-153.762
X142.138Y-152.138
X142.138Y-153.662
X142.9Y-152.9
X143.662Y-152.138
X143.662Y-153.662
X142.138Y-134.738
X142.138Y-136.262
X142.9Y-135.5
X143.662Y-134.738
X143.662Y-136.262
X176.438Y-99.338
X176.438Y-100.862
X177.2Y-100.1
X177.962Y-99.338
X177.962Y-100.862
X142.238Y-116.638
X142.238Y-118.162
X143.0Y-117.4
X143.762Y-116.638
X143.762Y-118.162
X176.338Y-134.838
X176.338Y-136.362
X177.1Y-135.6
X177.862Y-134.838
X177.862Y-136.362
X176.438Y-116.738
X176.438Y-118.262
X177.2Y-117.5
X177.962Y-116.738
X177.962Y-118.262
T3
X186.656Y-123.148
X189.156Y-123.148
X191.156Y-123.148
X193.656Y-123.148
X152.456Y-123.048
X154.956Y-123.048
X156.956Y-123.048
X159.456Y-123.048
X152.356Y-158.548
X154.856Y-158.548
X156.856Y-158.548
X159.356Y-158.548
X186.556Y-158.648
X189.056Y-158.648
X191.056Y-158.648
X193.556Y-158.648
T5
X153.4Y-138.3
X158.3Y-138.3
X153.5Y-102.8
X158.4Y-102.8
X187.6Y-138.4
X192.5Y-138.4
X187.7Y-102.9
X192.6Y-102.9
T6
X200.2Y-117.5
X137.9Y-135.5
X172.2Y-100.1
X172.2Y-117.5
X137.9Y-152.9
X166.0Y-117.4
X200.2Y-100.1
X172.1Y-135.6
X200.1Y-135.6
X165.9Y-152.9
X166.0Y-100.0
X172.1Y-153.0
X138.0Y-117.4
X138.0Y-100.0
X165.9Y-135.5
X200.1Y-153.0
T4
G00X149.286Y-156.648
M15
G01X149.286Y-155.648
M16
G05
G00X162.426Y-155.648
M15
G01X162.426Y-156.648
M16
G05
G00X183.486Y-156.748
M15
G01X183.486Y-155.748
M16
G05
G00X196.626Y-155.748
M15
G01X196.626Y-156.748
M16
G05
G00X183.586Y-121.248
M15
G01X183.586Y-120.248
M16
G05
G00X196.726Y-120.248
M15
G01X196.726Y-121.248
M16
G05
G00X149.386Y-121.148
M15
G01X149.386Y-120.148
M16
G05
G00X162.526Y-120.148
M15
G01X162.526Y-121.148
M16
G05
T0
M30
