M48
;DRILL file {Pcbnew (2013-08-24 BZR 4298)-stable} date Thu 29 May 2014 09:30:57 PM PDT
;FORMAT={-:-/ absolute / metric / decimal}
FMAT,2
METRIC,TZ
T1C0.400
T2C0.500
%
G90
G05
M71
T1
X114.5Y-94.
X129.475Y-92.75
X130.1Y-99.2
X130.6Y-107.125
X131.605Y-92.79
X131.95Y-98.75
X135.025Y-108.325
X136.Y-91.25
X138.75Y-85.25
X139.Y-87.675
X139.075Y-97.025
X139.675Y-93.925
X140.425Y-105.375
X141.5Y-79.
X142.5Y-89.75
X146.425Y-101.725
T2
X137.425Y-100.925
X137.425Y-102.075
X138.Y-101.5
X138.575Y-100.925
X138.575Y-102.075
T0
M30
