G04 (created by PCBNEW (2013-08-24 BZR 4298)-stable) date Thu 29 May 2014 09:30:55 PM PDT*
%MOIN*%
G04 Gerber Fmt 3.4, Leading zero omitted, Abs format*
%FSLAX34Y34*%
G01*
G70*
G90*
G04 APERTURE LIST*
%ADD10C,0.005906*%
%ADD11C,0.005000*%
%ADD12C,0.005900*%
%ADD13C,0.007900*%
%ADD14C,0.010000*%
%ADD15C,0.001600*%
%ADD16C,0.012000*%
%ADD17C,0.004700*%
%ADD18C,0.003700*%
%ADD19C,0.003900*%
G04 APERTURE END LIST*
G54D10*
G54D11*
X55991Y-38231D02*
X56311Y-38231D01*
X56301Y-37791D02*
X55991Y-37791D01*
X56311Y-37691D02*
X56311Y-38331D01*
X56311Y-38331D02*
X55991Y-38331D01*
X55991Y-38331D02*
X55991Y-37691D01*
X55991Y-37691D02*
X56311Y-37691D01*
X55484Y-37673D02*
X55164Y-37673D01*
X55174Y-38113D02*
X55484Y-38113D01*
X55164Y-38213D02*
X55164Y-37573D01*
X55164Y-37573D02*
X55484Y-37573D01*
X55484Y-37573D02*
X55484Y-38213D01*
X55484Y-38213D02*
X55164Y-38213D01*
X53284Y-37493D02*
X53604Y-37493D01*
X53594Y-37053D02*
X53284Y-37053D01*
X53604Y-36953D02*
X53604Y-37593D01*
X53604Y-37593D02*
X53284Y-37593D01*
X53284Y-37593D02*
X53284Y-36953D01*
X53284Y-36953D02*
X53604Y-36953D01*
X54091Y-41680D02*
X54091Y-42000D01*
X54531Y-41990D02*
X54531Y-41680D01*
X54631Y-42000D02*
X53991Y-42000D01*
X53991Y-42000D02*
X53991Y-41680D01*
X53991Y-41680D02*
X54631Y-41680D01*
X54631Y-41680D02*
X54631Y-42000D01*
X54121Y-37493D02*
X54441Y-37493D01*
X54431Y-37053D02*
X54121Y-37053D01*
X54441Y-36953D02*
X54441Y-37593D01*
X54441Y-37593D02*
X54121Y-37593D01*
X54121Y-37593D02*
X54121Y-36953D01*
X54121Y-36953D02*
X54441Y-36953D01*
X56384Y-39869D02*
X56384Y-40189D01*
X56824Y-40179D02*
X56824Y-39869D01*
X56924Y-40189D02*
X56284Y-40189D01*
X56284Y-40189D02*
X56284Y-39869D01*
X56284Y-39869D02*
X56924Y-39869D01*
X56924Y-39869D02*
X56924Y-40189D01*
X56384Y-40627D02*
X56384Y-40947D01*
X56824Y-40937D02*
X56824Y-40627D01*
X56924Y-40947D02*
X56284Y-40947D01*
X56284Y-40947D02*
X56284Y-40627D01*
X56284Y-40627D02*
X56924Y-40627D01*
X56924Y-40627D02*
X56924Y-40947D01*
X51374Y-40991D02*
X51374Y-41311D01*
X51814Y-41301D02*
X51814Y-40991D01*
X51914Y-41311D02*
X51274Y-41311D01*
X51274Y-41311D02*
X51274Y-40991D01*
X51274Y-40991D02*
X51914Y-40991D01*
X51914Y-40991D02*
X51914Y-41311D01*
G54D12*
X55118Y-39251D02*
X55118Y-40748D01*
X55039Y-39173D02*
X53543Y-39173D01*
X55118Y-39251D02*
X55039Y-39173D01*
X53543Y-40748D02*
X53543Y-39173D01*
X55118Y-40748D02*
X53543Y-40748D01*
G54D11*
X44448Y-34960D02*
X45059Y-34960D01*
X45059Y-34960D02*
X45059Y-32362D01*
X45059Y-32362D02*
X44458Y-32362D01*
G54D13*
X50432Y-36221D02*
X44448Y-36221D01*
X44448Y-36221D02*
X44448Y-31101D01*
X44448Y-31101D02*
X50432Y-31101D01*
X50432Y-31101D02*
X50432Y-36221D01*
G54D11*
X44448Y-42047D02*
X45059Y-42047D01*
X45059Y-42047D02*
X45059Y-39448D01*
X45059Y-39448D02*
X44458Y-39448D01*
G54D13*
X50432Y-43308D02*
X44448Y-43308D01*
X44448Y-43308D02*
X44448Y-38188D01*
X44448Y-38188D02*
X50432Y-38188D01*
X50432Y-38188D02*
X50432Y-43308D01*
G54D11*
X51962Y-35161D02*
X52762Y-35161D01*
X52912Y-35111D02*
X51812Y-35111D01*
X51712Y-35061D02*
X53012Y-35061D01*
X53112Y-35011D02*
X51612Y-35011D01*
X53162Y-34961D02*
X51562Y-34961D01*
X51462Y-34911D02*
X53262Y-34911D01*
X53912Y-33661D02*
G75*
G03X53912Y-33661I-1550J0D01*
G74*
G01*
X50712Y-35311D02*
X54012Y-35311D01*
X54012Y-35311D02*
X54012Y-32311D01*
X54012Y-32311D02*
X53712Y-32011D01*
X53712Y-32011D02*
X51012Y-32011D01*
X51012Y-32011D02*
X50712Y-32311D01*
X50712Y-32311D02*
X50712Y-35311D01*
X52362Y-32211D02*
X52362Y-32511D01*
X52212Y-32361D02*
X52512Y-32361D01*
X51358Y-40482D02*
X51515Y-40482D01*
X51358Y-39694D02*
X51358Y-40482D01*
X51358Y-39694D02*
X51515Y-39694D01*
X51850Y-39694D02*
X51692Y-39694D01*
X51850Y-39694D02*
X51850Y-40482D01*
X51850Y-40482D02*
X51692Y-40482D01*
G54D14*
X56771Y-36437D02*
X56771Y-30098D01*
X56771Y-30098D02*
X63897Y-30098D01*
X63897Y-30098D02*
X63897Y-36437D01*
X63897Y-36437D02*
X56771Y-36437D01*
G54D15*
X56437Y-38024D02*
X56399Y-38051D01*
X56437Y-38070D02*
X56358Y-38070D01*
X56358Y-38040D01*
X56362Y-38032D01*
X56365Y-38028D01*
X56373Y-38024D01*
X56384Y-38024D01*
X56392Y-38028D01*
X56395Y-38032D01*
X56399Y-38040D01*
X56399Y-38070D01*
X56358Y-37998D02*
X56358Y-37949D01*
X56388Y-37976D01*
X56388Y-37964D01*
X56392Y-37957D01*
X56395Y-37953D01*
X56403Y-37949D01*
X56422Y-37949D01*
X56429Y-37953D01*
X56433Y-37957D01*
X56437Y-37964D01*
X56437Y-37987D01*
X56433Y-37994D01*
X56429Y-37998D01*
X55110Y-37906D02*
X55072Y-37933D01*
X55110Y-37952D02*
X55031Y-37952D01*
X55031Y-37921D01*
X55035Y-37914D01*
X55039Y-37910D01*
X55046Y-37906D01*
X55057Y-37906D01*
X55065Y-37910D01*
X55069Y-37914D01*
X55072Y-37921D01*
X55072Y-37952D01*
X55031Y-37835D02*
X55031Y-37873D01*
X55069Y-37876D01*
X55065Y-37873D01*
X55061Y-37865D01*
X55061Y-37846D01*
X55065Y-37839D01*
X55069Y-37835D01*
X55076Y-37831D01*
X55095Y-37831D01*
X55103Y-37835D01*
X55106Y-37839D01*
X55110Y-37846D01*
X55110Y-37865D01*
X55106Y-37873D01*
X55103Y-37876D01*
X53730Y-37286D02*
X53693Y-37313D01*
X53730Y-37331D02*
X53651Y-37331D01*
X53651Y-37301D01*
X53655Y-37294D01*
X53659Y-37290D01*
X53666Y-37286D01*
X53677Y-37286D01*
X53685Y-37290D01*
X53689Y-37294D01*
X53693Y-37301D01*
X53693Y-37331D01*
X53677Y-37219D02*
X53730Y-37219D01*
X53647Y-37237D02*
X53704Y-37256D01*
X53704Y-37207D01*
X54297Y-42118D02*
X54294Y-42122D01*
X54282Y-42126D01*
X54275Y-42126D01*
X54264Y-42122D01*
X54256Y-42115D01*
X54252Y-42107D01*
X54248Y-42092D01*
X54248Y-42081D01*
X54252Y-42066D01*
X54256Y-42058D01*
X54264Y-42051D01*
X54275Y-42047D01*
X54282Y-42047D01*
X54294Y-42051D01*
X54297Y-42054D01*
X54373Y-42126D02*
X54327Y-42126D01*
X54350Y-42126D02*
X54350Y-42047D01*
X54343Y-42058D01*
X54335Y-42066D01*
X54327Y-42069D01*
X54567Y-37286D02*
X54529Y-37313D01*
X54567Y-37331D02*
X54488Y-37331D01*
X54488Y-37301D01*
X54491Y-37294D01*
X54495Y-37290D01*
X54503Y-37286D01*
X54514Y-37286D01*
X54522Y-37290D01*
X54525Y-37294D01*
X54529Y-37301D01*
X54529Y-37331D01*
X54567Y-37211D02*
X54567Y-37256D01*
X54567Y-37234D02*
X54488Y-37234D01*
X54499Y-37241D01*
X54507Y-37249D01*
X54510Y-37256D01*
X56591Y-40315D02*
X56564Y-40277D01*
X56546Y-40315D02*
X56546Y-40236D01*
X56576Y-40236D01*
X56583Y-40240D01*
X56587Y-40243D01*
X56591Y-40251D01*
X56591Y-40262D01*
X56587Y-40270D01*
X56583Y-40273D01*
X56576Y-40277D01*
X56546Y-40277D01*
X56621Y-40243D02*
X56625Y-40240D01*
X56632Y-40236D01*
X56651Y-40236D01*
X56658Y-40240D01*
X56662Y-40243D01*
X56666Y-40251D01*
X56666Y-40258D01*
X56662Y-40270D01*
X56617Y-40315D01*
X56666Y-40315D01*
X56591Y-41065D02*
X56587Y-41069D01*
X56576Y-41073D01*
X56568Y-41073D01*
X56557Y-41069D01*
X56549Y-41061D01*
X56546Y-41054D01*
X56542Y-41039D01*
X56542Y-41027D01*
X56546Y-41012D01*
X56549Y-41005D01*
X56557Y-40997D01*
X56568Y-40994D01*
X56576Y-40994D01*
X56587Y-40997D01*
X56591Y-41001D01*
X56617Y-40994D02*
X56666Y-40994D01*
X56640Y-41024D01*
X56651Y-41024D01*
X56658Y-41027D01*
X56662Y-41031D01*
X56666Y-41039D01*
X56666Y-41058D01*
X56662Y-41065D01*
X56658Y-41069D01*
X56651Y-41073D01*
X56628Y-41073D01*
X56621Y-41069D01*
X56617Y-41065D01*
X51581Y-41429D02*
X51577Y-41433D01*
X51566Y-41437D01*
X51558Y-41437D01*
X51547Y-41433D01*
X51539Y-41426D01*
X51536Y-41418D01*
X51532Y-41403D01*
X51532Y-41392D01*
X51536Y-41377D01*
X51539Y-41369D01*
X51547Y-41362D01*
X51558Y-41358D01*
X51566Y-41358D01*
X51577Y-41362D01*
X51581Y-41365D01*
X51649Y-41384D02*
X51649Y-41437D01*
X51630Y-41354D02*
X51611Y-41410D01*
X51660Y-41410D01*
G54D10*
X55410Y-40136D02*
X55601Y-40136D01*
X55623Y-40125D01*
X55634Y-40114D01*
X55646Y-40091D01*
X55646Y-40046D01*
X55634Y-40024D01*
X55623Y-40012D01*
X55601Y-40001D01*
X55410Y-40001D01*
X55646Y-39765D02*
X55646Y-39900D01*
X55646Y-39832D02*
X55410Y-39832D01*
X55443Y-39855D01*
X55466Y-39877D01*
X55477Y-39900D01*
X53146Y-41134D02*
X52910Y-41134D01*
X52910Y-41078D01*
X52921Y-41044D01*
X52943Y-41021D01*
X52966Y-41010D01*
X53011Y-40999D01*
X53044Y-40999D01*
X53089Y-41010D01*
X53112Y-41021D01*
X53134Y-41044D01*
X53146Y-41078D01*
X53146Y-41134D01*
X53146Y-40763D02*
X53033Y-40841D01*
X53146Y-40898D02*
X52910Y-40898D01*
X52910Y-40808D01*
X52921Y-40785D01*
X52932Y-40774D01*
X52955Y-40763D01*
X52988Y-40763D01*
X53011Y-40774D01*
X53022Y-40785D01*
X53033Y-40808D01*
X53033Y-40898D01*
X52910Y-40695D02*
X53146Y-40616D01*
X52910Y-40538D01*
X53011Y-40425D02*
X53000Y-40448D01*
X52988Y-40459D01*
X52966Y-40470D01*
X52955Y-40470D01*
X52932Y-40459D01*
X52921Y-40448D01*
X52910Y-40425D01*
X52910Y-40380D01*
X52921Y-40358D01*
X52932Y-40347D01*
X52955Y-40335D01*
X52966Y-40335D01*
X52988Y-40347D01*
X53000Y-40358D01*
X53011Y-40380D01*
X53011Y-40425D01*
X53022Y-40448D01*
X53033Y-40459D01*
X53056Y-40470D01*
X53101Y-40470D01*
X53123Y-40459D01*
X53134Y-40448D01*
X53146Y-40425D01*
X53146Y-40380D01*
X53134Y-40358D01*
X53123Y-40347D01*
X53101Y-40335D01*
X53056Y-40335D01*
X53033Y-40347D01*
X53022Y-40358D01*
X53011Y-40380D01*
X53011Y-40200D02*
X53000Y-40223D01*
X52988Y-40234D01*
X52966Y-40245D01*
X52955Y-40245D01*
X52932Y-40234D01*
X52921Y-40223D01*
X52910Y-40200D01*
X52910Y-40155D01*
X52921Y-40133D01*
X52932Y-40122D01*
X52955Y-40110D01*
X52966Y-40110D01*
X52988Y-40122D01*
X53000Y-40133D01*
X53011Y-40155D01*
X53011Y-40200D01*
X53022Y-40223D01*
X53033Y-40234D01*
X53056Y-40245D01*
X53101Y-40245D01*
X53123Y-40234D01*
X53134Y-40223D01*
X53146Y-40200D01*
X53146Y-40155D01*
X53134Y-40133D01*
X53123Y-40122D01*
X53101Y-40110D01*
X53056Y-40110D01*
X53033Y-40122D01*
X53022Y-40133D01*
X53011Y-40155D01*
X52910Y-39964D02*
X52910Y-39942D01*
X52921Y-39919D01*
X52932Y-39908D01*
X52955Y-39897D01*
X53000Y-39885D01*
X53056Y-39885D01*
X53101Y-39897D01*
X53123Y-39908D01*
X53134Y-39919D01*
X53146Y-39942D01*
X53146Y-39964D01*
X53134Y-39987D01*
X53123Y-39998D01*
X53101Y-40009D01*
X53056Y-40020D01*
X53000Y-40020D01*
X52955Y-40009D01*
X52932Y-39998D01*
X52921Y-39987D01*
X52910Y-39964D01*
X52910Y-39739D02*
X52910Y-39717D01*
X52921Y-39694D01*
X52932Y-39683D01*
X52955Y-39672D01*
X53000Y-39660D01*
X53056Y-39660D01*
X53101Y-39672D01*
X53123Y-39683D01*
X53134Y-39694D01*
X53146Y-39717D01*
X53146Y-39739D01*
X53134Y-39762D01*
X53123Y-39773D01*
X53101Y-39784D01*
X53056Y-39795D01*
X53000Y-39795D01*
X52955Y-39784D01*
X52932Y-39773D01*
X52921Y-39762D01*
X52910Y-39739D01*
X53168Y-39615D02*
X53168Y-39435D01*
X53146Y-39244D02*
X53033Y-39323D01*
X53146Y-39379D02*
X52910Y-39379D01*
X52910Y-39289D01*
X52921Y-39267D01*
X52932Y-39255D01*
X52955Y-39244D01*
X52988Y-39244D01*
X53011Y-39255D01*
X53022Y-39267D01*
X53033Y-39289D01*
X53033Y-39379D01*
X52910Y-39177D02*
X52910Y-39042D01*
X53146Y-39109D02*
X52910Y-39109D01*
X53033Y-38918D02*
X53146Y-38918D01*
X52910Y-38997D02*
X53033Y-38918D01*
X52910Y-38839D01*
X55979Y-42136D02*
X55979Y-41743D01*
X55979Y-41930D02*
X56204Y-41930D01*
X56204Y-42136D02*
X56204Y-41743D01*
X56598Y-42136D02*
X56373Y-42136D01*
X56485Y-42136D02*
X56485Y-41743D01*
X56448Y-41799D01*
X56410Y-41836D01*
X56373Y-41855D01*
X55741Y-44115D02*
X55741Y-43721D01*
X55741Y-43908D02*
X55966Y-43908D01*
X55966Y-44115D02*
X55966Y-43721D01*
X56228Y-43721D02*
X56303Y-43721D01*
X56341Y-43740D01*
X56378Y-43777D01*
X56397Y-43852D01*
X56397Y-43983D01*
X56378Y-44058D01*
X56341Y-44096D01*
X56303Y-44115D01*
X56228Y-44115D01*
X56191Y-44096D01*
X56153Y-44058D01*
X56135Y-43983D01*
X56135Y-43852D01*
X56153Y-43777D01*
X56191Y-43740D01*
X56228Y-43721D01*
X56753Y-44115D02*
X56566Y-44115D01*
X56566Y-43721D01*
X56885Y-43908D02*
X57016Y-43908D01*
X57072Y-44115D02*
X56885Y-44115D01*
X56885Y-43721D01*
X57072Y-43721D01*
G54D16*
X47178Y-36544D02*
X47178Y-36973D01*
X47150Y-37059D01*
X47093Y-37116D01*
X47007Y-37144D01*
X46950Y-37144D01*
X47436Y-36601D02*
X47464Y-36573D01*
X47521Y-36544D01*
X47664Y-36544D01*
X47721Y-36573D01*
X47750Y-36601D01*
X47778Y-36659D01*
X47778Y-36716D01*
X47750Y-36801D01*
X47407Y-37144D01*
X47778Y-37144D01*
X47178Y-43631D02*
X47178Y-44060D01*
X47150Y-44145D01*
X47093Y-44202D01*
X47007Y-44231D01*
X46950Y-44231D01*
X47407Y-43631D02*
X47778Y-43631D01*
X47578Y-43860D01*
X47664Y-43860D01*
X47721Y-43888D01*
X47750Y-43917D01*
X47778Y-43974D01*
X47778Y-44117D01*
X47750Y-44174D01*
X47721Y-44202D01*
X47664Y-44231D01*
X47493Y-44231D01*
X47436Y-44202D01*
X47407Y-44174D01*
G54D17*
X50532Y-33694D02*
X50541Y-33703D01*
X50551Y-33731D01*
X50551Y-33750D01*
X50541Y-33778D01*
X50523Y-33797D01*
X50504Y-33806D01*
X50466Y-33816D01*
X50438Y-33816D01*
X50401Y-33806D01*
X50382Y-33797D01*
X50363Y-33778D01*
X50354Y-33750D01*
X50354Y-33731D01*
X50363Y-33703D01*
X50373Y-33694D01*
X50373Y-33619D02*
X50363Y-33609D01*
X50354Y-33591D01*
X50354Y-33544D01*
X50363Y-33525D01*
X50373Y-33516D01*
X50391Y-33506D01*
X50410Y-33506D01*
X50438Y-33516D01*
X50551Y-33628D01*
X50551Y-33506D01*
G54D18*
X52124Y-40123D02*
X52052Y-40173D01*
X52124Y-40209D02*
X51974Y-40209D01*
X51974Y-40152D01*
X51981Y-40137D01*
X51988Y-40130D01*
X52002Y-40123D01*
X52024Y-40123D01*
X52038Y-40130D01*
X52045Y-40137D01*
X52052Y-40152D01*
X52052Y-40209D01*
X51974Y-39995D02*
X51974Y-40023D01*
X51981Y-40037D01*
X51988Y-40045D01*
X52009Y-40059D01*
X52038Y-40066D01*
X52095Y-40066D01*
X52109Y-40059D01*
X52117Y-40052D01*
X52124Y-40037D01*
X52124Y-40009D01*
X52117Y-39995D01*
X52109Y-39987D01*
X52095Y-39980D01*
X52059Y-39980D01*
X52045Y-39987D01*
X52038Y-39995D01*
X52031Y-40009D01*
X52031Y-40037D01*
X52038Y-40052D01*
X52045Y-40059D01*
X52059Y-40066D01*
G54D10*
X61097Y-42136D02*
X61097Y-41743D01*
X61097Y-41930D02*
X61322Y-41930D01*
X61322Y-42136D02*
X61322Y-41743D01*
X61491Y-41780D02*
X61510Y-41761D01*
X61547Y-41743D01*
X61641Y-41743D01*
X61678Y-41761D01*
X61697Y-41780D01*
X61716Y-41818D01*
X61716Y-41855D01*
X61697Y-41911D01*
X61472Y-42136D01*
X61716Y-42136D01*
X60859Y-44115D02*
X60859Y-43721D01*
X60859Y-43908D02*
X61084Y-43908D01*
X61084Y-44115D02*
X61084Y-43721D01*
X61347Y-43721D02*
X61422Y-43721D01*
X61459Y-43740D01*
X61497Y-43777D01*
X61515Y-43852D01*
X61515Y-43983D01*
X61497Y-44058D01*
X61459Y-44096D01*
X61422Y-44115D01*
X61347Y-44115D01*
X61309Y-44096D01*
X61272Y-44058D01*
X61253Y-43983D01*
X61253Y-43852D01*
X61272Y-43777D01*
X61309Y-43740D01*
X61347Y-43721D01*
X61871Y-44115D02*
X61684Y-44115D01*
X61684Y-43721D01*
X62003Y-43908D02*
X62134Y-43908D01*
X62190Y-44115D02*
X62003Y-44115D01*
X62003Y-43721D01*
X62190Y-43721D01*
G54D19*
X54490Y-33693D02*
X54976Y-33693D01*
X55033Y-33664D01*
X55061Y-33636D01*
X55090Y-33579D01*
X55090Y-33464D01*
X55061Y-33407D01*
X55033Y-33379D01*
X54976Y-33350D01*
X54490Y-33350D01*
X54547Y-33093D02*
X54518Y-33064D01*
X54490Y-33007D01*
X54490Y-32864D01*
X54518Y-32807D01*
X54547Y-32779D01*
X54604Y-32750D01*
X54661Y-32750D01*
X54747Y-32779D01*
X55090Y-33121D01*
X55090Y-32750D01*
X65188Y-33897D02*
X64903Y-34097D01*
X65188Y-34240D02*
X64588Y-34240D01*
X64588Y-34012D01*
X64617Y-33954D01*
X64645Y-33926D01*
X64703Y-33897D01*
X64788Y-33897D01*
X64845Y-33926D01*
X64874Y-33954D01*
X64903Y-34012D01*
X64903Y-34240D01*
X64588Y-33469D02*
X65017Y-33469D01*
X65103Y-33497D01*
X65160Y-33554D01*
X65188Y-33640D01*
X65188Y-33697D01*
X65188Y-32869D02*
X65188Y-33212D01*
X65188Y-33040D02*
X64588Y-33040D01*
X64674Y-33097D01*
X64731Y-33154D01*
X64760Y-33212D01*
X64645Y-32640D02*
X64617Y-32612D01*
X64588Y-32554D01*
X64588Y-32412D01*
X64617Y-32354D01*
X64645Y-32326D01*
X64703Y-32297D01*
X64760Y-32297D01*
X64845Y-32326D01*
X65188Y-32669D01*
X65188Y-32297D01*
M02*
