G04 (created by PCBNEW (2013-08-24 BZR 4298)-stable) date Thu 29 May 2014 09:30:55 PM PDT*
%MOIN*%
G04 Gerber Fmt 3.4, Leading zero omitted, Abs format*
%FSLAX34Y34*%
G01*
G70*
G90*
G04 APERTURE LIST*
%ADD10C,0.005906*%
%ADD11C,0.011811*%
%ADD12R,0.039400X0.035400*%
%ADD13R,0.035400X0.039400*%
%ADD14R,0.082677X0.082677*%
%ADD15R,0.013780X0.039370*%
%ADD16R,0.039370X0.013780*%
%ADD17C,0.019685*%
%ADD18C,0.078700*%
%ADD19R,0.078700X0.078700*%
%ADD20R,0.094500X0.137800*%
%ADD21R,0.031496X0.078740*%
%ADD22R,0.250000X0.029921*%
%ADD23C,0.127953*%
%ADD24C,0.027559*%
%ADD25C,0.015748*%
G04 APERTURE END LIST*
G54D10*
G54D11*
X44815Y-44184D02*
X44815Y-43593D01*
X45012Y-44015D01*
X45209Y-43593D01*
X45209Y-44184D01*
X45603Y-43593D02*
X45715Y-43593D01*
X45771Y-43622D01*
X45828Y-43678D01*
X45856Y-43790D01*
X45856Y-43987D01*
X45828Y-44100D01*
X45771Y-44156D01*
X45715Y-44184D01*
X45603Y-44184D01*
X45546Y-44156D01*
X45490Y-44100D01*
X45462Y-43987D01*
X45462Y-43790D01*
X45490Y-43678D01*
X45546Y-43622D01*
X45603Y-43593D01*
X46025Y-43593D02*
X46362Y-43593D01*
X46193Y-44184D02*
X46193Y-43593D01*
X46671Y-43593D02*
X46784Y-43593D01*
X46840Y-43622D01*
X46896Y-43678D01*
X46924Y-43790D01*
X46924Y-43987D01*
X46896Y-44100D01*
X46840Y-44156D01*
X46784Y-44184D01*
X46671Y-44184D01*
X46615Y-44156D01*
X46559Y-44100D01*
X46531Y-43987D01*
X46531Y-43790D01*
X46559Y-43678D01*
X46615Y-43622D01*
X46671Y-43593D01*
X47515Y-44184D02*
X47318Y-43903D01*
X47178Y-44184D02*
X47178Y-43593D01*
X47402Y-43593D01*
X47459Y-43622D01*
X47487Y-43650D01*
X47515Y-43706D01*
X47515Y-43790D01*
X47487Y-43847D01*
X47459Y-43875D01*
X47402Y-43903D01*
X47178Y-43903D01*
G54D12*
X56151Y-38307D03*
X56151Y-37715D03*
X55324Y-37597D03*
X55324Y-38189D03*
X53444Y-37569D03*
X53444Y-36977D03*
G54D13*
X54015Y-41840D03*
X54607Y-41840D03*
G54D12*
X54281Y-37569D03*
X54281Y-36977D03*
G54D13*
X56308Y-40029D03*
X56900Y-40029D03*
X56308Y-40787D03*
X56900Y-40787D03*
X51298Y-41151D03*
X51890Y-41151D03*
G54D14*
X54330Y-39960D03*
G54D15*
X54714Y-39212D03*
X54458Y-39212D03*
X54202Y-39212D03*
X53946Y-39212D03*
G54D16*
X53582Y-39576D03*
X53582Y-39832D03*
X53582Y-40088D03*
X53582Y-40344D03*
G54D15*
X53946Y-40708D03*
X54202Y-40708D03*
X54458Y-40708D03*
X54714Y-40708D03*
G54D16*
X55078Y-40344D03*
X55078Y-40088D03*
X55078Y-39832D03*
X55078Y-39576D03*
G54D17*
X54330Y-39960D03*
X54557Y-40187D03*
X54557Y-39734D03*
X54104Y-40187D03*
X54104Y-39734D03*
G54D18*
X47834Y-33661D03*
G54D19*
X46062Y-31531D03*
X48464Y-31531D03*
X46062Y-35793D03*
X48464Y-35793D03*
G54D18*
X46062Y-33661D03*
X47834Y-40748D03*
G54D19*
X46062Y-38618D03*
X48464Y-38618D03*
X46062Y-42880D03*
X48464Y-42880D03*
G54D18*
X46062Y-40748D03*
G54D20*
X52362Y-32381D03*
X52362Y-34941D03*
G54D21*
X51850Y-40088D03*
X51358Y-40088D03*
G54D22*
X56801Y-34517D03*
X56801Y-33517D03*
X56801Y-32517D03*
X56801Y-33017D03*
X56801Y-32017D03*
G54D23*
X60826Y-31267D03*
X60826Y-35267D03*
G54D22*
X56801Y-34017D03*
G54D24*
X51948Y-38877D03*
X54724Y-34517D03*
X54753Y-38198D03*
X51220Y-39055D03*
X51812Y-36531D03*
X55285Y-41486D03*
X56102Y-35334D03*
X45078Y-37007D03*
X54625Y-33562D03*
X53543Y-35925D03*
X55708Y-31102D03*
X57647Y-40049D03*
X54990Y-36978D03*
X53159Y-42647D03*
X51417Y-42175D03*
X50974Y-36515D03*
G54D25*
X51850Y-38976D02*
X51850Y-40088D01*
X51948Y-38877D02*
X51850Y-38976D01*
X56801Y-34017D02*
X55224Y-34017D01*
X55224Y-34017D02*
X54724Y-34517D01*
X53582Y-40088D02*
X51850Y-40088D01*
X54458Y-39212D02*
X54458Y-38799D01*
X54458Y-38799D02*
X54753Y-38198D01*
X51358Y-40088D02*
X51358Y-39192D01*
X51358Y-39192D02*
X51220Y-39055D01*
X51298Y-41151D02*
X51298Y-40148D01*
X51298Y-40148D02*
X51358Y-40088D01*
X54714Y-40944D02*
X54940Y-41171D01*
X54940Y-41171D02*
X55049Y-41171D01*
X55285Y-41486D02*
X55049Y-41171D01*
X54714Y-40944D02*
X54714Y-40708D01*
X56801Y-34517D02*
X55836Y-34517D01*
X55905Y-34586D02*
X56102Y-35334D01*
X55836Y-34517D02*
X55905Y-34586D01*
X52362Y-34941D02*
X52362Y-35433D01*
X52362Y-35433D02*
X51812Y-36531D01*
X51812Y-36531D02*
X51812Y-36531D01*
X51812Y-36531D02*
X51812Y-36531D01*
X46062Y-35793D02*
X46062Y-36023D01*
X46062Y-36023D02*
X45078Y-37007D01*
X55078Y-39576D02*
X55610Y-39576D01*
X55885Y-39301D02*
X56151Y-38307D01*
X55610Y-39576D02*
X55885Y-39301D01*
X55078Y-39576D02*
X55108Y-39576D01*
X53582Y-39832D02*
X53110Y-39832D01*
X50738Y-37460D02*
X48632Y-37415D01*
X53110Y-39832D02*
X52470Y-38051D01*
X52470Y-38051D02*
X50738Y-37460D01*
X46062Y-38618D02*
X46062Y-37598D01*
X46259Y-37401D02*
X48632Y-37415D01*
X46062Y-37598D02*
X46259Y-37401D01*
X48622Y-38460D02*
X48464Y-38618D01*
X48622Y-37598D02*
X48622Y-38460D01*
X48652Y-37400D02*
X48622Y-37598D01*
X48632Y-37415D02*
X48652Y-37400D01*
X53946Y-40708D02*
X53946Y-40816D01*
X46062Y-43710D02*
X46062Y-42880D01*
X46299Y-43946D02*
X46062Y-43710D01*
X50816Y-43946D02*
X46299Y-43946D01*
X53946Y-40816D02*
X50816Y-43946D01*
X53946Y-40708D02*
X53946Y-40738D01*
X54202Y-39212D02*
X54202Y-37648D01*
X54202Y-37648D02*
X54281Y-37569D01*
X55324Y-37597D02*
X55541Y-36899D01*
X53899Y-32517D02*
X56801Y-32517D01*
X53248Y-32874D02*
X53899Y-32517D01*
X53248Y-34547D02*
X53248Y-32874D01*
X55541Y-36899D02*
X53248Y-34547D01*
X53444Y-36977D02*
X53444Y-36977D01*
X54671Y-33517D02*
X56801Y-33517D01*
X54625Y-33562D02*
X54671Y-33517D01*
X53444Y-36977D02*
X53543Y-35925D01*
X56102Y-36643D02*
X56102Y-37666D01*
X56102Y-36643D02*
X53641Y-34350D01*
X53641Y-34350D02*
X53641Y-33267D01*
X53641Y-33267D02*
X54187Y-33017D01*
X56801Y-33017D02*
X54187Y-33017D01*
X56102Y-37666D02*
X56151Y-37715D01*
X54458Y-40708D02*
X54458Y-41190D01*
X54607Y-41339D02*
X54607Y-41840D01*
X54458Y-41190D02*
X54607Y-41339D01*
X54202Y-40708D02*
X54202Y-41062D01*
X54015Y-41250D02*
X54015Y-41840D01*
X54202Y-41062D02*
X54015Y-41250D01*
X55078Y-40344D02*
X55482Y-40344D01*
X55925Y-40787D02*
X56308Y-40787D01*
X55482Y-40344D02*
X55925Y-40787D01*
X55078Y-39832D02*
X55757Y-39832D01*
X55954Y-40029D02*
X56308Y-40029D01*
X55757Y-39832D02*
X55954Y-40029D01*
X54714Y-39212D02*
X54714Y-38996D01*
X55324Y-38385D02*
X55324Y-38189D01*
X54714Y-38996D02*
X55324Y-38385D01*
X53946Y-39212D02*
X53946Y-38759D01*
X53946Y-38759D02*
X53444Y-37569D01*
X56801Y-32017D02*
X56131Y-32017D01*
X55708Y-31594D02*
X55708Y-31102D01*
X56131Y-32017D02*
X55708Y-31594D01*
X56900Y-40029D02*
X57362Y-40157D01*
X57362Y-40157D02*
X57647Y-40049D01*
X54990Y-36978D02*
X54665Y-36929D01*
X54281Y-36977D02*
X54665Y-36929D01*
X56900Y-41298D02*
X56900Y-40787D01*
X56604Y-41594D02*
X56900Y-41298D01*
X55846Y-41594D02*
X56604Y-41594D01*
X54793Y-42647D02*
X55846Y-41594D01*
X53159Y-42647D02*
X54793Y-42647D01*
X52362Y-32381D02*
X51949Y-32381D01*
X51890Y-41702D02*
X51890Y-41151D01*
X51417Y-42175D02*
X51890Y-41702D01*
X50974Y-33356D02*
X50974Y-36515D01*
X51949Y-32381D02*
X50974Y-33356D01*
X53582Y-40344D02*
X53208Y-40344D01*
X53208Y-40344D02*
X52401Y-41151D01*
X52401Y-41151D02*
X51890Y-41151D01*
X49212Y-30314D02*
X50915Y-30541D01*
X50915Y-30541D02*
X52362Y-32381D01*
X48464Y-31531D02*
X48464Y-31062D01*
X48464Y-31062D02*
X49212Y-30314D01*
X46062Y-31531D02*
X46062Y-30511D01*
X46259Y-30314D02*
X49212Y-30314D01*
X46062Y-30511D02*
X46259Y-30314D01*
M02*
