M48
;DRILL file {KiCad 4.0.7} date 03/20/19 16:05:23
;FORMAT={-:-/ absolute / metric / decimal}
FMAT,2
METRIC,TZ
T1C0.300
T2C0.400
T3C0.500
T4C0.890
T5C1.000
T6C1.200
T7C1.300
T8C3.000
T9C3.250
%
G90
G05
M71
T1
X93.15Y-113.55
X93.15Y-114.65
X93.15Y-115.75
X93.15Y-116.85
X93.15Y-117.95
X94.25Y-113.55
X94.25Y-114.65
X94.25Y-115.75
X94.25Y-116.85
X94.25Y-117.95
X95.35Y-113.55
X95.35Y-114.65
X95.35Y-115.75
X95.35Y-116.85
X95.35Y-117.95
X106.Y-112.6
X106.Y-113.7
X106.Y-114.8
X106.Y-115.9
X106.Y-117.
X107.1Y-112.6
X107.1Y-113.7
X107.1Y-114.8
X107.1Y-115.9
X107.1Y-117.
X108.2Y-112.6
X108.2Y-113.7
X108.2Y-114.8
X108.2Y-115.9
X108.2Y-117.
X112.15Y-72.3
X112.15Y-73.4
X112.15Y-74.5
X112.15Y-75.6
X112.15Y-76.7
X113.25Y-72.3
X113.25Y-73.4
X113.25Y-74.5
X113.25Y-75.6
X113.25Y-76.7
X114.35Y-72.3
X114.35Y-73.4
X114.35Y-74.5
X114.35Y-75.6
X114.35Y-76.7
X119.2Y-113.1
X119.2Y-114.2
X119.2Y-115.3
X119.2Y-116.4
X119.2Y-117.5
X120.3Y-113.1
X120.3Y-114.2
X120.3Y-115.3
X120.3Y-116.4
X120.3Y-117.5
X121.4Y-113.1
X121.4Y-114.2
X121.4Y-115.3
X121.4Y-116.4
X121.4Y-117.5
X124.9Y-72.3
X124.9Y-73.4
X124.9Y-74.5
X124.9Y-75.6
X124.9Y-76.7
X126.Y-72.3
X126.Y-73.4
X126.Y-74.5
X126.Y-75.6
X126.Y-76.7
X127.1Y-72.3
X127.1Y-73.4
X127.1Y-74.5
X127.1Y-75.6
X127.1Y-76.7
X132.5Y-113.3
X132.5Y-114.4
X132.5Y-115.5
X132.5Y-116.6
X132.5Y-117.7
X133.6Y-113.3
X133.6Y-114.4
X133.6Y-115.5
X133.6Y-116.6
X133.6Y-117.7
X134.7Y-113.3
X134.7Y-114.4
X134.7Y-115.5
X134.7Y-116.6
X134.7Y-117.7
X138.7Y-71.9
X138.7Y-73.
X138.7Y-74.1
X138.7Y-75.2
X138.7Y-76.3
X139.8Y-71.9
X139.8Y-73.
X139.8Y-74.1
X139.8Y-75.2
X139.8Y-76.3
X140.9Y-71.9
X140.9Y-73.
X140.9Y-74.1
X140.9Y-75.2
X140.9Y-76.3
X146.5Y-113.6
X146.5Y-114.7
X146.5Y-115.8
X146.5Y-116.9
X146.5Y-118.
X147.6Y-113.6
X147.6Y-114.7
X147.6Y-115.8
X147.6Y-116.9
X147.6Y-118.
X148.7Y-113.6
X148.7Y-114.7
X148.7Y-115.8
X148.7Y-116.9
X148.7Y-118.
X151.65Y-72.8
X151.65Y-73.9
X151.65Y-75.
X151.65Y-76.1
X151.65Y-77.2
X152.75Y-72.8
X152.75Y-73.9
X152.75Y-75.
X152.75Y-76.1
X152.75Y-77.2
X153.85Y-72.8
X153.85Y-73.9
X153.85Y-75.
X153.85Y-76.1
X153.85Y-77.2
X159.3Y-113.3
X159.3Y-114.4
X159.3Y-115.5
X159.3Y-116.6
X159.3Y-117.7
X159.85Y-59.37
X159.85Y-60.47
X159.85Y-61.57
X159.85Y-62.67
X159.85Y-63.77
X160.4Y-113.3
X160.4Y-114.4
X160.4Y-115.5
X160.4Y-116.6
X160.4Y-117.7
X160.95Y-59.37
X160.95Y-60.47
X160.95Y-61.57
X160.95Y-62.67
X160.95Y-63.77
X161.5Y-113.3
X161.5Y-114.4
X161.5Y-115.5
X161.5Y-116.6
X161.5Y-117.7
X161.55Y-76.15
X161.55Y-77.25
X161.55Y-78.35
X162.05Y-59.37
X162.05Y-60.47
X162.05Y-61.57
X162.05Y-62.67
X162.05Y-63.77
X162.05Y-88.65
X162.05Y-89.75
X162.05Y-90.85
X162.65Y-76.15
X162.65Y-77.25
X162.65Y-78.35
X163.15Y-88.65
X163.15Y-89.75
X163.15Y-90.85
X163.75Y-76.15
X163.75Y-77.25
X163.75Y-78.35
X164.25Y-88.65
X164.25Y-89.75
X164.25Y-90.85
X164.85Y-76.15
X164.85Y-77.25
X164.85Y-78.35
X165.35Y-88.65
X165.35Y-89.75
X165.35Y-90.85
X165.95Y-76.15
X165.95Y-77.25
X165.95Y-78.35
X166.45Y-88.65
X166.45Y-89.75
X166.45Y-90.85
X171.925Y-127.775
X171.925Y-128.875
X171.925Y-129.975
X171.925Y-131.075
X171.925Y-132.175
X173.025Y-127.775
X173.025Y-128.875
X173.025Y-129.975
X173.025Y-131.075
X173.025Y-132.175
X173.61Y-119.76
X173.61Y-120.86
X173.61Y-121.96
X173.61Y-123.06
X173.61Y-124.16
X174.125Y-127.775
X174.125Y-128.875
X174.125Y-129.975
X174.125Y-131.075
X174.125Y-132.175
X174.71Y-119.76
X174.71Y-120.86
X174.71Y-121.96
X174.71Y-123.06
X174.71Y-124.16
X175.81Y-119.76
X175.81Y-120.86
X175.81Y-121.96
X175.81Y-123.06
X175.81Y-124.16
X176.9Y-62.8
X176.9Y-63.9
X176.9Y-65.
X176.9Y-66.1
X176.9Y-67.2
X178.Y-62.8
X178.Y-63.9
X178.Y-65.
X178.Y-66.1
X178.Y-67.2
X179.1Y-62.8
X179.1Y-63.9
X179.1Y-65.
X179.1Y-66.1
X179.1Y-67.2
T2
X89.1Y-119.15
X89.9Y-115.6
X90.1Y-113.9
X90.75Y-118.95
X91.6Y-112.7
X91.694Y-107.188
X92.3Y-125.75
X92.43Y-88.81
X93.9Y-127.8
X94.25Y-107.25
X95.89Y-88.49
X96.16Y-86.53
X96.25Y-67.75
X97.375Y-126.85
X97.45Y-133.675
X98.175Y-127.45
X98.7Y-117.75
X100.25Y-64.25
X101.5Y-111.3
X102.3Y-119.
X102.3Y-127.4
X102.7Y-114.8
X102.9Y-112.8
X103.9Y-119.3
X104.Y-84.25
X104.75Y-118.5
X105.25Y-108.8
X105.5Y-69.
X105.5Y-106.75
X105.8Y-128.
X105.9Y-118.8
X106.17Y-81.14
X106.25Y-72.75
X106.5Y-126.9
X107.3Y-125.6
X107.5Y-70.
X107.7Y-123.5
X108.3Y-108.1
X108.75Y-103.75
X108.8Y-101.4
X109.Y-75.5
X109.05Y-99.
X109.9Y-90.8
X110.25Y-71.5
X110.5Y-95.2
X111.3Y-111.6
X112.Y-84.
X112.Y-118.
X112.45Y-95.85
X112.8Y-87.5
X112.9Y-121.2
X113.3Y-96.75
X113.45Y-97.65
X114.05Y-93.4
X115.Y-119.5
X115.6Y-115.4
X115.9Y-113.5
X116.Y-91.55
X116.05Y-87.15
X116.2Y-92.85
X116.2Y-101.35
X117.5Y-75.25
X117.75Y-71.
X117.75Y-80.75
X117.75Y-84.
X118.Y-73.5
X118.5Y-72.5
X118.75Y-79.25
X119.Y-78.25
X119.05Y-99.05
X120.Y-82.5
X120.25Y-98.25
X120.55Y-105.55
X120.7Y-87.575
X120.75Y-77.25
X120.8Y-97.25
X121.158Y-99.568
X121.3Y-93.65
X121.3Y-94.45
X121.3Y-95.35
X121.38Y-100.63
X121.39Y-96.22
X121.4Y-92.8
X122.5Y-71.25
X123.2Y-119.5
X123.75Y-94.9
X124.Y-88.75
X124.Y-90.5
X124.5Y-101.5
X124.5Y-104.
X124.9Y-118.15
X125.25Y-94.75
X125.25Y-100.
X125.55Y-120.8
X125.75Y-104.
X126.Y-93.5
X126.Y-96.25
X127.Y-105.75
X127.3Y-96.
X127.875Y-105.925
X128.25Y-97.25
X128.25Y-99.5
X128.25Y-104.75
X128.5Y-79.25
X128.75Y-82.7
X128.9Y-87.75
X129.2Y-115.5
X129.4Y-113.7
X129.5Y-102.
X129.75Y-79.25
X129.75Y-97.25
X129.794Y-105.41
X130.Y-80.8
X130.75Y-75.25
X130.75Y-97.5
X130.75Y-101.25
X130.75Y-102.5
X131.25Y-95.25
X131.75Y-107.25
X132.Y-73.5
X132.Y-101.25
X133.Y-82.5
X133.1Y-72.7
X134.85Y-107.05
X135.Y-91.25
X135.Y-97.75
X135.25Y-94.75
X135.25Y-100.25
X136.Y-99.25
X136.25Y-85.35
X136.4Y-119.9
X136.7Y-71.
X137.25Y-97.75
X138.Y-96.25
X138.Y-100.5
X138.05Y-77.5
X138.3Y-117.55
X138.3Y-120.9
X139.4Y-77.55
X139.4Y-78.65
X139.75Y-79.55
X139.85Y-84.1
X140.Y-107.25
X140.6Y-92.2
X140.75Y-100.75
X141.75Y-83.6
X141.75Y-85.65
X141.75Y-91.45
X143.Y-90.65
X143.2Y-115.5
X143.25Y-85.7
X143.3Y-114.2
X144.05Y-77.2
X144.1Y-76.05
X144.25Y-74.
X144.45Y-89.9
X144.5Y-80.75
X144.8Y-77.8
X145.3Y-79.6
X145.4Y-111.9
X145.7Y-72.9
X145.8Y-104.
X146.05Y-85.15
X146.3Y-89.05
X146.55Y-78.9
X146.812Y-103.886
X147.Y-93.75
X147.4Y-85.1
X147.425Y-107.7
X147.7Y-99.9
X147.95Y-119.1
X148.082Y-111.76
X148.3Y-85.6
X148.5Y-71.5
X149.Y-86.5
X149.7Y-104.
X149.85Y-101.8
X150.Y-87.3
X150.4Y-98.5
X150.7Y-105.7
X151.3Y-98.3
X151.4Y-104.7
X151.9Y-118.65
X152.1Y-94.9
X152.2Y-100.
X154.Y-113.4
X154.3Y-90.9
X154.4Y-92.
X154.4Y-96.1
X154.69Y-59.03
X154.74Y-61.71
X154.79Y-68.43
X155.2Y-111.1
X155.3Y-90.3
X155.425Y-104.725
X155.96Y-108.08
X156.Y-115.4
X156.175Y-103.
X156.3Y-90.1
X156.525Y-104.6
X156.61Y-61.75
X156.75Y-101.675
X156.95Y-70.35
X157.2Y-76.9
X157.2Y-89.9
X157.35Y-74.9
X157.55Y-103.65
X157.8Y-69.1
X158.Y-90.1
X159.3Y-77.05
X159.45Y-105.35
X159.475Y-79.475
X159.55Y-78.35
X159.72Y-123.12
X159.95Y-80.3
X160.07Y-67.98
X161.175Y-100.725
X161.4Y-94.1
X161.7Y-81.8
X161.7Y-107.8
X162.4Y-57.
X162.82Y-123.71
X163.68Y-97.25
X163.76Y-122.55
X163.8Y-82.2
X164.02Y-107.75
X164.4Y-94.1
X164.65Y-97.8
X164.7Y-118.4
X165.06Y-107.73
X165.33Y-101.39
X165.34Y-103.57
X165.35Y-133.05
X165.75Y-110.99
X166.17Y-100.48
X166.27Y-72.87
X166.4Y-118.9
X166.42Y-106.86
X166.76Y-110.32
X166.89Y-130.94
X167.08Y-105.25
X167.1Y-71.8
X167.17Y-128.64
X167.2Y-86.8
X167.6Y-78.35
X167.75Y-133.775
X168.17Y-127.46
X168.19Y-130.07
X168.2Y-84.7
X168.25Y-78.9
X168.575Y-102.025
X168.79Y-60.6
X169.91Y-119.84
X169.95Y-122.29
X169.96Y-76.22
X170.275Y-109.475
X170.61Y-70.79
X171.5Y-125.51
X171.58Y-73.68
X171.61Y-67.73
X171.95Y-106.5
X172.2Y-97.7
X172.28Y-71.05
X173.3Y-107.775
X173.39Y-62.33
X174.96Y-58.36
X177.8Y-132.7
X178.85Y-106.075
X180.37Y-125.7
X180.91Y-123.23
X181.14Y-61.36
X181.51Y-127.21
X182.22Y-66.94
X182.45Y-65.04
T3
X116.238Y-95.238
X116.238Y-96.762
X117.Y-96.
X117.762Y-95.238
X117.762Y-96.762
T4
X92.1Y-91.375
X92.1Y-93.915
X92.1Y-102.085
X92.1Y-104.625
X103.35Y-93.56
X103.35Y-96.1
X103.35Y-98.63
X103.35Y-101.17
X105.89Y-94.82
X105.89Y-97.36
X105.89Y-99.9
X105.89Y-102.44
T5
X96.19Y-129.23
X96.19Y-131.77
X98.73Y-129.23
X98.73Y-131.77
X101.27Y-129.23
X101.27Y-131.77
X102.75Y-73.
X102.75Y-75.5
X103.81Y-129.23
X103.81Y-131.77
X181.Y-98.34
X181.Y-100.88
X181.Y-103.41
X181.Y-105.95
T6
X90.25Y-78.
X91.66Y-62.97
X91.66Y-67.97
X95.25Y-78.
T7
X100.05Y-90.255
X100.05Y-105.745
T8
X92.Y-58.
X92.Y-131.
X181.Y-58.
X181.Y-132.
T9
X97.132Y-92.285
X97.132Y-103.715
T0
M30
