G04 #@! TF.GenerationSoftware,KiCad,Pcbnew,5.1.9-73d0e3b20d~88~ubuntu18.04.1*
G04 #@! TF.CreationDate,2021-03-21T21:20:43-07:00*
G04 #@! TF.ProjectId,accelgyro_mpu6050_d2br2,61636365-6c67-4797-926f-5f6d70753630,rev?*
G04 #@! TF.SameCoordinates,Original*
G04 #@! TF.FileFunction,Soldermask,Top*
G04 #@! TF.FilePolarity,Negative*
%FSLAX46Y46*%
G04 Gerber Fmt 4.6, Leading zero omitted, Abs format (unit mm)*
G04 Created by KiCad (PCBNEW 5.1.9-73d0e3b20d~88~ubuntu18.04.1) date 2021-03-21 21:20:43*
%MOMM*%
%LPD*%
G01*
G04 APERTURE LIST*
%ADD10R,1.300000X1.300000*%
%ADD11C,1.300000*%
%ADD12O,1.900000X2.900000*%
%ADD13C,2.600000*%
%ADD14R,1.000760X0.899160*%
%ADD15R,0.899160X1.000760*%
%ADD16R,2.499360X2.499360*%
%ADD17O,0.800100X0.248920*%
%ADD18O,0.248920X0.800100*%
%ADD19R,1.397000X0.889000*%
G04 APERTURE END LIST*
D10*
X159456000Y-105648000D03*
D11*
X156956000Y-105648000D03*
X154956000Y-105648000D03*
X152456000Y-105648000D03*
D12*
X162526000Y-103248000D03*
X149386000Y-103248000D03*
D13*
X138000000Y-100000000D03*
X166000000Y-100000000D03*
D14*
X140600000Y-105751840D03*
X140600000Y-104248160D03*
D15*
X145251840Y-95500000D03*
X143748160Y-95500000D03*
D14*
X142200000Y-105751840D03*
X142200000Y-104248160D03*
X143800000Y-105751840D03*
X143800000Y-104248160D03*
D16*
X143000000Y-100000000D03*
D17*
X141001020Y-98750320D03*
X141001020Y-99250700D03*
X141001020Y-99751080D03*
X141001020Y-100248920D03*
X141001020Y-100749300D03*
X141001020Y-101249680D03*
D18*
X141750320Y-101998980D03*
X142250700Y-101998980D03*
X142751080Y-101998980D03*
X143248920Y-101998980D03*
X143749300Y-101998980D03*
X144249680Y-101998980D03*
D17*
X144998980Y-101249680D03*
X144998980Y-100749300D03*
X144998980Y-100248920D03*
X144998980Y-99751080D03*
X144998980Y-99250700D03*
X144998980Y-98750320D03*
D18*
X144249680Y-98001020D03*
X143749300Y-98001020D03*
X143248920Y-98001020D03*
X142751080Y-98001020D03*
X142250700Y-98001020D03*
X141750320Y-98001020D03*
D19*
X145400000Y-104347500D03*
X145400000Y-106252500D03*
D15*
X146948160Y-97800000D03*
X148451840Y-97800000D03*
X148351840Y-95700000D03*
X146848160Y-95700000D03*
M02*
