G04 #@! TF.GenerationSoftware,KiCad,Pcbnew,5.1.9-73d0e3b20d~88~ubuntu18.04.1*
G04 #@! TF.CreationDate,2021-03-21T21:20:43-07:00*
G04 #@! TF.ProjectId,accelgyro_mpu6050_d2br2,61636365-6c67-4797-926f-5f6d70753630,rev?*
G04 #@! TF.SameCoordinates,Original*
G04 #@! TF.FileFunction,Copper,L1,Top*
G04 #@! TF.FilePolarity,Positive*
%FSLAX46Y46*%
G04 Gerber Fmt 4.6, Leading zero omitted, Abs format (unit mm)*
G04 Created by KiCad (PCBNEW 5.1.9-73d0e3b20d~88~ubuntu18.04.1) date 2021-03-21 21:20:43*
%MOMM*%
%LPD*%
G01*
G04 APERTURE LIST*
G04 #@! TA.AperFunction,ComponentPad*
%ADD10R,1.300000X1.300000*%
G04 #@! TD*
G04 #@! TA.AperFunction,ComponentPad*
%ADD11C,1.300000*%
G04 #@! TD*
G04 #@! TA.AperFunction,ComponentPad*
%ADD12O,1.900000X2.900000*%
G04 #@! TD*
G04 #@! TA.AperFunction,SMDPad,CuDef*
%ADD13R,1.000760X0.899160*%
G04 #@! TD*
G04 #@! TA.AperFunction,SMDPad,CuDef*
%ADD14R,0.899160X1.000760*%
G04 #@! TD*
G04 #@! TA.AperFunction,SMDPad,CuDef*
%ADD15R,2.499360X2.499360*%
G04 #@! TD*
G04 #@! TA.AperFunction,SMDPad,CuDef*
%ADD16O,0.800100X0.248920*%
G04 #@! TD*
G04 #@! TA.AperFunction,SMDPad,CuDef*
%ADD17O,0.248920X0.800100*%
G04 #@! TD*
G04 #@! TA.AperFunction,ComponentPad*
%ADD18C,0.600000*%
G04 #@! TD*
G04 #@! TA.AperFunction,SMDPad,CuDef*
%ADD19R,1.397000X0.889000*%
G04 #@! TD*
G04 #@! TA.AperFunction,ViaPad*
%ADD20C,0.700000*%
G04 #@! TD*
G04 #@! TA.AperFunction,Conductor*
%ADD21C,0.300000*%
G04 #@! TD*
G04 #@! TA.AperFunction,Conductor*
%ADD22C,0.200000*%
G04 #@! TD*
G04 #@! TA.AperFunction,Conductor*
%ADD23C,0.500000*%
G04 #@! TD*
G04 #@! TA.AperFunction,Conductor*
%ADD24C,0.254000*%
G04 #@! TD*
G04 #@! TA.AperFunction,Conductor*
%ADD25C,0.150000*%
G04 #@! TD*
G04 APERTURE END LIST*
D10*
X159456000Y-105648000D03*
D11*
X156956000Y-105648000D03*
X154956000Y-105648000D03*
X152456000Y-105648000D03*
D12*
X162526000Y-103248000D03*
X149386000Y-103248000D03*
D13*
X140600000Y-105751840D03*
X140600000Y-104248160D03*
D14*
X145251840Y-95500000D03*
X143748160Y-95500000D03*
D13*
X142200000Y-105751840D03*
X142200000Y-104248160D03*
X143800000Y-105751840D03*
X143800000Y-104248160D03*
D15*
X143000000Y-100000000D03*
D16*
X141001020Y-98750320D03*
X141001020Y-99250700D03*
X141001020Y-99751080D03*
X141001020Y-100248920D03*
X141001020Y-100749300D03*
X141001020Y-101249680D03*
D17*
X141750320Y-101998980D03*
X142250700Y-101998980D03*
X142751080Y-101998980D03*
X143248920Y-101998980D03*
X143749300Y-101998980D03*
X144249680Y-101998980D03*
D16*
X144998980Y-101249680D03*
X144998980Y-100749300D03*
X144998980Y-100248920D03*
X144998980Y-99751080D03*
X144998980Y-99250700D03*
X144998980Y-98750320D03*
D17*
X144249680Y-98001020D03*
X143749300Y-98001020D03*
X143248920Y-98001020D03*
X142751080Y-98001020D03*
X142250700Y-98001020D03*
X141750320Y-98001020D03*
D18*
X143000000Y-100000000D03*
X143762000Y-99238000D03*
X142238000Y-99238000D03*
X143762000Y-100762000D03*
X142238000Y-100762000D03*
D19*
X145400000Y-104347500D03*
X145400000Y-106252500D03*
D14*
X146948160Y-97800000D03*
X148451840Y-97800000D03*
X148351840Y-95700000D03*
X146848160Y-95700000D03*
D20*
X142300000Y-96150000D03*
X146900000Y-98900000D03*
X141000000Y-96300000D03*
X146500000Y-94500000D03*
X146800000Y-100200000D03*
X143600000Y-103300000D03*
X140800000Y-103200000D03*
X149860000Y-105664000D03*
X150680000Y-108400000D03*
D21*
X144249680Y-98750320D02*
X143000000Y-100000000D01*
X141750320Y-98750320D02*
X143000000Y-100000000D01*
D22*
X143149250Y-100000000D02*
X143000000Y-100000000D01*
X144398930Y-98750320D02*
X143149250Y-100000000D01*
X144998980Y-98750320D02*
X144398930Y-98750320D01*
X141750320Y-98750320D02*
X142238000Y-99238000D01*
X141001020Y-98750320D02*
X141750320Y-98750320D01*
X142751080Y-100248920D02*
X143000000Y-100000000D01*
X142751080Y-101998980D02*
X142751080Y-100248920D01*
X143749300Y-100749300D02*
X143000000Y-100000000D01*
X143749300Y-101998980D02*
X143749300Y-100749300D01*
D23*
X145400000Y-107197000D02*
X145400000Y-106252500D01*
X145400000Y-107197000D02*
X145147000Y-107450000D01*
X143800000Y-107200000D02*
X143800000Y-105751840D01*
X144050000Y-107450000D02*
X143800000Y-107200000D01*
X144550000Y-107450000D02*
X144050000Y-107450000D01*
X145147000Y-107450000D02*
X144550000Y-107450000D01*
X142200000Y-107200000D02*
X142200000Y-105751840D01*
X142450000Y-107450000D02*
X142200000Y-107200000D01*
X143300000Y-107450000D02*
X142450000Y-107450000D01*
X143300000Y-107450000D02*
X141250000Y-107450000D01*
X144550000Y-107450000D02*
X143300000Y-107450000D01*
X140600000Y-106800000D02*
X140600000Y-105751840D01*
X141250000Y-107450000D02*
X140600000Y-106800000D01*
D21*
X144998980Y-95752860D02*
X145251840Y-95500000D01*
X144998980Y-98750320D02*
X144998980Y-95752860D01*
D22*
X142300000Y-96150000D02*
X142250700Y-96899300D01*
X142250700Y-96899300D02*
X142250700Y-98001020D01*
D21*
X146948160Y-97800000D02*
X146900000Y-98900000D01*
D22*
X141000000Y-96300000D02*
X141750320Y-97050320D01*
X141750320Y-97050320D02*
X141750320Y-98001020D01*
D21*
X146848160Y-95700000D02*
X146848160Y-94848160D01*
X146848160Y-94848160D02*
X146500000Y-94500000D01*
X140600000Y-104248160D02*
X140600000Y-103400000D01*
X143800000Y-103500000D02*
X143800000Y-104248160D01*
X143600000Y-103300000D02*
X143800000Y-103500000D01*
X140600000Y-103400000D02*
X140800000Y-103200000D01*
X144998980Y-101249680D02*
X145950320Y-101249680D01*
X145950320Y-101249680D02*
X146900000Y-100300000D01*
X140600000Y-103700000D02*
X140600000Y-104248160D01*
X141100000Y-103200000D02*
X140600000Y-103700000D01*
X141700000Y-103200000D02*
X141100000Y-103200000D01*
X142250700Y-102649300D02*
X141700000Y-103200000D01*
X142250700Y-101998980D02*
X142250700Y-102649300D01*
X143899340Y-104347500D02*
X143800000Y-104248160D01*
X145400000Y-104347500D02*
X143899340Y-104347500D01*
X145400000Y-102500000D02*
X145400000Y-104347500D01*
X144998980Y-102098980D02*
X145400000Y-102500000D01*
X144998980Y-101249680D02*
X144998980Y-102098980D01*
D23*
X146800000Y-100200000D02*
X147500000Y-100200000D01*
X148451840Y-99248160D02*
X148451840Y-97800000D01*
X147500000Y-100200000D02*
X148451840Y-99248160D01*
X148451840Y-95800000D02*
X148351840Y-95700000D01*
X148451840Y-97800000D02*
X148451840Y-95800000D01*
D21*
X143749300Y-95501140D02*
X143748160Y-95500000D01*
X143749300Y-98001020D02*
X143749300Y-95501140D01*
X142200000Y-103700000D02*
X142200000Y-104248160D01*
X143248920Y-102651080D02*
X142200000Y-103700000D01*
X143248920Y-101998980D02*
X143248920Y-102651080D01*
D23*
X149860000Y-107580000D02*
X150680000Y-108400000D01*
X149860000Y-105664000D02*
X149860000Y-107580000D01*
D24*
X168673000Y-108873000D02*
X151538979Y-108873000D01*
X151545806Y-108862783D01*
X151619454Y-108684980D01*
X151657000Y-108496226D01*
X151657000Y-108303774D01*
X151619454Y-108115020D01*
X151545806Y-107937217D01*
X151438885Y-107777199D01*
X151302801Y-107641115D01*
X151142783Y-107534194D01*
X150992006Y-107471741D01*
X150737000Y-107216735D01*
X150737000Y-106533527D01*
X151750078Y-106533527D01*
X151803466Y-106762201D01*
X152033374Y-106868095D01*
X152279524Y-106927102D01*
X152532455Y-106936952D01*
X152782449Y-106897270D01*
X153019896Y-106809578D01*
X153108534Y-106762201D01*
X153161922Y-106533527D01*
X152456000Y-105827605D01*
X151750078Y-106533527D01*
X150737000Y-106533527D01*
X150737000Y-106099758D01*
X150799454Y-105948980D01*
X150837000Y-105760226D01*
X150837000Y-105724455D01*
X151167048Y-105724455D01*
X151206730Y-105974449D01*
X151294422Y-106211896D01*
X151341799Y-106300534D01*
X151570473Y-106353922D01*
X152276395Y-105648000D01*
X152635605Y-105648000D01*
X153341527Y-106353922D01*
X153570201Y-106300534D01*
X153676095Y-106070626D01*
X153709953Y-105929386D01*
X153728074Y-106020487D01*
X153824337Y-106252886D01*
X153964089Y-106462040D01*
X154141960Y-106639911D01*
X154351114Y-106779663D01*
X154583513Y-106875926D01*
X154830226Y-106925000D01*
X155081774Y-106925000D01*
X155328487Y-106875926D01*
X155560886Y-106779663D01*
X155770040Y-106639911D01*
X155947911Y-106462040D01*
X155956000Y-106449934D01*
X155964089Y-106462040D01*
X156141960Y-106639911D01*
X156351114Y-106779663D01*
X156583513Y-106875926D01*
X156830226Y-106925000D01*
X157081774Y-106925000D01*
X157328487Y-106875926D01*
X157560886Y-106779663D01*
X157770040Y-106639911D01*
X157947911Y-106462040D01*
X158087663Y-106252886D01*
X158175967Y-106039702D01*
X158175967Y-106298000D01*
X158188073Y-106420913D01*
X158223925Y-106539103D01*
X158282147Y-106648028D01*
X158360499Y-106743501D01*
X158455972Y-106821853D01*
X158564897Y-106880075D01*
X158683087Y-106915927D01*
X158806000Y-106928033D01*
X160106000Y-106928033D01*
X160228913Y-106915927D01*
X160347103Y-106880075D01*
X160456028Y-106821853D01*
X160551501Y-106743501D01*
X160629853Y-106648028D01*
X160688075Y-106539103D01*
X160723927Y-106420913D01*
X160736033Y-106298000D01*
X160736033Y-104998000D01*
X160723927Y-104875087D01*
X160688075Y-104756897D01*
X160629853Y-104647972D01*
X160551501Y-104552499D01*
X160456028Y-104474147D01*
X160347103Y-104415925D01*
X160228913Y-104380073D01*
X160106000Y-104367967D01*
X158806000Y-104367967D01*
X158683087Y-104380073D01*
X158564897Y-104415925D01*
X158455972Y-104474147D01*
X158360499Y-104552499D01*
X158282147Y-104647972D01*
X158223925Y-104756897D01*
X158188073Y-104875087D01*
X158175967Y-104998000D01*
X158175967Y-105256298D01*
X158087663Y-105043114D01*
X157947911Y-104833960D01*
X157770040Y-104656089D01*
X157560886Y-104516337D01*
X157328487Y-104420074D01*
X157081774Y-104371000D01*
X156830226Y-104371000D01*
X156583513Y-104420074D01*
X156351114Y-104516337D01*
X156141960Y-104656089D01*
X155964089Y-104833960D01*
X155956000Y-104846066D01*
X155947911Y-104833960D01*
X155770040Y-104656089D01*
X155560886Y-104516337D01*
X155328487Y-104420074D01*
X155081774Y-104371000D01*
X154830226Y-104371000D01*
X154583513Y-104420074D01*
X154351114Y-104516337D01*
X154141960Y-104656089D01*
X153964089Y-104833960D01*
X153824337Y-105043114D01*
X153728074Y-105275513D01*
X153711327Y-105359708D01*
X153705270Y-105321551D01*
X153617578Y-105084104D01*
X153570201Y-104995466D01*
X153341527Y-104942078D01*
X152635605Y-105648000D01*
X152276395Y-105648000D01*
X151570473Y-104942078D01*
X151341799Y-104995466D01*
X151235905Y-105225374D01*
X151176898Y-105471524D01*
X151167048Y-105724455D01*
X150837000Y-105724455D01*
X150837000Y-105567774D01*
X150799454Y-105379020D01*
X150725806Y-105201217D01*
X150618885Y-105041199D01*
X150482801Y-104905115D01*
X150471275Y-104897414D01*
X150506503Y-104868503D01*
X150593519Y-104762473D01*
X151750078Y-104762473D01*
X152456000Y-105468395D01*
X153161922Y-104762473D01*
X153108534Y-104533799D01*
X152878626Y-104427905D01*
X152632476Y-104368898D01*
X152379545Y-104359048D01*
X152129551Y-104398730D01*
X151892104Y-104486422D01*
X151803466Y-104533799D01*
X151750078Y-104762473D01*
X150593519Y-104762473D01*
X150703572Y-104628373D01*
X150850007Y-104354412D01*
X150940182Y-104057146D01*
X150963000Y-103825469D01*
X150963000Y-102670532D01*
X160949000Y-102670532D01*
X160949000Y-103825469D01*
X160971818Y-104057146D01*
X161061993Y-104354412D01*
X161208428Y-104628373D01*
X161405498Y-104868503D01*
X161645628Y-105065572D01*
X161919589Y-105212007D01*
X162216855Y-105302182D01*
X162526000Y-105332630D01*
X162835146Y-105302182D01*
X163132412Y-105212007D01*
X163406373Y-105065572D01*
X163646503Y-104868503D01*
X163843572Y-104628373D01*
X163990007Y-104354412D01*
X164080182Y-104057146D01*
X164103000Y-103825469D01*
X164103000Y-102670531D01*
X164080182Y-102438854D01*
X163990007Y-102141588D01*
X163843572Y-101867627D01*
X163646503Y-101627497D01*
X163406372Y-101430428D01*
X163132411Y-101283993D01*
X162835145Y-101193818D01*
X162526000Y-101163370D01*
X162216854Y-101193818D01*
X161919588Y-101283993D01*
X161645627Y-101430428D01*
X161405497Y-101627497D01*
X161208428Y-101867628D01*
X161061993Y-102141589D01*
X160971818Y-102438855D01*
X160949000Y-102670532D01*
X150963000Y-102670532D01*
X150963000Y-102670531D01*
X150940182Y-102438854D01*
X150850007Y-102141588D01*
X150703572Y-101867627D01*
X150506503Y-101627497D01*
X150266373Y-101430428D01*
X149992412Y-101283993D01*
X149695146Y-101193818D01*
X149386000Y-101163370D01*
X149076855Y-101193818D01*
X148779589Y-101283993D01*
X148505628Y-101430428D01*
X148265498Y-101627497D01*
X148068428Y-101867627D01*
X147921993Y-102141588D01*
X147831818Y-102438854D01*
X147809000Y-102670531D01*
X147809000Y-103825468D01*
X147831818Y-104057145D01*
X147921993Y-104354411D01*
X148068428Y-104628372D01*
X148265497Y-104868503D01*
X148505627Y-105065572D01*
X148779588Y-105212007D01*
X148966268Y-105268636D01*
X148920546Y-105379020D01*
X148883000Y-105567774D01*
X148883000Y-105760226D01*
X148920546Y-105948980D01*
X148983000Y-106099759D01*
X148983001Y-107536911D01*
X148978757Y-107580000D01*
X148995690Y-107751922D01*
X149045838Y-107917236D01*
X149127274Y-108069592D01*
X149209406Y-108169671D01*
X149209409Y-108169674D01*
X149236868Y-108203133D01*
X149270327Y-108230592D01*
X149751741Y-108712006D01*
X149814194Y-108862783D01*
X149821021Y-108873000D01*
X135677000Y-108873000D01*
X135677000Y-106201420D01*
X139461548Y-106201420D01*
X139473808Y-106325902D01*
X139510118Y-106445600D01*
X139569083Y-106555914D01*
X139648435Y-106652605D01*
X139745126Y-106731957D01*
X139855440Y-106790922D01*
X139975138Y-106827232D01*
X140099620Y-106839492D01*
X140314250Y-106836420D01*
X140473000Y-106677670D01*
X140473000Y-105878840D01*
X140727000Y-105878840D01*
X140727000Y-106677670D01*
X140885750Y-106836420D01*
X141100380Y-106839492D01*
X141224862Y-106827232D01*
X141344560Y-106790922D01*
X141400000Y-106761288D01*
X141455440Y-106790922D01*
X141575138Y-106827232D01*
X141699620Y-106839492D01*
X141914250Y-106836420D01*
X142073000Y-106677670D01*
X142073000Y-105878840D01*
X142327000Y-105878840D01*
X142327000Y-106677670D01*
X142485750Y-106836420D01*
X142700380Y-106839492D01*
X142824862Y-106827232D01*
X142944560Y-106790922D01*
X143000000Y-106761288D01*
X143055440Y-106790922D01*
X143175138Y-106827232D01*
X143299620Y-106839492D01*
X143514250Y-106836420D01*
X143673000Y-106677670D01*
X143673000Y-105878840D01*
X142327000Y-105878840D01*
X142073000Y-105878840D01*
X140727000Y-105878840D01*
X140473000Y-105878840D01*
X139623370Y-105878840D01*
X139464620Y-106037590D01*
X139461548Y-106201420D01*
X135677000Y-106201420D01*
X135677000Y-105302260D01*
X139461548Y-105302260D01*
X139464620Y-105466090D01*
X139623370Y-105624840D01*
X140473000Y-105624840D01*
X140473000Y-105604840D01*
X140727000Y-105604840D01*
X140727000Y-105624840D01*
X142073000Y-105624840D01*
X142073000Y-105604840D01*
X142327000Y-105604840D01*
X142327000Y-105624840D01*
X143673000Y-105624840D01*
X143673000Y-105604840D01*
X143927000Y-105604840D01*
X143927000Y-105624840D01*
X143947000Y-105624840D01*
X143947000Y-105878840D01*
X143927000Y-105878840D01*
X143927000Y-106677670D01*
X144077811Y-106828481D01*
X144111998Y-106941180D01*
X144170963Y-107051494D01*
X144250315Y-107148185D01*
X144347006Y-107227537D01*
X144457320Y-107286502D01*
X144577018Y-107322812D01*
X144701500Y-107335072D01*
X145114250Y-107332000D01*
X145273000Y-107173250D01*
X145273000Y-106379500D01*
X145527000Y-106379500D01*
X145527000Y-107173250D01*
X145685750Y-107332000D01*
X146098500Y-107335072D01*
X146222982Y-107322812D01*
X146342680Y-107286502D01*
X146452994Y-107227537D01*
X146549685Y-107148185D01*
X146629037Y-107051494D01*
X146688002Y-106941180D01*
X146724312Y-106821482D01*
X146736572Y-106697000D01*
X146733500Y-106538250D01*
X146574750Y-106379500D01*
X145527000Y-106379500D01*
X145273000Y-106379500D01*
X145253000Y-106379500D01*
X145253000Y-106125500D01*
X145273000Y-106125500D01*
X145273000Y-106105500D01*
X145527000Y-106105500D01*
X145527000Y-106125500D01*
X146574750Y-106125500D01*
X146733500Y-105966750D01*
X146736572Y-105808000D01*
X146724312Y-105683518D01*
X146688002Y-105563820D01*
X146629037Y-105453506D01*
X146549685Y-105356815D01*
X146474150Y-105294825D01*
X146544001Y-105237501D01*
X146622353Y-105142028D01*
X146680575Y-105033103D01*
X146716427Y-104914913D01*
X146728533Y-104792000D01*
X146728533Y-103903000D01*
X146716427Y-103780087D01*
X146680575Y-103661897D01*
X146622353Y-103552972D01*
X146544001Y-103457499D01*
X146448528Y-103379147D01*
X146339603Y-103320925D01*
X146221413Y-103285073D01*
X146177000Y-103280699D01*
X146177000Y-102538163D01*
X146180759Y-102500000D01*
X146174959Y-102441115D01*
X146165757Y-102347681D01*
X146121327Y-102201216D01*
X146049177Y-102066234D01*
X146014605Y-102024108D01*
X146102639Y-102015437D01*
X146249104Y-101971007D01*
X146384086Y-101898857D01*
X146502400Y-101801760D01*
X146526732Y-101772111D01*
X147212005Y-101086839D01*
X147235758Y-101077000D01*
X147456921Y-101077000D01*
X147500000Y-101081243D01*
X147543079Y-101077000D01*
X147671922Y-101064310D01*
X147837237Y-101014162D01*
X147989592Y-100932727D01*
X148123133Y-100823133D01*
X148150596Y-100789669D01*
X149041515Y-99898751D01*
X149074973Y-99871293D01*
X149125104Y-99810207D01*
X164073000Y-99810207D01*
X164073000Y-100189793D01*
X164147053Y-100562085D01*
X164292315Y-100912777D01*
X164503201Y-101228391D01*
X164771609Y-101496799D01*
X165087223Y-101707685D01*
X165437915Y-101852947D01*
X165810207Y-101927000D01*
X166189793Y-101927000D01*
X166562085Y-101852947D01*
X166912777Y-101707685D01*
X167228391Y-101496799D01*
X167496799Y-101228391D01*
X167707685Y-100912777D01*
X167852947Y-100562085D01*
X167927000Y-100189793D01*
X167927000Y-99810207D01*
X167852947Y-99437915D01*
X167707685Y-99087223D01*
X167496799Y-98771609D01*
X167228391Y-98503201D01*
X166912777Y-98292315D01*
X166562085Y-98147053D01*
X166189793Y-98073000D01*
X165810207Y-98073000D01*
X165437915Y-98147053D01*
X165087223Y-98292315D01*
X164771609Y-98503201D01*
X164503201Y-98771609D01*
X164292315Y-99087223D01*
X164147053Y-99437915D01*
X164073000Y-99810207D01*
X149125104Y-99810207D01*
X149184567Y-99737752D01*
X149266002Y-99585397D01*
X149301835Y-99467273D01*
X149316150Y-99420083D01*
X149333083Y-99248161D01*
X149328840Y-99205081D01*
X149328840Y-98760720D01*
X149346921Y-98745881D01*
X149425273Y-98650408D01*
X149483495Y-98541483D01*
X149519347Y-98423293D01*
X149531453Y-98300380D01*
X149531453Y-97299620D01*
X149519347Y-97176707D01*
X149483495Y-97058517D01*
X149425273Y-96949592D01*
X149346921Y-96854119D01*
X149328840Y-96839280D01*
X149328840Y-96543735D01*
X149383495Y-96441483D01*
X149419347Y-96323293D01*
X149431453Y-96200380D01*
X149431453Y-95199620D01*
X149419347Y-95076707D01*
X149383495Y-94958517D01*
X149325273Y-94849592D01*
X149246921Y-94754119D01*
X149151448Y-94675767D01*
X149042523Y-94617545D01*
X148924333Y-94581693D01*
X148801420Y-94569587D01*
X147902260Y-94569587D01*
X147779347Y-94581693D01*
X147661157Y-94617545D01*
X147600071Y-94650196D01*
X147569487Y-94549376D01*
X147526569Y-94469083D01*
X147497338Y-94414395D01*
X147473282Y-94385083D01*
X147439454Y-94215020D01*
X147365806Y-94037217D01*
X147258885Y-93877199D01*
X147122801Y-93741115D01*
X146962783Y-93634194D01*
X146784980Y-93560546D01*
X146596226Y-93523000D01*
X146403774Y-93523000D01*
X146215020Y-93560546D01*
X146037217Y-93634194D01*
X145877199Y-93741115D01*
X145741115Y-93877199D01*
X145634194Y-94037217D01*
X145560546Y-94215020D01*
X145529099Y-94373111D01*
X145378840Y-94523370D01*
X145378840Y-95373000D01*
X145398840Y-95373000D01*
X145398840Y-95627000D01*
X145378840Y-95627000D01*
X145378840Y-96476630D01*
X145537590Y-96635380D01*
X145701420Y-96638452D01*
X145825902Y-96626192D01*
X145914792Y-96599228D01*
X145953079Y-96645881D01*
X146048552Y-96724233D01*
X146147137Y-96776928D01*
X146053079Y-96854119D01*
X145974727Y-96949592D01*
X145916505Y-97058517D01*
X145880653Y-97176707D01*
X145868547Y-97299620D01*
X145868547Y-98265494D01*
X145802100Y-98189409D01*
X145682535Y-98097271D01*
X145547293Y-98030229D01*
X145401570Y-97990860D01*
X145001140Y-97990860D01*
X145001140Y-97688523D01*
X144990266Y-97578118D01*
X144947297Y-97436468D01*
X144877519Y-97305922D01*
X144783613Y-97191497D01*
X144669188Y-97097591D01*
X144538642Y-97027813D01*
X144526300Y-97024069D01*
X144526300Y-96572895D01*
X144558080Y-96589882D01*
X144677778Y-96626192D01*
X144802260Y-96638452D01*
X144966090Y-96635380D01*
X145124840Y-96476630D01*
X145124840Y-95627000D01*
X145104840Y-95627000D01*
X145104840Y-95373000D01*
X145124840Y-95373000D01*
X145124840Y-94523370D01*
X144966090Y-94364620D01*
X144802260Y-94361548D01*
X144677778Y-94373808D01*
X144558080Y-94410118D01*
X144491514Y-94445699D01*
X144438843Y-94417545D01*
X144320653Y-94381693D01*
X144197740Y-94369587D01*
X143298580Y-94369587D01*
X143175667Y-94381693D01*
X143057477Y-94417545D01*
X142948552Y-94475767D01*
X142853079Y-94554119D01*
X142774727Y-94649592D01*
X142716505Y-94758517D01*
X142680653Y-94876707D01*
X142668547Y-94999620D01*
X142668547Y-95245160D01*
X142584980Y-95210546D01*
X142396226Y-95173000D01*
X142203774Y-95173000D01*
X142015020Y-95210546D01*
X141837217Y-95284194D01*
X141677199Y-95391115D01*
X141565492Y-95502822D01*
X141462783Y-95434194D01*
X141284980Y-95360546D01*
X141096226Y-95323000D01*
X140903774Y-95323000D01*
X140715020Y-95360546D01*
X140537217Y-95434194D01*
X140377199Y-95541115D01*
X140241115Y-95677199D01*
X140134194Y-95837217D01*
X140060546Y-96015020D01*
X140023000Y-96203774D01*
X140023000Y-96396226D01*
X140060546Y-96584980D01*
X140134194Y-96762783D01*
X140241115Y-96922801D01*
X140377199Y-97058885D01*
X140537217Y-97165806D01*
X140715020Y-97239454D01*
X140903774Y-97277000D01*
X140948867Y-97277000D01*
X141023320Y-97351454D01*
X141023321Y-97533329D01*
X141009734Y-97578118D01*
X140998860Y-97688523D01*
X140998860Y-97990860D01*
X140598430Y-97990860D01*
X140452707Y-98030229D01*
X140317465Y-98097271D01*
X140197900Y-98189409D01*
X140098608Y-98303103D01*
X140023405Y-98433983D01*
X139975320Y-98631514D01*
X140124720Y-98750320D01*
X139975320Y-98869126D01*
X140011198Y-99016511D01*
X139984844Y-99103388D01*
X139970335Y-99250700D01*
X139984844Y-99398012D01*
X140016052Y-99500890D01*
X139984844Y-99603768D01*
X139970335Y-99751080D01*
X139984844Y-99898392D01*
X140015666Y-100000000D01*
X139984844Y-100101608D01*
X139970335Y-100248920D01*
X139984844Y-100396232D01*
X140016052Y-100499110D01*
X139984844Y-100601988D01*
X139970335Y-100749300D01*
X139984844Y-100896612D01*
X140016052Y-100999490D01*
X139984844Y-101102368D01*
X139970335Y-101249680D01*
X139984844Y-101396992D01*
X140027813Y-101538642D01*
X140097591Y-101669188D01*
X140191497Y-101783613D01*
X140305922Y-101877519D01*
X140436468Y-101947297D01*
X140578118Y-101990266D01*
X140688523Y-102001140D01*
X140998860Y-102001140D01*
X140998860Y-102243415D01*
X140896226Y-102223000D01*
X140703774Y-102223000D01*
X140515020Y-102260546D01*
X140337217Y-102334194D01*
X140177199Y-102441115D01*
X140041115Y-102577199D01*
X139934194Y-102737217D01*
X139860546Y-102915020D01*
X139823000Y-103103774D01*
X139823000Y-103235489D01*
X139749592Y-103274727D01*
X139654119Y-103353079D01*
X139575767Y-103448552D01*
X139517545Y-103557477D01*
X139481693Y-103675667D01*
X139469587Y-103798580D01*
X139469587Y-104697740D01*
X139481693Y-104820653D01*
X139517545Y-104938843D01*
X139545699Y-104991514D01*
X139510118Y-105058080D01*
X139473808Y-105177778D01*
X139461548Y-105302260D01*
X135677000Y-105302260D01*
X135677000Y-99810207D01*
X136073000Y-99810207D01*
X136073000Y-100189793D01*
X136147053Y-100562085D01*
X136292315Y-100912777D01*
X136503201Y-101228391D01*
X136771609Y-101496799D01*
X137087223Y-101707685D01*
X137437915Y-101852947D01*
X137810207Y-101927000D01*
X138189793Y-101927000D01*
X138562085Y-101852947D01*
X138912777Y-101707685D01*
X139228391Y-101496799D01*
X139496799Y-101228391D01*
X139707685Y-100912777D01*
X139852947Y-100562085D01*
X139927000Y-100189793D01*
X139927000Y-99810207D01*
X139852947Y-99437915D01*
X139707685Y-99087223D01*
X139496799Y-98771609D01*
X139228391Y-98503201D01*
X138912777Y-98292315D01*
X138562085Y-98147053D01*
X138189793Y-98073000D01*
X137810207Y-98073000D01*
X137437915Y-98147053D01*
X137087223Y-98292315D01*
X136771609Y-98503201D01*
X136503201Y-98771609D01*
X136292315Y-99087223D01*
X136147053Y-99437915D01*
X136073000Y-99810207D01*
X135677000Y-99810207D01*
X135677000Y-92677000D01*
X168673000Y-92677000D01*
X168673000Y-108873000D01*
G04 #@! TA.AperFunction,Conductor*
D25*
G36*
X168673000Y-108873000D02*
G01*
X151538979Y-108873000D01*
X151545806Y-108862783D01*
X151619454Y-108684980D01*
X151657000Y-108496226D01*
X151657000Y-108303774D01*
X151619454Y-108115020D01*
X151545806Y-107937217D01*
X151438885Y-107777199D01*
X151302801Y-107641115D01*
X151142783Y-107534194D01*
X150992006Y-107471741D01*
X150737000Y-107216735D01*
X150737000Y-106533527D01*
X151750078Y-106533527D01*
X151803466Y-106762201D01*
X152033374Y-106868095D01*
X152279524Y-106927102D01*
X152532455Y-106936952D01*
X152782449Y-106897270D01*
X153019896Y-106809578D01*
X153108534Y-106762201D01*
X153161922Y-106533527D01*
X152456000Y-105827605D01*
X151750078Y-106533527D01*
X150737000Y-106533527D01*
X150737000Y-106099758D01*
X150799454Y-105948980D01*
X150837000Y-105760226D01*
X150837000Y-105724455D01*
X151167048Y-105724455D01*
X151206730Y-105974449D01*
X151294422Y-106211896D01*
X151341799Y-106300534D01*
X151570473Y-106353922D01*
X152276395Y-105648000D01*
X152635605Y-105648000D01*
X153341527Y-106353922D01*
X153570201Y-106300534D01*
X153676095Y-106070626D01*
X153709953Y-105929386D01*
X153728074Y-106020487D01*
X153824337Y-106252886D01*
X153964089Y-106462040D01*
X154141960Y-106639911D01*
X154351114Y-106779663D01*
X154583513Y-106875926D01*
X154830226Y-106925000D01*
X155081774Y-106925000D01*
X155328487Y-106875926D01*
X155560886Y-106779663D01*
X155770040Y-106639911D01*
X155947911Y-106462040D01*
X155956000Y-106449934D01*
X155964089Y-106462040D01*
X156141960Y-106639911D01*
X156351114Y-106779663D01*
X156583513Y-106875926D01*
X156830226Y-106925000D01*
X157081774Y-106925000D01*
X157328487Y-106875926D01*
X157560886Y-106779663D01*
X157770040Y-106639911D01*
X157947911Y-106462040D01*
X158087663Y-106252886D01*
X158175967Y-106039702D01*
X158175967Y-106298000D01*
X158188073Y-106420913D01*
X158223925Y-106539103D01*
X158282147Y-106648028D01*
X158360499Y-106743501D01*
X158455972Y-106821853D01*
X158564897Y-106880075D01*
X158683087Y-106915927D01*
X158806000Y-106928033D01*
X160106000Y-106928033D01*
X160228913Y-106915927D01*
X160347103Y-106880075D01*
X160456028Y-106821853D01*
X160551501Y-106743501D01*
X160629853Y-106648028D01*
X160688075Y-106539103D01*
X160723927Y-106420913D01*
X160736033Y-106298000D01*
X160736033Y-104998000D01*
X160723927Y-104875087D01*
X160688075Y-104756897D01*
X160629853Y-104647972D01*
X160551501Y-104552499D01*
X160456028Y-104474147D01*
X160347103Y-104415925D01*
X160228913Y-104380073D01*
X160106000Y-104367967D01*
X158806000Y-104367967D01*
X158683087Y-104380073D01*
X158564897Y-104415925D01*
X158455972Y-104474147D01*
X158360499Y-104552499D01*
X158282147Y-104647972D01*
X158223925Y-104756897D01*
X158188073Y-104875087D01*
X158175967Y-104998000D01*
X158175967Y-105256298D01*
X158087663Y-105043114D01*
X157947911Y-104833960D01*
X157770040Y-104656089D01*
X157560886Y-104516337D01*
X157328487Y-104420074D01*
X157081774Y-104371000D01*
X156830226Y-104371000D01*
X156583513Y-104420074D01*
X156351114Y-104516337D01*
X156141960Y-104656089D01*
X155964089Y-104833960D01*
X155956000Y-104846066D01*
X155947911Y-104833960D01*
X155770040Y-104656089D01*
X155560886Y-104516337D01*
X155328487Y-104420074D01*
X155081774Y-104371000D01*
X154830226Y-104371000D01*
X154583513Y-104420074D01*
X154351114Y-104516337D01*
X154141960Y-104656089D01*
X153964089Y-104833960D01*
X153824337Y-105043114D01*
X153728074Y-105275513D01*
X153711327Y-105359708D01*
X153705270Y-105321551D01*
X153617578Y-105084104D01*
X153570201Y-104995466D01*
X153341527Y-104942078D01*
X152635605Y-105648000D01*
X152276395Y-105648000D01*
X151570473Y-104942078D01*
X151341799Y-104995466D01*
X151235905Y-105225374D01*
X151176898Y-105471524D01*
X151167048Y-105724455D01*
X150837000Y-105724455D01*
X150837000Y-105567774D01*
X150799454Y-105379020D01*
X150725806Y-105201217D01*
X150618885Y-105041199D01*
X150482801Y-104905115D01*
X150471275Y-104897414D01*
X150506503Y-104868503D01*
X150593519Y-104762473D01*
X151750078Y-104762473D01*
X152456000Y-105468395D01*
X153161922Y-104762473D01*
X153108534Y-104533799D01*
X152878626Y-104427905D01*
X152632476Y-104368898D01*
X152379545Y-104359048D01*
X152129551Y-104398730D01*
X151892104Y-104486422D01*
X151803466Y-104533799D01*
X151750078Y-104762473D01*
X150593519Y-104762473D01*
X150703572Y-104628373D01*
X150850007Y-104354412D01*
X150940182Y-104057146D01*
X150963000Y-103825469D01*
X150963000Y-102670532D01*
X160949000Y-102670532D01*
X160949000Y-103825469D01*
X160971818Y-104057146D01*
X161061993Y-104354412D01*
X161208428Y-104628373D01*
X161405498Y-104868503D01*
X161645628Y-105065572D01*
X161919589Y-105212007D01*
X162216855Y-105302182D01*
X162526000Y-105332630D01*
X162835146Y-105302182D01*
X163132412Y-105212007D01*
X163406373Y-105065572D01*
X163646503Y-104868503D01*
X163843572Y-104628373D01*
X163990007Y-104354412D01*
X164080182Y-104057146D01*
X164103000Y-103825469D01*
X164103000Y-102670531D01*
X164080182Y-102438854D01*
X163990007Y-102141588D01*
X163843572Y-101867627D01*
X163646503Y-101627497D01*
X163406372Y-101430428D01*
X163132411Y-101283993D01*
X162835145Y-101193818D01*
X162526000Y-101163370D01*
X162216854Y-101193818D01*
X161919588Y-101283993D01*
X161645627Y-101430428D01*
X161405497Y-101627497D01*
X161208428Y-101867628D01*
X161061993Y-102141589D01*
X160971818Y-102438855D01*
X160949000Y-102670532D01*
X150963000Y-102670532D01*
X150963000Y-102670531D01*
X150940182Y-102438854D01*
X150850007Y-102141588D01*
X150703572Y-101867627D01*
X150506503Y-101627497D01*
X150266373Y-101430428D01*
X149992412Y-101283993D01*
X149695146Y-101193818D01*
X149386000Y-101163370D01*
X149076855Y-101193818D01*
X148779589Y-101283993D01*
X148505628Y-101430428D01*
X148265498Y-101627497D01*
X148068428Y-101867627D01*
X147921993Y-102141588D01*
X147831818Y-102438854D01*
X147809000Y-102670531D01*
X147809000Y-103825468D01*
X147831818Y-104057145D01*
X147921993Y-104354411D01*
X148068428Y-104628372D01*
X148265497Y-104868503D01*
X148505627Y-105065572D01*
X148779588Y-105212007D01*
X148966268Y-105268636D01*
X148920546Y-105379020D01*
X148883000Y-105567774D01*
X148883000Y-105760226D01*
X148920546Y-105948980D01*
X148983000Y-106099759D01*
X148983001Y-107536911D01*
X148978757Y-107580000D01*
X148995690Y-107751922D01*
X149045838Y-107917236D01*
X149127274Y-108069592D01*
X149209406Y-108169671D01*
X149209409Y-108169674D01*
X149236868Y-108203133D01*
X149270327Y-108230592D01*
X149751741Y-108712006D01*
X149814194Y-108862783D01*
X149821021Y-108873000D01*
X135677000Y-108873000D01*
X135677000Y-106201420D01*
X139461548Y-106201420D01*
X139473808Y-106325902D01*
X139510118Y-106445600D01*
X139569083Y-106555914D01*
X139648435Y-106652605D01*
X139745126Y-106731957D01*
X139855440Y-106790922D01*
X139975138Y-106827232D01*
X140099620Y-106839492D01*
X140314250Y-106836420D01*
X140473000Y-106677670D01*
X140473000Y-105878840D01*
X140727000Y-105878840D01*
X140727000Y-106677670D01*
X140885750Y-106836420D01*
X141100380Y-106839492D01*
X141224862Y-106827232D01*
X141344560Y-106790922D01*
X141400000Y-106761288D01*
X141455440Y-106790922D01*
X141575138Y-106827232D01*
X141699620Y-106839492D01*
X141914250Y-106836420D01*
X142073000Y-106677670D01*
X142073000Y-105878840D01*
X142327000Y-105878840D01*
X142327000Y-106677670D01*
X142485750Y-106836420D01*
X142700380Y-106839492D01*
X142824862Y-106827232D01*
X142944560Y-106790922D01*
X143000000Y-106761288D01*
X143055440Y-106790922D01*
X143175138Y-106827232D01*
X143299620Y-106839492D01*
X143514250Y-106836420D01*
X143673000Y-106677670D01*
X143673000Y-105878840D01*
X142327000Y-105878840D01*
X142073000Y-105878840D01*
X140727000Y-105878840D01*
X140473000Y-105878840D01*
X139623370Y-105878840D01*
X139464620Y-106037590D01*
X139461548Y-106201420D01*
X135677000Y-106201420D01*
X135677000Y-105302260D01*
X139461548Y-105302260D01*
X139464620Y-105466090D01*
X139623370Y-105624840D01*
X140473000Y-105624840D01*
X140473000Y-105604840D01*
X140727000Y-105604840D01*
X140727000Y-105624840D01*
X142073000Y-105624840D01*
X142073000Y-105604840D01*
X142327000Y-105604840D01*
X142327000Y-105624840D01*
X143673000Y-105624840D01*
X143673000Y-105604840D01*
X143927000Y-105604840D01*
X143927000Y-105624840D01*
X143947000Y-105624840D01*
X143947000Y-105878840D01*
X143927000Y-105878840D01*
X143927000Y-106677670D01*
X144077811Y-106828481D01*
X144111998Y-106941180D01*
X144170963Y-107051494D01*
X144250315Y-107148185D01*
X144347006Y-107227537D01*
X144457320Y-107286502D01*
X144577018Y-107322812D01*
X144701500Y-107335072D01*
X145114250Y-107332000D01*
X145273000Y-107173250D01*
X145273000Y-106379500D01*
X145527000Y-106379500D01*
X145527000Y-107173250D01*
X145685750Y-107332000D01*
X146098500Y-107335072D01*
X146222982Y-107322812D01*
X146342680Y-107286502D01*
X146452994Y-107227537D01*
X146549685Y-107148185D01*
X146629037Y-107051494D01*
X146688002Y-106941180D01*
X146724312Y-106821482D01*
X146736572Y-106697000D01*
X146733500Y-106538250D01*
X146574750Y-106379500D01*
X145527000Y-106379500D01*
X145273000Y-106379500D01*
X145253000Y-106379500D01*
X145253000Y-106125500D01*
X145273000Y-106125500D01*
X145273000Y-106105500D01*
X145527000Y-106105500D01*
X145527000Y-106125500D01*
X146574750Y-106125500D01*
X146733500Y-105966750D01*
X146736572Y-105808000D01*
X146724312Y-105683518D01*
X146688002Y-105563820D01*
X146629037Y-105453506D01*
X146549685Y-105356815D01*
X146474150Y-105294825D01*
X146544001Y-105237501D01*
X146622353Y-105142028D01*
X146680575Y-105033103D01*
X146716427Y-104914913D01*
X146728533Y-104792000D01*
X146728533Y-103903000D01*
X146716427Y-103780087D01*
X146680575Y-103661897D01*
X146622353Y-103552972D01*
X146544001Y-103457499D01*
X146448528Y-103379147D01*
X146339603Y-103320925D01*
X146221413Y-103285073D01*
X146177000Y-103280699D01*
X146177000Y-102538163D01*
X146180759Y-102500000D01*
X146174959Y-102441115D01*
X146165757Y-102347681D01*
X146121327Y-102201216D01*
X146049177Y-102066234D01*
X146014605Y-102024108D01*
X146102639Y-102015437D01*
X146249104Y-101971007D01*
X146384086Y-101898857D01*
X146502400Y-101801760D01*
X146526732Y-101772111D01*
X147212005Y-101086839D01*
X147235758Y-101077000D01*
X147456921Y-101077000D01*
X147500000Y-101081243D01*
X147543079Y-101077000D01*
X147671922Y-101064310D01*
X147837237Y-101014162D01*
X147989592Y-100932727D01*
X148123133Y-100823133D01*
X148150596Y-100789669D01*
X149041515Y-99898751D01*
X149074973Y-99871293D01*
X149125104Y-99810207D01*
X164073000Y-99810207D01*
X164073000Y-100189793D01*
X164147053Y-100562085D01*
X164292315Y-100912777D01*
X164503201Y-101228391D01*
X164771609Y-101496799D01*
X165087223Y-101707685D01*
X165437915Y-101852947D01*
X165810207Y-101927000D01*
X166189793Y-101927000D01*
X166562085Y-101852947D01*
X166912777Y-101707685D01*
X167228391Y-101496799D01*
X167496799Y-101228391D01*
X167707685Y-100912777D01*
X167852947Y-100562085D01*
X167927000Y-100189793D01*
X167927000Y-99810207D01*
X167852947Y-99437915D01*
X167707685Y-99087223D01*
X167496799Y-98771609D01*
X167228391Y-98503201D01*
X166912777Y-98292315D01*
X166562085Y-98147053D01*
X166189793Y-98073000D01*
X165810207Y-98073000D01*
X165437915Y-98147053D01*
X165087223Y-98292315D01*
X164771609Y-98503201D01*
X164503201Y-98771609D01*
X164292315Y-99087223D01*
X164147053Y-99437915D01*
X164073000Y-99810207D01*
X149125104Y-99810207D01*
X149184567Y-99737752D01*
X149266002Y-99585397D01*
X149301835Y-99467273D01*
X149316150Y-99420083D01*
X149333083Y-99248161D01*
X149328840Y-99205081D01*
X149328840Y-98760720D01*
X149346921Y-98745881D01*
X149425273Y-98650408D01*
X149483495Y-98541483D01*
X149519347Y-98423293D01*
X149531453Y-98300380D01*
X149531453Y-97299620D01*
X149519347Y-97176707D01*
X149483495Y-97058517D01*
X149425273Y-96949592D01*
X149346921Y-96854119D01*
X149328840Y-96839280D01*
X149328840Y-96543735D01*
X149383495Y-96441483D01*
X149419347Y-96323293D01*
X149431453Y-96200380D01*
X149431453Y-95199620D01*
X149419347Y-95076707D01*
X149383495Y-94958517D01*
X149325273Y-94849592D01*
X149246921Y-94754119D01*
X149151448Y-94675767D01*
X149042523Y-94617545D01*
X148924333Y-94581693D01*
X148801420Y-94569587D01*
X147902260Y-94569587D01*
X147779347Y-94581693D01*
X147661157Y-94617545D01*
X147600071Y-94650196D01*
X147569487Y-94549376D01*
X147526569Y-94469083D01*
X147497338Y-94414395D01*
X147473282Y-94385083D01*
X147439454Y-94215020D01*
X147365806Y-94037217D01*
X147258885Y-93877199D01*
X147122801Y-93741115D01*
X146962783Y-93634194D01*
X146784980Y-93560546D01*
X146596226Y-93523000D01*
X146403774Y-93523000D01*
X146215020Y-93560546D01*
X146037217Y-93634194D01*
X145877199Y-93741115D01*
X145741115Y-93877199D01*
X145634194Y-94037217D01*
X145560546Y-94215020D01*
X145529099Y-94373111D01*
X145378840Y-94523370D01*
X145378840Y-95373000D01*
X145398840Y-95373000D01*
X145398840Y-95627000D01*
X145378840Y-95627000D01*
X145378840Y-96476630D01*
X145537590Y-96635380D01*
X145701420Y-96638452D01*
X145825902Y-96626192D01*
X145914792Y-96599228D01*
X145953079Y-96645881D01*
X146048552Y-96724233D01*
X146147137Y-96776928D01*
X146053079Y-96854119D01*
X145974727Y-96949592D01*
X145916505Y-97058517D01*
X145880653Y-97176707D01*
X145868547Y-97299620D01*
X145868547Y-98265494D01*
X145802100Y-98189409D01*
X145682535Y-98097271D01*
X145547293Y-98030229D01*
X145401570Y-97990860D01*
X145001140Y-97990860D01*
X145001140Y-97688523D01*
X144990266Y-97578118D01*
X144947297Y-97436468D01*
X144877519Y-97305922D01*
X144783613Y-97191497D01*
X144669188Y-97097591D01*
X144538642Y-97027813D01*
X144526300Y-97024069D01*
X144526300Y-96572895D01*
X144558080Y-96589882D01*
X144677778Y-96626192D01*
X144802260Y-96638452D01*
X144966090Y-96635380D01*
X145124840Y-96476630D01*
X145124840Y-95627000D01*
X145104840Y-95627000D01*
X145104840Y-95373000D01*
X145124840Y-95373000D01*
X145124840Y-94523370D01*
X144966090Y-94364620D01*
X144802260Y-94361548D01*
X144677778Y-94373808D01*
X144558080Y-94410118D01*
X144491514Y-94445699D01*
X144438843Y-94417545D01*
X144320653Y-94381693D01*
X144197740Y-94369587D01*
X143298580Y-94369587D01*
X143175667Y-94381693D01*
X143057477Y-94417545D01*
X142948552Y-94475767D01*
X142853079Y-94554119D01*
X142774727Y-94649592D01*
X142716505Y-94758517D01*
X142680653Y-94876707D01*
X142668547Y-94999620D01*
X142668547Y-95245160D01*
X142584980Y-95210546D01*
X142396226Y-95173000D01*
X142203774Y-95173000D01*
X142015020Y-95210546D01*
X141837217Y-95284194D01*
X141677199Y-95391115D01*
X141565492Y-95502822D01*
X141462783Y-95434194D01*
X141284980Y-95360546D01*
X141096226Y-95323000D01*
X140903774Y-95323000D01*
X140715020Y-95360546D01*
X140537217Y-95434194D01*
X140377199Y-95541115D01*
X140241115Y-95677199D01*
X140134194Y-95837217D01*
X140060546Y-96015020D01*
X140023000Y-96203774D01*
X140023000Y-96396226D01*
X140060546Y-96584980D01*
X140134194Y-96762783D01*
X140241115Y-96922801D01*
X140377199Y-97058885D01*
X140537217Y-97165806D01*
X140715020Y-97239454D01*
X140903774Y-97277000D01*
X140948867Y-97277000D01*
X141023320Y-97351454D01*
X141023321Y-97533329D01*
X141009734Y-97578118D01*
X140998860Y-97688523D01*
X140998860Y-97990860D01*
X140598430Y-97990860D01*
X140452707Y-98030229D01*
X140317465Y-98097271D01*
X140197900Y-98189409D01*
X140098608Y-98303103D01*
X140023405Y-98433983D01*
X139975320Y-98631514D01*
X140124720Y-98750320D01*
X139975320Y-98869126D01*
X140011198Y-99016511D01*
X139984844Y-99103388D01*
X139970335Y-99250700D01*
X139984844Y-99398012D01*
X140016052Y-99500890D01*
X139984844Y-99603768D01*
X139970335Y-99751080D01*
X139984844Y-99898392D01*
X140015666Y-100000000D01*
X139984844Y-100101608D01*
X139970335Y-100248920D01*
X139984844Y-100396232D01*
X140016052Y-100499110D01*
X139984844Y-100601988D01*
X139970335Y-100749300D01*
X139984844Y-100896612D01*
X140016052Y-100999490D01*
X139984844Y-101102368D01*
X139970335Y-101249680D01*
X139984844Y-101396992D01*
X140027813Y-101538642D01*
X140097591Y-101669188D01*
X140191497Y-101783613D01*
X140305922Y-101877519D01*
X140436468Y-101947297D01*
X140578118Y-101990266D01*
X140688523Y-102001140D01*
X140998860Y-102001140D01*
X140998860Y-102243415D01*
X140896226Y-102223000D01*
X140703774Y-102223000D01*
X140515020Y-102260546D01*
X140337217Y-102334194D01*
X140177199Y-102441115D01*
X140041115Y-102577199D01*
X139934194Y-102737217D01*
X139860546Y-102915020D01*
X139823000Y-103103774D01*
X139823000Y-103235489D01*
X139749592Y-103274727D01*
X139654119Y-103353079D01*
X139575767Y-103448552D01*
X139517545Y-103557477D01*
X139481693Y-103675667D01*
X139469587Y-103798580D01*
X139469587Y-104697740D01*
X139481693Y-104820653D01*
X139517545Y-104938843D01*
X139545699Y-104991514D01*
X139510118Y-105058080D01*
X139473808Y-105177778D01*
X139461548Y-105302260D01*
X135677000Y-105302260D01*
X135677000Y-99810207D01*
X136073000Y-99810207D01*
X136073000Y-100189793D01*
X136147053Y-100562085D01*
X136292315Y-100912777D01*
X136503201Y-101228391D01*
X136771609Y-101496799D01*
X137087223Y-101707685D01*
X137437915Y-101852947D01*
X137810207Y-101927000D01*
X138189793Y-101927000D01*
X138562085Y-101852947D01*
X138912777Y-101707685D01*
X139228391Y-101496799D01*
X139496799Y-101228391D01*
X139707685Y-100912777D01*
X139852947Y-100562085D01*
X139927000Y-100189793D01*
X139927000Y-99810207D01*
X139852947Y-99437915D01*
X139707685Y-99087223D01*
X139496799Y-98771609D01*
X139228391Y-98503201D01*
X138912777Y-98292315D01*
X138562085Y-98147053D01*
X138189793Y-98073000D01*
X137810207Y-98073000D01*
X137437915Y-98147053D01*
X137087223Y-98292315D01*
X136771609Y-98503201D01*
X136503201Y-98771609D01*
X136292315Y-99087223D01*
X136147053Y-99437915D01*
X136073000Y-99810207D01*
X135677000Y-99810207D01*
X135677000Y-92677000D01*
X168673000Y-92677000D01*
X168673000Y-108873000D01*
G37*
G04 #@! TD.AperFunction*
D24*
X144001906Y-98986721D02*
X144009158Y-99016511D01*
X143982804Y-99103388D01*
X143968295Y-99250700D01*
X143982804Y-99398012D01*
X144014012Y-99500890D01*
X143982804Y-99603768D01*
X143968295Y-99751080D01*
X143982804Y-99898392D01*
X144013626Y-100000000D01*
X143982804Y-100101608D01*
X143968295Y-100248920D01*
X143982804Y-100396232D01*
X144014012Y-100499110D01*
X143982804Y-100601988D01*
X143968295Y-100749300D01*
X143982804Y-100896612D01*
X144014012Y-100999490D01*
X144011382Y-101008158D01*
X143868106Y-100973280D01*
X143749300Y-101122680D01*
X143630494Y-100973280D01*
X143483109Y-101009158D01*
X143396231Y-100982804D01*
X143248920Y-100968295D01*
X143101608Y-100982804D01*
X143015862Y-101008815D01*
X142869886Y-100973280D01*
X142751080Y-101122680D01*
X142632274Y-100973280D01*
X142484889Y-101009158D01*
X142398011Y-100982804D01*
X142250700Y-100968295D01*
X142103388Y-100982804D01*
X142000510Y-101014012D01*
X141989368Y-101010632D01*
X141985988Y-100999490D01*
X142017196Y-100896612D01*
X142031705Y-100749300D01*
X142017196Y-100601988D01*
X141985988Y-100499110D01*
X142017196Y-100396232D01*
X142031705Y-100248920D01*
X142017196Y-100101608D01*
X141986374Y-100000000D01*
X142017196Y-99898392D01*
X142031705Y-99751080D01*
X142017196Y-99603768D01*
X141985988Y-99500890D01*
X142017196Y-99398012D01*
X142031705Y-99250700D01*
X142017196Y-99103388D01*
X141990842Y-99016511D01*
X141998094Y-98986721D01*
X142000510Y-98985988D01*
X142103388Y-99017196D01*
X142250700Y-99031705D01*
X142398011Y-99017196D01*
X142500890Y-98985988D01*
X142603768Y-99017196D01*
X142751080Y-99031705D01*
X142898391Y-99017196D01*
X143000000Y-98986373D01*
X143101608Y-99017196D01*
X143248920Y-99031705D01*
X143396231Y-99017196D01*
X143499110Y-98985988D01*
X143601988Y-99017196D01*
X143749300Y-99031705D01*
X143896611Y-99017196D01*
X143999490Y-98985988D01*
X144001906Y-98986721D01*
G04 #@! TA.AperFunction,Conductor*
D25*
G36*
X144001906Y-98986721D02*
G01*
X144009158Y-99016511D01*
X143982804Y-99103388D01*
X143968295Y-99250700D01*
X143982804Y-99398012D01*
X144014012Y-99500890D01*
X143982804Y-99603768D01*
X143968295Y-99751080D01*
X143982804Y-99898392D01*
X144013626Y-100000000D01*
X143982804Y-100101608D01*
X143968295Y-100248920D01*
X143982804Y-100396232D01*
X144014012Y-100499110D01*
X143982804Y-100601988D01*
X143968295Y-100749300D01*
X143982804Y-100896612D01*
X144014012Y-100999490D01*
X144011382Y-101008158D01*
X143868106Y-100973280D01*
X143749300Y-101122680D01*
X143630494Y-100973280D01*
X143483109Y-101009158D01*
X143396231Y-100982804D01*
X143248920Y-100968295D01*
X143101608Y-100982804D01*
X143015862Y-101008815D01*
X142869886Y-100973280D01*
X142751080Y-101122680D01*
X142632274Y-100973280D01*
X142484889Y-101009158D01*
X142398011Y-100982804D01*
X142250700Y-100968295D01*
X142103388Y-100982804D01*
X142000510Y-101014012D01*
X141989368Y-101010632D01*
X141985988Y-100999490D01*
X142017196Y-100896612D01*
X142031705Y-100749300D01*
X142017196Y-100601988D01*
X141985988Y-100499110D01*
X142017196Y-100396232D01*
X142031705Y-100248920D01*
X142017196Y-100101608D01*
X141986374Y-100000000D01*
X142017196Y-99898392D01*
X142031705Y-99751080D01*
X142017196Y-99603768D01*
X141985988Y-99500890D01*
X142017196Y-99398012D01*
X142031705Y-99250700D01*
X142017196Y-99103388D01*
X141990842Y-99016511D01*
X141998094Y-98986721D01*
X142000510Y-98985988D01*
X142103388Y-99017196D01*
X142250700Y-99031705D01*
X142398011Y-99017196D01*
X142500890Y-98985988D01*
X142603768Y-99017196D01*
X142751080Y-99031705D01*
X142898391Y-99017196D01*
X143000000Y-98986373D01*
X143101608Y-99017196D01*
X143248920Y-99031705D01*
X143396231Y-99017196D01*
X143499110Y-98985988D01*
X143601988Y-99017196D01*
X143749300Y-99031705D01*
X143896611Y-99017196D01*
X143999490Y-98985988D01*
X144001906Y-98986721D01*
G37*
G04 #@! TD.AperFunction*
M02*
