G04 #@! TF.GenerationSoftware,KiCad,Pcbnew,5.1.9-73d0e3b20d~88~ubuntu18.04.1*
G04 #@! TF.CreationDate,2021-03-21T21:20:43-07:00*
G04 #@! TF.ProjectId,accelgyro_mpu6050_d2br2,61636365-6c67-4797-926f-5f6d70753630,rev?*
G04 #@! TF.SameCoordinates,Original*
G04 #@! TF.FileFunction,Copper,L2,Bot*
G04 #@! TF.FilePolarity,Positive*
%FSLAX46Y46*%
G04 Gerber Fmt 4.6, Leading zero omitted, Abs format (unit mm)*
G04 Created by KiCad (PCBNEW 5.1.9-73d0e3b20d~88~ubuntu18.04.1) date 2021-03-21 21:20:43*
%MOMM*%
%LPD*%
G01*
G04 APERTURE LIST*
G04 #@! TA.AperFunction,ComponentPad*
%ADD10R,1.300000X1.300000*%
G04 #@! TD*
G04 #@! TA.AperFunction,ComponentPad*
%ADD11C,1.300000*%
G04 #@! TD*
G04 #@! TA.AperFunction,ComponentPad*
%ADD12O,1.900000X2.900000*%
G04 #@! TD*
G04 #@! TA.AperFunction,ComponentPad*
%ADD13C,0.600000*%
G04 #@! TD*
G04 #@! TA.AperFunction,SMDPad,CuDef*
%ADD14R,2.499360X2.499360*%
G04 #@! TD*
G04 #@! TA.AperFunction,ViaPad*
%ADD15C,0.700000*%
G04 #@! TD*
G04 #@! TA.AperFunction,Conductor*
%ADD16C,0.200000*%
G04 #@! TD*
G04 #@! TA.AperFunction,Conductor*
%ADD17C,0.250000*%
G04 #@! TD*
G04 #@! TA.AperFunction,Conductor*
%ADD18C,0.300000*%
G04 #@! TD*
G04 #@! TA.AperFunction,Conductor*
%ADD19C,0.500000*%
G04 #@! TD*
G04 #@! TA.AperFunction,Conductor*
%ADD20C,0.254000*%
G04 #@! TD*
G04 #@! TA.AperFunction,Conductor*
%ADD21C,0.150000*%
G04 #@! TD*
G04 APERTURE END LIST*
D10*
X159456000Y-105648000D03*
D11*
X156956000Y-105648000D03*
X154956000Y-105648000D03*
X152456000Y-105648000D03*
D12*
X162526000Y-103248000D03*
X149386000Y-103248000D03*
D13*
X143000000Y-100000000D03*
X143762000Y-99238000D03*
X142238000Y-99238000D03*
X143762000Y-100762000D03*
X142238000Y-100762000D03*
D14*
X143000000Y-100000000D03*
D15*
X142300000Y-96150000D03*
X146900000Y-98900000D03*
X141000000Y-96300000D03*
X146500000Y-94500000D03*
X146800000Y-100200000D03*
X143600000Y-103300000D03*
X140800000Y-103200000D03*
X149860000Y-105664000D03*
X150680000Y-108400000D03*
D16*
X143300000Y-95850000D02*
X142300000Y-96150000D01*
X154924000Y-105648000D02*
X154178000Y-104902000D01*
X153602000Y-104902000D02*
X148400000Y-99700000D01*
X148400000Y-99700000D02*
X148400000Y-98500000D01*
X154956000Y-105648000D02*
X154924000Y-105648000D01*
X154178000Y-104902000D02*
X153602000Y-104902000D01*
X145750000Y-95850000D02*
X143300000Y-95850000D01*
X148400000Y-98500000D02*
X146650000Y-96750000D01*
X146650000Y-96750000D02*
X145750000Y-95850000D01*
D17*
X146900000Y-97100000D02*
X146650000Y-96750000D01*
X146900000Y-98900000D02*
X146900000Y-97100000D01*
D16*
X141000000Y-95800000D02*
X141000000Y-96300000D01*
X141750000Y-95050000D02*
X141000000Y-95800000D01*
X145650000Y-95050000D02*
X141750000Y-95050000D01*
X153200000Y-104050000D02*
X148800000Y-99650000D01*
X148844000Y-99606000D02*
X148800000Y-99650000D01*
X145650000Y-95104000D02*
X148844000Y-98298000D01*
X145650000Y-95050000D02*
X145650000Y-95104000D01*
X148844000Y-98298000D02*
X148844000Y-99606000D01*
X154014000Y-104050000D02*
X155358000Y-104050000D01*
X155358000Y-104050000D02*
X156956000Y-105648000D01*
X154014000Y-104050000D02*
X153200000Y-104050000D01*
D17*
X145950000Y-95050000D02*
X145650000Y-95050000D01*
X146500000Y-94500000D02*
X145950000Y-95050000D01*
D18*
X142900000Y-103300000D02*
X143600000Y-103300000D01*
X142800000Y-103200000D02*
X142900000Y-103300000D01*
X140800000Y-103200000D02*
X142800000Y-103200000D01*
D19*
X148000000Y-101400000D02*
X148000000Y-105582000D01*
X146800000Y-100200000D02*
X148000000Y-101400000D01*
X148000000Y-105582000D02*
X149860000Y-107442000D01*
X158812000Y-107442000D02*
X157988000Y-107442000D01*
X159456000Y-106798000D02*
X158812000Y-107442000D01*
X159456000Y-105648000D02*
X159456000Y-106798000D01*
X149860000Y-107442000D02*
X157988000Y-107442000D01*
X160216000Y-108400000D02*
X160586000Y-108400000D01*
X162526000Y-106460000D02*
X162526000Y-103248000D01*
X160586000Y-108400000D02*
X162526000Y-106460000D01*
X149386000Y-103248000D02*
X149386000Y-105190000D01*
X149386000Y-105190000D02*
X149860000Y-105664000D01*
X150680000Y-108400000D02*
X160216000Y-108400000D01*
D20*
X168673000Y-108873000D02*
X161353265Y-108873000D01*
X163115669Y-107110596D01*
X163149133Y-107083133D01*
X163258727Y-106949592D01*
X163340162Y-106797237D01*
X163390310Y-106631922D01*
X163403000Y-106503079D01*
X163403000Y-106503070D01*
X163407242Y-106460001D01*
X163403000Y-106416931D01*
X163403000Y-105067375D01*
X163406373Y-105065572D01*
X163646503Y-104868503D01*
X163843572Y-104628373D01*
X163990007Y-104354412D01*
X164080182Y-104057146D01*
X164103000Y-103825469D01*
X164103000Y-102670531D01*
X164080182Y-102438854D01*
X163990007Y-102141588D01*
X163843572Y-101867627D01*
X163646503Y-101627497D01*
X163406372Y-101430428D01*
X163132411Y-101283993D01*
X162835145Y-101193818D01*
X162526000Y-101163370D01*
X162216854Y-101193818D01*
X161919588Y-101283993D01*
X161645627Y-101430428D01*
X161405497Y-101627497D01*
X161208428Y-101867628D01*
X161061993Y-102141589D01*
X160971818Y-102438855D01*
X160949000Y-102670532D01*
X160949000Y-103825469D01*
X160971818Y-104057146D01*
X161061993Y-104354412D01*
X161208428Y-104628373D01*
X161405498Y-104868503D01*
X161645628Y-105065572D01*
X161649000Y-105067375D01*
X161649000Y-106096735D01*
X160222735Y-107523000D01*
X159971265Y-107523000D01*
X160045668Y-107448597D01*
X160079133Y-107421133D01*
X160188727Y-107287592D01*
X160270162Y-107135237D01*
X160320310Y-106969922D01*
X160322313Y-106949591D01*
X160328607Y-106885686D01*
X160347103Y-106880075D01*
X160456028Y-106821853D01*
X160551501Y-106743501D01*
X160629853Y-106648028D01*
X160688075Y-106539103D01*
X160723927Y-106420913D01*
X160736033Y-106298000D01*
X160736033Y-104998000D01*
X160723927Y-104875087D01*
X160688075Y-104756897D01*
X160629853Y-104647972D01*
X160551501Y-104552499D01*
X160456028Y-104474147D01*
X160347103Y-104415925D01*
X160228913Y-104380073D01*
X160106000Y-104367967D01*
X158806000Y-104367967D01*
X158683087Y-104380073D01*
X158564897Y-104415925D01*
X158455972Y-104474147D01*
X158360499Y-104552499D01*
X158282147Y-104647972D01*
X158223925Y-104756897D01*
X158188073Y-104875087D01*
X158175967Y-104998000D01*
X158175967Y-105256298D01*
X158087663Y-105043114D01*
X157947911Y-104833960D01*
X157770040Y-104656089D01*
X157560886Y-104516337D01*
X157328487Y-104420074D01*
X157081774Y-104371000D01*
X156830226Y-104371000D01*
X156727555Y-104391422D01*
X155897326Y-103561194D01*
X155874554Y-103533446D01*
X155763853Y-103442597D01*
X155637557Y-103375090D01*
X155500517Y-103333520D01*
X155393708Y-103323000D01*
X155358000Y-103319483D01*
X155322292Y-103323000D01*
X153501134Y-103323000D01*
X149988340Y-99810207D01*
X164073000Y-99810207D01*
X164073000Y-100189793D01*
X164147053Y-100562085D01*
X164292315Y-100912777D01*
X164503201Y-101228391D01*
X164771609Y-101496799D01*
X165087223Y-101707685D01*
X165437915Y-101852947D01*
X165810207Y-101927000D01*
X166189793Y-101927000D01*
X166562085Y-101852947D01*
X166912777Y-101707685D01*
X167228391Y-101496799D01*
X167496799Y-101228391D01*
X167707685Y-100912777D01*
X167852947Y-100562085D01*
X167927000Y-100189793D01*
X167927000Y-99810207D01*
X167852947Y-99437915D01*
X167707685Y-99087223D01*
X167496799Y-98771609D01*
X167228391Y-98503201D01*
X166912777Y-98292315D01*
X166562085Y-98147053D01*
X166189793Y-98073000D01*
X165810207Y-98073000D01*
X165437915Y-98147053D01*
X165087223Y-98292315D01*
X164771609Y-98503201D01*
X164503201Y-98771609D01*
X164292315Y-99087223D01*
X164147053Y-99437915D01*
X164073000Y-99810207D01*
X149988340Y-99810207D01*
X149571000Y-99392868D01*
X149571000Y-98333707D01*
X149574517Y-98297999D01*
X149560480Y-98155482D01*
X149518910Y-98018443D01*
X149515029Y-98011182D01*
X149451403Y-97892147D01*
X149360553Y-97781446D01*
X149332816Y-97758683D01*
X146946629Y-95372497D01*
X146962783Y-95365806D01*
X147122801Y-95258885D01*
X147258885Y-95122801D01*
X147365806Y-94962783D01*
X147439454Y-94784980D01*
X147477000Y-94596226D01*
X147477000Y-94403774D01*
X147439454Y-94215020D01*
X147365806Y-94037217D01*
X147258885Y-93877199D01*
X147122801Y-93741115D01*
X146962783Y-93634194D01*
X146784980Y-93560546D01*
X146596226Y-93523000D01*
X146403774Y-93523000D01*
X146215020Y-93560546D01*
X146037217Y-93634194D01*
X145877199Y-93741115D01*
X145741115Y-93877199D01*
X145634194Y-94037217D01*
X145560546Y-94215020D01*
X145542661Y-94304934D01*
X145502582Y-94308881D01*
X145456039Y-94323000D01*
X141785707Y-94323000D01*
X141749999Y-94319483D01*
X141607482Y-94333520D01*
X141575587Y-94343195D01*
X141470443Y-94375090D01*
X141344147Y-94442597D01*
X141233446Y-94533446D01*
X141210679Y-94561189D01*
X140511189Y-95260679D01*
X140483446Y-95283447D01*
X140392597Y-95394148D01*
X140333511Y-95504689D01*
X140325090Y-95520444D01*
X140293399Y-95624915D01*
X140241115Y-95677199D01*
X140134194Y-95837217D01*
X140060546Y-96015020D01*
X140023000Y-96203774D01*
X140023000Y-96396226D01*
X140060546Y-96584980D01*
X140134194Y-96762783D01*
X140241115Y-96922801D01*
X140377199Y-97058885D01*
X140537217Y-97165806D01*
X140715020Y-97239454D01*
X140903774Y-97277000D01*
X141096226Y-97277000D01*
X141284980Y-97239454D01*
X141462783Y-97165806D01*
X141622801Y-97058885D01*
X141734508Y-96947178D01*
X141837217Y-97015806D01*
X142015020Y-97089454D01*
X142203774Y-97127000D01*
X142396226Y-97127000D01*
X142584980Y-97089454D01*
X142762783Y-97015806D01*
X142922801Y-96908885D01*
X143058885Y-96772801D01*
X143135316Y-96658415D01*
X143406698Y-96577000D01*
X145448868Y-96577000D01*
X145999944Y-97128076D01*
X146016603Y-97157033D01*
X146148001Y-97340990D01*
X146148000Y-98270314D01*
X146141115Y-98277199D01*
X146034194Y-98437217D01*
X145960546Y-98615020D01*
X145923000Y-98803774D01*
X145923000Y-98996226D01*
X145960546Y-99184980D01*
X146034194Y-99362783D01*
X146122849Y-99495465D01*
X146041115Y-99577199D01*
X145934194Y-99737217D01*
X145860546Y-99915020D01*
X145823000Y-100103774D01*
X145823000Y-100296226D01*
X145860546Y-100484980D01*
X145934194Y-100662783D01*
X146041115Y-100822801D01*
X146177199Y-100958885D01*
X146337217Y-101065806D01*
X146487995Y-101128260D01*
X147123000Y-101763265D01*
X147123001Y-105538911D01*
X147118757Y-105582000D01*
X147135690Y-105753922D01*
X147185838Y-105919236D01*
X147267274Y-106071592D01*
X147349406Y-106171671D01*
X147349409Y-106171674D01*
X147376868Y-106205133D01*
X147410327Y-106232592D01*
X149209403Y-108031668D01*
X149236867Y-108065133D01*
X149370408Y-108174727D01*
X149522763Y-108256162D01*
X149688078Y-108306310D01*
X149703000Y-108307780D01*
X149703000Y-108496226D01*
X149740546Y-108684980D01*
X149814194Y-108862783D01*
X149821021Y-108873000D01*
X135677000Y-108873000D01*
X135677000Y-103103774D01*
X139823000Y-103103774D01*
X139823000Y-103296226D01*
X139860546Y-103484980D01*
X139934194Y-103662783D01*
X140041115Y-103822801D01*
X140177199Y-103958885D01*
X140337217Y-104065806D01*
X140515020Y-104139454D01*
X140703774Y-104177000D01*
X140896226Y-104177000D01*
X141084980Y-104139454D01*
X141262783Y-104065806D01*
X141395690Y-103977000D01*
X142518287Y-103977000D01*
X142601216Y-104021327D01*
X142747681Y-104065757D01*
X142861834Y-104077000D01*
X142861844Y-104077000D01*
X142899999Y-104080758D01*
X142938155Y-104077000D01*
X143004310Y-104077000D01*
X143137217Y-104165806D01*
X143315020Y-104239454D01*
X143503774Y-104277000D01*
X143696226Y-104277000D01*
X143884980Y-104239454D01*
X144062783Y-104165806D01*
X144222801Y-104058885D01*
X144358885Y-103922801D01*
X144465806Y-103762783D01*
X144539454Y-103584980D01*
X144577000Y-103396226D01*
X144577000Y-103203774D01*
X144539454Y-103015020D01*
X144465806Y-102837217D01*
X144358885Y-102677199D01*
X144222801Y-102541115D01*
X144062783Y-102434194D01*
X143884980Y-102360546D01*
X143696226Y-102323000D01*
X143503774Y-102323000D01*
X143315020Y-102360546D01*
X143137217Y-102434194D01*
X143079434Y-102472803D01*
X142952319Y-102434243D01*
X142838166Y-102423000D01*
X142838163Y-102423000D01*
X142800000Y-102419241D01*
X142761837Y-102423000D01*
X141395690Y-102423000D01*
X141262783Y-102334194D01*
X141084980Y-102260546D01*
X140896226Y-102223000D01*
X140703774Y-102223000D01*
X140515020Y-102260546D01*
X140337217Y-102334194D01*
X140177199Y-102441115D01*
X140041115Y-102577199D01*
X139934194Y-102737217D01*
X139860546Y-102915020D01*
X139823000Y-103103774D01*
X135677000Y-103103774D01*
X135677000Y-99810207D01*
X136073000Y-99810207D01*
X136073000Y-100189793D01*
X136147053Y-100562085D01*
X136292315Y-100912777D01*
X136503201Y-101228391D01*
X136771609Y-101496799D01*
X137087223Y-101707685D01*
X137437915Y-101852947D01*
X137810207Y-101927000D01*
X138189793Y-101927000D01*
X138562085Y-101852947D01*
X138912777Y-101707685D01*
X139228391Y-101496799D01*
X139496799Y-101228391D01*
X139707685Y-100912777D01*
X139852947Y-100562085D01*
X139927000Y-100189793D01*
X139927000Y-99810207D01*
X139852947Y-99437915D01*
X139707685Y-99087223D01*
X139496799Y-98771609D01*
X139228391Y-98503201D01*
X138912777Y-98292315D01*
X138562085Y-98147053D01*
X138189793Y-98073000D01*
X137810207Y-98073000D01*
X137437915Y-98147053D01*
X137087223Y-98292315D01*
X136771609Y-98503201D01*
X136503201Y-98771609D01*
X136292315Y-99087223D01*
X136147053Y-99437915D01*
X136073000Y-99810207D01*
X135677000Y-99810207D01*
X135677000Y-92677000D01*
X168673000Y-92677000D01*
X168673000Y-108873000D01*
G04 #@! TA.AperFunction,Conductor*
D21*
G36*
X168673000Y-108873000D02*
G01*
X161353265Y-108873000D01*
X163115669Y-107110596D01*
X163149133Y-107083133D01*
X163258727Y-106949592D01*
X163340162Y-106797237D01*
X163390310Y-106631922D01*
X163403000Y-106503079D01*
X163403000Y-106503070D01*
X163407242Y-106460001D01*
X163403000Y-106416931D01*
X163403000Y-105067375D01*
X163406373Y-105065572D01*
X163646503Y-104868503D01*
X163843572Y-104628373D01*
X163990007Y-104354412D01*
X164080182Y-104057146D01*
X164103000Y-103825469D01*
X164103000Y-102670531D01*
X164080182Y-102438854D01*
X163990007Y-102141588D01*
X163843572Y-101867627D01*
X163646503Y-101627497D01*
X163406372Y-101430428D01*
X163132411Y-101283993D01*
X162835145Y-101193818D01*
X162526000Y-101163370D01*
X162216854Y-101193818D01*
X161919588Y-101283993D01*
X161645627Y-101430428D01*
X161405497Y-101627497D01*
X161208428Y-101867628D01*
X161061993Y-102141589D01*
X160971818Y-102438855D01*
X160949000Y-102670532D01*
X160949000Y-103825469D01*
X160971818Y-104057146D01*
X161061993Y-104354412D01*
X161208428Y-104628373D01*
X161405498Y-104868503D01*
X161645628Y-105065572D01*
X161649000Y-105067375D01*
X161649000Y-106096735D01*
X160222735Y-107523000D01*
X159971265Y-107523000D01*
X160045668Y-107448597D01*
X160079133Y-107421133D01*
X160188727Y-107287592D01*
X160270162Y-107135237D01*
X160320310Y-106969922D01*
X160322313Y-106949591D01*
X160328607Y-106885686D01*
X160347103Y-106880075D01*
X160456028Y-106821853D01*
X160551501Y-106743501D01*
X160629853Y-106648028D01*
X160688075Y-106539103D01*
X160723927Y-106420913D01*
X160736033Y-106298000D01*
X160736033Y-104998000D01*
X160723927Y-104875087D01*
X160688075Y-104756897D01*
X160629853Y-104647972D01*
X160551501Y-104552499D01*
X160456028Y-104474147D01*
X160347103Y-104415925D01*
X160228913Y-104380073D01*
X160106000Y-104367967D01*
X158806000Y-104367967D01*
X158683087Y-104380073D01*
X158564897Y-104415925D01*
X158455972Y-104474147D01*
X158360499Y-104552499D01*
X158282147Y-104647972D01*
X158223925Y-104756897D01*
X158188073Y-104875087D01*
X158175967Y-104998000D01*
X158175967Y-105256298D01*
X158087663Y-105043114D01*
X157947911Y-104833960D01*
X157770040Y-104656089D01*
X157560886Y-104516337D01*
X157328487Y-104420074D01*
X157081774Y-104371000D01*
X156830226Y-104371000D01*
X156727555Y-104391422D01*
X155897326Y-103561194D01*
X155874554Y-103533446D01*
X155763853Y-103442597D01*
X155637557Y-103375090D01*
X155500517Y-103333520D01*
X155393708Y-103323000D01*
X155358000Y-103319483D01*
X155322292Y-103323000D01*
X153501134Y-103323000D01*
X149988340Y-99810207D01*
X164073000Y-99810207D01*
X164073000Y-100189793D01*
X164147053Y-100562085D01*
X164292315Y-100912777D01*
X164503201Y-101228391D01*
X164771609Y-101496799D01*
X165087223Y-101707685D01*
X165437915Y-101852947D01*
X165810207Y-101927000D01*
X166189793Y-101927000D01*
X166562085Y-101852947D01*
X166912777Y-101707685D01*
X167228391Y-101496799D01*
X167496799Y-101228391D01*
X167707685Y-100912777D01*
X167852947Y-100562085D01*
X167927000Y-100189793D01*
X167927000Y-99810207D01*
X167852947Y-99437915D01*
X167707685Y-99087223D01*
X167496799Y-98771609D01*
X167228391Y-98503201D01*
X166912777Y-98292315D01*
X166562085Y-98147053D01*
X166189793Y-98073000D01*
X165810207Y-98073000D01*
X165437915Y-98147053D01*
X165087223Y-98292315D01*
X164771609Y-98503201D01*
X164503201Y-98771609D01*
X164292315Y-99087223D01*
X164147053Y-99437915D01*
X164073000Y-99810207D01*
X149988340Y-99810207D01*
X149571000Y-99392868D01*
X149571000Y-98333707D01*
X149574517Y-98297999D01*
X149560480Y-98155482D01*
X149518910Y-98018443D01*
X149515029Y-98011182D01*
X149451403Y-97892147D01*
X149360553Y-97781446D01*
X149332816Y-97758683D01*
X146946629Y-95372497D01*
X146962783Y-95365806D01*
X147122801Y-95258885D01*
X147258885Y-95122801D01*
X147365806Y-94962783D01*
X147439454Y-94784980D01*
X147477000Y-94596226D01*
X147477000Y-94403774D01*
X147439454Y-94215020D01*
X147365806Y-94037217D01*
X147258885Y-93877199D01*
X147122801Y-93741115D01*
X146962783Y-93634194D01*
X146784980Y-93560546D01*
X146596226Y-93523000D01*
X146403774Y-93523000D01*
X146215020Y-93560546D01*
X146037217Y-93634194D01*
X145877199Y-93741115D01*
X145741115Y-93877199D01*
X145634194Y-94037217D01*
X145560546Y-94215020D01*
X145542661Y-94304934D01*
X145502582Y-94308881D01*
X145456039Y-94323000D01*
X141785707Y-94323000D01*
X141749999Y-94319483D01*
X141607482Y-94333520D01*
X141575587Y-94343195D01*
X141470443Y-94375090D01*
X141344147Y-94442597D01*
X141233446Y-94533446D01*
X141210679Y-94561189D01*
X140511189Y-95260679D01*
X140483446Y-95283447D01*
X140392597Y-95394148D01*
X140333511Y-95504689D01*
X140325090Y-95520444D01*
X140293399Y-95624915D01*
X140241115Y-95677199D01*
X140134194Y-95837217D01*
X140060546Y-96015020D01*
X140023000Y-96203774D01*
X140023000Y-96396226D01*
X140060546Y-96584980D01*
X140134194Y-96762783D01*
X140241115Y-96922801D01*
X140377199Y-97058885D01*
X140537217Y-97165806D01*
X140715020Y-97239454D01*
X140903774Y-97277000D01*
X141096226Y-97277000D01*
X141284980Y-97239454D01*
X141462783Y-97165806D01*
X141622801Y-97058885D01*
X141734508Y-96947178D01*
X141837217Y-97015806D01*
X142015020Y-97089454D01*
X142203774Y-97127000D01*
X142396226Y-97127000D01*
X142584980Y-97089454D01*
X142762783Y-97015806D01*
X142922801Y-96908885D01*
X143058885Y-96772801D01*
X143135316Y-96658415D01*
X143406698Y-96577000D01*
X145448868Y-96577000D01*
X145999944Y-97128076D01*
X146016603Y-97157033D01*
X146148001Y-97340990D01*
X146148000Y-98270314D01*
X146141115Y-98277199D01*
X146034194Y-98437217D01*
X145960546Y-98615020D01*
X145923000Y-98803774D01*
X145923000Y-98996226D01*
X145960546Y-99184980D01*
X146034194Y-99362783D01*
X146122849Y-99495465D01*
X146041115Y-99577199D01*
X145934194Y-99737217D01*
X145860546Y-99915020D01*
X145823000Y-100103774D01*
X145823000Y-100296226D01*
X145860546Y-100484980D01*
X145934194Y-100662783D01*
X146041115Y-100822801D01*
X146177199Y-100958885D01*
X146337217Y-101065806D01*
X146487995Y-101128260D01*
X147123000Y-101763265D01*
X147123001Y-105538911D01*
X147118757Y-105582000D01*
X147135690Y-105753922D01*
X147185838Y-105919236D01*
X147267274Y-106071592D01*
X147349406Y-106171671D01*
X147349409Y-106171674D01*
X147376868Y-106205133D01*
X147410327Y-106232592D01*
X149209403Y-108031668D01*
X149236867Y-108065133D01*
X149370408Y-108174727D01*
X149522763Y-108256162D01*
X149688078Y-108306310D01*
X149703000Y-108307780D01*
X149703000Y-108496226D01*
X149740546Y-108684980D01*
X149814194Y-108862783D01*
X149821021Y-108873000D01*
X135677000Y-108873000D01*
X135677000Y-103103774D01*
X139823000Y-103103774D01*
X139823000Y-103296226D01*
X139860546Y-103484980D01*
X139934194Y-103662783D01*
X140041115Y-103822801D01*
X140177199Y-103958885D01*
X140337217Y-104065806D01*
X140515020Y-104139454D01*
X140703774Y-104177000D01*
X140896226Y-104177000D01*
X141084980Y-104139454D01*
X141262783Y-104065806D01*
X141395690Y-103977000D01*
X142518287Y-103977000D01*
X142601216Y-104021327D01*
X142747681Y-104065757D01*
X142861834Y-104077000D01*
X142861844Y-104077000D01*
X142899999Y-104080758D01*
X142938155Y-104077000D01*
X143004310Y-104077000D01*
X143137217Y-104165806D01*
X143315020Y-104239454D01*
X143503774Y-104277000D01*
X143696226Y-104277000D01*
X143884980Y-104239454D01*
X144062783Y-104165806D01*
X144222801Y-104058885D01*
X144358885Y-103922801D01*
X144465806Y-103762783D01*
X144539454Y-103584980D01*
X144577000Y-103396226D01*
X144577000Y-103203774D01*
X144539454Y-103015020D01*
X144465806Y-102837217D01*
X144358885Y-102677199D01*
X144222801Y-102541115D01*
X144062783Y-102434194D01*
X143884980Y-102360546D01*
X143696226Y-102323000D01*
X143503774Y-102323000D01*
X143315020Y-102360546D01*
X143137217Y-102434194D01*
X143079434Y-102472803D01*
X142952319Y-102434243D01*
X142838166Y-102423000D01*
X142838163Y-102423000D01*
X142800000Y-102419241D01*
X142761837Y-102423000D01*
X141395690Y-102423000D01*
X141262783Y-102334194D01*
X141084980Y-102260546D01*
X140896226Y-102223000D01*
X140703774Y-102223000D01*
X140515020Y-102260546D01*
X140337217Y-102334194D01*
X140177199Y-102441115D01*
X140041115Y-102577199D01*
X139934194Y-102737217D01*
X139860546Y-102915020D01*
X139823000Y-103103774D01*
X135677000Y-103103774D01*
X135677000Y-99810207D01*
X136073000Y-99810207D01*
X136073000Y-100189793D01*
X136147053Y-100562085D01*
X136292315Y-100912777D01*
X136503201Y-101228391D01*
X136771609Y-101496799D01*
X137087223Y-101707685D01*
X137437915Y-101852947D01*
X137810207Y-101927000D01*
X138189793Y-101927000D01*
X138562085Y-101852947D01*
X138912777Y-101707685D01*
X139228391Y-101496799D01*
X139496799Y-101228391D01*
X139707685Y-100912777D01*
X139852947Y-100562085D01*
X139927000Y-100189793D01*
X139927000Y-99810207D01*
X139852947Y-99437915D01*
X139707685Y-99087223D01*
X139496799Y-98771609D01*
X139228391Y-98503201D01*
X138912777Y-98292315D01*
X138562085Y-98147053D01*
X138189793Y-98073000D01*
X137810207Y-98073000D01*
X137437915Y-98147053D01*
X137087223Y-98292315D01*
X136771609Y-98503201D01*
X136503201Y-98771609D01*
X136292315Y-99087223D01*
X136147053Y-99437915D01*
X136073000Y-99810207D01*
X135677000Y-99810207D01*
X135677000Y-92677000D01*
X168673000Y-92677000D01*
X168673000Y-108873000D01*
G37*
G04 #@! TD.AperFunction*
D20*
X152086497Y-104414630D02*
X151892104Y-104486422D01*
X151803466Y-104533799D01*
X151750078Y-104762473D01*
X152456000Y-105468395D01*
X152470143Y-105454253D01*
X152649748Y-105633858D01*
X152635605Y-105648000D01*
X153341527Y-106353922D01*
X153570201Y-106300534D01*
X153676095Y-106070626D01*
X153709953Y-105929386D01*
X153728074Y-106020487D01*
X153824337Y-106252886D01*
X153964089Y-106462040D01*
X154067049Y-106565000D01*
X153154574Y-106565000D01*
X153161922Y-106533527D01*
X152456000Y-105827605D01*
X151750078Y-106533527D01*
X151757426Y-106565000D01*
X150237817Y-106565000D01*
X150322783Y-106529806D01*
X150482801Y-106422885D01*
X150618885Y-106286801D01*
X150725806Y-106126783D01*
X150799454Y-105948980D01*
X150837000Y-105760226D01*
X150837000Y-105724455D01*
X151167048Y-105724455D01*
X151206730Y-105974449D01*
X151294422Y-106211896D01*
X151341799Y-106300534D01*
X151570473Y-106353922D01*
X152276395Y-105648000D01*
X151570473Y-104942078D01*
X151341799Y-104995466D01*
X151235905Y-105225374D01*
X151176898Y-105471524D01*
X151167048Y-105724455D01*
X150837000Y-105724455D01*
X150837000Y-105567774D01*
X150799454Y-105379020D01*
X150725806Y-105201217D01*
X150618885Y-105041199D01*
X150482801Y-104905115D01*
X150471275Y-104897414D01*
X150506503Y-104868503D01*
X150703572Y-104628373D01*
X150850007Y-104354412D01*
X150940182Y-104057146D01*
X150963000Y-103825469D01*
X150963000Y-103291133D01*
X152086497Y-104414630D01*
G04 #@! TA.AperFunction,Conductor*
D21*
G36*
X152086497Y-104414630D02*
G01*
X151892104Y-104486422D01*
X151803466Y-104533799D01*
X151750078Y-104762473D01*
X152456000Y-105468395D01*
X152470143Y-105454253D01*
X152649748Y-105633858D01*
X152635605Y-105648000D01*
X153341527Y-106353922D01*
X153570201Y-106300534D01*
X153676095Y-106070626D01*
X153709953Y-105929386D01*
X153728074Y-106020487D01*
X153824337Y-106252886D01*
X153964089Y-106462040D01*
X154067049Y-106565000D01*
X153154574Y-106565000D01*
X153161922Y-106533527D01*
X152456000Y-105827605D01*
X151750078Y-106533527D01*
X151757426Y-106565000D01*
X150237817Y-106565000D01*
X150322783Y-106529806D01*
X150482801Y-106422885D01*
X150618885Y-106286801D01*
X150725806Y-106126783D01*
X150799454Y-105948980D01*
X150837000Y-105760226D01*
X150837000Y-105724455D01*
X151167048Y-105724455D01*
X151206730Y-105974449D01*
X151294422Y-106211896D01*
X151341799Y-106300534D01*
X151570473Y-106353922D01*
X152276395Y-105648000D01*
X151570473Y-104942078D01*
X151341799Y-104995466D01*
X151235905Y-105225374D01*
X151176898Y-105471524D01*
X151167048Y-105724455D01*
X150837000Y-105724455D01*
X150837000Y-105567774D01*
X150799454Y-105379020D01*
X150725806Y-105201217D01*
X150618885Y-105041199D01*
X150482801Y-104905115D01*
X150471275Y-104897414D01*
X150506503Y-104868503D01*
X150703572Y-104628373D01*
X150850007Y-104354412D01*
X150940182Y-104057146D01*
X150963000Y-103825469D01*
X150963000Y-103291133D01*
X152086497Y-104414630D01*
G37*
G04 #@! TD.AperFunction*
M02*
