G04 #@! TF.GenerationSoftware,KiCad,Pcbnew,5.1.5-52549c5~86~ubuntu18.04.1*
G04 #@! TF.CreationDate,2020-09-23T21:30:46-07:00*
G04 #@! TF.ProjectId,heat2sound_rx_and_tx_rev02,68656174-3273-46f7-956e-645f72785f61,rev?*
G04 #@! TF.SameCoordinates,Original*
G04 #@! TF.FileFunction,Legend,Bot*
G04 #@! TF.FilePolarity,Positive*
%FSLAX46Y46*%
G04 Gerber Fmt 4.6, Leading zero omitted, Abs format (unit mm)*
G04 Created by KiCad (PCBNEW 5.1.5-52549c5~86~ubuntu18.04.1) date 2020-09-23 21:30:46*
%MOMM*%
%LPD*%
G04 APERTURE LIST*
%ADD10C,0.250000*%
%ADD11C,0.254000*%
%ADD12C,0.304800*%
%ADD13C,0.300000*%
%ADD14C,0.120000*%
%ADD15C,0.190500*%
%ADD16C,0.125000*%
G04 APERTURE END LIST*
D10*
X139111904Y-134250000D02*
X139207142Y-134202380D01*
X139350000Y-134202380D01*
X139492857Y-134250000D01*
X139588095Y-134345238D01*
X139635714Y-134440476D01*
X139683333Y-134630952D01*
X139683333Y-134773809D01*
X139635714Y-134964285D01*
X139588095Y-135059523D01*
X139492857Y-135154761D01*
X139350000Y-135202380D01*
X139254761Y-135202380D01*
X139111904Y-135154761D01*
X139064285Y-135107142D01*
X139064285Y-134773809D01*
X139254761Y-134773809D01*
X138635714Y-135202380D02*
X138635714Y-134202380D01*
X138064285Y-135202380D01*
X138064285Y-134202380D01*
X137588095Y-135202380D02*
X137588095Y-134202380D01*
X137350000Y-134202380D01*
X137207142Y-134250000D01*
X137111904Y-134345238D01*
X137064285Y-134440476D01*
X137016666Y-134630952D01*
X137016666Y-134773809D01*
X137064285Y-134964285D01*
X137111904Y-135059523D01*
X137207142Y-135154761D01*
X137350000Y-135202380D01*
X137588095Y-135202380D01*
D11*
X142147904Y-136177428D02*
X141809238Y-136177428D01*
X141664095Y-136709619D02*
X142147904Y-136709619D01*
X142147904Y-135693619D01*
X141664095Y-135693619D01*
X141325428Y-136709619D02*
X140793238Y-136032285D01*
X141325428Y-136032285D02*
X140793238Y-136709619D01*
X140551333Y-136032285D02*
X140164285Y-136032285D01*
X140406190Y-135693619D02*
X140406190Y-136564476D01*
X140357809Y-136661238D01*
X140261047Y-136709619D01*
X140164285Y-136709619D01*
X139099904Y-136661238D02*
X139003142Y-136709619D01*
X138809619Y-136709619D01*
X138712857Y-136661238D01*
X138664476Y-136564476D01*
X138664476Y-136516095D01*
X138712857Y-136419333D01*
X138809619Y-136370952D01*
X138954761Y-136370952D01*
X139051523Y-136322571D01*
X139099904Y-136225809D01*
X139099904Y-136177428D01*
X139051523Y-136080666D01*
X138954761Y-136032285D01*
X138809619Y-136032285D01*
X138712857Y-136080666D01*
X137842000Y-136661238D02*
X137938761Y-136709619D01*
X138132285Y-136709619D01*
X138229047Y-136661238D01*
X138277428Y-136564476D01*
X138277428Y-136177428D01*
X138229047Y-136080666D01*
X138132285Y-136032285D01*
X137938761Y-136032285D01*
X137842000Y-136080666D01*
X137793619Y-136177428D01*
X137793619Y-136274190D01*
X138277428Y-136370952D01*
X137358190Y-136032285D02*
X137358190Y-136709619D01*
X137358190Y-136129047D02*
X137309809Y-136080666D01*
X137213047Y-136032285D01*
X137067904Y-136032285D01*
X136971142Y-136080666D01*
X136922761Y-136177428D01*
X136922761Y-136709619D01*
X136487333Y-136661238D02*
X136390571Y-136709619D01*
X136197047Y-136709619D01*
X136100285Y-136661238D01*
X136051904Y-136564476D01*
X136051904Y-136516095D01*
X136100285Y-136419333D01*
X136197047Y-136370952D01*
X136342190Y-136370952D01*
X136438952Y-136322571D01*
X136487333Y-136225809D01*
X136487333Y-136177428D01*
X136438952Y-136080666D01*
X136342190Y-136032285D01*
X136197047Y-136032285D01*
X136100285Y-136080666D01*
X135471333Y-136709619D02*
X135568095Y-136661238D01*
X135616476Y-136612857D01*
X135664857Y-136516095D01*
X135664857Y-136225809D01*
X135616476Y-136129047D01*
X135568095Y-136080666D01*
X135471333Y-136032285D01*
X135326190Y-136032285D01*
X135229428Y-136080666D01*
X135181047Y-136129047D01*
X135132666Y-136225809D01*
X135132666Y-136516095D01*
X135181047Y-136612857D01*
X135229428Y-136661238D01*
X135326190Y-136709619D01*
X135471333Y-136709619D01*
X134697238Y-136709619D02*
X134697238Y-136032285D01*
X134697238Y-136225809D02*
X134648857Y-136129047D01*
X134600476Y-136080666D01*
X134503714Y-136032285D01*
X134406952Y-136032285D01*
D12*
X129917142Y-126604247D02*
X129735714Y-126664723D01*
X129433333Y-126664723D01*
X129312380Y-126604247D01*
X129251904Y-126543771D01*
X129191428Y-126422819D01*
X129191428Y-126301866D01*
X129251904Y-126180914D01*
X129312380Y-126120438D01*
X129433333Y-126059961D01*
X129675238Y-125999485D01*
X129796190Y-125939009D01*
X129856666Y-125878533D01*
X129917142Y-125757580D01*
X129917142Y-125636628D01*
X129856666Y-125515676D01*
X129796190Y-125455200D01*
X129675238Y-125394723D01*
X129372857Y-125394723D01*
X129191428Y-125455200D01*
X128647142Y-126664723D02*
X128647142Y-125818057D01*
X128647142Y-125394723D02*
X128707619Y-125455200D01*
X128647142Y-125515676D01*
X128586666Y-125455200D01*
X128647142Y-125394723D01*
X128647142Y-125515676D01*
X127498095Y-125818057D02*
X127498095Y-126846152D01*
X127558571Y-126967104D01*
X127619047Y-127027580D01*
X127740000Y-127088057D01*
X127921428Y-127088057D01*
X128042380Y-127027580D01*
X127498095Y-126604247D02*
X127619047Y-126664723D01*
X127860952Y-126664723D01*
X127981904Y-126604247D01*
X128042380Y-126543771D01*
X128102857Y-126422819D01*
X128102857Y-126059961D01*
X128042380Y-125939009D01*
X127981904Y-125878533D01*
X127860952Y-125818057D01*
X127619047Y-125818057D01*
X127498095Y-125878533D01*
X126893333Y-125818057D02*
X126893333Y-126664723D01*
X126893333Y-125939009D02*
X126832857Y-125878533D01*
X126711904Y-125818057D01*
X126530476Y-125818057D01*
X126409523Y-125878533D01*
X126349047Y-125999485D01*
X126349047Y-126664723D01*
X125200000Y-126664723D02*
X125200000Y-125999485D01*
X125260476Y-125878533D01*
X125381428Y-125818057D01*
X125623333Y-125818057D01*
X125744285Y-125878533D01*
X125200000Y-126604247D02*
X125320952Y-126664723D01*
X125623333Y-126664723D01*
X125744285Y-126604247D01*
X125804761Y-126483295D01*
X125804761Y-126362342D01*
X125744285Y-126241390D01*
X125623333Y-126180914D01*
X125320952Y-126180914D01*
X125200000Y-126120438D01*
X124413809Y-126664723D02*
X124534761Y-126604247D01*
X124595238Y-126483295D01*
X124595238Y-125394723D01*
X122780952Y-126664723D02*
X122901904Y-126604247D01*
X122962380Y-126543771D01*
X123022857Y-126422819D01*
X123022857Y-126059961D01*
X122962380Y-125939009D01*
X122901904Y-125878533D01*
X122780952Y-125818057D01*
X122599523Y-125818057D01*
X122478571Y-125878533D01*
X122418095Y-125939009D01*
X122357619Y-126059961D01*
X122357619Y-126422819D01*
X122418095Y-126543771D01*
X122478571Y-126604247D01*
X122599523Y-126664723D01*
X122780952Y-126664723D01*
X121269047Y-125818057D02*
X121269047Y-126664723D01*
X121813333Y-125818057D02*
X121813333Y-126483295D01*
X121752857Y-126604247D01*
X121631904Y-126664723D01*
X121450476Y-126664723D01*
X121329523Y-126604247D01*
X121269047Y-126543771D01*
X120845714Y-125818057D02*
X120361904Y-125818057D01*
X120664285Y-125394723D02*
X120664285Y-126483295D01*
X120603809Y-126604247D01*
X120482857Y-126664723D01*
X120361904Y-126664723D01*
X129010000Y-128874523D02*
X129010000Y-127604523D01*
X129010000Y-128209285D02*
X128284285Y-128209285D01*
X128284285Y-128874523D02*
X128284285Y-127604523D01*
X127195714Y-128814047D02*
X127316666Y-128874523D01*
X127558571Y-128874523D01*
X127679523Y-128814047D01*
X127740000Y-128693095D01*
X127740000Y-128209285D01*
X127679523Y-128088333D01*
X127558571Y-128027857D01*
X127316666Y-128027857D01*
X127195714Y-128088333D01*
X127135238Y-128209285D01*
X127135238Y-128330238D01*
X127740000Y-128451190D01*
X126046666Y-128874523D02*
X126046666Y-128209285D01*
X126107142Y-128088333D01*
X126228095Y-128027857D01*
X126470000Y-128027857D01*
X126590952Y-128088333D01*
X126046666Y-128814047D02*
X126167619Y-128874523D01*
X126470000Y-128874523D01*
X126590952Y-128814047D01*
X126651428Y-128693095D01*
X126651428Y-128572142D01*
X126590952Y-128451190D01*
X126470000Y-128390714D01*
X126167619Y-128390714D01*
X126046666Y-128330238D01*
X125623333Y-128027857D02*
X125139523Y-128027857D01*
X125441904Y-127604523D02*
X125441904Y-128693095D01*
X125381428Y-128814047D01*
X125260476Y-128874523D01*
X125139523Y-128874523D01*
X123385714Y-129358333D02*
X123446190Y-129297857D01*
X123567142Y-129116428D01*
X123627619Y-128995476D01*
X123688095Y-128814047D01*
X123748571Y-128511666D01*
X123748571Y-128269761D01*
X123688095Y-127967380D01*
X123627619Y-127785952D01*
X123567142Y-127665000D01*
X123446190Y-127483571D01*
X123385714Y-127423095D01*
X122176190Y-128874523D02*
X122599523Y-128269761D01*
X122901904Y-128874523D02*
X122901904Y-127604523D01*
X122418095Y-127604523D01*
X122297142Y-127665000D01*
X122236666Y-127725476D01*
X122176190Y-127846428D01*
X122176190Y-128027857D01*
X122236666Y-128148809D01*
X122297142Y-128209285D01*
X122418095Y-128269761D01*
X122901904Y-128269761D01*
X121752857Y-129358333D02*
X121692380Y-129297857D01*
X121571428Y-129116428D01*
X121510952Y-128995476D01*
X121450476Y-128814047D01*
X121390000Y-128511666D01*
X121390000Y-128269761D01*
X121450476Y-127967380D01*
X121510952Y-127785952D01*
X121571428Y-127665000D01*
X121692380Y-127483571D01*
X121752857Y-127423095D01*
X129705476Y-131023847D02*
X129524047Y-131084323D01*
X129221666Y-131084323D01*
X129100714Y-131023847D01*
X129040238Y-130963371D01*
X128979761Y-130842419D01*
X128979761Y-130721466D01*
X129040238Y-130600514D01*
X129100714Y-130540038D01*
X129221666Y-130479561D01*
X129463571Y-130419085D01*
X129584523Y-130358609D01*
X129645000Y-130298133D01*
X129705476Y-130177180D01*
X129705476Y-130056228D01*
X129645000Y-129935276D01*
X129584523Y-129874800D01*
X129463571Y-129814323D01*
X129161190Y-129814323D01*
X128979761Y-129874800D01*
X128254047Y-131084323D02*
X128375000Y-131023847D01*
X128435476Y-130963371D01*
X128495952Y-130842419D01*
X128495952Y-130479561D01*
X128435476Y-130358609D01*
X128375000Y-130298133D01*
X128254047Y-130237657D01*
X128072619Y-130237657D01*
X127951666Y-130298133D01*
X127891190Y-130358609D01*
X127830714Y-130479561D01*
X127830714Y-130842419D01*
X127891190Y-130963371D01*
X127951666Y-131023847D01*
X128072619Y-131084323D01*
X128254047Y-131084323D01*
X126742142Y-130237657D02*
X126742142Y-131084323D01*
X127286428Y-130237657D02*
X127286428Y-130902895D01*
X127225952Y-131023847D01*
X127105000Y-131084323D01*
X126923571Y-131084323D01*
X126802619Y-131023847D01*
X126742142Y-130963371D01*
X126137380Y-130237657D02*
X126137380Y-131084323D01*
X126137380Y-130358609D02*
X126076904Y-130298133D01*
X125955952Y-130237657D01*
X125774523Y-130237657D01*
X125653571Y-130298133D01*
X125593095Y-130419085D01*
X125593095Y-131084323D01*
X124444047Y-131084323D02*
X124444047Y-129814323D01*
X124444047Y-131023847D02*
X124565000Y-131084323D01*
X124806904Y-131084323D01*
X124927857Y-131023847D01*
X124988333Y-130963371D01*
X125048809Y-130842419D01*
X125048809Y-130479561D01*
X124988333Y-130358609D01*
X124927857Y-130298133D01*
X124806904Y-130237657D01*
X124565000Y-130237657D01*
X124444047Y-130298133D01*
X122508809Y-131568133D02*
X122569285Y-131507657D01*
X122690238Y-131326228D01*
X122750714Y-131205276D01*
X122811190Y-131023847D01*
X122871666Y-130721466D01*
X122871666Y-130479561D01*
X122811190Y-130177180D01*
X122750714Y-129995752D01*
X122690238Y-129874800D01*
X122569285Y-129693371D01*
X122508809Y-129632895D01*
X121420238Y-131084323D02*
X122025000Y-131084323D01*
X122025000Y-129814323D01*
X121117857Y-131568133D02*
X121057380Y-131507657D01*
X120936428Y-131326228D01*
X120875952Y-131205276D01*
X120815476Y-131023847D01*
X120755000Y-130721466D01*
X120755000Y-130479561D01*
X120815476Y-130177180D01*
X120875952Y-129995752D01*
X120936428Y-129874800D01*
X121057380Y-129693371D01*
X121117857Y-129632895D01*
X118867619Y-127665000D02*
X118988571Y-127604523D01*
X119170000Y-127604523D01*
X119351428Y-127665000D01*
X119472380Y-127785952D01*
X119532857Y-127906904D01*
X119593333Y-128148809D01*
X119593333Y-128330238D01*
X119532857Y-128572142D01*
X119472380Y-128693095D01*
X119351428Y-128814047D01*
X119170000Y-128874523D01*
X119049047Y-128874523D01*
X118867619Y-128814047D01*
X118807142Y-128753571D01*
X118807142Y-128330238D01*
X119049047Y-128330238D01*
X118262857Y-128874523D02*
X118262857Y-127604523D01*
X117537142Y-128874523D01*
X117537142Y-127604523D01*
X116932380Y-128874523D02*
X116932380Y-127604523D01*
X116630000Y-127604523D01*
X116448571Y-127665000D01*
X116327619Y-127785952D01*
X116267142Y-127906904D01*
X116206666Y-128148809D01*
X116206666Y-128330238D01*
X116267142Y-128572142D01*
X116327619Y-128693095D01*
X116448571Y-128814047D01*
X116630000Y-128874523D01*
X116932380Y-128874523D01*
D10*
X148576190Y-118452380D02*
X148004761Y-118452380D01*
X148290476Y-119452380D02*
X148290476Y-118452380D01*
X147671428Y-119452380D02*
X147671428Y-118452380D01*
X147242857Y-119452380D02*
X147242857Y-118928571D01*
X147290476Y-118833333D01*
X147385714Y-118785714D01*
X147528571Y-118785714D01*
X147623809Y-118833333D01*
X147671428Y-118880952D01*
X146385714Y-119404761D02*
X146480952Y-119452380D01*
X146671428Y-119452380D01*
X146766666Y-119404761D01*
X146814285Y-119309523D01*
X146814285Y-118928571D01*
X146766666Y-118833333D01*
X146671428Y-118785714D01*
X146480952Y-118785714D01*
X146385714Y-118833333D01*
X146338095Y-118928571D01*
X146338095Y-119023809D01*
X146814285Y-119119047D01*
X145909523Y-119452380D02*
X145909523Y-118785714D01*
X145909523Y-118976190D02*
X145861904Y-118880952D01*
X145814285Y-118833333D01*
X145719047Y-118785714D01*
X145623809Y-118785714D01*
X145290476Y-119452380D02*
X145290476Y-118785714D01*
X145290476Y-118880952D02*
X145242857Y-118833333D01*
X145147619Y-118785714D01*
X145004761Y-118785714D01*
X144909523Y-118833333D01*
X144861904Y-118928571D01*
X144861904Y-119452380D01*
X144861904Y-118928571D02*
X144814285Y-118833333D01*
X144719047Y-118785714D01*
X144576190Y-118785714D01*
X144480952Y-118833333D01*
X144433333Y-118928571D01*
X144433333Y-119452380D01*
X143814285Y-119452380D02*
X143909523Y-119404761D01*
X143957142Y-119357142D01*
X144004761Y-119261904D01*
X144004761Y-118976190D01*
X143957142Y-118880952D01*
X143909523Y-118833333D01*
X143814285Y-118785714D01*
X143671428Y-118785714D01*
X143576190Y-118833333D01*
X143528571Y-118880952D01*
X143480952Y-118976190D01*
X143480952Y-119261904D01*
X143528571Y-119357142D01*
X143576190Y-119404761D01*
X143671428Y-119452380D01*
X143814285Y-119452380D01*
X143052380Y-118785714D02*
X143052380Y-119785714D01*
X143052380Y-118833333D02*
X142957142Y-118785714D01*
X142766666Y-118785714D01*
X142671428Y-118833333D01*
X142623809Y-118880952D01*
X142576190Y-118976190D01*
X142576190Y-119261904D01*
X142623809Y-119357142D01*
X142671428Y-119404761D01*
X142766666Y-119452380D01*
X142957142Y-119452380D01*
X143052380Y-119404761D01*
X142147619Y-119452380D02*
X142147619Y-118785714D01*
X142147619Y-118452380D02*
X142195238Y-118500000D01*
X142147619Y-118547619D01*
X142100000Y-118500000D01*
X142147619Y-118452380D01*
X142147619Y-118547619D01*
X141528571Y-119452380D02*
X141623809Y-119404761D01*
X141671428Y-119309523D01*
X141671428Y-118452380D01*
X140766666Y-119404761D02*
X140861904Y-119452380D01*
X141052380Y-119452380D01*
X141147619Y-119404761D01*
X141195238Y-119309523D01*
X141195238Y-118928571D01*
X141147619Y-118833333D01*
X141052380Y-118785714D01*
X140861904Y-118785714D01*
X140766666Y-118833333D01*
X140719047Y-118928571D01*
X140719047Y-119023809D01*
X141195238Y-119119047D01*
D11*
X139870000Y-128750000D02*
X139870000Y-133750000D01*
X139870000Y-128730000D02*
X137330000Y-128730000D01*
X137314760Y-128750000D02*
X137314760Y-133750000D01*
X137314760Y-133785240D02*
X139875080Y-133785240D01*
X147140000Y-125290000D02*
X142060000Y-125290000D01*
X147140000Y-125290000D02*
X147140000Y-120210000D01*
X147140000Y-120210000D02*
X142060000Y-120210000D01*
X142060000Y-120210000D02*
X142060000Y-125290000D01*
D13*
X147200000Y-123250000D02*
X148300000Y-123250000D01*
X148300000Y-123250000D02*
X148300000Y-122350000D01*
X148300000Y-122350000D02*
X147200000Y-122350000D01*
D14*
X147500000Y-120550000D02*
X148100000Y-120550000D01*
X147800000Y-120950000D02*
X147800000Y-120050000D01*
D15*
X141779714Y-130796000D02*
X142324000Y-130796000D01*
X142432857Y-130759714D01*
X142505428Y-130687142D01*
X142541714Y-130578285D01*
X142541714Y-130505714D01*
X142541714Y-131558000D02*
X142541714Y-131122571D01*
X142541714Y-131340285D02*
X141779714Y-131340285D01*
X141888571Y-131267714D01*
X141961142Y-131195142D01*
X141997428Y-131122571D01*
D16*
X145180952Y-126655428D02*
X145109523Y-126691714D01*
X144990476Y-126691714D01*
X144942857Y-126655428D01*
X144919047Y-126619142D01*
X144895238Y-126546571D01*
X144895238Y-126474000D01*
X144919047Y-126401428D01*
X144942857Y-126365142D01*
X144990476Y-126328857D01*
X145085714Y-126292571D01*
X145133333Y-126256285D01*
X145157142Y-126220000D01*
X145180952Y-126147428D01*
X145180952Y-126074857D01*
X145157142Y-126002285D01*
X145133333Y-125966000D01*
X145085714Y-125929714D01*
X144966666Y-125929714D01*
X144895238Y-125966000D01*
X144419047Y-126691714D02*
X144704761Y-126691714D01*
X144561904Y-126691714D02*
X144561904Y-125929714D01*
X144609523Y-126038571D01*
X144657142Y-126111142D01*
X144704761Y-126147428D01*
M02*
