G04 #@! TF.GenerationSoftware,KiCad,Pcbnew,5.1.5-52549c5~86~ubuntu18.04.1*
G04 #@! TF.CreationDate,2020-09-23T21:30:46-07:00*
G04 #@! TF.ProjectId,heat2sound_rx_and_tx_rev02,68656174-3273-46f7-956e-645f72785f61,rev?*
G04 #@! TF.SameCoordinates,Original*
G04 #@! TF.FileFunction,Legend,Top*
G04 #@! TF.FilePolarity,Positive*
%FSLAX46Y46*%
G04 Gerber Fmt 4.6, Leading zero omitted, Abs format (unit mm)*
G04 Created by KiCad (PCBNEW 5.1.5-52549c5~86~ubuntu18.04.1) date 2020-09-23 21:30:46*
%MOMM*%
%LPD*%
G04 APERTURE LIST*
%ADD10C,0.250000*%
%ADD11C,0.254000*%
%ADD12C,0.304800*%
%ADD13C,0.200000*%
%ADD14C,0.175000*%
%ADD15C,0.300000*%
%ADD16C,0.317500*%
%ADD17C,0.762000*%
%ADD18C,0.150000*%
%ADD19C,0.127000*%
%ADD20C,0.120000*%
%ADD21C,0.200660*%
%ADD22C,0.101600*%
%ADD23C,0.066040*%
%ADD24C,0.381000*%
%ADD25C,0.190500*%
%ADD26C,0.088900*%
G04 APERTURE END LIST*
D10*
X90402380Y-133521428D02*
X89402380Y-133521428D01*
X90116666Y-133188095D01*
X89402380Y-132854761D01*
X90402380Y-132854761D01*
X90402380Y-132378571D02*
X89402380Y-132378571D01*
X90354761Y-131950000D02*
X90402380Y-131807142D01*
X90402380Y-131569047D01*
X90354761Y-131473809D01*
X90307142Y-131426190D01*
X90211904Y-131378571D01*
X90116666Y-131378571D01*
X90021428Y-131426190D01*
X89973809Y-131473809D01*
X89926190Y-131569047D01*
X89878571Y-131759523D01*
X89830952Y-131854761D01*
X89783333Y-131902380D01*
X89688095Y-131950000D01*
X89592857Y-131950000D01*
X89497619Y-131902380D01*
X89450000Y-131854761D01*
X89402380Y-131759523D01*
X89402380Y-131521428D01*
X89450000Y-131378571D01*
X89402380Y-130759523D02*
X89402380Y-130569047D01*
X89450000Y-130473809D01*
X89545238Y-130378571D01*
X89735714Y-130330952D01*
X90069047Y-130330952D01*
X90259523Y-130378571D01*
X90354761Y-130473809D01*
X90402380Y-130569047D01*
X90402380Y-130759523D01*
X90354761Y-130854761D01*
X90259523Y-130950000D01*
X90069047Y-130997619D01*
X89735714Y-130997619D01*
X89545238Y-130950000D01*
X89450000Y-130854761D01*
X89402380Y-130759523D01*
X90354761Y-129188095D02*
X90402380Y-129045238D01*
X90402380Y-128807142D01*
X90354761Y-128711904D01*
X90307142Y-128664285D01*
X90211904Y-128616666D01*
X90116666Y-128616666D01*
X90021428Y-128664285D01*
X89973809Y-128711904D01*
X89926190Y-128807142D01*
X89878571Y-128997619D01*
X89830952Y-129092857D01*
X89783333Y-129140476D01*
X89688095Y-129188095D01*
X89592857Y-129188095D01*
X89497619Y-129140476D01*
X89450000Y-129092857D01*
X89402380Y-128997619D01*
X89402380Y-128759523D01*
X89450000Y-128616666D01*
X90307142Y-127616666D02*
X90354761Y-127664285D01*
X90402380Y-127807142D01*
X90402380Y-127902380D01*
X90354761Y-128045238D01*
X90259523Y-128140476D01*
X90164285Y-128188095D01*
X89973809Y-128235714D01*
X89830952Y-128235714D01*
X89640476Y-128188095D01*
X89545238Y-128140476D01*
X89450000Y-128045238D01*
X89402380Y-127902380D01*
X89402380Y-127807142D01*
X89450000Y-127664285D01*
X89497619Y-127616666D01*
X90402380Y-126711904D02*
X90402380Y-127188095D01*
X89402380Y-127188095D01*
X88905000Y-125854761D02*
X88905000Y-124854761D01*
X90402380Y-125045238D02*
X89926190Y-125378571D01*
X90402380Y-125616666D02*
X89402380Y-125616666D01*
X89402380Y-125235714D01*
X89450000Y-125140476D01*
X89497619Y-125092857D01*
X89592857Y-125045238D01*
X89735714Y-125045238D01*
X89830952Y-125092857D01*
X89878571Y-125140476D01*
X89926190Y-125235714D01*
X89926190Y-125616666D01*
X88905000Y-124854761D02*
X88905000Y-123902380D01*
X90354761Y-124664285D02*
X90402380Y-124521428D01*
X90402380Y-124283333D01*
X90354761Y-124188095D01*
X90307142Y-124140476D01*
X90211904Y-124092857D01*
X90116666Y-124092857D01*
X90021428Y-124140476D01*
X89973809Y-124188095D01*
X89926190Y-124283333D01*
X89878571Y-124473809D01*
X89830952Y-124569047D01*
X89783333Y-124616666D01*
X89688095Y-124664285D01*
X89592857Y-124664285D01*
X89497619Y-124616666D01*
X89450000Y-124569047D01*
X89402380Y-124473809D01*
X89402380Y-124235714D01*
X89450000Y-124092857D01*
X88905000Y-123902380D02*
X88905000Y-123140476D01*
X89402380Y-123807142D02*
X89402380Y-123235714D01*
X90402380Y-123521428D02*
X89402380Y-123521428D01*
X96675000Y-109682142D02*
X96627380Y-109777380D01*
X96627380Y-109920238D01*
X96675000Y-110063095D01*
X96770238Y-110158333D01*
X96865476Y-110205952D01*
X97055952Y-110253571D01*
X97198809Y-110253571D01*
X97389285Y-110205952D01*
X97484523Y-110158333D01*
X97579761Y-110063095D01*
X97627380Y-109920238D01*
X97627380Y-109825000D01*
X97579761Y-109682142D01*
X97532142Y-109634523D01*
X97198809Y-109634523D01*
X97198809Y-109825000D01*
X97627380Y-109205952D02*
X96627380Y-109205952D01*
X97627380Y-108634523D01*
X96627380Y-108634523D01*
X97627380Y-108158333D02*
X96627380Y-108158333D01*
X96627380Y-107920238D01*
X96675000Y-107777380D01*
X96770238Y-107682142D01*
X96865476Y-107634523D01*
X97055952Y-107586904D01*
X97198809Y-107586904D01*
X97389285Y-107634523D01*
X97484523Y-107682142D01*
X97579761Y-107777380D01*
X97627380Y-107920238D01*
X97627380Y-108158333D01*
X97627380Y-105825000D02*
X97151190Y-106158333D01*
X97627380Y-106396428D02*
X96627380Y-106396428D01*
X96627380Y-106015476D01*
X96675000Y-105920238D01*
X96722619Y-105872619D01*
X96817857Y-105825000D01*
X96960714Y-105825000D01*
X97055952Y-105872619D01*
X97103571Y-105920238D01*
X97151190Y-106015476D01*
X97151190Y-106396428D01*
X96627380Y-105491666D02*
X97627380Y-104825000D01*
X96627380Y-104825000D02*
X97627380Y-105491666D01*
X96627380Y-103825000D02*
X96627380Y-103253571D01*
X97627380Y-103539285D02*
X96627380Y-103539285D01*
X96627380Y-103015476D02*
X97627380Y-102348809D01*
X96627380Y-102348809D02*
X97627380Y-103015476D01*
X77852380Y-132628571D02*
X78852380Y-132295238D01*
X77852380Y-131961904D01*
X78852380Y-131628571D02*
X77852380Y-131628571D01*
X77852380Y-131390476D01*
X77900000Y-131247619D01*
X77995238Y-131152380D01*
X78090476Y-131104761D01*
X78280952Y-131057142D01*
X78423809Y-131057142D01*
X78614285Y-131104761D01*
X78709523Y-131152380D01*
X78804761Y-131247619D01*
X78852380Y-131390476D01*
X78852380Y-131628571D01*
X78852380Y-130628571D02*
X77852380Y-130628571D01*
X77852380Y-130390476D01*
X77900000Y-130247619D01*
X77995238Y-130152380D01*
X78090476Y-130104761D01*
X78280952Y-130057142D01*
X78423809Y-130057142D01*
X78614285Y-130104761D01*
X78709523Y-130152380D01*
X78804761Y-130247619D01*
X78852380Y-130390476D01*
X78852380Y-130628571D01*
X78852380Y-128866666D02*
X77852380Y-128866666D01*
X78566666Y-128533333D01*
X77852380Y-128200000D01*
X78852380Y-128200000D01*
X77852380Y-127533333D02*
X77852380Y-127342857D01*
X77900000Y-127247619D01*
X77995238Y-127152380D01*
X78185714Y-127104761D01*
X78519047Y-127104761D01*
X78709523Y-127152380D01*
X78804761Y-127247619D01*
X78852380Y-127342857D01*
X78852380Y-127533333D01*
X78804761Y-127628571D01*
X78709523Y-127723809D01*
X78519047Y-127771428D01*
X78185714Y-127771428D01*
X77995238Y-127723809D01*
X77900000Y-127628571D01*
X77852380Y-127533333D01*
X78804761Y-126723809D02*
X78852380Y-126580952D01*
X78852380Y-126342857D01*
X78804761Y-126247619D01*
X78757142Y-126200000D01*
X78661904Y-126152380D01*
X78566666Y-126152380D01*
X78471428Y-126200000D01*
X78423809Y-126247619D01*
X78376190Y-126342857D01*
X78328571Y-126533333D01*
X78280952Y-126628571D01*
X78233333Y-126676190D01*
X78138095Y-126723809D01*
X78042857Y-126723809D01*
X77947619Y-126676190D01*
X77900000Y-126628571D01*
X77852380Y-126533333D01*
X77852380Y-126295238D01*
X77900000Y-126152380D01*
X78852380Y-125723809D02*
X77852380Y-125723809D01*
X77900000Y-123961904D02*
X77852380Y-124057142D01*
X77852380Y-124200000D01*
X77900000Y-124342857D01*
X77995238Y-124438095D01*
X78090476Y-124485714D01*
X78280952Y-124533333D01*
X78423809Y-124533333D01*
X78614285Y-124485714D01*
X78709523Y-124438095D01*
X78804761Y-124342857D01*
X78852380Y-124200000D01*
X78852380Y-124104761D01*
X78804761Y-123961904D01*
X78757142Y-123914285D01*
X78423809Y-123914285D01*
X78423809Y-124104761D01*
X78852380Y-123485714D02*
X77852380Y-123485714D01*
X78852380Y-122914285D01*
X77852380Y-122914285D01*
X78852380Y-122438095D02*
X77852380Y-122438095D01*
X77852380Y-122200000D01*
X77900000Y-122057142D01*
X77995238Y-121961904D01*
X78090476Y-121914285D01*
X78280952Y-121866666D01*
X78423809Y-121866666D01*
X78614285Y-121914285D01*
X78709523Y-121961904D01*
X78804761Y-122057142D01*
X78852380Y-122200000D01*
X78852380Y-122438095D01*
D11*
X77250000Y-144750000D02*
X77250000Y-98250000D01*
X114750000Y-144750000D02*
X77250000Y-144750000D01*
X114750000Y-98250000D02*
X114750000Y-144750000D01*
X77250000Y-98250000D02*
X114750000Y-98250000D01*
D10*
X78321428Y-139952380D02*
X78416666Y-139952380D01*
X78511904Y-140000000D01*
X78559523Y-140047619D01*
X78607142Y-140142857D01*
X78654761Y-140333333D01*
X78654761Y-140571428D01*
X78607142Y-140761904D01*
X78559523Y-140857142D01*
X78511904Y-140904761D01*
X78416666Y-140952380D01*
X78321428Y-140952380D01*
X78226190Y-140904761D01*
X78178571Y-140857142D01*
X78130952Y-140761904D01*
X78083333Y-140571428D01*
X78083333Y-140333333D01*
X78130952Y-140142857D01*
X78178571Y-140047619D01*
X78226190Y-140000000D01*
X78321428Y-139952380D01*
X79130952Y-140952380D02*
X79321428Y-140952380D01*
X79416666Y-140904761D01*
X79464285Y-140857142D01*
X79559523Y-140714285D01*
X79607142Y-140523809D01*
X79607142Y-140142857D01*
X79559523Y-140047619D01*
X79511904Y-140000000D01*
X79416666Y-139952380D01*
X79226190Y-139952380D01*
X79130952Y-140000000D01*
X79083333Y-140047619D01*
X79035714Y-140142857D01*
X79035714Y-140380952D01*
X79083333Y-140476190D01*
X79130952Y-140523809D01*
X79226190Y-140571428D01*
X79416666Y-140571428D01*
X79511904Y-140523809D01*
X79559523Y-140476190D01*
X79607142Y-140380952D01*
X80750000Y-139904761D02*
X79892857Y-141190476D01*
X81035714Y-140047619D02*
X81083333Y-140000000D01*
X81178571Y-139952380D01*
X81416666Y-139952380D01*
X81511904Y-140000000D01*
X81559523Y-140047619D01*
X81607142Y-140142857D01*
X81607142Y-140238095D01*
X81559523Y-140380952D01*
X80988095Y-140952380D01*
X81607142Y-140952380D01*
X81988095Y-140047619D02*
X82035714Y-140000000D01*
X82130952Y-139952380D01*
X82369047Y-139952380D01*
X82464285Y-140000000D01*
X82511904Y-140047619D01*
X82559523Y-140142857D01*
X82559523Y-140238095D01*
X82511904Y-140380952D01*
X81940476Y-140952380D01*
X82559523Y-140952380D01*
X83702380Y-139904761D02*
X82845238Y-141190476D01*
X83988095Y-140047619D02*
X84035714Y-140000000D01*
X84130952Y-139952380D01*
X84369047Y-139952380D01*
X84464285Y-140000000D01*
X84511904Y-140047619D01*
X84559523Y-140142857D01*
X84559523Y-140238095D01*
X84511904Y-140380952D01*
X83940476Y-140952380D01*
X84559523Y-140952380D01*
X85178571Y-139952380D02*
X85273809Y-139952380D01*
X85369047Y-140000000D01*
X85416666Y-140047619D01*
X85464285Y-140142857D01*
X85511904Y-140333333D01*
X85511904Y-140571428D01*
X85464285Y-140761904D01*
X85416666Y-140857142D01*
X85369047Y-140904761D01*
X85273809Y-140952380D01*
X85178571Y-140952380D01*
X85083333Y-140904761D01*
X85035714Y-140857142D01*
X84988095Y-140761904D01*
X84940476Y-140571428D01*
X84940476Y-140333333D01*
X84988095Y-140142857D01*
X85035714Y-140047619D01*
X85083333Y-140000000D01*
X85178571Y-139952380D01*
X85892857Y-140047619D02*
X85940476Y-140000000D01*
X86035714Y-139952380D01*
X86273809Y-139952380D01*
X86369047Y-140000000D01*
X86416666Y-140047619D01*
X86464285Y-140142857D01*
X86464285Y-140238095D01*
X86416666Y-140380952D01*
X85845238Y-140952380D01*
X86464285Y-140952380D01*
X87083333Y-139952380D02*
X87178571Y-139952380D01*
X87273809Y-140000000D01*
X87321428Y-140047619D01*
X87369047Y-140142857D01*
X87416666Y-140333333D01*
X87416666Y-140571428D01*
X87369047Y-140761904D01*
X87321428Y-140857142D01*
X87273809Y-140904761D01*
X87178571Y-140952380D01*
X87083333Y-140952380D01*
X86988095Y-140904761D01*
X86940476Y-140857142D01*
X86892857Y-140761904D01*
X86845238Y-140571428D01*
X86845238Y-140333333D01*
X86892857Y-140142857D01*
X86940476Y-140047619D01*
X86988095Y-140000000D01*
X87083333Y-139952380D01*
X77904761Y-143452380D02*
X77904761Y-142452380D01*
X78333333Y-143452380D02*
X78333333Y-142928571D01*
X78285714Y-142833333D01*
X78190476Y-142785714D01*
X78047619Y-142785714D01*
X77952380Y-142833333D01*
X77904761Y-142880952D01*
X79190476Y-143404761D02*
X79095238Y-143452380D01*
X78904761Y-143452380D01*
X78809523Y-143404761D01*
X78761904Y-143309523D01*
X78761904Y-142928571D01*
X78809523Y-142833333D01*
X78904761Y-142785714D01*
X79095238Y-142785714D01*
X79190476Y-142833333D01*
X79238095Y-142928571D01*
X79238095Y-143023809D01*
X78761904Y-143119047D01*
X80095238Y-143452380D02*
X80095238Y-142928571D01*
X80047619Y-142833333D01*
X79952380Y-142785714D01*
X79761904Y-142785714D01*
X79666666Y-142833333D01*
X80095238Y-143404761D02*
X80000000Y-143452380D01*
X79761904Y-143452380D01*
X79666666Y-143404761D01*
X79619047Y-143309523D01*
X79619047Y-143214285D01*
X79666666Y-143119047D01*
X79761904Y-143071428D01*
X80000000Y-143071428D01*
X80095238Y-143023809D01*
X80428571Y-142785714D02*
X80809523Y-142785714D01*
X80571428Y-142452380D02*
X80571428Y-143309523D01*
X80619047Y-143404761D01*
X80714285Y-143452380D01*
X80809523Y-143452380D01*
X81095238Y-142547619D02*
X81142857Y-142500000D01*
X81238095Y-142452380D01*
X81476190Y-142452380D01*
X81571428Y-142500000D01*
X81619047Y-142547619D01*
X81666666Y-142642857D01*
X81666666Y-142738095D01*
X81619047Y-142880952D01*
X81047619Y-143452380D01*
X81666666Y-143452380D01*
X82047619Y-143404761D02*
X82142857Y-143452380D01*
X82333333Y-143452380D01*
X82428571Y-143404761D01*
X82476190Y-143309523D01*
X82476190Y-143261904D01*
X82428571Y-143166666D01*
X82333333Y-143119047D01*
X82190476Y-143119047D01*
X82095238Y-143071428D01*
X82047619Y-142976190D01*
X82047619Y-142928571D01*
X82095238Y-142833333D01*
X82190476Y-142785714D01*
X82333333Y-142785714D01*
X82428571Y-142833333D01*
X83047619Y-143452380D02*
X82952380Y-143404761D01*
X82904761Y-143357142D01*
X82857142Y-143261904D01*
X82857142Y-142976190D01*
X82904761Y-142880952D01*
X82952380Y-142833333D01*
X83047619Y-142785714D01*
X83190476Y-142785714D01*
X83285714Y-142833333D01*
X83333333Y-142880952D01*
X83380952Y-142976190D01*
X83380952Y-143261904D01*
X83333333Y-143357142D01*
X83285714Y-143404761D01*
X83190476Y-143452380D01*
X83047619Y-143452380D01*
X84238095Y-142785714D02*
X84238095Y-143452380D01*
X83809523Y-142785714D02*
X83809523Y-143309523D01*
X83857142Y-143404761D01*
X83952380Y-143452380D01*
X84095238Y-143452380D01*
X84190476Y-143404761D01*
X84238095Y-143357142D01*
X84714285Y-142785714D02*
X84714285Y-143452380D01*
X84714285Y-142880952D02*
X84761904Y-142833333D01*
X84857142Y-142785714D01*
X85000000Y-142785714D01*
X85095238Y-142833333D01*
X85142857Y-142928571D01*
X85142857Y-143452380D01*
X86047619Y-143452380D02*
X86047619Y-142452380D01*
X86047619Y-143404761D02*
X85952380Y-143452380D01*
X85761904Y-143452380D01*
X85666666Y-143404761D01*
X85619047Y-143357142D01*
X85571428Y-143261904D01*
X85571428Y-142976190D01*
X85619047Y-142880952D01*
X85666666Y-142833333D01*
X85761904Y-142785714D01*
X85952380Y-142785714D01*
X86047619Y-142833333D01*
X86285714Y-143547619D02*
X87047619Y-143547619D01*
X87142857Y-142785714D02*
X87523809Y-142785714D01*
X87285714Y-142452380D02*
X87285714Y-143309523D01*
X87333333Y-143404761D01*
X87428571Y-143452380D01*
X87523809Y-143452380D01*
X87761904Y-143452380D02*
X88285714Y-142785714D01*
X87761904Y-142785714D02*
X88285714Y-143452380D01*
X88428571Y-143547619D02*
X89190476Y-143547619D01*
X89428571Y-143452380D02*
X89428571Y-142785714D01*
X89428571Y-142976190D02*
X89476190Y-142880952D01*
X89523809Y-142833333D01*
X89619047Y-142785714D01*
X89714285Y-142785714D01*
X90428571Y-143404761D02*
X90333333Y-143452380D01*
X90142857Y-143452380D01*
X90047619Y-143404761D01*
X90000000Y-143309523D01*
X90000000Y-142928571D01*
X90047619Y-142833333D01*
X90142857Y-142785714D01*
X90333333Y-142785714D01*
X90428571Y-142833333D01*
X90476190Y-142928571D01*
X90476190Y-143023809D01*
X90000000Y-143119047D01*
X90809523Y-142785714D02*
X91047619Y-143452380D01*
X91285714Y-142785714D01*
X91857142Y-142452380D02*
X91952380Y-142452380D01*
X92047619Y-142500000D01*
X92095238Y-142547619D01*
X92142857Y-142642857D01*
X92190476Y-142833333D01*
X92190476Y-143071428D01*
X92142857Y-143261904D01*
X92095238Y-143357142D01*
X92047619Y-143404761D01*
X91952380Y-143452380D01*
X91857142Y-143452380D01*
X91761904Y-143404761D01*
X91714285Y-143357142D01*
X91666666Y-143261904D01*
X91619047Y-143071428D01*
X91619047Y-142833333D01*
X91666666Y-142642857D01*
X91714285Y-142547619D01*
X91761904Y-142500000D01*
X91857142Y-142452380D01*
X92571428Y-142547619D02*
X92619047Y-142500000D01*
X92714285Y-142452380D01*
X92952380Y-142452380D01*
X93047619Y-142500000D01*
X93095238Y-142547619D01*
X93142857Y-142642857D01*
X93142857Y-142738095D01*
X93095238Y-142880952D01*
X92523809Y-143452380D01*
X93142857Y-143452380D01*
D12*
X81454047Y-99304523D02*
X80849285Y-99304523D01*
X80788809Y-99909285D01*
X80849285Y-99848809D01*
X80970238Y-99788333D01*
X81272619Y-99788333D01*
X81393571Y-99848809D01*
X81454047Y-99909285D01*
X81514523Y-100030238D01*
X81514523Y-100332619D01*
X81454047Y-100453571D01*
X81393571Y-100514047D01*
X81272619Y-100574523D01*
X80970238Y-100574523D01*
X80849285Y-100514047D01*
X80788809Y-100453571D01*
X81937857Y-99727857D02*
X82240238Y-100574523D01*
X82542619Y-99727857D01*
X83994047Y-100574523D02*
X83994047Y-99304523D01*
X84296428Y-99304523D01*
X84477857Y-99365000D01*
X84598809Y-99485952D01*
X84659285Y-99606904D01*
X84719761Y-99848809D01*
X84719761Y-100030238D01*
X84659285Y-100272142D01*
X84598809Y-100393095D01*
X84477857Y-100514047D01*
X84296428Y-100574523D01*
X83994047Y-100574523D01*
X85989761Y-100453571D02*
X85929285Y-100514047D01*
X85747857Y-100574523D01*
X85626904Y-100574523D01*
X85445476Y-100514047D01*
X85324523Y-100393095D01*
X85264047Y-100272142D01*
X85203571Y-100030238D01*
X85203571Y-99848809D01*
X85264047Y-99606904D01*
X85324523Y-99485952D01*
X85445476Y-99365000D01*
X85626904Y-99304523D01*
X85747857Y-99304523D01*
X85929285Y-99365000D01*
X85989761Y-99425476D01*
X87501666Y-100574523D02*
X87501666Y-99304523D01*
X88106428Y-99727857D02*
X88106428Y-100574523D01*
X88106428Y-99848809D02*
X88166904Y-99788333D01*
X88287857Y-99727857D01*
X88469285Y-99727857D01*
X88590238Y-99788333D01*
X88650714Y-99909285D01*
X88650714Y-100574523D01*
D13*
X137453571Y-112861904D02*
X137910714Y-112861904D01*
X137682142Y-113661904D02*
X137682142Y-112861904D01*
X138177380Y-113661904D02*
X138177380Y-112861904D01*
X138520238Y-113661904D02*
X138520238Y-113242857D01*
X138482142Y-113166666D01*
X138405952Y-113128571D01*
X138291666Y-113128571D01*
X138215476Y-113166666D01*
X138177380Y-113204761D01*
X138901190Y-113661904D02*
X138901190Y-113128571D01*
X138901190Y-113280952D02*
X138939285Y-113204761D01*
X138977380Y-113166666D01*
X139053571Y-113128571D01*
X139129761Y-113128571D01*
X139396428Y-113661904D02*
X139396428Y-113128571D01*
X139396428Y-113204761D02*
X139434523Y-113166666D01*
X139510714Y-113128571D01*
X139625000Y-113128571D01*
X139701190Y-113166666D01*
X139739285Y-113242857D01*
X139739285Y-113661904D01*
X139739285Y-113242857D02*
X139777380Y-113166666D01*
X139853571Y-113128571D01*
X139967857Y-113128571D01*
X140044047Y-113166666D01*
X140082142Y-113242857D01*
X140082142Y-113661904D01*
X142278571Y-118611904D02*
X142735714Y-118611904D01*
X142507142Y-119411904D02*
X142507142Y-118611904D01*
X143002380Y-119411904D02*
X143002380Y-118611904D01*
X143345238Y-119411904D02*
X143345238Y-118992857D01*
X143307142Y-118916666D01*
X143230952Y-118878571D01*
X143116666Y-118878571D01*
X143040476Y-118916666D01*
X143002380Y-118954761D01*
X143726190Y-119411904D02*
X143726190Y-118878571D01*
X143726190Y-119030952D02*
X143764285Y-118954761D01*
X143802380Y-118916666D01*
X143878571Y-118878571D01*
X143954761Y-118878571D01*
X144221428Y-119411904D02*
X144221428Y-118878571D01*
X144221428Y-118954761D02*
X144259523Y-118916666D01*
X144335714Y-118878571D01*
X144450000Y-118878571D01*
X144526190Y-118916666D01*
X144564285Y-118992857D01*
X144564285Y-119411904D01*
X144564285Y-118992857D02*
X144602380Y-118916666D01*
X144678571Y-118878571D01*
X144792857Y-118878571D01*
X144869047Y-118916666D01*
X144907142Y-118992857D01*
X144907142Y-119411904D01*
X133054761Y-111692857D02*
X133321428Y-111692857D01*
X133435714Y-112111904D02*
X133054761Y-112111904D01*
X133054761Y-111311904D01*
X133435714Y-111311904D01*
X133702380Y-112111904D02*
X134121428Y-111578571D01*
X133702380Y-111578571D02*
X134121428Y-112111904D01*
X132616666Y-113473809D02*
X132730952Y-113511904D01*
X132921428Y-113511904D01*
X132997619Y-113473809D01*
X133035714Y-113435714D01*
X133073809Y-113359523D01*
X133073809Y-113283333D01*
X133035714Y-113207142D01*
X132997619Y-113169047D01*
X132921428Y-113130952D01*
X132769047Y-113092857D01*
X132692857Y-113054761D01*
X132654761Y-113016666D01*
X132616666Y-112940476D01*
X132616666Y-112864285D01*
X132654761Y-112788095D01*
X132692857Y-112750000D01*
X132769047Y-112711904D01*
X132959523Y-112711904D01*
X133073809Y-112750000D01*
X133721428Y-113473809D02*
X133645238Y-113511904D01*
X133492857Y-113511904D01*
X133416666Y-113473809D01*
X133378571Y-113397619D01*
X133378571Y-113092857D01*
X133416666Y-113016666D01*
X133492857Y-112978571D01*
X133645238Y-112978571D01*
X133721428Y-113016666D01*
X133759523Y-113092857D01*
X133759523Y-113169047D01*
X133378571Y-113245238D01*
X134102380Y-112978571D02*
X134102380Y-113511904D01*
X134102380Y-113054761D02*
X134140476Y-113016666D01*
X134216666Y-112978571D01*
X134330952Y-112978571D01*
X134407142Y-113016666D01*
X134445238Y-113092857D01*
X134445238Y-113511904D01*
X117454761Y-119561904D02*
X116997619Y-119561904D01*
X117226190Y-119561904D02*
X117226190Y-118761904D01*
X117150000Y-118876190D01*
X117073809Y-118952380D01*
X116997619Y-118990476D01*
X117721428Y-119561904D02*
X118140476Y-119028571D01*
X117721428Y-119028571D02*
X118140476Y-119561904D01*
D10*
X146819047Y-126871428D02*
X147580952Y-126871428D01*
X147200000Y-127252380D02*
X147200000Y-126490476D01*
D14*
X139433333Y-124950000D02*
X139966666Y-124950000D01*
X135933333Y-124850000D02*
X136466666Y-124850000D01*
X136200000Y-125116666D02*
X136200000Y-124583333D01*
D11*
X115100000Y-137250000D02*
X115100000Y-98750000D01*
X148600000Y-137500000D02*
X115100000Y-137500000D01*
X148600000Y-98750000D02*
X148600000Y-137250000D01*
X115350000Y-98750000D02*
X148600000Y-98750000D01*
D15*
X135785714Y-135242857D02*
X135900000Y-135242857D01*
X136014285Y-135300000D01*
X136071428Y-135357142D01*
X136128571Y-135471428D01*
X136185714Y-135700000D01*
X136185714Y-135985714D01*
X136128571Y-136214285D01*
X136071428Y-136328571D01*
X136014285Y-136385714D01*
X135900000Y-136442857D01*
X135785714Y-136442857D01*
X135671428Y-136385714D01*
X135614285Y-136328571D01*
X135557142Y-136214285D01*
X135500000Y-135985714D01*
X135500000Y-135700000D01*
X135557142Y-135471428D01*
X135614285Y-135357142D01*
X135671428Y-135300000D01*
X135785714Y-135242857D01*
X136757142Y-136442857D02*
X136985714Y-136442857D01*
X137100000Y-136385714D01*
X137157142Y-136328571D01*
X137271428Y-136157142D01*
X137328571Y-135928571D01*
X137328571Y-135471428D01*
X137271428Y-135357142D01*
X137214285Y-135300000D01*
X137100000Y-135242857D01*
X136871428Y-135242857D01*
X136757142Y-135300000D01*
X136700000Y-135357142D01*
X136642857Y-135471428D01*
X136642857Y-135757142D01*
X136700000Y-135871428D01*
X136757142Y-135928571D01*
X136871428Y-135985714D01*
X137100000Y-135985714D01*
X137214285Y-135928571D01*
X137271428Y-135871428D01*
X137328571Y-135757142D01*
X138700000Y-135185714D02*
X137671428Y-136728571D01*
X139042857Y-135357142D02*
X139100000Y-135300000D01*
X139214285Y-135242857D01*
X139500000Y-135242857D01*
X139614285Y-135300000D01*
X139671428Y-135357142D01*
X139728571Y-135471428D01*
X139728571Y-135585714D01*
X139671428Y-135757142D01*
X138985714Y-136442857D01*
X139728571Y-136442857D01*
X140128571Y-135242857D02*
X140871428Y-135242857D01*
X140471428Y-135700000D01*
X140642857Y-135700000D01*
X140757142Y-135757142D01*
X140814285Y-135814285D01*
X140871428Y-135928571D01*
X140871428Y-136214285D01*
X140814285Y-136328571D01*
X140757142Y-136385714D01*
X140642857Y-136442857D01*
X140300000Y-136442857D01*
X140185714Y-136385714D01*
X140128571Y-136328571D01*
X142242857Y-135185714D02*
X141214285Y-136728571D01*
X142585714Y-135357142D02*
X142642857Y-135300000D01*
X142757142Y-135242857D01*
X143042857Y-135242857D01*
X143157142Y-135300000D01*
X143214285Y-135357142D01*
X143271428Y-135471428D01*
X143271428Y-135585714D01*
X143214285Y-135757142D01*
X142528571Y-136442857D01*
X143271428Y-136442857D01*
X144014285Y-135242857D02*
X144128571Y-135242857D01*
X144242857Y-135300000D01*
X144300000Y-135357142D01*
X144357142Y-135471428D01*
X144414285Y-135700000D01*
X144414285Y-135985714D01*
X144357142Y-136214285D01*
X144300000Y-136328571D01*
X144242857Y-136385714D01*
X144128571Y-136442857D01*
X144014285Y-136442857D01*
X143900000Y-136385714D01*
X143842857Y-136328571D01*
X143785714Y-136214285D01*
X143728571Y-135985714D01*
X143728571Y-135700000D01*
X143785714Y-135471428D01*
X143842857Y-135357142D01*
X143900000Y-135300000D01*
X144014285Y-135242857D01*
X144871428Y-135357142D02*
X144928571Y-135300000D01*
X145042857Y-135242857D01*
X145328571Y-135242857D01*
X145442857Y-135300000D01*
X145500000Y-135357142D01*
X145557142Y-135471428D01*
X145557142Y-135585714D01*
X145500000Y-135757142D01*
X144814285Y-136442857D01*
X145557142Y-136442857D01*
X146300000Y-135242857D02*
X146414285Y-135242857D01*
X146528571Y-135300000D01*
X146585714Y-135357142D01*
X146642857Y-135471428D01*
X146700000Y-135700000D01*
X146700000Y-135985714D01*
X146642857Y-136214285D01*
X146585714Y-136328571D01*
X146528571Y-136385714D01*
X146414285Y-136442857D01*
X146300000Y-136442857D01*
X146185714Y-136385714D01*
X146128571Y-136328571D01*
X146071428Y-136214285D01*
X146014285Y-135985714D01*
X146014285Y-135700000D01*
X146071428Y-135471428D01*
X146128571Y-135357142D01*
X146185714Y-135300000D01*
X146300000Y-135242857D01*
D10*
X141223809Y-124977380D02*
X141795238Y-124977380D01*
X141509523Y-125977380D02*
X141509523Y-124977380D01*
X142128571Y-125977380D02*
X142128571Y-124977380D01*
X142557142Y-125977380D02*
X142557142Y-125453571D01*
X142509523Y-125358333D01*
X142414285Y-125310714D01*
X142271428Y-125310714D01*
X142176190Y-125358333D01*
X142128571Y-125405952D01*
X143414285Y-125929761D02*
X143319047Y-125977380D01*
X143128571Y-125977380D01*
X143033333Y-125929761D01*
X142985714Y-125834523D01*
X142985714Y-125453571D01*
X143033333Y-125358333D01*
X143128571Y-125310714D01*
X143319047Y-125310714D01*
X143414285Y-125358333D01*
X143461904Y-125453571D01*
X143461904Y-125548809D01*
X142985714Y-125644047D01*
X143890476Y-125977380D02*
X143890476Y-125310714D01*
X143890476Y-125501190D02*
X143938095Y-125405952D01*
X143985714Y-125358333D01*
X144080952Y-125310714D01*
X144176190Y-125310714D01*
X144509523Y-125977380D02*
X144509523Y-125310714D01*
X144509523Y-125405952D02*
X144557142Y-125358333D01*
X144652380Y-125310714D01*
X144795238Y-125310714D01*
X144890476Y-125358333D01*
X144938095Y-125453571D01*
X144938095Y-125977380D01*
X144938095Y-125453571D02*
X144985714Y-125358333D01*
X145080952Y-125310714D01*
X145223809Y-125310714D01*
X145319047Y-125358333D01*
X145366666Y-125453571D01*
X145366666Y-125977380D01*
X145985714Y-125977380D02*
X145890476Y-125929761D01*
X145842857Y-125882142D01*
X145795238Y-125786904D01*
X145795238Y-125501190D01*
X145842857Y-125405952D01*
X145890476Y-125358333D01*
X145985714Y-125310714D01*
X146128571Y-125310714D01*
X146223809Y-125358333D01*
X146271428Y-125405952D01*
X146319047Y-125501190D01*
X146319047Y-125786904D01*
X146271428Y-125882142D01*
X146223809Y-125929761D01*
X146128571Y-125977380D01*
X145985714Y-125977380D01*
X143366666Y-126727380D02*
X143557142Y-126727380D01*
X143652380Y-126775000D01*
X143747619Y-126870238D01*
X143795238Y-127060714D01*
X143795238Y-127394047D01*
X143747619Y-127584523D01*
X143652380Y-127679761D01*
X143557142Y-127727380D01*
X143366666Y-127727380D01*
X143271428Y-127679761D01*
X143176190Y-127584523D01*
X143128571Y-127394047D01*
X143128571Y-127060714D01*
X143176190Y-126870238D01*
X143271428Y-126775000D01*
X143366666Y-126727380D01*
X144652380Y-127060714D02*
X144652380Y-127727380D01*
X144223809Y-127060714D02*
X144223809Y-127584523D01*
X144271428Y-127679761D01*
X144366666Y-127727380D01*
X144509523Y-127727380D01*
X144604761Y-127679761D01*
X144652380Y-127632142D01*
X144985714Y-127060714D02*
X145366666Y-127060714D01*
X145128571Y-126727380D02*
X145128571Y-127584523D01*
X145176190Y-127679761D01*
X145271428Y-127727380D01*
X145366666Y-127727380D01*
X141092380Y-111436547D02*
X141273809Y-111497023D01*
X141576190Y-111497023D01*
X141697142Y-111436547D01*
X141757619Y-111376071D01*
X141818095Y-111255119D01*
X141818095Y-111134166D01*
X141757619Y-111013214D01*
X141697142Y-110952738D01*
X141576190Y-110892261D01*
X141334285Y-110831785D01*
X141213333Y-110771309D01*
X141152857Y-110710833D01*
X141092380Y-110589880D01*
X141092380Y-110468928D01*
X141152857Y-110347976D01*
X141213333Y-110287500D01*
X141334285Y-110227023D01*
X141636666Y-110227023D01*
X141818095Y-110287500D01*
X142362380Y-110650357D02*
X142362380Y-111920357D01*
X142362380Y-110710833D02*
X142483333Y-110650357D01*
X142725238Y-110650357D01*
X142846190Y-110710833D01*
X142906666Y-110771309D01*
X142967142Y-110892261D01*
X142967142Y-111255119D01*
X142906666Y-111376071D01*
X142846190Y-111436547D01*
X142725238Y-111497023D01*
X142483333Y-111497023D01*
X142362380Y-111436547D01*
X143995238Y-111436547D02*
X143874285Y-111497023D01*
X143632380Y-111497023D01*
X143511428Y-111436547D01*
X143450952Y-111315595D01*
X143450952Y-110831785D01*
X143511428Y-110710833D01*
X143632380Y-110650357D01*
X143874285Y-110650357D01*
X143995238Y-110710833D01*
X144055714Y-110831785D01*
X144055714Y-110952738D01*
X143450952Y-111073690D01*
X145144285Y-111497023D02*
X145144285Y-110831785D01*
X145083809Y-110710833D01*
X144962857Y-110650357D01*
X144720952Y-110650357D01*
X144600000Y-110710833D01*
X145144285Y-111436547D02*
X145023333Y-111497023D01*
X144720952Y-111497023D01*
X144600000Y-111436547D01*
X144539523Y-111315595D01*
X144539523Y-111194642D01*
X144600000Y-111073690D01*
X144720952Y-111013214D01*
X145023333Y-111013214D01*
X145144285Y-110952738D01*
X145749047Y-111497023D02*
X145749047Y-110227023D01*
X145870000Y-111013214D02*
X146232857Y-111497023D01*
X146232857Y-110650357D02*
X145749047Y-111134166D01*
X147260952Y-111436547D02*
X147140000Y-111497023D01*
X146898095Y-111497023D01*
X146777142Y-111436547D01*
X146716666Y-111315595D01*
X146716666Y-110831785D01*
X146777142Y-110710833D01*
X146898095Y-110650357D01*
X147140000Y-110650357D01*
X147260952Y-110710833D01*
X147321428Y-110831785D01*
X147321428Y-110952738D01*
X146716666Y-111073690D01*
X147865714Y-111497023D02*
X147865714Y-110650357D01*
X147865714Y-110892261D02*
X147926190Y-110771309D01*
X147986666Y-110710833D01*
X148107619Y-110650357D01*
X148228571Y-110650357D01*
X143541666Y-112382023D02*
X143783571Y-112382023D01*
X143904523Y-112442500D01*
X144025476Y-112563452D01*
X144085952Y-112805357D01*
X144085952Y-113228690D01*
X144025476Y-113470595D01*
X143904523Y-113591547D01*
X143783571Y-113652023D01*
X143541666Y-113652023D01*
X143420714Y-113591547D01*
X143299761Y-113470595D01*
X143239285Y-113228690D01*
X143239285Y-112805357D01*
X143299761Y-112563452D01*
X143420714Y-112442500D01*
X143541666Y-112382023D01*
X145174523Y-112805357D02*
X145174523Y-113652023D01*
X144630238Y-112805357D02*
X144630238Y-113470595D01*
X144690714Y-113591547D01*
X144811666Y-113652023D01*
X144993095Y-113652023D01*
X145114047Y-113591547D01*
X145174523Y-113531071D01*
X145597857Y-112805357D02*
X146081666Y-112805357D01*
X145779285Y-112382023D02*
X145779285Y-113470595D01*
X145839761Y-113591547D01*
X145960714Y-113652023D01*
X146081666Y-113652023D01*
D16*
X127423809Y-101074523D02*
X127423809Y-99804523D01*
X127968095Y-101074523D02*
X127968095Y-100409285D01*
X127907619Y-100288333D01*
X127786666Y-100227857D01*
X127605238Y-100227857D01*
X127484285Y-100288333D01*
X127423809Y-100348809D01*
X129056666Y-101014047D02*
X128935714Y-101074523D01*
X128693809Y-101074523D01*
X128572857Y-101014047D01*
X128512380Y-100893095D01*
X128512380Y-100409285D01*
X128572857Y-100288333D01*
X128693809Y-100227857D01*
X128935714Y-100227857D01*
X129056666Y-100288333D01*
X129117142Y-100409285D01*
X129117142Y-100530238D01*
X128512380Y-100651190D01*
X130205714Y-101074523D02*
X130205714Y-100409285D01*
X130145238Y-100288333D01*
X130024285Y-100227857D01*
X129782380Y-100227857D01*
X129661428Y-100288333D01*
X130205714Y-101014047D02*
X130084761Y-101074523D01*
X129782380Y-101074523D01*
X129661428Y-101014047D01*
X129600952Y-100893095D01*
X129600952Y-100772142D01*
X129661428Y-100651190D01*
X129782380Y-100590714D01*
X130084761Y-100590714D01*
X130205714Y-100530238D01*
X130629047Y-100227857D02*
X131112857Y-100227857D01*
X130810476Y-99804523D02*
X130810476Y-100893095D01*
X130870952Y-101014047D01*
X130991904Y-101074523D01*
X131112857Y-101074523D01*
X131475714Y-99925476D02*
X131536190Y-99865000D01*
X131657142Y-99804523D01*
X131959523Y-99804523D01*
X132080476Y-99865000D01*
X132140952Y-99925476D01*
X132201428Y-100046428D01*
X132201428Y-100167380D01*
X132140952Y-100348809D01*
X131415238Y-101074523D01*
X132201428Y-101074523D01*
X132685238Y-101014047D02*
X132806190Y-101074523D01*
X133048095Y-101074523D01*
X133169047Y-101014047D01*
X133229523Y-100893095D01*
X133229523Y-100832619D01*
X133169047Y-100711666D01*
X133048095Y-100651190D01*
X132866666Y-100651190D01*
X132745714Y-100590714D01*
X132685238Y-100469761D01*
X132685238Y-100409285D01*
X132745714Y-100288333D01*
X132866666Y-100227857D01*
X133048095Y-100227857D01*
X133169047Y-100288333D01*
X133955238Y-101074523D02*
X133834285Y-101014047D01*
X133773809Y-100953571D01*
X133713333Y-100832619D01*
X133713333Y-100469761D01*
X133773809Y-100348809D01*
X133834285Y-100288333D01*
X133955238Y-100227857D01*
X134136666Y-100227857D01*
X134257619Y-100288333D01*
X134318095Y-100348809D01*
X134378571Y-100469761D01*
X134378571Y-100832619D01*
X134318095Y-100953571D01*
X134257619Y-101014047D01*
X134136666Y-101074523D01*
X133955238Y-101074523D01*
X135467142Y-100227857D02*
X135467142Y-101074523D01*
X134922857Y-100227857D02*
X134922857Y-100893095D01*
X134983333Y-101014047D01*
X135104285Y-101074523D01*
X135285714Y-101074523D01*
X135406666Y-101014047D01*
X135467142Y-100953571D01*
X136071904Y-100227857D02*
X136071904Y-101074523D01*
X136071904Y-100348809D02*
X136132380Y-100288333D01*
X136253333Y-100227857D01*
X136434761Y-100227857D01*
X136555714Y-100288333D01*
X136616190Y-100409285D01*
X136616190Y-101074523D01*
X137765238Y-101074523D02*
X137765238Y-99804523D01*
X137765238Y-101014047D02*
X137644285Y-101074523D01*
X137402380Y-101074523D01*
X137281428Y-101014047D01*
X137220952Y-100953571D01*
X137160476Y-100832619D01*
X137160476Y-100469761D01*
X137220952Y-100348809D01*
X137281428Y-100288333D01*
X137402380Y-100227857D01*
X137644285Y-100227857D01*
X137765238Y-100288333D01*
X138067619Y-101195476D02*
X139035238Y-101195476D01*
X139337619Y-101074523D02*
X139337619Y-100227857D01*
X139337619Y-100469761D02*
X139398095Y-100348809D01*
X139458571Y-100288333D01*
X139579523Y-100227857D01*
X139700476Y-100227857D01*
X140002857Y-101074523D02*
X140668095Y-100227857D01*
X140002857Y-100227857D02*
X140668095Y-101074523D01*
X140849523Y-101195476D02*
X141817142Y-101195476D01*
X142119523Y-101074523D02*
X142119523Y-100227857D01*
X142119523Y-100469761D02*
X142180000Y-100348809D01*
X142240476Y-100288333D01*
X142361428Y-100227857D01*
X142482380Y-100227857D01*
X143389523Y-101014047D02*
X143268571Y-101074523D01*
X143026666Y-101074523D01*
X142905714Y-101014047D01*
X142845238Y-100893095D01*
X142845238Y-100409285D01*
X142905714Y-100288333D01*
X143026666Y-100227857D01*
X143268571Y-100227857D01*
X143389523Y-100288333D01*
X143450000Y-100409285D01*
X143450000Y-100530238D01*
X142845238Y-100651190D01*
X143873333Y-100227857D02*
X144175714Y-101074523D01*
X144478095Y-100227857D01*
X145203809Y-99804523D02*
X145324761Y-99804523D01*
X145445714Y-99865000D01*
X145506190Y-99925476D01*
X145566666Y-100046428D01*
X145627142Y-100288333D01*
X145627142Y-100590714D01*
X145566666Y-100832619D01*
X145506190Y-100953571D01*
X145445714Y-101014047D01*
X145324761Y-101074523D01*
X145203809Y-101074523D01*
X145082857Y-101014047D01*
X145022380Y-100953571D01*
X144961904Y-100832619D01*
X144901428Y-100590714D01*
X144901428Y-100288333D01*
X144961904Y-100046428D01*
X145022380Y-99925476D01*
X145082857Y-99865000D01*
X145203809Y-99804523D01*
X146110952Y-99925476D02*
X146171428Y-99865000D01*
X146292380Y-99804523D01*
X146594761Y-99804523D01*
X146715714Y-99865000D01*
X146776190Y-99925476D01*
X146836666Y-100046428D01*
X146836666Y-100167380D01*
X146776190Y-100348809D01*
X146050476Y-101074523D01*
X146836666Y-101074523D01*
D12*
X116107380Y-117115000D02*
X115986428Y-117054523D01*
X115805000Y-117054523D01*
X115623571Y-117115000D01*
X115502619Y-117235952D01*
X115442142Y-117356904D01*
X115381666Y-117598809D01*
X115381666Y-117780238D01*
X115442142Y-118022142D01*
X115502619Y-118143095D01*
X115623571Y-118264047D01*
X115805000Y-118324523D01*
X115925952Y-118324523D01*
X116107380Y-118264047D01*
X116167857Y-118203571D01*
X116167857Y-117780238D01*
X115925952Y-117780238D01*
X116712142Y-118324523D02*
X116712142Y-117054523D01*
X117437857Y-118324523D01*
X117437857Y-117054523D01*
X118042619Y-118324523D02*
X118042619Y-117054523D01*
X118345000Y-117054523D01*
X118526428Y-117115000D01*
X118647380Y-117235952D01*
X118707857Y-117356904D01*
X118768333Y-117598809D01*
X118768333Y-117780238D01*
X118707857Y-118022142D01*
X118647380Y-118143095D01*
X118526428Y-118264047D01*
X118345000Y-118324523D01*
X118042619Y-118324523D01*
X118804047Y-100804523D02*
X118199285Y-100804523D01*
X118138809Y-101409285D01*
X118199285Y-101348809D01*
X118320238Y-101288333D01*
X118622619Y-101288333D01*
X118743571Y-101348809D01*
X118804047Y-101409285D01*
X118864523Y-101530238D01*
X118864523Y-101832619D01*
X118804047Y-101953571D01*
X118743571Y-102014047D01*
X118622619Y-102074523D01*
X118320238Y-102074523D01*
X118199285Y-102014047D01*
X118138809Y-101953571D01*
X119287857Y-101227857D02*
X119590238Y-102074523D01*
X119892619Y-101227857D01*
X121344047Y-102074523D02*
X121344047Y-100804523D01*
X121646428Y-100804523D01*
X121827857Y-100865000D01*
X121948809Y-100985952D01*
X122009285Y-101106904D01*
X122069761Y-101348809D01*
X122069761Y-101530238D01*
X122009285Y-101772142D01*
X121948809Y-101893095D01*
X121827857Y-102014047D01*
X121646428Y-102074523D01*
X121344047Y-102074523D01*
X123339761Y-101953571D02*
X123279285Y-102014047D01*
X123097857Y-102074523D01*
X122976904Y-102074523D01*
X122795476Y-102014047D01*
X122674523Y-101893095D01*
X122614047Y-101772142D01*
X122553571Y-101530238D01*
X122553571Y-101348809D01*
X122614047Y-101106904D01*
X122674523Y-100985952D01*
X122795476Y-100865000D01*
X122976904Y-100804523D01*
X123097857Y-100804523D01*
X123279285Y-100865000D01*
X123339761Y-100925476D01*
X124851666Y-102074523D02*
X124851666Y-100804523D01*
X125456428Y-101227857D02*
X125456428Y-102074523D01*
X125456428Y-101348809D02*
X125516904Y-101288333D01*
X125637857Y-101227857D01*
X125819285Y-101227857D01*
X125940238Y-101288333D01*
X126000714Y-101409285D01*
X126000714Y-102074523D01*
D17*
X79700000Y-135120000D02*
X79700000Y-119880000D01*
X88300000Y-135120000D02*
X79700000Y-135120000D01*
X88300000Y-119880000D02*
X88300000Y-135120000D01*
X79700000Y-119880000D02*
X88300000Y-119880000D01*
D18*
X87000000Y-125300000D02*
X88000000Y-125300000D01*
X87000000Y-129700000D02*
X87000000Y-125300000D01*
X88000000Y-129700000D02*
X87000000Y-129700000D01*
D19*
X93330000Y-115578160D02*
X94470000Y-115578160D01*
X93330000Y-118098160D02*
X93330000Y-115598160D01*
X94470000Y-118118160D02*
X93330000Y-118118160D01*
X94470000Y-115598160D02*
X94470000Y-118098160D01*
D18*
X102150000Y-122125000D02*
X102150000Y-120700000D01*
X102375000Y-129375000D02*
X102375000Y-129050000D01*
X95125000Y-129375000D02*
X95125000Y-129050000D01*
X95125000Y-122125000D02*
X95125000Y-122450000D01*
X102375000Y-122125000D02*
X102375000Y-122450000D01*
X95125000Y-122125000D02*
X95450000Y-122125000D01*
X95125000Y-129375000D02*
X95450000Y-129375000D01*
X102375000Y-129375000D02*
X102050000Y-129375000D01*
X102375000Y-122125000D02*
X102150000Y-122125000D01*
X97500000Y-118350000D02*
X95000000Y-118350000D01*
X97500000Y-115150000D02*
X97500000Y-118350000D01*
X95000000Y-115150000D02*
X97500000Y-115150000D01*
X95000000Y-118350000D02*
X95000000Y-115150000D01*
D20*
X99697936Y-102960000D02*
X103802064Y-102960000D01*
X99697936Y-99540000D02*
X103802064Y-99540000D01*
D19*
X93500000Y-140680000D02*
X96000000Y-140680000D01*
X96000000Y-141820000D02*
X93500000Y-141820000D01*
X93480000Y-141820000D02*
X93480000Y-140680000D01*
X96020000Y-141820000D02*
X96020000Y-140680000D01*
X102550000Y-106870000D02*
X100050000Y-106870000D01*
X100050000Y-105730000D02*
X102550000Y-105730000D01*
X102570000Y-105730000D02*
X102570000Y-106870000D01*
X100030000Y-105730000D02*
X100030000Y-106870000D01*
X106730000Y-124950000D02*
X106730000Y-122450000D01*
X107870000Y-122450000D02*
X107870000Y-124950000D01*
X107870000Y-124970000D02*
X106730000Y-124970000D01*
X107870000Y-122430000D02*
X106730000Y-122430000D01*
X95000000Y-112180000D02*
X97500000Y-112180000D01*
X97500000Y-113320000D02*
X95000000Y-113320000D01*
X94980000Y-113320000D02*
X94980000Y-112180000D01*
X97520000Y-113320000D02*
X97520000Y-112180000D01*
X107870000Y-127050000D02*
X107870000Y-129550000D01*
X106730000Y-129550000D02*
X106730000Y-127050000D01*
X106730000Y-127030000D02*
X107870000Y-127030000D01*
X106730000Y-129570000D02*
X107870000Y-129570000D01*
X102250000Y-138070000D02*
X99750000Y-138070000D01*
X99750000Y-136930000D02*
X102250000Y-136930000D01*
X102270000Y-136930000D02*
X102270000Y-138070000D01*
X99730000Y-136930000D02*
X99730000Y-138070000D01*
D18*
X111450000Y-137600000D02*
X111450000Y-138900000D01*
X108550000Y-137600000D02*
X109500000Y-137600000D01*
X108550000Y-138900000D02*
X108550000Y-137600000D01*
X110500000Y-137600000D02*
X111450000Y-137600000D01*
X109600000Y-138900000D02*
X110400000Y-138900000D01*
D11*
X96285240Y-109810000D02*
X93724920Y-109810000D01*
X96285240Y-102190000D02*
X96285240Y-109810000D01*
X93730000Y-102190000D02*
X96270000Y-102190000D01*
X93730000Y-102190000D02*
X93730000Y-109810000D01*
D21*
X92349680Y-101997600D02*
X92349680Y-115002400D01*
X77150320Y-101997600D02*
X92349680Y-101997600D01*
X77150320Y-115002400D02*
X77150320Y-101997600D01*
X92349680Y-115002400D02*
X77150320Y-115002400D01*
D19*
X78700000Y-105200000D02*
X77175000Y-105200000D01*
X78700000Y-111800000D02*
X78700000Y-105200000D01*
X77150000Y-111800000D02*
X78700000Y-111800000D01*
D20*
X114300000Y-107750000D02*
G75*
G03X114300000Y-107750000I-4300000J0D01*
G01*
X110127000Y-103305000D02*
X110127000Y-99495000D01*
X110127000Y-99495000D02*
X107206000Y-99495000D01*
X107206000Y-99495000D02*
X107206000Y-104321000D01*
D22*
X95798133Y-137748398D02*
G75*
G03X95798640Y-136752160I-548133J498398D01*
G01*
X95797262Y-136750646D02*
G75*
G03X94701360Y-136752160I-547262J-499354D01*
G01*
X94701867Y-136751602D02*
G75*
G03X94701360Y-137747840I548133J-498398D01*
G01*
X94702738Y-137749354D02*
G75*
G03X95798640Y-137747840I547262J499354D01*
G01*
X96799400Y-136500700D02*
X96799400Y-137999300D01*
X93700600Y-136500700D02*
X96799400Y-136500700D01*
X93700600Y-137999300D02*
X93700600Y-136500700D01*
X96799400Y-137999300D02*
X93700600Y-137999300D01*
D23*
X94350840Y-136701360D02*
X94350840Y-136551500D01*
X94350840Y-137948500D02*
X94350840Y-136752160D01*
X96149160Y-136701360D02*
X96149160Y-136551500D01*
X96149160Y-137948500D02*
X96149160Y-136752160D01*
X95150940Y-137349060D02*
X95150940Y-137150940D01*
X95150940Y-137150940D02*
X95349060Y-137150940D01*
X95349060Y-137349060D02*
X95349060Y-137150940D01*
X95150940Y-137349060D02*
X95349060Y-137349060D01*
D18*
X93130000Y-138310000D02*
X93130000Y-138710000D01*
X93400000Y-138500000D02*
X92850000Y-138500000D01*
D19*
X97230000Y-134570000D02*
X97230000Y-133430000D01*
X99750000Y-134570000D02*
X97250000Y-134570000D01*
X99770000Y-133430000D02*
X99770000Y-134570000D01*
X97250000Y-133430000D02*
X99750000Y-133430000D01*
X94230000Y-132630000D02*
X95370000Y-132630000D01*
X94230000Y-135150000D02*
X94230000Y-132650000D01*
X95370000Y-135170000D02*
X94230000Y-135170000D01*
X95370000Y-132650000D02*
X95370000Y-135150000D01*
X104480000Y-137820000D02*
X104480000Y-136680000D01*
X107000000Y-137820000D02*
X104500000Y-137820000D01*
X107020000Y-136680000D02*
X107020000Y-137820000D01*
X104500000Y-136680000D02*
X107000000Y-136680000D01*
X100970000Y-118070000D02*
X99830000Y-118070000D01*
X100970000Y-115550000D02*
X100970000Y-118050000D01*
X99830000Y-115530000D02*
X100970000Y-115530000D01*
X99830000Y-118050000D02*
X99830000Y-115550000D01*
X98130000Y-118050000D02*
X98130000Y-115550000D01*
X98130000Y-115530000D02*
X99270000Y-115530000D01*
X99270000Y-115550000D02*
X99270000Y-118050000D01*
X99270000Y-118070000D02*
X98130000Y-118070000D01*
D15*
X115270000Y-136010000D02*
X117270000Y-136010000D01*
X115270000Y-130210000D02*
X115270000Y-136010000D01*
X117270000Y-130210000D02*
X115270000Y-130210000D01*
D11*
X131270000Y-135960000D02*
X131270000Y-127860000D01*
X117270000Y-135994320D02*
X131270000Y-135994320D01*
X117270000Y-127860000D02*
X117270000Y-135960000D01*
X131270000Y-127840920D02*
X117270000Y-127830760D01*
D20*
X134660000Y-109760000D02*
X136160000Y-109760000D01*
X134660000Y-109760000D02*
X133160000Y-109760000D01*
X134660000Y-106540000D02*
X136160000Y-106540000D01*
X134660000Y-106540000D02*
X131735000Y-106540000D01*
D11*
X140350000Y-121230000D02*
X135350000Y-121230000D01*
X140370000Y-121230000D02*
X140370000Y-123770000D01*
X140350000Y-123785240D02*
X135350000Y-123785240D01*
X135314760Y-123785240D02*
X135314760Y-121224920D01*
D19*
X128480000Y-120770000D02*
X128480000Y-119630000D01*
X131000000Y-120770000D02*
X128500000Y-120770000D01*
X131020000Y-119630000D02*
X131020000Y-120770000D01*
X128500000Y-119630000D02*
X131000000Y-119630000D01*
X132780000Y-128000000D02*
X132780000Y-125500000D01*
X132780000Y-125480000D02*
X133920000Y-125480000D01*
X133920000Y-125500000D02*
X133920000Y-128000000D01*
X133920000Y-128020000D02*
X132780000Y-128020000D01*
X134100000Y-133168160D02*
X134100000Y-135668160D01*
X134100000Y-135688160D02*
X132960000Y-135688160D01*
X132960000Y-135668160D02*
X132960000Y-133168160D01*
X132960000Y-133148160D02*
X134100000Y-133148160D01*
X139840000Y-109560000D02*
X138700000Y-109560000D01*
X139840000Y-107040000D02*
X139840000Y-109540000D01*
X138700000Y-107020000D02*
X139840000Y-107020000D01*
X138700000Y-109540000D02*
X138700000Y-107040000D01*
X147151840Y-115760000D02*
X144651840Y-115760000D01*
X144631840Y-115760000D02*
X144631840Y-114620000D01*
X144651840Y-114620000D02*
X147151840Y-114620000D01*
X147171840Y-114620000D02*
X147171840Y-115760000D01*
X140800000Y-115630000D02*
X140800000Y-114490000D01*
X143320000Y-115630000D02*
X140820000Y-115630000D01*
X143340000Y-114490000D02*
X143340000Y-115630000D01*
X140820000Y-114490000D02*
X143320000Y-114490000D01*
X137411840Y-110630000D02*
X139911840Y-110630000D01*
X139911840Y-111770000D02*
X137411840Y-111770000D01*
X137391840Y-111770000D02*
X137391840Y-110630000D01*
X139931840Y-111770000D02*
X139931840Y-110630000D01*
X139871840Y-104320000D02*
X139871840Y-103180000D01*
X137331840Y-104320000D02*
X137331840Y-103180000D01*
X139851840Y-104320000D02*
X137351840Y-104320000D01*
X137351840Y-103180000D02*
X139851840Y-103180000D01*
X115500000Y-113550000D02*
X117050000Y-113550000D01*
X117050000Y-113550000D02*
X117050000Y-106950000D01*
X117050000Y-106950000D02*
X115525000Y-106950000D01*
D21*
X130699680Y-116752400D02*
X115500320Y-116752400D01*
X115500320Y-116752400D02*
X115500320Y-103747600D01*
X115500320Y-103747600D02*
X130699680Y-103747600D01*
X130699680Y-103747600D02*
X130699680Y-116752400D01*
D11*
X140160000Y-113980000D02*
X132540000Y-113980000D01*
X140160000Y-113980000D02*
X140160000Y-116520000D01*
X140160000Y-116535240D02*
X132540000Y-116535240D01*
X132540000Y-116535240D02*
X132540000Y-113974920D01*
D18*
X146950000Y-134050000D02*
X147775000Y-134050000D01*
X146950000Y-132225000D02*
X146950000Y-134050000D01*
X147750000Y-132225000D02*
X146950000Y-132225000D01*
X147725000Y-128550000D02*
X146925000Y-128550000D01*
X146925000Y-128550000D02*
X146925000Y-130375000D01*
X146925000Y-130375000D02*
X147750000Y-130375000D01*
D24*
X147950000Y-127899880D02*
X141050000Y-127899880D01*
X141050000Y-127899880D02*
X141050000Y-134900120D01*
X141050000Y-134900120D02*
X147950000Y-134900120D01*
X147950000Y-134900120D02*
X147950000Y-127899880D01*
D18*
X147050000Y-108900000D02*
X147875000Y-108900000D01*
X147050000Y-107075000D02*
X147050000Y-108900000D01*
X147850000Y-107075000D02*
X147050000Y-107075000D01*
X147825000Y-103400000D02*
X147025000Y-103400000D01*
X147025000Y-103400000D02*
X147025000Y-105225000D01*
X147025000Y-105225000D02*
X147850000Y-105225000D01*
D24*
X148050000Y-102749880D02*
X141150000Y-102749880D01*
X141150000Y-102749880D02*
X141150000Y-109750120D01*
X141150000Y-109750120D02*
X148050000Y-109750120D01*
X148050000Y-109750120D02*
X148050000Y-102749880D01*
D19*
X117000000Y-124360000D02*
X117000000Y-125500000D01*
X119540000Y-124360000D02*
X119540000Y-125500000D01*
X117020000Y-124360000D02*
X119520000Y-124360000D01*
X119520000Y-125500000D02*
X117020000Y-125500000D01*
X118670000Y-120480000D02*
X117530000Y-120480000D01*
X118670000Y-123020000D02*
X117530000Y-123020000D01*
X118670000Y-120500000D02*
X118670000Y-123000000D01*
X117530000Y-123000000D02*
X117530000Y-120500000D01*
X129080000Y-125680000D02*
X129080000Y-126820000D01*
X131620000Y-125680000D02*
X131620000Y-126820000D01*
X129100000Y-125680000D02*
X131600000Y-125680000D01*
X131600000Y-126820000D02*
X129100000Y-126820000D01*
X128805000Y-124425000D02*
X128805000Y-121925000D01*
X129945000Y-121925000D02*
X129945000Y-124425000D01*
X129945000Y-124445000D02*
X128805000Y-124445000D01*
X129945000Y-121905000D02*
X128805000Y-121905000D01*
X136170000Y-126498160D02*
X136170000Y-128998160D01*
X135030000Y-128998160D02*
X135030000Y-126498160D01*
X135030000Y-126478160D02*
X136170000Y-126478160D01*
X135030000Y-129018160D02*
X136170000Y-129018160D01*
X133791840Y-130820000D02*
X131291840Y-130820000D01*
X131291840Y-129680000D02*
X133791840Y-129680000D01*
X133811840Y-129680000D02*
X133811840Y-130820000D01*
X131271840Y-129680000D02*
X131271840Y-130820000D01*
D13*
X121703553Y-120500000D02*
G75*
G03X121703553Y-120500000I-353553J0D01*
G01*
D18*
X122025000Y-120675000D02*
X122025000Y-120725000D01*
X126175000Y-120675000D02*
X126175000Y-120820000D01*
X126175000Y-125825000D02*
X126175000Y-125680000D01*
X122025000Y-125825000D02*
X122025000Y-125680000D01*
X122025000Y-120675000D02*
X126175000Y-120675000D01*
X122025000Y-125825000D02*
X126175000Y-125825000D01*
D11*
X142010000Y-117430000D02*
X134390000Y-117430000D01*
X142010000Y-117430000D02*
X142010000Y-119970000D01*
X142010000Y-119985240D02*
X134390000Y-119985240D01*
X134390000Y-119985240D02*
X134390000Y-117424920D01*
X118990000Y-120020000D02*
X126610000Y-120020000D01*
X118990000Y-120020000D02*
X118990000Y-117480000D01*
X118990000Y-117464760D02*
X126610000Y-117464760D01*
X126610000Y-117464760D02*
X126610000Y-120025080D01*
D12*
X86890428Y-137608000D02*
X87979000Y-137608000D01*
X88196714Y-137680571D01*
X88341857Y-137825714D01*
X88414428Y-138043428D01*
X88414428Y-138188571D01*
X88414428Y-136084000D02*
X88414428Y-136954857D01*
X88414428Y-136519428D02*
X86890428Y-136519428D01*
X87108142Y-136664571D01*
X87253285Y-136809714D01*
X87325857Y-136954857D01*
X77877142Y-137714428D02*
X77877142Y-136190428D01*
X78602857Y-137714428D02*
X78602857Y-136190428D01*
X78965714Y-136190428D01*
X79183428Y-136263000D01*
X79328571Y-136408142D01*
X79401142Y-136553285D01*
X79473714Y-136843571D01*
X79473714Y-137061285D01*
X79401142Y-137351571D01*
X79328571Y-137496714D01*
X79183428Y-137641857D01*
X78965714Y-137714428D01*
X78602857Y-137714428D01*
X80997714Y-137569285D02*
X80925142Y-137641857D01*
X80707428Y-137714428D01*
X80562285Y-137714428D01*
X80344571Y-137641857D01*
X80199428Y-137496714D01*
X80126857Y-137351571D01*
X80054285Y-137061285D01*
X80054285Y-136843571D01*
X80126857Y-136553285D01*
X80199428Y-136408142D01*
X80344571Y-136263000D01*
X80562285Y-136190428D01*
X80707428Y-136190428D01*
X80925142Y-136263000D01*
X80997714Y-136335571D01*
X81288000Y-137859571D02*
X82449142Y-137859571D01*
X82666857Y-136190428D02*
X83610285Y-136190428D01*
X83102285Y-136771000D01*
X83320000Y-136771000D01*
X83465142Y-136843571D01*
X83537714Y-136916142D01*
X83610285Y-137061285D01*
X83610285Y-137424142D01*
X83537714Y-137569285D01*
X83465142Y-137641857D01*
X83320000Y-137714428D01*
X82884571Y-137714428D01*
X82739428Y-137641857D01*
X82666857Y-137569285D01*
X84118285Y-137714428D02*
X84916571Y-136698428D01*
X84118285Y-136698428D02*
X84916571Y-137714428D01*
X85424571Y-136335571D02*
X85497142Y-136263000D01*
X85642285Y-136190428D01*
X86005142Y-136190428D01*
X86150285Y-136263000D01*
X86222857Y-136335571D01*
X86295428Y-136480714D01*
X86295428Y-136625857D01*
X86222857Y-136843571D01*
X85352000Y-137714428D01*
X86295428Y-137714428D01*
D18*
X92914285Y-119000000D02*
X92942857Y-119028571D01*
X92971428Y-119114285D01*
X92971428Y-119171428D01*
X92942857Y-119257142D01*
X92885714Y-119314285D01*
X92828571Y-119342857D01*
X92714285Y-119371428D01*
X92628571Y-119371428D01*
X92514285Y-119342857D01*
X92457142Y-119314285D01*
X92400000Y-119257142D01*
X92371428Y-119171428D01*
X92371428Y-119114285D01*
X92400000Y-119028571D01*
X92428571Y-119000000D01*
X92371428Y-118457142D02*
X92371428Y-118742857D01*
X92657142Y-118771428D01*
X92628571Y-118742857D01*
X92600000Y-118685714D01*
X92600000Y-118542857D01*
X92628571Y-118485714D01*
X92657142Y-118457142D01*
X92714285Y-118428571D01*
X92857142Y-118428571D01*
X92914285Y-118457142D01*
X92942857Y-118485714D01*
X92971428Y-118542857D01*
X92971428Y-118685714D01*
X92942857Y-118742857D01*
X92914285Y-118771428D01*
X92871428Y-117491017D02*
X92871428Y-117833874D01*
X92871428Y-117662445D02*
X92271428Y-117662445D01*
X92357142Y-117719588D01*
X92414285Y-117776731D01*
X92442857Y-117833874D01*
X92271428Y-116976731D02*
X92271428Y-117091017D01*
X92300000Y-117148160D01*
X92328571Y-117176731D01*
X92414285Y-117233874D01*
X92528571Y-117262445D01*
X92757142Y-117262445D01*
X92814285Y-117233874D01*
X92842857Y-117205302D01*
X92871428Y-117148160D01*
X92871428Y-117033874D01*
X92842857Y-116976731D01*
X92814285Y-116948160D01*
X92757142Y-116919588D01*
X92614285Y-116919588D01*
X92557142Y-116948160D01*
X92528571Y-116976731D01*
X92500000Y-117033874D01*
X92500000Y-117148160D01*
X92528571Y-117205302D01*
X92557142Y-117233874D01*
X92614285Y-117262445D01*
X92471428Y-116662445D02*
X93071428Y-116662445D01*
X92500000Y-116662445D02*
X92471428Y-116605302D01*
X92471428Y-116491017D01*
X92500000Y-116433874D01*
X92528571Y-116405302D01*
X92585714Y-116376731D01*
X92757142Y-116376731D01*
X92814285Y-116405302D01*
X92842857Y-116433874D01*
X92871428Y-116491017D01*
X92871428Y-116605302D01*
X92842857Y-116662445D01*
X92557142Y-115919588D02*
X92557142Y-116119588D01*
X92871428Y-116119588D02*
X92271428Y-116119588D01*
X92271428Y-115833874D01*
X104252380Y-126511904D02*
X105061904Y-126511904D01*
X105157142Y-126464285D01*
X105204761Y-126416666D01*
X105252380Y-126321428D01*
X105252380Y-126130952D01*
X105204761Y-126035714D01*
X105157142Y-125988095D01*
X105061904Y-125940476D01*
X104252380Y-125940476D01*
X105252380Y-124940476D02*
X105252380Y-125511904D01*
X105252380Y-125226190D02*
X104252380Y-125226190D01*
X104395238Y-125321428D01*
X104490476Y-125416666D01*
X104538095Y-125511904D01*
X94952380Y-113861904D02*
X95485714Y-114661904D01*
X95485714Y-113861904D02*
X94952380Y-114661904D01*
X96209523Y-114661904D02*
X95752380Y-114661904D01*
X95980952Y-114661904D02*
X95980952Y-113861904D01*
X95904761Y-113976190D01*
X95828571Y-114052380D01*
X95752380Y-114090476D01*
X94261904Y-114552380D02*
X94261904Y-115009523D01*
X94261904Y-114780952D02*
X93461904Y-114780952D01*
X93576190Y-114857142D01*
X93652380Y-114933333D01*
X93690476Y-115009523D01*
X93461904Y-113866666D02*
X93461904Y-114019047D01*
X93500000Y-114095238D01*
X93538095Y-114133333D01*
X93652380Y-114209523D01*
X93804761Y-114247619D01*
X94109523Y-114247619D01*
X94185714Y-114209523D01*
X94223809Y-114171428D01*
X94261904Y-114095238D01*
X94261904Y-113942857D01*
X94223809Y-113866666D01*
X94185714Y-113828571D01*
X94109523Y-113790476D01*
X93919047Y-113790476D01*
X93842857Y-113828571D01*
X93804761Y-113866666D01*
X93766666Y-113942857D01*
X93766666Y-114095238D01*
X93804761Y-114171428D01*
X93842857Y-114209523D01*
X93919047Y-114247619D01*
X94261904Y-113447619D02*
X93461904Y-113447619D01*
X94033333Y-113180952D01*
X93461904Y-112914285D01*
X94261904Y-112914285D01*
X94261904Y-112533333D02*
X93461904Y-112533333D01*
X93842857Y-112533333D02*
X93842857Y-112076190D01*
X94261904Y-112076190D02*
X93461904Y-112076190D01*
X93728571Y-111771428D02*
X93728571Y-111352380D01*
X94261904Y-111771428D01*
X94261904Y-111352380D01*
X104083333Y-104952380D02*
X103750000Y-104476190D01*
X103511904Y-104952380D02*
X103511904Y-103952380D01*
X103892857Y-103952380D01*
X103988095Y-104000000D01*
X104035714Y-104047619D01*
X104083333Y-104142857D01*
X104083333Y-104285714D01*
X104035714Y-104380952D01*
X103988095Y-104428571D01*
X103892857Y-104476190D01*
X103511904Y-104476190D01*
X104416666Y-103952380D02*
X105083333Y-103952380D01*
X104654761Y-104952380D01*
X94650000Y-142721428D02*
X94450000Y-142435714D01*
X94307142Y-142721428D02*
X94307142Y-142121428D01*
X94535714Y-142121428D01*
X94592857Y-142150000D01*
X94621428Y-142178571D01*
X94650000Y-142235714D01*
X94650000Y-142321428D01*
X94621428Y-142378571D01*
X94592857Y-142407142D01*
X94535714Y-142435714D01*
X94307142Y-142435714D01*
X95164285Y-142121428D02*
X95050000Y-142121428D01*
X94992857Y-142150000D01*
X94964285Y-142178571D01*
X94907142Y-142264285D01*
X94878571Y-142378571D01*
X94878571Y-142607142D01*
X94907142Y-142664285D01*
X94935714Y-142692857D01*
X94992857Y-142721428D01*
X95107142Y-142721428D01*
X95164285Y-142692857D01*
X95192857Y-142664285D01*
X95221428Y-142607142D01*
X95221428Y-142464285D01*
X95192857Y-142407142D01*
X95164285Y-142378571D01*
X95107142Y-142350000D01*
X94992857Y-142350000D01*
X94935714Y-142378571D01*
X94907142Y-142407142D01*
X94878571Y-142464285D01*
X94250000Y-140221428D02*
X93907142Y-140221428D01*
X94078571Y-140221428D02*
X94078571Y-139621428D01*
X94021428Y-139707142D01*
X93964285Y-139764285D01*
X93907142Y-139792857D01*
X94621428Y-139621428D02*
X94678571Y-139621428D01*
X94735714Y-139650000D01*
X94764285Y-139678571D01*
X94792857Y-139735714D01*
X94821428Y-139850000D01*
X94821428Y-139992857D01*
X94792857Y-140107142D01*
X94764285Y-140164285D01*
X94735714Y-140192857D01*
X94678571Y-140221428D01*
X94621428Y-140221428D01*
X94564285Y-140192857D01*
X94535714Y-140164285D01*
X94507142Y-140107142D01*
X94478571Y-139992857D01*
X94478571Y-139850000D01*
X94507142Y-139735714D01*
X94535714Y-139678571D01*
X94564285Y-139650000D01*
X94621428Y-139621428D01*
X95192857Y-139621428D02*
X95250000Y-139621428D01*
X95307142Y-139650000D01*
X95335714Y-139678571D01*
X95364285Y-139735714D01*
X95392857Y-139850000D01*
X95392857Y-139992857D01*
X95364285Y-140107142D01*
X95335714Y-140164285D01*
X95307142Y-140192857D01*
X95250000Y-140221428D01*
X95192857Y-140221428D01*
X95135714Y-140192857D01*
X95107142Y-140164285D01*
X95078571Y-140107142D01*
X95050000Y-139992857D01*
X95050000Y-139850000D01*
X95078571Y-139735714D01*
X95107142Y-139678571D01*
X95135714Y-139650000D01*
X95192857Y-139621428D01*
X101200000Y-105371428D02*
X101000000Y-105085714D01*
X100857142Y-105371428D02*
X100857142Y-104771428D01*
X101085714Y-104771428D01*
X101142857Y-104800000D01*
X101171428Y-104828571D01*
X101200000Y-104885714D01*
X101200000Y-104971428D01*
X101171428Y-105028571D01*
X101142857Y-105057142D01*
X101085714Y-105085714D01*
X100857142Y-105085714D01*
X101742857Y-104771428D02*
X101457142Y-104771428D01*
X101428571Y-105057142D01*
X101457142Y-105028571D01*
X101514285Y-105000000D01*
X101657142Y-105000000D01*
X101714285Y-105028571D01*
X101742857Y-105057142D01*
X101771428Y-105114285D01*
X101771428Y-105257142D01*
X101742857Y-105314285D01*
X101714285Y-105342857D01*
X101657142Y-105371428D01*
X101514285Y-105371428D01*
X101457142Y-105342857D01*
X101428571Y-105314285D01*
X101328571Y-107871428D02*
X100985714Y-107871428D01*
X101157142Y-107871428D02*
X101157142Y-107271428D01*
X101100000Y-107357142D01*
X101042857Y-107414285D01*
X100985714Y-107442857D01*
X101585714Y-107871428D02*
X101585714Y-107271428D01*
X101642857Y-107642857D02*
X101814285Y-107871428D01*
X101814285Y-107471428D02*
X101585714Y-107700000D01*
X108771428Y-123800000D02*
X108485714Y-124000000D01*
X108771428Y-124142857D02*
X108171428Y-124142857D01*
X108171428Y-123914285D01*
X108200000Y-123857142D01*
X108228571Y-123828571D01*
X108285714Y-123800000D01*
X108371428Y-123800000D01*
X108428571Y-123828571D01*
X108457142Y-123857142D01*
X108485714Y-123914285D01*
X108485714Y-124142857D01*
X108371428Y-123285714D02*
X108771428Y-123285714D01*
X108142857Y-123428571D02*
X108571428Y-123571428D01*
X108571428Y-123200000D01*
X106271428Y-123871428D02*
X106271428Y-124214285D01*
X106271428Y-124042857D02*
X105671428Y-124042857D01*
X105757142Y-124100000D01*
X105814285Y-124157142D01*
X105842857Y-124214285D01*
X106271428Y-123614285D02*
X105671428Y-123614285D01*
X106042857Y-123557142D02*
X106271428Y-123385714D01*
X105871428Y-123385714D02*
X106100000Y-123614285D01*
X97400000Y-111671428D02*
X97200000Y-111385714D01*
X97057142Y-111671428D02*
X97057142Y-111071428D01*
X97285714Y-111071428D01*
X97342857Y-111100000D01*
X97371428Y-111128571D01*
X97400000Y-111185714D01*
X97400000Y-111271428D01*
X97371428Y-111328571D01*
X97342857Y-111357142D01*
X97285714Y-111385714D01*
X97057142Y-111385714D01*
X97600000Y-111071428D02*
X97971428Y-111071428D01*
X97771428Y-111300000D01*
X97857142Y-111300000D01*
X97914285Y-111328571D01*
X97942857Y-111357142D01*
X97971428Y-111414285D01*
X97971428Y-111557142D01*
X97942857Y-111614285D01*
X97914285Y-111642857D01*
X97857142Y-111671428D01*
X97685714Y-111671428D01*
X97628571Y-111642857D01*
X97600000Y-111614285D01*
X95978571Y-111721428D02*
X95635714Y-111721428D01*
X95807142Y-111721428D02*
X95807142Y-111121428D01*
X95750000Y-111207142D01*
X95692857Y-111264285D01*
X95635714Y-111292857D01*
X96235714Y-111721428D02*
X96235714Y-111121428D01*
X96435714Y-111550000D01*
X96635714Y-111121428D01*
X96635714Y-111721428D01*
X106371428Y-128400000D02*
X106085714Y-128600000D01*
X106371428Y-128742857D02*
X105771428Y-128742857D01*
X105771428Y-128514285D01*
X105800000Y-128457142D01*
X105828571Y-128428571D01*
X105885714Y-128400000D01*
X105971428Y-128400000D01*
X106028571Y-128428571D01*
X106057142Y-128457142D01*
X106085714Y-128514285D01*
X106085714Y-128742857D01*
X105828571Y-128171428D02*
X105800000Y-128142857D01*
X105771428Y-128085714D01*
X105771428Y-127942857D01*
X105800000Y-127885714D01*
X105828571Y-127857142D01*
X105885714Y-127828571D01*
X105942857Y-127828571D01*
X106028571Y-127857142D01*
X106371428Y-128200000D01*
X106371428Y-127828571D01*
X108871428Y-128557142D02*
X108871428Y-128900000D01*
X108871428Y-128728571D02*
X108271428Y-128728571D01*
X108357142Y-128785714D01*
X108414285Y-128842857D01*
X108442857Y-128900000D01*
X108271428Y-128185714D02*
X108271428Y-128128571D01*
X108300000Y-128071428D01*
X108328571Y-128042857D01*
X108385714Y-128014285D01*
X108500000Y-127985714D01*
X108642857Y-127985714D01*
X108757142Y-128014285D01*
X108814285Y-128042857D01*
X108842857Y-128071428D01*
X108871428Y-128128571D01*
X108871428Y-128185714D01*
X108842857Y-128242857D01*
X108814285Y-128271428D01*
X108757142Y-128300000D01*
X108642857Y-128328571D01*
X108500000Y-128328571D01*
X108385714Y-128300000D01*
X108328571Y-128271428D01*
X108300000Y-128242857D01*
X108271428Y-128185714D01*
X108871428Y-127728571D02*
X108271428Y-127728571D01*
X108642857Y-127671428D02*
X108871428Y-127500000D01*
X108471428Y-127500000D02*
X108700000Y-127728571D01*
X100900000Y-136571428D02*
X100700000Y-136285714D01*
X100557142Y-136571428D02*
X100557142Y-135971428D01*
X100785714Y-135971428D01*
X100842857Y-136000000D01*
X100871428Y-136028571D01*
X100900000Y-136085714D01*
X100900000Y-136171428D01*
X100871428Y-136228571D01*
X100842857Y-136257142D01*
X100785714Y-136285714D01*
X100557142Y-136285714D01*
X101471428Y-136571428D02*
X101128571Y-136571428D01*
X101300000Y-136571428D02*
X101300000Y-135971428D01*
X101242857Y-136057142D01*
X101185714Y-136114285D01*
X101128571Y-136142857D01*
X100357142Y-138528571D02*
X100385714Y-138500000D01*
X100442857Y-138471428D01*
X100585714Y-138471428D01*
X100642857Y-138500000D01*
X100671428Y-138528571D01*
X100700000Y-138585714D01*
X100700000Y-138642857D01*
X100671428Y-138728571D01*
X100328571Y-139071428D01*
X100700000Y-139071428D01*
X101242857Y-138471428D02*
X100957142Y-138471428D01*
X100928571Y-138757142D01*
X100957142Y-138728571D01*
X101014285Y-138700000D01*
X101157142Y-138700000D01*
X101214285Y-138728571D01*
X101242857Y-138757142D01*
X101271428Y-138814285D01*
X101271428Y-138957142D01*
X101242857Y-139014285D01*
X101214285Y-139042857D01*
X101157142Y-139071428D01*
X101014285Y-139071428D01*
X100957142Y-139042857D01*
X100928571Y-139014285D01*
X101642857Y-138471428D02*
X101700000Y-138471428D01*
X101757142Y-138500000D01*
X101785714Y-138528571D01*
X101814285Y-138585714D01*
X101842857Y-138700000D01*
X101842857Y-138842857D01*
X101814285Y-138957142D01*
X101785714Y-139014285D01*
X101757142Y-139042857D01*
X101700000Y-139071428D01*
X101642857Y-139071428D01*
X101585714Y-139042857D01*
X101557142Y-139014285D01*
X101528571Y-138957142D01*
X101500000Y-138842857D01*
X101500000Y-138700000D01*
X101528571Y-138585714D01*
X101557142Y-138528571D01*
X101585714Y-138500000D01*
X101642857Y-138471428D01*
X109904761Y-136547619D02*
X109809523Y-136500000D01*
X109714285Y-136404761D01*
X109571428Y-136261904D01*
X109476190Y-136214285D01*
X109380952Y-136214285D01*
X109428571Y-136452380D02*
X109333333Y-136404761D01*
X109238095Y-136309523D01*
X109190476Y-136119047D01*
X109190476Y-135785714D01*
X109238095Y-135595238D01*
X109333333Y-135500000D01*
X109428571Y-135452380D01*
X109619047Y-135452380D01*
X109714285Y-135500000D01*
X109809523Y-135595238D01*
X109857142Y-135785714D01*
X109857142Y-136119047D01*
X109809523Y-136309523D01*
X109714285Y-136404761D01*
X109619047Y-136452380D01*
X109428571Y-136452380D01*
X110809523Y-136452380D02*
X110238095Y-136452380D01*
X110523809Y-136452380D02*
X110523809Y-135452380D01*
X110428571Y-135595238D01*
X110333333Y-135690476D01*
X110238095Y-135738095D01*
D25*
X92632714Y-106129000D02*
X93177000Y-106129000D01*
X93285857Y-106165285D01*
X93358428Y-106237857D01*
X93394714Y-106346714D01*
X93394714Y-106419285D01*
X92632714Y-105838714D02*
X92632714Y-105367000D01*
X92923000Y-105621000D01*
X92923000Y-105512142D01*
X92959285Y-105439571D01*
X92995571Y-105403285D01*
X93068142Y-105367000D01*
X93249571Y-105367000D01*
X93322142Y-105403285D01*
X93358428Y-105439571D01*
X93394714Y-105512142D01*
X93394714Y-105729857D01*
X93358428Y-105802428D01*
X93322142Y-105838714D01*
D12*
X84084520Y-115823908D02*
X84084520Y-116912480D01*
X84011948Y-117130194D01*
X83866805Y-117275337D01*
X83649091Y-117347908D01*
X83503948Y-117347908D01*
X84737662Y-115969051D02*
X84810234Y-115896480D01*
X84955377Y-115823908D01*
X85318234Y-115823908D01*
X85463377Y-115896480D01*
X85535948Y-115969051D01*
X85608520Y-116114194D01*
X85608520Y-116259337D01*
X85535948Y-116477051D01*
X84665091Y-117347908D01*
X85608520Y-117347908D01*
D18*
X114262380Y-103408095D02*
X113262380Y-103408095D01*
X113262380Y-103170000D01*
X113310000Y-103027142D01*
X113405238Y-102931904D01*
X113500476Y-102884285D01*
X113690952Y-102836666D01*
X113833809Y-102836666D01*
X114024285Y-102884285D01*
X114119523Y-102931904D01*
X114214761Y-103027142D01*
X114262380Y-103170000D01*
X114262380Y-103408095D01*
X113357619Y-102455714D02*
X113310000Y-102408095D01*
X113262380Y-102312857D01*
X113262380Y-102074761D01*
X113310000Y-101979523D01*
X113357619Y-101931904D01*
X113452857Y-101884285D01*
X113548095Y-101884285D01*
X113690952Y-101931904D01*
X114262380Y-102503333D01*
X114262380Y-101884285D01*
D26*
X94941571Y-136070714D02*
X94941571Y-135308714D01*
X95123000Y-135308714D01*
X95231857Y-135345000D01*
X95304428Y-135417571D01*
X95340714Y-135490142D01*
X95377000Y-135635285D01*
X95377000Y-135744142D01*
X95340714Y-135889285D01*
X95304428Y-135961857D01*
X95231857Y-136034428D01*
X95123000Y-136070714D01*
X94941571Y-136070714D01*
X96102714Y-136070714D02*
X95667285Y-136070714D01*
X95885000Y-136070714D02*
X95885000Y-135308714D01*
X95812428Y-135417571D01*
X95739857Y-135490142D01*
X95667285Y-135526428D01*
X94760142Y-139118714D02*
X94397285Y-139118714D01*
X94397285Y-138356714D01*
X95014142Y-138719571D02*
X95268142Y-138719571D01*
X95377000Y-139118714D02*
X95014142Y-139118714D01*
X95014142Y-138356714D01*
X95377000Y-138356714D01*
X95703571Y-139118714D02*
X95703571Y-138356714D01*
X95885000Y-138356714D01*
X95993857Y-138393000D01*
X96066428Y-138465571D01*
X96102714Y-138538142D01*
X96139000Y-138683285D01*
X96139000Y-138792142D01*
X96102714Y-138937285D01*
X96066428Y-139009857D01*
X95993857Y-139082428D01*
X95885000Y-139118714D01*
X95703571Y-139118714D01*
D18*
X98400000Y-133014285D02*
X98371428Y-133042857D01*
X98285714Y-133071428D01*
X98228571Y-133071428D01*
X98142857Y-133042857D01*
X98085714Y-132985714D01*
X98057142Y-132928571D01*
X98028571Y-132814285D01*
X98028571Y-132728571D01*
X98057142Y-132614285D01*
X98085714Y-132557142D01*
X98142857Y-132500000D01*
X98228571Y-132471428D01*
X98285714Y-132471428D01*
X98371428Y-132500000D01*
X98400000Y-132528571D01*
X98914285Y-132671428D02*
X98914285Y-133071428D01*
X98771428Y-132442857D02*
X98628571Y-132871428D01*
X99000000Y-132871428D01*
X97514285Y-134971428D02*
X97571428Y-134971428D01*
X97628571Y-135000000D01*
X97657142Y-135028571D01*
X97685714Y-135085714D01*
X97714285Y-135200000D01*
X97714285Y-135342857D01*
X97685714Y-135457142D01*
X97657142Y-135514285D01*
X97628571Y-135542857D01*
X97571428Y-135571428D01*
X97514285Y-135571428D01*
X97457142Y-135542857D01*
X97428571Y-135514285D01*
X97400000Y-135457142D01*
X97371428Y-135342857D01*
X97371428Y-135200000D01*
X97400000Y-135085714D01*
X97428571Y-135028571D01*
X97457142Y-135000000D01*
X97514285Y-134971428D01*
X97971428Y-135514285D02*
X98000000Y-135542857D01*
X97971428Y-135571428D01*
X97942857Y-135542857D01*
X97971428Y-135514285D01*
X97971428Y-135571428D01*
X98571428Y-135571428D02*
X98228571Y-135571428D01*
X98400000Y-135571428D02*
X98400000Y-134971428D01*
X98342857Y-135057142D01*
X98285714Y-135114285D01*
X98228571Y-135142857D01*
X99085714Y-135171428D02*
X99085714Y-135571428D01*
X98828571Y-135171428D02*
X98828571Y-135485714D01*
X98857142Y-135542857D01*
X98914285Y-135571428D01*
X99000000Y-135571428D01*
X99057142Y-135542857D01*
X99085714Y-135514285D01*
X99571428Y-135257142D02*
X99371428Y-135257142D01*
X99371428Y-135571428D02*
X99371428Y-134971428D01*
X99657142Y-134971428D01*
X96214285Y-134000000D02*
X96242857Y-134028571D01*
X96271428Y-134114285D01*
X96271428Y-134171428D01*
X96242857Y-134257142D01*
X96185714Y-134314285D01*
X96128571Y-134342857D01*
X96014285Y-134371428D01*
X95928571Y-134371428D01*
X95814285Y-134342857D01*
X95757142Y-134314285D01*
X95700000Y-134257142D01*
X95671428Y-134171428D01*
X95671428Y-134114285D01*
X95700000Y-134028571D01*
X95728571Y-134000000D01*
X95671428Y-133800000D02*
X95671428Y-133428571D01*
X95900000Y-133628571D01*
X95900000Y-133542857D01*
X95928571Y-133485714D01*
X95957142Y-133457142D01*
X96014285Y-133428571D01*
X96157142Y-133428571D01*
X96214285Y-133457142D01*
X96242857Y-133485714D01*
X96271428Y-133542857D01*
X96271428Y-133714285D01*
X96242857Y-133771428D01*
X96214285Y-133800000D01*
X93171428Y-134885714D02*
X93171428Y-134828571D01*
X93200000Y-134771428D01*
X93228571Y-134742857D01*
X93285714Y-134714285D01*
X93400000Y-134685714D01*
X93542857Y-134685714D01*
X93657142Y-134714285D01*
X93714285Y-134742857D01*
X93742857Y-134771428D01*
X93771428Y-134828571D01*
X93771428Y-134885714D01*
X93742857Y-134942857D01*
X93714285Y-134971428D01*
X93657142Y-135000000D01*
X93542857Y-135028571D01*
X93400000Y-135028571D01*
X93285714Y-135000000D01*
X93228571Y-134971428D01*
X93200000Y-134942857D01*
X93171428Y-134885714D01*
X93714285Y-134428571D02*
X93742857Y-134400000D01*
X93771428Y-134428571D01*
X93742857Y-134457142D01*
X93714285Y-134428571D01*
X93771428Y-134428571D01*
X93771428Y-133828571D02*
X93771428Y-134171428D01*
X93771428Y-134000000D02*
X93171428Y-134000000D01*
X93257142Y-134057142D01*
X93314285Y-134114285D01*
X93342857Y-134171428D01*
X93371428Y-133314285D02*
X93771428Y-133314285D01*
X93371428Y-133571428D02*
X93685714Y-133571428D01*
X93742857Y-133542857D01*
X93771428Y-133485714D01*
X93771428Y-133400000D01*
X93742857Y-133342857D01*
X93714285Y-133314285D01*
X93457142Y-132828571D02*
X93457142Y-133028571D01*
X93771428Y-133028571D02*
X93171428Y-133028571D01*
X93171428Y-132742857D01*
X105650000Y-136264285D02*
X105621428Y-136292857D01*
X105535714Y-136321428D01*
X105478571Y-136321428D01*
X105392857Y-136292857D01*
X105335714Y-136235714D01*
X105307142Y-136178571D01*
X105278571Y-136064285D01*
X105278571Y-135978571D01*
X105307142Y-135864285D01*
X105335714Y-135807142D01*
X105392857Y-135750000D01*
X105478571Y-135721428D01*
X105535714Y-135721428D01*
X105621428Y-135750000D01*
X105650000Y-135778571D01*
X105878571Y-135778571D02*
X105907142Y-135750000D01*
X105964285Y-135721428D01*
X106107142Y-135721428D01*
X106164285Y-135750000D01*
X106192857Y-135778571D01*
X106221428Y-135835714D01*
X106221428Y-135892857D01*
X106192857Y-135978571D01*
X105850000Y-136321428D01*
X106221428Y-136321428D01*
X104764285Y-138221428D02*
X104821428Y-138221428D01*
X104878571Y-138250000D01*
X104907142Y-138278571D01*
X104935714Y-138335714D01*
X104964285Y-138450000D01*
X104964285Y-138592857D01*
X104935714Y-138707142D01*
X104907142Y-138764285D01*
X104878571Y-138792857D01*
X104821428Y-138821428D01*
X104764285Y-138821428D01*
X104707142Y-138792857D01*
X104678571Y-138764285D01*
X104650000Y-138707142D01*
X104621428Y-138592857D01*
X104621428Y-138450000D01*
X104650000Y-138335714D01*
X104678571Y-138278571D01*
X104707142Y-138250000D01*
X104764285Y-138221428D01*
X105221428Y-138764285D02*
X105250000Y-138792857D01*
X105221428Y-138821428D01*
X105192857Y-138792857D01*
X105221428Y-138764285D01*
X105221428Y-138821428D01*
X105821428Y-138821428D02*
X105478571Y-138821428D01*
X105650000Y-138821428D02*
X105650000Y-138221428D01*
X105592857Y-138307142D01*
X105535714Y-138364285D01*
X105478571Y-138392857D01*
X106335714Y-138421428D02*
X106335714Y-138821428D01*
X106078571Y-138421428D02*
X106078571Y-138735714D01*
X106107142Y-138792857D01*
X106164285Y-138821428D01*
X106250000Y-138821428D01*
X106307142Y-138792857D01*
X106335714Y-138764285D01*
X106821428Y-138507142D02*
X106621428Y-138507142D01*
X106621428Y-138821428D02*
X106621428Y-138221428D01*
X106907142Y-138221428D01*
X100614285Y-114400000D02*
X100642857Y-114428571D01*
X100671428Y-114514285D01*
X100671428Y-114571428D01*
X100642857Y-114657142D01*
X100585714Y-114714285D01*
X100528571Y-114742857D01*
X100414285Y-114771428D01*
X100328571Y-114771428D01*
X100214285Y-114742857D01*
X100157142Y-114714285D01*
X100100000Y-114657142D01*
X100071428Y-114571428D01*
X100071428Y-114514285D01*
X100100000Y-114428571D01*
X100128571Y-114400000D01*
X100671428Y-113828571D02*
X100671428Y-114171428D01*
X100671428Y-114000000D02*
X100071428Y-114000000D01*
X100157142Y-114057142D01*
X100214285Y-114114285D01*
X100242857Y-114171428D01*
X101371428Y-117785714D02*
X101371428Y-117728571D01*
X101400000Y-117671428D01*
X101428571Y-117642857D01*
X101485714Y-117614285D01*
X101600000Y-117585714D01*
X101742857Y-117585714D01*
X101857142Y-117614285D01*
X101914285Y-117642857D01*
X101942857Y-117671428D01*
X101971428Y-117728571D01*
X101971428Y-117785714D01*
X101942857Y-117842857D01*
X101914285Y-117871428D01*
X101857142Y-117900000D01*
X101742857Y-117928571D01*
X101600000Y-117928571D01*
X101485714Y-117900000D01*
X101428571Y-117871428D01*
X101400000Y-117842857D01*
X101371428Y-117785714D01*
X101914285Y-117328571D02*
X101942857Y-117300000D01*
X101971428Y-117328571D01*
X101942857Y-117357142D01*
X101914285Y-117328571D01*
X101971428Y-117328571D01*
X101971428Y-116728571D02*
X101971428Y-117071428D01*
X101971428Y-116900000D02*
X101371428Y-116900000D01*
X101457142Y-116957142D01*
X101514285Y-117014285D01*
X101542857Y-117071428D01*
X101571428Y-116214285D02*
X101971428Y-116214285D01*
X101571428Y-116471428D02*
X101885714Y-116471428D01*
X101942857Y-116442857D01*
X101971428Y-116385714D01*
X101971428Y-116300000D01*
X101942857Y-116242857D01*
X101914285Y-116214285D01*
X101657142Y-115728571D02*
X101657142Y-115928571D01*
X101971428Y-115928571D02*
X101371428Y-115928571D01*
X101371428Y-115642857D01*
X99814285Y-119200000D02*
X99842857Y-119228571D01*
X99871428Y-119314285D01*
X99871428Y-119371428D01*
X99842857Y-119457142D01*
X99785714Y-119514285D01*
X99728571Y-119542857D01*
X99614285Y-119571428D01*
X99528571Y-119571428D01*
X99414285Y-119542857D01*
X99357142Y-119514285D01*
X99300000Y-119457142D01*
X99271428Y-119371428D01*
X99271428Y-119314285D01*
X99300000Y-119228571D01*
X99328571Y-119200000D01*
X99271428Y-118685714D02*
X99271428Y-118800000D01*
X99300000Y-118857142D01*
X99328571Y-118885714D01*
X99414285Y-118942857D01*
X99528571Y-118971428D01*
X99757142Y-118971428D01*
X99814285Y-118942857D01*
X99842857Y-118914285D01*
X99871428Y-118857142D01*
X99871428Y-118742857D01*
X99842857Y-118685714D01*
X99814285Y-118657142D01*
X99757142Y-118628571D01*
X99614285Y-118628571D01*
X99557142Y-118657142D01*
X99528571Y-118685714D01*
X99500000Y-118742857D01*
X99500000Y-118857142D01*
X99528571Y-118914285D01*
X99557142Y-118942857D01*
X99614285Y-118971428D01*
X98971428Y-112842857D02*
X98971428Y-113185714D01*
X98971428Y-113014285D02*
X98371428Y-113014285D01*
X98457142Y-113071428D01*
X98514285Y-113128571D01*
X98542857Y-113185714D01*
X98371428Y-112328571D02*
X98371428Y-112442857D01*
X98400000Y-112500000D01*
X98428571Y-112528571D01*
X98514285Y-112585714D01*
X98628571Y-112614285D01*
X98857142Y-112614285D01*
X98914285Y-112585714D01*
X98942857Y-112557142D01*
X98971428Y-112500000D01*
X98971428Y-112385714D01*
X98942857Y-112328571D01*
X98914285Y-112300000D01*
X98857142Y-112271428D01*
X98714285Y-112271428D01*
X98657142Y-112300000D01*
X98628571Y-112328571D01*
X98600000Y-112385714D01*
X98600000Y-112500000D01*
X98628571Y-112557142D01*
X98657142Y-112585714D01*
X98714285Y-112614285D01*
X98571428Y-112014285D02*
X99171428Y-112014285D01*
X98600000Y-112014285D02*
X98571428Y-111957142D01*
X98571428Y-111842857D01*
X98600000Y-111785714D01*
X98628571Y-111757142D01*
X98685714Y-111728571D01*
X98857142Y-111728571D01*
X98914285Y-111757142D01*
X98942857Y-111785714D01*
X98971428Y-111842857D01*
X98971428Y-111957142D01*
X98942857Y-112014285D01*
X98657142Y-111271428D02*
X98657142Y-111471428D01*
X98971428Y-111471428D02*
X98371428Y-111471428D01*
X98371428Y-111185714D01*
D12*
X128762000Y-135625428D02*
X128762000Y-136714000D01*
X128689428Y-136931714D01*
X128544285Y-137076857D01*
X128326571Y-137149428D01*
X128181428Y-137149428D01*
X130213428Y-135625428D02*
X129487714Y-135625428D01*
X129415142Y-136351142D01*
X129487714Y-136278571D01*
X129632857Y-136206000D01*
X129995714Y-136206000D01*
X130140857Y-136278571D01*
X130213428Y-136351142D01*
X130286000Y-136496285D01*
X130286000Y-136859142D01*
X130213428Y-137004285D01*
X130140857Y-137076857D01*
X129995714Y-137149428D01*
X129632857Y-137149428D01*
X129487714Y-137076857D01*
X129415142Y-137004285D01*
D18*
X133898095Y-105152380D02*
X133898095Y-105961904D01*
X133945714Y-106057142D01*
X133993333Y-106104761D01*
X134088571Y-106152380D01*
X134279047Y-106152380D01*
X134374285Y-106104761D01*
X134421904Y-106057142D01*
X134469523Y-105961904D01*
X134469523Y-105152380D01*
X134850476Y-105152380D02*
X135469523Y-105152380D01*
X135136190Y-105533333D01*
X135279047Y-105533333D01*
X135374285Y-105580952D01*
X135421904Y-105628571D01*
X135469523Y-105723809D01*
X135469523Y-105961904D01*
X135421904Y-106057142D01*
X135374285Y-106104761D01*
X135279047Y-106152380D01*
X134993333Y-106152380D01*
X134898095Y-106104761D01*
X134850476Y-106057142D01*
D25*
X137469428Y-118485714D02*
X137469428Y-119102571D01*
X137505714Y-119175142D01*
X137542000Y-119211428D01*
X137614571Y-119247714D01*
X137759714Y-119247714D01*
X137832285Y-119211428D01*
X137868571Y-119175142D01*
X137904857Y-119102571D01*
X137904857Y-118485714D01*
X138231428Y-118558285D02*
X138267714Y-118522000D01*
X138340285Y-118485714D01*
X138521714Y-118485714D01*
X138594285Y-118522000D01*
X138630571Y-118558285D01*
X138666857Y-118630857D01*
X138666857Y-118703428D01*
X138630571Y-118812285D01*
X138195142Y-119247714D01*
X138666857Y-119247714D01*
X137183571Y-125394714D02*
X137183571Y-124632714D01*
X137437571Y-125177000D01*
X137691571Y-124632714D01*
X137691571Y-125394714D01*
X138054428Y-125394714D02*
X138054428Y-124632714D01*
X138852714Y-125322142D02*
X138816428Y-125358428D01*
X138707571Y-125394714D01*
X138635000Y-125394714D01*
X138526142Y-125358428D01*
X138453571Y-125285857D01*
X138417285Y-125213285D01*
X138381000Y-125068142D01*
X138381000Y-124959285D01*
X138417285Y-124814142D01*
X138453571Y-124741571D01*
X138526142Y-124669000D01*
X138635000Y-124632714D01*
X138707571Y-124632714D01*
X138816428Y-124669000D01*
X138852714Y-124705285D01*
D18*
X129650000Y-119214285D02*
X129621428Y-119242857D01*
X129535714Y-119271428D01*
X129478571Y-119271428D01*
X129392857Y-119242857D01*
X129335714Y-119185714D01*
X129307142Y-119128571D01*
X129278571Y-119014285D01*
X129278571Y-118928571D01*
X129307142Y-118814285D01*
X129335714Y-118757142D01*
X129392857Y-118700000D01*
X129478571Y-118671428D01*
X129535714Y-118671428D01*
X129621428Y-118700000D01*
X129650000Y-118728571D01*
X130221428Y-119271428D02*
X129878571Y-119271428D01*
X130050000Y-119271428D02*
X130050000Y-118671428D01*
X129992857Y-118757142D01*
X129935714Y-118814285D01*
X129878571Y-118842857D01*
X128935714Y-121714285D02*
X128964285Y-121742857D01*
X128935714Y-121771428D01*
X128907142Y-121742857D01*
X128935714Y-121714285D01*
X128935714Y-121771428D01*
X129535714Y-121771428D02*
X129192857Y-121771428D01*
X129364285Y-121771428D02*
X129364285Y-121171428D01*
X129307142Y-121257142D01*
X129250000Y-121314285D01*
X129192857Y-121342857D01*
X130050000Y-121371428D02*
X130050000Y-121771428D01*
X129792857Y-121371428D02*
X129792857Y-121685714D01*
X129821428Y-121742857D01*
X129878571Y-121771428D01*
X129964285Y-121771428D01*
X130021428Y-121742857D01*
X130050000Y-121714285D01*
X130535714Y-121457142D02*
X130335714Y-121457142D01*
X130335714Y-121771428D02*
X130335714Y-121171428D01*
X130621428Y-121171428D01*
X132364285Y-126850000D02*
X132392857Y-126878571D01*
X132421428Y-126964285D01*
X132421428Y-127021428D01*
X132392857Y-127107142D01*
X132335714Y-127164285D01*
X132278571Y-127192857D01*
X132164285Y-127221428D01*
X132078571Y-127221428D01*
X131964285Y-127192857D01*
X131907142Y-127164285D01*
X131850000Y-127107142D01*
X131821428Y-127021428D01*
X131821428Y-126964285D01*
X131850000Y-126878571D01*
X131878571Y-126850000D01*
X131878571Y-126621428D02*
X131850000Y-126592857D01*
X131821428Y-126535714D01*
X131821428Y-126392857D01*
X131850000Y-126335714D01*
X131878571Y-126307142D01*
X131935714Y-126278571D01*
X131992857Y-126278571D01*
X132078571Y-126307142D01*
X132421428Y-126650000D01*
X132421428Y-126278571D01*
X133871428Y-124857142D02*
X133871428Y-125200000D01*
X133871428Y-125028571D02*
X133271428Y-125028571D01*
X133357142Y-125085714D01*
X133414285Y-125142857D01*
X133442857Y-125200000D01*
X133471428Y-124342857D02*
X133871428Y-124342857D01*
X133471428Y-124600000D02*
X133785714Y-124600000D01*
X133842857Y-124571428D01*
X133871428Y-124514285D01*
X133871428Y-124428571D01*
X133842857Y-124371428D01*
X133814285Y-124342857D01*
X133557142Y-123857142D02*
X133557142Y-124057142D01*
X133871428Y-124057142D02*
X133271428Y-124057142D01*
X133271428Y-123771428D01*
X134944285Y-134518160D02*
X134972857Y-134546731D01*
X135001428Y-134632445D01*
X135001428Y-134689588D01*
X134972857Y-134775302D01*
X134915714Y-134832445D01*
X134858571Y-134861017D01*
X134744285Y-134889588D01*
X134658571Y-134889588D01*
X134544285Y-134861017D01*
X134487142Y-134832445D01*
X134430000Y-134775302D01*
X134401428Y-134689588D01*
X134401428Y-134632445D01*
X134430000Y-134546731D01*
X134458571Y-134518160D01*
X134401428Y-134318160D02*
X134401428Y-133946731D01*
X134630000Y-134146731D01*
X134630000Y-134061017D01*
X134658571Y-134003874D01*
X134687142Y-133975302D01*
X134744285Y-133946731D01*
X134887142Y-133946731D01*
X134944285Y-133975302D01*
X134972857Y-134003874D01*
X135001428Y-134061017D01*
X135001428Y-134232445D01*
X134972857Y-134289588D01*
X134944285Y-134318160D01*
X132501428Y-134775302D02*
X132501428Y-135118160D01*
X132501428Y-134946731D02*
X131901428Y-134946731D01*
X131987142Y-135003874D01*
X132044285Y-135061017D01*
X132072857Y-135118160D01*
X132101428Y-134261017D02*
X132501428Y-134261017D01*
X132101428Y-134518160D02*
X132415714Y-134518160D01*
X132472857Y-134489588D01*
X132501428Y-134432445D01*
X132501428Y-134346731D01*
X132472857Y-134289588D01*
X132444285Y-134261017D01*
X132187142Y-133775302D02*
X132187142Y-133975302D01*
X132501428Y-133975302D02*
X131901428Y-133975302D01*
X131901428Y-133689588D01*
X140914285Y-106700000D02*
X140942857Y-106728571D01*
X140971428Y-106814285D01*
X140971428Y-106871428D01*
X140942857Y-106957142D01*
X140885714Y-107014285D01*
X140828571Y-107042857D01*
X140714285Y-107071428D01*
X140628571Y-107071428D01*
X140514285Y-107042857D01*
X140457142Y-107014285D01*
X140400000Y-106957142D01*
X140371428Y-106871428D01*
X140371428Y-106814285D01*
X140400000Y-106728571D01*
X140428571Y-106700000D01*
X140571428Y-106185714D02*
X140971428Y-106185714D01*
X140342857Y-106328571D02*
X140771428Y-106471428D01*
X140771428Y-106100000D01*
X140841428Y-108647142D02*
X140841428Y-108990000D01*
X140841428Y-108818571D02*
X140241428Y-108818571D01*
X140327142Y-108875714D01*
X140384285Y-108932857D01*
X140412857Y-108990000D01*
X140441428Y-108132857D02*
X140841428Y-108132857D01*
X140441428Y-108390000D02*
X140755714Y-108390000D01*
X140812857Y-108361428D01*
X140841428Y-108304285D01*
X140841428Y-108218571D01*
X140812857Y-108161428D01*
X140784285Y-108132857D01*
X140527142Y-107647142D02*
X140527142Y-107847142D01*
X140841428Y-107847142D02*
X140241428Y-107847142D01*
X140241428Y-107561428D01*
X145801840Y-116604285D02*
X145773268Y-116632857D01*
X145687554Y-116661428D01*
X145630411Y-116661428D01*
X145544697Y-116632857D01*
X145487554Y-116575714D01*
X145458982Y-116518571D01*
X145430411Y-116404285D01*
X145430411Y-116318571D01*
X145458982Y-116204285D01*
X145487554Y-116147142D01*
X145544697Y-116090000D01*
X145630411Y-116061428D01*
X145687554Y-116061428D01*
X145773268Y-116090000D01*
X145801840Y-116118571D01*
X146344697Y-116061428D02*
X146058982Y-116061428D01*
X146030411Y-116347142D01*
X146058982Y-116318571D01*
X146116125Y-116290000D01*
X146258982Y-116290000D01*
X146316125Y-116318571D01*
X146344697Y-116347142D01*
X146373268Y-116404285D01*
X146373268Y-116547142D01*
X146344697Y-116604285D01*
X146316125Y-116632857D01*
X146258982Y-116661428D01*
X146116125Y-116661428D01*
X146058982Y-116632857D01*
X146030411Y-116604285D01*
X143528571Y-117228571D02*
X143557142Y-117200000D01*
X143614285Y-117171428D01*
X143757142Y-117171428D01*
X143814285Y-117200000D01*
X143842857Y-117228571D01*
X143871428Y-117285714D01*
X143871428Y-117342857D01*
X143842857Y-117428571D01*
X143500000Y-117771428D01*
X143871428Y-117771428D01*
X144100000Y-117228571D02*
X144128571Y-117200000D01*
X144185714Y-117171428D01*
X144328571Y-117171428D01*
X144385714Y-117200000D01*
X144414285Y-117228571D01*
X144442857Y-117285714D01*
X144442857Y-117342857D01*
X144414285Y-117428571D01*
X144071428Y-117771428D01*
X144442857Y-117771428D01*
X144814285Y-117171428D02*
X144871428Y-117171428D01*
X144928571Y-117200000D01*
X144957142Y-117228571D01*
X144985714Y-117285714D01*
X145014285Y-117400000D01*
X145014285Y-117542857D01*
X144985714Y-117657142D01*
X144957142Y-117714285D01*
X144928571Y-117742857D01*
X144871428Y-117771428D01*
X144814285Y-117771428D01*
X144757142Y-117742857D01*
X144728571Y-117714285D01*
X144700000Y-117657142D01*
X144671428Y-117542857D01*
X144671428Y-117400000D01*
X144700000Y-117285714D01*
X144728571Y-117228571D01*
X144757142Y-117200000D01*
X144814285Y-117171428D01*
X145271428Y-117371428D02*
X145271428Y-117971428D01*
X145271428Y-117400000D02*
X145328571Y-117371428D01*
X145442857Y-117371428D01*
X145500000Y-117400000D01*
X145528571Y-117428571D01*
X145557142Y-117485714D01*
X145557142Y-117657142D01*
X145528571Y-117714285D01*
X145500000Y-117742857D01*
X145442857Y-117771428D01*
X145328571Y-117771428D01*
X145271428Y-117742857D01*
X146014285Y-117457142D02*
X145814285Y-117457142D01*
X145814285Y-117771428D02*
X145814285Y-117171428D01*
X146100000Y-117171428D01*
X141970000Y-114074285D02*
X141941428Y-114102857D01*
X141855714Y-114131428D01*
X141798571Y-114131428D01*
X141712857Y-114102857D01*
X141655714Y-114045714D01*
X141627142Y-113988571D01*
X141598571Y-113874285D01*
X141598571Y-113788571D01*
X141627142Y-113674285D01*
X141655714Y-113617142D01*
X141712857Y-113560000D01*
X141798571Y-113531428D01*
X141855714Y-113531428D01*
X141941428Y-113560000D01*
X141970000Y-113588571D01*
X142484285Y-113531428D02*
X142370000Y-113531428D01*
X142312857Y-113560000D01*
X142284285Y-113588571D01*
X142227142Y-113674285D01*
X142198571Y-113788571D01*
X142198571Y-114017142D01*
X142227142Y-114074285D01*
X142255714Y-114102857D01*
X142312857Y-114131428D01*
X142427142Y-114131428D01*
X142484285Y-114102857D01*
X142512857Y-114074285D01*
X142541428Y-114017142D01*
X142541428Y-113874285D01*
X142512857Y-113817142D01*
X142484285Y-113788571D01*
X142427142Y-113760000D01*
X142312857Y-113760000D01*
X142255714Y-113788571D01*
X142227142Y-113817142D01*
X142198571Y-113874285D01*
X140798571Y-116088571D02*
X140827142Y-116060000D01*
X140884285Y-116031428D01*
X141027142Y-116031428D01*
X141084285Y-116060000D01*
X141112857Y-116088571D01*
X141141428Y-116145714D01*
X141141428Y-116202857D01*
X141112857Y-116288571D01*
X140770000Y-116631428D01*
X141141428Y-116631428D01*
X141370000Y-116088571D02*
X141398571Y-116060000D01*
X141455714Y-116031428D01*
X141598571Y-116031428D01*
X141655714Y-116060000D01*
X141684285Y-116088571D01*
X141712857Y-116145714D01*
X141712857Y-116202857D01*
X141684285Y-116288571D01*
X141341428Y-116631428D01*
X141712857Y-116631428D01*
X142084285Y-116031428D02*
X142141428Y-116031428D01*
X142198571Y-116060000D01*
X142227142Y-116088571D01*
X142255714Y-116145714D01*
X142284285Y-116260000D01*
X142284285Y-116402857D01*
X142255714Y-116517142D01*
X142227142Y-116574285D01*
X142198571Y-116602857D01*
X142141428Y-116631428D01*
X142084285Y-116631428D01*
X142027142Y-116602857D01*
X141998571Y-116574285D01*
X141970000Y-116517142D01*
X141941428Y-116402857D01*
X141941428Y-116260000D01*
X141970000Y-116145714D01*
X141998571Y-116088571D01*
X142027142Y-116060000D01*
X142084285Y-116031428D01*
X142541428Y-116231428D02*
X142541428Y-116831428D01*
X142541428Y-116260000D02*
X142598571Y-116231428D01*
X142712857Y-116231428D01*
X142770000Y-116260000D01*
X142798571Y-116288571D01*
X142827142Y-116345714D01*
X142827142Y-116517142D01*
X142798571Y-116574285D01*
X142770000Y-116602857D01*
X142712857Y-116631428D01*
X142598571Y-116631428D01*
X142541428Y-116602857D01*
X143284285Y-116317142D02*
X143084285Y-116317142D01*
X143084285Y-116631428D02*
X143084285Y-116031428D01*
X143370000Y-116031428D01*
X138161840Y-112357142D02*
X137961840Y-112357142D01*
X137961840Y-112671428D02*
X137961840Y-112071428D01*
X138247554Y-112071428D01*
X138676125Y-112357142D02*
X138761840Y-112385714D01*
X138790411Y-112414285D01*
X138818982Y-112471428D01*
X138818982Y-112557142D01*
X138790411Y-112614285D01*
X138761840Y-112642857D01*
X138704697Y-112671428D01*
X138476125Y-112671428D01*
X138476125Y-112071428D01*
X138676125Y-112071428D01*
X138733268Y-112100000D01*
X138761840Y-112128571D01*
X138790411Y-112185714D01*
X138790411Y-112242857D01*
X138761840Y-112300000D01*
X138733268Y-112328571D01*
X138676125Y-112357142D01*
X138476125Y-112357142D01*
X139390411Y-112671428D02*
X139047554Y-112671428D01*
X139218982Y-112671428D02*
X139218982Y-112071428D01*
X139161840Y-112157142D01*
X139104697Y-112214285D01*
X139047554Y-112242857D01*
X138101840Y-104907142D02*
X137901840Y-104907142D01*
X137901840Y-105221428D02*
X137901840Y-104621428D01*
X138187554Y-104621428D01*
X138616125Y-104907142D02*
X138701840Y-104935714D01*
X138730411Y-104964285D01*
X138758982Y-105021428D01*
X138758982Y-105107142D01*
X138730411Y-105164285D01*
X138701840Y-105192857D01*
X138644697Y-105221428D01*
X138416125Y-105221428D01*
X138416125Y-104621428D01*
X138616125Y-104621428D01*
X138673268Y-104650000D01*
X138701840Y-104678571D01*
X138730411Y-104735714D01*
X138730411Y-104792857D01*
X138701840Y-104850000D01*
X138673268Y-104878571D01*
X138616125Y-104907142D01*
X138416125Y-104907142D01*
X138987554Y-104678571D02*
X139016125Y-104650000D01*
X139073268Y-104621428D01*
X139216125Y-104621428D01*
X139273268Y-104650000D01*
X139301840Y-104678571D01*
X139330411Y-104735714D01*
X139330411Y-104792857D01*
X139301840Y-104878571D01*
X138958982Y-105221428D01*
X139330411Y-105221428D01*
D12*
X131692000Y-102615428D02*
X131692000Y-103704000D01*
X131619428Y-103921714D01*
X131474285Y-104066857D01*
X131256571Y-104139428D01*
X131111428Y-104139428D01*
X132345142Y-102760571D02*
X132417714Y-102688000D01*
X132562857Y-102615428D01*
X132925714Y-102615428D01*
X133070857Y-102688000D01*
X133143428Y-102760571D01*
X133216000Y-102905714D01*
X133216000Y-103050857D01*
X133143428Y-103268571D01*
X132272571Y-104139428D01*
X133216000Y-104139428D01*
D25*
X136296000Y-112632714D02*
X136296000Y-113177000D01*
X136259714Y-113285857D01*
X136187142Y-113358428D01*
X136078285Y-113394714D01*
X136005714Y-113394714D01*
X136586285Y-112632714D02*
X137058000Y-112632714D01*
X136804000Y-112923000D01*
X136912857Y-112923000D01*
X136985428Y-112959285D01*
X137021714Y-112995571D01*
X137058000Y-113068142D01*
X137058000Y-113249571D01*
X137021714Y-113322142D01*
X136985428Y-113358428D01*
X136912857Y-113394714D01*
X136695142Y-113394714D01*
X136622571Y-113358428D01*
X136586285Y-113322142D01*
D18*
X118170000Y-124001428D02*
X117970000Y-123715714D01*
X117827142Y-124001428D02*
X117827142Y-123401428D01*
X118055714Y-123401428D01*
X118112857Y-123430000D01*
X118141428Y-123458571D01*
X118170000Y-123515714D01*
X118170000Y-123601428D01*
X118141428Y-123658571D01*
X118112857Y-123687142D01*
X118055714Y-123715714D01*
X117827142Y-123715714D01*
X118741428Y-124001428D02*
X118398571Y-124001428D01*
X118570000Y-124001428D02*
X118570000Y-123401428D01*
X118512857Y-123487142D01*
X118455714Y-123544285D01*
X118398571Y-123572857D01*
X117970000Y-126501428D02*
X117627142Y-126501428D01*
X117798571Y-126501428D02*
X117798571Y-125901428D01*
X117741428Y-125987142D01*
X117684285Y-126044285D01*
X117627142Y-126072857D01*
X118341428Y-125901428D02*
X118398571Y-125901428D01*
X118455714Y-125930000D01*
X118484285Y-125958571D01*
X118512857Y-126015714D01*
X118541428Y-126130000D01*
X118541428Y-126272857D01*
X118512857Y-126387142D01*
X118484285Y-126444285D01*
X118455714Y-126472857D01*
X118398571Y-126501428D01*
X118341428Y-126501428D01*
X118284285Y-126472857D01*
X118255714Y-126444285D01*
X118227142Y-126387142D01*
X118198571Y-126272857D01*
X118198571Y-126130000D01*
X118227142Y-126015714D01*
X118255714Y-125958571D01*
X118284285Y-125930000D01*
X118341428Y-125901428D01*
X118912857Y-125901428D02*
X118970000Y-125901428D01*
X119027142Y-125930000D01*
X119055714Y-125958571D01*
X119084285Y-126015714D01*
X119112857Y-126130000D01*
X119112857Y-126272857D01*
X119084285Y-126387142D01*
X119055714Y-126444285D01*
X119027142Y-126472857D01*
X118970000Y-126501428D01*
X118912857Y-126501428D01*
X118855714Y-126472857D01*
X118827142Y-126444285D01*
X118798571Y-126387142D01*
X118770000Y-126272857D01*
X118770000Y-126130000D01*
X118798571Y-126015714D01*
X118827142Y-125958571D01*
X118855714Y-125930000D01*
X118912857Y-125901428D01*
X119571428Y-121850000D02*
X119285714Y-122050000D01*
X119571428Y-122192857D02*
X118971428Y-122192857D01*
X118971428Y-121964285D01*
X119000000Y-121907142D01*
X119028571Y-121878571D01*
X119085714Y-121850000D01*
X119171428Y-121850000D01*
X119228571Y-121878571D01*
X119257142Y-121907142D01*
X119285714Y-121964285D01*
X119285714Y-122192857D01*
X119028571Y-121621428D02*
X119000000Y-121592857D01*
X118971428Y-121535714D01*
X118971428Y-121392857D01*
X119000000Y-121335714D01*
X119028571Y-121307142D01*
X119085714Y-121278571D01*
X119142857Y-121278571D01*
X119228571Y-121307142D01*
X119571428Y-121650000D01*
X119571428Y-121278571D01*
X117071428Y-122492857D02*
X117071428Y-122835714D01*
X117071428Y-122664285D02*
X116471428Y-122664285D01*
X116557142Y-122721428D01*
X116614285Y-122778571D01*
X116642857Y-122835714D01*
X116471428Y-122121428D02*
X116471428Y-122064285D01*
X116500000Y-122007142D01*
X116528571Y-121978571D01*
X116585714Y-121950000D01*
X116700000Y-121921428D01*
X116842857Y-121921428D01*
X116957142Y-121950000D01*
X117014285Y-121978571D01*
X117042857Y-122007142D01*
X117071428Y-122064285D01*
X117071428Y-122121428D01*
X117042857Y-122178571D01*
X117014285Y-122207142D01*
X116957142Y-122235714D01*
X116842857Y-122264285D01*
X116700000Y-122264285D01*
X116585714Y-122235714D01*
X116528571Y-122207142D01*
X116500000Y-122178571D01*
X116471428Y-122121428D01*
X116471428Y-121550000D02*
X116471428Y-121492857D01*
X116500000Y-121435714D01*
X116528571Y-121407142D01*
X116585714Y-121378571D01*
X116700000Y-121350000D01*
X116842857Y-121350000D01*
X116957142Y-121378571D01*
X117014285Y-121407142D01*
X117042857Y-121435714D01*
X117071428Y-121492857D01*
X117071428Y-121550000D01*
X117042857Y-121607142D01*
X117014285Y-121635714D01*
X116957142Y-121664285D01*
X116842857Y-121692857D01*
X116700000Y-121692857D01*
X116585714Y-121664285D01*
X116528571Y-121635714D01*
X116500000Y-121607142D01*
X116471428Y-121550000D01*
X117071428Y-121092857D02*
X116471428Y-121092857D01*
X116842857Y-121035714D02*
X117071428Y-120864285D01*
X116671428Y-120864285D02*
X116900000Y-121092857D01*
X130250000Y-125321428D02*
X130050000Y-125035714D01*
X129907142Y-125321428D02*
X129907142Y-124721428D01*
X130135714Y-124721428D01*
X130192857Y-124750000D01*
X130221428Y-124778571D01*
X130250000Y-124835714D01*
X130250000Y-124921428D01*
X130221428Y-124978571D01*
X130192857Y-125007142D01*
X130135714Y-125035714D01*
X129907142Y-125035714D01*
X130450000Y-124721428D02*
X130821428Y-124721428D01*
X130621428Y-124950000D01*
X130707142Y-124950000D01*
X130764285Y-124978571D01*
X130792857Y-125007142D01*
X130821428Y-125064285D01*
X130821428Y-125207142D01*
X130792857Y-125264285D01*
X130764285Y-125292857D01*
X130707142Y-125321428D01*
X130535714Y-125321428D01*
X130478571Y-125292857D01*
X130450000Y-125264285D01*
X127642857Y-126871428D02*
X127300000Y-126871428D01*
X127471428Y-126871428D02*
X127471428Y-126271428D01*
X127414285Y-126357142D01*
X127357142Y-126414285D01*
X127300000Y-126442857D01*
X128014285Y-126271428D02*
X128071428Y-126271428D01*
X128128571Y-126300000D01*
X128157142Y-126328571D01*
X128185714Y-126385714D01*
X128214285Y-126500000D01*
X128214285Y-126642857D01*
X128185714Y-126757142D01*
X128157142Y-126814285D01*
X128128571Y-126842857D01*
X128071428Y-126871428D01*
X128014285Y-126871428D01*
X127957142Y-126842857D01*
X127928571Y-126814285D01*
X127900000Y-126757142D01*
X127871428Y-126642857D01*
X127871428Y-126500000D01*
X127900000Y-126385714D01*
X127928571Y-126328571D01*
X127957142Y-126300000D01*
X128014285Y-126271428D01*
X128471428Y-126871428D02*
X128471428Y-126271428D01*
X128528571Y-126642857D02*
X128700000Y-126871428D01*
X128700000Y-126471428D02*
X128471428Y-126700000D01*
X130846428Y-123275000D02*
X130560714Y-123475000D01*
X130846428Y-123617857D02*
X130246428Y-123617857D01*
X130246428Y-123389285D01*
X130275000Y-123332142D01*
X130303571Y-123303571D01*
X130360714Y-123275000D01*
X130446428Y-123275000D01*
X130503571Y-123303571D01*
X130532142Y-123332142D01*
X130560714Y-123389285D01*
X130560714Y-123617857D01*
X130446428Y-122760714D02*
X130846428Y-122760714D01*
X130217857Y-122903571D02*
X130646428Y-123046428D01*
X130646428Y-122675000D01*
X128346428Y-123917857D02*
X128346428Y-124260714D01*
X128346428Y-124089285D02*
X127746428Y-124089285D01*
X127832142Y-124146428D01*
X127889285Y-124203571D01*
X127917857Y-124260714D01*
X127746428Y-123546428D02*
X127746428Y-123489285D01*
X127775000Y-123432142D01*
X127803571Y-123403571D01*
X127860714Y-123375000D01*
X127975000Y-123346428D01*
X128117857Y-123346428D01*
X128232142Y-123375000D01*
X128289285Y-123403571D01*
X128317857Y-123432142D01*
X128346428Y-123489285D01*
X128346428Y-123546428D01*
X128317857Y-123603571D01*
X128289285Y-123632142D01*
X128232142Y-123660714D01*
X128117857Y-123689285D01*
X127975000Y-123689285D01*
X127860714Y-123660714D01*
X127803571Y-123632142D01*
X127775000Y-123603571D01*
X127746428Y-123546428D01*
X127746428Y-122975000D02*
X127746428Y-122917857D01*
X127775000Y-122860714D01*
X127803571Y-122832142D01*
X127860714Y-122803571D01*
X127975000Y-122775000D01*
X128117857Y-122775000D01*
X128232142Y-122803571D01*
X128289285Y-122832142D01*
X128317857Y-122860714D01*
X128346428Y-122917857D01*
X128346428Y-122975000D01*
X128317857Y-123032142D01*
X128289285Y-123060714D01*
X128232142Y-123089285D01*
X128117857Y-123117857D01*
X127975000Y-123117857D01*
X127860714Y-123089285D01*
X127803571Y-123060714D01*
X127775000Y-123032142D01*
X127746428Y-122975000D01*
X128346428Y-122517857D02*
X127746428Y-122517857D01*
X128117857Y-122460714D02*
X128346428Y-122289285D01*
X127946428Y-122289285D02*
X128175000Y-122517857D01*
X136171428Y-130300000D02*
X135885714Y-130500000D01*
X136171428Y-130642857D02*
X135571428Y-130642857D01*
X135571428Y-130414285D01*
X135600000Y-130357142D01*
X135628571Y-130328571D01*
X135685714Y-130300000D01*
X135771428Y-130300000D01*
X135828571Y-130328571D01*
X135857142Y-130357142D01*
X135885714Y-130414285D01*
X135885714Y-130642857D01*
X135571428Y-129757142D02*
X135571428Y-130042857D01*
X135857142Y-130071428D01*
X135828571Y-130042857D01*
X135800000Y-129985714D01*
X135800000Y-129842857D01*
X135828571Y-129785714D01*
X135857142Y-129757142D01*
X135914285Y-129728571D01*
X136057142Y-129728571D01*
X136114285Y-129757142D01*
X136142857Y-129785714D01*
X136171428Y-129842857D01*
X136171428Y-129985714D01*
X136142857Y-130042857D01*
X136114285Y-130071428D01*
X136971428Y-131128571D02*
X136971428Y-131471428D01*
X136971428Y-131300000D02*
X136371428Y-131300000D01*
X136457142Y-131357142D01*
X136514285Y-131414285D01*
X136542857Y-131471428D01*
X136971428Y-130871428D02*
X136371428Y-130871428D01*
X136971428Y-130528571D02*
X136628571Y-130785714D01*
X136371428Y-130528571D02*
X136714285Y-130871428D01*
X132441840Y-129321428D02*
X132241840Y-129035714D01*
X132098982Y-129321428D02*
X132098982Y-128721428D01*
X132327554Y-128721428D01*
X132384697Y-128750000D01*
X132413268Y-128778571D01*
X132441840Y-128835714D01*
X132441840Y-128921428D01*
X132413268Y-128978571D01*
X132384697Y-129007142D01*
X132327554Y-129035714D01*
X132098982Y-129035714D01*
X132956125Y-128721428D02*
X132841840Y-128721428D01*
X132784697Y-128750000D01*
X132756125Y-128778571D01*
X132698982Y-128864285D01*
X132670411Y-128978571D01*
X132670411Y-129207142D01*
X132698982Y-129264285D01*
X132727554Y-129292857D01*
X132784697Y-129321428D01*
X132898982Y-129321428D01*
X132956125Y-129292857D01*
X132984697Y-129264285D01*
X133013268Y-129207142D01*
X133013268Y-129064285D01*
X132984697Y-129007142D01*
X132956125Y-128978571D01*
X132898982Y-128950000D01*
X132784697Y-128950000D01*
X132727554Y-128978571D01*
X132698982Y-129007142D01*
X132670411Y-129064285D01*
X132241840Y-131821428D02*
X131898982Y-131821428D01*
X132070411Y-131821428D02*
X132070411Y-131221428D01*
X132013268Y-131307142D01*
X131956125Y-131364285D01*
X131898982Y-131392857D01*
X132613268Y-131221428D02*
X132670411Y-131221428D01*
X132727554Y-131250000D01*
X132756125Y-131278571D01*
X132784697Y-131335714D01*
X132813268Y-131450000D01*
X132813268Y-131592857D01*
X132784697Y-131707142D01*
X132756125Y-131764285D01*
X132727554Y-131792857D01*
X132670411Y-131821428D01*
X132613268Y-131821428D01*
X132556125Y-131792857D01*
X132527554Y-131764285D01*
X132498982Y-131707142D01*
X132470411Y-131592857D01*
X132470411Y-131450000D01*
X132498982Y-131335714D01*
X132527554Y-131278571D01*
X132556125Y-131250000D01*
X132613268Y-131221428D01*
X133184697Y-131221428D02*
X133241840Y-131221428D01*
X133298982Y-131250000D01*
X133327554Y-131278571D01*
X133356125Y-131335714D01*
X133384697Y-131450000D01*
X133384697Y-131592857D01*
X133356125Y-131707142D01*
X133327554Y-131764285D01*
X133298982Y-131792857D01*
X133241840Y-131821428D01*
X133184697Y-131821428D01*
X133127554Y-131792857D01*
X133098982Y-131764285D01*
X133070411Y-131707142D01*
X133041840Y-131592857D01*
X133041840Y-131450000D01*
X133070411Y-131335714D01*
X133098982Y-131278571D01*
X133127554Y-131250000D01*
X133184697Y-131221428D01*
X125538095Y-126402380D02*
X125538095Y-127211904D01*
X125585714Y-127307142D01*
X125633333Y-127354761D01*
X125728571Y-127402380D01*
X125919047Y-127402380D01*
X126014285Y-127354761D01*
X126061904Y-127307142D01*
X126109523Y-127211904D01*
X126109523Y-126402380D01*
X127109523Y-127402380D02*
X126538095Y-127402380D01*
X126823809Y-127402380D02*
X126823809Y-126402380D01*
X126728571Y-126545238D01*
X126633333Y-126640476D01*
X126538095Y-126688095D01*
D25*
X140946000Y-120382714D02*
X140946000Y-120927000D01*
X140909714Y-121035857D01*
X140837142Y-121108428D01*
X140728285Y-121144714D01*
X140655714Y-121144714D01*
X141236285Y-120382714D02*
X141744285Y-120382714D01*
X141417714Y-121144714D01*
X127196000Y-117682714D02*
X127196000Y-118227000D01*
X127159714Y-118335857D01*
X127087142Y-118408428D01*
X126978285Y-118444714D01*
X126905714Y-118444714D01*
X127667714Y-118009285D02*
X127595142Y-117973000D01*
X127558857Y-117936714D01*
X127522571Y-117864142D01*
X127522571Y-117827857D01*
X127558857Y-117755285D01*
X127595142Y-117719000D01*
X127667714Y-117682714D01*
X127812857Y-117682714D01*
X127885428Y-117719000D01*
X127921714Y-117755285D01*
X127958000Y-117827857D01*
X127958000Y-117864142D01*
X127921714Y-117936714D01*
X127885428Y-117973000D01*
X127812857Y-118009285D01*
X127667714Y-118009285D01*
X127595142Y-118045571D01*
X127558857Y-118081857D01*
X127522571Y-118154428D01*
X127522571Y-118299571D01*
X127558857Y-118372142D01*
X127595142Y-118408428D01*
X127667714Y-118444714D01*
X127812857Y-118444714D01*
X127885428Y-118408428D01*
X127921714Y-118372142D01*
X127958000Y-118299571D01*
X127958000Y-118154428D01*
X127921714Y-118081857D01*
X127885428Y-118045571D01*
X127812857Y-118009285D01*
X119288714Y-115932714D02*
X119288714Y-116477000D01*
X119252428Y-116585857D01*
X119179857Y-116658428D01*
X119071000Y-116694714D01*
X118998428Y-116694714D01*
X119651571Y-115932714D02*
X119651571Y-116549571D01*
X119687857Y-116622142D01*
X119724142Y-116658428D01*
X119796714Y-116694714D01*
X119941857Y-116694714D01*
X120014428Y-116658428D01*
X120050714Y-116622142D01*
X120087000Y-116549571D01*
X120087000Y-115932714D01*
X120449857Y-116694714D02*
X120449857Y-115932714D01*
X120703857Y-116477000D01*
X120957857Y-115932714D01*
X120957857Y-116694714D01*
X121320714Y-116694714D02*
X121320714Y-115932714D01*
X121611000Y-115932714D01*
X121683571Y-115969000D01*
X121719857Y-116005285D01*
X121756142Y-116077857D01*
X121756142Y-116186714D01*
X121719857Y-116259285D01*
X121683571Y-116295571D01*
X121611000Y-116331857D01*
X121320714Y-116331857D01*
X122082714Y-116295571D02*
X122336714Y-116295571D01*
X122445571Y-116694714D02*
X122082714Y-116694714D01*
X122082714Y-115932714D01*
X122445571Y-115932714D01*
X123207571Y-116694714D02*
X122953571Y-116331857D01*
X122772142Y-116694714D02*
X122772142Y-115932714D01*
X123062428Y-115932714D01*
X123135000Y-115969000D01*
X123171285Y-116005285D01*
X123207571Y-116077857D01*
X123207571Y-116186714D01*
X123171285Y-116259285D01*
X123135000Y-116295571D01*
X123062428Y-116331857D01*
X122772142Y-116331857D01*
X123352714Y-116767285D02*
X123933285Y-116767285D01*
X124042142Y-115932714D02*
X124513857Y-115932714D01*
X124259857Y-116223000D01*
X124368714Y-116223000D01*
X124441285Y-116259285D01*
X124477571Y-116295571D01*
X124513857Y-116368142D01*
X124513857Y-116549571D01*
X124477571Y-116622142D01*
X124441285Y-116658428D01*
X124368714Y-116694714D01*
X124151000Y-116694714D01*
X124078428Y-116658428D01*
X124042142Y-116622142D01*
X124767857Y-115932714D02*
X125275857Y-116694714D01*
X125275857Y-115932714D02*
X124767857Y-116694714D01*
X125965285Y-116694714D02*
X125529857Y-116694714D01*
X125747571Y-116694714D02*
X125747571Y-115932714D01*
X125675000Y-116041571D01*
X125602428Y-116114142D01*
X125529857Y-116150428D01*
M02*
