G04 #@! TF.GenerationSoftware,KiCad,Pcbnew,5.1.5-52549c5~86~ubuntu18.04.1*
G04 #@! TF.CreationDate,2020-09-23T21:30:46-07:00*
G04 #@! TF.ProjectId,heat2sound_rx_and_tx_rev02,68656174-3273-46f7-956e-645f72785f61,rev?*
G04 #@! TF.SameCoordinates,Original*
G04 #@! TF.FileFunction,Paste,Top*
G04 #@! TF.FilePolarity,Positive*
%FSLAX46Y46*%
G04 Gerber Fmt 4.6, Leading zero omitted, Abs format (unit mm)*
G04 Created by KiCad (PCBNEW 5.1.5-52549c5~86~ubuntu18.04.1) date 2020-09-23 21:30:46*
%MOMM*%
%LPD*%
G04 APERTURE LIST*
%ADD10R,1.000000X0.900000*%
%ADD11R,1.000760X0.899160*%
%ADD12R,1.600000X0.550000*%
%ADD13R,0.550000X1.600000*%
%ADD14R,0.800000X1.000000*%
%ADD15C,0.100000*%
%ADD16R,0.899160X1.000760*%
%ADD17R,0.800100X0.800100*%
%ADD18R,1.998980X1.998980*%
%ADD19C,5.700000*%
%ADD20R,2.700000X3.500000*%
%ADD21R,1.597660X1.800860*%
%ADD22R,0.900000X1.000000*%
%ADD23R,1.550000X0.600000*%
G04 APERTURE END LIST*
D10*
X93900000Y-116096320D03*
D11*
X93900000Y-117600000D03*
D12*
X103000000Y-122950000D03*
X103000000Y-123750000D03*
X103000000Y-124550000D03*
X103000000Y-125350000D03*
X103000000Y-126150000D03*
X103000000Y-126950000D03*
X103000000Y-127750000D03*
X103000000Y-128550000D03*
D13*
X101550000Y-130000000D03*
X100750000Y-130000000D03*
X99950000Y-130000000D03*
X99150000Y-130000000D03*
X98350000Y-130000000D03*
X97550000Y-130000000D03*
X96750000Y-130000000D03*
X95950000Y-130000000D03*
D12*
X94500000Y-128550000D03*
X94500000Y-127750000D03*
X94500000Y-126950000D03*
X94500000Y-126150000D03*
X94500000Y-125350000D03*
X94500000Y-124550000D03*
X94500000Y-123750000D03*
X94500000Y-122950000D03*
D13*
X95950000Y-121500000D03*
X96750000Y-121500000D03*
X97550000Y-121500000D03*
X98350000Y-121500000D03*
X99150000Y-121500000D03*
X99950000Y-121500000D03*
X100750000Y-121500000D03*
X101550000Y-121500000D03*
D14*
X95500000Y-115750000D03*
X95500000Y-117750000D03*
X97000000Y-115750000D03*
X97000000Y-117750000D03*
D15*
G36*
X105316266Y-99576782D02*
G01*
X105352183Y-99582109D01*
X105387405Y-99590932D01*
X105421593Y-99603165D01*
X105454417Y-99618689D01*
X105485561Y-99637356D01*
X105514726Y-99658986D01*
X105541630Y-99683370D01*
X105566014Y-99710274D01*
X105587644Y-99739439D01*
X105606311Y-99770583D01*
X105621835Y-99803407D01*
X105634068Y-99837595D01*
X105642891Y-99872817D01*
X105648218Y-99908734D01*
X105650000Y-99945000D01*
X105650000Y-102555000D01*
X105648218Y-102591266D01*
X105642891Y-102627183D01*
X105634068Y-102662405D01*
X105621835Y-102696593D01*
X105606311Y-102729417D01*
X105587644Y-102760561D01*
X105566014Y-102789726D01*
X105541630Y-102816630D01*
X105514726Y-102841014D01*
X105485561Y-102862644D01*
X105454417Y-102881311D01*
X105421593Y-102896835D01*
X105387405Y-102909068D01*
X105352183Y-102917891D01*
X105316266Y-102923218D01*
X105280000Y-102925000D01*
X104020000Y-102925000D01*
X103983734Y-102923218D01*
X103947817Y-102917891D01*
X103912595Y-102909068D01*
X103878407Y-102896835D01*
X103845583Y-102881311D01*
X103814439Y-102862644D01*
X103785274Y-102841014D01*
X103758370Y-102816630D01*
X103733986Y-102789726D01*
X103712356Y-102760561D01*
X103693689Y-102729417D01*
X103678165Y-102696593D01*
X103665932Y-102662405D01*
X103657109Y-102627183D01*
X103651782Y-102591266D01*
X103650000Y-102555000D01*
X103650000Y-99945000D01*
X103651782Y-99908734D01*
X103657109Y-99872817D01*
X103665932Y-99837595D01*
X103678165Y-99803407D01*
X103693689Y-99770583D01*
X103712356Y-99739439D01*
X103733986Y-99710274D01*
X103758370Y-99683370D01*
X103785274Y-99658986D01*
X103814439Y-99637356D01*
X103845583Y-99618689D01*
X103878407Y-99603165D01*
X103912595Y-99590932D01*
X103947817Y-99582109D01*
X103983734Y-99576782D01*
X104020000Y-99575000D01*
X105280000Y-99575000D01*
X105316266Y-99576782D01*
G37*
G36*
X99516266Y-99576782D02*
G01*
X99552183Y-99582109D01*
X99587405Y-99590932D01*
X99621593Y-99603165D01*
X99654417Y-99618689D01*
X99685561Y-99637356D01*
X99714726Y-99658986D01*
X99741630Y-99683370D01*
X99766014Y-99710274D01*
X99787644Y-99739439D01*
X99806311Y-99770583D01*
X99821835Y-99803407D01*
X99834068Y-99837595D01*
X99842891Y-99872817D01*
X99848218Y-99908734D01*
X99850000Y-99945000D01*
X99850000Y-102555000D01*
X99848218Y-102591266D01*
X99842891Y-102627183D01*
X99834068Y-102662405D01*
X99821835Y-102696593D01*
X99806311Y-102729417D01*
X99787644Y-102760561D01*
X99766014Y-102789726D01*
X99741630Y-102816630D01*
X99714726Y-102841014D01*
X99685561Y-102862644D01*
X99654417Y-102881311D01*
X99621593Y-102896835D01*
X99587405Y-102909068D01*
X99552183Y-102917891D01*
X99516266Y-102923218D01*
X99480000Y-102925000D01*
X98220000Y-102925000D01*
X98183734Y-102923218D01*
X98147817Y-102917891D01*
X98112595Y-102909068D01*
X98078407Y-102896835D01*
X98045583Y-102881311D01*
X98014439Y-102862644D01*
X97985274Y-102841014D01*
X97958370Y-102816630D01*
X97933986Y-102789726D01*
X97912356Y-102760561D01*
X97893689Y-102729417D01*
X97878165Y-102696593D01*
X97865932Y-102662405D01*
X97857109Y-102627183D01*
X97851782Y-102591266D01*
X97850000Y-102555000D01*
X97850000Y-99945000D01*
X97851782Y-99908734D01*
X97857109Y-99872817D01*
X97865932Y-99837595D01*
X97878165Y-99803407D01*
X97893689Y-99770583D01*
X97912356Y-99739439D01*
X97933986Y-99710274D01*
X97958370Y-99683370D01*
X97985274Y-99658986D01*
X98014439Y-99637356D01*
X98045583Y-99618689D01*
X98078407Y-99603165D01*
X98112595Y-99590932D01*
X98147817Y-99582109D01*
X98183734Y-99576782D01*
X98220000Y-99575000D01*
X99480000Y-99575000D01*
X99516266Y-99576782D01*
G37*
D16*
X95501840Y-141250000D03*
X93998160Y-141250000D03*
X100548160Y-106300000D03*
X102051840Y-106300000D03*
D11*
X107300000Y-122948160D03*
X107300000Y-124451840D03*
D16*
X97001840Y-112750000D03*
X95498160Y-112750000D03*
D11*
X107300000Y-129051840D03*
X107300000Y-127548160D03*
D16*
X100248160Y-137500000D03*
X101751840Y-137500000D03*
D17*
X110000000Y-137250000D03*
X110950000Y-139250000D03*
X109050000Y-139250000D03*
D18*
X87350960Y-113915280D03*
X81249880Y-113915280D03*
X87350960Y-103089800D03*
X81249880Y-103089800D03*
D19*
X110000000Y-107750000D03*
D20*
X108650000Y-101400000D03*
X111350000Y-114100000D03*
D21*
X96669860Y-137250000D03*
X93830140Y-137250000D03*
D22*
X97748160Y-134000000D03*
D16*
X99251840Y-134000000D03*
D10*
X94800000Y-133148160D03*
D11*
X94800000Y-134651840D03*
D22*
X104998160Y-137250000D03*
D16*
X106501840Y-137250000D03*
D10*
X100400000Y-117551840D03*
D11*
X100400000Y-116048160D03*
X98700000Y-116048160D03*
D10*
X98700000Y-117551840D03*
D15*
G36*
X133247252Y-106925602D02*
G01*
X133259386Y-106927402D01*
X133271286Y-106930382D01*
X133282835Y-106934515D01*
X133293925Y-106939760D01*
X133304446Y-106946066D01*
X133314299Y-106953374D01*
X133323388Y-106961612D01*
X133331626Y-106970701D01*
X133338934Y-106980554D01*
X133345240Y-106991075D01*
X133350485Y-107002165D01*
X133354618Y-107013714D01*
X133357598Y-107025614D01*
X133359398Y-107037748D01*
X133360000Y-107050000D01*
X133360000Y-107300000D01*
X133359398Y-107312252D01*
X133357598Y-107324386D01*
X133354618Y-107336286D01*
X133350485Y-107347835D01*
X133345240Y-107358925D01*
X133338934Y-107369446D01*
X133331626Y-107379299D01*
X133323388Y-107388388D01*
X133314299Y-107396626D01*
X133304446Y-107403934D01*
X133293925Y-107410240D01*
X133282835Y-107415485D01*
X133271286Y-107419618D01*
X133259386Y-107422598D01*
X133247252Y-107424398D01*
X133235000Y-107425000D01*
X131860000Y-107425000D01*
X131847748Y-107424398D01*
X131835614Y-107422598D01*
X131823714Y-107419618D01*
X131812165Y-107415485D01*
X131801075Y-107410240D01*
X131790554Y-107403934D01*
X131780701Y-107396626D01*
X131771612Y-107388388D01*
X131763374Y-107379299D01*
X131756066Y-107369446D01*
X131749760Y-107358925D01*
X131744515Y-107347835D01*
X131740382Y-107336286D01*
X131737402Y-107324386D01*
X131735602Y-107312252D01*
X131735000Y-107300000D01*
X131735000Y-107050000D01*
X131735602Y-107037748D01*
X131737402Y-107025614D01*
X131740382Y-107013714D01*
X131744515Y-107002165D01*
X131749760Y-106991075D01*
X131756066Y-106980554D01*
X131763374Y-106970701D01*
X131771612Y-106961612D01*
X131780701Y-106953374D01*
X131790554Y-106946066D01*
X131801075Y-106939760D01*
X131812165Y-106934515D01*
X131823714Y-106930382D01*
X131835614Y-106927402D01*
X131847748Y-106925602D01*
X131860000Y-106925000D01*
X133235000Y-106925000D01*
X133247252Y-106925602D01*
G37*
G36*
X133247252Y-107575602D02*
G01*
X133259386Y-107577402D01*
X133271286Y-107580382D01*
X133282835Y-107584515D01*
X133293925Y-107589760D01*
X133304446Y-107596066D01*
X133314299Y-107603374D01*
X133323388Y-107611612D01*
X133331626Y-107620701D01*
X133338934Y-107630554D01*
X133345240Y-107641075D01*
X133350485Y-107652165D01*
X133354618Y-107663714D01*
X133357598Y-107675614D01*
X133359398Y-107687748D01*
X133360000Y-107700000D01*
X133360000Y-107950000D01*
X133359398Y-107962252D01*
X133357598Y-107974386D01*
X133354618Y-107986286D01*
X133350485Y-107997835D01*
X133345240Y-108008925D01*
X133338934Y-108019446D01*
X133331626Y-108029299D01*
X133323388Y-108038388D01*
X133314299Y-108046626D01*
X133304446Y-108053934D01*
X133293925Y-108060240D01*
X133282835Y-108065485D01*
X133271286Y-108069618D01*
X133259386Y-108072598D01*
X133247252Y-108074398D01*
X133235000Y-108075000D01*
X131860000Y-108075000D01*
X131847748Y-108074398D01*
X131835614Y-108072598D01*
X131823714Y-108069618D01*
X131812165Y-108065485D01*
X131801075Y-108060240D01*
X131790554Y-108053934D01*
X131780701Y-108046626D01*
X131771612Y-108038388D01*
X131763374Y-108029299D01*
X131756066Y-108019446D01*
X131749760Y-108008925D01*
X131744515Y-107997835D01*
X131740382Y-107986286D01*
X131737402Y-107974386D01*
X131735602Y-107962252D01*
X131735000Y-107950000D01*
X131735000Y-107700000D01*
X131735602Y-107687748D01*
X131737402Y-107675614D01*
X131740382Y-107663714D01*
X131744515Y-107652165D01*
X131749760Y-107641075D01*
X131756066Y-107630554D01*
X131763374Y-107620701D01*
X131771612Y-107611612D01*
X131780701Y-107603374D01*
X131790554Y-107596066D01*
X131801075Y-107589760D01*
X131812165Y-107584515D01*
X131823714Y-107580382D01*
X131835614Y-107577402D01*
X131847748Y-107575602D01*
X131860000Y-107575000D01*
X133235000Y-107575000D01*
X133247252Y-107575602D01*
G37*
G36*
X133247252Y-108225602D02*
G01*
X133259386Y-108227402D01*
X133271286Y-108230382D01*
X133282835Y-108234515D01*
X133293925Y-108239760D01*
X133304446Y-108246066D01*
X133314299Y-108253374D01*
X133323388Y-108261612D01*
X133331626Y-108270701D01*
X133338934Y-108280554D01*
X133345240Y-108291075D01*
X133350485Y-108302165D01*
X133354618Y-108313714D01*
X133357598Y-108325614D01*
X133359398Y-108337748D01*
X133360000Y-108350000D01*
X133360000Y-108600000D01*
X133359398Y-108612252D01*
X133357598Y-108624386D01*
X133354618Y-108636286D01*
X133350485Y-108647835D01*
X133345240Y-108658925D01*
X133338934Y-108669446D01*
X133331626Y-108679299D01*
X133323388Y-108688388D01*
X133314299Y-108696626D01*
X133304446Y-108703934D01*
X133293925Y-108710240D01*
X133282835Y-108715485D01*
X133271286Y-108719618D01*
X133259386Y-108722598D01*
X133247252Y-108724398D01*
X133235000Y-108725000D01*
X131860000Y-108725000D01*
X131847748Y-108724398D01*
X131835614Y-108722598D01*
X131823714Y-108719618D01*
X131812165Y-108715485D01*
X131801075Y-108710240D01*
X131790554Y-108703934D01*
X131780701Y-108696626D01*
X131771612Y-108688388D01*
X131763374Y-108679299D01*
X131756066Y-108669446D01*
X131749760Y-108658925D01*
X131744515Y-108647835D01*
X131740382Y-108636286D01*
X131737402Y-108624386D01*
X131735602Y-108612252D01*
X131735000Y-108600000D01*
X131735000Y-108350000D01*
X131735602Y-108337748D01*
X131737402Y-108325614D01*
X131740382Y-108313714D01*
X131744515Y-108302165D01*
X131749760Y-108291075D01*
X131756066Y-108280554D01*
X131763374Y-108270701D01*
X131771612Y-108261612D01*
X131780701Y-108253374D01*
X131790554Y-108246066D01*
X131801075Y-108239760D01*
X131812165Y-108234515D01*
X131823714Y-108230382D01*
X131835614Y-108227402D01*
X131847748Y-108225602D01*
X131860000Y-108225000D01*
X133235000Y-108225000D01*
X133247252Y-108225602D01*
G37*
G36*
X133247252Y-108875602D02*
G01*
X133259386Y-108877402D01*
X133271286Y-108880382D01*
X133282835Y-108884515D01*
X133293925Y-108889760D01*
X133304446Y-108896066D01*
X133314299Y-108903374D01*
X133323388Y-108911612D01*
X133331626Y-108920701D01*
X133338934Y-108930554D01*
X133345240Y-108941075D01*
X133350485Y-108952165D01*
X133354618Y-108963714D01*
X133357598Y-108975614D01*
X133359398Y-108987748D01*
X133360000Y-109000000D01*
X133360000Y-109250000D01*
X133359398Y-109262252D01*
X133357598Y-109274386D01*
X133354618Y-109286286D01*
X133350485Y-109297835D01*
X133345240Y-109308925D01*
X133338934Y-109319446D01*
X133331626Y-109329299D01*
X133323388Y-109338388D01*
X133314299Y-109346626D01*
X133304446Y-109353934D01*
X133293925Y-109360240D01*
X133282835Y-109365485D01*
X133271286Y-109369618D01*
X133259386Y-109372598D01*
X133247252Y-109374398D01*
X133235000Y-109375000D01*
X131860000Y-109375000D01*
X131847748Y-109374398D01*
X131835614Y-109372598D01*
X131823714Y-109369618D01*
X131812165Y-109365485D01*
X131801075Y-109360240D01*
X131790554Y-109353934D01*
X131780701Y-109346626D01*
X131771612Y-109338388D01*
X131763374Y-109329299D01*
X131756066Y-109319446D01*
X131749760Y-109308925D01*
X131744515Y-109297835D01*
X131740382Y-109286286D01*
X131737402Y-109274386D01*
X131735602Y-109262252D01*
X131735000Y-109250000D01*
X131735000Y-109000000D01*
X131735602Y-108987748D01*
X131737402Y-108975614D01*
X131740382Y-108963714D01*
X131744515Y-108952165D01*
X131749760Y-108941075D01*
X131756066Y-108930554D01*
X131763374Y-108920701D01*
X131771612Y-108911612D01*
X131780701Y-108903374D01*
X131790554Y-108896066D01*
X131801075Y-108889760D01*
X131812165Y-108884515D01*
X131823714Y-108880382D01*
X131835614Y-108877402D01*
X131847748Y-108875602D01*
X131860000Y-108875000D01*
X133235000Y-108875000D01*
X133247252Y-108875602D01*
G37*
G36*
X137472252Y-108875602D02*
G01*
X137484386Y-108877402D01*
X137496286Y-108880382D01*
X137507835Y-108884515D01*
X137518925Y-108889760D01*
X137529446Y-108896066D01*
X137539299Y-108903374D01*
X137548388Y-108911612D01*
X137556626Y-108920701D01*
X137563934Y-108930554D01*
X137570240Y-108941075D01*
X137575485Y-108952165D01*
X137579618Y-108963714D01*
X137582598Y-108975614D01*
X137584398Y-108987748D01*
X137585000Y-109000000D01*
X137585000Y-109250000D01*
X137584398Y-109262252D01*
X137582598Y-109274386D01*
X137579618Y-109286286D01*
X137575485Y-109297835D01*
X137570240Y-109308925D01*
X137563934Y-109319446D01*
X137556626Y-109329299D01*
X137548388Y-109338388D01*
X137539299Y-109346626D01*
X137529446Y-109353934D01*
X137518925Y-109360240D01*
X137507835Y-109365485D01*
X137496286Y-109369618D01*
X137484386Y-109372598D01*
X137472252Y-109374398D01*
X137460000Y-109375000D01*
X136085000Y-109375000D01*
X136072748Y-109374398D01*
X136060614Y-109372598D01*
X136048714Y-109369618D01*
X136037165Y-109365485D01*
X136026075Y-109360240D01*
X136015554Y-109353934D01*
X136005701Y-109346626D01*
X135996612Y-109338388D01*
X135988374Y-109329299D01*
X135981066Y-109319446D01*
X135974760Y-109308925D01*
X135969515Y-109297835D01*
X135965382Y-109286286D01*
X135962402Y-109274386D01*
X135960602Y-109262252D01*
X135960000Y-109250000D01*
X135960000Y-109000000D01*
X135960602Y-108987748D01*
X135962402Y-108975614D01*
X135965382Y-108963714D01*
X135969515Y-108952165D01*
X135974760Y-108941075D01*
X135981066Y-108930554D01*
X135988374Y-108920701D01*
X135996612Y-108911612D01*
X136005701Y-108903374D01*
X136015554Y-108896066D01*
X136026075Y-108889760D01*
X136037165Y-108884515D01*
X136048714Y-108880382D01*
X136060614Y-108877402D01*
X136072748Y-108875602D01*
X136085000Y-108875000D01*
X137460000Y-108875000D01*
X137472252Y-108875602D01*
G37*
G36*
X137472252Y-108225602D02*
G01*
X137484386Y-108227402D01*
X137496286Y-108230382D01*
X137507835Y-108234515D01*
X137518925Y-108239760D01*
X137529446Y-108246066D01*
X137539299Y-108253374D01*
X137548388Y-108261612D01*
X137556626Y-108270701D01*
X137563934Y-108280554D01*
X137570240Y-108291075D01*
X137575485Y-108302165D01*
X137579618Y-108313714D01*
X137582598Y-108325614D01*
X137584398Y-108337748D01*
X137585000Y-108350000D01*
X137585000Y-108600000D01*
X137584398Y-108612252D01*
X137582598Y-108624386D01*
X137579618Y-108636286D01*
X137575485Y-108647835D01*
X137570240Y-108658925D01*
X137563934Y-108669446D01*
X137556626Y-108679299D01*
X137548388Y-108688388D01*
X137539299Y-108696626D01*
X137529446Y-108703934D01*
X137518925Y-108710240D01*
X137507835Y-108715485D01*
X137496286Y-108719618D01*
X137484386Y-108722598D01*
X137472252Y-108724398D01*
X137460000Y-108725000D01*
X136085000Y-108725000D01*
X136072748Y-108724398D01*
X136060614Y-108722598D01*
X136048714Y-108719618D01*
X136037165Y-108715485D01*
X136026075Y-108710240D01*
X136015554Y-108703934D01*
X136005701Y-108696626D01*
X135996612Y-108688388D01*
X135988374Y-108679299D01*
X135981066Y-108669446D01*
X135974760Y-108658925D01*
X135969515Y-108647835D01*
X135965382Y-108636286D01*
X135962402Y-108624386D01*
X135960602Y-108612252D01*
X135960000Y-108600000D01*
X135960000Y-108350000D01*
X135960602Y-108337748D01*
X135962402Y-108325614D01*
X135965382Y-108313714D01*
X135969515Y-108302165D01*
X135974760Y-108291075D01*
X135981066Y-108280554D01*
X135988374Y-108270701D01*
X135996612Y-108261612D01*
X136005701Y-108253374D01*
X136015554Y-108246066D01*
X136026075Y-108239760D01*
X136037165Y-108234515D01*
X136048714Y-108230382D01*
X136060614Y-108227402D01*
X136072748Y-108225602D01*
X136085000Y-108225000D01*
X137460000Y-108225000D01*
X137472252Y-108225602D01*
G37*
G36*
X137472252Y-107575602D02*
G01*
X137484386Y-107577402D01*
X137496286Y-107580382D01*
X137507835Y-107584515D01*
X137518925Y-107589760D01*
X137529446Y-107596066D01*
X137539299Y-107603374D01*
X137548388Y-107611612D01*
X137556626Y-107620701D01*
X137563934Y-107630554D01*
X137570240Y-107641075D01*
X137575485Y-107652165D01*
X137579618Y-107663714D01*
X137582598Y-107675614D01*
X137584398Y-107687748D01*
X137585000Y-107700000D01*
X137585000Y-107950000D01*
X137584398Y-107962252D01*
X137582598Y-107974386D01*
X137579618Y-107986286D01*
X137575485Y-107997835D01*
X137570240Y-108008925D01*
X137563934Y-108019446D01*
X137556626Y-108029299D01*
X137548388Y-108038388D01*
X137539299Y-108046626D01*
X137529446Y-108053934D01*
X137518925Y-108060240D01*
X137507835Y-108065485D01*
X137496286Y-108069618D01*
X137484386Y-108072598D01*
X137472252Y-108074398D01*
X137460000Y-108075000D01*
X136085000Y-108075000D01*
X136072748Y-108074398D01*
X136060614Y-108072598D01*
X136048714Y-108069618D01*
X136037165Y-108065485D01*
X136026075Y-108060240D01*
X136015554Y-108053934D01*
X136005701Y-108046626D01*
X135996612Y-108038388D01*
X135988374Y-108029299D01*
X135981066Y-108019446D01*
X135974760Y-108008925D01*
X135969515Y-107997835D01*
X135965382Y-107986286D01*
X135962402Y-107974386D01*
X135960602Y-107962252D01*
X135960000Y-107950000D01*
X135960000Y-107700000D01*
X135960602Y-107687748D01*
X135962402Y-107675614D01*
X135965382Y-107663714D01*
X135969515Y-107652165D01*
X135974760Y-107641075D01*
X135981066Y-107630554D01*
X135988374Y-107620701D01*
X135996612Y-107611612D01*
X136005701Y-107603374D01*
X136015554Y-107596066D01*
X136026075Y-107589760D01*
X136037165Y-107584515D01*
X136048714Y-107580382D01*
X136060614Y-107577402D01*
X136072748Y-107575602D01*
X136085000Y-107575000D01*
X137460000Y-107575000D01*
X137472252Y-107575602D01*
G37*
G36*
X137472252Y-106925602D02*
G01*
X137484386Y-106927402D01*
X137496286Y-106930382D01*
X137507835Y-106934515D01*
X137518925Y-106939760D01*
X137529446Y-106946066D01*
X137539299Y-106953374D01*
X137548388Y-106961612D01*
X137556626Y-106970701D01*
X137563934Y-106980554D01*
X137570240Y-106991075D01*
X137575485Y-107002165D01*
X137579618Y-107013714D01*
X137582598Y-107025614D01*
X137584398Y-107037748D01*
X137585000Y-107050000D01*
X137585000Y-107300000D01*
X137584398Y-107312252D01*
X137582598Y-107324386D01*
X137579618Y-107336286D01*
X137575485Y-107347835D01*
X137570240Y-107358925D01*
X137563934Y-107369446D01*
X137556626Y-107379299D01*
X137548388Y-107388388D01*
X137539299Y-107396626D01*
X137529446Y-107403934D01*
X137518925Y-107410240D01*
X137507835Y-107415485D01*
X137496286Y-107419618D01*
X137484386Y-107422598D01*
X137472252Y-107424398D01*
X137460000Y-107425000D01*
X136085000Y-107425000D01*
X136072748Y-107424398D01*
X136060614Y-107422598D01*
X136048714Y-107419618D01*
X136037165Y-107415485D01*
X136026075Y-107410240D01*
X136015554Y-107403934D01*
X136005701Y-107396626D01*
X135996612Y-107388388D01*
X135988374Y-107379299D01*
X135981066Y-107369446D01*
X135974760Y-107358925D01*
X135969515Y-107347835D01*
X135965382Y-107336286D01*
X135962402Y-107324386D01*
X135960602Y-107312252D01*
X135960000Y-107300000D01*
X135960000Y-107050000D01*
X135960602Y-107037748D01*
X135962402Y-107025614D01*
X135965382Y-107013714D01*
X135969515Y-107002165D01*
X135974760Y-106991075D01*
X135981066Y-106980554D01*
X135988374Y-106970701D01*
X135996612Y-106961612D01*
X136005701Y-106953374D01*
X136015554Y-106946066D01*
X136026075Y-106939760D01*
X136037165Y-106934515D01*
X136048714Y-106930382D01*
X136060614Y-106927402D01*
X136072748Y-106925602D01*
X136085000Y-106925000D01*
X137460000Y-106925000D01*
X137472252Y-106925602D01*
G37*
D22*
X128998160Y-120200000D03*
D16*
X130501840Y-120200000D03*
D11*
X133350000Y-125998160D03*
D10*
X133350000Y-127501840D03*
D11*
X133530000Y-135170000D03*
D10*
X133530000Y-133666320D03*
X139270000Y-109041840D03*
D11*
X139270000Y-107538160D03*
D16*
X145150000Y-115190000D03*
D22*
X146653680Y-115190000D03*
X141318160Y-115060000D03*
D16*
X142821840Y-115060000D03*
X139413680Y-111200000D03*
X137910000Y-111200000D03*
X137850000Y-103750000D03*
X139353680Y-103750000D03*
D18*
X119599880Y-104839800D03*
X125700960Y-104839800D03*
X119599880Y-115665280D03*
X125700960Y-115665280D03*
D16*
X119021840Y-124930000D03*
X117518160Y-124930000D03*
D11*
X118100000Y-122501840D03*
X118100000Y-120998160D03*
D16*
X131101840Y-126250000D03*
X129598160Y-126250000D03*
D11*
X129375000Y-122423160D03*
X129375000Y-123926840D03*
X135600000Y-128500000D03*
X135600000Y-126996320D03*
D16*
X131790000Y-130250000D03*
X133293680Y-130250000D03*
D23*
X121400000Y-121345000D03*
X121400000Y-122615000D03*
X121400000Y-123885000D03*
X121400000Y-125155000D03*
X126800000Y-125155000D03*
X126800000Y-123885000D03*
X126800000Y-122615000D03*
X126800000Y-121345000D03*
M02*
