G04 #@! TF.GenerationSoftware,KiCad,Pcbnew,5.1.5-52549c5~86~ubuntu18.04.1*
G04 #@! TF.CreationDate,2020-12-30T12:38:52-08:00*
G04 #@! TF.ProjectId,Atmel_Adapter_rev02,41746d65-6c5f-4416-9461-707465725f72,rev?*
G04 #@! TF.SameCoordinates,Original*
G04 #@! TF.FileFunction,Copper,L1,Top*
G04 #@! TF.FilePolarity,Positive*
%FSLAX46Y46*%
G04 Gerber Fmt 4.6, Leading zero omitted, Abs format (unit mm)*
G04 Created by KiCad (PCBNEW 5.1.5-52549c5~86~ubuntu18.04.1) date 2020-12-30 12:38:52*
%MOMM*%
%LPD*%
G04 APERTURE LIST*
%ADD10R,2.400000X0.760000*%
%ADD11R,3.560000X1.270000*%
%ADD12R,1.250000X2.000000*%
%ADD13R,2.000000X1.250000*%
%ADD14R,0.899160X1.000760*%
%ADD15R,1.000760X0.899160*%
%ADD16C,0.700000*%
%ADD17C,0.600000*%
%ADD18C,0.500000*%
%ADD19C,0.254000*%
G04 APERTURE END LIST*
D10*
X113456000Y-71882000D03*
X113456000Y-73152000D03*
X109556000Y-73152000D03*
X109556000Y-71882000D03*
X109556000Y-68072000D03*
X109556000Y-69342000D03*
X109556000Y-70612000D03*
X113456000Y-70612000D03*
X113456000Y-69342000D03*
X113456000Y-68072000D03*
X113964000Y-89916000D03*
X113964000Y-91186000D03*
X113964000Y-92456000D03*
X110064000Y-92456000D03*
X110064000Y-91186000D03*
X110064000Y-89916000D03*
X110064000Y-93726000D03*
X110064000Y-94996000D03*
X113964000Y-94996000D03*
X113964000Y-93726000D03*
D11*
X131129000Y-87630000D03*
X131129000Y-90170000D03*
X131129000Y-92710000D03*
X125919000Y-92710000D03*
X125919000Y-90170000D03*
X125919000Y-87630000D03*
X125919000Y-95270000D03*
X125919000Y-97810000D03*
X131129000Y-97810000D03*
X131129000Y-95270000D03*
X130875000Y-74442000D03*
X130875000Y-76982000D03*
X125665000Y-76982000D03*
X125665000Y-74442000D03*
X125665000Y-66802000D03*
X125665000Y-69342000D03*
X125665000Y-71882000D03*
X130875000Y-71882000D03*
X130875000Y-69342000D03*
X130875000Y-66802000D03*
X149925000Y-95016000D03*
X144715000Y-95016000D03*
X144715000Y-89916000D03*
X144715000Y-92456000D03*
X149925000Y-92456000D03*
X149925000Y-89916000D03*
D12*
X109385000Y-62310000D03*
X112135000Y-62310000D03*
D13*
X153000000Y-80625000D03*
X153000000Y-83375000D03*
D14*
X109248160Y-60000000D03*
X110751840Y-60000000D03*
D15*
X153000000Y-77503680D03*
X153000000Y-76000000D03*
D16*
X119380000Y-73914000D03*
X133604000Y-74422000D03*
X119380000Y-75946000D03*
X133858000Y-77216000D03*
X119126000Y-71120000D03*
X133604000Y-71882000D03*
X119380000Y-68326000D03*
X133604000Y-69342000D03*
X107200000Y-60700000D03*
X106934000Y-72644000D03*
X122428000Y-74930000D03*
X107188000Y-69342000D03*
X119126000Y-69596000D03*
X107188000Y-70866000D03*
X119380000Y-72390000D03*
X120142000Y-66294000D03*
X133604000Y-67056000D03*
X109400000Y-65000000D03*
X116000000Y-88800000D03*
X130900000Y-85800000D03*
X107950000Y-92456000D03*
X119126000Y-92710000D03*
X139446000Y-96520000D03*
X107950000Y-91186000D03*
X119126000Y-90170000D03*
X107950000Y-93726000D03*
X119126000Y-95250000D03*
X149900000Y-87800000D03*
X150200000Y-82800000D03*
D17*
X111801420Y-60000000D02*
X112190000Y-60388580D01*
X110751840Y-60000000D02*
X111801420Y-60000000D01*
X112135000Y-60443580D02*
X112135000Y-62310000D01*
X112190000Y-60388580D02*
X112135000Y-60443580D01*
X115256000Y-71882000D02*
X117288000Y-73914000D01*
X113456000Y-71882000D02*
X115256000Y-71882000D01*
X117288000Y-73914000D02*
X119380000Y-73914000D01*
X130895000Y-74422000D02*
X130875000Y-74442000D01*
X133604000Y-74422000D02*
X130895000Y-74422000D01*
X115256000Y-73152000D02*
X118050000Y-75946000D01*
X113456000Y-73152000D02*
X115256000Y-73152000D01*
X118050000Y-75946000D02*
X119380000Y-75946000D01*
X131109000Y-77216000D02*
X130875000Y-76982000D01*
X133858000Y-77216000D02*
X131109000Y-77216000D01*
X115256000Y-70612000D02*
X115764000Y-71120000D01*
X113456000Y-70612000D02*
X115256000Y-70612000D01*
X133604000Y-71882000D02*
X130875000Y-71882000D01*
X113456000Y-69342000D02*
X116332000Y-69342000D01*
X116332000Y-69342000D02*
X117348000Y-68326000D01*
X133604000Y-69342000D02*
X130875000Y-69342000D01*
X117674000Y-70326000D02*
X117000000Y-71000000D01*
X117000000Y-71000000D02*
X119126000Y-71120000D01*
X117674000Y-68326000D02*
X119380000Y-68326000D01*
X117674000Y-68326000D02*
X117674000Y-70326000D01*
X115764000Y-71120000D02*
X117000000Y-71000000D01*
X117348000Y-68326000D02*
X117674000Y-68326000D01*
X134207999Y-76866001D02*
X134633999Y-76866001D01*
X133858000Y-77216000D02*
X134207999Y-76866001D01*
X134633999Y-76866001D02*
X135500000Y-76000000D01*
X135500000Y-76000000D02*
X135500000Y-73000000D01*
X134382000Y-71882000D02*
X133604000Y-71882000D01*
X135500000Y-73000000D02*
X134382000Y-71882000D01*
D18*
X109248160Y-60000000D02*
X107900000Y-60000000D01*
X107900000Y-60000000D02*
X107200000Y-60700000D01*
D17*
X123285000Y-76982000D02*
X123265000Y-76962000D01*
X125665000Y-76982000D02*
X123285000Y-76982000D01*
X123265000Y-76962000D02*
X110998000Y-76962000D01*
X109556000Y-75520000D02*
X109556000Y-73152000D01*
X110998000Y-76962000D02*
X109556000Y-75520000D01*
X109556000Y-71882000D02*
X107696000Y-71882000D01*
X107696000Y-71882000D02*
X106934000Y-72644000D01*
X122428000Y-74930000D02*
X123190000Y-74422000D01*
X123190000Y-74422000D02*
X123210000Y-74442000D01*
X123210000Y-74442000D02*
X125665000Y-74442000D01*
X125665000Y-65567000D02*
X125665000Y-66802000D01*
X124360000Y-64262000D02*
X125665000Y-65567000D01*
X112386000Y-64262000D02*
X124360000Y-64262000D01*
X109556000Y-67092000D02*
X112386000Y-64262000D01*
X109556000Y-68072000D02*
X109590000Y-67480000D01*
X109590000Y-67480000D02*
X109556000Y-67092000D01*
X109556000Y-69342000D02*
X107188000Y-69342000D01*
X119126000Y-69596000D02*
X120650000Y-69596000D01*
X120904000Y-69342000D02*
X125665000Y-69342000D01*
X120650000Y-69596000D02*
X120904000Y-69342000D01*
X107756000Y-70612000D02*
X107502000Y-70866000D01*
X109556000Y-70612000D02*
X107756000Y-70612000D01*
X107502000Y-70866000D02*
X107188000Y-70866000D01*
X119380000Y-72390000D02*
X119888000Y-72390000D01*
X120396000Y-71882000D02*
X125665000Y-71882000D01*
X119888000Y-72390000D02*
X120396000Y-71882000D01*
X113456000Y-67092000D02*
X114254000Y-66294000D01*
X113456000Y-68072000D02*
X113456000Y-67092000D01*
X114254000Y-66294000D02*
X120142000Y-66294000D01*
X131129000Y-67056000D02*
X130875000Y-66802000D01*
X133604000Y-67056000D02*
X131129000Y-67056000D01*
D18*
X109385000Y-62310000D02*
X109385000Y-64985000D01*
X109385000Y-64985000D02*
X109400000Y-65000000D01*
D17*
X152600000Y-92161000D02*
X152305000Y-92456000D01*
X151000000Y-86000000D02*
X152600000Y-88400000D01*
X152305000Y-92456000D02*
X149925000Y-92456000D01*
X152600000Y-88400000D02*
X152600000Y-92161000D01*
X131129000Y-87630000D02*
X134400000Y-86000000D01*
X134400000Y-86000000D02*
X151000000Y-86000000D01*
X113964000Y-89916000D02*
X114884000Y-89916000D01*
X114884000Y-89916000D02*
X116000000Y-88800000D01*
X131100000Y-86500000D02*
X131129000Y-87630000D01*
X130900000Y-85800000D02*
X131100000Y-86500000D01*
X113964000Y-91186000D02*
X115764000Y-91186000D01*
X128749000Y-90170000D02*
X131129000Y-90170000D01*
X115764000Y-91186000D02*
X118050000Y-88900000D01*
X118050000Y-88900000D02*
X128300000Y-88900000D01*
X128700000Y-90121000D02*
X128749000Y-90170000D01*
X128700000Y-89300000D02*
X128700000Y-90121000D01*
X128300000Y-88900000D02*
X128700000Y-89300000D01*
X115764000Y-92456000D02*
X116620000Y-91600000D01*
X113964000Y-92456000D02*
X115764000Y-92456000D01*
X116620000Y-91600000D02*
X123100000Y-91600000D01*
X123100000Y-91600000D02*
X123300000Y-91400000D01*
X123300000Y-91400000D02*
X128300000Y-91400000D01*
X128300000Y-91400000D02*
X128800000Y-91900000D01*
X128800000Y-91900000D02*
X128800000Y-92400000D01*
X129110000Y-92710000D02*
X131129000Y-92710000D01*
X128800000Y-92400000D02*
X129110000Y-92710000D01*
X110064000Y-92456000D02*
X108264000Y-92456000D01*
X108264000Y-92456000D02*
X107950000Y-92456000D01*
X142335000Y-95016000D02*
X140831000Y-96520000D01*
X140831000Y-96520000D02*
X139446000Y-96520000D01*
X119126000Y-92710000D02*
X120904000Y-92710000D01*
X120904000Y-92710000D02*
X125919000Y-92710000D01*
X142335000Y-95016000D02*
X144715000Y-95016000D01*
X110064000Y-91186000D02*
X107950000Y-91186000D01*
X119620974Y-90170000D02*
X125919000Y-90170000D01*
X119126000Y-90170000D02*
X119620974Y-90170000D01*
X149945000Y-94996000D02*
X149925000Y-95016000D01*
X123539000Y-87630000D02*
X125919000Y-87630000D01*
X111370000Y-87630000D02*
X123539000Y-87630000D01*
X110064000Y-88936000D02*
X111370000Y-87630000D01*
X110064000Y-89916000D02*
X110064000Y-88936000D01*
X125919000Y-86395000D02*
X127732000Y-84582000D01*
X125919000Y-87630000D02*
X125919000Y-86395000D01*
X151384000Y-84582000D02*
X153670000Y-86868000D01*
X125919000Y-99045000D02*
X125919000Y-97810000D01*
X125396000Y-99568000D02*
X125919000Y-99045000D01*
X113656000Y-99568000D02*
X125396000Y-99568000D01*
X110064000Y-95976000D02*
X113656000Y-99568000D01*
X110064000Y-94996000D02*
X110064000Y-95976000D01*
X153670000Y-91370000D02*
X153670000Y-93930000D01*
X153670000Y-86868000D02*
X153670000Y-91370000D01*
X152584000Y-95016000D02*
X149925000Y-95016000D01*
X153670000Y-93930000D02*
X152584000Y-95016000D01*
X151899620Y-76000000D02*
X148600000Y-79299620D01*
X153000000Y-76000000D02*
X151899620Y-76000000D01*
X127732000Y-84582000D02*
X148600000Y-84500000D01*
X148600000Y-79299620D02*
X148600000Y-84500000D01*
X148600000Y-84500000D02*
X151384000Y-84582000D01*
X110064000Y-89916000D02*
X107284000Y-89916000D01*
X107284000Y-89916000D02*
X106900000Y-90300000D01*
X106900000Y-90300000D02*
X106900000Y-94700000D01*
X107196000Y-94996000D02*
X110064000Y-94996000D01*
X106900000Y-94700000D02*
X107196000Y-94996000D01*
X110064000Y-93726000D02*
X107950000Y-93726000D01*
X125899000Y-95250000D02*
X125919000Y-95270000D01*
X119126000Y-95250000D02*
X125899000Y-95250000D01*
X149900000Y-89891000D02*
X149925000Y-89916000D01*
X149900000Y-87800000D02*
X149900000Y-89891000D01*
X150200000Y-82800000D02*
X151000000Y-82800000D01*
X151000000Y-82975000D02*
X151400000Y-83375000D01*
X151400000Y-83375000D02*
X153000000Y-83375000D01*
X151000000Y-82800000D02*
X151000000Y-82975000D01*
X142335000Y-92456000D02*
X142279000Y-92400000D01*
X144715000Y-92456000D02*
X142335000Y-92456000D01*
X142279000Y-92400000D02*
X139600000Y-92400000D01*
X134190000Y-97810000D02*
X131129000Y-97810000D01*
X139600000Y-92400000D02*
X134190000Y-97810000D01*
X128749000Y-97810000D02*
X131129000Y-97810000D01*
X113964000Y-94996000D02*
X113964000Y-95976000D01*
X113964000Y-95976000D02*
X114488000Y-96500000D01*
X114488000Y-96500000D02*
X128300000Y-96500000D01*
X128700000Y-96900000D02*
X128700000Y-97761000D01*
X128300000Y-96500000D02*
X128700000Y-96900000D01*
X128700000Y-97761000D02*
X128749000Y-97810000D01*
X144461000Y-90170000D02*
X144715000Y-89916000D01*
X142335000Y-89916000D02*
X144715000Y-89916000D01*
X138863000Y-89916000D02*
X142335000Y-89916000D01*
X133509000Y-95270000D02*
X138863000Y-89916000D01*
X131129000Y-95270000D02*
X133509000Y-95270000D01*
X128749000Y-95270000D02*
X131129000Y-95270000D01*
X118326000Y-93726000D02*
X118600000Y-94000000D01*
X128400000Y-94000000D02*
X128700000Y-95000000D01*
X118600000Y-94000000D02*
X128400000Y-94000000D01*
X113964000Y-93726000D02*
X118326000Y-93726000D01*
X128700000Y-95000000D02*
X128700000Y-95221000D01*
X128700000Y-95221000D02*
X128749000Y-95270000D01*
X153000000Y-80625000D02*
X153000000Y-77503680D01*
D19*
G36*
X155473000Y-103473000D02*
G01*
X106527000Y-103473000D01*
X106527000Y-95496553D01*
X106582495Y-95552048D01*
X106608394Y-95583606D01*
X106678026Y-95640752D01*
X106734320Y-95686952D01*
X106771738Y-95706952D01*
X106877990Y-95763745D01*
X107033880Y-95811034D01*
X107155376Y-95823000D01*
X107155385Y-95823000D01*
X107195999Y-95827000D01*
X107236613Y-95823000D01*
X108582325Y-95823000D01*
X108661350Y-95865239D01*
X108760690Y-95895374D01*
X108864000Y-95905549D01*
X109237001Y-95905549D01*
X109237001Y-95935377D01*
X109233000Y-95976000D01*
X109248967Y-96138120D01*
X109296256Y-96294010D01*
X109373048Y-96437679D01*
X109440608Y-96520000D01*
X109476395Y-96563606D01*
X109507948Y-96589501D01*
X113042499Y-100124053D01*
X113068394Y-100155606D01*
X113099947Y-100181501D01*
X113099948Y-100181502D01*
X113194320Y-100258952D01*
X113271113Y-100299998D01*
X113337990Y-100335745D01*
X113493880Y-100383034D01*
X113615376Y-100395000D01*
X113615385Y-100395000D01*
X113655999Y-100399000D01*
X113696613Y-100395000D01*
X125355386Y-100395000D01*
X125396000Y-100399000D01*
X125436614Y-100395000D01*
X125436624Y-100395000D01*
X125558120Y-100383034D01*
X125714010Y-100335745D01*
X125857679Y-100258952D01*
X125983606Y-100155606D01*
X126009505Y-100124048D01*
X126475054Y-99658500D01*
X126506606Y-99632606D01*
X126532503Y-99601051D01*
X126609952Y-99506680D01*
X126686744Y-99363011D01*
X126686745Y-99363010D01*
X126734034Y-99207120D01*
X126746000Y-99085624D01*
X126746000Y-99085614D01*
X126750000Y-99045000D01*
X126746000Y-99004386D01*
X126746000Y-98974549D01*
X127699000Y-98974549D01*
X127802310Y-98964374D01*
X127901650Y-98934239D01*
X127993202Y-98885304D01*
X128073448Y-98819448D01*
X128139304Y-98739202D01*
X128188239Y-98647650D01*
X128218374Y-98548310D01*
X128227846Y-98452142D01*
X128234246Y-98457394D01*
X128287321Y-98500952D01*
X128430990Y-98577745D01*
X128586880Y-98625034D01*
X128708376Y-98637000D01*
X128708388Y-98637000D01*
X128748999Y-98641000D01*
X128789610Y-98637000D01*
X128856530Y-98637000D01*
X128859761Y-98647650D01*
X128908696Y-98739202D01*
X128974552Y-98819448D01*
X129054798Y-98885304D01*
X129146350Y-98934239D01*
X129245690Y-98964374D01*
X129349000Y-98974549D01*
X132909000Y-98974549D01*
X133012310Y-98964374D01*
X133111650Y-98934239D01*
X133203202Y-98885304D01*
X133283448Y-98819448D01*
X133349304Y-98739202D01*
X133398239Y-98647650D01*
X133401470Y-98637000D01*
X134149386Y-98637000D01*
X134190000Y-98641000D01*
X134230614Y-98637000D01*
X134230624Y-98637000D01*
X134352120Y-98625034D01*
X134508010Y-98577745D01*
X134651679Y-98500952D01*
X134777606Y-98397606D01*
X134803505Y-98366048D01*
X136735930Y-96433623D01*
X138569000Y-96433623D01*
X138569000Y-96606377D01*
X138602703Y-96775811D01*
X138668813Y-96935415D01*
X138764790Y-97079055D01*
X138886945Y-97201210D01*
X139030585Y-97297187D01*
X139190189Y-97363297D01*
X139359623Y-97397000D01*
X139532377Y-97397000D01*
X139701811Y-97363297D01*
X139741156Y-97347000D01*
X140790386Y-97347000D01*
X140831000Y-97351000D01*
X140871614Y-97347000D01*
X140871624Y-97347000D01*
X140993120Y-97335034D01*
X141149010Y-97287745D01*
X141292679Y-97210952D01*
X141418606Y-97107606D01*
X141444505Y-97076048D01*
X142531052Y-95989502D01*
X142560552Y-96025448D01*
X142640798Y-96091304D01*
X142732350Y-96140239D01*
X142831690Y-96170374D01*
X142935000Y-96180549D01*
X146495000Y-96180549D01*
X146598310Y-96170374D01*
X146697650Y-96140239D01*
X146789202Y-96091304D01*
X146869448Y-96025448D01*
X146935304Y-95945202D01*
X146984239Y-95853650D01*
X147014374Y-95754310D01*
X147024549Y-95651000D01*
X147024549Y-94381000D01*
X147014374Y-94277690D01*
X146984239Y-94178350D01*
X146935304Y-94086798D01*
X146869448Y-94006552D01*
X146789202Y-93940696D01*
X146697650Y-93891761D01*
X146598310Y-93861626D01*
X146495000Y-93851451D01*
X142935000Y-93851451D01*
X142831690Y-93861626D01*
X142732350Y-93891761D01*
X142640798Y-93940696D01*
X142560552Y-94006552D01*
X142494696Y-94086798D01*
X142445761Y-94178350D01*
X142442530Y-94189000D01*
X142375613Y-94189000D01*
X142334999Y-94185000D01*
X142294385Y-94189000D01*
X142294376Y-94189000D01*
X142172880Y-94200966D01*
X142016990Y-94248255D01*
X141993984Y-94260552D01*
X141873319Y-94325048D01*
X141781746Y-94400202D01*
X141747394Y-94428394D01*
X141721499Y-94459947D01*
X140488447Y-95693000D01*
X139741156Y-95693000D01*
X139701811Y-95676703D01*
X139532377Y-95643000D01*
X139359623Y-95643000D01*
X139190189Y-95676703D01*
X139030585Y-95742813D01*
X138886945Y-95838790D01*
X138764790Y-95960945D01*
X138668813Y-96104585D01*
X138602703Y-96264189D01*
X138569000Y-96433623D01*
X136735930Y-96433623D01*
X139942555Y-93227000D01*
X142027720Y-93227000D01*
X142172880Y-93271034D01*
X142294376Y-93283000D01*
X142294386Y-93283000D01*
X142335000Y-93287000D01*
X142375614Y-93283000D01*
X142442530Y-93283000D01*
X142445761Y-93293650D01*
X142494696Y-93385202D01*
X142560552Y-93465448D01*
X142640798Y-93531304D01*
X142732350Y-93580239D01*
X142831690Y-93610374D01*
X142935000Y-93620549D01*
X146495000Y-93620549D01*
X146598310Y-93610374D01*
X146697650Y-93580239D01*
X146789202Y-93531304D01*
X146869448Y-93465448D01*
X146935304Y-93385202D01*
X146984239Y-93293650D01*
X147014374Y-93194310D01*
X147024549Y-93091000D01*
X147024549Y-91821000D01*
X147014374Y-91717690D01*
X146984239Y-91618350D01*
X146935304Y-91526798D01*
X146869448Y-91446552D01*
X146789202Y-91380696D01*
X146697650Y-91331761D01*
X146598310Y-91301626D01*
X146495000Y-91291451D01*
X142935000Y-91291451D01*
X142831690Y-91301626D01*
X142732350Y-91331761D01*
X142640798Y-91380696D01*
X142560552Y-91446552D01*
X142494696Y-91526798D01*
X142460468Y-91590835D01*
X142441120Y-91584966D01*
X142319624Y-91573000D01*
X142319614Y-91573000D01*
X142279000Y-91569000D01*
X142238386Y-91573000D01*
X139640610Y-91573000D01*
X139599999Y-91569000D01*
X139559388Y-91573000D01*
X139559376Y-91573000D01*
X139437880Y-91584966D01*
X139281990Y-91632255D01*
X139177680Y-91688010D01*
X139138319Y-91709049D01*
X139043947Y-91786498D01*
X139043941Y-91786504D01*
X139012394Y-91812394D01*
X138986504Y-91843941D01*
X133847447Y-96983000D01*
X133401470Y-96983000D01*
X133398239Y-96972350D01*
X133349304Y-96880798D01*
X133283448Y-96800552D01*
X133203202Y-96734696D01*
X133111650Y-96685761D01*
X133012310Y-96655626D01*
X132909000Y-96645451D01*
X129486996Y-96645451D01*
X129467745Y-96581990D01*
X129390952Y-96438321D01*
X129387856Y-96434549D01*
X132909000Y-96434549D01*
X133012310Y-96424374D01*
X133111650Y-96394239D01*
X133203202Y-96345304D01*
X133283448Y-96279448D01*
X133349304Y-96199202D01*
X133398239Y-96107650D01*
X133401470Y-96097000D01*
X133468386Y-96097000D01*
X133509000Y-96101000D01*
X133549614Y-96097000D01*
X133549624Y-96097000D01*
X133671120Y-96085034D01*
X133827010Y-96037745D01*
X133970679Y-95960952D01*
X134096606Y-95857606D01*
X134122505Y-95826048D01*
X139205555Y-90743000D01*
X142442530Y-90743000D01*
X142445761Y-90753650D01*
X142494696Y-90845202D01*
X142560552Y-90925448D01*
X142640798Y-90991304D01*
X142732350Y-91040239D01*
X142831690Y-91070374D01*
X142935000Y-91080549D01*
X146495000Y-91080549D01*
X146598310Y-91070374D01*
X146697650Y-91040239D01*
X146789202Y-90991304D01*
X146869448Y-90925448D01*
X146935304Y-90845202D01*
X146984239Y-90753650D01*
X147014374Y-90654310D01*
X147024549Y-90551000D01*
X147024549Y-89281000D01*
X147014374Y-89177690D01*
X146984239Y-89078350D01*
X146935304Y-88986798D01*
X146869448Y-88906552D01*
X146789202Y-88840696D01*
X146697650Y-88791761D01*
X146598310Y-88761626D01*
X146495000Y-88751451D01*
X142935000Y-88751451D01*
X142831690Y-88761626D01*
X142732350Y-88791761D01*
X142640798Y-88840696D01*
X142560552Y-88906552D01*
X142494696Y-88986798D01*
X142445761Y-89078350D01*
X142442530Y-89089000D01*
X138903610Y-89089000D01*
X138862999Y-89085000D01*
X138822388Y-89089000D01*
X138822376Y-89089000D01*
X138700880Y-89100966D01*
X138544990Y-89148255D01*
X138448093Y-89200048D01*
X138401319Y-89225049D01*
X138306947Y-89302498D01*
X138306941Y-89302504D01*
X138275394Y-89328394D01*
X138249504Y-89359941D01*
X133312948Y-94296498D01*
X133283448Y-94260552D01*
X133203202Y-94194696D01*
X133111650Y-94145761D01*
X133012310Y-94115626D01*
X132909000Y-94105451D01*
X129349000Y-94105451D01*
X129296597Y-94110612D01*
X129220426Y-93856710D01*
X129245690Y-93864374D01*
X129349000Y-93874549D01*
X132909000Y-93874549D01*
X133012310Y-93864374D01*
X133111650Y-93834239D01*
X133203202Y-93785304D01*
X133283448Y-93719448D01*
X133349304Y-93639202D01*
X133398239Y-93547650D01*
X133428374Y-93448310D01*
X133438549Y-93345000D01*
X133438549Y-92075000D01*
X133428374Y-91971690D01*
X133398239Y-91872350D01*
X133349304Y-91780798D01*
X133283448Y-91700552D01*
X133203202Y-91634696D01*
X133111650Y-91585761D01*
X133012310Y-91555626D01*
X132909000Y-91545451D01*
X129548214Y-91545451D01*
X129495352Y-91446552D01*
X129490952Y-91438320D01*
X129443660Y-91380696D01*
X129405788Y-91334549D01*
X132909000Y-91334549D01*
X133012310Y-91324374D01*
X133111650Y-91294239D01*
X133203202Y-91245304D01*
X133283448Y-91179448D01*
X133349304Y-91099202D01*
X133398239Y-91007650D01*
X133428374Y-90908310D01*
X133438549Y-90805000D01*
X133438549Y-89535000D01*
X133428374Y-89431690D01*
X133398239Y-89332350D01*
X133349304Y-89240798D01*
X133283448Y-89160552D01*
X133203202Y-89094696D01*
X133111650Y-89045761D01*
X133012310Y-89015626D01*
X132909000Y-89005451D01*
X129474862Y-89005451D01*
X129467745Y-88981990D01*
X129390952Y-88838321D01*
X129355029Y-88794549D01*
X132909000Y-88794549D01*
X133012310Y-88784374D01*
X133111650Y-88754239D01*
X133203202Y-88705304D01*
X133283448Y-88639448D01*
X133349304Y-88559202D01*
X133398239Y-88467650D01*
X133428374Y-88368310D01*
X133438549Y-88265000D01*
X133438549Y-87403102D01*
X134594641Y-86827000D01*
X150557404Y-86827000D01*
X151773000Y-88650396D01*
X151773000Y-88758148D01*
X151705000Y-88751451D01*
X150727000Y-88751451D01*
X150727000Y-88095156D01*
X150743297Y-88055811D01*
X150777000Y-87886377D01*
X150777000Y-87713623D01*
X150743297Y-87544189D01*
X150677187Y-87384585D01*
X150581210Y-87240945D01*
X150459055Y-87118790D01*
X150315415Y-87022813D01*
X150155811Y-86956703D01*
X149986377Y-86923000D01*
X149813623Y-86923000D01*
X149644189Y-86956703D01*
X149484585Y-87022813D01*
X149340945Y-87118790D01*
X149218790Y-87240945D01*
X149122813Y-87384585D01*
X149056703Y-87544189D01*
X149023000Y-87713623D01*
X149023000Y-87886377D01*
X149056703Y-88055811D01*
X149073000Y-88095156D01*
X149073000Y-88751451D01*
X148145000Y-88751451D01*
X148041690Y-88761626D01*
X147942350Y-88791761D01*
X147850798Y-88840696D01*
X147770552Y-88906552D01*
X147704696Y-88986798D01*
X147655761Y-89078350D01*
X147625626Y-89177690D01*
X147615451Y-89281000D01*
X147615451Y-90551000D01*
X147625626Y-90654310D01*
X147655761Y-90753650D01*
X147704696Y-90845202D01*
X147770552Y-90925448D01*
X147850798Y-90991304D01*
X147942350Y-91040239D01*
X148041690Y-91070374D01*
X148145000Y-91080549D01*
X151705000Y-91080549D01*
X151773001Y-91073852D01*
X151773001Y-91298148D01*
X151705000Y-91291451D01*
X148145000Y-91291451D01*
X148041690Y-91301626D01*
X147942350Y-91331761D01*
X147850798Y-91380696D01*
X147770552Y-91446552D01*
X147704696Y-91526798D01*
X147655761Y-91618350D01*
X147625626Y-91717690D01*
X147615451Y-91821000D01*
X147615451Y-93091000D01*
X147625626Y-93194310D01*
X147655761Y-93293650D01*
X147704696Y-93385202D01*
X147770552Y-93465448D01*
X147850798Y-93531304D01*
X147942350Y-93580239D01*
X148041690Y-93610374D01*
X148145000Y-93620549D01*
X151705000Y-93620549D01*
X151808310Y-93610374D01*
X151907650Y-93580239D01*
X151999202Y-93531304D01*
X152079448Y-93465448D01*
X152145304Y-93385202D01*
X152194239Y-93293650D01*
X152197470Y-93283000D01*
X152264386Y-93283000D01*
X152305000Y-93287000D01*
X152345614Y-93283000D01*
X152345624Y-93283000D01*
X152467120Y-93271034D01*
X152623010Y-93223745D01*
X152766679Y-93146952D01*
X152843001Y-93084316D01*
X152843001Y-93587445D01*
X152241447Y-94189000D01*
X152197470Y-94189000D01*
X152194239Y-94178350D01*
X152145304Y-94086798D01*
X152079448Y-94006552D01*
X151999202Y-93940696D01*
X151907650Y-93891761D01*
X151808310Y-93861626D01*
X151705000Y-93851451D01*
X148145000Y-93851451D01*
X148041690Y-93861626D01*
X147942350Y-93891761D01*
X147850798Y-93940696D01*
X147770552Y-94006552D01*
X147704696Y-94086798D01*
X147655761Y-94178350D01*
X147625626Y-94277690D01*
X147615451Y-94381000D01*
X147615451Y-95651000D01*
X147625626Y-95754310D01*
X147655761Y-95853650D01*
X147704696Y-95945202D01*
X147770552Y-96025448D01*
X147850798Y-96091304D01*
X147942350Y-96140239D01*
X148041690Y-96170374D01*
X148145000Y-96180549D01*
X151705000Y-96180549D01*
X151808310Y-96170374D01*
X151907650Y-96140239D01*
X151999202Y-96091304D01*
X152079448Y-96025448D01*
X152145304Y-95945202D01*
X152194239Y-95853650D01*
X152197470Y-95843000D01*
X152543386Y-95843000D01*
X152584000Y-95847000D01*
X152624614Y-95843000D01*
X152624624Y-95843000D01*
X152746120Y-95831034D01*
X152902010Y-95783745D01*
X153045679Y-95706952D01*
X153171606Y-95603606D01*
X153197505Y-95572048D01*
X154226053Y-94543501D01*
X154257606Y-94517606D01*
X154294367Y-94472813D01*
X154360952Y-94391680D01*
X154417944Y-94285055D01*
X154437745Y-94248010D01*
X154485034Y-94092120D01*
X154497000Y-93970624D01*
X154497000Y-93970614D01*
X154501000Y-93930000D01*
X154497000Y-93889386D01*
X154497000Y-86908613D01*
X154501000Y-86867999D01*
X154497000Y-86827385D01*
X154497000Y-86827376D01*
X154485034Y-86705880D01*
X154437745Y-86549990D01*
X154400659Y-86480607D01*
X154360952Y-86406319D01*
X154283502Y-86311948D01*
X154283501Y-86311947D01*
X154257606Y-86280394D01*
X154226054Y-86254500D01*
X152501102Y-84529549D01*
X154000000Y-84529549D01*
X154103310Y-84519374D01*
X154202650Y-84489239D01*
X154294202Y-84440304D01*
X154374448Y-84374448D01*
X154440304Y-84294202D01*
X154489239Y-84202650D01*
X154519374Y-84103310D01*
X154529549Y-84000000D01*
X154529549Y-82750000D01*
X154519374Y-82646690D01*
X154489239Y-82547350D01*
X154440304Y-82455798D01*
X154374448Y-82375552D01*
X154294202Y-82309696D01*
X154202650Y-82260761D01*
X154103310Y-82230626D01*
X154000000Y-82220451D01*
X152000000Y-82220451D01*
X151896690Y-82230626D01*
X151797350Y-82260761D01*
X151705798Y-82309696D01*
X151682889Y-82328497D01*
X151587606Y-82212394D01*
X151461679Y-82109048D01*
X151318010Y-82032255D01*
X151162120Y-81984966D01*
X151040624Y-81973000D01*
X151000000Y-81968999D01*
X150959376Y-81973000D01*
X150495156Y-81973000D01*
X150455811Y-81956703D01*
X150286377Y-81923000D01*
X150113623Y-81923000D01*
X149944189Y-81956703D01*
X149784585Y-82022813D01*
X149640945Y-82118790D01*
X149518790Y-82240945D01*
X149427000Y-82378319D01*
X149427000Y-79642173D01*
X151970071Y-77099104D01*
X151970071Y-77953260D01*
X151980246Y-78056570D01*
X152010381Y-78155910D01*
X152059316Y-78247462D01*
X152125172Y-78327708D01*
X152173001Y-78366960D01*
X152173000Y-79470451D01*
X152000000Y-79470451D01*
X151896690Y-79480626D01*
X151797350Y-79510761D01*
X151705798Y-79559696D01*
X151625552Y-79625552D01*
X151559696Y-79705798D01*
X151510761Y-79797350D01*
X151480626Y-79896690D01*
X151470451Y-80000000D01*
X151470451Y-81250000D01*
X151480626Y-81353310D01*
X151510761Y-81452650D01*
X151559696Y-81544202D01*
X151625552Y-81624448D01*
X151705798Y-81690304D01*
X151797350Y-81739239D01*
X151896690Y-81769374D01*
X152000000Y-81779549D01*
X154000000Y-81779549D01*
X154103310Y-81769374D01*
X154202650Y-81739239D01*
X154294202Y-81690304D01*
X154374448Y-81624448D01*
X154440304Y-81544202D01*
X154489239Y-81452650D01*
X154519374Y-81353310D01*
X154529549Y-81250000D01*
X154529549Y-80000000D01*
X154519374Y-79896690D01*
X154489239Y-79797350D01*
X154440304Y-79705798D01*
X154374448Y-79625552D01*
X154294202Y-79559696D01*
X154202650Y-79510761D01*
X154103310Y-79480626D01*
X154000000Y-79470451D01*
X153827000Y-79470451D01*
X153827000Y-78366959D01*
X153874828Y-78327708D01*
X153940684Y-78247462D01*
X153989619Y-78155910D01*
X154019754Y-78056570D01*
X154029929Y-77953260D01*
X154029929Y-77054100D01*
X154019754Y-76950790D01*
X153989619Y-76851450D01*
X153940684Y-76759898D01*
X153934071Y-76751840D01*
X153940684Y-76743782D01*
X153989619Y-76652230D01*
X154019754Y-76552890D01*
X154029929Y-76449580D01*
X154029929Y-75550420D01*
X154019754Y-75447110D01*
X153989619Y-75347770D01*
X153940684Y-75256218D01*
X153874828Y-75175972D01*
X153794582Y-75110116D01*
X153703030Y-75061181D01*
X153603690Y-75031046D01*
X153500380Y-75020871D01*
X152499620Y-75020871D01*
X152396310Y-75031046D01*
X152296970Y-75061181D01*
X152205418Y-75110116D01*
X152128793Y-75173000D01*
X151940230Y-75173000D01*
X151899619Y-75169000D01*
X151859008Y-75173000D01*
X151858996Y-75173000D01*
X151737500Y-75184966D01*
X151581610Y-75232255D01*
X151505382Y-75273000D01*
X151437939Y-75309049D01*
X151343567Y-75386498D01*
X151343561Y-75386504D01*
X151312014Y-75412394D01*
X151286124Y-75443941D01*
X148043952Y-78686115D01*
X148012394Y-78712014D01*
X147986498Y-78743569D01*
X147909048Y-78837941D01*
X147868002Y-78914734D01*
X147832255Y-78981611D01*
X147784966Y-79137501D01*
X147773000Y-79258997D01*
X147773000Y-79259006D01*
X147769000Y-79299620D01*
X147773000Y-79340234D01*
X147773001Y-83676244D01*
X127771002Y-83754841D01*
X127731999Y-83751000D01*
X127689755Y-83755161D01*
X127688127Y-83755167D01*
X127649328Y-83759142D01*
X127569879Y-83766967D01*
X127568310Y-83767443D01*
X127566679Y-83767610D01*
X127490375Y-83791084D01*
X127413989Y-83814256D01*
X127412543Y-83815029D01*
X127410976Y-83815511D01*
X127340926Y-83853308D01*
X127270319Y-83891048D01*
X127269045Y-83892094D01*
X127267610Y-83892868D01*
X127206337Y-83943558D01*
X127175948Y-83968498D01*
X127174790Y-83969656D01*
X127142090Y-83996708D01*
X127117352Y-84027094D01*
X125362948Y-85781499D01*
X125331395Y-85807394D01*
X125305500Y-85838947D01*
X125305498Y-85838949D01*
X125228048Y-85933321D01*
X125151256Y-86076990D01*
X125103967Y-86232880D01*
X125088000Y-86395000D01*
X125092001Y-86435623D01*
X125092001Y-86465451D01*
X124139000Y-86465451D01*
X124035690Y-86475626D01*
X123936350Y-86505761D01*
X123844798Y-86554696D01*
X123764552Y-86620552D01*
X123698696Y-86700798D01*
X123649761Y-86792350D01*
X123646530Y-86803000D01*
X111410614Y-86803000D01*
X111370000Y-86799000D01*
X111329386Y-86803000D01*
X111329376Y-86803000D01*
X111207880Y-86814966D01*
X111051990Y-86862255D01*
X110996921Y-86891690D01*
X110908320Y-86939048D01*
X110823691Y-87008502D01*
X110782394Y-87042394D01*
X110756499Y-87073947D01*
X109507948Y-88322499D01*
X109476395Y-88348394D01*
X109450500Y-88379947D01*
X109450498Y-88379949D01*
X109373048Y-88474321D01*
X109296256Y-88617990D01*
X109248967Y-88773880D01*
X109233000Y-88936000D01*
X109237001Y-88976623D01*
X109237001Y-89006451D01*
X108864000Y-89006451D01*
X108760690Y-89016626D01*
X108661350Y-89046761D01*
X108582325Y-89089000D01*
X107324613Y-89089000D01*
X107283999Y-89085000D01*
X107243385Y-89089000D01*
X107243376Y-89089000D01*
X107121880Y-89100966D01*
X106965990Y-89148255D01*
X106822321Y-89225048D01*
X106696394Y-89328394D01*
X106670495Y-89359952D01*
X106527000Y-89503447D01*
X106527000Y-73424673D01*
X106678189Y-73487297D01*
X106847623Y-73521000D01*
X107020377Y-73521000D01*
X107189811Y-73487297D01*
X107349415Y-73421187D01*
X107493055Y-73325210D01*
X107615210Y-73203055D01*
X107711187Y-73059415D01*
X107727485Y-73020069D01*
X107826451Y-72921103D01*
X107826451Y-73532000D01*
X107836626Y-73635310D01*
X107866761Y-73734650D01*
X107915696Y-73826202D01*
X107981552Y-73906448D01*
X108061798Y-73972304D01*
X108153350Y-74021239D01*
X108252690Y-74051374D01*
X108356000Y-74061549D01*
X108729001Y-74061549D01*
X108729000Y-75479386D01*
X108725000Y-75520000D01*
X108729000Y-75560614D01*
X108729000Y-75560623D01*
X108740966Y-75682119D01*
X108788255Y-75838009D01*
X108788256Y-75838010D01*
X108865048Y-75981679D01*
X108873934Y-75992506D01*
X108968394Y-76107606D01*
X108999952Y-76133505D01*
X110384497Y-77518051D01*
X110410394Y-77549606D01*
X110441947Y-77575501D01*
X110441948Y-77575502D01*
X110536320Y-77652952D01*
X110573738Y-77672952D01*
X110679990Y-77729745D01*
X110835880Y-77777034D01*
X110957376Y-77789000D01*
X110957386Y-77789000D01*
X110998000Y-77793000D01*
X111038614Y-77789000D01*
X123096396Y-77789000D01*
X123122880Y-77797034D01*
X123244376Y-77809000D01*
X123244385Y-77809000D01*
X123284999Y-77813000D01*
X123325613Y-77809000D01*
X123392530Y-77809000D01*
X123395761Y-77819650D01*
X123444696Y-77911202D01*
X123510552Y-77991448D01*
X123590798Y-78057304D01*
X123682350Y-78106239D01*
X123781690Y-78136374D01*
X123885000Y-78146549D01*
X127445000Y-78146549D01*
X127548310Y-78136374D01*
X127647650Y-78106239D01*
X127739202Y-78057304D01*
X127819448Y-77991448D01*
X127885304Y-77911202D01*
X127934239Y-77819650D01*
X127964374Y-77720310D01*
X127974549Y-77617000D01*
X128456928Y-77617000D01*
X128469188Y-77741482D01*
X128505498Y-77861180D01*
X128564463Y-77971494D01*
X128643815Y-78068185D01*
X128740506Y-78147537D01*
X128850820Y-78206502D01*
X128970518Y-78242812D01*
X129095000Y-78255072D01*
X130589250Y-78252000D01*
X130748000Y-78093250D01*
X130748000Y-77109000D01*
X131002000Y-77109000D01*
X131002000Y-78093250D01*
X131160750Y-78252000D01*
X132655000Y-78255072D01*
X132779482Y-78242812D01*
X132899180Y-78206502D01*
X133009494Y-78147537D01*
X133106185Y-78068185D01*
X133185537Y-77971494D01*
X133244502Y-77861180D01*
X133280812Y-77741482D01*
X133293072Y-77617000D01*
X133290000Y-77267750D01*
X133131250Y-77109000D01*
X131002000Y-77109000D01*
X130748000Y-77109000D01*
X128618750Y-77109000D01*
X128460000Y-77267750D01*
X128456928Y-77617000D01*
X127974549Y-77617000D01*
X127974549Y-76347000D01*
X128456928Y-76347000D01*
X128460000Y-76696250D01*
X128618750Y-76855000D01*
X130748000Y-76855000D01*
X130748000Y-75870750D01*
X131002000Y-75870750D01*
X131002000Y-76855000D01*
X133131250Y-76855000D01*
X133290000Y-76696250D01*
X133293072Y-76347000D01*
X133280812Y-76222518D01*
X133244502Y-76102820D01*
X133185537Y-75992506D01*
X133106185Y-75895815D01*
X133009494Y-75816463D01*
X132899180Y-75757498D01*
X132779482Y-75721188D01*
X132655000Y-75708928D01*
X131160750Y-75712000D01*
X131002000Y-75870750D01*
X130748000Y-75870750D01*
X130589250Y-75712000D01*
X129095000Y-75708928D01*
X128970518Y-75721188D01*
X128850820Y-75757498D01*
X128740506Y-75816463D01*
X128643815Y-75895815D01*
X128564463Y-75992506D01*
X128505498Y-76102820D01*
X128469188Y-76222518D01*
X128456928Y-76347000D01*
X127974549Y-76347000D01*
X127964374Y-76243690D01*
X127934239Y-76144350D01*
X127885304Y-76052798D01*
X127819448Y-75972552D01*
X127739202Y-75906696D01*
X127647650Y-75857761D01*
X127548310Y-75827626D01*
X127445000Y-75817451D01*
X123885000Y-75817451D01*
X123781690Y-75827626D01*
X123682350Y-75857761D01*
X123590798Y-75906696D01*
X123510552Y-75972552D01*
X123444696Y-76052798D01*
X123396001Y-76143901D01*
X123305624Y-76135000D01*
X123305614Y-76135000D01*
X123265000Y-76131000D01*
X123224386Y-76135000D01*
X111340554Y-76135000D01*
X110383000Y-75177447D01*
X110383000Y-74843623D01*
X121551000Y-74843623D01*
X121551000Y-75016377D01*
X121584703Y-75185811D01*
X121650813Y-75345415D01*
X121746790Y-75489055D01*
X121868945Y-75611210D01*
X122012585Y-75707187D01*
X122172189Y-75773297D01*
X122341623Y-75807000D01*
X122514377Y-75807000D01*
X122683811Y-75773297D01*
X122843415Y-75707187D01*
X122987055Y-75611210D01*
X123109210Y-75489055D01*
X123132423Y-75454314D01*
X123395535Y-75278906D01*
X123395761Y-75279650D01*
X123444696Y-75371202D01*
X123510552Y-75451448D01*
X123590798Y-75517304D01*
X123682350Y-75566239D01*
X123781690Y-75596374D01*
X123885000Y-75606549D01*
X127445000Y-75606549D01*
X127548310Y-75596374D01*
X127647650Y-75566239D01*
X127739202Y-75517304D01*
X127819448Y-75451448D01*
X127885304Y-75371202D01*
X127934239Y-75279650D01*
X127964374Y-75180310D01*
X127974549Y-75077000D01*
X127974549Y-73807000D01*
X128565451Y-73807000D01*
X128565451Y-75077000D01*
X128575626Y-75180310D01*
X128605761Y-75279650D01*
X128654696Y-75371202D01*
X128720552Y-75451448D01*
X128800798Y-75517304D01*
X128892350Y-75566239D01*
X128991690Y-75596374D01*
X129095000Y-75606549D01*
X132655000Y-75606549D01*
X132758310Y-75596374D01*
X132857650Y-75566239D01*
X132949202Y-75517304D01*
X133029448Y-75451448D01*
X133095304Y-75371202D01*
X133144239Y-75279650D01*
X133153537Y-75249000D01*
X133308844Y-75249000D01*
X133348189Y-75265297D01*
X133517623Y-75299000D01*
X133690377Y-75299000D01*
X133859811Y-75265297D01*
X134019415Y-75199187D01*
X134163055Y-75103210D01*
X134285210Y-74981055D01*
X134381187Y-74837415D01*
X134447297Y-74677811D01*
X134481000Y-74508377D01*
X134481000Y-74335623D01*
X134447297Y-74166189D01*
X134381187Y-74006585D01*
X134285210Y-73862945D01*
X134163055Y-73740790D01*
X134019415Y-73644813D01*
X133859811Y-73578703D01*
X133690377Y-73545000D01*
X133517623Y-73545000D01*
X133348189Y-73578703D01*
X133308844Y-73595000D01*
X133139241Y-73595000D01*
X133095304Y-73512798D01*
X133029448Y-73432552D01*
X132949202Y-73366696D01*
X132857650Y-73317761D01*
X132758310Y-73287626D01*
X132655000Y-73277451D01*
X129095000Y-73277451D01*
X128991690Y-73287626D01*
X128892350Y-73317761D01*
X128800798Y-73366696D01*
X128720552Y-73432552D01*
X128654696Y-73512798D01*
X128605761Y-73604350D01*
X128575626Y-73703690D01*
X128565451Y-73807000D01*
X127974549Y-73807000D01*
X127964374Y-73703690D01*
X127934239Y-73604350D01*
X127885304Y-73512798D01*
X127819448Y-73432552D01*
X127739202Y-73366696D01*
X127647650Y-73317761D01*
X127548310Y-73287626D01*
X127445000Y-73277451D01*
X123885000Y-73277451D01*
X123781690Y-73287626D01*
X123682350Y-73317761D01*
X123590798Y-73366696D01*
X123510552Y-73432552D01*
X123444696Y-73512798D01*
X123395761Y-73604350D01*
X123392530Y-73615000D01*
X123378793Y-73615000D01*
X123352972Y-73607138D01*
X123352543Y-73607095D01*
X123352120Y-73606967D01*
X123271169Y-73598994D01*
X123190868Y-73591000D01*
X123190432Y-73591043D01*
X123190000Y-73591000D01*
X123109656Y-73598913D01*
X123028731Y-73606798D01*
X123028313Y-73606924D01*
X123027880Y-73606967D01*
X122951008Y-73630286D01*
X122872792Y-73653923D01*
X122872402Y-73654131D01*
X122871990Y-73654256D01*
X122800870Y-73692270D01*
X122765064Y-73711361D01*
X122764704Y-73711601D01*
X122728321Y-73731048D01*
X122697101Y-73756670D01*
X122214750Y-74078237D01*
X122172189Y-74086703D01*
X122012585Y-74152813D01*
X121868945Y-74248790D01*
X121746790Y-74370945D01*
X121650813Y-74514585D01*
X121584703Y-74674189D01*
X121551000Y-74843623D01*
X110383000Y-74843623D01*
X110383000Y-74061549D01*
X110756000Y-74061549D01*
X110859310Y-74051374D01*
X110958650Y-74021239D01*
X111050202Y-73972304D01*
X111130448Y-73906448D01*
X111196304Y-73826202D01*
X111245239Y-73734650D01*
X111275374Y-73635310D01*
X111285549Y-73532000D01*
X111617928Y-73532000D01*
X111630188Y-73656482D01*
X111666498Y-73776180D01*
X111725463Y-73886494D01*
X111804815Y-73983185D01*
X111901506Y-74062537D01*
X112011820Y-74121502D01*
X112131518Y-74157812D01*
X112256000Y-74170072D01*
X113170250Y-74167000D01*
X113329000Y-74008250D01*
X113329000Y-73279000D01*
X113583000Y-73279000D01*
X113583000Y-74008250D01*
X113741750Y-74167000D01*
X114656000Y-74170072D01*
X114780482Y-74157812D01*
X114900180Y-74121502D01*
X115010494Y-74062537D01*
X115107185Y-73983185D01*
X115186537Y-73886494D01*
X115245502Y-73776180D01*
X115281812Y-73656482D01*
X115294072Y-73532000D01*
X115291000Y-73437750D01*
X115132250Y-73279000D01*
X113583000Y-73279000D01*
X113329000Y-73279000D01*
X111779750Y-73279000D01*
X111621000Y-73437750D01*
X111617928Y-73532000D01*
X111285549Y-73532000D01*
X111285549Y-72772000D01*
X111275374Y-72668690D01*
X111245239Y-72569350D01*
X111217258Y-72517000D01*
X111245239Y-72464650D01*
X111275374Y-72365310D01*
X111285549Y-72262000D01*
X111285549Y-71502000D01*
X111275374Y-71398690D01*
X111245239Y-71299350D01*
X111217258Y-71247000D01*
X111245239Y-71194650D01*
X111275374Y-71095310D01*
X111285549Y-70992000D01*
X111617928Y-70992000D01*
X111630188Y-71116482D01*
X111666498Y-71236180D01*
X111725463Y-71346494D01*
X111745174Y-71370512D01*
X111736626Y-71398690D01*
X111726451Y-71502000D01*
X111726451Y-72262000D01*
X111736626Y-72365310D01*
X111745174Y-72393488D01*
X111725463Y-72417506D01*
X111666498Y-72527820D01*
X111630188Y-72647518D01*
X111617928Y-72772000D01*
X111621000Y-72866250D01*
X111779750Y-73025000D01*
X113329000Y-73025000D01*
X113329000Y-73005000D01*
X113583000Y-73005000D01*
X113583000Y-73025000D01*
X115132250Y-73025000D01*
X115180848Y-72976402D01*
X116674499Y-74470053D01*
X116700394Y-74501606D01*
X116731947Y-74527501D01*
X116731948Y-74527502D01*
X116826320Y-74604952D01*
X116903113Y-74645998D01*
X116969990Y-74681745D01*
X117125880Y-74729034D01*
X117247376Y-74741000D01*
X117247386Y-74741000D01*
X117288000Y-74745000D01*
X117328614Y-74741000D01*
X119084844Y-74741000D01*
X119124189Y-74757297D01*
X119293623Y-74791000D01*
X119466377Y-74791000D01*
X119635811Y-74757297D01*
X119795415Y-74691187D01*
X119939055Y-74595210D01*
X120061210Y-74473055D01*
X120157187Y-74329415D01*
X120223297Y-74169811D01*
X120257000Y-74000377D01*
X120257000Y-73827623D01*
X120223297Y-73658189D01*
X120157187Y-73498585D01*
X120061210Y-73354945D01*
X119939055Y-73232790D01*
X119917118Y-73218132D01*
X119928614Y-73217000D01*
X119928624Y-73217000D01*
X120050120Y-73205034D01*
X120206010Y-73157745D01*
X120349679Y-73080952D01*
X120475606Y-72977606D01*
X120501505Y-72946048D01*
X120738554Y-72709000D01*
X123392530Y-72709000D01*
X123395761Y-72719650D01*
X123444696Y-72811202D01*
X123510552Y-72891448D01*
X123590798Y-72957304D01*
X123682350Y-73006239D01*
X123781690Y-73036374D01*
X123885000Y-73046549D01*
X127445000Y-73046549D01*
X127548310Y-73036374D01*
X127647650Y-73006239D01*
X127739202Y-72957304D01*
X127819448Y-72891448D01*
X127885304Y-72811202D01*
X127934239Y-72719650D01*
X127964374Y-72620310D01*
X127974549Y-72517000D01*
X128456928Y-72517000D01*
X128469188Y-72641482D01*
X128505498Y-72761180D01*
X128564463Y-72871494D01*
X128643815Y-72968185D01*
X128740506Y-73047537D01*
X128850820Y-73106502D01*
X128970518Y-73142812D01*
X129095000Y-73155072D01*
X130589250Y-73152000D01*
X130748000Y-72993250D01*
X130748000Y-72009000D01*
X131002000Y-72009000D01*
X131002000Y-72993250D01*
X131160750Y-73152000D01*
X132655000Y-73155072D01*
X132779482Y-73142812D01*
X132899180Y-73106502D01*
X133009494Y-73047537D01*
X133106185Y-72968185D01*
X133185537Y-72871494D01*
X133244502Y-72761180D01*
X133280812Y-72641482D01*
X133293072Y-72517000D01*
X133290000Y-72167750D01*
X133131250Y-72009000D01*
X131002000Y-72009000D01*
X130748000Y-72009000D01*
X128618750Y-72009000D01*
X128460000Y-72167750D01*
X128456928Y-72517000D01*
X127974549Y-72517000D01*
X127974549Y-71247000D01*
X127964374Y-71143690D01*
X127934239Y-71044350D01*
X127885304Y-70952798D01*
X127819448Y-70872552D01*
X127739202Y-70806696D01*
X127647650Y-70757761D01*
X127548310Y-70727626D01*
X127445000Y-70717451D01*
X123885000Y-70717451D01*
X123781690Y-70727626D01*
X123682350Y-70757761D01*
X123590798Y-70806696D01*
X123510552Y-70872552D01*
X123444696Y-70952798D01*
X123395761Y-71044350D01*
X123392530Y-71055000D01*
X120436610Y-71055000D01*
X120395999Y-71051000D01*
X120355388Y-71055000D01*
X120355376Y-71055000D01*
X120233880Y-71066966D01*
X120077990Y-71114255D01*
X120077988Y-71114256D01*
X119934319Y-71191049D01*
X119839949Y-71268497D01*
X119808394Y-71294394D01*
X119782499Y-71325947D01*
X119574032Y-71534414D01*
X119466377Y-71513000D01*
X119293623Y-71513000D01*
X119124189Y-71546703D01*
X118964585Y-71612813D01*
X118820945Y-71708790D01*
X118698790Y-71830945D01*
X118602813Y-71974585D01*
X118536703Y-72134189D01*
X118503000Y-72303623D01*
X118503000Y-72476377D01*
X118536703Y-72645811D01*
X118602813Y-72805415D01*
X118698790Y-72949055D01*
X118820945Y-73071210D01*
X118844576Y-73087000D01*
X117630554Y-73087000D01*
X115869505Y-71325952D01*
X115843606Y-71294394D01*
X115717679Y-71191048D01*
X115574010Y-71114255D01*
X115418120Y-71066966D01*
X115296624Y-71055000D01*
X115296614Y-71055000D01*
X115287951Y-71054147D01*
X115294072Y-70992000D01*
X115291000Y-70897750D01*
X115132250Y-70739000D01*
X113583000Y-70739000D01*
X113583000Y-70759000D01*
X113329000Y-70759000D01*
X113329000Y-70739000D01*
X111779750Y-70739000D01*
X111621000Y-70897750D01*
X111617928Y-70992000D01*
X111285549Y-70992000D01*
X111285549Y-70232000D01*
X111275374Y-70128690D01*
X111245239Y-70029350D01*
X111217258Y-69977000D01*
X111245239Y-69924650D01*
X111275374Y-69825310D01*
X111285549Y-69722000D01*
X111617928Y-69722000D01*
X111630188Y-69846482D01*
X111666498Y-69966180D01*
X111672282Y-69977000D01*
X111666498Y-69987820D01*
X111630188Y-70107518D01*
X111617928Y-70232000D01*
X111621000Y-70326250D01*
X111779750Y-70485000D01*
X113329000Y-70485000D01*
X113329000Y-69469000D01*
X113583000Y-69469000D01*
X113583000Y-70485000D01*
X115132250Y-70485000D01*
X115291000Y-70326250D01*
X115294072Y-70232000D01*
X115281812Y-70107518D01*
X115245502Y-69987820D01*
X115239718Y-69977000D01*
X115245502Y-69966180D01*
X115281812Y-69846482D01*
X115294072Y-69722000D01*
X115291000Y-69627750D01*
X115172873Y-69509623D01*
X118249000Y-69509623D01*
X118249000Y-69682377D01*
X118282703Y-69851811D01*
X118348813Y-70011415D01*
X118444790Y-70155055D01*
X118566945Y-70277210D01*
X118710585Y-70373187D01*
X118870189Y-70439297D01*
X119039623Y-70473000D01*
X119212377Y-70473000D01*
X119381811Y-70439297D01*
X119421156Y-70423000D01*
X120609386Y-70423000D01*
X120650000Y-70427000D01*
X120690614Y-70423000D01*
X120690624Y-70423000D01*
X120812120Y-70411034D01*
X120968010Y-70363745D01*
X121111679Y-70286952D01*
X121237606Y-70183606D01*
X121249593Y-70169000D01*
X123392530Y-70169000D01*
X123395761Y-70179650D01*
X123444696Y-70271202D01*
X123510552Y-70351448D01*
X123590798Y-70417304D01*
X123682350Y-70466239D01*
X123781690Y-70496374D01*
X123885000Y-70506549D01*
X127445000Y-70506549D01*
X127548310Y-70496374D01*
X127647650Y-70466239D01*
X127739202Y-70417304D01*
X127819448Y-70351448D01*
X127885304Y-70271202D01*
X127934239Y-70179650D01*
X127964374Y-70080310D01*
X127974549Y-69977000D01*
X128456928Y-69977000D01*
X128469188Y-70101482D01*
X128505498Y-70221180D01*
X128564463Y-70331494D01*
X128643815Y-70428185D01*
X128740506Y-70507537D01*
X128850820Y-70566502D01*
X128970518Y-70602812D01*
X129063808Y-70612000D01*
X128970518Y-70621188D01*
X128850820Y-70657498D01*
X128740506Y-70716463D01*
X128643815Y-70795815D01*
X128564463Y-70892506D01*
X128505498Y-71002820D01*
X128469188Y-71122518D01*
X128456928Y-71247000D01*
X128460000Y-71596250D01*
X128618750Y-71755000D01*
X130748000Y-71755000D01*
X130748000Y-70770750D01*
X130589250Y-70612000D01*
X130748000Y-70453250D01*
X130748000Y-69469000D01*
X131002000Y-69469000D01*
X131002000Y-70453250D01*
X131160750Y-70612000D01*
X131002000Y-70770750D01*
X131002000Y-71755000D01*
X133131250Y-71755000D01*
X133290000Y-71596250D01*
X133293072Y-71247000D01*
X133280812Y-71122518D01*
X133244502Y-71002820D01*
X133185537Y-70892506D01*
X133106185Y-70795815D01*
X133009494Y-70716463D01*
X132899180Y-70657498D01*
X132779482Y-70621188D01*
X132686192Y-70612000D01*
X132779482Y-70602812D01*
X132899180Y-70566502D01*
X133009494Y-70507537D01*
X133106185Y-70428185D01*
X133185537Y-70331494D01*
X133244502Y-70221180D01*
X133280812Y-70101482D01*
X133293072Y-69977000D01*
X133290000Y-69627750D01*
X133131250Y-69469000D01*
X131002000Y-69469000D01*
X130748000Y-69469000D01*
X128618750Y-69469000D01*
X128460000Y-69627750D01*
X128456928Y-69977000D01*
X127974549Y-69977000D01*
X127974549Y-68707000D01*
X128456928Y-68707000D01*
X128460000Y-69056250D01*
X128618750Y-69215000D01*
X130748000Y-69215000D01*
X130748000Y-68230750D01*
X131002000Y-68230750D01*
X131002000Y-69215000D01*
X133131250Y-69215000D01*
X133290000Y-69056250D01*
X133293072Y-68707000D01*
X133280812Y-68582518D01*
X133244502Y-68462820D01*
X133185537Y-68352506D01*
X133106185Y-68255815D01*
X133009494Y-68176463D01*
X132899180Y-68117498D01*
X132779482Y-68081188D01*
X132655000Y-68068928D01*
X131160750Y-68072000D01*
X131002000Y-68230750D01*
X130748000Y-68230750D01*
X130589250Y-68072000D01*
X129095000Y-68068928D01*
X128970518Y-68081188D01*
X128850820Y-68117498D01*
X128740506Y-68176463D01*
X128643815Y-68255815D01*
X128564463Y-68352506D01*
X128505498Y-68462820D01*
X128469188Y-68582518D01*
X128456928Y-68707000D01*
X127974549Y-68707000D01*
X127964374Y-68603690D01*
X127934239Y-68504350D01*
X127885304Y-68412798D01*
X127819448Y-68332552D01*
X127739202Y-68266696D01*
X127647650Y-68217761D01*
X127548310Y-68187626D01*
X127445000Y-68177451D01*
X123885000Y-68177451D01*
X123781690Y-68187626D01*
X123682350Y-68217761D01*
X123590798Y-68266696D01*
X123510552Y-68332552D01*
X123444696Y-68412798D01*
X123395761Y-68504350D01*
X123392530Y-68515000D01*
X120944613Y-68515000D01*
X120903999Y-68511000D01*
X120863385Y-68515000D01*
X120863376Y-68515000D01*
X120741880Y-68526966D01*
X120585990Y-68574255D01*
X120492364Y-68624299D01*
X120442320Y-68651048D01*
X120430450Y-68660790D01*
X120316394Y-68754394D01*
X120304407Y-68769000D01*
X119421156Y-68769000D01*
X119381811Y-68752703D01*
X119212377Y-68719000D01*
X119039623Y-68719000D01*
X118870189Y-68752703D01*
X118710585Y-68818813D01*
X118566945Y-68914790D01*
X118444790Y-69036945D01*
X118348813Y-69180585D01*
X118282703Y-69340189D01*
X118249000Y-69509623D01*
X115172873Y-69509623D01*
X115132250Y-69469000D01*
X113583000Y-69469000D01*
X113329000Y-69469000D01*
X111779750Y-69469000D01*
X111621000Y-69627750D01*
X111617928Y-69722000D01*
X111285549Y-69722000D01*
X111285549Y-68962000D01*
X111617928Y-68962000D01*
X111621000Y-69056250D01*
X111779750Y-69215000D01*
X113329000Y-69215000D01*
X113329000Y-69195000D01*
X113583000Y-69195000D01*
X113583000Y-69215000D01*
X115132250Y-69215000D01*
X115291000Y-69056250D01*
X115294072Y-68962000D01*
X115281812Y-68837518D01*
X115245502Y-68717820D01*
X115186537Y-68607506D01*
X115166826Y-68583488D01*
X115175374Y-68555310D01*
X115185549Y-68452000D01*
X115185549Y-67692000D01*
X115175374Y-67588690D01*
X115145239Y-67489350D01*
X115096304Y-67397798D01*
X115030448Y-67317552D01*
X114950202Y-67251696D01*
X114858650Y-67202761D01*
X114759310Y-67172626D01*
X114656000Y-67162451D01*
X114555103Y-67162451D01*
X114596554Y-67121000D01*
X119846844Y-67121000D01*
X119886189Y-67137297D01*
X120055623Y-67171000D01*
X120228377Y-67171000D01*
X120397811Y-67137297D01*
X120557415Y-67071187D01*
X120701055Y-66975210D01*
X120823210Y-66853055D01*
X120919187Y-66709415D01*
X120985297Y-66549811D01*
X121019000Y-66380377D01*
X121019000Y-66207623D01*
X120985297Y-66038189D01*
X120919187Y-65878585D01*
X120823210Y-65734945D01*
X120701055Y-65612790D01*
X120557415Y-65516813D01*
X120397811Y-65450703D01*
X120228377Y-65417000D01*
X120055623Y-65417000D01*
X119886189Y-65450703D01*
X119846844Y-65467000D01*
X114294610Y-65467000D01*
X114253999Y-65463000D01*
X114213388Y-65467000D01*
X114213376Y-65467000D01*
X114091880Y-65478966D01*
X113935990Y-65526255D01*
X113887677Y-65552079D01*
X113792319Y-65603049D01*
X113697947Y-65680498D01*
X113697941Y-65680504D01*
X113666394Y-65706394D01*
X113640503Y-65737942D01*
X112899947Y-66478500D01*
X112868395Y-66504394D01*
X112842500Y-66535947D01*
X112842498Y-66535949D01*
X112765048Y-66630321D01*
X112688256Y-66773990D01*
X112640967Y-66929880D01*
X112625000Y-67092000D01*
X112629001Y-67132623D01*
X112629001Y-67162451D01*
X112256000Y-67162451D01*
X112152690Y-67172626D01*
X112053350Y-67202761D01*
X111961798Y-67251696D01*
X111881552Y-67317552D01*
X111815696Y-67397798D01*
X111766761Y-67489350D01*
X111736626Y-67588690D01*
X111726451Y-67692000D01*
X111726451Y-68452000D01*
X111736626Y-68555310D01*
X111745174Y-68583488D01*
X111725463Y-68607506D01*
X111666498Y-68717820D01*
X111630188Y-68837518D01*
X111617928Y-68962000D01*
X111285549Y-68962000D01*
X111275374Y-68858690D01*
X111245239Y-68759350D01*
X111217258Y-68707000D01*
X111245239Y-68654650D01*
X111275374Y-68555310D01*
X111285549Y-68452000D01*
X111285549Y-67692000D01*
X111275374Y-67588690D01*
X111245239Y-67489350D01*
X111196304Y-67397798D01*
X111130448Y-67317552D01*
X111050202Y-67251696D01*
X110958650Y-67202761D01*
X110859310Y-67172626D01*
X110756000Y-67162451D01*
X110655102Y-67162451D01*
X112728555Y-65089000D01*
X124017447Y-65089000D01*
X124565897Y-65637451D01*
X123885000Y-65637451D01*
X123781690Y-65647626D01*
X123682350Y-65677761D01*
X123590798Y-65726696D01*
X123510552Y-65792552D01*
X123444696Y-65872798D01*
X123395761Y-65964350D01*
X123365626Y-66063690D01*
X123355451Y-66167000D01*
X123355451Y-67437000D01*
X123365626Y-67540310D01*
X123395761Y-67639650D01*
X123444696Y-67731202D01*
X123510552Y-67811448D01*
X123590798Y-67877304D01*
X123682350Y-67926239D01*
X123781690Y-67956374D01*
X123885000Y-67966549D01*
X127445000Y-67966549D01*
X127548310Y-67956374D01*
X127647650Y-67926239D01*
X127739202Y-67877304D01*
X127819448Y-67811448D01*
X127885304Y-67731202D01*
X127934239Y-67639650D01*
X127964374Y-67540310D01*
X127974549Y-67437000D01*
X127974549Y-66167000D01*
X128565451Y-66167000D01*
X128565451Y-67437000D01*
X128575626Y-67540310D01*
X128605761Y-67639650D01*
X128654696Y-67731202D01*
X128720552Y-67811448D01*
X128800798Y-67877304D01*
X128892350Y-67926239D01*
X128991690Y-67956374D01*
X129095000Y-67966549D01*
X132655000Y-67966549D01*
X132758310Y-67956374D01*
X132857650Y-67926239D01*
X132938545Y-67883000D01*
X133308844Y-67883000D01*
X133348189Y-67899297D01*
X133517623Y-67933000D01*
X133690377Y-67933000D01*
X133859811Y-67899297D01*
X134019415Y-67833187D01*
X134163055Y-67737210D01*
X134285210Y-67615055D01*
X134381187Y-67471415D01*
X134447297Y-67311811D01*
X134481000Y-67142377D01*
X134481000Y-66969623D01*
X134447297Y-66800189D01*
X134381187Y-66640585D01*
X134285210Y-66496945D01*
X134163055Y-66374790D01*
X134019415Y-66278813D01*
X133859811Y-66212703D01*
X133690377Y-66179000D01*
X133517623Y-66179000D01*
X133348189Y-66212703D01*
X133308844Y-66229000D01*
X133184549Y-66229000D01*
X133184549Y-66167000D01*
X133174374Y-66063690D01*
X133144239Y-65964350D01*
X133095304Y-65872798D01*
X133029448Y-65792552D01*
X132949202Y-65726696D01*
X132857650Y-65677761D01*
X132758310Y-65647626D01*
X132655000Y-65637451D01*
X129095000Y-65637451D01*
X128991690Y-65647626D01*
X128892350Y-65677761D01*
X128800798Y-65726696D01*
X128720552Y-65792552D01*
X128654696Y-65872798D01*
X128605761Y-65964350D01*
X128575626Y-66063690D01*
X128565451Y-66167000D01*
X127974549Y-66167000D01*
X127964374Y-66063690D01*
X127934239Y-65964350D01*
X127885304Y-65872798D01*
X127819448Y-65792552D01*
X127739202Y-65726696D01*
X127647650Y-65677761D01*
X127548310Y-65647626D01*
X127445000Y-65637451D01*
X126492000Y-65637451D01*
X126492000Y-65607614D01*
X126496000Y-65567000D01*
X126492000Y-65526386D01*
X126492000Y-65526376D01*
X126480034Y-65404880D01*
X126432745Y-65248990D01*
X126381073Y-65152318D01*
X126355952Y-65105320D01*
X126278503Y-65010948D01*
X126278496Y-65010941D01*
X126252606Y-64979394D01*
X126221059Y-64953504D01*
X124973505Y-63705952D01*
X124947606Y-63674394D01*
X124821679Y-63571048D01*
X124678010Y-63494255D01*
X124522120Y-63446966D01*
X124400624Y-63435000D01*
X124400614Y-63435000D01*
X124360000Y-63431000D01*
X124319386Y-63435000D01*
X113272794Y-63435000D01*
X113279374Y-63413310D01*
X113289549Y-63310000D01*
X113289549Y-61310000D01*
X113279374Y-61206690D01*
X113249239Y-61107350D01*
X113200304Y-61015798D01*
X113134448Y-60935552D01*
X113054202Y-60869696D01*
X112962650Y-60820761D01*
X112962000Y-60820564D01*
X112962000Y-60692560D01*
X113005033Y-60550700D01*
X113021000Y-60388579D01*
X113005033Y-60226459D01*
X112957744Y-60070569D01*
X112910350Y-59981901D01*
X112880952Y-59926900D01*
X112777606Y-59800974D01*
X112746046Y-59775073D01*
X112414925Y-59443952D01*
X112389026Y-59412394D01*
X112263099Y-59309048D01*
X112119430Y-59232255D01*
X111963540Y-59184966D01*
X111842044Y-59173000D01*
X111842034Y-59173000D01*
X111801420Y-59169000D01*
X111760806Y-59173000D01*
X111615119Y-59173000D01*
X111575868Y-59125172D01*
X111495622Y-59059316D01*
X111404070Y-59010381D01*
X111304730Y-58980246D01*
X111201420Y-58970071D01*
X110302260Y-58970071D01*
X110198950Y-58980246D01*
X110101761Y-59009729D01*
X110052234Y-58969083D01*
X109941920Y-58910118D01*
X109822222Y-58873808D01*
X109697740Y-58861548D01*
X109533910Y-58864620D01*
X109375160Y-59023370D01*
X109375160Y-59873000D01*
X109395160Y-59873000D01*
X109395160Y-60127000D01*
X109375160Y-60127000D01*
X109375160Y-60147000D01*
X109121160Y-60147000D01*
X109121160Y-60127000D01*
X108322330Y-60127000D01*
X108163580Y-60285750D01*
X108160508Y-60500380D01*
X108172768Y-60624862D01*
X108209078Y-60744560D01*
X108268043Y-60854874D01*
X108347395Y-60951565D01*
X108362343Y-60963832D01*
X108319696Y-61015798D01*
X108270761Y-61107350D01*
X108240626Y-61206690D01*
X108230451Y-61310000D01*
X108230451Y-63310000D01*
X108240626Y-63413310D01*
X108270761Y-63512650D01*
X108319696Y-63604202D01*
X108385552Y-63684448D01*
X108465798Y-63750304D01*
X108557350Y-63799239D01*
X108608001Y-63814604D01*
X108608001Y-64620345D01*
X108556703Y-64744189D01*
X108523000Y-64913623D01*
X108523000Y-65086377D01*
X108556703Y-65255811D01*
X108622813Y-65415415D01*
X108718790Y-65559055D01*
X108840945Y-65681210D01*
X108984585Y-65777187D01*
X109144189Y-65843297D01*
X109313623Y-65877000D01*
X109486377Y-65877000D01*
X109630019Y-65848427D01*
X108974340Y-66504107D01*
X108919343Y-66557932D01*
X108893782Y-66595309D01*
X108865048Y-66630321D01*
X108847907Y-66662391D01*
X108827384Y-66692400D01*
X108809604Y-66734050D01*
X108788256Y-66773990D01*
X108777702Y-66808783D01*
X108763426Y-66842224D01*
X108754113Y-66886544D01*
X108740967Y-66929880D01*
X108737403Y-66966063D01*
X108729926Y-67001647D01*
X108729438Y-67046938D01*
X108725000Y-67092000D01*
X108731939Y-67162451D01*
X108356000Y-67162451D01*
X108252690Y-67172626D01*
X108153350Y-67202761D01*
X108061798Y-67251696D01*
X107981552Y-67317552D01*
X107915696Y-67397798D01*
X107866761Y-67489350D01*
X107836626Y-67588690D01*
X107826451Y-67692000D01*
X107826451Y-68452000D01*
X107832656Y-68515000D01*
X107483156Y-68515000D01*
X107443811Y-68498703D01*
X107274377Y-68465000D01*
X107101623Y-68465000D01*
X106932189Y-68498703D01*
X106772585Y-68564813D01*
X106628945Y-68660790D01*
X106527000Y-68762735D01*
X106527000Y-59499620D01*
X108160508Y-59499620D01*
X108163580Y-59714250D01*
X108322330Y-59873000D01*
X109121160Y-59873000D01*
X109121160Y-59023370D01*
X108962410Y-58864620D01*
X108798580Y-58861548D01*
X108674098Y-58873808D01*
X108554400Y-58910118D01*
X108444086Y-58969083D01*
X108347395Y-59048435D01*
X108268043Y-59145126D01*
X108209078Y-59255440D01*
X108172768Y-59375138D01*
X108160508Y-59499620D01*
X106527000Y-59499620D01*
X106527000Y-58527000D01*
X155473001Y-58527000D01*
X155473000Y-103473000D01*
G37*
X155473000Y-103473000D02*
X106527000Y-103473000D01*
X106527000Y-95496553D01*
X106582495Y-95552048D01*
X106608394Y-95583606D01*
X106678026Y-95640752D01*
X106734320Y-95686952D01*
X106771738Y-95706952D01*
X106877990Y-95763745D01*
X107033880Y-95811034D01*
X107155376Y-95823000D01*
X107155385Y-95823000D01*
X107195999Y-95827000D01*
X107236613Y-95823000D01*
X108582325Y-95823000D01*
X108661350Y-95865239D01*
X108760690Y-95895374D01*
X108864000Y-95905549D01*
X109237001Y-95905549D01*
X109237001Y-95935377D01*
X109233000Y-95976000D01*
X109248967Y-96138120D01*
X109296256Y-96294010D01*
X109373048Y-96437679D01*
X109440608Y-96520000D01*
X109476395Y-96563606D01*
X109507948Y-96589501D01*
X113042499Y-100124053D01*
X113068394Y-100155606D01*
X113099947Y-100181501D01*
X113099948Y-100181502D01*
X113194320Y-100258952D01*
X113271113Y-100299998D01*
X113337990Y-100335745D01*
X113493880Y-100383034D01*
X113615376Y-100395000D01*
X113615385Y-100395000D01*
X113655999Y-100399000D01*
X113696613Y-100395000D01*
X125355386Y-100395000D01*
X125396000Y-100399000D01*
X125436614Y-100395000D01*
X125436624Y-100395000D01*
X125558120Y-100383034D01*
X125714010Y-100335745D01*
X125857679Y-100258952D01*
X125983606Y-100155606D01*
X126009505Y-100124048D01*
X126475054Y-99658500D01*
X126506606Y-99632606D01*
X126532503Y-99601051D01*
X126609952Y-99506680D01*
X126686744Y-99363011D01*
X126686745Y-99363010D01*
X126734034Y-99207120D01*
X126746000Y-99085624D01*
X126746000Y-99085614D01*
X126750000Y-99045000D01*
X126746000Y-99004386D01*
X126746000Y-98974549D01*
X127699000Y-98974549D01*
X127802310Y-98964374D01*
X127901650Y-98934239D01*
X127993202Y-98885304D01*
X128073448Y-98819448D01*
X128139304Y-98739202D01*
X128188239Y-98647650D01*
X128218374Y-98548310D01*
X128227846Y-98452142D01*
X128234246Y-98457394D01*
X128287321Y-98500952D01*
X128430990Y-98577745D01*
X128586880Y-98625034D01*
X128708376Y-98637000D01*
X128708388Y-98637000D01*
X128748999Y-98641000D01*
X128789610Y-98637000D01*
X128856530Y-98637000D01*
X128859761Y-98647650D01*
X128908696Y-98739202D01*
X128974552Y-98819448D01*
X129054798Y-98885304D01*
X129146350Y-98934239D01*
X129245690Y-98964374D01*
X129349000Y-98974549D01*
X132909000Y-98974549D01*
X133012310Y-98964374D01*
X133111650Y-98934239D01*
X133203202Y-98885304D01*
X133283448Y-98819448D01*
X133349304Y-98739202D01*
X133398239Y-98647650D01*
X133401470Y-98637000D01*
X134149386Y-98637000D01*
X134190000Y-98641000D01*
X134230614Y-98637000D01*
X134230624Y-98637000D01*
X134352120Y-98625034D01*
X134508010Y-98577745D01*
X134651679Y-98500952D01*
X134777606Y-98397606D01*
X134803505Y-98366048D01*
X136735930Y-96433623D01*
X138569000Y-96433623D01*
X138569000Y-96606377D01*
X138602703Y-96775811D01*
X138668813Y-96935415D01*
X138764790Y-97079055D01*
X138886945Y-97201210D01*
X139030585Y-97297187D01*
X139190189Y-97363297D01*
X139359623Y-97397000D01*
X139532377Y-97397000D01*
X139701811Y-97363297D01*
X139741156Y-97347000D01*
X140790386Y-97347000D01*
X140831000Y-97351000D01*
X140871614Y-97347000D01*
X140871624Y-97347000D01*
X140993120Y-97335034D01*
X141149010Y-97287745D01*
X141292679Y-97210952D01*
X141418606Y-97107606D01*
X141444505Y-97076048D01*
X142531052Y-95989502D01*
X142560552Y-96025448D01*
X142640798Y-96091304D01*
X142732350Y-96140239D01*
X142831690Y-96170374D01*
X142935000Y-96180549D01*
X146495000Y-96180549D01*
X146598310Y-96170374D01*
X146697650Y-96140239D01*
X146789202Y-96091304D01*
X146869448Y-96025448D01*
X146935304Y-95945202D01*
X146984239Y-95853650D01*
X147014374Y-95754310D01*
X147024549Y-95651000D01*
X147024549Y-94381000D01*
X147014374Y-94277690D01*
X146984239Y-94178350D01*
X146935304Y-94086798D01*
X146869448Y-94006552D01*
X146789202Y-93940696D01*
X146697650Y-93891761D01*
X146598310Y-93861626D01*
X146495000Y-93851451D01*
X142935000Y-93851451D01*
X142831690Y-93861626D01*
X142732350Y-93891761D01*
X142640798Y-93940696D01*
X142560552Y-94006552D01*
X142494696Y-94086798D01*
X142445761Y-94178350D01*
X142442530Y-94189000D01*
X142375613Y-94189000D01*
X142334999Y-94185000D01*
X142294385Y-94189000D01*
X142294376Y-94189000D01*
X142172880Y-94200966D01*
X142016990Y-94248255D01*
X141993984Y-94260552D01*
X141873319Y-94325048D01*
X141781746Y-94400202D01*
X141747394Y-94428394D01*
X141721499Y-94459947D01*
X140488447Y-95693000D01*
X139741156Y-95693000D01*
X139701811Y-95676703D01*
X139532377Y-95643000D01*
X139359623Y-95643000D01*
X139190189Y-95676703D01*
X139030585Y-95742813D01*
X138886945Y-95838790D01*
X138764790Y-95960945D01*
X138668813Y-96104585D01*
X138602703Y-96264189D01*
X138569000Y-96433623D01*
X136735930Y-96433623D01*
X139942555Y-93227000D01*
X142027720Y-93227000D01*
X142172880Y-93271034D01*
X142294376Y-93283000D01*
X142294386Y-93283000D01*
X142335000Y-93287000D01*
X142375614Y-93283000D01*
X142442530Y-93283000D01*
X142445761Y-93293650D01*
X142494696Y-93385202D01*
X142560552Y-93465448D01*
X142640798Y-93531304D01*
X142732350Y-93580239D01*
X142831690Y-93610374D01*
X142935000Y-93620549D01*
X146495000Y-93620549D01*
X146598310Y-93610374D01*
X146697650Y-93580239D01*
X146789202Y-93531304D01*
X146869448Y-93465448D01*
X146935304Y-93385202D01*
X146984239Y-93293650D01*
X147014374Y-93194310D01*
X147024549Y-93091000D01*
X147024549Y-91821000D01*
X147014374Y-91717690D01*
X146984239Y-91618350D01*
X146935304Y-91526798D01*
X146869448Y-91446552D01*
X146789202Y-91380696D01*
X146697650Y-91331761D01*
X146598310Y-91301626D01*
X146495000Y-91291451D01*
X142935000Y-91291451D01*
X142831690Y-91301626D01*
X142732350Y-91331761D01*
X142640798Y-91380696D01*
X142560552Y-91446552D01*
X142494696Y-91526798D01*
X142460468Y-91590835D01*
X142441120Y-91584966D01*
X142319624Y-91573000D01*
X142319614Y-91573000D01*
X142279000Y-91569000D01*
X142238386Y-91573000D01*
X139640610Y-91573000D01*
X139599999Y-91569000D01*
X139559388Y-91573000D01*
X139559376Y-91573000D01*
X139437880Y-91584966D01*
X139281990Y-91632255D01*
X139177680Y-91688010D01*
X139138319Y-91709049D01*
X139043947Y-91786498D01*
X139043941Y-91786504D01*
X139012394Y-91812394D01*
X138986504Y-91843941D01*
X133847447Y-96983000D01*
X133401470Y-96983000D01*
X133398239Y-96972350D01*
X133349304Y-96880798D01*
X133283448Y-96800552D01*
X133203202Y-96734696D01*
X133111650Y-96685761D01*
X133012310Y-96655626D01*
X132909000Y-96645451D01*
X129486996Y-96645451D01*
X129467745Y-96581990D01*
X129390952Y-96438321D01*
X129387856Y-96434549D01*
X132909000Y-96434549D01*
X133012310Y-96424374D01*
X133111650Y-96394239D01*
X133203202Y-96345304D01*
X133283448Y-96279448D01*
X133349304Y-96199202D01*
X133398239Y-96107650D01*
X133401470Y-96097000D01*
X133468386Y-96097000D01*
X133509000Y-96101000D01*
X133549614Y-96097000D01*
X133549624Y-96097000D01*
X133671120Y-96085034D01*
X133827010Y-96037745D01*
X133970679Y-95960952D01*
X134096606Y-95857606D01*
X134122505Y-95826048D01*
X139205555Y-90743000D01*
X142442530Y-90743000D01*
X142445761Y-90753650D01*
X142494696Y-90845202D01*
X142560552Y-90925448D01*
X142640798Y-90991304D01*
X142732350Y-91040239D01*
X142831690Y-91070374D01*
X142935000Y-91080549D01*
X146495000Y-91080549D01*
X146598310Y-91070374D01*
X146697650Y-91040239D01*
X146789202Y-90991304D01*
X146869448Y-90925448D01*
X146935304Y-90845202D01*
X146984239Y-90753650D01*
X147014374Y-90654310D01*
X147024549Y-90551000D01*
X147024549Y-89281000D01*
X147014374Y-89177690D01*
X146984239Y-89078350D01*
X146935304Y-88986798D01*
X146869448Y-88906552D01*
X146789202Y-88840696D01*
X146697650Y-88791761D01*
X146598310Y-88761626D01*
X146495000Y-88751451D01*
X142935000Y-88751451D01*
X142831690Y-88761626D01*
X142732350Y-88791761D01*
X142640798Y-88840696D01*
X142560552Y-88906552D01*
X142494696Y-88986798D01*
X142445761Y-89078350D01*
X142442530Y-89089000D01*
X138903610Y-89089000D01*
X138862999Y-89085000D01*
X138822388Y-89089000D01*
X138822376Y-89089000D01*
X138700880Y-89100966D01*
X138544990Y-89148255D01*
X138448093Y-89200048D01*
X138401319Y-89225049D01*
X138306947Y-89302498D01*
X138306941Y-89302504D01*
X138275394Y-89328394D01*
X138249504Y-89359941D01*
X133312948Y-94296498D01*
X133283448Y-94260552D01*
X133203202Y-94194696D01*
X133111650Y-94145761D01*
X133012310Y-94115626D01*
X132909000Y-94105451D01*
X129349000Y-94105451D01*
X129296597Y-94110612D01*
X129220426Y-93856710D01*
X129245690Y-93864374D01*
X129349000Y-93874549D01*
X132909000Y-93874549D01*
X133012310Y-93864374D01*
X133111650Y-93834239D01*
X133203202Y-93785304D01*
X133283448Y-93719448D01*
X133349304Y-93639202D01*
X133398239Y-93547650D01*
X133428374Y-93448310D01*
X133438549Y-93345000D01*
X133438549Y-92075000D01*
X133428374Y-91971690D01*
X133398239Y-91872350D01*
X133349304Y-91780798D01*
X133283448Y-91700552D01*
X133203202Y-91634696D01*
X133111650Y-91585761D01*
X133012310Y-91555626D01*
X132909000Y-91545451D01*
X129548214Y-91545451D01*
X129495352Y-91446552D01*
X129490952Y-91438320D01*
X129443660Y-91380696D01*
X129405788Y-91334549D01*
X132909000Y-91334549D01*
X133012310Y-91324374D01*
X133111650Y-91294239D01*
X133203202Y-91245304D01*
X133283448Y-91179448D01*
X133349304Y-91099202D01*
X133398239Y-91007650D01*
X133428374Y-90908310D01*
X133438549Y-90805000D01*
X133438549Y-89535000D01*
X133428374Y-89431690D01*
X133398239Y-89332350D01*
X133349304Y-89240798D01*
X133283448Y-89160552D01*
X133203202Y-89094696D01*
X133111650Y-89045761D01*
X133012310Y-89015626D01*
X132909000Y-89005451D01*
X129474862Y-89005451D01*
X129467745Y-88981990D01*
X129390952Y-88838321D01*
X129355029Y-88794549D01*
X132909000Y-88794549D01*
X133012310Y-88784374D01*
X133111650Y-88754239D01*
X133203202Y-88705304D01*
X133283448Y-88639448D01*
X133349304Y-88559202D01*
X133398239Y-88467650D01*
X133428374Y-88368310D01*
X133438549Y-88265000D01*
X133438549Y-87403102D01*
X134594641Y-86827000D01*
X150557404Y-86827000D01*
X151773000Y-88650396D01*
X151773000Y-88758148D01*
X151705000Y-88751451D01*
X150727000Y-88751451D01*
X150727000Y-88095156D01*
X150743297Y-88055811D01*
X150777000Y-87886377D01*
X150777000Y-87713623D01*
X150743297Y-87544189D01*
X150677187Y-87384585D01*
X150581210Y-87240945D01*
X150459055Y-87118790D01*
X150315415Y-87022813D01*
X150155811Y-86956703D01*
X149986377Y-86923000D01*
X149813623Y-86923000D01*
X149644189Y-86956703D01*
X149484585Y-87022813D01*
X149340945Y-87118790D01*
X149218790Y-87240945D01*
X149122813Y-87384585D01*
X149056703Y-87544189D01*
X149023000Y-87713623D01*
X149023000Y-87886377D01*
X149056703Y-88055811D01*
X149073000Y-88095156D01*
X149073000Y-88751451D01*
X148145000Y-88751451D01*
X148041690Y-88761626D01*
X147942350Y-88791761D01*
X147850798Y-88840696D01*
X147770552Y-88906552D01*
X147704696Y-88986798D01*
X147655761Y-89078350D01*
X147625626Y-89177690D01*
X147615451Y-89281000D01*
X147615451Y-90551000D01*
X147625626Y-90654310D01*
X147655761Y-90753650D01*
X147704696Y-90845202D01*
X147770552Y-90925448D01*
X147850798Y-90991304D01*
X147942350Y-91040239D01*
X148041690Y-91070374D01*
X148145000Y-91080549D01*
X151705000Y-91080549D01*
X151773001Y-91073852D01*
X151773001Y-91298148D01*
X151705000Y-91291451D01*
X148145000Y-91291451D01*
X148041690Y-91301626D01*
X147942350Y-91331761D01*
X147850798Y-91380696D01*
X147770552Y-91446552D01*
X147704696Y-91526798D01*
X147655761Y-91618350D01*
X147625626Y-91717690D01*
X147615451Y-91821000D01*
X147615451Y-93091000D01*
X147625626Y-93194310D01*
X147655761Y-93293650D01*
X147704696Y-93385202D01*
X147770552Y-93465448D01*
X147850798Y-93531304D01*
X147942350Y-93580239D01*
X148041690Y-93610374D01*
X148145000Y-93620549D01*
X151705000Y-93620549D01*
X151808310Y-93610374D01*
X151907650Y-93580239D01*
X151999202Y-93531304D01*
X152079448Y-93465448D01*
X152145304Y-93385202D01*
X152194239Y-93293650D01*
X152197470Y-93283000D01*
X152264386Y-93283000D01*
X152305000Y-93287000D01*
X152345614Y-93283000D01*
X152345624Y-93283000D01*
X152467120Y-93271034D01*
X152623010Y-93223745D01*
X152766679Y-93146952D01*
X152843001Y-93084316D01*
X152843001Y-93587445D01*
X152241447Y-94189000D01*
X152197470Y-94189000D01*
X152194239Y-94178350D01*
X152145304Y-94086798D01*
X152079448Y-94006552D01*
X151999202Y-93940696D01*
X151907650Y-93891761D01*
X151808310Y-93861626D01*
X151705000Y-93851451D01*
X148145000Y-93851451D01*
X148041690Y-93861626D01*
X147942350Y-93891761D01*
X147850798Y-93940696D01*
X147770552Y-94006552D01*
X147704696Y-94086798D01*
X147655761Y-94178350D01*
X147625626Y-94277690D01*
X147615451Y-94381000D01*
X147615451Y-95651000D01*
X147625626Y-95754310D01*
X147655761Y-95853650D01*
X147704696Y-95945202D01*
X147770552Y-96025448D01*
X147850798Y-96091304D01*
X147942350Y-96140239D01*
X148041690Y-96170374D01*
X148145000Y-96180549D01*
X151705000Y-96180549D01*
X151808310Y-96170374D01*
X151907650Y-96140239D01*
X151999202Y-96091304D01*
X152079448Y-96025448D01*
X152145304Y-95945202D01*
X152194239Y-95853650D01*
X152197470Y-95843000D01*
X152543386Y-95843000D01*
X152584000Y-95847000D01*
X152624614Y-95843000D01*
X152624624Y-95843000D01*
X152746120Y-95831034D01*
X152902010Y-95783745D01*
X153045679Y-95706952D01*
X153171606Y-95603606D01*
X153197505Y-95572048D01*
X154226053Y-94543501D01*
X154257606Y-94517606D01*
X154294367Y-94472813D01*
X154360952Y-94391680D01*
X154417944Y-94285055D01*
X154437745Y-94248010D01*
X154485034Y-94092120D01*
X154497000Y-93970624D01*
X154497000Y-93970614D01*
X154501000Y-93930000D01*
X154497000Y-93889386D01*
X154497000Y-86908613D01*
X154501000Y-86867999D01*
X154497000Y-86827385D01*
X154497000Y-86827376D01*
X154485034Y-86705880D01*
X154437745Y-86549990D01*
X154400659Y-86480607D01*
X154360952Y-86406319D01*
X154283502Y-86311948D01*
X154283501Y-86311947D01*
X154257606Y-86280394D01*
X154226054Y-86254500D01*
X152501102Y-84529549D01*
X154000000Y-84529549D01*
X154103310Y-84519374D01*
X154202650Y-84489239D01*
X154294202Y-84440304D01*
X154374448Y-84374448D01*
X154440304Y-84294202D01*
X154489239Y-84202650D01*
X154519374Y-84103310D01*
X154529549Y-84000000D01*
X154529549Y-82750000D01*
X154519374Y-82646690D01*
X154489239Y-82547350D01*
X154440304Y-82455798D01*
X154374448Y-82375552D01*
X154294202Y-82309696D01*
X154202650Y-82260761D01*
X154103310Y-82230626D01*
X154000000Y-82220451D01*
X152000000Y-82220451D01*
X151896690Y-82230626D01*
X151797350Y-82260761D01*
X151705798Y-82309696D01*
X151682889Y-82328497D01*
X151587606Y-82212394D01*
X151461679Y-82109048D01*
X151318010Y-82032255D01*
X151162120Y-81984966D01*
X151040624Y-81973000D01*
X151000000Y-81968999D01*
X150959376Y-81973000D01*
X150495156Y-81973000D01*
X150455811Y-81956703D01*
X150286377Y-81923000D01*
X150113623Y-81923000D01*
X149944189Y-81956703D01*
X149784585Y-82022813D01*
X149640945Y-82118790D01*
X149518790Y-82240945D01*
X149427000Y-82378319D01*
X149427000Y-79642173D01*
X151970071Y-77099104D01*
X151970071Y-77953260D01*
X151980246Y-78056570D01*
X152010381Y-78155910D01*
X152059316Y-78247462D01*
X152125172Y-78327708D01*
X152173001Y-78366960D01*
X152173000Y-79470451D01*
X152000000Y-79470451D01*
X151896690Y-79480626D01*
X151797350Y-79510761D01*
X151705798Y-79559696D01*
X151625552Y-79625552D01*
X151559696Y-79705798D01*
X151510761Y-79797350D01*
X151480626Y-79896690D01*
X151470451Y-80000000D01*
X151470451Y-81250000D01*
X151480626Y-81353310D01*
X151510761Y-81452650D01*
X151559696Y-81544202D01*
X151625552Y-81624448D01*
X151705798Y-81690304D01*
X151797350Y-81739239D01*
X151896690Y-81769374D01*
X152000000Y-81779549D01*
X154000000Y-81779549D01*
X154103310Y-81769374D01*
X154202650Y-81739239D01*
X154294202Y-81690304D01*
X154374448Y-81624448D01*
X154440304Y-81544202D01*
X154489239Y-81452650D01*
X154519374Y-81353310D01*
X154529549Y-81250000D01*
X154529549Y-80000000D01*
X154519374Y-79896690D01*
X154489239Y-79797350D01*
X154440304Y-79705798D01*
X154374448Y-79625552D01*
X154294202Y-79559696D01*
X154202650Y-79510761D01*
X154103310Y-79480626D01*
X154000000Y-79470451D01*
X153827000Y-79470451D01*
X153827000Y-78366959D01*
X153874828Y-78327708D01*
X153940684Y-78247462D01*
X153989619Y-78155910D01*
X154019754Y-78056570D01*
X154029929Y-77953260D01*
X154029929Y-77054100D01*
X154019754Y-76950790D01*
X153989619Y-76851450D01*
X153940684Y-76759898D01*
X153934071Y-76751840D01*
X153940684Y-76743782D01*
X153989619Y-76652230D01*
X154019754Y-76552890D01*
X154029929Y-76449580D01*
X154029929Y-75550420D01*
X154019754Y-75447110D01*
X153989619Y-75347770D01*
X153940684Y-75256218D01*
X153874828Y-75175972D01*
X153794582Y-75110116D01*
X153703030Y-75061181D01*
X153603690Y-75031046D01*
X153500380Y-75020871D01*
X152499620Y-75020871D01*
X152396310Y-75031046D01*
X152296970Y-75061181D01*
X152205418Y-75110116D01*
X152128793Y-75173000D01*
X151940230Y-75173000D01*
X151899619Y-75169000D01*
X151859008Y-75173000D01*
X151858996Y-75173000D01*
X151737500Y-75184966D01*
X151581610Y-75232255D01*
X151505382Y-75273000D01*
X151437939Y-75309049D01*
X151343567Y-75386498D01*
X151343561Y-75386504D01*
X151312014Y-75412394D01*
X151286124Y-75443941D01*
X148043952Y-78686115D01*
X148012394Y-78712014D01*
X147986498Y-78743569D01*
X147909048Y-78837941D01*
X147868002Y-78914734D01*
X147832255Y-78981611D01*
X147784966Y-79137501D01*
X147773000Y-79258997D01*
X147773000Y-79259006D01*
X147769000Y-79299620D01*
X147773000Y-79340234D01*
X147773001Y-83676244D01*
X127771002Y-83754841D01*
X127731999Y-83751000D01*
X127689755Y-83755161D01*
X127688127Y-83755167D01*
X127649328Y-83759142D01*
X127569879Y-83766967D01*
X127568310Y-83767443D01*
X127566679Y-83767610D01*
X127490375Y-83791084D01*
X127413989Y-83814256D01*
X127412543Y-83815029D01*
X127410976Y-83815511D01*
X127340926Y-83853308D01*
X127270319Y-83891048D01*
X127269045Y-83892094D01*
X127267610Y-83892868D01*
X127206337Y-83943558D01*
X127175948Y-83968498D01*
X127174790Y-83969656D01*
X127142090Y-83996708D01*
X127117352Y-84027094D01*
X125362948Y-85781499D01*
X125331395Y-85807394D01*
X125305500Y-85838947D01*
X125305498Y-85838949D01*
X125228048Y-85933321D01*
X125151256Y-86076990D01*
X125103967Y-86232880D01*
X125088000Y-86395000D01*
X125092001Y-86435623D01*
X125092001Y-86465451D01*
X124139000Y-86465451D01*
X124035690Y-86475626D01*
X123936350Y-86505761D01*
X123844798Y-86554696D01*
X123764552Y-86620552D01*
X123698696Y-86700798D01*
X123649761Y-86792350D01*
X123646530Y-86803000D01*
X111410614Y-86803000D01*
X111370000Y-86799000D01*
X111329386Y-86803000D01*
X111329376Y-86803000D01*
X111207880Y-86814966D01*
X111051990Y-86862255D01*
X110996921Y-86891690D01*
X110908320Y-86939048D01*
X110823691Y-87008502D01*
X110782394Y-87042394D01*
X110756499Y-87073947D01*
X109507948Y-88322499D01*
X109476395Y-88348394D01*
X109450500Y-88379947D01*
X109450498Y-88379949D01*
X109373048Y-88474321D01*
X109296256Y-88617990D01*
X109248967Y-88773880D01*
X109233000Y-88936000D01*
X109237001Y-88976623D01*
X109237001Y-89006451D01*
X108864000Y-89006451D01*
X108760690Y-89016626D01*
X108661350Y-89046761D01*
X108582325Y-89089000D01*
X107324613Y-89089000D01*
X107283999Y-89085000D01*
X107243385Y-89089000D01*
X107243376Y-89089000D01*
X107121880Y-89100966D01*
X106965990Y-89148255D01*
X106822321Y-89225048D01*
X106696394Y-89328394D01*
X106670495Y-89359952D01*
X106527000Y-89503447D01*
X106527000Y-73424673D01*
X106678189Y-73487297D01*
X106847623Y-73521000D01*
X107020377Y-73521000D01*
X107189811Y-73487297D01*
X107349415Y-73421187D01*
X107493055Y-73325210D01*
X107615210Y-73203055D01*
X107711187Y-73059415D01*
X107727485Y-73020069D01*
X107826451Y-72921103D01*
X107826451Y-73532000D01*
X107836626Y-73635310D01*
X107866761Y-73734650D01*
X107915696Y-73826202D01*
X107981552Y-73906448D01*
X108061798Y-73972304D01*
X108153350Y-74021239D01*
X108252690Y-74051374D01*
X108356000Y-74061549D01*
X108729001Y-74061549D01*
X108729000Y-75479386D01*
X108725000Y-75520000D01*
X108729000Y-75560614D01*
X108729000Y-75560623D01*
X108740966Y-75682119D01*
X108788255Y-75838009D01*
X108788256Y-75838010D01*
X108865048Y-75981679D01*
X108873934Y-75992506D01*
X108968394Y-76107606D01*
X108999952Y-76133505D01*
X110384497Y-77518051D01*
X110410394Y-77549606D01*
X110441947Y-77575501D01*
X110441948Y-77575502D01*
X110536320Y-77652952D01*
X110573738Y-77672952D01*
X110679990Y-77729745D01*
X110835880Y-77777034D01*
X110957376Y-77789000D01*
X110957386Y-77789000D01*
X110998000Y-77793000D01*
X111038614Y-77789000D01*
X123096396Y-77789000D01*
X123122880Y-77797034D01*
X123244376Y-77809000D01*
X123244385Y-77809000D01*
X123284999Y-77813000D01*
X123325613Y-77809000D01*
X123392530Y-77809000D01*
X123395761Y-77819650D01*
X123444696Y-77911202D01*
X123510552Y-77991448D01*
X123590798Y-78057304D01*
X123682350Y-78106239D01*
X123781690Y-78136374D01*
X123885000Y-78146549D01*
X127445000Y-78146549D01*
X127548310Y-78136374D01*
X127647650Y-78106239D01*
X127739202Y-78057304D01*
X127819448Y-77991448D01*
X127885304Y-77911202D01*
X127934239Y-77819650D01*
X127964374Y-77720310D01*
X127974549Y-77617000D01*
X128456928Y-77617000D01*
X128469188Y-77741482D01*
X128505498Y-77861180D01*
X128564463Y-77971494D01*
X128643815Y-78068185D01*
X128740506Y-78147537D01*
X128850820Y-78206502D01*
X128970518Y-78242812D01*
X129095000Y-78255072D01*
X130589250Y-78252000D01*
X130748000Y-78093250D01*
X130748000Y-77109000D01*
X131002000Y-77109000D01*
X131002000Y-78093250D01*
X131160750Y-78252000D01*
X132655000Y-78255072D01*
X132779482Y-78242812D01*
X132899180Y-78206502D01*
X133009494Y-78147537D01*
X133106185Y-78068185D01*
X133185537Y-77971494D01*
X133244502Y-77861180D01*
X133280812Y-77741482D01*
X133293072Y-77617000D01*
X133290000Y-77267750D01*
X133131250Y-77109000D01*
X131002000Y-77109000D01*
X130748000Y-77109000D01*
X128618750Y-77109000D01*
X128460000Y-77267750D01*
X128456928Y-77617000D01*
X127974549Y-77617000D01*
X127974549Y-76347000D01*
X128456928Y-76347000D01*
X128460000Y-76696250D01*
X128618750Y-76855000D01*
X130748000Y-76855000D01*
X130748000Y-75870750D01*
X131002000Y-75870750D01*
X131002000Y-76855000D01*
X133131250Y-76855000D01*
X133290000Y-76696250D01*
X133293072Y-76347000D01*
X133280812Y-76222518D01*
X133244502Y-76102820D01*
X133185537Y-75992506D01*
X133106185Y-75895815D01*
X133009494Y-75816463D01*
X132899180Y-75757498D01*
X132779482Y-75721188D01*
X132655000Y-75708928D01*
X131160750Y-75712000D01*
X131002000Y-75870750D01*
X130748000Y-75870750D01*
X130589250Y-75712000D01*
X129095000Y-75708928D01*
X128970518Y-75721188D01*
X128850820Y-75757498D01*
X128740506Y-75816463D01*
X128643815Y-75895815D01*
X128564463Y-75992506D01*
X128505498Y-76102820D01*
X128469188Y-76222518D01*
X128456928Y-76347000D01*
X127974549Y-76347000D01*
X127964374Y-76243690D01*
X127934239Y-76144350D01*
X127885304Y-76052798D01*
X127819448Y-75972552D01*
X127739202Y-75906696D01*
X127647650Y-75857761D01*
X127548310Y-75827626D01*
X127445000Y-75817451D01*
X123885000Y-75817451D01*
X123781690Y-75827626D01*
X123682350Y-75857761D01*
X123590798Y-75906696D01*
X123510552Y-75972552D01*
X123444696Y-76052798D01*
X123396001Y-76143901D01*
X123305624Y-76135000D01*
X123305614Y-76135000D01*
X123265000Y-76131000D01*
X123224386Y-76135000D01*
X111340554Y-76135000D01*
X110383000Y-75177447D01*
X110383000Y-74843623D01*
X121551000Y-74843623D01*
X121551000Y-75016377D01*
X121584703Y-75185811D01*
X121650813Y-75345415D01*
X121746790Y-75489055D01*
X121868945Y-75611210D01*
X122012585Y-75707187D01*
X122172189Y-75773297D01*
X122341623Y-75807000D01*
X122514377Y-75807000D01*
X122683811Y-75773297D01*
X122843415Y-75707187D01*
X122987055Y-75611210D01*
X123109210Y-75489055D01*
X123132423Y-75454314D01*
X123395535Y-75278906D01*
X123395761Y-75279650D01*
X123444696Y-75371202D01*
X123510552Y-75451448D01*
X123590798Y-75517304D01*
X123682350Y-75566239D01*
X123781690Y-75596374D01*
X123885000Y-75606549D01*
X127445000Y-75606549D01*
X127548310Y-75596374D01*
X127647650Y-75566239D01*
X127739202Y-75517304D01*
X127819448Y-75451448D01*
X127885304Y-75371202D01*
X127934239Y-75279650D01*
X127964374Y-75180310D01*
X127974549Y-75077000D01*
X127974549Y-73807000D01*
X128565451Y-73807000D01*
X128565451Y-75077000D01*
X128575626Y-75180310D01*
X128605761Y-75279650D01*
X128654696Y-75371202D01*
X128720552Y-75451448D01*
X128800798Y-75517304D01*
X128892350Y-75566239D01*
X128991690Y-75596374D01*
X129095000Y-75606549D01*
X132655000Y-75606549D01*
X132758310Y-75596374D01*
X132857650Y-75566239D01*
X132949202Y-75517304D01*
X133029448Y-75451448D01*
X133095304Y-75371202D01*
X133144239Y-75279650D01*
X133153537Y-75249000D01*
X133308844Y-75249000D01*
X133348189Y-75265297D01*
X133517623Y-75299000D01*
X133690377Y-75299000D01*
X133859811Y-75265297D01*
X134019415Y-75199187D01*
X134163055Y-75103210D01*
X134285210Y-74981055D01*
X134381187Y-74837415D01*
X134447297Y-74677811D01*
X134481000Y-74508377D01*
X134481000Y-74335623D01*
X134447297Y-74166189D01*
X134381187Y-74006585D01*
X134285210Y-73862945D01*
X134163055Y-73740790D01*
X134019415Y-73644813D01*
X133859811Y-73578703D01*
X133690377Y-73545000D01*
X133517623Y-73545000D01*
X133348189Y-73578703D01*
X133308844Y-73595000D01*
X133139241Y-73595000D01*
X133095304Y-73512798D01*
X133029448Y-73432552D01*
X132949202Y-73366696D01*
X132857650Y-73317761D01*
X132758310Y-73287626D01*
X132655000Y-73277451D01*
X129095000Y-73277451D01*
X128991690Y-73287626D01*
X128892350Y-73317761D01*
X128800798Y-73366696D01*
X128720552Y-73432552D01*
X128654696Y-73512798D01*
X128605761Y-73604350D01*
X128575626Y-73703690D01*
X128565451Y-73807000D01*
X127974549Y-73807000D01*
X127964374Y-73703690D01*
X127934239Y-73604350D01*
X127885304Y-73512798D01*
X127819448Y-73432552D01*
X127739202Y-73366696D01*
X127647650Y-73317761D01*
X127548310Y-73287626D01*
X127445000Y-73277451D01*
X123885000Y-73277451D01*
X123781690Y-73287626D01*
X123682350Y-73317761D01*
X123590798Y-73366696D01*
X123510552Y-73432552D01*
X123444696Y-73512798D01*
X123395761Y-73604350D01*
X123392530Y-73615000D01*
X123378793Y-73615000D01*
X123352972Y-73607138D01*
X123352543Y-73607095D01*
X123352120Y-73606967D01*
X123271169Y-73598994D01*
X123190868Y-73591000D01*
X123190432Y-73591043D01*
X123190000Y-73591000D01*
X123109656Y-73598913D01*
X123028731Y-73606798D01*
X123028313Y-73606924D01*
X123027880Y-73606967D01*
X122951008Y-73630286D01*
X122872792Y-73653923D01*
X122872402Y-73654131D01*
X122871990Y-73654256D01*
X122800870Y-73692270D01*
X122765064Y-73711361D01*
X122764704Y-73711601D01*
X122728321Y-73731048D01*
X122697101Y-73756670D01*
X122214750Y-74078237D01*
X122172189Y-74086703D01*
X122012585Y-74152813D01*
X121868945Y-74248790D01*
X121746790Y-74370945D01*
X121650813Y-74514585D01*
X121584703Y-74674189D01*
X121551000Y-74843623D01*
X110383000Y-74843623D01*
X110383000Y-74061549D01*
X110756000Y-74061549D01*
X110859310Y-74051374D01*
X110958650Y-74021239D01*
X111050202Y-73972304D01*
X111130448Y-73906448D01*
X111196304Y-73826202D01*
X111245239Y-73734650D01*
X111275374Y-73635310D01*
X111285549Y-73532000D01*
X111617928Y-73532000D01*
X111630188Y-73656482D01*
X111666498Y-73776180D01*
X111725463Y-73886494D01*
X111804815Y-73983185D01*
X111901506Y-74062537D01*
X112011820Y-74121502D01*
X112131518Y-74157812D01*
X112256000Y-74170072D01*
X113170250Y-74167000D01*
X113329000Y-74008250D01*
X113329000Y-73279000D01*
X113583000Y-73279000D01*
X113583000Y-74008250D01*
X113741750Y-74167000D01*
X114656000Y-74170072D01*
X114780482Y-74157812D01*
X114900180Y-74121502D01*
X115010494Y-74062537D01*
X115107185Y-73983185D01*
X115186537Y-73886494D01*
X115245502Y-73776180D01*
X115281812Y-73656482D01*
X115294072Y-73532000D01*
X115291000Y-73437750D01*
X115132250Y-73279000D01*
X113583000Y-73279000D01*
X113329000Y-73279000D01*
X111779750Y-73279000D01*
X111621000Y-73437750D01*
X111617928Y-73532000D01*
X111285549Y-73532000D01*
X111285549Y-72772000D01*
X111275374Y-72668690D01*
X111245239Y-72569350D01*
X111217258Y-72517000D01*
X111245239Y-72464650D01*
X111275374Y-72365310D01*
X111285549Y-72262000D01*
X111285549Y-71502000D01*
X111275374Y-71398690D01*
X111245239Y-71299350D01*
X111217258Y-71247000D01*
X111245239Y-71194650D01*
X111275374Y-71095310D01*
X111285549Y-70992000D01*
X111617928Y-70992000D01*
X111630188Y-71116482D01*
X111666498Y-71236180D01*
X111725463Y-71346494D01*
X111745174Y-71370512D01*
X111736626Y-71398690D01*
X111726451Y-71502000D01*
X111726451Y-72262000D01*
X111736626Y-72365310D01*
X111745174Y-72393488D01*
X111725463Y-72417506D01*
X111666498Y-72527820D01*
X111630188Y-72647518D01*
X111617928Y-72772000D01*
X111621000Y-72866250D01*
X111779750Y-73025000D01*
X113329000Y-73025000D01*
X113329000Y-73005000D01*
X113583000Y-73005000D01*
X113583000Y-73025000D01*
X115132250Y-73025000D01*
X115180848Y-72976402D01*
X116674499Y-74470053D01*
X116700394Y-74501606D01*
X116731947Y-74527501D01*
X116731948Y-74527502D01*
X116826320Y-74604952D01*
X116903113Y-74645998D01*
X116969990Y-74681745D01*
X117125880Y-74729034D01*
X117247376Y-74741000D01*
X117247386Y-74741000D01*
X117288000Y-74745000D01*
X117328614Y-74741000D01*
X119084844Y-74741000D01*
X119124189Y-74757297D01*
X119293623Y-74791000D01*
X119466377Y-74791000D01*
X119635811Y-74757297D01*
X119795415Y-74691187D01*
X119939055Y-74595210D01*
X120061210Y-74473055D01*
X120157187Y-74329415D01*
X120223297Y-74169811D01*
X120257000Y-74000377D01*
X120257000Y-73827623D01*
X120223297Y-73658189D01*
X120157187Y-73498585D01*
X120061210Y-73354945D01*
X119939055Y-73232790D01*
X119917118Y-73218132D01*
X119928614Y-73217000D01*
X119928624Y-73217000D01*
X120050120Y-73205034D01*
X120206010Y-73157745D01*
X120349679Y-73080952D01*
X120475606Y-72977606D01*
X120501505Y-72946048D01*
X120738554Y-72709000D01*
X123392530Y-72709000D01*
X123395761Y-72719650D01*
X123444696Y-72811202D01*
X123510552Y-72891448D01*
X123590798Y-72957304D01*
X123682350Y-73006239D01*
X123781690Y-73036374D01*
X123885000Y-73046549D01*
X127445000Y-73046549D01*
X127548310Y-73036374D01*
X127647650Y-73006239D01*
X127739202Y-72957304D01*
X127819448Y-72891448D01*
X127885304Y-72811202D01*
X127934239Y-72719650D01*
X127964374Y-72620310D01*
X127974549Y-72517000D01*
X128456928Y-72517000D01*
X128469188Y-72641482D01*
X128505498Y-72761180D01*
X128564463Y-72871494D01*
X128643815Y-72968185D01*
X128740506Y-73047537D01*
X128850820Y-73106502D01*
X128970518Y-73142812D01*
X129095000Y-73155072D01*
X130589250Y-73152000D01*
X130748000Y-72993250D01*
X130748000Y-72009000D01*
X131002000Y-72009000D01*
X131002000Y-72993250D01*
X131160750Y-73152000D01*
X132655000Y-73155072D01*
X132779482Y-73142812D01*
X132899180Y-73106502D01*
X133009494Y-73047537D01*
X133106185Y-72968185D01*
X133185537Y-72871494D01*
X133244502Y-72761180D01*
X133280812Y-72641482D01*
X133293072Y-72517000D01*
X133290000Y-72167750D01*
X133131250Y-72009000D01*
X131002000Y-72009000D01*
X130748000Y-72009000D01*
X128618750Y-72009000D01*
X128460000Y-72167750D01*
X128456928Y-72517000D01*
X127974549Y-72517000D01*
X127974549Y-71247000D01*
X127964374Y-71143690D01*
X127934239Y-71044350D01*
X127885304Y-70952798D01*
X127819448Y-70872552D01*
X127739202Y-70806696D01*
X127647650Y-70757761D01*
X127548310Y-70727626D01*
X127445000Y-70717451D01*
X123885000Y-70717451D01*
X123781690Y-70727626D01*
X123682350Y-70757761D01*
X123590798Y-70806696D01*
X123510552Y-70872552D01*
X123444696Y-70952798D01*
X123395761Y-71044350D01*
X123392530Y-71055000D01*
X120436610Y-71055000D01*
X120395999Y-71051000D01*
X120355388Y-71055000D01*
X120355376Y-71055000D01*
X120233880Y-71066966D01*
X120077990Y-71114255D01*
X120077988Y-71114256D01*
X119934319Y-71191049D01*
X119839949Y-71268497D01*
X119808394Y-71294394D01*
X119782499Y-71325947D01*
X119574032Y-71534414D01*
X119466377Y-71513000D01*
X119293623Y-71513000D01*
X119124189Y-71546703D01*
X118964585Y-71612813D01*
X118820945Y-71708790D01*
X118698790Y-71830945D01*
X118602813Y-71974585D01*
X118536703Y-72134189D01*
X118503000Y-72303623D01*
X118503000Y-72476377D01*
X118536703Y-72645811D01*
X118602813Y-72805415D01*
X118698790Y-72949055D01*
X118820945Y-73071210D01*
X118844576Y-73087000D01*
X117630554Y-73087000D01*
X115869505Y-71325952D01*
X115843606Y-71294394D01*
X115717679Y-71191048D01*
X115574010Y-71114255D01*
X115418120Y-71066966D01*
X115296624Y-71055000D01*
X115296614Y-71055000D01*
X115287951Y-71054147D01*
X115294072Y-70992000D01*
X115291000Y-70897750D01*
X115132250Y-70739000D01*
X113583000Y-70739000D01*
X113583000Y-70759000D01*
X113329000Y-70759000D01*
X113329000Y-70739000D01*
X111779750Y-70739000D01*
X111621000Y-70897750D01*
X111617928Y-70992000D01*
X111285549Y-70992000D01*
X111285549Y-70232000D01*
X111275374Y-70128690D01*
X111245239Y-70029350D01*
X111217258Y-69977000D01*
X111245239Y-69924650D01*
X111275374Y-69825310D01*
X111285549Y-69722000D01*
X111617928Y-69722000D01*
X111630188Y-69846482D01*
X111666498Y-69966180D01*
X111672282Y-69977000D01*
X111666498Y-69987820D01*
X111630188Y-70107518D01*
X111617928Y-70232000D01*
X111621000Y-70326250D01*
X111779750Y-70485000D01*
X113329000Y-70485000D01*
X113329000Y-69469000D01*
X113583000Y-69469000D01*
X113583000Y-70485000D01*
X115132250Y-70485000D01*
X115291000Y-70326250D01*
X115294072Y-70232000D01*
X115281812Y-70107518D01*
X115245502Y-69987820D01*
X115239718Y-69977000D01*
X115245502Y-69966180D01*
X115281812Y-69846482D01*
X115294072Y-69722000D01*
X115291000Y-69627750D01*
X115172873Y-69509623D01*
X118249000Y-69509623D01*
X118249000Y-69682377D01*
X118282703Y-69851811D01*
X118348813Y-70011415D01*
X118444790Y-70155055D01*
X118566945Y-70277210D01*
X118710585Y-70373187D01*
X118870189Y-70439297D01*
X119039623Y-70473000D01*
X119212377Y-70473000D01*
X119381811Y-70439297D01*
X119421156Y-70423000D01*
X120609386Y-70423000D01*
X120650000Y-70427000D01*
X120690614Y-70423000D01*
X120690624Y-70423000D01*
X120812120Y-70411034D01*
X120968010Y-70363745D01*
X121111679Y-70286952D01*
X121237606Y-70183606D01*
X121249593Y-70169000D01*
X123392530Y-70169000D01*
X123395761Y-70179650D01*
X123444696Y-70271202D01*
X123510552Y-70351448D01*
X123590798Y-70417304D01*
X123682350Y-70466239D01*
X123781690Y-70496374D01*
X123885000Y-70506549D01*
X127445000Y-70506549D01*
X127548310Y-70496374D01*
X127647650Y-70466239D01*
X127739202Y-70417304D01*
X127819448Y-70351448D01*
X127885304Y-70271202D01*
X127934239Y-70179650D01*
X127964374Y-70080310D01*
X127974549Y-69977000D01*
X128456928Y-69977000D01*
X128469188Y-70101482D01*
X128505498Y-70221180D01*
X128564463Y-70331494D01*
X128643815Y-70428185D01*
X128740506Y-70507537D01*
X128850820Y-70566502D01*
X128970518Y-70602812D01*
X129063808Y-70612000D01*
X128970518Y-70621188D01*
X128850820Y-70657498D01*
X128740506Y-70716463D01*
X128643815Y-70795815D01*
X128564463Y-70892506D01*
X128505498Y-71002820D01*
X128469188Y-71122518D01*
X128456928Y-71247000D01*
X128460000Y-71596250D01*
X128618750Y-71755000D01*
X130748000Y-71755000D01*
X130748000Y-70770750D01*
X130589250Y-70612000D01*
X130748000Y-70453250D01*
X130748000Y-69469000D01*
X131002000Y-69469000D01*
X131002000Y-70453250D01*
X131160750Y-70612000D01*
X131002000Y-70770750D01*
X131002000Y-71755000D01*
X133131250Y-71755000D01*
X133290000Y-71596250D01*
X133293072Y-71247000D01*
X133280812Y-71122518D01*
X133244502Y-71002820D01*
X133185537Y-70892506D01*
X133106185Y-70795815D01*
X133009494Y-70716463D01*
X132899180Y-70657498D01*
X132779482Y-70621188D01*
X132686192Y-70612000D01*
X132779482Y-70602812D01*
X132899180Y-70566502D01*
X133009494Y-70507537D01*
X133106185Y-70428185D01*
X133185537Y-70331494D01*
X133244502Y-70221180D01*
X133280812Y-70101482D01*
X133293072Y-69977000D01*
X133290000Y-69627750D01*
X133131250Y-69469000D01*
X131002000Y-69469000D01*
X130748000Y-69469000D01*
X128618750Y-69469000D01*
X128460000Y-69627750D01*
X128456928Y-69977000D01*
X127974549Y-69977000D01*
X127974549Y-68707000D01*
X128456928Y-68707000D01*
X128460000Y-69056250D01*
X128618750Y-69215000D01*
X130748000Y-69215000D01*
X130748000Y-68230750D01*
X131002000Y-68230750D01*
X131002000Y-69215000D01*
X133131250Y-69215000D01*
X133290000Y-69056250D01*
X133293072Y-68707000D01*
X133280812Y-68582518D01*
X133244502Y-68462820D01*
X133185537Y-68352506D01*
X133106185Y-68255815D01*
X133009494Y-68176463D01*
X132899180Y-68117498D01*
X132779482Y-68081188D01*
X132655000Y-68068928D01*
X131160750Y-68072000D01*
X131002000Y-68230750D01*
X130748000Y-68230750D01*
X130589250Y-68072000D01*
X129095000Y-68068928D01*
X128970518Y-68081188D01*
X128850820Y-68117498D01*
X128740506Y-68176463D01*
X128643815Y-68255815D01*
X128564463Y-68352506D01*
X128505498Y-68462820D01*
X128469188Y-68582518D01*
X128456928Y-68707000D01*
X127974549Y-68707000D01*
X127964374Y-68603690D01*
X127934239Y-68504350D01*
X127885304Y-68412798D01*
X127819448Y-68332552D01*
X127739202Y-68266696D01*
X127647650Y-68217761D01*
X127548310Y-68187626D01*
X127445000Y-68177451D01*
X123885000Y-68177451D01*
X123781690Y-68187626D01*
X123682350Y-68217761D01*
X123590798Y-68266696D01*
X123510552Y-68332552D01*
X123444696Y-68412798D01*
X123395761Y-68504350D01*
X123392530Y-68515000D01*
X120944613Y-68515000D01*
X120903999Y-68511000D01*
X120863385Y-68515000D01*
X120863376Y-68515000D01*
X120741880Y-68526966D01*
X120585990Y-68574255D01*
X120492364Y-68624299D01*
X120442320Y-68651048D01*
X120430450Y-68660790D01*
X120316394Y-68754394D01*
X120304407Y-68769000D01*
X119421156Y-68769000D01*
X119381811Y-68752703D01*
X119212377Y-68719000D01*
X119039623Y-68719000D01*
X118870189Y-68752703D01*
X118710585Y-68818813D01*
X118566945Y-68914790D01*
X118444790Y-69036945D01*
X118348813Y-69180585D01*
X118282703Y-69340189D01*
X118249000Y-69509623D01*
X115172873Y-69509623D01*
X115132250Y-69469000D01*
X113583000Y-69469000D01*
X113329000Y-69469000D01*
X111779750Y-69469000D01*
X111621000Y-69627750D01*
X111617928Y-69722000D01*
X111285549Y-69722000D01*
X111285549Y-68962000D01*
X111617928Y-68962000D01*
X111621000Y-69056250D01*
X111779750Y-69215000D01*
X113329000Y-69215000D01*
X113329000Y-69195000D01*
X113583000Y-69195000D01*
X113583000Y-69215000D01*
X115132250Y-69215000D01*
X115291000Y-69056250D01*
X115294072Y-68962000D01*
X115281812Y-68837518D01*
X115245502Y-68717820D01*
X115186537Y-68607506D01*
X115166826Y-68583488D01*
X115175374Y-68555310D01*
X115185549Y-68452000D01*
X115185549Y-67692000D01*
X115175374Y-67588690D01*
X115145239Y-67489350D01*
X115096304Y-67397798D01*
X115030448Y-67317552D01*
X114950202Y-67251696D01*
X114858650Y-67202761D01*
X114759310Y-67172626D01*
X114656000Y-67162451D01*
X114555103Y-67162451D01*
X114596554Y-67121000D01*
X119846844Y-67121000D01*
X119886189Y-67137297D01*
X120055623Y-67171000D01*
X120228377Y-67171000D01*
X120397811Y-67137297D01*
X120557415Y-67071187D01*
X120701055Y-66975210D01*
X120823210Y-66853055D01*
X120919187Y-66709415D01*
X120985297Y-66549811D01*
X121019000Y-66380377D01*
X121019000Y-66207623D01*
X120985297Y-66038189D01*
X120919187Y-65878585D01*
X120823210Y-65734945D01*
X120701055Y-65612790D01*
X120557415Y-65516813D01*
X120397811Y-65450703D01*
X120228377Y-65417000D01*
X120055623Y-65417000D01*
X119886189Y-65450703D01*
X119846844Y-65467000D01*
X114294610Y-65467000D01*
X114253999Y-65463000D01*
X114213388Y-65467000D01*
X114213376Y-65467000D01*
X114091880Y-65478966D01*
X113935990Y-65526255D01*
X113887677Y-65552079D01*
X113792319Y-65603049D01*
X113697947Y-65680498D01*
X113697941Y-65680504D01*
X113666394Y-65706394D01*
X113640503Y-65737942D01*
X112899947Y-66478500D01*
X112868395Y-66504394D01*
X112842500Y-66535947D01*
X112842498Y-66535949D01*
X112765048Y-66630321D01*
X112688256Y-66773990D01*
X112640967Y-66929880D01*
X112625000Y-67092000D01*
X112629001Y-67132623D01*
X112629001Y-67162451D01*
X112256000Y-67162451D01*
X112152690Y-67172626D01*
X112053350Y-67202761D01*
X111961798Y-67251696D01*
X111881552Y-67317552D01*
X111815696Y-67397798D01*
X111766761Y-67489350D01*
X111736626Y-67588690D01*
X111726451Y-67692000D01*
X111726451Y-68452000D01*
X111736626Y-68555310D01*
X111745174Y-68583488D01*
X111725463Y-68607506D01*
X111666498Y-68717820D01*
X111630188Y-68837518D01*
X111617928Y-68962000D01*
X111285549Y-68962000D01*
X111275374Y-68858690D01*
X111245239Y-68759350D01*
X111217258Y-68707000D01*
X111245239Y-68654650D01*
X111275374Y-68555310D01*
X111285549Y-68452000D01*
X111285549Y-67692000D01*
X111275374Y-67588690D01*
X111245239Y-67489350D01*
X111196304Y-67397798D01*
X111130448Y-67317552D01*
X111050202Y-67251696D01*
X110958650Y-67202761D01*
X110859310Y-67172626D01*
X110756000Y-67162451D01*
X110655102Y-67162451D01*
X112728555Y-65089000D01*
X124017447Y-65089000D01*
X124565897Y-65637451D01*
X123885000Y-65637451D01*
X123781690Y-65647626D01*
X123682350Y-65677761D01*
X123590798Y-65726696D01*
X123510552Y-65792552D01*
X123444696Y-65872798D01*
X123395761Y-65964350D01*
X123365626Y-66063690D01*
X123355451Y-66167000D01*
X123355451Y-67437000D01*
X123365626Y-67540310D01*
X123395761Y-67639650D01*
X123444696Y-67731202D01*
X123510552Y-67811448D01*
X123590798Y-67877304D01*
X123682350Y-67926239D01*
X123781690Y-67956374D01*
X123885000Y-67966549D01*
X127445000Y-67966549D01*
X127548310Y-67956374D01*
X127647650Y-67926239D01*
X127739202Y-67877304D01*
X127819448Y-67811448D01*
X127885304Y-67731202D01*
X127934239Y-67639650D01*
X127964374Y-67540310D01*
X127974549Y-67437000D01*
X127974549Y-66167000D01*
X128565451Y-66167000D01*
X128565451Y-67437000D01*
X128575626Y-67540310D01*
X128605761Y-67639650D01*
X128654696Y-67731202D01*
X128720552Y-67811448D01*
X128800798Y-67877304D01*
X128892350Y-67926239D01*
X128991690Y-67956374D01*
X129095000Y-67966549D01*
X132655000Y-67966549D01*
X132758310Y-67956374D01*
X132857650Y-67926239D01*
X132938545Y-67883000D01*
X133308844Y-67883000D01*
X133348189Y-67899297D01*
X133517623Y-67933000D01*
X133690377Y-67933000D01*
X133859811Y-67899297D01*
X134019415Y-67833187D01*
X134163055Y-67737210D01*
X134285210Y-67615055D01*
X134381187Y-67471415D01*
X134447297Y-67311811D01*
X134481000Y-67142377D01*
X134481000Y-66969623D01*
X134447297Y-66800189D01*
X134381187Y-66640585D01*
X134285210Y-66496945D01*
X134163055Y-66374790D01*
X134019415Y-66278813D01*
X133859811Y-66212703D01*
X133690377Y-66179000D01*
X133517623Y-66179000D01*
X133348189Y-66212703D01*
X133308844Y-66229000D01*
X133184549Y-66229000D01*
X133184549Y-66167000D01*
X133174374Y-66063690D01*
X133144239Y-65964350D01*
X133095304Y-65872798D01*
X133029448Y-65792552D01*
X132949202Y-65726696D01*
X132857650Y-65677761D01*
X132758310Y-65647626D01*
X132655000Y-65637451D01*
X129095000Y-65637451D01*
X128991690Y-65647626D01*
X128892350Y-65677761D01*
X128800798Y-65726696D01*
X128720552Y-65792552D01*
X128654696Y-65872798D01*
X128605761Y-65964350D01*
X128575626Y-66063690D01*
X128565451Y-66167000D01*
X127974549Y-66167000D01*
X127964374Y-66063690D01*
X127934239Y-65964350D01*
X127885304Y-65872798D01*
X127819448Y-65792552D01*
X127739202Y-65726696D01*
X127647650Y-65677761D01*
X127548310Y-65647626D01*
X127445000Y-65637451D01*
X126492000Y-65637451D01*
X126492000Y-65607614D01*
X126496000Y-65567000D01*
X126492000Y-65526386D01*
X126492000Y-65526376D01*
X126480034Y-65404880D01*
X126432745Y-65248990D01*
X126381073Y-65152318D01*
X126355952Y-65105320D01*
X126278503Y-65010948D01*
X126278496Y-65010941D01*
X126252606Y-64979394D01*
X126221059Y-64953504D01*
X124973505Y-63705952D01*
X124947606Y-63674394D01*
X124821679Y-63571048D01*
X124678010Y-63494255D01*
X124522120Y-63446966D01*
X124400624Y-63435000D01*
X124400614Y-63435000D01*
X124360000Y-63431000D01*
X124319386Y-63435000D01*
X113272794Y-63435000D01*
X113279374Y-63413310D01*
X113289549Y-63310000D01*
X113289549Y-61310000D01*
X113279374Y-61206690D01*
X113249239Y-61107350D01*
X113200304Y-61015798D01*
X113134448Y-60935552D01*
X113054202Y-60869696D01*
X112962650Y-60820761D01*
X112962000Y-60820564D01*
X112962000Y-60692560D01*
X113005033Y-60550700D01*
X113021000Y-60388579D01*
X113005033Y-60226459D01*
X112957744Y-60070569D01*
X112910350Y-59981901D01*
X112880952Y-59926900D01*
X112777606Y-59800974D01*
X112746046Y-59775073D01*
X112414925Y-59443952D01*
X112389026Y-59412394D01*
X112263099Y-59309048D01*
X112119430Y-59232255D01*
X111963540Y-59184966D01*
X111842044Y-59173000D01*
X111842034Y-59173000D01*
X111801420Y-59169000D01*
X111760806Y-59173000D01*
X111615119Y-59173000D01*
X111575868Y-59125172D01*
X111495622Y-59059316D01*
X111404070Y-59010381D01*
X111304730Y-58980246D01*
X111201420Y-58970071D01*
X110302260Y-58970071D01*
X110198950Y-58980246D01*
X110101761Y-59009729D01*
X110052234Y-58969083D01*
X109941920Y-58910118D01*
X109822222Y-58873808D01*
X109697740Y-58861548D01*
X109533910Y-58864620D01*
X109375160Y-59023370D01*
X109375160Y-59873000D01*
X109395160Y-59873000D01*
X109395160Y-60127000D01*
X109375160Y-60127000D01*
X109375160Y-60147000D01*
X109121160Y-60147000D01*
X109121160Y-60127000D01*
X108322330Y-60127000D01*
X108163580Y-60285750D01*
X108160508Y-60500380D01*
X108172768Y-60624862D01*
X108209078Y-60744560D01*
X108268043Y-60854874D01*
X108347395Y-60951565D01*
X108362343Y-60963832D01*
X108319696Y-61015798D01*
X108270761Y-61107350D01*
X108240626Y-61206690D01*
X108230451Y-61310000D01*
X108230451Y-63310000D01*
X108240626Y-63413310D01*
X108270761Y-63512650D01*
X108319696Y-63604202D01*
X108385552Y-63684448D01*
X108465798Y-63750304D01*
X108557350Y-63799239D01*
X108608001Y-63814604D01*
X108608001Y-64620345D01*
X108556703Y-64744189D01*
X108523000Y-64913623D01*
X108523000Y-65086377D01*
X108556703Y-65255811D01*
X108622813Y-65415415D01*
X108718790Y-65559055D01*
X108840945Y-65681210D01*
X108984585Y-65777187D01*
X109144189Y-65843297D01*
X109313623Y-65877000D01*
X109486377Y-65877000D01*
X109630019Y-65848427D01*
X108974340Y-66504107D01*
X108919343Y-66557932D01*
X108893782Y-66595309D01*
X108865048Y-66630321D01*
X108847907Y-66662391D01*
X108827384Y-66692400D01*
X108809604Y-66734050D01*
X108788256Y-66773990D01*
X108777702Y-66808783D01*
X108763426Y-66842224D01*
X108754113Y-66886544D01*
X108740967Y-66929880D01*
X108737403Y-66966063D01*
X108729926Y-67001647D01*
X108729438Y-67046938D01*
X108725000Y-67092000D01*
X108731939Y-67162451D01*
X108356000Y-67162451D01*
X108252690Y-67172626D01*
X108153350Y-67202761D01*
X108061798Y-67251696D01*
X107981552Y-67317552D01*
X107915696Y-67397798D01*
X107866761Y-67489350D01*
X107836626Y-67588690D01*
X107826451Y-67692000D01*
X107826451Y-68452000D01*
X107832656Y-68515000D01*
X107483156Y-68515000D01*
X107443811Y-68498703D01*
X107274377Y-68465000D01*
X107101623Y-68465000D01*
X106932189Y-68498703D01*
X106772585Y-68564813D01*
X106628945Y-68660790D01*
X106527000Y-68762735D01*
X106527000Y-59499620D01*
X108160508Y-59499620D01*
X108163580Y-59714250D01*
X108322330Y-59873000D01*
X109121160Y-59873000D01*
X109121160Y-59023370D01*
X108962410Y-58864620D01*
X108798580Y-58861548D01*
X108674098Y-58873808D01*
X108554400Y-58910118D01*
X108444086Y-58969083D01*
X108347395Y-59048435D01*
X108268043Y-59145126D01*
X108209078Y-59255440D01*
X108172768Y-59375138D01*
X108160508Y-59499620D01*
X106527000Y-59499620D01*
X106527000Y-58527000D01*
X155473001Y-58527000D01*
X155473000Y-103473000D01*
M02*
