G04 #@! TF.GenerationSoftware,KiCad,Pcbnew,5.1.5-52549c5~86~ubuntu18.04.1*
G04 #@! TF.CreationDate,2020-12-30T12:38:52-08:00*
G04 #@! TF.ProjectId,Atmel_Adapter_rev02,41746d65-6c5f-4416-9461-707465725f72,rev?*
G04 #@! TF.SameCoordinates,Original*
G04 #@! TF.FileFunction,Paste,Top*
G04 #@! TF.FilePolarity,Positive*
%FSLAX46Y46*%
G04 Gerber Fmt 4.6, Leading zero omitted, Abs format (unit mm)*
G04 Created by KiCad (PCBNEW 5.1.5-52549c5~86~ubuntu18.04.1) date 2020-12-30 12:38:52*
%MOMM*%
%LPD*%
G04 APERTURE LIST*
%ADD10R,1.920000X0.608000*%
%ADD11R,2.848000X1.016000*%
%ADD12R,1.000000X1.600000*%
%ADD13R,1.600000X1.000000*%
%ADD14R,0.719328X0.800608*%
%ADD15R,0.800608X0.719328*%
G04 APERTURE END LIST*
D10*
X113456000Y-71882000D03*
X113456000Y-73152000D03*
X109556000Y-73152000D03*
X109556000Y-71882000D03*
X109556000Y-68072000D03*
X109556000Y-69342000D03*
X109556000Y-70612000D03*
X113456000Y-70612000D03*
X113456000Y-69342000D03*
X113456000Y-68072000D03*
X113964000Y-89916000D03*
X113964000Y-91186000D03*
X113964000Y-92456000D03*
X110064000Y-92456000D03*
X110064000Y-91186000D03*
X110064000Y-89916000D03*
X110064000Y-93726000D03*
X110064000Y-94996000D03*
X113964000Y-94996000D03*
X113964000Y-93726000D03*
D11*
X131129000Y-87630000D03*
X131129000Y-90170000D03*
X131129000Y-92710000D03*
X125919000Y-92710000D03*
X125919000Y-90170000D03*
X125919000Y-87630000D03*
X125919000Y-95270000D03*
X125919000Y-97810000D03*
X131129000Y-97810000D03*
X131129000Y-95270000D03*
X130875000Y-74442000D03*
X130875000Y-76982000D03*
X125665000Y-76982000D03*
X125665000Y-74442000D03*
X125665000Y-66802000D03*
X125665000Y-69342000D03*
X125665000Y-71882000D03*
X130875000Y-71882000D03*
X130875000Y-69342000D03*
X130875000Y-66802000D03*
X149925000Y-95016000D03*
X144715000Y-95016000D03*
X144715000Y-89916000D03*
X144715000Y-92456000D03*
X149925000Y-92456000D03*
X149925000Y-89916000D03*
D12*
X109385000Y-62310000D03*
X112135000Y-62310000D03*
D13*
X153000000Y-80625000D03*
X153000000Y-83375000D03*
D14*
X109248160Y-60000000D03*
X110751840Y-60000000D03*
D15*
X153000000Y-77503680D03*
X153000000Y-76000000D03*
M02*
