G04 #@! TF.FileFunction,Legend,Top*
%FSLAX46Y46*%
G04 Gerber Fmt 4.6, Leading zero omitted, Abs format (unit mm)*
G04 Created by KiCad (PCBNEW 4.0.7) date 11/21/18 11:39:18*
%MOMM*%
%LPD*%
G01*
G04 APERTURE LIST*
%ADD10C,0.150000*%
%ADD11C,0.250000*%
%ADD12C,0.125000*%
%ADD13C,0.200000*%
%ADD14C,0.175000*%
%ADD15C,0.127000*%
%ADD16C,0.149860*%
%ADD17C,0.200660*%
%ADD18C,0.254000*%
%ADD19C,0.400000*%
%ADD20C,0.099060*%
%ADD21C,0.190500*%
%ADD22C,0.285750*%
%ADD23C,0.284480*%
G04 APERTURE END LIST*
D10*
D11*
X76190476Y-119321429D02*
X76952381Y-119321429D01*
X77619047Y-119226190D02*
X77619047Y-119702381D01*
X77285714Y-118702381D02*
X77619047Y-119226190D01*
X77952381Y-118702381D01*
X106642857Y-113571429D02*
X107404762Y-113571429D01*
X107023810Y-113952381D02*
X107023810Y-113190476D01*
X107785714Y-112952381D02*
X108452381Y-113952381D01*
X108452381Y-112952381D02*
X107785714Y-113952381D01*
X76142857Y-113571429D02*
X76904762Y-113571429D01*
X77285714Y-112952381D02*
X77952381Y-113952381D01*
X77952381Y-112952381D02*
X77285714Y-113952381D01*
D12*
X76823809Y-104616667D02*
X76366666Y-104616667D01*
X76595237Y-104616667D02*
X76595237Y-103916667D01*
X76519047Y-104016667D01*
X76442856Y-104083333D01*
X76366666Y-104116667D01*
X77585714Y-104616667D02*
X77128571Y-104616667D01*
X77357142Y-104616667D02*
X77357142Y-103916667D01*
X77280952Y-104016667D01*
X77204761Y-104083333D01*
X77128571Y-104116667D01*
X78500000Y-103883333D02*
X77814285Y-104783333D01*
X78728571Y-103983333D02*
X78766666Y-103950000D01*
X78842857Y-103916667D01*
X79033333Y-103916667D01*
X79109523Y-103950000D01*
X79147619Y-103983333D01*
X79185714Y-104050000D01*
X79185714Y-104116667D01*
X79147619Y-104216667D01*
X78690476Y-104616667D01*
X79185714Y-104616667D01*
X79947619Y-104616667D02*
X79490476Y-104616667D01*
X79719047Y-104616667D02*
X79719047Y-103916667D01*
X79642857Y-104016667D01*
X79566666Y-104083333D01*
X79490476Y-104116667D01*
X80861905Y-103883333D02*
X80176190Y-104783333D01*
X81090476Y-103983333D02*
X81128571Y-103950000D01*
X81204762Y-103916667D01*
X81395238Y-103916667D01*
X81471428Y-103950000D01*
X81509524Y-103983333D01*
X81547619Y-104050000D01*
X81547619Y-104116667D01*
X81509524Y-104216667D01*
X81052381Y-104616667D01*
X81547619Y-104616667D01*
X82042857Y-103916667D02*
X82119048Y-103916667D01*
X82195238Y-103950000D01*
X82233333Y-103983333D01*
X82271429Y-104050000D01*
X82309524Y-104183333D01*
X82309524Y-104350000D01*
X82271429Y-104483333D01*
X82233333Y-104550000D01*
X82195238Y-104583333D01*
X82119048Y-104616667D01*
X82042857Y-104616667D01*
X81966667Y-104583333D01*
X81928571Y-104550000D01*
X81890476Y-104483333D01*
X81852381Y-104350000D01*
X81852381Y-104183333D01*
X81890476Y-104050000D01*
X81928571Y-103983333D01*
X81966667Y-103950000D01*
X82042857Y-103916667D01*
X83071429Y-104616667D02*
X82614286Y-104616667D01*
X82842857Y-104616667D02*
X82842857Y-103916667D01*
X82766667Y-104016667D01*
X82690476Y-104083333D01*
X82614286Y-104116667D01*
X83528572Y-104216667D02*
X83452381Y-104183333D01*
X83414286Y-104150000D01*
X83376191Y-104083333D01*
X83376191Y-104050000D01*
X83414286Y-103983333D01*
X83452381Y-103950000D01*
X83528572Y-103916667D01*
X83680953Y-103916667D01*
X83757143Y-103950000D01*
X83795239Y-103983333D01*
X83833334Y-104050000D01*
X83833334Y-104083333D01*
X83795239Y-104150000D01*
X83757143Y-104183333D01*
X83680953Y-104216667D01*
X83528572Y-104216667D01*
X83452381Y-104250000D01*
X83414286Y-104283333D01*
X83376191Y-104350000D01*
X83376191Y-104483333D01*
X83414286Y-104550000D01*
X83452381Y-104583333D01*
X83528572Y-104616667D01*
X83680953Y-104616667D01*
X83757143Y-104583333D01*
X83795239Y-104550000D01*
X83833334Y-104483333D01*
X83833334Y-104350000D01*
X83795239Y-104283333D01*
X83757143Y-104250000D01*
X83680953Y-104216667D01*
D13*
X75500000Y-103000000D02*
X75500000Y-120000000D01*
X75500000Y-120000000D02*
X109000000Y-120000000D01*
X109000000Y-120000000D02*
X109000000Y-103000000D01*
X109000000Y-103000000D02*
X75500000Y-103000000D01*
D11*
X85690476Y-104571429D02*
X86452381Y-104571429D01*
X86071429Y-104952381D02*
X86071429Y-104190476D01*
X87119047Y-104476190D02*
X87119047Y-104952381D01*
X86785714Y-103952381D02*
X87119047Y-104476190D01*
X87452381Y-103952381D01*
D13*
X176500000Y-120000000D02*
X176000000Y-120000000D01*
X175500000Y-152500000D02*
X175500000Y-120000000D01*
X75500000Y-152500000D02*
X175500000Y-152500000D01*
X75500000Y-120000000D02*
X75500000Y-152500000D01*
X175000000Y-120000000D02*
X75500000Y-120000000D01*
D11*
X76952381Y-137214286D02*
X76952381Y-137690477D01*
X77428571Y-137738096D01*
X77380952Y-137690477D01*
X77333333Y-137595239D01*
X77333333Y-137357143D01*
X77380952Y-137261905D01*
X77428571Y-137214286D01*
X77523810Y-137166667D01*
X77761905Y-137166667D01*
X77857143Y-137214286D01*
X77904762Y-137261905D01*
X77952381Y-137357143D01*
X77952381Y-137595239D01*
X77904762Y-137690477D01*
X77857143Y-137738096D01*
X76952381Y-136880953D02*
X77952381Y-136547620D01*
X76952381Y-136214286D01*
X76952381Y-134928572D02*
X76952381Y-134833333D01*
X77000000Y-134738095D01*
X77047619Y-134690476D01*
X77142857Y-134642857D01*
X77333333Y-134595238D01*
X77571429Y-134595238D01*
X77761905Y-134642857D01*
X77857143Y-134690476D01*
X77904762Y-134738095D01*
X77952381Y-134833333D01*
X77952381Y-134928572D01*
X77904762Y-135023810D01*
X77857143Y-135071429D01*
X77761905Y-135119048D01*
X77571429Y-135166667D01*
X77333333Y-135166667D01*
X77142857Y-135119048D01*
X77047619Y-135071429D01*
X77000000Y-135023810D01*
X76952381Y-134928572D01*
X76952381Y-134309524D02*
X77952381Y-133976191D01*
X76952381Y-133642857D01*
X77952381Y-132547619D02*
X76952381Y-132547619D01*
X76952381Y-132309524D01*
X77000000Y-132166666D01*
X77095238Y-132071428D01*
X77190476Y-132023809D01*
X77380952Y-131976190D01*
X77523810Y-131976190D01*
X77714286Y-132023809D01*
X77809524Y-132071428D01*
X77904762Y-132166666D01*
X77952381Y-132309524D01*
X77952381Y-132547619D01*
X76952381Y-131357143D02*
X76952381Y-131166666D01*
X77000000Y-131071428D01*
X77095238Y-130976190D01*
X77285714Y-130928571D01*
X77619048Y-130928571D01*
X77809524Y-130976190D01*
X77904762Y-131071428D01*
X77952381Y-131166666D01*
X77952381Y-131357143D01*
X77904762Y-131452381D01*
X77809524Y-131547619D01*
X77619048Y-131595238D01*
X77285714Y-131595238D01*
X77095238Y-131547619D01*
X77000000Y-131452381D01*
X76952381Y-131357143D01*
X77666667Y-129785714D02*
X77666667Y-129309523D01*
X77952381Y-129880952D02*
X76952381Y-129547619D01*
X77952381Y-129214285D01*
X76952381Y-128690476D02*
X76952381Y-128499999D01*
X77000000Y-128404761D01*
X77095238Y-128309523D01*
X77285714Y-128261904D01*
X77619048Y-128261904D01*
X77809524Y-128309523D01*
X77904762Y-128404761D01*
X77952381Y-128499999D01*
X77952381Y-128690476D01*
X77904762Y-128785714D01*
X77809524Y-128880952D01*
X77619048Y-128928571D01*
X77285714Y-128928571D01*
X77095238Y-128880952D01*
X77000000Y-128785714D01*
X76952381Y-128690476D01*
X79404762Y-139500000D02*
X79309524Y-139452381D01*
X79166667Y-139452381D01*
X79023809Y-139500000D01*
X78928571Y-139595238D01*
X78880952Y-139690476D01*
X78833333Y-139880952D01*
X78833333Y-140023810D01*
X78880952Y-140214286D01*
X78928571Y-140309524D01*
X79023809Y-140404762D01*
X79166667Y-140452381D01*
X79261905Y-140452381D01*
X79404762Y-140404762D01*
X79452381Y-140357143D01*
X79452381Y-140023810D01*
X79261905Y-140023810D01*
X80309524Y-140452381D02*
X80309524Y-139928571D01*
X80261905Y-139833333D01*
X80166667Y-139785714D01*
X79976190Y-139785714D01*
X79880952Y-139833333D01*
X80309524Y-140404762D02*
X80214286Y-140452381D01*
X79976190Y-140452381D01*
X79880952Y-140404762D01*
X79833333Y-140309524D01*
X79833333Y-140214286D01*
X79880952Y-140119048D01*
X79976190Y-140071429D01*
X80214286Y-140071429D01*
X80309524Y-140023810D01*
X80738095Y-140404762D02*
X80833333Y-140452381D01*
X81023809Y-140452381D01*
X81119048Y-140404762D01*
X81166667Y-140309524D01*
X81166667Y-140261905D01*
X81119048Y-140166667D01*
X81023809Y-140119048D01*
X80880952Y-140119048D01*
X80785714Y-140071429D01*
X80738095Y-139976190D01*
X80738095Y-139928571D01*
X80785714Y-139833333D01*
X80880952Y-139785714D01*
X81023809Y-139785714D01*
X81119048Y-139833333D01*
D14*
X84357144Y-146952381D02*
X84471429Y-146952381D01*
X84585715Y-147000000D01*
X84642858Y-147047619D01*
X84700001Y-147142857D01*
X84757144Y-147333333D01*
X84757144Y-147571429D01*
X84700001Y-147761905D01*
X84642858Y-147857143D01*
X84585715Y-147904762D01*
X84471429Y-147952381D01*
X84357144Y-147952381D01*
X84242858Y-147904762D01*
X84185715Y-147857143D01*
X84128572Y-147761905D01*
X84071429Y-147571429D01*
X84071429Y-147333333D01*
X84128572Y-147142857D01*
X84185715Y-147047619D01*
X84242858Y-147000000D01*
X84357144Y-146952381D01*
X85100001Y-146952381D02*
X85500001Y-147952381D01*
X85900001Y-146952381D01*
X87157143Y-147904762D02*
X87328572Y-147952381D01*
X87614286Y-147952381D01*
X87728572Y-147904762D01*
X87785715Y-147857143D01*
X87842858Y-147761905D01*
X87842858Y-147666667D01*
X87785715Y-147571429D01*
X87728572Y-147523810D01*
X87614286Y-147476190D01*
X87385715Y-147428571D01*
X87271429Y-147380952D01*
X87214286Y-147333333D01*
X87157143Y-147238095D01*
X87157143Y-147142857D01*
X87214286Y-147047619D01*
X87271429Y-147000000D01*
X87385715Y-146952381D01*
X87671429Y-146952381D01*
X87842858Y-147000000D01*
X89842858Y-146952381D02*
X89271429Y-146952381D01*
X89214286Y-147428571D01*
X89271429Y-147380952D01*
X89385715Y-147333333D01*
X89671429Y-147333333D01*
X89785715Y-147380952D01*
X89842858Y-147428571D01*
X89900001Y-147523810D01*
X89900001Y-147761905D01*
X89842858Y-147857143D01*
X89785715Y-147904762D01*
X89671429Y-147952381D01*
X89385715Y-147952381D01*
X89271429Y-147904762D01*
X89214286Y-147857143D01*
X90242858Y-146952381D02*
X90642858Y-147952381D01*
X91042858Y-146952381D01*
D11*
X81500000Y-148952381D02*
X81500000Y-147952381D01*
X81880953Y-147952381D01*
X81976191Y-148000000D01*
X82023810Y-148047619D01*
X82071429Y-148142857D01*
X82071429Y-148285714D01*
X82023810Y-148380952D01*
X81976191Y-148428571D01*
X81880953Y-148476190D01*
X81500000Y-148476190D01*
X82500000Y-148952381D02*
X82500000Y-147952381D01*
X83547619Y-148952381D02*
X83214285Y-148476190D01*
X82976190Y-148952381D02*
X82976190Y-147952381D01*
X83357143Y-147952381D01*
X83452381Y-148000000D01*
X83500000Y-148047619D01*
X83547619Y-148142857D01*
X83547619Y-148285714D01*
X83500000Y-148380952D01*
X83452381Y-148428571D01*
X83357143Y-148476190D01*
X82976190Y-148476190D01*
D14*
X102183335Y-138452381D02*
X102583335Y-138452381D01*
X102383335Y-139452381D02*
X102383335Y-138452381D01*
X103083334Y-139404762D02*
X103016668Y-139452381D01*
X102883334Y-139452381D01*
X102816668Y-139404762D01*
X102783334Y-139309524D01*
X102783334Y-138928571D01*
X102816668Y-138833333D01*
X102883334Y-138785714D01*
X103016668Y-138785714D01*
X103083334Y-138833333D01*
X103116668Y-138928571D01*
X103116668Y-139023810D01*
X102783334Y-139119048D01*
X103416668Y-139452381D02*
X103416668Y-138785714D01*
X103416668Y-138880952D02*
X103450001Y-138833333D01*
X103516668Y-138785714D01*
X103616668Y-138785714D01*
X103683334Y-138833333D01*
X103716668Y-138928571D01*
X103716668Y-139452381D01*
X103716668Y-138928571D02*
X103750001Y-138833333D01*
X103816668Y-138785714D01*
X103916668Y-138785714D01*
X103983334Y-138833333D01*
X104016668Y-138928571D01*
X104016668Y-139452381D01*
X104350001Y-138785714D02*
X104350001Y-139785714D01*
X104350001Y-138833333D02*
X104416667Y-138785714D01*
X104550001Y-138785714D01*
X104616667Y-138833333D01*
X104650001Y-138880952D01*
X104683334Y-138976190D01*
X104683334Y-139261905D01*
X104650001Y-139357143D01*
X104616667Y-139404762D01*
X104550001Y-139452381D01*
X104416667Y-139452381D01*
X104350001Y-139404762D01*
X105483333Y-139404762D02*
X105583333Y-139452381D01*
X105750000Y-139452381D01*
X105816667Y-139404762D01*
X105850000Y-139357143D01*
X105883333Y-139261905D01*
X105883333Y-139166667D01*
X105850000Y-139071429D01*
X105816667Y-139023810D01*
X105750000Y-138976190D01*
X105616667Y-138928571D01*
X105550000Y-138880952D01*
X105516667Y-138833333D01*
X105483333Y-138738095D01*
X105483333Y-138642857D01*
X105516667Y-138547619D01*
X105550000Y-138500000D01*
X105616667Y-138452381D01*
X105783333Y-138452381D01*
X105883333Y-138500000D01*
X106450000Y-139404762D02*
X106383334Y-139452381D01*
X106250000Y-139452381D01*
X106183334Y-139404762D01*
X106150000Y-139309524D01*
X106150000Y-138928571D01*
X106183334Y-138833333D01*
X106250000Y-138785714D01*
X106383334Y-138785714D01*
X106450000Y-138833333D01*
X106483334Y-138928571D01*
X106483334Y-139023810D01*
X106150000Y-139119048D01*
X106783334Y-138785714D02*
X106783334Y-139452381D01*
X106783334Y-138880952D02*
X106816667Y-138833333D01*
X106883334Y-138785714D01*
X106983334Y-138785714D01*
X107050000Y-138833333D01*
X107083334Y-138928571D01*
X107083334Y-139452381D01*
X107383333Y-139404762D02*
X107450000Y-139452381D01*
X107583333Y-139452381D01*
X107650000Y-139404762D01*
X107683333Y-139309524D01*
X107683333Y-139261905D01*
X107650000Y-139166667D01*
X107583333Y-139119048D01*
X107483333Y-139119048D01*
X107416667Y-139071429D01*
X107383333Y-138976190D01*
X107383333Y-138928571D01*
X107416667Y-138833333D01*
X107483333Y-138785714D01*
X107583333Y-138785714D01*
X107650000Y-138833333D01*
X108083334Y-139452381D02*
X108016667Y-139404762D01*
X107983334Y-139357143D01*
X107950000Y-139261905D01*
X107950000Y-138976190D01*
X107983334Y-138880952D01*
X108016667Y-138833333D01*
X108083334Y-138785714D01*
X108183334Y-138785714D01*
X108250000Y-138833333D01*
X108283334Y-138880952D01*
X108316667Y-138976190D01*
X108316667Y-139261905D01*
X108283334Y-139357143D01*
X108250000Y-139404762D01*
X108183334Y-139452381D01*
X108083334Y-139452381D01*
X108616667Y-139452381D02*
X108616667Y-138785714D01*
X108616667Y-138976190D02*
X108650000Y-138880952D01*
X108683333Y-138833333D01*
X108750000Y-138785714D01*
X108816667Y-138785714D01*
X93133334Y-147952381D02*
X93300001Y-148952381D01*
X93433334Y-148238095D01*
X93566667Y-148952381D01*
X93733334Y-147952381D01*
X94300001Y-148952381D02*
X94300001Y-148428571D01*
X94266667Y-148333333D01*
X94200001Y-148285714D01*
X94066667Y-148285714D01*
X94000001Y-148333333D01*
X94300001Y-148904762D02*
X94233334Y-148952381D01*
X94066667Y-148952381D01*
X94000001Y-148904762D01*
X93966667Y-148809524D01*
X93966667Y-148714286D01*
X94000001Y-148619048D01*
X94066667Y-148571429D01*
X94233334Y-148571429D01*
X94300001Y-148523810D01*
X94533334Y-148285714D02*
X94800000Y-148285714D01*
X94633334Y-147952381D02*
X94633334Y-148809524D01*
X94666667Y-148904762D01*
X94733334Y-148952381D01*
X94800000Y-148952381D01*
X95300000Y-148904762D02*
X95233334Y-148952381D01*
X95100000Y-148952381D01*
X95033334Y-148904762D01*
X95000000Y-148809524D01*
X95000000Y-148428571D01*
X95033334Y-148333333D01*
X95100000Y-148285714D01*
X95233334Y-148285714D01*
X95300000Y-148333333D01*
X95333334Y-148428571D01*
X95333334Y-148523810D01*
X95000000Y-148619048D01*
X95633334Y-148952381D02*
X95633334Y-148285714D01*
X95633334Y-148476190D02*
X95666667Y-148380952D01*
X95700000Y-148333333D01*
X95766667Y-148285714D01*
X95833334Y-148285714D01*
X96566666Y-148904762D02*
X96666666Y-148952381D01*
X96833333Y-148952381D01*
X96900000Y-148904762D01*
X96933333Y-148857143D01*
X96966666Y-148761905D01*
X96966666Y-148666667D01*
X96933333Y-148571429D01*
X96900000Y-148523810D01*
X96833333Y-148476190D01*
X96700000Y-148428571D01*
X96633333Y-148380952D01*
X96600000Y-148333333D01*
X96566666Y-148238095D01*
X96566666Y-148142857D01*
X96600000Y-148047619D01*
X96633333Y-148000000D01*
X96700000Y-147952381D01*
X96866666Y-147952381D01*
X96966666Y-148000000D01*
X97533333Y-148904762D02*
X97466667Y-148952381D01*
X97333333Y-148952381D01*
X97266667Y-148904762D01*
X97233333Y-148809524D01*
X97233333Y-148428571D01*
X97266667Y-148333333D01*
X97333333Y-148285714D01*
X97466667Y-148285714D01*
X97533333Y-148333333D01*
X97566667Y-148428571D01*
X97566667Y-148523810D01*
X97233333Y-148619048D01*
X97866667Y-148285714D02*
X97866667Y-148952381D01*
X97866667Y-148380952D02*
X97900000Y-148333333D01*
X97966667Y-148285714D01*
X98066667Y-148285714D01*
X98133333Y-148333333D01*
X98166667Y-148428571D01*
X98166667Y-148952381D01*
X98466666Y-148904762D02*
X98533333Y-148952381D01*
X98666666Y-148952381D01*
X98733333Y-148904762D01*
X98766666Y-148809524D01*
X98766666Y-148761905D01*
X98733333Y-148666667D01*
X98666666Y-148619048D01*
X98566666Y-148619048D01*
X98500000Y-148571429D01*
X98466666Y-148476190D01*
X98466666Y-148428571D01*
X98500000Y-148333333D01*
X98566666Y-148285714D01*
X98666666Y-148285714D01*
X98733333Y-148333333D01*
X99166667Y-148952381D02*
X99100000Y-148904762D01*
X99066667Y-148857143D01*
X99033333Y-148761905D01*
X99033333Y-148476190D01*
X99066667Y-148380952D01*
X99100000Y-148333333D01*
X99166667Y-148285714D01*
X99266667Y-148285714D01*
X99333333Y-148333333D01*
X99366667Y-148380952D01*
X99400000Y-148476190D01*
X99400000Y-148761905D01*
X99366667Y-148857143D01*
X99333333Y-148904762D01*
X99266667Y-148952381D01*
X99166667Y-148952381D01*
X99700000Y-148952381D02*
X99700000Y-148285714D01*
X99700000Y-148476190D02*
X99733333Y-148380952D01*
X99766666Y-148333333D01*
X99833333Y-148285714D01*
X99900000Y-148285714D01*
X93550000Y-147404762D02*
X93650000Y-147452381D01*
X93816667Y-147452381D01*
X93883334Y-147404762D01*
X93916667Y-147357143D01*
X93950000Y-147261905D01*
X93950000Y-147166667D01*
X93916667Y-147071429D01*
X93883334Y-147023810D01*
X93816667Y-146976190D01*
X93683334Y-146928571D01*
X93616667Y-146880952D01*
X93583334Y-146833333D01*
X93550000Y-146738095D01*
X93550000Y-146642857D01*
X93583334Y-146547619D01*
X93616667Y-146500000D01*
X93683334Y-146452381D01*
X93850000Y-146452381D01*
X93950000Y-146500000D01*
X94250001Y-147452381D02*
X94250001Y-146452381D01*
X94950000Y-146500000D02*
X94883334Y-146452381D01*
X94783334Y-146452381D01*
X94683334Y-146500000D01*
X94616667Y-146595238D01*
X94583334Y-146690476D01*
X94550000Y-146880952D01*
X94550000Y-147023810D01*
X94583334Y-147214286D01*
X94616667Y-147309524D01*
X94683334Y-147404762D01*
X94783334Y-147452381D01*
X94850000Y-147452381D01*
X94950000Y-147404762D01*
X94983334Y-147357143D01*
X94983334Y-147023810D01*
X94850000Y-147023810D01*
X95750000Y-146452381D02*
X96183333Y-146452381D01*
X95950000Y-146833333D01*
X96050000Y-146833333D01*
X96116667Y-146880952D01*
X96150000Y-146928571D01*
X96183333Y-147023810D01*
X96183333Y-147261905D01*
X96150000Y-147357143D01*
X96116667Y-147404762D01*
X96050000Y-147452381D01*
X95850000Y-147452381D01*
X95783333Y-147404762D01*
X95750000Y-147357143D01*
X96383334Y-146452381D02*
X96616667Y-147452381D01*
X96850000Y-146452381D01*
X97983333Y-146500000D02*
X97916667Y-146452381D01*
X97816667Y-146452381D01*
X97716667Y-146500000D01*
X97650000Y-146595238D01*
X97616667Y-146690476D01*
X97583333Y-146880952D01*
X97583333Y-147023810D01*
X97616667Y-147214286D01*
X97650000Y-147309524D01*
X97716667Y-147404762D01*
X97816667Y-147452381D01*
X97883333Y-147452381D01*
X97983333Y-147404762D01*
X98016667Y-147357143D01*
X98016667Y-147023810D01*
X97883333Y-147023810D01*
X98316667Y-147452381D02*
X98316667Y-146452381D01*
X98716667Y-147452381D01*
X98716667Y-146452381D01*
X99050000Y-147452381D02*
X99050000Y-146452381D01*
X99216666Y-146452381D01*
X99316666Y-146500000D01*
X99383333Y-146595238D01*
X99416666Y-146690476D01*
X99450000Y-146880952D01*
X99450000Y-147023810D01*
X99416666Y-147214286D01*
X99383333Y-147309524D01*
X99316666Y-147404762D01*
X99216666Y-147452381D01*
X99050000Y-147452381D01*
X103216667Y-147452381D02*
X103216667Y-146452381D01*
X103483333Y-146452381D01*
X103550000Y-146500000D01*
X103583333Y-146547619D01*
X103616667Y-146642857D01*
X103616667Y-146785714D01*
X103583333Y-146880952D01*
X103550000Y-146928571D01*
X103483333Y-146976190D01*
X103216667Y-146976190D01*
X104316667Y-147452381D02*
X104083333Y-146976190D01*
X103916667Y-147452381D02*
X103916667Y-146452381D01*
X104183333Y-146452381D01*
X104250000Y-146500000D01*
X104283333Y-146547619D01*
X104316667Y-146642857D01*
X104316667Y-146785714D01*
X104283333Y-146880952D01*
X104250000Y-146928571D01*
X104183333Y-146976190D01*
X103916667Y-146976190D01*
X104983333Y-146500000D02*
X104916667Y-146452381D01*
X104816667Y-146452381D01*
X104716667Y-146500000D01*
X104650000Y-146595238D01*
X104616667Y-146690476D01*
X104583333Y-146880952D01*
X104583333Y-147023810D01*
X104616667Y-147214286D01*
X104650000Y-147309524D01*
X104716667Y-147404762D01*
X104816667Y-147452381D01*
X104883333Y-147452381D01*
X104983333Y-147404762D01*
X105016667Y-147357143D01*
X105016667Y-147023810D01*
X104883333Y-147023810D01*
X105316667Y-147452381D02*
X105316667Y-146452381D01*
X105550000Y-147166667D01*
X105783333Y-146452381D01*
X105783333Y-147452381D01*
X92150000Y-136952381D02*
X92583333Y-136952381D01*
X92350000Y-137333333D01*
X92450000Y-137333333D01*
X92516667Y-137380952D01*
X92550000Y-137428571D01*
X92583333Y-137523810D01*
X92583333Y-137761905D01*
X92550000Y-137857143D01*
X92516667Y-137904762D01*
X92450000Y-137952381D01*
X92250000Y-137952381D01*
X92183333Y-137904762D01*
X92150000Y-137857143D01*
X92783334Y-136952381D02*
X93016667Y-137952381D01*
X93250000Y-136952381D01*
X94383333Y-137000000D02*
X94316667Y-136952381D01*
X94216667Y-136952381D01*
X94116667Y-137000000D01*
X94050000Y-137095238D01*
X94016667Y-137190476D01*
X93983333Y-137380952D01*
X93983333Y-137523810D01*
X94016667Y-137714286D01*
X94050000Y-137809524D01*
X94116667Y-137904762D01*
X94216667Y-137952381D01*
X94283333Y-137952381D01*
X94383333Y-137904762D01*
X94416667Y-137857143D01*
X94416667Y-137523810D01*
X94283333Y-137523810D01*
X94716667Y-137952381D02*
X94716667Y-136952381D01*
X95116667Y-137952381D01*
X95116667Y-136952381D01*
X95450000Y-137952381D02*
X95450000Y-136952381D01*
X95616666Y-136952381D01*
X95716666Y-137000000D01*
X95783333Y-137095238D01*
X95816666Y-137190476D01*
X95850000Y-137380952D01*
X95850000Y-137523810D01*
X95816666Y-137714286D01*
X95783333Y-137809524D01*
X95716666Y-137904762D01*
X95616666Y-137952381D01*
X95450000Y-137952381D01*
X96649999Y-137904762D02*
X96749999Y-137952381D01*
X96916666Y-137952381D01*
X96983333Y-137904762D01*
X97016666Y-137857143D01*
X97049999Y-137761905D01*
X97049999Y-137666667D01*
X97016666Y-137571429D01*
X96983333Y-137523810D01*
X96916666Y-137476190D01*
X96783333Y-137428571D01*
X96716666Y-137380952D01*
X96683333Y-137333333D01*
X96649999Y-137238095D01*
X96649999Y-137142857D01*
X96683333Y-137047619D01*
X96716666Y-137000000D01*
X96783333Y-136952381D01*
X96949999Y-136952381D01*
X97049999Y-137000000D01*
X97750000Y-137857143D02*
X97716666Y-137904762D01*
X97616666Y-137952381D01*
X97550000Y-137952381D01*
X97450000Y-137904762D01*
X97383333Y-137809524D01*
X97350000Y-137714286D01*
X97316666Y-137523810D01*
X97316666Y-137380952D01*
X97350000Y-137190476D01*
X97383333Y-137095238D01*
X97450000Y-137000000D01*
X97550000Y-136952381D01*
X97616666Y-136952381D01*
X97716666Y-137000000D01*
X97750000Y-137047619D01*
X98383333Y-137952381D02*
X98050000Y-137952381D01*
X98050000Y-136952381D01*
X99116666Y-137904762D02*
X99216666Y-137952381D01*
X99383333Y-137952381D01*
X99450000Y-137904762D01*
X99483333Y-137857143D01*
X99516666Y-137761905D01*
X99516666Y-137666667D01*
X99483333Y-137571429D01*
X99450000Y-137523810D01*
X99383333Y-137476190D01*
X99250000Y-137428571D01*
X99183333Y-137380952D01*
X99150000Y-137333333D01*
X99116666Y-137238095D01*
X99116666Y-137142857D01*
X99150000Y-137047619D01*
X99183333Y-137000000D01*
X99250000Y-136952381D01*
X99416666Y-136952381D01*
X99516666Y-137000000D01*
X99816667Y-137952381D02*
X99816667Y-136952381D01*
X99983333Y-136952381D01*
X100083333Y-137000000D01*
X100150000Y-137095238D01*
X100183333Y-137190476D01*
X100216667Y-137380952D01*
X100216667Y-137523810D01*
X100183333Y-137714286D01*
X100150000Y-137809524D01*
X100083333Y-137904762D01*
X99983333Y-137952381D01*
X99816667Y-137952381D01*
X100483333Y-137666667D02*
X100816667Y-137666667D01*
X100416667Y-137952381D02*
X100650000Y-136952381D01*
X100883333Y-137952381D01*
D11*
X152190476Y-104071429D02*
X152952381Y-104071429D01*
X152571429Y-104452381D02*
X152571429Y-103690476D01*
X153619047Y-103976190D02*
X153619047Y-104452381D01*
X153285714Y-103452381D02*
X153619047Y-103976190D01*
X153952381Y-103452381D01*
D13*
X175500000Y-102500000D02*
X142000000Y-102500000D01*
X175500000Y-119500000D02*
X175500000Y-102500000D01*
X142000000Y-119500000D02*
X175500000Y-119500000D01*
X142000000Y-102500000D02*
X142000000Y-119500000D01*
D12*
X143323809Y-104116667D02*
X142866666Y-104116667D01*
X143095237Y-104116667D02*
X143095237Y-103416667D01*
X143019047Y-103516667D01*
X142942856Y-103583333D01*
X142866666Y-103616667D01*
X144085714Y-104116667D02*
X143628571Y-104116667D01*
X143857142Y-104116667D02*
X143857142Y-103416667D01*
X143780952Y-103516667D01*
X143704761Y-103583333D01*
X143628571Y-103616667D01*
X145000000Y-103383333D02*
X144314285Y-104283333D01*
X145228571Y-103483333D02*
X145266666Y-103450000D01*
X145342857Y-103416667D01*
X145533333Y-103416667D01*
X145609523Y-103450000D01*
X145647619Y-103483333D01*
X145685714Y-103550000D01*
X145685714Y-103616667D01*
X145647619Y-103716667D01*
X145190476Y-104116667D01*
X145685714Y-104116667D01*
X146447619Y-104116667D02*
X145990476Y-104116667D01*
X146219047Y-104116667D02*
X146219047Y-103416667D01*
X146142857Y-103516667D01*
X146066666Y-103583333D01*
X145990476Y-103616667D01*
X147361905Y-103383333D02*
X146676190Y-104283333D01*
X147590476Y-103483333D02*
X147628571Y-103450000D01*
X147704762Y-103416667D01*
X147895238Y-103416667D01*
X147971428Y-103450000D01*
X148009524Y-103483333D01*
X148047619Y-103550000D01*
X148047619Y-103616667D01*
X148009524Y-103716667D01*
X147552381Y-104116667D01*
X148047619Y-104116667D01*
X148542857Y-103416667D02*
X148619048Y-103416667D01*
X148695238Y-103450000D01*
X148733333Y-103483333D01*
X148771429Y-103550000D01*
X148809524Y-103683333D01*
X148809524Y-103850000D01*
X148771429Y-103983333D01*
X148733333Y-104050000D01*
X148695238Y-104083333D01*
X148619048Y-104116667D01*
X148542857Y-104116667D01*
X148466667Y-104083333D01*
X148428571Y-104050000D01*
X148390476Y-103983333D01*
X148352381Y-103850000D01*
X148352381Y-103683333D01*
X148390476Y-103550000D01*
X148428571Y-103483333D01*
X148466667Y-103450000D01*
X148542857Y-103416667D01*
X149571429Y-104116667D02*
X149114286Y-104116667D01*
X149342857Y-104116667D02*
X149342857Y-103416667D01*
X149266667Y-103516667D01*
X149190476Y-103583333D01*
X149114286Y-103616667D01*
X150028572Y-103716667D02*
X149952381Y-103683333D01*
X149914286Y-103650000D01*
X149876191Y-103583333D01*
X149876191Y-103550000D01*
X149914286Y-103483333D01*
X149952381Y-103450000D01*
X150028572Y-103416667D01*
X150180953Y-103416667D01*
X150257143Y-103450000D01*
X150295239Y-103483333D01*
X150333334Y-103550000D01*
X150333334Y-103583333D01*
X150295239Y-103650000D01*
X150257143Y-103683333D01*
X150180953Y-103716667D01*
X150028572Y-103716667D01*
X149952381Y-103750000D01*
X149914286Y-103783333D01*
X149876191Y-103850000D01*
X149876191Y-103983333D01*
X149914286Y-104050000D01*
X149952381Y-104083333D01*
X150028572Y-104116667D01*
X150180953Y-104116667D01*
X150257143Y-104083333D01*
X150295239Y-104050000D01*
X150333334Y-103983333D01*
X150333334Y-103850000D01*
X150295239Y-103783333D01*
X150257143Y-103750000D01*
X150180953Y-103716667D01*
D11*
X142642857Y-113071429D02*
X143404762Y-113071429D01*
X143785714Y-112452381D02*
X144452381Y-113452381D01*
X144452381Y-112452381D02*
X143785714Y-113452381D01*
X173142857Y-113071429D02*
X173904762Y-113071429D01*
X173523810Y-113452381D02*
X173523810Y-112690476D01*
X174285714Y-112452381D02*
X174952381Y-113452381D01*
X174952381Y-112452381D02*
X174285714Y-113452381D01*
X142690476Y-118821429D02*
X143452381Y-118821429D01*
X144119047Y-118726190D02*
X144119047Y-119202381D01*
X143785714Y-118202381D02*
X144119047Y-118726190D01*
X144452381Y-118202381D01*
X118690476Y-104071429D02*
X119452381Y-104071429D01*
X119071429Y-104452381D02*
X119071429Y-103690476D01*
X120119047Y-103976190D02*
X120119047Y-104452381D01*
X119785714Y-103452381D02*
X120119047Y-103976190D01*
X120452381Y-103452381D01*
D13*
X142000000Y-102500000D02*
X108500000Y-102500000D01*
X142000000Y-119500000D02*
X142000000Y-102500000D01*
X108500000Y-119500000D02*
X142000000Y-119500000D01*
X108500000Y-102500000D02*
X108500000Y-119500000D01*
D12*
X109823809Y-104116667D02*
X109366666Y-104116667D01*
X109595237Y-104116667D02*
X109595237Y-103416667D01*
X109519047Y-103516667D01*
X109442856Y-103583333D01*
X109366666Y-103616667D01*
X110585714Y-104116667D02*
X110128571Y-104116667D01*
X110357142Y-104116667D02*
X110357142Y-103416667D01*
X110280952Y-103516667D01*
X110204761Y-103583333D01*
X110128571Y-103616667D01*
X111500000Y-103383333D02*
X110814285Y-104283333D01*
X111728571Y-103483333D02*
X111766666Y-103450000D01*
X111842857Y-103416667D01*
X112033333Y-103416667D01*
X112109523Y-103450000D01*
X112147619Y-103483333D01*
X112185714Y-103550000D01*
X112185714Y-103616667D01*
X112147619Y-103716667D01*
X111690476Y-104116667D01*
X112185714Y-104116667D01*
X112947619Y-104116667D02*
X112490476Y-104116667D01*
X112719047Y-104116667D02*
X112719047Y-103416667D01*
X112642857Y-103516667D01*
X112566666Y-103583333D01*
X112490476Y-103616667D01*
X113861905Y-103383333D02*
X113176190Y-104283333D01*
X114090476Y-103483333D02*
X114128571Y-103450000D01*
X114204762Y-103416667D01*
X114395238Y-103416667D01*
X114471428Y-103450000D01*
X114509524Y-103483333D01*
X114547619Y-103550000D01*
X114547619Y-103616667D01*
X114509524Y-103716667D01*
X114052381Y-104116667D01*
X114547619Y-104116667D01*
X115042857Y-103416667D02*
X115119048Y-103416667D01*
X115195238Y-103450000D01*
X115233333Y-103483333D01*
X115271429Y-103550000D01*
X115309524Y-103683333D01*
X115309524Y-103850000D01*
X115271429Y-103983333D01*
X115233333Y-104050000D01*
X115195238Y-104083333D01*
X115119048Y-104116667D01*
X115042857Y-104116667D01*
X114966667Y-104083333D01*
X114928571Y-104050000D01*
X114890476Y-103983333D01*
X114852381Y-103850000D01*
X114852381Y-103683333D01*
X114890476Y-103550000D01*
X114928571Y-103483333D01*
X114966667Y-103450000D01*
X115042857Y-103416667D01*
X116071429Y-104116667D02*
X115614286Y-104116667D01*
X115842857Y-104116667D02*
X115842857Y-103416667D01*
X115766667Y-103516667D01*
X115690476Y-103583333D01*
X115614286Y-103616667D01*
X116528572Y-103716667D02*
X116452381Y-103683333D01*
X116414286Y-103650000D01*
X116376191Y-103583333D01*
X116376191Y-103550000D01*
X116414286Y-103483333D01*
X116452381Y-103450000D01*
X116528572Y-103416667D01*
X116680953Y-103416667D01*
X116757143Y-103450000D01*
X116795239Y-103483333D01*
X116833334Y-103550000D01*
X116833334Y-103583333D01*
X116795239Y-103650000D01*
X116757143Y-103683333D01*
X116680953Y-103716667D01*
X116528572Y-103716667D01*
X116452381Y-103750000D01*
X116414286Y-103783333D01*
X116376191Y-103850000D01*
X116376191Y-103983333D01*
X116414286Y-104050000D01*
X116452381Y-104083333D01*
X116528572Y-104116667D01*
X116680953Y-104116667D01*
X116757143Y-104083333D01*
X116795239Y-104050000D01*
X116833334Y-103983333D01*
X116833334Y-103850000D01*
X116795239Y-103783333D01*
X116757143Y-103750000D01*
X116680953Y-103716667D01*
D11*
X109142857Y-113071429D02*
X109904762Y-113071429D01*
X110285714Y-112452381D02*
X110952381Y-113452381D01*
X110952381Y-112452381D02*
X110285714Y-113452381D01*
X139642857Y-113071429D02*
X140404762Y-113071429D01*
X140023810Y-113452381D02*
X140023810Y-112690476D01*
X140785714Y-112452381D02*
X141452381Y-113452381D01*
X141452381Y-112452381D02*
X140785714Y-113452381D01*
X109190476Y-118821429D02*
X109952381Y-118821429D01*
X110619047Y-118726190D02*
X110619047Y-119202381D01*
X110285714Y-118202381D02*
X110619047Y-118726190D01*
X110952381Y-118202381D01*
D15*
X84638000Y-115792000D02*
X84638000Y-114776000D01*
X84638000Y-114776000D02*
X86162000Y-114776000D01*
X86162000Y-114776000D02*
X86162000Y-115792000D01*
X86162000Y-116808000D02*
X86162000Y-117824000D01*
X86162000Y-117824000D02*
X84638000Y-117824000D01*
X84638000Y-117824000D02*
X84638000Y-116808000D01*
D16*
X81008640Y-108510800D02*
X85489200Y-108510800D01*
X80510800Y-109008640D02*
X80510800Y-113489200D01*
X80510800Y-109008640D02*
X81008640Y-108510800D01*
D17*
X81008640Y-109257560D02*
X81008640Y-109008640D01*
X81008640Y-109008640D02*
X81257560Y-109008640D01*
X81257560Y-112991360D02*
X81008640Y-112991360D01*
X81008640Y-112991360D02*
X81008640Y-112742440D01*
X84991360Y-112742440D02*
X84991360Y-112991360D01*
X84991360Y-112991360D02*
X84742440Y-112991360D01*
X84742440Y-109008640D02*
X84991360Y-109008640D01*
X84991360Y-109008640D02*
X84991360Y-109257560D01*
D16*
X85489200Y-113489200D02*
X80510800Y-113489200D01*
X85489200Y-108510800D02*
X85489200Y-113489200D01*
D15*
X83393600Y-116558800D02*
X84206400Y-116558800D01*
X84181000Y-115441200D02*
X83393600Y-115441200D01*
X84206400Y-115187200D02*
X84206400Y-116812800D01*
X84206400Y-116812800D02*
X83393600Y-116812800D01*
X83393600Y-116812800D02*
X83393600Y-115187200D01*
X83393600Y-115187200D02*
X84206400Y-115187200D01*
X81793600Y-116558800D02*
X82606400Y-116558800D01*
X82581000Y-115441200D02*
X81793600Y-115441200D01*
X82606400Y-115187200D02*
X82606400Y-116812800D01*
X82606400Y-116812800D02*
X81793600Y-116812800D01*
X81793600Y-116812800D02*
X81793600Y-115187200D01*
X81793600Y-115187200D02*
X82606400Y-115187200D01*
X85058800Y-106906400D02*
X85058800Y-106093600D01*
X83941200Y-106119000D02*
X83941200Y-106906400D01*
X83687200Y-106093600D02*
X85312800Y-106093600D01*
X85312800Y-106093600D02*
X85312800Y-106906400D01*
X85312800Y-106906400D02*
X83687200Y-106906400D01*
X83687200Y-106906400D02*
X83687200Y-106093600D01*
X80193600Y-116558800D02*
X81006400Y-116558800D01*
X80981000Y-115441200D02*
X80193600Y-115441200D01*
X81006400Y-115187200D02*
X81006400Y-116812800D01*
X81006400Y-116812800D02*
X80193600Y-116812800D01*
X80193600Y-116812800D02*
X80193600Y-115187200D01*
X80193600Y-115187200D02*
X81006400Y-115187200D01*
D18*
X88060000Y-119400000D02*
X88060000Y-103600000D01*
X88060000Y-103600000D02*
X103940000Y-103600000D01*
X103940000Y-103600000D02*
X103940000Y-119400000D01*
X103940000Y-119400000D02*
X88060000Y-119400000D01*
X102000000Y-145770000D02*
X107000000Y-145770000D01*
X101980000Y-145770000D02*
X101980000Y-143230000D01*
X102000000Y-143214760D02*
X107000000Y-143214760D01*
X107035240Y-143214760D02*
X107035240Y-145775080D01*
X92690000Y-145770000D02*
X100310000Y-145770000D01*
X92690000Y-145770000D02*
X92690000Y-143230000D01*
X92690000Y-143214760D02*
X100310000Y-143214760D01*
X100310000Y-143214760D02*
X100310000Y-145775080D01*
X83690000Y-151770000D02*
X91310000Y-151770000D01*
X83690000Y-151770000D02*
X83690000Y-149230000D01*
X83690000Y-149214760D02*
X91310000Y-149214760D01*
X91310000Y-149214760D02*
X91310000Y-151775080D01*
D15*
X84730000Y-127930000D02*
X84730000Y-129070000D01*
X87270000Y-127930000D02*
X87270000Y-129070000D01*
X84750000Y-127930000D02*
X87250000Y-127930000D01*
X87250000Y-129070000D02*
X84750000Y-129070000D01*
X84530000Y-129930000D02*
X84530000Y-131070000D01*
X87070000Y-129930000D02*
X87070000Y-131070000D01*
X84550000Y-129930000D02*
X87050000Y-129930000D01*
X87050000Y-131070000D02*
X84550000Y-131070000D01*
D13*
X169500000Y-133000000D02*
X163500000Y-133000000D01*
X163500000Y-133000000D02*
X163500000Y-140000000D01*
X163500000Y-140000000D02*
X169500000Y-140000000D01*
D19*
X121000000Y-149300000D02*
G75*
G03X121000000Y-149300000I-600000J0D01*
G01*
D13*
X121600000Y-125500000D02*
X169600000Y-125500000D01*
X169600000Y-125500000D02*
X169600000Y-147500000D01*
X169600000Y-147500000D02*
X121600000Y-147500000D01*
X121600000Y-147500000D02*
X121600000Y-125500000D01*
D18*
X101580000Y-138730000D02*
X91420000Y-138730000D01*
X101580000Y-138730000D02*
X101580000Y-141270000D01*
X101580000Y-141285240D02*
X91420000Y-141285240D01*
X91420000Y-141285240D02*
X91420000Y-138724920D01*
X81170000Y-138280000D02*
X81170000Y-128120000D01*
X81170000Y-138280000D02*
X78630000Y-138280000D01*
X78614760Y-138280000D02*
X78614760Y-128120000D01*
X78614760Y-128120000D02*
X81175080Y-128120000D01*
X154560000Y-118900000D02*
X154560000Y-103100000D01*
X154560000Y-103100000D02*
X170440000Y-103100000D01*
X170440000Y-103100000D02*
X170440000Y-118900000D01*
X170440000Y-118900000D02*
X154560000Y-118900000D01*
D15*
X146693600Y-116058800D02*
X147506400Y-116058800D01*
X147481000Y-114941200D02*
X146693600Y-114941200D01*
X147506400Y-114687200D02*
X147506400Y-116312800D01*
X147506400Y-116312800D02*
X146693600Y-116312800D01*
X146693600Y-116312800D02*
X146693600Y-114687200D01*
X146693600Y-114687200D02*
X147506400Y-114687200D01*
X151558800Y-106406400D02*
X151558800Y-105593600D01*
X150441200Y-105619000D02*
X150441200Y-106406400D01*
X150187200Y-105593600D02*
X151812800Y-105593600D01*
X151812800Y-105593600D02*
X151812800Y-106406400D01*
X151812800Y-106406400D02*
X150187200Y-106406400D01*
X150187200Y-106406400D02*
X150187200Y-105593600D01*
X148293600Y-116058800D02*
X149106400Y-116058800D01*
X149081000Y-114941200D02*
X148293600Y-114941200D01*
X149106400Y-114687200D02*
X149106400Y-116312800D01*
X149106400Y-116312800D02*
X148293600Y-116312800D01*
X148293600Y-116312800D02*
X148293600Y-114687200D01*
X148293600Y-114687200D02*
X149106400Y-114687200D01*
X149893600Y-116058800D02*
X150706400Y-116058800D01*
X150681000Y-114941200D02*
X149893600Y-114941200D01*
X150706400Y-114687200D02*
X150706400Y-116312800D01*
X150706400Y-116312800D02*
X149893600Y-116312800D01*
X149893600Y-116312800D02*
X149893600Y-114687200D01*
X149893600Y-114687200D02*
X150706400Y-114687200D01*
D16*
X147508640Y-108010800D02*
X151989200Y-108010800D01*
X147010800Y-108508640D02*
X147010800Y-112989200D01*
X147010800Y-108508640D02*
X147508640Y-108010800D01*
D17*
X147508640Y-108757560D02*
X147508640Y-108508640D01*
X147508640Y-108508640D02*
X147757560Y-108508640D01*
X147757560Y-112491360D02*
X147508640Y-112491360D01*
X147508640Y-112491360D02*
X147508640Y-112242440D01*
X151491360Y-112242440D02*
X151491360Y-112491360D01*
X151491360Y-112491360D02*
X151242440Y-112491360D01*
X151242440Y-108508640D02*
X151491360Y-108508640D01*
X151491360Y-108508640D02*
X151491360Y-108757560D01*
D16*
X151989200Y-112989200D02*
X147010800Y-112989200D01*
X151989200Y-108010800D02*
X151989200Y-112989200D01*
D15*
X151138000Y-115292000D02*
X151138000Y-114276000D01*
X151138000Y-114276000D02*
X152662000Y-114276000D01*
X152662000Y-114276000D02*
X152662000Y-115292000D01*
X152662000Y-116308000D02*
X152662000Y-117324000D01*
X152662000Y-117324000D02*
X151138000Y-117324000D01*
X151138000Y-117324000D02*
X151138000Y-116308000D01*
D18*
X121060000Y-118900000D02*
X121060000Y-103100000D01*
X121060000Y-103100000D02*
X136940000Y-103100000D01*
X136940000Y-103100000D02*
X136940000Y-118900000D01*
X136940000Y-118900000D02*
X121060000Y-118900000D01*
D15*
X113193600Y-116058800D02*
X114006400Y-116058800D01*
X113981000Y-114941200D02*
X113193600Y-114941200D01*
X114006400Y-114687200D02*
X114006400Y-116312800D01*
X114006400Y-116312800D02*
X113193600Y-116312800D01*
X113193600Y-116312800D02*
X113193600Y-114687200D01*
X113193600Y-114687200D02*
X114006400Y-114687200D01*
X118058800Y-106406400D02*
X118058800Y-105593600D01*
X116941200Y-105619000D02*
X116941200Y-106406400D01*
X116687200Y-105593600D02*
X118312800Y-105593600D01*
X118312800Y-105593600D02*
X118312800Y-106406400D01*
X118312800Y-106406400D02*
X116687200Y-106406400D01*
X116687200Y-106406400D02*
X116687200Y-105593600D01*
X114793600Y-116058800D02*
X115606400Y-116058800D01*
X115581000Y-114941200D02*
X114793600Y-114941200D01*
X115606400Y-114687200D02*
X115606400Y-116312800D01*
X115606400Y-116312800D02*
X114793600Y-116312800D01*
X114793600Y-116312800D02*
X114793600Y-114687200D01*
X114793600Y-114687200D02*
X115606400Y-114687200D01*
X116393600Y-116058800D02*
X117206400Y-116058800D01*
X117181000Y-114941200D02*
X116393600Y-114941200D01*
X117206400Y-114687200D02*
X117206400Y-116312800D01*
X117206400Y-116312800D02*
X116393600Y-116312800D01*
X116393600Y-116312800D02*
X116393600Y-114687200D01*
X116393600Y-114687200D02*
X117206400Y-114687200D01*
D16*
X114008640Y-108010800D02*
X118489200Y-108010800D01*
X113510800Y-108508640D02*
X113510800Y-112989200D01*
X113510800Y-108508640D02*
X114008640Y-108010800D01*
D17*
X114008640Y-108757560D02*
X114008640Y-108508640D01*
X114008640Y-108508640D02*
X114257560Y-108508640D01*
X114257560Y-112491360D02*
X114008640Y-112491360D01*
X114008640Y-112491360D02*
X114008640Y-112242440D01*
X117991360Y-112242440D02*
X117991360Y-112491360D01*
X117991360Y-112491360D02*
X117742440Y-112491360D01*
X117742440Y-108508640D02*
X117991360Y-108508640D01*
X117991360Y-108508640D02*
X117991360Y-108757560D01*
D16*
X118489200Y-112989200D02*
X113510800Y-112989200D01*
X118489200Y-108010800D02*
X118489200Y-112989200D01*
D15*
X117638000Y-115292000D02*
X117638000Y-114276000D01*
X117638000Y-114276000D02*
X119162000Y-114276000D01*
X119162000Y-114276000D02*
X119162000Y-115292000D01*
X119162000Y-116308000D02*
X119162000Y-117324000D01*
X119162000Y-117324000D02*
X117638000Y-117324000D01*
X117638000Y-117324000D02*
X117638000Y-116308000D01*
D10*
X86964286Y-116600000D02*
X86992857Y-116628571D01*
X87021429Y-116714285D01*
X87021429Y-116771428D01*
X86992857Y-116857143D01*
X86935714Y-116914285D01*
X86878571Y-116942857D01*
X86764286Y-116971428D01*
X86678571Y-116971428D01*
X86564286Y-116942857D01*
X86507143Y-116914285D01*
X86450000Y-116857143D01*
X86421429Y-116771428D01*
X86421429Y-116714285D01*
X86450000Y-116628571D01*
X86478571Y-116600000D01*
X86421429Y-116400000D02*
X86421429Y-116028571D01*
X86650000Y-116228571D01*
X86650000Y-116142857D01*
X86678571Y-116085714D01*
X86707143Y-116057143D01*
X86764286Y-116028571D01*
X86907143Y-116028571D01*
X86964286Y-116057143D01*
X86992857Y-116085714D01*
X87021429Y-116142857D01*
X87021429Y-116314285D01*
X86992857Y-116371428D01*
X86964286Y-116400000D01*
X85157143Y-118871429D02*
X85157143Y-119271429D01*
X85014286Y-118642857D02*
X84871429Y-119071429D01*
X85242857Y-119071429D01*
X85471429Y-119214286D02*
X85500001Y-119242857D01*
X85471429Y-119271429D01*
X85442858Y-119242857D01*
X85471429Y-119214286D01*
X85471429Y-119271429D01*
X85700000Y-118671429D02*
X86100000Y-118671429D01*
X85842857Y-119271429D01*
X86585715Y-118871429D02*
X86585715Y-119271429D01*
X86328572Y-118871429D02*
X86328572Y-119185714D01*
X86357144Y-119242857D01*
X86414286Y-119271429D01*
X86500001Y-119271429D01*
X86557144Y-119242857D01*
X86585715Y-119214286D01*
X87071429Y-118957143D02*
X86871429Y-118957143D01*
X86871429Y-119271429D02*
X86871429Y-118671429D01*
X87157143Y-118671429D01*
X86621429Y-114780952D02*
X86621429Y-114019047D01*
X87002381Y-114399999D02*
X86240476Y-114399999D01*
D13*
X83690476Y-107361905D02*
X83690476Y-108009524D01*
X83728571Y-108085714D01*
X83766667Y-108123810D01*
X83842857Y-108161905D01*
X83995238Y-108161905D01*
X84071429Y-108123810D01*
X84109524Y-108085714D01*
X84147619Y-108009524D01*
X84147619Y-107361905D01*
X84947619Y-108161905D02*
X84490476Y-108161905D01*
X84719047Y-108161905D02*
X84719047Y-107361905D01*
X84642857Y-107476190D01*
X84566666Y-107552381D01*
X84490476Y-107590476D01*
X79861905Y-114104762D02*
X79061905Y-114104762D01*
X79633333Y-113838095D01*
X79061905Y-113571428D01*
X79861905Y-113571428D01*
X79861905Y-113190476D02*
X79061905Y-113190476D01*
X79061905Y-112885714D01*
X79100000Y-112809523D01*
X79138095Y-112771428D01*
X79214286Y-112733333D01*
X79328571Y-112733333D01*
X79404762Y-112771428D01*
X79442857Y-112809523D01*
X79480952Y-112885714D01*
X79480952Y-113190476D01*
X79061905Y-112390476D02*
X79709524Y-112390476D01*
X79785714Y-112352381D01*
X79823810Y-112314285D01*
X79861905Y-112238095D01*
X79861905Y-112085714D01*
X79823810Y-112009523D01*
X79785714Y-111971428D01*
X79709524Y-111933333D01*
X79061905Y-111933333D01*
X79557143Y-111552381D02*
X79557143Y-110942857D01*
X79061905Y-110219048D02*
X79061905Y-110371429D01*
X79100000Y-110447619D01*
X79138095Y-110485714D01*
X79252381Y-110561905D01*
X79404762Y-110600000D01*
X79709524Y-110600000D01*
X79785714Y-110561905D01*
X79823810Y-110523810D01*
X79861905Y-110447619D01*
X79861905Y-110295238D01*
X79823810Y-110219048D01*
X79785714Y-110180952D01*
X79709524Y-110142857D01*
X79519048Y-110142857D01*
X79442857Y-110180952D01*
X79404762Y-110219048D01*
X79366667Y-110295238D01*
X79366667Y-110447619D01*
X79404762Y-110523810D01*
X79442857Y-110561905D01*
X79519048Y-110600000D01*
X79061905Y-109647619D02*
X79061905Y-109571428D01*
X79100000Y-109495238D01*
X79138095Y-109457143D01*
X79214286Y-109419047D01*
X79366667Y-109380952D01*
X79557143Y-109380952D01*
X79709524Y-109419047D01*
X79785714Y-109457143D01*
X79823810Y-109495238D01*
X79861905Y-109571428D01*
X79861905Y-109647619D01*
X79823810Y-109723809D01*
X79785714Y-109761905D01*
X79709524Y-109800000D01*
X79557143Y-109838095D01*
X79366667Y-109838095D01*
X79214286Y-109800000D01*
X79138095Y-109761905D01*
X79100000Y-109723809D01*
X79061905Y-109647619D01*
X79061905Y-108657142D02*
X79061905Y-109038095D01*
X79442857Y-109076190D01*
X79404762Y-109038095D01*
X79366667Y-108961904D01*
X79366667Y-108771428D01*
X79404762Y-108695238D01*
X79442857Y-108657142D01*
X79519048Y-108619047D01*
X79709524Y-108619047D01*
X79785714Y-108657142D01*
X79823810Y-108695238D01*
X79861905Y-108771428D01*
X79861905Y-108961904D01*
X79823810Y-109038095D01*
X79785714Y-109076190D01*
X79061905Y-108123809D02*
X79061905Y-108047618D01*
X79100000Y-107971428D01*
X79138095Y-107933333D01*
X79214286Y-107895237D01*
X79366667Y-107857142D01*
X79557143Y-107857142D01*
X79709524Y-107895237D01*
X79785714Y-107933333D01*
X79823810Y-107971428D01*
X79861905Y-108047618D01*
X79861905Y-108123809D01*
X79823810Y-108199999D01*
X79785714Y-108238095D01*
X79709524Y-108276190D01*
X79557143Y-108314285D01*
X79366667Y-108314285D01*
X79214286Y-108276190D01*
X79138095Y-108238095D01*
X79100000Y-108199999D01*
X79061905Y-108123809D01*
D10*
X83650000Y-119464286D02*
X83621429Y-119492857D01*
X83535715Y-119521429D01*
X83478572Y-119521429D01*
X83392857Y-119492857D01*
X83335715Y-119435714D01*
X83307143Y-119378571D01*
X83278572Y-119264286D01*
X83278572Y-119178571D01*
X83307143Y-119064286D01*
X83335715Y-119007143D01*
X83392857Y-118950000D01*
X83478572Y-118921429D01*
X83535715Y-118921429D01*
X83621429Y-118950000D01*
X83650000Y-118978571D01*
X84192857Y-118921429D02*
X83907143Y-118921429D01*
X83878572Y-119207143D01*
X83907143Y-119178571D01*
X83964286Y-119150000D01*
X84107143Y-119150000D01*
X84164286Y-119178571D01*
X84192857Y-119207143D01*
X84221429Y-119264286D01*
X84221429Y-119407143D01*
X84192857Y-119464286D01*
X84164286Y-119492857D01*
X84107143Y-119521429D01*
X83964286Y-119521429D01*
X83907143Y-119492857D01*
X83878572Y-119464286D01*
X83185714Y-118464286D02*
X83214286Y-118492857D01*
X83185714Y-118521429D01*
X83157143Y-118492857D01*
X83185714Y-118464286D01*
X83185714Y-118521429D01*
X83785714Y-118521429D02*
X83442857Y-118521429D01*
X83614285Y-118521429D02*
X83614285Y-117921429D01*
X83557142Y-118007143D01*
X83500000Y-118064286D01*
X83442857Y-118092857D01*
X84300000Y-118121429D02*
X84300000Y-118521429D01*
X84042857Y-118121429D02*
X84042857Y-118435714D01*
X84071429Y-118492857D01*
X84128571Y-118521429D01*
X84214286Y-118521429D01*
X84271429Y-118492857D01*
X84300000Y-118464286D01*
X84785714Y-118207143D02*
X84585714Y-118207143D01*
X84585714Y-118521429D02*
X84585714Y-117921429D01*
X84871428Y-117921429D01*
X82150000Y-119464286D02*
X82121429Y-119492857D01*
X82035715Y-119521429D01*
X81978572Y-119521429D01*
X81892857Y-119492857D01*
X81835715Y-119435714D01*
X81807143Y-119378571D01*
X81778572Y-119264286D01*
X81778572Y-119178571D01*
X81807143Y-119064286D01*
X81835715Y-119007143D01*
X81892857Y-118950000D01*
X81978572Y-118921429D01*
X82035715Y-118921429D01*
X82121429Y-118950000D01*
X82150000Y-118978571D01*
X82664286Y-119121429D02*
X82664286Y-119521429D01*
X82521429Y-118892857D02*
X82378572Y-119321429D01*
X82750000Y-119321429D01*
X81185714Y-118464286D02*
X81214286Y-118492857D01*
X81185714Y-118521429D01*
X81157143Y-118492857D01*
X81185714Y-118464286D01*
X81185714Y-118521429D01*
X81785714Y-118521429D02*
X81442857Y-118521429D01*
X81614285Y-118521429D02*
X81614285Y-117921429D01*
X81557142Y-118007143D01*
X81500000Y-118064286D01*
X81442857Y-118092857D01*
X82300000Y-118121429D02*
X82300000Y-118521429D01*
X82042857Y-118121429D02*
X82042857Y-118435714D01*
X82071429Y-118492857D01*
X82128571Y-118521429D01*
X82214286Y-118521429D01*
X82271429Y-118492857D01*
X82300000Y-118464286D01*
X82785714Y-118207143D02*
X82585714Y-118207143D01*
X82585714Y-118521429D02*
X82585714Y-117921429D01*
X82871428Y-117921429D01*
X82300000Y-106814286D02*
X82271429Y-106842857D01*
X82185715Y-106871429D01*
X82128572Y-106871429D01*
X82042857Y-106842857D01*
X81985715Y-106785714D01*
X81957143Y-106728571D01*
X81928572Y-106614286D01*
X81928572Y-106528571D01*
X81957143Y-106414286D01*
X81985715Y-106357143D01*
X82042857Y-106300000D01*
X82128572Y-106271429D01*
X82185715Y-106271429D01*
X82271429Y-106300000D01*
X82300000Y-106328571D01*
X82528572Y-106328571D02*
X82557143Y-106300000D01*
X82614286Y-106271429D01*
X82757143Y-106271429D01*
X82814286Y-106300000D01*
X82842857Y-106328571D01*
X82871429Y-106385714D01*
X82871429Y-106442857D01*
X82842857Y-106528571D01*
X82500000Y-106871429D01*
X82871429Y-106871429D01*
X83371429Y-105128571D02*
X83400000Y-105100000D01*
X83457143Y-105071429D01*
X83600000Y-105071429D01*
X83657143Y-105100000D01*
X83685714Y-105128571D01*
X83714286Y-105185714D01*
X83714286Y-105242857D01*
X83685714Y-105328571D01*
X83342857Y-105671429D01*
X83714286Y-105671429D01*
X83971429Y-105614286D02*
X84000001Y-105642857D01*
X83971429Y-105671429D01*
X83942858Y-105642857D01*
X83971429Y-105614286D01*
X83971429Y-105671429D01*
X84228572Y-105128571D02*
X84257143Y-105100000D01*
X84314286Y-105071429D01*
X84457143Y-105071429D01*
X84514286Y-105100000D01*
X84542857Y-105128571D01*
X84571429Y-105185714D01*
X84571429Y-105242857D01*
X84542857Y-105328571D01*
X84200000Y-105671429D01*
X84571429Y-105671429D01*
X84828572Y-105271429D02*
X84828572Y-105671429D01*
X84828572Y-105328571D02*
X84857144Y-105300000D01*
X84914286Y-105271429D01*
X85000001Y-105271429D01*
X85057144Y-105300000D01*
X85085715Y-105357143D01*
X85085715Y-105671429D01*
X85571429Y-105357143D02*
X85371429Y-105357143D01*
X85371429Y-105671429D02*
X85371429Y-105071429D01*
X85657143Y-105071429D01*
X79714286Y-116100000D02*
X79742857Y-116128571D01*
X79771429Y-116214285D01*
X79771429Y-116271428D01*
X79742857Y-116357143D01*
X79685714Y-116414285D01*
X79628571Y-116442857D01*
X79514286Y-116471428D01*
X79428571Y-116471428D01*
X79314286Y-116442857D01*
X79257143Y-116414285D01*
X79200000Y-116357143D01*
X79171429Y-116271428D01*
X79171429Y-116214285D01*
X79200000Y-116128571D01*
X79228571Y-116100000D01*
X79771429Y-115528571D02*
X79771429Y-115871428D01*
X79771429Y-115700000D02*
X79171429Y-115700000D01*
X79257143Y-115757143D01*
X79314286Y-115814285D01*
X79342857Y-115871428D01*
X79607143Y-118021429D02*
X79264286Y-118021429D01*
X79435714Y-118021429D02*
X79435714Y-117421429D01*
X79378571Y-117507143D01*
X79321429Y-117564286D01*
X79264286Y-117592857D01*
X79978572Y-117421429D02*
X80035715Y-117421429D01*
X80092858Y-117450000D01*
X80121429Y-117478571D01*
X80150000Y-117535714D01*
X80178572Y-117650000D01*
X80178572Y-117792857D01*
X80150000Y-117907143D01*
X80121429Y-117964286D01*
X80092858Y-117992857D01*
X80035715Y-118021429D01*
X79978572Y-118021429D01*
X79921429Y-117992857D01*
X79892858Y-117964286D01*
X79864286Y-117907143D01*
X79835715Y-117792857D01*
X79835715Y-117650000D01*
X79864286Y-117535714D01*
X79892858Y-117478571D01*
X79921429Y-117450000D01*
X79978572Y-117421429D01*
X80435715Y-117621429D02*
X80435715Y-118021429D01*
X80435715Y-117678571D02*
X80464287Y-117650000D01*
X80521429Y-117621429D01*
X80607144Y-117621429D01*
X80664287Y-117650000D01*
X80692858Y-117707143D01*
X80692858Y-118021429D01*
X81178572Y-117707143D02*
X80978572Y-117707143D01*
X80978572Y-118021429D02*
X80978572Y-117421429D01*
X81264286Y-117421429D01*
D20*
X104512857Y-106354286D02*
X105484286Y-106354286D01*
X105598571Y-106297143D01*
X105655714Y-106240000D01*
X105712857Y-106125714D01*
X105712857Y-105897143D01*
X105655714Y-105782857D01*
X105598571Y-105725714D01*
X105484286Y-105668571D01*
X104512857Y-105668571D01*
X104627143Y-105154286D02*
X104570000Y-105097143D01*
X104512857Y-104982857D01*
X104512857Y-104697143D01*
X104570000Y-104582857D01*
X104627143Y-104525714D01*
X104741429Y-104468571D01*
X104855714Y-104468571D01*
X105027143Y-104525714D01*
X105712857Y-105211428D01*
X105712857Y-104468571D01*
X105532857Y-118938571D02*
X104961429Y-119338571D01*
X105532857Y-119624286D02*
X104332857Y-119624286D01*
X104332857Y-119167143D01*
X104390000Y-119052857D01*
X104447143Y-118995714D01*
X104561429Y-118938571D01*
X104732857Y-118938571D01*
X104847143Y-118995714D01*
X104904286Y-119052857D01*
X104961429Y-119167143D01*
X104961429Y-119624286D01*
X104332857Y-118081429D02*
X105190000Y-118081429D01*
X105361429Y-118138571D01*
X105475714Y-118252857D01*
X105532857Y-118424286D01*
X105532857Y-118538571D01*
X105532857Y-116881428D02*
X105532857Y-117567143D01*
X105532857Y-117224285D02*
X104332857Y-117224285D01*
X104504286Y-117338571D01*
X104618571Y-117452857D01*
X104675714Y-117567143D01*
X104447143Y-116424286D02*
X104390000Y-116367143D01*
X104332857Y-116252857D01*
X104332857Y-115967143D01*
X104390000Y-115852857D01*
X104447143Y-115795714D01*
X104561429Y-115738571D01*
X104675714Y-115738571D01*
X104847143Y-115795714D01*
X105532857Y-116481428D01*
X105532857Y-115738571D01*
D21*
X105746001Y-142082714D02*
X105746001Y-142627000D01*
X105709715Y-142735857D01*
X105637144Y-142808429D01*
X105528287Y-142844714D01*
X105455715Y-142844714D01*
X106508000Y-142844714D02*
X106072572Y-142844714D01*
X106290286Y-142844714D02*
X106290286Y-142082714D01*
X106217715Y-142191571D01*
X106145143Y-142264143D01*
X106072572Y-142300429D01*
X102248144Y-142808429D02*
X102357001Y-142844714D01*
X102538430Y-142844714D01*
X102611001Y-142808429D01*
X102647287Y-142772143D01*
X102683572Y-142699571D01*
X102683572Y-142627000D01*
X102647287Y-142554429D01*
X102611001Y-142518143D01*
X102538430Y-142481857D01*
X102393287Y-142445571D01*
X102320715Y-142409286D01*
X102284430Y-142373000D01*
X102248144Y-142300429D01*
X102248144Y-142227857D01*
X102284430Y-142155286D01*
X102320715Y-142119000D01*
X102393287Y-142082714D01*
X102574715Y-142082714D01*
X102683572Y-142119000D01*
X103010144Y-142844714D02*
X103010144Y-142082714D01*
X103300429Y-142082714D01*
X103373001Y-142119000D01*
X103409286Y-142155286D01*
X103445572Y-142227857D01*
X103445572Y-142336714D01*
X103409286Y-142409286D01*
X103373001Y-142445571D01*
X103300429Y-142481857D01*
X103010144Y-142481857D01*
X103735858Y-142808429D02*
X103844715Y-142844714D01*
X104026144Y-142844714D01*
X104098715Y-142808429D01*
X104135001Y-142772143D01*
X104171286Y-142699571D01*
X104171286Y-142627000D01*
X104135001Y-142554429D01*
X104098715Y-142518143D01*
X104026144Y-142481857D01*
X103881001Y-142445571D01*
X103808429Y-142409286D01*
X103772144Y-142373000D01*
X103735858Y-142300429D01*
X103735858Y-142227857D01*
X103772144Y-142155286D01*
X103808429Y-142119000D01*
X103881001Y-142082714D01*
X104062429Y-142082714D01*
X104171286Y-142119000D01*
X104389000Y-142082714D02*
X104824429Y-142082714D01*
X104606715Y-142844714D02*
X104606715Y-142082714D01*
X91646001Y-144982714D02*
X91646001Y-145527000D01*
X91609715Y-145635857D01*
X91537144Y-145708429D01*
X91428287Y-145744714D01*
X91355715Y-145744714D01*
X91936286Y-144982714D02*
X92408000Y-144982714D01*
X92154000Y-145273000D01*
X92262858Y-145273000D01*
X92335429Y-145309286D01*
X92371715Y-145345571D01*
X92408000Y-145418143D01*
X92408000Y-145599571D01*
X92371715Y-145672143D01*
X92335429Y-145708429D01*
X92262858Y-145744714D01*
X92045143Y-145744714D01*
X91972572Y-145708429D01*
X91936286Y-145672143D01*
X85125429Y-144344714D02*
X85125429Y-143582714D01*
X85125429Y-143945571D02*
X85560857Y-143945571D01*
X85560857Y-144344714D02*
X85560857Y-143582714D01*
X85923715Y-143945571D02*
X86177715Y-143945571D01*
X86286572Y-144344714D02*
X85923715Y-144344714D01*
X85923715Y-143582714D01*
X86286572Y-143582714D01*
X86576858Y-144127000D02*
X86939715Y-144127000D01*
X86504286Y-144344714D02*
X86758286Y-143582714D01*
X87012286Y-144344714D01*
X87266287Y-144344714D02*
X87266287Y-143582714D01*
X87447715Y-143582714D01*
X87556572Y-143619000D01*
X87629144Y-143691571D01*
X87665429Y-143764143D01*
X87701715Y-143909286D01*
X87701715Y-144018143D01*
X87665429Y-144163286D01*
X87629144Y-144235857D01*
X87556572Y-144308429D01*
X87447715Y-144344714D01*
X87266287Y-144344714D01*
X88028287Y-143945571D02*
X88282287Y-143945571D01*
X88391144Y-144344714D02*
X88028287Y-144344714D01*
X88028287Y-143582714D01*
X88391144Y-143582714D01*
X89153144Y-144344714D02*
X88899144Y-143981857D01*
X88717716Y-144344714D02*
X88717716Y-143582714D01*
X89008001Y-143582714D01*
X89080573Y-143619000D01*
X89116858Y-143655286D01*
X89153144Y-143727857D01*
X89153144Y-143836714D01*
X89116858Y-143909286D01*
X89080573Y-143945571D01*
X89008001Y-143981857D01*
X88717716Y-143981857D01*
X89298287Y-144417286D02*
X89878858Y-144417286D01*
X89987715Y-143582714D02*
X90459429Y-143582714D01*
X90205429Y-143873000D01*
X90314287Y-143873000D01*
X90386858Y-143909286D01*
X90423144Y-143945571D01*
X90459429Y-144018143D01*
X90459429Y-144199571D01*
X90423144Y-144272143D01*
X90386858Y-144308429D01*
X90314287Y-144344714D01*
X90096572Y-144344714D01*
X90024001Y-144308429D01*
X89987715Y-144272143D01*
X90713429Y-143582714D02*
X91221429Y-144344714D01*
X91221429Y-143582714D02*
X90713429Y-144344714D01*
X91910857Y-144344714D02*
X91475429Y-144344714D01*
X91693143Y-144344714D02*
X91693143Y-143582714D01*
X91620572Y-143691571D01*
X91548000Y-143764143D01*
X91475429Y-143800429D01*
X81746001Y-150582714D02*
X81746001Y-151127000D01*
X81709715Y-151235857D01*
X81637144Y-151308429D01*
X81528287Y-151344714D01*
X81455715Y-151344714D01*
X82471715Y-150582714D02*
X82108858Y-150582714D01*
X82072572Y-150945571D01*
X82108858Y-150909286D01*
X82181429Y-150873000D01*
X82362858Y-150873000D01*
X82435429Y-150909286D01*
X82471715Y-150945571D01*
X82508000Y-151018143D01*
X82508000Y-151199571D01*
X82471715Y-151272143D01*
X82435429Y-151308429D01*
X82362858Y-151344714D01*
X82181429Y-151344714D01*
X82108858Y-151308429D01*
X82072572Y-151272143D01*
X92125429Y-151844714D02*
X92125429Y-151082714D01*
X92125429Y-151445571D02*
X92560857Y-151445571D01*
X92560857Y-151844714D02*
X92560857Y-151082714D01*
X92923715Y-151445571D02*
X93177715Y-151445571D01*
X93286572Y-151844714D02*
X92923715Y-151844714D01*
X92923715Y-151082714D01*
X93286572Y-151082714D01*
X93576858Y-151627000D02*
X93939715Y-151627000D01*
X93504286Y-151844714D02*
X93758286Y-151082714D01*
X94012286Y-151844714D01*
X94266287Y-151844714D02*
X94266287Y-151082714D01*
X94447715Y-151082714D01*
X94556572Y-151119000D01*
X94629144Y-151191571D01*
X94665429Y-151264143D01*
X94701715Y-151409286D01*
X94701715Y-151518143D01*
X94665429Y-151663286D01*
X94629144Y-151735857D01*
X94556572Y-151808429D01*
X94447715Y-151844714D01*
X94266287Y-151844714D01*
X95028287Y-151445571D02*
X95282287Y-151445571D01*
X95391144Y-151844714D02*
X95028287Y-151844714D01*
X95028287Y-151082714D01*
X95391144Y-151082714D01*
X96153144Y-151844714D02*
X95899144Y-151481857D01*
X95717716Y-151844714D02*
X95717716Y-151082714D01*
X96008001Y-151082714D01*
X96080573Y-151119000D01*
X96116858Y-151155286D01*
X96153144Y-151227857D01*
X96153144Y-151336714D01*
X96116858Y-151409286D01*
X96080573Y-151445571D01*
X96008001Y-151481857D01*
X95717716Y-151481857D01*
X96298287Y-151917286D02*
X96878858Y-151917286D01*
X96987715Y-151082714D02*
X97459429Y-151082714D01*
X97205429Y-151373000D01*
X97314287Y-151373000D01*
X97386858Y-151409286D01*
X97423144Y-151445571D01*
X97459429Y-151518143D01*
X97459429Y-151699571D01*
X97423144Y-151772143D01*
X97386858Y-151808429D01*
X97314287Y-151844714D01*
X97096572Y-151844714D01*
X97024001Y-151808429D01*
X96987715Y-151772143D01*
X97713429Y-151082714D02*
X98221429Y-151844714D01*
X98221429Y-151082714D02*
X97713429Y-151844714D01*
X98910857Y-151844714D02*
X98475429Y-151844714D01*
X98693143Y-151844714D02*
X98693143Y-151082714D01*
X98620572Y-151191571D01*
X98548000Y-151264143D01*
X98475429Y-151300429D01*
D10*
X85900000Y-127571429D02*
X85700000Y-127285714D01*
X85557143Y-127571429D02*
X85557143Y-126971429D01*
X85785715Y-126971429D01*
X85842857Y-127000000D01*
X85871429Y-127028571D01*
X85900000Y-127085714D01*
X85900000Y-127171429D01*
X85871429Y-127228571D01*
X85842857Y-127257143D01*
X85785715Y-127285714D01*
X85557143Y-127285714D01*
X86471429Y-127571429D02*
X86128572Y-127571429D01*
X86300000Y-127571429D02*
X86300000Y-126971429D01*
X86242857Y-127057143D01*
X86185715Y-127114286D01*
X86128572Y-127142857D01*
X85742857Y-130071429D02*
X85400000Y-130071429D01*
X85571428Y-130071429D02*
X85571428Y-129471429D01*
X85514285Y-129557143D01*
X85457143Y-129614286D01*
X85400000Y-129642857D01*
X86114286Y-129471429D02*
X86171429Y-129471429D01*
X86228572Y-129500000D01*
X86257143Y-129528571D01*
X86285714Y-129585714D01*
X86314286Y-129700000D01*
X86314286Y-129842857D01*
X86285714Y-129957143D01*
X86257143Y-130014286D01*
X86228572Y-130042857D01*
X86171429Y-130071429D01*
X86114286Y-130071429D01*
X86057143Y-130042857D01*
X86028572Y-130014286D01*
X86000000Y-129957143D01*
X85971429Y-129842857D01*
X85971429Y-129700000D01*
X86000000Y-129585714D01*
X86028572Y-129528571D01*
X86057143Y-129500000D01*
X86114286Y-129471429D01*
X86571429Y-130071429D02*
X86571429Y-129471429D01*
X86628572Y-129842857D02*
X86800001Y-130071429D01*
X86800001Y-129671429D02*
X86571429Y-129900000D01*
X85700000Y-129571429D02*
X85500000Y-129285714D01*
X85357143Y-129571429D02*
X85357143Y-128971429D01*
X85585715Y-128971429D01*
X85642857Y-129000000D01*
X85671429Y-129028571D01*
X85700000Y-129085714D01*
X85700000Y-129171429D01*
X85671429Y-129228571D01*
X85642857Y-129257143D01*
X85585715Y-129285714D01*
X85357143Y-129285714D01*
X85928572Y-129028571D02*
X85957143Y-129000000D01*
X86014286Y-128971429D01*
X86157143Y-128971429D01*
X86214286Y-129000000D01*
X86242857Y-129028571D01*
X86271429Y-129085714D01*
X86271429Y-129142857D01*
X86242857Y-129228571D01*
X85900000Y-129571429D01*
X86271429Y-129571429D01*
X85200000Y-131528571D02*
X85228571Y-131500000D01*
X85285714Y-131471429D01*
X85428571Y-131471429D01*
X85485714Y-131500000D01*
X85514285Y-131528571D01*
X85542857Y-131585714D01*
X85542857Y-131642857D01*
X85514285Y-131728571D01*
X85171428Y-132071429D01*
X85542857Y-132071429D01*
X85914286Y-131471429D02*
X85971429Y-131471429D01*
X86028572Y-131500000D01*
X86057143Y-131528571D01*
X86085714Y-131585714D01*
X86114286Y-131700000D01*
X86114286Y-131842857D01*
X86085714Y-131957143D01*
X86057143Y-132014286D01*
X86028572Y-132042857D01*
X85971429Y-132071429D01*
X85914286Y-132071429D01*
X85857143Y-132042857D01*
X85828572Y-132014286D01*
X85800000Y-131957143D01*
X85771429Y-131842857D01*
X85771429Y-131700000D01*
X85800000Y-131585714D01*
X85828572Y-131528571D01*
X85857143Y-131500000D01*
X85914286Y-131471429D01*
X86371429Y-132071429D02*
X86371429Y-131471429D01*
X86428572Y-131842857D02*
X86600001Y-132071429D01*
X86600001Y-131671429D02*
X86371429Y-131900000D01*
D22*
X118374071Y-137370857D02*
X119299357Y-137370857D01*
X119408214Y-137316429D01*
X119462643Y-137262000D01*
X119517071Y-137153143D01*
X119517071Y-136935429D01*
X119462643Y-136826571D01*
X119408214Y-136772143D01*
X119299357Y-136717714D01*
X118374071Y-136717714D01*
X119517071Y-135574714D02*
X119517071Y-136227857D01*
X119517071Y-135901285D02*
X118374071Y-135901285D01*
X118537357Y-136010142D01*
X118646214Y-136119000D01*
X118700643Y-136227857D01*
D23*
X172718357Y-147957214D02*
X172718357Y-147576214D01*
X173317071Y-147412928D02*
X173317071Y-147957214D01*
X172174071Y-147957214D01*
X172174071Y-147412928D01*
X173262643Y-146977500D02*
X173317071Y-146814214D01*
X173317071Y-146542071D01*
X173262643Y-146433214D01*
X173208214Y-146378785D01*
X173099357Y-146324357D01*
X172990500Y-146324357D01*
X172881643Y-146378785D01*
X172827214Y-146433214D01*
X172772786Y-146542071D01*
X172718357Y-146759785D01*
X172663929Y-146868643D01*
X172609500Y-146923071D01*
X172500643Y-146977500D01*
X172391786Y-146977500D01*
X172282929Y-146923071D01*
X172228500Y-146868643D01*
X172174071Y-146759785D01*
X172174071Y-146487643D01*
X172228500Y-146324357D01*
X173317071Y-145834500D02*
X172174071Y-145834500D01*
X172174071Y-145399072D01*
X172228500Y-145290214D01*
X172282929Y-145235786D01*
X172391786Y-145181357D01*
X172555071Y-145181357D01*
X172663929Y-145235786D01*
X172718357Y-145290214D01*
X172772786Y-145399072D01*
X172772786Y-145834500D01*
X172174071Y-144800357D02*
X172174071Y-144092786D01*
X172609500Y-144473786D01*
X172609500Y-144310500D01*
X172663929Y-144201643D01*
X172718357Y-144147214D01*
X172827214Y-144092786D01*
X173099357Y-144092786D01*
X173208214Y-144147214D01*
X173262643Y-144201643D01*
X173317071Y-144310500D01*
X173317071Y-144637072D01*
X173262643Y-144745929D01*
X173208214Y-144800357D01*
X172282929Y-143657358D02*
X172228500Y-143602929D01*
X172174071Y-143494072D01*
X172174071Y-143221929D01*
X172228500Y-143113072D01*
X172282929Y-143058643D01*
X172391786Y-143004215D01*
X172500643Y-143004215D01*
X172663929Y-143058643D01*
X173317071Y-143711786D01*
X173317071Y-143004215D01*
X172881643Y-142514358D02*
X172881643Y-141643501D01*
X172174071Y-141208072D02*
X173317071Y-140935929D01*
X172500643Y-140718215D01*
X173317071Y-140500501D01*
X172174071Y-140228358D01*
X173317071Y-139139786D02*
X172772786Y-139520786D01*
X173317071Y-139792929D02*
X172174071Y-139792929D01*
X172174071Y-139357501D01*
X172228500Y-139248643D01*
X172282929Y-139194215D01*
X172391786Y-139139786D01*
X172555071Y-139139786D01*
X172663929Y-139194215D01*
X172718357Y-139248643D01*
X172772786Y-139357501D01*
X172772786Y-139792929D01*
X172174071Y-138432215D02*
X172174071Y-138214501D01*
X172228500Y-138105643D01*
X172337357Y-137996786D01*
X172555071Y-137942358D01*
X172936071Y-137942358D01*
X173153786Y-137996786D01*
X173262643Y-138105643D01*
X173317071Y-138214501D01*
X173317071Y-138432215D01*
X173262643Y-138541072D01*
X173153786Y-138649929D01*
X172936071Y-138704358D01*
X172555071Y-138704358D01*
X172337357Y-138649929D01*
X172228500Y-138541072D01*
X172174071Y-138432215D01*
X172174071Y-137234786D02*
X172174071Y-137017072D01*
X172228500Y-136908214D01*
X172337357Y-136799357D01*
X172555071Y-136744929D01*
X172936071Y-136744929D01*
X173153786Y-136799357D01*
X173262643Y-136908214D01*
X173317071Y-137017072D01*
X173317071Y-137234786D01*
X173262643Y-137343643D01*
X173153786Y-137452500D01*
X172936071Y-137506929D01*
X172555071Y-137506929D01*
X172337357Y-137452500D01*
X172228500Y-137343643D01*
X172174071Y-137234786D01*
X173317071Y-136255071D02*
X172174071Y-136255071D01*
X172990500Y-135874071D01*
X172174071Y-135493071D01*
X173317071Y-135493071D01*
X172881643Y-134948785D02*
X172881643Y-134077928D01*
X172174071Y-133642499D02*
X172174071Y-132934928D01*
X172609500Y-133315928D01*
X172609500Y-133152642D01*
X172663929Y-133043785D01*
X172718357Y-132989356D01*
X172827214Y-132934928D01*
X173099357Y-132934928D01*
X173208214Y-132989356D01*
X173262643Y-133043785D01*
X173317071Y-133152642D01*
X173317071Y-133479214D01*
X173262643Y-133588071D01*
X173208214Y-133642499D01*
X172282929Y-132499500D02*
X172228500Y-132445071D01*
X172174071Y-132336214D01*
X172174071Y-132064071D01*
X172228500Y-131955214D01*
X172282929Y-131900785D01*
X172391786Y-131846357D01*
X172500643Y-131846357D01*
X172663929Y-131900785D01*
X173317071Y-132553928D01*
X173317071Y-131846357D01*
X173425929Y-131628643D02*
X173425929Y-130757786D01*
X173317071Y-130485643D02*
X172174071Y-130485643D01*
X172990500Y-130104643D01*
X172174071Y-129723643D01*
X173317071Y-129723643D01*
X173317071Y-129016071D02*
X173262643Y-129124929D01*
X173208214Y-129179357D01*
X173099357Y-129233786D01*
X172772786Y-129233786D01*
X172663929Y-129179357D01*
X172609500Y-129124929D01*
X172555071Y-129016071D01*
X172555071Y-128852786D01*
X172609500Y-128743929D01*
X172663929Y-128689500D01*
X172772786Y-128635071D01*
X173099357Y-128635071D01*
X173208214Y-128689500D01*
X173262643Y-128743929D01*
X173317071Y-128852786D01*
X173317071Y-129016071D01*
X173317071Y-127655357D02*
X172174071Y-127655357D01*
X173262643Y-127655357D02*
X173317071Y-127764214D01*
X173317071Y-127981928D01*
X173262643Y-128090786D01*
X173208214Y-128145214D01*
X173099357Y-128199643D01*
X172772786Y-128199643D01*
X172663929Y-128145214D01*
X172609500Y-128090786D01*
X172555071Y-127981928D01*
X172555071Y-127764214D01*
X172609500Y-127655357D01*
X172555071Y-126621214D02*
X173317071Y-126621214D01*
X172555071Y-127111071D02*
X173153786Y-127111071D01*
X173262643Y-127056643D01*
X173317071Y-126947785D01*
X173317071Y-126784500D01*
X173262643Y-126675643D01*
X173208214Y-126621214D01*
X173317071Y-125913642D02*
X173262643Y-126022500D01*
X173153786Y-126076928D01*
X172174071Y-126076928D01*
X173262643Y-125042786D02*
X173317071Y-125151643D01*
X173317071Y-125369357D01*
X173262643Y-125478214D01*
X173153786Y-125532643D01*
X172718357Y-125532643D01*
X172609500Y-125478214D01*
X172555071Y-125369357D01*
X172555071Y-125151643D01*
X172609500Y-125042786D01*
X172718357Y-124988357D01*
X172827214Y-124988357D01*
X172936071Y-125532643D01*
D13*
X165678571Y-138392857D02*
X166892857Y-138392857D01*
X167035714Y-138321429D01*
X167107143Y-138250000D01*
X167178571Y-138107143D01*
X167178571Y-137821429D01*
X167107143Y-137678571D01*
X167035714Y-137607143D01*
X166892857Y-137535714D01*
X165678571Y-137535714D01*
X167107143Y-136892857D02*
X167178571Y-136678571D01*
X167178571Y-136321428D01*
X167107143Y-136178571D01*
X167035714Y-136107142D01*
X166892857Y-136035714D01*
X166750000Y-136035714D01*
X166607143Y-136107142D01*
X166535714Y-136178571D01*
X166464286Y-136321428D01*
X166392857Y-136607142D01*
X166321429Y-136750000D01*
X166250000Y-136821428D01*
X166107143Y-136892857D01*
X165964286Y-136892857D01*
X165821429Y-136821428D01*
X165750000Y-136750000D01*
X165678571Y-136607142D01*
X165678571Y-136250000D01*
X165750000Y-136035714D01*
X166392857Y-134892857D02*
X166464286Y-134678571D01*
X166535714Y-134607143D01*
X166678571Y-134535714D01*
X166892857Y-134535714D01*
X167035714Y-134607143D01*
X167107143Y-134678571D01*
X167178571Y-134821429D01*
X167178571Y-135392857D01*
X165678571Y-135392857D01*
X165678571Y-134892857D01*
X165750000Y-134750000D01*
X165821429Y-134678571D01*
X165964286Y-134607143D01*
X166107143Y-134607143D01*
X166250000Y-134678571D01*
X166321429Y-134750000D01*
X166392857Y-134892857D01*
X166392857Y-135392857D01*
D21*
X102746001Y-140082714D02*
X102746001Y-140627000D01*
X102709715Y-140735857D01*
X102637144Y-140808429D01*
X102528287Y-140844714D01*
X102455715Y-140844714D01*
X103072572Y-140155286D02*
X103108858Y-140119000D01*
X103181429Y-140082714D01*
X103362858Y-140082714D01*
X103435429Y-140119000D01*
X103471715Y-140155286D01*
X103508000Y-140227857D01*
X103508000Y-140300429D01*
X103471715Y-140409286D01*
X103036286Y-140844714D01*
X103508000Y-140844714D01*
X92125429Y-142344714D02*
X92125429Y-141582714D01*
X92125429Y-141945571D02*
X92560857Y-141945571D01*
X92560857Y-142344714D02*
X92560857Y-141582714D01*
X92923715Y-141945571D02*
X93177715Y-141945571D01*
X93286572Y-142344714D02*
X92923715Y-142344714D01*
X92923715Y-141582714D01*
X93286572Y-141582714D01*
X93576858Y-142127000D02*
X93939715Y-142127000D01*
X93504286Y-142344714D02*
X93758286Y-141582714D01*
X94012286Y-142344714D01*
X94266287Y-142344714D02*
X94266287Y-141582714D01*
X94447715Y-141582714D01*
X94556572Y-141619000D01*
X94629144Y-141691571D01*
X94665429Y-141764143D01*
X94701715Y-141909286D01*
X94701715Y-142018143D01*
X94665429Y-142163286D01*
X94629144Y-142235857D01*
X94556572Y-142308429D01*
X94447715Y-142344714D01*
X94266287Y-142344714D01*
X95028287Y-141945571D02*
X95282287Y-141945571D01*
X95391144Y-142344714D02*
X95028287Y-142344714D01*
X95028287Y-141582714D01*
X95391144Y-141582714D01*
X96153144Y-142344714D02*
X95899144Y-141981857D01*
X95717716Y-142344714D02*
X95717716Y-141582714D01*
X96008001Y-141582714D01*
X96080573Y-141619000D01*
X96116858Y-141655286D01*
X96153144Y-141727857D01*
X96153144Y-141836714D01*
X96116858Y-141909286D01*
X96080573Y-141945571D01*
X96008001Y-141981857D01*
X95717716Y-141981857D01*
X96298287Y-142417286D02*
X96878858Y-142417286D01*
X97386858Y-141836714D02*
X97386858Y-142344714D01*
X97205429Y-141546429D02*
X97024001Y-142090714D01*
X97495715Y-142090714D01*
X97713429Y-141582714D02*
X98221429Y-142344714D01*
X98221429Y-141582714D02*
X97713429Y-142344714D01*
X98910857Y-142344714D02*
X98475429Y-142344714D01*
X98693143Y-142344714D02*
X98693143Y-141582714D01*
X98620572Y-141691571D01*
X98548000Y-141764143D01*
X98475429Y-141800429D01*
X81468994Y-133631799D02*
X82013280Y-133631799D01*
X82122137Y-133668085D01*
X82194709Y-133740656D01*
X82230994Y-133849513D01*
X82230994Y-133922085D01*
X81722994Y-132942371D02*
X82230994Y-132942371D01*
X81432709Y-133123800D02*
X81976994Y-133305228D01*
X81976994Y-132833514D01*
X83844714Y-138874571D02*
X83082714Y-138874571D01*
X83445571Y-138874571D02*
X83445571Y-138439143D01*
X83844714Y-138439143D02*
X83082714Y-138439143D01*
X83445571Y-138076285D02*
X83445571Y-137822285D01*
X83844714Y-137713428D02*
X83844714Y-138076285D01*
X83082714Y-138076285D01*
X83082714Y-137713428D01*
X83627000Y-137423142D02*
X83627000Y-137060285D01*
X83844714Y-137495714D02*
X83082714Y-137241714D01*
X83844714Y-136987714D01*
X83844714Y-136733713D02*
X83082714Y-136733713D01*
X83082714Y-136552285D01*
X83119000Y-136443428D01*
X83191571Y-136370856D01*
X83264143Y-136334571D01*
X83409286Y-136298285D01*
X83518143Y-136298285D01*
X83663286Y-136334571D01*
X83735857Y-136370856D01*
X83808429Y-136443428D01*
X83844714Y-136552285D01*
X83844714Y-136733713D01*
X83445571Y-135971713D02*
X83445571Y-135717713D01*
X83844714Y-135608856D02*
X83844714Y-135971713D01*
X83082714Y-135971713D01*
X83082714Y-135608856D01*
X83844714Y-134846856D02*
X83481857Y-135100856D01*
X83844714Y-135282284D02*
X83082714Y-135282284D01*
X83082714Y-134991999D01*
X83119000Y-134919427D01*
X83155286Y-134883142D01*
X83227857Y-134846856D01*
X83336714Y-134846856D01*
X83409286Y-134883142D01*
X83445571Y-134919427D01*
X83481857Y-134991999D01*
X83481857Y-135282284D01*
X83917286Y-134701713D02*
X83917286Y-134121142D01*
X83336714Y-133613142D02*
X83844714Y-133613142D01*
X83046429Y-133794571D02*
X83590714Y-133975999D01*
X83590714Y-133504285D01*
X83082714Y-133286571D02*
X83844714Y-132778571D01*
X83082714Y-132778571D02*
X83844714Y-133286571D01*
X83844714Y-132089143D02*
X83844714Y-132524571D01*
X83844714Y-132306857D02*
X83082714Y-132306857D01*
X83191571Y-132379428D01*
X83264143Y-132452000D01*
X83300429Y-132524571D01*
D20*
X171012857Y-105854286D02*
X171984286Y-105854286D01*
X172098571Y-105797143D01*
X172155714Y-105740000D01*
X172212857Y-105625714D01*
X172212857Y-105397143D01*
X172155714Y-105282857D01*
X172098571Y-105225714D01*
X171984286Y-105168571D01*
X171012857Y-105168571D01*
X171127143Y-104654286D02*
X171070000Y-104597143D01*
X171012857Y-104482857D01*
X171012857Y-104197143D01*
X171070000Y-104082857D01*
X171127143Y-104025714D01*
X171241429Y-103968571D01*
X171355714Y-103968571D01*
X171527143Y-104025714D01*
X172212857Y-104711428D01*
X172212857Y-103968571D01*
X172032857Y-118438571D02*
X171461429Y-118838571D01*
X172032857Y-119124286D02*
X170832857Y-119124286D01*
X170832857Y-118667143D01*
X170890000Y-118552857D01*
X170947143Y-118495714D01*
X171061429Y-118438571D01*
X171232857Y-118438571D01*
X171347143Y-118495714D01*
X171404286Y-118552857D01*
X171461429Y-118667143D01*
X171461429Y-119124286D01*
X170832857Y-117581429D02*
X171690000Y-117581429D01*
X171861429Y-117638571D01*
X171975714Y-117752857D01*
X172032857Y-117924286D01*
X172032857Y-118038571D01*
X172032857Y-116381428D02*
X172032857Y-117067143D01*
X172032857Y-116724285D02*
X170832857Y-116724285D01*
X171004286Y-116838571D01*
X171118571Y-116952857D01*
X171175714Y-117067143D01*
X170947143Y-115924286D02*
X170890000Y-115867143D01*
X170832857Y-115752857D01*
X170832857Y-115467143D01*
X170890000Y-115352857D01*
X170947143Y-115295714D01*
X171061429Y-115238571D01*
X171175714Y-115238571D01*
X171347143Y-115295714D01*
X172032857Y-115981428D01*
X172032857Y-115238571D01*
D10*
X146214286Y-115600000D02*
X146242857Y-115628571D01*
X146271429Y-115714285D01*
X146271429Y-115771428D01*
X146242857Y-115857143D01*
X146185714Y-115914285D01*
X146128571Y-115942857D01*
X146014286Y-115971428D01*
X145928571Y-115971428D01*
X145814286Y-115942857D01*
X145757143Y-115914285D01*
X145700000Y-115857143D01*
X145671429Y-115771428D01*
X145671429Y-115714285D01*
X145700000Y-115628571D01*
X145728571Y-115600000D01*
X146271429Y-115028571D02*
X146271429Y-115371428D01*
X146271429Y-115200000D02*
X145671429Y-115200000D01*
X145757143Y-115257143D01*
X145814286Y-115314285D01*
X145842857Y-115371428D01*
X146107143Y-117521429D02*
X145764286Y-117521429D01*
X145935714Y-117521429D02*
X145935714Y-116921429D01*
X145878571Y-117007143D01*
X145821429Y-117064286D01*
X145764286Y-117092857D01*
X146478572Y-116921429D02*
X146535715Y-116921429D01*
X146592858Y-116950000D01*
X146621429Y-116978571D01*
X146650000Y-117035714D01*
X146678572Y-117150000D01*
X146678572Y-117292857D01*
X146650000Y-117407143D01*
X146621429Y-117464286D01*
X146592858Y-117492857D01*
X146535715Y-117521429D01*
X146478572Y-117521429D01*
X146421429Y-117492857D01*
X146392858Y-117464286D01*
X146364286Y-117407143D01*
X146335715Y-117292857D01*
X146335715Y-117150000D01*
X146364286Y-117035714D01*
X146392858Y-116978571D01*
X146421429Y-116950000D01*
X146478572Y-116921429D01*
X146935715Y-117121429D02*
X146935715Y-117521429D01*
X146935715Y-117178571D02*
X146964287Y-117150000D01*
X147021429Y-117121429D01*
X147107144Y-117121429D01*
X147164287Y-117150000D01*
X147192858Y-117207143D01*
X147192858Y-117521429D01*
X147678572Y-117207143D02*
X147478572Y-117207143D01*
X147478572Y-117521429D02*
X147478572Y-116921429D01*
X147764286Y-116921429D01*
X148800000Y-106314286D02*
X148771429Y-106342857D01*
X148685715Y-106371429D01*
X148628572Y-106371429D01*
X148542857Y-106342857D01*
X148485715Y-106285714D01*
X148457143Y-106228571D01*
X148428572Y-106114286D01*
X148428572Y-106028571D01*
X148457143Y-105914286D01*
X148485715Y-105857143D01*
X148542857Y-105800000D01*
X148628572Y-105771429D01*
X148685715Y-105771429D01*
X148771429Y-105800000D01*
X148800000Y-105828571D01*
X149028572Y-105828571D02*
X149057143Y-105800000D01*
X149114286Y-105771429D01*
X149257143Y-105771429D01*
X149314286Y-105800000D01*
X149342857Y-105828571D01*
X149371429Y-105885714D01*
X149371429Y-105942857D01*
X149342857Y-106028571D01*
X149000000Y-106371429D01*
X149371429Y-106371429D01*
X149871429Y-104628571D02*
X149900000Y-104600000D01*
X149957143Y-104571429D01*
X150100000Y-104571429D01*
X150157143Y-104600000D01*
X150185714Y-104628571D01*
X150214286Y-104685714D01*
X150214286Y-104742857D01*
X150185714Y-104828571D01*
X149842857Y-105171429D01*
X150214286Y-105171429D01*
X150471429Y-105114286D02*
X150500001Y-105142857D01*
X150471429Y-105171429D01*
X150442858Y-105142857D01*
X150471429Y-105114286D01*
X150471429Y-105171429D01*
X150728572Y-104628571D02*
X150757143Y-104600000D01*
X150814286Y-104571429D01*
X150957143Y-104571429D01*
X151014286Y-104600000D01*
X151042857Y-104628571D01*
X151071429Y-104685714D01*
X151071429Y-104742857D01*
X151042857Y-104828571D01*
X150700000Y-105171429D01*
X151071429Y-105171429D01*
X151328572Y-104771429D02*
X151328572Y-105171429D01*
X151328572Y-104828571D02*
X151357144Y-104800000D01*
X151414286Y-104771429D01*
X151500001Y-104771429D01*
X151557144Y-104800000D01*
X151585715Y-104857143D01*
X151585715Y-105171429D01*
X152071429Y-104857143D02*
X151871429Y-104857143D01*
X151871429Y-105171429D02*
X151871429Y-104571429D01*
X152157143Y-104571429D01*
X148650000Y-118964286D02*
X148621429Y-118992857D01*
X148535715Y-119021429D01*
X148478572Y-119021429D01*
X148392857Y-118992857D01*
X148335715Y-118935714D01*
X148307143Y-118878571D01*
X148278572Y-118764286D01*
X148278572Y-118678571D01*
X148307143Y-118564286D01*
X148335715Y-118507143D01*
X148392857Y-118450000D01*
X148478572Y-118421429D01*
X148535715Y-118421429D01*
X148621429Y-118450000D01*
X148650000Y-118478571D01*
X149164286Y-118621429D02*
X149164286Y-119021429D01*
X149021429Y-118392857D02*
X148878572Y-118821429D01*
X149250000Y-118821429D01*
X147685714Y-117964286D02*
X147714286Y-117992857D01*
X147685714Y-118021429D01*
X147657143Y-117992857D01*
X147685714Y-117964286D01*
X147685714Y-118021429D01*
X148285714Y-118021429D02*
X147942857Y-118021429D01*
X148114285Y-118021429D02*
X148114285Y-117421429D01*
X148057142Y-117507143D01*
X148000000Y-117564286D01*
X147942857Y-117592857D01*
X148800000Y-117621429D02*
X148800000Y-118021429D01*
X148542857Y-117621429D02*
X148542857Y-117935714D01*
X148571429Y-117992857D01*
X148628571Y-118021429D01*
X148714286Y-118021429D01*
X148771429Y-117992857D01*
X148800000Y-117964286D01*
X149285714Y-117707143D02*
X149085714Y-117707143D01*
X149085714Y-118021429D02*
X149085714Y-117421429D01*
X149371428Y-117421429D01*
X150150000Y-118964286D02*
X150121429Y-118992857D01*
X150035715Y-119021429D01*
X149978572Y-119021429D01*
X149892857Y-118992857D01*
X149835715Y-118935714D01*
X149807143Y-118878571D01*
X149778572Y-118764286D01*
X149778572Y-118678571D01*
X149807143Y-118564286D01*
X149835715Y-118507143D01*
X149892857Y-118450000D01*
X149978572Y-118421429D01*
X150035715Y-118421429D01*
X150121429Y-118450000D01*
X150150000Y-118478571D01*
X150692857Y-118421429D02*
X150407143Y-118421429D01*
X150378572Y-118707143D01*
X150407143Y-118678571D01*
X150464286Y-118650000D01*
X150607143Y-118650000D01*
X150664286Y-118678571D01*
X150692857Y-118707143D01*
X150721429Y-118764286D01*
X150721429Y-118907143D01*
X150692857Y-118964286D01*
X150664286Y-118992857D01*
X150607143Y-119021429D01*
X150464286Y-119021429D01*
X150407143Y-118992857D01*
X150378572Y-118964286D01*
X149685714Y-117964286D02*
X149714286Y-117992857D01*
X149685714Y-118021429D01*
X149657143Y-117992857D01*
X149685714Y-117964286D01*
X149685714Y-118021429D01*
X150285714Y-118021429D02*
X149942857Y-118021429D01*
X150114285Y-118021429D02*
X150114285Y-117421429D01*
X150057142Y-117507143D01*
X150000000Y-117564286D01*
X149942857Y-117592857D01*
X150800000Y-117621429D02*
X150800000Y-118021429D01*
X150542857Y-117621429D02*
X150542857Y-117935714D01*
X150571429Y-117992857D01*
X150628571Y-118021429D01*
X150714286Y-118021429D01*
X150771429Y-117992857D01*
X150800000Y-117964286D01*
X151285714Y-117707143D02*
X151085714Y-117707143D01*
X151085714Y-118021429D02*
X151085714Y-117421429D01*
X151371428Y-117421429D01*
D13*
X150190476Y-106861905D02*
X150190476Y-107509524D01*
X150228571Y-107585714D01*
X150266667Y-107623810D01*
X150342857Y-107661905D01*
X150495238Y-107661905D01*
X150571429Y-107623810D01*
X150609524Y-107585714D01*
X150647619Y-107509524D01*
X150647619Y-106861905D01*
X151447619Y-107661905D02*
X150990476Y-107661905D01*
X151219047Y-107661905D02*
X151219047Y-106861905D01*
X151142857Y-106976190D01*
X151066666Y-107052381D01*
X150990476Y-107090476D01*
X146361905Y-113604762D02*
X145561905Y-113604762D01*
X146133333Y-113338095D01*
X145561905Y-113071428D01*
X146361905Y-113071428D01*
X146361905Y-112690476D02*
X145561905Y-112690476D01*
X145561905Y-112385714D01*
X145600000Y-112309523D01*
X145638095Y-112271428D01*
X145714286Y-112233333D01*
X145828571Y-112233333D01*
X145904762Y-112271428D01*
X145942857Y-112309523D01*
X145980952Y-112385714D01*
X145980952Y-112690476D01*
X145561905Y-111890476D02*
X146209524Y-111890476D01*
X146285714Y-111852381D01*
X146323810Y-111814285D01*
X146361905Y-111738095D01*
X146361905Y-111585714D01*
X146323810Y-111509523D01*
X146285714Y-111471428D01*
X146209524Y-111433333D01*
X145561905Y-111433333D01*
X146057143Y-111052381D02*
X146057143Y-110442857D01*
X145561905Y-109719048D02*
X145561905Y-109871429D01*
X145600000Y-109947619D01*
X145638095Y-109985714D01*
X145752381Y-110061905D01*
X145904762Y-110100000D01*
X146209524Y-110100000D01*
X146285714Y-110061905D01*
X146323810Y-110023810D01*
X146361905Y-109947619D01*
X146361905Y-109795238D01*
X146323810Y-109719048D01*
X146285714Y-109680952D01*
X146209524Y-109642857D01*
X146019048Y-109642857D01*
X145942857Y-109680952D01*
X145904762Y-109719048D01*
X145866667Y-109795238D01*
X145866667Y-109947619D01*
X145904762Y-110023810D01*
X145942857Y-110061905D01*
X146019048Y-110100000D01*
X145561905Y-109147619D02*
X145561905Y-109071428D01*
X145600000Y-108995238D01*
X145638095Y-108957143D01*
X145714286Y-108919047D01*
X145866667Y-108880952D01*
X146057143Y-108880952D01*
X146209524Y-108919047D01*
X146285714Y-108957143D01*
X146323810Y-108995238D01*
X146361905Y-109071428D01*
X146361905Y-109147619D01*
X146323810Y-109223809D01*
X146285714Y-109261905D01*
X146209524Y-109300000D01*
X146057143Y-109338095D01*
X145866667Y-109338095D01*
X145714286Y-109300000D01*
X145638095Y-109261905D01*
X145600000Y-109223809D01*
X145561905Y-109147619D01*
X145561905Y-108157142D02*
X145561905Y-108538095D01*
X145942857Y-108576190D01*
X145904762Y-108538095D01*
X145866667Y-108461904D01*
X145866667Y-108271428D01*
X145904762Y-108195238D01*
X145942857Y-108157142D01*
X146019048Y-108119047D01*
X146209524Y-108119047D01*
X146285714Y-108157142D01*
X146323810Y-108195238D01*
X146361905Y-108271428D01*
X146361905Y-108461904D01*
X146323810Y-108538095D01*
X146285714Y-108576190D01*
X145561905Y-107623809D02*
X145561905Y-107547618D01*
X145600000Y-107471428D01*
X145638095Y-107433333D01*
X145714286Y-107395237D01*
X145866667Y-107357142D01*
X146057143Y-107357142D01*
X146209524Y-107395237D01*
X146285714Y-107433333D01*
X146323810Y-107471428D01*
X146361905Y-107547618D01*
X146361905Y-107623809D01*
X146323810Y-107699999D01*
X146285714Y-107738095D01*
X146209524Y-107776190D01*
X146057143Y-107814285D01*
X145866667Y-107814285D01*
X145714286Y-107776190D01*
X145638095Y-107738095D01*
X145600000Y-107699999D01*
X145561905Y-107623809D01*
D10*
X153464286Y-116100000D02*
X153492857Y-116128571D01*
X153521429Y-116214285D01*
X153521429Y-116271428D01*
X153492857Y-116357143D01*
X153435714Y-116414285D01*
X153378571Y-116442857D01*
X153264286Y-116471428D01*
X153178571Y-116471428D01*
X153064286Y-116442857D01*
X153007143Y-116414285D01*
X152950000Y-116357143D01*
X152921429Y-116271428D01*
X152921429Y-116214285D01*
X152950000Y-116128571D01*
X152978571Y-116100000D01*
X152921429Y-115900000D02*
X152921429Y-115528571D01*
X153150000Y-115728571D01*
X153150000Y-115642857D01*
X153178571Y-115585714D01*
X153207143Y-115557143D01*
X153264286Y-115528571D01*
X153407143Y-115528571D01*
X153464286Y-115557143D01*
X153492857Y-115585714D01*
X153521429Y-115642857D01*
X153521429Y-115814285D01*
X153492857Y-115871428D01*
X153464286Y-115900000D01*
X151657143Y-118371429D02*
X151657143Y-118771429D01*
X151514286Y-118142857D02*
X151371429Y-118571429D01*
X151742857Y-118571429D01*
X151971429Y-118714286D02*
X152000001Y-118742857D01*
X151971429Y-118771429D01*
X151942858Y-118742857D01*
X151971429Y-118714286D01*
X151971429Y-118771429D01*
X152200000Y-118171429D02*
X152600000Y-118171429D01*
X152342857Y-118771429D01*
X153085715Y-118371429D02*
X153085715Y-118771429D01*
X152828572Y-118371429D02*
X152828572Y-118685714D01*
X152857144Y-118742857D01*
X152914286Y-118771429D01*
X153000001Y-118771429D01*
X153057144Y-118742857D01*
X153085715Y-118714286D01*
X153571429Y-118457143D02*
X153371429Y-118457143D01*
X153371429Y-118771429D02*
X153371429Y-118171429D01*
X153657143Y-118171429D01*
X153121429Y-114280952D02*
X153121429Y-113519047D01*
X153502381Y-113899999D02*
X152740476Y-113899999D01*
D20*
X137512857Y-105854286D02*
X138484286Y-105854286D01*
X138598571Y-105797143D01*
X138655714Y-105740000D01*
X138712857Y-105625714D01*
X138712857Y-105397143D01*
X138655714Y-105282857D01*
X138598571Y-105225714D01*
X138484286Y-105168571D01*
X137512857Y-105168571D01*
X137627143Y-104654286D02*
X137570000Y-104597143D01*
X137512857Y-104482857D01*
X137512857Y-104197143D01*
X137570000Y-104082857D01*
X137627143Y-104025714D01*
X137741429Y-103968571D01*
X137855714Y-103968571D01*
X138027143Y-104025714D01*
X138712857Y-104711428D01*
X138712857Y-103968571D01*
X138532857Y-118438571D02*
X137961429Y-118838571D01*
X138532857Y-119124286D02*
X137332857Y-119124286D01*
X137332857Y-118667143D01*
X137390000Y-118552857D01*
X137447143Y-118495714D01*
X137561429Y-118438571D01*
X137732857Y-118438571D01*
X137847143Y-118495714D01*
X137904286Y-118552857D01*
X137961429Y-118667143D01*
X137961429Y-119124286D01*
X137332857Y-117581429D02*
X138190000Y-117581429D01*
X138361429Y-117638571D01*
X138475714Y-117752857D01*
X138532857Y-117924286D01*
X138532857Y-118038571D01*
X138532857Y-116381428D02*
X138532857Y-117067143D01*
X138532857Y-116724285D02*
X137332857Y-116724285D01*
X137504286Y-116838571D01*
X137618571Y-116952857D01*
X137675714Y-117067143D01*
X137447143Y-115924286D02*
X137390000Y-115867143D01*
X137332857Y-115752857D01*
X137332857Y-115467143D01*
X137390000Y-115352857D01*
X137447143Y-115295714D01*
X137561429Y-115238571D01*
X137675714Y-115238571D01*
X137847143Y-115295714D01*
X138532857Y-115981428D01*
X138532857Y-115238571D01*
D10*
X112714286Y-115600000D02*
X112742857Y-115628571D01*
X112771429Y-115714285D01*
X112771429Y-115771428D01*
X112742857Y-115857143D01*
X112685714Y-115914285D01*
X112628571Y-115942857D01*
X112514286Y-115971428D01*
X112428571Y-115971428D01*
X112314286Y-115942857D01*
X112257143Y-115914285D01*
X112200000Y-115857143D01*
X112171429Y-115771428D01*
X112171429Y-115714285D01*
X112200000Y-115628571D01*
X112228571Y-115600000D01*
X112771429Y-115028571D02*
X112771429Y-115371428D01*
X112771429Y-115200000D02*
X112171429Y-115200000D01*
X112257143Y-115257143D01*
X112314286Y-115314285D01*
X112342857Y-115371428D01*
X112607143Y-117521429D02*
X112264286Y-117521429D01*
X112435714Y-117521429D02*
X112435714Y-116921429D01*
X112378571Y-117007143D01*
X112321429Y-117064286D01*
X112264286Y-117092857D01*
X112978572Y-116921429D02*
X113035715Y-116921429D01*
X113092858Y-116950000D01*
X113121429Y-116978571D01*
X113150000Y-117035714D01*
X113178572Y-117150000D01*
X113178572Y-117292857D01*
X113150000Y-117407143D01*
X113121429Y-117464286D01*
X113092858Y-117492857D01*
X113035715Y-117521429D01*
X112978572Y-117521429D01*
X112921429Y-117492857D01*
X112892858Y-117464286D01*
X112864286Y-117407143D01*
X112835715Y-117292857D01*
X112835715Y-117150000D01*
X112864286Y-117035714D01*
X112892858Y-116978571D01*
X112921429Y-116950000D01*
X112978572Y-116921429D01*
X113435715Y-117121429D02*
X113435715Y-117521429D01*
X113435715Y-117178571D02*
X113464287Y-117150000D01*
X113521429Y-117121429D01*
X113607144Y-117121429D01*
X113664287Y-117150000D01*
X113692858Y-117207143D01*
X113692858Y-117521429D01*
X114178572Y-117207143D02*
X113978572Y-117207143D01*
X113978572Y-117521429D02*
X113978572Y-116921429D01*
X114264286Y-116921429D01*
X115300000Y-106314286D02*
X115271429Y-106342857D01*
X115185715Y-106371429D01*
X115128572Y-106371429D01*
X115042857Y-106342857D01*
X114985715Y-106285714D01*
X114957143Y-106228571D01*
X114928572Y-106114286D01*
X114928572Y-106028571D01*
X114957143Y-105914286D01*
X114985715Y-105857143D01*
X115042857Y-105800000D01*
X115128572Y-105771429D01*
X115185715Y-105771429D01*
X115271429Y-105800000D01*
X115300000Y-105828571D01*
X115528572Y-105828571D02*
X115557143Y-105800000D01*
X115614286Y-105771429D01*
X115757143Y-105771429D01*
X115814286Y-105800000D01*
X115842857Y-105828571D01*
X115871429Y-105885714D01*
X115871429Y-105942857D01*
X115842857Y-106028571D01*
X115500000Y-106371429D01*
X115871429Y-106371429D01*
X116371429Y-104628571D02*
X116400000Y-104600000D01*
X116457143Y-104571429D01*
X116600000Y-104571429D01*
X116657143Y-104600000D01*
X116685714Y-104628571D01*
X116714286Y-104685714D01*
X116714286Y-104742857D01*
X116685714Y-104828571D01*
X116342857Y-105171429D01*
X116714286Y-105171429D01*
X116971429Y-105114286D02*
X117000001Y-105142857D01*
X116971429Y-105171429D01*
X116942858Y-105142857D01*
X116971429Y-105114286D01*
X116971429Y-105171429D01*
X117228572Y-104628571D02*
X117257143Y-104600000D01*
X117314286Y-104571429D01*
X117457143Y-104571429D01*
X117514286Y-104600000D01*
X117542857Y-104628571D01*
X117571429Y-104685714D01*
X117571429Y-104742857D01*
X117542857Y-104828571D01*
X117200000Y-105171429D01*
X117571429Y-105171429D01*
X117828572Y-104771429D02*
X117828572Y-105171429D01*
X117828572Y-104828571D02*
X117857144Y-104800000D01*
X117914286Y-104771429D01*
X118000001Y-104771429D01*
X118057144Y-104800000D01*
X118085715Y-104857143D01*
X118085715Y-105171429D01*
X118571429Y-104857143D02*
X118371429Y-104857143D01*
X118371429Y-105171429D02*
X118371429Y-104571429D01*
X118657143Y-104571429D01*
X115150000Y-118964286D02*
X115121429Y-118992857D01*
X115035715Y-119021429D01*
X114978572Y-119021429D01*
X114892857Y-118992857D01*
X114835715Y-118935714D01*
X114807143Y-118878571D01*
X114778572Y-118764286D01*
X114778572Y-118678571D01*
X114807143Y-118564286D01*
X114835715Y-118507143D01*
X114892857Y-118450000D01*
X114978572Y-118421429D01*
X115035715Y-118421429D01*
X115121429Y-118450000D01*
X115150000Y-118478571D01*
X115664286Y-118621429D02*
X115664286Y-119021429D01*
X115521429Y-118392857D02*
X115378572Y-118821429D01*
X115750000Y-118821429D01*
X114185714Y-117964286D02*
X114214286Y-117992857D01*
X114185714Y-118021429D01*
X114157143Y-117992857D01*
X114185714Y-117964286D01*
X114185714Y-118021429D01*
X114785714Y-118021429D02*
X114442857Y-118021429D01*
X114614285Y-118021429D02*
X114614285Y-117421429D01*
X114557142Y-117507143D01*
X114500000Y-117564286D01*
X114442857Y-117592857D01*
X115300000Y-117621429D02*
X115300000Y-118021429D01*
X115042857Y-117621429D02*
X115042857Y-117935714D01*
X115071429Y-117992857D01*
X115128571Y-118021429D01*
X115214286Y-118021429D01*
X115271429Y-117992857D01*
X115300000Y-117964286D01*
X115785714Y-117707143D02*
X115585714Y-117707143D01*
X115585714Y-118021429D02*
X115585714Y-117421429D01*
X115871428Y-117421429D01*
X116650000Y-118964286D02*
X116621429Y-118992857D01*
X116535715Y-119021429D01*
X116478572Y-119021429D01*
X116392857Y-118992857D01*
X116335715Y-118935714D01*
X116307143Y-118878571D01*
X116278572Y-118764286D01*
X116278572Y-118678571D01*
X116307143Y-118564286D01*
X116335715Y-118507143D01*
X116392857Y-118450000D01*
X116478572Y-118421429D01*
X116535715Y-118421429D01*
X116621429Y-118450000D01*
X116650000Y-118478571D01*
X117192857Y-118421429D02*
X116907143Y-118421429D01*
X116878572Y-118707143D01*
X116907143Y-118678571D01*
X116964286Y-118650000D01*
X117107143Y-118650000D01*
X117164286Y-118678571D01*
X117192857Y-118707143D01*
X117221429Y-118764286D01*
X117221429Y-118907143D01*
X117192857Y-118964286D01*
X117164286Y-118992857D01*
X117107143Y-119021429D01*
X116964286Y-119021429D01*
X116907143Y-118992857D01*
X116878572Y-118964286D01*
X116185714Y-117964286D02*
X116214286Y-117992857D01*
X116185714Y-118021429D01*
X116157143Y-117992857D01*
X116185714Y-117964286D01*
X116185714Y-118021429D01*
X116785714Y-118021429D02*
X116442857Y-118021429D01*
X116614285Y-118021429D02*
X116614285Y-117421429D01*
X116557142Y-117507143D01*
X116500000Y-117564286D01*
X116442857Y-117592857D01*
X117300000Y-117621429D02*
X117300000Y-118021429D01*
X117042857Y-117621429D02*
X117042857Y-117935714D01*
X117071429Y-117992857D01*
X117128571Y-118021429D01*
X117214286Y-118021429D01*
X117271429Y-117992857D01*
X117300000Y-117964286D01*
X117785714Y-117707143D02*
X117585714Y-117707143D01*
X117585714Y-118021429D02*
X117585714Y-117421429D01*
X117871428Y-117421429D01*
D13*
X116690476Y-106861905D02*
X116690476Y-107509524D01*
X116728571Y-107585714D01*
X116766667Y-107623810D01*
X116842857Y-107661905D01*
X116995238Y-107661905D01*
X117071429Y-107623810D01*
X117109524Y-107585714D01*
X117147619Y-107509524D01*
X117147619Y-106861905D01*
X117947619Y-107661905D02*
X117490476Y-107661905D01*
X117719047Y-107661905D02*
X117719047Y-106861905D01*
X117642857Y-106976190D01*
X117566666Y-107052381D01*
X117490476Y-107090476D01*
X112861905Y-113604762D02*
X112061905Y-113604762D01*
X112633333Y-113338095D01*
X112061905Y-113071428D01*
X112861905Y-113071428D01*
X112861905Y-112690476D02*
X112061905Y-112690476D01*
X112061905Y-112385714D01*
X112100000Y-112309523D01*
X112138095Y-112271428D01*
X112214286Y-112233333D01*
X112328571Y-112233333D01*
X112404762Y-112271428D01*
X112442857Y-112309523D01*
X112480952Y-112385714D01*
X112480952Y-112690476D01*
X112061905Y-111890476D02*
X112709524Y-111890476D01*
X112785714Y-111852381D01*
X112823810Y-111814285D01*
X112861905Y-111738095D01*
X112861905Y-111585714D01*
X112823810Y-111509523D01*
X112785714Y-111471428D01*
X112709524Y-111433333D01*
X112061905Y-111433333D01*
X112557143Y-111052381D02*
X112557143Y-110442857D01*
X112061905Y-109719048D02*
X112061905Y-109871429D01*
X112100000Y-109947619D01*
X112138095Y-109985714D01*
X112252381Y-110061905D01*
X112404762Y-110100000D01*
X112709524Y-110100000D01*
X112785714Y-110061905D01*
X112823810Y-110023810D01*
X112861905Y-109947619D01*
X112861905Y-109795238D01*
X112823810Y-109719048D01*
X112785714Y-109680952D01*
X112709524Y-109642857D01*
X112519048Y-109642857D01*
X112442857Y-109680952D01*
X112404762Y-109719048D01*
X112366667Y-109795238D01*
X112366667Y-109947619D01*
X112404762Y-110023810D01*
X112442857Y-110061905D01*
X112519048Y-110100000D01*
X112061905Y-109147619D02*
X112061905Y-109071428D01*
X112100000Y-108995238D01*
X112138095Y-108957143D01*
X112214286Y-108919047D01*
X112366667Y-108880952D01*
X112557143Y-108880952D01*
X112709524Y-108919047D01*
X112785714Y-108957143D01*
X112823810Y-108995238D01*
X112861905Y-109071428D01*
X112861905Y-109147619D01*
X112823810Y-109223809D01*
X112785714Y-109261905D01*
X112709524Y-109300000D01*
X112557143Y-109338095D01*
X112366667Y-109338095D01*
X112214286Y-109300000D01*
X112138095Y-109261905D01*
X112100000Y-109223809D01*
X112061905Y-109147619D01*
X112061905Y-108157142D02*
X112061905Y-108538095D01*
X112442857Y-108576190D01*
X112404762Y-108538095D01*
X112366667Y-108461904D01*
X112366667Y-108271428D01*
X112404762Y-108195238D01*
X112442857Y-108157142D01*
X112519048Y-108119047D01*
X112709524Y-108119047D01*
X112785714Y-108157142D01*
X112823810Y-108195238D01*
X112861905Y-108271428D01*
X112861905Y-108461904D01*
X112823810Y-108538095D01*
X112785714Y-108576190D01*
X112061905Y-107623809D02*
X112061905Y-107547618D01*
X112100000Y-107471428D01*
X112138095Y-107433333D01*
X112214286Y-107395237D01*
X112366667Y-107357142D01*
X112557143Y-107357142D01*
X112709524Y-107395237D01*
X112785714Y-107433333D01*
X112823810Y-107471428D01*
X112861905Y-107547618D01*
X112861905Y-107623809D01*
X112823810Y-107699999D01*
X112785714Y-107738095D01*
X112709524Y-107776190D01*
X112557143Y-107814285D01*
X112366667Y-107814285D01*
X112214286Y-107776190D01*
X112138095Y-107738095D01*
X112100000Y-107699999D01*
X112061905Y-107623809D01*
D10*
X119964286Y-116100000D02*
X119992857Y-116128571D01*
X120021429Y-116214285D01*
X120021429Y-116271428D01*
X119992857Y-116357143D01*
X119935714Y-116414285D01*
X119878571Y-116442857D01*
X119764286Y-116471428D01*
X119678571Y-116471428D01*
X119564286Y-116442857D01*
X119507143Y-116414285D01*
X119450000Y-116357143D01*
X119421429Y-116271428D01*
X119421429Y-116214285D01*
X119450000Y-116128571D01*
X119478571Y-116100000D01*
X119421429Y-115900000D02*
X119421429Y-115528571D01*
X119650000Y-115728571D01*
X119650000Y-115642857D01*
X119678571Y-115585714D01*
X119707143Y-115557143D01*
X119764286Y-115528571D01*
X119907143Y-115528571D01*
X119964286Y-115557143D01*
X119992857Y-115585714D01*
X120021429Y-115642857D01*
X120021429Y-115814285D01*
X119992857Y-115871428D01*
X119964286Y-115900000D01*
X118157143Y-118371429D02*
X118157143Y-118771429D01*
X118014286Y-118142857D02*
X117871429Y-118571429D01*
X118242857Y-118571429D01*
X118471429Y-118714286D02*
X118500001Y-118742857D01*
X118471429Y-118771429D01*
X118442858Y-118742857D01*
X118471429Y-118714286D01*
X118471429Y-118771429D01*
X118700000Y-118171429D02*
X119100000Y-118171429D01*
X118842857Y-118771429D01*
X119585715Y-118371429D02*
X119585715Y-118771429D01*
X119328572Y-118371429D02*
X119328572Y-118685714D01*
X119357144Y-118742857D01*
X119414286Y-118771429D01*
X119500001Y-118771429D01*
X119557144Y-118742857D01*
X119585715Y-118714286D01*
X120071429Y-118457143D02*
X119871429Y-118457143D01*
X119871429Y-118771429D02*
X119871429Y-118171429D01*
X120157143Y-118171429D01*
X119621429Y-114280952D02*
X119621429Y-113519047D01*
X120002381Y-113899999D02*
X119240476Y-113899999D01*
M02*
