G04 #@! TF.FileFunction,Soldermask,Bot*
%FSLAX46Y46*%
G04 Gerber Fmt 4.6, Leading zero omitted, Abs format (unit mm)*
G04 Created by KiCad (PCBNEW 4.0.7) date 11/21/18 11:39:18*
%MOMM*%
%LPD*%
G01*
G04 APERTURE LIST*
%ADD10C,0.150000*%
%ADD11R,2.499360X2.499360*%
%ADD12C,2.600000*%
%ADD13C,1.700000*%
%ADD14C,3.180000*%
%ADD15C,3.000000*%
%ADD16C,1.800000*%
%ADD17C,1.397000*%
%ADD18R,1.397000X1.397000*%
G04 APERTURE END LIST*
D10*
D11*
X83000000Y-111000000D03*
D12*
X106000000Y-111000000D03*
X78000000Y-111000000D03*
D13*
X88060000Y-114675000D03*
X88060000Y-112135000D03*
X88060000Y-109595000D03*
X90600000Y-110865000D03*
X90600000Y-108325000D03*
X90600000Y-113405000D03*
D14*
X96950000Y-116580000D03*
X96950000Y-106420000D03*
D15*
X79500000Y-148500000D03*
X79500000Y-123000000D03*
X172500000Y-149000000D03*
X172500000Y-123000000D03*
D16*
X103240160Y-144500000D03*
X105780160Y-144500000D03*
X93960000Y-144500000D03*
X96500000Y-144500000D03*
X99040000Y-144500000D03*
X84960000Y-150500000D03*
X87500000Y-150500000D03*
X90040000Y-150500000D03*
D17*
X166320000Y-123800000D03*
X168860000Y-123800000D03*
X163780000Y-123800000D03*
X161240000Y-123800000D03*
X158700000Y-123800000D03*
X158700000Y-149200000D03*
X161240000Y-149200000D03*
X163780000Y-149200000D03*
X168860000Y-149200000D03*
X166350000Y-149200000D03*
X140920000Y-123800000D03*
X143460000Y-123800000D03*
X138380000Y-123800000D03*
X135840000Y-123800000D03*
X133300000Y-123800000D03*
X130760000Y-123800000D03*
X128220000Y-123800000D03*
X125650000Y-123800000D03*
X146000000Y-123800000D03*
X148540000Y-123800000D03*
X151080000Y-123800000D03*
X156160000Y-123800000D03*
X153620000Y-123800000D03*
X153620000Y-149200000D03*
X156160000Y-149200000D03*
X151080000Y-149200000D03*
X148540000Y-149200000D03*
X146000000Y-149200000D03*
X123140000Y-123800000D03*
D18*
X123140000Y-149200000D03*
D17*
X125650000Y-149200000D03*
X128220000Y-149200000D03*
X130760000Y-149200000D03*
X133300000Y-149200000D03*
X135840000Y-149200000D03*
X138380000Y-149200000D03*
X143460000Y-149200000D03*
X140920000Y-149200000D03*
D16*
X92650000Y-140000000D03*
X95190000Y-140000000D03*
X100259840Y-140000000D03*
X97719840Y-140000000D03*
X79900000Y-129350000D03*
X79900000Y-131890000D03*
X79900000Y-136959840D03*
X79900000Y-134419840D03*
D13*
X154560000Y-114175000D03*
X154560000Y-111635000D03*
X154560000Y-109095000D03*
X157100000Y-110365000D03*
X157100000Y-107825000D03*
X157100000Y-112905000D03*
D14*
X163450000Y-116080000D03*
X163450000Y-105920000D03*
D12*
X144500000Y-110500000D03*
X172500000Y-110500000D03*
D11*
X149500000Y-110500000D03*
D13*
X121060000Y-114175000D03*
X121060000Y-111635000D03*
X121060000Y-109095000D03*
X123600000Y-110365000D03*
X123600000Y-107825000D03*
X123600000Y-112905000D03*
D14*
X129950000Y-116080000D03*
X129950000Y-105920000D03*
D12*
X111000000Y-110500000D03*
X139000000Y-110500000D03*
D11*
X116000000Y-110500000D03*
M02*
