G04 #@! TF.FileFunction,Copper,L2,Bot,Signal*
%FSLAX46Y46*%
G04 Gerber Fmt 4.6, Leading zero omitted, Abs format (unit mm)*
G04 Created by KiCad (PCBNEW 4.0.7) date 03/28/19 16:01:04*
%MOMM*%
%LPD*%
G01*
G04 APERTURE LIST*
%ADD10C,0.050000*%
%ADD11C,1.800000*%
%ADD12C,1.397000*%
%ADD13R,1.397000X1.397000*%
%ADD14C,0.700000*%
%ADD15C,0.800000*%
%ADD16C,0.600000*%
%ADD17C,0.254000*%
G04 APERTURE END LIST*
D10*
D11*
X169770000Y-115820000D03*
X172310000Y-115820000D03*
X167230000Y-115820000D03*
X164690000Y-115820000D03*
X164690000Y-113280000D03*
X167230000Y-113280000D03*
X172310000Y-113280000D03*
X169770000Y-113280000D03*
X168650000Y-106050000D03*
X171190000Y-106050000D03*
X176259840Y-106050000D03*
X173719840Y-106050000D03*
X121620000Y-116270000D03*
X124160000Y-116270000D03*
X119080000Y-116270000D03*
X116540000Y-116270000D03*
X116540000Y-113730000D03*
X119080000Y-113730000D03*
X124160000Y-113730000D03*
X121620000Y-113730000D03*
X120500000Y-106500000D03*
X123040000Y-106500000D03*
X128109840Y-106500000D03*
X125569840Y-106500000D03*
X113740160Y-145000000D03*
X116280160Y-145000000D03*
X119126000Y-123444000D03*
X116586000Y-123444000D03*
X114046000Y-123444000D03*
X100540000Y-151000000D03*
X98000000Y-151000000D03*
X95460000Y-151000000D03*
X103150000Y-140500000D03*
X105690000Y-140500000D03*
X110759840Y-140500000D03*
X108219840Y-140500000D03*
X90400000Y-129850000D03*
X90400000Y-132390000D03*
X90400000Y-137459840D03*
X90400000Y-134919840D03*
D12*
X166609200Y-124300000D03*
X169149200Y-124300000D03*
X164069200Y-124300000D03*
X161529200Y-124300000D03*
X158989200Y-124300000D03*
X179410800Y-149623800D03*
X179309200Y-124300000D03*
X176769200Y-124300000D03*
X171689200Y-124350800D03*
X174229200Y-124300000D03*
X143749200Y-124300000D03*
X146289200Y-124300000D03*
X148829200Y-124300000D03*
X151369200Y-124300000D03*
X156449200Y-124300000D03*
X153909200Y-124300000D03*
X174330800Y-149623800D03*
X176870800Y-149623800D03*
X171790800Y-149623800D03*
X169250800Y-149623800D03*
X166710800Y-149623800D03*
D13*
X143850800Y-149623800D03*
D12*
X146360800Y-149623800D03*
X148930800Y-149623800D03*
X151470800Y-149623800D03*
X154010800Y-149623800D03*
X156550800Y-149623800D03*
X159090800Y-149623800D03*
X164170800Y-149623800D03*
X161630800Y-149623800D03*
D11*
X93900000Y-106600000D03*
X96440000Y-106600000D03*
X101509840Y-106600000D03*
X98969840Y-106600000D03*
X95020000Y-116370000D03*
X97560000Y-116370000D03*
X92480000Y-116370000D03*
X89940000Y-116370000D03*
X89940000Y-113830000D03*
X92480000Y-113830000D03*
X97560000Y-113830000D03*
X95020000Y-113830000D03*
D14*
X148000000Y-122000000D03*
X117500000Y-121500000D03*
X118872000Y-127254000D03*
X119500000Y-147000000D03*
X93500000Y-131500000D03*
X125500000Y-145000000D03*
X98000000Y-149000000D03*
X120500000Y-148500000D03*
X102000000Y-148500000D03*
X93500000Y-129000000D03*
D15*
X122000000Y-136000000D02*
X133500000Y-124500000D01*
X134200000Y-124300000D02*
X143749200Y-124300000D01*
X134000000Y-124500000D02*
X134200000Y-124300000D01*
X133500000Y-124500000D02*
X134000000Y-124500000D01*
X110759840Y-140500000D02*
X110759840Y-137240160D01*
X112000000Y-136000000D02*
X122000000Y-136000000D01*
X110759840Y-137240160D02*
X112000000Y-136000000D01*
X137000000Y-122000000D02*
X144500000Y-122000000D01*
X144500000Y-122000000D02*
X146289200Y-123789200D01*
X146289200Y-123789200D02*
X146289200Y-124300000D01*
X108219840Y-140500000D02*
X108219840Y-136780160D01*
X133000000Y-122000000D02*
X137000000Y-122000000D01*
X130500000Y-124500000D02*
X133000000Y-122000000D01*
X121000000Y-134000000D02*
X130500000Y-124500000D01*
X111000000Y-134000000D02*
X121000000Y-134000000D01*
X108219840Y-136780160D02*
X111000000Y-134000000D01*
X116280160Y-145219840D02*
X116280160Y-145000000D01*
X179309200Y-124300000D02*
X179300000Y-124300000D01*
X179300000Y-124300000D02*
X177000000Y-122000000D01*
X177000000Y-122000000D02*
X148000000Y-122000000D01*
X117500000Y-121500000D02*
X117000000Y-122000000D01*
X117000000Y-122000000D02*
X117000000Y-123030000D01*
X117000000Y-123030000D02*
X116586000Y-123444000D01*
X116586000Y-123444000D02*
X116586000Y-124968000D01*
X103150000Y-134594000D02*
X103150000Y-140500000D01*
X106172000Y-131572000D02*
X103150000Y-134594000D01*
X109982000Y-131572000D02*
X106172000Y-131572000D01*
X116586000Y-124968000D02*
X109982000Y-131572000D01*
X118872000Y-127254000D02*
X119126000Y-127000000D01*
X119126000Y-123444000D02*
X119126000Y-127000000D01*
X178500000Y-151500000D02*
X179500000Y-150500000D01*
X103494000Y-151500000D02*
X101600000Y-149606000D01*
X101600000Y-149606000D02*
X101092000Y-149606000D01*
X101092000Y-149606000D02*
X98806000Y-147320000D01*
X98806000Y-147320000D02*
X98806000Y-146304000D01*
X98806000Y-146304000D02*
X97028000Y-144526000D01*
X97028000Y-144526000D02*
X95758000Y-144526000D01*
X95123000Y-145161000D02*
X95758000Y-144526000D01*
X178500000Y-151500000D02*
X103494000Y-151500000D01*
X179500000Y-150500000D02*
X179500000Y-149713000D01*
X179500000Y-149713000D02*
X179410800Y-149623800D01*
X90400000Y-137459840D02*
X90400000Y-140438000D01*
X90400000Y-140438000D02*
X95123000Y-145161000D01*
X95460000Y-145498000D02*
X95460000Y-151000000D01*
X95123000Y-145161000D02*
X95460000Y-145498000D01*
X90500000Y-139000000D02*
X90500000Y-137559840D01*
X90500000Y-137559840D02*
X90400000Y-137459840D01*
X90500000Y-139000000D02*
X90400000Y-138900000D01*
X149500000Y-147000000D02*
X157500000Y-147000000D01*
X159090800Y-148590800D02*
X159090800Y-149623800D01*
X157500000Y-147000000D02*
X159090800Y-148590800D01*
X149500000Y-147000000D02*
X119500000Y-147000000D01*
X119500000Y-147000000D02*
X101500000Y-147000000D01*
X93500000Y-137000000D02*
X93500000Y-131500000D01*
X95500000Y-139000000D02*
X93500000Y-137000000D01*
X95500000Y-141000000D02*
X95500000Y-139000000D01*
X101500000Y-147000000D02*
X95500000Y-141000000D01*
X169500000Y-145000000D02*
X171500000Y-145000000D01*
X174330800Y-147830800D02*
X174330800Y-149623800D01*
X171500000Y-145000000D02*
X174330800Y-147830800D01*
X125500000Y-145000000D02*
X151000000Y-145000000D01*
X151000000Y-145000000D02*
X169500000Y-145000000D01*
X98000000Y-151000000D02*
X98000000Y-149000000D01*
X102000000Y-148500000D02*
X120500000Y-148500000D01*
X90400000Y-129850000D02*
X92650000Y-129850000D01*
X92650000Y-129850000D02*
X93500000Y-129000000D01*
D16*
X163270000Y-115820000D02*
X162500000Y-115050000D01*
X162500000Y-115050000D02*
X162500000Y-112550000D01*
X162500000Y-112550000D02*
X164000000Y-111050000D01*
X164000000Y-111050000D02*
X168000000Y-111050000D01*
X168000000Y-111050000D02*
X171190000Y-107860000D01*
X171190000Y-107860000D02*
X171190000Y-106050000D01*
X164690000Y-115820000D02*
X163270000Y-115820000D01*
X115120000Y-116270000D02*
X114350000Y-115500000D01*
X114350000Y-115500000D02*
X114350000Y-113000000D01*
X114350000Y-113000000D02*
X115850000Y-111500000D01*
X115850000Y-111500000D02*
X119850000Y-111500000D01*
X119850000Y-111500000D02*
X123040000Y-108310000D01*
X123040000Y-108310000D02*
X123040000Y-106500000D01*
X116540000Y-116270000D02*
X115120000Y-116270000D01*
X89940000Y-116370000D02*
X88520000Y-116370000D01*
X96440000Y-108410000D02*
X96440000Y-106600000D01*
X93250000Y-111600000D02*
X96440000Y-108410000D01*
X89250000Y-111600000D02*
X93250000Y-111600000D01*
X87750000Y-113100000D02*
X89250000Y-111600000D01*
X87750000Y-115600000D02*
X87750000Y-113100000D01*
X88520000Y-116370000D02*
X87750000Y-115600000D01*
X172310000Y-110240000D02*
X173719840Y-108830160D01*
X173719840Y-108830160D02*
X173719840Y-106050000D01*
X172310000Y-113280000D02*
X172310000Y-110240000D01*
X124160000Y-110690000D02*
X125569840Y-109280160D01*
X125569840Y-109280160D02*
X125569840Y-106500000D01*
X124160000Y-113730000D02*
X124160000Y-110690000D01*
X97560000Y-113830000D02*
X97560000Y-110790000D01*
X98969840Y-109380160D02*
X98969840Y-106600000D01*
X97560000Y-110790000D02*
X98969840Y-109380160D01*
D17*
G36*
X185423000Y-152423000D02*
X178520109Y-152423000D01*
X178854748Y-152356436D01*
X179155488Y-152155488D01*
X180155488Y-151155488D01*
X180356437Y-150854747D01*
X180427000Y-150500000D01*
X180427000Y-150482278D01*
X180533849Y-150375616D01*
X180730749Y-149901426D01*
X180972649Y-149901426D01*
X181280591Y-150646703D01*
X181850298Y-151217405D01*
X182595036Y-151526647D01*
X183401426Y-151527351D01*
X184146703Y-151219409D01*
X184717405Y-150649702D01*
X185026647Y-149904964D01*
X185027351Y-149098574D01*
X184719409Y-148353297D01*
X184149702Y-147782595D01*
X183404964Y-147473353D01*
X182598574Y-147472649D01*
X181853297Y-147780591D01*
X181282595Y-148350298D01*
X180973353Y-149095036D01*
X180972649Y-149901426D01*
X180730749Y-149901426D01*
X180736069Y-149888615D01*
X180736530Y-149361298D01*
X180535159Y-148873946D01*
X180162616Y-148500751D01*
X179675615Y-148298531D01*
X179148298Y-148298070D01*
X178660946Y-148499441D01*
X178287751Y-148871984D01*
X178085531Y-149358985D01*
X178085070Y-149886302D01*
X178286441Y-150373654D01*
X178300893Y-150388131D01*
X178116024Y-150573000D01*
X175256120Y-150573000D01*
X175453849Y-150375616D01*
X175656069Y-149888615D01*
X175656530Y-149361298D01*
X175455159Y-148873946D01*
X175257800Y-148676242D01*
X175257800Y-147830800D01*
X175187237Y-147476053D01*
X174986288Y-147175312D01*
X172155488Y-144344512D01*
X171854748Y-144143564D01*
X171500000Y-144073000D01*
X125500000Y-144073000D01*
X125145252Y-144143564D01*
X124844512Y-144344512D01*
X124643564Y-144645252D01*
X124573000Y-145000000D01*
X124643564Y-145354748D01*
X124844512Y-145655488D01*
X125145252Y-145856436D01*
X125500000Y-145927000D01*
X171116024Y-145927000D01*
X173403800Y-148214776D01*
X173403800Y-148676278D01*
X173207751Y-148871984D01*
X173060688Y-149226151D01*
X172915159Y-148873946D01*
X172542616Y-148500751D01*
X172055615Y-148298531D01*
X171528298Y-148298070D01*
X171040946Y-148499441D01*
X170667751Y-148871984D01*
X170520688Y-149226151D01*
X170375159Y-148873946D01*
X170002616Y-148500751D01*
X169515615Y-148298531D01*
X168988298Y-148298070D01*
X168500946Y-148499441D01*
X168127751Y-148871984D01*
X167980688Y-149226151D01*
X167835159Y-148873946D01*
X167462616Y-148500751D01*
X166975615Y-148298531D01*
X166448298Y-148298070D01*
X165960946Y-148499441D01*
X165587751Y-148871984D01*
X165440688Y-149226151D01*
X165295159Y-148873946D01*
X164922616Y-148500751D01*
X164435615Y-148298531D01*
X163908298Y-148298070D01*
X163420946Y-148499441D01*
X163047751Y-148871984D01*
X162900688Y-149226151D01*
X162755159Y-148873946D01*
X162382616Y-148500751D01*
X161895615Y-148298531D01*
X161368298Y-148298070D01*
X160880946Y-148499441D01*
X160507751Y-148871984D01*
X160360688Y-149226151D01*
X160215159Y-148873946D01*
X160017800Y-148676242D01*
X160017800Y-148590800D01*
X159947236Y-148236052D01*
X159746288Y-147935312D01*
X158155488Y-146344512D01*
X158094857Y-146304000D01*
X157854748Y-146143564D01*
X157500000Y-146073000D01*
X117225132Y-146073000D01*
X117489207Y-145809386D01*
X117706912Y-145285093D01*
X117707408Y-144717397D01*
X117490617Y-144192725D01*
X117089546Y-143790953D01*
X116565253Y-143573248D01*
X115997557Y-143572752D01*
X115472885Y-143789543D01*
X115071113Y-144190614D01*
X114853408Y-144714907D01*
X114852912Y-145282603D01*
X115069703Y-145807275D01*
X115334964Y-146073000D01*
X101883976Y-146073000D01*
X96427000Y-140616024D01*
X96427000Y-139000000D01*
X96356436Y-138645252D01*
X96155488Y-138344512D01*
X94427000Y-136616024D01*
X94427000Y-131500000D01*
X94356436Y-131145252D01*
X94155488Y-130844512D01*
X93854748Y-130643564D01*
X93500000Y-130573000D01*
X93145252Y-130643564D01*
X92844512Y-130844512D01*
X92643564Y-131145252D01*
X92573000Y-131500000D01*
X92573000Y-137000000D01*
X92643564Y-137354748D01*
X92780602Y-137559840D01*
X92844512Y-137655488D01*
X94573000Y-139383976D01*
X94573000Y-141000000D01*
X94643564Y-141354748D01*
X94844512Y-141655488D01*
X96788024Y-143599000D01*
X95758000Y-143599000D01*
X95403253Y-143669563D01*
X95127075Y-143854099D01*
X91327000Y-140054024D01*
X91327000Y-139398802D01*
X91356436Y-139354748D01*
X91427000Y-139000000D01*
X91427000Y-138450955D01*
X91609047Y-138269226D01*
X91826752Y-137744933D01*
X91827248Y-137177237D01*
X91610457Y-136652565D01*
X91209386Y-136250793D01*
X90685093Y-136033088D01*
X90117397Y-136032592D01*
X89592725Y-136249383D01*
X89190953Y-136650454D01*
X88973248Y-137174747D01*
X88972752Y-137742443D01*
X89189543Y-138267115D01*
X89473000Y-138551067D01*
X89473000Y-140438000D01*
X89543564Y-140792748D01*
X89744512Y-141093488D01*
X94533000Y-145881976D01*
X94533000Y-149909059D01*
X94250953Y-150190614D01*
X94033248Y-150714907D01*
X94032752Y-151282603D01*
X94249543Y-151807275D01*
X94650614Y-152209047D01*
X95165871Y-152423000D01*
X86577000Y-152423000D01*
X86577000Y-149401426D01*
X87972649Y-149401426D01*
X88280591Y-150146703D01*
X88850298Y-150717405D01*
X89595036Y-151026647D01*
X90401426Y-151027351D01*
X91146703Y-150719409D01*
X91717405Y-150149702D01*
X92026647Y-149404964D01*
X92027351Y-148598574D01*
X91719409Y-147853297D01*
X91149702Y-147282595D01*
X90404964Y-146973353D01*
X89598574Y-146972649D01*
X88853297Y-147280591D01*
X88282595Y-147850298D01*
X87973353Y-148595036D01*
X87972649Y-149401426D01*
X86577000Y-149401426D01*
X86577000Y-126901426D01*
X87972649Y-126901426D01*
X88280591Y-127646703D01*
X88850298Y-128217405D01*
X89595036Y-128526647D01*
X89865382Y-128526883D01*
X89592725Y-128639543D01*
X89190953Y-129040614D01*
X88973248Y-129564907D01*
X88972752Y-130132603D01*
X89189543Y-130657275D01*
X89590614Y-131059047D01*
X89737118Y-131119881D01*
X89592725Y-131179543D01*
X89190953Y-131580614D01*
X88973248Y-132104907D01*
X88972752Y-132672603D01*
X89189543Y-133197275D01*
X89590614Y-133599047D01*
X90114907Y-133816752D01*
X90682603Y-133817248D01*
X91207275Y-133600457D01*
X91609047Y-133199386D01*
X91826752Y-132675093D01*
X91827248Y-132107397D01*
X91610457Y-131582725D01*
X91209386Y-131180953D01*
X91062882Y-131120119D01*
X91207275Y-131060457D01*
X91491227Y-130777000D01*
X92650000Y-130777000D01*
X93004748Y-130706436D01*
X93305488Y-130505488D01*
X94155488Y-129655488D01*
X94356437Y-129354747D01*
X94427000Y-129000000D01*
X94356437Y-128645253D01*
X94155488Y-128344512D01*
X93854747Y-128143563D01*
X93500000Y-128073000D01*
X93145253Y-128143563D01*
X92844512Y-128344512D01*
X92266024Y-128923000D01*
X91490941Y-128923000D01*
X91209386Y-128640953D01*
X90685093Y-128423248D01*
X90653442Y-128423220D01*
X91146703Y-128219409D01*
X91717405Y-127649702D01*
X92026647Y-126904964D01*
X92027351Y-126098574D01*
X91719409Y-125353297D01*
X91149702Y-124782595D01*
X90404964Y-124473353D01*
X89598574Y-124472649D01*
X88853297Y-124780591D01*
X88282595Y-125350298D01*
X87973353Y-126095036D01*
X87972649Y-126901426D01*
X86577000Y-126901426D01*
X86577000Y-120646946D01*
X117144768Y-120643887D01*
X116844512Y-120844512D01*
X116344512Y-121344512D01*
X116143564Y-121645252D01*
X116073000Y-122000000D01*
X116073000Y-122111951D01*
X115778725Y-122233543D01*
X115376953Y-122634614D01*
X115159248Y-123158907D01*
X115158752Y-123726603D01*
X115375543Y-124251275D01*
X115659000Y-124535227D01*
X115659000Y-124584024D01*
X109598024Y-130645000D01*
X106172000Y-130645000D01*
X105817252Y-130715564D01*
X105725307Y-130777000D01*
X105516512Y-130916512D01*
X102494512Y-133938512D01*
X102293564Y-134239252D01*
X102223000Y-134594000D01*
X102223000Y-139409059D01*
X101940953Y-139690614D01*
X101723248Y-140214907D01*
X101722752Y-140782603D01*
X101939543Y-141307275D01*
X102340614Y-141709047D01*
X102864907Y-141926752D01*
X103432603Y-141927248D01*
X103957275Y-141710457D01*
X104359047Y-141309386D01*
X104576752Y-140785093D01*
X104576754Y-140782603D01*
X106792592Y-140782603D01*
X107009383Y-141307275D01*
X107410454Y-141709047D01*
X107934747Y-141926752D01*
X108502443Y-141927248D01*
X109027115Y-141710457D01*
X109428887Y-141309386D01*
X109489721Y-141162882D01*
X109549383Y-141307275D01*
X109950454Y-141709047D01*
X110474747Y-141926752D01*
X111042443Y-141927248D01*
X111567115Y-141710457D01*
X111968887Y-141309386D01*
X112186592Y-140785093D01*
X112187088Y-140217397D01*
X111970297Y-139692725D01*
X111686840Y-139408773D01*
X111686840Y-137624136D01*
X112383976Y-136927000D01*
X122000000Y-136927000D01*
X122354748Y-136856436D01*
X122655488Y-136655488D01*
X133883976Y-125427000D01*
X134000000Y-125427000D01*
X134354748Y-125356436D01*
X134548463Y-125227000D01*
X142801678Y-125227000D01*
X142997384Y-125423049D01*
X143484385Y-125625269D01*
X144011702Y-125625730D01*
X144499054Y-125424359D01*
X144872249Y-125051816D01*
X145019312Y-124697649D01*
X145164841Y-125049854D01*
X145537384Y-125423049D01*
X146024385Y-125625269D01*
X146551702Y-125625730D01*
X147039054Y-125424359D01*
X147412249Y-125051816D01*
X147559312Y-124697649D01*
X147704841Y-125049854D01*
X148077384Y-125423049D01*
X148564385Y-125625269D01*
X149091702Y-125625730D01*
X149579054Y-125424359D01*
X149952249Y-125051816D01*
X150099312Y-124697649D01*
X150244841Y-125049854D01*
X150617384Y-125423049D01*
X151104385Y-125625269D01*
X151631702Y-125625730D01*
X152119054Y-125424359D01*
X152492249Y-125051816D01*
X152639312Y-124697649D01*
X152784841Y-125049854D01*
X153157384Y-125423049D01*
X153644385Y-125625269D01*
X154171702Y-125625730D01*
X154659054Y-125424359D01*
X155032249Y-125051816D01*
X155179312Y-124697649D01*
X155324841Y-125049854D01*
X155697384Y-125423049D01*
X156184385Y-125625269D01*
X156711702Y-125625730D01*
X157199054Y-125424359D01*
X157572249Y-125051816D01*
X157719312Y-124697649D01*
X157864841Y-125049854D01*
X158237384Y-125423049D01*
X158724385Y-125625269D01*
X159251702Y-125625730D01*
X159739054Y-125424359D01*
X160112249Y-125051816D01*
X160259312Y-124697649D01*
X160404841Y-125049854D01*
X160777384Y-125423049D01*
X161264385Y-125625269D01*
X161791702Y-125625730D01*
X162279054Y-125424359D01*
X162652249Y-125051816D01*
X162799312Y-124697649D01*
X162944841Y-125049854D01*
X163317384Y-125423049D01*
X163804385Y-125625269D01*
X164331702Y-125625730D01*
X164819054Y-125424359D01*
X165192249Y-125051816D01*
X165339312Y-124697649D01*
X165484841Y-125049854D01*
X165857384Y-125423049D01*
X166344385Y-125625269D01*
X166871702Y-125625730D01*
X167359054Y-125424359D01*
X167732249Y-125051816D01*
X167879312Y-124697649D01*
X168024841Y-125049854D01*
X168397384Y-125423049D01*
X168884385Y-125625269D01*
X169411702Y-125625730D01*
X169899054Y-125424359D01*
X170272249Y-125051816D01*
X170408791Y-124722986D01*
X170564841Y-125100654D01*
X170937384Y-125473849D01*
X171424385Y-125676069D01*
X171951702Y-125676530D01*
X172439054Y-125475159D01*
X172812249Y-125102616D01*
X172969833Y-124723111D01*
X173104841Y-125049854D01*
X173477384Y-125423049D01*
X173964385Y-125625269D01*
X174491702Y-125625730D01*
X174979054Y-125424359D01*
X175352249Y-125051816D01*
X175554469Y-124564815D01*
X175554930Y-124037498D01*
X175353559Y-123550146D01*
X174981016Y-123176951D01*
X174494015Y-122974731D01*
X173966698Y-122974270D01*
X173479346Y-123175641D01*
X173106151Y-123548184D01*
X172948567Y-123927689D01*
X172813559Y-123600946D01*
X172441016Y-123227751D01*
X171954015Y-123025531D01*
X171426698Y-123025070D01*
X170939346Y-123226441D01*
X170566151Y-123598984D01*
X170429609Y-123927814D01*
X170273559Y-123550146D01*
X169901016Y-123176951D01*
X169414015Y-122974731D01*
X168886698Y-122974270D01*
X168399346Y-123175641D01*
X168026151Y-123548184D01*
X167879088Y-123902351D01*
X167733559Y-123550146D01*
X167361016Y-123176951D01*
X166874015Y-122974731D01*
X166346698Y-122974270D01*
X165859346Y-123175641D01*
X165486151Y-123548184D01*
X165339088Y-123902351D01*
X165193559Y-123550146D01*
X164821016Y-123176951D01*
X164334015Y-122974731D01*
X163806698Y-122974270D01*
X163319346Y-123175641D01*
X162946151Y-123548184D01*
X162799088Y-123902351D01*
X162653559Y-123550146D01*
X162281016Y-123176951D01*
X161794015Y-122974731D01*
X161266698Y-122974270D01*
X160779346Y-123175641D01*
X160406151Y-123548184D01*
X160259088Y-123902351D01*
X160113559Y-123550146D01*
X159741016Y-123176951D01*
X159254015Y-122974731D01*
X158726698Y-122974270D01*
X158239346Y-123175641D01*
X157866151Y-123548184D01*
X157719088Y-123902351D01*
X157573559Y-123550146D01*
X157201016Y-123176951D01*
X156714015Y-122974731D01*
X156186698Y-122974270D01*
X155699346Y-123175641D01*
X155326151Y-123548184D01*
X155179088Y-123902351D01*
X155033559Y-123550146D01*
X154661016Y-123176951D01*
X154174015Y-122974731D01*
X153646698Y-122974270D01*
X153159346Y-123175641D01*
X152786151Y-123548184D01*
X152639088Y-123902351D01*
X152493559Y-123550146D01*
X152121016Y-123176951D01*
X151634015Y-122974731D01*
X151106698Y-122974270D01*
X150619346Y-123175641D01*
X150246151Y-123548184D01*
X150099088Y-123902351D01*
X149953559Y-123550146D01*
X149581016Y-123176951D01*
X149094015Y-122974731D01*
X148566698Y-122974270D01*
X148079346Y-123175641D01*
X147706151Y-123548184D01*
X147559088Y-123902351D01*
X147413559Y-123550146D01*
X147041016Y-123176951D01*
X146947684Y-123138196D01*
X146944688Y-123133712D01*
X145810976Y-122000000D01*
X147073000Y-122000000D01*
X147143564Y-122354748D01*
X147344512Y-122655488D01*
X147645252Y-122856436D01*
X148000000Y-122927000D01*
X176616024Y-122927000D01*
X177983704Y-124294680D01*
X177983470Y-124562502D01*
X178184841Y-125049854D01*
X178557384Y-125423049D01*
X179044385Y-125625269D01*
X179571702Y-125625730D01*
X180059054Y-125424359D01*
X180082027Y-125401426D01*
X180972649Y-125401426D01*
X181280591Y-126146703D01*
X181850298Y-126717405D01*
X182595036Y-127026647D01*
X183401426Y-127027351D01*
X184146703Y-126719409D01*
X184717405Y-126149702D01*
X185026647Y-125404964D01*
X185027351Y-124598574D01*
X184719409Y-123853297D01*
X184149702Y-123282595D01*
X183404964Y-122973353D01*
X182598574Y-122972649D01*
X181853297Y-123280591D01*
X181282595Y-123850298D01*
X180973353Y-124595036D01*
X180972649Y-125401426D01*
X180082027Y-125401426D01*
X180432249Y-125051816D01*
X180634469Y-124564815D01*
X180634930Y-124037498D01*
X180433559Y-123550146D01*
X180061016Y-123176951D01*
X179574015Y-122974731D01*
X179285455Y-122974479D01*
X177655488Y-121344512D01*
X177625970Y-121324789D01*
X177354748Y-121143564D01*
X177000000Y-121073000D01*
X148000000Y-121073000D01*
X147645252Y-121143564D01*
X147344512Y-121344512D01*
X147143564Y-121645252D01*
X147073000Y-122000000D01*
X145810976Y-122000000D01*
X145155488Y-121344512D01*
X145125970Y-121324789D01*
X144854748Y-121143564D01*
X144500000Y-121073000D01*
X133000000Y-121073000D01*
X132645252Y-121143564D01*
X132374030Y-121324789D01*
X132344512Y-121344512D01*
X120616024Y-133073000D01*
X111000000Y-133073000D01*
X110645252Y-133143564D01*
X110344512Y-133344512D01*
X107564352Y-136124672D01*
X107363404Y-136425412D01*
X107292840Y-136780160D01*
X107292840Y-139409059D01*
X107010793Y-139690614D01*
X106793088Y-140214907D01*
X106792592Y-140782603D01*
X104576754Y-140782603D01*
X104577248Y-140217397D01*
X104360457Y-139692725D01*
X104077000Y-139408773D01*
X104077000Y-134977976D01*
X106555976Y-132499000D01*
X109982000Y-132499000D01*
X110336748Y-132428436D01*
X110637488Y-132227488D01*
X117241488Y-125623488D01*
X117340598Y-125475159D01*
X117442436Y-125322748D01*
X117513000Y-124968000D01*
X117513000Y-124534941D01*
X117795047Y-124253386D01*
X117855881Y-124106882D01*
X117915543Y-124251275D01*
X118199000Y-124535227D01*
X118199000Y-126624721D01*
X118015564Y-126899253D01*
X117945000Y-127254000D01*
X118015564Y-127608747D01*
X118216512Y-127909488D01*
X118517253Y-128110436D01*
X118872000Y-128181000D01*
X119226747Y-128110436D01*
X119527488Y-127909488D01*
X119781488Y-127655488D01*
X119932681Y-127429211D01*
X119982436Y-127354748D01*
X120053000Y-127000000D01*
X120053000Y-124534941D01*
X120335047Y-124253386D01*
X120552752Y-123729093D01*
X120553248Y-123161397D01*
X120336457Y-122636725D01*
X119935386Y-122234953D01*
X119411093Y-122017248D01*
X118843397Y-122016752D01*
X118318725Y-122233543D01*
X117927000Y-122624585D01*
X117927000Y-122383976D01*
X118155488Y-122155488D01*
X118356437Y-121854747D01*
X118427000Y-121500000D01*
X118356437Y-121145253D01*
X118155488Y-120844512D01*
X117855126Y-120643816D01*
X185423000Y-120637055D01*
X185423000Y-152423000D01*
X185423000Y-152423000D01*
G37*
X185423000Y-152423000D02*
X178520109Y-152423000D01*
X178854748Y-152356436D01*
X179155488Y-152155488D01*
X180155488Y-151155488D01*
X180356437Y-150854747D01*
X180427000Y-150500000D01*
X180427000Y-150482278D01*
X180533849Y-150375616D01*
X180730749Y-149901426D01*
X180972649Y-149901426D01*
X181280591Y-150646703D01*
X181850298Y-151217405D01*
X182595036Y-151526647D01*
X183401426Y-151527351D01*
X184146703Y-151219409D01*
X184717405Y-150649702D01*
X185026647Y-149904964D01*
X185027351Y-149098574D01*
X184719409Y-148353297D01*
X184149702Y-147782595D01*
X183404964Y-147473353D01*
X182598574Y-147472649D01*
X181853297Y-147780591D01*
X181282595Y-148350298D01*
X180973353Y-149095036D01*
X180972649Y-149901426D01*
X180730749Y-149901426D01*
X180736069Y-149888615D01*
X180736530Y-149361298D01*
X180535159Y-148873946D01*
X180162616Y-148500751D01*
X179675615Y-148298531D01*
X179148298Y-148298070D01*
X178660946Y-148499441D01*
X178287751Y-148871984D01*
X178085531Y-149358985D01*
X178085070Y-149886302D01*
X178286441Y-150373654D01*
X178300893Y-150388131D01*
X178116024Y-150573000D01*
X175256120Y-150573000D01*
X175453849Y-150375616D01*
X175656069Y-149888615D01*
X175656530Y-149361298D01*
X175455159Y-148873946D01*
X175257800Y-148676242D01*
X175257800Y-147830800D01*
X175187237Y-147476053D01*
X174986288Y-147175312D01*
X172155488Y-144344512D01*
X171854748Y-144143564D01*
X171500000Y-144073000D01*
X125500000Y-144073000D01*
X125145252Y-144143564D01*
X124844512Y-144344512D01*
X124643564Y-144645252D01*
X124573000Y-145000000D01*
X124643564Y-145354748D01*
X124844512Y-145655488D01*
X125145252Y-145856436D01*
X125500000Y-145927000D01*
X171116024Y-145927000D01*
X173403800Y-148214776D01*
X173403800Y-148676278D01*
X173207751Y-148871984D01*
X173060688Y-149226151D01*
X172915159Y-148873946D01*
X172542616Y-148500751D01*
X172055615Y-148298531D01*
X171528298Y-148298070D01*
X171040946Y-148499441D01*
X170667751Y-148871984D01*
X170520688Y-149226151D01*
X170375159Y-148873946D01*
X170002616Y-148500751D01*
X169515615Y-148298531D01*
X168988298Y-148298070D01*
X168500946Y-148499441D01*
X168127751Y-148871984D01*
X167980688Y-149226151D01*
X167835159Y-148873946D01*
X167462616Y-148500751D01*
X166975615Y-148298531D01*
X166448298Y-148298070D01*
X165960946Y-148499441D01*
X165587751Y-148871984D01*
X165440688Y-149226151D01*
X165295159Y-148873946D01*
X164922616Y-148500751D01*
X164435615Y-148298531D01*
X163908298Y-148298070D01*
X163420946Y-148499441D01*
X163047751Y-148871984D01*
X162900688Y-149226151D01*
X162755159Y-148873946D01*
X162382616Y-148500751D01*
X161895615Y-148298531D01*
X161368298Y-148298070D01*
X160880946Y-148499441D01*
X160507751Y-148871984D01*
X160360688Y-149226151D01*
X160215159Y-148873946D01*
X160017800Y-148676242D01*
X160017800Y-148590800D01*
X159947236Y-148236052D01*
X159746288Y-147935312D01*
X158155488Y-146344512D01*
X158094857Y-146304000D01*
X157854748Y-146143564D01*
X157500000Y-146073000D01*
X117225132Y-146073000D01*
X117489207Y-145809386D01*
X117706912Y-145285093D01*
X117707408Y-144717397D01*
X117490617Y-144192725D01*
X117089546Y-143790953D01*
X116565253Y-143573248D01*
X115997557Y-143572752D01*
X115472885Y-143789543D01*
X115071113Y-144190614D01*
X114853408Y-144714907D01*
X114852912Y-145282603D01*
X115069703Y-145807275D01*
X115334964Y-146073000D01*
X101883976Y-146073000D01*
X96427000Y-140616024D01*
X96427000Y-139000000D01*
X96356436Y-138645252D01*
X96155488Y-138344512D01*
X94427000Y-136616024D01*
X94427000Y-131500000D01*
X94356436Y-131145252D01*
X94155488Y-130844512D01*
X93854748Y-130643564D01*
X93500000Y-130573000D01*
X93145252Y-130643564D01*
X92844512Y-130844512D01*
X92643564Y-131145252D01*
X92573000Y-131500000D01*
X92573000Y-137000000D01*
X92643564Y-137354748D01*
X92780602Y-137559840D01*
X92844512Y-137655488D01*
X94573000Y-139383976D01*
X94573000Y-141000000D01*
X94643564Y-141354748D01*
X94844512Y-141655488D01*
X96788024Y-143599000D01*
X95758000Y-143599000D01*
X95403253Y-143669563D01*
X95127075Y-143854099D01*
X91327000Y-140054024D01*
X91327000Y-139398802D01*
X91356436Y-139354748D01*
X91427000Y-139000000D01*
X91427000Y-138450955D01*
X91609047Y-138269226D01*
X91826752Y-137744933D01*
X91827248Y-137177237D01*
X91610457Y-136652565D01*
X91209386Y-136250793D01*
X90685093Y-136033088D01*
X90117397Y-136032592D01*
X89592725Y-136249383D01*
X89190953Y-136650454D01*
X88973248Y-137174747D01*
X88972752Y-137742443D01*
X89189543Y-138267115D01*
X89473000Y-138551067D01*
X89473000Y-140438000D01*
X89543564Y-140792748D01*
X89744512Y-141093488D01*
X94533000Y-145881976D01*
X94533000Y-149909059D01*
X94250953Y-150190614D01*
X94033248Y-150714907D01*
X94032752Y-151282603D01*
X94249543Y-151807275D01*
X94650614Y-152209047D01*
X95165871Y-152423000D01*
X86577000Y-152423000D01*
X86577000Y-149401426D01*
X87972649Y-149401426D01*
X88280591Y-150146703D01*
X88850298Y-150717405D01*
X89595036Y-151026647D01*
X90401426Y-151027351D01*
X91146703Y-150719409D01*
X91717405Y-150149702D01*
X92026647Y-149404964D01*
X92027351Y-148598574D01*
X91719409Y-147853297D01*
X91149702Y-147282595D01*
X90404964Y-146973353D01*
X89598574Y-146972649D01*
X88853297Y-147280591D01*
X88282595Y-147850298D01*
X87973353Y-148595036D01*
X87972649Y-149401426D01*
X86577000Y-149401426D01*
X86577000Y-126901426D01*
X87972649Y-126901426D01*
X88280591Y-127646703D01*
X88850298Y-128217405D01*
X89595036Y-128526647D01*
X89865382Y-128526883D01*
X89592725Y-128639543D01*
X89190953Y-129040614D01*
X88973248Y-129564907D01*
X88972752Y-130132603D01*
X89189543Y-130657275D01*
X89590614Y-131059047D01*
X89737118Y-131119881D01*
X89592725Y-131179543D01*
X89190953Y-131580614D01*
X88973248Y-132104907D01*
X88972752Y-132672603D01*
X89189543Y-133197275D01*
X89590614Y-133599047D01*
X90114907Y-133816752D01*
X90682603Y-133817248D01*
X91207275Y-133600457D01*
X91609047Y-133199386D01*
X91826752Y-132675093D01*
X91827248Y-132107397D01*
X91610457Y-131582725D01*
X91209386Y-131180953D01*
X91062882Y-131120119D01*
X91207275Y-131060457D01*
X91491227Y-130777000D01*
X92650000Y-130777000D01*
X93004748Y-130706436D01*
X93305488Y-130505488D01*
X94155488Y-129655488D01*
X94356437Y-129354747D01*
X94427000Y-129000000D01*
X94356437Y-128645253D01*
X94155488Y-128344512D01*
X93854747Y-128143563D01*
X93500000Y-128073000D01*
X93145253Y-128143563D01*
X92844512Y-128344512D01*
X92266024Y-128923000D01*
X91490941Y-128923000D01*
X91209386Y-128640953D01*
X90685093Y-128423248D01*
X90653442Y-128423220D01*
X91146703Y-128219409D01*
X91717405Y-127649702D01*
X92026647Y-126904964D01*
X92027351Y-126098574D01*
X91719409Y-125353297D01*
X91149702Y-124782595D01*
X90404964Y-124473353D01*
X89598574Y-124472649D01*
X88853297Y-124780591D01*
X88282595Y-125350298D01*
X87973353Y-126095036D01*
X87972649Y-126901426D01*
X86577000Y-126901426D01*
X86577000Y-120646946D01*
X117144768Y-120643887D01*
X116844512Y-120844512D01*
X116344512Y-121344512D01*
X116143564Y-121645252D01*
X116073000Y-122000000D01*
X116073000Y-122111951D01*
X115778725Y-122233543D01*
X115376953Y-122634614D01*
X115159248Y-123158907D01*
X115158752Y-123726603D01*
X115375543Y-124251275D01*
X115659000Y-124535227D01*
X115659000Y-124584024D01*
X109598024Y-130645000D01*
X106172000Y-130645000D01*
X105817252Y-130715564D01*
X105725307Y-130777000D01*
X105516512Y-130916512D01*
X102494512Y-133938512D01*
X102293564Y-134239252D01*
X102223000Y-134594000D01*
X102223000Y-139409059D01*
X101940953Y-139690614D01*
X101723248Y-140214907D01*
X101722752Y-140782603D01*
X101939543Y-141307275D01*
X102340614Y-141709047D01*
X102864907Y-141926752D01*
X103432603Y-141927248D01*
X103957275Y-141710457D01*
X104359047Y-141309386D01*
X104576752Y-140785093D01*
X104576754Y-140782603D01*
X106792592Y-140782603D01*
X107009383Y-141307275D01*
X107410454Y-141709047D01*
X107934747Y-141926752D01*
X108502443Y-141927248D01*
X109027115Y-141710457D01*
X109428887Y-141309386D01*
X109489721Y-141162882D01*
X109549383Y-141307275D01*
X109950454Y-141709047D01*
X110474747Y-141926752D01*
X111042443Y-141927248D01*
X111567115Y-141710457D01*
X111968887Y-141309386D01*
X112186592Y-140785093D01*
X112187088Y-140217397D01*
X111970297Y-139692725D01*
X111686840Y-139408773D01*
X111686840Y-137624136D01*
X112383976Y-136927000D01*
X122000000Y-136927000D01*
X122354748Y-136856436D01*
X122655488Y-136655488D01*
X133883976Y-125427000D01*
X134000000Y-125427000D01*
X134354748Y-125356436D01*
X134548463Y-125227000D01*
X142801678Y-125227000D01*
X142997384Y-125423049D01*
X143484385Y-125625269D01*
X144011702Y-125625730D01*
X144499054Y-125424359D01*
X144872249Y-125051816D01*
X145019312Y-124697649D01*
X145164841Y-125049854D01*
X145537384Y-125423049D01*
X146024385Y-125625269D01*
X146551702Y-125625730D01*
X147039054Y-125424359D01*
X147412249Y-125051816D01*
X147559312Y-124697649D01*
X147704841Y-125049854D01*
X148077384Y-125423049D01*
X148564385Y-125625269D01*
X149091702Y-125625730D01*
X149579054Y-125424359D01*
X149952249Y-125051816D01*
X150099312Y-124697649D01*
X150244841Y-125049854D01*
X150617384Y-125423049D01*
X151104385Y-125625269D01*
X151631702Y-125625730D01*
X152119054Y-125424359D01*
X152492249Y-125051816D01*
X152639312Y-124697649D01*
X152784841Y-125049854D01*
X153157384Y-125423049D01*
X153644385Y-125625269D01*
X154171702Y-125625730D01*
X154659054Y-125424359D01*
X155032249Y-125051816D01*
X155179312Y-124697649D01*
X155324841Y-125049854D01*
X155697384Y-125423049D01*
X156184385Y-125625269D01*
X156711702Y-125625730D01*
X157199054Y-125424359D01*
X157572249Y-125051816D01*
X157719312Y-124697649D01*
X157864841Y-125049854D01*
X158237384Y-125423049D01*
X158724385Y-125625269D01*
X159251702Y-125625730D01*
X159739054Y-125424359D01*
X160112249Y-125051816D01*
X160259312Y-124697649D01*
X160404841Y-125049854D01*
X160777384Y-125423049D01*
X161264385Y-125625269D01*
X161791702Y-125625730D01*
X162279054Y-125424359D01*
X162652249Y-125051816D01*
X162799312Y-124697649D01*
X162944841Y-125049854D01*
X163317384Y-125423049D01*
X163804385Y-125625269D01*
X164331702Y-125625730D01*
X164819054Y-125424359D01*
X165192249Y-125051816D01*
X165339312Y-124697649D01*
X165484841Y-125049854D01*
X165857384Y-125423049D01*
X166344385Y-125625269D01*
X166871702Y-125625730D01*
X167359054Y-125424359D01*
X167732249Y-125051816D01*
X167879312Y-124697649D01*
X168024841Y-125049854D01*
X168397384Y-125423049D01*
X168884385Y-125625269D01*
X169411702Y-125625730D01*
X169899054Y-125424359D01*
X170272249Y-125051816D01*
X170408791Y-124722986D01*
X170564841Y-125100654D01*
X170937384Y-125473849D01*
X171424385Y-125676069D01*
X171951702Y-125676530D01*
X172439054Y-125475159D01*
X172812249Y-125102616D01*
X172969833Y-124723111D01*
X173104841Y-125049854D01*
X173477384Y-125423049D01*
X173964385Y-125625269D01*
X174491702Y-125625730D01*
X174979054Y-125424359D01*
X175352249Y-125051816D01*
X175554469Y-124564815D01*
X175554930Y-124037498D01*
X175353559Y-123550146D01*
X174981016Y-123176951D01*
X174494015Y-122974731D01*
X173966698Y-122974270D01*
X173479346Y-123175641D01*
X173106151Y-123548184D01*
X172948567Y-123927689D01*
X172813559Y-123600946D01*
X172441016Y-123227751D01*
X171954015Y-123025531D01*
X171426698Y-123025070D01*
X170939346Y-123226441D01*
X170566151Y-123598984D01*
X170429609Y-123927814D01*
X170273559Y-123550146D01*
X169901016Y-123176951D01*
X169414015Y-122974731D01*
X168886698Y-122974270D01*
X168399346Y-123175641D01*
X168026151Y-123548184D01*
X167879088Y-123902351D01*
X167733559Y-123550146D01*
X167361016Y-123176951D01*
X166874015Y-122974731D01*
X166346698Y-122974270D01*
X165859346Y-123175641D01*
X165486151Y-123548184D01*
X165339088Y-123902351D01*
X165193559Y-123550146D01*
X164821016Y-123176951D01*
X164334015Y-122974731D01*
X163806698Y-122974270D01*
X163319346Y-123175641D01*
X162946151Y-123548184D01*
X162799088Y-123902351D01*
X162653559Y-123550146D01*
X162281016Y-123176951D01*
X161794015Y-122974731D01*
X161266698Y-122974270D01*
X160779346Y-123175641D01*
X160406151Y-123548184D01*
X160259088Y-123902351D01*
X160113559Y-123550146D01*
X159741016Y-123176951D01*
X159254015Y-122974731D01*
X158726698Y-122974270D01*
X158239346Y-123175641D01*
X157866151Y-123548184D01*
X157719088Y-123902351D01*
X157573559Y-123550146D01*
X157201016Y-123176951D01*
X156714015Y-122974731D01*
X156186698Y-122974270D01*
X155699346Y-123175641D01*
X155326151Y-123548184D01*
X155179088Y-123902351D01*
X155033559Y-123550146D01*
X154661016Y-123176951D01*
X154174015Y-122974731D01*
X153646698Y-122974270D01*
X153159346Y-123175641D01*
X152786151Y-123548184D01*
X152639088Y-123902351D01*
X152493559Y-123550146D01*
X152121016Y-123176951D01*
X151634015Y-122974731D01*
X151106698Y-122974270D01*
X150619346Y-123175641D01*
X150246151Y-123548184D01*
X150099088Y-123902351D01*
X149953559Y-123550146D01*
X149581016Y-123176951D01*
X149094015Y-122974731D01*
X148566698Y-122974270D01*
X148079346Y-123175641D01*
X147706151Y-123548184D01*
X147559088Y-123902351D01*
X147413559Y-123550146D01*
X147041016Y-123176951D01*
X146947684Y-123138196D01*
X146944688Y-123133712D01*
X145810976Y-122000000D01*
X147073000Y-122000000D01*
X147143564Y-122354748D01*
X147344512Y-122655488D01*
X147645252Y-122856436D01*
X148000000Y-122927000D01*
X176616024Y-122927000D01*
X177983704Y-124294680D01*
X177983470Y-124562502D01*
X178184841Y-125049854D01*
X178557384Y-125423049D01*
X179044385Y-125625269D01*
X179571702Y-125625730D01*
X180059054Y-125424359D01*
X180082027Y-125401426D01*
X180972649Y-125401426D01*
X181280591Y-126146703D01*
X181850298Y-126717405D01*
X182595036Y-127026647D01*
X183401426Y-127027351D01*
X184146703Y-126719409D01*
X184717405Y-126149702D01*
X185026647Y-125404964D01*
X185027351Y-124598574D01*
X184719409Y-123853297D01*
X184149702Y-123282595D01*
X183404964Y-122973353D01*
X182598574Y-122972649D01*
X181853297Y-123280591D01*
X181282595Y-123850298D01*
X180973353Y-124595036D01*
X180972649Y-125401426D01*
X180082027Y-125401426D01*
X180432249Y-125051816D01*
X180634469Y-124564815D01*
X180634930Y-124037498D01*
X180433559Y-123550146D01*
X180061016Y-123176951D01*
X179574015Y-122974731D01*
X179285455Y-122974479D01*
X177655488Y-121344512D01*
X177625970Y-121324789D01*
X177354748Y-121143564D01*
X177000000Y-121073000D01*
X148000000Y-121073000D01*
X147645252Y-121143564D01*
X147344512Y-121344512D01*
X147143564Y-121645252D01*
X147073000Y-122000000D01*
X145810976Y-122000000D01*
X145155488Y-121344512D01*
X145125970Y-121324789D01*
X144854748Y-121143564D01*
X144500000Y-121073000D01*
X133000000Y-121073000D01*
X132645252Y-121143564D01*
X132374030Y-121324789D01*
X132344512Y-121344512D01*
X120616024Y-133073000D01*
X111000000Y-133073000D01*
X110645252Y-133143564D01*
X110344512Y-133344512D01*
X107564352Y-136124672D01*
X107363404Y-136425412D01*
X107292840Y-136780160D01*
X107292840Y-139409059D01*
X107010793Y-139690614D01*
X106793088Y-140214907D01*
X106792592Y-140782603D01*
X104576754Y-140782603D01*
X104577248Y-140217397D01*
X104360457Y-139692725D01*
X104077000Y-139408773D01*
X104077000Y-134977976D01*
X106555976Y-132499000D01*
X109982000Y-132499000D01*
X110336748Y-132428436D01*
X110637488Y-132227488D01*
X117241488Y-125623488D01*
X117340598Y-125475159D01*
X117442436Y-125322748D01*
X117513000Y-124968000D01*
X117513000Y-124534941D01*
X117795047Y-124253386D01*
X117855881Y-124106882D01*
X117915543Y-124251275D01*
X118199000Y-124535227D01*
X118199000Y-126624721D01*
X118015564Y-126899253D01*
X117945000Y-127254000D01*
X118015564Y-127608747D01*
X118216512Y-127909488D01*
X118517253Y-128110436D01*
X118872000Y-128181000D01*
X119226747Y-128110436D01*
X119527488Y-127909488D01*
X119781488Y-127655488D01*
X119932681Y-127429211D01*
X119982436Y-127354748D01*
X120053000Y-127000000D01*
X120053000Y-124534941D01*
X120335047Y-124253386D01*
X120552752Y-123729093D01*
X120553248Y-123161397D01*
X120336457Y-122636725D01*
X119935386Y-122234953D01*
X119411093Y-122017248D01*
X118843397Y-122016752D01*
X118318725Y-122233543D01*
X117927000Y-122624585D01*
X117927000Y-122383976D01*
X118155488Y-122155488D01*
X118356437Y-121854747D01*
X118427000Y-121500000D01*
X118356437Y-121145253D01*
X118155488Y-120844512D01*
X117855126Y-120643816D01*
X185423000Y-120637055D01*
X185423000Y-152423000D01*
G36*
X100436512Y-150261488D02*
X100737252Y-150462436D01*
X101092000Y-150533000D01*
X101216024Y-150533000D01*
X102838512Y-152155488D01*
X103139252Y-152356436D01*
X103473891Y-152423000D01*
X98292884Y-152423000D01*
X98807275Y-152210457D01*
X99209047Y-151809386D01*
X99426752Y-151285093D01*
X99427248Y-150717397D01*
X99210457Y-150192725D01*
X98927000Y-149908773D01*
X98927000Y-149000000D01*
X98865415Y-148690391D01*
X100436512Y-150261488D01*
X100436512Y-150261488D01*
G37*
X100436512Y-150261488D02*
X100737252Y-150462436D01*
X101092000Y-150533000D01*
X101216024Y-150533000D01*
X102838512Y-152155488D01*
X103139252Y-152356436D01*
X103473891Y-152423000D01*
X98292884Y-152423000D01*
X98807275Y-152210457D01*
X99209047Y-151809386D01*
X99426752Y-151285093D01*
X99427248Y-150717397D01*
X99210457Y-150192725D01*
X98927000Y-149908773D01*
X98927000Y-149000000D01*
X98865415Y-148690391D01*
X100436512Y-150261488D01*
G36*
X110593245Y-104236947D02*
X110622754Y-119473265D01*
X86916673Y-119522735D01*
X86900152Y-113100000D01*
X86923000Y-113100000D01*
X86923000Y-115600000D01*
X86985952Y-115916479D01*
X87165223Y-116184777D01*
X87935222Y-116954777D01*
X88203521Y-117134048D01*
X88520000Y-117197000D01*
X88749234Y-117197000D01*
X89130614Y-117579047D01*
X89654907Y-117796752D01*
X90222603Y-117797248D01*
X90747275Y-117580457D01*
X91149047Y-117179386D01*
X91209881Y-117032882D01*
X91269543Y-117177275D01*
X91670614Y-117579047D01*
X92194907Y-117796752D01*
X92762603Y-117797248D01*
X93287275Y-117580457D01*
X93689047Y-117179386D01*
X93749881Y-117032882D01*
X93809543Y-117177275D01*
X94210614Y-117579047D01*
X94734907Y-117796752D01*
X95302603Y-117797248D01*
X95827275Y-117580457D01*
X96229047Y-117179386D01*
X96446752Y-116655093D01*
X96447248Y-116087397D01*
X96230457Y-115562725D01*
X95829386Y-115160953D01*
X95682882Y-115100119D01*
X95827275Y-115040457D01*
X96229047Y-114639386D01*
X96289881Y-114492882D01*
X96349543Y-114637275D01*
X96750614Y-115039047D01*
X97274907Y-115256752D01*
X97842603Y-115257248D01*
X98367275Y-115040457D01*
X98769047Y-114639386D01*
X98986752Y-114115093D01*
X98987248Y-113547397D01*
X98770457Y-113022725D01*
X98387000Y-112638598D01*
X98387000Y-111132554D01*
X99554617Y-109964937D01*
X99733888Y-109696639D01*
X99772718Y-109501426D01*
X104722649Y-109501426D01*
X105030591Y-110246703D01*
X105600298Y-110817405D01*
X106345036Y-111126647D01*
X107151426Y-111127351D01*
X107896703Y-110819409D01*
X108467405Y-110249702D01*
X108776647Y-109504964D01*
X108777351Y-108698574D01*
X108469409Y-107953297D01*
X107899702Y-107382595D01*
X107154964Y-107073353D01*
X106348574Y-107072649D01*
X105603297Y-107380591D01*
X105032595Y-107950298D01*
X104723353Y-108695036D01*
X104722649Y-109501426D01*
X99772718Y-109501426D01*
X99796840Y-109380160D01*
X99796840Y-107790766D01*
X100178887Y-107409386D01*
X100396592Y-106885093D01*
X100397088Y-106317397D01*
X100180297Y-105792725D01*
X99779226Y-105390953D01*
X99254933Y-105173248D01*
X98687237Y-105172752D01*
X98162565Y-105389543D01*
X97760793Y-105790614D01*
X97705052Y-105924854D01*
X97650457Y-105792725D01*
X97249386Y-105390953D01*
X96725093Y-105173248D01*
X96157397Y-105172752D01*
X95632725Y-105389543D01*
X95230953Y-105790614D01*
X95170119Y-105937118D01*
X95110457Y-105792725D01*
X94709386Y-105390953D01*
X94185093Y-105173248D01*
X93617397Y-105172752D01*
X93092725Y-105389543D01*
X92690953Y-105790614D01*
X92473248Y-106314907D01*
X92472752Y-106882603D01*
X92689543Y-107407275D01*
X93090614Y-107809047D01*
X93614907Y-108026752D01*
X94182603Y-108027248D01*
X94707275Y-107810457D01*
X95109047Y-107409386D01*
X95169881Y-107262882D01*
X95229543Y-107407275D01*
X95613000Y-107791402D01*
X95613000Y-108067446D01*
X92907446Y-110773000D01*
X91943193Y-110773000D01*
X92467405Y-110249702D01*
X92776647Y-109504964D01*
X92777351Y-108698574D01*
X92469409Y-107953297D01*
X91899702Y-107382595D01*
X91154964Y-107073353D01*
X90348574Y-107072649D01*
X89603297Y-107380591D01*
X89032595Y-107950298D01*
X88723353Y-108695036D01*
X88722649Y-109501426D01*
X89030591Y-110246703D01*
X89555970Y-110773000D01*
X89250000Y-110773000D01*
X88933521Y-110835952D01*
X88665222Y-111015223D01*
X87165223Y-112515223D01*
X86985952Y-112783521D01*
X86923000Y-113100000D01*
X86900152Y-113100000D01*
X86877328Y-104227053D01*
X110593245Y-104236947D01*
X110593245Y-104236947D01*
G37*
X110593245Y-104236947D02*
X110622754Y-119473265D01*
X86916673Y-119522735D01*
X86900152Y-113100000D01*
X86923000Y-113100000D01*
X86923000Y-115600000D01*
X86985952Y-115916479D01*
X87165223Y-116184777D01*
X87935222Y-116954777D01*
X88203521Y-117134048D01*
X88520000Y-117197000D01*
X88749234Y-117197000D01*
X89130614Y-117579047D01*
X89654907Y-117796752D01*
X90222603Y-117797248D01*
X90747275Y-117580457D01*
X91149047Y-117179386D01*
X91209881Y-117032882D01*
X91269543Y-117177275D01*
X91670614Y-117579047D01*
X92194907Y-117796752D01*
X92762603Y-117797248D01*
X93287275Y-117580457D01*
X93689047Y-117179386D01*
X93749881Y-117032882D01*
X93809543Y-117177275D01*
X94210614Y-117579047D01*
X94734907Y-117796752D01*
X95302603Y-117797248D01*
X95827275Y-117580457D01*
X96229047Y-117179386D01*
X96446752Y-116655093D01*
X96447248Y-116087397D01*
X96230457Y-115562725D01*
X95829386Y-115160953D01*
X95682882Y-115100119D01*
X95827275Y-115040457D01*
X96229047Y-114639386D01*
X96289881Y-114492882D01*
X96349543Y-114637275D01*
X96750614Y-115039047D01*
X97274907Y-115256752D01*
X97842603Y-115257248D01*
X98367275Y-115040457D01*
X98769047Y-114639386D01*
X98986752Y-114115093D01*
X98987248Y-113547397D01*
X98770457Y-113022725D01*
X98387000Y-112638598D01*
X98387000Y-111132554D01*
X99554617Y-109964937D01*
X99733888Y-109696639D01*
X99772718Y-109501426D01*
X104722649Y-109501426D01*
X105030591Y-110246703D01*
X105600298Y-110817405D01*
X106345036Y-111126647D01*
X107151426Y-111127351D01*
X107896703Y-110819409D01*
X108467405Y-110249702D01*
X108776647Y-109504964D01*
X108777351Y-108698574D01*
X108469409Y-107953297D01*
X107899702Y-107382595D01*
X107154964Y-107073353D01*
X106348574Y-107072649D01*
X105603297Y-107380591D01*
X105032595Y-107950298D01*
X104723353Y-108695036D01*
X104722649Y-109501426D01*
X99772718Y-109501426D01*
X99796840Y-109380160D01*
X99796840Y-107790766D01*
X100178887Y-107409386D01*
X100396592Y-106885093D01*
X100397088Y-106317397D01*
X100180297Y-105792725D01*
X99779226Y-105390953D01*
X99254933Y-105173248D01*
X98687237Y-105172752D01*
X98162565Y-105389543D01*
X97760793Y-105790614D01*
X97705052Y-105924854D01*
X97650457Y-105792725D01*
X97249386Y-105390953D01*
X96725093Y-105173248D01*
X96157397Y-105172752D01*
X95632725Y-105389543D01*
X95230953Y-105790614D01*
X95170119Y-105937118D01*
X95110457Y-105792725D01*
X94709386Y-105390953D01*
X94185093Y-105173248D01*
X93617397Y-105172752D01*
X93092725Y-105389543D01*
X92690953Y-105790614D01*
X92473248Y-106314907D01*
X92472752Y-106882603D01*
X92689543Y-107407275D01*
X93090614Y-107809047D01*
X93614907Y-108026752D01*
X94182603Y-108027248D01*
X94707275Y-107810457D01*
X95109047Y-107409386D01*
X95169881Y-107262882D01*
X95229543Y-107407275D01*
X95613000Y-107791402D01*
X95613000Y-108067446D01*
X92907446Y-110773000D01*
X91943193Y-110773000D01*
X92467405Y-110249702D01*
X92776647Y-109504964D01*
X92777351Y-108698574D01*
X92469409Y-107953297D01*
X91899702Y-107382595D01*
X91154964Y-107073353D01*
X90348574Y-107072649D01*
X89603297Y-107380591D01*
X89032595Y-107950298D01*
X88723353Y-108695036D01*
X88722649Y-109501426D01*
X89030591Y-110246703D01*
X89555970Y-110773000D01*
X89250000Y-110773000D01*
X88933521Y-110835952D01*
X88665222Y-111015223D01*
X87165223Y-112515223D01*
X86985952Y-112783521D01*
X86923000Y-113100000D01*
X86900152Y-113100000D01*
X86877328Y-104227053D01*
X110593245Y-104236947D01*
G36*
X137193245Y-104136947D02*
X137222754Y-119373265D01*
X113516673Y-119422735D01*
X113500152Y-113000000D01*
X113523000Y-113000000D01*
X113523000Y-115500000D01*
X113585952Y-115816479D01*
X113765223Y-116084777D01*
X114535222Y-116854777D01*
X114803521Y-117034048D01*
X115120000Y-117097000D01*
X115349234Y-117097000D01*
X115730614Y-117479047D01*
X116254907Y-117696752D01*
X116822603Y-117697248D01*
X117347275Y-117480457D01*
X117749047Y-117079386D01*
X117809881Y-116932882D01*
X117869543Y-117077275D01*
X118270614Y-117479047D01*
X118794907Y-117696752D01*
X119362603Y-117697248D01*
X119887275Y-117480457D01*
X120289047Y-117079386D01*
X120349881Y-116932882D01*
X120409543Y-117077275D01*
X120810614Y-117479047D01*
X121334907Y-117696752D01*
X121902603Y-117697248D01*
X122427275Y-117480457D01*
X122829047Y-117079386D01*
X123046752Y-116555093D01*
X123047248Y-115987397D01*
X122830457Y-115462725D01*
X122429386Y-115060953D01*
X122282882Y-115000119D01*
X122427275Y-114940457D01*
X122829047Y-114539386D01*
X122889881Y-114392882D01*
X122949543Y-114537275D01*
X123350614Y-114939047D01*
X123874907Y-115156752D01*
X124442603Y-115157248D01*
X124967275Y-114940457D01*
X125369047Y-114539386D01*
X125586752Y-114015093D01*
X125587248Y-113447397D01*
X125370457Y-112922725D01*
X124987000Y-112538598D01*
X124987000Y-111032554D01*
X126154617Y-109864937D01*
X126333888Y-109596639D01*
X126372718Y-109401426D01*
X131322649Y-109401426D01*
X131630591Y-110146703D01*
X132200298Y-110717405D01*
X132945036Y-111026647D01*
X133751426Y-111027351D01*
X134496703Y-110719409D01*
X135067405Y-110149702D01*
X135376647Y-109404964D01*
X135377351Y-108598574D01*
X135069409Y-107853297D01*
X134499702Y-107282595D01*
X133754964Y-106973353D01*
X132948574Y-106972649D01*
X132203297Y-107280591D01*
X131632595Y-107850298D01*
X131323353Y-108595036D01*
X131322649Y-109401426D01*
X126372718Y-109401426D01*
X126396840Y-109280160D01*
X126396840Y-107690766D01*
X126778887Y-107309386D01*
X126996592Y-106785093D01*
X126997088Y-106217397D01*
X126780297Y-105692725D01*
X126379226Y-105290953D01*
X125854933Y-105073248D01*
X125287237Y-105072752D01*
X124762565Y-105289543D01*
X124360793Y-105690614D01*
X124305052Y-105824854D01*
X124250457Y-105692725D01*
X123849386Y-105290953D01*
X123325093Y-105073248D01*
X122757397Y-105072752D01*
X122232725Y-105289543D01*
X121830953Y-105690614D01*
X121770119Y-105837118D01*
X121710457Y-105692725D01*
X121309386Y-105290953D01*
X120785093Y-105073248D01*
X120217397Y-105072752D01*
X119692725Y-105289543D01*
X119290953Y-105690614D01*
X119073248Y-106214907D01*
X119072752Y-106782603D01*
X119289543Y-107307275D01*
X119690614Y-107709047D01*
X120214907Y-107926752D01*
X120782603Y-107927248D01*
X121307275Y-107710457D01*
X121709047Y-107309386D01*
X121769881Y-107162882D01*
X121829543Y-107307275D01*
X122213000Y-107691402D01*
X122213000Y-107967446D01*
X119507446Y-110673000D01*
X118543193Y-110673000D01*
X119067405Y-110149702D01*
X119376647Y-109404964D01*
X119377351Y-108598574D01*
X119069409Y-107853297D01*
X118499702Y-107282595D01*
X117754964Y-106973353D01*
X116948574Y-106972649D01*
X116203297Y-107280591D01*
X115632595Y-107850298D01*
X115323353Y-108595036D01*
X115322649Y-109401426D01*
X115630591Y-110146703D01*
X116155970Y-110673000D01*
X115850000Y-110673000D01*
X115533521Y-110735952D01*
X115265222Y-110915223D01*
X113765223Y-112415223D01*
X113585952Y-112683521D01*
X113523000Y-113000000D01*
X113500152Y-113000000D01*
X113477328Y-104127053D01*
X137193245Y-104136947D01*
X137193245Y-104136947D01*
G37*
X137193245Y-104136947D02*
X137222754Y-119373265D01*
X113516673Y-119422735D01*
X113500152Y-113000000D01*
X113523000Y-113000000D01*
X113523000Y-115500000D01*
X113585952Y-115816479D01*
X113765223Y-116084777D01*
X114535222Y-116854777D01*
X114803521Y-117034048D01*
X115120000Y-117097000D01*
X115349234Y-117097000D01*
X115730614Y-117479047D01*
X116254907Y-117696752D01*
X116822603Y-117697248D01*
X117347275Y-117480457D01*
X117749047Y-117079386D01*
X117809881Y-116932882D01*
X117869543Y-117077275D01*
X118270614Y-117479047D01*
X118794907Y-117696752D01*
X119362603Y-117697248D01*
X119887275Y-117480457D01*
X120289047Y-117079386D01*
X120349881Y-116932882D01*
X120409543Y-117077275D01*
X120810614Y-117479047D01*
X121334907Y-117696752D01*
X121902603Y-117697248D01*
X122427275Y-117480457D01*
X122829047Y-117079386D01*
X123046752Y-116555093D01*
X123047248Y-115987397D01*
X122830457Y-115462725D01*
X122429386Y-115060953D01*
X122282882Y-115000119D01*
X122427275Y-114940457D01*
X122829047Y-114539386D01*
X122889881Y-114392882D01*
X122949543Y-114537275D01*
X123350614Y-114939047D01*
X123874907Y-115156752D01*
X124442603Y-115157248D01*
X124967275Y-114940457D01*
X125369047Y-114539386D01*
X125586752Y-114015093D01*
X125587248Y-113447397D01*
X125370457Y-112922725D01*
X124987000Y-112538598D01*
X124987000Y-111032554D01*
X126154617Y-109864937D01*
X126333888Y-109596639D01*
X126372718Y-109401426D01*
X131322649Y-109401426D01*
X131630591Y-110146703D01*
X132200298Y-110717405D01*
X132945036Y-111026647D01*
X133751426Y-111027351D01*
X134496703Y-110719409D01*
X135067405Y-110149702D01*
X135376647Y-109404964D01*
X135377351Y-108598574D01*
X135069409Y-107853297D01*
X134499702Y-107282595D01*
X133754964Y-106973353D01*
X132948574Y-106972649D01*
X132203297Y-107280591D01*
X131632595Y-107850298D01*
X131323353Y-108595036D01*
X131322649Y-109401426D01*
X126372718Y-109401426D01*
X126396840Y-109280160D01*
X126396840Y-107690766D01*
X126778887Y-107309386D01*
X126996592Y-106785093D01*
X126997088Y-106217397D01*
X126780297Y-105692725D01*
X126379226Y-105290953D01*
X125854933Y-105073248D01*
X125287237Y-105072752D01*
X124762565Y-105289543D01*
X124360793Y-105690614D01*
X124305052Y-105824854D01*
X124250457Y-105692725D01*
X123849386Y-105290953D01*
X123325093Y-105073248D01*
X122757397Y-105072752D01*
X122232725Y-105289543D01*
X121830953Y-105690614D01*
X121770119Y-105837118D01*
X121710457Y-105692725D01*
X121309386Y-105290953D01*
X120785093Y-105073248D01*
X120217397Y-105072752D01*
X119692725Y-105289543D01*
X119290953Y-105690614D01*
X119073248Y-106214907D01*
X119072752Y-106782603D01*
X119289543Y-107307275D01*
X119690614Y-107709047D01*
X120214907Y-107926752D01*
X120782603Y-107927248D01*
X121307275Y-107710457D01*
X121709047Y-107309386D01*
X121769881Y-107162882D01*
X121829543Y-107307275D01*
X122213000Y-107691402D01*
X122213000Y-107967446D01*
X119507446Y-110673000D01*
X118543193Y-110673000D01*
X119067405Y-110149702D01*
X119376647Y-109404964D01*
X119377351Y-108598574D01*
X119069409Y-107853297D01*
X118499702Y-107282595D01*
X117754964Y-106973353D01*
X116948574Y-106972649D01*
X116203297Y-107280591D01*
X115632595Y-107850298D01*
X115323353Y-108595036D01*
X115322649Y-109401426D01*
X115630591Y-110146703D01*
X116155970Y-110673000D01*
X115850000Y-110673000D01*
X115533521Y-110735952D01*
X115265222Y-110915223D01*
X113765223Y-112415223D01*
X113585952Y-112683521D01*
X113523000Y-113000000D01*
X113500152Y-113000000D01*
X113477328Y-104127053D01*
X137193245Y-104136947D01*
G36*
X185343245Y-103686947D02*
X185372754Y-118923265D01*
X161666673Y-118972735D01*
X161650152Y-112550000D01*
X161673000Y-112550000D01*
X161673000Y-115050000D01*
X161735952Y-115366479D01*
X161915223Y-115634777D01*
X162685222Y-116404777D01*
X162953521Y-116584048D01*
X163270000Y-116647000D01*
X163499234Y-116647000D01*
X163880614Y-117029047D01*
X164404907Y-117246752D01*
X164972603Y-117247248D01*
X165497275Y-117030457D01*
X165899047Y-116629386D01*
X165959881Y-116482882D01*
X166019543Y-116627275D01*
X166420614Y-117029047D01*
X166944907Y-117246752D01*
X167512603Y-117247248D01*
X168037275Y-117030457D01*
X168439047Y-116629386D01*
X168499881Y-116482882D01*
X168559543Y-116627275D01*
X168960614Y-117029047D01*
X169484907Y-117246752D01*
X170052603Y-117247248D01*
X170577275Y-117030457D01*
X170979047Y-116629386D01*
X171196752Y-116105093D01*
X171197248Y-115537397D01*
X170980457Y-115012725D01*
X170579386Y-114610953D01*
X170432882Y-114550119D01*
X170577275Y-114490457D01*
X170979047Y-114089386D01*
X171039881Y-113942882D01*
X171099543Y-114087275D01*
X171500614Y-114489047D01*
X172024907Y-114706752D01*
X172592603Y-114707248D01*
X173117275Y-114490457D01*
X173519047Y-114089386D01*
X173736752Y-113565093D01*
X173737248Y-112997397D01*
X173520457Y-112472725D01*
X173137000Y-112088598D01*
X173137000Y-110582554D01*
X174304617Y-109414937D01*
X174483888Y-109146639D01*
X174522718Y-108951426D01*
X179472649Y-108951426D01*
X179780591Y-109696703D01*
X180350298Y-110267405D01*
X181095036Y-110576647D01*
X181901426Y-110577351D01*
X182646703Y-110269409D01*
X183217405Y-109699702D01*
X183526647Y-108954964D01*
X183527351Y-108148574D01*
X183219409Y-107403297D01*
X182649702Y-106832595D01*
X181904964Y-106523353D01*
X181098574Y-106522649D01*
X180353297Y-106830591D01*
X179782595Y-107400298D01*
X179473353Y-108145036D01*
X179472649Y-108951426D01*
X174522718Y-108951426D01*
X174546840Y-108830160D01*
X174546840Y-107240766D01*
X174928887Y-106859386D01*
X175146592Y-106335093D01*
X175147088Y-105767397D01*
X174930297Y-105242725D01*
X174529226Y-104840953D01*
X174004933Y-104623248D01*
X173437237Y-104622752D01*
X172912565Y-104839543D01*
X172510793Y-105240614D01*
X172455052Y-105374854D01*
X172400457Y-105242725D01*
X171999386Y-104840953D01*
X171475093Y-104623248D01*
X170907397Y-104622752D01*
X170382725Y-104839543D01*
X169980953Y-105240614D01*
X169920119Y-105387118D01*
X169860457Y-105242725D01*
X169459386Y-104840953D01*
X168935093Y-104623248D01*
X168367397Y-104622752D01*
X167842725Y-104839543D01*
X167440953Y-105240614D01*
X167223248Y-105764907D01*
X167222752Y-106332603D01*
X167439543Y-106857275D01*
X167840614Y-107259047D01*
X168364907Y-107476752D01*
X168932603Y-107477248D01*
X169457275Y-107260457D01*
X169859047Y-106859386D01*
X169919881Y-106712882D01*
X169979543Y-106857275D01*
X170363000Y-107241402D01*
X170363000Y-107517446D01*
X167657446Y-110223000D01*
X166693193Y-110223000D01*
X167217405Y-109699702D01*
X167526647Y-108954964D01*
X167527351Y-108148574D01*
X167219409Y-107403297D01*
X166649702Y-106832595D01*
X165904964Y-106523353D01*
X165098574Y-106522649D01*
X164353297Y-106830591D01*
X163782595Y-107400298D01*
X163473353Y-108145036D01*
X163472649Y-108951426D01*
X163780591Y-109696703D01*
X164305970Y-110223000D01*
X164000000Y-110223000D01*
X163683521Y-110285952D01*
X163415222Y-110465223D01*
X161915223Y-111965223D01*
X161735952Y-112233521D01*
X161673000Y-112550000D01*
X161650152Y-112550000D01*
X161627328Y-103677053D01*
X185343245Y-103686947D01*
X185343245Y-103686947D01*
G37*
X185343245Y-103686947D02*
X185372754Y-118923265D01*
X161666673Y-118972735D01*
X161650152Y-112550000D01*
X161673000Y-112550000D01*
X161673000Y-115050000D01*
X161735952Y-115366479D01*
X161915223Y-115634777D01*
X162685222Y-116404777D01*
X162953521Y-116584048D01*
X163270000Y-116647000D01*
X163499234Y-116647000D01*
X163880614Y-117029047D01*
X164404907Y-117246752D01*
X164972603Y-117247248D01*
X165497275Y-117030457D01*
X165899047Y-116629386D01*
X165959881Y-116482882D01*
X166019543Y-116627275D01*
X166420614Y-117029047D01*
X166944907Y-117246752D01*
X167512603Y-117247248D01*
X168037275Y-117030457D01*
X168439047Y-116629386D01*
X168499881Y-116482882D01*
X168559543Y-116627275D01*
X168960614Y-117029047D01*
X169484907Y-117246752D01*
X170052603Y-117247248D01*
X170577275Y-117030457D01*
X170979047Y-116629386D01*
X171196752Y-116105093D01*
X171197248Y-115537397D01*
X170980457Y-115012725D01*
X170579386Y-114610953D01*
X170432882Y-114550119D01*
X170577275Y-114490457D01*
X170979047Y-114089386D01*
X171039881Y-113942882D01*
X171099543Y-114087275D01*
X171500614Y-114489047D01*
X172024907Y-114706752D01*
X172592603Y-114707248D01*
X173117275Y-114490457D01*
X173519047Y-114089386D01*
X173736752Y-113565093D01*
X173737248Y-112997397D01*
X173520457Y-112472725D01*
X173137000Y-112088598D01*
X173137000Y-110582554D01*
X174304617Y-109414937D01*
X174483888Y-109146639D01*
X174522718Y-108951426D01*
X179472649Y-108951426D01*
X179780591Y-109696703D01*
X180350298Y-110267405D01*
X181095036Y-110576647D01*
X181901426Y-110577351D01*
X182646703Y-110269409D01*
X183217405Y-109699702D01*
X183526647Y-108954964D01*
X183527351Y-108148574D01*
X183219409Y-107403297D01*
X182649702Y-106832595D01*
X181904964Y-106523353D01*
X181098574Y-106522649D01*
X180353297Y-106830591D01*
X179782595Y-107400298D01*
X179473353Y-108145036D01*
X179472649Y-108951426D01*
X174522718Y-108951426D01*
X174546840Y-108830160D01*
X174546840Y-107240766D01*
X174928887Y-106859386D01*
X175146592Y-106335093D01*
X175147088Y-105767397D01*
X174930297Y-105242725D01*
X174529226Y-104840953D01*
X174004933Y-104623248D01*
X173437237Y-104622752D01*
X172912565Y-104839543D01*
X172510793Y-105240614D01*
X172455052Y-105374854D01*
X172400457Y-105242725D01*
X171999386Y-104840953D01*
X171475093Y-104623248D01*
X170907397Y-104622752D01*
X170382725Y-104839543D01*
X169980953Y-105240614D01*
X169920119Y-105387118D01*
X169860457Y-105242725D01*
X169459386Y-104840953D01*
X168935093Y-104623248D01*
X168367397Y-104622752D01*
X167842725Y-104839543D01*
X167440953Y-105240614D01*
X167223248Y-105764907D01*
X167222752Y-106332603D01*
X167439543Y-106857275D01*
X167840614Y-107259047D01*
X168364907Y-107476752D01*
X168932603Y-107477248D01*
X169457275Y-107260457D01*
X169859047Y-106859386D01*
X169919881Y-106712882D01*
X169979543Y-106857275D01*
X170363000Y-107241402D01*
X170363000Y-107517446D01*
X167657446Y-110223000D01*
X166693193Y-110223000D01*
X167217405Y-109699702D01*
X167526647Y-108954964D01*
X167527351Y-108148574D01*
X167219409Y-107403297D01*
X166649702Y-106832595D01*
X165904964Y-106523353D01*
X165098574Y-106522649D01*
X164353297Y-106830591D01*
X163782595Y-107400298D01*
X163473353Y-108145036D01*
X163472649Y-108951426D01*
X163780591Y-109696703D01*
X164305970Y-110223000D01*
X164000000Y-110223000D01*
X163683521Y-110285952D01*
X163415222Y-110465223D01*
X161915223Y-111965223D01*
X161735952Y-112233521D01*
X161673000Y-112550000D01*
X161650152Y-112550000D01*
X161627328Y-103677053D01*
X185343245Y-103686947D01*
M02*
