<?xml version="1.0" standalone="no"?>
 <!DOCTYPE svg PUBLIC "-//W3C//DTD SVG 1.1//EN" 
 "http://www.w3.org/Graphics/SVG/1.1/DTD/svg11.dtd"> 
<svg xmlns="http://www.w3.org/2000/svg" version="1.1" 
    width="27.94cm" height="21.59cm" viewBox="0 0 110000 85000 ">
<title>SVG Picture created as EthMotors_DRV8836_rev01-B_Paste.svg date 2014/08/11 16:50:06 </title>
  <desc>Picture generated by PCBNEW </desc>
<g style="fill:#000000; fill-opacity:1;stroke:#000000; stroke-opacity:1;
stroke-linecap:round; stroke-linejoin:round; "
 transform="translate(0 0) scale(1 1)">
</g>
<g style="fill:#000000; fill-opacity:0.0; 
stroke:#000000; stroke-width:39.3701; stroke-opacity:1; 
stroke-linecap:round; stroke-linejoin:round;">
<path d="M4000 4000
L106000 4000
L106000 81000
L4000 81000
L4000 4000
" />
<path d="M4700 4700
L105300 4700
L105300 80300
L4700 80300
L4700 4700
" />
<path d="M24400 4000
L24400 4700
" />
<path d="M14342 4552
L14057 4552
" />
<path d="M14200 4552
L14200 4052
L14152 4123
L14104 4171
L14057 4195
" />
<path d="M24400 81000
L24400 80300
" />
<path d="M14342 80852
L14057 80852
" />
<path d="M14200 80852
L14200 80352
L14152 80423
L14104 80471
L14057 80495
" />
<path d="M44800 4000
L44800 4700
" />
<path d="M34457 4100
L34480 4076
L34528 4052
L34647 4052
L34695 4076
L34719 4100
L34742 4147
L34742 4195
L34719 4266
L34433 4552
L34742 4552
" />
<path d="M44800 81000
L44800 80300
" />
<path d="M34457 80400
L34480 80376
L34528 80352
L34647 80352
L34695 80376
L34719 80400
L34742 80447
L34742 80495
L34719 80566
L34433 80852
L34742 80852
" />
<path d="M65200 4000
L65200 4700
" />
<path d="M54833 4052
L55142 4052
L54976 4242
L55047 4242
L55095 4266
L55119 4290
L55142 4338
L55142 4457
L55119 4504
L55095 4528
L55047 4552
L54904 4552
L54857 4528
L54833 4504
" />
<path d="M65200 81000
L65200 80300
" />
<path d="M54833 80352
L55142 80352
L54976 80542
L55047 80542
L55095 80566
L55119 80590
L55142 80638
L55142 80757
L55119 80804
L55095 80828
L55047 80852
L54904 80852
L54857 80828
L54833 80804
" />
<path d="M85600 4000
L85600 4700
" />
<path d="M75495 4219
L75495 4552
" />
<path d="M75376 4028
L75257 4385
L75566 4385
" />
<path d="M85600 81000
L85600 80300
" />
<path d="M75495 80519
L75495 80852
" />
<path d="M75376 80328
L75257 80685
L75566 80685
" />
<path d="M95919 4052
L95680 4052
L95657 4290
L95680 4266
L95728 4242
L95847 4242
L95895 4266
L95919 4290
L95942 4338
L95942 4457
L95919 4504
L95895 4528
L95847 4552
L95728 4552
L95680 4528
L95657 4504
" />
<path d="M95919 80352
L95680 80352
L95657 80590
L95680 80566
L95728 80542
L95847 80542
L95895 80566
L95919 80590
L95942 80638
L95942 80757
L95919 80804
L95895 80828
L95847 80852
L95728 80852
L95680 80828
L95657 80804
" />
<path d="M4000 29660
L4700 29660
" />
<path d="M4230 16889
L4469 16889
" />
<path d="M4183 17032
L4350 16532
L4516 17032
" />
<path d="M106000 29660
L105300 29660
" />
<path d="M105530 16889
L105769 16889
" />
<path d="M105483 17032
L105650 16532
L105816 17032
" />
<path d="M4000 55320
L4700 55320
" />
<path d="M4385 42430
L4457 42454
L4480 42478
L4504 42525
L4504 42597
L4480 42644
L4457 42668
L4409 42692
L4219 42692
L4219 42192
L4385 42192
L4433 42216
L4457 42240
L4480 42287
L4480 42335
L4457 42382
L4433 42406
L4385 42430
L4219 42430
" />
<path d="M106000 55320
L105300 55320
" />
<path d="M105685 42430
L105757 42454
L105780 42478
L105804 42525
L105804 42597
L105780 42644
L105757 42668
L105709 42692
L105519 42692
L105519 42192
L105685 42192
L105733 42216
L105757 42240
L105780 42287
L105780 42335
L105757 42382
L105733 42406
L105685 42430
L105519 42430
" />
<path d="M4504 68304
L4480 68328
L4409 68352
L4361 68352
L4290 68328
L4242 68280
L4219 68233
L4195 68138
L4195 68066
L4219 67971
L4242 67923
L4290 67876
L4361 67852
L4409 67852
L4480 67876
L4504 67900
" />
<path d="M105804 68304
L105780 68328
L105709 68352
L105661 68352
L105590 68328
L105542 68280
L105519 68233
L105495 68138
L105495 68066
L105519 67971
L105542 67923
L105590 67876
L105661 67852
L105709 67852
L105780 67876
L105804 67900
" />
<path d="M72450 78742
L72525 78142
L72667 78142
L72750 78171
L72800 78228
L72821 78285
L72835 78400
L72825 78485
L72782 78600
L72746 78657
L72682 78714
L72592 78742
L72450 78742
" />
<path d="M73307 78742
L73346 78428
L73325 78371
L73271 78342
L73157 78342
L73096 78371
" />
<path d="M73310 78714
L73250 78742
L73107 78742
L73053 78714
L73032 78657
L73039 78600
L73075 78542
L73135 78514
L73278 78514
L73339 78485
" />
<path d="M73557 78342
L73785 78342
" />
<path d="M73667 78142
L73603 78657
L73625 78714
L73678 78742
L73735 78742
" />
<path d="M74167 78714
L74107 78742
L73992 78742
L73939 78714
L73917 78657
L73946 78428
L73982 78371
L74042 78342
L74157 78342
L74210 78371
L74232 78428
L74225 78485
L73932 78542
" />
<path d="M74457 78685
L74482 78714
L74450 78742
L74425 78714
L74457 78685
L74450 78742
" />
<path d="M74496 78371
L74521 78400
L74489 78428
L74464 78400
L74496 78371
L74489 78428
" />
<path d="M64042 79942
L64042 79342
" />
<path d="M64385 79942
L64128 79600
" />
<path d="M64385 79342
L64042 79685
" />
<path d="M64642 79942
L64642 79542
" />
<path d="M64642 79342
L64614 79371
L64642 79400
L64671 79371
L64642 79342
L64642 79400
" />
<path d="M65271 79885
L65242 79914
L65157 79942
L65100 79942
L65014 79914
L64957 79857
L64928 79800
L64900 79685
L64900 79600
L64928 79485
L64957 79428
L65014 79371
L65100 79342
L65157 79342
L65242 79371
L65271 79400
" />
<path d="M65785 79942
L65785 79628
L65757 79571
L65700 79542
L65585 79542
L65528 79571
" />
<path d="M65785 79914
L65728 79942
L65585 79942
L65528 79914
L65500 79857
L65500 79800
L65528 79742
L65585 79714
L65728 79714
L65785 79685
" />
<path d="M66328 79942
L66328 79342
" />
<path d="M66328 79914
L66271 79942
L66157 79942
L66100 79914
L66071 79885
L66042 79828
L66042 79657
L66071 79600
L66100 79571
L66157 79542
L66271 79542
L66328 79571
" />
<path d="M67071 79628
L67271 79628
" />
<path d="M67357 79942
L67071 79942
L67071 79342
L67357 79342
" />
<path d="M67614 79885
L67642 79914
L67614 79942
L67585 79914
L67614 79885
L67614 79942
" />
<path d="M67899 79942
L67899 79342
L68042 79342
L68128 79371
L68185 79428
L68214 79485
L68242 79600
L68242 79685
L68214 79800
L68185 79857
L68128 79914
L68042 79942
L67899 79942
" />
<path d="M68499 79885
L68528 79914
L68499 79942
L68471 79914
L68499 79885
L68499 79942
" />
<path d="M68757 79771
L69042 79771
" />
<path d="M68699 79942
L68899 79342
L69099 79942
" />
<path d="M69299 79885
L69328 79914
L69299 79942
L69271 79914
L69299 79885
L69299 79942
" />
<path d="M97592 78742
L97428 78457
" />
<path d="M97250 78742
L97325 78142
L97553 78142
L97607 78171
L97632 78200
L97653 78257
L97642 78342
L97607 78400
L97575 78428
L97514 78457
L97285 78457
" />
<path d="M98082 78714
L98021 78742
L97907 78742
L97853 78714
L97832 78657
L97860 78428
L97896 78371
L97957 78342
L98071 78342
L98125 78371
L98146 78428
L98139 78485
L97846 78542
" />
<path d="M98357 78342
L98450 78742
L98642 78342
" />
<path d="M98828 78685
L98853 78714
L98821 78742
L98796 78714
L98828 78685
L98821 78742
" />
<path d="M98867 78371
L98892 78400
L98860 78428
L98835 78400
L98867 78371
L98860 78428
" />
<path d="M64014 78714
L64100 78742
L64242 78742
L64300 78714
L64328 78685
L64357 78628
L64357 78571
L64328 78514
L64300 78485
L64242 78457
L64128 78428
L64071 78400
L64042 78371
L64014 78314
L64014 78257
L64042 78200
L64071 78171
L64128 78142
L64271 78142
L64357 78171
" />
<path d="M64614 78742
L64614 78342
" />
<path d="M64614 78142
L64585 78171
L64614 78200
L64642 78171
L64614 78142
L64614 78200
" />
<path d="M64842 78342
L65157 78342
L64842 78742
L65157 78742
" />
<path d="M65614 78714
L65557 78742
L65442 78742
L65385 78714
L65357 78657
L65357 78428
L65385 78371
L65442 78342
L65557 78342
L65614 78371
L65642 78428
L65642 78485
L65357 78542
" />
<path d="M65900 78685
L65928 78714
L65900 78742
L65871 78714
L65900 78685
L65900 78742
" />
<path d="M65900 78371
L65928 78400
L65900 78428
L65871 78400
L65900 78371
L65900 78428
" />
<path d="M66614 78571
L66900 78571
" />
<path d="M66557 78742
L66757 78142
L66957 78742
" />
<path d="M97242 79942
L97242 79342
" />
<path d="M97785 79942
L97785 79342
" />
<path d="M97785 79914
L97728 79942
L97614 79942
L97557 79914
L97528 79885
L97500 79828
L97500 79657
L97528 79600
L97557 79571
L97614 79542
L97728 79542
L97785 79571
" />
<path d="M98071 79885
L98100 79914
L98071 79942
L98042 79914
L98071 79885
L98071 79942
" />
<path d="M98071 79571
L98100 79600
L98071 79628
L98042 79600
L98071 79571
L98071 79628
" />
<path d="M99128 79942
L98785 79942
" />
<path d="M98957 79942
L98957 79342
L98899 79428
L98842 79485
L98785 79514
" />
<path d="M99814 79314
L99300 80085
" />
<path d="M100328 79942
L99985 79942
" />
<path d="M100157 79942
L100157 79342
L100099 79428
L100042 79485
L99985 79514
" />
<path d="M64039 76942
L64382 76942
" />
<path d="M64135 77542
L64210 76942
" />
<path d="M64507 77542
L64557 77142
" />
<path d="M64582 76942
L64550 76971
L64575 77000
L64607 76971
L64582 76942
L64575 77000
" />
<path d="M64757 77142
L64985 77142
" />
<path d="M64867 76942
L64803 77457
L64825 77514
L64878 77542
L64935 77542
" />
<path d="M65221 77542
L65167 77514
L65146 77457
L65210 76942
" />
<path d="M65682 77514
L65621 77542
L65507 77542
L65453 77514
L65432 77457
L65460 77228
L65496 77171
L65557 77142
L65671 77142
L65725 77171
L65746 77228
L65739 77285
L65446 77342
" />
<path d="M65971 77485
L65996 77514
L65964 77542
L65939 77514
L65971 77485
L65964 77542
" />
<path d="M66010 77171
L66035 77200
L66003 77228
L65978 77200
L66010 77171
L66003 77228
" />
<path d="M64242 74828
L64042 74828
" />
<path d="M64042 75142
L64042 74542
L64328 74542
" />
<path d="M64557 75142
L64557 74742
" />
<path d="M64557 74542
L64528 74571
L64557 74600
L64585 74571
L64557 74542
L64557 74600
" />
<path d="M64928 75142
L64871 75114
L64842 75057
L64842 74542
" />
<path d="M65385 75114
L65328 75142
L65214 75142
L65157 75114
L65128 75057
L65128 74828
L65157 74771
L65214 74742
L65328 74742
L65385 74771
L65414 74828
L65414 74885
L65128 74942
" />
<path d="M65671 75085
L65700 75114
L65671 75142
L65642 75114
L65671 75085
L65671 75142
" />
<path d="M65671 74771
L65700 74800
L65671 74828
L65642 74800
L65671 74771
L65671 74828
" />
<path d="M66414 74828
L66614 74828
" />
<path d="M66700 75142
L66414 75142
L66414 74542
L66700 74542
" />
<path d="M66871 74742
L67100 74742
" />
<path d="M66957 74542
L66957 75057
L66985 75114
L67042 75142
L67100 75142
" />
<path d="M67300 75142
L67300 74542
" />
<path d="M67557 75142
L67557 74828
L67528 74771
L67471 74742
L67385 74742
L67328 74771
L67300 74800
" />
<path d="M67842 75142
L67842 74542
L68042 74971
L68242 74542
L68242 75142
" />
<path d="M68614 75142
L68557 75114
L68528 75085
L68500 75028
L68500 74857
L68528 74800
L68557 74771
L68614 74742
L68700 74742
L68757 74771
L68785 74800
L68814 74857
L68814 75028
L68785 75085
L68757 75114
L68700 75142
L68614 75142
" />
<path d="M68985 74742
L69214 74742
" />
<path d="M69071 74542
L69071 75057
L69100 75114
L69157 75142
L69214 75142
" />
<path d="M69499 75142
L69442 75114
L69414 75085
L69385 75028
L69385 74857
L69414 74800
L69442 74771
L69499 74742
L69585 74742
L69642 74771
L69671 74800
L69699 74857
L69699 75028
L69671 75085
L69642 75114
L69585 75142
L69499 75142
" />
<path d="M69957 75142
L69957 74742
" />
<path d="M69957 74857
L69985 74800
L70014 74771
L70071 74742
L70128 74742
" />
<path d="M70300 75114
L70357 75142
L70471 75142
L70528 75114
L70557 75057
L70557 75028
L70528 74971
L70471 74942
L70385 74942
L70328 74914
L70300 74857
L70300 74828
L70328 74771
L70385 74742
L70471 74742
L70528 74771
" />
<path d="M70671 75200
L71128 75200
" />
<path d="M71271 75142
L71271 74542
L71414 74542
L71500 74571
L71557 74628
L71585 74685
L71614 74800
L71614 74885
L71585 75000
L71557 75057
L71500 75114
L71414 75142
L71271 75142
" />
<path d="M72214 75142
L72014 74857
" />
<path d="M71871 75142
L71871 74542
L72100 74542
L72157 74571
L72185 74600
L72214 74657
L72214 74742
L72185 74800
L72157 74828
L72100 74857
L71871 74857
" />
<path d="M72385 74542
L72585 75142
L72785 74542
" />
<path d="M73071 74800
L73014 74771
L72985 74742
L72957 74685
L72957 74657
L72985 74600
L73014 74571
L73071 74542
L73185 74542
L73242 74571
L73271 74600
L73300 74657
L73300 74685
L73271 74742
L73242 74771
L73185 74800
L73071 74800
L73014 74828
L72985 74857
L72957 74914
L72957 75028
L72985 75085
L73014 75114
L73071 75142
L73185 75142
L73242 75114
L73271 75085
L73300 75028
L73300 74914
L73271 74857
L73242 74828
L73185 74800
" />
<path d="M73642 74800
L73585 74771
L73557 74742
L73528 74685
L73528 74657
L73557 74600
L73585 74571
L73642 74542
L73757 74542
L73814 74571
L73842 74600
L73871 74657
L73871 74685
L73842 74742
L73814 74771
L73757 74800
L73642 74800
L73585 74828
L73557 74857
L73528 74914
L73528 75028
L73557 75085
L73585 75114
L73642 75142
L73757 75142
L73814 75114
L73842 75085
L73871 75028
L73871 74914
L73842 74857
L73814 74828
L73757 74800
" />
<path d="M74071 74542
L74442 74542
L74242 74771
L74328 74771
L74385 74800
L74414 74828
L74442 74885
L74442 75028
L74414 75085
L74385 75114
L74328 75142
L74157 75142
L74100 75114
L74071 75085
" />
<path d="M74957 74542
L74842 74542
L74785 74571
L74757 74600
L74700 74685
L74671 74800
L74671 75028
L74700 75085
L74728 75114
L74785 75142
L74900 75142
L74957 75114
L74985 75085
L75014 75028
L75014 74885
L74985 74828
L74957 74800
L74900 74771
L74785 74771
L74728 74800
L74700 74828
L74671 74885
" />
<path d="M75128 75200
L75585 75200
" />
<path d="M75728 75142
L75728 74742
" />
<path d="M75728 74857
L75757 74800
L75785 74771
L75842 74742
L75900 74742
" />
<path d="M76328 75114
L76271 75142
L76157 75142
L76100 75114
L76071 75057
L76071 74828
L76100 74771
L76157 74742
L76271 74742
L76328 74771
L76357 74828
L76357 74885
L76071 74942
" />
<path d="M76557 74742
L76700 75142
L76842 74742
" />
<path d="M77185 74542
L77242 74542
L77300 74571
L77328 74600
L77357 74657
L77385 74771
L77385 74914
L77357 75028
L77328 75085
L77300 75114
L77242 75142
L77185 75142
L77128 75114
L77100 75085
L77071 75028
L77042 74914
L77042 74771
L77071 74657
L77100 74600
L77128 74571
L77185 74542
" />
<path d="M77957 75142
L77614 75142
" />
<path d="M77785 75142
L77785 74542
L77728 74628
L77671 74685
L77614 74714
" />
<path d="M78214 75085
L78242 75114
L78214 75142
L78185 75114
L78214 75085
L78214 75142
" />
<path d="M78500 75142
L78500 74542
" />
<path d="M78557 74914
L78728 75142
" />
<path d="M78728 74742
L78500 74971
" />
<path d="M78985 75142
L78985 74742
" />
<path d="M78985 74542
L78957 74571
L78985 74600
L79014 74571
L78985 74542
L78985 74600
" />
<path d="M79528 75114
L79471 75142
L79357 75142
L79300 75114
L79271 75085
L79242 75028
L79242 74857
L79271 74800
L79300 74771
L79357 74742
L79471 74742
L79528 74771
" />
<path d="M80042 75142
L80042 74828
L80014 74771
L79957 74742
L79842 74742
L79785 74771
" />
<path d="M80042 75114
L79985 75142
L79842 75142
L79785 75114
L79757 75057
L79757 75000
L79785 74942
L79842 74914
L79985 74914
L80042 74885
" />
<path d="M80585 75142
L80585 74542
" />
<path d="M80585 75114
L80528 75142
L80414 75142
L80357 75114
L80328 75085
L80300 75028
L80300 74857
L80328 74800
L80357 74771
L80414 74742
L80528 74742
L80585 74771
" />
<path d="M80728 75200
L81185 75200
" />
<path d="M81328 74742
L81328 75342
" />
<path d="M81328 74771
L81385 74742
L81500 74742
L81557 74771
L81585 74800
L81614 74857
L81614 75028
L81585 75085
L81557 75114
L81500 75142
L81385 75142
L81328 75114
" />
<path d="M82128 75114
L82071 75142
L81957 75142
L81900 75114
L81871 75085
L81842 75028
L81842 74857
L81871 74800
L81900 74771
L81957 74742
L82071 74742
L82128 74771
" />
<path d="M82385 75142
L82385 74542
" />
<path d="M82385 74771
L82442 74742
L82557 74742
L82614 74771
L82642 74800
L82671 74857
L82671 75028
L82642 75085
L82614 75114
L82557 75142
L82442 75142
L82385 75114
" />
<path d="M64014 76314
L64100 76342
L64242 76342
L64300 76314
L64328 76285
L64357 76228
L64357 76171
L64328 76114
L64300 76085
L64242 76057
L64128 76028
L64071 76000
L64042 75971
L64014 75914
L64014 75857
L64042 75800
L64071 75771
L64128 75742
L64271 75742
L64357 75771
" />
<path d="M64614 76342
L64614 75742
" />
<path d="M64871 76342
L64871 76028
L64842 75971
L64785 75942
L64700 75942
L64642 75971
L64614 76000
" />
<path d="M65385 76314
L65328 76342
L65214 76342
L65157 76314
L65128 76257
L65128 76028
L65157 75971
L65214 75942
L65328 75942
L65385 75971
L65414 76028
L65414 76085
L65128 76142
" />
<path d="M65900 76314
L65842 76342
L65728 76342
L65671 76314
L65642 76257
L65642 76028
L65671 75971
L65728 75942
L65842 75942
L65900 75971
L65928 76028
L65928 76085
L65642 76142
" />
<path d="M66100 75942
L66328 75942
" />
<path d="M66185 75742
L66185 76257
L66214 76314
L66271 76342
L66328 76342
" />
<path d="M66528 76285
L66557 76314
L66528 76342
L66500 76314
L66528 76285
L66528 76342
" />
<path d="M66528 75971
L66557 76000
L66528 76028
L66500 76000
L66528 75971
L66528 76028
" />
<path d="M63300 74300
L63300 80300
" />
<path d="M63300 74300
L105300 74300
" />
<path d="M63300 74300
L105300 74300
" />
<path d="M63300 76700
L105300 76700
" />
<path d="M96500 77900
L96500 80300
" />
<path d="M63300 79100
L105300 79100
" />
<path d="M63300 77900
L105300 77900
" />
<path d="M69900 77900
L69900 79100
" />
</g>
<g style="fill:#FFFF00; fill-opacity:0.0; 
stroke:#FFFF00; stroke-width:39.3701; stroke-opacity:1; 
stroke-linecap:round; stroke-linejoin:round;">
<path d="M73228 21259
L33858 21259
" />
<path d="M33858 42125
L73228 42125
" />
<path d="M33858 42125
L33858 21259
" />
<path d="M73228 21259
L73228 42125
" />
</g>
<g style="fill:#009F00; fill-opacity:0.0; 
stroke:#009F00; stroke-width:39.3701; stroke-opacity:1; 
stroke-linecap:round; stroke-linejoin:round;">
</g>
<g style="fill:#009F00; fill-opacity:1.0; 
stroke:#009F00; stroke-width:39.3701; stroke-opacity:1; 
stroke-linecap:round; stroke-linejoin:round;">
<polyline style="fill-rule:evenodd;"
points="49630,35582
49630,34834
50377,34834
50377,35582
49630,35582
" /> 
</g> 
</svg>
