<?xml version="1.0" standalone="no"?>
 <!DOCTYPE svg PUBLIC "-//W3C//DTD SVG 1.1//EN" 
 "http://www.w3.org/Graphics/SVG/1.1/DTD/svg11.dtd"> 
<svg xmlns="http://www.w3.org/2000/svg" version="1.1" 
    width="27.94cm" height="21.59cm" viewBox="0 0 110000 85000 ">
<title>SVG Picture created as EthMotors_DRV8836_rev01-B_Cu.svg date 2014/08/11 16:50:06 </title>
  <desc>Picture generated by PCBNEW </desc>
<g style="fill:#000000; fill-opacity:1;stroke:#000000; stroke-opacity:1;
stroke-linecap:round; stroke-linejoin:round; "
 transform="translate(0 0) scale(1 1)">
</g>
<g style="fill:#000000; fill-opacity:0.0; 
stroke:#000000; stroke-width:39.3701; stroke-opacity:1; 
stroke-linecap:round; stroke-linejoin:round;">
<path d="M4000 4000
L106000 4000
L106000 81000
L4000 81000
L4000 4000
" />
<path d="M4700 4700
L105300 4700
L105300 80300
L4700 80300
L4700 4700
" />
<path d="M24400 4000
L24400 4700
" />
<path d="M14342 4552
L14057 4552
" />
<path d="M14200 4552
L14200 4052
L14152 4123
L14104 4171
L14057 4195
" />
<path d="M24400 81000
L24400 80300
" />
<path d="M14342 80852
L14057 80852
" />
<path d="M14200 80852
L14200 80352
L14152 80423
L14104 80471
L14057 80495
" />
<path d="M44800 4000
L44800 4700
" />
<path d="M34457 4100
L34480 4076
L34528 4052
L34647 4052
L34695 4076
L34719 4100
L34742 4147
L34742 4195
L34719 4266
L34433 4552
L34742 4552
" />
<path d="M44800 81000
L44800 80300
" />
<path d="M34457 80400
L34480 80376
L34528 80352
L34647 80352
L34695 80376
L34719 80400
L34742 80447
L34742 80495
L34719 80566
L34433 80852
L34742 80852
" />
<path d="M65200 4000
L65200 4700
" />
<path d="M54833 4052
L55142 4052
L54976 4242
L55047 4242
L55095 4266
L55119 4290
L55142 4338
L55142 4457
L55119 4504
L55095 4528
L55047 4552
L54904 4552
L54857 4528
L54833 4504
" />
<path d="M65200 81000
L65200 80300
" />
<path d="M54833 80352
L55142 80352
L54976 80542
L55047 80542
L55095 80566
L55119 80590
L55142 80638
L55142 80757
L55119 80804
L55095 80828
L55047 80852
L54904 80852
L54857 80828
L54833 80804
" />
<path d="M85600 4000
L85600 4700
" />
<path d="M75495 4219
L75495 4552
" />
<path d="M75376 4028
L75257 4385
L75566 4385
" />
<path d="M85600 81000
L85600 80300
" />
<path d="M75495 80519
L75495 80852
" />
<path d="M75376 80328
L75257 80685
L75566 80685
" />
<path d="M95919 4052
L95680 4052
L95657 4290
L95680 4266
L95728 4242
L95847 4242
L95895 4266
L95919 4290
L95942 4338
L95942 4457
L95919 4504
L95895 4528
L95847 4552
L95728 4552
L95680 4528
L95657 4504
" />
<path d="M95919 80352
L95680 80352
L95657 80590
L95680 80566
L95728 80542
L95847 80542
L95895 80566
L95919 80590
L95942 80638
L95942 80757
L95919 80804
L95895 80828
L95847 80852
L95728 80852
L95680 80828
L95657 80804
" />
<path d="M4000 29660
L4700 29660
" />
<path d="M4230 16889
L4469 16889
" />
<path d="M4183 17032
L4350 16532
L4516 17032
" />
<path d="M106000 29660
L105300 29660
" />
<path d="M105530 16889
L105769 16889
" />
<path d="M105483 17032
L105650 16532
L105816 17032
" />
<path d="M4000 55320
L4700 55320
" />
<path d="M4385 42430
L4457 42454
L4480 42478
L4504 42525
L4504 42597
L4480 42644
L4457 42668
L4409 42692
L4219 42692
L4219 42192
L4385 42192
L4433 42216
L4457 42240
L4480 42287
L4480 42335
L4457 42382
L4433 42406
L4385 42430
L4219 42430
" />
<path d="M106000 55320
L105300 55320
" />
<path d="M105685 42430
L105757 42454
L105780 42478
L105804 42525
L105804 42597
L105780 42644
L105757 42668
L105709 42692
L105519 42692
L105519 42192
L105685 42192
L105733 42216
L105757 42240
L105780 42287
L105780 42335
L105757 42382
L105733 42406
L105685 42430
L105519 42430
" />
<path d="M4504 68304
L4480 68328
L4409 68352
L4361 68352
L4290 68328
L4242 68280
L4219 68233
L4195 68138
L4195 68066
L4219 67971
L4242 67923
L4290 67876
L4361 67852
L4409 67852
L4480 67876
L4504 67900
" />
<path d="M105804 68304
L105780 68328
L105709 68352
L105661 68352
L105590 68328
L105542 68280
L105519 68233
L105495 68138
L105495 68066
L105519 67971
L105542 67923
L105590 67876
L105661 67852
L105709 67852
L105780 67876
L105804 67900
" />
<path d="M72450 78742
L72525 78142
L72667 78142
L72750 78171
L72800 78228
L72821 78285
L72835 78400
L72825 78485
L72782 78600
L72746 78657
L72682 78714
L72592 78742
L72450 78742
" />
<path d="M73307 78742
L73346 78428
L73325 78371
L73271 78342
L73157 78342
L73096 78371
" />
<path d="M73310 78714
L73250 78742
L73107 78742
L73053 78714
L73032 78657
L73039 78600
L73075 78542
L73135 78514
L73278 78514
L73339 78485
" />
<path d="M73557 78342
L73785 78342
" />
<path d="M73667 78142
L73603 78657
L73625 78714
L73678 78742
L73735 78742
" />
<path d="M74167 78714
L74107 78742
L73992 78742
L73939 78714
L73917 78657
L73946 78428
L73982 78371
L74042 78342
L74157 78342
L74210 78371
L74232 78428
L74225 78485
L73932 78542
" />
<path d="M74457 78685
L74482 78714
L74450 78742
L74425 78714
L74457 78685
L74450 78742
" />
<path d="M74496 78371
L74521 78400
L74489 78428
L74464 78400
L74496 78371
L74489 78428
" />
<path d="M64042 79942
L64042 79342
" />
<path d="M64385 79942
L64128 79600
" />
<path d="M64385 79342
L64042 79685
" />
<path d="M64642 79942
L64642 79542
" />
<path d="M64642 79342
L64614 79371
L64642 79400
L64671 79371
L64642 79342
L64642 79400
" />
<path d="M65271 79885
L65242 79914
L65157 79942
L65100 79942
L65014 79914
L64957 79857
L64928 79800
L64900 79685
L64900 79600
L64928 79485
L64957 79428
L65014 79371
L65100 79342
L65157 79342
L65242 79371
L65271 79400
" />
<path d="M65785 79942
L65785 79628
L65757 79571
L65700 79542
L65585 79542
L65528 79571
" />
<path d="M65785 79914
L65728 79942
L65585 79942
L65528 79914
L65500 79857
L65500 79800
L65528 79742
L65585 79714
L65728 79714
L65785 79685
" />
<path d="M66328 79942
L66328 79342
" />
<path d="M66328 79914
L66271 79942
L66157 79942
L66100 79914
L66071 79885
L66042 79828
L66042 79657
L66071 79600
L66100 79571
L66157 79542
L66271 79542
L66328 79571
" />
<path d="M67071 79628
L67271 79628
" />
<path d="M67357 79942
L67071 79942
L67071 79342
L67357 79342
" />
<path d="M67614 79885
L67642 79914
L67614 79942
L67585 79914
L67614 79885
L67614 79942
" />
<path d="M67899 79942
L67899 79342
L68042 79342
L68128 79371
L68185 79428
L68214 79485
L68242 79600
L68242 79685
L68214 79800
L68185 79857
L68128 79914
L68042 79942
L67899 79942
" />
<path d="M68499 79885
L68528 79914
L68499 79942
L68471 79914
L68499 79885
L68499 79942
" />
<path d="M68757 79771
L69042 79771
" />
<path d="M68699 79942
L68899 79342
L69099 79942
" />
<path d="M69299 79885
L69328 79914
L69299 79942
L69271 79914
L69299 79885
L69299 79942
" />
<path d="M97592 78742
L97428 78457
" />
<path d="M97250 78742
L97325 78142
L97553 78142
L97607 78171
L97632 78200
L97653 78257
L97642 78342
L97607 78400
L97575 78428
L97514 78457
L97285 78457
" />
<path d="M98082 78714
L98021 78742
L97907 78742
L97853 78714
L97832 78657
L97860 78428
L97896 78371
L97957 78342
L98071 78342
L98125 78371
L98146 78428
L98139 78485
L97846 78542
" />
<path d="M98357 78342
L98450 78742
L98642 78342
" />
<path d="M98828 78685
L98853 78714
L98821 78742
L98796 78714
L98828 78685
L98821 78742
" />
<path d="M98867 78371
L98892 78400
L98860 78428
L98835 78400
L98867 78371
L98860 78428
" />
<path d="M64014 78714
L64100 78742
L64242 78742
L64300 78714
L64328 78685
L64357 78628
L64357 78571
L64328 78514
L64300 78485
L64242 78457
L64128 78428
L64071 78400
L64042 78371
L64014 78314
L64014 78257
L64042 78200
L64071 78171
L64128 78142
L64271 78142
L64357 78171
" />
<path d="M64614 78742
L64614 78342
" />
<path d="M64614 78142
L64585 78171
L64614 78200
L64642 78171
L64614 78142
L64614 78200
" />
<path d="M64842 78342
L65157 78342
L64842 78742
L65157 78742
" />
<path d="M65614 78714
L65557 78742
L65442 78742
L65385 78714
L65357 78657
L65357 78428
L65385 78371
L65442 78342
L65557 78342
L65614 78371
L65642 78428
L65642 78485
L65357 78542
" />
<path d="M65900 78685
L65928 78714
L65900 78742
L65871 78714
L65900 78685
L65900 78742
" />
<path d="M65900 78371
L65928 78400
L65900 78428
L65871 78400
L65900 78371
L65900 78428
" />
<path d="M66614 78571
L66900 78571
" />
<path d="M66557 78742
L66757 78142
L66957 78742
" />
<path d="M97242 79942
L97242 79342
" />
<path d="M97785 79942
L97785 79342
" />
<path d="M97785 79914
L97728 79942
L97614 79942
L97557 79914
L97528 79885
L97500 79828
L97500 79657
L97528 79600
L97557 79571
L97614 79542
L97728 79542
L97785 79571
" />
<path d="M98071 79885
L98100 79914
L98071 79942
L98042 79914
L98071 79885
L98071 79942
" />
<path d="M98071 79571
L98100 79600
L98071 79628
L98042 79600
L98071 79571
L98071 79628
" />
<path d="M99128 79942
L98785 79942
" />
<path d="M98957 79942
L98957 79342
L98899 79428
L98842 79485
L98785 79514
" />
<path d="M99814 79314
L99300 80085
" />
<path d="M100328 79942
L99985 79942
" />
<path d="M100157 79942
L100157 79342
L100099 79428
L100042 79485
L99985 79514
" />
<path d="M64039 76942
L64382 76942
" />
<path d="M64135 77542
L64210 76942
" />
<path d="M64507 77542
L64557 77142
" />
<path d="M64582 76942
L64550 76971
L64575 77000
L64607 76971
L64582 76942
L64575 77000
" />
<path d="M64757 77142
L64985 77142
" />
<path d="M64867 76942
L64803 77457
L64825 77514
L64878 77542
L64935 77542
" />
<path d="M65221 77542
L65167 77514
L65146 77457
L65210 76942
" />
<path d="M65682 77514
L65621 77542
L65507 77542
L65453 77514
L65432 77457
L65460 77228
L65496 77171
L65557 77142
L65671 77142
L65725 77171
L65746 77228
L65739 77285
L65446 77342
" />
<path d="M65971 77485
L65996 77514
L65964 77542
L65939 77514
L65971 77485
L65964 77542
" />
<path d="M66010 77171
L66035 77200
L66003 77228
L65978 77200
L66010 77171
L66003 77228
" />
<path d="M64242 74828
L64042 74828
" />
<path d="M64042 75142
L64042 74542
L64328 74542
" />
<path d="M64557 75142
L64557 74742
" />
<path d="M64557 74542
L64528 74571
L64557 74600
L64585 74571
L64557 74542
L64557 74600
" />
<path d="M64928 75142
L64871 75114
L64842 75057
L64842 74542
" />
<path d="M65385 75114
L65328 75142
L65214 75142
L65157 75114
L65128 75057
L65128 74828
L65157 74771
L65214 74742
L65328 74742
L65385 74771
L65414 74828
L65414 74885
L65128 74942
" />
<path d="M65671 75085
L65700 75114
L65671 75142
L65642 75114
L65671 75085
L65671 75142
" />
<path d="M65671 74771
L65700 74800
L65671 74828
L65642 74800
L65671 74771
L65671 74828
" />
<path d="M66414 74828
L66614 74828
" />
<path d="M66700 75142
L66414 75142
L66414 74542
L66700 74542
" />
<path d="M66871 74742
L67100 74742
" />
<path d="M66957 74542
L66957 75057
L66985 75114
L67042 75142
L67100 75142
" />
<path d="M67300 75142
L67300 74542
" />
<path d="M67557 75142
L67557 74828
L67528 74771
L67471 74742
L67385 74742
L67328 74771
L67300 74800
" />
<path d="M67842 75142
L67842 74542
L68042 74971
L68242 74542
L68242 75142
" />
<path d="M68614 75142
L68557 75114
L68528 75085
L68500 75028
L68500 74857
L68528 74800
L68557 74771
L68614 74742
L68700 74742
L68757 74771
L68785 74800
L68814 74857
L68814 75028
L68785 75085
L68757 75114
L68700 75142
L68614 75142
" />
<path d="M68985 74742
L69214 74742
" />
<path d="M69071 74542
L69071 75057
L69100 75114
L69157 75142
L69214 75142
" />
<path d="M69499 75142
L69442 75114
L69414 75085
L69385 75028
L69385 74857
L69414 74800
L69442 74771
L69499 74742
L69585 74742
L69642 74771
L69671 74800
L69699 74857
L69699 75028
L69671 75085
L69642 75114
L69585 75142
L69499 75142
" />
<path d="M69957 75142
L69957 74742
" />
<path d="M69957 74857
L69985 74800
L70014 74771
L70071 74742
L70128 74742
" />
<path d="M70300 75114
L70357 75142
L70471 75142
L70528 75114
L70557 75057
L70557 75028
L70528 74971
L70471 74942
L70385 74942
L70328 74914
L70300 74857
L70300 74828
L70328 74771
L70385 74742
L70471 74742
L70528 74771
" />
<path d="M70671 75200
L71128 75200
" />
<path d="M71271 75142
L71271 74542
L71414 74542
L71500 74571
L71557 74628
L71585 74685
L71614 74800
L71614 74885
L71585 75000
L71557 75057
L71500 75114
L71414 75142
L71271 75142
" />
<path d="M72214 75142
L72014 74857
" />
<path d="M71871 75142
L71871 74542
L72100 74542
L72157 74571
L72185 74600
L72214 74657
L72214 74742
L72185 74800
L72157 74828
L72100 74857
L71871 74857
" />
<path d="M72385 74542
L72585 75142
L72785 74542
" />
<path d="M73071 74800
L73014 74771
L72985 74742
L72957 74685
L72957 74657
L72985 74600
L73014 74571
L73071 74542
L73185 74542
L73242 74571
L73271 74600
L73300 74657
L73300 74685
L73271 74742
L73242 74771
L73185 74800
L73071 74800
L73014 74828
L72985 74857
L72957 74914
L72957 75028
L72985 75085
L73014 75114
L73071 75142
L73185 75142
L73242 75114
L73271 75085
L73300 75028
L73300 74914
L73271 74857
L73242 74828
L73185 74800
" />
<path d="M73642 74800
L73585 74771
L73557 74742
L73528 74685
L73528 74657
L73557 74600
L73585 74571
L73642 74542
L73757 74542
L73814 74571
L73842 74600
L73871 74657
L73871 74685
L73842 74742
L73814 74771
L73757 74800
L73642 74800
L73585 74828
L73557 74857
L73528 74914
L73528 75028
L73557 75085
L73585 75114
L73642 75142
L73757 75142
L73814 75114
L73842 75085
L73871 75028
L73871 74914
L73842 74857
L73814 74828
L73757 74800
" />
<path d="M74071 74542
L74442 74542
L74242 74771
L74328 74771
L74385 74800
L74414 74828
L74442 74885
L74442 75028
L74414 75085
L74385 75114
L74328 75142
L74157 75142
L74100 75114
L74071 75085
" />
<path d="M74957 74542
L74842 74542
L74785 74571
L74757 74600
L74700 74685
L74671 74800
L74671 75028
L74700 75085
L74728 75114
L74785 75142
L74900 75142
L74957 75114
L74985 75085
L75014 75028
L75014 74885
L74985 74828
L74957 74800
L74900 74771
L74785 74771
L74728 74800
L74700 74828
L74671 74885
" />
<path d="M75128 75200
L75585 75200
" />
<path d="M75728 75142
L75728 74742
" />
<path d="M75728 74857
L75757 74800
L75785 74771
L75842 74742
L75900 74742
" />
<path d="M76328 75114
L76271 75142
L76157 75142
L76100 75114
L76071 75057
L76071 74828
L76100 74771
L76157 74742
L76271 74742
L76328 74771
L76357 74828
L76357 74885
L76071 74942
" />
<path d="M76557 74742
L76700 75142
L76842 74742
" />
<path d="M77185 74542
L77242 74542
L77300 74571
L77328 74600
L77357 74657
L77385 74771
L77385 74914
L77357 75028
L77328 75085
L77300 75114
L77242 75142
L77185 75142
L77128 75114
L77100 75085
L77071 75028
L77042 74914
L77042 74771
L77071 74657
L77100 74600
L77128 74571
L77185 74542
" />
<path d="M77957 75142
L77614 75142
" />
<path d="M77785 75142
L77785 74542
L77728 74628
L77671 74685
L77614 74714
" />
<path d="M78214 75085
L78242 75114
L78214 75142
L78185 75114
L78214 75085
L78214 75142
" />
<path d="M78500 75142
L78500 74542
" />
<path d="M78557 74914
L78728 75142
" />
<path d="M78728 74742
L78500 74971
" />
<path d="M78985 75142
L78985 74742
" />
<path d="M78985 74542
L78957 74571
L78985 74600
L79014 74571
L78985 74542
L78985 74600
" />
<path d="M79528 75114
L79471 75142
L79357 75142
L79300 75114
L79271 75085
L79242 75028
L79242 74857
L79271 74800
L79300 74771
L79357 74742
L79471 74742
L79528 74771
" />
<path d="M80042 75142
L80042 74828
L80014 74771
L79957 74742
L79842 74742
L79785 74771
" />
<path d="M80042 75114
L79985 75142
L79842 75142
L79785 75114
L79757 75057
L79757 75000
L79785 74942
L79842 74914
L79985 74914
L80042 74885
" />
<path d="M80585 75142
L80585 74542
" />
<path d="M80585 75114
L80528 75142
L80414 75142
L80357 75114
L80328 75085
L80300 75028
L80300 74857
L80328 74800
L80357 74771
L80414 74742
L80528 74742
L80585 74771
" />
<path d="M80728 75200
L81185 75200
" />
<path d="M81328 74742
L81328 75342
" />
<path d="M81328 74771
L81385 74742
L81500 74742
L81557 74771
L81585 74800
L81614 74857
L81614 75028
L81585 75085
L81557 75114
L81500 75142
L81385 75142
L81328 75114
" />
<path d="M82128 75114
L82071 75142
L81957 75142
L81900 75114
L81871 75085
L81842 75028
L81842 74857
L81871 74800
L81900 74771
L81957 74742
L82071 74742
L82128 74771
" />
<path d="M82385 75142
L82385 74542
" />
<path d="M82385 74771
L82442 74742
L82557 74742
L82614 74771
L82642 74800
L82671 74857
L82671 75028
L82642 75085
L82614 75114
L82557 75142
L82442 75142
L82385 75114
" />
<path d="M64014 76314
L64100 76342
L64242 76342
L64300 76314
L64328 76285
L64357 76228
L64357 76171
L64328 76114
L64300 76085
L64242 76057
L64128 76028
L64071 76000
L64042 75971
L64014 75914
L64014 75857
L64042 75800
L64071 75771
L64128 75742
L64271 75742
L64357 75771
" />
<path d="M64614 76342
L64614 75742
" />
<path d="M64871 76342
L64871 76028
L64842 75971
L64785 75942
L64700 75942
L64642 75971
L64614 76000
" />
<path d="M65385 76314
L65328 76342
L65214 76342
L65157 76314
L65128 76257
L65128 76028
L65157 75971
L65214 75942
L65328 75942
L65385 75971
L65414 76028
L65414 76085
L65128 76142
" />
<path d="M65900 76314
L65842 76342
L65728 76342
L65671 76314
L65642 76257
L65642 76028
L65671 75971
L65728 75942
L65842 75942
L65900 75971
L65928 76028
L65928 76085
L65642 76142
" />
<path d="M66100 75942
L66328 75942
" />
<path d="M66185 75742
L66185 76257
L66214 76314
L66271 76342
L66328 76342
" />
<path d="M66528 76285
L66557 76314
L66528 76342
L66500 76314
L66528 76285
L66528 76342
" />
<path d="M66528 75971
L66557 76000
L66528 76028
L66500 76000
L66528 75971
L66528 76028
" />
<path d="M63300 74300
L63300 80300
" />
<path d="M63300 74300
L105300 74300
" />
<path d="M63300 74300
L105300 74300
" />
<path d="M63300 76700
L105300 76700
" />
<path d="M96500 77900
L96500 80300
" />
<path d="M63300 79100
L105300 79100
" />
<path d="M63300 77900
L105300 77900
" />
<path d="M69900 77900
L69900 79100
" />
</g>
<g style="fill:#FFFF00; fill-opacity:0.0; 
stroke:#FFFF00; stroke-width:39.3701; stroke-opacity:1; 
stroke-linecap:round; stroke-linejoin:round;">
<path d="M73228 21259
L33858 21259
" />
<path d="M33858 42125
L73228 42125
" />
<path d="M33858 42125
L33858 21259
" />
<path d="M73228 21259
L73228 42125
" />
</g>
<g style="fill:#7F7F00; fill-opacity:0.0; 
stroke:#7F7F00; stroke-width:39.3701; stroke-opacity:1; 
stroke-linecap:round; stroke-linejoin:round;">
</g>
<g style="fill:#7F7F00; fill-opacity:1.0; 
stroke:#7F7F00; stroke-width:39.3701; stroke-opacity:1; 
stroke-linecap:round; stroke-linejoin:round;">
<circle cx="36811.3" cy="28070.9" r="373.815" /> 
<circle cx="35039.3" cy="28070.9" r="373.815" /> 
<circle cx="50003.9" cy="35208.7" r="98.4252" /> 
<circle cx="49703.9" cy="34908.7" r="98.4252" /> 
<circle cx="49703.9" cy="35508.7" r="98.4252" /> 
<circle cx="50303.9" cy="34908.7" r="98.4252" /> 
<circle cx="50303.9" cy="35508.7" r="98.4252" /> 
</g>
<g style="fill:#009F00; fill-opacity:1.0; 
stroke:#009F00; stroke-width:39.3701; stroke-opacity:1; 
stroke-linecap:round; stroke-linejoin:round;">
<polyline style="fill-rule:evenodd;"
points="49531,35680
49531,34736
50476,34736
50476,35680
49531,35680
" /> 
</g>
<g style="fill:#7F7F00; fill-opacity:1.0; 
stroke:#7F7F00; stroke-width:39.3701; stroke-opacity:1; 
stroke-linecap:round; stroke-linejoin:round;">
<circle cx="35681.1" cy="38389.8" r="767.717" /> 
<circle cx="35681.1" cy="33389.8" r="767.717" /> 
<circle cx="69488.2" cy="22637.8" r="570.866" /> 
<circle cx="36220.5" cy="22637.8" r="570.866" /> 
<circle cx="38385.8" cy="40748" r="570.866" /> 
</g>
<g style="fill:#BFBFBF; fill-opacity:1.0; 
stroke:#BFBFBF; stroke-width:39.3701; stroke-opacity:1; 
stroke-linecap:round; stroke-linejoin:round;">
<circle cx="55984.3" cy="40964.6" r="118.11" /> 
<circle cx="63937" cy="36653.5" r="118.11" /> 
<circle cx="54527.6" cy="34842.5" r="118.11" /> 
<circle cx="65629.9" cy="36574.8" r="118.11" /> 
<circle cx="67126" cy="30039.4" r="118.11" /> 
<circle cx="42677.2" cy="41102.4" r="118.11" /> 
<circle cx="54685" cy="29173.2" r="118.11" /> 
<circle cx="47854.3" cy="29232.3" r="118.11" /> 
<circle cx="40728.3" cy="31673.2" r="118.11" /> 
<circle cx="53011.8" cy="35177.2" r="118.11" /> 
<circle cx="51732.3" cy="41102.4" r="118.11" /> 
<circle cx="54980.3" cy="40807.1" r="118.11" /> 
<circle cx="62362.2" cy="34448.8" r="118.11" /> 
<circle cx="62677.2" cy="30984.3" r="118.11" /> 
<circle cx="48334.6" cy="33925.2" r="118.11" /> 
<circle cx="48385.8" cy="36673.2" r="118.11" /> 
<circle cx="52480.3" cy="33346.5" r="118.11" /> 
<circle cx="61220.5" cy="33661.4" r="118.11" /> 
<circle cx="52578.7" cy="33917.3" r="118.11" /> 
<circle cx="56594.5" cy="33228.3" r="118.11" /> 
<circle cx="52440.9" cy="36614.2" r="118.11" /> 
<circle cx="51909.4" cy="33090.6" r="118.11" /> 
<circle cx="53563" cy="34822.8" r="118.11" /> 
<circle cx="54133.9" cy="38444.9" r="118.11" /> 
<circle cx="59133.9" cy="41259.8" r="118.11" /> 
<circle cx="53267.7" cy="32519.7" r="118.11" /> 
<circle cx="62933.1" cy="36692.9" r="118.11" /> 
<circle cx="60393.7" cy="32322.8" r="118.11" /> 
<circle cx="63070.9" cy="34527.6" r="118.11" /> 
<circle cx="65078.7" cy="41003.9" r="118.11" /> 
<circle cx="65354.3" cy="35826.8" r="118.11" /> 
<circle cx="65275.6" cy="30275.6" r="118.11" /> 
<circle cx="52677.2" cy="29665.4" r="118.11" /> 
<circle cx="46889.8" cy="29901.6" r="118.11" /> 
<circle cx="58326.8" cy="38011.8" r="118.11" /> 
<circle cx="59734.3" cy="28887.8" r="118.11" /> 
<circle cx="51968.5" cy="41732.3" r="118.11" /> 
<circle cx="50196.9" cy="40413.4" r="118.11" /> 
<circle cx="46082.7" cy="33700.8" r="118.11" /> 
<circle cx="44901.6" cy="39448.8" r="118.11" /> 
<circle cx="39133.9" cy="31850.4" r="118.11" /> 
<circle cx="48228.3" cy="31850.4" r="118.11" /> 
<circle cx="46889.8" cy="36141.7" r="118.11" /> 
<circle cx="52992.1" cy="37145.7" r="118.11" /> 
<circle cx="52460.6" cy="34468.5" r="118.11" /> 
<circle cx="51515.7" cy="40492.1" r="118.11" /> 
<circle cx="48897.6" cy="33602.4" r="118.11" /> 
<circle cx="53582.7" cy="36614.2" r="118.11" /> 
<circle cx="53681.1" cy="35433.1" r="118.11" /> 
<circle cx="52519.7" cy="38681.1" r="118.11" /> 
<circle cx="48956.7" cy="32815" r="118.11" /> 
<circle cx="45728.3" cy="39350.4" r="118.11" /> 
<circle cx="45039.4" cy="32598.4" r="118.11" /> 
<circle cx="52992.1" cy="38346.5" r="118.11" /> 
<circle cx="49881.9" cy="32598.4" r="118.11" /> 
<circle cx="57834.6" cy="30039.4" r="118.11" /> 
<circle cx="63189" cy="32559.1" r="118.11" /> 
<circle cx="54921.3" cy="30354.3" r="118.11" /> 
<circle cx="62716.5" cy="32716.5" r="118.11" /> 
<circle cx="45078.7" cy="30078.7" r="118.11" /> 
<circle cx="62204.7" cy="32874" r="118.11" /> 
<circle cx="60098.4" cy="38425.2" r="118.11" /> 
<circle cx="61476.4" cy="38267.7" r="118.11" /> 
<circle cx="61692.9" cy="38779.5" r="118.11" /> 
<circle cx="59783.5" cy="38878" r="118.11" /> 
<circle cx="63169.3" cy="30413.4" r="118.11" /> 
<circle cx="58425.2" cy="30059.1" r="118.11" /> 
<circle cx="47783.5" cy="34196.9" r="118.11" /> 
<circle cx="46074.8" cy="37110.2" r="118.11" /> 
<circle cx="47984.3" cy="34826.8" r="118.11" /> 
<circle cx="46114.2" cy="37771.7" r="118.11" /> 
</g>
<g style="fill:#009F00; fill-opacity:1.0; 
stroke:#009F00; stroke-width:137.795; stroke-opacity:1; 
stroke-linecap:round; stroke-linejoin:round;">
<path d="M55472 40570
L54980 40807
" />
</g>
<g style="fill:#009F00; fill-opacity:1.0; 
stroke:#009F00; stroke-width:157.48; stroke-opacity:1; 
stroke-linecap:round; stroke-linejoin:round;">
<path d="M55669 40551
L55472 40570
" />
<path d="M55984 40964
L55669 40551
" />
</g>
<g style="fill:#009F00; fill-opacity:1.0; 
stroke:#009F00; stroke-width:137.795; stroke-opacity:1; 
stroke-linecap:round; stroke-linejoin:round;">
<path d="M53011 35177
L53011 34586
" />
<path d="M54212 34665
L54527 34842
" />
<path d="M53897 34468
L54212 34665
" />
<path d="M53602 34271
L53897 34468
" />
<path d="M53149 34251
L53602 34271
" />
<path d="M53011 34586
L53149 34251
" />
</g>
<g style="fill:#009F00; fill-opacity:1.0; 
stroke:#009F00; stroke-width:157.48; stroke-opacity:1; 
stroke-linecap:round; stroke-linejoin:round;">
<path d="M63582 36574
L63582 35944
" />
</g>
<g style="fill:#009F00; fill-opacity:1.0; 
stroke:#009F00; stroke-width:98.4252; stroke-opacity:1; 
stroke-linecap:round; stroke-linejoin:round;">
<path d="M63396 33200
L63396 33200
" />
</g>
<g style="fill:#009F00; fill-opacity:1.0; 
stroke:#009F00; stroke-width:157.48; stroke-opacity:1; 
stroke-linecap:round; stroke-linejoin:round;">
<path d="M64094 33897
L63396 33200
" />
<path d="M64094 35433
L64094 33897
" />
<path d="M63582 35944
L64094 35433
" />
<path d="M63582 36574
L63937 36653
" />
<path d="M63937 36653
L65629 36574
" />
</g>
<g style="fill:#009F00; fill-opacity:1.0; 
stroke:#009F00; stroke-width:275.591; stroke-opacity:1; 
stroke-linecap:round; stroke-linejoin:round;">
<path d="M65098 26161
L63011 26161
" />
<path d="M67125 30039
L65098 26161
" />
</g>
<g style="fill:#009F00; fill-opacity:1.0; 
stroke:#009F00; stroke-width:157.48; stroke-opacity:1; 
stroke-linecap:round; stroke-linejoin:round;">
<path d="M62677 30984
L63385 30944
" />
<path d="M63385 30944
L63602 30728
" />
</g>
<g style="fill:#009F00; fill-opacity:1.0; 
stroke:#009F00; stroke-width:275.591; stroke-opacity:1; 
stroke-linecap:round; stroke-linejoin:round;">
<path d="M55137 29173
L54685 29173
" />
</g>
<g style="fill:#009F00; fill-opacity:1.0; 
stroke:#009F00; stroke-width:157.48; stroke-opacity:1; 
stroke-linecap:round; stroke-linejoin:round;">
<path d="M63700 29744
L63602 30728
" />
</g>
<g style="fill:#009F00; fill-opacity:1.0; 
stroke:#009F00; stroke-width:275.591; stroke-opacity:1; 
stroke-linecap:round; stroke-linejoin:round;">
<path d="M63011 26161
L63700 29744
" />
<path d="M55944 26161
L63011 26161
" />
<path d="M55137 29173
L55944 26161
" />
</g>
<g style="fill:#009F00; fill-opacity:1.0; 
stroke:#009F00; stroke-width:157.48; stroke-opacity:1; 
stroke-linecap:round; stroke-linejoin:round;">
<path d="M54980 40807
L55078 40728
" />
<path d="M55078 40728
L55078 41220
" />
<path d="M55078 41220
L51732 41102
" />
</g>
<g style="fill:#009F00; fill-opacity:1.0; 
stroke:#009F00; stroke-width:275.591; stroke-opacity:1; 
stroke-linecap:round; stroke-linejoin:round;">
<path d="M42716 41102
L42677 41102
" />
<path d="M47854 29232
L48267 26299
" />
<path d="M54625 29232
L54685 29173
" />
<path d="M53996 26299
L54625 29232
" />
<path d="M48267 26299
L53996 26299
" />
<path d="M40728 31673
L40728 31496
" />
<path d="M42716 26397
L47027 26397
" />
<path d="M47027 26397
L47854 29232
" />
<path d="M40728 31496
L42716 26397
" />
<path d="M39448 38366
L42677 41102
" />
<path d="M39448 32952
L39448 38366
" />
<path d="M40728 31673
L39448 32952
" />
</g>
<g style="fill:#009F00; fill-opacity:1.0; 
stroke:#009F00; stroke-width:157.48; stroke-opacity:1; 
stroke-linecap:round; stroke-linejoin:round;">
<path d="M53641 40570
L51732 41102
" />
<path d="M53601 37381
L53641 40570
" />
<path d="M53228 36771
L53601 37381
" />
<path d="M53110 35885
L53228 36771
" />
<path d="M53011 35177
L53110 35885
" />
<path d="M63396 33200
L62362 34448
" />
<path d="M62677 30984
L63228 31417
" />
<path d="M63672 32666
L63396 33200
" />
<path d="M63672 32666
L63228 31417
" />
<path d="M48334 33925
L48385 36673
" />
<path d="M61220 33661
L60078 33405
" />
<path d="M60078 33405
L57303 33228
" />
<path d="M57303 33228
L56653 32795
" />
<path d="M56653 32795
L52480 33346
" />
<path d="M53818 33582
L56594 33228
" />
<path d="M52578 33917
L53818 33582
" />
<path d="M52440 36614
L52129 35043
" />
<path d="M52129 35043
L51909 33090
" />
<path d="M54133 38444
L54527 35393
" />
<path d="M54527 35393
L53562 34822
" />
</g>
<g style="fill:#009F00; fill-opacity:1.0; 
stroke:#009F00; stroke-width:98.4252; stroke-opacity:1; 
stroke-linecap:round; stroke-linejoin:round;">
<path d="M53267 32519
L53267 32539
" />
</g>
<g style="fill:#009F00; fill-opacity:1.0; 
stroke:#009F00; stroke-width:157.48; stroke-opacity:1; 
stroke-linecap:round; stroke-linejoin:round;">
<path d="M52657 29685
L52677 29665
" />
<path d="M47106 29685
L52657 29685
" />
<path d="M46889 29901
L47106 29685
" />
</g>
<g style="fill:#009F00; fill-opacity:1.0; 
stroke:#009F00; stroke-width:98.4252; stroke-opacity:1; 
stroke-linecap:round; stroke-linejoin:round;">
<path d="M58326 38011
L58326 38001
" />
</g>
<g style="fill:#009F00; fill-opacity:1.0; 
stroke:#009F00; stroke-width:275.591; stroke-opacity:1; 
stroke-linecap:round; stroke-linejoin:round;">
<path d="M51968 41712
L51968 41732
" />
</g>
<g style="fill:#009F00; fill-opacity:1.0; 
stroke:#009F00; stroke-width:196.85; stroke-opacity:1; 
stroke-linecap:round; stroke-linejoin:round;">
<path d="M48228 31850
L48228 31811
" />
</g>
<g style="fill:#009F00; fill-opacity:1.0; 
stroke:#009F00; stroke-width:275.591; stroke-opacity:1; 
stroke-linecap:round; stroke-linejoin:round;">
<path d="M46889 36141
L46889 36153
" />
</g>
<g style="fill:#009F00; fill-opacity:1.0; 
stroke:#009F00; stroke-width:157.48; stroke-opacity:1; 
stroke-linecap:round; stroke-linejoin:round;">
<path d="M52460 34468
L52464 34423
" />
<path d="M52464 34423
L52598 35334
" />
<path d="M52598 35334
L52854 36377
" />
<path d="M52854 36377
L52992 37145
" />
</g>
<g style="fill:#009F00; fill-opacity:1.0; 
stroke:#009F00; stroke-width:118.11; stroke-opacity:1; 
stroke-linecap:round; stroke-linejoin:round;">
<path d="M51515 40492
L51421 37964
" />
<path d="M51421 37964
L50748 33838
" />
<path d="M50748 33838
L48897 33602
" />
<path d="M53582 36614
L53681 35433
" />
<path d="M52519 38681
L51948 37421
" />
<path d="M51968 37440
L51562 36283
" />
<path d="M51141 33562
L48956 32814
" />
<path d="M51562 36283
L51141 33562
" />
</g>
<g style="fill:#009F00; fill-opacity:1.0; 
stroke:#009F00; stroke-width:98.4252; stroke-opacity:1; 
stroke-linecap:round; stroke-linejoin:round;">
<path d="M45728 39350
L45685 39307
" />
</g>
<g style="fill:#009F00; fill-opacity:1.0; 
stroke:#009F00; stroke-width:157.48; stroke-opacity:1; 
stroke-linecap:round; stroke-linejoin:round;">
<path d="M45122 38917
L45122 34657
" />
<path d="M45685 39307
L45122 38917
" />
<path d="M45122 34657
L45039 32598
" />
</g>
<g style="fill:#009F00; fill-opacity:1.0; 
stroke:#009F00; stroke-width:118.11; stroke-opacity:1; 
stroke-linecap:round; stroke-linejoin:round;">
<path d="M52992 38346
L52637 37814
" />
<path d="M52637 37814
L52043 36696
" />
<path d="M52043 36696
L51484 33551
" />
<path d="M51419 33162
L49881 32598
" />
</g>
<g style="fill:#009F00; fill-opacity:1.0; 
stroke:#009F00; stroke-width:157.48; stroke-opacity:1; 
stroke-linecap:round; stroke-linejoin:round;">
<path d="M51484 33551
L51419 33162
" />
<path d="M57834 30511
L57834 30039
" />
<path d="M58346 31023
L57834 30511
" />
<path d="M62007 31023
L58346 31023
" />
<path d="M63188 32559
L62007 31023
" />
<path d="M55078 30196
L54921 30354
" />
<path d="M56299 30196
L55078 30196
" />
<path d="M57559 31456
L56299 30196
" />
<path d="M61692 31456
L57559 31456
" />
<path d="M62716 32716
L61692 31456
" />
<path d="M45708 30078
L45078 30078
" />
<path d="M46456 30826
L45708 30078
" />
<path d="M55669 30826
L46456 30826
" />
<path d="M56692 31850
L55669 30826
" />
<path d="M61181 31850
L56692 31850
" />
<path d="M62204 32874
L61181 31850
" />
</g>
<g style="fill:#009F00; fill-opacity:1.0; 
stroke:#009F00; stroke-width:137.795; stroke-opacity:1; 
stroke-linecap:round; stroke-linejoin:round;">
<path d="M60098 38425
L60334 38267
" />
<path d="M60334 38267
L61476 38267
" />
<path d="M59803 38897
L61692 38779
" />
</g>
<g style="fill:#009F00; fill-opacity:1.0; 
stroke:#009F00; stroke-width:98.4252; stroke-opacity:1; 
stroke-linecap:round; stroke-linejoin:round;">
<path d="M59783 38877
L59803 38897
" />
</g>
<g style="fill:#009F00; fill-opacity:1.0; 
stroke:#009F00; stroke-width:157.48; stroke-opacity:1; 
stroke-linecap:round; stroke-linejoin:round;">
<path d="M58425 30059
L59547 30406
" />
<path d="M61555 30327
L63169 30413
" />
<path d="M59547 30406
L61555 30327
" />
</g>
<g style="fill:#009F00; fill-opacity:1.0; 
stroke:#009F00; stroke-width:98.4252; stroke-opacity:1; 
stroke-linecap:round; stroke-linejoin:round;">
<path d="M58425 30059
L58425 30039
" />
</g>
<g style="fill:#009F00; fill-opacity:1.0; 
stroke:#009F00; stroke-width:157.48; stroke-opacity:1; 
stroke-linecap:round; stroke-linejoin:round;">
<path d="M46905 37110
L46074 37110
" />
<path d="M47586 36850
L46905 37110
" />
<path d="M47586 34598
L47586 36850
" />
<path d="M47783 34196
L47586 34598
" />
<path d="M47173 37771
L46114 37771
" />
<path d="M47988 37228
L47173 37771
" />
<path d="M47968 34842
L47988 37228
" />
</g>
<g style="fill:#009F00; fill-opacity:1.0; 
stroke:#009F00; stroke-width:98.4252; stroke-opacity:1; 
stroke-linecap:round; stroke-linejoin:round;">
<path d="M47984 34826
L47968 34842
" />
</g>
<g style="fill:#009F00; fill-opacity:1.0; 
stroke:#009F00; stroke-width:39.3701; stroke-opacity:1; 
stroke-linecap:round; stroke-linejoin:round;">
<polyline style="fill-rule:evenodd;"
points="72922,41820
70365,41820
70365,22464
70231,22141
69985,21894
69663,21761
69314,21760
68992,21894
68745,22140
68611,22462
68611,22811
68744,23133
68990,23380
69313,23514
69661,23514
69984,23381
70231,23135
70364,22812
70365,22464
70365,41820
67550,41820
67550,29955
67485,29799
67471,29785
65474,25964
65433,25914
65398,25861
65382,25850
65370,25836
65314,25805
65260,25769
65241,25765
65225,25756
65161,25749
65098,25737
63011,25737
55944,25737
55917,25742
55889,25741
55837,25758
55782,25769
55759,25785
55732,25794
55691,25830
55645,25861
55629,25884
55608,25903
55583,25953
55553,25999
55547,26026
55535,26051
54892,28451
54410,26210
54395,26174
54387,26136
54362,26099
54344,26058
54317,26031
54295,25999
54258,25974
54226,25943
54190,25928
54158,25907
54114,25898
54072,25882
54033,25882
53996,25875
48267,25875
48215,25885
48161,25888
48134,25901
48105,25907
48060,25937
48012,25960
47992,25982
47967,25999
47938,26043
47902,26083
47892,26112
47875,26136
47865,26189
47847,26240
47709,27221
47434,26278
47423,26258
47419,26235
47385,26185
47358,26132
47340,26117
47327,26097
47277,26064
47231,26025
47209,26018
47189,26005
47130,25994
47073,25976
47050,25978
47027,25973
42716,25973
42712,25974
42707,25973
42631,25990
42554,26005
42550,26008
42546,26009
42481,26054
42416,26097
42414,26101
42410,26104
42368,26170
42324,26235
42323,26239
42321,26243
40333,31342
40319,31419
40304,31496
40304,31497
39148,32652
39057,32790
39024,32952
39024,38366
39028,38383
39026,38401
39044,38464
39057,38528
39066,38543
39071,38560
39112,38611
39148,38665
39163,38675
39174,38689
42389,41414
42436,41461
42514,41494
42592,41526
42677,41526
42761,41526
42802,41509
42878,41494
43016,41402
43108,41264
43140,41102
43108,40940
43016,40802
42878,40710
42868,40708
39872,38169
39872,33128
41027,31973
41028,31973
41087,31913
41120,31835
41152,31757
41152,31673
41152,31589
41152,31589
41152,31575
43006,26821
46709,26821
47430,29292
47430,29316
47494,29472
47613,29591
47769,29656
47938,29656
48094,29591
48213,29472
48278,29316
48278,29262
48636,26723
53653,26723
54211,29321
54226,29356
54234,29394
54259,29431
54277,29473
54304,29500
54326,29532
54363,29557
54395,29588
54431,29602
54463,29624
54507,29632
54549,29649
54588,29648
54625,29656
54670,29647
54715,29646
54750,29631
54788,29624
54825,29599
54829,29597
55137,29597
55165,29591
55193,29593
55245,29575
55300,29564
55323,29549
55349,29540
55391,29503
55437,29473
55453,29449
55474,29431
55498,29381
55529,29335
55534,29308
55547,29282
56270,26585
62661,26585
63284,29824
63317,29906
63307,30011
63254,29989
63085,29989
62969,30037
61575,29962
61558,29965
61541,29962
59595,30038
58740,29774
58665,29699
58509,29635
58341,29634
58185,29699
58139,29744
58075,29680
57919,29615
57750,29615
57594,29679
57475,29798
57410,29954
57410,30123
57469,30266
57469,30511
57497,30651
57576,30769
57898,31091
57710,31091
56557,29938
56438,29859
56299,29831
55078,29831
54939,29859
54827,29934
54681,29994
54562,30113
54497,30269
54497,30438
54506,30461
46607,30461
45966,29820
45848,29741
45708,29713
45305,29713
45163,29654
44994,29654
44838,29719
44719,29838
44654,29994
44654,30162
44719,30318
44838,30437
44994,30502
45162,30502
45305,30443
45557,30443
46198,31084
46317,31163
46317,31163
46456,31191
55518,31191
56434,32108
56553,32187
56553,32187
56692,32215
61029,32215
61786,32971
61845,33113
61964,33233
62120,33297
62288,33298
62444,33233
62563,33114
62564,33112
62631,33140
62800,33140
62956,33076
63065,32967
63099,32980
63090,32997
62219,34048
62122,34089
62002,34208
61938,34364
61938,34532
62002,34688
62121,34808
62277,34872
62446,34872
62602,34808
62721,34689
62786,34533
62786,34509
63422,33741
63729,34048
63729,35281
63324,35686
63245,35805
63217,35944
63217,36574
63223,36606
63223,36637
63237,36675
63245,36714
63263,36740
63274,36770
63302,36799
63324,36832
63351,36850
63373,36873
63409,36889
63443,36911
63474,36918
63503,36931
63646,36962
63696,37012
63852,37077
64020,37077
64176,37013
64182,37007
65426,36949
65545,36998
65713,36998
65869,36934
65989,36815
66053,36659
66054,36490
65989,36334
65870,36215
65714,36150
65545,36150
65390,36215
65384,36220
64140,36278
64021,36229
63947,36229
63947,36096
64352,35691
64431,35572
64431,35572
64459,35433
64459,33897
64431,33757
64431,33757
64352,33639
63843,33130
63996,32833
63998,32827
64002,32822
64018,32759
64036,32696
64035,32690
64037,32684
64027,32620
64020,32555
64017,32549
64016,32543
63572,31294
63556,31268
63555,31265
63592,31236
63643,31202
63860,30986
63890,30942
63923,30900
63929,30883
63939,30868
63949,30815
63965,30764
64042,29990
64051,29981
64116,29829
64117,29664
63525,26585
64841,26585
66741,30218
66766,30279
66885,30398
67041,30463
67209,30463
67365,30399
67485,30279
67549,30124
67550,29955
67550,41820
62423,41820
62423,39668
62350,39490
62214,39354
62117,39313
62117,38695
62052,38539
61933,38420
61881,38398
61900,38352
61900,38183
61836,38027
61716,37908
61644,37878
61644,33577
61580,33421
61460,33302
61305,33237
61136,33237
61087,33257
60158,33049
60129,33048
60101,33041
57424,32870
56855,32491
56801,32468
56747,32442
56735,32441
56724,32437
56664,32437
56605,32433
53266,32874
52447,32539
49965,31893
49386,31851
49114,32421
49041,32391
48872,32390
48716,32455
48597,32574
48532,32730
48532,32898
48597,33054
48716,33174
48769,33196
48657,33242
48538,33361
48473,33517
48473,33523
48419,33501
48250,33501
48094,33565
47975,33684
47928,33797
47868,33772
47699,33772
47543,33837
47424,33956
47359,34112
47359,34232
47258,34437
47255,34449
47249,34458
47237,34517
47222,34575
47223,34586
47221,34598
47221,36599
46838,36745
46301,36745
46159,36686
45990,36686
45834,36750
45715,36869
45650,37025
45650,37194
45715,37350
45825,37460
45754,37531
45690,37686
45690,37855
45754,38011
45873,38130
46029,38195
46198,38195
46341,38136
47173,38136
47208,38129
47244,38129
47277,38115
47312,38108
47342,38088
47375,38075
48190,37532
48217,37505
48248,37484
48267,37455
48291,37431
48305,37396
48326,37365
48332,37331
48346,37299
48346,37262
48353,37225
48352,37097
48469,37097
48625,37032
48745,36913
48809,36757
48809,36589
48746,36435
48703,34142
48758,34009
48758,34003
48812,34026
48981,34026
49102,33976
50448,34148
50693,35647
50959,38189
51090,38349
51161,40247
51156,40251
51091,40407
51091,40576
51156,40731
51275,40851
51362,40887
51308,41017
51308,41186
51372,41342
51491,41461
51647,41526
51816,41526
51940,41474
55065,41585
55072,41584
55078,41585
55142,41572
55206,41562
55211,41558
55218,41557
55272,41521
55327,41487
55331,41482
55336,41478
55372,41424
55410,41371
55412,41365
55415,41360
55428,41296
55443,41233
55442,41226
55443,41220
55443,40978
55511,40946
55560,41010
55560,41048
55624,41204
55743,41323
55899,41388
56068,41388
56224,41324
56343,41205
56408,41049
56408,40880
56343,40724
56224,40605
56143,40571
55959,40329
55927,40301
55900,40268
55874,40255
55852,40235
55812,40221
55774,40201
55745,40198
55718,40189
55675,40192
55632,40188
55436,40207
55299,40249
55269,40274
55082,40364
55078,40363
55028,40373
54977,40377
54967,40383
54896,40382
54740,40447
54621,40566
54556,40722
54556,40836
53910,40814
53928,40786
53959,40750
53967,40726
53980,40706
53989,40659
54004,40614
54002,40590
54006,40566
54002,40207
55984,37793
55636,35313
55952,33975
55398,33748
56426,33617
56509,33652
56678,33652
56834,33588
56953,33468
56965,33441
57100,33532
57123,33541
57142,33555
57188,33568
57232,33586
57256,33586
57279,33592
60026,33767
60929,33970
60979,34020
61135,34085
61304,34085
61460,34021
61579,33901
61644,33746
61644,33577
61644,37878
61561,37843
61392,37843
61236,37908
61231,37912
60334,37912
60300,37919
60265,37919
60233,37932
60198,37939
60169,37958
60137,37972
60094,38001
60014,38001
59858,38065
59739,38184
59674,38340
59674,38464
59543,38518
59424,38637
59359,38793
59359,38961
59423,39117
59542,39237
59698,39301
59797,39301
59671,39354
59535,39489
59461,39667
59461,39859
59535,40037
59670,40173
59848,40246
60040,40246
60218,40173
60354,40037
60427,39860
60427,39668
60354,39490
60218,39354
60041,39280
59919,39280
60017,39240
61476,39148
61608,39203
61776,39203
61932,39139
62052,39020
62116,38864
62117,38695
62117,39313
62037,39280
61845,39280
61667,39354
61531,39489
61457,39667
61457,39859
61531,40037
61666,40173
61844,40246
62036,40246
62214,40173
62350,40037
62423,39860
62423,39668
62423,41820
61423,41820
61423,39668
61350,39490
61214,39354
61037,39280
60845,39280
60667,39354
60531,39489
60457,39667
60457,39859
60531,40037
60666,40173
60844,40246
61036,40246
61214,40173
61350,40037
61423,39860
61423,39668
61423,41820
59427,41820
59427,39668
59354,39490
59218,39354
59041,39280
58849,39280
58671,39354
58535,39489
58461,39667
58461,39859
58535,40037
58670,40173
58848,40246
59040,40246
59218,40173
59354,40037
59427,39860
59427,39668
59427,41820
58431,41820
58431,39668
58358,39490
58222,39354
58045,39280
57853,39280
57675,39354
57539,39489
57465,39667
57465,39859
57539,40037
57674,40173
57852,40246
58044,40246
58222,40173
58358,40037
58431,39860
58431,39668
58431,41820
57431,41820
57431,39668
57358,39490
57222,39354
57045,39280
56853,39280
56675,39354
56539,39489
56465,39667
56465,39859
56539,40037
56674,40173
56852,40246
57044,40246
57222,40173
57358,40037
57431,39860
57431,39668
57431,41820
46152,41820
46152,39266
46088,39110
45968,38991
45813,38926
45776,38926
45487,38726
45487,34657
45485,34650
45486,34642
45412,32804
45463,32683
45463,32514
45399,32358
45279,32239
45124,32174
44955,32174
44799,32238
44680,32357
44615,32513
44615,32682
44679,32838
44683,32842
44757,34664
44757,38917
44763,38949
44762,38982
44777,39018
44784,39056
44803,39084
44815,39115
44842,39143
44863,39175
44891,39193
44914,39217
45334,39508
45368,39590
45487,39709
45643,39774
45812,39774
45968,39710
46087,39590
46152,39435
46152,39266
46152,41820
39262,41820
39262,40574
39129,40252
38883,40005
38560,39871
38212,39871
37889,40004
37642,40250
37509,40572
37508,40921
37642,41244
37888,41490
38210,41624
38559,41624
38881,41491
39128,41245
39262,40923
39262,40574
39262,41820
37491,41820
37491,27936
37387,27686
37196,27494
37097,27453
37097,22464
36964,22141
36717,21894
36395,21761
36046,21760
35724,21894
35477,22140
35343,22462
35343,22811
35476,23133
35723,23380
36045,23514
36394,23514
36716,23381
36963,23135
37097,22812
37097,22464
37097,27453
36947,27391
36676,27391
36426,27494
36235,27685
36131,27935
36131,28205
36234,28455
36425,28646
36675,28750
36945,28750
37195,28647
37387,28456
37490,28206
37491,27936
37491,41820
36754,41820
36754,38177
36754,33177
36591,32782
36290,32480
35895,32316
35719,32316
35719,27936
35615,27686
35424,27494
35175,27391
34904,27391
34654,27494
34463,27685
34359,27935
34359,28205
34462,28455
34653,28646
34903,28750
35173,28750
35423,28647
35615,28456
35718,28206
35719,27936
35719,32316
35468,32315
35073,32479
34771,32780
34607,33175
34607,33602
34770,33997
35072,34299
35466,34463
35893,34463
36288,34300
36590,33998
36754,33604
36754,33177
36754,38177
36591,37782
36290,37480
35895,37316
35468,37315
35073,37479
34771,37780
34607,38175
34607,38602
34770,38997
35072,39299
35466,39463
35893,39463
36288,39300
36590,38998
36754,38604
36754,38177
36754,41820
34164,41820
34164,21565
72922,21565
72922,41820
" /> 
</g>
<g style="fill:#009F00; fill-opacity:0.0; 
stroke:#009F00; stroke-width:100; stroke-opacity:1; 
stroke-linecap:round; stroke-linejoin:round;">
<polyline fill="none;"
points="72922,41820
70365,41820
70365,22464
70231,22141
69985,21894
69663,21761
69314,21760
68992,21894
68745,22140
68611,22462
68611,22811
68744,23133
68990,23380
69313,23514
69661,23514
69984,23381
70231,23135
70364,22812
70365,22464
70365,41820
67550,41820
67550,29955
67485,29799
67471,29785
65474,25964
65433,25914
65398,25861
65382,25850
65370,25836
65314,25805
65260,25769
65241,25765
65225,25756
65161,25749
65098,25737
63011,25737
55944,25737
55917,25742
55889,25741
55837,25758
55782,25769
55759,25785
55732,25794
55691,25830
55645,25861
55629,25884
55608,25903
55583,25953
55553,25999
55547,26026
55535,26051
54892,28451
54410,26210
54395,26174
54387,26136
54362,26099
54344,26058
54317,26031
54295,25999
54258,25974
54226,25943
54190,25928
54158,25907
54114,25898
54072,25882
54033,25882
53996,25875
48267,25875
48215,25885
48161,25888
48134,25901
48105,25907
48060,25937
48012,25960
47992,25982
47967,25999
47938,26043
47902,26083
47892,26112
47875,26136
47865,26189
47847,26240
47709,27221
47434,26278
47423,26258
47419,26235
47385,26185
47358,26132
47340,26117
47327,26097
47277,26064
47231,26025
47209,26018
47189,26005
47130,25994
47073,25976
47050,25978
47027,25973
42716,25973
42712,25974
42707,25973
42631,25990
42554,26005
42550,26008
42546,26009
42481,26054
42416,26097
42414,26101
42410,26104
42368,26170
42324,26235
42323,26239
42321,26243
40333,31342
40319,31419
40304,31496
40304,31497
39148,32652
39057,32790
39024,32952
39024,38366
39028,38383
39026,38401
39044,38464
39057,38528
39066,38543
39071,38560
39112,38611
39148,38665
39163,38675
39174,38689
42389,41414
42436,41461
42514,41494
42592,41526
42677,41526
42761,41526
42802,41509
42878,41494
43016,41402
43108,41264
43140,41102
43108,40940
43016,40802
42878,40710
42868,40708
39872,38169
39872,33128
41027,31973
41028,31973
41087,31913
41120,31835
41152,31757
41152,31673
41152,31589
41152,31589
41152,31575
43006,26821
46709,26821
47430,29292
47430,29316
47494,29472
47613,29591
47769,29656
47938,29656
48094,29591
48213,29472
48278,29316
48278,29262
48636,26723
53653,26723
54211,29321
54226,29356
54234,29394
54259,29431
54277,29473
54304,29500
54326,29532
54363,29557
54395,29588
54431,29602
54463,29624
54507,29632
54549,29649
54588,29648
54625,29656
54670,29647
54715,29646
54750,29631
54788,29624
54825,29599
54829,29597
55137,29597
55165,29591
55193,29593
55245,29575
55300,29564
55323,29549
55349,29540
55391,29503
55437,29473
55453,29449
55474,29431
55498,29381
55529,29335
55534,29308
55547,29282
56270,26585
62661,26585
63284,29824
63317,29906
63307,30011
63254,29989
63085,29989
62969,30037
61575,29962
61558,29965
61541,29962
59595,30038
58740,29774
58665,29699
58509,29635
58341,29634
58185,29699
58139,29744
58075,29680
57919,29615
57750,29615
57594,29679
57475,29798
57410,29954
57410,30123
57469,30266
57469,30511
57497,30651
57576,30769
57898,31091
57710,31091
56557,29938
56438,29859
56299,29831
55078,29831
54939,29859
54827,29934
54681,29994
54562,30113
54497,30269
54497,30438
54506,30461
46607,30461
45966,29820
45848,29741
45708,29713
45305,29713
45163,29654
44994,29654
44838,29719
44719,29838
44654,29994
44654,30162
44719,30318
44838,30437
44994,30502
45162,30502
45305,30443
45557,30443
46198,31084
46317,31163
46317,31163
46456,31191
55518,31191
56434,32108
56553,32187
56553,32187
56692,32215
61029,32215
61786,32971
61845,33113
61964,33233
62120,33297
62288,33298
62444,33233
62563,33114
62564,33112
62631,33140
62800,33140
62956,33076
63065,32967
63099,32980
63090,32997
62219,34048
62122,34089
62002,34208
61938,34364
61938,34532
62002,34688
62121,34808
62277,34872
62446,34872
62602,34808
62721,34689
62786,34533
62786,34509
63422,33741
63729,34048
63729,35281
63324,35686
63245,35805
63217,35944
63217,36574
63223,36606
63223,36637
63237,36675
63245,36714
63263,36740
63274,36770
63302,36799
63324,36832
63351,36850
63373,36873
63409,36889
63443,36911
63474,36918
63503,36931
63646,36962
63696,37012
63852,37077
64020,37077
64176,37013
64182,37007
65426,36949
65545,36998
65713,36998
65869,36934
65989,36815
66053,36659
66054,36490
65989,36334
65870,36215
65714,36150
65545,36150
65390,36215
65384,36220
64140,36278
64021,36229
63947,36229
63947,36096
64352,35691
64431,35572
64431,35572
64459,35433
64459,33897
64431,33757
64431,33757
64352,33639
63843,33130
63996,32833
63998,32827
64002,32822
64018,32759
64036,32696
64035,32690
64037,32684
64027,32620
64020,32555
64017,32549
64016,32543
63572,31294
63556,31268
63555,31265
63592,31236
63643,31202
63860,30986
63890,30942
63923,30900
63929,30883
63939,30868
63949,30815
63965,30764
64042,29990
64051,29981
64116,29829
64117,29664
63525,26585
64841,26585
66741,30218
66766,30279
66885,30398
67041,30463
67209,30463
67365,30399
67485,30279
67549,30124
67550,29955
67550,41820
62423,41820
62423,39668
62350,39490
62214,39354
62117,39313
62117,38695
62052,38539
61933,38420
61881,38398
61900,38352
61900,38183
61836,38027
61716,37908
61644,37878
61644,33577
61580,33421
61460,33302
61305,33237
61136,33237
61087,33257
60158,33049
60129,33048
60101,33041
57424,32870
56855,32491
56801,32468
56747,32442
56735,32441
56724,32437
56664,32437
56605,32433
53266,32874
52447,32539
49965,31893
49386,31851
49114,32421
49041,32391
48872,32390
48716,32455
48597,32574
48532,32730
48532,32898
48597,33054
48716,33174
48769,33196
48657,33242
48538,33361
48473,33517
48473,33523
48419,33501
48250,33501
48094,33565
47975,33684
47928,33797
47868,33772
47699,33772
47543,33837
47424,33956
47359,34112
47359,34232
47258,34437
47255,34449
47249,34458
47237,34517
47222,34575
47223,34586
47221,34598
47221,36599
46838,36745
46301,36745
46159,36686
45990,36686
45834,36750
45715,36869
45650,37025
45650,37194
45715,37350
45825,37460
45754,37531
45690,37686
45690,37855
45754,38011
45873,38130
46029,38195
46198,38195
46341,38136
47173,38136
47208,38129
47244,38129
47277,38115
47312,38108
47342,38088
47375,38075
48190,37532
48217,37505
48248,37484
48267,37455
48291,37431
48305,37396
48326,37365
48332,37331
48346,37299
48346,37262
48353,37225
48352,37097
48469,37097
48625,37032
48745,36913
48809,36757
48809,36589
48746,36435
48703,34142
48758,34009
48758,34003
48812,34026
48981,34026
49102,33976
50448,34148
50693,35647
50959,38189
51090,38349
51161,40247
51156,40251
51091,40407
51091,40576
51156,40731
51275,40851
51362,40887
51308,41017
51308,41186
51372,41342
51491,41461
51647,41526
51816,41526
51940,41474
55065,41585
55072,41584
55078,41585
55142,41572
55206,41562
55211,41558
55218,41557
55272,41521
55327,41487
55331,41482
55336,41478
55372,41424
55410,41371
55412,41365
55415,41360
55428,41296
55443,41233
55442,41226
55443,41220
55443,40978
55511,40946
55560,41010
55560,41048
55624,41204
55743,41323
55899,41388
56068,41388
56224,41324
56343,41205
56408,41049
56408,40880
56343,40724
56224,40605
56143,40571
55959,40329
55927,40301
55900,40268
55874,40255
55852,40235
55812,40221
55774,40201
55745,40198
55718,40189
55675,40192
55632,40188
55436,40207
55299,40249
55269,40274
55082,40364
55078,40363
55028,40373
54977,40377
54967,40383
54896,40382
54740,40447
54621,40566
54556,40722
54556,40836
53910,40814
53928,40786
53959,40750
53967,40726
53980,40706
53989,40659
54004,40614
54002,40590
54006,40566
54002,40207
55984,37793
55636,35313
55952,33975
55398,33748
56426,33617
56509,33652
56678,33652
56834,33588
56953,33468
56965,33441
57100,33532
57123,33541
57142,33555
57188,33568
57232,33586
57256,33586
57279,33592
60026,33767
60929,33970
60979,34020
61135,34085
61304,34085
61460,34021
61579,33901
61644,33746
61644,33577
61644,37878
61561,37843
61392,37843
61236,37908
61231,37912
60334,37912
60300,37919
60265,37919
60233,37932
60198,37939
60169,37958
60137,37972
60094,38001
60014,38001
59858,38065
59739,38184
59674,38340
59674,38464
59543,38518
59424,38637
59359,38793
59359,38961
59423,39117
59542,39237
59698,39301
59797,39301
59671,39354
59535,39489
59461,39667
59461,39859
59535,40037
59670,40173
59848,40246
60040,40246
60218,40173
60354,40037
60427,39860
60427,39668
60354,39490
60218,39354
60041,39280
59919,39280
60017,39240
61476,39148
61608,39203
61776,39203
61932,39139
62052,39020
62116,38864
62117,38695
62117,39313
62037,39280
61845,39280
61667,39354
61531,39489
61457,39667
61457,39859
61531,40037
61666,40173
61844,40246
62036,40246
62214,40173
62350,40037
62423,39860
62423,39668
62423,41820
61423,41820
61423,39668
61350,39490
61214,39354
61037,39280
60845,39280
60667,39354
60531,39489
60457,39667
60457,39859
60531,40037
60666,40173
60844,40246
61036,40246
61214,40173
61350,40037
61423,39860
61423,39668
61423,41820
59427,41820
59427,39668
59354,39490
59218,39354
59041,39280
58849,39280
58671,39354
58535,39489
58461,39667
58461,39859
58535,40037
58670,40173
58848,40246
59040,40246
59218,40173
59354,40037
59427,39860
59427,39668
59427,41820
58431,41820
58431,39668
58358,39490
58222,39354
58045,39280
57853,39280
57675,39354
57539,39489
57465,39667
57465,39859
57539,40037
57674,40173
57852,40246
58044,40246
58222,40173
58358,40037
58431,39860
58431,39668
58431,41820
57431,41820
57431,39668
57358,39490
57222,39354
57045,39280
56853,39280
56675,39354
56539,39489
56465,39667
56465,39859
56539,40037
56674,40173
56852,40246
57044,40246
57222,40173
57358,40037
57431,39860
57431,39668
57431,41820
46152,41820
46152,39266
46088,39110
45968,38991
45813,38926
45776,38926
45487,38726
45487,34657
45485,34650
45486,34642
45412,32804
45463,32683
45463,32514
45399,32358
45279,32239
45124,32174
44955,32174
44799,32238
44680,32357
44615,32513
44615,32682
44679,32838
44683,32842
44757,34664
44757,38917
44763,38949
44762,38982
44777,39018
44784,39056
44803,39084
44815,39115
44842,39143
44863,39175
44891,39193
44914,39217
45334,39508
45368,39590
45487,39709
45643,39774
45812,39774
45968,39710
46087,39590
46152,39435
46152,39266
46152,41820
39262,41820
39262,40574
39129,40252
38883,40005
38560,39871
38212,39871
37889,40004
37642,40250
37509,40572
37508,40921
37642,41244
37888,41490
38210,41624
38559,41624
38881,41491
39128,41245
39262,40923
39262,40574
39262,41820
37491,41820
37491,27936
37387,27686
37196,27494
37097,27453
37097,22464
36964,22141
36717,21894
36395,21761
36046,21760
35724,21894
35477,22140
35343,22462
35343,22811
35476,23133
35723,23380
36045,23514
36394,23514
36716,23381
36963,23135
37097,22812
37097,22464
37097,27453
36947,27391
36676,27391
36426,27494
36235,27685
36131,27935
36131,28205
36234,28455
36425,28646
36675,28750
36945,28750
37195,28647
37387,28456
37490,28206
37491,27936
37491,41820
36754,41820
36754,38177
36754,33177
36591,32782
36290,32480
35895,32316
35719,32316
35719,27936
35615,27686
35424,27494
35175,27391
34904,27391
34654,27494
34463,27685
34359,27935
34359,28205
34462,28455
34653,28646
34903,28750
35173,28750
35423,28647
35615,28456
35718,28206
35719,27936
35719,32316
35468,32315
35073,32479
34771,32780
34607,33175
34607,33602
34770,33997
35072,34299
35466,34463
35893,34463
36288,34300
36590,33998
36754,33604
36754,33177
36754,38177
36591,37782
36290,37480
35895,37316
35468,37315
35073,37479
34771,37780
34607,38175
34607,38602
34770,38997
35072,39299
35466,39463
35893,39463
36288,39300
36590,38998
36754,38604
36754,38177
36754,41820
34164,41820
34164,21565
72922,21565
72922,41820
" /> 
</g>
<g style="fill:#FFFFFF; fill-opacity:0.0; 
stroke:#FFFFFF; stroke-width:39.3701; stroke-opacity:1; 
stroke-linecap:round; stroke-linejoin:round;">
</g>
<g style="fill:#FFFFFF; fill-opacity:1.0; 
stroke:#FFFFFF; stroke-width:39.3701; stroke-opacity:1; 
stroke-linecap:round; stroke-linejoin:round;">
<circle cx="55984.3" cy="40964.6" r="59.0551" /> 
<circle cx="63937" cy="36653.5" r="59.0551" /> 
<circle cx="54527.6" cy="34842.5" r="59.0551" /> 
<circle cx="65629.9" cy="36574.8" r="59.0551" /> 
<circle cx="67126" cy="30039.4" r="59.0551" /> 
<circle cx="42677.2" cy="41102.4" r="59.0551" /> 
<circle cx="54685" cy="29173.2" r="59.0551" /> 
<circle cx="47854.3" cy="29232.3" r="59.0551" /> 
<circle cx="40728.3" cy="31673.2" r="59.0551" /> 
<circle cx="53011.8" cy="35177.2" r="59.0551" /> 
<circle cx="51732.3" cy="41102.4" r="59.0551" /> 
<circle cx="54980.3" cy="40807.1" r="59.0551" /> 
<circle cx="62362.2" cy="34448.8" r="59.0551" /> 
<circle cx="62677.2" cy="30984.3" r="59.0551" /> 
<circle cx="48334.6" cy="33925.2" r="59.0551" /> 
<circle cx="48385.8" cy="36673.2" r="59.0551" /> 
<circle cx="52480.3" cy="33346.5" r="59.0551" /> 
<circle cx="61220.5" cy="33661.4" r="59.0551" /> 
<circle cx="52578.7" cy="33917.3" r="59.0551" /> 
<circle cx="56594.5" cy="33228.3" r="59.0551" /> 
<circle cx="52440.9" cy="36614.2" r="59.0551" /> 
<circle cx="51909.4" cy="33090.6" r="59.0551" /> 
<circle cx="53563" cy="34822.8" r="59.0551" /> 
<circle cx="54133.9" cy="38444.9" r="59.0551" /> 
<circle cx="59133.9" cy="41259.8" r="59.0551" /> 
<circle cx="53267.7" cy="32519.7" r="59.0551" /> 
<circle cx="62933.1" cy="36692.9" r="59.0551" /> 
<circle cx="60393.7" cy="32322.8" r="59.0551" /> 
<circle cx="63070.9" cy="34527.6" r="59.0551" /> 
<circle cx="65078.7" cy="41003.9" r="59.0551" /> 
<circle cx="65354.3" cy="35826.8" r="59.0551" /> 
<circle cx="65275.6" cy="30275.6" r="59.0551" /> 
<circle cx="52677.2" cy="29665.4" r="59.0551" /> 
<circle cx="46889.8" cy="29901.6" r="59.0551" /> 
<circle cx="58326.8" cy="38011.8" r="59.0551" /> 
<circle cx="59734.3" cy="28887.8" r="59.0551" /> 
<circle cx="51968.5" cy="41732.3" r="59.0551" /> 
<circle cx="50196.9" cy="40413.4" r="59.0551" /> 
<circle cx="46082.7" cy="33700.8" r="59.0551" /> 
<circle cx="44901.6" cy="39448.8" r="59.0551" /> 
<circle cx="39133.9" cy="31850.4" r="59.0551" /> 
<circle cx="48228.3" cy="31850.4" r="59.0551" /> 
<circle cx="46889.8" cy="36141.7" r="59.0551" /> 
<circle cx="52992.1" cy="37145.7" r="59.0551" /> 
<circle cx="52460.6" cy="34468.5" r="59.0551" /> 
<circle cx="51515.7" cy="40492.1" r="59.0551" /> 
<circle cx="48897.6" cy="33602.4" r="59.0551" /> 
<circle cx="53582.7" cy="36614.2" r="59.0551" /> 
<circle cx="53681.1" cy="35433.1" r="59.0551" /> 
<circle cx="52519.7" cy="38681.1" r="59.0551" /> 
<circle cx="48956.7" cy="32815" r="59.0551" /> 
<circle cx="45728.3" cy="39350.4" r="59.0551" /> 
<circle cx="45039.4" cy="32598.4" r="59.0551" /> 
<circle cx="52992.1" cy="38346.5" r="59.0551" /> 
<circle cx="49881.9" cy="32598.4" r="59.0551" /> 
<circle cx="57834.6" cy="30039.4" r="59.0551" /> 
<circle cx="63189" cy="32559.1" r="59.0551" /> 
<circle cx="54921.3" cy="30354.3" r="59.0551" /> 
<circle cx="62716.5" cy="32716.5" r="59.0551" /> 
<circle cx="45078.7" cy="30078.7" r="59.0551" /> 
<circle cx="62204.7" cy="32874" r="59.0551" /> 
<circle cx="60098.4" cy="38425.2" r="59.0551" /> 
<circle cx="61476.4" cy="38267.7" r="59.0551" /> 
<circle cx="61692.9" cy="38779.5" r="59.0551" /> 
<circle cx="59783.5" cy="38878" r="59.0551" /> 
<circle cx="63169.3" cy="30413.4" r="59.0551" /> 
<circle cx="58425.2" cy="30059.1" r="59.0551" /> 
<circle cx="47783.5" cy="34196.9" r="59.0551" /> 
<circle cx="46074.8" cy="37110.2" r="59.0551" /> 
<circle cx="47984.3" cy="34826.8" r="59.0551" /> 
<circle cx="46114.2" cy="37771.7" r="59.0551" /> 
<circle cx="60940.8" cy="39763.8" r="177.165" /> 
<circle cx="61940.8" cy="39763.8" r="177.165" /> 
<circle cx="56948.8" cy="39763.8" r="177.165" /> 
<circle cx="57948.8" cy="39763.8" r="177.165" /> 
<circle cx="59944.8" cy="39763.8" r="177.165" /> 
<circle cx="58944.8" cy="39763.8" r="177.165" /> 
<circle cx="36811.3" cy="28070.9" r="314.815" /> 
<circle cx="35039.3" cy="28070.9" r="314.815" /> 
<circle cx="50003.9" cy="35208.7" r="98.425" /> 
<circle cx="49703.9" cy="34908.7" r="98.425" /> 
<circle cx="49703.9" cy="35508.7" r="98.425" /> 
<circle cx="50303.9" cy="34908.7" r="98.425" /> 
<circle cx="50303.9" cy="35508.7" r="98.425" /> 
<circle cx="35681.1" cy="38389.8" r="570.866" /> 
<circle cx="35681.1" cy="33389.8" r="570.866" /> 
<circle cx="69488.2" cy="22637.8" r="570.866" /> 
<circle cx="36220.5" cy="22637.8" r="570.866" /> 
<circle cx="38385.8" cy="40748" r="570.866" /> 
</g> 
</svg>
