G04 (created by PCBNEW (2013-08-24 BZR 4298)-stable) date Sat 23 Aug 2014 12:00:54 PM PDT*
%MOIN*%
G04 Gerber Fmt 3.4, Leading zero omitted, Abs format*
%FSLAX34Y34*%
G01*
G70*
G90*
G04 APERTURE LIST*
%ADD10C,0.005906*%
%ADD11R,0.144882X0.025512*%
%ADD12R,0.144882X0.019213*%
%ADD13R,0.122835X0.078740*%
%ADD14R,0.062960X0.062960*%
%ADD15R,0.007874X0.026772*%
%ADD16R,0.026772X0.007874*%
%ADD17R,0.225197X0.225197*%
%ADD18R,0.028320X0.031520*%
%ADD19R,0.031520X0.028320*%
%ADD20R,0.078720X0.078720*%
%ADD21O,0.007840X0.025200*%
%ADD22O,0.025200X0.007840*%
%ADD23R,0.031496X0.025197*%
%ADD24R,0.044000X0.028000*%
%ADD25R,0.080000X0.031200*%
%ADD26R,0.005906X0.007087*%
%ADD27R,0.005880X0.007087*%
%ADD28R,0.005880X0.007096*%
%ADD29R,0.047244X0.021260*%
%ADD30R,0.016560X0.005880*%
%ADD31R,0.007087X0.005906*%
%ADD32R,0.007087X0.005880*%
%ADD33R,0.007096X0.005880*%
%ADD34R,0.021260X0.047244*%
%ADD35R,0.005880X0.016560*%
%ADD36R,0.037795X0.034646*%
%ADD37R,0.157480X0.023937*%
%ADD38R,0.141732X0.277165*%
%ADD39R,0.007087X0.018898*%
%ADD40R,0.018898X0.007087*%
%ADD41R,0.075600X0.110240*%
%ADD42R,0.028000X0.044000*%
%ADD43R,0.200000X0.023937*%
%ADD44R,0.041732X0.041732*%
%ADD45R,0.000394X0.015748*%
%ADD46R,0.015748X0.000394*%
G04 APERTURE END LIST*
G54D10*
G54D11*
X43523Y-33291D03*
X43523Y-34015D03*
G54D12*
X43523Y-34488D03*
X43523Y-34889D03*
X43523Y-35692D03*
X43523Y-37291D03*
X43523Y-36488D03*
G54D11*
X43523Y-38488D03*
X43523Y-37763D03*
G54D12*
X43523Y-36090D03*
X43523Y-36889D03*
X43523Y-35291D03*
G54D13*
X35681Y-32228D03*
X35681Y-39551D03*
G54D14*
X35039Y-25940D03*
X37441Y-25940D03*
X35039Y-30202D03*
X37441Y-30202D03*
X34842Y-19641D03*
X37244Y-19641D03*
X34842Y-23903D03*
X37244Y-23903D03*
G54D15*
X59807Y-37259D03*
X60003Y-37259D03*
X58625Y-37259D03*
X58822Y-37259D03*
X59216Y-37259D03*
X59019Y-37259D03*
X59610Y-37259D03*
X59413Y-37259D03*
X57838Y-37259D03*
X58035Y-37259D03*
X58429Y-37259D03*
X58232Y-37259D03*
X57444Y-37259D03*
X57641Y-37259D03*
X57248Y-37259D03*
X57051Y-37259D03*
G54D16*
X56775Y-36984D03*
X56775Y-36787D03*
X56775Y-36393D03*
X56775Y-36590D03*
X56775Y-35803D03*
X56775Y-35606D03*
X56775Y-36000D03*
X56775Y-36196D03*
X56775Y-34622D03*
X56775Y-34425D03*
X56775Y-35015D03*
X56775Y-34818D03*
X56775Y-35212D03*
X56775Y-35409D03*
X56775Y-34031D03*
X56775Y-34228D03*
G54D15*
X57051Y-33755D03*
X57248Y-33755D03*
X57641Y-33755D03*
X57444Y-33755D03*
X58232Y-33755D03*
X58429Y-33755D03*
X58035Y-33755D03*
X57838Y-33755D03*
X59413Y-33755D03*
X59610Y-33755D03*
X59019Y-33755D03*
X59216Y-33755D03*
X58822Y-33755D03*
X58625Y-33755D03*
X60003Y-33755D03*
X59807Y-33755D03*
G54D16*
X60279Y-34228D03*
X60279Y-34031D03*
X60279Y-35409D03*
X60279Y-35212D03*
X60279Y-34818D03*
X60279Y-35007D03*
X60279Y-34425D03*
X60279Y-34622D03*
X60279Y-36196D03*
X60279Y-36000D03*
X60279Y-35606D03*
X60279Y-35803D03*
X60279Y-36590D03*
X60279Y-36393D03*
X60279Y-36787D03*
X60279Y-36984D03*
G54D17*
X58527Y-35507D03*
G54D18*
X52973Y-35787D03*
X52381Y-35787D03*
G54D19*
X47322Y-32578D03*
X47322Y-33170D03*
X51496Y-39272D03*
X51496Y-38680D03*
G54D20*
X50003Y-35208D03*
G54D21*
X49511Y-35995D03*
X49708Y-35995D03*
X49905Y-35995D03*
X50101Y-35995D03*
X50298Y-35995D03*
X50495Y-35995D03*
G54D22*
X50790Y-35700D03*
X50790Y-35503D03*
X50790Y-35306D03*
X50790Y-35110D03*
X50790Y-34913D03*
X50790Y-34716D03*
G54D21*
X50495Y-34421D03*
X50298Y-34421D03*
X50101Y-34421D03*
X49905Y-34421D03*
X49708Y-34421D03*
X49511Y-34421D03*
G54D22*
X49216Y-34716D03*
X49216Y-34913D03*
X49216Y-35110D03*
X49216Y-35306D03*
X49216Y-35503D03*
X49216Y-35700D03*
G54D18*
X47491Y-36114D03*
X48083Y-36114D03*
G54D19*
X52086Y-39272D03*
X52086Y-38680D03*
X50787Y-39233D03*
X50787Y-38641D03*
X48622Y-39233D03*
X48622Y-38641D03*
X48228Y-32578D03*
X48228Y-33170D03*
X62401Y-36711D03*
X62401Y-37303D03*
G54D18*
X53719Y-35669D03*
X54311Y-35669D03*
X62894Y-35000D03*
X62302Y-35000D03*
G54D19*
X59842Y-32499D03*
X59842Y-33091D03*
X58533Y-31081D03*
X58533Y-31673D03*
X60866Y-31614D03*
X60866Y-31022D03*
X59212Y-32499D03*
X59212Y-33091D03*
G54D18*
X54626Y-39035D03*
X54034Y-39035D03*
X54528Y-39763D03*
X53936Y-39763D03*
X54508Y-40393D03*
X53916Y-40393D03*
X54587Y-36377D03*
X53995Y-36377D03*
X54626Y-37007D03*
X54034Y-37007D03*
X54587Y-37716D03*
X53995Y-37716D03*
G54D19*
X46283Y-35051D03*
X46283Y-34459D03*
X46291Y-35664D03*
X46291Y-36256D03*
X45385Y-37134D03*
X45385Y-36542D03*
X45405Y-37822D03*
X45405Y-38414D03*
G54D18*
X44693Y-40208D03*
X44101Y-40208D03*
G54D19*
X57874Y-39861D03*
X57874Y-40453D03*
G54D18*
X45516Y-33295D03*
X44924Y-33295D03*
G54D19*
X45106Y-34512D03*
X45106Y-33920D03*
X58877Y-39920D03*
X58877Y-40512D03*
X40551Y-30020D03*
X40551Y-29428D03*
G54D23*
X59251Y-31633D03*
X60039Y-31633D03*
X59251Y-31043D03*
X60039Y-31043D03*
G54D18*
X42677Y-42047D03*
X42085Y-42047D03*
G54D24*
X54055Y-33563D03*
X54055Y-32813D03*
G54D18*
X63306Y-37185D03*
X63898Y-37185D03*
X52697Y-29055D03*
X52105Y-29055D03*
X60833Y-39090D03*
X61425Y-39090D03*
X62274Y-39531D03*
X62866Y-39531D03*
X66851Y-37086D03*
X66259Y-37086D03*
X66831Y-36397D03*
X66239Y-36397D03*
X66103Y-31850D03*
X65511Y-31850D03*
X65256Y-28051D03*
X64664Y-28051D03*
X58544Y-29074D03*
X57952Y-29074D03*
X58544Y-28385D03*
X57952Y-28385D03*
X52736Y-29685D03*
X52144Y-29685D03*
X61924Y-42440D03*
X62516Y-42440D03*
X65904Y-35029D03*
X66496Y-35029D03*
X65668Y-31200D03*
X66260Y-31200D03*
G54D19*
X55433Y-28642D03*
X55433Y-28050D03*
X44921Y-28483D03*
X44921Y-29075D03*
X42480Y-28050D03*
X42480Y-28642D03*
X48897Y-28721D03*
X48897Y-28129D03*
X44744Y-30217D03*
X44744Y-29625D03*
X40275Y-20847D03*
X40275Y-20255D03*
G54D25*
X40732Y-40472D03*
X42732Y-40472D03*
G54D24*
X46377Y-32341D03*
X46377Y-33091D03*
G54D26*
X42539Y-30255D03*
G54D27*
X43326Y-30255D03*
X42736Y-30255D03*
X43130Y-30255D03*
X42932Y-30255D03*
X43523Y-30255D03*
X43525Y-29586D03*
X42935Y-29586D03*
X43131Y-29586D03*
X42738Y-29586D03*
X43328Y-29586D03*
G54D28*
X42541Y-29586D03*
G54D29*
X43031Y-29921D03*
G54D30*
X43562Y-30019D03*
X43562Y-29823D03*
X42500Y-30019D03*
X42500Y-29823D03*
G54D26*
X56102Y-29625D03*
G54D27*
X56889Y-29625D03*
X56299Y-29625D03*
X56693Y-29625D03*
X56495Y-29625D03*
X57086Y-29625D03*
X57088Y-28956D03*
X56498Y-28956D03*
X56694Y-28956D03*
X56301Y-28956D03*
X56891Y-28956D03*
G54D28*
X56104Y-28956D03*
G54D29*
X56594Y-29291D03*
G54D30*
X57125Y-29389D03*
X57125Y-29193D03*
X56063Y-29389D03*
X56063Y-29193D03*
G54D31*
X65767Y-33366D03*
G54D32*
X65767Y-34153D03*
X65767Y-33563D03*
X65767Y-33957D03*
X65767Y-33759D03*
X65767Y-34350D03*
X66437Y-34352D03*
X66437Y-33762D03*
X66437Y-33958D03*
X66437Y-33565D03*
X66437Y-34155D03*
G54D33*
X66437Y-33368D03*
G54D34*
X66102Y-33858D03*
G54D35*
X66004Y-34389D03*
X66200Y-34389D03*
X66004Y-33327D03*
X66200Y-33327D03*
G54D31*
X65078Y-29488D03*
G54D32*
X65078Y-30275D03*
X65078Y-29685D03*
X65078Y-30079D03*
X65078Y-29881D03*
X65078Y-30472D03*
X65748Y-30474D03*
X65748Y-29884D03*
X65748Y-30080D03*
X65748Y-29687D03*
X65748Y-30277D03*
G54D33*
X65748Y-29490D03*
G54D34*
X65413Y-29980D03*
G54D35*
X65315Y-30511D03*
X65511Y-30511D03*
X65315Y-29449D03*
X65511Y-29449D03*
G54D31*
X61795Y-40677D03*
G54D32*
X61795Y-41464D03*
X61795Y-40874D03*
X61795Y-41268D03*
X61795Y-41070D03*
X61795Y-41661D03*
X62464Y-41663D03*
X62464Y-41073D03*
X62464Y-41269D03*
X62464Y-40876D03*
X62464Y-41466D03*
G54D33*
X62464Y-40679D03*
G54D34*
X62129Y-41169D03*
G54D35*
X62031Y-41700D03*
X62227Y-41700D03*
X62031Y-40638D03*
X62227Y-40638D03*
G54D26*
X49901Y-29547D03*
G54D27*
X50688Y-29547D03*
X50098Y-29547D03*
X50492Y-29547D03*
X50294Y-29547D03*
X50885Y-29547D03*
X50887Y-28877D03*
X50297Y-28877D03*
X50493Y-28877D03*
X50100Y-28877D03*
X50690Y-28877D03*
G54D28*
X49903Y-28877D03*
G54D29*
X50393Y-29212D03*
G54D30*
X50924Y-29310D03*
X50924Y-29114D03*
X49862Y-29310D03*
X49862Y-29114D03*
G54D36*
X50059Y-38661D03*
X49389Y-38661D03*
X50059Y-39212D03*
X49389Y-39212D03*
G54D18*
X44341Y-49576D03*
X43749Y-49576D03*
X44341Y-48789D03*
X43749Y-48789D03*
X45719Y-48946D03*
X45127Y-48946D03*
G54D37*
X41446Y-48464D03*
X41446Y-47464D03*
X41446Y-46464D03*
X41446Y-46964D03*
X41446Y-45964D03*
X41446Y-47964D03*
G54D38*
X35127Y-47214D03*
G54D39*
X45029Y-47903D03*
X44832Y-47903D03*
X44832Y-46899D03*
X45224Y-47903D03*
X45423Y-47903D03*
X45620Y-47903D03*
G54D40*
X45728Y-47598D03*
X45728Y-47415D03*
X45728Y-47204D03*
G54D39*
X45620Y-46899D03*
X45423Y-46899D03*
X45224Y-46899D03*
X45029Y-46899D03*
G54D40*
X44724Y-47204D03*
X44724Y-47407D03*
X44724Y-47598D03*
G54D41*
X70797Y-50236D03*
X70797Y-47676D03*
G54D42*
X67941Y-48996D03*
X68691Y-48996D03*
G54D43*
X64143Y-52559D03*
X64143Y-53559D03*
X64143Y-54559D03*
X64143Y-54059D03*
X64143Y-55059D03*
X64143Y-53059D03*
G54D44*
X66023Y-49281D03*
G54D45*
X65639Y-50029D03*
X65895Y-50029D03*
X66151Y-50029D03*
X66407Y-50029D03*
G54D46*
X66771Y-49665D03*
X66771Y-49409D03*
X66771Y-49153D03*
X66771Y-48897D03*
G54D45*
X66407Y-48533D03*
X66151Y-48533D03*
X65895Y-48533D03*
X65639Y-48533D03*
G54D46*
X65275Y-48897D03*
X65275Y-49153D03*
X65275Y-49409D03*
X65275Y-49665D03*
G54D18*
X68494Y-48129D03*
X67902Y-48129D03*
X64095Y-48287D03*
X63503Y-48287D03*
X64105Y-49429D03*
X63513Y-49429D03*
G54D19*
X67982Y-52243D03*
X67982Y-52835D03*
G54D18*
X66339Y-47401D03*
X65747Y-47401D03*
G54D19*
X68730Y-52223D03*
X68730Y-52815D03*
X67214Y-52835D03*
X67214Y-52243D03*
X64940Y-50560D03*
X64940Y-51152D03*
G54D40*
X37047Y-55118D03*
X37047Y-54921D03*
X38051Y-54921D03*
X37047Y-55312D03*
X37047Y-55511D03*
X37047Y-55708D03*
G54D39*
X37352Y-55816D03*
X37535Y-55816D03*
X37746Y-55816D03*
G54D40*
X38051Y-55708D03*
X38051Y-55511D03*
X38051Y-55312D03*
X38051Y-55118D03*
G54D39*
X37746Y-54812D03*
X37543Y-54812D03*
X37352Y-54812D03*
G54D37*
X40452Y-53946D03*
X40452Y-54946D03*
X40452Y-55946D03*
X40452Y-55446D03*
X40452Y-56446D03*
X40452Y-54446D03*
G54D38*
X46771Y-55196D03*
G54D19*
X36003Y-55807D03*
X36003Y-55215D03*
X37854Y-53760D03*
X37854Y-53168D03*
X37145Y-53760D03*
X37145Y-53168D03*
M02*
