M48
;DRILL file {Pcbnew (2013-08-24 BZR 4298)-stable} date Sat 23 Aug 2014 11:42:51 AM PDT
;FORMAT={-:-/ absolute / metric / decimal}
FMAT,2
METRIC,TZ
T1C0.300
T2C0.400
T3C0.600
T4C0.813
T5C1.000
%
G90
G05
M71
T1
X108.6Y-76.
X109.3Y-76.
X110.Y-76.
X127.3Y-74.2
X128.Y-74.2
X128.7Y-74.2
X143.05Y-74.4
X143.75Y-74.4
X144.45Y-74.4
X157.81Y-103.87
X157.81Y-104.57
X157.81Y-105.27
X166.15Y-75.45
X166.15Y-76.15
X166.15Y-76.85
X167.9Y-85.3
X167.9Y-86.
X167.9Y-86.7
T2
X90.4Y-63.1
X99.4Y-80.9
X103.45Y-80.45
X103.6Y-70.8
X103.8Y-72.2
X104.9Y-51.7
X105.9Y-71.
X106.6Y-75.9
X110.3Y-106.9
X110.5Y-72.4
X111.1Y-105.
X111.7Y-72.4
X114.05Y-100.2
X114.4Y-82.8
X115.8Y-72.3
X116.15Y-99.95
X117.03Y-94.26
X117.05Y-85.6
X117.13Y-95.94
X119.1Y-91.8
X120.7Y-71.2
X121.3Y-81.7
X121.37Y-86.86
X121.88Y-88.46
X122.77Y-86.17
X122.9Y-93.15
X124.2Y-85.35
X124.8Y-84.1
X125.Y-74.4
X125.Y-75.9
X125.5Y-96.6
X125.7Y-72.2
X126.1Y-52.1
X126.4Y-71.15
X126.5Y-83.3
X127.5Y-102.65
X129.2Y-72.3
X129.4Y-82.7
X130.2Y-72.3
X130.8Y-75.8
X131.6Y-84.3
X132.3Y-70.7
X132.8Y-81.9
X132.9Y-87.8
X133.5Y-102.
X134.Y-96.3
X134.6Y-92.3
X134.65Y-89.35
X134.8Y-84.4
X134.8Y-98.1
X135.Y-85.5
X135.2Y-100.8
X135.4Y-99.2
X135.6Y-73.8
X135.8Y-95.1
X135.9Y-92.4
X136.Y-87.3
X136.3Y-89.1
X137.2Y-82.2
X138.2Y-89.
X139.2Y-89.9
X139.5Y-70.8
X140.Y-91.1
X140.85Y-74.15
X140.9Y-96.5
X141.Y-52.8
X142.Y-71.95
X143.15Y-84.625
X143.7Y-71.85
X144.25Y-70.9
X145.8Y-73.5
X146.Y-103.9
X147.2Y-70.85
X147.5Y-104.1
X148.6Y-76.5
X149.05Y-99.65
X149.7Y-54.9
X150.5Y-73.9
X150.7Y-71.5
X152.82Y-102.16
X153.3Y-74.25
X153.4Y-82.1
X154.7Y-71.65
X154.9Y-96.1
X155.56Y-105.99
X155.8Y-108.4
X155.91Y-100.51
X156.1Y-97.05
X156.15Y-85.7
X156.6Y-70.75
X157.64Y-102.06
X158.1Y-83.9
X158.4Y-87.5
X159.1Y-78.9
X159.4Y-83.75
X159.85Y-93.2
X160.2Y-87.7
X160.5Y-83.45
X160.7Y-108.9
X160.9Y-102.9
X161.Y-80.8
X161.3Y-75.55
X161.3Y-106.3
X161.4Y-104.9
X161.401Y-96.986
X161.5Y-99.
X162.351Y-80.159
X162.4Y-93.1
X162.6Y-71.55
X163.85Y-55.05
X164.Y-79.3
X164.05Y-77.95
X164.2Y-81.55
X164.85Y-80.4
X164.86Y-91.15
X165.1Y-93.575
X165.28Y-90.13
X165.55Y-84.25
X166.3Y-73.85
X167.04Y-96.15
X167.25Y-82.15
X168.049Y-83.251
X168.5Y-71.15
X168.77Y-96.14
X169.1Y-54.85
X169.3Y-77.2
X169.48Y-82.38
X169.48Y-87.73
X169.5Y-52.6
X169.77Y-80.47
X169.95Y-90.825
X170.Y-75.6
X170.125Y-96.075
X170.35Y-86.96
T3
X126.248Y-88.668
X126.248Y-90.192
X127.01Y-89.43
X127.772Y-88.668
X127.772Y-90.192
T4
X128.65Y-105.81
X131.19Y-105.815
X133.72Y-105.81
X136.26Y-105.815
X138.79Y-105.81
X141.33Y-105.815
T5
X102.55Y-62.4
X105.05Y-62.4
X107.55Y-62.4
X110.05Y-62.4
X112.55Y-62.4
X115.05Y-62.4
X117.55Y-62.4
X120.05Y-62.4
X125.95Y-62.5
X128.45Y-62.5
X130.95Y-62.5
X133.45Y-62.5
X135.95Y-62.5
X138.45Y-62.5
X140.95Y-62.5
X143.45Y-62.5
X149.05Y-62.6
X151.55Y-62.6
X154.05Y-62.6
X156.55Y-62.6
X159.05Y-62.6
X161.55Y-62.6
X164.05Y-62.6
X165.15Y-104.4
X166.55Y-62.6
X167.65Y-104.4
X170.15Y-104.4
X172.65Y-104.4
X175.15Y-104.4
X177.65Y-104.4
X178.3Y-52.25
X178.3Y-54.75
X178.3Y-57.25
X178.3Y-59.75
X178.3Y-62.25
X178.3Y-64.75
X178.3Y-67.25
X178.3Y-69.75
X178.3Y-75.25
X178.3Y-77.75
X178.3Y-80.25
X178.3Y-82.75
X178.3Y-85.25
X178.3Y-87.75
X178.3Y-90.25
X178.3Y-92.75
X180.15Y-104.4
X182.65Y-104.4
T0
M30
