G04 (created by PCBNEW (2013-08-24 BZR 4298)-stable) date Mon 07 Oct 2013 08:26:35 PM PDT*
%MOIN*%
G04 Gerber Fmt 3.4, Leading zero omitted, Abs format*
%FSLAX34Y34*%
G01*
G70*
G90*
G04 APERTURE LIST*
%ADD10C,0.005000*%
%ADD11C,0.003937*%
%ADD12C,0.007874*%
%ADD13C,0.011811*%
G04 APERTURE END LIST*
G54D10*
G54D11*
X47500Y-25700D02*
X13000Y-25700D01*
X47500Y-51400D02*
X47500Y-25700D01*
X13000Y-51400D02*
X47500Y-51400D01*
X13000Y-25700D02*
X13000Y-51400D01*
G54D12*
X18008Y-30595D02*
X18258Y-30845D01*
X18258Y-30595D02*
X18008Y-30845D01*
X18941Y-27056D02*
X19191Y-27306D01*
X19191Y-27056D02*
X18941Y-27306D01*
X22355Y-46225D02*
X22605Y-46475D01*
X22605Y-46225D02*
X22355Y-46475D01*
X22914Y-39115D02*
X23164Y-39365D01*
X23164Y-39115D02*
X22914Y-39365D01*
X23524Y-43075D02*
X23774Y-43325D01*
X23774Y-43075D02*
X23524Y-43325D01*
X23756Y-35575D02*
X24006Y-35825D01*
X24006Y-35575D02*
X23756Y-35825D01*
X23843Y-42197D02*
X24093Y-42447D01*
X24093Y-42197D02*
X23843Y-42447D01*
X24859Y-44115D02*
X25109Y-44365D01*
X25109Y-44115D02*
X24859Y-44365D01*
X24953Y-40315D02*
X25203Y-40565D01*
X25203Y-40315D02*
X24953Y-40565D01*
X25575Y-43875D02*
X25825Y-44125D01*
X25825Y-43875D02*
X25575Y-44125D01*
X25674Y-39205D02*
X25924Y-39455D01*
X25924Y-39205D02*
X25674Y-39455D01*
X26300Y-37186D02*
X26550Y-37436D01*
X26550Y-37186D02*
X26300Y-37436D01*
X26725Y-44666D02*
X26975Y-44916D01*
X26975Y-44666D02*
X26725Y-44916D01*
X27477Y-40540D02*
X27727Y-40790D01*
X27727Y-40540D02*
X27477Y-40790D01*
X27650Y-45599D02*
X27900Y-45849D01*
X27900Y-45599D02*
X27650Y-45849D01*
X27859Y-31048D02*
X28109Y-31298D01*
X28109Y-31048D02*
X27859Y-31298D01*
X28052Y-41182D02*
X28302Y-41432D01*
X28302Y-41182D02*
X28052Y-41432D01*
X28646Y-40126D02*
X28896Y-40376D01*
X28896Y-40126D02*
X28646Y-40376D01*
X28792Y-41981D02*
X29042Y-42231D01*
X29042Y-41981D02*
X28792Y-42231D01*
X28855Y-26591D02*
X29105Y-26841D01*
X29105Y-26591D02*
X28855Y-26841D01*
X29146Y-39126D02*
X29396Y-39376D01*
X29396Y-39126D02*
X29146Y-39376D01*
X29355Y-38575D02*
X29605Y-38825D01*
X29605Y-38575D02*
X29355Y-38825D01*
X29394Y-38032D02*
X29644Y-38282D01*
X29644Y-38032D02*
X29394Y-38282D01*
X29422Y-41859D02*
X29672Y-42109D01*
X29672Y-41859D02*
X29422Y-42109D01*
X29626Y-31406D02*
X29876Y-31656D01*
X29876Y-31406D02*
X29626Y-31656D01*
X30103Y-36351D02*
X30353Y-36601D01*
X30353Y-36351D02*
X30103Y-36601D01*
X30115Y-46284D02*
X30365Y-46534D01*
X30365Y-46284D02*
X30115Y-46534D01*
X30394Y-32284D02*
X30644Y-32534D01*
X30644Y-32284D02*
X30394Y-32534D01*
X31004Y-30945D02*
X31254Y-31195D01*
X31254Y-30945D02*
X31004Y-31195D01*
X31119Y-26603D02*
X31369Y-26853D01*
X31369Y-26603D02*
X31119Y-26853D01*
X31583Y-35442D02*
X31833Y-35692D01*
X31833Y-35442D02*
X31583Y-35692D01*
X31906Y-26603D02*
X32156Y-26853D01*
X32156Y-26603D02*
X31906Y-26853D01*
X31906Y-45193D02*
X32156Y-45443D01*
X32156Y-45193D02*
X31906Y-45443D01*
X31973Y-30961D02*
X32223Y-31211D01*
X32223Y-30961D02*
X31973Y-31211D01*
X32040Y-34973D02*
X32290Y-35223D01*
X32290Y-34973D02*
X32040Y-35223D01*
X32556Y-36646D02*
X32806Y-36896D01*
X32806Y-36646D02*
X32556Y-36896D01*
X32930Y-36052D02*
X33180Y-36302D01*
X33180Y-36052D02*
X32930Y-36302D01*
X32993Y-45071D02*
X33243Y-45321D01*
X33243Y-45071D02*
X32993Y-45321D01*
X33103Y-37213D02*
X33353Y-37463D01*
X33353Y-37213D02*
X33103Y-37463D01*
X33115Y-37808D02*
X33365Y-38058D01*
X33365Y-37808D02*
X33115Y-38058D01*
X33579Y-34134D02*
X33829Y-34384D01*
X33829Y-34134D02*
X33579Y-34384D01*
X33882Y-45016D02*
X34132Y-45266D01*
X34132Y-45016D02*
X33882Y-45266D01*
X34414Y-35095D02*
X34664Y-35345D01*
X34664Y-35095D02*
X34414Y-35345D01*
X34729Y-35678D02*
X34979Y-35928D01*
X34979Y-35678D02*
X34729Y-35928D01*
X34878Y-28520D02*
X35128Y-28770D01*
X35128Y-28520D02*
X34878Y-28770D01*
X35225Y-43197D02*
X35475Y-43447D01*
X35475Y-43197D02*
X35225Y-43447D01*
X35315Y-49024D02*
X35565Y-49274D01*
X35565Y-49024D02*
X35315Y-49274D01*
X36961Y-42945D02*
X37211Y-43195D01*
X37211Y-42945D02*
X36961Y-43195D01*
X37016Y-46493D02*
X37266Y-46743D01*
X37266Y-46493D02*
X37016Y-46743D01*
X37060Y-30910D02*
X37310Y-31160D01*
X37310Y-30910D02*
X37060Y-31160D01*
X37528Y-45760D02*
X37778Y-46010D01*
X37778Y-45760D02*
X37528Y-46010D01*
X37764Y-42524D02*
X38014Y-42774D01*
X38014Y-42524D02*
X37764Y-42774D01*
X38075Y-37414D02*
X38325Y-37664D01*
X38325Y-37414D02*
X38075Y-37664D01*
X38453Y-46343D02*
X38703Y-46593D01*
X38703Y-46343D02*
X38453Y-46593D01*
X39083Y-44004D02*
X39333Y-44254D01*
X39333Y-44004D02*
X39083Y-44254D01*
X39953Y-45878D02*
X40203Y-46128D01*
X40203Y-45878D02*
X39953Y-46128D01*
X40178Y-44111D02*
X40428Y-44361D01*
X40428Y-44111D02*
X40178Y-44361D01*
X40284Y-38524D02*
X40534Y-38774D01*
X40534Y-38524D02*
X40284Y-38774D01*
X40646Y-45445D02*
X40896Y-45695D01*
X40896Y-45445D02*
X40646Y-45695D01*
X40965Y-36654D02*
X41215Y-36904D01*
X41215Y-36654D02*
X40965Y-36904D01*
X40973Y-31166D02*
X41223Y-31416D01*
X41223Y-31166D02*
X40973Y-31416D01*
X41079Y-44126D02*
X41329Y-44376D01*
X41329Y-44126D02*
X41079Y-44376D01*
X41264Y-42532D02*
X41514Y-42782D01*
X41514Y-42532D02*
X41264Y-42782D01*
X41504Y-39796D02*
X41754Y-40046D01*
X41754Y-39796D02*
X41504Y-40046D01*
X41875Y-44941D02*
X42125Y-45191D01*
X42125Y-44941D02*
X41875Y-45191D01*
X41886Y-34886D02*
X42136Y-35136D01*
X42136Y-34886D02*
X41886Y-35136D01*
X43445Y-37426D02*
X43695Y-37676D01*
X43695Y-37426D02*
X43445Y-37676D01*
X45548Y-37178D02*
X45798Y-37428D01*
X45798Y-37178D02*
X45548Y-37428D01*
X26475Y-41719D02*
G75*
G03X26475Y-41719I-157J0D01*
G74*
G01*
X26475Y-42319D02*
G75*
G03X26475Y-42319I-157J0D01*
G74*
G01*
X26775Y-42019D02*
G75*
G03X26775Y-42019I-157J0D01*
G74*
G01*
X27075Y-41719D02*
G75*
G03X27075Y-41719I-157J0D01*
G74*
G01*
X27075Y-42319D02*
G75*
G03X27075Y-42319I-157J0D01*
G74*
G01*
X19350Y-38908D02*
X19350Y-39259D01*
X19175Y-39084D02*
X19525Y-39084D01*
X19350Y-39908D02*
X19350Y-40259D01*
X19175Y-40084D02*
X19525Y-40084D01*
X19350Y-40908D02*
X19350Y-41259D01*
X19175Y-41084D02*
X19525Y-41084D01*
X19350Y-41904D02*
X19350Y-42255D01*
X19175Y-42080D02*
X19525Y-42080D01*
X20350Y-38398D02*
X20350Y-38749D01*
X20175Y-38574D02*
X20525Y-38574D01*
X20350Y-39398D02*
X20350Y-39749D01*
X20175Y-39574D02*
X20525Y-39574D01*
X20350Y-40398D02*
X20350Y-40749D01*
X20175Y-40574D02*
X20525Y-40574D01*
X20350Y-41394D02*
X20350Y-41745D01*
X20175Y-41570D02*
X20525Y-41570D01*
X37216Y-27747D02*
X37216Y-27468D01*
X36937Y-27468D01*
X36937Y-27747D01*
X37216Y-27747D01*
X38948Y-27747D02*
X38948Y-27468D01*
X38669Y-27468D01*
X38669Y-27747D01*
X38948Y-27747D01*
X14921Y-37966D02*
X15122Y-37765D01*
X14921Y-37564D01*
X14720Y-37765D01*
X14921Y-37966D01*
X14921Y-38966D02*
X15122Y-38765D01*
X14921Y-38564D01*
X14720Y-38765D01*
X14921Y-38966D01*
X14921Y-42183D02*
X15122Y-41982D01*
X14921Y-41781D01*
X14720Y-41982D01*
X14921Y-42183D01*
X14921Y-43183D02*
X15122Y-42982D01*
X14921Y-42781D01*
X14720Y-42982D01*
X14921Y-43183D01*
X17730Y-37003D02*
X18372Y-37645D01*
X18372Y-37003D02*
X17730Y-37645D01*
X18372Y-37324D02*
G75*
G03X18372Y-37324I-320J0D01*
G74*
G01*
X17730Y-43102D02*
X18372Y-43744D01*
X18372Y-43102D02*
X17730Y-43744D01*
X18372Y-43423D02*
G75*
G03X18372Y-43423I-320J0D01*
G74*
G01*
X22169Y-27594D02*
X22838Y-28263D01*
X22838Y-27594D02*
X22169Y-28263D01*
X22503Y-27594D02*
X22503Y-28263D01*
X22169Y-27929D02*
X22838Y-27929D01*
X22169Y-29366D02*
X22838Y-30035D01*
X22838Y-29366D02*
X22169Y-30035D01*
X22503Y-29366D02*
X22503Y-30035D01*
X22169Y-29700D02*
X22838Y-29700D01*
X13976Y-26968D02*
X15157Y-28149D01*
X15157Y-26968D02*
X13976Y-28149D01*
X14984Y-27976D02*
X14984Y-27141D01*
X14149Y-27141D01*
X14149Y-27976D01*
X14984Y-27976D01*
X13976Y-48228D02*
X15157Y-49409D01*
X15157Y-48228D02*
X13976Y-49409D01*
X14984Y-49236D02*
X14984Y-48401D01*
X14149Y-48401D01*
X14149Y-49236D01*
X14984Y-49236D01*
X44685Y-26968D02*
X45866Y-28149D01*
X45866Y-26968D02*
X44685Y-28149D01*
X45693Y-27976D02*
X45693Y-27141D01*
X44858Y-27141D01*
X44858Y-27976D01*
X45693Y-27976D01*
X44685Y-48228D02*
X45866Y-49409D01*
X45866Y-48228D02*
X44685Y-49409D01*
X45693Y-49236D02*
X45693Y-48401D01*
X44858Y-48401D01*
X44858Y-49236D01*
X45693Y-49236D01*
X16262Y-37484D02*
X17542Y-38763D01*
X17542Y-37484D02*
X16262Y-38763D01*
X16902Y-38763D02*
X17542Y-38124D01*
X16902Y-37484D01*
X16262Y-38124D01*
X16902Y-38763D01*
X16262Y-41984D02*
X17542Y-43263D01*
X17542Y-41984D02*
X16262Y-43263D01*
X16902Y-43263D02*
X17542Y-42624D01*
X16902Y-41984D01*
X16262Y-42624D01*
X16902Y-43263D01*
G54D13*
X14048Y-53253D02*
X14048Y-52072D01*
X14330Y-52072D01*
X14498Y-52128D01*
X14611Y-52240D01*
X14667Y-52353D01*
X14723Y-52578D01*
X14723Y-52747D01*
X14667Y-52971D01*
X14611Y-53084D01*
X14498Y-53196D01*
X14330Y-53253D01*
X14048Y-53253D01*
X15230Y-53253D02*
X15230Y-52465D01*
X15230Y-52690D02*
X15286Y-52578D01*
X15342Y-52522D01*
X15455Y-52465D01*
X15567Y-52465D01*
X15961Y-53253D02*
X15961Y-52465D01*
X15961Y-52072D02*
X15904Y-52128D01*
X15961Y-52184D01*
X16017Y-52128D01*
X15961Y-52072D01*
X15961Y-52184D01*
X16692Y-53253D02*
X16579Y-53196D01*
X16523Y-53084D01*
X16523Y-52072D01*
X17311Y-53253D02*
X17198Y-53196D01*
X17142Y-53084D01*
X17142Y-52072D01*
X18660Y-53253D02*
X18660Y-52072D01*
X19054Y-52915D01*
X19448Y-52072D01*
X19448Y-53253D01*
X20516Y-53253D02*
X20516Y-52634D01*
X20460Y-52522D01*
X20348Y-52465D01*
X20123Y-52465D01*
X20010Y-52522D01*
X20516Y-53196D02*
X20404Y-53253D01*
X20123Y-53253D01*
X20010Y-53196D01*
X19954Y-53084D01*
X19954Y-52971D01*
X20010Y-52859D01*
X20123Y-52803D01*
X20404Y-52803D01*
X20516Y-52747D01*
X21079Y-52465D02*
X21079Y-53646D01*
X21079Y-52522D02*
X21191Y-52465D01*
X21416Y-52465D01*
X21529Y-52522D01*
X21585Y-52578D01*
X21641Y-52690D01*
X21641Y-53028D01*
X21585Y-53140D01*
X21529Y-53196D01*
X21416Y-53253D01*
X21191Y-53253D01*
X21079Y-53196D01*
X22147Y-53140D02*
X22204Y-53196D01*
X22147Y-53253D01*
X22091Y-53196D01*
X22147Y-53140D01*
X22147Y-53253D01*
X22147Y-52522D02*
X22204Y-52578D01*
X22147Y-52634D01*
X22091Y-52578D01*
X22147Y-52522D01*
X22147Y-52634D01*
X12730Y-55074D02*
X12980Y-55324D01*
X12980Y-55074D02*
X12730Y-55324D01*
X14273Y-54552D02*
X14386Y-54552D01*
X14498Y-54608D01*
X14555Y-54664D01*
X14611Y-54777D01*
X14667Y-55002D01*
X14667Y-55283D01*
X14611Y-55508D01*
X14555Y-55621D01*
X14498Y-55677D01*
X14386Y-55733D01*
X14273Y-55733D01*
X14161Y-55677D01*
X14105Y-55621D01*
X14048Y-55508D01*
X13992Y-55283D01*
X13992Y-55002D01*
X14048Y-54777D01*
X14105Y-54664D01*
X14161Y-54608D01*
X14273Y-54552D01*
X15173Y-55621D02*
X15230Y-55677D01*
X15173Y-55733D01*
X15117Y-55677D01*
X15173Y-55621D01*
X15173Y-55733D01*
X16242Y-54552D02*
X16017Y-54552D01*
X15904Y-54608D01*
X15848Y-54664D01*
X15736Y-54833D01*
X15679Y-55058D01*
X15679Y-55508D01*
X15736Y-55621D01*
X15792Y-55677D01*
X15904Y-55733D01*
X16129Y-55733D01*
X16242Y-55677D01*
X16298Y-55621D01*
X16354Y-55508D01*
X16354Y-55227D01*
X16298Y-55114D01*
X16242Y-55058D01*
X16129Y-55002D01*
X15904Y-55002D01*
X15792Y-55058D01*
X15736Y-55114D01*
X15679Y-55227D01*
X17367Y-54946D02*
X17367Y-55733D01*
X17086Y-54496D02*
X16804Y-55339D01*
X17535Y-55339D01*
X17985Y-55733D02*
X17985Y-54946D01*
X17985Y-55058D02*
X18042Y-55002D01*
X18154Y-54946D01*
X18323Y-54946D01*
X18435Y-55002D01*
X18492Y-55114D01*
X18492Y-55733D01*
X18492Y-55114D02*
X18548Y-55002D01*
X18660Y-54946D01*
X18829Y-54946D01*
X18942Y-55002D01*
X18998Y-55114D01*
X18998Y-55733D01*
X19560Y-55733D02*
X19560Y-54946D01*
X19560Y-55058D02*
X19616Y-55002D01*
X19729Y-54946D01*
X19898Y-54946D01*
X20010Y-55002D01*
X20066Y-55114D01*
X20066Y-55733D01*
X20066Y-55114D02*
X20123Y-55002D01*
X20235Y-54946D01*
X20404Y-54946D01*
X20516Y-55002D01*
X20573Y-55114D01*
X20573Y-55733D01*
X22879Y-54496D02*
X21866Y-56014D01*
X24397Y-54552D02*
X24510Y-54552D01*
X24622Y-54608D01*
X24678Y-54664D01*
X24735Y-54777D01*
X24791Y-55002D01*
X24791Y-55283D01*
X24735Y-55508D01*
X24678Y-55621D01*
X24622Y-55677D01*
X24510Y-55733D01*
X24397Y-55733D01*
X24285Y-55677D01*
X24228Y-55621D01*
X24172Y-55508D01*
X24116Y-55283D01*
X24116Y-55002D01*
X24172Y-54777D01*
X24228Y-54664D01*
X24285Y-54608D01*
X24397Y-54552D01*
X25297Y-55621D02*
X25353Y-55677D01*
X25297Y-55733D01*
X25241Y-55677D01*
X25297Y-55621D01*
X25297Y-55733D01*
X26084Y-54552D02*
X26197Y-54552D01*
X26309Y-54608D01*
X26366Y-54664D01*
X26422Y-54777D01*
X26478Y-55002D01*
X26478Y-55283D01*
X26422Y-55508D01*
X26366Y-55621D01*
X26309Y-55677D01*
X26197Y-55733D01*
X26084Y-55733D01*
X25972Y-55677D01*
X25916Y-55621D01*
X25859Y-55508D01*
X25803Y-55283D01*
X25803Y-55002D01*
X25859Y-54777D01*
X25916Y-54664D01*
X25972Y-54608D01*
X26084Y-54552D01*
X26928Y-54664D02*
X26984Y-54608D01*
X27097Y-54552D01*
X27378Y-54552D01*
X27491Y-54608D01*
X27547Y-54664D01*
X27603Y-54777D01*
X27603Y-54889D01*
X27547Y-55058D01*
X26872Y-55733D01*
X27603Y-55733D01*
X28672Y-54552D02*
X28109Y-54552D01*
X28053Y-55114D01*
X28109Y-55058D01*
X28222Y-55002D01*
X28503Y-55002D01*
X28615Y-55058D01*
X28672Y-55114D01*
X28728Y-55227D01*
X28728Y-55508D01*
X28672Y-55621D01*
X28615Y-55677D01*
X28503Y-55733D01*
X28222Y-55733D01*
X28109Y-55677D01*
X28053Y-55621D01*
X29178Y-54552D02*
X29178Y-54777D01*
X29628Y-54552D02*
X29628Y-54777D01*
X31371Y-56183D02*
X31315Y-56127D01*
X31203Y-55958D01*
X31146Y-55846D01*
X31090Y-55677D01*
X31034Y-55396D01*
X31034Y-55171D01*
X31090Y-54889D01*
X31146Y-54721D01*
X31203Y-54608D01*
X31315Y-54439D01*
X31371Y-54383D01*
X32327Y-54552D02*
X32102Y-54552D01*
X31990Y-54608D01*
X31934Y-54664D01*
X31821Y-54833D01*
X31765Y-55058D01*
X31765Y-55508D01*
X31821Y-55621D01*
X31877Y-55677D01*
X31990Y-55733D01*
X32215Y-55733D01*
X32327Y-55677D01*
X32384Y-55621D01*
X32440Y-55508D01*
X32440Y-55227D01*
X32384Y-55114D01*
X32327Y-55058D01*
X32215Y-55002D01*
X31990Y-55002D01*
X31877Y-55058D01*
X31821Y-55114D01*
X31765Y-55227D01*
X33115Y-55058D02*
X33002Y-55002D01*
X32946Y-54946D01*
X32890Y-54833D01*
X32890Y-54777D01*
X32946Y-54664D01*
X33002Y-54608D01*
X33115Y-54552D01*
X33340Y-54552D01*
X33452Y-54608D01*
X33508Y-54664D01*
X33565Y-54777D01*
X33565Y-54833D01*
X33508Y-54946D01*
X33452Y-55002D01*
X33340Y-55058D01*
X33115Y-55058D01*
X33002Y-55114D01*
X32946Y-55171D01*
X32890Y-55283D01*
X32890Y-55508D01*
X32946Y-55621D01*
X33002Y-55677D01*
X33115Y-55733D01*
X33340Y-55733D01*
X33452Y-55677D01*
X33508Y-55621D01*
X33565Y-55508D01*
X33565Y-55283D01*
X33508Y-55171D01*
X33452Y-55114D01*
X33340Y-55058D01*
X34971Y-55733D02*
X34971Y-54552D01*
X35477Y-55733D02*
X35477Y-55114D01*
X35421Y-55002D01*
X35308Y-54946D01*
X35140Y-54946D01*
X35027Y-55002D01*
X34971Y-55058D01*
X36208Y-55733D02*
X36096Y-55677D01*
X36039Y-55621D01*
X35983Y-55508D01*
X35983Y-55171D01*
X36039Y-55058D01*
X36096Y-55002D01*
X36208Y-54946D01*
X36377Y-54946D01*
X36489Y-55002D01*
X36546Y-55058D01*
X36602Y-55171D01*
X36602Y-55508D01*
X36546Y-55621D01*
X36489Y-55677D01*
X36377Y-55733D01*
X36208Y-55733D01*
X37277Y-55733D02*
X37164Y-55677D01*
X37108Y-55564D01*
X37108Y-54552D01*
X38177Y-55677D02*
X38064Y-55733D01*
X37839Y-55733D01*
X37727Y-55677D01*
X37670Y-55564D01*
X37670Y-55114D01*
X37727Y-55002D01*
X37839Y-54946D01*
X38064Y-54946D01*
X38177Y-55002D01*
X38233Y-55114D01*
X38233Y-55227D01*
X37670Y-55339D01*
X38683Y-55677D02*
X38795Y-55733D01*
X39020Y-55733D01*
X39133Y-55677D01*
X39189Y-55564D01*
X39189Y-55508D01*
X39133Y-55396D01*
X39020Y-55339D01*
X38852Y-55339D01*
X38739Y-55283D01*
X38683Y-55171D01*
X38683Y-55114D01*
X38739Y-55002D01*
X38852Y-54946D01*
X39020Y-54946D01*
X39133Y-55002D01*
X39583Y-56183D02*
X39639Y-56127D01*
X39751Y-55958D01*
X39808Y-55846D01*
X39864Y-55677D01*
X39920Y-55396D01*
X39920Y-55171D01*
X39864Y-54889D01*
X39808Y-54721D01*
X39751Y-54608D01*
X39639Y-54439D01*
X39583Y-54383D01*
G54D12*
X12980Y-56758D02*
G75*
G03X12980Y-56758I-157J0D01*
G74*
G01*
G54D13*
X14273Y-56111D02*
X14386Y-56111D01*
X14498Y-56167D01*
X14555Y-56223D01*
X14611Y-56336D01*
X14667Y-56561D01*
X14667Y-56842D01*
X14611Y-57067D01*
X14555Y-57180D01*
X14498Y-57236D01*
X14386Y-57292D01*
X14273Y-57292D01*
X14161Y-57236D01*
X14105Y-57180D01*
X14048Y-57067D01*
X13992Y-56842D01*
X13992Y-56561D01*
X14048Y-56336D01*
X14105Y-56223D01*
X14161Y-56167D01*
X14273Y-56111D01*
X15173Y-57180D02*
X15230Y-57236D01*
X15173Y-57292D01*
X15117Y-57236D01*
X15173Y-57180D01*
X15173Y-57292D01*
X15904Y-56617D02*
X15792Y-56561D01*
X15736Y-56505D01*
X15679Y-56392D01*
X15679Y-56336D01*
X15736Y-56223D01*
X15792Y-56167D01*
X15904Y-56111D01*
X16129Y-56111D01*
X16242Y-56167D01*
X16298Y-56223D01*
X16354Y-56336D01*
X16354Y-56392D01*
X16298Y-56505D01*
X16242Y-56561D01*
X16129Y-56617D01*
X15904Y-56617D01*
X15792Y-56673D01*
X15736Y-56730D01*
X15679Y-56842D01*
X15679Y-57067D01*
X15736Y-57180D01*
X15792Y-57236D01*
X15904Y-57292D01*
X16129Y-57292D01*
X16242Y-57236D01*
X16298Y-57180D01*
X16354Y-57067D01*
X16354Y-56842D01*
X16298Y-56730D01*
X16242Y-56673D01*
X16129Y-56617D01*
X17086Y-56111D02*
X17198Y-56111D01*
X17311Y-56167D01*
X17367Y-56223D01*
X17423Y-56336D01*
X17479Y-56561D01*
X17479Y-56842D01*
X17423Y-57067D01*
X17367Y-57180D01*
X17311Y-57236D01*
X17198Y-57292D01*
X17086Y-57292D01*
X16973Y-57236D01*
X16917Y-57180D01*
X16861Y-57067D01*
X16804Y-56842D01*
X16804Y-56561D01*
X16861Y-56336D01*
X16917Y-56223D01*
X16973Y-56167D01*
X17086Y-56111D01*
X17985Y-57292D02*
X17985Y-56505D01*
X17985Y-56617D02*
X18042Y-56561D01*
X18154Y-56505D01*
X18323Y-56505D01*
X18435Y-56561D01*
X18492Y-56673D01*
X18492Y-57292D01*
X18492Y-56673D02*
X18548Y-56561D01*
X18660Y-56505D01*
X18829Y-56505D01*
X18942Y-56561D01*
X18998Y-56673D01*
X18998Y-57292D01*
X19560Y-57292D02*
X19560Y-56505D01*
X19560Y-56617D02*
X19616Y-56561D01*
X19729Y-56505D01*
X19898Y-56505D01*
X20010Y-56561D01*
X20066Y-56673D01*
X20066Y-57292D01*
X20066Y-56673D02*
X20123Y-56561D01*
X20235Y-56505D01*
X20404Y-56505D01*
X20516Y-56561D01*
X20573Y-56673D01*
X20573Y-57292D01*
X22879Y-56055D02*
X21866Y-57573D01*
X24397Y-56111D02*
X24510Y-56111D01*
X24622Y-56167D01*
X24678Y-56223D01*
X24735Y-56336D01*
X24791Y-56561D01*
X24791Y-56842D01*
X24735Y-57067D01*
X24678Y-57180D01*
X24622Y-57236D01*
X24510Y-57292D01*
X24397Y-57292D01*
X24285Y-57236D01*
X24228Y-57180D01*
X24172Y-57067D01*
X24116Y-56842D01*
X24116Y-56561D01*
X24172Y-56336D01*
X24228Y-56223D01*
X24285Y-56167D01*
X24397Y-56111D01*
X25297Y-57180D02*
X25353Y-57236D01*
X25297Y-57292D01*
X25241Y-57236D01*
X25297Y-57180D01*
X25297Y-57292D01*
X26084Y-56111D02*
X26197Y-56111D01*
X26309Y-56167D01*
X26366Y-56223D01*
X26422Y-56336D01*
X26478Y-56561D01*
X26478Y-56842D01*
X26422Y-57067D01*
X26366Y-57180D01*
X26309Y-57236D01*
X26197Y-57292D01*
X26084Y-57292D01*
X25972Y-57236D01*
X25916Y-57180D01*
X25859Y-57067D01*
X25803Y-56842D01*
X25803Y-56561D01*
X25859Y-56336D01*
X25916Y-56223D01*
X25972Y-56167D01*
X26084Y-56111D01*
X26872Y-56111D02*
X27603Y-56111D01*
X27209Y-56561D01*
X27378Y-56561D01*
X27491Y-56617D01*
X27547Y-56673D01*
X27603Y-56786D01*
X27603Y-57067D01*
X27547Y-57180D01*
X27491Y-57236D01*
X27378Y-57292D01*
X27041Y-57292D01*
X26928Y-57236D01*
X26872Y-57180D01*
X28728Y-57292D02*
X28053Y-57292D01*
X28390Y-57292D02*
X28390Y-56111D01*
X28278Y-56280D01*
X28165Y-56392D01*
X28053Y-56448D01*
X29178Y-56111D02*
X29178Y-56336D01*
X29628Y-56111D02*
X29628Y-56336D01*
X31371Y-57742D02*
X31315Y-57686D01*
X31203Y-57517D01*
X31146Y-57405D01*
X31090Y-57236D01*
X31034Y-56955D01*
X31034Y-56730D01*
X31090Y-56448D01*
X31146Y-56280D01*
X31203Y-56167D01*
X31315Y-55998D01*
X31371Y-55942D01*
X32384Y-56111D02*
X31821Y-56111D01*
X31765Y-56673D01*
X31821Y-56617D01*
X31934Y-56561D01*
X32215Y-56561D01*
X32327Y-56617D01*
X32384Y-56673D01*
X32440Y-56786D01*
X32440Y-57067D01*
X32384Y-57180D01*
X32327Y-57236D01*
X32215Y-57292D01*
X31934Y-57292D01*
X31821Y-57236D01*
X31765Y-57180D01*
X33846Y-57292D02*
X33846Y-56111D01*
X34352Y-57292D02*
X34352Y-56673D01*
X34296Y-56561D01*
X34183Y-56505D01*
X34015Y-56505D01*
X33902Y-56561D01*
X33846Y-56617D01*
X35083Y-57292D02*
X34971Y-57236D01*
X34915Y-57180D01*
X34858Y-57067D01*
X34858Y-56730D01*
X34915Y-56617D01*
X34971Y-56561D01*
X35083Y-56505D01*
X35252Y-56505D01*
X35365Y-56561D01*
X35421Y-56617D01*
X35477Y-56730D01*
X35477Y-57067D01*
X35421Y-57180D01*
X35365Y-57236D01*
X35252Y-57292D01*
X35083Y-57292D01*
X36152Y-57292D02*
X36039Y-57236D01*
X35983Y-57123D01*
X35983Y-56111D01*
X37052Y-57236D02*
X36939Y-57292D01*
X36714Y-57292D01*
X36602Y-57236D01*
X36546Y-57123D01*
X36546Y-56673D01*
X36602Y-56561D01*
X36714Y-56505D01*
X36939Y-56505D01*
X37052Y-56561D01*
X37108Y-56673D01*
X37108Y-56786D01*
X36546Y-56898D01*
X37558Y-57236D02*
X37670Y-57292D01*
X37895Y-57292D01*
X38008Y-57236D01*
X38064Y-57123D01*
X38064Y-57067D01*
X38008Y-56955D01*
X37895Y-56898D01*
X37727Y-56898D01*
X37614Y-56842D01*
X37558Y-56730D01*
X37558Y-56673D01*
X37614Y-56561D01*
X37727Y-56505D01*
X37895Y-56505D01*
X38008Y-56561D01*
X38458Y-57742D02*
X38514Y-57686D01*
X38627Y-57517D01*
X38683Y-57405D01*
X38739Y-57236D01*
X38795Y-56955D01*
X38795Y-56730D01*
X38739Y-56448D01*
X38683Y-56280D01*
X38627Y-56167D01*
X38514Y-55998D01*
X38458Y-55942D01*
X12805Y-58142D02*
X12805Y-58492D01*
X12629Y-58317D02*
X12980Y-58317D01*
X14273Y-57670D02*
X14386Y-57670D01*
X14498Y-57726D01*
X14555Y-57783D01*
X14611Y-57895D01*
X14667Y-58120D01*
X14667Y-58401D01*
X14611Y-58626D01*
X14555Y-58739D01*
X14498Y-58795D01*
X14386Y-58851D01*
X14273Y-58851D01*
X14161Y-58795D01*
X14105Y-58739D01*
X14048Y-58626D01*
X13992Y-58401D01*
X13992Y-58120D01*
X14048Y-57895D01*
X14105Y-57783D01*
X14161Y-57726D01*
X14273Y-57670D01*
X15173Y-58739D02*
X15230Y-58795D01*
X15173Y-58851D01*
X15117Y-58795D01*
X15173Y-58739D01*
X15173Y-58851D01*
X15904Y-58176D02*
X15792Y-58120D01*
X15736Y-58064D01*
X15679Y-57951D01*
X15679Y-57895D01*
X15736Y-57783D01*
X15792Y-57726D01*
X15904Y-57670D01*
X16129Y-57670D01*
X16242Y-57726D01*
X16298Y-57783D01*
X16354Y-57895D01*
X16354Y-57951D01*
X16298Y-58064D01*
X16242Y-58120D01*
X16129Y-58176D01*
X15904Y-58176D01*
X15792Y-58232D01*
X15736Y-58289D01*
X15679Y-58401D01*
X15679Y-58626D01*
X15736Y-58739D01*
X15792Y-58795D01*
X15904Y-58851D01*
X16129Y-58851D01*
X16242Y-58795D01*
X16298Y-58739D01*
X16354Y-58626D01*
X16354Y-58401D01*
X16298Y-58289D01*
X16242Y-58232D01*
X16129Y-58176D01*
X16917Y-58851D02*
X17142Y-58851D01*
X17254Y-58795D01*
X17311Y-58739D01*
X17423Y-58570D01*
X17479Y-58345D01*
X17479Y-57895D01*
X17423Y-57783D01*
X17367Y-57726D01*
X17254Y-57670D01*
X17029Y-57670D01*
X16917Y-57726D01*
X16861Y-57783D01*
X16804Y-57895D01*
X16804Y-58176D01*
X16861Y-58289D01*
X16917Y-58345D01*
X17029Y-58401D01*
X17254Y-58401D01*
X17367Y-58345D01*
X17423Y-58289D01*
X17479Y-58176D01*
X17985Y-58851D02*
X17985Y-58064D01*
X17985Y-58176D02*
X18042Y-58120D01*
X18154Y-58064D01*
X18323Y-58064D01*
X18435Y-58120D01*
X18492Y-58232D01*
X18492Y-58851D01*
X18492Y-58232D02*
X18548Y-58120D01*
X18660Y-58064D01*
X18829Y-58064D01*
X18942Y-58120D01*
X18998Y-58232D01*
X18998Y-58851D01*
X19560Y-58851D02*
X19560Y-58064D01*
X19560Y-58176D02*
X19616Y-58120D01*
X19729Y-58064D01*
X19898Y-58064D01*
X20010Y-58120D01*
X20066Y-58232D01*
X20066Y-58851D01*
X20066Y-58232D02*
X20123Y-58120D01*
X20235Y-58064D01*
X20404Y-58064D01*
X20516Y-58120D01*
X20573Y-58232D01*
X20573Y-58851D01*
X22879Y-57614D02*
X21866Y-59132D01*
X24397Y-57670D02*
X24510Y-57670D01*
X24622Y-57726D01*
X24678Y-57783D01*
X24735Y-57895D01*
X24791Y-58120D01*
X24791Y-58401D01*
X24735Y-58626D01*
X24678Y-58739D01*
X24622Y-58795D01*
X24510Y-58851D01*
X24397Y-58851D01*
X24285Y-58795D01*
X24228Y-58739D01*
X24172Y-58626D01*
X24116Y-58401D01*
X24116Y-58120D01*
X24172Y-57895D01*
X24228Y-57783D01*
X24285Y-57726D01*
X24397Y-57670D01*
X25297Y-58739D02*
X25353Y-58795D01*
X25297Y-58851D01*
X25241Y-58795D01*
X25297Y-58739D01*
X25297Y-58851D01*
X26084Y-57670D02*
X26197Y-57670D01*
X26309Y-57726D01*
X26366Y-57783D01*
X26422Y-57895D01*
X26478Y-58120D01*
X26478Y-58401D01*
X26422Y-58626D01*
X26366Y-58739D01*
X26309Y-58795D01*
X26197Y-58851D01*
X26084Y-58851D01*
X25972Y-58795D01*
X25916Y-58739D01*
X25859Y-58626D01*
X25803Y-58401D01*
X25803Y-58120D01*
X25859Y-57895D01*
X25916Y-57783D01*
X25972Y-57726D01*
X26084Y-57670D01*
X26872Y-57670D02*
X27603Y-57670D01*
X27209Y-58120D01*
X27378Y-58120D01*
X27491Y-58176D01*
X27547Y-58232D01*
X27603Y-58345D01*
X27603Y-58626D01*
X27547Y-58739D01*
X27491Y-58795D01*
X27378Y-58851D01*
X27041Y-58851D01*
X26928Y-58795D01*
X26872Y-58739D01*
X28672Y-57670D02*
X28109Y-57670D01*
X28053Y-58232D01*
X28109Y-58176D01*
X28222Y-58120D01*
X28503Y-58120D01*
X28615Y-58176D01*
X28672Y-58232D01*
X28728Y-58345D01*
X28728Y-58626D01*
X28672Y-58739D01*
X28615Y-58795D01*
X28503Y-58851D01*
X28222Y-58851D01*
X28109Y-58795D01*
X28053Y-58739D01*
X29178Y-57670D02*
X29178Y-57895D01*
X29628Y-57670D02*
X29628Y-57895D01*
X31371Y-59301D02*
X31315Y-59245D01*
X31203Y-59076D01*
X31146Y-58964D01*
X31090Y-58795D01*
X31034Y-58514D01*
X31034Y-58289D01*
X31090Y-58007D01*
X31146Y-57839D01*
X31203Y-57726D01*
X31315Y-57558D01*
X31371Y-57501D01*
X31990Y-58176D02*
X31877Y-58120D01*
X31821Y-58064D01*
X31765Y-57951D01*
X31765Y-57895D01*
X31821Y-57783D01*
X31877Y-57726D01*
X31990Y-57670D01*
X32215Y-57670D01*
X32327Y-57726D01*
X32384Y-57783D01*
X32440Y-57895D01*
X32440Y-57951D01*
X32384Y-58064D01*
X32327Y-58120D01*
X32215Y-58176D01*
X31990Y-58176D01*
X31877Y-58232D01*
X31821Y-58289D01*
X31765Y-58401D01*
X31765Y-58626D01*
X31821Y-58739D01*
X31877Y-58795D01*
X31990Y-58851D01*
X32215Y-58851D01*
X32327Y-58795D01*
X32384Y-58739D01*
X32440Y-58626D01*
X32440Y-58401D01*
X32384Y-58289D01*
X32327Y-58232D01*
X32215Y-58176D01*
X33846Y-58851D02*
X33846Y-57670D01*
X34352Y-58851D02*
X34352Y-58232D01*
X34296Y-58120D01*
X34183Y-58064D01*
X34015Y-58064D01*
X33902Y-58120D01*
X33846Y-58176D01*
X35083Y-58851D02*
X34971Y-58795D01*
X34915Y-58739D01*
X34858Y-58626D01*
X34858Y-58289D01*
X34915Y-58176D01*
X34971Y-58120D01*
X35083Y-58064D01*
X35252Y-58064D01*
X35365Y-58120D01*
X35421Y-58176D01*
X35477Y-58289D01*
X35477Y-58626D01*
X35421Y-58739D01*
X35365Y-58795D01*
X35252Y-58851D01*
X35083Y-58851D01*
X36152Y-58851D02*
X36039Y-58795D01*
X35983Y-58682D01*
X35983Y-57670D01*
X37052Y-58795D02*
X36939Y-58851D01*
X36714Y-58851D01*
X36602Y-58795D01*
X36546Y-58682D01*
X36546Y-58232D01*
X36602Y-58120D01*
X36714Y-58064D01*
X36939Y-58064D01*
X37052Y-58120D01*
X37108Y-58232D01*
X37108Y-58345D01*
X36546Y-58457D01*
X37558Y-58795D02*
X37670Y-58851D01*
X37895Y-58851D01*
X38008Y-58795D01*
X38064Y-58682D01*
X38064Y-58626D01*
X38008Y-58514D01*
X37895Y-58457D01*
X37727Y-58457D01*
X37614Y-58401D01*
X37558Y-58289D01*
X37558Y-58232D01*
X37614Y-58120D01*
X37727Y-58064D01*
X37895Y-58064D01*
X38008Y-58120D01*
X38458Y-59301D02*
X38514Y-59245D01*
X38627Y-59076D01*
X38683Y-58964D01*
X38739Y-58795D01*
X38795Y-58514D01*
X38795Y-58289D01*
X38739Y-58007D01*
X38683Y-57839D01*
X38627Y-57726D01*
X38514Y-57558D01*
X38458Y-57501D01*
G54D12*
X12922Y-60015D02*
X12922Y-59737D01*
X12644Y-59737D01*
X12644Y-60015D01*
X12922Y-60015D01*
G54D13*
X14667Y-60410D02*
X13992Y-60410D01*
X14330Y-60410D02*
X14330Y-59229D01*
X14217Y-59398D01*
X14105Y-59510D01*
X13992Y-59567D01*
X15173Y-60298D02*
X15230Y-60354D01*
X15173Y-60410D01*
X15117Y-60354D01*
X15173Y-60298D01*
X15173Y-60410D01*
X15961Y-59229D02*
X16073Y-59229D01*
X16186Y-59285D01*
X16242Y-59342D01*
X16298Y-59454D01*
X16354Y-59679D01*
X16354Y-59960D01*
X16298Y-60185D01*
X16242Y-60298D01*
X16186Y-60354D01*
X16073Y-60410D01*
X15961Y-60410D01*
X15848Y-60354D01*
X15792Y-60298D01*
X15736Y-60185D01*
X15679Y-59960D01*
X15679Y-59679D01*
X15736Y-59454D01*
X15792Y-59342D01*
X15848Y-59285D01*
X15961Y-59229D01*
X17086Y-59229D02*
X17198Y-59229D01*
X17311Y-59285D01*
X17367Y-59342D01*
X17423Y-59454D01*
X17479Y-59679D01*
X17479Y-59960D01*
X17423Y-60185D01*
X17367Y-60298D01*
X17311Y-60354D01*
X17198Y-60410D01*
X17086Y-60410D01*
X16973Y-60354D01*
X16917Y-60298D01*
X16861Y-60185D01*
X16804Y-59960D01*
X16804Y-59679D01*
X16861Y-59454D01*
X16917Y-59342D01*
X16973Y-59285D01*
X17086Y-59229D01*
X17985Y-60410D02*
X17985Y-59623D01*
X17985Y-59735D02*
X18042Y-59679D01*
X18154Y-59623D01*
X18323Y-59623D01*
X18435Y-59679D01*
X18492Y-59792D01*
X18492Y-60410D01*
X18492Y-59792D02*
X18548Y-59679D01*
X18660Y-59623D01*
X18829Y-59623D01*
X18942Y-59679D01*
X18998Y-59792D01*
X18998Y-60410D01*
X19560Y-60410D02*
X19560Y-59623D01*
X19560Y-59735D02*
X19616Y-59679D01*
X19729Y-59623D01*
X19898Y-59623D01*
X20010Y-59679D01*
X20066Y-59792D01*
X20066Y-60410D01*
X20066Y-59792D02*
X20123Y-59679D01*
X20235Y-59623D01*
X20404Y-59623D01*
X20516Y-59679D01*
X20573Y-59792D01*
X20573Y-60410D01*
X22879Y-59173D02*
X21866Y-60691D01*
X24397Y-59229D02*
X24510Y-59229D01*
X24622Y-59285D01*
X24678Y-59342D01*
X24735Y-59454D01*
X24791Y-59679D01*
X24791Y-59960D01*
X24735Y-60185D01*
X24678Y-60298D01*
X24622Y-60354D01*
X24510Y-60410D01*
X24397Y-60410D01*
X24285Y-60354D01*
X24228Y-60298D01*
X24172Y-60185D01*
X24116Y-59960D01*
X24116Y-59679D01*
X24172Y-59454D01*
X24228Y-59342D01*
X24285Y-59285D01*
X24397Y-59229D01*
X25297Y-60298D02*
X25353Y-60354D01*
X25297Y-60410D01*
X25241Y-60354D01*
X25297Y-60298D01*
X25297Y-60410D01*
X26084Y-59229D02*
X26197Y-59229D01*
X26309Y-59285D01*
X26366Y-59342D01*
X26422Y-59454D01*
X26478Y-59679D01*
X26478Y-59960D01*
X26422Y-60185D01*
X26366Y-60298D01*
X26309Y-60354D01*
X26197Y-60410D01*
X26084Y-60410D01*
X25972Y-60354D01*
X25916Y-60298D01*
X25859Y-60185D01*
X25803Y-59960D01*
X25803Y-59679D01*
X25859Y-59454D01*
X25916Y-59342D01*
X25972Y-59285D01*
X26084Y-59229D01*
X26872Y-59229D02*
X27603Y-59229D01*
X27209Y-59679D01*
X27378Y-59679D01*
X27491Y-59735D01*
X27547Y-59792D01*
X27603Y-59904D01*
X27603Y-60185D01*
X27547Y-60298D01*
X27491Y-60354D01*
X27378Y-60410D01*
X27041Y-60410D01*
X26928Y-60354D01*
X26872Y-60298D01*
X28165Y-60410D02*
X28390Y-60410D01*
X28503Y-60354D01*
X28559Y-60298D01*
X28672Y-60129D01*
X28728Y-59904D01*
X28728Y-59454D01*
X28672Y-59342D01*
X28615Y-59285D01*
X28503Y-59229D01*
X28278Y-59229D01*
X28165Y-59285D01*
X28109Y-59342D01*
X28053Y-59454D01*
X28053Y-59735D01*
X28109Y-59848D01*
X28165Y-59904D01*
X28278Y-59960D01*
X28503Y-59960D01*
X28615Y-59904D01*
X28672Y-59848D01*
X28728Y-59735D01*
X29178Y-59229D02*
X29178Y-59454D01*
X29628Y-59229D02*
X29628Y-59454D01*
X31371Y-60860D02*
X31315Y-60804D01*
X31203Y-60635D01*
X31146Y-60523D01*
X31090Y-60354D01*
X31034Y-60073D01*
X31034Y-59848D01*
X31090Y-59567D01*
X31146Y-59398D01*
X31203Y-59285D01*
X31315Y-59117D01*
X31371Y-59060D01*
X31765Y-59342D02*
X31821Y-59285D01*
X31934Y-59229D01*
X32215Y-59229D01*
X32327Y-59285D01*
X32384Y-59342D01*
X32440Y-59454D01*
X32440Y-59567D01*
X32384Y-59735D01*
X31709Y-60410D01*
X32440Y-60410D01*
X33846Y-60410D02*
X33846Y-59229D01*
X34352Y-60410D02*
X34352Y-59792D01*
X34296Y-59679D01*
X34183Y-59623D01*
X34015Y-59623D01*
X33902Y-59679D01*
X33846Y-59735D01*
X35083Y-60410D02*
X34971Y-60354D01*
X34915Y-60298D01*
X34858Y-60185D01*
X34858Y-59848D01*
X34915Y-59735D01*
X34971Y-59679D01*
X35083Y-59623D01*
X35252Y-59623D01*
X35365Y-59679D01*
X35421Y-59735D01*
X35477Y-59848D01*
X35477Y-60185D01*
X35421Y-60298D01*
X35365Y-60354D01*
X35252Y-60410D01*
X35083Y-60410D01*
X36152Y-60410D02*
X36039Y-60354D01*
X35983Y-60241D01*
X35983Y-59229D01*
X37052Y-60354D02*
X36939Y-60410D01*
X36714Y-60410D01*
X36602Y-60354D01*
X36546Y-60241D01*
X36546Y-59792D01*
X36602Y-59679D01*
X36714Y-59623D01*
X36939Y-59623D01*
X37052Y-59679D01*
X37108Y-59792D01*
X37108Y-59904D01*
X36546Y-60016D01*
X37558Y-60354D02*
X37670Y-60410D01*
X37895Y-60410D01*
X38008Y-60354D01*
X38064Y-60241D01*
X38064Y-60185D01*
X38008Y-60073D01*
X37895Y-60016D01*
X37727Y-60016D01*
X37614Y-59960D01*
X37558Y-59848D01*
X37558Y-59792D01*
X37614Y-59679D01*
X37727Y-59623D01*
X37895Y-59623D01*
X38008Y-59679D01*
X38458Y-60860D02*
X38514Y-60804D01*
X38627Y-60635D01*
X38683Y-60523D01*
X38739Y-60354D01*
X38795Y-60073D01*
X38795Y-59848D01*
X38739Y-59567D01*
X38683Y-59398D01*
X38627Y-59285D01*
X38514Y-59117D01*
X38458Y-59060D01*
G54D12*
X12779Y-61636D02*
X12980Y-61435D01*
X12779Y-61234D01*
X12578Y-61435D01*
X12779Y-61636D01*
G54D13*
X14667Y-61969D02*
X13992Y-61969D01*
X14330Y-61969D02*
X14330Y-60788D01*
X14217Y-60957D01*
X14105Y-61069D01*
X13992Y-61126D01*
X15173Y-61857D02*
X15230Y-61913D01*
X15173Y-61969D01*
X15117Y-61913D01*
X15173Y-61857D01*
X15173Y-61969D01*
X15961Y-60788D02*
X16073Y-60788D01*
X16186Y-60844D01*
X16242Y-60901D01*
X16298Y-61013D01*
X16354Y-61238D01*
X16354Y-61519D01*
X16298Y-61744D01*
X16242Y-61857D01*
X16186Y-61913D01*
X16073Y-61969D01*
X15961Y-61969D01*
X15848Y-61913D01*
X15792Y-61857D01*
X15736Y-61744D01*
X15679Y-61519D01*
X15679Y-61238D01*
X15736Y-61013D01*
X15792Y-60901D01*
X15848Y-60844D01*
X15961Y-60788D01*
X16804Y-60901D02*
X16861Y-60844D01*
X16973Y-60788D01*
X17254Y-60788D01*
X17367Y-60844D01*
X17423Y-60901D01*
X17479Y-61013D01*
X17479Y-61126D01*
X17423Y-61294D01*
X16748Y-61969D01*
X17479Y-61969D01*
X17985Y-61969D02*
X17985Y-61182D01*
X17985Y-61294D02*
X18042Y-61238D01*
X18154Y-61182D01*
X18323Y-61182D01*
X18435Y-61238D01*
X18492Y-61351D01*
X18492Y-61969D01*
X18492Y-61351D02*
X18548Y-61238D01*
X18660Y-61182D01*
X18829Y-61182D01*
X18942Y-61238D01*
X18998Y-61351D01*
X18998Y-61969D01*
X19560Y-61969D02*
X19560Y-61182D01*
X19560Y-61294D02*
X19616Y-61238D01*
X19729Y-61182D01*
X19898Y-61182D01*
X20010Y-61238D01*
X20066Y-61351D01*
X20066Y-61969D01*
X20066Y-61351D02*
X20123Y-61238D01*
X20235Y-61182D01*
X20404Y-61182D01*
X20516Y-61238D01*
X20573Y-61351D01*
X20573Y-61969D01*
X22879Y-60732D02*
X21866Y-62250D01*
X24397Y-60788D02*
X24510Y-60788D01*
X24622Y-60844D01*
X24678Y-60901D01*
X24735Y-61013D01*
X24791Y-61238D01*
X24791Y-61519D01*
X24735Y-61744D01*
X24678Y-61857D01*
X24622Y-61913D01*
X24510Y-61969D01*
X24397Y-61969D01*
X24285Y-61913D01*
X24228Y-61857D01*
X24172Y-61744D01*
X24116Y-61519D01*
X24116Y-61238D01*
X24172Y-61013D01*
X24228Y-60901D01*
X24285Y-60844D01*
X24397Y-60788D01*
X25297Y-61857D02*
X25353Y-61913D01*
X25297Y-61969D01*
X25241Y-61913D01*
X25297Y-61857D01*
X25297Y-61969D01*
X26084Y-60788D02*
X26197Y-60788D01*
X26309Y-60844D01*
X26366Y-60901D01*
X26422Y-61013D01*
X26478Y-61238D01*
X26478Y-61519D01*
X26422Y-61744D01*
X26366Y-61857D01*
X26309Y-61913D01*
X26197Y-61969D01*
X26084Y-61969D01*
X25972Y-61913D01*
X25916Y-61857D01*
X25859Y-61744D01*
X25803Y-61519D01*
X25803Y-61238D01*
X25859Y-61013D01*
X25916Y-60901D01*
X25972Y-60844D01*
X26084Y-60788D01*
X27491Y-61182D02*
X27491Y-61969D01*
X27209Y-60732D02*
X26928Y-61576D01*
X27659Y-61576D01*
X28334Y-60788D02*
X28447Y-60788D01*
X28559Y-60844D01*
X28615Y-60901D01*
X28672Y-61013D01*
X28728Y-61238D01*
X28728Y-61519D01*
X28672Y-61744D01*
X28615Y-61857D01*
X28559Y-61913D01*
X28447Y-61969D01*
X28334Y-61969D01*
X28222Y-61913D01*
X28165Y-61857D01*
X28109Y-61744D01*
X28053Y-61519D01*
X28053Y-61238D01*
X28109Y-61013D01*
X28165Y-60901D01*
X28222Y-60844D01*
X28334Y-60788D01*
X29178Y-60788D02*
X29178Y-61013D01*
X29628Y-60788D02*
X29628Y-61013D01*
X31371Y-62419D02*
X31315Y-62363D01*
X31203Y-62194D01*
X31146Y-62082D01*
X31090Y-61913D01*
X31034Y-61632D01*
X31034Y-61407D01*
X31090Y-61126D01*
X31146Y-60957D01*
X31203Y-60844D01*
X31315Y-60676D01*
X31371Y-60619D01*
X32327Y-61182D02*
X32327Y-61969D01*
X32046Y-60732D02*
X31765Y-61576D01*
X32496Y-61576D01*
X33846Y-61969D02*
X33846Y-60788D01*
X34352Y-61969D02*
X34352Y-61351D01*
X34296Y-61238D01*
X34183Y-61182D01*
X34015Y-61182D01*
X33902Y-61238D01*
X33846Y-61294D01*
X35083Y-61969D02*
X34971Y-61913D01*
X34915Y-61857D01*
X34858Y-61744D01*
X34858Y-61407D01*
X34915Y-61294D01*
X34971Y-61238D01*
X35083Y-61182D01*
X35252Y-61182D01*
X35365Y-61238D01*
X35421Y-61294D01*
X35477Y-61407D01*
X35477Y-61744D01*
X35421Y-61857D01*
X35365Y-61913D01*
X35252Y-61969D01*
X35083Y-61969D01*
X36152Y-61969D02*
X36039Y-61913D01*
X35983Y-61801D01*
X35983Y-60788D01*
X37052Y-61913D02*
X36939Y-61969D01*
X36714Y-61969D01*
X36602Y-61913D01*
X36546Y-61801D01*
X36546Y-61351D01*
X36602Y-61238D01*
X36714Y-61182D01*
X36939Y-61182D01*
X37052Y-61238D01*
X37108Y-61351D01*
X37108Y-61463D01*
X36546Y-61576D01*
X37558Y-61913D02*
X37670Y-61969D01*
X37895Y-61969D01*
X38008Y-61913D01*
X38064Y-61801D01*
X38064Y-61744D01*
X38008Y-61632D01*
X37895Y-61576D01*
X37727Y-61576D01*
X37614Y-61519D01*
X37558Y-61407D01*
X37558Y-61351D01*
X37614Y-61238D01*
X37727Y-61182D01*
X37895Y-61182D01*
X38008Y-61238D01*
X38458Y-62419D02*
X38514Y-62363D01*
X38627Y-62194D01*
X38683Y-62082D01*
X38739Y-61913D01*
X38795Y-61632D01*
X38795Y-61407D01*
X38739Y-61126D01*
X38683Y-60957D01*
X38627Y-60844D01*
X38514Y-60676D01*
X38458Y-60619D01*
X12338Y-62673D02*
X12980Y-63315D01*
X12980Y-62673D02*
X12338Y-63315D01*
G54D12*
X12980Y-62994D02*
G75*
G03X12980Y-62994I-320J0D01*
G74*
G01*
G54D13*
X14667Y-63528D02*
X13992Y-63528D01*
X14330Y-63528D02*
X14330Y-62347D01*
X14217Y-62516D01*
X14105Y-62628D01*
X13992Y-62685D01*
X15173Y-63416D02*
X15230Y-63472D01*
X15173Y-63528D01*
X15117Y-63472D01*
X15173Y-63416D01*
X15173Y-63528D01*
X16242Y-62347D02*
X16017Y-62347D01*
X15904Y-62403D01*
X15848Y-62460D01*
X15736Y-62628D01*
X15679Y-62853D01*
X15679Y-63303D01*
X15736Y-63416D01*
X15792Y-63472D01*
X15904Y-63528D01*
X16129Y-63528D01*
X16242Y-63472D01*
X16298Y-63416D01*
X16354Y-63303D01*
X16354Y-63022D01*
X16298Y-62910D01*
X16242Y-62853D01*
X16129Y-62797D01*
X15904Y-62797D01*
X15792Y-62853D01*
X15736Y-62910D01*
X15679Y-63022D01*
X16748Y-62347D02*
X17479Y-62347D01*
X17086Y-62797D01*
X17254Y-62797D01*
X17367Y-62853D01*
X17423Y-62910D01*
X17479Y-63022D01*
X17479Y-63303D01*
X17423Y-63416D01*
X17367Y-63472D01*
X17254Y-63528D01*
X16917Y-63528D01*
X16804Y-63472D01*
X16748Y-63416D01*
X17985Y-63528D02*
X17985Y-62741D01*
X17985Y-62853D02*
X18042Y-62797D01*
X18154Y-62741D01*
X18323Y-62741D01*
X18435Y-62797D01*
X18492Y-62910D01*
X18492Y-63528D01*
X18492Y-62910D02*
X18548Y-62797D01*
X18660Y-62741D01*
X18829Y-62741D01*
X18942Y-62797D01*
X18998Y-62910D01*
X18998Y-63528D01*
X19560Y-63528D02*
X19560Y-62741D01*
X19560Y-62853D02*
X19616Y-62797D01*
X19729Y-62741D01*
X19898Y-62741D01*
X20010Y-62797D01*
X20066Y-62910D01*
X20066Y-63528D01*
X20066Y-62910D02*
X20123Y-62797D01*
X20235Y-62741D01*
X20404Y-62741D01*
X20516Y-62797D01*
X20573Y-62910D01*
X20573Y-63528D01*
X22879Y-62291D02*
X21866Y-63810D01*
X24397Y-62347D02*
X24510Y-62347D01*
X24622Y-62403D01*
X24678Y-62460D01*
X24735Y-62572D01*
X24791Y-62797D01*
X24791Y-63078D01*
X24735Y-63303D01*
X24678Y-63416D01*
X24622Y-63472D01*
X24510Y-63528D01*
X24397Y-63528D01*
X24285Y-63472D01*
X24228Y-63416D01*
X24172Y-63303D01*
X24116Y-63078D01*
X24116Y-62797D01*
X24172Y-62572D01*
X24228Y-62460D01*
X24285Y-62403D01*
X24397Y-62347D01*
X25297Y-63416D02*
X25353Y-63472D01*
X25297Y-63528D01*
X25241Y-63472D01*
X25297Y-63416D01*
X25297Y-63528D01*
X26084Y-62347D02*
X26197Y-62347D01*
X26309Y-62403D01*
X26366Y-62460D01*
X26422Y-62572D01*
X26478Y-62797D01*
X26478Y-63078D01*
X26422Y-63303D01*
X26366Y-63416D01*
X26309Y-63472D01*
X26197Y-63528D01*
X26084Y-63528D01*
X25972Y-63472D01*
X25916Y-63416D01*
X25859Y-63303D01*
X25803Y-63078D01*
X25803Y-62797D01*
X25859Y-62572D01*
X25916Y-62460D01*
X25972Y-62403D01*
X26084Y-62347D01*
X27491Y-62347D02*
X27266Y-62347D01*
X27153Y-62403D01*
X27097Y-62460D01*
X26984Y-62628D01*
X26928Y-62853D01*
X26928Y-63303D01*
X26984Y-63416D01*
X27041Y-63472D01*
X27153Y-63528D01*
X27378Y-63528D01*
X27491Y-63472D01*
X27547Y-63416D01*
X27603Y-63303D01*
X27603Y-63022D01*
X27547Y-62910D01*
X27491Y-62853D01*
X27378Y-62797D01*
X27153Y-62797D01*
X27041Y-62853D01*
X26984Y-62910D01*
X26928Y-63022D01*
X28615Y-62741D02*
X28615Y-63528D01*
X28334Y-62291D02*
X28053Y-63135D01*
X28784Y-63135D01*
X29178Y-62347D02*
X29178Y-62572D01*
X29628Y-62347D02*
X29628Y-62572D01*
X31371Y-63978D02*
X31315Y-63922D01*
X31203Y-63753D01*
X31146Y-63641D01*
X31090Y-63472D01*
X31034Y-63191D01*
X31034Y-62966D01*
X31090Y-62685D01*
X31146Y-62516D01*
X31203Y-62403D01*
X31315Y-62235D01*
X31371Y-62178D01*
X31765Y-62460D02*
X31821Y-62403D01*
X31934Y-62347D01*
X32215Y-62347D01*
X32327Y-62403D01*
X32384Y-62460D01*
X32440Y-62572D01*
X32440Y-62685D01*
X32384Y-62853D01*
X31709Y-63528D01*
X32440Y-63528D01*
X33846Y-63528D02*
X33846Y-62347D01*
X34352Y-63528D02*
X34352Y-62910D01*
X34296Y-62797D01*
X34183Y-62741D01*
X34015Y-62741D01*
X33902Y-62797D01*
X33846Y-62853D01*
X35083Y-63528D02*
X34971Y-63472D01*
X34915Y-63416D01*
X34858Y-63303D01*
X34858Y-62966D01*
X34915Y-62853D01*
X34971Y-62797D01*
X35083Y-62741D01*
X35252Y-62741D01*
X35365Y-62797D01*
X35421Y-62853D01*
X35477Y-62966D01*
X35477Y-63303D01*
X35421Y-63416D01*
X35365Y-63472D01*
X35252Y-63528D01*
X35083Y-63528D01*
X36152Y-63528D02*
X36039Y-63472D01*
X35983Y-63360D01*
X35983Y-62347D01*
X37052Y-63472D02*
X36939Y-63528D01*
X36714Y-63528D01*
X36602Y-63472D01*
X36546Y-63360D01*
X36546Y-62910D01*
X36602Y-62797D01*
X36714Y-62741D01*
X36939Y-62741D01*
X37052Y-62797D01*
X37108Y-62910D01*
X37108Y-63022D01*
X36546Y-63135D01*
X37558Y-63472D02*
X37670Y-63528D01*
X37895Y-63528D01*
X38008Y-63472D01*
X38064Y-63360D01*
X38064Y-63303D01*
X38008Y-63191D01*
X37895Y-63135D01*
X37727Y-63135D01*
X37614Y-63078D01*
X37558Y-62966D01*
X37558Y-62910D01*
X37614Y-62797D01*
X37727Y-62741D01*
X37895Y-62741D01*
X38008Y-62797D01*
X38458Y-63978D02*
X38514Y-63922D01*
X38627Y-63753D01*
X38683Y-63641D01*
X38739Y-63472D01*
X38795Y-63191D01*
X38795Y-62966D01*
X38739Y-62685D01*
X38683Y-62516D01*
X38627Y-62403D01*
X38514Y-62235D01*
X38458Y-62178D01*
X12311Y-64218D02*
X12980Y-64888D01*
X12980Y-64218D02*
X12311Y-64888D01*
X12645Y-64218D02*
X12645Y-64888D01*
X12311Y-64553D02*
X12980Y-64553D01*
X14667Y-65087D02*
X13992Y-65087D01*
X14330Y-65087D02*
X14330Y-63906D01*
X14217Y-64075D01*
X14105Y-64187D01*
X13992Y-64244D01*
X15173Y-64975D02*
X15230Y-65031D01*
X15173Y-65087D01*
X15117Y-65031D01*
X15173Y-64975D01*
X15173Y-65087D01*
X15623Y-63906D02*
X16411Y-63906D01*
X15904Y-65087D01*
X17086Y-63906D02*
X17198Y-63906D01*
X17311Y-63962D01*
X17367Y-64019D01*
X17423Y-64131D01*
X17479Y-64356D01*
X17479Y-64637D01*
X17423Y-64862D01*
X17367Y-64975D01*
X17311Y-65031D01*
X17198Y-65087D01*
X17086Y-65087D01*
X16973Y-65031D01*
X16917Y-64975D01*
X16861Y-64862D01*
X16804Y-64637D01*
X16804Y-64356D01*
X16861Y-64131D01*
X16917Y-64019D01*
X16973Y-63962D01*
X17086Y-63906D01*
X17985Y-65087D02*
X17985Y-64300D01*
X17985Y-64412D02*
X18042Y-64356D01*
X18154Y-64300D01*
X18323Y-64300D01*
X18435Y-64356D01*
X18492Y-64469D01*
X18492Y-65087D01*
X18492Y-64469D02*
X18548Y-64356D01*
X18660Y-64300D01*
X18829Y-64300D01*
X18942Y-64356D01*
X18998Y-64469D01*
X18998Y-65087D01*
X19560Y-65087D02*
X19560Y-64300D01*
X19560Y-64412D02*
X19616Y-64356D01*
X19729Y-64300D01*
X19898Y-64300D01*
X20010Y-64356D01*
X20066Y-64469D01*
X20066Y-65087D01*
X20066Y-64469D02*
X20123Y-64356D01*
X20235Y-64300D01*
X20404Y-64300D01*
X20516Y-64356D01*
X20573Y-64469D01*
X20573Y-65087D01*
X22879Y-63850D02*
X21866Y-65369D01*
X24397Y-63906D02*
X24510Y-63906D01*
X24622Y-63962D01*
X24678Y-64019D01*
X24735Y-64131D01*
X24791Y-64356D01*
X24791Y-64637D01*
X24735Y-64862D01*
X24678Y-64975D01*
X24622Y-65031D01*
X24510Y-65087D01*
X24397Y-65087D01*
X24285Y-65031D01*
X24228Y-64975D01*
X24172Y-64862D01*
X24116Y-64637D01*
X24116Y-64356D01*
X24172Y-64131D01*
X24228Y-64019D01*
X24285Y-63962D01*
X24397Y-63906D01*
X25297Y-64975D02*
X25353Y-65031D01*
X25297Y-65087D01*
X25241Y-65031D01*
X25297Y-64975D01*
X25297Y-65087D01*
X26084Y-63906D02*
X26197Y-63906D01*
X26309Y-63962D01*
X26366Y-64019D01*
X26422Y-64131D01*
X26478Y-64356D01*
X26478Y-64637D01*
X26422Y-64862D01*
X26366Y-64975D01*
X26309Y-65031D01*
X26197Y-65087D01*
X26084Y-65087D01*
X25972Y-65031D01*
X25916Y-64975D01*
X25859Y-64862D01*
X25803Y-64637D01*
X25803Y-64356D01*
X25859Y-64131D01*
X25916Y-64019D01*
X25972Y-63962D01*
X26084Y-63906D01*
X27491Y-63906D02*
X27266Y-63906D01*
X27153Y-63962D01*
X27097Y-64019D01*
X26984Y-64187D01*
X26928Y-64412D01*
X26928Y-64862D01*
X26984Y-64975D01*
X27041Y-65031D01*
X27153Y-65087D01*
X27378Y-65087D01*
X27491Y-65031D01*
X27547Y-64975D01*
X27603Y-64862D01*
X27603Y-64581D01*
X27547Y-64469D01*
X27491Y-64412D01*
X27378Y-64356D01*
X27153Y-64356D01*
X27041Y-64412D01*
X26984Y-64469D01*
X26928Y-64581D01*
X27997Y-63906D02*
X28784Y-63906D01*
X28278Y-65087D01*
X29178Y-63906D02*
X29178Y-64131D01*
X29628Y-63906D02*
X29628Y-64131D01*
X31371Y-65537D02*
X31315Y-65481D01*
X31203Y-65312D01*
X31146Y-65200D01*
X31090Y-65031D01*
X31034Y-64750D01*
X31034Y-64525D01*
X31090Y-64244D01*
X31146Y-64075D01*
X31203Y-63962D01*
X31315Y-63794D01*
X31371Y-63738D01*
X31765Y-64019D02*
X31821Y-63962D01*
X31934Y-63906D01*
X32215Y-63906D01*
X32327Y-63962D01*
X32384Y-64019D01*
X32440Y-64131D01*
X32440Y-64244D01*
X32384Y-64412D01*
X31709Y-65087D01*
X32440Y-65087D01*
X33846Y-65087D02*
X33846Y-63906D01*
X34352Y-65087D02*
X34352Y-64469D01*
X34296Y-64356D01*
X34183Y-64300D01*
X34015Y-64300D01*
X33902Y-64356D01*
X33846Y-64412D01*
X35083Y-65087D02*
X34971Y-65031D01*
X34915Y-64975D01*
X34858Y-64862D01*
X34858Y-64525D01*
X34915Y-64412D01*
X34971Y-64356D01*
X35083Y-64300D01*
X35252Y-64300D01*
X35365Y-64356D01*
X35421Y-64412D01*
X35477Y-64525D01*
X35477Y-64862D01*
X35421Y-64975D01*
X35365Y-65031D01*
X35252Y-65087D01*
X35083Y-65087D01*
X36152Y-65087D02*
X36039Y-65031D01*
X35983Y-64919D01*
X35983Y-63906D01*
X37052Y-65031D02*
X36939Y-65087D01*
X36714Y-65087D01*
X36602Y-65031D01*
X36546Y-64919D01*
X36546Y-64469D01*
X36602Y-64356D01*
X36714Y-64300D01*
X36939Y-64300D01*
X37052Y-64356D01*
X37108Y-64469D01*
X37108Y-64581D01*
X36546Y-64694D01*
X37558Y-65031D02*
X37670Y-65087D01*
X37895Y-65087D01*
X38008Y-65031D01*
X38064Y-64919D01*
X38064Y-64862D01*
X38008Y-64750D01*
X37895Y-64694D01*
X37727Y-64694D01*
X37614Y-64637D01*
X37558Y-64525D01*
X37558Y-64469D01*
X37614Y-64356D01*
X37727Y-64300D01*
X37895Y-64300D01*
X38008Y-64356D01*
X38458Y-65537D02*
X38514Y-65481D01*
X38627Y-65312D01*
X38683Y-65200D01*
X38739Y-65031D01*
X38795Y-64750D01*
X38795Y-64525D01*
X38739Y-64244D01*
X38683Y-64075D01*
X38627Y-63962D01*
X38514Y-63794D01*
X38458Y-63738D01*
X11799Y-65522D02*
X12980Y-66703D01*
X12980Y-65522D02*
X11799Y-66703D01*
G54D12*
X12807Y-66530D02*
X12807Y-65695D01*
X11972Y-65695D01*
X11972Y-66530D01*
X12807Y-66530D01*
G54D13*
X13936Y-65465D02*
X14667Y-65465D01*
X14273Y-65915D01*
X14442Y-65915D01*
X14555Y-65971D01*
X14611Y-66028D01*
X14667Y-66140D01*
X14667Y-66421D01*
X14611Y-66534D01*
X14555Y-66590D01*
X14442Y-66646D01*
X14105Y-66646D01*
X13992Y-66590D01*
X13936Y-66534D01*
X15173Y-66534D02*
X15230Y-66590D01*
X15173Y-66646D01*
X15117Y-66590D01*
X15173Y-66534D01*
X15173Y-66646D01*
X15961Y-65465D02*
X16073Y-65465D01*
X16186Y-65522D01*
X16242Y-65578D01*
X16298Y-65690D01*
X16354Y-65915D01*
X16354Y-66196D01*
X16298Y-66421D01*
X16242Y-66534D01*
X16186Y-66590D01*
X16073Y-66646D01*
X15961Y-66646D01*
X15848Y-66590D01*
X15792Y-66534D01*
X15736Y-66421D01*
X15679Y-66196D01*
X15679Y-65915D01*
X15736Y-65690D01*
X15792Y-65578D01*
X15848Y-65522D01*
X15961Y-65465D01*
X17086Y-65465D02*
X17198Y-65465D01*
X17311Y-65522D01*
X17367Y-65578D01*
X17423Y-65690D01*
X17479Y-65915D01*
X17479Y-66196D01*
X17423Y-66421D01*
X17367Y-66534D01*
X17311Y-66590D01*
X17198Y-66646D01*
X17086Y-66646D01*
X16973Y-66590D01*
X16917Y-66534D01*
X16861Y-66421D01*
X16804Y-66196D01*
X16804Y-65915D01*
X16861Y-65690D01*
X16917Y-65578D01*
X16973Y-65522D01*
X17086Y-65465D01*
X17985Y-66646D02*
X17985Y-65859D01*
X17985Y-65971D02*
X18042Y-65915D01*
X18154Y-65859D01*
X18323Y-65859D01*
X18435Y-65915D01*
X18492Y-66028D01*
X18492Y-66646D01*
X18492Y-66028D02*
X18548Y-65915D01*
X18660Y-65859D01*
X18829Y-65859D01*
X18942Y-65915D01*
X18998Y-66028D01*
X18998Y-66646D01*
X19560Y-66646D02*
X19560Y-65859D01*
X19560Y-65971D02*
X19616Y-65915D01*
X19729Y-65859D01*
X19898Y-65859D01*
X20010Y-65915D01*
X20066Y-66028D01*
X20066Y-66646D01*
X20066Y-66028D02*
X20123Y-65915D01*
X20235Y-65859D01*
X20404Y-65859D01*
X20516Y-65915D01*
X20573Y-66028D01*
X20573Y-66646D01*
X22879Y-65409D02*
X21866Y-66928D01*
X24397Y-65465D02*
X24510Y-65465D01*
X24622Y-65522D01*
X24678Y-65578D01*
X24735Y-65690D01*
X24791Y-65915D01*
X24791Y-66196D01*
X24735Y-66421D01*
X24678Y-66534D01*
X24622Y-66590D01*
X24510Y-66646D01*
X24397Y-66646D01*
X24285Y-66590D01*
X24228Y-66534D01*
X24172Y-66421D01*
X24116Y-66196D01*
X24116Y-65915D01*
X24172Y-65690D01*
X24228Y-65578D01*
X24285Y-65522D01*
X24397Y-65465D01*
X25297Y-66534D02*
X25353Y-66590D01*
X25297Y-66646D01*
X25241Y-66590D01*
X25297Y-66534D01*
X25297Y-66646D01*
X26478Y-66646D02*
X25803Y-66646D01*
X26141Y-66646D02*
X26141Y-65465D01*
X26028Y-65634D01*
X25916Y-65747D01*
X25803Y-65803D01*
X27603Y-66646D02*
X26928Y-66646D01*
X27266Y-66646D02*
X27266Y-65465D01*
X27153Y-65634D01*
X27041Y-65747D01*
X26928Y-65803D01*
X28278Y-65971D02*
X28165Y-65915D01*
X28109Y-65859D01*
X28053Y-65747D01*
X28053Y-65690D01*
X28109Y-65578D01*
X28165Y-65522D01*
X28278Y-65465D01*
X28503Y-65465D01*
X28615Y-65522D01*
X28672Y-65578D01*
X28728Y-65690D01*
X28728Y-65747D01*
X28672Y-65859D01*
X28615Y-65915D01*
X28503Y-65971D01*
X28278Y-65971D01*
X28165Y-66028D01*
X28109Y-66084D01*
X28053Y-66196D01*
X28053Y-66421D01*
X28109Y-66534D01*
X28165Y-66590D01*
X28278Y-66646D01*
X28503Y-66646D01*
X28615Y-66590D01*
X28672Y-66534D01*
X28728Y-66421D01*
X28728Y-66196D01*
X28672Y-66084D01*
X28615Y-66028D01*
X28503Y-65971D01*
X29178Y-65465D02*
X29178Y-65690D01*
X29628Y-65465D02*
X29628Y-65690D01*
X31371Y-67096D02*
X31315Y-67040D01*
X31203Y-66871D01*
X31146Y-66759D01*
X31090Y-66590D01*
X31034Y-66309D01*
X31034Y-66084D01*
X31090Y-65803D01*
X31146Y-65634D01*
X31203Y-65522D01*
X31315Y-65353D01*
X31371Y-65297D01*
X32327Y-65859D02*
X32327Y-66646D01*
X32046Y-65409D02*
X31765Y-66253D01*
X32496Y-66253D01*
X33846Y-66646D02*
X33846Y-65465D01*
X34352Y-66646D02*
X34352Y-66028D01*
X34296Y-65915D01*
X34183Y-65859D01*
X34015Y-65859D01*
X33902Y-65915D01*
X33846Y-65971D01*
X35083Y-66646D02*
X34971Y-66590D01*
X34915Y-66534D01*
X34858Y-66421D01*
X34858Y-66084D01*
X34915Y-65971D01*
X34971Y-65915D01*
X35083Y-65859D01*
X35252Y-65859D01*
X35365Y-65915D01*
X35421Y-65971D01*
X35477Y-66084D01*
X35477Y-66421D01*
X35421Y-66534D01*
X35365Y-66590D01*
X35252Y-66646D01*
X35083Y-66646D01*
X36152Y-66646D02*
X36039Y-66590D01*
X35983Y-66478D01*
X35983Y-65465D01*
X37052Y-66590D02*
X36939Y-66646D01*
X36714Y-66646D01*
X36602Y-66590D01*
X36546Y-66478D01*
X36546Y-66028D01*
X36602Y-65915D01*
X36714Y-65859D01*
X36939Y-65859D01*
X37052Y-65915D01*
X37108Y-66028D01*
X37108Y-66140D01*
X36546Y-66253D01*
X37558Y-66590D02*
X37670Y-66646D01*
X37895Y-66646D01*
X38008Y-66590D01*
X38064Y-66478D01*
X38064Y-66421D01*
X38008Y-66309D01*
X37895Y-66253D01*
X37727Y-66253D01*
X37614Y-66196D01*
X37558Y-66084D01*
X37558Y-66028D01*
X37614Y-65915D01*
X37727Y-65859D01*
X37895Y-65859D01*
X38008Y-65915D01*
X38458Y-67096D02*
X38514Y-67040D01*
X38627Y-66871D01*
X38683Y-66759D01*
X38739Y-66590D01*
X38795Y-66309D01*
X38795Y-66084D01*
X38739Y-65803D01*
X38683Y-65634D01*
X38627Y-65522D01*
X38514Y-65353D01*
X38458Y-65297D01*
X11700Y-67165D02*
X12980Y-68445D01*
X12980Y-67165D02*
X11700Y-68445D01*
G54D12*
X12340Y-68445D02*
X12980Y-67805D01*
X12340Y-67165D01*
X11700Y-67805D01*
X12340Y-68445D01*
G54D13*
X13936Y-67158D02*
X14667Y-67158D01*
X14273Y-67608D01*
X14442Y-67608D01*
X14555Y-67664D01*
X14611Y-67721D01*
X14667Y-67833D01*
X14667Y-68114D01*
X14611Y-68227D01*
X14555Y-68283D01*
X14442Y-68339D01*
X14105Y-68339D01*
X13992Y-68283D01*
X13936Y-68227D01*
X15173Y-68227D02*
X15230Y-68283D01*
X15173Y-68339D01*
X15117Y-68283D01*
X15173Y-68227D01*
X15173Y-68339D01*
X15679Y-67271D02*
X15736Y-67214D01*
X15848Y-67158D01*
X16129Y-67158D01*
X16242Y-67214D01*
X16298Y-67271D01*
X16354Y-67383D01*
X16354Y-67496D01*
X16298Y-67664D01*
X15623Y-68339D01*
X16354Y-68339D01*
X17423Y-67158D02*
X16861Y-67158D01*
X16804Y-67721D01*
X16861Y-67664D01*
X16973Y-67608D01*
X17254Y-67608D01*
X17367Y-67664D01*
X17423Y-67721D01*
X17479Y-67833D01*
X17479Y-68114D01*
X17423Y-68227D01*
X17367Y-68283D01*
X17254Y-68339D01*
X16973Y-68339D01*
X16861Y-68283D01*
X16804Y-68227D01*
X17985Y-68339D02*
X17985Y-67552D01*
X17985Y-67664D02*
X18042Y-67608D01*
X18154Y-67552D01*
X18323Y-67552D01*
X18435Y-67608D01*
X18492Y-67721D01*
X18492Y-68339D01*
X18492Y-67721D02*
X18548Y-67608D01*
X18660Y-67552D01*
X18829Y-67552D01*
X18942Y-67608D01*
X18998Y-67721D01*
X18998Y-68339D01*
X19560Y-68339D02*
X19560Y-67552D01*
X19560Y-67664D02*
X19616Y-67608D01*
X19729Y-67552D01*
X19898Y-67552D01*
X20010Y-67608D01*
X20066Y-67721D01*
X20066Y-68339D01*
X20066Y-67721D02*
X20123Y-67608D01*
X20235Y-67552D01*
X20404Y-67552D01*
X20516Y-67608D01*
X20573Y-67721D01*
X20573Y-68339D01*
X22879Y-67102D02*
X21866Y-68621D01*
X24397Y-67158D02*
X24510Y-67158D01*
X24622Y-67214D01*
X24678Y-67271D01*
X24735Y-67383D01*
X24791Y-67608D01*
X24791Y-67889D01*
X24735Y-68114D01*
X24678Y-68227D01*
X24622Y-68283D01*
X24510Y-68339D01*
X24397Y-68339D01*
X24285Y-68283D01*
X24228Y-68227D01*
X24172Y-68114D01*
X24116Y-67889D01*
X24116Y-67608D01*
X24172Y-67383D01*
X24228Y-67271D01*
X24285Y-67214D01*
X24397Y-67158D01*
X25297Y-68227D02*
X25353Y-68283D01*
X25297Y-68339D01*
X25241Y-68283D01*
X25297Y-68227D01*
X25297Y-68339D01*
X26478Y-68339D02*
X25803Y-68339D01*
X26141Y-68339D02*
X26141Y-67158D01*
X26028Y-67327D01*
X25916Y-67439D01*
X25803Y-67496D01*
X26928Y-67271D02*
X26984Y-67214D01*
X27097Y-67158D01*
X27378Y-67158D01*
X27491Y-67214D01*
X27547Y-67271D01*
X27603Y-67383D01*
X27603Y-67496D01*
X27547Y-67664D01*
X26872Y-68339D01*
X27603Y-68339D01*
X28278Y-67664D02*
X28165Y-67608D01*
X28109Y-67552D01*
X28053Y-67439D01*
X28053Y-67383D01*
X28109Y-67271D01*
X28165Y-67214D01*
X28278Y-67158D01*
X28503Y-67158D01*
X28615Y-67214D01*
X28672Y-67271D01*
X28728Y-67383D01*
X28728Y-67439D01*
X28672Y-67552D01*
X28615Y-67608D01*
X28503Y-67664D01*
X28278Y-67664D01*
X28165Y-67721D01*
X28109Y-67777D01*
X28053Y-67889D01*
X28053Y-68114D01*
X28109Y-68227D01*
X28165Y-68283D01*
X28278Y-68339D01*
X28503Y-68339D01*
X28615Y-68283D01*
X28672Y-68227D01*
X28728Y-68114D01*
X28728Y-67889D01*
X28672Y-67777D01*
X28615Y-67721D01*
X28503Y-67664D01*
X29178Y-67158D02*
X29178Y-67383D01*
X29628Y-67158D02*
X29628Y-67383D01*
X31371Y-68789D02*
X31315Y-68733D01*
X31203Y-68564D01*
X31146Y-68452D01*
X31090Y-68283D01*
X31034Y-68002D01*
X31034Y-67777D01*
X31090Y-67496D01*
X31146Y-67327D01*
X31203Y-67214D01*
X31315Y-67046D01*
X31371Y-66989D01*
X31765Y-67271D02*
X31821Y-67214D01*
X31934Y-67158D01*
X32215Y-67158D01*
X32327Y-67214D01*
X32384Y-67271D01*
X32440Y-67383D01*
X32440Y-67496D01*
X32384Y-67664D01*
X31709Y-68339D01*
X32440Y-68339D01*
X33846Y-68339D02*
X33846Y-67158D01*
X34352Y-68339D02*
X34352Y-67721D01*
X34296Y-67608D01*
X34183Y-67552D01*
X34015Y-67552D01*
X33902Y-67608D01*
X33846Y-67664D01*
X35083Y-68339D02*
X34971Y-68283D01*
X34915Y-68227D01*
X34858Y-68114D01*
X34858Y-67777D01*
X34915Y-67664D01*
X34971Y-67608D01*
X35083Y-67552D01*
X35252Y-67552D01*
X35365Y-67608D01*
X35421Y-67664D01*
X35477Y-67777D01*
X35477Y-68114D01*
X35421Y-68227D01*
X35365Y-68283D01*
X35252Y-68339D01*
X35083Y-68339D01*
X36152Y-68339D02*
X36039Y-68283D01*
X35983Y-68171D01*
X35983Y-67158D01*
X37052Y-68283D02*
X36939Y-68339D01*
X36714Y-68339D01*
X36602Y-68283D01*
X36546Y-68171D01*
X36546Y-67721D01*
X36602Y-67608D01*
X36714Y-67552D01*
X36939Y-67552D01*
X37052Y-67608D01*
X37108Y-67721D01*
X37108Y-67833D01*
X36546Y-67946D01*
X37558Y-68283D02*
X37670Y-68339D01*
X37895Y-68339D01*
X38008Y-68283D01*
X38064Y-68171D01*
X38064Y-68114D01*
X38008Y-68002D01*
X37895Y-67946D01*
X37727Y-67946D01*
X37614Y-67889D01*
X37558Y-67777D01*
X37558Y-67721D01*
X37614Y-67608D01*
X37727Y-67552D01*
X37895Y-67552D01*
X38008Y-67608D01*
X38458Y-68789D02*
X38514Y-68733D01*
X38627Y-68564D01*
X38683Y-68452D01*
X38739Y-68283D01*
X38795Y-68002D01*
X38795Y-67777D01*
X38739Y-67496D01*
X38683Y-67327D01*
X38627Y-67214D01*
X38514Y-67046D01*
X38458Y-66989D01*
M02*
