M48
;DRILL file {Pcbnew (2013-08-24 BZR 4298)-stable} date Mon 07 Oct 2013 08:26:35 PM PDT
;FORMAT={-:-/ absolute / metric / decimal}
FMAT,2
METRIC,TZ
T1C0.635
T2C0.800
T3C0.890
T4C1.001
T5C1.020
T6C1.630
T7C1.700
T8C3.000
T9C3.250
%
G90
G05
M71
T1
X46.06Y-78.03
X48.43Y-69.04
X57.1Y-117.73
X58.52Y-99.67
X60.07Y-109.73
X60.66Y-90.68
X60.88Y-107.5
X63.46Y-112.37
X63.7Y-102.72
X65.28Y-111.76
X65.53Y-99.9
X67.12Y-94.77
X68.2Y-113.77
X70.11Y-103.29
X70.55Y-116.14
X71.08Y-79.18
X71.57Y-104.92
X73.08Y-102.24
X73.45Y-106.95
X73.61Y-67.86
X74.35Y-99.7
X74.88Y-98.3
X74.98Y-96.92
X75.05Y-106.64
X75.57Y-80.09
X76.78Y-92.65
X76.81Y-117.88
X77.52Y-82.32
X79.07Y-78.92
X79.36Y-67.89
X80.54Y-90.34
X81.36Y-67.89
X81.36Y-115.11
X81.53Y-78.96
X81.7Y-89.15
X83.01Y-93.4
X83.96Y-91.89
X84.12Y-114.8
X84.4Y-94.84
X84.43Y-96.35
X85.61Y-87.02
X86.38Y-114.66
X87.73Y-89.46
X88.53Y-90.94
X88.91Y-72.76
X89.79Y-110.04
X90.02Y-124.84
X94.2Y-109.4
X94.34Y-118.41
X94.45Y-78.83
X95.64Y-116.55
X96.24Y-108.33
X97.03Y-95.35
X97.99Y-118.03
X99.59Y-112.09
X101.8Y-116.85
X102.37Y-112.36
X102.64Y-98.17
X103.56Y-115.75
X104.37Y-93.42
X104.39Y-79.48
X104.66Y-112.4
X105.13Y-108.35
X105.74Y-101.4
X106.68Y-114.47
X106.71Y-88.93
X110.67Y-95.38
X116.01Y-94.75
T2
X66.848Y-105.968
X66.848Y-107.492
X67.61Y-106.73
X68.372Y-105.968
X68.372Y-107.492
T3
X49.15Y-99.273
X49.15Y-101.813
X49.15Y-104.353
X49.15Y-106.883
X51.69Y-97.978
X51.69Y-100.518
X51.69Y-103.058
X51.69Y-105.588
T4
X94.175Y-70.124
X98.575Y-70.124
T5
X37.9Y-95.925
X37.9Y-98.465
X37.9Y-106.635
X37.9Y-109.175
T6
X45.85Y-94.805
X45.85Y-110.295
T7
X57.16Y-70.94
X57.16Y-75.44
T8
X37.Y-70.
X37.Y-124.
X115.Y-70.
X115.Y-124.
T9
X42.932Y-96.835
X42.932Y-108.265
T0
M30
