G04 (created by PCBNEW (2013-08-24 BZR 4298)-stable) date Mon 07 Oct 2013 07:48:12 PM PDT*
%MOIN*%
G04 Gerber Fmt 3.4, Leading zero omitted, Abs format*
%FSLAX34Y34*%
G01*
G70*
G90*
G04 APERTURE LIST*
%ADD10C,0.005906*%
%ADD11C,0.003900*%
%ADD12C,0.005000*%
%ADD13C,0.008000*%
%ADD14C,0.015000*%
%ADD15C,0.010000*%
%ADD16C,0.007900*%
%ADD17C,0.005900*%
%ADD18C,0.003700*%
%ADD19C,0.006000*%
%ADD20C,0.012000*%
%ADD21C,0.007500*%
%ADD22C,0.009850*%
G04 APERTURE END LIST*
G54D10*
G54D11*
X29299Y-34304D02*
X29699Y-34304D01*
X29701Y-34318D02*
X29701Y-34918D01*
X29701Y-34942D02*
X29301Y-34942D01*
X28517Y-34944D02*
X28117Y-34944D01*
X28111Y-34918D02*
X28111Y-34318D01*
X28113Y-34296D02*
X28513Y-34296D01*
G54D12*
X39832Y-29183D02*
X36052Y-29184D01*
X36052Y-29184D02*
X36052Y-25561D01*
X36052Y-25561D02*
X39832Y-25561D01*
X39832Y-25561D02*
X39832Y-29183D01*
G54D13*
X34182Y-41518D02*
G75*
G03X34182Y-41518I-150J0D01*
G74*
G01*
X37632Y-37918D02*
X33632Y-37918D01*
X33632Y-37918D02*
X33632Y-41668D01*
X33632Y-41668D02*
X33882Y-41918D01*
X33882Y-41918D02*
X37632Y-41918D01*
X37632Y-41918D02*
X37632Y-37918D01*
G54D14*
X26616Y-49416D02*
X26616Y-47524D01*
X32044Y-49410D02*
X32044Y-47518D01*
X31928Y-47524D02*
X26726Y-47524D01*
X31930Y-49422D02*
X26728Y-49422D01*
X38607Y-31713D02*
X38607Y-33605D01*
X33179Y-31719D02*
X33179Y-33611D01*
X33295Y-33605D02*
X38497Y-33605D01*
X33293Y-31707D02*
X38495Y-31707D01*
G54D10*
X13307Y-37460D02*
X12913Y-37460D01*
X12913Y-37460D02*
X12913Y-43287D01*
X12913Y-43287D02*
X13307Y-43287D01*
X13307Y-43287D02*
X13307Y-37460D01*
G54D15*
X21062Y-37224D02*
X21062Y-43523D01*
X21062Y-43523D02*
X12637Y-43523D01*
X12637Y-43523D02*
X12637Y-37224D01*
X12637Y-37224D02*
X21062Y-37224D01*
G54D10*
X22533Y-26541D02*
G75*
G03X22533Y-26541I-29J0D01*
G74*
G01*
X22838Y-26541D02*
G75*
G03X22838Y-26541I-334J0D01*
G74*
G01*
G54D16*
X19943Y-31787D02*
X19943Y-25960D01*
X19943Y-25960D02*
X25063Y-25960D01*
G54D10*
X25063Y-25960D02*
X25063Y-31787D01*
G54D16*
X25063Y-31787D02*
X19943Y-31787D01*
G54D12*
X25388Y-45449D02*
X25388Y-45049D01*
X25388Y-45049D02*
X25988Y-45049D01*
X25988Y-45049D02*
X25988Y-45449D01*
X25988Y-45849D02*
X25988Y-46249D01*
X25988Y-46249D02*
X25388Y-46249D01*
X25388Y-46249D02*
X25388Y-45849D01*
X17752Y-45240D02*
X17352Y-45240D01*
X17352Y-45240D02*
X17352Y-44640D01*
X17352Y-44640D02*
X17752Y-44640D01*
X18152Y-44640D02*
X18552Y-44640D01*
X18552Y-44640D02*
X18552Y-45240D01*
X18552Y-45240D02*
X18152Y-45240D01*
X35800Y-45018D02*
X35800Y-45418D01*
X35800Y-45418D02*
X35200Y-45418D01*
X35200Y-45418D02*
X35200Y-45018D01*
X35200Y-44618D02*
X35200Y-44218D01*
X35200Y-44218D02*
X35800Y-44218D01*
X35800Y-44218D02*
X35800Y-44618D01*
X22680Y-42396D02*
X23080Y-42396D01*
X23080Y-42396D02*
X23080Y-42996D01*
X23080Y-42996D02*
X22680Y-42996D01*
X22280Y-42996D02*
X21880Y-42996D01*
X21880Y-42996D02*
X21880Y-42396D01*
X21880Y-42396D02*
X22280Y-42396D01*
X21766Y-40961D02*
X21766Y-40561D01*
X21766Y-40561D02*
X22366Y-40561D01*
X22366Y-40561D02*
X22366Y-40961D01*
X22366Y-41361D02*
X22366Y-41761D01*
X22366Y-41761D02*
X21766Y-41761D01*
X21766Y-41761D02*
X21766Y-41361D01*
X22709Y-43686D02*
X23109Y-43686D01*
X23109Y-43686D02*
X23109Y-44286D01*
X23109Y-44286D02*
X22709Y-44286D01*
X22309Y-44286D02*
X21909Y-44286D01*
X21909Y-44286D02*
X21909Y-43686D01*
X21909Y-43686D02*
X22309Y-43686D01*
X22366Y-39796D02*
X22366Y-40196D01*
X22366Y-40196D02*
X21766Y-40196D01*
X21766Y-40196D02*
X21766Y-39796D01*
X21766Y-39396D02*
X21766Y-38996D01*
X21766Y-38996D02*
X22366Y-38996D01*
X22366Y-38996D02*
X22366Y-39396D01*
X31418Y-41272D02*
X31018Y-41272D01*
X31018Y-41272D02*
X31018Y-40672D01*
X31018Y-40672D02*
X31418Y-40672D01*
X31818Y-40672D02*
X32218Y-40672D01*
X32218Y-40672D02*
X32218Y-41272D01*
X32218Y-41272D02*
X31818Y-41272D01*
X31961Y-42441D02*
X31561Y-42441D01*
X31561Y-42441D02*
X31561Y-41841D01*
X31561Y-41841D02*
X31961Y-41841D01*
X32361Y-41841D02*
X32761Y-41841D01*
X32761Y-41841D02*
X32761Y-42441D01*
X32761Y-42441D02*
X32361Y-42441D01*
X30670Y-43240D02*
X30270Y-43240D01*
X30270Y-43240D02*
X30270Y-42640D01*
X30270Y-42640D02*
X30670Y-42640D01*
X31070Y-42640D02*
X31470Y-42640D01*
X31470Y-42640D02*
X31470Y-43240D01*
X31470Y-43240D02*
X31070Y-43240D01*
X29668Y-49786D02*
X30068Y-49786D01*
X30068Y-49786D02*
X30068Y-50386D01*
X30068Y-50386D02*
X29668Y-50386D01*
X29268Y-50386D02*
X28868Y-50386D01*
X28868Y-50386D02*
X28868Y-49786D01*
X28868Y-49786D02*
X29268Y-49786D01*
X23318Y-45429D02*
X23318Y-45029D01*
X23318Y-45029D02*
X23918Y-45029D01*
X23918Y-45029D02*
X23918Y-45429D01*
X23918Y-45829D02*
X23918Y-46229D01*
X23918Y-46229D02*
X23318Y-46229D01*
X23318Y-46229D02*
X23318Y-45829D01*
X34288Y-44038D02*
X34288Y-44438D01*
X34288Y-44438D02*
X33688Y-44438D01*
X33688Y-44438D02*
X33688Y-44038D01*
X33688Y-43638D02*
X33688Y-43238D01*
X33688Y-43238D02*
X34288Y-43238D01*
X34288Y-43238D02*
X34288Y-43638D01*
X33398Y-44058D02*
X33398Y-44458D01*
X33398Y-44458D02*
X32798Y-44458D01*
X32798Y-44458D02*
X32798Y-44058D01*
X32798Y-43658D02*
X32798Y-43258D01*
X32798Y-43258D02*
X33398Y-43258D01*
X33398Y-43258D02*
X33398Y-43658D01*
X32418Y-44062D02*
X32418Y-44462D01*
X32418Y-44462D02*
X31818Y-44462D01*
X31818Y-44462D02*
X31818Y-44062D01*
X31818Y-43662D02*
X31818Y-43262D01*
X31818Y-43262D02*
X32418Y-43262D01*
X32418Y-43262D02*
X32418Y-43662D01*
X24239Y-45449D02*
X24239Y-45049D01*
X24239Y-45049D02*
X24839Y-45049D01*
X24839Y-45049D02*
X24839Y-45449D01*
X24839Y-45849D02*
X24839Y-46249D01*
X24839Y-46249D02*
X24239Y-46249D01*
X24239Y-46249D02*
X24239Y-45849D01*
X39500Y-35219D02*
X39500Y-35619D01*
X39500Y-35619D02*
X38900Y-35619D01*
X38900Y-35619D02*
X38900Y-35219D01*
X38900Y-34819D02*
X38900Y-34419D01*
X38900Y-34419D02*
X39500Y-34419D01*
X39500Y-34419D02*
X39500Y-34819D01*
X37806Y-34331D02*
X37806Y-33931D01*
X37806Y-33931D02*
X38406Y-33931D01*
X38406Y-33931D02*
X38406Y-34331D01*
X38406Y-34731D02*
X38406Y-35131D01*
X38406Y-35131D02*
X37806Y-35131D01*
X37806Y-35131D02*
X37806Y-34731D01*
X36270Y-34481D02*
X36270Y-34081D01*
X36270Y-34081D02*
X36870Y-34081D01*
X36870Y-34081D02*
X36870Y-34481D01*
X36870Y-34881D02*
X36870Y-35281D01*
X36870Y-35281D02*
X36270Y-35281D01*
X36270Y-35281D02*
X36270Y-34881D01*
X41221Y-36003D02*
X41221Y-36403D01*
X41221Y-36403D02*
X40621Y-36403D01*
X40621Y-36403D02*
X40621Y-36003D01*
X40621Y-35603D02*
X40621Y-35203D01*
X40621Y-35203D02*
X41221Y-35203D01*
X41221Y-35203D02*
X41221Y-35603D01*
X42268Y-36306D02*
X42268Y-36706D01*
X42268Y-36706D02*
X41668Y-36706D01*
X41668Y-36706D02*
X41668Y-36306D01*
X41668Y-35906D02*
X41668Y-35506D01*
X41668Y-35506D02*
X42268Y-35506D01*
X42268Y-35506D02*
X42268Y-35906D01*
X37221Y-30309D02*
X36821Y-30309D01*
X36821Y-30309D02*
X36821Y-29709D01*
X36821Y-29709D02*
X37221Y-29709D01*
X37621Y-29709D02*
X38021Y-29709D01*
X38021Y-29709D02*
X38021Y-30309D01*
X38021Y-30309D02*
X37621Y-30309D01*
X41361Y-29656D02*
X41761Y-29656D01*
X41761Y-29656D02*
X41761Y-30256D01*
X41761Y-30256D02*
X41361Y-30256D01*
X40961Y-30256D02*
X40561Y-30256D01*
X40561Y-30256D02*
X40561Y-29656D01*
X40561Y-29656D02*
X40961Y-29656D01*
X29074Y-35444D02*
X29474Y-35444D01*
X29474Y-35444D02*
X29474Y-36044D01*
X29474Y-36044D02*
X29074Y-36044D01*
X28674Y-36044D02*
X28274Y-36044D01*
X28274Y-36044D02*
X28274Y-35444D01*
X28274Y-35444D02*
X28674Y-35444D01*
X40532Y-39666D02*
X40132Y-39666D01*
X40132Y-39666D02*
X40132Y-39066D01*
X40132Y-39066D02*
X40532Y-39066D01*
X40932Y-39066D02*
X41332Y-39066D01*
X41332Y-39066D02*
X41332Y-39666D01*
X41332Y-39666D02*
X40932Y-39666D01*
X29105Y-36495D02*
X29505Y-36495D01*
X29505Y-36495D02*
X29505Y-37095D01*
X29505Y-37095D02*
X29105Y-37095D01*
X28705Y-37095D02*
X28305Y-37095D01*
X28305Y-37095D02*
X28305Y-36495D01*
X28305Y-36495D02*
X28705Y-36495D01*
X40272Y-42252D02*
X39872Y-42252D01*
X39872Y-42252D02*
X39872Y-41652D01*
X39872Y-41652D02*
X40272Y-41652D01*
X40672Y-41652D02*
X41072Y-41652D01*
X41072Y-41652D02*
X41072Y-42252D01*
X41072Y-42252D02*
X40672Y-42252D01*
X18300Y-28851D02*
X17900Y-28851D01*
X17900Y-28851D02*
X17900Y-28251D01*
X17900Y-28251D02*
X18300Y-28251D01*
X18700Y-28251D02*
X19100Y-28251D01*
X19100Y-28251D02*
X19100Y-28851D01*
X19100Y-28851D02*
X18700Y-28851D01*
X36290Y-45453D02*
X36290Y-45053D01*
X36290Y-45053D02*
X36890Y-45053D01*
X36890Y-45053D02*
X36890Y-45453D01*
X36890Y-45853D02*
X36890Y-46253D01*
X36890Y-46253D02*
X36290Y-46253D01*
X36290Y-46253D02*
X36290Y-45853D01*
X24300Y-39739D02*
X24300Y-40139D01*
X24300Y-40139D02*
X23700Y-40139D01*
X23700Y-40139D02*
X23700Y-39739D01*
X23700Y-39339D02*
X23700Y-38939D01*
X23700Y-38939D02*
X24300Y-38939D01*
X24300Y-38939D02*
X24300Y-39339D01*
X25213Y-39711D02*
X25213Y-40111D01*
X25213Y-40111D02*
X24613Y-40111D01*
X24613Y-40111D02*
X24613Y-39711D01*
X24613Y-39311D02*
X24613Y-38911D01*
X24613Y-38911D02*
X25213Y-38911D01*
X25213Y-38911D02*
X25213Y-39311D01*
X27168Y-46500D02*
X27168Y-46100D01*
X27168Y-46100D02*
X27768Y-46100D01*
X27768Y-46100D02*
X27768Y-46500D01*
X27768Y-46900D02*
X27768Y-47300D01*
X27768Y-47300D02*
X27168Y-47300D01*
X27168Y-47300D02*
X27168Y-46900D01*
X28959Y-46429D02*
X28959Y-46029D01*
X28959Y-46029D02*
X29559Y-46029D01*
X29559Y-46029D02*
X29559Y-46429D01*
X29559Y-46829D02*
X29559Y-47229D01*
X29559Y-47229D02*
X28959Y-47229D01*
X28959Y-47229D02*
X28959Y-46829D01*
X28731Y-45000D02*
X28731Y-44600D01*
X28731Y-44600D02*
X29331Y-44600D01*
X29331Y-44600D02*
X29331Y-45000D01*
X29331Y-45400D02*
X29331Y-45800D01*
X29331Y-45800D02*
X28731Y-45800D01*
X28731Y-45800D02*
X28731Y-45400D01*
X29558Y-45020D02*
X29558Y-44620D01*
X29558Y-44620D02*
X30158Y-44620D01*
X30158Y-44620D02*
X30158Y-45020D01*
X30158Y-45420D02*
X30158Y-45820D01*
X30158Y-45820D02*
X29558Y-45820D01*
X29558Y-45820D02*
X29558Y-45420D01*
X15902Y-35979D02*
X15502Y-35979D01*
X15502Y-35979D02*
X15502Y-35379D01*
X15502Y-35379D02*
X15902Y-35379D01*
X16302Y-35379D02*
X16702Y-35379D01*
X16702Y-35379D02*
X16702Y-35979D01*
X16702Y-35979D02*
X16302Y-35979D01*
G54D11*
X16751Y-26900D02*
X16751Y-31500D01*
X16751Y-31500D02*
X14351Y-31500D01*
X14351Y-31500D02*
X14351Y-26900D01*
X14351Y-26900D02*
X16751Y-26900D01*
G54D15*
X41401Y-47531D02*
X35401Y-47531D01*
X41401Y-47531D02*
X41401Y-48531D01*
X41407Y-48537D02*
X35395Y-48537D01*
X35395Y-48537D02*
X35395Y-47529D01*
G54D17*
X25638Y-42803D02*
X25638Y-41039D01*
X25834Y-42999D02*
X27598Y-42999D01*
X25834Y-42999D02*
X25638Y-42803D01*
G54D16*
X25932Y-42803D02*
X25834Y-42803D01*
X25834Y-42803D02*
X25834Y-42705D01*
X27402Y-42705D02*
X27402Y-42803D01*
X27402Y-42803D02*
X27304Y-42803D01*
X27304Y-41235D02*
X27402Y-41235D01*
X27402Y-41235D02*
X27402Y-41333D01*
X25834Y-41333D02*
X25834Y-41235D01*
X25834Y-41235D02*
X25932Y-41235D01*
G54D17*
X27598Y-41039D02*
X27598Y-42999D01*
X25638Y-41039D02*
X27598Y-41039D01*
G54D15*
X34537Y-27255D02*
X34537Y-30255D01*
X34543Y-27255D02*
X27543Y-27255D01*
X34543Y-30255D02*
X27543Y-30255D01*
X27539Y-30255D02*
X27539Y-27255D01*
X43226Y-38094D02*
X46226Y-38094D01*
X43196Y-38094D02*
X43196Y-47094D01*
X46196Y-38094D02*
X46196Y-47094D01*
X46226Y-47102D02*
X43226Y-47102D01*
G54D18*
X28799Y-35123D02*
X28791Y-35130D01*
X28770Y-35137D01*
X28756Y-35137D01*
X28734Y-35130D01*
X28720Y-35116D01*
X28713Y-35102D01*
X28706Y-35073D01*
X28706Y-35052D01*
X28713Y-35023D01*
X28720Y-35009D01*
X28734Y-34995D01*
X28756Y-34987D01*
X28770Y-34987D01*
X28791Y-34995D01*
X28799Y-35002D01*
X28941Y-35137D02*
X28856Y-35137D01*
X28899Y-35137D02*
X28899Y-34987D01*
X28884Y-35009D01*
X28870Y-35023D01*
X28856Y-35030D01*
X29070Y-35037D02*
X29070Y-35137D01*
X29034Y-34980D02*
X28999Y-35087D01*
X29091Y-35087D01*
G54D11*
X37826Y-31110D02*
X37826Y-31391D01*
X37807Y-31447D01*
X37770Y-31485D01*
X37714Y-31504D01*
X37676Y-31504D01*
X38183Y-31241D02*
X38183Y-31504D01*
X38089Y-31091D02*
X37995Y-31372D01*
X38239Y-31372D01*
X37270Y-24776D02*
X37270Y-25095D01*
X37289Y-25132D01*
X37308Y-25151D01*
X37345Y-25170D01*
X37420Y-25170D01*
X37458Y-25151D01*
X37477Y-25132D01*
X37495Y-25095D01*
X37495Y-24776D01*
X37664Y-25151D02*
X37721Y-25170D01*
X37814Y-25170D01*
X37852Y-25151D01*
X37871Y-25132D01*
X37889Y-25095D01*
X37889Y-25057D01*
X37871Y-25020D01*
X37852Y-25001D01*
X37814Y-24982D01*
X37739Y-24963D01*
X37702Y-24945D01*
X37683Y-24926D01*
X37664Y-24888D01*
X37664Y-24851D01*
X37683Y-24813D01*
X37702Y-24795D01*
X37739Y-24776D01*
X37833Y-24776D01*
X37889Y-24795D01*
X38190Y-24963D02*
X38246Y-24982D01*
X38265Y-25001D01*
X38283Y-25038D01*
X38283Y-25095D01*
X38265Y-25132D01*
X38246Y-25151D01*
X38208Y-25170D01*
X38058Y-25170D01*
X38058Y-24776D01*
X38190Y-24776D01*
X38227Y-24795D01*
X38246Y-24813D01*
X38265Y-24851D01*
X38265Y-24888D01*
X38246Y-24926D01*
X38227Y-24945D01*
X38190Y-24963D01*
X38058Y-24963D01*
G54D12*
X35320Y-39113D02*
X35320Y-39464D01*
X35341Y-39505D01*
X35361Y-39526D01*
X35402Y-39546D01*
X35485Y-39546D01*
X35526Y-39526D01*
X35547Y-39505D01*
X35567Y-39464D01*
X35567Y-39113D01*
X35959Y-39258D02*
X35959Y-39546D01*
X35856Y-39093D02*
X35753Y-39402D01*
X36021Y-39402D01*
G54D19*
X32917Y-40779D02*
X32917Y-40385D01*
X33067Y-40385D01*
X33105Y-40403D01*
X33123Y-40422D01*
X33142Y-40460D01*
X33142Y-40516D01*
X33123Y-40553D01*
X33105Y-40572D01*
X33067Y-40591D01*
X32917Y-40591D01*
X33311Y-40779D02*
X33311Y-40385D01*
X33724Y-40741D02*
X33705Y-40760D01*
X33649Y-40779D01*
X33611Y-40779D01*
X33555Y-40760D01*
X33517Y-40722D01*
X33499Y-40685D01*
X33480Y-40610D01*
X33480Y-40553D01*
X33499Y-40478D01*
X33517Y-40441D01*
X33555Y-40403D01*
X33611Y-40385D01*
X33649Y-40385D01*
X33705Y-40403D01*
X33724Y-40422D01*
X33855Y-40385D02*
X34099Y-40385D01*
X33968Y-40535D01*
X34024Y-40535D01*
X34061Y-40553D01*
X34080Y-40572D01*
X34099Y-40610D01*
X34099Y-40703D01*
X34080Y-40741D01*
X34061Y-40760D01*
X34024Y-40779D01*
X33911Y-40779D01*
X33874Y-40760D01*
X33855Y-40741D01*
X34249Y-40422D02*
X34268Y-40403D01*
X34305Y-40385D01*
X34399Y-40385D01*
X34437Y-40403D01*
X34455Y-40422D01*
X34474Y-40460D01*
X34474Y-40497D01*
X34455Y-40553D01*
X34230Y-40779D01*
X34474Y-40779D01*
X34643Y-40779D02*
X34643Y-40385D01*
X34774Y-40666D01*
X34906Y-40385D01*
X34906Y-40779D01*
X35056Y-40385D02*
X35318Y-40779D01*
X35318Y-40385D02*
X35056Y-40779D01*
X35637Y-40385D02*
X35562Y-40385D01*
X35525Y-40403D01*
X35506Y-40422D01*
X35469Y-40478D01*
X35450Y-40553D01*
X35450Y-40703D01*
X35469Y-40741D01*
X35487Y-40760D01*
X35525Y-40779D01*
X35600Y-40779D01*
X35637Y-40760D01*
X35656Y-40741D01*
X35675Y-40703D01*
X35675Y-40610D01*
X35656Y-40572D01*
X35637Y-40553D01*
X35600Y-40535D01*
X35525Y-40535D01*
X35487Y-40553D01*
X35469Y-40572D01*
X35450Y-40610D01*
X36013Y-40385D02*
X35938Y-40385D01*
X35900Y-40403D01*
X35881Y-40422D01*
X35844Y-40478D01*
X35825Y-40553D01*
X35825Y-40703D01*
X35844Y-40741D01*
X35863Y-40760D01*
X35900Y-40779D01*
X35975Y-40779D01*
X36013Y-40760D01*
X36031Y-40741D01*
X36050Y-40703D01*
X36050Y-40610D01*
X36031Y-40572D01*
X36013Y-40553D01*
X35975Y-40535D01*
X35900Y-40535D01*
X35863Y-40553D01*
X35844Y-40572D01*
X35825Y-40610D01*
X36388Y-40516D02*
X36388Y-40779D01*
X36294Y-40366D02*
X36200Y-40647D01*
X36444Y-40647D01*
X36726Y-40572D02*
X36594Y-40572D01*
X36594Y-40779D02*
X36594Y-40385D01*
X36782Y-40385D01*
X37007Y-40385D02*
X37045Y-40385D01*
X37082Y-40403D01*
X37101Y-40422D01*
X37120Y-40460D01*
X37138Y-40535D01*
X37138Y-40628D01*
X37120Y-40703D01*
X37101Y-40741D01*
X37082Y-40760D01*
X37045Y-40779D01*
X37007Y-40779D01*
X36970Y-40760D01*
X36951Y-40741D01*
X36932Y-40703D01*
X36913Y-40628D01*
X36913Y-40535D01*
X36932Y-40460D01*
X36951Y-40422D01*
X36970Y-40403D01*
X37007Y-40385D01*
X37476Y-40385D02*
X37401Y-40385D01*
X37364Y-40403D01*
X37345Y-40422D01*
X37307Y-40478D01*
X37288Y-40553D01*
X37288Y-40703D01*
X37307Y-40741D01*
X37326Y-40760D01*
X37364Y-40779D01*
X37439Y-40779D01*
X37476Y-40760D01*
X37495Y-40741D01*
X37514Y-40703D01*
X37514Y-40610D01*
X37495Y-40572D01*
X37476Y-40553D01*
X37439Y-40535D01*
X37364Y-40535D01*
X37326Y-40553D01*
X37307Y-40572D01*
X37288Y-40610D01*
X37851Y-40516D02*
X37851Y-40779D01*
X37758Y-40366D02*
X37664Y-40647D01*
X37908Y-40647D01*
X38058Y-40779D02*
X38058Y-40385D01*
X38058Y-40572D02*
X38283Y-40572D01*
X38283Y-40779D02*
X38283Y-40385D01*
G54D16*
X28921Y-49678D02*
X29184Y-50072D01*
X29184Y-49678D02*
X28921Y-50072D01*
X29540Y-50072D02*
X29315Y-50072D01*
X29428Y-50072D02*
X29428Y-49678D01*
X29390Y-49734D01*
X29353Y-49772D01*
X29315Y-49791D01*
X28079Y-46930D02*
X28098Y-46911D01*
X28135Y-46892D01*
X28229Y-46892D01*
X28267Y-46911D01*
X28285Y-46930D01*
X28304Y-46967D01*
X28304Y-47005D01*
X28285Y-47061D01*
X28060Y-47286D01*
X28304Y-47286D01*
X28661Y-46892D02*
X28473Y-46892D01*
X28454Y-47080D01*
X28473Y-47061D01*
X28510Y-47042D01*
X28604Y-47042D01*
X28642Y-47061D01*
X28661Y-47080D01*
X28679Y-47117D01*
X28679Y-47211D01*
X28661Y-47249D01*
X28642Y-47267D01*
X28604Y-47286D01*
X28510Y-47286D01*
X28473Y-47267D01*
X28454Y-47249D01*
X29148Y-47286D02*
X29148Y-46892D01*
X29280Y-47174D01*
X29411Y-46892D01*
X29411Y-47286D01*
X29599Y-47286D02*
X29599Y-46892D01*
X29599Y-47080D02*
X29824Y-47080D01*
X29824Y-47286D02*
X29824Y-46892D01*
X29974Y-47023D02*
X30180Y-47023D01*
X29974Y-47286D01*
X30180Y-47286D01*
X35664Y-31019D02*
X35927Y-31413D01*
X35927Y-31019D02*
X35664Y-31413D01*
X36058Y-31057D02*
X36077Y-31038D01*
X36115Y-31019D01*
X36208Y-31019D01*
X36246Y-31038D01*
X36265Y-31057D01*
X36283Y-31094D01*
X36283Y-31132D01*
X36265Y-31188D01*
X36039Y-31413D01*
X36283Y-31413D01*
X35503Y-33974D02*
X35465Y-33955D01*
X35447Y-33937D01*
X35428Y-33899D01*
X35428Y-33880D01*
X35447Y-33843D01*
X35465Y-33824D01*
X35503Y-33805D01*
X35578Y-33805D01*
X35615Y-33824D01*
X35634Y-33843D01*
X35653Y-33880D01*
X35653Y-33899D01*
X35634Y-33937D01*
X35615Y-33955D01*
X35578Y-33974D01*
X35503Y-33974D01*
X35465Y-33993D01*
X35447Y-34012D01*
X35428Y-34049D01*
X35428Y-34124D01*
X35447Y-34162D01*
X35465Y-34181D01*
X35503Y-34199D01*
X35578Y-34199D01*
X35615Y-34181D01*
X35634Y-34162D01*
X35653Y-34124D01*
X35653Y-34049D01*
X35634Y-34012D01*
X35615Y-33993D01*
X35578Y-33974D01*
X35822Y-34199D02*
X35822Y-33805D01*
X35953Y-34087D01*
X36084Y-33805D01*
X36084Y-34199D01*
X36272Y-34199D02*
X36272Y-33805D01*
X36441Y-34199D02*
X36441Y-33993D01*
X36422Y-33955D01*
X36385Y-33937D01*
X36328Y-33937D01*
X36291Y-33955D01*
X36272Y-33974D01*
X36591Y-33937D02*
X36797Y-33937D01*
X36591Y-34199D01*
X36797Y-34199D01*
G54D11*
X21389Y-40771D02*
X21875Y-40771D01*
X21932Y-40742D01*
X21961Y-40714D01*
X21989Y-40656D01*
X21989Y-40542D01*
X21961Y-40485D01*
X21932Y-40456D01*
X21875Y-40428D01*
X21389Y-40428D01*
X21989Y-39828D02*
X21989Y-40171D01*
X21989Y-39999D02*
X21389Y-39999D01*
X21475Y-40056D01*
X21532Y-40114D01*
X21561Y-40171D01*
X11949Y-42814D02*
X11664Y-43014D01*
X11949Y-43156D02*
X11349Y-43156D01*
X11349Y-42928D01*
X11378Y-42871D01*
X11406Y-42842D01*
X11464Y-42814D01*
X11549Y-42814D01*
X11606Y-42842D01*
X11635Y-42871D01*
X11664Y-42928D01*
X11664Y-43156D01*
X11349Y-42385D02*
X11778Y-42385D01*
X11864Y-42414D01*
X11921Y-42471D01*
X11949Y-42556D01*
X11949Y-42614D01*
X11549Y-41842D02*
X11949Y-41842D01*
X11321Y-41985D02*
X11749Y-42128D01*
X11749Y-41756D01*
X11349Y-41242D02*
X11349Y-41528D01*
X11635Y-41556D01*
X11606Y-41528D01*
X11578Y-41471D01*
X11578Y-41328D01*
X11606Y-41271D01*
X11635Y-41242D01*
X11692Y-41214D01*
X11835Y-41214D01*
X11892Y-41242D01*
X11921Y-41271D01*
X11949Y-41328D01*
X11949Y-41471D01*
X11921Y-41528D01*
X11892Y-41556D01*
X12006Y-41099D02*
X12006Y-40642D01*
X11949Y-40185D02*
X11949Y-40528D01*
X11949Y-40356D02*
X11349Y-40356D01*
X11435Y-40414D01*
X11492Y-40471D01*
X11521Y-40528D01*
X11406Y-39956D02*
X11378Y-39928D01*
X11349Y-39871D01*
X11349Y-39728D01*
X11378Y-39671D01*
X11406Y-39642D01*
X11464Y-39614D01*
X11521Y-39614D01*
X11606Y-39642D01*
X11949Y-39985D01*
X11949Y-39614D01*
X12006Y-39499D02*
X12006Y-39042D01*
X11949Y-38899D02*
X11349Y-38899D01*
X11349Y-38671D01*
X11378Y-38614D01*
X11406Y-38585D01*
X11464Y-38556D01*
X11549Y-38556D01*
X11606Y-38585D01*
X11635Y-38614D01*
X11664Y-38671D01*
X11664Y-38899D01*
X11949Y-38299D02*
X11349Y-38299D01*
X11949Y-38014D02*
X11349Y-38014D01*
X11949Y-37671D01*
X11349Y-37671D01*
G54D20*
X18963Y-28067D02*
X19391Y-28067D01*
X19477Y-28095D01*
X19534Y-28152D01*
X19563Y-28238D01*
X19563Y-28295D01*
X18963Y-27838D02*
X18963Y-27467D01*
X19191Y-27667D01*
X19191Y-27581D01*
X19220Y-27524D01*
X19249Y-27495D01*
X19306Y-27467D01*
X19449Y-27467D01*
X19506Y-27495D01*
X19534Y-27524D01*
X19563Y-27581D01*
X19563Y-27752D01*
X19534Y-27809D01*
X19506Y-27838D01*
G54D18*
X26208Y-45756D02*
X26137Y-45806D01*
X26208Y-45841D02*
X26058Y-45841D01*
X26058Y-45784D01*
X26065Y-45770D01*
X26073Y-45763D01*
X26087Y-45756D01*
X26108Y-45756D01*
X26123Y-45763D01*
X26130Y-45770D01*
X26137Y-45784D01*
X26137Y-45841D01*
X26208Y-45613D02*
X26208Y-45698D01*
X26208Y-45656D02*
X26058Y-45656D01*
X26080Y-45670D01*
X26094Y-45684D01*
X26101Y-45698D01*
X26058Y-45484D02*
X26058Y-45513D01*
X26065Y-45527D01*
X26073Y-45534D01*
X26094Y-45548D01*
X26123Y-45556D01*
X26180Y-45556D01*
X26194Y-45548D01*
X26201Y-45541D01*
X26208Y-45527D01*
X26208Y-45498D01*
X26201Y-45484D01*
X26194Y-45477D01*
X26180Y-45470D01*
X26144Y-45470D01*
X26130Y-45477D01*
X26123Y-45484D01*
X26115Y-45498D01*
X26115Y-45527D01*
X26123Y-45541D01*
X26130Y-45548D01*
X26144Y-45556D01*
X17866Y-44556D02*
X17816Y-44485D01*
X17780Y-44556D02*
X17780Y-44406D01*
X17837Y-44406D01*
X17852Y-44413D01*
X17859Y-44421D01*
X17866Y-44435D01*
X17866Y-44456D01*
X17859Y-44471D01*
X17852Y-44478D01*
X17837Y-44485D01*
X17780Y-44485D01*
X18009Y-44556D02*
X17923Y-44556D01*
X17966Y-44556D02*
X17966Y-44406D01*
X17952Y-44428D01*
X17937Y-44442D01*
X17923Y-44449D01*
X18144Y-44406D02*
X18073Y-44406D01*
X18066Y-44478D01*
X18073Y-44471D01*
X18087Y-44463D01*
X18123Y-44463D01*
X18137Y-44471D01*
X18144Y-44478D01*
X18152Y-44492D01*
X18152Y-44528D01*
X18144Y-44542D01*
X18137Y-44549D01*
X18123Y-44556D01*
X18087Y-44556D01*
X18073Y-44549D01*
X18066Y-44542D01*
X35115Y-44905D02*
X35044Y-44955D01*
X35115Y-44991D02*
X34965Y-44991D01*
X34965Y-44933D01*
X34973Y-44919D01*
X34980Y-44912D01*
X34994Y-44905D01*
X35015Y-44905D01*
X35030Y-44912D01*
X35037Y-44919D01*
X35044Y-44933D01*
X35044Y-44991D01*
X35115Y-44762D02*
X35115Y-44848D01*
X35115Y-44805D02*
X34965Y-44805D01*
X34987Y-44819D01*
X35001Y-44833D01*
X35008Y-44848D01*
X35015Y-44633D02*
X35115Y-44633D01*
X34958Y-44669D02*
X35065Y-44705D01*
X35065Y-44612D01*
X22373Y-43216D02*
X22323Y-43145D01*
X22288Y-43216D02*
X22288Y-43066D01*
X22345Y-43066D01*
X22359Y-43073D01*
X22366Y-43080D01*
X22373Y-43095D01*
X22373Y-43116D01*
X22366Y-43130D01*
X22359Y-43138D01*
X22345Y-43145D01*
X22288Y-43145D01*
X22516Y-43216D02*
X22431Y-43216D01*
X22473Y-43216D02*
X22473Y-43066D01*
X22459Y-43088D01*
X22445Y-43102D01*
X22431Y-43109D01*
X22573Y-43080D02*
X22581Y-43073D01*
X22595Y-43066D01*
X22631Y-43066D01*
X22645Y-43073D01*
X22652Y-43080D01*
X22659Y-43095D01*
X22659Y-43109D01*
X22652Y-43130D01*
X22566Y-43216D01*
X22659Y-43216D01*
X22586Y-41267D02*
X22515Y-41317D01*
X22586Y-41353D02*
X22436Y-41353D01*
X22436Y-41296D01*
X22443Y-41282D01*
X22451Y-41274D01*
X22465Y-41267D01*
X22486Y-41267D01*
X22501Y-41274D01*
X22508Y-41282D01*
X22515Y-41296D01*
X22515Y-41353D01*
X22586Y-41124D02*
X22586Y-41210D01*
X22586Y-41167D02*
X22436Y-41167D01*
X22458Y-41182D01*
X22472Y-41196D01*
X22479Y-41210D01*
X22586Y-40982D02*
X22586Y-41067D01*
X22586Y-41024D02*
X22436Y-41024D01*
X22458Y-41039D01*
X22472Y-41053D01*
X22479Y-41067D01*
X22403Y-44506D02*
X22353Y-44434D01*
X22317Y-44506D02*
X22317Y-44356D01*
X22374Y-44356D01*
X22389Y-44363D01*
X22396Y-44370D01*
X22403Y-44384D01*
X22403Y-44406D01*
X22396Y-44420D01*
X22389Y-44427D01*
X22374Y-44434D01*
X22317Y-44434D01*
X22546Y-44506D02*
X22460Y-44506D01*
X22503Y-44506D02*
X22503Y-44356D01*
X22489Y-44377D01*
X22474Y-44391D01*
X22460Y-44398D01*
X22639Y-44356D02*
X22653Y-44356D01*
X22667Y-44363D01*
X22674Y-44370D01*
X22681Y-44384D01*
X22689Y-44413D01*
X22689Y-44448D01*
X22681Y-44477D01*
X22674Y-44491D01*
X22667Y-44498D01*
X22653Y-44506D01*
X22639Y-44506D01*
X22624Y-44498D01*
X22617Y-44491D01*
X22610Y-44477D01*
X22603Y-44448D01*
X22603Y-44413D01*
X22610Y-44384D01*
X22617Y-44370D01*
X22624Y-44363D01*
X22639Y-44356D01*
X21682Y-39611D02*
X21611Y-39661D01*
X21682Y-39697D02*
X21532Y-39697D01*
X21532Y-39640D01*
X21539Y-39625D01*
X21547Y-39618D01*
X21561Y-39611D01*
X21582Y-39611D01*
X21597Y-39618D01*
X21604Y-39625D01*
X21611Y-39640D01*
X21611Y-39697D01*
X21682Y-39540D02*
X21682Y-39511D01*
X21675Y-39497D01*
X21668Y-39490D01*
X21647Y-39475D01*
X21618Y-39468D01*
X21561Y-39468D01*
X21547Y-39475D01*
X21539Y-39482D01*
X21532Y-39497D01*
X21532Y-39525D01*
X21539Y-39540D01*
X21547Y-39547D01*
X21561Y-39554D01*
X21597Y-39554D01*
X21611Y-39547D01*
X21618Y-39540D01*
X21625Y-39525D01*
X21625Y-39497D01*
X21618Y-39482D01*
X21611Y-39475D01*
X21597Y-39468D01*
X31603Y-40588D02*
X31553Y-40516D01*
X31517Y-40588D02*
X31517Y-40438D01*
X31574Y-40438D01*
X31588Y-40445D01*
X31595Y-40452D01*
X31603Y-40466D01*
X31603Y-40488D01*
X31595Y-40502D01*
X31588Y-40509D01*
X31574Y-40516D01*
X31517Y-40516D01*
X31688Y-40502D02*
X31674Y-40495D01*
X31667Y-40488D01*
X31660Y-40474D01*
X31660Y-40466D01*
X31667Y-40452D01*
X31674Y-40445D01*
X31688Y-40438D01*
X31717Y-40438D01*
X31731Y-40445D01*
X31738Y-40452D01*
X31745Y-40466D01*
X31745Y-40474D01*
X31738Y-40488D01*
X31731Y-40495D01*
X31717Y-40502D01*
X31688Y-40502D01*
X31674Y-40509D01*
X31667Y-40516D01*
X31660Y-40531D01*
X31660Y-40559D01*
X31667Y-40574D01*
X31674Y-40581D01*
X31688Y-40588D01*
X31717Y-40588D01*
X31731Y-40581D01*
X31738Y-40574D01*
X31745Y-40559D01*
X31745Y-40531D01*
X31738Y-40516D01*
X31731Y-40509D01*
X31717Y-40502D01*
X32146Y-41757D02*
X32096Y-41686D01*
X32060Y-41757D02*
X32060Y-41607D01*
X32117Y-41607D01*
X32132Y-41614D01*
X32139Y-41621D01*
X32146Y-41636D01*
X32146Y-41657D01*
X32139Y-41671D01*
X32132Y-41679D01*
X32117Y-41686D01*
X32060Y-41686D01*
X32196Y-41607D02*
X32296Y-41607D01*
X32232Y-41757D01*
X30855Y-42556D02*
X30805Y-42485D01*
X30769Y-42556D02*
X30769Y-42406D01*
X30826Y-42406D01*
X30840Y-42413D01*
X30847Y-42421D01*
X30855Y-42435D01*
X30855Y-42456D01*
X30847Y-42471D01*
X30840Y-42478D01*
X30826Y-42485D01*
X30769Y-42485D01*
X30983Y-42406D02*
X30955Y-42406D01*
X30940Y-42413D01*
X30933Y-42421D01*
X30919Y-42442D01*
X30912Y-42471D01*
X30912Y-42528D01*
X30919Y-42542D01*
X30926Y-42549D01*
X30940Y-42556D01*
X30969Y-42556D01*
X30983Y-42549D01*
X30990Y-42542D01*
X30997Y-42528D01*
X30997Y-42492D01*
X30990Y-42478D01*
X30983Y-42471D01*
X30969Y-42463D01*
X30940Y-42463D01*
X30926Y-42471D01*
X30919Y-42478D01*
X30912Y-42492D01*
X29433Y-50606D02*
X29383Y-50535D01*
X29347Y-50606D02*
X29347Y-50456D01*
X29404Y-50456D01*
X29419Y-50463D01*
X29426Y-50470D01*
X29433Y-50485D01*
X29433Y-50506D01*
X29426Y-50520D01*
X29419Y-50527D01*
X29404Y-50535D01*
X29347Y-50535D01*
X29569Y-50456D02*
X29497Y-50456D01*
X29490Y-50527D01*
X29497Y-50520D01*
X29512Y-50513D01*
X29547Y-50513D01*
X29562Y-50520D01*
X29569Y-50527D01*
X29576Y-50542D01*
X29576Y-50577D01*
X29569Y-50592D01*
X29562Y-50599D01*
X29547Y-50606D01*
X29512Y-50606D01*
X29497Y-50599D01*
X29490Y-50592D01*
X24137Y-45664D02*
X24066Y-45714D01*
X24137Y-45750D02*
X23987Y-45750D01*
X23987Y-45693D01*
X23995Y-45679D01*
X24002Y-45672D01*
X24016Y-45664D01*
X24037Y-45664D01*
X24052Y-45672D01*
X24059Y-45679D01*
X24066Y-45693D01*
X24066Y-45750D01*
X24037Y-45536D02*
X24137Y-45536D01*
X23980Y-45572D02*
X24087Y-45607D01*
X24087Y-45514D01*
X33604Y-43853D02*
X33532Y-43903D01*
X33604Y-43939D02*
X33454Y-43939D01*
X33454Y-43882D01*
X33461Y-43867D01*
X33468Y-43860D01*
X33482Y-43853D01*
X33504Y-43853D01*
X33518Y-43860D01*
X33525Y-43867D01*
X33532Y-43882D01*
X33532Y-43939D01*
X33454Y-43803D02*
X33454Y-43710D01*
X33511Y-43760D01*
X33511Y-43739D01*
X33518Y-43725D01*
X33525Y-43717D01*
X33539Y-43710D01*
X33575Y-43710D01*
X33589Y-43717D01*
X33596Y-43725D01*
X33604Y-43739D01*
X33604Y-43782D01*
X33596Y-43796D01*
X33589Y-43803D01*
X32714Y-43873D02*
X32642Y-43923D01*
X32714Y-43958D02*
X32564Y-43958D01*
X32564Y-43901D01*
X32571Y-43887D01*
X32578Y-43880D01*
X32592Y-43873D01*
X32614Y-43873D01*
X32628Y-43880D01*
X32635Y-43887D01*
X32642Y-43901D01*
X32642Y-43958D01*
X32578Y-43816D02*
X32571Y-43808D01*
X32564Y-43794D01*
X32564Y-43758D01*
X32571Y-43744D01*
X32578Y-43737D01*
X32592Y-43730D01*
X32607Y-43730D01*
X32628Y-43737D01*
X32714Y-43823D01*
X32714Y-43730D01*
X31733Y-43877D02*
X31662Y-43927D01*
X31733Y-43962D02*
X31583Y-43962D01*
X31583Y-43905D01*
X31591Y-43891D01*
X31598Y-43884D01*
X31612Y-43877D01*
X31633Y-43877D01*
X31648Y-43884D01*
X31655Y-43891D01*
X31662Y-43905D01*
X31662Y-43962D01*
X31733Y-43734D02*
X31733Y-43820D01*
X31733Y-43777D02*
X31583Y-43777D01*
X31605Y-43791D01*
X31619Y-43805D01*
X31626Y-43820D01*
X24980Y-45784D02*
X24980Y-45834D01*
X25059Y-45834D02*
X24909Y-45834D01*
X24909Y-45763D01*
X24980Y-45656D02*
X24987Y-45634D01*
X24994Y-45627D01*
X25009Y-45620D01*
X25030Y-45620D01*
X25044Y-45627D01*
X25052Y-45634D01*
X25059Y-45648D01*
X25059Y-45706D01*
X24909Y-45706D01*
X24909Y-45656D01*
X24916Y-45641D01*
X24923Y-45634D01*
X24937Y-45627D01*
X24952Y-45627D01*
X24966Y-45634D01*
X24973Y-45641D01*
X24980Y-45656D01*
X24980Y-45706D01*
X25059Y-45477D02*
X25059Y-45563D01*
X25059Y-45520D02*
X24909Y-45520D01*
X24930Y-45534D01*
X24944Y-45548D01*
X24952Y-45563D01*
X38802Y-35106D02*
X38809Y-35113D01*
X38816Y-35134D01*
X38816Y-35148D01*
X38809Y-35170D01*
X38795Y-35184D01*
X38780Y-35191D01*
X38752Y-35198D01*
X38730Y-35198D01*
X38702Y-35191D01*
X38688Y-35184D01*
X38673Y-35170D01*
X38666Y-35148D01*
X38666Y-35134D01*
X38673Y-35113D01*
X38680Y-35106D01*
X38680Y-35048D02*
X38673Y-35041D01*
X38666Y-35027D01*
X38666Y-34991D01*
X38673Y-34977D01*
X38680Y-34970D01*
X38695Y-34963D01*
X38709Y-34963D01*
X38730Y-34970D01*
X38816Y-35056D01*
X38816Y-34963D01*
X38816Y-34820D02*
X38816Y-34906D01*
X38816Y-34863D02*
X38666Y-34863D01*
X38688Y-34877D01*
X38702Y-34891D01*
X38709Y-34906D01*
X38611Y-34637D02*
X38619Y-34645D01*
X38626Y-34666D01*
X38626Y-34680D01*
X38619Y-34702D01*
X38604Y-34716D01*
X38590Y-34723D01*
X38561Y-34730D01*
X38540Y-34730D01*
X38511Y-34723D01*
X38497Y-34716D01*
X38483Y-34702D01*
X38476Y-34680D01*
X38476Y-34666D01*
X38483Y-34645D01*
X38490Y-34637D01*
X38490Y-34580D02*
X38483Y-34573D01*
X38476Y-34559D01*
X38476Y-34523D01*
X38483Y-34509D01*
X38490Y-34502D01*
X38504Y-34495D01*
X38519Y-34495D01*
X38540Y-34502D01*
X38626Y-34587D01*
X38626Y-34495D01*
X38476Y-34402D02*
X38476Y-34387D01*
X38483Y-34373D01*
X38490Y-34366D01*
X38504Y-34359D01*
X38533Y-34352D01*
X38569Y-34352D01*
X38597Y-34359D01*
X38611Y-34366D01*
X38619Y-34373D01*
X38626Y-34387D01*
X38626Y-34402D01*
X38619Y-34416D01*
X38611Y-34423D01*
X38597Y-34430D01*
X38569Y-34437D01*
X38533Y-34437D01*
X38504Y-34430D01*
X38490Y-34423D01*
X38483Y-34416D01*
X38476Y-34402D01*
X37076Y-34787D02*
X37083Y-34794D01*
X37090Y-34816D01*
X37090Y-34830D01*
X37083Y-34851D01*
X37069Y-34866D01*
X37055Y-34873D01*
X37026Y-34880D01*
X37005Y-34880D01*
X36976Y-34873D01*
X36962Y-34866D01*
X36947Y-34851D01*
X36940Y-34830D01*
X36940Y-34816D01*
X36947Y-34794D01*
X36955Y-34787D01*
X37090Y-34644D02*
X37090Y-34730D01*
X37090Y-34687D02*
X36940Y-34687D01*
X36962Y-34701D01*
X36976Y-34716D01*
X36983Y-34730D01*
X37090Y-34573D02*
X37090Y-34544D01*
X37083Y-34530D01*
X37076Y-34523D01*
X37055Y-34508D01*
X37026Y-34501D01*
X36969Y-34501D01*
X36955Y-34508D01*
X36947Y-34516D01*
X36940Y-34530D01*
X36940Y-34558D01*
X36947Y-34573D01*
X36955Y-34580D01*
X36969Y-34587D01*
X37005Y-34587D01*
X37019Y-34580D01*
X37026Y-34573D01*
X37033Y-34558D01*
X37033Y-34530D01*
X37026Y-34516D01*
X37019Y-34508D01*
X37005Y-34501D01*
X40522Y-35889D02*
X40529Y-35896D01*
X40537Y-35918D01*
X40537Y-35932D01*
X40529Y-35953D01*
X40515Y-35968D01*
X40501Y-35975D01*
X40472Y-35982D01*
X40451Y-35982D01*
X40422Y-35975D01*
X40408Y-35968D01*
X40394Y-35953D01*
X40387Y-35932D01*
X40387Y-35918D01*
X40394Y-35896D01*
X40401Y-35889D01*
X40537Y-35746D02*
X40537Y-35832D01*
X40537Y-35789D02*
X40387Y-35789D01*
X40408Y-35803D01*
X40422Y-35818D01*
X40429Y-35832D01*
X40451Y-35661D02*
X40444Y-35675D01*
X40437Y-35682D01*
X40422Y-35689D01*
X40415Y-35689D01*
X40401Y-35682D01*
X40394Y-35675D01*
X40387Y-35661D01*
X40387Y-35632D01*
X40394Y-35618D01*
X40401Y-35611D01*
X40415Y-35603D01*
X40422Y-35603D01*
X40437Y-35611D01*
X40444Y-35618D01*
X40451Y-35632D01*
X40451Y-35661D01*
X40458Y-35675D01*
X40465Y-35682D01*
X40479Y-35689D01*
X40508Y-35689D01*
X40522Y-35682D01*
X40529Y-35675D01*
X40537Y-35661D01*
X40537Y-35632D01*
X40529Y-35618D01*
X40522Y-35611D01*
X40508Y-35603D01*
X40479Y-35603D01*
X40465Y-35611D01*
X40458Y-35618D01*
X40451Y-35632D01*
X41570Y-36192D02*
X41577Y-36199D01*
X41584Y-36221D01*
X41584Y-36235D01*
X41577Y-36257D01*
X41562Y-36271D01*
X41548Y-36278D01*
X41520Y-36285D01*
X41498Y-36285D01*
X41470Y-36278D01*
X41455Y-36271D01*
X41441Y-36257D01*
X41434Y-36235D01*
X41434Y-36221D01*
X41441Y-36199D01*
X41448Y-36192D01*
X41584Y-36049D02*
X41584Y-36135D01*
X41584Y-36092D02*
X41434Y-36092D01*
X41455Y-36107D01*
X41470Y-36121D01*
X41477Y-36135D01*
X41434Y-35999D02*
X41434Y-35899D01*
X41584Y-35964D01*
X37334Y-29611D02*
X37327Y-29618D01*
X37306Y-29625D01*
X37291Y-29625D01*
X37270Y-29618D01*
X37256Y-29604D01*
X37249Y-29589D01*
X37241Y-29561D01*
X37241Y-29539D01*
X37249Y-29511D01*
X37256Y-29497D01*
X37270Y-29482D01*
X37291Y-29475D01*
X37306Y-29475D01*
X37327Y-29482D01*
X37334Y-29489D01*
X37477Y-29625D02*
X37391Y-29625D01*
X37434Y-29625D02*
X37434Y-29475D01*
X37420Y-29497D01*
X37406Y-29511D01*
X37391Y-29518D01*
X37606Y-29475D02*
X37577Y-29475D01*
X37563Y-29482D01*
X37556Y-29489D01*
X37541Y-29511D01*
X37534Y-29539D01*
X37534Y-29597D01*
X37541Y-29611D01*
X37549Y-29618D01*
X37563Y-29625D01*
X37591Y-29625D01*
X37606Y-29618D01*
X37613Y-29611D01*
X37620Y-29597D01*
X37620Y-29561D01*
X37613Y-29547D01*
X37606Y-29539D01*
X37591Y-29532D01*
X37563Y-29532D01*
X37549Y-29539D01*
X37541Y-29547D01*
X37534Y-29561D01*
X41054Y-30462D02*
X41047Y-30469D01*
X41026Y-30476D01*
X41012Y-30476D01*
X40990Y-30469D01*
X40976Y-30455D01*
X40969Y-30440D01*
X40962Y-30412D01*
X40962Y-30390D01*
X40969Y-30362D01*
X40976Y-30347D01*
X40990Y-30333D01*
X41012Y-30326D01*
X41026Y-30326D01*
X41047Y-30333D01*
X41054Y-30340D01*
X41197Y-30476D02*
X41112Y-30476D01*
X41154Y-30476D02*
X41154Y-30326D01*
X41140Y-30347D01*
X41126Y-30362D01*
X41112Y-30369D01*
X41333Y-30326D02*
X41262Y-30326D01*
X41254Y-30397D01*
X41262Y-30390D01*
X41276Y-30383D01*
X41312Y-30383D01*
X41326Y-30390D01*
X41333Y-30397D01*
X41340Y-30412D01*
X41340Y-30447D01*
X41333Y-30462D01*
X41326Y-30469D01*
X41312Y-30476D01*
X41276Y-30476D01*
X41262Y-30469D01*
X41254Y-30462D01*
X28767Y-36249D02*
X28760Y-36256D01*
X28739Y-36263D01*
X28724Y-36263D01*
X28703Y-36256D01*
X28689Y-36242D01*
X28681Y-36228D01*
X28674Y-36199D01*
X28674Y-36178D01*
X28681Y-36149D01*
X28689Y-36135D01*
X28703Y-36121D01*
X28724Y-36113D01*
X28739Y-36113D01*
X28760Y-36121D01*
X28767Y-36128D01*
X28910Y-36263D02*
X28824Y-36263D01*
X28867Y-36263D02*
X28867Y-36113D01*
X28853Y-36135D01*
X28839Y-36149D01*
X28824Y-36156D01*
X28960Y-36113D02*
X29053Y-36113D01*
X29003Y-36171D01*
X29024Y-36171D01*
X29039Y-36178D01*
X29046Y-36185D01*
X29053Y-36199D01*
X29053Y-36235D01*
X29046Y-36249D01*
X29039Y-36256D01*
X29024Y-36263D01*
X28981Y-36263D01*
X28967Y-36256D01*
X28960Y-36249D01*
X40645Y-38967D02*
X40638Y-38974D01*
X40617Y-38981D01*
X40602Y-38981D01*
X40581Y-38974D01*
X40567Y-38960D01*
X40560Y-38946D01*
X40552Y-38917D01*
X40552Y-38896D01*
X40560Y-38867D01*
X40567Y-38853D01*
X40581Y-38839D01*
X40602Y-38831D01*
X40617Y-38831D01*
X40638Y-38839D01*
X40645Y-38846D01*
X40788Y-38981D02*
X40702Y-38981D01*
X40745Y-38981D02*
X40745Y-38831D01*
X40731Y-38853D01*
X40717Y-38867D01*
X40702Y-38874D01*
X40845Y-38846D02*
X40852Y-38839D01*
X40867Y-38831D01*
X40902Y-38831D01*
X40917Y-38839D01*
X40924Y-38846D01*
X40931Y-38860D01*
X40931Y-38874D01*
X40924Y-38896D01*
X40838Y-38981D01*
X40931Y-38981D01*
X28799Y-37300D02*
X28791Y-37307D01*
X28770Y-37315D01*
X28756Y-37315D01*
X28734Y-37307D01*
X28720Y-37293D01*
X28713Y-37279D01*
X28706Y-37250D01*
X28706Y-37229D01*
X28713Y-37200D01*
X28720Y-37186D01*
X28734Y-37172D01*
X28756Y-37165D01*
X28770Y-37165D01*
X28791Y-37172D01*
X28799Y-37179D01*
X28941Y-37315D02*
X28856Y-37315D01*
X28899Y-37315D02*
X28899Y-37165D01*
X28884Y-37186D01*
X28870Y-37200D01*
X28856Y-37207D01*
X29084Y-37315D02*
X28999Y-37315D01*
X29041Y-37315D02*
X29041Y-37165D01*
X29027Y-37186D01*
X29013Y-37200D01*
X28999Y-37207D01*
X40386Y-41554D02*
X40378Y-41561D01*
X40357Y-41568D01*
X40343Y-41568D01*
X40321Y-41561D01*
X40307Y-41547D01*
X40300Y-41532D01*
X40293Y-41504D01*
X40293Y-41482D01*
X40300Y-41454D01*
X40307Y-41440D01*
X40321Y-41425D01*
X40343Y-41418D01*
X40357Y-41418D01*
X40378Y-41425D01*
X40386Y-41432D01*
X40528Y-41568D02*
X40443Y-41568D01*
X40486Y-41568D02*
X40486Y-41418D01*
X40471Y-41440D01*
X40457Y-41454D01*
X40443Y-41461D01*
X40621Y-41418D02*
X40636Y-41418D01*
X40650Y-41425D01*
X40657Y-41432D01*
X40664Y-41447D01*
X40671Y-41475D01*
X40671Y-41511D01*
X40664Y-41540D01*
X40657Y-41554D01*
X40650Y-41561D01*
X40636Y-41568D01*
X40621Y-41568D01*
X40607Y-41561D01*
X40600Y-41554D01*
X40593Y-41540D01*
X40586Y-41511D01*
X40586Y-41475D01*
X40593Y-41447D01*
X40600Y-41432D01*
X40607Y-41425D01*
X40621Y-41418D01*
X18485Y-28152D02*
X18477Y-28159D01*
X18456Y-28167D01*
X18442Y-28167D01*
X18420Y-28159D01*
X18406Y-28145D01*
X18399Y-28131D01*
X18392Y-28102D01*
X18392Y-28081D01*
X18399Y-28052D01*
X18406Y-28038D01*
X18420Y-28024D01*
X18442Y-28017D01*
X18456Y-28017D01*
X18477Y-28024D01*
X18485Y-28031D01*
X18556Y-28167D02*
X18585Y-28167D01*
X18599Y-28159D01*
X18606Y-28152D01*
X18620Y-28131D01*
X18627Y-28102D01*
X18627Y-28045D01*
X18620Y-28031D01*
X18613Y-28024D01*
X18599Y-28017D01*
X18570Y-28017D01*
X18556Y-28024D01*
X18549Y-28031D01*
X18542Y-28045D01*
X18542Y-28081D01*
X18549Y-28095D01*
X18556Y-28102D01*
X18570Y-28109D01*
X18599Y-28109D01*
X18613Y-28102D01*
X18620Y-28095D01*
X18627Y-28081D01*
X37096Y-45688D02*
X37103Y-45695D01*
X37110Y-45717D01*
X37110Y-45731D01*
X37103Y-45752D01*
X37088Y-45767D01*
X37074Y-45774D01*
X37046Y-45781D01*
X37024Y-45781D01*
X36996Y-45774D01*
X36981Y-45767D01*
X36967Y-45752D01*
X36960Y-45731D01*
X36960Y-45717D01*
X36967Y-45695D01*
X36974Y-45688D01*
X37024Y-45602D02*
X37017Y-45617D01*
X37010Y-45624D01*
X36996Y-45631D01*
X36988Y-45631D01*
X36974Y-45624D01*
X36967Y-45617D01*
X36960Y-45602D01*
X36960Y-45574D01*
X36967Y-45559D01*
X36974Y-45552D01*
X36988Y-45545D01*
X36996Y-45545D01*
X37010Y-45552D01*
X37017Y-45559D01*
X37024Y-45574D01*
X37024Y-45602D01*
X37031Y-45617D01*
X37038Y-45624D01*
X37053Y-45631D01*
X37081Y-45631D01*
X37096Y-45624D01*
X37103Y-45617D01*
X37110Y-45602D01*
X37110Y-45574D01*
X37103Y-45559D01*
X37096Y-45552D01*
X37081Y-45545D01*
X37053Y-45545D01*
X37038Y-45552D01*
X37031Y-45559D01*
X37024Y-45574D01*
X23601Y-39554D02*
X23608Y-39561D01*
X23615Y-39582D01*
X23615Y-39597D01*
X23608Y-39618D01*
X23594Y-39632D01*
X23580Y-39640D01*
X23551Y-39647D01*
X23530Y-39647D01*
X23501Y-39640D01*
X23487Y-39632D01*
X23473Y-39618D01*
X23465Y-39597D01*
X23465Y-39582D01*
X23473Y-39561D01*
X23480Y-39554D01*
X23465Y-39425D02*
X23465Y-39454D01*
X23473Y-39468D01*
X23480Y-39475D01*
X23501Y-39490D01*
X23530Y-39497D01*
X23587Y-39497D01*
X23601Y-39490D01*
X23608Y-39482D01*
X23615Y-39468D01*
X23615Y-39440D01*
X23608Y-39425D01*
X23601Y-39418D01*
X23587Y-39411D01*
X23551Y-39411D01*
X23537Y-39418D01*
X23530Y-39425D01*
X23523Y-39440D01*
X23523Y-39468D01*
X23530Y-39482D01*
X23537Y-39490D01*
X23551Y-39497D01*
X24514Y-39526D02*
X24522Y-39533D01*
X24529Y-39555D01*
X24529Y-39569D01*
X24522Y-39591D01*
X24507Y-39605D01*
X24493Y-39612D01*
X24464Y-39619D01*
X24443Y-39619D01*
X24414Y-39612D01*
X24400Y-39605D01*
X24386Y-39591D01*
X24379Y-39569D01*
X24379Y-39555D01*
X24386Y-39533D01*
X24393Y-39526D01*
X24379Y-39391D02*
X24379Y-39462D01*
X24450Y-39469D01*
X24443Y-39462D01*
X24436Y-39448D01*
X24436Y-39412D01*
X24443Y-39398D01*
X24450Y-39391D01*
X24464Y-39383D01*
X24500Y-39383D01*
X24514Y-39391D01*
X24522Y-39398D01*
X24529Y-39412D01*
X24529Y-39448D01*
X24522Y-39462D01*
X24514Y-39469D01*
X27974Y-46735D02*
X27981Y-46742D01*
X27988Y-46764D01*
X27988Y-46778D01*
X27981Y-46800D01*
X27966Y-46814D01*
X27952Y-46821D01*
X27924Y-46828D01*
X27902Y-46828D01*
X27874Y-46821D01*
X27859Y-46814D01*
X27845Y-46800D01*
X27838Y-46778D01*
X27838Y-46764D01*
X27845Y-46742D01*
X27852Y-46735D01*
X27888Y-46607D02*
X27988Y-46607D01*
X27831Y-46642D02*
X27938Y-46678D01*
X27938Y-46585D01*
X29765Y-46664D02*
X29772Y-46672D01*
X29779Y-46693D01*
X29779Y-46707D01*
X29772Y-46729D01*
X29758Y-46743D01*
X29743Y-46750D01*
X29715Y-46757D01*
X29693Y-46757D01*
X29665Y-46750D01*
X29651Y-46743D01*
X29636Y-46729D01*
X29629Y-46707D01*
X29629Y-46693D01*
X29636Y-46672D01*
X29643Y-46664D01*
X29629Y-46614D02*
X29629Y-46522D01*
X29686Y-46572D01*
X29686Y-46550D01*
X29693Y-46536D01*
X29701Y-46529D01*
X29715Y-46522D01*
X29751Y-46522D01*
X29765Y-46529D01*
X29772Y-46536D01*
X29779Y-46550D01*
X29779Y-46593D01*
X29772Y-46607D01*
X29765Y-46614D01*
X29537Y-45235D02*
X29544Y-45242D01*
X29551Y-45264D01*
X29551Y-45278D01*
X29544Y-45300D01*
X29529Y-45314D01*
X29515Y-45321D01*
X29487Y-45328D01*
X29465Y-45328D01*
X29437Y-45321D01*
X29422Y-45314D01*
X29408Y-45300D01*
X29401Y-45278D01*
X29401Y-45264D01*
X29408Y-45242D01*
X29415Y-45235D01*
X29415Y-45178D02*
X29408Y-45171D01*
X29401Y-45157D01*
X29401Y-45121D01*
X29408Y-45107D01*
X29415Y-45100D01*
X29429Y-45092D01*
X29444Y-45092D01*
X29465Y-45100D01*
X29551Y-45185D01*
X29551Y-45092D01*
X30363Y-45255D02*
X30370Y-45262D01*
X30378Y-45284D01*
X30378Y-45298D01*
X30370Y-45319D01*
X30356Y-45334D01*
X30342Y-45341D01*
X30313Y-45348D01*
X30292Y-45348D01*
X30263Y-45341D01*
X30249Y-45334D01*
X30235Y-45319D01*
X30228Y-45298D01*
X30228Y-45284D01*
X30235Y-45262D01*
X30242Y-45255D01*
X30378Y-45112D02*
X30378Y-45198D01*
X30378Y-45155D02*
X30228Y-45155D01*
X30249Y-45169D01*
X30263Y-45184D01*
X30270Y-45198D01*
X16015Y-35294D02*
X15965Y-35223D01*
X15930Y-35294D02*
X15930Y-35144D01*
X15987Y-35144D01*
X16001Y-35152D01*
X16008Y-35159D01*
X16015Y-35173D01*
X16015Y-35194D01*
X16008Y-35209D01*
X16001Y-35216D01*
X15987Y-35223D01*
X15930Y-35223D01*
X16158Y-35294D02*
X16073Y-35294D01*
X16115Y-35294D02*
X16115Y-35144D01*
X16101Y-35166D01*
X16087Y-35180D01*
X16073Y-35187D01*
X16208Y-35144D02*
X16301Y-35144D01*
X16251Y-35202D01*
X16273Y-35202D01*
X16287Y-35209D01*
X16294Y-35216D01*
X16301Y-35230D01*
X16301Y-35266D01*
X16294Y-35280D01*
X16287Y-35287D01*
X16273Y-35294D01*
X16230Y-35294D01*
X16215Y-35287D01*
X16208Y-35280D01*
G54D11*
X16836Y-29479D02*
X17079Y-29479D01*
X17108Y-29465D01*
X17122Y-29450D01*
X17136Y-29422D01*
X17136Y-29365D01*
X17122Y-29336D01*
X17108Y-29322D01*
X17079Y-29307D01*
X16836Y-29307D01*
X16836Y-29193D02*
X16836Y-29007D01*
X16951Y-29107D01*
X16951Y-29065D01*
X16965Y-29036D01*
X16979Y-29022D01*
X17008Y-29007D01*
X17079Y-29007D01*
X17108Y-29022D01*
X17122Y-29036D01*
X17136Y-29065D01*
X17136Y-29150D01*
X17122Y-29179D01*
X17108Y-29193D01*
X14186Y-31022D02*
X14044Y-31122D01*
X14186Y-31193D02*
X13886Y-31193D01*
X13886Y-31079D01*
X13901Y-31050D01*
X13915Y-31036D01*
X13944Y-31022D01*
X13986Y-31022D01*
X14015Y-31036D01*
X14029Y-31050D01*
X14044Y-31079D01*
X14044Y-31193D01*
X14029Y-30893D02*
X14029Y-30793D01*
X14186Y-30750D02*
X14186Y-30893D01*
X13886Y-30893D01*
X13886Y-30750D01*
X13901Y-30465D02*
X13886Y-30493D01*
X13886Y-30536D01*
X13901Y-30579D01*
X13929Y-30607D01*
X13958Y-30622D01*
X14015Y-30636D01*
X14058Y-30636D01*
X14115Y-30622D01*
X14144Y-30607D01*
X14172Y-30579D01*
X14186Y-30536D01*
X14186Y-30507D01*
X14172Y-30465D01*
X14158Y-30450D01*
X14058Y-30450D01*
X14058Y-30507D01*
X13886Y-30322D02*
X14129Y-30322D01*
X14158Y-30307D01*
X14172Y-30293D01*
X14186Y-30265D01*
X14186Y-30207D01*
X14172Y-30179D01*
X14158Y-30165D01*
X14129Y-30150D01*
X13886Y-30150D01*
X14186Y-29865D02*
X14186Y-30007D01*
X13886Y-30007D01*
X14101Y-29779D02*
X14101Y-29636D01*
X14186Y-29807D02*
X13886Y-29707D01*
X14186Y-29607D01*
X13886Y-29550D02*
X13886Y-29379D01*
X14186Y-29465D02*
X13886Y-29465D01*
X13886Y-29222D02*
X13886Y-29165D01*
X13901Y-29136D01*
X13929Y-29107D01*
X13986Y-29093D01*
X14086Y-29093D01*
X14144Y-29107D01*
X14172Y-29136D01*
X14186Y-29165D01*
X14186Y-29222D01*
X14172Y-29250D01*
X14144Y-29279D01*
X14086Y-29293D01*
X13986Y-29293D01*
X13929Y-29279D01*
X13901Y-29250D01*
X13886Y-29222D01*
X14186Y-28793D02*
X14044Y-28893D01*
X14186Y-28965D02*
X13886Y-28965D01*
X13886Y-28850D01*
X13901Y-28822D01*
X13915Y-28807D01*
X13944Y-28793D01*
X13986Y-28793D01*
X14015Y-28807D01*
X14029Y-28822D01*
X14044Y-28850D01*
X14044Y-28965D01*
X14215Y-28736D02*
X14215Y-28507D01*
X13886Y-28465D02*
X13886Y-28279D01*
X14001Y-28379D01*
X14001Y-28336D01*
X14015Y-28307D01*
X14029Y-28293D01*
X14058Y-28279D01*
X14129Y-28279D01*
X14158Y-28293D01*
X14172Y-28307D01*
X14186Y-28336D01*
X14186Y-28422D01*
X14172Y-28450D01*
X14158Y-28465D01*
X14158Y-28150D02*
X14172Y-28136D01*
X14186Y-28150D01*
X14172Y-28165D01*
X14158Y-28150D01*
X14186Y-28150D01*
X13886Y-28036D02*
X13886Y-27850D01*
X14001Y-27950D01*
X14001Y-27907D01*
X14015Y-27879D01*
X14029Y-27865D01*
X14058Y-27850D01*
X14129Y-27850D01*
X14158Y-27865D01*
X14172Y-27879D01*
X14186Y-27907D01*
X14186Y-27993D01*
X14172Y-28022D01*
X14158Y-28036D01*
X13886Y-27765D02*
X14186Y-27665D01*
X13886Y-27565D01*
G54D21*
X38371Y-47085D02*
X38371Y-47299D01*
X38357Y-47342D01*
X38328Y-47370D01*
X38285Y-47385D01*
X38257Y-47385D01*
X38671Y-47385D02*
X38500Y-47385D01*
X38585Y-47385D02*
X38585Y-47085D01*
X38557Y-47128D01*
X38528Y-47156D01*
X38500Y-47170D01*
X37179Y-48999D02*
X37179Y-48699D01*
X37179Y-48842D02*
X37350Y-48842D01*
X37350Y-48999D02*
X37350Y-48699D01*
X37493Y-48842D02*
X37593Y-48842D01*
X37636Y-48999D02*
X37493Y-48999D01*
X37493Y-48699D01*
X37636Y-48699D01*
X37750Y-48913D02*
X37893Y-48913D01*
X37721Y-48999D02*
X37821Y-48699D01*
X37921Y-48999D01*
X38021Y-48999D02*
X38021Y-48699D01*
X38093Y-48699D01*
X38136Y-48713D01*
X38164Y-48742D01*
X38179Y-48770D01*
X38193Y-48827D01*
X38193Y-48870D01*
X38179Y-48927D01*
X38164Y-48956D01*
X38136Y-48984D01*
X38093Y-48999D01*
X38021Y-48999D01*
X38321Y-48842D02*
X38421Y-48842D01*
X38464Y-48999D02*
X38321Y-48999D01*
X38321Y-48699D01*
X38464Y-48699D01*
X38764Y-48999D02*
X38664Y-48856D01*
X38593Y-48999D02*
X38593Y-48699D01*
X38707Y-48699D01*
X38736Y-48713D01*
X38750Y-48727D01*
X38764Y-48756D01*
X38764Y-48799D01*
X38750Y-48827D01*
X38736Y-48842D01*
X38707Y-48856D01*
X38593Y-48856D01*
X38821Y-49027D02*
X39050Y-49027D01*
X39250Y-48699D02*
X39193Y-48699D01*
X39164Y-48713D01*
X39150Y-48727D01*
X39121Y-48770D01*
X39107Y-48827D01*
X39107Y-48942D01*
X39121Y-48970D01*
X39136Y-48984D01*
X39164Y-48999D01*
X39221Y-48999D01*
X39250Y-48984D01*
X39264Y-48970D01*
X39279Y-48942D01*
X39279Y-48870D01*
X39264Y-48842D01*
X39250Y-48827D01*
X39221Y-48813D01*
X39164Y-48813D01*
X39136Y-48827D01*
X39121Y-48842D01*
X39107Y-48870D01*
X39379Y-48699D02*
X39579Y-48999D01*
X39579Y-48699D02*
X39379Y-48999D01*
X39850Y-48999D02*
X39679Y-48999D01*
X39764Y-48999D02*
X39764Y-48699D01*
X39736Y-48742D01*
X39707Y-48770D01*
X39679Y-48784D01*
G54D22*
X24902Y-42319D02*
X25221Y-42319D01*
X25258Y-42301D01*
X25277Y-42282D01*
X25296Y-42244D01*
X25296Y-42169D01*
X25277Y-42132D01*
X25258Y-42113D01*
X25221Y-42094D01*
X24902Y-42094D01*
X24939Y-41925D02*
X24921Y-41907D01*
X24902Y-41869D01*
X24902Y-41775D01*
X24921Y-41738D01*
X24939Y-41719D01*
X24977Y-41700D01*
X25014Y-41700D01*
X25071Y-41719D01*
X25296Y-41944D01*
X25296Y-41700D01*
G54D20*
G54D22*
X28296Y-44946D02*
X28296Y-45134D01*
X27902Y-45134D01*
X28183Y-44833D02*
X28183Y-44646D01*
X28296Y-44871D02*
X27902Y-44740D01*
X28296Y-44608D01*
X28296Y-44477D02*
X27902Y-44477D01*
X28296Y-44252D01*
X27902Y-44252D01*
X28071Y-44008D02*
X28052Y-44045D01*
X28033Y-44064D01*
X27996Y-44083D01*
X27977Y-44083D01*
X27939Y-44064D01*
X27921Y-44045D01*
X27902Y-44008D01*
X27902Y-43933D01*
X27921Y-43895D01*
X27939Y-43877D01*
X27977Y-43858D01*
X27996Y-43858D01*
X28033Y-43877D01*
X28052Y-43895D01*
X28071Y-43933D01*
X28071Y-44008D01*
X28089Y-44045D01*
X28108Y-44064D01*
X28146Y-44083D01*
X28221Y-44083D01*
X28258Y-44064D01*
X28277Y-44045D01*
X28296Y-44008D01*
X28296Y-43933D01*
X28277Y-43895D01*
X28258Y-43877D01*
X28221Y-43858D01*
X28146Y-43858D01*
X28108Y-43877D01*
X28089Y-43895D01*
X28071Y-43933D01*
X27902Y-43727D02*
X27902Y-43464D01*
X28296Y-43633D01*
X27939Y-43333D02*
X27921Y-43314D01*
X27902Y-43276D01*
X27902Y-43182D01*
X27921Y-43145D01*
X27939Y-43126D01*
X27977Y-43107D01*
X28014Y-43107D01*
X28071Y-43126D01*
X28296Y-43351D01*
X28296Y-43107D01*
X27902Y-42863D02*
X27902Y-42826D01*
X27921Y-42788D01*
X27939Y-42770D01*
X27977Y-42751D01*
X28052Y-42732D01*
X28146Y-42732D01*
X28221Y-42751D01*
X28258Y-42770D01*
X28277Y-42788D01*
X28296Y-42826D01*
X28296Y-42863D01*
X28277Y-42901D01*
X28258Y-42920D01*
X28221Y-42939D01*
X28146Y-42957D01*
X28052Y-42957D01*
X27977Y-42939D01*
X27939Y-42920D01*
X27921Y-42901D01*
X27902Y-42863D01*
X28183Y-42582D02*
X28183Y-42394D01*
X28296Y-42620D02*
X27902Y-42488D01*
X28296Y-42357D01*
X27883Y-41944D02*
X28390Y-42282D01*
X28296Y-41625D02*
X28296Y-41813D01*
X27902Y-41813D01*
X28183Y-41513D02*
X28183Y-41325D01*
X28296Y-41550D02*
X27902Y-41419D01*
X28296Y-41287D01*
X28296Y-41156D02*
X27902Y-41156D01*
X28296Y-40931D01*
X27902Y-40931D01*
X28071Y-40687D02*
X28052Y-40725D01*
X28033Y-40743D01*
X27996Y-40762D01*
X27977Y-40762D01*
X27939Y-40743D01*
X27921Y-40725D01*
X27902Y-40687D01*
X27902Y-40612D01*
X27921Y-40575D01*
X27939Y-40556D01*
X27977Y-40537D01*
X27996Y-40537D01*
X28033Y-40556D01*
X28052Y-40575D01*
X28071Y-40612D01*
X28071Y-40687D01*
X28089Y-40725D01*
X28108Y-40743D01*
X28146Y-40762D01*
X28221Y-40762D01*
X28258Y-40743D01*
X28277Y-40725D01*
X28296Y-40687D01*
X28296Y-40612D01*
X28277Y-40575D01*
X28258Y-40556D01*
X28221Y-40537D01*
X28146Y-40537D01*
X28108Y-40556D01*
X28089Y-40575D01*
X28071Y-40612D01*
X27902Y-40406D02*
X27902Y-40143D01*
X28296Y-40312D01*
X27939Y-40012D02*
X27921Y-39993D01*
X27902Y-39955D01*
X27902Y-39862D01*
X27921Y-39824D01*
X27939Y-39805D01*
X27977Y-39787D01*
X28014Y-39787D01*
X28071Y-39805D01*
X28296Y-40030D01*
X28296Y-39787D01*
X27902Y-39543D02*
X27902Y-39505D01*
X27921Y-39468D01*
X27939Y-39449D01*
X27977Y-39430D01*
X28052Y-39411D01*
X28146Y-39411D01*
X28221Y-39430D01*
X28258Y-39449D01*
X28277Y-39468D01*
X28296Y-39505D01*
X28296Y-39543D01*
X28277Y-39580D01*
X28258Y-39599D01*
X28221Y-39618D01*
X28146Y-39636D01*
X28052Y-39636D01*
X27977Y-39618D01*
X27939Y-39599D01*
X27921Y-39580D01*
X27902Y-39543D01*
X28183Y-39261D02*
X28183Y-39074D01*
X28296Y-39299D02*
X27902Y-39167D01*
X28296Y-39036D01*
X28296Y-38905D02*
X27902Y-38905D01*
G54D20*
G54D21*
X31169Y-30648D02*
X31169Y-30862D01*
X31155Y-30905D01*
X31126Y-30934D01*
X31083Y-30948D01*
X31055Y-30948D01*
X31455Y-30648D02*
X31312Y-30648D01*
X31298Y-30791D01*
X31312Y-30777D01*
X31341Y-30762D01*
X31412Y-30762D01*
X31441Y-30777D01*
X31455Y-30791D01*
X31469Y-30820D01*
X31469Y-30891D01*
X31455Y-30920D01*
X31441Y-30934D01*
X31412Y-30948D01*
X31341Y-30948D01*
X31312Y-30934D01*
X31298Y-30920D01*
X29872Y-26982D02*
X29872Y-26682D01*
X29872Y-26825D02*
X30043Y-26825D01*
X30043Y-26982D02*
X30043Y-26682D01*
X30186Y-26825D02*
X30286Y-26825D01*
X30329Y-26982D02*
X30186Y-26982D01*
X30186Y-26682D01*
X30329Y-26682D01*
X30443Y-26896D02*
X30586Y-26896D01*
X30415Y-26982D02*
X30515Y-26682D01*
X30615Y-26982D01*
X30715Y-26982D02*
X30715Y-26682D01*
X30786Y-26682D01*
X30829Y-26696D01*
X30857Y-26725D01*
X30872Y-26753D01*
X30886Y-26810D01*
X30886Y-26853D01*
X30872Y-26910D01*
X30857Y-26939D01*
X30829Y-26967D01*
X30786Y-26982D01*
X30715Y-26982D01*
X31015Y-26825D02*
X31115Y-26825D01*
X31157Y-26982D02*
X31015Y-26982D01*
X31015Y-26682D01*
X31157Y-26682D01*
X31457Y-26982D02*
X31357Y-26839D01*
X31286Y-26982D02*
X31286Y-26682D01*
X31400Y-26682D01*
X31429Y-26696D01*
X31443Y-26710D01*
X31457Y-26739D01*
X31457Y-26782D01*
X31443Y-26810D01*
X31429Y-26825D01*
X31400Y-26839D01*
X31286Y-26839D01*
X31515Y-27010D02*
X31743Y-27010D01*
X31786Y-26682D02*
X31986Y-26682D01*
X31857Y-26982D01*
X32072Y-26682D02*
X32272Y-26982D01*
X32272Y-26682D02*
X32072Y-26982D01*
X32372Y-26710D02*
X32386Y-26696D01*
X32415Y-26682D01*
X32486Y-26682D01*
X32515Y-26696D01*
X32529Y-26710D01*
X32543Y-26739D01*
X32543Y-26767D01*
X32529Y-26810D01*
X32357Y-26982D01*
X32543Y-26982D01*
X46540Y-42497D02*
X46754Y-42497D01*
X46797Y-42511D01*
X46826Y-42540D01*
X46840Y-42583D01*
X46840Y-42611D01*
X46569Y-42369D02*
X46554Y-42354D01*
X46540Y-42326D01*
X46540Y-42254D01*
X46554Y-42226D01*
X46569Y-42211D01*
X46597Y-42197D01*
X46626Y-42197D01*
X46669Y-42211D01*
X46840Y-42383D01*
X46840Y-42197D01*
X42805Y-43637D02*
X42505Y-43637D01*
X42647Y-43637D02*
X42647Y-43466D01*
X42805Y-43466D02*
X42505Y-43466D01*
X42647Y-43323D02*
X42647Y-43223D01*
X42805Y-43180D02*
X42805Y-43323D01*
X42505Y-43323D01*
X42505Y-43180D01*
X42719Y-43066D02*
X42719Y-42923D01*
X42805Y-43094D02*
X42505Y-42994D01*
X42805Y-42894D01*
X42805Y-42794D02*
X42505Y-42794D01*
X42505Y-42723D01*
X42519Y-42680D01*
X42547Y-42651D01*
X42576Y-42637D01*
X42633Y-42623D01*
X42676Y-42623D01*
X42733Y-42637D01*
X42762Y-42651D01*
X42790Y-42680D01*
X42805Y-42723D01*
X42805Y-42794D01*
X42647Y-42494D02*
X42647Y-42394D01*
X42805Y-42351D02*
X42805Y-42494D01*
X42505Y-42494D01*
X42505Y-42351D01*
X42805Y-42051D02*
X42662Y-42151D01*
X42805Y-42223D02*
X42505Y-42223D01*
X42505Y-42109D01*
X42519Y-42080D01*
X42533Y-42066D01*
X42562Y-42051D01*
X42605Y-42051D01*
X42633Y-42066D01*
X42647Y-42080D01*
X42662Y-42109D01*
X42662Y-42223D01*
X42833Y-41994D02*
X42833Y-41766D01*
X42805Y-41680D02*
X42805Y-41623D01*
X42790Y-41594D01*
X42776Y-41580D01*
X42733Y-41551D01*
X42676Y-41537D01*
X42562Y-41537D01*
X42533Y-41551D01*
X42519Y-41566D01*
X42505Y-41594D01*
X42505Y-41651D01*
X42519Y-41680D01*
X42533Y-41694D01*
X42562Y-41709D01*
X42633Y-41709D01*
X42662Y-41694D01*
X42676Y-41680D01*
X42690Y-41651D01*
X42690Y-41594D01*
X42676Y-41566D01*
X42662Y-41551D01*
X42633Y-41537D01*
X42505Y-41437D02*
X42805Y-41237D01*
X42505Y-41237D02*
X42805Y-41437D01*
X42533Y-41137D02*
X42519Y-41123D01*
X42505Y-41094D01*
X42505Y-41023D01*
X42519Y-40994D01*
X42533Y-40980D01*
X42562Y-40966D01*
X42590Y-40966D01*
X42633Y-40980D01*
X42805Y-41151D01*
X42805Y-40966D01*
M02*
