G04 #@! TF.FileFunction,Soldermask,Bot*
%FSLAX46Y46*%
G04 Gerber Fmt 4.6, Leading zero omitted, Abs format (unit mm)*
G04 Created by KiCad (PCBNEW 4.0.6-e0-6349~53~ubuntu16.04.1) date Sat Apr 29 17:17:25 2017*
%MOMM*%
%LPD*%
G01*
G04 APERTURE LIST*
%ADD10C,0.150000*%
%ADD11C,3.000000*%
%ADD12C,2.000000*%
%ADD13C,1.800000*%
%ADD14C,1.500000*%
%ADD15C,3.250000*%
%ADD16C,1.700000*%
G04 APERTURE END LIST*
D10*
D11*
X90000000Y-134000000D03*
X90000000Y-75000000D03*
X181000000Y-133000000D03*
X183000000Y-59000000D03*
D12*
X110000000Y-88350000D03*
X110000000Y-85850000D03*
D13*
X164240000Y-132430160D03*
X164240000Y-134970160D03*
X161808160Y-110744000D03*
X164348160Y-110744000D03*
D14*
X183110000Y-127325000D03*
X183110000Y-124785000D03*
X183110000Y-117215000D03*
X183110000Y-114675000D03*
X172650000Y-116560000D03*
X172650000Y-121630000D03*
X172650000Y-119100000D03*
X172650000Y-124170000D03*
X170110000Y-117820000D03*
X170110000Y-122900000D03*
X170110000Y-120360000D03*
D15*
X178867920Y-115285000D03*
X178867920Y-126715000D03*
D16*
X175100000Y-128950000D03*
X175100000Y-113050000D03*
D14*
X170110000Y-125440000D03*
X167175000Y-151610000D03*
X169715000Y-151610000D03*
X177285000Y-151610000D03*
X179825000Y-151610000D03*
X177940000Y-141150000D03*
X172870000Y-141150000D03*
X175400000Y-141150000D03*
X170330000Y-141150000D03*
X176680000Y-138610000D03*
X171600000Y-138610000D03*
X174140000Y-138610000D03*
D15*
X179215000Y-147367920D03*
X167785000Y-147367920D03*
D16*
X165550000Y-143600000D03*
X181450000Y-143600000D03*
D14*
X169060000Y-138610000D03*
X148175000Y-151610000D03*
X150715000Y-151610000D03*
X158285000Y-151610000D03*
X160825000Y-151610000D03*
X158940000Y-141150000D03*
X153870000Y-141150000D03*
X156400000Y-141150000D03*
X151330000Y-141150000D03*
X157680000Y-138610000D03*
X152600000Y-138610000D03*
X155140000Y-138610000D03*
D15*
X160215000Y-147367920D03*
X148785000Y-147367920D03*
D16*
X146550000Y-143600000D03*
X162450000Y-143600000D03*
D14*
X150060000Y-138610000D03*
X129175000Y-151610000D03*
X131715000Y-151610000D03*
X139285000Y-151610000D03*
X141825000Y-151610000D03*
X139940000Y-141150000D03*
X134870000Y-141150000D03*
X137400000Y-141150000D03*
X132330000Y-141150000D03*
X138680000Y-138610000D03*
X133600000Y-138610000D03*
X136140000Y-138610000D03*
D15*
X141215000Y-147367920D03*
X129785000Y-147367920D03*
D16*
X127550000Y-143600000D03*
X143450000Y-143600000D03*
D14*
X131060000Y-138610000D03*
X110175000Y-151610000D03*
X112715000Y-151610000D03*
X120285000Y-151610000D03*
X122825000Y-151610000D03*
X120940000Y-141150000D03*
X115870000Y-141150000D03*
X118400000Y-141150000D03*
X113330000Y-141150000D03*
X119680000Y-138610000D03*
X114600000Y-138610000D03*
X117140000Y-138610000D03*
D15*
X122215000Y-147367920D03*
X110785000Y-147367920D03*
D16*
X108550000Y-143600000D03*
X124450000Y-143600000D03*
D14*
X112060000Y-138610000D03*
X91175000Y-151610000D03*
X93715000Y-151610000D03*
X101285000Y-151610000D03*
X103825000Y-151610000D03*
X101940000Y-141150000D03*
X96870000Y-141150000D03*
X99400000Y-141150000D03*
X94330000Y-141150000D03*
X100680000Y-138610000D03*
X95600000Y-138610000D03*
X98140000Y-138610000D03*
D15*
X103215000Y-147367920D03*
X91785000Y-147367920D03*
D16*
X89550000Y-143600000D03*
X105450000Y-143600000D03*
D14*
X93060000Y-138610000D03*
X88890000Y-116675000D03*
X88890000Y-119215000D03*
X88890000Y-126785000D03*
X88890000Y-129325000D03*
X99350000Y-127440000D03*
X99350000Y-122370000D03*
X99350000Y-124900000D03*
X99350000Y-119830000D03*
X101890000Y-126180000D03*
X101890000Y-121100000D03*
X101890000Y-123640000D03*
D15*
X93132080Y-128715000D03*
X93132080Y-117285000D03*
D16*
X96900000Y-115050000D03*
X96900000Y-130950000D03*
D14*
X101890000Y-118560000D03*
X88890000Y-97675000D03*
X88890000Y-100215000D03*
X88890000Y-107785000D03*
X88890000Y-110325000D03*
X99350000Y-108440000D03*
X99350000Y-103370000D03*
X99350000Y-105900000D03*
X99350000Y-100830000D03*
X101890000Y-107180000D03*
X101890000Y-102100000D03*
X101890000Y-104640000D03*
D15*
X93132080Y-109715000D03*
X93132080Y-98285000D03*
D16*
X96900000Y-96050000D03*
X96900000Y-111950000D03*
D14*
X101890000Y-99560000D03*
X88890000Y-79175000D03*
X88890000Y-81715000D03*
X88890000Y-89285000D03*
X88890000Y-91825000D03*
X99350000Y-89940000D03*
X99350000Y-84870000D03*
X99350000Y-87400000D03*
X99350000Y-82330000D03*
X101890000Y-88680000D03*
X101890000Y-83600000D03*
X101890000Y-86140000D03*
D15*
X93132080Y-91215000D03*
X93132080Y-79785000D03*
D16*
X96900000Y-77550000D03*
X96900000Y-93450000D03*
D14*
X101890000Y-81060000D03*
X104825000Y-57890000D03*
X102285000Y-57890000D03*
X94715000Y-57890000D03*
X92175000Y-57890000D03*
X94060000Y-68350000D03*
X99130000Y-68350000D03*
X96600000Y-68350000D03*
X101670000Y-68350000D03*
X95320000Y-70890000D03*
X100400000Y-70890000D03*
X97860000Y-70890000D03*
D15*
X92785000Y-62132080D03*
X104215000Y-62132080D03*
D16*
X106450000Y-65900000D03*
X90550000Y-65900000D03*
D14*
X102940000Y-70890000D03*
X123325000Y-57890000D03*
X120785000Y-57890000D03*
X113215000Y-57890000D03*
X110675000Y-57890000D03*
X112560000Y-68350000D03*
X117630000Y-68350000D03*
X115100000Y-68350000D03*
X120170000Y-68350000D03*
X113820000Y-70890000D03*
X118900000Y-70890000D03*
X116360000Y-70890000D03*
D15*
X111285000Y-62132080D03*
X122715000Y-62132080D03*
D16*
X124950000Y-65900000D03*
X109050000Y-65900000D03*
D14*
X121440000Y-70890000D03*
X141825000Y-57890000D03*
X139285000Y-57890000D03*
X131715000Y-57890000D03*
X129175000Y-57890000D03*
X131060000Y-68350000D03*
X136130000Y-68350000D03*
X133600000Y-68350000D03*
X138670000Y-68350000D03*
X132320000Y-70890000D03*
X137400000Y-70890000D03*
X134860000Y-70890000D03*
D15*
X129785000Y-62132080D03*
X141215000Y-62132080D03*
D16*
X143450000Y-65900000D03*
X127550000Y-65900000D03*
D14*
X139940000Y-70890000D03*
X160325000Y-57890000D03*
X157785000Y-57890000D03*
X150215000Y-57890000D03*
X147675000Y-57890000D03*
X149560000Y-68350000D03*
X154630000Y-68350000D03*
X152100000Y-68350000D03*
X157170000Y-68350000D03*
X150820000Y-70890000D03*
X155900000Y-70890000D03*
X153360000Y-70890000D03*
D15*
X148285000Y-62132080D03*
X159715000Y-62132080D03*
D16*
X161950000Y-65900000D03*
X146050000Y-65900000D03*
D14*
X158440000Y-70890000D03*
X178825000Y-57890000D03*
X176285000Y-57890000D03*
X168715000Y-57890000D03*
X166175000Y-57890000D03*
X168060000Y-68350000D03*
X173130000Y-68350000D03*
X170600000Y-68350000D03*
X175670000Y-68350000D03*
X169320000Y-70890000D03*
X174400000Y-70890000D03*
X171860000Y-70890000D03*
D15*
X166785000Y-62132080D03*
X178215000Y-62132080D03*
D16*
X180450000Y-65900000D03*
X164550000Y-65900000D03*
D14*
X176940000Y-70890000D03*
X183110000Y-89325000D03*
X183110000Y-86785000D03*
X183110000Y-79215000D03*
X183110000Y-76675000D03*
X172650000Y-78560000D03*
X172650000Y-83630000D03*
X172650000Y-81100000D03*
X172650000Y-86170000D03*
X170110000Y-79820000D03*
X170110000Y-84900000D03*
X170110000Y-82360000D03*
D15*
X178867920Y-77285000D03*
X178867920Y-88715000D03*
D16*
X175100000Y-90950000D03*
X175100000Y-75050000D03*
D14*
X170110000Y-87440000D03*
X183110000Y-108325000D03*
X183110000Y-105785000D03*
X183110000Y-98215000D03*
X183110000Y-95675000D03*
X172650000Y-97560000D03*
X172650000Y-102630000D03*
X172650000Y-100100000D03*
X172650000Y-105170000D03*
X170110000Y-98820000D03*
X170110000Y-103900000D03*
X170110000Y-101360000D03*
D15*
X178867920Y-96285000D03*
X178867920Y-107715000D03*
D16*
X175100000Y-109950000D03*
X175100000Y-94050000D03*
D14*
X170110000Y-106440000D03*
M02*
