G04 (created by PCBNEW (2013-07-07 BZR 4022)-stable) date 7/17/2014 12:13:14 PM*
%MOIN*%
G04 Gerber Fmt 3.4, Leading zero omitted, Abs format*
%FSLAX34Y34*%
G01*
G70*
G90*
G04 APERTURE LIST*
%ADD10C,0.00590551*%
%ADD11C,0.00393701*%
%ADD12C,0.011811*%
%ADD13R,0.181102X0.0318898*%
%ADD14R,0.181102X0.0240157*%
%ADD15C,0.15748*%
%ADD16R,0.153543X0.0984252*%
%ADD17R,0.00984252X0.0334646*%
%ADD18R,0.0334646X0.00984252*%
%ADD19R,0.281496X0.281496*%
%ADD20C,0.0708661*%
%ADD21C,0.0787*%
%ADD22R,0.0787X0.0787*%
%ADD23R,0.0394X0.0354*%
%ADD24R,0.0984X0.0984*%
%ADD25O,0.0098X0.0315*%
%ADD26O,0.0315X0.0098*%
%ADD27C,0.023622*%
%ADD28R,0.0354X0.0394*%
%ADD29R,0.055X0.035*%
%ADD30R,0.0393701X0.0314961*%
%ADD31R,0.1X0.039*%
%ADD32R,0.19685X0.0299213*%
%ADD33R,0.177165X0.346457*%
%ADD34R,0.0299213X0.19685*%
%ADD35R,0.346457X0.177165*%
%ADD36R,0.0826772X0.0826772*%
%ADD37R,0.0393701X0.0137795*%
%ADD38R,0.0137795X0.0393701*%
%ADD39C,0.019685*%
%ADD40R,0.0299213X0.25*%
%ADD41C,0.127953*%
%ADD42R,0.0905512X0.220472*%
%ADD43R,0.0551181X0.133858*%
%ADD44R,0.0945X0.1378*%
%ADD45C,0.0275591*%
%ADD46C,0.015748*%
%ADD47C,0.0137795*%
%ADD48C,0.00787402*%
%ADD49C,0.00984252*%
%ADD50C,0.0275591*%
%ADD51C,0.0393701*%
%ADD52C,0.0472441*%
%ADD53C,0.0314961*%
%ADD54C,0.019685*%
G04 APERTURE END LIST*
G54D10*
G54D11*
X55858Y-40536D02*
X55858Y-40378D01*
X55924Y-40491D01*
X55989Y-40378D01*
X55989Y-40536D01*
X56196Y-40521D02*
X56186Y-40528D01*
X56158Y-40536D01*
X56139Y-40536D01*
X56111Y-40528D01*
X56092Y-40513D01*
X56083Y-40498D01*
X56074Y-40468D01*
X56074Y-40446D01*
X56083Y-40416D01*
X56092Y-40401D01*
X56111Y-40386D01*
X56139Y-40378D01*
X56158Y-40378D01*
X56186Y-40386D01*
X56196Y-40393D01*
X56374Y-40536D02*
X56280Y-40536D01*
X56280Y-40378D01*
X56552Y-40536D02*
X56486Y-40461D01*
X56439Y-40536D02*
X56439Y-40378D01*
X56514Y-40378D01*
X56533Y-40386D01*
X56542Y-40393D01*
X56552Y-40408D01*
X56552Y-40431D01*
X56542Y-40446D01*
X56533Y-40453D01*
X56514Y-40461D01*
X56439Y-40461D01*
X55811Y-40318D02*
X56589Y-40318D01*
G54D12*
X40229Y-59947D02*
X39638Y-59947D01*
X40060Y-59751D01*
X39638Y-59554D01*
X40229Y-59554D01*
X39638Y-59160D02*
X39638Y-59048D01*
X39666Y-58991D01*
X39723Y-58935D01*
X39835Y-58907D01*
X40032Y-58907D01*
X40144Y-58935D01*
X40201Y-58991D01*
X40229Y-59048D01*
X40229Y-59160D01*
X40201Y-59216D01*
X40144Y-59273D01*
X40032Y-59301D01*
X39835Y-59301D01*
X39723Y-59273D01*
X39666Y-59216D01*
X39638Y-59160D01*
X39638Y-58738D02*
X39638Y-58401D01*
X40229Y-58570D02*
X39638Y-58570D01*
X39638Y-58091D02*
X39638Y-57979D01*
X39666Y-57923D01*
X39723Y-57866D01*
X39835Y-57838D01*
X40032Y-57838D01*
X40144Y-57866D01*
X40201Y-57923D01*
X40229Y-57979D01*
X40229Y-58091D01*
X40201Y-58148D01*
X40144Y-58204D01*
X40032Y-58232D01*
X39835Y-58232D01*
X39723Y-58204D01*
X39666Y-58148D01*
X39638Y-58091D01*
X40229Y-57248D02*
X39947Y-57445D01*
X40229Y-57585D02*
X39638Y-57585D01*
X39638Y-57360D01*
X39666Y-57304D01*
X39694Y-57276D01*
X39751Y-57248D01*
X39835Y-57248D01*
X39891Y-57276D01*
X39919Y-57304D01*
X39947Y-57360D01*
X39947Y-57585D01*
X54008Y-59947D02*
X53418Y-59947D01*
X53839Y-59751D01*
X53418Y-59554D01*
X54008Y-59554D01*
X53418Y-59160D02*
X53418Y-59048D01*
X53446Y-58991D01*
X53502Y-58935D01*
X53615Y-58907D01*
X53811Y-58907D01*
X53924Y-58935D01*
X53980Y-58991D01*
X54008Y-59048D01*
X54008Y-59160D01*
X53980Y-59216D01*
X53924Y-59273D01*
X53811Y-59301D01*
X53615Y-59301D01*
X53502Y-59273D01*
X53446Y-59216D01*
X53418Y-59160D01*
X53418Y-58738D02*
X53418Y-58401D01*
X54008Y-58570D02*
X53418Y-58570D01*
X53418Y-58091D02*
X53418Y-57979D01*
X53446Y-57923D01*
X53502Y-57866D01*
X53615Y-57838D01*
X53811Y-57838D01*
X53924Y-57866D01*
X53980Y-57923D01*
X54008Y-57979D01*
X54008Y-58091D01*
X53980Y-58148D01*
X53924Y-58204D01*
X53811Y-58232D01*
X53615Y-58232D01*
X53502Y-58204D01*
X53446Y-58148D01*
X53418Y-58091D01*
X54008Y-57248D02*
X53727Y-57445D01*
X54008Y-57585D02*
X53418Y-57585D01*
X53418Y-57360D01*
X53446Y-57304D01*
X53474Y-57276D01*
X53530Y-57248D01*
X53615Y-57248D01*
X53671Y-57276D01*
X53699Y-57304D01*
X53727Y-57360D01*
X53727Y-57585D01*
X66607Y-59947D02*
X66016Y-59947D01*
X66438Y-59751D01*
X66016Y-59554D01*
X66607Y-59554D01*
X66016Y-59160D02*
X66016Y-59048D01*
X66044Y-58991D01*
X66100Y-58935D01*
X66213Y-58907D01*
X66410Y-58907D01*
X66522Y-58935D01*
X66579Y-58991D01*
X66607Y-59048D01*
X66607Y-59160D01*
X66579Y-59216D01*
X66522Y-59273D01*
X66410Y-59301D01*
X66213Y-59301D01*
X66100Y-59273D01*
X66044Y-59216D01*
X66016Y-59160D01*
X66016Y-58738D02*
X66016Y-58401D01*
X66607Y-58570D02*
X66016Y-58570D01*
X66016Y-58091D02*
X66016Y-57979D01*
X66044Y-57923D01*
X66100Y-57866D01*
X66213Y-57838D01*
X66410Y-57838D01*
X66522Y-57866D01*
X66579Y-57923D01*
X66607Y-57979D01*
X66607Y-58091D01*
X66579Y-58148D01*
X66522Y-58204D01*
X66410Y-58232D01*
X66213Y-58232D01*
X66100Y-58204D01*
X66044Y-58148D01*
X66016Y-58091D01*
X66607Y-57248D02*
X66325Y-57445D01*
X66607Y-57585D02*
X66016Y-57585D01*
X66016Y-57360D01*
X66044Y-57304D01*
X66072Y-57276D01*
X66129Y-57248D01*
X66213Y-57248D01*
X66269Y-57276D01*
X66297Y-57304D01*
X66325Y-57360D01*
X66325Y-57585D01*
G54D13*
X43523Y-33291D03*
X43523Y-34015D03*
G54D14*
X43523Y-34488D03*
X43523Y-34889D03*
X43523Y-35692D03*
X43523Y-37291D03*
X43523Y-36488D03*
G54D13*
X43523Y-38488D03*
X43523Y-37763D03*
G54D14*
X43523Y-36090D03*
X43523Y-36889D03*
G54D15*
X35681Y-38389D03*
X35681Y-33389D03*
G54D14*
X43523Y-35291D03*
G54D16*
X35681Y-32228D03*
X35681Y-39551D03*
G54D17*
X59807Y-37259D03*
X60003Y-37259D03*
X58625Y-37259D03*
X58822Y-37259D03*
X59216Y-37259D03*
X59019Y-37259D03*
X59610Y-37259D03*
X59413Y-37259D03*
X57838Y-37259D03*
X58035Y-37259D03*
X58429Y-37259D03*
X58232Y-37259D03*
X57444Y-37259D03*
X57641Y-37259D03*
X57248Y-37259D03*
X57051Y-37259D03*
G54D18*
X56775Y-36984D03*
X56775Y-36787D03*
X56775Y-36393D03*
X56775Y-36590D03*
X56775Y-35803D03*
X56775Y-35606D03*
X56775Y-36000D03*
X56775Y-36196D03*
X56775Y-34622D03*
X56775Y-34425D03*
X56775Y-35015D03*
X56775Y-34818D03*
X56775Y-35212D03*
X56775Y-35409D03*
X56775Y-34031D03*
X56775Y-34228D03*
G54D17*
X57051Y-33755D03*
X57248Y-33755D03*
X57641Y-33755D03*
X57444Y-33755D03*
X58232Y-33755D03*
X58429Y-33755D03*
X58035Y-33755D03*
X57838Y-33755D03*
X59413Y-33755D03*
X59610Y-33755D03*
X59019Y-33755D03*
X59216Y-33755D03*
X58822Y-33755D03*
X58625Y-33755D03*
X60003Y-33755D03*
X59807Y-33755D03*
G54D18*
X60279Y-34228D03*
X60279Y-34031D03*
X60279Y-35409D03*
X60279Y-35212D03*
X60279Y-34818D03*
X60279Y-35007D03*
X60279Y-34425D03*
X60279Y-34622D03*
X60279Y-36196D03*
X60279Y-36000D03*
X60279Y-35606D03*
X60279Y-35803D03*
X60279Y-36590D03*
X60279Y-36393D03*
X60279Y-36787D03*
X60279Y-36984D03*
G54D19*
X58527Y-35507D03*
G54D20*
X60940Y-39763D03*
X61940Y-39763D03*
X56948Y-39763D03*
X57948Y-39763D03*
X59944Y-39763D03*
X58944Y-39763D03*
G54D21*
X37401Y-27952D03*
G54D22*
X35629Y-25822D03*
X38031Y-25822D03*
X35629Y-30084D03*
X38031Y-30084D03*
G54D21*
X35629Y-27952D03*
G54D23*
X50846Y-41693D03*
X50846Y-41101D03*
X47047Y-32578D03*
X47047Y-33170D03*
X52224Y-39981D03*
X52224Y-39389D03*
G54D24*
X50003Y-35208D03*
G54D25*
X49511Y-35995D03*
X49708Y-35995D03*
X49905Y-35995D03*
X50101Y-35995D03*
X50298Y-35995D03*
X50495Y-35995D03*
G54D26*
X50790Y-35700D03*
X50790Y-35503D03*
X50790Y-35306D03*
X50790Y-35110D03*
X50790Y-34913D03*
X50790Y-34716D03*
G54D25*
X50495Y-34421D03*
X50298Y-34421D03*
X50101Y-34421D03*
X49905Y-34421D03*
X49708Y-34421D03*
X49511Y-34421D03*
G54D26*
X49216Y-34716D03*
X49216Y-34913D03*
X49216Y-35110D03*
X49216Y-35306D03*
X49216Y-35503D03*
X49216Y-35700D03*
G54D27*
X50003Y-35208D03*
X49703Y-34908D03*
X49703Y-35508D03*
X50303Y-34908D03*
X50303Y-35508D03*
G54D28*
X47491Y-36114D03*
X48083Y-36114D03*
G54D29*
X46220Y-32026D03*
X46220Y-32776D03*
G54D23*
X53031Y-40000D03*
X53031Y-39408D03*
X51377Y-38996D03*
X51377Y-38404D03*
X49035Y-38957D03*
X49035Y-38365D03*
X48228Y-32578D03*
X48228Y-33170D03*
X47637Y-32578D03*
X47637Y-33170D03*
X62401Y-36711D03*
X62401Y-37303D03*
X54350Y-41418D03*
X54350Y-40826D03*
G54D28*
X62894Y-35000D03*
X62302Y-35000D03*
G54D23*
X59842Y-32499D03*
X59842Y-33091D03*
X58533Y-31081D03*
X58533Y-31673D03*
X60866Y-31614D03*
X60866Y-31022D03*
X59212Y-32499D03*
X59212Y-33091D03*
G54D28*
X54626Y-39035D03*
X54034Y-39035D03*
X54528Y-39763D03*
X53936Y-39763D03*
X52973Y-40708D03*
X52381Y-40708D03*
X54803Y-35826D03*
X54211Y-35826D03*
X54744Y-36515D03*
X54152Y-36515D03*
X53878Y-37539D03*
X53286Y-37539D03*
G54D23*
X46283Y-35051D03*
X46283Y-34459D03*
X46291Y-35664D03*
X46291Y-36256D03*
X45385Y-37134D03*
X45385Y-36542D03*
X45405Y-37822D03*
X45405Y-38414D03*
G54D28*
X44693Y-40208D03*
X44101Y-40208D03*
X57341Y-38582D03*
X57933Y-38582D03*
X45516Y-33295D03*
X44924Y-33295D03*
G54D23*
X45106Y-34512D03*
X45106Y-33920D03*
G54D28*
X58483Y-38622D03*
X59075Y-38622D03*
G54D23*
X40551Y-30020D03*
X40551Y-29428D03*
G54D30*
X50610Y-38405D03*
X49822Y-38405D03*
X50610Y-38996D03*
X49822Y-38996D03*
X59251Y-31633D03*
X60039Y-31633D03*
X59251Y-31043D03*
X60039Y-31043D03*
G54D28*
X61121Y-41259D03*
X61713Y-41259D03*
G54D29*
X53543Y-33760D03*
X53543Y-33010D03*
G54D28*
X63306Y-37185D03*
X63898Y-37185D03*
G54D31*
X63944Y-40464D03*
X62944Y-41464D03*
G54D32*
X65787Y-37726D03*
X65787Y-38726D03*
X65787Y-39726D03*
X65787Y-39226D03*
X65787Y-40226D03*
X65787Y-38226D03*
G54D33*
X72106Y-38976D03*
G54D32*
X65787Y-31820D03*
X65787Y-32820D03*
X65787Y-33820D03*
X65787Y-33320D03*
X65787Y-34320D03*
X65787Y-32320D03*
G54D33*
X72106Y-33070D03*
G54D34*
X48946Y-28503D03*
X49946Y-28503D03*
X50946Y-28503D03*
X50446Y-28503D03*
X51446Y-28503D03*
X49446Y-28503D03*
G54D35*
X50196Y-22185D03*
G54D34*
X42057Y-28503D03*
X43057Y-28503D03*
X44057Y-28503D03*
X43557Y-28503D03*
X44557Y-28503D03*
X42557Y-28503D03*
G54D35*
X43307Y-22185D03*
G54D34*
X62726Y-28700D03*
X63726Y-28700D03*
X64726Y-28700D03*
X64226Y-28700D03*
X65226Y-28700D03*
X63226Y-28700D03*
G54D35*
X63976Y-22381D03*
G54D34*
X55836Y-28503D03*
X56836Y-28503D03*
X57836Y-28503D03*
X57336Y-28503D03*
X58336Y-28503D03*
X56336Y-28503D03*
G54D35*
X57086Y-22185D03*
G54D28*
X40994Y-50246D03*
X40402Y-50246D03*
X38796Y-52663D03*
X39388Y-52663D03*
X40057Y-55088D03*
X39465Y-55088D03*
G54D23*
X44153Y-51644D03*
X44153Y-51052D03*
G54D28*
X39534Y-53816D03*
X38942Y-53816D03*
G54D23*
X42125Y-49410D03*
X42125Y-48818D03*
X43267Y-49400D03*
X43267Y-48808D03*
X43464Y-54360D03*
X43464Y-53768D03*
G54D36*
X42273Y-51328D03*
G54D37*
X41525Y-50944D03*
X41525Y-51200D03*
X41525Y-51456D03*
X41525Y-51712D03*
G54D38*
X41889Y-52076D03*
X42145Y-52076D03*
X42401Y-52076D03*
X42657Y-52076D03*
G54D37*
X43021Y-51712D03*
X43021Y-51456D03*
X43021Y-51200D03*
X43021Y-50944D03*
G54D38*
X42657Y-50580D03*
X42401Y-50580D03*
X42145Y-50580D03*
X41889Y-50580D03*
G54D39*
X42273Y-51328D03*
X42500Y-51102D03*
X42047Y-51102D03*
X42500Y-51555D03*
X42047Y-51555D03*
G54D40*
X38996Y-49448D03*
X37996Y-49448D03*
X36996Y-49448D03*
X37496Y-49448D03*
X36496Y-49448D03*
G54D41*
X35746Y-45423D03*
X39746Y-45423D03*
G54D40*
X38496Y-49448D03*
G54D29*
X42637Y-53591D03*
X42637Y-54341D03*
G54D42*
X41938Y-44517D03*
G54D43*
X43946Y-47116D03*
X42962Y-47116D03*
G54D42*
X44970Y-44517D03*
X44379Y-58651D03*
G54D43*
X42372Y-56053D03*
X43356Y-56053D03*
G54D42*
X41348Y-58651D03*
G54D44*
X38927Y-57135D03*
X38927Y-59695D03*
G54D28*
X54774Y-50246D03*
X54182Y-50246D03*
X52576Y-52663D03*
X53168Y-52663D03*
X53837Y-55088D03*
X53245Y-55088D03*
G54D23*
X57933Y-51644D03*
X57933Y-51052D03*
G54D28*
X53313Y-53816D03*
X52721Y-53816D03*
G54D23*
X55905Y-49410D03*
X55905Y-48818D03*
X57047Y-49400D03*
X57047Y-48808D03*
X57244Y-54360D03*
X57244Y-53768D03*
G54D36*
X56053Y-51328D03*
G54D37*
X55305Y-50944D03*
X55305Y-51200D03*
X55305Y-51456D03*
X55305Y-51712D03*
G54D38*
X55669Y-52076D03*
X55925Y-52076D03*
X56181Y-52076D03*
X56437Y-52076D03*
G54D37*
X56801Y-51712D03*
X56801Y-51456D03*
X56801Y-51200D03*
X56801Y-50944D03*
G54D38*
X56437Y-50580D03*
X56181Y-50580D03*
X55925Y-50580D03*
X55669Y-50580D03*
G54D39*
X56053Y-51328D03*
X56279Y-51102D03*
X55826Y-51102D03*
X56279Y-51555D03*
X55826Y-51555D03*
G54D40*
X52775Y-49448D03*
X51775Y-49448D03*
X50775Y-49448D03*
X51275Y-49448D03*
X50275Y-49448D03*
G54D41*
X49525Y-45423D03*
X53525Y-45423D03*
G54D40*
X52275Y-49448D03*
G54D29*
X56417Y-53591D03*
X56417Y-54341D03*
G54D42*
X55718Y-44517D03*
G54D43*
X57726Y-47116D03*
X56742Y-47116D03*
G54D42*
X58750Y-44517D03*
X58159Y-58651D03*
G54D43*
X56151Y-56053D03*
X57135Y-56053D03*
G54D42*
X55127Y-58651D03*
G54D44*
X52706Y-57135D03*
X52706Y-59695D03*
G54D28*
X67372Y-50246D03*
X66780Y-50246D03*
X65174Y-52663D03*
X65766Y-52663D03*
X66435Y-55088D03*
X65843Y-55088D03*
G54D23*
X70531Y-51644D03*
X70531Y-51052D03*
G54D28*
X65912Y-53816D03*
X65320Y-53816D03*
G54D23*
X68503Y-49410D03*
X68503Y-48818D03*
X69645Y-49400D03*
X69645Y-48808D03*
X69842Y-54360D03*
X69842Y-53768D03*
G54D36*
X68651Y-51328D03*
G54D37*
X67903Y-50944D03*
X67903Y-51200D03*
X67903Y-51456D03*
X67903Y-51712D03*
G54D38*
X68267Y-52076D03*
X68523Y-52076D03*
X68779Y-52076D03*
X69035Y-52076D03*
G54D37*
X69399Y-51712D03*
X69399Y-51456D03*
X69399Y-51200D03*
X69399Y-50944D03*
G54D38*
X69035Y-50580D03*
X68779Y-50580D03*
X68523Y-50580D03*
X68267Y-50580D03*
G54D39*
X68651Y-51328D03*
X68877Y-51102D03*
X68425Y-51102D03*
X68877Y-51555D03*
X68425Y-51555D03*
G54D40*
X65374Y-49448D03*
X64374Y-49448D03*
X63374Y-49448D03*
X63874Y-49448D03*
X62874Y-49448D03*
G54D41*
X62124Y-45423D03*
X66124Y-45423D03*
G54D40*
X64874Y-49448D03*
G54D29*
X69015Y-53591D03*
X69015Y-54341D03*
G54D42*
X68316Y-44517D03*
G54D43*
X70324Y-47116D03*
X69340Y-47116D03*
G54D42*
X71348Y-44517D03*
X70757Y-58651D03*
G54D43*
X68750Y-56053D03*
X69734Y-56053D03*
G54D42*
X67726Y-58651D03*
G54D44*
X65305Y-57135D03*
X65305Y-59695D03*
G54D45*
X55984Y-40964D03*
X63937Y-36653D03*
X54527Y-34842D03*
X65629Y-36574D03*
X67125Y-30039D03*
X42677Y-41102D03*
X54685Y-29173D03*
X47854Y-29232D03*
X40728Y-31673D03*
X53011Y-35177D03*
X51732Y-41102D03*
X54980Y-40807D03*
X62362Y-34448D03*
X62677Y-30984D03*
X48334Y-33925D03*
X48385Y-36673D03*
X38753Y-51147D03*
X41919Y-53572D03*
X52533Y-51147D03*
X55698Y-53572D03*
X65131Y-51147D03*
X68297Y-53572D03*
X52480Y-33346D03*
X61220Y-33661D03*
X52578Y-33917D03*
X56594Y-33228D03*
X52440Y-36614D03*
X51909Y-33090D03*
X53562Y-34822D03*
X54133Y-38444D03*
X55984Y-41574D03*
X53267Y-32519D03*
X62933Y-36692D03*
X60393Y-32322D03*
X63070Y-34527D03*
X65078Y-41003D03*
X65354Y-35826D03*
X65275Y-30275D03*
X52677Y-29665D03*
X46889Y-29901D03*
X58326Y-38011D03*
X59734Y-28887D03*
X51968Y-41732D03*
X50196Y-40413D03*
X46082Y-33700D03*
X44901Y-39448D03*
X39133Y-31850D03*
X48228Y-31850D03*
X46889Y-36141D03*
X36564Y-59990D03*
X43474Y-50226D03*
X42076Y-47785D03*
X39517Y-49950D03*
X40092Y-51679D03*
X41889Y-54281D03*
X50344Y-59990D03*
X57253Y-50226D03*
X55856Y-47785D03*
X53297Y-49950D03*
X53872Y-51679D03*
X55669Y-54281D03*
X62942Y-59990D03*
X69852Y-50226D03*
X68454Y-47785D03*
X65895Y-49950D03*
X66470Y-51679D03*
X68267Y-54281D03*
X38092Y-54938D03*
X37954Y-51450D03*
X51872Y-54938D03*
X51734Y-51450D03*
X64470Y-54938D03*
X64332Y-51450D03*
X52992Y-37145D03*
X52460Y-34468D03*
X51515Y-40492D03*
X48897Y-33602D03*
X53582Y-36614D03*
X53681Y-35433D03*
X52519Y-38681D03*
X48956Y-32814D03*
X45728Y-39350D03*
X45039Y-32598D03*
X52992Y-38346D03*
X49881Y-32598D03*
X57834Y-30039D03*
X63188Y-32559D03*
X54921Y-30354D03*
X62716Y-32716D03*
X45078Y-30078D03*
X62204Y-32874D03*
X60098Y-38425D03*
X61476Y-38267D03*
X61692Y-38779D03*
X59783Y-38877D03*
X63169Y-30413D03*
X58425Y-30059D03*
X47783Y-34196D03*
X46074Y-37110D03*
X47984Y-34826D03*
X46114Y-37771D03*
X35403Y-50084D03*
X41564Y-48809D03*
X49183Y-50084D03*
X55344Y-48809D03*
X61781Y-50084D03*
X67942Y-48809D03*
X38927Y-56053D03*
X44960Y-52500D03*
X44488Y-54242D03*
X52706Y-56053D03*
X58740Y-52500D03*
X58267Y-54242D03*
X65305Y-56053D03*
X71338Y-52500D03*
X70866Y-54242D03*
G54D46*
X57948Y-39763D02*
X57933Y-40236D01*
X57933Y-40236D02*
X55984Y-40964D01*
G54D47*
X63898Y-37185D02*
X63898Y-36692D01*
X63898Y-36692D02*
X63937Y-36653D01*
G54D48*
X55925Y-35728D02*
X55000Y-35078D01*
G54D49*
X55000Y-35078D02*
X54527Y-34842D01*
G54D48*
X56775Y-35606D02*
X56535Y-35607D01*
X56535Y-35607D02*
X55925Y-35728D01*
G54D49*
X59842Y-33091D02*
X59212Y-33091D01*
X59842Y-33091D02*
X60137Y-33091D01*
X62637Y-30944D02*
X62755Y-30482D01*
G54D12*
X61299Y-32283D02*
X62637Y-30944D01*
G54D49*
X60748Y-32480D02*
X61299Y-32283D01*
X60137Y-33091D02*
X60748Y-32480D01*
X59610Y-33755D02*
X59610Y-33323D01*
X59610Y-33323D02*
X59842Y-33091D01*
X59019Y-33755D02*
X59019Y-33284D01*
X59019Y-33284D02*
X59212Y-33091D01*
G54D12*
X65127Y-37726D02*
X65787Y-37726D01*
X64960Y-37559D02*
X65127Y-37726D01*
X64960Y-37244D02*
X64960Y-37559D01*
X65629Y-36574D02*
X64960Y-37244D01*
G54D49*
X65787Y-31820D02*
X65787Y-30433D01*
X66496Y-30078D02*
X67125Y-30039D01*
X65787Y-30433D02*
X66496Y-30078D01*
G54D12*
X59075Y-38622D02*
X58897Y-39094D01*
X58110Y-39094D02*
X57933Y-38582D01*
X58897Y-39094D02*
X58110Y-39094D01*
G54D50*
X42697Y-41081D02*
X50826Y-41102D01*
X42677Y-41102D02*
X42697Y-41081D01*
X55836Y-29911D02*
X55836Y-28435D01*
X54685Y-29173D02*
X55452Y-29940D01*
X55452Y-29940D02*
X55807Y-29940D01*
X55807Y-29940D02*
X55836Y-29911D01*
X48946Y-29143D02*
X48946Y-28435D01*
X48503Y-29586D02*
X48946Y-29143D01*
X48208Y-29586D02*
X48503Y-29586D01*
X47854Y-29232D02*
X48208Y-29586D01*
X41692Y-30866D02*
X41535Y-30866D01*
X41535Y-30866D02*
X40728Y-31673D01*
X46220Y-32026D02*
X46180Y-32026D01*
X41259Y-30433D02*
X41259Y-29428D01*
X42027Y-31791D02*
X41692Y-30866D01*
X41692Y-30866D02*
X41259Y-30433D01*
X45000Y-31771D02*
X42027Y-31791D01*
X46180Y-32026D02*
X45000Y-31771D01*
X40551Y-29428D02*
X41259Y-29428D01*
X41259Y-29428D02*
X41515Y-29428D01*
X42057Y-28886D02*
X42057Y-28435D01*
X41515Y-29428D02*
X42057Y-28886D01*
X38622Y-29173D02*
X40296Y-29173D01*
X40296Y-29173D02*
X40551Y-29428D01*
G54D49*
X50790Y-35306D02*
X52823Y-35306D01*
X52823Y-35306D02*
X53011Y-35177D01*
G54D50*
X51711Y-41081D02*
X50826Y-41102D01*
G54D49*
X51732Y-41102D02*
X51711Y-41081D01*
G54D46*
X54980Y-40807D02*
X55098Y-40787D01*
X55098Y-40787D02*
X54350Y-40826D01*
G54D49*
X58818Y-37913D02*
X58818Y-38228D01*
X58822Y-37259D02*
X58818Y-37913D01*
X59143Y-38799D02*
X59075Y-38622D01*
X58818Y-38228D02*
X59143Y-38799D01*
G54D46*
X57948Y-39763D02*
X57952Y-38779D01*
G54D49*
X57952Y-38779D02*
X57933Y-38582D01*
G54D46*
X62755Y-29409D02*
X62755Y-30482D01*
X62755Y-30482D02*
X62677Y-30984D01*
G54D49*
X60279Y-35212D02*
X61240Y-35212D01*
X61240Y-35212D02*
X62302Y-35000D01*
G54D46*
X62302Y-35000D02*
X62320Y-34608D01*
X62320Y-34608D02*
X62303Y-34547D01*
X62303Y-34547D02*
X62362Y-34448D01*
X62362Y-34448D02*
X62363Y-34448D01*
G54D51*
X38622Y-27121D02*
X38031Y-25822D01*
X38622Y-29212D02*
X38622Y-29173D01*
X38622Y-29173D02*
X38622Y-27121D01*
G54D52*
X38031Y-25822D02*
X35629Y-25822D01*
G54D53*
X38212Y-26003D02*
X38031Y-25822D01*
G54D46*
X48385Y-36673D02*
X47093Y-36771D01*
X47093Y-36771D02*
X46916Y-36948D01*
G54D54*
X47047Y-33170D02*
X46342Y-33075D01*
X46342Y-33075D02*
X46220Y-32776D01*
X48334Y-33925D02*
X48334Y-33236D01*
X48334Y-33236D02*
X48228Y-33170D01*
G54D49*
X46916Y-36948D02*
X46916Y-36881D01*
G54D12*
X46916Y-36881D02*
X46291Y-36256D01*
X46255Y-38417D02*
X46771Y-38070D01*
X46943Y-37689D02*
X46916Y-36948D01*
X46771Y-38070D02*
X46943Y-37689D01*
X45405Y-38414D02*
X46255Y-38417D01*
G54D54*
X43523Y-36090D02*
X43523Y-36488D01*
G54D12*
X47637Y-33170D02*
X47086Y-33405D01*
X46283Y-34208D02*
X46283Y-34459D01*
X47086Y-33405D02*
X46283Y-34208D01*
G54D54*
X45385Y-36542D02*
X44936Y-36550D01*
X44874Y-36488D02*
X43523Y-36488D01*
X44936Y-36550D02*
X44874Y-36488D01*
G54D12*
X45385Y-36542D02*
X45997Y-36550D01*
X45997Y-36550D02*
X46291Y-36256D01*
G54D50*
X47059Y-33181D02*
X47637Y-33170D01*
G54D54*
X47637Y-33170D02*
X47665Y-33142D01*
X47665Y-33142D02*
X48228Y-33170D01*
G54D49*
X49216Y-34716D02*
X49085Y-34620D01*
X49085Y-34620D02*
X48985Y-34547D01*
G54D46*
X48361Y-36658D02*
X48361Y-36655D01*
G54D12*
X49299Y-36121D02*
X48361Y-36655D01*
G54D49*
X49511Y-35995D02*
X49299Y-36121D01*
G54D46*
X48385Y-36673D02*
X48361Y-36658D01*
G54D49*
X48985Y-34547D02*
X48334Y-33925D01*
G54D46*
X38496Y-49448D02*
X38511Y-50789D01*
X38511Y-50789D02*
X38696Y-51090D01*
X38696Y-51090D02*
X38753Y-51147D01*
G54D47*
X41919Y-53572D02*
X42667Y-53553D01*
X42401Y-52076D02*
X42405Y-52627D01*
X42405Y-52627D02*
X42667Y-53553D01*
G54D46*
X41919Y-53572D02*
X41919Y-53572D01*
X52275Y-49448D02*
X52291Y-50789D01*
X52291Y-50789D02*
X52476Y-51090D01*
X52476Y-51090D02*
X52533Y-51147D01*
G54D47*
X55698Y-53572D02*
X56446Y-53553D01*
X56181Y-52076D02*
X56184Y-52627D01*
X56184Y-52627D02*
X56446Y-53553D01*
G54D46*
X55698Y-53572D02*
X55698Y-53572D01*
X64874Y-49448D02*
X64889Y-50789D01*
X64889Y-50789D02*
X65074Y-51090D01*
X65074Y-51090D02*
X65131Y-51147D01*
G54D47*
X68297Y-53572D02*
X69045Y-53553D01*
X68779Y-52076D02*
X68783Y-52627D01*
X68783Y-52627D02*
X69045Y-53553D01*
G54D46*
X68297Y-53572D02*
X68297Y-53572D01*
G54D48*
X56775Y-36590D02*
X56555Y-36594D01*
G54D49*
X54881Y-36948D02*
X53878Y-37539D01*
G54D48*
X56555Y-36594D02*
X54881Y-36948D01*
G54D49*
X60511Y-34429D02*
X60511Y-34429D01*
G54D12*
X52456Y-33268D02*
X52456Y-33268D01*
X52480Y-33346D02*
X52456Y-33268D01*
X50495Y-34421D02*
X50704Y-34260D01*
X50704Y-34260D02*
X52185Y-33582D01*
X52185Y-33582D02*
X52503Y-33350D01*
G54D49*
X60511Y-34429D02*
X60279Y-34425D01*
X60511Y-34429D02*
X61220Y-33661D01*
X50790Y-34716D02*
X51110Y-34560D01*
X52391Y-34005D02*
X52578Y-33917D01*
X51333Y-34321D02*
X52391Y-34005D01*
X51110Y-34560D02*
X51333Y-34321D01*
X56692Y-33543D02*
X56775Y-34031D01*
X56594Y-33228D02*
X56692Y-33543D01*
G54D48*
X56775Y-36787D02*
X56574Y-36791D01*
X56574Y-36791D02*
X55610Y-37086D01*
G54D12*
X55610Y-37086D02*
X55166Y-37275D01*
X55166Y-37275D02*
X53764Y-38205D01*
X53764Y-38205D02*
X52786Y-37854D01*
X52786Y-37854D02*
X52598Y-37460D01*
X52598Y-37460D02*
X52440Y-36614D01*
G54D46*
X51909Y-33090D02*
X51043Y-33582D01*
G54D49*
X50295Y-34271D02*
X50298Y-34421D01*
X50295Y-34271D02*
X51043Y-33582D01*
G54D48*
X56555Y-36397D02*
X56775Y-36393D01*
X56555Y-36397D02*
X54881Y-36578D01*
G54D49*
X54744Y-36515D02*
X54881Y-36578D01*
G54D48*
X56775Y-36196D02*
X55460Y-36173D01*
G54D49*
X55452Y-36181D02*
X55265Y-35924D01*
X54925Y-35779D02*
X54803Y-35826D01*
X55265Y-35924D02*
X54925Y-35779D01*
X55460Y-36173D02*
X55452Y-36181D01*
G54D48*
X56775Y-36984D02*
X56271Y-37204D01*
G54D49*
X56271Y-37204D02*
X55724Y-37519D01*
X54133Y-38444D02*
X55731Y-37525D01*
X55724Y-37519D02*
X55731Y-37525D01*
X50790Y-35110D02*
X51023Y-35118D01*
X51023Y-35118D02*
X52283Y-35019D01*
X52283Y-35019D02*
X52834Y-34763D01*
X52834Y-34763D02*
X53562Y-34822D01*
X53562Y-34822D02*
X53570Y-34816D01*
X57248Y-37511D02*
X57248Y-37255D01*
X56732Y-38149D02*
X56594Y-38385D01*
X56594Y-38385D02*
X56456Y-38464D01*
X56456Y-38464D02*
X56397Y-38661D01*
X54528Y-39763D02*
X55000Y-39625D01*
X55000Y-39625D02*
X55039Y-39429D01*
X55039Y-39429D02*
X55237Y-39532D01*
X55237Y-39532D02*
X55202Y-39153D01*
X55202Y-39153D02*
X55551Y-39350D01*
X55551Y-39350D02*
X55452Y-38996D01*
X55452Y-38996D02*
X55846Y-39114D01*
X55846Y-39114D02*
X55826Y-38838D01*
X55826Y-38838D02*
X56141Y-38897D01*
X56141Y-38897D02*
X56161Y-38700D01*
X56161Y-38700D02*
X56397Y-38661D01*
X57248Y-37511D02*
X56732Y-38149D01*
X57248Y-37255D02*
X57251Y-37251D01*
X57444Y-37736D02*
X57444Y-37263D01*
X57444Y-37720D02*
X57444Y-37736D01*
X57444Y-37736D02*
X56830Y-38598D01*
X56830Y-38598D02*
X56543Y-38988D01*
X56543Y-38988D02*
X55000Y-40177D01*
G54D12*
X55000Y-40177D02*
X52973Y-40708D01*
G54D49*
X57051Y-37259D02*
X57047Y-37381D01*
X57047Y-37381D02*
X56633Y-37440D01*
X56633Y-37440D02*
X56196Y-38027D01*
X56196Y-38027D02*
X54626Y-39035D01*
G54D50*
X54350Y-41418D02*
X54211Y-41358D01*
X53996Y-41574D02*
X51968Y-41732D01*
X54211Y-41358D02*
X53996Y-41574D01*
G54D46*
X61121Y-41259D02*
X55984Y-41574D01*
X58944Y-40578D02*
X58944Y-39763D01*
X55984Y-41574D02*
X58944Y-40578D01*
G54D49*
X53543Y-33010D02*
X53543Y-32952D01*
X53543Y-32952D02*
X53267Y-32519D01*
G54D47*
X62401Y-36711D02*
X62932Y-36692D01*
X62932Y-36692D02*
X62933Y-36692D01*
X59251Y-31043D02*
X58572Y-31043D01*
X58572Y-31043D02*
X58533Y-31081D01*
X58533Y-31081D02*
X58533Y-30718D01*
G54D50*
X59232Y-29676D02*
X58912Y-29470D01*
G54D47*
X58533Y-30718D02*
X59232Y-30019D01*
X59232Y-30019D02*
X59232Y-29676D01*
G54D50*
X50866Y-41713D02*
X51711Y-41713D01*
X51711Y-41713D02*
X51968Y-41732D01*
G54D49*
X59842Y-32499D02*
X59212Y-32499D01*
X59842Y-32499D02*
X60217Y-32499D01*
X60217Y-32499D02*
X60393Y-32322D01*
X62894Y-35000D02*
X63031Y-34488D01*
X63031Y-34488D02*
X63070Y-34527D01*
X62913Y-35393D02*
X62913Y-35018D01*
X60625Y-35409D02*
X62913Y-35393D01*
X60279Y-35409D02*
X60625Y-35409D01*
X62913Y-35018D02*
X62894Y-35000D01*
G54D50*
X65856Y-40226D02*
X64911Y-40226D01*
X64822Y-40314D02*
X65078Y-41003D01*
X64911Y-40226D02*
X64822Y-40314D01*
X65856Y-34320D02*
X65403Y-34320D01*
X65354Y-34645D02*
X65354Y-35826D01*
X65403Y-34320D02*
X65354Y-34645D01*
G54D46*
X65226Y-28435D02*
X65226Y-30009D01*
X65226Y-30009D02*
X65275Y-30275D01*
X44557Y-28435D02*
X44557Y-28769D01*
X51446Y-29498D02*
X51446Y-28435D01*
X51614Y-29665D02*
X51446Y-29498D01*
X52677Y-29665D02*
X51614Y-29665D01*
X46240Y-29251D02*
X46889Y-29901D01*
X45039Y-29251D02*
X46240Y-29251D01*
X44557Y-28769D02*
X45039Y-29251D01*
G54D50*
X58912Y-29470D02*
X59151Y-29470D01*
X59151Y-29470D02*
X59734Y-28887D01*
G54D12*
X59251Y-31043D02*
X59311Y-31043D01*
X59901Y-31633D02*
X60039Y-31633D01*
X59311Y-31043D02*
X59901Y-31633D01*
G54D50*
X51377Y-38996D02*
X51456Y-39744D01*
X51456Y-39744D02*
X50196Y-40413D01*
G54D46*
X45106Y-34512D02*
X45270Y-34512D01*
X45270Y-34512D02*
X46082Y-33700D01*
X43523Y-37763D02*
X44515Y-37763D01*
X44960Y-39389D02*
X44901Y-39448D01*
X44960Y-38208D02*
X44960Y-39389D01*
X44515Y-37763D02*
X44960Y-38208D01*
X51515Y-39291D02*
X51555Y-39862D01*
G54D49*
X51377Y-38996D02*
X51515Y-39291D01*
G54D50*
X52179Y-40076D02*
X53031Y-40000D01*
X52151Y-40123D02*
X52179Y-40076D01*
X52151Y-40123D02*
X51555Y-39862D01*
X40551Y-30020D02*
X40551Y-30433D01*
G54D51*
X35675Y-30084D02*
X36023Y-31141D01*
X36023Y-31141D02*
X38425Y-31141D01*
X38425Y-31141D02*
X39133Y-31850D01*
X35675Y-30084D02*
X35629Y-30084D01*
G54D50*
X40551Y-30433D02*
X39133Y-31850D01*
G54D49*
X59931Y-31564D02*
X59950Y-31564D01*
G54D12*
X60020Y-31634D02*
X60866Y-31614D01*
G54D49*
X59950Y-31564D02*
X60020Y-31634D01*
X58429Y-33755D02*
X58425Y-33070D01*
X58425Y-33070D02*
X58031Y-32125D01*
X58031Y-32125D02*
X58031Y-31181D01*
X58031Y-31181D02*
X58150Y-31081D01*
G54D12*
X58150Y-31081D02*
X58533Y-31081D01*
G54D50*
X58912Y-29470D02*
X58818Y-29409D01*
X58818Y-29409D02*
X58336Y-29419D01*
G54D49*
X58336Y-29419D02*
X58336Y-28435D01*
X58287Y-37893D02*
X58503Y-37716D01*
X58543Y-37677D02*
X58287Y-37893D01*
X58622Y-37401D02*
X58543Y-37677D01*
X58326Y-38011D02*
X58483Y-38622D01*
X58503Y-37716D02*
X58326Y-38011D01*
X49822Y-38405D02*
X50019Y-38405D01*
G54D12*
X50019Y-38405D02*
X50610Y-38996D01*
G54D49*
X50610Y-38996D02*
X51377Y-38996D01*
X51377Y-38996D02*
X51377Y-38996D01*
X49822Y-38405D02*
X49036Y-38366D01*
X49036Y-38366D02*
X49035Y-38365D01*
X60279Y-36393D02*
X60393Y-36397D01*
X60393Y-36397D02*
X60472Y-36397D01*
X60472Y-36397D02*
X62303Y-36594D01*
X62283Y-36712D02*
X62401Y-36711D01*
X62251Y-36712D02*
X62283Y-36712D01*
X62324Y-36609D02*
X62251Y-36712D01*
X62307Y-36598D02*
X62324Y-36609D01*
X62303Y-36594D02*
X62307Y-36598D01*
X58622Y-37401D02*
X58622Y-37263D01*
X58622Y-37263D02*
X58625Y-37259D01*
X60279Y-35409D02*
X58625Y-35409D01*
X58625Y-35409D02*
X58527Y-35507D01*
X58625Y-37259D02*
X58625Y-35606D01*
X58625Y-35606D02*
X58527Y-35507D01*
X58429Y-33755D02*
X58429Y-35409D01*
X58429Y-35409D02*
X58527Y-35507D01*
G54D54*
X47637Y-32578D02*
X47055Y-32585D01*
X47055Y-32585D02*
X47047Y-32578D01*
X48228Y-32578D02*
X47996Y-32200D01*
X47996Y-32200D02*
X48228Y-31850D01*
X43523Y-34488D02*
X43523Y-34015D01*
X45106Y-34512D02*
X43547Y-34512D01*
X43547Y-34512D02*
X43523Y-34488D01*
G54D50*
X47491Y-36114D02*
X46889Y-36141D01*
G54D49*
X58622Y-37389D02*
X58622Y-37401D01*
G54D50*
X48228Y-32578D02*
X47824Y-32575D01*
X47824Y-32575D02*
X47637Y-32578D01*
X53031Y-40000D02*
X52224Y-40060D01*
G54D54*
X38927Y-59695D02*
X36859Y-59695D01*
X36859Y-59695D02*
X36564Y-59990D01*
G54D47*
X43021Y-50944D02*
X43021Y-50698D01*
X43021Y-50698D02*
X43474Y-50226D01*
G54D46*
X42962Y-47116D02*
X42746Y-47116D01*
X42746Y-47116D02*
X42076Y-47785D01*
X38996Y-49448D02*
X38996Y-50696D01*
X39167Y-50100D02*
X39517Y-49950D01*
X39001Y-50690D02*
X39167Y-50100D01*
X38996Y-50696D02*
X39001Y-50690D01*
G54D47*
X41525Y-51200D02*
X41112Y-51200D01*
X41112Y-51200D02*
X40501Y-51328D01*
X40501Y-51328D02*
X40092Y-51679D01*
G54D46*
X42657Y-54281D02*
X41830Y-54271D01*
X41830Y-54271D02*
X41889Y-54281D01*
X43464Y-54360D02*
X42717Y-54341D01*
X42717Y-54341D02*
X42657Y-54281D01*
G54D54*
X52706Y-59695D02*
X50639Y-59695D01*
X50639Y-59695D02*
X50344Y-59990D01*
G54D47*
X56801Y-50944D02*
X56801Y-50698D01*
X56801Y-50698D02*
X57253Y-50226D01*
G54D46*
X56742Y-47116D02*
X56525Y-47116D01*
X56525Y-47116D02*
X55856Y-47785D01*
X52775Y-49448D02*
X52775Y-50696D01*
X52946Y-50100D02*
X53297Y-49950D01*
X52781Y-50690D02*
X52946Y-50100D01*
X52775Y-50696D02*
X52781Y-50690D01*
G54D47*
X55305Y-51200D02*
X54891Y-51200D01*
X54891Y-51200D02*
X54281Y-51328D01*
X54281Y-51328D02*
X53872Y-51679D01*
G54D46*
X56437Y-54281D02*
X55610Y-54271D01*
X55610Y-54271D02*
X55669Y-54281D01*
X57244Y-54360D02*
X56496Y-54341D01*
X56496Y-54341D02*
X56437Y-54281D01*
G54D54*
X65305Y-59695D02*
X63237Y-59695D01*
X63237Y-59695D02*
X62942Y-59990D01*
G54D47*
X69399Y-50944D02*
X69399Y-50698D01*
X69399Y-50698D02*
X69852Y-50226D01*
G54D46*
X69340Y-47116D02*
X69124Y-47116D01*
X69124Y-47116D02*
X68454Y-47785D01*
X65374Y-49448D02*
X65374Y-50696D01*
X65545Y-50100D02*
X65895Y-49950D01*
X65379Y-50690D02*
X65545Y-50100D01*
X65374Y-50696D02*
X65379Y-50690D01*
G54D47*
X67903Y-51200D02*
X67490Y-51200D01*
X67490Y-51200D02*
X66879Y-51328D01*
X66879Y-51328D02*
X66470Y-51679D01*
G54D46*
X69035Y-54281D02*
X68208Y-54271D01*
X68208Y-54271D02*
X68267Y-54281D01*
X69842Y-54360D02*
X69095Y-54341D01*
X69095Y-54341D02*
X69035Y-54281D01*
G54D49*
X44924Y-33295D02*
X43527Y-33295D01*
X43527Y-33295D02*
X43523Y-33291D01*
G54D47*
X41889Y-50580D02*
X41879Y-50344D01*
X41387Y-50147D02*
X40994Y-50246D01*
X41879Y-50344D02*
X41387Y-50147D01*
X55669Y-50580D02*
X55659Y-50344D01*
X55167Y-50147D02*
X54774Y-50246D01*
X55659Y-50344D02*
X55167Y-50147D01*
X68267Y-50580D02*
X68257Y-50344D01*
X67765Y-50147D02*
X67372Y-50246D01*
X68257Y-50344D02*
X67765Y-50147D01*
G54D46*
X41297Y-54557D02*
X41297Y-55185D01*
X41297Y-55185D02*
X41569Y-55457D01*
X41569Y-55457D02*
X42372Y-56053D01*
G54D47*
X42145Y-52076D02*
X42135Y-52391D01*
X42135Y-52391D02*
X41289Y-53139D01*
X41289Y-53139D02*
X41297Y-54557D01*
G54D46*
X41297Y-54557D02*
X41297Y-54587D01*
X55077Y-54557D02*
X55077Y-55185D01*
X55077Y-55185D02*
X55349Y-55457D01*
X55349Y-55457D02*
X56151Y-56053D01*
G54D47*
X55925Y-52076D02*
X55915Y-52391D01*
X55915Y-52391D02*
X55068Y-53139D01*
X55068Y-53139D02*
X55077Y-54557D01*
G54D46*
X55077Y-54557D02*
X55077Y-54587D01*
X67675Y-54557D02*
X67675Y-55185D01*
X67675Y-55185D02*
X67947Y-55457D01*
X67947Y-55457D02*
X68750Y-56053D01*
G54D47*
X68523Y-52076D02*
X68513Y-52391D01*
X68513Y-52391D02*
X67667Y-53139D01*
X67667Y-53139D02*
X67675Y-54557D01*
G54D46*
X67675Y-54557D02*
X67675Y-54587D01*
G54D47*
X45068Y-53957D02*
X45068Y-55029D01*
X43129Y-51712D02*
X45068Y-53957D01*
X43021Y-51712D02*
X43129Y-51712D01*
X43572Y-55777D02*
X43356Y-56053D01*
X45068Y-55029D02*
X43572Y-55777D01*
G54D46*
X43021Y-51712D02*
X43051Y-51712D01*
G54D47*
X58848Y-53957D02*
X58848Y-55029D01*
X56909Y-51712D02*
X58848Y-53957D01*
X56801Y-51712D02*
X56909Y-51712D01*
X57352Y-55777D02*
X57135Y-56053D01*
X58848Y-55029D02*
X57352Y-55777D01*
G54D46*
X56801Y-51712D02*
X56830Y-51712D01*
G54D47*
X71446Y-53957D02*
X71446Y-55029D01*
X69507Y-51712D02*
X71446Y-53957D01*
X69399Y-51712D02*
X69507Y-51712D01*
X69950Y-55777D02*
X69734Y-56053D01*
X71446Y-55029D02*
X69950Y-55777D01*
G54D46*
X69399Y-51712D02*
X69429Y-51712D01*
X37996Y-49448D02*
X37968Y-51437D01*
X39465Y-55089D02*
X38092Y-54938D01*
X39465Y-55089D02*
X39465Y-55088D01*
X37968Y-51437D02*
X37954Y-51450D01*
X51775Y-49448D02*
X51748Y-51437D01*
X53245Y-55089D02*
X51872Y-54938D01*
X53245Y-55089D02*
X53245Y-55088D01*
X51748Y-51437D02*
X51734Y-51450D01*
X64374Y-49448D02*
X64346Y-51437D01*
X65843Y-55089D02*
X64470Y-54938D01*
X65843Y-55089D02*
X65843Y-55088D01*
X64346Y-51437D02*
X64332Y-51450D01*
X37490Y-52781D02*
X36931Y-52238D01*
X36996Y-49448D02*
X36996Y-51472D01*
X37490Y-52781D02*
X38796Y-52663D01*
X36931Y-52238D02*
X36996Y-51472D01*
X51269Y-52781D02*
X50710Y-52238D01*
X50775Y-49448D02*
X50775Y-51472D01*
X51269Y-52781D02*
X52576Y-52663D01*
X50710Y-52238D02*
X50775Y-51472D01*
X63868Y-52781D02*
X63309Y-52238D01*
X63374Y-49448D02*
X63374Y-51472D01*
X63868Y-52781D02*
X65174Y-52663D01*
X63309Y-52238D02*
X63374Y-51472D01*
X40402Y-50246D02*
X40009Y-50442D01*
X37490Y-50852D02*
X37496Y-49448D01*
X37868Y-52250D02*
X37486Y-51942D01*
X37486Y-51942D02*
X37490Y-50852D01*
X39438Y-50848D02*
X39076Y-51915D01*
X39076Y-51915D02*
X37868Y-52250D01*
X40009Y-50442D02*
X39438Y-50848D01*
X54182Y-50246D02*
X53789Y-50442D01*
X51269Y-50852D02*
X51275Y-49448D01*
X51647Y-52250D02*
X51265Y-51942D01*
X51265Y-51942D02*
X51269Y-50852D01*
X53218Y-50848D02*
X52856Y-51915D01*
X52856Y-51915D02*
X51647Y-52250D01*
X53789Y-50442D02*
X53218Y-50848D01*
X66780Y-50246D02*
X66387Y-50442D01*
X63868Y-50852D02*
X63874Y-49448D01*
X64246Y-52250D02*
X63864Y-51942D01*
X63864Y-51942D02*
X63868Y-50852D01*
X65816Y-50848D02*
X65454Y-51915D01*
X65454Y-51915D02*
X64246Y-52250D01*
X66387Y-50442D02*
X65816Y-50848D01*
G54D49*
X50790Y-34913D02*
X50964Y-34921D01*
G54D46*
X52992Y-37145D02*
X53286Y-37539D01*
G54D49*
X52094Y-34614D02*
X52460Y-34468D01*
X50964Y-34921D02*
X52094Y-34614D01*
G54D47*
X42657Y-50580D02*
X42657Y-50177D01*
X43100Y-49734D02*
X43267Y-49400D01*
X42657Y-50177D02*
X43100Y-49734D01*
X56437Y-50580D02*
X56437Y-50177D01*
X56879Y-49734D02*
X57047Y-49400D01*
X56437Y-50177D02*
X56879Y-49734D01*
X69035Y-50580D02*
X69035Y-50177D01*
X69478Y-49734D02*
X69645Y-49400D01*
X69035Y-50177D02*
X69478Y-49734D01*
G54D49*
X58625Y-33755D02*
X58625Y-32641D01*
X58533Y-32549D02*
X58533Y-31673D01*
X58625Y-32641D02*
X58533Y-32549D01*
G54D12*
X58533Y-31673D02*
X59270Y-31654D01*
G54D49*
X59270Y-31654D02*
X59360Y-31564D01*
G54D47*
X43021Y-51200D02*
X43503Y-51200D01*
X43652Y-51052D02*
X44153Y-51052D01*
X43503Y-51200D02*
X43652Y-51052D01*
X56801Y-51200D02*
X57283Y-51200D01*
X57431Y-51052D02*
X57933Y-51052D01*
X57283Y-51200D02*
X57431Y-51052D01*
X69399Y-51200D02*
X69881Y-51200D01*
X70030Y-51052D02*
X70531Y-51052D01*
X69881Y-51200D02*
X70030Y-51052D01*
X43021Y-51456D02*
X43375Y-51456D01*
X43563Y-51644D02*
X44153Y-51644D01*
X43375Y-51456D02*
X43563Y-51644D01*
X56801Y-51456D02*
X57155Y-51456D01*
X57343Y-51644D02*
X57933Y-51644D01*
X57155Y-51456D02*
X57343Y-51644D01*
X69399Y-51456D02*
X69753Y-51456D01*
X69941Y-51644D02*
X70531Y-51644D01*
X69753Y-51456D02*
X69941Y-51644D01*
G54D49*
X49822Y-38996D02*
X49036Y-38956D01*
X49036Y-38956D02*
X49035Y-38957D01*
X50101Y-35995D02*
X50098Y-37401D01*
G54D12*
X48562Y-38425D02*
X48562Y-38956D01*
X48562Y-38956D02*
X49074Y-38956D01*
X48720Y-37933D02*
X48582Y-38120D01*
X48582Y-38120D02*
X48562Y-38425D01*
G54D49*
X50098Y-37401D02*
X48720Y-37933D01*
X50610Y-38405D02*
X50590Y-36614D01*
X50295Y-36161D02*
X50298Y-35995D01*
X50590Y-36614D02*
X50295Y-36161D01*
X50610Y-38405D02*
X51377Y-38405D01*
X51377Y-38405D02*
X51377Y-38404D01*
G54D47*
X42145Y-50580D02*
X42145Y-49901D01*
X42165Y-49763D02*
X42125Y-49410D01*
X42145Y-49901D02*
X42165Y-49763D01*
X55925Y-50580D02*
X55925Y-49901D01*
X55944Y-49763D02*
X55905Y-49410D01*
X55925Y-49901D02*
X55944Y-49763D01*
X68523Y-50580D02*
X68523Y-49901D01*
X68543Y-49763D02*
X68503Y-49410D01*
X68523Y-49901D02*
X68543Y-49763D01*
X63306Y-37185D02*
X62420Y-37322D01*
X62420Y-37322D02*
X62401Y-37303D01*
G54D49*
X60279Y-36590D02*
X60492Y-36574D01*
X60492Y-36574D02*
X62401Y-37318D01*
X62401Y-37318D02*
X62401Y-37303D01*
G54D47*
X62944Y-41464D02*
X62527Y-41464D01*
X62322Y-41259D02*
X61713Y-41259D01*
X62527Y-41464D02*
X62322Y-41259D01*
G54D12*
X52381Y-40708D02*
X51515Y-40492D01*
X48897Y-33602D02*
X49232Y-34169D01*
G54D49*
X49232Y-34169D02*
X49511Y-34421D01*
X50790Y-35503D02*
X50984Y-35511D01*
X50984Y-35511D02*
X51751Y-35649D01*
X51751Y-35649D02*
X52078Y-35712D01*
X52078Y-35712D02*
X52716Y-35933D01*
X52716Y-35933D02*
X52956Y-35677D01*
X52956Y-35677D02*
X53019Y-36019D01*
X53019Y-36019D02*
X53220Y-35732D01*
X53220Y-35732D02*
X53275Y-36051D01*
X53275Y-36051D02*
X53500Y-35795D01*
X53500Y-35795D02*
X53531Y-36086D01*
X53531Y-36086D02*
X53732Y-35818D01*
X53732Y-35818D02*
X53779Y-36240D01*
X53779Y-36240D02*
X54152Y-36515D01*
X53681Y-35433D02*
X54211Y-35826D01*
X50790Y-35700D02*
X51413Y-35881D01*
X51413Y-35881D02*
X53582Y-36614D01*
X49216Y-35700D02*
X48885Y-35834D01*
X48885Y-35834D02*
X48562Y-35988D01*
G54D46*
X48562Y-35988D02*
X48083Y-36114D01*
G54D12*
X53936Y-39763D02*
X53346Y-38917D01*
X53346Y-38917D02*
X52519Y-38681D01*
X48956Y-32814D02*
X49704Y-34192D01*
G54D49*
X49704Y-34192D02*
X49708Y-34421D01*
G54D47*
X41525Y-51456D02*
X41171Y-51466D01*
X41171Y-51466D02*
X39612Y-53895D01*
X39612Y-53895D02*
X39534Y-53816D01*
X55305Y-51456D02*
X54950Y-51466D01*
X54950Y-51466D02*
X53392Y-53895D01*
X53392Y-53895D02*
X53313Y-53816D01*
X67903Y-51456D02*
X67549Y-51466D01*
X67549Y-51466D02*
X65990Y-53895D01*
X65990Y-53895D02*
X65912Y-53816D01*
G54D54*
X45531Y-40161D02*
X44740Y-40161D01*
G54D46*
X45531Y-40161D02*
X45826Y-40137D01*
G54D49*
X49905Y-35995D02*
X49901Y-36712D01*
G54D12*
X48070Y-38051D02*
X45826Y-40137D01*
G54D49*
X49901Y-36712D02*
X48543Y-37598D01*
X48543Y-37598D02*
X48070Y-38051D01*
X44740Y-40161D02*
X44693Y-40208D01*
G54D46*
X45039Y-32598D02*
X45039Y-32716D01*
G54D49*
X45738Y-39361D02*
X45728Y-39350D01*
X49704Y-36437D02*
X47716Y-37688D01*
G54D12*
X47716Y-37688D02*
X46316Y-38895D01*
G54D46*
X46316Y-38895D02*
X46095Y-39215D01*
G54D49*
X49708Y-35995D02*
X49704Y-36437D01*
X46095Y-39215D02*
X45738Y-39361D01*
G54D46*
X45118Y-32874D02*
X45516Y-33295D01*
X45039Y-32716D02*
X45118Y-32874D01*
G54D49*
X45516Y-33295D02*
X45516Y-33810D01*
X45406Y-33920D02*
X45106Y-33920D01*
X45516Y-33810D02*
X45406Y-33920D01*
G54D54*
X53031Y-39408D02*
X52279Y-39444D01*
X52279Y-39444D02*
X52224Y-39389D01*
G54D12*
X50665Y-36229D02*
X51751Y-37637D01*
X51751Y-37637D02*
X52224Y-39310D01*
X50495Y-35995D02*
X50665Y-36229D01*
X54034Y-39035D02*
X53582Y-38562D01*
X53582Y-38562D02*
X52992Y-38346D01*
X49881Y-32598D02*
X49803Y-33051D01*
X49803Y-33051D02*
X49901Y-33917D01*
G54D49*
X49901Y-33917D02*
X49901Y-33916D01*
X49905Y-34421D02*
X49901Y-33916D01*
X49901Y-33916D02*
X49901Y-33895D01*
X60866Y-31022D02*
X60973Y-31052D01*
X58822Y-32909D02*
X58822Y-33755D01*
X58818Y-32165D02*
X58822Y-32909D01*
X60747Y-32028D02*
X59055Y-32047D01*
X59055Y-32047D02*
X58818Y-32165D01*
X61240Y-31988D02*
X60747Y-32028D01*
X61377Y-31122D02*
X61240Y-31988D01*
X60973Y-31052D02*
X60925Y-31082D01*
X60925Y-31082D02*
X61377Y-31122D01*
X59931Y-31112D02*
X60029Y-31112D01*
G54D12*
X60099Y-31042D02*
X60866Y-31022D01*
G54D49*
X60029Y-31112D02*
X60099Y-31042D01*
X59807Y-37259D02*
X59803Y-37460D01*
X60940Y-38795D02*
X60940Y-39763D01*
X59803Y-37460D02*
X60940Y-38795D01*
X60003Y-37259D02*
X60019Y-37322D01*
G54D46*
X59944Y-40259D02*
X59944Y-39763D01*
X60098Y-40413D02*
X59944Y-40259D01*
X62421Y-40413D02*
X60098Y-40413D01*
X62598Y-40236D02*
X62421Y-40413D01*
X62598Y-39370D02*
X62598Y-40236D01*
G54D49*
X62381Y-39153D02*
X62598Y-39370D01*
X61456Y-39153D02*
X62381Y-39153D01*
X61220Y-38917D02*
X61456Y-39153D01*
X61220Y-38602D02*
X61220Y-38917D01*
X60019Y-37322D02*
X61220Y-38602D01*
G54D47*
X41525Y-50944D02*
X41309Y-50944D01*
X40936Y-50884D02*
X40088Y-50875D01*
X40088Y-50875D02*
X39761Y-51198D01*
X39761Y-51198D02*
X39388Y-52663D01*
X41309Y-50944D02*
X40936Y-50884D01*
X55305Y-50944D02*
X55088Y-50944D01*
X54715Y-50884D02*
X53868Y-50875D01*
X53868Y-50875D02*
X53541Y-51198D01*
X53541Y-51198D02*
X53168Y-52663D01*
X55088Y-50944D02*
X54715Y-50884D01*
X67903Y-50944D02*
X67687Y-50944D01*
X67314Y-50884D02*
X66466Y-50875D01*
X66466Y-50875D02*
X66139Y-51198D01*
X66139Y-51198D02*
X65766Y-52663D01*
X67687Y-50944D02*
X67314Y-50884D01*
X41525Y-51712D02*
X40935Y-52785D01*
X40935Y-52785D02*
X40057Y-55088D01*
X55305Y-51712D02*
X54714Y-52785D01*
X54714Y-52785D02*
X53837Y-55088D01*
X67903Y-51712D02*
X67312Y-52785D01*
X67312Y-52785D02*
X66435Y-55088D01*
G54D49*
X60279Y-35803D02*
X60452Y-35803D01*
X60452Y-35803D02*
X62145Y-35846D01*
X62145Y-35846D02*
X63582Y-35826D01*
G54D12*
X64409Y-32244D02*
X65787Y-32320D01*
X63818Y-32519D02*
X64409Y-32244D01*
X63779Y-35629D02*
X63818Y-32519D01*
G54D49*
X63582Y-35826D02*
X63779Y-35629D01*
X60279Y-35606D02*
X60472Y-35606D01*
X60472Y-35606D02*
X62066Y-35610D01*
X62066Y-35610D02*
X63488Y-35606D01*
G54D12*
X64726Y-30706D02*
X64726Y-28700D01*
X63543Y-31732D02*
X64726Y-30706D01*
X63543Y-35393D02*
X63543Y-31732D01*
G54D49*
X63488Y-35606D02*
X63543Y-35393D01*
X60279Y-35007D02*
X61102Y-35011D01*
G54D12*
X57836Y-30037D02*
X57836Y-28503D01*
G54D49*
X57834Y-30039D02*
X57836Y-30037D01*
X63228Y-32480D02*
X63188Y-32559D01*
G54D12*
X62874Y-33464D02*
X63228Y-32480D01*
G54D49*
X61102Y-35011D02*
X62874Y-33464D01*
X60279Y-34818D02*
X60925Y-34822D01*
G54D12*
X50946Y-29765D02*
X50946Y-28503D01*
X51338Y-30157D02*
X50946Y-29765D01*
X54724Y-30157D02*
X51338Y-30157D01*
G54D49*
X54921Y-30354D02*
X54724Y-30157D01*
G54D12*
X62440Y-33464D02*
X62716Y-32716D01*
G54D49*
X60925Y-34822D02*
X62440Y-33464D01*
X60279Y-34622D02*
X60728Y-34625D01*
G54D12*
X44057Y-29726D02*
X44057Y-28503D01*
X44330Y-30000D02*
X44057Y-29726D01*
X45000Y-30000D02*
X44330Y-30000D01*
G54D49*
X45078Y-30078D02*
X45000Y-30000D01*
G54D12*
X62204Y-33228D02*
X62204Y-32874D01*
G54D49*
X60728Y-34625D02*
X62204Y-33228D01*
X59409Y-37421D02*
X59409Y-37421D01*
X59409Y-37421D02*
X60000Y-38129D01*
G54D47*
X61476Y-38267D02*
X63287Y-38464D01*
G54D49*
X60000Y-38129D02*
X60019Y-38425D01*
X60019Y-38425D02*
X60098Y-38425D01*
X59413Y-37259D02*
X59409Y-37421D01*
G54D47*
X63287Y-38464D02*
X64120Y-38726D01*
X64120Y-38726D02*
X65787Y-38726D01*
G54D49*
X59413Y-37259D02*
X59413Y-37259D01*
X59212Y-37440D02*
X59212Y-37440D01*
X59216Y-37259D02*
X59212Y-37440D01*
G54D47*
X62066Y-38759D02*
X62322Y-38740D01*
X61692Y-38779D02*
X62066Y-38759D01*
G54D49*
X59724Y-38169D02*
X59783Y-38877D01*
X59212Y-37440D02*
X59724Y-38169D01*
G54D47*
X63990Y-39226D02*
X65787Y-39226D01*
X63385Y-38917D02*
X63990Y-39226D01*
G54D12*
X62322Y-38759D02*
X62322Y-38740D01*
G54D47*
X62322Y-38740D02*
X63385Y-38917D01*
G54D49*
X59015Y-37421D02*
X59287Y-38134D01*
X59019Y-37259D02*
X59015Y-37421D01*
G54D46*
X63269Y-40037D02*
X63269Y-39726D01*
X62559Y-40708D02*
X63269Y-40037D01*
G54D47*
X59803Y-40708D02*
X62559Y-40708D01*
G54D46*
X59448Y-40511D02*
X59803Y-40708D01*
G54D49*
X59448Y-38287D02*
X59448Y-40511D01*
X59287Y-38134D02*
X59448Y-38287D01*
G54D46*
X63269Y-39726D02*
X65787Y-39726D01*
G54D49*
X60279Y-36984D02*
X60433Y-36988D01*
G54D47*
X64564Y-38226D02*
X65787Y-38226D01*
G54D12*
X64232Y-38228D02*
X64564Y-38226D01*
X61968Y-37992D02*
X64232Y-38228D01*
G54D49*
X60433Y-36988D02*
X61968Y-37992D01*
X64566Y-36850D02*
X64409Y-37519D01*
X60472Y-36791D02*
X62145Y-37716D01*
X60279Y-36787D02*
X60472Y-36791D01*
X64761Y-33820D02*
X64566Y-33937D01*
X64566Y-33937D02*
X64566Y-36850D01*
X64761Y-33820D02*
X65787Y-33820D01*
X64094Y-37716D02*
X62145Y-37716D01*
X64409Y-37519D02*
X64094Y-37716D01*
X64331Y-35977D02*
X64331Y-33542D01*
G54D12*
X64055Y-36299D02*
X64331Y-35977D01*
G54D49*
X62440Y-36318D02*
X64055Y-36299D01*
X60551Y-36200D02*
X62440Y-36318D01*
X60279Y-36196D02*
X60551Y-36200D01*
X64671Y-33320D02*
X65787Y-33320D01*
X64331Y-33542D02*
X64671Y-33320D01*
X64087Y-35737D02*
X64087Y-33156D01*
X64541Y-32820D02*
X65787Y-32820D01*
X64087Y-33156D02*
X64541Y-32820D01*
X60279Y-36000D02*
X60492Y-36000D01*
X60492Y-36000D02*
X62204Y-36082D01*
X62204Y-36082D02*
X63858Y-36062D01*
X63858Y-36062D02*
X64087Y-35737D01*
X64087Y-35737D02*
X64094Y-35708D01*
X57838Y-33755D02*
X57834Y-33307D01*
G54D12*
X56889Y-32440D02*
X56836Y-28435D01*
G54D49*
X57834Y-33307D02*
X56889Y-32440D01*
X57641Y-33755D02*
X57637Y-33425D01*
G54D12*
X56456Y-32755D02*
X56336Y-28435D01*
G54D49*
X57637Y-33425D02*
X56456Y-32755D01*
G54D48*
X56775Y-34228D02*
X56531Y-34228D01*
G54D12*
X50446Y-30072D02*
X50446Y-28435D01*
X50846Y-30590D02*
X50446Y-30072D01*
G54D49*
X53543Y-30590D02*
X50846Y-30590D01*
X56200Y-33267D02*
X56122Y-32677D01*
X56122Y-32677D02*
X56062Y-30787D01*
X56062Y-30787D02*
X53543Y-30590D01*
X56456Y-34114D02*
X56338Y-33641D01*
X56338Y-33641D02*
X56200Y-33267D01*
G54D48*
X56531Y-34228D02*
X56456Y-34114D01*
G54D12*
X49946Y-28435D02*
X49946Y-30104D01*
G54D48*
X56220Y-34133D02*
X56397Y-34409D01*
X56397Y-34409D02*
X56555Y-34427D01*
X56555Y-34427D02*
X56775Y-34425D01*
G54D49*
X55925Y-33425D02*
X56220Y-34133D01*
X55787Y-32933D02*
X55925Y-33425D01*
X53267Y-30866D02*
X55669Y-31043D01*
X55669Y-31043D02*
X55787Y-32933D01*
G54D12*
X50748Y-30905D02*
X53267Y-30866D01*
X49946Y-30104D02*
X50748Y-30905D01*
G54D48*
X56775Y-34622D02*
X56555Y-34623D01*
X56555Y-34623D02*
X56299Y-34645D01*
G54D12*
X49446Y-30116D02*
X49446Y-28435D01*
G54D49*
X50511Y-31200D02*
X49446Y-30116D01*
G54D12*
X53169Y-31200D02*
X50511Y-31200D01*
G54D49*
X55492Y-33031D02*
X55334Y-31279D01*
X55334Y-31279D02*
X53169Y-31200D01*
X55610Y-33503D02*
X55492Y-33031D01*
G54D48*
X56299Y-34645D02*
X55610Y-33503D01*
G54D12*
X43557Y-28435D02*
X43557Y-29620D01*
G54D48*
X56220Y-34842D02*
X56574Y-34820D01*
X56574Y-34820D02*
X56775Y-34818D01*
X55157Y-33385D02*
X56220Y-34842D01*
G54D49*
X55059Y-31712D02*
X55157Y-33385D01*
X53011Y-31456D02*
X55019Y-31614D01*
X55019Y-31614D02*
X55059Y-31712D01*
G54D12*
X50354Y-31515D02*
X53011Y-31456D01*
G54D49*
X48307Y-30531D02*
X50354Y-31515D01*
G54D12*
X44173Y-30531D02*
X48307Y-30531D01*
X43557Y-29620D02*
X44173Y-30531D01*
G54D48*
X56775Y-35015D02*
X56555Y-35015D01*
X56555Y-35015D02*
X56122Y-35039D01*
G54D12*
X43057Y-30005D02*
X43057Y-28435D01*
X43681Y-30885D02*
X43057Y-30005D01*
X48248Y-30885D02*
X43681Y-30885D01*
G54D49*
X50433Y-31929D02*
X48248Y-30885D01*
G54D12*
X52893Y-31771D02*
X50433Y-31929D01*
G54D49*
X54586Y-32027D02*
X54448Y-31889D01*
X54448Y-31889D02*
X52893Y-31771D01*
X54586Y-32047D02*
X54586Y-32027D01*
G54D48*
X56122Y-35039D02*
X54704Y-33425D01*
G54D49*
X54704Y-33425D02*
X54586Y-32047D01*
G54D12*
X50354Y-32322D02*
X52952Y-32106D01*
X42557Y-30076D02*
X43346Y-31259D01*
X43346Y-31259D02*
X48248Y-31259D01*
X48248Y-31259D02*
X50354Y-32322D01*
X42557Y-28435D02*
X42557Y-30076D01*
G54D48*
X56043Y-35236D02*
X56555Y-35212D01*
X56555Y-35212D02*
X56775Y-35212D01*
G54D49*
X52952Y-32106D02*
X54153Y-32219D01*
X54153Y-32219D02*
X54153Y-32480D01*
X54153Y-32480D02*
X54251Y-33582D01*
G54D48*
X54251Y-33582D02*
X56043Y-35236D01*
G54D46*
X63226Y-30356D02*
X63226Y-28435D01*
G54D49*
X63169Y-30413D02*
X63226Y-30356D01*
X58232Y-33755D02*
X58228Y-33149D01*
G54D12*
X57677Y-32204D02*
X57677Y-30944D01*
X57677Y-30944D02*
X58051Y-30728D01*
X58051Y-30728D02*
X58425Y-30059D01*
G54D49*
X58425Y-30059D02*
X58425Y-30059D01*
X58228Y-33149D02*
X57677Y-32204D01*
X58035Y-33755D02*
X58031Y-33228D01*
G54D12*
X57322Y-32322D02*
X57336Y-28435D01*
G54D49*
X58031Y-33228D02*
X57322Y-32322D01*
X60003Y-33755D02*
X60003Y-33736D01*
G54D12*
X63726Y-30486D02*
X63726Y-28700D01*
X63307Y-30905D02*
X63726Y-30486D01*
G54D49*
X63267Y-31141D02*
X63307Y-30905D01*
G54D12*
X62883Y-31844D02*
X63267Y-31141D01*
X62086Y-31929D02*
X62883Y-31844D01*
X61456Y-32559D02*
X62086Y-31929D01*
G54D49*
X60984Y-32755D02*
X61456Y-32559D01*
X60003Y-33736D02*
X60984Y-32755D01*
X60279Y-34031D02*
X60452Y-34035D01*
G54D12*
X64226Y-30537D02*
X64226Y-28700D01*
X63700Y-31062D02*
X64226Y-30537D01*
X63431Y-31500D02*
X63700Y-31062D01*
X63129Y-32096D02*
X63431Y-31500D01*
X62165Y-32322D02*
X63129Y-32096D01*
X61614Y-32874D02*
X62165Y-32322D01*
G54D49*
X61220Y-32952D02*
X61614Y-32874D01*
X60452Y-34035D02*
X61220Y-32952D01*
X44960Y-35283D02*
X46326Y-35146D01*
X43523Y-35291D02*
X44960Y-35283D01*
X46326Y-35146D02*
X46326Y-35146D01*
X46452Y-35165D02*
X46400Y-35169D01*
X48346Y-35314D02*
X46452Y-35165D01*
X49216Y-35306D02*
X48346Y-35314D01*
X47165Y-35633D02*
X46570Y-35657D01*
X48881Y-35507D02*
X47165Y-35633D01*
X49216Y-35503D02*
X48881Y-35507D01*
X46570Y-35657D02*
X46291Y-35664D01*
X43523Y-35692D02*
X46263Y-35692D01*
X46263Y-35692D02*
X46291Y-35664D01*
X45385Y-37134D02*
X45212Y-37137D01*
X44637Y-36889D02*
X43523Y-36889D01*
X45212Y-37137D02*
X44637Y-36889D01*
X49216Y-34913D02*
X48874Y-34913D01*
X47783Y-34196D02*
X48874Y-34913D01*
G54D12*
X46042Y-37142D02*
X45385Y-37134D01*
G54D49*
X46074Y-37110D02*
X46042Y-37142D01*
X45405Y-37822D02*
X45302Y-37822D01*
X44559Y-37291D02*
X43523Y-37291D01*
X45302Y-37822D02*
X44559Y-37291D01*
X48677Y-35118D02*
X47984Y-34826D01*
X49216Y-35110D02*
X48677Y-35118D01*
G54D12*
X46063Y-37822D02*
X45405Y-37822D01*
G54D49*
X46114Y-37771D02*
X46063Y-37822D01*
X53543Y-33760D02*
X53544Y-33760D01*
G54D48*
X56003Y-35492D02*
X54665Y-34448D01*
X56003Y-35492D02*
X56555Y-35409D01*
X56555Y-35409D02*
X56775Y-35409D01*
G54D49*
X53996Y-34015D02*
X54665Y-34448D01*
X53544Y-33760D02*
X53996Y-34015D01*
G54D46*
X38942Y-53816D02*
X37344Y-53671D01*
X36496Y-52822D02*
X36496Y-49448D01*
X37344Y-53671D02*
X36496Y-52822D01*
X36496Y-49448D02*
X36496Y-50118D01*
X35868Y-49994D02*
X35403Y-50084D01*
X36496Y-50118D02*
X35868Y-49994D01*
X42125Y-48818D02*
X41941Y-48830D01*
X41941Y-48830D02*
X41564Y-48809D01*
X52721Y-53816D02*
X51124Y-53671D01*
X50275Y-52822D02*
X50275Y-49448D01*
X51124Y-53671D02*
X50275Y-52822D01*
X50275Y-49448D02*
X50275Y-50118D01*
X49647Y-49994D02*
X49183Y-50084D01*
X50275Y-50118D02*
X49647Y-49994D01*
X55905Y-48818D02*
X55721Y-48830D01*
X55721Y-48830D02*
X55344Y-48809D01*
X65320Y-53816D02*
X63722Y-53671D01*
X62874Y-52822D02*
X62874Y-49448D01*
X63722Y-53671D02*
X62874Y-52822D01*
X62874Y-49448D02*
X62874Y-50118D01*
X62246Y-49994D02*
X61781Y-50084D01*
X62874Y-50118D02*
X62246Y-49994D01*
X68503Y-48818D02*
X68319Y-48830D01*
X68319Y-48830D02*
X67942Y-48809D01*
G54D54*
X38927Y-57135D02*
X38927Y-56053D01*
G54D46*
X43946Y-47116D02*
X43946Y-48080D01*
G54D49*
X43435Y-48808D02*
X43267Y-48808D01*
G54D46*
X43946Y-48080D02*
X43435Y-48808D01*
X43611Y-48759D02*
X43267Y-48808D01*
X43907Y-49055D02*
X43611Y-48759D01*
X43907Y-49812D02*
X43907Y-49055D01*
X44960Y-50866D02*
X43907Y-49812D01*
X44960Y-52500D02*
X44960Y-50866D01*
X44015Y-53768D02*
X43464Y-53768D01*
X44488Y-54242D02*
X44015Y-53768D01*
G54D47*
X42657Y-52076D02*
X42982Y-52273D01*
X42982Y-52273D02*
X43464Y-53257D01*
X43464Y-53257D02*
X43464Y-53768D01*
G54D54*
X52706Y-57135D02*
X52706Y-56053D01*
G54D46*
X57726Y-47116D02*
X57726Y-48080D01*
G54D49*
X57215Y-48808D02*
X57047Y-48808D01*
G54D46*
X57726Y-48080D02*
X57215Y-48808D01*
X57391Y-48759D02*
X57047Y-48808D01*
X57687Y-49055D02*
X57391Y-48759D01*
X57687Y-49812D02*
X57687Y-49055D01*
X58740Y-50866D02*
X57687Y-49812D01*
X58740Y-52500D02*
X58740Y-50866D01*
X57794Y-53768D02*
X57244Y-53768D01*
X58267Y-54242D02*
X57794Y-53768D01*
G54D47*
X56437Y-52076D02*
X56761Y-52273D01*
X56761Y-52273D02*
X57244Y-53257D01*
X57244Y-53257D02*
X57244Y-53768D01*
G54D54*
X65305Y-57135D02*
X65305Y-56053D01*
G54D46*
X70324Y-47116D02*
X70324Y-48080D01*
G54D49*
X69813Y-48808D02*
X69645Y-48808D01*
G54D46*
X70324Y-48080D02*
X69813Y-48808D01*
X69989Y-48759D02*
X69645Y-48808D01*
X70285Y-49055D02*
X69989Y-48759D01*
X70285Y-49812D02*
X70285Y-49055D01*
X71338Y-50866D02*
X70285Y-49812D01*
X71338Y-52500D02*
X71338Y-50866D01*
X70392Y-53768D02*
X69842Y-53768D01*
X70866Y-54242D02*
X70392Y-53768D01*
G54D47*
X69035Y-52076D02*
X69360Y-52273D01*
X69360Y-52273D02*
X69842Y-53257D01*
X69842Y-53257D02*
X69842Y-53768D01*
G54D49*
X44101Y-40208D02*
X44066Y-40208D01*
G54D54*
X44047Y-39594D02*
X44047Y-38417D01*
X44066Y-40208D02*
X44047Y-39594D01*
G54D12*
X50570Y-33090D02*
X51653Y-32637D01*
X51653Y-32637D02*
X52364Y-32637D01*
X53996Y-34547D02*
X54271Y-35236D01*
X53011Y-34251D02*
X53996Y-34547D01*
X52897Y-33170D02*
X53011Y-34251D01*
X52364Y-32637D02*
X52897Y-33170D01*
G54D48*
X54271Y-35236D02*
X54862Y-35354D01*
G54D12*
X50101Y-34421D02*
X50098Y-34192D01*
X50098Y-34192D02*
X50570Y-33090D01*
G54D48*
X56775Y-35803D02*
X56555Y-35807D01*
X56555Y-35807D02*
X55925Y-35944D01*
X55925Y-35944D02*
X55570Y-35807D01*
X55570Y-35807D02*
X55177Y-35492D01*
X55177Y-35492D02*
X54862Y-35354D01*
G54D49*
X56771Y-35799D02*
X56775Y-35803D01*
G54D48*
X54862Y-35354D02*
X54846Y-35337D01*
G54D46*
X63944Y-40464D02*
X63944Y-41625D01*
X56318Y-39822D02*
X56948Y-39763D01*
X55354Y-41889D02*
X55551Y-40511D01*
X55551Y-40511D02*
X56318Y-39822D01*
X63661Y-41929D02*
X55354Y-41889D01*
X63944Y-41625D02*
X63661Y-41929D01*
G54D49*
X57341Y-38582D02*
X57341Y-38622D01*
G54D46*
X56978Y-39498D02*
X56948Y-39763D01*
X57341Y-38622D02*
X56978Y-39498D01*
G54D49*
X58232Y-37259D02*
X58228Y-37539D01*
X58228Y-37539D02*
X58149Y-37637D01*
X57814Y-37874D02*
X57559Y-38110D01*
X57559Y-38110D02*
X57322Y-38425D01*
X57322Y-38425D02*
X57341Y-38582D01*
X58149Y-37637D02*
X57814Y-37874D01*
M02*
