G04 (created by PCBNEW (2013-08-24 BZR 4298)-stable) date Sat 07 Jun 2014 09:00:51 PM PDT*
%MOIN*%
G04 Gerber Fmt 3.4, Leading zero omitted, Abs format*
%FSLAX34Y34*%
G01*
G70*
G90*
G04 APERTURE LIST*
%ADD10C,0.005906*%
%ADD11C,0.011811*%
%ADD12C,0.007874*%
%ADD13C,0.003937*%
%ADD14R,0.009843X0.033465*%
%ADD15R,0.033465X0.009843*%
%ADD16R,0.281496X0.281496*%
%ADD17C,0.070866*%
%ADD18C,0.078700*%
%ADD19R,0.078700X0.078700*%
%ADD20R,0.039400X0.035400*%
%ADD21R,0.181102X0.031890*%
%ADD22R,0.181102X0.024016*%
%ADD23C,0.157480*%
%ADD24R,0.153543X0.098425*%
%ADD25R,0.098400X0.098400*%
%ADD26O,0.009800X0.031500*%
%ADD27O,0.031500X0.009800*%
%ADD28C,0.023622*%
%ADD29R,0.035400X0.039400*%
%ADD30R,0.055000X0.035000*%
%ADD31R,0.039370X0.031496*%
%ADD32R,0.029921X0.196850*%
%ADD33R,0.346457X0.177165*%
%ADD34R,0.196850X0.029921*%
%ADD35R,0.177165X0.346457*%
%ADD36R,0.100000X0.039000*%
%ADD37C,0.027559*%
%ADD38C,0.013780*%
%ADD39C,0.009843*%
%ADD40C,0.027559*%
%ADD41C,0.015748*%
%ADD42C,0.039370*%
%ADD43C,0.047244*%
%ADD44C,0.031496*%
%ADD45C,0.019685*%
G04 APERTURE END LIST*
G54D10*
G54D11*
X68405Y-26054D02*
X68405Y-25660D01*
X68405Y-25773D02*
X68433Y-25717D01*
X68461Y-25688D01*
X68517Y-25660D01*
X68574Y-25660D01*
X68996Y-26026D02*
X68939Y-26054D01*
X68827Y-26054D01*
X68771Y-26026D01*
X68742Y-25970D01*
X68742Y-25745D01*
X68771Y-25688D01*
X68827Y-25660D01*
X68939Y-25660D01*
X68996Y-25688D01*
X69024Y-25745D01*
X69024Y-25801D01*
X68742Y-25857D01*
X69221Y-25660D02*
X69361Y-26054D01*
X69502Y-25660D01*
X69839Y-25464D02*
X69895Y-25464D01*
X69952Y-25492D01*
X69980Y-25520D01*
X70008Y-25576D01*
X70036Y-25688D01*
X70036Y-25829D01*
X70008Y-25942D01*
X69980Y-25998D01*
X69952Y-26026D01*
X69895Y-26054D01*
X69839Y-26054D01*
X69783Y-26026D01*
X69755Y-25998D01*
X69727Y-25942D01*
X69699Y-25829D01*
X69699Y-25688D01*
X69727Y-25576D01*
X69755Y-25520D01*
X69783Y-25492D01*
X69839Y-25464D01*
X70261Y-25520D02*
X70289Y-25492D01*
X70345Y-25464D01*
X70486Y-25464D01*
X70542Y-25492D01*
X70570Y-25520D01*
X70598Y-25576D01*
X70598Y-25632D01*
X70570Y-25717D01*
X70233Y-26054D01*
X70598Y-26054D01*
G54D12*
X67592Y-26709D02*
X67637Y-26709D01*
X67682Y-26732D01*
X67705Y-26754D01*
X67727Y-26799D01*
X67750Y-26889D01*
X67750Y-27002D01*
X67727Y-27092D01*
X67705Y-27137D01*
X67682Y-27159D01*
X67637Y-27182D01*
X67592Y-27182D01*
X67547Y-27159D01*
X67525Y-27137D01*
X67502Y-27092D01*
X67480Y-27002D01*
X67480Y-26889D01*
X67502Y-26799D01*
X67525Y-26754D01*
X67547Y-26732D01*
X67592Y-26709D01*
X68155Y-26709D02*
X68065Y-26709D01*
X68020Y-26732D01*
X67997Y-26754D01*
X67952Y-26822D01*
X67930Y-26912D01*
X67930Y-27092D01*
X67952Y-27137D01*
X67975Y-27159D01*
X68020Y-27182D01*
X68110Y-27182D01*
X68155Y-27159D01*
X68177Y-27137D01*
X68200Y-27092D01*
X68200Y-26979D01*
X68177Y-26934D01*
X68155Y-26912D01*
X68110Y-26889D01*
X68020Y-26889D01*
X67975Y-26912D01*
X67952Y-26934D01*
X67930Y-26979D01*
X68740Y-26687D02*
X68335Y-27294D01*
X68987Y-26709D02*
X69032Y-26709D01*
X69077Y-26732D01*
X69100Y-26754D01*
X69122Y-26799D01*
X69145Y-26889D01*
X69145Y-27002D01*
X69122Y-27092D01*
X69100Y-27137D01*
X69077Y-27159D01*
X69032Y-27182D01*
X68987Y-27182D01*
X68942Y-27159D01*
X68920Y-27137D01*
X68897Y-27092D01*
X68875Y-27002D01*
X68875Y-26889D01*
X68897Y-26799D01*
X68920Y-26754D01*
X68942Y-26732D01*
X68987Y-26709D01*
X69302Y-26709D02*
X69617Y-26709D01*
X69415Y-27182D01*
X70134Y-26687D02*
X69730Y-27294D01*
X70269Y-26754D02*
X70292Y-26732D01*
X70337Y-26709D01*
X70449Y-26709D01*
X70494Y-26732D01*
X70517Y-26754D01*
X70539Y-26799D01*
X70539Y-26844D01*
X70517Y-26912D01*
X70247Y-27182D01*
X70539Y-27182D01*
X70832Y-26709D02*
X70877Y-26709D01*
X70922Y-26732D01*
X70944Y-26754D01*
X70967Y-26799D01*
X70989Y-26889D01*
X70989Y-27002D01*
X70967Y-27092D01*
X70944Y-27137D01*
X70922Y-27159D01*
X70877Y-27182D01*
X70832Y-27182D01*
X70787Y-27159D01*
X70764Y-27137D01*
X70742Y-27092D01*
X70719Y-27002D01*
X70719Y-26889D01*
X70742Y-26799D01*
X70764Y-26754D01*
X70787Y-26732D01*
X70832Y-26709D01*
X71439Y-27182D02*
X71169Y-27182D01*
X71304Y-27182D02*
X71304Y-26709D01*
X71259Y-26777D01*
X71214Y-26822D01*
X71169Y-26844D01*
X71844Y-26867D02*
X71844Y-27182D01*
X71732Y-26687D02*
X71619Y-27024D01*
X71912Y-27024D01*
G54D11*
X67660Y-24760D02*
X67857Y-24760D01*
X67941Y-25070D02*
X67660Y-25070D01*
X67660Y-24479D01*
X67941Y-24479D01*
X68110Y-24676D02*
X68335Y-24676D01*
X68194Y-24479D02*
X68194Y-24985D01*
X68222Y-25042D01*
X68278Y-25070D01*
X68335Y-25070D01*
X68532Y-25070D02*
X68532Y-24479D01*
X68785Y-25070D02*
X68785Y-24760D01*
X68757Y-24704D01*
X68700Y-24676D01*
X68616Y-24676D01*
X68560Y-24704D01*
X68532Y-24732D01*
X69066Y-25070D02*
X69066Y-24479D01*
X69263Y-24901D01*
X69460Y-24479D01*
X69460Y-25070D01*
X69825Y-25070D02*
X69769Y-25042D01*
X69741Y-25014D01*
X69713Y-24957D01*
X69713Y-24789D01*
X69741Y-24732D01*
X69769Y-24704D01*
X69825Y-24676D01*
X69910Y-24676D01*
X69966Y-24704D01*
X69994Y-24732D01*
X70022Y-24789D01*
X70022Y-24957D01*
X69994Y-25014D01*
X69966Y-25042D01*
X69910Y-25070D01*
X69825Y-25070D01*
X70191Y-24676D02*
X70416Y-24676D01*
X70275Y-24479D02*
X70275Y-24985D01*
X70303Y-25042D01*
X70359Y-25070D01*
X70416Y-25070D01*
X70697Y-25070D02*
X70641Y-25042D01*
X70613Y-25014D01*
X70584Y-24957D01*
X70584Y-24789D01*
X70613Y-24732D01*
X70641Y-24704D01*
X70697Y-24676D01*
X70781Y-24676D01*
X70838Y-24704D01*
X70866Y-24732D01*
X70894Y-24789D01*
X70894Y-24957D01*
X70866Y-25014D01*
X70838Y-25042D01*
X70781Y-25070D01*
X70697Y-25070D01*
X71147Y-25070D02*
X71147Y-24676D01*
X71147Y-24789D02*
X71175Y-24732D01*
X71203Y-24704D01*
X71259Y-24676D01*
X71316Y-24676D01*
X71484Y-25042D02*
X71541Y-25070D01*
X71653Y-25070D01*
X71709Y-25042D01*
X71737Y-24985D01*
X71737Y-24957D01*
X71709Y-24901D01*
X71653Y-24873D01*
X71569Y-24873D01*
X71512Y-24845D01*
X71484Y-24789D01*
X71484Y-24760D01*
X71512Y-24704D01*
X71569Y-24676D01*
X71653Y-24676D01*
X71709Y-24704D01*
G54D13*
X56724Y-41567D02*
X56724Y-41409D01*
X56790Y-41522D01*
X56856Y-41409D01*
X56856Y-41567D01*
X57062Y-41552D02*
X57052Y-41559D01*
X57024Y-41567D01*
X57005Y-41567D01*
X56977Y-41559D01*
X56959Y-41544D01*
X56949Y-41529D01*
X56940Y-41499D01*
X56940Y-41477D01*
X56949Y-41447D01*
X56959Y-41432D01*
X56977Y-41417D01*
X57005Y-41409D01*
X57024Y-41409D01*
X57052Y-41417D01*
X57062Y-41424D01*
X57240Y-41567D02*
X57146Y-41567D01*
X57146Y-41409D01*
X57418Y-41567D02*
X57352Y-41492D01*
X57305Y-41567D02*
X57305Y-41409D01*
X57380Y-41409D01*
X57399Y-41417D01*
X57409Y-41424D01*
X57418Y-41439D01*
X57418Y-41462D01*
X57409Y-41477D01*
X57399Y-41484D01*
X57380Y-41492D01*
X57305Y-41492D01*
X56677Y-41382D02*
X57455Y-41382D01*
G54D14*
X59807Y-37259D03*
X60003Y-37259D03*
X58625Y-37259D03*
X58822Y-37259D03*
X59216Y-37259D03*
X59019Y-37259D03*
X59610Y-37259D03*
X59413Y-37259D03*
X57838Y-37259D03*
X58035Y-37259D03*
X58429Y-37259D03*
X58232Y-37259D03*
X57444Y-37259D03*
X57641Y-37259D03*
X57248Y-37259D03*
X57051Y-37259D03*
G54D15*
X56775Y-36984D03*
X56775Y-36787D03*
X56775Y-36393D03*
X56775Y-36590D03*
X56775Y-35803D03*
X56775Y-35606D03*
X56775Y-36000D03*
X56775Y-36196D03*
X56775Y-34622D03*
X56775Y-34425D03*
X56775Y-35015D03*
X56775Y-34818D03*
X56775Y-35212D03*
X56775Y-35409D03*
X56775Y-34031D03*
X56775Y-34228D03*
G54D14*
X57051Y-33755D03*
X57248Y-33755D03*
X57641Y-33755D03*
X57444Y-33755D03*
X58232Y-33755D03*
X58429Y-33755D03*
X58035Y-33755D03*
X57838Y-33755D03*
X59413Y-33755D03*
X59610Y-33755D03*
X59019Y-33755D03*
X59216Y-33755D03*
X58822Y-33755D03*
X58625Y-33755D03*
X60003Y-33755D03*
X59807Y-33755D03*
G54D15*
X60279Y-34228D03*
X60279Y-34031D03*
X60279Y-35409D03*
X60279Y-35212D03*
X60279Y-34818D03*
X60279Y-35007D03*
X60279Y-34425D03*
X60279Y-34622D03*
X60279Y-36196D03*
X60279Y-36000D03*
X60279Y-35606D03*
X60279Y-35803D03*
X60279Y-36590D03*
X60279Y-36393D03*
X60279Y-36787D03*
X60279Y-36984D03*
G54D16*
X58527Y-35507D03*
G54D17*
X60940Y-39763D03*
X61940Y-39763D03*
X56948Y-39763D03*
X57948Y-39763D03*
X59944Y-39763D03*
X58944Y-39763D03*
G54D18*
X36811Y-28070D03*
G54D19*
X35039Y-25940D03*
X37441Y-25940D03*
X35039Y-30202D03*
X37441Y-30202D03*
G54D18*
X35039Y-28070D03*
G54D20*
X50846Y-41693D03*
X50846Y-41101D03*
X47047Y-32578D03*
X47047Y-33170D03*
X52224Y-39981D03*
X52224Y-39389D03*
G54D21*
X43523Y-33291D03*
X43523Y-34015D03*
G54D22*
X43523Y-34488D03*
X43523Y-34889D03*
X43523Y-35692D03*
X43523Y-37291D03*
X43523Y-36488D03*
G54D21*
X43523Y-38488D03*
X43523Y-37763D03*
G54D22*
X43523Y-36090D03*
X43523Y-36889D03*
G54D23*
X35681Y-38389D03*
X35681Y-33389D03*
G54D22*
X43523Y-35291D03*
G54D24*
X35681Y-32228D03*
X35681Y-39551D03*
G54D25*
X50003Y-35208D03*
G54D26*
X49511Y-35995D03*
X49708Y-35995D03*
X49905Y-35995D03*
X50101Y-35995D03*
X50298Y-35995D03*
X50495Y-35995D03*
G54D27*
X50790Y-35700D03*
X50790Y-35503D03*
X50790Y-35306D03*
X50790Y-35110D03*
X50790Y-34913D03*
X50790Y-34716D03*
G54D26*
X50495Y-34421D03*
X50298Y-34421D03*
X50101Y-34421D03*
X49905Y-34421D03*
X49708Y-34421D03*
X49511Y-34421D03*
G54D27*
X49216Y-34716D03*
X49216Y-34913D03*
X49216Y-35110D03*
X49216Y-35306D03*
X49216Y-35503D03*
X49216Y-35700D03*
G54D28*
X50003Y-35208D03*
X49703Y-34908D03*
X49703Y-35508D03*
X50303Y-34908D03*
X50303Y-35508D03*
G54D29*
X47491Y-36114D03*
X48083Y-36114D03*
G54D30*
X46220Y-32026D03*
X46220Y-32776D03*
G54D20*
X53031Y-40000D03*
X53031Y-39408D03*
X51377Y-38701D03*
X51377Y-38109D03*
X49035Y-38701D03*
X49035Y-38109D03*
X48228Y-32578D03*
X48228Y-33170D03*
X47637Y-32578D03*
X47637Y-33170D03*
X62421Y-36574D03*
X62421Y-37166D03*
X56259Y-41358D03*
X56259Y-40766D03*
G54D29*
X62894Y-35000D03*
X62302Y-35000D03*
G54D20*
X59842Y-32499D03*
X59842Y-33091D03*
X58533Y-31081D03*
X58533Y-31673D03*
X60866Y-31614D03*
X60866Y-31022D03*
X59212Y-32499D03*
X59212Y-33091D03*
G54D29*
X54626Y-39035D03*
X54034Y-39035D03*
X54528Y-39763D03*
X53936Y-39763D03*
X52973Y-40708D03*
X52381Y-40708D03*
X54803Y-35826D03*
X54211Y-35826D03*
X54646Y-36476D03*
X54054Y-36476D03*
X53878Y-37539D03*
X53286Y-37539D03*
G54D20*
X46283Y-35051D03*
X46283Y-34459D03*
X46291Y-35664D03*
X46291Y-36256D03*
X45385Y-37134D03*
X45385Y-36542D03*
X45405Y-37822D03*
X45405Y-38414D03*
G54D29*
X44693Y-40208D03*
X44101Y-40208D03*
X57341Y-38582D03*
X57933Y-38582D03*
X45516Y-33295D03*
X44924Y-33295D03*
G54D20*
X45106Y-34512D03*
X45106Y-33920D03*
G54D29*
X58483Y-38622D03*
X59075Y-38622D03*
G54D20*
X40551Y-30020D03*
X40551Y-29428D03*
G54D31*
X50590Y-38090D03*
X49803Y-38090D03*
X50590Y-38681D03*
X49803Y-38681D03*
X59251Y-31633D03*
X60039Y-31633D03*
X59251Y-31043D03*
X60039Y-31043D03*
G54D32*
X55836Y-28503D03*
X56836Y-28503D03*
X57836Y-28503D03*
X57336Y-28503D03*
X58336Y-28503D03*
X56336Y-28503D03*
G54D33*
X57086Y-22185D03*
G54D32*
X62726Y-28700D03*
X63726Y-28700D03*
X64726Y-28700D03*
X64226Y-28700D03*
X65226Y-28700D03*
X63226Y-28700D03*
G54D33*
X63976Y-22381D03*
G54D32*
X42057Y-28503D03*
X43057Y-28503D03*
X44057Y-28503D03*
X43557Y-28503D03*
X44557Y-28503D03*
X42557Y-28503D03*
G54D33*
X43307Y-22185D03*
G54D32*
X48946Y-28503D03*
X49946Y-28503D03*
X50946Y-28503D03*
X50446Y-28503D03*
X51446Y-28503D03*
X49446Y-28503D03*
G54D33*
X50196Y-22185D03*
G54D34*
X66181Y-30836D03*
X66181Y-31836D03*
X66181Y-32836D03*
X66181Y-32336D03*
X66181Y-33336D03*
X66181Y-31336D03*
G54D35*
X72500Y-32086D03*
G54D34*
X66181Y-37726D03*
X66181Y-38726D03*
X66181Y-39726D03*
X66181Y-39226D03*
X66181Y-40226D03*
X66181Y-38226D03*
G54D35*
X72500Y-38976D03*
G54D29*
X61121Y-41259D03*
X61713Y-41259D03*
G54D30*
X53543Y-33760D03*
X53543Y-33010D03*
G54D29*
X63306Y-37185D03*
X63898Y-37185D03*
G54D36*
X63944Y-40464D03*
X62944Y-41464D03*
G54D37*
X58444Y-41082D03*
X63937Y-36574D03*
X54527Y-34842D03*
X65629Y-36574D03*
X67874Y-28937D03*
X42677Y-41102D03*
X54685Y-29173D03*
X47854Y-29232D03*
X40728Y-31673D03*
X53011Y-35177D03*
X51732Y-41102D03*
X55984Y-40039D03*
X63110Y-33858D03*
X62677Y-30984D03*
X48334Y-33925D03*
X48389Y-36771D03*
X52480Y-33346D03*
X61220Y-33661D03*
X52578Y-33917D03*
X56594Y-33228D03*
X52440Y-36614D03*
X51948Y-33169D03*
X53405Y-34763D03*
X54133Y-38444D03*
X59625Y-41259D03*
X53267Y-32519D03*
X62952Y-36574D03*
X60393Y-32322D03*
X63287Y-34606D03*
X65078Y-41003D03*
X65492Y-34232D03*
X65492Y-30118D03*
X52677Y-29665D03*
X46889Y-29901D03*
X58326Y-38011D03*
X59734Y-28887D03*
X51850Y-41574D03*
X50196Y-40413D03*
X46082Y-33700D03*
X44901Y-39448D03*
X39133Y-31850D03*
X48228Y-31850D03*
X46889Y-36141D03*
X52992Y-37145D03*
X52460Y-34468D03*
X51515Y-40492D03*
X48917Y-33464D03*
X53602Y-36456D03*
X53484Y-35255D03*
X52519Y-38681D03*
X48956Y-32814D03*
X45728Y-39350D03*
X45039Y-32598D03*
X52992Y-38346D03*
X49881Y-32598D03*
X57834Y-30039D03*
X63188Y-32559D03*
X54921Y-30354D03*
X62716Y-32716D03*
X45078Y-30078D03*
X62204Y-32874D03*
X60137Y-38464D03*
X61476Y-38267D03*
X61692Y-38779D03*
X59724Y-38759D03*
X63169Y-30413D03*
X58425Y-30059D03*
X47783Y-34196D03*
X46074Y-37110D03*
X47984Y-34826D03*
X46114Y-37771D03*
G54D38*
X57948Y-39763D02*
X57948Y-40586D01*
X57948Y-40586D02*
X58444Y-41082D01*
X63898Y-37185D02*
X63898Y-36613D01*
X63898Y-36613D02*
X63937Y-36574D01*
G54D12*
X55925Y-35728D02*
X55000Y-35078D01*
G54D39*
X55000Y-35078D02*
X54527Y-34842D01*
G54D12*
X56775Y-35606D02*
X56535Y-35607D01*
X56535Y-35607D02*
X55925Y-35728D01*
G54D39*
X59842Y-33091D02*
X59212Y-33091D01*
X59842Y-33091D02*
X60137Y-33091D01*
X62637Y-30944D02*
X62755Y-30482D01*
G54D11*
X61299Y-32283D02*
X62637Y-30944D01*
G54D39*
X60748Y-32480D02*
X61299Y-32283D01*
X60137Y-33091D02*
X60748Y-32480D01*
X59610Y-33755D02*
X59610Y-33323D01*
X59610Y-33323D02*
X59842Y-33091D01*
X59019Y-33755D02*
X59019Y-33284D01*
X59019Y-33284D02*
X59212Y-33091D01*
G54D11*
X65127Y-37726D02*
X66181Y-37726D01*
X64960Y-37559D02*
X65127Y-37726D01*
X64960Y-37244D02*
X64960Y-37559D01*
X65629Y-36574D02*
X64960Y-37244D01*
G54D39*
X66181Y-30836D02*
X66181Y-29251D01*
X66496Y-28937D02*
X67874Y-28937D01*
X66181Y-29251D02*
X66496Y-28937D01*
G54D11*
X59075Y-38622D02*
X58897Y-39094D01*
X58110Y-39094D02*
X57933Y-38582D01*
X58897Y-39094D02*
X58110Y-39094D01*
G54D40*
X42697Y-41081D02*
X50826Y-41102D01*
X42677Y-41102D02*
X42697Y-41081D01*
X55836Y-29911D02*
X55836Y-28435D01*
X54685Y-29173D02*
X55452Y-29940D01*
X55452Y-29940D02*
X55807Y-29940D01*
X55807Y-29940D02*
X55836Y-29911D01*
X48946Y-29143D02*
X48946Y-28435D01*
X48503Y-29586D02*
X48946Y-29143D01*
X48208Y-29586D02*
X48503Y-29586D01*
X47854Y-29232D02*
X48208Y-29586D01*
X41692Y-30866D02*
X41535Y-30866D01*
X41535Y-30866D02*
X40728Y-31673D01*
X46220Y-32026D02*
X46180Y-32026D01*
X41259Y-30433D02*
X41259Y-29428D01*
X42027Y-31791D02*
X41692Y-30866D01*
X41692Y-30866D02*
X41259Y-30433D01*
X45000Y-31771D02*
X42027Y-31791D01*
X46180Y-32026D02*
X45000Y-31771D01*
X40551Y-29428D02*
X41259Y-29428D01*
X41259Y-29428D02*
X41515Y-29428D01*
X42057Y-28886D02*
X42057Y-28435D01*
X41515Y-29428D02*
X42057Y-28886D01*
X38622Y-29173D02*
X40296Y-29173D01*
X40296Y-29173D02*
X40551Y-29428D01*
G54D39*
X50790Y-35306D02*
X52823Y-35306D01*
X52823Y-35306D02*
X53011Y-35177D01*
G54D40*
X51711Y-41081D02*
X50826Y-41102D01*
G54D39*
X51732Y-41102D02*
X51711Y-41081D01*
G54D41*
X55984Y-40039D02*
X56062Y-40196D01*
X56062Y-40196D02*
X56259Y-40766D01*
G54D39*
X58818Y-37913D02*
X58818Y-38228D01*
X58822Y-37259D02*
X58818Y-37913D01*
X59143Y-38799D02*
X59075Y-38622D01*
X58818Y-38228D02*
X59143Y-38799D01*
G54D41*
X57948Y-39763D02*
X57952Y-38779D01*
G54D39*
X57952Y-38779D02*
X57933Y-38582D01*
G54D41*
X62755Y-29409D02*
X62755Y-30482D01*
X62755Y-30482D02*
X62677Y-30984D01*
G54D39*
X60279Y-35212D02*
X61299Y-35212D01*
X61299Y-35212D02*
X62302Y-35000D01*
G54D41*
X62302Y-35000D02*
X62320Y-34608D01*
X62320Y-34608D02*
X63051Y-33956D01*
X63051Y-33956D02*
X63110Y-33858D01*
X63110Y-33858D02*
X63111Y-33858D01*
G54D42*
X38622Y-27121D02*
X37441Y-25940D01*
X38622Y-29212D02*
X38622Y-29173D01*
X38622Y-29173D02*
X38622Y-27121D01*
G54D43*
X37441Y-25940D02*
X35039Y-25940D01*
G54D44*
X37621Y-26121D02*
X37441Y-25940D01*
G54D41*
X48389Y-36771D02*
X47093Y-36771D01*
X47093Y-36771D02*
X46916Y-36948D01*
G54D45*
X47047Y-33170D02*
X46342Y-33075D01*
X46342Y-33075D02*
X46220Y-32776D01*
X48334Y-33925D02*
X48334Y-33236D01*
X48334Y-33236D02*
X48228Y-33170D01*
G54D39*
X46916Y-36948D02*
X46916Y-36881D01*
G54D11*
X46916Y-36881D02*
X46291Y-36256D01*
X46255Y-38417D02*
X46771Y-38070D01*
X46943Y-37689D02*
X46916Y-36948D01*
X46771Y-38070D02*
X46943Y-37689D01*
X45405Y-38414D02*
X46255Y-38417D01*
G54D45*
X43523Y-36090D02*
X43523Y-36488D01*
G54D11*
X47637Y-33170D02*
X47086Y-33405D01*
X46283Y-34208D02*
X46283Y-34459D01*
X47086Y-33405D02*
X46283Y-34208D01*
G54D45*
X45385Y-36542D02*
X44936Y-36550D01*
X44874Y-36488D02*
X43523Y-36488D01*
X44936Y-36550D02*
X44874Y-36488D01*
G54D11*
X45385Y-36542D02*
X45997Y-36550D01*
X45997Y-36550D02*
X46291Y-36256D01*
G54D40*
X47059Y-33181D02*
X47637Y-33170D01*
G54D45*
X47637Y-33170D02*
X47665Y-33142D01*
X47665Y-33142D02*
X48228Y-33170D01*
G54D39*
X49216Y-34716D02*
X49085Y-34620D01*
X49085Y-34620D02*
X48985Y-34547D01*
G54D41*
X48365Y-36756D02*
X48365Y-36753D01*
G54D11*
X49299Y-36121D02*
X48365Y-36753D01*
G54D39*
X49511Y-35995D02*
X49299Y-36121D01*
G54D41*
X48389Y-36771D02*
X48365Y-36756D01*
G54D39*
X48985Y-34547D02*
X48334Y-33925D01*
G54D12*
X56775Y-36590D02*
X56555Y-36594D01*
G54D39*
X54881Y-36948D02*
X53878Y-37539D01*
G54D12*
X56555Y-36594D02*
X54881Y-36948D01*
G54D39*
X60511Y-34429D02*
X60511Y-34429D01*
G54D11*
X52456Y-33268D02*
X52456Y-33268D01*
X52480Y-33346D02*
X52456Y-33268D01*
X50495Y-34421D02*
X50704Y-34260D01*
X50704Y-34260D02*
X52185Y-33582D01*
X52185Y-33582D02*
X52503Y-33350D01*
G54D39*
X60511Y-34429D02*
X60279Y-34425D01*
X60511Y-34429D02*
X61220Y-33661D01*
X50790Y-34716D02*
X51110Y-34560D01*
X52391Y-34005D02*
X52578Y-33917D01*
X51333Y-34321D02*
X52391Y-34005D01*
X51110Y-34560D02*
X51333Y-34321D01*
X56692Y-33543D02*
X56775Y-34031D01*
X56594Y-33228D02*
X56692Y-33543D01*
G54D12*
X56775Y-36787D02*
X56574Y-36791D01*
X56574Y-36791D02*
X55610Y-37086D01*
G54D11*
X55610Y-37086D02*
X55166Y-37275D01*
X55166Y-37275D02*
X53764Y-38205D01*
X53764Y-38205D02*
X52786Y-37854D01*
X52786Y-37854D02*
X52598Y-37460D01*
X52598Y-37460D02*
X52440Y-36614D01*
G54D41*
X51948Y-33169D02*
X50984Y-33448D01*
G54D39*
X50303Y-34000D02*
X50298Y-34421D01*
X50303Y-34000D02*
X50984Y-33448D01*
G54D12*
X56555Y-36397D02*
X56775Y-36393D01*
X56555Y-36397D02*
X54783Y-36539D01*
G54D39*
X54646Y-36476D02*
X54783Y-36539D01*
G54D12*
X56775Y-36196D02*
X55460Y-36173D01*
G54D39*
X55452Y-36181D02*
X55265Y-35924D01*
X54925Y-35779D02*
X54803Y-35826D01*
X55265Y-35924D02*
X54925Y-35779D01*
X55460Y-36173D02*
X55452Y-36181D01*
G54D12*
X56775Y-36984D02*
X56271Y-37204D01*
G54D39*
X56271Y-37204D02*
X55724Y-37519D01*
X54133Y-38444D02*
X55731Y-37525D01*
X55724Y-37519D02*
X55731Y-37525D01*
X50790Y-35110D02*
X51346Y-35122D01*
X51346Y-35122D02*
X51830Y-35023D01*
X51830Y-35023D02*
X52834Y-34763D01*
X52834Y-34763D02*
X53405Y-34763D01*
X53405Y-34763D02*
X53413Y-34757D01*
X57244Y-37539D02*
X57244Y-37263D01*
X56732Y-38149D02*
X56594Y-38385D01*
X56594Y-38385D02*
X56456Y-38464D01*
X56456Y-38464D02*
X56397Y-38661D01*
X54528Y-39763D02*
X55000Y-39625D01*
X55000Y-39625D02*
X55039Y-39429D01*
X55039Y-39429D02*
X55237Y-39532D01*
X55237Y-39532D02*
X55202Y-39153D01*
X55202Y-39153D02*
X55551Y-39350D01*
X55551Y-39350D02*
X55452Y-38996D01*
X55452Y-38996D02*
X55846Y-39114D01*
X55846Y-39114D02*
X55826Y-38838D01*
X55826Y-38838D02*
X56141Y-38897D01*
X56141Y-38897D02*
X56161Y-38700D01*
X56161Y-38700D02*
X56397Y-38661D01*
X57244Y-37539D02*
X56732Y-38149D01*
X57244Y-37263D02*
X57248Y-37259D01*
X57452Y-37787D02*
X57441Y-37263D01*
X57441Y-37263D02*
X57444Y-37259D01*
X57452Y-37771D02*
X57452Y-37787D01*
X57452Y-37787D02*
X56830Y-38598D01*
X56830Y-38598D02*
X56543Y-38988D01*
X56543Y-38988D02*
X55000Y-40177D01*
G54D11*
X55000Y-40177D02*
X52973Y-40708D01*
G54D39*
X57051Y-37259D02*
X57042Y-37461D01*
X57042Y-37461D02*
X56622Y-37610D01*
X56622Y-37610D02*
X56196Y-38027D01*
X56196Y-38027D02*
X54626Y-39035D01*
G54D40*
X56259Y-41358D02*
X54211Y-41358D01*
X53996Y-41574D02*
X51850Y-41574D01*
X54211Y-41358D02*
X53996Y-41574D01*
G54D38*
X61121Y-41259D02*
X59625Y-41259D01*
X58944Y-40578D02*
X58944Y-39763D01*
X59625Y-41259D02*
X58944Y-40578D01*
G54D39*
X53543Y-33010D02*
X53543Y-32952D01*
X53543Y-32952D02*
X53267Y-32519D01*
G54D38*
X62421Y-36574D02*
X62952Y-36574D01*
X62952Y-36574D02*
X62952Y-36574D01*
X59251Y-31043D02*
X58572Y-31043D01*
X58572Y-31043D02*
X58533Y-31081D01*
X58533Y-31081D02*
X58533Y-30718D01*
G54D40*
X59232Y-29676D02*
X58912Y-29470D01*
G54D38*
X58533Y-30718D02*
X59232Y-30019D01*
X59232Y-30019D02*
X59232Y-29676D01*
G54D40*
X50866Y-41713D02*
X51711Y-41713D01*
X51711Y-41713D02*
X51850Y-41574D01*
G54D39*
X59842Y-32499D02*
X59212Y-32499D01*
X59842Y-32499D02*
X60217Y-32499D01*
X60217Y-32499D02*
X60393Y-32322D01*
X62894Y-35000D02*
X63248Y-34566D01*
X63248Y-34566D02*
X63287Y-34606D01*
X62913Y-35393D02*
X62913Y-35018D01*
X60625Y-35409D02*
X62913Y-35393D01*
X60279Y-35409D02*
X60625Y-35409D01*
X62913Y-35018D02*
X62894Y-35000D01*
G54D40*
X66250Y-40226D02*
X64911Y-40226D01*
X64822Y-40314D02*
X65078Y-41003D01*
X64911Y-40226D02*
X64822Y-40314D01*
X66250Y-33336D02*
X65797Y-33336D01*
X65492Y-33641D02*
X65492Y-34232D01*
X65797Y-33336D02*
X65492Y-33641D01*
G54D41*
X65226Y-28435D02*
X65226Y-30009D01*
X65226Y-30009D02*
X65492Y-30118D01*
X44557Y-28435D02*
X44557Y-28769D01*
X51446Y-29498D02*
X51446Y-28435D01*
X51614Y-29665D02*
X51446Y-29498D01*
X52677Y-29665D02*
X51614Y-29665D01*
X46240Y-29251D02*
X46889Y-29901D01*
X45039Y-29251D02*
X46240Y-29251D01*
X44557Y-28769D02*
X45039Y-29251D01*
G54D40*
X58912Y-29470D02*
X59151Y-29470D01*
X59151Y-29470D02*
X59734Y-28887D01*
G54D11*
X59251Y-31043D02*
X59311Y-31043D01*
X59901Y-31633D02*
X60039Y-31633D01*
X59311Y-31043D02*
X59901Y-31633D01*
G54D40*
X51377Y-38701D02*
X51181Y-39429D01*
X51181Y-39429D02*
X50196Y-40413D01*
G54D41*
X45106Y-34512D02*
X45270Y-34512D01*
X45270Y-34512D02*
X46082Y-33700D01*
X43523Y-37763D02*
X44515Y-37763D01*
X44960Y-39389D02*
X44901Y-39448D01*
X44960Y-38208D02*
X44960Y-39389D01*
X44515Y-37763D02*
X44960Y-38208D01*
X51082Y-39035D02*
X51555Y-39862D01*
G54D39*
X51377Y-38701D02*
X51082Y-39035D01*
G54D40*
X52179Y-40076D02*
X53031Y-40000D01*
X52151Y-40123D02*
X52179Y-40076D01*
X52151Y-40123D02*
X51555Y-39862D01*
X40551Y-30020D02*
X40551Y-30433D01*
G54D42*
X35084Y-30202D02*
X36023Y-31141D01*
X36023Y-31141D02*
X38425Y-31141D01*
X38425Y-31141D02*
X39133Y-31850D01*
X35084Y-30202D02*
X35039Y-30202D01*
G54D40*
X40551Y-30433D02*
X39133Y-31850D01*
G54D39*
X59931Y-31564D02*
X59950Y-31564D01*
G54D11*
X60020Y-31634D02*
X60866Y-31614D01*
G54D39*
X59950Y-31564D02*
X60020Y-31634D01*
X58429Y-33755D02*
X58425Y-33070D01*
X58425Y-33070D02*
X58031Y-32125D01*
X58031Y-32125D02*
X58031Y-31181D01*
X58031Y-31181D02*
X58150Y-31081D01*
G54D11*
X58150Y-31081D02*
X58533Y-31081D01*
G54D40*
X58912Y-29470D02*
X58818Y-29409D01*
X58818Y-29409D02*
X58336Y-29419D01*
G54D39*
X58336Y-29419D02*
X58336Y-28435D01*
X58287Y-37893D02*
X58503Y-37716D01*
X58543Y-37677D02*
X58287Y-37893D01*
X58626Y-37547D02*
X58543Y-37677D01*
X58326Y-38011D02*
X58483Y-38622D01*
X58503Y-37716D02*
X58326Y-38011D01*
X49803Y-38090D02*
X50000Y-38090D01*
G54D11*
X50000Y-38090D02*
X50590Y-38681D01*
G54D39*
X50590Y-38681D02*
X51377Y-38700D01*
X51377Y-38700D02*
X51377Y-38701D01*
X49803Y-38090D02*
X49036Y-38110D01*
X49036Y-38110D02*
X49035Y-38109D01*
X60279Y-36393D02*
X60681Y-36393D01*
X60681Y-36393D02*
X60905Y-36377D01*
X60905Y-36377D02*
X62322Y-36456D01*
X62303Y-36574D02*
X62421Y-36574D01*
X62271Y-36574D02*
X62303Y-36574D01*
X62344Y-36471D02*
X62271Y-36574D01*
X62326Y-36460D02*
X62344Y-36471D01*
X62322Y-36456D02*
X62326Y-36460D01*
X58626Y-37547D02*
X58622Y-37263D01*
X58622Y-37263D02*
X58625Y-37259D01*
X60279Y-35409D02*
X58625Y-35409D01*
X58625Y-35409D02*
X58527Y-35507D01*
X58625Y-37259D02*
X58625Y-35606D01*
X58625Y-35606D02*
X58527Y-35507D01*
X58429Y-33755D02*
X58429Y-35409D01*
X58429Y-35409D02*
X58527Y-35507D01*
G54D45*
X47637Y-32578D02*
X47055Y-32585D01*
X47055Y-32585D02*
X47047Y-32578D01*
X48228Y-32578D02*
X47996Y-32200D01*
X47996Y-32200D02*
X48228Y-31850D01*
X43523Y-34488D02*
X43523Y-34015D01*
X45106Y-34512D02*
X43547Y-34512D01*
X43547Y-34512D02*
X43523Y-34488D01*
G54D40*
X47491Y-36114D02*
X46889Y-36141D01*
G54D39*
X58626Y-37535D02*
X58626Y-37547D01*
G54D40*
X48228Y-32578D02*
X47824Y-32575D01*
X47824Y-32575D02*
X47637Y-32578D01*
X53031Y-40000D02*
X52224Y-40060D01*
G54D39*
X44924Y-33295D02*
X43527Y-33295D01*
X43527Y-33295D02*
X43523Y-33291D01*
X50790Y-34913D02*
X51248Y-34917D01*
G54D41*
X52992Y-37145D02*
X53286Y-37539D01*
G54D39*
X52094Y-34614D02*
X52460Y-34468D01*
X51248Y-34917D02*
X52094Y-34614D01*
X58625Y-33755D02*
X58625Y-32641D01*
X58533Y-32549D02*
X58533Y-31673D01*
X58625Y-32641D02*
X58533Y-32549D01*
G54D11*
X58533Y-31673D02*
X59270Y-31654D01*
G54D39*
X59270Y-31654D02*
X59360Y-31564D01*
X49803Y-38681D02*
X49036Y-38700D01*
X49036Y-38700D02*
X49035Y-38701D01*
X50101Y-35995D02*
X50101Y-36512D01*
G54D11*
X49803Y-39251D02*
X49803Y-38681D01*
X49527Y-39409D02*
X49803Y-39251D01*
X48937Y-39409D02*
X49527Y-39409D01*
X48169Y-38917D02*
X48385Y-39198D01*
X48385Y-39198D02*
X48937Y-39409D01*
X48405Y-38070D02*
X48188Y-38612D01*
X48188Y-38612D02*
X48169Y-38917D01*
G54D39*
X50101Y-36512D02*
X48405Y-38070D01*
X50590Y-38090D02*
X50590Y-36614D01*
X50298Y-36322D02*
X50298Y-35995D01*
X50590Y-36614D02*
X50298Y-36322D01*
X50590Y-38090D02*
X51377Y-38110D01*
X51377Y-38110D02*
X51377Y-38109D01*
G54D38*
X63306Y-37185D02*
X62440Y-37185D01*
X62440Y-37185D02*
X62421Y-37166D01*
G54D39*
X60279Y-36590D02*
X60885Y-36587D01*
X60885Y-36587D02*
X62421Y-37181D01*
X62421Y-37181D02*
X62421Y-37166D01*
G54D38*
X62944Y-41464D02*
X62527Y-41464D01*
X62322Y-41259D02*
X61713Y-41259D01*
X62527Y-41464D02*
X62322Y-41259D01*
G54D11*
X52381Y-40708D02*
X51515Y-40492D01*
X48917Y-33464D02*
X49232Y-34169D01*
G54D39*
X49232Y-34169D02*
X49511Y-34421D01*
X50790Y-35503D02*
X51285Y-35497D01*
X51285Y-35497D02*
X51685Y-35588D01*
X51685Y-35588D02*
X52078Y-35712D01*
X52078Y-35712D02*
X52716Y-35933D01*
X52716Y-35933D02*
X52956Y-35677D01*
X52956Y-35677D02*
X53019Y-36019D01*
X53019Y-36019D02*
X53220Y-35732D01*
X53220Y-35732D02*
X53275Y-36051D01*
X53275Y-36051D02*
X53500Y-35795D01*
X53500Y-35795D02*
X53531Y-36086D01*
X53531Y-36086D02*
X53732Y-35818D01*
X53732Y-35818D02*
X54054Y-36476D01*
X53484Y-35255D02*
X54211Y-35826D01*
X50790Y-35700D02*
X51413Y-35881D01*
X51413Y-35881D02*
X53602Y-36456D01*
X49216Y-35700D02*
X48885Y-35834D01*
X48885Y-35834D02*
X48562Y-35988D01*
G54D41*
X48562Y-35988D02*
X48083Y-36114D01*
G54D11*
X53936Y-39763D02*
X53346Y-38917D01*
X53346Y-38917D02*
X52519Y-38681D01*
X48956Y-32814D02*
X49696Y-33976D01*
G54D39*
X49696Y-33976D02*
X49708Y-34421D01*
G54D45*
X45531Y-40161D02*
X44740Y-40161D01*
G54D41*
X45531Y-40161D02*
X45826Y-40137D01*
G54D39*
X49905Y-35995D02*
X49901Y-36437D01*
G54D11*
X47976Y-37934D02*
X45826Y-40137D01*
G54D39*
X49901Y-36437D02*
X47976Y-37934D01*
X44740Y-40161D02*
X44693Y-40208D01*
G54D41*
X45039Y-32598D02*
X45039Y-32716D01*
G54D39*
X45738Y-39361D02*
X45728Y-39350D01*
X49704Y-36259D02*
X47716Y-37688D01*
G54D11*
X47716Y-37688D02*
X46316Y-38895D01*
G54D41*
X46316Y-38895D02*
X46095Y-39215D01*
G54D39*
X49708Y-35995D02*
X49704Y-36259D01*
X46095Y-39215D02*
X45738Y-39361D01*
G54D41*
X45118Y-32874D02*
X45516Y-33295D01*
X45039Y-32716D02*
X45118Y-32874D01*
G54D39*
X45516Y-33295D02*
X45516Y-33810D01*
X45406Y-33920D02*
X45106Y-33920D01*
X45516Y-33810D02*
X45406Y-33920D01*
G54D45*
X53031Y-39408D02*
X52279Y-39444D01*
X52279Y-39444D02*
X52224Y-39389D01*
G54D11*
X50665Y-36229D02*
X51751Y-37637D01*
X51751Y-37637D02*
X52224Y-39310D01*
X50495Y-35995D02*
X50665Y-36229D01*
X54034Y-39035D02*
X53582Y-38562D01*
X53582Y-38562D02*
X52992Y-38346D01*
X49881Y-32598D02*
X49803Y-33051D01*
X49803Y-33051D02*
X49913Y-33736D01*
G54D39*
X49913Y-33736D02*
X49913Y-33735D01*
X49905Y-34421D02*
X49913Y-33735D01*
X49913Y-33735D02*
X49913Y-33714D01*
X60866Y-31022D02*
X60973Y-31052D01*
X58822Y-32909D02*
X58822Y-33755D01*
X58818Y-32165D02*
X58822Y-32909D01*
X60747Y-32028D02*
X59055Y-32047D01*
X59055Y-32047D02*
X58818Y-32165D01*
X61240Y-31988D02*
X60747Y-32028D01*
X61377Y-31122D02*
X61240Y-31988D01*
X60973Y-31052D02*
X60925Y-31082D01*
X60925Y-31082D02*
X61377Y-31122D01*
X59931Y-31112D02*
X60029Y-31112D01*
G54D11*
X60099Y-31042D02*
X60866Y-31022D01*
G54D39*
X60029Y-31112D02*
X60099Y-31042D01*
X59807Y-37259D02*
X59807Y-37519D01*
X60940Y-38795D02*
X60940Y-39763D01*
X59807Y-37519D02*
X60940Y-38795D01*
X60003Y-37259D02*
X60003Y-37385D01*
X59944Y-40259D02*
X59944Y-39763D01*
X60098Y-40413D02*
X59944Y-40259D01*
X62421Y-40413D02*
X60098Y-40413D01*
X62598Y-40236D02*
X62421Y-40413D01*
X62598Y-39370D02*
X62598Y-40236D01*
X62381Y-39153D02*
X62598Y-39370D01*
X61456Y-39153D02*
X62381Y-39153D01*
X61220Y-38917D02*
X61456Y-39153D01*
X61220Y-38602D02*
X61220Y-38917D01*
X60003Y-37385D02*
X61220Y-38602D01*
X60279Y-35803D02*
X63842Y-35803D01*
G54D11*
X64883Y-31336D02*
X66181Y-31336D01*
X64015Y-32204D02*
X64883Y-31336D01*
X64015Y-35629D02*
X64015Y-32204D01*
G54D39*
X63842Y-35803D02*
X64015Y-35629D01*
X60279Y-35606D02*
X63488Y-35606D01*
G54D11*
X64726Y-30706D02*
X64726Y-28700D01*
X63700Y-31732D02*
X64726Y-30706D01*
X63700Y-35393D02*
X63700Y-31732D01*
G54D39*
X63488Y-35606D02*
X63700Y-35393D01*
X60279Y-35007D02*
X61161Y-35019D01*
G54D11*
X57836Y-30037D02*
X57836Y-28503D01*
G54D39*
X57834Y-30039D02*
X57836Y-30037D01*
X63228Y-32480D02*
X63188Y-32559D01*
G54D11*
X62874Y-33464D02*
X63228Y-32480D01*
G54D39*
X61161Y-35019D02*
X62874Y-33464D01*
X60279Y-34818D02*
X60925Y-34822D01*
G54D11*
X50946Y-29765D02*
X50946Y-28503D01*
X51338Y-30157D02*
X50946Y-29765D01*
X54724Y-30157D02*
X51338Y-30157D01*
G54D39*
X54921Y-30354D02*
X54724Y-30157D01*
G54D11*
X62440Y-33464D02*
X62716Y-32716D01*
G54D39*
X60925Y-34822D02*
X62440Y-33464D01*
X60279Y-34622D02*
X60728Y-34625D01*
G54D11*
X44057Y-29726D02*
X44057Y-28503D01*
X44330Y-30000D02*
X44057Y-29726D01*
X45000Y-30000D02*
X44330Y-30000D01*
G54D39*
X45078Y-30078D02*
X45000Y-30000D01*
G54D11*
X62204Y-33228D02*
X62204Y-32874D01*
G54D39*
X60728Y-34625D02*
X62204Y-33228D01*
G54D38*
X61476Y-38267D02*
X63388Y-38344D01*
G54D39*
X59413Y-37543D02*
X60000Y-38129D01*
X60000Y-38129D02*
X60000Y-38326D01*
X60000Y-38326D02*
X60137Y-38464D01*
X59413Y-37259D02*
X59413Y-37484D01*
X59413Y-37484D02*
X59413Y-37543D01*
G54D38*
X63388Y-38344D02*
X64120Y-38726D01*
X64120Y-38726D02*
X66181Y-38726D01*
G54D39*
X59413Y-37259D02*
X59413Y-37259D01*
X59216Y-37562D02*
X59216Y-37661D01*
X59216Y-37259D02*
X59216Y-37562D01*
G54D38*
X62066Y-38759D02*
X62322Y-38740D01*
X61692Y-38779D02*
X62066Y-38759D01*
G54D39*
X59724Y-38169D02*
X59724Y-38759D01*
X59216Y-37661D02*
X59724Y-38169D01*
G54D38*
X63990Y-39226D02*
X66181Y-39226D01*
X63385Y-38917D02*
X63990Y-39226D01*
G54D11*
X62322Y-38759D02*
X62322Y-38740D01*
G54D38*
X62322Y-38740D02*
X63385Y-38917D01*
G54D39*
X59019Y-37917D02*
X59287Y-38134D01*
X59019Y-37259D02*
X59019Y-37917D01*
G54D38*
X63269Y-40037D02*
X63269Y-39726D01*
X62559Y-40708D02*
X63269Y-40037D01*
X59803Y-40708D02*
X62559Y-40708D01*
X59448Y-40511D02*
X59803Y-40708D01*
G54D39*
X59448Y-38287D02*
X59448Y-40511D01*
X59287Y-38134D02*
X59448Y-38287D01*
G54D38*
X63269Y-39726D02*
X66181Y-39726D01*
G54D39*
X60279Y-36984D02*
X60685Y-36984D01*
G54D38*
X64564Y-38226D02*
X66181Y-38226D01*
G54D11*
X64133Y-37913D02*
X64564Y-38226D01*
X61496Y-37913D02*
X64133Y-37913D01*
G54D39*
X60685Y-36984D02*
X61496Y-37913D01*
X60279Y-36787D02*
X60803Y-36787D01*
G54D11*
X65076Y-32836D02*
X66181Y-32836D01*
X64881Y-33228D02*
X65076Y-32836D01*
X64881Y-36417D02*
X64881Y-33228D01*
X64251Y-37677D02*
X64881Y-36417D01*
X61732Y-37677D02*
X64251Y-37677D01*
G54D39*
X60803Y-36787D02*
X61732Y-37677D01*
X60279Y-36196D02*
X64354Y-36196D01*
G54D11*
X64907Y-32336D02*
X66181Y-32336D01*
X64606Y-32618D02*
X64907Y-32336D01*
X64606Y-35925D02*
X64606Y-32618D01*
X64354Y-36196D02*
X64606Y-35925D01*
G54D39*
X60279Y-36000D02*
X64000Y-36000D01*
G54D11*
X64816Y-31836D02*
X66181Y-31836D01*
X64330Y-32322D02*
X64816Y-31836D01*
X64330Y-35669D02*
X64330Y-32322D01*
G54D39*
X64000Y-36000D02*
X64330Y-35669D01*
X57838Y-33755D02*
X57834Y-33307D01*
G54D11*
X56889Y-32440D02*
X56836Y-28435D01*
G54D39*
X57834Y-33307D02*
X56889Y-32440D01*
X57641Y-33755D02*
X57637Y-33425D01*
G54D11*
X56456Y-32755D02*
X56336Y-28435D01*
G54D39*
X57637Y-33425D02*
X56456Y-32755D01*
G54D12*
X56775Y-34228D02*
X56531Y-34228D01*
G54D11*
X50446Y-30072D02*
X50446Y-28435D01*
X50846Y-30590D02*
X50446Y-30072D01*
G54D39*
X53543Y-30590D02*
X50846Y-30590D01*
X56200Y-33267D02*
X56122Y-32677D01*
X56122Y-32677D02*
X56062Y-30787D01*
X56062Y-30787D02*
X53543Y-30590D01*
X56456Y-34114D02*
X56338Y-33641D01*
X56338Y-33641D02*
X56200Y-33267D01*
G54D12*
X56531Y-34228D02*
X56456Y-34114D01*
G54D11*
X49946Y-28435D02*
X49946Y-30104D01*
G54D12*
X56220Y-34133D02*
X56397Y-34409D01*
X56397Y-34409D02*
X56555Y-34427D01*
X56555Y-34427D02*
X56775Y-34425D01*
G54D39*
X55925Y-33425D02*
X56220Y-34133D01*
X55787Y-32933D02*
X55925Y-33425D01*
X53267Y-30866D02*
X55669Y-31043D01*
X55669Y-31043D02*
X55787Y-32933D01*
G54D11*
X50748Y-30905D02*
X53267Y-30866D01*
X49946Y-30104D02*
X50748Y-30905D01*
G54D12*
X56775Y-34622D02*
X56555Y-34623D01*
X56555Y-34623D02*
X56299Y-34645D01*
G54D11*
X49446Y-30116D02*
X49446Y-28435D01*
G54D39*
X50511Y-31200D02*
X49446Y-30116D01*
G54D11*
X53169Y-31200D02*
X50511Y-31200D01*
G54D39*
X55492Y-33031D02*
X55334Y-31279D01*
X55334Y-31279D02*
X53169Y-31200D01*
X55610Y-33503D02*
X55492Y-33031D01*
G54D12*
X56299Y-34645D02*
X55610Y-33503D01*
G54D11*
X43557Y-28435D02*
X43557Y-29620D01*
G54D12*
X56220Y-34842D02*
X56574Y-34820D01*
X56574Y-34820D02*
X56775Y-34818D01*
X55157Y-33385D02*
X56220Y-34842D01*
G54D39*
X55059Y-31712D02*
X55157Y-33385D01*
X53011Y-31456D02*
X55019Y-31614D01*
X55019Y-31614D02*
X55059Y-31712D01*
G54D11*
X50354Y-31515D02*
X53011Y-31456D01*
G54D39*
X48307Y-30531D02*
X50354Y-31515D01*
G54D11*
X44173Y-30531D02*
X48307Y-30531D01*
X43557Y-29620D02*
X44173Y-30531D01*
G54D12*
X56775Y-35015D02*
X56555Y-35015D01*
X56555Y-35015D02*
X56122Y-35039D01*
G54D11*
X43057Y-30005D02*
X43057Y-28435D01*
X43681Y-30885D02*
X43057Y-30005D01*
X48248Y-30885D02*
X43681Y-30885D01*
G54D39*
X50433Y-31929D02*
X48248Y-30885D01*
G54D11*
X52893Y-31771D02*
X50433Y-31929D01*
G54D39*
X54586Y-32027D02*
X54448Y-31889D01*
X54448Y-31889D02*
X52893Y-31771D01*
X54586Y-32047D02*
X54586Y-32027D01*
G54D12*
X56122Y-35039D02*
X54704Y-33425D01*
G54D39*
X54704Y-33425D02*
X54586Y-32047D01*
G54D11*
X50354Y-32322D02*
X52952Y-32106D01*
X42557Y-30076D02*
X43346Y-31259D01*
X43346Y-31259D02*
X48248Y-31259D01*
X48248Y-31259D02*
X50354Y-32322D01*
X42557Y-28435D02*
X42557Y-30076D01*
G54D12*
X56043Y-35236D02*
X56555Y-35212D01*
X56555Y-35212D02*
X56775Y-35212D01*
G54D39*
X52952Y-32106D02*
X54153Y-32219D01*
X54153Y-32219D02*
X54153Y-32480D01*
X54153Y-32480D02*
X54251Y-33582D01*
G54D12*
X54251Y-33582D02*
X56043Y-35236D01*
G54D41*
X63226Y-30356D02*
X63226Y-28435D01*
G54D39*
X63169Y-30413D02*
X63226Y-30356D01*
X58232Y-33755D02*
X58228Y-33149D01*
G54D11*
X57677Y-32204D02*
X57677Y-30944D01*
X57677Y-30944D02*
X58051Y-30728D01*
X58051Y-30728D02*
X58425Y-30059D01*
G54D39*
X58425Y-30059D02*
X58425Y-30059D01*
X58228Y-33149D02*
X57677Y-32204D01*
X58035Y-33755D02*
X58031Y-33228D01*
G54D11*
X57322Y-32322D02*
X57336Y-28435D01*
G54D39*
X58031Y-33228D02*
X57322Y-32322D01*
X60003Y-33755D02*
X60003Y-33736D01*
G54D11*
X63726Y-30486D02*
X63726Y-28700D01*
X63307Y-30905D02*
X63726Y-30486D01*
G54D39*
X63267Y-31141D02*
X63307Y-30905D01*
G54D11*
X62883Y-31844D02*
X63267Y-31141D01*
X62086Y-31929D02*
X62883Y-31844D01*
X61456Y-32559D02*
X62086Y-31929D01*
G54D39*
X60984Y-32755D02*
X61456Y-32559D01*
X60003Y-33736D02*
X60984Y-32755D01*
X60279Y-34031D02*
X60452Y-34035D01*
G54D11*
X64226Y-30537D02*
X64226Y-28700D01*
X63700Y-31062D02*
X64226Y-30537D01*
X63431Y-31500D02*
X63700Y-31062D01*
X63129Y-32096D02*
X63431Y-31500D01*
X62165Y-32322D02*
X63129Y-32096D01*
X61614Y-32874D02*
X62165Y-32322D01*
G54D39*
X61220Y-32952D02*
X61614Y-32874D01*
X60452Y-34035D02*
X61220Y-32952D01*
X44960Y-35283D02*
X46326Y-35146D01*
X43523Y-35291D02*
X44960Y-35283D01*
X46326Y-35146D02*
X46326Y-35146D01*
X46452Y-35165D02*
X46400Y-35169D01*
X48346Y-35314D02*
X46452Y-35165D01*
X49216Y-35306D02*
X48346Y-35314D01*
X47165Y-35633D02*
X46570Y-35657D01*
X48881Y-35507D02*
X47165Y-35633D01*
X49216Y-35503D02*
X48881Y-35507D01*
X46570Y-35657D02*
X46291Y-35664D01*
X43523Y-35692D02*
X46263Y-35692D01*
X46263Y-35692D02*
X46291Y-35664D01*
X45385Y-37134D02*
X45212Y-37137D01*
X44637Y-36889D02*
X43523Y-36889D01*
X45212Y-37137D02*
X44637Y-36889D01*
X49216Y-34913D02*
X48874Y-34913D01*
X47783Y-34196D02*
X48874Y-34913D01*
G54D11*
X46042Y-37142D02*
X45385Y-37134D01*
G54D39*
X46074Y-37110D02*
X46042Y-37142D01*
X45405Y-37822D02*
X45302Y-37822D01*
X44559Y-37291D02*
X43523Y-37291D01*
X45302Y-37822D02*
X44559Y-37291D01*
X48677Y-35118D02*
X47984Y-34826D01*
X49216Y-35110D02*
X48677Y-35118D01*
G54D11*
X46063Y-37822D02*
X45405Y-37822D01*
G54D39*
X46114Y-37771D02*
X46063Y-37822D01*
X53543Y-33760D02*
X53544Y-33760D01*
G54D12*
X56003Y-35492D02*
X54665Y-34448D01*
X56003Y-35492D02*
X56555Y-35409D01*
X56555Y-35409D02*
X56775Y-35409D01*
G54D39*
X53996Y-34015D02*
X54665Y-34448D01*
X53544Y-33760D02*
X53996Y-34015D01*
X44101Y-40208D02*
X44066Y-40208D01*
G54D45*
X44047Y-39594D02*
X44047Y-38417D01*
X44066Y-40208D02*
X44047Y-39594D01*
G54D11*
X50570Y-33090D02*
X51653Y-32637D01*
X51653Y-32637D02*
X52364Y-32637D01*
X53996Y-34547D02*
X54271Y-35236D01*
X53011Y-34251D02*
X53996Y-34547D01*
X52897Y-33170D02*
X53011Y-34251D01*
X52364Y-32637D02*
X52897Y-33170D01*
G54D12*
X54271Y-35236D02*
X54862Y-35354D01*
G54D11*
X50101Y-34421D02*
X50106Y-33866D01*
X50106Y-33866D02*
X50570Y-33090D01*
G54D12*
X56775Y-35803D02*
X56555Y-35807D01*
X56555Y-35807D02*
X55925Y-35944D01*
X55925Y-35944D02*
X55570Y-35807D01*
X55570Y-35807D02*
X55177Y-35492D01*
X55177Y-35492D02*
X54862Y-35354D01*
G54D39*
X56771Y-35799D02*
X56775Y-35803D01*
G54D12*
X54862Y-35354D02*
X54846Y-35337D01*
G54D38*
X63944Y-40464D02*
X63944Y-41625D01*
X56948Y-40551D02*
X56948Y-39763D01*
X58307Y-41909D02*
X56948Y-40551D01*
X63661Y-41909D02*
X58307Y-41909D01*
X63944Y-41625D02*
X63661Y-41909D01*
G54D39*
X57341Y-38582D02*
X57341Y-38622D01*
G54D41*
X56978Y-39498D02*
X56948Y-39763D01*
X57341Y-38622D02*
X56978Y-39498D01*
G54D39*
X58232Y-37259D02*
X58228Y-37539D01*
X58228Y-37539D02*
X58149Y-37637D01*
X57814Y-37874D02*
X57559Y-38110D01*
X57559Y-38110D02*
X57322Y-38425D01*
X57322Y-38425D02*
X57341Y-38582D01*
X58149Y-37637D02*
X57814Y-37874D01*
M02*
