G04 (created by PCBNEW (2013-07-07 BZR 4022)-stable) date 7/17/2014 12:13:15 PM*
%MOIN*%
G04 Gerber Fmt 3.4, Leading zero omitted, Abs format*
%FSLAX34Y34*%
G01*
G70*
G90*
G04 APERTURE LIST*
%ADD10C,0.00590551*%
%ADD11C,0.011811*%
%ADD12C,0.00787402*%
%ADD13C,0.01*%
%ADD14C,0.0039*%
%ADD15C,0.005*%
%ADD16C,0.0079*%
%ADD17C,0.0059*%
%ADD18C,0.0075*%
%ADD19C,0.012*%
%ADD20C,0.0016*%
%ADD21C,0.0037*%
%ADD22C,0.0047*%
G04 APERTURE END LIST*
G54D10*
G54D11*
X68405Y-26026D02*
X68405Y-25632D01*
X68405Y-25745D02*
X68433Y-25688D01*
X68461Y-25660D01*
X68517Y-25632D01*
X68574Y-25632D01*
X68996Y-25998D02*
X68939Y-26026D01*
X68827Y-26026D01*
X68771Y-25998D01*
X68742Y-25942D01*
X68742Y-25717D01*
X68771Y-25660D01*
X68827Y-25632D01*
X68939Y-25632D01*
X68996Y-25660D01*
X69024Y-25717D01*
X69024Y-25773D01*
X68742Y-25829D01*
X69221Y-25632D02*
X69361Y-26026D01*
X69502Y-25632D01*
X69839Y-25435D02*
X69895Y-25435D01*
X69952Y-25464D01*
X69980Y-25492D01*
X70008Y-25548D01*
X70036Y-25660D01*
X70036Y-25801D01*
X70008Y-25913D01*
X69980Y-25970D01*
X69952Y-25998D01*
X69895Y-26026D01*
X69839Y-26026D01*
X69783Y-25998D01*
X69755Y-25970D01*
X69727Y-25913D01*
X69699Y-25801D01*
X69699Y-25660D01*
X69727Y-25548D01*
X69755Y-25492D01*
X69783Y-25464D01*
X69839Y-25435D01*
X70261Y-25492D02*
X70289Y-25464D01*
X70345Y-25435D01*
X70486Y-25435D01*
X70542Y-25464D01*
X70570Y-25492D01*
X70598Y-25548D01*
X70598Y-25604D01*
X70570Y-25688D01*
X70233Y-26026D01*
X70598Y-26026D01*
G54D12*
X67069Y-26616D02*
X67125Y-26616D01*
X67182Y-26645D01*
X67210Y-26673D01*
X67238Y-26729D01*
X67266Y-26841D01*
X67266Y-26982D01*
X67238Y-27095D01*
X67210Y-27151D01*
X67182Y-27179D01*
X67125Y-27207D01*
X67069Y-27207D01*
X67013Y-27179D01*
X66985Y-27151D01*
X66957Y-27095D01*
X66929Y-26982D01*
X66929Y-26841D01*
X66957Y-26729D01*
X66985Y-26673D01*
X67013Y-26645D01*
X67069Y-26616D01*
X67463Y-26616D02*
X67857Y-26616D01*
X67604Y-27207D01*
X68503Y-26588D02*
X67997Y-27348D01*
X69010Y-27207D02*
X68672Y-27207D01*
X68841Y-27207D02*
X68841Y-26616D01*
X68785Y-26701D01*
X68728Y-26757D01*
X68672Y-26785D01*
X69206Y-26616D02*
X69600Y-26616D01*
X69347Y-27207D01*
X70247Y-26588D02*
X69741Y-27348D01*
X70416Y-26673D02*
X70444Y-26645D01*
X70500Y-26616D01*
X70641Y-26616D01*
X70697Y-26645D01*
X70725Y-26673D01*
X70753Y-26729D01*
X70753Y-26785D01*
X70725Y-26870D01*
X70388Y-27207D01*
X70753Y-27207D01*
X71119Y-26616D02*
X71175Y-26616D01*
X71231Y-26645D01*
X71259Y-26673D01*
X71287Y-26729D01*
X71316Y-26841D01*
X71316Y-26982D01*
X71287Y-27095D01*
X71259Y-27151D01*
X71231Y-27179D01*
X71175Y-27207D01*
X71119Y-27207D01*
X71062Y-27179D01*
X71034Y-27151D01*
X71006Y-27095D01*
X70978Y-26982D01*
X70978Y-26841D01*
X71006Y-26729D01*
X71034Y-26673D01*
X71062Y-26645D01*
X71119Y-26616D01*
X71878Y-27207D02*
X71541Y-27207D01*
X71709Y-27207D02*
X71709Y-26616D01*
X71653Y-26701D01*
X71597Y-26757D01*
X71541Y-26785D01*
X72384Y-26813D02*
X72384Y-27207D01*
X72244Y-26588D02*
X72103Y-27010D01*
X72469Y-27010D01*
G54D11*
X67660Y-24732D02*
X67857Y-24732D01*
X67941Y-25042D02*
X67660Y-25042D01*
X67660Y-24451D01*
X67941Y-24451D01*
X68110Y-24648D02*
X68335Y-24648D01*
X68194Y-24451D02*
X68194Y-24957D01*
X68222Y-25014D01*
X68278Y-25042D01*
X68335Y-25042D01*
X68532Y-25042D02*
X68532Y-24451D01*
X68785Y-25042D02*
X68785Y-24732D01*
X68757Y-24676D01*
X68700Y-24648D01*
X68616Y-24648D01*
X68560Y-24676D01*
X68532Y-24704D01*
X69066Y-25042D02*
X69066Y-24451D01*
X69263Y-24873D01*
X69460Y-24451D01*
X69460Y-25042D01*
X69825Y-25042D02*
X69769Y-25014D01*
X69741Y-24985D01*
X69713Y-24929D01*
X69713Y-24760D01*
X69741Y-24704D01*
X69769Y-24676D01*
X69825Y-24648D01*
X69910Y-24648D01*
X69966Y-24676D01*
X69994Y-24704D01*
X70022Y-24760D01*
X70022Y-24929D01*
X69994Y-24985D01*
X69966Y-25014D01*
X69910Y-25042D01*
X69825Y-25042D01*
X70191Y-24648D02*
X70416Y-24648D01*
X70275Y-24451D02*
X70275Y-24957D01*
X70303Y-25014D01*
X70359Y-25042D01*
X70416Y-25042D01*
X70697Y-25042D02*
X70641Y-25014D01*
X70613Y-24985D01*
X70584Y-24929D01*
X70584Y-24760D01*
X70613Y-24704D01*
X70641Y-24676D01*
X70697Y-24648D01*
X70781Y-24648D01*
X70838Y-24676D01*
X70866Y-24704D01*
X70894Y-24760D01*
X70894Y-24929D01*
X70866Y-24985D01*
X70838Y-25014D01*
X70781Y-25042D01*
X70697Y-25042D01*
X71147Y-25042D02*
X71147Y-24648D01*
X71147Y-24760D02*
X71175Y-24704D01*
X71203Y-24676D01*
X71259Y-24648D01*
X71316Y-24648D01*
X71484Y-25014D02*
X71541Y-25042D01*
X71653Y-25042D01*
X71709Y-25014D01*
X71737Y-24957D01*
X71737Y-24929D01*
X71709Y-24873D01*
X71653Y-24845D01*
X71569Y-24845D01*
X71512Y-24817D01*
X71484Y-24760D01*
X71484Y-24732D01*
X71512Y-24676D01*
X71569Y-24648D01*
X71653Y-24648D01*
X71709Y-24676D01*
X44945Y-51747D02*
X44945Y-51702D01*
X44967Y-51657D01*
X44990Y-51635D01*
X45035Y-51612D01*
X45125Y-51590D01*
X45237Y-51590D01*
X45327Y-51612D01*
X45372Y-51635D01*
X45395Y-51657D01*
X45417Y-51702D01*
X45417Y-51747D01*
X45395Y-51792D01*
X45372Y-51815D01*
X45327Y-51837D01*
X45237Y-51860D01*
X45125Y-51860D01*
X45035Y-51837D01*
X44990Y-51815D01*
X44967Y-51792D01*
X44945Y-51747D01*
X44945Y-51432D02*
X44945Y-51117D01*
X45417Y-51320D01*
X44922Y-50600D02*
X45530Y-51005D01*
X45417Y-50195D02*
X45417Y-50465D01*
X45417Y-50330D02*
X44945Y-50330D01*
X45012Y-50375D01*
X45057Y-50420D01*
X45080Y-50465D01*
X44945Y-50037D02*
X44945Y-49723D01*
X45417Y-49925D01*
X44922Y-49205D02*
X45530Y-49610D01*
X44990Y-49070D02*
X44967Y-49048D01*
X44945Y-49003D01*
X44945Y-48890D01*
X44967Y-48845D01*
X44990Y-48823D01*
X45035Y-48800D01*
X45080Y-48800D01*
X45147Y-48823D01*
X45417Y-49093D01*
X45417Y-48800D01*
X44945Y-48508D02*
X44945Y-48463D01*
X44967Y-48418D01*
X44990Y-48395D01*
X45035Y-48373D01*
X45125Y-48350D01*
X45237Y-48350D01*
X45327Y-48373D01*
X45372Y-48395D01*
X45395Y-48418D01*
X45417Y-48463D01*
X45417Y-48508D01*
X45395Y-48553D01*
X45372Y-48575D01*
X45327Y-48598D01*
X45237Y-48620D01*
X45125Y-48620D01*
X45035Y-48598D01*
X44990Y-48575D01*
X44967Y-48553D01*
X44945Y-48508D01*
X45417Y-47900D02*
X45417Y-48170D01*
X45417Y-48035D02*
X44945Y-48035D01*
X45012Y-48080D01*
X45057Y-48125D01*
X45080Y-48170D01*
X45102Y-47495D02*
X45417Y-47495D01*
X44922Y-47608D02*
X45260Y-47720D01*
X45260Y-47428D01*
X35181Y-60234D02*
X34866Y-60234D01*
X34911Y-60234D02*
X34888Y-60212D01*
X34866Y-60167D01*
X34866Y-60099D01*
X34888Y-60054D01*
X34933Y-60032D01*
X35181Y-60032D01*
X34933Y-60032D02*
X34888Y-60009D01*
X34866Y-59964D01*
X34866Y-59897D01*
X34888Y-59852D01*
X34933Y-59829D01*
X35181Y-59829D01*
X35181Y-59537D02*
X35158Y-59582D01*
X35136Y-59604D01*
X35091Y-59627D01*
X34956Y-59627D01*
X34911Y-59604D01*
X34888Y-59582D01*
X34866Y-59537D01*
X34866Y-59469D01*
X34888Y-59424D01*
X34911Y-59402D01*
X34956Y-59379D01*
X35091Y-59379D01*
X35136Y-59402D01*
X35158Y-59424D01*
X35181Y-59469D01*
X35181Y-59537D01*
X34866Y-59244D02*
X34866Y-59064D01*
X34708Y-59177D02*
X35113Y-59177D01*
X35158Y-59154D01*
X35181Y-59109D01*
X35181Y-59064D01*
X35181Y-58839D02*
X35158Y-58884D01*
X35136Y-58907D01*
X35091Y-58929D01*
X34956Y-58929D01*
X34911Y-58907D01*
X34888Y-58884D01*
X34866Y-58839D01*
X34866Y-58772D01*
X34888Y-58727D01*
X34911Y-58705D01*
X34956Y-58682D01*
X35091Y-58682D01*
X35136Y-58705D01*
X35158Y-58727D01*
X35181Y-58772D01*
X35181Y-58839D01*
X35181Y-58480D02*
X34866Y-58480D01*
X34956Y-58480D02*
X34911Y-58457D01*
X34888Y-58435D01*
X34866Y-58390D01*
X34866Y-58345D01*
X35226Y-58300D02*
X35226Y-57940D01*
X35181Y-57827D02*
X34708Y-57827D01*
X34708Y-57715D01*
X34731Y-57647D01*
X34776Y-57602D01*
X34821Y-57580D01*
X34911Y-57557D01*
X34978Y-57557D01*
X35068Y-57580D01*
X35113Y-57602D01*
X35158Y-57647D01*
X35181Y-57715D01*
X35181Y-57827D01*
X35181Y-57085D02*
X34956Y-57242D01*
X35181Y-57355D02*
X34708Y-57355D01*
X34708Y-57175D01*
X34731Y-57130D01*
X34753Y-57107D01*
X34798Y-57085D01*
X34866Y-57085D01*
X34911Y-57107D01*
X34933Y-57130D01*
X34956Y-57175D01*
X34956Y-57355D01*
X34708Y-56950D02*
X35181Y-56792D01*
X34708Y-56635D01*
X34911Y-56410D02*
X34888Y-56455D01*
X34866Y-56477D01*
X34821Y-56500D01*
X34798Y-56500D01*
X34753Y-56477D01*
X34731Y-56455D01*
X34708Y-56410D01*
X34708Y-56320D01*
X34731Y-56275D01*
X34753Y-56252D01*
X34798Y-56230D01*
X34821Y-56230D01*
X34866Y-56252D01*
X34888Y-56275D01*
X34911Y-56320D01*
X34911Y-56410D01*
X34933Y-56455D01*
X34956Y-56477D01*
X35001Y-56500D01*
X35091Y-56500D01*
X35136Y-56477D01*
X35158Y-56455D01*
X35181Y-56410D01*
X35181Y-56320D01*
X35158Y-56275D01*
X35136Y-56252D01*
X35091Y-56230D01*
X35001Y-56230D01*
X34956Y-56252D01*
X34933Y-56275D01*
X34911Y-56320D01*
X34911Y-55960D02*
X34888Y-56005D01*
X34866Y-56027D01*
X34821Y-56050D01*
X34798Y-56050D01*
X34753Y-56027D01*
X34731Y-56005D01*
X34708Y-55960D01*
X34708Y-55870D01*
X34731Y-55825D01*
X34753Y-55802D01*
X34798Y-55780D01*
X34821Y-55780D01*
X34866Y-55802D01*
X34888Y-55825D01*
X34911Y-55870D01*
X34911Y-55960D01*
X34933Y-56005D01*
X34956Y-56027D01*
X35001Y-56050D01*
X35091Y-56050D01*
X35136Y-56027D01*
X35158Y-56005D01*
X35181Y-55960D01*
X35181Y-55870D01*
X35158Y-55825D01*
X35136Y-55802D01*
X35091Y-55780D01*
X35001Y-55780D01*
X34956Y-55802D01*
X34933Y-55825D01*
X34911Y-55870D01*
X34708Y-55487D02*
X34708Y-55442D01*
X34731Y-55397D01*
X34753Y-55375D01*
X34798Y-55352D01*
X34888Y-55330D01*
X35001Y-55330D01*
X35091Y-55352D01*
X35136Y-55375D01*
X35158Y-55397D01*
X35181Y-55442D01*
X35181Y-55487D01*
X35158Y-55532D01*
X35136Y-55555D01*
X35091Y-55577D01*
X35001Y-55600D01*
X34888Y-55600D01*
X34798Y-55577D01*
X34753Y-55555D01*
X34731Y-55532D01*
X34708Y-55487D01*
X34708Y-55037D02*
X34708Y-54992D01*
X34731Y-54947D01*
X34753Y-54925D01*
X34798Y-54902D01*
X34888Y-54880D01*
X35001Y-54880D01*
X35091Y-54902D01*
X35136Y-54925D01*
X35158Y-54947D01*
X35181Y-54992D01*
X35181Y-55037D01*
X35158Y-55082D01*
X35136Y-55105D01*
X35091Y-55127D01*
X35001Y-55150D01*
X34888Y-55150D01*
X34798Y-55127D01*
X34753Y-55105D01*
X34731Y-55082D01*
X34708Y-55037D01*
X35226Y-54790D02*
X35226Y-54430D01*
X35181Y-54048D02*
X34956Y-54205D01*
X35181Y-54318D02*
X34708Y-54318D01*
X34708Y-54138D01*
X34731Y-54093D01*
X34753Y-54070D01*
X34798Y-54048D01*
X34866Y-54048D01*
X34911Y-54070D01*
X34933Y-54093D01*
X34956Y-54138D01*
X34956Y-54318D01*
X34708Y-53710D02*
X35046Y-53710D01*
X35113Y-53733D01*
X35158Y-53778D01*
X35181Y-53845D01*
X35181Y-53890D01*
X35181Y-53238D02*
X35181Y-53508D01*
X35181Y-53373D02*
X34708Y-53373D01*
X34776Y-53418D01*
X34821Y-53463D01*
X34843Y-53508D01*
X34753Y-53058D02*
X34731Y-53035D01*
X34708Y-52990D01*
X34708Y-52878D01*
X34731Y-52833D01*
X34753Y-52810D01*
X34798Y-52788D01*
X34843Y-52788D01*
X34911Y-52810D01*
X35181Y-53080D01*
X35181Y-52788D01*
X35226Y-52698D02*
X35226Y-52338D01*
X35181Y-52225D02*
X34866Y-52225D01*
X34956Y-52225D02*
X34911Y-52203D01*
X34888Y-52180D01*
X34866Y-52135D01*
X34866Y-52090D01*
X35158Y-51753D02*
X35181Y-51798D01*
X35181Y-51888D01*
X35158Y-51933D01*
X35113Y-51955D01*
X34933Y-51955D01*
X34888Y-51933D01*
X34866Y-51888D01*
X34866Y-51798D01*
X34888Y-51753D01*
X34933Y-51730D01*
X34978Y-51730D01*
X35023Y-51955D01*
X34866Y-51573D02*
X35181Y-51460D01*
X34866Y-51348D01*
X34708Y-51078D02*
X34708Y-51033D01*
X34731Y-50988D01*
X34753Y-50965D01*
X34798Y-50943D01*
X34888Y-50920D01*
X35001Y-50920D01*
X35091Y-50943D01*
X35136Y-50965D01*
X35158Y-50988D01*
X35181Y-51033D01*
X35181Y-51078D01*
X35158Y-51123D01*
X35136Y-51145D01*
X35091Y-51168D01*
X35001Y-51190D01*
X34888Y-51190D01*
X34798Y-51168D01*
X34753Y-51145D01*
X34731Y-51123D01*
X34708Y-51078D01*
X34708Y-50763D02*
X34708Y-50471D01*
X34888Y-50628D01*
X34888Y-50561D01*
X34911Y-50516D01*
X34933Y-50493D01*
X34978Y-50471D01*
X35091Y-50471D01*
X35136Y-50493D01*
X35158Y-50516D01*
X35181Y-50561D01*
X35181Y-50696D01*
X35158Y-50741D01*
X35136Y-50763D01*
X58724Y-51747D02*
X58724Y-51702D01*
X58747Y-51657D01*
X58769Y-51635D01*
X58814Y-51612D01*
X58904Y-51590D01*
X59017Y-51590D01*
X59107Y-51612D01*
X59152Y-51635D01*
X59174Y-51657D01*
X59197Y-51702D01*
X59197Y-51747D01*
X59174Y-51792D01*
X59152Y-51815D01*
X59107Y-51837D01*
X59017Y-51860D01*
X58904Y-51860D01*
X58814Y-51837D01*
X58769Y-51815D01*
X58747Y-51792D01*
X58724Y-51747D01*
X58724Y-51432D02*
X58724Y-51117D01*
X59197Y-51320D01*
X58702Y-50600D02*
X59309Y-51005D01*
X59197Y-50195D02*
X59197Y-50465D01*
X59197Y-50330D02*
X58724Y-50330D01*
X58792Y-50375D01*
X58837Y-50420D01*
X58859Y-50465D01*
X58724Y-50037D02*
X58724Y-49723D01*
X59197Y-49925D01*
X58702Y-49205D02*
X59309Y-49610D01*
X58769Y-49070D02*
X58747Y-49048D01*
X58724Y-49003D01*
X58724Y-48890D01*
X58747Y-48845D01*
X58769Y-48823D01*
X58814Y-48800D01*
X58859Y-48800D01*
X58927Y-48823D01*
X59197Y-49093D01*
X59197Y-48800D01*
X58724Y-48508D02*
X58724Y-48463D01*
X58747Y-48418D01*
X58769Y-48395D01*
X58814Y-48373D01*
X58904Y-48350D01*
X59017Y-48350D01*
X59107Y-48373D01*
X59152Y-48395D01*
X59174Y-48418D01*
X59197Y-48463D01*
X59197Y-48508D01*
X59174Y-48553D01*
X59152Y-48575D01*
X59107Y-48598D01*
X59017Y-48620D01*
X58904Y-48620D01*
X58814Y-48598D01*
X58769Y-48575D01*
X58747Y-48553D01*
X58724Y-48508D01*
X59197Y-47900D02*
X59197Y-48170D01*
X59197Y-48035D02*
X58724Y-48035D01*
X58792Y-48080D01*
X58837Y-48125D01*
X58859Y-48170D01*
X58882Y-47495D02*
X59197Y-47495D01*
X58702Y-47608D02*
X59039Y-47720D01*
X59039Y-47428D01*
X48960Y-60234D02*
X48645Y-60234D01*
X48690Y-60234D02*
X48668Y-60212D01*
X48645Y-60167D01*
X48645Y-60099D01*
X48668Y-60054D01*
X48713Y-60032D01*
X48960Y-60032D01*
X48713Y-60032D02*
X48668Y-60009D01*
X48645Y-59964D01*
X48645Y-59897D01*
X48668Y-59852D01*
X48713Y-59829D01*
X48960Y-59829D01*
X48960Y-59537D02*
X48938Y-59582D01*
X48915Y-59604D01*
X48870Y-59627D01*
X48735Y-59627D01*
X48690Y-59604D01*
X48668Y-59582D01*
X48645Y-59537D01*
X48645Y-59469D01*
X48668Y-59424D01*
X48690Y-59402D01*
X48735Y-59379D01*
X48870Y-59379D01*
X48915Y-59402D01*
X48938Y-59424D01*
X48960Y-59469D01*
X48960Y-59537D01*
X48645Y-59244D02*
X48645Y-59064D01*
X48488Y-59177D02*
X48893Y-59177D01*
X48938Y-59154D01*
X48960Y-59109D01*
X48960Y-59064D01*
X48960Y-58839D02*
X48938Y-58884D01*
X48915Y-58907D01*
X48870Y-58929D01*
X48735Y-58929D01*
X48690Y-58907D01*
X48668Y-58884D01*
X48645Y-58839D01*
X48645Y-58772D01*
X48668Y-58727D01*
X48690Y-58705D01*
X48735Y-58682D01*
X48870Y-58682D01*
X48915Y-58705D01*
X48938Y-58727D01*
X48960Y-58772D01*
X48960Y-58839D01*
X48960Y-58480D02*
X48645Y-58480D01*
X48735Y-58480D02*
X48690Y-58457D01*
X48668Y-58435D01*
X48645Y-58390D01*
X48645Y-58345D01*
X49005Y-58300D02*
X49005Y-57940D01*
X48960Y-57827D02*
X48488Y-57827D01*
X48488Y-57715D01*
X48510Y-57647D01*
X48555Y-57602D01*
X48600Y-57580D01*
X48690Y-57557D01*
X48758Y-57557D01*
X48848Y-57580D01*
X48893Y-57602D01*
X48938Y-57647D01*
X48960Y-57715D01*
X48960Y-57827D01*
X48960Y-57085D02*
X48735Y-57242D01*
X48960Y-57355D02*
X48488Y-57355D01*
X48488Y-57175D01*
X48510Y-57130D01*
X48533Y-57107D01*
X48578Y-57085D01*
X48645Y-57085D01*
X48690Y-57107D01*
X48713Y-57130D01*
X48735Y-57175D01*
X48735Y-57355D01*
X48488Y-56950D02*
X48960Y-56792D01*
X48488Y-56635D01*
X48690Y-56410D02*
X48668Y-56455D01*
X48645Y-56477D01*
X48600Y-56500D01*
X48578Y-56500D01*
X48533Y-56477D01*
X48510Y-56455D01*
X48488Y-56410D01*
X48488Y-56320D01*
X48510Y-56275D01*
X48533Y-56252D01*
X48578Y-56230D01*
X48600Y-56230D01*
X48645Y-56252D01*
X48668Y-56275D01*
X48690Y-56320D01*
X48690Y-56410D01*
X48713Y-56455D01*
X48735Y-56477D01*
X48780Y-56500D01*
X48870Y-56500D01*
X48915Y-56477D01*
X48938Y-56455D01*
X48960Y-56410D01*
X48960Y-56320D01*
X48938Y-56275D01*
X48915Y-56252D01*
X48870Y-56230D01*
X48780Y-56230D01*
X48735Y-56252D01*
X48713Y-56275D01*
X48690Y-56320D01*
X48690Y-55960D02*
X48668Y-56005D01*
X48645Y-56027D01*
X48600Y-56050D01*
X48578Y-56050D01*
X48533Y-56027D01*
X48510Y-56005D01*
X48488Y-55960D01*
X48488Y-55870D01*
X48510Y-55825D01*
X48533Y-55802D01*
X48578Y-55780D01*
X48600Y-55780D01*
X48645Y-55802D01*
X48668Y-55825D01*
X48690Y-55870D01*
X48690Y-55960D01*
X48713Y-56005D01*
X48735Y-56027D01*
X48780Y-56050D01*
X48870Y-56050D01*
X48915Y-56027D01*
X48938Y-56005D01*
X48960Y-55960D01*
X48960Y-55870D01*
X48938Y-55825D01*
X48915Y-55802D01*
X48870Y-55780D01*
X48780Y-55780D01*
X48735Y-55802D01*
X48713Y-55825D01*
X48690Y-55870D01*
X48488Y-55487D02*
X48488Y-55442D01*
X48510Y-55397D01*
X48533Y-55375D01*
X48578Y-55352D01*
X48668Y-55330D01*
X48780Y-55330D01*
X48870Y-55352D01*
X48915Y-55375D01*
X48938Y-55397D01*
X48960Y-55442D01*
X48960Y-55487D01*
X48938Y-55532D01*
X48915Y-55555D01*
X48870Y-55577D01*
X48780Y-55600D01*
X48668Y-55600D01*
X48578Y-55577D01*
X48533Y-55555D01*
X48510Y-55532D01*
X48488Y-55487D01*
X48488Y-55037D02*
X48488Y-54992D01*
X48510Y-54947D01*
X48533Y-54925D01*
X48578Y-54902D01*
X48668Y-54880D01*
X48780Y-54880D01*
X48870Y-54902D01*
X48915Y-54925D01*
X48938Y-54947D01*
X48960Y-54992D01*
X48960Y-55037D01*
X48938Y-55082D01*
X48915Y-55105D01*
X48870Y-55127D01*
X48780Y-55150D01*
X48668Y-55150D01*
X48578Y-55127D01*
X48533Y-55105D01*
X48510Y-55082D01*
X48488Y-55037D01*
X49005Y-54790D02*
X49005Y-54430D01*
X48960Y-54048D02*
X48735Y-54205D01*
X48960Y-54318D02*
X48488Y-54318D01*
X48488Y-54138D01*
X48510Y-54093D01*
X48533Y-54070D01*
X48578Y-54048D01*
X48645Y-54048D01*
X48690Y-54070D01*
X48713Y-54093D01*
X48735Y-54138D01*
X48735Y-54318D01*
X48488Y-53710D02*
X48825Y-53710D01*
X48893Y-53733D01*
X48938Y-53778D01*
X48960Y-53845D01*
X48960Y-53890D01*
X48960Y-53238D02*
X48960Y-53508D01*
X48960Y-53373D02*
X48488Y-53373D01*
X48555Y-53418D01*
X48600Y-53463D01*
X48623Y-53508D01*
X48533Y-53058D02*
X48510Y-53035D01*
X48488Y-52990D01*
X48488Y-52878D01*
X48510Y-52833D01*
X48533Y-52810D01*
X48578Y-52788D01*
X48623Y-52788D01*
X48690Y-52810D01*
X48960Y-53080D01*
X48960Y-52788D01*
X49005Y-52698D02*
X49005Y-52338D01*
X48960Y-52225D02*
X48645Y-52225D01*
X48735Y-52225D02*
X48690Y-52203D01*
X48668Y-52180D01*
X48645Y-52135D01*
X48645Y-52090D01*
X48938Y-51753D02*
X48960Y-51798D01*
X48960Y-51888D01*
X48938Y-51933D01*
X48893Y-51955D01*
X48713Y-51955D01*
X48668Y-51933D01*
X48645Y-51888D01*
X48645Y-51798D01*
X48668Y-51753D01*
X48713Y-51730D01*
X48758Y-51730D01*
X48803Y-51955D01*
X48645Y-51573D02*
X48960Y-51460D01*
X48645Y-51348D01*
X48488Y-51078D02*
X48488Y-51033D01*
X48510Y-50988D01*
X48533Y-50965D01*
X48578Y-50943D01*
X48668Y-50920D01*
X48780Y-50920D01*
X48870Y-50943D01*
X48915Y-50965D01*
X48938Y-50988D01*
X48960Y-51033D01*
X48960Y-51078D01*
X48938Y-51123D01*
X48915Y-51145D01*
X48870Y-51168D01*
X48780Y-51190D01*
X48668Y-51190D01*
X48578Y-51168D01*
X48533Y-51145D01*
X48510Y-51123D01*
X48488Y-51078D01*
X48488Y-50763D02*
X48488Y-50471D01*
X48668Y-50628D01*
X48668Y-50561D01*
X48690Y-50516D01*
X48713Y-50493D01*
X48758Y-50471D01*
X48870Y-50471D01*
X48915Y-50493D01*
X48938Y-50516D01*
X48960Y-50561D01*
X48960Y-50696D01*
X48938Y-50741D01*
X48915Y-50763D01*
X71323Y-51747D02*
X71323Y-51702D01*
X71345Y-51657D01*
X71368Y-51635D01*
X71413Y-51612D01*
X71503Y-51590D01*
X71615Y-51590D01*
X71705Y-51612D01*
X71750Y-51635D01*
X71773Y-51657D01*
X71795Y-51702D01*
X71795Y-51747D01*
X71773Y-51792D01*
X71750Y-51815D01*
X71705Y-51837D01*
X71615Y-51860D01*
X71503Y-51860D01*
X71413Y-51837D01*
X71368Y-51815D01*
X71345Y-51792D01*
X71323Y-51747D01*
X71323Y-51432D02*
X71323Y-51117D01*
X71795Y-51320D01*
X71300Y-50600D02*
X71908Y-51005D01*
X71795Y-50195D02*
X71795Y-50465D01*
X71795Y-50330D02*
X71323Y-50330D01*
X71390Y-50375D01*
X71435Y-50420D01*
X71458Y-50465D01*
X71323Y-50037D02*
X71323Y-49723D01*
X71795Y-49925D01*
X71300Y-49205D02*
X71908Y-49610D01*
X71368Y-49070D02*
X71345Y-49048D01*
X71323Y-49003D01*
X71323Y-48890D01*
X71345Y-48845D01*
X71368Y-48823D01*
X71413Y-48800D01*
X71458Y-48800D01*
X71525Y-48823D01*
X71795Y-49093D01*
X71795Y-48800D01*
X71323Y-48508D02*
X71323Y-48463D01*
X71345Y-48418D01*
X71368Y-48395D01*
X71413Y-48373D01*
X71503Y-48350D01*
X71615Y-48350D01*
X71705Y-48373D01*
X71750Y-48395D01*
X71773Y-48418D01*
X71795Y-48463D01*
X71795Y-48508D01*
X71773Y-48553D01*
X71750Y-48575D01*
X71705Y-48598D01*
X71615Y-48620D01*
X71503Y-48620D01*
X71413Y-48598D01*
X71368Y-48575D01*
X71345Y-48553D01*
X71323Y-48508D01*
X71795Y-47900D02*
X71795Y-48170D01*
X71795Y-48035D02*
X71323Y-48035D01*
X71390Y-48080D01*
X71435Y-48125D01*
X71458Y-48170D01*
X71480Y-47495D02*
X71795Y-47495D01*
X71300Y-47608D02*
X71638Y-47720D01*
X71638Y-47428D01*
X61559Y-60234D02*
X61244Y-60234D01*
X61289Y-60234D02*
X61266Y-60212D01*
X61244Y-60167D01*
X61244Y-60099D01*
X61266Y-60054D01*
X61311Y-60032D01*
X61559Y-60032D01*
X61311Y-60032D02*
X61266Y-60009D01*
X61244Y-59964D01*
X61244Y-59897D01*
X61266Y-59852D01*
X61311Y-59829D01*
X61559Y-59829D01*
X61559Y-59537D02*
X61536Y-59582D01*
X61514Y-59604D01*
X61469Y-59627D01*
X61334Y-59627D01*
X61289Y-59604D01*
X61266Y-59582D01*
X61244Y-59537D01*
X61244Y-59469D01*
X61266Y-59424D01*
X61289Y-59402D01*
X61334Y-59379D01*
X61469Y-59379D01*
X61514Y-59402D01*
X61536Y-59424D01*
X61559Y-59469D01*
X61559Y-59537D01*
X61244Y-59244D02*
X61244Y-59064D01*
X61086Y-59177D02*
X61491Y-59177D01*
X61536Y-59154D01*
X61559Y-59109D01*
X61559Y-59064D01*
X61559Y-58839D02*
X61536Y-58884D01*
X61514Y-58907D01*
X61469Y-58929D01*
X61334Y-58929D01*
X61289Y-58907D01*
X61266Y-58884D01*
X61244Y-58839D01*
X61244Y-58772D01*
X61266Y-58727D01*
X61289Y-58705D01*
X61334Y-58682D01*
X61469Y-58682D01*
X61514Y-58705D01*
X61536Y-58727D01*
X61559Y-58772D01*
X61559Y-58839D01*
X61559Y-58480D02*
X61244Y-58480D01*
X61334Y-58480D02*
X61289Y-58457D01*
X61266Y-58435D01*
X61244Y-58390D01*
X61244Y-58345D01*
X61604Y-58300D02*
X61604Y-57940D01*
X61559Y-57827D02*
X61086Y-57827D01*
X61086Y-57715D01*
X61109Y-57647D01*
X61154Y-57602D01*
X61199Y-57580D01*
X61289Y-57557D01*
X61356Y-57557D01*
X61446Y-57580D01*
X61491Y-57602D01*
X61536Y-57647D01*
X61559Y-57715D01*
X61559Y-57827D01*
X61559Y-57085D02*
X61334Y-57242D01*
X61559Y-57355D02*
X61086Y-57355D01*
X61086Y-57175D01*
X61109Y-57130D01*
X61131Y-57107D01*
X61176Y-57085D01*
X61244Y-57085D01*
X61289Y-57107D01*
X61311Y-57130D01*
X61334Y-57175D01*
X61334Y-57355D01*
X61086Y-56950D02*
X61559Y-56792D01*
X61086Y-56635D01*
X61289Y-56410D02*
X61266Y-56455D01*
X61244Y-56477D01*
X61199Y-56500D01*
X61176Y-56500D01*
X61131Y-56477D01*
X61109Y-56455D01*
X61086Y-56410D01*
X61086Y-56320D01*
X61109Y-56275D01*
X61131Y-56252D01*
X61176Y-56230D01*
X61199Y-56230D01*
X61244Y-56252D01*
X61266Y-56275D01*
X61289Y-56320D01*
X61289Y-56410D01*
X61311Y-56455D01*
X61334Y-56477D01*
X61379Y-56500D01*
X61469Y-56500D01*
X61514Y-56477D01*
X61536Y-56455D01*
X61559Y-56410D01*
X61559Y-56320D01*
X61536Y-56275D01*
X61514Y-56252D01*
X61469Y-56230D01*
X61379Y-56230D01*
X61334Y-56252D01*
X61311Y-56275D01*
X61289Y-56320D01*
X61289Y-55960D02*
X61266Y-56005D01*
X61244Y-56027D01*
X61199Y-56050D01*
X61176Y-56050D01*
X61131Y-56027D01*
X61109Y-56005D01*
X61086Y-55960D01*
X61086Y-55870D01*
X61109Y-55825D01*
X61131Y-55802D01*
X61176Y-55780D01*
X61199Y-55780D01*
X61244Y-55802D01*
X61266Y-55825D01*
X61289Y-55870D01*
X61289Y-55960D01*
X61311Y-56005D01*
X61334Y-56027D01*
X61379Y-56050D01*
X61469Y-56050D01*
X61514Y-56027D01*
X61536Y-56005D01*
X61559Y-55960D01*
X61559Y-55870D01*
X61536Y-55825D01*
X61514Y-55802D01*
X61469Y-55780D01*
X61379Y-55780D01*
X61334Y-55802D01*
X61311Y-55825D01*
X61289Y-55870D01*
X61086Y-55487D02*
X61086Y-55442D01*
X61109Y-55397D01*
X61131Y-55375D01*
X61176Y-55352D01*
X61266Y-55330D01*
X61379Y-55330D01*
X61469Y-55352D01*
X61514Y-55375D01*
X61536Y-55397D01*
X61559Y-55442D01*
X61559Y-55487D01*
X61536Y-55532D01*
X61514Y-55555D01*
X61469Y-55577D01*
X61379Y-55600D01*
X61266Y-55600D01*
X61176Y-55577D01*
X61131Y-55555D01*
X61109Y-55532D01*
X61086Y-55487D01*
X61086Y-55037D02*
X61086Y-54992D01*
X61109Y-54947D01*
X61131Y-54925D01*
X61176Y-54902D01*
X61266Y-54880D01*
X61379Y-54880D01*
X61469Y-54902D01*
X61514Y-54925D01*
X61536Y-54947D01*
X61559Y-54992D01*
X61559Y-55037D01*
X61536Y-55082D01*
X61514Y-55105D01*
X61469Y-55127D01*
X61379Y-55150D01*
X61266Y-55150D01*
X61176Y-55127D01*
X61131Y-55105D01*
X61109Y-55082D01*
X61086Y-55037D01*
X61604Y-54790D02*
X61604Y-54430D01*
X61559Y-54048D02*
X61334Y-54205D01*
X61559Y-54318D02*
X61086Y-54318D01*
X61086Y-54138D01*
X61109Y-54093D01*
X61131Y-54070D01*
X61176Y-54048D01*
X61244Y-54048D01*
X61289Y-54070D01*
X61311Y-54093D01*
X61334Y-54138D01*
X61334Y-54318D01*
X61086Y-53710D02*
X61424Y-53710D01*
X61491Y-53733D01*
X61536Y-53778D01*
X61559Y-53845D01*
X61559Y-53890D01*
X61559Y-53238D02*
X61559Y-53508D01*
X61559Y-53373D02*
X61086Y-53373D01*
X61154Y-53418D01*
X61199Y-53463D01*
X61221Y-53508D01*
X61131Y-53058D02*
X61109Y-53035D01*
X61086Y-52990D01*
X61086Y-52878D01*
X61109Y-52833D01*
X61131Y-52810D01*
X61176Y-52788D01*
X61221Y-52788D01*
X61289Y-52810D01*
X61559Y-53080D01*
X61559Y-52788D01*
X61604Y-52698D02*
X61604Y-52338D01*
X61559Y-52225D02*
X61244Y-52225D01*
X61334Y-52225D02*
X61289Y-52203D01*
X61266Y-52180D01*
X61244Y-52135D01*
X61244Y-52090D01*
X61536Y-51753D02*
X61559Y-51798D01*
X61559Y-51888D01*
X61536Y-51933D01*
X61491Y-51955D01*
X61311Y-51955D01*
X61266Y-51933D01*
X61244Y-51888D01*
X61244Y-51798D01*
X61266Y-51753D01*
X61311Y-51730D01*
X61356Y-51730D01*
X61401Y-51955D01*
X61244Y-51573D02*
X61559Y-51460D01*
X61244Y-51348D01*
X61086Y-51078D02*
X61086Y-51033D01*
X61109Y-50988D01*
X61131Y-50965D01*
X61176Y-50943D01*
X61266Y-50920D01*
X61379Y-50920D01*
X61469Y-50943D01*
X61514Y-50965D01*
X61536Y-50988D01*
X61559Y-51033D01*
X61559Y-51078D01*
X61536Y-51123D01*
X61514Y-51145D01*
X61469Y-51168D01*
X61379Y-51190D01*
X61266Y-51190D01*
X61176Y-51168D01*
X61131Y-51145D01*
X61109Y-51123D01*
X61086Y-51078D01*
X61086Y-50763D02*
X61086Y-50471D01*
X61266Y-50628D01*
X61266Y-50561D01*
X61289Y-50516D01*
X61311Y-50493D01*
X61356Y-50471D01*
X61469Y-50471D01*
X61514Y-50493D01*
X61536Y-50516D01*
X61559Y-50561D01*
X61559Y-50696D01*
X61536Y-50741D01*
X61514Y-50763D01*
G54D13*
X43523Y-32720D02*
X43523Y-39059D01*
X43523Y-39059D02*
X34586Y-39059D01*
X34586Y-32720D02*
X43523Y-32720D01*
G54D14*
X56755Y-37279D02*
X56755Y-33736D01*
X56755Y-33736D02*
X60299Y-33736D01*
X60299Y-33736D02*
X60299Y-37279D01*
X60299Y-37279D02*
X56755Y-37279D01*
X57011Y-37061D02*
G75*
G03X57011Y-37061I-53J0D01*
G74*
G01*
G54D13*
X62448Y-39263D02*
X56448Y-39263D01*
X62448Y-39263D02*
X62448Y-40263D01*
X62454Y-40269D02*
X56442Y-40269D01*
X56442Y-40269D02*
X56442Y-39261D01*
G54D15*
X34015Y-29251D02*
X34625Y-29251D01*
X34625Y-29251D02*
X34625Y-26653D01*
X34625Y-26653D02*
X34025Y-26653D01*
G54D16*
X39999Y-30512D02*
X34015Y-30512D01*
X34015Y-30512D02*
X34015Y-25392D01*
X34015Y-25392D02*
X39999Y-25392D01*
X39999Y-25392D02*
X39999Y-30512D01*
G54D15*
X50686Y-41617D02*
X51006Y-41617D01*
X50996Y-41177D02*
X50686Y-41177D01*
X51006Y-41077D02*
X51006Y-41717D01*
X51006Y-41717D02*
X50686Y-41717D01*
X50686Y-41717D02*
X50686Y-41077D01*
X50686Y-41077D02*
X51006Y-41077D01*
X47207Y-32654D02*
X46887Y-32654D01*
X46897Y-33094D02*
X47207Y-33094D01*
X46887Y-33194D02*
X46887Y-32554D01*
X46887Y-32554D02*
X47207Y-32554D01*
X47207Y-32554D02*
X47207Y-33194D01*
X47207Y-33194D02*
X46887Y-33194D01*
X52064Y-39905D02*
X52384Y-39905D01*
X52374Y-39465D02*
X52064Y-39465D01*
X52384Y-39365D02*
X52384Y-40005D01*
X52384Y-40005D02*
X52064Y-40005D01*
X52064Y-40005D02*
X52064Y-39365D01*
X52064Y-39365D02*
X52384Y-39365D01*
G54D17*
X49023Y-35992D02*
X49023Y-34228D01*
X49219Y-36188D02*
X50983Y-36188D01*
X49219Y-36188D02*
X49023Y-35992D01*
G54D16*
X49317Y-35992D02*
X49219Y-35992D01*
X49219Y-35992D02*
X49219Y-35894D01*
X50787Y-35894D02*
X50787Y-35992D01*
X50787Y-35992D02*
X50689Y-35992D01*
X50689Y-34424D02*
X50787Y-34424D01*
X50787Y-34424D02*
X50787Y-34522D01*
X49219Y-34522D02*
X49219Y-34424D01*
X49219Y-34424D02*
X49317Y-34424D01*
G54D17*
X50983Y-34228D02*
X50983Y-36188D01*
X49023Y-34228D02*
X50983Y-34228D01*
G54D15*
X47567Y-35954D02*
X47567Y-36274D01*
X48007Y-36264D02*
X48007Y-35954D01*
X48107Y-36274D02*
X47467Y-36274D01*
X47467Y-36274D02*
X47467Y-35954D01*
X47467Y-35954D02*
X48107Y-35954D01*
X48107Y-35954D02*
X48107Y-36274D01*
X45920Y-32201D02*
X45920Y-31801D01*
X45920Y-31801D02*
X46520Y-31801D01*
X46520Y-31801D02*
X46520Y-32201D01*
X46520Y-32601D02*
X46520Y-33001D01*
X46520Y-33001D02*
X45920Y-33001D01*
X45920Y-33001D02*
X45920Y-32601D01*
X52871Y-39924D02*
X53191Y-39924D01*
X53181Y-39484D02*
X52871Y-39484D01*
X53191Y-39384D02*
X53191Y-40024D01*
X53191Y-40024D02*
X52871Y-40024D01*
X52871Y-40024D02*
X52871Y-39384D01*
X52871Y-39384D02*
X53191Y-39384D01*
X51217Y-38920D02*
X51537Y-38920D01*
X51527Y-38480D02*
X51217Y-38480D01*
X51537Y-38380D02*
X51537Y-39020D01*
X51537Y-39020D02*
X51217Y-39020D01*
X51217Y-39020D02*
X51217Y-38380D01*
X51217Y-38380D02*
X51537Y-38380D01*
X48875Y-38881D02*
X49195Y-38881D01*
X49185Y-38441D02*
X48875Y-38441D01*
X49195Y-38341D02*
X49195Y-38981D01*
X49195Y-38981D02*
X48875Y-38981D01*
X48875Y-38981D02*
X48875Y-38341D01*
X48875Y-38341D02*
X49195Y-38341D01*
X48388Y-32654D02*
X48068Y-32654D01*
X48078Y-33094D02*
X48388Y-33094D01*
X48068Y-33194D02*
X48068Y-32554D01*
X48068Y-32554D02*
X48388Y-32554D01*
X48388Y-32554D02*
X48388Y-33194D01*
X48388Y-33194D02*
X48068Y-33194D01*
X47797Y-32654D02*
X47477Y-32654D01*
X47487Y-33094D02*
X47797Y-33094D01*
X47477Y-33194D02*
X47477Y-32554D01*
X47477Y-32554D02*
X47797Y-32554D01*
X47797Y-32554D02*
X47797Y-33194D01*
X47797Y-33194D02*
X47477Y-33194D01*
X62561Y-36787D02*
X62241Y-36787D01*
X62251Y-37227D02*
X62561Y-37227D01*
X62241Y-37327D02*
X62241Y-36687D01*
X62241Y-36687D02*
X62561Y-36687D01*
X62561Y-36687D02*
X62561Y-37327D01*
X62561Y-37327D02*
X62241Y-37327D01*
X54190Y-41342D02*
X54510Y-41342D01*
X54500Y-40902D02*
X54190Y-40902D01*
X54510Y-40802D02*
X54510Y-41442D01*
X54510Y-41442D02*
X54190Y-41442D01*
X54190Y-41442D02*
X54190Y-40802D01*
X54190Y-40802D02*
X54510Y-40802D01*
X62818Y-35160D02*
X62818Y-34840D01*
X62378Y-34850D02*
X62378Y-35160D01*
X62278Y-34840D02*
X62918Y-34840D01*
X62918Y-34840D02*
X62918Y-35160D01*
X62918Y-35160D02*
X62278Y-35160D01*
X62278Y-35160D02*
X62278Y-34840D01*
X60002Y-32575D02*
X59682Y-32575D01*
X59692Y-33015D02*
X60002Y-33015D01*
X59682Y-33115D02*
X59682Y-32475D01*
X59682Y-32475D02*
X60002Y-32475D01*
X60002Y-32475D02*
X60002Y-33115D01*
X60002Y-33115D02*
X59682Y-33115D01*
X58693Y-31157D02*
X58373Y-31157D01*
X58383Y-31597D02*
X58693Y-31597D01*
X58373Y-31697D02*
X58373Y-31057D01*
X58373Y-31057D02*
X58693Y-31057D01*
X58693Y-31057D02*
X58693Y-31697D01*
X58693Y-31697D02*
X58373Y-31697D01*
X60706Y-31538D02*
X61026Y-31538D01*
X61016Y-31098D02*
X60706Y-31098D01*
X61026Y-30998D02*
X61026Y-31638D01*
X61026Y-31638D02*
X60706Y-31638D01*
X60706Y-31638D02*
X60706Y-30998D01*
X60706Y-30998D02*
X61026Y-30998D01*
X59372Y-32575D02*
X59052Y-32575D01*
X59062Y-33015D02*
X59372Y-33015D01*
X59052Y-33115D02*
X59052Y-32475D01*
X59052Y-32475D02*
X59372Y-32475D01*
X59372Y-32475D02*
X59372Y-33115D01*
X59372Y-33115D02*
X59052Y-33115D01*
X54550Y-39195D02*
X54550Y-38875D01*
X54110Y-38885D02*
X54110Y-39195D01*
X54010Y-38875D02*
X54650Y-38875D01*
X54650Y-38875D02*
X54650Y-39195D01*
X54650Y-39195D02*
X54010Y-39195D01*
X54010Y-39195D02*
X54010Y-38875D01*
X54452Y-39923D02*
X54452Y-39603D01*
X54012Y-39613D02*
X54012Y-39923D01*
X53912Y-39603D02*
X54552Y-39603D01*
X54552Y-39603D02*
X54552Y-39923D01*
X54552Y-39923D02*
X53912Y-39923D01*
X53912Y-39923D02*
X53912Y-39603D01*
X52897Y-40868D02*
X52897Y-40548D01*
X52457Y-40558D02*
X52457Y-40868D01*
X52357Y-40548D02*
X52997Y-40548D01*
X52997Y-40548D02*
X52997Y-40868D01*
X52997Y-40868D02*
X52357Y-40868D01*
X52357Y-40868D02*
X52357Y-40548D01*
X54727Y-35986D02*
X54727Y-35666D01*
X54287Y-35676D02*
X54287Y-35986D01*
X54187Y-35666D02*
X54827Y-35666D01*
X54827Y-35666D02*
X54827Y-35986D01*
X54827Y-35986D02*
X54187Y-35986D01*
X54187Y-35986D02*
X54187Y-35666D01*
X54668Y-36675D02*
X54668Y-36355D01*
X54228Y-36365D02*
X54228Y-36675D01*
X54128Y-36355D02*
X54768Y-36355D01*
X54768Y-36355D02*
X54768Y-36675D01*
X54768Y-36675D02*
X54128Y-36675D01*
X54128Y-36675D02*
X54128Y-36355D01*
X53802Y-37699D02*
X53802Y-37379D01*
X53362Y-37389D02*
X53362Y-37699D01*
X53262Y-37379D02*
X53902Y-37379D01*
X53902Y-37379D02*
X53902Y-37699D01*
X53902Y-37699D02*
X53262Y-37699D01*
X53262Y-37699D02*
X53262Y-37379D01*
X46123Y-34975D02*
X46443Y-34975D01*
X46433Y-34535D02*
X46123Y-34535D01*
X46443Y-34435D02*
X46443Y-35075D01*
X46443Y-35075D02*
X46123Y-35075D01*
X46123Y-35075D02*
X46123Y-34435D01*
X46123Y-34435D02*
X46443Y-34435D01*
X46451Y-35740D02*
X46131Y-35740D01*
X46141Y-36180D02*
X46451Y-36180D01*
X46131Y-36280D02*
X46131Y-35640D01*
X46131Y-35640D02*
X46451Y-35640D01*
X46451Y-35640D02*
X46451Y-36280D01*
X46451Y-36280D02*
X46131Y-36280D01*
X45225Y-37058D02*
X45545Y-37058D01*
X45535Y-36618D02*
X45225Y-36618D01*
X45545Y-36518D02*
X45545Y-37158D01*
X45545Y-37158D02*
X45225Y-37158D01*
X45225Y-37158D02*
X45225Y-36518D01*
X45225Y-36518D02*
X45545Y-36518D01*
X45565Y-37898D02*
X45245Y-37898D01*
X45255Y-38338D02*
X45565Y-38338D01*
X45245Y-38438D02*
X45245Y-37798D01*
X45245Y-37798D02*
X45565Y-37798D01*
X45565Y-37798D02*
X45565Y-38438D01*
X45565Y-38438D02*
X45245Y-38438D01*
X44617Y-40368D02*
X44617Y-40048D01*
X44177Y-40058D02*
X44177Y-40368D01*
X44077Y-40048D02*
X44717Y-40048D01*
X44717Y-40048D02*
X44717Y-40368D01*
X44717Y-40368D02*
X44077Y-40368D01*
X44077Y-40368D02*
X44077Y-40048D01*
X57417Y-38422D02*
X57417Y-38742D01*
X57857Y-38732D02*
X57857Y-38422D01*
X57957Y-38742D02*
X57317Y-38742D01*
X57317Y-38742D02*
X57317Y-38422D01*
X57317Y-38422D02*
X57957Y-38422D01*
X57957Y-38422D02*
X57957Y-38742D01*
X45440Y-33455D02*
X45440Y-33135D01*
X45000Y-33145D02*
X45000Y-33455D01*
X44900Y-33135D02*
X45540Y-33135D01*
X45540Y-33135D02*
X45540Y-33455D01*
X45540Y-33455D02*
X44900Y-33455D01*
X44900Y-33455D02*
X44900Y-33135D01*
X44946Y-34436D02*
X45266Y-34436D01*
X45256Y-33996D02*
X44946Y-33996D01*
X45266Y-33896D02*
X45266Y-34536D01*
X45266Y-34536D02*
X44946Y-34536D01*
X44946Y-34536D02*
X44946Y-33896D01*
X44946Y-33896D02*
X45266Y-33896D01*
X58559Y-38462D02*
X58559Y-38782D01*
X58999Y-38772D02*
X58999Y-38462D01*
X59099Y-38782D02*
X58459Y-38782D01*
X58459Y-38782D02*
X58459Y-38462D01*
X58459Y-38462D02*
X59099Y-38462D01*
X59099Y-38462D02*
X59099Y-38782D01*
X40391Y-29944D02*
X40711Y-29944D01*
X40701Y-29504D02*
X40391Y-29504D01*
X40711Y-29404D02*
X40711Y-30044D01*
X40711Y-30044D02*
X40391Y-30044D01*
X40391Y-30044D02*
X40391Y-29404D01*
X40391Y-29404D02*
X40711Y-29404D01*
G54D10*
X50846Y-39192D02*
X49586Y-39192D01*
X49586Y-39192D02*
X49586Y-38208D01*
X49586Y-38208D02*
X50846Y-38208D01*
X50846Y-38208D02*
X50846Y-39192D01*
X59015Y-30846D02*
X60275Y-30846D01*
X60275Y-30846D02*
X60275Y-31830D01*
X60275Y-31830D02*
X59015Y-31830D01*
X59015Y-31830D02*
X59015Y-30846D01*
G54D15*
X61197Y-41099D02*
X61197Y-41419D01*
X61637Y-41409D02*
X61637Y-41099D01*
X61737Y-41419D02*
X61097Y-41419D01*
X61097Y-41419D02*
X61097Y-41099D01*
X61097Y-41099D02*
X61737Y-41099D01*
X61737Y-41099D02*
X61737Y-41419D01*
X53843Y-33585D02*
X53843Y-33985D01*
X53843Y-33985D02*
X53243Y-33985D01*
X53243Y-33985D02*
X53243Y-33585D01*
X53243Y-33185D02*
X53243Y-32785D01*
X53243Y-32785D02*
X53843Y-32785D01*
X53843Y-32785D02*
X53843Y-33185D01*
X63382Y-37025D02*
X63382Y-37345D01*
X63822Y-37335D02*
X63822Y-37025D01*
X63922Y-37345D02*
X63282Y-37345D01*
X63282Y-37345D02*
X63282Y-37025D01*
X63282Y-37025D02*
X63922Y-37025D01*
X63922Y-37025D02*
X63922Y-37345D01*
G54D13*
X62944Y-39964D02*
X62944Y-41964D01*
X62944Y-39964D02*
X63944Y-39964D01*
X63950Y-39964D02*
X63950Y-41964D01*
X63950Y-41964D02*
X62942Y-41964D01*
X71866Y-36375D02*
X71866Y-41576D01*
X71866Y-41576D02*
X65929Y-41576D01*
X65929Y-41576D02*
X65929Y-36375D01*
X65929Y-36375D02*
X71866Y-36375D01*
X71866Y-30470D02*
X71866Y-35671D01*
X71866Y-35671D02*
X65929Y-35671D01*
X65929Y-35671D02*
X65929Y-30470D01*
X65929Y-30470D02*
X71866Y-30470D01*
X47596Y-22425D02*
X52797Y-22425D01*
X52797Y-22425D02*
X52797Y-28362D01*
X52797Y-28362D02*
X47596Y-28362D01*
X47596Y-28362D02*
X47596Y-22425D01*
X40706Y-22425D02*
X45907Y-22425D01*
X45907Y-22425D02*
X45907Y-28362D01*
X45907Y-28362D02*
X40706Y-28362D01*
X40706Y-28362D02*
X40706Y-22425D01*
X61375Y-22622D02*
X66576Y-22622D01*
X66576Y-22622D02*
X66576Y-28559D01*
X66576Y-28559D02*
X61375Y-28559D01*
X61375Y-28559D02*
X61375Y-22622D01*
X54486Y-22425D02*
X59687Y-22425D01*
X59687Y-22425D02*
X59687Y-28362D01*
X59687Y-28362D02*
X54486Y-28362D01*
X54486Y-28362D02*
X54486Y-22425D01*
G54D15*
X40918Y-50406D02*
X40918Y-50086D01*
X40478Y-50096D02*
X40478Y-50406D01*
X40378Y-50086D02*
X41018Y-50086D01*
X41018Y-50086D02*
X41018Y-50406D01*
X41018Y-50406D02*
X40378Y-50406D01*
X40378Y-50406D02*
X40378Y-50086D01*
X38872Y-52503D02*
X38872Y-52823D01*
X39312Y-52813D02*
X39312Y-52503D01*
X39412Y-52823D02*
X38772Y-52823D01*
X38772Y-52823D02*
X38772Y-52503D01*
X38772Y-52503D02*
X39412Y-52503D01*
X39412Y-52503D02*
X39412Y-52823D01*
X39981Y-55248D02*
X39981Y-54928D01*
X39541Y-54938D02*
X39541Y-55248D01*
X39441Y-54928D02*
X40081Y-54928D01*
X40081Y-54928D02*
X40081Y-55248D01*
X40081Y-55248D02*
X39441Y-55248D01*
X39441Y-55248D02*
X39441Y-54928D01*
X43993Y-51568D02*
X44313Y-51568D01*
X44303Y-51128D02*
X43993Y-51128D01*
X44313Y-51028D02*
X44313Y-51668D01*
X44313Y-51668D02*
X43993Y-51668D01*
X43993Y-51668D02*
X43993Y-51028D01*
X43993Y-51028D02*
X44313Y-51028D01*
X39458Y-53976D02*
X39458Y-53656D01*
X39018Y-53666D02*
X39018Y-53976D01*
X38918Y-53656D02*
X39558Y-53656D01*
X39558Y-53656D02*
X39558Y-53976D01*
X39558Y-53976D02*
X38918Y-53976D01*
X38918Y-53976D02*
X38918Y-53656D01*
X41965Y-49334D02*
X42285Y-49334D01*
X42275Y-48894D02*
X41965Y-48894D01*
X42285Y-48794D02*
X42285Y-49434D01*
X42285Y-49434D02*
X41965Y-49434D01*
X41965Y-49434D02*
X41965Y-48794D01*
X41965Y-48794D02*
X42285Y-48794D01*
X43107Y-49324D02*
X43427Y-49324D01*
X43417Y-48884D02*
X43107Y-48884D01*
X43427Y-48784D02*
X43427Y-49424D01*
X43427Y-49424D02*
X43107Y-49424D01*
X43107Y-49424D02*
X43107Y-48784D01*
X43107Y-48784D02*
X43427Y-48784D01*
X43304Y-54284D02*
X43624Y-54284D01*
X43614Y-53844D02*
X43304Y-53844D01*
X43624Y-53744D02*
X43624Y-54384D01*
X43624Y-54384D02*
X43304Y-54384D01*
X43304Y-54384D02*
X43304Y-53744D01*
X43304Y-53744D02*
X43624Y-53744D01*
G54D17*
X41564Y-50541D02*
X43061Y-50541D01*
X41486Y-50620D02*
X41486Y-52116D01*
X41564Y-50541D02*
X41486Y-50620D01*
X43061Y-52116D02*
X41486Y-52116D01*
X43061Y-50541D02*
X43061Y-52116D01*
G54D13*
X40915Y-49478D02*
X34576Y-49478D01*
X34576Y-49478D02*
X34576Y-42352D01*
X34576Y-42352D02*
X40915Y-42352D01*
X40915Y-42352D02*
X40915Y-49478D01*
G54D15*
X42337Y-53766D02*
X42337Y-53366D01*
X42337Y-53366D02*
X42937Y-53366D01*
X42937Y-53366D02*
X42937Y-53766D01*
X42937Y-54166D02*
X42937Y-54566D01*
X42937Y-54566D02*
X42337Y-54566D01*
X42337Y-54566D02*
X42337Y-54166D01*
G54D10*
X42135Y-43129D02*
X42135Y-42677D01*
X42834Y-43129D02*
X42135Y-43129D01*
X42844Y-42667D02*
X42834Y-43129D01*
X44832Y-42687D02*
X44822Y-43149D01*
X44822Y-43149D02*
X44124Y-43149D01*
X44124Y-43149D02*
X44124Y-42696D01*
G54D16*
X45423Y-46998D02*
X41486Y-46998D01*
X41486Y-46998D02*
X41486Y-42667D01*
X41486Y-42667D02*
X45423Y-42667D01*
X45423Y-42667D02*
X45423Y-46998D01*
G54D10*
X44183Y-60039D02*
X44183Y-60492D01*
X43484Y-60039D02*
X44183Y-60039D01*
X43474Y-60501D02*
X43484Y-60039D01*
X41486Y-60482D02*
X41496Y-60019D01*
X41496Y-60019D02*
X42194Y-60019D01*
X42194Y-60019D02*
X42194Y-60472D01*
G54D16*
X40895Y-56171D02*
X44832Y-56171D01*
X44832Y-56171D02*
X44832Y-60501D01*
X44832Y-60501D02*
X40895Y-60501D01*
X40895Y-60501D02*
X40895Y-56171D01*
G54D15*
X38527Y-59915D02*
X39327Y-59915D01*
X39477Y-59865D02*
X38377Y-59865D01*
X38277Y-59815D02*
X39577Y-59815D01*
X39677Y-59765D02*
X38177Y-59765D01*
X39727Y-59715D02*
X38127Y-59715D01*
X38027Y-59665D02*
X39827Y-59665D01*
X40477Y-58415D02*
G75*
G03X40477Y-58415I-1550J0D01*
G74*
G01*
X37277Y-60065D02*
X40577Y-60065D01*
X40577Y-60065D02*
X40577Y-57065D01*
X40577Y-57065D02*
X40277Y-56765D01*
X40277Y-56765D02*
X37577Y-56765D01*
X37577Y-56765D02*
X37277Y-57065D01*
X37277Y-57065D02*
X37277Y-60065D01*
X38927Y-56965D02*
X38927Y-57265D01*
X38777Y-57115D02*
X39077Y-57115D01*
X54698Y-50406D02*
X54698Y-50086D01*
X54258Y-50096D02*
X54258Y-50406D01*
X54158Y-50086D02*
X54798Y-50086D01*
X54798Y-50086D02*
X54798Y-50406D01*
X54798Y-50406D02*
X54158Y-50406D01*
X54158Y-50406D02*
X54158Y-50086D01*
X52652Y-52503D02*
X52652Y-52823D01*
X53092Y-52813D02*
X53092Y-52503D01*
X53192Y-52823D02*
X52552Y-52823D01*
X52552Y-52823D02*
X52552Y-52503D01*
X52552Y-52503D02*
X53192Y-52503D01*
X53192Y-52503D02*
X53192Y-52823D01*
X53761Y-55248D02*
X53761Y-54928D01*
X53321Y-54938D02*
X53321Y-55248D01*
X53221Y-54928D02*
X53861Y-54928D01*
X53861Y-54928D02*
X53861Y-55248D01*
X53861Y-55248D02*
X53221Y-55248D01*
X53221Y-55248D02*
X53221Y-54928D01*
X57773Y-51568D02*
X58093Y-51568D01*
X58083Y-51128D02*
X57773Y-51128D01*
X58093Y-51028D02*
X58093Y-51668D01*
X58093Y-51668D02*
X57773Y-51668D01*
X57773Y-51668D02*
X57773Y-51028D01*
X57773Y-51028D02*
X58093Y-51028D01*
X53237Y-53976D02*
X53237Y-53656D01*
X52797Y-53666D02*
X52797Y-53976D01*
X52697Y-53656D02*
X53337Y-53656D01*
X53337Y-53656D02*
X53337Y-53976D01*
X53337Y-53976D02*
X52697Y-53976D01*
X52697Y-53976D02*
X52697Y-53656D01*
X55745Y-49334D02*
X56065Y-49334D01*
X56055Y-48894D02*
X55745Y-48894D01*
X56065Y-48794D02*
X56065Y-49434D01*
X56065Y-49434D02*
X55745Y-49434D01*
X55745Y-49434D02*
X55745Y-48794D01*
X55745Y-48794D02*
X56065Y-48794D01*
X56887Y-49324D02*
X57207Y-49324D01*
X57197Y-48884D02*
X56887Y-48884D01*
X57207Y-48784D02*
X57207Y-49424D01*
X57207Y-49424D02*
X56887Y-49424D01*
X56887Y-49424D02*
X56887Y-48784D01*
X56887Y-48784D02*
X57207Y-48784D01*
X57084Y-54284D02*
X57404Y-54284D01*
X57394Y-53844D02*
X57084Y-53844D01*
X57404Y-53744D02*
X57404Y-54384D01*
X57404Y-54384D02*
X57084Y-54384D01*
X57084Y-54384D02*
X57084Y-53744D01*
X57084Y-53744D02*
X57404Y-53744D01*
G54D17*
X55344Y-50541D02*
X56840Y-50541D01*
X55265Y-50620D02*
X55265Y-52116D01*
X55344Y-50541D02*
X55265Y-50620D01*
X56840Y-52116D02*
X55265Y-52116D01*
X56840Y-50541D02*
X56840Y-52116D01*
G54D13*
X54694Y-49478D02*
X48356Y-49478D01*
X48356Y-49478D02*
X48356Y-42352D01*
X48356Y-42352D02*
X54694Y-42352D01*
X54694Y-42352D02*
X54694Y-49478D01*
G54D15*
X56117Y-53766D02*
X56117Y-53366D01*
X56117Y-53366D02*
X56717Y-53366D01*
X56717Y-53366D02*
X56717Y-53766D01*
X56717Y-54166D02*
X56717Y-54566D01*
X56717Y-54566D02*
X56117Y-54566D01*
X56117Y-54566D02*
X56117Y-54166D01*
G54D10*
X55915Y-43129D02*
X55915Y-42677D01*
X56614Y-43129D02*
X55915Y-43129D01*
X56624Y-42667D02*
X56614Y-43129D01*
X58612Y-42687D02*
X58602Y-43149D01*
X58602Y-43149D02*
X57903Y-43149D01*
X57903Y-43149D02*
X57903Y-42696D01*
G54D16*
X59202Y-46998D02*
X55265Y-46998D01*
X55265Y-46998D02*
X55265Y-42667D01*
X55265Y-42667D02*
X59202Y-42667D01*
X59202Y-42667D02*
X59202Y-46998D01*
G54D10*
X57962Y-60039D02*
X57962Y-60492D01*
X57263Y-60039D02*
X57962Y-60039D01*
X57253Y-60501D02*
X57263Y-60039D01*
X55265Y-60482D02*
X55275Y-60019D01*
X55275Y-60019D02*
X55974Y-60019D01*
X55974Y-60019D02*
X55974Y-60472D01*
G54D16*
X54675Y-56171D02*
X58612Y-56171D01*
X58612Y-56171D02*
X58612Y-60501D01*
X58612Y-60501D02*
X54675Y-60501D01*
X54675Y-60501D02*
X54675Y-56171D01*
G54D15*
X52306Y-59915D02*
X53106Y-59915D01*
X53256Y-59865D02*
X52156Y-59865D01*
X52056Y-59815D02*
X53356Y-59815D01*
X53456Y-59765D02*
X51956Y-59765D01*
X53506Y-59715D02*
X51906Y-59715D01*
X51806Y-59665D02*
X53606Y-59665D01*
X54256Y-58415D02*
G75*
G03X54256Y-58415I-1550J0D01*
G74*
G01*
X51056Y-60065D02*
X54356Y-60065D01*
X54356Y-60065D02*
X54356Y-57065D01*
X54356Y-57065D02*
X54056Y-56765D01*
X54056Y-56765D02*
X51356Y-56765D01*
X51356Y-56765D02*
X51056Y-57065D01*
X51056Y-57065D02*
X51056Y-60065D01*
X52706Y-56965D02*
X52706Y-57265D01*
X52556Y-57115D02*
X52856Y-57115D01*
X67296Y-50406D02*
X67296Y-50086D01*
X66856Y-50096D02*
X66856Y-50406D01*
X66756Y-50086D02*
X67396Y-50086D01*
X67396Y-50086D02*
X67396Y-50406D01*
X67396Y-50406D02*
X66756Y-50406D01*
X66756Y-50406D02*
X66756Y-50086D01*
X65250Y-52503D02*
X65250Y-52823D01*
X65690Y-52813D02*
X65690Y-52503D01*
X65790Y-52823D02*
X65150Y-52823D01*
X65150Y-52823D02*
X65150Y-52503D01*
X65150Y-52503D02*
X65790Y-52503D01*
X65790Y-52503D02*
X65790Y-52823D01*
X66359Y-55248D02*
X66359Y-54928D01*
X65919Y-54938D02*
X65919Y-55248D01*
X65819Y-54928D02*
X66459Y-54928D01*
X66459Y-54928D02*
X66459Y-55248D01*
X66459Y-55248D02*
X65819Y-55248D01*
X65819Y-55248D02*
X65819Y-54928D01*
X70371Y-51568D02*
X70691Y-51568D01*
X70681Y-51128D02*
X70371Y-51128D01*
X70691Y-51028D02*
X70691Y-51668D01*
X70691Y-51668D02*
X70371Y-51668D01*
X70371Y-51668D02*
X70371Y-51028D01*
X70371Y-51028D02*
X70691Y-51028D01*
X65836Y-53976D02*
X65836Y-53656D01*
X65396Y-53666D02*
X65396Y-53976D01*
X65296Y-53656D02*
X65936Y-53656D01*
X65936Y-53656D02*
X65936Y-53976D01*
X65936Y-53976D02*
X65296Y-53976D01*
X65296Y-53976D02*
X65296Y-53656D01*
X68343Y-49334D02*
X68663Y-49334D01*
X68653Y-48894D02*
X68343Y-48894D01*
X68663Y-48794D02*
X68663Y-49434D01*
X68663Y-49434D02*
X68343Y-49434D01*
X68343Y-49434D02*
X68343Y-48794D01*
X68343Y-48794D02*
X68663Y-48794D01*
X69485Y-49324D02*
X69805Y-49324D01*
X69795Y-48884D02*
X69485Y-48884D01*
X69805Y-48784D02*
X69805Y-49424D01*
X69805Y-49424D02*
X69485Y-49424D01*
X69485Y-49424D02*
X69485Y-48784D01*
X69485Y-48784D02*
X69805Y-48784D01*
X69682Y-54284D02*
X70002Y-54284D01*
X69992Y-53844D02*
X69682Y-53844D01*
X70002Y-53744D02*
X70002Y-54384D01*
X70002Y-54384D02*
X69682Y-54384D01*
X69682Y-54384D02*
X69682Y-53744D01*
X69682Y-53744D02*
X70002Y-53744D01*
G54D17*
X67942Y-50541D02*
X69438Y-50541D01*
X67864Y-50620D02*
X67864Y-52116D01*
X67942Y-50541D02*
X67864Y-50620D01*
X69438Y-52116D02*
X67864Y-52116D01*
X69438Y-50541D02*
X69438Y-52116D01*
G54D13*
X67293Y-49478D02*
X60954Y-49478D01*
X60954Y-49478D02*
X60954Y-42352D01*
X60954Y-42352D02*
X67293Y-42352D01*
X67293Y-42352D02*
X67293Y-49478D01*
G54D15*
X68715Y-53766D02*
X68715Y-53366D01*
X68715Y-53366D02*
X69315Y-53366D01*
X69315Y-53366D02*
X69315Y-53766D01*
X69315Y-54166D02*
X69315Y-54566D01*
X69315Y-54566D02*
X68715Y-54566D01*
X68715Y-54566D02*
X68715Y-54166D01*
G54D10*
X68513Y-43129D02*
X68513Y-42677D01*
X69212Y-43129D02*
X68513Y-43129D01*
X69222Y-42667D02*
X69212Y-43129D01*
X71210Y-42687D02*
X71200Y-43149D01*
X71200Y-43149D02*
X70501Y-43149D01*
X70501Y-43149D02*
X70501Y-42696D01*
G54D16*
X71801Y-46998D02*
X67864Y-46998D01*
X67864Y-46998D02*
X67864Y-42667D01*
X67864Y-42667D02*
X71801Y-42667D01*
X71801Y-42667D02*
X71801Y-46998D01*
G54D10*
X70561Y-60039D02*
X70561Y-60492D01*
X69862Y-60039D02*
X70561Y-60039D01*
X69852Y-60501D02*
X69862Y-60039D01*
X67864Y-60482D02*
X67874Y-60019D01*
X67874Y-60019D02*
X68572Y-60019D01*
X68572Y-60019D02*
X68572Y-60472D01*
G54D16*
X67273Y-56171D02*
X71210Y-56171D01*
X71210Y-56171D02*
X71210Y-60501D01*
X71210Y-60501D02*
X67273Y-60501D01*
X67273Y-60501D02*
X67273Y-56171D01*
G54D15*
X64905Y-59915D02*
X65705Y-59915D01*
X65855Y-59865D02*
X64755Y-59865D01*
X64655Y-59815D02*
X65955Y-59815D01*
X66055Y-59765D02*
X64555Y-59765D01*
X66105Y-59715D02*
X64505Y-59715D01*
X64405Y-59665D02*
X66205Y-59665D01*
X66855Y-58415D02*
G75*
G03X66855Y-58415I-1550J0D01*
G74*
G01*
X63655Y-60065D02*
X66955Y-60065D01*
X66955Y-60065D02*
X66955Y-57065D01*
X66955Y-57065D02*
X66655Y-56765D01*
X66655Y-56765D02*
X63955Y-56765D01*
X63955Y-56765D02*
X63655Y-57065D01*
X63655Y-57065D02*
X63655Y-60065D01*
X65305Y-56965D02*
X65305Y-57265D01*
X65155Y-57115D02*
X65455Y-57115D01*
G54D14*
X43742Y-32419D02*
X44124Y-32419D01*
X44169Y-32396D01*
X44192Y-32374D01*
X44214Y-32329D01*
X44214Y-32239D01*
X44192Y-32194D01*
X44169Y-32171D01*
X44124Y-32149D01*
X43742Y-32149D01*
X44214Y-31676D02*
X44214Y-31946D01*
X44214Y-31811D02*
X43742Y-31811D01*
X43809Y-31856D01*
X43854Y-31901D01*
X43877Y-31946D01*
X43498Y-40444D02*
X43273Y-40601D01*
X43498Y-40714D02*
X43025Y-40714D01*
X43025Y-40534D01*
X43048Y-40489D01*
X43070Y-40466D01*
X43115Y-40444D01*
X43183Y-40444D01*
X43228Y-40466D01*
X43250Y-40489D01*
X43273Y-40534D01*
X43273Y-40714D01*
X43025Y-40106D02*
X43363Y-40106D01*
X43430Y-40129D01*
X43475Y-40174D01*
X43498Y-40241D01*
X43498Y-40286D01*
X43183Y-39679D02*
X43498Y-39679D01*
X43003Y-39791D02*
X43340Y-39904D01*
X43340Y-39611D01*
X43025Y-39206D02*
X43025Y-39431D01*
X43250Y-39454D01*
X43228Y-39431D01*
X43205Y-39386D01*
X43205Y-39274D01*
X43228Y-39229D01*
X43250Y-39206D01*
X43295Y-39184D01*
X43408Y-39184D01*
X43453Y-39206D01*
X43475Y-39229D01*
X43498Y-39274D01*
X43498Y-39386D01*
X43475Y-39431D01*
X43453Y-39454D01*
G54D15*
X56006Y-35657D02*
X56249Y-35657D01*
X56277Y-35643D01*
X56292Y-35629D01*
X56306Y-35600D01*
X56306Y-35543D01*
X56292Y-35514D01*
X56277Y-35500D01*
X56249Y-35486D01*
X56006Y-35486D01*
X56106Y-35214D02*
X56306Y-35214D01*
X55992Y-35286D02*
X56206Y-35357D01*
X56206Y-35171D01*
X60981Y-37511D02*
X60681Y-37511D01*
X60681Y-37397D01*
X60695Y-37368D01*
X60710Y-37354D01*
X60738Y-37339D01*
X60781Y-37339D01*
X60810Y-37354D01*
X60824Y-37368D01*
X60838Y-37397D01*
X60838Y-37511D01*
X60981Y-37211D02*
X60681Y-37211D01*
X60953Y-36897D02*
X60967Y-36911D01*
X60981Y-36954D01*
X60981Y-36982D01*
X60967Y-37025D01*
X60938Y-37054D01*
X60910Y-37068D01*
X60853Y-37082D01*
X60810Y-37082D01*
X60753Y-37068D01*
X60724Y-37054D01*
X60695Y-37025D01*
X60681Y-36982D01*
X60681Y-36954D01*
X60695Y-36911D01*
X60710Y-36897D01*
X60681Y-36797D02*
X60681Y-36611D01*
X60795Y-36711D01*
X60795Y-36668D01*
X60810Y-36639D01*
X60824Y-36625D01*
X60853Y-36611D01*
X60924Y-36611D01*
X60953Y-36625D01*
X60967Y-36639D01*
X60981Y-36668D01*
X60981Y-36754D01*
X60967Y-36782D01*
X60953Y-36797D01*
X60710Y-36497D02*
X60695Y-36482D01*
X60681Y-36454D01*
X60681Y-36382D01*
X60695Y-36354D01*
X60710Y-36339D01*
X60738Y-36325D01*
X60767Y-36325D01*
X60810Y-36339D01*
X60981Y-36511D01*
X60981Y-36325D01*
X60981Y-36197D02*
X60681Y-36197D01*
X60895Y-36097D01*
X60681Y-35997D01*
X60981Y-35997D01*
X60681Y-35882D02*
X60981Y-35682D01*
X60681Y-35682D02*
X60981Y-35882D01*
X60681Y-35439D02*
X60681Y-35497D01*
X60695Y-35525D01*
X60710Y-35539D01*
X60753Y-35568D01*
X60810Y-35582D01*
X60924Y-35582D01*
X60953Y-35568D01*
X60967Y-35554D01*
X60981Y-35525D01*
X60981Y-35468D01*
X60967Y-35439D01*
X60953Y-35425D01*
X60924Y-35411D01*
X60853Y-35411D01*
X60824Y-35425D01*
X60810Y-35439D01*
X60795Y-35468D01*
X60795Y-35525D01*
X60810Y-35554D01*
X60824Y-35568D01*
X60853Y-35582D01*
X60681Y-35154D02*
X60681Y-35211D01*
X60695Y-35239D01*
X60710Y-35254D01*
X60753Y-35282D01*
X60810Y-35297D01*
X60924Y-35297D01*
X60953Y-35282D01*
X60967Y-35268D01*
X60981Y-35239D01*
X60981Y-35182D01*
X60967Y-35154D01*
X60953Y-35139D01*
X60924Y-35125D01*
X60853Y-35125D01*
X60824Y-35139D01*
X60810Y-35154D01*
X60795Y-35182D01*
X60795Y-35239D01*
X60810Y-35268D01*
X60824Y-35282D01*
X60853Y-35297D01*
X60781Y-34868D02*
X60981Y-34868D01*
X60667Y-34939D02*
X60881Y-35011D01*
X60881Y-34825D01*
X60824Y-34611D02*
X60824Y-34711D01*
X60981Y-34711D02*
X60681Y-34711D01*
X60681Y-34568D01*
X60981Y-34297D02*
X60981Y-34468D01*
X60981Y-34382D02*
X60681Y-34382D01*
X60724Y-34411D01*
X60753Y-34439D01*
X60767Y-34468D01*
X60710Y-34182D02*
X60695Y-34168D01*
X60681Y-34139D01*
X60681Y-34068D01*
X60695Y-34039D01*
X60710Y-34025D01*
X60738Y-34011D01*
X60767Y-34011D01*
X60810Y-34025D01*
X60981Y-34197D01*
X60981Y-34011D01*
X60810Y-33839D02*
X60795Y-33868D01*
X60781Y-33882D01*
X60753Y-33897D01*
X60738Y-33897D01*
X60710Y-33882D01*
X60695Y-33868D01*
X60681Y-33839D01*
X60681Y-33782D01*
X60695Y-33754D01*
X60710Y-33739D01*
X60738Y-33725D01*
X60753Y-33725D01*
X60781Y-33739D01*
X60795Y-33754D01*
X60810Y-33782D01*
X60810Y-33839D01*
X60824Y-33868D01*
X60838Y-33882D01*
X60867Y-33897D01*
X60924Y-33897D01*
X60953Y-33882D01*
X60967Y-33868D01*
X60981Y-33839D01*
X60981Y-33782D01*
X60967Y-33754D01*
X60953Y-33739D01*
X60924Y-33725D01*
X60867Y-33725D01*
X60838Y-33739D01*
X60824Y-33754D01*
X60810Y-33782D01*
X60981Y-33597D02*
X60681Y-33597D01*
X60824Y-33597D02*
X60824Y-33425D01*
X60981Y-33425D02*
X60681Y-33425D01*
G54D18*
X59418Y-38803D02*
X59418Y-39017D01*
X59404Y-39060D01*
X59375Y-39088D01*
X59333Y-39103D01*
X59304Y-39103D01*
X59718Y-39103D02*
X59547Y-39103D01*
X59633Y-39103D02*
X59633Y-38803D01*
X59604Y-38846D01*
X59575Y-38874D01*
X59547Y-38888D01*
X58226Y-40717D02*
X58226Y-40417D01*
X58226Y-40560D02*
X58397Y-40560D01*
X58397Y-40717D02*
X58397Y-40417D01*
X58540Y-40560D02*
X58640Y-40560D01*
X58683Y-40717D02*
X58540Y-40717D01*
X58540Y-40417D01*
X58683Y-40417D01*
X58797Y-40631D02*
X58940Y-40631D01*
X58769Y-40717D02*
X58869Y-40417D01*
X58969Y-40717D01*
X59069Y-40717D02*
X59069Y-40417D01*
X59140Y-40417D01*
X59183Y-40431D01*
X59211Y-40460D01*
X59226Y-40488D01*
X59240Y-40545D01*
X59240Y-40588D01*
X59226Y-40645D01*
X59211Y-40674D01*
X59183Y-40702D01*
X59140Y-40717D01*
X59069Y-40717D01*
X59369Y-40560D02*
X59469Y-40560D01*
X59511Y-40717D02*
X59369Y-40717D01*
X59369Y-40417D01*
X59511Y-40417D01*
X59811Y-40717D02*
X59711Y-40574D01*
X59640Y-40717D02*
X59640Y-40417D01*
X59754Y-40417D01*
X59783Y-40431D01*
X59797Y-40445D01*
X59811Y-40474D01*
X59811Y-40517D01*
X59797Y-40545D01*
X59783Y-40560D01*
X59754Y-40574D01*
X59640Y-40574D01*
X59869Y-40745D02*
X60097Y-40745D01*
X60297Y-40417D02*
X60240Y-40417D01*
X60211Y-40431D01*
X60197Y-40445D01*
X60169Y-40488D01*
X60154Y-40545D01*
X60154Y-40660D01*
X60169Y-40688D01*
X60183Y-40702D01*
X60211Y-40717D01*
X60269Y-40717D01*
X60297Y-40702D01*
X60311Y-40688D01*
X60326Y-40660D01*
X60326Y-40588D01*
X60311Y-40560D01*
X60297Y-40545D01*
X60269Y-40531D01*
X60211Y-40531D01*
X60183Y-40545D01*
X60169Y-40560D01*
X60154Y-40588D01*
X60426Y-40417D02*
X60626Y-40717D01*
X60626Y-40417D02*
X60426Y-40717D01*
X60897Y-40717D02*
X60726Y-40717D01*
X60811Y-40717D02*
X60811Y-40417D01*
X60783Y-40460D01*
X60754Y-40488D01*
X60726Y-40502D01*
G54D19*
X36745Y-30807D02*
X36745Y-31236D01*
X36717Y-31321D01*
X36660Y-31379D01*
X36574Y-31407D01*
X36517Y-31407D01*
X36974Y-30807D02*
X37345Y-30807D01*
X37145Y-31036D01*
X37231Y-31036D01*
X37288Y-31064D01*
X37317Y-31093D01*
X37345Y-31150D01*
X37345Y-31293D01*
X37317Y-31350D01*
X37288Y-31379D01*
X37231Y-31407D01*
X37060Y-31407D01*
X37003Y-31379D01*
X36974Y-31350D01*
G54D20*
X51120Y-41448D02*
X51124Y-41452D01*
X51128Y-41463D01*
X51128Y-41470D01*
X51124Y-41482D01*
X51117Y-41489D01*
X51109Y-41493D01*
X51094Y-41497D01*
X51083Y-41497D01*
X51068Y-41493D01*
X51060Y-41489D01*
X51053Y-41482D01*
X51049Y-41470D01*
X51049Y-41463D01*
X51053Y-41452D01*
X51056Y-41448D01*
X51128Y-41373D02*
X51128Y-41418D01*
X51128Y-41395D02*
X51049Y-41395D01*
X51060Y-41403D01*
X51068Y-41410D01*
X51072Y-41418D01*
X51049Y-41305D02*
X51049Y-41320D01*
X51053Y-41328D01*
X51056Y-41331D01*
X51068Y-41339D01*
X51083Y-41343D01*
X51113Y-41343D01*
X51120Y-41339D01*
X51124Y-41335D01*
X51128Y-41328D01*
X51128Y-41312D01*
X51124Y-41305D01*
X51120Y-41301D01*
X51113Y-41297D01*
X51094Y-41297D01*
X51087Y-41301D01*
X51083Y-41305D01*
X51079Y-41312D01*
X51079Y-41328D01*
X51083Y-41335D01*
X51087Y-41339D01*
X51094Y-41343D01*
X46821Y-32924D02*
X46825Y-32928D01*
X46829Y-32939D01*
X46829Y-32947D01*
X46825Y-32958D01*
X46817Y-32966D01*
X46810Y-32969D01*
X46795Y-32973D01*
X46784Y-32973D01*
X46769Y-32969D01*
X46761Y-32966D01*
X46753Y-32958D01*
X46750Y-32947D01*
X46750Y-32939D01*
X46753Y-32928D01*
X46757Y-32924D01*
X46829Y-32849D02*
X46829Y-32894D01*
X46829Y-32872D02*
X46750Y-32872D01*
X46761Y-32879D01*
X46769Y-32887D01*
X46772Y-32894D01*
X46750Y-32778D02*
X46750Y-32815D01*
X46787Y-32819D01*
X46784Y-32815D01*
X46780Y-32808D01*
X46780Y-32789D01*
X46784Y-32781D01*
X46787Y-32778D01*
X46795Y-32774D01*
X46814Y-32774D01*
X46821Y-32778D01*
X46825Y-32781D01*
X46829Y-32789D01*
X46829Y-32808D01*
X46825Y-32815D01*
X46821Y-32819D01*
X52498Y-39698D02*
X52502Y-39701D01*
X52506Y-39713D01*
X52506Y-39720D01*
X52502Y-39732D01*
X52495Y-39739D01*
X52487Y-39743D01*
X52472Y-39747D01*
X52461Y-39747D01*
X52446Y-39743D01*
X52438Y-39739D01*
X52431Y-39732D01*
X52427Y-39720D01*
X52427Y-39713D01*
X52431Y-39701D01*
X52434Y-39698D01*
X52434Y-39668D02*
X52431Y-39664D01*
X52427Y-39656D01*
X52427Y-39638D01*
X52431Y-39630D01*
X52434Y-39626D01*
X52442Y-39622D01*
X52449Y-39622D01*
X52461Y-39626D01*
X52506Y-39671D01*
X52506Y-39622D01*
G54D12*
X48468Y-35409D02*
X48723Y-35409D01*
X48752Y-35394D01*
X48767Y-35379D01*
X48782Y-35349D01*
X48782Y-35289D01*
X48767Y-35259D01*
X48752Y-35244D01*
X48723Y-35229D01*
X48468Y-35229D01*
X48498Y-35094D02*
X48483Y-35079D01*
X48468Y-35049D01*
X48468Y-34974D01*
X48483Y-34944D01*
X48498Y-34929D01*
X48528Y-34914D01*
X48558Y-34914D01*
X48603Y-34929D01*
X48782Y-35109D01*
X48782Y-34914D01*
X51499Y-36077D02*
X51499Y-36227D01*
X51184Y-36227D01*
X51409Y-35987D02*
X51409Y-35837D01*
X51499Y-36017D02*
X51184Y-35912D01*
X51499Y-35807D01*
X51499Y-35702D02*
X51184Y-35702D01*
X51499Y-35522D01*
X51184Y-35522D01*
X51319Y-35327D02*
X51304Y-35357D01*
X51289Y-35372D01*
X51259Y-35387D01*
X51244Y-35387D01*
X51214Y-35372D01*
X51199Y-35357D01*
X51184Y-35327D01*
X51184Y-35267D01*
X51199Y-35237D01*
X51214Y-35222D01*
X51244Y-35207D01*
X51259Y-35207D01*
X51289Y-35222D01*
X51304Y-35237D01*
X51319Y-35267D01*
X51319Y-35327D01*
X51334Y-35357D01*
X51349Y-35372D01*
X51379Y-35387D01*
X51439Y-35387D01*
X51469Y-35372D01*
X51484Y-35357D01*
X51499Y-35327D01*
X51499Y-35267D01*
X51484Y-35237D01*
X51469Y-35222D01*
X51439Y-35207D01*
X51379Y-35207D01*
X51349Y-35222D01*
X51334Y-35237D01*
X51319Y-35267D01*
X51184Y-35102D02*
X51184Y-34892D01*
X51499Y-35027D01*
X51214Y-34787D02*
X51199Y-34772D01*
X51184Y-34742D01*
X51184Y-34667D01*
X51199Y-34637D01*
X51214Y-34622D01*
X51244Y-34607D01*
X51274Y-34607D01*
X51319Y-34622D01*
X51499Y-34802D01*
X51499Y-34607D01*
X51184Y-34412D02*
X51184Y-34382D01*
X51199Y-34352D01*
X51214Y-34337D01*
X51244Y-34322D01*
X51304Y-34307D01*
X51379Y-34307D01*
X51439Y-34322D01*
X51469Y-34337D01*
X51484Y-34352D01*
X51499Y-34382D01*
X51499Y-34412D01*
X51484Y-34442D01*
X51469Y-34457D01*
X51439Y-34472D01*
X51379Y-34487D01*
X51304Y-34487D01*
X51244Y-34472D01*
X51214Y-34457D01*
X51199Y-34442D01*
X51184Y-34412D01*
X51409Y-34187D02*
X51409Y-34037D01*
X51499Y-34217D02*
X51184Y-34112D01*
X51499Y-34007D01*
G54D20*
X47774Y-36396D02*
X47747Y-36358D01*
X47729Y-36396D02*
X47729Y-36317D01*
X47759Y-36317D01*
X47766Y-36320D01*
X47770Y-36324D01*
X47774Y-36332D01*
X47774Y-36343D01*
X47770Y-36351D01*
X47766Y-36354D01*
X47759Y-36358D01*
X47729Y-36358D01*
X47841Y-36343D02*
X47841Y-36396D01*
X47823Y-36313D02*
X47804Y-36369D01*
X47853Y-36369D01*
G54D21*
X46654Y-32536D02*
X46654Y-32586D01*
X46733Y-32586D02*
X46583Y-32586D01*
X46583Y-32515D01*
X46654Y-32408D02*
X46661Y-32386D01*
X46668Y-32379D01*
X46683Y-32372D01*
X46704Y-32372D01*
X46718Y-32379D01*
X46726Y-32386D01*
X46733Y-32400D01*
X46733Y-32458D01*
X46583Y-32458D01*
X46583Y-32408D01*
X46590Y-32393D01*
X46597Y-32386D01*
X46611Y-32379D01*
X46626Y-32379D01*
X46640Y-32386D01*
X46647Y-32393D01*
X46654Y-32408D01*
X46654Y-32458D01*
X46733Y-32229D02*
X46733Y-32315D01*
X46733Y-32272D02*
X46583Y-32272D01*
X46604Y-32286D01*
X46618Y-32300D01*
X46626Y-32315D01*
G54D20*
X53305Y-39717D02*
X53309Y-39721D01*
X53313Y-39732D01*
X53313Y-39740D01*
X53309Y-39751D01*
X53302Y-39759D01*
X53294Y-39763D01*
X53279Y-39766D01*
X53268Y-39766D01*
X53253Y-39763D01*
X53245Y-39759D01*
X53238Y-39751D01*
X53234Y-39740D01*
X53234Y-39732D01*
X53238Y-39721D01*
X53241Y-39717D01*
X53313Y-39642D02*
X53313Y-39687D01*
X53313Y-39665D02*
X53234Y-39665D01*
X53245Y-39672D01*
X53253Y-39680D01*
X53257Y-39687D01*
X51652Y-38713D02*
X51656Y-38717D01*
X51659Y-38729D01*
X51659Y-38736D01*
X51656Y-38747D01*
X51648Y-38755D01*
X51641Y-38759D01*
X51626Y-38762D01*
X51614Y-38762D01*
X51599Y-38759D01*
X51592Y-38755D01*
X51584Y-38747D01*
X51580Y-38736D01*
X51580Y-38729D01*
X51584Y-38717D01*
X51588Y-38713D01*
X51580Y-38687D02*
X51580Y-38638D01*
X51611Y-38665D01*
X51611Y-38653D01*
X51614Y-38646D01*
X51618Y-38642D01*
X51626Y-38638D01*
X51644Y-38638D01*
X51652Y-38642D01*
X51656Y-38646D01*
X51659Y-38653D01*
X51659Y-38676D01*
X51656Y-38683D01*
X51652Y-38687D01*
X49309Y-38674D02*
X49313Y-38678D01*
X49317Y-38689D01*
X49317Y-38697D01*
X49313Y-38708D01*
X49306Y-38715D01*
X49298Y-38719D01*
X49283Y-38723D01*
X49272Y-38723D01*
X49257Y-38719D01*
X49249Y-38715D01*
X49242Y-38708D01*
X49238Y-38697D01*
X49238Y-38689D01*
X49242Y-38678D01*
X49245Y-38674D01*
X49264Y-38606D02*
X49317Y-38606D01*
X49234Y-38625D02*
X49291Y-38644D01*
X49291Y-38595D01*
X48002Y-32887D02*
X48006Y-32890D01*
X48010Y-32902D01*
X48010Y-32909D01*
X48006Y-32921D01*
X47999Y-32928D01*
X47991Y-32932D01*
X47976Y-32936D01*
X47965Y-32936D01*
X47950Y-32932D01*
X47942Y-32928D01*
X47935Y-32921D01*
X47931Y-32909D01*
X47931Y-32902D01*
X47935Y-32890D01*
X47938Y-32887D01*
X47931Y-32815D02*
X47931Y-32853D01*
X47968Y-32857D01*
X47965Y-32853D01*
X47961Y-32845D01*
X47961Y-32826D01*
X47965Y-32819D01*
X47968Y-32815D01*
X47976Y-32811D01*
X47995Y-32811D01*
X48002Y-32815D01*
X48006Y-32819D01*
X48010Y-32826D01*
X48010Y-32845D01*
X48006Y-32853D01*
X48002Y-32857D01*
X47412Y-32887D02*
X47416Y-32890D01*
X47419Y-32902D01*
X47419Y-32909D01*
X47416Y-32921D01*
X47408Y-32928D01*
X47400Y-32932D01*
X47385Y-32936D01*
X47374Y-32936D01*
X47359Y-32932D01*
X47352Y-32928D01*
X47344Y-32921D01*
X47340Y-32909D01*
X47340Y-32902D01*
X47344Y-32890D01*
X47348Y-32887D01*
X47340Y-32819D02*
X47340Y-32834D01*
X47344Y-32842D01*
X47348Y-32845D01*
X47359Y-32853D01*
X47374Y-32857D01*
X47404Y-32857D01*
X47412Y-32853D01*
X47416Y-32849D01*
X47419Y-32842D01*
X47419Y-32826D01*
X47416Y-32819D01*
X47412Y-32815D01*
X47404Y-32811D01*
X47385Y-32811D01*
X47378Y-32815D01*
X47374Y-32819D01*
X47370Y-32826D01*
X47370Y-32842D01*
X47374Y-32849D01*
X47378Y-32853D01*
X47385Y-32857D01*
X62176Y-37058D02*
X62179Y-37062D01*
X62183Y-37073D01*
X62183Y-37081D01*
X62179Y-37092D01*
X62172Y-37100D01*
X62164Y-37103D01*
X62149Y-37107D01*
X62138Y-37107D01*
X62123Y-37103D01*
X62115Y-37100D01*
X62108Y-37092D01*
X62104Y-37081D01*
X62104Y-37073D01*
X62108Y-37062D01*
X62112Y-37058D01*
X62183Y-36983D02*
X62183Y-37028D01*
X62183Y-37005D02*
X62104Y-37005D01*
X62115Y-37013D01*
X62123Y-37021D01*
X62127Y-37028D01*
X62104Y-36934D02*
X62104Y-36926D01*
X62108Y-36919D01*
X62112Y-36915D01*
X62119Y-36911D01*
X62134Y-36908D01*
X62153Y-36908D01*
X62168Y-36911D01*
X62176Y-36915D01*
X62179Y-36919D01*
X62183Y-36926D01*
X62183Y-36934D01*
X62179Y-36942D01*
X62176Y-36945D01*
X62168Y-36949D01*
X62153Y-36953D01*
X62134Y-36953D01*
X62119Y-36949D01*
X62112Y-36945D01*
X62108Y-36942D01*
X62104Y-36934D01*
X54624Y-41172D02*
X54628Y-41176D01*
X54632Y-41187D01*
X54632Y-41195D01*
X54628Y-41206D01*
X54621Y-41214D01*
X54613Y-41217D01*
X54598Y-41221D01*
X54587Y-41221D01*
X54572Y-41217D01*
X54564Y-41214D01*
X54557Y-41206D01*
X54553Y-41195D01*
X54553Y-41187D01*
X54557Y-41176D01*
X54560Y-41172D01*
X54632Y-41097D02*
X54632Y-41142D01*
X54632Y-41120D02*
X54553Y-41120D01*
X54564Y-41127D01*
X54572Y-41135D01*
X54575Y-41142D01*
X54632Y-41022D02*
X54632Y-41067D01*
X54632Y-41044D02*
X54553Y-41044D01*
X54564Y-41052D01*
X54572Y-41059D01*
X54575Y-41067D01*
X62547Y-34774D02*
X62543Y-34778D01*
X62532Y-34781D01*
X62525Y-34781D01*
X62513Y-34778D01*
X62506Y-34770D01*
X62502Y-34763D01*
X62498Y-34748D01*
X62498Y-34736D01*
X62502Y-34721D01*
X62506Y-34714D01*
X62513Y-34706D01*
X62525Y-34702D01*
X62532Y-34702D01*
X62543Y-34706D01*
X62547Y-34710D01*
X62622Y-34781D02*
X62577Y-34781D01*
X62600Y-34781D02*
X62600Y-34702D01*
X62592Y-34714D01*
X62585Y-34721D01*
X62577Y-34725D01*
X62652Y-34710D02*
X62656Y-34706D01*
X62664Y-34702D01*
X62683Y-34702D01*
X62690Y-34706D01*
X62694Y-34710D01*
X62698Y-34718D01*
X62698Y-34725D01*
X62694Y-34736D01*
X62649Y-34781D01*
X62698Y-34781D01*
X59616Y-32846D02*
X59620Y-32849D01*
X59624Y-32861D01*
X59624Y-32868D01*
X59620Y-32879D01*
X59613Y-32887D01*
X59605Y-32891D01*
X59590Y-32894D01*
X59579Y-32894D01*
X59564Y-32891D01*
X59556Y-32887D01*
X59549Y-32879D01*
X59545Y-32868D01*
X59545Y-32861D01*
X59549Y-32849D01*
X59553Y-32846D01*
X59624Y-32770D02*
X59624Y-32815D01*
X59624Y-32793D02*
X59545Y-32793D01*
X59556Y-32800D01*
X59564Y-32808D01*
X59568Y-32815D01*
X59579Y-32725D02*
X59575Y-32733D01*
X59571Y-32736D01*
X59564Y-32740D01*
X59560Y-32740D01*
X59553Y-32736D01*
X59549Y-32733D01*
X59545Y-32725D01*
X59545Y-32710D01*
X59549Y-32703D01*
X59553Y-32699D01*
X59560Y-32695D01*
X59564Y-32695D01*
X59571Y-32699D01*
X59575Y-32703D01*
X59579Y-32710D01*
X59579Y-32725D01*
X59583Y-32733D01*
X59586Y-32736D01*
X59594Y-32740D01*
X59609Y-32740D01*
X59616Y-32736D01*
X59620Y-32733D01*
X59624Y-32725D01*
X59624Y-32710D01*
X59620Y-32703D01*
X59616Y-32699D01*
X59609Y-32695D01*
X59594Y-32695D01*
X59586Y-32699D01*
X59583Y-32703D01*
X59579Y-32710D01*
X58307Y-31428D02*
X58311Y-31432D01*
X58315Y-31443D01*
X58315Y-31451D01*
X58311Y-31462D01*
X58304Y-31470D01*
X58296Y-31473D01*
X58281Y-31477D01*
X58270Y-31477D01*
X58255Y-31473D01*
X58247Y-31470D01*
X58240Y-31462D01*
X58236Y-31451D01*
X58236Y-31443D01*
X58240Y-31432D01*
X58243Y-31428D01*
X58315Y-31353D02*
X58315Y-31398D01*
X58315Y-31376D02*
X58236Y-31376D01*
X58247Y-31383D01*
X58255Y-31391D01*
X58259Y-31398D01*
X58315Y-31315D02*
X58315Y-31300D01*
X58311Y-31293D01*
X58307Y-31289D01*
X58296Y-31282D01*
X58281Y-31278D01*
X58251Y-31278D01*
X58243Y-31282D01*
X58240Y-31285D01*
X58236Y-31293D01*
X58236Y-31308D01*
X58240Y-31315D01*
X58243Y-31319D01*
X58251Y-31323D01*
X58270Y-31323D01*
X58277Y-31319D01*
X58281Y-31315D01*
X58285Y-31308D01*
X58285Y-31293D01*
X58281Y-31285D01*
X58277Y-31282D01*
X58270Y-31278D01*
X61140Y-31369D02*
X61144Y-31373D01*
X61148Y-31384D01*
X61148Y-31392D01*
X61144Y-31403D01*
X61136Y-31411D01*
X61129Y-31414D01*
X61114Y-31418D01*
X61102Y-31418D01*
X61087Y-31414D01*
X61080Y-31411D01*
X61072Y-31403D01*
X61069Y-31392D01*
X61069Y-31384D01*
X61072Y-31373D01*
X61076Y-31369D01*
X61076Y-31339D02*
X61072Y-31335D01*
X61069Y-31328D01*
X61069Y-31309D01*
X61072Y-31301D01*
X61076Y-31298D01*
X61084Y-31294D01*
X61091Y-31294D01*
X61102Y-31298D01*
X61148Y-31343D01*
X61148Y-31294D01*
X61069Y-31245D02*
X61069Y-31238D01*
X61072Y-31230D01*
X61076Y-31226D01*
X61084Y-31222D01*
X61099Y-31219D01*
X61118Y-31219D01*
X61133Y-31222D01*
X61140Y-31226D01*
X61144Y-31230D01*
X61148Y-31238D01*
X61148Y-31245D01*
X61144Y-31253D01*
X61140Y-31256D01*
X61133Y-31260D01*
X61118Y-31264D01*
X61099Y-31264D01*
X61084Y-31260D01*
X61076Y-31256D01*
X61072Y-31253D01*
X61069Y-31245D01*
X58987Y-32846D02*
X58990Y-32849D01*
X58994Y-32861D01*
X58994Y-32868D01*
X58990Y-32879D01*
X58983Y-32887D01*
X58975Y-32891D01*
X58960Y-32894D01*
X58949Y-32894D01*
X58934Y-32891D01*
X58926Y-32887D01*
X58919Y-32879D01*
X58915Y-32868D01*
X58915Y-32861D01*
X58919Y-32849D01*
X58923Y-32846D01*
X58923Y-32815D02*
X58919Y-32812D01*
X58915Y-32804D01*
X58915Y-32785D01*
X58919Y-32778D01*
X58923Y-32774D01*
X58930Y-32770D01*
X58938Y-32770D01*
X58949Y-32774D01*
X58994Y-32819D01*
X58994Y-32770D01*
X58994Y-32695D02*
X58994Y-32740D01*
X58994Y-32718D02*
X58915Y-32718D01*
X58926Y-32725D01*
X58934Y-32733D01*
X58938Y-32740D01*
X54317Y-38817D02*
X54291Y-38779D01*
X54272Y-38817D02*
X54272Y-38738D01*
X54302Y-38738D01*
X54310Y-38742D01*
X54313Y-38745D01*
X54317Y-38753D01*
X54317Y-38764D01*
X54313Y-38772D01*
X54310Y-38776D01*
X54302Y-38779D01*
X54272Y-38779D01*
X54392Y-38817D02*
X54347Y-38817D01*
X54370Y-38817D02*
X54370Y-38738D01*
X54362Y-38749D01*
X54355Y-38757D01*
X54347Y-38760D01*
X54219Y-39545D02*
X54192Y-39508D01*
X54173Y-39545D02*
X54173Y-39466D01*
X54204Y-39466D01*
X54211Y-39470D01*
X54215Y-39474D01*
X54219Y-39481D01*
X54219Y-39493D01*
X54215Y-39500D01*
X54211Y-39504D01*
X54204Y-39508D01*
X54173Y-39508D01*
X54249Y-39474D02*
X54252Y-39470D01*
X54260Y-39466D01*
X54279Y-39466D01*
X54286Y-39470D01*
X54290Y-39474D01*
X54294Y-39481D01*
X54294Y-39489D01*
X54290Y-39500D01*
X54245Y-39545D01*
X54294Y-39545D01*
X52663Y-40490D02*
X52637Y-40453D01*
X52618Y-40490D02*
X52618Y-40411D01*
X52648Y-40411D01*
X52656Y-40415D01*
X52660Y-40419D01*
X52663Y-40426D01*
X52663Y-40437D01*
X52660Y-40445D01*
X52656Y-40449D01*
X52648Y-40453D01*
X52618Y-40453D01*
X52690Y-40411D02*
X52739Y-40411D01*
X52712Y-40441D01*
X52724Y-40441D01*
X52731Y-40445D01*
X52735Y-40449D01*
X52739Y-40456D01*
X52739Y-40475D01*
X52735Y-40483D01*
X52731Y-40486D01*
X52724Y-40490D01*
X52701Y-40490D01*
X52694Y-40486D01*
X52690Y-40483D01*
X54494Y-35608D02*
X54468Y-35571D01*
X54449Y-35608D02*
X54449Y-35529D01*
X54479Y-35529D01*
X54487Y-35533D01*
X54490Y-35537D01*
X54494Y-35544D01*
X54494Y-35556D01*
X54490Y-35563D01*
X54487Y-35567D01*
X54479Y-35571D01*
X54449Y-35571D01*
X54562Y-35529D02*
X54547Y-35529D01*
X54539Y-35533D01*
X54536Y-35537D01*
X54528Y-35548D01*
X54524Y-35563D01*
X54524Y-35593D01*
X54528Y-35601D01*
X54532Y-35604D01*
X54539Y-35608D01*
X54554Y-35608D01*
X54562Y-35604D01*
X54566Y-35601D01*
X54569Y-35593D01*
X54569Y-35574D01*
X54566Y-35567D01*
X54562Y-35563D01*
X54554Y-35559D01*
X54539Y-35559D01*
X54532Y-35563D01*
X54528Y-35567D01*
X54524Y-35574D01*
X54435Y-36297D02*
X54409Y-36260D01*
X54390Y-36297D02*
X54390Y-36218D01*
X54420Y-36218D01*
X54428Y-36222D01*
X54431Y-36226D01*
X54435Y-36233D01*
X54435Y-36245D01*
X54431Y-36252D01*
X54428Y-36256D01*
X54420Y-36260D01*
X54390Y-36260D01*
X54461Y-36218D02*
X54514Y-36218D01*
X54480Y-36297D01*
X53569Y-37321D02*
X53543Y-37283D01*
X53524Y-37321D02*
X53524Y-37242D01*
X53554Y-37242D01*
X53561Y-37246D01*
X53565Y-37249D01*
X53569Y-37257D01*
X53569Y-37268D01*
X53565Y-37276D01*
X53561Y-37279D01*
X53554Y-37283D01*
X53524Y-37283D01*
X53614Y-37276D02*
X53607Y-37272D01*
X53603Y-37268D01*
X53599Y-37261D01*
X53599Y-37257D01*
X53603Y-37249D01*
X53607Y-37246D01*
X53614Y-37242D01*
X53629Y-37242D01*
X53637Y-37246D01*
X53640Y-37249D01*
X53644Y-37257D01*
X53644Y-37261D01*
X53640Y-37268D01*
X53637Y-37272D01*
X53629Y-37276D01*
X53614Y-37276D01*
X53607Y-37279D01*
X53603Y-37283D01*
X53599Y-37291D01*
X53599Y-37306D01*
X53603Y-37313D01*
X53607Y-37317D01*
X53614Y-37321D01*
X53629Y-37321D01*
X53637Y-37317D01*
X53640Y-37313D01*
X53644Y-37306D01*
X53644Y-37291D01*
X53640Y-37283D01*
X53637Y-37279D01*
X53629Y-37276D01*
X46565Y-34769D02*
X46527Y-34795D01*
X46565Y-34814D02*
X46486Y-34814D01*
X46486Y-34784D01*
X46490Y-34776D01*
X46493Y-34772D01*
X46501Y-34769D01*
X46512Y-34769D01*
X46520Y-34772D01*
X46524Y-34776D01*
X46527Y-34784D01*
X46527Y-34814D01*
X46565Y-34731D02*
X46565Y-34716D01*
X46561Y-34708D01*
X46557Y-34705D01*
X46546Y-34697D01*
X46531Y-34693D01*
X46501Y-34693D01*
X46493Y-34697D01*
X46490Y-34701D01*
X46486Y-34708D01*
X46486Y-34723D01*
X46490Y-34731D01*
X46493Y-34735D01*
X46501Y-34738D01*
X46520Y-34738D01*
X46527Y-34735D01*
X46531Y-34731D01*
X46535Y-34723D01*
X46535Y-34708D01*
X46531Y-34701D01*
X46527Y-34697D01*
X46520Y-34693D01*
X46073Y-36011D02*
X46035Y-36037D01*
X46073Y-36056D02*
X45994Y-36056D01*
X45994Y-36026D01*
X45998Y-36018D01*
X46001Y-36015D01*
X46009Y-36011D01*
X46020Y-36011D01*
X46028Y-36015D01*
X46031Y-36018D01*
X46035Y-36026D01*
X46035Y-36056D01*
X46073Y-35936D02*
X46073Y-35981D01*
X46073Y-35958D02*
X45994Y-35958D01*
X46005Y-35966D01*
X46013Y-35973D01*
X46016Y-35981D01*
X45994Y-35887D02*
X45994Y-35879D01*
X45998Y-35872D01*
X46001Y-35868D01*
X46009Y-35864D01*
X46024Y-35860D01*
X46043Y-35860D01*
X46058Y-35864D01*
X46065Y-35868D01*
X46069Y-35872D01*
X46073Y-35879D01*
X46073Y-35887D01*
X46069Y-35894D01*
X46065Y-35898D01*
X46058Y-35902D01*
X46043Y-35906D01*
X46024Y-35906D01*
X46009Y-35902D01*
X46001Y-35898D01*
X45998Y-35894D01*
X45994Y-35887D01*
X45667Y-36889D02*
X45630Y-36915D01*
X45667Y-36934D02*
X45588Y-36934D01*
X45588Y-36904D01*
X45592Y-36896D01*
X45596Y-36893D01*
X45603Y-36889D01*
X45615Y-36889D01*
X45622Y-36893D01*
X45626Y-36896D01*
X45630Y-36904D01*
X45630Y-36934D01*
X45667Y-36814D02*
X45667Y-36859D01*
X45667Y-36836D02*
X45588Y-36836D01*
X45600Y-36844D01*
X45607Y-36851D01*
X45611Y-36859D01*
X45667Y-36738D02*
X45667Y-36784D01*
X45667Y-36761D02*
X45588Y-36761D01*
X45600Y-36768D01*
X45607Y-36776D01*
X45611Y-36784D01*
X45187Y-38168D02*
X45149Y-38195D01*
X45187Y-38214D02*
X45108Y-38214D01*
X45108Y-38183D01*
X45112Y-38176D01*
X45116Y-38172D01*
X45123Y-38168D01*
X45134Y-38168D01*
X45142Y-38172D01*
X45146Y-38176D01*
X45149Y-38183D01*
X45149Y-38214D01*
X45187Y-38093D02*
X45187Y-38138D01*
X45187Y-38116D02*
X45108Y-38116D01*
X45119Y-38123D01*
X45127Y-38131D01*
X45131Y-38138D01*
X45116Y-38063D02*
X45112Y-38059D01*
X45108Y-38052D01*
X45108Y-38033D01*
X45112Y-38025D01*
X45116Y-38022D01*
X45123Y-38018D01*
X45131Y-38018D01*
X45142Y-38022D01*
X45187Y-38067D01*
X45187Y-38018D01*
X44346Y-39990D02*
X44320Y-39953D01*
X44301Y-39990D02*
X44301Y-39911D01*
X44331Y-39911D01*
X44339Y-39915D01*
X44343Y-39919D01*
X44346Y-39926D01*
X44346Y-39937D01*
X44343Y-39945D01*
X44339Y-39949D01*
X44331Y-39953D01*
X44301Y-39953D01*
X44422Y-39990D02*
X44376Y-39990D01*
X44399Y-39990D02*
X44399Y-39911D01*
X44391Y-39922D01*
X44384Y-39930D01*
X44376Y-39934D01*
X44448Y-39911D02*
X44497Y-39911D01*
X44470Y-39941D01*
X44482Y-39941D01*
X44489Y-39945D01*
X44493Y-39949D01*
X44497Y-39956D01*
X44497Y-39975D01*
X44493Y-39983D01*
X44489Y-39986D01*
X44482Y-39990D01*
X44459Y-39990D01*
X44452Y-39986D01*
X44448Y-39983D01*
X57587Y-38864D02*
X57560Y-38827D01*
X57541Y-38864D02*
X57541Y-38785D01*
X57571Y-38785D01*
X57579Y-38789D01*
X57583Y-38793D01*
X57587Y-38800D01*
X57587Y-38811D01*
X57583Y-38819D01*
X57579Y-38823D01*
X57571Y-38827D01*
X57541Y-38827D01*
X57662Y-38864D02*
X57617Y-38864D01*
X57639Y-38864D02*
X57639Y-38785D01*
X57632Y-38796D01*
X57624Y-38804D01*
X57617Y-38808D01*
X57729Y-38811D02*
X57729Y-38864D01*
X57711Y-38781D02*
X57692Y-38838D01*
X57741Y-38838D01*
X45169Y-33077D02*
X45143Y-33039D01*
X45124Y-33077D02*
X45124Y-32998D01*
X45154Y-32998D01*
X45162Y-33002D01*
X45165Y-33005D01*
X45169Y-33013D01*
X45169Y-33024D01*
X45165Y-33032D01*
X45162Y-33035D01*
X45154Y-33039D01*
X45124Y-33039D01*
X45244Y-33077D02*
X45199Y-33077D01*
X45222Y-33077D02*
X45222Y-32998D01*
X45214Y-33009D01*
X45207Y-33017D01*
X45199Y-33020D01*
X45316Y-32998D02*
X45278Y-32998D01*
X45275Y-33035D01*
X45278Y-33032D01*
X45286Y-33028D01*
X45305Y-33028D01*
X45312Y-33032D01*
X45316Y-33035D01*
X45320Y-33043D01*
X45320Y-33062D01*
X45316Y-33069D01*
X45312Y-33073D01*
X45305Y-33077D01*
X45286Y-33077D01*
X45278Y-33073D01*
X45275Y-33069D01*
X45388Y-34267D02*
X45350Y-34293D01*
X45388Y-34312D02*
X45309Y-34312D01*
X45309Y-34282D01*
X45313Y-34274D01*
X45316Y-34271D01*
X45324Y-34267D01*
X45335Y-34267D01*
X45343Y-34271D01*
X45346Y-34274D01*
X45350Y-34282D01*
X45350Y-34312D01*
X45388Y-34192D02*
X45388Y-34237D01*
X45388Y-34214D02*
X45309Y-34214D01*
X45320Y-34222D01*
X45328Y-34229D01*
X45331Y-34237D01*
X45309Y-34124D02*
X45309Y-34139D01*
X45313Y-34146D01*
X45316Y-34150D01*
X45328Y-34158D01*
X45343Y-34161D01*
X45373Y-34161D01*
X45380Y-34158D01*
X45384Y-34154D01*
X45388Y-34146D01*
X45388Y-34131D01*
X45384Y-34124D01*
X45380Y-34120D01*
X45373Y-34116D01*
X45354Y-34116D01*
X45346Y-34120D01*
X45343Y-34124D01*
X45339Y-34131D01*
X45339Y-34146D01*
X45343Y-34154D01*
X45346Y-34158D01*
X45354Y-34161D01*
X58766Y-38896D02*
X58762Y-38900D01*
X58751Y-38904D01*
X58743Y-38904D01*
X58732Y-38900D01*
X58724Y-38892D01*
X58721Y-38885D01*
X58717Y-38870D01*
X58717Y-38858D01*
X58721Y-38843D01*
X58724Y-38836D01*
X58732Y-38828D01*
X58743Y-38825D01*
X58751Y-38825D01*
X58762Y-38828D01*
X58766Y-38832D01*
X58811Y-38858D02*
X58803Y-38855D01*
X58800Y-38851D01*
X58796Y-38843D01*
X58796Y-38840D01*
X58800Y-38832D01*
X58803Y-38828D01*
X58811Y-38825D01*
X58826Y-38825D01*
X58834Y-38828D01*
X58837Y-38832D01*
X58841Y-38840D01*
X58841Y-38843D01*
X58837Y-38851D01*
X58834Y-38855D01*
X58826Y-38858D01*
X58811Y-38858D01*
X58803Y-38862D01*
X58800Y-38866D01*
X58796Y-38873D01*
X58796Y-38888D01*
X58800Y-38896D01*
X58803Y-38900D01*
X58811Y-38904D01*
X58826Y-38904D01*
X58834Y-38900D01*
X58837Y-38896D01*
X58841Y-38888D01*
X58841Y-38873D01*
X58837Y-38866D01*
X58834Y-38862D01*
X58826Y-38858D01*
X40825Y-29737D02*
X40829Y-29741D01*
X40833Y-29752D01*
X40833Y-29760D01*
X40829Y-29771D01*
X40821Y-29778D01*
X40814Y-29782D01*
X40799Y-29786D01*
X40788Y-29786D01*
X40772Y-29782D01*
X40765Y-29778D01*
X40757Y-29771D01*
X40754Y-29760D01*
X40754Y-29752D01*
X40757Y-29741D01*
X40761Y-29737D01*
X40833Y-29699D02*
X40833Y-29684D01*
X40829Y-29677D01*
X40825Y-29673D01*
X40814Y-29666D01*
X40799Y-29662D01*
X40769Y-29662D01*
X40761Y-29666D01*
X40757Y-29669D01*
X40754Y-29677D01*
X40754Y-29692D01*
X40757Y-29699D01*
X40761Y-29703D01*
X40769Y-29707D01*
X40788Y-29707D01*
X40795Y-29703D01*
X40799Y-29699D01*
X40803Y-29692D01*
X40803Y-29677D01*
X40799Y-29669D01*
X40795Y-29666D01*
X40788Y-29662D01*
G54D10*
X50000Y-39418D02*
X50210Y-39733D01*
X50210Y-39418D02*
X50000Y-39733D01*
X50495Y-39733D02*
X50315Y-39733D01*
X50405Y-39733D02*
X50405Y-39418D01*
X50375Y-39463D01*
X50345Y-39493D01*
X50315Y-39508D01*
X49447Y-37637D02*
X49462Y-37622D01*
X49492Y-37607D01*
X49567Y-37607D01*
X49597Y-37622D01*
X49612Y-37637D01*
X49627Y-37667D01*
X49627Y-37697D01*
X49612Y-37742D01*
X49432Y-37922D01*
X49627Y-37922D01*
X49912Y-37607D02*
X49762Y-37607D01*
X49747Y-37757D01*
X49762Y-37742D01*
X49792Y-37727D01*
X49867Y-37727D01*
X49897Y-37742D01*
X49912Y-37757D01*
X49927Y-37787D01*
X49927Y-37862D01*
X49912Y-37892D01*
X49897Y-37907D01*
X49867Y-37922D01*
X49792Y-37922D01*
X49762Y-37907D01*
X49747Y-37892D01*
X50062Y-37922D02*
X50062Y-37607D01*
X50167Y-37832D01*
X50272Y-37607D01*
X50272Y-37922D01*
X50422Y-37922D02*
X50422Y-37607D01*
X50557Y-37922D02*
X50557Y-37757D01*
X50542Y-37727D01*
X50512Y-37712D01*
X50467Y-37712D01*
X50437Y-37727D01*
X50422Y-37742D01*
X50677Y-37712D02*
X50842Y-37712D01*
X50677Y-37922D01*
X50842Y-37922D01*
X59351Y-30245D02*
X59561Y-30560D01*
X59561Y-30245D02*
X59351Y-30560D01*
X59666Y-30275D02*
X59681Y-30260D01*
X59711Y-30245D01*
X59786Y-30245D01*
X59816Y-30260D01*
X59831Y-30275D01*
X59846Y-30305D01*
X59846Y-30335D01*
X59831Y-30380D01*
X59651Y-30560D01*
X59846Y-30560D01*
X59011Y-32086D02*
X59026Y-32071D01*
X59056Y-32056D01*
X59131Y-32056D01*
X59161Y-32071D01*
X59176Y-32086D01*
X59191Y-32116D01*
X59191Y-32146D01*
X59176Y-32191D01*
X58997Y-32371D01*
X59191Y-32371D01*
X59461Y-32161D02*
X59461Y-32371D01*
X59386Y-32041D02*
X59311Y-32266D01*
X59506Y-32266D01*
X59626Y-32371D02*
X59626Y-32056D01*
X59731Y-32281D01*
X59836Y-32056D01*
X59836Y-32371D01*
X59986Y-32371D02*
X59986Y-32056D01*
X59986Y-32206D02*
X60166Y-32206D01*
X60166Y-32371D02*
X60166Y-32056D01*
X60286Y-32161D02*
X60451Y-32161D01*
X60286Y-32371D01*
X60451Y-32371D01*
G54D20*
X61404Y-41534D02*
X61400Y-41538D01*
X61389Y-41541D01*
X61381Y-41541D01*
X61370Y-41538D01*
X61362Y-41530D01*
X61359Y-41523D01*
X61355Y-41507D01*
X61355Y-41496D01*
X61359Y-41481D01*
X61362Y-41474D01*
X61370Y-41466D01*
X61381Y-41462D01*
X61389Y-41462D01*
X61400Y-41466D01*
X61404Y-41470D01*
X61430Y-41462D02*
X61483Y-41462D01*
X61449Y-41541D01*
G54D21*
X53137Y-33472D02*
X53144Y-33479D01*
X53152Y-33500D01*
X53152Y-33515D01*
X53144Y-33536D01*
X53130Y-33550D01*
X53116Y-33557D01*
X53087Y-33565D01*
X53066Y-33565D01*
X53037Y-33557D01*
X53023Y-33550D01*
X53009Y-33536D01*
X53002Y-33515D01*
X53002Y-33500D01*
X53009Y-33479D01*
X53016Y-33472D01*
X53152Y-33329D02*
X53152Y-33415D01*
X53152Y-33372D02*
X53002Y-33372D01*
X53023Y-33386D01*
X53037Y-33400D01*
X53044Y-33415D01*
X53052Y-33200D02*
X53152Y-33200D01*
X52994Y-33236D02*
X53102Y-33272D01*
X53102Y-33179D01*
G54D20*
X63589Y-37467D02*
X63562Y-37429D01*
X63544Y-37467D02*
X63544Y-37388D01*
X63574Y-37388D01*
X63581Y-37391D01*
X63585Y-37395D01*
X63589Y-37403D01*
X63589Y-37414D01*
X63585Y-37421D01*
X63581Y-37425D01*
X63574Y-37429D01*
X63544Y-37429D01*
X63660Y-37388D02*
X63623Y-37388D01*
X63619Y-37425D01*
X63623Y-37421D01*
X63630Y-37418D01*
X63649Y-37418D01*
X63656Y-37421D01*
X63660Y-37425D01*
X63664Y-37433D01*
X63664Y-37451D01*
X63660Y-37459D01*
X63656Y-37463D01*
X63649Y-37467D01*
X63630Y-37467D01*
X63623Y-37463D01*
X63619Y-37459D01*
G54D18*
X62484Y-40994D02*
X62698Y-40994D01*
X62741Y-41008D01*
X62770Y-41037D01*
X62784Y-41080D01*
X62784Y-41108D01*
X62512Y-40865D02*
X62498Y-40851D01*
X62484Y-40823D01*
X62484Y-40751D01*
X62498Y-40723D01*
X62512Y-40708D01*
X62541Y-40694D01*
X62570Y-40694D01*
X62612Y-40708D01*
X62784Y-40880D01*
X62784Y-40694D01*
X64098Y-42122D02*
X64312Y-42122D01*
X64355Y-42137D01*
X64384Y-42165D01*
X64398Y-42208D01*
X64398Y-42237D01*
X64098Y-41979D02*
X64341Y-41979D01*
X64369Y-41965D01*
X64384Y-41951D01*
X64398Y-41922D01*
X64398Y-41865D01*
X64384Y-41837D01*
X64369Y-41822D01*
X64341Y-41808D01*
X64098Y-41808D01*
X64398Y-41665D02*
X64098Y-41665D01*
X64312Y-41565D01*
X64098Y-41465D01*
X64398Y-41465D01*
X64398Y-41322D02*
X64098Y-41322D01*
X64098Y-41208D01*
X64112Y-41179D01*
X64126Y-41165D01*
X64155Y-41151D01*
X64198Y-41151D01*
X64226Y-41165D01*
X64241Y-41179D01*
X64255Y-41208D01*
X64255Y-41322D01*
X64241Y-41022D02*
X64241Y-40922D01*
X64398Y-40879D02*
X64398Y-41022D01*
X64098Y-41022D01*
X64098Y-40879D01*
X64398Y-40579D02*
X64255Y-40679D01*
X64398Y-40751D02*
X64098Y-40751D01*
X64098Y-40637D01*
X64112Y-40608D01*
X64126Y-40594D01*
X64155Y-40579D01*
X64198Y-40579D01*
X64226Y-40594D01*
X64241Y-40608D01*
X64255Y-40637D01*
X64255Y-40751D01*
X64426Y-40522D02*
X64426Y-40294D01*
X64126Y-40237D02*
X64112Y-40222D01*
X64098Y-40194D01*
X64098Y-40122D01*
X64112Y-40094D01*
X64126Y-40079D01*
X64155Y-40065D01*
X64184Y-40065D01*
X64226Y-40079D01*
X64398Y-40251D01*
X64398Y-40065D01*
X64098Y-39965D02*
X64398Y-39765D01*
X64098Y-39765D02*
X64398Y-39965D01*
X64398Y-39494D02*
X64398Y-39665D01*
X64398Y-39579D02*
X64098Y-39579D01*
X64141Y-39608D01*
X64169Y-39637D01*
X64184Y-39665D01*
G54D14*
X65309Y-41884D02*
X65691Y-41884D01*
X65736Y-41861D01*
X65759Y-41839D01*
X65781Y-41794D01*
X65781Y-41704D01*
X65759Y-41659D01*
X65736Y-41636D01*
X65691Y-41614D01*
X65309Y-41614D01*
X65781Y-41141D02*
X65781Y-41411D01*
X65781Y-41276D02*
X65309Y-41276D01*
X65376Y-41321D01*
X65421Y-41366D01*
X65444Y-41411D01*
X65309Y-40849D02*
X65309Y-40804D01*
X65331Y-40759D01*
X65354Y-40736D01*
X65399Y-40714D01*
X65489Y-40691D01*
X65601Y-40691D01*
X65691Y-40714D01*
X65736Y-40736D01*
X65759Y-40759D01*
X65781Y-40804D01*
X65781Y-40849D01*
X65759Y-40894D01*
X65736Y-40916D01*
X65691Y-40939D01*
X65601Y-40961D01*
X65489Y-40961D01*
X65399Y-40939D01*
X65354Y-40916D01*
X65331Y-40894D01*
X65309Y-40849D01*
X68335Y-36293D02*
X68177Y-36068D01*
X68065Y-36293D02*
X68065Y-35821D01*
X68245Y-35821D01*
X68290Y-35843D01*
X68312Y-35866D01*
X68335Y-35911D01*
X68335Y-35978D01*
X68312Y-36023D01*
X68290Y-36046D01*
X68245Y-36068D01*
X68065Y-36068D01*
X68672Y-35821D02*
X68672Y-36158D01*
X68650Y-36226D01*
X68605Y-36271D01*
X68537Y-36293D01*
X68492Y-36293D01*
X69145Y-36293D02*
X68875Y-36293D01*
X69010Y-36293D02*
X69010Y-35821D01*
X68965Y-35888D01*
X68920Y-35933D01*
X68875Y-35956D01*
X69325Y-35866D02*
X69347Y-35843D01*
X69392Y-35821D01*
X69505Y-35821D01*
X69550Y-35843D01*
X69572Y-35866D01*
X69595Y-35911D01*
X69595Y-35956D01*
X69572Y-36023D01*
X69302Y-36293D01*
X69595Y-36293D01*
X65006Y-35816D02*
X65388Y-35816D01*
X65433Y-35794D01*
X65456Y-35771D01*
X65478Y-35726D01*
X65478Y-35636D01*
X65456Y-35591D01*
X65433Y-35569D01*
X65388Y-35546D01*
X65006Y-35546D01*
X65478Y-35299D02*
X65478Y-35209D01*
X65456Y-35164D01*
X65433Y-35141D01*
X65366Y-35096D01*
X65276Y-35074D01*
X65096Y-35074D01*
X65051Y-35096D01*
X65028Y-35119D01*
X65006Y-35164D01*
X65006Y-35254D01*
X65028Y-35299D01*
X65051Y-35321D01*
X65096Y-35344D01*
X65208Y-35344D01*
X65253Y-35321D01*
X65276Y-35299D01*
X65298Y-35254D01*
X65298Y-35164D01*
X65276Y-35119D01*
X65253Y-35096D01*
X65208Y-35074D01*
X68768Y-30230D02*
X68610Y-30005D01*
X68498Y-30230D02*
X68498Y-29758D01*
X68678Y-29758D01*
X68723Y-29780D01*
X68745Y-29803D01*
X68768Y-29848D01*
X68768Y-29915D01*
X68745Y-29960D01*
X68723Y-29983D01*
X68678Y-30005D01*
X68498Y-30005D01*
X69105Y-29758D02*
X69105Y-30095D01*
X69083Y-30163D01*
X69038Y-30208D01*
X68970Y-30230D01*
X68925Y-30230D01*
X69578Y-30230D02*
X69308Y-30230D01*
X69443Y-30230D02*
X69443Y-29758D01*
X69398Y-29825D01*
X69353Y-29870D01*
X69308Y-29893D01*
X69758Y-29803D02*
X69780Y-29780D01*
X69825Y-29758D01*
X69938Y-29758D01*
X69983Y-29780D01*
X70005Y-29803D01*
X70028Y-29848D01*
X70028Y-29893D01*
X70005Y-29960D01*
X69735Y-30230D01*
X70028Y-30230D01*
X52222Y-28722D02*
X52222Y-29105D01*
X52245Y-29150D01*
X52267Y-29172D01*
X52312Y-29195D01*
X52402Y-29195D01*
X52447Y-29172D01*
X52470Y-29150D01*
X52492Y-29105D01*
X52492Y-28722D01*
X52785Y-28925D02*
X52740Y-28902D01*
X52717Y-28880D01*
X52695Y-28835D01*
X52695Y-28812D01*
X52717Y-28767D01*
X52740Y-28745D01*
X52785Y-28722D01*
X52875Y-28722D01*
X52920Y-28745D01*
X52942Y-28767D01*
X52965Y-28812D01*
X52965Y-28835D01*
X52942Y-28880D01*
X52920Y-28902D01*
X52875Y-28925D01*
X52785Y-28925D01*
X52740Y-28947D01*
X52717Y-28970D01*
X52695Y-29015D01*
X52695Y-29105D01*
X52717Y-29150D01*
X52740Y-29172D01*
X52785Y-29195D01*
X52875Y-29195D01*
X52920Y-29172D01*
X52942Y-29150D01*
X52965Y-29105D01*
X52965Y-29015D01*
X52942Y-28970D01*
X52920Y-28947D01*
X52875Y-28925D01*
X47268Y-29124D02*
X47110Y-28899D01*
X46998Y-29124D02*
X46998Y-28651D01*
X47178Y-28651D01*
X47223Y-28674D01*
X47245Y-28696D01*
X47268Y-28741D01*
X47268Y-28809D01*
X47245Y-28854D01*
X47223Y-28876D01*
X47178Y-28899D01*
X46998Y-28899D01*
X47605Y-28651D02*
X47605Y-28989D01*
X47583Y-29056D01*
X47538Y-29101D01*
X47470Y-29124D01*
X47425Y-29124D01*
X48078Y-29124D02*
X47808Y-29124D01*
X47943Y-29124D02*
X47943Y-28651D01*
X47898Y-28719D01*
X47853Y-28764D01*
X47808Y-28786D01*
X48258Y-28696D02*
X48280Y-28674D01*
X48325Y-28651D01*
X48438Y-28651D01*
X48483Y-28674D01*
X48505Y-28696D01*
X48528Y-28741D01*
X48528Y-28786D01*
X48505Y-28854D01*
X48235Y-29124D01*
X48528Y-29124D01*
X45332Y-28722D02*
X45332Y-29105D01*
X45355Y-29150D01*
X45377Y-29172D01*
X45422Y-29195D01*
X45512Y-29195D01*
X45557Y-29172D01*
X45580Y-29150D01*
X45602Y-29105D01*
X45602Y-28722D01*
X45782Y-28722D02*
X46097Y-28722D01*
X45895Y-29195D01*
X40378Y-29124D02*
X40221Y-28899D01*
X40108Y-29124D02*
X40108Y-28651D01*
X40288Y-28651D01*
X40333Y-28674D01*
X40356Y-28696D01*
X40378Y-28741D01*
X40378Y-28809D01*
X40356Y-28854D01*
X40333Y-28876D01*
X40288Y-28899D01*
X40108Y-28899D01*
X40715Y-28651D02*
X40715Y-28989D01*
X40693Y-29056D01*
X40648Y-29101D01*
X40580Y-29124D01*
X40535Y-29124D01*
X41188Y-29124D02*
X40918Y-29124D01*
X41053Y-29124D02*
X41053Y-28651D01*
X41008Y-28719D01*
X40963Y-28764D01*
X40918Y-28786D01*
X41368Y-28696D02*
X41390Y-28674D01*
X41435Y-28651D01*
X41548Y-28651D01*
X41593Y-28674D01*
X41615Y-28696D01*
X41638Y-28741D01*
X41638Y-28786D01*
X41615Y-28854D01*
X41345Y-29124D01*
X41638Y-29124D01*
X66002Y-28919D02*
X66002Y-29302D01*
X66024Y-29347D01*
X66047Y-29369D01*
X66092Y-29392D01*
X66182Y-29392D01*
X66227Y-29369D01*
X66249Y-29347D01*
X66272Y-29302D01*
X66272Y-28919D01*
X66699Y-28919D02*
X66609Y-28919D01*
X66564Y-28942D01*
X66542Y-28964D01*
X66497Y-29032D01*
X66474Y-29122D01*
X66474Y-29302D01*
X66497Y-29347D01*
X66519Y-29369D01*
X66564Y-29392D01*
X66654Y-29392D01*
X66699Y-29369D01*
X66722Y-29347D01*
X66744Y-29302D01*
X66744Y-29189D01*
X66722Y-29144D01*
X66699Y-29122D01*
X66654Y-29099D01*
X66564Y-29099D01*
X66519Y-29122D01*
X66497Y-29144D01*
X66474Y-29189D01*
X61047Y-29321D02*
X60890Y-29096D01*
X60777Y-29321D02*
X60777Y-28848D01*
X60957Y-28848D01*
X61002Y-28871D01*
X61025Y-28893D01*
X61047Y-28938D01*
X61047Y-29006D01*
X61025Y-29051D01*
X61002Y-29073D01*
X60957Y-29096D01*
X60777Y-29096D01*
X61385Y-28848D02*
X61385Y-29186D01*
X61362Y-29253D01*
X61317Y-29298D01*
X61250Y-29321D01*
X61205Y-29321D01*
X61857Y-29321D02*
X61587Y-29321D01*
X61722Y-29321D02*
X61722Y-28848D01*
X61677Y-28916D01*
X61632Y-28961D01*
X61587Y-28983D01*
X62037Y-28893D02*
X62060Y-28871D01*
X62105Y-28848D01*
X62217Y-28848D01*
X62262Y-28871D01*
X62285Y-28893D01*
X62307Y-28938D01*
X62307Y-28983D01*
X62285Y-29051D01*
X62015Y-29321D01*
X62307Y-29321D01*
X58655Y-28498D02*
X58655Y-28880D01*
X58678Y-28925D01*
X58700Y-28948D01*
X58745Y-28970D01*
X58835Y-28970D01*
X58880Y-28948D01*
X58903Y-28925D01*
X58925Y-28880D01*
X58925Y-28498D01*
X59375Y-28498D02*
X59150Y-28498D01*
X59128Y-28723D01*
X59150Y-28700D01*
X59195Y-28678D01*
X59308Y-28678D01*
X59353Y-28700D01*
X59375Y-28723D01*
X59398Y-28768D01*
X59398Y-28880D01*
X59375Y-28925D01*
X59353Y-28948D01*
X59308Y-28970D01*
X59195Y-28970D01*
X59150Y-28948D01*
X59128Y-28925D01*
X54158Y-29124D02*
X54000Y-28899D01*
X53888Y-29124D02*
X53888Y-28651D01*
X54068Y-28651D01*
X54113Y-28674D01*
X54135Y-28696D01*
X54158Y-28741D01*
X54158Y-28809D01*
X54135Y-28854D01*
X54113Y-28876D01*
X54068Y-28899D01*
X53888Y-28899D01*
X54495Y-28651D02*
X54495Y-28989D01*
X54473Y-29056D01*
X54428Y-29101D01*
X54360Y-29124D01*
X54315Y-29124D01*
X54967Y-29124D02*
X54697Y-29124D01*
X54832Y-29124D02*
X54832Y-28651D01*
X54787Y-28719D01*
X54742Y-28764D01*
X54697Y-28786D01*
X55147Y-28696D02*
X55170Y-28674D01*
X55215Y-28651D01*
X55327Y-28651D01*
X55372Y-28674D01*
X55395Y-28696D01*
X55417Y-28741D01*
X55417Y-28786D01*
X55395Y-28854D01*
X55125Y-29124D01*
X55417Y-29124D01*
G54D20*
X40685Y-50028D02*
X40659Y-49990D01*
X40640Y-50028D02*
X40640Y-49949D01*
X40670Y-49949D01*
X40678Y-49952D01*
X40681Y-49956D01*
X40685Y-49964D01*
X40685Y-49975D01*
X40681Y-49982D01*
X40678Y-49986D01*
X40670Y-49990D01*
X40640Y-49990D01*
X40711Y-49949D02*
X40760Y-49949D01*
X40734Y-49979D01*
X40745Y-49979D01*
X40753Y-49982D01*
X40757Y-49986D01*
X40760Y-49994D01*
X40760Y-50012D01*
X40757Y-50020D01*
X40753Y-50024D01*
X40745Y-50028D01*
X40723Y-50028D01*
X40715Y-50024D01*
X40711Y-50020D01*
X39079Y-52945D02*
X39053Y-52907D01*
X39034Y-52945D02*
X39034Y-52866D01*
X39064Y-52866D01*
X39071Y-52870D01*
X39075Y-52873D01*
X39079Y-52881D01*
X39079Y-52892D01*
X39075Y-52900D01*
X39071Y-52903D01*
X39064Y-52907D01*
X39034Y-52907D01*
X39150Y-52866D02*
X39113Y-52866D01*
X39109Y-52903D01*
X39113Y-52900D01*
X39120Y-52896D01*
X39139Y-52896D01*
X39147Y-52900D01*
X39150Y-52903D01*
X39154Y-52911D01*
X39154Y-52930D01*
X39150Y-52937D01*
X39147Y-52941D01*
X39139Y-52945D01*
X39120Y-52945D01*
X39113Y-52941D01*
X39109Y-52937D01*
X39748Y-54870D02*
X39722Y-54832D01*
X39703Y-54870D02*
X39703Y-54791D01*
X39733Y-54791D01*
X39741Y-54795D01*
X39744Y-54799D01*
X39748Y-54806D01*
X39748Y-54817D01*
X39744Y-54825D01*
X39741Y-54829D01*
X39733Y-54832D01*
X39703Y-54832D01*
X39816Y-54817D02*
X39816Y-54870D01*
X39797Y-54787D02*
X39778Y-54844D01*
X39827Y-54844D01*
X44427Y-51361D02*
X44431Y-51365D01*
X44435Y-51376D01*
X44435Y-51384D01*
X44431Y-51395D01*
X44424Y-51402D01*
X44416Y-51406D01*
X44401Y-51410D01*
X44390Y-51410D01*
X44375Y-51406D01*
X44367Y-51402D01*
X44360Y-51395D01*
X44356Y-51384D01*
X44356Y-51376D01*
X44360Y-51365D01*
X44364Y-51361D01*
X44435Y-51286D02*
X44435Y-51331D01*
X44435Y-51308D02*
X44356Y-51308D01*
X44367Y-51316D01*
X44375Y-51323D01*
X44379Y-51331D01*
X39225Y-53598D02*
X39198Y-53561D01*
X39179Y-53598D02*
X39179Y-53519D01*
X39209Y-53519D01*
X39217Y-53523D01*
X39221Y-53527D01*
X39225Y-53534D01*
X39225Y-53546D01*
X39221Y-53553D01*
X39217Y-53557D01*
X39209Y-53561D01*
X39179Y-53561D01*
X39300Y-53598D02*
X39255Y-53598D01*
X39277Y-53598D02*
X39277Y-53519D01*
X39270Y-53531D01*
X39262Y-53538D01*
X39255Y-53542D01*
X42407Y-49127D02*
X42370Y-49153D01*
X42407Y-49172D02*
X42328Y-49172D01*
X42328Y-49142D01*
X42332Y-49134D01*
X42336Y-49131D01*
X42344Y-49127D01*
X42355Y-49127D01*
X42362Y-49131D01*
X42366Y-49134D01*
X42370Y-49142D01*
X42370Y-49172D01*
X42336Y-49097D02*
X42332Y-49093D01*
X42328Y-49085D01*
X42328Y-49067D01*
X42332Y-49059D01*
X42336Y-49055D01*
X42344Y-49052D01*
X42351Y-49052D01*
X42362Y-49055D01*
X42407Y-49101D01*
X42407Y-49052D01*
X43542Y-49117D02*
X43545Y-49121D01*
X43549Y-49132D01*
X43549Y-49140D01*
X43545Y-49151D01*
X43538Y-49158D01*
X43530Y-49162D01*
X43515Y-49166D01*
X43504Y-49166D01*
X43489Y-49162D01*
X43481Y-49158D01*
X43474Y-49151D01*
X43470Y-49140D01*
X43470Y-49132D01*
X43474Y-49121D01*
X43478Y-49117D01*
X43470Y-49091D02*
X43470Y-49042D01*
X43500Y-49068D01*
X43500Y-49057D01*
X43504Y-49049D01*
X43508Y-49046D01*
X43515Y-49042D01*
X43534Y-49042D01*
X43542Y-49046D01*
X43545Y-49049D01*
X43549Y-49057D01*
X43549Y-49079D01*
X43545Y-49087D01*
X43542Y-49091D01*
X43739Y-54078D02*
X43742Y-54081D01*
X43746Y-54093D01*
X43746Y-54100D01*
X43742Y-54111D01*
X43735Y-54119D01*
X43727Y-54123D01*
X43712Y-54127D01*
X43701Y-54127D01*
X43686Y-54123D01*
X43678Y-54119D01*
X43671Y-54111D01*
X43667Y-54100D01*
X43667Y-54093D01*
X43671Y-54081D01*
X43675Y-54078D01*
X43693Y-54010D02*
X43746Y-54010D01*
X43663Y-54029D02*
X43720Y-54048D01*
X43720Y-53999D01*
G54D10*
X42089Y-49979D02*
X42089Y-50170D01*
X42100Y-50193D01*
X42112Y-50204D01*
X42134Y-50215D01*
X42179Y-50215D01*
X42202Y-50204D01*
X42213Y-50193D01*
X42224Y-50170D01*
X42224Y-49979D01*
X42460Y-50215D02*
X42325Y-50215D01*
X42393Y-50215D02*
X42393Y-49979D01*
X42370Y-50013D01*
X42348Y-50035D01*
X42325Y-50046D01*
X41186Y-52715D02*
X41186Y-52479D01*
X41242Y-52479D01*
X41276Y-52490D01*
X41298Y-52513D01*
X41310Y-52535D01*
X41321Y-52580D01*
X41321Y-52614D01*
X41310Y-52659D01*
X41298Y-52681D01*
X41276Y-52704D01*
X41242Y-52715D01*
X41186Y-52715D01*
X41557Y-52715D02*
X41478Y-52603D01*
X41422Y-52715D02*
X41422Y-52479D01*
X41512Y-52479D01*
X41535Y-52490D01*
X41546Y-52501D01*
X41557Y-52524D01*
X41557Y-52558D01*
X41546Y-52580D01*
X41535Y-52591D01*
X41512Y-52603D01*
X41422Y-52603D01*
X41625Y-52479D02*
X41703Y-52715D01*
X41782Y-52479D01*
X41895Y-52580D02*
X41872Y-52569D01*
X41861Y-52558D01*
X41850Y-52535D01*
X41850Y-52524D01*
X41861Y-52501D01*
X41872Y-52490D01*
X41895Y-52479D01*
X41940Y-52479D01*
X41962Y-52490D01*
X41973Y-52501D01*
X41985Y-52524D01*
X41985Y-52535D01*
X41973Y-52558D01*
X41962Y-52569D01*
X41940Y-52580D01*
X41895Y-52580D01*
X41872Y-52591D01*
X41861Y-52603D01*
X41850Y-52625D01*
X41850Y-52670D01*
X41861Y-52693D01*
X41872Y-52704D01*
X41895Y-52715D01*
X41940Y-52715D01*
X41962Y-52704D01*
X41973Y-52693D01*
X41985Y-52670D01*
X41985Y-52625D01*
X41973Y-52603D01*
X41962Y-52591D01*
X41940Y-52580D01*
X42120Y-52580D02*
X42097Y-52569D01*
X42086Y-52558D01*
X42075Y-52535D01*
X42075Y-52524D01*
X42086Y-52501D01*
X42097Y-52490D01*
X42120Y-52479D01*
X42165Y-52479D01*
X42187Y-52490D01*
X42198Y-52501D01*
X42210Y-52524D01*
X42210Y-52535D01*
X42198Y-52558D01*
X42187Y-52569D01*
X42165Y-52580D01*
X42120Y-52580D01*
X42097Y-52591D01*
X42086Y-52603D01*
X42075Y-52625D01*
X42075Y-52670D01*
X42086Y-52693D01*
X42097Y-52704D01*
X42120Y-52715D01*
X42165Y-52715D01*
X42187Y-52704D01*
X42198Y-52693D01*
X42210Y-52670D01*
X42210Y-52625D01*
X42198Y-52603D01*
X42187Y-52591D01*
X42165Y-52580D01*
X42356Y-52479D02*
X42378Y-52479D01*
X42401Y-52490D01*
X42412Y-52501D01*
X42423Y-52524D01*
X42435Y-52569D01*
X42435Y-52625D01*
X42423Y-52670D01*
X42412Y-52693D01*
X42401Y-52704D01*
X42378Y-52715D01*
X42356Y-52715D01*
X42333Y-52704D01*
X42322Y-52693D01*
X42311Y-52670D01*
X42300Y-52625D01*
X42300Y-52569D01*
X42311Y-52524D01*
X42322Y-52501D01*
X42333Y-52490D01*
X42356Y-52479D01*
X42581Y-52479D02*
X42603Y-52479D01*
X42626Y-52490D01*
X42637Y-52501D01*
X42648Y-52524D01*
X42660Y-52569D01*
X42660Y-52625D01*
X42648Y-52670D01*
X42637Y-52693D01*
X42626Y-52704D01*
X42603Y-52715D01*
X42581Y-52715D01*
X42558Y-52704D01*
X42547Y-52693D01*
X42536Y-52670D01*
X42525Y-52625D01*
X42525Y-52569D01*
X42536Y-52524D01*
X42547Y-52501D01*
X42558Y-52490D01*
X42581Y-52479D01*
X42705Y-52738D02*
X42884Y-52738D01*
X43076Y-52715D02*
X42997Y-52603D01*
X42941Y-52715D02*
X42941Y-52479D01*
X43031Y-52479D01*
X43053Y-52490D01*
X43064Y-52501D01*
X43076Y-52524D01*
X43076Y-52558D01*
X43064Y-52580D01*
X43053Y-52591D01*
X43031Y-52603D01*
X42941Y-52603D01*
X43143Y-52479D02*
X43278Y-52479D01*
X43211Y-52715D02*
X43211Y-52479D01*
X43402Y-52603D02*
X43402Y-52715D01*
X43323Y-52479D02*
X43402Y-52603D01*
X43481Y-52479D01*
G54D14*
X37257Y-51073D02*
X37257Y-51559D01*
X37285Y-51616D01*
X37314Y-51645D01*
X37371Y-51673D01*
X37485Y-51673D01*
X37543Y-51645D01*
X37571Y-51616D01*
X37600Y-51559D01*
X37600Y-51073D01*
X37857Y-51131D02*
X37885Y-51102D01*
X37943Y-51073D01*
X38085Y-51073D01*
X38143Y-51102D01*
X38171Y-51131D01*
X38200Y-51188D01*
X38200Y-51245D01*
X38171Y-51331D01*
X37828Y-51673D01*
X38200Y-51673D01*
X34966Y-51374D02*
X34766Y-51089D01*
X34623Y-51374D02*
X34623Y-50774D01*
X34852Y-50774D01*
X34909Y-50803D01*
X34937Y-50831D01*
X34966Y-50889D01*
X34966Y-50974D01*
X34937Y-51031D01*
X34909Y-51060D01*
X34852Y-51089D01*
X34623Y-51089D01*
X35394Y-50774D02*
X35394Y-51203D01*
X35366Y-51289D01*
X35309Y-51346D01*
X35223Y-51374D01*
X35166Y-51374D01*
X35994Y-51374D02*
X35652Y-51374D01*
X35823Y-51374D02*
X35823Y-50774D01*
X35766Y-50860D01*
X35709Y-50917D01*
X35652Y-50946D01*
X36223Y-50831D02*
X36252Y-50803D01*
X36309Y-50774D01*
X36452Y-50774D01*
X36509Y-50803D01*
X36537Y-50831D01*
X36566Y-50889D01*
X36566Y-50946D01*
X36537Y-51031D01*
X36194Y-51374D01*
X36566Y-51374D01*
G54D21*
X43150Y-54001D02*
X43079Y-54051D01*
X43150Y-54087D02*
X43000Y-54087D01*
X43000Y-54030D01*
X43007Y-54015D01*
X43014Y-54008D01*
X43029Y-54001D01*
X43050Y-54001D01*
X43064Y-54008D01*
X43071Y-54015D01*
X43079Y-54030D01*
X43079Y-54087D01*
X43000Y-53872D02*
X43000Y-53901D01*
X43007Y-53915D01*
X43014Y-53922D01*
X43036Y-53937D01*
X43064Y-53944D01*
X43121Y-53944D01*
X43136Y-53937D01*
X43143Y-53930D01*
X43150Y-53915D01*
X43150Y-53887D01*
X43143Y-53872D01*
X43136Y-53865D01*
X43121Y-53858D01*
X43086Y-53858D01*
X43071Y-53865D01*
X43064Y-53872D01*
X43057Y-53887D01*
X43057Y-53915D01*
X43064Y-53930D01*
X43071Y-53937D01*
X43086Y-53944D01*
G54D19*
X43192Y-47687D02*
X43192Y-48116D01*
X43164Y-48201D01*
X43107Y-48258D01*
X43021Y-48287D01*
X42964Y-48287D01*
X43792Y-48287D02*
X43449Y-48287D01*
X43621Y-48287D02*
X43621Y-47687D01*
X43564Y-47773D01*
X43507Y-47830D01*
X43449Y-47858D01*
X42726Y-54767D02*
X42726Y-55196D01*
X42697Y-55281D01*
X42640Y-55338D01*
X42554Y-55367D01*
X42497Y-55367D01*
X42983Y-54824D02*
X43011Y-54796D01*
X43069Y-54767D01*
X43211Y-54767D01*
X43269Y-54796D01*
X43297Y-54824D01*
X43326Y-54881D01*
X43326Y-54938D01*
X43297Y-55024D01*
X42954Y-55367D01*
X43326Y-55367D01*
G54D22*
X37088Y-58448D02*
X37097Y-58457D01*
X37106Y-58485D01*
X37106Y-58504D01*
X37097Y-58532D01*
X37078Y-58551D01*
X37059Y-58560D01*
X37022Y-58570D01*
X36994Y-58570D01*
X36956Y-58560D01*
X36938Y-58551D01*
X36919Y-58532D01*
X36909Y-58504D01*
X36909Y-58485D01*
X36919Y-58457D01*
X36928Y-58448D01*
X36928Y-58373D02*
X36919Y-58363D01*
X36909Y-58344D01*
X36909Y-58298D01*
X36919Y-58279D01*
X36928Y-58269D01*
X36947Y-58260D01*
X36966Y-58260D01*
X36994Y-58269D01*
X37106Y-58382D01*
X37106Y-58260D01*
G54D20*
X54465Y-50028D02*
X54438Y-49990D01*
X54420Y-50028D02*
X54420Y-49949D01*
X54450Y-49949D01*
X54457Y-49952D01*
X54461Y-49956D01*
X54465Y-49964D01*
X54465Y-49975D01*
X54461Y-49982D01*
X54457Y-49986D01*
X54450Y-49990D01*
X54420Y-49990D01*
X54491Y-49949D02*
X54540Y-49949D01*
X54514Y-49979D01*
X54525Y-49979D01*
X54532Y-49982D01*
X54536Y-49986D01*
X54540Y-49994D01*
X54540Y-50012D01*
X54536Y-50020D01*
X54532Y-50024D01*
X54525Y-50028D01*
X54502Y-50028D01*
X54495Y-50024D01*
X54491Y-50020D01*
X52858Y-52945D02*
X52832Y-52907D01*
X52813Y-52945D02*
X52813Y-52866D01*
X52843Y-52866D01*
X52851Y-52870D01*
X52855Y-52873D01*
X52858Y-52881D01*
X52858Y-52892D01*
X52855Y-52900D01*
X52851Y-52903D01*
X52843Y-52907D01*
X52813Y-52907D01*
X52930Y-52866D02*
X52892Y-52866D01*
X52888Y-52903D01*
X52892Y-52900D01*
X52900Y-52896D01*
X52919Y-52896D01*
X52926Y-52900D01*
X52930Y-52903D01*
X52934Y-52911D01*
X52934Y-52930D01*
X52930Y-52937D01*
X52926Y-52941D01*
X52919Y-52945D01*
X52900Y-52945D01*
X52892Y-52941D01*
X52888Y-52937D01*
X53528Y-54870D02*
X53501Y-54832D01*
X53483Y-54870D02*
X53483Y-54791D01*
X53513Y-54791D01*
X53520Y-54795D01*
X53524Y-54799D01*
X53528Y-54806D01*
X53528Y-54817D01*
X53524Y-54825D01*
X53520Y-54829D01*
X53513Y-54832D01*
X53483Y-54832D01*
X53595Y-54817D02*
X53595Y-54870D01*
X53577Y-54787D02*
X53558Y-54844D01*
X53607Y-54844D01*
X58207Y-51361D02*
X58211Y-51365D01*
X58215Y-51376D01*
X58215Y-51384D01*
X58211Y-51395D01*
X58203Y-51402D01*
X58196Y-51406D01*
X58181Y-51410D01*
X58169Y-51410D01*
X58154Y-51406D01*
X58147Y-51402D01*
X58139Y-51395D01*
X58136Y-51384D01*
X58136Y-51376D01*
X58139Y-51365D01*
X58143Y-51361D01*
X58215Y-51286D02*
X58215Y-51331D01*
X58215Y-51308D02*
X58136Y-51308D01*
X58147Y-51316D01*
X58154Y-51323D01*
X58158Y-51331D01*
X53004Y-53598D02*
X52978Y-53561D01*
X52959Y-53598D02*
X52959Y-53519D01*
X52989Y-53519D01*
X52997Y-53523D01*
X53000Y-53527D01*
X53004Y-53534D01*
X53004Y-53546D01*
X53000Y-53553D01*
X52997Y-53557D01*
X52989Y-53561D01*
X52959Y-53561D01*
X53079Y-53598D02*
X53034Y-53598D01*
X53057Y-53598D02*
X53057Y-53519D01*
X53049Y-53531D01*
X53042Y-53538D01*
X53034Y-53542D01*
X56187Y-49127D02*
X56149Y-49153D01*
X56187Y-49172D02*
X56108Y-49172D01*
X56108Y-49142D01*
X56112Y-49134D01*
X56116Y-49131D01*
X56123Y-49127D01*
X56134Y-49127D01*
X56142Y-49131D01*
X56146Y-49134D01*
X56149Y-49142D01*
X56149Y-49172D01*
X56116Y-49097D02*
X56112Y-49093D01*
X56108Y-49085D01*
X56108Y-49067D01*
X56112Y-49059D01*
X56116Y-49055D01*
X56123Y-49052D01*
X56131Y-49052D01*
X56142Y-49055D01*
X56187Y-49101D01*
X56187Y-49052D01*
X57321Y-49117D02*
X57325Y-49121D01*
X57329Y-49132D01*
X57329Y-49140D01*
X57325Y-49151D01*
X57317Y-49158D01*
X57310Y-49162D01*
X57295Y-49166D01*
X57284Y-49166D01*
X57269Y-49162D01*
X57261Y-49158D01*
X57253Y-49151D01*
X57250Y-49140D01*
X57250Y-49132D01*
X57253Y-49121D01*
X57257Y-49117D01*
X57250Y-49091D02*
X57250Y-49042D01*
X57280Y-49068D01*
X57280Y-49057D01*
X57284Y-49049D01*
X57287Y-49046D01*
X57295Y-49042D01*
X57314Y-49042D01*
X57321Y-49046D01*
X57325Y-49049D01*
X57329Y-49057D01*
X57329Y-49079D01*
X57325Y-49087D01*
X57321Y-49091D01*
X57518Y-54078D02*
X57522Y-54081D01*
X57526Y-54093D01*
X57526Y-54100D01*
X57522Y-54111D01*
X57514Y-54119D01*
X57507Y-54123D01*
X57492Y-54127D01*
X57480Y-54127D01*
X57465Y-54123D01*
X57458Y-54119D01*
X57450Y-54111D01*
X57447Y-54100D01*
X57447Y-54093D01*
X57450Y-54081D01*
X57454Y-54078D01*
X57473Y-54010D02*
X57526Y-54010D01*
X57443Y-54029D02*
X57499Y-54048D01*
X57499Y-53999D01*
G54D10*
X55869Y-49979D02*
X55869Y-50170D01*
X55880Y-50193D01*
X55891Y-50204D01*
X55914Y-50215D01*
X55959Y-50215D01*
X55981Y-50204D01*
X55992Y-50193D01*
X56004Y-50170D01*
X56004Y-49979D01*
X56240Y-50215D02*
X56105Y-50215D01*
X56172Y-50215D02*
X56172Y-49979D01*
X56150Y-50013D01*
X56127Y-50035D01*
X56105Y-50046D01*
X54965Y-52715D02*
X54965Y-52479D01*
X55022Y-52479D01*
X55055Y-52490D01*
X55078Y-52513D01*
X55089Y-52535D01*
X55100Y-52580D01*
X55100Y-52614D01*
X55089Y-52659D01*
X55078Y-52681D01*
X55055Y-52704D01*
X55022Y-52715D01*
X54965Y-52715D01*
X55337Y-52715D02*
X55258Y-52603D01*
X55202Y-52715D02*
X55202Y-52479D01*
X55292Y-52479D01*
X55314Y-52490D01*
X55325Y-52501D01*
X55337Y-52524D01*
X55337Y-52558D01*
X55325Y-52580D01*
X55314Y-52591D01*
X55292Y-52603D01*
X55202Y-52603D01*
X55404Y-52479D02*
X55483Y-52715D01*
X55562Y-52479D01*
X55674Y-52580D02*
X55652Y-52569D01*
X55640Y-52558D01*
X55629Y-52535D01*
X55629Y-52524D01*
X55640Y-52501D01*
X55652Y-52490D01*
X55674Y-52479D01*
X55719Y-52479D01*
X55742Y-52490D01*
X55753Y-52501D01*
X55764Y-52524D01*
X55764Y-52535D01*
X55753Y-52558D01*
X55742Y-52569D01*
X55719Y-52580D01*
X55674Y-52580D01*
X55652Y-52591D01*
X55640Y-52603D01*
X55629Y-52625D01*
X55629Y-52670D01*
X55640Y-52693D01*
X55652Y-52704D01*
X55674Y-52715D01*
X55719Y-52715D01*
X55742Y-52704D01*
X55753Y-52693D01*
X55764Y-52670D01*
X55764Y-52625D01*
X55753Y-52603D01*
X55742Y-52591D01*
X55719Y-52580D01*
X55899Y-52580D02*
X55877Y-52569D01*
X55865Y-52558D01*
X55854Y-52535D01*
X55854Y-52524D01*
X55865Y-52501D01*
X55877Y-52490D01*
X55899Y-52479D01*
X55944Y-52479D01*
X55967Y-52490D01*
X55978Y-52501D01*
X55989Y-52524D01*
X55989Y-52535D01*
X55978Y-52558D01*
X55967Y-52569D01*
X55944Y-52580D01*
X55899Y-52580D01*
X55877Y-52591D01*
X55865Y-52603D01*
X55854Y-52625D01*
X55854Y-52670D01*
X55865Y-52693D01*
X55877Y-52704D01*
X55899Y-52715D01*
X55944Y-52715D01*
X55967Y-52704D01*
X55978Y-52693D01*
X55989Y-52670D01*
X55989Y-52625D01*
X55978Y-52603D01*
X55967Y-52591D01*
X55944Y-52580D01*
X56135Y-52479D02*
X56158Y-52479D01*
X56180Y-52490D01*
X56192Y-52501D01*
X56203Y-52524D01*
X56214Y-52569D01*
X56214Y-52625D01*
X56203Y-52670D01*
X56192Y-52693D01*
X56180Y-52704D01*
X56158Y-52715D01*
X56135Y-52715D01*
X56113Y-52704D01*
X56102Y-52693D01*
X56090Y-52670D01*
X56079Y-52625D01*
X56079Y-52569D01*
X56090Y-52524D01*
X56102Y-52501D01*
X56113Y-52490D01*
X56135Y-52479D01*
X56360Y-52479D02*
X56383Y-52479D01*
X56405Y-52490D01*
X56417Y-52501D01*
X56428Y-52524D01*
X56439Y-52569D01*
X56439Y-52625D01*
X56428Y-52670D01*
X56417Y-52693D01*
X56405Y-52704D01*
X56383Y-52715D01*
X56360Y-52715D01*
X56338Y-52704D01*
X56327Y-52693D01*
X56315Y-52670D01*
X56304Y-52625D01*
X56304Y-52569D01*
X56315Y-52524D01*
X56327Y-52501D01*
X56338Y-52490D01*
X56360Y-52479D01*
X56484Y-52738D02*
X56664Y-52738D01*
X56855Y-52715D02*
X56776Y-52603D01*
X56720Y-52715D02*
X56720Y-52479D01*
X56810Y-52479D01*
X56833Y-52490D01*
X56844Y-52501D01*
X56855Y-52524D01*
X56855Y-52558D01*
X56844Y-52580D01*
X56833Y-52591D01*
X56810Y-52603D01*
X56720Y-52603D01*
X56923Y-52479D02*
X57058Y-52479D01*
X56990Y-52715D02*
X56990Y-52479D01*
X57181Y-52603D02*
X57181Y-52715D01*
X57103Y-52479D02*
X57181Y-52603D01*
X57260Y-52479D01*
G54D14*
X51036Y-51073D02*
X51036Y-51559D01*
X51065Y-51616D01*
X51094Y-51645D01*
X51151Y-51673D01*
X51265Y-51673D01*
X51322Y-51645D01*
X51351Y-51616D01*
X51379Y-51559D01*
X51379Y-51073D01*
X51636Y-51131D02*
X51665Y-51102D01*
X51722Y-51073D01*
X51865Y-51073D01*
X51922Y-51102D01*
X51951Y-51131D01*
X51979Y-51188D01*
X51979Y-51245D01*
X51951Y-51331D01*
X51608Y-51673D01*
X51979Y-51673D01*
X48745Y-51374D02*
X48545Y-51089D01*
X48403Y-51374D02*
X48403Y-50774D01*
X48631Y-50774D01*
X48688Y-50803D01*
X48717Y-50831D01*
X48745Y-50889D01*
X48745Y-50974D01*
X48717Y-51031D01*
X48688Y-51060D01*
X48631Y-51089D01*
X48403Y-51089D01*
X49174Y-50774D02*
X49174Y-51203D01*
X49145Y-51289D01*
X49088Y-51346D01*
X49003Y-51374D01*
X48945Y-51374D01*
X49774Y-51374D02*
X49431Y-51374D01*
X49603Y-51374D02*
X49603Y-50774D01*
X49545Y-50860D01*
X49488Y-50917D01*
X49431Y-50946D01*
X50003Y-50831D02*
X50031Y-50803D01*
X50088Y-50774D01*
X50231Y-50774D01*
X50288Y-50803D01*
X50317Y-50831D01*
X50345Y-50889D01*
X50345Y-50946D01*
X50317Y-51031D01*
X49974Y-51374D01*
X50345Y-51374D01*
G54D21*
X56930Y-54001D02*
X56858Y-54051D01*
X56930Y-54087D02*
X56780Y-54087D01*
X56780Y-54030D01*
X56787Y-54015D01*
X56794Y-54008D01*
X56808Y-54001D01*
X56830Y-54001D01*
X56844Y-54008D01*
X56851Y-54015D01*
X56858Y-54030D01*
X56858Y-54087D01*
X56780Y-53872D02*
X56780Y-53901D01*
X56787Y-53915D01*
X56794Y-53922D01*
X56815Y-53937D01*
X56844Y-53944D01*
X56901Y-53944D01*
X56915Y-53937D01*
X56922Y-53930D01*
X56930Y-53915D01*
X56930Y-53887D01*
X56922Y-53872D01*
X56915Y-53865D01*
X56901Y-53858D01*
X56865Y-53858D01*
X56851Y-53865D01*
X56844Y-53872D01*
X56837Y-53887D01*
X56837Y-53915D01*
X56844Y-53930D01*
X56851Y-53937D01*
X56865Y-53944D01*
G54D19*
X56972Y-47687D02*
X56972Y-48116D01*
X56943Y-48201D01*
X56886Y-48258D01*
X56800Y-48287D01*
X56743Y-48287D01*
X57572Y-48287D02*
X57229Y-48287D01*
X57400Y-48287D02*
X57400Y-47687D01*
X57343Y-47773D01*
X57286Y-47830D01*
X57229Y-47858D01*
X56505Y-54767D02*
X56505Y-55196D01*
X56477Y-55281D01*
X56419Y-55338D01*
X56334Y-55367D01*
X56277Y-55367D01*
X56762Y-54824D02*
X56791Y-54796D01*
X56848Y-54767D01*
X56991Y-54767D01*
X57048Y-54796D01*
X57077Y-54824D01*
X57105Y-54881D01*
X57105Y-54938D01*
X57077Y-55024D01*
X56734Y-55367D01*
X57105Y-55367D01*
G54D22*
X50867Y-58448D02*
X50877Y-58457D01*
X50886Y-58485D01*
X50886Y-58504D01*
X50877Y-58532D01*
X50858Y-58551D01*
X50839Y-58560D01*
X50802Y-58570D01*
X50773Y-58570D01*
X50736Y-58560D01*
X50717Y-58551D01*
X50698Y-58532D01*
X50689Y-58504D01*
X50689Y-58485D01*
X50698Y-58457D01*
X50708Y-58448D01*
X50708Y-58373D02*
X50698Y-58363D01*
X50689Y-58344D01*
X50689Y-58298D01*
X50698Y-58279D01*
X50708Y-58269D01*
X50726Y-58260D01*
X50745Y-58260D01*
X50773Y-58269D01*
X50886Y-58382D01*
X50886Y-58260D01*
G54D20*
X67063Y-50028D02*
X67037Y-49990D01*
X67018Y-50028D02*
X67018Y-49949D01*
X67048Y-49949D01*
X67056Y-49952D01*
X67059Y-49956D01*
X67063Y-49964D01*
X67063Y-49975D01*
X67059Y-49982D01*
X67056Y-49986D01*
X67048Y-49990D01*
X67018Y-49990D01*
X67089Y-49949D02*
X67138Y-49949D01*
X67112Y-49979D01*
X67123Y-49979D01*
X67131Y-49982D01*
X67135Y-49986D01*
X67138Y-49994D01*
X67138Y-50012D01*
X67135Y-50020D01*
X67131Y-50024D01*
X67123Y-50028D01*
X67101Y-50028D01*
X67093Y-50024D01*
X67089Y-50020D01*
X65457Y-52945D02*
X65430Y-52907D01*
X65412Y-52945D02*
X65412Y-52866D01*
X65442Y-52866D01*
X65449Y-52870D01*
X65453Y-52873D01*
X65457Y-52881D01*
X65457Y-52892D01*
X65453Y-52900D01*
X65449Y-52903D01*
X65442Y-52907D01*
X65412Y-52907D01*
X65528Y-52866D02*
X65491Y-52866D01*
X65487Y-52903D01*
X65491Y-52900D01*
X65498Y-52896D01*
X65517Y-52896D01*
X65525Y-52900D01*
X65528Y-52903D01*
X65532Y-52911D01*
X65532Y-52930D01*
X65528Y-52937D01*
X65525Y-52941D01*
X65517Y-52945D01*
X65498Y-52945D01*
X65491Y-52941D01*
X65487Y-52937D01*
X66126Y-54870D02*
X66100Y-54832D01*
X66081Y-54870D02*
X66081Y-54791D01*
X66111Y-54791D01*
X66119Y-54795D01*
X66122Y-54799D01*
X66126Y-54806D01*
X66126Y-54817D01*
X66122Y-54825D01*
X66119Y-54829D01*
X66111Y-54832D01*
X66081Y-54832D01*
X66194Y-54817D02*
X66194Y-54870D01*
X66175Y-54787D02*
X66156Y-54844D01*
X66205Y-54844D01*
X70805Y-51361D02*
X70809Y-51365D01*
X70813Y-51376D01*
X70813Y-51384D01*
X70809Y-51395D01*
X70802Y-51402D01*
X70794Y-51406D01*
X70779Y-51410D01*
X70768Y-51410D01*
X70753Y-51406D01*
X70745Y-51402D01*
X70738Y-51395D01*
X70734Y-51384D01*
X70734Y-51376D01*
X70738Y-51365D01*
X70741Y-51361D01*
X70813Y-51286D02*
X70813Y-51331D01*
X70813Y-51308D02*
X70734Y-51308D01*
X70745Y-51316D01*
X70753Y-51323D01*
X70757Y-51331D01*
X65602Y-53598D02*
X65576Y-53561D01*
X65557Y-53598D02*
X65557Y-53519D01*
X65587Y-53519D01*
X65595Y-53523D01*
X65599Y-53527D01*
X65602Y-53534D01*
X65602Y-53546D01*
X65599Y-53553D01*
X65595Y-53557D01*
X65587Y-53561D01*
X65557Y-53561D01*
X65678Y-53598D02*
X65633Y-53598D01*
X65655Y-53598D02*
X65655Y-53519D01*
X65648Y-53531D01*
X65640Y-53538D01*
X65633Y-53542D01*
X68785Y-49127D02*
X68748Y-49153D01*
X68785Y-49172D02*
X68706Y-49172D01*
X68706Y-49142D01*
X68710Y-49134D01*
X68714Y-49131D01*
X68721Y-49127D01*
X68733Y-49127D01*
X68740Y-49131D01*
X68744Y-49134D01*
X68748Y-49142D01*
X68748Y-49172D01*
X68714Y-49097D02*
X68710Y-49093D01*
X68706Y-49085D01*
X68706Y-49067D01*
X68710Y-49059D01*
X68714Y-49055D01*
X68721Y-49052D01*
X68729Y-49052D01*
X68740Y-49055D01*
X68785Y-49101D01*
X68785Y-49052D01*
X69920Y-49117D02*
X69923Y-49121D01*
X69927Y-49132D01*
X69927Y-49140D01*
X69923Y-49151D01*
X69916Y-49158D01*
X69908Y-49162D01*
X69893Y-49166D01*
X69882Y-49166D01*
X69867Y-49162D01*
X69859Y-49158D01*
X69852Y-49151D01*
X69848Y-49140D01*
X69848Y-49132D01*
X69852Y-49121D01*
X69856Y-49117D01*
X69848Y-49091D02*
X69848Y-49042D01*
X69878Y-49068D01*
X69878Y-49057D01*
X69882Y-49049D01*
X69886Y-49046D01*
X69893Y-49042D01*
X69912Y-49042D01*
X69920Y-49046D01*
X69923Y-49049D01*
X69927Y-49057D01*
X69927Y-49079D01*
X69923Y-49087D01*
X69920Y-49091D01*
X70116Y-54078D02*
X70120Y-54081D01*
X70124Y-54093D01*
X70124Y-54100D01*
X70120Y-54111D01*
X70113Y-54119D01*
X70105Y-54123D01*
X70090Y-54127D01*
X70079Y-54127D01*
X70064Y-54123D01*
X70056Y-54119D01*
X70049Y-54111D01*
X70045Y-54100D01*
X70045Y-54093D01*
X70049Y-54081D01*
X70053Y-54078D01*
X70071Y-54010D02*
X70124Y-54010D01*
X70041Y-54029D02*
X70098Y-54048D01*
X70098Y-53999D01*
G54D10*
X68467Y-49979D02*
X68467Y-50170D01*
X68478Y-50193D01*
X68490Y-50204D01*
X68512Y-50215D01*
X68557Y-50215D01*
X68580Y-50204D01*
X68591Y-50193D01*
X68602Y-50170D01*
X68602Y-49979D01*
X68838Y-50215D02*
X68703Y-50215D01*
X68771Y-50215D02*
X68771Y-49979D01*
X68748Y-50013D01*
X68726Y-50035D01*
X68703Y-50046D01*
X67564Y-52715D02*
X67564Y-52479D01*
X67620Y-52479D01*
X67654Y-52490D01*
X67676Y-52513D01*
X67688Y-52535D01*
X67699Y-52580D01*
X67699Y-52614D01*
X67688Y-52659D01*
X67676Y-52681D01*
X67654Y-52704D01*
X67620Y-52715D01*
X67564Y-52715D01*
X67935Y-52715D02*
X67856Y-52603D01*
X67800Y-52715D02*
X67800Y-52479D01*
X67890Y-52479D01*
X67913Y-52490D01*
X67924Y-52501D01*
X67935Y-52524D01*
X67935Y-52558D01*
X67924Y-52580D01*
X67913Y-52591D01*
X67890Y-52603D01*
X67800Y-52603D01*
X68003Y-52479D02*
X68081Y-52715D01*
X68160Y-52479D01*
X68273Y-52580D02*
X68250Y-52569D01*
X68239Y-52558D01*
X68228Y-52535D01*
X68228Y-52524D01*
X68239Y-52501D01*
X68250Y-52490D01*
X68273Y-52479D01*
X68318Y-52479D01*
X68340Y-52490D01*
X68351Y-52501D01*
X68363Y-52524D01*
X68363Y-52535D01*
X68351Y-52558D01*
X68340Y-52569D01*
X68318Y-52580D01*
X68273Y-52580D01*
X68250Y-52591D01*
X68239Y-52603D01*
X68228Y-52625D01*
X68228Y-52670D01*
X68239Y-52693D01*
X68250Y-52704D01*
X68273Y-52715D01*
X68318Y-52715D01*
X68340Y-52704D01*
X68351Y-52693D01*
X68363Y-52670D01*
X68363Y-52625D01*
X68351Y-52603D01*
X68340Y-52591D01*
X68318Y-52580D01*
X68498Y-52580D02*
X68475Y-52569D01*
X68464Y-52558D01*
X68453Y-52535D01*
X68453Y-52524D01*
X68464Y-52501D01*
X68475Y-52490D01*
X68498Y-52479D01*
X68543Y-52479D01*
X68565Y-52490D01*
X68576Y-52501D01*
X68588Y-52524D01*
X68588Y-52535D01*
X68576Y-52558D01*
X68565Y-52569D01*
X68543Y-52580D01*
X68498Y-52580D01*
X68475Y-52591D01*
X68464Y-52603D01*
X68453Y-52625D01*
X68453Y-52670D01*
X68464Y-52693D01*
X68475Y-52704D01*
X68498Y-52715D01*
X68543Y-52715D01*
X68565Y-52704D01*
X68576Y-52693D01*
X68588Y-52670D01*
X68588Y-52625D01*
X68576Y-52603D01*
X68565Y-52591D01*
X68543Y-52580D01*
X68734Y-52479D02*
X68756Y-52479D01*
X68779Y-52490D01*
X68790Y-52501D01*
X68801Y-52524D01*
X68812Y-52569D01*
X68812Y-52625D01*
X68801Y-52670D01*
X68790Y-52693D01*
X68779Y-52704D01*
X68756Y-52715D01*
X68734Y-52715D01*
X68711Y-52704D01*
X68700Y-52693D01*
X68689Y-52670D01*
X68678Y-52625D01*
X68678Y-52569D01*
X68689Y-52524D01*
X68700Y-52501D01*
X68711Y-52490D01*
X68734Y-52479D01*
X68959Y-52479D02*
X68981Y-52479D01*
X69004Y-52490D01*
X69015Y-52501D01*
X69026Y-52524D01*
X69037Y-52569D01*
X69037Y-52625D01*
X69026Y-52670D01*
X69015Y-52693D01*
X69004Y-52704D01*
X68981Y-52715D01*
X68959Y-52715D01*
X68936Y-52704D01*
X68925Y-52693D01*
X68914Y-52670D01*
X68902Y-52625D01*
X68902Y-52569D01*
X68914Y-52524D01*
X68925Y-52501D01*
X68936Y-52490D01*
X68959Y-52479D01*
X69082Y-52738D02*
X69262Y-52738D01*
X69454Y-52715D02*
X69375Y-52603D01*
X69319Y-52715D02*
X69319Y-52479D01*
X69409Y-52479D01*
X69431Y-52490D01*
X69442Y-52501D01*
X69454Y-52524D01*
X69454Y-52558D01*
X69442Y-52580D01*
X69431Y-52591D01*
X69409Y-52603D01*
X69319Y-52603D01*
X69521Y-52479D02*
X69656Y-52479D01*
X69589Y-52715D02*
X69589Y-52479D01*
X69780Y-52603D02*
X69780Y-52715D01*
X69701Y-52479D02*
X69780Y-52603D01*
X69859Y-52479D01*
G54D14*
X63635Y-51073D02*
X63635Y-51559D01*
X63663Y-51616D01*
X63692Y-51645D01*
X63749Y-51673D01*
X63863Y-51673D01*
X63921Y-51645D01*
X63949Y-51616D01*
X63978Y-51559D01*
X63978Y-51073D01*
X64235Y-51131D02*
X64263Y-51102D01*
X64321Y-51073D01*
X64463Y-51073D01*
X64521Y-51102D01*
X64549Y-51131D01*
X64578Y-51188D01*
X64578Y-51245D01*
X64549Y-51331D01*
X64206Y-51673D01*
X64578Y-51673D01*
X61344Y-51374D02*
X61144Y-51089D01*
X61001Y-51374D02*
X61001Y-50774D01*
X61230Y-50774D01*
X61287Y-50803D01*
X61315Y-50831D01*
X61344Y-50889D01*
X61344Y-50974D01*
X61315Y-51031D01*
X61287Y-51060D01*
X61230Y-51089D01*
X61001Y-51089D01*
X61772Y-50774D02*
X61772Y-51203D01*
X61744Y-51289D01*
X61687Y-51346D01*
X61601Y-51374D01*
X61544Y-51374D01*
X62372Y-51374D02*
X62030Y-51374D01*
X62201Y-51374D02*
X62201Y-50774D01*
X62144Y-50860D01*
X62087Y-50917D01*
X62030Y-50946D01*
X62601Y-50831D02*
X62630Y-50803D01*
X62687Y-50774D01*
X62830Y-50774D01*
X62887Y-50803D01*
X62915Y-50831D01*
X62944Y-50889D01*
X62944Y-50946D01*
X62915Y-51031D01*
X62572Y-51374D01*
X62944Y-51374D01*
G54D21*
X69528Y-54001D02*
X69457Y-54051D01*
X69528Y-54087D02*
X69378Y-54087D01*
X69378Y-54030D01*
X69385Y-54015D01*
X69392Y-54008D01*
X69407Y-54001D01*
X69428Y-54001D01*
X69442Y-54008D01*
X69449Y-54015D01*
X69457Y-54030D01*
X69457Y-54087D01*
X69378Y-53872D02*
X69378Y-53901D01*
X69385Y-53915D01*
X69392Y-53922D01*
X69414Y-53937D01*
X69442Y-53944D01*
X69499Y-53944D01*
X69514Y-53937D01*
X69521Y-53930D01*
X69528Y-53915D01*
X69528Y-53887D01*
X69521Y-53872D01*
X69514Y-53865D01*
X69499Y-53858D01*
X69464Y-53858D01*
X69449Y-53865D01*
X69442Y-53872D01*
X69435Y-53887D01*
X69435Y-53915D01*
X69442Y-53930D01*
X69449Y-53937D01*
X69464Y-53944D01*
G54D19*
X69570Y-47687D02*
X69570Y-48116D01*
X69542Y-48201D01*
X69484Y-48258D01*
X69399Y-48287D01*
X69342Y-48287D01*
X70170Y-48287D02*
X69827Y-48287D01*
X69999Y-48287D02*
X69999Y-47687D01*
X69942Y-47773D01*
X69884Y-47830D01*
X69827Y-47858D01*
X69104Y-54767D02*
X69104Y-55196D01*
X69075Y-55281D01*
X69018Y-55338D01*
X68932Y-55367D01*
X68875Y-55367D01*
X69361Y-54824D02*
X69389Y-54796D01*
X69446Y-54767D01*
X69589Y-54767D01*
X69646Y-54796D01*
X69675Y-54824D01*
X69704Y-54881D01*
X69704Y-54938D01*
X69675Y-55024D01*
X69332Y-55367D01*
X69704Y-55367D01*
G54D22*
X63466Y-58448D02*
X63475Y-58457D01*
X63484Y-58485D01*
X63484Y-58504D01*
X63475Y-58532D01*
X63456Y-58551D01*
X63437Y-58560D01*
X63400Y-58570D01*
X63372Y-58570D01*
X63334Y-58560D01*
X63315Y-58551D01*
X63297Y-58532D01*
X63287Y-58504D01*
X63287Y-58485D01*
X63297Y-58457D01*
X63306Y-58448D01*
X63306Y-58373D02*
X63297Y-58363D01*
X63287Y-58344D01*
X63287Y-58298D01*
X63297Y-58279D01*
X63306Y-58269D01*
X63325Y-58260D01*
X63344Y-58260D01*
X63372Y-58269D01*
X63484Y-58382D01*
X63484Y-58260D01*
M02*
