G04 (created by PCBNEW (2013-08-24 BZR 4298)-stable) date Sat 09 Aug 2014 02:40:24 PM PDT*
%MOIN*%
G04 Gerber Fmt 3.4, Leading zero omitted, Abs format*
%FSLAX34Y34*%
G01*
G70*
G90*
G04 APERTURE LIST*
%ADD10C,0.005906*%
%ADD11R,0.023937X0.200000*%
%ADD12R,0.028320X0.031520*%
%ADD13R,0.023937X0.157480*%
%ADD14R,0.277165X0.141732*%
%ADD15R,0.007087X0.018898*%
%ADD16R,0.018898X0.007087*%
%ADD17R,0.031520X0.028320*%
%ADD18R,0.044000X0.028000*%
%ADD19R,0.075600X0.110240*%
%ADD20R,0.062960X0.062960*%
%ADD21R,0.144882X0.025512*%
%ADD22R,0.144882X0.019213*%
%ADD23R,0.031496X0.025197*%
%ADD24R,0.157480X0.023937*%
%ADD25R,0.141732X0.277165*%
%ADD26R,0.080000X0.031200*%
%ADD27R,0.044094X0.107087*%
%ADD28R,0.072441X0.176378*%
%ADD29R,0.107087X0.044094*%
%ADD30R,0.176378X0.072441*%
%ADD31R,0.078720X0.078720*%
%ADD32O,0.007840X0.025200*%
%ADD33O,0.025200X0.007840*%
%ADD34R,0.007874X0.026772*%
%ADD35R,0.026772X0.007874*%
%ADD36R,0.225197X0.225197*%
%ADD37R,0.049606X0.049606*%
%ADD38R,0.023622X0.008268*%
%ADD39R,0.008268X0.023622*%
G04 APERTURE END LIST*
G54D10*
G54D11*
X66791Y-52696D03*
X65791Y-52696D03*
X64791Y-52696D03*
X65291Y-52696D03*
X64291Y-52696D03*
X66291Y-52696D03*
G54D12*
X45994Y-62332D03*
X45402Y-62332D03*
X45994Y-61624D03*
X45402Y-61624D03*
X48042Y-63474D03*
X47450Y-63474D03*
G54D13*
X46181Y-59025D03*
X47181Y-59025D03*
X48181Y-59025D03*
X47681Y-59025D03*
X48681Y-59025D03*
X46681Y-59025D03*
G54D14*
X47431Y-52706D03*
G54D15*
X47352Y-62431D03*
X47155Y-62431D03*
X47155Y-61427D03*
X47547Y-62431D03*
X47746Y-62431D03*
X47942Y-62431D03*
G54D16*
X48051Y-62125D03*
X48051Y-61942D03*
X48051Y-61732D03*
G54D15*
X47942Y-61427D03*
X47746Y-61427D03*
X47547Y-61427D03*
X47352Y-61427D03*
G54D16*
X47047Y-61732D03*
X47047Y-61935D03*
X47047Y-62125D03*
G54D12*
X55796Y-57864D03*
X56388Y-57864D03*
X57994Y-55446D03*
X57402Y-55446D03*
X56733Y-53021D03*
X57325Y-53021D03*
G54D17*
X52637Y-56465D03*
X52637Y-57057D03*
G54D12*
X57257Y-54293D03*
X57849Y-54293D03*
G54D17*
X54665Y-58700D03*
X54665Y-59292D03*
X53523Y-58709D03*
X53523Y-59301D03*
X53326Y-53749D03*
X53326Y-54341D03*
G54D18*
X54153Y-54518D03*
X54153Y-53768D03*
G54D19*
X57864Y-50974D03*
X57864Y-48414D03*
G54D11*
X57795Y-58661D03*
X58795Y-58661D03*
X59795Y-58661D03*
X59295Y-58661D03*
X60295Y-58661D03*
X58295Y-58661D03*
G54D20*
X35118Y-25940D03*
X37520Y-25940D03*
X35118Y-30202D03*
X37520Y-30202D03*
G54D21*
X43523Y-33291D03*
X43523Y-34015D03*
G54D22*
X43523Y-34488D03*
X43523Y-34889D03*
X43523Y-35692D03*
X43523Y-37291D03*
X43523Y-36488D03*
G54D21*
X43523Y-38488D03*
X43523Y-37763D03*
G54D22*
X43523Y-36090D03*
X43523Y-36889D03*
X43523Y-35291D03*
G54D12*
X63877Y-38188D03*
X64469Y-38188D03*
G54D23*
X58858Y-31712D03*
X59645Y-31712D03*
X58858Y-31122D03*
X59645Y-31122D03*
X49921Y-38759D03*
X49133Y-38759D03*
X49921Y-39350D03*
X49133Y-39350D03*
G54D24*
X48149Y-28769D03*
X48149Y-27769D03*
X48149Y-26769D03*
X48149Y-27269D03*
X48149Y-26269D03*
X48149Y-28269D03*
G54D25*
X41830Y-27519D03*
G54D24*
X59763Y-28572D03*
X59763Y-27572D03*
X59763Y-26572D03*
X59763Y-27072D03*
X59763Y-26072D03*
X59763Y-28072D03*
G54D25*
X53444Y-27322D03*
G54D24*
X65590Y-26112D03*
X65590Y-27112D03*
X65590Y-28112D03*
X65590Y-27612D03*
X65590Y-28612D03*
X65590Y-26612D03*
G54D25*
X71909Y-27362D03*
G54D26*
X45972Y-41586D03*
X44972Y-42586D03*
G54D27*
X65492Y-41417D03*
X64507Y-41417D03*
X63523Y-41417D03*
X58602Y-41417D03*
X60570Y-41417D03*
X59586Y-41417D03*
G54D28*
X66653Y-42657D03*
G54D27*
X61555Y-41417D03*
X62539Y-41417D03*
G54D28*
X57440Y-42657D03*
G54D29*
X66771Y-32185D03*
X66771Y-33169D03*
X66771Y-34153D03*
X66771Y-39074D03*
X66771Y-37106D03*
X66771Y-38090D03*
G54D30*
X68011Y-31023D03*
G54D29*
X66771Y-36122D03*
X66771Y-35137D03*
G54D30*
X68011Y-40236D03*
G54D27*
X58562Y-46574D03*
X59547Y-46574D03*
X60531Y-46574D03*
X65452Y-46574D03*
X63484Y-46574D03*
X64468Y-46574D03*
G54D28*
X57401Y-45334D03*
G54D27*
X62500Y-46574D03*
X61515Y-46574D03*
G54D28*
X66614Y-45334D03*
G54D29*
X71929Y-39114D03*
X71929Y-38129D03*
X71929Y-37145D03*
X71929Y-32224D03*
X71929Y-34192D03*
X71929Y-33208D03*
G54D30*
X70688Y-40275D03*
G54D29*
X71929Y-35177D03*
X71929Y-36161D03*
G54D30*
X70688Y-31062D03*
G54D18*
X53700Y-31398D03*
X53700Y-30648D03*
G54D17*
X45106Y-34512D03*
X45106Y-33920D03*
G54D12*
X45516Y-33295D03*
X44924Y-33295D03*
X48168Y-41456D03*
X48760Y-41456D03*
X44693Y-40208D03*
X44101Y-40208D03*
G54D17*
X45405Y-37822D03*
X45405Y-38414D03*
X45385Y-37134D03*
X45385Y-36542D03*
X46291Y-35664D03*
X46291Y-36256D03*
X46283Y-35051D03*
X46283Y-34459D03*
G54D12*
X54154Y-37480D03*
X53562Y-37480D03*
X54685Y-36791D03*
X54093Y-36791D03*
X55020Y-36082D03*
X54428Y-36082D03*
X49310Y-38129D03*
X49902Y-38129D03*
X53642Y-39881D03*
X53050Y-39881D03*
X55650Y-39094D03*
X55058Y-39094D03*
X55666Y-38421D03*
X55074Y-38421D03*
G54D17*
X59448Y-32459D03*
X59448Y-33051D03*
X60354Y-31713D03*
X60354Y-31121D03*
X58110Y-31121D03*
X58110Y-31713D03*
X60354Y-32459D03*
X60354Y-33051D03*
G54D12*
X62894Y-35000D03*
X62302Y-35000D03*
G54D17*
X55728Y-32676D03*
X55728Y-33268D03*
G54D12*
X62067Y-36811D03*
X61475Y-36811D03*
G54D17*
X40098Y-26752D03*
X40098Y-26160D03*
X57755Y-39664D03*
X57755Y-40256D03*
X47409Y-32491D03*
X47409Y-33083D03*
X47125Y-40137D03*
X47125Y-40729D03*
X48228Y-39351D03*
X48228Y-38759D03*
X50748Y-39351D03*
X50748Y-38759D03*
X53188Y-39095D03*
X53188Y-38503D03*
G54D18*
X46094Y-32077D03*
X46094Y-32827D03*
G54D12*
X47491Y-36114D03*
X48083Y-36114D03*
G54D31*
X50003Y-35208D03*
G54D32*
X49511Y-35995D03*
X49708Y-35995D03*
X49905Y-35995D03*
X50101Y-35995D03*
X50298Y-35995D03*
X50495Y-35995D03*
G54D33*
X50790Y-35700D03*
X50790Y-35503D03*
X50790Y-35306D03*
X50790Y-35110D03*
X50790Y-34913D03*
X50790Y-34716D03*
G54D32*
X50495Y-34421D03*
X50298Y-34421D03*
X50101Y-34421D03*
X49905Y-34421D03*
X49708Y-34421D03*
X49511Y-34421D03*
G54D33*
X49216Y-34716D03*
X49216Y-34913D03*
X49216Y-35110D03*
X49216Y-35306D03*
X49216Y-35503D03*
X49216Y-35700D03*
G54D17*
X52216Y-39040D03*
X52216Y-38448D03*
X46850Y-32483D03*
X46850Y-33075D03*
X52519Y-30255D03*
X52519Y-30847D03*
X65078Y-39625D03*
X65078Y-40217D03*
G54D12*
X64782Y-31377D03*
X65374Y-31377D03*
G54D17*
X64173Y-39625D03*
X64173Y-40217D03*
G54D12*
X64270Y-32637D03*
X64862Y-32637D03*
G54D34*
X59807Y-37259D03*
X60003Y-37259D03*
X58625Y-37259D03*
X58822Y-37259D03*
X59216Y-37259D03*
X59019Y-37259D03*
X59610Y-37259D03*
X59413Y-37259D03*
X57838Y-37259D03*
X58035Y-37259D03*
X58429Y-37259D03*
X58232Y-37259D03*
X57444Y-37259D03*
X57641Y-37259D03*
X57248Y-37259D03*
X57051Y-37259D03*
G54D35*
X56775Y-36984D03*
X56775Y-36787D03*
X56775Y-36393D03*
X56775Y-36590D03*
X56775Y-35803D03*
X56775Y-35606D03*
X56775Y-36000D03*
X56775Y-36196D03*
X56775Y-34622D03*
X56775Y-34425D03*
X56775Y-35015D03*
X56775Y-34818D03*
X56775Y-35212D03*
X56775Y-35409D03*
X56775Y-34031D03*
X56775Y-34228D03*
G54D34*
X57051Y-33755D03*
X57248Y-33755D03*
X57641Y-33755D03*
X57444Y-33755D03*
X58232Y-33755D03*
X58429Y-33755D03*
X58035Y-33755D03*
X57838Y-33755D03*
X59413Y-33755D03*
X59610Y-33755D03*
X59019Y-33755D03*
X59216Y-33755D03*
X58822Y-33755D03*
X58625Y-33755D03*
X60003Y-33755D03*
X59807Y-33755D03*
G54D35*
X60279Y-34228D03*
X60279Y-34031D03*
X60279Y-35409D03*
X60279Y-35212D03*
X60279Y-34818D03*
X60279Y-35007D03*
X60279Y-34425D03*
X60279Y-34622D03*
X60279Y-36196D03*
X60279Y-36000D03*
X60279Y-35606D03*
X60279Y-35803D03*
X60279Y-36590D03*
X60279Y-36393D03*
X60279Y-36787D03*
X60279Y-36984D03*
G54D36*
X58527Y-35507D03*
G54D17*
X63110Y-39546D03*
X63110Y-40138D03*
G54D12*
X64310Y-33818D03*
X64902Y-33818D03*
G54D17*
X62283Y-39389D03*
X62283Y-39981D03*
G54D12*
X64310Y-34527D03*
X64902Y-34527D03*
G54D17*
X61181Y-39428D03*
X61181Y-40020D03*
G54D12*
X64625Y-35826D03*
X65217Y-35826D03*
G54D17*
X60551Y-39428D03*
X60551Y-40020D03*
G54D12*
X64625Y-36456D03*
X65217Y-36456D03*
G54D17*
X59527Y-39546D03*
X59527Y-40138D03*
G54D12*
X64625Y-37598D03*
X65217Y-37598D03*
G54D17*
X58858Y-39546D03*
X58858Y-40138D03*
G54D12*
X63839Y-25944D03*
X63247Y-25944D03*
X50688Y-27322D03*
X51280Y-27322D03*
X61751Y-27007D03*
X62343Y-27007D03*
X63168Y-28267D03*
X63760Y-28267D03*
X51280Y-26692D03*
X50688Y-26692D03*
X61987Y-25708D03*
X62579Y-25708D03*
G54D17*
X63149Y-27421D03*
X63149Y-26829D03*
X51850Y-26711D03*
X51850Y-27303D03*
G54D12*
X61987Y-26299D03*
X62579Y-26299D03*
G54D15*
X38986Y-62431D03*
X38789Y-62431D03*
X38789Y-61427D03*
X39181Y-62431D03*
X39379Y-62431D03*
X39576Y-62431D03*
G54D16*
X39685Y-62125D03*
X39685Y-61942D03*
X39685Y-61732D03*
G54D15*
X39576Y-61427D03*
X39379Y-61427D03*
X39181Y-61427D03*
X38986Y-61427D03*
G54D16*
X38681Y-61732D03*
X38681Y-61935D03*
X38681Y-62125D03*
G54D13*
X37814Y-59025D03*
X38814Y-59025D03*
X39814Y-59025D03*
X39314Y-59025D03*
X40314Y-59025D03*
X38314Y-59025D03*
G54D14*
X39064Y-52706D03*
G54D12*
X39675Y-63474D03*
X39083Y-63474D03*
X37628Y-61624D03*
X37036Y-61624D03*
X37628Y-62332D03*
X37036Y-62332D03*
X68790Y-53494D03*
X68198Y-53494D03*
X66591Y-55911D03*
X67183Y-55911D03*
X67185Y-57598D03*
X66593Y-57598D03*
G54D17*
X71948Y-54892D03*
X71948Y-54300D03*
G54D12*
X67225Y-56712D03*
X66633Y-56712D03*
G54D17*
X69921Y-52658D03*
X69921Y-52066D03*
X71062Y-52648D03*
X71062Y-52056D03*
X71240Y-57166D03*
X71240Y-56574D03*
G54D18*
X70216Y-56554D03*
X70216Y-57304D03*
G54D19*
X66535Y-59999D03*
X66535Y-62559D03*
G54D37*
X54517Y-56781D03*
G54D38*
X55265Y-57165D03*
X55265Y-56909D03*
X55265Y-56653D03*
X55265Y-56397D03*
G54D39*
X54901Y-56033D03*
X54645Y-56033D03*
X54389Y-56033D03*
X54133Y-56033D03*
G54D38*
X53769Y-56397D03*
X53769Y-56653D03*
X53769Y-56909D03*
X53769Y-57165D03*
G54D39*
X54133Y-57529D03*
X54389Y-57529D03*
X54645Y-57529D03*
X54901Y-57529D03*
G54D37*
X70068Y-54576D03*
G54D38*
X69320Y-54192D03*
X69320Y-54448D03*
X69320Y-54704D03*
X69320Y-54960D03*
G54D39*
X69685Y-55324D03*
X69940Y-55324D03*
X70196Y-55324D03*
X70452Y-55324D03*
G54D38*
X70816Y-54960D03*
X70816Y-54704D03*
X70816Y-54448D03*
X70816Y-54192D03*
G54D39*
X70452Y-53828D03*
X70196Y-53828D03*
X69940Y-53828D03*
X69685Y-53828D03*
M02*
