  0
SECTION
  2
HEADER
  9
$ANGBASE
  50
0.0
  9
$ANGDIR
  70
  1
  9
$MEASUREMENT
  70
0
  0
ENDSEC
  0
SECTION
  2
TABLES
  0
TABLE
  2
LTYPE
  70
1
  0
LTYPE
  2
CONTINUOUS
  70
0
  3
Solid line
  72
65
  73
0
  40
0.0
  0
ENDTAB
  0
TABLE
  2
STYLE
  70
4
  0
STYLE
  2
KICAD
  70
0
  40
0
  41
1
  42
1
  50
0
  71
0
  3
isocp.shx
  0
STYLE
  2
KICADB
  70
0
  40
0
  41
1
  42
1
  50
0
  71
0
  3
isocp.shx
  0
STYLE
  2
KICADI
  70
0
  40
0
  41
1
  42
1
  50
15
  71
0
  3
isocp.shx
  0
STYLE
  2
KICADBI
  70
0
  40
0
  41
1
  42
1
  50
15
  71
0
  3
isocp.shx
  0
ENDTAB
  0
TABLE
  2
LAYER
  70
30
  0
LAYER
  2
BLACK
  70
0
  62
7
  6
CONTINUOUS
  0
LAYER
  2
GRAY1
  70
0
  62
251
  6
CONTINUOUS
  0
LAYER
  2
GRAY2
  70
0
  62
8
  6
CONTINUOUS
  0
LAYER
  2
GRAY3
  70
0
  62
9
  6
CONTINUOUS
  0
LAYER
  2
WHITE
  70
0
  62
7
  6
CONTINUOUS
  0
LAYER
  2
LYELLOW
  70
0
  62
51
  6
CONTINUOUS
  0
LAYER
  2
BLUE1
  70
0
  62
178
  6
CONTINUOUS
  0
LAYER
  2
GREEN1
  70
0
  62
98
  6
CONTINUOUS
  0
LAYER
  2
CYAN1
  70
0
  62
138
  6
CONTINUOUS
  0
LAYER
  2
RED1
  70
0
  62
18
  6
CONTINUOUS
  0
LAYER
  2
MAGENTA1
  70
0
  62
228
  6
CONTINUOUS
  0
LAYER
  2
BROWN1
  70
0
  62
58
  6
CONTINUOUS
  0
LAYER
  2
BLUE2
  70
0
  62
5
  6
CONTINUOUS
  0
LAYER
  2
GREEN2
  70
0
  62
3
  6
CONTINUOUS
  0
LAYER
  2
CYAN2
  70
0
  62
4
  6
CONTINUOUS
  0
LAYER
  2
RED2
  70
0
  62
1
  6
CONTINUOUS
  0
LAYER
  2
MAGENTA2
  70
0
  62
6
  6
CONTINUOUS
  0
LAYER
  2
BROWN2
  70
0
  62
54
  6
CONTINUOUS
  0
LAYER
  2
BLUE3
  70
0
  62
171
  6
CONTINUOUS
  0
LAYER
  2
GREEN3
  70
0
  62
91
  6
CONTINUOUS
  0
LAYER
  2
CYAN3
  70
0
  62
131
  6
CONTINUOUS
  0
LAYER
  2
RED3
  70
0
  62
11
  6
CONTINUOUS
  0
LAYER
  2
MAGENTA3
  70
0
  62
221
  6
CONTINUOUS
  0
LAYER
  2
YELLOW3
  70
0
  62
2
  6
CONTINUOUS
  0
LAYER
  2
BLUE4
  70
0
  62
5
  6
CONTINUOUS
  0
LAYER
  2
GREEN4
  70
0
  62
3
  6
CONTINUOUS
  0
LAYER
  2
CYAN4
  70
0
  62
4
  6
CONTINUOUS
  0
LAYER
  2
RED4
  70
0
  62
1
  6
CONTINUOUS
  0
LAYER
  2
MAGENTA4
  70
0
  62
6
  6
CONTINUOUS
  0
LAYER
  2
YELLOW4
  70
0
  62
2
  6
CONTINUOUS
  0
ENDTAB
  0
ENDSEC
  0
SECTION
  2
ENTITIES
0
CIRCLE
8
Black
10
80.2
20
-66
40
0.35
0
CIRCLE
8
Black
10
74.4
20
-66.8
40
0.35
0
CIRCLE
8
Black
10
81.4732
20
-60.7232
40
0.35
0
CIRCLE
8
Black
10
85.325
20
-56.675
40
0.35
0
CIRCLE
8
Black
10
69.325
20
-56.675
40
0.35
0
CIRCLE
8
Black
10
65.4732
20
-60.7232
40
0.35
0
CIRCLE
8
Black
10
58.4
20
-66.8
40
0.35
0
CIRCLE
8
Black
10
64.2
20
-66
40
0.35
0
CIRCLE
8
Black
10
63.6
20
-83.3
40
0.35
0
CIRCLE
8
Black
10
60.1
20
-90.6
40
0.35
0
CIRCLE
8
Black
10
61.8
20
-90.5
40
0.35
0
CIRCLE
8
Black
10
97.1
20
-83.3
40
0.35
0
CIRCLE
8
Black
10
93.6
20
-90.6
40
0.35
0
CIRCLE
8
Black
10
95.3
20
-90.5
40
0.35
0
CIRCLE
8
Black
10
97.1
20
-62.8
40
0.35
0
CIRCLE
8
Black
10
93.6
20
-70.1
40
0.35
0
CIRCLE
8
Black
10
95.3
20
-70
40
0.35
0
CIRCLE
8
Black
10
97.1
20
-42.3
40
0.35
0
CIRCLE
8
Black
10
93.6
20
-49.6
40
0.35
0
CIRCLE
8
Black
10
95.3
20
-49.5
40
0.35
0
CIRCLE
8
Black
10
82.75
20
-60.75
40
0.35
0
CIRCLE
8
Black
10
82
20
-65
40
0.35
0
CIRCLE
8
Black
10
66
20
-65
40
0.35
0
CIRCLE
8
Black
10
66.75
20
-60.75
40
0.35
0
CIRCLE
8
Black
10
64.4
20
-84.9
40
0.35
0
CIRCLE
8
Black
10
63.1
20
-89.5
40
0.35
0
CIRCLE
8
Black
10
97.9
20
-84.9
40
0.35
0
CIRCLE
8
Black
10
96.6
20
-89.5
40
0.35
0
CIRCLE
8
Black
10
97.9
20
-64.4
40
0.35
0
CIRCLE
8
Black
10
96.6
20
-69
40
0.35
0
CIRCLE
8
Black
10
97.9
20
-43.9
40
0.35
0
CIRCLE
8
Black
10
96.6
20
-48.5
40
0.35
0
CIRCLE
8
Black
10
83.3
20
-67.1
40
0.35
0
CIRCLE
8
Black
10
76.8
20
-65.6
40
0.35
0
CIRCLE
8
Black
10
60.8
20
-65.6
40
0.35
0
CIRCLE
8
Black
10
67.3
20
-67.1
40
0.35
0
CIRCLE
8
Black
10
65.4
20
-87.3
40
0.35
0
CIRCLE
8
Black
10
58.8
20
-89.6
40
0.35
0
CIRCLE
8
Black
10
98.9
20
-87.3
40
0.35
0
CIRCLE
8
Black
10
92.3
20
-89.6
40
0.35
0
CIRCLE
8
Black
10
98.9
20
-66.8
40
0.35
0
CIRCLE
8
Black
10
92.3
20
-69.1
40
0.35
0
CIRCLE
8
Black
10
98.9
20
-46.3
40
0.35
0
CIRCLE
8
Black
10
92.3
20
-48.6
40
0.35
0
LINE
8
Black
10
80.0939
20
-65.8939
11
79.9939
21
-65.9939
0
LINE
8
Black
10
80.3061
20
-66.1061
11
80.2061
21
-66.2061
0
ARC
8
Black
10
80.1
20
-66.1
40
0.15
50
495
51
675
0
ARC
8
Black
10
80.2
20
-66
40
0.15
50
315
51
495
0
LINE
8
Black
10
64.0939
20
-65.8939
11
63.9939
21
-65.9939
0
LINE
8
Black
10
64.3061
20
-66.1061
11
64.2061
21
-66.2061
0
ARC
8
Black
10
64.1
20
-66.1
40
0.15
50
495
51
675
0
ARC
8
Black
10
64.2
20
-66
40
0.15
50
315
51
495
0
LINE
8
Black
10
61.6061
20
-91.2939
11
60.8061
21
-90.4939
0
LINE
8
Black
10
61.3939
20
-91.5061
11
60.5939
21
-90.7061
0
ARC
8
Black
10
60.7
20
-90.6
40
0.15
50
405
51
585
0
ARC
8
Black
10
61.5
20
-91.4
40
0.15
50
225
51
405
0
LINE
8
Black
10
61.5
20
-91.55
11
64.9
21
-91.55
0
LINE
8
Black
10
61.5
20
-91.25
11
64.9
21
-91.25
0
ARC
8
Black
10
64.9
20
-91.4
40
0.15
50
270
51
450
0
ARC
8
Black
10
61.5
20
-91.4
40
0.15
50
90
51
270
0
LINE
8
Black
10
66.3939
20
-89.6939
11
64.7939
21
-91.2939
0
LINE
8
Black
10
66.6061
20
-89.9061
11
65.0061
21
-91.5061
0
ARC
8
Black
10
64.9
20
-91.4
40
0.15
50
495
51
675
0
ARC
8
Black
10
66.5
20
-89.8
40
0.15
50
315
51
495
0
LINE
8
Black
10
66.65
20
-89.8
11
66.65
21
-84.4
0
LINE
8
Black
10
66.35
20
-89.8
11
66.35
21
-84.4
0
ARC
8
Black
10
66.5
20
-84.4
40
0.15
50
360
51
540
0
ARC
8
Black
10
66.5
20
-89.8
40
0.15
50
180
51
360
0
LINE
8
Black
10
65.2939
20
-83.4061
11
66.3939
21
-84.5061
0
LINE
8
Black
10
65.5061
20
-83.1939
11
66.6061
21
-84.2939
0
ARC
8
Black
10
66.5
20
-84.4
40
0.15
50
225
51
405
0
ARC
8
Black
10
65.4
20
-83.3
40
0.15
50
45
51
225
0
LINE
8
Black
10
63.6
20
-83.45
11
65.4
21
-83.45
0
LINE
8
Black
10
63.6
20
-83.15
11
65.4
21
-83.15
0
ARC
8
Black
10
65.4
20
-83.3
40
0.15
50
270
51
450
0
ARC
8
Black
10
63.6
20
-83.3
40
0.15
50
90
51
270
0
LINE
8
Black
10
60.1
20
-90.75
11
60.7
21
-90.75
0
LINE
8
Black
10
60.1
20
-90.45
11
60.7
21
-90.45
0
ARC
8
Black
10
60.7
20
-90.6
40
0.15
50
270
51
450
0
ARC
8
Black
10
60.1
20
-90.6
40
0.15
50
90
51
270
0
LINE
8
Black
10
60.7
20
-90.75
11
61.7
21
-90.75
0
LINE
8
Black
10
60.7
20
-90.45
11
61.7
21
-90.45
0
ARC
8
Black
10
61.7
20
-90.6
40
0.15
50
270
51
450
0
ARC
8
Black
10
60.7
20
-90.6
40
0.15
50
90
51
270
0
LINE
8
Black
10
61.6939
20
-90.3939
11
61.5939
21
-90.4939
0
LINE
8
Black
10
61.9061
20
-90.6061
11
61.8061
21
-90.7061
0
ARC
8
Black
10
61.7
20
-90.6
40
0.15
50
495
51
675
0
ARC
8
Black
10
61.8
20
-90.5
40
0.15
50
315
51
495
0
LINE
8
Black
10
95.1061
20
-91.2939
11
94.3061
21
-90.4939
0
LINE
8
Black
10
94.8939
20
-91.5061
11
94.0939
21
-90.7061
0
ARC
8
Black
10
94.2
20
-90.6
40
0.15
50
405
51
585
0
ARC
8
Black
10
95
20
-91.4
40
0.15
50
225
51
405
0
LINE
8
Black
10
95
20
-91.55
11
98.4
21
-91.55
0
LINE
8
Black
10
95
20
-91.25
11
98.4
21
-91.25
0
ARC
8
Black
10
98.4
20
-91.4
40
0.15
50
270
51
450
0
ARC
8
Black
10
95
20
-91.4
40
0.15
50
90
51
270
0
LINE
8
Black
10
99.8939
20
-89.6939
11
98.2939
21
-91.2939
0
LINE
8
Black
10
100.106
20
-89.9061
11
98.5061
21
-91.5061
0
ARC
8
Black
10
98.4
20
-91.4
40
0.15
50
495
51
675
0
ARC
8
Black
10
100
20
-89.8
40
0.15
50
315
51
495
0
LINE
8
Black
10
100.15
20
-89.8
11
100.15
21
-84.4
0
LINE
8
Black
10
99.85
20
-89.8
11
99.85
21
-84.4
0
ARC
8
Black
10
100
20
-84.4
40
0.15
50
360
51
540
0
ARC
8
Black
10
100
20
-89.8
40
0.15
50
180
51
360
0
LINE
8
Black
10
98.7939
20
-83.4061
11
99.8939
21
-84.5061
0
LINE
8
Black
10
99.0061
20
-83.1939
11
100.106
21
-84.2939
0
ARC
8
Black
10
100
20
-84.4
40
0.15
50
225
51
405
0
ARC
8
Black
10
98.9
20
-83.3
40
0.15
50
45
51
225
0
LINE
8
Black
10
97.1
20
-83.45
11
98.9
21
-83.45
0
LINE
8
Black
10
97.1
20
-83.15
11
98.9
21
-83.15
0
ARC
8
Black
10
98.9
20
-83.3
40
0.15
50
270
51
450
0
ARC
8
Black
10
97.1
20
-83.3
40
0.15
50
90
51
270
0
LINE
8
Black
10
93.6
20
-90.75
11
94.2
21
-90.75
0
LINE
8
Black
10
93.6
20
-90.45
11
94.2
21
-90.45
0
ARC
8
Black
10
94.2
20
-90.6
40
0.15
50
270
51
450
0
ARC
8
Black
10
93.6
20
-90.6
40
0.15
50
90
51
270
0
LINE
8
Black
10
94.2
20
-90.75
11
95.2
21
-90.75
0
LINE
8
Black
10
94.2
20
-90.45
11
95.2
21
-90.45
0
ARC
8
Black
10
95.2
20
-90.6
40
0.15
50
270
51
450
0
ARC
8
Black
10
94.2
20
-90.6
40
0.15
50
90
51
270
0
LINE
8
Black
10
95.1939
20
-90.3939
11
95.0939
21
-90.4939
0
LINE
8
Black
10
95.4061
20
-90.6061
11
95.3061
21
-90.7061
0
ARC
8
Black
10
95.2
20
-90.6
40
0.15
50
495
51
675
0
ARC
8
Black
10
95.3
20
-90.5
40
0.15
50
315
51
495
0
LINE
8
Black
10
95.1061
20
-70.7939
11
94.3061
21
-69.9939
0
LINE
8
Black
10
94.8939
20
-71.0061
11
94.0939
21
-70.2061
0
ARC
8
Black
10
94.2
20
-70.1
40
0.15
50
405
51
585
0
ARC
8
Black
10
95
20
-70.9
40
0.15
50
225
51
405
0
LINE
8
Black
10
95
20
-71.05
11
98.4
21
-71.05
0
LINE
8
Black
10
95
20
-70.75
11
98.4
21
-70.75
0
ARC
8
Black
10
98.4
20
-70.9
40
0.15
50
270
51
450
0
ARC
8
Black
10
95
20
-70.9
40
0.15
50
90
51
270
0
LINE
8
Black
10
99.8939
20
-69.1939
11
98.2939
21
-70.7939
0
LINE
8
Black
10
100.106
20
-69.4061
11
98.5061
21
-71.0061
0
ARC
8
Black
10
98.4
20
-70.9
40
0.15
50
495
51
675
0
ARC
8
Black
10
100
20
-69.3
40
0.15
50
315
51
495
0
LINE
8
Black
10
100.15
20
-69.3
11
100.15
21
-63.9
0
LINE
8
Black
10
99.85
20
-69.3
11
99.85
21
-63.9
0
ARC
8
Black
10
100
20
-63.9
40
0.15
50
360
51
540
0
ARC
8
Black
10
100
20
-69.3
40
0.15
50
180
51
360
0
LINE
8
Black
10
98.7939
20
-62.9061
11
99.8939
21
-64.0061
0
LINE
8
Black
10
99.0061
20
-62.6939
11
100.106
21
-63.7939
0
ARC
8
Black
10
100
20
-63.9
40
0.15
50
225
51
405
0
ARC
8
Black
10
98.9
20
-62.8
40
0.15
50
45
51
225
0
LINE
8
Black
10
97.1
20
-62.95
11
98.9
21
-62.95
0
LINE
8
Black
10
97.1
20
-62.65
11
98.9
21
-62.65
0
ARC
8
Black
10
98.9
20
-62.8
40
0.15
50
270
51
450
0
ARC
8
Black
10
97.1
20
-62.8
40
0.15
50
90
51
270
0
LINE
8
Black
10
93.6
20
-70.25
11
94.2
21
-70.25
0
LINE
8
Black
10
93.6
20
-69.95
11
94.2
21
-69.95
0
ARC
8
Black
10
94.2
20
-70.1
40
0.15
50
270
51
450
0
ARC
8
Black
10
93.6
20
-70.1
40
0.15
50
90
51
270
0
LINE
8
Black
10
94.2
20
-70.25
11
95.2
21
-70.25
0
LINE
8
Black
10
94.2
20
-69.95
11
95.2
21
-69.95
0
ARC
8
Black
10
95.2
20
-70.1
40
0.15
50
270
51
450
0
ARC
8
Black
10
94.2
20
-70.1
40
0.15
50
90
51
270
0
LINE
8
Black
10
95.1939
20
-69.8939
11
95.0939
21
-69.9939
0
LINE
8
Black
10
95.4061
20
-70.1061
11
95.3061
21
-70.2061
0
ARC
8
Black
10
95.2
20
-70.1
40
0.15
50
495
51
675
0
ARC
8
Black
10
95.3
20
-70
40
0.15
50
315
51
495
0
LINE
8
Black
10
95.1061
20
-50.2939
11
94.3061
21
-49.4939
0
LINE
8
Black
10
94.8939
20
-50.5061
11
94.0939
21
-49.7061
0
ARC
8
Black
10
94.2
20
-49.6
40
0.15
50
405
51
585
0
ARC
8
Black
10
95
20
-50.4
40
0.15
50
225
51
405
0
LINE
8
Black
10
95
20
-50.55
11
98.4
21
-50.55
0
LINE
8
Black
10
95
20
-50.25
11
98.4
21
-50.25
0
ARC
8
Black
10
98.4
20
-50.4
40
0.15
50
270
51
450
0
ARC
8
Black
10
95
20
-50.4
40
0.15
50
90
51
270
0
LINE
8
Black
10
99.8939
20
-48.6939
11
98.2939
21
-50.2939
0
LINE
8
Black
10
100.106
20
-48.9061
11
98.5061
21
-50.5061
0
ARC
8
Black
10
98.4
20
-50.4
40
0.15
50
495
51
675
0
ARC
8
Black
10
100
20
-48.8
40
0.15
50
315
51
495
0
LINE
8
Black
10
100.15
20
-48.8
11
100.15
21
-43.4
0
LINE
8
Black
10
99.85
20
-48.8
11
99.85
21
-43.4
0
ARC
8
Black
10
100
20
-43.4
40
0.15
50
360
51
540
0
ARC
8
Black
10
100
20
-48.8
40
0.15
50
180
51
360
0
LINE
8
Black
10
98.7939
20
-42.4061
11
99.8939
21
-43.5061
0
LINE
8
Black
10
99.0061
20
-42.1939
11
100.106
21
-43.2939
0
ARC
8
Black
10
100
20
-43.4
40
0.15
50
225
51
405
0
ARC
8
Black
10
98.9
20
-42.3
40
0.15
50
45
51
225
0
LINE
8
Black
10
97.1
20
-42.45
11
98.9
21
-42.45
0
LINE
8
Black
10
97.1
20
-42.15
11
98.9
21
-42.15
0
ARC
8
Black
10
98.9
20
-42.3
40
0.15
50
270
51
450
0
ARC
8
Black
10
97.1
20
-42.3
40
0.15
50
90
51
270
0
LINE
8
Black
10
93.6
20
-49.75
11
94.2
21
-49.75
0
LINE
8
Black
10
93.6
20
-49.45
11
94.2
21
-49.45
0
ARC
8
Black
10
94.2
20
-49.6
40
0.15
50
270
51
450
0
ARC
8
Black
10
93.6
20
-49.6
40
0.15
50
90
51
270
0
LINE
8
Black
10
94.2
20
-49.75
11
95.2
21
-49.75
0
LINE
8
Black
10
94.2
20
-49.45
11
95.2
21
-49.45
0
ARC
8
Black
10
95.2
20
-49.6
40
0.15
50
270
51
450
0
ARC
8
Black
10
94.2
20
-49.6
40
0.15
50
90
51
270
0
LINE
8
Black
10
95.1939
20
-49.3939
11
95.0939
21
-49.4939
0
LINE
8
Black
10
95.4061
20
-49.6061
11
95.3061
21
-49.7061
0
ARC
8
Black
10
95.2
20
-49.6
40
0.15
50
495
51
675
0
ARC
8
Black
10
95.3
20
-49.5
40
0.15
50
315
51
495
0
LINE
8
Black
10
82.5439
20
-60.7561
11
82.6439
21
-60.8561
0
LINE
8
Black
10
82.7561
20
-60.5439
11
82.8561
21
-60.6439
0
ARC
8
Black
10
82.75
20
-60.75
40
0.15
50
225
51
405
0
ARC
8
Black
10
82.65
20
-60.65
40
0.15
50
45
51
225
0
LINE
8
Black
10
82.1265
20
-65.0805
11
82.8265
21
-63.9805
0
LINE
8
Black
10
81.8735
20
-64.9195
11
82.5735
21
-63.8195
0
ARC
8
Black
10
82.7
20
-63.9
40
0.15
50
327.529
51
507.529
0
ARC
8
Black
10
82
20
-65
40
0.15
50
147.529
51
327.529
0
LINE
8
Black
10
82.85
20
-63.8977
11
82.8
21
-60.6477
0
LINE
8
Black
10
82.55
20
-63.9023
11
82.5
21
-60.6523
0
ARC
8
Black
10
82.65
20
-60.65
40
0.15
50
360.881
51
540.881
0
ARC
8
Black
10
82.7
20
-63.9
40
0.15
50
180.881
51
360.881
0
LINE
8
Black
10
66.85
20
-63.8977
11
66.8
21
-60.6477
0
LINE
8
Black
10
66.55
20
-63.9023
11
66.5
21
-60.6523
0
ARC
8
Black
10
66.65
20
-60.65
40
0.15
50
360.881
51
540.881
0
ARC
8
Black
10
66.7
20
-63.9
40
0.15
50
180.881
51
360.881
0
LINE
8
Black
10
66.1265
20
-65.0805
11
66.8265
21
-63.9805
0
LINE
8
Black
10
65.8735
20
-64.9195
11
66.5735
21
-63.8195
0
ARC
8
Black
10
66.7
20
-63.9
40
0.15
50
327.529
51
507.529
0
ARC
8
Black
10
66
20
-65
40
0.15
50
147.529
51
327.529
0
LINE
8
Black
10
66.5439
20
-60.7561
11
66.6439
21
-60.8561
0
LINE
8
Black
10
66.7561
20
-60.5439
11
66.8561
21
-60.6439
0
ARC
8
Black
10
66.75
20
-60.75
40
0.15
50
225
51
405
0
ARC
8
Black
10
66.65
20
-60.65
40
0.15
50
45
51
225
0
LINE
8
Black
10
64.55
20
-89.2
11
64.55
21
-84.9
0
LINE
8
Black
10
64.25
20
-89.2
11
64.25
21
-84.9
0
ARC
8
Black
10
64.4
20
-84.9
40
0.15
50
360
51
540
0
ARC
8
Black
10
64.4
20
-89.2
40
0.15
50
180
51
360
0
LINE
8
Black
10
63.1337
20
-89.6462
11
64.4337
21
-89.3462
0
LINE
8
Black
10
63.0663
20
-89.3538
11
64.3663
21
-89.0538
0
ARC
8
Black
10
64.4
20
-89.2
40
0.15
50
282.995
51
462.995
0
ARC
8
Black
10
63.1
20
-89.5
40
0.15
50
102.995
51
282.995
0
LINE
8
Black
10
98.05
20
-89.2
11
98.05
21
-84.9
0
LINE
8
Black
10
97.75
20
-89.2
11
97.75
21
-84.9
0
ARC
8
Black
10
97.9
20
-84.9
40
0.15
50
360
51
540
0
ARC
8
Black
10
97.9
20
-89.2
40
0.15
50
180
51
360
0
LINE
8
Black
10
96.6337
20
-89.6462
11
97.9337
21
-89.3462
0
LINE
8
Black
10
96.5663
20
-89.3538
11
97.8663
21
-89.0538
0
ARC
8
Black
10
97.9
20
-89.2
40
0.15
50
282.995
51
462.995
0
ARC
8
Black
10
96.6
20
-89.5
40
0.15
50
102.995
51
282.995
0
LINE
8
Black
10
98.05
20
-68.7
11
98.05
21
-64.4
0
LINE
8
Black
10
97.75
20
-68.7
11
97.75
21
-64.4
0
ARC
8
Black
10
97.9
20
-64.4
40
0.15
50
360
51
540
0
ARC
8
Black
10
97.9
20
-68.7
40
0.15
50
180
51
360
0
LINE
8
Black
10
96.6337
20
-69.1462
11
97.9337
21
-68.8462
0
LINE
8
Black
10
96.5663
20
-68.8538
11
97.8663
21
-68.5538
0
ARC
8
Black
10
97.9
20
-68.7
40
0.15
50
282.995
51
462.995
0
ARC
8
Black
10
96.6
20
-69
40
0.15
50
102.995
51
282.995
0
LINE
8
Black
10
98.05
20
-48.2
11
98.05
21
-43.9
0
LINE
8
Black
10
97.75
20
-48.2
11
97.75
21
-43.9
0
ARC
8
Black
10
97.9
20
-43.9
40
0.15
50
360
51
540
0
ARC
8
Black
10
97.9
20
-48.2
40
0.15
50
180
51
360
0
LINE
8
Black
10
96.6337
20
-48.6462
11
97.9337
21
-48.3462
0
LINE
8
Black
10
96.5663
20
-48.3538
11
97.8663
21
-48.0538
0
ARC
8
Black
10
97.9
20
-48.2
40
0.15
50
282.995
51
462.995
0
ARC
8
Black
10
96.6
20
-48.5
40
0.15
50
102.995
51
282.995
0
LINE
8
Black
10
78.5834
20
-67.3491
11
80.3834
21
-67.5491
0
LINE
8
Black
10
78.6166
20
-67.0509
11
80.4166
21
-67.2509
0
ARC
8
Black
10
80.4
20
-67.4
40
0.15
50
263.66
51
443.66
0
ARC
8
Black
10
78.6
20
-67.2
40
0.15
50
83.6598
51
263.66
0
LINE
8
Black
10
80.4154
20
-67.5492
11
83.3154
21
-67.2492
0
LINE
8
Black
10
80.3846
20
-67.2508
11
83.2846
21
-66.9508
0
ARC
8
Black
10
83.3
20
-67.1
40
0.15
50
275.906
51
455.906
0
ARC
8
Black
10
80.4
20
-67.4
40
0.15
50
95.9061
51
275.906
0
LINE
8
Black
10
76.9939
20
-66.1061
11
77.5939
21
-66.7061
0
LINE
8
Black
10
77.2061
20
-65.8939
11
77.8061
21
-66.4939
0
ARC
8
Black
10
77.7
20
-66.6
40
0.15
50
225
51
405
0
ARC
8
Black
10
77.1
20
-66
40
0.15
50
45
51
225
0
LINE
8
Black
10
76.68
20
-65.69
11
76.98
21
-66.09
0
LINE
8
Black
10
76.92
20
-65.51
11
77.22
21
-65.91
0
ARC
8
Black
10
77.1
20
-66
40
0.15
50
216.87
51
396.87
0
ARC
8
Black
10
76.8
20
-65.6
40
0.15
50
36.8699
51
216.87
0
LINE
8
Black
10
77.6168
20
-66.7248
11
78.5168
21
-67.3248
0
LINE
8
Black
10
77.7832
20
-66.4752
11
78.6832
21
-67.0752
0
ARC
8
Black
10
78.6
20
-67.2
40
0.15
50
236.31
51
416.31
0
ARC
8
Black
10
77.7
20
-66.6
40
0.15
50
56.3099
51
236.31
0
LINE
8
Black
10
61.6168
20
-66.7248
11
62.5168
21
-67.3248
0
LINE
8
Black
10
61.7832
20
-66.4752
11
62.6832
21
-67.0752
0
ARC
8
Black
10
62.6
20
-67.2
40
0.15
50
236.31
51
416.31
0
ARC
8
Black
10
61.7
20
-66.6
40
0.15
50
56.3099
51
236.31
0
LINE
8
Black
10
60.68
20
-65.69
11
60.98
21
-66.09
0
LINE
8
Black
10
60.92
20
-65.51
11
61.22
21
-65.91
0
ARC
8
Black
10
61.1
20
-66
40
0.15
50
216.87
51
396.87
0
ARC
8
Black
10
60.8
20
-65.6
40
0.15
50
36.8699
51
216.87
0
LINE
8
Black
10
60.9939
20
-66.1061
11
61.5939
21
-66.7061
0
LINE
8
Black
10
61.2061
20
-65.8939
11
61.8061
21
-66.4939
0
ARC
8
Black
10
61.7
20
-66.6
40
0.15
50
225
51
405
0
ARC
8
Black
10
61.1
20
-66
40
0.15
50
45
51
225
0
LINE
8
Black
10
64.4154
20
-67.5492
11
67.3154
21
-67.2492
0
LINE
8
Black
10
64.3846
20
-67.2508
11
67.2846
21
-66.9508
0
ARC
8
Black
10
67.3
20
-67.1
40
0.15
50
275.906
51
455.906
0
ARC
8
Black
10
64.4
20
-67.4
40
0.15
50
95.9061
51
275.906
0
LINE
8
Black
10
62.5834
20
-67.3491
11
64.3834
21
-67.5491
0
LINE
8
Black
10
62.6166
20
-67.0509
11
64.4166
21
-67.2509
0
ARC
8
Black
10
64.4
20
-67.4
40
0.15
50
263.66
51
443.66
0
ARC
8
Black
10
62.6
20
-67.2
40
0.15
50
83.6598
51
263.66
0
LINE
8
Black
10
65.4499
20
-89.6065
11
65.5499
21
-87.3065
0
LINE
8
Black
10
65.1501
20
-89.5935
11
65.2501
21
-87.2935
0
ARC
8
Black
10
65.4
20
-87.3
40
0.15
50
357.51
51
537.51
0
ARC
8
Black
10
65.3
20
-89.6
40
0.15
50
177.51
51
357.51
0
LINE
8
Black
10
63.9872
20
-90.7221
11
65.3872
21
-89.7221
0
LINE
8
Black
10
63.8128
20
-90.4779
11
65.2128
21
-89.4779
0
ARC
8
Black
10
65.3
20
-89.6
40
0.15
50
305.538
51
485.538
0
ARC
8
Black
10
63.9
20
-90.6
40
0.15
50
125.538
51
305.538
0
LINE
8
Black
10
62.7
20
-90.75
11
63.9
21
-90.75
0
LINE
8
Black
10
62.7
20
-90.45
11
63.9
21
-90.45
0
ARC
8
Black
10
63.9
20
-90.6
40
0.15
50
270
51
450
0
ARC
8
Black
10
62.7
20
-90.6
40
0.15
50
90
51
270
0
LINE
8
Black
10
58.8005
20
-89.75
11
62.092
21
-89.7398
0
LINE
8
Black
10
58.7995
20
-89.45
11
62.0911
21
-89.4398
0
ARC
8
Black
10
62.0916
20
-89.5898
40
0.15
50
270.177
51
450.177
0
ARC
8
Black
10
58.8
20
-89.6
40
0.15
50
90.1769
51
270.177
0
LINE
8
Black
10
61.9631
20
-89.6672
11
62.5715
21
-90.6774
0
LINE
8
Black
10
62.2201
20
-89.5124
11
62.8285
21
-90.5226
0
ARC
8
Black
10
62.7
20
-90.6
40
0.15
50
211.061
51
391.061
0
ARC
8
Black
10
62.0916
20
-89.5898
40
0.15
50
31.0606
51
211.061
0
LINE
8
Black
10
98.9499
20
-89.6065
11
99.0499
21
-87.3065
0
LINE
8
Black
10
98.6501
20
-89.5935
11
98.7501
21
-87.2935
0
ARC
8
Black
10
98.9
20
-87.3
40
0.15
50
357.51
51
537.51
0
ARC
8
Black
10
98.8
20
-89.6
40
0.15
50
177.51
51
357.51
0
LINE
8
Black
10
97.4872
20
-90.7221
11
98.8872
21
-89.7221
0
LINE
8
Black
10
97.3128
20
-90.4779
11
98.7128
21
-89.4779
0
ARC
8
Black
10
98.8
20
-89.6
40
0.15
50
305.538
51
485.538
0
ARC
8
Black
10
97.4
20
-90.6
40
0.15
50
125.538
51
305.538
0
LINE
8
Black
10
96.2
20
-90.75
11
97.4
21
-90.75
0
LINE
8
Black
10
96.2
20
-90.45
11
97.4
21
-90.45
0
ARC
8
Black
10
97.4
20
-90.6
40
0.15
50
270
51
450
0
ARC
8
Black
10
96.2
20
-90.6
40
0.15
50
90
51
270
0
LINE
8
Black
10
92.3005
20
-89.75
11
95.592
21
-89.7398
0
LINE
8
Black
10
92.2995
20
-89.45
11
95.5911
21
-89.4398
0
ARC
8
Black
10
95.5916
20
-89.5898
40
0.15
50
270.177
51
450.177
0
ARC
8
Black
10
92.3
20
-89.6
40
0.15
50
90.1769
51
270.177
0
LINE
8
Black
10
95.4631
20
-89.6672
11
96.0715
21
-90.6774
0
LINE
8
Black
10
95.7201
20
-89.5124
11
96.3285
21
-90.5226
0
ARC
8
Black
10
96.2
20
-90.6
40
0.15
50
211.061
51
391.061
0
ARC
8
Black
10
95.5916
20
-89.5898
40
0.15
50
31.0606
51
211.061
0
LINE
8
Black
10
98.9499
20
-69.1065
11
99.0499
21
-66.8065
0
LINE
8
Black
10
98.6501
20
-69.0935
11
98.7501
21
-66.7935
0
ARC
8
Black
10
98.9
20
-66.8
40
0.15
50
357.51
51
537.51
0
ARC
8
Black
10
98.8
20
-69.1
40
0.15
50
177.51
51
357.51
0
LINE
8
Black
10
97.4872
20
-70.2221
11
98.8872
21
-69.2221
0
LINE
8
Black
10
97.3128
20
-69.9779
11
98.7128
21
-68.9779
0
ARC
8
Black
10
98.8
20
-69.1
40
0.15
50
305.538
51
485.538
0
ARC
8
Black
10
97.4
20
-70.1
40
0.15
50
125.538
51
305.538
0
LINE
8
Black
10
96.2
20
-70.25
11
97.4
21
-70.25
0
LINE
8
Black
10
96.2
20
-69.95
11
97.4
21
-69.95
0
ARC
8
Black
10
97.4
20
-70.1
40
0.15
50
270
51
450
0
ARC
8
Black
10
96.2
20
-70.1
40
0.15
50
90
51
270
0
LINE
8
Black
10
92.3005
20
-69.25
11
95.592
21
-69.2398
0
LINE
8
Black
10
92.2995
20
-68.95
11
95.5911
21
-68.9398
0
ARC
8
Black
10
95.5916
20
-69.0898
40
0.15
50
270.177
51
450.177
0
ARC
8
Black
10
92.3
20
-69.1
40
0.15
50
90.1769
51
270.177
0
LINE
8
Black
10
95.4631
20
-69.1672
11
96.0715
21
-70.1774
0
LINE
8
Black
10
95.7201
20
-69.0124
11
96.3285
21
-70.0226
0
ARC
8
Black
10
96.2
20
-70.1
40
0.15
50
211.061
51
391.061
0
ARC
8
Black
10
95.5916
20
-69.0898
40
0.15
50
31.0606
51
211.061
0
LINE
8
Black
10
98.9499
20
-48.6065
11
99.0499
21
-46.3065
0
LINE
8
Black
10
98.6501
20
-48.5935
11
98.7501
21
-46.2935
0
ARC
8
Black
10
98.9
20
-46.3
40
0.15
50
357.51
51
537.51
0
ARC
8
Black
10
98.8
20
-48.6
40
0.15
50
177.51
51
357.51
0
LINE
8
Black
10
97.4872
20
-49.7221
11
98.8872
21
-48.7221
0
LINE
8
Black
10
97.3128
20
-49.4779
11
98.7128
21
-48.4779
0
ARC
8
Black
10
98.8
20
-48.6
40
0.15
50
305.538
51
485.538
0
ARC
8
Black
10
97.4
20
-49.6
40
0.15
50
125.538
51
305.538
0
LINE
8
Black
10
96.2
20
-49.75
11
97.4
21
-49.75
0
LINE
8
Black
10
96.2
20
-49.45
11
97.4
21
-49.45
0
ARC
8
Black
10
97.4
20
-49.6
40
0.15
50
270
51
450
0
ARC
8
Black
10
96.2
20
-49.6
40
0.15
50
90
51
270
0
LINE
8
Black
10
92.3005
20
-48.75
11
95.592
21
-48.7398
0
LINE
8
Black
10
92.2995
20
-48.45
11
95.5911
21
-48.4398
0
ARC
8
Black
10
95.5916
20
-48.5898
40
0.15
50
270.177
51
450.177
0
ARC
8
Black
10
92.3
20
-48.6
40
0.15
50
90.1769
51
270.177
0
LINE
8
Black
10
95.4631
20
-48.6672
11
96.0715
21
-49.6774
0
LINE
8
Black
10
95.7201
20
-48.5124
11
96.3285
21
-49.5226
0
ARC
8
Black
10
96.2
20
-49.6
40
0.15
50
211.061
51
391.061
0
ARC
8
Black
10
95.5916
20
-48.5898
40
0.15
50
31.0606
51
211.061
0
LINE
8
Black
10
70.873
20
-72.873
11
68.3772
21
-72.873
0
LINE
8
Black
10
68.3772
20
-72.873
11
68.3772
21
-66.8867
0
LINE
8
Black
10
68.3772
20
-66.8867
11
68.2136
21
-66.4907
0
LINE
8
Black
10
68.2136
20
-66.4907
11
67.9109
21
-66.1875
0
LINE
8
Black
10
67.9109
20
-66.1875
11
67.8272
21
-66.1527
0
LINE
8
Black
10
67.8272
20
-66.1527
11
67.8272
21
-60.5367
0
LINE
8
Black
10
67.8272
20
-60.5367
11
67.6636
21
-60.1407
0
LINE
8
Black
10
67.6636
20
-60.1407
11
67.3609
21
-59.8375
0
LINE
8
Black
10
67.3609
20
-59.8375
11
66.9652
21
-59.6732
0
LINE
8
Black
10
66.9652
20
-59.6732
11
66.5367
21
-59.6728
0
LINE
8
Black
10
66.5367
20
-59.6728
11
66.1407
21
-59.8364
0
LINE
8
Black
10
66.1407
20
-59.8364
11
65.8375
21
-60.1391
0
LINE
8
Black
10
65.8375
20
-60.1391
11
65.6732
21
-60.5348
0
LINE
8
Black
10
65.6732
20
-60.5348
11
65.6728
21
-60.9633
0
LINE
8
Black
10
65.6728
20
-60.9633
11
65.7818
21
-61.227
0
LINE
8
Black
10
65.7818
20
-61.227
11
65.8191
21
-63.6508
0
LINE
8
Black
10
65.8191
20
-63.6508
11
65.5958
21
-64.0017
0
LINE
8
Black
10
65.5958
20
-64.0017
11
65.3907
21
-64.0864
0
LINE
8
Black
10
65.3907
20
-64.0864
11
65.0875
21
-64.3891
0
LINE
8
Black
10
65.0875
20
-64.3891
11
64.9232
21
-64.7848
0
LINE
8
Black
10
64.9232
20
-64.7848
11
64.9228
21
-65.2133
0
LINE
8
Black
10
64.9228
20
-65.2133
11
65.0864
21
-65.6093
0
LINE
8
Black
10
65.0864
20
-65.6093
11
65.3891
21
-65.9125
0
LINE
8
Black
10
65.3891
20
-65.9125
11
65.7848
21
-66.0768
0
LINE
8
Black
10
65.7848
20
-66.0768
11
66.2133
21
-66.0772
0
LINE
8
Black
10
66.2133
20
-66.0772
11
66.6093
21
-65.9136
0
LINE
8
Black
10
66.6093
20
-65.9136
11
66.9125
21
-65.6109
0
LINE
8
Black
10
66.9125
20
-65.6109
11
67.0768
21
-65.2152
0
LINE
8
Black
10
67.0768
20
-65.2152
11
67.0771
21
-64.941
0
LINE
8
Black
10
67.0771
20
-64.941
11
67.4399
21
-64.3708
0
LINE
8
Black
10
67.4399
20
-64.3708
11
67.4701
21
-64.2931
0
LINE
8
Black
10
67.4701
20
-64.2931
11
67.5153
21
-64.2231
0
LINE
8
Black
10
67.5153
20
-64.2231
11
67.5314
21
-64.1352
0
LINE
8
Black
10
67.5314
20
-64.1352
11
67.5638
21
-64.0519
0
LINE
8
Black
10
67.5638
20
-64.0519
11
67.5619
21
-63.9685
0
LINE
8
Black
10
67.5619
20
-63.9685
11
67.5769
21
-63.8865
0
LINE
8
Black
10
67.5769
20
-63.8865
11
67.5399
21
-61.4832
0
LINE
8
Black
10
67.5399
20
-61.4832
11
67.6625
21
-61.3609
0
LINE
8
Black
10
67.6625
20
-61.3609
11
67.8268
21
-60.9652
0
LINE
8
Black
10
67.8268
20
-60.9652
11
67.8272
21
-60.5367
0
LINE
8
Black
10
67.8272
20
-60.5367
11
67.8272
21
-66.1527
0
LINE
8
Black
10
67.8272
20
-66.1527
11
67.5152
21
-66.0232
0
LINE
8
Black
10
67.5152
20
-66.0232
11
67.0867
21
-66.0228
0
LINE
8
Black
10
67.0867
20
-66.0228
11
66.6907
21
-66.1864
0
LINE
8
Black
10
66.6907
20
-66.1864
11
66.5846
21
-66.2923
0
LINE
8
Black
10
66.5846
20
-66.2923
11
64.4033
21
-66.518
0
LINE
8
Black
10
64.4033
20
-66.518
11
62.9089
21
-66.3519
0
LINE
8
Black
10
62.9089
20
-66.3519
11
62.2587
21
-65.9185
0
LINE
8
Black
10
62.2587
20
-65.9185
11
61.8771
21
-65.5368
0
LINE
8
Black
10
61.8771
20
-65.5368
11
61.8772
21
-65.3867
0
LINE
8
Black
10
61.8772
20
-65.3867
11
61.7136
21
-64.9907
0
LINE
8
Black
10
61.7136
20
-64.9907
11
61.4109
21
-64.6875
0
LINE
8
Black
10
61.4109
20
-64.6875
11
61.0152
21
-64.5232
0
LINE
8
Black
10
61.0152
20
-64.5232
11
60.5867
21
-64.5228
0
LINE
8
Black
10
60.5867
20
-64.5228
11
60.1907
21
-64.6864
0
LINE
8
Black
10
60.1907
20
-64.6864
11
59.8875
21
-64.9891
0
LINE
8
Black
10
59.8875
20
-64.9891
11
59.7232
21
-65.3848
0
LINE
8
Black
10
59.7232
20
-65.3848
11
59.7228
21
-65.8133
0
LINE
8
Black
10
59.7228
20
-65.8133
11
59.8864
21
-66.2093
0
LINE
8
Black
10
59.8864
20
-66.2093
11
60.1891
21
-66.5125
0
LINE
8
Black
10
60.1891
20
-66.5125
11
60.5023
21
-66.6425
0
LINE
8
Black
10
60.5023
20
-66.6425
11
61.0799
21
-67.2201
0
LINE
8
Black
10
61.0799
20
-67.2201
11
61.1521
21
-67.2684
0
LINE
8
Black
10
61.1521
20
-67.2684
11
61.2135
21
-67.3297
0
LINE
8
Black
10
61.2135
20
-67.3297
11
62.1135
21
-67.9297
0
LINE
8
Black
10
62.1135
20
-67.9297
11
62.1482
21
-67.944
0
LINE
8
Black
10
62.1482
20
-67.944
11
62.177
21
-67.9682
0
LINE
8
Black
10
62.177
20
-67.9682
11
62.3053
21
-68.0089
0
LINE
8
Black
10
62.3053
20
-68.0089
11
62.4298
21
-68.0603
0
LINE
8
Black
10
62.4298
20
-68.0603
11
62.4674
21
-68.0603
0
LINE
8
Black
10
62.4674
20
-68.0603
11
62.5032
21
-68.0716
0
LINE
8
Black
10
62.5032
20
-68.0716
11
64.3032
21
-68.2716
0
LINE
8
Black
10
64.3032
20
-68.2716
11
64.3967
21
-68.2636
0
LINE
8
Black
10
64.3967
20
-68.2636
11
64.4902
21
-68.2723
0
LINE
8
Black
10
64.4902
20
-68.2723
11
66.7515
21
-68.0384
0
LINE
8
Black
10
66.7515
20
-68.0384
11
67.0848
21
-68.1768
0
LINE
8
Black
10
67.0848
20
-68.1768
11
67.5133
21
-68.1772
0
LINE
8
Black
10
67.5133
20
-68.1772
11
67.9093
21
-68.0136
0
LINE
8
Black
10
67.9093
20
-68.0136
11
68.2125
21
-67.7109
0
LINE
8
Black
10
68.2125
20
-67.7109
11
68.3768
21
-67.3152
0
LINE
8
Black
10
68.3768
20
-67.3152
11
68.3772
21
-66.8867
0
LINE
8
Black
10
68.3772
20
-66.8867
11
68.3772
21
-72.873
0
LINE
8
Black
10
68.3772
20
-72.873
11
65.9273
21
-72.873
0
LINE
8
Black
10
65.9273
20
-72.873
11
65.9273
21
-70.1184
0
LINE
8
Black
10
65.9273
20
-70.1184
11
65.6346
21
-69.4099
0
LINE
8
Black
10
65.6346
20
-69.4099
11
65.093
21
-68.8673
0
LINE
8
Black
10
65.093
20
-68.8673
11
64.385
21
-68.5733
0
LINE
8
Black
10
64.385
20
-68.5733
11
63.6184
21
-68.5727
0
LINE
8
Black
10
63.6184
20
-68.5727
11
62.9099
21
-68.8654
0
LINE
8
Black
10
62.9099
20
-68.8654
11
62.3673
21
-69.407
0
LINE
8
Black
10
62.3673
20
-69.407
11
62.0733
21
-70.115
0
LINE
8
Black
10
62.0733
20
-70.115
11
62.0727
21
-70.8816
0
LINE
8
Black
10
62.0727
20
-70.8816
11
62.3654
21
-71.5901
0
LINE
8
Black
10
62.3654
20
-71.5901
11
62.907
21
-72.1327
0
LINE
8
Black
10
62.907
20
-72.1327
11
63.615
21
-72.4267
0
LINE
8
Black
10
63.615
20
-72.4267
11
64.3816
21
-72.4273
0
LINE
8
Black
10
64.3816
20
-72.4273
11
65.0901
21
-72.1346
0
LINE
8
Black
10
65.0901
20
-72.1346
11
65.6327
21
-71.593
0
LINE
8
Black
10
65.6327
20
-71.593
11
65.9267
21
-70.885
0
LINE
8
Black
10
65.9267
20
-70.885
11
65.9273
21
-70.1184
0
LINE
8
Black
10
65.9273
20
-70.1184
11
65.9273
21
-72.873
0
LINE
8
Black
10
65.9273
20
-72.873
11
57.127
21
-72.873
0
LINE
8
Black
10
57.127
20
-72.873
11
57.127
21
-35.127
0
LINE
8
Black
10
57.127
20
-35.127
11
70.873
21
-35.127
0
LINE
8
Black
10
70.873
20
-35.127
11
70.873
21
-72.873
0
LINE
8
Black
10
70.873
20
-72.873
11
68.3772
21
-72.873
0
LINE
8
Black
10
68.3772
20
-72.873
11
68.3772
21
-66.8867
0
LINE
8
Black
10
68.3772
20
-66.8867
11
68.2136
21
-66.4907
0
LINE
8
Black
10
68.2136
20
-66.4907
11
67.9109
21
-66.1875
0
LINE
8
Black
10
67.9109
20
-66.1875
11
67.8272
21
-66.1527
0
LINE
8
Black
10
67.8272
20
-66.1527
11
67.8272
21
-60.5367
0
LINE
8
Black
10
67.8272
20
-60.5367
11
67.6636
21
-60.1407
0
LINE
8
Black
10
67.6636
20
-60.1407
11
67.3609
21
-59.8375
0
LINE
8
Black
10
67.3609
20
-59.8375
11
66.9652
21
-59.6732
0
LINE
8
Black
10
66.9652
20
-59.6732
11
66.5367
21
-59.6728
0
LINE
8
Black
10
66.5367
20
-59.6728
11
66.1407
21
-59.8364
0
LINE
8
Black
10
66.1407
20
-59.8364
11
65.8375
21
-60.1391
0
LINE
8
Black
10
65.8375
20
-60.1391
11
65.6732
21
-60.5348
0
LINE
8
Black
10
65.6732
20
-60.5348
11
65.6728
21
-60.9633
0
LINE
8
Black
10
65.6728
20
-60.9633
11
65.7818
21
-61.227
0
LINE
8
Black
10
65.7818
20
-61.227
11
65.8191
21
-63.6508
0
LINE
8
Black
10
65.8191
20
-63.6508
11
65.5958
21
-64.0017
0
LINE
8
Black
10
65.5958
20
-64.0017
11
65.3907
21
-64.0864
0
LINE
8
Black
10
65.3907
20
-64.0864
11
65.0875
21
-64.3891
0
LINE
8
Black
10
65.0875
20
-64.3891
11
64.9232
21
-64.7848
0
LINE
8
Black
10
64.9232
20
-64.7848
11
64.9228
21
-65.2133
0
LINE
8
Black
10
64.9228
20
-65.2133
11
65.0864
21
-65.6093
0
LINE
8
Black
10
65.0864
20
-65.6093
11
65.3891
21
-65.9125
0
LINE
8
Black
10
65.3891
20
-65.9125
11
65.7848
21
-66.0768
0
LINE
8
Black
10
65.7848
20
-66.0768
11
66.2133
21
-66.0772
0
LINE
8
Black
10
66.2133
20
-66.0772
11
66.6093
21
-65.9136
0
LINE
8
Black
10
66.6093
20
-65.9136
11
66.9125
21
-65.6109
0
LINE
8
Black
10
66.9125
20
-65.6109
11
67.0768
21
-65.2152
0
LINE
8
Black
10
67.0768
20
-65.2152
11
67.0771
21
-64.941
0
LINE
8
Black
10
67.0771
20
-64.941
11
67.4399
21
-64.3708
0
LINE
8
Black
10
67.4399
20
-64.3708
11
67.4701
21
-64.2931
0
LINE
8
Black
10
67.4701
20
-64.2931
11
67.5153
21
-64.2231
0
LINE
8
Black
10
67.5153
20
-64.2231
11
67.5314
21
-64.1352
0
LINE
8
Black
10
67.5314
20
-64.1352
11
67.5638
21
-64.0519
0
LINE
8
Black
10
67.5638
20
-64.0519
11
67.5619
21
-63.9685
0
LINE
8
Black
10
67.5619
20
-63.9685
11
67.5769
21
-63.8865
0
LINE
8
Black
10
67.5769
20
-63.8865
11
67.5399
21
-61.4832
0
LINE
8
Black
10
67.5399
20
-61.4832
11
67.6625
21
-61.3609
0
LINE
8
Black
10
67.6625
20
-61.3609
11
67.8268
21
-60.9652
0
LINE
8
Black
10
67.8268
20
-60.9652
11
67.8272
21
-60.5367
0
LINE
8
Black
10
67.8272
20
-60.5367
11
67.8272
21
-66.1527
0
LINE
8
Black
10
67.8272
20
-66.1527
11
67.5152
21
-66.0232
0
LINE
8
Black
10
67.5152
20
-66.0232
11
67.0867
21
-66.0228
0
LINE
8
Black
10
67.0867
20
-66.0228
11
66.6907
21
-66.1864
0
LINE
8
Black
10
66.6907
20
-66.1864
11
66.5846
21
-66.2923
0
LINE
8
Black
10
66.5846
20
-66.2923
11
64.4033
21
-66.518
0
LINE
8
Black
10
64.4033
20
-66.518
11
62.9089
21
-66.3519
0
LINE
8
Black
10
62.9089
20
-66.3519
11
62.2587
21
-65.9185
0
LINE
8
Black
10
62.2587
20
-65.9185
11
61.8771
21
-65.5368
0
LINE
8
Black
10
61.8771
20
-65.5368
11
61.8772
21
-65.3867
0
LINE
8
Black
10
61.8772
20
-65.3867
11
61.7136
21
-64.9907
0
LINE
8
Black
10
61.7136
20
-64.9907
11
61.4109
21
-64.6875
0
LINE
8
Black
10
61.4109
20
-64.6875
11
61.0152
21
-64.5232
0
LINE
8
Black
10
61.0152
20
-64.5232
11
60.5867
21
-64.5228
0
LINE
8
Black
10
60.5867
20
-64.5228
11
60.1907
21
-64.6864
0
LINE
8
Black
10
60.1907
20
-64.6864
11
59.8875
21
-64.9891
0
LINE
8
Black
10
59.8875
20
-64.9891
11
59.7232
21
-65.3848
0
LINE
8
Black
10
59.7232
20
-65.3848
11
59.7228
21
-65.8133
0
LINE
8
Black
10
59.7228
20
-65.8133
11
59.8864
21
-66.2093
0
LINE
8
Black
10
59.8864
20
-66.2093
11
60.1891
21
-66.5125
0
LINE
8
Black
10
60.1891
20
-66.5125
11
60.5023
21
-66.6425
0
LINE
8
Black
10
60.5023
20
-66.6425
11
61.0799
21
-67.2201
0
LINE
8
Black
10
61.0799
20
-67.2201
11
61.1521
21
-67.2684
0
LINE
8
Black
10
61.1521
20
-67.2684
11
61.2135
21
-67.3297
0
LINE
8
Black
10
61.2135
20
-67.3297
11
62.1135
21
-67.9297
0
LINE
8
Black
10
62.1135
20
-67.9297
11
62.1482
21
-67.944
0
LINE
8
Black
10
62.1482
20
-67.944
11
62.177
21
-67.9682
0
LINE
8
Black
10
62.177
20
-67.9682
11
62.3053
21
-68.0089
0
LINE
8
Black
10
62.3053
20
-68.0089
11
62.4298
21
-68.0603
0
LINE
8
Black
10
62.4298
20
-68.0603
11
62.4674
21
-68.0603
0
LINE
8
Black
10
62.4674
20
-68.0603
11
62.5032
21
-68.0716
0
LINE
8
Black
10
62.5032
20
-68.0716
11
64.3032
21
-68.2716
0
LINE
8
Black
10
64.3032
20
-68.2716
11
64.3967
21
-68.2636
0
LINE
8
Black
10
64.3967
20
-68.2636
11
64.4902
21
-68.2723
0
LINE
8
Black
10
64.4902
20
-68.2723
11
66.7515
21
-68.0384
0
LINE
8
Black
10
66.7515
20
-68.0384
11
67.0848
21
-68.1768
0
LINE
8
Black
10
67.0848
20
-68.1768
11
67.5133
21
-68.1772
0
LINE
8
Black
10
67.5133
20
-68.1772
11
67.9093
21
-68.0136
0
LINE
8
Black
10
67.9093
20
-68.0136
11
68.2125
21
-67.7109
0
LINE
8
Black
10
68.2125
20
-67.7109
11
68.3768
21
-67.3152
0
LINE
8
Black
10
68.3768
20
-67.3152
11
68.3772
21
-66.8867
0
LINE
8
Black
10
68.3772
20
-66.8867
11
68.3772
21
-72.873
0
LINE
8
Black
10
68.3772
20
-72.873
11
65.9273
21
-72.873
0
LINE
8
Black
10
65.9273
20
-72.873
11
65.9273
21
-70.1184
0
LINE
8
Black
10
65.9273
20
-70.1184
11
65.6346
21
-69.4099
0
LINE
8
Black
10
65.6346
20
-69.4099
11
65.093
21
-68.8673
0
LINE
8
Black
10
65.093
20
-68.8673
11
64.385
21
-68.5733
0
LINE
8
Black
10
64.385
20
-68.5733
11
63.6184
21
-68.5727
0
LINE
8
Black
10
63.6184
20
-68.5727
11
62.9099
21
-68.8654
0
LINE
8
Black
10
62.9099
20
-68.8654
11
62.3673
21
-69.407
0
LINE
8
Black
10
62.3673
20
-69.407
11
62.0733
21
-70.115
0
LINE
8
Black
10
62.0733
20
-70.115
11
62.0727
21
-70.8816
0
LINE
8
Black
10
62.0727
20
-70.8816
11
62.3654
21
-71.5901
0
LINE
8
Black
10
62.3654
20
-71.5901
11
62.907
21
-72.1327
0
LINE
8
Black
10
62.907
20
-72.1327
11
63.615
21
-72.4267
0
LINE
8
Black
10
63.615
20
-72.4267
11
64.3816
21
-72.4273
0
LINE
8
Black
10
64.3816
20
-72.4273
11
65.0901
21
-72.1346
0
LINE
8
Black
10
65.0901
20
-72.1346
11
65.6327
21
-71.593
0
LINE
8
Black
10
65.6327
20
-71.593
11
65.9267
21
-70.885
0
LINE
8
Black
10
65.9267
20
-70.885
11
65.9273
21
-70.1184
0
LINE
8
Black
10
65.9273
20
-70.1184
11
65.9273
21
-72.873
0
LINE
8
Black
10
65.9273
20
-72.873
11
57.127
21
-72.873
0
LINE
8
Black
10
57.127
20
-72.873
11
57.127
21
-35.127
0
LINE
8
Black
10
57.127
20
-35.127
11
70.873
21
-35.127
0
LINE
8
Black
10
70.873
20
-35.127
11
70.873
21
-72.873
0
LINE
8
Black
10
86.873
20
-72.873
11
84.3772
21
-72.873
0
LINE
8
Black
10
84.3772
20
-72.873
11
84.3772
21
-66.8867
0
LINE
8
Black
10
84.3772
20
-66.8867
11
84.2136
21
-66.4907
0
LINE
8
Black
10
84.2136
20
-66.4907
11
83.9109
21
-66.1875
0
LINE
8
Black
10
83.9109
20
-66.1875
11
83.8272
21
-66.1527
0
LINE
8
Black
10
83.8272
20
-66.1527
11
83.8272
21
-60.5367
0
LINE
8
Black
10
83.8272
20
-60.5367
11
83.6636
21
-60.1407
0
LINE
8
Black
10
83.6636
20
-60.1407
11
83.3609
21
-59.8375
0
LINE
8
Black
10
83.3609
20
-59.8375
11
82.9652
21
-59.6732
0
LINE
8
Black
10
82.9652
20
-59.6732
11
82.5367
21
-59.6728
0
LINE
8
Black
10
82.5367
20
-59.6728
11
82.1407
21
-59.8364
0
LINE
8
Black
10
82.1407
20
-59.8364
11
81.8375
21
-60.1391
0
LINE
8
Black
10
81.8375
20
-60.1391
11
81.6732
21
-60.5348
0
LINE
8
Black
10
81.6732
20
-60.5348
11
81.6728
21
-60.9633
0
LINE
8
Black
10
81.6728
20
-60.9633
11
81.7818
21
-61.227
0
LINE
8
Black
10
81.7818
20
-61.227
11
81.8191
21
-63.6508
0
LINE
8
Black
10
81.8191
20
-63.6508
11
81.5958
21
-64.0017
0
LINE
8
Black
10
81.5958
20
-64.0017
11
81.3907
21
-64.0864
0
LINE
8
Black
10
81.3907
20
-64.0864
11
81.0875
21
-64.3891
0
LINE
8
Black
10
81.0875
20
-64.3891
11
80.9232
21
-64.7848
0
LINE
8
Black
10
80.9232
20
-64.7848
11
80.9228
21
-65.2133
0
LINE
8
Black
10
80.9228
20
-65.2133
11
81.0864
21
-65.6093
0
LINE
8
Black
10
81.0864
20
-65.6093
11
81.3891
21
-65.9125
0
LINE
8
Black
10
81.3891
20
-65.9125
11
81.7848
21
-66.0768
0
LINE
8
Black
10
81.7848
20
-66.0768
11
82.2133
21
-66.0772
0
LINE
8
Black
10
82.2133
20
-66.0772
11
82.6093
21
-65.9136
0
LINE
8
Black
10
82.6093
20
-65.9136
11
82.9125
21
-65.6109
0
LINE
8
Black
10
82.9125
20
-65.6109
11
83.0768
21
-65.2152
0
LINE
8
Black
10
83.0768
20
-65.2152
11
83.0771
21
-64.941
0
LINE
8
Black
10
83.0771
20
-64.941
11
83.4399
21
-64.3708
0
LINE
8
Black
10
83.4399
20
-64.3708
11
83.4701
21
-64.2931
0
LINE
8
Black
10
83.4701
20
-64.2931
11
83.5153
21
-64.2231
0
LINE
8
Black
10
83.5153
20
-64.2231
11
83.5314
21
-64.1352
0
LINE
8
Black
10
83.5314
20
-64.1352
11
83.5638
21
-64.0519
0
LINE
8
Black
10
83.5638
20
-64.0519
11
83.5619
21
-63.9685
0
LINE
8
Black
10
83.5619
20
-63.9685
11
83.5769
21
-63.8865
0
LINE
8
Black
10
83.5769
20
-63.8865
11
83.5399
21
-61.4832
0
LINE
8
Black
10
83.5399
20
-61.4832
11
83.6625
21
-61.3609
0
LINE
8
Black
10
83.6625
20
-61.3609
11
83.8268
21
-60.9652
0
LINE
8
Black
10
83.8268
20
-60.9652
11
83.8272
21
-60.5367
0
LINE
8
Black
10
83.8272
20
-60.5367
11
83.8272
21
-66.1527
0
LINE
8
Black
10
83.8272
20
-66.1527
11
83.5152
21
-66.0232
0
LINE
8
Black
10
83.5152
20
-66.0232
11
83.0867
21
-66.0228
0
LINE
8
Black
10
83.0867
20
-66.0228
11
82.6907
21
-66.1864
0
LINE
8
Black
10
82.6907
20
-66.1864
11
82.5846
21
-66.2923
0
LINE
8
Black
10
82.5846
20
-66.2923
11
80.4033
21
-66.518
0
LINE
8
Black
10
80.4033
20
-66.518
11
78.9089
21
-66.3519
0
LINE
8
Black
10
78.9089
20
-66.3519
11
78.2587
21
-65.9185
0
LINE
8
Black
10
78.2587
20
-65.9185
11
77.8771
21
-65.5368
0
LINE
8
Black
10
77.8771
20
-65.5368
11
77.8772
21
-65.3867
0
LINE
8
Black
10
77.8772
20
-65.3867
11
77.7136
21
-64.9907
0
LINE
8
Black
10
77.7136
20
-64.9907
11
77.4109
21
-64.6875
0
LINE
8
Black
10
77.4109
20
-64.6875
11
77.0152
21
-64.5232
0
LINE
8
Black
10
77.0152
20
-64.5232
11
76.5867
21
-64.5228
0
LINE
8
Black
10
76.5867
20
-64.5228
11
76.1907
21
-64.6864
0
LINE
8
Black
10
76.1907
20
-64.6864
11
75.8875
21
-64.9891
0
LINE
8
Black
10
75.8875
20
-64.9891
11
75.7232
21
-65.3848
0
LINE
8
Black
10
75.7232
20
-65.3848
11
75.7228
21
-65.8133
0
LINE
8
Black
10
75.7228
20
-65.8133
11
75.8864
21
-66.2093
0
LINE
8
Black
10
75.8864
20
-66.2093
11
76.1891
21
-66.5125
0
LINE
8
Black
10
76.1891
20
-66.5125
11
76.5023
21
-66.6425
0
LINE
8
Black
10
76.5023
20
-66.6425
11
77.0799
21
-67.2201
0
LINE
8
Black
10
77.0799
20
-67.2201
11
77.1521
21
-67.2684
0
LINE
8
Black
10
77.1521
20
-67.2684
11
77.2135
21
-67.3297
0
LINE
8
Black
10
77.2135
20
-67.3297
11
78.1135
21
-67.9297
0
LINE
8
Black
10
78.1135
20
-67.9297
11
78.1482
21
-67.944
0
LINE
8
Black
10
78.1482
20
-67.944
11
78.177
21
-67.9682
0
LINE
8
Black
10
78.177
20
-67.9682
11
78.3053
21
-68.0089
0
LINE
8
Black
10
78.3053
20
-68.0089
11
78.4298
21
-68.0603
0
LINE
8
Black
10
78.4298
20
-68.0603
11
78.4674
21
-68.0603
0
LINE
8
Black
10
78.4674
20
-68.0603
11
78.5032
21
-68.0716
0
LINE
8
Black
10
78.5032
20
-68.0716
11
80.3032
21
-68.2716
0
LINE
8
Black
10
80.3032
20
-68.2716
11
80.3967
21
-68.2636
0
LINE
8
Black
10
80.3967
20
-68.2636
11
80.4902
21
-68.2723
0
LINE
8
Black
10
80.4902
20
-68.2723
11
82.7515
21
-68.0384
0
LINE
8
Black
10
82.7515
20
-68.0384
11
83.0848
21
-68.1768
0
LINE
8
Black
10
83.0848
20
-68.1768
11
83.5133
21
-68.1772
0
LINE
8
Black
10
83.5133
20
-68.1772
11
83.9093
21
-68.0136
0
LINE
8
Black
10
83.9093
20
-68.0136
11
84.2125
21
-67.7109
0
LINE
8
Black
10
84.2125
20
-67.7109
11
84.3768
21
-67.3152
0
LINE
8
Black
10
84.3768
20
-67.3152
11
84.3772
21
-66.8867
0
LINE
8
Black
10
84.3772
20
-66.8867
11
84.3772
21
-72.873
0
LINE
8
Black
10
84.3772
20
-72.873
11
81.9273
21
-72.873
0
LINE
8
Black
10
81.9273
20
-72.873
11
81.9273
21
-70.1184
0
LINE
8
Black
10
81.9273
20
-70.1184
11
81.6346
21
-69.4099
0
LINE
8
Black
10
81.6346
20
-69.4099
11
81.093
21
-68.8673
0
LINE
8
Black
10
81.093
20
-68.8673
11
80.385
21
-68.5733
0
LINE
8
Black
10
80.385
20
-68.5733
11
79.6184
21
-68.5727
0
LINE
8
Black
10
79.6184
20
-68.5727
11
78.9099
21
-68.8654
0
LINE
8
Black
10
78.9099
20
-68.8654
11
78.3673
21
-69.407
0
LINE
8
Black
10
78.3673
20
-69.407
11
78.0733
21
-70.115
0
LINE
8
Black
10
78.0733
20
-70.115
11
78.0727
21
-70.8816
0
LINE
8
Black
10
78.0727
20
-70.8816
11
78.3654
21
-71.5901
0
LINE
8
Black
10
78.3654
20
-71.5901
11
78.907
21
-72.1327
0
LINE
8
Black
10
78.907
20
-72.1327
11
79.615
21
-72.4267
0
LINE
8
Black
10
79.615
20
-72.4267
11
80.3816
21
-72.4273
0
LINE
8
Black
10
80.3816
20
-72.4273
11
81.0901
21
-72.1346
0
LINE
8
Black
10
81.0901
20
-72.1346
11
81.6327
21
-71.593
0
LINE
8
Black
10
81.6327
20
-71.593
11
81.9267
21
-70.885
0
LINE
8
Black
10
81.9267
20
-70.885
11
81.9273
21
-70.1184
0
LINE
8
Black
10
81.9273
20
-70.1184
11
81.9273
21
-72.873
0
LINE
8
Black
10
81.9273
20
-72.873
11
73.127
21
-72.873
0
LINE
8
Black
10
73.127
20
-72.873
11
73.127
21
-35.127
0
LINE
8
Black
10
73.127
20
-35.127
11
86.873
21
-35.127
0
LINE
8
Black
10
86.873
20
-35.127
11
86.873
21
-72.873
0
LINE
8
Black
10
86.873
20
-72.873
11
84.3772
21
-72.873
0
LINE
8
Black
10
84.3772
20
-72.873
11
84.3772
21
-66.8867
0
LINE
8
Black
10
84.3772
20
-66.8867
11
84.2136
21
-66.4907
0
LINE
8
Black
10
84.2136
20
-66.4907
11
83.9109
21
-66.1875
0
LINE
8
Black
10
83.9109
20
-66.1875
11
83.8272
21
-66.1527
0
LINE
8
Black
10
83.8272
20
-66.1527
11
83.8272
21
-60.5367
0
LINE
8
Black
10
83.8272
20
-60.5367
11
83.6636
21
-60.1407
0
LINE
8
Black
10
83.6636
20
-60.1407
11
83.3609
21
-59.8375
0
LINE
8
Black
10
83.3609
20
-59.8375
11
82.9652
21
-59.6732
0
LINE
8
Black
10
82.9652
20
-59.6732
11
82.5367
21
-59.6728
0
LINE
8
Black
10
82.5367
20
-59.6728
11
82.1407
21
-59.8364
0
LINE
8
Black
10
82.1407
20
-59.8364
11
81.8375
21
-60.1391
0
LINE
8
Black
10
81.8375
20
-60.1391
11
81.6732
21
-60.5348
0
LINE
8
Black
10
81.6732
20
-60.5348
11
81.6728
21
-60.9633
0
LINE
8
Black
10
81.6728
20
-60.9633
11
81.7818
21
-61.227
0
LINE
8
Black
10
81.7818
20
-61.227
11
81.8191
21
-63.6508
0
LINE
8
Black
10
81.8191
20
-63.6508
11
81.5958
21
-64.0017
0
LINE
8
Black
10
81.5958
20
-64.0017
11
81.3907
21
-64.0864
0
LINE
8
Black
10
81.3907
20
-64.0864
11
81.0875
21
-64.3891
0
LINE
8
Black
10
81.0875
20
-64.3891
11
80.9232
21
-64.7848
0
LINE
8
Black
10
80.9232
20
-64.7848
11
80.9228
21
-65.2133
0
LINE
8
Black
10
80.9228
20
-65.2133
11
81.0864
21
-65.6093
0
LINE
8
Black
10
81.0864
20
-65.6093
11
81.3891
21
-65.9125
0
LINE
8
Black
10
81.3891
20
-65.9125
11
81.7848
21
-66.0768
0
LINE
8
Black
10
81.7848
20
-66.0768
11
82.2133
21
-66.0772
0
LINE
8
Black
10
82.2133
20
-66.0772
11
82.6093
21
-65.9136
0
LINE
8
Black
10
82.6093
20
-65.9136
11
82.9125
21
-65.6109
0
LINE
8
Black
10
82.9125
20
-65.6109
11
83.0768
21
-65.2152
0
LINE
8
Black
10
83.0768
20
-65.2152
11
83.0771
21
-64.941
0
LINE
8
Black
10
83.0771
20
-64.941
11
83.4399
21
-64.3708
0
LINE
8
Black
10
83.4399
20
-64.3708
11
83.4701
21
-64.2931
0
LINE
8
Black
10
83.4701
20
-64.2931
11
83.5153
21
-64.2231
0
LINE
8
Black
10
83.5153
20
-64.2231
11
83.5314
21
-64.1352
0
LINE
8
Black
10
83.5314
20
-64.1352
11
83.5638
21
-64.0519
0
LINE
8
Black
10
83.5638
20
-64.0519
11
83.5619
21
-63.9685
0
LINE
8
Black
10
83.5619
20
-63.9685
11
83.5769
21
-63.8865
0
LINE
8
Black
10
83.5769
20
-63.8865
11
83.5399
21
-61.4832
0
LINE
8
Black
10
83.5399
20
-61.4832
11
83.6625
21
-61.3609
0
LINE
8
Black
10
83.6625
20
-61.3609
11
83.8268
21
-60.9652
0
LINE
8
Black
10
83.8268
20
-60.9652
11
83.8272
21
-60.5367
0
LINE
8
Black
10
83.8272
20
-60.5367
11
83.8272
21
-66.1527
0
LINE
8
Black
10
83.8272
20
-66.1527
11
83.5152
21
-66.0232
0
LINE
8
Black
10
83.5152
20
-66.0232
11
83.0867
21
-66.0228
0
LINE
8
Black
10
83.0867
20
-66.0228
11
82.6907
21
-66.1864
0
LINE
8
Black
10
82.6907
20
-66.1864
11
82.5846
21
-66.2923
0
LINE
8
Black
10
82.5846
20
-66.2923
11
80.4033
21
-66.518
0
LINE
8
Black
10
80.4033
20
-66.518
11
78.9089
21
-66.3519
0
LINE
8
Black
10
78.9089
20
-66.3519
11
78.2587
21
-65.9185
0
LINE
8
Black
10
78.2587
20
-65.9185
11
77.8771
21
-65.5368
0
LINE
8
Black
10
77.8771
20
-65.5368
11
77.8772
21
-65.3867
0
LINE
8
Black
10
77.8772
20
-65.3867
11
77.7136
21
-64.9907
0
LINE
8
Black
10
77.7136
20
-64.9907
11
77.4109
21
-64.6875
0
LINE
8
Black
10
77.4109
20
-64.6875
11
77.0152
21
-64.5232
0
LINE
8
Black
10
77.0152
20
-64.5232
11
76.5867
21
-64.5228
0
LINE
8
Black
10
76.5867
20
-64.5228
11
76.1907
21
-64.6864
0
LINE
8
Black
10
76.1907
20
-64.6864
11
75.8875
21
-64.9891
0
LINE
8
Black
10
75.8875
20
-64.9891
11
75.7232
21
-65.3848
0
LINE
8
Black
10
75.7232
20
-65.3848
11
75.7228
21
-65.8133
0
LINE
8
Black
10
75.7228
20
-65.8133
11
75.8864
21
-66.2093
0
LINE
8
Black
10
75.8864
20
-66.2093
11
76.1891
21
-66.5125
0
LINE
8
Black
10
76.1891
20
-66.5125
11
76.5023
21
-66.6425
0
LINE
8
Black
10
76.5023
20
-66.6425
11
77.0799
21
-67.2201
0
LINE
8
Black
10
77.0799
20
-67.2201
11
77.1521
21
-67.2684
0
LINE
8
Black
10
77.1521
20
-67.2684
11
77.2135
21
-67.3297
0
LINE
8
Black
10
77.2135
20
-67.3297
11
78.1135
21
-67.9297
0
LINE
8
Black
10
78.1135
20
-67.9297
11
78.1482
21
-67.944
0
LINE
8
Black
10
78.1482
20
-67.944
11
78.177
21
-67.9682
0
LINE
8
Black
10
78.177
20
-67.9682
11
78.3053
21
-68.0089
0
LINE
8
Black
10
78.3053
20
-68.0089
11
78.4298
21
-68.0603
0
LINE
8
Black
10
78.4298
20
-68.0603
11
78.4674
21
-68.0603
0
LINE
8
Black
10
78.4674
20
-68.0603
11
78.5032
21
-68.0716
0
LINE
8
Black
10
78.5032
20
-68.0716
11
80.3032
21
-68.2716
0
LINE
8
Black
10
80.3032
20
-68.2716
11
80.3967
21
-68.2636
0
LINE
8
Black
10
80.3967
20
-68.2636
11
80.4902
21
-68.2723
0
LINE
8
Black
10
80.4902
20
-68.2723
11
82.7515
21
-68.0384
0
LINE
8
Black
10
82.7515
20
-68.0384
11
83.0848
21
-68.1768
0
LINE
8
Black
10
83.0848
20
-68.1768
11
83.5133
21
-68.1772
0
LINE
8
Black
10
83.5133
20
-68.1772
11
83.9093
21
-68.0136
0
LINE
8
Black
10
83.9093
20
-68.0136
11
84.2125
21
-67.7109
0
LINE
8
Black
10
84.2125
20
-67.7109
11
84.3768
21
-67.3152
0
LINE
8
Black
10
84.3768
20
-67.3152
11
84.3772
21
-66.8867
0
LINE
8
Black
10
84.3772
20
-66.8867
11
84.3772
21
-72.873
0
LINE
8
Black
10
84.3772
20
-72.873
11
81.9273
21
-72.873
0
LINE
8
Black
10
81.9273
20
-72.873
11
81.9273
21
-70.1184
0
LINE
8
Black
10
81.9273
20
-70.1184
11
81.6346
21
-69.4099
0
LINE
8
Black
10
81.6346
20
-69.4099
11
81.093
21
-68.8673
0
LINE
8
Black
10
81.093
20
-68.8673
11
80.385
21
-68.5733
0
LINE
8
Black
10
80.385
20
-68.5733
11
79.6184
21
-68.5727
0
LINE
8
Black
10
79.6184
20
-68.5727
11
78.9099
21
-68.8654
0
LINE
8
Black
10
78.9099
20
-68.8654
11
78.3673
21
-69.407
0
LINE
8
Black
10
78.3673
20
-69.407
11
78.0733
21
-70.115
0
LINE
8
Black
10
78.0733
20
-70.115
11
78.0727
21
-70.8816
0
LINE
8
Black
10
78.0727
20
-70.8816
11
78.3654
21
-71.5901
0
LINE
8
Black
10
78.3654
20
-71.5901
11
78.907
21
-72.1327
0
LINE
8
Black
10
78.907
20
-72.1327
11
79.615
21
-72.4267
0
LINE
8
Black
10
79.615
20
-72.4267
11
80.3816
21
-72.4273
0
LINE
8
Black
10
80.3816
20
-72.4273
11
81.0901
21
-72.1346
0
LINE
8
Black
10
81.0901
20
-72.1346
11
81.6327
21
-71.593
0
LINE
8
Black
10
81.6327
20
-71.593
11
81.9267
21
-70.885
0
LINE
8
Black
10
81.9267
20
-70.885
11
81.9273
21
-70.1184
0
LINE
8
Black
10
81.9273
20
-70.1184
11
81.9273
21
-72.873
0
LINE
8
Black
10
81.9273
20
-72.873
11
73.127
21
-72.873
0
LINE
8
Black
10
73.127
20
-72.873
11
73.127
21
-35.127
0
LINE
8
Black
10
73.127
20
-35.127
11
86.873
21
-35.127
0
LINE
8
Black
10
86.873
20
-35.127
11
86.873
21
-72.873
0
LINE
8
Black
10
88.373
20
-93.373
11
85.5274
21
-93.373
0
LINE
8
Black
10
85.5274
20
-93.373
11
85.5274
21
-77.0986
0
LINE
8
Black
10
85.5274
20
-77.0986
11
85.2194
21
-76.3533
0
LINE
8
Black
10
85.2194
20
-76.3533
11
84.6497
21
-75.7826
0
LINE
8
Black
10
84.6497
20
-75.7826
11
83.905
21
-75.4734
0
LINE
8
Black
10
83.905
20
-75.4734
11
83.0986
21
-75.4726
0
LINE
8
Black
10
83.0986
20
-75.4726
11
82.3533
21
-75.7806
0
LINE
8
Black
10
82.3533
20
-75.7806
11
81.7826
21
-76.3503
0
LINE
8
Black
10
81.7826
20
-76.3503
11
81.4734
21
-77.095
0
LINE
8
Black
10
81.4734
20
-77.095
11
81.4726
21
-77.9014
0
LINE
8
Black
10
81.4726
20
-77.9014
11
81.7806
21
-78.6467
0
LINE
8
Black
10
81.7806
20
-78.6467
11
82.3503
21
-79.2174
0
LINE
8
Black
10
82.3503
20
-79.2174
11
83.095
21
-79.5266
0
LINE
8
Black
10
83.095
20
-79.5266
11
83.9014
21
-79.5274
0
LINE
8
Black
10
83.9014
20
-79.5274
11
84.6467
21
-79.2194
0
LINE
8
Black
10
84.6467
20
-79.2194
11
85.2174
21
-78.6497
0
LINE
8
Black
10
85.2174
20
-78.6497
11
85.5266
21
-77.905
0
LINE
8
Black
10
85.5266
20
-77.905
11
85.5274
21
-77.0986
0
LINE
8
Black
10
85.5274
20
-77.0986
11
85.5274
21
-93.373
0
LINE
8
Black
10
85.5274
20
-93.373
11
66.4772
21
-93.373
0
LINE
8
Black
10
66.4772
20
-93.373
11
66.4772
21
-87.0867
0
LINE
8
Black
10
66.4772
20
-87.0867
11
66.3136
21
-86.6907
0
LINE
8
Black
10
66.3136
20
-86.6907
11
66.0109
21
-86.3875
0
LINE
8
Black
10
66.0109
20
-86.3875
11
65.6152
21
-86.2232
0
LINE
8
Black
10
65.6152
20
-86.2232
11
65.277
21
-86.2229
0
LINE
8
Black
10
65.277
20
-86.2229
11
65.277
21
-85.5463
0
LINE
8
Black
10
65.277
20
-85.5463
11
65.3125
21
-85.5109
0
LINE
8
Black
10
65.3125
20
-85.5109
11
65.4768
21
-85.1152
0
LINE
8
Black
10
65.4768
20
-85.1152
11
65.4772
21
-84.6867
0
LINE
8
Black
10
65.4772
20
-84.6867
11
65.3136
21
-84.2907
0
LINE
8
Black
10
65.3136
20
-84.2907
11
65.0109
21
-83.9875
0
LINE
8
Black
10
65.0109
20
-83.9875
11
64.6152
21
-83.8232
0
LINE
8
Black
10
64.6152
20
-83.8232
11
64.1867
21
-83.8228
0
LINE
8
Black
10
64.1867
20
-83.8228
11
64.0274
21
-83.8887
0
LINE
8
Black
10
64.0274
20
-83.8887
11
64.0274
21
-77.0986
0
LINE
8
Black
10
64.0274
20
-77.0986
11
63.7194
21
-76.3533
0
LINE
8
Black
10
63.7194
20
-76.3533
11
63.1497
21
-75.7826
0
LINE
8
Black
10
63.1497
20
-75.7826
11
62.405
21
-75.4734
0
LINE
8
Black
10
62.405
20
-75.4734
11
61.5986
21
-75.4726
0
LINE
8
Black
10
61.5986
20
-75.4726
11
60.8533
21
-75.7806
0
LINE
8
Black
10
60.8533
20
-75.7806
11
60.2826
21
-76.3503
0
LINE
8
Black
10
60.2826
20
-76.3503
11
59.9734
21
-77.095
0
LINE
8
Black
10
59.9734
20
-77.095
11
59.9726
21
-77.9014
0
LINE
8
Black
10
59.9726
20
-77.9014
11
60.2806
21
-78.6467
0
LINE
8
Black
10
60.2806
20
-78.6467
11
60.8503
21
-79.2174
0
LINE
8
Black
10
60.8503
20
-79.2174
11
61.595
21
-79.5266
0
LINE
8
Black
10
61.595
20
-79.5266
11
62.4014
21
-79.5274
0
LINE
8
Black
10
62.4014
20
-79.5274
11
63.1467
21
-79.2194
0
LINE
8
Black
10
63.1467
20
-79.2194
11
63.7174
21
-78.6497
0
LINE
8
Black
10
63.7174
20
-78.6497
11
64.0266
21
-77.905
0
LINE
8
Black
10
64.0266
20
-77.905
11
64.0274
21
-77.0986
0
LINE
8
Black
10
64.0274
20
-77.0986
11
64.0274
21
-83.8887
0
LINE
8
Black
10
64.0274
20
-83.8887
11
63.7907
21
-83.9864
0
LINE
8
Black
10
63.7907
20
-83.9864
11
63.4875
21
-84.2891
0
LINE
8
Black
10
63.4875
20
-84.2891
11
63.3232
21
-84.6848
0
LINE
8
Black
10
63.3232
20
-84.6848
11
63.3228
21
-85.1133
0
LINE
8
Black
10
63.3228
20
-85.1133
11
63.4864
21
-85.5093
0
LINE
8
Black
10
63.4864
20
-85.5093
11
63.523
21
-85.5459
0
LINE
8
Black
10
63.523
20
-85.5459
11
63.523
21
-88.5023
0
LINE
8
Black
10
63.523
20
-88.5023
11
63.5119
21
-88.5049
0
LINE
8
Black
10
63.5119
20
-88.5049
11
63.3152
21
-88.4232
0
LINE
8
Black
10
63.3152
20
-88.4232
11
62.8867
21
-88.4228
0
LINE
8
Black
10
62.8867
20
-88.4228
11
62.4907
21
-88.5864
0
LINE
8
Black
10
62.4907
20
-88.5864
11
62.3269
21
-88.75
0
LINE
8
Black
10
62.3269
20
-88.75
11
62.3028
21
-88.7387
0
LINE
8
Black
10
62.3028
20
-88.7387
11
62.1949
21
-88.7336
0
LINE
8
Black
10
62.1949
20
-88.7336
11
62.0889
21
-88.7128
0
LINE
8
Black
10
62.0889
20
-88.7128
11
59.4443
21
-88.721
0
LINE
8
Black
10
59.4443
20
-88.721
11
59.4109
21
-88.6875
0
LINE
8
Black
10
59.4109
20
-88.6875
11
59.0152
21
-88.5232
0
LINE
8
Black
10
59.0152
20
-88.5232
11
58.5867
21
-88.5228
0
LINE
8
Black
10
58.5867
20
-88.5228
11
58.1907
21
-88.6864
0
LINE
8
Black
10
58.1907
20
-88.6864
11
57.8875
21
-88.9891
0
LINE
8
Black
10
57.8875
20
-88.9891
11
57.7232
21
-89.3848
0
LINE
8
Black
10
57.7232
20
-89.3848
11
57.7228
21
-89.8133
0
LINE
8
Black
10
57.7228
20
-89.8133
11
57.8864
21
-90.2093
0
LINE
8
Black
10
57.8864
20
-90.2093
11
58.1891
21
-90.5125
0
LINE
8
Black
10
58.1891
20
-90.5125
11
58.5848
21
-90.6768
0
LINE
8
Black
10
58.5848
20
-90.6768
11
59.0133
21
-90.6772
0
LINE
8
Black
10
59.0133
20
-90.6772
11
59.4093
21
-90.5136
0
LINE
8
Black
10
59.4093
20
-90.5136
11
59.4479
21
-90.475
0
LINE
8
Black
10
59.4479
20
-90.475
11
61.5969
21
-90.4684
0
LINE
8
Black
10
61.5969
20
-90.4684
11
61.9487
21
-91.0525
0
LINE
8
Black
10
61.9487
20
-91.0525
11
62.0206
21
-91.1314
0
LINE
8
Black
10
62.0206
20
-91.1314
11
62.0799
21
-91.2201
0
LINE
8
Black
10
62.0799
20
-91.2201
11
62.1347
21
-91.2568
0
LINE
8
Black
10
62.1347
20
-91.2568
11
62.1791
21
-91.3055
0
LINE
8
Black
10
62.1791
20
-91.3055
11
62.2757
21
-91.351
0
LINE
8
Black
10
62.2757
20
-91.351
11
62.3644
21
-91.4102
0
LINE
8
Black
10
62.3644
20
-91.4102
11
62.4291
21
-91.4231
0
LINE
8
Black
10
62.4291
20
-91.4231
11
62.4887
21
-91.4512
0
LINE
8
Black
10
62.4887
20
-91.4512
11
62.5953
21
-91.4562
0
LINE
8
Black
10
62.5953
20
-91.4562
11
62.7
21
-91.477
0
LINE
8
Black
10
62.7
20
-91.477
11
63.9
21
-91.477
0
LINE
8
Black
10
63.9
20
-91.477
11
63.998
21
-91.4575
0
LINE
8
Black
10
63.998
20
-91.4575
11
64.0978
21
-91.4544
0
LINE
8
Black
10
64.0978
20
-91.4544
11
64.1642
21
-91.4244
0
LINE
8
Black
10
64.1642
20
-91.4244
11
64.2356
21
-91.4102
0
LINE
8
Black
10
64.2356
20
-91.4102
11
64.3187
21
-91.3547
0
LINE
8
Black
10
64.3187
20
-91.3547
11
64.4097
21
-91.3136
0
LINE
8
Black
10
64.4097
20
-91.3136
11
65.8097
21
-90.3136
0
LINE
8
Black
10
65.8097
20
-90.3136
11
65.8466
21
-90.2744
0
LINE
8
Black
10
65.8466
20
-90.2744
11
65.8926
21
-90.2465
0
LINE
8
Black
10
65.8926
20
-90.2465
11
65.9628
21
-90.1507
0
LINE
8
Black
10
65.9628
20
-90.1507
11
66.044
21
-90.0643
0
LINE
8
Black
10
66.044
20
-90.0643
11
66.0631
21
-90.0139
0
LINE
8
Black
10
66.0631
20
-90.0139
11
66.0949
21
-89.9705
0
LINE
8
Black
10
66.0949
20
-89.9705
11
66.1231
21
-89.8552
0
LINE
8
Black
10
66.1231
20
-89.8552
11
66.1651
21
-89.7442
0
LINE
8
Black
10
66.1651
20
-89.7442
11
66.1634
21
-89.6904
0
LINE
8
Black
10
66.1634
20
-89.6904
11
66.1762
21
-89.6381
0
LINE
8
Black
10
66.1762
20
-89.6381
11
66.2485
21
-87.9748
0
LINE
8
Black
10
66.2485
20
-87.9748
11
66.3125
21
-87.9109
0
LINE
8
Black
10
66.3125
20
-87.9109
11
66.4768
21
-87.5152
0
LINE
8
Black
10
66.4768
20
-87.5152
11
66.4772
21
-87.0867
0
LINE
8
Black
10
66.4772
20
-87.0867
11
66.4772
21
-93.373
0
LINE
8
Black
10
66.4772
20
-93.373
11
57.127
21
-93.373
0
LINE
8
Black
10
57.127
20
-93.373
11
57.127
21
-75.127
0
LINE
8
Black
10
57.127
20
-75.127
11
88.373
21
-75.127
0
LINE
8
Black
10
88.373
20
-75.127
11
88.373
21
-93.373
0
LINE
8
Black
10
88.373
20
-93.373
11
85.5274
21
-93.373
0
LINE
8
Black
10
85.5274
20
-93.373
11
85.5274
21
-77.0986
0
LINE
8
Black
10
85.5274
20
-77.0986
11
85.2194
21
-76.3533
0
LINE
8
Black
10
85.2194
20
-76.3533
11
84.6497
21
-75.7826
0
LINE
8
Black
10
84.6497
20
-75.7826
11
83.905
21
-75.4734
0
LINE
8
Black
10
83.905
20
-75.4734
11
83.0986
21
-75.4726
0
LINE
8
Black
10
83.0986
20
-75.4726
11
82.3533
21
-75.7806
0
LINE
8
Black
10
82.3533
20
-75.7806
11
81.7826
21
-76.3503
0
LINE
8
Black
10
81.7826
20
-76.3503
11
81.4734
21
-77.095
0
LINE
8
Black
10
81.4734
20
-77.095
11
81.4726
21
-77.9014
0
LINE
8
Black
10
81.4726
20
-77.9014
11
81.7806
21
-78.6467
0
LINE
8
Black
10
81.7806
20
-78.6467
11
82.3503
21
-79.2174
0
LINE
8
Black
10
82.3503
20
-79.2174
11
83.095
21
-79.5266
0
LINE
8
Black
10
83.095
20
-79.5266
11
83.9014
21
-79.5274
0
LINE
8
Black
10
83.9014
20
-79.5274
11
84.6467
21
-79.2194
0
LINE
8
Black
10
84.6467
20
-79.2194
11
85.2174
21
-78.6497
0
LINE
8
Black
10
85.2174
20
-78.6497
11
85.5266
21
-77.905
0
LINE
8
Black
10
85.5266
20
-77.905
11
85.5274
21
-77.0986
0
LINE
8
Black
10
85.5274
20
-77.0986
11
85.5274
21
-93.373
0
LINE
8
Black
10
85.5274
20
-93.373
11
66.4772
21
-93.373
0
LINE
8
Black
10
66.4772
20
-93.373
11
66.4772
21
-87.0867
0
LINE
8
Black
10
66.4772
20
-87.0867
11
66.3136
21
-86.6907
0
LINE
8
Black
10
66.3136
20
-86.6907
11
66.0109
21
-86.3875
0
LINE
8
Black
10
66.0109
20
-86.3875
11
65.6152
21
-86.2232
0
LINE
8
Black
10
65.6152
20
-86.2232
11
65.277
21
-86.2229
0
LINE
8
Black
10
65.277
20
-86.2229
11
65.277
21
-85.5463
0
LINE
8
Black
10
65.277
20
-85.5463
11
65.3125
21
-85.5109
0
LINE
8
Black
10
65.3125
20
-85.5109
11
65.4768
21
-85.1152
0
LINE
8
Black
10
65.4768
20
-85.1152
11
65.4772
21
-84.6867
0
LINE
8
Black
10
65.4772
20
-84.6867
11
65.3136
21
-84.2907
0
LINE
8
Black
10
65.3136
20
-84.2907
11
65.0109
21
-83.9875
0
LINE
8
Black
10
65.0109
20
-83.9875
11
64.6152
21
-83.8232
0
LINE
8
Black
10
64.6152
20
-83.8232
11
64.1867
21
-83.8228
0
LINE
8
Black
10
64.1867
20
-83.8228
11
64.0274
21
-83.8887
0
LINE
8
Black
10
64.0274
20
-83.8887
11
64.0274
21
-77.0986
0
LINE
8
Black
10
64.0274
20
-77.0986
11
63.7194
21
-76.3533
0
LINE
8
Black
10
63.7194
20
-76.3533
11
63.1497
21
-75.7826
0
LINE
8
Black
10
63.1497
20
-75.7826
11
62.405
21
-75.4734
0
LINE
8
Black
10
62.405
20
-75.4734
11
61.5986
21
-75.4726
0
LINE
8
Black
10
61.5986
20
-75.4726
11
60.8533
21
-75.7806
0
LINE
8
Black
10
60.8533
20
-75.7806
11
60.2826
21
-76.3503
0
LINE
8
Black
10
60.2826
20
-76.3503
11
59.9734
21
-77.095
0
LINE
8
Black
10
59.9734
20
-77.095
11
59.9726
21
-77.9014
0
LINE
8
Black
10
59.9726
20
-77.9014
11
60.2806
21
-78.6467
0
LINE
8
Black
10
60.2806
20
-78.6467
11
60.8503
21
-79.2174
0
LINE
8
Black
10
60.8503
20
-79.2174
11
61.595
21
-79.5266
0
LINE
8
Black
10
61.595
20
-79.5266
11
62.4014
21
-79.5274
0
LINE
8
Black
10
62.4014
20
-79.5274
11
63.1467
21
-79.2194
0
LINE
8
Black
10
63.1467
20
-79.2194
11
63.7174
21
-78.6497
0
LINE
8
Black
10
63.7174
20
-78.6497
11
64.0266
21
-77.905
0
LINE
8
Black
10
64.0266
20
-77.905
11
64.0274
21
-77.0986
0
LINE
8
Black
10
64.0274
20
-77.0986
11
64.0274
21
-83.8887
0
LINE
8
Black
10
64.0274
20
-83.8887
11
63.7907
21
-83.9864
0
LINE
8
Black
10
63.7907
20
-83.9864
11
63.4875
21
-84.2891
0
LINE
8
Black
10
63.4875
20
-84.2891
11
63.3232
21
-84.6848
0
LINE
8
Black
10
63.3232
20
-84.6848
11
63.3228
21
-85.1133
0
LINE
8
Black
10
63.3228
20
-85.1133
11
63.4864
21
-85.5093
0
LINE
8
Black
10
63.4864
20
-85.5093
11
63.523
21
-85.5459
0
LINE
8
Black
10
63.523
20
-85.5459
11
63.523
21
-88.5023
0
LINE
8
Black
10
63.523
20
-88.5023
11
63.5119
21
-88.5049
0
LINE
8
Black
10
63.5119
20
-88.5049
11
63.3152
21
-88.4232
0
LINE
8
Black
10
63.3152
20
-88.4232
11
62.8867
21
-88.4228
0
LINE
8
Black
10
62.8867
20
-88.4228
11
62.4907
21
-88.5864
0
LINE
8
Black
10
62.4907
20
-88.5864
11
62.3269
21
-88.75
0
LINE
8
Black
10
62.3269
20
-88.75
11
62.3028
21
-88.7387
0
LINE
8
Black
10
62.3028
20
-88.7387
11
62.1949
21
-88.7336
0
LINE
8
Black
10
62.1949
20
-88.7336
11
62.0889
21
-88.7128
0
LINE
8
Black
10
62.0889
20
-88.7128
11
59.4443
21
-88.721
0
LINE
8
Black
10
59.4443
20
-88.721
11
59.4109
21
-88.6875
0
LINE
8
Black
10
59.4109
20
-88.6875
11
59.0152
21
-88.5232
0
LINE
8
Black
10
59.0152
20
-88.5232
11
58.5867
21
-88.5228
0
LINE
8
Black
10
58.5867
20
-88.5228
11
58.1907
21
-88.6864
0
LINE
8
Black
10
58.1907
20
-88.6864
11
57.8875
21
-88.9891
0
LINE
8
Black
10
57.8875
20
-88.9891
11
57.7232
21
-89.3848
0
LINE
8
Black
10
57.7232
20
-89.3848
11
57.7228
21
-89.8133
0
LINE
8
Black
10
57.7228
20
-89.8133
11
57.8864
21
-90.2093
0
LINE
8
Black
10
57.8864
20
-90.2093
11
58.1891
21
-90.5125
0
LINE
8
Black
10
58.1891
20
-90.5125
11
58.5848
21
-90.6768
0
LINE
8
Black
10
58.5848
20
-90.6768
11
59.0133
21
-90.6772
0
LINE
8
Black
10
59.0133
20
-90.6772
11
59.4093
21
-90.5136
0
LINE
8
Black
10
59.4093
20
-90.5136
11
59.4479
21
-90.475
0
LINE
8
Black
10
59.4479
20
-90.475
11
61.5969
21
-90.4684
0
LINE
8
Black
10
61.5969
20
-90.4684
11
61.9487
21
-91.0525
0
LINE
8
Black
10
61.9487
20
-91.0525
11
62.0206
21
-91.1314
0
LINE
8
Black
10
62.0206
20
-91.1314
11
62.0799
21
-91.2201
0
LINE
8
Black
10
62.0799
20
-91.2201
11
62.1347
21
-91.2568
0
LINE
8
Black
10
62.1347
20
-91.2568
11
62.1791
21
-91.3055
0
LINE
8
Black
10
62.1791
20
-91.3055
11
62.2757
21
-91.351
0
LINE
8
Black
10
62.2757
20
-91.351
11
62.3644
21
-91.4102
0
LINE
8
Black
10
62.3644
20
-91.4102
11
62.4291
21
-91.4231
0
LINE
8
Black
10
62.4291
20
-91.4231
11
62.4887
21
-91.4512
0
LINE
8
Black
10
62.4887
20
-91.4512
11
62.5953
21
-91.4562
0
LINE
8
Black
10
62.5953
20
-91.4562
11
62.7
21
-91.477
0
LINE
8
Black
10
62.7
20
-91.477
11
63.9
21
-91.477
0
LINE
8
Black
10
63.9
20
-91.477
11
63.998
21
-91.4575
0
LINE
8
Black
10
63.998
20
-91.4575
11
64.0978
21
-91.4544
0
LINE
8
Black
10
64.0978
20
-91.4544
11
64.1642
21
-91.4244
0
LINE
8
Black
10
64.1642
20
-91.4244
11
64.2356
21
-91.4102
0
LINE
8
Black
10
64.2356
20
-91.4102
11
64.3187
21
-91.3547
0
LINE
8
Black
10
64.3187
20
-91.3547
11
64.4097
21
-91.3136
0
LINE
8
Black
10
64.4097
20
-91.3136
11
65.8097
21
-90.3136
0
LINE
8
Black
10
65.8097
20
-90.3136
11
65.8466
21
-90.2744
0
LINE
8
Black
10
65.8466
20
-90.2744
11
65.8926
21
-90.2465
0
LINE
8
Black
10
65.8926
20
-90.2465
11
65.9628
21
-90.1507
0
LINE
8
Black
10
65.9628
20
-90.1507
11
66.044
21
-90.0643
0
LINE
8
Black
10
66.044
20
-90.0643
11
66.0631
21
-90.0139
0
LINE
8
Black
10
66.0631
20
-90.0139
11
66.0949
21
-89.9705
0
LINE
8
Black
10
66.0949
20
-89.9705
11
66.1231
21
-89.8552
0
LINE
8
Black
10
66.1231
20
-89.8552
11
66.1651
21
-89.7442
0
LINE
8
Black
10
66.1651
20
-89.7442
11
66.1634
21
-89.6904
0
LINE
8
Black
10
66.1634
20
-89.6904
11
66.1762
21
-89.6381
0
LINE
8
Black
10
66.1762
20
-89.6381
11
66.2485
21
-87.9748
0
LINE
8
Black
10
66.2485
20
-87.9748
11
66.3125
21
-87.9109
0
LINE
8
Black
10
66.3125
20
-87.9109
11
66.4768
21
-87.5152
0
LINE
8
Black
10
66.4768
20
-87.5152
11
66.4772
21
-87.0867
0
LINE
8
Black
10
66.4772
20
-87.0867
11
66.4772
21
-93.373
0
LINE
8
Black
10
66.4772
20
-93.373
11
57.127
21
-93.373
0
LINE
8
Black
10
57.127
20
-93.373
11
57.127
21
-75.127
0
LINE
8
Black
10
57.127
20
-75.127
11
88.373
21
-75.127
0
LINE
8
Black
10
88.373
20
-75.127
11
88.373
21
-93.373
0
LINE
8
Black
10
121.873
20
-93.373
11
119.027
21
-93.373
0
LINE
8
Black
10
119.027
20
-93.373
11
119.027
21
-77.0986
0
LINE
8
Black
10
119.027
20
-77.0986
11
118.719
21
-76.3533
0
LINE
8
Black
10
118.719
20
-76.3533
11
118.15
21
-75.7826
0
LINE
8
Black
10
118.15
20
-75.7826
11
117.405
21
-75.4734
0
LINE
8
Black
10
117.405
20
-75.4734
11
116.599
21
-75.4726
0
LINE
8
Black
10
116.599
20
-75.4726
11
115.853
21
-75.7806
0
LINE
8
Black
10
115.853
20
-75.7806
11
115.283
21
-76.3503
0
LINE
8
Black
10
115.283
20
-76.3503
11
114.973
21
-77.095
0
LINE
8
Black
10
114.973
20
-77.095
11
114.973
21
-77.9014
0
LINE
8
Black
10
114.973
20
-77.9014
11
115.281
21
-78.6467
0
LINE
8
Black
10
115.281
20
-78.6467
11
115.85
21
-79.2174
0
LINE
8
Black
10
115.85
20
-79.2174
11
116.595
21
-79.5266
0
LINE
8
Black
10
116.595
20
-79.5266
11
117.401
21
-79.5274
0
LINE
8
Black
10
117.401
20
-79.5274
11
118.147
21
-79.2194
0
LINE
8
Black
10
118.147
20
-79.2194
11
118.717
21
-78.6497
0
LINE
8
Black
10
118.717
20
-78.6497
11
119.027
21
-77.905
0
LINE
8
Black
10
119.027
20
-77.905
11
119.027
21
-77.0986
0
LINE
8
Black
10
119.027
20
-77.0986
11
119.027
21
-93.373
0
LINE
8
Black
10
119.027
20
-93.373
11
99.9772
21
-93.373
0
LINE
8
Black
10
99.9772
20
-93.373
11
99.9772
21
-87.0867
0
LINE
8
Black
10
99.9772
20
-87.0867
11
99.8136
21
-86.6907
0
LINE
8
Black
10
99.8136
20
-86.6907
11
99.5109
21
-86.3875
0
LINE
8
Black
10
99.5109
20
-86.3875
11
99.1152
21
-86.2232
0
LINE
8
Black
10
99.1152
20
-86.2232
11
98.777
21
-86.2229
0
LINE
8
Black
10
98.777
20
-86.2229
11
98.777
21
-85.5463
0
LINE
8
Black
10
98.777
20
-85.5463
11
98.8125
21
-85.5109
0
LINE
8
Black
10
98.8125
20
-85.5109
11
98.9768
21
-85.1152
0
LINE
8
Black
10
98.9768
20
-85.1152
11
98.9772
21
-84.6867
0
LINE
8
Black
10
98.9772
20
-84.6867
11
98.8136
21
-84.2907
0
LINE
8
Black
10
98.8136
20
-84.2907
11
98.5109
21
-83.9875
0
LINE
8
Black
10
98.5109
20
-83.9875
11
98.1152
21
-83.8232
0
LINE
8
Black
10
98.1152
20
-83.8232
11
97.6867
21
-83.8228
0
LINE
8
Black
10
97.6867
20
-83.8228
11
97.5274
21
-83.8887
0
LINE
8
Black
10
97.5274
20
-83.8887
11
97.5274
21
-77.0986
0
LINE
8
Black
10
97.5274
20
-77.0986
11
97.2194
21
-76.3533
0
LINE
8
Black
10
97.2194
20
-76.3533
11
96.6497
21
-75.7826
0
LINE
8
Black
10
96.6497
20
-75.7826
11
95.905
21
-75.4734
0
LINE
8
Black
10
95.905
20
-75.4734
11
95.0986
21
-75.4726
0
LINE
8
Black
10
95.0986
20
-75.4726
11
94.3533
21
-75.7806
0
LINE
8
Black
10
94.3533
20
-75.7806
11
93.7826
21
-76.3503
0
LINE
8
Black
10
93.7826
20
-76.3503
11
93.4734
21
-77.095
0
LINE
8
Black
10
93.4734
20
-77.095
11
93.4726
21
-77.9014
0
LINE
8
Black
10
93.4726
20
-77.9014
11
93.7806
21
-78.6467
0
LINE
8
Black
10
93.7806
20
-78.6467
11
94.3503
21
-79.2174
0
LINE
8
Black
10
94.3503
20
-79.2174
11
95.095
21
-79.5266
0
LINE
8
Black
10
95.095
20
-79.5266
11
95.9014
21
-79.5274
0
LINE
8
Black
10
95.9014
20
-79.5274
11
96.6467
21
-79.2194
0
LINE
8
Black
10
96.6467
20
-79.2194
11
97.2174
21
-78.6497
0
LINE
8
Black
10
97.2174
20
-78.6497
11
97.5266
21
-77.905
0
LINE
8
Black
10
97.5266
20
-77.905
11
97.5274
21
-77.0986
0
LINE
8
Black
10
97.5274
20
-77.0986
11
97.5274
21
-83.8887
0
LINE
8
Black
10
97.5274
20
-83.8887
11
97.2907
21
-83.9864
0
LINE
8
Black
10
97.2907
20
-83.9864
11
96.9875
21
-84.2891
0
LINE
8
Black
10
96.9875
20
-84.2891
11
96.8232
21
-84.6848
0
LINE
8
Black
10
96.8232
20
-84.6848
11
96.8228
21
-85.1133
0
LINE
8
Black
10
96.8228
20
-85.1133
11
96.9864
21
-85.5093
0
LINE
8
Black
10
96.9864
20
-85.5093
11
97.023
21
-85.5459
0
LINE
8
Black
10
97.023
20
-85.5459
11
97.023
21
-88.5023
0
LINE
8
Black
10
97.023
20
-88.5023
11
97.0119
21
-88.5049
0
LINE
8
Black
10
97.0119
20
-88.5049
11
96.8152
21
-88.4232
0
LINE
8
Black
10
96.8152
20
-88.4232
11
96.3867
21
-88.4228
0
LINE
8
Black
10
96.3867
20
-88.4228
11
95.9907
21
-88.5864
0
LINE
8
Black
10
95.9907
20
-88.5864
11
95.8269
21
-88.75
0
LINE
8
Black
10
95.8269
20
-88.75
11
95.8028
21
-88.7387
0
LINE
8
Black
10
95.8028
20
-88.7387
11
95.6949
21
-88.7336
0
LINE
8
Black
10
95.6949
20
-88.7336
11
95.5889
21
-88.7128
0
LINE
8
Black
10
95.5889
20
-88.7128
11
92.9443
21
-88.721
0
LINE
8
Black
10
92.9443
20
-88.721
11
92.9109
21
-88.6875
0
LINE
8
Black
10
92.9109
20
-88.6875
11
92.5152
21
-88.5232
0
LINE
8
Black
10
92.5152
20
-88.5232
11
92.0867
21
-88.5228
0
LINE
8
Black
10
92.0867
20
-88.5228
11
91.6907
21
-88.6864
0
LINE
8
Black
10
91.6907
20
-88.6864
11
91.3875
21
-88.9891
0
LINE
8
Black
10
91.3875
20
-88.9891
11
91.2232
21
-89.3848
0
LINE
8
Black
10
91.2232
20
-89.3848
11
91.2228
21
-89.8133
0
LINE
8
Black
10
91.2228
20
-89.8133
11
91.3864
21
-90.2093
0
LINE
8
Black
10
91.3864
20
-90.2093
11
91.6891
21
-90.5125
0
LINE
8
Black
10
91.6891
20
-90.5125
11
92.0848
21
-90.6768
0
LINE
8
Black
10
92.0848
20
-90.6768
11
92.5133
21
-90.6772
0
LINE
8
Black
10
92.5133
20
-90.6772
11
92.9093
21
-90.5136
0
LINE
8
Black
10
92.9093
20
-90.5136
11
92.9479
21
-90.475
0
LINE
8
Black
10
92.9479
20
-90.475
11
95.0969
21
-90.4684
0
LINE
8
Black
10
95.0969
20
-90.4684
11
95.4487
21
-91.0525
0
LINE
8
Black
10
95.4487
20
-91.0525
11
95.5206
21
-91.1314
0
LINE
8
Black
10
95.5206
20
-91.1314
11
95.5799
21
-91.2201
0
LINE
8
Black
10
95.5799
20
-91.2201
11
95.6347
21
-91.2568
0
LINE
8
Black
10
95.6347
20
-91.2568
11
95.6791
21
-91.3055
0
LINE
8
Black
10
95.6791
20
-91.3055
11
95.7757
21
-91.351
0
LINE
8
Black
10
95.7757
20
-91.351
11
95.8644
21
-91.4102
0
LINE
8
Black
10
95.8644
20
-91.4102
11
95.9291
21
-91.4231
0
LINE
8
Black
10
95.9291
20
-91.4231
11
95.9887
21
-91.4512
0
LINE
8
Black
10
95.9887
20
-91.4512
11
96.0953
21
-91.4562
0
LINE
8
Black
10
96.0953
20
-91.4562
11
96.2
21
-91.477
0
LINE
8
Black
10
96.2
20
-91.477
11
97.4
21
-91.477
0
LINE
8
Black
10
97.4
20
-91.477
11
97.498
21
-91.4575
0
LINE
8
Black
10
97.498
20
-91.4575
11
97.5978
21
-91.4544
0
LINE
8
Black
10
97.5978
20
-91.4544
11
97.6642
21
-91.4244
0
LINE
8
Black
10
97.6642
20
-91.4244
11
97.7356
21
-91.4102
0
LINE
8
Black
10
97.7356
20
-91.4102
11
97.8187
21
-91.3547
0
LINE
8
Black
10
97.8187
20
-91.3547
11
97.9097
21
-91.3136
0
LINE
8
Black
10
97.9097
20
-91.3136
11
99.3097
21
-90.3136
0
LINE
8
Black
10
99.3097
20
-90.3136
11
99.3466
21
-90.2744
0
LINE
8
Black
10
99.3466
20
-90.2744
11
99.3926
21
-90.2465
0
LINE
8
Black
10
99.3926
20
-90.2465
11
99.4628
21
-90.1507
0
LINE
8
Black
10
99.4628
20
-90.1507
11
99.544
21
-90.0643
0
LINE
8
Black
10
99.544
20
-90.0643
11
99.5631
21
-90.0139
0
LINE
8
Black
10
99.5631
20
-90.0139
11
99.5949
21
-89.9705
0
LINE
8
Black
10
99.5949
20
-89.9705
11
99.6231
21
-89.8552
0
LINE
8
Black
10
99.6231
20
-89.8552
11
99.6651
21
-89.7442
0
LINE
8
Black
10
99.6651
20
-89.7442
11
99.6634
21
-89.6904
0
LINE
8
Black
10
99.6634
20
-89.6904
11
99.6762
21
-89.6381
0
LINE
8
Black
10
99.6762
20
-89.6381
11
99.7485
21
-87.9748
0
LINE
8
Black
10
99.7485
20
-87.9748
11
99.8125
21
-87.9109
0
LINE
8
Black
10
99.8125
20
-87.9109
11
99.9768
21
-87.5152
0
LINE
8
Black
10
99.9768
20
-87.5152
11
99.9772
21
-87.0867
0
LINE
8
Black
10
99.9772
20
-87.0867
11
99.9772
21
-93.373
0
LINE
8
Black
10
99.9772
20
-93.373
11
90.627
21
-93.373
0
LINE
8
Black
10
90.627
20
-93.373
11
90.627
21
-75.127
0
LINE
8
Black
10
90.627
20
-75.127
11
121.873
21
-75.127
0
LINE
8
Black
10
121.873
20
-75.127
11
121.873
21
-93.373
0
LINE
8
Black
10
121.873
20
-93.373
11
119.027
21
-93.373
0
LINE
8
Black
10
119.027
20
-93.373
11
119.027
21
-77.0986
0
LINE
8
Black
10
119.027
20
-77.0986
11
118.719
21
-76.3533
0
LINE
8
Black
10
118.719
20
-76.3533
11
118.15
21
-75.7826
0
LINE
8
Black
10
118.15
20
-75.7826
11
117.405
21
-75.4734
0
LINE
8
Black
10
117.405
20
-75.4734
11
116.599
21
-75.4726
0
LINE
8
Black
10
116.599
20
-75.4726
11
115.853
21
-75.7806
0
LINE
8
Black
10
115.853
20
-75.7806
11
115.283
21
-76.3503
0
LINE
8
Black
10
115.283
20
-76.3503
11
114.973
21
-77.095
0
LINE
8
Black
10
114.973
20
-77.095
11
114.973
21
-77.9014
0
LINE
8
Black
10
114.973
20
-77.9014
11
115.281
21
-78.6467
0
LINE
8
Black
10
115.281
20
-78.6467
11
115.85
21
-79.2174
0
LINE
8
Black
10
115.85
20
-79.2174
11
116.595
21
-79.5266
0
LINE
8
Black
10
116.595
20
-79.5266
11
117.401
21
-79.5274
0
LINE
8
Black
10
117.401
20
-79.5274
11
118.147
21
-79.2194
0
LINE
8
Black
10
118.147
20
-79.2194
11
118.717
21
-78.6497
0
LINE
8
Black
10
118.717
20
-78.6497
11
119.027
21
-77.905
0
LINE
8
Black
10
119.027
20
-77.905
11
119.027
21
-77.0986
0
LINE
8
Black
10
119.027
20
-77.0986
11
119.027
21
-93.373
0
LINE
8
Black
10
119.027
20
-93.373
11
99.9772
21
-93.373
0
LINE
8
Black
10
99.9772
20
-93.373
11
99.9772
21
-87.0867
0
LINE
8
Black
10
99.9772
20
-87.0867
11
99.8136
21
-86.6907
0
LINE
8
Black
10
99.8136
20
-86.6907
11
99.5109
21
-86.3875
0
LINE
8
Black
10
99.5109
20
-86.3875
11
99.1152
21
-86.2232
0
LINE
8
Black
10
99.1152
20
-86.2232
11
98.777
21
-86.2229
0
LINE
8
Black
10
98.777
20
-86.2229
11
98.777
21
-85.5463
0
LINE
8
Black
10
98.777
20
-85.5463
11
98.8125
21
-85.5109
0
LINE
8
Black
10
98.8125
20
-85.5109
11
98.9768
21
-85.1152
0
LINE
8
Black
10
98.9768
20
-85.1152
11
98.9772
21
-84.6867
0
LINE
8
Black
10
98.9772
20
-84.6867
11
98.8136
21
-84.2907
0
LINE
8
Black
10
98.8136
20
-84.2907
11
98.5109
21
-83.9875
0
LINE
8
Black
10
98.5109
20
-83.9875
11
98.1152
21
-83.8232
0
LINE
8
Black
10
98.1152
20
-83.8232
11
97.6867
21
-83.8228
0
LINE
8
Black
10
97.6867
20
-83.8228
11
97.5274
21
-83.8887
0
LINE
8
Black
10
97.5274
20
-83.8887
11
97.5274
21
-77.0986
0
LINE
8
Black
10
97.5274
20
-77.0986
11
97.2194
21
-76.3533
0
LINE
8
Black
10
97.2194
20
-76.3533
11
96.6497
21
-75.7826
0
LINE
8
Black
10
96.6497
20
-75.7826
11
95.905
21
-75.4734
0
LINE
8
Black
10
95.905
20
-75.4734
11
95.0986
21
-75.4726
0
LINE
8
Black
10
95.0986
20
-75.4726
11
94.3533
21
-75.7806
0
LINE
8
Black
10
94.3533
20
-75.7806
11
93.7826
21
-76.3503
0
LINE
8
Black
10
93.7826
20
-76.3503
11
93.4734
21
-77.095
0
LINE
8
Black
10
93.4734
20
-77.095
11
93.4726
21
-77.9014
0
LINE
8
Black
10
93.4726
20
-77.9014
11
93.7806
21
-78.6467
0
LINE
8
Black
10
93.7806
20
-78.6467
11
94.3503
21
-79.2174
0
LINE
8
Black
10
94.3503
20
-79.2174
11
95.095
21
-79.5266
0
LINE
8
Black
10
95.095
20
-79.5266
11
95.9014
21
-79.5274
0
LINE
8
Black
10
95.9014
20
-79.5274
11
96.6467
21
-79.2194
0
LINE
8
Black
10
96.6467
20
-79.2194
11
97.2174
21
-78.6497
0
LINE
8
Black
10
97.2174
20
-78.6497
11
97.5266
21
-77.905
0
LINE
8
Black
10
97.5266
20
-77.905
11
97.5274
21
-77.0986
0
LINE
8
Black
10
97.5274
20
-77.0986
11
97.5274
21
-83.8887
0
LINE
8
Black
10
97.5274
20
-83.8887
11
97.2907
21
-83.9864
0
LINE
8
Black
10
97.2907
20
-83.9864
11
96.9875
21
-84.2891
0
LINE
8
Black
10
96.9875
20
-84.2891
11
96.8232
21
-84.6848
0
LINE
8
Black
10
96.8232
20
-84.6848
11
96.8228
21
-85.1133
0
LINE
8
Black
10
96.8228
20
-85.1133
11
96.9864
21
-85.5093
0
LINE
8
Black
10
96.9864
20
-85.5093
11
97.023
21
-85.5459
0
LINE
8
Black
10
97.023
20
-85.5459
11
97.023
21
-88.5023
0
LINE
8
Black
10
97.023
20
-88.5023
11
97.0119
21
-88.5049
0
LINE
8
Black
10
97.0119
20
-88.5049
11
96.8152
21
-88.4232
0
LINE
8
Black
10
96.8152
20
-88.4232
11
96.3867
21
-88.4228
0
LINE
8
Black
10
96.3867
20
-88.4228
11
95.9907
21
-88.5864
0
LINE
8
Black
10
95.9907
20
-88.5864
11
95.8269
21
-88.75
0
LINE
8
Black
10
95.8269
20
-88.75
11
95.8028
21
-88.7387
0
LINE
8
Black
10
95.8028
20
-88.7387
11
95.6949
21
-88.7336
0
LINE
8
Black
10
95.6949
20
-88.7336
11
95.5889
21
-88.7128
0
LINE
8
Black
10
95.5889
20
-88.7128
11
92.9443
21
-88.721
0
LINE
8
Black
10
92.9443
20
-88.721
11
92.9109
21
-88.6875
0
LINE
8
Black
10
92.9109
20
-88.6875
11
92.5152
21
-88.5232
0
LINE
8
Black
10
92.5152
20
-88.5232
11
92.0867
21
-88.5228
0
LINE
8
Black
10
92.0867
20
-88.5228
11
91.6907
21
-88.6864
0
LINE
8
Black
10
91.6907
20
-88.6864
11
91.3875
21
-88.9891
0
LINE
8
Black
10
91.3875
20
-88.9891
11
91.2232
21
-89.3848
0
LINE
8
Black
10
91.2232
20
-89.3848
11
91.2228
21
-89.8133
0
LINE
8
Black
10
91.2228
20
-89.8133
11
91.3864
21
-90.2093
0
LINE
8
Black
10
91.3864
20
-90.2093
11
91.6891
21
-90.5125
0
LINE
8
Black
10
91.6891
20
-90.5125
11
92.0848
21
-90.6768
0
LINE
8
Black
10
92.0848
20
-90.6768
11
92.5133
21
-90.6772
0
LINE
8
Black
10
92.5133
20
-90.6772
11
92.9093
21
-90.5136
0
LINE
8
Black
10
92.9093
20
-90.5136
11
92.9479
21
-90.475
0
LINE
8
Black
10
92.9479
20
-90.475
11
95.0969
21
-90.4684
0
LINE
8
Black
10
95.0969
20
-90.4684
11
95.4487
21
-91.0525
0
LINE
8
Black
10
95.4487
20
-91.0525
11
95.5206
21
-91.1314
0
LINE
8
Black
10
95.5206
20
-91.1314
11
95.5799
21
-91.2201
0
LINE
8
Black
10
95.5799
20
-91.2201
11
95.6347
21
-91.2568
0
LINE
8
Black
10
95.6347
20
-91.2568
11
95.6791
21
-91.3055
0
LINE
8
Black
10
95.6791
20
-91.3055
11
95.7757
21
-91.351
0
LINE
8
Black
10
95.7757
20
-91.351
11
95.8644
21
-91.4102
0
LINE
8
Black
10
95.8644
20
-91.4102
11
95.9291
21
-91.4231
0
LINE
8
Black
10
95.9291
20
-91.4231
11
95.9887
21
-91.4512
0
LINE
8
Black
10
95.9887
20
-91.4512
11
96.0953
21
-91.4562
0
LINE
8
Black
10
96.0953
20
-91.4562
11
96.2
21
-91.477
0
LINE
8
Black
10
96.2
20
-91.477
11
97.4
21
-91.477
0
LINE
8
Black
10
97.4
20
-91.477
11
97.498
21
-91.4575
0
LINE
8
Black
10
97.498
20
-91.4575
11
97.5978
21
-91.4544
0
LINE
8
Black
10
97.5978
20
-91.4544
11
97.6642
21
-91.4244
0
LINE
8
Black
10
97.6642
20
-91.4244
11
97.7356
21
-91.4102
0
LINE
8
Black
10
97.7356
20
-91.4102
11
97.8187
21
-91.3547
0
LINE
8
Black
10
97.8187
20
-91.3547
11
97.9097
21
-91.3136
0
LINE
8
Black
10
97.9097
20
-91.3136
11
99.3097
21
-90.3136
0
LINE
8
Black
10
99.3097
20
-90.3136
11
99.3466
21
-90.2744
0
LINE
8
Black
10
99.3466
20
-90.2744
11
99.3926
21
-90.2465
0
LINE
8
Black
10
99.3926
20
-90.2465
11
99.4628
21
-90.1507
0
LINE
8
Black
10
99.4628
20
-90.1507
11
99.544
21
-90.0643
0
LINE
8
Black
10
99.544
20
-90.0643
11
99.5631
21
-90.0139
0
LINE
8
Black
10
99.5631
20
-90.0139
11
99.5949
21
-89.9705
0
LINE
8
Black
10
99.5949
20
-89.9705
11
99.6231
21
-89.8552
0
LINE
8
Black
10
99.6231
20
-89.8552
11
99.6651
21
-89.7442
0
LINE
8
Black
10
99.6651
20
-89.7442
11
99.6634
21
-89.6904
0
LINE
8
Black
10
99.6634
20
-89.6904
11
99.6762
21
-89.6381
0
LINE
8
Black
10
99.6762
20
-89.6381
11
99.7485
21
-87.9748
0
LINE
8
Black
10
99.7485
20
-87.9748
11
99.8125
21
-87.9109
0
LINE
8
Black
10
99.8125
20
-87.9109
11
99.9768
21
-87.5152
0
LINE
8
Black
10
99.9768
20
-87.5152
11
99.9772
21
-87.0867
0
LINE
8
Black
10
99.9772
20
-87.0867
11
99.9772
21
-93.373
0
LINE
8
Black
10
99.9772
20
-93.373
11
90.627
21
-93.373
0
LINE
8
Black
10
90.627
20
-93.373
11
90.627
21
-75.127
0
LINE
8
Black
10
90.627
20
-75.127
11
121.873
21
-75.127
0
LINE
8
Black
10
121.873
20
-75.127
11
121.873
21
-93.373
0
LINE
8
Black
10
121.873
20
-72.873
11
119.027
21
-72.873
0
LINE
8
Black
10
119.027
20
-72.873
11
119.027
21
-56.5986
0
LINE
8
Black
10
119.027
20
-56.5986
11
118.719
21
-55.8533
0
LINE
8
Black
10
118.719
20
-55.8533
11
118.15
21
-55.2826
0
LINE
8
Black
10
118.15
20
-55.2826
11
117.405
21
-54.9734
0
LINE
8
Black
10
117.405
20
-54.9734
11
116.599
21
-54.9726
0
LINE
8
Black
10
116.599
20
-54.9726
11
115.853
21
-55.2806
0
LINE
8
Black
10
115.853
20
-55.2806
11
115.283
21
-55.8503
0
LINE
8
Black
10
115.283
20
-55.8503
11
114.973
21
-56.595
0
LINE
8
Black
10
114.973
20
-56.595
11
114.973
21
-57.4014
0
LINE
8
Black
10
114.973
20
-57.4014
11
115.281
21
-58.1467
0
LINE
8
Black
10
115.281
20
-58.1467
11
115.85
21
-58.7174
0
LINE
8
Black
10
115.85
20
-58.7174
11
116.595
21
-59.0266
0
LINE
8
Black
10
116.595
20
-59.0266
11
117.401
21
-59.0274
0
LINE
8
Black
10
117.401
20
-59.0274
11
118.147
21
-58.7194
0
LINE
8
Black
10
118.147
20
-58.7194
11
118.717
21
-58.1497
0
LINE
8
Black
10
118.717
20
-58.1497
11
119.027
21
-57.405
0
LINE
8
Black
10
119.027
20
-57.405
11
119.027
21
-56.5986
0
LINE
8
Black
10
119.027
20
-56.5986
11
119.027
21
-72.873
0
LINE
8
Black
10
119.027
20
-72.873
11
99.9772
21
-72.873
0
LINE
8
Black
10
99.9772
20
-72.873
11
99.9772
21
-66.5867
0
LINE
8
Black
10
99.9772
20
-66.5867
11
99.8136
21
-66.1907
0
LINE
8
Black
10
99.8136
20
-66.1907
11
99.5109
21
-65.8875
0
LINE
8
Black
10
99.5109
20
-65.8875
11
99.1152
21
-65.7232
0
LINE
8
Black
10
99.1152
20
-65.7232
11
98.777
21
-65.7229
0
LINE
8
Black
10
98.777
20
-65.7229
11
98.777
21
-65.0463
0
LINE
8
Black
10
98.777
20
-65.0463
11
98.8125
21
-65.0109
0
LINE
8
Black
10
98.8125
20
-65.0109
11
98.9768
21
-64.6152
0
LINE
8
Black
10
98.9768
20
-64.6152
11
98.9772
21
-64.1867
0
LINE
8
Black
10
98.9772
20
-64.1867
11
98.8136
21
-63.7907
0
LINE
8
Black
10
98.8136
20
-63.7907
11
98.5109
21
-63.4875
0
LINE
8
Black
10
98.5109
20
-63.4875
11
98.1152
21
-63.3232
0
LINE
8
Black
10
98.1152
20
-63.3232
11
97.6867
21
-63.3228
0
LINE
8
Black
10
97.6867
20
-63.3228
11
97.5274
21
-63.3887
0
LINE
8
Black
10
97.5274
20
-63.3887
11
97.5274
21
-56.5986
0
LINE
8
Black
10
97.5274
20
-56.5986
11
97.2194
21
-55.8533
0
LINE
8
Black
10
97.2194
20
-55.8533
11
96.6497
21
-55.2826
0
LINE
8
Black
10
96.6497
20
-55.2826
11
95.905
21
-54.9734
0
LINE
8
Black
10
95.905
20
-54.9734
11
95.0986
21
-54.9726
0
LINE
8
Black
10
95.0986
20
-54.9726
11
94.3533
21
-55.2806
0
LINE
8
Black
10
94.3533
20
-55.2806
11
93.7826
21
-55.8503
0
LINE
8
Black
10
93.7826
20
-55.8503
11
93.4734
21
-56.595
0
LINE
8
Black
10
93.4734
20
-56.595
11
93.4726
21
-57.4014
0
LINE
8
Black
10
93.4726
20
-57.4014
11
93.7806
21
-58.1467
0
LINE
8
Black
10
93.7806
20
-58.1467
11
94.3503
21
-58.7174
0
LINE
8
Black
10
94.3503
20
-58.7174
11
95.095
21
-59.0266
0
LINE
8
Black
10
95.095
20
-59.0266
11
95.9014
21
-59.0274
0
LINE
8
Black
10
95.9014
20
-59.0274
11
96.6467
21
-58.7194
0
LINE
8
Black
10
96.6467
20
-58.7194
11
97.2174
21
-58.1497
0
LINE
8
Black
10
97.2174
20
-58.1497
11
97.5266
21
-57.405
0
LINE
8
Black
10
97.5266
20
-57.405
11
97.5274
21
-56.5986
0
LINE
8
Black
10
97.5274
20
-56.5986
11
97.5274
21
-63.3887
0
LINE
8
Black
10
97.5274
20
-63.3887
11
97.2907
21
-63.4864
0
LINE
8
Black
10
97.2907
20
-63.4864
11
96.9875
21
-63.7891
0
LINE
8
Black
10
96.9875
20
-63.7891
11
96.8232
21
-64.1848
0
LINE
8
Black
10
96.8232
20
-64.1848
11
96.8228
21
-64.6133
0
LINE
8
Black
10
96.8228
20
-64.6133
11
96.9864
21
-65.0093
0
LINE
8
Black
10
96.9864
20
-65.0093
11
97.023
21
-65.0459
0
LINE
8
Black
10
97.023
20
-65.0459
11
97.023
21
-68.0023
0
LINE
8
Black
10
97.023
20
-68.0023
11
97.0119
21
-68.0049
0
LINE
8
Black
10
97.0119
20
-68.0049
11
96.8152
21
-67.9232
0
LINE
8
Black
10
96.8152
20
-67.9232
11
96.3867
21
-67.9228
0
LINE
8
Black
10
96.3867
20
-67.9228
11
95.9907
21
-68.0864
0
LINE
8
Black
10
95.9907
20
-68.0864
11
95.8269
21
-68.25
0
LINE
8
Black
10
95.8269
20
-68.25
11
95.8028
21
-68.2387
0
LINE
8
Black
10
95.8028
20
-68.2387
11
95.6949
21
-68.2336
0
LINE
8
Black
10
95.6949
20
-68.2336
11
95.5889
21
-68.2128
0
LINE
8
Black
10
95.5889
20
-68.2128
11
92.9443
21
-68.221
0
LINE
8
Black
10
92.9443
20
-68.221
11
92.9109
21
-68.1875
0
LINE
8
Black
10
92.9109
20
-68.1875
11
92.5152
21
-68.0232
0
LINE
8
Black
10
92.5152
20
-68.0232
11
92.0867
21
-68.0228
0
LINE
8
Black
10
92.0867
20
-68.0228
11
91.6907
21
-68.1864
0
LINE
8
Black
10
91.6907
20
-68.1864
11
91.3875
21
-68.4891
0
LINE
8
Black
10
91.3875
20
-68.4891
11
91.2232
21
-68.8848
0
LINE
8
Black
10
91.2232
20
-68.8848
11
91.2228
21
-69.3133
0
LINE
8
Black
10
91.2228
20
-69.3133
11
91.3864
21
-69.7093
0
LINE
8
Black
10
91.3864
20
-69.7093
11
91.6891
21
-70.0125
0
LINE
8
Black
10
91.6891
20
-70.0125
11
92.0848
21
-70.1768
0
LINE
8
Black
10
92.0848
20
-70.1768
11
92.5133
21
-70.1772
0
LINE
8
Black
10
92.5133
20
-70.1772
11
92.9093
21
-70.0136
0
LINE
8
Black
10
92.9093
20
-70.0136
11
92.9479
21
-69.975
0
LINE
8
Black
10
92.9479
20
-69.975
11
95.0969
21
-69.9684
0
LINE
8
Black
10
95.0969
20
-69.9684
11
95.4487
21
-70.5525
0
LINE
8
Black
10
95.4487
20
-70.5525
11
95.5206
21
-70.6314
0
LINE
8
Black
10
95.5206
20
-70.6314
11
95.5799
21
-70.7201
0
LINE
8
Black
10
95.5799
20
-70.7201
11
95.6347
21
-70.7568
0
LINE
8
Black
10
95.6347
20
-70.7568
11
95.6791
21
-70.8055
0
LINE
8
Black
10
95.6791
20
-70.8055
11
95.7757
21
-70.851
0
LINE
8
Black
10
95.7757
20
-70.851
11
95.8644
21
-70.9102
0
LINE
8
Black
10
95.8644
20
-70.9102
11
95.9291
21
-70.9231
0
LINE
8
Black
10
95.9291
20
-70.9231
11
95.9887
21
-70.9512
0
LINE
8
Black
10
95.9887
20
-70.9512
11
96.0953
21
-70.9562
0
LINE
8
Black
10
96.0953
20
-70.9562
11
96.2
21
-70.977
0
LINE
8
Black
10
96.2
20
-70.977
11
97.4
21
-70.977
0
LINE
8
Black
10
97.4
20
-70.977
11
97.498
21
-70.9575
0
LINE
8
Black
10
97.498
20
-70.9575
11
97.5978
21
-70.9544
0
LINE
8
Black
10
97.5978
20
-70.9544
11
97.6642
21
-70.9244
0
LINE
8
Black
10
97.6642
20
-70.9244
11
97.7356
21
-70.9102
0
LINE
8
Black
10
97.7356
20
-70.9102
11
97.8187
21
-70.8547
0
LINE
8
Black
10
97.8187
20
-70.8547
11
97.9097
21
-70.8136
0
LINE
8
Black
10
97.9097
20
-70.8136
11
99.3097
21
-69.8136
0
LINE
8
Black
10
99.3097
20
-69.8136
11
99.3466
21
-69.7744
0
LINE
8
Black
10
99.3466
20
-69.7744
11
99.3926
21
-69.7465
0
LINE
8
Black
10
99.3926
20
-69.7465
11
99.4628
21
-69.6507
0
LINE
8
Black
10
99.4628
20
-69.6507
11
99.544
21
-69.5643
0
LINE
8
Black
10
99.544
20
-69.5643
11
99.5631
21
-69.5139
0
LINE
8
Black
10
99.5631
20
-69.5139
11
99.5949
21
-69.4705
0
LINE
8
Black
10
99.5949
20
-69.4705
11
99.6231
21
-69.3552
0
LINE
8
Black
10
99.6231
20
-69.3552
11
99.6651
21
-69.2442
0
LINE
8
Black
10
99.6651
20
-69.2442
11
99.6634
21
-69.1904
0
LINE
8
Black
10
99.6634
20
-69.1904
11
99.6762
21
-69.1381
0
LINE
8
Black
10
99.6762
20
-69.1381
11
99.7485
21
-67.4748
0
LINE
8
Black
10
99.7485
20
-67.4748
11
99.8125
21
-67.4109
0
LINE
8
Black
10
99.8125
20
-67.4109
11
99.9768
21
-67.0152
0
LINE
8
Black
10
99.9768
20
-67.0152
11
99.9772
21
-66.5867
0
LINE
8
Black
10
99.9772
20
-66.5867
11
99.9772
21
-72.873
0
LINE
8
Black
10
99.9772
20
-72.873
11
90.627
21
-72.873
0
LINE
8
Black
10
90.627
20
-72.873
11
90.627
21
-54.627
0
LINE
8
Black
10
90.627
20
-54.627
11
121.873
21
-54.627
0
LINE
8
Black
10
121.873
20
-54.627
11
121.873
21
-72.873
0
LINE
8
Black
10
121.873
20
-72.873
11
119.027
21
-72.873
0
LINE
8
Black
10
119.027
20
-72.873
11
119.027
21
-56.5986
0
LINE
8
Black
10
119.027
20
-56.5986
11
118.719
21
-55.8533
0
LINE
8
Black
10
118.719
20
-55.8533
11
118.15
21
-55.2826
0
LINE
8
Black
10
118.15
20
-55.2826
11
117.405
21
-54.9734
0
LINE
8
Black
10
117.405
20
-54.9734
11
116.599
21
-54.9726
0
LINE
8
Black
10
116.599
20
-54.9726
11
115.853
21
-55.2806
0
LINE
8
Black
10
115.853
20
-55.2806
11
115.283
21
-55.8503
0
LINE
8
Black
10
115.283
20
-55.8503
11
114.973
21
-56.595
0
LINE
8
Black
10
114.973
20
-56.595
11
114.973
21
-57.4014
0
LINE
8
Black
10
114.973
20
-57.4014
11
115.281
21
-58.1467
0
LINE
8
Black
10
115.281
20
-58.1467
11
115.85
21
-58.7174
0
LINE
8
Black
10
115.85
20
-58.7174
11
116.595
21
-59.0266
0
LINE
8
Black
10
116.595
20
-59.0266
11
117.401
21
-59.0274
0
LINE
8
Black
10
117.401
20
-59.0274
11
118.147
21
-58.7194
0
LINE
8
Black
10
118.147
20
-58.7194
11
118.717
21
-58.1497
0
LINE
8
Black
10
118.717
20
-58.1497
11
119.027
21
-57.405
0
LINE
8
Black
10
119.027
20
-57.405
11
119.027
21
-56.5986
0
LINE
8
Black
10
119.027
20
-56.5986
11
119.027
21
-72.873
0
LINE
8
Black
10
119.027
20
-72.873
11
99.9772
21
-72.873
0
LINE
8
Black
10
99.9772
20
-72.873
11
99.9772
21
-66.5867
0
LINE
8
Black
10
99.9772
20
-66.5867
11
99.8136
21
-66.1907
0
LINE
8
Black
10
99.8136
20
-66.1907
11
99.5109
21
-65.8875
0
LINE
8
Black
10
99.5109
20
-65.8875
11
99.1152
21
-65.7232
0
LINE
8
Black
10
99.1152
20
-65.7232
11
98.777
21
-65.7229
0
LINE
8
Black
10
98.777
20
-65.7229
11
98.777
21
-65.0463
0
LINE
8
Black
10
98.777
20
-65.0463
11
98.8125
21
-65.0109
0
LINE
8
Black
10
98.8125
20
-65.0109
11
98.9768
21
-64.6152
0
LINE
8
Black
10
98.9768
20
-64.6152
11
98.9772
21
-64.1867
0
LINE
8
Black
10
98.9772
20
-64.1867
11
98.8136
21
-63.7907
0
LINE
8
Black
10
98.8136
20
-63.7907
11
98.5109
21
-63.4875
0
LINE
8
Black
10
98.5109
20
-63.4875
11
98.1152
21
-63.3232
0
LINE
8
Black
10
98.1152
20
-63.3232
11
97.6867
21
-63.3228
0
LINE
8
Black
10
97.6867
20
-63.3228
11
97.5274
21
-63.3887
0
LINE
8
Black
10
97.5274
20
-63.3887
11
97.5274
21
-56.5986
0
LINE
8
Black
10
97.5274
20
-56.5986
11
97.2194
21
-55.8533
0
LINE
8
Black
10
97.2194
20
-55.8533
11
96.6497
21
-55.2826
0
LINE
8
Black
10
96.6497
20
-55.2826
11
95.905
21
-54.9734
0
LINE
8
Black
10
95.905
20
-54.9734
11
95.0986
21
-54.9726
0
LINE
8
Black
10
95.0986
20
-54.9726
11
94.3533
21
-55.2806
0
LINE
8
Black
10
94.3533
20
-55.2806
11
93.7826
21
-55.8503
0
LINE
8
Black
10
93.7826
20
-55.8503
11
93.4734
21
-56.595
0
LINE
8
Black
10
93.4734
20
-56.595
11
93.4726
21
-57.4014
0
LINE
8
Black
10
93.4726
20
-57.4014
11
93.7806
21
-58.1467
0
LINE
8
Black
10
93.7806
20
-58.1467
11
94.3503
21
-58.7174
0
LINE
8
Black
10
94.3503
20
-58.7174
11
95.095
21
-59.0266
0
LINE
8
Black
10
95.095
20
-59.0266
11
95.9014
21
-59.0274
0
LINE
8
Black
10
95.9014
20
-59.0274
11
96.6467
21
-58.7194
0
LINE
8
Black
10
96.6467
20
-58.7194
11
97.2174
21
-58.1497
0
LINE
8
Black
10
97.2174
20
-58.1497
11
97.5266
21
-57.405
0
LINE
8
Black
10
97.5266
20
-57.405
11
97.5274
21
-56.5986
0
LINE
8
Black
10
97.5274
20
-56.5986
11
97.5274
21
-63.3887
0
LINE
8
Black
10
97.5274
20
-63.3887
11
97.2907
21
-63.4864
0
LINE
8
Black
10
97.2907
20
-63.4864
11
96.9875
21
-63.7891
0
LINE
8
Black
10
96.9875
20
-63.7891
11
96.8232
21
-64.1848
0
LINE
8
Black
10
96.8232
20
-64.1848
11
96.8228
21
-64.6133
0
LINE
8
Black
10
96.8228
20
-64.6133
11
96.9864
21
-65.0093
0
LINE
8
Black
10
96.9864
20
-65.0093
11
97.023
21
-65.0459
0
LINE
8
Black
10
97.023
20
-65.0459
11
97.023
21
-68.0023
0
LINE
8
Black
10
97.023
20
-68.0023
11
97.0119
21
-68.0049
0
LINE
8
Black
10
97.0119
20
-68.0049
11
96.8152
21
-67.9232
0
LINE
8
Black
10
96.8152
20
-67.9232
11
96.3867
21
-67.9228
0
LINE
8
Black
10
96.3867
20
-67.9228
11
95.9907
21
-68.0864
0
LINE
8
Black
10
95.9907
20
-68.0864
11
95.8269
21
-68.25
0
LINE
8
Black
10
95.8269
20
-68.25
11
95.8028
21
-68.2387
0
LINE
8
Black
10
95.8028
20
-68.2387
11
95.6949
21
-68.2336
0
LINE
8
Black
10
95.6949
20
-68.2336
11
95.5889
21
-68.2128
0
LINE
8
Black
10
95.5889
20
-68.2128
11
92.9443
21
-68.221
0
LINE
8
Black
10
92.9443
20
-68.221
11
92.9109
21
-68.1875
0
LINE
8
Black
10
92.9109
20
-68.1875
11
92.5152
21
-68.0232
0
LINE
8
Black
10
92.5152
20
-68.0232
11
92.0867
21
-68.0228
0
LINE
8
Black
10
92.0867
20
-68.0228
11
91.6907
21
-68.1864
0
LINE
8
Black
10
91.6907
20
-68.1864
11
91.3875
21
-68.4891
0
LINE
8
Black
10
91.3875
20
-68.4891
11
91.2232
21
-68.8848
0
LINE
8
Black
10
91.2232
20
-68.8848
11
91.2228
21
-69.3133
0
LINE
8
Black
10
91.2228
20
-69.3133
11
91.3864
21
-69.7093
0
LINE
8
Black
10
91.3864
20
-69.7093
11
91.6891
21
-70.0125
0
LINE
8
Black
10
91.6891
20
-70.0125
11
92.0848
21
-70.1768
0
LINE
8
Black
10
92.0848
20
-70.1768
11
92.5133
21
-70.1772
0
LINE
8
Black
10
92.5133
20
-70.1772
11
92.9093
21
-70.0136
0
LINE
8
Black
10
92.9093
20
-70.0136
11
92.9479
21
-69.975
0
LINE
8
Black
10
92.9479
20
-69.975
11
95.0969
21
-69.9684
0
LINE
8
Black
10
95.0969
20
-69.9684
11
95.4487
21
-70.5525
0
LINE
8
Black
10
95.4487
20
-70.5525
11
95.5206
21
-70.6314
0
LINE
8
Black
10
95.5206
20
-70.6314
11
95.5799
21
-70.7201
0
LINE
8
Black
10
95.5799
20
-70.7201
11
95.6347
21
-70.7568
0
LINE
8
Black
10
95.6347
20
-70.7568
11
95.6791
21
-70.8055
0
LINE
8
Black
10
95.6791
20
-70.8055
11
95.7757
21
-70.851
0
LINE
8
Black
10
95.7757
20
-70.851
11
95.8644
21
-70.9102
0
LINE
8
Black
10
95.8644
20
-70.9102
11
95.9291
21
-70.9231
0
LINE
8
Black
10
95.9291
20
-70.9231
11
95.9887
21
-70.9512
0
LINE
8
Black
10
95.9887
20
-70.9512
11
96.0953
21
-70.9562
0
LINE
8
Black
10
96.0953
20
-70.9562
11
96.2
21
-70.977
0
LINE
8
Black
10
96.2
20
-70.977
11
97.4
21
-70.977
0
LINE
8
Black
10
97.4
20
-70.977
11
97.498
21
-70.9575
0
LINE
8
Black
10
97.498
20
-70.9575
11
97.5978
21
-70.9544
0
LINE
8
Black
10
97.5978
20
-70.9544
11
97.6642
21
-70.9244
0
LINE
8
Black
10
97.6642
20
-70.9244
11
97.7356
21
-70.9102
0
LINE
8
Black
10
97.7356
20
-70.9102
11
97.8187
21
-70.8547
0
LINE
8
Black
10
97.8187
20
-70.8547
11
97.9097
21
-70.8136
0
LINE
8
Black
10
97.9097
20
-70.8136
11
99.3097
21
-69.8136
0
LINE
8
Black
10
99.3097
20
-69.8136
11
99.3466
21
-69.7744
0
LINE
8
Black
10
99.3466
20
-69.7744
11
99.3926
21
-69.7465
0
LINE
8
Black
10
99.3926
20
-69.7465
11
99.4628
21
-69.6507
0
LINE
8
Black
10
99.4628
20
-69.6507
11
99.544
21
-69.5643
0
LINE
8
Black
10
99.544
20
-69.5643
11
99.5631
21
-69.5139
0
LINE
8
Black
10
99.5631
20
-69.5139
11
99.5949
21
-69.4705
0
LINE
8
Black
10
99.5949
20
-69.4705
11
99.6231
21
-69.3552
0
LINE
8
Black
10
99.6231
20
-69.3552
11
99.6651
21
-69.2442
0
LINE
8
Black
10
99.6651
20
-69.2442
11
99.6634
21
-69.1904
0
LINE
8
Black
10
99.6634
20
-69.1904
11
99.6762
21
-69.1381
0
LINE
8
Black
10
99.6762
20
-69.1381
11
99.7485
21
-67.4748
0
LINE
8
Black
10
99.7485
20
-67.4748
11
99.8125
21
-67.4109
0
LINE
8
Black
10
99.8125
20
-67.4109
11
99.9768
21
-67.0152
0
LINE
8
Black
10
99.9768
20
-67.0152
11
99.9772
21
-66.5867
0
LINE
8
Black
10
99.9772
20
-66.5867
11
99.9772
21
-72.873
0
LINE
8
Black
10
99.9772
20
-72.873
11
90.627
21
-72.873
0
LINE
8
Black
10
90.627
20
-72.873
11
90.627
21
-54.627
0
LINE
8
Black
10
90.627
20
-54.627
11
121.873
21
-54.627
0
LINE
8
Black
10
121.873
20
-54.627
11
121.873
21
-72.873
0
LINE
8
Black
10
121.873
20
-52.373
11
119.027
21
-52.373
0
LINE
8
Black
10
119.027
20
-52.373
11
119.027
21
-36.0986
0
LINE
8
Black
10
119.027
20
-36.0986
11
118.719
21
-35.3533
0
LINE
8
Black
10
118.719
20
-35.3533
11
118.15
21
-34.7826
0
LINE
8
Black
10
118.15
20
-34.7826
11
117.405
21
-34.4734
0
LINE
8
Black
10
117.405
20
-34.4734
11
116.599
21
-34.4726
0
LINE
8
Black
10
116.599
20
-34.4726
11
115.853
21
-34.7806
0
LINE
8
Black
10
115.853
20
-34.7806
11
115.283
21
-35.3503
0
LINE
8
Black
10
115.283
20
-35.3503
11
114.973
21
-36.095
0
LINE
8
Black
10
114.973
20
-36.095
11
114.973
21
-36.9014
0
LINE
8
Black
10
114.973
20
-36.9014
11
115.281
21
-37.6467
0
LINE
8
Black
10
115.281
20
-37.6467
11
115.85
21
-38.2174
0
LINE
8
Black
10
115.85
20
-38.2174
11
116.595
21
-38.5266
0
LINE
8
Black
10
116.595
20
-38.5266
11
117.401
21
-38.5274
0
LINE
8
Black
10
117.401
20
-38.5274
11
118.147
21
-38.2194
0
LINE
8
Black
10
118.147
20
-38.2194
11
118.717
21
-37.6497
0
LINE
8
Black
10
118.717
20
-37.6497
11
119.027
21
-36.905
0
LINE
8
Black
10
119.027
20
-36.905
11
119.027
21
-36.0986
0
LINE
8
Black
10
119.027
20
-36.0986
11
119.027
21
-52.373
0
LINE
8
Black
10
119.027
20
-52.373
11
99.9772
21
-52.373
0
LINE
8
Black
10
99.9772
20
-52.373
11
99.9772
21
-46.0867
0
LINE
8
Black
10
99.9772
20
-46.0867
11
99.8136
21
-45.6907
0
LINE
8
Black
10
99.8136
20
-45.6907
11
99.5109
21
-45.3875
0
LINE
8
Black
10
99.5109
20
-45.3875
11
99.1152
21
-45.2232
0
LINE
8
Black
10
99.1152
20
-45.2232
11
98.777
21
-45.2229
0
LINE
8
Black
10
98.777
20
-45.2229
11
98.777
21
-44.5463
0
LINE
8
Black
10
98.777
20
-44.5463
11
98.8125
21
-44.5109
0
LINE
8
Black
10
98.8125
20
-44.5109
11
98.9768
21
-44.1152
0
LINE
8
Black
10
98.9768
20
-44.1152
11
98.9772
21
-43.6867
0
LINE
8
Black
10
98.9772
20
-43.6867
11
98.8136
21
-43.2907
0
LINE
8
Black
10
98.8136
20
-43.2907
11
98.5109
21
-42.9875
0
LINE
8
Black
10
98.5109
20
-42.9875
11
98.1152
21
-42.8232
0
LINE
8
Black
10
98.1152
20
-42.8232
11
97.6867
21
-42.8228
0
LINE
8
Black
10
97.6867
20
-42.8228
11
97.5274
21
-42.8887
0
LINE
8
Black
10
97.5274
20
-42.8887
11
97.5274
21
-36.0986
0
LINE
8
Black
10
97.5274
20
-36.0986
11
97.2194
21
-35.3533
0
LINE
8
Black
10
97.2194
20
-35.3533
11
96.6497
21
-34.7826
0
LINE
8
Black
10
96.6497
20
-34.7826
11
95.905
21
-34.4734
0
LINE
8
Black
10
95.905
20
-34.4734
11
95.0986
21
-34.4726
0
LINE
8
Black
10
95.0986
20
-34.4726
11
94.3533
21
-34.7806
0
LINE
8
Black
10
94.3533
20
-34.7806
11
93.7826
21
-35.3503
0
LINE
8
Black
10
93.7826
20
-35.3503
11
93.4734
21
-36.095
0
LINE
8
Black
10
93.4734
20
-36.095
11
93.4726
21
-36.9014
0
LINE
8
Black
10
93.4726
20
-36.9014
11
93.7806
21
-37.6467
0
LINE
8
Black
10
93.7806
20
-37.6467
11
94.3503
21
-38.2174
0
LINE
8
Black
10
94.3503
20
-38.2174
11
95.095
21
-38.5266
0
LINE
8
Black
10
95.095
20
-38.5266
11
95.9014
21
-38.5274
0
LINE
8
Black
10
95.9014
20
-38.5274
11
96.6467
21
-38.2194
0
LINE
8
Black
10
96.6467
20
-38.2194
11
97.2174
21
-37.6497
0
LINE
8
Black
10
97.2174
20
-37.6497
11
97.5266
21
-36.905
0
LINE
8
Black
10
97.5266
20
-36.905
11
97.5274
21
-36.0986
0
LINE
8
Black
10
97.5274
20
-36.0986
11
97.5274
21
-42.8887
0
LINE
8
Black
10
97.5274
20
-42.8887
11
97.2907
21
-42.9864
0
LINE
8
Black
10
97.2907
20
-42.9864
11
96.9875
21
-43.2891
0
LINE
8
Black
10
96.9875
20
-43.2891
11
96.8232
21
-43.6848
0
LINE
8
Black
10
96.8232
20
-43.6848
11
96.8228
21
-44.1133
0
LINE
8
Black
10
96.8228
20
-44.1133
11
96.9864
21
-44.5093
0
LINE
8
Black
10
96.9864
20
-44.5093
11
97.023
21
-44.5459
0
LINE
8
Black
10
97.023
20
-44.5459
11
97.023
21
-47.5023
0
LINE
8
Black
10
97.023
20
-47.5023
11
97.0119
21
-47.5049
0
LINE
8
Black
10
97.0119
20
-47.5049
11
96.8152
21
-47.4232
0
LINE
8
Black
10
96.8152
20
-47.4232
11
96.3867
21
-47.4228
0
LINE
8
Black
10
96.3867
20
-47.4228
11
95.9907
21
-47.5864
0
LINE
8
Black
10
95.9907
20
-47.5864
11
95.8269
21
-47.75
0
LINE
8
Black
10
95.8269
20
-47.75
11
95.8028
21
-47.7387
0
LINE
8
Black
10
95.8028
20
-47.7387
11
95.6949
21
-47.7336
0
LINE
8
Black
10
95.6949
20
-47.7336
11
95.5889
21
-47.7128
0
LINE
8
Black
10
95.5889
20
-47.7128
11
92.9443
21
-47.721
0
LINE
8
Black
10
92.9443
20
-47.721
11
92.9109
21
-47.6875
0
LINE
8
Black
10
92.9109
20
-47.6875
11
92.5152
21
-47.5232
0
LINE
8
Black
10
92.5152
20
-47.5232
11
92.0867
21
-47.5228
0
LINE
8
Black
10
92.0867
20
-47.5228
11
91.6907
21
-47.6864
0
LINE
8
Black
10
91.6907
20
-47.6864
11
91.3875
21
-47.9891
0
LINE
8
Black
10
91.3875
20
-47.9891
11
91.2232
21
-48.3848
0
LINE
8
Black
10
91.2232
20
-48.3848
11
91.2228
21
-48.8133
0
LINE
8
Black
10
91.2228
20
-48.8133
11
91.3864
21
-49.2093
0
LINE
8
Black
10
91.3864
20
-49.2093
11
91.6891
21
-49.5125
0
LINE
8
Black
10
91.6891
20
-49.5125
11
92.0848
21
-49.6768
0
LINE
8
Black
10
92.0848
20
-49.6768
11
92.5133
21
-49.6772
0
LINE
8
Black
10
92.5133
20
-49.6772
11
92.9093
21
-49.5136
0
LINE
8
Black
10
92.9093
20
-49.5136
11
92.9479
21
-49.475
0
LINE
8
Black
10
92.9479
20
-49.475
11
95.0969
21
-49.4684
0
LINE
8
Black
10
95.0969
20
-49.4684
11
95.4487
21
-50.0525
0
LINE
8
Black
10
95.4487
20
-50.0525
11
95.5206
21
-50.1314
0
LINE
8
Black
10
95.5206
20
-50.1314
11
95.5799
21
-50.2201
0
LINE
8
Black
10
95.5799
20
-50.2201
11
95.6347
21
-50.2568
0
LINE
8
Black
10
95.6347
20
-50.2568
11
95.6791
21
-50.3055
0
LINE
8
Black
10
95.6791
20
-50.3055
11
95.7757
21
-50.351
0
LINE
8
Black
10
95.7757
20
-50.351
11
95.8644
21
-50.4102
0
LINE
8
Black
10
95.8644
20
-50.4102
11
95.9291
21
-50.4231
0
LINE
8
Black
10
95.9291
20
-50.4231
11
95.9887
21
-50.4512
0
LINE
8
Black
10
95.9887
20
-50.4512
11
96.0953
21
-50.4562
0
LINE
8
Black
10
96.0953
20
-50.4562
11
96.2
21
-50.477
0
LINE
8
Black
10
96.2
20
-50.477
11
97.4
21
-50.477
0
LINE
8
Black
10
97.4
20
-50.477
11
97.498
21
-50.4575
0
LINE
8
Black
10
97.498
20
-50.4575
11
97.5978
21
-50.4544
0
LINE
8
Black
10
97.5978
20
-50.4544
11
97.6642
21
-50.4244
0
LINE
8
Black
10
97.6642
20
-50.4244
11
97.7356
21
-50.4102
0
LINE
8
Black
10
97.7356
20
-50.4102
11
97.8187
21
-50.3547
0
LINE
8
Black
10
97.8187
20
-50.3547
11
97.9097
21
-50.3136
0
LINE
8
Black
10
97.9097
20
-50.3136
11
99.3097
21
-49.3136
0
LINE
8
Black
10
99.3097
20
-49.3136
11
99.3466
21
-49.2744
0
LINE
8
Black
10
99.3466
20
-49.2744
11
99.3926
21
-49.2465
0
LINE
8
Black
10
99.3926
20
-49.2465
11
99.4628
21
-49.1507
0
LINE
8
Black
10
99.4628
20
-49.1507
11
99.544
21
-49.0643
0
LINE
8
Black
10
99.544
20
-49.0643
11
99.5631
21
-49.0139
0
LINE
8
Black
10
99.5631
20
-49.0139
11
99.5949
21
-48.9705
0
LINE
8
Black
10
99.5949
20
-48.9705
11
99.6231
21
-48.8552
0
LINE
8
Black
10
99.6231
20
-48.8552
11
99.6651
21
-48.7442
0
LINE
8
Black
10
99.6651
20
-48.7442
11
99.6634
21
-48.6904
0
LINE
8
Black
10
99.6634
20
-48.6904
11
99.6762
21
-48.6381
0
LINE
8
Black
10
99.6762
20
-48.6381
11
99.7485
21
-46.9748
0
LINE
8
Black
10
99.7485
20
-46.9748
11
99.8125
21
-46.9109
0
LINE
8
Black
10
99.8125
20
-46.9109
11
99.9768
21
-46.5152
0
LINE
8
Black
10
99.9768
20
-46.5152
11
99.9772
21
-46.0867
0
LINE
8
Black
10
99.9772
20
-46.0867
11
99.9772
21
-52.373
0
LINE
8
Black
10
99.9772
20
-52.373
11
90.627
21
-52.373
0
LINE
8
Black
10
90.627
20
-52.373
11
90.627
21
-34.127
0
LINE
8
Black
10
90.627
20
-34.127
11
121.873
21
-34.127
0
LINE
8
Black
10
121.873
20
-34.127
11
121.873
21
-52.373
0
LINE
8
Black
10
121.873
20
-52.373
11
119.027
21
-52.373
0
LINE
8
Black
10
119.027
20
-52.373
11
119.027
21
-36.0986
0
LINE
8
Black
10
119.027
20
-36.0986
11
118.719
21
-35.3533
0
LINE
8
Black
10
118.719
20
-35.3533
11
118.15
21
-34.7826
0
LINE
8
Black
10
118.15
20
-34.7826
11
117.405
21
-34.4734
0
LINE
8
Black
10
117.405
20
-34.4734
11
116.599
21
-34.4726
0
LINE
8
Black
10
116.599
20
-34.4726
11
115.853
21
-34.7806
0
LINE
8
Black
10
115.853
20
-34.7806
11
115.283
21
-35.3503
0
LINE
8
Black
10
115.283
20
-35.3503
11
114.973
21
-36.095
0
LINE
8
Black
10
114.973
20
-36.095
11
114.973
21
-36.9014
0
LINE
8
Black
10
114.973
20
-36.9014
11
115.281
21
-37.6467
0
LINE
8
Black
10
115.281
20
-37.6467
11
115.85
21
-38.2174
0
LINE
8
Black
10
115.85
20
-38.2174
11
116.595
21
-38.5266
0
LINE
8
Black
10
116.595
20
-38.5266
11
117.401
21
-38.5274
0
LINE
8
Black
10
117.401
20
-38.5274
11
118.147
21
-38.2194
0
LINE
8
Black
10
118.147
20
-38.2194
11
118.717
21
-37.6497
0
LINE
8
Black
10
118.717
20
-37.6497
11
119.027
21
-36.905
0
LINE
8
Black
10
119.027
20
-36.905
11
119.027
21
-36.0986
0
LINE
8
Black
10
119.027
20
-36.0986
11
119.027
21
-52.373
0
LINE
8
Black
10
119.027
20
-52.373
11
99.9772
21
-52.373
0
LINE
8
Black
10
99.9772
20
-52.373
11
99.9772
21
-46.0867
0
LINE
8
Black
10
99.9772
20
-46.0867
11
99.8136
21
-45.6907
0
LINE
8
Black
10
99.8136
20
-45.6907
11
99.5109
21
-45.3875
0
LINE
8
Black
10
99.5109
20
-45.3875
11
99.1152
21
-45.2232
0
LINE
8
Black
10
99.1152
20
-45.2232
11
98.777
21
-45.2229
0
LINE
8
Black
10
98.777
20
-45.2229
11
98.777
21
-44.5463
0
LINE
8
Black
10
98.777
20
-44.5463
11
98.8125
21
-44.5109
0
LINE
8
Black
10
98.8125
20
-44.5109
11
98.9768
21
-44.1152
0
LINE
8
Black
10
98.9768
20
-44.1152
11
98.9772
21
-43.6867
0
LINE
8
Black
10
98.9772
20
-43.6867
11
98.8136
21
-43.2907
0
LINE
8
Black
10
98.8136
20
-43.2907
11
98.5109
21
-42.9875
0
LINE
8
Black
10
98.5109
20
-42.9875
11
98.1152
21
-42.8232
0
LINE
8
Black
10
98.1152
20
-42.8232
11
97.6867
21
-42.8228
0
LINE
8
Black
10
97.6867
20
-42.8228
11
97.5274
21
-42.8887
0
LINE
8
Black
10
97.5274
20
-42.8887
11
97.5274
21
-36.0986
0
LINE
8
Black
10
97.5274
20
-36.0986
11
97.2194
21
-35.3533
0
LINE
8
Black
10
97.2194
20
-35.3533
11
96.6497
21
-34.7826
0
LINE
8
Black
10
96.6497
20
-34.7826
11
95.905
21
-34.4734
0
LINE
8
Black
10
95.905
20
-34.4734
11
95.0986
21
-34.4726
0
LINE
8
Black
10
95.0986
20
-34.4726
11
94.3533
21
-34.7806
0
LINE
8
Black
10
94.3533
20
-34.7806
11
93.7826
21
-35.3503
0
LINE
8
Black
10
93.7826
20
-35.3503
11
93.4734
21
-36.095
0
LINE
8
Black
10
93.4734
20
-36.095
11
93.4726
21
-36.9014
0
LINE
8
Black
10
93.4726
20
-36.9014
11
93.7806
21
-37.6467
0
LINE
8
Black
10
93.7806
20
-37.6467
11
94.3503
21
-38.2174
0
LINE
8
Black
10
94.3503
20
-38.2174
11
95.095
21
-38.5266
0
LINE
8
Black
10
95.095
20
-38.5266
11
95.9014
21
-38.5274
0
LINE
8
Black
10
95.9014
20
-38.5274
11
96.6467
21
-38.2194
0
LINE
8
Black
10
96.6467
20
-38.2194
11
97.2174
21
-37.6497
0
LINE
8
Black
10
97.2174
20
-37.6497
11
97.5266
21
-36.905
0
LINE
8
Black
10
97.5266
20
-36.905
11
97.5274
21
-36.0986
0
LINE
8
Black
10
97.5274
20
-36.0986
11
97.5274
21
-42.8887
0
LINE
8
Black
10
97.5274
20
-42.8887
11
97.2907
21
-42.9864
0
LINE
8
Black
10
97.2907
20
-42.9864
11
96.9875
21
-43.2891
0
LINE
8
Black
10
96.9875
20
-43.2891
11
96.8232
21
-43.6848
0
LINE
8
Black
10
96.8232
20
-43.6848
11
96.8228
21
-44.1133
0
LINE
8
Black
10
96.8228
20
-44.1133
11
96.9864
21
-44.5093
0
LINE
8
Black
10
96.9864
20
-44.5093
11
97.023
21
-44.5459
0
LINE
8
Black
10
97.023
20
-44.5459
11
97.023
21
-47.5023
0
LINE
8
Black
10
97.023
20
-47.5023
11
97.0119
21
-47.5049
0
LINE
8
Black
10
97.0119
20
-47.5049
11
96.8152
21
-47.4232
0
LINE
8
Black
10
96.8152
20
-47.4232
11
96.3867
21
-47.4228
0
LINE
8
Black
10
96.3867
20
-47.4228
11
95.9907
21
-47.5864
0
LINE
8
Black
10
95.9907
20
-47.5864
11
95.8269
21
-47.75
0
LINE
8
Black
10
95.8269
20
-47.75
11
95.8028
21
-47.7387
0
LINE
8
Black
10
95.8028
20
-47.7387
11
95.6949
21
-47.7336
0
LINE
8
Black
10
95.6949
20
-47.7336
11
95.5889
21
-47.7128
0
LINE
8
Black
10
95.5889
20
-47.7128
11
92.9443
21
-47.721
0
LINE
8
Black
10
92.9443
20
-47.721
11
92.9109
21
-47.6875
0
LINE
8
Black
10
92.9109
20
-47.6875
11
92.5152
21
-47.5232
0
LINE
8
Black
10
92.5152
20
-47.5232
11
92.0867
21
-47.5228
0
LINE
8
Black
10
92.0867
20
-47.5228
11
91.6907
21
-47.6864
0
LINE
8
Black
10
91.6907
20
-47.6864
11
91.3875
21
-47.9891
0
LINE
8
Black
10
91.3875
20
-47.9891
11
91.2232
21
-48.3848
0
LINE
8
Black
10
91.2232
20
-48.3848
11
91.2228
21
-48.8133
0
LINE
8
Black
10
91.2228
20
-48.8133
11
91.3864
21
-49.2093
0
LINE
8
Black
10
91.3864
20
-49.2093
11
91.6891
21
-49.5125
0
LINE
8
Black
10
91.6891
20
-49.5125
11
92.0848
21
-49.6768
0
LINE
8
Black
10
92.0848
20
-49.6768
11
92.5133
21
-49.6772
0
LINE
8
Black
10
92.5133
20
-49.6772
11
92.9093
21
-49.5136
0
LINE
8
Black
10
92.9093
20
-49.5136
11
92.9479
21
-49.475
0
LINE
8
Black
10
92.9479
20
-49.475
11
95.0969
21
-49.4684
0
LINE
8
Black
10
95.0969
20
-49.4684
11
95.4487
21
-50.0525
0
LINE
8
Black
10
95.4487
20
-50.0525
11
95.5206
21
-50.1314
0
LINE
8
Black
10
95.5206
20
-50.1314
11
95.5799
21
-50.2201
0
LINE
8
Black
10
95.5799
20
-50.2201
11
95.6347
21
-50.2568
0
LINE
8
Black
10
95.6347
20
-50.2568
11
95.6791
21
-50.3055
0
LINE
8
Black
10
95.6791
20
-50.3055
11
95.7757
21
-50.351
0
LINE
8
Black
10
95.7757
20
-50.351
11
95.8644
21
-50.4102
0
LINE
8
Black
10
95.8644
20
-50.4102
11
95.9291
21
-50.4231
0
LINE
8
Black
10
95.9291
20
-50.4231
11
95.9887
21
-50.4512
0
LINE
8
Black
10
95.9887
20
-50.4512
11
96.0953
21
-50.4562
0
LINE
8
Black
10
96.0953
20
-50.4562
11
96.2
21
-50.477
0
LINE
8
Black
10
96.2
20
-50.477
11
97.4
21
-50.477
0
LINE
8
Black
10
97.4
20
-50.477
11
97.498
21
-50.4575
0
LINE
8
Black
10
97.498
20
-50.4575
11
97.5978
21
-50.4544
0
LINE
8
Black
10
97.5978
20
-50.4544
11
97.6642
21
-50.4244
0
LINE
8
Black
10
97.6642
20
-50.4244
11
97.7356
21
-50.4102
0
LINE
8
Black
10
97.7356
20
-50.4102
11
97.8187
21
-50.3547
0
LINE
8
Black
10
97.8187
20
-50.3547
11
97.9097
21
-50.3136
0
LINE
8
Black
10
97.9097
20
-50.3136
11
99.3097
21
-49.3136
0
LINE
8
Black
10
99.3097
20
-49.3136
11
99.3466
21
-49.2744
0
LINE
8
Black
10
99.3466
20
-49.2744
11
99.3926
21
-49.2465
0
LINE
8
Black
10
99.3926
20
-49.2465
11
99.4628
21
-49.1507
0
LINE
8
Black
10
99.4628
20
-49.1507
11
99.544
21
-49.0643
0
LINE
8
Black
10
99.544
20
-49.0643
11
99.5631
21
-49.0139
0
LINE
8
Black
10
99.5631
20
-49.0139
11
99.5949
21
-48.9705
0
LINE
8
Black
10
99.5949
20
-48.9705
11
99.6231
21
-48.8552
0
LINE
8
Black
10
99.6231
20
-48.8552
11
99.6651
21
-48.7442
0
LINE
8
Black
10
99.6651
20
-48.7442
11
99.6634
21
-48.6904
0
LINE
8
Black
10
99.6634
20
-48.6904
11
99.6762
21
-48.6381
0
LINE
8
Black
10
99.6762
20
-48.6381
11
99.7485
21
-46.9748
0
LINE
8
Black
10
99.7485
20
-46.9748
11
99.8125
21
-46.9109
0
LINE
8
Black
10
99.8125
20
-46.9109
11
99.9768
21
-46.5152
0
LINE
8
Black
10
99.9768
20
-46.5152
11
99.9772
21
-46.0867
0
LINE
8
Black
10
99.9772
20
-46.0867
11
99.9772
21
-52.373
0
LINE
8
Black
10
99.9772
20
-52.373
11
90.627
21
-52.373
0
LINE
8
Black
10
90.627
20
-52.373
11
90.627
21
-34.127
0
LINE
8
Black
10
90.627
20
-34.127
11
121.873
21
-34.127
0
LINE
8
Black
10
121.873
20
-34.127
11
121.873
21
-52.373
  0
ENDSEC
  0
EOF
