G04 #@! TF.GenerationSoftware,KiCad,Pcbnew,5.1.5-52549c5~86~ubuntu18.04.1*
G04 #@! TF.CreationDate,2020-08-27T00:17:12-07:00*
G04 #@! TF.ProjectId,heat2sound_rx_and_tx,68656174-3273-46f7-956e-645f72785f61,rev?*
G04 #@! TF.SameCoordinates,Original*
G04 #@! TF.FileFunction,Legend,Bot*
G04 #@! TF.FilePolarity,Positive*
%FSLAX46Y46*%
G04 Gerber Fmt 4.6, Leading zero omitted, Abs format (unit mm)*
G04 Created by KiCad (PCBNEW 5.1.5-52549c5~86~ubuntu18.04.1) date 2020-08-27 00:17:12*
%MOMM*%
%LPD*%
G04 APERTURE LIST*
%ADD10C,0.250000*%
%ADD11C,0.254000*%
%ADD12C,0.304800*%
%ADD13C,0.300000*%
%ADD14C,0.120000*%
%ADD15C,0.190500*%
%ADD16C,0.125000*%
G04 APERTURE END LIST*
D10*
X176011904Y-132750000D02*
X176107142Y-132702380D01*
X176250000Y-132702380D01*
X176392857Y-132750000D01*
X176488095Y-132845238D01*
X176535714Y-132940476D01*
X176583333Y-133130952D01*
X176583333Y-133273809D01*
X176535714Y-133464285D01*
X176488095Y-133559523D01*
X176392857Y-133654761D01*
X176250000Y-133702380D01*
X176154761Y-133702380D01*
X176011904Y-133654761D01*
X175964285Y-133607142D01*
X175964285Y-133273809D01*
X176154761Y-133273809D01*
X175535714Y-133702380D02*
X175535714Y-132702380D01*
X174964285Y-133702380D01*
X174964285Y-132702380D01*
X174488095Y-133702380D02*
X174488095Y-132702380D01*
X174250000Y-132702380D01*
X174107142Y-132750000D01*
X174011904Y-132845238D01*
X173964285Y-132940476D01*
X173916666Y-133130952D01*
X173916666Y-133273809D01*
X173964285Y-133464285D01*
X174011904Y-133559523D01*
X174107142Y-133654761D01*
X174250000Y-133702380D01*
X174488095Y-133702380D01*
D11*
X179047904Y-134677428D02*
X178709238Y-134677428D01*
X178564095Y-135209619D02*
X179047904Y-135209619D01*
X179047904Y-134193619D01*
X178564095Y-134193619D01*
X178225428Y-135209619D02*
X177693238Y-134532285D01*
X178225428Y-134532285D02*
X177693238Y-135209619D01*
X177451333Y-134532285D02*
X177064285Y-134532285D01*
X177306190Y-134193619D02*
X177306190Y-135064476D01*
X177257809Y-135161238D01*
X177161047Y-135209619D01*
X177064285Y-135209619D01*
X175999904Y-135161238D02*
X175903142Y-135209619D01*
X175709619Y-135209619D01*
X175612857Y-135161238D01*
X175564476Y-135064476D01*
X175564476Y-135016095D01*
X175612857Y-134919333D01*
X175709619Y-134870952D01*
X175854761Y-134870952D01*
X175951523Y-134822571D01*
X175999904Y-134725809D01*
X175999904Y-134677428D01*
X175951523Y-134580666D01*
X175854761Y-134532285D01*
X175709619Y-134532285D01*
X175612857Y-134580666D01*
X174742000Y-135161238D02*
X174838761Y-135209619D01*
X175032285Y-135209619D01*
X175129047Y-135161238D01*
X175177428Y-135064476D01*
X175177428Y-134677428D01*
X175129047Y-134580666D01*
X175032285Y-134532285D01*
X174838761Y-134532285D01*
X174742000Y-134580666D01*
X174693619Y-134677428D01*
X174693619Y-134774190D01*
X175177428Y-134870952D01*
X174258190Y-134532285D02*
X174258190Y-135209619D01*
X174258190Y-134629047D02*
X174209809Y-134580666D01*
X174113047Y-134532285D01*
X173967904Y-134532285D01*
X173871142Y-134580666D01*
X173822761Y-134677428D01*
X173822761Y-135209619D01*
X173387333Y-135161238D02*
X173290571Y-135209619D01*
X173097047Y-135209619D01*
X173000285Y-135161238D01*
X172951904Y-135064476D01*
X172951904Y-135016095D01*
X173000285Y-134919333D01*
X173097047Y-134870952D01*
X173242190Y-134870952D01*
X173338952Y-134822571D01*
X173387333Y-134725809D01*
X173387333Y-134677428D01*
X173338952Y-134580666D01*
X173242190Y-134532285D01*
X173097047Y-134532285D01*
X173000285Y-134580666D01*
X172371333Y-135209619D02*
X172468095Y-135161238D01*
X172516476Y-135112857D01*
X172564857Y-135016095D01*
X172564857Y-134725809D01*
X172516476Y-134629047D01*
X172468095Y-134580666D01*
X172371333Y-134532285D01*
X172226190Y-134532285D01*
X172129428Y-134580666D01*
X172081047Y-134629047D01*
X172032666Y-134725809D01*
X172032666Y-135016095D01*
X172081047Y-135112857D01*
X172129428Y-135161238D01*
X172226190Y-135209619D01*
X172371333Y-135209619D01*
X171597238Y-135209619D02*
X171597238Y-134532285D01*
X171597238Y-134725809D02*
X171548857Y-134629047D01*
X171500476Y-134580666D01*
X171403714Y-134532285D01*
X171306952Y-134532285D01*
D12*
X166817142Y-125104247D02*
X166635714Y-125164723D01*
X166333333Y-125164723D01*
X166212380Y-125104247D01*
X166151904Y-125043771D01*
X166091428Y-124922819D01*
X166091428Y-124801866D01*
X166151904Y-124680914D01*
X166212380Y-124620438D01*
X166333333Y-124559961D01*
X166575238Y-124499485D01*
X166696190Y-124439009D01*
X166756666Y-124378533D01*
X166817142Y-124257580D01*
X166817142Y-124136628D01*
X166756666Y-124015676D01*
X166696190Y-123955200D01*
X166575238Y-123894723D01*
X166272857Y-123894723D01*
X166091428Y-123955200D01*
X165547142Y-125164723D02*
X165547142Y-124318057D01*
X165547142Y-123894723D02*
X165607619Y-123955200D01*
X165547142Y-124015676D01*
X165486666Y-123955200D01*
X165547142Y-123894723D01*
X165547142Y-124015676D01*
X164398095Y-124318057D02*
X164398095Y-125346152D01*
X164458571Y-125467104D01*
X164519047Y-125527580D01*
X164640000Y-125588057D01*
X164821428Y-125588057D01*
X164942380Y-125527580D01*
X164398095Y-125104247D02*
X164519047Y-125164723D01*
X164760952Y-125164723D01*
X164881904Y-125104247D01*
X164942380Y-125043771D01*
X165002857Y-124922819D01*
X165002857Y-124559961D01*
X164942380Y-124439009D01*
X164881904Y-124378533D01*
X164760952Y-124318057D01*
X164519047Y-124318057D01*
X164398095Y-124378533D01*
X163793333Y-124318057D02*
X163793333Y-125164723D01*
X163793333Y-124439009D02*
X163732857Y-124378533D01*
X163611904Y-124318057D01*
X163430476Y-124318057D01*
X163309523Y-124378533D01*
X163249047Y-124499485D01*
X163249047Y-125164723D01*
X162100000Y-125164723D02*
X162100000Y-124499485D01*
X162160476Y-124378533D01*
X162281428Y-124318057D01*
X162523333Y-124318057D01*
X162644285Y-124378533D01*
X162100000Y-125104247D02*
X162220952Y-125164723D01*
X162523333Y-125164723D01*
X162644285Y-125104247D01*
X162704761Y-124983295D01*
X162704761Y-124862342D01*
X162644285Y-124741390D01*
X162523333Y-124680914D01*
X162220952Y-124680914D01*
X162100000Y-124620438D01*
X161313809Y-125164723D02*
X161434761Y-125104247D01*
X161495238Y-124983295D01*
X161495238Y-123894723D01*
X159680952Y-125164723D02*
X159801904Y-125104247D01*
X159862380Y-125043771D01*
X159922857Y-124922819D01*
X159922857Y-124559961D01*
X159862380Y-124439009D01*
X159801904Y-124378533D01*
X159680952Y-124318057D01*
X159499523Y-124318057D01*
X159378571Y-124378533D01*
X159318095Y-124439009D01*
X159257619Y-124559961D01*
X159257619Y-124922819D01*
X159318095Y-125043771D01*
X159378571Y-125104247D01*
X159499523Y-125164723D01*
X159680952Y-125164723D01*
X158169047Y-124318057D02*
X158169047Y-125164723D01*
X158713333Y-124318057D02*
X158713333Y-124983295D01*
X158652857Y-125104247D01*
X158531904Y-125164723D01*
X158350476Y-125164723D01*
X158229523Y-125104247D01*
X158169047Y-125043771D01*
X157745714Y-124318057D02*
X157261904Y-124318057D01*
X157564285Y-123894723D02*
X157564285Y-124983295D01*
X157503809Y-125104247D01*
X157382857Y-125164723D01*
X157261904Y-125164723D01*
X165910000Y-127374523D02*
X165910000Y-126104523D01*
X165910000Y-126709285D02*
X165184285Y-126709285D01*
X165184285Y-127374523D02*
X165184285Y-126104523D01*
X164095714Y-127314047D02*
X164216666Y-127374523D01*
X164458571Y-127374523D01*
X164579523Y-127314047D01*
X164640000Y-127193095D01*
X164640000Y-126709285D01*
X164579523Y-126588333D01*
X164458571Y-126527857D01*
X164216666Y-126527857D01*
X164095714Y-126588333D01*
X164035238Y-126709285D01*
X164035238Y-126830238D01*
X164640000Y-126951190D01*
X162946666Y-127374523D02*
X162946666Y-126709285D01*
X163007142Y-126588333D01*
X163128095Y-126527857D01*
X163370000Y-126527857D01*
X163490952Y-126588333D01*
X162946666Y-127314047D02*
X163067619Y-127374523D01*
X163370000Y-127374523D01*
X163490952Y-127314047D01*
X163551428Y-127193095D01*
X163551428Y-127072142D01*
X163490952Y-126951190D01*
X163370000Y-126890714D01*
X163067619Y-126890714D01*
X162946666Y-126830238D01*
X162523333Y-126527857D02*
X162039523Y-126527857D01*
X162341904Y-126104523D02*
X162341904Y-127193095D01*
X162281428Y-127314047D01*
X162160476Y-127374523D01*
X162039523Y-127374523D01*
X160285714Y-127858333D02*
X160346190Y-127797857D01*
X160467142Y-127616428D01*
X160527619Y-127495476D01*
X160588095Y-127314047D01*
X160648571Y-127011666D01*
X160648571Y-126769761D01*
X160588095Y-126467380D01*
X160527619Y-126285952D01*
X160467142Y-126165000D01*
X160346190Y-125983571D01*
X160285714Y-125923095D01*
X159076190Y-127374523D02*
X159499523Y-126769761D01*
X159801904Y-127374523D02*
X159801904Y-126104523D01*
X159318095Y-126104523D01*
X159197142Y-126165000D01*
X159136666Y-126225476D01*
X159076190Y-126346428D01*
X159076190Y-126527857D01*
X159136666Y-126648809D01*
X159197142Y-126709285D01*
X159318095Y-126769761D01*
X159801904Y-126769761D01*
X158652857Y-127858333D02*
X158592380Y-127797857D01*
X158471428Y-127616428D01*
X158410952Y-127495476D01*
X158350476Y-127314047D01*
X158290000Y-127011666D01*
X158290000Y-126769761D01*
X158350476Y-126467380D01*
X158410952Y-126285952D01*
X158471428Y-126165000D01*
X158592380Y-125983571D01*
X158652857Y-125923095D01*
X166605476Y-129523847D02*
X166424047Y-129584323D01*
X166121666Y-129584323D01*
X166000714Y-129523847D01*
X165940238Y-129463371D01*
X165879761Y-129342419D01*
X165879761Y-129221466D01*
X165940238Y-129100514D01*
X166000714Y-129040038D01*
X166121666Y-128979561D01*
X166363571Y-128919085D01*
X166484523Y-128858609D01*
X166545000Y-128798133D01*
X166605476Y-128677180D01*
X166605476Y-128556228D01*
X166545000Y-128435276D01*
X166484523Y-128374800D01*
X166363571Y-128314323D01*
X166061190Y-128314323D01*
X165879761Y-128374800D01*
X165154047Y-129584323D02*
X165275000Y-129523847D01*
X165335476Y-129463371D01*
X165395952Y-129342419D01*
X165395952Y-128979561D01*
X165335476Y-128858609D01*
X165275000Y-128798133D01*
X165154047Y-128737657D01*
X164972619Y-128737657D01*
X164851666Y-128798133D01*
X164791190Y-128858609D01*
X164730714Y-128979561D01*
X164730714Y-129342419D01*
X164791190Y-129463371D01*
X164851666Y-129523847D01*
X164972619Y-129584323D01*
X165154047Y-129584323D01*
X163642142Y-128737657D02*
X163642142Y-129584323D01*
X164186428Y-128737657D02*
X164186428Y-129402895D01*
X164125952Y-129523847D01*
X164005000Y-129584323D01*
X163823571Y-129584323D01*
X163702619Y-129523847D01*
X163642142Y-129463371D01*
X163037380Y-128737657D02*
X163037380Y-129584323D01*
X163037380Y-128858609D02*
X162976904Y-128798133D01*
X162855952Y-128737657D01*
X162674523Y-128737657D01*
X162553571Y-128798133D01*
X162493095Y-128919085D01*
X162493095Y-129584323D01*
X161344047Y-129584323D02*
X161344047Y-128314323D01*
X161344047Y-129523847D02*
X161465000Y-129584323D01*
X161706904Y-129584323D01*
X161827857Y-129523847D01*
X161888333Y-129463371D01*
X161948809Y-129342419D01*
X161948809Y-128979561D01*
X161888333Y-128858609D01*
X161827857Y-128798133D01*
X161706904Y-128737657D01*
X161465000Y-128737657D01*
X161344047Y-128798133D01*
X159408809Y-130068133D02*
X159469285Y-130007657D01*
X159590238Y-129826228D01*
X159650714Y-129705276D01*
X159711190Y-129523847D01*
X159771666Y-129221466D01*
X159771666Y-128979561D01*
X159711190Y-128677180D01*
X159650714Y-128495752D01*
X159590238Y-128374800D01*
X159469285Y-128193371D01*
X159408809Y-128132895D01*
X158320238Y-129584323D02*
X158925000Y-129584323D01*
X158925000Y-128314323D01*
X158017857Y-130068133D02*
X157957380Y-130007657D01*
X157836428Y-129826228D01*
X157775952Y-129705276D01*
X157715476Y-129523847D01*
X157655000Y-129221466D01*
X157655000Y-128979561D01*
X157715476Y-128677180D01*
X157775952Y-128495752D01*
X157836428Y-128374800D01*
X157957380Y-128193371D01*
X158017857Y-128132895D01*
X155767619Y-126165000D02*
X155888571Y-126104523D01*
X156070000Y-126104523D01*
X156251428Y-126165000D01*
X156372380Y-126285952D01*
X156432857Y-126406904D01*
X156493333Y-126648809D01*
X156493333Y-126830238D01*
X156432857Y-127072142D01*
X156372380Y-127193095D01*
X156251428Y-127314047D01*
X156070000Y-127374523D01*
X155949047Y-127374523D01*
X155767619Y-127314047D01*
X155707142Y-127253571D01*
X155707142Y-126830238D01*
X155949047Y-126830238D01*
X155162857Y-127374523D02*
X155162857Y-126104523D01*
X154437142Y-127374523D01*
X154437142Y-126104523D01*
X153832380Y-127374523D02*
X153832380Y-126104523D01*
X153530000Y-126104523D01*
X153348571Y-126165000D01*
X153227619Y-126285952D01*
X153167142Y-126406904D01*
X153106666Y-126648809D01*
X153106666Y-126830238D01*
X153167142Y-127072142D01*
X153227619Y-127193095D01*
X153348571Y-127314047D01*
X153530000Y-127374523D01*
X153832380Y-127374523D01*
D10*
X185476190Y-116952380D02*
X184904761Y-116952380D01*
X185190476Y-117952380D02*
X185190476Y-116952380D01*
X184571428Y-117952380D02*
X184571428Y-116952380D01*
X184142857Y-117952380D02*
X184142857Y-117428571D01*
X184190476Y-117333333D01*
X184285714Y-117285714D01*
X184428571Y-117285714D01*
X184523809Y-117333333D01*
X184571428Y-117380952D01*
X183285714Y-117904761D02*
X183380952Y-117952380D01*
X183571428Y-117952380D01*
X183666666Y-117904761D01*
X183714285Y-117809523D01*
X183714285Y-117428571D01*
X183666666Y-117333333D01*
X183571428Y-117285714D01*
X183380952Y-117285714D01*
X183285714Y-117333333D01*
X183238095Y-117428571D01*
X183238095Y-117523809D01*
X183714285Y-117619047D01*
X182809523Y-117952380D02*
X182809523Y-117285714D01*
X182809523Y-117476190D02*
X182761904Y-117380952D01*
X182714285Y-117333333D01*
X182619047Y-117285714D01*
X182523809Y-117285714D01*
X182190476Y-117952380D02*
X182190476Y-117285714D01*
X182190476Y-117380952D02*
X182142857Y-117333333D01*
X182047619Y-117285714D01*
X181904761Y-117285714D01*
X181809523Y-117333333D01*
X181761904Y-117428571D01*
X181761904Y-117952380D01*
X181761904Y-117428571D02*
X181714285Y-117333333D01*
X181619047Y-117285714D01*
X181476190Y-117285714D01*
X181380952Y-117333333D01*
X181333333Y-117428571D01*
X181333333Y-117952380D01*
X180714285Y-117952380D02*
X180809523Y-117904761D01*
X180857142Y-117857142D01*
X180904761Y-117761904D01*
X180904761Y-117476190D01*
X180857142Y-117380952D01*
X180809523Y-117333333D01*
X180714285Y-117285714D01*
X180571428Y-117285714D01*
X180476190Y-117333333D01*
X180428571Y-117380952D01*
X180380952Y-117476190D01*
X180380952Y-117761904D01*
X180428571Y-117857142D01*
X180476190Y-117904761D01*
X180571428Y-117952380D01*
X180714285Y-117952380D01*
X179952380Y-117285714D02*
X179952380Y-118285714D01*
X179952380Y-117333333D02*
X179857142Y-117285714D01*
X179666666Y-117285714D01*
X179571428Y-117333333D01*
X179523809Y-117380952D01*
X179476190Y-117476190D01*
X179476190Y-117761904D01*
X179523809Y-117857142D01*
X179571428Y-117904761D01*
X179666666Y-117952380D01*
X179857142Y-117952380D01*
X179952380Y-117904761D01*
X179047619Y-117952380D02*
X179047619Y-117285714D01*
X179047619Y-116952380D02*
X179095238Y-117000000D01*
X179047619Y-117047619D01*
X179000000Y-117000000D01*
X179047619Y-116952380D01*
X179047619Y-117047619D01*
X178428571Y-117952380D02*
X178523809Y-117904761D01*
X178571428Y-117809523D01*
X178571428Y-116952380D01*
X177666666Y-117904761D02*
X177761904Y-117952380D01*
X177952380Y-117952380D01*
X178047619Y-117904761D01*
X178095238Y-117809523D01*
X178095238Y-117428571D01*
X178047619Y-117333333D01*
X177952380Y-117285714D01*
X177761904Y-117285714D01*
X177666666Y-117333333D01*
X177619047Y-117428571D01*
X177619047Y-117523809D01*
X178095238Y-117619047D01*
D11*
X176770000Y-127250000D02*
X176770000Y-132250000D01*
X176770000Y-127230000D02*
X174230000Y-127230000D01*
X174214760Y-127250000D02*
X174214760Y-132250000D01*
X174214760Y-132285240D02*
X176775080Y-132285240D01*
X184040000Y-123790000D02*
X178960000Y-123790000D01*
X184040000Y-123790000D02*
X184040000Y-118710000D01*
X184040000Y-118710000D02*
X178960000Y-118710000D01*
X178960000Y-118710000D02*
X178960000Y-123790000D01*
D13*
X184100000Y-121750000D02*
X185200000Y-121750000D01*
X185200000Y-121750000D02*
X185200000Y-120850000D01*
X185200000Y-120850000D02*
X184100000Y-120850000D01*
D14*
X184400000Y-119050000D02*
X185000000Y-119050000D01*
X184700000Y-119450000D02*
X184700000Y-118550000D01*
D15*
X178679714Y-129296000D02*
X179224000Y-129296000D01*
X179332857Y-129259714D01*
X179405428Y-129187142D01*
X179441714Y-129078285D01*
X179441714Y-129005714D01*
X179441714Y-130058000D02*
X179441714Y-129622571D01*
X179441714Y-129840285D02*
X178679714Y-129840285D01*
X178788571Y-129767714D01*
X178861142Y-129695142D01*
X178897428Y-129622571D01*
D16*
X182080952Y-125155428D02*
X182009523Y-125191714D01*
X181890476Y-125191714D01*
X181842857Y-125155428D01*
X181819047Y-125119142D01*
X181795238Y-125046571D01*
X181795238Y-124974000D01*
X181819047Y-124901428D01*
X181842857Y-124865142D01*
X181890476Y-124828857D01*
X181985714Y-124792571D01*
X182033333Y-124756285D01*
X182057142Y-124720000D01*
X182080952Y-124647428D01*
X182080952Y-124574857D01*
X182057142Y-124502285D01*
X182033333Y-124466000D01*
X181985714Y-124429714D01*
X181866666Y-124429714D01*
X181795238Y-124466000D01*
X181319047Y-125191714D02*
X181604761Y-125191714D01*
X181461904Y-125191714D02*
X181461904Y-124429714D01*
X181509523Y-124538571D01*
X181557142Y-124611142D01*
X181604761Y-124647428D01*
M02*
