M48
;DRILL file {Pcbnew (2013-08-24 BZR 4298)-stable} date Wed 21 May 2014 08:28:47 PM PDT
;FORMAT={-:-/ absolute / metric / decimal}
FMAT,2
METRIC,TZ
T1C0.400
T2C0.500
%
G90
G05
M71
T1
X111.125Y-104.075
X111.175Y-93.125
X118.475Y-95.945
X118.625Y-100.825
X119.225Y-91.275
X121.675Y-100.825
X126.185Y-94.245
X151.525Y-83.375
X152.2Y-98.6
X152.33Y-90.62
X159.2Y-81.2
X163.8Y-98.6
X164.6Y-81.175
X166.Y-98.6
X168.4Y-98.6
T2
X134.505Y-92.565
X134.505Y-93.565
X134.505Y-94.565
X134.505Y-95.565
X134.505Y-96.565
X134.505Y-97.565
X134.505Y-98.565
X134.505Y-99.565
X134.505Y-100.565
X134.505Y-101.565
X135.505Y-92.565
X135.505Y-93.565
X135.505Y-94.565
X135.505Y-95.565
X135.505Y-96.565
X135.505Y-97.565
X135.505Y-98.565
X135.505Y-99.565
X135.505Y-100.565
X135.505Y-101.565
X136.505Y-92.565
X136.505Y-93.565
X136.505Y-94.565
X136.505Y-95.565
X136.505Y-96.565
X136.505Y-97.565
X136.505Y-98.565
X136.505Y-99.565
X136.505Y-100.565
X136.505Y-101.565
X137.505Y-92.565
X137.505Y-93.565
X137.505Y-94.565
X137.505Y-95.565
X137.505Y-96.565
X137.505Y-97.565
X137.505Y-98.565
X137.505Y-99.565
X137.505Y-100.565
X137.505Y-101.565
X138.505Y-92.565
X138.505Y-93.565
X138.505Y-94.565
X138.505Y-95.565
X138.505Y-96.565
X138.505Y-97.565
X138.505Y-98.565
X138.505Y-99.565
X138.505Y-100.565
X138.505Y-101.565
X140.605Y-90.4
X140.605Y-91.4
X140.605Y-92.4
X140.605Y-93.4
X140.605Y-94.4
X140.605Y-95.4
X140.605Y-98.73
X140.605Y-99.73
X140.605Y-100.73
X140.605Y-101.73
X140.605Y-102.73
X140.605Y-103.73
X141.605Y-90.4
X141.605Y-91.4
X141.605Y-92.4
X141.605Y-93.4
X141.605Y-94.4
X141.605Y-95.4
X141.605Y-98.73
X141.605Y-99.73
X141.605Y-100.73
X141.605Y-101.73
X141.605Y-102.73
X141.605Y-103.73
X142.605Y-90.4
X142.605Y-91.4
X142.605Y-92.4
X142.605Y-93.4
X142.605Y-94.4
X142.605Y-95.4
X142.605Y-98.73
X142.605Y-99.73
X142.605Y-100.73
X142.605Y-101.73
X142.605Y-102.73
X142.605Y-103.73
X143.605Y-90.4
X143.605Y-91.4
X143.605Y-92.4
X143.605Y-93.4
X143.605Y-94.4
X143.605Y-95.4
X143.605Y-98.73
X143.605Y-99.73
X143.605Y-100.73
X143.605Y-101.73
X143.605Y-102.73
X143.605Y-103.73
X144.605Y-90.4
X144.605Y-91.4
X144.605Y-92.4
X144.605Y-93.4
X144.605Y-94.4
X144.605Y-95.4
X144.605Y-98.73
X144.605Y-99.73
X144.605Y-100.73
X144.605Y-101.73
X144.605Y-102.73
X144.605Y-103.73
T0
M30
