G04 (created by PCBNEW (2013-07-07 BZR 4022)-stable) date 9/11/2014 11:21:24 AM*
%MOIN*%
G04 Gerber Fmt 3.4, Leading zero omitted, Abs format*
%FSLAX34Y34*%
G01*
G70*
G90*
G04 APERTURE LIST*
%ADD10C,0.00590551*%
%ADD11C,0.011811*%
G04 APERTURE END LIST*
G54D10*
G54D11*
X46217Y-35539D02*
X46020Y-35539D01*
X45936Y-35849D02*
X46217Y-35849D01*
X46217Y-35258D01*
X45936Y-35258D01*
X45767Y-35455D02*
X45542Y-35455D01*
X45683Y-35258D02*
X45683Y-35764D01*
X45655Y-35821D01*
X45598Y-35849D01*
X45542Y-35849D01*
X45345Y-35849D02*
X45345Y-35258D01*
X45092Y-35849D02*
X45092Y-35539D01*
X45120Y-35483D01*
X45177Y-35455D01*
X45261Y-35455D01*
X45317Y-35483D01*
X45345Y-35511D01*
X44811Y-35849D02*
X44811Y-35258D01*
X44614Y-35680D01*
X44417Y-35258D01*
X44417Y-35849D01*
X44052Y-35849D02*
X44108Y-35821D01*
X44136Y-35793D01*
X44164Y-35736D01*
X44164Y-35568D01*
X44136Y-35511D01*
X44108Y-35483D01*
X44052Y-35455D01*
X43967Y-35455D01*
X43911Y-35483D01*
X43883Y-35511D01*
X43855Y-35568D01*
X43855Y-35736D01*
X43883Y-35793D01*
X43911Y-35821D01*
X43967Y-35849D01*
X44052Y-35849D01*
X43686Y-35455D02*
X43461Y-35455D01*
X43602Y-35258D02*
X43602Y-35764D01*
X43574Y-35821D01*
X43517Y-35849D01*
X43461Y-35849D01*
X43180Y-35849D02*
X43236Y-35821D01*
X43264Y-35793D01*
X43293Y-35736D01*
X43293Y-35568D01*
X43264Y-35511D01*
X43236Y-35483D01*
X43180Y-35455D01*
X43096Y-35455D01*
X43039Y-35483D01*
X43011Y-35511D01*
X42983Y-35568D01*
X42983Y-35736D01*
X43011Y-35793D01*
X43039Y-35821D01*
X43096Y-35849D01*
X43180Y-35849D01*
X42730Y-35849D02*
X42730Y-35455D01*
X42730Y-35568D02*
X42702Y-35511D01*
X42674Y-35483D01*
X42618Y-35455D01*
X42561Y-35455D01*
X42393Y-35821D02*
X42336Y-35849D01*
X42224Y-35849D01*
X42168Y-35821D01*
X42140Y-35764D01*
X42140Y-35736D01*
X42168Y-35680D01*
X42224Y-35652D01*
X42308Y-35652D01*
X42365Y-35624D01*
X42393Y-35568D01*
X42393Y-35539D01*
X42365Y-35483D01*
X42308Y-35455D01*
X42224Y-35455D01*
X42168Y-35483D01*
X42027Y-35905D02*
X41577Y-35905D01*
X41437Y-35849D02*
X41437Y-35258D01*
X41296Y-35258D01*
X41212Y-35286D01*
X41155Y-35343D01*
X41127Y-35399D01*
X41099Y-35511D01*
X41099Y-35596D01*
X41127Y-35708D01*
X41155Y-35764D01*
X41212Y-35821D01*
X41296Y-35849D01*
X41437Y-35849D01*
X40508Y-35849D02*
X40705Y-35568D01*
X40846Y-35849D02*
X40846Y-35258D01*
X40621Y-35258D01*
X40565Y-35286D01*
X40537Y-35314D01*
X40508Y-35371D01*
X40508Y-35455D01*
X40537Y-35511D01*
X40565Y-35539D01*
X40621Y-35568D01*
X40846Y-35568D01*
X40340Y-35258D02*
X40143Y-35849D01*
X39946Y-35258D01*
X39665Y-35511D02*
X39721Y-35483D01*
X39749Y-35455D01*
X39777Y-35399D01*
X39777Y-35371D01*
X39749Y-35314D01*
X39721Y-35286D01*
X39665Y-35258D01*
X39552Y-35258D01*
X39496Y-35286D01*
X39468Y-35314D01*
X39440Y-35371D01*
X39440Y-35399D01*
X39468Y-35455D01*
X39496Y-35483D01*
X39552Y-35511D01*
X39665Y-35511D01*
X39721Y-35539D01*
X39749Y-35568D01*
X39777Y-35624D01*
X39777Y-35736D01*
X39749Y-35793D01*
X39721Y-35821D01*
X39665Y-35849D01*
X39552Y-35849D01*
X39496Y-35821D01*
X39468Y-35793D01*
X39440Y-35736D01*
X39440Y-35624D01*
X39468Y-35568D01*
X39496Y-35539D01*
X39552Y-35511D01*
X39102Y-35511D02*
X39159Y-35483D01*
X39187Y-35455D01*
X39215Y-35399D01*
X39215Y-35371D01*
X39187Y-35314D01*
X39159Y-35286D01*
X39102Y-35258D01*
X38990Y-35258D01*
X38934Y-35286D01*
X38906Y-35314D01*
X38877Y-35371D01*
X38877Y-35399D01*
X38906Y-35455D01*
X38934Y-35483D01*
X38990Y-35511D01*
X39102Y-35511D01*
X39159Y-35539D01*
X39187Y-35568D01*
X39215Y-35624D01*
X39215Y-35736D01*
X39187Y-35793D01*
X39159Y-35821D01*
X39102Y-35849D01*
X38990Y-35849D01*
X38934Y-35821D01*
X38906Y-35793D01*
X38877Y-35736D01*
X38877Y-35624D01*
X38906Y-35568D01*
X38934Y-35539D01*
X38990Y-35511D01*
X38512Y-35258D02*
X38456Y-35258D01*
X38399Y-35286D01*
X38371Y-35314D01*
X38343Y-35371D01*
X38315Y-35483D01*
X38315Y-35624D01*
X38343Y-35736D01*
X38371Y-35793D01*
X38399Y-35821D01*
X38456Y-35849D01*
X38512Y-35849D01*
X38568Y-35821D01*
X38596Y-35793D01*
X38624Y-35736D01*
X38652Y-35624D01*
X38652Y-35483D01*
X38624Y-35371D01*
X38596Y-35314D01*
X38568Y-35286D01*
X38512Y-35258D01*
X37949Y-35258D02*
X37893Y-35258D01*
X37837Y-35286D01*
X37809Y-35314D01*
X37781Y-35371D01*
X37753Y-35483D01*
X37753Y-35624D01*
X37781Y-35736D01*
X37809Y-35793D01*
X37837Y-35821D01*
X37893Y-35849D01*
X37949Y-35849D01*
X38006Y-35821D01*
X38034Y-35793D01*
X38062Y-35736D01*
X38090Y-35624D01*
X38090Y-35483D01*
X38062Y-35371D01*
X38034Y-35314D01*
X38006Y-35286D01*
X37949Y-35258D01*
X37640Y-35905D02*
X37190Y-35905D01*
X37050Y-35849D02*
X37050Y-35455D01*
X37050Y-35568D02*
X37021Y-35511D01*
X36993Y-35483D01*
X36937Y-35455D01*
X36881Y-35455D01*
X36459Y-35821D02*
X36515Y-35849D01*
X36628Y-35849D01*
X36684Y-35821D01*
X36712Y-35764D01*
X36712Y-35539D01*
X36684Y-35483D01*
X36628Y-35455D01*
X36515Y-35455D01*
X36459Y-35483D01*
X36431Y-35539D01*
X36431Y-35596D01*
X36712Y-35652D01*
X36234Y-35455D02*
X36093Y-35849D01*
X35953Y-35455D01*
X35615Y-35258D02*
X35559Y-35258D01*
X35503Y-35286D01*
X35475Y-35314D01*
X35447Y-35371D01*
X35419Y-35483D01*
X35419Y-35624D01*
X35447Y-35736D01*
X35475Y-35793D01*
X35503Y-35821D01*
X35559Y-35849D01*
X35615Y-35849D01*
X35672Y-35821D01*
X35700Y-35793D01*
X35728Y-35736D01*
X35756Y-35624D01*
X35756Y-35483D01*
X35728Y-35371D01*
X35700Y-35314D01*
X35672Y-35286D01*
X35615Y-35258D01*
X34856Y-35849D02*
X35194Y-35849D01*
X35025Y-35849D02*
X35025Y-35258D01*
X35081Y-35343D01*
X35137Y-35399D01*
X35194Y-35427D01*
M02*
