G04 #@! TF.FileFunction,Legend,Top*
%FSLAX46Y46*%
G04 Gerber Fmt 4.6, Leading zero omitted, Abs format (unit mm)*
G04 Created by KiCad (PCBNEW (2015-08-20 BZR 6109)-product) date Tue 23 Feb 2016 07:55:43 PM PST*
%MOMM*%
G01*
G04 APERTURE LIST*
%ADD10C,0.150000*%
%ADD11C,0.127000*%
%ADD12C,0.254000*%
%ADD13C,0.200660*%
%ADD14C,0.190500*%
%ADD15C,0.304800*%
G04 APERTURE END LIST*
D10*
D11*
X21800000Y-22100000D02*
X20900000Y-22100000D01*
X20900000Y-22100000D02*
X20900000Y-28900000D01*
X20900000Y-28900000D02*
X21800000Y-28900000D01*
X21800000Y-28900000D02*
X21800000Y-22100000D01*
D12*
X26270200Y-21690000D02*
X26270200Y-29310000D01*
X26270200Y-29310000D02*
X20529800Y-29310000D01*
X20529800Y-29310000D02*
X20529800Y-21690000D01*
X20529800Y-21690000D02*
X26270200Y-21690000D01*
D11*
X44699880Y-21600000D02*
X43149880Y-21600000D01*
X43149880Y-21600000D02*
X43149880Y-28200000D01*
X43149880Y-28200000D02*
X44674880Y-28200000D01*
D13*
X29500200Y-18397600D02*
X44699560Y-18397600D01*
X44699560Y-18397600D02*
X44699560Y-31402400D01*
X44699560Y-31402400D02*
X29500200Y-31402400D01*
X29500200Y-31402400D02*
X29500200Y-18397600D01*
D14*
X27182714Y-25753999D02*
X27727000Y-25753999D01*
X27835857Y-25790285D01*
X27908429Y-25862856D01*
X27944714Y-25971713D01*
X27944714Y-26044285D01*
X27944714Y-24992000D02*
X27944714Y-25427428D01*
X27944714Y-25209714D02*
X27182714Y-25209714D01*
X27291571Y-25282285D01*
X27364143Y-25354857D01*
X27400429Y-25427428D01*
X18782714Y-26861571D02*
X19399571Y-26861571D01*
X19472143Y-26825286D01*
X19508429Y-26789000D01*
X19544714Y-26716429D01*
X19544714Y-26571286D01*
X19508429Y-26498714D01*
X19472143Y-26462429D01*
X19399571Y-26426143D01*
X18782714Y-26426143D01*
X19508429Y-26099571D02*
X19544714Y-25990714D01*
X19544714Y-25809285D01*
X19508429Y-25736714D01*
X19472143Y-25700428D01*
X19399571Y-25664143D01*
X19327000Y-25664143D01*
X19254429Y-25700428D01*
X19218143Y-25736714D01*
X19181857Y-25809285D01*
X19145571Y-25954428D01*
X19109286Y-26027000D01*
X19073000Y-26063285D01*
X19000429Y-26099571D01*
X18927857Y-26099571D01*
X18855286Y-26063285D01*
X18819000Y-26027000D01*
X18782714Y-25954428D01*
X18782714Y-25773000D01*
X18819000Y-25664143D01*
X19145571Y-25083571D02*
X19181857Y-24974714D01*
X19218143Y-24938429D01*
X19290714Y-24902143D01*
X19399571Y-24902143D01*
X19472143Y-24938429D01*
X19508429Y-24974714D01*
X19544714Y-25047286D01*
X19544714Y-25337571D01*
X18782714Y-25337571D01*
X18782714Y-25083571D01*
X18819000Y-25011000D01*
X18855286Y-24974714D01*
X18927857Y-24938429D01*
X19000429Y-24938429D01*
X19073000Y-24974714D01*
X19109286Y-25011000D01*
X19145571Y-25083571D01*
X19145571Y-25337571D01*
D15*
X36749360Y-15906949D02*
X36749360Y-16995520D01*
X36676788Y-17213234D01*
X36531645Y-17358377D01*
X36313931Y-17430949D01*
X36168788Y-17430949D01*
X37402503Y-16052091D02*
X37475074Y-15979520D01*
X37620217Y-15906949D01*
X37983074Y-15906949D01*
X38128217Y-15979520D01*
X38200788Y-16052091D01*
X38273360Y-16197234D01*
X38273360Y-16342377D01*
X38200788Y-16560091D01*
X37329931Y-17430949D01*
X38273360Y-17430949D01*
M02*
