%FSLAX45Y45*%
G04 Gerber Fmt 4.5, Leading zero omitted, Abs format (unit mm)*
G04 Created by KiCad (PCBNEW (2015-08-20 BZR 6109)-product) date Tue 23 Feb 2016 07:55:34 PM PST*
%MOMM*%
G01*
G04 APERTURE LIST*
%ADD10C,0.127000*%
%ADD11C,0.100000*%
%ADD12C,0.200000*%
%ADD13C,0.300000*%
G04 APERTURE END LIST*
D10*
D11*
X12000000Y-1780000D02*
X2000000Y-1780000D01*
X12000000Y-11780000D02*
X12000000Y-1780000D01*
X2000000Y-11780000D02*
X12000000Y-11780000D01*
X2000000Y-1780000D02*
X2000000Y-11780000D01*
D12*
X3524949Y-2405037D02*
X3694875Y-2574963D01*
X3694875Y-2405037D02*
X3524949Y-2574963D01*
X3975037Y-2405037D02*
X4144963Y-2574963D01*
X4144963Y-2405037D02*
X3975037Y-2574963D01*
D13*
X2266429Y-12250714D02*
X2266429Y-11950714D01*
X2337857Y-11950714D01*
X2380714Y-11965000D01*
X2409286Y-11993571D01*
X2423571Y-12022143D01*
X2437857Y-12079286D01*
X2437857Y-12122143D01*
X2423571Y-12179286D01*
X2409286Y-12207857D01*
X2380714Y-12236429D01*
X2337857Y-12250714D01*
X2266429Y-12250714D01*
X2566429Y-12250714D02*
X2566429Y-12050714D01*
X2566429Y-12107857D02*
X2580714Y-12079286D01*
X2595000Y-12065000D01*
X2623571Y-12050714D01*
X2652143Y-12050714D01*
X2752143Y-12250714D02*
X2752143Y-12050714D01*
X2752143Y-11950714D02*
X2737857Y-11965000D01*
X2752143Y-11979286D01*
X2766429Y-11965000D01*
X2752143Y-11950714D01*
X2752143Y-11979286D01*
X2937857Y-12250714D02*
X2909286Y-12236429D01*
X2895000Y-12207857D01*
X2895000Y-11950714D01*
X3095000Y-12250714D02*
X3066428Y-12236429D01*
X3052143Y-12207857D01*
X3052143Y-11950714D01*
X3437857Y-12250714D02*
X3437857Y-11950714D01*
X3537857Y-12165000D01*
X3637857Y-11950714D01*
X3637857Y-12250714D01*
X3909286Y-12250714D02*
X3909286Y-12093571D01*
X3895000Y-12065000D01*
X3866428Y-12050714D01*
X3809286Y-12050714D01*
X3780714Y-12065000D01*
X3909286Y-12236429D02*
X3880714Y-12250714D01*
X3809286Y-12250714D01*
X3780714Y-12236429D01*
X3766428Y-12207857D01*
X3766428Y-12179286D01*
X3780714Y-12150714D01*
X3809286Y-12136429D01*
X3880714Y-12136429D01*
X3909286Y-12122143D01*
X4052143Y-12050714D02*
X4052143Y-12350714D01*
X4052143Y-12065000D02*
X4080714Y-12050714D01*
X4137857Y-12050714D01*
X4166428Y-12065000D01*
X4180714Y-12079286D01*
X4195000Y-12107857D01*
X4195000Y-12193571D01*
X4180714Y-12222143D01*
X4166428Y-12236429D01*
X4137857Y-12250714D01*
X4080714Y-12250714D01*
X4052143Y-12236429D01*
X4323571Y-12222143D02*
X4337857Y-12236429D01*
X4323571Y-12250714D01*
X4309286Y-12236429D01*
X4323571Y-12222143D01*
X4323571Y-12250714D01*
X4323571Y-12065000D02*
X4337857Y-12079286D01*
X4323571Y-12093571D01*
X4309286Y-12079286D01*
X4323571Y-12065000D01*
X4323571Y-12093571D01*
X1825074Y-12660037D02*
X1995000Y-12829963D01*
X1995000Y-12660037D02*
X1825074Y-12829963D01*
X2423571Y-12880714D02*
X2252143Y-12880714D01*
X2337857Y-12880714D02*
X2337857Y-12580714D01*
X2309286Y-12623571D01*
X2280714Y-12652143D01*
X2252143Y-12666429D01*
X2552143Y-12852143D02*
X2566429Y-12866429D01*
X2552143Y-12880714D01*
X2537857Y-12866429D01*
X2552143Y-12852143D01*
X2552143Y-12880714D01*
X2666428Y-12580714D02*
X2866428Y-12580714D01*
X2737857Y-12880714D01*
X3037857Y-12580714D02*
X3066428Y-12580714D01*
X3095000Y-12595000D01*
X3109286Y-12609286D01*
X3123571Y-12637857D01*
X3137857Y-12695000D01*
X3137857Y-12766429D01*
X3123571Y-12823571D01*
X3109286Y-12852143D01*
X3095000Y-12866429D01*
X3066428Y-12880714D01*
X3037857Y-12880714D01*
X3009286Y-12866429D01*
X2995000Y-12852143D01*
X2980714Y-12823571D01*
X2966428Y-12766429D01*
X2966428Y-12695000D01*
X2980714Y-12637857D01*
X2995000Y-12609286D01*
X3009286Y-12595000D01*
X3037857Y-12580714D01*
X3266428Y-12880714D02*
X3266428Y-12680714D01*
X3266428Y-12709286D02*
X3280714Y-12695000D01*
X3309286Y-12680714D01*
X3352143Y-12680714D01*
X3380714Y-12695000D01*
X3395000Y-12723571D01*
X3395000Y-12880714D01*
X3395000Y-12723571D02*
X3409286Y-12695000D01*
X3437857Y-12680714D01*
X3480714Y-12680714D01*
X3509286Y-12695000D01*
X3523571Y-12723571D01*
X3523571Y-12880714D01*
X3666428Y-12880714D02*
X3666428Y-12680714D01*
X3666428Y-12709286D02*
X3680714Y-12695000D01*
X3709286Y-12680714D01*
X3752143Y-12680714D01*
X3780714Y-12695000D01*
X3795000Y-12723571D01*
X3795000Y-12880714D01*
X3795000Y-12723571D02*
X3809286Y-12695000D01*
X3837857Y-12680714D01*
X3880714Y-12680714D01*
X3909286Y-12695000D01*
X3923571Y-12723571D01*
X3923571Y-12880714D01*
X4509286Y-12566429D02*
X4252143Y-12952143D01*
X4895000Y-12580714D02*
X4923571Y-12580714D01*
X4952143Y-12595000D01*
X4966428Y-12609286D01*
X4980714Y-12637857D01*
X4995000Y-12695000D01*
X4995000Y-12766429D01*
X4980714Y-12823571D01*
X4966428Y-12852143D01*
X4952143Y-12866429D01*
X4923571Y-12880714D01*
X4895000Y-12880714D01*
X4866428Y-12866429D01*
X4852143Y-12852143D01*
X4837857Y-12823571D01*
X4823571Y-12766429D01*
X4823571Y-12695000D01*
X4837857Y-12637857D01*
X4852143Y-12609286D01*
X4866428Y-12595000D01*
X4895000Y-12580714D01*
X5123571Y-12852143D02*
X5137857Y-12866429D01*
X5123571Y-12880714D01*
X5109286Y-12866429D01*
X5123571Y-12852143D01*
X5123571Y-12880714D01*
X5323571Y-12580714D02*
X5352143Y-12580714D01*
X5380714Y-12595000D01*
X5395000Y-12609286D01*
X5409286Y-12637857D01*
X5423571Y-12695000D01*
X5423571Y-12766429D01*
X5409286Y-12823571D01*
X5395000Y-12852143D01*
X5380714Y-12866429D01*
X5352143Y-12880714D01*
X5323571Y-12880714D01*
X5295000Y-12866429D01*
X5280714Y-12852143D01*
X5266428Y-12823571D01*
X5252143Y-12766429D01*
X5252143Y-12695000D01*
X5266428Y-12637857D01*
X5280714Y-12609286D01*
X5295000Y-12595000D01*
X5323571Y-12580714D01*
X5680714Y-12580714D02*
X5623571Y-12580714D01*
X5595000Y-12595000D01*
X5580714Y-12609286D01*
X5552143Y-12652143D01*
X5537857Y-12709286D01*
X5537857Y-12823571D01*
X5552143Y-12852143D01*
X5566428Y-12866429D01*
X5595000Y-12880714D01*
X5652143Y-12880714D01*
X5680714Y-12866429D01*
X5695000Y-12852143D01*
X5709285Y-12823571D01*
X5709285Y-12752143D01*
X5695000Y-12723571D01*
X5680714Y-12709286D01*
X5652143Y-12695000D01*
X5595000Y-12695000D01*
X5566428Y-12709286D01*
X5552143Y-12723571D01*
X5537857Y-12752143D01*
X5809285Y-12580714D02*
X6009285Y-12580714D01*
X5880714Y-12880714D01*
X6109286Y-12580714D02*
X6109286Y-12637857D01*
X6223571Y-12580714D02*
X6223571Y-12637857D01*
X6666428Y-12995000D02*
X6652143Y-12980714D01*
X6623571Y-12937857D01*
X6609285Y-12909286D01*
X6595000Y-12866429D01*
X6580714Y-12795000D01*
X6580714Y-12737857D01*
X6595000Y-12666429D01*
X6609285Y-12623571D01*
X6623571Y-12595000D01*
X6652143Y-12552143D01*
X6666428Y-12537857D01*
X6766428Y-12609286D02*
X6780714Y-12595000D01*
X6809285Y-12580714D01*
X6880714Y-12580714D01*
X6909285Y-12595000D01*
X6923571Y-12609286D01*
X6937857Y-12637857D01*
X6937857Y-12666429D01*
X6923571Y-12709286D01*
X6752143Y-12880714D01*
X6937857Y-12880714D01*
X7295000Y-12880714D02*
X7295000Y-12580714D01*
X7423571Y-12880714D02*
X7423571Y-12723571D01*
X7409285Y-12695000D01*
X7380714Y-12680714D01*
X7337857Y-12680714D01*
X7309285Y-12695000D01*
X7295000Y-12709286D01*
X7609285Y-12880714D02*
X7580714Y-12866429D01*
X7566428Y-12852143D01*
X7552143Y-12823571D01*
X7552143Y-12737857D01*
X7566428Y-12709286D01*
X7580714Y-12695000D01*
X7609285Y-12680714D01*
X7652143Y-12680714D01*
X7680714Y-12695000D01*
X7695000Y-12709286D01*
X7709285Y-12737857D01*
X7709285Y-12823571D01*
X7695000Y-12852143D01*
X7680714Y-12866429D01*
X7652143Y-12880714D01*
X7609285Y-12880714D01*
X7880714Y-12880714D02*
X7852143Y-12866429D01*
X7837857Y-12837857D01*
X7837857Y-12580714D01*
X8109286Y-12866429D02*
X8080714Y-12880714D01*
X8023571Y-12880714D01*
X7995000Y-12866429D01*
X7980714Y-12837857D01*
X7980714Y-12723571D01*
X7995000Y-12695000D01*
X8023571Y-12680714D01*
X8080714Y-12680714D01*
X8109286Y-12695000D01*
X8123571Y-12723571D01*
X8123571Y-12752143D01*
X7980714Y-12780714D01*
X8237857Y-12866429D02*
X8266428Y-12880714D01*
X8323571Y-12880714D01*
X8352143Y-12866429D01*
X8366428Y-12837857D01*
X8366428Y-12823571D01*
X8352143Y-12795000D01*
X8323571Y-12780714D01*
X8280714Y-12780714D01*
X8252143Y-12766429D01*
X8237857Y-12737857D01*
X8237857Y-12723571D01*
X8252143Y-12695000D01*
X8280714Y-12680714D01*
X8323571Y-12680714D01*
X8352143Y-12695000D01*
X8466428Y-12995000D02*
X8480714Y-12980714D01*
X8509286Y-12937857D01*
X8523571Y-12909286D01*
X8537857Y-12866429D01*
X8552143Y-12795000D01*
X8552143Y-12737857D01*
X8537857Y-12666429D01*
X8523571Y-12623571D01*
X8509286Y-12595000D01*
X8480714Y-12552143D01*
X8466428Y-12537857D01*
M02*
