  0
SECTION
  2
HEADER
  9
$ANGBASE
  50
0.0
  9
$ANGDIR
  70
  1
  9
$MEASUREMENT
  70
0
  0
ENDSEC
  0
SECTION
  2
TABLES
  0
TABLE
  2
LTYPE
  70
1
  0
LTYPE
  2
CONTINUOUS
  70
0
  3
Solid line
  72
65
  73
0
  40
0.0
  0
ENDTAB
  0
TABLE
  2
STYLE
  70
4
  0
STYLE
  2
KICAD
  70
0
  40
0
  41
1
  42
1
  50
0
  71
0
  3
isocp.shx
  0
STYLE
  2
KICADB
  70
0
  40
0
  41
1
  42
1
  50
0
  71
0
  3
isocp.shx
  0
STYLE
  2
KICADI
  70
0
  40
0
  41
1
  42
1
  50
15
  71
0
  3
isocp.shx
  0
STYLE
  2
KICADBI
  70
0
  40
0
  41
1
  42
1
  50
15
  71
0
  3
isocp.shx
  0
ENDTAB
  0
TABLE
  2
LAYER
  70
30
  0
LAYER
  2
BLACK
  70
0
  62
7
  6
CONTINUOUS
  0
LAYER
  2
GRAY1
  70
0
  62
251
  6
CONTINUOUS
  0
LAYER
  2
GRAY2
  70
0
  62
8
  6
CONTINUOUS
  0
LAYER
  2
GRAY3
  70
0
  62
9
  6
CONTINUOUS
  0
LAYER
  2
WHITE
  70
0
  62
7
  6
CONTINUOUS
  0
LAYER
  2
LYELLOW
  70
0
  62
51
  6
CONTINUOUS
  0
LAYER
  2
BLUE1
  70
0
  62
178
  6
CONTINUOUS
  0
LAYER
  2
GREEN1
  70
0
  62
98
  6
CONTINUOUS
  0
LAYER
  2
CYAN1
  70
0
  62
138
  6
CONTINUOUS
  0
LAYER
  2
RED1
  70
0
  62
18
  6
CONTINUOUS
  0
LAYER
  2
MAGENTA1
  70
0
  62
228
  6
CONTINUOUS
  0
LAYER
  2
BROWN1
  70
0
  62
58
  6
CONTINUOUS
  0
LAYER
  2
BLUE2
  70
0
  62
5
  6
CONTINUOUS
  0
LAYER
  2
GREEN2
  70
0
  62
3
  6
CONTINUOUS
  0
LAYER
  2
CYAN2
  70
0
  62
4
  6
CONTINUOUS
  0
LAYER
  2
RED2
  70
0
  62
1
  6
CONTINUOUS
  0
LAYER
  2
MAGENTA2
  70
0
  62
6
  6
CONTINUOUS
  0
LAYER
  2
BROWN2
  70
0
  62
54
  6
CONTINUOUS
  0
LAYER
  2
BLUE3
  70
0
  62
171
  6
CONTINUOUS
  0
LAYER
  2
GREEN3
  70
0
  62
91
  6
CONTINUOUS
  0
LAYER
  2
CYAN3
  70
0
  62
131
  6
CONTINUOUS
  0
LAYER
  2
RED3
  70
0
  62
11
  6
CONTINUOUS
  0
LAYER
  2
MAGENTA3
  70
0
  62
221
  6
CONTINUOUS
  0
LAYER
  2
YELLOW3
  70
0
  62
2
  6
CONTINUOUS
  0
LAYER
  2
BLUE4
  70
0
  62
5
  6
CONTINUOUS
  0
LAYER
  2
GREEN4
  70
0
  62
3
  6
CONTINUOUS
  0
LAYER
  2
CYAN4
  70
0
  62
4
  6
CONTINUOUS
  0
LAYER
  2
RED4
  70
0
  62
1
  6
CONTINUOUS
  0
LAYER
  2
MAGENTA4
  70
0
  62
6
  6
CONTINUOUS
  0
LAYER
  2
YELLOW4
  70
0
  62
2
  6
CONTINUOUS
  0
ENDTAB
  0
ENDSEC
  0
SECTION
  2
ENTITIES
0
LINE
8
Black
10
44.7082
20
-44.7082
11
44.717
21
-44.717
0
LINE
8
Black
10
44.717
20
-44.717
11
44.7252
21
-44.7252
0
LINE
8
Black
10
44.7252
20
-44.7252
11
44.7339
21
-44.7339
0
LINE
8
Black
10
44.7339
20
-44.7339
11
44.7415
21
-44.7415
0
LINE
8
Black
10
44.7415
20
-44.7415
11
44.7497
21
-44.7497
0
LINE
8
Black
10
44.7497
20
-44.7497
11
44.7564
21
-44.7564
0
LINE
8
Black
10
44.7564
20
-44.7564
11
44.7641
21
-44.7641
0
LINE
8
Black
10
44.7641
20
-44.7641
11
44.7697
21
-44.7697
0
LINE
8
Black
10
44.7697
20
-44.7697
11
44.7764
21
-44.7764
0
LINE
8
Black
10
44.7764
20
-44.7764
11
44.7808
21
-44.7808
0
LINE
8
Black
10
44.7808
20
-44.7808
11
44.7864
21
-44.7864
0
LINE
8
Black
10
44.7864
20
-44.7864
11
44.7894
21
-44.7894
0
LINE
8
Black
10
44.7894
20
-44.7894
11
44.7938
21
-44.7938
0
LINE
8
Black
10
44.7938
20
-44.7938
11
44.7954
21
-44.7954
0
LINE
8
Black
10
44.7954
20
-44.7954
11
44.7984
21
-44.7984
0
LINE
8
Black
10
44.7984
20
-44.7984
11
44.7999
21
-44.7999
0
LINE
8
Black
10
44.7999
20
-44.7999
11
44.7984
21
-44.7984
0
LINE
8
Black
10
44.7984
20
-44.7984
11
44.7954
21
-44.7954
0
LINE
8
Black
10
44.7954
20
-44.7954
11
44.7938
21
-44.7938
0
LINE
8
Black
10
44.7938
20
-44.7938
11
44.7894
21
-44.7894
0
LINE
8
Black
10
44.7894
20
-44.7894
11
44.7864
21
-44.7864
0
LINE
8
Black
10
44.7864
20
-44.7864
11
44.7808
21
-44.7808
0
LINE
8
Black
10
44.7808
20
-44.7808
11
44.7764
21
-44.7764
0
LINE
8
Black
10
44.7764
20
-44.7764
11
44.7697
21
-44.7697
0
LINE
8
Black
10
44.7697
20
-44.7697
11
44.7641
21
-44.7641
0
LINE
8
Black
10
44.7641
20
-44.7641
11
44.7564
21
-44.7564
0
LINE
8
Black
10
44.7564
20
-44.7564
11
44.7497
21
-44.7497
0
LINE
8
Black
10
44.7497
20
-44.7497
11
44.7415
21
-44.7415
0
LINE
8
Black
10
44.7415
20
-44.7415
11
44.7339
21
-44.7339
0
LINE
8
Black
10
44.7339
20
-44.7339
11
44.7252
21
-44.7252
0
LINE
8
Black
10
44.7252
20
-44.7252
11
44.717
21
-44.717
0
LINE
8
Black
10
44.717
20
-44.717
11
44.7082
21
-44.7082
0
LINE
8
Black
10
44.7082
20
-44.7082
11
44.6996
21
-44.6996
0
LINE
8
Black
10
44.6996
20
-44.6996
11
29.5002
21
-29.5002
0
LINE
8
Black
10
29.5002
20
-29.5002
11
29.4916
21
-29.4916
0
LINE
8
Black
10
29.4916
20
-29.4916
11
29.4828
21
-29.4828
0
LINE
8
Black
10
29.4828
20
-29.4828
11
29.4745
21
-29.4745
0
LINE
8
Black
10
29.4745
20
-29.4745
11
29.4659
21
-29.4659
0
LINE
8
Black
10
29.4659
20
-29.4659
11
29.4583
21
-29.4583
0
LINE
8
Black
10
29.4583
20
-29.4583
11
29.45
21
-29.45
0
LINE
8
Black
10
29.45
20
-29.45
11
29.4433
21
-29.4433
0
LINE
8
Black
10
29.4433
20
-29.4433
11
29.4357
21
-29.4357
0
LINE
8
Black
10
29.4357
20
-29.4357
11
29.4301
21
-29.4301
0
LINE
8
Black
10
29.4301
20
-29.4301
11
29.4233
21
-29.4233
0
LINE
8
Black
10
29.4233
20
-29.4233
11
29.419
21
-29.419
0
LINE
8
Black
10
29.419
20
-29.419
11
29.4133
21
-29.4133
0
LINE
8
Black
10
29.4133
20
-29.4133
11
29.4103
21
-29.4103
0
LINE
8
Black
10
29.4103
20
-29.4103
11
29.4059
21
-29.4059
0
LINE
8
Black
10
29.4059
20
-29.4059
11
29.4044
21
-29.4044
0
LINE
8
Black
10
29.4044
20
-29.4044
11
29.4014
21
-29.4014
0
LINE
8
Black
10
29.4014
20
-29.4014
11
29.3999
21
-29.3999
0
LINE
8
Black
10
29.3999
20
-29.3999
11
29.4014
21
-29.4014
0
LINE
8
Black
10
29.4014
20
-29.4014
11
29.4044
21
-29.4044
0
LINE
8
Black
10
29.4044
20
-29.4044
11
29.4059
21
-29.4059
0
LINE
8
Black
10
29.4059
20
-29.4059
11
29.4103
21
-29.4103
0
LINE
8
Black
10
29.4103
20
-29.4103
11
29.4133
21
-29.4133
0
LINE
8
Black
10
29.4133
20
-29.4133
11
29.419
21
-29.419
0
LINE
8
Black
10
29.419
20
-29.419
11
29.4233
21
-29.4233
0
LINE
8
Black
10
29.4233
20
-29.4233
11
29.4301
21
-29.4301
0
LINE
8
Black
10
29.4301
20
-29.4301
11
29.4357
21
-29.4357
0
LINE
8
Black
10
29.4357
20
-29.4357
11
29.4433
21
-29.4433
0
LINE
8
Black
10
29.4433
20
-29.4433
11
29.45
21
-29.45
0
LINE
8
Black
10
29.45
20
-29.45
11
29.4583
21
-29.4583
0
LINE
8
Black
10
29.4583
20
-29.4583
11
29.4659
21
-29.4659
0
LINE
8
Black
10
29.4659
20
-29.4659
11
29.4745
21
-29.4745
0
LINE
8
Black
10
29.4745
20
-29.4745
11
29.4828
21
-29.4828
0
LINE
8
Black
10
29.4828
20
-29.4828
11
29.4916
21
-29.4916
0
LINE
8
Black
10
29.4916
20
-29.4916
11
29.5002
21
-29.5002
0
LINE
8
Black
10
29.5002
20
-29.5002
11
44.6996
21
-44.6996
0
LINE
8
Black
10
44.6996
20
-44.6996
11
44.7082
21
-44.7082
0
LINE
8
Black
10
36.4423
20
-36.4423
11
36.744
21
-36.744
0
LINE
8
Black
10
36.744
20
-36.744
11
36.968
21
-36.968
0
LINE
8
Black
10
36.968
20
-36.968
11
37.0872
21
-37.0872
0
LINE
8
Black
10
37.0872
20
-37.0872
11
36.968
21
-36.968
0
LINE
8
Black
10
36.968
20
-36.968
11
36.744
21
-36.744
0
LINE
8
Black
10
36.744
20
-36.744
11
36.4423
21
-36.4423
0
LINE
8
Black
10
36.4423
20
-36.4423
11
36.0991
21
-36.0991
0
LINE
8
Black
10
36.0991
20
-36.0991
11
35.756
21
-35.756
0
LINE
8
Black
10
35.756
20
-35.756
11
35.4542
21
-35.4542
0
LINE
8
Black
10
35.4542
20
-35.4542
11
35.2302
21
-35.2302
0
LINE
8
Black
10
35.2302
20
-35.2302
11
35.1111
21
-35.1111
0
LINE
8
Black
10
35.1111
20
-35.1111
11
35.2302
21
-35.2302
0
LINE
8
Black
10
35.2302
20
-35.2302
11
35.4542
21
-35.4542
0
LINE
8
Black
10
35.4542
20
-35.4542
11
35.756
21
-35.756
0
LINE
8
Black
10
35.756
20
-35.756
11
36.0991
21
-36.0991
0
LINE
8
Black
10
36.0991
20
-36.0991
11
36.4423
21
-36.4423
0
LINE
8
Black
10
40.9432
20
-40.9432
11
41.2449
21
-41.2449
0
LINE
8
Black
10
41.2449
20
-41.2449
11
41.4689
21
-41.4689
0
LINE
8
Black
10
41.4689
20
-41.4689
11
41.5881
21
-41.5881
0
LINE
8
Black
10
41.5881
20
-41.5881
11
41.4689
21
-41.4689
0
LINE
8
Black
10
41.4689
20
-41.4689
11
41.2449
21
-41.2449
0
LINE
8
Black
10
41.2449
20
-41.2449
11
40.9432
21
-40.9432
0
LINE
8
Black
10
40.9432
20
-40.9432
11
40.6
21
-40.6
0
LINE
8
Black
10
40.6
20
-40.6
11
40.2568
21
-40.2568
0
LINE
8
Black
10
40.2568
20
-40.2568
11
39.9551
21
-39.9551
0
LINE
8
Black
10
39.9551
20
-39.9551
11
39.7311
21
-39.7311
0
LINE
8
Black
10
39.7311
20
-39.7311
11
39.6119
21
-39.6119
0
LINE
8
Black
10
39.6119
20
-39.6119
11
39.7311
21
-39.7311
0
LINE
8
Black
10
39.7311
20
-39.7311
11
39.9551
21
-39.9551
0
LINE
8
Black
10
39.9551
20
-39.9551
11
40.2568
21
-40.2568
0
LINE
8
Black
10
40.2568
20
-40.2568
11
40.6
21
-40.6
0
LINE
8
Black
10
40.6
20
-40.6
11
40.9432
21
-40.9432
0
LINE
8
Black
10
23.5482
20
-23.5482
11
23.6786
21
-23.6786
0
LINE
8
Black
10
23.6786
20
-23.6786
11
23.7754
21
-23.7754
0
LINE
8
Black
10
23.7754
20
-23.7754
11
23.8269
21
-23.8269
0
LINE
8
Black
10
23.8269
20
-23.8269
11
23.808
21
-23.808
0
LINE
8
Black
10
23.808
20
-23.808
11
26.2702
21
-26.2702
0
LINE
8
Black
10
26.2702
20
-26.2702
11
26.2811
21
-26.2811
0
LINE
8
Black
10
26.2811
20
-26.2811
11
26.2923
21
-26.2923
0
LINE
8
Black
10
26.2923
20
-26.2923
11
26.3027
21
-26.3027
0
LINE
8
Black
10
26.3027
20
-26.3027
11
26.3136
21
-26.3136
0
LINE
8
Black
10
26.3136
20
-26.3136
11
26.3233
21
-26.3233
0
LINE
8
Black
10
26.3233
20
-26.3233
11
26.3337
21
-26.3337
0
LINE
8
Black
10
26.3337
20
-26.3337
11
26.3422
21
-26.3422
0
LINE
8
Black
10
26.3422
20
-26.3422
11
26.3518
21
-26.3518
0
LINE
8
Black
10
26.3518
20
-26.3518
11
26.359
21
-26.359
0
LINE
8
Black
10
26.359
20
-26.359
11
26.3675
21
-26.3675
0
LINE
8
Black
10
26.3675
20
-26.3675
11
26.373
21
-26.373
0
LINE
8
Black
10
26.373
20
-26.373
11
26.3802
21
-26.3802
0
LINE
8
Black
10
26.3802
20
-26.3802
11
26.384
21
-26.384
0
LINE
8
Black
10
26.384
20
-26.384
11
26.3895
21
-26.3895
0
LINE
8
Black
10
26.3895
20
-26.3895
11
26.3915
21
-26.3915
0
LINE
8
Black
10
26.3915
20
-26.3915
11
26.3953
21
-26.3953
0
LINE
8
Black
10
26.3953
20
-26.3953
11
26.3972
21
-26.3972
0
LINE
8
Black
10
26.3972
20
-26.3972
11
26.4341
21
-26.4341
0
LINE
8
Black
10
26.4341
20
-26.4341
11
26.491
21
-26.491
0
LINE
8
Black
10
26.491
20
-26.491
11
26.5213
21
-26.5213
0
LINE
8
Black
10
26.5213
20
-26.5213
11
26.491
21
-26.491
0
LINE
8
Black
10
26.491
20
-26.491
11
26.4341
21
-26.4341
0
LINE
8
Black
10
26.4341
20
-26.4341
11
26.3972
21
-26.3972
0
LINE
8
Black
10
26.3972
20
-26.3972
11
26.4341
21
-26.4341
0
LINE
8
Black
10
26.4341
20
-26.4341
11
26.491
21
-26.491
0
LINE
8
Black
10
26.491
20
-26.491
11
26.5213
21
-26.5213
0
LINE
8
Black
10
26.5213
20
-26.5213
11
26.491
21
-26.491
0
LINE
8
Black
10
26.491
20
-26.491
11
26.4341
21
-26.4341
0
LINE
8
Black
10
26.4341
20
-26.4341
11
26.3972
21
-26.3972
0
LINE
8
Black
10
26.3972
20
-26.3972
11
26.3953
21
-26.3953
0
LINE
8
Black
10
26.3953
20
-26.3953
11
26.3915
21
-26.3915
0
LINE
8
Black
10
26.3915
20
-26.3915
11
26.3895
21
-26.3895
0
LINE
8
Black
10
26.3895
20
-26.3895
11
26.384
21
-26.384
0
LINE
8
Black
10
26.384
20
-26.384
11
26.3802
21
-26.3802
0
LINE
8
Black
10
26.3802
20
-26.3802
11
26.373
21
-26.373
0
LINE
8
Black
10
26.373
20
-26.373
11
26.3675
21
-26.3675
0
LINE
8
Black
10
26.3675
20
-26.3675
11
26.359
21
-26.359
0
LINE
8
Black
10
26.359
20
-26.359
11
26.3518
21
-26.3518
0
LINE
8
Black
10
26.3518
20
-26.3518
11
26.3422
21
-26.3422
0
LINE
8
Black
10
26.3422
20
-26.3422
11
26.3337
21
-26.3337
0
LINE
8
Black
10
26.3337
20
-26.3337
11
26.3233
21
-26.3233
0
LINE
8
Black
10
26.3233
20
-26.3233
11
26.3136
21
-26.3136
0
LINE
8
Black
10
26.3136
20
-26.3136
11
26.3027
21
-26.3027
0
LINE
8
Black
10
26.3027
20
-26.3027
11
26.2923
21
-26.2923
0
LINE
8
Black
10
26.2923
20
-26.2923
11
26.2811
21
-26.2811
0
LINE
8
Black
10
26.2811
20
-26.2811
11
26.2702
21
-26.2702
0
LINE
8
Black
10
26.2702
20
-26.2702
11
23.808
21
-23.808
0
LINE
8
Black
10
23.808
20
-23.808
11
23.8269
21
-23.8269
0
LINE
8
Black
10
23.8269
20
-23.8269
11
23.7754
21
-23.7754
0
LINE
8
Black
10
23.7754
20
-23.7754
11
23.6786
21
-23.6786
0
LINE
8
Black
10
23.6786
20
-23.6786
11
23.5482
21
-23.5482
0
LINE
8
Black
10
23.5482
20
-23.5482
11
23.4
21
-23.4
0
LINE
8
Black
10
23.4
20
-23.4
11
23.2518
21
-23.2518
0
LINE
8
Black
10
23.2518
20
-23.2518
11
23.1214
21
-23.1214
0
LINE
8
Black
10
23.1214
20
-23.1214
11
23.0246
21
-23.0246
0
LINE
8
Black
10
23.0246
20
-23.0246
11
22.9731
21
-22.9731
0
LINE
8
Black
10
22.9731
20
-22.9731
11
22.992
21
-22.992
0
LINE
8
Black
10
22.992
20
-22.992
11
20.5298
21
-20.5298
0
LINE
8
Black
10
20.5298
20
-20.5298
11
20.5189
21
-20.5189
0
LINE
8
Black
10
20.5189
20
-20.5189
11
20.5077
21
-20.5077
0
LINE
8
Black
10
20.5077
20
-20.5077
11
20.4973
21
-20.4973
0
LINE
8
Black
10
20.4973
20
-20.4973
11
20.4864
21
-20.4864
0
LINE
8
Black
10
20.4864
20
-20.4864
11
20.4767
21
-20.4767
0
LINE
8
Black
10
20.4767
20
-20.4767
11
20.4663
21
-20.4663
0
LINE
8
Black
10
20.4663
20
-20.4663
11
20.4578
21
-20.4578
0
LINE
8
Black
10
20.4578
20
-20.4578
11
20.4482
21
-20.4482
0
LINE
8
Black
10
20.4482
20
-20.4482
11
20.441
21
-20.441
0
LINE
8
Black
10
20.441
20
-20.441
11
20.4325
21
-20.4325
0
LINE
8
Black
10
20.4325
20
-20.4325
11
20.427
21
-20.427
0
LINE
8
Black
10
20.427
20
-20.427
11
20.4198
21
-20.4198
0
LINE
8
Black
10
20.4198
20
-20.4198
11
20.416
21
-20.416
0
LINE
8
Black
10
20.416
20
-20.416
11
20.4105
21
-20.4105
0
LINE
8
Black
10
20.4105
20
-20.4105
11
20.4085
21
-20.4085
0
LINE
8
Black
10
20.4085
20
-20.4085
11
20.4047
21
-20.4047
0
LINE
8
Black
10
20.4047
20
-20.4047
11
20.4028
21
-20.4028
0
LINE
8
Black
10
20.4028
20
-20.4028
11
20.4047
21
-20.4047
0
LINE
8
Black
10
20.4047
20
-20.4047
11
20.4085
21
-20.4085
0
LINE
8
Black
10
20.4085
20
-20.4085
11
20.4105
21
-20.4105
0
LINE
8
Black
10
20.4105
20
-20.4105
11
20.416
21
-20.416
0
LINE
8
Black
10
20.416
20
-20.416
11
20.4198
21
-20.4198
0
LINE
8
Black
10
20.4198
20
-20.4198
11
20.427
21
-20.427
0
LINE
8
Black
10
20.427
20
-20.427
11
20.4325
21
-20.4325
0
LINE
8
Black
10
20.4325
20
-20.4325
11
20.441
21
-20.441
0
LINE
8
Black
10
20.441
20
-20.441
11
20.4482
21
-20.4482
0
LINE
8
Black
10
20.4482
20
-20.4482
11
20.4578
21
-20.4578
0
LINE
8
Black
10
20.4578
20
-20.4578
11
20.4663
21
-20.4663
0
LINE
8
Black
10
20.4663
20
-20.4663
11
20.4767
21
-20.4767
0
LINE
8
Black
10
20.4767
20
-20.4767
11
20.4864
21
-20.4864
0
LINE
8
Black
10
20.4864
20
-20.4864
11
20.4973
21
-20.4973
0
LINE
8
Black
10
20.4973
20
-20.4973
11
20.5077
21
-20.5077
0
LINE
8
Black
10
20.5077
20
-20.5077
11
20.5189
21
-20.5189
0
LINE
8
Black
10
20.5189
20
-20.5189
11
20.5298
21
-20.5298
0
LINE
8
Black
10
20.5298
20
-20.5298
11
22.992
21
-22.992
0
LINE
8
Black
10
22.992
20
-22.992
11
22.9731
21
-22.9731
0
LINE
8
Black
10
22.9731
20
-22.9731
11
23.0246
21
-23.0246
0
LINE
8
Black
10
23.0246
20
-23.0246
11
23.1214
21
-23.1214
0
LINE
8
Black
10
23.1214
20
-23.1214
11
23.2518
21
-23.2518
0
LINE
8
Black
10
23.2518
20
-23.2518
11
23.4
21
-23.4
0
LINE
8
Black
10
23.4
20
-23.4
11
23.5482
21
-23.5482
0
LINE
8
Black
10
21.8055
20
-21.8055
11
21.811
21
-21.811
0
LINE
8
Black
10
21.811
20
-21.811
11
21.8162
21
-21.8162
0
LINE
8
Black
10
21.8162
20
-21.8162
11
21.8217
21
-21.8217
0
LINE
8
Black
10
21.8217
20
-21.8217
11
21.8265
21
-21.8265
0
LINE
8
Black
10
21.8265
20
-21.8265
11
21.8317
21
-21.8317
0
LINE
8
Black
10
21.8317
20
-21.8317
11
21.836
21
-21.836
0
LINE
8
Black
10
21.836
20
-21.836
11
21.8408
21
-21.8408
0
LINE
8
Black
10
21.8408
20
-21.8408
11
21.8444
21
-21.8444
0
LINE
8
Black
10
21.8444
20
-21.8444
11
21.8486
21
-21.8486
0
LINE
8
Black
10
21.8486
20
-21.8486
11
21.8514
21
-21.8514
0
LINE
8
Black
10
21.8514
20
-21.8514
11
21.855
21
-21.855
0
LINE
8
Black
10
21.855
20
-21.855
11
21.8569
21
-21.8569
0
LINE
8
Black
10
21.8569
20
-21.8569
11
21.8597
21
-21.8597
0
LINE
8
Black
10
21.8597
20
-21.8597
11
21.8606
21
-21.8606
0
LINE
8
Black
10
21.8606
20
-21.8606
11
21.8625
21
-21.8625
0
LINE
8
Black
10
21.8625
20
-21.8625
11
21.8635
21
-21.8635
0
LINE
8
Black
10
21.8635
20
-21.8635
11
21.8625
21
-21.8625
0
LINE
8
Black
10
21.8625
20
-21.8625
11
21.8606
21
-21.8606
0
LINE
8
Black
10
21.8606
20
-21.8606
11
21.8597
21
-21.8597
0
LINE
8
Black
10
21.8597
20
-21.8597
11
21.8569
21
-21.8569
0
LINE
8
Black
10
21.8569
20
-21.8569
11
21.855
21
-21.855
0
LINE
8
Black
10
21.855
20
-21.855
11
21.8514
21
-21.8514
0
LINE
8
Black
10
21.8514
20
-21.8514
11
21.8486
21
-21.8486
0
LINE
8
Black
10
21.8486
20
-21.8486
11
21.8444
21
-21.8444
0
LINE
8
Black
10
21.8444
20
-21.8444
11
21.8408
21
-21.8408
0
LINE
8
Black
10
21.8408
20
-21.8408
11
21.836
21
-21.836
0
LINE
8
Black
10
21.836
20
-21.836
11
21.8317
21
-21.8317
0
LINE
8
Black
10
21.8317
20
-21.8317
11
21.8265
21
-21.8265
0
LINE
8
Black
10
21.8265
20
-21.8265
11
21.8217
21
-21.8217
0
LINE
8
Black
10
21.8217
20
-21.8217
11
21.8162
21
-21.8162
0
LINE
8
Black
10
21.8162
20
-21.8162
11
21.811
21
-21.811
0
LINE
8
Black
10
21.811
20
-21.811
11
21.8055
21
-21.8055
0
LINE
8
Black
10
21.8055
20
-21.8055
11
21.8
21
-21.8
0
LINE
8
Black
10
21.8
20
-21.8
11
20.9
21
-20.9
0
LINE
8
Black
10
20.9
20
-20.9
11
20.8945
21
-20.8945
0
LINE
8
Black
10
20.8945
20
-20.8945
11
20.889
21
-20.889
0
LINE
8
Black
10
20.889
20
-20.889
11
20.8838
21
-20.8838
0
LINE
8
Black
10
20.8838
20
-20.8838
11
20.8783
21
-20.8783
0
LINE
8
Black
10
20.8783
20
-20.8783
11
20.8735
21
-20.8735
0
LINE
8
Black
10
20.8735
20
-20.8735
11
20.8682
21
-20.8682
0
LINE
8
Black
10
20.8682
20
-20.8682
11
20.864
21
-20.864
0
LINE
8
Black
10
20.864
20
-20.864
11
20.8592
21
-20.8592
0
LINE
8
Black
10
20.8592
20
-20.8592
11
20.8556
21
-20.8556
0
LINE
8
Black
10
20.8556
20
-20.8556
11
20.8514
21
-20.8514
0
LINE
8
Black
10
20.8514
20
-20.8514
11
20.8486
21
-20.8486
0
LINE
8
Black
10
20.8486
20
-20.8486
11
20.845
21
-20.845
0
LINE
8
Black
10
20.845
20
-20.845
11
20.8431
21
-20.8431
0
LINE
8
Black
10
20.8431
20
-20.8431
11
20.8403
21
-20.8403
0
LINE
8
Black
10
20.8403
20
-20.8403
11
20.8394
21
-20.8394
0
LINE
8
Black
10
20.8394
20
-20.8394
11
20.8375
21
-20.8375
0
LINE
8
Black
10
20.8375
20
-20.8375
11
20.8365
21
-20.8365
0
LINE
8
Black
10
20.8365
20
-20.8365
11
20.8375
21
-20.8375
0
LINE
8
Black
10
20.8375
20
-20.8375
11
20.8394
21
-20.8394
0
LINE
8
Black
10
20.8394
20
-20.8394
11
20.8403
21
-20.8403
0
LINE
8
Black
10
20.8403
20
-20.8403
11
20.8431
21
-20.8431
0
LINE
8
Black
10
20.8431
20
-20.8431
11
20.845
21
-20.845
0
LINE
8
Black
10
20.845
20
-20.845
11
20.8486
21
-20.8486
0
LINE
8
Black
10
20.8486
20
-20.8486
11
20.8514
21
-20.8514
0
LINE
8
Black
10
20.8514
20
-20.8514
11
20.8556
21
-20.8556
0
LINE
8
Black
10
20.8556
20
-20.8556
11
20.8592
21
-20.8592
0
LINE
8
Black
10
20.8592
20
-20.8592
11
20.864
21
-20.864
0
LINE
8
Black
10
20.864
20
-20.864
11
20.8682
21
-20.8682
0
LINE
8
Black
10
20.8682
20
-20.8682
11
20.8735
21
-20.8735
0
LINE
8
Black
10
20.8735
20
-20.8735
11
20.8783
21
-20.8783
0
LINE
8
Black
10
20.8783
20
-20.8783
11
20.8838
21
-20.8838
0
LINE
8
Black
10
20.8838
20
-20.8838
11
20.889
21
-20.889
0
LINE
8
Black
10
20.889
20
-20.889
11
20.8945
21
-20.8945
0
LINE
8
Black
10
20.8945
20
-20.8945
11
20.9
21
-20.9
0
LINE
8
Black
10
20.9
20
-20.9
11
21.8
21
-21.8
0
LINE
8
Black
10
21.8
20
-21.8
11
21.8055
21
-21.8055
0
LINE
8
Black
10
19.405
20
-19.405
11
19.4105
21
-19.4105
0
LINE
8
Black
10
19.4105
20
-19.4105
11
19.4212
21
-19.4212
0
LINE
8
Black
10
19.4212
20
-19.4212
11
19.4321
21
-19.4321
0
LINE
8
Black
10
19.4321
20
-19.4321
11
19.4369
21
-19.4369
0
LINE
8
Black
10
19.4369
20
-19.4369
11
19.4422
21
-19.4422
0
LINE
8
Black
10
19.4422
20
-19.4422
11
19.5147
21
-19.5147
0
LINE
8
Black
10
19.5147
20
-19.5147
11
19.527
21
-19.527
0
LINE
8
Black
10
19.527
20
-19.527
11
19.5395
21
-19.5395
0
LINE
8
Black
10
19.5395
20
-19.5395
11
19.5758
21
-19.5758
0
LINE
8
Black
10
19.5758
20
-19.5758
11
19.5845
21
-19.5845
0
LINE
8
Black
10
19.5845
20
-19.5845
11
19.5936
21
-19.5936
0
LINE
8
Black
10
19.5936
20
-19.5936
11
19.6299
21
-19.6299
0
LINE
8
Black
10
19.6299
20
-19.6299
11
19.6315
21
-19.6315
0
LINE
8
Black
10
19.6315
20
-19.6315
11
19.6342
21
-19.6342
0
LINE
8
Black
10
19.6342
20
-19.6342
11
19.6362
21
-19.6362
0
LINE
8
Black
10
19.6362
20
-19.6362
11
19.6393
21
-19.6393
0
LINE
8
Black
10
19.6393
20
-19.6393
11
19.639
21
-19.639
0
LINE
8
Black
10
19.639
20
-19.639
11
19.64
21
-19.64
0
LINE
8
Black
10
19.64
20
-19.64
11
19.639
21
-19.639
0
LINE
8
Black
10
19.639
20
-19.639
11
19.6393
21
-19.6393
0
LINE
8
Black
10
19.6393
20
-19.6393
11
19.6362
21
-19.6362
0
LINE
8
Black
10
19.6362
20
-19.6362
11
19.6342
21
-19.6342
0
LINE
8
Black
10
19.6342
20
-19.6342
11
19.6315
21
-19.6315
0
LINE
8
Black
10
19.6315
20
-19.6315
11
19.6299
21
-19.6299
0
LINE
8
Black
10
19.6299
20
-19.6299
11
19.5936
21
-19.5936
0
LINE
8
Black
10
19.5936
20
-19.5936
11
19.5845
21
-19.5845
0
LINE
8
Black
10
19.5845
20
-19.5845
11
19.5758
21
-19.5758
0
LINE
8
Black
10
19.5758
20
-19.5758
11
19.5395
21
-19.5395
0
LINE
8
Black
10
19.5395
20
-19.5395
11
19.527
21
-19.527
0
LINE
8
Black
10
19.527
20
-19.527
11
19.5147
21
-19.5147
0
LINE
8
Black
10
19.5147
20
-19.5147
11
19.4422
21
-19.4422
0
LINE
8
Black
10
19.4422
20
-19.4422
11
19.4369
21
-19.4369
0
LINE
8
Black
10
19.4369
20
-19.4369
11
19.4321
21
-19.4321
0
LINE
8
Black
10
19.4321
20
-19.4321
11
19.4212
21
-19.4212
0
LINE
8
Black
10
19.4212
20
-19.4212
11
19.4105
21
-19.4105
0
LINE
8
Black
10
19.4105
20
-19.4105
11
19.405
21
-19.405
0
LINE
8
Black
10
19.405
20
-19.405
11
19.3996
21
-19.3996
0
LINE
8
Black
10
19.3996
20
-19.3996
11
18.7827
21
-18.7827
0
LINE
8
Black
10
18.7827
20
-18.7827
11
18.7501
21
-18.7501
0
LINE
8
Black
10
18.7501
20
-18.7501
11
18.7215
21
-18.7215
0
LINE
8
Black
10
18.7215
20
-18.7215
11
18.7002
21
-18.7002
0
LINE
8
Black
10
18.7002
20
-18.7002
11
18.6889
21
-18.6889
0
LINE
8
Black
10
18.6889
20
-18.6889
11
18.7002
21
-18.7002
0
LINE
8
Black
10
18.7002
20
-18.7002
11
18.7215
21
-18.7215
0
LINE
8
Black
10
18.7215
20
-18.7215
11
18.7501
21
-18.7501
0
LINE
8
Black
10
18.7501
20
-18.7501
11
18.7827
21
-18.7827
0
LINE
8
Black
10
18.7827
20
-18.7827
11
19.3771
21
-19.3771
0
LINE
8
Black
10
19.3771
20
-19.3771
11
19.4157
21
-19.4157
0
LINE
8
Black
10
19.4157
20
-19.4157
11
19.4301
21
-19.4301
0
LINE
8
Black
10
19.4301
20
-19.4301
11
19.4495
21
-19.4495
0
LINE
8
Black
10
19.4495
20
-19.4495
11
19.4301
21
-19.4301
0
LINE
8
Black
10
19.4301
20
-19.4301
11
19.4157
21
-19.4157
0
LINE
8
Black
10
19.4157
20
-19.4157
11
19.3771
21
-19.3771
0
LINE
8
Black
10
19.3771
20
-19.3771
11
18.7827
21
-18.7827
0
LINE
8
Black
10
18.7827
20
-18.7827
11
18.7501
21
-18.7501
0
LINE
8
Black
10
18.7501
20
-18.7501
11
18.7215
21
-18.7215
0
LINE
8
Black
10
18.7215
20
-18.7215
11
18.7002
21
-18.7002
0
LINE
8
Black
10
18.7002
20
-18.7002
11
18.6889
21
-18.6889
0
LINE
8
Black
10
18.6889
20
-18.6889
11
18.7002
21
-18.7002
0
LINE
8
Black
10
18.7002
20
-18.7002
11
18.7215
21
-18.7215
0
LINE
8
Black
10
18.7215
20
-18.7215
11
18.7501
21
-18.7501
0
LINE
8
Black
10
18.7501
20
-18.7501
11
18.7827
21
-18.7827
0
LINE
8
Black
10
18.7827
20
-18.7827
11
19.3996
21
-19.3996
0
LINE
8
Black
10
19.3996
20
-19.3996
11
19.405
21
-19.405
0
LINE
8
Black
10
19.405
20
-19.405
11
19.4105
21
-19.4105
0
LINE
8
Black
10
19.4105
20
-19.4105
11
19.4212
21
-19.4212
0
LINE
8
Black
10
19.4212
20
-19.4212
11
19.4321
21
-19.4321
0
LINE
8
Black
10
19.4321
20
-19.4321
11
19.4369
21
-19.4369
0
LINE
8
Black
10
19.4369
20
-19.4369
11
19.4422
21
-19.4422
0
LINE
8
Black
10
19.4422
20
-19.4422
11
19.5147
21
-19.5147
0
LINE
8
Black
10
19.5147
20
-19.5147
11
19.527
21
-19.527
0
LINE
8
Black
10
19.527
20
-19.527
11
19.5395
21
-19.5395
0
LINE
8
Black
10
19.5395
20
-19.5395
11
19.5758
21
-19.5758
0
LINE
8
Black
10
19.5758
20
-19.5758
11
19.5845
21
-19.5845
0
LINE
8
Black
10
19.5845
20
-19.5845
11
19.5936
21
-19.5936
0
LINE
8
Black
10
19.5936
20
-19.5936
11
19.6299
21
-19.6299
0
LINE
8
Black
10
19.6299
20
-19.6299
11
19.6315
21
-19.6315
0
LINE
8
Black
10
19.6315
20
-19.6315
11
19.6342
21
-19.6342
0
LINE
8
Black
10
19.6342
20
-19.6342
11
19.6362
21
-19.6362
0
LINE
8
Black
10
19.6362
20
-19.6362
11
19.6393
21
-19.6393
0
LINE
8
Black
10
19.6393
20
-19.6393
11
19.639
21
-19.639
0
LINE
8
Black
10
19.639
20
-19.639
11
19.64
21
-19.64
0
LINE
8
Black
10
19.64
20
-19.64
11
19.6373
21
-19.6373
0
LINE
8
Black
10
19.6373
20
-19.6373
11
19.6351
21
-19.6351
0
LINE
8
Black
10
19.6351
20
-19.6351
11
19.5988
21
-19.5988
0
LINE
8
Black
10
19.5988
20
-19.5988
11
19.583
21
-19.583
0
LINE
8
Black
10
19.583
20
-19.583
11
19.5583
21
-19.5583
0
LINE
8
Black
10
19.5583
20
-19.5583
11
19.5275
21
-19.5275
0
LINE
8
Black
10
19.5275
20
-19.5275
11
19.4945
21
-19.4945
0
LINE
8
Black
10
19.4945
20
-19.4945
11
19.4631
21
-19.4631
0
LINE
8
Black
10
19.4631
20
-19.4631
11
19.4372
21
-19.4372
0
LINE
8
Black
10
19.4372
20
-19.4372
11
19.4198
21
-19.4198
0
LINE
8
Black
10
19.4198
20
-19.4198
11
19.4132
21
-19.4132
0
LINE
8
Black
10
19.4132
20
-19.4132
11
19.4181
21
-19.4181
0
LINE
8
Black
10
19.4181
20
-19.4181
11
19.4495
21
-19.4495
0
LINE
8
Black
10
19.4495
20
-19.4495
11
19.4301
21
-19.4301
0
LINE
8
Black
10
19.4301
20
-19.4301
11
19.4157
21
-19.4157
0
LINE
8
Black
10
19.4157
20
-19.4157
11
19.3771
21
-19.3771
0
LINE
8
Black
10
19.3771
20
-19.3771
11
19.3495
21
-19.3495
0
LINE
8
Black
10
19.3495
20
-19.3495
11
19.3109
21
-19.3109
0
LINE
8
Black
10
19.3109
20
-19.3109
11
19.2964
21
-19.2964
0
LINE
8
Black
10
19.2964
20
-19.2964
11
19.2717
21
-19.2717
0
LINE
8
Black
10
19.2717
20
-19.2717
11
19.238
21
-19.238
0
LINE
8
Black
10
19.238
20
-19.238
11
19.2337
21
-19.2337
0
LINE
8
Black
10
19.2337
20
-19.2337
11
19.2308
21
-19.2308
0
LINE
8
Black
10
19.2308
20
-19.2308
11
19.1945
21
-19.1945
0
LINE
8
Black
10
19.1945
20
-19.1945
11
19.1854
21
-19.1854
0
LINE
8
Black
10
19.1854
20
-19.1854
11
19.1766
21
-19.1766
0
LINE
8
Black
10
19.1766
20
-19.1766
11
19.1404
21
-19.1404
0
LINE
8
Black
10
19.1404
20
-19.1404
11
19.1278
21
-19.1278
0
LINE
8
Black
10
19.1278
20
-19.1278
11
19.1156
21
-19.1156
0
LINE
8
Black
10
19.1156
20
-19.1156
11
19.043
21
-19.043
0
LINE
8
Black
10
19.043
20
-19.043
11
19.0378
21
-19.0378
0
LINE
8
Black
10
19.0378
20
-19.0378
11
19.033
21
-19.033
0
LINE
8
Black
10
19.033
20
-19.033
11
19.022
21
-19.022
0
LINE
8
Black
10
19.022
20
-19.022
11
19.0113
21
-19.0113
0
LINE
8
Black
10
19.0113
20
-19.0113
11
19.0058
21
-19.0058
0
LINE
8
Black
10
19.0058
20
-19.0058
11
19.0004
21
-19.0004
0
LINE
8
Black
10
19.0004
20
-19.0004
11
18.9279
21
-18.9279
0
LINE
8
Black
10
18.9279
20
-18.9279
11
18.9224
21
-18.9224
0
LINE
8
Black
10
18.9224
20
-18.9224
11
18.917
21
-18.917
0
LINE
8
Black
10
18.917
20
-18.917
11
18.9063
21
-18.9063
0
LINE
8
Black
10
18.9063
20
-18.9063
11
18.8953
21
-18.8953
0
LINE
8
Black
10
18.8953
20
-18.8953
11
18.8905
21
-18.8905
0
LINE
8
Black
10
18.8905
20
-18.8905
11
18.8853
21
-18.8853
0
LINE
8
Black
10
18.8853
20
-18.8853
11
18.8127
21
-18.8127
0
LINE
8
Black
10
18.8127
20
-18.8127
11
18.8004
21
-18.8004
0
LINE
8
Black
10
18.8004
20
-18.8004
11
18.7879
21
-18.7879
0
LINE
8
Black
10
18.7879
20
-18.7879
11
18.7516
21
-18.7516
0
LINE
8
Black
10
18.7516
20
-18.7516
11
18.7429
21
-18.7429
0
LINE
8
Black
10
18.7429
20
-18.7429
11
18.7338
21
-18.7338
0
LINE
8
Black
10
18.7338
20
-18.7338
11
18.6975
21
-18.6975
0
LINE
8
Black
10
18.6975
20
-18.6975
11
18.696
21
-18.696
0
LINE
8
Black
10
18.696
20
-18.696
11
18.6932
21
-18.6932
0
LINE
8
Black
10
18.6932
20
-18.6932
11
18.6913
21
-18.6913
0
LINE
8
Black
10
18.6913
20
-18.6913
11
18.6881
21
-18.6881
0
LINE
8
Black
10
18.6881
20
-18.6881
11
18.6884
21
-18.6884
0
LINE
8
Black
10
18.6884
20
-18.6884
11
18.6875
21
-18.6875
0
LINE
8
Black
10
18.6875
20
-18.6875
11
18.6901
21
-18.6901
0
LINE
8
Black
10
18.6901
20
-18.6901
11
18.6924
21
-18.6924
0
LINE
8
Black
10
18.6924
20
-18.6924
11
18.7286
21
-18.7286
0
LINE
8
Black
10
18.7286
20
-18.7286
11
18.7444
21
-18.7444
0
LINE
8
Black
10
18.7444
20
-18.7444
11
18.7691
21
-18.7691
0
LINE
8
Black
10
18.7691
20
-18.7691
11
18.7999
21
-18.7999
0
LINE
8
Black
10
18.7999
20
-18.7999
11
18.833
21
-18.833
0
LINE
8
Black
10
18.833
20
-18.833
11
18.8644
21
-18.8644
0
LINE
8
Black
10
18.8644
20
-18.8644
11
18.8903
21
-18.8903
0
LINE
8
Black
10
18.8903
20
-18.8903
11
18.9076
21
-18.9076
0
LINE
8
Black
10
18.9076
20
-18.9076
11
18.9142
21
-18.9142
0
LINE
8
Black
10
18.9142
20
-18.9142
11
18.9094
21
-18.9094
0
LINE
8
Black
10
18.9094
20
-18.9094
11
18.878
21
-18.878
0
LINE
8
Black
10
18.878
20
-18.878
11
18.8973
21
-18.8973
0
LINE
8
Black
10
18.8973
20
-18.8973
11
18.9117
21
-18.9117
0
LINE
8
Black
10
18.9117
20
-18.9117
11
18.9503
21
-18.9503
0
LINE
8
Black
10
18.9503
20
-18.9503
11
18.9779
21
-18.9779
0
LINE
8
Black
10
18.9779
20
-18.9779
11
19.0166
21
-19.0166
0
LINE
8
Black
10
19.0166
20
-19.0166
11
19.031
21
-19.031
0
LINE
8
Black
10
19.031
20
-19.031
11
19.0557
21
-19.0557
0
LINE
8
Black
10
19.0557
20
-19.0557
11
19.0895
21
-19.0895
0
LINE
8
Black
10
19.0895
20
-19.0895
11
19.0937
21
-19.0937
0
LINE
8
Black
10
19.0937
20
-19.0937
11
19.0967
21
-19.0967
0
LINE
8
Black
10
19.0967
20
-19.0967
11
19.1329
21
-19.1329
0
LINE
8
Black
10
19.1329
20
-19.1329
11
19.142
21
-19.142
0
LINE
8
Black
10
19.142
20
-19.142
11
19.1508
21
-19.1508
0
LINE
8
Black
10
19.1508
20
-19.1508
11
19.1871
21
-19.1871
0
LINE
8
Black
10
19.1871
20
-19.1871
11
19.1996
21
-19.1996
0
LINE
8
Black
10
19.1996
20
-19.1996
11
19.2118
21
-19.2118
0
LINE
8
Black
10
19.2118
20
-19.2118
11
19.2844
21
-19.2844
0
LINE
8
Black
10
19.2844
20
-19.2844
11
19.2897
21
-19.2897
0
LINE
8
Black
10
19.2897
20
-19.2897
11
19.2944
21
-19.2944
0
LINE
8
Black
10
19.2944
20
-19.2944
11
19.3054
21
-19.3054
0
LINE
8
Black
10
19.3054
20
-19.3054
11
19.3161
21
-19.3161
0
LINE
8
Black
10
19.3161
20
-19.3161
11
19.3216
21
-19.3216
0
LINE
8
Black
10
19.3216
20
-19.3216
11
19.327
21
-19.327
0
LINE
8
Black
10
19.327
20
-19.327
11
19.3996
21
-19.3996
0
LINE
8
Black
10
19.3996
20
-19.3996
11
19.405
21
-19.405
0
LINE
8
Black
10
27.742
20
-27.742
11
27.7571
21
-27.7571
0
LINE
8
Black
10
27.7571
20
-27.7571
11
27.866
21
-27.866
0
LINE
8
Black
10
27.866
20
-27.866
11
27.8708
21
-27.8708
0
LINE
8
Black
10
27.8708
20
-27.8708
11
27.8761
21
-27.8761
0
LINE
8
Black
10
27.8761
20
-27.8761
11
27.8853
21
-27.8853
0
LINE
8
Black
10
27.8853
20
-27.8853
11
27.8951
21
-27.8951
0
LINE
8
Black
10
27.8951
20
-27.8951
11
27.8987
21
-27.8987
0
LINE
8
Black
10
27.8987
20
-27.8987
11
27.9032
21
-27.9032
0
LINE
8
Black
10
27.9032
20
-27.9032
11
27.9758
21
-27.9758
0
LINE
8
Black
10
27.9758
20
-27.9758
11
27.9789
21
-27.9789
0
LINE
8
Black
10
27.9789
20
-27.9789
11
27.983
21
-27.983
0
LINE
8
Black
10
27.983
20
-27.983
11
27.9884
21
-27.9884
0
LINE
8
Black
10
27.9884
20
-27.9884
11
27.9948
21
-27.9948
0
LINE
8
Black
10
27.9948
20
-27.9948
11
27.9962
21
-27.9962
0
LINE
8
Black
10
27.9962
20
-27.9962
11
27.9988
21
-27.9988
0
LINE
8
Black
10
27.9988
20
-27.9988
11
28.0351
21
-28.0351
0
LINE
8
Black
10
28.0351
20
-28.0351
11
28.0373
21
-28.0373
0
LINE
8
Black
10
28.0373
20
-28.0373
11
28.04
21
-28.04
0
LINE
8
Black
10
28.04
20
-28.04
11
28.0342
21
-28.0342
0
LINE
8
Black
10
28.0342
20
-28.0342
11
28.0177
21
-28.0177
0
LINE
8
Black
10
28.0177
20
-28.0177
11
27.9923
21
-27.9923
0
LINE
8
Black
10
27.9923
20
-27.9923
11
27.9613
21
-27.9613
0
LINE
8
Black
10
27.9613
20
-27.9613
11
27.9282
21
-27.9282
0
LINE
8
Black
10
27.9282
20
-27.9282
11
27.8971
21
-27.8971
0
LINE
8
Black
10
27.8971
20
-27.8971
11
27.8717
21
-27.8717
0
LINE
8
Black
10
27.8717
20
-27.8717
11
27.8552
21
-27.8552
0
LINE
8
Black
10
27.8552
20
-27.8552
11
27.8495
21
-27.8495
0
LINE
8
Black
10
27.8495
20
-27.8495
11
27.8252
21
-27.8252
0
LINE
8
Black
10
27.8252
20
-27.8252
11
27.7844
21
-27.7844
0
LINE
8
Black
10
27.7844
20
-27.7844
11
27.7115
21
-27.7115
0
LINE
8
Black
10
27.7115
20
-27.7115
11
27.1827
21
-27.1827
0
LINE
8
Black
10
27.1827
20
-27.1827
11
27.1501
21
-27.1501
0
LINE
8
Black
10
27.1501
20
-27.1501
11
27.1215
21
-27.1215
0
LINE
8
Black
10
27.1215
20
-27.1215
11
27.1002
21
-27.1002
0
LINE
8
Black
10
27.1002
20
-27.1002
11
27.0889
21
-27.0889
0
LINE
8
Black
10
27.0889
20
-27.0889
11
27.1002
21
-27.1002
0
LINE
8
Black
10
27.1002
20
-27.1002
11
27.1215
21
-27.1215
0
LINE
8
Black
10
27.1215
20
-27.1215
11
27.1501
21
-27.1501
0
LINE
8
Black
10
27.1501
20
-27.1501
11
27.1827
21
-27.1827
0
LINE
8
Black
10
27.1827
20
-27.1827
11
27.727
21
-27.727
0
LINE
8
Black
10
27.727
20
-27.727
11
27.742
21
-27.742
0
LINE
8
Black
10
27.9923
20
-27.9923
11
28.0177
21
-28.0177
0
LINE
8
Black
10
28.0177
20
-28.0177
11
28.0342
21
-28.0342
0
LINE
8
Black
10
28.0342
20
-28.0342
11
28.04
21
-28.04
0
LINE
8
Black
10
28.04
20
-28.04
11
28.0342
21
-28.0342
0
LINE
8
Black
10
28.0342
20
-28.0342
11
28.0177
21
-28.0177
0
LINE
8
Black
10
28.0177
20
-28.0177
11
27.9923
21
-27.9923
0
LINE
8
Black
10
27.9923
20
-27.9923
11
27.9613
21
-27.9613
0
LINE
8
Black
10
27.9613
20
-27.9613
11
27.9282
21
-27.9282
0
LINE
8
Black
10
27.9282
20
-27.9282
11
27.8971
21
-27.8971
0
LINE
8
Black
10
27.8971
20
-27.8971
11
27.8717
21
-27.8717
0
LINE
8
Black
10
27.8717
20
-27.8717
11
27.8552
21
-27.8552
0
LINE
8
Black
10
27.8552
20
-27.8552
11
27.8495
21
-27.8495
0
LINE
8
Black
10
27.8495
20
-27.8495
11
27.4439
21
-27.4439
0
LINE
8
Black
10
27.4439
20
-27.4439
11
27.4493
21
-27.4493
0
LINE
8
Black
10
27.4493
20
-27.4493
11
27.4856
21
-27.4856
0
LINE
8
Black
10
27.4856
20
-27.4856
11
27.4951
21
-27.4951
0
LINE
8
Black
10
27.4951
20
-27.4951
11
27.4931
21
-27.4931
0
LINE
8
Black
10
27.4931
20
-27.4931
11
27.4799
21
-27.4799
0
LINE
8
Black
10
27.4799
20
-27.4799
11
27.4572
21
-27.4572
0
LINE
8
Black
10
27.4572
20
-27.4572
11
27.4276
21
-27.4276
0
LINE
8
Black
10
27.4276
20
-27.4276
11
27.3947
21
-27.3947
0
LINE
8
Black
10
27.3947
20
-27.3947
11
27.3625
21
-27.3625
0
LINE
8
Black
10
27.3625
20
-27.3625
11
27.3349
21
-27.3349
0
LINE
8
Black
10
27.3349
20
-27.3349
11
27.3152
21
-27.3152
0
LINE
8
Black
10
27.3152
20
-27.3152
11
27.2859
21
-27.2859
0
LINE
8
Black
10
27.2859
20
-27.2859
11
27.2309
21
-27.2309
0
LINE
8
Black
10
27.2309
20
-27.2309
11
27.1299
21
-27.1299
0
LINE
8
Black
10
27.1299
20
-27.1299
11
27.1261
21
-27.1261
0
LINE
8
Black
10
27.1261
20
-27.1261
11
27.1215
21
-27.1215
0
LINE
8
Black
10
27.1215
20
-27.1215
11
27.1142
21
-27.1142
0
LINE
8
Black
10
27.1142
20
-27.1142
11
27.106
21
-27.106
0
LINE
8
Black
10
27.106
20
-27.106
11
27.1036
21
-27.1036
0
LINE
8
Black
10
27.1036
20
-27.1036
11
27.1002
21
-27.1002
0
LINE
8
Black
10
27.1002
20
-27.1002
11
27.0963
21
-27.0963
0
LINE
8
Black
10
27.0963
20
-27.0963
11
27.0913
21
-27.0913
0
LINE
8
Black
10
27.0913
20
-27.0913
11
27.0907
21
-27.0907
0
LINE
8
Black
10
27.0907
20
-27.0907
11
27.0889
21
-27.0889
0
LINE
8
Black
10
27.0889
20
-27.0889
11
27.0877
21
-27.0877
0
LINE
8
Black
10
27.0877
20
-27.0877
11
27.0889
21
-27.0889
0
LINE
8
Black
10
27.0889
20
-27.0889
11
27.0928
21
-27.0928
0
LINE
8
Black
10
27.0928
20
-27.0928
11
27.0955
21
-27.0955
0
LINE
8
Black
10
27.0955
20
-27.0955
11
27.0984
21
-27.0984
0
LINE
8
Black
10
27.0984
20
-27.0984
11
27.1002
21
-27.1002
0
LINE
8
Black
10
27.1002
20
-27.1002
11
27.1075
21
-27.1075
0
LINE
8
Black
10
27.1075
20
-27.1075
11
27.1138
21
-27.1138
0
LINE
8
Black
10
27.1138
20
-27.1138
11
27.1181
21
-27.1181
0
LINE
8
Black
10
27.1181
20
-27.1181
11
27.1215
21
-27.1215
0
LINE
8
Black
10
27.1215
20
-27.1215
11
27.1313
21
-27.1313
0
LINE
8
Black
10
27.1313
20
-27.1313
11
27.1405
21
-27.1405
0
LINE
8
Black
10
27.1405
20
-27.1405
11
27.1456
21
-27.1456
0
LINE
8
Black
10
27.1456
20
-27.1456
11
27.1501
21
-27.1501
0
LINE
8
Black
10
27.1501
20
-27.1501
11
27.1613
21
-27.1613
0
LINE
8
Black
10
27.1613
20
-27.1613
11
27.1722
21
-27.1722
0
LINE
8
Black
10
27.1722
20
-27.1722
11
27.1775
21
-27.1775
0
LINE
8
Black
10
27.1775
20
-27.1775
11
27.1827
21
-27.1827
0
LINE
8
Black
10
27.1827
20
-27.1827
11
27.8495
21
-27.8495
0
LINE
8
Black
10
27.8495
20
-27.8495
11
27.8552
21
-27.8552
0
LINE
8
Black
10
27.8552
20
-27.8552
11
27.8717
21
-27.8717
0
LINE
8
Black
10
27.8717
20
-27.8717
11
27.8971
21
-27.8971
0
LINE
8
Black
10
27.8971
20
-27.8971
11
27.9282
21
-27.9282
0
LINE
8
Black
10
27.9282
20
-27.9282
11
27.9613
21
-27.9613
0
LINE
8
Black
10
27.9613
20
-27.9613
11
27.9923
21
-27.9923
0
LINE
8
Black
10
19.405
20
-19.405
11
19.4105
21
-19.4105
0
LINE
8
Black
10
19.4105
20
-19.4105
11
19.4212
21
-19.4212
0
LINE
8
Black
10
19.4212
20
-19.4212
11
19.4321
21
-19.4321
0
LINE
8
Black
10
19.4321
20
-19.4321
11
19.4369
21
-19.4369
0
LINE
8
Black
10
19.4369
20
-19.4369
11
19.4422
21
-19.4422
0
LINE
8
Black
10
19.4422
20
-19.4422
11
19.5147
21
-19.5147
0
LINE
8
Black
10
19.5147
20
-19.5147
11
19.527
21
-19.527
0
LINE
8
Black
10
19.527
20
-19.527
11
19.5395
21
-19.5395
0
LINE
8
Black
10
19.5395
20
-19.5395
11
19.5758
21
-19.5758
0
LINE
8
Black
10
19.5758
20
-19.5758
11
19.5845
21
-19.5845
0
LINE
8
Black
10
19.5845
20
-19.5845
11
19.5936
21
-19.5936
0
LINE
8
Black
10
19.5936
20
-19.5936
11
19.6299
21
-19.6299
0
LINE
8
Black
10
19.6299
20
-19.6299
11
19.6315
21
-19.6315
0
LINE
8
Black
10
19.6315
20
-19.6315
11
19.6342
21
-19.6342
0
LINE
8
Black
10
19.6342
20
-19.6342
11
19.6362
21
-19.6362
0
LINE
8
Black
10
19.6362
20
-19.6362
11
19.6393
21
-19.6393
0
LINE
8
Black
10
19.6393
20
-19.6393
11
19.639
21
-19.639
0
LINE
8
Black
10
19.639
20
-19.639
11
19.64
21
-19.64
0
LINE
8
Black
10
19.64
20
-19.64
11
19.6385
21
-19.6385
0
LINE
8
Black
10
19.6385
20
-19.6385
11
19.6357
21
-19.6357
0
LINE
8
Black
10
19.6357
20
-19.6357
11
19.6342
21
-19.6342
0
LINE
8
Black
10
19.6342
20
-19.6342
11
19.6301
21
-19.6301
0
LINE
8
Black
10
19.6301
20
-19.6301
11
19.6272
21
-19.6272
0
LINE
8
Black
10
19.6272
20
-19.6272
11
19.6218
21
-19.6218
0
LINE
8
Black
10
19.6218
20
-19.6218
11
19.6177
21
-19.6177
0
LINE
8
Black
10
19.6177
20
-19.6177
11
19.6113
21
-19.6113
0
LINE
8
Black
10
19.6113
20
-19.6113
11
19.6059
21
-19.6059
0
LINE
8
Black
10
19.6059
20
-19.6059
11
19.5987
21
-19.5987
0
LINE
8
Black
10
19.5987
20
-19.5987
11
19.5923
21
-19.5923
0
LINE
8
Black
10
19.5923
20
-19.5923
11
19.5845
21
-19.5845
0
LINE
8
Black
10
19.5845
20
-19.5845
11
19.5773
21
-19.5773
0
LINE
8
Black
10
19.5773
20
-19.5773
11
19.5691
21
-19.5691
0
LINE
8
Black
10
19.5691
20
-19.5691
11
19.5613
21
-19.5613
0
LINE
8
Black
10
19.5613
20
-19.5613
11
19.5529
21
-19.5529
0
LINE
8
Black
10
19.5529
20
-19.5529
11
19.5447
21
-19.5447
0
LINE
8
Black
10
19.5447
20
-19.5447
11
18.7827
21
-18.7827
0
LINE
8
Black
10
18.7827
20
-18.7827
11
18.7745
21
-18.7745
0
LINE
8
Black
10
18.7745
20
-18.7745
11
18.7662
21
-18.7662
0
LINE
8
Black
10
18.7662
20
-18.7662
11
18.7583
21
-18.7583
0
LINE
8
Black
10
18.7583
20
-18.7583
11
18.7501
21
-18.7501
0
LINE
8
Black
10
18.7501
20
-18.7501
11
18.7429
21
-18.7429
0
LINE
8
Black
10
18.7429
20
-18.7429
11
18.7351
21
-18.7351
0
LINE
8
Black
10
18.7351
20
-18.7351
11
18.7287
21
-18.7287
0
LINE
8
Black
10
18.7287
20
-18.7287
11
18.7215
21
-18.7215
0
LINE
8
Black
10
18.7215
20
-18.7215
11
18.7161
21
-18.7161
0
LINE
8
Black
10
18.7161
20
-18.7161
11
18.7097
21
-18.7097
0
LINE
8
Black
10
18.7097
20
-18.7097
11
18.7056
21
-18.7056
0
LINE
8
Black
10
18.7056
20
-18.7056
11
18.7002
21
-18.7002
0
LINE
8
Black
10
18.7002
20
-18.7002
11
18.6974
21
-18.6974
0
LINE
8
Black
10
18.6974
20
-18.6974
11
18.6932
21
-18.6932
0
LINE
8
Black
10
18.6932
20
-18.6932
11
18.6918
21
-18.6918
0
LINE
8
Black
10
18.6918
20
-18.6918
11
18.6889
21
-18.6889
0
LINE
8
Black
10
18.6889
20
-18.6889
11
18.6875
21
-18.6875
0
LINE
8
Black
10
18.6875
20
-18.6875
11
18.6884
21
-18.6884
0
LINE
8
Black
10
18.6884
20
-18.6884
11
18.6881
21
-18.6881
0
LINE
8
Black
10
18.6881
20
-18.6881
11
18.6913
21
-18.6913
0
LINE
8
Black
10
18.6913
20
-18.6913
11
18.6932
21
-18.6932
0
LINE
8
Black
10
18.6932
20
-18.6932
11
18.696
21
-18.696
0
LINE
8
Black
10
18.696
20
-18.696
11
18.6975
21
-18.6975
0
LINE
8
Black
10
18.6975
20
-18.6975
11
18.7338
21
-18.7338
0
LINE
8
Black
10
18.7338
20
-18.7338
11
18.7429
21
-18.7429
0
LINE
8
Black
10
18.7429
20
-18.7429
11
18.7516
21
-18.7516
0
LINE
8
Black
10
18.7516
20
-18.7516
11
18.7879
21
-18.7879
0
LINE
8
Black
10
18.7879
20
-18.7879
11
18.8004
21
-18.8004
0
LINE
8
Black
10
18.8004
20
-18.8004
11
18.8127
21
-18.8127
0
LINE
8
Black
10
18.8127
20
-18.8127
11
18.8853
21
-18.8853
0
LINE
8
Black
10
18.8853
20
-18.8853
11
18.8905
21
-18.8905
0
LINE
8
Black
10
18.8905
20
-18.8905
11
18.8953
21
-18.8953
0
LINE
8
Black
10
18.8953
20
-18.8953
11
18.9063
21
-18.9063
0
LINE
8
Black
10
18.9063
20
-18.9063
11
18.917
21
-18.917
0
LINE
8
Black
10
18.917
20
-18.917
11
18.9225
21
-18.9225
0
LINE
8
Black
10
18.9225
20
-18.9225
11
18.9279
21
-18.9279
0
LINE
8
Black
10
18.9279
20
-18.9279
11
19.0004
21
-19.0004
0
LINE
8
Black
10
19.0004
20
-19.0004
11
19.0058
21
-19.0058
0
LINE
8
Black
10
19.0058
20
-19.0058
11
19.0113
21
-19.0113
0
LINE
8
Black
10
19.0113
20
-19.0113
11
19.022
21
-19.022
0
LINE
8
Black
10
19.022
20
-19.022
11
19.033
21
-19.033
0
LINE
8
Black
10
19.033
20
-19.033
11
19.0378
21
-19.0378
0
LINE
8
Black
10
19.0378
20
-19.0378
11
19.043
21
-19.043
0
LINE
8
Black
10
19.043
20
-19.043
11
19.1156
21
-19.1156
0
LINE
8
Black
10
19.1156
20
-19.1156
11
19.1252
21
-19.1252
0
LINE
8
Black
10
19.1252
20
-19.1252
11
19.1508
21
-19.1508
0
LINE
8
Black
10
19.1508
20
-19.1508
11
19.1633
21
-19.1633
0
LINE
8
Black
10
19.1633
20
-19.1633
11
19.1755
21
-19.1755
0
LINE
8
Black
10
19.1755
20
-19.1755
11
19.2481
21
-19.2481
0
LINE
8
Black
10
19.2481
20
-19.2481
11
19.2534
21
-19.2534
0
LINE
8
Black
10
19.2534
20
-19.2534
11
19.2581
21
-19.2581
0
LINE
8
Black
10
19.2581
20
-19.2581
11
19.2691
21
-19.2691
0
LINE
8
Black
10
19.2691
20
-19.2691
11
19.2798
21
-19.2798
0
LINE
8
Black
10
19.2798
20
-19.2798
11
19.2853
21
-19.2853
0
LINE
8
Black
10
19.2853
20
-19.2853
11
19.2907
21
-19.2907
0
LINE
8
Black
10
19.2907
20
-19.2907
11
19.3996
21
-19.3996
0
LINE
8
Black
10
19.3996
20
-19.3996
11
19.405
21
-19.405
0
LINE
8
Black
10
37.9917
20
-37.9917
11
38.0005
21
-38.0005
0
LINE
8
Black
10
38.0005
20
-38.0005
11
38.0176
21
-38.0176
0
LINE
8
Black
10
38.0176
20
-38.0176
11
38.0352
21
-38.0352
0
LINE
8
Black
10
38.0352
20
-38.0352
11
38.0428
21
-38.0428
0
LINE
8
Black
10
38.0428
20
-38.0428
11
38.0512
21
-38.0512
0
LINE
8
Black
10
38.0512
20
-38.0512
11
38.1964
21
-38.1964
0
LINE
8
Black
10
38.1964
20
-38.1964
11
38.216
21
-38.216
0
LINE
8
Black
10
38.216
20
-38.216
11
38.236
21
-38.236
0
LINE
8
Black
10
38.236
20
-38.236
11
38.3086
21
-38.3086
0
LINE
8
Black
10
38.3086
20
-38.3086
11
38.3225
21
-38.3225
0
LINE
8
Black
10
38.3225
20
-38.3225
11
38.3371
21
-38.3371
0
LINE
8
Black
10
38.3371
20
-38.3371
11
38.4097
21
-38.4097
0
LINE
8
Black
10
38.4097
20
-38.4097
11
38.4122
21
-38.4122
0
LINE
8
Black
10
38.4122
20
-38.4122
11
38.4166
21
-38.4166
0
LINE
8
Black
10
38.4166
20
-38.4166
11
38.4197
21
-38.4197
0
LINE
8
Black
10
38.4197
20
-38.4197
11
38.4248
21
-38.4248
0
LINE
8
Black
10
38.4248
20
-38.4248
11
38.4242
21
-38.4242
0
LINE
8
Black
10
38.4242
20
-38.4242
11
38.4258
21
-38.4258
0
LINE
8
Black
10
38.4258
20
-38.4258
11
38.4215
21
-38.4215
0
LINE
8
Black
10
38.4215
20
-38.4215
11
38.4179
21
-38.4179
0
LINE
8
Black
10
38.4179
20
-38.4179
11
38.3454
21
-38.3454
0
LINE
8
Black
10
38.3454
20
-38.3454
11
38.3412
21
-38.3412
0
LINE
8
Black
10
38.3412
20
-38.3412
11
38.3389
21
-38.3389
0
LINE
8
Black
10
38.3389
20
-38.3389
11
38.3287
21
-38.3287
0
LINE
8
Black
10
38.3287
20
-38.3287
11
38.3202
21
-38.3202
0
LINE
8
Black
10
38.3202
20
-38.3202
11
38.3136
21
-38.3136
0
LINE
8
Black
10
38.3136
20
-38.3136
11
38.3086
21
-38.3086
0
LINE
8
Black
10
38.3086
20
-38.3086
11
37.6979
21
-37.6979
0
LINE
8
Black
10
37.6979
20
-37.6979
11
38.2734
21
-38.2734
0
LINE
8
Black
10
38.2734
20
-38.2734
11
38.3255
21
-38.3255
0
LINE
8
Black
10
38.3255
20
-38.3255
11
38.3713
21
-38.3713
0
LINE
8
Black
10
38.3713
20
-38.3713
11
38.4053
21
-38.4053
0
LINE
8
Black
10
38.4053
20
-38.4053
11
38.4234
21
-38.4234
0
LINE
8
Black
10
38.4234
20
-38.4234
11
38.4053
21
-38.4053
0
LINE
8
Black
10
38.4053
20
-38.4053
11
38.3713
21
-38.3713
0
LINE
8
Black
10
38.3713
20
-38.3713
11
38.3255
21
-38.3255
0
LINE
8
Black
10
38.3255
20
-38.3255
11
38.2734
21
-38.2734
0
LINE
8
Black
10
38.2734
20
-38.2734
11
37.3299
21
-37.3299
0
LINE
8
Black
10
37.3299
20
-37.3299
11
37.3103
21
-37.3103
0
LINE
8
Black
10
37.3103
20
-37.3103
11
37.2905
21
-37.2905
0
LINE
8
Black
10
37.2905
20
-37.2905
11
37.2844
21
-37.2844
0
LINE
8
Black
10
37.2844
20
-37.2844
11
37.2778
21
-37.2778
0
LINE
8
Black
10
37.2778
20
-37.2778
11
37.2606
21
-37.2606
0
LINE
8
Black
10
37.2606
20
-37.2606
11
37.2425
21
-37.2425
0
LINE
8
Black
10
37.2425
20
-37.2425
11
37.2378
21
-37.2378
0
LINE
8
Black
10
37.2378
20
-37.2378
11
37.232
21
-37.232
0
LINE
8
Black
10
37.232
20
-37.232
11
37.2192
21
-37.2192
0
LINE
8
Black
10
37.2192
20
-37.2192
11
37.2051
21
-37.2051
0
LINE
8
Black
10
37.2051
20
-37.2051
11
37.2023
21
-37.2023
0
LINE
8
Black
10
37.2023
20
-37.2023
11
37.1979
21
-37.1979
0
LINE
8
Black
10
37.1979
20
-37.1979
11
37.1911
21
-37.1911
0
LINE
8
Black
10
37.1911
20
-37.1911
11
37.1827
21
-37.1827
0
LINE
8
Black
10
37.1827
20
-37.1827
11
37.1821
21
-37.1821
0
LINE
8
Black
10
37.1821
20
-37.1821
11
37.1798
21
-37.1798
0
LINE
8
Black
10
37.1798
20
-37.1798
11
37.1781
21
-37.1781
0
LINE
8
Black
10
37.1781
20
-37.1781
11
37.1798
21
-37.1798
0
LINE
8
Black
10
37.1798
20
-37.1798
11
37.1867
21
-37.1867
0
LINE
8
Black
10
37.1867
20
-37.1867
11
37.1918
21
-37.1918
0
LINE
8
Black
10
37.1918
20
-37.1918
11
37.1957
21
-37.1957
0
LINE
8
Black
10
37.1957
20
-37.1957
11
37.1979
21
-37.1979
0
LINE
8
Black
10
37.1979
20
-37.1979
11
37.2107
21
-37.2107
0
LINE
8
Black
10
37.2107
20
-37.2107
11
37.2222
21
-37.2222
0
LINE
8
Black
10
37.2222
20
-37.2222
11
38.0676
21
-38.0676
0
LINE
8
Black
10
38.0676
20
-38.0676
11
38.121
21
-38.121
0
LINE
8
Black
10
38.121
20
-38.121
11
38.0755
21
-38.0755
0
LINE
8
Black
10
38.0755
20
-38.0755
11
38.0379
21
-38.0379
0
LINE
8
Black
10
38.0379
20
-38.0379
11
37.9471
21
-37.9471
0
LINE
8
Black
10
37.9471
20
-37.9471
11
37.6562
21
-37.6562
0
LINE
8
Black
10
37.6562
20
-37.6562
11
37.5653
21
-37.5653
0
LINE
8
Black
10
37.5653
20
-37.5653
11
37.5103
21
-37.5103
0
LINE
8
Black
10
37.5103
20
-37.5103
11
37.4669
21
-37.4669
0
LINE
8
Black
10
37.4669
20
-37.4669
11
37.4158
21
-37.4158
0
LINE
8
Black
10
37.4158
20
-37.4158
11
37.3631
21
-37.3631
0
LINE
8
Black
10
37.3631
20
-37.3631
11
37.3151
21
-37.3151
0
LINE
8
Black
10
37.3151
20
-37.3151
11
37.2777
21
-37.2777
0
LINE
8
Black
10
37.2777
20
-37.2777
11
37.2553
21
-37.2553
0
LINE
8
Black
10
37.2553
20
-37.2553
11
37.2507
21
-37.2507
0
LINE
8
Black
10
37.2507
20
-37.2507
11
37.2644
21
-37.2644
0
LINE
8
Black
10
37.2644
20
-37.2644
11
37.2947
21
-37.2947
0
LINE
8
Black
10
37.2947
20
-37.2947
11
37.3673
21
-37.3673
0
LINE
8
Black
10
37.3673
20
-37.3673
11
37.3873
21
-37.3873
0
LINE
8
Black
10
37.3873
20
-37.3873
11
37.4069
21
-37.4069
0
LINE
8
Black
10
37.4069
20
-37.4069
11
37.5521
21
-37.5521
0
LINE
8
Black
10
37.5521
20
-37.5521
11
37.5605
21
-37.5605
0
LINE
8
Black
10
37.5605
20
-37.5605
11
37.5681
21
-37.5681
0
LINE
8
Black
10
37.5681
20
-37.5681
11
37.5857
21
-37.5857
0
LINE
8
Black
10
37.5857
20
-37.5857
11
37.6028
21
-37.6028
0
LINE
8
Black
10
37.6028
20
-37.6028
11
37.6116
21
-37.6116
0
LINE
8
Black
10
37.6116
20
-37.6116
11
37.6202
21
-37.6202
0
LINE
8
Black
10
37.6202
20
-37.6202
11
37.9831
21
-37.9831
0
LINE
8
Black
10
37.9831
20
-37.9831
11
37.9917
21
-37.9917
0
LINE
8
Black
10
36.8256
20
-36.8256
11
36.8661
21
-36.8661
0
LINE
8
Black
10
36.8661
20
-36.8661
11
36.8926
21
-36.8926
0
LINE
8
Black
10
36.8926
20
-36.8926
11
36.9018
21
-36.9018
0
LINE
8
Black
10
36.9018
20
-36.9018
11
36.8975
21
-36.8975
0
LINE
8
Black
10
36.8975
20
-36.8975
11
36.8939
21
-36.8939
0
LINE
8
Black
10
36.8939
20
-36.8939
11
36.8214
21
-36.8214
0
LINE
8
Black
10
36.8214
20
-36.8214
11
36.8172
21
-36.8172
0
LINE
8
Black
10
36.8172
20
-36.8172
11
36.8149
21
-36.8149
0
LINE
8
Black
10
36.8149
20
-36.8149
11
36.8047
21
-36.8047
0
LINE
8
Black
10
36.8047
20
-36.8047
11
36.7962
21
-36.7962
0
LINE
8
Black
10
36.7962
20
-36.7962
11
36.7896
21
-36.7896
0
LINE
8
Black
10
36.7896
20
-36.7896
11
36.7846
21
-36.7846
0
LINE
8
Black
10
36.7846
20
-36.7846
11
36.6394
21
-36.6394
0
LINE
8
Black
10
36.6394
20
-36.6394
11
36.6322
21
-36.6322
0
LINE
8
Black
10
36.6322
20
-36.6322
11
36.6264
21
-36.6264
0
LINE
8
Black
10
36.6264
20
-36.6264
11
36.6107
21
-36.6107
0
LINE
8
Black
10
36.6107
20
-36.6107
11
36.5961
21
-36.5961
0
LINE
8
Black
10
36.5961
20
-36.5961
11
36.5876
21
-36.5876
0
LINE
8
Black
10
36.5876
20
-36.5876
11
36.5798
21
-36.5798
0
LINE
8
Black
10
36.5798
20
-36.5798
11
36.3621
21
-36.3621
0
LINE
8
Black
10
36.3621
20
-36.3621
11
36.338
21
-36.338
0
LINE
8
Black
10
36.338
20
-36.338
11
36.3139
21
-36.3139
0
LINE
8
Black
10
36.3139
20
-36.3139
11
36.1688
21
-36.1688
0
LINE
8
Black
10
36.1688
20
-36.1688
11
36.1167
21
-36.1167
0
LINE
8
Black
10
36.1167
20
-36.1167
11
36.0708
21
-36.0708
0
LINE
8
Black
10
36.0708
20
-36.0708
11
36.0368
21
-36.0368
0
LINE
8
Black
10
36.0368
20
-36.0368
11
36.0187
21
-36.0187
0
LINE
8
Black
10
36.0187
20
-36.0187
11
36.0368
21
-36.0368
0
LINE
8
Black
10
36.0368
20
-36.0368
11
36.0708
21
-36.0708
0
LINE
8
Black
10
36.0708
20
-36.0708
11
36.1167
21
-36.1167
0
LINE
8
Black
10
36.1167
20
-36.1167
11
36.1688
21
-36.1688
0
LINE
8
Black
10
36.1688
20
-36.1688
11
36.2892
21
-36.2892
0
LINE
8
Black
10
36.2892
20
-36.2892
11
36.4493
21
-36.4493
0
LINE
8
Black
10
36.4493
20
-36.4493
11
36.5436
21
-36.5436
0
LINE
8
Black
10
36.5436
20
-36.5436
11
36.597
21
-36.597
0
LINE
8
Black
10
36.597
20
-36.597
11
36.6062
21
-36.6062
0
LINE
8
Black
10
36.6062
20
-36.6062
11
36.6326
21
-36.6326
0
LINE
8
Black
10
36.6326
20
-36.6326
11
36.6732
21
-36.6732
0
LINE
8
Black
10
36.6732
20
-36.6732
11
36.7229
21
-36.7229
0
LINE
8
Black
10
36.7229
20
-36.7229
11
36.7758
21
-36.7758
0
LINE
8
Black
10
36.7758
20
-36.7758
11
36.8256
21
-36.8256
  0
ENDSEC
  0
EOF
