  0
SECTION
  2
HEADER
  9
$ANGBASE
  50
0.0
  9
$ANGDIR
  70
  1
  9
$MEASUREMENT
  70
0
  0
ENDSEC
  0
SECTION
  2
TABLES
  0
TABLE
  2
LTYPE
  70
1
  0
LTYPE
  2
CONTINUOUS
  70
0
  3
Solid line
  72
65
  73
0
  40
0.0
  0
ENDTAB
  0
TABLE
  2
STYLE
  70
4
  0
STYLE
  2
KICAD
  70
0
  40
0
  41
1
  42
1
  50
0
  71
0
  3
isocp.shx
  0
STYLE
  2
KICADB
  70
0
  40
0
  41
1
  42
1
  50
0
  71
0
  3
isocp.shx
  0
STYLE
  2
KICADI
  70
0
  40
0
  41
1
  42
1
  50
15
  71
0
  3
isocp.shx
  0
STYLE
  2
KICADBI
  70
0
  40
0
  41
1
  42
1
  50
15
  71
0
  3
isocp.shx
  0
ENDTAB
  0
TABLE
  2
LAYER
  70
30
  0
LAYER
  2
BLACK
  70
0
  62
7
  6
CONTINUOUS
  0
LAYER
  2
GRAY1
  70
0
  62
251
  6
CONTINUOUS
  0
LAYER
  2
GRAY2
  70
0
  62
8
  6
CONTINUOUS
  0
LAYER
  2
GRAY3
  70
0
  62
9
  6
CONTINUOUS
  0
LAYER
  2
WHITE
  70
0
  62
7
  6
CONTINUOUS
  0
LAYER
  2
LYELLOW
  70
0
  62
51
  6
CONTINUOUS
  0
LAYER
  2
BLUE1
  70
0
  62
178
  6
CONTINUOUS
  0
LAYER
  2
GREEN1
  70
0
  62
98
  6
CONTINUOUS
  0
LAYER
  2
CYAN1
  70
0
  62
138
  6
CONTINUOUS
  0
LAYER
  2
RED1
  70
0
  62
18
  6
CONTINUOUS
  0
LAYER
  2
MAGENTA1
  70
0
  62
228
  6
CONTINUOUS
  0
LAYER
  2
BROWN1
  70
0
  62
58
  6
CONTINUOUS
  0
LAYER
  2
BLUE2
  70
0
  62
5
  6
CONTINUOUS
  0
LAYER
  2
GREEN2
  70
0
  62
3
  6
CONTINUOUS
  0
LAYER
  2
CYAN2
  70
0
  62
4
  6
CONTINUOUS
  0
LAYER
  2
RED2
  70
0
  62
1
  6
CONTINUOUS
  0
LAYER
  2
MAGENTA2
  70
0
  62
6
  6
CONTINUOUS
  0
LAYER
  2
BROWN2
  70
0
  62
54
  6
CONTINUOUS
  0
LAYER
  2
BLUE3
  70
0
  62
171
  6
CONTINUOUS
  0
LAYER
  2
GREEN3
  70
0
  62
91
  6
CONTINUOUS
  0
LAYER
  2
CYAN3
  70
0
  62
131
  6
CONTINUOUS
  0
LAYER
  2
RED3
  70
0
  62
11
  6
CONTINUOUS
  0
LAYER
  2
MAGENTA3
  70
0
  62
221
  6
CONTINUOUS
  0
LAYER
  2
YELLOW3
  70
0
  62
2
  6
CONTINUOUS
  0
LAYER
  2
BLUE4
  70
0
  62
5
  6
CONTINUOUS
  0
LAYER
  2
GREEN4
  70
0
  62
3
  6
CONTINUOUS
  0
LAYER
  2
CYAN4
  70
0
  62
4
  6
CONTINUOUS
  0
LAYER
  2
RED4
  70
0
  62
1
  6
CONTINUOUS
  0
LAYER
  2
MAGENTA4
  70
0
  62
6
  6
CONTINUOUS
  0
LAYER
  2
YELLOW4
  70
0
  62
2
  6
CONTINUOUS
  0
ENDTAB
  0
ENDSEC
  0
SECTION
  2
ENTITIES
0
LINE
8
Black
10
41.5995
20
-41.5995
11
40.725
21
-40.725
0
LINE
8
Black
10
40.725
20
-40.725
11
42.7884
21
-42.7884
0
LINE
8
Black
10
42.7884
20
-42.7884
11
42.7915
21
-42.7915
0
LINE
8
Black
10
42.7915
20
-42.7915
11
42.7958
21
-42.7958
0
LINE
8
Black
10
42.7958
20
-42.7958
11
42.8039
21
-42.8039
0
LINE
8
Black
10
42.8039
20
-42.8039
11
42.8133
21
-42.8133
0
LINE
8
Black
10
42.8133
20
-42.8133
11
42.8147
21
-42.8147
0
LINE
8
Black
10
42.8147
20
-42.8147
11
42.8175
21
-42.8175
0
LINE
8
Black
10
42.8175
20
-42.8175
11
42.8203
21
-42.8203
0
LINE
8
Black
10
42.8203
20
-42.8203
11
42.8245
21
-42.8245
0
LINE
8
Black
10
42.8245
20
-42.8245
11
42.824
21
-42.824
0
LINE
8
Black
10
42.824
20
-42.824
11
42.825
21
-42.825
0
LINE
8
Black
10
42.825
20
-42.825
11
42.824
21
-42.824
0
LINE
8
Black
10
42.824
20
-42.824
11
42.8245
21
-42.8245
0
LINE
8
Black
10
42.8245
20
-42.8245
11
42.8203
21
-42.8203
0
LINE
8
Black
10
42.8203
20
-42.8203
11
42.8175
21
-42.8175
0
LINE
8
Black
10
42.8175
20
-42.8175
11
42.8147
21
-42.8147
0
LINE
8
Black
10
42.8147
20
-42.8147
11
42.8133
21
-42.8133
0
LINE
8
Black
10
42.8133
20
-42.8133
11
42.8039
21
-42.8039
0
LINE
8
Black
10
42.8039
20
-42.8039
11
42.7958
21
-42.7958
0
LINE
8
Black
10
42.7958
20
-42.7958
11
42.7915
21
-42.7915
0
LINE
8
Black
10
42.7915
20
-42.7915
11
42.7884
21
-42.7884
0
LINE
8
Black
10
42.7884
20
-42.7884
11
41.9884
21
-41.9884
0
LINE
8
Black
10
41.9884
20
-41.9884
11
41.9839
21
-41.9839
0
LINE
8
Black
10
41.9839
20
-41.9839
11
41.9803
21
-41.9803
0
LINE
8
Black
10
41.9803
20
-41.9803
11
41.9662
21
-41.9662
0
LINE
8
Black
10
41.9662
20
-41.9662
11
41.9528
21
-41.9528
0
LINE
8
Black
10
41.9528
20
-41.9528
11
41.9475
21
-41.9475
0
LINE
8
Black
10
41.9475
20
-41.9475
11
41.9428
21
-41.9428
0
LINE
8
Black
10
41.9428
20
-41.9428
11
41.9267
21
-41.9267
0
LINE
8
Black
10
41.9267
20
-41.9267
11
41.9109
21
-41.9109
0
LINE
8
Black
10
41.9109
20
-41.9109
11
41.9054
21
-41.9054
0
LINE
8
Black
10
41.9054
20
-41.9054
11
41.9
21
-41.9
0
LINE
8
Black
10
41.9
20
-41.9
11
29.5
21
-29.5
0
LINE
8
Black
10
29.5
20
-29.5
11
29.4946
21
-29.4946
0
LINE
8
Black
10
29.4946
20
-29.4946
11
29.4891
21
-29.4891
0
LINE
8
Black
10
29.4891
20
-29.4891
11
29.4733
21
-29.4733
0
LINE
8
Black
10
29.4733
20
-29.4733
11
29.4572
21
-29.4572
0
LINE
8
Black
10
29.4572
20
-29.4572
11
29.4525
21
-29.4525
0
LINE
8
Black
10
29.4525
20
-29.4525
11
29.4472
21
-29.4472
0
LINE
8
Black
10
29.4472
20
-29.4472
11
29.4338
21
-29.4338
0
LINE
8
Black
10
29.4338
20
-29.4338
11
29.4197
21
-29.4197
0
LINE
8
Black
10
29.4197
20
-29.4197
11
29.4161
21
-29.4161
0
LINE
8
Black
10
29.4161
20
-29.4161
11
29.4116
21
-29.4116
0
LINE
8
Black
10
29.4116
20
-29.4116
11
28.5116
21
-28.5116
0
LINE
8
Black
10
28.5116
20
-28.5116
11
28.5085
21
-28.5085
0
LINE
8
Black
10
28.5085
20
-28.5085
11
28.5042
21
-28.5042
0
LINE
8
Black
10
28.5042
20
-28.5042
11
28.4961
21
-28.4961
0
LINE
8
Black
10
28.4961
20
-28.4961
11
28.4867
21
-28.4867
0
LINE
8
Black
10
28.4867
20
-28.4867
11
28.4853
21
-28.4853
0
LINE
8
Black
10
28.4853
20
-28.4853
11
28.4825
21
-28.4825
0
LINE
8
Black
10
28.4825
20
-28.4825
11
28.4797
21
-28.4797
0
LINE
8
Black
10
28.4797
20
-28.4797
11
28.4755
21
-28.4755
0
LINE
8
Black
10
28.4755
20
-28.4755
11
28.476
21
-28.476
0
LINE
8
Black
10
28.476
20
-28.476
11
28.475
21
-28.475
0
LINE
8
Black
10
28.475
20
-28.475
11
27.7086
21
-27.7086
0
LINE
8
Black
10
27.7086
20
-27.7086
11
26.454
21
-26.454
0
LINE
8
Black
10
26.454
20
-26.454
11
25.946
21
-25.946
0
LINE
8
Black
10
25.946
20
-25.946
11
26.454
21
-26.454
0
LINE
8
Black
10
26.454
20
-26.454
11
27.7604
21
-27.7604
0
LINE
8
Black
10
27.7604
20
-27.7604
11
27.7658
21
-27.7658
0
LINE
8
Black
10
27.7658
20
-27.7658
11
27.7713
21
-27.7713
0
LINE
8
Black
10
27.7713
20
-27.7713
11
27.7871
21
-27.7871
0
LINE
8
Black
10
27.7871
20
-27.7871
11
27.8032
21
-27.8032
0
LINE
8
Black
10
27.8032
20
-27.8032
11
27.8079
21
-27.8079
0
LINE
8
Black
10
27.8079
20
-27.8079
11
27.8133
21
-27.8133
0
LINE
8
Black
10
27.8133
20
-27.8133
11
27.8266
21
-27.8266
0
LINE
8
Black
10
27.8266
20
-27.8266
11
27.8408
21
-27.8408
0
LINE
8
Black
10
27.8408
20
-27.8408
11
27.8443
21
-27.8443
0
LINE
8
Black
10
27.8443
20
-27.8443
11
27.8488
21
-27.8488
0
LINE
8
Black
10
27.8488
20
-27.8488
11
28.6884
21
-28.6884
0
LINE
8
Black
10
28.6884
20
-28.6884
11
28.6915
21
-28.6915
0
LINE
8
Black
10
28.6915
20
-28.6915
11
28.6958
21
-28.6958
0
LINE
8
Black
10
28.6958
20
-28.6958
11
28.7039
21
-28.7039
0
LINE
8
Black
10
28.7039
20
-28.7039
11
28.7133
21
-28.7133
0
LINE
8
Black
10
28.7133
20
-28.7133
11
28.7147
21
-28.7147
0
LINE
8
Black
10
28.7147
20
-28.7147
11
28.7175
21
-28.7175
0
LINE
8
Black
10
28.7175
20
-28.7175
11
28.7203
21
-28.7203
0
LINE
8
Black
10
28.7203
20
-28.7203
11
28.7245
21
-28.7245
0
LINE
8
Black
10
28.7245
20
-28.7245
11
28.724
21
-28.724
0
LINE
8
Black
10
28.724
20
-28.724
11
28.725
21
-28.725
0
LINE
8
Black
10
28.725
20
-28.725
11
29.5518
21
-29.5518
0
LINE
8
Black
10
29.5518
20
-29.5518
11
41.8482
21
-41.8482
0
LINE
8
Black
10
41.8482
20
-41.8482
11
42.575
21
-42.575
0
LINE
8
Black
10
42.575
20
-42.575
11
40.5116
21
-40.5116
0
LINE
8
Black
10
40.5116
20
-40.5116
11
40.5085
21
-40.5085
0
LINE
8
Black
10
40.5085
20
-40.5085
11
40.5042
21
-40.5042
0
LINE
8
Black
10
40.5042
20
-40.5042
11
40.4961
21
-40.4961
0
LINE
8
Black
10
40.4961
20
-40.4961
11
40.4867
21
-40.4867
0
LINE
8
Black
10
40.4867
20
-40.4867
11
40.4853
21
-40.4853
0
LINE
8
Black
10
40.4853
20
-40.4853
11
40.4825
21
-40.4825
0
LINE
8
Black
10
40.4825
20
-40.4825
11
40.4797
21
-40.4797
0
LINE
8
Black
10
40.4797
20
-40.4797
11
40.4755
21
-40.4755
0
LINE
8
Black
10
40.4755
20
-40.4755
11
40.476
21
-40.476
0
LINE
8
Black
10
40.476
20
-40.476
11
40.475
21
-40.475
0
LINE
8
Black
10
40.475
20
-40.475
11
39.6005
21
-39.6005
0
LINE
8
Black
10
39.6005
20
-39.6005
11
41.5995
21
-41.5995
0
LINE
8
Black
10
26.4734
20
-26.4734
11
29.2174
21
-29.2174
0
LINE
8
Black
10
29.2174
20
-29.2174
11
29.2228
21
-29.2228
0
LINE
8
Black
10
29.2228
20
-29.2228
11
29.2283
21
-29.2283
0
LINE
8
Black
10
29.2283
20
-29.2283
11
29.244
21
-29.244
0
LINE
8
Black
10
29.244
20
-29.244
11
29.2601
21
-29.2601
0
LINE
8
Black
10
29.2601
20
-29.2601
11
29.2649
21
-29.2649
0
LINE
8
Black
10
29.2649
20
-29.2649
11
29.2702
21
-29.2702
0
LINE
8
Black
10
29.2702
20
-29.2702
11
29.2836
21
-29.2836
0
LINE
8
Black
10
29.2836
20
-29.2836
11
29.2977
21
-29.2977
0
LINE
8
Black
10
29.2977
20
-29.2977
11
29.3012
21
-29.3012
0
LINE
8
Black
10
29.3012
20
-29.3012
11
29.3057
21
-29.3057
0
LINE
8
Black
10
29.3057
20
-29.3057
11
34.5873
21
-34.5873
0
LINE
8
Black
10
34.5873
20
-34.5873
11
34.5905
21
-34.5905
0
LINE
8
Black
10
34.5905
20
-34.5905
11
34.5947
21
-34.5947
0
LINE
8
Black
10
34.5947
20
-34.5947
11
34.6028
21
-34.6028
0
LINE
8
Black
10
34.6028
20
-34.6028
11
34.6122
21
-34.6122
0
LINE
8
Black
10
34.6122
20
-34.6122
11
34.6136
21
-34.6136
0
LINE
8
Black
10
34.6136
20
-34.6136
11
34.6164
21
-34.6164
0
LINE
8
Black
10
34.6164
20
-34.6164
11
34.6192
21
-34.6192
0
LINE
8
Black
10
34.6192
20
-34.6192
11
34.6234
21
-34.6234
0
LINE
8
Black
10
34.6234
20
-34.6234
11
34.623
21
-34.623
0
LINE
8
Black
10
34.623
20
-34.623
11
34.6239
21
-34.6239
0
LINE
8
Black
10
34.6239
20
-34.6239
11
35.4984
21
-35.4984
0
LINE
8
Black
10
35.4984
20
-35.4984
11
39.6005
21
-39.6005
0
LINE
8
Black
10
39.6005
20
-39.6005
11
41.5995
21
-41.5995
0
LINE
8
Black
10
41.5995
20
-41.5995
11
39.6005
21
-39.6005
0
LINE
8
Black
10
39.6005
20
-39.6005
11
35.4984
21
-35.4984
0
LINE
8
Black
10
35.4984
20
-35.4984
11
33.4994
21
-33.4994
0
LINE
8
Black
10
33.4994
20
-33.4994
11
34.3739
21
-34.3739
0
LINE
8
Black
10
34.3739
20
-34.3739
11
29.1656
21
-29.1656
0
LINE
8
Black
10
29.1656
20
-29.1656
11
26.4734
21
-26.4734
0
LINE
8
Black
10
26.4734
20
-26.4734
11
25.9654
21
-25.9654
0
LINE
8
Black
10
25.9654
20
-25.9654
11
26.4734
21
-26.4734
0
LINE
8
Black
10
23.5482
20
-23.5482
11
23.6786
21
-23.6786
0
LINE
8
Black
10
23.6786
20
-23.6786
11
23.7754
21
-23.7754
0
LINE
8
Black
10
23.7754
20
-23.7754
11
23.8269
21
-23.8269
0
LINE
8
Black
10
23.8269
20
-23.8269
11
23.7754
21
-23.7754
0
LINE
8
Black
10
23.7754
20
-23.7754
11
23.6786
21
-23.6786
0
LINE
8
Black
10
23.6786
20
-23.6786
11
23.5482
21
-23.5482
0
LINE
8
Black
10
23.5482
20
-23.5482
11
23.4
21
-23.4
0
LINE
8
Black
10
23.4
20
-23.4
11
23.2518
21
-23.2518
0
LINE
8
Black
10
23.2518
20
-23.2518
11
23.1214
21
-23.1214
0
LINE
8
Black
10
23.1214
20
-23.1214
11
23.0246
21
-23.0246
0
LINE
8
Black
10
23.0246
20
-23.0246
11
22.9731
21
-22.9731
0
LINE
8
Black
10
22.9731
20
-22.9731
11
23.0246
21
-23.0246
0
LINE
8
Black
10
23.0246
20
-23.0246
11
23.1214
21
-23.1214
0
LINE
8
Black
10
23.1214
20
-23.1214
11
23.2518
21
-23.2518
0
LINE
8
Black
10
23.2518
20
-23.2518
11
23.4
21
-23.4
0
LINE
8
Black
10
23.4
20
-23.4
11
23.5482
21
-23.5482
0
LINE
8
Black
10
26.3574
20
-26.3574
11
26.4341
21
-26.4341
0
LINE
8
Black
10
26.4341
20
-26.4341
11
26.491
21
-26.491
0
LINE
8
Black
10
26.491
20
-26.491
11
26.5213
21
-26.5213
0
LINE
8
Black
10
26.5213
20
-26.5213
11
26.491
21
-26.491
0
LINE
8
Black
10
26.491
20
-26.491
11
26.4341
21
-26.4341
0
LINE
8
Black
10
26.4341
20
-26.4341
11
26.3574
21
-26.3574
0
LINE
8
Black
10
26.3574
20
-26.3574
11
26.2702
21
-26.2702
0
LINE
8
Black
10
26.2702
20
-26.2702
11
26.183
21
-26.183
0
LINE
8
Black
10
26.183
20
-26.183
11
26.1063
21
-26.1063
0
LINE
8
Black
10
26.1063
20
-26.1063
11
26.0494
21
-26.0494
0
LINE
8
Black
10
26.0494
20
-26.0494
11
26.0191
21
-26.0191
0
LINE
8
Black
10
26.0191
20
-26.0191
11
26.0494
21
-26.0494
0
LINE
8
Black
10
26.0494
20
-26.0494
11
26.1063
21
-26.1063
0
LINE
8
Black
10
26.1063
20
-26.1063
11
26.183
21
-26.183
0
LINE
8
Black
10
26.183
20
-26.183
11
26.2702
21
-26.2702
0
LINE
8
Black
10
26.2702
20
-26.2702
11
26.3574
21
-26.3574
0
LINE
8
Black
10
26.4734
20
-26.4734
11
25.9654
21
-25.9654
0
LINE
8
Black
10
25.9654
20
-25.9654
11
26.4734
21
-26.4734
0
LINE
8
Black
10
40.9432
20
-40.9432
11
41.2449
21
-41.2449
0
LINE
8
Black
10
41.2449
20
-41.2449
11
41.4689
21
-41.4689
0
LINE
8
Black
10
41.4689
20
-41.4689
11
41.5881
21
-41.5881
0
LINE
8
Black
10
41.5881
20
-41.5881
11
41.4689
21
-41.4689
0
LINE
8
Black
10
41.4689
20
-41.4689
11
41.2449
21
-41.2449
0
LINE
8
Black
10
41.2449
20
-41.2449
11
40.9432
21
-40.9432
0
LINE
8
Black
10
40.9432
20
-40.9432
11
40.6
21
-40.6
0
LINE
8
Black
10
40.6
20
-40.6
11
40.2568
21
-40.2568
0
LINE
8
Black
10
40.2568
20
-40.2568
11
39.9551
21
-39.9551
0
LINE
8
Black
10
39.9551
20
-39.9551
11
39.7311
21
-39.7311
0
LINE
8
Black
10
39.7311
20
-39.7311
11
39.6119
21
-39.6119
0
LINE
8
Black
10
39.6119
20
-39.6119
11
39.7311
21
-39.7311
0
LINE
8
Black
10
39.7311
20
-39.7311
11
39.9551
21
-39.9551
0
LINE
8
Black
10
39.9551
20
-39.9551
11
40.2568
21
-40.2568
0
LINE
8
Black
10
40.2568
20
-40.2568
11
40.6
21
-40.6
0
LINE
8
Black
10
40.6
20
-40.6
11
40.9432
21
-40.9432
0
LINE
8
Black
10
36.4423
20
-36.4423
11
36.744
21
-36.744
0
LINE
8
Black
10
36.744
20
-36.744
11
36.968
21
-36.968
0
LINE
8
Black
10
36.968
20
-36.968
11
37.0872
21
-37.0872
0
LINE
8
Black
10
37.0872
20
-37.0872
11
36.968
21
-36.968
0
LINE
8
Black
10
36.968
20
-36.968
11
36.744
21
-36.744
0
LINE
8
Black
10
36.744
20
-36.744
11
36.4423
21
-36.4423
0
LINE
8
Black
10
36.4423
20
-36.4423
11
36.0991
21
-36.0991
0
LINE
8
Black
10
36.0991
20
-36.0991
11
35.756
21
-35.756
0
LINE
8
Black
10
35.756
20
-35.756
11
35.4542
21
-35.4542
0
LINE
8
Black
10
35.4542
20
-35.4542
11
35.2302
21
-35.2302
0
LINE
8
Black
10
35.2302
20
-35.2302
11
35.1111
21
-35.1111
0
LINE
8
Black
10
35.1111
20
-35.1111
11
35.2302
21
-35.2302
0
LINE
8
Black
10
35.2302
20
-35.2302
11
35.4542
21
-35.4542
0
LINE
8
Black
10
35.4542
20
-35.4542
11
35.756
21
-35.756
0
LINE
8
Black
10
35.756
20
-35.756
11
36.0991
21
-36.0991
0
LINE
8
Black
10
36.0991
20
-36.0991
11
36.4423
21
-36.4423
0
LINE
8
Black
10
26.4734
20
-26.4734
11
25.9654
21
-25.9654
0
LINE
8
Black
10
25.9654
20
-25.9654
11
26.4734
21
-26.4734
0
LINE
8
Black
10
26.4734
20
-26.4734
11
25.9654
21
-25.9654
0
LINE
8
Black
10
25.9654
20
-25.9654
11
26.4734
21
-26.4734
0
LINE
8
Black
10
26.3574
20
-26.3574
11
26.4341
21
-26.4341
0
LINE
8
Black
10
26.4341
20
-26.4341
11
26.491
21
-26.491
0
LINE
8
Black
10
26.491
20
-26.491
11
26.5213
21
-26.5213
0
LINE
8
Black
10
26.5213
20
-26.5213
11
26.491
21
-26.491
0
LINE
8
Black
10
26.491
20
-26.491
11
26.4341
21
-26.4341
0
LINE
8
Black
10
26.4341
20
-26.4341
11
26.3574
21
-26.3574
0
LINE
8
Black
10
26.3574
20
-26.3574
11
26.2702
21
-26.2702
0
LINE
8
Black
10
26.2702
20
-26.2702
11
26.183
21
-26.183
0
LINE
8
Black
10
26.183
20
-26.183
11
26.1063
21
-26.1063
0
LINE
8
Black
10
26.1063
20
-26.1063
11
26.0494
21
-26.0494
0
LINE
8
Black
10
26.0494
20
-26.0494
11
26.0191
21
-26.0191
0
LINE
8
Black
10
26.0191
20
-26.0191
11
26.0494
21
-26.0494
0
LINE
8
Black
10
26.0494
20
-26.0494
11
26.1063
21
-26.1063
0
LINE
8
Black
10
26.1063
20
-26.1063
11
26.183
21
-26.183
0
LINE
8
Black
10
26.183
20
-26.183
11
26.2702
21
-26.2702
0
LINE
8
Black
10
26.2702
20
-26.2702
11
26.3574
21
-26.3574
0
LINE
8
Black
10
23.5482
20
-23.5482
11
23.6786
21
-23.6786
0
LINE
8
Black
10
23.6786
20
-23.6786
11
23.7754
21
-23.7754
0
LINE
8
Black
10
23.7754
20
-23.7754
11
23.8269
21
-23.8269
0
LINE
8
Black
10
23.8269
20
-23.8269
11
23.7754
21
-23.7754
0
LINE
8
Black
10
23.7754
20
-23.7754
11
23.6786
21
-23.6786
0
LINE
8
Black
10
23.6786
20
-23.6786
11
23.5482
21
-23.5482
0
LINE
8
Black
10
23.5482
20
-23.5482
11
23.4
21
-23.4
0
LINE
8
Black
10
23.4
20
-23.4
11
23.2518
21
-23.2518
0
LINE
8
Black
10
23.2518
20
-23.2518
11
23.1214
21
-23.1214
0
LINE
8
Black
10
23.1214
20
-23.1214
11
23.0246
21
-23.0246
0
LINE
8
Black
10
23.0246
20
-23.0246
11
22.9731
21
-22.9731
0
LINE
8
Black
10
22.9731
20
-22.9731
11
23.0246
21
-23.0246
0
LINE
8
Black
10
23.0246
20
-23.0246
11
23.1214
21
-23.1214
0
LINE
8
Black
10
23.1214
20
-23.1214
11
23.2518
21
-23.2518
0
LINE
8
Black
10
23.2518
20
-23.2518
11
23.4
21
-23.4
0
LINE
8
Black
10
23.4
20
-23.4
11
23.5482
21
-23.5482
0
LINE
8
Black
10
35.4984
20
-35.4984
11
33.4994
21
-33.4994
0
LINE
8
Black
10
33.4994
20
-33.4994
11
35.4984
21
-35.4984
  0
ENDSEC
  0
EOF
