  0
SECTION
  2
HEADER
  9
$ANGBASE
  50
0.0
  9
$ANGDIR
  70
  1
  9
$MEASUREMENT
  70
0
  0
ENDSEC
  0
SECTION
  2
TABLES
  0
TABLE
  2
LTYPE
  70
1
  0
LTYPE
  2
CONTINUOUS
  70
0
  3
Solid line
  72
65
  73
0
  40
0.0
  0
ENDTAB
  0
TABLE
  2
STYLE
  70
4
  0
STYLE
  2
KICAD
  70
0
  40
0
  41
1
  42
1
  50
0
  71
0
  3
isocp.shx
  0
STYLE
  2
KICADB
  70
0
  40
0
  41
1
  42
1
  50
0
  71
0
  3
isocp.shx
  0
STYLE
  2
KICADI
  70
0
  40
0
  41
1
  42
1
  50
15
  71
0
  3
isocp.shx
  0
STYLE
  2
KICADBI
  70
0
  40
0
  41
1
  42
1
  50
15
  71
0
  3
isocp.shx
  0
ENDTAB
  0
TABLE
  2
LAYER
  70
30
  0
LAYER
  2
BLACK
  70
0
  62
7
  6
CONTINUOUS
  0
LAYER
  2
GRAY1
  70
0
  62
251
  6
CONTINUOUS
  0
LAYER
  2
GRAY2
  70
0
  62
8
  6
CONTINUOUS
  0
LAYER
  2
GRAY3
  70
0
  62
9
  6
CONTINUOUS
  0
LAYER
  2
WHITE
  70
0
  62
7
  6
CONTINUOUS
  0
LAYER
  2
LYELLOW
  70
0
  62
51
  6
CONTINUOUS
  0
LAYER
  2
BLUE1
  70
0
  62
178
  6
CONTINUOUS
  0
LAYER
  2
GREEN1
  70
0
  62
98
  6
CONTINUOUS
  0
LAYER
  2
CYAN1
  70
0
  62
138
  6
CONTINUOUS
  0
LAYER
  2
RED1
  70
0
  62
18
  6
CONTINUOUS
  0
LAYER
  2
MAGENTA1
  70
0
  62
228
  6
CONTINUOUS
  0
LAYER
  2
BROWN1
  70
0
  62
58
  6
CONTINUOUS
  0
LAYER
  2
BLUE2
  70
0
  62
5
  6
CONTINUOUS
  0
LAYER
  2
GREEN2
  70
0
  62
3
  6
CONTINUOUS
  0
LAYER
  2
CYAN2
  70
0
  62
4
  6
CONTINUOUS
  0
LAYER
  2
RED2
  70
0
  62
1
  6
CONTINUOUS
  0
LAYER
  2
MAGENTA2
  70
0
  62
6
  6
CONTINUOUS
  0
LAYER
  2
BROWN2
  70
0
  62
54
  6
CONTINUOUS
  0
LAYER
  2
BLUE3
  70
0
  62
171
  6
CONTINUOUS
  0
LAYER
  2
GREEN3
  70
0
  62
91
  6
CONTINUOUS
  0
LAYER
  2
CYAN3
  70
0
  62
131
  6
CONTINUOUS
  0
LAYER
  2
RED3
  70
0
  62
11
  6
CONTINUOUS
  0
LAYER
  2
MAGENTA3
  70
0
  62
221
  6
CONTINUOUS
  0
LAYER
  2
YELLOW3
  70
0
  62
2
  6
CONTINUOUS
  0
LAYER
  2
BLUE4
  70
0
  62
5
  6
CONTINUOUS
  0
LAYER
  2
GREEN4
  70
0
  62
3
  6
CONTINUOUS
  0
LAYER
  2
CYAN4
  70
0
  62
4
  6
CONTINUOUS
  0
LAYER
  2
RED4
  70
0
  62
1
  6
CONTINUOUS
  0
LAYER
  2
MAGENTA4
  70
0
  62
6
  6
CONTINUOUS
  0
LAYER
  2
YELLOW4
  70
0
  62
2
  6
CONTINUOUS
  0
ENDTAB
  0
ENDSEC
  0
SECTION
  2
ENTITIES
0
LINE
8
Black
10
36.4423
20
-36.4423
11
36.744
21
-36.744
0
LINE
8
Black
10
36.744
20
-36.744
11
36.968
21
-36.968
0
LINE
8
Black
10
36.968
20
-36.968
11
37.0872
21
-37.0872
0
LINE
8
Black
10
37.0872
20
-37.0872
11
36.968
21
-36.968
0
LINE
8
Black
10
36.968
20
-36.968
11
36.744
21
-36.744
0
LINE
8
Black
10
36.744
20
-36.744
11
36.4423
21
-36.4423
0
LINE
8
Black
10
36.4423
20
-36.4423
11
36.0991
21
-36.0991
0
LINE
8
Black
10
36.0991
20
-36.0991
11
35.756
21
-35.756
0
LINE
8
Black
10
35.756
20
-35.756
11
35.4542
21
-35.4542
0
LINE
8
Black
10
35.4542
20
-35.4542
11
35.2302
21
-35.2302
0
LINE
8
Black
10
35.2302
20
-35.2302
11
35.1111
21
-35.1111
0
LINE
8
Black
10
35.1111
20
-35.1111
11
35.2302
21
-35.2302
0
LINE
8
Black
10
35.2302
20
-35.2302
11
35.4542
21
-35.4542
0
LINE
8
Black
10
35.4542
20
-35.4542
11
35.756
21
-35.756
0
LINE
8
Black
10
35.756
20
-35.756
11
36.0991
21
-36.0991
0
LINE
8
Black
10
36.0991
20
-36.0991
11
36.4423
21
-36.4423
0
LINE
8
Black
10
40.9432
20
-40.9432
11
41.2449
21
-41.2449
0
LINE
8
Black
10
41.2449
20
-41.2449
11
41.4689
21
-41.4689
0
LINE
8
Black
10
41.4689
20
-41.4689
11
41.5881
21
-41.5881
0
LINE
8
Black
10
41.5881
20
-41.5881
11
41.4689
21
-41.4689
0
LINE
8
Black
10
41.4689
20
-41.4689
11
41.2449
21
-41.2449
0
LINE
8
Black
10
41.2449
20
-41.2449
11
40.9432
21
-40.9432
0
LINE
8
Black
10
40.9432
20
-40.9432
11
40.6
21
-40.6
0
LINE
8
Black
10
40.6
20
-40.6
11
40.2568
21
-40.2568
0
LINE
8
Black
10
40.2568
20
-40.2568
11
39.9551
21
-39.9551
0
LINE
8
Black
10
39.9551
20
-39.9551
11
39.7311
21
-39.7311
0
LINE
8
Black
10
39.7311
20
-39.7311
11
39.6119
21
-39.6119
0
LINE
8
Black
10
39.6119
20
-39.6119
11
39.7311
21
-39.7311
0
LINE
8
Black
10
39.7311
20
-39.7311
11
39.9551
21
-39.9551
0
LINE
8
Black
10
39.9551
20
-39.9551
11
40.2568
21
-40.2568
0
LINE
8
Black
10
40.2568
20
-40.2568
11
40.6
21
-40.6
0
LINE
8
Black
10
40.6
20
-40.6
11
40.9432
21
-40.9432
  0
ENDSEC
  0
EOF
