G04 #@! TF.FileFunction,Soldermask,Top*
%FSLAX46Y46*%
G04 Gerber Fmt 4.6, Leading zero omitted, Abs format (unit mm)*
G04 Created by KiCad (PCBNEW 4.0.7) date 11/21/18 10:10:23*
%MOMM*%
%LPD*%
G01*
G04 APERTURE LIST*
%ADD10C,0.050000*%
%ADD11R,3.000000X3.000000*%
%ADD12C,0.300000*%
%ADD13R,1.500000X0.450000*%
%ADD14R,2.000000X3.500000*%
%ADD15R,2.000000X6.000000*%
%ADD16C,3.000000*%
%ADD17R,1.250000X2.000000*%
%ADD18R,3.500000X2.000000*%
%ADD19R,6.000000X2.000000*%
%ADD20R,0.899160X1.000760*%
%ADD21R,1.000760X0.899160*%
%ADD22C,2.000000*%
%ADD23R,0.450000X1.500000*%
%ADD24R,2.499360X2.499360*%
%ADD25O,0.800100X0.248920*%
%ADD26O,0.248920X0.800100*%
%ADD27C,1.500000*%
%ADD28C,3.250000*%
%ADD29C,1.300000*%
%ADD30R,1.400000X1.200000*%
%ADD31R,1.200000X1.100000*%
%ADD32C,2.500000*%
%ADD33R,0.900000X1.000000*%
%ADD34R,1.000000X0.900000*%
%ADD35R,2.400000X2.400000*%
%ADD36C,2.400000*%
%ADD37R,1.500000X1.050000*%
%ADD38R,1.500000X2.400000*%
%ADD39R,0.850000X0.850000*%
%ADD40R,0.760000X2.400000*%
%ADD41C,1.800000*%
%ADD42R,1.500000X4.000000*%
%ADD43R,1.500000X0.300000*%
%ADD44R,0.300000X1.500000*%
%ADD45R,0.600000X1.200000*%
%ADD46R,1.550000X0.600000*%
G04 APERTURE END LIST*
D10*
D11*
X152750000Y-75000000D03*
D12*
X152750000Y-77200000D03*
X151650000Y-77200000D03*
X153850000Y-77200000D03*
X153850000Y-72800000D03*
X151650000Y-72800000D03*
X152750000Y-72800000D03*
X152750000Y-73900000D03*
X151650000Y-73900000D03*
X153850000Y-73900000D03*
X153850000Y-76100000D03*
X151650000Y-76100000D03*
X152750000Y-76100000D03*
D13*
X149850000Y-76625000D03*
X149850000Y-77275000D03*
X149850000Y-75975000D03*
X149850000Y-75325000D03*
X149850000Y-72725000D03*
X149850000Y-73375000D03*
X149850000Y-74675000D03*
X149850000Y-74025000D03*
X155650000Y-74025000D03*
X155650000Y-74675000D03*
X155650000Y-73375000D03*
X155650000Y-72725000D03*
X155650000Y-75325000D03*
X155650000Y-75975000D03*
X155650000Y-77275000D03*
X155650000Y-76625000D03*
D12*
X152750000Y-75000000D03*
X151650000Y-75000000D03*
X153850000Y-75000000D03*
D14*
X129750000Y-68200000D03*
D15*
X129750000Y-59000000D03*
X133750000Y-59000000D03*
D14*
X133750000Y-68250000D03*
D11*
X113250000Y-74500000D03*
D12*
X113250000Y-76700000D03*
X112150000Y-76700000D03*
X114350000Y-76700000D03*
X114350000Y-72300000D03*
X112150000Y-72300000D03*
X113250000Y-72300000D03*
X113250000Y-73400000D03*
X112150000Y-73400000D03*
X114350000Y-73400000D03*
X114350000Y-75600000D03*
X112150000Y-75600000D03*
X113250000Y-75600000D03*
D13*
X110350000Y-76125000D03*
X110350000Y-76775000D03*
X110350000Y-75475000D03*
X110350000Y-74825000D03*
X110350000Y-72225000D03*
X110350000Y-72875000D03*
X110350000Y-74175000D03*
X110350000Y-73525000D03*
X116150000Y-73525000D03*
X116150000Y-74175000D03*
X116150000Y-72875000D03*
X116150000Y-72225000D03*
X116150000Y-74825000D03*
X116150000Y-75475000D03*
X116150000Y-76775000D03*
X116150000Y-76125000D03*
D12*
X113250000Y-74500000D03*
X112150000Y-74500000D03*
X114350000Y-74500000D03*
D14*
X131250000Y-122050000D03*
D15*
X131250000Y-131250000D03*
X127250000Y-131250000D03*
D14*
X127250000Y-122000000D03*
D16*
X92000000Y-131000000D03*
X92000000Y-58000000D03*
X181000000Y-132000000D03*
X181000000Y-58000000D03*
D17*
X88625000Y-87000000D03*
X91375000Y-87000000D03*
X106625000Y-86000000D03*
X109375000Y-86000000D03*
D14*
X140500000Y-121800000D03*
D15*
X140500000Y-131000000D03*
X136500000Y-131000000D03*
D14*
X136500000Y-121750000D03*
X110500000Y-68200000D03*
D15*
X110500000Y-59000000D03*
X114500000Y-59000000D03*
D14*
X114500000Y-68250000D03*
D18*
X171050000Y-101250000D03*
D19*
X180250000Y-101250000D03*
X180250000Y-105250000D03*
D18*
X171000000Y-105250000D03*
D14*
X149500000Y-68200000D03*
D15*
X149500000Y-59000000D03*
X153500000Y-59000000D03*
D14*
X153500000Y-68250000D03*
X120000000Y-68200000D03*
D15*
X120000000Y-59000000D03*
X124000000Y-59000000D03*
D14*
X124000000Y-68250000D03*
D18*
X171050000Y-110750000D03*
D19*
X180250000Y-110750000D03*
X180250000Y-114750000D03*
D18*
X171000000Y-114750000D03*
X171050000Y-72000000D03*
D19*
X180250000Y-72000000D03*
X180250000Y-76000000D03*
D18*
X171000000Y-76000000D03*
D14*
X121750000Y-122050000D03*
D15*
X121750000Y-131250000D03*
X117750000Y-131250000D03*
D14*
X117750000Y-122000000D03*
X159000000Y-121800000D03*
D15*
X159000000Y-131000000D03*
X155000000Y-131000000D03*
D14*
X155000000Y-121750000D03*
D18*
X171050000Y-82000000D03*
D19*
X180250000Y-82000000D03*
X180250000Y-86000000D03*
D18*
X171000000Y-86000000D03*
D14*
X139500000Y-68200000D03*
D15*
X139500000Y-59000000D03*
X143500000Y-59000000D03*
D14*
X143500000Y-68250000D03*
X149750000Y-121800000D03*
D15*
X149750000Y-131000000D03*
X145750000Y-131000000D03*
D14*
X145750000Y-121750000D03*
D18*
X171050000Y-91500000D03*
D19*
X180250000Y-91500000D03*
X180250000Y-95500000D03*
D18*
X171000000Y-95500000D03*
D20*
X156151840Y-93200000D03*
X154648160Y-93200000D03*
D21*
X143250000Y-82251840D03*
X143250000Y-80748160D03*
X112650000Y-90301840D03*
X112650000Y-88798160D03*
D22*
X126250000Y-98500000D03*
X126710000Y-100580000D03*
X121250000Y-89600000D03*
X129575000Y-101875000D03*
X123600000Y-92250000D03*
X127750000Y-103250000D03*
X125300000Y-102650000D03*
X126750000Y-94750000D03*
X124000000Y-90500000D03*
X124000000Y-88750000D03*
D21*
X137000000Y-106651840D03*
X137000000Y-105148160D03*
X138700000Y-106651840D03*
X138700000Y-105148160D03*
D20*
X103251840Y-124750000D03*
X101748160Y-124750000D03*
D21*
X165750000Y-126501840D03*
X165750000Y-124998160D03*
D20*
X103251840Y-121250000D03*
X101748160Y-121250000D03*
X103251840Y-123000000D03*
X101748160Y-123000000D03*
X123801840Y-93850000D03*
X122298160Y-93850000D03*
X123951840Y-100570000D03*
X122448160Y-100570000D03*
X124001840Y-96000000D03*
X122498160Y-96000000D03*
D21*
X121750000Y-103751840D03*
X121750000Y-102248160D03*
X115950000Y-90501840D03*
X115950000Y-88998160D03*
D20*
X129501840Y-98250000D03*
X127998160Y-98250000D03*
D21*
X117500000Y-90501840D03*
X117500000Y-88998160D03*
D20*
X92953840Y-108712000D03*
X91450160Y-108712000D03*
X94811840Y-88440000D03*
X93308160Y-88440000D03*
X94641840Y-86550000D03*
X93138160Y-86550000D03*
X100751840Y-127000000D03*
X99248160Y-127000000D03*
X112951840Y-85900000D03*
X111448160Y-85900000D03*
D11*
X139800000Y-74100000D03*
D12*
X139800000Y-76300000D03*
X138700000Y-76300000D03*
X140900000Y-76300000D03*
X140900000Y-71900000D03*
X138700000Y-71900000D03*
X139800000Y-71900000D03*
X139800000Y-73000000D03*
X138700000Y-73000000D03*
X140900000Y-73000000D03*
X140900000Y-75200000D03*
X138700000Y-75200000D03*
X139800000Y-75200000D03*
D13*
X136900000Y-75725000D03*
X136900000Y-76375000D03*
X136900000Y-75075000D03*
X136900000Y-74425000D03*
X136900000Y-71825000D03*
X136900000Y-72475000D03*
X136900000Y-73775000D03*
X136900000Y-73125000D03*
X142700000Y-73125000D03*
X142700000Y-73775000D03*
X142700000Y-72475000D03*
X142700000Y-71825000D03*
X142700000Y-74425000D03*
X142700000Y-75075000D03*
X142700000Y-76375000D03*
X142700000Y-75725000D03*
D12*
X139800000Y-74100000D03*
X138700000Y-74100000D03*
X140900000Y-74100000D03*
D11*
X126000000Y-74500000D03*
D12*
X126000000Y-76700000D03*
X124900000Y-76700000D03*
X127100000Y-76700000D03*
X127100000Y-72300000D03*
X124900000Y-72300000D03*
X126000000Y-72300000D03*
X126000000Y-73400000D03*
X124900000Y-73400000D03*
X127100000Y-73400000D03*
X127100000Y-75600000D03*
X124900000Y-75600000D03*
X126000000Y-75600000D03*
D13*
X123100000Y-76125000D03*
X123100000Y-76775000D03*
X123100000Y-75475000D03*
X123100000Y-74825000D03*
X123100000Y-72225000D03*
X123100000Y-72875000D03*
X123100000Y-74175000D03*
X123100000Y-73525000D03*
X128900000Y-73525000D03*
X128900000Y-74175000D03*
X128900000Y-72875000D03*
X128900000Y-72225000D03*
X128900000Y-74825000D03*
X128900000Y-75475000D03*
X128900000Y-76775000D03*
X128900000Y-76125000D03*
D12*
X126000000Y-74500000D03*
X124900000Y-74500000D03*
X127100000Y-74500000D03*
D11*
X164250000Y-89750000D03*
D12*
X162050000Y-89750000D03*
X162050000Y-88650000D03*
X162050000Y-90850000D03*
X166450000Y-90850000D03*
X166450000Y-88650000D03*
X166450000Y-89750000D03*
X165350000Y-89750000D03*
X165350000Y-88650000D03*
X165350000Y-90850000D03*
X163150000Y-90850000D03*
X163150000Y-88650000D03*
X163150000Y-89750000D03*
D23*
X162625000Y-86850000D03*
X161975000Y-86850000D03*
X163275000Y-86850000D03*
X163925000Y-86850000D03*
X166525000Y-86850000D03*
X165875000Y-86850000D03*
X164575000Y-86850000D03*
X165225000Y-86850000D03*
X165225000Y-92650000D03*
X164575000Y-92650000D03*
X165875000Y-92650000D03*
X166525000Y-92650000D03*
X163925000Y-92650000D03*
X163275000Y-92650000D03*
X161975000Y-92650000D03*
X162625000Y-92650000D03*
D12*
X164250000Y-89750000D03*
X164250000Y-88650000D03*
X164250000Y-90850000D03*
D11*
X163750000Y-77250000D03*
D12*
X161550000Y-77250000D03*
X161550000Y-76150000D03*
X161550000Y-78350000D03*
X165950000Y-78350000D03*
X165950000Y-76150000D03*
X165950000Y-77250000D03*
X164850000Y-77250000D03*
X164850000Y-76150000D03*
X164850000Y-78350000D03*
X162650000Y-78350000D03*
X162650000Y-76150000D03*
X162650000Y-77250000D03*
D23*
X162125000Y-74350000D03*
X161475000Y-74350000D03*
X162775000Y-74350000D03*
X163425000Y-74350000D03*
X166025000Y-74350000D03*
X165375000Y-74350000D03*
X164075000Y-74350000D03*
X164725000Y-74350000D03*
X164725000Y-80150000D03*
X164075000Y-80150000D03*
X165375000Y-80150000D03*
X166025000Y-80150000D03*
X163425000Y-80150000D03*
X162775000Y-80150000D03*
X161475000Y-80150000D03*
X162125000Y-80150000D03*
D12*
X163750000Y-77250000D03*
X163750000Y-76150000D03*
X163750000Y-78350000D03*
D11*
X178000000Y-65000000D03*
D12*
X178000000Y-67200000D03*
X176900000Y-67200000D03*
X179100000Y-67200000D03*
X179100000Y-62800000D03*
X176900000Y-62800000D03*
X178000000Y-62800000D03*
X178000000Y-63900000D03*
X176900000Y-63900000D03*
X179100000Y-63900000D03*
X179100000Y-66100000D03*
X176900000Y-66100000D03*
X178000000Y-66100000D03*
D13*
X175100000Y-66625000D03*
X175100000Y-67275000D03*
X175100000Y-65975000D03*
X175100000Y-65325000D03*
X175100000Y-62725000D03*
X175100000Y-63375000D03*
X175100000Y-64675000D03*
X175100000Y-64025000D03*
X180900000Y-64025000D03*
X180900000Y-64675000D03*
X180900000Y-63375000D03*
X180900000Y-62725000D03*
X180900000Y-65325000D03*
X180900000Y-65975000D03*
X180900000Y-67275000D03*
X180900000Y-66625000D03*
D12*
X178000000Y-65000000D03*
X176900000Y-65000000D03*
X179100000Y-65000000D03*
D11*
X161000000Y-61500000D03*
D12*
X163200000Y-61500000D03*
X163200000Y-62600000D03*
X163200000Y-60400000D03*
X158800000Y-60400000D03*
X158800000Y-62600000D03*
X158800000Y-61500000D03*
X159900000Y-61500000D03*
X159900000Y-62600000D03*
X159900000Y-60400000D03*
X162100000Y-60400000D03*
X162100000Y-62600000D03*
X162100000Y-61500000D03*
D23*
X162625000Y-64400000D03*
X163275000Y-64400000D03*
X161975000Y-64400000D03*
X161325000Y-64400000D03*
X158725000Y-64400000D03*
X159375000Y-64400000D03*
X160675000Y-64400000D03*
X160025000Y-64400000D03*
X160025000Y-58600000D03*
X160675000Y-58600000D03*
X159375000Y-58600000D03*
X158725000Y-58600000D03*
X161325000Y-58600000D03*
X161975000Y-58600000D03*
X163275000Y-58600000D03*
X162625000Y-58600000D03*
D12*
X161000000Y-61500000D03*
X161000000Y-62600000D03*
X161000000Y-60400000D03*
D11*
X147600000Y-115800000D03*
D12*
X147600000Y-113600000D03*
X148700000Y-113600000D03*
X146500000Y-113600000D03*
X146500000Y-118000000D03*
X148700000Y-118000000D03*
X147600000Y-118000000D03*
X147600000Y-116900000D03*
X148700000Y-116900000D03*
X146500000Y-116900000D03*
X146500000Y-114700000D03*
X148700000Y-114700000D03*
X147600000Y-114700000D03*
D13*
X150500000Y-114175000D03*
X150500000Y-113525000D03*
X150500000Y-114825000D03*
X150500000Y-115475000D03*
X150500000Y-118075000D03*
X150500000Y-117425000D03*
X150500000Y-116125000D03*
X150500000Y-116775000D03*
X144700000Y-116775000D03*
X144700000Y-116125000D03*
X144700000Y-117425000D03*
X144700000Y-118075000D03*
X144700000Y-115475000D03*
X144700000Y-114825000D03*
X144700000Y-113525000D03*
X144700000Y-114175000D03*
D12*
X147600000Y-115800000D03*
X148700000Y-115800000D03*
X146500000Y-115800000D03*
D11*
X160400000Y-115500000D03*
D12*
X160400000Y-113300000D03*
X161500000Y-113300000D03*
X159300000Y-113300000D03*
X159300000Y-117700000D03*
X161500000Y-117700000D03*
X160400000Y-117700000D03*
X160400000Y-116600000D03*
X161500000Y-116600000D03*
X159300000Y-116600000D03*
X159300000Y-114400000D03*
X161500000Y-114400000D03*
X160400000Y-114400000D03*
D13*
X163300000Y-113875000D03*
X163300000Y-113225000D03*
X163300000Y-114525000D03*
X163300000Y-115175000D03*
X163300000Y-117775000D03*
X163300000Y-117125000D03*
X163300000Y-115825000D03*
X163300000Y-116475000D03*
X157500000Y-116475000D03*
X157500000Y-115825000D03*
X157500000Y-117125000D03*
X157500000Y-117775000D03*
X157500000Y-115175000D03*
X157500000Y-114525000D03*
X157500000Y-113225000D03*
X157500000Y-113875000D03*
D12*
X160400000Y-115500000D03*
X161500000Y-115500000D03*
X159300000Y-115500000D03*
D11*
X177500000Y-120300000D03*
D12*
X177500000Y-122500000D03*
X176400000Y-122500000D03*
X178600000Y-122500000D03*
X178600000Y-118100000D03*
X176400000Y-118100000D03*
X177500000Y-118100000D03*
X177500000Y-119200000D03*
X176400000Y-119200000D03*
X178600000Y-119200000D03*
X178600000Y-121400000D03*
X176400000Y-121400000D03*
X177500000Y-121400000D03*
D13*
X174600000Y-121925000D03*
X174600000Y-122575000D03*
X174600000Y-121275000D03*
X174600000Y-120625000D03*
X174600000Y-118025000D03*
X174600000Y-118675000D03*
X174600000Y-119975000D03*
X174600000Y-119325000D03*
X180400000Y-119325000D03*
X180400000Y-119975000D03*
X180400000Y-118675000D03*
X180400000Y-118025000D03*
X180400000Y-120625000D03*
X180400000Y-121275000D03*
X180400000Y-122575000D03*
X180400000Y-121925000D03*
D12*
X177500000Y-120300000D03*
X176400000Y-120300000D03*
X178600000Y-120300000D03*
D11*
X165400000Y-102800000D03*
D12*
X163200000Y-102800000D03*
X163200000Y-101700000D03*
X163200000Y-103900000D03*
X167600000Y-103900000D03*
X167600000Y-101700000D03*
X167600000Y-102800000D03*
X166500000Y-102800000D03*
X166500000Y-101700000D03*
X166500000Y-103900000D03*
X164300000Y-103900000D03*
X164300000Y-101700000D03*
X164300000Y-102800000D03*
D23*
X163775000Y-99900000D03*
X163125000Y-99900000D03*
X164425000Y-99900000D03*
X165075000Y-99900000D03*
X167675000Y-99900000D03*
X167025000Y-99900000D03*
X165725000Y-99900000D03*
X166375000Y-99900000D03*
X166375000Y-105700000D03*
X165725000Y-105700000D03*
X167025000Y-105700000D03*
X167675000Y-105700000D03*
X165075000Y-105700000D03*
X164425000Y-105700000D03*
X163125000Y-105700000D03*
X163775000Y-105700000D03*
D12*
X165400000Y-102800000D03*
X165400000Y-101700000D03*
X165400000Y-103900000D03*
D11*
X107100000Y-114800000D03*
D12*
X107100000Y-112600000D03*
X108200000Y-112600000D03*
X106000000Y-112600000D03*
X106000000Y-117000000D03*
X108200000Y-117000000D03*
X107100000Y-117000000D03*
X107100000Y-115900000D03*
X108200000Y-115900000D03*
X106000000Y-115900000D03*
X106000000Y-113700000D03*
X108200000Y-113700000D03*
X107100000Y-113700000D03*
D13*
X110000000Y-113175000D03*
X110000000Y-112525000D03*
X110000000Y-113825000D03*
X110000000Y-114475000D03*
X110000000Y-117075000D03*
X110000000Y-116425000D03*
X110000000Y-115125000D03*
X110000000Y-115775000D03*
X104200000Y-115775000D03*
X104200000Y-115125000D03*
X104200000Y-116425000D03*
X104200000Y-117075000D03*
X104200000Y-114475000D03*
X104200000Y-113825000D03*
X104200000Y-112525000D03*
X104200000Y-113175000D03*
D12*
X107100000Y-114800000D03*
X108200000Y-114800000D03*
X106000000Y-114800000D03*
D11*
X120300000Y-115300000D03*
D12*
X120300000Y-113100000D03*
X121400000Y-113100000D03*
X119200000Y-113100000D03*
X119200000Y-117500000D03*
X121400000Y-117500000D03*
X120300000Y-117500000D03*
X120300000Y-116400000D03*
X121400000Y-116400000D03*
X119200000Y-116400000D03*
X119200000Y-114200000D03*
X121400000Y-114200000D03*
X120300000Y-114200000D03*
D13*
X123200000Y-113675000D03*
X123200000Y-113025000D03*
X123200000Y-114325000D03*
X123200000Y-114975000D03*
X123200000Y-117575000D03*
X123200000Y-116925000D03*
X123200000Y-115625000D03*
X123200000Y-116275000D03*
X117400000Y-116275000D03*
X117400000Y-115625000D03*
X117400000Y-116925000D03*
X117400000Y-117575000D03*
X117400000Y-114975000D03*
X117400000Y-114325000D03*
X117400000Y-113025000D03*
X117400000Y-113675000D03*
D12*
X120300000Y-115300000D03*
X121400000Y-115300000D03*
X119200000Y-115300000D03*
D11*
X133600000Y-115500000D03*
D12*
X133600000Y-113300000D03*
X134700000Y-113300000D03*
X132500000Y-113300000D03*
X132500000Y-117700000D03*
X134700000Y-117700000D03*
X133600000Y-117700000D03*
X133600000Y-116600000D03*
X134700000Y-116600000D03*
X132500000Y-116600000D03*
X132500000Y-114400000D03*
X134700000Y-114400000D03*
X133600000Y-114400000D03*
D13*
X136500000Y-113875000D03*
X136500000Y-113225000D03*
X136500000Y-114525000D03*
X136500000Y-115175000D03*
X136500000Y-117775000D03*
X136500000Y-117125000D03*
X136500000Y-115825000D03*
X136500000Y-116475000D03*
X130700000Y-116475000D03*
X130700000Y-115825000D03*
X130700000Y-117125000D03*
X130700000Y-117775000D03*
X130700000Y-115175000D03*
X130700000Y-114525000D03*
X130700000Y-113225000D03*
X130700000Y-113875000D03*
D12*
X133600000Y-115500000D03*
X134700000Y-115500000D03*
X132500000Y-115500000D03*
D24*
X117000000Y-96000000D03*
D25*
X115001020Y-94750320D03*
X115001020Y-95250700D03*
X115001020Y-95751080D03*
X115001020Y-96248920D03*
X115001020Y-96749300D03*
X115001020Y-97249680D03*
D26*
X115750320Y-97998980D03*
X116250700Y-97998980D03*
X116751080Y-97998980D03*
X117248920Y-97998980D03*
X117749300Y-97998980D03*
X118249680Y-97998980D03*
D25*
X118998980Y-97249680D03*
X118998980Y-96749300D03*
X118998980Y-96248920D03*
X118998980Y-95751080D03*
X118998980Y-95250700D03*
X118998980Y-94750320D03*
D26*
X118249680Y-94001020D03*
X117749300Y-94001020D03*
X117248920Y-94001020D03*
X116751080Y-94001020D03*
X116250700Y-94001020D03*
X115750320Y-94001020D03*
D27*
X92100000Y-91375000D03*
X92100000Y-93915000D03*
X92100000Y-102085000D03*
X92100000Y-104625000D03*
X103350000Y-93560000D03*
X103350000Y-98630000D03*
X103350000Y-96100000D03*
X103350000Y-101170000D03*
X105890000Y-94820000D03*
X105890000Y-99900000D03*
X105890000Y-97360000D03*
D28*
X97132080Y-103715000D03*
X97132080Y-92285000D03*
D29*
X100050000Y-90255000D03*
X100050000Y-105745000D03*
D27*
X105890000Y-102440000D03*
D30*
X155600000Y-100150000D03*
X153400000Y-100150000D03*
X155600000Y-101850000D03*
X153400000Y-101850000D03*
D31*
X116150000Y-103700000D03*
X117850000Y-103700000D03*
X116150000Y-102300000D03*
X117850000Y-102300000D03*
D20*
X110248160Y-104000000D03*
X111751840Y-104000000D03*
D32*
X91660000Y-62970000D03*
X91660000Y-67970000D03*
D20*
X128248160Y-94900000D03*
D33*
X129751840Y-94900000D03*
D20*
X128748160Y-89000000D03*
D33*
X130251840Y-89000000D03*
D20*
X157551840Y-94900000D03*
D33*
X156048160Y-94900000D03*
D21*
X133650000Y-104998160D03*
D34*
X133650000Y-106501840D03*
D20*
X153048160Y-94900000D03*
D33*
X154551840Y-94900000D03*
D20*
X156951840Y-91700000D03*
D33*
X155448160Y-91700000D03*
D21*
X140250000Y-104748160D03*
D34*
X140250000Y-106251840D03*
D21*
X140250000Y-80748160D03*
D34*
X140250000Y-82251840D03*
D21*
X151500000Y-103751840D03*
D34*
X151500000Y-102248160D03*
D21*
X141750000Y-80748160D03*
D34*
X141750000Y-82251840D03*
D21*
X157400000Y-101651840D03*
D34*
X157400000Y-100148160D03*
D20*
X155251840Y-103750000D03*
D33*
X153748160Y-103750000D03*
D21*
X99900000Y-117001840D03*
D34*
X99900000Y-115498160D03*
D20*
X98948160Y-113650000D03*
D33*
X100451840Y-113650000D03*
D21*
X147100000Y-73448160D03*
D34*
X147100000Y-74951840D03*
D21*
X134300000Y-73348160D03*
D34*
X134300000Y-74851840D03*
D35*
X90250000Y-78000000D03*
D36*
X95250000Y-78000000D03*
D21*
X99500000Y-70751840D03*
D34*
X99500000Y-69248160D03*
D20*
X147651840Y-76900000D03*
D33*
X146148160Y-76900000D03*
D20*
X135251840Y-76300000D03*
D33*
X133748160Y-76300000D03*
D21*
X119750000Y-74748160D03*
D34*
X119750000Y-76251840D03*
D21*
X104500000Y-61501840D03*
D34*
X104500000Y-59998160D03*
D21*
X107100000Y-74848160D03*
D34*
X107100000Y-76351840D03*
D21*
X119750000Y-73251840D03*
D34*
X119750000Y-71748160D03*
D21*
X97250000Y-66751840D03*
D34*
X97250000Y-65248160D03*
D21*
X107250000Y-72751840D03*
D34*
X107250000Y-71248160D03*
D20*
X165351840Y-84600000D03*
D33*
X163848160Y-84600000D03*
D20*
X165551840Y-71300000D03*
D33*
X164048160Y-71300000D03*
D21*
X167100000Y-82948160D03*
D34*
X167100000Y-84451840D03*
D21*
X162500000Y-72001840D03*
D34*
X162500000Y-70498160D03*
D21*
X171900000Y-63638160D03*
D34*
X171900000Y-65141840D03*
D20*
X159548160Y-67400000D03*
D33*
X161051840Y-67400000D03*
D20*
X173248160Y-60000000D03*
D33*
X174751840Y-60000000D03*
D20*
X163951840Y-67300000D03*
D33*
X162448160Y-67300000D03*
D21*
X154300000Y-117701840D03*
D34*
X154300000Y-116198160D03*
D21*
X165900000Y-116751840D03*
D34*
X165900000Y-115248160D03*
D20*
X152398160Y-114550000D03*
D33*
X153901840Y-114550000D03*
D21*
X165900000Y-112448160D03*
D34*
X165900000Y-113951840D03*
D21*
X171500000Y-120048160D03*
D34*
X171500000Y-121551840D03*
D20*
X165551840Y-97100000D03*
D33*
X164048160Y-97100000D03*
D20*
X170248160Y-118500000D03*
D33*
X171751840Y-118500000D03*
D21*
X167200000Y-95548160D03*
D34*
X167200000Y-97051840D03*
D21*
X112800000Y-116601840D03*
D34*
X112800000Y-115098160D03*
D21*
X126600000Y-117201840D03*
D34*
X126600000Y-115698160D03*
D21*
X140050000Y-116901840D03*
D34*
X140050000Y-115398160D03*
D20*
X111998160Y-113150000D03*
D33*
X113501840Y-113150000D03*
D20*
X125248160Y-113450000D03*
D33*
X126751840Y-113450000D03*
D20*
X138548160Y-114000000D03*
D33*
X140051840Y-114000000D03*
D21*
X114200000Y-88898160D03*
D34*
X114200000Y-90401840D03*
D20*
X110751840Y-89000000D03*
D33*
X109248160Y-89000000D03*
D20*
X123921840Y-99160000D03*
D33*
X122418160Y-99160000D03*
D20*
X111248160Y-94000000D03*
D33*
X112751840Y-94000000D03*
D21*
X114000000Y-102248160D03*
D34*
X114000000Y-103751840D03*
D20*
X110751840Y-92000000D03*
D33*
X109248160Y-92000000D03*
D20*
X123851840Y-97425000D03*
D33*
X122348160Y-97425000D03*
D21*
X120000000Y-103751840D03*
D34*
X120000000Y-102248160D03*
D21*
X119100000Y-88998160D03*
D34*
X119100000Y-90501840D03*
D20*
X111751840Y-97800000D03*
D33*
X110248160Y-97800000D03*
D20*
X110248160Y-101500000D03*
D33*
X111751840Y-101500000D03*
D37*
X101250000Y-70775000D03*
D38*
X101250000Y-68400000D03*
D39*
X101000000Y-58325000D03*
X101000000Y-61675000D03*
D40*
X168970000Y-129450000D03*
X170240000Y-129450000D03*
X170240000Y-133350000D03*
X168970000Y-133350000D03*
X165160000Y-133350000D03*
X166430000Y-133350000D03*
X167700000Y-133350000D03*
X167700000Y-129450000D03*
X166430000Y-129450000D03*
X165160000Y-129450000D03*
D41*
X173900000Y-126500000D03*
X176440000Y-126500000D03*
X181509840Y-126500000D03*
X178969840Y-126500000D03*
X98730000Y-129230000D03*
X96190000Y-129230000D03*
X101270000Y-129230000D03*
X103810000Y-129230000D03*
X103810000Y-131770000D03*
X101270000Y-131770000D03*
X96190000Y-131770000D03*
X98730000Y-131770000D03*
D14*
X112250000Y-121800000D03*
D15*
X112250000Y-131000000D03*
X108250000Y-131000000D03*
D14*
X108250000Y-121750000D03*
D42*
X106800000Y-65000000D03*
X103200000Y-65000000D03*
D22*
X126000000Y-96250000D03*
D20*
X96351840Y-126800000D03*
X94848160Y-126800000D03*
D21*
X90650000Y-123951840D03*
X90650000Y-122448160D03*
X97750000Y-68248160D03*
X97750000Y-69751840D03*
X97250000Y-59248160D03*
X97250000Y-60751840D03*
X102750000Y-59998160D03*
X102750000Y-61501840D03*
X99000000Y-60751840D03*
X99000000Y-59248160D03*
X97250000Y-62248160D03*
X97250000Y-63751840D03*
D20*
X170051840Y-126100000D03*
X168548160Y-126100000D03*
D43*
X148950000Y-92750000D03*
X148950000Y-92250000D03*
X148950000Y-91750000D03*
X148950000Y-90750000D03*
X148950000Y-91250000D03*
X148950000Y-89250000D03*
X148950000Y-88750000D03*
X148950000Y-89750000D03*
X148950000Y-90250000D03*
D44*
X135750000Y-102450000D03*
X135250000Y-102450000D03*
X138750000Y-102450000D03*
X138250000Y-102450000D03*
X139250000Y-102450000D03*
X137250000Y-102450000D03*
X137750000Y-102450000D03*
X136250000Y-102450000D03*
X136750000Y-102450000D03*
D43*
X133550000Y-97250000D03*
X133550000Y-97750000D03*
X133550000Y-96750000D03*
X133550000Y-98250000D03*
X133550000Y-98750000D03*
X133550000Y-100750000D03*
X133550000Y-100250000D03*
X133550000Y-99750000D03*
X133550000Y-99250000D03*
D44*
X137250000Y-87050000D03*
X138750000Y-87050000D03*
X139250000Y-87050000D03*
X138250000Y-87050000D03*
X137750000Y-87050000D03*
X135750000Y-87050000D03*
X136250000Y-87050000D03*
X136750000Y-87050000D03*
X135250000Y-87050000D03*
D43*
X148950000Y-94750000D03*
X148950000Y-94250000D03*
X148950000Y-93250000D03*
X148950000Y-93750000D03*
D44*
X140250000Y-102450000D03*
X139750000Y-102450000D03*
X141250000Y-102450000D03*
X140750000Y-102450000D03*
D43*
X133550000Y-94750000D03*
X133550000Y-95250000D03*
X133550000Y-95750000D03*
X133550000Y-96250000D03*
D44*
X139750000Y-87050000D03*
X141250000Y-87050000D03*
X140750000Y-87050000D03*
X140250000Y-87050000D03*
D43*
X148950000Y-95750000D03*
X148950000Y-95250000D03*
X148950000Y-96250000D03*
X148950000Y-96750000D03*
D44*
X144250000Y-102450000D03*
X144750000Y-102450000D03*
X145750000Y-102450000D03*
X145250000Y-102450000D03*
X142750000Y-102450000D03*
X143750000Y-102450000D03*
X143250000Y-102450000D03*
X141750000Y-102450000D03*
X142250000Y-102450000D03*
D43*
X133550000Y-94250000D03*
X133550000Y-93750000D03*
D44*
X142250000Y-87050000D03*
X142750000Y-87050000D03*
X143750000Y-87050000D03*
X143250000Y-87050000D03*
X144750000Y-87050000D03*
X145250000Y-87050000D03*
X144250000Y-87050000D03*
X146750000Y-87050000D03*
X147250000Y-87050000D03*
X146250000Y-87050000D03*
X145750000Y-87050000D03*
D43*
X148950000Y-97250000D03*
X148950000Y-97750000D03*
X148950000Y-98750000D03*
X148950000Y-98250000D03*
X148950000Y-99750000D03*
X148950000Y-100250000D03*
X148950000Y-99250000D03*
D44*
X146750000Y-102450000D03*
X146250000Y-102450000D03*
X147250000Y-102450000D03*
D43*
X148950000Y-100750000D03*
X133550000Y-91750000D03*
X133550000Y-92250000D03*
X133550000Y-93250000D03*
X133550000Y-92750000D03*
X133550000Y-90250000D03*
X133550000Y-91250000D03*
X133550000Y-90750000D03*
X133550000Y-89250000D03*
X133550000Y-89750000D03*
X133550000Y-88750000D03*
D44*
X141750000Y-87050000D03*
D11*
X94250000Y-115750000D03*
D12*
X94250000Y-113550000D03*
X95350000Y-113550000D03*
X93150000Y-113550000D03*
X93150000Y-117950000D03*
X95350000Y-117950000D03*
X94250000Y-117950000D03*
X94250000Y-116850000D03*
X95350000Y-116850000D03*
X93150000Y-116850000D03*
X93150000Y-114650000D03*
X95350000Y-114650000D03*
X94250000Y-114650000D03*
D13*
X97150000Y-114125000D03*
X97150000Y-113475000D03*
X97150000Y-114775000D03*
X97150000Y-115425000D03*
X97150000Y-118025000D03*
X97150000Y-117375000D03*
X97150000Y-116075000D03*
X97150000Y-116725000D03*
X91350000Y-116725000D03*
X91350000Y-116075000D03*
X91350000Y-117375000D03*
X91350000Y-118025000D03*
X91350000Y-115425000D03*
X91350000Y-114775000D03*
X91350000Y-113475000D03*
X91350000Y-114125000D03*
D12*
X94250000Y-115750000D03*
X95350000Y-115750000D03*
X93150000Y-115750000D03*
D45*
X101200000Y-65800000D03*
X101200000Y-63200000D03*
X100250000Y-63200000D03*
X99300000Y-63200000D03*
X99300000Y-65800000D03*
X100199960Y-65800000D03*
D46*
X98700000Y-124405000D03*
X98700000Y-123135000D03*
X98700000Y-121865000D03*
X98700000Y-120595000D03*
X93300000Y-120595000D03*
X93300000Y-121865000D03*
X93300000Y-123135000D03*
X93300000Y-124405000D03*
D22*
X102750000Y-73000000D03*
X102750000Y-75500000D03*
D21*
X135000000Y-82498160D03*
D34*
X135000000Y-84001840D03*
M02*
