G04 #@! TF.FileFunction,Legend,Top*
%FSLAX46Y46*%
G04 Gerber Fmt 4.6, Leading zero omitted, Abs format (unit mm)*
G04 Created by KiCad (PCBNEW 4.0.2-stable) date 11/9/2016 4:35:35 PM*
%MOMM*%
G01*
G04 APERTURE LIST*
%ADD10C,0.150000*%
%ADD11C,0.125000*%
%ADD12C,0.250000*%
%ADD13C,0.254000*%
%ADD14C,0.127000*%
%ADD15C,0.200660*%
%ADD16C,0.381000*%
%ADD17C,0.100000*%
%ADD18C,0.099060*%
%ADD19C,0.175000*%
%ADD20C,0.170000*%
%ADD21C,0.093980*%
G04 APERTURE END LIST*
D10*
D11*
X160223809Y-93216667D02*
X159766666Y-93216667D01*
X159995237Y-93216667D02*
X159995237Y-92516667D01*
X159919047Y-92616667D01*
X159842856Y-92683333D01*
X159766666Y-92716667D01*
X160985714Y-93216667D02*
X160528571Y-93216667D01*
X160757142Y-93216667D02*
X160757142Y-92516667D01*
X160680952Y-92616667D01*
X160604761Y-92683333D01*
X160528571Y-92716667D01*
X161900000Y-92483333D02*
X161214285Y-93383333D01*
X162319047Y-92516667D02*
X162395238Y-92516667D01*
X162471428Y-92550000D01*
X162509523Y-92583333D01*
X162547619Y-92650000D01*
X162585714Y-92783333D01*
X162585714Y-92950000D01*
X162547619Y-93083333D01*
X162509523Y-93150000D01*
X162471428Y-93183333D01*
X162395238Y-93216667D01*
X162319047Y-93216667D01*
X162242857Y-93183333D01*
X162204761Y-93150000D01*
X162166666Y-93083333D01*
X162128571Y-92950000D01*
X162128571Y-92783333D01*
X162166666Y-92650000D01*
X162204761Y-92583333D01*
X162242857Y-92550000D01*
X162319047Y-92516667D01*
X162852381Y-92516667D02*
X163385714Y-92516667D01*
X163042857Y-93216667D01*
X164261905Y-92483333D02*
X163576190Y-93383333D01*
X164490476Y-92583333D02*
X164528571Y-92550000D01*
X164604762Y-92516667D01*
X164795238Y-92516667D01*
X164871428Y-92550000D01*
X164909524Y-92583333D01*
X164947619Y-92650000D01*
X164947619Y-92716667D01*
X164909524Y-92816667D01*
X164452381Y-93216667D01*
X164947619Y-93216667D01*
X165442857Y-92516667D02*
X165519048Y-92516667D01*
X165595238Y-92550000D01*
X165633333Y-92583333D01*
X165671429Y-92650000D01*
X165709524Y-92783333D01*
X165709524Y-92950000D01*
X165671429Y-93083333D01*
X165633333Y-93150000D01*
X165595238Y-93183333D01*
X165519048Y-93216667D01*
X165442857Y-93216667D01*
X165366667Y-93183333D01*
X165328571Y-93150000D01*
X165290476Y-93083333D01*
X165252381Y-92950000D01*
X165252381Y-92783333D01*
X165290476Y-92650000D01*
X165328571Y-92583333D01*
X165366667Y-92550000D01*
X165442857Y-92516667D01*
X166471429Y-93216667D02*
X166014286Y-93216667D01*
X166242857Y-93216667D02*
X166242857Y-92516667D01*
X166166667Y-92616667D01*
X166090476Y-92683333D01*
X166014286Y-92716667D01*
X167157143Y-92516667D02*
X167004762Y-92516667D01*
X166928572Y-92550000D01*
X166890477Y-92583333D01*
X166814286Y-92683333D01*
X166776191Y-92816667D01*
X166776191Y-93083333D01*
X166814286Y-93150000D01*
X166852381Y-93183333D01*
X166928572Y-93216667D01*
X167080953Y-93216667D01*
X167157143Y-93183333D01*
X167195239Y-93150000D01*
X167233334Y-93083333D01*
X167233334Y-92916667D01*
X167195239Y-92850000D01*
X167157143Y-92816667D01*
X167080953Y-92783333D01*
X166928572Y-92783333D01*
X166852381Y-92816667D01*
X166814286Y-92850000D01*
X166776191Y-92916667D01*
D12*
X136042857Y-105971429D02*
X136804762Y-105971429D01*
X137185714Y-105352381D02*
X137852381Y-106352381D01*
X137852381Y-105352381D02*
X137185714Y-106352381D01*
X145590476Y-110871429D02*
X146352381Y-110871429D01*
X147019047Y-110776190D02*
X147019047Y-111252381D01*
X146685714Y-110252381D02*
X147019047Y-110776190D01*
X147352381Y-110252381D01*
X165442857Y-105071429D02*
X166204762Y-105071429D01*
X165823810Y-105452381D02*
X165823810Y-104690476D01*
X166585714Y-104452381D02*
X167252381Y-105452381D01*
X167252381Y-104452381D02*
X166585714Y-105452381D01*
X141590476Y-93071429D02*
X142352381Y-93071429D01*
X141971429Y-93452381D02*
X141971429Y-92690476D01*
X143019047Y-92976190D02*
X143019047Y-93452381D01*
X142685714Y-92452381D02*
X143019047Y-92976190D01*
X143352381Y-92452381D01*
D11*
X161323809Y-121716667D02*
X160866666Y-121716667D01*
X161095237Y-121716667D02*
X161095237Y-121016667D01*
X161019047Y-121116667D01*
X160942856Y-121183333D01*
X160866666Y-121216667D01*
X162085714Y-121716667D02*
X161628571Y-121716667D01*
X161857142Y-121716667D02*
X161857142Y-121016667D01*
X161780952Y-121116667D01*
X161704761Y-121183333D01*
X161628571Y-121216667D01*
X163000000Y-120983333D02*
X162314285Y-121883333D01*
X163419047Y-121016667D02*
X163495238Y-121016667D01*
X163571428Y-121050000D01*
X163609523Y-121083333D01*
X163647619Y-121150000D01*
X163685714Y-121283333D01*
X163685714Y-121450000D01*
X163647619Y-121583333D01*
X163609523Y-121650000D01*
X163571428Y-121683333D01*
X163495238Y-121716667D01*
X163419047Y-121716667D01*
X163342857Y-121683333D01*
X163304761Y-121650000D01*
X163266666Y-121583333D01*
X163228571Y-121450000D01*
X163228571Y-121283333D01*
X163266666Y-121150000D01*
X163304761Y-121083333D01*
X163342857Y-121050000D01*
X163419047Y-121016667D01*
X164066666Y-121716667D02*
X164219047Y-121716667D01*
X164295238Y-121683333D01*
X164333333Y-121650000D01*
X164409524Y-121550000D01*
X164447619Y-121416667D01*
X164447619Y-121150000D01*
X164409524Y-121083333D01*
X164371428Y-121050000D01*
X164295238Y-121016667D01*
X164142857Y-121016667D01*
X164066666Y-121050000D01*
X164028571Y-121083333D01*
X163990476Y-121150000D01*
X163990476Y-121316667D01*
X164028571Y-121383333D01*
X164066666Y-121416667D01*
X164142857Y-121450000D01*
X164295238Y-121450000D01*
X164371428Y-121416667D01*
X164409524Y-121383333D01*
X164447619Y-121316667D01*
X165361905Y-120983333D02*
X164676190Y-121883333D01*
X165590476Y-121083333D02*
X165628571Y-121050000D01*
X165704762Y-121016667D01*
X165895238Y-121016667D01*
X165971428Y-121050000D01*
X166009524Y-121083333D01*
X166047619Y-121150000D01*
X166047619Y-121216667D01*
X166009524Y-121316667D01*
X165552381Y-121716667D01*
X166047619Y-121716667D01*
X166542857Y-121016667D02*
X166619048Y-121016667D01*
X166695238Y-121050000D01*
X166733333Y-121083333D01*
X166771429Y-121150000D01*
X166809524Y-121283333D01*
X166809524Y-121450000D01*
X166771429Y-121583333D01*
X166733333Y-121650000D01*
X166695238Y-121683333D01*
X166619048Y-121716667D01*
X166542857Y-121716667D01*
X166466667Y-121683333D01*
X166428571Y-121650000D01*
X166390476Y-121583333D01*
X166352381Y-121450000D01*
X166352381Y-121283333D01*
X166390476Y-121150000D01*
X166428571Y-121083333D01*
X166466667Y-121050000D01*
X166542857Y-121016667D01*
X167571429Y-121716667D02*
X167114286Y-121716667D01*
X167342857Y-121716667D02*
X167342857Y-121016667D01*
X167266667Y-121116667D01*
X167190476Y-121183333D01*
X167114286Y-121216667D01*
X168257143Y-121016667D02*
X168104762Y-121016667D01*
X168028572Y-121050000D01*
X167990477Y-121083333D01*
X167914286Y-121183333D01*
X167876191Y-121316667D01*
X167876191Y-121583333D01*
X167914286Y-121650000D01*
X167952381Y-121683333D01*
X168028572Y-121716667D01*
X168180953Y-121716667D01*
X168257143Y-121683333D01*
X168295239Y-121650000D01*
X168333334Y-121583333D01*
X168333334Y-121416667D01*
X168295239Y-121350000D01*
X168257143Y-121316667D01*
X168180953Y-121283333D01*
X168028572Y-121283333D01*
X167952381Y-121316667D01*
X167914286Y-121350000D01*
X167876191Y-121416667D01*
D12*
X136242857Y-128871429D02*
X137004762Y-128871429D01*
X137385714Y-128252381D02*
X138052381Y-129252381D01*
X138052381Y-128252381D02*
X137385714Y-129252381D01*
X145490476Y-137271429D02*
X146252381Y-137271429D01*
X146919047Y-137176190D02*
X146919047Y-137652381D01*
X146585714Y-136652381D02*
X146919047Y-137176190D01*
X147252381Y-136652381D01*
X165642857Y-127971429D02*
X166404762Y-127971429D01*
X166023810Y-128352381D02*
X166023810Y-127590476D01*
X166785714Y-127352381D02*
X167452381Y-128352381D01*
X167452381Y-127352381D02*
X166785714Y-128352381D01*
X141290476Y-118171429D02*
X142052381Y-118171429D01*
X141671429Y-118552381D02*
X141671429Y-117790476D01*
X142719047Y-118076190D02*
X142719047Y-118552381D01*
X142385714Y-117552381D02*
X142719047Y-118076190D01*
X143052381Y-117552381D01*
X169538096Y-93950000D02*
X169442858Y-93878571D01*
X169300001Y-93878571D01*
X169157143Y-93950000D01*
X169061905Y-94092857D01*
X169014286Y-94235714D01*
X168966667Y-94521429D01*
X168966667Y-94735714D01*
X169014286Y-95021429D01*
X169061905Y-95164286D01*
X169157143Y-95307143D01*
X169300001Y-95378571D01*
X169395239Y-95378571D01*
X169538096Y-95307143D01*
X169585715Y-95235714D01*
X169585715Y-94735714D01*
X169395239Y-94735714D01*
X170014286Y-95378571D02*
X170014286Y-93878571D01*
X170585715Y-95378571D01*
X170585715Y-93878571D01*
X171061905Y-95378571D02*
X171061905Y-93878571D01*
X171300000Y-93878571D01*
X171442858Y-93950000D01*
X171538096Y-94092857D01*
X171585715Y-94235714D01*
X171633334Y-94521429D01*
X171633334Y-94735714D01*
X171585715Y-95021429D01*
X171538096Y-95164286D01*
X171442858Y-95307143D01*
X171300000Y-95378571D01*
X171061905Y-95378571D01*
X172238095Y-94807143D02*
X173000000Y-94807143D01*
X172619048Y-95378571D02*
X172619048Y-94235714D01*
X174000000Y-95378571D02*
X173428571Y-95378571D01*
X173714285Y-95378571D02*
X173714285Y-93878571D01*
X173619047Y-94092857D01*
X173523809Y-94235714D01*
X173428571Y-94307143D01*
X174380952Y-94021429D02*
X174428571Y-93950000D01*
X174523809Y-93878571D01*
X174761905Y-93878571D01*
X174857143Y-93950000D01*
X174904762Y-94021429D01*
X174952381Y-94164286D01*
X174952381Y-94307143D01*
X174904762Y-94521429D01*
X174333333Y-95378571D01*
X174952381Y-95378571D01*
X175238095Y-93878571D02*
X175571428Y-95378571D01*
X175904762Y-93878571D01*
X169538096Y-117450000D02*
X169442858Y-117378571D01*
X169300001Y-117378571D01*
X169157143Y-117450000D01*
X169061905Y-117592857D01*
X169014286Y-117735714D01*
X168966667Y-118021429D01*
X168966667Y-118235714D01*
X169014286Y-118521429D01*
X169061905Y-118664286D01*
X169157143Y-118807143D01*
X169300001Y-118878571D01*
X169395239Y-118878571D01*
X169538096Y-118807143D01*
X169585715Y-118735714D01*
X169585715Y-118235714D01*
X169395239Y-118235714D01*
X170014286Y-118878571D02*
X170014286Y-117378571D01*
X170585715Y-118878571D01*
X170585715Y-117378571D01*
X171061905Y-118878571D02*
X171061905Y-117378571D01*
X171300000Y-117378571D01*
X171442858Y-117450000D01*
X171538096Y-117592857D01*
X171585715Y-117735714D01*
X171633334Y-118021429D01*
X171633334Y-118235714D01*
X171585715Y-118521429D01*
X171538096Y-118664286D01*
X171442858Y-118807143D01*
X171300000Y-118878571D01*
X171061905Y-118878571D01*
X172038095Y-118107143D02*
X172800000Y-118107143D01*
X172419048Y-118678571D02*
X172419048Y-117535714D01*
X173800000Y-118678571D02*
X173228571Y-118678571D01*
X173514285Y-118678571D02*
X173514285Y-117178571D01*
X173419047Y-117392857D01*
X173323809Y-117535714D01*
X173228571Y-117607143D01*
X174180952Y-117321429D02*
X174228571Y-117250000D01*
X174323809Y-117178571D01*
X174561905Y-117178571D01*
X174657143Y-117250000D01*
X174704762Y-117321429D01*
X174752381Y-117464286D01*
X174752381Y-117607143D01*
X174704762Y-117821429D01*
X174133333Y-118678571D01*
X174752381Y-118678571D01*
X175038095Y-117178571D02*
X175371428Y-118678571D01*
X175704762Y-117178571D01*
D13*
X159440000Y-91995000D02*
X159440000Y-105205000D01*
X159440000Y-105205000D02*
X144360000Y-105205000D01*
X144360000Y-105205000D02*
X144360000Y-91995000D01*
X144360000Y-91995000D02*
X159440000Y-91995000D01*
D14*
X156558800Y-106906400D02*
X156558800Y-106093600D01*
X155441200Y-106119000D02*
X155441200Y-106906400D01*
X155187200Y-106093600D02*
X156812800Y-106093600D01*
X156812800Y-106093600D02*
X156812800Y-106906400D01*
X156812800Y-106906400D02*
X155187200Y-106906400D01*
X155187200Y-106906400D02*
X155187200Y-106093600D01*
X156558800Y-108656400D02*
X156558800Y-107843600D01*
X155441200Y-107869000D02*
X155441200Y-108656400D01*
X155187200Y-107843600D02*
X156812800Y-107843600D01*
X156812800Y-107843600D02*
X156812800Y-108656400D01*
X156812800Y-108656400D02*
X155187200Y-108656400D01*
X155187200Y-108656400D02*
X155187200Y-107843600D01*
D10*
X150100000Y-107000000D02*
G75*
G03X150100000Y-107000000I-100000J0D01*
G01*
D15*
X153500000Y-107300000D02*
X153500000Y-110300000D01*
X153500000Y-110300000D02*
X150500000Y-110300000D01*
X150500000Y-107300000D02*
X150500000Y-110300000D01*
X150500000Y-107300000D02*
X153500000Y-107300000D01*
D14*
X155158800Y-135306400D02*
X155158800Y-134493600D01*
X154041200Y-134519000D02*
X154041200Y-135306400D01*
X153787200Y-134493600D02*
X155412800Y-134493600D01*
X155412800Y-134493600D02*
X155412800Y-135306400D01*
X155412800Y-135306400D02*
X153787200Y-135306400D01*
X153787200Y-135306400D02*
X153787200Y-134493600D01*
X149606400Y-134241200D02*
X148793600Y-134241200D01*
X148819000Y-135358800D02*
X149606400Y-135358800D01*
X148793600Y-135612800D02*
X148793600Y-133987200D01*
X148793600Y-133987200D02*
X149606400Y-133987200D01*
X149606400Y-133987200D02*
X149606400Y-135612800D01*
X149606400Y-135612800D02*
X148793600Y-135612800D01*
D10*
X150000000Y-136100000D02*
G75*
G03X150000000Y-136100000I-100000J0D01*
G01*
D15*
X153400000Y-136400000D02*
X153400000Y-139400000D01*
X153400000Y-139400000D02*
X150400000Y-139400000D01*
X150400000Y-136400000D02*
X150400000Y-139400000D01*
X150400000Y-136400000D02*
X153400000Y-136400000D01*
D13*
X144660000Y-132600000D02*
X144660000Y-116800000D01*
X144660000Y-116800000D02*
X160540000Y-116800000D01*
X160540000Y-116800000D02*
X160540000Y-132600000D01*
X160540000Y-132600000D02*
X144660000Y-132600000D01*
D10*
X170500000Y-96200000D02*
X170500000Y-97200000D01*
X170000000Y-97200000D02*
X170000000Y-96200000D01*
X170500000Y-97200000D02*
X170000000Y-97200000D01*
X173000000Y-97200000D02*
X172500000Y-97200000D01*
X172500000Y-97200000D02*
X172500000Y-96200000D01*
X173000000Y-96200000D02*
X173000000Y-97200000D01*
D16*
X175500000Y-108200000D02*
X175500000Y-96200000D01*
X175500000Y-96200000D02*
X169000000Y-96200000D01*
X169000000Y-96200000D02*
X169000000Y-108200000D01*
X169000000Y-108200000D02*
X175500000Y-108200000D01*
D10*
X176100000Y-94200000D02*
X184100000Y-94200000D01*
X184100000Y-94200000D02*
X184100000Y-102200000D01*
X184100000Y-102200000D02*
X176100000Y-102200000D01*
X176100000Y-102200000D02*
X176100000Y-94200000D01*
D14*
X183662000Y-105308000D02*
X183662000Y-106324000D01*
X183662000Y-106324000D02*
X182138000Y-106324000D01*
X182138000Y-106324000D02*
X182138000Y-105308000D01*
X182138000Y-104292000D02*
X182138000Y-103276000D01*
X182138000Y-103276000D02*
X183662000Y-103276000D01*
X183662000Y-103276000D02*
X183662000Y-104292000D01*
D10*
X170300000Y-119500000D02*
X170300000Y-120500000D01*
X169800000Y-120500000D02*
X169800000Y-119500000D01*
X170300000Y-120500000D02*
X169800000Y-120500000D01*
X172800000Y-120500000D02*
X172300000Y-120500000D01*
X172300000Y-120500000D02*
X172300000Y-119500000D01*
X172800000Y-119500000D02*
X172800000Y-120500000D01*
D16*
X175300000Y-131500000D02*
X175300000Y-119500000D01*
X175300000Y-119500000D02*
X168800000Y-119500000D01*
X168800000Y-119500000D02*
X168800000Y-131500000D01*
X168800000Y-131500000D02*
X175300000Y-131500000D01*
D10*
X176200000Y-117300000D02*
X184200000Y-117300000D01*
X184200000Y-117300000D02*
X184200000Y-125300000D01*
X184200000Y-125300000D02*
X176200000Y-125300000D01*
X176200000Y-125300000D02*
X176200000Y-117300000D01*
D14*
X181892000Y-127162000D02*
X180876000Y-127162000D01*
X180876000Y-127162000D02*
X180876000Y-125638000D01*
X180876000Y-125638000D02*
X181892000Y-125638000D01*
X182908000Y-125638000D02*
X183924000Y-125638000D01*
X183924000Y-125638000D02*
X183924000Y-127162000D01*
X183924000Y-127162000D02*
X182908000Y-127162000D01*
D17*
X178250000Y-138340000D02*
X178250000Y-138140000D01*
X178140000Y-138240000D02*
X178340000Y-138240000D01*
D18*
X178657560Y-137200000D02*
X178657560Y-138400000D01*
X178650000Y-138400000D02*
X176550000Y-138400000D01*
X176547040Y-138400000D02*
X176547040Y-137200000D01*
X176541960Y-134800000D02*
X176541960Y-133600000D01*
X176550000Y-133600000D02*
X178650000Y-133600000D01*
X178657880Y-133600000D02*
X178657880Y-134800000D01*
D17*
X180550000Y-135660000D02*
X180550000Y-135860000D01*
X180660000Y-135760000D02*
X180460000Y-135760000D01*
D18*
X180142440Y-136800000D02*
X180142440Y-135600000D01*
X180150000Y-135600000D02*
X182250000Y-135600000D01*
X182252960Y-135600000D02*
X182252960Y-136800000D01*
X182258040Y-139200000D02*
X182258040Y-140400000D01*
X182250000Y-140400000D02*
X180150000Y-140400000D01*
X180142120Y-140400000D02*
X180142120Y-139200000D01*
D17*
X180450000Y-128660000D02*
X180450000Y-128860000D01*
X180560000Y-128760000D02*
X180360000Y-128760000D01*
D18*
X180042440Y-129800000D02*
X180042440Y-128600000D01*
X180050000Y-128600000D02*
X182150000Y-128600000D01*
X182152960Y-128600000D02*
X182152960Y-129800000D01*
X182158040Y-132200000D02*
X182158040Y-133400000D01*
X182150000Y-133400000D02*
X180050000Y-133400000D01*
X180042120Y-133400000D02*
X180042120Y-132200000D01*
D17*
X177150000Y-126660000D02*
X177150000Y-126860000D01*
X177260000Y-126760000D02*
X177060000Y-126760000D01*
D18*
X176742440Y-127800000D02*
X176742440Y-126600000D01*
X176750000Y-126600000D02*
X178850000Y-126600000D01*
X178852960Y-126600000D02*
X178852960Y-127800000D01*
X178858040Y-130200000D02*
X178858040Y-131400000D01*
X178850000Y-131400000D02*
X176750000Y-131400000D01*
X176742120Y-131400000D02*
X176742120Y-130200000D01*
X163042857Y-102014286D02*
X164014286Y-102014286D01*
X164128571Y-101957143D01*
X164185714Y-101900000D01*
X164242857Y-101785714D01*
X164242857Y-101557143D01*
X164185714Y-101442857D01*
X164128571Y-101385714D01*
X164014286Y-101328571D01*
X163042857Y-101328571D01*
X163157143Y-100814286D02*
X163100000Y-100757143D01*
X163042857Y-100642857D01*
X163042857Y-100357143D01*
X163100000Y-100242857D01*
X163157143Y-100185714D01*
X163271429Y-100128571D01*
X163385714Y-100128571D01*
X163557143Y-100185714D01*
X164242857Y-100871428D01*
X164242857Y-100128571D01*
X164142857Y-97628571D02*
X163571429Y-98028571D01*
X164142857Y-98314286D02*
X162942857Y-98314286D01*
X162942857Y-97857143D01*
X163000000Y-97742857D01*
X163057143Y-97685714D01*
X163171429Y-97628571D01*
X163342857Y-97628571D01*
X163457143Y-97685714D01*
X163514286Y-97742857D01*
X163571429Y-97857143D01*
X163571429Y-98314286D01*
X162942857Y-96771429D02*
X163800000Y-96771429D01*
X163971429Y-96828571D01*
X164085714Y-96942857D01*
X164142857Y-97114286D01*
X164142857Y-97228571D01*
X164142857Y-95571428D02*
X164142857Y-96257143D01*
X164142857Y-95914285D02*
X162942857Y-95914285D01*
X163114286Y-96028571D01*
X163228571Y-96142857D01*
X163285714Y-96257143D01*
X163057143Y-95114286D02*
X163000000Y-95057143D01*
X162942857Y-94942857D01*
X162942857Y-94657143D01*
X163000000Y-94542857D01*
X163057143Y-94485714D01*
X163171429Y-94428571D01*
X163285714Y-94428571D01*
X163457143Y-94485714D01*
X164142857Y-95171428D01*
X164142857Y-94428571D01*
D10*
X155900000Y-105514286D02*
X155871429Y-105542857D01*
X155785715Y-105571429D01*
X155728572Y-105571429D01*
X155642857Y-105542857D01*
X155585715Y-105485714D01*
X155557143Y-105428571D01*
X155528572Y-105314286D01*
X155528572Y-105228571D01*
X155557143Y-105114286D01*
X155585715Y-105057143D01*
X155642857Y-105000000D01*
X155728572Y-104971429D01*
X155785715Y-104971429D01*
X155871429Y-105000000D01*
X155900000Y-105028571D01*
X156471429Y-105571429D02*
X156128572Y-105571429D01*
X156300000Y-105571429D02*
X156300000Y-104971429D01*
X156242857Y-105057143D01*
X156185715Y-105114286D01*
X156128572Y-105142857D01*
X155185714Y-108014286D02*
X155214286Y-108042857D01*
X155185714Y-108071429D01*
X155157143Y-108042857D01*
X155185714Y-108014286D01*
X155185714Y-108071429D01*
X155785714Y-108071429D02*
X155442857Y-108071429D01*
X155614285Y-108071429D02*
X155614285Y-107471429D01*
X155557142Y-107557143D01*
X155500000Y-107614286D01*
X155442857Y-107642857D01*
X156300000Y-107671429D02*
X156300000Y-108071429D01*
X156042857Y-107671429D02*
X156042857Y-107985714D01*
X156071429Y-108042857D01*
X156128571Y-108071429D01*
X156214286Y-108071429D01*
X156271429Y-108042857D01*
X156300000Y-108014286D01*
X156785714Y-107757143D02*
X156585714Y-107757143D01*
X156585714Y-108071429D02*
X156585714Y-107471429D01*
X156871428Y-107471429D01*
X155900000Y-107264286D02*
X155871429Y-107292857D01*
X155785715Y-107321429D01*
X155728572Y-107321429D01*
X155642857Y-107292857D01*
X155585715Y-107235714D01*
X155557143Y-107178571D01*
X155528572Y-107064286D01*
X155528572Y-106978571D01*
X155557143Y-106864286D01*
X155585715Y-106807143D01*
X155642857Y-106750000D01*
X155728572Y-106721429D01*
X155785715Y-106721429D01*
X155871429Y-106750000D01*
X155900000Y-106778571D01*
X156414286Y-106921429D02*
X156414286Y-107321429D01*
X156271429Y-106692857D02*
X156128572Y-107121429D01*
X156500000Y-107121429D01*
X155185714Y-109764286D02*
X155214286Y-109792857D01*
X155185714Y-109821429D01*
X155157143Y-109792857D01*
X155185714Y-109764286D01*
X155185714Y-109821429D01*
X155785714Y-109821429D02*
X155442857Y-109821429D01*
X155614285Y-109821429D02*
X155614285Y-109221429D01*
X155557142Y-109307143D01*
X155500000Y-109364286D01*
X155442857Y-109392857D01*
X156300000Y-109421429D02*
X156300000Y-109821429D01*
X156042857Y-109421429D02*
X156042857Y-109735714D01*
X156071429Y-109792857D01*
X156128571Y-109821429D01*
X156214286Y-109821429D01*
X156271429Y-109792857D01*
X156300000Y-109764286D01*
X156785714Y-109507143D02*
X156585714Y-109507143D01*
X156585714Y-109821429D02*
X156585714Y-109221429D01*
X156871428Y-109221429D01*
D19*
X151466667Y-105716667D02*
X151466667Y-106283333D01*
X151500000Y-106350000D01*
X151533333Y-106383333D01*
X151600000Y-106416667D01*
X151733333Y-106416667D01*
X151800000Y-106383333D01*
X151833333Y-106350000D01*
X151866667Y-106283333D01*
X151866667Y-105716667D01*
X152566666Y-106416667D02*
X152166666Y-106416667D01*
X152366666Y-106416667D02*
X152366666Y-105716667D01*
X152300000Y-105816667D01*
X152233333Y-105883333D01*
X152166666Y-105916667D01*
D20*
X149899999Y-112016667D02*
X149566666Y-112016667D01*
X149566666Y-111316667D01*
X150099999Y-111983333D02*
X150199999Y-112016667D01*
X150366666Y-112016667D01*
X150433333Y-111983333D01*
X150466666Y-111950000D01*
X150499999Y-111883333D01*
X150499999Y-111816667D01*
X150466666Y-111750000D01*
X150433333Y-111716667D01*
X150366666Y-111683333D01*
X150233333Y-111650000D01*
X150166666Y-111616667D01*
X150133333Y-111583333D01*
X150099999Y-111516667D01*
X150099999Y-111450000D01*
X150133333Y-111383333D01*
X150166666Y-111350000D01*
X150233333Y-111316667D01*
X150399999Y-111316667D01*
X150499999Y-111350000D01*
X150800000Y-112016667D02*
X150800000Y-111316667D01*
X151033333Y-111816667D01*
X151266666Y-111316667D01*
X151266666Y-112016667D01*
X151900000Y-111316667D02*
X151766666Y-111316667D01*
X151700000Y-111350000D01*
X151666666Y-111383333D01*
X151600000Y-111483333D01*
X151566666Y-111616667D01*
X151566666Y-111883333D01*
X151600000Y-111950000D01*
X151633333Y-111983333D01*
X151700000Y-112016667D01*
X151833333Y-112016667D01*
X151900000Y-111983333D01*
X151933333Y-111950000D01*
X151966666Y-111883333D01*
X151966666Y-111716667D01*
X151933333Y-111650000D01*
X151900000Y-111616667D01*
X151833333Y-111583333D01*
X151700000Y-111583333D01*
X151633333Y-111616667D01*
X151600000Y-111650000D01*
X151566666Y-111716667D01*
X152266667Y-112016667D02*
X152266667Y-111316667D01*
X152433333Y-111316667D01*
X152533333Y-111350000D01*
X152600000Y-111416667D01*
X152633333Y-111483333D01*
X152666667Y-111616667D01*
X152666667Y-111716667D01*
X152633333Y-111850000D01*
X152600000Y-111916667D01*
X152533333Y-111983333D01*
X152433333Y-112016667D01*
X152266667Y-112016667D01*
X152933333Y-111983333D02*
X153033333Y-112016667D01*
X153200000Y-112016667D01*
X153266667Y-111983333D01*
X153300000Y-111950000D01*
X153333333Y-111883333D01*
X153333333Y-111816667D01*
X153300000Y-111750000D01*
X153266667Y-111716667D01*
X153200000Y-111683333D01*
X153066667Y-111650000D01*
X153000000Y-111616667D01*
X152966667Y-111583333D01*
X152933333Y-111516667D01*
X152933333Y-111450000D01*
X152966667Y-111383333D01*
X153000000Y-111350000D01*
X153066667Y-111316667D01*
X153233333Y-111316667D01*
X153333333Y-111350000D01*
X153566667Y-111316667D02*
X154000000Y-111316667D01*
X153766667Y-111583333D01*
X153866667Y-111583333D01*
X153933334Y-111616667D01*
X153966667Y-111650000D01*
X154000000Y-111716667D01*
X154000000Y-111883333D01*
X153966667Y-111950000D01*
X153933334Y-111983333D01*
X153866667Y-112016667D01*
X153666667Y-112016667D01*
X153600000Y-111983333D01*
X153566667Y-111950000D01*
X154233334Y-111316667D02*
X154666667Y-111316667D01*
X154433334Y-111583333D01*
X154533334Y-111583333D01*
X154600001Y-111616667D01*
X154633334Y-111650000D01*
X154666667Y-111716667D01*
X154666667Y-111883333D01*
X154633334Y-111950000D01*
X154600001Y-111983333D01*
X154533334Y-112016667D01*
X154333334Y-112016667D01*
X154266667Y-111983333D01*
X154233334Y-111950000D01*
D10*
X156200000Y-135114286D02*
X156171429Y-135142857D01*
X156085715Y-135171429D01*
X156028572Y-135171429D01*
X155942857Y-135142857D01*
X155885715Y-135085714D01*
X155857143Y-135028571D01*
X155828572Y-134914286D01*
X155828572Y-134828571D01*
X155857143Y-134714286D01*
X155885715Y-134657143D01*
X155942857Y-134600000D01*
X156028572Y-134571429D01*
X156085715Y-134571429D01*
X156171429Y-134600000D01*
X156200000Y-134628571D01*
X156771429Y-135171429D02*
X156428572Y-135171429D01*
X156600000Y-135171429D02*
X156600000Y-134571429D01*
X156542857Y-134657143D01*
X156485715Y-134714286D01*
X156428572Y-134742857D01*
X155685714Y-134014286D02*
X155714286Y-134042857D01*
X155685714Y-134071429D01*
X155657143Y-134042857D01*
X155685714Y-134014286D01*
X155685714Y-134071429D01*
X156285714Y-134071429D02*
X155942857Y-134071429D01*
X156114285Y-134071429D02*
X156114285Y-133471429D01*
X156057142Y-133557143D01*
X156000000Y-133614286D01*
X155942857Y-133642857D01*
X156800000Y-133671429D02*
X156800000Y-134071429D01*
X156542857Y-133671429D02*
X156542857Y-133985714D01*
X156571429Y-134042857D01*
X156628571Y-134071429D01*
X156714286Y-134071429D01*
X156771429Y-134042857D01*
X156800000Y-134014286D01*
X157285714Y-133757143D02*
X157085714Y-133757143D01*
X157085714Y-134071429D02*
X157085714Y-133471429D01*
X157371428Y-133471429D01*
X149414286Y-133100000D02*
X149442857Y-133128571D01*
X149471429Y-133214285D01*
X149471429Y-133271428D01*
X149442857Y-133357143D01*
X149385714Y-133414285D01*
X149328571Y-133442857D01*
X149214286Y-133471428D01*
X149128571Y-133471428D01*
X149014286Y-133442857D01*
X148957143Y-133414285D01*
X148900000Y-133357143D01*
X148871429Y-133271428D01*
X148871429Y-133214285D01*
X148900000Y-133128571D01*
X148928571Y-133100000D01*
X149071429Y-132585714D02*
X149471429Y-132585714D01*
X148842857Y-132728571D02*
X149271429Y-132871428D01*
X149271429Y-132500000D01*
X148314286Y-135614286D02*
X148342857Y-135585714D01*
X148371429Y-135614286D01*
X148342857Y-135642857D01*
X148314286Y-135614286D01*
X148371429Y-135614286D01*
X148371429Y-135014286D02*
X148371429Y-135357143D01*
X148371429Y-135185715D02*
X147771429Y-135185715D01*
X147857143Y-135242858D01*
X147914286Y-135300000D01*
X147942857Y-135357143D01*
X147971429Y-134500000D02*
X148371429Y-134500000D01*
X147971429Y-134757143D02*
X148285714Y-134757143D01*
X148342857Y-134728571D01*
X148371429Y-134671429D01*
X148371429Y-134585714D01*
X148342857Y-134528571D01*
X148314286Y-134500000D01*
X148057143Y-134014286D02*
X148057143Y-134214286D01*
X148371429Y-134214286D02*
X147771429Y-134214286D01*
X147771429Y-133928572D01*
D19*
X151366667Y-134816667D02*
X151366667Y-135383333D01*
X151400000Y-135450000D01*
X151433333Y-135483333D01*
X151500000Y-135516667D01*
X151633333Y-135516667D01*
X151700000Y-135483333D01*
X151733333Y-135450000D01*
X151766667Y-135383333D01*
X151766667Y-134816667D01*
X152466666Y-135516667D02*
X152066666Y-135516667D01*
X152266666Y-135516667D02*
X152266666Y-134816667D01*
X152200000Y-134916667D01*
X152133333Y-134983333D01*
X152066666Y-135016667D01*
D20*
X149799999Y-141116667D02*
X149466666Y-141116667D01*
X149466666Y-140416667D01*
X149999999Y-141083333D02*
X150099999Y-141116667D01*
X150266666Y-141116667D01*
X150333333Y-141083333D01*
X150366666Y-141050000D01*
X150399999Y-140983333D01*
X150399999Y-140916667D01*
X150366666Y-140850000D01*
X150333333Y-140816667D01*
X150266666Y-140783333D01*
X150133333Y-140750000D01*
X150066666Y-140716667D01*
X150033333Y-140683333D01*
X149999999Y-140616667D01*
X149999999Y-140550000D01*
X150033333Y-140483333D01*
X150066666Y-140450000D01*
X150133333Y-140416667D01*
X150299999Y-140416667D01*
X150399999Y-140450000D01*
X150700000Y-141116667D02*
X150700000Y-140416667D01*
X150933333Y-140916667D01*
X151166666Y-140416667D01*
X151166666Y-141116667D01*
X151800000Y-140416667D02*
X151666666Y-140416667D01*
X151600000Y-140450000D01*
X151566666Y-140483333D01*
X151500000Y-140583333D01*
X151466666Y-140716667D01*
X151466666Y-140983333D01*
X151500000Y-141050000D01*
X151533333Y-141083333D01*
X151600000Y-141116667D01*
X151733333Y-141116667D01*
X151800000Y-141083333D01*
X151833333Y-141050000D01*
X151866666Y-140983333D01*
X151866666Y-140816667D01*
X151833333Y-140750000D01*
X151800000Y-140716667D01*
X151733333Y-140683333D01*
X151600000Y-140683333D01*
X151533333Y-140716667D01*
X151500000Y-140750000D01*
X151466666Y-140816667D01*
X152166667Y-141116667D02*
X152166667Y-140416667D01*
X152333333Y-140416667D01*
X152433333Y-140450000D01*
X152500000Y-140516667D01*
X152533333Y-140583333D01*
X152566667Y-140716667D01*
X152566667Y-140816667D01*
X152533333Y-140950000D01*
X152500000Y-141016667D01*
X152433333Y-141083333D01*
X152333333Y-141116667D01*
X152166667Y-141116667D01*
X152833333Y-141083333D02*
X152933333Y-141116667D01*
X153100000Y-141116667D01*
X153166667Y-141083333D01*
X153200000Y-141050000D01*
X153233333Y-140983333D01*
X153233333Y-140916667D01*
X153200000Y-140850000D01*
X153166667Y-140816667D01*
X153100000Y-140783333D01*
X152966667Y-140750000D01*
X152900000Y-140716667D01*
X152866667Y-140683333D01*
X152833333Y-140616667D01*
X152833333Y-140550000D01*
X152866667Y-140483333D01*
X152900000Y-140450000D01*
X152966667Y-140416667D01*
X153133333Y-140416667D01*
X153233333Y-140450000D01*
X153466667Y-140416667D02*
X153900000Y-140416667D01*
X153666667Y-140683333D01*
X153766667Y-140683333D01*
X153833334Y-140716667D01*
X153866667Y-140750000D01*
X153900000Y-140816667D01*
X153900000Y-140983333D01*
X153866667Y-141050000D01*
X153833334Y-141083333D01*
X153766667Y-141116667D01*
X153566667Y-141116667D01*
X153500000Y-141083333D01*
X153466667Y-141050000D01*
X154133334Y-140416667D02*
X154566667Y-140416667D01*
X154333334Y-140683333D01*
X154433334Y-140683333D01*
X154500001Y-140716667D01*
X154533334Y-140750000D01*
X154566667Y-140816667D01*
X154566667Y-140983333D01*
X154533334Y-141050000D01*
X154500001Y-141083333D01*
X154433334Y-141116667D01*
X154233334Y-141116667D01*
X154166667Y-141083333D01*
X154133334Y-141050000D01*
D18*
X161112857Y-119554286D02*
X162084286Y-119554286D01*
X162198571Y-119497143D01*
X162255714Y-119440000D01*
X162312857Y-119325714D01*
X162312857Y-119097143D01*
X162255714Y-118982857D01*
X162198571Y-118925714D01*
X162084286Y-118868571D01*
X161112857Y-118868571D01*
X161227143Y-118354286D02*
X161170000Y-118297143D01*
X161112857Y-118182857D01*
X161112857Y-117897143D01*
X161170000Y-117782857D01*
X161227143Y-117725714D01*
X161341429Y-117668571D01*
X161455714Y-117668571D01*
X161627143Y-117725714D01*
X162312857Y-118411428D01*
X162312857Y-117668571D01*
X162132857Y-132138571D02*
X161561429Y-132538571D01*
X162132857Y-132824286D02*
X160932857Y-132824286D01*
X160932857Y-132367143D01*
X160990000Y-132252857D01*
X161047143Y-132195714D01*
X161161429Y-132138571D01*
X161332857Y-132138571D01*
X161447143Y-132195714D01*
X161504286Y-132252857D01*
X161561429Y-132367143D01*
X161561429Y-132824286D01*
X160932857Y-131281429D02*
X161790000Y-131281429D01*
X161961429Y-131338571D01*
X162075714Y-131452857D01*
X162132857Y-131624286D01*
X162132857Y-131738571D01*
X162132857Y-130081428D02*
X162132857Y-130767143D01*
X162132857Y-130424285D02*
X160932857Y-130424285D01*
X161104286Y-130538571D01*
X161218571Y-130652857D01*
X161275714Y-130767143D01*
X161047143Y-129624286D02*
X160990000Y-129567143D01*
X160932857Y-129452857D01*
X160932857Y-129167143D01*
X160990000Y-129052857D01*
X161047143Y-128995714D01*
X161161429Y-128938571D01*
X161275714Y-128938571D01*
X161447143Y-128995714D01*
X162132857Y-129681428D01*
X162132857Y-128938571D01*
D10*
X182083334Y-107716667D02*
X182083334Y-107016667D01*
X182250000Y-107016667D01*
X182350000Y-107050000D01*
X182416667Y-107116667D01*
X182450000Y-107183333D01*
X182483334Y-107316667D01*
X182483334Y-107416667D01*
X182450000Y-107550000D01*
X182416667Y-107616667D01*
X182350000Y-107683333D01*
X182250000Y-107716667D01*
X182083334Y-107716667D01*
X182750000Y-107083333D02*
X182783334Y-107050000D01*
X182850000Y-107016667D01*
X183016667Y-107016667D01*
X183083334Y-107050000D01*
X183116667Y-107083333D01*
X183150000Y-107150000D01*
X183150000Y-107216667D01*
X183116667Y-107316667D01*
X182716667Y-107716667D01*
X183150000Y-107716667D01*
X175729048Y-109111429D02*
X176490953Y-109111429D01*
X176110001Y-109492381D02*
X176110001Y-108730476D01*
X183383334Y-108616667D02*
X183383334Y-107916667D01*
X183550000Y-107916667D01*
X183650000Y-107950000D01*
X183716667Y-108016667D01*
X183750000Y-108083333D01*
X183783334Y-108216667D01*
X183783334Y-108316667D01*
X183750000Y-108450000D01*
X183716667Y-108516667D01*
X183650000Y-108583333D01*
X183550000Y-108616667D01*
X183383334Y-108616667D01*
X184016667Y-107916667D02*
X184450000Y-107916667D01*
X184216667Y-108183333D01*
X184316667Y-108183333D01*
X184383334Y-108216667D01*
X184416667Y-108250000D01*
X184450000Y-108316667D01*
X184450000Y-108483333D01*
X184416667Y-108550000D01*
X184383334Y-108583333D01*
X184316667Y-108616667D01*
X184116667Y-108616667D01*
X184050000Y-108583333D01*
X184016667Y-108550000D01*
X183519048Y-108171429D02*
X184280953Y-108171429D01*
X183900001Y-108552381D02*
X183900001Y-107790476D01*
X172183334Y-111816667D02*
X172183334Y-111116667D01*
X172350000Y-111116667D01*
X172450000Y-111150000D01*
X172516667Y-111216667D01*
X172550000Y-111283333D01*
X172583334Y-111416667D01*
X172583334Y-111516667D01*
X172550000Y-111650000D01*
X172516667Y-111716667D01*
X172450000Y-111783333D01*
X172350000Y-111816667D01*
X172183334Y-111816667D01*
X173183334Y-111350000D02*
X173183334Y-111816667D01*
X173016667Y-111083333D02*
X172850000Y-111583333D01*
X173283334Y-111583333D01*
X178609048Y-108731429D02*
X179370953Y-108731429D01*
X178990001Y-109112381D02*
X178990001Y-108350476D01*
X179466667Y-93052381D02*
X179466667Y-93766667D01*
X179419047Y-93909524D01*
X179323809Y-94004762D01*
X179180952Y-94052381D01*
X179085714Y-94052381D01*
X180466667Y-94052381D02*
X179895238Y-94052381D01*
X180180952Y-94052381D02*
X180180952Y-93052381D01*
X180085714Y-93195238D01*
X179990476Y-93290476D01*
X179895238Y-93338095D01*
X181183334Y-104216667D02*
X181183334Y-103516667D01*
X181350000Y-103516667D01*
X181450000Y-103550000D01*
X181516667Y-103616667D01*
X181550000Y-103683333D01*
X181583334Y-103816667D01*
X181583334Y-103916667D01*
X181550000Y-104050000D01*
X181516667Y-104116667D01*
X181450000Y-104183333D01*
X181350000Y-104216667D01*
X181183334Y-104216667D01*
X182250000Y-104216667D02*
X181850000Y-104216667D01*
X182050000Y-104216667D02*
X182050000Y-103516667D01*
X181983334Y-103616667D01*
X181916667Y-103683333D01*
X181850000Y-103716667D01*
X181109048Y-102431429D02*
X181870953Y-102431429D01*
X181490001Y-102812381D02*
X181490001Y-102050476D01*
X181871429Y-105900000D02*
X181585714Y-106100000D01*
X181871429Y-106242857D02*
X181271429Y-106242857D01*
X181271429Y-106014285D01*
X181300000Y-105957143D01*
X181328571Y-105928571D01*
X181385714Y-105900000D01*
X181471429Y-105900000D01*
X181528571Y-105928571D01*
X181557143Y-105957143D01*
X181585714Y-106014285D01*
X181585714Y-106242857D01*
X181871429Y-105328571D02*
X181871429Y-105671428D01*
X181871429Y-105500000D02*
X181271429Y-105500000D01*
X181357143Y-105557143D01*
X181414286Y-105614285D01*
X181442857Y-105671428D01*
X183971429Y-103757143D02*
X183971429Y-103871429D01*
X184000000Y-103928572D01*
X184028571Y-103957143D01*
X184114286Y-104014286D01*
X184228571Y-104042857D01*
X184457143Y-104042857D01*
X184514286Y-104014286D01*
X184542857Y-103985714D01*
X184571429Y-103928572D01*
X184571429Y-103814286D01*
X184542857Y-103757143D01*
X184514286Y-103728572D01*
X184457143Y-103700000D01*
X184314286Y-103700000D01*
X184257143Y-103728572D01*
X184228571Y-103757143D01*
X184200000Y-103814286D01*
X184200000Y-103928572D01*
X184228571Y-103985714D01*
X184257143Y-104014286D01*
X184314286Y-104042857D01*
X183971429Y-103328571D02*
X183971429Y-103271428D01*
X184000000Y-103214285D01*
X184028571Y-103185714D01*
X184085714Y-103157143D01*
X184200000Y-103128571D01*
X184342857Y-103128571D01*
X184457143Y-103157143D01*
X184514286Y-103185714D01*
X184542857Y-103214285D01*
X184571429Y-103271428D01*
X184571429Y-103328571D01*
X184542857Y-103385714D01*
X184514286Y-103414285D01*
X184457143Y-103442857D01*
X184342857Y-103471428D01*
X184200000Y-103471428D01*
X184085714Y-103442857D01*
X184028571Y-103414285D01*
X184000000Y-103385714D01*
X183971429Y-103328571D01*
X183971429Y-102757142D02*
X183971429Y-102699999D01*
X184000000Y-102642856D01*
X184028571Y-102614285D01*
X184085714Y-102585714D01*
X184200000Y-102557142D01*
X184342857Y-102557142D01*
X184457143Y-102585714D01*
X184514286Y-102614285D01*
X184542857Y-102642856D01*
X184571429Y-102699999D01*
X184571429Y-102757142D01*
X184542857Y-102814285D01*
X184514286Y-102842856D01*
X184457143Y-102871428D01*
X184342857Y-102899999D01*
X184200000Y-102899999D01*
X184085714Y-102871428D01*
X184028571Y-102842856D01*
X184000000Y-102814285D01*
X183971429Y-102757142D01*
X179666667Y-116052381D02*
X179666667Y-116766667D01*
X179619047Y-116909524D01*
X179523809Y-117004762D01*
X179380952Y-117052381D01*
X179285714Y-117052381D01*
X180666667Y-117052381D02*
X180095238Y-117052381D01*
X180380952Y-117052381D02*
X180380952Y-116052381D01*
X180285714Y-116195238D01*
X180190476Y-116290476D01*
X180095238Y-116338095D01*
X183200000Y-129471429D02*
X183000000Y-129185714D01*
X182857143Y-129471429D02*
X182857143Y-128871429D01*
X183085715Y-128871429D01*
X183142857Y-128900000D01*
X183171429Y-128928571D01*
X183200000Y-128985714D01*
X183200000Y-129071429D01*
X183171429Y-129128571D01*
X183142857Y-129157143D01*
X183085715Y-129185714D01*
X182857143Y-129185714D01*
X183771429Y-129471429D02*
X183428572Y-129471429D01*
X183600000Y-129471429D02*
X183600000Y-128871429D01*
X183542857Y-128957143D01*
X183485715Y-129014286D01*
X183428572Y-129042857D01*
X181942857Y-127771429D02*
X181828571Y-127771429D01*
X181771428Y-127800000D01*
X181742857Y-127828571D01*
X181685714Y-127914286D01*
X181657143Y-128028571D01*
X181657143Y-128257143D01*
X181685714Y-128314286D01*
X181714286Y-128342857D01*
X181771428Y-128371429D01*
X181885714Y-128371429D01*
X181942857Y-128342857D01*
X181971428Y-128314286D01*
X182000000Y-128257143D01*
X182000000Y-128114286D01*
X181971428Y-128057143D01*
X181942857Y-128028571D01*
X181885714Y-128000000D01*
X181771428Y-128000000D01*
X181714286Y-128028571D01*
X181685714Y-128057143D01*
X181657143Y-128114286D01*
X182371429Y-127771429D02*
X182428572Y-127771429D01*
X182485715Y-127800000D01*
X182514286Y-127828571D01*
X182542857Y-127885714D01*
X182571429Y-128000000D01*
X182571429Y-128142857D01*
X182542857Y-128257143D01*
X182514286Y-128314286D01*
X182485715Y-128342857D01*
X182428572Y-128371429D01*
X182371429Y-128371429D01*
X182314286Y-128342857D01*
X182285715Y-128314286D01*
X182257143Y-128257143D01*
X182228572Y-128142857D01*
X182228572Y-128000000D01*
X182257143Y-127885714D01*
X182285715Y-127828571D01*
X182314286Y-127800000D01*
X182371429Y-127771429D01*
X182942858Y-127771429D02*
X183000001Y-127771429D01*
X183057144Y-127800000D01*
X183085715Y-127828571D01*
X183114286Y-127885714D01*
X183142858Y-128000000D01*
X183142858Y-128142857D01*
X183114286Y-128257143D01*
X183085715Y-128314286D01*
X183057144Y-128342857D01*
X183000001Y-128371429D01*
X182942858Y-128371429D01*
X182885715Y-128342857D01*
X182857144Y-128314286D01*
X182828572Y-128257143D01*
X182800001Y-128142857D01*
X182800001Y-128000000D01*
X182828572Y-127885714D01*
X182857144Y-127828571D01*
X182885715Y-127800000D01*
X182942858Y-127771429D01*
D21*
X176172357Y-136281214D02*
X175791357Y-136281214D01*
X175791357Y-136190499D01*
X175809500Y-136136071D01*
X175845786Y-136099785D01*
X175882071Y-136081642D01*
X175954643Y-136063499D01*
X176009071Y-136063499D01*
X176081643Y-136081642D01*
X176117929Y-136099785D01*
X176154214Y-136136071D01*
X176172357Y-136190499D01*
X176172357Y-136281214D01*
X175918357Y-135736928D02*
X176172357Y-135736928D01*
X175773214Y-135827642D02*
X176045357Y-135918357D01*
X176045357Y-135682499D01*
X182972357Y-138281214D02*
X182591357Y-138281214D01*
X182591357Y-138190499D01*
X182609500Y-138136071D01*
X182645786Y-138099785D01*
X182682071Y-138081642D01*
X182754643Y-138063499D01*
X182809071Y-138063499D01*
X182881643Y-138081642D01*
X182917929Y-138099785D01*
X182954214Y-138136071D01*
X182972357Y-138190499D01*
X182972357Y-138281214D01*
X182591357Y-137936499D02*
X182591357Y-137700642D01*
X182736500Y-137827642D01*
X182736500Y-137773214D01*
X182754643Y-137736928D01*
X182772786Y-137718785D01*
X182809071Y-137700642D01*
X182899786Y-137700642D01*
X182936071Y-137718785D01*
X182954214Y-137736928D01*
X182972357Y-137773214D01*
X182972357Y-137882071D01*
X182954214Y-137918357D01*
X182936071Y-137936499D01*
X182872357Y-131281214D02*
X182491357Y-131281214D01*
X182491357Y-131190499D01*
X182509500Y-131136071D01*
X182545786Y-131099785D01*
X182582071Y-131081642D01*
X182654643Y-131063499D01*
X182709071Y-131063499D01*
X182781643Y-131081642D01*
X182817929Y-131099785D01*
X182854214Y-131136071D01*
X182872357Y-131190499D01*
X182872357Y-131281214D01*
X182527643Y-130918357D02*
X182509500Y-130900214D01*
X182491357Y-130863928D01*
X182491357Y-130773214D01*
X182509500Y-130736928D01*
X182527643Y-130718785D01*
X182563929Y-130700642D01*
X182600214Y-130700642D01*
X182654643Y-130718785D01*
X182872357Y-130936499D01*
X182872357Y-130700642D01*
X179572357Y-129281214D02*
X179191357Y-129281214D01*
X179191357Y-129190499D01*
X179209500Y-129136071D01*
X179245786Y-129099785D01*
X179282071Y-129081642D01*
X179354643Y-129063499D01*
X179409071Y-129063499D01*
X179481643Y-129081642D01*
X179517929Y-129099785D01*
X179554214Y-129136071D01*
X179572357Y-129190499D01*
X179572357Y-129281214D01*
X179572357Y-128700642D02*
X179572357Y-128918357D01*
X179572357Y-128809499D02*
X179191357Y-128809499D01*
X179245786Y-128845785D01*
X179282071Y-128882071D01*
X179300214Y-128918357D01*
M02*
