G04 #@! TF.FileFunction,Copper,L1,Top,Signal*
%FSLAX46Y46*%
G04 Gerber Fmt 4.6, Leading zero omitted, Abs format (unit mm)*
G04 Created by KiCad (PCBNEW 4.0.7) date 11/21/18 11:04:14*
%MOMM*%
%LPD*%
G01*
G04 APERTURE LIST*
%ADD10C,0.150000*%
%ADD11C,0.600000*%
%ADD12C,1.700000*%
%ADD13R,1.000760X0.899160*%
%ADD14R,0.899160X1.000760*%
%ADD15R,2.499360X2.499360*%
%ADD16O,0.800100X0.248920*%
%ADD17O,0.248920X0.800100*%
%ADD18R,1.397000X0.889000*%
%ADD19C,0.700000*%
%ADD20C,0.300000*%
%ADD21C,0.250000*%
%ADD22C,0.254000*%
G04 APERTURE END LIST*
D10*
D11*
X138900000Y-94600000D03*
X138900000Y-95600000D03*
X138900000Y-96600000D03*
X138900000Y-97600000D03*
X137800000Y-97600000D03*
X136800000Y-97600000D03*
X137800000Y-96600000D03*
X136800000Y-96600000D03*
X137800000Y-95600000D03*
X136800000Y-95600000D03*
X137800000Y-94600000D03*
X136800000Y-94600000D03*
X136500000Y-104000000D03*
X137500000Y-104000000D03*
X136500000Y-105000000D03*
X137500000Y-105000000D03*
X136500000Y-106000000D03*
X137500000Y-106000000D03*
X136500000Y-107000000D03*
X137500000Y-107000000D03*
X138600000Y-107000000D03*
X138600000Y-106000000D03*
X138600000Y-105000000D03*
X138600000Y-104000000D03*
D12*
X148060000Y-103675000D03*
X148060000Y-101135000D03*
X148060000Y-98595000D03*
X150600000Y-99865000D03*
X150600000Y-97325000D03*
X150600000Y-102405000D03*
D11*
X162800000Y-93300000D03*
X163800000Y-93300000D03*
X162800000Y-94500000D03*
X163800000Y-94500000D03*
X162800000Y-95500000D03*
X163800000Y-95500000D03*
X162800000Y-96500000D03*
X163800000Y-96500000D03*
X162800000Y-97500000D03*
X162800000Y-98500000D03*
X162800000Y-99500000D03*
X162800000Y-100500000D03*
X162800000Y-101500000D03*
X162800000Y-102500000D03*
X162800000Y-103500000D03*
X163800000Y-103500000D03*
X162800000Y-104500000D03*
X163800000Y-104500000D03*
X162800000Y-105500000D03*
X163800000Y-105500000D03*
X162800000Y-106500000D03*
X163800000Y-106500000D03*
X161700000Y-106500000D03*
X160700000Y-106500000D03*
X161700000Y-105500000D03*
X160700000Y-105500000D03*
X161700000Y-104500000D03*
X160700000Y-104500000D03*
X161700000Y-103500000D03*
X160700000Y-103500000D03*
X161700000Y-102500000D03*
X160700000Y-102500000D03*
X161700000Y-101500000D03*
X160700000Y-101500000D03*
X161700000Y-100500000D03*
X160700000Y-100500000D03*
X161700000Y-99500000D03*
X160700000Y-99500000D03*
X161700000Y-98500000D03*
X160700000Y-98500000D03*
X161700000Y-97500000D03*
X160700000Y-97500000D03*
X161700000Y-96500000D03*
X160700000Y-96500000D03*
X161700000Y-95500000D03*
X160700000Y-95500000D03*
X161700000Y-94500000D03*
X160700000Y-94500000D03*
X161700000Y-93300000D03*
X160700000Y-93300000D03*
X164800000Y-93300000D03*
X165800000Y-93300000D03*
X164800000Y-94500000D03*
X165800000Y-94500000D03*
X164800000Y-95500000D03*
X165800000Y-95500000D03*
X164800000Y-96500000D03*
X165800000Y-96500000D03*
X164800000Y-103500000D03*
X165800000Y-103500000D03*
X164800000Y-104500000D03*
X165800000Y-104500000D03*
X164800000Y-105500000D03*
X165800000Y-105500000D03*
X164800000Y-106500000D03*
X165800000Y-106500000D03*
X167900000Y-106500000D03*
X166900000Y-106500000D03*
X167900000Y-105500000D03*
X166900000Y-105500000D03*
X167900000Y-104500000D03*
X166900000Y-104500000D03*
X167900000Y-103500000D03*
X166900000Y-103500000D03*
X167900000Y-96500000D03*
X166900000Y-96500000D03*
X167900000Y-95500000D03*
X166900000Y-95500000D03*
X167900000Y-94500000D03*
X166900000Y-94500000D03*
X167900000Y-93300000D03*
X166900000Y-93300000D03*
D13*
X140600000Y-105751840D03*
X140600000Y-104248160D03*
D14*
X145251840Y-95500000D03*
X143748160Y-95500000D03*
D13*
X142200000Y-105751840D03*
X142200000Y-104248160D03*
X143800000Y-105751840D03*
X143800000Y-104248160D03*
D15*
X143000000Y-100000000D03*
D16*
X141001020Y-98750320D03*
X141001020Y-99250700D03*
X141001020Y-99751080D03*
X141001020Y-100248920D03*
X141001020Y-100749300D03*
X141001020Y-101249680D03*
D17*
X141750320Y-101998980D03*
X142250700Y-101998980D03*
X142751080Y-101998980D03*
X143248920Y-101998980D03*
X143749300Y-101998980D03*
X144249680Y-101998980D03*
D16*
X144998980Y-101249680D03*
X144998980Y-100749300D03*
X144998980Y-100248920D03*
X144998980Y-99751080D03*
X144998980Y-99250700D03*
X144998980Y-98750320D03*
D17*
X144249680Y-98001020D03*
X143749300Y-98001020D03*
X143248920Y-98001020D03*
X142751080Y-98001020D03*
X142250700Y-98001020D03*
X141750320Y-98001020D03*
D11*
X143000000Y-100000000D03*
X143762000Y-99238000D03*
X142238000Y-99238000D03*
X143762000Y-100762000D03*
X142238000Y-100762000D03*
D18*
X145400000Y-104347500D03*
X145400000Y-106252500D03*
D19*
X142500000Y-96800000D03*
X141600000Y-97100000D03*
X146800000Y-100200000D03*
X143600000Y-103300000D03*
X140800000Y-103200000D03*
X149600000Y-100900000D03*
X146200000Y-103100000D03*
X144600000Y-103000000D03*
D20*
X144998980Y-98750320D02*
X144249680Y-98750320D01*
X144249680Y-98750320D02*
X143000000Y-100000000D01*
X141001020Y-98750320D02*
X141750320Y-98750320D01*
X141750320Y-98750320D02*
X143000000Y-100000000D01*
X143749300Y-101998980D02*
X143749300Y-100749300D01*
X143749300Y-100749300D02*
X143000000Y-100000000D01*
X142751080Y-101998980D02*
X142751080Y-100248920D01*
X142751080Y-100248920D02*
X143000000Y-100000000D01*
X142250700Y-97049300D02*
X142500000Y-96800000D01*
X142250700Y-98001020D02*
X142250700Y-97049300D01*
D21*
X148100000Y-101700000D02*
X147535000Y-101135000D01*
D20*
X141750320Y-97250320D02*
X141600000Y-97100000D01*
X141750320Y-98001020D02*
X141750320Y-97250320D01*
X146800000Y-100200000D02*
X146900000Y-100300000D01*
X140600000Y-104248160D02*
X140600000Y-103400000D01*
X143800000Y-103500000D02*
X143800000Y-104248160D01*
X143600000Y-103300000D02*
X143800000Y-103500000D01*
X140600000Y-103400000D02*
X140800000Y-103200000D01*
X144998980Y-101249680D02*
X145950320Y-101249680D01*
X148600000Y-99900000D02*
X150600000Y-97900000D01*
X146900000Y-100300000D02*
X147300000Y-99900000D01*
X147300000Y-99900000D02*
X148600000Y-99900000D01*
X145950320Y-101249680D02*
X146900000Y-100300000D01*
X140600000Y-103700000D02*
X140600000Y-104248160D01*
X141100000Y-103200000D02*
X140600000Y-103700000D01*
X141700000Y-103200000D02*
X141100000Y-103200000D01*
X142250700Y-102649300D02*
X141700000Y-103200000D01*
X142250700Y-101998980D02*
X142250700Y-102649300D01*
X143899340Y-104347500D02*
X143800000Y-104248160D01*
X145400000Y-104347500D02*
X143899340Y-104347500D01*
X145400000Y-102500000D02*
X145400000Y-104347500D01*
X144998980Y-102098980D02*
X145400000Y-102500000D01*
X144998980Y-101249680D02*
X144998980Y-102098980D01*
X143749300Y-95501140D02*
X143748160Y-95500000D01*
X143749300Y-98001020D02*
X143749300Y-95501140D01*
X142200000Y-103700000D02*
X142200000Y-104248160D01*
X143248920Y-102651080D02*
X142200000Y-103700000D01*
X143248920Y-101998980D02*
X143248920Y-102651080D01*
X149400000Y-101065000D02*
X149435000Y-101065000D01*
X149435000Y-101065000D02*
X149600000Y-100900000D01*
X149400000Y-101065000D02*
X150600000Y-99865000D01*
X149400000Y-101600000D02*
X149400000Y-101065000D01*
X148600000Y-102400000D02*
X149400000Y-101600000D01*
X146900000Y-102400000D02*
X148600000Y-102400000D01*
X146600000Y-102700000D02*
X146900000Y-102400000D01*
X146200000Y-103100000D02*
X146600000Y-102700000D01*
X144249680Y-102649680D02*
X144600000Y-103000000D01*
X144249680Y-101998980D02*
X144249680Y-102649680D01*
D22*
G36*
X168673000Y-108873000D02*
X135877000Y-108873000D01*
X135877000Y-106037590D01*
X139464620Y-106037590D01*
X139464620Y-106327729D01*
X139561293Y-106561118D01*
X139739921Y-106739747D01*
X139973310Y-106836420D01*
X140314250Y-106836420D01*
X140473000Y-106677670D01*
X140473000Y-105878840D01*
X140727000Y-105878840D01*
X140727000Y-106677670D01*
X140885750Y-106836420D01*
X141226690Y-106836420D01*
X141400000Y-106764633D01*
X141573310Y-106836420D01*
X141914250Y-106836420D01*
X142073000Y-106677670D01*
X142073000Y-105878840D01*
X142327000Y-105878840D01*
X142327000Y-106677670D01*
X142485750Y-106836420D01*
X142826690Y-106836420D01*
X143000000Y-106764633D01*
X143173310Y-106836420D01*
X143514250Y-106836420D01*
X143673000Y-106677670D01*
X143673000Y-105878840D01*
X142327000Y-105878840D01*
X142073000Y-105878840D01*
X140727000Y-105878840D01*
X140473000Y-105878840D01*
X139623370Y-105878840D01*
X139464620Y-106037590D01*
X135877000Y-106037590D01*
X135877000Y-103798580D01*
X139460337Y-103798580D01*
X139460337Y-104697740D01*
X139504057Y-104930092D01*
X139542021Y-104989089D01*
X139464620Y-105175951D01*
X139464620Y-105466090D01*
X139623370Y-105624840D01*
X140473000Y-105624840D01*
X140473000Y-105604840D01*
X140727000Y-105604840D01*
X140727000Y-105624840D01*
X142073000Y-105624840D01*
X142073000Y-105604840D01*
X142327000Y-105604840D01*
X142327000Y-105624840D01*
X143673000Y-105624840D01*
X143673000Y-105604840D01*
X143927000Y-105604840D01*
X143927000Y-105624840D01*
X143947000Y-105624840D01*
X143947000Y-105878840D01*
X143927000Y-105878840D01*
X143927000Y-106677670D01*
X144066500Y-106817170D01*
X144066500Y-106823309D01*
X144163173Y-107056698D01*
X144341801Y-107235327D01*
X144575190Y-107332000D01*
X145114250Y-107332000D01*
X145273000Y-107173250D01*
X145273000Y-106379500D01*
X145527000Y-106379500D01*
X145527000Y-107173250D01*
X145685750Y-107332000D01*
X146224810Y-107332000D01*
X146458199Y-107235327D01*
X146636827Y-107056698D01*
X146733500Y-106823309D01*
X146733500Y-106538250D01*
X146574750Y-106379500D01*
X145527000Y-106379500D01*
X145273000Y-106379500D01*
X145253000Y-106379500D01*
X145253000Y-106125500D01*
X145273000Y-106125500D01*
X145273000Y-106105500D01*
X145527000Y-106105500D01*
X145527000Y-106125500D01*
X146574750Y-106125500D01*
X146681196Y-106019054D01*
X154732616Y-106019054D01*
X155069423Y-106834189D01*
X155692530Y-107458386D01*
X156507077Y-107796615D01*
X157389054Y-107797384D01*
X158204189Y-107460577D01*
X158828386Y-106837470D01*
X159166615Y-106022923D01*
X159167384Y-105140946D01*
X158830577Y-104325811D01*
X158207470Y-103701614D01*
X157392923Y-103363385D01*
X156510946Y-103362616D01*
X155695811Y-103699423D01*
X155071614Y-104322530D01*
X154733385Y-105137077D01*
X154732616Y-106019054D01*
X146681196Y-106019054D01*
X146733500Y-105966750D01*
X146733500Y-105681691D01*
X146636827Y-105448302D01*
X146480070Y-105291544D01*
X146544253Y-105250243D01*
X146687417Y-105040717D01*
X146737783Y-104792000D01*
X146737783Y-104718958D01*
X147195647Y-104718958D01*
X147275920Y-104970259D01*
X147831279Y-105171718D01*
X148421458Y-105145315D01*
X148844080Y-104970259D01*
X148924353Y-104718958D01*
X148060000Y-103854605D01*
X147195647Y-104718958D01*
X146737783Y-104718958D01*
X146737783Y-104393998D01*
X146764741Y-104459080D01*
X147016042Y-104539353D01*
X147880395Y-103675000D01*
X147866253Y-103660858D01*
X148045858Y-103481253D01*
X148060000Y-103495395D01*
X148074143Y-103481253D01*
X148253748Y-103660858D01*
X148239605Y-103675000D01*
X149103958Y-104539353D01*
X149355259Y-104459080D01*
X149556718Y-103903721D01*
X149535491Y-103429250D01*
X149762254Y-103656409D01*
X150304918Y-103881743D01*
X150892505Y-103882256D01*
X151435560Y-103657870D01*
X151851409Y-103242746D01*
X152076743Y-102700082D01*
X152077256Y-102112495D01*
X151852870Y-101569440D01*
X151437746Y-101153591D01*
X151393537Y-101135234D01*
X151435560Y-101117870D01*
X151851409Y-100702746D01*
X151984751Y-100381622D01*
X164072666Y-100381622D01*
X164365416Y-101090132D01*
X164907017Y-101632678D01*
X165615014Y-101926665D01*
X166381622Y-101927334D01*
X167090132Y-101634584D01*
X167632678Y-101092983D01*
X167926665Y-100384986D01*
X167927334Y-99618378D01*
X167634584Y-98909868D01*
X167092983Y-98367322D01*
X166384986Y-98073335D01*
X165618378Y-98072666D01*
X164909868Y-98365416D01*
X164367322Y-98907017D01*
X164073335Y-99615014D01*
X164072666Y-100381622D01*
X151984751Y-100381622D01*
X152076743Y-100160082D01*
X152077256Y-99572495D01*
X151852870Y-99029440D01*
X151437746Y-98613591D01*
X151393537Y-98595234D01*
X151435560Y-98577870D01*
X151851409Y-98162746D01*
X152076743Y-97620082D01*
X152077256Y-97032495D01*
X151852870Y-96489440D01*
X151437746Y-96073591D01*
X150921085Y-95859054D01*
X154732616Y-95859054D01*
X155069423Y-96674189D01*
X155692530Y-97298386D01*
X156507077Y-97636615D01*
X157389054Y-97637384D01*
X158204189Y-97300577D01*
X158828386Y-96677470D01*
X159166615Y-95862923D01*
X159167384Y-94980946D01*
X158830577Y-94165811D01*
X158207470Y-93541614D01*
X157392923Y-93203385D01*
X156510946Y-93202616D01*
X155695811Y-93539423D01*
X155071614Y-94162530D01*
X154733385Y-94977077D01*
X154732616Y-95859054D01*
X150921085Y-95859054D01*
X150895082Y-95848257D01*
X150307495Y-95847744D01*
X149764440Y-96072130D01*
X149348591Y-96487254D01*
X149123257Y-97029918D01*
X149122786Y-97569024D01*
X148897746Y-97343591D01*
X148355082Y-97118257D01*
X147767495Y-97117744D01*
X147224440Y-97342130D01*
X146808591Y-97757254D01*
X146583257Y-98299918D01*
X146582744Y-98887505D01*
X146721339Y-99222930D01*
X146606515Y-99222830D01*
X146247297Y-99371256D01*
X146016440Y-99601710D01*
X145996385Y-99500890D01*
X146046151Y-99250700D01*
X145992121Y-98979072D01*
X146012422Y-98930190D01*
X145909063Y-98843570D01*
X145826053Y-98719338D01*
X145779287Y-98688090D01*
X145872048Y-98688090D01*
X146012422Y-98570450D01*
X145901392Y-98303103D01*
X145682535Y-98097271D01*
X145401570Y-97990860D01*
X145001140Y-97990860D01*
X145001140Y-97705309D01*
X144943939Y-97417738D01*
X144781042Y-97173947D01*
X144537251Y-97011050D01*
X144526300Y-97008872D01*
X144526300Y-96573392D01*
X144675951Y-96635380D01*
X144966090Y-96635380D01*
X145124840Y-96476630D01*
X145124840Y-95627000D01*
X145378840Y-95627000D01*
X145378840Y-96476630D01*
X145537590Y-96635380D01*
X145827729Y-96635380D01*
X146061118Y-96538707D01*
X146239747Y-96360079D01*
X146336420Y-96126690D01*
X146336420Y-95785750D01*
X146177670Y-95627000D01*
X145378840Y-95627000D01*
X145124840Y-95627000D01*
X145104840Y-95627000D01*
X145104840Y-95373000D01*
X145124840Y-95373000D01*
X145124840Y-94523370D01*
X145378840Y-94523370D01*
X145378840Y-95373000D01*
X146177670Y-95373000D01*
X146336420Y-95214250D01*
X146336420Y-94873310D01*
X146239747Y-94639921D01*
X146061118Y-94461293D01*
X145827729Y-94364620D01*
X145537590Y-94364620D01*
X145378840Y-94523370D01*
X145124840Y-94523370D01*
X144966090Y-94364620D01*
X144675951Y-94364620D01*
X144491083Y-94441195D01*
X144446457Y-94410703D01*
X144197740Y-94360337D01*
X143298580Y-94360337D01*
X143066228Y-94404057D01*
X142852827Y-94541377D01*
X142709663Y-94750903D01*
X142659297Y-94999620D01*
X142659297Y-95823139D01*
X142306515Y-95822830D01*
X141947297Y-95971256D01*
X141795118Y-96123170D01*
X141406515Y-96122830D01*
X141047297Y-96271256D01*
X140772222Y-96545851D01*
X140623170Y-96904810D01*
X140622830Y-97293485D01*
X140771256Y-97652703D01*
X140973320Y-97855120D01*
X140973320Y-97990860D01*
X140598430Y-97990860D01*
X140317465Y-98097271D01*
X140098608Y-98303103D01*
X139987578Y-98570450D01*
X140127952Y-98688090D01*
X140220713Y-98688090D01*
X140173947Y-98719338D01*
X140090937Y-98843570D01*
X139987578Y-98930190D01*
X140007879Y-98979072D01*
X139953849Y-99250700D01*
X140003615Y-99500890D01*
X139953849Y-99751080D01*
X140003362Y-100000000D01*
X139953849Y-100248920D01*
X140003615Y-100499110D01*
X139953849Y-100749300D01*
X140003615Y-100999490D01*
X139953849Y-101249680D01*
X140011050Y-101537251D01*
X140173947Y-101781042D01*
X140417738Y-101943939D01*
X140705309Y-102001140D01*
X140998860Y-102001140D01*
X140998860Y-102224694D01*
X140995190Y-102223170D01*
X140606515Y-102222830D01*
X140247297Y-102371256D01*
X139972222Y-102645851D01*
X139823170Y-103004810D01*
X139822972Y-103231521D01*
X139653867Y-103340337D01*
X139510703Y-103549863D01*
X139460337Y-103798580D01*
X135877000Y-103798580D01*
X135877000Y-100381622D01*
X136072666Y-100381622D01*
X136365416Y-101090132D01*
X136907017Y-101632678D01*
X137615014Y-101926665D01*
X138381622Y-101927334D01*
X139090132Y-101634584D01*
X139632678Y-101092983D01*
X139926665Y-100384986D01*
X139927334Y-99618378D01*
X139634584Y-98909868D01*
X139092983Y-98367322D01*
X138384986Y-98073335D01*
X137618378Y-98072666D01*
X136909868Y-98365416D01*
X136367322Y-98907017D01*
X136073335Y-99615014D01*
X136072666Y-100381622D01*
X135877000Y-100381622D01*
X135877000Y-92577000D01*
X168673000Y-92577000D01*
X168673000Y-108873000D01*
X168673000Y-108873000D01*
G37*
X168673000Y-108873000D02*
X135877000Y-108873000D01*
X135877000Y-106037590D01*
X139464620Y-106037590D01*
X139464620Y-106327729D01*
X139561293Y-106561118D01*
X139739921Y-106739747D01*
X139973310Y-106836420D01*
X140314250Y-106836420D01*
X140473000Y-106677670D01*
X140473000Y-105878840D01*
X140727000Y-105878840D01*
X140727000Y-106677670D01*
X140885750Y-106836420D01*
X141226690Y-106836420D01*
X141400000Y-106764633D01*
X141573310Y-106836420D01*
X141914250Y-106836420D01*
X142073000Y-106677670D01*
X142073000Y-105878840D01*
X142327000Y-105878840D01*
X142327000Y-106677670D01*
X142485750Y-106836420D01*
X142826690Y-106836420D01*
X143000000Y-106764633D01*
X143173310Y-106836420D01*
X143514250Y-106836420D01*
X143673000Y-106677670D01*
X143673000Y-105878840D01*
X142327000Y-105878840D01*
X142073000Y-105878840D01*
X140727000Y-105878840D01*
X140473000Y-105878840D01*
X139623370Y-105878840D01*
X139464620Y-106037590D01*
X135877000Y-106037590D01*
X135877000Y-103798580D01*
X139460337Y-103798580D01*
X139460337Y-104697740D01*
X139504057Y-104930092D01*
X139542021Y-104989089D01*
X139464620Y-105175951D01*
X139464620Y-105466090D01*
X139623370Y-105624840D01*
X140473000Y-105624840D01*
X140473000Y-105604840D01*
X140727000Y-105604840D01*
X140727000Y-105624840D01*
X142073000Y-105624840D01*
X142073000Y-105604840D01*
X142327000Y-105604840D01*
X142327000Y-105624840D01*
X143673000Y-105624840D01*
X143673000Y-105604840D01*
X143927000Y-105604840D01*
X143927000Y-105624840D01*
X143947000Y-105624840D01*
X143947000Y-105878840D01*
X143927000Y-105878840D01*
X143927000Y-106677670D01*
X144066500Y-106817170D01*
X144066500Y-106823309D01*
X144163173Y-107056698D01*
X144341801Y-107235327D01*
X144575190Y-107332000D01*
X145114250Y-107332000D01*
X145273000Y-107173250D01*
X145273000Y-106379500D01*
X145527000Y-106379500D01*
X145527000Y-107173250D01*
X145685750Y-107332000D01*
X146224810Y-107332000D01*
X146458199Y-107235327D01*
X146636827Y-107056698D01*
X146733500Y-106823309D01*
X146733500Y-106538250D01*
X146574750Y-106379500D01*
X145527000Y-106379500D01*
X145273000Y-106379500D01*
X145253000Y-106379500D01*
X145253000Y-106125500D01*
X145273000Y-106125500D01*
X145273000Y-106105500D01*
X145527000Y-106105500D01*
X145527000Y-106125500D01*
X146574750Y-106125500D01*
X146681196Y-106019054D01*
X154732616Y-106019054D01*
X155069423Y-106834189D01*
X155692530Y-107458386D01*
X156507077Y-107796615D01*
X157389054Y-107797384D01*
X158204189Y-107460577D01*
X158828386Y-106837470D01*
X159166615Y-106022923D01*
X159167384Y-105140946D01*
X158830577Y-104325811D01*
X158207470Y-103701614D01*
X157392923Y-103363385D01*
X156510946Y-103362616D01*
X155695811Y-103699423D01*
X155071614Y-104322530D01*
X154733385Y-105137077D01*
X154732616Y-106019054D01*
X146681196Y-106019054D01*
X146733500Y-105966750D01*
X146733500Y-105681691D01*
X146636827Y-105448302D01*
X146480070Y-105291544D01*
X146544253Y-105250243D01*
X146687417Y-105040717D01*
X146737783Y-104792000D01*
X146737783Y-104718958D01*
X147195647Y-104718958D01*
X147275920Y-104970259D01*
X147831279Y-105171718D01*
X148421458Y-105145315D01*
X148844080Y-104970259D01*
X148924353Y-104718958D01*
X148060000Y-103854605D01*
X147195647Y-104718958D01*
X146737783Y-104718958D01*
X146737783Y-104393998D01*
X146764741Y-104459080D01*
X147016042Y-104539353D01*
X147880395Y-103675000D01*
X147866253Y-103660858D01*
X148045858Y-103481253D01*
X148060000Y-103495395D01*
X148074143Y-103481253D01*
X148253748Y-103660858D01*
X148239605Y-103675000D01*
X149103958Y-104539353D01*
X149355259Y-104459080D01*
X149556718Y-103903721D01*
X149535491Y-103429250D01*
X149762254Y-103656409D01*
X150304918Y-103881743D01*
X150892505Y-103882256D01*
X151435560Y-103657870D01*
X151851409Y-103242746D01*
X152076743Y-102700082D01*
X152077256Y-102112495D01*
X151852870Y-101569440D01*
X151437746Y-101153591D01*
X151393537Y-101135234D01*
X151435560Y-101117870D01*
X151851409Y-100702746D01*
X151984751Y-100381622D01*
X164072666Y-100381622D01*
X164365416Y-101090132D01*
X164907017Y-101632678D01*
X165615014Y-101926665D01*
X166381622Y-101927334D01*
X167090132Y-101634584D01*
X167632678Y-101092983D01*
X167926665Y-100384986D01*
X167927334Y-99618378D01*
X167634584Y-98909868D01*
X167092983Y-98367322D01*
X166384986Y-98073335D01*
X165618378Y-98072666D01*
X164909868Y-98365416D01*
X164367322Y-98907017D01*
X164073335Y-99615014D01*
X164072666Y-100381622D01*
X151984751Y-100381622D01*
X152076743Y-100160082D01*
X152077256Y-99572495D01*
X151852870Y-99029440D01*
X151437746Y-98613591D01*
X151393537Y-98595234D01*
X151435560Y-98577870D01*
X151851409Y-98162746D01*
X152076743Y-97620082D01*
X152077256Y-97032495D01*
X151852870Y-96489440D01*
X151437746Y-96073591D01*
X150921085Y-95859054D01*
X154732616Y-95859054D01*
X155069423Y-96674189D01*
X155692530Y-97298386D01*
X156507077Y-97636615D01*
X157389054Y-97637384D01*
X158204189Y-97300577D01*
X158828386Y-96677470D01*
X159166615Y-95862923D01*
X159167384Y-94980946D01*
X158830577Y-94165811D01*
X158207470Y-93541614D01*
X157392923Y-93203385D01*
X156510946Y-93202616D01*
X155695811Y-93539423D01*
X155071614Y-94162530D01*
X154733385Y-94977077D01*
X154732616Y-95859054D01*
X150921085Y-95859054D01*
X150895082Y-95848257D01*
X150307495Y-95847744D01*
X149764440Y-96072130D01*
X149348591Y-96487254D01*
X149123257Y-97029918D01*
X149122786Y-97569024D01*
X148897746Y-97343591D01*
X148355082Y-97118257D01*
X147767495Y-97117744D01*
X147224440Y-97342130D01*
X146808591Y-97757254D01*
X146583257Y-98299918D01*
X146582744Y-98887505D01*
X146721339Y-99222930D01*
X146606515Y-99222830D01*
X146247297Y-99371256D01*
X146016440Y-99601710D01*
X145996385Y-99500890D01*
X146046151Y-99250700D01*
X145992121Y-98979072D01*
X146012422Y-98930190D01*
X145909063Y-98843570D01*
X145826053Y-98719338D01*
X145779287Y-98688090D01*
X145872048Y-98688090D01*
X146012422Y-98570450D01*
X145901392Y-98303103D01*
X145682535Y-98097271D01*
X145401570Y-97990860D01*
X145001140Y-97990860D01*
X145001140Y-97705309D01*
X144943939Y-97417738D01*
X144781042Y-97173947D01*
X144537251Y-97011050D01*
X144526300Y-97008872D01*
X144526300Y-96573392D01*
X144675951Y-96635380D01*
X144966090Y-96635380D01*
X145124840Y-96476630D01*
X145124840Y-95627000D01*
X145378840Y-95627000D01*
X145378840Y-96476630D01*
X145537590Y-96635380D01*
X145827729Y-96635380D01*
X146061118Y-96538707D01*
X146239747Y-96360079D01*
X146336420Y-96126690D01*
X146336420Y-95785750D01*
X146177670Y-95627000D01*
X145378840Y-95627000D01*
X145124840Y-95627000D01*
X145104840Y-95627000D01*
X145104840Y-95373000D01*
X145124840Y-95373000D01*
X145124840Y-94523370D01*
X145378840Y-94523370D01*
X145378840Y-95373000D01*
X146177670Y-95373000D01*
X146336420Y-95214250D01*
X146336420Y-94873310D01*
X146239747Y-94639921D01*
X146061118Y-94461293D01*
X145827729Y-94364620D01*
X145537590Y-94364620D01*
X145378840Y-94523370D01*
X145124840Y-94523370D01*
X144966090Y-94364620D01*
X144675951Y-94364620D01*
X144491083Y-94441195D01*
X144446457Y-94410703D01*
X144197740Y-94360337D01*
X143298580Y-94360337D01*
X143066228Y-94404057D01*
X142852827Y-94541377D01*
X142709663Y-94750903D01*
X142659297Y-94999620D01*
X142659297Y-95823139D01*
X142306515Y-95822830D01*
X141947297Y-95971256D01*
X141795118Y-96123170D01*
X141406515Y-96122830D01*
X141047297Y-96271256D01*
X140772222Y-96545851D01*
X140623170Y-96904810D01*
X140622830Y-97293485D01*
X140771256Y-97652703D01*
X140973320Y-97855120D01*
X140973320Y-97990860D01*
X140598430Y-97990860D01*
X140317465Y-98097271D01*
X140098608Y-98303103D01*
X139987578Y-98570450D01*
X140127952Y-98688090D01*
X140220713Y-98688090D01*
X140173947Y-98719338D01*
X140090937Y-98843570D01*
X139987578Y-98930190D01*
X140007879Y-98979072D01*
X139953849Y-99250700D01*
X140003615Y-99500890D01*
X139953849Y-99751080D01*
X140003362Y-100000000D01*
X139953849Y-100248920D01*
X140003615Y-100499110D01*
X139953849Y-100749300D01*
X140003615Y-100999490D01*
X139953849Y-101249680D01*
X140011050Y-101537251D01*
X140173947Y-101781042D01*
X140417738Y-101943939D01*
X140705309Y-102001140D01*
X140998860Y-102001140D01*
X140998860Y-102224694D01*
X140995190Y-102223170D01*
X140606515Y-102222830D01*
X140247297Y-102371256D01*
X139972222Y-102645851D01*
X139823170Y-103004810D01*
X139822972Y-103231521D01*
X139653867Y-103340337D01*
X139510703Y-103549863D01*
X139460337Y-103798580D01*
X135877000Y-103798580D01*
X135877000Y-100381622D01*
X136072666Y-100381622D01*
X136365416Y-101090132D01*
X136907017Y-101632678D01*
X137615014Y-101926665D01*
X138381622Y-101927334D01*
X139090132Y-101634584D01*
X139632678Y-101092983D01*
X139926665Y-100384986D01*
X139927334Y-99618378D01*
X139634584Y-98909868D01*
X139092983Y-98367322D01*
X138384986Y-98073335D01*
X137618378Y-98072666D01*
X136909868Y-98365416D01*
X136367322Y-98907017D01*
X136073335Y-99615014D01*
X136072666Y-100381622D01*
X135877000Y-100381622D01*
X135877000Y-92577000D01*
X168673000Y-92577000D01*
X168673000Y-108873000D01*
G36*
X144001894Y-98998904D02*
X143951809Y-99250700D01*
X144001575Y-99500890D01*
X143951809Y-99751080D01*
X144001322Y-100000000D01*
X143951809Y-100248920D01*
X144001575Y-100499110D01*
X143951809Y-100749300D01*
X144001575Y-100999490D01*
X144001229Y-101001229D01*
X143978052Y-101005839D01*
X143929170Y-100985538D01*
X143842550Y-101088897D01*
X143749300Y-101151205D01*
X143656050Y-101088897D01*
X143569430Y-100985538D01*
X143520548Y-101005839D01*
X143248920Y-100951809D01*
X142979009Y-101005497D01*
X142930950Y-100985538D01*
X142847562Y-101085040D01*
X142749810Y-101150357D01*
X142657830Y-101088897D01*
X142571210Y-100985538D01*
X142522328Y-101005839D01*
X142250700Y-100951809D01*
X142000510Y-101001575D01*
X141998771Y-101001229D01*
X141998425Y-100999490D01*
X142048191Y-100749300D01*
X141998425Y-100499110D01*
X142048191Y-100248920D01*
X141998678Y-100000000D01*
X142048191Y-99751080D01*
X141998425Y-99500890D01*
X142048191Y-99250700D01*
X141998106Y-98998904D01*
X142000510Y-98998425D01*
X142250700Y-99048191D01*
X142500890Y-98998425D01*
X142751080Y-99048191D01*
X143000000Y-98998678D01*
X143248920Y-99048191D01*
X143499110Y-98998425D01*
X143749300Y-99048191D01*
X143999490Y-98998425D01*
X144001894Y-98998904D01*
X144001894Y-98998904D01*
G37*
X144001894Y-98998904D02*
X143951809Y-99250700D01*
X144001575Y-99500890D01*
X143951809Y-99751080D01*
X144001322Y-100000000D01*
X143951809Y-100248920D01*
X144001575Y-100499110D01*
X143951809Y-100749300D01*
X144001575Y-100999490D01*
X144001229Y-101001229D01*
X143978052Y-101005839D01*
X143929170Y-100985538D01*
X143842550Y-101088897D01*
X143749300Y-101151205D01*
X143656050Y-101088897D01*
X143569430Y-100985538D01*
X143520548Y-101005839D01*
X143248920Y-100951809D01*
X142979009Y-101005497D01*
X142930950Y-100985538D01*
X142847562Y-101085040D01*
X142749810Y-101150357D01*
X142657830Y-101088897D01*
X142571210Y-100985538D01*
X142522328Y-101005839D01*
X142250700Y-100951809D01*
X142000510Y-101001575D01*
X141998771Y-101001229D01*
X141998425Y-100999490D01*
X142048191Y-100749300D01*
X141998425Y-100499110D01*
X142048191Y-100248920D01*
X141998678Y-100000000D01*
X142048191Y-99751080D01*
X141998425Y-99500890D01*
X142048191Y-99250700D01*
X141998106Y-98998904D01*
X142000510Y-98998425D01*
X142250700Y-99048191D01*
X142500890Y-98998425D01*
X142751080Y-99048191D01*
X143000000Y-98998678D01*
X143248920Y-99048191D01*
X143499110Y-98998425D01*
X143749300Y-99048191D01*
X143999490Y-98998425D01*
X144001894Y-98998904D01*
M02*
