M48
;DRILL file {Pcbnew (2013-08-24 BZR 4298)-stable} date Sat 15 Feb 2014 10:53:18 AM PST
;FORMAT={-:-/ absolute / metric / decimal}
FMAT,2
METRIC,TZ
T1C1.727
T2C3.175
%
G90
G05
M71
T1
X29.5Y-40.54
X29.5Y-84.54
X29.5Y-128.54
X29.5Y-172.54
X29.5Y-216.54
X34.001Y-40.54
X34.001Y-84.54
X34.001Y-128.54
X34.001Y-172.54
X34.001Y-216.54
X72.499Y-39.5
X72.499Y-83.5
X72.499Y-127.5
X72.499Y-171.5
X72.499Y-215.5
X77.Y-39.5
X77.Y-83.5
X77.Y-127.5
X77.Y-171.5
X77.Y-215.5
X89.5Y-40.54
X89.5Y-84.54
X89.5Y-128.54
X89.5Y-172.54
X89.5Y-216.54
X94.001Y-40.54
X94.001Y-84.54
X94.001Y-128.54
X94.001Y-172.54
X94.001Y-216.54
X132.499Y-39.5
X132.499Y-83.5
X132.499Y-127.5
X132.499Y-171.5
X132.499Y-215.5
X137.Y-39.5
X137.Y-83.5
X137.Y-127.5
X137.Y-171.5
X137.Y-215.5
X149.5Y-40.54
X149.5Y-84.54
X149.5Y-128.54
X149.5Y-172.54
X149.5Y-216.54
X154.001Y-40.54
X154.001Y-84.54
X154.001Y-128.54
X154.001Y-172.54
X154.001Y-216.54
X192.499Y-39.5
X192.499Y-83.5
X192.499Y-127.5
X192.499Y-171.5
X192.499Y-215.5
X197.Y-39.5
X197.Y-83.5
X197.Y-127.5
X197.Y-171.5
X197.Y-215.5
X209.5Y-40.54
X209.5Y-84.54
X209.5Y-128.54
X209.5Y-172.54
X209.5Y-216.54
X214.001Y-40.54
X214.001Y-84.54
X214.001Y-128.54
X214.001Y-172.54
X214.001Y-216.54
X252.499Y-39.5
X252.499Y-83.5
X252.499Y-127.5
X252.499Y-171.5
X252.499Y-215.5
X257.Y-39.5
X257.Y-83.5
X257.Y-127.5
X257.Y-171.5
X257.Y-215.5
X268.5Y-40.54
X268.5Y-84.54
X268.5Y-128.54
X268.5Y-172.54
X268.5Y-216.54
X273.001Y-40.54
X273.001Y-84.54
X273.001Y-128.54
X273.001Y-172.54
X273.001Y-216.54
X311.499Y-39.5
X311.499Y-83.5
X311.499Y-127.5
X311.499Y-171.5
X311.499Y-215.5
X316.Y-39.5
X316.Y-83.5
X316.Y-127.5
X316.Y-171.5
X316.Y-215.5
T2
X27.Y-116.
X28.Y-28.
X28.Y-60.
X28.Y-72.
X28.Y-104.
X28.Y-148.
X28.Y-160.
X28.Y-192.
X28.Y-204.
X28.Y-236.
X77.Y-116.
X78.Y-28.
X78.Y-60.
X78.Y-72.
X78.Y-104.
X78.Y-148.
X78.Y-160.
X78.Y-192.
X78.Y-204.
X78.Y-236.
X87.Y-116.
X88.Y-28.
X88.Y-60.
X88.Y-72.
X88.Y-104.
X88.Y-148.
X88.Y-160.
X88.Y-192.
X88.Y-204.
X88.Y-236.
X137.Y-116.
X138.Y-28.
X138.Y-60.
X138.Y-72.
X138.Y-104.
X138.Y-148.
X138.Y-160.
X138.Y-192.
X138.Y-204.
X138.Y-236.
X147.Y-116.
X148.Y-28.
X148.Y-60.
X148.Y-72.
X148.Y-104.
X148.Y-148.
X148.Y-160.
X148.Y-192.
X148.Y-204.
X148.Y-236.
X197.Y-116.
X198.Y-28.
X198.Y-60.
X198.Y-72.
X198.Y-104.
X198.Y-148.
X198.Y-160.
X198.Y-192.
X198.Y-204.
X198.Y-236.
X207.Y-116.
X208.Y-28.
X208.Y-60.
X208.Y-72.
X208.Y-104.
X208.Y-148.
X208.Y-160.
X208.Y-192.
X208.Y-204.
X208.Y-236.
X257.Y-116.
X258.Y-28.
X258.Y-60.
X258.Y-72.
X258.Y-104.
X258.Y-148.
X258.Y-160.
X258.Y-192.
X258.Y-204.
X258.Y-236.
X266.Y-116.
X267.Y-28.
X267.Y-60.
X267.Y-72.
X267.Y-104.
X267.Y-148.
X267.Y-160.
X267.Y-192.
X267.Y-204.
X267.Y-236.
X316.Y-116.
X317.Y-28.
X317.Y-60.
X317.Y-72.
X317.Y-104.
X317.Y-148.
X317.Y-160.
X317.Y-192.
X317.Y-204.
X317.Y-236.
T0
M30
