M48
;DRILL file {KiCad (2015-08-20 BZR 6109)-product} date Sat 26 Dec 2015 10:38:06 PM PST
;FORMAT={-:-/ absolute / metric / decimal}
FMAT,2
METRIC,TZ
T1C0.400
T2C0.500
T3C0.890
T4C1.000
%
G90
G05
M71
T1
X23.858Y-70.965
X23.952Y-29.091
X28.125Y-57.05
X29.35Y-92.55
X29.35Y-110.33
X29.45Y-84.95
X29.45Y-102.73
X29.98Y-87.71
X29.98Y-105.49
X30.32Y-94.29
X30.32Y-112.07
X31.275Y-58.6
X32.14Y-94.72
X32.14Y-112.5
X32.55Y-87.73
X32.55Y-105.51
X34.15Y-91.95
X34.15Y-109.73
X34.2Y-37.875
X34.95Y-87.85
X34.95Y-105.63
X35.575Y-33.275
X35.95Y-90.25
X35.95Y-108.03
X38.29Y-94.67
X38.29Y-112.45
X40.25Y-58.1
X45.45Y-41.3
X45.625Y-47.475
X47.125Y-45.825
X48.1Y-73.4
X48.275Y-42.4
X49.2Y-35.4
X49.525Y-46.1
X51.1Y-48.1
X51.1Y-65.2
X52.5Y-44.65
X53.3Y-58.1
X54.5Y-37.2
X54.77Y-42.47
X54.91Y-49.7
X56.55Y-38.59
X56.6Y-70.6
X57.1Y-52.9
X57.8Y-20.3
X58.1Y-25.565
X58.53Y-37.7
X60.25Y-29.5
X61.4Y-37.5
X61.7Y-27.7
X61.8Y-60.9
X63.Y-36.
X63.1Y-57.
X63.53Y-39.76
X63.575Y-22.525
X64.Y-37.7
X64.9Y-60.7
X65.Y-57.4
X65.35Y-49.55
X65.6Y-41.1
X65.822Y-46.188
X65.875Y-68.325
X66.7Y-50.
X66.9Y-31.3
X66.9Y-42.8
X67.2Y-38.1
X67.95Y-49.9
X68.Y-42.6
X68.05Y-45.15
X68.1Y-46.75
X68.6Y-38.1
X68.825Y-71.2
X69.1Y-47.8
X69.67Y-55.3
X69.76Y-43.25
X69.86Y-53.72
X70.125Y-44.5
X70.5Y-46.15
X70.8Y-35.4
X71.6Y-43.3
X71.6Y-44.3
X71.9Y-34.6
X72.35Y-33.35
X73.1Y-42.35
X73.5Y-38.1
X73.8Y-51.9
X75.45Y-41.25
X75.8Y-33.45
X76.1Y-40.4
X77.55Y-33.4
X79.7Y-52.85
X80.2Y-54.625
X80.3Y-38.8
X81.75Y-34.1
X82.6Y-55.4
X84.7Y-54.4
X85.8Y-20.9
X85.85Y-32.75
X86.7Y-38.7
X87.6Y-25.1
X87.6Y-53.9
X88.1Y-21.9
X88.5Y-27.1
X89.4Y-54.3
X89.9Y-36.6
X91.3Y-55.3
X91.5Y-39.7
X92.9Y-31.2
X93.297Y-44.2
X93.5Y-46.1
X94.1Y-51.7
X94.2Y-49.2
X94.8Y-26.2
X94.9Y-24.9
X95.725Y-21.225
X96.Y-37.6
X96.1Y-55.9
X96.6Y-31.1
X97.4Y-54.6
X103.46Y-84.15
X103.46Y-101.93
X104.46Y-94.65
X104.46Y-112.43
X104.66Y-85.75
X104.66Y-88.15
X104.66Y-103.53
X104.66Y-105.93
X104.76Y-92.85
X104.76Y-110.63
X105.46Y-86.85
X105.46Y-104.63
X106.26Y-91.35
X106.26Y-109.13
X107.86Y-87.65
X107.86Y-105.43
X107.96Y-92.45
X107.96Y-110.23
X110.06Y-94.85
X110.06Y-112.63
X110.46Y-87.85
X110.46Y-105.63
X110.96Y-90.95
X110.96Y-108.73
X111.26Y-89.65
X111.26Y-107.43
X112.36Y-89.05
X112.36Y-106.83
X113.06Y-93.95
X113.06Y-111.73
X113.16Y-84.85
X113.16Y-102.63
X113.508Y-91.802
X113.508Y-109.582
T2
X58.248Y-44.968
X58.248Y-46.492
X59.01Y-45.73
X59.772Y-44.968
X59.772Y-46.492
X77.86Y-43.49
X77.86Y-45.49
X77.86Y-47.49
X77.86Y-49.49
X78.36Y-44.49
X78.36Y-46.49
X78.36Y-48.49
X78.86Y-43.49
X78.86Y-45.49
X78.86Y-47.49
X78.86Y-49.49
X79.36Y-44.49
X79.36Y-46.49
X79.36Y-48.49
X79.86Y-43.49
X79.86Y-45.49
X79.86Y-47.49
X79.86Y-49.49
X80.36Y-44.49
X80.36Y-46.49
X80.36Y-48.49
X80.86Y-43.49
X80.86Y-45.49
X80.86Y-47.49
X80.86Y-49.49
X81.36Y-44.49
X81.36Y-46.49
X81.36Y-48.49
X81.86Y-43.49
X81.86Y-45.49
X81.86Y-47.49
X81.86Y-49.49
X82.36Y-44.49
X82.36Y-46.49
X82.36Y-48.49
X82.86Y-43.49
X82.86Y-45.49
X82.86Y-47.49
X82.86Y-49.49
X83.36Y-44.49
X83.36Y-46.49
X83.36Y-48.49
T3
X39.55Y-43.66
X39.55Y-46.2
X39.55Y-48.73
X39.55Y-51.27
X42.09Y-44.92
X42.09Y-47.46
X42.09Y-50.
X42.09Y-52.54
T4
X28.3Y-41.475
X28.3Y-44.015
X28.3Y-52.185
X28.3Y-54.725
X28.325Y-28.55
X30.825Y-28.55
X31.4Y-69.6
X33.9Y-69.6
X36.4Y-69.6
X38.9Y-69.6
X41.4Y-69.6
X43.9Y-69.6
X53.75Y-64.2
X56.29Y-64.2
X58.82Y-64.2
X61.36Y-64.2
X63.89Y-64.2
X66.43Y-64.2
T0
M30
