G04 #@! TF.FileFunction,Legend,Bot*
%FSLAX46Y46*%
G04 Gerber Fmt 4.6, Leading zero omitted, Abs format (unit mm)*
G04 Created by KiCad (PCBNEW (2015-08-20 BZR 6109)-product) date Sat 26 Dec 2015 10:38:34 PM PST*
%MOMM*%
G01*
G04 APERTURE LIST*
%ADD10C,0.150000*%
%ADD11C,0.300000*%
%ADD12C,0.250000*%
G04 APERTURE END LIST*
D10*
D11*
X79160712Y-74217857D02*
X78660712Y-74217857D01*
X78446426Y-75003571D02*
X79160712Y-75003571D01*
X79160712Y-73503571D01*
X78446426Y-73503571D01*
X78017855Y-74003571D02*
X77446426Y-74003571D01*
X77803569Y-73503571D02*
X77803569Y-74789286D01*
X77732141Y-74932143D01*
X77589283Y-75003571D01*
X77446426Y-75003571D01*
X76946426Y-75003571D02*
X76946426Y-73503571D01*
X76303569Y-75003571D02*
X76303569Y-74217857D01*
X76374998Y-74075000D01*
X76517855Y-74003571D01*
X76732140Y-74003571D01*
X76874998Y-74075000D01*
X76946426Y-74146429D01*
X75660712Y-74575000D02*
X74946426Y-74575000D01*
X75803569Y-75003571D02*
X75303569Y-73503571D01*
X74803569Y-75003571D01*
X73660712Y-74932143D02*
X73803569Y-75003571D01*
X74089283Y-75003571D01*
X74232141Y-74932143D01*
X74303569Y-74860714D01*
X74374998Y-74717857D01*
X74374998Y-74289286D01*
X74303569Y-74146429D01*
X74232141Y-74075000D01*
X74089283Y-74003571D01*
X73803569Y-74003571D01*
X73660712Y-74075000D01*
X72374998Y-74932143D02*
X72517855Y-75003571D01*
X72803569Y-75003571D01*
X72946427Y-74932143D01*
X73017855Y-74860714D01*
X73089284Y-74717857D01*
X73089284Y-74289286D01*
X73017855Y-74146429D01*
X72946427Y-74075000D01*
X72803569Y-74003571D01*
X72517855Y-74003571D01*
X72374998Y-74075000D01*
X71160713Y-74932143D02*
X71303570Y-75003571D01*
X71589284Y-75003571D01*
X71732141Y-74932143D01*
X71803570Y-74789286D01*
X71803570Y-74217857D01*
X71732141Y-74075000D01*
X71589284Y-74003571D01*
X71303570Y-74003571D01*
X71160713Y-74075000D01*
X71089284Y-74217857D01*
X71089284Y-74360714D01*
X71803570Y-74503571D01*
X70232141Y-75003571D02*
X70374999Y-74932143D01*
X70446427Y-74789286D01*
X70446427Y-73503571D01*
X69874999Y-73503571D02*
X69017856Y-73503571D01*
X69446427Y-75003571D02*
X69446427Y-73503571D01*
X68303570Y-75003571D02*
X68446428Y-74932143D01*
X68517856Y-74860714D01*
X68589285Y-74717857D01*
X68589285Y-74289286D01*
X68517856Y-74146429D01*
X68446428Y-74075000D01*
X68303570Y-74003571D01*
X68089285Y-74003571D01*
X67946428Y-74075000D01*
X67874999Y-74146429D01*
X67803570Y-74289286D01*
X67803570Y-74717857D01*
X67874999Y-74860714D01*
X67946428Y-74932143D01*
X68089285Y-75003571D01*
X68303570Y-75003571D01*
X66517856Y-74003571D02*
X66517856Y-75003571D01*
X67160713Y-74003571D02*
X67160713Y-74789286D01*
X67089285Y-74932143D01*
X66946427Y-75003571D01*
X66732142Y-75003571D01*
X66589285Y-74932143D01*
X66517856Y-74860714D01*
X65160713Y-74932143D02*
X65303570Y-75003571D01*
X65589284Y-75003571D01*
X65732142Y-74932143D01*
X65803570Y-74860714D01*
X65874999Y-74717857D01*
X65874999Y-74289286D01*
X65803570Y-74146429D01*
X65732142Y-74075000D01*
X65589284Y-74003571D01*
X65303570Y-74003571D01*
X65160713Y-74075000D01*
X64517856Y-75003571D02*
X64517856Y-73503571D01*
X63874999Y-75003571D02*
X63874999Y-74217857D01*
X63946428Y-74075000D01*
X64089285Y-74003571D01*
X64303570Y-74003571D01*
X64446428Y-74075000D01*
X64517856Y-74146429D01*
X62374999Y-73575000D02*
X62517856Y-73503571D01*
X62732142Y-73503571D01*
X62946427Y-73575000D01*
X63089285Y-73717857D01*
X63160713Y-73860714D01*
X63232142Y-74146429D01*
X63232142Y-74360714D01*
X63160713Y-74646429D01*
X63089285Y-74789286D01*
X62946427Y-74932143D01*
X62732142Y-75003571D01*
X62589285Y-75003571D01*
X62374999Y-74932143D01*
X62303570Y-74860714D01*
X62303570Y-74360714D01*
X62589285Y-74360714D01*
X61660713Y-75003571D02*
X61660713Y-73503571D01*
X61089285Y-73503571D01*
X60946427Y-73575000D01*
X60874999Y-73646429D01*
X60803570Y-73789286D01*
X60803570Y-74003571D01*
X60874999Y-74146429D01*
X60946427Y-74217857D01*
X61089285Y-74289286D01*
X61660713Y-74289286D01*
X60232142Y-74932143D02*
X60017856Y-75003571D01*
X59660713Y-75003571D01*
X59517856Y-74932143D01*
X59446427Y-74860714D01*
X59374999Y-74717857D01*
X59374999Y-74575000D01*
X59446427Y-74432143D01*
X59517856Y-74360714D01*
X59660713Y-74289286D01*
X59946427Y-74217857D01*
X60089285Y-74146429D01*
X60160713Y-74075000D01*
X60232142Y-73932143D01*
X60232142Y-73789286D01*
X60160713Y-73646429D01*
X60089285Y-73575000D01*
X59946427Y-73503571D01*
X59589285Y-73503571D01*
X59374999Y-73575000D01*
X59089285Y-75146429D02*
X57946428Y-75146429D01*
X57589285Y-75003571D02*
X57589285Y-74003571D01*
X57589285Y-74289286D02*
X57517857Y-74146429D01*
X57446428Y-74075000D01*
X57303571Y-74003571D01*
X57160714Y-74003571D01*
X56089286Y-74932143D02*
X56232143Y-75003571D01*
X56517857Y-75003571D01*
X56660714Y-74932143D01*
X56732143Y-74789286D01*
X56732143Y-74217857D01*
X56660714Y-74075000D01*
X56517857Y-74003571D01*
X56232143Y-74003571D01*
X56089286Y-74075000D01*
X56017857Y-74217857D01*
X56017857Y-74360714D01*
X56732143Y-74503571D01*
X55517857Y-74003571D02*
X55160714Y-75003571D01*
X54803572Y-74003571D01*
X53946429Y-73503571D02*
X53803572Y-73503571D01*
X53660715Y-73575000D01*
X53589286Y-73646429D01*
X53517857Y-73789286D01*
X53446429Y-74075000D01*
X53446429Y-74432143D01*
X53517857Y-74717857D01*
X53589286Y-74860714D01*
X53660715Y-74932143D01*
X53803572Y-75003571D01*
X53946429Y-75003571D01*
X54089286Y-74932143D01*
X54160715Y-74860714D01*
X54232143Y-74717857D01*
X54303572Y-74432143D01*
X54303572Y-74075000D01*
X54232143Y-73789286D01*
X54160715Y-73646429D01*
X54089286Y-73575000D01*
X53946429Y-73503571D01*
X52946429Y-73503571D02*
X52017858Y-73503571D01*
X52517858Y-74075000D01*
X52303572Y-74075000D01*
X52160715Y-74146429D01*
X52089286Y-74217857D01*
X52017858Y-74360714D01*
X52017858Y-74717857D01*
X52089286Y-74860714D01*
X52160715Y-74932143D01*
X52303572Y-75003571D01*
X52732144Y-75003571D01*
X52875001Y-74932143D01*
X52946429Y-74860714D01*
D10*
X54197620Y-85102381D02*
X54197620Y-84578571D01*
X54245239Y-84483333D01*
X54340477Y-84435714D01*
X54530954Y-84435714D01*
X54626192Y-84483333D01*
X54197620Y-85054762D02*
X54292858Y-85102381D01*
X54530954Y-85102381D01*
X54626192Y-85054762D01*
X54673811Y-84959524D01*
X54673811Y-84864286D01*
X54626192Y-84769048D01*
X54530954Y-84721429D01*
X54292858Y-84721429D01*
X54197620Y-84673810D01*
X53292858Y-85054762D02*
X53388096Y-85102381D01*
X53578573Y-85102381D01*
X53673811Y-85054762D01*
X53721430Y-85007143D01*
X53769049Y-84911905D01*
X53769049Y-84626190D01*
X53721430Y-84530952D01*
X53673811Y-84483333D01*
X53578573Y-84435714D01*
X53388096Y-84435714D01*
X53292858Y-84483333D01*
X52435715Y-85054762D02*
X52530953Y-85102381D01*
X52721430Y-85102381D01*
X52816668Y-85054762D01*
X52864287Y-85007143D01*
X52911906Y-84911905D01*
X52911906Y-84626190D01*
X52864287Y-84530952D01*
X52816668Y-84483333D01*
X52721430Y-84435714D01*
X52530953Y-84435714D01*
X52435715Y-84483333D01*
X51626191Y-85054762D02*
X51721429Y-85102381D01*
X51911906Y-85102381D01*
X52007144Y-85054762D01*
X52054763Y-84959524D01*
X52054763Y-84578571D01*
X52007144Y-84483333D01*
X51911906Y-84435714D01*
X51721429Y-84435714D01*
X51626191Y-84483333D01*
X51578572Y-84578571D01*
X51578572Y-84673810D01*
X52054763Y-84769048D01*
X51007144Y-85102381D02*
X51102382Y-85054762D01*
X51150001Y-84959524D01*
X51150001Y-84102381D01*
X50626191Y-85102381D02*
X50626191Y-84435714D01*
X50626191Y-84530952D02*
X50578572Y-84483333D01*
X50483334Y-84435714D01*
X50340476Y-84435714D01*
X50245238Y-84483333D01*
X50197619Y-84578571D01*
X50197619Y-85102381D01*
X50197619Y-84578571D02*
X50150000Y-84483333D01*
X50054762Y-84435714D01*
X49911905Y-84435714D01*
X49816667Y-84483333D01*
X49769048Y-84578571D01*
X49769048Y-85102381D01*
X48864286Y-85102381D02*
X48864286Y-84578571D01*
X48911905Y-84483333D01*
X49007143Y-84435714D01*
X49197620Y-84435714D01*
X49292858Y-84483333D01*
X48864286Y-85054762D02*
X48959524Y-85102381D01*
X49197620Y-85102381D01*
X49292858Y-85054762D01*
X49340477Y-84959524D01*
X49340477Y-84864286D01*
X49292858Y-84769048D01*
X49197620Y-84721429D01*
X48959524Y-84721429D01*
X48864286Y-84673810D01*
X47959524Y-84435714D02*
X47959524Y-85245238D01*
X48007143Y-85340476D01*
X48054762Y-85388095D01*
X48150001Y-85435714D01*
X48292858Y-85435714D01*
X48388096Y-85388095D01*
X47959524Y-85054762D02*
X48054762Y-85102381D01*
X48245239Y-85102381D01*
X48340477Y-85054762D01*
X48388096Y-85007143D01*
X48435715Y-84911905D01*
X48435715Y-84626190D01*
X48388096Y-84530952D01*
X48340477Y-84483333D01*
X48245239Y-84435714D01*
X48054762Y-84435714D01*
X47959524Y-84483333D01*
X47721429Y-85197619D02*
X46959524Y-85197619D01*
X46388095Y-84578571D02*
X46721429Y-84578571D01*
X46721429Y-85102381D02*
X46721429Y-84102381D01*
X46245238Y-84102381D01*
X45959524Y-84102381D02*
X45292857Y-85102381D01*
X45292857Y-84102381D02*
X45959524Y-85102381D01*
X44721429Y-84102381D02*
X44530952Y-84102381D01*
X44435714Y-84150000D01*
X44340476Y-84245238D01*
X44292857Y-84435714D01*
X44292857Y-84769048D01*
X44340476Y-84959524D01*
X44435714Y-85054762D01*
X44530952Y-85102381D01*
X44721429Y-85102381D01*
X44816667Y-85054762D01*
X44911905Y-84959524D01*
X44959524Y-84769048D01*
X44959524Y-84435714D01*
X44911905Y-84245238D01*
X44816667Y-84150000D01*
X44721429Y-84102381D01*
X43911905Y-85054762D02*
X43769048Y-85102381D01*
X43530952Y-85102381D01*
X43435714Y-85054762D01*
X43388095Y-85007143D01*
X43340476Y-84911905D01*
X43340476Y-84816667D01*
X43388095Y-84721429D01*
X43435714Y-84673810D01*
X43530952Y-84626190D01*
X43721429Y-84578571D01*
X43816667Y-84530952D01*
X43864286Y-84483333D01*
X43911905Y-84388095D01*
X43911905Y-84292857D01*
X43864286Y-84197619D01*
X43816667Y-84150000D01*
X43721429Y-84102381D01*
X43483333Y-84102381D01*
X43340476Y-84150000D01*
X42769048Y-84530952D02*
X42864286Y-84483333D01*
X42911905Y-84435714D01*
X42959524Y-84340476D01*
X42959524Y-84292857D01*
X42911905Y-84197619D01*
X42864286Y-84150000D01*
X42769048Y-84102381D01*
X42578571Y-84102381D01*
X42483333Y-84150000D01*
X42435714Y-84197619D01*
X42388095Y-84292857D01*
X42388095Y-84340476D01*
X42435714Y-84435714D01*
X42483333Y-84483333D01*
X42578571Y-84530952D01*
X42769048Y-84530952D01*
X42864286Y-84578571D01*
X42911905Y-84626190D01*
X42959524Y-84721429D01*
X42959524Y-84911905D01*
X42911905Y-85007143D01*
X42864286Y-85054762D01*
X42769048Y-85102381D01*
X42578571Y-85102381D01*
X42483333Y-85054762D01*
X42435714Y-85007143D01*
X42388095Y-84911905D01*
X42388095Y-84721429D01*
X42435714Y-84626190D01*
X42483333Y-84578571D01*
X42578571Y-84530952D01*
X42054762Y-84102381D02*
X41388095Y-84102381D01*
X41816667Y-85102381D01*
X40816667Y-84102381D02*
X40721428Y-84102381D01*
X40626190Y-84150000D01*
X40578571Y-84197619D01*
X40530952Y-84292857D01*
X40483333Y-84483333D01*
X40483333Y-84721429D01*
X40530952Y-84911905D01*
X40578571Y-85007143D01*
X40626190Y-85054762D01*
X40721428Y-85102381D01*
X40816667Y-85102381D01*
X40911905Y-85054762D01*
X40959524Y-85007143D01*
X41007143Y-84911905D01*
X41054762Y-84721429D01*
X41054762Y-84483333D01*
X41007143Y-84292857D01*
X40959524Y-84197619D01*
X40911905Y-84150000D01*
X40816667Y-84102381D01*
X39864286Y-84102381D02*
X39769047Y-84102381D01*
X39673809Y-84150000D01*
X39626190Y-84197619D01*
X39578571Y-84292857D01*
X39530952Y-84483333D01*
X39530952Y-84721429D01*
X39578571Y-84911905D01*
X39626190Y-85007143D01*
X39673809Y-85054762D01*
X39769047Y-85102381D01*
X39864286Y-85102381D01*
X39959524Y-85054762D01*
X40007143Y-85007143D01*
X40054762Y-84911905D01*
X40102381Y-84721429D01*
X40102381Y-84483333D01*
X40054762Y-84292857D01*
X40007143Y-84197619D01*
X39959524Y-84150000D01*
X39864286Y-84102381D01*
X38530952Y-85007143D02*
X38578571Y-85054762D01*
X38721428Y-85102381D01*
X38816666Y-85102381D01*
X38959524Y-85054762D01*
X39054762Y-84959524D01*
X39102381Y-84864286D01*
X39150000Y-84673810D01*
X39150000Y-84530952D01*
X39102381Y-84340476D01*
X39054762Y-84245238D01*
X38959524Y-84150000D01*
X38816666Y-84102381D01*
X38721428Y-84102381D01*
X38578571Y-84150000D01*
X38530952Y-84197619D01*
X37435714Y-85197619D02*
X37530952Y-85150000D01*
X37626190Y-85054762D01*
X37769047Y-84911905D01*
X37864286Y-84864286D01*
X37959524Y-84864286D01*
X37911905Y-85102381D02*
X38007143Y-85054762D01*
X38102381Y-84959524D01*
X38150000Y-84769048D01*
X38150000Y-84435714D01*
X38102381Y-84245238D01*
X38007143Y-84150000D01*
X37911905Y-84102381D01*
X37721428Y-84102381D01*
X37626190Y-84150000D01*
X37530952Y-84245238D01*
X37483333Y-84435714D01*
X37483333Y-84769048D01*
X37530952Y-84959524D01*
X37626190Y-85054762D01*
X37721428Y-85102381D01*
X37911905Y-85102381D01*
X36483333Y-85102381D02*
X36816667Y-84626190D01*
X37054762Y-85102381D02*
X37054762Y-84102381D01*
X36673809Y-84102381D01*
X36578571Y-84150000D01*
X36530952Y-84197619D01*
X36483333Y-84292857D01*
X36483333Y-84435714D01*
X36530952Y-84530952D01*
X36578571Y-84578571D01*
X36673809Y-84626190D01*
X37054762Y-84626190D01*
X35530952Y-85102381D02*
X36102381Y-85102381D01*
X35816667Y-85102381D02*
X35816667Y-84102381D01*
X35911905Y-84245238D01*
X36007143Y-84340476D01*
X36102381Y-84388095D01*
X35340476Y-85197619D02*
X34578571Y-85197619D01*
X34340476Y-85102381D02*
X34340476Y-84435714D01*
X34340476Y-84626190D02*
X34292857Y-84530952D01*
X34245238Y-84483333D01*
X34150000Y-84435714D01*
X34054761Y-84435714D01*
X33340475Y-85054762D02*
X33435713Y-85102381D01*
X33626190Y-85102381D01*
X33721428Y-85054762D01*
X33769047Y-84959524D01*
X33769047Y-84578571D01*
X33721428Y-84483333D01*
X33626190Y-84435714D01*
X33435713Y-84435714D01*
X33340475Y-84483333D01*
X33292856Y-84578571D01*
X33292856Y-84673810D01*
X33769047Y-84769048D01*
X32959523Y-84435714D02*
X32721428Y-85102381D01*
X32483332Y-84435714D01*
X31911904Y-84102381D02*
X31816665Y-84102381D01*
X31721427Y-84150000D01*
X31673808Y-84197619D01*
X31626189Y-84292857D01*
X31578570Y-84483333D01*
X31578570Y-84721429D01*
X31626189Y-84911905D01*
X31673808Y-85007143D01*
X31721427Y-85054762D01*
X31816665Y-85102381D01*
X31911904Y-85102381D01*
X32007142Y-85054762D01*
X32054761Y-85007143D01*
X32102380Y-84911905D01*
X32149999Y-84721429D01*
X32149999Y-84483333D01*
X32102380Y-84292857D01*
X32054761Y-84197619D01*
X32007142Y-84150000D01*
X31911904Y-84102381D01*
X31197618Y-84197619D02*
X31149999Y-84150000D01*
X31054761Y-84102381D01*
X30816665Y-84102381D01*
X30721427Y-84150000D01*
X30673808Y-84197619D01*
X30626189Y-84292857D01*
X30626189Y-84388095D01*
X30673808Y-84530952D01*
X31245237Y-85102381D01*
X30626189Y-85102381D01*
X54197620Y-102882381D02*
X54197620Y-102358571D01*
X54245239Y-102263333D01*
X54340477Y-102215714D01*
X54530954Y-102215714D01*
X54626192Y-102263333D01*
X54197620Y-102834762D02*
X54292858Y-102882381D01*
X54530954Y-102882381D01*
X54626192Y-102834762D01*
X54673811Y-102739524D01*
X54673811Y-102644286D01*
X54626192Y-102549048D01*
X54530954Y-102501429D01*
X54292858Y-102501429D01*
X54197620Y-102453810D01*
X53292858Y-102834762D02*
X53388096Y-102882381D01*
X53578573Y-102882381D01*
X53673811Y-102834762D01*
X53721430Y-102787143D01*
X53769049Y-102691905D01*
X53769049Y-102406190D01*
X53721430Y-102310952D01*
X53673811Y-102263333D01*
X53578573Y-102215714D01*
X53388096Y-102215714D01*
X53292858Y-102263333D01*
X52435715Y-102834762D02*
X52530953Y-102882381D01*
X52721430Y-102882381D01*
X52816668Y-102834762D01*
X52864287Y-102787143D01*
X52911906Y-102691905D01*
X52911906Y-102406190D01*
X52864287Y-102310952D01*
X52816668Y-102263333D01*
X52721430Y-102215714D01*
X52530953Y-102215714D01*
X52435715Y-102263333D01*
X51626191Y-102834762D02*
X51721429Y-102882381D01*
X51911906Y-102882381D01*
X52007144Y-102834762D01*
X52054763Y-102739524D01*
X52054763Y-102358571D01*
X52007144Y-102263333D01*
X51911906Y-102215714D01*
X51721429Y-102215714D01*
X51626191Y-102263333D01*
X51578572Y-102358571D01*
X51578572Y-102453810D01*
X52054763Y-102549048D01*
X51007144Y-102882381D02*
X51102382Y-102834762D01*
X51150001Y-102739524D01*
X51150001Y-101882381D01*
X50626191Y-102882381D02*
X50626191Y-102215714D01*
X50626191Y-102310952D02*
X50578572Y-102263333D01*
X50483334Y-102215714D01*
X50340476Y-102215714D01*
X50245238Y-102263333D01*
X50197619Y-102358571D01*
X50197619Y-102882381D01*
X50197619Y-102358571D02*
X50150000Y-102263333D01*
X50054762Y-102215714D01*
X49911905Y-102215714D01*
X49816667Y-102263333D01*
X49769048Y-102358571D01*
X49769048Y-102882381D01*
X48864286Y-102882381D02*
X48864286Y-102358571D01*
X48911905Y-102263333D01*
X49007143Y-102215714D01*
X49197620Y-102215714D01*
X49292858Y-102263333D01*
X48864286Y-102834762D02*
X48959524Y-102882381D01*
X49197620Y-102882381D01*
X49292858Y-102834762D01*
X49340477Y-102739524D01*
X49340477Y-102644286D01*
X49292858Y-102549048D01*
X49197620Y-102501429D01*
X48959524Y-102501429D01*
X48864286Y-102453810D01*
X47959524Y-102215714D02*
X47959524Y-103025238D01*
X48007143Y-103120476D01*
X48054762Y-103168095D01*
X48150001Y-103215714D01*
X48292858Y-103215714D01*
X48388096Y-103168095D01*
X47959524Y-102834762D02*
X48054762Y-102882381D01*
X48245239Y-102882381D01*
X48340477Y-102834762D01*
X48388096Y-102787143D01*
X48435715Y-102691905D01*
X48435715Y-102406190D01*
X48388096Y-102310952D01*
X48340477Y-102263333D01*
X48245239Y-102215714D01*
X48054762Y-102215714D01*
X47959524Y-102263333D01*
X47721429Y-102977619D02*
X46959524Y-102977619D01*
X46388095Y-102358571D02*
X46721429Y-102358571D01*
X46721429Y-102882381D02*
X46721429Y-101882381D01*
X46245238Y-101882381D01*
X45959524Y-101882381D02*
X45292857Y-102882381D01*
X45292857Y-101882381D02*
X45959524Y-102882381D01*
X44721429Y-101882381D02*
X44530952Y-101882381D01*
X44435714Y-101930000D01*
X44340476Y-102025238D01*
X44292857Y-102215714D01*
X44292857Y-102549048D01*
X44340476Y-102739524D01*
X44435714Y-102834762D01*
X44530952Y-102882381D01*
X44721429Y-102882381D01*
X44816667Y-102834762D01*
X44911905Y-102739524D01*
X44959524Y-102549048D01*
X44959524Y-102215714D01*
X44911905Y-102025238D01*
X44816667Y-101930000D01*
X44721429Y-101882381D01*
X43911905Y-102834762D02*
X43769048Y-102882381D01*
X43530952Y-102882381D01*
X43435714Y-102834762D01*
X43388095Y-102787143D01*
X43340476Y-102691905D01*
X43340476Y-102596667D01*
X43388095Y-102501429D01*
X43435714Y-102453810D01*
X43530952Y-102406190D01*
X43721429Y-102358571D01*
X43816667Y-102310952D01*
X43864286Y-102263333D01*
X43911905Y-102168095D01*
X43911905Y-102072857D01*
X43864286Y-101977619D01*
X43816667Y-101930000D01*
X43721429Y-101882381D01*
X43483333Y-101882381D01*
X43340476Y-101930000D01*
X42769048Y-102310952D02*
X42864286Y-102263333D01*
X42911905Y-102215714D01*
X42959524Y-102120476D01*
X42959524Y-102072857D01*
X42911905Y-101977619D01*
X42864286Y-101930000D01*
X42769048Y-101882381D01*
X42578571Y-101882381D01*
X42483333Y-101930000D01*
X42435714Y-101977619D01*
X42388095Y-102072857D01*
X42388095Y-102120476D01*
X42435714Y-102215714D01*
X42483333Y-102263333D01*
X42578571Y-102310952D01*
X42769048Y-102310952D01*
X42864286Y-102358571D01*
X42911905Y-102406190D01*
X42959524Y-102501429D01*
X42959524Y-102691905D01*
X42911905Y-102787143D01*
X42864286Y-102834762D01*
X42769048Y-102882381D01*
X42578571Y-102882381D01*
X42483333Y-102834762D01*
X42435714Y-102787143D01*
X42388095Y-102691905D01*
X42388095Y-102501429D01*
X42435714Y-102406190D01*
X42483333Y-102358571D01*
X42578571Y-102310952D01*
X42054762Y-101882381D02*
X41388095Y-101882381D01*
X41816667Y-102882381D01*
X40816667Y-101882381D02*
X40721428Y-101882381D01*
X40626190Y-101930000D01*
X40578571Y-101977619D01*
X40530952Y-102072857D01*
X40483333Y-102263333D01*
X40483333Y-102501429D01*
X40530952Y-102691905D01*
X40578571Y-102787143D01*
X40626190Y-102834762D01*
X40721428Y-102882381D01*
X40816667Y-102882381D01*
X40911905Y-102834762D01*
X40959524Y-102787143D01*
X41007143Y-102691905D01*
X41054762Y-102501429D01*
X41054762Y-102263333D01*
X41007143Y-102072857D01*
X40959524Y-101977619D01*
X40911905Y-101930000D01*
X40816667Y-101882381D01*
X39864286Y-101882381D02*
X39769047Y-101882381D01*
X39673809Y-101930000D01*
X39626190Y-101977619D01*
X39578571Y-102072857D01*
X39530952Y-102263333D01*
X39530952Y-102501429D01*
X39578571Y-102691905D01*
X39626190Y-102787143D01*
X39673809Y-102834762D01*
X39769047Y-102882381D01*
X39864286Y-102882381D01*
X39959524Y-102834762D01*
X40007143Y-102787143D01*
X40054762Y-102691905D01*
X40102381Y-102501429D01*
X40102381Y-102263333D01*
X40054762Y-102072857D01*
X40007143Y-101977619D01*
X39959524Y-101930000D01*
X39864286Y-101882381D01*
X38530952Y-102787143D02*
X38578571Y-102834762D01*
X38721428Y-102882381D01*
X38816666Y-102882381D01*
X38959524Y-102834762D01*
X39054762Y-102739524D01*
X39102381Y-102644286D01*
X39150000Y-102453810D01*
X39150000Y-102310952D01*
X39102381Y-102120476D01*
X39054762Y-102025238D01*
X38959524Y-101930000D01*
X38816666Y-101882381D01*
X38721428Y-101882381D01*
X38578571Y-101930000D01*
X38530952Y-101977619D01*
X37435714Y-102977619D02*
X37530952Y-102930000D01*
X37626190Y-102834762D01*
X37769047Y-102691905D01*
X37864286Y-102644286D01*
X37959524Y-102644286D01*
X37911905Y-102882381D02*
X38007143Y-102834762D01*
X38102381Y-102739524D01*
X38150000Y-102549048D01*
X38150000Y-102215714D01*
X38102381Y-102025238D01*
X38007143Y-101930000D01*
X37911905Y-101882381D01*
X37721428Y-101882381D01*
X37626190Y-101930000D01*
X37530952Y-102025238D01*
X37483333Y-102215714D01*
X37483333Y-102549048D01*
X37530952Y-102739524D01*
X37626190Y-102834762D01*
X37721428Y-102882381D01*
X37911905Y-102882381D01*
X36483333Y-102882381D02*
X36816667Y-102406190D01*
X37054762Y-102882381D02*
X37054762Y-101882381D01*
X36673809Y-101882381D01*
X36578571Y-101930000D01*
X36530952Y-101977619D01*
X36483333Y-102072857D01*
X36483333Y-102215714D01*
X36530952Y-102310952D01*
X36578571Y-102358571D01*
X36673809Y-102406190D01*
X37054762Y-102406190D01*
X35530952Y-102882381D02*
X36102381Y-102882381D01*
X35816667Y-102882381D02*
X35816667Y-101882381D01*
X35911905Y-102025238D01*
X36007143Y-102120476D01*
X36102381Y-102168095D01*
X35340476Y-102977619D02*
X34578571Y-102977619D01*
X34340476Y-102882381D02*
X34340476Y-102215714D01*
X34340476Y-102406190D02*
X34292857Y-102310952D01*
X34245238Y-102263333D01*
X34150000Y-102215714D01*
X34054761Y-102215714D01*
X33340475Y-102834762D02*
X33435713Y-102882381D01*
X33626190Y-102882381D01*
X33721428Y-102834762D01*
X33769047Y-102739524D01*
X33769047Y-102358571D01*
X33721428Y-102263333D01*
X33626190Y-102215714D01*
X33435713Y-102215714D01*
X33340475Y-102263333D01*
X33292856Y-102358571D01*
X33292856Y-102453810D01*
X33769047Y-102549048D01*
X32959523Y-102215714D02*
X32721428Y-102882381D01*
X32483332Y-102215714D01*
X31911904Y-101882381D02*
X31816665Y-101882381D01*
X31721427Y-101930000D01*
X31673808Y-101977619D01*
X31626189Y-102072857D01*
X31578570Y-102263333D01*
X31578570Y-102501429D01*
X31626189Y-102691905D01*
X31673808Y-102787143D01*
X31721427Y-102834762D01*
X31816665Y-102882381D01*
X31911904Y-102882381D01*
X32007142Y-102834762D01*
X32054761Y-102787143D01*
X32102380Y-102691905D01*
X32149999Y-102501429D01*
X32149999Y-102263333D01*
X32102380Y-102072857D01*
X32054761Y-101977619D01*
X32007142Y-101930000D01*
X31911904Y-101882381D01*
X31197618Y-101977619D02*
X31149999Y-101930000D01*
X31054761Y-101882381D01*
X30816665Y-101882381D01*
X30721427Y-101930000D01*
X30673808Y-101977619D01*
X30626189Y-102072857D01*
X30626189Y-102168095D01*
X30673808Y-102310952D01*
X31245237Y-102882381D01*
X30626189Y-102882381D01*
D12*
X110326668Y-84502381D02*
X110326668Y-83978571D01*
X110374287Y-83883333D01*
X110469525Y-83835714D01*
X110660002Y-83835714D01*
X110755240Y-83883333D01*
X110326668Y-84454762D02*
X110421906Y-84502381D01*
X110660002Y-84502381D01*
X110755240Y-84454762D01*
X110802859Y-84359524D01*
X110802859Y-84264286D01*
X110755240Y-84169048D01*
X110660002Y-84121429D01*
X110421906Y-84121429D01*
X110326668Y-84073810D01*
X109421906Y-84454762D02*
X109517144Y-84502381D01*
X109707621Y-84502381D01*
X109802859Y-84454762D01*
X109850478Y-84407143D01*
X109898097Y-84311905D01*
X109898097Y-84026190D01*
X109850478Y-83930952D01*
X109802859Y-83883333D01*
X109707621Y-83835714D01*
X109517144Y-83835714D01*
X109421906Y-83883333D01*
X108564763Y-84454762D02*
X108660001Y-84502381D01*
X108850478Y-84502381D01*
X108945716Y-84454762D01*
X108993335Y-84407143D01*
X109040954Y-84311905D01*
X109040954Y-84026190D01*
X108993335Y-83930952D01*
X108945716Y-83883333D01*
X108850478Y-83835714D01*
X108660001Y-83835714D01*
X108564763Y-83883333D01*
X107755239Y-84454762D02*
X107850477Y-84502381D01*
X108040954Y-84502381D01*
X108136192Y-84454762D01*
X108183811Y-84359524D01*
X108183811Y-83978571D01*
X108136192Y-83883333D01*
X108040954Y-83835714D01*
X107850477Y-83835714D01*
X107755239Y-83883333D01*
X107707620Y-83978571D01*
X107707620Y-84073810D01*
X108183811Y-84169048D01*
X107136192Y-84502381D02*
X107231430Y-84454762D01*
X107279049Y-84359524D01*
X107279049Y-83502381D01*
X106755239Y-84502381D02*
X106755239Y-83835714D01*
X106755239Y-83930952D02*
X106707620Y-83883333D01*
X106612382Y-83835714D01*
X106469524Y-83835714D01*
X106374286Y-83883333D01*
X106326667Y-83978571D01*
X106326667Y-84502381D01*
X106326667Y-83978571D02*
X106279048Y-83883333D01*
X106183810Y-83835714D01*
X106040953Y-83835714D01*
X105945715Y-83883333D01*
X105898096Y-83978571D01*
X105898096Y-84502381D01*
X104993334Y-84502381D02*
X104993334Y-83978571D01*
X105040953Y-83883333D01*
X105136191Y-83835714D01*
X105326668Y-83835714D01*
X105421906Y-83883333D01*
X104993334Y-84454762D02*
X105088572Y-84502381D01*
X105326668Y-84502381D01*
X105421906Y-84454762D01*
X105469525Y-84359524D01*
X105469525Y-84264286D01*
X105421906Y-84169048D01*
X105326668Y-84121429D01*
X105088572Y-84121429D01*
X104993334Y-84073810D01*
X104088572Y-83835714D02*
X104088572Y-84645238D01*
X104136191Y-84740476D01*
X104183810Y-84788095D01*
X104279049Y-84835714D01*
X104421906Y-84835714D01*
X104517144Y-84788095D01*
X104088572Y-84454762D02*
X104183810Y-84502381D01*
X104374287Y-84502381D01*
X104469525Y-84454762D01*
X104517144Y-84407143D01*
X104564763Y-84311905D01*
X104564763Y-84026190D01*
X104517144Y-83930952D01*
X104469525Y-83883333D01*
X104374287Y-83835714D01*
X104183810Y-83835714D01*
X104088572Y-83883333D01*
X103850477Y-84597619D02*
X103088572Y-84597619D01*
X102517143Y-83978571D02*
X102850477Y-83978571D01*
X102850477Y-84502381D02*
X102850477Y-83502381D01*
X102374286Y-83502381D01*
X102088572Y-83502381D02*
X101421905Y-84502381D01*
X101421905Y-83502381D02*
X102088572Y-84502381D01*
X100850477Y-83502381D02*
X100660000Y-83502381D01*
X100564762Y-83550000D01*
X100469524Y-83645238D01*
X100421905Y-83835714D01*
X100421905Y-84169048D01*
X100469524Y-84359524D01*
X100564762Y-84454762D01*
X100660000Y-84502381D01*
X100850477Y-84502381D01*
X100945715Y-84454762D01*
X101040953Y-84359524D01*
X101088572Y-84169048D01*
X101088572Y-83835714D01*
X101040953Y-83645238D01*
X100945715Y-83550000D01*
X100850477Y-83502381D01*
X100040953Y-84454762D02*
X99898096Y-84502381D01*
X99660000Y-84502381D01*
X99564762Y-84454762D01*
X99517143Y-84407143D01*
X99469524Y-84311905D01*
X99469524Y-84216667D01*
X99517143Y-84121429D01*
X99564762Y-84073810D01*
X99660000Y-84026190D01*
X99850477Y-83978571D01*
X99945715Y-83930952D01*
X99993334Y-83883333D01*
X100040953Y-83788095D01*
X100040953Y-83692857D01*
X99993334Y-83597619D01*
X99945715Y-83550000D01*
X99850477Y-83502381D01*
X99612381Y-83502381D01*
X99469524Y-83550000D01*
X98898096Y-83930952D02*
X98993334Y-83883333D01*
X99040953Y-83835714D01*
X99088572Y-83740476D01*
X99088572Y-83692857D01*
X99040953Y-83597619D01*
X98993334Y-83550000D01*
X98898096Y-83502381D01*
X98707619Y-83502381D01*
X98612381Y-83550000D01*
X98564762Y-83597619D01*
X98517143Y-83692857D01*
X98517143Y-83740476D01*
X98564762Y-83835714D01*
X98612381Y-83883333D01*
X98707619Y-83930952D01*
X98898096Y-83930952D01*
X98993334Y-83978571D01*
X99040953Y-84026190D01*
X99088572Y-84121429D01*
X99088572Y-84311905D01*
X99040953Y-84407143D01*
X98993334Y-84454762D01*
X98898096Y-84502381D01*
X98707619Y-84502381D01*
X98612381Y-84454762D01*
X98564762Y-84407143D01*
X98517143Y-84311905D01*
X98517143Y-84121429D01*
X98564762Y-84026190D01*
X98612381Y-83978571D01*
X98707619Y-83930952D01*
X98183810Y-83502381D02*
X97517143Y-83502381D01*
X97945715Y-84502381D01*
X96945715Y-83502381D02*
X96850476Y-83502381D01*
X96755238Y-83550000D01*
X96707619Y-83597619D01*
X96660000Y-83692857D01*
X96612381Y-83883333D01*
X96612381Y-84121429D01*
X96660000Y-84311905D01*
X96707619Y-84407143D01*
X96755238Y-84454762D01*
X96850476Y-84502381D01*
X96945715Y-84502381D01*
X97040953Y-84454762D01*
X97088572Y-84407143D01*
X97136191Y-84311905D01*
X97183810Y-84121429D01*
X97183810Y-83883333D01*
X97136191Y-83692857D01*
X97088572Y-83597619D01*
X97040953Y-83550000D01*
X96945715Y-83502381D01*
X95993334Y-83502381D02*
X95898095Y-83502381D01*
X95802857Y-83550000D01*
X95755238Y-83597619D01*
X95707619Y-83692857D01*
X95660000Y-83883333D01*
X95660000Y-84121429D01*
X95707619Y-84311905D01*
X95755238Y-84407143D01*
X95802857Y-84454762D01*
X95898095Y-84502381D01*
X95993334Y-84502381D01*
X96088572Y-84454762D01*
X96136191Y-84407143D01*
X96183810Y-84311905D01*
X96231429Y-84121429D01*
X96231429Y-83883333D01*
X96183810Y-83692857D01*
X96136191Y-83597619D01*
X96088572Y-83550000D01*
X95993334Y-83502381D01*
X94660000Y-84407143D02*
X94707619Y-84454762D01*
X94850476Y-84502381D01*
X94945714Y-84502381D01*
X95088572Y-84454762D01*
X95183810Y-84359524D01*
X95231429Y-84264286D01*
X95279048Y-84073810D01*
X95279048Y-83930952D01*
X95231429Y-83740476D01*
X95183810Y-83645238D01*
X95088572Y-83550000D01*
X94945714Y-83502381D01*
X94850476Y-83502381D01*
X94707619Y-83550000D01*
X94660000Y-83597619D01*
X93564762Y-84597619D02*
X93660000Y-84550000D01*
X93755238Y-84454762D01*
X93898095Y-84311905D01*
X93993334Y-84264286D01*
X94088572Y-84264286D01*
X94040953Y-84502381D02*
X94136191Y-84454762D01*
X94231429Y-84359524D01*
X94279048Y-84169048D01*
X94279048Y-83835714D01*
X94231429Y-83645238D01*
X94136191Y-83550000D01*
X94040953Y-83502381D01*
X93850476Y-83502381D01*
X93755238Y-83550000D01*
X93660000Y-83645238D01*
X93612381Y-83835714D01*
X93612381Y-84169048D01*
X93660000Y-84359524D01*
X93755238Y-84454762D01*
X93850476Y-84502381D01*
X94040953Y-84502381D01*
X92612381Y-84502381D02*
X92945715Y-84026190D01*
X93183810Y-84502381D02*
X93183810Y-83502381D01*
X92802857Y-83502381D01*
X92707619Y-83550000D01*
X92660000Y-83597619D01*
X92612381Y-83692857D01*
X92612381Y-83835714D01*
X92660000Y-83930952D01*
X92707619Y-83978571D01*
X92802857Y-84026190D01*
X93183810Y-84026190D01*
X91660000Y-84502381D02*
X92231429Y-84502381D01*
X91945715Y-84502381D02*
X91945715Y-83502381D01*
X92040953Y-83645238D01*
X92136191Y-83740476D01*
X92231429Y-83788095D01*
X91469524Y-84597619D02*
X90707619Y-84597619D01*
X90469524Y-84502381D02*
X90469524Y-83835714D01*
X90469524Y-84026190D02*
X90421905Y-83930952D01*
X90374286Y-83883333D01*
X90279048Y-83835714D01*
X90183809Y-83835714D01*
X89850476Y-84502381D02*
X89850476Y-83835714D01*
X89850476Y-83502381D02*
X89898095Y-83550000D01*
X89850476Y-83597619D01*
X89802857Y-83550000D01*
X89850476Y-83502381D01*
X89850476Y-83597619D01*
X88945714Y-83835714D02*
X88945714Y-84645238D01*
X88993333Y-84740476D01*
X89040952Y-84788095D01*
X89136191Y-84835714D01*
X89279048Y-84835714D01*
X89374286Y-84788095D01*
X88945714Y-84454762D02*
X89040952Y-84502381D01*
X89231429Y-84502381D01*
X89326667Y-84454762D01*
X89374286Y-84407143D01*
X89421905Y-84311905D01*
X89421905Y-84026190D01*
X89374286Y-83930952D01*
X89326667Y-83883333D01*
X89231429Y-83835714D01*
X89040952Y-83835714D01*
X88945714Y-83883333D01*
X88469524Y-84502381D02*
X88469524Y-83502381D01*
X88040952Y-84502381D02*
X88040952Y-83978571D01*
X88088571Y-83883333D01*
X88183809Y-83835714D01*
X88326667Y-83835714D01*
X88421905Y-83883333D01*
X88469524Y-83930952D01*
X87707619Y-83835714D02*
X87326667Y-83835714D01*
X87564762Y-83502381D02*
X87564762Y-84359524D01*
X87517143Y-84454762D01*
X87421905Y-84502381D01*
X87326667Y-84502381D01*
X87231428Y-84597619D02*
X86469523Y-84597619D01*
X86231428Y-84502381D02*
X86231428Y-83835714D01*
X86231428Y-84026190D02*
X86183809Y-83930952D01*
X86136190Y-83883333D01*
X86040952Y-83835714D01*
X85945713Y-83835714D01*
X85231427Y-84454762D02*
X85326665Y-84502381D01*
X85517142Y-84502381D01*
X85612380Y-84454762D01*
X85659999Y-84359524D01*
X85659999Y-83978571D01*
X85612380Y-83883333D01*
X85517142Y-83835714D01*
X85326665Y-83835714D01*
X85231427Y-83883333D01*
X85183808Y-83978571D01*
X85183808Y-84073810D01*
X85659999Y-84169048D01*
X84850475Y-83835714D02*
X84612380Y-84502381D01*
X84374284Y-83835714D01*
X83802856Y-83502381D02*
X83707617Y-83502381D01*
X83612379Y-83550000D01*
X83564760Y-83597619D01*
X83517141Y-83692857D01*
X83469522Y-83883333D01*
X83469522Y-84121429D01*
X83517141Y-84311905D01*
X83564760Y-84407143D01*
X83612379Y-84454762D01*
X83707617Y-84502381D01*
X83802856Y-84502381D01*
X83898094Y-84454762D01*
X83945713Y-84407143D01*
X83993332Y-84311905D01*
X84040951Y-84121429D01*
X84040951Y-83883333D01*
X83993332Y-83692857D01*
X83945713Y-83597619D01*
X83898094Y-83550000D01*
X83802856Y-83502381D01*
X83088570Y-83597619D02*
X83040951Y-83550000D01*
X82945713Y-83502381D01*
X82707617Y-83502381D01*
X82612379Y-83550000D01*
X82564760Y-83597619D01*
X82517141Y-83692857D01*
X82517141Y-83788095D01*
X82564760Y-83930952D01*
X83136189Y-84502381D01*
X82517141Y-84502381D01*
X110326668Y-102282381D02*
X110326668Y-101758571D01*
X110374287Y-101663333D01*
X110469525Y-101615714D01*
X110660002Y-101615714D01*
X110755240Y-101663333D01*
X110326668Y-102234762D02*
X110421906Y-102282381D01*
X110660002Y-102282381D01*
X110755240Y-102234762D01*
X110802859Y-102139524D01*
X110802859Y-102044286D01*
X110755240Y-101949048D01*
X110660002Y-101901429D01*
X110421906Y-101901429D01*
X110326668Y-101853810D01*
X109421906Y-102234762D02*
X109517144Y-102282381D01*
X109707621Y-102282381D01*
X109802859Y-102234762D01*
X109850478Y-102187143D01*
X109898097Y-102091905D01*
X109898097Y-101806190D01*
X109850478Y-101710952D01*
X109802859Y-101663333D01*
X109707621Y-101615714D01*
X109517144Y-101615714D01*
X109421906Y-101663333D01*
X108564763Y-102234762D02*
X108660001Y-102282381D01*
X108850478Y-102282381D01*
X108945716Y-102234762D01*
X108993335Y-102187143D01*
X109040954Y-102091905D01*
X109040954Y-101806190D01*
X108993335Y-101710952D01*
X108945716Y-101663333D01*
X108850478Y-101615714D01*
X108660001Y-101615714D01*
X108564763Y-101663333D01*
X107755239Y-102234762D02*
X107850477Y-102282381D01*
X108040954Y-102282381D01*
X108136192Y-102234762D01*
X108183811Y-102139524D01*
X108183811Y-101758571D01*
X108136192Y-101663333D01*
X108040954Y-101615714D01*
X107850477Y-101615714D01*
X107755239Y-101663333D01*
X107707620Y-101758571D01*
X107707620Y-101853810D01*
X108183811Y-101949048D01*
X107136192Y-102282381D02*
X107231430Y-102234762D01*
X107279049Y-102139524D01*
X107279049Y-101282381D01*
X106755239Y-102282381D02*
X106755239Y-101615714D01*
X106755239Y-101710952D02*
X106707620Y-101663333D01*
X106612382Y-101615714D01*
X106469524Y-101615714D01*
X106374286Y-101663333D01*
X106326667Y-101758571D01*
X106326667Y-102282381D01*
X106326667Y-101758571D02*
X106279048Y-101663333D01*
X106183810Y-101615714D01*
X106040953Y-101615714D01*
X105945715Y-101663333D01*
X105898096Y-101758571D01*
X105898096Y-102282381D01*
X104993334Y-102282381D02*
X104993334Y-101758571D01*
X105040953Y-101663333D01*
X105136191Y-101615714D01*
X105326668Y-101615714D01*
X105421906Y-101663333D01*
X104993334Y-102234762D02*
X105088572Y-102282381D01*
X105326668Y-102282381D01*
X105421906Y-102234762D01*
X105469525Y-102139524D01*
X105469525Y-102044286D01*
X105421906Y-101949048D01*
X105326668Y-101901429D01*
X105088572Y-101901429D01*
X104993334Y-101853810D01*
X104088572Y-101615714D02*
X104088572Y-102425238D01*
X104136191Y-102520476D01*
X104183810Y-102568095D01*
X104279049Y-102615714D01*
X104421906Y-102615714D01*
X104517144Y-102568095D01*
X104088572Y-102234762D02*
X104183810Y-102282381D01*
X104374287Y-102282381D01*
X104469525Y-102234762D01*
X104517144Y-102187143D01*
X104564763Y-102091905D01*
X104564763Y-101806190D01*
X104517144Y-101710952D01*
X104469525Y-101663333D01*
X104374287Y-101615714D01*
X104183810Y-101615714D01*
X104088572Y-101663333D01*
X103850477Y-102377619D02*
X103088572Y-102377619D01*
X102517143Y-101758571D02*
X102850477Y-101758571D01*
X102850477Y-102282381D02*
X102850477Y-101282381D01*
X102374286Y-101282381D01*
X102088572Y-101282381D02*
X101421905Y-102282381D01*
X101421905Y-101282381D02*
X102088572Y-102282381D01*
X100850477Y-101282381D02*
X100660000Y-101282381D01*
X100564762Y-101330000D01*
X100469524Y-101425238D01*
X100421905Y-101615714D01*
X100421905Y-101949048D01*
X100469524Y-102139524D01*
X100564762Y-102234762D01*
X100660000Y-102282381D01*
X100850477Y-102282381D01*
X100945715Y-102234762D01*
X101040953Y-102139524D01*
X101088572Y-101949048D01*
X101088572Y-101615714D01*
X101040953Y-101425238D01*
X100945715Y-101330000D01*
X100850477Y-101282381D01*
X100040953Y-102234762D02*
X99898096Y-102282381D01*
X99660000Y-102282381D01*
X99564762Y-102234762D01*
X99517143Y-102187143D01*
X99469524Y-102091905D01*
X99469524Y-101996667D01*
X99517143Y-101901429D01*
X99564762Y-101853810D01*
X99660000Y-101806190D01*
X99850477Y-101758571D01*
X99945715Y-101710952D01*
X99993334Y-101663333D01*
X100040953Y-101568095D01*
X100040953Y-101472857D01*
X99993334Y-101377619D01*
X99945715Y-101330000D01*
X99850477Y-101282381D01*
X99612381Y-101282381D01*
X99469524Y-101330000D01*
X98898096Y-101710952D02*
X98993334Y-101663333D01*
X99040953Y-101615714D01*
X99088572Y-101520476D01*
X99088572Y-101472857D01*
X99040953Y-101377619D01*
X98993334Y-101330000D01*
X98898096Y-101282381D01*
X98707619Y-101282381D01*
X98612381Y-101330000D01*
X98564762Y-101377619D01*
X98517143Y-101472857D01*
X98517143Y-101520476D01*
X98564762Y-101615714D01*
X98612381Y-101663333D01*
X98707619Y-101710952D01*
X98898096Y-101710952D01*
X98993334Y-101758571D01*
X99040953Y-101806190D01*
X99088572Y-101901429D01*
X99088572Y-102091905D01*
X99040953Y-102187143D01*
X98993334Y-102234762D01*
X98898096Y-102282381D01*
X98707619Y-102282381D01*
X98612381Y-102234762D01*
X98564762Y-102187143D01*
X98517143Y-102091905D01*
X98517143Y-101901429D01*
X98564762Y-101806190D01*
X98612381Y-101758571D01*
X98707619Y-101710952D01*
X98183810Y-101282381D02*
X97517143Y-101282381D01*
X97945715Y-102282381D01*
X96945715Y-101282381D02*
X96850476Y-101282381D01*
X96755238Y-101330000D01*
X96707619Y-101377619D01*
X96660000Y-101472857D01*
X96612381Y-101663333D01*
X96612381Y-101901429D01*
X96660000Y-102091905D01*
X96707619Y-102187143D01*
X96755238Y-102234762D01*
X96850476Y-102282381D01*
X96945715Y-102282381D01*
X97040953Y-102234762D01*
X97088572Y-102187143D01*
X97136191Y-102091905D01*
X97183810Y-101901429D01*
X97183810Y-101663333D01*
X97136191Y-101472857D01*
X97088572Y-101377619D01*
X97040953Y-101330000D01*
X96945715Y-101282381D01*
X95993334Y-101282381D02*
X95898095Y-101282381D01*
X95802857Y-101330000D01*
X95755238Y-101377619D01*
X95707619Y-101472857D01*
X95660000Y-101663333D01*
X95660000Y-101901429D01*
X95707619Y-102091905D01*
X95755238Y-102187143D01*
X95802857Y-102234762D01*
X95898095Y-102282381D01*
X95993334Y-102282381D01*
X96088572Y-102234762D01*
X96136191Y-102187143D01*
X96183810Y-102091905D01*
X96231429Y-101901429D01*
X96231429Y-101663333D01*
X96183810Y-101472857D01*
X96136191Y-101377619D01*
X96088572Y-101330000D01*
X95993334Y-101282381D01*
X94660000Y-102187143D02*
X94707619Y-102234762D01*
X94850476Y-102282381D01*
X94945714Y-102282381D01*
X95088572Y-102234762D01*
X95183810Y-102139524D01*
X95231429Y-102044286D01*
X95279048Y-101853810D01*
X95279048Y-101710952D01*
X95231429Y-101520476D01*
X95183810Y-101425238D01*
X95088572Y-101330000D01*
X94945714Y-101282381D01*
X94850476Y-101282381D01*
X94707619Y-101330000D01*
X94660000Y-101377619D01*
X93564762Y-102377619D02*
X93660000Y-102330000D01*
X93755238Y-102234762D01*
X93898095Y-102091905D01*
X93993334Y-102044286D01*
X94088572Y-102044286D01*
X94040953Y-102282381D02*
X94136191Y-102234762D01*
X94231429Y-102139524D01*
X94279048Y-101949048D01*
X94279048Y-101615714D01*
X94231429Y-101425238D01*
X94136191Y-101330000D01*
X94040953Y-101282381D01*
X93850476Y-101282381D01*
X93755238Y-101330000D01*
X93660000Y-101425238D01*
X93612381Y-101615714D01*
X93612381Y-101949048D01*
X93660000Y-102139524D01*
X93755238Y-102234762D01*
X93850476Y-102282381D01*
X94040953Y-102282381D01*
X92612381Y-102282381D02*
X92945715Y-101806190D01*
X93183810Y-102282381D02*
X93183810Y-101282381D01*
X92802857Y-101282381D01*
X92707619Y-101330000D01*
X92660000Y-101377619D01*
X92612381Y-101472857D01*
X92612381Y-101615714D01*
X92660000Y-101710952D01*
X92707619Y-101758571D01*
X92802857Y-101806190D01*
X93183810Y-101806190D01*
X91660000Y-102282381D02*
X92231429Y-102282381D01*
X91945715Y-102282381D02*
X91945715Y-101282381D01*
X92040953Y-101425238D01*
X92136191Y-101520476D01*
X92231429Y-101568095D01*
X91469524Y-102377619D02*
X90707619Y-102377619D01*
X90469524Y-102282381D02*
X90469524Y-101615714D01*
X90469524Y-101806190D02*
X90421905Y-101710952D01*
X90374286Y-101663333D01*
X90279048Y-101615714D01*
X90183809Y-101615714D01*
X89850476Y-102282381D02*
X89850476Y-101615714D01*
X89850476Y-101282381D02*
X89898095Y-101330000D01*
X89850476Y-101377619D01*
X89802857Y-101330000D01*
X89850476Y-101282381D01*
X89850476Y-101377619D01*
X88945714Y-101615714D02*
X88945714Y-102425238D01*
X88993333Y-102520476D01*
X89040952Y-102568095D01*
X89136191Y-102615714D01*
X89279048Y-102615714D01*
X89374286Y-102568095D01*
X88945714Y-102234762D02*
X89040952Y-102282381D01*
X89231429Y-102282381D01*
X89326667Y-102234762D01*
X89374286Y-102187143D01*
X89421905Y-102091905D01*
X89421905Y-101806190D01*
X89374286Y-101710952D01*
X89326667Y-101663333D01*
X89231429Y-101615714D01*
X89040952Y-101615714D01*
X88945714Y-101663333D01*
X88469524Y-102282381D02*
X88469524Y-101282381D01*
X88040952Y-102282381D02*
X88040952Y-101758571D01*
X88088571Y-101663333D01*
X88183809Y-101615714D01*
X88326667Y-101615714D01*
X88421905Y-101663333D01*
X88469524Y-101710952D01*
X87707619Y-101615714D02*
X87326667Y-101615714D01*
X87564762Y-101282381D02*
X87564762Y-102139524D01*
X87517143Y-102234762D01*
X87421905Y-102282381D01*
X87326667Y-102282381D01*
X87231428Y-102377619D02*
X86469523Y-102377619D01*
X86231428Y-102282381D02*
X86231428Y-101615714D01*
X86231428Y-101806190D02*
X86183809Y-101710952D01*
X86136190Y-101663333D01*
X86040952Y-101615714D01*
X85945713Y-101615714D01*
X85231427Y-102234762D02*
X85326665Y-102282381D01*
X85517142Y-102282381D01*
X85612380Y-102234762D01*
X85659999Y-102139524D01*
X85659999Y-101758571D01*
X85612380Y-101663333D01*
X85517142Y-101615714D01*
X85326665Y-101615714D01*
X85231427Y-101663333D01*
X85183808Y-101758571D01*
X85183808Y-101853810D01*
X85659999Y-101949048D01*
X84850475Y-101615714D02*
X84612380Y-102282381D01*
X84374284Y-101615714D01*
X83802856Y-101282381D02*
X83707617Y-101282381D01*
X83612379Y-101330000D01*
X83564760Y-101377619D01*
X83517141Y-101472857D01*
X83469522Y-101663333D01*
X83469522Y-101901429D01*
X83517141Y-102091905D01*
X83564760Y-102187143D01*
X83612379Y-102234762D01*
X83707617Y-102282381D01*
X83802856Y-102282381D01*
X83898094Y-102234762D01*
X83945713Y-102187143D01*
X83993332Y-102091905D01*
X84040951Y-101901429D01*
X84040951Y-101663333D01*
X83993332Y-101472857D01*
X83945713Y-101377619D01*
X83898094Y-101330000D01*
X83802856Y-101282381D01*
X83088570Y-101377619D02*
X83040951Y-101330000D01*
X82945713Y-101282381D01*
X82707617Y-101282381D01*
X82612379Y-101330000D01*
X82564760Y-101377619D01*
X82517141Y-101472857D01*
X82517141Y-101568095D01*
X82564760Y-101710952D01*
X83136189Y-102282381D01*
X82517141Y-102282381D01*
M02*
