G04 #@! TF.GenerationSoftware,KiCad,Pcbnew,5.1.5-52549c5~86~ubuntu18.04.1*
G04 #@! TF.CreationDate,2020-12-28T20:35:26-08:00*
G04 #@! TF.ProjectId,GAMTP_rev02,47414d54-505f-4726-9576-30322e6b6963,rev?*
G04 #@! TF.SameCoordinates,Original*
G04 #@! TF.FileFunction,Legend,Bot*
G04 #@! TF.FilePolarity,Positive*
%FSLAX46Y46*%
G04 Gerber Fmt 4.6, Leading zero omitted, Abs format (unit mm)*
G04 Created by KiCad (PCBNEW 5.1.5-52549c5~86~ubuntu18.04.1) date 2020-12-28 20:35:26*
%MOMM*%
%LPD*%
G04 APERTURE LIST*
%ADD10C,0.300000*%
G04 APERTURE END LIST*
D10*
X181902857Y-55348571D02*
X182760000Y-55348571D01*
X182331428Y-55348571D02*
X182331428Y-53848571D01*
X182474285Y-54062857D01*
X182617142Y-54205714D01*
X182760000Y-54277142D01*
X181331428Y-53991428D02*
X181260000Y-53920000D01*
X181117142Y-53848571D01*
X180760000Y-53848571D01*
X180617142Y-53920000D01*
X180545714Y-53991428D01*
X180474285Y-54134285D01*
X180474285Y-54277142D01*
X180545714Y-54491428D01*
X181402857Y-55348571D01*
X180474285Y-55348571D01*
X178760000Y-53777142D02*
X180045714Y-55705714D01*
X178331428Y-53991428D02*
X178260000Y-53920000D01*
X178117142Y-53848571D01*
X177760000Y-53848571D01*
X177617142Y-53920000D01*
X177545714Y-53991428D01*
X177474285Y-54134285D01*
X177474285Y-54277142D01*
X177545714Y-54491428D01*
X178402857Y-55348571D01*
X177474285Y-55348571D01*
X176617142Y-54491428D02*
X176760000Y-54420000D01*
X176831428Y-54348571D01*
X176902857Y-54205714D01*
X176902857Y-54134285D01*
X176831428Y-53991428D01*
X176760000Y-53920000D01*
X176617142Y-53848571D01*
X176331428Y-53848571D01*
X176188571Y-53920000D01*
X176117142Y-53991428D01*
X176045714Y-54134285D01*
X176045714Y-54205714D01*
X176117142Y-54348571D01*
X176188571Y-54420000D01*
X176331428Y-54491428D01*
X176617142Y-54491428D01*
X176760000Y-54562857D01*
X176831428Y-54634285D01*
X176902857Y-54777142D01*
X176902857Y-55062857D01*
X176831428Y-55205714D01*
X176760000Y-55277142D01*
X176617142Y-55348571D01*
X176331428Y-55348571D01*
X176188571Y-55277142D01*
X176117142Y-55205714D01*
X176045714Y-55062857D01*
X176045714Y-54777142D01*
X176117142Y-54634285D01*
X176188571Y-54562857D01*
X176331428Y-54491428D01*
X174331428Y-53777142D02*
X175617142Y-55705714D01*
X173902857Y-53991428D02*
X173831428Y-53920000D01*
X173688571Y-53848571D01*
X173331428Y-53848571D01*
X173188571Y-53920000D01*
X173117142Y-53991428D01*
X173045714Y-54134285D01*
X173045714Y-54277142D01*
X173117142Y-54491428D01*
X173974285Y-55348571D01*
X173045714Y-55348571D01*
X172117142Y-53848571D02*
X171974285Y-53848571D01*
X171831428Y-53920000D01*
X171760000Y-53991428D01*
X171688571Y-54134285D01*
X171617142Y-54420000D01*
X171617142Y-54777142D01*
X171688571Y-55062857D01*
X171760000Y-55205714D01*
X171831428Y-55277142D01*
X171974285Y-55348571D01*
X172117142Y-55348571D01*
X172260000Y-55277142D01*
X172331428Y-55205714D01*
X172402857Y-55062857D01*
X172474285Y-54777142D01*
X172474285Y-54420000D01*
X172402857Y-54134285D01*
X172331428Y-53991428D01*
X172260000Y-53920000D01*
X172117142Y-53848571D01*
X171045714Y-53991428D02*
X170974285Y-53920000D01*
X170831428Y-53848571D01*
X170474285Y-53848571D01*
X170331428Y-53920000D01*
X170260000Y-53991428D01*
X170188571Y-54134285D01*
X170188571Y-54277142D01*
X170260000Y-54491428D01*
X171117142Y-55348571D01*
X170188571Y-55348571D01*
X169260000Y-53848571D02*
X169117142Y-53848571D01*
X168974285Y-53920000D01*
X168902857Y-53991428D01*
X168831428Y-54134285D01*
X168760000Y-54420000D01*
X168760000Y-54777142D01*
X168831428Y-55062857D01*
X168902857Y-55205714D01*
X168974285Y-55277142D01*
X169117142Y-55348571D01*
X169260000Y-55348571D01*
X169402857Y-55277142D01*
X169474285Y-55205714D01*
X169545714Y-55062857D01*
X169617142Y-54777142D01*
X169617142Y-54420000D01*
X169545714Y-54134285D01*
X169474285Y-53991428D01*
X169402857Y-53920000D01*
X169260000Y-53848571D01*
X116347142Y-53990000D02*
X116490000Y-53918571D01*
X116704285Y-53918571D01*
X116918571Y-53990000D01*
X117061428Y-54132857D01*
X117132857Y-54275714D01*
X117204285Y-54561428D01*
X117204285Y-54775714D01*
X117132857Y-55061428D01*
X117061428Y-55204285D01*
X116918571Y-55347142D01*
X116704285Y-55418571D01*
X116561428Y-55418571D01*
X116347142Y-55347142D01*
X116275714Y-55275714D01*
X116275714Y-54775714D01*
X116561428Y-54775714D01*
X115704285Y-54990000D02*
X114990000Y-54990000D01*
X115847142Y-55418571D02*
X115347142Y-53918571D01*
X114847142Y-55418571D01*
X114347142Y-55418571D02*
X114347142Y-53918571D01*
X113847142Y-54990000D01*
X113347142Y-53918571D01*
X113347142Y-55418571D01*
X112847142Y-53918571D02*
X111990000Y-53918571D01*
X112418571Y-55418571D02*
X112418571Y-53918571D01*
X111490000Y-55418571D02*
X111490000Y-53918571D01*
X110918571Y-53918571D01*
X110775714Y-53990000D01*
X110704285Y-54061428D01*
X110632857Y-54204285D01*
X110632857Y-54418571D01*
X110704285Y-54561428D01*
X110775714Y-54632857D01*
X110918571Y-54704285D01*
X111490000Y-54704285D01*
X110347142Y-55561428D02*
X109204285Y-55561428D01*
X108847142Y-55418571D02*
X108847142Y-54418571D01*
X108847142Y-54704285D02*
X108775714Y-54561428D01*
X108704285Y-54490000D01*
X108561428Y-54418571D01*
X108418571Y-54418571D01*
X107347142Y-55347142D02*
X107490000Y-55418571D01*
X107775714Y-55418571D01*
X107918571Y-55347142D01*
X107990000Y-55204285D01*
X107990000Y-54632857D01*
X107918571Y-54490000D01*
X107775714Y-54418571D01*
X107490000Y-54418571D01*
X107347142Y-54490000D01*
X107275714Y-54632857D01*
X107275714Y-54775714D01*
X107990000Y-54918571D01*
X106775714Y-54418571D02*
X106418571Y-55418571D01*
X106061428Y-54418571D01*
X105204285Y-53918571D02*
X105061428Y-53918571D01*
X104918571Y-53990000D01*
X104847142Y-54061428D01*
X104775714Y-54204285D01*
X104704285Y-54490000D01*
X104704285Y-54847142D01*
X104775714Y-55132857D01*
X104847142Y-55275714D01*
X104918571Y-55347142D01*
X105061428Y-55418571D01*
X105204285Y-55418571D01*
X105347142Y-55347142D01*
X105418571Y-55275714D01*
X105490000Y-55132857D01*
X105561428Y-54847142D01*
X105561428Y-54490000D01*
X105490000Y-54204285D01*
X105418571Y-54061428D01*
X105347142Y-53990000D01*
X105204285Y-53918571D01*
X104132857Y-54061428D02*
X104061428Y-53990000D01*
X103918571Y-53918571D01*
X103561428Y-53918571D01*
X103418571Y-53990000D01*
X103347142Y-54061428D01*
X103275714Y-54204285D01*
X103275714Y-54347142D01*
X103347142Y-54561428D01*
X104204285Y-55418571D01*
X103275714Y-55418571D01*
M02*
