M48
;DRILL file {KiCad 4.0.7} date 06/25/18 12:01:58
;FORMAT={-:-/ absolute / metric / decimal}
FMAT,2
METRIC,TZ
T1C0.400
T2C1.000
T3C1.200
T4C1.699
T5C2.800
T6C3.000
%
G90
G05
M71
T1
X111.5Y-110.5
X112.Y-86.5
X117.46Y-82.9
X122.8Y-88.
X127.5Y-81.
X129.4Y-59.4
X129.46Y-83.24
X129.5Y-74.5
X130.6Y-105.2
X130.8Y-99.2
X132.Y-94.
X132.8Y-59.2
X133.4Y-108.8
X134.2Y-116.6
X134.5Y-106.
X135.Y-100.1
X135.6Y-99.1
X135.6Y-106.1
X136.3Y-110.1
X136.8Y-97.4
X137.51Y-84.2
X137.6Y-85.6
X138.5Y-107.5
X138.8Y-85.
X139.2Y-88.2
X140.6Y-110.2
X142.Y-81.6
X142.2Y-75.2
X142.5Y-108.65
X143.Y-74.8
X143.2Y-85.
X143.6Y-86.6
X144.09Y-83.57
X144.23Y-84.8
X144.23Y-91.05
X144.375Y-105.5
X144.4Y-100.875
X145.5Y-106.975
X145.6Y-84.2
X146.Y-68.
X146.6Y-75.
X147.725Y-106.85
X148.2Y-80.8
X148.5Y-79.5
X149.4Y-108.55
X149.6Y-58.4
X149.925Y-95.125
X150.7Y-58.8
X151.1Y-108.55
X151.5Y-91.99
X151.6Y-67.2
X151.9Y-59.1
X152.2Y-78.2
X152.34Y-96.69
X152.41Y-92.26
X152.5Y-105.125
X152.7Y-68.5
X153.33Y-92.21
X153.575Y-106.925
X153.6Y-59.2
X153.775Y-96.5
X154.215Y-77.545
X154.4Y-73.2
X154.625Y-91.975
X154.8Y-96.525
X155.4Y-91.325
X155.775Y-96.45
X155.825Y-106.825
X156.1Y-89.3
X156.125Y-90.5
X156.7Y-96.275
X156.95Y-108.3
X157.3Y-83.7
X157.45Y-93.025
X157.8Y-83.
X157.9Y-79.
X158.Y-81.
X158.4Y-77.6
X158.45Y-94.025
X158.5Y-59.5
X159.Y-73.4
X159.35Y-108.3
X159.4Y-93.05
X159.6Y-88.2
X160.3Y-90.
X161.325Y-106.6
X162.Y-80.1
X162.2Y-78.1
X162.8Y-82.3
X163.975Y-106.575
X165.6Y-108.25
X167.35Y-108.325
X167.6Y-97.5
X168.9Y-96.5
X169.85Y-106.525
X171.825Y-106.875
X173.55Y-108.3
X175.075Y-108.925
X175.3Y-90.3
X175.7Y-88.4
X176.75Y-107.225
X177.23Y-104.04
X178.Y-95.7
X179.8Y-106.1
X180.4Y-107.85
X181.625Y-108.775
X182.3Y-87.1
X182.4Y-91.8
X182.5Y-99.5
X183.725Y-112.9
X185.8Y-89.6
X186.9Y-116.4
X187.1Y-88.5
X187.1Y-108.
X187.1Y-118.8
X187.4Y-104.1
X187.4Y-109.7
X188.7Y-113.3
X190.15Y-110.11
X190.3Y-91.1
X191.9Y-95.3
X192.1Y-120.1
T2
X120.19Y-117.23
X120.19Y-119.77
X122.73Y-117.23
X122.73Y-119.77
X125.27Y-117.23
X125.27Y-119.77
X127.81Y-117.23
X127.81Y-119.77
X142.72Y-119.
X145.26Y-119.
X149.72Y-119.
X152.26Y-119.
X156.72Y-119.
X159.26Y-119.
X163.22Y-119.
X165.76Y-119.
X170.22Y-119.
X172.65Y-61.5
X172.76Y-119.
X175.19Y-61.5
X177.22Y-119.
X177.72Y-61.5
X179.76Y-119.
X180.26Y-61.5
T3
X172.5Y-93.96
X172.5Y-99.04
X187.Y-93.96
X187.Y-96.5
X187.Y-99.04
T4
X113.5Y-75.
X118.001Y-75.
T5
X179.5Y-91.45
X179.5Y-101.55
T6
X112.Y-118.5
X113.Y-62.
X185.Y-110.5
X193.Y-61.5
T0
M30
