G04 #@! TF.FileFunction,Soldermask,Top*
%FSLAX46Y46*%
G04 Gerber Fmt 4.6, Leading zero omitted, Abs format (unit mm)*
G04 Created by KiCad (PCBNEW 4.0.7) date 06/25/18 12:02:01*
%MOMM*%
%LPD*%
G01*
G04 APERTURE LIST*
%ADD10C,0.100000*%
%ADD11C,3.400000*%
%ADD12R,1.650000X2.400000*%
%ADD13C,2.398980*%
%ADD14R,2.398980X2.398980*%
%ADD15R,1.670000X3.960000*%
%ADD16C,2.200000*%
%ADD17R,1.450000X1.600000*%
%ADD18R,1.450000X1.480000*%
%ADD19R,1.450000X2.790000*%
%ADD20R,1.120000X1.180000*%
%ADD21R,0.900000X1.400000*%
%ADD22R,1.299160X1.400760*%
%ADD23R,1.200100X1.200100*%
%ADD24R,1.400760X1.299160*%
%ADD25C,3.200000*%
%ADD26C,2.400000*%
%ADD27R,2.600000X1.600000*%
%ADD28R,6.800000X6.200000*%
%ADD29R,0.900000X0.750000*%
%ADD30R,0.700000X1.900000*%
%ADD31R,1.900000X0.700000*%
%ADD32R,1.950000X1.000000*%
%ADD33R,2.300000X1.500000*%
%ADD34R,5.960000X3.000000*%
%ADD35R,5.960000X8.400000*%
%ADD36R,1.300000X1.400000*%
%ADD37R,1.400000X1.300000*%
%ADD38R,1.800000X2.000000*%
%ADD39R,1.400760X1.901140*%
%ADD40R,1.400760X1.949400*%
G04 APERTURE END LIST*
D10*
D11*
X112000000Y-118500000D03*
X185000000Y-110500000D03*
X193000000Y-61500000D03*
D12*
X150625000Y-70500000D03*
X153375000Y-70500000D03*
D13*
X118000760Y-75000000D03*
D14*
X113499880Y-69589800D03*
X119600960Y-69589800D03*
X113499880Y-80415280D03*
X119600960Y-80415280D03*
D13*
X113499880Y-75000000D03*
D15*
X138560000Y-61895000D03*
X141100000Y-61895000D03*
X141100000Y-67105000D03*
X138560000Y-67105000D03*
X130920000Y-67105000D03*
X133460000Y-67105000D03*
X136000000Y-67105000D03*
X136000000Y-61895000D03*
X133460000Y-61895000D03*
X130920000Y-61895000D03*
D16*
X172650000Y-61500000D03*
X175190000Y-61500000D03*
X180259840Y-61500000D03*
X177719840Y-61500000D03*
X122730000Y-117230000D03*
X120190000Y-117230000D03*
X125270000Y-117230000D03*
X127810000Y-117230000D03*
X127810000Y-119770000D03*
X125270000Y-119770000D03*
X120190000Y-119770000D03*
X122730000Y-119770000D03*
X145259840Y-119000000D03*
X142719840Y-119000000D03*
X159259840Y-119000000D03*
X156719840Y-119000000D03*
X172759840Y-119000000D03*
X170219840Y-119000000D03*
X152259840Y-119000000D03*
X149719840Y-119000000D03*
X165759840Y-119000000D03*
X163219840Y-119000000D03*
X179759840Y-119000000D03*
X177219840Y-119000000D03*
D17*
X147675000Y-67230000D03*
D18*
X147675000Y-64670000D03*
D17*
X158325000Y-66660000D03*
D19*
X158325000Y-62870000D03*
D20*
X147750000Y-63350000D03*
D21*
X156900000Y-60670000D03*
X155750000Y-60670000D03*
X154650000Y-60670000D03*
X153550000Y-60670000D03*
X152450000Y-60670000D03*
X151350000Y-60670000D03*
X150250000Y-60670000D03*
X149150000Y-60670000D03*
D22*
X131251840Y-72500000D03*
X129748160Y-72500000D03*
D23*
X157550000Y-116500760D03*
X159450000Y-116500760D03*
X158500000Y-114501780D03*
X149550000Y-116500760D03*
X151450000Y-116500760D03*
X150500000Y-114501780D03*
X141550000Y-116500760D03*
X143450000Y-116500760D03*
X142500000Y-114501780D03*
X155450000Y-114499240D03*
X153550000Y-114499240D03*
X154500000Y-116498220D03*
X139450000Y-114499240D03*
X137550000Y-114499240D03*
X138500000Y-116498220D03*
X147450000Y-114499240D03*
X145550000Y-114499240D03*
X146500000Y-116498220D03*
X181550000Y-116500760D03*
X183450000Y-116500760D03*
X182500000Y-114501780D03*
X173575000Y-116500760D03*
X175475000Y-116500760D03*
X174525000Y-114501780D03*
X165550000Y-116500760D03*
X167450000Y-116500760D03*
X166500000Y-114501780D03*
X179450000Y-114499240D03*
X177550000Y-114499240D03*
X178500000Y-116498220D03*
X171400000Y-114499240D03*
X169500000Y-114499240D03*
X170450000Y-116498220D03*
X163450000Y-114499240D03*
X161550000Y-114499240D03*
X162500000Y-116498220D03*
D22*
X146248160Y-70000000D03*
X147751840Y-70000000D03*
D24*
X158500000Y-111751840D03*
X158500000Y-110248160D03*
X150500000Y-111751840D03*
X150500000Y-110248160D03*
X142500000Y-111751840D03*
X142500000Y-110248160D03*
X154500000Y-111751840D03*
X154500000Y-110248160D03*
X138500000Y-111751840D03*
X138500000Y-110248160D03*
X146500000Y-111751840D03*
X146500000Y-110248160D03*
X181500000Y-111751840D03*
X181500000Y-110248160D03*
X174450000Y-111726840D03*
X174450000Y-110223160D03*
X166500000Y-111751840D03*
X166500000Y-110248160D03*
X178500000Y-111751840D03*
X178500000Y-110248160D03*
X170450000Y-111726840D03*
X170450000Y-110223160D03*
X162500000Y-111751840D03*
X162500000Y-110248160D03*
D25*
X179500000Y-91450000D03*
X179500000Y-101550000D03*
D26*
X172500000Y-99040000D03*
X172500000Y-93960000D03*
X187000000Y-93960000D03*
X187000000Y-96500000D03*
X187000000Y-99040000D03*
D24*
X131800000Y-119551840D03*
X131800000Y-118048160D03*
D27*
X131640000Y-77910000D03*
X131640000Y-80190000D03*
X131640000Y-82470000D03*
D28*
X137940000Y-80190000D03*
D29*
X191975000Y-115025000D03*
X194025000Y-116975000D03*
X191975000Y-115675000D03*
X191975000Y-116325000D03*
X191975000Y-116975000D03*
X194025000Y-115650000D03*
X194025000Y-115025000D03*
X194025000Y-116350000D03*
D30*
X149320000Y-80970000D03*
X148820000Y-80970000D03*
X149820000Y-80970000D03*
X150320000Y-80970000D03*
D31*
X155770000Y-85420000D03*
X155770000Y-84920000D03*
X155770000Y-83920000D03*
X155770000Y-84420000D03*
X155770000Y-86920000D03*
X155770000Y-85920000D03*
X155770000Y-86420000D03*
X155770000Y-87920000D03*
X155770000Y-87420000D03*
D30*
X154320000Y-89370000D03*
X153820000Y-89370000D03*
D31*
X147370000Y-87420000D03*
X147370000Y-86920000D03*
X147370000Y-85920000D03*
X147370000Y-86420000D03*
X147370000Y-84920000D03*
X147370000Y-84420000D03*
X147370000Y-85420000D03*
X147370000Y-82920000D03*
X147370000Y-82420000D03*
X147370000Y-83420000D03*
X147370000Y-83920000D03*
D30*
X150820000Y-80970000D03*
X151320000Y-80970000D03*
X152320000Y-80970000D03*
X151820000Y-80970000D03*
X153320000Y-80970000D03*
X153820000Y-80970000D03*
X152820000Y-80970000D03*
D31*
X155770000Y-82920000D03*
X155770000Y-83420000D03*
X155770000Y-82420000D03*
D30*
X154320000Y-80970000D03*
X151820000Y-89370000D03*
X152320000Y-89370000D03*
X153320000Y-89370000D03*
X152820000Y-89370000D03*
X150320000Y-89370000D03*
X151320000Y-89370000D03*
X150820000Y-89370000D03*
X149320000Y-89370000D03*
X149820000Y-89370000D03*
X148820000Y-89370000D03*
D31*
X147370000Y-87920000D03*
D23*
X126050000Y-85000760D03*
X127950000Y-85000760D03*
X127000000Y-83001780D03*
D32*
X136700000Y-90905000D03*
X136700000Y-89635000D03*
X136700000Y-88365000D03*
X136700000Y-87095000D03*
X131300000Y-87095000D03*
X131300000Y-88365000D03*
X131300000Y-89635000D03*
X131300000Y-90905000D03*
D33*
X141600000Y-91200000D03*
X141600000Y-88800000D03*
D11*
X113000000Y-62000000D03*
D22*
X159601840Y-96500000D03*
X158098160Y-96500000D03*
D24*
X155400000Y-76351840D03*
X155400000Y-74848160D03*
X146400000Y-77751840D03*
X146400000Y-76248160D03*
D22*
X160348160Y-84300000D03*
X161851840Y-84300000D03*
X128551840Y-90800000D03*
X127048160Y-90800000D03*
X160348160Y-85800000D03*
X161851840Y-85800000D03*
X127251840Y-89000000D03*
X125748160Y-89000000D03*
X127251840Y-87000000D03*
X125748160Y-87000000D03*
D24*
X157000000Y-76351840D03*
X157000000Y-74848160D03*
D22*
X189751840Y-116500000D03*
X188248160Y-116500000D03*
X189851840Y-118700000D03*
X188348160Y-118700000D03*
D34*
X118500000Y-111405000D03*
D35*
X118500000Y-99500000D03*
D34*
X118500000Y-87595000D03*
D22*
X191751840Y-96500000D03*
X190248160Y-96500000D03*
X191751840Y-99000000D03*
X190248160Y-99000000D03*
X190248160Y-93500000D03*
X191751840Y-93500000D03*
D24*
X133600000Y-119551840D03*
X133600000Y-118048160D03*
D22*
X194751840Y-93500000D03*
D36*
X193248160Y-93500000D03*
D22*
X194751840Y-99000000D03*
D36*
X193248160Y-99000000D03*
D22*
X194751840Y-96500000D03*
D36*
X193248160Y-96500000D03*
D22*
X194051840Y-118800000D03*
D36*
X192548160Y-118800000D03*
D22*
X191281840Y-112560000D03*
D36*
X189778160Y-112560000D03*
D22*
X159601840Y-98125000D03*
D36*
X158098160Y-98125000D03*
D22*
X140248160Y-93200000D03*
D36*
X141751840Y-93200000D03*
D24*
X133000000Y-74001840D03*
D37*
X133000000Y-72498160D03*
D22*
X140448160Y-87000000D03*
D36*
X141951840Y-87000000D03*
D24*
X134750000Y-74001840D03*
D37*
X134750000Y-72498160D03*
D24*
X152080000Y-74748160D03*
D37*
X152080000Y-76251840D03*
D24*
X147930000Y-74638160D03*
D37*
X147930000Y-76141840D03*
D24*
X149320000Y-74658160D03*
D37*
X149320000Y-76161840D03*
D24*
X150680000Y-74698160D03*
D37*
X150680000Y-76201840D03*
D22*
X160751840Y-79500000D03*
D36*
X159248160Y-79500000D03*
D22*
X160751840Y-81000000D03*
D36*
X159248160Y-81000000D03*
D24*
X153075000Y-94826840D03*
D37*
X153075000Y-93323160D03*
D24*
X151275000Y-94876840D03*
D37*
X151275000Y-93373160D03*
D38*
X162500000Y-98700000D03*
X165500000Y-98700000D03*
X162500000Y-91500000D03*
X165500000Y-91500000D03*
D24*
X126180000Y-77391840D03*
D37*
X126180000Y-75888160D03*
D39*
X122273040Y-83495240D03*
D40*
X119346960Y-83485080D03*
D39*
X129726960Y-84924760D03*
D40*
X132653040Y-84934920D03*
M02*
