G04 #@! TF.FileFunction,Paste,Top*
%FSLAX46Y46*%
G04 Gerber Fmt 4.6, Leading zero omitted, Abs format (unit mm)*
G04 Created by KiCad (PCBNEW 4.0.7) date 11/21/18 11:39:18*
%MOMM*%
%LPD*%
G01*
G04 APERTURE LIST*
%ADD10C,0.150000*%
%ADD11R,1.117600X0.711200*%
%ADD12O,0.640080X0.199136*%
%ADD13O,0.199136X0.640080*%
%ADD14R,0.800608X0.719328*%
%ADD15R,0.719328X0.800608*%
G04 APERTURE END LIST*
D10*
D11*
X85400000Y-115347500D03*
X85400000Y-117252500D03*
D12*
X81001020Y-109750320D03*
X81001020Y-110250700D03*
X81001020Y-110751080D03*
X81001020Y-111248920D03*
X81001020Y-111749300D03*
X81001020Y-112249680D03*
D13*
X81750320Y-112998980D03*
X82250700Y-112998980D03*
X82751080Y-112998980D03*
X83248920Y-112998980D03*
X83749300Y-112998980D03*
X84249680Y-112998980D03*
D12*
X84998980Y-112249680D03*
X84998980Y-111749300D03*
X84998980Y-111248920D03*
X84998980Y-110751080D03*
X84998980Y-110250700D03*
X84998980Y-109750320D03*
D13*
X84249680Y-109001020D03*
X83749300Y-109001020D03*
X83248920Y-109001020D03*
X82751080Y-109001020D03*
X82250700Y-109001020D03*
X81750320Y-109001020D03*
D14*
X83800000Y-116751840D03*
X83800000Y-115248160D03*
X82200000Y-116751840D03*
X82200000Y-115248160D03*
D15*
X85251840Y-106500000D03*
X83748160Y-106500000D03*
D14*
X80600000Y-116751840D03*
X80600000Y-115248160D03*
D15*
X86751840Y-128500000D03*
X85248160Y-128500000D03*
X86551840Y-130500000D03*
X85048160Y-130500000D03*
D14*
X147100000Y-116251840D03*
X147100000Y-114748160D03*
D15*
X151751840Y-106000000D03*
X150248160Y-106000000D03*
D14*
X148700000Y-116251840D03*
X148700000Y-114748160D03*
X150300000Y-116251840D03*
X150300000Y-114748160D03*
D12*
X147501020Y-109250320D03*
X147501020Y-109750700D03*
X147501020Y-110251080D03*
X147501020Y-110748920D03*
X147501020Y-111249300D03*
X147501020Y-111749680D03*
D13*
X148250320Y-112498980D03*
X148750700Y-112498980D03*
X149251080Y-112498980D03*
X149748920Y-112498980D03*
X150249300Y-112498980D03*
X150749680Y-112498980D03*
D12*
X151498980Y-111749680D03*
X151498980Y-111249300D03*
X151498980Y-110748920D03*
X151498980Y-110251080D03*
X151498980Y-109750700D03*
X151498980Y-109250320D03*
D13*
X150749680Y-108501020D03*
X150249300Y-108501020D03*
X149748920Y-108501020D03*
X149251080Y-108501020D03*
X148750700Y-108501020D03*
X148250320Y-108501020D03*
D11*
X151900000Y-114847500D03*
X151900000Y-116752500D03*
D14*
X113600000Y-116251840D03*
X113600000Y-114748160D03*
D15*
X118251840Y-106000000D03*
X116748160Y-106000000D03*
D14*
X115200000Y-116251840D03*
X115200000Y-114748160D03*
X116800000Y-116251840D03*
X116800000Y-114748160D03*
D12*
X114001020Y-109250320D03*
X114001020Y-109750700D03*
X114001020Y-110251080D03*
X114001020Y-110748920D03*
X114001020Y-111249300D03*
X114001020Y-111749680D03*
D13*
X114750320Y-112498980D03*
X115250700Y-112498980D03*
X115751080Y-112498980D03*
X116248920Y-112498980D03*
X116749300Y-112498980D03*
X117249680Y-112498980D03*
D12*
X117998980Y-111749680D03*
X117998980Y-111249300D03*
X117998980Y-110748920D03*
X117998980Y-110251080D03*
X117998980Y-109750700D03*
X117998980Y-109250320D03*
D13*
X117249680Y-108501020D03*
X116749300Y-108501020D03*
X116248920Y-108501020D03*
X115751080Y-108501020D03*
X115250700Y-108501020D03*
X114750320Y-108501020D03*
D11*
X118400000Y-114847500D03*
X118400000Y-116752500D03*
M02*
