M48
;DRILL file {KiCad 4.0.7} date 11/21/18 11:39:16
;FORMAT={-:-/ absolute / metric / decimal}
FMAT,2
METRIC,TZ
T1C0.300
T2C0.400
T3C0.500
T4C0.800
T5C0.890
T6C1.000
T7C2.600
T8C3.000
T9C3.180
%
G90
G05
M71
T1
X76.5Y-115.
X76.5Y-116.
X76.5Y-117.
X76.5Y-118.
X76.8Y-105.6
X76.8Y-106.6
X76.8Y-107.6
X76.8Y-108.6
X77.5Y-115.
X77.5Y-116.
X77.5Y-117.
X77.5Y-118.
X77.8Y-105.6
X77.8Y-106.6
X77.8Y-107.6
X77.8Y-108.6
X78.6Y-115.
X78.6Y-116.
X78.6Y-117.
X78.6Y-118.
X78.9Y-105.6
X78.9Y-106.6
X78.9Y-107.6
X78.9Y-108.6
X100.7Y-104.3
X100.7Y-105.5
X100.7Y-106.5
X100.7Y-107.5
X100.7Y-108.5
X100.7Y-109.5
X100.7Y-110.5
X100.7Y-111.5
X100.7Y-112.5
X100.7Y-113.5
X100.7Y-114.5
X100.7Y-115.5
X100.7Y-116.5
X100.7Y-117.5
X101.7Y-104.3
X101.7Y-105.5
X101.7Y-106.5
X101.7Y-107.5
X101.7Y-108.5
X101.7Y-109.5
X101.7Y-110.5
X101.7Y-111.5
X101.7Y-112.5
X101.7Y-113.5
X101.7Y-114.5
X101.7Y-115.5
X101.7Y-116.5
X101.7Y-117.5
X102.8Y-104.3
X102.8Y-105.5
X102.8Y-106.5
X102.8Y-107.5
X102.8Y-108.5
X102.8Y-109.5
X102.8Y-110.5
X102.8Y-111.5
X102.8Y-112.5
X102.8Y-113.5
X102.8Y-114.5
X102.8Y-115.5
X102.8Y-116.5
X102.8Y-117.5
X103.8Y-104.3
X103.8Y-105.5
X103.8Y-106.5
X103.8Y-107.5
X103.8Y-114.5
X103.8Y-115.5
X103.8Y-116.5
X103.8Y-117.5
X104.8Y-104.3
X104.8Y-105.5
X104.8Y-106.5
X104.8Y-107.5
X104.8Y-114.5
X104.8Y-115.5
X104.8Y-116.5
X104.8Y-117.5
X105.8Y-104.3
X105.8Y-105.5
X105.8Y-106.5
X105.8Y-107.5
X105.8Y-114.5
X105.8Y-115.5
X105.8Y-116.5
X105.8Y-117.5
X106.9Y-104.3
X106.9Y-105.5
X106.9Y-106.5
X106.9Y-107.5
X106.9Y-114.5
X106.9Y-115.5
X106.9Y-116.5
X106.9Y-117.5
X107.9Y-104.3
X107.9Y-105.5
X107.9Y-106.5
X107.9Y-107.5
X107.9Y-114.5
X107.9Y-115.5
X107.9Y-116.5
X107.9Y-117.5
X109.5Y-114.5
X109.5Y-115.5
X109.5Y-116.5
X109.5Y-117.5
X109.8Y-105.1
X109.8Y-106.1
X109.8Y-107.1
X109.8Y-108.1
X110.5Y-114.5
X110.5Y-115.5
X110.5Y-116.5
X110.5Y-117.5
X110.8Y-105.1
X110.8Y-106.1
X110.8Y-107.1
X110.8Y-108.1
X111.6Y-114.5
X111.6Y-115.5
X111.6Y-116.5
X111.6Y-117.5
X111.9Y-105.1
X111.9Y-106.1
X111.9Y-107.1
X111.9Y-108.1
X133.7Y-103.8
X133.7Y-105.
X133.7Y-106.
X133.7Y-107.
X133.7Y-108.
X133.7Y-109.
X133.7Y-110.
X133.7Y-111.
X133.7Y-112.
X133.7Y-113.
X133.7Y-114.
X133.7Y-115.
X133.7Y-116.
X133.7Y-117.
X134.7Y-103.8
X134.7Y-105.
X134.7Y-106.
X134.7Y-107.
X134.7Y-108.
X134.7Y-109.
X134.7Y-110.
X134.7Y-111.
X134.7Y-112.
X134.7Y-113.
X134.7Y-114.
X134.7Y-115.
X134.7Y-116.
X134.7Y-117.
X135.8Y-103.8
X135.8Y-105.
X135.8Y-106.
X135.8Y-107.
X135.8Y-108.
X135.8Y-109.
X135.8Y-110.
X135.8Y-111.
X135.8Y-112.
X135.8Y-113.
X135.8Y-114.
X135.8Y-115.
X135.8Y-116.
X135.8Y-117.
X136.8Y-103.8
X136.8Y-105.
X136.8Y-106.
X136.8Y-107.
X136.8Y-114.
X136.8Y-115.
X136.8Y-116.
X136.8Y-117.
X137.8Y-103.8
X137.8Y-105.
X137.8Y-106.
X137.8Y-107.
X137.8Y-114.
X137.8Y-115.
X137.8Y-116.
X137.8Y-117.
X138.8Y-103.8
X138.8Y-105.
X138.8Y-106.
X138.8Y-107.
X138.8Y-114.
X138.8Y-115.
X138.8Y-116.
X138.8Y-117.
X139.9Y-103.8
X139.9Y-105.
X139.9Y-106.
X139.9Y-107.
X139.9Y-114.
X139.9Y-115.
X139.9Y-116.
X139.9Y-117.
X140.9Y-103.8
X140.9Y-105.
X140.9Y-106.
X140.9Y-107.
X140.9Y-114.
X140.9Y-115.
X140.9Y-116.
X140.9Y-117.
X143.Y-114.5
X143.Y-115.5
X143.Y-116.5
X143.Y-117.5
X143.3Y-105.1
X143.3Y-106.1
X143.3Y-107.1
X143.3Y-108.1
X144.Y-114.5
X144.Y-115.5
X144.Y-116.5
X144.Y-117.5
X144.3Y-105.1
X144.3Y-106.1
X144.3Y-107.1
X144.3Y-108.1
X145.1Y-114.5
X145.1Y-115.5
X145.1Y-116.5
X145.1Y-117.5
X145.4Y-105.1
X145.4Y-106.1
X145.4Y-107.1
X145.4Y-108.1
X167.2Y-103.8
X167.2Y-105.
X167.2Y-106.
X167.2Y-107.
X167.2Y-108.
X167.2Y-109.
X167.2Y-110.
X167.2Y-111.
X167.2Y-112.
X167.2Y-113.
X167.2Y-114.
X167.2Y-115.
X167.2Y-116.
X167.2Y-117.
X168.2Y-103.8
X168.2Y-105.
X168.2Y-106.
X168.2Y-107.
X168.2Y-108.
X168.2Y-109.
X168.2Y-110.
X168.2Y-111.
X168.2Y-112.
X168.2Y-113.
X168.2Y-114.
X168.2Y-115.
X168.2Y-116.
X168.2Y-117.
X169.3Y-103.8
X169.3Y-105.
X169.3Y-106.
X169.3Y-107.
X169.3Y-108.
X169.3Y-109.
X169.3Y-110.
X169.3Y-111.
X169.3Y-112.
X169.3Y-113.
X169.3Y-114.
X169.3Y-115.
X169.3Y-116.
X169.3Y-117.
X170.3Y-103.8
X170.3Y-105.
X170.3Y-106.
X170.3Y-107.
X170.3Y-114.
X170.3Y-115.
X170.3Y-116.
X170.3Y-117.
X171.3Y-103.8
X171.3Y-105.
X171.3Y-106.
X171.3Y-107.
X171.3Y-114.
X171.3Y-115.
X171.3Y-116.
X171.3Y-117.
X172.3Y-103.8
X172.3Y-105.
X172.3Y-106.
X172.3Y-107.
X172.3Y-114.
X172.3Y-115.
X172.3Y-116.
X172.3Y-117.
X173.4Y-103.8
X173.4Y-105.
X173.4Y-106.
X173.4Y-107.
X173.4Y-114.
X173.4Y-115.
X173.4Y-116.
X173.4Y-117.
X174.4Y-103.8
X174.4Y-105.
X174.4Y-106.
X174.4Y-107.
X174.4Y-114.
X174.4Y-115.
X174.4Y-116.
X174.4Y-117.
T2
X80.8Y-114.2
X81.6Y-108.1
X82.5Y-107.8
X83.Y-128.5
X83.Y-131.
X83.6Y-114.3
X84.6Y-114.
X86.2Y-114.1
X86.8Y-111.2
X87.5Y-148.5
X89.6Y-111.9
X91.5Y-148.
X99.5Y-149.5
X109.Y-146.5
X110.Y-148.
X113.8Y-113.7
X114.6Y-107.6
X115.Y-144.5
X115.5Y-107.3
X116.6Y-113.8
X117.6Y-113.5
X119.2Y-113.6
X119.8Y-110.7
X122.6Y-111.4
X147.3Y-113.7
X148.1Y-107.6
X149.Y-107.3
X150.1Y-113.8
X151.1Y-113.5
X152.7Y-113.6
X153.3Y-110.7
X156.1Y-111.4
T3
X82.238Y-110.238
X82.238Y-111.762
X83.Y-111.
X83.762Y-110.238
X83.762Y-111.762
X115.238Y-109.738
X115.238Y-111.262
X116.Y-110.5
X116.762Y-109.738
X116.762Y-111.262
X148.738Y-109.738
X148.738Y-111.262
X149.5Y-110.5
X150.262Y-109.738
X150.262Y-111.262
T4
X123.14Y-123.8
X123.14Y-149.2
X125.65Y-123.8
X125.65Y-149.2
X128.22Y-123.8
X128.22Y-149.2
X130.76Y-123.8
X130.76Y-149.2
X133.3Y-123.8
X133.3Y-149.2
X135.84Y-123.8
X135.84Y-149.2
X138.38Y-123.8
X138.38Y-149.2
X140.92Y-123.8
X140.92Y-149.2
X143.46Y-123.8
X143.46Y-149.2
X146.Y-123.8
X146.Y-149.2
X148.54Y-123.8
X148.54Y-149.2
X151.08Y-123.8
X151.08Y-149.2
X153.62Y-123.8
X153.62Y-149.2
X156.16Y-123.8
X156.16Y-149.2
X158.7Y-123.8
X158.7Y-149.2
X161.24Y-123.8
X161.24Y-149.2
X163.78Y-123.8
X163.78Y-149.2
X166.32Y-123.8
X166.35Y-149.2
X168.86Y-123.8
X168.86Y-149.2
T5
X88.06Y-109.595
X88.06Y-112.135
X88.06Y-114.675
X90.6Y-108.325
X90.6Y-110.865
X90.6Y-113.405
X121.06Y-109.095
X121.06Y-111.635
X121.06Y-114.175
X123.6Y-107.825
X123.6Y-110.365
X123.6Y-112.905
X154.56Y-109.095
X154.56Y-111.635
X154.56Y-114.175
X157.1Y-107.825
X157.1Y-110.365
X157.1Y-112.905
T6
X79.9Y-129.35
X79.9Y-131.89
X79.9Y-134.42
X79.9Y-136.96
X84.96Y-150.5
X87.5Y-150.5
X90.04Y-150.5
X92.65Y-140.
X93.96Y-144.5
X95.19Y-140.
X96.5Y-144.5
X97.72Y-140.
X99.04Y-144.5
X100.26Y-140.
X103.24Y-144.5
X105.78Y-144.5
T7
X78.Y-111.
X106.Y-111.
X111.Y-110.5
X139.Y-110.5
X144.5Y-110.5
X172.5Y-110.5
T8
X79.5Y-123.
X79.5Y-148.5
X172.5Y-123.
X172.5Y-149.
T9
X96.95Y-106.42
X96.95Y-116.58
X129.95Y-105.92
X129.95Y-116.08
X163.45Y-105.92
X163.45Y-116.08
T0
M30
