G04 (created by PCBNEW (2013-08-24 BZR 4298)-stable) date Sun 01 Sep 2013 07:56:44 PM PDT*
%MOIN*%
G04 Gerber Fmt 3.4, Leading zero omitted, Abs format*
%FSLAX34Y34*%
G01*
G70*
G90*
G04 APERTURE LIST*
%ADD10C,0.003937*%
%ADD11C,0.002000*%
%ADD12R,0.055000X0.035000*%
%ADD13R,0.039400X0.078700*%
%ADD14C,0.060000*%
%ADD15C,0.005000*%
%ADD16R,0.035000X0.055000*%
%ADD17R,0.015700X0.039400*%
%ADD18C,0.035000*%
%ADD19C,0.007900*%
%ADD20C,0.030000*%
%ADD21C,0.020000*%
%ADD22C,0.003900*%
%ADD23C,0.003100*%
%ADD24C,0.015000*%
%ADD25C,0.005000*%
%ADD26C,0.010000*%
%ADD27C,0.001600*%
%ADD28C,0.005500*%
%ADD29C,0.004000*%
G04 APERTURE END LIST*
G54D10*
G54D11*
X15501Y-15904D02*
X15501Y-15828D01*
X15483Y-15810D02*
X15409Y-15810D01*
X14445Y-15810D02*
X14371Y-15810D01*
X14351Y-15904D02*
X14351Y-15828D01*
X14351Y-16772D02*
X14351Y-16696D01*
X14445Y-16790D02*
X14371Y-16790D01*
X15483Y-16790D02*
X15409Y-16790D01*
X15501Y-16770D02*
X15501Y-16694D01*
G54D12*
X12275Y-16160D03*
X12275Y-16910D03*
X11345Y-16140D03*
X11345Y-16890D03*
G54D13*
X11044Y-8375D03*
X12226Y-8375D03*
X17886Y-8055D03*
X16704Y-8055D03*
G54D14*
X15779Y-11079D03*
X16779Y-11079D03*
X17779Y-11079D03*
X18779Y-11079D03*
X19779Y-11079D03*
X19779Y-12079D03*
X18779Y-12079D03*
X17779Y-12079D03*
X16779Y-12079D03*
X15779Y-12079D03*
X10783Y-12065D03*
X11783Y-12065D03*
X12783Y-12065D03*
X13783Y-12065D03*
X14783Y-12065D03*
X14783Y-11065D03*
X13783Y-11065D03*
X12783Y-11065D03*
X11783Y-11065D03*
X10783Y-11065D03*
G54D15*
X15122Y-16398D03*
X15319Y-16398D03*
X15319Y-16595D03*
X15122Y-16595D03*
X14728Y-16398D03*
X14531Y-16398D03*
X14531Y-16595D03*
X14728Y-16595D03*
X15122Y-16202D03*
X15319Y-16202D03*
X14728Y-16202D03*
X14531Y-16202D03*
X15319Y-16005D03*
X15122Y-16005D03*
X14531Y-16005D03*
X14728Y-16005D03*
X14925Y-16005D03*
X14925Y-16202D03*
X14925Y-16398D03*
X14925Y-16595D03*
G54D16*
X11210Y-7125D03*
X11960Y-7125D03*
X17830Y-6965D03*
X17080Y-6965D03*
G54D12*
X13285Y-7770D03*
X13285Y-8520D03*
G54D17*
X14694Y-7456D03*
X15456Y-7460D03*
X15454Y-8666D03*
X15074Y-8672D03*
X14692Y-8662D03*
G54D18*
X10150Y-17870D03*
X9715Y-7945D03*
G54D19*
X14694Y-7456D02*
X14694Y-7304D01*
X14515Y-7125D02*
X11960Y-7125D01*
X14694Y-7304D02*
X14515Y-7125D01*
X17080Y-6965D02*
X16325Y-6965D01*
X14694Y-7016D02*
X14694Y-7456D01*
X15015Y-6925D02*
X14694Y-7016D01*
X16055Y-6925D02*
X15015Y-6925D01*
X16325Y-6965D02*
X16055Y-6925D01*
X15454Y-8666D02*
X15450Y-8260D01*
X15450Y-8260D02*
X15388Y-8220D01*
X15388Y-8220D02*
X14800Y-8220D01*
X14800Y-8220D02*
X14695Y-8245D01*
X14695Y-8245D02*
X14692Y-8662D01*
X15779Y-11079D02*
X15779Y-8991D01*
X15779Y-8991D02*
X15454Y-8666D01*
G54D20*
X9993Y-18035D02*
X9993Y-18027D01*
X9993Y-18027D02*
X10150Y-17870D01*
X11044Y-8375D02*
X10145Y-8375D01*
X10145Y-8375D02*
X9715Y-7945D01*
G54D19*
X9170Y-17055D02*
X9170Y-17210D01*
G54D21*
X12425Y-18035D02*
X13075Y-17385D01*
X9993Y-18035D02*
X12425Y-18035D01*
G54D19*
X9995Y-18035D02*
X9993Y-18035D01*
X9170Y-17210D02*
X9995Y-18035D01*
X10783Y-11065D02*
X9655Y-11065D01*
X9655Y-11065D02*
X9170Y-11550D01*
X9170Y-11550D02*
X9170Y-17055D01*
X9170Y-17055D02*
X9170Y-17060D01*
X11210Y-7125D02*
X11210Y-7300D01*
X11210Y-7300D02*
X11044Y-7466D01*
X11044Y-7466D02*
X11044Y-8375D01*
X14531Y-16398D02*
X14062Y-16398D01*
X14062Y-16398D02*
X13075Y-17385D01*
X13075Y-17385D02*
X13050Y-17410D01*
G54D21*
X12783Y-12065D02*
X12783Y-13493D01*
G54D22*
X14727Y-16197D02*
X14728Y-16202D01*
G54D21*
X13094Y-14023D02*
X12783Y-13493D01*
X13450Y-14520D02*
X13094Y-14023D01*
G54D23*
X14580Y-15850D02*
X14365Y-15665D01*
G54D21*
X14365Y-15665D02*
X13450Y-14520D01*
G54D23*
X14670Y-16110D02*
X14580Y-15850D01*
G54D22*
X14727Y-16197D02*
X14670Y-16110D01*
G54D23*
X14728Y-16005D02*
X14685Y-15780D01*
G54D19*
X14625Y-15615D02*
X13783Y-13653D01*
G54D24*
X13783Y-13653D02*
X13783Y-12065D01*
G54D25*
X14685Y-15780D02*
X14625Y-15615D01*
G54D23*
X14925Y-16005D02*
X15030Y-15565D01*
G54D21*
X15045Y-14770D02*
X15030Y-13070D01*
X15030Y-13070D02*
X14783Y-12065D01*
G54D19*
X15030Y-15565D02*
X15045Y-14770D01*
G54D25*
X15122Y-16005D02*
X15255Y-15710D01*
G54D19*
X15611Y-15214D02*
X15611Y-15217D01*
X15255Y-15710D02*
X15611Y-15214D01*
G54D21*
X15779Y-13801D02*
X15779Y-12079D01*
X15611Y-15217D02*
X15779Y-13801D01*
G54D19*
X15610Y-15225D02*
X15611Y-15217D01*
G54D25*
X15319Y-16202D02*
X15530Y-16130D01*
G54D26*
X15710Y-16025D02*
X15765Y-15970D01*
G54D19*
X15530Y-16130D02*
X15710Y-16025D01*
G54D24*
X16779Y-14966D02*
X16779Y-12079D01*
G54D19*
X15765Y-15970D02*
X16779Y-14966D01*
G54D27*
X15122Y-16202D02*
X15127Y-16202D01*
G54D24*
X17779Y-14321D02*
X17779Y-12079D01*
G54D19*
X15805Y-16295D02*
X17779Y-14321D01*
G54D23*
X15220Y-16295D02*
X15805Y-16295D01*
G54D25*
X15127Y-16202D02*
X15220Y-16295D01*
X15319Y-16398D02*
X15495Y-16465D01*
G54D24*
X16120Y-16520D02*
X18705Y-13877D01*
X18705Y-13877D02*
X18779Y-12079D01*
G54D19*
X15640Y-16495D02*
X16120Y-16520D01*
X15495Y-16465D02*
X15640Y-16495D01*
X15319Y-16595D02*
X15630Y-16730D01*
G54D24*
X16540Y-16735D02*
X19490Y-13685D01*
X19490Y-13685D02*
X19779Y-12079D01*
G54D19*
X15630Y-16730D02*
X15795Y-16750D01*
X15795Y-16750D02*
X16540Y-16735D01*
X17886Y-8055D02*
X17886Y-7021D01*
X17886Y-7021D02*
X17830Y-6965D01*
G54D21*
X17886Y-8055D02*
X17886Y-8994D01*
G54D19*
X15320Y-16005D02*
X16380Y-15020D01*
G54D28*
X16380Y-12540D02*
X16380Y-9710D01*
G54D21*
X16380Y-15020D02*
X16380Y-12540D01*
G54D19*
X16380Y-9710D02*
X16375Y-9705D01*
X15319Y-16005D02*
X15320Y-16005D01*
G54D21*
X17886Y-8994D02*
X17640Y-9240D01*
X17640Y-9240D02*
X16775Y-9240D01*
G54D19*
X16775Y-9240D02*
X16375Y-9705D01*
G54D23*
X14925Y-16595D02*
X14925Y-16690D01*
X14925Y-16690D02*
X14915Y-16790D01*
G54D22*
X14915Y-16790D02*
X14865Y-17430D01*
G54D21*
X16779Y-10751D02*
X16779Y-11079D01*
X17570Y-9960D02*
X16779Y-10751D01*
G54D19*
X20940Y-9960D02*
X17570Y-9960D01*
X21438Y-10216D02*
X20940Y-9960D01*
G54D21*
X21438Y-14051D02*
X21438Y-10216D01*
X17835Y-17720D02*
X21438Y-14051D01*
X15140Y-17720D02*
X17835Y-17720D01*
G54D19*
X14865Y-17430D02*
X15140Y-17720D01*
G54D23*
X15122Y-16595D02*
X15145Y-16870D01*
G54D27*
X15145Y-16870D02*
X15130Y-16705D01*
G54D21*
X18779Y-10716D02*
X18779Y-11079D01*
X19010Y-10485D02*
X18779Y-10716D01*
X20495Y-10485D02*
X19010Y-10485D01*
X20675Y-10545D02*
X20495Y-10485D01*
X20675Y-13695D02*
X20675Y-10545D01*
X17530Y-17210D02*
X20675Y-13695D01*
G54D19*
X15180Y-17210D02*
X17530Y-17210D01*
G54D22*
X15130Y-16705D02*
X15180Y-17210D01*
G54D19*
X14531Y-16595D02*
X14435Y-16595D01*
X14435Y-16595D02*
X14175Y-16855D01*
G54D21*
X14175Y-16855D02*
X13765Y-17460D01*
X13765Y-17460D02*
X13050Y-18585D01*
X13050Y-18585D02*
X9590Y-18585D01*
X9590Y-18585D02*
X8655Y-17325D01*
X8655Y-17325D02*
X8655Y-11230D01*
X8655Y-11230D02*
X9885Y-10165D01*
X9885Y-10165D02*
X11495Y-10165D01*
X11495Y-10165D02*
X11783Y-10453D01*
X11783Y-10453D02*
X11783Y-11065D01*
G54D22*
X14728Y-16398D02*
X14825Y-16495D01*
G54D23*
X14825Y-16495D02*
X14825Y-16710D01*
X14825Y-16710D02*
X14715Y-17060D01*
G54D19*
X14715Y-17060D02*
X14225Y-18865D01*
G54D21*
X14225Y-18865D02*
X13270Y-19560D01*
X13270Y-19560D02*
X9260Y-19560D01*
X9260Y-19560D02*
X7720Y-17450D01*
X7720Y-17450D02*
X7720Y-10645D01*
X7720Y-10645D02*
X9400Y-9460D01*
X9400Y-9460D02*
X12585Y-9460D01*
X12585Y-9460D02*
X13783Y-10428D01*
X13783Y-10428D02*
X13783Y-11065D01*
G54D11*
X14728Y-16595D02*
X14728Y-16612D01*
G54D23*
X14728Y-16612D02*
X14610Y-16785D01*
G54D21*
X12783Y-10558D02*
X12783Y-11065D01*
X12085Y-9860D02*
X12783Y-10558D01*
X9555Y-9860D02*
X12085Y-9860D01*
X8080Y-10970D02*
X9555Y-9860D01*
X8080Y-17370D02*
X8080Y-10970D01*
X9360Y-19080D02*
X8080Y-17370D01*
X13215Y-19080D02*
X9360Y-19080D01*
X13765Y-18645D02*
X13215Y-19080D01*
X14480Y-16930D02*
X13765Y-18645D01*
G54D19*
X14610Y-16785D02*
X14480Y-16930D01*
G54D29*
X14531Y-16005D02*
X14380Y-16005D01*
G54D21*
X11783Y-13843D02*
X11783Y-12065D01*
X13870Y-15780D02*
X11783Y-13843D01*
G54D19*
X14090Y-16005D02*
X13870Y-15780D01*
X14380Y-16005D02*
X14090Y-16005D01*
X11343Y-15658D02*
X11343Y-16138D01*
X11343Y-16138D02*
X11345Y-16140D01*
G54D21*
X11783Y-12065D02*
X11740Y-12065D01*
G54D19*
X11740Y-12065D02*
X11225Y-11645D01*
X11225Y-11645D02*
X10385Y-11645D01*
X10385Y-11645D02*
X10130Y-11805D01*
G54D21*
X10130Y-11805D02*
X10130Y-14445D01*
X10130Y-14445D02*
X11343Y-15658D01*
G54D19*
X11343Y-15658D02*
X11345Y-15660D01*
X14531Y-16202D02*
X12317Y-16202D01*
X12317Y-16202D02*
X12275Y-16160D01*
X12317Y-16202D02*
X12275Y-16160D01*
X12317Y-16202D02*
X12275Y-16160D01*
G54D21*
X12275Y-16160D02*
X11890Y-15015D01*
X10783Y-13603D02*
X10783Y-12065D01*
X11890Y-15015D02*
X10783Y-13603D01*
G54D27*
X14925Y-16398D02*
X14925Y-16405D01*
G54D21*
X17779Y-10631D02*
X17779Y-11079D01*
X18185Y-10225D02*
X17779Y-10631D01*
G54D19*
X20825Y-10225D02*
X18185Y-10225D01*
G54D21*
X21085Y-10375D02*
X20825Y-10225D01*
X21085Y-13945D02*
X21085Y-10375D01*
G54D19*
X17685Y-17455D02*
X21085Y-13945D01*
X15225Y-17455D02*
X17685Y-17455D01*
X15065Y-17380D02*
X15225Y-17455D01*
G54D22*
X15025Y-17100D02*
X15065Y-17380D01*
X15025Y-16735D02*
X15025Y-17100D01*
G54D23*
X15025Y-16495D02*
X15025Y-16735D01*
G54D22*
X14925Y-16405D02*
X15025Y-16495D01*
G54D11*
X15122Y-16398D02*
X15122Y-16407D01*
G54D22*
X15122Y-16407D02*
X15220Y-16505D01*
G54D24*
X19779Y-11079D02*
X20003Y-10855D01*
G54D23*
X15220Y-16505D02*
X15220Y-16685D01*
X15220Y-16685D02*
X15405Y-16960D01*
G54D19*
X15405Y-16960D02*
X16850Y-16975D01*
G54D24*
X16850Y-16975D02*
X20335Y-13490D01*
X20335Y-13490D02*
X20335Y-11045D01*
X20335Y-11045D02*
X20145Y-10855D01*
X20145Y-10855D02*
X20003Y-10855D01*
G54D27*
X15220Y-16500D02*
X15220Y-16505D01*
G54D19*
X11345Y-16890D02*
X9950Y-16890D01*
X11441Y-11551D02*
X11365Y-11475D01*
X11365Y-11475D02*
X10085Y-11475D01*
X10085Y-11475D02*
X9765Y-11795D01*
X9765Y-11795D02*
X9765Y-16705D01*
X11441Y-11551D02*
X14297Y-11551D01*
X9950Y-16890D02*
X9765Y-16705D01*
X13285Y-8520D02*
X12371Y-8520D01*
X12371Y-8520D02*
X12226Y-8375D01*
G54D21*
X16704Y-8055D02*
X16704Y-8576D01*
X16704Y-8576D02*
X16195Y-9110D01*
G54D28*
X16195Y-9110D02*
X16195Y-11455D01*
G54D19*
X16195Y-11455D02*
X16075Y-11550D01*
X16075Y-11550D02*
X15268Y-11550D01*
G54D21*
X15268Y-11550D02*
X14783Y-11065D01*
G54D19*
X13285Y-8520D02*
X13285Y-8895D01*
X13770Y-9380D02*
X15074Y-9380D01*
X13285Y-8895D02*
X13770Y-9380D01*
X14783Y-11065D02*
X14783Y-10427D01*
X15074Y-10136D02*
X15074Y-9380D01*
X14783Y-10427D02*
X15074Y-10136D01*
X15074Y-9380D02*
X15074Y-8672D01*
X11345Y-16890D02*
X11345Y-16979D01*
X12275Y-16910D02*
X11365Y-16910D01*
X11365Y-16910D02*
X11345Y-16890D01*
G54D27*
X14925Y-16202D02*
X14915Y-16190D01*
G54D22*
X14915Y-16190D02*
X14828Y-16085D01*
G54D23*
X14828Y-16085D02*
X14830Y-15730D01*
G54D24*
X14735Y-15085D02*
X14415Y-13645D01*
G54D19*
X14795Y-15470D02*
X14735Y-15085D01*
G54D25*
X14830Y-15730D02*
X14795Y-15470D01*
G54D19*
X14415Y-13645D02*
X14280Y-11568D01*
G54D24*
X14280Y-11568D02*
X14297Y-11551D01*
G54D19*
X14297Y-11551D02*
X14783Y-11065D01*
X13285Y-7770D02*
X13750Y-7770D01*
X13750Y-7770D02*
X13930Y-7950D01*
X13930Y-7950D02*
X15320Y-7950D01*
X15320Y-7950D02*
X15456Y-7814D01*
X15456Y-7814D02*
X15456Y-7460D01*
G54D26*
X22700Y-6455D02*
X22700Y-6455D01*
X18202Y-6535D02*
X22701Y-6535D01*
X18244Y-6615D02*
X22702Y-6615D01*
X18254Y-6695D02*
X22704Y-6695D01*
X18255Y-6775D02*
X22705Y-6775D01*
X18253Y-6855D02*
X22707Y-6855D01*
X17780Y-6935D02*
X22708Y-6935D01*
X18193Y-7015D02*
X22710Y-7015D01*
X18254Y-7095D02*
X22711Y-7095D01*
X18254Y-7175D02*
X22713Y-7175D01*
X18254Y-7255D02*
X22714Y-7255D01*
X18235Y-7335D02*
X22716Y-7335D01*
X18181Y-7415D02*
X22717Y-7415D01*
X18268Y-7495D02*
X22719Y-7495D01*
X18317Y-7575D02*
X22720Y-7575D01*
X17408Y-7655D02*
X17440Y-7655D01*
X18332Y-7655D02*
X22722Y-7655D01*
X17344Y-7735D02*
X17440Y-7735D01*
X18333Y-7735D02*
X22723Y-7735D01*
X17344Y-7815D02*
X17440Y-7815D01*
X18333Y-7815D02*
X22725Y-7815D01*
X17344Y-7895D02*
X17440Y-7895D01*
X18333Y-7895D02*
X22726Y-7895D01*
X17344Y-7975D02*
X17471Y-7975D01*
X18301Y-7975D02*
X22728Y-7975D01*
X17344Y-8055D02*
X22729Y-8055D01*
X17344Y-8135D02*
X17471Y-8135D01*
X17836Y-8135D02*
X17936Y-8135D01*
X18301Y-8135D02*
X22731Y-8135D01*
X17344Y-8215D02*
X17439Y-8215D01*
X17836Y-8215D02*
X17936Y-8215D01*
X18332Y-8215D02*
X22732Y-8215D01*
X17344Y-8295D02*
X17439Y-8295D01*
X17836Y-8295D02*
X17936Y-8295D01*
X18332Y-8295D02*
X22734Y-8295D01*
X17344Y-8375D02*
X17439Y-8375D01*
X17836Y-8375D02*
X17936Y-8375D01*
X18332Y-8375D02*
X22735Y-8375D01*
X17344Y-8455D02*
X17440Y-8455D01*
X17836Y-8455D02*
X17936Y-8455D01*
X18332Y-8455D02*
X22737Y-8455D01*
X17344Y-8535D02*
X17455Y-8535D01*
X17836Y-8535D02*
X17936Y-8535D01*
X18316Y-8535D02*
X22738Y-8535D01*
X17311Y-8615D02*
X17504Y-8615D01*
X17836Y-8615D02*
X17936Y-8615D01*
X18268Y-8615D02*
X22740Y-8615D01*
X17277Y-8695D02*
X17635Y-8695D01*
X17777Y-8695D02*
X17995Y-8695D01*
X18136Y-8695D02*
X22741Y-8695D01*
X17209Y-8775D02*
X22743Y-8775D01*
X17159Y-8855D02*
X22744Y-8855D01*
X17107Y-8935D02*
X22746Y-8935D01*
X17034Y-9015D02*
X22747Y-9015D01*
X16958Y-9095D02*
X22749Y-9095D01*
X16883Y-9175D02*
X22750Y-9175D01*
X16807Y-9255D02*
X22752Y-9255D01*
X16731Y-9335D02*
X22753Y-9335D01*
X16666Y-9415D02*
X22755Y-9415D01*
X16666Y-9495D02*
X17306Y-9495D01*
X21037Y-9495D02*
X22756Y-9495D01*
X16666Y-9575D02*
X17187Y-9575D01*
X21249Y-9575D02*
X22758Y-9575D01*
X16666Y-9655D02*
X17106Y-9655D01*
X21404Y-9655D02*
X22759Y-9655D01*
X16666Y-9735D02*
X17026Y-9735D01*
X21679Y-9735D02*
X22761Y-9735D01*
X16666Y-9815D02*
X16946Y-9815D01*
X21799Y-9815D02*
X22762Y-9815D01*
X16666Y-9895D02*
X16866Y-9895D01*
X21866Y-9895D02*
X22764Y-9895D01*
X16666Y-9975D02*
X16786Y-9975D01*
X21919Y-9975D02*
X22765Y-9975D01*
X16666Y-10055D02*
X16706Y-10055D01*
X21951Y-10055D02*
X22767Y-10055D01*
X21967Y-10135D02*
X22768Y-10135D01*
X21982Y-10215D02*
X22770Y-10215D01*
X21982Y-10295D02*
X22771Y-10295D01*
X21982Y-10375D02*
X22773Y-10375D01*
X21982Y-10455D02*
X22774Y-10455D01*
X21982Y-10535D02*
X22776Y-10535D01*
X21982Y-10615D02*
X22777Y-10615D01*
X21982Y-10695D02*
X22779Y-10695D01*
X21982Y-10775D02*
X22780Y-10775D01*
X21982Y-10855D02*
X22782Y-10855D01*
X21982Y-10935D02*
X22783Y-10935D01*
X21982Y-11015D02*
X22785Y-11015D01*
X21982Y-11095D02*
X22786Y-11095D01*
X21982Y-11175D02*
X22788Y-11175D01*
X21982Y-11255D02*
X22789Y-11255D01*
X21982Y-11335D02*
X22791Y-11335D01*
X21982Y-11415D02*
X22792Y-11415D01*
X21982Y-11495D02*
X22794Y-11495D01*
X21982Y-11575D02*
X22795Y-11575D01*
X21982Y-11655D02*
X22796Y-11655D01*
X21982Y-11735D02*
X22798Y-11735D01*
X21982Y-11815D02*
X22799Y-11815D01*
X21982Y-11895D02*
X22801Y-11895D01*
X21982Y-11975D02*
X22802Y-11975D01*
X21982Y-12055D02*
X22804Y-12055D01*
X21982Y-12135D02*
X22805Y-12135D01*
X21982Y-12215D02*
X22807Y-12215D01*
X21982Y-12295D02*
X22808Y-12295D01*
X21982Y-12375D02*
X22810Y-12375D01*
X21982Y-12455D02*
X22811Y-12455D01*
X21982Y-12535D02*
X22813Y-12535D01*
X21982Y-12615D02*
X22814Y-12615D01*
X21982Y-12695D02*
X22816Y-12695D01*
X21982Y-12775D02*
X22817Y-12775D01*
X21982Y-12855D02*
X22819Y-12855D01*
X21982Y-12935D02*
X22820Y-12935D01*
X21982Y-13015D02*
X22822Y-13015D01*
X21982Y-13095D02*
X22823Y-13095D01*
X21982Y-13175D02*
X22825Y-13175D01*
X21982Y-13255D02*
X22826Y-13255D01*
X21982Y-13335D02*
X22828Y-13335D01*
X21982Y-13415D02*
X22829Y-13415D01*
X21982Y-13495D02*
X22831Y-13495D01*
X21982Y-13575D02*
X22832Y-13575D01*
X21982Y-13655D02*
X22834Y-13655D01*
X21982Y-13735D02*
X22835Y-13735D01*
X21982Y-13815D02*
X22837Y-13815D01*
X21982Y-13895D02*
X22838Y-13895D01*
X21982Y-13975D02*
X22840Y-13975D01*
X21982Y-14055D02*
X22841Y-14055D01*
X21967Y-14135D02*
X22843Y-14135D01*
X21952Y-14215D02*
X22844Y-14215D01*
X21918Y-14295D02*
X22846Y-14295D01*
X21866Y-14375D02*
X22847Y-14375D01*
X21806Y-14455D02*
X22849Y-14455D01*
X21727Y-14535D02*
X22850Y-14535D01*
X21649Y-14615D02*
X22852Y-14615D01*
X21570Y-14695D02*
X22853Y-14695D01*
X21491Y-14775D02*
X22855Y-14775D01*
X21413Y-14855D02*
X22856Y-14855D01*
X21334Y-14935D02*
X22858Y-14935D01*
X21255Y-15015D02*
X22859Y-15015D01*
X21177Y-15095D02*
X22861Y-15095D01*
X21098Y-15175D02*
X22862Y-15175D01*
X21020Y-15255D02*
X22864Y-15255D01*
X20941Y-15335D02*
X22865Y-15335D01*
X20862Y-15415D02*
X22867Y-15415D01*
X20784Y-15495D02*
X22868Y-15495D01*
X20705Y-15575D02*
X22870Y-15575D01*
X20626Y-15655D02*
X22871Y-15655D01*
X20548Y-15735D02*
X22873Y-15735D01*
X20469Y-15815D02*
X22874Y-15815D01*
X20391Y-15895D02*
X22876Y-15895D01*
X20312Y-15975D02*
X22877Y-15975D01*
X20233Y-16055D02*
X22879Y-16055D01*
X20155Y-16135D02*
X22880Y-16135D01*
X20076Y-16215D02*
X22882Y-16215D01*
X19997Y-16295D02*
X22883Y-16295D01*
X19919Y-16375D02*
X22885Y-16375D01*
X19840Y-16455D02*
X22886Y-16455D01*
X19762Y-16535D02*
X22888Y-16535D01*
X19683Y-16615D02*
X22889Y-16615D01*
X19604Y-16695D02*
X22890Y-16695D01*
X19526Y-16775D02*
X22892Y-16775D01*
X19447Y-16855D02*
X22893Y-16855D01*
X19368Y-16935D02*
X22895Y-16935D01*
X19290Y-17015D02*
X22896Y-17015D01*
X19211Y-17095D02*
X22898Y-17095D01*
X19133Y-17175D02*
X22899Y-17175D01*
X19054Y-17255D02*
X22901Y-17255D01*
X18975Y-17335D02*
X22902Y-17335D01*
X18897Y-17415D02*
X22904Y-17415D01*
X18818Y-17495D02*
X22905Y-17495D01*
X18739Y-17575D02*
X22907Y-17575D01*
X18661Y-17655D02*
X22908Y-17655D01*
X18582Y-17735D02*
X22910Y-17735D01*
X18504Y-17815D02*
X22911Y-17815D01*
X18425Y-17895D02*
X22913Y-17895D01*
X18346Y-17975D02*
X22914Y-17975D01*
X18268Y-18055D02*
X22916Y-18055D01*
X18174Y-18135D02*
X22917Y-18135D01*
X14901Y-18215D02*
X14920Y-18215D01*
X18056Y-18215D02*
X22919Y-18215D01*
X14879Y-18295D02*
X22920Y-18295D01*
X14857Y-18375D02*
X22922Y-18375D01*
X14836Y-18455D02*
X22923Y-18455D01*
X14814Y-18535D02*
X22925Y-18535D01*
X14792Y-18615D02*
X22926Y-18615D01*
X14770Y-18695D02*
X22928Y-18695D01*
X14756Y-18775D02*
X22929Y-18775D01*
X14760Y-18855D02*
X22931Y-18855D01*
X14763Y-18935D02*
X22932Y-18935D01*
X14739Y-19015D02*
X22934Y-19015D01*
X14709Y-19095D02*
X22935Y-19095D01*
X14666Y-19175D02*
X22937Y-19175D01*
X14592Y-19255D02*
X22938Y-19255D01*
X14505Y-19335D02*
X22940Y-19335D01*
X14394Y-19415D02*
X22941Y-19415D01*
X14284Y-19495D02*
X22943Y-19495D01*
X14174Y-19575D02*
X22944Y-19575D01*
X14063Y-19655D02*
X22946Y-19655D01*
X13953Y-19735D02*
X22947Y-19735D01*
X13843Y-19815D02*
X21866Y-19815D01*
X13740Y-19890D02*
X22949Y-19805D01*
X22700Y-6455D01*
X18098Y-6459D01*
X18146Y-6479D01*
X18216Y-6549D01*
X18254Y-6640D01*
X18254Y-6739D01*
X18255Y-6853D01*
X18193Y-6915D01*
X17880Y-6915D01*
X17780Y-6915D01*
X17780Y-7015D01*
X17880Y-7015D01*
X18193Y-7015D01*
X18255Y-7077D01*
X18254Y-7191D01*
X18254Y-7290D01*
X18216Y-7381D01*
X18168Y-7428D01*
X18224Y-7451D01*
X18294Y-7521D01*
X18332Y-7612D01*
X18332Y-7711D01*
X18333Y-7943D01*
X18271Y-8005D01*
X17936Y-8005D01*
X17836Y-8005D01*
X17501Y-8005D01*
X17439Y-7943D01*
X17440Y-7711D01*
X17440Y-7642D01*
X17344Y-7682D01*
X17344Y-8536D01*
X17276Y-8699D01*
X17212Y-8762D01*
X17211Y-8773D01*
X17208Y-8777D01*
X17207Y-8784D01*
X17129Y-8900D01*
X17097Y-8951D01*
X17092Y-8955D01*
X17089Y-8961D01*
X17084Y-8963D01*
X16666Y-9404D01*
X16666Y-10094D01*
X17185Y-9576D01*
X17361Y-9458D01*
X17570Y-9416D01*
X17774Y-9457D01*
X17774Y-8698D01*
X17640Y-8697D01*
X17548Y-8659D01*
X17478Y-8589D01*
X17440Y-8498D01*
X17440Y-8399D01*
X17439Y-8167D01*
X17501Y-8105D01*
X17836Y-8105D01*
X17836Y-8636D01*
X17774Y-8698D01*
X17774Y-9457D01*
X17778Y-9458D01*
X17806Y-9477D01*
X17998Y-9477D01*
X17998Y-8698D01*
X17936Y-8636D01*
X17936Y-8105D01*
X18271Y-8105D01*
X18333Y-8167D01*
X18332Y-8399D01*
X18332Y-8498D01*
X18294Y-8589D01*
X18224Y-8659D01*
X18132Y-8697D01*
X17998Y-8698D01*
X17998Y-9477D01*
X20940Y-9477D01*
X20960Y-9481D01*
X20979Y-9479D01*
X21051Y-9499D01*
X21125Y-9514D01*
X21140Y-9524D01*
X21161Y-9530D01*
X21437Y-9672D01*
X21438Y-9672D01*
X21646Y-9713D01*
X21823Y-9831D01*
X21941Y-10008D01*
X21982Y-10216D01*
X21982Y-14038D01*
X21984Y-14048D01*
X21944Y-14257D01*
X21827Y-14434D01*
X18223Y-18101D01*
X18222Y-18101D01*
X18220Y-18105D01*
X18118Y-18172D01*
X18048Y-18221D01*
X18045Y-18221D01*
X18043Y-18223D01*
X17942Y-18242D01*
X17840Y-18264D01*
X17837Y-18263D01*
X17835Y-18264D01*
X15140Y-18264D01*
X14932Y-18223D01*
X14904Y-18204D01*
X14755Y-18754D01*
X14763Y-18951D01*
X14689Y-19151D01*
X14545Y-19306D01*
X13740Y-19890D01*
M02*
