G04 #@! TF.FileFunction,Legend,Bot*
%FSLAX46Y46*%
G04 Gerber Fmt 4.6, Leading zero omitted, Abs format (unit mm)*
G04 Created by KiCad (PCBNEW 4.0.6-e0-6349~53~ubuntu16.04.1) date Sun May 21 20:45:15 2017*
%MOMM*%
%LPD*%
G01*
G04 APERTURE LIST*
%ADD10C,0.150000*%
%ADD11C,0.300000*%
%ADD12C,0.200000*%
G04 APERTURE END LIST*
D10*
D11*
X88492857Y-90371430D02*
X88492857Y-90871430D01*
X89278571Y-91085716D02*
X89278571Y-90371430D01*
X87778571Y-90371430D01*
X87778571Y-91085716D01*
X88278571Y-91514287D02*
X88278571Y-92085716D01*
X87778571Y-91728573D02*
X89064286Y-91728573D01*
X89207143Y-91800001D01*
X89278571Y-91942859D01*
X89278571Y-92085716D01*
X89278571Y-92585716D02*
X87778571Y-92585716D01*
X89278571Y-93228573D02*
X88492857Y-93228573D01*
X88350000Y-93157144D01*
X88278571Y-93014287D01*
X88278571Y-92800002D01*
X88350000Y-92657144D01*
X88421429Y-92585716D01*
X89278571Y-93942859D02*
X87778571Y-93942859D01*
X87778571Y-94514287D01*
X87850000Y-94657145D01*
X87921429Y-94728573D01*
X88064286Y-94800002D01*
X88278571Y-94800002D01*
X88421429Y-94728573D01*
X88492857Y-94657145D01*
X88564286Y-94514287D01*
X88564286Y-93942859D01*
X89278571Y-95657145D02*
X89207143Y-95514287D01*
X89135714Y-95442859D01*
X88992857Y-95371430D01*
X88564286Y-95371430D01*
X88421429Y-95442859D01*
X88350000Y-95514287D01*
X88278571Y-95657145D01*
X88278571Y-95871430D01*
X88350000Y-96014287D01*
X88421429Y-96085716D01*
X88564286Y-96157145D01*
X88992857Y-96157145D01*
X89135714Y-96085716D01*
X89207143Y-96014287D01*
X89278571Y-95871430D01*
X89278571Y-95657145D01*
X88278571Y-96657145D02*
X89278571Y-96942859D01*
X88564286Y-97228573D01*
X89278571Y-97514288D01*
X88278571Y-97800002D01*
X89207143Y-98942859D02*
X89278571Y-98800002D01*
X89278571Y-98514288D01*
X89207143Y-98371431D01*
X89064286Y-98300002D01*
X88492857Y-98300002D01*
X88350000Y-98371431D01*
X88278571Y-98514288D01*
X88278571Y-98800002D01*
X88350000Y-98942859D01*
X88492857Y-99014288D01*
X88635714Y-99014288D01*
X88778571Y-98300002D01*
X89278571Y-99657145D02*
X88278571Y-99657145D01*
X88564286Y-99657145D02*
X88421429Y-99728573D01*
X88350000Y-99800002D01*
X88278571Y-99942859D01*
X88278571Y-100085716D01*
X89421429Y-100228573D02*
X89421429Y-101371430D01*
X89278571Y-101728573D02*
X88278571Y-101728573D01*
X88564286Y-101728573D02*
X88421429Y-101800001D01*
X88350000Y-101871430D01*
X88278571Y-102014287D01*
X88278571Y-102157144D01*
X89207143Y-103228572D02*
X89278571Y-103085715D01*
X89278571Y-102800001D01*
X89207143Y-102657144D01*
X89064286Y-102585715D01*
X88492857Y-102585715D01*
X88350000Y-102657144D01*
X88278571Y-102800001D01*
X88278571Y-103085715D01*
X88350000Y-103228572D01*
X88492857Y-103300001D01*
X88635714Y-103300001D01*
X88778571Y-102585715D01*
X88278571Y-103800001D02*
X89278571Y-104157144D01*
X88278571Y-104514286D01*
X87778571Y-105371429D02*
X87778571Y-105514286D01*
X87850000Y-105657143D01*
X87921429Y-105728572D01*
X88064286Y-105800001D01*
X88350000Y-105871429D01*
X88707143Y-105871429D01*
X88992857Y-105800001D01*
X89135714Y-105728572D01*
X89207143Y-105657143D01*
X89278571Y-105514286D01*
X89278571Y-105371429D01*
X89207143Y-105228572D01*
X89135714Y-105157143D01*
X88992857Y-105085715D01*
X88707143Y-105014286D01*
X88350000Y-105014286D01*
X88064286Y-105085715D01*
X87921429Y-105157143D01*
X87850000Y-105228572D01*
X87778571Y-105371429D01*
X87778571Y-107228572D02*
X87778571Y-106514286D01*
X88492857Y-106442857D01*
X88421429Y-106514286D01*
X88350000Y-106657143D01*
X88350000Y-107014286D01*
X88421429Y-107157143D01*
X88492857Y-107228572D01*
X88635714Y-107300000D01*
X88992857Y-107300000D01*
X89135714Y-107228572D01*
X89207143Y-107157143D01*
X89278571Y-107014286D01*
X89278571Y-106657143D01*
X89207143Y-106514286D01*
X89135714Y-106442857D01*
D12*
X108242856Y-115478571D02*
X108099999Y-115478571D01*
X107957142Y-115550000D01*
X107885713Y-115621429D01*
X107814284Y-115764286D01*
X107742856Y-116050000D01*
X107742856Y-116407143D01*
X107814284Y-116692857D01*
X107885713Y-116835714D01*
X107957142Y-116907143D01*
X108099999Y-116978571D01*
X108242856Y-116978571D01*
X108385713Y-116907143D01*
X108457142Y-116835714D01*
X108528570Y-116692857D01*
X108599999Y-116407143D01*
X108599999Y-116050000D01*
X108528570Y-115764286D01*
X108457142Y-115621429D01*
X108385713Y-115550000D01*
X108242856Y-115478571D01*
X106385713Y-115478571D02*
X107099999Y-115478571D01*
X107171428Y-116192857D01*
X107099999Y-116121429D01*
X106957142Y-116050000D01*
X106599999Y-116050000D01*
X106457142Y-116121429D01*
X106385713Y-116192857D01*
X106314285Y-116335714D01*
X106314285Y-116692857D01*
X106385713Y-116835714D01*
X106457142Y-116907143D01*
X106599999Y-116978571D01*
X106957142Y-116978571D01*
X107099999Y-116907143D01*
X107171428Y-116835714D01*
X104600000Y-115407143D02*
X105885714Y-117335714D01*
X104171428Y-115621429D02*
X104099999Y-115550000D01*
X103957142Y-115478571D01*
X103599999Y-115478571D01*
X103457142Y-115550000D01*
X103385713Y-115621429D01*
X103314285Y-115764286D01*
X103314285Y-115907143D01*
X103385713Y-116121429D01*
X104242856Y-116978571D01*
X103314285Y-116978571D01*
X102385714Y-115478571D02*
X102242857Y-115478571D01*
X102100000Y-115550000D01*
X102028571Y-115621429D01*
X101957142Y-115764286D01*
X101885714Y-116050000D01*
X101885714Y-116407143D01*
X101957142Y-116692857D01*
X102028571Y-116835714D01*
X102100000Y-116907143D01*
X102242857Y-116978571D01*
X102385714Y-116978571D01*
X102528571Y-116907143D01*
X102600000Y-116835714D01*
X102671428Y-116692857D01*
X102742857Y-116407143D01*
X102742857Y-116050000D01*
X102671428Y-115764286D01*
X102600000Y-115621429D01*
X102528571Y-115550000D01*
X102385714Y-115478571D01*
X100171429Y-115407143D02*
X101457143Y-117335714D01*
X99742857Y-115621429D02*
X99671428Y-115550000D01*
X99528571Y-115478571D01*
X99171428Y-115478571D01*
X99028571Y-115550000D01*
X98957142Y-115621429D01*
X98885714Y-115764286D01*
X98885714Y-115907143D01*
X98957142Y-116121429D01*
X99814285Y-116978571D01*
X98885714Y-116978571D01*
X97957143Y-115478571D02*
X97814286Y-115478571D01*
X97671429Y-115550000D01*
X97600000Y-115621429D01*
X97528571Y-115764286D01*
X97457143Y-116050000D01*
X97457143Y-116407143D01*
X97528571Y-116692857D01*
X97600000Y-116835714D01*
X97671429Y-116907143D01*
X97814286Y-116978571D01*
X97957143Y-116978571D01*
X98100000Y-116907143D01*
X98171429Y-116835714D01*
X98242857Y-116692857D01*
X98314286Y-116407143D01*
X98314286Y-116050000D01*
X98242857Y-115764286D01*
X98171429Y-115621429D01*
X98100000Y-115550000D01*
X97957143Y-115478571D01*
X96028572Y-116978571D02*
X96885715Y-116978571D01*
X96457143Y-116978571D02*
X96457143Y-115478571D01*
X96600000Y-115692857D01*
X96742858Y-115835714D01*
X96885715Y-115907143D01*
X95528572Y-115478571D02*
X94528572Y-115478571D01*
X95171429Y-116978571D01*
D10*
X111823811Y-151652381D02*
X111823811Y-151128571D01*
X111871430Y-151033333D01*
X111966668Y-150985714D01*
X112157145Y-150985714D01*
X112252383Y-151033333D01*
X111823811Y-151604762D02*
X111919049Y-151652381D01*
X112157145Y-151652381D01*
X112252383Y-151604762D01*
X112300002Y-151509524D01*
X112300002Y-151414286D01*
X112252383Y-151319048D01*
X112157145Y-151271429D01*
X111919049Y-151271429D01*
X111823811Y-151223810D01*
X110919049Y-151604762D02*
X111014287Y-151652381D01*
X111204764Y-151652381D01*
X111300002Y-151604762D01*
X111347621Y-151557143D01*
X111395240Y-151461905D01*
X111395240Y-151176190D01*
X111347621Y-151080952D01*
X111300002Y-151033333D01*
X111204764Y-150985714D01*
X111014287Y-150985714D01*
X110919049Y-151033333D01*
X110061906Y-151604762D02*
X110157144Y-151652381D01*
X110347621Y-151652381D01*
X110442859Y-151604762D01*
X110490478Y-151557143D01*
X110538097Y-151461905D01*
X110538097Y-151176190D01*
X110490478Y-151080952D01*
X110442859Y-151033333D01*
X110347621Y-150985714D01*
X110157144Y-150985714D01*
X110061906Y-151033333D01*
X109252382Y-151604762D02*
X109347620Y-151652381D01*
X109538097Y-151652381D01*
X109633335Y-151604762D01*
X109680954Y-151509524D01*
X109680954Y-151128571D01*
X109633335Y-151033333D01*
X109538097Y-150985714D01*
X109347620Y-150985714D01*
X109252382Y-151033333D01*
X109204763Y-151128571D01*
X109204763Y-151223810D01*
X109680954Y-151319048D01*
X108633335Y-151652381D02*
X108728573Y-151604762D01*
X108776192Y-151509524D01*
X108776192Y-150652381D01*
X107823810Y-150985714D02*
X107823810Y-151795238D01*
X107871429Y-151890476D01*
X107919048Y-151938095D01*
X108014287Y-151985714D01*
X108157144Y-151985714D01*
X108252382Y-151938095D01*
X107823810Y-151604762D02*
X107919048Y-151652381D01*
X108109525Y-151652381D01*
X108204763Y-151604762D01*
X108252382Y-151557143D01*
X108300001Y-151461905D01*
X108300001Y-151176190D01*
X108252382Y-151080952D01*
X108204763Y-151033333D01*
X108109525Y-150985714D01*
X107919048Y-150985714D01*
X107823810Y-151033333D01*
X107442858Y-150985714D02*
X107204763Y-151652381D01*
X106966667Y-150985714D02*
X107204763Y-151652381D01*
X107300001Y-151890476D01*
X107347620Y-151938095D01*
X107442858Y-151985714D01*
X106585715Y-151652381D02*
X106585715Y-150985714D01*
X106585715Y-151176190D02*
X106538096Y-151080952D01*
X106490477Y-151033333D01*
X106395239Y-150985714D01*
X106300000Y-150985714D01*
X105823810Y-151652381D02*
X105919048Y-151604762D01*
X105966667Y-151557143D01*
X106014286Y-151461905D01*
X106014286Y-151176190D01*
X105966667Y-151080952D01*
X105919048Y-151033333D01*
X105823810Y-150985714D01*
X105680952Y-150985714D01*
X105585714Y-151033333D01*
X105538095Y-151080952D01*
X105490476Y-151176190D01*
X105490476Y-151461905D01*
X105538095Y-151557143D01*
X105585714Y-151604762D01*
X105680952Y-151652381D01*
X105823810Y-151652381D01*
X105300000Y-151747619D02*
X104538095Y-151747619D01*
X103823809Y-151652381D02*
X104300000Y-151652381D01*
X104300000Y-150652381D01*
X103538095Y-151604762D02*
X103395238Y-151652381D01*
X103157142Y-151652381D01*
X103061904Y-151604762D01*
X103014285Y-151557143D01*
X102966666Y-151461905D01*
X102966666Y-151366667D01*
X103014285Y-151271429D01*
X103061904Y-151223810D01*
X103157142Y-151176190D01*
X103347619Y-151128571D01*
X103442857Y-151080952D01*
X103490476Y-151033333D01*
X103538095Y-150938095D01*
X103538095Y-150842857D01*
X103490476Y-150747619D01*
X103442857Y-150700000D01*
X103347619Y-150652381D01*
X103109523Y-150652381D01*
X102966666Y-150700000D01*
X102538095Y-151652381D02*
X102538095Y-150652381D01*
X102204761Y-151366667D01*
X101871428Y-150652381D01*
X101871428Y-151652381D01*
X101347619Y-151652381D02*
X101157143Y-151652381D01*
X101061904Y-151604762D01*
X101014285Y-151557143D01*
X100919047Y-151414286D01*
X100871428Y-151223810D01*
X100871428Y-150842857D01*
X100919047Y-150747619D01*
X100966666Y-150700000D01*
X101061904Y-150652381D01*
X101252381Y-150652381D01*
X101347619Y-150700000D01*
X101395238Y-150747619D01*
X101442857Y-150842857D01*
X101442857Y-151080952D01*
X101395238Y-151176190D01*
X101347619Y-151223810D01*
X101252381Y-151271429D01*
X101061904Y-151271429D01*
X100966666Y-151223810D01*
X100919047Y-151176190D01*
X100871428Y-151080952D01*
X100442857Y-151652381D02*
X100442857Y-150652381D01*
X100204762Y-150652381D01*
X100061904Y-150700000D01*
X99966666Y-150795238D01*
X99919047Y-150890476D01*
X99871428Y-151080952D01*
X99871428Y-151223810D01*
X99919047Y-151414286D01*
X99966666Y-151509524D01*
X100061904Y-151604762D01*
X100204762Y-151652381D01*
X100442857Y-151652381D01*
X99490476Y-151604762D02*
X99347619Y-151652381D01*
X99109523Y-151652381D01*
X99014285Y-151604762D01*
X98966666Y-151557143D01*
X98919047Y-151461905D01*
X98919047Y-151366667D01*
X98966666Y-151271429D01*
X99014285Y-151223810D01*
X99109523Y-151176190D01*
X99300000Y-151128571D01*
X99395238Y-151080952D01*
X99442857Y-151033333D01*
X99490476Y-150938095D01*
X99490476Y-150842857D01*
X99442857Y-150747619D01*
X99395238Y-150700000D01*
X99300000Y-150652381D01*
X99061904Y-150652381D01*
X98919047Y-150700000D01*
X97966666Y-151652381D02*
X98538095Y-151652381D01*
X98252381Y-151652381D02*
X98252381Y-150652381D01*
X98347619Y-150795238D01*
X98442857Y-150890476D01*
X98538095Y-150938095D01*
X97680952Y-150652381D02*
X97109523Y-150652381D01*
X97395238Y-151652381D02*
X97395238Y-150652381D01*
X96204761Y-151652381D02*
X96538095Y-151176190D01*
X96776190Y-151652381D02*
X96776190Y-150652381D01*
X96395237Y-150652381D01*
X96299999Y-150700000D01*
X96252380Y-150747619D01*
X96204761Y-150842857D01*
X96204761Y-150985714D01*
X96252380Y-151080952D01*
X96299999Y-151128571D01*
X96395237Y-151176190D01*
X96776190Y-151176190D01*
X96014285Y-151747619D02*
X95252380Y-151747619D01*
X95014285Y-151652381D02*
X95014285Y-150985714D01*
X95014285Y-151176190D02*
X94966666Y-151080952D01*
X94919047Y-151033333D01*
X94823809Y-150985714D01*
X94728570Y-150985714D01*
X94014284Y-151604762D02*
X94109522Y-151652381D01*
X94299999Y-151652381D01*
X94395237Y-151604762D01*
X94442856Y-151509524D01*
X94442856Y-151128571D01*
X94395237Y-151033333D01*
X94299999Y-150985714D01*
X94109522Y-150985714D01*
X94014284Y-151033333D01*
X93966665Y-151128571D01*
X93966665Y-151223810D01*
X94442856Y-151319048D01*
X93633332Y-150985714D02*
X93395237Y-151652381D01*
X93157141Y-150985714D01*
X92585713Y-150652381D02*
X92490474Y-150652381D01*
X92395236Y-150700000D01*
X92347617Y-150747619D01*
X92299998Y-150842857D01*
X92252379Y-151033333D01*
X92252379Y-151271429D01*
X92299998Y-151461905D01*
X92347617Y-151557143D01*
X92395236Y-151604762D01*
X92490474Y-151652381D01*
X92585713Y-151652381D01*
X92680951Y-151604762D01*
X92728570Y-151557143D01*
X92776189Y-151461905D01*
X92823808Y-151271429D01*
X92823808Y-151033333D01*
X92776189Y-150842857D01*
X92728570Y-150747619D01*
X92680951Y-150700000D01*
X92585713Y-150652381D01*
X91299998Y-151652381D02*
X91871427Y-151652381D01*
X91585713Y-151652381D02*
X91585713Y-150652381D01*
X91680951Y-150795238D01*
X91776189Y-150890476D01*
X91871427Y-150938095D01*
X178723811Y-151852381D02*
X178723811Y-151328571D01*
X178771430Y-151233333D01*
X178866668Y-151185714D01*
X179057145Y-151185714D01*
X179152383Y-151233333D01*
X178723811Y-151804762D02*
X178819049Y-151852381D01*
X179057145Y-151852381D01*
X179152383Y-151804762D01*
X179200002Y-151709524D01*
X179200002Y-151614286D01*
X179152383Y-151519048D01*
X179057145Y-151471429D01*
X178819049Y-151471429D01*
X178723811Y-151423810D01*
X177819049Y-151804762D02*
X177914287Y-151852381D01*
X178104764Y-151852381D01*
X178200002Y-151804762D01*
X178247621Y-151757143D01*
X178295240Y-151661905D01*
X178295240Y-151376190D01*
X178247621Y-151280952D01*
X178200002Y-151233333D01*
X178104764Y-151185714D01*
X177914287Y-151185714D01*
X177819049Y-151233333D01*
X176961906Y-151804762D02*
X177057144Y-151852381D01*
X177247621Y-151852381D01*
X177342859Y-151804762D01*
X177390478Y-151757143D01*
X177438097Y-151661905D01*
X177438097Y-151376190D01*
X177390478Y-151280952D01*
X177342859Y-151233333D01*
X177247621Y-151185714D01*
X177057144Y-151185714D01*
X176961906Y-151233333D01*
X176152382Y-151804762D02*
X176247620Y-151852381D01*
X176438097Y-151852381D01*
X176533335Y-151804762D01*
X176580954Y-151709524D01*
X176580954Y-151328571D01*
X176533335Y-151233333D01*
X176438097Y-151185714D01*
X176247620Y-151185714D01*
X176152382Y-151233333D01*
X176104763Y-151328571D01*
X176104763Y-151423810D01*
X176580954Y-151519048D01*
X175533335Y-151852381D02*
X175628573Y-151804762D01*
X175676192Y-151709524D01*
X175676192Y-150852381D01*
X174723810Y-151185714D02*
X174723810Y-151995238D01*
X174771429Y-152090476D01*
X174819048Y-152138095D01*
X174914287Y-152185714D01*
X175057144Y-152185714D01*
X175152382Y-152138095D01*
X174723810Y-151804762D02*
X174819048Y-151852381D01*
X175009525Y-151852381D01*
X175104763Y-151804762D01*
X175152382Y-151757143D01*
X175200001Y-151661905D01*
X175200001Y-151376190D01*
X175152382Y-151280952D01*
X175104763Y-151233333D01*
X175009525Y-151185714D01*
X174819048Y-151185714D01*
X174723810Y-151233333D01*
X174342858Y-151185714D02*
X174104763Y-151852381D01*
X173866667Y-151185714D02*
X174104763Y-151852381D01*
X174200001Y-152090476D01*
X174247620Y-152138095D01*
X174342858Y-152185714D01*
X173485715Y-151852381D02*
X173485715Y-151185714D01*
X173485715Y-151376190D02*
X173438096Y-151280952D01*
X173390477Y-151233333D01*
X173295239Y-151185714D01*
X173200000Y-151185714D01*
X172723810Y-151852381D02*
X172819048Y-151804762D01*
X172866667Y-151757143D01*
X172914286Y-151661905D01*
X172914286Y-151376190D01*
X172866667Y-151280952D01*
X172819048Y-151233333D01*
X172723810Y-151185714D01*
X172580952Y-151185714D01*
X172485714Y-151233333D01*
X172438095Y-151280952D01*
X172390476Y-151376190D01*
X172390476Y-151661905D01*
X172438095Y-151757143D01*
X172485714Y-151804762D01*
X172580952Y-151852381D01*
X172723810Y-151852381D01*
X172200000Y-151947619D02*
X171438095Y-151947619D01*
X170723809Y-151852381D02*
X171200000Y-151852381D01*
X171200000Y-150852381D01*
X170438095Y-151804762D02*
X170295238Y-151852381D01*
X170057142Y-151852381D01*
X169961904Y-151804762D01*
X169914285Y-151757143D01*
X169866666Y-151661905D01*
X169866666Y-151566667D01*
X169914285Y-151471429D01*
X169961904Y-151423810D01*
X170057142Y-151376190D01*
X170247619Y-151328571D01*
X170342857Y-151280952D01*
X170390476Y-151233333D01*
X170438095Y-151138095D01*
X170438095Y-151042857D01*
X170390476Y-150947619D01*
X170342857Y-150900000D01*
X170247619Y-150852381D01*
X170009523Y-150852381D01*
X169866666Y-150900000D01*
X169438095Y-151852381D02*
X169438095Y-150852381D01*
X169104761Y-151566667D01*
X168771428Y-150852381D01*
X168771428Y-151852381D01*
X168247619Y-151852381D02*
X168057143Y-151852381D01*
X167961904Y-151804762D01*
X167914285Y-151757143D01*
X167819047Y-151614286D01*
X167771428Y-151423810D01*
X167771428Y-151042857D01*
X167819047Y-150947619D01*
X167866666Y-150900000D01*
X167961904Y-150852381D01*
X168152381Y-150852381D01*
X168247619Y-150900000D01*
X168295238Y-150947619D01*
X168342857Y-151042857D01*
X168342857Y-151280952D01*
X168295238Y-151376190D01*
X168247619Y-151423810D01*
X168152381Y-151471429D01*
X167961904Y-151471429D01*
X167866666Y-151423810D01*
X167819047Y-151376190D01*
X167771428Y-151280952D01*
X167342857Y-151852381D02*
X167342857Y-150852381D01*
X167104762Y-150852381D01*
X166961904Y-150900000D01*
X166866666Y-150995238D01*
X166819047Y-151090476D01*
X166771428Y-151280952D01*
X166771428Y-151423810D01*
X166819047Y-151614286D01*
X166866666Y-151709524D01*
X166961904Y-151804762D01*
X167104762Y-151852381D01*
X167342857Y-151852381D01*
X166390476Y-151804762D02*
X166247619Y-151852381D01*
X166009523Y-151852381D01*
X165914285Y-151804762D01*
X165866666Y-151757143D01*
X165819047Y-151661905D01*
X165819047Y-151566667D01*
X165866666Y-151471429D01*
X165914285Y-151423810D01*
X166009523Y-151376190D01*
X166200000Y-151328571D01*
X166295238Y-151280952D01*
X166342857Y-151233333D01*
X166390476Y-151138095D01*
X166390476Y-151042857D01*
X166342857Y-150947619D01*
X166295238Y-150900000D01*
X166200000Y-150852381D01*
X165961904Y-150852381D01*
X165819047Y-150900000D01*
X164866666Y-151852381D02*
X165438095Y-151852381D01*
X165152381Y-151852381D02*
X165152381Y-150852381D01*
X165247619Y-150995238D01*
X165342857Y-151090476D01*
X165438095Y-151138095D01*
X164580952Y-150852381D02*
X164009523Y-150852381D01*
X164295238Y-151852381D02*
X164295238Y-150852381D01*
X163104761Y-151852381D02*
X163438095Y-151376190D01*
X163676190Y-151852381D02*
X163676190Y-150852381D01*
X163295237Y-150852381D01*
X163199999Y-150900000D01*
X163152380Y-150947619D01*
X163104761Y-151042857D01*
X163104761Y-151185714D01*
X163152380Y-151280952D01*
X163199999Y-151328571D01*
X163295237Y-151376190D01*
X163676190Y-151376190D01*
X162914285Y-151947619D02*
X162152380Y-151947619D01*
X161914285Y-151852381D02*
X161914285Y-151185714D01*
X161914285Y-151376190D02*
X161866666Y-151280952D01*
X161819047Y-151233333D01*
X161723809Y-151185714D01*
X161628570Y-151185714D01*
X160914284Y-151804762D02*
X161009522Y-151852381D01*
X161199999Y-151852381D01*
X161295237Y-151804762D01*
X161342856Y-151709524D01*
X161342856Y-151328571D01*
X161295237Y-151233333D01*
X161199999Y-151185714D01*
X161009522Y-151185714D01*
X160914284Y-151233333D01*
X160866665Y-151328571D01*
X160866665Y-151423810D01*
X161342856Y-151519048D01*
X160533332Y-151185714D02*
X160295237Y-151852381D01*
X160057141Y-151185714D01*
X159485713Y-150852381D02*
X159390474Y-150852381D01*
X159295236Y-150900000D01*
X159247617Y-150947619D01*
X159199998Y-151042857D01*
X159152379Y-151233333D01*
X159152379Y-151471429D01*
X159199998Y-151661905D01*
X159247617Y-151757143D01*
X159295236Y-151804762D01*
X159390474Y-151852381D01*
X159485713Y-151852381D01*
X159580951Y-151804762D01*
X159628570Y-151757143D01*
X159676189Y-151661905D01*
X159723808Y-151471429D01*
X159723808Y-151233333D01*
X159676189Y-151042857D01*
X159628570Y-150947619D01*
X159580951Y-150900000D01*
X159485713Y-150852381D01*
X158199998Y-151852381D02*
X158771427Y-151852381D01*
X158485713Y-151852381D02*
X158485713Y-150852381D01*
X158580951Y-150995238D01*
X158676189Y-151090476D01*
X158771427Y-151138095D01*
X143938096Y-138602381D02*
X143938096Y-138078571D01*
X143985715Y-137983333D01*
X144080953Y-137935714D01*
X144271430Y-137935714D01*
X144366668Y-137983333D01*
X143938096Y-138554762D02*
X144033334Y-138602381D01*
X144271430Y-138602381D01*
X144366668Y-138554762D01*
X144414287Y-138459524D01*
X144414287Y-138364286D01*
X144366668Y-138269048D01*
X144271430Y-138221429D01*
X144033334Y-138221429D01*
X143938096Y-138173810D01*
X143033334Y-138554762D02*
X143128572Y-138602381D01*
X143319049Y-138602381D01*
X143414287Y-138554762D01*
X143461906Y-138507143D01*
X143509525Y-138411905D01*
X143509525Y-138126190D01*
X143461906Y-138030952D01*
X143414287Y-137983333D01*
X143319049Y-137935714D01*
X143128572Y-137935714D01*
X143033334Y-137983333D01*
X142176191Y-138554762D02*
X142271429Y-138602381D01*
X142461906Y-138602381D01*
X142557144Y-138554762D01*
X142604763Y-138507143D01*
X142652382Y-138411905D01*
X142652382Y-138126190D01*
X142604763Y-138030952D01*
X142557144Y-137983333D01*
X142461906Y-137935714D01*
X142271429Y-137935714D01*
X142176191Y-137983333D01*
X141366667Y-138554762D02*
X141461905Y-138602381D01*
X141652382Y-138602381D01*
X141747620Y-138554762D01*
X141795239Y-138459524D01*
X141795239Y-138078571D01*
X141747620Y-137983333D01*
X141652382Y-137935714D01*
X141461905Y-137935714D01*
X141366667Y-137983333D01*
X141319048Y-138078571D01*
X141319048Y-138173810D01*
X141795239Y-138269048D01*
X140747620Y-138602381D02*
X140842858Y-138554762D01*
X140890477Y-138459524D01*
X140890477Y-137602381D01*
X139938095Y-137935714D02*
X139938095Y-138745238D01*
X139985714Y-138840476D01*
X140033333Y-138888095D01*
X140128572Y-138935714D01*
X140271429Y-138935714D01*
X140366667Y-138888095D01*
X139938095Y-138554762D02*
X140033333Y-138602381D01*
X140223810Y-138602381D01*
X140319048Y-138554762D01*
X140366667Y-138507143D01*
X140414286Y-138411905D01*
X140414286Y-138126190D01*
X140366667Y-138030952D01*
X140319048Y-137983333D01*
X140223810Y-137935714D01*
X140033333Y-137935714D01*
X139938095Y-137983333D01*
X139557143Y-137935714D02*
X139319048Y-138602381D01*
X139080952Y-137935714D02*
X139319048Y-138602381D01*
X139414286Y-138840476D01*
X139461905Y-138888095D01*
X139557143Y-138935714D01*
X138700000Y-138602381D02*
X138700000Y-137935714D01*
X138700000Y-138126190D02*
X138652381Y-138030952D01*
X138604762Y-137983333D01*
X138509524Y-137935714D01*
X138414285Y-137935714D01*
X137938095Y-138602381D02*
X138033333Y-138554762D01*
X138080952Y-138507143D01*
X138128571Y-138411905D01*
X138128571Y-138126190D01*
X138080952Y-138030952D01*
X138033333Y-137983333D01*
X137938095Y-137935714D01*
X137795237Y-137935714D01*
X137699999Y-137983333D01*
X137652380Y-138030952D01*
X137604761Y-138126190D01*
X137604761Y-138411905D01*
X137652380Y-138507143D01*
X137699999Y-138554762D01*
X137795237Y-138602381D01*
X137938095Y-138602381D01*
X137414285Y-138697619D02*
X136652380Y-138697619D01*
X136414285Y-138602381D02*
X136414285Y-137935714D01*
X136414285Y-138030952D02*
X136366666Y-137983333D01*
X136271428Y-137935714D01*
X136128570Y-137935714D01*
X136033332Y-137983333D01*
X135985713Y-138078571D01*
X135985713Y-138602381D01*
X135985713Y-138078571D02*
X135938094Y-137983333D01*
X135842856Y-137935714D01*
X135699999Y-137935714D01*
X135604761Y-137983333D01*
X135557142Y-138078571D01*
X135557142Y-138602381D01*
X135080952Y-137935714D02*
X135080952Y-138935714D01*
X135080952Y-137983333D02*
X134985714Y-137935714D01*
X134795237Y-137935714D01*
X134699999Y-137983333D01*
X134652380Y-138030952D01*
X134604761Y-138126190D01*
X134604761Y-138411905D01*
X134652380Y-138507143D01*
X134699999Y-138554762D01*
X134795237Y-138602381D01*
X134985714Y-138602381D01*
X135080952Y-138554762D01*
X133747618Y-137935714D02*
X133747618Y-138602381D01*
X134176190Y-137935714D02*
X134176190Y-138459524D01*
X134128571Y-138554762D01*
X134033333Y-138602381D01*
X133890475Y-138602381D01*
X133795237Y-138554762D01*
X133747618Y-138507143D01*
X132842856Y-137602381D02*
X133033333Y-137602381D01*
X133128571Y-137650000D01*
X133176190Y-137697619D01*
X133271428Y-137840476D01*
X133319047Y-138030952D01*
X133319047Y-138411905D01*
X133271428Y-138507143D01*
X133223809Y-138554762D01*
X133128571Y-138602381D01*
X132938094Y-138602381D01*
X132842856Y-138554762D01*
X132795237Y-138507143D01*
X132747618Y-138411905D01*
X132747618Y-138173810D01*
X132795237Y-138078571D01*
X132842856Y-138030952D01*
X132938094Y-137983333D01*
X133128571Y-137983333D01*
X133223809Y-138030952D01*
X133271428Y-138078571D01*
X133319047Y-138173810D01*
X132128571Y-137602381D02*
X132033332Y-137602381D01*
X131938094Y-137650000D01*
X131890475Y-137697619D01*
X131842856Y-137792857D01*
X131795237Y-137983333D01*
X131795237Y-138221429D01*
X131842856Y-138411905D01*
X131890475Y-138507143D01*
X131938094Y-138554762D01*
X132033332Y-138602381D01*
X132128571Y-138602381D01*
X132223809Y-138554762D01*
X132271428Y-138507143D01*
X132319047Y-138411905D01*
X132366666Y-138221429D01*
X132366666Y-137983333D01*
X132319047Y-137792857D01*
X132271428Y-137697619D01*
X132223809Y-137650000D01*
X132128571Y-137602381D01*
X130890475Y-137602381D02*
X131366666Y-137602381D01*
X131414285Y-138078571D01*
X131366666Y-138030952D01*
X131271428Y-137983333D01*
X131033332Y-137983333D01*
X130938094Y-138030952D01*
X130890475Y-138078571D01*
X130842856Y-138173810D01*
X130842856Y-138411905D01*
X130890475Y-138507143D01*
X130938094Y-138554762D01*
X131033332Y-138602381D01*
X131271428Y-138602381D01*
X131366666Y-138554762D01*
X131414285Y-138507143D01*
X130223809Y-137602381D02*
X130128570Y-137602381D01*
X130033332Y-137650000D01*
X129985713Y-137697619D01*
X129938094Y-137792857D01*
X129890475Y-137983333D01*
X129890475Y-138221429D01*
X129938094Y-138411905D01*
X129985713Y-138507143D01*
X130033332Y-138554762D01*
X130128570Y-138602381D01*
X130223809Y-138602381D01*
X130319047Y-138554762D01*
X130366666Y-138507143D01*
X130414285Y-138411905D01*
X130461904Y-138221429D01*
X130461904Y-137983333D01*
X130414285Y-137792857D01*
X130366666Y-137697619D01*
X130319047Y-137650000D01*
X130223809Y-137602381D01*
X129699999Y-138697619D02*
X128938094Y-138697619D01*
X128699999Y-138602381D02*
X128699999Y-137935714D01*
X128699999Y-138126190D02*
X128652380Y-138030952D01*
X128604761Y-137983333D01*
X128509523Y-137935714D01*
X128414284Y-137935714D01*
X127699998Y-138554762D02*
X127795236Y-138602381D01*
X127985713Y-138602381D01*
X128080951Y-138554762D01*
X128128570Y-138459524D01*
X128128570Y-138078571D01*
X128080951Y-137983333D01*
X127985713Y-137935714D01*
X127795236Y-137935714D01*
X127699998Y-137983333D01*
X127652379Y-138078571D01*
X127652379Y-138173810D01*
X128128570Y-138269048D01*
X127319046Y-137935714D02*
X127080951Y-138602381D01*
X126842855Y-137935714D01*
X126271427Y-137602381D02*
X126176188Y-137602381D01*
X126080950Y-137650000D01*
X126033331Y-137697619D01*
X125985712Y-137792857D01*
X125938093Y-137983333D01*
X125938093Y-138221429D01*
X125985712Y-138411905D01*
X126033331Y-138507143D01*
X126080950Y-138554762D01*
X126176188Y-138602381D01*
X126271427Y-138602381D01*
X126366665Y-138554762D01*
X126414284Y-138507143D01*
X126461903Y-138411905D01*
X126509522Y-138221429D01*
X126509522Y-137983333D01*
X126461903Y-137792857D01*
X126414284Y-137697619D01*
X126366665Y-137650000D01*
X126271427Y-137602381D01*
X124985712Y-138602381D02*
X125557141Y-138602381D01*
X125271427Y-138602381D02*
X125271427Y-137602381D01*
X125366665Y-137745238D01*
X125461903Y-137840476D01*
X125557141Y-137888095D01*
M02*
