M48
;DRILL file {Pcbnew (2013-08-24 BZR 4298)-stable} date Wed 30 Oct 2013 07:33:37 PM PDT
;FORMAT={-:-/ absolute / metric / decimal}
FMAT,2
METRIC,TZ
T1C0.500
T2C0.813
T3C1.000
T4C1.699
%
G90
G05
M71
T1
X135.26Y-90.94
X137.77Y-127.18
X140.075Y-100.17
X140.075Y-101.17
X140.075Y-102.17
X140.075Y-103.17
X140.075Y-104.17
X140.32Y-126.87
X141.075Y-100.17
X141.075Y-101.17
X141.075Y-102.17
X141.075Y-103.17
X141.075Y-104.17
X142.075Y-100.17
X142.075Y-101.17
X142.075Y-102.17
X142.075Y-103.17
X142.075Y-104.17
X142.09Y-106.27
X142.09Y-107.27
X142.09Y-108.27
X142.09Y-109.27
X142.09Y-110.27
X143.075Y-100.17
X143.075Y-101.17
X143.075Y-102.17
X143.075Y-103.17
X143.075Y-104.17
X143.09Y-106.27
X143.09Y-107.27
X143.09Y-108.27
X143.09Y-109.27
X143.09Y-110.27
X144.075Y-100.17
X144.075Y-101.17
X144.075Y-102.17
X144.075Y-103.17
X144.075Y-104.17
X144.09Y-106.27
X144.09Y-107.27
X144.09Y-108.27
X144.09Y-109.27
X144.09Y-110.27
X144.09Y-118.62
X144.28Y-129.81
X145.075Y-100.17
X145.075Y-101.17
X145.075Y-102.17
X145.075Y-103.17
X145.075Y-104.17
X145.09Y-106.27
X145.09Y-107.27
X145.09Y-108.27
X145.09Y-109.27
X145.09Y-110.27
X145.46Y-126.46
X146.09Y-106.27
X146.09Y-107.27
X146.09Y-108.27
X146.09Y-109.27
X146.09Y-110.27
X147.39Y-106.27
X147.39Y-107.27
X147.39Y-108.27
X147.39Y-109.27
X147.39Y-110.27
X148.03Y-129.92
X148.39Y-106.27
X148.39Y-107.27
X148.39Y-108.27
X148.39Y-109.27
X148.39Y-110.27
X148.405Y-100.17
X148.405Y-101.17
X148.405Y-102.17
X148.405Y-103.17
X148.405Y-104.17
X149.39Y-106.27
X149.39Y-107.27
X149.39Y-108.27
X149.39Y-109.27
X149.39Y-110.27
X149.405Y-100.17
X149.405Y-101.17
X149.405Y-102.17
X149.405Y-103.17
X149.405Y-104.17
X150.39Y-106.27
X150.39Y-107.27
X150.39Y-108.27
X150.39Y-109.27
X150.39Y-110.27
X150.405Y-100.17
X150.405Y-101.17
X150.405Y-102.17
X150.405Y-103.17
X150.405Y-104.17
X150.65Y-126.72
X151.39Y-106.27
X151.39Y-107.27
X151.39Y-108.27
X151.39Y-109.27
X151.39Y-110.27
X151.405Y-100.17
X151.405Y-101.17
X151.405Y-102.17
X151.405Y-103.17
X151.405Y-104.17
X152.405Y-100.17
X152.405Y-101.17
X152.405Y-102.17
X152.405Y-103.17
X152.405Y-104.17
X153.405Y-100.17
X153.405Y-101.17
X153.405Y-102.17
X153.405Y-103.17
X153.405Y-104.17
X157.54Y-120.13
X158.15Y-106.95
X158.76Y-116.78
X163.23Y-130.31
X163.65Y-127.23
X164.85Y-80.39
X166.69Y-105.79
X168.53Y-104.98
T2
X161.42Y-95.36
X161.42Y-97.9
X161.42Y-100.44
X161.42Y-102.98
X161.42Y-105.52
X161.42Y-108.06
X161.42Y-110.6
X161.42Y-113.14
X161.42Y-115.68
X163.96Y-95.36
X163.96Y-97.9
X163.96Y-100.44
X163.96Y-102.98
X163.96Y-105.52
X163.96Y-108.06
X163.96Y-110.6
X163.96Y-113.14
X163.96Y-115.68
T3
X150.24Y-77.67
X153.74Y-77.67
X162.39Y-83.75
X162.39Y-87.25
T4
X138.18Y-76.76
X138.18Y-81.261
T0
M30
