<?xml version="1.0" standalone="no"?>
 <!DOCTYPE svg PUBLIC "-//W3C//DTD SVG 1.1//EN" 
 "http://www.w3.org/Graphics/SVG/1.1/DTD/svg11.dtd"> 
<svg xmlns="http://www.w3.org/2000/svg" version="1.1" 
    width="27.94cm" height="21.59cm" viewBox="0 0 110000 85000 ">
<title>SVG Picture created as VoltageQuadrupler-B_Cu.svg date 2013/09/07 13:14:13 </title>
  <desc>Picture generated by PCBNEW </desc>
<g style="fill:#000000; fill-opacity:1;stroke:#000000; stroke-opacity:1;
stroke-linecap:round; stroke-linejoin:round; "
 transform="translate(0 0) scale(1 1)">
</g>
<g style="fill:#000000; fill-opacity:0.0; 
stroke:#000000; stroke-width:19.685; stroke-opacity:1; 
stroke-linecap:round; stroke-linejoin:round;">
<rect x="62755.9" y="67677.2" width="42519.7" height="12598.4" rx="0" />
<rect x="3937.01" y="3937.01" width="102126" height="77126" rx="0" />
<rect x="4724.41" y="4724.41" width="100551" height="75551.2" rx="0" />
<path d="M23622 4724
L23622 3937
" />
<path d="M43307 4724
L43307 3937
" />
<path d="M62992 4724
L62992 3937
" />
<path d="M82677 4724
L82677 3937
" />
<path d="M102362 4724
L102362 3937
" />
</g>
<g style="fill:#000000; fill-opacity:0.0; 
stroke:#000000; stroke-width:59.0551; stroke-opacity:1; 
stroke-linecap:round; stroke-linejoin:round;">
<path d="M14169 4562
L13877 4562
" />
<path d="M14023 4562
L14023 4050
L13974 4123
L13925 4172
L13877 4196
" />
<path d="M33562 4099
L33586 4074
L33635 4050
L33757 4050
L33805 4074
L33830 4099
L33854 4147
L33854 4196
L33830 4269
L33537 4562
L33854 4562
" />
<path d="M53222 4050
L53539 4050
L53368 4245
L53442 4245
L53490 4269
L53515 4294
L53539 4342
L53539 4464
L53515 4513
L53490 4537
L53442 4562
L53295 4562
L53247 4537
L53222 4513
" />
<path d="M73175 4221
L73175 4562
" />
<path d="M73053 4026
L72932 4391
L73248 4391
" />
<path d="M92885 4050
L92641 4050
L92617 4294
L92641 4269
L92690 4245
L92812 4245
L92860 4269
L92885 4294
L92909 4342
L92909 4464
L92885 4513
L92860 4537
L92812 4562
L92690 4562
L92641 4537
L92617 4513
" />
<path d="M23622 80275
L23622 81062
" />
<path d="M43307 80275
L43307 81062
" />
<path d="M62992 80275
L62992 81062
" />
<path d="M82677 80275
L82677 81062
" />
<path d="M102362 80275
L102362 81062
" />
<path d="M14169 80900
L13877 80900
" />
<path d="M14023 80900
L14023 80389
L13974 80462
L13925 80510
L13877 80535
" />
<path d="M33562 80437
L33586 80413
L33635 80389
L33757 80389
L33805 80413
L33830 80437
L33854 80486
L33854 80535
L33830 80608
L33537 80900
L33854 80900
" />
<path d="M53222 80389
L53539 80389
L53368 80583
L53442 80583
L53490 80608
L53515 80632
L53539 80681
L53539 80803
L53515 80852
L53490 80876
L53442 80900
L53295 80900
L53247 80876
L53222 80852
" />
<path d="M73175 80559
L73175 80900
" />
<path d="M73053 80364
L72932 80730
L73248 80730
" />
<path d="M92885 80389
L92641 80389
L92617 80632
L92641 80608
L92690 80583
L92812 80583
L92860 80608
L92885 80632
L92909 80681
L92909 80803
L92885 80852
L92860 80876
L92812 80900
L92690 80900
L92641 80876
L92617 80852
" />
<path d="M3937 23622
L4724 23622
" />
<path d="M3937 43307
L4724 43307
" />
<path d="M3937 62992
L4724 62992
" />
<path d="M4208 13864
L4452 13864
" />
<path d="M4160 14011
L4330 13499
L4501 14011
" />
<path d="M4367 33428
L4440 33452
L4464 33476
L4489 33525
L4489 33598
L4464 33647
L4440 33671
L4391 33696
L4196 33696
L4196 33184
L4367 33184
L4416 33208
L4440 33233
L4464 33281
L4464 33330
L4440 33379
L4416 33403
L4367 33428
L4196 33428
" />
<path d="M4489 53332
L4464 53356
L4391 53381
L4342 53381
L4269 53356
L4221 53308
L4196 53259
L4172 53161
L4172 53088
L4196 52991
L4221 52942
L4269 52893
L4342 52869
L4391 52869
L4464 52893
L4489 52918
" />
<path d="M4196 73066
L4196 72554
L4318 72554
L4391 72578
L4440 72627
L4464 72676
L4489 72773
L4489 72846
L4464 72944
L4440 72993
L4391 73041
L4318 73066
L4196 73066
" />
<path d="M106062 23622
L105275 23622
" />
<path d="M106062 43307
L105275 43307
" />
<path d="M106062 62992
L105275 62992
" />
<path d="M105547 13864
L105791 13864
" />
<path d="M105498 14011
L105669 13499
L105839 14011
" />
<path d="M105705 33428
L105778 33452
L105803 33476
L105827 33525
L105827 33598
L105803 33647
L105778 33671
L105730 33696
L105535 33696
L105535 33184
L105705 33184
L105754 33208
L105778 33233
L105803 33281
L105803 33330
L105778 33379
L105754 33403
L105705 33428
L105535 33428
" />
<path d="M105827 53332
L105803 53356
L105730 53381
L105681 53381
L105608 53356
L105559 53308
L105535 53259
L105510 53161
L105510 53088
L105535 52991
L105559 52942
L105608 52893
L105681 52869
L105730 52869
L105803 52893
L105827 52918
" />
<path d="M105535 73066
L105535 72554
L105657 72554
L105730 72578
L105778 72627
L105803 72676
L105827 72773
L105827 72846
L105803 72944
L105778 72993
L105730 73041
L105657 73066
L105535 73066
" />
<path d="M71951 78613
L71951 78023
L72092 78023
L72176 78051
L72232 78107
L72260 78163
L72289 78276
L72289 78360
L72260 78473
L72232 78529
L72176 78585
L72092 78613
L71951 78613
" />
<path d="M72795 78613
L72795 78304
L72767 78248
L72710 78219
L72598 78219
L72542 78248
" />
<path d="M72795 78585
L72739 78613
L72598 78613
L72542 78585
L72514 78529
L72514 78473
L72542 78416
L72598 78388
L72739 78388
L72795 78360
" />
<path d="M72992 78219
L73217 78219
" />
<path d="M73076 78023
L73076 78529
L73104 78585
L73160 78613
L73217 78613
" />
<path d="M73638 78585
L73582 78613
L73470 78613
L73413 78585
L73385 78529
L73385 78304
L73413 78248
L73470 78219
L73582 78219
L73638 78248
L73667 78304
L73667 78360
L73385 78416
" />
<path d="M73920 78557
L73948 78585
L73920 78613
L73892 78585
L73920 78557
L73920 78613
" />
<path d="M73920 78248
L73948 78276
L73920 78304
L73892 78276
L73920 78248
L73920 78304
" />
<path d="M62755 78897
L105275 78897
" />
<path d="M63290 79715
L63290 79125
" />
<path d="M63627 79715
L63374 79378
" />
<path d="M63627 79125
L63290 79462
" />
<path d="M63880 79715
L63880 79322
" />
<path d="M63880 79125
L63852 79153
L63880 79181
L63908 79153
L63880 79125
L63880 79181
" />
<path d="M64499 79659
L64471 79687
L64386 79715
L64330 79715
L64246 79687
L64190 79631
L64161 79575
L64133 79462
L64133 79378
L64161 79266
L64190 79209
L64246 79153
L64330 79125
L64386 79125
L64471 79153
L64499 79181
" />
<path d="M65005 79715
L65005 79406
L64977 79350
L64921 79322
L64808 79322
L64752 79350
" />
<path d="M65005 79687
L64949 79715
L64808 79715
L64752 79687
L64724 79631
L64724 79575
L64752 79519
L64808 79491
L64949 79491
L65005 79462
" />
<path d="M65539 79715
L65539 79125
" />
<path d="M65539 79687
L65483 79715
L65371 79715
L65314 79687
L65286 79659
L65258 79603
L65258 79434
L65286 79378
L65314 79350
L65371 79322
L65483 79322
L65539 79350
" />
<path d="M66271 79406
L66467 79406
" />
<path d="M66552 79715
L66271 79715
L66271 79125
L66552 79125
" />
<path d="M66805 79659
L66833 79687
L66805 79715
L66777 79687
L66805 79659
L66805 79715
" />
<path d="M67086 79715
L67086 79125
L67227 79125
L67311 79153
L67367 79209
L67395 79266
L67424 79378
L67424 79462
L67395 79575
L67367 79631
L67311 79687
L67227 79715
L67086 79715
" />
<path d="M67677 79659
L67705 79687
L67677 79715
L67649 79687
L67677 79659
L67677 79715
" />
<path d="M67930 79547
L68211 79547
" />
<path d="M67874 79715
L68070 79125
L68267 79715
" />
<path d="M68464 79659
L68492 79687
L68464 79715
L68436 79687
L68464 79659
L68464 79715
" />
<path d="M69645 79322
L69645 79912
" />
<path d="M69645 79350
L69701 79322
L69814 79322
L69870 79350
L69898 79378
L69926 79434
L69926 79603
L69898 79659
L69870 79687
L69814 79715
L69701 79715
L69645 79687
" />
<path d="M70433 79687
L70376 79715
L70264 79715
L70208 79687
L70179 79659
L70151 79603
L70151 79434
L70179 79378
L70208 79350
L70264 79322
L70376 79322
L70433 79350
" />
<path d="M70686 79715
L70686 79125
" />
<path d="M70686 79350
L70742 79322
L70854 79322
L70911 79350
L70939 79378
L70967 79434
L70967 79603
L70939 79659
L70911 79687
L70854 79715
L70742 79715
L70686 79687
" />
<path d="M71220 79322
L71220 79715
" />
<path d="M71220 79378
L71248 79350
L71304 79322
L71389 79322
L71445 79350
L71473 79406
L71473 79715
" />
<path d="M71979 79687
L71923 79715
L71811 79715
L71754 79687
L71726 79631
L71726 79406
L71754 79350
L71811 79322
L71923 79322
L71979 79350
L72007 79406
L72007 79462
L71726 79519
" />
<path d="M72204 79322
L72317 79715
L72429 79434
L72542 79715
L72654 79322
" />
<path d="M73498 79940
L73470 79912
L73413 79828
L73385 79772
L73357 79687
L73329 79547
L73329 79434
L73357 79294
L73385 79209
L73413 79153
L73470 79069
L73498 79041
" />
<path d="M73695 79181
L73723 79153
L73779 79125
L73920 79125
L73976 79153
L74004 79181
L74032 79237
L74032 79294
L74004 79378
L73667 79715
L74032 79715
" />
<path d="M74398 79125
L74454 79125
L74510 79153
L74538 79181
L74566 79237
L74595 79350
L74595 79491
L74566 79603
L74538 79659
L74510 79687
L74454 79715
L74398 79715
L74341 79687
L74313 79659
L74285 79603
L74257 79491
L74257 79350
L74285 79237
L74313 79181
L74341 79153
L74398 79125
" />
<path d="M75157 79715
L74820 79715
" />
<path d="M74988 79715
L74988 79125
L74932 79209
L74876 79266
L74820 79294
" />
<path d="M75354 79125
L75719 79125
L75523 79350
L75607 79350
L75663 79378
L75691 79406
L75719 79462
L75719 79603
L75691 79659
L75663 79687
L75607 79715
L75438 79715
L75382 79687
L75354 79659
" />
<path d="M75973 79491
L76422 79491
" />
<path d="M76816 79125
L76872 79125
L76929 79153
L76957 79181
L76985 79237
L77013 79350
L77013 79491
L76985 79603
L76957 79659
L76929 79687
L76872 79715
L76816 79715
L76760 79687
L76732 79659
L76704 79603
L76676 79491
L76676 79350
L76704 79237
L76732 79181
L76760 79153
L76816 79125
" />
<path d="M77350 79378
L77294 79350
L77266 79322
L77238 79266
L77238 79237
L77266 79181
L77294 79153
L77350 79125
L77463 79125
L77519 79153
L77547 79181
L77575 79237
L77575 79266
L77547 79322
L77519 79350
L77463 79378
L77350 79378
L77294 79406
L77266 79434
L77238 79491
L77238 79603
L77266 79659
L77294 79687
L77350 79715
L77463 79715
L77519 79687
L77547 79659
L77575 79603
L77575 79491
L77547 79434
L77519 79406
L77463 79378
" />
<path d="M77829 79491
L78278 79491
" />
<path d="M78532 79181
L78560 79153
L78616 79125
L78757 79125
L78813 79153
L78841 79181
L78869 79237
L78869 79294
L78841 79378
L78503 79715
L78869 79715
" />
<path d="M79375 79322
L79375 79715
" />
<path d="M79235 79097
L79094 79519
L79460 79519
" />
<path d="M80331 79406
L80416 79434
L80444 79462
L80472 79519
L80472 79603
L80444 79659
L80416 79687
L80359 79715
L80134 79715
L80134 79125
L80331 79125
L80388 79153
L80416 79181
L80444 79237
L80444 79294
L80416 79350
L80388 79378
L80331 79406
L80134 79406
" />
<path d="M80669 79125
L81062 79125
L80669 79715
L81062 79715
" />
<path d="M81625 79715
L81428 79434
" />
<path d="M81287 79715
L81287 79125
L81512 79125
L81569 79153
L81597 79181
L81625 79237
L81625 79322
L81597 79378
L81569 79406
L81512 79434
L81287 79434
" />
<path d="M82581 79322
L82581 79715
" />
<path d="M82440 79097
L82300 79519
L82665 79519
" />
<path d="M82862 79181
L82890 79153
L82947 79125
L83087 79125
L83143 79153
L83172 79181
L83200 79237
L83200 79294
L83172 79378
L82834 79715
L83200 79715
" />
<path d="M83481 79715
L83593 79715
L83650 79687
L83678 79659
L83734 79575
L83762 79462
L83762 79237
L83734 79181
L83706 79153
L83650 79125
L83537 79125
L83481 79153
L83453 79181
L83425 79237
L83425 79378
L83453 79434
L83481 79462
L83537 79491
L83650 79491
L83706 79462
L83734 79434
L83762 79378
" />
<path d="M84100 79378
L84043 79350
L84015 79322
L83987 79266
L83987 79237
L84015 79181
L84043 79153
L84100 79125
L84212 79125
L84268 79153
L84296 79181
L84325 79237
L84325 79266
L84296 79322
L84268 79350
L84212 79378
L84100 79378
L84043 79406
L84015 79434
L83987 79491
L83987 79603
L84015 79659
L84043 79687
L84100 79715
L84212 79715
L84268 79687
L84296 79659
L84325 79603
L84325 79491
L84296 79434
L84268 79406
L84212 79378
" />
<path d="M84521 79940
L84550 79912
L84606 79828
L84634 79772
L84662 79687
L84690 79547
L84690 79434
L84662 79294
L84634 79209
L84606 79153
L84550 79069
L84521 79041
" />
<path d="M84971 79491
L85421 79491
" />
<path d="M85674 79687
L85731 79715
L85843 79715
L85899 79687
L85928 79631
L85928 79603
L85899 79547
L85843 79519
L85759 79519
L85703 79491
L85674 79434
L85674 79406
L85703 79350
L85759 79322
L85843 79322
L85899 79350
" />
<path d="M86096 79322
L86321 79322
" />
<path d="M86181 79125
L86181 79631
L86209 79687
L86265 79715
L86321 79715
" />
<path d="M86771 79715
L86771 79406
L86743 79350
L86687 79322
L86574 79322
L86518 79350
" />
<path d="M86771 79687
L86715 79715
L86574 79715
L86518 79687
L86490 79631
L86490 79575
L86518 79519
L86574 79491
L86715 79491
L86771 79462
" />
<path d="M87052 79715
L87052 79125
" />
<path d="M87052 79350
L87109 79322
L87221 79322
L87277 79350
L87305 79378
L87334 79434
L87334 79603
L87305 79659
L87277 79687
L87221 79715
L87109 79715
L87052 79687
" />
<path d="M87671 79715
L87615 79687
L87587 79631
L87587 79125
" />
<path d="M88121 79687
L88065 79715
L87952 79715
L87896 79687
L87868 79631
L87868 79406
L87896 79350
L87952 79322
L88065 79322
L88121 79350
L88149 79406
L88149 79462
L87868 79519
" />
<path d="M62755 77716
L105275 77716
" />
</g>
<g style="fill:#000000; fill-opacity:0.0; 
stroke:#000000; stroke-width:118.11; stroke-opacity:1; 
stroke-linecap:round; stroke-linejoin:round;">
<path d="M97092 78613
L96895 78332
" />
<path d="M96754 78613
L96754 78023
L96979 78023
L97035 78051
L97064 78079
L97092 78135
L97092 78219
L97064 78276
L97035 78304
L96979 78332
L96754 78332
" />
<path d="M97570 78585
L97514 78613
L97401 78613
L97345 78585
L97317 78529
L97317 78304
L97345 78248
L97401 78219
L97514 78219
L97570 78248
L97598 78304
L97598 78360
L97317 78416
" />
<path d="M97795 78219
L97935 78613
L98076 78219
" />
<path d="M98301 78557
L98329 78585
L98301 78613
L98273 78585
L98301 78557
L98301 78613
" />
<path d="M98301 78248
L98329 78276
L98301 78304
L98273 78276
L98301 78248
L98301 78304
" />
</g>
<g style="fill:#000000; fill-opacity:0.0; 
stroke:#000000; stroke-width:59.0551; stroke-opacity:1; 
stroke-linecap:round; stroke-linejoin:round;">
<path d="M63262 78585
L63346 78613
L63487 78613
L63543 78585
L63571 78557
L63599 78501
L63599 78444
L63571 78388
L63543 78360
L63487 78332
L63374 78304
L63318 78276
L63290 78248
L63262 78191
L63262 78135
L63290 78079
L63318 78051
L63374 78023
L63515 78023
L63599 78051
" />
<path d="M63852 78613
L63852 78219
" />
<path d="M63852 78023
L63824 78051
L63852 78079
L63880 78051
L63852 78023
L63852 78079
" />
<path d="M64077 78219
L64386 78219
L64077 78613
L64386 78613
" />
<path d="M64836 78585
L64780 78613
L64668 78613
L64611 78585
L64583 78529
L64583 78304
L64611 78248
L64668 78219
L64780 78219
L64836 78248
L64865 78304
L64865 78360
L64583 78416
" />
<path d="M65118 78557
L65146 78585
L65118 78613
L65089 78585
L65118 78557
L65118 78613
" />
<path d="M65118 78248
L65146 78276
L65118 78304
L65089 78276
L65118 78248
L65118 78304
" />
<path d="M65821 78444
L66102 78444
" />
<path d="M65764 78613
L65961 78023
L66158 78613
" />
<path d="M96754 79715
L96754 79125
" />
<path d="M97289 79715
L97289 79125
" />
<path d="M97289 79687
L97232 79715
L97120 79715
L97064 79687
L97035 79659
L97007 79603
L97007 79434
L97035 79378
L97064 79350
L97120 79322
L97232 79322
L97289 79350
" />
<path d="M97570 79659
L97598 79687
L97570 79715
L97542 79687
L97570 79659
L97570 79715
" />
<path d="M97570 79350
L97598 79378
L97570 79406
L97542 79378
L97570 79350
L97570 79406
" />
<path d="M98610 79715
L98273 79715
" />
<path d="M98442 79715
L98442 79125
L98385 79209
L98329 79266
L98273 79294
" />
<path d="M99285 79097
L98779 79856
" />
<path d="M99791 79715
L99454 79715
" />
<path d="M99623 79715
L99623 79125
L99566 79209
L99510 79266
L99454 79294
" />
<path d="M62755 76141
L105275 76141
" />
</g>
<g style="fill:#000000; fill-opacity:0.0; 
stroke:#000000; stroke-width:157.48; stroke-opacity:1; 
stroke-linecap:round; stroke-linejoin:round;">
<path d="M63327 76419
L63777 76419
" />
<path d="M63454 77206
L63552 76419
" />
<path d="M63941 77206
L64007 76681
" />
<path d="M64040 76419
L63997 76456
L64030 76494
L64072 76456
L64040 76419
L64030 76494
" />
<path d="M64269 76681
L64569 76681
" />
<path d="M64415 76419
L64330 77094
L64358 77169
L64429 77206
L64504 77206
" />
<path d="M64879 77206
L64808 77169
L64780 77094
L64865 76419
" />
<path d="M65483 77169
L65404 77206
L65254 77206
L65183 77169
L65155 77094
L65193 76794
L65239 76719
L65319 76681
L65469 76681
L65539 76719
L65568 76794
L65558 76869
L65174 76944
" />
<path d="M65863 77131
L65896 77169
L65853 77206
L65821 77169
L65863 77131
L65853 77206
" />
<path d="M65914 76719
L65947 76756
L65905 76794
L65872 76756
L65914 76719
L65905 76794
" />
</g>
<g style="fill:#000000; fill-opacity:0.0; 
stroke:#000000; stroke-width:59.0551; stroke-opacity:1; 
stroke-linecap:round; stroke-linejoin:round;">
<path d="M63487 75390
L63290 75390
" />
<path d="M63290 75700
L63290 75109
L63571 75109
" />
<path d="M63796 75700
L63796 75306
" />
<path d="M63796 75109
L63768 75137
L63796 75165
L63824 75137
L63796 75109
L63796 75165
" />
<path d="M64161 75700
L64105 75672
L64077 75615
L64077 75109
" />
<path d="M64611 75672
L64555 75700
L64443 75700
L64386 75672
L64358 75615
L64358 75390
L64386 75334
L64443 75306
L64555 75306
L64611 75334
L64640 75390
L64640 75447
L64358 75503
" />
<path d="M64893 75643
L64921 75672
L64893 75700
L64865 75672
L64893 75643
L64893 75700
" />
<path d="M64893 75334
L64921 75362
L64893 75390
L64865 75362
L64893 75334
L64893 75390
" />
<path d="M65539 75109
L65736 75700
L65933 75109
" />
<path d="M66214 75700
L66158 75672
L66130 75643
L66102 75587
L66102 75419
L66130 75362
L66158 75334
L66214 75306
L66299 75306
L66355 75334
L66383 75362
L66411 75419
L66411 75587
L66383 75643
L66355 75672
L66299 75700
L66214 75700
" />
<path d="M66749 75700
L66692 75672
L66664 75615
L66664 75109
" />
<path d="M66889 75306
L67114 75306
" />
<path d="M66974 75109
L66974 75615
L67002 75672
L67058 75700
L67114 75700
" />
<path d="M67564 75700
L67564 75390
L67536 75334
L67480 75306
L67367 75306
L67311 75334
" />
<path d="M67564 75672
L67508 75700
L67367 75700
L67311 75672
L67283 75615
L67283 75559
L67311 75503
L67367 75475
L67508 75475
L67564 75447
" />
<path d="M68098 75306
L68098 75784
L68070 75840
L68042 75868
L67986 75897
L67902 75897
L67845 75868
" />
<path d="M68098 75672
L68042 75700
L67930 75700
L67874 75672
L67845 75643
L67817 75587
L67817 75419
L67845 75362
L67874 75334
L67930 75306
L68042 75306
L68098 75334
" />
<path d="M68605 75672
L68548 75700
L68436 75700
L68380 75672
L68352 75615
L68352 75390
L68380 75334
L68436 75306
L68548 75306
L68605 75334
L68633 75390
L68633 75447
L68352 75503
" />
<path d="M69280 75756
L69223 75728
L69167 75672
L69083 75587
L69026 75559
L68970 75559
" />
<path d="M68998 75700
L68942 75672
L68886 75615
L68858 75503
L68858 75306
L68886 75194
L68942 75137
L68998 75109
L69111 75109
L69167 75137
L69223 75194
L69251 75306
L69251 75503
L69223 75615
L69167 75672
L69111 75700
L68998 75700
" />
<path d="M69758 75306
L69758 75700
" />
<path d="M69505 75306
L69505 75615
L69533 75672
L69589 75700
L69673 75700
L69730 75672
L69758 75643
" />
<path d="M70292 75700
L70292 75390
L70264 75334
L70208 75306
L70095 75306
L70039 75334
" />
<path d="M70292 75672
L70236 75700
L70095 75700
L70039 75672
L70011 75615
L70011 75559
L70039 75503
L70095 75475
L70236 75475
L70292 75447
" />
<path d="M70826 75700
L70826 75109
" />
<path d="M70826 75672
L70770 75700
L70658 75700
L70601 75672
L70573 75643
L70545 75587
L70545 75419
L70573 75362
L70601 75334
L70658 75306
L70770 75306
L70826 75334
" />
<path d="M71107 75700
L71107 75306
" />
<path d="M71107 75419
L71136 75362
L71164 75334
L71220 75306
L71276 75306
" />
<path d="M71726 75306
L71726 75700
" />
<path d="M71473 75306
L71473 75615
L71501 75672
L71557 75700
L71642 75700
L71698 75672
L71726 75643
" />
<path d="M72007 75306
L72007 75897
" />
<path d="M72007 75334
L72064 75306
L72176 75306
L72232 75334
L72260 75362
L72289 75419
L72289 75587
L72260 75643
L72232 75672
L72176 75700
L72064 75700
L72007 75672
" />
<path d="M72626 75700
L72570 75672
L72542 75615
L72542 75109
" />
<path d="M73076 75672
L73020 75700
L72907 75700
L72851 75672
L72823 75615
L72823 75390
L72851 75334
L72907 75306
L73020 75306
L73076 75334
L73104 75390
L73104 75447
L72823 75503
" />
<path d="M73357 75700
L73357 75306
" />
<path d="M73357 75419
L73385 75362
L73413 75334
L73470 75306
L73526 75306
" />
<path d="M73723 75643
L73751 75672
L73723 75700
L73695 75672
L73723 75643
L73723 75700
" />
<path d="M74004 75700
L74004 75109
" />
<path d="M74060 75475
L74229 75700
" />
<path d="M74229 75306
L74004 75531
" />
<path d="M74482 75700
L74482 75306
" />
<path d="M74482 75109
L74454 75137
L74482 75165
L74510 75137
L74482 75109
L74482 75165
" />
<path d="M75016 75672
L74960 75700
L74848 75700
L74791 75672
L74763 75643
L74735 75587
L74735 75419
L74763 75362
L74791 75334
L74848 75306
L74960 75306
L75016 75334
" />
<path d="M75523 75700
L75523 75390
L75494 75334
L75438 75306
L75326 75306
L75269 75334
" />
<path d="M75523 75672
L75466 75700
L75326 75700
L75269 75672
L75241 75615
L75241 75559
L75269 75503
L75326 75475
L75466 75475
L75523 75447
" />
<path d="M76057 75700
L76057 75109
" />
<path d="M76057 75672
L76001 75700
L75888 75700
L75832 75672
L75804 75643
L75776 75587
L75776 75419
L75804 75362
L75832 75334
L75888 75306
L76001 75306
L76057 75334
" />
<path d="M76197 75756
L76647 75756
" />
<path d="M76788 75306
L76788 75897
" />
<path d="M76788 75334
L76844 75306
L76957 75306
L77013 75334
L77041 75362
L77069 75419
L77069 75587
L77041 75643
L77013 75672
L76957 75700
L76844 75700
L76788 75672
" />
<path d="M77575 75672
L77519 75700
L77407 75700
L77350 75672
L77322 75643
L77294 75587
L77294 75419
L77322 75362
L77350 75334
L77407 75306
L77519 75306
L77575 75334
" />
<path d="M77829 75700
L77829 75109
" />
<path d="M77829 75334
L77885 75306
L77997 75306
L78053 75334
L78082 75362
L78110 75419
L78110 75587
L78082 75643
L78053 75672
L77997 75700
L77885 75700
L77829 75672
" />
<path d="M62755 73779
L105275 73779
" />
<path d="M63262 74609
L63346 74637
L63487 74637
L63543 74609
L63571 74580
L63599 74524
L63599 74468
L63571 74412
L63543 74384
L63487 74356
L63374 74327
L63318 74299
L63290 74271
L63262 74215
L63262 74159
L63290 74102
L63318 74074
L63374 74046
L63515 74046
L63599 74074
" />
<path d="M63852 74637
L63852 74046
" />
<path d="M64105 74637
L64105 74327
L64077 74271
L64021 74243
L63937 74243
L63880 74271
L63852 74299
" />
<path d="M64611 74609
L64555 74637
L64443 74637
L64386 74609
L64358 74552
L64358 74327
L64386 74271
L64443 74243
L64555 74243
L64611 74271
L64640 74327
L64640 74384
L64358 74440
" />
<path d="M65118 74609
L65061 74637
L64949 74637
L64893 74609
L64865 74552
L64865 74327
L64893 74271
L64949 74243
L65061 74243
L65118 74271
L65146 74327
L65146 74384
L64865 74440
" />
<path d="M65314 74243
L65539 74243
" />
<path d="M65399 74046
L65399 74552
L65427 74609
L65483 74637
L65539 74637
" />
<path d="M65736 74580
L65764 74609
L65736 74637
L65708 74609
L65736 74580
L65736 74637
" />
<path d="M65736 74271
L65764 74299
L65736 74327
L65708 74299
L65736 74271
L65736 74327
" />
<path d="M70629 77716
L70629 78897
" />
<path d="M95826 77716
L95826 80275
" />
</g>
<g style="fill:#000000; fill-opacity:0.0; 
stroke:#000000; stroke-width:39.3701; stroke-opacity:1; 
stroke-linecap:round; stroke-linejoin:round;">
<path d="M12278 33390
L12278 33432
" />
<path d="M52800 33390
L12278 33390
" />
<path d="M52800 56055
L52800 33390
" />
<path d="M12276 56055
L52800 56055
" />
<path d="M12276 33440
L12276 56055
" />
</g>
<g style="fill:#000000; fill-opacity:0.0; 
stroke:#000000; stroke-width:19.685; stroke-opacity:1; 
stroke-linecap:round; stroke-linejoin:round;">
</g>
<g style="fill:#000000; fill-opacity:1.0; 
stroke:#000000; stroke-width:19.685; stroke-opacity:1; 
stroke-linecap:round; stroke-linejoin:round;">
<circle cx="22110.6" cy="45110" r="187.008" /> 
<circle cx="20929.4" cy="45110" r="187.008" /> 
<circle cx="21905.6" cy="37310" r="187.008" /> 
<circle cx="20724.4" cy="37310" r="187.008" /> 
<circle cx="17920" cy="39965.6" r="187.008" /> 
<circle cx="17920" cy="38784.4" r="187.008" /> 
<circle cx="18346.4" cy="49680" r="285.433" /> 
<circle cx="15393.6" cy="49680" r="285.433" /> 
<circle cx="31996.4" cy="42800" r="285.433" /> 
<circle cx="29043.6" cy="42800" r="285.433" /> 
<circle cx="37873.6" cy="42950" r="285.433" /> 
<circle cx="40826.4" cy="42950" r="285.433" /> 
<circle cx="49626.4" cy="42800" r="285.433" /> 
<circle cx="46673.6" cy="42800" r="285.433" /> 
<polyline style="fill-rule:evenodd;"
points="32536,53329
32536,54510
31356,54510
31356,53329
32536,53329
" /> 
<circle cx="25253.5" cy="53920" r="590.157" /> 
<polyline style="fill-rule:evenodd;"
points="22213,50350
22213,49169
23393,49169
23393,50350
22213,50350
" /> 
<circle cx="29496.5" cy="49760" r="590.157" /> 
<polyline style="fill-rule:evenodd;"
points="40186,48969
40186,50150
39006,50150
39006,48969
40186,48969
" /> 
<circle cx="32903.5" cy="49560" r="590.157" /> 
<polyline style="fill-rule:evenodd;"
points="35553,54470
35553,53289
36733,53289
36733,54470
35553,54470
" /> 
<circle cx="42836.5" cy="53880" r="590.157" /> 
<polyline style="fill-rule:evenodd;"
points="50136,35909
50136,37090
48956,37090
48956,35909
50136,35909
" /> 
<circle cx="42853.5" cy="36500" r="590.157" /> 
<polyline style="fill-rule:evenodd;"
points="43113,50150
43113,48969
44293,48969
44293,50150
43113,50150
" /> 
<circle cx="50396.5" cy="49560" r="590.157" /> 
<circle cx="17420" cy="42700" r="890.157" /> 
<circle cx="14920" cy="42700" r="890.157" /> 
<circle cx="16170" cy="44550" r="890.157" /> 
<circle cx="39049" cy="35735" r="383.858" /> 
<circle cx="37671" cy="35735" r="383.858" /> 
<circle cx="31104" cy="35840" r="383.858" /> 
<circle cx="29726" cy="35840" r="383.858" /> 
<polyline style="fill-rule:evenodd;"
points="19584,38589
20115,38589
20115,39120
19584,39120
19584,38589
" /> 
<circle cx="19850" cy="39855" r="265.157" /> 
<circle cx="19850" cy="40855" r="265.157" /> 
<circle cx="19850" cy="41855" r="265.157" /> 
<circle cx="22850" cy="41855" r="265.157" /> 
<circle cx="22850" cy="40855" r="265.157" /> 
<circle cx="22850" cy="39855" r="265.157" /> 
<circle cx="22850" cy="38855" r="265.157" /> 
<circle cx="26417" cy="34450" r="290.157" /> 
<circle cx="26417" cy="39460" r="290.157" /> 
<circle cx="25472" cy="41625" r="290.157" /> 
<circle cx="25472" cy="46635" r="290.157" /> 
<circle cx="18025" cy="37240" r="187.008" /> 
<circle cx="13860" cy="37240" r="187.008" /> 
</g>
<g style="fill:#000000; fill-opacity:1.0; 
stroke:#000000; stroke-width:590.551; stroke-opacity:1; 
stroke-linecap:round; stroke-linejoin:round;">
<path d="M31104 35840
L31104 41907
" />
<path d="M31104 41907
L31996 42800
" />
<path d="M32903 49560
L32903 43707
" />
<path d="M32903 43707
L31996 42800
" />
<path d="M31946 53920
L31946 50517
" />
<path d="M31946 50517
L32903 49560
" />
<path d="M31946 53920
L36103 53920
" />
<path d="M36103 53920
L36143 53880
" />
<path d="M42853 36500
L42753 37571
" />
<path d="M40145 40180
L37893 40180
" />
<path d="M42753 37571
L40145 40180
" />
<path d="M39596 49560
L43703 49560
" />
<path d="M37873 42950
L37893 40180
" />
<path d="M37893 40180
L37893 39943
" />
<path d="M37671 39721
L37671 35735
" />
<path d="M37893 39943
L37671 39721
" />
<path d="M39596 49560
L39596 47746
" />
<path d="M37893 46043
L37873 42950
" />
<path d="M39596 47746
L37893 46043
" />
<path d="M49546 36500
L49546 39691
" />
<path d="M49726 39871
L49626 42800
" />
<path d="M49546 39691
L49726 39871
" />
<path d="M49546 36500
L49546 36496
" />
<path d="M40744 34840
L39049 35735
" />
<path d="M47790 34840
L40744 34840
" />
<path d="M49546 36496
L47790 34840
" />
<path d="M17920 38784
L17920 37345
" />
<path d="M18025 37240
L17920 37345
" />
<path d="M42836 53880
L45020 53880
" />
<path d="M40846 43646
L40826 42950
" />
<path d="M42400 45200
L40846 43646
" />
<path d="M43800 45200
L42400 45200
" />
<path d="M47100 48500
L43800 45200
" />
<path d="M47100 51800
L47100 48500
" />
<path d="M45020 53880
L47100 51800
" />
<path d="M22850 41855
L22850 44370
" />
<path d="M22850 44370
L22110 45110
" />
<path d="M26417 39460
L26417 40050
" />
<path d="M26417 40050
L25472 41625
" />
<path d="M22850 39855
L26022 39855
" />
<path d="M26022 39855
L26417 39460
" />
<path d="M29043 42800
L29043 49307
" />
<path d="M29043 49307
L29496 49760
" />
<path d="M50396 49560
L50396 47746
" />
<path d="M46773 44123
L46673 42800
" />
<path d="M50396 47746
L46773 44123
" />
<path d="M22850 40855
L22485 40855
" />
<path d="M21485 39855
L19850 39855
" />
<path d="M22485 40855
L21485 39855
" />
<path d="M22850 40855
L23320 40855
" />
<path d="M24115 45278
L25472 46635
" />
<path d="M24115 41650
L24115 45278
" />
<path d="M23320 40855
L24115 41650
" />
<path d="M19850 39855
L18030 39855
" />
<path d="M18030 39855
L17920 39965
" />
<path d="M19850 40855
L20791 40855
" />
<path d="M22803 48763
L22803 49760
" />
<path d="M22022 47982
L22803 48763
" />
<path d="M20922 47982
L22022 47982
" />
<path d="M19860 46243
L20922 47982
" />
<path d="M19860 44417
L19860 46243
" />
<path d="M21120 42570
L19860 44417
" />
<path d="M21120 41184
L21120 42570
" />
<path d="M20791 40855
L21120 41184
" />
<path d="M22803 49760
L22803 51470
" />
<path d="M22803 51470
L25253 53920
" />
<path d="M18346 49680
L22723 49680
" />
<path d="M22723 49680
L22803 49760
" />
<path d="M19850 41855
L19355 41855
" />
<path d="M15181 40935
L15181 40934
" />
<path d="M18435 40935
L15181 40935
" />
<path d="M19355 41855
L18435 40935
" />
<path d="M29726 35840
L27807 35840
" />
<path d="M27807 35840
L26417 34450
" />
<path d="M22850 38855
L22850 38254
" />
<path d="M22850 38254
L21905 37310
" />
<path d="M21905 37310
L21905 35669
" />
<path d="M21905 35669
L23125 34450
" />
<path d="M14920 42700
L15181 40934
" />
<path d="M15181 40934
L15324 39964
" />
<path d="M15324 39964
L15760 37020
" />
<path d="M18330 34450
L23125 34450
" />
<path d="M23125 34450
L26417 34450
" />
<path d="M15760 37020
L18330 34450
" />
</g>
<g style="fill:#000000; fill-opacity:1.0; 
stroke:#000000; stroke-width:19.685; stroke-opacity:1; 
stroke-linecap:round; stroke-linejoin:round;">
<polyline style="fill-rule:evenodd;"
points="22635,39355
22555,39408
22553,39409
22551,39411
22464,39469
22406,39555
22405,39557
22404,39559
22346,39646
22326,39747
22325,39750
22325,39752
22304,39855
22316,39915
21870,39469
21693,39351
21485,39309
21176,39309
21176,37367
21163,37189
21120,37084
21035,37069
20964,37140
20964,36998
20950,36914
20781,36857
20604,36870
20498,36914
20484,36998
20724,37239
20964,36998
20964,37140
20795,37310
21035,37550
21120,37535
21176,37367
21176,39309
20964,39309
20964,37621
20724,37380
20653,37451
20653,37310
20413,37069
20328,37084
20272,37252
20284,37430
20328,37535
20413,37550
20653,37310
20653,37451
20484,37621
20498,37705
20667,37762
20844,37749
20950,37705
20964,37621
20964,39309
20298,39309
20336,39271
20375,39179
20375,38967
20375,38742
20375,38530
20336,38438
20266,38368
20174,38330
20075,38330
19962,38330
19900,38392
19900,38805
20312,38805
20375,38742
20375,38967
20312,38905
19900,38905
19900,38912
19800,38912
19800,38905
19800,38805
19800,38392
19737,38330
19624,38330
19525,38330
19433,38368
19363,38438
19325,38530
19325,38742
19387,38805
19800,38805
19800,38905
19387,38905
19325,38967
19325,39179
19363,39271
19401,39309
18372,39309
18372,38841
18359,38664
18315,38558
18231,38544
18160,38614
18160,38473
18145,38388
17977,38332
17799,38344
17694,38388
17679,38473
17920,38713
18160,38473
18160,38614
17990,38784
18231,39024
18315,39010
18372,38841
18372,39309
18160,39309
18160,39095
17920,38855
17849,38925
17849,38784
17608,38544
17524,38558
17467,38727
17480,38904
17524,39010
17608,39024
17849,38784
17849,38925
17679,39095
17694,39180
17862,39236
18040,39223
18145,39180
18160,39095
18160,39309
18030,39309
17953,39325
17793,39324
17557,39422
17377,39602
17279,39837
17279,40092
17376,40327
17438,40389
15812,40389
15863,40044
15863,40044
15863,40044
16273,37278
18555,34995
21808,34995
21519,35283
21401,35460
21360,35669
21360,36952
21265,37182
21264,37436
21362,37672
21542,37852
21772,37948
22304,38480
22304,38855
22324,38956
22324,38958
22325,38961
22346,39063
22403,39149
22404,39152
22406,39153
22464,39240
22550,39298
22552,39299
22554,39300
22635,39355
" /> 
</g>
<g style="fill:#000000; fill-opacity:0.0; 
stroke:#000000; stroke-width:100; stroke-opacity:1; 
stroke-linecap:round; stroke-linejoin:round;">
<polyline fill="none;"
points="22635,39355
22555,39408
22553,39409
22551,39411
22464,39469
22406,39555
22405,39557
22404,39559
22346,39646
22326,39747
22325,39750
22325,39752
22304,39855
22316,39915
21870,39469
21693,39351
21485,39309
21176,39309
21176,37367
21163,37189
21120,37084
21035,37069
20964,37140
20964,36998
20950,36914
20781,36857
20604,36870
20498,36914
20484,36998
20724,37239
20964,36998
20964,37140
20795,37310
21035,37550
21120,37535
21176,37367
21176,39309
20964,39309
20964,37621
20724,37380
20653,37451
20653,37310
20413,37069
20328,37084
20272,37252
20284,37430
20328,37535
20413,37550
20653,37310
20653,37451
20484,37621
20498,37705
20667,37762
20844,37749
20950,37705
20964,37621
20964,39309
20298,39309
20336,39271
20375,39179
20375,38967
20375,38742
20375,38530
20336,38438
20266,38368
20174,38330
20075,38330
19962,38330
19900,38392
19900,38805
20312,38805
20375,38742
20375,38967
20312,38905
19900,38905
19900,38912
19800,38912
19800,38905
19800,38805
19800,38392
19737,38330
19624,38330
19525,38330
19433,38368
19363,38438
19325,38530
19325,38742
19387,38805
19800,38805
19800,38905
19387,38905
19325,38967
19325,39179
19363,39271
19401,39309
18372,39309
18372,38841
18359,38664
18315,38558
18231,38544
18160,38614
18160,38473
18145,38388
17977,38332
17799,38344
17694,38388
17679,38473
17920,38713
18160,38473
18160,38614
17990,38784
18231,39024
18315,39010
18372,38841
18372,39309
18160,39309
18160,39095
17920,38855
17849,38925
17849,38784
17608,38544
17524,38558
17467,38727
17480,38904
17524,39010
17608,39024
17849,38784
17849,38925
17679,39095
17694,39180
17862,39236
18040,39223
18145,39180
18160,39095
18160,39309
18030,39309
17953,39325
17793,39324
17557,39422
17377,39602
17279,39837
17279,40092
17376,40327
17438,40389
15812,40389
15863,40044
15863,40044
15863,40044
16273,37278
18555,34995
21808,34995
21519,35283
21401,35460
21360,35669
21360,36952
21265,37182
21264,37436
21362,37672
21542,37852
21772,37948
22304,38480
22304,38855
22324,38956
22324,38958
22325,38961
22346,39063
22403,39149
22404,39152
22406,39153
22464,39240
22550,39298
22552,39299
22554,39300
22635,39355
" /> 
</g>
<g style="fill:#000000; fill-opacity:1.0; 
stroke:#000000; stroke-width:19.685; stroke-opacity:1; 
stroke-linecap:round; stroke-linejoin:round;">
<polyline style="fill-rule:evenodd;"
points="52530,55785
51440,55785
51440,49353
51281,48969
50988,48675
50941,48656
50941,47746
50900,47537
50900,47537
50782,47360
50590,47169
50590,37188
50590,37011
50590,35811
50522,35648
50397,35523
50234,35456
50058,35456
49238,35456
48164,34443
48080,34390
47998,34336
47990,34334
47983,34330
47886,34313
47790,34294
40744,34294
40718,34299
40693,34297
40615,34320
40535,34336
40513,34350
40489,34357
39356,34956
39216,34897
38883,34897
38575,35024
38359,35240
38145,35025
37838,34897
37505,34897
37197,35024
36961,35260
36833,35567
36833,35900
36960,36208
37125,36373
37125,39721
37167,39929
37285,40106
37348,40169
37348,40178
37331,42446
37247,42530
37134,42802
37134,43096
37246,43368
37331,43453
37348,46047
37369,46149
37389,46252
37390,46253
37391,46255
37449,46342
37508,46429
39051,47972
39051,48516
38908,48516
38745,48583
38620,48708
38552,48871
38552,49048
38552,50248
38620,50411
38745,50536
38908,50603
39084,50603
40284,50603
40447,50536
40572,50411
40640,50248
40640,50105
42659,50105
42659,50248
42727,50411
42852,50536
43015,50603
43191,50603
44391,50603
44554,50536
44679,50411
44747,50248
44747,50071
44747,48871
44679,48708
44554,48583
44391,48516
44215,48516
43015,48516
42852,48583
42727,48708
42659,48871
42659,49014
40640,49014
40640,48871
40572,48708
40447,48583
40284,48516
40141,48516
40141,47746
40100,47537
40100,47537
39982,47360
38437,45816
38422,43446
38499,43369
38612,43097
38612,42803
38500,42531
38422,42453
38434,40725
40145,40725
40353,40683
40353,40683
40530,40565
43139,37957
43184,37889
43235,37826
43243,37801
43257,37780
43273,37700
43296,37622
43313,37439
43443,37385
43737,37091
43897,36708
43897,36293
43738,35909
43445,35615
43062,35456
42646,35456
42263,35614
41969,35908
41810,36291
41809,36706
41968,37090
42215,37338
39919,39634
38330,39634
38279,39558
38216,39495
38216,36373
38360,36229
38574,36444
38881,36572
39214,36572
39522,36445
39758,36209
39882,35911
40879,35385
47573,35385
48502,36261
48502,37188
48570,37351
48695,37476
48858,37543
49001,37543
49001,39691
49042,39900
49160,40077
49173,40089
49098,42282
49000,42380
48887,42652
48887,42946
48999,43218
49207,43426
49478,43538
49772,43539
50044,43426
50252,43219
50365,42947
50365,42653
50253,42381
50188,42317
50271,39889
50269,39880
50271,39871
50252,39775
50236,39680
50231,39671
50230,39662
50176,39581
50124,39499
50117,39493
50111,39485
50091,39465
50091,37543
50234,37543
50397,37476
50522,37351
50590,37188
50590,47169
47302,43880
47255,43263
47299,43219
47412,42947
47412,42653
47300,42381
47092,42173
46821,42061
46527,42060
46255,42173
46047,42380
45934,42652
45934,42946
46046,43218
46167,43338
46229,44164
46253,44247
46269,44332
46281,44349
46287,44369
46340,44437
46388,44509
49851,47972
49851,48656
49806,48674
49512,48968
49352,49351
49352,49766
49511,50150
49804,50444
50187,50603
50603,50603
50986,50445
51280,50151
51439,49768
51440,49353
51440,55785
47645,55785
47645,51800
47645,48500
47603,48291
47603,48291
47485,48114
44185,44814
44008,44696
43800,44654
42625,44654
41396,43425
41452,43369
41565,43097
41565,42803
41453,42531
41245,42323
40974,42211
40680,42210
40408,42323
40200,42530
40087,42802
40087,43096
40199,43368
40295,43464
40301,43662
40323,43758
40342,43855
40347,43861
40348,43869
40405,43949
40460,44031
42014,45585
42191,45703
42191,45703
42400,45745
43574,45745
46554,48725
46554,51574
44794,53334
43740,53334
43721,53289
43428,52995
43044,52836
42629,52836
42246,52994
41952,53288
41792,53671
41792,54086
41951,54470
42244,54764
42627,54923
43043,54923
43426,54765
43720,54471
43740,54425
45020,54425
45228,54383
45228,54383
45405,54265
47485,52185
47603,52008
47603,52008
47645,51800
47645,55785
37187,55785
37187,54568
37187,54391
37187,53191
37119,53028
36994,52903
36831,52836
36655,52836
35455,52836
35292,52903
35167,53028
35099,53191
35099,53368
35099,53374
32990,53374
32990,53231
32922,53068
32797,52943
32634,52876
32491,52876
32491,50742
32649,50584
32695,50603
33110,50603
33493,50445
33787,50151
33947,49768
33947,49353
33788,48969
33495,48675
33448,48656
33448,43707
33407,43498
33407,43498
33289,43321
32735,42767
32735,42653
32623,42381
32415,42173
32144,42061
32028,42061
31649,41681
31649,36478
31813,36314
31941,36007
31941,35674
31814,35366
31578,35130
31271,35002
30938,35002
30630,35129
30414,35345
30200,35130
29893,35002
29560,35002
29252,35129
29087,35294
28032,35294
26888,34150
26883,34138
26728,33984
26526,33900
26308,33899
26296,33904
23125,33904
18330,33904
18121,33946
17944,34064
15374,36634
15337,36690
15292,36739
15278,36777
15256,36811
15243,36877
15220,36940
14785,39884
14641,40855
14561,41394
14159,41560
13781,41937
13576,42431
13576,42966
13780,43460
14157,43838
14651,44043
14925,44043
14826,44281
14826,44816
15030,45310
15407,45688
15901,45893
16436,45893
16930,45689
17308,45312
17513,44818
17513,44283
17334,43850
17652,43849
18068,43677
18168,43519
17420,42770
17414,42776
17343,42705
17349,42700
16600,41951
16442,42051
16269,42475
16270,42932
16384,43206
16164,43206
16263,42968
16263,42433
16059,41939
15682,41561
15642,41544
15651,41480
18209,41480
18969,42240
19146,42358
19146,42358
19355,42400
19850,42400
19951,42380
19953,42380
19956,42379
20058,42358
20144,42301
20147,42300
20148,42298
20235,42240
20293,42154
20294,42152
20295,42150
20353,42063
20373,41962
20374,41959
20374,41957
20395,41855
20375,41753
20375,41751
20374,41748
20353,41646
20296,41560
20295,41558
20293,41556
20235,41469
20149,41411
20147,41410
20145,41409
20132,41400
20565,41400
20574,41409
20574,42401
19409,44109
19387,44161
19356,44208
19346,44258
19326,44305
19325,44361
19314,44417
19314,46243
19323,46284
19321,46327
19343,46388
19356,46451
19379,46487
19394,46527
20456,48266
20500,48313
20536,48367
20571,48391
20600,48422
20659,48449
20713,48485
20755,48494
20793,48512
20858,48514
20922,48527
21796,48527
22023,48754
21952,48783
21827,48908
21759,49071
21759,49134
18846,49134
18765,49053
18570,48973
18570,42924
18569,42467
18397,42051
18239,41951
18168,42021
18168,41880
18068,41722
17644,41549
17187,41550
16771,41722
16671,41880
17420,42629
18168,41880
18168,42021
17490,42700
18239,43448
18397,43348
18570,42924
18570,48973
18494,48941
18200,48940
17928,49053
17720,49260
17607,49532
17607,49826
17719,50098
17927,50306
18198,50418
18492,50419
18764,50306
18846,50225
21759,50225
21759,50448
21827,50611
21952,50736
22115,50803
22258,50803
22258,51470
22299,51678
22417,51855
24228,53666
24210,53711
24209,54126
24368,54510
24661,54804
25045,54963
25460,54963
25843,54805
26137,54511
26297,54128
26297,53713
26138,53329
25845,53035
25462,52876
25046,52876
25000,52895
23348,51244
23348,50803
23491,50803
23654,50736
23779,50611
23847,50448
23847,50271
23847,49071
23779,48908
23654,48783
23491,48716
23339,48716
23307,48554
23307,48554
23189,48377
22407,47596
22230,47478
22022,47436
21381,47436
21381,45167
21368,44989
21325,44884
21240,44869
21169,44940
21169,44798
21155,44714
20986,44657
20809,44670
20703,44714
20689,44798
20929,45039
21169,44798
21169,44940
21000,45110
21240,45350
21325,45335
21381,45167
21381,47436
21227,47436
21169,47341
21169,45421
20929,45180
20858,45251
20858,45110
20618,44869
20533,44884
20477,45052
20489,45230
20533,45335
20618,45350
20858,45110
20858,45251
20689,45421
20703,45505
20872,45562
21049,45549
21155,45505
21169,45421
21169,47341
20405,46089
20405,44585
21570,42877
21592,42825
21623,42778
21633,42728
21653,42681
21654,42625
21665,42570
21665,41184
21623,40975
21623,40975
21505,40798
21176,40469
21073,40400
21259,40400
22099,41240
22276,41358
22276,41358
22485,41400
22567,41400
22555,41408
22553,41409
22551,41411
22464,41469
22406,41555
22405,41557
22404,41559
22346,41646
22326,41747
22325,41750
22325,41752
22304,41855
22304,44144
21977,44471
21748,44566
21567,44746
21470,44982
21469,45236
21567,45472
21747,45652
21982,45750
22237,45750
22472,45653
22653,45473
22749,45242
23235,44756
23353,44579
23353,44579
23395,44370
23395,41855
23375,41753
23375,41751
23374,41748
23357,41663
23569,41875
23569,45278
23611,45486
23729,45663
25000,46934
25005,46946
25160,47100
25362,47184
25580,47185
25783,47101
25937,46946
26021,46744
26022,46526
25938,46323
25783,46169
25772,46164
24660,45052
24660,41650
24618,41441
24618,41441
24500,41264
23705,40469
23602,40400
25570,40400
25049,41270
25006,41313
24922,41515
24921,41733
25005,41936
25160,42090
25362,42174
25580,42175
25783,42091
25937,41936
25976,41843
26884,40330
26898,40292
26920,40258
26933,40193
26956,40130
26954,40089
26962,40050
26962,39581
26966,39569
26967,39351
26883,39148
26728,38994
26526,38910
26308,38909
26105,38993
25951,39148
25946,39159
25796,39309
23132,39309
23144,39301
23147,39300
23148,39298
23235,39240
23293,39154
23294,39152
23295,39150
23353,39063
23373,38962
23374,38959
23374,38957
23395,38855
23395,38254
23353,38045
23353,38045
23235,37868
22543,37176
22450,36952
22450,35895
23350,34995
26191,34995
27421,36225
27598,36343
27598,36343
27807,36385
29087,36385
29251,36549
29558,36677
29891,36677
30199,36550
30415,36334
30558,36478
30558,41907
30600,42116
30718,42293
31257,42832
31257,42946
31369,43218
31577,43426
31848,43538
31964,43538
32358,43933
32358,48656
32313,48674
32019,48968
31860,49351
31859,49766
31878,49813
31560,50131
31442,50308
31401,50517
31401,52876
31258,52876
31095,52943
30970,53068
30902,53231
30902,53408
30902,54608
30970,54771
31095,54896
31258,54963
31434,54963
32634,54963
32797,54896
32922,54771
32990,54608
32990,54465
35099,54465
35099,54568
35167,54731
35292,54856
35455,54923
35631,54923
36831,54923
36994,54856
37119,54731
37187,54568
37187,55785
30540,55785
30540,49553
30381,49169
30088,48875
29704,48716
29588,48716
29588,43299
29669,43219
29782,42947
29782,42653
29670,42381
29462,42173
29191,42061
28897,42060
28625,42173
28417,42380
28304,42652
28304,42946
28416,43218
28498,43299
28498,49307
28516,49398
28452,49551
28452,49966
28611,50350
28904,50644
29287,50803
29703,50803
30086,50645
30380,50351
30539,49968
30540,49553
30540,55785
15943,55785
15943,49760
15932,49543
15870,49394
15776,49368
15705,49438
15705,49297
15678,49202
15474,49129
15257,49140
15108,49202
15081,49297
15393,49609
15705,49297
15705,49438
15464,49680
15776,49991
15870,49965
15943,49760
15943,55785
15705,55785
15705,50062
15393,49750
15322,49821
15322,49680
15011,49368
14916,49394
14843,49599
14854,49816
14916,49965
15011,49991
15322,49680
15322,49821
15081,50062
15108,50157
15312,50230
15529,50219
15678,50157
15705,50062
15705,55785
12545,55785
12545,33659
52530,33659
52530,55785
" /> 
</g>
<g style="fill:#000000; fill-opacity:0.0; 
stroke:#000000; stroke-width:100; stroke-opacity:1; 
stroke-linecap:round; stroke-linejoin:round;">
<polyline fill="none;"
points="52530,55785
51440,55785
51440,49353
51281,48969
50988,48675
50941,48656
50941,47746
50900,47537
50900,47537
50782,47360
50590,47169
50590,37188
50590,37011
50590,35811
50522,35648
50397,35523
50234,35456
50058,35456
49238,35456
48164,34443
48080,34390
47998,34336
47990,34334
47983,34330
47886,34313
47790,34294
40744,34294
40718,34299
40693,34297
40615,34320
40535,34336
40513,34350
40489,34357
39356,34956
39216,34897
38883,34897
38575,35024
38359,35240
38145,35025
37838,34897
37505,34897
37197,35024
36961,35260
36833,35567
36833,35900
36960,36208
37125,36373
37125,39721
37167,39929
37285,40106
37348,40169
37348,40178
37331,42446
37247,42530
37134,42802
37134,43096
37246,43368
37331,43453
37348,46047
37369,46149
37389,46252
37390,46253
37391,46255
37449,46342
37508,46429
39051,47972
39051,48516
38908,48516
38745,48583
38620,48708
38552,48871
38552,49048
38552,50248
38620,50411
38745,50536
38908,50603
39084,50603
40284,50603
40447,50536
40572,50411
40640,50248
40640,50105
42659,50105
42659,50248
42727,50411
42852,50536
43015,50603
43191,50603
44391,50603
44554,50536
44679,50411
44747,50248
44747,50071
44747,48871
44679,48708
44554,48583
44391,48516
44215,48516
43015,48516
42852,48583
42727,48708
42659,48871
42659,49014
40640,49014
40640,48871
40572,48708
40447,48583
40284,48516
40141,48516
40141,47746
40100,47537
40100,47537
39982,47360
38437,45816
38422,43446
38499,43369
38612,43097
38612,42803
38500,42531
38422,42453
38434,40725
40145,40725
40353,40683
40353,40683
40530,40565
43139,37957
43184,37889
43235,37826
43243,37801
43257,37780
43273,37700
43296,37622
43313,37439
43443,37385
43737,37091
43897,36708
43897,36293
43738,35909
43445,35615
43062,35456
42646,35456
42263,35614
41969,35908
41810,36291
41809,36706
41968,37090
42215,37338
39919,39634
38330,39634
38279,39558
38216,39495
38216,36373
38360,36229
38574,36444
38881,36572
39214,36572
39522,36445
39758,36209
39882,35911
40879,35385
47573,35385
48502,36261
48502,37188
48570,37351
48695,37476
48858,37543
49001,37543
49001,39691
49042,39900
49160,40077
49173,40089
49098,42282
49000,42380
48887,42652
48887,42946
48999,43218
49207,43426
49478,43538
49772,43539
50044,43426
50252,43219
50365,42947
50365,42653
50253,42381
50188,42317
50271,39889
50269,39880
50271,39871
50252,39775
50236,39680
50231,39671
50230,39662
50176,39581
50124,39499
50117,39493
50111,39485
50091,39465
50091,37543
50234,37543
50397,37476
50522,37351
50590,37188
50590,47169
47302,43880
47255,43263
47299,43219
47412,42947
47412,42653
47300,42381
47092,42173
46821,42061
46527,42060
46255,42173
46047,42380
45934,42652
45934,42946
46046,43218
46167,43338
46229,44164
46253,44247
46269,44332
46281,44349
46287,44369
46340,44437
46388,44509
49851,47972
49851,48656
49806,48674
49512,48968
49352,49351
49352,49766
49511,50150
49804,50444
50187,50603
50603,50603
50986,50445
51280,50151
51439,49768
51440,49353
51440,55785
47645,55785
47645,51800
47645,48500
47603,48291
47603,48291
47485,48114
44185,44814
44008,44696
43800,44654
42625,44654
41396,43425
41452,43369
41565,43097
41565,42803
41453,42531
41245,42323
40974,42211
40680,42210
40408,42323
40200,42530
40087,42802
40087,43096
40199,43368
40295,43464
40301,43662
40323,43758
40342,43855
40347,43861
40348,43869
40405,43949
40460,44031
42014,45585
42191,45703
42191,45703
42400,45745
43574,45745
46554,48725
46554,51574
44794,53334
43740,53334
43721,53289
43428,52995
43044,52836
42629,52836
42246,52994
41952,53288
41792,53671
41792,54086
41951,54470
42244,54764
42627,54923
43043,54923
43426,54765
43720,54471
43740,54425
45020,54425
45228,54383
45228,54383
45405,54265
47485,52185
47603,52008
47603,52008
47645,51800
47645,55785
37187,55785
37187,54568
37187,54391
37187,53191
37119,53028
36994,52903
36831,52836
36655,52836
35455,52836
35292,52903
35167,53028
35099,53191
35099,53368
35099,53374
32990,53374
32990,53231
32922,53068
32797,52943
32634,52876
32491,52876
32491,50742
32649,50584
32695,50603
33110,50603
33493,50445
33787,50151
33947,49768
33947,49353
33788,48969
33495,48675
33448,48656
33448,43707
33407,43498
33407,43498
33289,43321
32735,42767
32735,42653
32623,42381
32415,42173
32144,42061
32028,42061
31649,41681
31649,36478
31813,36314
31941,36007
31941,35674
31814,35366
31578,35130
31271,35002
30938,35002
30630,35129
30414,35345
30200,35130
29893,35002
29560,35002
29252,35129
29087,35294
28032,35294
26888,34150
26883,34138
26728,33984
26526,33900
26308,33899
26296,33904
23125,33904
18330,33904
18121,33946
17944,34064
15374,36634
15337,36690
15292,36739
15278,36777
15256,36811
15243,36877
15220,36940
14785,39884
14641,40855
14561,41394
14159,41560
13781,41937
13576,42431
13576,42966
13780,43460
14157,43838
14651,44043
14925,44043
14826,44281
14826,44816
15030,45310
15407,45688
15901,45893
16436,45893
16930,45689
17308,45312
17513,44818
17513,44283
17334,43850
17652,43849
18068,43677
18168,43519
17420,42770
17414,42776
17343,42705
17349,42700
16600,41951
16442,42051
16269,42475
16270,42932
16384,43206
16164,43206
16263,42968
16263,42433
16059,41939
15682,41561
15642,41544
15651,41480
18209,41480
18969,42240
19146,42358
19146,42358
19355,42400
19850,42400
19951,42380
19953,42380
19956,42379
20058,42358
20144,42301
20147,42300
20148,42298
20235,42240
20293,42154
20294,42152
20295,42150
20353,42063
20373,41962
20374,41959
20374,41957
20395,41855
20375,41753
20375,41751
20374,41748
20353,41646
20296,41560
20295,41558
20293,41556
20235,41469
20149,41411
20147,41410
20145,41409
20132,41400
20565,41400
20574,41409
20574,42401
19409,44109
19387,44161
19356,44208
19346,44258
19326,44305
19325,44361
19314,44417
19314,46243
19323,46284
19321,46327
19343,46388
19356,46451
19379,46487
19394,46527
20456,48266
20500,48313
20536,48367
20571,48391
20600,48422
20659,48449
20713,48485
20755,48494
20793,48512
20858,48514
20922,48527
21796,48527
22023,48754
21952,48783
21827,48908
21759,49071
21759,49134
18846,49134
18765,49053
18570,48973
18570,42924
18569,42467
18397,42051
18239,41951
18168,42021
18168,41880
18068,41722
17644,41549
17187,41550
16771,41722
16671,41880
17420,42629
18168,41880
18168,42021
17490,42700
18239,43448
18397,43348
18570,42924
18570,48973
18494,48941
18200,48940
17928,49053
17720,49260
17607,49532
17607,49826
17719,50098
17927,50306
18198,50418
18492,50419
18764,50306
18846,50225
21759,50225
21759,50448
21827,50611
21952,50736
22115,50803
22258,50803
22258,51470
22299,51678
22417,51855
24228,53666
24210,53711
24209,54126
24368,54510
24661,54804
25045,54963
25460,54963
25843,54805
26137,54511
26297,54128
26297,53713
26138,53329
25845,53035
25462,52876
25046,52876
25000,52895
23348,51244
23348,50803
23491,50803
23654,50736
23779,50611
23847,50448
23847,50271
23847,49071
23779,48908
23654,48783
23491,48716
23339,48716
23307,48554
23307,48554
23189,48377
22407,47596
22230,47478
22022,47436
21381,47436
21381,45167
21368,44989
21325,44884
21240,44869
21169,44940
21169,44798
21155,44714
20986,44657
20809,44670
20703,44714
20689,44798
20929,45039
21169,44798
21169,44940
21000,45110
21240,45350
21325,45335
21381,45167
21381,47436
21227,47436
21169,47341
21169,45421
20929,45180
20858,45251
20858,45110
20618,44869
20533,44884
20477,45052
20489,45230
20533,45335
20618,45350
20858,45110
20858,45251
20689,45421
20703,45505
20872,45562
21049,45549
21155,45505
21169,45421
21169,47341
20405,46089
20405,44585
21570,42877
21592,42825
21623,42778
21633,42728
21653,42681
21654,42625
21665,42570
21665,41184
21623,40975
21623,40975
21505,40798
21176,40469
21073,40400
21259,40400
22099,41240
22276,41358
22276,41358
22485,41400
22567,41400
22555,41408
22553,41409
22551,41411
22464,41469
22406,41555
22405,41557
22404,41559
22346,41646
22326,41747
22325,41750
22325,41752
22304,41855
22304,44144
21977,44471
21748,44566
21567,44746
21470,44982
21469,45236
21567,45472
21747,45652
21982,45750
22237,45750
22472,45653
22653,45473
22749,45242
23235,44756
23353,44579
23353,44579
23395,44370
23395,41855
23375,41753
23375,41751
23374,41748
23357,41663
23569,41875
23569,45278
23611,45486
23729,45663
25000,46934
25005,46946
25160,47100
25362,47184
25580,47185
25783,47101
25937,46946
26021,46744
26022,46526
25938,46323
25783,46169
25772,46164
24660,45052
24660,41650
24618,41441
24618,41441
24500,41264
23705,40469
23602,40400
25570,40400
25049,41270
25006,41313
24922,41515
24921,41733
25005,41936
25160,42090
25362,42174
25580,42175
25783,42091
25937,41936
25976,41843
26884,40330
26898,40292
26920,40258
26933,40193
26956,40130
26954,40089
26962,40050
26962,39581
26966,39569
26967,39351
26883,39148
26728,38994
26526,38910
26308,38909
26105,38993
25951,39148
25946,39159
25796,39309
23132,39309
23144,39301
23147,39300
23148,39298
23235,39240
23293,39154
23294,39152
23295,39150
23353,39063
23373,38962
23374,38959
23374,38957
23395,38855
23395,38254
23353,38045
23353,38045
23235,37868
22543,37176
22450,36952
22450,35895
23350,34995
26191,34995
27421,36225
27598,36343
27598,36343
27807,36385
29087,36385
29251,36549
29558,36677
29891,36677
30199,36550
30415,36334
30558,36478
30558,41907
30600,42116
30718,42293
31257,42832
31257,42946
31369,43218
31577,43426
31848,43538
31964,43538
32358,43933
32358,48656
32313,48674
32019,48968
31860,49351
31859,49766
31878,49813
31560,50131
31442,50308
31401,50517
31401,52876
31258,52876
31095,52943
30970,53068
30902,53231
30902,53408
30902,54608
30970,54771
31095,54896
31258,54963
31434,54963
32634,54963
32797,54896
32922,54771
32990,54608
32990,54465
35099,54465
35099,54568
35167,54731
35292,54856
35455,54923
35631,54923
36831,54923
36994,54856
37119,54731
37187,54568
37187,55785
30540,55785
30540,49553
30381,49169
30088,48875
29704,48716
29588,48716
29588,43299
29669,43219
29782,42947
29782,42653
29670,42381
29462,42173
29191,42061
28897,42060
28625,42173
28417,42380
28304,42652
28304,42946
28416,43218
28498,43299
28498,49307
28516,49398
28452,49551
28452,49966
28611,50350
28904,50644
29287,50803
29703,50803
30086,50645
30380,50351
30539,49968
30540,49553
30540,55785
15943,55785
15943,49760
15932,49543
15870,49394
15776,49368
15705,49438
15705,49297
15678,49202
15474,49129
15257,49140
15108,49202
15081,49297
15393,49609
15705,49297
15705,49438
15464,49680
15776,49991
15870,49965
15943,49760
15943,55785
15705,55785
15705,50062
15393,49750
15322,49821
15322,49680
15011,49368
14916,49394
14843,49599
14854,49816
14916,49965
15011,49991
15322,49680
15322,49821
15081,50062
15108,50157
15312,50230
15529,50219
15678,50157
15705,50062
15705,55785
12545,55785
12545,33659
52530,33659
52530,55785
" /> 
</g>
<g style="fill:#FFFFFF; fill-opacity:0.0; 
stroke:#FFFFFF; stroke-width:19.685; stroke-opacity:1; 
stroke-linecap:round; stroke-linejoin:round;">
</g>
<g style="fill:#FFFFFF; fill-opacity:1.0; 
stroke:#FFFFFF; stroke-width:19.685; stroke-opacity:1; 
stroke-linecap:round; stroke-linejoin:round;">
<circle cx="18025" cy="37240" r="147.638" /> 
<circle cx="13860" cy="37240" r="147.638" /> 
<circle cx="22110.6" cy="45110" r="108.268" /> 
<circle cx="20929.4" cy="45110" r="108.268" /> 
<circle cx="21905.6" cy="37310" r="108.268" /> 
<circle cx="20724.4" cy="37310" r="108.268" /> 
<circle cx="17920" cy="39965.6" r="108.268" /> 
<circle cx="17920" cy="38784.4" r="108.268" /> 
<circle cx="18346.4" cy="49680" r="187.008" /> 
<circle cx="15393.6" cy="49680" r="187.008" /> 
<circle cx="31996.4" cy="42800" r="187.008" /> 
<circle cx="29043.6" cy="42800" r="187.008" /> 
<circle cx="37873.6" cy="42950" r="187.008" /> 
<circle cx="40826.4" cy="42950" r="187.008" /> 
<circle cx="49626.4" cy="42800" r="187.008" /> 
<circle cx="46673.6" cy="42800" r="187.008" /> 
<circle cx="31946.5" cy="53920" r="383.858" /> 
<circle cx="25253.5" cy="53920" r="383.858" /> 
<circle cx="22803.5" cy="49760" r="383.858" /> 
<circle cx="29496.5" cy="49760" r="383.858" /> 
<circle cx="39596.5" cy="49560" r="383.858" /> 
<circle cx="32903.5" cy="49560" r="383.858" /> 
<circle cx="36143.5" cy="53880" r="383.858" /> 
<circle cx="42836.5" cy="53880" r="383.858" /> 
<circle cx="49546.5" cy="36500" r="383.858" /> 
<circle cx="42853.5" cy="36500" r="383.858" /> 
<circle cx="43703.5" cy="49560" r="383.858" /> 
<circle cx="50396.5" cy="49560" r="383.858" /> 
<circle cx="17420" cy="42700" r="541.339" /> 
<circle cx="14920" cy="42700" r="541.339" /> 
<circle cx="16170" cy="44550" r="541.339" /> 
<circle cx="39049" cy="35735" r="187.008" /> 
<circle cx="37671" cy="35735" r="187.008" /> 
<circle cx="31104" cy="35840" r="187.008" /> 
<circle cx="29726" cy="35840" r="187.008" /> 
<circle cx="19850" cy="38855" r="147.638" /> 
<circle cx="19850" cy="39855" r="147.638" /> 
<circle cx="19850" cy="40855" r="147.638" /> 
<circle cx="19850" cy="41855" r="147.638" /> 
<circle cx="22850" cy="41855" r="147.638" /> 
<circle cx="22850" cy="40855" r="147.638" /> 
<circle cx="22850" cy="39855" r="147.638" /> 
<circle cx="22850" cy="38855" r="147.638" /> 
<circle cx="26417" cy="34450" r="147.638" /> 
<circle cx="26417" cy="39460" r="147.638" /> 
<circle cx="25472" cy="41625" r="147.638" /> 
<circle cx="25472" cy="46635" r="147.638" /> 
</g> 
</svg>
